<svg xmlns="http://www.w3.org/2000/svg" xmlns:xlink="http://www.w3.org/1999/xlink" viewBox="0 0 512 512" width="512" height="512" style="width: 100%; height: 100%; transform: translate3d(0,0,0); content-visibility: visible;" preserveAspectRatio="xMidYMid meet"><defs><clipPath id="__lottie_element_2"><rect width="512" height="512" x="0" y="0"></rect></clipPath><radialGradient id="__lottie_element_19" spreadMethod="pad" gradientUnits="userSpaceOnUse" cx="-59.880001068115234" cy="-135.61000061035156" r="209.64657642585075" fx="-59.880001068115234" fy="-135.61000061035156"><stop offset="0%" stop-color="rgb(254,240,222)"></stop><stop offset="50%" stop-color="rgb(249,213,185)"></stop><stop offset="100%" stop-color="rgb(244,187,148)"></stop></radialGradient></defs><g clip-path="url(#__lottie_element_2)"><g style="display: block;" transform="matrix(1.5973892211914062,-0.19650264084339142,0.19219577312469482,1.5623782873153687,-85.04927825927734,46.830440521240234)" opacity="1"><g opacity="1" transform="matrix(1,0,0,1,172.03599548339844,171.20700073242188)"><path fill="rgb(235,158,120)" fill-opacity="1" d=" M-98.60199737548828,54.32400131225586 C-86.35299682617188,83.59100341796875 -31.06999969482422,146.20599365234375 50.34000015258789,107.79100036621094 C147.03599548339844,62.1609992980957 135.22500610351562,-48.65299987792969 84.81300354003906,-102.61499786376953 C39.18899917602539,-151.50399780273438 -31.139999389648438,-145.16600036621094 -70.2020034790039,-115.6050033569336 C-143.2530059814453,-60.32400131225586 -107.23100280761719,33.70600128173828 -98.60199737548828,54.32400131225586z"></path><path stroke-linecap="butt" stroke-linejoin="miter" fill-opacity="0" stroke-miterlimit="10" stroke="rgb(182,94,49)" stroke-opacity="1" stroke-width="8" d=" M-98.60199737548828,54.32400131225586 C-86.35299682617188,83.59100341796875 -31.06999969482422,146.20599365234375 50.34000015258789,107.79100036621094 C147.03599548339844,62.1609992980957 135.22500610351562,-48.65299987792969 84.81300354003906,-102.61499786376953 C39.18899917602539,-151.50399780273438 -31.139999389648438,-145.16600036621094 -70.2020034790039,-115.6050033569336 C-143.2530059814453,-60.32400131225586 -107.23100280761719,33.70600128173828 -98.60199737548828,54.32400131225586z"></path></g><g opacity="1" transform="matrix(1,0,0,1,164.14700317382812,178.61500549316406)"><path fill="url(#__lottie_element_19)" fill-opacity="1" d=" M-84.89900207519531,42.45500183105469 C-73.90799713134766,68.33999633789062 -19.281999588012695,128.6219940185547 46.77899932861328,97.71199798583984 C125.24500274658203,60.99800109863281 108.59500122070312,-29.54199981689453 61.59000015258789,-74.4219970703125 C17.461999893188477,-116.55500030517578 -36.91600036621094,-113.16899871826172 -68.51000213623047,-86.21199798583984 C-125.23799896240234,-37.81100082397461 -92.64199829101562,24.22100067138672 -84.89900207519531,42.45500183105469z"></path></g></g><g style="display: block;" transform="matrix(1.42532217502594,0.08720140904188156,-0.09314120560884476,1.522409200668335,108.22906494140625,307.965576171875)" opacity="1"><g opacity="1" transform="matrix(0.9856727123260498,-0.12549829483032227,0.1422233283519745,1.1170322895050049,-6.535285949707031,8.896434783935547)"><g opacity="1" transform="matrix(1,0,0,1,58.97600173950195,44.582000732421875)"><path fill="rgb(75,35,35)" fill-opacity="1" d=" M-2.5969998836517334,4.942999839782715 C12.182000160217285,-0.8059999942779541 23.336999893188477,6.732999801635742 28.902000427246094,1.9390000104904175 C35.32600021362305,-3.5959999561309814 30.81599998474121,-7.1570000648498535 18.72100067138672,-14.324000358581543 C6.236999988555908,-21.72100067138672 -8.942000389099121,-21.635000228881836 -19.746999740600586,-13.607999801635742 C-31.993000030517578,-4.51200008392334 -32.266998291015625,1.496000051498413 -31.19700050354004,8.201000213623047 C-30.309999465942383,13.763999938964844 -26.03499984741211,14.378999710083008 -21.87299919128418,12.890000343322754 C-15.288999557495117,10.53499984741211 -12.163000106811523,8.663999557495117 -2.5969998836517334,4.942999839782715z"></path></g><g opacity="1" transform="matrix(1,0,0,1,63.763999938964844,44.20199966430664)"><path fill="rgb(187,15,48)" fill-opacity="1" d=" M14.935999870300293,-8.84000015258789 C14.935999870300293,-8.84000015258789 -2.688999891281128,-11.96500015258789 -15.335000038146973,-0.6079999804496765 C-21.204999923706055,4.663000106811523 -17.97599983215332,10.640000343322754 -14.765999794006348,8.562000274658203 C-11.069999694824219,6.168000221252441 -3.803999900817871,6.702000141143799 9.651000022888184,5.888000011444092 C13.477999687194824,5.656000137329102 31.572999954223633,11.970999717712402 28.753000259399414,1.5199999809265137 C27.11400032043457,-4.552000045776367 23.597000122070312,-7.697000026702881 17.926000595092773,-11.984999656677246 C14.133999824523926,-14.85200023651123 14.935999870300293,-8.84000015258789 14.935999870300293,-8.84000015258789z"></path><path stroke-linecap="round" stroke-linejoin="round" fill-opacity="0" stroke="rgb(102,16,16)" stroke-opacity="1" stroke-width="5" d=" M14.935999870300293,-8.84000015258789 C14.935999870300293,-8.84000015258789 -2.688999891281128,-11.96500015258789 -15.335000038146973,-0.6079999804496765 C-21.204999923706055,4.663000106811523 -17.97599983215332,10.640000343322754 -14.765999794006348,8.562000274658203 C-11.069999694824219,6.168000221252441 -3.803999900817871,6.702000141143799 9.651000022888184,5.888000011444092 C13.477999687194824,5.656000137329102 31.572999954223633,11.970999717712402 28.753000259399414,1.5199999809265137 C27.11400032043457,-4.552000045776367 23.597000122070312,-7.697000026702881 17.926000595092773,-11.984999656677246 C14.133999824523926,-14.85200023651123 14.935999870300293,-8.84000015258789 14.935999870300293,-8.84000015258789z"></path></g><g opacity="1" transform="matrix(1,0,0,1,58.56100082397461,44.10200119018555)"><path stroke-linecap="round" stroke-linejoin="round" fill-opacity="0" stroke="rgb(53,13,13)" stroke-opacity="1" stroke-width="8" d=" M-8.465999603271484,6.874000072479248 C6.313000202178955,1.125 20.75200080871582,9.718999862670898 27.72100067138672,7.395999908447266 C34.25899887084961,5.2170000076293945 35.650001525878906,-2.8010001182556152 23.72100067138672,-10.246999740600586 C7.8470001220703125,-20.155000686645508 -10.177000045776367,-16.374000549316406 -20.013999938964844,-8.767999649047852 C-27.39299964904785,-3.062999963760376 -29.329999923706055,3.440999984741211 -29.261999130249023,6.238999843597412 C-29.125,11.871999740600586 -24.540000915527344,14.508999824523926 -20.569000244140625,12.524999618530273 C-15.6850004196167,10.085000038146973 -18.0310001373291,10.595000267028809 -8.465999603271484,6.874000072479248z"></path></g><g opacity="1" transform="matrix(1,0,0,1,61.347999572753906,71.08399963378906)"><path stroke-linecap="round" stroke-linejoin="round" fill-opacity="0" stroke="rgb(182,94,49)" stroke-opacity="0.48" stroke-width="8.289" d=" M-14.468000411987305,-0.6959999799728394 C-14.468000411987305,-0.6959999799728394 -13.645000457763672,-2.2939999103546143 -6.943999767303467,-4.048999786376953 C3.4749999046325684,-6.7779998779296875 6.940999984741211,-4.671000003814697 6.940999984741211,-4.671000003814697"></path></g><g opacity="1" transform="matrix(1,0,0,1,105.43699645996094,45.555999755859375)"><path stroke-linecap="round" stroke-linejoin="round" fill-opacity="0" stroke="rgb(182,94,49)" stroke-opacity="0.46" stroke-width="5" d=" M-1.4529999494552612,-9.62600040435791 C-1.4529999494552612,-9.62600040435791 1.815999984741211,-5.267000198364258 1.3609999418258667,0.7269999980926514 C1.0049999952316284,5.435999870300293 -1.815999984741211,9.62600040435791 -1.815999984741211,9.62600040435791"></path></g><g opacity="1" transform="matrix(1,0,0,1,19.757999420166016,68.14099884033203)"><path stroke-linecap="round" stroke-linejoin="round" fill-opacity="0" stroke="rgb(182,94,49)" stroke-opacity="0.51" stroke-width="6" d=" M1.9980000257492065,-16.454999923706055 C1.9980000257492065,-16.454999923706055 0.04500000178813934,-9.722999572753906 4.136000156402588,-5.2769999504089355 C7.35099983215332,-1.784000039100647 13.640999794006348,-1.1100000143051147 13.640999794006348,-1.1100000143051147"></path></g></g></g><g style="display: block;" transform="matrix(1.4257450103759766,0.08730731159448624,-0.09322422742843628,1.5225416421890259,40.87925720214844,103.52787780761719)" opacity="0.79"><g opacity="0" transform="matrix(0.880509614944458,0.03755088895559311,-0.03566207364201546,0.8362199068069458,-1.4095687866210938,-18.949993133544922)"><g opacity="1" transform="matrix(1,0,0,1,88.20500183105469,66.3949966430664)"><path fill="rgb(255,242,235)" fill-opacity="1" d=" M-7.935999870300293,1.034000039100647 C-7.935999870300293,1.034000039100647 -7.172999858856201,5.078999996185303 -5.014999866485596,9.053999900817871 C-2.8550000190734863,13.029000282287598 5.261000156402588,11.722000122070312 6.53000020980835,9.003999710083008 C9.359000205993652,2.944999933242798 7.995999813079834,-4.671999931335449 5.301000118255615,-8.223999977111816 C2.6070001125335693,-11.776000022888184 -1.7949999570846558,-12.119999885559082 -3.753999948501587,-10.986000061035156 C-9.355999946594238,-7.743000030517578 -7.935999870300293,1.034000039100647 -7.935999870300293,1.034000039100647z"></path></g><g opacity="1" transform="matrix(1,0,0,1,87.73899841308594,70.44200134277344)"><path stroke-linecap="round" stroke-linejoin="round" fill-opacity="0" stroke="rgb(186,100,57)" stroke-opacity="1" stroke-width="5.422" d=" M-6.781000137329102,-6.413000106811523 C-6.781000137329102,-6.413000106811523 -7,6.413000106811523 0.9169999957084656,5.539999961853027 C6.882999897003174,4.881999969482422 6.999000072479248,-0.7440000176429749 6.796000003814697,-1.8919999599456787 C6.64300012588501,-2.753000020980835 6.64300012588501,-5.605999946594238 6.64300012588501,-5.605999946594238"></path></g></g><g opacity="0" transform="matrix(0.9004175066947937,0.4350268244743347,-0.4350268244743347,0.9004175066947937,20.564411163330078,-54.958702087402344)"><g opacity="1" transform="matrix(1,0,0,1,58.61199951171875,33.525001525878906)"><path fill="rgb(255,242,235)" fill-opacity="1" d=" M-6.249000072479248,-0.9179999828338623 C-6.249000072479248,-0.9179999828338623 -6.618000030517578,2.369999885559082 -5.926000118255615,5.909999847412109 C-5.232999801635742,9.449999809265137 1.1519999504089355,10.22599983215332 2.7339999675750732,8.409000396728516 C6.263000011444092,4.35699987411499 7.013000011444092,-1.815999984741211 5.821000099182129,-5.1479997634887695 C4.627999782562256,-8.479999542236328 1.4110000133514404,-9.713000297546387 -0.3199999928474426,-9.269000053405762 C-5.270999908447266,-8 -6.249000072479248,-0.9179999828338623 -6.249000072479248,-0.9179999828338623z"></path></g><g opacity="1" transform="matrix(1,0,0,1,58.82699966430664,39.38199996948242)"><path stroke-linecap="round" stroke-linejoin="round" fill-opacity="0" stroke="rgb(186,100,57)" stroke-opacity="1" stroke-width="4.844" d=" M-5.673999786376953,-4.882999897003174 C-5.673999786376953,-4.882999897003174 -6.203000068664551,2.243000030517578 -2.507999897003174,3.562999963760376 C1.187000036239624,4.882999897003174 4.267000198364258,2.243000030517578 5.235000133514404,-0.04399999976158142 C5.835000038146973,-1.4620000123977661 6.203000068664551,-3.299999952316284 6.203000068664551,-3.299999952316284"></path></g></g><g opacity="0.01" transform="matrix(1.1799999475479126,0,0,1.1799999475479126,-3.4104537963867188,-10.92273998260498)"><g opacity="1" transform="matrix(1,0,0,1,100.5469970703125,10.052000045776367)"><path fill="rgb(255,242,235)" fill-opacity="1" d=" M-6.7270002365112305,-0.19900000095367432 C-6.7270002365112305,-0.19900000095367432 -6.758999824523926,2.6480000019073486 -5.627999782562256,5.611000061035156 C-4.498000144958496,8.572999954223633 2.4040000438690186,8.638999938964844 3.8940000534057617,6.935999870300293 C7.215000152587891,3.140000104904175 7.335000038146973,-2.2109999656677246 5.693999767303467,-4.948999881744385 C4.052999973297119,-7.686999797821045 0.48100000619888306,-8.4399995803833 -1.3179999589920044,-7.8979997634887695 C-6.464000225067139,-6.3470001220703125 -6.7270002365112305,-0.19900000095367432 -6.7270002365112305,-0.19900000095367432z"></path></g><g opacity="1" transform="matrix(1,0,0,1,100.7750015258789,16.0310001373291)"><path stroke-linecap="round" stroke-linejoin="round" fill-opacity="0" stroke="rgb(186,100,57)" stroke-opacity="1" stroke-width="4.655" d=" M-6.0980000495910645,-1.7259999513626099 C-6.0980000495910645,-1.7259999513626099 -5.593999862670898,4.394000053405762 0.9039999842643738,3.2149999141693115 C5.639999866485596,2.3559999465942383 6.0980000495910645,-4.394000053405762 6.0980000495910645,-4.394000053405762"></path></g></g><g opacity="0" transform="matrix(1,0,0,1,12.583000183105469,-20.743000030517578)"><g opacity="1" transform="matrix(1,0,0,1,100.5469970703125,10.052000045776367)"><path fill="rgb(255,242,235)" fill-opacity="1" d=" M-6.7270002365112305,-0.19900000095367432 C-6.7270002365112305,-0.19900000095367432 -6.758999824523926,2.6480000019073486 -5.627999782562256,5.611000061035156 C-4.498000144958496,8.572999954223633 2.4040000438690186,8.638999938964844 3.8940000534057617,6.935999870300293 C7.215000152587891,3.140000104904175 7.335000038146973,-2.2109999656677246 5.693999767303467,-4.948999881744385 C4.052999973297119,-7.686999797821045 0.48100000619888306,-8.4399995803833 -1.3179999589920044,-7.8979997634887695 C-6.464000225067139,-6.3470001220703125 -6.7270002365112305,-0.19900000095367432 -6.7270002365112305,-0.19900000095367432z"></path></g><g opacity="1" transform="matrix(1,0,0,1,100.7750015258789,16.0310001373291)"><path stroke-linecap="round" stroke-linejoin="round" fill-opacity="0" stroke="rgb(186,100,57)" stroke-opacity="1" stroke-width="4.655" d=" M-6.0980000495910645,-1.7259999513626099 C-6.0980000495910645,-1.7259999513626099 -5.593999862670898,4.394000053405762 0.9039999842643738,3.2149999141693115 C5.639999866485596,2.3559999465942383 6.0980000495910645,-4.394000053405762 6.0980000495910645,-4.394000053405762"></path></g></g><g opacity="0" transform="matrix(0.9870132207870483,0.1606392115354538,-0.1606392115354538,0.9870132207870483,7.63463020324707,-23.99697494506836)"><g opacity="1" transform="matrix(1,0,0,1,24.59600067138672,42.641998291015625)"><path fill="rgb(255,242,235)" fill-opacity="1" d=" M-4.363999843597412,-0.9440000057220459 C-4.363999843597412,-0.9440000057220459 -4.77400016784668,1.2630000114440918 -4.446000099182129,3.694000005722046 C-4.118000030517578,6.125 0.3499999940395355,6.9720001220703125 1.5479999780654907,5.821000099182129 C4.21999979019165,3.25600004196167 5.03000020980835,-0.8859999775886536 4.340000152587891,-3.2019999027252197 C3.6500000953674316,-5.517000198364258 1.437000036239624,-6.513000011444092 0.19599999487400055,-6.300000190734863 C-3.3529999256134033,-5.689000129699707 -4.363999843597412,-0.9440000057220459 -4.363999843597412,-0.9440000057220459z"></path></g><g opacity="1" transform="matrix(1,0,0,1,24.027999877929688,46.606998443603516)"><path stroke-linecap="round" stroke-linejoin="round" fill-opacity="0" stroke="rgb(186,100,57)" stroke-opacity="1" stroke-width="3.649" d=" M-3.8489999771118164,-3.367000102996826 C-3.8489999771118164,-3.367000102996826 -5.327000141143799,2.1470000743865967 -1.7760000228881836,3.559999942779541 C1.7740000486373901,4.9720001220703125 4.541999816894531,-0.05999999865889549 4.816999912261963,-1.6130000352859497 C5.271999835968018,-4.192999839782715 5.327000141143799,-4.9720001220703125 5.327000141143799,-4.9720001220703125"></path></g></g><g opacity="0" transform="matrix(0.8990969061851501,-0.19499947130680084,0.19499947130680084,0.8990969061851501,-8.944427490234375,8.829888343811035)"><g opacity="1" transform="matrix(1,0,0,1,185.13900756835938,49.154998779296875)"><path fill="rgb(255,242,235)" fill-opacity="1" d=" M-7.760000228881836,2.1389999389648438 C-7.760000228881836,2.1389999389648438 -6.1539998054504395,5.426000118255615 -3.1649999618530273,8.413999557495117 C-0.1770000010728836,11.402999877929688 7.673999786376953,8.90999984741211 8.376999855041504,6.396999835968018 C9.946000099182129,0.7940000295639038 6.994999885559082,-5.406000137329102 3.558000087738037,-7.946000099182129 C0.12200000137090683,-10.486000061035156 -4.355000019073486,-10.02400016784668 -6.078000068664551,-8.730999946594238 C-11.008999824523926,-5.0329999923706055 -7.760000228881836,2.1389999389648438 -7.760000228881836,2.1389999389648438z"></path></g><g opacity="1" transform="matrix(1,0,0,1,186.7469940185547,52.73899841308594)"><path stroke-linecap="round" stroke-linejoin="round" fill-opacity="0" stroke="rgb(186,100,57)" stroke-opacity="1" stroke-width="6.08" d=" M-8.105999946594238,0.19499999284744263 C-8.105999946594238,0.19499999284744263 -6.991000175476074,3.377000093460083 -4.014999866485596,5.4019999504089355 C-2.2300000190734863,6.616000175476074 0.8849999904632568,7.425000190734863 2.9790000915527344,6.854000091552734 C7.063000202178955,5.739999771118164 8.105999946594238,2.558000087738037 7.730000019073486,-0.5360000133514404 C7.302999973297119,-4.039999961853027 5.144999980926514,-7.423999786376953 5.144999980926514,-7.423999786376953"></path></g></g></g><g style="display: block;" transform="matrix(1.4648034572601318,0.08961688727140427,-0.09851080179214478,1.6101760864257812,144.5803680419922,176.42442321777344)" opacity="1"><g opacity="1" transform="matrix(1,0,0,1,60.124000549316406,88.71399688720703)"><path stroke-linecap="round" stroke-linejoin="round" fill-opacity="0" stroke="rgb(182,94,49)" stroke-opacity="0.5" stroke-width="8" d=" M-21.642000198364258,-13.987000465393066 C-21.642000198364258,-13.987000465393066 -44.08100128173828,-14.468999862670898 -37.02000045776367,-6.336999893188477 C-28.02899932861328,4.015999794006348 -19.400999069213867,9.529999732971191 -6.571000099182129,12.52299976348877 C7.796000003814697,15.875 19.604000091552734,15.383999824523926 19.604000091552734,15.383999824523926"></path></g><g opacity="1" transform="matrix(1,0,0,1,76.11799621582031,61.98699951171875)"><path fill="rgb(226,132,84)" fill-opacity="1" d=" M12.503000259399414,28.357999801635742 C40.60200119018555,9.607000350952148 30.503000259399414,-15.081999778747559 14.406000137329102,-27.80699920654297 C-1.9830000400543213,-40.763999938964844 -23.878000259399414,-42.22200012207031 -37.86000061035156,-21.351999282836914 C-47.917999267578125,-6.340000152587891 -43.92300033569336,10.98900032043457 -38.638999938964844,19.13800048828125 C-34.1609992980957,26.04199981689453 -12.340999603271484,44.9370002746582 12.503000259399414,28.357999801635742z"></path></g><g opacity="1" transform="matrix(1,0,0,1,0,0)"><g opacity="1" transform="matrix(1,0,0,1,61.42100143432617,57.111000061035156)"><path fill="rgb(184,179,232)" fill-opacity="1" d=" M-23.993000030517578,-22.437999725341797 C-48.48500061035156,-7.697999954223633 -50.68899917602539,21.527999877929688 -31.211999893188477,31.118000030517578 C-14.02400016784668,39.58000183105469 25.552000045776367,36.90999984741211 32.250999450683594,19.19099998474121 C37.95600128173828,4.103000164031982 30.593000411987305,-8.814000129699707 22.298999786376953,-17.149999618530273 C14.64799976348877,-24.84000015258789 -1.937000036239624,-35.71200180053711 -23.993000030517578,-22.437999725341797z"></path><path stroke-linecap="butt" stroke-linejoin="miter" fill-opacity="0" stroke-miterlimit="10" stroke="rgb(55,55,95)" stroke-opacity="1" stroke-width="8" d=" M-23.993000030517578,-22.437999725341797 C-48.48500061035156,-7.697999954223633 -50.68899917602539,21.527999877929688 -31.211999893188477,31.118000030517578 C-14.02400016784668,39.58000183105469 25.552000045776367,36.90999984741211 32.250999450683594,19.19099998474121 C37.95600128173828,4.103000164031982 30.593000411987305,-8.814000129699707 22.298999786376953,-17.149999618530273 C14.64799976348877,-24.84000015258789 -1.937000036239624,-35.71200180053711 -23.993000030517578,-22.437999725341797z"></path></g><g opacity="1" transform="matrix(1,0,0,1,62.75299835205078,62.55500030517578)"><path fill="rgb(255,255,255)" fill-opacity="1" d=" M-27.72100067138672,-22.05900001525879 C-48.5099983215332,-10.60099983215332 -45.39699935913086,16.496999740600586 -29.43000030517578,23.604999542236328 C-11.055999755859375,31.78700065612793 14.673999786376953,29.149999618530273 20.687999725341797,15.166999816894531 C26.975000381469727,0.5509999990463257 15.868000030517578,-12.442000389099121 9.147000312805176,-17.827999114990234 C-2.2260000705718994,-26.94099998474121 -12.081999778747559,-30.679000854492188 -27.72100067138672,-22.05900001525879z"></path></g><g opacity="1" transform="matrix(0.7679056525230408,-0.20290376245975494,0.255462646484375,0.9668189287185669,-28.276885986328125,21.471508026123047)"><g opacity="1" transform="matrix(1,0,0,1,58.92599868774414,68.11100006103516)"><path fill="rgb(31,28,44)" fill-opacity="1" d=" M1.0460000038146973,-7.585999965667725 C5.918000221252441,-6.895999908447266 9.39900016784668,-2.940000057220459 8.821000099182129,1.2489999532699585 C8.243000030517578,5.438000202178955 3.8259999752044678,8.276000022888184 -1.0460000038146973,7.585999965667725 C-5.918000221252441,6.895999908447266 -9.39900016784668,2.940000057220459 -8.821000099182129,-1.2489999532699585 C-8.244000434875488,-5.439000129699707 -3.8259999752044678,-8.276000022888184 1.0460000038146973,-7.585999965667725z"></path></g><g opacity="1" transform="matrix(1,0,0,1,59.654998779296875,61.89500045776367)"><path fill="rgb(255,255,255)" fill-opacity="1" d=" M0.5809999704360962,-4.210999965667725 C2.2799999713897705,-3.9700000286102295 3.3980000019073486,-1.8899999856948853 3.078000068664551,0.4359999895095825 C2.756999969482422,2.76200008392334 1.11899995803833,4.452000141143799 -0.5799999833106995,4.210999965667725 C-2.2799999713897705,3.9709999561309814 -3.3980000019073486,1.8899999856948853 -3.0769999027252197,-0.4359999895095825 C-2.756999969482422,-2.760999917984009 -1.11899995803833,-4.452000141143799 0.5809999704360962,-4.210999965667725z"></path></g></g></g><g opacity="1" transform="matrix(1,0,0,1,0,0)"><g opacity="1" transform="matrix(1,0,0,1,61.42100143432617,57.111000061035156)"><path stroke-linecap="butt" stroke-linejoin="miter" fill-opacity="0" stroke-miterlimit="10" stroke="rgb(55,55,95)" stroke-opacity="1" stroke-width="8" d=" M-23.993000030517578,-22.437999725341797 C-48.48500061035156,-7.697999954223633 -50.68899917602539,21.527999877929688 -31.211999893188477,31.118000030517578 C-14.02400016784668,39.58000183105469 25.552000045776367,36.90999984741211 32.250999450683594,19.19099998474121 C37.95600128173828,4.103000164031982 30.593000411987305,-8.814000129699707 22.298999786376953,-17.149999618530273 C14.64799976348877,-24.84000015258789 -1.937000036239624,-35.71200180053711 -23.993000030517578,-22.437999725341797z"></path></g></g></g><g style="display: block;" transform="matrix(1.42532217502594,0.08720140904188156,-0.09314120560884476,1.522409200668335,10.839998245239258,219.26792907714844)" opacity="1"><g opacity="1" transform="matrix(1,0,0,1,81.9489974975586,81.08499908447266)"><path stroke-linecap="round" stroke-linejoin="round" fill-opacity="0" stroke="rgb(182,94,49)" stroke-opacity="0.59" stroke-width="6" d=" M5.920000076293945,-11.319000244140625 C5.920000076293945,-11.319000244140625 0.12999999523162842,-5.939000129699707 -3.071000099182129,-3.1459999084472656 C-5.831999778747559,-0.7360000014305115 -10.425999641418457,1.7580000162124634 -10.425999641418457,1.7580000162124634"></path></g><g opacity="1" transform="matrix(1,0,0,1,88.35099792480469,76.86199951171875)"><path stroke-linecap="round" stroke-linejoin="round" fill-opacity="0" stroke="rgb(182,94,49)" stroke-opacity="0.49" stroke-width="8" d=" M1.965000033378601,-22.07200050354004 C1.965000033378601,-22.07200050354004 5.705999851226807,-13.210000038146973 -0.8330000042915344,0.14000000059604645 C-6.466000080108643,11.642000198364258 -16.79199981689453,15.48799991607666 -16.79199981689453,15.48799991607666"></path></g><g opacity="1" transform="matrix(1,0,0,1,69.91600036621094,56.44900131225586)"><path fill="rgb(226,132,84)" fill-opacity="1" d=" M11.430999755859375,17.6299991607666 C36.388999938964844,2.2139999866485596 27.253000259399414,-16.929000854492188 13.27400016784668,-28.0049991607666 C-0.9589999914169312,-39.28200149536133 -20.049999237060547,-32.37799835205078 -32.17599868774414,-14.255999565124512 C-40.89799880981445,-1.2200000286102295 -35.95500183105469,5.415999889373779 -31.36400032043457,12.503999710083008 C-27.474000930786133,18.509000778198242 -12.288999557495117,32.279998779296875 11.430999755859375,17.6299991607666z"></path></g><g opacity="1" transform="matrix(1,0,0,1,0,0)"><g opacity="1" transform="matrix(1,0,0,1,55.17300033569336,53.55699920654297)"><path fill="rgb(184,179,232)" fill-opacity="1" d=" M16.999000549316406,25.201000213623047 C29.490999221801758,21.378999710083008 36.65999984741211,13.444999694824219 35.470001220703125,1.0540000200271606 C34.59700012207031,-8.692999839782715 28.986000061035156,-18.118999481201172 19.299999237060547,-24.545000076293945 C9.61400032043457,-31.023000717163086 -14.29699993133545,-33.11000061035156 -26.42300033569336,-14.98900032043457 C-35.145999908447266,-1.9529999494552612 -32.68000030517578,9.699000358581543 -27.833999633789062,16.641000747680664 C-22.62700080871582,24.099000930786133 -7.38700008392334,32.722999572753906 16.999000549316406,25.201000213623047z"></path><path stroke-linecap="butt" stroke-linejoin="miter" fill-opacity="0" stroke-miterlimit="10" stroke="rgb(55,55,95)" stroke-opacity="1" stroke-width="8" d=" M16.999000549316406,25.201000213623047 C29.490999221801758,21.378999710083008 36.65999984741211,13.444999694824219 35.470001220703125,1.0540000200271606 C34.59700012207031,-8.692999839782715 28.986000061035156,-18.118999481201172 19.299999237060547,-24.545000076293945 C9.61400032043457,-31.023000717163086 -14.29699993133545,-33.11000061035156 -26.42300033569336,-14.98900032043457 C-35.145999908447266,-1.9529999494552612 -32.68000030517578,9.699000358581543 -27.833999633789062,16.641000747680664 C-22.62700080871582,24.099000930786133 -7.38700008392334,32.722999572753906 16.999000549316406,25.201000213623047z"></path></g><g opacity="1" transform="matrix(1,0,0,1,56.64699935913086,56.79399871826172)"><path fill="rgb(255,255,255)" fill-opacity="1" d=" M19.888999938964844,15.027000427246094 C30.968000411987305,9.425000190734863 25.73900032043457,-10.810999870300293 15.623000144958496,-18.7810001373291 C2.802000045776367,-28.892000198364258 -16.708999633789062,-24.867000579833984 -25.833999633789062,-11.621999740600586 C-32.39899826049805,-2.0929999351501465 -28.804000854492188,7.867000102996826 -24.534000396728516,12.32800006866455 C-20.190000534057617,16.868999481201172 -2.7070000171661377,26.58300018310547 19.888999938964844,15.027000427246094z"></path></g><g opacity="1" transform="matrix(0.9399999976158142,0,0,0.9399999976158142,-19.013084411621094,2.68975830078125)"><g opacity="1" transform="matrix(1,0,0,1,62.53200149536133,62.42499923706055)"><path fill="rgb(31,28,44)" fill-opacity="1" d=" M1.284000039100647,-6.961999893188477 C5.184000015258789,-6.122000217437744 7.770999908447266,-2.322999954223633 7.061999797821045,1.5210000276565552 C6.353000164031982,5.366000175476074 2.617000102996826,7.802000045776367 -1.2829999923706055,6.961999893188477 C-5.184000015258789,6.120999813079834 -7.770999908447266,2.322999954223633 -7.061999797821045,-1.5219999551773071 C-6.353000164031982,-5.366000175476074 -2.615999937057495,-7.802000045776367 1.284000039100647,-6.961999893188477z"></path></g><g opacity="1" transform="matrix(1,0,0,1,64.625,56.2869987487793)"><path fill="rgb(255,255,255)" fill-opacity="1" d=" M0.7760000228881836,-4.208000183105469 C2.2730000019073486,-3.885999917984009 3.1389999389648438,-1.7389999628067017 2.7100000381469727,0.5849999785423279 C2.2809998989105225,2.9089999198913574 0.7200000286102295,4.531000137329102 -0.7770000100135803,4.209000110626221 C-2.2730000019073486,3.885999917984009 -3.1389999389648438,1.7410000562667847 -2.7100000381469727,-0.5830000042915344 C-2.2820000648498535,-2.9070000648498535 -0.7210000157356262,-4.531000137329102 0.7760000228881836,-4.208000183105469z"></path></g></g></g></g></g></svg>