<svg xmlns="http://www.w3.org/2000/svg" xmlns:xlink="http://www.w3.org/1999/xlink" viewBox="0 0 512 512" width="512" height="512" style="width: 100%; height: 100%; transform: translate3d(0,0,0); content-visibility: visible;" preserveAspectRatio="xMidYMid meet"><defs><clipPath id="__lottie_element_2"><rect width="512" height="512" x="0" y="0"></rect></clipPath><radialGradient id="__lottie_element_12" spreadMethod="pad" gradientUnits="userSpaceOnUse" cx="-69.86299896240234" cy="-122.86699676513672" r="265.99085871759166" fx="-69.86299896240234" fy="-122.86699676513672"><stop offset="0%" stop-color="rgb(255,215,190)"></stop><stop offset="78%" stop-color="rgb(249,201,170)"></stop><stop offset="92%" stop-color="rgb(243,187,149)"></stop></radialGradient></defs><g clip-path="url(#__lottie_element_2)"><g style="display: block;" transform="matrix(0.9599999785423279,0,0,0.9502000212669373,10.99744701385498,115.63106536865234)" opacity="1"><g opacity="1" transform="matrix(1,0,0,1,156.31300354003906,304.5459899902344)"><path fill="rgb(172,217,239)" fill-opacity="1" d=" M-88.87200164794922,-86.3239974975586 C-88.87200164794922,-86.3239974975586 -82.4280014038086,-58.516998291015625 -82.4280014038086,-58.516998291015625 C-82.4280014038086,-58.516998291015625 -55.79999923706055,-17.78499984741211 -50.0629997253418,18.927000045776367 C-44.32600021362305,55.63999938964844 -64.01100158691406,97.23899841308594 -64.01100158691406,97.23899841308594 C-64.01100158691406,97.23899841308594 88.87200164794922,96.37100219726562 88.87200164794922,96.37100219726562 C88.87200164794922,96.37100219726562 82.28600311279297,-97.23899841308594 82.28600311279297,-97.23899841308594 C82.28600311279297,-97.23899841308594 -88.87200164794922,-86.3239974975586 -88.87200164794922,-86.3239974975586z"></path></g><g opacity="1" transform="matrix(1,0,0,1,152.1009979248047,138.38900756835938)"><path fill="rgb(240,249,252)" fill-opacity="1" d=" M35.36800003051758,-105.6449966430664 C35.36800003051758,-105.6449966430664 -74.3239974975586,-105.6449966430664 -94.8270034790039,-106.70700073242188 C-115.33000183105469,-107.76899719238281 -121.48100280761719,-95.0270004272461 -121.48100280761719,-74.85399627685547 C-121.48100280761719,-54.68000030517578 -116.35600280761719,59.9900016784668 -115.33000183105469,73.79299926757812 C-114.30500030517578,87.59600067138672 -114.30500030517578,98.21399688720703 -98.9280014038086,101.39900207519531 C-83.55000305175781,104.58399963378906 106.10399627685547,107.76899719238281 106.10399627685547,107.76899719238281 C106.10399627685547,107.76899719238281 121.48100280761719,-99.27400207519531 121.48100280761719,-99.27400207519531 C121.48100280761719,-99.27400207519531 35.36800003051758,-105.6449966430664 35.36800003051758,-105.6449966430664z"></path></g><g opacity="1" transform="matrix(1,0,0,1,152.1009979248047,138.38900756835938)"><path stroke-linecap="butt" stroke-linejoin="miter" fill-opacity="0" stroke-miterlimit="10" stroke="rgb(52,145,191)" stroke-opacity="1" stroke-width="12.248" d=" M35.36800003051758,-105.6449966430664 C35.36800003051758,-105.6449966430664 -74.3239974975586,-105.6449966430664 -94.8270034790039,-106.70700073242188 C-115.33000183105469,-107.76899719238281 -121.48100280761719,-95.0270004272461 -121.48100280761719,-74.85399627685547 C-121.48100280761719,-54.68000030517578 -116.35600280761719,59.9900016784668 -115.33000183105469,73.79299926757812 C-114.30500030517578,87.59600067138672 -114.30500030517578,98.21399688720703 -98.9280014038086,101.39900207519531 C-83.55000305175781,104.58399963378906 106.10399627685547,107.76899719238281 106.10399627685547,107.76899719238281 C106.10399627685547,107.76899719238281 121.48100280761719,-99.27400207519531 121.48100280761719,-99.27400207519531 C121.48100280761719,-99.27400207519531 35.36800003051758,-105.6449966430664 35.36800003051758,-105.6449966430664z"></path></g><g opacity="1" transform="matrix(1,0,0,1,186.19700622558594,141.343994140625)"><path fill="rgb(149,208,232)" fill-opacity="1" d=" M35.36800003051758,-98.55599975585938 C35.36800003051758,-98.55599975585938 -74.3239974975586,-98.55599975585938 -94.8270034790039,-99.5469970703125 C-115.33000183105469,-100.53700256347656 -121.48100280761719,-88.6510009765625 -121.48100280761719,-69.83100128173828 C-121.48100280761719,-51.012001037597656 -116.35600280761719,55.9630012512207 -115.33000183105469,68.83999633789062 C-114.30500030517578,81.71700286865234 -111.625,90.70099639892578 -96.24800109863281,93.6729965209961 C-80.87100219726562,96.64399719238281 106.10399627685547,100.53600311279297 106.10399627685547,100.53600311279297 C106.10399627685547,100.53600311279297 121.48100280761719,-92.61199951171875 121.48100280761719,-92.61199951171875 C121.48100280761719,-92.61199951171875 35.36800003051758,-98.55599975585938 35.36800003051758,-98.55599975585938z"></path></g><g opacity="1" transform="matrix(1,0,0,1,272.75799560546875,331.0530090332031)"><path fill="rgb(172,217,239)" fill-opacity="1" d=" M94.95700073242188,-17.413999557495117 C94.95700073242188,-17.413999557495117 77.60800170898438,-7.9029998779296875 79.41899871826172,1.8380000591278076 C81.23100280761719,11.579000473022461 90.75700378417969,42.12900161743164 90.75700378417969,42.12900161743164 C90.75700378417969,42.12900161743164 33.275001525878906,42.93299865722656 11.255999565124512,42.75400161743164 C-13.715999603271484,42.55099868774414 -87.71099853515625,40.310001373291016 -87.71099853515625,40.310001373291016 C-87.71099853515625,40.310001373291016 -72.31300354003906,16.39900016784668 -80.46499633789062,-3.0829999446868896 C-88.61699676513672,-22.565000534057617 -94.95700073242188,-38.505001068115234 -94.95700073242188,-38.505001068115234 C-94.95700073242188,-38.505001068115234 52.680999755859375,-42.93299865722656 52.680999755859375,-42.93299865722656 C52.680999755859375,-42.93299865722656 94.95700073242188,-17.413999557495117 94.95700073242188,-17.413999557495117z"></path></g><g opacity="1" transform="matrix(1,0,0,1,134.56900024414062,323.85400390625)"><path stroke-linecap="butt" stroke-linejoin="miter" fill-opacity="0" stroke-miterlimit="10" stroke="rgb(52,145,191)" stroke-opacity="1" stroke-width="12.077" d=" M-61.4739990234375,-80.24500274658203 C-61.4739990234375,-80.24500274658203 -26.739999771118164,-41.52299880981445 -25.951000213623047,8.493000030517578 C-25.663999557495117,26.645999908447266 -39.4900016784668,53.819000244140625 -40.28499984741211,63.625999450683594 C-41.29800033569336,76.12799835205078 61.472999572753906,80.24500274658203 61.472999572753906,80.24500274658203"></path></g><g opacity="1" transform="matrix(1,0,0,1,118.87100219726562,323.58099365234375)"><path fill="rgb(247,248,249)" fill-opacity="1" d=" M-8.432000160217285,-65.50800323486328 C0.453000009059906,-64.46299743652344 10.880999565124512,-50.22700119018555 13.812000274658203,-41.534000396728516 C18.73900032043457,-26.922000885009766 20.8799991607666,-17.993000030517578 19.90399932861328,9.138999938964844 C18.614999771118164,44.93000030517578 0.7559999823570251,65.50800323486328 0.7559999823570251,65.50800323486328 C0.7559999823570251,65.50800323486328 -11.87600040435791,61.448001861572266 -11.87600040435791,61.448001861572266 C-11.87600040435791,61.448001861572266 8.25100040435791,26.847999572753906 -2.3420000076293945,-23.280000686645508 C-8.946000099182129,-54.534000396728516 -20.8799991607666,-63.87300109863281 -20.8799991607666,-63.87300109863281 C-20.8799991607666,-63.87300109863281 -8.432000160217285,-65.50800323486328 -8.432000160217285,-65.50800323486328z"></path></g></g><g style="display: block;" transform="matrix(0.9887999296188354,0,0,0.975544810295105,47.79977035522461,-17.438880920410156)" opacity="1"><g opacity="1" transform="matrix(1,0,0,1,219.1540069580078,207.73500061035156)"></g><g opacity="1" transform="matrix(1,0,0,1,219.1540069580078,204.49899291992188)"><path fill="rgb(242,157,114)" fill-opacity="1" d=" M-184.18600463867188,52.763999938964844 C-184.18600463867188,52.763999938964844 -194.6060028076172,-46.22700119018555 -132.95399475097656,-108.74700164794922 C-71.302001953125,-171.26699829101562 0.7689999938011169,-179.9510040283203 65.0260009765625,-156.5050048828125 C129.2830047607422,-133.05999755859375 174.30799865722656,-63.0369987487793 184.39599609375,-1.940000057220459 C194.60699462890625,59.893001556396484 183.2519989013672,119.4260025024414 165.75999450683594,138.375 C144.9199981689453,160.95199584960938 112.14800262451172,179.9510040283203 4.242000102996826,178.67300415039062 C-106.08399963378906,177.36599731445312 -153.1490020751953,130.28700256347656 -169.4239959716797,103.99600219726562 C-180.71299743652344,85.76100158691406 -184.18600463867188,52.763999938964844 -184.18600463867188,52.763999938964844z"></path><path stroke-linecap="butt" stroke-linejoin="miter" fill-opacity="0" stroke-miterlimit="10" stroke="rgb(181,95,48)" stroke-opacity="1" stroke-width="11" d=" M-184.18600463867188,52.763999938964844 C-184.18600463867188,52.763999938964844 -194.6060028076172,-46.22700119018555 -132.95399475097656,-108.74700164794922 C-71.302001953125,-171.26699829101562 0.7689999938011169,-179.9510040283203 65.0260009765625,-156.5050048828125 C129.2830047607422,-133.05999755859375 174.30799865722656,-63.0369987487793 184.39599609375,-1.940000057220459 C194.60699462890625,59.893001556396484 183.2519989013672,119.4260025024414 165.75999450683594,138.375 C144.9199981689453,160.95199584960938 112.14800262451172,179.9510040283203 4.242000102996826,178.67300415039062 C-106.08399963378906,177.36599731445312 -153.1490020751953,130.28700256347656 -169.4239959716797,103.99600219726562 C-180.71299743652344,85.76100158691406 -184.18600463867188,52.763999938964844 -184.18600463867188,52.763999938964844z"></path></g><g opacity="1" transform="matrix(1,0,0,1,225.67999267578125,193.96400451660156)"><path fill="url(#__lottie_element_12)" fill-opacity="1" d=" M-163.92799377441406,48.30400085449219 C-163.92799377441406,48.30400085449219 -176.64500427246094,-40.777000427246094 -121.38800048828125,-96.81199645996094 C-66.13200378417969,-152.8470001220703 -1.534999966621399,-160.6280059814453 56.055999755859375,-139.61500549316406 C113.64700317382812,-118.60199737548828 156.90699768066406,-55.165000915527344 166.51499938964844,-2.759999990463257 C176.6439971923828,52.48899841308594 173.45899963378906,100.78700256347656 157.78199768066406,117.7699966430664 C139.10400390625,138.0050048828125 124.70600128173828,154.40199279785156 25.867000579833984,157.51499938964844 C-72.97100067138672,160.6280059814453 -129.9980010986328,122.5250015258789 -151.20399475097656,93.36699676513672 C-162.50999450683594,77.8219985961914 -163.92799377441406,48.30400085449219 -163.92799377441406,48.30400085449219z"></path></g></g><g style="display: block;" transform="matrix(0.9888006448745728,0,0,0.9755410552024841,47.800106048583984,-13.523249626159668)" opacity="1"><g opacity="1" transform="matrix(1,0,0,1,319.0090026855469,102.44000244140625)"><path stroke-linecap="round" stroke-linejoin="round" fill-opacity="0" stroke="rgb(224,135,97)" stroke-opacity="1" stroke-width="11" d=" M40.159000396728516,16.832000732421875 C40.159000396728516,16.832000732421875 24.00200080871582,3.0290000438690186 3.8440001010894775,2.253999948501587 C-23.724000930786133,1.194000005722046 -40.77299880981445,19.658000946044922 -40.77299880981445,19.658000946044922 C-40.77299880981445,19.658000946044922 -40.659000396728516,13.699000358581543 -36.68299865722656,0.4449999928474426 C-34.96500015258789,-5.2829999923706055 -30.85099983215332,-13.157999992370605 -30.85099983215332,-13.157999992370605"></path></g><g opacity="1" transform="matrix(1,0,0,1,163.29100036621094,137.86599731445312)"><path stroke-linecap="round" stroke-linejoin="round" fill-opacity="0" stroke="rgb(224,135,97)" stroke-opacity="1" stroke-width="9.562" d=" M-4.203000068664551,16.6299991607666 C-4.203000068664551,16.6299991607666 17.656999588012695,17.479000091552734 35.891998291015625,9.663999557495117 C54.12699890136719,1.8489999771118164 53.84400177001953,-2.450000047683716 50.750999450683594,-6.315000057220459 C49.01499938964844,-8.486000061035156 47.891998291015625,-4.091000080108643 12.729999542236328,-4.671000003814697 C-26.780000686645508,-5.322000026702881 -52.34400177001953,-15.630000114440918 -52.34400177001953,-15.630000114440918"></path></g><g opacity="1" transform="matrix(1,0,0,1,183.42999267578125,168.8350067138672)"><path stroke-linecap="round" stroke-linejoin="round" fill-opacity="0" stroke="rgb(224,135,97)" stroke-opacity="1" stroke-width="9.562" d=" M-16.867000579833984,3.5820000171661377 C-16.867000579833984,3.5820000171661377 -6.377999782562256,3.736999988555908 7.835000038146973,-0.5239999890327454 C15.746000289916992,-2.8959999084472656 22.868000030517578,-6.210999965667725 22.868000030517578,-6.210999965667725"></path></g><g opacity="1" transform="matrix(1,0,0,1,102.7509994506836,143.48300170898438)"><path stroke-linecap="round" stroke-linejoin="round" fill-opacity="0" stroke="rgb(224,135,97)" stroke-opacity="1" stroke-width="9.562" d=" M-10.24899959564209,-11.133000373840332 C-10.24899959564209,-11.133000373840332 -8.835000038146973,-3.7109999656677246 -2.8269999027252197,1.944000005722046 C5.750999927520752,10.017000198364258 10.24899959564209,11.133000373840332 10.24899959564209,11.133000373840332"></path></g><g opacity="1" transform="matrix(1,0,0,1,320.8680114746094,149.58900451660156)"><path stroke-linecap="round" stroke-linejoin="round" fill-opacity="0" stroke="rgb(224,135,97)" stroke-opacity="1" stroke-width="11" d=" M-8.821999549865723,11.024999618530273 C-8.821999549865723,11.024999618530273 -22.2810001373291,4.8420000076293945 -30.96500015258789,-1.6710000038146973 C-39.64799880981445,-8.182999610900879 -38.9109992980957,-14.024999618530273 -37.17499923706055,-13.590999603271484 C-35.4379997253418,-13.156999588012695 -8.980999946594238,-7.260000228881836 6.296000003814697,-6.513000011444092 C35.80799865722656,-5.068999767303467 42.64799880981445,-9.276000022888184 42.64799880981445,-9.276000022888184"></path></g><g opacity="1" transform="matrix(1,0,0,1,164.75,97.27100372314453)"><path stroke-linecap="round" stroke-linejoin="round" fill-opacity="0" stroke="rgb(224,135,97)" stroke-opacity="1" stroke-width="12" d=" M27.820999145507812,-16.71500015258789 C27.820999145507812,-16.71500015258789 42.90599822998047,-9.723999977111816 48.97999954223633,-0.6179999709129333 C54.93000030517578,8.303000450134277 54.73899841308594,13.243000030517578 53.4370002746582,14.979000091552734 C52.13399887084961,16.715999603271484 38.667999267578125,7.88700008392334 27.066999435424805,5.0370001792907715 C-34.83100128173828,-10.166999816894531 -54.93000030517578,12.458999633789062 -54.93000030517578,12.458999633789062"></path></g><g opacity="1" transform="matrix(1,0,0,1,159.5919952392578,116.21299743652344)"><path fill="rgb(255,255,255)" fill-opacity="1" d=" M-57.194000244140625,2 C-57.72700119018555,-0.7540000081062317 -59.41600036621094,-2.693000078201294 -55.073001861572266,-6.302000045776367 C-48.630001068115234,-11.656000137329102 -31.860000610351562,-19.429000854492188 -7.228000164031982,-18.382999420166016 C32.58399963378906,-16.69300079345703 48.17499923706055,-1.3580000400543213 52.95100021362305,3.8529999256134033 C57.72700119018555,9.062999725341797 54.25299835205078,12.970000267028809 52.95100021362305,13.838000297546387 C51.64799880981445,14.706999778747559 26.965999603271484,12.838000297546387 -3.859999895095825,10.668000221252441 C-34.68600082397461,8.496999740600586 -55.70000076293945,4.877999782562256 -56.13399887084961,2.7070000171661377 C-56.137001037597656,2.691999912261963 -57.191001892089844,2.0160000324249268 -57.194000244140625,2z"></path><path stroke-linecap="round" stroke-linejoin="round" fill-opacity="0" stroke="rgb(140,59,31)" stroke-opacity="1" stroke-width="9.73" d=" M-57.194000244140625,2 C-57.72700119018555,-0.7540000081062317 -59.41600036621094,-2.693000078201294 -55.073001861572266,-6.302000045776367 C-48.630001068115234,-11.656000137329102 -31.860000610351562,-19.429000854492188 -7.228000164031982,-18.382999420166016 C32.58399963378906,-16.69300079345703 48.17499923706055,-1.3580000400543213 52.95100021362305,3.8529999256134033 C57.72700119018555,9.062999725341797 54.25299835205078,12.970000267028809 52.95100021362305,13.838000297546387 C51.64799880981445,14.706999778747559 26.965999603271484,12.838000297546387 -3.859999895095825,10.668000221252441 C-34.68600082397461,8.496999740600586 -55.70000076293945,4.877999782562256 -56.13399887084961,2.7070000171661377 C-56.137001037597656,2.691999912261963 -57.191001892089844,2.0160000324249268 -57.194000244140625,2z"></path></g><g opacity="1" transform="matrix(1,0,0,1,324.8190002441406,125.84300231933594)"><path fill="rgb(255,255,255)" fill-opacity="1" d=" M-44.060001373291016,1.4709999561309814 C-39.71799850463867,-3.305000066757202 -31.143999099731445,-15.822999954223633 -3.431999921798706,-18.395000457763672 C36.70899963378906,-22.121000289916992 46.856998443603516,1.6759999990463257 46.301998138427734,11.954999923706055 C46.04999923706055,16.624000549316406 27.224000930786133,12.28600025177002 -1.8650000095367432,10.984000205993652 C-20.69300079345703,10.140999794006348 -36.518001556396484,8.390000343322754 -41.8120002746582,8.670000076293945 C-44.55799865722656,8.8149995803833 -45.26900100708008,7.749000072479248 -45.38999938964844,5.001999855041504 C-45.41999816894531,4.335000038146973 -44.33599853515625,1.774999976158142 -44.060001373291016,1.4709999561309814z"></path><path stroke-linecap="round" stroke-linejoin="round" fill-opacity="0" stroke="rgb(140,59,31)" stroke-opacity="1" stroke-width="9.73" d=" M-44.060001373291016,1.4709999561309814 C-39.71799850463867,-3.305000066757202 -31.143999099731445,-15.822999954223633 -3.431999921798706,-18.395000457763672 C36.70899963378906,-22.121000289916992 46.856998443603516,1.6759999990463257 46.301998138427734,11.954999923706055 C46.04999923706055,16.624000549316406 27.224000930786133,12.28600025177002 -1.8650000095367432,10.984000205993652 C-20.69300079345703,10.140999794006348 -36.518001556396484,8.390000343322754 -41.8120002746582,8.670000076293945 C-44.55799865722656,8.8149995803833 -45.26900100708008,7.749000072479248 -45.38999938964844,5.001999855041504 C-45.41999816894531,4.335000038146973 -44.33599853515625,1.774999976158142 -44.060001373291016,1.4709999561309814z"></path></g><g opacity="1" transform="matrix(1,0,0,1,129.656005859375,115.50900268554688)"><path fill="rgb(11,17,35)" fill-opacity="1" d=" M-3.2679998874664307,-12.821999549865723 C-9.003000259399414,-12.541999816894531 -25.981000900268555,-9.98900032043457 -26.913999557495117,-1.5850000381469727 C-28.038000106811523,8.541000366210938 -5.672999858856201,14.491999626159668 5.744999885559082,11.986000061035156 C17.974000930786133,9.302000045776367 26.488000869750977,2.6110000610351562 22.02400016784668,-9.336000442504883 C16.996000289916992,-22.792999267578125 2.9140000343322754,-13.12399959564209 -3.2679998874664307,-12.821999549865723z"></path></g><g opacity="1" transform="matrix(1,0,0,1,135.5590057373047,111.9489974975586)"><path fill="rgb(53,53,124)" fill-opacity="1" d=" M-8.357999801635742,5.535999774932861 C-9.574999809265137,7.769000053405762 -18.642000198364258,7.026000022888184 -20.177000045776367,4.938000202178955 C-23.003000259399414,1.0950000286102295 -23.229999542236328,1.8270000219345093 -22.774999618530273,-1.3209999799728394 C-22.05299949645996,-6.322000026702881 -16.884000778198242,-3.928999900817871 -10.03600025177002,-0.9139999747276306 C-6.639999866485596,0.5809999704360962 -7.065000057220459,3.1640000343322754 -8.357999801635742,5.535999774932861z"></path></g><g opacity="1" transform="matrix(1,0,0,1,344.99700927734375,125.25900268554688)"><path fill="rgb(11,17,35)" fill-opacity="1" d=" M3.3410000801086426,-12.425999641418457 C8.720999717712402,-11.128000259399414 23.679000854492188,-3.739000082015991 24.285999298095703,5.38100004196167 C24.969999313354492,15.659000396728516 5.127999782562256,15.51099967956543 -5.1519999504089355,11.003999710083008 C-16.163999557495117,6.177999973297119 -22.847999572753906,2.171999931335449 -15.97599983215332,-8.824000358581543 C-8.234000205993652,-21.211000442504883 -2.4579999446868896,-13.824999809265137 3.3410000801086426,-12.425999641418457z"></path></g><g opacity="1" transform="matrix(1,0,0,1,116.6709976196289,111.97899627685547)"><path fill="rgb(254,254,254)" fill-opacity="1" d=" M34.41299819946289,-3.384000062942505 C28.753999710083008,-3.4600000381469727 28.753999710083008,-1.2100000381469727 28.68899917602539,0.125 C28.549999237060547,2.9709999561309814 32.65800094604492,3.736999988555908 35.4010009765625,3.4019999504089355 C38.34000015258789,3.0439999103546143 40.99100112915039,3.868000030517578 42.52899932861328,0.4180000126361847 C43.25400161743164,-1.2089999914169312 39.25400161743164,-3.319000005722046 34.41299819946289,-3.384000062942505z"></path></g><g opacity="1" transform="matrix(1,0,0,1,333.7760009765625,123.51499938964844)"><path fill="rgb(254,254,254)" fill-opacity="1" d=" M1.1619999408721924,-3.25 C2.046999931335449,-3.058000087738037 3.878999948501587,-2.062000036239624 3.2669999599456787,0.43299999833106995 C2.8489999771118164,2.135999917984009 0.4860000014305115,3.559999942779541 -1.194000005722046,2.8529999256134033 C-2.992000102996826,2.0959999561309814 -3.878999948501587,0.44200000166893005 -2.677999973297119,-1.440000057220459 C-1.3259999752044678,-3.559999942779541 0.20800000429153442,-3.4570000171661377 1.1619999408721924,-3.25z"></path></g><g opacity="1" transform="matrix(1,0,0,1,352.01800537109375,124.96199798583984)"><path fill="rgb(53,53,124)" fill-opacity="1" d=" M-6.580999851226807,-6.438000202178955 C-8.906999588012695,-5.500999927520752 -9.592000007629395,-0.7829999923706055 -7.642000198364258,0.8399999737739563 C-4.052000045776367,3.8299999237060547 1.3769999742507935,7.835000038146973 4.551000118255615,7.692999839782715 C9.593000411987305,7.4670000076293945 9.265000343322754,-1.8680000305175781 2.8580000400543213,-5.888999938964844 C-0.24300000071525574,-7.835999965667725 -4.109000205993652,-7.434000015258789 -6.580999851226807,-6.438000202178955z"></path></g><g opacity="1" transform="matrix(1,0,0,1,159.5919952392578,116.21299743652344)"><path stroke-linecap="round" stroke-linejoin="round" fill-opacity="0" stroke="rgb(140,59,31)" stroke-opacity="1" stroke-width="9.73" d=" M-57.194000244140625,2 C-57.72700119018555,-0.7540000081062317 -59.41600036621094,-2.693000078201294 -55.073001861572266,-6.302000045776367 C-48.630001068115234,-11.656000137329102 -31.860000610351562,-19.429000854492188 -7.228000164031982,-18.382999420166016 C32.58399963378906,-16.69300079345703 48.17499923706055,-1.3580000400543213 52.95100021362305,3.8529999256134033 C57.72700119018555,9.062999725341797 54.25299835205078,12.970000267028809 52.95100021362305,13.838000297546387 C51.64799880981445,14.706999778747559 26.965999603271484,12.838000297546387 -3.859999895095825,10.668000221252441 C-34.68600082397461,8.496999740600586 -55.70000076293945,4.877999782562256 -56.13399887084961,2.7070000171661377 C-56.137001037597656,2.691999912261963 -57.191001892089844,2.0160000324249268 -57.194000244140625,2z"></path></g><g opacity="1" transform="matrix(1,0,0,1,324.8190002441406,125.84300231933594)"><path stroke-linecap="round" stroke-linejoin="round" fill-opacity="0" stroke="rgb(140,59,31)" stroke-opacity="1" stroke-width="9.73" d=" M-44.060001373291016,1.4709999561309814 C-39.71799850463867,-3.305000066757202 -31.143999099731445,-15.822999954223633 -3.431999921798706,-18.395000457763672 C36.70899963378906,-22.121000289916992 46.856998443603516,1.6759999990463257 46.301998138427734,11.954999923706055 C46.04999923706055,16.624000549316406 27.224000930786133,12.28600025177002 -1.8650000095367432,10.984000205993652 C-20.69300079345703,10.140999794006348 -36.518001556396484,8.390000343322754 -41.8120002746582,8.670000076293945 C-44.55799865722656,8.8149995803833 -45.26900100708008,7.749000072479248 -45.38999938964844,5.001999855041504 C-45.41999816894531,4.335000038146973 -44.33599853515625,1.774999976158142 -44.060001373291016,1.4709999561309814z"></path></g><g opacity="1" transform="matrix(1,0,0,1,368.1809997558594,159.03399658203125)"><path stroke-linecap="round" stroke-linejoin="round" fill-opacity="0" stroke="rgb(224,135,97)" stroke-opacity="1" stroke-width="9.562" d=" M4.771999835968018,-9.012999534606934 C4.771999835968018,-9.012999534606934 4.242000102996826,-1.059999942779541 1.0609999895095825,3.180999994277954 C-2.119999885559082,7.422999858856201 -4.771999835968018,9.012999534606934 -4.771999835968018,9.012999534606934"></path></g></g><g style="display: block;" transform="matrix(0.9888006448745728,0,0,0.9755410552024841,165.753173828125,36.458595275878906)" opacity="1"><g opacity="1" transform="matrix(1.0614399909973145,0,0,1,34.07600021362305,10.861000061035156)"><path fill="rgb(80,29,12)" fill-opacity="1" d=" M29.886999130249023,-15.230999946594238 C25.341999053955078,-17.958999633789062 10.21399974822998,-18.283000946044922 -0.40700000524520874,-15.711999893188477 C-23.690000534057617,-10.076000213623047 -35.189998626708984,4.923999786376953 -31.881999969482422,9.053999900817871 C-29.452999114990234,12.086000442504883 -12.795999526977539,3.937999963760376 -10.125,3.0739998817443848 C1.7610000371932983,-0.7739999890327454 13.378000259399414,-1.375 22.3799991607666,-1.7910000085830688 C31.381000518798828,-2.2070000171661377 33.82600021362305,-1.6419999599456787 33.64899826049805,-4.718999862670898 C33.47100067138672,-7.796000003814697 36.810001373291016,-11.076000213623047 29.886999130249023,-15.230999946594238z"></path></g><g opacity="1" transform="matrix(1,0,0,1,197.29299926757812,18.43199920654297)"><path fill="rgb(81,29,12)" fill-opacity="1" d=" M-25.323999404907227,-14.869000434875488 C-14.182000160217285,-16.833999633789062 -7.34499979019165,-14.401000022888184 0.6320000290870667,-12.779000282287598 C12.086000442504883,-10.449999809265137 33.81700134277344,3.1659998893737793 28.57200050354004,11.829000473022461 C26.590999603271484,15.10099983215332 12.022000312805176,5.214000225067139 10.062999725341797,4.421000003814697 C1.3480000495910645,0.8899999856948853 -7.841000080108643,-0.9210000038146973 -14.57699966430664,-1.1130000352859497 C-21.312000274658203,-1.3049999475479126 -22.667999267578125,-1.6080000400543213 -25.152000427246094,-3.4240000247955322 C-31.18199920654297,-7.834000110626221 -26.760000228881836,-14.616000175476074 -25.323999404907227,-14.869000434875488z"></path></g></g><g style="display: block;" transform="matrix(0.9888006448745728,0,0,0.9755410552024841,157.7775115966797,145.87039184570312)" opacity="1"><g opacity="1" transform="matrix(1.028880000114441,0,0,1.0506600141525269,-4.1643829345703125,-5.4422149658203125)"><g opacity="1" transform="matrix(1,0,0,1,144.99099731445312,72.74800109863281)"><path fill="rgb(76,31,25)" fill-opacity="1" d=" M-99.20800018310547,26.809999465942383 C-99.20800018310547,26.809999465942383 -92.03900146484375,-19.131000518798828 -53.86600112915039,-37.63199996948242 C-15.208999633789062,-56.36800003051758 16.33300018310547,-52.867000579833984 43.652000427246094,-40.2760009765625 C70.97200012207031,-27.684999465942383 92.64199829101562,14.85099983215332 95.41999816894531,27.006999969482422 C98.1989974975586,39.16400146484375 95.13500213623047,45.867000579833984 95.13500213623047,45.867000579833984 C95.13500213623047,45.867000579833984 57.79100036621094,31.312999725341797 -4.256999969482422,30.444000244140625 C-66.30599975585938,29.576000213623047 -100.63400268554688,36.71799850463867 -100.63400268554688,36.71799850463867 C-100.63400268554688,36.71799850463867 -99.20800018310547,26.809999465942383 -99.20800018310547,26.809999465942383z"></path><path stroke-linecap="round" stroke-linejoin="round" fill-opacity="0" stroke="rgb(132,59,23)" stroke-opacity="1" stroke-width="9.875" d=" M-99.20800018310547,26.809999465942383 C-99.20800018310547,26.809999465942383 -92.03900146484375,-19.131000518798828 -53.86600112915039,-37.63199996948242 C-15.208999633789062,-56.36800003051758 16.33300018310547,-52.867000579833984 43.652000427246094,-40.2760009765625 C70.97200012207031,-27.684999465942383 92.64199829101562,14.85099983215332 95.41999816894531,27.006999969482422 C98.1989974975586,39.16400146484375 95.13500213623047,45.867000579833984 95.13500213623047,45.867000579833984 C95.13500213623047,45.867000579833984 57.79100036621094,31.312999725341797 -4.256999969482422,30.444000244140625 C-66.30599975585938,29.576000213623047 -100.63400268554688,36.71799850463867 -100.63400268554688,36.71799850463867 C-100.63400268554688,36.71799850463867 -99.20800018310547,26.809999465942383 -99.20800018310547,26.809999465942383z"></path></g><g opacity="1" transform="matrix(1,0,0,1,134.33599853515625,80.01799774169922)"><path fill="rgb(211,42,90)" fill-opacity="1" d=" M-62.66699981689453,6.511000156402588 C-62.66699981689453,6.511000156402588 -45.172000885009766,-14.960000038146973 -7.000999927520752,-17.34600067138672 C31.170000076293945,-19.73200035095215 59.55799865722656,0.2029999941587448 58.882999420166016,4.1519999504089355 C58.20800018310547,8.10099983215332 64.38099670410156,12.102999687194824 64.38099670410156,12.102999687194824 C64.38099670410156,12.102999687194824 25.60300064086914,8.897000312805176 0.9509999752044678,11.281999588012695 C-23.701000213623047,13.668000221252441 -64.38099670410156,19.73200035095215 -64.38099670410156,19.73200035095215 C-64.38099670410156,19.73200035095215 -62.66699981689453,6.511000156402588 -62.66699981689453,6.511000156402588z"></path><path stroke-linecap="round" stroke-linejoin="round" fill-opacity="0" stroke="rgb(155,21,59)" stroke-opacity="1" stroke-width="9.875" d=" M-62.66699981689453,6.511000156402588 C-62.66699981689453,6.511000156402588 -45.172000885009766,-14.960000038146973 -7.000999927520752,-17.34600067138672 C31.170000076293945,-19.73200035095215 59.55799865722656,0.2029999941587448 58.882999420166016,4.1519999504089355 C58.20800018310547,8.10099983215332 64.38099670410156,12.102999687194824 64.38099670410156,12.102999687194824 C64.38099670410156,12.102999687194824 25.60300064086914,8.897000312805176 0.9509999752044678,11.281999588012695 C-23.701000213623047,13.668000221252441 -64.38099670410156,19.73200035095215 -64.38099670410156,19.73200035095215 C-64.38099670410156,19.73200035095215 -62.66699981689453,6.511000156402588 -62.66699981689453,6.511000156402588z"></path></g><g opacity="1" transform="matrix(1,0,0,1,0,0)"><g opacity="1" transform="matrix(1,0,0,1,145.33799743652344,159.52200317382812)"><path stroke-linecap="round" stroke-linejoin="round" fill-opacity="0" stroke="rgb(224,135,97)" stroke-opacity="1" stroke-width="11" d=" M-57.06800079345703,2.631999969482422 C-57.06800079345703,2.631999969482422 -27.246000289916992,17.764999389648438 -1.3890000581741333,22.527000427246094 C18.11400032043457,26.118999481201172 40.35900115966797,24.128999710083008 54.7140007019043,8.49899959564209 C69.06800079345703,-7.13100004196167 67.61699676513672,-11.821000099182129 67.61699676513672,-11.821000099182129"></path></g><g opacity="1" transform="matrix(1,0,0,1,127.86499786376953,170.4949951171875)"><path stroke-linecap="round" stroke-linejoin="round" fill-opacity="0" stroke="rgb(211,118,85)" stroke-opacity="1" stroke-width="11" d=" M-76.10199737548828,-17.076000213623047 C-76.10199737548828,-17.076000213623047 -55.74599838256836,13.895999908447266 -6.25600004196167,25.958999633789062 C27.586999893188477,34.20800018310547 54.130001068115234,36.492000579833984 70.71499633789062,26.378999710083008 C92.45099639892578,13.125 96.10199737548828,1.1200000047683716 96.10199737548828,1.1200000047683716"></path></g><g opacity="1" transform="matrix(1,0,0,1,46.939998626708984,160.7760009765625)"><path stroke-linecap="round" stroke-linejoin="round" fill-opacity="0" stroke="rgb(217,123,83)" stroke-opacity="1" stroke-width="11" d=" M-19.309999465942383,-7.663000106811523 C-19.309999465942383,-7.663000106811523 -20.586000442504883,-5.809000015258789 -6.230999946594238,6.7820000648498535 C8.123000144958496,19.37299919128418 7.309999942779541,18.698999404907227 7.309999942779541,18.698999404907227"></path></g></g><g opacity="1" transform="matrix(1,0,0,1,32.584999084472656,99.55799865722656)"><path stroke-linecap="round" stroke-linejoin="round" fill-opacity="0" stroke="rgb(224,135,97)" stroke-opacity="1" stroke-width="9.052" d=" M-10.45300006866455,-5.192999839782715 C-10.45300006866455,-5.192999839782715 -12.39900016784668,2.052999973297119 -10.083000183105469,12.906999588012695 C-7.76800012588501,23.761999130249023 -3.6010000705718994,30.27400016784668 -3.6010000705718994,30.27400016784668"></path></g><g opacity="1" transform="matrix(1,0,0,1,256.4219970703125,115.71900177001953)"><path stroke-linecap="round" stroke-linejoin="round" fill-opacity="0" stroke="rgb(224,135,97)" stroke-opacity="1" stroke-width="9.052" d=" M8.529999732971191,-2.4149999618530273 C8.529999732971191,-2.4149999618530273 13.536999702453613,10.003999710083008 7.980999946594238,16.950000762939453 C2.4240000247955322,23.89699935913086 -5.538000106811523,26.493000030517578 -5.538000106811523,26.493000030517578"></path></g><g opacity="1" transform="matrix(1.068160057067871,0,0,1.0919100046157837,-9.864334106445312,-4.9513092041015625)"><path stroke-linecap="round" stroke-linejoin="round" fill-opacity="0" stroke="rgb(91,152,212)" stroke-opacity="1" stroke-width="11" d=" M124.19,94.48 C124.19,94.48 125.12,77.99 125.01,76.07 C124.9,74.14 128.06,70.68 132.64,71 C137.22,71.32 146.44,72.79 149.25,74.03 C152.06,75.27 153.22,79.62 153.3,80.99 C153.38,82.37 154.17,96.39 154.17,96.39 C154.17,96.39 145,95.74 140.72,95.4 C136.44,95.07 124.19,94.48 124.19,94.48z M180.51,98.25 C180.51,98.25 178.77,90.35 177.68,88.19 C176.59,86.04 176.75,83.33 174.81,83.1 C169.94,82.52 160.54,81.61 159.6,82.21 C158.67,82.8 159.88,98.45 159.88,98.45 C159.88,98.45 180.51,98.25 180.51,98.25z M98.52,93.71 C98.52,93.71 99.11,84.02 100.63,80.37 C102.15,76.72 108.97,73.81 111.77,72.47 C114.57,71.12 115.85,73.42 116.3,75.03 C116.75,76.64 117.38,95.85 117.38,95.85 C117.38,95.85 98.52,93.71 98.52,93.71z M78.97,98.69 C78.97,98.69 73.41,89.43 73.1,85.95 C72.82,82.78 76.37,82.37 80.63,80.63 C82.99,79.67 85.73,80.58 86.93,82.7 C86.93,82.7 93.36,94.01 93.36,94.01 C93.36,94.01 78.97,98.69 78.97,98.69z M51.63,100.83 C51.63,100.83 49.64,94.04 50.8,91.77 C51.96,89.51 65.11,88.3 65.11,88.3 C65.11,88.3 69.94,99.36 69.94,99.36 C69.94,99.36 51.63,100.83 51.63,100.83z M185.02,98.03 C185.02,98.03 186.67,81.68 187.67,76.67 C188.68,71.66 191.11,69.06 193.12,70.33 C195.13,71.61 202.12,81.19 202.23,83.11 C202.34,85.03 205.94,103.05 205.94,103.05 C205.94,103.05 185.02,98.03 185.02,98.03z M227.09,109.72 C227.09,109.72 222.94,94.45 220.51,91.45 C218.09,88.46 213.33,84.69 211.08,84.45 C208.83,84.22 206.97,88.11 207.73,91.06 C208.49,94.02 211.25,105.87 211.25,105.87 C211.25,105.87 227.09,109.72 227.09,109.72z M236.52,111.66 C237.67,113.57 239.25,114 238.97,112.12 C238.48,108.85 236.91,101.87 235.25,99.7 C233.95,98.01 232.12,96.85 230.08,96.37 C228.53,96.01 227.31,96.89 227.41,98.12 C227.41,98.12 228.33,110.12 228.33,110.12 C228.37,110.69 228.78,109.47 229.37,109.65 C229.37,109.65 236.52,111.66 236.52,111.66z"></path><g opacity="1" transform="matrix(1,0,0,1,139.18299865722656,83.53199768066406)"><path fill="rgb(255,255,255)" fill-opacity="1" d=" M-14.989999771118164,10.951000213623047 C-14.989999771118164,10.951000213623047 -14.060999870300293,-5.540999889373779 -14.170000076293945,-7.465000152587891 C-14.279000282287598,-9.390000343322754 -11.126999855041504,-12.854999542236328 -6.543000221252441,-12.531999588012695 C-1.9579999446868896,-12.210000038146973 7.256999969482422,-10.739999771118164 10.067000389099121,-9.501999855041504 C12.878000259399414,-8.263999938964844 14.038000106811523,-3.9119999408721924 14.116000175476074,-2.5380001068115234 C14.194000244140625,-1.1629999876022339 14.989999771118164,12.854999542236328 14.989999771118164,12.854999542236328 C14.989999771118164,12.854999542236328 5.821000099182129,12.210000038146973 1.5399999618530273,11.871999740600586 C-2.740999937057495,11.53499984741211 -14.989999771118164,10.951000213623047 -14.989999771118164,10.951000213623047z"></path></g><g opacity="1" transform="matrix(1,0,0,1,169.58999633789062,90.03199768066406)"><path fill="rgb(255,255,255)" fill-opacity="1" d=" M10.92199993133545,8.220000267028809 C10.92199993133545,8.220000267028809 9.182000160217285,0.3140000104904175 8.092000007629395,-1.8370000123977661 C7.001999855041504,-3.986999988555908 7.159999847412109,-6.698999881744385 5.2230000495910645,-6.931000232696533 C0.35199999809265137,-7.513999938964844 -9.053999900817871,-8.423999786376953 -9.98799991607666,-7.826000213623047 C-10.920999526977539,-7.228000164031982 -9.711000442504883,8.42300033569336 -9.711000442504883,8.42300033569336 C-9.711000442504883,8.42300033569336 10.92199993133545,8.220000267028809 10.92199993133545,8.220000267028809z"></path></g><g opacity="1" transform="matrix(1,0,0,1,107.9489974975586,83.48400115966797)"><path fill="rgb(255,255,255)" fill-opacity="1" d=" M-9.427000045776367,10.225000381469727 C-9.427000045776367,10.225000381469727 -8.84000015258789,0.5329999923706055 -7.316999912261963,-3.115000009536743 C-5.794000148773193,-6.763000011444092 1.0199999809265137,-9.67300033569336 3.821000099182129,-11.019000053405762 C6.623000144958496,-12.364999771118164 7.901000022888184,-10.062999725341797 8.350000381469727,-8.456000328063965 C8.79800033569336,-6.848999977111816 9.427000045776367,12.364999771118164 9.427000045776367,12.364999771118164 C9.427000045776367,12.364999771118164 -9.427000045776367,10.225000381469727 -9.427000045776367,10.225000381469727z"></path></g><g opacity="1" transform="matrix(1,0,0,1,83.08899688720703,89.18199920654297)"><path fill="rgb(255,255,255)" fill-opacity="1" d=" M-4.122000217437744,9.506999969482422 C-4.122000217437744,9.506999969482422 -9.678999900817871,0.24500000476837158 -9.987000465393066,-3.2290000915527344 C-10.269000053405762,-6.4019999504089355 -6.7220001220703125,-6.809000015258789 -2.4549999237060547,-8.54800033569336 C-0.10300000011920929,-9.506999969482422 2.638000011444092,-8.600000381469727 3.8440001010894775,-6.478000164031982 C3.8440001010894775,-6.478000164031982 10.269000053405762,4.830999851226807 10.269000053405762,4.830999851226807 C10.269000053405762,4.830999851226807 -4.122000217437744,9.506999969482422 -4.122000217437744,9.506999969482422z"></path></g><g opacity="1" transform="matrix(1,0,0,1,59.7869987487793,94.56400299072266)"><path fill="rgb(255,255,255)" fill-opacity="1" d=" M-8.152000427246094,6.263000011444092 C-8.152000427246094,6.263000011444092 -10.151000022888184,-0.527999997138977 -8.989999771118164,-2.7920000553131104 C-7.828000068664551,-5.054999828338623 5.328000068664551,-6.263000011444092 5.328000068664551,-6.263000011444092 C5.328000068664551,-6.263000011444092 10.149999618530273,4.797999858856201 10.149999618530273,4.797999858856201 C10.149999618530273,4.797999858856201 -8.152000427246094,6.263000011444092 -8.152000427246094,6.263000011444092z"></path></g><g opacity="1" transform="matrix(1,0,0,1,195.47999572753906,86.0510025024414)"><path fill="rgb(255,255,255)" fill-opacity="1" d=" M-10.46399974822998,11.97599983215332 C-10.46399974822998,11.97599983215332 -8.812999725341797,-4.369999885559082 -7.807000160217285,-9.380999565124512 C-6.801000118255615,-14.392999649047852 -4.36899995803833,-16.9950008392334 -2.3610000610351562,-15.718000411987305 C-0.3529999852180481,-14.4399995803833 6.642000198364258,-4.864999771118164 6.750999927520752,-2.940999984741211 C6.861000061035156,-1.0169999599456787 10.46399974822998,16.9950008392334 10.46399974822998,16.9950008392334 C10.46399974822998,16.9950008392334 -10.46399974822998,11.97599983215332 -10.46399974822998,11.97599983215332z"></path></g><g opacity="1" transform="matrix(1,0,0,1,217.03199768066406,96.97100067138672)"><path fill="rgb(255,255,255)" fill-opacity="1" d=" M10.062000274658203,12.75100040435791 C10.062000274658203,12.75100040435791 5.9070000648498535,-2.5250000953674316 3.4820001125335693,-5.51800012588501 C1.0570000410079956,-8.51200008392334 -3.7060000896453857,-12.282999992370605 -5.955999851226807,-12.517000198364258 C-8.206000328063965,-12.75100040435791 -10.060999870300293,-8.864999771118164 -9.300999641418457,-5.909999847412109 C-8.541999816894531,-2.9560000896453857 -5.7779998779296875,8.89900016784668 -5.7779998779296875,8.89900016784668 C-5.7779998779296875,8.89900016784668 10.062000274658203,12.75100040435791 10.062000274658203,12.75100040435791z"></path></g><g opacity="1" transform="matrix(1,0,0,1,233.2790069580078,105.09600067138672)"><path fill="rgb(255,255,255)" fill-opacity="1" d=" M3.240999937057495,6.559000015258789 C4.388000011444092,8.47599983215332 5.968999862670898,8.906999588012695 5.688000202178955,7.0229997634887695 C5.199999809265137,3.75 3.628000020980835,-3.2239999771118164 1.9670000076293945,-5.39300012588501 C0.675000011920929,-7.081999778747559 -1.159000039100647,-8.243000030517578 -3.2039999961853027,-8.722000122070312 C-4.747000217437744,-9.083999633789062 -5.968999862670898,-8.204000473022461 -5.874000072479248,-6.9720001220703125 C-5.874000072479248,-6.9720001220703125 -4.952000141143799,5.019999980926514 -4.952000141143799,5.019999980926514 C-4.9070000648498535,5.5980000495910645 -4.497000217437744,4.36899995803833 -3.9130001068115234,4.556000232696533 C-3.9130001068115234,4.556000232696533 3.240999937057495,6.559000015258789 3.240999937057495,6.559000015258789z"></path></g></g><g opacity="1" transform="matrix(1.0473530292510986,0.017550209537148476,-0.016754377633333206,0.999859631061554,-6.0176239013671875,-4.9688568115234375)"><path stroke-linecap="round" stroke-linejoin="round" fill-opacity="0" stroke="rgb(91,152,212)" stroke-opacity="1" stroke-width="9.052" d=" M85.87,44.82 C85.87,44.82 96.02,55.27 101.35,52.88 C103.49,51.92 102.21,37.67 102.21,37.67 C102.21,37.67 94.17,40.15 92.02,40.85 C89.86,41.55 85.87,44.82 85.87,44.82z M104.82,40.08 C104.82,40.08 115.85,52.66 117.79,52.33 C123.34,51.36 125.41,36.62 125.41,36.62 C125.41,36.62 120.47,34.12 116.46,35.23 C112.44,36.33 104.82,40.08 104.82,40.08z M130.31,34.49 C130.31,34.49 131.24,38.29 132,39.89 C132.75,41.5 133.71,45.87 139.09,47.46 C141.04,48.03 144.15,47.82 146.66,47.49 C148.93,47.19 150.6,45.33 150.51,43.17 C150.51,43.17 150.51,33.77 150.51,33.77 C150.51,33.77 130.31,34.49 130.31,34.49z M156.36,35.04 C156.36,35.04 157.78,39.72 157.92,41.52 C158.06,43.33 159.07,48.2 160.58,49.31 C162.09,50.42 172.6,51.36 173.9,49.76 C175.2,48.16 178.11,35.45 178.11,35.45 C178.11,35.45 156.36,35.04 156.36,35.04z M181.3,35.95 C181.3,35.95 182.41,44.04 184.13,45.86 C185.85,47.67 190.79,50.37 192.05,50.28 C193.3,50.2 197.78,46.85 197.78,46.85 C197.78,46.85 195.22,40.21 191.95,38.77 C188.68,37.34 181.3,35.95 181.3,35.95z"></path><g opacity="1" transform="matrix(1,0,0,1,95.1259994506836,46.46900177001953)"><path fill="rgb(255,255,255)" fill-opacity="1" d=" M-9.260000228881836,-1.6460000276565552 C-9.260000228881836,-1.6460000276565552 0.8980000019073486,8.803000450134277 6.2230000495910645,6.414999961853027 C8.36400032043457,5.453999996185303 7.085000038146973,-8.803000450134277 7.085000038146973,-8.803000450134277 C7.085000038146973,-8.803000450134277 -0.9549999833106995,-6.320000171661377 -3.109999895095825,-5.620999813079834 C-5.264999866485596,-4.921000003814697 -9.260000228881836,-1.6460000276565552 -9.260000228881836,-1.6460000276565552z"></path></g><g opacity="1" transform="matrix(1,0,0,1,115.11499786376953,42.77899932861328)"><path fill="rgb(255,255,255)" fill-opacity="1" d=" M-10.293000221252441,-2.703000068664551 C-10.293000221252441,-2.703000068664551 0.7329999804496765,9.883999824523926 2.677999973297119,9.54699993133545 C8.227999687194824,8.585000038146973 10.293000221252441,-6.1539998054504395 10.293000221252441,-6.1539998054504395 C10.293000221252441,-6.1539998054504395 5.360000133514404,-8.656999588012695 1.3420000076293945,-7.552999973297119 C-2.6760001182556152,-6.449999809265137 -10.293000221252441,-2.703000068664551 -10.293000221252441,-2.703000068664551z"></path></g><g opacity="1" transform="matrix(1,0,0,1,140.4550018310547,40.308998107910156)"><path fill="rgb(255,255,255)" fill-opacity="1" d=" M-10.144000053405762,-5.821000099182129 C-10.144000053405762,-5.821000099182129 -9.215999603271484,-2.0199999809265137 -8.460000038146973,-0.41600000858306885 C-7.703000068664551,1.187999963760376 -6.75,5.560999870300293 -1.3680000305175781,7.14900016784668 C0.5879999995231628,7.72599983215332 3.697000026702881,7.513999938964844 6.201000213623047,7.184000015258789 C8.479000091552734,6.883999824523926 10.144000053405762,5.019000053405762 10.050999641418457,2.864000082015991 C10.050999641418457,2.864000082015991 10.053999900817871,-6.535999774932861 10.053999900817871,-6.535999774932861 C10.053999900817871,-6.535999774932861 -10.144000053405762,-5.821000099182129 -10.144000053405762,-5.821000099182129z"></path></g><g opacity="1" transform="matrix(1,0,0,1,167.40499877929688,42.000999450683594)"><path fill="rgb(255,255,255)" fill-opacity="1" d=" M-11.045999526977539,-6.955999851226807 C-11.045999526977539,-6.955999851226807 -9.623000144958496,-2.2850000858306885 -9.482000350952148,-0.47699999809265137 C-9.340999603271484,1.3309999704360962 -8.338000297546387,6.202000141143799 -6.827000141143799,7.309999942779541 C-5.315000057220459,8.418000221252441 5.197000026702881,9.36400032043457 6.497000217437744,7.760000228881836 C7.797999858856201,6.156000137329102 10.708999633789062,-6.546000003814697 10.708999633789062,-6.546000003814697 C10.708999633789062,-6.546000003814697 -11.045999526977539,-6.955999851226807 -11.045999526977539,-6.955999851226807z"></path></g><g opacity="1" transform="matrix(1,0,0,1,189.5399932861328,43.15999984741211)"><path fill="rgb(255,255,255)" fill-opacity="1" d=" M-8.23900032043457,-7.208000183105469 C-8.23900032043457,-7.208000183105469 -7.133999824523926,0.8830000162124634 -5.414000034332275,2.697000026702881 C-3.694000005722046,4.511000156402588 1.2519999742507935,7.208000183105469 2.507999897003174,7.122000217437744 C3.7639999389648438,7.035999774932861 8.23900032043457,3.693000078201294 8.23900032043457,3.693000078201294 C8.23900032043457,3.693000078201294 5.679999828338623,-2.953000068664551 2.4110000133514404,-4.385000228881836 C-0.8569999933242798,-5.816999912261963 -8.23900032043457,-7.208000183105469 -8.23900032043457,-7.208000183105469z"></path></g></g><g opacity="1" transform="matrix(1,0,0,1,134.31500244140625,111.00499725341797)"><path fill="rgb(242,150,108)" fill-opacity="1" d=" M-87.89299774169922,7.00600004196167 C-87.89299774169922,7.00600004196167 -34.52399826049805,-8.545000076293945 22.73200035095215,-3.950000047683716 C71.48999786376953,-0.03799999877810478 95.89299774169922,13.545000076293945 95.89299774169922,13.545000076293945 C95.89299774169922,13.545000076293945 52.68600082397461,2.940999984741211 19.285999298095703,1.88100004196167 C-10.935999870300293,0.921999990940094 -54.64799880981445,3.444000005722046 -58.645999908447266,4.001999855041504 C-66.24500274658203,5.061999797821045 -87.89299774169922,7.00600004196167 -87.89299774169922,7.00600004196167z"></path></g><g opacity="1" transform="matrix(1,0,0,1,144.99099731445312,72.74800109863281)"><path stroke-linecap="round" stroke-linejoin="round" fill-opacity="0" stroke="rgb(132,59,23)" stroke-opacity="1" stroke-width="11" d=" M-104.06800079345703,26.809999465942383 C-104.06800079345703,26.809999465942383 -92.03900146484375,-19.131000518798828 -53.86600112915039,-37.63199996948242 C-15.208999633789062,-56.36800003051758 16.33300018310547,-52.867000579833984 43.652000427246094,-40.2760009765625 C70.97200012207031,-27.684999465942383 93.73100280761719,5.784999847412109 99.30699920654297,27.961999893188477 C102.3479995727539,40.055999755859375 101.87000274658203,48.952999114990234 101.87000274658203,48.952999114990234 C101.87000274658203,48.952999114990234 57.79100036621094,31.312999725341797 -4.256999969482422,30.444000244140625 C-66.30599975585938,29.576000213623047 -103.55000305175781,36.71799850463867 -103.55000305175781,36.71799850463867 C-103.55000305175781,36.71799850463867 -104.06800079345703,26.809999465942383 -104.06800079345703,26.809999465942383z"></path></g></g></g><g style="display: block;" transform="matrix(0.9599999785423279,0,0,0.9502000212669373,92.44384002685547,298.5892333984375)" opacity="1"><g opacity="1" transform="matrix(1,0,0,1,201.0260009765625,185.0570068359375)"><path fill="rgb(247,248,249)" fill-opacity="1" d=" M-77.30899810791016,-32.59700012207031 C-77.30899810791016,-32.59700012207031 -75.25199890136719,-23.013999938964844 -77.80999755859375,-12.031999588012695 C-79.19999694824219,-6.061999797821045 -86.60299682617188,5.928999900817871 -90.69999694824219,17.690000534057617 C-91.58499908447266,20.231000900268555 -89.71399688720703,25.40399932861328 -90.49099731445312,27.604000091552734 C-91.5979995727539,30.738000869750977 -38.83300018310547,33.77899932861328 6.3420000076293945,34.395999908447266 C52.6609992980957,35.02899932861328 91.43199920654297,29.756000518798828 91.43199920654297,29.756000518798828 C91.43199920654297,29.756000518798828 91.5979995727539,17.958999633789062 91.5979995727539,17.958999633789062 C91.5979995727539,17.958999633789062 75.79000091552734,-3.566999912261963 73.56999969482422,-14.470000267028809 C71.35099792480469,-25.37299919128418 73.70500183105469,-35.02899932861328 73.70500183105469,-35.02899932861328"></path></g><g opacity="1" transform="matrix(1,0,0,1,201.0260009765625,185.0570068359375)"><path stroke-linecap="round" stroke-linejoin="round" fill-opacity="0" stroke="rgb(52,145,191)" stroke-opacity="1" stroke-width="12" d=" M-77.30899810791016,-32.59700012207031 C-77.30899810791016,-32.59700012207031 -75.25199890136719,-23.013999938964844 -77.80999755859375,-12.031999588012695 C-79.19999694824219,-6.061999797821045 -86.60299682617188,5.928999900817871 -90.69999694824219,17.690000534057617 C-91.58499908447266,20.231000900268555 -89.71399688720703,25.40399932861328 -90.49099731445312,27.604000091552734 C-91.5979995727539,30.738000869750977 -38.83300018310547,33.77899932861328 6.3420000076293945,34.395999908447266 C52.6609992980957,35.02899932861328 91.43199920654297,29.756000518798828 91.43199920654297,29.756000518798828 C91.43199920654297,29.756000518798828 91.5979995727539,17.958999633789062 91.5979995727539,17.958999633789062 C91.5979995727539,17.958999633789062 75.79000091552734,-3.566999912261963 73.56999969482422,-14.470000267028809 C71.35099792480469,-25.37299919128418 73.70500183105469,-35.02899932861328 73.70500183105469,-35.02899932861328"></path></g><g opacity="1" transform="matrix(1,0,0,1,212.05099487304688,182.9459991455078)"><path fill="rgb(149,208,232)" fill-opacity="1" d=" M-75.60600280761719,-21.795000076293945 C-75.60600280761719,-21.795000076293945 -53.09600067138672,-7.627999782562256 -15.22700023651123,-3.2690000534057617 C16.30699920654297,0.3610000014305115 37.73699951171875,-2.178999900817871 39.85499954223633,3.813999891281128 C41.9739990234375,9.807999610900879 43.29800033569336,29.695999145507812 43.29800033569336,29.695999145507812 C43.29800033569336,29.695999145507812 75.60600280761719,28.878000259399414 75.60600280761719,26.698999404907227 C75.60600280761719,26.698999404907227 75.60600280761719,19.88800048828125 75.60600280761719,19.88800048828125 C75.60600280761719,19.88800048828125 60.51100158691406,1.3619999885559082 57.862998962402344,-8.989999771118164 C55.21500015258789,-19.343000411987305 55.74399948120117,-29.695999145507812 55.74399948120117,-29.695999145507812 C55.74399948120117,-29.695999145507812 -3.0450000762939453,-27.516000747680664 -3.0450000762939453,-27.516000747680664 C-3.0450000762939453,-27.516000747680664 -66.60199737548828,-22.61199951171875 -66.60199737548828,-22.61199951171875"></path></g><g opacity="1" transform="matrix(1,0,0,1,193.57200622558594,102.22599792480469)"><path fill="rgb(194,229,242)" fill-opacity="1" d=" M-125.79499816894531,-64.30999755859375 C-125.79499816894531,-64.30999755859375 -55.191001892089844,-43.78300094604492 12.697999954223633,-42.89899826049805 C84.20700073242188,-41.96900177001953 128.56100463867188,-55.000999450683594 128.56100463867188,-55.000999450683594 C142.13900756835938,-54.5359992980957 142.15499877929688,-47.534000396728516 141.23399353027344,-38.244998931884766 C138.822998046875,-13.947999954223633 130.3300018310547,27.481000900268555 89.86799621582031,48.70600128173828 C65.98300170898438,61.236000061035156 34.21099853515625,64.34200286865234 3.8259999752044678,63.4109992980957 C-34.053001403808594,62.250999450683594 -70.9000015258789,58.74100112915039 -99.19100189208984,31.961999893188477 C-122.74099731445312,9.67199993133545 -138.83999633789062,-26.398000717163086 -141.10800170898438,-46.749000549316406 C-142.15499877929688,-56.132999420166016 -134.97999572753906,-64.34200286865234 -125.79499816894531,-64.30999755859375z"></path></g><g opacity="1" transform="matrix(1,0,0,1,193.57200622558594,102.22599792480469)"><path stroke-linecap="butt" stroke-linejoin="miter" fill-opacity="0" stroke-miterlimit="10" stroke="rgb(52,145,191)" stroke-opacity="1" stroke-width="12" d=" M-125.79499816894531,-64.30999755859375 C-125.79499816894531,-64.30999755859375 -55.191001892089844,-43.78300094604492 12.697999954223633,-42.89899826049805 C84.20700073242188,-41.96900177001953 128.56100463867188,-55.000999450683594 128.56100463867188,-55.000999450683594 C142.13900756835938,-54.5359992980957 142.15499877929688,-47.534000396728516 141.23399353027344,-38.244998931884766 C138.822998046875,-13.947999954223633 130.3300018310547,27.481000900268555 89.86799621582031,48.70600128173828 C65.98300170898438,61.236000061035156 34.21099853515625,64.34200286865234 3.8259999752044678,63.4109992980957 C-34.053001403808594,62.250999450683594 -70.9000015258789,58.74100112915039 -99.19100189208984,31.961999893188477 C-122.74099731445312,9.67199993133545 -138.83999633789062,-26.398000717163086 -141.10800170898438,-46.749000549316406 C-142.15499877929688,-56.132999420166016 -134.97999572753906,-64.34200286865234 -125.79499816894531,-64.30999755859375z"></path></g><g opacity="1" transform="matrix(1,0,0,1,203.5570068359375,89.177001953125)"><path fill="rgb(247,248,249)" fill-opacity="1" d=" M-117.18499755859375,-45.07899856567383 C-117.18499755859375,-45.07899856567383 -54.01900100708008,-32.018001556396484 11.737000465393066,-31.141000747680664 C81,-30.215999603271484 114.37799835205078,-43.31999969482422 114.37799835205078,-43.31999969482422 C127.52899932861328,-42.858001708984375 119.93599700927734,-49.736000061035156 119.04399871826172,-40.5099983215332 C116.70899963378906,-16.378999710083008 123.94200134277344,13.12600040435791 84.75199890136719,34.20600128173828 C61.61800003051758,46.650001525878906 30.843000411987305,49.73500061035156 1.4119999408721924,48.810001373291016 C-35.2760009765625,47.65800094604492 -72.0530014038086,45.25699996948242 -98.36799621582031,17.57699966430664 C-117.96299743652344,-3.0350000858306885 -124.31900024414062,-18.308000564575195 -126.51599884033203,-38.52000045776367 C-127.52899932861328,-47.84000015258789 -126.08100128173828,-45.111000061035156 -117.18499755859375,-45.07899856567383z"></path></g><g opacity="1" transform="matrix(1,0,0,1,210.31500244140625,69.95099639892578)"><path fill="rgb(149,208,232)" fill-opacity="1" d=" M-133.98500061035156,2.11299991607666 C-129.31399536132812,6.061999797821045 -115.98400115966797,13.70199966430664 -80.04199981689453,20.638999938964844 C-56.22800064086914,25.235000610351562 -22.16699981689453,30.833999633789062 16.945999145507812,30.44700050354004 C48.8380012512207,30.1299991607666 64.24500274658203,29.660999298095703 82.8759994506836,27.177000045776367 C123.74099731445312,21.729000091552734 117.17400360107422,4.034999847412109 119.927001953125,0.4779999852180481 C123.69300079345703,-4.385000228881836 104.22599792480469,-4.038000106811523 101.4010009765625,-9.87399959564209 C98.5770034790039,-15.711000442504883 143.5659942626953,-20.399999618530273 126.62000274658203,-16.509000778198242 C118.26699829101562,-14.590999603271484 99.37699890136719,-8.015999794006348 59.54399871826172,-5.078999996185303 C18.57699966430664,-2.058000087738037 -34.32400131225586,-4.739999771118164 -71.0770034790039,-11.645000457763672 C-143.5659942626953,-25.263999938964844 -126.5770034790039,-30.83300018310547 -130.59500122070312,-17.08300018310547 C-134.36000061035156,-4.193999767303467 -139.40499877929688,-2.4690001010894775 -133.98500061035156,2.11299991607666z"></path></g><g opacity="1" transform="matrix(1,0,0,1,192.86199951171875,54.79399871826172)"><path fill="rgb(247,248,249)" fill-opacity="1" d=" M-156.85299682617188,3.6470000743865967 C-151.7169952392578,7.367000102996826 -131.7779998779297,12.88700008392334 -92.26300048828125,19.42099952697754 C-66.08200073242188,23.75 -28.729999542236328,27.82900047302246 14.270000457763672,27.464000701904297 C49.332000732421875,27.166000366210938 73.03800201416016,24.895000457763672 93.54000091552734,22.68000030517578 C144.6790008544922,17.1560001373291 158.72999572753906,6.763000011444092 161.7570037841797,3.4130001068115234 C165.89700317382812,-1.1679999828338623 164.08599853515625,-6.290999889373779 160.9810028076172,-11.788000106811523 C157.87600708007812,-17.285999298095703 153.99400329589844,-16.599000930786133 135.36399841308594,-12.934000015258789 C126.18000030517578,-11.128000259399414 105.41300201416016,-4.934000015258789 61.62099838256836,-2.1670000553131104 C16.58099937438965,0.6779999732971191 -41.577999114990234,-1.8489999771118164 -81.98500061035156,-8.352999687194824 C-161.6790008544922,-21.180999755859375 -157.33999633789062,-27.82900047302246 -161.7570037841797,-14.878000259399414 C-165.89700317382812,-2.736999988555908 -162.81199645996094,-0.6690000295639038 -156.85299682617188,3.6470000743865967z"></path></g><g opacity="1" transform="matrix(1,0,0,1,192.86199951171875,54.79399871826172)"><path stroke-linecap="butt" stroke-linejoin="miter" fill-opacity="0" stroke-miterlimit="10" stroke="rgb(52,145,191)" stroke-opacity="1" stroke-width="12" d=" M-156.85299682617188,3.6470000743865967 C-151.7169952392578,7.367000102996826 -131.7779998779297,12.88700008392334 -92.26300048828125,19.42099952697754 C-66.08200073242188,23.75 -28.729999542236328,27.82900047302246 14.270000457763672,27.464000701904297 C49.332000732421875,27.166000366210938 73.03800201416016,24.895000457763672 93.54000091552734,22.68000030517578 C144.6790008544922,17.1560001373291 158.72999572753906,6.763000011444092 161.7570037841797,3.4130001068115234 C165.89700317382812,-1.1679999828338623 164.08599853515625,-6.290999889373779 160.9810028076172,-11.788000106811523 C157.87600708007812,-17.285999298095703 153.99400329589844,-16.599000930786133 135.36399841308594,-12.934000015258789 C126.18000030517578,-11.128000259399414 105.41300201416016,-4.934000015258789 61.62099838256836,-2.1670000553131104 C16.58099937438965,0.6779999732971191 -41.577999114990234,-1.8489999771118164 -81.98500061035156,-8.352999687194824 C-161.6790008544922,-21.180999755859375 -157.33999633789062,-27.82900047302246 -161.7570037841797,-14.878000259399414 C-165.89700317382812,-2.736999988555908 -162.81199645996094,-0.6690000295639038 -156.85299682617188,3.6470000743865967z"></path></g></g></g></svg>