<svg xmlns="http://www.w3.org/2000/svg" xmlns:xlink="http://www.w3.org/1999/xlink" viewBox="0 0 512 512" width="512" height="512" style="width: 100%; height: 100%; transform: translate3d(0,0,0); content-visibility: visible;" preserveAspectRatio="xMidYMid meet"><defs><clipPath id="__lottie_element_2"><rect width="512" height="512" x="0" y="0"></rect></clipPath><radialGradient id="__lottie_element_13" spreadMethod="pad" gradientUnits="userSpaceOnUse" cx="0" cy="0" r="100" fx="0" fy="0"><stop offset="0%" stop-color="rgb(252,187,147)"></stop><stop offset="48%" stop-color="rgb(248,173,128)"></stop><stop offset="100%" stop-color="rgb(244,159,109)"></stop></radialGradient><radialGradient id="__lottie_element_14" spreadMethod="pad" gradientUnits="userSpaceOnUse" cx="-113.97000122070312" cy="-87.0999984741211" r="290.47827552077354" fx="-113.97000122070312" fy="-87.0999984741211"><stop offset="0%" stop-color="rgb(249,223,201)"></stop><stop offset="48%" stop-color="rgb(251,200,167)"></stop><stop offset="100%" stop-color="rgb(253,177,133)"></stop></radialGradient><linearGradient id="__lottie_element_17" spreadMethod="pad" gradientUnits="userSpaceOnUse" x1="54.994998931884766" y1="-1.3420000076293945" x2="129.10499572753906" y2="8.781999588012695"><stop offset="0%" stop-color="rgb(250,210,181)"></stop><stop offset="48%" stop-color="rgb(251,198,164)"></stop><stop offset="100%" stop-color="rgb(252,187,147)"></stop></linearGradient><radialGradient id="__lottie_element_21" spreadMethod="pad" gradientUnits="userSpaceOnUse"><stop></stop><stop></stop><stop></stop></radialGradient><radialGradient id="__lottie_element_25" spreadMethod="pad" gradientUnits="userSpaceOnUse" cx="22.298999786376953" cy="25.895999908447266" r="85.73580285387368" fx="22.298999786376953" fy="25.895999908447266"><stop offset="0%" stop-color="rgb(250,210,181)"></stop><stop offset="48%" stop-color="rgb(251,198,164)"></stop><stop offset="100%" stop-color="rgb(252,187,147)"></stop></radialGradient></defs><g clip-path="url(#__lottie_element_2)"><g style="display: none;"><g><path></path><path stroke-linecap="butt" stroke-linejoin="miter" fill-opacity="0" stroke-miterlimit="10"></path></g><g><path></path></g><g><path></path></g><g><path stroke-linecap="round" stroke-linejoin="round" fill-opacity="0"></path></g><g><path></path></g><g><path stroke-linecap="round" stroke-linejoin="round" fill-opacity="0"></path></g><g><path></path></g><g><path stroke-linecap="round" stroke-linejoin="round" fill-opacity="0"></path></g><g><path></path></g><g><path stroke-linecap="round" stroke-linejoin="round" fill-opacity="0"></path></g><g><path stroke-linecap="round" stroke-linejoin="round" fill-opacity="0"></path></g><g><path></path></g><g><path stroke-linecap="round" stroke-linejoin="round" fill-opacity="0"></path></g></g><g style="display: block;" transform="matrix(0.9878837466239929,-0.06469737738370895,0.06469737738370895,0.9878837466239929,145.02554321289062,209.82089233398438)" opacity="1"><g opacity="1" transform="matrix(1,0,0,1,143.06900024414062,128.39100646972656)"><path fill="rgb(239,152,101)" fill-opacity="1" d=" M71.60299682617188,-11.4350004196167 C71.60299682617188,-11.4350004196167 73.13400268554688,-8.661999702453613 75.3740005493164,-4.664999961853027 C79.68499755859375,3.0260000228881836 90.15399932861328,10.88599967956543 93.8479995727539,16.631999969482422 C99.46099853515625,25.36400032043457 106.11399841308594,29.937999725341797 93.01599884033203,53.638999938964844 C79.91799926757812,77.33999633789062 53.93000030517578,97.71499633789062 22.7450008392334,110.18900299072266 C-8.440999984741211,122.66300201416016 -33.38800048828125,113.93099975585938 -33.38800048828125,113.93099975585938 C-33.38800048828125,113.93099975585938 -106.11399841308594,-3.5989999771118164 -69.56400299072266,-53.2239990234375 C-18.41900062561035,-122.66400146484375 62.66299819946289,-51.14500045776367 62.66299819946289,-51.14500045776367 C62.66299819946289,-51.14500045776367 73.13400268554688,-8.663000106811523 73.13400268554688,-8.663000106811523"></path></g><g opacity="1" transform="matrix(1,0,0,1,139.20199584960938,138.3699951171875)"><path stroke-linecap="round" stroke-linejoin="round" fill-opacity="0" stroke="rgb(183,99,57)" stroke-opacity="1" stroke-width="13.601" d=" M105.1989974975586,22.038000106811523 C105.1989974975586,22.038000106811523 91.89299774169922,2.0789999961853027 83.16100311279297,-13.720999717712402 C74.42900085449219,-29.52199935913086 75.26100158691406,-104.36799621582031 -14.968999862670898,-94.38800048828125 C-105.19999694824219,-84.40899658203125 -74.01399993896484,2.9110000133514404 -65.28199768066406,37.8390007019043 C-56.54999923706055,72.76699829101562 -27.858999252319336,104.36799621582031 -27.858999252319336,104.36799621582031"></path></g></g><g style="display: block;" transform="matrix(0.9865668416023254,-0.08237616717815399,0.08237616717815399,0.9865668416023254,34.60159683227539,48.718021392822266)" opacity="1"><g opacity="1" transform="matrix(1,0,0,1,207.87899780273438,238.1790008544922)"><path fill="url(#__lottie_element_13)" fill-opacity="1" d=" M-152.4969940185547,37.784000396728516 C-152.4969940185547,37.784000396728516 -173.07899475097656,-48.28799819946289 -149.69000244140625,-103.48699951171875 C-122.22699737548828,-168.3000030517578 -58.946998596191406,-203.37899780273438 31.809999465942383,-200.78599548339844 C130.04400634765625,-197.97900390625 161.85299682617188,-138.10299682617188 167.46600341796875,-57.64400100708008 C173.07899475097656,22.815000534057617 81.3949966430664,77.0780029296875 66.4260025024414,96.7249984741211 C51.457000732421875,116.37200164794922 33.68000030517578,147.2449951171875 18.711000442504883,165.02099609375 C3.742000102996826,182.7969970703125 -26.19499969482422,203.37899780273438 -61.74700164794922,194.95899963378906 C-97.29900360107422,186.53900146484375 -116.94599914550781,130.40499877929688 -129.10899353027344,107.01599884033203 C-141.27099609375,83.62699890136719 -152.4969940185547,37.784000396728516 -152.4969940185547,37.784000396728516z"></path><path stroke-linecap="butt" stroke-linejoin="miter" fill-opacity="0" stroke-miterlimit="10" stroke="rgb(183,99,57)" stroke-opacity="1" stroke-width="13.92" d=" M-152.4969940185547,37.784000396728516 C-152.4969940185547,37.784000396728516 -173.07899475097656,-48.28799819946289 -149.69000244140625,-103.48699951171875 C-122.22699737548828,-168.3000030517578 -58.946998596191406,-203.37899780273438 31.809999465942383,-200.78599548339844 C130.04400634765625,-197.97900390625 161.85299682617188,-138.10299682617188 167.46600341796875,-57.64400100708008 C173.07899475097656,22.815000534057617 81.3949966430664,77.0780029296875 66.4260025024414,96.7249984741211 C51.457000732421875,116.37200164794922 33.68000030517578,147.2449951171875 18.711000442504883,165.02099609375 C3.742000102996826,182.7969970703125 -26.19499969482422,203.37899780273438 -61.74700164794922,194.95899963378906 C-97.29900360107422,186.53900146484375 -116.94599914550781,130.40499877929688 -129.10899353027344,107.01599884033203 C-141.27099609375,83.62699890136719 -152.4969940185547,37.784000396728516 -152.4969940185547,37.784000396728516z"></path></g><g opacity="1" transform="matrix(1,0,0,1,203.33799743652344,232.3679962158203)"><path fill="url(#__lottie_element_14)" fill-opacity="1" d=" M-138.24000549316406,34.069000244140625 C-138.24000549316406,34.069000244140625 -156.7989959716797,-43.54100036621094 -135.70899963378906,-93.31300354003906 C-110.94599914550781,-151.75399780273438 -53.887001037597656,-183.38400268554688 27.94700050354004,-181.04600524902344 C116.52400207519531,-178.51499938964844 146.67599487304688,-125.00599670410156 151.73800659179688,-52.457000732421875 C156.7989959716797,20.091999053955078 66.052001953125,70.3280029296875 52.55500030517578,88.04299926757812 C39.05699920654297,105.75900268554688 23.02899932861328,133.5970001220703 9.531999588012695,149.625 C-3.9660000801086426,165.6540069580078 -24.356000900268555,183.38400268554688 -56.4119987487793,175.79200744628906 C-88.46800231933594,168.1999969482422 -106.18399810791016,117.58399963378906 -117.1500015258789,96.49500274658203 C-128.11700439453125,75.40499877929688 -138.24000549316406,34.069000244140625 -138.24000549316406,34.069000244140625z"></path></g></g><g style="display: block;" transform="matrix(0.9542476534843445,-0.2636500895023346,0.2636500895023346,0.9542476534843445,216.1775360107422,286.4134521484375)" opacity="1"><g opacity="1" transform="matrix(1,0,0,1,0,0)"><path stroke-linecap="round" stroke-linejoin="round" fill-opacity="0" stroke="rgb(183,99,57)" stroke-opacity="1" stroke-width="13" d="M0 0"></path></g></g><g style="display: block;" transform="matrix(0.9865668416023254,-0.08237616717815399,0.08237616717815399,0.9865668416023254,73.88267517089844,205.0351104736328)" opacity="1"><g opacity="1" transform="matrix(1,0,0,1,0,0)"><g opacity="1" transform="matrix(1,0,0,1,221.697998046875,79.5)"><path fill="rgb(241,152,99)" fill-opacity="0.72" d=" M-46.154998779296875,-48.84600067138672 C-46.154998779296875,-48.84600067138672 -53.63999938964844,-47.13199996948242 -56.54999923706055,-33.42100143432617 C-59.46099853515625,-19.709999084472656 -69.02400207519531,44.98899841308594 -7.485000133514404,47.13199996948242 C54.05500030517578,49.27399826049805 61.49399948120117,-4.633999824523926 64.44999694824219,-20.138999938964844 C69.02400207519531,-44.132999420166016 60.29199981689453,-48.417999267578125 53.222999572753906,-48.84600067138672 C46.15399932861328,-49.27399826049805 -37.42300033569336,-49.27299880981445 -37.42300033569336,-49.27299880981445 C-37.42300033569336,-49.27299880981445 -46.154998779296875,-48.84600067138672 -46.154998779296875,-48.84600067138672z"></path></g><g opacity="1" transform="matrix(1,0,0,1,219.14999389648438,82.47100067138672)"><path fill="rgb(237,128,64)" fill-opacity="1" d=" M-45.042999267578125,-20.391000747680664 C-35.47200012207031,-30.66900062561035 -0.6669999957084656,-44.44300079345703 22.826000213623047,-41.97600173950195 C54.20000076293945,-38.680999755859375 55.888999938964844,7.771999835968018 38.48699951171875,24.628999710083008 C24.677000045776367,38.005001068115234 -5.060999870300293,44.44200134277344 -25.465999603271484,31.413000106811523 C-49.611000061035156,15.994999885559082 -55.888999938964844,-8.744000434875488 -45.042999267578125,-20.391000747680664z"></path></g><g opacity="1" transform="matrix(1,0,0,1,224.29600524902344,36.047000885009766)"><path fill="rgb(127,127,127)" fill-opacity="1" d=" M-52.70399856567383,-1.2480000257492065 C-52.70399856567383,-1.2480000257492065 52.70399856567383,1.246999979019165 52.70399856567383,1.246999979019165 C52.70399856567383,1.246999979019165 19.023000717163086,-1.2480000257492065 -4.054999828338623,-1.2480000257492065 C-4.054999828338623,-1.2480000257492065 -52.70399856567383,-1.2480000257492065 -52.70399856567383,-1.2480000257492065z M-52.70399856567383,-1.246999979019165 C-52.70399856567383,-1.246999979019165 52.70399856567383,-1.246999979019165 52.70399856567383,-1.246999979019165 C52.70399856567383,-1.246999979019165 52.70399856567383,1.2480000257492065 52.70399856567383,1.2480000257492065 C52.70399856567383,1.2480000257492065 -52.70399856567383,1.2480000257492065 -52.70399856567383,1.2480000257492065 C-52.70399856567383,1.2480000257492065 -52.70399856567383,-1.246999979019165 -52.70399856567383,-1.246999979019165z"></path></g><g opacity="1" transform="matrix(1,0,0,1,217.9550018310547,80.49600219726562)"><path fill="rgb(175,224,224)" fill-opacity="1" d=" M-34.512001037597656,-21.9950008392334 C-25.36400032043457,-32.38999938964844 -13.305999755859375,-38.21099853515625 9.14799976348877,-35.71699905395508 C39.13399887084961,-32.3849983215332 44.90700149536133,1.7059999704360962 28.274999618530273,18.753999710083008 C15.07699966430664,32.28200149536133 -7.431000232696533,38.21099853515625 -27.44300079345703,25.822999954223633 C-44.90700149536133,15.01200008392334 -44.87799835205078,-10.215999603271484 -34.512001037597656,-21.9950008392334z"></path><path stroke-linecap="round" stroke-linejoin="round" fill-opacity="0" stroke="rgb(76,79,114)" stroke-opacity="1" stroke-width="11.447" d=" M-34.512001037597656,-21.9950008392334 C-25.36400032043457,-32.38999938964844 -13.305999755859375,-38.21099853515625 9.14799976348877,-35.71699905395508 C39.13399887084961,-32.3849983215332 44.90700149536133,1.7059999704360962 28.274999618530273,18.753999710083008 C15.07699966430664,32.28200149536133 -7.431000232696533,38.21099853515625 -27.44300079345703,25.822999954223633 C-44.90700149536133,15.01200008392334 -44.87799835205078,-10.215999603271484 -34.512001037597656,-21.9950008392334z"></path></g><g opacity="1" transform="matrix(1,0,0,1,212.98899841308594,79.08699798583984)"><path fill="rgb(255,255,255)" fill-opacity="1" d=" M-24.5049991607666,-15.989999771118164 C-18.010000228881836,-23.547000885009766 -9.447999954223633,-27.777999877929688 6.494999885559082,-25.964000701904297 C27.78700065612793,-23.54199981689453 31.886999130249023,1.2400000095367432 20.07699966430664,13.633000373840332 C10.706000328063965,23.466999053955078 -5.2769999504089355,27.777999877929688 -19.48699951171875,18.77199935913086 C-31.886999130249023,10.911999702453613 -31.864999771118164,-7.427000045776367 -24.5049991607666,-15.989999771118164z"></path></g><g opacity="1" transform="matrix(1.1200000047683716,0,0,1.1200000047683716,206.5050048828125,79.28700256347656)"><path fill="rgb(6,6,6)" fill-opacity="1" d=" M-8.253000259399414,-5.541999816894531 C-6.065000057220459,-8.16100025177002 -3.181999921798706,-9.626999855041504 2.187999963760376,-8.998000144958496 C9.359000205993652,-8.159000396728516 10.739999771118164,0.4300000071525574 6.76200008392334,4.72599983215332 C3.6059999465942383,8.133999824523926 -1.777999997138977,9.628000259399414 -6.564000129699707,6.506999969482422 C-10.739999771118164,3.7829999923706055 -10.732000350952148,-2.5739998817443848 -8.253000259399414,-5.541999816894531z"></path></g><g opacity="1" transform="matrix(1,0,0,1,216.8209991455078,75.03500366210938)"><path fill="rgb(255,255,255)" fill-opacity="1" d=" M-5.935999870300293,-2.0179998874664307 C-4.5879998207092285,-3.4670000076293945 -2.694999933242798,-4.416999816894531 1.031000018119812,-4.565999984741211 C6.00600004196167,-4.763999938964844 7.4629998207092285,-0.7319999933242798 4.985000133514404,1.6770000457763672 C3.0190000534057617,3.5889999866485596 -0.5899999737739563,4.763999938964844 -4.061999797821045,3.6589999198913574 C-7.0920000076293945,2.694999933242798 -7.4629998207092285,-0.37599998712539673 -5.935999870300293,-2.0179998874664307z"></path></g><g opacity="1" transform="matrix(1,0,0,1,224.29600524902344,36.047000885009766)"><path stroke-linecap="round" stroke-linejoin="round" fill-opacity="0" stroke="rgb(153,77,44)" stroke-opacity="1" stroke-width="13.92" d=" M-52.702999114990234,-1.2480000257492065 C-52.702999114990234,-1.2480000257492065 -4.054999828338623,-1.2480000257492065 -4.054999828338623,-1.2480000257492065 C19.023000717163086,-1.2480000257492065 52.702999114990234,1.2480000257492065 52.702999114990234,1.2480000257492065"></path></g></g><g opacity="1" transform="matrix(1,0,0,1,3.1439971923828125,-0.06400299072265625)"><g opacity="0.76" transform="matrix(1,0,0,1,81.63999938964844,80.91799926757812)"><path fill="rgb(241,152,100)" fill-opacity="1" d=" M-52.25299835205078,-32.3489990234375 C-52.733001708984375,-43.444000244140625 -41.03900146484375,-48.73500061035156 -30.297000885009766,-48.89799880981445 C-0.40799999237060547,-49.35100173950195 42.053001403808594,-55.18299865722656 50.83599853515625,-43.03300094604492 C52.733001708984375,-40.40700149536133 52.36899948120117,-34.01900100708008 52.11600112915039,-26.676000595092773 C51.32600021362305,-3.7100000381469727 42.32699966430664,33.237998962402344 10.477999687194824,41.810001373291016 C-39.20600128173828,55.18199920654297 -51.60200119018555,-1.9550000429153442 -52.25299835205078,-14.75100040435791 C-52.42599868774414,-18.149999618530273 -52.09199905395508,-28.631999969482422 -52.25299835205078,-32.3489990234375z"></path></g><g opacity="1" transform="matrix(1,0,0,1,80.38099670410156,80.11299896240234)"><path fill="rgb(237,128,64)" fill-opacity="1" d=" M-35.402000427246094,-29.097000122070312 C-26.381000518798828,-39.00400161743164 -3.5880000591278076,-42.83700180053711 18.555999755859375,-40.45899963378906 C48.12900161743164,-37.28300094604492 49.72100067138672,7.493000030517578 33.319000244140625,23.740999221801758 C20.30299949645996,36.63399887084961 -7.730000019073486,42.8380012512207 -26.961999893188477,30.280000686645508 C-49.72100067138672,15.418999671936035 -45.625,-17.8700008392334 -35.402000427246094,-29.097000122070312z"></path></g><g opacity="1" transform="matrix(1,0,0,1,82.3949966430664,37.25699996948242)"><path fill="rgb(127,127,127)" fill-opacity="1" d=" M-47.36199951171875,1.8849999904632568 C-47.36199951171875,1.8849999904632568 47.36199951171875,-1.2569999694824219 47.36199951171875,-1.2569999694824219 C47.36199951171875,-1.2569999694824219 32.30699920654297,-1.8860000371932983 15.369999885559082,-1.8860000371932983 C-1.5679999589920044,-1.8860000371932983 -47.36199951171875,1.8849999904632568 -47.36199951171875,1.8849999904632568z M-47.36199951171875,-1.8849999904632568 C-47.36199951171875,-1.8849999904632568 47.36199951171875,-1.8849999904632568 47.36199951171875,-1.8849999904632568 C47.36199951171875,-1.8849999904632568 47.36199951171875,1.8860000371932983 47.36199951171875,1.8860000371932983 C47.36199951171875,1.8860000371932983 -47.36199951171875,1.8860000371932983 -47.36199951171875,1.8860000371932983 C-47.36199951171875,1.8860000371932983 -47.36199951171875,-1.8849999904632568 -47.36199951171875,-1.8849999904632568z"></path></g><g opacity="1" transform="matrix(1,0,0,1,74.44499969482422,79.55400085449219)"><path fill="rgb(175,224,224)" fill-opacity="1" d=" M-21.847999572753906,-30.35700035095215 C-13.381999969482422,-35.869998931884766 0.8299999833106995,-41.28900146484375 15.791000366210938,-35.3849983215332 C36.492000579833984,-27.21500015258789 40.25600051879883,-9.616999626159668 33.983001708984375,8.609000205993652 C27.305999755859375,28.006999969482422 -9.928999900817871,41.28900146484375 -29.375999450683594,14.892999649047852 C-40.25600051879883,0.125 -34.39400100708008,-22.187000274658203 -21.847999572753906,-30.35700035095215z"></path><path stroke-linecap="round" stroke-linejoin="round" fill-opacity="0" stroke="rgb(76,79,114)" stroke-opacity="1" stroke-width="11.524" d=" M-21.847999572753906,-30.35700035095215 C-13.381999969482422,-35.869998931884766 0.8299999833106995,-41.28900146484375 15.791000366210938,-35.3849983215332 C36.492000579833984,-27.21500015258789 40.25600051879883,-9.616999626159668 33.983001708984375,8.609000205993652 C27.305999755859375,28.006999969482422 -9.928999900817871,41.28900146484375 -29.375999450683594,14.892999649047852 C-40.25600051879883,0.125 -34.39400100708008,-22.187000274658203 -21.847999572753906,-30.35700035095215z"></path></g><g opacity="1" transform="matrix(1,0,0,1,72.61199951171875,77.8479995727539)"><path fill="rgb(255,255,255)" fill-opacity="1" d=" M-15.048999786376953,-20.909000396728516 C-9.218000411987305,-24.70599937438965 0.5720000267028809,-28.43899917602539 10.87600040435791,-24.371999740600586 C25.135000228881836,-18.7450008392334 27.72800064086914,-6.624000072479248 23.406999588012695,5.928999900817871 C18.808000564575195,19.290000915527344 -6.839000225067139,28.43899917602539 -20.233999252319336,10.258000373840332 C-27.72800064086914,0.0860000029206276 -23.69099998474121,-15.281999588012695 -15.048999786376953,-20.909000396728516z"></path></g><g opacity="1" transform="matrix(1.100000023841858,0,0,1.100000023841858,67.37699890136719,76.63899993896484)"><path fill="rgb(6,6,6)" fill-opacity="1" d=" M-8.734000205993652,-5.459000110626221 C-6.419000148773193,-8.038999557495117 -3.367000102996826,-9.482999801635742 2.315999984741211,-8.86400032043457 C9.904999732971191,-8.036999702453613 11.366000175476074,0.4230000078678131 7.156000137329102,4.6539998054504395 C3.815999984741211,8.01099967956543 -1.88100004196167,9.482000350952148 -6.946000099182129,6.4079999923706055 C-11.366000175476074,3.7249999046325684 -11.357000350952148,-2.5360000133514404 -8.734000205993652,-5.459000110626221z"></path></g><g opacity="1" transform="matrix(1,0,0,1,78.32599639892578,72.7699966430664)"><path fill="rgb(255,255,255)" fill-opacity="1" d=" M-5.96999979019165,-2.0329999923706055 C-4.614999771118164,-3.493000030517578 -2.7100000381469727,-4.452000141143799 1.0369999408721924,-4.60099983215332 C6.040999889373779,-4.801000118255615 7.50600004196167,-0.7369999885559082 5.013999938964844,1.690999984741211 C3.0369999408721924,3.618000030517578 -0.5929999947547913,4.800000190734863 -4.085000038146973,3.687000036239624 C-7.131999969482422,2.7160000801086426 -7.50600004196167,-0.3779999911785126 -5.96999979019165,-2.0329999923706055z"></path></g><g opacity="1" transform="matrix(1,0,0,1,82.3949966430664,37.25699996948242)"><path stroke-linecap="round" stroke-linejoin="round" fill-opacity="0" stroke="rgb(153,77,44)" stroke-opacity="1" stroke-width="14.013" d=" M-47.36199951171875,1.8849999904632568 C-47.36199951171875,1.8849999904632568 -1.5679999589920044,-1.8849999904632568 15.369000434875488,-1.8849999904632568 C32.30699920654297,-1.8849999904632568 47.36199951171875,-1.2569999694824219 47.36199951171875,-1.2569999694824219"></path></g></g></g><g style="display: block;" transform="matrix(0.9691069722175598,-0.2023157775402069,0.2023157775402069,0.9691069722175598,213.76327514648438,289.24395751953125)" opacity="1"><g opacity="0" transform="matrix(1,0,0,1,0,0)"><path fill="rgb(255,210,179)" fill-opacity="1" d=" M112,-35.5 C99.5,-46 75.75800323486328,-43.57600021362305 64.41899871826172,-38.854000091552734 C58.62799835205078,-36.44300079345703 47.762001037597656,-28.340999603271484 46.21799850463867,-18.461000442504883 C43.71799850463867,-2.4609999656677246 47.301998138427734,-45.70199966430664 88.35800170898438,-41.762001037597656 C145.22000122070312,-36.30500030517578 115.70600128173828,20.07699966430664 121.70600128173828,3.5769999027252197 C126.40699768066406,-9.35200023651123 126.95099639892578,-22.94099998474121 112,-35.5z"></path><path stroke-linecap="butt" stroke-linejoin="miter" fill-opacity="0" stroke-miterlimit="4" stroke="rgb(183,99,57)" stroke-opacity="1" stroke-width="12" d=" M112,-35.5 C99.5,-46 75.75800323486328,-43.57600021362305 64.41899871826172,-38.854000091552734 C58.62799835205078,-36.44300079345703 47.762001037597656,-28.340999603271484 46.21799850463867,-18.461000442504883 C43.71799850463867,-2.4609999656677246 47.301998138427734,-45.70199966430664 88.35800170898438,-41.762001037597656 C145.22000122070312,-36.30500030517578 115.70600128173828,20.07699966430664 121.70600128173828,3.5769999027252197 C126.40699768066406,-9.35200023651123 126.95099639892578,-22.94099998474121 112,-35.5z"></path></g></g><g style="display: block;" transform="matrix(0.9224809408187866,-0.35934504866600037,0.35934504866600037,0.9224809408187866,193.8892364501953,307.961181640625)" opacity="1"><g opacity="0" transform="matrix(1,0,0,1,0,0)"><path fill="rgb(255,210,179)" fill-opacity="1" d=" M-0.5,-75.5 C-20,-85 -39.99100112915039,-79.25 -49.49100112915039,-68.25 C-54.9010009765625,-61.986000061035156 -58.91999816894531,-54.09700012207031 -57.4379997253418,-41.6870002746582 C-56.224998474121094,-31.534000396728516 -62.917999267578125,-85.05599975585938 -16.166000366210938,-77.84700012207031 C29.607999801635742,-70.78800201416016 11,-28.5 14,-36 C17,-43.5 20.020000457763672,-65.50299835205078 -0.5,-75.5z"></path><path stroke-linecap="butt" stroke-linejoin="miter" fill-opacity="0" stroke-miterlimit="4" stroke="rgb(183,99,57)" stroke-opacity="1" stroke-width="11" d=" M-0.5,-75.5 C-20,-85 -39.99100112915039,-79.25 -49.49100112915039,-68.25 C-54.9010009765625,-61.986000061035156 -58.91999816894531,-54.09700012207031 -57.4379997253418,-41.6870002746582 C-56.224998474121094,-31.534000396728516 -62.917999267578125,-85.05599975585938 -16.166000366210938,-77.84700012207031 C29.607999801635742,-70.78800201416016 11,-28.5 14,-36 C17,-43.5 20.020000457763672,-65.50299835205078 -0.5,-75.5z"></path></g></g><g style="display: block;" transform="matrix(0.9865668416023254,-0.08237616717815399,0.08237616717815399,0.9865668416023254,131.18801879882812,330.3368835449219)" opacity="1"><g opacity="1" transform="matrix(1,0,0,1,86.64099884033203,41.435001373291016)"><path fill="rgb(242,151,96)" fill-opacity="1" d=" M-61.058998107910156,3.690000057220459 C-50.95399856567383,-8.515999794006348 -34.1349983215332,-21.881999969482422 -3.365999937057495,-20.635000228881836 C27.40399932861328,-19.386999130249023 50.37699890136719,0.7789999842643738 54.95100021362305,3.690000057220459 C59.525001525878906,6.60099983215332 63.68299865722656,13.980999946594238 51.520999908447266,18.97100067138672 C45.840999603271484,21.301000595092773 23.350000381469727,4.936999797821045 1.312000036239624,3.690000057220459 C-20.72599983215332,2.443000078201294 -31.017000198364258,9.51099967956543 -38.91699981689453,14.916999816894531 C-46.81800079345703,20.32200050354004 -53.88600158691406,21.881999969482422 -60.12300109863281,15.541000366210938 C-63.68299865722656,11.92199993133545 -63.051998138427734,6.0970001220703125 -61.058998107910156,3.690000057220459z"></path></g><g opacity="1" transform="matrix(1,0,0,1,84.21099853515625,43.77399826049805)"><path stroke-linecap="round" stroke-linejoin="round" fill-opacity="0" stroke="rgb(183,99,57)" stroke-opacity="1" stroke-width="13.601" d=" M-50.20899963378906,9.147000312805176 C-50.20899963378906,9.147000312805176 -27.97800064086914,-4.7829999923706055 -7.73199987411499,-7.2769999504089355 C12.513999938964844,-9.772000312805176 23.430999755859375,-1.6640000343322754 34.74399948120117,2.7019999027252197 C40.99100112915039,5.11299991607666 50.20899963378906,9.770999908447266 50.20899963378906,9.770999908447266"></path></g></g><g style="display: none;"><g><g><path></path><path stroke-linecap="butt" stroke-linejoin="miter" fill-opacity="0" stroke-miterlimit="10"></path></g><g><path></path></g><g><path></path></g><g><path stroke-linecap="round" stroke-linejoin="round" fill-opacity="0"></path></g><g><path></path></g><g><path stroke-linecap="round" stroke-linejoin="round" fill-opacity="0"></path></g><g><path></path></g><g><path stroke-linecap="round" stroke-linejoin="round" fill-opacity="0"></path></g><g><path></path></g><g><path stroke-linecap="round" stroke-linejoin="round" fill-opacity="0"></path></g><g><path stroke-linecap="round" stroke-linejoin="round" fill-opacity="0"></path></g><g><path></path></g><g><path stroke-linecap="round" stroke-linejoin="round" fill-opacity="0"></path></g></g></g><g style="display: none;"><g><path></path><path stroke-linecap="butt" stroke-linejoin="miter" fill-opacity="0" stroke-miterlimit="4"></path></g></g><g style="display: none;"><g><path></path></g><g><path stroke-linecap="round" stroke-linejoin="round" fill-opacity="0"></path></g></g><g style="display: block;" transform="matrix(0.9963498115539551,-0.21729405224323273,0.21937398612499237,1.0058867931365967,260.3473205566406,279.7083740234375)" opacity="1"><g opacity="0" transform="matrix(1,0,0,1,0,0)"><path fill="url(#__lottie_element_25)" fill-opacity="1" d=" M55.78499984741211,26.12299919128418 C55.78499984741211,26.12299919128418 26.743999481201172,35.229000091552734 13.6899995803833,46.99300003051758 C1.9079999923706055,57.611000061035156 4.0879998207092285,72.65899658203125 9.088000297546387,88.65899658203125 C14.088000297546387,104.65899658203125 26.225000381469727,92.36100006103516 33.224998474121094,86.36100006103516 C40.224998474121094,80.36100006103516 55.2130012512207,68.74500274658203 62.2130012512207,63.744998931884766 C69.21299743652344,58.744998931884766 75.98100280761719,34.28499984741211 71.98100280761719,28.28499984741211 C67.98100280761719,22.28499984741211 55.78499984741211,26.12299919128418 55.78499984741211,26.12299919128418z"></path></g><g opacity="1" transform="matrix(1,0,0,1,0,0)"><path stroke-linecap="round" stroke-linejoin="round" fill-opacity="0" stroke="rgb(183,99,57)" stroke-opacity="0" stroke-width="13" d=" M-0.052000001072883606,50.987998962402344 C-0.5830000042915344,52.882999420166016 -1.093999981880188,54.779998779296875 -1.5859999656677246,56.69200134277344"></path></g></g><g style="display: none;"><g><path fill="url(#__lottie_element_21)"></path></g><g><path stroke-linecap="round" stroke-linejoin="round" fill-opacity="0"></path></g><g><path stroke-linecap="round" stroke-linejoin="round" fill-opacity="0"></path></g></g><g style="display: block;" transform="matrix(0.9579710364341736,-0.2497827559709549,0.2497827559709549,0.9579710364341736,207.00180053710938,286.2679138183594)" opacity="1"><g opacity="1" transform="matrix(1,0,0,1,0,0)"><path fill="url(#__lottie_element_17)" fill-opacity="0" d=" M185.41799926757812,-131.7169952392578 C185.41799926757812,-131.7169952392578 150.45599365234375,-131.7760009765625 146.95599365234375,-130.7760009765625 C143.45599365234375,-129.7760009765625 145.38600158691406,-122.86399841308594 141.906005859375,-117.40599822998047 C137.656005859375,-110.73999786376953 136.41799926757812,-104.21700286865234 136.41799926757812,-104.21700286865234 C136.41799926757812,-104.21700286865234 136.06100463867188,-98.90499877929688 136.87600708007812,-95.10299682617188 C139.20199584960938,-84.24800109863281 136.16799926757812,-80.75900268554688 140.66799926757812,-77.25900268554688 C145.16799926757812,-73.75900268554688 149.3090057373047,-68.38500213623047 174.99899291992188,-60.077999114990234 C189.6179962158203,-55.35100173950195 192.156005859375,-71.29199981689453 192.156005859375,-71.29199981689453 C192.156005859375,-71.29199981689453 195.33599853515625,-79.76399993896484 195.08599853515625,-91.18499755859375 C194.64100646972656,-111.56500244140625 185.41799926757812,-131.7169952392578 185.41799926757812,-131.7169952392578z"></path></g><g opacity="1" transform="matrix(1,0,0,1,0,0)"><path stroke-linecap="round" stroke-linejoin="round" fill-opacity="0" stroke="rgb(183,99,57)" stroke-opacity="0" stroke-width="13" d=" M125.73500061035156,-74.00800323486328 C126.04900360107422,-73.50900268554688 126.36699676513672,-73.03399658203125 126.69300079345703,-72.57499694824219"></path></g></g></g></svg>