<svg xmlns="http://www.w3.org/2000/svg" xmlns:xlink="http://www.w3.org/1999/xlink" viewBox="0 0 512 512" width="512" height="512" style="width: 100%; height: 100%; transform: translate3d(0,0,0); content-visibility: visible;" preserveAspectRatio="xMidYMid meet"><defs><clipPath id="__lottie_element_2"><rect width="512" height="512" x="0" y="0"></rect></clipPath><clipPath id="__lottie_element_7"><path d="M0,0 L512,0 L512,512 L0,512z"></path></clipPath><radialGradient id="__lottie_element_32" spreadMethod="pad" gradientUnits="userSpaceOnUse"><stop></stop><stop></stop><stop></stop></radialGradient><radialGradient id="__lottie_element_33" spreadMethod="pad" gradientUnits="userSpaceOnUse"><stop></stop><stop></stop><stop></stop></radialGradient><clipPath id="__lottie_element_60"><path d="M0,0 L512,0 L512,512 L0,512z"></path></clipPath><radialGradient id="__lottie_element_85" spreadMethod="pad" gradientUnits="userSpaceOnUse" cx="-13.911999702453613" cy="-92.21600341796875" r="195.4406573056915" fx="-13.911999702453613" fy="-92.21600341796875"><stop offset="12%" stop-color="rgb(236,199,159)"></stop><stop offset="50%" stop-color="rgb(236,177,135)"></stop><stop offset="100%" stop-color="rgb(236,156,111)"></stop></radialGradient><radialGradient id="__lottie_element_86" spreadMethod="pad" gradientUnits="userSpaceOnUse" cx="-13.911999702453613" cy="-92.21600341796875" r="195.4406573056915" fx="-13.911999702453613" fy="-92.21600341796875"><stop offset="12%" stop-color="rgb(255,239,223)"></stop><stop offset="50%" stop-color="rgb(252,211,184)"></stop><stop offset="100%" stop-color="rgb(250,182,145)"></stop></radialGradient></defs><g clip-path="url(#__lottie_element_2)"><g clip-path="url(#__lottie_element_60)" style="display: block;" transform="matrix(0.9335899949073792,0,0,0.9335899949073792,17.000961303710938,17.000961303710938)" opacity="1"><g style="display: block;" transform="matrix(1.4804600477218628,0,0,1.4600999355316162,-123.9368896484375,33.558929443359375)" opacity="1"><g opacity="1" transform="matrix(1,0,0,1,275.58099365234375,159.90699768066406)"><path fill="url(#__lottie_element_85)" fill-opacity="1" d=" M21.48200035095215,-142.25 C-9.637999534606934,-144.51800537109375 -44.4640007019043,-144.09300231933594 -103.10199737548828,-97.55400085449219 C-123.36599731445312,-81.47100067138672 -154.593994140625,-58.356998443603516 -162.29100036621094,-8.211999893188477 C-170.697998046875,46.55699920654297 -138.91799926757812,103.8280029296875 -58.48400115966797,130.83399963378906 C-36.83100128173828,138.10400390625 6.97599983215332,141.04800415039062 40.23899841308594,129.5030059814453 C101.52899932861328,108.2300033569336 130.04100036621094,73.24800109863281 131.3730010986328,21.871999740600586 C132.22799682617188,-11.08899974822998 129.24899291992188,-68.14700317382812 100.62799835205078,-100.6969985961914 C81,-120.2509994506836 65.81800079345703,-139.01800537109375 21.48200035095215,-142.25z"></path><path stroke-linecap="butt" stroke-linejoin="miter" fill-opacity="0" stroke-miterlimit="10" stroke="rgb(187,99,50)" stroke-opacity="1" stroke-width="13" d=" M21.48200035095215,-142.25 C-9.637999534606934,-144.51800537109375 -44.4640007019043,-144.09300231933594 -103.10199737548828,-97.55400085449219 C-123.36599731445312,-81.47100067138672 -154.593994140625,-58.356998443603516 -162.29100036621094,-8.211999893188477 C-170.697998046875,46.55699920654297 -138.91799926757812,103.8280029296875 -58.48400115966797,130.83399963378906 C-36.83100128173828,138.10400390625 6.97599983215332,141.04800415039062 40.23899841308594,129.5030059814453 C101.52899932861328,108.2300033569336 130.04100036621094,73.24800109863281 131.3730010986328,21.871999740600586 C132.22799682617188,-11.08899974822998 129.24899291992188,-68.14700317382812 100.62799835205078,-100.6969985961914 C81,-120.2509994506836 65.81800079345703,-139.01800537109375 21.48200035095215,-142.25z"></path></g><g opacity="1" transform="matrix(0.8873199820518494,0,0,0.8929399847984314,281.0769958496094,154.81300354003906)"><path fill="url(#__lottie_element_86)" fill-opacity="1" d=" M21.48200035095215,-142.25 C-9.637999534606934,-144.51800537109375 -44.4640007019043,-144.09300231933594 -103.10199737548828,-97.55400085449219 C-123.36599731445312,-81.47100067138672 -154.593994140625,-58.356998443603516 -162.29100036621094,-8.211999893188477 C-170.697998046875,46.55699920654297 -149.75599670410156,81.85700225830078 -69.3219985961914,108.86299896240234 C-47.66899871826172,116.13300323486328 11.218999862670898,122.23899841308594 44.88399887084961,111.9260025024414 C92.14700317382812,97.4469985961914 118.46600341796875,81.33499908447266 131.3730010986328,21.871999740600586 C138.36700439453125,-10.350000381469727 129.24899291992188,-68.14700317382812 100.62799835205078,-100.6969985961914 C81,-120.2509994506836 65.81800079345703,-139.01800537109375 21.48200035095215,-142.25z"></path></g></g><g style="display: block;" transform="matrix(1.1316410303115845,0.022262092679739,-0.022262092679739,1.1316410303115845,-18.154205322265625,50.43804931640625)" opacity="1"><g opacity="1" transform="matrix(1,0,0,1,457.5270080566406,470.1549987792969)"><path stroke-linecap="round" stroke-linejoin="round" fill-opacity="0" stroke="rgb(95,35,26)" stroke-opacity="1" stroke-width="8.56" d=" M8.53499984741211,-29.799999237060547 C8.53499984741211,-29.799999237060547 -2.380000114440918,-16.02400016784668 -5.458000183105469,-3.36899995803833 C-8.53600025177002,9.28499984741211 -6.49399995803833,29.799999237060547 -6.49399995803833,29.799999237060547"></path></g><g opacity="1" transform="matrix(1,0,0,1,469.9490051269531,471.4490051269531)"><path stroke-linecap="round" stroke-linejoin="round" fill-opacity="0" stroke="rgb(95,35,26)" stroke-opacity="1" stroke-width="8.56" d=" M-0.2590000033378601,-30.57699966430664 C-0.2590000033378601,-30.57699966430664 2.3320000171661377,-14.51099967956543 1.812999963760376,1.0369999408721924 C1.3300000429153442,15.548999786376953 -2.3320000171661377,30.57699966430664 -2.3320000171661377,30.57699966430664"></path></g><g opacity="1" transform="matrix(1,0,0,1,477.98199462890625,466.18798828125)"><path stroke-linecap="round" stroke-linejoin="round" fill-opacity="0" stroke="rgb(95,35,26)" stroke-opacity="1" stroke-width="8.56" d=" M9.305000305175781,29.805999755859375 C9.305000305175781,29.805999755859375 12.784000396728516,14.152999877929688 7.25600004196167,-5.620999813079834 C2.7639999389648438,-21.687000274658203 -12.784000396728516,-29.805999755859375 -12.784000396728516,-29.805999755859375"></path></g></g><g style="display: block;" transform="matrix(1.4268673658370972,0,0,1.3897961378097534,-93.6839599609375,47.793365478515625)" opacity="1"><g opacity="1" transform="matrix(1,0,0,1,0,0)"><path fill="rgb(187,92,39)" fill-opacity="0.45" d=" M340.09600830078125,102.91200256347656 C300.7239990234375,95.25499725341797 238.5489959716797,107.58200073242188 223.4530029296875,117.05699920654297 C209.53700256347656,125.79199981689453 308.114990234375,107.57099914550781 337.36700439453125,118.00900268554688 C366.6189880371094,128.44700622558594 377.906005859375,156.7100067138672 377.906005859375,156.7100067138672 C377.906005859375,156.7100067138672 395.73699951171875,113.73300170898438 340.09600830078125,102.91200256347656z"></path></g><g opacity="1" transform="matrix(1,0,0,1,-4.37298583984375,4.4219970703125)"><g opacity="1" transform="matrix(1,0,0,1,318.2770080566406,136.69500732421875)"><path stroke-linecap="round" stroke-linejoin="round" fill-opacity="0" stroke="rgb(188,99,51)" stroke-opacity="0.49" stroke-width="12" d=" M-39.90599822998047,10.206999778747559 C-39.90599822998047,10.206999778747559 -8.45199966430664,-1.7020000219345093 10.958999633789062,2.246000051498413 C31.19700050354004,6.36299991607666 36.125,20.118999481201172 36.125,20.118999481201172"></path></g><g opacity="1" transform="matrix(1,0,0,1,214.8520050048828,120.97100067138672)"><path stroke-linecap="round" stroke-linejoin="round" fill-opacity="0" stroke="rgb(188,99,51)" stroke-opacity="0.67" stroke-width="10" d=" M-6.02400016784668,-13.182000160217285 C-6.02400016784668,-13.182000160217285 -13.342000007629395,-0.367000013589859 -8.619000434875488,7.426000118255615 C-2.0490000247955322,18.267000198364258 11.539999961853027,17.23900032043457 11.539999961853027,17.23900032043457"></path></g><g opacity="1" transform="matrix(1,0,0,1,310.0539855957031,131.60800170898438)"><path stroke-linecap="round" stroke-linejoin="round" fill-opacity="0" stroke="rgb(115,50,0)" stroke-opacity="1" stroke-width="12" d=" M82.697998046875,30.64900016784668 C82.697998046875,30.64900016784668 78.14099884033203,29.017000198364258 73.69400024414062,26.42300033569336 C69.24700164794922,23.82900047302246 67.02400207519531,13.822999954223633 65.1709976196289,6.040999889373779 C63.31800079345703,-1.7430000305175781 60.35300064086914,-15.824999809265137 27.740999221801758,-23.23699951171875 C-4.872000217437744,-30.64900016784668 -82.6969985961914,-15.083000183105469 -82.6969985961914,-15.083000183105469"></path></g></g></g><g style="display: block;" transform="matrix(1.3840895891189575,-0.0007529378053732216,0.0007729896460659802,1.348074197769165,-82.12245178222656,48.15388870239258)" opacity="1"><g opacity="0.53" transform="matrix(1,0,0,1,329.6960144042969,50.21200180053711)"><path stroke-linecap="round" stroke-linejoin="round" fill-opacity="0" stroke="rgb(201,98,46)" stroke-opacity="0.79" stroke-width="9" d=" M-7.382999897003174,-27.86199951171875 C-2.502000093460083,-21.322999954223633 3.7019999027252197,-21.947999954223633 2.6089999675750732,-14.322999954223633 C3.3410000801086426,-6.994999885559082 -2.072000026702881,3.0859999656677246 -2.072000026702881,3.0859999656677246"></path></g></g><g style="display: block;" transform="matrix(1.3840895891189575,-0.0007529378053732216,0.0007729896460659802,1.348074197769165,-82.14422607421875,48.241153717041016)" opacity="1"><g opacity="1" transform="matrix(1,0,0,1,380.3169860839844,77.76799774169922)"><path fill="rgb(192,207,229)" fill-opacity="1" d=" M-40.94900131225586,-22.974000930786133 C-45.297000885009766,-18.040000915527344 -42.152000427246094,-4.291999816894531 -36.92399978637695,4.639999866485596 C-27.309999465942383,20.263999938964844 -13.345000267028809,27.106000900268555 0.6330000162124634,30.517000198364258 C7.916999816894531,32.29499816894531 22.326000213623047,30.753000259399414 26.15399932861328,24.50200080871582 C26.982999801635742,24.06100082397461 31.840999603271484,13.888999938964844 26.849000930786133,6.752999782562256 C21.538000106811523,-0.8109999895095825 1.9470000267028809,-6.090000152587891 -7.318999767303467,-11.555999755859375 C-18.878000259399414,-18.45400047302246 -35.369998931884766,-29.19700050354004 -40.94900131225586,-22.974000930786133z"></path><path stroke-linecap="round" stroke-linejoin="round" fill-opacity="0" stroke="rgb(87,33,13)" stroke-opacity="1" stroke-width="9" d=" M-40.94900131225586,-22.974000930786133 C-45.297000885009766,-18.040000915527344 -42.152000427246094,-4.291999816894531 -36.92399978637695,4.639999866485596 C-27.309999465942383,20.263999938964844 -13.345000267028809,27.106000900268555 0.6330000162124634,30.517000198364258 C7.916999816894531,32.29499816894531 22.326000213623047,30.753000259399414 26.15399932861328,24.50200080871582 C26.982999801635742,24.06100082397461 31.840999603271484,13.888999938964844 26.849000930786133,6.752999782562256 C21.538000106811523,-0.8109999895095825 1.9470000267028809,-6.090000152587891 -7.318999767303467,-11.555999755859375 C-18.878000259399414,-18.45400047302246 -35.369998931884766,-29.19700050354004 -40.94900131225586,-22.974000930786133z"></path></g><g opacity="1" transform="matrix(0.7799999713897705,0,0,0.7799999713897705,380.3169860839844,77.76799774169922)"><path fill="rgb(255,255,255)" fill-opacity="1" d=" M-37.79100036621094,-21.8799991607666 C-42.138999938964844,-16.945999145507812 -39.270999908447266,-7.745999813079834 -35.527000427246094,-0.9129999876022339 C-27.889999389648438,16.059999465942383 -12.413999557495117,24.79199981689453 1.5640000104904175,28.202999114990234 C8.847999572753906,29.981000900268555 22.12299919128418,31.565000534057617 28.31800079345703,24.474000930786133 C29.14699935913086,24.033000946044922 35.983001708984375,18.969999313354492 30.990999221801758,11.833999633789062 C25.68000030517578,4.269999980926514 1.9470000267028809,-6.090000152587891 -7.318999767303467,-11.555999755859375 C-18.878000259399414,-18.45400047302246 -32.21200180053711,-28.10300064086914 -37.79100036621094,-21.8799991607666z"></path></g><g opacity="1" transform="matrix(1.35636568069458,0,0,1.2161465883255005,-169.7935791015625,-27.545074462890625)"><g opacity="1" transform="matrix(1,0,0,1,393.9599914550781,85.33699798583984)"><path fill="rgb(14,19,45)" fill-opacity="1" d=" M10.309000015258789,4.364999771118164 C7.923999786376953,9.996000289916992 1.3760000467300415,12.607000350952148 -4.316999912261963,10.196999549865723 C-10.010000228881836,7.7870001792907715 -12.692999839782715,1.2669999599456787 -10.307999610900879,-4.36299991607666 C-7.923999786376953,-9.994000434875488 -1.3769999742507935,-12.605999946594238 4.316999912261963,-10.194999694824219 C10.010000228881836,-7.783999919891357 12.692999839782715,-1.2669999599456787 10.309000015258789,4.364999771118164z"></path></g></g><g opacity="1" transform="matrix(1.3892699480056763,0,0,1.1102399826049805,-181.28668212890625,-18.8365478515625)"><g opacity="1" transform="matrix(1,0,0,1,393.9599914550781,85.33699798583984)"><path fill="rgb(255,255,255)" fill-opacity="1" d=" M18.20635223388672,4.837470531463623 C15.8213529586792,10.468470573425293 15.117706298828125,8.973529815673828 9.424705505371094,6.5635294914245605 C3.731705904006958,4.153529644012451 1.2995882034301758,1.6810587644577026 3.752176523208618,-2.7095882892608643 C5.815587997436523,-6.376176357269287 8.233705520629883,-3.407470703125 13.927705764770508,-0.99647057056427 C19.62070655822754,1.4145294427871704 20.59035301208496,-0.7945294380187988 18.20635223388672,4.837470531463623z"></path></g></g></g><g style="display: block;" transform="matrix(1.3840895891189575,-0.0007529378053732216,0.0007729896460659802,1.348074197769165,-82.12245178222656,48.15388870239258)" opacity="1"><g opacity="1" transform="matrix(1,0,0,1,253.5959930419922,53.97700119018555)"><path fill="rgb(192,206,229)" fill-opacity="1" d=" M-68.4020004272461,-3.6519999504089355 C-70.23100280761719,-1.4010000228881836 -61.362998962402344,16.117000579833984 -44.73699951171875,26.489999771118164 C-38.48500061035156,30.389999389648438 -23.9689998626709,39.23400115966797 8.310999870300293,36.05799865722656 C33.27399826049805,33.60200119018555 48.17599868774414,18.1200008392334 51.32699966430664,9.850000381469727 C53.11399841308594,5.1579999923706055 56.41600036621094,-6.813000202178955 51.582000732421875,-9.70300006866455 C45.255001068115234,-13.486000061035156 30.700000762939453,-6.318999767303467 14.371000289916992,-6.784999847412109 C0.7670000195503235,-7.172999858856201 -7.738999843597412,-12.982999801635742 -29.4689998626709,-9.586000442504883 C-34.79199981689453,-8.753999710083008 -66.73699951171875,-5.699999809265137 -68.4020004272461,-3.6519999504089355z"></path><path stroke-linecap="butt" stroke-linejoin="miter" fill-opacity="0" stroke-miterlimit="10" stroke="rgb(86,32,13)" stroke-opacity="1" stroke-width="10" d=" M-68.4020004272461,-3.6519999504089355 C-70.23100280761719,-1.4010000228881836 -61.362998962402344,16.117000579833984 -44.73699951171875,26.489999771118164 C-38.48500061035156,30.389999389648438 -23.9689998626709,39.23400115966797 8.310999870300293,36.05799865722656 C33.27399826049805,33.60200119018555 48.17599868774414,18.1200008392334 51.32699966430664,9.850000381469727 C53.11399841308594,5.1579999923706055 56.41600036621094,-6.813000202178955 51.582000732421875,-9.70300006866455 C45.255001068115234,-13.486000061035156 30.700000762939453,-6.318999767303467 14.371000289916992,-6.784999847412109 C0.7670000195503235,-7.172999858856201 -7.738999843597412,-12.982999801635742 -29.4689998626709,-9.586000442504883 C-34.79199981689453,-8.753999710083008 -66.73699951171875,-5.699999809265137 -68.4020004272461,-3.6519999504089355z"></path></g><g opacity="1" transform="matrix(0.7932400107383728,0,0,0.75,252.56500244140625,54.14400100708008)"><path fill="rgb(255,255,255)" fill-opacity="1" d=" M-59.1431999206543,-0.31235000491142273 C-60.972198486328125,1.9386500120162964 -52.587249755859375,15.883000373840332 -46.52035140991211,20.644899368286133 C-40.55324935913086,27.70305061340332 -31.306900024414062,36.835601806640625 1.0850499868392944,36.36520004272461 C38.25455093383789,35.86064910888672 50.457298278808594,15.697699546813965 53.608299255371094,7.427700042724609 C55.395301818847656,2.7356998920440674 59.31644821166992,1.101699948310852 48.89884948730469,-2.1275999546051025 C41.9099006652832,-4.276549816131592 31.834550857543945,-4.890049934387207 15.505550384521484,-5.35605001449585 C1.901550054550171,-5.744050025939941 -14.672650337219238,-9.21714973449707 -36.84545135498047,-7.057650089263916 C-42.196800231933594,-6.531199932098389 -57.47819900512695,-2.3603498935699463 -59.1431999206543,-0.31235000491142273z"></path></g><g opacity="1" transform="matrix(1.4158726930618286,0,0,1.1118332147598267,-152.80079650878906,4.847999572753906)"><g opacity="1" transform="matrix(1,0,0,1,278.3810119628906,59.03799819946289)"><path fill="rgb(13,18,44)" fill-opacity="1" d=" M9.525480270385742,-9.717840194702148 C9.525480270385742,-1.555840015411377 3.9884800910949707,5.060279846191406 -2.841520071029663,5.060279846191406 C-9.67251968383789,5.060279846191406 -15.20851993560791,-1.555840015411377 -15.20851993560791,-9.717840194702148 C-15.20851993560791,-17.879840850830078 -10.465920448303223,-23.758520126342773 -3.638439893722534,-23.54907989501953 C4.095320224761963,-23.307960510253906 9.525480270385742,-17.879840850830078 9.525480270385742,-9.717840194702148z"></path></g></g><g opacity="1" transform="matrix(1.4158726930618286,0,0,1.1118332147598267,-152.80079650878906,4.847999572753906)"><g opacity="1" transform="matrix(1,0,0,1,278.3810119628906,59.03799819946289)"><path fill="rgb(255,255,255)" fill-opacity="1" d=" M21.06599998474121,-14.736000061035156 C21.23699951171875,-10.711999893188477 16.67876434326172,-8.804705619812012 14.931764602661133,-8.453705787658691 C13.199764251708984,-8.105706214904785 4.51411771774292,-5.547470569610596 4.704999923706055,-11.65817642211914 C4.681941032409668,-17.614294052124023 6.521176338195801,-14.416411399841309 12.913176536560059,-19.144411087036133 C18.404176712036133,-23.205411911010742 20.719999313354492,-22.891000747680664 21.06599998474121,-14.736000061035156z"></path></g></g></g><g style="display: block;" transform="matrix(1.0123167037963867,-0.057317186146974564,0.052816037088632584,0.8849053978919983,280.9642333984375,170.801025390625)" opacity="1"><g opacity="1" transform="matrix(1,0,0,1,0,0)"><path fill="rgb(250,219,195)" fill-opacity="1" d=" M-2.878000020980835,-121.85199737548828 C-58.44900131225586,-124.71099853515625 -88.29499816894531,-91.15899658203125 -98.6500015258789,-76.4260025024414 C-101.52899932861328,-72.33000183105469 -102.9010009765625,-69.68800354003906 -102.9010009765625,-69.68800354003906 C-102.9010009765625,-69.68800354003906 -33.57600021362305,-66.6760025024414 -18.61199951171875,-65.64099884033203 C9.097999572753906,-63.724998474121094 26.514999389648438,-61.39099884033203 38.665000915527344,-60.069000244140625 C58.21900177001953,-57.94200134277344 64.29100036621094,-56.64699935913086 64.29100036621094,-64.0479965209961 C64.29100036621094,-76.0479965209961 57.05099868774414,-118.76899719238281 -2.878000020980835,-121.85199737548828z"></path><path stroke-linecap="round" stroke-linejoin="round" fill-opacity="0" stroke="rgb(188,99,51)" stroke-opacity="1" stroke-width="14" d=" M-2.878000020980835,-121.85199737548828 C-58.44900131225586,-124.71099853515625 -88.29499816894531,-91.15899658203125 -98.6500015258789,-76.4260025024414 C-101.52899932861328,-72.33000183105469 -102.9010009765625,-69.68800354003906 -102.9010009765625,-69.68800354003906 C-102.9010009765625,-69.68800354003906 -33.57600021362305,-66.6760025024414 -18.61199951171875,-65.64099884033203 C9.097999572753906,-63.724998474121094 26.514999389648438,-61.39099884033203 38.665000915527344,-60.069000244140625 C58.21900177001953,-57.94200134277344 64.29100036621094,-56.64699935913086 64.29100036621094,-64.0479965209961 C64.29100036621094,-76.0479965209961 57.05099868774414,-118.76899719238281 -2.878000020980835,-121.85199737548828z"></path></g></g><g style="display: block;" transform="matrix(1.0123167037963867,-0.057317186146974564,0.052816037088632584,0.8849053978919983,276.2347412109375,178.5369110107422)" opacity="1"><g opacity="1" transform="matrix(1,0,0,1,0,0)"><path fill="rgb(250,219,195)" fill-opacity="1" d=" M180.63800048828125,-78.84300231933594 C165.10400390625,-91.67500305175781 150.03500366210938,-92.7750015258789 134.08200073242188,-88.11299896240234 C125.36299896240234,-85.56500244140625 118.8219985961914,-74.8270034790039 115.38099670410156,-67.81999969482422 C113.60900115966797,-64.21099853515625 112.65899658203125,-61.590999603271484 112.65899658203125,-61.590999603271484 C112.65899658203125,-61.590999603271484 154.66900634765625,-38.902000427246094 166.73800659179688,-27.26300048828125 C197.21499633789062,2.128999948501587 207.0449981689453,10.895999908447266 207.0449981689453,10.895999908447266 C207.0449981689453,10.895999908447266 212.63400268554688,-52.41299819946289 180.63800048828125,-78.84300231933594z"></path><path stroke-linecap="butt" stroke-linejoin="round" fill-opacity="0" stroke="rgb(188,99,51)" stroke-opacity="1" stroke-width="14" d=" M180.63800048828125,-78.84300231933594 C165.10400390625,-91.67500305175781 150.03500366210938,-92.7750015258789 134.08200073242188,-88.11299896240234 C125.36299896240234,-85.56500244140625 118.8219985961914,-74.8270034790039 115.38099670410156,-67.81999969482422 C113.60900115966797,-64.21099853515625 112.65899658203125,-61.590999603271484 112.65899658203125,-61.590999603271484 C112.65899658203125,-61.590999603271484 154.66900634765625,-38.902000427246094 166.73800659179688,-27.26300048828125 C197.21499633789062,2.128999948501587 207.0449981689453,10.895999908447266 207.0449981689453,10.895999908447266 C207.0449981689453,10.895999908447266 212.63400268554688,-52.41299819946289 180.63800048828125,-78.84300231933594z"></path></g></g><g style="display: block;" transform="matrix(1.3816262483596802,0.017028558999300003,-0.01754310540854931,1.3502579927444458,-80.65806579589844,19.055021286010742)" opacity="1"><g opacity="1" transform="matrix(1,0,0,1,277.1610107421875,32.97200012207031)"><path fill="rgb(69,28,22)" fill-opacity="1" d=" M43.266998291015625,16.874000549316406 C35.7239990234375,15.303000450134277 29.61400032043457,12.437999725341797 9.246999740600586,0.2759999930858612 C-2.382999897003174,-6.669000148773193 -14.92199993133545,-12.170999526977539 -36.09299850463867,-15.663000106811523 C-50.13100051879883,-17.97800064086914 -75.31900024414062,-10.15999984741211 -75.31900024414062,-10.15999984741211 C-75.31900024414062,-10.15999984741211 -77.68699645996094,-13.640999794006348 -74.1989974975586,-15.586000442504883 C-67.49299621582031,-19.325000762939453 -43.875999450683594,-25.636999130249023 -36.8650016784668,-25.500999450683594 C-21.430999755859375,-25.201000213623047 -9.303999900817871,-18.457000732421875 -0.5429999828338623,-16.823999404907227 C14.4399995803833,-14.031999588012695 35.04800033569336,-7.288000106811523 41.486000061035156,-3.2149999141693115 C47.922000885009766,0.8569999933242798 49.56399917602539,3.4489998817443848 49.12300109863281,8.454999923706055 C48.56999969482422,14.729000091552734 45.07500076293945,17.250999450683594 43.266998291015625,16.874000549316406z"></path><path stroke-linecap="round" stroke-linejoin="round" fill-opacity="0" stroke="rgb(40,10,10)" stroke-opacity="1" stroke-width="7" d=" M43.266998291015625,16.874000549316406 C35.7239990234375,15.303000450134277 29.61400032043457,12.437999725341797 9.246999740600586,0.2759999930858612 C-2.382999897003174,-6.669000148773193 -14.92199993133545,-12.170999526977539 -36.09299850463867,-15.663000106811523 C-50.13100051879883,-17.97800064086914 -75.31900024414062,-10.15999984741211 -75.31900024414062,-10.15999984741211 C-75.31900024414062,-10.15999984741211 -77.68699645996094,-13.640999794006348 -74.1989974975586,-15.586000442504883 C-67.49299621582031,-19.325000762939453 -43.875999450683594,-25.636999130249023 -36.8650016784668,-25.500999450683594 C-21.430999755859375,-25.201000213623047 -9.303999900817871,-18.457000732421875 -0.5429999828338623,-16.823999404907227 C14.4399995803833,-14.031999588012695 35.04800033569336,-7.288000106811523 41.486000061035156,-3.2149999141693115 C47.922000885009766,0.8569999933242798 49.56399917602539,3.4489998817443848 49.12300109863281,8.454999923706055 C48.56999969482422,14.729000091552734 45.07500076293945,17.250999450683594 43.266998291015625,16.874000549316406z"></path></g></g><g style="display: block;" transform="matrix(1.3816262483596802,0.017028558999300003,-0.01754310540854931,1.3502579927444458,-80.07347106933594,17.49609375)" opacity="1"><g opacity="1" transform="matrix(1,0,0,1,374.6440124511719,50.250999450683594)"><path fill="rgb(68,28,21)" fill-opacity="1" d=" M-31.290000915527344,-9.309000015258789 C-24.458999633789062,-14.371000289916992 -18.19499969482422,-15.032999992370605 -2.2100000381469727,-16.836000442504883 C14.310999870300293,-18.698999404907227 23.601999282836914,-8.586000442504883 26.007999420166016,-5.5960001945495605 C30.732999801635742,0.2750000059604645 35.167999267578125,3.8949999809265137 32.2760009765625,4.769000053405762 C30.048999786376953,5.441999912261963 29.242000579833984,3.124000072479248 22.16699981689453,-0.6330000162124634 C16.031999588012695,-3.8910000324249268 9.494999885559082,-3.5299999713897705 0.03500000014901161,-3.2330000400543213 C-6.453000068664551,-3.0290000438690186 -15.279000282287598,0.4429999887943268 -23.39699935913086,2.375999927520752 C-27.628999710083008,3.384000062942505 -32.63199996948242,2.75600004196167 -34.124000549316406,0.2669999897480011 C-36.257999420166016,-3.2929999828338623 -35.209999084472656,-6.4039998054504395 -31.290000915527344,-9.309000015258789z"></path><path stroke-linecap="butt" stroke-linejoin="miter" fill-opacity="0" stroke-miterlimit="4" stroke="rgb(39,10,10)" stroke-opacity="1" stroke-width="6" d=" M-31.290000915527344,-9.309000015258789 C-24.458999633789062,-14.371000289916992 -18.19499969482422,-15.032999992370605 -2.2100000381469727,-16.836000442504883 C14.310999870300293,-18.698999404907227 23.601999282836914,-8.586000442504883 26.007999420166016,-5.5960001945495605 C30.732999801635742,0.2750000059604645 35.167999267578125,3.8949999809265137 32.2760009765625,4.769000053405762 C30.048999786376953,5.441999912261963 29.242000579833984,3.124000072479248 22.16699981689453,-0.6330000162124634 C16.031999588012695,-3.8910000324249268 9.494999885559082,-3.5299999713897705 0.03500000014901161,-3.2330000400543213 C-6.453000068664551,-3.0290000438690186 -15.279000282287598,0.4429999887943268 -23.39699935913086,2.375999927520752 C-27.628999710083008,3.384000062942505 -32.63199996948242,2.75600004196167 -34.124000549316406,0.2669999897480011 C-36.257999420166016,-3.2929999828338623 -35.209999084472656,-6.4039998054504395 -31.290000915527344,-9.309000015258789z"></path></g></g><g style="display: none;"><g><path></path></g></g><g style="display: none;"><g><path></path></g></g><g style="display: block;" transform="matrix(0.6789687871932983,-1.122043251991272,1.1100226640701294,0.6716948747634888,1.3990478515625,-180.11923217773438)" opacity="1"><g opacity="1" transform="matrix(1,0,0,1,0,0)"><path fill="rgb(255,213,186)" fill-opacity="1" d=" M-136.5800018310547,135.19000244140625 C-157.87100219726562,125.56199645996094 -173.7790069580078,125.57099914550781 -183.43099975585938,128.29600524902344 C-193.05999755859375,131.01499938964844 -201.3769989013672,134.6219940185547 -203.29200744628906,147.5500030517578 C-205.25799560546875,160.82200622558594 -180.7220001220703,173.07000732421875 -173.13999938964844,178.6840057373047 C-156.18699645996094,191.23800659179688 -142.73899841308594,200.4550018310547 -131.1790008544922,208.90699768066406 C-119.41400146484375,217.50900268554688 -132.05599975585938,199.80099487304688 -131.88499450683594,189.95399475097656 C-131.6300048828125,175.29200744628906 -126.23500061035156,179.3730010986328 -126.23500061035156,179.3730010986328 C-126.23500061035156,179.3730010986328 -111.62699890136719,178.54299926757812 -108.62699890136719,179.54299926757812 C-105.62699890136719,180.54299926757812 -101.15399932861328,185.0260009765625 -89.35199737548828,179.16400146484375 C-79.5790023803711,174.30999755859375 -83.21800231933594,160.21200561523438 -92.52100372314453,155.8419952392578 C-104.33699798583984,150.29200744628906 -109.99700164794922,147.21099853515625 -136.5800018310547,135.19000244140625z"></path><path stroke-linecap="round" stroke-linejoin="round" fill-opacity="0" stroke="rgb(174,89,43)" stroke-opacity="1" stroke-width="15" d=" M-136.5800018310547,135.19000244140625 C-157.87100219726562,125.56199645996094 -173.7790069580078,125.57099914550781 -183.43099975585938,128.29600524902344 C-193.05999755859375,131.01499938964844 -201.3769989013672,134.6219940185547 -203.29200744628906,147.5500030517578 C-205.25799560546875,160.82200622558594 -180.7220001220703,173.07000732421875 -173.13999938964844,178.6840057373047 C-156.18699645996094,191.23800659179688 -142.73899841308594,200.4550018310547 -131.1790008544922,208.90699768066406 C-119.41400146484375,217.50900268554688 -132.05599975585938,199.80099487304688 -131.88499450683594,189.95399475097656 C-131.6300048828125,175.29200744628906 -126.23500061035156,179.3730010986328 -126.23500061035156,179.3730010986328 C-126.23500061035156,179.3730010986328 -111.62699890136719,178.54299926757812 -108.62699890136719,179.54299926757812 C-105.62699890136719,180.54299926757812 -101.15399932861328,185.0260009765625 -89.35199737548828,179.16400146484375 C-79.5790023803711,174.30999755859375 -83.21800231933594,160.21200561523438 -92.52100372314453,155.8419952392578 C-104.33699798583984,150.29200744628906 -109.99700164794922,147.21099853515625 -136.5800018310547,135.19000244140625z"></path></g></g><g style="display: block;" transform="matrix(0.6789687871932983,-1.122043251991272,1.1100226640701294,0.6716948747634888,-7.610685348510742,-170.2421875)" opacity="1"><g opacity="1" transform="matrix(1,0,0,1,8.025001525878906,7.3280029296875)"><g opacity="1" transform="matrix(0.913320004940033,0,0,0.9166300296783447,-16.455970764160156,2.3299407958984375)"><path fill="rgb(255,212,186)" fill-opacity="1" d=" M-91.00199890136719,171.3990020751953 C-96.70700073242188,169.18600463867188 -105,178.5 -109,186 C-113,193.5 -106,199.5 -101.5,203 C-97,206.5 -81.5,220.5 -69.5,227 C-57.5,233.5 -54.29399871826172,230.57899475097656 -50,227 C-44,222 -46,217 -49.5,210.5 C-53,204 -74.68699645996094,177.72799682617188 -91.00199890136719,171.3990020751953z"></path><path stroke-linecap="butt" stroke-linejoin="miter" fill-opacity="0" stroke-miterlimit="4" stroke="rgb(175,90,44)" stroke-opacity="1" stroke-width="13" d=" M-91.00199890136719,171.3990020751953 C-96.70700073242188,169.18600463867188 -105,178.5 -109,186 C-113,193.5 -106,199.5 -101.5,203 C-97,206.5 -81.5,220.5 -69.5,227 C-57.5,233.5 -54.29399871826172,230.57899475097656 -50,227 C-44,222 -46,217 -49.5,210.5 C-53,204 -74.68699645996094,177.72799682617188 -91.00199890136719,171.3990020751953z"></path></g><g opacity="1" transform="matrix(0.997294008731842,0.07351669669151306,-0.07351669669151306,0.997294008731842,6.503082275390625,7.70452880859375)"><path fill="rgb(255,212,186)" fill-opacity="1" d=" M-99.56900024414062,169.03599548339844 C-105.27400207519531,166.822998046875 -111.49800109863281,171.9600067138672 -115.49800109863281,179.4600067138672 C-119.49800109863281,186.9600067138672 -109.78500366210938,195.76800537109375 -105.28500366210938,199.26800537109375 C-100.78500366210938,202.76800537109375 -81.5,220.5 -69.5,227 C-57.5,233.5 -54.29399871826172,230.57899475097656 -50,227 C-44,222 -46,217 -49.5,210.5 C-53,204 -83.25399780273438,175.36500549316406 -99.56900024414062,169.03599548339844z"></path><path stroke-linecap="butt" stroke-linejoin="miter" fill-opacity="0" stroke-miterlimit="4" stroke="rgb(175,90,44)" stroke-opacity="1" stroke-width="13" d=" M-99.56900024414062,169.03599548339844 C-105.27400207519531,166.822998046875 -111.49800109863281,171.9600067138672 -115.49800109863281,179.4600067138672 C-119.49800109863281,186.9600067138672 -109.78500366210938,195.76800537109375 -105.28500366210938,199.26800537109375 C-100.78500366210938,202.76800537109375 -81.5,220.5 -69.5,227 C-57.5,233.5 -54.29399871826172,230.57899475097656 -50,227 C-44,222 -46,217 -49.5,210.5 C-53,204 -83.25399780273438,175.36500549316406 -99.56900024414062,169.03599548339844z"></path></g><g opacity="1" transform="matrix(0.9943620562553406,0.10603845864534378,-0.10603845864534378,0.9943620562553406,-8.313079833984375,12.645614624023438)"><path fill="rgb(255,212,186)" fill-opacity="1" d=" M-93.28700256347656,177.3179931640625 C-98.99199676513672,175.10499572753906 -105,178.5 -109,186 C-113,193.5 -106.0250015258789,198.447998046875 -101.5250015258789,201.947998046875 C-97.0250015258789,205.447998046875 -87.00900268554688,213.96800231933594 -75.88999938964844,221.88099670410156 C-62.93600082397461,231.10000610351562 -54.733001708984375,230.96600341796875 -51.05099868774414,226.75999450683594 C-46.69900131225586,221.78799438476562 -46.50400161743164,217.80099487304688 -50.00400161743164,211.30099487304688 C-53.50400161743164,204.80099487304688 -76.97200012207031,183.64700317382812 -93.28700256347656,177.3179931640625z"></path><path stroke-linecap="butt" stroke-linejoin="miter" fill-opacity="0" stroke-miterlimit="4" stroke="rgb(175,90,44)" stroke-opacity="1" stroke-width="13" d=" M-93.28700256347656,177.3179931640625 C-98.99199676513672,175.10499572753906 -105,178.5 -109,186 C-113,193.5 -106.0250015258789,198.447998046875 -101.5250015258789,201.947998046875 C-97.0250015258789,205.447998046875 -87.00900268554688,213.96800231933594 -75.88999938964844,221.88099670410156 C-62.93600082397461,231.10000610351562 -54.733001708984375,230.96600341796875 -51.05099868774414,226.75999450683594 C-46.69900131225586,221.78799438476562 -46.50400161743164,217.80099487304688 -50.00400161743164,211.30099487304688 C-53.50400161743164,204.80099487304688 -76.97200012207031,183.64700317382812 -93.28700256347656,177.3179931640625z"></path></g></g><g opacity="1" transform="matrix(1,0,0,1,0,0)"><path fill="rgb(255,212,186)" fill-opacity="1" d=" M-113.76399993896484,151.55099487304688 C-132.1750030517578,141.4409942626953 -139.48300170898438,142.27099609375 -148.87899780273438,143.64199829101562 C-157.6750030517578,144.92599487304688 -170.61399841308594,165.83099365234375 -169.13900756835938,167.01100158691406 C-168.35400390625,167.63900756835938 -158.41400146484375,174.81399536132812 -152.6820068359375,179.5760040283203 C-148.27999877929688,183.23300170898438 -138.38400268554688,190.8939971923828 -138.38400268554688,190.8939971923828 C-138.38400268554688,190.8939971923828 -131.68600463867188,196.16000366210938 -131.68600463867188,196.16000366210938 C-131.68600463867188,196.16000366210938 -128.05499267578125,198.36199951171875 -119.86299896240234,204.56199645996094 C-114.93900299072266,208.28900146484375 -109.63400268554688,211.09300231933594 -109.63400268554688,211.09300231933594 C-109.63400268554688,211.09300231933594 -106.8499984741211,198.74000549316406 -106.8499984741211,198.74000549316406 C-106.8499984741211,198.74000549316406 -117.47599792480469,193.34800720214844 -113.13800048828125,185.26499938964844 C-108.1780014038086,176.0229949951172 -95.41699981689453,188.4949951171875 -95.41699981689453,188.4949951171875 C-95.41699981689453,188.4949951171875 -93.78199768066406,186.68299865722656 -93.78199768066406,186.68299865722656 C-93.78199768066406,186.68299865722656 -103.35199737548828,182.23800659179688 -99.53500366210938,174.11099243164062 C-96.19000244140625,166.99099731445312 -87.9489974975586,170.76199340820312 -87.9489974975586,170.76199340820312 C-87.9489974975586,170.76199340820312 -85.1050033569336,170.6009979248047 -88.17900085449219,167.3990020751953 C-94.48999786376953,160.8249969482422 -97.78199768066406,160.32699584960938 -113.76399993896484,151.55099487304688z"></path></g></g><g style="display: block;" transform="matrix(1,0,0,1,256,256)" opacity="1"><g opacity="1" transform="matrix(1,0,0,1,0,0)"><path fill="rgb(250,219,195)" fill-opacity="1" d=" M-272,-742"></path><path stroke-linecap="butt" stroke-linejoin="miter" fill-opacity="0" stroke-miterlimit="4" stroke="rgb(188,99,51)" stroke-opacity="1" stroke-width="14" d=" M-272,-742"></path></g></g></g><g clip-path="url(#__lottie_element_7)" style="display: none;"><g style="display: none;"><g><path fill="url(#__lottie_element_32)"></path><path stroke-linecap="butt" stroke-linejoin="miter" fill-opacity="0" stroke-miterlimit="10"></path></g><g><path fill="url(#__lottie_element_33)"></path></g></g><g style="display: none;"><g><path stroke-linecap="round" stroke-linejoin="round" fill-opacity="0"></path></g><g><path stroke-linecap="round" stroke-linejoin="round" fill-opacity="0"></path></g><g><path stroke-linecap="round" stroke-linejoin="round" fill-opacity="0"></path></g></g><g style="display: none;"><g><path></path></g><g><g><path stroke-linecap="round" stroke-linejoin="round" fill-opacity="0"></path></g><g><path stroke-linecap="round" stroke-linejoin="round" fill-opacity="0"></path></g><g><path stroke-linecap="round" stroke-linejoin="round" fill-opacity="0"></path></g></g></g><g style="display: none;"><g><path stroke-linecap="round" stroke-linejoin="round" fill-opacity="0"></path></g></g><g style="display: none;"><g><path></path><path stroke-linecap="round" stroke-linejoin="round" fill-opacity="0"></path></g><g><path></path></g><g><g><path></path></g></g><g><g><path></path></g></g></g><g style="display: none;"><g><path></path><path stroke-linecap="butt" stroke-linejoin="miter" fill-opacity="0" stroke-miterlimit="10"></path></g><g><path></path></g><g><g><path></path></g></g><g><g><path></path></g></g></g><g style="display: none;"><g><path></path><path stroke-linecap="round" stroke-linejoin="round" fill-opacity="0"></path></g></g><g style="display: none;"><g><path></path><path stroke-linecap="butt" stroke-linejoin="round" fill-opacity="0"></path></g></g><g style="display: none;"><g><path></path><path stroke-linecap="round" stroke-linejoin="round" fill-opacity="0"></path></g></g><g style="display: none;"><g><path></path><path stroke-linecap="butt" stroke-linejoin="miter" fill-opacity="0" stroke-miterlimit="4"></path></g></g><g style="display: none;"><g><path></path></g></g><g style="display: none;"><g><path></path></g></g><g style="display: none;"><g><path></path><path stroke-linecap="round" stroke-linejoin="round" fill-opacity="0"></path></g></g><g style="display: none;"><g><g><path></path><path stroke-linecap="butt" stroke-linejoin="miter" fill-opacity="0" stroke-miterlimit="4"></path></g><g><path></path><path stroke-linecap="butt" stroke-linejoin="miter" fill-opacity="0" stroke-miterlimit="4"></path></g><g><path></path><path stroke-linecap="butt" stroke-linejoin="miter" fill-opacity="0" stroke-miterlimit="4"></path></g></g><g><path></path></g></g><g style="display: none;"><g><path></path><path stroke-linecap="butt" stroke-linejoin="miter" fill-opacity="0" stroke-miterlimit="4"></path></g></g></g><g style="display: block;" transform="matrix(1,0,0,1,256,256)" opacity="1"><g opacity="1" transform="matrix(1,0,0,1,0,0)"><path fill="rgb(187,92,39)" fill-opacity="0.45" d=" M79,-141"></path></g></g></g></svg>