<svg xmlns="http://www.w3.org/2000/svg" xmlns:xlink="http://www.w3.org/1999/xlink" viewBox="0 0 512 512" width="512" height="512" style="width: 100%; height: 100%; transform: translate3d(0,0,0); content-visibility: visible;" preserveAspectRatio="xMidYMid meet"><defs><clipPath id="__lottie_element_2"><rect width="512" height="512" x="0" y="0"></rect></clipPath><clipPath id="__lottie_element_4"><path d="M0,0 L512,0 L512,512 L0,512z"></path></clipPath><radialGradient id="__lottie_element_33" spreadMethod="pad" gradientUnits="userSpaceOnUse" cx="-79.52200317382812" cy="-125.8280029296875" r="233.32323731417242" fx="-79.52200317382812" fy="-125.8280029296875"><stop offset="0%" stop-color="rgb(253,213,185)"></stop><stop offset="85%" stop-color="rgb(246,198,171)"></stop><stop offset="100%" stop-color="rgb(239,184,156)"></stop></radialGradient></defs><g clip-path="url(#__lottie_element_2)"><g clip-path="url(#__lottie_element_4)" style="display: block;" transform="matrix(1,0,0,1,0,0)" opacity="1"><g style="display: block;" transform="matrix(1.0009315013885498,0,0,1,17.094818115234375,45.027862548828125)" opacity="1"><g opacity="1" transform="matrix(1,0,0,1,238.11000061035156,228.6320037841797)"><path fill="rgb(226,142,116)" fill-opacity="1" d=" M-186.10000610351562,-54.39099884033203 C-178.98199462890625,-66.66300201416016 -165.57899475097656,-97.6240005493164 -144.90899658203125,-120.29000091552734 C-124.23999786376953,-142.9550018310547 -121.04900360107422,-145.0709991455078 -85.61499786376953,-166.99000549316406 C-48.43299865722656,-189.98899841308594 22.481000900268555,-199.56500244140625 74.9489974975586,-171.24000549316406 C137.91600036621094,-137.2469940185547 138.5050048828125,-120.61499786376953 154.70799255371094,-102.19200134277344 C193.01300048828125,-58.638999938964844 209.04200744628906,9.133999824523926 196.68499755859375,66.70700073242188 C178.84500122070312,149.82899475097656 112.80799865722656,175.125 82.29499816894531,172.13600158691406 C70.49800109863281,170.97999572753906 62.356998443603516,196.5679931640625 29.823999404907227,198.6929931640625 C16.482999801635742,199.56399536132812 -12.244999885559082,198.53500366210938 -20.812000274658203,196.5679931640625 C-54.11899948120117,188.9199981689453 -59.729000091552734,168.64700317382812 -76.16999816894531,161.51400756835938 C-94.19599914550781,153.69500732421875 -141.23599243164062,166.8260040283203 -182.1649932861328,94.59200286865234 C-209.04200744628906,47.15700149536133 -204.2949981689453,-23.020000457763672 -186.10000610351562,-54.39099884033203z"></path><path stroke-linecap="butt" stroke-linejoin="miter" fill-opacity="0" stroke-miterlimit="10" stroke="rgb(173,92,37)" stroke-opacity="1" stroke-width="11.627" d=" M-186.10000610351562,-54.39099884033203 C-178.98199462890625,-66.66300201416016 -165.57899475097656,-97.6240005493164 -144.90899658203125,-120.29000091552734 C-124.23999786376953,-142.9550018310547 -121.04900360107422,-145.0709991455078 -85.61499786376953,-166.99000549316406 C-48.43299865722656,-189.98899841308594 22.481000900268555,-199.56500244140625 74.9489974975586,-171.24000549316406 C137.91600036621094,-137.2469940185547 138.5050048828125,-120.61499786376953 154.70799255371094,-102.19200134277344 C193.01300048828125,-58.638999938964844 209.04200744628906,9.133999824523926 196.68499755859375,66.70700073242188 C178.84500122070312,149.82899475097656 112.80799865722656,175.125 82.29499816894531,172.13600158691406 C70.49800109863281,170.97999572753906 62.356998443603516,196.5679931640625 29.823999404907227,198.6929931640625 C16.482999801635742,199.56399536132812 -12.244999885559082,198.53500366210938 -20.812000274658203,196.5679931640625 C-54.11899948120117,188.9199981689453 -59.729000091552734,168.64700317382812 -76.16999816894531,161.51400756835938 C-94.19599914550781,153.69500732421875 -141.23599243164062,166.8260040283203 -182.1649932861328,94.59200286865234 C-209.04200744628906,47.15700149536133 -204.2949981689453,-23.020000457763672 -186.10000610351562,-54.39099884033203z"></path></g><g opacity="1" transform="matrix(1,0,0,1,240.38600158691406,203.39500427246094)"><path fill="url(#__lottie_element_33)" fill-opacity="1" d=" M-171.4810028076172,-35.70399856567383 C-164.90499877929688,-46.68299865722656 -154.38800048828125,-65.73100280761719 -135.29400634765625,-86.00700378417969 C-116.1989974975586,-106.28399658203125 -107.12699890136719,-116.7040023803711 -74.39299774169922,-136.31199645996094 C-40.04399871826172,-156.88699340820312 27.690000534057617,-157.64599609375 76.16100311279297,-132.3070068359375 C134.3300018310547,-101.89700317382812 131.19900512695312,-80.60700225830078 145.3780059814453,-63.45800018310547 C179.8000030517578,-21.82699966430664 191.781005859375,25.402000427246094 174.5050048828125,75.31400299072266 C157.22900390625,125.2249984741211 126.84300231933594,145.5659942626953 73.88600158691406,134.29100036621094 C63.18600082397461,132.01300048828125 40.71200180053711,155.93800354003906 0.7129999995231628,156.7550048828125 C-42.93199920654297,157.64599609375 -42.058998107910156,137.10800170898438 -61.15399932861328,129.08599853515625 C-70.86599731445312,125.00599670410156 -84.10199737548828,142.96299743652344 -119.40699768066406,129.08599853515625 C-137.83299255371094,121.84400177001953 -159.99000549316406,108.14299774169922 -172.36399841308594,86.58799743652344 C-191.781005859375,52.762001037597656 -188.2899932861328,-7.638999938964844 -171.4810028076172,-35.70399856567383z"></path></g><g opacity="1" transform="matrix(1,0,0,1,247.21400451660156,404.75201416015625)"><path fill="rgb(255,195,161)" fill-opacity="1" d=" M27.016000747680664,-2.0390000343322754 C29.729999542236328,1.0140000581741333 17.256000518798828,4.784999847412109 11.9399995803833,6.723999977111816 C7.521999835968018,8.336000442504883 2.7660000324249268,7.986000061035156 -1.746000051498413,7.699999809265137 C-10.22599983215332,7.163000106811523 -29.729999542236328,0.7369999885559082 -28.079999923706055,-2.563999891281128 C-25.45599937438965,-7.810999870300293 -11.814000129699707,-8.336000442504883 2.3540000915527344,-7.810999870300293 C6.590000152587891,-7.6539998054504395 22.81800079345703,-6.76200008392334 27.016000747680664,-2.0390000343322754z"></path></g><g opacity="1" transform="matrix(1,0,0,1,305.0580139160156,202.9239959716797)"><path fill="rgb(229,150,115)" fill-opacity="1" d=" M-31.09000015258789,-60.999000549316406 C-31.09000015258789,-60.999000549316406 -41.321998596191406,-53.12799835205078 -39.74800109863281,-35.8120002746582 C-38.17399978637695,-18.496000289916992 -32.66400146484375,-5.9029998779296875 -28.729000091552734,-4.328999996185303 C-24.792999267578125,-2.755000114440918 -9.83899974822998,5.116000175476074 -9.83899974822998,12.987000465393066 C-9.83899974822998,20.857999801635742 -15.347999572753906,27.941999435424805 -12.987000465393066,31.87700080871582 C-10.62600040435791,35.8129997253418 -8.263999938964844,54.702999114990234 -6.690000057220459,57.85100173950195 C-5.116000175476074,60.999000549316406 -0.39399999380111694,30.30299949645996 10.62600040435791,23.2189998626709 C26.625,12.934000015258789 38.17399978637695,13.77400016784668 39.74800109863281,9.83899974822998 C41.321998596191406,5.9029998779296875 23.2189998626709,5.116000175476074 23.2189998626709,5.116000175476074 C23.2189998626709,5.116000175476074 -20.070999145507812,-31.87700080871582 -20.857999801635742,-43.68299865722656 C-21.645000457763672,-55.48899841308594 -31.09000015258789,-60.999000549316406 -31.09000015258789,-60.999000549316406z"></path></g><g opacity="1" transform="matrix(1,0,0,1,196.3520050048828,194.8350067138672)"><path fill="rgb(229,150,115)" fill-opacity="1" d=" M30.128000259399414,-54.659000396728516 C30.128000259399414,-54.659000396728516 31.527000427246094,-26.673999786376953 22.082000732421875,-7.084000110626221 C17.18899917602539,3.063999891281128 4.1539998054504395,12.418000221252441 3.1050000190734863,16.354000091552734 C2.055000066757202,20.288999557495117 -5.290999889373779,29.996000289916992 -6.864999771118164,32.619998931884766 C-8.439000129699707,35.24399948120117 -5.815999984741211,49.93600082397461 -7.6519999504089355,52.297000885009766 C-9.48900032043457,54.659000396728516 -13.685999870300293,26.322999954223633 -18.409000396728516,21.863000869750977 C-23.131999969482422,17.402999877929688 -31.527000427246094,12.680999755859375 -31.527000427246094,12.680999755859375 C-31.527000427246094,12.680999755859375 -0.7429999709129333,-38.130001068115234 6.341000080108643,-44.165000915527344 C13.423999786376953,-50.19900131225586 30.128000259399414,-54.659000396728516 30.128000259399414,-54.659000396728516z"></path></g></g><g style="display: block;" transform="matrix(1.000930666923523,0,0,1,107.55272674560547,-6.3621368408203125)" opacity="1"><g opacity="1" transform="matrix(1,0,0,1,150.8719940185547,82.5009994506836)"><path fill="rgb(46,53,68)" fill-opacity="1" d=" M118.46199798583984,-8.145999908447266 C118.64399719238281,-9.074999809265137 117.88300323486328,-10.755000114440918 117.6259994506836,-11.685999870300293 C113.15599822998047,-27.84600067138672 64.92400360107422,-56.56100082397461 -0.4429999887943268,-56.56100082397461 C-65.80999755859375,-56.56100082397461 -115.86499786376953,-29.86199951171875 -117.97000122070312,-10.986000061035156 C-117.98699951171875,-10.836999893188477 -117.92400360107422,-10.6899995803833 -117.94999694824219,-10.543999671936035 C-120.58699798583984,4.645999908447266 -124.93199920654297,48.308998107910156 -124.93199920654297,48.308998107910156 C-124.93199920654297,48.308998107910156 -73.10299682617188,10.918999671936035 -3.4809999465942383,7.824999809265137 C66.14099884033203,4.730999946594238 124.93199920654297,56.56100082397461 124.93199920654297,56.56100082397461 C124.93199920654297,56.56100082397461 118.46199798583984,-8.145999908447266 118.46199798583984,-8.145999908447266z"></path><path stroke-linecap="round" stroke-linejoin="round" fill-opacity="0" stroke="rgb(26,32,40)" stroke-opacity="1" stroke-width="10.376" d=" M118.46199798583984,-8.145999908447266 C118.64399719238281,-9.074999809265137 117.88300323486328,-10.755000114440918 117.6259994506836,-11.685999870300293 C113.15599822998047,-27.84600067138672 64.92400360107422,-56.56100082397461 -0.4429999887943268,-56.56100082397461 C-65.80999755859375,-56.56100082397461 -115.86499786376953,-29.86199951171875 -117.97000122070312,-10.986000061035156 C-117.98699951171875,-10.836999893188477 -117.92400360107422,-10.6899995803833 -117.94999694824219,-10.543999671936035 C-120.58699798583984,4.645999908447266 -124.93199920654297,48.308998107910156 -124.93199920654297,48.308998107910156 C-124.93199920654297,48.308998107910156 -73.10299682617188,10.918999671936035 -3.4809999465942383,7.824999809265137 C66.14099884033203,4.730999946594238 124.93199920654297,56.56100082397461 124.93199920654297,56.56100082397461 C124.93199920654297,56.56100082397461 118.46199798583984,-8.145999908447266 118.46199798583984,-8.145999908447266z"></path></g><g opacity="1" transform="matrix(1,0,0,1,149.0679931640625,58.66899871826172)"><path fill="rgb(70,80,94)" fill-opacity="1" d=" M-38.95899963378906,-22.104000091552734 C-38.95899963378906,-22.104000091552734 -17.43600082397461,-27.916000366210938 5.993000030517578,-27.643999099731445 C22.23900032043457,-27.454999923706055 41.77299880981445,-22.739999771118164 41.77299880981445,-22.739999771118164 C41.77299880981445,-22.739999771118164 43.75,27.399999618530273 43.75,27.399999618530273 C43.75,27.399999618530273 24.929000854492188,23.104999542236328 3.2690000534057617,22.576000213623047 C-18.391000747680664,22.04599952697754 -43.75,27.916000366210938 -43.75,27.916000366210938 C-43.75,27.916000366210938 -38.95899963378906,-22.104000091552734 -38.95899963378906,-22.104000091552734z"></path></g><g opacity="1" transform="matrix(1,0,0,1,97.80400085449219,65.39800262451172)"><path fill="rgb(229,240,249)" fill-opacity="1" d=" M-21.20400047302246,-21.069000244140625 C-21.20400047302246,-21.069000244140625 -24.20199966430664,31.648000717163086 -24.20199966430664,31.648000717163086 C-24.20199966430664,31.648000717163086 -18.29599952697754,28.954999923706055 -2.4070000648498535,24.565000534057617 C11.963000297546387,20.59600067138672 22.847999572753906,18.645999908447266 22.847999572753906,18.645999908447266 C22.847999572753906,18.645999908447266 24.20199966430664,-31.648000717163086 24.20199966430664,-31.648000717163086 C24.20199966430664,-31.648000717163086 14.833999633789062,-30.905000686645508 0.04600000008940697,-27.334999084472656 C-15.755000114440918,-23.520999908447266 -21.20400047302246,-21.069000244140625 -21.20400047302246,-21.069000244140625z"></path></g><g opacity="1" transform="matrix(1,0,0,1,203.55599975585938,66.03299713134766)"><path fill="rgb(229,240,249)" fill-opacity="1" d=" M23.43000030517578,-19.388999938964844 C23.43000030517578,-19.388999938964844 23.43000030517578,32.10300064086914 23.43000030517578,32.10300064086914 C23.43000030517578,32.10300064086914 19.459999084472656,28.481000900268555 3.5420000553131104,23.6560001373291 C-10.854000091552734,19.292999267578125 -23.216999053955078,17.48200035095215 -23.216999053955078,17.48200035095215 C-23.216999053955078,17.48200035095215 -23.43000030517578,-32.10300064086914 -23.43000030517578,-32.10300064086914 C-23.43000030517578,-32.10300064086914 -13.309000015258789,-31.34000015258789 2.2699999809265137,-27.017000198364258 C17.979999542236328,-22.658000946044922 23.43000030517578,-19.388999938964844 23.43000030517578,-19.388999938964844z"></path></g></g><g style="display: block;" transform="matrix(1.0009315013885498,0,0,1,64.77818298339844,242.85586547851562)" opacity="1"><g opacity="1" transform="matrix(1,0,0,1,193.36900329589844,125.13600158691406)"><path fill="rgb(68,32,21)" fill-opacity="1" d=" M-13.310999870300293,-47.84199905395508 C-13.310999870300293,-47.84199905395508 -38.0260009765625,-41.797000885009766 -42.52000045776367,-32.9640007019043 C-47.01300048828125,-24.1299991607666 -71.79399871826172,1.062000036239624 -62.80699920654297,11.289999961853027 C-53.81999969482422,21.51799964904785 -23.058000564575195,50.630001068115234 -1.4880000352859497,50.630001068115234 C20.08099937438965,50.630001068115234 40.819000244140625,45.46099853515625 45.762001037597656,41.742000579833984 C50.70500183105469,38.02199935913086 71.79399871826172,21.819000244140625 71.79399871826172,16.704999923706055 C71.79399871826172,11.590999603271484 58.119998931884766,-15.145000457763672 56.323001861572266,-28.163000106811523 C54.525001525878906,-41.18000030517578 39.26499938964844,-49.70199966430664 36.56800079345703,-50.16699981689453 C33.87200164794922,-50.63100051879883 -13.310999870300293,-47.84199905395508 -13.310999870300293,-47.84199905395508z"></path></g><g opacity="1" transform="matrix(1,0,0,1,201.39999389648438,101.51799774169922)"><path fill="rgb(249,244,246)" fill-opacity="1" d=" M-52.03099822998047,9.444999694824219 C-52.03099822998047,9.444999694824219 -42.58599853515625,16.52899932861328 -2.444999933242798,18.10300064086914 C37.696998596191406,19.677000045776367 44.78099822998047,11.019000053405762 44.78099822998047,11.019000053405762 C44.78099822998047,11.019000053405762 52.03099822998047,2.6089999675750732 38.17399978637695,-3.4179999828338623 C24.31599998474121,-9.444999694824219 10.14900016784668,-7.084000110626221 -5.5929999351501465,-10.232000350952148 C-21.334999084472656,-13.380999565124512 -32.354000091552734,-19.677000045776367 -38.6510009765625,-14.954999923706055 C-44.946998596191406,-10.232000350952148 -52.03099822998047,9.444999694824219 -52.03099822998047,9.444999694824219z"></path><path stroke-linecap="round" stroke-linejoin="round" fill-opacity="0" stroke="rgb(78,102,145)" stroke-opacity="1" stroke-width="6.625" d=" M-52.03099822998047,9.444999694824219 C-52.03099822998047,9.444999694824219 -42.58599853515625,16.52899932861328 -2.444999933242798,18.10300064086914 C37.696998596191406,19.677000045776367 44.78099822998047,11.019000053405762 44.78099822998047,11.019000053405762 C44.78099822998047,11.019000053405762 52.03099822998047,2.6089999675750732 38.17399978637695,-3.4179999828338623 C24.31599998474121,-9.444999694824219 10.14900016784668,-7.084000110626221 -5.5929999351501465,-10.232000350952148 C-21.334999084472656,-13.380999565124512 -32.354000091552734,-19.677000045776367 -38.6510009765625,-14.954999923706055 C-44.946998596191406,-10.232000350952148 -52.03099822998047,9.444999694824219 -52.03099822998047,9.444999694824219z"></path></g><g opacity="1" transform="matrix(1,0,0,1,189.63800048828125,142.25799560546875)"><path fill="rgb(196,39,51)" fill-opacity="1" d=" M-49.5359992980957,1.9040000438690186 C-49.5359992980957,1.9040000438690186 -28.906999588012695,-16.402999877929688 -15.722999572753906,-17.20400047302246 C-6.461999893188477,-17.767000198364258 -2.7639999389648438,-12.753000259399414 1.8650000095367432,-10.845999717712402 C6.493000030517578,-8.937999725341797 6.955999851226807,-14.781000137329102 17.538000106811523,-15.831000328063965 C26.288999557495117,-16.698999404907227 34.084999084472656,-14.555999755859375 40.10100173950195,-8.833000183105469 C46.11800003051758,-3.1110000610351562 49.5359992980957,-3.2170000076293945 47.22200012207031,-0.6729999780654907 C44.90800094604492,1.8700000047683716 27.783000946044922,17.76799964904785 13.89799976348877,17.76799964904785 C0.013000000268220901,17.76799964904785 -23.128000259399414,12.680999755859375 -28.68199920654297,6.322000026702881 C-34.236000061035156,-0.035999998450279236 -49.5359992980957,1.9040000438690186 -49.5359992980957,1.9040000438690186z"></path><path stroke-linecap="butt" stroke-linejoin="miter" fill-opacity="0" stroke-miterlimit="10" stroke="rgb(122,26,55)" stroke-opacity="1" stroke-width="6.741" d=" M-49.5359992980957,1.9040000438690186 C-49.5359992980957,1.9040000438690186 -28.906999588012695,-16.402999877929688 -15.722999572753906,-17.20400047302246 C-6.461999893188477,-17.767000198364258 -2.7639999389648438,-12.753000259399414 1.8650000095367432,-10.845999717712402 C6.493000030517578,-8.937999725341797 6.955999851226807,-14.781000137329102 17.538000106811523,-15.831000328063965 C26.288999557495117,-16.698999404907227 34.084999084472656,-14.555999755859375 40.10100173950195,-8.833000183105469 C46.11800003051758,-3.1110000610351562 49.5359992980957,-3.2170000076293945 47.22200012207031,-0.6729999780654907 C44.90800094604492,1.8700000047683716 27.783000946044922,17.76799964904785 13.89799976348877,17.76799964904785 C0.013000000268220901,17.76799964904785 -23.128000259399414,12.680999755859375 -28.68199920654297,6.322000026702881 C-34.236000061035156,-0.035999998450279236 -49.5359992980957,1.9040000438690186 -49.5359992980957,1.9040000438690186z"></path></g><g opacity="1" transform="matrix(1,0,0,1,196.39300537109375,150.39700317382812)"><path fill="rgb(249,244,246)" fill-opacity="1" d=" M-51.90800094604492,-1.3350000381469727 C-51.90800094604492,-1.3350000381469727 -49.974998474121094,-17.49799919128418 -45.625,-15.39900016784668 C-41.275001525878906,-13.300000190734863 -25.30299949645996,0.6919999718666077 3.9609999656677246,0.34200000762939453 C33.22600173950195,-0.00800000037997961 40.834999084472656,-10.836999893188477 46.37200164794922,-10.836999893188477 C51.90800094604492,-10.836999893188477 48.915000915527344,3.562999963760376 48.915000915527344,3.562999963760376 C48.915000915527344,3.562999963760376 37.67100143432617,13.300000190734863 20.270999908447266,15.39900016784668 C2.869999885559082,17.49799919128418 -27.976999282836914,11.20300006866455 -33.909000396728516,7.703999996185303 C-39.840999603271484,4.205999851226807 -51.90800094604492,-1.3350000381469727 -51.90800094604492,-1.3350000381469727z"></path><path stroke-linecap="round" stroke-linejoin="round" fill-opacity="0" stroke="rgb(78,102,145)" stroke-opacity="1" stroke-width="8.191" d=" M-51.90800094604492,-1.3350000381469727 C-51.90800094604492,-1.3350000381469727 -49.974998474121094,-17.49799919128418 -45.625,-15.39900016784668 C-41.275001525878906,-13.300000190734863 -25.30299949645996,0.6919999718666077 3.9609999656677246,0.34200000762939453 C33.22600173950195,-0.00800000037997961 40.834999084472656,-10.836999893188477 46.37200164794922,-10.836999893188477 C51.90800094604492,-10.836999893188477 48.915000915527344,3.562999963760376 48.915000915527344,3.562999963760376 C48.915000915527344,3.562999963760376 37.67100143432617,13.300000190734863 20.270999908447266,15.39900016784668 C2.869999885559082,17.49799919128418 -27.976999282836914,11.20300006866455 -33.909000396728516,7.703999996185303 C-39.840999603271484,4.205999851226807 -51.90800094604492,-1.3350000381469727 -51.90800094604492,-1.3350000381469727z"></path></g><g opacity="1" transform="matrix(1,0,0,1,196.8800048828125,163.85800170898438)"><path fill="rgb(239,117,143)" fill-opacity="1" d=" M-69.37699890136719,-29.90999984741211 C-69.37699890136719,-29.90999984741211 -66.96299743652344,-20.215999603271484 -53.941001892089844,-13.277999877929688 C-40.91899871826172,-6.340000152587891 -26.746999740600586,0.4269999861717224 -13.104999542236328,0.8899999856948853 C0.5379999876022339,1.3519999980926514 18.986000061035156,1.319000005722046 30.922000885009766,-0.1599999964237213 C52.9119987487793,-2.88700008392334 63.917999267578125,-22.562999725341797 63.917999267578125,-22.562999725341797 C63.917999267578125,-22.562999725341797 69.37699890136719,-10.932000160217285 66.83300018310547,-2.622999906539917 C62.875999450683594,10.303000450134277 55.73400115966797,23.246999740600586 38.23699951171875,26.760000228881836 C23.658000946044922,29.687999725341797 -2.6010000705718994,24.59600067138672 -21.025999069213867,26.760000228881836 C-47.82500076293945,29.909000396728516 -53.27000045776367,15.984000205993652 -59.47100067138672,9.970999717712402 C-65.6719970703125,3.9579999446868896 -69.37699890136719,-29.90999984741211 -69.37699890136719,-29.90999984741211z"></path><path stroke-linecap="round" stroke-linejoin="round" fill-opacity="0" stroke="rgb(188,74,106)" stroke-opacity="1" stroke-width="11.79" d=" M-69.37699890136719,-29.90999984741211 C-69.37699890136719,-29.90999984741211 -66.96299743652344,-20.215999603271484 -53.941001892089844,-13.277999877929688 C-40.91899871826172,-6.340000152587891 -26.746999740600586,0.4269999861717224 -13.104999542236328,0.8899999856948853 C0.5379999876022339,1.3519999980926514 18.986000061035156,1.319000005722046 30.922000885009766,-0.1599999964237213 C52.9119987487793,-2.88700008392334 63.917999267578125,-22.562999725341797 63.917999267578125,-22.562999725341797 C63.917999267578125,-22.562999725341797 69.37699890136719,-10.932000160217285 66.83300018310547,-2.622999906539917 C62.875999450683594,10.303000450134277 55.73400115966797,23.246999740600586 38.23699951171875,26.760000228881836 C23.658000946044922,29.687999725341797 -2.6010000705718994,24.59600067138672 -21.025999069213867,26.760000228881836 C-47.82500076293945,29.909000396728516 -53.27000045776367,15.984000205993652 -59.47100067138672,9.970999717712402 C-65.6719970703125,3.9579999446868896 -69.37699890136719,-29.90999984741211 -69.37699890136719,-29.90999984741211z"></path></g><g opacity="1" transform="matrix(1,0,0,1,199.9250030517578,93.58899688720703)"><path fill="rgb(239,82,108)" fill-opacity="1" d=" M-35.06800079345703,6.73799991607666 C-35.06800079345703,6.73799991607666 -29.555999755859375,3.053999900817871 -26.854999542236328,3.4700000286102295 C-23.44499969482422,3.99399995803833 -22.48699951171875,10.383999824523926 -19.339000701904297,8.28499984741211 C-16.190000534057617,6.185999870300293 -13.493000030517578,2.5899999141693115 -8.508999824523926,3.9019999504089355 C-5.125999927520752,4.791999816894531 -2.7179999351501465,10.815999984741211 0.4300000071525574,9.765999794006348 C3.5789999961853027,8.717000007629395 5.316999912261963,3.984999895095825 11.08899974822998,4.158999919891357 C15.166000366210938,4.2829999923706055 18.45599937438965,10.807999610900879 19.854999542236328,9.059000015258789 C21.253999710083008,7.309999942779541 25.641000747680664,4.048999786376953 29.138999938964844,5.448999881744385 C32.637001037597656,6.8480000495910645 34.016998291015625,10.961000442504883 36.875,8.543000221252441 C40.22700119018555,5.706999778747559 46.15599822998047,2.3540000915527344 46.15599822998047,2.3540000915527344 C46.15599822998047,2.3540000915527344 13.199000358581543,-10.961000442504883 13.199000358581543,-10.961000442504883 C13.199000358581543,-10.961000442504883 -31.577999114990234,-6.064000129699707 -31.577999114990234,-6.064000129699707 C-31.577999114990234,-6.064000129699707 -46.15599822998047,-0.4819999933242798 -46.15599822998047,-0.4819999933242798 C-46.15599822998047,-0.4819999933242798 -35.06800079345703,6.73799991607666 -35.06800079345703,6.73799991607666z"></path></g><g opacity="1" transform="matrix(1,0,0,1,192.58099365234375,100.0009994506836)"><path fill="rgb(229,66,125)" fill-opacity="1" d=" M-67.7760009765625,22.593000411987305 C-67.7760009765625,22.593000411987305 -60.90700149536133,-1.6979999542236328 -53.486000061035156,-11.61400032043457 C-46.064998626708984,-21.5310001373291 -37.36199951171875,-37.573001861572266 -19.8700008392334,-34.266998291015625 C-2.377000093460083,-30.961999893188477 -3.8970000743865967,-19.447999954223633 8.824999809265137,-22.753999710083008 C21.54599952697754,-26.05900001525879 23.54599952697754,-38.14500045776367 43.159000396728516,-29.17300033569336 C62.770999908447266,-20.201000213623047 68.5260009765625,-8.722999572753906 66.51899719238281,7.551000118255615 C64.60199737548828,23.0939998626709 71.03500366210938,38.14500045776367 71.03500366210938,38.14500045776367 C71.03500366210938,38.14500045776367 53.1879997253418,8.54699993133545 51.59700012207031,3.3529999256134033 C50.00699996948242,-1.840999960899353 45.11800003051758,-13.277999877929688 30.39299964904785,-13.277999877929688 C17.398000717163086,-13.277999877929688 10.66100025177002,-3.993000030517578 1.2369999885559082,-7.140999794006348 C-4.572999954223633,-9.081999778747559 -13.194000244140625,-18.525999069213867 -29.68600082397461,-14.32800006866455 C-33.380001068115234,-13.387999534606934 -43.645999908447266,-3.0190000534057617 -47.356998443603516,3.3529999256134033 C-51.981998443603516,11.295000076293945 -64.44200134277344,30.27400016784668 -66.79399871826172,30.27400016784668 C-71.03500366210938,30.27400016784668 -67.7760009765625,22.593000411987305 -67.7760009765625,22.593000411987305z"></path><path stroke-linecap="round" stroke-linejoin="round" fill-opacity="0" stroke="rgb(178,57,91)" stroke-opacity="1" stroke-width="11.79" d=" M-67.7760009765625,22.593000411987305 C-67.7760009765625,22.593000411987305 -60.90700149536133,-1.6979999542236328 -53.486000061035156,-11.61400032043457 C-46.064998626708984,-21.5310001373291 -37.36199951171875,-37.573001861572266 -19.8700008392334,-34.266998291015625 C-2.377000093460083,-30.961999893188477 -3.8970000743865967,-19.447999954223633 8.824999809265137,-22.753999710083008 C21.54599952697754,-26.05900001525879 23.54599952697754,-38.14500045776367 43.159000396728516,-29.17300033569336 C62.770999908447266,-20.201000213623047 68.5260009765625,-8.722999572753906 66.51899719238281,7.551000118255615 C64.60199737548828,23.0939998626709 71.03500366210938,38.14500045776367 71.03500366210938,38.14500045776367 C71.03500366210938,38.14500045776367 53.1879997253418,8.54699993133545 51.59700012207031,3.3529999256134033 C50.00699996948242,-1.840999960899353 45.11800003051758,-13.277999877929688 30.39299964904785,-13.277999877929688 C17.398000717163086,-13.277999877929688 10.66100025177002,-3.993000030517578 1.2369999885559082,-7.140999794006348 C-4.572999954223633,-9.081999778747559 -13.194000244140625,-18.525999069213867 -29.68600082397461,-14.32800006866455 C-33.380001068115234,-13.387999534606934 -43.645999908447266,-3.0190000534057617 -47.356998443603516,3.3529999256134033 C-51.981998443603516,11.295000076293945 -64.44200134277344,30.27400016784668 -66.79399871826172,30.27400016784668 C-71.03500366210938,30.27400016784668 -67.7760009765625,22.593000411987305 -67.7760009765625,22.593000411987305z"></path></g><g opacity="1" transform="matrix(1,0,0,1,41.01300048828125,66.78399658203125)"><path stroke-linecap="round" stroke-linejoin="round" fill-opacity="0" stroke="rgb(211,117,70)" stroke-opacity="1" stroke-width="11.556" d=" M-12.12399959564209,-32.0989990234375 C-12.12399959564209,-32.0989990234375 -11.72700023651123,-18.422000885009766 -1.9470000267028809,-3.244999885559082 C7.834000110626221,11.932000160217285 9.881999969482422,13.079999923706055 10.479000091552734,22.565000534057617 C11.076000213623047,32.04899978637695 12.12399959564209,32.0989990234375 12.12399959564209,32.0989990234375"></path></g><g opacity="1" transform="matrix(1,0,0,1,345.6159973144531,69.1449966430664)"><path stroke-linecap="round" stroke-linejoin="round" fill-opacity="0" stroke="rgb(211,117,70)" stroke-opacity="1" stroke-width="11.556" d=" M12.12399959564209,-32.0989990234375 C12.12399959564209,-32.0989990234375 11.72700023651123,-18.422000885009766 1.9470000267028809,-3.244999885559082 C-7.834000110626221,11.932000160217285 -9.881999969482422,13.079999923706055 -10.479000091552734,22.565000534057617 C-11.076000213623047,32.04899978637695 -12.12399959564209,32.0989990234375 -12.12399959564209,32.0989990234375"></path></g><g opacity="1" transform="matrix(1,0,0,1,104.43299865722656,95.87799835205078)"><path stroke-linecap="round" stroke-linejoin="round" fill-opacity="0" stroke="rgb(196,96,51)" stroke-opacity="1" stroke-width="8.872" d=" M36.88999938964844,-69.39600372314453 C36.88999938964844,-69.39600372314453 40.91299819946289,-52.44499969482422 36.97700119018555,-31.194000244140625 C33.04199981689453,-9.942000389099121 27.183000564575195,-0.7599999904632568 22.459999084472656,15.871999740600586 C16.191999435424805,37.94599914550781 27.41900062561035,54.290000915527344 6.543000221252441,60.80799865722656 C-20.96500015258789,69.39600372314453 -40.91299819946289,46.84600067138672 -40.91299819946289,46.84600067138672"></path></g><g opacity="1" transform="matrix(1,0,0,1,284.5530090332031,97.61299896240234)"><path stroke-linecap="round" stroke-linejoin="round" fill-opacity="0" stroke="rgb(211,117,70)" stroke-opacity="1" stroke-width="10.593" d=" M-34.22200012207031,-71.13099670410156 C-34.22200012207031,-71.13099670410156 -39.731998443603516,-49.880001068115234 -35.79600143432617,-28.628000259399414 C-31.861000061035156,-7.376999855041504 -24.799999237060547,6.045000076293945 -23.989999771118164,13.87399959564209 C-21.628999710083008,36.70000076293945 -25.232999801635742,48.54100036621094 -5.88700008392334,58.737998962402344 C17.625,71.13099670410156 39.733001708984375,53.930999755859375 39.733001708984375,53.930999755859375"></path></g></g><g style="display: block;" transform="matrix(1.0009315013885498,0,0,1,191.74533081054688,170.44586181640625)" opacity="1"><g opacity="1" transform="matrix(1,0,0,1,76.8290023803711,129.8459930419922)"><path fill="rgb(229,150,115)" fill-opacity="1" d=" M-40.75400161743164,-18.621999740600586 C-40.75400161743164,-18.621999740600586 -31.490999221801758,6.442999839782715 -11.331000328063965,14.071999549865723 C0.6970000267028809,18.621999740600586 20.816999435424805,-0.0949999988079071 29.53499984741211,-4.453999996185303 C38.25299835205078,-8.812999725341797 40.75400161743164,-18.461999893188477 40.75400161743164,-18.461999893188477 C40.75400161743164,-18.461999893188477 11.215999603271484,11.583000183105469 -3.5989999771118164,5.198999881744385 C-18.413999557495117,-1.184999942779541 -40.75400161743164,-18.621999740600586 -40.75400161743164,-18.621999740600586z"></path></g><g opacity="1" transform="matrix(1,0,0,1,78.49099731445312,87.03199768066406)"><path fill="rgb(255,203,173)" fill-opacity="1" d=" M-0.7870000004768372,-52.41899871826172 C-8.218999862670898,-52.527000427246094 -15.704999923706055,-47.71799850463867 -17.577999114990234,-40.525001525878906 C-18.47599983215332,-37.07699966430664 -22.104000091552734,-23.906999588012695 -22.47599983215332,-20.93600082397461 C-23.524999618530273,-12.539999961853027 -27.54800033569336,-10.440999984741211 -30.695999145507812,-10.965999603271484 C-33.845001220703125,-11.491000175476074 -36.99300003051758,-10.440999984741211 -40.66600036621094,-5.718999862670898 C-44.3390007019043,-0.9959999918937683 -49.0620002746582,8.449000358581543 -44.86399841308594,13.696000099182129 C-40.66600036621094,18.94300079345703 -25.19700050354004,29.35700035095215 -26.110000610351562,29.398000717163086 C-27.023000717163086,29.437999725341797 -22.725000381469727,36.292999267578125 -13.904999732971191,42.555999755859375 C-1.8359999656677246,51.12699890136719 8.657999992370605,52.5260009765625 18.452999114990234,44.47999954223633 C25.05299949645996,39.05799865722656 27.023000717163086,28.388999938964844 35.41899871826172,24.19099998474121 C43.814998626708984,19.993000030517578 49.0620002746582,6.349999904632568 44.86399841308594,-0.9959999918937683 C40.66600036621094,-8.342000007629395 32.79499816894531,-11.491000175476074 30.695999145507812,-11.491000175476074 C28.597999572753906,-11.491000175476074 19.152999877929688,-12.015000343322754 16.003999710083008,-23.034000396728516 C12.855999946594238,-34.05400085449219 12.593000411987305,-43.104000091552734 10.494999885559082,-45.202999114990234 C9.434000015258789,-46.263999938964844 5.670000076293945,-52.32500076293945 -0.7870000004768372,-52.41899871826172z"></path></g><g opacity="1" transform="matrix(1,0,0,1,75.20899963378906,108.52400207519531)"><path fill="rgb(229,150,115)" fill-opacity="1" d=" M-39.65800094604492,-27.399999618530273 C-39.65800094604492,-27.399999618530273 -36.275001525878906,-11.293999671936035 -29.68000030517578,-8.215999603271484 C-24.881999969482422,-5.9770002365112305 -20.885000228881836,0.578000009059906 -14.729000091552734,9.371999740600586 C-7.23199987411499,20.082000732421875 6.802000045776367,19.058000564575195 14.289999961853027,11.569999694824219 C22.204999923706055,3.6559998989105225 17.58099937438965,-1.9950000047683716 24.402000427246094,-7.767000198364258 C30.177000045776367,-12.652999877929688 38.03499984741211,-19.208999633789062 38.03499984741211,-23.166000366210938 C38.03499984741211,-27.12299919128418 52.10499954223633,-12.17300033569336 45.5099983215332,-6.896999835968018 C38.91400146484375,-1.621000051498413 29.239999771118164,2.7760000228881836 27.04199981689453,7.61299991607666 C24.843000411987305,12.449999809265137 19.566999435424805,27.399999618530273 -1.9789999723434448,26.520000457763672 C-23.52400016784668,25.641000747680664 -22.2549991607666,8.628000259399414 -30.999000549316406,4.534999847412109 C-39.742000579833984,0.4429999887943268 -52.10499954223633,-8.656000137329102 -50.78499984741211,-15.25100040435791 C-49.465999603271484,-21.847000122070312 -39.65800094604492,-27.399999618530273 -39.65800094604492,-27.399999618530273z"></path></g><g opacity="1" transform="matrix(1,0,0,1,92.79000091552734,53.79399871826172)"><path stroke-linecap="round" stroke-linejoin="round" fill-opacity="0" stroke="rgb(196,96,51)" stroke-opacity="1" stroke-width="8.872" d=" M-2.493000030517578,-31.614999771118164 C-2.493000030517578,-31.614999771118164 -3.4539999961853027,0.1420000046491623 -0.39399999380111694,10.36400032043457 C3.4549999237060547,23.219999313354492 2.1489999294281006,31.614999771118164 2.1489999294281006,31.614999771118164"></path></g><g opacity="1" transform="matrix(1,0,0,1,40.762001037597656,109.25599670410156)"><path fill="rgb(99,56,42)" fill-opacity="1" d=" M11.107999801635742,12.725000381469727 C11.107999801635742,12.725000381469727 9.586000442504883,0.6359999775886536 7.1519999504089355,-3.5 C4.7170000076293945,-7.635000228881836 -1.065000057220459,-12.725000381469727 -5.326000213623047,-12.725000381469727 C-9.586999893188477,-12.725000381469727 -11.107999801635742,-8.272000312805176 -8.369000434875488,-6.045000076293945 C-5.630000114440918,-3.818000078201294 4.7170000076293945,3.5 4.7170000076293945,3.5 C4.7170000076293945,3.5 11.107999801635742,12.725000381469727 11.107999801635742,12.725000381469727z"></path></g><g opacity="1" transform="matrix(1,0,0,1,106.05699920654297,108.94200134277344)"><path fill="rgb(99,56,42)" fill-opacity="1" d=" M-9.331999778747559,10.706000328063965 C-9.331999778747559,10.706000328063965 -10.770000457763672,0.9980000257492065 -2.247999906539917,-5.560999870300293 C1.840000033378601,-8.708000183105469 7.4710001945495605,-10.706000328063965 9.119999885559082,-8.607000350952148 C10.770000457763672,-6.507999897003174 8.710000038146973,-0.18199999630451202 1.4249999523162842,2.572999954223633 C-4.063000202178955,4.6479997634887695 -9.331999778747559,10.706000328063965 -9.331999778747559,10.706000328063965z"></path></g><g opacity="1" transform="matrix(1,0,0,1,74.2300033569336,103.12300109863281)"><path stroke-linecap="round" stroke-linejoin="round" fill-opacity="0" stroke="rgb(196,96,51)" stroke-opacity="1" stroke-width="8.872" d=" M-17.22800064086914,-20.49799919128418 C-17.22800064086914,-20.49799919128418 -25.841999053955078,-33.52799987792969 -33.722999572753906,-29.941999435424805 C-40.840999603271484,-26.702999114990234 -48.1879997253418,-19.406999588012695 -50.21699905395508,-12.626999855041504 C-52.04999923706055,-6.505000114440918 -48.71900177001953,-0.515999972820282 -42.30099868774414,2.9839999675750732 C-35.88399887084961,6.482999801635742 -26.711999893188477,17.18199920654297 -26.711999893188477,17.18199920654297 C-26.711999893188477,17.18199920654297 -23.552000045776367,30.14699935913086 -4.922999858856201,31.711999893188477 C16.695999145507812,33.52799987792969 18.8439998626709,25.75 24.325000762939453,20.268999099731445 C25.59600067138672,18.99799919128418 30.13599967956543,14.821000099182129 30.13599967956543,14.821000099182129 C30.13599967956543,14.821000099182129 46.54899978637695,5.304999828338623 49.29999923706055,-3.444000005722046 C52.04999923706055,-12.192999839782715 37.90599822998047,-24.229000091552734 35.48099899291992,-26.37299919128418 C31.288000106811523,-30.07699966430664 28.586000442504883,-31.0939998626709 24.46299934387207,-29.257999420166016 C22.38599967956543,-28.33300018310547 20.527000427246094,-22.961999893188477 20.527000427246094,-22.961999893188477"></path></g></g><g style="display: block;" transform="matrix(1.0009315013885498,0,0,1,17.094818115234375,45.027862548828125)" opacity="1"><g opacity="1" transform="matrix(1,0,0,1,238.11000061035156,228.6320037841797)"><path stroke-linecap="butt" stroke-linejoin="miter" fill-opacity="0" stroke-miterlimit="10" stroke="rgb(173,92,37)" stroke-opacity="1" stroke-width="11.627" d=" M-186.10000610351562,-54.39099884033203 C-178.98199462890625,-66.66300201416016 -165.57899475097656,-97.6240005493164 -144.90899658203125,-120.29000091552734 C-124.23999786376953,-142.9550018310547 -121.04900360107422,-145.0709991455078 -85.61499786376953,-166.99000549316406 C-48.43299865722656,-189.98899841308594 22.481000900268555,-199.56500244140625 74.9489974975586,-171.24000549316406 C137.91600036621094,-137.2469940185547 138.5050048828125,-120.61499786376953 154.70799255371094,-102.19200134277344 C193.01300048828125,-58.638999938964844 209.04200744628906,9.133999824523926 196.68499755859375,66.70700073242188 C178.84500122070312,149.82899475097656 112.80799865722656,175.125 82.29499816894531,172.13600158691406 C70.49800109863281,170.97999572753906 62.356998443603516,196.5679931640625 29.823999404907227,198.6929931640625 C16.482999801635742,199.56399536132812 -12.244999885559082,198.53500366210938 -20.812000274658203,196.5679931640625 C-54.11899948120117,188.9199981689453 -59.729000091552734,168.64700317382812 -76.16999816894531,161.51400756835938 C-94.19599914550781,153.69500732421875 -141.23599243164062,166.8260040283203 -182.1649932861328,94.59200286865234 C-209.04200744628906,47.15700149536133 -204.2949981689453,-23.020000457763672 -186.10000610351562,-54.39099884033203z"></path></g></g><g style="display: block;" transform="matrix(1.0009315013885498,0,0,1,96.16339111328125,133.77786254882812)" opacity="1"><g opacity="1" transform="matrix(1,0,0,1,0,0)"><g opacity="1" transform="matrix(1,0,0,1,282.80999755859375,58.23899841308594)"><path stroke-linecap="round" stroke-linejoin="round" fill-opacity="0" stroke="rgb(211,117,70)" stroke-opacity="1" stroke-width="9.459" d=" M-16.999000549316406,2.502000093460083 C-16.999000549316406,2.502000093460083 -10.927000045776367,0.5 -2.257999897003174,-0.6320000290870667 C6.409999847412109,-1.7630000114440918 16.999000549316406,-2.502000093460083 16.999000549316406,-2.502000093460083"></path></g><g opacity="1" transform="matrix(1,0,0,1,286.635986328125,71.69999694824219)"><path stroke-linecap="round" stroke-linejoin="round" fill-opacity="0" stroke="rgb(211,117,70)" stroke-opacity="1" stroke-width="9.459" d=" M-16.590999603271484,-3.992000102996826 C-16.590999603271484,-3.992000102996826 -10.086000442504883,-3.562999963760376 -1.7009999752044678,-1.3980000019073486 C6.684000015258789,0.7680000066757202 16.590999603271484,3.992000102996826 16.590999603271484,3.992000102996826"></path></g><g opacity="1" transform="matrix(1,0,0,1,246.23899841308594,70.19100189208984)"><path fill="rgb(221,137,104)" fill-opacity="1" d=" M-21.23200035095215,-43.0989990234375 C-21.23200035095215,-43.0989990234375 -1.5959999561309814,-64.69400024414062 19.677000045776367,-43.93000030517578 C40.95000076293945,-23.165000915527344 54.77899932861328,43.0989990234375 21.232999801635742,53.89699935913086 C-12.312000274658203,64.69400024414062 -38.57400131225586,38.45800018310547 -43.483001708984375,27.65999984741211 C-48.391998291015625,16.863000869750977 -54.77799987792969,-6.830999851226807 -44.14099884033203,-19.843000411987305 C-33.505001068115234,-32.85499954223633 -21.23200035095215,-43.0989990234375 -21.23200035095215,-43.0989990234375z"></path></g><g opacity="1" transform="matrix(1,0,0,1,235.77000427246094,93.08899688720703)"><path stroke-linecap="round" stroke-linejoin="round" fill-opacity="0" stroke="rgb(196,96,51)" stroke-opacity="1" stroke-width="8.872" d=" M-38.43600082397461,-37.12799835205078 C-38.43600082397461,-37.12799835205078 -39.39799880981445,10.972000122070312 -7.126999855041504,24.351999282836914 C23.684999465942383,37.12799835205078 39.39799880981445,28.899999618530273 39.39799880981445,28.899999618530273"></path></g><g opacity="1" transform="matrix(1,0,0,1,246.46800231933594,69.927001953125)"><path fill="rgb(210,192,226)" fill-opacity="1" d=" M-27.6200008392334,-28.920000076293945 C-19.749000549316406,-35.21699905395508 -13.631999969482422,-41.98500061035156 -3.4639999866485596,-41.41600036621094 C3.5260000228881836,-41.025001525878906 6.414000034332275,-40.16899871826172 12.755000114440918,-36.625999450683594 C45.10200119018555,-18.552000045776367 44.79100036621094,23.552000045776367 20.319000244140625,33.71799850463867 C0.4189999997615814,41.98500061035156 -28.5310001373291,33.93000030517578 -37.33000183105469,10.946000099182129 C-40.73899841308594,2.0390000343322754 -45.10200119018555,-14.934000015258789 -27.6200008392334,-28.920000076293945z"></path><path stroke-linecap="round" stroke-linejoin="round" fill-opacity="0" stroke="rgb(82,98,130)" stroke-opacity="1" stroke-width="8.626" d=" M-27.6200008392334,-28.920000076293945 C-19.749000549316406,-35.21699905395508 -13.631999969482422,-41.98500061035156 -3.4639999866485596,-41.41600036621094 C3.5260000228881836,-41.025001525878906 6.414000034332275,-40.16899871826172 12.755000114440918,-36.625999450683594 C45.10200119018555,-18.552000045776367 44.79100036621094,23.552000045776367 20.319000244140625,33.71799850463867 C0.4189999997615814,41.98500061035156 -28.5310001373291,33.93000030517578 -37.33000183105469,10.946000099182129 C-40.73899841308594,2.0390000343322754 -45.10200119018555,-14.934000015258789 -27.6200008392334,-28.920000076293945z"></path></g><g opacity="1" transform="matrix(1,0,0,1,245.02200317382812,66.322998046875)"><path fill="rgb(255,255,255)" fill-opacity="1" d=" M25.59000015258789,16.183000564575195 C22.05699920654297,23.722999572753906 16.148000717163086,31.613000869750977 0.9390000104904175,30.452999114990234 C-19.586999893188477,28.88800048828125 -27.639999389648438,16.2810001373291 -29.323999404907227,-0.6539999842643738 C-29.9950008392334,-7.3979997634887695 -23.753999710083008,-14.093999862670898 -18.827999114990234,-19.018999099731445 C-6.235000133514404,-31.613000869750977 10.946000099182129,-28.621000289916992 16.3700008392334,-22.86199951171875 C28.584999084472656,-9.894000053405762 29.9950008392334,6.781000137329102 25.59000015258789,16.183000564575195z"></path></g><g opacity="1" transform="matrix(1,0,0,1,237.62399291992188,66.9010009765625)"><path fill="rgb(33,15,58)" fill-opacity="1" d=" M12.0649995803833,0.6830000281333923 C11.692000389099121,7.2729997634887695 5.98799991607666,12.3100004196167 -0.675000011920929,11.932000160217285 C-7.3379998207092285,11.555000305175781 -12.437999725341797,5.9070000648498535 -12.064000129699707,-0.6830000281333923 C-11.690999984741211,-7.2729997634887695 -5.986999988555908,-12.3100004196167 0.6759999990463257,-11.932999610900879 C7.339000225067139,-11.555000305175781 12.437999725341797,-5.9070000648498535 12.0649995803833,0.6830000281333923z"></path></g><g opacity="1" transform="matrix(1,0,0,1,245.24000549316406,69.53299713134766)"><path fill="rgb(255,255,255)" fill-opacity="1" d=" M4.48199987411499,0.2529999911785126 C4.333000183105469,2.88700008392334 2.2049999237060547,4.910999774932861 -0.27000001072883606,4.769999980926514 C-2.744999885559082,4.630000114440918 -4.630000114440918,2.380000114440918 -4.480999946594238,-0.2549999952316284 C-4.331999778747559,-2.8889999389648438 -2.2060000896453857,-4.910999774932861 0.27000001072883606,-4.770999908447266 C2.744999885559082,-4.63100004196167 4.63100004196167,-2.381999969482422 4.48199987411499,0.2529999911785126z"></path></g></g><g opacity="1" transform="matrix(1,0,0,1,0,0)"><g opacity="1" transform="matrix(1,0,0,1,38.80799865722656,54.30400085449219)"><path stroke-linecap="round" stroke-linejoin="round" fill-opacity="0" stroke="rgb(211,117,70)" stroke-opacity="1" stroke-width="10" d=" M14.270999908447266,2.502000093460083 C14.270999908447266,2.502000093460083 9.17199993133545,0.5 1.8949999809265137,-0.6320000290870667 C-5.382999897003174,-1.7630000114440918 -14.270999908447266,-2.502000093460083 -14.270999908447266,-2.502000093460083"></path></g><g opacity="1" transform="matrix(1,0,0,1,35.59600067138672,67.76499938964844)"><path stroke-linecap="round" stroke-linejoin="round" fill-opacity="0" stroke="rgb(211,117,70)" stroke-opacity="1" stroke-width="10" d=" M13.928000450134277,-3.992000102996826 C13.928000450134277,-3.992000102996826 8.467000007629395,-3.562999963760376 1.4270000457763672,-1.3980000019073486 C-5.611999988555908,0.7680000066757202 -13.928000450134277,3.992000102996826 -13.928000450134277,3.992000102996826"></path></g><g opacity="1" transform="matrix(1,0,0,1,86.38400268554688,66.34400177001953)"><path fill="rgb(221,137,104)" fill-opacity="1" d=" M21.45599937438965,-44.499000549316406 C21.45599937438965,-44.499000549316406 1.2109999656677246,-66.09400177001953 -20.7189998626709,-45.33000183105469 C-42.650001525878906,-24.565000534057617 -56.03900146484375,44.49800109863281 -21.45599937438965,55.29499816894531 C13.126999855041504,66.09300231933594 44.229000091552734,32.74399948120117 49.290000915527344,21.945999145507812 C54.35100173950195,11.14900016784668 56.03900146484375,-8.230999946594238 45.07400131225586,-21.243000030517578 C34.108001708984375,-34.255001068115234 21.45599937438965,-44.499000549316406 21.45599937438965,-44.499000549316406z"></path></g><g opacity="1" transform="matrix(1,0,0,1,97.50499725341797,92.69599914550781)"><path stroke-linecap="round" stroke-linejoin="round" fill-opacity="0" stroke="rgb(196,96,51)" stroke-opacity="1" stroke-width="8.872" d=" M40.36000061035156,-35.77299880981445 C40.36000061035156,-35.77299880981445 40.62200164794922,9.616999626159668 8.35200023651123,22.996999740600586 C-22.461000442504883,35.77299880981445 -40.62200164794922,26.844999313354492 -40.62200164794922,26.844999313354492"></path></g><g opacity="1" transform="matrix(1,0,0,1,90.9469985961914,62.07500076293945)"><path fill="rgb(210,192,226)" fill-opacity="1" d=" M-36.862998962402344,20.90999984741211 C-32.1510009765625,29.885000228881836 -24.270999908447266,39.275001525878906 -3.9839999675750732,37.89500045776367 C23.393999099731445,36.03300094604492 39.599998474121094,16.405000686645508 41.84600067138672,-3.752000093460083 C42.7400016784668,-11.779999732971191 36.45399856567383,-14.0649995803833 30.891000747680664,-20.704999923706055 C22.52899932861328,-30.68600082397461 16.18199920654297,-39.275001525878906 6.881999969482422,-39.19900131225586 C-5.539999961853027,-39.09700012207031 -17.33099937438965,-32.417999267578125 -24.56599998474121,-25.56399917602539 C-40.85900115966797,-10.128000259399414 -42.73899841308594,9.720000267028809 -36.862998962402344,20.90999984741211z"></path><path stroke-linecap="round" stroke-linejoin="round" fill-opacity="0" stroke="rgb(82,98,130)" stroke-opacity="1" stroke-width="8.626" d=" M-36.862998962402344,20.90999984741211 C-32.1510009765625,29.885000228881836 -24.270999908447266,39.275001525878906 -3.9839999675750732,37.89500045776367 C23.393999099731445,36.03300094604492 39.599998474121094,16.405000686645508 41.84600067138672,-3.752000093460083 C42.7400016784668,-11.779999732971191 36.45399856567383,-14.0649995803833 30.891000747680664,-20.704999923706055 C22.52899932861328,-30.68600082397461 16.18199920654297,-39.275001525878906 6.881999969482422,-39.19900131225586 C-5.539999961853027,-39.09700012207031 -17.33099937438965,-32.417999267578125 -24.56599998474121,-25.56399917602539 C-40.85900115966797,-10.128000259399414 -42.73899841308594,9.720000267028809 -36.862998962402344,20.90999984741211z"></path></g><g opacity="1" transform="matrix(1,0,0,1,91.78700256347656,62.28099822998047)"><path fill="rgb(255,255,255)" fill-opacity="1" d=" M-26.711999893188477,15.100000381469727 C-23.118000030517578,22.025999069213867 -17.10700035095215,29.273000717163086 -1.6349999904632568,28.20800018310547 C19.246999740600586,26.770000457763672 28.79800033569336,13.696999549865723 30.51099967956543,-1.8589999675750732 C31.19300079345703,-8.053999900817871 26.39900016784668,-9.817999839782715 22.1560001373291,-14.942000389099121 C15.777999877929688,-22.643999099731445 10.937999725341797,-29.273000717163086 3.8450000286102295,-29.214000701904297 C-5.629000186920166,-29.135000228881836 -11.814000129699707,-26.054000854492188 -17.332000732421875,-20.764999389648438 C-29.759000778198242,-8.852999687194824 -31.19300079345703,6.464000225067139 -26.711999893188477,15.100000381469727z"></path></g><g opacity="1" transform="matrix(1,0,0,1,101.26599884033203,63.069000244140625)"><path fill="rgb(33,15,58)" fill-opacity="1" d=" M10.376999855041504,3.1589999198913574 C8.520000457763672,9.258999824523926 2.36899995803833,12.789999961853027 -3.361999988555908,11.045000076293945 C-9.093000411987305,9.300000190734863 -12.234000205993652,2.940999984741211 -10.376999855041504,-3.1589999198913574 C-8.520000457763672,-9.258999824523926 -2.368000030517578,-12.789999961853027 3.36299991607666,-11.045000076293945 C9.093999862670898,-9.300999641418457 12.234000205993652,-2.940999984741211 10.376999855041504,3.1589999198913574z"></path></g><g opacity="1" transform="matrix(1,0,0,1,111.56800079345703,67.03800201416016)"><path fill="rgb(255,255,255)" fill-opacity="1" d=" M4.73199987411499,1.440000057220459 C3.884999990463257,4.2220001220703125 1.0800000429153442,5.831999778747559 -1.5329999923706055,5.035999774932861 C-4.146999835968018,4.241000175476074 -5.578999996185303,1.340999960899353 -4.73199987411499,-1.440999984741211 C-3.884999990463257,-4.2230000495910645 -1.0800000429153442,-5.833000183105469 1.5329999923706055,-5.0370001792907715 C4.146999835968018,-4.242000102996826 5.578999996185303,-1.3420000076293945 4.73199987411499,1.440000057220459z"></path></g></g></g><g style="display: block;" transform="matrix(1.0009315013885498,0,0,1,147.70736694335938,105.1048583984375)" opacity="1"><g opacity="1" transform="matrix(1,0,0,1,119.86599731445312,39.04199981689453)"><path fill="rgb(229,150,115)" fill-opacity="1" d=" M-50.70800018310547,-19.191999435424805 C-50.70800018310547,-19.191999435424805 -45.051998138427734,-24.041000366210938 -36.16299819946289,-17.576000213623047 C-27.27400016784668,-11.111000061035156 -15.557000160217285,0.6060000061988831 -5.454999923706055,2.627000093460083 C4.645999908447266,4.646999835968018 13.53499984741211,-0.20200000703334808 19.59600067138672,-4.645999908447266 C25.656999588012695,-9.090999603271484 32.930999755859375,-18.384000778198242 39.79899978637695,-18.384000778198242 C46.667999267578125,-18.384000778198242 50.70899963378906,-14.746999740600586 49.49700164794922,-13.939000129699707 C48.28499984741211,-13.130999565124512 20,5.454999923706055 16.76799964904785,8.282999992370605 C13.53499984741211,11.112000465393066 -0.6069999933242798,24.041000366210938 -12.324000358581543,17.57699966430664 C-24.04199981689453,11.112000465393066 -35.354000091552734,-0.6060000061988831 -36.566001892089844,-2.625999927520752 C-37.77799987792969,-4.645999908447266 -46.263999938964844,-16.36400032043457 -46.263999938964844,-16.36400032043457"></path></g><g opacity="1" transform="matrix(1,0,0,1,69.43199920654297,54.983001708984375)"><path stroke-linecap="round" stroke-linejoin="round" fill-opacity="0" stroke="rgb(211,117,70)" stroke-opacity="1" stroke-width="8.667" d=" M-47.76499938964844,-8.831999778747559 C-47.76499938964844,-8.831999778747559 -33.266998291015625,-16.00200080871582 -21.45599937438965,-10.753000259399414 C-9.645000457763672,-5.504000186920166 -9.366000175476074,-0.9079999923706055 1.6319999694824219,11.28499984741211 C17.722999572753906,29.125999450683594 35.5260009765625,30.115999221801758 38.099998474121094,30.788999557495117 C47.76499938964844,33.316001892089844 45.62099838256836,22.742000579833984 45.97100067138672,15.746000289916992 C46.257999420166016,9.99899959564209 45.27299880981445,5.427000045776367 41.77299880981445,3.677000045776367 C38.27399826049805,1.9270000457763672 20.20800018310547,-11.628999710083008 18.160999298095703,-15.211999893188477 C15.798999786376953,-19.3439998626709 8.190999984741211,-30.95400047302246 0.3199999928474426,-33.314998626708984"></path></g><g opacity="1" transform="matrix(1,0,0,1,163.24099731445312,57.215999603271484)"><path stroke-linecap="round" stroke-linejoin="round" fill-opacity="0" stroke="rgb(211,117,70)" stroke-opacity="1" stroke-width="8.667" d=" M48.71200180053711,-3.5399999618530273 C48.71200180053711,-3.5399999618530273 34.28200149536133,-10.88599967956543 24.049999237060547,-6.688000202178955 C18.520000457763672,-4.419000148773193 13.404000282287598,-3.296999931335449 2.01200008392334,8.529000282287598 C-19.469999313354492,30.826000213623047 -41.874000549316406,28.88599967956543 -44.513999938964844,28.555999755859375 C-48.71200180053711,28.0310001373291 -47.26599884033203,20.30299949645996 -47.6619987487793,14.562999725341797 C-48.012001037597656,9.491000175476074 -47.66400146484375,5.031000137329102 -44.16400146484375,3.2809998989105225 C-40.665000915527344,1.531999945640564 -26.323999404907227,-5.113999843597412 -21.60099983215332,-11.14799976348877 C-19.905000686645508,-13.315999984741211 -9.531999588012695,-25.577999114990234 4.110000133514404,-30.826000213623047"></path></g><g opacity="1" transform="matrix(1,0,0,1,62.25899887084961,60.83700180053711)"><path fill="rgb(91,45,14)" fill-opacity="1" d=" M-41.36600112915039,-11.118000030517578 C-46.26300048828125,-12.692000389099121 -45.847999572753906,-18.822999954223633 -44.3390007019043,-19.513999938964844 C-21.426000595092773,-30.007999420166016 -12.532999992370605,-21.66699981689453 -8.833000183105469,-18.812999725341797 C-2.7109999656677246,-14.09000015258789 6.908999919891357,-0.972000002861023 24.39900016784668,9.871999740600586 C32.98099899291992,15.192000389099121 46.26300048828125,18.530000686645508 39.44200134277344,27.71299934387207 C37.73699951171875,30.007999420166016 30.466999053955078,28.944000244140625 23.961999893188477,25.875999450683594 C16.56800079345703,22.38800048828125 7.757999897003174,14.753999710083008 2.3610000610351562,9.170999526977539 C-4.208000183105469,2.375999927520752 -8.192999839782715,-6.5 -17.054000854492188,-11.817000389099121 C-25.798999786376953,-17.06399917602539 -38.68600082397461,-10.255999565124512 -41.36600112915039,-11.118000030517578z"></path></g><g opacity="1" transform="matrix(1,0,0,1,171.23199462890625,65.98899841308594)"><path fill="rgb(91,45,14)" fill-opacity="1" d=" M39.08700180053711,-8.378000259399414 C43.994998931884766,-12.576000213623047 41.41600036621094,-15.920999526977539 40.005001068115234,-16.905000686645508 C30.03499984741211,-23.85700035095215 17.358999252319336,-22.628000259399414 7.210000038146973,-17.95400047302246 C-2.759999990463257,-13.36299991607666 -9.375,-2.6059999465942383 -27.55299949645996,8.23799991607666 C-36.47100067138672,13.559000015258789 -43.99399948120117,12.435999870300293 -39.534000396728516,21.268999099731445 C-38.22700119018555,23.85700035095215 -31.077999114990234,23.024999618530273 -24.31800079345703,19.957000732421875 C-16.634000778198242,16.4689998626709 -11.954000473022461,11.897000312805176 -6.34499979019165,6.314000129699707 C0.4819999933242798,-0.48100000619888306 2.303999900817871,-4.466000080108643 11.800999641418457,-9.164999961853027 C24.263999938964844,-15.331000328063965 36.900001525878906,-6.507999897003174 39.08700180053711,-8.378000259399414z"></path></g></g><g style="display: block;" transform="matrix(1,0,0,1.100000023841858,457.2980041503906,-16.936708450317383)" opacity="1"><g opacity="1" transform="matrix(1,0,0,1,35.84400177001953,248.76600646972656)"><path fill="rgb(87,92,112)" fill-opacity="1" d=" M1.3279999494552612,223.92100524902344 C1.3279999494552612,223.92100524902344 -1.3279999494552612,223.92100524902344 -1.3279999494552612,223.92100524902344 C-6.669000148773193,223.92100524902344 -11,219.59100341796875 -11,214.24899291992188 C-11,214.24899291992188 -11,-214.25 -11,-214.25 C-11,-219.59100341796875 -6.669000148773193,-223.92100524902344 -1.3279999494552612,-223.92100524902344 C-1.3279999494552612,-223.92100524902344 1.3279999494552612,-223.92100524902344 1.3279999494552612,-223.92100524902344 C6.669000148773193,-223.92100524902344 11,-219.59100341796875 11,-214.25 C11,-214.25 11,214.24899291992188 11,214.24899291992188 C11,219.59100341796875 6.669000148773193,223.92100524902344 1.3279999494552612,223.92100524902344z"></path><path stroke-linecap="round" stroke-linejoin="round" fill-opacity="0" stroke="rgb(41,48,58)" stroke-opacity="1" stroke-width="9.938" d=" M1.3279999494552612,223.92100524902344 C1.3279999494552612,223.92100524902344 -1.3279999494552612,223.92100524902344 -1.3279999494552612,223.92100524902344 C-6.669000148773193,223.92100524902344 -11,219.59100341796875 -11,214.24899291992188 C-11,214.24899291992188 -11,-214.25 -11,-214.25 C-11,-219.59100341796875 -6.669000148773193,-223.92100524902344 -1.3279999494552612,-223.92100524902344 C-1.3279999494552612,-223.92100524902344 1.3279999494552612,-223.92100524902344 1.3279999494552612,-223.92100524902344 C6.669000148773193,-223.92100524902344 11,-219.59100341796875 11,-214.25 C11,-214.25 11,214.24899291992188 11,214.24899291992188 C11,219.59100341796875 6.669000148773193,223.92100524902344 1.3279999494552612,223.92100524902344z"></path></g><g opacity="1" transform="matrix(1,0,0,1,32.60900115966797,248.76499938964844)"><path fill="rgb(124,131,153)" fill-opacity="1" d=" M-3.364000082015991,-215.03500366210938 C-3.364000082015991,-215.03500366210938 -2.5889999866485596,-217.16799926757812 -0.5180000066757202,-217.16799926757812 C1.5520000457763672,-217.16799926757812 3.622999906539917,-216.45700073242188 3.622999906539917,-216.45700073242188 C3.622999906539917,-216.45700073242188 0.5180000066757202,217.16799926757812 0.5180000066757202,217.16799926757812 C0.5180000066757202,217.16799926757812 -1.0360000133514404,217.16799926757812 -2.3299999237060547,215.39100646972656 C-3.624000072479248,213.61399841308594 -3.622999906539917,208.2830047607422 -3.622999906539917,208.2830047607422 C-3.622999906539917,208.2830047607422 -3.364000082015991,-215.03500366210938 -3.364000082015991,-215.03500366210938z"></path></g></g><g style="display: block;" transform="matrix(1,0,0,1.100000023841858,321.2720031738281,-16.93669319152832)" opacity="1"><g opacity="1" transform="matrix(1,0,0,1,35.84400177001953,248.76600646972656)"><path fill="rgb(87,92,112)" fill-opacity="1" d=" M1.3279999494552612,223.92100524902344 C1.3279999494552612,223.92100524902344 -1.3279999494552612,223.92100524902344 -1.3279999494552612,223.92100524902344 C-6.669000148773193,223.92100524902344 -11,219.59100341796875 -11,214.24899291992188 C-11,214.24899291992188 -11,114.83699798583984 -11,65.13099670410156 C-11,-27.996000289916992 -11,-214.25 -11,-214.25 C-11,-219.59100341796875 -6.669000148773193,-223.92100524902344 -1.3279999494552612,-223.92100524902344 C-1.3279999494552612,-223.92100524902344 1.3279999494552612,-223.92100524902344 1.3279999494552612,-223.92100524902344 C6.669000148773193,-223.92100524902344 11,-219.59100341796875 11,-214.25 C11,-214.25 11,-28.663000106811523 11,64.13099670410156 C11,114.16999816894531 11,214.24899291992188 11,214.24899291992188 C11,219.59100341796875 6.669000148773193,223.92100524902344 1.3279999494552612,223.92100524902344z"></path><path stroke-linecap="round" stroke-linejoin="round" fill-opacity="0" stroke="rgb(41,48,58)" stroke-opacity="1" stroke-width="9.938" d=" M1.3279999494552612,223.92100524902344 C1.3279999494552612,223.92100524902344 -1.3279999494552612,223.92100524902344 -1.3279999494552612,223.92100524902344 C-6.669000148773193,223.92100524902344 -11,219.59100341796875 -11,214.24899291992188 C-11,214.24899291992188 -11,114.83699798583984 -11,65.13099670410156 C-11,-27.996000289916992 -11,-214.25 -11,-214.25 C-11,-219.59100341796875 -6.669000148773193,-223.92100524902344 -1.3279999494552612,-223.92100524902344 C-1.3279999494552612,-223.92100524902344 1.3279999494552612,-223.92100524902344 1.3279999494552612,-223.92100524902344 C6.669000148773193,-223.92100524902344 11,-219.59100341796875 11,-214.25 C11,-214.25 11,-28.663000106811523 11,64.13099670410156 C11,114.16999816894531 11,214.24899291992188 11,214.24899291992188 C11,219.59100341796875 6.669000148773193,223.92100524902344 1.3279999494552612,223.92100524902344z"></path></g><g opacity="1" transform="matrix(1,0,0,1,32.60900115966797,248.76499938964844)"><path fill="rgb(160,169,186)" fill-opacity="1" d=" M-3.364000082015991,-215.03500366210938 C-3.364000082015991,-215.03500366210938 -2.5889999866485596,-217.16799926757812 -0.5180000066757202,-217.16799926757812 C1.5520000457763672,-217.16799926757812 3.622999906539917,-216.45700073242188 3.622999906539917,-216.45700073242188 C3.622999906539917,-216.45700073242188 1.9500000476837158,17.242000579833984 1.9500000476837158,17.242000579833984 C1.9500000476837158,17.242000579833984 0.5180000066757202,217.16799926757812 0.5180000066757202,217.16799926757812 C0.5180000066757202,217.16799926757812 -1.0360000133514404,217.16799926757812 -2.3299999237060547,215.39100646972656 C-3.624000072479248,213.61399841308594 -3.622999906539917,208.2830047607422 -3.622999906539917,208.2830047607422 C-3.622999906539917,208.2830047607422 -3.5139999389648438,29.516000747680664 -3.5139999389648438,29.516000747680664 C-3.5139999389648438,29.516000747680664 -3.364000082015991,-215.03500366210938 -3.364000082015991,-215.03500366210938z"></path></g></g><g style="display: block;" transform="matrix(1,0,0,1.100000023841858,124.42399597167969,-14.590396881103516)" opacity="1"><g opacity="1" transform="matrix(1,0,0,1,35.84400177001953,248.76600646972656)"><path fill="rgb(87,92,112)" fill-opacity="1" d=" M1.3270000219345093,223.92100524902344 C1.3270000219345093,223.92100524902344 -1.3289999961853027,223.92100524902344 -1.3289999961853027,223.92100524902344 C-6.670000076293945,223.92100524902344 -11,219.59100341796875 -11,214.24899291992188 C-11,214.24899291992188 -11.07699966430664,56.444000244140625 -11.07699966430664,56.444000244140625 C-11.07699966430664,56.444000244140625 -11,-214.25 -11,-214.25 C-11,-219.59100341796875 -6.670000076293945,-223.92100524902344 -1.3289999961853027,-223.92100524902344 C-1.3289999961853027,-223.92100524902344 1.3270000219345093,-223.92100524902344 1.3270000219345093,-223.92100524902344 C6.668000221252441,-223.92100524902344 11,-219.59100341796875 11,-214.25 C11,-214.25 10.92199993133545,54.952999114990234 10.92199993133545,54.952999114990234 C10.92199993133545,54.952999114990234 11,214.24899291992188 11,214.24899291992188 C11,219.59100341796875 6.668000221252441,223.92100524902344 1.3270000219345093,223.92100524902344z"></path><path stroke-linecap="round" stroke-linejoin="round" fill-opacity="0" stroke="rgb(41,48,58)" stroke-opacity="1" stroke-width="9.938" d=" M1.3270000219345093,223.92100524902344 C1.3270000219345093,223.92100524902344 -1.3289999961853027,223.92100524902344 -1.3289999961853027,223.92100524902344 C-6.670000076293945,223.92100524902344 -11,219.59100341796875 -11,214.24899291992188 C-11,214.24899291992188 -11.07699966430664,56.444000244140625 -11.07699966430664,56.444000244140625 C-11.07699966430664,56.444000244140625 -11,-214.25 -11,-214.25 C-11,-219.59100341796875 -6.670000076293945,-223.92100524902344 -1.3289999961853027,-223.92100524902344 C-1.3289999961853027,-223.92100524902344 1.3270000219345093,-223.92100524902344 1.3270000219345093,-223.92100524902344 C6.668000221252441,-223.92100524902344 11,-219.59100341796875 11,-214.25 C11,-214.25 10.92199993133545,54.952999114990234 10.92199993133545,54.952999114990234 C10.92199993133545,54.952999114990234 11,214.24899291992188 11,214.24899291992188 C11,219.59100341796875 6.668000221252441,223.92100524902344 1.3270000219345093,223.92100524902344z"></path></g><g opacity="1" transform="matrix(1,0,0,1,32.60900115966797,248.76499938964844)"><path fill="rgb(160,169,186)" fill-opacity="1" d=" M-3.365000009536743,-215.03500366210938 C-3.365000009536743,-215.03500366210938 -2.5889999866485596,-217.16799926757812 -0.5180000066757202,-217.16799926757812 C1.5520000457763672,-217.16799926757812 3.624000072479248,-216.45700073242188 3.624000072479248,-216.45700073242188 C3.624000072479248,-216.45700073242188 1.753999948501587,44.54800033569336 1.753999948501587,44.54800033569336 C1.753999948501587,44.54800033569336 0.5180000066757202,217.16799926757812 0.5180000066757202,217.16799926757812 C0.5180000066757202,217.16799926757812 -1.0360000133514404,217.16799926757812 -2.3299999237060547,215.39100646972656 C-3.624000072479248,213.61399841308594 -3.624000072479248,208.2830047607422 -3.624000072479248,208.2830047607422 C-3.624000072479248,208.2830047607422 -3.5269999504089355,51.37699890136719 -3.5269999504089355,51.37699890136719 C-3.5269999504089355,51.37699890136719 -3.365000009536743,-215.03500366210938 -3.365000009536743,-215.03500366210938z"></path></g></g><g style="display: block;" transform="matrix(1,0,0,1.100000023841858,-15.996002197265625,-16.936708450317383)" opacity="1"><g opacity="1" transform="matrix(1,0,0,1,35.84400177001953,248.76600646972656)"><path fill="rgb(87,92,112)" fill-opacity="1" d=" M1.3270000219345093,223.92100524902344 C1.3270000219345093,223.92100524902344 -1.3289999961853027,223.92100524902344 -1.3289999961853027,223.92100524902344 C-6.670000076293945,223.92100524902344 -10.99899959564209,219.59100341796875 -10.99899959564209,214.24899291992188 C-10.99899959564209,214.24899291992188 -10.99899959564209,-214.25 -10.99899959564209,-214.25 C-10.99899959564209,-219.59100341796875 -6.670000076293945,-223.92100524902344 -1.3289999961853027,-223.92100524902344 C-1.3289999961853027,-223.92100524902344 1.3270000219345093,-223.92100524902344 1.3270000219345093,-223.92100524902344 C6.668000221252441,-223.92100524902344 10.99899959564209,-219.59100341796875 10.99899959564209,-214.25 C10.99899959564209,-214.25 10.99899959564209,214.24899291992188 10.99899959564209,214.24899291992188 C10.99899959564209,219.59100341796875 6.668000221252441,223.92100524902344 1.3270000219345093,223.92100524902344z"></path><path stroke-linecap="round" stroke-linejoin="round" fill-opacity="0" stroke="rgb(41,48,58)" stroke-opacity="1" stroke-width="9.938" d=" M1.3270000219345093,223.92100524902344 C1.3270000219345093,223.92100524902344 -1.3289999961853027,223.92100524902344 -1.3289999961853027,223.92100524902344 C-6.670000076293945,223.92100524902344 -10.99899959564209,219.59100341796875 -10.99899959564209,214.24899291992188 C-10.99899959564209,214.24899291992188 -10.99899959564209,-214.25 -10.99899959564209,-214.25 C-10.99899959564209,-219.59100341796875 -6.670000076293945,-223.92100524902344 -1.3289999961853027,-223.92100524902344 C-1.3289999961853027,-223.92100524902344 1.3270000219345093,-223.92100524902344 1.3270000219345093,-223.92100524902344 C6.668000221252441,-223.92100524902344 10.99899959564209,-219.59100341796875 10.99899959564209,-214.25 C10.99899959564209,-214.25 10.99899959564209,214.24899291992188 10.99899959564209,214.24899291992188 C10.99899959564209,219.59100341796875 6.668000221252441,223.92100524902344 1.3270000219345093,223.92100524902344z"></path></g><g opacity="1" transform="matrix(1,0,0,1,32.60900115966797,248.76499938964844)"><path fill="rgb(124,131,153)" fill-opacity="1" d=" M-3.365000009536743,-215.03500366210938 C-3.365000009536743,-215.03500366210938 -2.5889999866485596,-217.16799926757812 -0.5180000066757202,-217.16799926757812 C1.5520000457763672,-217.16799926757812 3.624000072479248,-216.45700073242188 3.624000072479248,-216.45700073242188 C3.624000072479248,-216.45700073242188 0.5180000066757202,217.16799926757812 0.5180000066757202,217.16799926757812 C0.5180000066757202,217.16799926757812 -1.034999966621399,217.16799926757812 -2.3289999961853027,215.39100646972656 C-3.622999906539917,213.61399841308594 -3.624000072479248,208.2830047607422 -3.624000072479248,208.2830047607422 C-3.624000072479248,208.2830047607422 -3.365000009536743,-215.03500366210938 -3.365000009536743,-215.03500366210938z"></path></g></g><g style="display: block;" transform="matrix(1,0,0,1.100000023841858,79.81199645996094,257.07550048828125)" opacity="1"><g opacity="1" transform="matrix(1,0,0,1,56.59199905395508,76.43699645996094)"><path fill="rgb(237,155,119)" fill-opacity="1" d=" M-9.729999542236328,-46.5620002746582 C-9.729999542236328,-46.5620002746582 -34.47700119018555,-11.373000144958496 -34.47700119018555,13.151000022888184 C-34.47700119018555,26.320999145507812 -29.500999450683594,42.29600143432617 -10.307999610900879,44.428001403808594 C8.88599967956543,46.56100082397461 34.47700119018555,27.724000930786133 34.47700119018555,27.724000930786133 C34.47700119018555,27.724000930786133 11.017999649047852,-23.104000091552734 11.017999649047852,-23.104000091552734 C11.017999649047852,-23.104000091552734 -9.729999542236328,-46.5620002746582 -9.729999542236328,-46.5620002746582z"></path><path stroke-linecap="round" stroke-linejoin="round" fill-opacity="0" stroke="rgb(173,79,42)" stroke-opacity="1" stroke-width="8.846" d=" M-9.729999542236328,-46.5620002746582 C-9.729999542236328,-46.5620002746582 -34.47700119018555,-11.373000144958496 -34.47700119018555,13.151000022888184 C-34.47700119018555,26.320999145507812 -29.500999450683594,42.29600143432617 -10.307999610900879,44.428001403808594 C8.88599967956543,46.56100082397461 34.47700119018555,27.724000930786133 34.47700119018555,27.724000930786133 C34.47700119018555,27.724000930786133 11.017999649047852,-23.104000091552734 11.017999649047852,-23.104000091552734 C11.017999649047852,-23.104000091552734 -9.729999542236328,-46.5620002746582 -9.729999542236328,-46.5620002746582z"></path></g><g opacity="1" transform="matrix(1,0,0,1,121.94400024414062,58.60900115966797)"><path fill="rgb(249,194,161)" fill-opacity="1" d=" M-21.70199966430664,-25.767000198364258 C-21.70199966430664,-25.767000198364258 5.85699987411499,-26.395000457763672 11.135000228881836,-24.823999404907227 C16.41200065612793,-23.253000259399414 19.049999237060547,-18.22599983215332 19.3439998626709,-10.99899959564209 C19.636999130249023,-3.7709999084472656 21.70199966430664,21.340999603271484 20.52899932861328,21.9689998626709 C16.301000595092773,24.235000610351562 5.270999908447266,26.393999099731445 0.8730000257492065,15.395999908447266 C-1.1440000534057617,10.35200023651123 -2.937999963760376,-6.913000106811523 -2.937999963760376,-6.913000106811523 C-2.937999963760376,-6.913000106811523 -15.838000297546387,-6.284999847412109 -15.838000297546387,-6.284999847412109 C-15.838000297546387,-6.284999847412109 -21.70199966430664,-25.767000198364258 -21.70199966430664,-25.767000198364258z"></path><path stroke-linecap="round" stroke-linejoin="round" fill-opacity="0" stroke="rgb(173,79,42)" stroke-opacity="1" stroke-width="10.087" d=" M-21.70199966430664,-25.767000198364258 C-21.70199966430664,-25.767000198364258 5.85699987411499,-26.395000457763672 11.135000228881836,-24.823999404907227 C16.41200065612793,-23.253000259399414 19.049999237060547,-18.22599983215332 19.3439998626709,-10.99899959564209 C19.636999130249023,-3.7709999084472656 21.70199966430664,21.340999603271484 20.52899932861328,21.9689998626709 C16.301000595092773,24.235000610351562 5.270999908447266,26.393999099731445 0.8730000257492065,15.395999908447266 C-1.1440000534057617,10.35200023651123 -2.937999963760376,-6.913000106811523 -2.937999963760376,-6.913000106811523 C-2.937999963760376,-6.913000106811523 -15.838000297546387,-6.284999847412109 -15.838000297546387,-6.284999847412109 C-15.838000297546387,-6.284999847412109 -21.70199966430664,-25.767000198364258 -21.70199966430664,-25.767000198364258z"></path></g><g opacity="1" transform="matrix(1,0,0,1,81.90399932861328,69.06999969482422)"><path fill="rgb(249,194,161)" fill-opacity="1" d=" M-35.53799819946289,-23.525999069213867 C-35.53799819946289,-23.525999069213867 -42.08599853515625,-37.40299987792969 -30.065000534057617,-41.507999420166016 C-23.201000213623047,-43.85200119018555 23.615999221801758,-42.875999450683594 28.89299964904785,-42.290000915527344 C34.16999816894531,-41.702999114990234 42.965999603271484,-35.400001525878906 40.619998931884766,-27.777000427246094 C38.16899871826172,-19.812000274658203 34.000999450683594,-19.290000915527344 34.000999450683594,-19.290000915527344 C34.000999450683594,-19.290000915527344 38.90999984741211,-13.663000106811523 38.861000061035156,-7.107999801635742 C38.79899978637695,1.2359999418258667 31.868000030517578,4.434999942779541 31.868000030517578,4.434999942779541 C31.868000030517578,4.434999942779541 39.15399932861328,8.871000289916992 38.12799835205078,16.639999389648438 C37.25299835205078,23.26799964904785 33.87699890136719,25.582000732421875 30.06599998474121,26.02199935913086 C28.16699981689453,26.240999221801758 25.667999267578125,26.461999893188477 25.667999267578125,26.461999893188477 C25.667999267578125,26.461999893188477 26.53700065612793,35.8380012512207 23.604999542236328,39.35599899291992 C20.67300033569336,42.874000549316406 14.538999557495117,43.85200119018555 8.675999641418457,43.26599884033203 C2.812000036239624,42.67900085449219 -24.422000885009766,41.63999938964844 -29.354000091552734,40.58300018310547 C-33.45800018310547,39.70399856567383 -36.02899932861328,35.71200180053711 -36.222999572753906,29.736000061035156 C-36.39500045776367,24.42799949645996 -33.974998474121094,22.211000442504883 -33.974998474121094,22.211000442504883 C-33.974998474121094,22.211000442504883 -40.347999572753906,18.320999145507812 -40.619998931884766,11.265000343322754 C-41.01100158691406,1.1009999513626099 -34.3650016784668,0.7099999785423279 -34.3650016784668,0.7099999785423279 C-34.3650016784668,0.7099999785423279 -42.965999603271484,-5.1529998779296875 -40.27899932861328,-15.756999969482422 C-39.18199920654297,-20.084999084472656 -35.53799819946289,-23.525999069213867 -35.53799819946289,-23.525999069213867z"></path><path stroke-linecap="round" stroke-linejoin="round" fill-opacity="0" stroke="rgb(173,79,42)" stroke-opacity="1" stroke-width="10.087" d=" M-35.53799819946289,-23.525999069213867 C-35.53799819946289,-23.525999069213867 -42.08599853515625,-37.40299987792969 -30.065000534057617,-41.507999420166016 C-23.201000213623047,-43.85200119018555 23.615999221801758,-42.875999450683594 28.89299964904785,-42.290000915527344 C34.16999816894531,-41.702999114990234 42.965999603271484,-35.400001525878906 40.619998931884766,-27.777000427246094 C38.16899871826172,-19.812000274658203 34.000999450683594,-19.290000915527344 34.000999450683594,-19.290000915527344 C34.000999450683594,-19.290000915527344 38.90999984741211,-13.663000106811523 38.861000061035156,-7.107999801635742 C38.79899978637695,1.2359999418258667 31.868000030517578,4.434999942779541 31.868000030517578,4.434999942779541 C31.868000030517578,4.434999942779541 39.15399932861328,8.871000289916992 38.12799835205078,16.639999389648438 C37.25299835205078,23.26799964904785 33.87699890136719,25.582000732421875 30.06599998474121,26.02199935913086 C28.16699981689453,26.240999221801758 25.667999267578125,26.461999893188477 25.667999267578125,26.461999893188477 C25.667999267578125,26.461999893188477 26.53700065612793,35.8380012512207 23.604999542236328,39.35599899291992 C20.67300033569336,42.874000549316406 14.538999557495117,43.85200119018555 8.675999641418457,43.26599884033203 C2.812000036239624,42.67900085449219 -24.422000885009766,41.63999938964844 -29.354000091552734,40.58300018310547 C-33.45800018310547,39.70399856567383 -36.02899932861328,35.71200180053711 -36.222999572753906,29.736000061035156 C-36.39500045776367,24.42799949645996 -33.974998474121094,22.211000442504883 -33.974998474121094,22.211000442504883 C-33.974998474121094,22.211000442504883 -40.347999572753906,18.320999145507812 -40.619998931884766,11.265000343322754 C-41.01100158691406,1.1009999513626099 -34.3650016784668,0.7099999785423279 -34.3650016784668,0.7099999785423279 C-34.3650016784668,0.7099999785423279 -42.965999603271484,-5.1529998779296875 -40.27899932861328,-15.756999969482422 C-39.18199920654297,-20.084999084472656 -35.53799819946289,-23.525999069213867 -35.53799819946289,-23.525999069213867z"></path></g><g opacity="1" transform="matrix(1,0,0,1,96.13700103759766,49.35499954223633)"><path fill="rgb(249,194,161)" fill-opacity="1" d=" M-17.590999603271484,-0.8799999952316284 C-17.590999603271484,-0.8799999952316284 6.136000156402588,-0.2930000126361847 10.22700023651123,0.0010000000474974513 C14.317999839782715,0.2939999997615814 17.590999603271484,0.8799999952316284 17.590999603271484,0.8799999952316284"></path><path stroke-linecap="round" stroke-linejoin="round" fill-opacity="0" stroke="rgb(173,79,42)" stroke-opacity="1" stroke-width="10.087" d=" M-17.590999603271484,-0.8799999952316284 C-17.590999603271484,-0.8799999952316284 6.136000156402588,-0.2930000126361847 10.22700023651123,0.0010000000474974513 C14.317999839782715,0.2939999997615814 17.590999603271484,0.8799999952316284 17.590999603271484,0.8799999952316284"></path></g><g opacity="1" transform="matrix(1,0,0,1,98.63899993896484,73.50399780273438)"><path fill="rgb(249,194,161)" fill-opacity="1" d=" M-16.59000015258789,-1.065999984741211 C-16.59000015258789,-1.065999984741211 6.7769999504089355,-0.2919999957084656 10.868000030517578,0.0010000000474974513 C14.958999633789062,0.2939999997615814 16.59000015258789,1.065999984741211 16.59000015258789,1.065999984741211"></path><path stroke-linecap="round" stroke-linejoin="round" fill-opacity="0" stroke="rgb(173,79,42)" stroke-opacity="1" stroke-width="10.087" d=" M-16.59000015258789,-1.065999984741211 C-16.59000015258789,-1.065999984741211 6.7769999504089355,-0.2919999957084656 10.868000030517578,0.0010000000474974513 C14.958999633789062,0.2939999997615814 16.59000015258789,1.065999984741211 16.59000015258789,1.065999984741211"></path></g><g opacity="1" transform="matrix(1,0,0,1,96.5780029296875,94.56300354003906)"><path fill="rgb(249,194,161)" fill-opacity="1" d=" M-11.329000473022461,-0.5329999923706055 C-11.329000473022461,-0.5329999923706055 7.609000205993652,0.2669999897480011 11.329000473022461,0.5329999923706055"></path><path stroke-linecap="round" stroke-linejoin="round" fill-opacity="0" stroke="rgb(173,79,42)" stroke-opacity="1" stroke-width="10.087" d=" M-11.329000473022461,-0.5329999923706055 C-11.329000473022461,-0.5329999923706055 7.609000205993652,0.2669999897480011 11.329000473022461,0.5329999923706055"></path></g><g opacity="1" transform="matrix(1,0,0,1,57.79199981689453,109.75900268554688)"><path fill="rgb(237,155,119)" fill-opacity="1" d=" M-16.79400062561035,-3.999000072479248 C-16.79400062561035,-3.999000072479248 -12.529000282287598,1.4210000038146973 -8.263999938964844,-0.9779999852180481 C-3.999000072479248,-3.377000093460083 -6.576000213623047,-7.464000225067139 -6.576000213623047,-7.464000225067139 C-6.576000213623047,-7.464000225067139 -3.4649999141693115,-4.798999786376953 5.5980000495910645,-3.999000072479248 C14.753999710083008,-3.190999984741211 20.570999145507812,-4.710000038146973 18.749000549316406,-2.4000000953674316 C16.503999710083008,0.4480000138282776 5.019999980926514,7.464000225067139 -6.710000038146973,6.929999828338623 C-16.843000411987305,6.46999979019165 -20.56999969482422,1.3320000171661377 -20.56999969482422,1.3320000171661377 C-20.56999969482422,1.3320000171661377 -16.79400062561035,-3.999000072479248 -16.79400062561035,-3.999000072479248z"></path></g></g><g style="display: block;" transform="matrix(1,0,0,1.100000023841858,270.135009765625,264.1078186035156)" opacity="1"><g opacity="1" transform="matrix(1,0,0,1,112.27100372314453,76.43699645996094)"><path fill="rgb(237,155,119)" fill-opacity="1" d=" M9.729999542236328,-46.5620002746582 C9.729999542236328,-46.5620002746582 34.47700119018555,-11.373000144958496 34.47700119018555,13.151000022888184 C34.47700119018555,26.320999145507812 29.500999450683594,42.29600143432617 10.307999610900879,44.428001403808594 C-8.88599967956543,46.56100082397461 -34.47700119018555,27.724000930786133 -34.47700119018555,27.724000930786133 C-34.47700119018555,27.724000930786133 -11.017999649047852,-23.104000091552734 -11.017999649047852,-23.104000091552734 C-11.017999649047852,-23.104000091552734 9.729999542236328,-46.5620002746582 9.729999542236328,-46.5620002746582z"></path><path stroke-linecap="round" stroke-linejoin="round" fill-opacity="0" stroke="rgb(173,79,42)" stroke-opacity="1" stroke-width="8.846" d=" M9.729999542236328,-46.5620002746582 C9.729999542236328,-46.5620002746582 34.47700119018555,-11.373000144958496 34.47700119018555,13.151000022888184 C34.47700119018555,26.320999145507812 29.500999450683594,42.29600143432617 10.307999610900879,44.428001403808594 C-8.88599967956543,46.56100082397461 -34.47700119018555,27.724000930786133 -34.47700119018555,27.724000930786133 C-34.47700119018555,27.724000930786133 -11.017999649047852,-23.104000091552734 -11.017999649047852,-23.104000091552734 C-11.017999649047852,-23.104000091552734 9.729999542236328,-46.5620002746582 9.729999542236328,-46.5620002746582z"></path></g><g opacity="1" transform="matrix(1,0,0,1,46.91999816894531,58.60900115966797)"><path fill="rgb(249,194,161)" fill-opacity="1" d=" M21.70199966430664,-25.767000198364258 C21.70199966430664,-25.767000198364258 -5.85699987411499,-26.395000457763672 -11.135000228881836,-24.823999404907227 C-16.41200065612793,-23.253000259399414 -19.049999237060547,-18.22599983215332 -19.3439998626709,-10.99899959564209 C-19.636999130249023,-3.7709999084472656 -21.70199966430664,21.340999603271484 -20.52899932861328,21.9689998626709 C-16.301000595092773,24.235000610351562 -5.270999908447266,26.393999099731445 -0.8730000257492065,15.395999908447266 C1.1440000534057617,10.35200023651123 2.937999963760376,-6.913000106811523 2.937999963760376,-6.913000106811523 C2.937999963760376,-6.913000106811523 15.838000297546387,-6.284999847412109 15.838000297546387,-6.284999847412109 C15.838000297546387,-6.284999847412109 21.70199966430664,-25.767000198364258 21.70199966430664,-25.767000198364258z"></path><path stroke-linecap="round" stroke-linejoin="round" fill-opacity="0" stroke="rgb(173,79,42)" stroke-opacity="1" stroke-width="10.087" d=" M21.70199966430664,-25.767000198364258 C21.70199966430664,-25.767000198364258 -5.85699987411499,-26.395000457763672 -11.135000228881836,-24.823999404907227 C-16.41200065612793,-23.253000259399414 -19.049999237060547,-18.22599983215332 -19.3439998626709,-10.99899959564209 C-19.636999130249023,-3.7709999084472656 -21.70199966430664,21.340999603271484 -20.52899932861328,21.9689998626709 C-16.301000595092773,24.235000610351562 -5.270999908447266,26.393999099731445 -0.8730000257492065,15.395999908447266 C1.1440000534057617,10.35200023651123 2.937999963760376,-6.913000106811523 2.937999963760376,-6.913000106811523 C2.937999963760376,-6.913000106811523 15.838000297546387,-6.284999847412109 15.838000297546387,-6.284999847412109 C15.838000297546387,-6.284999847412109 21.70199966430664,-25.767000198364258 21.70199966430664,-25.767000198364258z"></path></g><g opacity="1" transform="matrix(1,0,0,1,86.95899963378906,69.06999969482422)"><path fill="rgb(249,194,161)" fill-opacity="1" d=" M35.53900146484375,-23.525999069213867 C35.53900146484375,-23.525999069213867 42.08599853515625,-37.40299987792969 30.065000534057617,-41.507999420166016 C23.201000213623047,-43.85200119018555 -23.614999771118164,-42.875999450683594 -28.892000198364258,-42.290000915527344 C-34.16899871826172,-41.702999114990234 -42.965999603271484,-35.400001525878906 -40.619998931884766,-27.777000427246094 C-38.16899871826172,-19.812000274658203 -34,-19.290000915527344 -34,-19.290000915527344 C-34,-19.290000915527344 -38.90999984741211,-13.663000106811523 -38.861000061035156,-7.107999801635742 C-38.79899978637695,1.2359999418258667 -31.868000030517578,4.434999942779541 -31.868000030517578,4.434999942779541 C-31.868000030517578,4.434999942779541 -39.15399932861328,8.871000289916992 -38.12799835205078,16.639999389648438 C-37.25299835205078,23.26799964904785 -33.875999450683594,25.582000732421875 -30.065000534057617,26.02199935913086 C-28.166000366210938,26.240999221801758 -25.667999267578125,26.461999893188477 -25.667999267578125,26.461999893188477 C-25.667999267578125,26.461999893188477 -26.535999298095703,35.8380012512207 -23.604000091552734,39.35599899291992 C-20.672000885009766,42.874000549316406 -14.539999961853027,43.85200119018555 -8.677000045776367,43.26599884033203 C-2.812999963760376,42.67900085449219 24.42099952697754,41.63999938964844 29.35300064086914,40.58300018310547 C33.457000732421875,39.70399856567383 36.02899932861328,35.71200180053711 36.222999572753906,29.736000061035156 C36.39500045776367,24.42799949645996 33.9739990234375,22.211000442504883 33.9739990234375,22.211000442504883 C33.9739990234375,22.211000442504883 40.347999572753906,18.320999145507812 40.619998931884766,11.265000343322754 C41.01100158691406,1.1009999513626099 34.36600112915039,0.7099999785423279 34.36600112915039,0.7099999785423279 C34.36600112915039,0.7099999785423279 42.965999603271484,-5.1529998779296875 40.27899932861328,-15.756999969482422 C39.18199920654297,-20.084999084472656 35.53900146484375,-23.525999069213867 35.53900146484375,-23.525999069213867z"></path><path stroke-linecap="round" stroke-linejoin="round" fill-opacity="0" stroke="rgb(173,79,42)" stroke-opacity="1" stroke-width="10.087" d=" M35.53900146484375,-23.525999069213867 C35.53900146484375,-23.525999069213867 42.08599853515625,-37.40299987792969 30.065000534057617,-41.507999420166016 C23.201000213623047,-43.85200119018555 -23.614999771118164,-42.875999450683594 -28.892000198364258,-42.290000915527344 C-34.16899871826172,-41.702999114990234 -42.965999603271484,-35.400001525878906 -40.619998931884766,-27.777000427246094 C-38.16899871826172,-19.812000274658203 -34,-19.290000915527344 -34,-19.290000915527344 C-34,-19.290000915527344 -38.90999984741211,-13.663000106811523 -38.861000061035156,-7.107999801635742 C-38.79899978637695,1.2359999418258667 -31.868000030517578,4.434999942779541 -31.868000030517578,4.434999942779541 C-31.868000030517578,4.434999942779541 -39.15399932861328,8.871000289916992 -38.12799835205078,16.639999389648438 C-37.25299835205078,23.26799964904785 -33.875999450683594,25.582000732421875 -30.065000534057617,26.02199935913086 C-28.166000366210938,26.240999221801758 -25.667999267578125,26.461999893188477 -25.667999267578125,26.461999893188477 C-25.667999267578125,26.461999893188477 -26.535999298095703,35.8380012512207 -23.604000091552734,39.35599899291992 C-20.672000885009766,42.874000549316406 -14.539999961853027,43.85200119018555 -8.677000045776367,43.26599884033203 C-2.812999963760376,42.67900085449219 24.42099952697754,41.63999938964844 29.35300064086914,40.58300018310547 C33.457000732421875,39.70399856567383 36.02899932861328,35.71200180053711 36.222999572753906,29.736000061035156 C36.39500045776367,24.42799949645996 33.9739990234375,22.211000442504883 33.9739990234375,22.211000442504883 C33.9739990234375,22.211000442504883 40.347999572753906,18.320999145507812 40.619998931884766,11.265000343322754 C41.01100158691406,1.1009999513626099 34.36600112915039,0.7099999785423279 34.36600112915039,0.7099999785423279 C34.36600112915039,0.7099999785423279 42.965999603271484,-5.1529998779296875 40.27899932861328,-15.756999969482422 C39.18199920654297,-20.084999084472656 35.53900146484375,-23.525999069213867 35.53900146484375,-23.525999069213867z"></path></g><g opacity="1" transform="matrix(1,0,0,1,72.72599792480469,49.35499954223633)"><path fill="rgb(249,194,161)" fill-opacity="1" d=" M17.590999603271484,-0.8799999952316284 C17.590999603271484,-0.8799999952316284 -6.136000156402588,-0.2930000126361847 -10.22700023651123,0.0010000000474974513 C-14.317999839782715,0.2939999997615814 -17.590999603271484,0.8799999952316284 -17.590999603271484,0.8799999952316284"></path><path stroke-linecap="round" stroke-linejoin="round" fill-opacity="0" stroke="rgb(173,79,42)" stroke-opacity="1" stroke-width="10.087" d=" M17.590999603271484,-0.8799999952316284 C17.590999603271484,-0.8799999952316284 -6.136000156402588,-0.2930000126361847 -10.22700023651123,0.0010000000474974513 C-14.317999839782715,0.2939999997615814 -17.590999603271484,0.8799999952316284 -17.590999603271484,0.8799999952316284"></path></g><g opacity="1" transform="matrix(1,0,0,1,70.2239990234375,73.50399780273438)"><path fill="rgb(249,194,161)" fill-opacity="1" d=" M16.59000015258789,-1.065999984741211 C16.59000015258789,-1.065999984741211 -6.776000022888184,-0.2919999957084656 -10.866999626159668,0.0010000000474974513 C-14.958000183105469,0.2939999997615814 -16.59000015258789,1.065999984741211 -16.59000015258789,1.065999984741211"></path><path stroke-linecap="round" stroke-linejoin="round" fill-opacity="0" stroke="rgb(173,79,42)" stroke-opacity="1" stroke-width="10.087" d=" M16.59000015258789,-1.065999984741211 C16.59000015258789,-1.065999984741211 -6.776000022888184,-0.2919999957084656 -10.866999626159668,0.0010000000474974513 C-14.958000183105469,0.2939999997615814 -16.59000015258789,1.065999984741211 -16.59000015258789,1.065999984741211"></path></g><g opacity="1" transform="matrix(1,0,0,1,72.28500366210938,94.56300354003906)"><path fill="rgb(249,194,161)" fill-opacity="1" d=" M11.329999923706055,-0.5329999923706055 C11.329999923706055,-0.5329999923706055 -7.610000133514404,0.2669999897480011 -11.329999923706055,0.5329999923706055"></path><path stroke-linecap="round" stroke-linejoin="round" fill-opacity="0" stroke="rgb(173,79,42)" stroke-opacity="1" stroke-width="10.087" d=" M11.329999923706055,-0.5329999923706055 C11.329999923706055,-0.5329999923706055 -7.610000133514404,0.2669999897480011 -11.329999923706055,0.5329999923706055"></path></g><g opacity="1" transform="matrix(1,0,0,1,112.73200225830078,108.63999938964844)"><path fill="rgb(237,155,119)" fill-opacity="1" d=" M15.704999923706055,-5.783999919891357 C15.704999923706055,-5.783999919891357 11.387999534606934,1.9479999542236328 7.123000144958496,-0.7429999709129333 C2.8580000400543213,-3.434000015258789 4.670000076293945,-8.371999740600586 4.670000076293945,-8.371999740600586 C4.670000076293945,-8.371999740600586 3.4660000801086426,-5.38100004196167 -5.5970001220703125,-4.484000205993652 C-14.753000259399414,-3.578000068664551 -20.56999969482422,-5.2820000648498535 -18.74799919128418,-2.690999984741211 C-16.503000259399414,0.503000020980835 -5.020999908447266,8.371000289916992 6.709000110626221,7.7729997634887695 C16.841999053955078,7.25600004196167 20.570999145507812,1.49399995803833 20.570999145507812,1.49399995803833 C20.570999145507812,1.49399995803833 15.704999923706055,-5.783999919891357 15.704999923706055,-5.783999919891357z"></path></g></g></g></g></svg>