<svg xmlns="http://www.w3.org/2000/svg" xmlns:xlink="http://www.w3.org/1999/xlink" viewBox="0 0 512 512" width="512" height="512" style="width: 100%; height: 100%; transform: translate3d(0,0,0); content-visibility: visible;" preserveAspectRatio="xMidYMid meet"><defs><clipPath id="__lottie_element_2"><rect width="512" height="512" x="0" y="0"></rect></clipPath><radialGradient id="__lottie_element_10" spreadMethod="pad" gradientUnits="userSpaceOnUse" cx="-125.95099639892578" cy="-215.0590057373047" r="388.0634326159826" fx="-125.95099639892578" fy="-215.0590057373047"><stop offset="1%" stop-color="rgb(251,233,214)"></stop><stop offset="43%" stop-color="rgb(251,233,214)"></stop><stop offset="67%" stop-color="rgb(251,233,214)"></stop><stop offset="83%" stop-color="rgb(248,210,181)"></stop><stop offset="100%" stop-color="rgb(244,186,147)"></stop></radialGradient></defs><g clip-path="url(#__lottie_element_2)"><g style="display: block;" transform="matrix(1.0199999809265137,0,0,1.0199999809265137,1.5997776985168457,28.384519577026367)" opacity="1"><g opacity="1" transform="matrix(1,0,0,1,248.50999450683594,232.47500610351562)"><path fill="rgb(244,155,116)" fill-opacity="1" d=" M-192.0570068359375,-69.697998046875 C-207.1060028076172,-15.0600004196167 -221.31199645996094,77.5790023803711 -119.39199829101562,156.17100524902344 C-70.85600280761719,193.59800720214844 40.34299850463867,205.2779998779297 106.1259994506836,171.77499389648438 C163.45399475097656,142.5780029296875 221.31300354003906,80.72000122070312 203.38099670410156,-32.987998962402344 C194.16900634765625,-91.4010009765625 174.3249969482422,-126.2770004272461 134.4199981689453,-162.39700317382812 C103.63999938964844,-190.2570037841797 57.84000015258789,-205.27699279785156 -8.446999549865723,-203.8280029296875 C-135.8159942626953,-201.04400634765625 -180.6529998779297,-111.10199737548828 -192.0570068359375,-69.697998046875z"></path></g><g opacity="1" transform="matrix(1,0,0,1,248.50999450683594,232.47500610351562)"><path stroke-linecap="butt" stroke-linejoin="miter" fill-opacity="0" stroke-miterlimit="10" stroke="rgb(181,95,48)" stroke-opacity="1" stroke-width="10.879" d=" M-192.0570068359375,-69.697998046875 C-207.1060028076172,-15.0600004196167 -221.31199645996094,77.5790023803711 -119.39199829101562,156.17100524902344 C-70.85600280761719,193.59800720214844 40.34299850463867,205.2779998779297 106.1259994506836,171.77499389648438 C163.45399475097656,142.5780029296875 221.31300354003906,80.72000122070312 203.38099670410156,-32.987998962402344 C194.16900634765625,-91.4010009765625 174.3249969482422,-126.2770004272461 134.4199981689453,-162.39700317382812 C103.63999938964844,-190.2570037841797 57.84000015258789,-205.27699279785156 -8.446999549865723,-203.8280029296875 C-135.8159942626953,-201.04400634765625 -180.6529998779297,-111.10199737548828 -192.0570068359375,-69.697998046875z"></path></g><g opacity="1" transform="matrix(1,0,0,1,255.8249969482422,226.02699279785156)"><path fill="url(#__lottie_element_10)" fill-opacity="1" d=" M-182.63099670410156,-68.88999938964844 C-196.1820068359375,-19.746000289916992 -209.32200622558594,61.176998138427734 -117.5479965209961,131.86700439453125 C-73.84400177001953,165.52999877929688 28.518999099731445,181.63499450683594 87.75299835205078,151.5019989013672 C139.37399291992188,125.24099731445312 191.58799743652344,70.40499877929688 175.4409942626953,-31.8700008392334 C167.14500427246094,-84.41000366210938 147.2779998779297,-119.77999877929688 111.34500122070312,-152.26800537109375 C83.62899780273438,-177.32699584960938 42.38800048828125,-190.83700561523438 -17.299999237060547,-189.53399658203125 C-131.98899841308594,-187.02999877929688 -172.36199951171875,-106.13099670410156 -182.63099670410156,-68.88999938964844z"></path></g></g><g style="display: block;" transform="matrix(1.0199999809265137,0,0,1.0199999809265137,103.63955688476562,101.68375396728516)" opacity="1"><g opacity="1" transform="matrix(1,0,0,1,0,0)"><g opacity="1" transform="matrix(0.9965928792953491,-0.08247772604227066,0.08247772604227066,0.9965928792953491,-10.88916015625,25.374961853027344)"><g opacity="0.6" transform="matrix(1,0,0,1,277.48199462890625,142.85299682617188)"><path fill="rgb(247,121,145)" fill-opacity="1" d=" M-40.34700012207031,5.701000213623047 C-37.75,-2.9590001106262207 -34.70899963378906,-6.1020002365112305 -25.740999221801758,-8.364999771118164 C-14.270000457763672,-11.260000228881836 13.315999984741211,-20.172000885009766 16.229999542236328,-21.09600067138672 C28.985000610351562,-25.13800048828125 32.47600173950195,-24.559999465942383 38.400001525878906,-16.582000732421875 C45.400001525878906,-7.15500020980835 33.939998626708984,8.819999694824219 16.910999298095703,15.979000091552734 C-0.11900000274181366,23.13800048828125 -13.489999771118164,24.39299964904785 -25.87299919128418,23.107999801635742 C-36.03099822998047,22.05299949645996 -41.44599914550781,9.364999771118164 -40.34700012207031,5.701000213623047z"></path></g><g opacity="1" transform="matrix(1,0,0,1,253.76300048828125,156.53900146484375)"><path fill="rgb(244,122,140)" fill-opacity="1" d=" M-1.5509999990463257,-4.579999923706055 C-1.5509999990463257,-4.579999923706055 -6.182000160217285,4.293000221252441 -7.189000129699707,6.683000087738037 C-8.196999549865723,9.074000358581543 -8.149999618530273,9.970999717712402 -6.0269999504089355,10.9399995803833 C-3.9040000438690186,11.90999984741211 -1.2230000495910645,9.074000358581543 -0.017999999225139618,6.854000091552734 C1.1859999895095825,4.632999897003174 7.199999809265137,-6.650000095367432 7.698999881744385,-7.934000015258789 C8.197999954223633,-9.218999862670898 7.872000217437744,-11.902000427246094 4.479000091552734,-11.906000137329102 C1.0859999656677246,-11.91100025177002 -1.5509999990463257,-4.579999923706055 -1.5509999990463257,-4.579999923706055z"></path></g><g opacity="1" transform="matrix(1,0,0,1,297.4219970703125,136.0679931640625)"><path fill="rgb(244,122,140)" fill-opacity="1" d=" M-1.5509999990463257,-4.579999923706055 C-1.5509999990463257,-4.579999923706055 -6.182000160217285,4.293000221252441 -7.189000129699707,6.683000087738037 C-8.196999549865723,9.074000358581543 -8.149999618530273,9.972000122070312 -6.0269999504089355,10.940999984741211 C-3.9040000438690186,11.91100025177002 -1.2230000495910645,9.074000358581543 -0.017999999225139618,6.854000091552734 C1.1859999895095825,4.632999897003174 7.199999809265137,-6.650000095367432 7.698999881744385,-7.934000015258789 C8.197999954223633,-9.218999862670898 7.872000217437744,-11.902000427246094 4.479000091552734,-11.906000137329102 C1.0859999656677246,-11.91100025177002 -1.5509999990463257,-4.579999923706055 -1.5509999990463257,-4.579999923706055z"></path></g><g opacity="1" transform="matrix(1,0,0,1,269.61199951171875,148.26800537109375)"><path fill="rgb(244,122,140)" fill-opacity="1" d=" M-1.7450000047683716,-5.232999801635742 C-1.7450000047683716,-5.232999801635742 -6.928999900817871,4.9019999504089355 -8.055999755859375,7.631999969482422 C-9.182999610900879,10.36299991607666 -9.130999565124512,11.387999534606934 -6.749000072479248,12.498000144958496 C-4.367000102996826,13.607999801635742 -1.3619999885559082,10.369999885559082 -0.014000000432133675,7.834000110626221 C1.3350000381469727,5.296999931335449 8.067000389099121,-7.590000152587891 8.625,-9.057000160217285 C9.182999610900879,-10.524999618530273 8.814000129699707,-13.58899974822998 5.008999824523926,-13.598999977111816 C1.2039999961853027,-13.607999801635742 -1.7450000047683716,-5.232999801635742 -1.7450000047683716,-5.232999801635742z"></path></g><g opacity="1" transform="matrix(1,0,0,1,282.48199462890625,145.41900634765625)"><path fill="rgb(244,122,140)" fill-opacity="1" d=" M-1.7450000047683716,-5.232999801635742 C-1.7450000047683716,-5.232999801635742 -6.928999900817871,4.9019999504089355 -8.055999755859375,7.631999969482422 C-9.182999610900879,10.36299991607666 -9.130999565124512,11.387999534606934 -6.749000072479248,12.498000144958496 C-4.367000102996826,13.607999801635742 -1.3619999885559082,10.369999885559082 -0.014000000432133675,7.834000110626221 C1.3350000381469727,5.296999931335449 8.067000389099121,-7.590000152587891 8.625,-9.057000160217285 C9.182999610900879,-10.524999618530273 8.814000129699707,-13.58899974822998 5.008999824523926,-13.598999977111816 C1.2039999961853027,-13.607999801635742 -1.7450000047683716,-5.232999801635742 -1.7450000047683716,-5.232999801635742z"></path></g></g><g opacity="1" transform="matrix(1,0,0,1,0,0)"><g opacity="1" transform="matrix(1,0,0,1,245.625,83.4800033569336)"><path fill="rgb(181,95,48)" fill-opacity="0.4" d=" M-58.82699966430664,10.845999717712402 C-55.95199966430664,31.58300018310547 -43.47999954223633,57.36600112915039 0.9670000076293945,56.68600082397461 C36.612998962402344,56.13999938964844 61.9109992980957,34.856998443603516 59.0359992980957,-0.6140000224113464 C56.1609992980957,-36.08399963378906 31.43899917602539,-57.36600112915039 -4.208000183105469,-55.183998107910156 C-55.29999923706055,-52.05500030517578 -61.9109992980957,-11.399999618530273 -58.82699966430664,10.845999717712402z"></path></g><g opacity="1" transform="matrix(1,0,0,1,251.30999755859375,77.5)"><path fill="rgb(211,207,229)" fill-opacity="1" d=" M-54.74800109863281,10.635000228881836 C-52.073001861572266,30.968000411987305 -40.46500015258789,56.25 0.9010000228881836,55.58300018310547 C34.07600021362305,55.04800033569336 57.61899948120117,34.17900085449219 54.944000244140625,-0.6019999980926514 C52.26900100708008,-35.38199996948242 29.260000228881836,-56.25 -3.9149999618530273,-54.11000061035156 C-51.465999603271484,-51.04199981689453 -57.61800003051758,-11.178000450134277 -54.74800109863281,10.635000228881836z"></path></g><g opacity="1" transform="matrix(1,0,0,1,251.30999755859375,77.5)"><path stroke-linecap="butt" stroke-linejoin="miter" fill-opacity="0" stroke-miterlimit="10" stroke="rgb(135,61,41)" stroke-opacity="1" stroke-width="8.5" d=" M-54.74800109863281,10.635000228881836 C-52.073001861572266,30.968000411987305 -40.46500015258789,56.25 0.9010000228881836,55.58300018310547 C34.07600021362305,55.04800033569336 57.61899948120117,34.17900085449219 54.944000244140625,-0.6019999980926514 C52.26900100708008,-35.38199996948242 29.260000228881836,-56.25 -3.9149999618530273,-54.11000061035156 C-51.465999603271484,-51.04199981689453 -57.61800003051758,-11.178000450134277 -54.74800109863281,10.635000228881836z"></path></g><g opacity="1" transform="matrix(1,0,0,1,253.3719940185547,74.5469970703125)"><path fill="rgb(255,255,255)" fill-opacity="1" d=" M-46.733001708984375,8.887999534606934 C-44.44900131225586,25.881000518798828 -34.54100036621094,47.007999420166016 0.7680000066757202,46.45100021362305 C29.086000442504883,46.00400161743164 49.18299865722656,28.56399917602539 46.89899826049805,-0.503000020980835 C44.61600112915039,-29.569000244140625 24.97599983215332,-47.00899887084961 -3.3420000076293945,-45.220001220703125 C-43.930999755859375,-42.65700149536133 -49.18299865722656,-9.342000007629395 -46.733001708984375,8.887999534606934z"></path></g><g opacity="1" transform="matrix(1,0,0,1,252.23899841308594,73.28199768066406)"><path fill="rgb(40,23,61)" fill-opacity="1" d=" M-35.676998138427734,20.591999053955078 C-34.85900115966797,25.72800064086914 -33.83300018310547,33.263999938964844 -24.082000732421875,37.847999572753906 C-14.331000328063965,42.43199920654297 -9.324000358581543,36.22999954223633 0.16300000250339508,38.11800003051758 C9.651000022888184,40.005001068115234 24.319000244140625,35.249000549316406 26.253999710083008,28.410999298095703 C29.152999877929688,18.165000915527344 38.90399932861328,20.32200050354004 39.95800018310547,8.998000144958496 C41.012001037597656,-2.3259999752044678 41.012001037597656,-7.178999900817871 35.47800064086914,-14.998000144958496 C29.94300079345703,-22.816999435424805 29.41699981689453,-32.52399826049805 19.93000030517578,-36.8380012512207 C10.699999809265137,-41.03499984741211 3.3450000286102295,-42.43299865722656 -0.890999972820282,-37.37699890136719 C-4.052999973297119,-33.60200119018555 -7.479000091552734,-35.757999420166016 -14.331000328063965,-35.21900177001953 C-22.44499969482422,-34.58100128173828 -22.764999389648438,-25.243000030517578 -27.507999420166016,-23.356000900268555 C-32.79899978637695,-21.250999450683594 -36.46799850463867,-18.50200080871582 -39.367000579833984,-9.335000038146973 C-41.012001037597656,-4.13100004196167 -39.3380012512207,4.090000152587891 -37.78499984741211,10.07699966430664 C-36.60300064086914,14.63700008392334 -36.231998443603516,17.11199951171875 -35.676998138427734,20.591999053955078z"></path></g><g opacity="1" transform="matrix(1,0,0,1,252.0279998779297,84.64399719238281)"><path fill="rgb(86,61,137)" fill-opacity="1" d=" M-34.42900085449219,-18.46299934387207 C-33.01499938964844,-22.766000747680664 -25.889999389648438,-21.344999313354492 -19.170000076293945,-16.996999740600586 C-12.451000213623047,-12.64900016784668 -13.095999717712402,-5.968999862670898 -2.0280001163482666,-3.2019999027252197 C9.038999557495117,-0.4350000023841858 22.8439998626709,-22.43199920654297 31.48200035095215,-17.871999740600586 C40.04999923706055,-13.348999977111816 28.656999588012695,9.486000061035156 22.33300018310547,14.62399959564209 C16.007999420166016,19.76300048828125 -1.9789999723434448,20.131000518798828 -9.836000442504883,21.304000854492188 C-21.6560001373291,23.069000244140625 -23.6560001373291,14.067999839782715 -26.926000595092773,6.60699987411499 C-31.115999221801758,-2.953000068664551 -37.10499954223633,-10.317999839782715 -34.42900085449219,-18.46299934387207z"></path></g><g opacity="1" transform="matrix(1,0,0,1,266.197998046875,53.67100143432617)"><path fill="rgb(254,254,254)" fill-opacity="1" d=" M-12.402999877929688,-10.107000350952148 C-12.402999877929688,-10.107000350952148 -21.076000213623047,-10.958000183105469 -21.429000854492188,-5.396999835968018 C-21.774999618530273,0.04899999871850014 -14.800999641418457,0.9169999957084656 -9.890000343322754,1.7170000076293945 C-4.826000213623047,2.5420000553131104 -5.198999881744385,3.190000057220459 -1.2059999704360962,3.5859999656677246 C5.460999965667725,4.247000217437744 7.749000072479248,-0.800000011920929 6.144000053405762,-3.743000030517578 C4.539000034332275,-6.685999870300293 3.815999984741211,-6.896999835968018 0.6060000061988831,-7.9670000076293945 C-2.6050000190734863,-9.036999702453613 -12.402999877929688,-10.107000350952148 -12.402999877929688,-10.107000350952148z"></path></g><g opacity="1" transform="matrix(1,0,0,1,229.48399353027344,94.16000366210938)"><path fill="rgb(254,254,254)" fill-opacity="0.56" d=" M-19.26099967956543,3.184999942779541 C-21.84600067138672,4.385000228881836 -22.683000564575195,4.5229997634887695 -23.583999633789062,7.22599983215332 C-24.354000091552734,9.534000396728516 -20.802000045776367,11.802000045776367 -17.777000427246094,12.677000045776367 C-15.61299991607666,13.303000450134277 -11.095999717712402,7.932000160217285 -7.886000156402588,6.861999988555908 C-4.675000190734863,5.791999816894531 -0.6129999756813049,4.552999973297119 0.44200000166893005,1.2430000305175781 C1.684999942779541,-2.6559998989105225 0.5180000066757202,-1.8930000066757202 -5.636000156402588,-1.625 C-9.694000244140625,-1.4490000009536743 -15.461999893188477,1.4210000038146973 -19.26099967956543,3.184999942779541z"></path></g><g opacity="1" transform="matrix(1.0465699434280396,0,0,1.0465699434280396,276.5429992675781,87.61399841308594)"><path fill="rgb(254,254,254)" fill-opacity="1" d=" M-4.119999885559082,-4.210000038146973 C-4.119999885559082,-4.210000038146973 -3.6710000038146973,-6.679999828338623 -3.6710000038146973,-7.578999996185303 C-3.6710000038146973,-8.47700023651123 -4.565000057220459,-12.057000160217285 -3.1659998893737793,-12.48799991607666 C-0.2370000034570694,-13.388999938964844 -0.3019999861717224,-6.454999923706055 0.8209999799728394,-6.454999923706055 C1.944000005722046,-6.454999923706055 8.861000061035156,-7.964000225067139 9.223999977111816,-7.419000148773193 C10.576000213623047,-5.392000198364258 2.7300000190734863,-3.6480000019073486 2.7300000190734863,-2.5250000953674316 C2.7300000190734863,-1.4019999504089355 7.084000110626221,11.727999687194824 3.253999948501587,13.079999923706055 C2.38100004196167,13.387999534606934 -1.5369999408721924,1.0679999589920044 -2.322999954223633,0.9559999704360962 C-3.1089999675750732,0.8429999947547913 -9.361000061035156,4.183000087738037 -10.26200008392334,1.3669999837875366 C-10.57699966430664,0.38100001215934753 -4.119999885559082,-4.210000038146973 -4.119999885559082,-4.210000038146973z"></path></g><g opacity="1" transform="matrix(1,0,0,1,261.7099914550781,77.65699768066406)"><path fill="rgb(254,254,254)" fill-opacity="1" d=" M-5.551000118255615,-2.319000005722046 C-5.551000118255615,-2.319000005722046 -7.3379998207092285,3.305999994277954 -0.6240000128746033,3.566999912261963 C2.364000082015991,3.683000087738037 3.4779999256134033,2.496999979019165 2.943000078201294,-0.5350000262260437 C2.4079999923706055,-3.568000078201294 1.309999942779541,-5.672999858856201 0.07100000232458115,-5.834000110626221 C-5.5879998207092285,-6.568999767303467 -5.551000118255615,-2.319000005722046 -5.551000118255615,-2.319000005722046z"></path></g><g opacity="1" transform="matrix(1,0,0,1,229.3159942626953,48.44499969482422)"><path fill="rgb(254,254,254)" fill-opacity="1" d=" M-3.878000020980835,9.572999954223633 C-3.878000020980835,9.572999954223633 1.4730000495910645,10.821999549865723 3.078000068664551,8.680999755859375 C4.683000087738037,6.540999889373779 10.925999641418457,2.438999891281128 8.78600025177002,0.8330000042915344 C6.644999980926514,-0.7720000147819519 1.1160000562667847,1.0119999647140503 -2.4509999752044678,3.865000009536743 C-6.01800012588501,6.718999862670898 -3.878000020980835,9.572999954223633 -3.878000020980835,9.572999954223633z"></path></g><g opacity="1" transform="matrix(1,0,0,1,257.4679870605469,102.30500030517578)"><path fill="rgb(254,254,254)" fill-opacity="1" d=" M-5.395999908447266,0.17800000309944153 C-5.547999858856201,1.4190000295639038 -6.931000232696533,1.2050000429153442 -2.6500000953674316,1.7089999914169312 C0.38199999928474426,2.065000057220459 3.680000066757202,0.8370000123977661 1.3609999418258667,-2.194999933242798 C-0.9570000171661377,-5.2270002365112305 0.5789999961853027,-4.815999984741211 -2.2750000953674316,-3.9240000247955322 C-5.127999782562256,-3.0329999923706055 -5.230999946594238,-1.1679999828338623 -5.395999908447266,0.17800000309944153z"></path></g></g></g><g opacity="1" transform="matrix(1,0,0,1,0,0)"><g opacity="1" transform="matrix(0.9963973164558411,-0.08480827510356903,0.08480827510356903,0.9963973164558411,-14.949111938476562,9.394134521484375)"><g opacity="0.51" transform="matrix(1,0,0,1,103.09400177001953,180.6490020751953)"><path fill="rgb(247,121,145)" fill-opacity="1" d=" M-45.512001037597656,1.6410000324249268 C-42.68299865722656,-8.465999603271484 -37.42599868774414,-11.23799991607666 -26.929000854492188,-12.616999626159668 C-13.503999710083008,-14.380000114440918 11.928000450134277,-22.165000915527344 15.364999771118164,-22.829999923706055 C30.410999298095703,-25.743000030517578 38.66899871826172,-27.267000198364258 44.244998931884766,-17.214000701904297 C50.832000732421875,-5.335000038146973 37.65800094604492,11.680999755859375 17.316999435424805,17.610000610351562 C-3.0250000953674316,23.538000106811523 -17.729999542236328,26.992000579833984 -31.590999603271484,23.790000915527344 C-42.959999084472656,21.163999557495117 -47.465999603271484,8.623000144958496 -45.512001037597656,1.6410000324249268z"></path></g><g opacity="1" transform="matrix(1,0,0,1,78.58599853515625,190.9320068359375)"><path fill="rgb(244,122,140)" fill-opacity="1" d=" M-1.3819999694824219,-4.991000175476074 C-1.3819999694824219,-4.991000175476074 -7.3520002365112305,4.296999931335449 -8.687999725341797,6.817999839782715 C-10.02400016784668,9.338000297546387 -10.043999671936035,10.315999984741211 -7.7170000076293945,11.53600025177002 C-5.388999938964844,12.755999565124512 -2.119999885559082,9.881999969482422 -0.5740000009536743,7.560999870300293 C0.9710000157356262,5.239999771118164 8.704000473022461,-6.559000015258789 9.37399959564209,-7.916999816894531 C10.043999671936035,-9.276000022888184 9.890000343322754,-12.215999603271484 6.046000003814697,-12.486000061035156 C2.2009999752044678,-12.755999565124512 -1.3819999694824219,-4.991000175476074 -1.3819999694824219,-4.991000175476074z"></path></g><g opacity="1" transform="matrix(1,0,0,1,129.72799682617188,172.07699584960938)"><path fill="rgb(244,122,140)" fill-opacity="1" d=" M-1.3819999694824219,-4.991000175476074 C-1.3819999694824219,-4.991000175476074 -7.3520002365112305,4.296999931335449 -8.687999725341797,6.817999839782715 C-10.02400016784668,9.338000297546387 -10.043999671936035,10.315999984741211 -7.7170000076293945,11.53600025177002 C-5.388999938964844,12.755999565124512 -2.119999885559082,9.881999969482422 -0.5740000009536743,7.560999870300293 C0.9710000157356262,5.239999771118164 8.704000473022461,-6.559000015258789 9.37399959564209,-7.916999816894531 C10.043999671936035,-9.276000022888184 9.890000343322754,-12.215999603271484 6.046000003814697,-12.486000061035156 C2.2009999752044678,-12.755999565124512 -1.3819999694824219,-4.991000175476074 -1.3819999694824219,-4.991000175476074z"></path></g><g opacity="1" transform="matrix(1,0,0,1,97.21900177001953,183.16200256347656)"><path fill="rgb(244,122,140)" fill-opacity="1" d=" M-1.5479999780654907,-5.703999996185303 C-1.5479999780654907,-5.703999996185303 -8.246000289916992,4.913000106811523 -9.744999885559082,7.794000148773193 C-11.244999885559082,10.675000190734863 -11.267999649047852,11.793000221252441 -8.659000396728516,13.185999870300293 C-6.048999786376953,14.579000473022461 -2.381999969482422,11.291999816894531 -0.6480000019073486,8.638999938964844 C1.0870000123977661,5.986000061035156 9.763999938964844,-7.5 10.515999794006348,-9.053000450134277 C11.267999649047852,-10.604999542236328 11.097999572753906,-13.965999603271484 6.7870001792907715,-14.27299976348877 C2.4749999046325684,-14.579000473022461 -1.5479999780654907,-5.703999996185303 -1.5479999780654907,-5.703999996185303z"></path></g><g opacity="1" transform="matrix(1,0,0,1,112.03600311279297,181.06700134277344)"><path fill="rgb(244,122,140)" fill-opacity="1" d=" M-1.5479999780654907,-5.703999996185303 C-1.5479999780654907,-5.703999996185303 -8.246000289916992,4.913000106811523 -9.744999885559082,7.794000148773193 C-11.244999885559082,10.675000190734863 -11.267999649047852,11.793000221252441 -8.659000396728516,13.185999870300293 C-6.048999786376953,14.579000473022461 -2.381999969482422,11.291999816894531 -0.6480000019073486,8.638999938964844 C1.0870000123977661,5.986000061035156 9.763999938964844,-7.5 10.515999794006348,-9.053000450134277 C11.267999649047852,-10.604999542236328 11.097999572753906,-13.965999603271484 6.7870001792907715,-14.27299976348877 C2.4749999046325684,-14.579000473022461 -1.5479999780654907,-5.703999996185303 -1.5479999780654907,-5.703999996185303z"></path></g></g><g opacity="1" transform="matrix(1,0,0,1,0,0)"><g opacity="1" transform="matrix(1,0,0,1,80.41200256347656,120.85700225830078)"><path fill="rgb(181,95,48)" fill-opacity="0.39" d=" M-42.02899932861328,-52.20399856567383 C-33.72700119018555,-57.935001373291016 -22.118000030517578,-63.779998779296875 1.8049999475479126,-65.19300079345703 C25.72800064086914,-66.60600280761719 56.459999084472656,-48.06999969482422 62.8390007019043,-22.108999252319336 C69.21800231933594,3.8510000705718994 65.47000122070312,31.43000030517578 26.104000091552734,48.25699996948242 C-16.822999954223633,66.60700225830078 -47.854000091552734,40.62300109863281 -56.55099868774414,28.55900001525879 C-67.08300018310547,13.949999809265137 -69.21700286865234,-13.199999809265137 -59.94900131225586,-31.972999572753906 C-54.70500183105469,-42.59400177001953 -48.82600021362305,-47.512001037597656 -42.02899932861328,-52.20399856567383z"></path></g><g opacity="1" transform="matrix(1,0,0,1,86.66000366210938,112.96399688720703)"><path fill="rgb(211,207,229)" fill-opacity="1" d=" M-39.202999114990234,-49.983001708984375 C-31.517000198364258,-55.51900100708008 -20.76099967956543,-61.176998138427734 1.4450000524520874,-62.62099838256836 C23.649999618530273,-64.06500244140625 52.25400161743164,-46.37099838256836 58.2760009765625,-21.45400047302246 C64.2979965209961,3.4630000591278076 60.92399978637695,29.97100067138672 24.440000534057617,46.279998779296875 C-15.345999717712402,64.06500244140625 -44.255001068115234,39.215999603271484 -52.375999450683594,27.658000946044922 C-62.209999084472656,13.661999702453613 -64.2979965209961,-12.413999557495117 -55.763999938964844,-30.482999801635742 C-50.93600082397461,-40.70600128173828 -45.49599838256836,-45.45000076293945 -39.202999114990234,-49.983001708984375z"></path><path stroke-linecap="butt" stroke-linejoin="miter" fill-opacity="0" stroke-miterlimit="10" stroke="rgb(135,61,41)" stroke-opacity="1" stroke-width="8.945" d=" M-39.202999114990234,-49.983001708984375 C-31.517000198364258,-55.51900100708008 -20.76099967956543,-61.176998138427734 1.4450000524520874,-62.62099838256836 C23.649999618530273,-64.06500244140625 52.25400161743164,-46.37099838256836 58.2760009765625,-21.45400047302246 C64.2979965209961,3.4630000591278076 60.92399978637695,29.97100067138672 24.440000534057617,46.279998779296875 C-15.345999717712402,64.06500244140625 -44.255001068115234,39.215999603271484 -52.375999450683594,27.658000946044922 C-62.209999084472656,13.661999702453613 -64.2979965209961,-12.413999557495117 -55.763999938964844,-30.482999801635742 C-50.93600082397461,-40.70600128173828 -45.49599838256836,-45.45000076293945 -39.202999114990234,-49.983001708984375z"></path></g><g opacity="1" transform="matrix(1,0,0,1,90.20700073242188,108.54100036621094)"><path fill="rgb(255,255,255)" fill-opacity="1" d=" M-37.12900161743164,-41.49700164794922 C-30.599000930786133,-46.20000076293945 -21.461999893188477,-51.00699996948242 -2.5980000495910645,-52.23400115966797 C16.267000198364258,-53.46099853515625 43.55400085449219,-41.27199935913086 48.66999816894531,-20.104000091552734 C53.7859992980957,1.062999963760376 57.9119987487793,26.46500015258789 23.3799991607666,39.9630012512207 C-11.151000022888184,53.46099853515625 -40.965999603271484,33.97100067138672 -48.31999969482422,24.459999084472656 C-55.67399978637695,14.949999809265137 -57.9119987487793,-13.579000473022461 -51.196998596191406,-24.93000030517578 C-44.483001708984375,-36.28099822998047 -42.474998474121094,-37.645999908447266 -37.12900161743164,-41.49700164794922z"></path></g><g opacity="1" transform="matrix(0.9628900289535522,0,0,0.9628900289535522,3.3486175537109375,3.8450775146484375)"><g opacity="1" transform="matrix(1,0,0,1,88.37799835205078,103.41000366210938)"><path fill="rgb(40,23,61)" fill-opacity="1" d=" M1.805999994277954,-41.29100036621094 C6.807000160217285,-42.95199966430664 12.553999900817871,-43.604000091552734 17.577999114990234,-42.39799880981445 C24.503000259399414,-40.73699951171875 27.38800048828125,-32.24700164794922 33.159000396728516,-28.739999771118164 C38.92900085449219,-25.233999252319336 43.35300064086914,-19.881999969482422 44.314998626708984,-13.607000350952148 C45.2760009765625,-7.331999778747559 49.358001708984375,-0.057999998331069946 48.54600143432617,5.585000038146973 C47.777000427246094,10.937000274658203 46.430999755859375,16.288999557495117 41.81399917602539,19.79599952697754 C35.095001220703125,24.899999618530273 35.659000396728516,30.131000518798828 31.235000610351562,33.08399963378906 C25.444000244140625,36.94900131225586 22.19499969482422,32.71500015258789 16.23200035095215,34.00600051879883 C11.725000381469727,34.983001708984375 0.6520000100135803,43.604000091552734 -8.581000328063965,43.41999816894531 C-17.812999725341797,43.23500061035156 -28.777000427246094,34.74599838256836 -35.50899887084961,26.44099998474121 C-42.242000579833984,18.13599967956543 -49.358001708984375,-0.6880000233650208 -41.47200012207031,-9.732000350952148 C-39.13600158691406,-12.40999984741211 -36.305999755859375,-14.008000373840332 -33.58599853515625,-17.851999282836914 C-30.606000900268555,-22.062999725341797 -27.937999725341797,-26.30500030517578 -27.334999084472656,-28.648000717163086 C-25.315000534057617,-36.492000579833984 -19.476999282836914,-40.27199935913086 -15.890000343322754,-41.19900131225586 C-10.888999938964844,-42.49100112915039 -3.194999933242798,-39.630001068115234 1.805999994277954,-41.29100036621094z"></path></g><g opacity="1" transform="matrix(1,0,0,1,86.1500015258789,122.50499725341797)"><path fill="rgb(75,48,130)" fill-opacity="1" d=" M-29.489999771118164,-18.833999633789062 C-29.489999771118164,-18.833999633789062 -28.04400062561035,-22.993999481201172 -21.395000457763672,-22.716999053955078 C-14.744999885559082,-22.43899917602539 -5.7820000648498535,-15.503999710083008 6.650000095367432,-12.729999542236328 C19.082000732421875,-9.956000328063965 30.35700035095215,-21.329999923706055 35.85100173950195,-18.277999877929688 C41.34400177001953,-15.22700023651123 37.29499816894531,-4.686999797821045 29.200000762939453,2.247999906539917 C21.104999542236328,9.182999610900879 15.61299991607666,5.0229997634887695 9.251999855041504,8.074999809265137 C2.8919999599456787,11.12600040435791 -0.8970000147819519,22.9950008392334 -14.456000328063965,13.621999740600586 C-33.42300033569336,0.5120000243186951 -33.111000061035156,-10.251999855041504 -31.281999588012695,-15.456000328063965 C-30.51799964904785,-17.628999710083008 -29.489999771118164,-18.833999633789062 -29.489999771118164,-18.833999633789062z"></path></g><g opacity="1" transform="matrix(1,0,0,1,104.96299743652344,80.06600189208984)"><path fill="rgb(254,254,254)" fill-opacity="1" d=" M-8.62600040435791,-9.586999893188477 C-8.62600040435791,-9.586999893188477 -19.340999603271484,-11.604000091552734 -18.82900047302246,-5.306000232696533 C-18.37299919128418,0.3100000023841858 -13.395999908447266,0.1940000057220459 -8.236000061035156,1.2710000276565552 C-2.8410000801086426,2.3970000743865967 -0.8410000205039978,3.3959999084472656 1.315999984741211,2.388000011444092 C4.5320000648498535,0.8849999904632568 5.209000110626221,-1.4470000267028809 3.484999895095825,-4.480000019073486 C1.7599999904632568,-7.513999938964844 0.9760000109672546,-7.51800012588501 -2.4730000495910645,-8.621000289916992 C-5.921999931335449,-9.723999977111816 -8.62600040435791,-9.586999893188477 -8.62600040435791,-9.586999893188477z"></path></g><g opacity="1" transform="matrix(0.5312300324440002,0,0,0.5312300324440002,122.76599884033203,113.18000030517578)"><path fill="rgb(254,254,254)" fill-opacity="1" d=" M-4.835999965667725,-2.6050000190734863 C-4.041999816894531,-3.881999969482422 -4.383999824523926,-7.00600004196167 -5.23799991607666,-9.605999946594238 C-6.211999893188477,-12.569999694824219 -7.328000068664551,-14.862000465393066 -4.940000057220459,-15.663000106811523 C-2.552000045776367,-16.464000701904297 -1.2990000247955322,-12.692000389099121 0.0949999988079071,-9.592000007629395 C1.4889999628067017,-6.491000175476074 2.75,-5.679999828338623 4.433000087738037,-5.676000118255615 C6.117000102996826,-5.671999931335449 9.486000061035156,-6.066999912261963 10.045999526977539,-5.660999774932861 C10.605999946594238,-5.25600004196167 11.581000328063965,-3.2339999675750732 10.175999641418457,-2.430000066757202 C8.770000457763672,-1.6260000467300415 5.120999813079834,-0.9620000123977661 4.834000110626221,1.4600000381469727 C4.609000205993652,3.3519999980926514 8.019000053405762,13.697999954223633 6.5329999923706055,14.720999717712402 C4.002999782562256,16.46500015258789 0.3370000123977661,3.6019999980926514 -2.3269999027252197,2.7880001068115234 C-4.065000057220459,2.25600004196167 -7.385000228881836,5.197999954223633 -9.630999565124512,5.5960001945495605 C-11.581999778747559,5.940999984741211 -11.449999809265137,3.8410000801086426 -10.88599967956543,2.9000000953674316 C-10.321999549865723,1.9589999914169312 -6.208000183105469,-0.3970000147819519 -4.835999965667725,-2.6050000190734863z"></path></g><g opacity="1" transform="matrix(1,0,0,1,105.28800201416016,105.2760009765625)"><path fill="rgb(254,254,254)" fill-opacity="1" d=" M-4.5289998054504395,0.5419999957084656 C-3.3529999256134033,1.8519999980926514 0.0820000022649765,3.74399995803833 0.3930000066757202,-0.4699999988079071 C0.703000009059906,-4.684999942779541 0.5600000023841858,-7.192999839782715 -2.3959999084472656,-7.9679999351501465 C-5.3520002365112305,-8.744000434875488 -6.703000068664551,-7.313000202178955 -6.609000205993652,-5.026000022888184 C-6.514999866485596,-2.739000082015991 -5.376999855041504,-0.40299999713897705 -4.5289998054504395,0.5419999957084656z"></path></g><g opacity="0.65" transform="matrix(1,0,0,1,63.676998138427734,125.19000244140625)"><path fill="rgb(254,254,254)" fill-opacity="1" d=" M-11.906000137329102,2.0260000228881836 C-11.906000137329102,2.0260000228881836 -7.020999908447266,0.026000000536441803 -2.98799991607666,-1.996000051498413 C1.0449999570846558,-4.01800012588501 4.38100004196167,-2.559999942779541 4.5,0.5040000081062317 C4.695000171661377,5.5229997634887695 3.305999994277954,4.511000156402588 -1.5,7.583000183105469 C-8.055000305175781,11.77299976348877 -10.239999771118164,11.321000099182129 -14.817000389099121,12.005000114440918 C-17.729000091552734,12.4399995803833 -18.27400016784668,9.140999794006348 -18.89699935913086,6.514999866485596 C-19.66900062561035,3.260999917984009 -11.906000137329102,2.0260000228881836 -11.906000137329102,2.0260000228881836z"></path></g><g opacity="1" transform="matrix(1,0,0,1,73.13099670410156,79.46299743652344)"><path fill="rgb(254,254,254)" fill-opacity="1" d=" M-3.2249999046325684,9.045000076293945 C-3.2249999046325684,9.045000076293945 -1.2630000114440918,10.628000259399414 0.9150000214576721,9.303000450134277 C3.0940001010894775,7.9770002365112305 4.513000011444092,2.372999906539917 5.486000061035156,0.17499999701976776 C6.460000038146973,-2.0239999294281006 4.000999927520752,-5.127999782562256 2.0250000953674316,-4.0920000076293945 C0.699999988079071,-3.3970000743865967 -3.9749999046325684,0.08399999886751175 -5.247000217437744,1.1230000257492065 C-6.51800012588501,2.1610000133514404 -8.335000038146973,3.7009999752044678 -7.6570000648498535,5.4019999504089355 C-7.258999824523926,6.400000095367432 -3.2249999046325684,9.045000076293945 -3.2249999046325684,9.045000076293945z"></path></g></g></g></g></g><g style="display: block;" transform="matrix(1.0199999809265137,0,0,1.0199999809265137,238.63961791992188,320.07696533203125)" opacity="1"><g opacity="1" transform="matrix(1,0,0,1,0,0)"><g opacity="1" transform="matrix(1,0,0,1,67.63200378417969,33.21799850463867)"><path fill="rgb(234,166,120)" fill-opacity="1" d=" M-50.185001373291016,20.770999908447266 C-50.185001373291016,20.770999908447266 -51.500999450683594,7.303999900817871 -37.638999938964844,-2.697999954223633 C-23.775999069213867,-12.699999809265137 3.246999979019165,-20.770999908447266 22.02199935913086,-19.542999267578125 C40.79800033569336,-18.315000534057617 48.694000244140625,-11.647000312805176 50.097999572753906,-7.611000061035156 C51.50199890136719,-3.575000047683716 51.500999450683594,0.2849999964237213 51.500999450683594,0.2849999964237213 C51.500999450683594,0.2849999964237213 49.22100067138672,-7.434999942779541 40.27199935913086,-11.821999549865723 C31.32200050354004,-16.208999633789062 13.072999954223633,-16.034000396728516 -13.42300033569336,-8.312999725341797 C-24.0049991607666,-5.229000091552734 -37.36199951171875,1.5959999561309814 -42.90399932861328,7.480000019073486 C-48.84400177001953,13.78600025177002 -50.185001373291016,20.770999908447266 -50.185001373291016,20.770999908447266z"></path></g><g opacity="1" transform="matrix(1,0,0,1,69.5989990234375,45.69599914550781)"><path fill="rgb(63,26,26)" fill-opacity="1" d=" M-48.28099822998047,9.946999549865723 C-47.5629997253418,5.85699987411499 -45.566001892089844,2.1059999465942383 -42.74300003051758,-0.9390000104904175 C-38.430999755859375,-5.591000080108643 -29.674999237060547,-13.430000305175781 -17.073999404907227,-16.985000610351562 C1.4550000429153442,-22.211000442504883 23.30900001525879,-25.06100082397461 32.33599853515625,-22.447999954223633 C41.36199951171875,-19.834999084472656 48.9640007019043,-12.946000099182129 45.16299819946289,-4.869999885559082 C41.36199951171875,3.2070000171661377 28.08300018310547,0.3580000102519989 15.493000030517578,2.0199999809265137 C2.9030001163482666,3.683000087738037 -9.460000038146973,9.043999671936035 -14.758999824523926,12.62600040435791 C-23.988000869750977,18.865999221801758 -35.36399841308594,25.06100082397461 -44.15399932861328,20.547000885009766 C-48.54800033569336,18.291000366210938 -48.9640007019043,13.836999893188477 -48.28099822998047,9.946999549865723z"></path><path stroke-linecap="round" stroke-linejoin="round" fill-opacity="0" stroke="rgb(51,6,6)" stroke-opacity="1" stroke-width="8.254" d=" M-48.28099822998047,9.946999549865723 C-47.5629997253418,5.85699987411499 -45.566001892089844,2.1059999465942383 -42.74300003051758,-0.9390000104904175 C-38.430999755859375,-5.591000080108643 -29.674999237060547,-13.430000305175781 -17.073999404907227,-16.985000610351562 C1.4550000429153442,-22.211000442504883 23.30900001525879,-25.06100082397461 32.33599853515625,-22.447999954223633 C41.36199951171875,-19.834999084472656 48.9640007019043,-12.946000099182129 45.16299819946289,-4.869999885559082 C41.36199951171875,3.2070000171661377 28.08300018310547,0.3580000102519989 15.493000030517578,2.0199999809265137 C2.9030001163482666,3.683000087738037 -9.460000038146973,9.043999671936035 -14.758999824523926,12.62600040435791 C-23.988000869750977,18.865999221801758 -35.36399841308594,25.06100082397461 -44.15399932861328,20.547000885009766 C-48.54800033569336,18.291000366210938 -48.9640007019043,13.836999893188477 -48.28099822998047,9.946999549865723z"></path></g><g opacity="1" transform="matrix(1,0,0,1,56.31800079345703,54.731998443603516)"><path fill="rgb(193,34,22)" fill-opacity="1" d=" M-31.58799934387207,1.055999994277954 C-28.07900047302246,-7.367000102996826 -15.557000160217285,-15.380000114440918 -4.800000190734863,-16.49799919128418 C2.615000009536743,-17.268999099731445 11.3149995803833,-17.67799949645996 16.92099952697754,-16.319000244140625 C28.361000061035156,-13.54699993133545 33.512001037597656,-7.015999794006348 33.512001037597656,-7.015999794006348 C33.512001037597656,-7.015999794006348 13.833000183105469,-5.927999973297119 2.1019999980926514,1.406999945640564 C-6.824999809265137,6.988999843597412 -24.93899917602539,17.67799949645996 -31.238000869750977,10.883000373840332 C-33.51300048828125,8.428999900817871 -33.375,5.343999862670898 -31.58799934387207,1.055999994277954z"></path><path stroke-linecap="round" stroke-linejoin="round" fill-opacity="0" stroke="rgb(124,24,24)" stroke-opacity="1" stroke-width="7.729" d=" M-31.58799934387207,1.055999994277954 C-28.07900047302246,-7.367000102996826 -15.557000160217285,-15.380000114440918 -4.800000190734863,-16.49799919128418 C2.615000009536743,-17.268999099731445 11.3149995803833,-17.67799949645996 16.92099952697754,-16.319000244140625 C28.361000061035156,-13.54699993133545 33.512001037597656,-7.015999794006348 33.512001037597656,-7.015999794006348 C33.512001037597656,-7.015999794006348 13.833000183105469,-5.927999973297119 2.1019999980926514,1.406999945640564 C-6.824999809265137,6.988999843597412 -24.93899917602539,17.67799949645996 -31.238000869750977,10.883000373840332 C-33.51300048828125,8.428999900817871 -33.375,5.343999862670898 -31.58799934387207,1.055999994277954z"></path></g><g opacity="0.39" transform="matrix(1,0,0,1,0,0)"><path fill="rgb(63,26,26)" fill-opacity="0.54" d=" M82.16200256347656,23.759000778198242 C66.86100006103516,24.399999618530273 59.7140007019043,26.066999435424805 59.7140007019043,26.066999435424805 C59.7140007019043,26.066999435424805 22.86199951171875,43.479000091552734 19.93400001525879,58.611000061035156 C17.006000518798828,73.74299621582031 40.52000045776367,67.60199737548828 63.27199935913086,55.457000732421875 C87.98999786376953,42.26300048828125 116.5199966430664,50.10200119018555 116.15399932861328,38.53200149536133 C115.55500030517578,19.60700035095215 97.46299743652344,23.118000030517578 82.16200256347656,23.759000778198242z"></path></g></g></g><g style="display: block;" transform="matrix(1.0199999809265137,0,0,1.0199999809265137,92.5776596069336,52.44121170043945)" opacity="1"><g opacity="0.44" transform="matrix(1,0,0,1,70.05500030517578,65.5469970703125)"><path fill="rgb(181,95,48)" fill-opacity="1" d=" M-51.35900115966797,2.188999891281128 C-41.236000061035156,-7.605999946594238 -27.820999145507812,-15.149999618530273 -6.019000053405762,-18.729000091552734 C10.840999603271484,-21.496999740600586 26.941999435424805,-18.31999969482422 38.43000030517578,-14.503000259399414 C48.20600128173828,-11.255000114440918 55.284000396728516,-7.197999954223633 56.96200180053711,-5.974999904632568 C58.597999572753906,-4.7820000648498535 59.38399887084961,-2.490000009536743 57.90999984741211,-0.3400000035762787 C55.12099838256836,3.7269999980926514 54.125999450683594,7.150000095367432 50.441001892089844,8.027000427246094 C46.4119987487793,8.986000061035156 32.972999572753906,-3.8369998931884766 -1.6239999532699585,-0.5789999961853027 C-25.586999893188477,1.6770000457763672 -36.415000915527344,12.357999801635742 -42.09400177001953,17.26300048828125 C-44.06700134277344,18.966999053955078 -45.50299835205078,20.628999710083008 -46.630001068115234,21.09000015258789 C-47.625,21.496999740600586 -49.05099868774414,21.297000885009766 -50.275001525878906,20.076000213623047 C-52.340999603271484,18.014999389648438 -56.59400177001953,14.050999641418457 -57.380001068115234,13.157999992370605 C-59.3849983215332,10.883000373840332 -53.44200134277344,4.204999923706055 -51.35900115966797,2.188999891281128z"></path></g><g opacity="0.41000000000000003" transform="matrix(1,0,0,1,215.13099670410156,41.071998596191406)"><path fill="rgb(181,95,48)" fill-opacity="1" d=" M-10.532999992370605,17.038000106811523 C-3.489000082015991,10.541999816894531 5.885000228881836,3.500999927520752 14.788000106811523,-0.453000009059906 C24.746999740600586,-4.875999927520752 38.3390007019043,-4.49399995803833 41.81700134277344,-4.269999980926514 C46.38999938964844,-3.9769999980926514 45.88399887084961,-11.47700023651123 43.1879997253418,-13.09000015258789 C41.084999084472656,-14.347000122070312 38.52000045776367,-16.990999221801758 27.382999420166016,-20.940000534057617 C16.39699935913086,-24.834999084472656 27.482999801635742,-18.003999710083008 6.98799991607666,-13.1899995803833 C-11.0600004196167,-8.951000213623047 -30.82699966430664,-0.2800000011920929 -32.05799865722656,1.1380000114440918 C-33.89799880981445,3.257999897003174 -38.52000045776367,11.026000022888184 -34.43899917602539,13.62600040435791 C-31.44099998474121,15.536999702453613 -23.63800048828125,21.347999572753906 -21.075000762939453,22.503999710083008 C-15.902999877929688,24.834999084472656 -13.138999938964844,19.441999435424805 -10.532999992370605,17.038000106811523z"></path></g><g opacity="1" transform="matrix(1,0,0,1,71.74700164794922,57.80699920654297)"><path fill="rgb(68,36,25)" fill-opacity="1" d=" M-51.35900115966797,2.188999891281128 C-41.236000061035156,-7.605999946594238 -27.820999145507812,-15.149999618530273 -6.019000053405762,-18.729000091552734 C10.840999603271484,-21.496999740600586 26.94300079345703,-18.31999969482422 38.430999755859375,-14.503000259399414 C48.207000732421875,-11.255000114440918 55.284000396728516,-7.197999954223633 56.96200180053711,-5.974999904632568 C58.597999572753906,-4.7820000648498535 59.3849983215332,-2.490000009536743 57.9109992980957,-0.3400000035762787 C55.12200164794922,3.7279999256134033 54.125999450683594,7.150000095367432 50.441001892089844,8.027000427246094 C46.4119987487793,8.986000061035156 30.454999923706055,-5.230000019073486 -1.6239999532699585,-0.5789999961853027 C-25.433000564575195,2.871999979019165 -36.415000915527344,12.357999801635742 -42.09400177001953,17.26300048828125 C-44.06700134277344,18.966999053955078 -45.50299835205078,20.628999710083008 -46.630001068115234,21.09000015258789 C-47.625,21.496999740600586 -49.05099868774414,21.297000885009766 -50.275001525878906,20.076000213623047 C-52.340999603271484,18.014999389648438 -56.59400177001953,14.050999641418457 -57.380001068115234,13.157999992370605 C-59.3849983215332,10.883000373840332 -53.44200134277344,4.204999923706055 -51.35900115966797,2.188999891281128z"></path><path stroke-linecap="round" stroke-linejoin="round" fill-opacity="0" stroke="rgb(63,30,17)" stroke-opacity="1" stroke-width="4.945" d=" M-51.35900115966797,2.188999891281128 C-41.236000061035156,-7.605999946594238 -27.820999145507812,-15.149999618530273 -6.019000053405762,-18.729000091552734 C10.840999603271484,-21.496999740600586 26.94300079345703,-18.31999969482422 38.430999755859375,-14.503000259399414 C48.207000732421875,-11.255000114440918 55.284000396728516,-7.197999954223633 56.96200180053711,-5.974999904632568 C58.597999572753906,-4.7820000648498535 59.3849983215332,-2.490000009536743 57.9109992980957,-0.3400000035762787 C55.12200164794922,3.7279999256134033 54.125999450683594,7.150000095367432 50.441001892089844,8.027000427246094 C46.4119987487793,8.986000061035156 30.454999923706055,-5.230000019073486 -1.6239999532699585,-0.5789999961853027 C-25.433000564575195,2.871999979019165 -36.415000915527344,12.357999801635742 -42.09400177001953,17.26300048828125 C-44.06700134277344,18.966999053955078 -45.50299835205078,20.628999710083008 -46.630001068115234,21.09000015258789 C-47.625,21.496999740600586 -49.05099868774414,21.297000885009766 -50.275001525878906,20.076000213623047 C-52.340999603271484,18.014999389648438 -56.59400177001953,14.050999641418457 -57.380001068115234,13.157999992370605 C-59.3849983215332,10.883000373840332 -53.44200134277344,4.204999923706055 -51.35900115966797,2.188999891281128z"></path></g><g opacity="1" transform="matrix(1,0,0,1,230.01199340820312,33.8390007019043)"><path fill="rgb(68,36,25)" fill-opacity="1" d=" M-28.663999557495117,15.619000434875488 C-21.6200008392334,9.123000144958496 -14.871999740600586,-0.5960000157356262 8.083999633789062,-4.3429999351501465 C28.468000411987305,-7.671000003814697 43.25199890136719,-1.49399995803833 46.73099899291992,-1.2710000276565552 C51.303001403808594,-0.9769999980926514 51.30099868774414,-3.8519999980926514 51.62699890136719,-6.60099983215332 C51.84600067138672,-8.458000183105469 51.93299865722656,-10.991999626159668 40.79600143432617,-14.940999984741211 C29.809999465942383,-18.836000442504883 12.456999778747559,-21.957000732421875 -8.038000106811523,-17.14299964904785 C-26.086000442504883,-12.904000282287598 -43.35599899291992,2.6500000953674316 -44.58700180053711,4.067999839782715 C-46.426998138427734,6.188000202178955 -51.93299865722656,10.836000442504883 -47.85200119018555,13.435999870300293 C-44.854000091552734,15.347000122070312 -39.90599822998047,17.893999099731445 -37.51499938964844,19.288000106811523 C-32.93600082397461,21.95599937438965 -31.270000457763672,18.023000717163086 -28.663999557495117,15.619000434875488z"></path><path stroke-linecap="round" stroke-linejoin="round" fill-opacity="0" stroke="rgb(63,30,17)" stroke-opacity="1" stroke-width="4.753" d=" M-28.663999557495117,15.619000434875488 C-21.6200008392334,9.123000144958496 -14.871999740600586,-0.5960000157356262 8.083999633789062,-4.3429999351501465 C28.468000411987305,-7.671000003814697 43.25199890136719,-1.49399995803833 46.73099899291992,-1.2710000276565552 C51.303001403808594,-0.9769999980926514 51.30099868774414,-3.8519999980926514 51.62699890136719,-6.60099983215332 C51.84600067138672,-8.458000183105469 51.93299865722656,-10.991999626159668 40.79600143432617,-14.940999984741211 C29.809999465942383,-18.836000442504883 12.456999778747559,-21.957000732421875 -8.038000106811523,-17.14299964904785 C-26.086000442504883,-12.904000282287598 -43.35599899291992,2.6500000953674316 -44.58700180053711,4.067999839782715 C-46.426998138427734,6.188000202178955 -51.93299865722656,10.836000442504883 -47.85200119018555,13.435999870300293 C-44.854000091552734,15.347000122070312 -39.90599822998047,17.893999099731445 -37.51499938964844,19.288000106811523 C-32.93600082397461,21.95599937438965 -31.270000457763672,18.023000717163086 -28.663999557495117,15.619000434875488z"></path></g></g></g></svg>