<svg xmlns="http://www.w3.org/2000/svg" xmlns:xlink="http://www.w3.org/1999/xlink" viewBox="0 0 512 512" width="512" height="512" style="width: 100%; height: 100%; transform: translate3d(0,0,0); content-visibility: visible;" preserveAspectRatio="xMidYMid meet"><defs><clipPath id="__lottie_element_2"><rect width="512" height="512" x="0" y="0"></rect></clipPath><radialGradient id="__lottie_element_16" spreadMethod="pad" gradientUnits="userSpaceOnUse" cx="-57" cy="-64" r="284.20899963378906" fx="-57" fy="-64"><stop offset="0%" stop-color="rgb(252,228,209)"></stop><stop offset="50%" stop-color="rgb(246,202,168)"></stop><stop offset="100%" stop-color="rgb(240,176,127)"></stop></radialGradient></defs><g clip-path="url(#__lottie_element_2)"><g style="display: block;" transform="matrix(0.9599999785423279,0,0,0.9599999785423279,255.71275329589844,257.1822814941406)" opacity="1"><g opacity="1" transform="matrix(1,0,0,1,0,0)"><g opacity="1" transform="matrix(1,0,0,1,0,0)"><path fill="rgb(112,40,173)" fill-opacity="1" d=" M179.69500732421875,-163.052001953125 C196.3260040283203,-157.43600463867188 230.2469940185547,-102.81800079345703 235.5030059814453,-58.1609992980957 C240.75900268554688,-13.503999710083008 226.70899963378906,16.79599952697754 213.7519989013672,26.305999755859375 C200.7949981689453,35.816001892089844 152.3159942626953,40.854000091552734 152.3159942626953,40.854000091552734 C152.3159942626953,40.854000091552734 94.06999969482422,-137.9929962158203 94.16999816894531,-142.03799438476562 C94.2699966430664,-146.08299255371094 163.06399536132812,-168.66799926757812 179.69500732421875,-163.052001953125z"></path></g><g opacity="1" transform="matrix(1,0,0,1,0,0)"><path fill="rgb(151,87,242)" fill-opacity="1" d=" M230.98399353027344,-59.49300003051758 C222.61399841308594,-144.53199768066406 191.1790008544922,-163.85499572753906 161.26400756835938,-157.656005859375 C161.07699584960938,-157.61700439453125 160.97300720214844,-157.41000366210938 161.05499267578125,-157.23699951171875 C161.05499267578125,-157.23699951171875 162.3090057373047,-154.58200073242188 162.3090057373047,-154.58200073242188 C197.5290069580078,-143.947998046875 215.05999755859375,-103.09300231933594 230.98399353027344,-59.49300003051758z"></path></g><g opacity="1" transform="matrix(1,0,0,1,0,0)"><path fill="rgb(147,80,226)" fill-opacity="1" d=" M197.41299438476562,32.262001037597656 C193.56300354003906,32.077999114990234 174.1820068359375,36.31399917602539 168.7689971923828,36.95100021362305 C163.3560028076172,37.5880012512207 158.66700744628906,40.16999816894531 155.61300659179688,38.9379997253418 C152.5590057373047,37.70600128173828 94.16999816894531,-142.03799438476562 94.16999816894531,-142.03799438476562 C94.16999816894531,-142.03799438476562 141.1479949951172,-156.3040008544922 149.97799682617188,-153.95700073242188 C185.7519989013672,-144.4499969482422 223.13900756835938,33.49399948120117 197.41299438476562,32.262001037597656z"></path></g><g opacity="1" transform="matrix(1,0,0,1,0,0)"><path stroke-linecap="round" stroke-linejoin="round" fill-opacity="0" stroke="rgb(112,40,173)" stroke-opacity="1" stroke-width="8.834" d=" M145.2220001220703,-120.48699951171875 C196.22000122070312,-39.91299819946289 181.50100708007812,18.038000106811523 181.50100708007812,18.038000106811523"></path></g><g opacity="1" transform="matrix(1,0,0,1,0,0)"><path stroke-linecap="round" stroke-linejoin="round" fill-opacity="0" stroke="rgb(66,33,109)" stroke-opacity="1" stroke-width="10.306" d=" M106.4000015258789,-151.3679962158203 C106.4000015258789,-151.3679962158203 156.802001953125,-162.10699462890625 176.85800170898438,-161.51300048828125 C232.2100067138672,-159.8730010986328 259.72198486328125,11.482999801635742 215.80499267578125,26.290000915527344 C205.7030029296875,29.695999145507812 152.3159942626953,40.854000091552734 152.3159942626953,40.854000091552734 C152.3159942626953,40.854000091552734 147.68699645996094,-58.058998107910156 137.50999450683594,-81.52400207519531 C127.33300018310547,-104.98899841308594 106.4000015258789,-151.3679962158203 106.4000015258789,-151.3679962158203z"></path></g><g opacity="1" transform="matrix(1,0,0,1,0,0)"><path stroke-linecap="round" stroke-linejoin="round" fill-opacity="0" stroke="rgb(66,33,109)" stroke-opacity="1" stroke-width="8.834" d=" M177.39500427246094,-106.95800018310547 C197.40499877929688,-60.07099914550781 202.62600708007812,-25.739999771118164 202.74099731445312,-2.9010000228881836 C202.86099243164062,20.944000244140625 197.41299438476562,32.262001037597656 197.41299438476562,32.262001037597656"></path></g><g opacity="0.37" transform="matrix(1,0,0,1,0,0)"><path fill="rgb(51,22,89)" fill-opacity="1" d=" M233.0570068359375,-53.1150016784668 C233.0570068359375,-53.1150016784668 231.27499389648438,-34.474998474121094 216.42300415039062,-29.180999755859375 C201.5709991455078,-23.886999130249023 147.62600708007812,-17.483999252319336 147.62600708007812,-17.483999252319336 C147.62600708007812,-17.483999252319336 151.75900268554688,29.045000076293945 151.75900268554688,29.045000076293945 C151.75900268554688,29.045000076293945 204.78399658203125,21.676000595092773 217.04200744628906,14.430000305175781 C229.3000030517578,7.184000015258789 236.99899291992188,-14.138999938964844 237.59100341796875,-22.805999755859375 C238.18299865722656,-31.472999572753906 233.0570068359375,-53.1150016784668 233.0570068359375,-53.1150016784668z"></path></g></g><g opacity="1" transform="matrix(1,0,0,1,0,0)"><g opacity="1" transform="matrix(1,0,0,1,0,0)"><path fill="rgb(87,198,68)" fill-opacity="1" d=" M102.98300170898438,-127.6729965209961 C102.98300170898438,-127.6729965209961 40.43299865722656,-193.00999450683594 51.96799850463867,-224.43099975585938 C62.92599868774414,-254.2790069580078 103.4729995727539,-247.63999938964844 126.51499938964844,-209.18600463867188 C194.3000030517578,-96.06099700927734 172.55799865722656,-101.65399932861328 169.7429962158203,-102.80699920654297 C118.4749984741211,-133.01499938964844 102.98300170898438,-127.6729965209961 102.98300170898438,-127.6729965209961z"></path><path stroke-linecap="round" stroke-linejoin="round" fill-opacity="0" stroke="rgb(63,114,48)" stroke-opacity="1" stroke-width="10.306" d=" M102.98300170898438,-127.6729965209961 C102.98300170898438,-127.6729965209961 40.43299865722656,-193.00999450683594 51.96799850463867,-224.43099975585938 C62.92599868774414,-254.2790069580078 103.4729995727539,-247.63999938964844 126.51499938964844,-209.18600463867188 C194.3000030517578,-96.06099700927734 172.55799865722656,-101.65399932861328 169.7429962158203,-102.80699920654297 C118.4749984741211,-133.01499938964844 102.98300170898438,-127.6729965209961 102.98300170898438,-127.6729965209961z"></path></g><g opacity="1" transform="matrix(1,0,0,1,0,0)"><path fill="rgb(77,158,48)" fill-opacity="1" d=" M61.8380012512207,-192.38600158691406 C91.3949966430664,-224.71600341796875 119.6050033569336,-192.6840057373047 147.00599670410156,-122.05400085449219 C123.45899963378906,-131.27200317382812 105.60600280761719,-135.53199768066406 91.5999984741211,-131.5749969482422 C87.33999633789062,-150.9199981689453 76.0999984741211,-170.75399780273438 61.8380012512207,-192.38600158691406z"></path></g></g></g><g style="display: block;" transform="matrix(0.9599999785423279,0,0,0.9599999785423279,255.71275329589844,257.1822814941406)" opacity="1"><g opacity="1" transform="matrix(1,0,0,1,0,0)"><path fill="url(#__lottie_element_16)" fill-opacity="1" d=" M-85.71199798583984,213.1929931640625 C-134.10899353027344,204.20700073242188 -224.4530029296875,172.43699645996094 -225.32000732421875,35.43000030517578 C-226.18699645996094,-101.5770034790039 -130.80299377441406,-183.9550018310547 -25.01300048828125,-179.61900329589844 C80.7770004272461,-175.2830047607422 151.88299560546875,-115.44999694824219 167.49099731445312,4.214000225067139 C183.0989990234375,123.87799835205078 136.63400268554688,166.1219940185547 87.68099975585938,196.2469940185547 C43.53300094604492,223.4149932861328 -37.32500076293945,222.177001953125 -85.71199798583984,213.1929931640625z"></path><path stroke-linecap="butt" stroke-linejoin="miter" fill-opacity="0" stroke-miterlimit="10" stroke="rgb(181,97,72)" stroke-opacity="1" stroke-width="11.778" d=" M-85.71199798583984,213.1929931640625 C-134.10899353027344,204.20700073242188 -224.4530029296875,172.43699645996094 -225.32000732421875,35.43000030517578 C-226.18699645996094,-101.5770034790039 -130.80299377441406,-183.9550018310547 -25.01300048828125,-179.61900329589844 C80.7770004272461,-175.2830047607422 151.88299560546875,-115.44999694824219 167.49099731445312,4.214000225067139 C183.0989990234375,123.87799835205078 136.63400268554688,166.1219940185547 87.68099975585938,196.2469940185547 C43.53300094604492,223.4149932861328 -37.32500076293945,222.177001953125 -85.71199798583984,213.1929931640625z"></path></g><g opacity="1" transform="matrix(1,0,0,1,0,0)"><path fill="rgb(228,156,107)" fill-opacity="1" d=" M101.40599822998047,-121.28199768066406 C101.40599822998047,-121.28199768066406 175.8509979248047,-23.867000579833984 105.6510009765625,73.14099884033203 C-36.4739990234375,269.5409851074219 -183.01199340820312,153.7969970703125 -183.01199340820312,153.7969970703125 C-183.01199340820312,153.7969970703125 -123.6500015258789,235.76600646972656 31.291000366210938,208.6510009765625 C247.3520050048828,170.83999633789062 151.59800720214844,-104.63800048828125 101.40599822998047,-121.28199768066406z"></path></g></g><g style="display: block;" transform="matrix(0.9599999785423279,0,0,0.9599999785423279,255.71275329589844,257.1822814941406)" opacity="1"><g opacity="1" transform="matrix(1,0,0,1,0,0)"><path stroke-linecap="round" stroke-linejoin="round" fill-opacity="0" stroke="rgb(201,132,97)" stroke-opacity="1" stroke-width="8.834" d=" M100.0999984741211,1.3040000200271606 C116,47 62.16299819946289,77.77100372314453 62.16299819946289,77.77100372314453"></path></g><g opacity="1" transform="matrix(1,0,0,1,0,0)"><g opacity="1" transform="matrix(1,0,0,1,0,0)"><path stroke-linecap="round" stroke-linejoin="round" fill-opacity="0" stroke="rgb(201,132,97)" stroke-opacity="1" stroke-width="20.612" d=" M-161.2550048828125,10.447999954223633 C-161.2550048828125,10.447999954223633 -119.89199829101562,-3.2360000610351562 -84.16300201416016,-4.736000061035156 C-33.67100143432617,-6.855999946594238 5.614999771118164,3.4030001163482666 33.76900100708008,18.804000854492188"></path></g><g opacity="1" transform="matrix(1,0,0,1,0,0)"><path stroke-linecap="round" stroke-linejoin="round" fill-opacity="0" stroke="rgb(139,64,46)" stroke-opacity="1" stroke-width="10.012" d=" M-160.27699279785156,11.916000366210938 C-160.27699279785156,11.916000366210938 -70.58999633789062,-24.340999603271484 17.636999130249023,15.125"></path></g></g></g><g style="display: block;" transform="matrix(0.9599999785423279,0,0,0.9599999785423279,255.71275329589844,257.1822814941406)" opacity="1"><g opacity="1" transform="matrix(1,0,0,1,0,0)"><g opacity="1" transform="matrix(1,0,0,1,0,0)"><path fill="rgb(188,179,175)" fill-opacity="1" d=" M1.1130000352859497,10.284000396728516 C1.1130000352859497,10.284000396728516 -15.38700008392334,3.6640000343322754 -15.38700008392334,3.6640000343322754 C-17.732999801635742,2.7230000495910645 -18.815000534057617,0.012000000104308128 -17.76300048828125,-2.2860000133514404 C-17.76300048828125,-2.2860000133514404 -8.163000106811523,-23.261999130249023 -8.163000106811523,-23.261999130249023 C-7.193999767303467,-25.378000259399414 -4.751999855041504,-26.381999969482422 -2.575000047683716,-25.559999465942383 C-2.575000047683716,-25.559999465942383 11.553999900817871,-20.225000381469727 11.553999900817871,-20.225000381469727 C13.765000343322754,-19.389999389648438 14.930000305175781,-16.965999603271484 14.199999809265137,-14.718000411987305 C14.199999809265137,-14.718000411987305 6.9710001945495605,7.543000221252441 6.9710001945495605,7.543000221252441 C6.179999828338623,9.979999542236328 3.490999937057495,11.23799991607666 1.1130000352859497,10.284000396728516z"></path><path stroke-linecap="round" stroke-linejoin="round" fill-opacity="0" stroke="rgb(91,97,119)" stroke-opacity="1" stroke-width="9.283" d=" M1.1130000352859497,10.284000396728516 C1.1130000352859497,10.284000396728516 -15.38700008392334,3.6640000343322754 -15.38700008392334,3.6640000343322754 C-17.732999801635742,2.7230000495910645 -18.815000534057617,0.012000000104308128 -17.76300048828125,-2.2860000133514404 C-17.76300048828125,-2.2860000133514404 -8.163000106811523,-23.261999130249023 -8.163000106811523,-23.261999130249023 C-7.193999767303467,-25.378000259399414 -4.751999855041504,-26.381999969482422 -2.575000047683716,-25.559999465942383 C-2.575000047683716,-25.559999465942383 11.553999900817871,-20.225000381469727 11.553999900817871,-20.225000381469727 C13.765000343322754,-19.389999389648438 14.930000305175781,-16.965999603271484 14.199999809265137,-14.718000411987305 C14.199999809265137,-14.718000411987305 6.9710001945495605,7.543000221252441 6.9710001945495605,7.543000221252441 C6.179999828338623,9.979999542236328 3.490999937057495,11.23799991607666 1.1130000352859497,10.284000396728516z"></path></g><g opacity="1" transform="matrix(1,0,0,1,0,0)"><path fill="rgb(237,238,239)" fill-opacity="1" d=" M-7.982999801635742,-13.649999618530273 C-7.982999801635742,-13.649999618530273 -4.452000141143799,-22.134000778198242 -4.452000141143799,-22.134000778198242 C-4.452000141143799,-22.134000778198242 10.552000045776367,-16.261999130249023 10.552000045776367,-16.261999130249023 C10.552000045776367,-16.261999130249023 9.074999809265137,-11.88700008392334 9.074999809265137,-11.88700008392334 C9.074999809265137,-11.88700008392334 -4.423999786376953,-16.76099967956543 -7.982999801635742,-13.649999618530273z"></path></g><g opacity="0.36" transform="matrix(1,0,0,1,0,0)"><path fill="rgb(91,97,119)" fill-opacity="1" d=" M2.8320000171661377,8.35099983215332 C2.8320000171661377,8.35099983215332 -16.895999908447266,0.9769999980926514 -16.895999908447266,0.9769999980926514 C-16.895999908447266,0.9769999980926514 -12.89900016784668,-8.928999900817871 -12.89900016784668,-8.928999900817871 C-12.89900016784668,-8.928999900817871 6.258999824523926,-1.7419999837875366 6.258999824523926,-1.7419999837875366 C6.258999824523926,-1.7419999837875366 2.8320000171661377,8.35099983215332 2.8320000171661377,8.35099983215332z"></path></g></g></g><g style="display: block;" transform="matrix(0.9599999785423279,0,0,0.9599999785423279,255.71275329589844,257.1822814941406)" opacity="1"><g opacity="1" transform="matrix(1,0,0,1,0,0)"><g opacity="1" transform="matrix(1,0,0,1,0,0.19300000369548798)"><path fill="rgb(188,179,175)" fill-opacity="1" d=" M-46.887001037597656,10.031000137329102 C-46.89699935913086,10.222999572753906 -48.16299819946289,19.423999786376953 -48.301998138427734,24.746999740600586 C-48.415000915527344,29.06399917602539 -49.07500076293945,33.617000579833984 -43.20800018310547,34.652000427246094 C-38.39699935913086,35.500999450683594 -32.45399856567383,36.91600036621094 -25.09600067138672,37.19900131225586 C-19.360000610351562,37.41999816894531 -18.48699951171875,30.492000579833984 -18.8700008392334,23.898000717163086 C-19.097999572753906,19.981000900268555 -18.343000411987305,11.16100025177002 -18.663000106811523,6.513999938964844 C-18.87299919128418,3.4619998931884766 -21.472999572753906,1.1349999904632568 -24.530000686645508,1.2580000162124634 C-24.530000686645508,1.2580000162124634 -39.24599838256836,-0.4399999976158142 -39.24599838256836,-0.4399999976158142 C-42.16400146484375,-0.32199999690055847 -45.887001037597656,1.4539999961853027 -46.03799819946289,4.370999813079834 C-46.03799819946289,4.370999813079834 -46.887001037597656,10.031000137329102 -46.887001037597656,10.031000137329102z"></path><path stroke-linecap="butt" stroke-linejoin="miter" fill-opacity="0" stroke-miterlimit="10" stroke="rgb(91,97,119)" stroke-opacity="1" stroke-width="8.834" d=" M-46.887001037597656,10.031000137329102 C-46.89699935913086,10.222999572753906 -48.16299819946289,19.423999786376953 -48.301998138427734,24.746999740600586 C-48.415000915527344,29.06399917602539 -49.07500076293945,33.617000579833984 -43.20800018310547,34.652000427246094 C-38.39699935913086,35.500999450683594 -32.45399856567383,36.91600036621094 -25.09600067138672,37.19900131225586 C-19.360000610351562,37.41999816894531 -18.48699951171875,30.492000579833984 -18.8700008392334,23.898000717163086 C-19.097999572753906,19.981000900268555 -18.343000411987305,11.16100025177002 -18.663000106811523,6.513999938964844 C-18.87299919128418,3.4619998931884766 -21.472999572753906,1.1349999904632568 -24.530000686645508,1.2580000162124634 C-24.530000686645508,1.2580000162124634 -39.24599838256836,-0.4399999976158142 -39.24599838256836,-0.4399999976158142 C-42.16400146484375,-0.32199999690055847 -45.887001037597656,1.4539999961853027 -46.03799819946289,4.370999813079834 C-46.03799819946289,4.370999813079834 -46.887001037597656,10.031000137329102 -46.887001037597656,10.031000137329102z"></path></g><g opacity="1" transform="matrix(1,0,0,1,0.19900000095367432,0.328000009059906)"><path fill="rgb(143,148,153)" fill-opacity="1" d=" M-43.9630012512207,23.898000717163086 C-43.9630012512207,23.898000717163086 -38.236000061035156,24.374000549316406 -33.20899963378906,24.652999877929688 C-26.41699981689453,25.030000686645508 -23.586999893188477,25.974000930786133 -23.586999893188477,25.974000930786133 C-23.586999893188477,25.974000930786133 -23.020999908447266,32.76499938964844 -24.530000686645508,32.95399856567383 C-30.34600067138672,33.680999755859375 -42.641998291015625,31.06800079345703 -42.641998291015625,31.06800079345703 C-42.641998291015625,31.06800079345703 -44.152000427246094,30.125 -44.152000427246094,27.672000885009766 C-44.152000427246094,25.2189998626709 -43.9630012512207,23.898000717163086 -43.9630012512207,23.898000717163086z"></path></g></g></g><g style="display: block;" transform="matrix(0.9599999785423279,0,0,0.9599999785423279,255.71275329589844,257.1822814941406)" opacity="1"><g opacity="1" transform="matrix(1,0,0,1,0,0)"><g opacity="1" transform="matrix(1,0,0,1,0.16300000250339508,0)"><path fill="rgb(188,179,175)" fill-opacity="1" d=" M-77.12300109863281,-22.222000122070312 C-77.14600372314453,-22.031999588012695 -77.15899658203125,-21.843000411987305 -77.16200256347656,-21.650999069213867 C-77.18499755859375,-20.336000442504883 -77.92400360107422,-14.503999710083008 -78.4209976196289,-9.20199966430664 C-78.8239974975586,-4.9019999504089355 -77.02400207519531,2.125 -71.06800079345703,2.0269999504089355 C-66.99600219726562,1.9600000381469727 -61.18000030517578,2.3980000019073486 -55.452999114990234,2.0160000324249268 C-49.72600173950195,1.6339999437332153 -48.17499923706055,-4.966000080108643 -48.11399841308594,-11.571000099182129 C-48.077999114990234,-15.494999885559082 -48.077999114990234,-22.027999877929688 -48.084999084472656,-26.68600082397461 C-48.0890007019043,-29.746000289916992 -50.527000427246094,-32.242000579833984 -53.58599853515625,-32.32500076293945 C-53.58599853515625,-32.32500076293945 -70.68900299072266,-32.7869987487793 -70.68900299072266,-32.7869987487793 C-73.60900115966797,-32.86600112915039 -76.10800170898438,-30.70800018310547 -76.45500183105469,-27.808000564575195 C-76.45500183105469,-27.808000564575195 -77.12300109863281,-22.222000122070312 -77.12300109863281,-22.222000122070312z"></path><path stroke-linecap="butt" stroke-linejoin="miter" fill-opacity="0" stroke-miterlimit="10" stroke="rgb(91,97,119)" stroke-opacity="1" stroke-width="8.834" d=" M-77.12300109863281,-22.222000122070312 C-77.14600372314453,-22.031999588012695 -77.15899658203125,-21.843000411987305 -77.16200256347656,-21.650999069213867 C-77.18499755859375,-20.336000442504883 -77.92400360107422,-14.503999710083008 -78.4209976196289,-9.20199966430664 C-78.8239974975586,-4.9019999504089355 -77.02400207519531,2.125 -71.06800079345703,2.0269999504089355 C-66.99600219726562,1.9600000381469727 -61.18000030517578,2.3980000019073486 -55.452999114990234,2.0160000324249268 C-49.72600173950195,1.6339999437332153 -48.17499923706055,-4.966000080108643 -48.11399841308594,-11.571000099182129 C-48.077999114990234,-15.494999885559082 -48.077999114990234,-22.027999877929688 -48.084999084472656,-26.68600082397461 C-48.0890007019043,-29.746000289916992 -50.527000427246094,-32.242000579833984 -53.58599853515625,-32.32500076293945 C-53.58599853515625,-32.32500076293945 -70.68900299072266,-32.7869987487793 -70.68900299072266,-32.7869987487793 C-73.60900115966797,-32.86600112915039 -76.10800170898438,-30.70800018310547 -76.45500183105469,-27.808000564575195 C-76.45500183105469,-27.808000564575195 -77.12300109863281,-22.222000122070312 -77.12300109863281,-22.222000122070312z"></path></g><g opacity="1" transform="matrix(1,0,0,1,0.5329999923706055,0.03799999877810478)"><path fill="rgb(143,148,153)" fill-opacity="1" d=" M-73.91400146484375,-8.647000312805176 C-73.91400146484375,-8.647000312805176 -67.97100067138672,-8.647000312805176 -61.744998931884766,-8.647000312805176 C-55.51900100708008,-8.647000312805176 -53.255001068115234,-8.36400032043457 -53.255001068115234,-8.36400032043457 C-53.255001068115234,-8.36400032043457 -52.547000885009766,-3.4119999408721924 -54.952999114990234,-2.2799999713897705 C-57.87799835205078,-0.902999997138977 -71.08399963378906,-2.138000011444092 -71.08399963378906,-2.138000011444092 C-71.08399963378906,-2.138000011444092 -73.63099670410156,-3.9769999980926514 -73.91400146484375,-5.816999912261963 C-74.1969985961914,-7.6570000648498535 -73.91400146484375,-8.647000312805176 -73.91400146484375,-8.647000312805176z"></path></g><g opacity="1" transform="matrix(1,0,0,1,0.2160000056028366,0)"><path fill="rgb(237,238,239)" fill-opacity="1" d=" M-73.01799774169922,-19.21299934387207 C-73.01799774169922,-19.21299934387207 -72.49500274658203,-22.916000366210938 -68.77300262451172,-22.986000061035156 C-65.0510025024414,-23.055999755859375 -52.547000885009766,-22.513999938964844 -52.547000885009766,-22.513999938964844 C-52.547000885009766,-22.513999938964844 -52.46500015258789,-27.841999053955078 -52.46500015258789,-27.841999053955078 C-52.46500015258789,-27.841999053955078 -65.65699768066406,-28.52199935913086 -68.77300262451172,-28.268999099731445 C-71.88899993896484,-28.016000747680664 -71.80500030517578,-27.027999877929688 -72.16899871826172,-25.81599998474121 C-72.53299713134766,-24.604000091552734 -73.01799774169922,-19.21299934387207 -73.01799774169922,-19.21299934387207z"></path></g></g></g><g style="display: block;" transform="matrix(0.9599999785423279,0,0,0.9599999785423279,255.71275329589844,257.1822814941406)" opacity="1"><g opacity="1" transform="matrix(1,0,0,1,0,0)"><g opacity="1" transform="matrix(1,0,0,1,0.1589999943971634,0)"><path fill="rgb(188,179,175)" fill-opacity="1" d=" M-105.09300231933594,9.515999794006348 C-105.10099792480469,9.708000183105469 -105.0989990234375,9.897000312805176 -105.08699798583984,10.088000297546387 C-105.00700378417969,11.401000022888184 -105.28800201416016,17.27400016784668 -105.36799621582031,22.597999572753906 C-105.43299865722656,26.916000366210938 -103.08999633789062,33.779998779296875 -97.15899658203125,33.21699905395508 C-93.10399627685547,32.832000732421875 -87.27300262451172,32.81399917602539 -81.59300231933594,31.985000610351562 C-75.91300201416016,31.1560001373291 -74.88300323486328,24.45400047302246 -75.33899688720703,17.86400032043457 C-75.61000061035156,13.949000358581543 -76.12200164794922,7.436999797821045 -76.49299621582031,2.7939999103546143 C-76.73699951171875,-0.25600001215934753 -79.36199951171875,-2.553999900817871 -82.41799926757812,-2.3970000743865967 C-82.41799926757812,-2.3970000743865967 -99.50399780273438,-1.5199999809265137 -99.50399780273438,-1.5199999809265137 C-102.4209976196289,-1.3700000047683716 -104.74400329589844,0.9769999980926514 -104.86299896240234,3.8949999809265137 C-104.86299896240234,3.8949999809265137 -105.09300231933594,9.515999794006348 -105.09300231933594,9.515999794006348z"></path><path stroke-linecap="butt" stroke-linejoin="miter" fill-opacity="0" stroke-miterlimit="10" stroke="rgb(91,97,119)" stroke-opacity="1" stroke-width="8.834" d=" M-105.09300231933594,9.515999794006348 C-105.10099792480469,9.708000183105469 -105.0989990234375,9.897000312805176 -105.08699798583984,10.088000297546387 C-105.00700378417969,11.401000022888184 -105.28800201416016,17.27400016784668 -105.36799621582031,22.597999572753906 C-105.43299865722656,26.916000366210938 -103.08999633789062,33.779998779296875 -97.15899658203125,33.21699905395508 C-93.10399627685547,32.832000732421875 -87.27300262451172,32.81399917602539 -81.59300231933594,31.985000610351562 C-75.91300201416016,31.1560001373291 -74.88300323486328,24.45400047302246 -75.33899688720703,17.86400032043457 C-75.61000061035156,13.949000358581543 -76.12200164794922,7.436999797821045 -76.49299621582031,2.7939999103546143 C-76.73699951171875,-0.25600001215934753 -79.36199951171875,-2.553999900817871 -82.41799926757812,-2.3970000743865967 C-82.41799926757812,-2.3970000743865967 -99.50399780273438,-1.5199999809265137 -99.50399780273438,-1.5199999809265137 C-102.4209976196289,-1.3700000047683716 -104.74400329589844,0.9769999980926514 -104.86299896240234,3.8949999809265137 C-104.86299896240234,3.8949999809265137 -105.09300231933594,9.515999794006348 -105.09300231933594,9.515999794006348z"></path></g><g opacity="1" transform="matrix(1,0,0,1,0.23199999332427979,0.023000000044703484)"><path fill="rgb(143,148,153)" fill-opacity="1" d=" M-101.25199890136719,21.667999267578125 C-101.25199890136719,21.667999267578125 -96.06300354003906,21.04800033569336 -91.03600311279297,20.78499984741211 C-82.88899993896484,20.358999252319336 -79.85700225830078,20.50200080871582 -79.85700225830078,20.50200080871582 C-79.85700225830078,20.50200080871582 -79.68499755859375,26.820999145507812 -81.13099670410156,27.29400062561035 C-86.7020034790039,29.114999771118164 -97.68599700927734,28.56800079345703 -97.68599700927734,28.56800079345703 C-97.68599700927734,28.56800079345703 -99.94999694824219,28.85099983215332 -100.71900177001953,25.409000396728516 C-101.25399780273438,23.014999389648438 -101.25199890136719,21.667999267578125 -101.25199890136719,21.667999267578125z"></path></g></g></g><g style="display: block;" transform="matrix(0.9599999785423279,0,0,0.9599999785423279,255.71275329589844,257.1822814941406)" opacity="1"><g opacity="1" transform="matrix(1,0,0,1,0,0)"><g opacity="1" transform="matrix(1,0,0,1,0.33500000834465027,0.04699999839067459)"><path fill="rgb(188,179,175)" fill-opacity="1" d=" M-150.29400634765625,15.463000297546387 C-150.2530059814453,15.640000343322754 -150.20399475097656,15.812999725341797 -150.14700317382812,15.987000465393066 C-149.75599670410156,17.18000030517578 -148.52999877929688,22.60099983215332 -147.2760009765625,27.493000030517578 C-146.25900268554688,31.461000442504883 -142.65499877929688,37.45399856567383 -137.97999572753906,36.17499923706055 C-134.78399658203125,35.30099868774414 -130.0540008544922,34.53499984741211 -125.64900207519531,33.04499816894531 C-121.24400329589844,31.55500030517578 -122.06900024414062,25.277999877929688 -124.0719985961914,19.29400062561035 C-125.26200103759766,15.739999771118164 -127.29100036621094,9.833000183105469 -128.7429962158203,5.624000072479248 C-129.69700622558594,2.8589999675750732 -132.39700317382812,1.0889999866485596 -134.83900451660156,1.6260000467300415 C-134.83900451660156,1.6260000467300415 -148.49200439453125,4.625999927520752 -148.49200439453125,4.625999927520752 C-150.822998046875,5.138000011444092 -152.12600708007812,7.589000225067139 -151.5,10.279999732971191 C-151.5,10.279999732971191 -150.29400634765625,15.463000297546387 -150.29400634765625,15.463000297546387z"></path><path stroke-linecap="butt" stroke-linejoin="miter" fill-opacity="0" stroke-miterlimit="10" stroke="rgb(91,97,119)" stroke-opacity="1" stroke-width="7.782" d=" M-150.29400634765625,15.463000297546387 C-150.2530059814453,15.640000343322754 -150.20399475097656,15.812999725341797 -150.14700317382812,15.987000465393066 C-149.75599670410156,17.18000030517578 -148.52999877929688,22.60099983215332 -147.2760009765625,27.493000030517578 C-146.25900268554688,31.461000442504883 -142.65499877929688,37.45399856567383 -137.97999572753906,36.17499923706055 C-134.78399658203125,35.30099868774414 -130.0540008544922,34.53499984741211 -125.64900207519531,33.04499816894531 C-121.24400329589844,31.55500030517578 -122.06900024414062,25.277999877929688 -124.0719985961914,19.29400062561035 C-125.26200103759766,15.739999771118164 -127.29100036621094,9.833000183105469 -128.7429962158203,5.624000072479248 C-129.69700622558594,2.8589999675750732 -132.39700317382812,1.0889999866485596 -134.83900451660156,1.6260000467300415 C-134.83900451660156,1.6260000467300415 -148.49200439453125,4.625999927520752 -148.49200439453125,4.625999927520752 C-150.822998046875,5.138000011444092 -152.12600708007812,7.589000225067139 -151.5,10.279999732971191 C-151.5,10.279999732971191 -150.29400634765625,15.463000297546387 -150.29400634765625,15.463000297546387z"></path></g><g opacity="1" transform="matrix(1,0,0,1,0.23000000417232513,0)"><path fill="rgb(143,148,153)" fill-opacity="1" d=" M-143.40699768066406,26.250999450683594 C-143.40699768066406,26.250999450683594 -136.78599548339844,24.042999267578125 -135.27999877929688,23.791000366210938 C-129.7729949951172,22.871000289916992 -127.38200378417969,22.48900032043457 -127.38200378417969,22.48900032043457 C-127.38200378417969,22.48900032043457 -124.98600006103516,28.749000549316406 -126.5510025024414,29.382999420166016 C-132.58099365234375,31.826000213623047 -139.33999633789062,32.805999755859375 -139.33999633789062,32.805999755859375 C-139.33999633789062,32.805999755859375 -141.5989990234375,33.33300018310547 -142.73300170898438,29.628000259399414 C-143.52200317382812,27.052000045776367 -143.40699768066406,26.250999450683594 -143.40699768066406,26.250999450683594z"></path></g></g></g><g style="display: block;" transform="matrix(0.9599999785423279,0,0,0.9599999785423279,255.71275329589844,257.1822814941406)" opacity="1"><g opacity="1" transform="matrix(1,0,0,1,0,0)"><g opacity="1" transform="matrix(1,0,0,1,0,0.3070000112056732)"><path fill="rgb(188,179,175)" fill-opacity="1" d=" M-130.50900268554688,-19.134000778198242 C-130.50100708007812,-18.95400047302246 -130.48599243164062,-18.775999069213867 -130.46099853515625,-18.597000122070312 C-130.2899932861328,-17.365999221801758 -130.08999633789062,-11.840999603271484 -129.7550048828125,-6.835999965667725 C-129.48300170898438,-2.7769999504089355 -126.9000015258789,3.5980000495910645 -121.73200225830078,2.880000114440918 C-118.1989974975586,2.3889999389648438 -113.07599639892578,2.187000036239624 -108.14800262451172,1.2280000448226929 C-103.22000122070312,0.26899999380111694 -102.82599639892578,-6.059999942779541 -103.72899627685547,-12.237000465393066 C-104.26499938964844,-15.906000137329102 -105.21099853515625,-22.007999420166016 -105.89099884033203,-26.357999801635742 C-106.33799743652344,-29.215999603271484 -108.81999969482422,-31.291000366210938 -111.49299621582031,-31.047000885009766 C-111.49299621582031,-31.047000885009766 -126.44000244140625,-29.68000030517578 -126.44000244140625,-29.68000030517578 C-128.99200439453125,-29.44700050354004 -130.85400390625,-27.16699981689453 -130.73599243164062,-24.422000885009766 C-130.73599243164062,-24.422000885009766 -130.50900268554688,-19.134000778198242 -130.50900268554688,-19.134000778198242z"></path><path stroke-linecap="butt" stroke-linejoin="miter" fill-opacity="0" stroke-miterlimit="10" stroke="rgb(91,97,119)" stroke-opacity="1" stroke-width="8.038" d=" M-130.50900268554688,-19.134000778198242 C-130.50100708007812,-18.95400047302246 -130.48599243164062,-18.775999069213867 -130.46099853515625,-18.597000122070312 C-130.2899932861328,-17.365999221801758 -130.08999633789062,-11.840999603271484 -129.7550048828125,-6.835999965667725 C-129.48300170898438,-2.7769999504089355 -126.9000015258789,3.5980000495910645 -121.73200225830078,2.880000114440918 C-118.1989974975586,2.3889999389648438 -113.07599639892578,2.187000036239624 -108.14800262451172,1.2280000448226929 C-103.22000122070312,0.26899999380111694 -102.82599639892578,-6.059999942779541 -103.72899627685547,-12.237000465393066 C-104.26499938964844,-15.906000137329102 -105.21099853515625,-22.007999420166016 -105.89099884033203,-26.357999801635742 C-106.33799743652344,-29.215999603271484 -108.81999969482422,-31.291000366210938 -111.49299621582031,-31.047000885009766 C-111.49299621582031,-31.047000885009766 -126.44000244140625,-29.68000030517578 -126.44000244140625,-29.68000030517578 C-128.99200439453125,-29.44700050354004 -130.85400390625,-27.16699981689453 -130.73599243164062,-24.422000885009766 C-130.73599243164062,-24.422000885009766 -130.50900268554688,-19.134000778198242 -130.50900268554688,-19.134000778198242z"></path></g><g opacity="1" transform="matrix(1,0,0,1,-0.22499999403953552,0.20399999618530273)"><path fill="rgb(143,148,153)" fill-opacity="1" d=" M-125.7040023803711,-6.099999904632568 C-125.7040023803711,-6.099999904632568 -115.23200225830078,-7.374000072479248 -112.4020004272461,-7.514999866485596 C-109.5719985961914,-7.656000137329102 -107.73300170898438,-7.6570000648498535 -107.73300170898438,-7.6570000648498535 C-107.73300170898438,-7.6570000648498535 -106.68299865722656,-4.563000202178955 -109.5719985961914,-2.986999988555908 C-111.64700317382812,-1.8550000190734863 -118.39299774169922,-1.4780000448226929 -118.39299774169922,-1.4780000448226929 C-118.39299774169922,-1.4780000448226929 -122.4020004272461,-0.6290000081062317 -123.62799835205078,-1.7610000371932983 C-124.48500061035156,-2.552000045776367 -125.7040023803711,-6.099999904632568 -125.7040023803711,-6.099999904632568z"></path></g><g opacity="1" transform="matrix(1,0,0,1,-0.22499999403953552,0.3070000112056732)"><path fill="rgb(237,238,239)" fill-opacity="1" d=" M-126.5999984741211,-18.93000030517578 C-126.5999984741211,-18.93000030517578 -125.09100341796875,-20.43899917602539 -123.7699966430664,-20.81599998474121 C-120.19100189208984,-21.839000701904297 -109.80799865722656,-21.760000228881836 -109.80799865722656,-21.760000228881836 C-109.80799865722656,-21.760000228881836 -110.4749984741211,-27.04599952697754 -110.4749984741211,-27.04599952697754 C-110.4749984741211,-27.04599952697754 -120.55500030517578,-26.320999145507812 -123.60399627685547,-25.632999420166016 C-126.65299987792969,-24.94499969482422 -126.03099822998047,-24.520000457763672 -126.22200012207031,-23.268999099731445 C-126.41300201416016,-22.01799964904785 -126.5999984741211,-18.93000030517578 -126.5999984741211,-18.93000030517578z"></path></g></g></g><g style="display: block;" transform="matrix(0.9599999785423279,0,0,0.9599999785423279,255.71275329589844,257.1822814941406)" opacity="1"><g opacity="1" transform="matrix(1,0,0,1,0,0)"><g opacity="1" transform="matrix(1,0,0,1,0.18199999630451202,0.5040000081062317)"><path fill="rgb(188,179,175)" fill-opacity="1" d=" M-179.5959930419922,-3.1689999103546143 C-179.54600524902344,-3.01200008392334 -179.49000549316406,-2.8589999675750732 -179.42599487304688,-2.7070000171661377 C-178.98699951171875,-1.6640000343322754 -177.4720001220703,3.1530001163482666 -175.9759979248047,7.479000091552734 C-174.76300048828125,10.98799991607666 -171.11599731445312,15.973999977111816 -167.11500549316406,14.088000297546387 C-164.3800048828125,12.79800033569336 -160.2899932861328,11.376999855041504 -156.54299926757812,9.336000442504883 C-152.79600524902344,7.295000076293945 -154.0260009765625,1.6260000467300415 -156.26800537109375,-3.5940001010894775 C-157.60000610351562,-6.695000171661377 -159.85800170898438,-11.84000015258789 -161.4720001220703,-15.505999565124512 C-162.53199768066406,-17.913999557495117 -165.04600524902344,-19.139999389648438 -167.14599609375,-18.275999069213867 C-167.14599609375,-18.275999069213867 -178.88999938964844,-13.444000244140625 -178.88999938964844,-13.444000244140625 C-180.89500427246094,-12.619000434875488 -181.84100341796875,-10.15999984741211 -181.07400512695312,-7.770999908447266 C-181.07400512695312,-7.770999908447266 -179.5959930419922,-3.1689999103546143 -179.5959930419922,-3.1689999103546143z"></path><path stroke-linecap="butt" stroke-linejoin="miter" fill-opacity="0" stroke-miterlimit="10" stroke="rgb(91,97,119)" stroke-opacity="1" stroke-width="7.058" d=" M-179.5959930419922,-3.1689999103546143 C-179.54600524902344,-3.01200008392334 -179.49000549316406,-2.8589999675750732 -179.42599487304688,-2.7070000171661377 C-178.98699951171875,-1.6640000343322754 -177.4720001220703,3.1530001163482666 -175.9759979248047,7.479000091552734 C-174.76300048828125,10.98799991607666 -171.11599731445312,15.973999977111816 -167.11500549316406,14.088000297546387 C-164.3800048828125,12.79800033569336 -160.2899932861328,11.376999855041504 -156.54299926757812,9.336000442504883 C-152.79600524902344,7.295000076293945 -154.0260009765625,1.6260000467300415 -156.26800537109375,-3.5940001010894775 C-157.60000610351562,-6.695000171661377 -159.85800170898438,-11.84000015258789 -161.4720001220703,-15.505999565124512 C-162.53199768066406,-17.913999557495117 -165.04600524902344,-19.139999389648438 -167.14599609375,-18.275999069213867 C-167.14599609375,-18.275999069213867 -178.88999938964844,-13.444000244140625 -178.88999938964844,-13.444000244140625 C-180.89500427246094,-12.619000434875488 -181.84100341796875,-10.15999984741211 -181.07400512695312,-7.770999908447266 C-181.07400512695312,-7.770999908447266 -179.5959930419922,-3.1689999103546143 -179.5959930419922,-3.1689999103546143z"></path></g><g opacity="1" transform="matrix(1,0,0,1,0.2290000021457672,0.11599999666213989)"><path fill="rgb(237,238,239)" fill-opacity="1" d=" M-178.12399291992188,-9.390999794006348 C-178.12399291992188,-9.390999794006348 -166.30499267578125,-14.222999572753906 -166.30499267578125,-14.222999572753906 C-166.30499267578125,-14.222999572753906 -164.4290008544922,-13.619000434875488 -164.0540008544922,-13.015000343322754 C-163.6790008544922,-12.41100025177002 -162.55299377441406,-9.593000411987305 -162.55299377441406,-9.593000411987305 C-162.55299377441406,-9.593000411987305 -174.55999755859375,-4.9629998207092285 -175.4980010986328,-4.76200008392334 C-176.43600463867188,-4.560999870300293 -178.12399291992188,-9.390999794006348 -178.12399291992188,-9.390999794006348z"></path></g><g opacity="1" transform="matrix(1,0,0,1,0.2290000021457672,0)"><path fill="rgb(143,148,153)" fill-opacity="1" d=" M-172.3090057373047,6.711999893188477 C-172.3090057373047,6.711999893188477 -162.99400329589844,2.6689999103546143 -160.302001953125,1.7769999504089355 C-157.61000061035156,0.8849999904632568 -158.38600158691406,1.399999976158142 -158.38600158691406,1.399999976158142 C-158.38600158691406,1.399999976158142 -156.197998046875,5.353000164031982 -157.32400512695312,6.258999824523926 C-158.4340057373047,7.1519999504089355 -164.0070037841797,9.279000282287598 -164.0070037841797,9.279000282287598 C-164.0070037841797,9.279000282287598 -168.16200256347656,11.336000442504883 -169.70599365234375,10.684000015258789 C-171.60499572753906,9.883000373840332 -172.3090057373047,6.711999893188477 -172.3090057373047,6.711999893188477z"></path></g></g></g><g style="display: none;"><g><g><path></path><path stroke-linecap="round" stroke-linejoin="round" fill-opacity="0"></path></g><g><path></path></g><g><path></path></g></g></g><g style="display: none;"><g><g><path></path><path stroke-linecap="butt" stroke-linejoin="miter" fill-opacity="0" stroke-miterlimit="10"></path></g><g><path></path></g></g></g><g style="display: none;"><g><g><path></path><path stroke-linecap="butt" stroke-linejoin="miter" fill-opacity="0" stroke-miterlimit="10"></path></g><g><path></path></g><g><path></path></g></g></g><g style="display: none;"><g><g><path></path><path stroke-linecap="butt" stroke-linejoin="miter" fill-opacity="0" stroke-miterlimit="10"></path></g><g><path></path></g></g></g><g style="display: none;"><g><g><path></path><path stroke-linecap="butt" stroke-linejoin="miter" fill-opacity="0" stroke-miterlimit="10"></path></g><g><path></path></g></g></g><g style="display: none;"><g><g><path></path><path stroke-linecap="butt" stroke-linejoin="miter" fill-opacity="0" stroke-miterlimit="10"></path></g><g><path></path></g><g><path></path></g></g></g><g style="display: none;"><g><g><path></path><path stroke-linecap="butt" stroke-linejoin="miter" fill-opacity="0" stroke-miterlimit="10"></path></g><g><path></path></g><g><path></path></g></g></g><g style="display: block;" transform="matrix(0.9599999785423279,0,0,0.9599999785423279,255.71275329589844,257.1822814941406)" opacity="1"><g opacity="1" transform="matrix(1,0,0,1,0,0)"><g opacity="1" transform="matrix(1,0,0,1,0,0)"><path stroke-linecap="round" stroke-linejoin="round" fill-opacity="0" stroke="rgb(201,132,97)" stroke-opacity="1" stroke-width="11.778" d=" M-67.66799926757812,134.73399353027344 C-75.45899963378906,177.63900756835938 -45.12200164794922,199.47999572753906 -45.12200164794922,199.47999572753906"></path></g><g opacity="1" transform="matrix(1,0,0,1,0,0)"><path stroke-linecap="round" stroke-linejoin="round" fill-opacity="0" stroke="rgb(201,132,97)" stroke-opacity="1" stroke-width="10.306" d=" M-102.36499786376953,134.86700439453125 C-111.41999816894531,176.82200622558594 -85.08699798583984,194.9010009765625 -85.08699798583984,194.9010009765625"></path></g><g opacity="1" transform="matrix(1,0,0,1,0,0)"><path stroke-linecap="round" stroke-linejoin="round" fill-opacity="0" stroke="rgb(201,132,97)" stroke-opacity="1" stroke-width="11.778" d=" M-148.8939971923828,53.534000396728516 C-174.35400390625,108.16699981689453 -110.6719970703125,117.52100372314453 -95.88999938964844,80.48699951171875 C-82.50800323486328,117.5270004272461 -26.420000076293945,104.89800262451172 -30.3439998626709,72.58899688720703"></path></g></g></g><g style="display: block;" transform="matrix(0.9599999785423279,0,0,0.9599999785423279,255.71275329589844,257.1822814941406)" opacity="1"><g opacity="1" transform="matrix(1,0,0,1,0,0)"><g opacity="1" transform="matrix(1,0,0,1,0,0)"><path stroke-linecap="round" stroke-linejoin="round" fill-opacity="0" stroke="rgb(201,132,97)" stroke-opacity="1" stroke-width="8.834" d=" M-140.73599243164062,-38.53499984741211 C-140.73599243164062,-38.53499984741211 -98.88899993896484,-48.25699996948242 -98.24600219726562,-81.89099884033203"></path></g><g opacity="1" transform="matrix(1,0,0,1,0,0)"><path stroke-linecap="round" stroke-linejoin="round" fill-opacity="0" stroke="rgb(201,132,97)" stroke-opacity="1" stroke-width="8.834" d=" M-51.5880012512207,-92.38999938964844 C-51.5880012512207,-92.38999938964844 -62.0260009765625,-78.24500274658203 -53.64400100708008,-68.99600219726562 C-45.262001037597656,-59.74700164794922 -11.402999877929688,-49.36899948120117 -11.402999877929688,-49.36899948120117"></path></g><g opacity="1" transform="matrix(1,0,0,1,0,0)"><path stroke-linecap="round" stroke-linejoin="round" fill-opacity="0" stroke="rgb(201,132,97)" stroke-opacity="1" stroke-width="7.361" d=" M-21.700000762939453,-36.66400146484375 C-21.700000762939453,-36.66400146484375 -54.38800048828125,-52.92399978637695 -57.358001708984375,-71.75700378417969"></path></g><g opacity="1" transform="matrix(1,0,0,1,0,0)"><path fill="rgb(255,255,255)" fill-opacity="1" d=" M65.552001953125,-77.44100189208984 C64.84700012207031,-67.8270034790039 52.05699920654297,-69.34400177001953 36.433998107910156,-70.48899841308594 C20.81100082397461,-71.63400268554688 8.272000312805176,-71.9749984741211 8.97700023651123,-81.58899688720703 C9.682000160217285,-91.2030029296875 22.917999267578125,-98.06800079345703 38.54100036621094,-96.9229965209961 C54.16400146484375,-95.77799987792969 66.25700378417969,-87.05500030517578 65.552001953125,-77.44100189208984z M18.224000930786133,-80.71299743652344 C18.224000930786133,-77.85099792480469 14.10099983215332,-75.52999877929688 9.015999794006348,-75.52999877929688 C3.930999994277954,-75.52999877929688 -0.19200000166893005,-77.85099792480469 -0.19200000166893005,-80.71299743652344 C-0.19200000166893005,-83.57499694824219 3.930999994277954,-85.89600372314453 9.015999794006348,-85.89600372314453 C14.10099983215332,-85.89600372314453 18.224000930786133,-83.57499694824219 18.224000930786133,-80.71299743652344z M62.07400131225586,-80.5530014038086 C62.07400131225586,-78.38500213623047 59.525001525878906,-76.62699890136719 56.380001068115234,-76.62699890136719 C53.23500061035156,-76.62699890136719 50.68600082397461,-78.38500213623047 50.68600082397461,-80.5530014038086 C50.68600082397461,-82.72100067138672 53.23500061035156,-84.4800033569336 56.380001068115234,-84.4800033569336 C59.525001525878906,-84.4800033569336 62.07400131225586,-82.72100067138672 62.07400131225586,-80.5530014038086z M-52.38999938964844,-71.72000122070312 C-68.55400085449219,-72.08100128173828 -55.31999969482422,-124.21700286865234 9.36400032043457,-124.36699676513672 C87.35099792480469,-124.5479965209961 90.05699920654297,-66.16899871826172 71.03399658203125,-65.91200256347656 C67.92400360107422,-65.87000274658203 -44.237998962402344,-71.53800201416016 -52.38999938964844,-71.72000122070312z"></path><g opacity="1" transform="matrix(1,0,0,1,0,0)"><g opacity="1" transform="matrix(1,0,0,1,0,0)"><path fill="rgb(30,20,18)" fill-opacity="1" d=" M65.552001953125,-77.44100189208984 C64.84700012207031,-67.8270034790039 52.05699920654297,-69.34400177001953 36.433998107910156,-70.48899841308594 C20.81100082397461,-71.63400268554688 8.272000312805176,-71.9749984741211 8.97700023651123,-81.58899688720703 C9.682000160217285,-91.2030029296875 22.917999267578125,-98.06800079345703 38.54100036621094,-96.9229965209961 C54.16400146484375,-95.77799987792969 66.25700378417969,-87.05500030517578 65.552001953125,-77.44100189208984z"></path></g><g opacity="1" transform="matrix(1,0,0,1,0,0)"><path fill="rgb(255,255,255)" fill-opacity="1" d=" M18.224000930786133,-80.71299743652344 C18.224000930786133,-77.85099792480469 14.10099983215332,-75.52999877929688 9.015999794006348,-75.52999877929688 C3.930999994277954,-75.52999877929688 -0.19200000166893005,-77.85099792480469 -0.19200000166893005,-80.71299743652344 C-0.19200000166893005,-83.57499694824219 3.930999994277954,-85.89600372314453 9.015999794006348,-85.89600372314453 C14.10099983215332,-85.89600372314453 18.224000930786133,-83.57499694824219 18.224000930786133,-80.71299743652344z"></path></g><g opacity="1" transform="matrix(1,0,0,1,0,0)"><path fill="rgb(255,255,255)" fill-opacity="1" d=" M62.07400131225586,-80.5530014038086 C62.07400131225586,-78.38500213623047 59.525001525878906,-76.62699890136719 56.380001068115234,-76.62699890136719 C53.23500061035156,-76.62699890136719 50.68600082397461,-78.38500213623047 50.68600082397461,-80.5530014038086 C50.68600082397461,-82.72100067138672 53.23500061035156,-84.4800033569336 56.380001068115234,-84.4800033569336 C59.525001525878906,-84.4800033569336 62.07400131225586,-82.72100067138672 62.07400131225586,-80.5530014038086z"></path></g></g><path stroke-linecap="round" stroke-linejoin="round" fill-opacity="0" stroke="rgb(81,40,28)" stroke-opacity="1" stroke-width="8.834" d=" M-52.38999938964844,-71.72000122070312 C-68.55400085449219,-72.08100128173828 -55.31999969482422,-124.21700286865234 9.36400032043457,-124.36699676513672 C87.35099792480469,-124.5479965209961 90.05699920654297,-66.16899871826172 71.03399658203125,-65.91200256347656 C67.92400360107422,-65.87000274658203 -44.237998962402344,-71.53800201416016 -52.38999938964844,-71.72000122070312z"></path></g><g opacity="1" transform="matrix(1,0,0,1,0,0)"><path fill="rgb(86,38,27)" fill-opacity="1" d=" M-49.59600067138672,-140.86300659179688 C-33.17399978637695,-135.53900146484375 3.375999927520752,-138.2969970703125 22.260000228881836,-136.85899353027344 C41.14400100708008,-135.42100524902344 55.10300064086914,-135.64999389648438 59.80500030517578,-136.625 C65.46499633789062,-137.7989959716797 67.85800170898438,-142.11199951171875 62.847999572753906,-146.427001953125 C57.8380012512207,-150.74200439453125 30.860000610351562,-150.7429962158203 13.902999877929688,-151.2220001220703 C-3.053999900817871,-151.7010040283203 -45.446998596191406,-155.53700256347656 -50.071998596191406,-152.18099975585938 C-54.696998596191406,-148.8249969482422 -52.00199890136719,-141.64300537109375 -49.59600067138672,-140.86300659179688z"></path></g><g opacity="1" transform="matrix(1,0,0,1,0,0)"><path fill="rgb(255,255,255)" fill-opacity="1" d=" M-107.88500213623047,-76.35900115966797 C-107.61000061035156,-66.7229995727539 -120.48799896240234,-66.93199920654297 -136.14599609375,-66.48400115966797 C-151.8040008544922,-66.03600311279297 -164.31399536132812,-65.10199737548828 -164.58900451660156,-74.73799896240234 C-164.86399841308594,-84.3740005493164 -152.3939971923828,-92.5479965209961 -136.73599243164062,-92.99600219726562 C-121.0780029296875,-93.44400024414062 -108.16000366210938,-85.99500274658203 -107.88500213623047,-76.35900115966797z M-155.30099487304688,-74.80599975585938 C-155.00999450683594,-71.95800018310547 -158.87600708007812,-69.23100280761719 -163.93499755859375,-68.71399688720703 C-168.99400329589844,-68.1969985961914 -173.33099365234375,-70.08699798583984 -173.6219940185547,-72.93499755859375 C-173.91299438476562,-75.78299713134766 -170.0469970703125,-78.50900268554688 -164.98800659179688,-79.0260009765625 C-159.9290008544922,-79.54299926757812 -155.5919952392578,-77.65399932861328 -155.30099487304688,-74.80599975585938z M-111.66200256347656,-79.10199737548828 C-111.44200134277344,-76.94499969482422 -113.79900360107422,-74.93699645996094 -116.9280014038086,-74.61699676513672 C-120.05699920654297,-74.2969970703125 -122.77100372314453,-75.78800201416016 -122.99099731445312,-77.94499969482422 C-123.21099853515625,-80.10199737548828 -120.85399627685547,-82.10900115966797 -117.7249984741211,-82.42900085449219 C-114.59600067138672,-82.7490005493164 -111.88200378417969,-81.25900268554688 -111.66200256347656,-79.10199737548828z M-197.0989990234375,-58.73899841308594 C-191.60699462890625,-58.73899841308594 -125.06099700927734,-63.194000244140625 -112.12000274658203,-65.21900177001953 C-90.6969985961914,-68.57099914550781 -87.85099792480469,-110.0009994506836 -142.75900268554688,-104.72200012207031 C-201.968994140625,-99.02999877929688 -202.59100341796875,-58.73899841308594 -197.0989990234375,-58.73899841308594z"></path><g opacity="1" transform="matrix(1,0,0,1,0,0)"><g opacity="1" transform="matrix(1,0,0,1,0,0)"><path fill="rgb(30,20,18)" fill-opacity="1" d=" M-107.88500213623047,-76.35900115966797 C-107.61000061035156,-66.7229995727539 -120.48799896240234,-66.93199920654297 -136.14599609375,-66.48400115966797 C-151.8040008544922,-66.03600311279297 -164.31399536132812,-65.10199737548828 -164.58900451660156,-74.73799896240234 C-164.86399841308594,-84.3740005493164 -152.3939971923828,-92.5479965209961 -136.73599243164062,-92.99600219726562 C-121.0780029296875,-93.44400024414062 -108.16000366210938,-85.99500274658203 -107.88500213623047,-76.35900115966797z"></path></g><g opacity="1" transform="matrix(1,0,0,1,0,0)"><path fill="rgb(255,255,255)" fill-opacity="1" d=" M-155.30099487304688,-74.80599975585938 C-155.00999450683594,-71.95800018310547 -158.87600708007812,-69.23100280761719 -163.93499755859375,-68.71399688720703 C-168.99400329589844,-68.1969985961914 -173.33099365234375,-70.08699798583984 -173.6219940185547,-72.93499755859375 C-173.91299438476562,-75.78299713134766 -170.0469970703125,-78.50900268554688 -164.98800659179688,-79.0260009765625 C-159.9290008544922,-79.54299926757812 -155.5919952392578,-77.65399932861328 -155.30099487304688,-74.80599975585938z"></path></g><g opacity="1" transform="matrix(1,0,0,1,0,0)"><path fill="rgb(255,255,255)" fill-opacity="1" d=" M-111.66200256347656,-79.10199737548828 C-111.44200134277344,-76.94499969482422 -113.79900360107422,-74.93699645996094 -116.9280014038086,-74.61699676513672 C-120.05699920654297,-74.2969970703125 -122.77100372314453,-75.78800201416016 -122.99099731445312,-77.94499969482422 C-123.21099853515625,-80.10199737548828 -120.85399627685547,-82.10900115966797 -117.7249984741211,-82.42900085449219 C-114.59600067138672,-82.7490005493164 -111.88200378417969,-81.25900268554688 -111.66200256347656,-79.10199737548828z"></path></g></g><path stroke-linecap="round" stroke-linejoin="round" fill-opacity="0" stroke="rgb(81,40,28)" stroke-opacity="1" stroke-width="8.834" d=" M-197.0989990234375,-58.73899841308594 C-191.60699462890625,-58.73899841308594 -125.06099700927734,-63.194000244140625 -112.12000274658203,-65.21900177001953 C-90.6969985961914,-68.57099914550781 -87.85099792480469,-110.0009994506836 -142.75900268554688,-104.72200012207031 C-201.968994140625,-99.02999877929688 -202.59100341796875,-58.73899841308594 -197.0989990234375,-58.73899841308594z"></path></g><g opacity="1" transform="matrix(1,0,0,1,0,0)"><path fill="rgb(86,38,27)" fill-opacity="1" d=" M-178.4669952392578,-139.31199645996094 C-177.12100219726562,-140.9459991455078 -150.7239990234375,-140.29299926757812 -139.8560028076172,-139.42300415039062 C-126.27100372314453,-138.3350067138672 -119.45999908447266,-141.7259979248047 -114.13099670410156,-139.78500366210938 C-108.28199768066406,-137.65499877929688 -109.46800231933594,-128.36099243164062 -113.22599792480469,-127.27300262451172 C-116.98400115966797,-126.18499755859375 -124.20899963378906,-125.0979995727539 -142.9969940185547,-125.822998046875 C-161.78500366210938,-126.5479965209961 -171.9429931640625,-126.80500030517578 -177.14599609375,-130.79299926757812 C-179.74899291992188,-132.78799438476562 -179.625,-137.90699768066406 -178.4669952392578,-139.31199645996094z"></path></g><g opacity="1" transform="matrix(1,0,0,1,0,0)"><path fill="rgb(254,220,197)" fill-opacity="1" d=" M-60.862998962402344,-92.39299774169922 C-9.029999732971191,-98.26599884033203 39.29999923706055,-97.9280014038086 81.31700134277344,-90.58999633789062 C81.31700134277344,-90.58999633789062 70.94400024414062,-128.45899963378906 15.059000015258789,-127.46399688720703 C-49.016998291015625,-126.322998046875 -60.862998962402344,-92.39299774169922 -60.862998962402344,-92.39299774169922z"></path><path stroke-linecap="round" stroke-linejoin="round" fill-opacity="0" stroke="rgb(173,98,61)" stroke-opacity="1" stroke-width="8.834" d=" M-60.862998962402344,-92.39299774169922 C-9.029999732971191,-98.26599884033203 39.29999923706055,-97.9280014038086 81.31700134277344,-90.58999633789062 C81.31700134277344,-90.58999633789062 70.94400024414062,-128.45899963378906 15.059000015258789,-127.46399688720703 C-49.016998291015625,-126.322998046875 -60.862998962402344,-92.39299774169922 -60.862998962402344,-92.39299774169922z"></path></g><g opacity="1" transform="matrix(1,0,0,1,0,0)"><path fill="rgb(254,220,197)" fill-opacity="1" d=" M-203.7469940185547,-76.4000015258789 C-170.718994140625,-85.30400085449219 -130.09300231933594,-89.23799896240234 -95.5199966430664,-82.86000061035156 C-95.5199966430664,-82.86000061035156 -94.90799713134766,-108.31999969482422 -131.48599243164062,-109.92900085449219 C-188.60499572753906,-112.44100189208984 -203.7469940185547,-76.4000015258789 -203.7469940185547,-76.4000015258789z"></path><path stroke-linecap="round" stroke-linejoin="round" fill-opacity="0" stroke="rgb(173,98,61)" stroke-opacity="1" stroke-width="8.834" d=" M-203.7469940185547,-76.4000015258789 C-170.718994140625,-85.30400085449219 -130.09300231933594,-89.23799896240234 -95.5199966430664,-82.86000061035156 C-95.5199966430664,-82.86000061035156 -94.90799713134766,-108.31999969482422 -131.48599243164062,-109.92900085449219 C-188.60499572753906,-112.44100189208984 -203.7469940185547,-76.4000015258789 -203.7469940185547,-76.4000015258789z"></path></g></g></g><g style="display: block;" transform="matrix(0.9599999785423279,0,0,0.9599999785423279,255.71200561523438,257.1820068359375)" opacity="1"><g opacity="1" transform="matrix(1,0,0,1,0,0)"><g opacity="1" transform="matrix(1,0,0,1,0,0)"><path fill="rgb(242,192,158)" fill-opacity="1" d=" M139.61199951171875,186.0590057373047 C222.28599548339844,205.6840057373047 209.7570037841797,101.5999984741211 209.7570037841797,101.5999984741211 C209.7570037841797,101.5999984741211 164.7220001220703,93.697998046875 155.2169952392578,93.26599884033203"></path><path stroke-linecap="round" stroke-linejoin="round" fill-opacity="0" stroke="rgb(181,97,72)" stroke-opacity="1" stroke-width="10.6" d=" M139.61199951171875,186.0590057373047 C222.28599548339844,205.6840057373047 209.7570037841797,101.5999984741211 209.7570037841797,101.5999984741211 C209.7570037841797,101.5999984741211 164.7220001220703,93.697998046875 155.2169952392578,93.26599884033203"></path></g><g opacity="1" transform="matrix(1,0,0,1,0,0)"><path fill="rgb(228,156,107)" fill-opacity="1" d=" M139.61199951171875,186.0590057373047 C104.21700286865234,177.65699768066406 102.42500305175781,150.58200073242188 102.42500305175781,150.58200073242188 C102.42500305175781,150.58200073242188 103.56099700927734,122.24600219726562 103.56099700927734,122.24600219726562 C103.56099700927734,122.24600219726562 134.906005859375,116.37799835205078 154.5019989013672,93.24800109863281 C154.71099853515625,93.24800109863281 154.9499969482422,93.25399780273438 155.2169952392578,93.26599884033203 C155.2169952392578,93.26599884033203 170.2429962158203,91.64199829101562 170.2429962158203,91.64199829101562"></path><path stroke-linecap="round" stroke-linejoin="round" fill-opacity="0" stroke="rgb(181,97,72)" stroke-opacity="1" stroke-width="10.6" d=" M139.61199951171875,186.0590057373047 C104.21700286865234,177.65699768066406 102.42500305175781,150.58200073242188 102.42500305175781,150.58200073242188 C102.42500305175781,150.58200073242188 103.56099700927734,122.24600219726562 103.56099700927734,122.24600219726562 C103.56099700927734,122.24600219726562 134.906005859375,116.37799835205078 154.5019989013672,93.24800109863281 C154.71099853515625,93.24800109863281 154.9499969482422,93.25399780273438 155.2169952392578,93.26599884033203 C155.2169952392578,93.26599884033203 170.2429962158203,91.64199829101562 170.2429962158203,91.64199829101562"></path></g><g opacity="1" transform="matrix(1,0,0,1,0,0)"><path fill="rgb(228,156,107)" fill-opacity="1" d=" M121.42400360107422,124.26899719238281 C121.42400360107422,124.26899719238281 81.25800323486328,79.43399810791016 57.96099853515625,93.38999938964844 C50.025001525878906,98.14399719238281 39.9630012512207,109.22000122070312 52.59600067138672,115.177001953125 C107.5999984741211,141.11300659179688 105.99400329589844,188.33599853515625 138.11900329589844,183.83900451660156"></path><path stroke-linecap="round" stroke-linejoin="round" fill-opacity="0" stroke="rgb(181,97,72)" stroke-opacity="1" stroke-width="10.6" d=" M121.42400360107422,124.26899719238281 C121.42400360107422,124.26899719238281 81.25800323486328,79.43399810791016 57.96099853515625,93.38999938964844 C50.025001525878906,98.14399719238281 39.9630012512207,109.22000122070312 52.59600067138672,115.177001953125 C107.5999984741211,141.11300659179688 105.99400329589844,188.33599853515625 138.11900329589844,183.83900451660156"></path></g><g opacity="1" transform="matrix(1,0,0,1,0,0)"><path fill="rgb(242,192,158)" fill-opacity="1" d=" M167.67300415039062,101.27899932861328 C167.67300415039062,101.27899932861328 158.03599548339844,115.09300231933594 158.03599548339844,115.09300231933594 C141.96800231933594,136.05799865722656 133.1219940185547,162.927001953125 142.93699645996094,181.59100341796875 C142.93699645996094,181.59100341796875 168.3159942626953,175.16600036621094 168.3159942626953,175.16600036621094 C168.3159942626953,175.16600036621094 167.67300415039062,101.27899932861328 167.67300415039062,101.27899932861328z"></path></g><g opacity="1" transform="matrix(1,0,0,1,0,0)"><path fill="rgb(242,192,158)" fill-opacity="1" d=" M154.5019989013672,121.83899688720703 C134.26300048828125,139.50799560546875 141.00999450683594,171.6320037841797 141.00999450683594,171.6320037841797"></path><path stroke-linecap="round" stroke-linejoin="round" fill-opacity="0" stroke="rgb(181,97,72)" stroke-opacity="1" stroke-width="10.6" d=" M154.5019989013672,121.83899688720703 C134.26300048828125,139.50799560546875 141.00999450683594,171.6320037841797 141.00999450683594,171.6320037841797"></path></g></g></g><g style="display: block;" transform="matrix(0.9599999785423279,0,0,0.9599999785423279,255.71275329589844,257.1822814941406)" opacity="1"><g opacity="1" transform="matrix(1,0,0,1,0,0)"><g opacity="1" transform="matrix(1,0,0,1,0,0)"><path fill="rgb(188,179,175)" fill-opacity="1" d=" M96.71600341796875,47.470001220703125 C96.71600341796875,47.470001220703125 57.029998779296875,-7.915999889373779 29.459999084472656,17.39699935913086 C4.994999885559082,39.86000061035156 37.87900161743164,72.45500183105469 42.731998443603516,78.88999938964844 C50.1870002746582,88.7760009765625 60.50899887084961,104.06400299072266 86.06999969482422,82.88400268554688 C111.63099670410156,61.70399856567383 96.71600341796875,47.470001220703125 96.71600341796875,47.470001220703125z M50.99599838256836,46.362998962402344 C41.547000885009766,51.82500076293945 34.516998291015625,41.263999938964844 34.516998291015625,41.263999938964844 C34.516998291015625,41.263999938964844 29.707000732421875,33.097999572753906 36.56399917602539,27.22599983215332 C41.972999572753906,22.5939998626709 48.79199981689453,20.736000061035156 54.159000396728516,26.37299919128418 C59.5260009765625,32.0099983215332 60.44499969482422,40.9010009765625 50.99599838256836,46.362998962402344z"></path><path stroke-linecap="butt" stroke-linejoin="miter" fill-opacity="0" stroke-miterlimit="10" stroke="rgb(91,97,119)" stroke-opacity="1" stroke-width="8.834" d=" M96.71600341796875,47.470001220703125 C96.71600341796875,47.470001220703125 57.029998779296875,-7.915999889373779 29.459999084472656,17.39699935913086 C4.994999885559082,39.86000061035156 37.87900161743164,72.45500183105469 42.731998443603516,78.88999938964844 C50.1870002746582,88.7760009765625 60.50899887084961,104.06400299072266 86.06999969482422,82.88400268554688 C111.63099670410156,61.70399856567383 96.71600341796875,47.470001220703125 96.71600341796875,47.470001220703125z M50.99599838256836,46.362998962402344 C41.547000885009766,51.82500076293945 34.516998291015625,41.263999938964844 34.516998291015625,41.263999938964844 C34.516998291015625,41.263999938964844 29.707000732421875,33.097999572753906 36.56399917602539,27.22599983215332 C41.972999572753906,22.5939998626709 48.79199981689453,20.736000061035156 54.159000396728516,26.37299919128418 C59.5260009765625,32.0099983215332 60.44499969482422,40.9010009765625 50.99599838256836,46.362998962402344z"></path></g><g opacity="1" transform="matrix(1,0,0,1,0,0)"><path fill="rgb(143,148,153)" fill-opacity="1" d=" M56.6510009765625,75.70700073242188 C53.72700119018555,74.00900268554688 53.084999084472656,69.77400207519531 55.402000427246094,67.73200225830078 C63.09299850463867,60.95399856567383 78.42500305175781,47.56100082397461 81.08699798583984,46.14799880981445 C84.66799926757812,44.24700164794922 94.01399993896484,63.584999084472656 80.36499786376953,75.05500030517578 C71.81300354003906,82.24199676513672 62.45000076293945,79.0739974975586 56.6510009765625,75.70700073242188z"></path></g><g opacity="1" transform="matrix(1,0,0,1,0,0)"><path fill="rgb(188,179,175)" fill-opacity="1" d=" M42.27299880981445,26.709999084472656 C42.27299880981445,26.709999084472656 37.03799819946289,32.417999267578125 37.03799819946289,32.417999267578125 C35.37099838256836,34.236000061035156 32.54600143432617,34.358001708984375 30.72800064086914,32.691001892089844 C30.72800064086914,32.691001892089844 13.472999572753906,16.868000030517578 13.472999572753906,16.868000030517578 C11.654999732971191,15.201000213623047 11.532999992370605,12.37600040435791 13.199999809265137,10.557999610900879 C13.199999809265137,10.557999610900879 18.434999465942383,4.849999904632568 18.434999465942383,4.849999904632568 C20.101999282836914,3.0320000648498535 22.927000045776367,2.9100000858306885 24.7450008392334,4.577000141143799 C24.7450008392334,4.577000141143799 42,20.399999618530273 42,20.399999618530273 C43.81800079345703,22.066999435424805 43.939998626708984,24.892000198364258 42.27299880981445,26.709999084472656z"></path><path stroke-linecap="round" stroke-linejoin="round" fill-opacity="0" stroke="rgb(91,97,119)" stroke-opacity="1" stroke-width="8.834" d=" M42.27299880981445,26.709999084472656 C42.27299880981445,26.709999084472656 37.03799819946289,32.417999267578125 37.03799819946289,32.417999267578125 C35.37099838256836,34.236000061035156 32.54600143432617,34.358001708984375 30.72800064086914,32.691001892089844 C30.72800064086914,32.691001892089844 13.472999572753906,16.868000030517578 13.472999572753906,16.868000030517578 C11.654999732971191,15.201000213623047 11.532999992370605,12.37600040435791 13.199999809265137,10.557999610900879 C13.199999809265137,10.557999610900879 18.434999465942383,4.849999904632568 18.434999465942383,4.849999904632568 C20.101999282836914,3.0320000648498535 22.927000045776367,2.9100000858306885 24.7450008392334,4.577000141143799 C24.7450008392334,4.577000141143799 42,20.399999618530273 42,20.399999618530273 C43.81800079345703,22.066999435424805 43.939998626708984,24.892000198364258 42.27299880981445,26.709999084472656z"></path></g></g></g><g style="display: block;" transform="matrix(0.9599999785423279,0,0,0.9599999785423279,255.71200561523438,257.1820068359375)" opacity="1"><g opacity="1" transform="matrix(1,0,0,1,0,0)"><g opacity="1" transform="matrix(1,0,0,1,0,0)"><path fill="rgb(228,156,107)" fill-opacity="1" d=" M149.36199951171875,105.13400268554688 C149.36199951171875,105.13400268554688 141.26499938964844,73.63200378417969 133.51400756835938,69.9000015258789 C125.76300048828125,66.16799926757812 107.50800323486328,72.32499694824219 96.31199645996094,70.02799987792969 C85.11599731445312,67.73100280761719 80.25599670410156,57.74300003051758 89.5199966430664,50.784000396728516 C117.23699951171875,29.96299934387207 157.91600036621094,41.76499938964844 163.6580047607422,50.665000915527344 C169.39999389648438,59.564998626708984 172.84500122070312,90.85700225830078 172.84500122070312,90.85700225830078"></path><path stroke-linecap="round" stroke-linejoin="round" fill-opacity="0" stroke="rgb(181,97,72)" stroke-opacity="1" stroke-width="10.6" d=" M149.36199951171875,105.13400268554688 C149.36199951171875,105.13400268554688 141.26499938964844,73.63200378417969 133.51400756835938,69.9000015258789 C125.76300048828125,66.16799926757812 107.50800323486328,72.32499694824219 96.31199645996094,70.02799987792969 C85.11599731445312,67.73100280761719 80.25599670410156,57.74300003051758 89.5199966430664,50.784000396728516 C117.23699951171875,29.96299934387207 157.91600036621094,41.76499938964844 163.6580047607422,50.665000915527344 C169.39999389648438,59.564998626708984 172.84500122070312,90.85700225830078 172.84500122070312,90.85700225830078"></path></g><g opacity="1" transform="matrix(1,0,0,1,0,0)"><path fill="rgb(228,156,107)" fill-opacity="1" d=" M162.21200561523438,89.0719985961914 C162.21200561523438,89.0719985961914 151.1219940185547,51.50699996948242 150.38099670410156,48.542999267578125 C102.13899993896484,19.038999557495117 117.05500030517578,-1.3730000257492065 128.81900024414062,-0.8759999871253967 C151.61099243164062,0.0860000029206276 176.79299926757812,33.6150016784668 177.9409942626953,39.64400100708008 C179.08900451660156,45.67300033569336 190.16099548339844,84.5739974975586 190.16099548339844,84.5739974975586"></path><path stroke-linecap="round" stroke-linejoin="round" fill-opacity="0" stroke="rgb(181,97,72)" stroke-opacity="1" stroke-width="10.6" d=" M162.21200561523438,89.0719985961914 C162.21200561523438,89.0719985961914 151.1219940185547,51.50699996948242 150.38099670410156,48.542999267578125 C102.13899993896484,19.038999557495117 117.05500030517578,-1.3730000257492065 128.81900024414062,-0.8759999871253967 C151.61099243164062,0.0860000029206276 176.79299926757812,33.6150016784668 177.9409942626953,39.64400100708008 C179.08900451660156,45.67300033569336 190.16099548339844,84.5739974975586 190.16099548339844,84.5739974975586"></path></g><g opacity="1" transform="matrix(1,0,0,1,0,0)"><path fill="rgb(242,192,158)" fill-opacity="1" d=" M182.1300048828125,89.71399688720703 C182.1300048828125,89.71399688720703 183.94500732421875,64.11000061035156 179.3470001220703,49.78900146484375 C174.74899291992188,35.46799850463867 158.43899536132812,26.73699951171875 166.83900451660156,16.23699951171875 C178.35699462890625,1.840000033378601 202.97500610351562,28.13599967956543 206.54299926757812,42.91299819946289 C214.89700317382812,77.50700378417969 208.79299926757812,115.73500061035156 208.79299926757812,115.73500061035156"></path><path stroke-linecap="round" stroke-linejoin="round" fill-opacity="0" stroke="rgb(181,97,72)" stroke-opacity="1" stroke-width="10.6" d=" M182.1300048828125,89.71399688720703 C182.1300048828125,89.71399688720703 183.94500732421875,64.11000061035156 179.3470001220703,49.78900146484375 C174.74899291992188,35.46799850463867 158.43899536132812,26.73699951171875 166.83900451660156,16.23699951171875 C178.35699462890625,1.840000033378601 202.97500610351562,28.13599967956543 206.54299926757812,42.91299819946289 C214.89700317382812,77.50700378417969 208.79299926757812,115.73500061035156 208.79299926757812,115.73500061035156"></path></g><g opacity="1" transform="matrix(1,0,0,1,0,0)"><path fill="rgb(242,192,158)" fill-opacity="1" d=" M192.9459991455078,105.5999984741211 C192.9459991455078,105.5999984741211 194.34300231933594,82.98200225830078 180.55299377441406,55.595001220703125 C175.45700073242188,45.4739990234375 159.61399841308594,26.2450008392334 148.5570068359375,30.641000747680664 C137.5,35.0369987487793 136.19200134277344,49.880001068115234 157.3939971923828,83.93199920654297 C161.03599548339844,89.78099822998047 162.39199829101562,113.16300201416016 162.39199829101562,113.16300201416016"></path><path stroke-linecap="round" stroke-linejoin="round" fill-opacity="0" stroke="rgb(181,97,72)" stroke-opacity="1" stroke-width="10.6" d=" M192.9459991455078,105.5999984741211 C192.9459991455078,105.5999984741211 194.34300231933594,82.98200225830078 180.55299377441406,55.595001220703125 C175.45700073242188,45.4739990234375 159.61399841308594,26.2450008392334 148.5570068359375,30.641000747680664 C137.5,35.0369987487793 136.19200134277344,49.880001068115234 157.3939971923828,83.93199920654297 C161.03599548339844,89.78099822998047 162.39199829101562,113.16300201416016 162.39199829101562,113.16300201416016"></path></g></g></g></g></svg>