<svg xmlns="http://www.w3.org/2000/svg" xmlns:xlink="http://www.w3.org/1999/xlink" viewBox="0 0 512 512" width="512" height="512" style="width: 100%; height: 100%; transform: translate3d(0,0,0); content-visibility: visible;" preserveAspectRatio="xMidYMid meet"><defs><clipPath id="__lottie_element_2"><rect width="512" height="512" x="0" y="0"></rect></clipPath><radialGradient id="__lottie_element_10" spreadMethod="pad" gradientUnits="userSpaceOnUse" cx="-172.48899841308594" cy="-487.27801513671875" r="439.8133297439776" fx="-172.48899841308594" fy="-487.27801513671875"><stop offset="0%" stop-color="rgb(249,223,201)"></stop><stop offset="51%" stop-color="rgb(247,185,152)"></stop><stop offset="100%" stop-color="rgb(245,146,103)"></stop></radialGradient><radialGradient id="__lottie_element_11" spreadMethod="pad" gradientUnits="userSpaceOnUse" cx="129.343994140625" cy="-127.8759994506836" r="366.5399131492989" fx="119.82467134458477" fy="-111.43527200175654"><stop offset="0%" stop-color="rgb(249,223,201)"></stop><stop offset="51%" stop-color="rgb(249,202,171)"></stop><stop offset="100%" stop-color="rgb(250,181,140)"></stop></radialGradient></defs><g clip-path="url(#__lottie_element_2)"><g style="display: block;" transform="matrix(0.9000376462936401,0,0,0.8799999952316284,22.944725036621094,28.535846710205078)" opacity="1"><g opacity="1" transform="matrix(1,0,0,1,266.3479919433594,277.2460021972656)"><path fill="url(#__lottie_element_10)" fill-opacity="1" d=" M-211.7100067138672,85.0469970703125 C-244.4029998779297,-41.36399841308594 -161.218994140625,-129.30799865722656 -118.71900177001953,-170.718994140625 C-76.21900177001953,-212.1300048828125 -19.551000595092773,-224.11700439453125 18.59000015258789,-227.38600158691406 C56.73099899291992,-230.65499877929688 88.2699966430664,-229.93899536132812 139.48899841308594,-164.55299377441406 C190.70700073242188,-99.16799926757812 241.07000732421875,-47.85599899291992 223.63400268554688,94.9010009765625 C206.197998046875,237.65899658203125 55.577999114990234,239.74600219726562 11.98799991607666,239.74600219726562 C-31.601999282836914,239.74600219726562 -172.35800170898438,237.20700073242188 -211.7100067138672,85.0469970703125z"></path><path stroke-linecap="butt" stroke-linejoin="miter" fill-opacity="0" stroke-miterlimit="10" stroke="rgb(183,99,57)" stroke-opacity="1" stroke-width="15" d=" M-211.7100067138672,85.0469970703125 C-244.4029998779297,-41.36399841308594 -161.218994140625,-129.30799865722656 -118.71900177001953,-170.718994140625 C-76.21900177001953,-212.1300048828125 -19.551000595092773,-224.11700439453125 18.59000015258789,-227.38600158691406 C56.73099899291992,-230.65499877929688 88.2699966430664,-229.93899536132812 139.48899841308594,-164.55299377441406 C190.70700073242188,-99.16799926757812 241.07000732421875,-47.85599899291992 223.63400268554688,94.9010009765625 C206.197998046875,237.65899658203125 55.577999114990234,239.74600219726562 11.98799991607666,239.74600219726562 C-31.601999282836914,239.74600219726562 -172.35800170898438,237.20700073242188 -211.7100067138672,85.0469970703125z"></path></g><g opacity="1" transform="matrix(1,0,0,1,273.9150085449219,253.89199829101562)"><path fill="url(#__lottie_element_11)" fill-opacity="1" d=" M-168.12100219726562,87.35199737548828 C-195.95599365234375,-20.275999069213867 -141.21400451660156,-101.9260025024414 -105.02799987792969,-137.18299865722656 C-68.84300231933594,-172.4409942626953 -20.59600067138672,-178.1009979248047 11.878000259399414,-180.88499450683594 C44.35200119018555,-183.66799926757812 74.04299926757812,-179.86399841308594 117.6510009765625,-124.19400024414062 C161.25900268554688,-68.52400207519531 193.73300170898438,-26.770999908447266 178.88800048828125,94.7750015258789 C164.04299926757812,216.3209991455078 46.20800018310547,220.03199768066406 9.095000267028809,220.03199768066406 C-28.01799964904785,220.03199768066406 -134.61599731445312,216.9029998779297 -168.12100219726562,87.35199737548828z"></path></g><g opacity="0.72" transform="matrix(1,0,0,1,7.954986572265625,11.364013671875)"><g opacity="1" transform="matrix(1,0,0,1,421.5159912109375,334.74700927734375)"><path fill="rgb(234,51,95)" fill-opacity="0.46" d=" M-30.854000091552734,-23.107999801635742 C-30.854000091552734,-23.107999801635742 -21.152999877929688,-44.1150016784668 4.192999839782715,-39.797000885009766 C29.540000915527344,-35.47800064086914 37.13399887084961,-21.19700050354004 35.933998107910156,5.414000034332275 C34.73400115966797,32.0260009765625 8.670000076293945,44.1150016784668 -14.232000350952148,36.106998443603516 C-37.13399887084961,28.099000930786133 -27.398000717163086,15.902000427246094 -31.075000762939453,12.446999549865723 C-34.75299835205078,8.991999626159668 -36.62300109863281,-0.4440000057220459 -36.81100082397461,-8.175000190734863 C-36.926998138427734,-12.932000160217285 -30.854000091552734,-23.107999801635742 -30.854000091552734,-23.107999801635742z"></path></g><g opacity="1" transform="matrix(1,0,0,1,164.2429962158203,398.6820068359375)"><path fill="rgb(234,51,95)" fill-opacity="0.46" d=" M-33.801998138427734,27.04599952697754 C-39.108001708984375,21.091999053955078 -40.308998107910156,20.474000930786133 -44.2859992980957,-3.880000114440918 C-48.26300048828125,-28.233999252319336 -19.341999053955078,-45.630001068115234 -4.1579999923706055,-44.856998443603516 C11.026000022888184,-44.08399963378906 35.97200012207031,-25.527999877929688 40.672000885009766,-12.770999908447266 C45.37200164794922,-0.014000000432133675 48.263999938964844,11.970000267028809 45.37200164794922,15.449000358581543 C42.47999954223633,18.92799949645996 41.39500045776367,23.952999114990234 37.05699920654297,24.726999282836914 C32.71799850463867,25.5 31.27199935913086,24.34000015258789 28.742000579833984,30.138999938964844 C26.211000442504883,35.9370002746582 20.788000106811523,42.50899887084961 12.112000465393066,44.827999114990234 C9.111000061035156,45.63100051879883 -2.734999895095825,43.95500183105469 -11.38700008392334,42.50899887084961 C-22.95599937438965,40.57600021362305 -29.20199966430664,32.20800018310547 -33.801998138427734,27.04599952697754z"></path></g></g></g><g style="display: block;" transform="matrix(0.9360390901565552,0,0,0.9151999354362488,82.00716400146484,98.57730865478516)" opacity="1"><g opacity="1" transform="matrix(1,0,0,1,70.5530014038086,80.177001953125)"><path stroke-linecap="round" stroke-linejoin="round" fill-opacity="0" stroke="rgb(109,57,48)" stroke-opacity="1" stroke-width="9.976" d=" M-42.22800064086914,20.40399932861328 C-31.7549991607666,5.556000232696533 -13.168000221252441,-8.366999626159668 0.847000002861023,-17.285999298095703 C17.77899932861328,-28.06100082397461 38.09400177001953,-27.08799934387207 40.92599868774414,-26.62700080871582 C45.612998962402344,-25.863000869750977 19.047000885009766,-23.643999099731445 1.6009999513626099,-10.465999603271484 C-15.845000267028809,2.7119998931884766 -33.84000015258789,20.16699981689453 -37.40999984741211,25.312000274658203 C-42.19499969482422,32.20800018310547 -43.33700180053711,21.97599983215332 -42.22800064086914,20.40399932861328z"></path></g><g opacity="1" transform="matrix(1,0,0,1,269.0840148925781,29.617000579833984)"><path fill="rgb(109,57,48)" fill-opacity="1" d=" M-59.159000396728516,-4.559000015258789 C-59.159000396728516,-4.559000015258789 -20.273000717163086,-22.476999282836914 8.741999626159668,-9.531999588012695 C43.23699951171875,5.857999801635742 48.77299880981445,15.29699993133545 49.2239990234375,17.628000259399414 C49.948001861572266,21.371999740600586 48.02399826049805,21.79599952697754 41.76100158691406,14.668000221252441 C38.92499923706055,11.4399995803833 26.472000122070312,-1.812000036239624 -8.300999641418457,-6.376999855041504 C-35.49800109863281,-9.946999549865723 -55.04399871826172,3.2769999504089355 -58.11199951171875,2.1470000743865967 C-60.87200164794922,1.1299999952316284 -59.159000396728516,-4.559000015258789 -59.159000396728516,-4.559000015258789z"></path><path stroke-linecap="round" stroke-linejoin="round" fill-opacity="0" stroke="rgb(109,57,48)" stroke-opacity="1" stroke-width="8" d=" M-59.159000396728516,-4.559000015258789 C-59.159000396728516,-4.559000015258789 -20.273000717163086,-22.476999282836914 8.741999626159668,-9.531999588012695 C43.23699951171875,5.857999801635742 48.77299880981445,15.29699993133545 49.2239990234375,17.628000259399414 C49.948001861572266,21.371999740600586 48.02399826049805,21.79599952697754 41.76100158691406,14.668000221252441 C38.92499923706055,11.4399995803833 26.472000122070312,-1.812000036239624 -8.300999641418457,-6.376999855041504 C-35.49800109863281,-9.946999549865723 -55.04399871826172,3.2769999504089355 -58.11199951171875,2.1470000743865967 C-60.87200164794922,1.1299999952316284 -59.159000396728516,-4.559000015258789 -59.159000396728516,-4.559000015258789z"></path></g></g><g style="display: block;" transform="matrix(0.9360390901565552,0,0,0.9151999354362488,204.4747772216797,275.0260314941406)" opacity="1"><g opacity="1" transform="matrix(1,0,0,1,0,7)"><g opacity="1" transform="matrix(1,0,0,1,95.6240005493164,74.18000030517578)"><path fill="rgb(163,12,58)" fill-opacity="1" d=" M-52.53799819946289,2.5989999771118164 C-52.53799819946289,2.5989999771118164 -15.734000205993652,1.809999942779541 16.034000396728516,-14.36400032043457 C47.801998138427734,-30.53700065612793 55.15700149536133,-41.68000030517578 59.14099884033203,-39 C63.125,-36.31999969482422 61.15999984741211,12.381999969482422 54.367000579833984,21.22100067138672 C47.57500076293945,30.059999465942383 11.642999649047852,41.68000030517578 -7.2870001792907715,40.23699951171875 C-26.216999053955078,38.79399871826172 -61.63999938964844,19.9060001373291 -62.382999420166016,10.937999725341797 C-63.125,1.9700000286102295 -52.53799819946289,2.5989999771118164 -52.53799819946289,2.5989999771118164z"></path><path stroke-linecap="butt" stroke-linejoin="miter" fill-opacity="0" stroke-miterlimit="10" stroke="rgb(91,29,50)" stroke-opacity="1" stroke-width="12.424" d=" M-52.53799819946289,2.5989999771118164 C-52.53799819946289,2.5989999771118164 -15.734000205993652,1.809999942779541 16.034000396728516,-14.36400032043457 C47.801998138427734,-30.53700065612793 55.15700149536133,-41.68000030517578 59.14099884033203,-39 C63.125,-36.31999969482422 61.15999984741211,12.381999969482422 54.367000579833984,21.22100067138672 C47.57500076293945,30.059999465942383 11.642999649047852,41.68000030517578 -7.2870001792907715,40.23699951171875 C-26.216999053955078,38.79399871826172 -61.63999938964844,19.9060001373291 -62.382999420166016,10.937999725341797 C-63.125,1.9700000286102295 -52.53799819946289,2.5989999771118164 -52.53799819946289,2.5989999771118164z"></path></g><g opacity="0" transform="matrix(1,0,0,1,0,0)"><path fill="rgb(22,4,9)" fill-opacity="0.67" d=" M127.36699676513672,83.82499694824219 C119.38800048828125,87.73100280761719 114.86799621582031,88.88999938964844 114.36100006103516,94.83999633789062 C113.89099884033203,100.36100006103516 112.14399719238281,102.52300262451172 99.83000183105469,97.02799987792969 C92.06500244140625,93.56300354003906 80.69999694824219,92.11599731445312 75.80500030517578,105.61299896240234 C70.46600341796875,120.33300018310547 98.81500244140625,127.24600219726562 98.81500244140625,127.24600219726562 C98.81500244140625,127.24600219726562 112.83200073242188,130.97000122070312 134.90899658203125,122.45099639892578 C148.88499450683594,117.05799865722656 158.72500610351562,128.2050018310547 150.4709930419922,98.94400024414062 C146.21499633789062,83.85800170898438 135.3459930419922,79.91899871826172 127.36699676513672,83.82499694824219z"></path></g><g opacity="1" transform="matrix(1,0,0,1,124.49099731445312,151.55099487304688)"><path stroke-linecap="round" stroke-linejoin="round" fill-opacity="0" stroke="rgb(233,120,76)" stroke-opacity="0.59" stroke-width="16.277" d=" M-32.6870002746582,1.684999942779541 C-32.6870002746582,1.684999942779541 -16.940000534057617,12.182999610900879 4.806000232696533,9.184000015258789 C26.55299949645996,6.184000015258789 32.6870002746582,-12.182000160217285 32.6870002746582,-12.182000160217285"></path></g><g opacity="1" transform="matrix(1,0,0,1,109.49099731445312,98.40599822998047)"><path fill="rgb(244,6,92)" fill-opacity="1" d=" M-36.361000061035156,5.864999771118164 C-36.361000061035156,5.864999771118164 -23.05900001525879,-9.213000297546387 -13.303000450134277,-8.326000213623047 C-3.5480000972747803,-7.439000129699707 0.29499998688697815,-7.14300012588501 0.29499998688697815,-7.14300012588501 C0.29499998688697815,-7.14300012588501 7.0960001945495605,-18.37700080871582 15.668999671936035,-17.785999298095703 C24.242000579833984,-17.19499969482422 36.361000061035156,-10.100000381469727 36.361000061035156,-10.100000381469727 C36.361000061035156,-10.100000381469727 35.77000045776367,2.0220000743865967 21.875999450683594,6.751999855041504 C7.980999946594238,11.482000350952148 -13.467000007629395,18.37700080871582 -21.58099937438965,13.847000122070312 C-29.69499969482422,9.317000389099121 -36.361000061035156,5.864999771118164 -36.361000061035156,5.864999771118164z"></path><path stroke-linecap="round" stroke-linejoin="round" fill-opacity="0" stroke="rgb(206,33,86)" stroke-opacity="1" stroke-width="7.596" d=" M-36.361000061035156,5.864999771118164 C-36.361000061035156,5.864999771118164 -23.05900001525879,-9.213000297546387 -13.303000450134277,-8.326000213623047 C-3.5480000972747803,-7.439000129699707 0.29499998688697815,-7.14300012588501 0.29499998688697815,-7.14300012588501 C0.29499998688697815,-7.14300012588501 7.0960001945495605,-18.37700080871582 15.668999671936035,-17.785999298095703 C24.242000579833984,-17.19499969482422 36.361000061035156,-10.100000381469727 36.361000061035156,-10.100000381469727 C36.361000061035156,-10.100000381469727 35.77000045776367,2.0220000743865967 21.875999450683594,6.751999855041504 C7.980999946594238,11.482000350952148 -13.467000007629395,18.37700080871582 -21.58099937438965,13.847000122070312 C-29.69499969482422,9.317000389099121 -36.361000061035156,5.864999771118164 -36.361000061035156,5.864999771118164z"></path></g><g opacity="1" transform="matrix(1,0,0,1,97.22200012207031,67.76100158691406)"><path fill="rgb(255,253,254)" fill-opacity="1" d=" M-45.37799835205078,12.564000129699707 C-45.37799835205078,12.564000129699707 -36.50899887084961,20.54599952697754 -25.867000579833984,21.136999130249023 C-15.223999977111816,21.72800064086914 25.867000579833984,5.172999858856201 35.03200149536133,-1.034999966621399 C44.19599914550781,-7.243000030517578 45.37799835205078,-21.72800064086914 45.37799835205078,-21.72800064086914 C45.37799835205078,-21.72800064086914 8.720999717712402,-4.877999782562256 -1.6260000467300415,-3.1040000915527344 C-11.972999572753906,-1.3300000429153442 -45.37799835205078,12.564000129699707 -45.37799835205078,12.564000129699707z"></path></g><g opacity="1" transform="matrix(1,0,0,1,123.9000015258789,142.97799682617188)"><path stroke-linecap="round" stroke-linejoin="round" fill-opacity="0" stroke="rgb(183,99,57)" stroke-opacity="1" stroke-width="14" d=" M-32.6870002746582,1.684000015258789 C-32.6870002746582,1.684000015258789 -16.940000534057617,12.182999610900879 4.806000232696533,9.184000015258789 C26.55299949645996,6.184000015258789 32.6870002746582,-12.182000160217285 32.6870002746582,-12.182000160217285"></path></g><g opacity="0" transform="matrix(1,0,0,1,0,0)"><path fill="rgb(255,255,255)" fill-opacity="1" d=" M145.88499450683594,95.02400207519531 C138.76400756835938,91.7760009765625 124.01300048828125,99.89600372314453 118.9260025024414,100.97899627685547 C113.83899688720703,102.06199645996094 97.0530014038086,107.20500183105469 91.96600341796875,108.28800201416016 C86.87899780273438,109.37100219726562 87.99199676513672,117.20800018310547 87.99199676513672,117.20800018310547 C87.99199676513672,117.20800018310547 107.68099975585938,119.32099914550781 121.71700286865234,114.50199890136719 C137.48599243164062,109.08799743652344 149.30299377441406,99.6729965209961 149.30299377441406,99.6729965209961 C149.30299377441406,99.6729965209961 149.63800048828125,96.73600006103516 145.88499450683594,95.02400207519531z"></path></g><g opacity="1" transform="matrix(1,0,0,1,95.6240005493164,74.18000030517578)"><path stroke-linecap="butt" stroke-linejoin="miter" fill-opacity="0" stroke-miterlimit="10" stroke="rgb(91,29,50)" stroke-opacity="1" stroke-width="12.424" d=" M-52.53799819946289,2.5989999771118164 C-52.53799819946289,2.5989999771118164 -15.734000205993652,1.809999942779541 16.034000396728516,-14.36400032043457 C47.801998138427734,-30.53700065612793 55.15700149536133,-41.68000030517578 59.14099884033203,-39 C63.125,-36.31999969482422 61.15999984741211,12.381999969482422 54.367000579833984,21.22100067138672 C47.57500076293945,30.059999465942383 11.642999649047852,41.68000030517578 -7.2870001792907715,40.23699951171875 C-26.216999053955078,38.79399871826172 -61.63999938964844,19.9060001373291 -62.382999420166016,10.937999725341797 C-63.125,1.9700000286102295 -52.53799819946289,2.5989999771118164 -52.53799819946289,2.5989999771118164z"></path></g></g></g><g style="display: none;"><g><path></path></g><g><path></path></g><g><path></path><path stroke-linecap="round" stroke-linejoin="round" fill-opacity="0"></path></g><g><path></path></g><g><g><path></path></g><g><path></path></g></g><g><path></path><path stroke-linecap="round" stroke-linejoin="round" fill-opacity="0"></path></g><g><path></path></g><g><g><path></path></g><g><path></path></g></g></g><g style="display: block;" transform="matrix(0.8789968490600586,0,0,0.8594276309013367,43.69020080566406,147.57247924804688)" opacity="1"><g opacity="1" transform="matrix(1,0,0,1,132.92599487304688,139.27099609375)"><path fill="rgb(147,48,10)" fill-opacity="0.26" d=" M-4.327000141143799,-41.233001708984375 C-4.327000141143799,-41.233001708984375 -12.104000091552734,-71.19599914550781 -57.520999908447266,-55.619998931884766 C-88.99600219726562,-44.82400131225586 -101.9489974975586,15.998000144958496 -72.36100006103516,38.64400100708008 C-41.35900115966797,62.37200164794922 37.00899887084961,93.5469970703125 47.198001861572266,89.23500061035156 C63.599998474121094,82.29399871826172 101.94999694824219,-3.763000011444092 94.3239974975586,-42.632999420166016 C86.17400360107422,-84.1729965209961 53.983001708984375,-93.5469970703125 23.82900047302246,-84.677001953125 C-5.816999912261963,-75.95700073242188 -4.327000141143799,-41.233001708984375 -4.327000141143799,-41.233001708984375z"></path></g><g opacity="1" transform="matrix(1,0,0,1,129.77999877929688,122.75900268554688)"><path fill="rgb(245,4,85)" fill-opacity="1" d=" M1.9210000038146973,-40.729000091552734 C1.9210000038146973,-40.729000091552734 -12.717000007629395,-70.54000091552734 -53.54999923706055,-55.797000885009766 C-81.84700012207031,-45.57899856567383 -98.21099853515625,2.24399995803833 -66.84300231933594,33.32099914550781 C-40.630001068115234,59.29100036621094 40.57600021362305,91.18900299072266 49.72800064086914,87.08499908447266 C64.46099853515625,80.47699737548828 98.20999908447266,-3.1050000190734863 90.93800354003906,-41.106998443603516 C83.16699981689453,-81.71900177001953 54.02199935913086,-91.18900299072266 26.89699935913086,-82.83599853515625 C0.23000000417232513,-74.625 1.9210000038146973,-40.729000091552734 1.9210000038146973,-40.729000091552734z"></path><path stroke-linecap="round" stroke-linejoin="round" fill-opacity="0" stroke="rgb(160,18,73)" stroke-opacity="1" stroke-width="12.628" d=" M1.9210000038146973,-40.729000091552734 C1.9210000038146973,-40.729000091552734 -12.717000007629395,-70.54000091552734 -53.54999923706055,-55.797000885009766 C-81.84700012207031,-45.57899856567383 -98.21099853515625,2.24399995803833 -66.84300231933594,33.32099914550781 C-40.630001068115234,59.29100036621094 40.57600021362305,91.18900299072266 49.72800064086914,87.08499908447266 C64.46099853515625,80.47699737548828 98.20999908447266,-3.1050000190734863 90.93800354003906,-41.106998443603516 C83.16699981689453,-81.71900177001953 54.02199935913086,-91.18900299072266 26.89699935913086,-82.83599853515625 C0.23000000417232513,-74.625 1.9210000038146973,-40.729000091552734 1.9210000038146973,-40.729000091552734z"></path></g><g opacity="1" transform="matrix(1,0,0,1,136.02499389648438,106.93800354003906)"><path fill="rgb(249,88,134)" fill-opacity="0.8200000000000001" d=" M3.678999900817871,-18.326000213623047 C2.309000015258789,-13.704000473022461 -3.7880001068115234,-12.33899974822998 -7.1479997634887695,-15.880000114440918 C-14.835000038146973,-23.98200035095215 -27.525999069213867,-34.465999603271484 -44.83700180053711,-28.038000106811523 C-68.33799743652344,-19.312000274658203 -64.7239990234375,6.257999897003174 -44.2859992980957,28.777000427246094 C-27.20599937438965,47.595001220703125 31.97599983215332,74.7770004272461 38.650001525878906,72.44400024414062 C49.39400100708008,68.68900299072266 74.84500122070312,-0.004000000189989805 71.76899719238281,-26.040000915527344 C68.48200225830078,-53.86399841308594 47.46900177001953,-58.09000015258789 27.89299964904785,-53.75400161743164 C15.406000137329102,-50.987998962402344 7.61299991607666,-31.60099983215332 3.678999900817871,-18.326000213623047z"></path></g><g opacity="1" transform="matrix(1,0,0,1,177.8489990234375,84.7750015258789)"><path fill="rgb(255,255,255)" fill-opacity="1" d=" M-7.084000110626221,16.433000564575195 C-7.289000034332275,20.364999771118164 -15.574999809265137,48.922000885009766 -4.9029998779296875,51.69599914550781 C13.630000114440918,56.513999938964844 18.773000717163086,40.84700012207031 24.326000213623047,24.81399917602539 C28.077999114990234,13.977999687194824 24.90399932861328,-14.942999839782715 4.718999862670898,-13.036999702453613 C-6.323999881744385,-11.994000434875488 -6.281000137329102,1.0190000534057617 -7.084000110626221,16.433000564575195z"></path></g><g opacity="0.53" transform="matrix(1,0,0,1,172.99099731445312,142.1959991455078)"><path fill="rgb(255,222,232)" fill-opacity="1" d=" M-10.012999534606934,15.92300033569336 C-10.012999534606934,15.92300033569336 -16.420000076293945,30.871999740600586 -3.802999973297119,36.54499816894531 C8.814000129699707,42.21799850463867 14.145000457763672,20.409000396728516 12.220999717712402,12.366000175476074 C10.29699993133545,4.323999881744385 3.2070000171661377,4.545000076293945 -1.7719999551773071,4.901000022888184 C-6.750999927520752,5.256999969482422 -10.012999534606934,15.92300033569336 -10.012999534606934,15.92300033569336z"></path></g></g><g style="display: block;" transform="matrix(0.9360390901565552,0,0,0.9151999354362488,223.44174194335938,101.32748413085938)" opacity="1"><g opacity="1" transform="matrix(1,0,0,1,126.15699768066406,137.02499389648438)"><path fill="rgb(130,38,3)" fill-opacity="0.25" d=" M3.1540000438690186,-46.15599822998047 C3.1540000438690186,-46.15599822998047 0.16599999368190765,-75.3949966430664 -47.21200180053711,-67.677001953125 C-80.0469970703125,-62.327999114990234 -102.41400146484375,-7.322000026702881 -76.697998046875,18.36400032043457 C-49.75199890136719,45.27799987792969 22.885000228881836,86.33200073242188 33.641998291015625,83.83499908447266 C50.95899963378906,79.81600189208984 102.41400146484375,5.017000198364258 100.9729995727539,-32.54199981689453 C99.43299865722656,-72.68000030517578 69.05899810791016,-86.33200073242188 37.83300018310547,-82.58699798583984 C7.133999824523926,-78.90399932861328 3.1540000438690186,-46.15599822998047 3.1540000438690186,-46.15599822998047z"></path></g><g opacity="1" transform="matrix(1,0,0,1,127.83100128173828,118.50700378417969)"><path fill="rgb(246,5,85)" fill-opacity="1" d=" M6.302000045776367,-46.047000885009766 C6.302000045776367,-46.047000885009766 -4.567999839782715,-77.6050033569336 -47.1879997253418,-71.51200103759766 C-76.72599792480469,-67.28900146484375 -96.52100372314453,-27.128000259399414 -72.31900024414062,9.368000030517578 C-52.095001220703125,39.86600112915039 20.33799934387207,87.197998046875 30.052000045776367,85.05500030517578 C45.689998626708984,81.6050033569336 95.2959976196289,7.23799991607666 95.88800048828125,-31.128999710083008 C96.52100372314453,-72.13099670410156 70.12699890136719,-87.1969985961914 42.104000091552734,-84.54900360107422 C14.553999900817871,-81.94599914550781 6.302000045776367,-46.047000885009766 6.302000045776367,-46.047000885009766z"></path><path stroke-linecap="round" stroke-linejoin="round" fill-opacity="0" stroke="rgb(160,18,73)" stroke-opacity="1" stroke-width="12.524" d=" M6.302000045776367,-46.047000885009766 C6.302000045776367,-46.047000885009766 -4.567999839782715,-77.6050033569336 -47.1879997253418,-71.51200103759766 C-76.72599792480469,-67.28900146484375 -96.52100372314453,-27.128000259399414 -72.31900024414062,9.368000030517578 C-52.095001220703125,39.86600112915039 20.33799934387207,87.197998046875 30.052000045776367,85.05500030517578 C45.689998626708984,81.6050033569336 95.2959976196289,7.23799991607666 95.88800048828125,-31.128999710083008 C96.52100372314453,-72.13099670410156 70.12699890136719,-87.1969985961914 42.104000091552734,-84.54900360107422 C14.553999900817871,-81.94599914550781 6.302000045776367,-46.047000885009766 6.302000045776367,-46.047000885009766z"></path></g><g opacity="1" transform="matrix(1,0,0,1,140.02200317382812,106.0979995727539)"><path fill="rgb(249,88,134)" fill-opacity="0.91" d=" M0.6919999718666077,-27.364999771118164 C-1.2719999551773071,-22.95199966430664 -7.508999824523926,-22.391000747680664 -10.385000228881836,-26.347999572753906 C-16.965999603271484,-35.4010009765625 -23.72599983215332,-48.65599822998047 -41.76499938964844,-44.52899932861328 C-66.25399780273438,-38.92599868774414 -69.71600341796875,-17.374000549316406 -52.34700012207031,7.668000221252441 C-37.83300018310547,28.594999313354492 14.019000053405762,61.159000396728516 20.954999923706055,59.71200180053711 C32.119998931884766,57.382999420166016 69.01000213623047,0.12700000405311584 69.35199737548828,-26.14299964904785 C69.71700286865234,-54.21799850463867 49.388999938964844,-61.159000396728516 29.37299919128418,-59.404998779296875 C16.606000900268555,-58.2869987487793 6.333000183105469,-40.04100036621094 0.6919999718666077,-27.364999771118164z"></path></g><g opacity="1" transform="matrix(1,0,0,1,186.1959991455078,79.05799865722656)"><path fill="rgb(255,255,255)" fill-opacity="1" d=" M-13.663000106811523,7.4770002365112305 C-14.371999740600586,11.315999984741211 -22.666000366210938,32.21500015258789 -12.482999801635742,36.198001861572266 C-0.777999997138977,40.777000427246094 6.372000217437744,31.742000579833984 13.902000427246094,16.69499969482422 C18.992000579833984,6.52400016784668 19.256000518798828,-21.274999618530273 -0.8379999995231628,-22.007999420166016 C-11.831999778747559,-22.409000396728516 -10.883000373840332,-7.576000213623047 -13.663000106811523,7.4770002365112305z"></path></g><g opacity="0.53" transform="matrix(1,0,0,1,170.5780029296875,139.89700317382812)"><path fill="rgb(255,222,232)" fill-opacity="1" d=" M-5.0320000648498535,-0.9269999861717224 C-5.0320000648498535,-0.9269999861717224 -11.786999702453613,9.4350004196167 -1.0110000371932983,15.527000427246094 C9.765000343322754,21.6200008392334 16.059999465942383,5.927000045776367 14.932999610900879,-0.4180000126361847 C13.805999755859375,-6.763999938964844 7.50600004196167,-7.616000175476074 3.066999912261963,-8.062000274658203 C-1.3730000257492065,-8.508000373840332 -5.0320000648498535,-0.9269999861717224 -5.0320000648498535,-0.9269999861717224z"></path></g></g></g></svg>