<svg xmlns="http://www.w3.org/2000/svg" xmlns:xlink="http://www.w3.org/1999/xlink" viewBox="0 0 512 512" width="512" height="512" style="width: 100%; height: 100%; transform: translate3d(0,0,0); content-visibility: visible;" preserveAspectRatio="xMidYMid meet"><defs><clipPath id="__lottie_element_2"><rect width="512" height="512" x="0" y="0"></rect></clipPath><clipPath id="__lottie_element_4"><path d="M0,0 L512,0 L512,512 L0,512z"></path></clipPath><radialGradient id="__lottie_element_13" spreadMethod="pad" gradientUnits="userSpaceOnUse"><stop></stop><stop></stop><stop></stop></radialGradient><mask id="__lottie_element_15"><path fill="url(#__lottie_element_14)"></path></mask><radialGradient id="__lottie_element_14" spreadMethod="pad" gradientUnits="userSpaceOnUse"><stop stop-color="rgb(255,255,255)"></stop><stop stop-color="rgb(255,255,255)"></stop><stop stop-color="rgb(255,255,255)"></stop></radialGradient><linearGradient id="__lottie_element_16" spreadMethod="pad" gradientUnits="userSpaceOnUse"><stop></stop><stop></stop><stop></stop></linearGradient><mask id="__lottie_element_18"><path fill="url(#__lottie_element_17)"></path></mask><linearGradient id="__lottie_element_17" spreadMethod="pad" gradientUnits="userSpaceOnUse"><stop stop-color="rgb(255,255,255)"></stop><stop stop-color="rgb(255,255,255)"></stop><stop stop-color="rgb(255,255,255)"></stop></linearGradient><clipPath id="__lottie_element_28"><path d="M0,0 L512,0 L512,512 L0,512z"></path></clipPath><radialGradient id="__lottie_element_37" spreadMethod="pad" gradientUnits="userSpaceOnUse" cx="-64.55500030517578" cy="-107.89099884033203" r="329.38826524221463" fx="-64.55500030517578" fy="-107.89099884033203"><stop offset="0%" stop-color="rgb(255,238,224)"></stop><stop offset="50%" stop-color="rgb(255,203,174)"></stop><stop offset="100%" stop-color="rgb(255,168,123)"></stop></radialGradient><mask id="__lottie_element_39"><path fill="url(#__lottie_element_38)" d=" M67.50800323486328,-192.78199768066406 C-21.05500030517578,-222.01499938964844 -125.60700225830078,-189.5590057373047 -161.375,-159.44000244140625 C-208.552001953125,-119.71399688720703 -262.552001953125,-42.7140007019043 -233.11199951171875,95.302001953125 C-206.19400024414062,221.4949951171875 -105.03299713134766,215.3280029296875 -65.6520004272461,211.27200317382812 C-54.770999908447266,210.15199279785156 -38.76900100708008,213.04800415039062 -28.26799964904785,216.16099548339844 C-18.503999710083008,219.05499267578125 1.8009999990463257,223.0659942626953 19.965999603271484,223.5290069580078 C39.040000915527344,224.01499938964844 58.448001861572266,222.28599548339844 79.7020034790039,212.39999389648438 C89.1729965209961,207.99400329589844 104.80000305175781,202.00100708007812 115.10800170898438,200.6219940185547 C128.85299682617188,198.7830047607422 148.20700073242188,190.85000610351562 167.22999572753906,177.3699951171875 C181.70199584960938,167.11500549316406 195.98300170898438,153.6479949951172 207.45399475097656,137.21299743652344 C279.2070007324219,34.40700149536133 224.63800048828125,-140.91600036621094 67.50800323486328,-192.78199768066406z"></path></mask><radialGradient id="__lottie_element_38" spreadMethod="pad" gradientUnits="userSpaceOnUse" cx="-64.55500030517578" cy="-107.89099884033203" r="329.38826524221463" fx="-64.55500030517578" fy="-107.89099884033203"><stop stop-color="rgb(255,255,255)" offset="0%" stop-opacity="0.9300000071525574"></stop><stop stop-color="rgb(255,255,255)" offset="57%" stop-opacity="0.9649999737739563"></stop><stop stop-color="rgb(255,255,255)" offset="100%" stop-opacity="1"></stop></radialGradient><linearGradient id="__lottie_element_40" spreadMethod="pad" gradientUnits="userSpaceOnUse" x1="-41.3120002746582" y1="-76.48400115966797" x2="12.09000015258789" y2="177.968994140625"><stop offset="0%" stop-color="rgb(251,172,122)"></stop><stop offset="50%" stop-color="rgb(238,152,99)"></stop><stop offset="100%" stop-color="rgb(224,133,77)"></stop></linearGradient><mask id="__lottie_element_42"><path fill="url(#__lottie_element_41)" d=" M-163.9199981689453,-160.43800354003906 C-163.9199981689453,-160.43800354003906 -210.63600158691406,-120.31700134277344 -207.0030059814453,-17.81999969482422 C-203.88900756835938,70.01799774169922 -154.83099365234375,136.88499450683594 -47.45100021362305,139.23399353027344 C-5.421999931335449,140.1529998779297 17.731000900268555,147.02200317382812 40.742000579833984,145.8179931640625 C53.40800094604492,145.156005859375 56.12900161743164,137.8300018310547 67.4209976196289,133.3509979248047 C77.18199920654297,129.47900390625 91.54399871826172,135.593994140625 101.2760009765625,134.00599670410156 C109.28600311279297,132.69900512695312 117.16899871826172,133.88499450683594 127.5199966430664,122.4800033569336 C136.0570068359375,113.0739974975586 125.1719970703125,111.18099975585938 134.625,106.9800033569336 C145.99200439453125,101.927001953125 182.3159942626953,104.99500274658203 190.00599670410156,95.77300262451172 C201.33999633789062,82.17900085449219 204.63999938964844,68.5979995727539 206.72000122070312,50.917999267578125 C207.58599853515625,43.54999923706055 224.5240020751953,45.159000396728516 227.89100646972656,38.935001373291016 C232.98899841308594,29.507999420166016 238.9499969482422,20.617000579833984 239.2449951171875,19.413000106811523 C240.7429962158203,13.303999900817871 229.86300659179688,87.84600067138672 177.38600158691406,129.83299255371094 C125.3479995727539,171.46800231933594 92.58699798583984,162.99099731445312 80.47599792480469,169.1649932861328 C68.36599731445312,175.33999633789062 45.375,185.63099670410156 16.31100082397461,180.6909942626953 C0.06300000101327896,177.92999267578125 -21.96500015258789,171.51699829101562 -42.551998138427734,170.28199768066406 C-54.39799880981445,169.5709991455078 -94.28700256347656,175.6540069580078 -133.3070068359375,163.11900329589844 C-162.0959930419922,153.87100219726562 -190.41400146484375,134.48800659179688 -206.64500427246094,94.76399993896484 C-242.9759979248047,5.85099983215332 -229.31500244140625,-109.80699920654297 -169.97500610351562,-156.73300170898438 C-112.35800170898438,-202.2969970703125 -163.9199981689453,-160.43800354003906 -163.9199981689453,-160.43800354003906z"></path></mask><linearGradient id="__lottie_element_41" spreadMethod="pad" gradientUnits="userSpaceOnUse" x1="-41.3120002746582" y1="-76.48400115966797" x2="12.09000015258789" y2="177.968994140625"><stop stop-color="rgb(255,255,255)" offset="0%" stop-opacity="0.9300000071525574"></stop><stop stop-color="rgb(255,255,255)" offset="57%" stop-opacity="0.9649999737739563"></stop><stop stop-color="rgb(255,255,255)" offset="100%" stop-opacity="1"></stop></linearGradient></defs><g clip-path="url(#__lottie_element_2)"><g clip-path="url(#__lottie_element_28)" style="display: block;" transform="matrix(1,0,0,1,0,0)" opacity="1"><g style="display: block;" transform="matrix(0.8919999599456787,0,0,0.8919999599456787,-4.749434947967529,39.274349212646484)" opacity="1"><g opacity="1" transform="matrix(1,0,0,1,298.87200927734375,255.67999267578125)"><path fill="url(#__lottie_element_37)" mask="url(#__lottie_element_39)" fill-opacity="1" d="M0 0 M67.50800323486328,-192.78199768066406 C-21.05500030517578,-222.01499938964844 -125.60700225830078,-189.5590057373047 -161.375,-159.44000244140625 C-208.552001953125,-119.71399688720703 -262.552001953125,-42.7140007019043 -233.11199951171875,95.302001953125 C-206.19400024414062,221.4949951171875 -105.03299713134766,215.3280029296875 -65.6520004272461,211.27200317382812 C-54.770999908447266,210.15199279785156 -38.76900100708008,213.04800415039062 -28.26799964904785,216.16099548339844 C-18.503999710083008,219.05499267578125 1.8009999990463257,223.0659942626953 19.965999603271484,223.5290069580078 C39.040000915527344,224.01499938964844 58.448001861572266,222.28599548339844 79.7020034790039,212.39999389648438 C89.1729965209961,207.99400329589844 104.80000305175781,202.00100708007812 115.10800170898438,200.6219940185547 C128.85299682617188,198.7830047607422 148.20700073242188,190.85000610351562 167.22999572753906,177.3699951171875 C181.70199584960938,167.11500549316406 195.98300170898438,153.6479949951172 207.45399475097656,137.21299743652344 C279.2070007324219,34.40700149536133 224.63800048828125,-140.91600036621094 67.50800323486328,-192.78199768066406z"></path><path stroke-linecap="butt" stroke-linejoin="miter" fill-opacity="0" stroke-miterlimit="10" stroke="rgb(166,101,67)" stroke-opacity="1" stroke-width="13.466" d=" M67.50800323486328,-192.78199768066406 C-21.05500030517578,-222.01499938964844 -125.60700225830078,-189.5590057373047 -161.375,-159.44000244140625 C-208.552001953125,-119.71399688720703 -262.552001953125,-42.7140007019043 -233.11199951171875,95.302001953125 C-206.19400024414062,221.4949951171875 -105.03299713134766,215.3280029296875 -65.6520004272461,211.27200317382812 C-54.770999908447266,210.15199279785156 -38.76900100708008,213.04800415039062 -28.26799964904785,216.16099548339844 C-18.503999710083008,219.05499267578125 1.8009999990463257,223.0659942626953 19.965999603271484,223.5290069580078 C39.040000915527344,224.01499938964844 58.448001861572266,222.28599548339844 79.7020034790039,212.39999389648438 C89.1729965209961,207.99400329589844 104.80000305175781,202.00100708007812 115.10800170898438,200.6219940185547 C128.85299682617188,198.7830047607422 148.20700073242188,190.85000610351562 167.22999572753906,177.3699951171875 C181.70199584960938,167.11500549316406 195.98300170898438,153.6479949951172 207.45399475097656,137.21299743652344 C279.2070007324219,34.40700149536133 224.63800048828125,-140.91600036621094 67.50800323486328,-192.78199768066406z"></path></g><g opacity="1" transform="matrix(1,0,0,1,294.1510009765625,285.08099365234375)"><path fill="url(#__lottie_element_40)" mask="url(#__lottie_element_42)" fill-opacity="0.7000000000000001" d="M0 0 M-163.9199981689453,-160.43800354003906 C-163.9199981689453,-160.43800354003906 -210.63600158691406,-120.31700134277344 -207.0030059814453,-17.81999969482422 C-203.88900756835938,70.01799774169922 -154.83099365234375,136.88499450683594 -47.45100021362305,139.23399353027344 C-5.421999931335449,140.1529998779297 17.731000900268555,147.02200317382812 40.742000579833984,145.8179931640625 C53.40800094604492,145.156005859375 56.12900161743164,137.8300018310547 67.4209976196289,133.3509979248047 C77.18199920654297,129.47900390625 91.54399871826172,135.593994140625 101.2760009765625,134.00599670410156 C109.28600311279297,132.69900512695312 117.16899871826172,133.88499450683594 127.5199966430664,122.4800033569336 C136.0570068359375,113.0739974975586 125.1719970703125,111.18099975585938 134.625,106.9800033569336 C145.99200439453125,101.927001953125 182.3159942626953,104.99500274658203 190.00599670410156,95.77300262451172 C201.33999633789062,82.17900085449219 204.63999938964844,68.5979995727539 206.72000122070312,50.917999267578125 C207.58599853515625,43.54999923706055 224.5240020751953,45.159000396728516 227.89100646972656,38.935001373291016 C232.98899841308594,29.507999420166016 238.9499969482422,20.617000579833984 239.2449951171875,19.413000106811523 C240.7429962158203,13.303999900817871 229.86300659179688,87.84600067138672 177.38600158691406,129.83299255371094 C125.3479995727539,171.46800231933594 92.58699798583984,162.99099731445312 80.47599792480469,169.1649932861328 C68.36599731445312,175.33999633789062 45.375,185.63099670410156 16.31100082397461,180.6909942626953 C0.06300000101327896,177.92999267578125 -21.96500015258789,171.51699829101562 -42.551998138427734,170.28199768066406 C-54.39799880981445,169.5709991455078 -94.28700256347656,175.6540069580078 -133.3070068359375,163.11900329589844 C-162.0959930419922,153.87100219726562 -190.41400146484375,134.48800659179688 -206.64500427246094,94.76399993896484 C-242.9759979248047,5.85099983215332 -229.31500244140625,-109.80699920654297 -169.97500610351562,-156.73300170898438 C-112.35800170898438,-202.2969970703125 -163.9199981689453,-160.43800354003906 -163.9199981689453,-160.43800354003906z"></path></g><g opacity="1" transform="matrix(1,0,0,1,298.87200927734375,255.67999267578125)"><path stroke-linecap="butt" stroke-linejoin="miter" fill-opacity="0" stroke-miterlimit="10" stroke="rgb(166,101,67)" stroke-opacity="1" stroke-width="13.466" d=" M67.50800323486328,-192.78199768066406 C-21.05500030517578,-222.01499938964844 -125.60700225830078,-189.5590057373047 -161.375,-159.44000244140625 C-208.552001953125,-119.71399688720703 -262.552001953125,-42.7140007019043 -233.11199951171875,95.302001953125 C-206.19400024414062,221.4949951171875 -105.03299713134766,215.3280029296875 -65.6520004272461,211.27200317382812 C-54.770999908447266,210.15199279785156 -38.76900100708008,213.04800415039062 -28.26799964904785,216.16099548339844 C-18.503999710083008,219.05499267578125 1.8009999990463257,223.0659942626953 19.965999603271484,223.5290069580078 C39.040000915527344,224.01499938964844 58.448001861572266,222.28599548339844 79.7020034790039,212.39999389648438 C89.1729965209961,207.99400329589844 104.80000305175781,202.00100708007812 115.10800170898438,200.6219940185547 C128.85299682617188,198.7830047607422 148.20700073242188,190.85000610351562 167.22999572753906,177.3699951171875 C181.70199584960938,167.11500549316406 195.98300170898438,153.6479949951172 207.45399475097656,137.21299743652344 C279.2070007324219,34.40700149536133 224.63800048828125,-140.91600036621094 67.50800323486328,-192.78199768066406z"></path></g></g><g style="display: block;" transform="matrix(0.8919999599456787,0,0,0.8919999599456787,56.96803283691406,32.30514907836914)" opacity="1"><g opacity="1" transform="matrix(1,0,0,1,0,0)"><g opacity="1" transform="matrix(1,0,0,1,248.61000061035156,115.68000030517578)"><path stroke-linecap="round" stroke-linejoin="round" fill-opacity="0" stroke="rgb(215,142,104)" stroke-opacity="1" stroke-width="7.855" d=" M-10.748000144958496,-16.20800018310547 C-10.717000007629395,-14.814000129699707 -9.887999534606934,-6.301000118255615 -4.995999813079834,2.315999984741211 C1.6649999618530273,14.04699993133545 10.748000144958496,16.20800018310547 10.748000144958496,16.20800018310547"></path></g><g opacity="1" transform="matrix(1,0,0,1,364.47100830078125,141.76699829101562)"><path stroke-linecap="round" stroke-linejoin="round" fill-opacity="0" stroke="rgb(215,142,104)" stroke-opacity="1" stroke-width="8.977" d=" M-11.958999633789062,5.248000144958496 C-11.958999633789062,5.248000144958496 -3.4820001125335693,6.482999801635742 2.875999927520752,3.3959999084472656 C9.395999908447266,0.2290000021457672 11.958999633789062,-6.484000205993652 11.958999633789062,-6.484000205993652"></path></g><g opacity="1" transform="matrix(1,0,0,1,305.281005859375,94.06999969482422)"><path fill="rgb(233,155,107)" fill-opacity="1" d=" M-6.065000057220459,-9.23799991607666 C-6.065000057220459,-9.23799991607666 -57.231998443603516,-37.64099884033203 -59.04800033569336,-19.117000579833984 C-61.9630012512207,10.602999687194824 -42.698001861572266,41.70199966430664 -0.9179999828338623,46.33300018310547 C40.86199951171875,50.9640007019043 62.96200180053711,39.8489990234375 62.96200180053711,3.7279999256134033 C62.96200180053711,-32.391998291015625 4.834000110626221,-57.39899826049805 4.834000110626221,-57.39899826049805 C4.834000110626221,-57.39899826049805 -6.065000057220459,-9.23799991607666 -6.065000057220459,-9.23799991607666z"></path></g><g opacity="1" transform="matrix(1,0,0,1,313.09600830078125,82.96499633789062)"><path fill="rgb(35,45,60)" fill-opacity="1" d=" M-54.34400177001953,9.097000122070312 C-40.720001220703125,47.06999969482422 9.84000015258789,58.28799819946289 38.90399932861328,41.617000579833984 C67.96900177001953,24.945999145507812 54.58399963378906,-21.152999877929688 33.59299850463867,-40.9109992980957 C15.133999824523926,-58.2869987487793 -10.866000175476074,-55.4010009765625 -27.433000564575195,-52.89799880981445 C-51.95600128173828,-49.194000244140625 -67.96800231933594,-28.875999450683594 -54.34400177001953,9.097000122070312z"></path><path stroke-linecap="butt" stroke-linejoin="miter" fill-opacity="0" stroke-miterlimit="10" stroke="rgb(9,9,2)" stroke-opacity="1" stroke-width="9.871" d=" M-54.34400177001953,9.097000122070312 C-40.720001220703125,47.06999969482422 9.84000015258789,58.28799819946289 38.90399932861328,41.617000579833984 C67.96900177001953,24.945999145507812 54.58399963378906,-21.152999877929688 33.59299850463867,-40.9109992980957 C15.133999824523926,-58.2869987487793 -10.866000175476074,-55.4010009765625 -27.433000564575195,-52.89799880981445 C-51.95600128173828,-49.194000244140625 -67.96800231933594,-28.875999450683594 -54.34400177001953,9.097000122070312z"></path></g><g opacity="1" transform="matrix(1,0,0,1,308.7669982910156,82.53199768066406)"><path fill="rgb(9,9,2)" fill-opacity="1" d=" M-44.66699981689453,-37.46900177001953 C-44.66699981689453,-37.46900177001953 -39.6349983215332,-42.685001373291016 -36.279998779296875,-39.8390007019043 C-32.92499923706055,-36.99399948120117 -22.020000457763672,-2.8459999561309814 -7.760000228881836,7.113999843597412 C6.5,17.073999404907227 26.632999420166016,15.178000450134277 35.439998626708984,15.178000450134277 C44.24800109863281,15.178000450134277 49.279998779296875,14.227999687194824 48.86000061035156,22.291000366210938 C48.441001892089844,30.354000091552734 47.18299865722656,42.685001373291016 9.854999542236328,40.78799819946289 C-27.472000122070312,38.89099884033203 -43.40999984741211,7.5879998207092285 -46.34600067138672,-8.538000106811523 C-49.28099822998047,-24.663000106811523 -44.66699981689453,-37.46900177001953 -44.66699981689453,-37.46900177001953z"></path></g><g opacity="0.65" transform="matrix(1,0,0,1,284.8789978027344,87.06700134277344)"><path fill="rgb(191,210,231)" fill-opacity="1" d=" M-4.171999931335449,7.922999858856201 C8.664999961853027,12.552000045776367 16.009000778198242,5.781000137329102 14.725000381469727,-1.3730000257492065 C13.442000389099121,-8.527000427246094 9.46399974822998,-13.968000411987305 3.0980000495910645,-14.958000183105469 C-12.248000144958496,-17.3439998626709 -17.009000778198242,3.2939999103546143 -4.171999931335449,7.922999858856201z"></path></g><g opacity="1" transform="matrix(1,0,0,1,326.5690002441406,91.9260025024414)"><path fill="rgb(96,131,197)" fill-opacity="1" d=" M3.0200371742248535,0.23990006744861603 C-0.7269628047943115,0.8459000587463379 -11.721041679382324,-0.2514975070953369 -12.570859909057617,7.613818168640137 C-13.394640922546387,16.145231246948242 10.82801628112793,20.238243103027344 14.284833908081055,10.8738431930542 C17.988704681396484,0.965316891670227 7.249037265777588,-0.44409993290901184 3.0200371742248535,0.23990006744861603z"></path></g><g opacity="1" transform="matrix(1,0,0,1,327.6820068359375,62.95899963378906)"><path fill="rgb(81,133,212)" fill-opacity="1" d=" M-42.926998138427734,-26.535999298095703 C-42.926998138427734,-26.535999298095703 5.383999824523926,-38.15999984741211 22.81999969482422,-9.463000297546387 C42.926998138427734,23.628000259399414 36.02399826049805,38.15999984741211 36.02399826049805,38.15999984741211 C36.02399826049805,38.15999984741211 25.731000900268555,4.168000221252441 10.833000183105469,-13.095999717712402 C-6.927999973297119,-33.676998138427734 -42.926998138427734,-26.535999298095703 -42.926998138427734,-26.535999298095703z"></path></g><g opacity="1" transform="matrix(1,0,0,1,313.8800048828125,56.749000549316406)"><path fill="rgb(255,255,255)" fill-opacity="1" d=" M9.890000343322754,-12.359000205993652 C9.890000343322754,-12.359000205993652 -3.388000011444092,-19.34000015258789 -11.411999702453613,-10.600000381469727 C-19.43600082397461,-1.8600000143051147 -9.586000442504883,7.248000144958496 -2.3410000801086426,10.730999946594238 C11.25,17.264999389648438 19.24799919128418,6.874000072479248 18.03700065612793,1.559000015258789 C15.75,-8.479000091552734 9.890000343322754,-12.359000205993652 9.890000343322754,-12.359000205993652z"></path></g></g><g opacity="1" transform="matrix(1,0,0,1,0,0)"><g opacity="1" transform="matrix(1,0,0,1,166.10899353027344,279.9460144042969)"><path stroke-linecap="round" stroke-linejoin="round" fill-opacity="0" stroke="rgb(214,142,104)" stroke-opacity="1" stroke-width="12" d=" M40.569000244140625,-44.32600021362305 C40.569000244140625,-44.32600021362305 41.779998779296875,-13.76200008392334 24.826000213623047,7.230999946594238 C-5.131999969482422,44.32600021362305 -41.779998779296875,31.929000854492188 -41.779998779296875,31.929000854492188"></path></g><g opacity="1" transform="matrix(1,0,0,1,170.9530029296875,269.7860107421875)"><path stroke-linecap="round" stroke-linejoin="round" fill-opacity="0" stroke="rgb(215,142,104)" stroke-opacity="1" stroke-width="9" d=" M20.494564056396484,-20.376821517944336 C20.494564056396484,-20.376821517944336 18.369239807128906,-9.470983505249023 8.534590721130371,-1.0550278425216675 C0.35944268107414246,6.092526912689209 -12.027173042297363,8.87358570098877 -12.027173042297363,8.87358570098877"></path></g><g opacity="1" transform="matrix(1,0,0,1,53.28200149536133,253.5780029296875)"><path stroke-linecap="round" stroke-linejoin="round" fill-opacity="0" stroke="rgb(215,142,104)" stroke-opacity="1" stroke-width="10.333" d=" M-27.24799919128418,-30.20400047302246 C-27.24799919128418,-30.20400047302246 -27.450000762939453,-12.914999961853027 -8.678999900817871,8.07800006866455 C8.335000038146973,27.106000900268555 27.450000762939453,30.202999114990234 27.450000762939453,30.202999114990234"></path></g><g opacity="1" transform="matrix(1,0,0,1,108.88800048828125,205.98199462890625)"><path fill="rgb(228,145,94)" fill-opacity="1" d=" M-58.74700164794922,-64.03700256347656 C-58.74700164794922,-64.03700256347656 -79.25700378417969,-48.202999114990234 -74.06800079345703,-4.646999835968018 C-70.53600311279297,25.00200080871582 -43.53300094604492,56.7400016784668 -1.815999984741211,61.90700149536133 C45.74300003051758,67.7969970703125 77.2020034790039,42.604000091552734 77.2020034790039,6.482999801635742 C77.2020034790039,-29.636999130249023 -20.888999938964844,-67.61100006103516 -20.888999938964844,-67.61100006103516 C-20.888999938964844,-67.61100006103516 -58.74700164794922,-64.03700256347656 -58.74700164794922,-64.03700256347656z"></path></g><g opacity="1" transform="matrix(1,0,0,1,110.41100311279297,187.60000610351562)"><path fill="rgb(35,45,60)" fill-opacity="1" d=" M-18.198999404907227,64.0739974975586 C26.915000915527344,85.54299926757812 84.77899932861328,59.54800033569336 83.89099884033203,8.854000091552734 C83.16100311279297,-32.869998931884766 65.25,-60.85100173950195 20.863000869750977,-73.52400207519531 C-21.233999252319336,-85.54399871826172 -50.2130012512207,-63.44200134277344 -57.2599983215332,-53.60900115966797 C-74.12699890136719,-30.07200050354004 -84.77999877929688,32.38999938964844 -18.198999404907227,64.0739974975586z"></path></g><g opacity="1" transform="matrix(1,0,0,1,110.41100311279297,187.60000610351562)"><path stroke-linecap="butt" stroke-linejoin="miter" fill-opacity="0" stroke-miterlimit="10" stroke="rgb(9,9,2)" stroke-opacity="1" stroke-width="9.871" d=" M-18.198999404907227,64.0739974975586 C26.915000915527344,85.54299926757812 84.77899932861328,59.54800033569336 83.89099884033203,8.854000091552734 C83.16100311279297,-32.869998931884766 65.25,-60.85100173950195 20.863000869750977,-73.52400207519531 C-21.233999252319336,-85.54399871826172 -50.2130012512207,-63.44200134277344 -57.2599983215332,-53.60900115966797 C-74.12699890136719,-30.07200050354004 -84.77999877929688,32.38999938964844 -18.198999404907227,64.0739974975586z"></path></g><g opacity="1" transform="matrix(1,0,0,1,112.80699920654297,190.7989959716797)"><path fill="rgb(9,9,2)" fill-opacity="1" d=" M-46.0177116394043,-46.00400161743164 C-36.782711029052734,-48.301998138427734 -33.576148986816406,-39.237850189208984 -28.90530776977539,-29.36279296875 C-24.06475830078125,-19.117467880249023 -14.317804336547852,-10.97017765045166 -5.109325408935547,-4.392745494842529 C15.297799110412598,10.021254539489746 33.88188171386719,3.251887559890747 47.615882873535156,8.252887725830078 C64.56988525390625,14.427887916564941 64.88587951660156,38.54677963256836 49.74888229370117,49.66078186035156 C43.137882232666016,54.5147819519043 17.867448806762695,63.99373245239258 -10.59154987335205,54.1147346496582 C-39.0505485534668,44.23573303222656 -62.27669906616211,8.055408477783203 -61.21635437011719,-11.362130165100098 C-59.966678619384766,-33.0316276550293 -57.118309020996094,-42.4372444152832 -49.54970932006836,-44.487850189208984 C-48.6969108581543,-44.738407135009766 -47.179710388183594,-45.71500015258789 -46.0177116394043,-46.00400161743164z"></path></g><g opacity="0.9394822761194029" transform="matrix(1,0,0,1,77.78600311279297,201.03700256347656)"><path fill="rgb(179,208,240)" fill-opacity="1" d=" M-12.403420448303223,-0.6238579750061035 C-2.809420108795166,12.059142112731934 12.364709854125977,10.740704536437988 17.92070960998535,-0.3892958462238312 C23.476709365844727,-11.518296241760254 10.968597412109375,-24.688486099243164 2.5085976123809814,-27.594484329223633 C-11.558402061462402,-32.427486419677734 -21.997419357299805,-13.30685806274414 -12.403420448303223,-0.6238579750061035z"></path></g><g opacity="1" transform="matrix(1,0,0,1,140.8509979248047,150.72000122070312)"><path fill="rgb(81,133,212)" fill-opacity="1" d=" M-54.66899871826172,-30.87299919128418 C-54.66899871826172,-30.87299919128418 -5.7217230796813965,-48.43056869506836 25.500761032104492,-11.341608047485352 C51.146324157714844,19.064809799194336 48.3886833190918,49.88156509399414 48.3886833190918,49.88156509399414 C48.3886833190918,49.88156509399414 36.17108917236328,3.4767372608184814 11.811088562011719,-14.058262825012207 C-15.638911247253418,-33.816261291503906 -54.66899871826172,-30.87299919128418 -54.66899871826172,-30.87299919128418z"></path></g><g opacity="0.8002958579881656" transform="matrix(1,0,0,1,129.37899780273438,164.02200317382812)"><path fill="rgb(255,255,255)" fill-opacity="1" d=" M-12.792893409729004,1.1482899188995361 C-5.683834552764893,15.090786933898926 7.2514262199401855,25.065898895263672 22.990154266357422,18.92066192626953 C36.2483024597168,13.823189735412598 32.67291259765625,-5.9272661209106445 21.927509307861328,-18.607160568237305 C10.661656379699707,-31.904176712036133 -2.2882425785064697,-35.86793518066406 -11.89140796661377,-30.525663375854492 C-21.229780197143555,-25.37643814086914 -19.993562698364258,-12.725887298583984 -12.792893409729004,1.1482899188995361z"></path></g><g opacity="1" transform="matrix(1,0,0,1,135.90499877929688,230.62100219726562)"><path fill="rgb(96,131,197)" fill-opacity="1" d=" M-11.803991317749023,-21.52947425842285 C-21.625213623046875,-20.21759033203125 -22.847158432006836,-8.664755821228027 -14.477117538452148,1.875381588935852 C-9.60590934753418,9.090038299560547 8.912940979003906,10.446678161621094 13.315940856933594,0.006678408943116665 C18.892940521240234,-13.21632194519043 -2.3790488243103027,-22.748836517333984 -11.803991317749023,-21.52947425842285z"></path></g></g></g><g style="display: none;"><g><path></path><path stroke-linecap="round" stroke-linejoin="round" fill-opacity="0"></path></g><g><path></path><path stroke-linecap="round" stroke-linejoin="round" fill-opacity="0"></path></g></g><g style="display: block;" transform="matrix(0.8919999599456787,0,0,0.8919999599456787,203.29348754882812,119.09140014648438)" opacity="1"><g opacity="1" transform="matrix(1,0,0,1,0,0)"><g opacity="1" transform="matrix(1,0,0,1,123.6729965209961,92.63400268554688)"><path stroke-linecap="round" stroke-linejoin="round" fill-opacity="0" stroke="rgb(207,115,65)" stroke-opacity="1" stroke-width="12" d=" M-5.130000114440918,70.58899688720703 C-5.130000114440918,70.58899688720703 -14.20300006866455,39.665000915527344 7.769000053405762,24.865999221801758 C28.506000518798828,10.89900016784668 48.999000549316406,21.680999755859375 48.999000549316406,21.680999755859375"></path></g><g opacity="1" transform="matrix(1,0,0,1,136.49000549316406,165.20700073242188)"><path fill="rgb(215,142,104)" fill-opacity="1" d=" M136.24000549316406,36.0989990234375 C136.24000549316406,36.0989990234375 91.14199829101562,-129.60299682617188 -21.16699981689453,-99.63400268554688 C-118.35099792480469,-73.70099639892578 -43.96500015258789,72.1729965209961 -21.500999450683594,104.28099822998047 C7.070000171661377,145.11700439453125 18.094999313354492,152.2469940185547 18.094999313354492,152.2469940185547 C18.094999313354492,152.2469940185547 22.18199920654297,148.16099548339844 22.18199920654297,148.16099548339844 C22.18199920654297,148.16099548339844 -55.04199981689453,68.12799835205078 -58.67499923706055,-12.449000358581543 C-62.30799865722656,-93.0270004272461 21.072999954223633,-106.13999938964844 55.58700180053711,-76.50299835205078 C90.10099792480469,-46.8650016784668 136.24000549316406,36.0989990234375 136.24000549316406,36.0989990234375z"></path></g><g opacity="1" transform="matrix(1,0,0,1,155.58700561523438,171.29600524902344)"><path stroke-linecap="round" stroke-linejoin="round" fill-opacity="0" stroke="rgb(129,66,42)" stroke-opacity="1" stroke-width="14" d=" M111.5479965209961,31.42300033569336 C111.5479965209961,31.42300033569336 97.12699890136719,-22.16699981689453 52.016998291015625,-67.55000305175781 C6.877999782562256,-112.96199798583984 -100.25299835205078,-93.78900146484375 -68.20899963378906,12.645000457763672 C-41.26499938964844,102.14199829101562 -3.4639999866485596,146.53900146484375 -3.4639999866485596,146.53900146484375"></path></g></g><g opacity="1" transform="matrix(1,0,0,1,171.74899291992188,333.97100830078125)"><path stroke-linecap="round" stroke-linejoin="round" fill-opacity="0" stroke="rgb(205,119,74)" stroke-opacity="1" stroke-width="12" d=" M-29.593000411987305,-1.0110000371932983 C-29.593000411987305,-1.0110000371932983 -17.152000427246094,8.505000114440918 0.734000027179718,1.6260000467300415 C14.901000022888184,-3.822999954223633 17.079999923706055,-14.251999855041504 17.079999923706055,-14.251999855041504"></path></g><g opacity="1" transform="matrix(1,0,0,1,281.5409851074219,231.2519989013672)"><path stroke-linecap="round" stroke-linejoin="round" fill-opacity="0" stroke="rgb(205,119,74)" stroke-opacity="1" stroke-width="12" d=" M-8.961943626403809,-1.6824570894241333 C-8.961943626403809,-1.6824570894241333 3.8835244178771973,2.037792682647705 10.798355102539062,-7.473727703094482 C17.6539306640625,-16.540592193603516 14.949705123901367,-36.60390853881836 14.949705123901367,-36.60390853881836"></path></g><g opacity="1" transform="matrix(1,0,0,1,245.197998046875,300.9809875488281)"><path stroke-linecap="round" stroke-linejoin="round" fill-opacity="0" stroke="rgb(205,119,74)" stroke-opacity="1" stroke-width="12" d=" M-22.322532653808594,8.192730903625488 C-22.322532653808594,8.192730903625488 -2.4329519271850586,5.448648929595947 8.400065422058105,-8.248369216918945 C18.39203643798828,-20.882299423217773 18.38926124572754,-31.95241355895996 18.38926124572754,-31.95241355895996"></path></g></g></g><g clip-path="url(#__lottie_element_4)" style="display: none;"><g style="display: none;"><g><path fill="url(#__lottie_element_13)" mask="url(#__lottie_element_15)"></path><path stroke-linecap="butt" stroke-linejoin="miter" fill-opacity="0" stroke-miterlimit="10"></path></g><g><path fill="url(#__lottie_element_16)" mask="url(#__lottie_element_18)"></path></g><g><path stroke-linecap="butt" stroke-linejoin="miter" fill-opacity="0" stroke-miterlimit="10"></path></g></g><g style="display: none;"><g><g><path stroke-linecap="round" stroke-linejoin="round" fill-opacity="0"></path></g><g><path stroke-linecap="round" stroke-linejoin="round" fill-opacity="0"></path></g><g><path></path></g><g><path></path><path stroke-linecap="butt" stroke-linejoin="miter" fill-opacity="0" stroke-miterlimit="10"></path></g><g><path></path></g><g><path></path></g><g><path></path></g><g><path></path></g><g><path></path></g></g><g><g><path stroke-linecap="round" stroke-linejoin="round" fill-opacity="0"></path></g><g><path stroke-linecap="round" stroke-linejoin="round" fill-opacity="0"></path></g><g><path stroke-linecap="round" stroke-linejoin="round" fill-opacity="0"></path></g><g><path></path></g><g><path></path></g><g><path stroke-linecap="butt" stroke-linejoin="miter" fill-opacity="0" stroke-miterlimit="10"></path></g><g><path></path></g><g><path></path></g><g><path></path></g><g><path></path></g><g><path></path></g></g></g><g style="display: none;"><g><path></path><path stroke-linecap="round" stroke-linejoin="round" fill-opacity="0"></path></g><g><path></path><path stroke-linecap="round" stroke-linejoin="round" fill-opacity="0"></path></g></g><g style="display: none;"><g><g><path stroke-linecap="round" stroke-linejoin="round" fill-opacity="0"></path></g><g><path></path></g><g><path stroke-linecap="round" stroke-linejoin="round" fill-opacity="0"></path></g></g><g><path stroke-linecap="round" stroke-linejoin="round" fill-opacity="0"></path></g><g><path stroke-linecap="round" stroke-linejoin="round" fill-opacity="0"></path></g><g><path stroke-linecap="round" stroke-linejoin="round" fill-opacity="0"></path></g></g></g></g></svg>