<svg xmlns="http://www.w3.org/2000/svg" xmlns:xlink="http://www.w3.org/1999/xlink" viewBox="0 0 512 512" width="512" height="512" style="width: 100%; height: 100%; transform: translate3d(0,0,0); content-visibility: visible;" preserveAspectRatio="xMidYMid meet"><defs><clipPath id="__lottie_element_2"><rect width="512" height="512" x="0" y="0"></rect></clipPath><clipPath id="__lottie_element_4"><path d="M0,0 L512,0 L512,512 L0,512z"></path></clipPath><radialGradient id="__lottie_element_13" spreadMethod="pad" gradientUnits="userSpaceOnUse"><stop></stop><stop></stop><stop></stop></radialGradient><radialGradient id="__lottie_element_14" spreadMethod="pad" gradientUnits="userSpaceOnUse"><stop></stop><stop></stop><stop></stop></radialGradient><clipPath id="__lottie_element_29"><path d="M0,0 L512,0 L512,512 L0,512z"></path></clipPath><radialGradient id="__lottie_element_38" spreadMethod="pad" gradientUnits="userSpaceOnUse" cx="-58.63199996948242" cy="-170.52499389648438" r="426.45732225121094" fx="-58.63199996948242" fy="-170.52499389648438"><stop offset="0%" stop-color="rgb(202,246,120)"></stop><stop offset="51%" stop-color="rgb(145,188,61)"></stop><stop offset="100%" stop-color="rgb(88,131,3)"></stop></radialGradient><radialGradient id="__lottie_element_39" spreadMethod="pad" gradientUnits="userSpaceOnUse" cx="-72.44300079345703" cy="-149.98899841308594" r="345.7017126165603" fx="-72.44300079345703" fy="-149.98899841308594"><stop offset="0%" stop-color="rgb(229,246,150)"></stop><stop offset="50%" stop-color="rgb(185,208,99)"></stop><stop offset="100%" stop-color="rgb(140,170,48)"></stop></radialGradient></defs><g clip-path="url(#__lottie_element_2)"><g clip-path="url(#__lottie_element_29)" style="display: block;" transform="matrix(1,0,0,1,0,0)" opacity="1"><g style="display: block;" transform="matrix(0.9813274145126343,0.014250993728637695,-0.01320535596460104,0.9093245267868042,-6.530351161956787,5.626466274261475)" opacity="1"><g opacity="1" transform="matrix(1,0,0,1,276.4599914550781,282.2690124511719)"><path fill="url(#__lottie_element_38)" fill-opacity="1" d=" M-75.41400146484375,218.98699951171875 C-124.96299743652344,209.1959991455078 -196.3249969482422,173.28500366210938 -221.2550048828125,76.80400085449219 C-246.18600463867188,-19.677000045776367 -176.38099670410156,-137.74000549316406 -142.72500610351562,-180.9029998779297 C-109.06999969482422,-224.0659942626953 -50.48400115966797,-251.99400329589844 6.855999946594238,-250.72500610351562 C64.19499969482422,-249.4550018310547 148.95799255371094,-185.9810028076172 173.88800048828125,-140.2790069580078 C198.8179931640625,-94.5770034790039 246.18499755859375,41.257999420166016 201.31100463867188,127.58399963378906 C156.43699645996094,213.90899658203125 91.61799621582031,251.99400329589844 -75.41400146484375,218.98699951171875z"></path><path stroke-linecap="butt" stroke-linejoin="miter" fill-opacity="0" stroke-miterlimit="10" stroke="rgb(44,102,23)" stroke-opacity="1" stroke-width="14" d=" M-75.41400146484375,218.98699951171875 C-124.96299743652344,209.1959991455078 -196.3249969482422,173.28500366210938 -221.2550048828125,76.80400085449219 C-246.18600463867188,-19.677000045776367 -176.38099670410156,-137.74000549316406 -142.72500610351562,-180.9029998779297 C-109.06999969482422,-224.0659942626953 -50.48400115966797,-251.99400329589844 6.855999946594238,-250.72500610351562 C64.19499969482422,-249.4550018310547 148.95799255371094,-185.9810028076172 173.88800048828125,-140.2790069580078 C198.8179931640625,-94.5770034790039 246.18499755859375,41.257999420166016 201.31100463867188,127.58399963378906 C156.43699645996094,213.90899658203125 91.61799621582031,251.99400329589844 -75.41400146484375,218.98699951171875z"></path></g><g opacity="1" transform="matrix(1,0,0,1,267.2720031738281,261.4960021972656)"><path fill="url(#__lottie_element_39)" fill-opacity="1" d=" M-58.85599899291992,217.39999389648438 C-101.37000274658203,208.88800048828125 -167.6510009765625,173.43800354003906 -189.04100036621094,89.56500244140625 C-210.4320068359375,5.690999984741211 -149.5260009765625,-95.88200378417969 -120.64800262451172,-133.40499877929688 C-91.77100372314453,-170.927001953125 -38.457000732421875,-198.26800537109375 10.753000259399414,-198.50399780273438 C69.66799926757812,-198.78700256347656 136.8249969482422,-148.1439971923828 158.21499633789062,-108.41400146484375 C179.6060028076172,-68.68499755859375 224.10000610351562,64.94200134277344 185.5970001220703,139.98699951171875 C147.093994140625,215.03199768066406 84.45999908447266,246.093994140625 -58.85599899291992,217.39999389648438z"></path></g></g><g style="display: block;" transform="matrix(1.4984538555145264,-0.0361129567027092,0.038942042738199234,1.2786918878555298,127.72664642333984,291.2995300292969)" opacity="1"><g opacity="1" transform="matrix(1.0800000429153442,0,0,1.0800000429153442,-5.1751251220703125,-4.135440826416016)"><g opacity="1" transform="matrix(1,0,0,1,65.23600006103516,51.500999450683594)"><path fill="rgb(136,154,36)" fill-opacity="0.43" d=" M-6.692999839782715,-19.083999633789062 C-8.616000175476074,-23.267000198364258 -7.978000164031982,-35.99100112915039 11.194000244140625,-30.9689998626709 C31.308000564575195,-25.700000762939453 24.770999908447266,-14.956999778747559 21.30699920654297,-10.763999938964844 C18.13599967956543,-6.925000190734863 21.118000030517578,-8.58899974822998 5.855000019073486,-14.097999572753906 C-7.3379998207092285,-18.860000610351562 -3.802000045776367,-12.795999526977539 -6.692999839782715,-19.083999633789062z"></path></g><g opacity="1" transform="matrix(1,0,0,1,62.87200164794922,54.01300048828125)"><path fill="rgb(53,18,14)" fill-opacity="1" d=" M0.4104999899864197,-24.86199951171875 C-0.03200000151991844,-25.468000411987305 6.156499862670898,-26.195999145507812 12.079000473022461,-24.35099983215332 C19.958999633789062,-21.857999801635742 20.66200065612793,-20.40999984741211 21.333999633789062,-19.615999221801758 C22.597000122070312,-18.124000549316406 21.161500930786133,-21.099000930786133 12.682000160217285,-23.629499435424805 C1.558500051498413,-26.988500595092773 0.45100000500679016,-24.550500869750977 0.4104999899864197,-24.86199951171875z"></path><path stroke-linecap="butt" stroke-linejoin="miter" fill-opacity="0" stroke-miterlimit="10" stroke="rgb(62,91,18)" stroke-opacity="1" stroke-width="11.101" d=" M0.4104999899864197,-24.86199951171875 C-0.03200000151991844,-25.468000411987305 6.156499862670898,-26.195999145507812 12.079000473022461,-24.35099983215332 C19.958999633789062,-21.857999801635742 20.66200065612793,-20.40999984741211 21.333999633789062,-19.615999221801758 C22.597000122070312,-18.124000549316406 21.161500930786133,-21.099000930786133 12.682000160217285,-23.629499435424805 C1.558500051498413,-26.988500595092773 0.45100000500679016,-24.550500869750977 0.4104999899864197,-24.86199951171875z"></path></g></g><g opacity="1" transform="matrix(1,0,0,1,0,0)"><path fill="rgb(184,186,92)" fill-opacity="1" d=" M99.84700012207031,7.784999847412109 C99.84700012207031,7.784999847412109 93.45800018310547,13.373000144958496 89.46199798583984,20.13800048828125 C87.49099731445312,23.474000930786133 86.4729995727539,25.135000228881836 85.08000183105469,34.95800018310547 C83.0780029296875,49.08000183105469 89.60099792480469,62.292999267578125 89.60099792480469,62.292999267578125"></path><path stroke-linecap="round" stroke-linejoin="round" fill-opacity="0" stroke="rgb(52,102,24)" stroke-opacity="1" stroke-width="11.101" d=" M99.84700012207031,7.784999847412109 C99.84700012207031,7.784999847412109 93.45800018310547,13.373000144958496 89.46199798583984,20.13800048828125 C87.49099731445312,23.474000930786133 86.4729995727539,25.135000228881836 85.08000183105469,34.95800018310547 C83.0780029296875,49.08000183105469 89.60099792480469,62.292999267578125 89.60099792480469,62.292999267578125"></path></g><g opacity="1" transform="matrix(-0.8513416051864624,-0.2769297957420349,-0.30933237075805664,0.9509539604187012,144.22259521484375,16.49545669555664)"><path fill="rgb(192,197,105)" fill-opacity="1" d=" M95.57162475585938,9.2681245803833 C95.57162475585938,9.2681245803833 89.04337310791016,16.2971248626709 87.6353759765625,19.39612579345703 C86.0323715209961,22.92412567138672 84.64600372314453,24.393125534057617 83.25337219238281,34.21612548828125 C81.31912231445312,47.86249923706055 86.52974700927734,59.96324920654297 86.52974700927734,59.96324920654297"></path><path stroke-linecap="round" stroke-linejoin="round" fill-opacity="0" stroke="rgb(52,102,24)" stroke-opacity="1" stroke-width="11.101" d=" M95.57162475585938,9.2681245803833 C95.57162475585938,9.2681245803833 89.04337310791016,16.2971248626709 87.6353759765625,19.39612579345703 C86.0323715209961,22.92412567138672 84.64600372314453,24.393125534057617 83.25337219238281,34.21612548828125 C81.31912231445312,47.86249923706055 86.52974700927734,59.96324920654297 86.52974700927734,59.96324920654297"></path></g></g><g style="display: block;" transform="matrix(1.2315043210983276,-0.029679428786039352,0.034756552428007126,1.1412581205368042,119.51609802246094,-21.686248779296875)" opacity="1"><g opacity="0" transform="matrix(0.8533255457878113,-0.5213784575462341,0.510069727897644,0.8348169326782227,45.59969711303711,53.54421615600586)"><path fill="rgb(46,106,9)" fill-opacity="0.32" d=" M-6.270999908447266,-29.652999877929688 C-6.270999908447266,-29.652999877929688 -17.09600067138672,-38.250999450683594 -4.704999923706055,-29.327999114990234 C6.131999969482422,-21.52400016784668 6.703000068664551,-12.366999626159668 14.597000122070312,-7.711999893188477 C22.492000579833984,-3.056999921798706 35.926998138427734,-3.2730000019073486 39.250999450683594,12.383999824523926 C42.57500076293945,28.041000366210938 39.487998962402344,32.91299819946289 30.351999282836914,32.983001708984375 C22.871999740600586,33.040000915527344 20.316999435424805,26.29800033569336 15.852999687194824,16.135000228881836 C12.192000389099121,7.800000190734863 9.968000411987305,0.875 7.771999835968018,-2.7139999866485596 C4.372000217437744,-8.269000053405762 -4.9770002365112305,-21.150999069213867 -5.769999980926514,-23.183000564575195 C-5.882999897003174,-23.881999969482422 3.5959999561309814,-23.170000076293945 2.4590001106262207,-25.8439998626709 C1.5299999713897705,-28.027000427246094 -6.270999908447266,-29.652999877929688 -6.270999908447266,-29.652999877929688z"></path></g><g opacity="0" transform="matrix(0.9380704760551453,0.3464445173740387,-0.3464445173740387,0.9380704760551453,218.1798858642578,104.13050079345703)"><path fill="rgb(89,99,28)" fill-opacity="0.4" d=" M-37.064998626708984,-10.505000114440918 C-30.88599967956543,-14.74899959564209 -13.093000411987305,-8.668000221252441 2.927999973297119,-9.22599983215332 C18.947999954223633,-9.78499984741211 4.757999897003174,-16.113000869750977 4.757999897003174,-16.113000869750977 C4.757999897003174,-16.113000869750977 45.646907806396484,-7.70445442199707 46.556907653808594,-4.155454635620117 C47.46590805053711,-0.6074545383453369 37.77472686767578,4.296636581420898 34.718727111816406,4.431636333465576 C27.420726776123047,4.754636287689209 4.489999771118164,3.549999952316284 -17.170000076293945,6.702000141143799 C-23.591999053955078,7.63700008392334 -33.35900115966797,8.67199993133545 -36.459999084472656,5.218999862670898 C-45.040000915527344,-4.334000110626221 -37.95600128173828,-9.892999649047852 -37.064998626708984,-10.505000114440918z"></path></g><g opacity="1" transform="matrix(0.5617510080337524,-0.6806252002716064,0.6597229838371277,0.5444994568824768,39.75861358642578,55.991493225097656)"><path fill="rgb(68,39,29)" fill-opacity="1" d=" M-41.03099822998047,-36.07500076293945 C-41.03099822998047,-36.07500076293945 -26.488000869750977,-44.1150016784668 -11.946000099182129,-39.459999084472656 C2.5969998836517334,-34.805999755859375 12.569000244140625,-19.57200050354004 20.46299934387207,-14.916999816894531 C28.357999801635742,-10.26200008392334 39.992000579833984,-1.7990000247955322 43.316001892089844,13.857999801635742 C46.63999938964844,29.514999389648438 46.847999572753906,44.1150016784668 39.36899948120117,44.1150016784668 C31.889999389648438,44.1150016784668 23.78700065612793,15.33899974822998 18.801000595092773,7.7220001220703125 C13.8149995803833,0.10499999672174454 7.166999816894531,-13.223999977111816 -6.129000186920166,-24.22599983215332 C-19.424999237060547,-35.229000091552734 -28.149999618530273,-33.5359992980957 -31.474000930786133,-33.112998962402344 C-34.79800033569336,-32.689998626708984 -43.52399826049805,-29.72800064086914 -45.18600082397461,-31.420000076293945 C-46.847999572753906,-33.112998962402344 -41.03099822998047,-36.07500076293945 -41.03099822998047,-36.07500076293945z"></path><path stroke-linecap="butt" stroke-linejoin="miter" fill-opacity="0" stroke-miterlimit="10" stroke="rgb(61,41,31)" stroke-opacity="1" stroke-width="9.235" d=" M-41.03099822998047,-36.07500076293945 C-41.03099822998047,-36.07500076293945 -26.488000869750977,-44.1150016784668 -11.946000099182129,-39.459999084472656 C2.5969998836517334,-34.805999755859375 12.569000244140625,-19.57200050354004 20.46299934387207,-14.916999816894531 C28.357999801635742,-10.26200008392334 39.992000579833984,-1.7990000247955322 43.316001892089844,13.857999801635742 C46.63999938964844,29.514999389648438 46.847999572753906,44.1150016784668 39.36899948120117,44.1150016784668 C31.889999389648438,44.1150016784668 23.78700065612793,15.33899974822998 18.801000595092773,7.7220001220703125 C13.8149995803833,0.10499999672174454 7.166999816894531,-13.223999977111816 -6.129000186920166,-24.22599983215332 C-19.424999237060547,-35.229000091552734 -28.149999618530273,-33.5359992980957 -31.474000930786133,-33.112998962402344 C-34.79800033569336,-32.689998626708984 -43.52399826049805,-29.72800064086914 -45.18600082397461,-31.420000076293945 C-46.847999572753906,-33.112998962402344 -41.03099822998047,-36.07500076293945 -41.03099822998047,-36.07500076293945z"></path></g><g opacity="1" transform="matrix(0.8035995960235596,0.5044293999671936,-0.5844214558601379,0.9310338497161865,236.125,101.4530029296875)"><path fill="rgb(68,39,29)" fill-opacity="1" d=" M-38.18899917602539,-1.8580000400543213 C-32.0099983215332,-6.1020002365112305 -20.618999481201172,-9.60200023651123 -4.598999977111816,-10.15999984741211 C11.42199993133545,-10.718999862670898 13.20300006866455,-3.3420000076293945 13.20300006866455,-3.3420000076293945 C13.20300006866455,-3.3420000076293945 42.74700164794922,-0.5429999828338623 43.65599822998047,3.005000114440918 C44.566001892089844,6.553999900817871 26.35099983215332,6.798999786376953 12.520000457763672,5.676000118255615 C-1.3109999895095825,4.552999973297119 -18.351999282836914,4.395999908447266 -24.69499969482422,5.769000053405762 C-31.038000106811523,7.140999794006348 -41.88100051879883,10.718999862670898 -43.2239990234375,6.252999782562256 C-44.56700134277344,1.7879999876022339 -39.08000183105469,-1.246000051498413 -38.18899917602539,-1.8580000400543213z"></path><path stroke-linecap="butt" stroke-linejoin="miter" fill-opacity="0" stroke-miterlimit="10" stroke="rgb(61,41,31)" stroke-opacity="1" stroke-width="9.235" d=" M-38.18899917602539,-1.8580000400543213 C-32.0099983215332,-6.1020002365112305 -20.618999481201172,-9.60200023651123 -4.598999977111816,-10.15999984741211 C11.42199993133545,-10.718999862670898 13.20300006866455,-3.3420000076293945 13.20300006866455,-3.3420000076293945 C13.20300006866455,-3.3420000076293945 42.74700164794922,-0.5429999828338623 43.65599822998047,3.005000114440918 C44.566001892089844,6.553999900817871 26.35099983215332,6.798999786376953 12.520000457763672,5.676000118255615 C-1.3109999895095825,4.552999973297119 -18.351999282836914,4.395999908447266 -24.69499969482422,5.769000053405762 C-31.038000106811523,7.140999794006348 -41.88100051879883,10.718999862670898 -43.2239990234375,6.252999782562256 C-44.56700134277344,1.7879999876022339 -39.08000183105469,-1.246000051498413 -38.18899917602539,-1.8580000400543213z"></path></g></g><g style="display: block;" transform="matrix(0.9813274145126343,0.014250993728637695,-0.01320535596460104,0.9093245267868042,-6.530351161956787,5.626466274261475)" opacity="1"><g opacity="1" transform="matrix(1,0,0,1,276.4599914550781,282.2690124511719)"><path stroke-linecap="butt" stroke-linejoin="miter" fill-opacity="0" stroke-miterlimit="10" stroke="rgb(51,102,24)" stroke-opacity="1" stroke-width="14" d="M0 0"></path></g></g><g style="display: block;" transform="matrix(1.2315043210983276,-0.029679428786039352,0.034756552428007126,1.1412581205368042,119.51609802246094,-21.686248779296875)" opacity="1"><g opacity="1" transform="matrix(0.5617510080337524,-0.6806252002716064,0.6597229838371277,0.5444994568824768,39.75861358642578,55.991493225097656)"><path fill="rgb(68,39,29)" fill-opacity="1" d=" M-41.03099822998047,-36.07500076293945 C-41.03099822998047,-36.07500076293945 -26.488000869750977,-44.1150016784668 -11.946000099182129,-39.459999084472656 C2.5969998836517334,-34.805999755859375 12.569000244140625,-19.57200050354004 20.46299934387207,-14.916999816894531 C28.357999801635742,-10.26200008392334 39.992000579833984,-1.7990000247955322 43.316001892089844,13.857999801635742 C46.63999938964844,29.514999389648438 46.847999572753906,44.1150016784668 39.36899948120117,44.1150016784668 C31.889999389648438,44.1150016784668 23.78700065612793,15.33899974822998 18.801000595092773,7.7220001220703125 C13.8149995803833,0.10499999672174454 7.166999816894531,-13.223999977111816 -6.129000186920166,-24.22599983215332 C-19.424999237060547,-35.229000091552734 -28.149999618530273,-33.5359992980957 -31.474000930786133,-33.112998962402344 C-34.79800033569336,-32.689998626708984 -43.52399826049805,-29.72800064086914 -45.18600082397461,-31.420000076293945 C-46.847999572753906,-33.112998962402344 -41.03099822998047,-36.07500076293945 -41.03099822998047,-36.07500076293945z"></path><path stroke-linecap="butt" stroke-linejoin="miter" fill-opacity="0" stroke-miterlimit="10" stroke="rgb(61,41,31)" stroke-opacity="1" stroke-width="9.235" d=" M-41.03099822998047,-36.07500076293945 C-41.03099822998047,-36.07500076293945 -26.488000869750977,-44.1150016784668 -11.946000099182129,-39.459999084472656 C2.5969998836517334,-34.805999755859375 12.569000244140625,-19.57200050354004 20.46299934387207,-14.916999816894531 C28.357999801635742,-10.26200008392334 39.992000579833984,-1.7990000247955322 43.316001892089844,13.857999801635742 C46.63999938964844,29.514999389648438 46.847999572753906,44.1150016784668 39.36899948120117,44.1150016784668 C31.889999389648438,44.1150016784668 23.78700065612793,15.33899974822998 18.801000595092773,7.7220001220703125 C13.8149995803833,0.10499999672174454 7.166999816894531,-13.223999977111816 -6.129000186920166,-24.22599983215332 C-19.424999237060547,-35.229000091552734 -28.149999618530273,-33.5359992980957 -31.474000930786133,-33.112998962402344 C-34.79800033569336,-32.689998626708984 -43.52399826049805,-29.72800064086914 -45.18600082397461,-31.420000076293945 C-46.847999572753906,-33.112998962402344 -41.03099822998047,-36.07500076293945 -41.03099822998047,-36.07500076293945z"></path></g><g opacity="1" transform="matrix(0.8035995960235596,0.5044293999671936,-0.5844214558601379,0.9310338497161865,236.125,101.4530029296875)"><path fill="rgb(68,39,29)" fill-opacity="1" d=" M-38.18899917602539,-1.8580000400543213 C-32.0099983215332,-6.1020002365112305 -20.618999481201172,-9.60200023651123 -4.598999977111816,-10.15999984741211 C11.42199993133545,-10.718999862670898 13.20300006866455,-3.3420000076293945 13.20300006866455,-3.3420000076293945 C13.20300006866455,-3.3420000076293945 42.74700164794922,-0.5429999828338623 43.65599822998047,3.005000114440918 C44.566001892089844,6.553999900817871 26.35099983215332,6.798999786376953 12.520000457763672,5.676000118255615 C-1.3109999895095825,4.552999973297119 -18.351999282836914,4.395999908447266 -24.69499969482422,5.769000053405762 C-31.038000106811523,7.140999794006348 -41.88100051879883,10.718999862670898 -43.2239990234375,6.252999782562256 C-44.56700134277344,1.7879999876022339 -39.08000183105469,-1.246000051498413 -38.18899917602539,-1.8580000400543213z"></path><path stroke-linecap="butt" stroke-linejoin="miter" fill-opacity="0" stroke-miterlimit="10" stroke="rgb(61,41,31)" stroke-opacity="1" stroke-width="9.235" d=" M-38.18899917602539,-1.8580000400543213 C-32.0099983215332,-6.1020002365112305 -20.618999481201172,-9.60200023651123 -4.598999977111816,-10.15999984741211 C11.42199993133545,-10.718999862670898 13.20300006866455,-3.3420000076293945 13.20300006866455,-3.3420000076293945 C13.20300006866455,-3.3420000076293945 42.74700164794922,-0.5429999828338623 43.65599822998047,3.005000114440918 C44.566001892089844,6.553999900817871 26.35099983215332,6.798999786376953 12.520000457763672,5.676000118255615 C-1.3109999895095825,4.552999973297119 -18.351999282836914,4.395999908447266 -24.69499969482422,5.769000053405762 C-31.038000106811523,7.140999794006348 -41.88100051879883,10.718999862670898 -43.2239990234375,6.252999782562256 C-44.56700134277344,1.7879999876022339 -39.08000183105469,-1.246000051498413 -38.18899917602539,-1.8580000400543213z"></path></g></g><g style="display: block;" transform="matrix(1.2315043210983276,-0.029679428786039352,0.034756552428007126,1.1412581205368042,17.663846969604492,48.56892395019531)" opacity="1"><g opacity="1" transform="matrix(1,0,0,1,104.05400085449219,115.8479995727539)"><path fill="rgb(137,159,62)" fill-opacity="0.3" d=" M-63.479000091552734,22.659000396728516 C-62.53200149536133,6.451000213623047 -54.82400131225586,-9.604000091552734 -44.22700119018555,-21.735000610351562 C-34.65999984741211,-32.685001373291016 -25.033000946044922,-45.481998443603516 -6.425000190734863,-52.5880012512207 C26.815000534057617,-65.28299713134766 43.29499816894531,-68.56800079345703 65.73200225830078,-47.409000396728516 C88.16899871826172,-26.250999450683594 79.6259994506836,8.880000114440918 66.61699676513672,34.17900085449219 C49.224998474121094,68.0009994506836 -8.91100025177002,72.56199645996094 -41.32099914550781,58.17399978637695 C-56.946998596191406,51.23699951171875 -64.29000091552734,36.54100036621094 -63.479000091552734,22.659000396728516z"></path></g><g opacity="1" transform="matrix(1,0,0,1,282.364013671875,160.64500427246094)"><path fill="rgb(93,138,9)" fill-opacity="0.3" d=" M-6.203916549682617,-60.2418327331543 C-17.703916549682617,-60.61283493041992 -40.387916564941406,-54.942832946777344 -50.64291763305664,-47.876834869384766 C-76.28091430664062,-30.212833404541016 -73.87999725341797,8.064416885375977 -55.3650016784668,37.56341552734375 C-34.85499954223633,70.24241638183594 -5.1305832862854,76.0816650390625 12.857666969299316,74.80883026123047 C40.29483413696289,72.89066314697266 69.51425170898438,65.53675079345703 72.0782470703125,27.55875015258789 C74.64225006103516,-10.419249534606934 48.490081787109375,-58.475833892822266 -6.203916549682617,-60.2418327331543z"></path></g><g opacity="0.53" transform="matrix(1,0,0,1,119.44599914550781,168.44000244140625)"><path stroke-linecap="round" stroke-linejoin="round" fill-opacity="0" stroke="rgb(43,103,23)" stroke-opacity="0.73" stroke-width="12" d=" M40.71799850463867,-31.507999420166016 C40.71799850463867,-31.507999420166016 42.435001373291016,-1.1679999828338623 11.96399974822998,20.27899932861328 C-12.036999702453613,37.172000885009766 -50.380001068115234,31.323999404907227 -50.380001068115234,31.323999404907227"></path></g><g opacity="0.65" transform="matrix(1,0,0,1,243.67799377441406,192.02499389648438)"><path stroke-linecap="round" stroke-linejoin="round" fill-opacity="0" stroke="rgb(43,103,23)" stroke-opacity="0.44" stroke-width="12" d=" M-22.073999404907227,-55.16899871826172 C-22.073999404907227,-55.16899871826172 -42.26599884033203,-17.656999588012695 -15.723999977111816,26.464000701904297 C-0.2680000066757202,52.15800094604492 30.354000091552734,62.75400161743164 30.354000091552734,62.75400161743164"></path></g><g opacity="1" transform="matrix(1,0,0,1,290.8420104980469,148.9810028076172)"></g><g opacity="1" transform="matrix(1,0,0,1,290.8420104980469,148.9810028076172)"><path fill="rgb(186,213,232)" fill-opacity="1" d=" M-2.7918460369110107,-79.01861572265625 C-13.973846435546875,-79.37461853027344 -35.20292282104492,-74.13353729248047 -49.888153076171875,-63.255767822265625 C-74.12030792236328,-45.34853744506836 -82.64115142822266,-3.9902307987213135 -67.59838104248047,28.07807731628418 C-47.93215560913086,70.17361450195312 -14.76761531829834,76.71430969238281 14.100000381469727,74.90315246582031 C36.6510009765625,73.47792053222656 71.5203857421875,60.68976974487305 73.75215148925781,12.266385078430176 C75.44853973388672,-24.170846939086914 50.392154693603516,-77.32561492919922 -2.7918460369110107,-79.01861572265625z"></path><path stroke-linecap="butt" stroke-linejoin="miter" fill-opacity="0" stroke-miterlimit="10" stroke="rgb(88,122,153)" stroke-opacity="1" stroke-width="12.11" d=" M-2.7918460369110107,-79.01861572265625 C-13.973846435546875,-79.37461853027344 -35.20292282104492,-74.13353729248047 -49.888153076171875,-63.255767822265625 C-74.12030792236328,-45.34853744506836 -82.64115142822266,-3.9902307987213135 -67.59838104248047,28.07807731628418 C-47.93215560913086,70.17361450195312 -14.76761531829834,76.71430969238281 14.100000381469727,74.90315246582031 C36.6510009765625,73.47792053222656 71.5203857421875,60.68976974487305 73.75215148925781,12.266385078430176 C75.44853973388672,-24.170846939086914 50.392154693603516,-77.32561492919922 -2.7918460369110107,-79.01861572265625z"></path></g><g opacity="1" transform="matrix(1,0,0,1,300.67498779296875,143.03500366210938)"><path fill="rgb(255,255,255)" fill-opacity="1" d=" M-7.813000202178955,-60.48500061035156 C-24.305999755859375,-62.797000885009766 -40.994998931884766,-57.505001068115234 -48.21900177001953,-51.24399948120117 C-70.1520004272461,-32.23500061035156 -68.84400177001953,9.956999778747559 -56.54499816894531,32.486000061035156 C-42.435001373291016,58.33100128173828 -19.35300064086914,71.19400024414062 9.104000091552734,65.77400207519531 C40.119998931884766,59.867000579833984 51.922000885009766,42.27000045776367 53.900001525878906,13.406999588012695 C55.87699890136719,-15.456999778747559 33.98099899291992,-54.625999450683594 -7.813000202178955,-60.48500061035156z"></path></g><g opacity="1" transform="matrix(1,0,0,1,102.41899871826172,100.86499786376953)"><path fill="rgb(186,213,232)" fill-opacity="1" d=" M-74.13800048828125,21.048999786376953 C-76.41699981689453,-1.7829999923706055 -73.66600036621094,-16.68400001525879 -66.0009994506836,-30.85099983215332 C-57.79899978637695,-46.01100158691406 -41.11899948120117,-61.189998626708984 -22.51099967956543,-68.2959976196289 C10.729000091552734,-80.99099731445312 37.159000396728516,-73.02100372314453 57.742000579833984,-50.05500030517578 C79.35600280761719,-25.93899917602539 78.31800079345703,6.9770002365112305 68.11100006103516,31.516000747680664 C53.50400161743164,66.63099670410156 1.593000054359436,80.04499816894531 -41.59299850463867,62.36000061035156 C-60.96500015258789,54.426998138427734 -72.75700378417969,34.88600158691406 -74.13800048828125,21.048999786376953z"></path><path stroke-linecap="butt" stroke-linejoin="miter" fill-opacity="0" stroke-miterlimit="10" stroke="rgb(88,122,153)" stroke-opacity="1" stroke-width="12.11" d=" M-74.13800048828125,21.048999786376953 C-76.41699981689453,-1.7829999923706055 -73.66600036621094,-16.68400001525879 -66.0009994506836,-30.85099983215332 C-57.79899978637695,-46.01100158691406 -41.11899948120117,-61.189998626708984 -22.51099967956543,-68.2959976196289 C10.729000091552734,-80.99099731445312 37.159000396728516,-73.02100372314453 57.742000579833984,-50.05500030517578 C79.35600280761719,-25.93899917602539 78.31800079345703,6.9770002365112305 68.11100006103516,31.516000747680664 C53.50400161743164,66.63099670410156 1.593000054359436,80.04499816894531 -41.59299850463867,62.36000061035156 C-60.96500015258789,54.426998138427734 -72.75700378417969,34.88600158691406 -74.13800048828125,21.048999786376953z"></path></g><g opacity="1" transform="matrix(1,0,0,1,98.16000366210938,87.95899963378906)"><path fill="rgb(255,255,255)" fill-opacity="1" d=" M-57.71699905395508,16.746999740600586 C-56.965999603271484,3.8919999599456787 -53.277000427246094,-12.336999893188477 -45.2869987487793,-22.30500030517578 C-38.340999603271484,-30.969999313354492 -30.94700050354004,-38.27299880981445 -16.14299964904785,-43.78900146484375 C8.147000312805176,-52.8390007019043 34.21699905395508,-47.85100173950195 49.97800064086914,-32.43899917602539 C67.46700286865234,-15.336999893188477 69.64399719238281,20.349000930786133 54.553001403808594,41.38600158691406 C36.970001220703125,65.89600372314453 0.006000000052154064,81.24500274658203 -36.292999267578125,58.207000732421875 C-49.292999267578125,49.95600128173828 -58.361000061035156,27.757999420166016 -57.71699905395508,16.746999740600586z"></path></g><g opacity="1" transform="matrix(0.7772586345672607,0,0,0.8520714640617371,67.99308776855469,29.96826934814453)"><g opacity="1" transform="matrix(1,0,0,1,328.6130065917969,144.6199951171875)"><path fill="rgb(22,16,35)" fill-opacity="1" d=" M25.73200035095215,0 C25.73200035095215,12.767000198364258 14.211000442504883,23.117000579833984 0,23.117000579833984 C-14.211000442504883,23.117000579833984 -25.73200035095215,12.767000198364258 -25.73200035095215,0 C-25.73200035095215,-12.767000198364258 -14.211000442504883,-23.117000579833984 0,-23.117000579833984 C14.211000442504883,-23.117000579833984 25.73200035095215,-12.767000198364258 25.73200035095215,0z"></path></g><g opacity="1" transform="matrix(1,0,0,1,336.85198974609375,140.60899353027344)"><path fill="rgb(41,62,94)" fill-opacity="1" d=" M12.449000358581543,0 C12.449000358581543,6.177000045776367 6.875999927520752,11.184000015258789 0,11.184000015258789 C-6.875,11.184000015258789 -12.447999954223633,6.177000045776367 -12.447999954223633,0 C-12.447999954223633,-6.177000045776367 -6.875,-11.184000015258789 0,-11.184000015258789 C6.875999927520752,-11.184000015258789 12.449000358581543,-6.177000045776367 12.449000358581543,0z"></path></g><g opacity="1" transform="matrix(1,0,0,1,308.8160095214844,149.7989959716797)"><path fill="rgb(255,255,255)" fill-opacity="1" d=" M9.758000373840332,-2.306999921798706 C10.58899974822998,1.340000033378601 6.89300012588501,5.328999996185303 1.503999948501587,6.603000164031982 C-3.884000062942505,7.876999855041504 -8.927000045776367,5.953000068664551 -9.758000373840332,2.305999994277954 C-10.58899974822998,-1.340999960899353 -6.894000053405762,-5.329999923706055 -1.5049999952316284,-6.604000091552734 C3.884000062942505,-7.877999782562256 8.927000045776367,-5.953999996185303 9.758000373840332,-2.306999921798706z"></path></g></g><g opacity="0" transform="matrix(1,0,0,1,297.6210021972656,110.4229965209961)"><path fill="rgb(212,214,132)" fill-opacity="1" d=" M-66.85099792480469,-13.041000366210938 C-66.85099792480469,-13.041000366210938 -31.260000228881836,-52.42399978637695 12.437999725341797,-35.32899856567383 C59.71500015258789,-16.833999633789062 63.71699905395508,24.617000579833984 63.71699905395508,24.617000579833984 C63.71699905395508,24.617000579833984 57.750999450683594,-4.21999979019165 41.904998779296875,-19.198999404907227 C21.503000259399414,-38.48500061035156 -4.492000102996826,-42.340999603271484 -26.652000427246094,-38.95600128173828 C-48.8120002746582,-35.57099914550781 -66.85099792480469,-13.041000366210938 -66.85099792480469,-13.041000366210938z"></path><path stroke-linecap="round" stroke-linejoin="round" fill-opacity="0" stroke="rgb(80,100,27)" stroke-opacity="1" stroke-width="12" d=" M-66.85099792480469,-13.041000366210938 C-66.85099792480469,-13.041000366210938 -31.260000228881836,-52.42399978637695 12.437999725341797,-35.32899856567383 C59.71500015258789,-16.833999633789062 63.71699905395508,24.617000579833984 63.71699905395508,24.617000579833984 C63.71699905395508,24.617000579833984 57.750999450683594,-4.21999979019165 41.904998779296875,-19.198999404907227 C21.503000259399414,-38.48500061035156 -4.492000102996826,-42.340999603271484 -26.652000427246094,-38.95600128173828 C-48.8120002746582,-35.57099914550781 -66.85099792480469,-13.041000366210938 -66.85099792480469,-13.041000366210938z"></path></g><g opacity="1" transform="matrix(0.7534500360488892,0,0,0.7534500360488892,11.312217712402344,21.22988510131836)"><g opacity="1" transform="matrix(1,0,0,1,82.18299865722656,77.23100280761719)"><path fill="rgb(22,16,35)" fill-opacity="1" d=" M22.761999130249023,0 C22.761999130249023,13.503000259399414 12.569999694824219,24.450000762939453 -0.0010000000474974513,24.450000762939453 C-12.571999549865723,24.450000762939453 -22.761999130249023,13.503000259399414 -22.761999130249023,0 C-22.761999130249023,-13.503000259399414 -12.571999549865723,-24.450000762939453 -0.0010000000474974513,-24.450000762939453 C12.569999694824219,-24.450000762939453 22.761999130249023,-13.503000259399414 22.761999130249023,0z"></path></g><g opacity="1" transform="matrix(1,0,0,1,90.2959976196289,94.35800170898438)"><path fill="rgb(255,255,255)" fill-opacity="1" d=" M4.50600004196167,-3.131999969482422 C7.51800012588501,1.3639999628067017 7.941999912261963,6.410999774932861 5.453999996185303,8.140000343322754 C2.9660000801086426,9.869999885559082 -1.4919999837875366,7.625999927520752 -4.505000114440918,3.13100004196167 C-7.517000198364258,-1.3650000095367432 -7.941999912261963,-6.410999774932861 -5.453999996185303,-8.140000343322754 C-2.9660000801086426,-9.869999885559082 1.49399995803833,-7.627999782562256 4.50600004196167,-3.131999969482422z"></path></g><g opacity="1" transform="matrix(1,0,0,1,72.86100006103516,77.73999786376953)"><path fill="rgb(41,62,94)" fill-opacity="1" d=" M12.449000358581543,0 C12.449000358581543,6.177000045776367 6.875,11.184000015258789 -0.0010000000474974513,11.184000015258789 C-6.875999927520752,11.184000015258789 -12.449000358581543,6.177000045776367 -12.449000358581543,0 C-12.449000358581543,-6.177000045776367 -6.875999927520752,-11.184000015258789 -0.0010000000474974513,-11.184000015258789 C6.875,-11.184000015258789 12.449000358581543,-6.177000045776367 12.449000358581543,0z"></path></g></g><g opacity="0" transform="matrix(1,0,0,1,116.80999755859375,62.7130012512207)"><path fill="rgb(212,214,132)" fill-opacity="1" d=" M-76.48699951171875,0.47999998927116394 C-76.48699951171875,0.47999998927116394 -39.78499984741211,-42.38999938964844 15.321000099182129,-30.06100082397461 C67.75199890136719,-18.329999923706055 61.86899948120117,36.874000549316406 62.42300033569336,37.720001220703125 C62.97700119018555,38.566001892089844 60.18899917602539,-4.2729997634887695 35.5359992980957,-22.04599952697754 C10.883000373840332,-39.81800079345703 -25.016000747680664,-36.79800033569336 -35.11199951171875,-33.229000091552734 C-62.297000885009766,-23.6200008392334 -76.48699951171875,0.47999998927116394 -76.48699951171875,0.47999998927116394z"></path><path stroke-linecap="round" stroke-linejoin="round" fill-opacity="0" stroke="rgb(80,100,27)" stroke-opacity="1" stroke-width="12" d=" M-76.48699951171875,0.47999998927116394 C-76.48699951171875,0.47999998927116394 -39.78499984741211,-42.38999938964844 15.321000099182129,-30.06100082397461 C67.75199890136719,-18.329999923706055 61.86899948120117,36.874000549316406 62.42300033569336,37.720001220703125 C62.97700119018555,38.566001892089844 60.18899917602539,-4.2729997634887695 35.5359992980957,-22.04599952697754 C10.883000373840332,-39.81800079345703 -25.016000747680664,-36.79800033569336 -35.11199951171875,-33.229000091552734 C-62.297000885009766,-23.6200008392334 -76.48699951171875,0.47999998927116394 -76.48699951171875,0.47999998927116394z"></path></g></g></g><g clip-path="url(#__lottie_element_4)" style="display: none;"><g style="display: none;"><g><path fill="url(#__lottie_element_13)"></path><path stroke-linecap="butt" stroke-linejoin="miter" fill-opacity="0" stroke-miterlimit="10"></path></g><g><path fill="url(#__lottie_element_14)"></path></g></g><g style="display: none;"><g><g><path></path></g><g><path></path><path stroke-linecap="butt" stroke-linejoin="miter" fill-opacity="0" stroke-miterlimit="10"></path></g></g><g><path></path><path stroke-linecap="round" stroke-linejoin="round" fill-opacity="0"></path></g><g><path></path><path stroke-linecap="round" stroke-linejoin="round" fill-opacity="0"></path></g></g><g style="display: none;"><g><path></path></g><g><path></path></g><g><path></path><path stroke-linecap="butt" stroke-linejoin="miter" fill-opacity="0" stroke-miterlimit="10"></path></g><g><path></path><path stroke-linecap="butt" stroke-linejoin="miter" fill-opacity="0" stroke-miterlimit="10"></path></g></g><g style="display: none;"><g><path stroke-linecap="butt" stroke-linejoin="miter" fill-opacity="0" stroke-miterlimit="10"></path></g></g><g style="display: none;"><g><path></path><path stroke-linecap="butt" stroke-linejoin="miter" fill-opacity="0" stroke-miterlimit="10"></path></g><g><path></path><path stroke-linecap="butt" stroke-linejoin="miter" fill-opacity="0" stroke-miterlimit="10"></path></g></g><g style="display: none;"><g><path></path></g><g><path></path></g><g><path stroke-linecap="round" stroke-linejoin="round" fill-opacity="0"></path></g><g><path stroke-linecap="round" stroke-linejoin="round" fill-opacity="0"></path></g><g></g><g><path></path><path stroke-linecap="butt" stroke-linejoin="miter" fill-opacity="0" stroke-miterlimit="10"></path></g><g><path></path></g><g><path></path><path stroke-linecap="butt" stroke-linejoin="miter" fill-opacity="0" stroke-miterlimit="10"></path></g><g><path></path></g><g><g><path></path></g><g><path></path></g><g><path></path></g></g><g><path></path><path stroke-linecap="round" stroke-linejoin="round" fill-opacity="0"></path></g><g><g><path></path></g><g><path></path></g><g><path></path></g></g><g><path></path><path stroke-linecap="round" stroke-linejoin="round" fill-opacity="0"></path></g></g></g></g></svg>