<svg xmlns="http://www.w3.org/2000/svg" xmlns:xlink="http://www.w3.org/1999/xlink" viewBox="0 0 512 512" width="512" height="512" style="width: 100%; height: 100%; transform: translate3d(0,0,0); content-visibility: visible;" preserveAspectRatio="xMidYMid meet"><defs><clipPath id="__lottie_element_2"><rect width="512" height="512" x="0" y="0"></rect></clipPath><radialGradient id="__lottie_element_8" spreadMethod="pad" gradientUnits="userSpaceOnUse" cx="11.756999969482422" cy="-147.0260009765625" r="327.6089156519557" fx="11.756999969482422" fy="-147.0260009765625"><stop offset="22%" stop-color="rgb(249,228,212)"></stop><stop offset="50%" stop-color="rgb(250,211,183)"></stop><stop offset="100%" stop-color="rgb(252,195,153)"></stop></radialGradient><radialGradient id="__lottie_element_9" spreadMethod="pad" gradientUnits="userSpaceOnUse" cx="64.93800354003906" cy="-190.9409942626953" r="485.5387640901931" fx="64.93800354003906" fy="-190.9409942626953"><stop offset="28%" stop-color="rgb(239,163,112)" stop-opacity="0"></stop><stop offset="54%" stop-color="rgb(239,163,112)" stop-opacity="0.5"></stop><stop offset="100%" stop-color="rgb(239,163,112)" stop-opacity="1"></stop></radialGradient><radialGradient id="__lottie_element_15" spreadMethod="pad" gradientUnits="userSpaceOnUse" cx="11.756999969482422" cy="-147.0260009765625" r="327.6089156519557" fx="11.756999969482422" fy="-147.0260009765625"><stop offset="22%" stop-color="rgb(249,228,212)"></stop><stop offset="50%" stop-color="rgb(250,211,183)"></stop><stop offset="100%" stop-color="rgb(252,195,153)"></stop></radialGradient><radialGradient id="__lottie_element_16" spreadMethod="pad" gradientUnits="userSpaceOnUse" cx="64.93800354003906" cy="-190.9409942626953" r="485.5387640901931" fx="64.93800354003906" fy="-190.9409942626953"><stop offset="28%" stop-color="rgb(239,163,112)" stop-opacity="0"></stop><stop offset="54%" stop-color="rgb(239,163,112)" stop-opacity="0.5"></stop><stop offset="100%" stop-color="rgb(239,163,112)" stop-opacity="1"></stop></radialGradient><radialGradient id="__lottie_element_24" spreadMethod="pad" gradientUnits="userSpaceOnUse" cx="80.73400115966797" cy="-94.86199951171875" r="60.75789726550289" fx="80.73400115966797" fy="-94.86199951171875"><stop offset="28%" stop-color="rgb(239,163,112)" stop-opacity="0"></stop><stop offset="54%" stop-color="rgb(239,163,112)" stop-opacity="0.5"></stop><stop offset="100%" stop-color="rgb(239,163,112)" stop-opacity="1"></stop></radialGradient><radialGradient id="__lottie_element_25" spreadMethod="pad" gradientUnits="userSpaceOnUse" cx="-78.0790023803711" cy="-40.87099838256836" r="55.40180031221501" fx="-78.0790023803711" fy="-40.87099838256836"><stop offset="28%" stop-color="rgb(239,163,112)" stop-opacity="0"></stop><stop offset="54%" stop-color="rgb(239,163,112)" stop-opacity="0.5"></stop><stop offset="100%" stop-color="rgb(239,163,112)" stop-opacity="1"></stop></radialGradient><radialGradient id="__lottie_element_40" spreadMethod="pad" gradientUnits="userSpaceOnUse" cx="80.73400115966797" cy="-94.86199951171875" r="60.75789726550289" fx="80.73400115966797" fy="-94.86199951171875"><stop offset="28%" stop-color="rgb(239,163,112)" stop-opacity="0"></stop><stop offset="54%" stop-color="rgb(239,163,112)" stop-opacity="0.5"></stop><stop offset="100%" stop-color="rgb(239,163,112)" stop-opacity="1"></stop></radialGradient><radialGradient id="__lottie_element_41" spreadMethod="pad" gradientUnits="userSpaceOnUse" cx="-78.0790023803711" cy="-40.87099838256836" r="55.40180031221501" fx="-78.0790023803711" fy="-40.87099838256836"><stop offset="28%" stop-color="rgb(239,163,112)" stop-opacity="0"></stop><stop offset="54%" stop-color="rgb(239,163,112)" stop-opacity="0.5"></stop><stop offset="100%" stop-color="rgb(239,163,112)" stop-opacity="1"></stop></radialGradient></defs><g clip-path="url(#__lottie_element_2)"><g style="display: block;" transform="matrix(1,0,0,1,256.00030517578125,255.9998016357422)" opacity="0.31"><g opacity="1" transform="matrix(1,0,0,1,0,0)"><path fill="url(#__lottie_element_8)" fill-opacity="1" d=" M24.96500015258789,209.76600646972656 C-9.925999641418457,211.0260009765625 -100.89199829101562,217.32899475097656 -154.47500610351562,96.3280029296875 C-208.05799865722656,-24.67300033569336 -150.73699951171875,-119.2040023803711 -134.53799438476562,-139.37100219726562 C-118.33899688720703,-159.53799438476562 -42.32500076293945,-227.6009979248047 33.6879997253418,-225.0800018310547 C109.70099639892578,-222.5590057373047 152.06900024414062,-105.33999633789062 168.26800537109375,-61.224998474121094 C184.4669952392578,-17.110000610351562 198.1750030517578,47.172000885009766 167.02200317382812,119.01599884033203 C135.86900329589844,190.86000061035156 63.39400100708008,208.3780059814453 24.96500015258789,209.76600646972656z"></path><path stroke-linecap="round" stroke-linejoin="round" fill-opacity="0" stroke="rgb(186,101,72)" stroke-opacity="1" stroke-width="14.435" d=" M24.96500015258789,209.76600646972656 C-9.925999641418457,211.0260009765625 -100.89199829101562,217.32899475097656 -154.47500610351562,96.3280029296875 C-208.05799865722656,-24.67300033569336 -150.73699951171875,-119.2040023803711 -134.53799438476562,-139.37100219726562 C-118.33899688720703,-159.53799438476562 -42.32500076293945,-227.6009979248047 33.6879997253418,-225.0800018310547 C109.70099639892578,-222.5590057373047 152.06900024414062,-105.33999633789062 168.26800537109375,-61.224998474121094 C184.4669952392578,-17.110000610351562 198.1750030517578,47.172000885009766 167.02200317382812,119.01599884033203 C135.86900329589844,190.86000061035156 63.39400100708008,208.3780059814453 24.96500015258789,209.76600646972656z"></path></g><g opacity="1" transform="matrix(1,0,0,1,0,0)"><path fill="url(#__lottie_element_9)" fill-opacity="1" d=" M-143.44000244140625,-111.96199798583984 C-143.44000244140625,-111.96199798583984 -175.13299560546875,50.77000045776367 -87.572998046875,132.54400634765625 C-8.776000022888184,206.13299560546875 134.63800048828125,177.4499969482422 172.7790069580078,60.459999084472656 C178.65499877929688,62.29199981689453 171.3470001220703,133.63099670410156 109.03399658203125,176.01199340820312 C32.625999450683594,227.97999572753906 -81.43800354003906,208.86900329589844 -132.01699829101562,125.24500274658203 C-208.78900146484375,-1.684999942779541 -143.44000244140625,-111.96199798583984 -143.44000244140625,-111.96199798583984z"></path></g></g><g style="display: block;" transform="matrix(1,0,0,1,256,256)" opacity="1"><g opacity="1" transform="matrix(1,0,0,1,0,0)"><path stroke-linecap="round" stroke-linejoin="round" fill-opacity="0" stroke="rgb(176,176,176)" stroke-opacity="1" stroke-width="14.435" d=" M170.49600219726562,-147.49899291992188 C170.49600219726562,-147.49899291992188 228.19200134277344,-67.77300262451172 212.45700073242188,21.393999099731445"></path></g><g opacity="1" transform="matrix(1,0,0,1,0,0)"><path stroke-linecap="round" stroke-linejoin="round" fill-opacity="0" stroke="rgb(176,176,176)" stroke-opacity="1" stroke-width="14.435" d=" M202.197998046875,-160.3489990234375 C202.197998046875,-160.3489990234375 235.91400146484375,-123.10399627685547 239.0489959716797,-79.99299621582031"></path></g></g><g style="display: block;" transform="matrix(1,0,0,1,256,256)" opacity="1"><g opacity="1" transform="matrix(1,0,0,1,0,0)"><path stroke-linecap="round" stroke-linejoin="round" fill-opacity="0" stroke="rgb(176,176,176)" stroke-opacity="1" stroke-width="14.435" d=" M-207.25399780273438,-41.606998443603516 C-207.25399780273438,-41.606998443603516 -222.39700317382812,49.516998291015625 -176.03399658203125,127.29199981689453"></path></g><g opacity="1" transform="matrix(1,0,0,1,0,0)"><path stroke-linecap="round" stroke-linejoin="round" fill-opacity="0" stroke="rgb(176,176,176)" stroke-opacity="1" stroke-width="14.435" d=" M-233.58599853515625,-14.515999794006348 C-233.58599853515625,-14.515999794006348 -244.718994140625,29.833999633789062 -227.42100524902344,69.4469985961914"></path></g></g><g style="display: none;"><g><path stroke-linecap="round" stroke-linejoin="round" fill-opacity="0"></path></g><g><path stroke-linecap="round" stroke-linejoin="round" fill-opacity="0"></path></g></g><g style="display: none;"><g><path stroke-linecap="round" stroke-linejoin="round" fill-opacity="0"></path></g><g><path stroke-linecap="round" stroke-linejoin="round" fill-opacity="0"></path></g></g><g style="display: none;"><g><path stroke-linecap="round" stroke-linejoin="round" fill-opacity="0"></path></g><g><path stroke-linecap="round" stroke-linejoin="round" fill-opacity="0"></path></g></g><g style="display: none;"><g><path stroke-linecap="round" stroke-linejoin="round" fill-opacity="0"></path></g><g><path stroke-linecap="round" stroke-linejoin="round" fill-opacity="0"></path></g></g><g style="display: none;"><g><path stroke-linecap="round" stroke-linejoin="round" fill-opacity="0"></path></g><g><path stroke-linecap="round" stroke-linejoin="round" fill-opacity="0"></path></g></g><g style="display: none;"><g><path stroke-linecap="round" stroke-linejoin="round" fill-opacity="0"></path></g><g><path stroke-linecap="round" stroke-linejoin="round" fill-opacity="0"></path></g></g><g style="display: none;"><g><path stroke-linecap="round" stroke-linejoin="round" fill-opacity="0"></path></g><g><path stroke-linecap="round" stroke-linejoin="round" fill-opacity="0"></path></g></g><g style="display: none;"><g><path stroke-linecap="round" stroke-linejoin="round" fill-opacity="0"></path></g><g><path stroke-linecap="round" stroke-linejoin="round" fill-opacity="0"></path></g></g><g style="display: none;"><g><path stroke-linecap="round" stroke-linejoin="round" fill-opacity="0"></path></g><g><path stroke-linecap="round" stroke-linejoin="round" fill-opacity="0"></path></g></g><g style="display: none;"><g><path stroke-linecap="round" stroke-linejoin="round" fill-opacity="0"></path></g><g><path stroke-linecap="round" stroke-linejoin="round" fill-opacity="0"></path></g></g><g style="display: none;"><g><path stroke-linecap="round" stroke-linejoin="round" fill-opacity="0"></path></g><g><path stroke-linecap="round" stroke-linejoin="round" fill-opacity="0"></path></g></g><g style="display: none;"><g><path stroke-linecap="round" stroke-linejoin="round" fill-opacity="0"></path></g><g><path stroke-linecap="round" stroke-linejoin="round" fill-opacity="0"></path></g></g><g style="display: none;"><g><path stroke-linecap="round" stroke-linejoin="round" fill-opacity="0"></path></g><g><path stroke-linecap="round" stroke-linejoin="round" fill-opacity="0"></path></g></g><g style="display: none;"><g><path stroke-linecap="round" stroke-linejoin="round" fill-opacity="0"></path></g><g><path stroke-linecap="round" stroke-linejoin="round" fill-opacity="0"></path></g></g><g style="display: block;" transform="matrix(1,0,0,1,256.00030517578125,255.9998016357422)" opacity="1"><g opacity="1" transform="matrix(1,0,0,1,0,0)"><path fill="url(#__lottie_element_15)" fill-opacity="1" d=" M24.96500015258789,209.76600646972656 C-9.925999641418457,211.0260009765625 -100.89199829101562,217.32899475097656 -154.47500610351562,96.3280029296875 C-208.05799865722656,-24.67300033569336 -150.73699951171875,-119.2040023803711 -134.53799438476562,-139.37100219726562 C-118.33899688720703,-159.53799438476562 -42.32500076293945,-227.6009979248047 33.6879997253418,-225.0800018310547 C109.70099639892578,-222.5590057373047 152.06900024414062,-105.33999633789062 168.26800537109375,-61.224998474121094 C184.4669952392578,-17.110000610351562 198.1750030517578,47.172000885009766 167.02200317382812,119.01599884033203 C135.86900329589844,190.86000061035156 63.39400100708008,208.3780059814453 24.96500015258789,209.76600646972656z"></path><path stroke-linecap="round" stroke-linejoin="round" fill-opacity="0" stroke="rgb(186,101,72)" stroke-opacity="1" stroke-width="14.435" d=" M24.96500015258789,209.76600646972656 C-9.925999641418457,211.0260009765625 -100.89199829101562,217.32899475097656 -154.47500610351562,96.3280029296875 C-208.05799865722656,-24.67300033569336 -150.73699951171875,-119.2040023803711 -134.53799438476562,-139.37100219726562 C-118.33899688720703,-159.53799438476562 -42.32500076293945,-227.6009979248047 33.6879997253418,-225.0800018310547 C109.70099639892578,-222.5590057373047 152.06900024414062,-105.33999633789062 168.26800537109375,-61.224998474121094 C184.4669952392578,-17.110000610351562 198.1750030517578,47.172000885009766 167.02200317382812,119.01599884033203 C135.86900329589844,190.86000061035156 63.39400100708008,208.3780059814453 24.96500015258789,209.76600646972656z"></path></g><g opacity="1" transform="matrix(1,0,0,1,0,0)"><path fill="url(#__lottie_element_16)" fill-opacity="1" d=" M-143.44000244140625,-111.96199798583984 C-143.44000244140625,-111.96199798583984 -175.13299560546875,50.77000045776367 -87.572998046875,132.54400634765625 C-8.776000022888184,206.13299560546875 134.63800048828125,177.4499969482422 172.7790069580078,60.459999084472656 C178.65499877929688,62.29199981689453 171.3470001220703,133.63099670410156 109.03399658203125,176.01199340820312 C32.625999450683594,227.97999572753906 -81.43800354003906,208.86900329589844 -132.01699829101562,125.24500274658203 C-208.78900146484375,-1.684999942779541 -143.44000244140625,-111.96199798583984 -143.44000244140625,-111.96199798583984z"></path></g></g><g style="display: block;" transform="matrix(1,0,0,1,256.00079345703125,257.4998474121094)" opacity="0.4"><g opacity="1" transform="matrix(1,0,0,1,0,0)"><path fill="url(#__lottie_element_40)" fill-opacity="1" d=" M40.78099822998047,-47.36800003051758 C32.7140007019043,-53.5260009765625 13.36299991607666,-73.04499816894531 15.232000350952148,-92.58200073242188 C17.10099983215332,-112.11900329589844 42.02299880981445,-144.25999450683594 61.96099853515625,-148.67100524902344 C81.89900207519531,-153.08200073242188 108.06700134277344,-119.68099975585938 118.65899658203125,-103.9260025024414 C129.25100708007812,-88.1709976196289 140.46600341796875,-52.87799835205078 113.67500305175781,-34.60200119018555 C86.88400268554688,-16.326000213623047 58.02000045776367,-34.20899963378906 40.78099822998047,-47.36800003051758z"></path></g><g opacity="1" transform="matrix(1,0,0,1,0,0)"><path fill="url(#__lottie_element_41)" fill-opacity="1" d=" M-78.27200317382812,-89.1989974975586 C-43.40299987792969,-86.37699890136719 -27.804000854492188,-73.44300079345703 -27.180999755859375,-52.01599884033203 C-26.558000564575195,-30.589000701904297 -52.72600173950195,11.003999710083008 -84.50199890136719,18.566999435424805 C-116.27799987792969,26.1299991607666 -129.36300659179688,-3.490000009536743 -133.1009979248047,-23.656999588012695 C-136.83900451660156,-43.82400131225586 -125.0009994506836,-92.9800033569336 -78.27200317382812,-89.1989974975586z"></path></g><g opacity="1" transform="matrix(1,0,0,1,0,0)"><path fill="rgb(255,255,255)" fill-opacity="1" d=" M25.416000366210938,-90.53399658203125 C19.707000732421875,-115.83100128173828 45.43199920654297,-151.43600463867188 65.37000274658203,-155.8470001220703 C85.30799865722656,-160.25799560546875 116.59400177001953,-127.26399993896484 127.18599700927734,-111.50900268554688 C137.7779998779297,-95.75399780273438 144.72500610351562,-61.696998596191406 117.93399810791016,-43.42100143432617 C91.14299774169922,-25.145000457763672 32.11600112915039,-60.84700012207031 25.416000366210938,-90.53399658203125z"></path></g><g opacity="1" transform="matrix(1,0,0,1,0,0)"><path fill="rgb(255,255,255)" fill-opacity="1" d=" M-76.59300231933594,-106.5999984741211 C-43.676998138427734,-100.96900177001953 -26.035999298095703,-89.79499816894531 -25.413000106811523,-68.36799621582031 C-24.790000915527344,-46.941001892089844 -51.04800033569336,-6.396999835968018 -82.8239974975586,1.1660000085830688 C-114.5999984741211,8.729000091552734 -127.68399810791016,-20.891000747680664 -131.4219970703125,-41.05799865722656 C-135.16000366210938,-61.224998474121094 -122.81500244140625,-114.50700378417969 -76.59300231933594,-106.5999984741211z"></path></g><g opacity="1" transform="matrix(1,0,0,1,0,0)"><path fill="rgb(205,197,231)" fill-opacity="1" d=" M31.332000732421875,-84.63800048828125 C31.332000732421875,-84.63800048828125 62.319000244140625,-46.481998443603516 97.06400299072266,-55.87099838256836 C156.75,-72 107.80599975585938,-125.17400360107422 107.80599975585938,-125.17400360107422 C107.80599975585938,-125.17400360107422 141.81500244140625,-93.93499755859375 128.57899475097656,-62.138999938964844 C115.34300231933594,-30.343000411987305 73.61299896240234,-45.40399932861328 60.37699890136719,-53.2140007019043 C47.14099884033203,-61.02399826049805 31.332000732421875,-84.63800048828125 31.332000732421875,-84.63800048828125z"></path></g><g opacity="1" transform="matrix(1,0,0,1,0,0)"><path fill="rgb(205,197,231)" fill-opacity="1" d=" M-128.42599487304688,-43.19200134277344 C-128.42599487304688,-43.19200134277344 -112.90499877929688,-18.924999237060547 -95.24600219726562,-18.3799991607666 C-49.236000061035156,-16.959999084472656 -30.804000854492188,-65.48600006103516 -30.804000854492188,-65.48600006103516 C-30.804000854492188,-65.48600006103516 -39.5,12.25 -104.24400329589844,-1.6059999465942383 C-121.4990005493164,-5.298999786376953 -128.42599487304688,-43.19200134277344 -128.42599487304688,-43.19200134277344z"></path></g><g opacity="1" transform="matrix(1,0,0,1,0,0)"><g opacity="1" transform="matrix(1,0,0,1,0,0)"><path fill="rgb(24,6,45)" fill-opacity="1" d=" M-72.02200317382812,-56.064998626708984 C-72.02200317382812,-43.86899948120117 -82.06400299072266,-41.176998138427734 -93.56099700927734,-41.176998138427734 C-105.05799865722656,-41.176998138427734 -114.00399780273438,-46.63399887084961 -114.00399780273438,-58.83000183105469 C-114.00399780273438,-71.0260009765625 -104.62300109863281,-82.10600280761719 -93.18699645996094,-80.91300201416016 C-77.76599884033203,-79.30400085449219 -72.02200317382812,-68.26100158691406 -72.02200317382812,-56.064998626708984z"></path></g><g opacity="1" transform="matrix(1,0,0,1,0,0)"><path fill="rgb(255,255,255)" fill-opacity="1" d=" M-103.79900360107422,-75.81300354003906 C-101.79000091552734,-71.47000122070312 -102.96299743652344,-66.6240005493164 -106.41899871826172,-64.98799896240234 C-109.875,-63.35200119018555 -114.30500030517578,-65.5469970703125 -116.31400299072266,-69.88999938964844 C-118.322998046875,-74.23300170898438 -117.1500015258789,-79.0790023803711 -113.69400024414062,-80.71499633789062 C-110.23799896240234,-82.35099792480469 -105.80799865722656,-80.15599822998047 -103.79900360107422,-75.81300354003906z"></path></g></g><g opacity="1" transform="matrix(1,0,0,1,0,0)"><g opacity="1" transform="matrix(1,0,0,1,0,0)"><path fill="rgb(24,6,45)" fill-opacity="1" d=" M114.76599884033203,-93.21499633789062 C110.01699829101562,-82.00499725341797 99.73899841308594,-83.53199768066406 89.1709976196289,-88.11199951171875 C78.60299682617188,-92.69200134277344 72.50499725341797,-101.27200317382812 77.25399780273438,-112.48200225830078 C82.00299835205078,-123.69200134277344 94.72799682617188,-129.74400329589844 104.98799896240234,-124.48699951171875 C135.3780059814453,-108.91600036621094 119.51499938964844,-104.42500305175781 114.76599884033203,-93.21499633789062z"></path></g><g opacity="1" transform="matrix(1,0,0,1,0,0)"><path fill="rgb(255,255,255)" fill-opacity="1" d=" M93.24800109863281,-124.0270004272461 C93.40299987792969,-119.23500061035156 90.43800354003906,-115.24800109863281 86.6240005493164,-115.12100219726562 C82.80999755859375,-114.99400329589844 79.59300231933594,-118.7760009765625 79.43800354003906,-123.56800079345703 C79.28299713134766,-128.36000061035156 82.24700164794922,-132.3470001220703 86.06099700927734,-132.4739990234375 C89.875,-132.6009979248047 93.09300231933594,-128.81900024414062 93.24800109863281,-124.0270004272461z"></path></g></g><g opacity="1" transform="matrix(1,0,0,1,0,0)"><path stroke-linecap="round" stroke-linejoin="round" fill-opacity="0" stroke="rgb(122,59,46)" stroke-opacity="1" stroke-width="11.855" d=" M25.416000366210938,-90.53399658203125 C19.707000732421875,-115.83100128173828 45.43199920654297,-151.43600463867188 65.37000274658203,-155.8470001220703 C85.30799865722656,-160.25799560546875 116.59400177001953,-127.26399993896484 127.18599700927734,-111.50900268554688 C137.7779998779297,-95.75399780273438 144.72500610351562,-61.696998596191406 117.93399810791016,-43.42100143432617 C91.14299774169922,-25.145000457763672 32.11600112915039,-60.84700012207031 25.416000366210938,-90.53399658203125z"></path></g><g opacity="1" transform="matrix(1,0,0,1,0,0)"><path stroke-linecap="round" stroke-linejoin="round" fill-opacity="0" stroke="rgb(122,59,46)" stroke-opacity="1" stroke-width="11.855" d=" M-76.59300231933594,-106.5999984741211 C-43.676998138427734,-100.96900177001953 -26.035999298095703,-89.79499816894531 -25.413000106811523,-68.36799621582031 C-24.790000915527344,-46.941001892089844 -51.04800033569336,-6.396999835968018 -82.8239974975586,1.1660000085830688 C-114.5999984741211,8.729000091552734 -127.68399810791016,-20.891000747680664 -131.4219970703125,-41.05799865722656 C-135.16000366210938,-61.224998474121094 -122.81500244140625,-114.50700378417969 -76.59300231933594,-106.5999984741211z"></path></g><g opacity="1" transform="matrix(1,0,0,1,0,0)"><path fill="rgb(86,42,30)" fill-opacity="1" d=" M-154.96600341796875,-150.86599731445312 C-154.96600341796875,-150.86599731445312 -119.31199645996094,-160.56300354003906 -95.63600158691406,-143.33700561523438 C-71.95999908447266,-126.11100006103516 -55.345001220703125,-104.26300048828125 -48.284000396728516,-95.0199966430664 C-41.222999572753906,-85.7770004272461 -36.84299850463867,-78.63800048828125 -31.858999252319336,-84.94000244140625 C-26.875,-91.24199676513672 -28.753000259399414,-93.03500366210938 -31.05699920654297,-96.53099822998047 C-33.922000885009766,-100.87799835205078 -36.694000244140625,-102.62699890136719 -47.172000885009766,-108.48400115966797 C-47.172000885009766,-108.48400115966797 -64.86299896240234,-124.03199768066406 -69.01699829101562,-129.49400329589844 C-73.1709976196289,-134.95599365234375 -52.02199935913086,-129.052001953125 -54.0989990234375,-137.4550018310547 C-56.17599868774414,-145.85800170898438 -67.53900146484375,-148.25100708007812 -74.5999984741211,-149.09100341796875 C-81.66100311279297,-149.93099975585938 -92.24800109863281,-152.43800354003906 -92.24800109863281,-152.43800354003906 C-92.24800109863281,-152.43800354003906 -114.94599914550781,-174.6060028076172 -126.99199676513672,-175.86599731445312 C-139.03799438476562,-177.12600708007812 -130.52699279785156,-166.86399841308594 -130.52699279785156,-166.86399841308594 C-130.52699279785156,-166.86399841308594 -123.05000305175781,-163.5030059814453 -123.05000305175781,-163.5030059814453 C-123.05000305175781,-163.5030059814453 -131.7729949951172,-168.125 -144.64999389648438,-165.1840057373047 C-157.52699279785156,-162.2429962158203 -162.66900634765625,-158.7050018310547 -162.01199340820312,-153.83200073242188 C-161.18499755859375,-147.6959991455078 -154.96600341796875,-150.86599731445312 -154.96600341796875,-150.86599731445312z"></path><path stroke-linecap="round" stroke-linejoin="round" fill-opacity="0" stroke="rgb(56,36,33)" stroke-opacity="1" stroke-width="8.892" d=" M-154.96600341796875,-150.86599731445312 C-154.96600341796875,-150.86599731445312 -119.31199645996094,-160.56300354003906 -95.63600158691406,-143.33700561523438 C-71.95999908447266,-126.11100006103516 -55.345001220703125,-104.26300048828125 -48.284000396728516,-95.0199966430664 C-41.222999572753906,-85.7770004272461 -36.84299850463867,-78.63800048828125 -31.858999252319336,-84.94000244140625 C-26.875,-91.24199676513672 -28.753000259399414,-93.03500366210938 -31.05699920654297,-96.53099822998047 C-33.922000885009766,-100.87799835205078 -36.694000244140625,-102.62699890136719 -47.172000885009766,-108.48400115966797 C-47.172000885009766,-108.48400115966797 -64.86299896240234,-124.03199768066406 -69.01699829101562,-129.49400329589844 C-73.1709976196289,-134.95599365234375 -52.02199935913086,-129.052001953125 -54.0989990234375,-137.4550018310547 C-56.17599868774414,-145.85800170898438 -67.53900146484375,-148.25100708007812 -74.5999984741211,-149.09100341796875 C-81.66100311279297,-149.93099975585938 -92.24800109863281,-152.43800354003906 -92.24800109863281,-152.43800354003906 C-92.24800109863281,-152.43800354003906 -114.94599914550781,-174.6060028076172 -126.99199676513672,-175.86599731445312 C-139.03799438476562,-177.12600708007812 -130.52699279785156,-166.86399841308594 -130.52699279785156,-166.86399841308594 C-130.52699279785156,-166.86399841308594 -123.05000305175781,-163.5030059814453 -123.05000305175781,-163.5030059814453 C-123.05000305175781,-163.5030059814453 -131.7729949951172,-168.125 -144.64999389648438,-165.1840057373047 C-157.52699279785156,-162.2429962158203 -162.66900634765625,-158.7050018310547 -162.01199340820312,-153.83200073242188 C-161.18499755859375,-147.6959991455078 -154.96600341796875,-150.86599731445312 -154.96600341796875,-150.86599731445312z"></path></g><g opacity="1" transform="matrix(1,0,0,1,0,0)"><path fill="rgb(86,42,30)" fill-opacity="1" d=" M88.29000091552734,-229.74200439453125 C88.29000091552734,-229.74200439453125 74.677001953125,-229.93899536132812 61.073001861572266,-222.4980010986328 C49.58599853515625,-216.21499633789062 37.99700164794922,-202.93699645996094 35.71500015258789,-195.2429962158203 C30.731000900268555,-178.43699645996094 34.88399887084961,-172.55599975585938 27.406999588012695,-161.21200561523438 C19.93000030517578,-149.8679962158203 15.776000022888184,-148.60800170898438 14.114999771118164,-136.4239959716797 C12.454000473022461,-124.23999786376953 15.777000427246094,-108.69400024414062 5.39300012588501,-110.79499816894531 C-4.991000175476074,-112.89600372314453 -12.005000114440918,-135.17100524902344 -4.105000019073486,-152.58700561523438 C3.1059999465942383,-168.48399353027344 1.6549999713897705,-173.39599609375 2.069999933242798,-181.37899780273438 C2.484999895095825,-189.36199951171875 2.069999933242798,-194.82400512695312 5.808000087738037,-196.08399963378906 C9.545999526977539,-197.343994140625 19.514999389648438,-194.4029998779297 19.514999389648438,-194.4029998779297 C19.514999389648438,-194.4029998779297 19.100000381469727,-209.5279998779297 25.746000289916992,-220.03199768066406 C32.391998291015625,-230.53599548339844 30.315000534057617,-234.73599243164062 35.29899978637695,-234.3159942626953 C40.28300094604492,-233.89599609375 35.29899978637695,-212.0489959716797 35.29899978637695,-212.0489959716797 C35.29899978637695,-212.0489959716797 53.816001892089844,-233.95599365234375 70.60600280761719,-236.83700561523438 C92.58799743652344,-240.60899353027344 88.29000091552734,-229.74200439453125 88.29000091552734,-229.74200439453125z"></path><path stroke-linecap="round" stroke-linejoin="round" fill-opacity="0" stroke="rgb(56,36,33)" stroke-opacity="1" stroke-width="8.892" d=" M88.29000091552734,-229.74200439453125 C88.29000091552734,-229.74200439453125 74.677001953125,-229.93899536132812 61.073001861572266,-222.4980010986328 C49.58599853515625,-216.21499633789062 37.99700164794922,-202.93699645996094 35.71500015258789,-195.2429962158203 C30.731000900268555,-178.43699645996094 34.88399887084961,-172.55599975585938 27.406999588012695,-161.21200561523438 C19.93000030517578,-149.8679962158203 15.776000022888184,-148.60800170898438 14.114999771118164,-136.4239959716797 C12.454000473022461,-124.23999786376953 15.777000427246094,-108.69400024414062 5.39300012588501,-110.79499816894531 C-4.991000175476074,-112.89600372314453 -12.005000114440918,-135.17100524902344 -4.105000019073486,-152.58700561523438 C3.1059999465942383,-168.48399353027344 1.6549999713897705,-173.39599609375 2.069999933242798,-181.37899780273438 C2.484999895095825,-189.36199951171875 2.069999933242798,-194.82400512695312 5.808000087738037,-196.08399963378906 C9.545999526977539,-197.343994140625 19.514999389648438,-194.4029998779297 19.514999389648438,-194.4029998779297 C19.514999389648438,-194.4029998779297 19.100000381469727,-209.5279998779297 25.746000289916992,-220.03199768066406 C32.391998291015625,-230.53599548339844 30.315000534057617,-234.73599243164062 35.29899978637695,-234.3159942626953 C40.28300094604492,-233.89599609375 35.29899978637695,-212.0489959716797 35.29899978637695,-212.0489959716797 C35.29899978637695,-212.0489959716797 53.816001892089844,-233.95599365234375 70.60600280761719,-236.83700561523438 C92.58799743652344,-240.60899353027344 88.29000091552734,-229.74200439453125 88.29000091552734,-229.74200439453125z"></path></g></g><g style="display: block;" transform="matrix(1,0,0,1,256.00079345703125,257.4998474121094)" opacity="1"><g opacity="1" transform="matrix(1,0,0,1,0,0)"><path fill="url(#__lottie_element_24)" fill-opacity="1" d=" M40.78099822998047,-47.36800003051758 C32.7140007019043,-53.5260009765625 13.36299991607666,-73.04499816894531 15.232000350952148,-92.58200073242188 C17.10099983215332,-112.11900329589844 42.02299880981445,-144.25999450683594 61.96099853515625,-148.67100524902344 C81.89900207519531,-153.08200073242188 108.06700134277344,-119.68099975585938 118.65899658203125,-103.9260025024414 C129.25100708007812,-88.1709976196289 140.46600341796875,-52.87799835205078 113.67500305175781,-34.60200119018555 C86.88400268554688,-16.326000213623047 58.02000045776367,-34.20899963378906 40.78099822998047,-47.36800003051758z"></path></g><g opacity="1" transform="matrix(1,0,0,1,0,0)"><path fill="url(#__lottie_element_25)" fill-opacity="1" d=" M-78.27200317382812,-89.1989974975586 C-43.40299987792969,-86.37699890136719 -27.804000854492188,-73.44300079345703 -27.180999755859375,-52.01599884033203 C-26.558000564575195,-30.589000701904297 -52.72600173950195,11.003999710083008 -84.50199890136719,18.566999435424805 C-116.27799987792969,26.1299991607666 -129.36300659179688,-3.490000009536743 -133.1009979248047,-23.656999588012695 C-136.83900451660156,-43.82400131225586 -125.0009994506836,-92.9800033569336 -78.27200317382812,-89.1989974975586z"></path></g><g opacity="1" transform="matrix(1,0,0,1,0,0)"><path fill="rgb(255,255,255)" fill-opacity="1" d=" M25.416000366210938,-90.53399658203125 C19.707000732421875,-115.83100128173828 45.43199920654297,-151.43600463867188 65.37000274658203,-155.8470001220703 C85.30799865722656,-160.25799560546875 116.59400177001953,-127.26399993896484 127.18599700927734,-111.50900268554688 C137.7779998779297,-95.75399780273438 144.72500610351562,-61.696998596191406 117.93399810791016,-43.42100143432617 C91.14299774169922,-25.145000457763672 32.11600112915039,-60.84700012207031 25.416000366210938,-90.53399658203125z"></path></g><g opacity="1" transform="matrix(1,0,0,1,0,0)"><path fill="rgb(255,255,255)" fill-opacity="1" d=" M-76.59300231933594,-106.5999984741211 C-43.676998138427734,-100.96900177001953 -26.035999298095703,-89.79499816894531 -25.413000106811523,-68.36799621582031 C-24.790000915527344,-46.941001892089844 -51.04800033569336,-6.396999835968018 -82.8239974975586,1.1660000085830688 C-114.5999984741211,8.729000091552734 -127.68399810791016,-20.891000747680664 -131.4219970703125,-41.05799865722656 C-135.16000366210938,-61.224998474121094 -122.81500244140625,-114.50700378417969 -76.59300231933594,-106.5999984741211z"></path></g><g opacity="1" transform="matrix(1,0,0,1,0,0)"><path fill="rgb(205,197,231)" fill-opacity="1" d=" M31.332000732421875,-84.63800048828125 C31.332000732421875,-84.63800048828125 62.319000244140625,-46.481998443603516 97.06400299072266,-55.87099838256836 C156.75,-72 107.80599975585938,-125.17400360107422 107.80599975585938,-125.17400360107422 C107.80599975585938,-125.17400360107422 141.81500244140625,-93.93499755859375 128.57899475097656,-62.138999938964844 C115.34300231933594,-30.343000411987305 73.61299896240234,-45.40399932861328 60.37699890136719,-53.2140007019043 C47.14099884033203,-61.02399826049805 31.332000732421875,-84.63800048828125 31.332000732421875,-84.63800048828125z"></path></g><g opacity="1" transform="matrix(1,0,0,1,0,0)"><path fill="rgb(205,197,231)" fill-opacity="1" d=" M-128.42599487304688,-43.19200134277344 C-128.42599487304688,-43.19200134277344 -112.90499877929688,-18.924999237060547 -95.24600219726562,-18.3799991607666 C-49.236000061035156,-16.959999084472656 -30.804000854492188,-65.48600006103516 -30.804000854492188,-65.48600006103516 C-30.804000854492188,-65.48600006103516 -39.5,12.25 -104.24400329589844,-1.6059999465942383 C-121.4990005493164,-5.298999786376953 -128.42599487304688,-43.19200134277344 -128.42599487304688,-43.19200134277344z"></path></g><g opacity="1" transform="matrix(1,0,0,1,0,0)"><g opacity="1" transform="matrix(1,0,0,1,0,0)"><path fill="rgb(24,6,45)" fill-opacity="1" d=" M-72.02200317382812,-56.064998626708984 C-72.02200317382812,-43.86899948120117 -82.06400299072266,-41.176998138427734 -93.56099700927734,-41.176998138427734 C-105.05799865722656,-41.176998138427734 -114.00399780273438,-46.63399887084961 -114.00399780273438,-58.83000183105469 C-114.00399780273438,-71.0260009765625 -104.62300109863281,-82.10600280761719 -93.18699645996094,-80.91300201416016 C-77.76599884033203,-79.30400085449219 -72.02200317382812,-68.26100158691406 -72.02200317382812,-56.064998626708984z"></path></g><g opacity="1" transform="matrix(1,0,0,1,0,0)"><path fill="rgb(255,255,255)" fill-opacity="1" d=" M-103.79900360107422,-75.81300354003906 C-101.79000091552734,-71.47000122070312 -102.96299743652344,-66.6240005493164 -106.41899871826172,-64.98799896240234 C-109.875,-63.35200119018555 -114.30500030517578,-65.5469970703125 -116.31400299072266,-69.88999938964844 C-118.322998046875,-74.23300170898438 -117.1500015258789,-79.0790023803711 -113.69400024414062,-80.71499633789062 C-110.23799896240234,-82.35099792480469 -105.80799865722656,-80.15599822998047 -103.79900360107422,-75.81300354003906z"></path></g></g><g opacity="1" transform="matrix(1,0,0,1,0,0)"><g opacity="1" transform="matrix(1,0,0,1,0,0)"><path fill="rgb(24,6,45)" fill-opacity="1" d=" M114.76599884033203,-93.21499633789062 C110.01699829101562,-82.00499725341797 99.73899841308594,-83.53199768066406 89.1709976196289,-88.11199951171875 C78.60299682617188,-92.69200134277344 72.50499725341797,-101.27200317382812 77.25399780273438,-112.48200225830078 C82.00299835205078,-123.69200134277344 94.72799682617188,-129.74400329589844 104.98799896240234,-124.48699951171875 C135.3780059814453,-108.91600036621094 119.51499938964844,-104.42500305175781 114.76599884033203,-93.21499633789062z"></path></g><g opacity="1" transform="matrix(1,0,0,1,0,0)"><path fill="rgb(255,255,255)" fill-opacity="1" d=" M93.24800109863281,-124.0270004272461 C93.40299987792969,-119.23500061035156 90.43800354003906,-115.24800109863281 86.6240005493164,-115.12100219726562 C82.80999755859375,-114.99400329589844 79.59300231933594,-118.7760009765625 79.43800354003906,-123.56800079345703 C79.28299713134766,-128.36000061035156 82.24700164794922,-132.3470001220703 86.06099700927734,-132.4739990234375 C89.875,-132.6009979248047 93.09300231933594,-128.81900024414062 93.24800109863281,-124.0270004272461z"></path></g></g><g opacity="1" transform="matrix(1,0,0,1,0,0)"><path stroke-linecap="round" stroke-linejoin="round" fill-opacity="0" stroke="rgb(122,59,46)" stroke-opacity="1" stroke-width="11.855" d=" M25.416000366210938,-90.53399658203125 C19.707000732421875,-115.83100128173828 45.43199920654297,-151.43600463867188 65.37000274658203,-155.8470001220703 C85.30799865722656,-160.25799560546875 116.59400177001953,-127.26399993896484 127.18599700927734,-111.50900268554688 C137.7779998779297,-95.75399780273438 144.72500610351562,-61.696998596191406 117.93399810791016,-43.42100143432617 C91.14299774169922,-25.145000457763672 32.11600112915039,-60.84700012207031 25.416000366210938,-90.53399658203125z"></path></g><g opacity="1" transform="matrix(1,0,0,1,0,0)"><path stroke-linecap="round" stroke-linejoin="round" fill-opacity="0" stroke="rgb(122,59,46)" stroke-opacity="1" stroke-width="11.855" d=" M-76.59300231933594,-106.5999984741211 C-43.676998138427734,-100.96900177001953 -26.035999298095703,-89.79499816894531 -25.413000106811523,-68.36799621582031 C-24.790000915527344,-46.941001892089844 -51.04800033569336,-6.396999835968018 -82.8239974975586,1.1660000085830688 C-114.5999984741211,8.729000091552734 -127.68399810791016,-20.891000747680664 -131.4219970703125,-41.05799865722656 C-135.16000366210938,-61.224998474121094 -122.81500244140625,-114.50700378417969 -76.59300231933594,-106.5999984741211z"></path></g><g opacity="1" transform="matrix(1,0,0,1,0,0)"><path fill="rgb(86,42,30)" fill-opacity="1" d=" M-154.96600341796875,-150.86599731445312 C-154.96600341796875,-150.86599731445312 -119.31199645996094,-160.56300354003906 -95.63600158691406,-143.33700561523438 C-71.95999908447266,-126.11100006103516 -55.345001220703125,-104.26300048828125 -48.284000396728516,-95.0199966430664 C-41.222999572753906,-85.7770004272461 -36.84299850463867,-78.63800048828125 -31.858999252319336,-84.94000244140625 C-26.875,-91.24199676513672 -28.753000259399414,-93.03500366210938 -31.05699920654297,-96.53099822998047 C-33.922000885009766,-100.87799835205078 -36.694000244140625,-102.62699890136719 -47.172000885009766,-108.48400115966797 C-47.172000885009766,-108.48400115966797 -64.86299896240234,-124.03199768066406 -69.01699829101562,-129.49400329589844 C-73.1709976196289,-134.95599365234375 -52.02199935913086,-129.052001953125 -54.0989990234375,-137.4550018310547 C-56.17599868774414,-145.85800170898438 -67.53900146484375,-148.25100708007812 -74.5999984741211,-149.09100341796875 C-81.66100311279297,-149.93099975585938 -92.24800109863281,-152.43800354003906 -92.24800109863281,-152.43800354003906 C-92.24800109863281,-152.43800354003906 -114.94599914550781,-174.6060028076172 -126.99199676513672,-175.86599731445312 C-139.03799438476562,-177.12600708007812 -130.52699279785156,-166.86399841308594 -130.52699279785156,-166.86399841308594 C-130.52699279785156,-166.86399841308594 -123.05000305175781,-163.5030059814453 -123.05000305175781,-163.5030059814453 C-123.05000305175781,-163.5030059814453 -131.7729949951172,-168.125 -144.64999389648438,-165.1840057373047 C-157.52699279785156,-162.2429962158203 -162.66900634765625,-158.7050018310547 -162.01199340820312,-153.83200073242188 C-161.18499755859375,-147.6959991455078 -154.96600341796875,-150.86599731445312 -154.96600341796875,-150.86599731445312z"></path><path stroke-linecap="round" stroke-linejoin="round" fill-opacity="0" stroke="rgb(56,36,33)" stroke-opacity="1" stroke-width="8.892" d=" M-154.96600341796875,-150.86599731445312 C-154.96600341796875,-150.86599731445312 -119.31199645996094,-160.56300354003906 -95.63600158691406,-143.33700561523438 C-71.95999908447266,-126.11100006103516 -55.345001220703125,-104.26300048828125 -48.284000396728516,-95.0199966430664 C-41.222999572753906,-85.7770004272461 -36.84299850463867,-78.63800048828125 -31.858999252319336,-84.94000244140625 C-26.875,-91.24199676513672 -28.753000259399414,-93.03500366210938 -31.05699920654297,-96.53099822998047 C-33.922000885009766,-100.87799835205078 -36.694000244140625,-102.62699890136719 -47.172000885009766,-108.48400115966797 C-47.172000885009766,-108.48400115966797 -64.86299896240234,-124.03199768066406 -69.01699829101562,-129.49400329589844 C-73.1709976196289,-134.95599365234375 -52.02199935913086,-129.052001953125 -54.0989990234375,-137.4550018310547 C-56.17599868774414,-145.85800170898438 -67.53900146484375,-148.25100708007812 -74.5999984741211,-149.09100341796875 C-81.66100311279297,-149.93099975585938 -92.24800109863281,-152.43800354003906 -92.24800109863281,-152.43800354003906 C-92.24800109863281,-152.43800354003906 -114.94599914550781,-174.6060028076172 -126.99199676513672,-175.86599731445312 C-139.03799438476562,-177.12600708007812 -130.52699279785156,-166.86399841308594 -130.52699279785156,-166.86399841308594 C-130.52699279785156,-166.86399841308594 -123.05000305175781,-163.5030059814453 -123.05000305175781,-163.5030059814453 C-123.05000305175781,-163.5030059814453 -131.7729949951172,-168.125 -144.64999389648438,-165.1840057373047 C-157.52699279785156,-162.2429962158203 -162.66900634765625,-158.7050018310547 -162.01199340820312,-153.83200073242188 C-161.18499755859375,-147.6959991455078 -154.96600341796875,-150.86599731445312 -154.96600341796875,-150.86599731445312z"></path></g><g opacity="1" transform="matrix(1,0,0,1,0,0)"><path fill="rgb(86,42,30)" fill-opacity="1" d=" M88.29000091552734,-229.74200439453125 C88.29000091552734,-229.74200439453125 74.677001953125,-229.93899536132812 61.073001861572266,-222.4980010986328 C49.58599853515625,-216.21499633789062 37.99700164794922,-202.93699645996094 35.71500015258789,-195.2429962158203 C30.731000900268555,-178.43699645996094 34.88399887084961,-172.55599975585938 27.406999588012695,-161.21200561523438 C19.93000030517578,-149.8679962158203 15.776000022888184,-148.60800170898438 14.114999771118164,-136.4239959716797 C12.454000473022461,-124.23999786376953 15.777000427246094,-108.69400024414062 5.39300012588501,-110.79499816894531 C-4.991000175476074,-112.89600372314453 -12.005000114440918,-135.17100524902344 -4.105000019073486,-152.58700561523438 C3.1059999465942383,-168.48399353027344 1.6549999713897705,-173.39599609375 2.069999933242798,-181.37899780273438 C2.484999895095825,-189.36199951171875 2.069999933242798,-194.82400512695312 5.808000087738037,-196.08399963378906 C9.545999526977539,-197.343994140625 19.514999389648438,-194.4029998779297 19.514999389648438,-194.4029998779297 C19.514999389648438,-194.4029998779297 19.100000381469727,-209.5279998779297 25.746000289916992,-220.03199768066406 C32.391998291015625,-230.53599548339844 30.315000534057617,-234.73599243164062 35.29899978637695,-234.3159942626953 C40.28300094604492,-233.89599609375 35.29899978637695,-212.0489959716797 35.29899978637695,-212.0489959716797 C35.29899978637695,-212.0489959716797 53.816001892089844,-233.95599365234375 70.60600280761719,-236.83700561523438 C92.58799743652344,-240.60899353027344 88.29000091552734,-229.74200439453125 88.29000091552734,-229.74200439453125z"></path><path stroke-linecap="round" stroke-linejoin="round" fill-opacity="0" stroke="rgb(56,36,33)" stroke-opacity="1" stroke-width="8.892" d=" M88.29000091552734,-229.74200439453125 C88.29000091552734,-229.74200439453125 74.677001953125,-229.93899536132812 61.073001861572266,-222.4980010986328 C49.58599853515625,-216.21499633789062 37.99700164794922,-202.93699645996094 35.71500015258789,-195.2429962158203 C30.731000900268555,-178.43699645996094 34.88399887084961,-172.55599975585938 27.406999588012695,-161.21200561523438 C19.93000030517578,-149.8679962158203 15.776000022888184,-148.60800170898438 14.114999771118164,-136.4239959716797 C12.454000473022461,-124.23999786376953 15.777000427246094,-108.69400024414062 5.39300012588501,-110.79499816894531 C-4.991000175476074,-112.89600372314453 -12.005000114440918,-135.17100524902344 -4.105000019073486,-152.58700561523438 C3.1059999465942383,-168.48399353027344 1.6549999713897705,-173.39599609375 2.069999933242798,-181.37899780273438 C2.484999895095825,-189.36199951171875 2.069999933242798,-194.82400512695312 5.808000087738037,-196.08399963378906 C9.545999526977539,-197.343994140625 19.514999389648438,-194.4029998779297 19.514999389648438,-194.4029998779297 C19.514999389648438,-194.4029998779297 19.100000381469727,-209.5279998779297 25.746000289916992,-220.03199768066406 C32.391998291015625,-230.53599548339844 30.315000534057617,-234.73599243164062 35.29899978637695,-234.3159942626953 C40.28300094604492,-233.89599609375 35.29899978637695,-212.0489959716797 35.29899978637695,-212.0489959716797 C35.29899978637695,-212.0489959716797 53.816001892089844,-233.95599365234375 70.60600280761719,-236.83700561523438 C92.58799743652344,-240.60899353027344 88.29000091552734,-229.74200439453125 88.29000091552734,-229.74200439453125z"></path></g></g><g style="display: none;"><g><path></path></g></g><g style="display: none;"><g><path></path></g></g><g style="display: none;"><g><path></path></g></g><g style="display: none;"><g><path></path></g></g><g style="display: block;" transform="matrix(1,0,0,1,256.0002746582031,257.4995422363281)" opacity="1"><g opacity="1" transform="matrix(1,0,0,1,0,0)"><path fill="rgb(135,23,58)" fill-opacity="1" d=" M105.08799743652344,49.89500045776367 C105.08799743652344,64.64399719238281 66.11599731445312,49.20100021362305 19.799999237060547,59.13800048828125 C-13.706000328063965,66.3270034790039 -46.70399856567383,108.80400085449219 -46.70399856567383,94.05500030517578 C-46.70399856567383,79.30599975585938 -25.882999420166016,12.562999725341797 -0.5070000290870667,0.0860000029206276 C36.04499816894531,-17.88599967956543 105.08799743652344,35.145999908447266 105.08799743652344,49.89500045776367z"></path></g><g opacity="1" transform="matrix(1,0,0,1,0,0)"><path fill="rgb(222,75,75)" fill-opacity="1" d=" M-9.008999824523926,64.65399932861328 C-9.008999824523926,64.65399932861328 -12.711000442504883,38.430999755859375 19.065000534057617,44.60100173950195 C40.65999984741211,25.165000915527344 60.7130012512207,48.91999816894531 60.7130012512207,48.91999816894531 C60.7130012512207,48.91999816894531 -9.008999824523926,64.65399932861328 -9.008999824523926,64.65399932861328z"></path></g><g opacity="1" transform="matrix(1,0,0,1,0,0)"><path fill="rgb(255,255,255)" fill-opacity="1" d=" M-31.034000396728516,45.17300033569336 C-31.034000396728516,45.17300033569336 -26.624000549316406,49.84600067138672 -20.062999725341797,47.83300018310547 C-11.795000076293945,45.297000885009766 -6.622000217437744,28.511999130249023 -6.622000217437744,28.511999130249023 C-0.3109999895095825,37.69200134277344 20.711999893188477,41.659000396728516 26.645999908447266,23.905000686645508 C37.051998138427734,31.572999954223633 49.28200149536133,29.121999740600586 55.30699920654297,19.81100082397461 C59.14099884033203,22.548999786376953 69.19300079345703,12.312000274658203 69.19300079345703,12.312000274658203 C69.19300079345703,12.312000274658203 35.37200164794922,-13.180999755859375 0.5429999828338623,0.3619999885559082 C-23.20199966430664,9.595000267028809 -31.034000396728516,45.17300033569336 -31.034000396728516,45.17300033569336z"></path><path stroke-linecap="round" stroke-linejoin="round" fill-opacity="0" stroke="rgb(72,115,155)" stroke-opacity="1" stroke-width="9.371" d=" M-31.034000396728516,45.17300033569336 C-31.034000396728516,45.17300033569336 -26.624000549316406,49.84600067138672 -20.062999725341797,47.83300018310547 C-11.795000076293945,45.297000885009766 -6.622000217437744,28.511999130249023 -6.622000217437744,28.511999130249023 C-0.3109999895095825,37.69200134277344 20.711999893188477,41.659000396728516 26.645999908447266,23.905000686645508 C37.051998138427734,31.572999954223633 49.28200149536133,29.121999740600586 55.30699920654297,19.81100082397461 C59.14099884033203,22.548999786376953 69.19300079345703,12.312000274658203 69.19300079345703,12.312000274658203 C69.19300079345703,12.312000274658203 35.37200164794922,-13.180999755859375 0.5429999828338623,0.3619999885559082 C-23.20199966430664,9.595000267028809 -31.034000396728516,45.17300033569336 -31.034000396728516,45.17300033569336z"></path></g><g opacity="1" transform="matrix(1,0,0,1,0,0)"><path stroke-linecap="round" stroke-linejoin="round" fill-opacity="0" stroke="rgb(90,10,15)" stroke-opacity="1" stroke-width="12.494" d=" M105.08799743652344,49.89500045776367 C105.08799743652344,64.64399719238281 66.11599731445312,49.20100021362305 19.799999237060547,59.13800048828125 C-13.706000328063965,66.3270034790039 -46.70399856567383,108.80400085449219 -46.70399856567383,94.05500030517578 C-46.70399856567383,79.30599975585938 -25.882999420166016,12.562999725341797 -0.5070000290870667,0.0860000029206276 C36.04499816894531,-17.88599967956543 105.08799743652344,35.145999908447266 105.08799743652344,49.89500045776367z"></path></g><g opacity="1" transform="matrix(1,0,0,1,0,0)"><path stroke-linecap="round" stroke-linejoin="round" fill-opacity="0" stroke="rgb(221,150,102)" stroke-opacity="1" stroke-width="13.951" d=" M-72.49800109863281,112.47599792480469 C-72.49800109863281,112.47599792480469 -48.21699905395508,143.17599487304688 -25.45400047302246,120.1510009765625"></path></g><g opacity="1" transform="matrix(1,0,0,1,0,0)"><path stroke-linecap="round" stroke-linejoin="round" fill-opacity="0" stroke="rgb(221,150,102)" stroke-opacity="1" stroke-width="13.951" d=" M94.43199920654297,83.31099700927734 C94.43199920654297,83.31099700927734 143.7519989013672,88.68299865722656 136.16400146484375,51.84400177001953"></path></g></g></g></svg>