<svg xmlns="http://www.w3.org/2000/svg" xmlns:xlink="http://www.w3.org/1999/xlink" viewBox="0 0 512 512" width="512" height="512" style="width: 100%; height: 100%; transform: translate3d(0,0,0); content-visibility: visible;" preserveAspectRatio="xMidYMid meet"><defs><clipPath id="__lottie_element_2"><rect width="512" height="512" x="0" y="0"></rect></clipPath><clipPath id="__lottie_element_4"><path d="M0,0 L512,0 L512,512 L0,512z"></path></clipPath><radialGradient id="__lottie_element_12" spreadMethod="pad" gradientUnits="userSpaceOnUse" cx="-24.933000564575195" cy="-133.427001953125" r="315.0106125790926" fx="-24.933000564575195" fy="-133.427001953125"><stop offset="0%" stop-color="rgb(252,227,204)"></stop><stop offset="50%" stop-color="rgb(248,207,176)"></stop><stop offset="100%" stop-color="rgb(244,187,148)"></stop></radialGradient></defs><g clip-path="url(#__lottie_element_2)"><g clip-path="url(#__lottie_element_4)" style="display: block;" transform="matrix(0.9609400033950806,0,0,0.9609400033950806,-1.000640869140625,0.999359130859375)" opacity="1"><g style="display: block;" transform="matrix(1,0,0,1,30.916000366210938,48.80900573730469)" opacity="1"><g opacity="1" transform="matrix(1,0,0,1,247.54600524902344,230.00999450683594)"><path fill="rgb(239,160,129)" fill-opacity="1" d=" M-133.93899536132812,-161.28399658203125 C-165.4040069580078,-142.13400268554688 -203.68299865722656,-100.25800323486328 -210.2220001220703,-29.423999786376953 C-218.05099487304688,55.39099884033203 -168.81100463867188,143.8470001220703 -83.80999755859375,172.17999267578125 C1.190000057220459,200.51400756835938 128.6909942626953,175.4499969482422 173.37100219726562,51.21900177001953 C218.05099487304688,-73.01300048828125 138.0570068359375,-177.68499755859375 33.882999420166016,-190.70599365234375 C-44.57899856567383,-200.51400756835938 -94.90499877929688,-185.04100036621094 -133.93899536132812,-161.28399658203125z"></path></g><g opacity="1" transform="matrix(1,0,0,1,247.54600524902344,230.00999450683594)"><path stroke-linecap="butt" stroke-linejoin="miter" fill-opacity="0" stroke-miterlimit="10" stroke="rgb(170,82,38)" stroke-opacity="1" stroke-width="11.798" d=" M-133.93899536132812,-161.28399658203125 C-165.4040069580078,-142.13400268554688 -203.68299865722656,-100.25800323486328 -210.2220001220703,-29.423999786376953 C-218.05099487304688,55.39099884033203 -168.81100463867188,143.8470001220703 -83.80999755859375,172.17999267578125 C1.190000057220459,200.51400756835938 128.6909942626953,175.4499969482422 173.37100219726562,51.21900177001953 C218.05099487304688,-73.01300048828125 138.0570068359375,-177.68499755859375 33.882999420166016,-190.70599365234375 C-44.57899856567383,-200.51400756835938 -94.90499877929688,-185.04100036621094 -133.93899536132812,-161.28399658203125z"></path></g><g opacity="1" transform="matrix(1,0,0,1,254.16000366210938,221.1199951171875)"><path fill="url(#__lottie_element_12)" fill-opacity="1" d=" M-120.84600067138672,-145.3979949951172 C-149.23500061035156,-128.13400268554688 -183.77200317382812,-90.38200378417969 -189.6719970703125,-26.524999618530273 C-196.73500061035156,49.93600082397461 -152.3090057373047,129.67799377441406 -75.61799621582031,155.2209930419922 C1.0740000009536743,180.76400756835938 116.11100006103516,158.16900634765625 156.42300415039062,46.17300033569336 C196.73500061035156,-65.8219985961914 124.56099700927734,-160.1840057373047 30.570999145507812,-171.92300415039062 C-40.22200012207031,-180.76499938964844 -85.62799835205078,-166.81500244140625 -120.84600067138672,-145.3979949951172z"></path></g></g><g style="display: block;" transform="matrix(1,0,0,1,17.684005737304688,-16.02398681640625)" opacity="1"><g opacity="1" transform="matrix(1,0,0,1,0,0)"><g opacity="1" transform="matrix(1,0,0,1,411.9909973144531,113.39800262451172)"><path stroke-linecap="round" stroke-linejoin="round" fill-opacity="0" stroke="rgb(84,54,34)" stroke-opacity="1" stroke-width="7" d=" M11.260000228881836,-19.797000885009766 C11.260000228881836,-19.797000885009766 14.892999649047852,-16.163999557495117 11.623000144958496,-7.446000099182129 C9.72700023651123,-2.390000104904175 -2.9070000648498535,5.63100004196167 -6.9029998779296875,8.17300033569336 C-10.89799976348877,10.715999603271484 -14.892999649047852,19.797000885009766 -14.892999649047852,19.797000885009766"></path></g><g opacity="1" transform="matrix(1,0,0,1,54.915000915527344,134.8300018310547)"><path stroke-linecap="round" stroke-linejoin="round" fill-opacity="0" stroke="rgb(84,54,34)" stroke-opacity="1" stroke-width="7" d=" M37.46200180053711,14.708999633789062 C37.46200180053711,14.708999633789062 15.152999877929688,6.396999835968018 4.307000160217285,9.805000305175781 C-9.420000076293945,14.64799976348877 -23.20400047302246,11.33899974822998 -32.47700119018555,17.714000701904297 C-36.17599868774414,20.58099937438965 -37.22200012207031,32.22100067138672 -37.22200012207031,32.22100067138672"></path></g><g opacity="1" transform="matrix(1,0,0,1,171.79100036621094,45.28900146484375)"><path stroke-linecap="round" stroke-linejoin="round" fill-opacity="0" stroke="rgb(84,54,34)" stroke-opacity="1" stroke-width="7" d=" M-10.442000389099121,-20.288999557495117 C-10.442000389099121,-20.288999557495117 7.355999946594238,-17.979999542236328 8.991000175476074,-7.355000019073486 C10.625,3.2699999809265137 11.442999839782715,19.615999221801758 11.442999839782715,23.702999114990234 C11.442999839782715,23.702999114990234 11.442999839782715,27.788999557495117 11.442999839782715,27.788999557495117"></path></g><g opacity="1" transform="matrix(1,0,0,1,224.38600158691406,98.48200225830078)"><path fill="rgb(111,75,36)" fill-opacity="1" d=" M-141.54600524902344,74.44300079345703 C-141.54600524902344,74.44300079345703 -160.61599731445312,65.04499816894531 -160.61599731445312,65.04499816894531 C-160.61599731445312,65.04499816894531 -133.50799560546875,53.05799865722656 -133.50799560546875,53.05799865722656 C-133.50799560546875,53.05799865722656 -145.49600219726562,38.88999938964844 -151.49000549316406,36.709999084472656 C-157.48399353027344,34.53099822998047 -179.4499969482422,24.128000259399414 -173.82899475097656,25.81399917602539 C-168.3800048828125,27.447999954223633 -134.05299377441406,28.538000106811523 -134.05299377441406,28.538000106811523 C-134.05299377441406,28.538000106811523 -182.81900024414062,7.559999942779541 -184.99899291992188,3.2009999752044678 C-185.2429962158203,2.7139999866485596 -143.86099243164062,7.288000106811523 -143.86099243164062,7.288000106811523 C-143.86099243164062,7.288000106811523 -173.82899475097656,-26.493999481201172 -173.82899475097656,-26.493999481201172 C-173.82899475097656,-26.493999481201172 -161.8419952392578,-24.31599998474121 -161.8419952392578,-24.31599998474121 C-161.8419952392578,-24.31599998474121 -160.7530059814453,-35.21200180053711 -160.7530059814453,-35.21200180053711 C-160.7530059814453,-35.21200180053711 -143.3159942626953,-24.860000610351562 -143.3159942626953,-24.860000610351562 C-143.3159942626953,-24.860000610351562 -142.2270050048828,-37.393001556396484 -142.2270050048828,-37.393001556396484 C-142.2270050048828,-37.393001556396484 -129.69400024414062,-34.12300109863281 -129.69400024414062,-34.12300109863281 C-129.69400024414062,-34.12300109863281 -106.53800201416016,-11.510000228881836 -106.53800201416016,-11.510000228881836 C-106.53800201416016,-11.510000228881836 -109.26200103759766,-34.12300109863281 -99.9990005493164,-35.21200180053711 C-90.73600006103516,-36.301998138427734 -104.62999725341797,-67.36000061035156 -104.62999725341797,-67.36000061035156 C-104.62999725341797,-67.36000061035156 -89.37300109863281,-43.3849983215332 -89.37300109863281,-43.3849983215332 C-89.37300109863281,-43.3849983215332 -77.93199920654297,-46.65599822998047 -77.93199920654297,-46.65599822998047 C-77.93199920654297,-46.65599822998047 -54.229000091552734,3.2009999752044678 -54.229000091552734,3.2009999752044678 C-54.229000091552734,3.2009999752044678 -64.30899810791016,-60.277000427246094 -64.30899810791016,-60.277000427246094 C-64.30899810791016,-60.277000427246094 -51.231998443603516,-27.583999633789062 -46.327999114990234,-27.583999633789062 C-41.42399978637695,-27.583999633789062 -25.624000549316406,-31.94300079345703 -25.624000549316406,-31.94300079345703 C-25.624000549316406,-31.94300079345703 -25.624000549316406,-74.44300079345703 -25.624000549316406,-74.44300079345703 C-25.624000549316406,-74.44300079345703 -10.194999694824219,-27.784000396728516 -8.732000350952148,-24.860000610351562 C-8.187999725341797,-23.770000457763672 -2.193000078201294,-43.93000030517578 -2.193000078201294,-43.93000030517578 C-2.193000078201294,-43.93000030517578 3.255000114440918,-17.777000427246094 4.888999938964844,-18.867000579833984 C6.171999931335449,-19.722000122070312 13.062999725341797,-33.03300094604492 13.062999725341797,-33.03300094604492 C13.062999725341797,-33.03300094604492 21.7810001373291,-24.31599998474121 21.7810001373291,-24.31599998474121 C21.7810001373291,-24.31599998474121 23.415000915527344,-43.3849983215332 21.7810001373291,-51.013999938964844 C20.145999908447266,-58.641998291015625 18.511999130249023,-68.44999694824219 18.511999130249023,-68.44999694824219 C18.511999130249023,-68.44999694824219 30.499000549316406,-42.840999603271484 32.678001403808594,-36.84700012207031 C34.858001708984375,-30.85300064086914 35.402000427246094,-58.643001556396484 35.402000427246094,-58.643001556396484 C35.402000427246094,-58.643001556396484 35.402000427246094,-68.99500274658203 35.402000427246094,-68.99500274658203 C35.402000427246094,-68.99500274658203 51.20399856567383,-69.54000091552734 51.20399856567383,-69.54000091552734 C51.20399856567383,-69.54000091552734 60.46799850463867,-37.9370002746582 62.10200119018555,-40.6609992980957 C63.73699951171875,-43.3849983215332 63.736000061035156,-70.08399963378906 63.736000061035156,-70.08399963378906 C63.736000061035156,-70.08399963378906 65.37200164794922,-25.405000686645508 68.64099884033203,-24.860000610351562 C71.91000366210938,-24.315000534057617 81.1729965209961,-47.20000076293945 81.1729965209961,-47.20000076293945 C81.1729965209961,-47.20000076293945 80.62799835205078,-34.66699981689453 82.80799865722656,-35.21200180053711 C84.98699951171875,-35.75699996948242 101.33399963378906,-39.57099914550781 101.33399963378906,-39.57099914550781 C101.33399963378906,-39.57099914550781 89.34500122070312,-9.602999687194824 95.88400268554688,-4.1539998054504395 C102.4219970703125,1.2940000295639038 115.06700134277344,-16.691999435424805 120.9489974975586,-31.398000717163086 C127.48799896240234,-47.74399948120117 132.1179962158203,-55.10100173950195 132.1179962158203,-55.10100173950195 C132.1179962158203,-55.10100173950195 151.73500061035156,-63.81800079345703 151.73500061035156,-63.81800079345703 C151.73500061035156,-63.81800079345703 135.66000366210938,-22.68000030517578 135.66000366210938,-22.68000030517578 C135.66000366210938,-22.68000030517578 168.35299682617188,-38.481998443603516 168.35299682617188,-38.481998443603516 C168.35299682617188,-38.481998443603516 129.1219940185547,-6.334000110626221 132.39100646972656,0.20499999821186066 C134.1649932861328,3.753000020980835 146.74000549316406,-6.697000026702881 158.00100708007812,-14.506999969482422 C166.82000732421875,-20.624000549316406 179.61300659179688,-27.040000915527344 179.61300659179688,-27.040000915527344 C179.61300659179688,-27.040000915527344 165.74200439453125,-19.88800048828125 153.4600067138672,-10.329999923706055 C141.17799377441406,-0.7720000147819519 130.48300170898438,11.192999839782715 133.47999572753906,14.734999656677246 C139.4739990234375,21.81800079345703 167.26400756835938,-1.975000023841858 167.26400756835938,-1.975000023841858 C167.26400756835938,-1.975000023841858 142.7429962158203,14.916000366210938 150.37100219726562,22.545000076293945 C158,30.17300033569336 177.61599731445312,13.281999588012695 177.61599731445312,13.281999588012695 C177.61599731445312,13.281999588012695 163.9929962158203,27.993000030517578 163.9929962158203,27.993000030517578 C163.9929962158203,27.993000030517578 175.98199462890625,26.90399932861328 175.98199462890625,26.90399932861328 C175.98199462890625,26.90399932861328 177.0709991455078,35.07699966430664 177.0709991455078,35.07699966430664 C177.0709991455078,35.07699966430664 165.08399963378906,38.89099884033203 165.08399963378906,38.89099884033203 C165.08399963378906,38.89099884033203 176.52499389648438,51.96799850463867 180.88400268554688,50.33300018310547 C185.2429962158203,48.69900131225586 175.43600463867188,54.69200134277344 175.43600463867188,54.69200134277344 C175.43600463867188,54.69200134277344 139.9810028076172,-2.2209999561309814 8.15999984741211,4.564000129699707 C-90.6449966430664,9.64900016784668 -141.54600524902344,74.44300079345703 -141.54600524902344,74.44300079345703z"></path><path stroke-linecap="round" stroke-linejoin="round" fill-opacity="0" stroke="rgb(84,54,34)" stroke-opacity="1" stroke-width="8" d=" M-141.54600524902344,74.44300079345703 C-141.54600524902344,74.44300079345703 -160.61599731445312,65.04499816894531 -160.61599731445312,65.04499816894531 C-160.61599731445312,65.04499816894531 -133.50799560546875,53.05799865722656 -133.50799560546875,53.05799865722656 C-133.50799560546875,53.05799865722656 -145.49600219726562,38.88999938964844 -151.49000549316406,36.709999084472656 C-157.48399353027344,34.53099822998047 -179.4499969482422,24.128000259399414 -173.82899475097656,25.81399917602539 C-168.3800048828125,27.447999954223633 -134.05299377441406,28.538000106811523 -134.05299377441406,28.538000106811523 C-134.05299377441406,28.538000106811523 -182.81900024414062,7.559999942779541 -184.99899291992188,3.2009999752044678 C-185.2429962158203,2.7139999866485596 -143.86099243164062,7.288000106811523 -143.86099243164062,7.288000106811523 C-143.86099243164062,7.288000106811523 -173.82899475097656,-26.493999481201172 -173.82899475097656,-26.493999481201172 C-173.82899475097656,-26.493999481201172 -161.8419952392578,-24.31599998474121 -161.8419952392578,-24.31599998474121 C-161.8419952392578,-24.31599998474121 -160.7530059814453,-35.21200180053711 -160.7530059814453,-35.21200180053711 C-160.7530059814453,-35.21200180053711 -143.3159942626953,-24.860000610351562 -143.3159942626953,-24.860000610351562 C-143.3159942626953,-24.860000610351562 -142.2270050048828,-37.393001556396484 -142.2270050048828,-37.393001556396484 C-142.2270050048828,-37.393001556396484 -129.69400024414062,-34.12300109863281 -129.69400024414062,-34.12300109863281 C-129.69400024414062,-34.12300109863281 -106.53800201416016,-11.510000228881836 -106.53800201416016,-11.510000228881836 C-106.53800201416016,-11.510000228881836 -109.26200103759766,-34.12300109863281 -99.9990005493164,-35.21200180053711 C-90.73600006103516,-36.301998138427734 -104.62999725341797,-67.36000061035156 -104.62999725341797,-67.36000061035156 C-104.62999725341797,-67.36000061035156 -89.37300109863281,-43.3849983215332 -89.37300109863281,-43.3849983215332 C-89.37300109863281,-43.3849983215332 -77.93199920654297,-46.65599822998047 -77.93199920654297,-46.65599822998047 C-77.93199920654297,-46.65599822998047 -54.229000091552734,3.2009999752044678 -54.229000091552734,3.2009999752044678 C-54.229000091552734,3.2009999752044678 -64.30899810791016,-60.277000427246094 -64.30899810791016,-60.277000427246094 C-64.30899810791016,-60.277000427246094 -51.231998443603516,-27.583999633789062 -46.327999114990234,-27.583999633789062 C-41.42399978637695,-27.583999633789062 -25.624000549316406,-31.94300079345703 -25.624000549316406,-31.94300079345703 C-25.624000549316406,-31.94300079345703 -25.624000549316406,-74.44300079345703 -25.624000549316406,-74.44300079345703 C-25.624000549316406,-74.44300079345703 -10.194999694824219,-27.784000396728516 -8.732000350952148,-24.860000610351562 C-8.187999725341797,-23.770000457763672 -2.193000078201294,-43.93000030517578 -2.193000078201294,-43.93000030517578 C-2.193000078201294,-43.93000030517578 3.255000114440918,-17.777000427246094 4.888999938964844,-18.867000579833984 C6.171999931335449,-19.722000122070312 13.062999725341797,-33.03300094604492 13.062999725341797,-33.03300094604492 C13.062999725341797,-33.03300094604492 21.7810001373291,-24.31599998474121 21.7810001373291,-24.31599998474121 C21.7810001373291,-24.31599998474121 23.415000915527344,-43.3849983215332 21.7810001373291,-51.013999938964844 C20.145999908447266,-58.641998291015625 18.511999130249023,-68.44999694824219 18.511999130249023,-68.44999694824219 C18.511999130249023,-68.44999694824219 30.499000549316406,-42.840999603271484 32.678001403808594,-36.84700012207031 C34.858001708984375,-30.85300064086914 35.402000427246094,-58.643001556396484 35.402000427246094,-58.643001556396484 C35.402000427246094,-58.643001556396484 35.402000427246094,-68.99500274658203 35.402000427246094,-68.99500274658203 C35.402000427246094,-68.99500274658203 51.20399856567383,-69.54000091552734 51.20399856567383,-69.54000091552734 C51.20399856567383,-69.54000091552734 60.46799850463867,-37.9370002746582 62.10200119018555,-40.6609992980957 C63.73699951171875,-43.3849983215332 63.736000061035156,-70.08399963378906 63.736000061035156,-70.08399963378906 C63.736000061035156,-70.08399963378906 65.37200164794922,-25.405000686645508 68.64099884033203,-24.860000610351562 C71.91000366210938,-24.315000534057617 81.1729965209961,-47.20000076293945 81.1729965209961,-47.20000076293945 C81.1729965209961,-47.20000076293945 80.62799835205078,-34.66699981689453 82.80799865722656,-35.21200180053711 C84.98699951171875,-35.75699996948242 101.33399963378906,-39.57099914550781 101.33399963378906,-39.57099914550781 C101.33399963378906,-39.57099914550781 89.34500122070312,-9.602999687194824 95.88400268554688,-4.1539998054504395 C102.4219970703125,1.2940000295639038 115.06700134277344,-16.691999435424805 120.9489974975586,-31.398000717163086 C127.48799896240234,-47.74399948120117 132.1179962158203,-55.10100173950195 132.1179962158203,-55.10100173950195 C132.1179962158203,-55.10100173950195 151.73500061035156,-63.81800079345703 151.73500061035156,-63.81800079345703 C151.73500061035156,-63.81800079345703 135.66000366210938,-22.68000030517578 135.66000366210938,-22.68000030517578 C135.66000366210938,-22.68000030517578 168.35299682617188,-38.481998443603516 168.35299682617188,-38.481998443603516 C168.35299682617188,-38.481998443603516 129.1219940185547,-6.334000110626221 132.39100646972656,0.20499999821186066 C134.1649932861328,3.753000020980835 146.74000549316406,-6.697000026702881 158.00100708007812,-14.506999969482422 C166.82000732421875,-20.624000549316406 179.61300659179688,-27.040000915527344 179.61300659179688,-27.040000915527344 C179.61300659179688,-27.040000915527344 165.74200439453125,-19.88800048828125 153.4600067138672,-10.329999923706055 C141.17799377441406,-0.7720000147819519 130.48300170898438,11.192999839782715 133.47999572753906,14.734999656677246 C139.4739990234375,21.81800079345703 167.26400756835938,-1.975000023841858 167.26400756835938,-1.975000023841858 C167.26400756835938,-1.975000023841858 142.7429962158203,14.916000366210938 150.37100219726562,22.545000076293945 C158,30.17300033569336 177.61599731445312,13.281999588012695 177.61599731445312,13.281999588012695 C177.61599731445312,13.281999588012695 163.9929962158203,27.993000030517578 163.9929962158203,27.993000030517578 C163.9929962158203,27.993000030517578 175.98199462890625,26.90399932861328 175.98199462890625,26.90399932861328 C175.98199462890625,26.90399932861328 177.0709991455078,35.07699966430664 177.0709991455078,35.07699966430664 C177.0709991455078,35.07699966430664 165.08399963378906,38.89099884033203 165.08399963378906,38.89099884033203 C165.08399963378906,38.89099884033203 176.52499389648438,51.96799850463867 180.88400268554688,50.33300018310547 C185.2429962158203,48.69900131225586 175.43600463867188,54.69200134277344 175.43600463867188,54.69200134277344 C175.43600463867188,54.69200134277344 139.9810028076172,-2.2209999561309814 8.15999984741211,4.564000129699707 C-90.6449966430664,9.64900016784668 -141.54600524902344,74.44300079345703 -141.54600524902344,74.44300079345703z"></path></g><g opacity="1" transform="matrix(1,0,0,1,113.76200103759766,116.3949966430664)"><path fill="rgb(111,75,36)" fill-opacity="1" d=" M13.07699966430664,17.163000106811523 C13.07699966430664,17.163000106811523 8.506999969482422,6.551000118255615 1.6349999904632568,-1.906999945640564 C-5.448999881744385,-10.625 -13.07699966430664,-17.163000106811523 -13.07699966430664,-17.163000106811523"></path></g><g opacity="1" transform="matrix(1,0,0,1,113.76200103759766,116.3949966430664)"><path stroke-linecap="round" stroke-linejoin="round" fill-opacity="0" stroke="rgb(84,54,34)" stroke-opacity="1" stroke-width="7" d=" M13.07699966430664,17.163000106811523 C13.07699966430664,17.163000106811523 8.506999969482422,6.551000118255615 1.6349999904632568,-1.906999945640564 C-5.448999881744385,-10.625 -13.07699966430664,-17.163000106811523 -13.07699966430664,-17.163000106811523"></path></g><g opacity="1" transform="matrix(1,0,0,1,271.7760009765625,86.427001953125)"><path fill="rgb(111,75,36)" fill-opacity="1" d=" M0,17.163000106811523 C0,17.163000106811523 -0.5450000166893005,-1.3619999885559082 0,-5.7210001945495605 C0.5450000166893005,-10.079999923706055 -0.5450000166893005,-17.163000106811523 -0.5450000166893005,-17.163000106811523"></path></g><g opacity="1" transform="matrix(1,0,0,1,271.7760009765625,86.427001953125)"><path stroke-linecap="round" stroke-linejoin="round" fill-opacity="0" stroke="rgb(84,54,34)" stroke-opacity="1" stroke-width="7" d=" M0,17.163000106811523 C0,17.163000106811523 -0.5450000166893005,-1.3619999885559082 0,-5.7210001945495605 C0.5450000166893005,-10.079999923706055 -0.5450000166893005,-17.163000106811523 -0.5450000166893005,-17.163000106811523"></path></g><g opacity="1" transform="matrix(1,0,0,1,202.3040008544922,95.96199798583984)"><path fill="rgb(111,75,36)" fill-opacity="1" d=" M2.4519999027252197,10.35200023651123 C2.4519999027252197,10.35200023651123 -0.2720000147819519,-1.0889999866485596 -0.2720000147819519,-3.2690000534057617 C-0.2720000147819519,-5.447999954223633 -2.4519999027252197,-10.35200023651123 -2.4519999027252197,-10.35200023651123"></path></g><g opacity="1" transform="matrix(1,0,0,1,202.3040008544922,95.96199798583984)"><path stroke-linecap="round" stroke-linejoin="round" fill-opacity="0" stroke="rgb(84,54,34)" stroke-opacity="1" stroke-width="7" d=" M2.4519999027252197,10.35200023651123 C2.4519999027252197,10.35200023651123 -0.2720000147819519,-1.0889999866485596 -0.2720000147819519,-3.2690000534057617 C-0.2720000147819519,-5.447999954223633 -2.4519999027252197,-10.35200023651123 -2.4519999027252197,-10.35200023651123"></path></g><g opacity="1" transform="matrix(1,0,0,1,342.70098876953125,101.50199890136719)"><path fill="rgb(111,75,36)" fill-opacity="1" d=" M-6.265999794006348,12.440999984741211 C-6.265999794006348,12.440999984741211 -3.253999948501587,4.965000152587891 -0.8169999718666077,0.09099999815225601 C1.906999945640564,-5.35699987411499 6.265999794006348,-12.440999984741211 6.265999794006348,-12.440999984741211"></path></g><g opacity="1" transform="matrix(1,0,0,1,342.70098876953125,101.50199890136719)"><path stroke-linecap="round" stroke-linejoin="round" fill-opacity="0" stroke="rgb(84,54,34)" stroke-opacity="1" stroke-width="7" d=" M-6.265999794006348,12.440999984741211 C-6.265999794006348,12.440999984741211 -3.253999948501587,4.965000152587891 -0.8169999718666077,0.09099999815225601 C1.906999945640564,-5.35699987411499 6.265999794006348,-12.440999984741211 6.265999794006348,-12.440999984741211"></path></g><g opacity="1" transform="matrix(1,0,0,1,151.9029998779297,85.61000061035156)"><path stroke-linecap="round" stroke-linejoin="round" fill-opacity="0" stroke="rgb(140,99,58)" stroke-opacity="1" stroke-width="8" d=" M-10.53499984741211,-21.43199920654297 C-10.53499984741211,-21.43199920654297 -2.5429999828338623,-5.085999965667725 3.2690000534057617,6.175000190734863 C9.081000328063965,17.43600082397461 10.53499984741211,21.43199920654297 10.53499984741211,21.43199920654297"></path></g><g opacity="1" transform="matrix(1,0,0,1,103,116.80400085449219)"><path stroke-linecap="round" stroke-linejoin="round" fill-opacity="0" stroke="rgb(140,99,58)" stroke-opacity="1" stroke-width="8" d=" M-13.486000061035156,-16.7549991607666 C-13.486000061035156,-16.7549991607666 -3.378999948501587,-8.293999671936035 3.9509999752044678,2.0429999828338623 C11.281000137329102,12.380000114440918 13.486000061035156,16.7549991607666 13.486000061035156,16.7549991607666"></path></g><g opacity="1" transform="matrix(1,0,0,1,276.3169860839844,70.44400024414062)"><path stroke-linecap="round" stroke-linejoin="round" fill-opacity="0" stroke="rgb(140,99,58)" stroke-opacity="1" stroke-width="6" d=" M-3.4509999752044678,-24.610000610351562 C-3.4509999752044678,-24.610000610351562 1.406000018119812,-8.003999710083008 2.3610000610351562,4.631999969482422 C3.315999984741211,17.26799964904785 3.4509999752044678,24.610000610351562 3.4509999752044678,24.610000610351562"></path></g></g></g><g style="display: block;" transform="matrix(1,0,0,1,124.66899108886719,89.77801513671875)" opacity="1"><g opacity="1" transform="matrix(1,0,0,1,0,0)"><g opacity="1" transform="matrix(1,0,0,1,97.90799713134766,75.91699981689453)"><path fill="rgb(242,164,134)" fill-opacity="1" d=" M-54.61600112915039,-28.038000106811523 C-62.159000396728516,-22.309999465942383 -83.51399993896484,-0.6370000243186951 -62.12900161743164,24.851999282836914 C-40.744998931884766,50.340999603271484 34.96699905395508,50.340999603271484 59.24100112915039,17.204999923706055 C83.51499938964844,-15.930999755859375 57.75899887084961,-43.641998291015625 23.986000061035156,-47.154998779296875 C-6.645999908447266,-50.340999603271484 -34.93600082397461,-42.983001708984375 -54.61600112915039,-28.038000106811523z"></path></g><g opacity="1" transform="matrix(1,0,0,1,133.91000366210938,110.2020034790039)"><path stroke-linecap="round" stroke-linejoin="round" fill-opacity="0" stroke="rgb(216,144,115)" stroke-opacity="1" stroke-width="11.204" d=" M27.74799919128418,-23.0310001373291 C27.74799919128418,-23.0310001373291 22.753000259399414,-3.052000045776367 7.214000225067139,8.04699993133545 C-8.324000358581543,19.145999908447266 -27.74799919128418,23.0310001373291 -27.74799919128418,23.0310001373291"></path></g><g opacity="1" transform="matrix(1,0,0,1,103.10900115966797,71.0770034790039)"><path fill="rgb(186,211,232)" fill-opacity="1" d=" M-52.444000244140625,-24.417999267578125 C-59.6870002746582,-19.429000854492188 -80.19200134277344,-0.5550000071525574 -59.65800094604492,21.643999099731445 C-39.125,43.84199905395508 33.57500076293945,43.84199905395508 56.882999420166016,14.984000205993652 C80.19200134277344,-13.87399959564209 55.459999084472656,-38.00699996948242 23.0310001373291,-41.06700134277344 C-6.381999969482422,-43.84199905395508 -33.547000885009766,-37.433998107910156 -52.444000244140625,-24.417999267578125z"></path><path stroke-linecap="round" stroke-linejoin="round" fill-opacity="0" stroke="rgb(69,101,127)" stroke-opacity="1" stroke-width="9.167" d=" M-52.444000244140625,-24.417999267578125 C-59.6870002746582,-19.429000854492188 -80.19200134277344,-0.5550000071525574 -59.65800094604492,21.643999099731445 C-39.125,43.84199905395508 33.57500076293945,43.84199905395508 56.882999420166016,14.984000205993652 C80.19200134277344,-13.87399959564209 55.459999084472656,-38.00699996948242 23.0310001373291,-41.06700134277344 C-6.381999969482422,-43.84199905395508 -33.547000885009766,-37.433998107910156 -52.444000244140625,-24.417999267578125z"></path></g><g opacity="1" transform="matrix(1,0,0,1,98.56099700927734,65.97100067138672)"><path fill="rgb(255,255,255)" fill-opacity="1" d=" M-44.48500061035156,-20.03499984741211 C-50.62900161743164,-15.942000389099121 -68.02200317382812,-0.45500001311302185 -50.60499954223633,17.759000778198242 C-33.1870002746582,35.97200012207031 28.479999542236328,35.97200012207031 48.250999450683594,12.293999671936035 C68.02200317382812,-11.383000373840332 47.04399871826172,-31.184999465942383 19.535999298095703,-33.69499969482422 C-5.413000106811523,-35.97200012207031 -28.454999923706055,-30.714000701904297 -44.48500061035156,-20.03499984741211z"></path></g><g opacity="1" transform="matrix(1,0,0,1,54.45800018310547,89.26100158691406)"><path fill="rgb(39,32,53)" fill-opacity="1" d=" M16.740999221801758,1.4240000247955322 C16.740999221801758,8.821000099182129 15.395999908447266,12.61299991607666 8.803999900817871,14.958999633789062 C7.019999980926514,15.593999862670898 4.63100004196167,15.140999794006348 2.628999948501587,15.140999794006348 C-1.7910000085830688,15.140999794006348 -4.879000186920166,12.72700023651123 -7.90500020980835,9.96399974822998 C-11.041999816894531,7.099999904632568 -16.4060001373291,4.660999774932861 -16.714000701904297,0.15700000524520874 C-16.740999221801758,-0.2329999953508377 -15.897000312805176,-1.2640000581741333 -15.897000312805176,-1.659999966621399 C-15.897000312805176,-11.059000015258789 -9.677000045776367,-15.593999862670898 -0.27799999713897705,-15.593999862670898 C9.121000289916992,-15.593999862670898 16.740999221801758,-7.974999904632568 16.740999221801758,1.4240000247955322z"></path></g><g opacity="1" transform="matrix(1,0,0,1,68.07599639892578,85.30899810791016)"><path fill="rgb(255,255,255)" fill-opacity="1" d=" M8.291999816894531,-2.1510000228881836 C8.998000144958496,0.5699999928474426 5.85699987411499,3.739000082015991 1.2769999504089355,4.927000045776367 C-3.302000045776367,6.114999771118164 -7.585999965667725,4.872000217437744 -8.291999816894531,2.1510000228881836 C-8.998000144958496,-0.5699999928474426 -5.855999946594238,-3.73799991607666 -1.2769999504089355,-4.926000118255615 C3.302000045776367,-6.113999843597412 7.585999965667725,-4.872000217437744 8.291999816894531,-2.1510000228881836z"></path></g><g opacity="1" transform="matrix(1,0,0,1,123.58499908447266,90.86499786376953)"><path stroke-linecap="round" stroke-linejoin="round" fill-opacity="0" stroke="rgb(237,107,129)" stroke-opacity="1" stroke-width="6.111" d=" M23.089000701904297,4.261000156402588 C23.089000701904297,4.261000156402588 10.880000114440918,-2.3989999294281006 5.329999923706055,-2.7690000534057617 C-0.21899999678134918,-3.138000011444092 -7.61899995803833,0.9309999942779541 -10.579000473022461,-0.17900000512599945 C-13.538000106811523,-1.2890000343322754 -23.089000701904297,-4.261000156402588 -23.089000701904297,-4.261000156402588"></path></g><g opacity="1" transform="matrix(1,0,0,1,156.47799682617188,73.2969970703125)"><path stroke-linecap="round" stroke-linejoin="round" fill-opacity="0" stroke="rgb(237,107,129)" stroke-opacity="1" stroke-width="6.111" d=" M-9.803999900817871,1.4800000190734863 C-9.803999900817871,1.4800000190734863 -2.4059998989105225,-1.4800000190734863 2.4040000438690186,-1.4800000190734863 C7.214000225067139,-1.4800000190734863 9.803999900817871,0 9.803999900817871,0"></path></g><g opacity="1" transform="matrix(1,0,0,1,95.61699676513672,103.26499938964844)"><path stroke-linecap="round" stroke-linejoin="round" fill-opacity="0" stroke="rgb(237,107,129)" stroke-opacity="1" stroke-width="6.111" d=" M8.140000343322754,4.439000129699707 C8.140000343322754,4.439000129699707 -4.440000057220459,-1.4800000190734863 -6.289999961853027,-2.9590001106262207 C-6.289999961853027,-2.9590001106262207 -8.140000343322754,-4.439000129699707 -8.140000343322754,-4.439000129699707"></path></g><g opacity="1" transform="matrix(1,0,0,1,103.10900115966797,71.0770034790039)"><path stroke-linecap="round" stroke-linejoin="round" fill-opacity="0" stroke="rgb(109,55,80)" stroke-opacity="1" stroke-width="9.167" d=" M-52.444000244140625,-24.417999267578125 C-59.6870002746582,-19.429000854492188 -80.19200134277344,-0.5550000071525574 -59.65800094604492,21.643999099731445 C-39.125,43.84199905395508 33.57500076293945,43.84199905395508 56.882999420166016,14.984000205993652 C80.19200134277344,-13.87399959564209 55.459999084472656,-38.00699996948242 23.0310001373291,-41.06700134277344 C-6.381999969482422,-43.84199905395508 -33.547000885009766,-37.433998107910156 -52.444000244140625,-24.417999267578125z"></path></g><g opacity="1" transform="matrix(1,0,0,1,102.64700317382812,47.02799987792969)"><path fill="rgb(252,226,204)" fill-opacity="1" d=" M-65.11599731445312,12.579000473022461 C-65.11599731445312,12.579000473022461 -44.58399963378906,21.45800018310547 1.312000036239624,20.718000411987305 C47.207000732421875,19.979000091552734 65.11599731445312,8.140000343322754 65.11599731445312,8.140000343322754 C65.11599731445312,8.140000343322754 63.75600051879883,-20.7189998626709 5.920000076293945,-21.089000701904297 C-51.91600036621094,-21.458999633789062 -65.11599731445312,12.579000473022461 -65.11599731445312,12.579000473022461z"></path><path stroke-linecap="round" stroke-linejoin="round" fill-opacity="0" stroke="rgb(168,86,44)" stroke-opacity="1" stroke-width="10.228" d=" M-65.11599731445312,12.579000473022461 C-65.11599731445312,12.579000473022461 -44.58399963378906,21.45800018310547 1.312000036239624,20.718000411987305 C47.207000732421875,19.979000091552734 65.11599731445312,8.140000343322754 65.11599731445312,8.140000343322754 C65.11599731445312,8.140000343322754 63.75600051879883,-20.7189998626709 5.920000076293945,-21.089000701904297 C-51.91600036621094,-21.458999633789062 -65.11599731445312,12.579000473022461 -65.11599731445312,12.579000473022461z"></path></g></g><g opacity="1" transform="matrix(1,0,0,1,0,0)"><g opacity="1" transform="matrix(1,0,0,1,266.0679931640625,92.56199645996094)"><path fill="rgb(242,164,134)" fill-opacity="1" d=" M-41.45199966430664,-37.542999267578125 C-48.630001068115234,-33.297000885009766 -69.88899993896484,-16.15399932861328 -56.70899963378906,10.993000030517578 C-43.52899932861328,38.14099884033203 18.639999389648438,49.513999938964844 44.263999938964844,22.04599952697754 C69.88800048828125,-5.422999858856201 47.630001068115234,-33.54899978637695 20.50200080871582,-41.92100143432617 C-4.1020002365112305,-49.513999938964844 -22.725000381469727,-48.62099838256836 -41.45199966430664,-37.542999267578125z"></path></g><g opacity="1" transform="matrix(1,0,0,1,230.6840057373047,114.09700012207031)"><path stroke-linecap="round" stroke-linejoin="round" fill-opacity="0" stroke="rgb(216,144,115)" stroke-opacity="1" stroke-width="11.204" d=" M-20.229999542236328,-20.69300079345703 C-20.229999542236328,-20.69300079345703 -20.52400016784668,-6.821000099182129 -6.923999786376953,6.234000205993652 C6.677000045776367,19.288999557495117 20.52400016784668,20.69300079345703 20.52400016784668,20.69300079345703"></path></g><g opacity="1" transform="matrix(1,0,0,1,264.1570129394531,78.56900024414062)"><path fill="rgb(186,211,232)" fill-opacity="1" d=" M-49.77799987792969,15.815999984741211 C-40.35100173950195,28.815000534057617 -17.59000015258789,45.784000396728516 22.367000579833984,41.89899826049805 C62.32400131225586,38.013999938964844 58.99399948120117,2.497999906539917 40.680999755859375,-15.26099967956543 C22.367000579833984,-33.02000045776367 -7.046000003814697,-45.784000396728516 -37.013999938964844,-30.799999237060547 C-62.32400131225586,-18.145000457763672 -58.007999420166016,4.4670000076293945 -49.77799987792969,15.815999984741211z"></path><path stroke-linecap="round" stroke-linejoin="round" fill-opacity="0" stroke="rgb(69,101,127)" stroke-opacity="1" stroke-width="9.167" d=" M-49.77799987792969,15.815999984741211 C-40.35100173950195,28.815000534057617 -17.59000015258789,45.784000396728516 22.367000579833984,41.89899826049805 C62.32400131225586,38.013999938964844 58.99399948120117,2.497999906539917 40.680999755859375,-15.26099967956543 C22.367000579833984,-33.02000045776367 -7.046000003814697,-45.784000396728516 -37.013999938964844,-30.799999237060547 C-62.32400131225586,-18.145000457763672 -58.007999420166016,4.4670000076293945 -49.77799987792969,15.815999984741211z"></path></g><g opacity="1" transform="matrix(1,0,0,1,261.4570007324219,72.71399688720703)"><path fill="rgb(255,255,255)" fill-opacity="1" d=" M-43.362998962402344,13.425999641418457 C-35.1510009765625,24.461000442504883 -15.324000358581543,38.867000579833984 19.483999252319336,35.569000244140625 C54.29199981689453,32.270999908447266 51.39099884033203,2.119999885559082 35.4370002746582,-12.954999923706055 C19.483999252319336,-28.030000686645508 -6.138000011444092,-38.86600112915039 -32.24399948120117,-26.145999908447266 C-54.29199981689453,-15.402999877929688 -50.53300094604492,3.7920000553131104 -43.362998962402344,13.425999641418457z"></path></g><g opacity="1" transform="matrix(1,0,0,1,267.6549987792969,76.99700164794922)"><path fill="rgb(39,32,53)" fill-opacity="1" d=" M18.499000549316406,0 C18.499000549316406,8.581999778747559 10.215999603271484,15.538999557495117 -0.0010000000474974513,15.538999557495117 C-10.217000007629395,15.538999557495117 -18.499000549316406,8.581999778747559 -18.499000549316406,0 C-18.499000549316406,-8.581999778747559 -10.217000007629395,-15.538999557495117 -0.0010000000474974513,-15.538999557495117 C10.215999603271484,-15.538999557495117 18.499000549316406,-8.581999778747559 18.499000549316406,0z"></path></g><g opacity="1" transform="matrix(1,0,0,1,267.5159912109375,108.24099731445312)"><path stroke-linecap="round" stroke-linejoin="round" fill-opacity="0" stroke="rgb(237,107,129)" stroke-opacity="1" stroke-width="6.111" d=" M-7.098999977111816,9.692999839782715 C-7.098999977111816,9.692999839782715 -7.630000114440918,3.3489999771118164 -3.744999885559082,0.5740000009536743 C0.13899999856948853,-2.2009999752044678 4.855999946594238,-6.085999965667725 4.855999946594238,-6.085999965667725 C4.855999946594238,-6.085999965667725 7.630000114440918,-9.692999839782715 7.630000114440918,-9.692999839782715"></path></g><g opacity="1" transform="matrix(1,0,0,1,221.73199462890625,78.01399993896484)"><path stroke-linecap="round" stroke-linejoin="round" fill-opacity="0" stroke="rgb(237,107,129)" stroke-opacity="1" stroke-width="6.111" d=" M-13.458000183105469,-1.6649999618530273 C-13.458000183105469,-1.6649999618530273 -5.966000080108643,-2.2200000286102295 2.0810000896453857,-0.8330000042915344 C10.128000259399414,0.5550000071525574 13.458000183105469,2.2200000286102295 13.458000183105469,2.2200000286102295"></path></g><g opacity="1" transform="matrix(1,0,0,1,309,93.2760009765625)"><path stroke-linecap="round" stroke-linejoin="round" fill-opacity="0" stroke="rgb(237,107,129)" stroke-opacity="1" stroke-width="6.111" d=" M-8.04699993133545,-3.6080000400543213 C-8.04699993133545,-3.6080000400543213 -3.052000045776367,-3.052999973297119 0.5550000071525574,-1.9429999589920044 C4.1620001792907715,-0.8330000042915344 8.04699993133545,3.6080000400543213 8.04699993133545,3.6080000400543213"></path></g><g opacity="1" transform="matrix(1,0,0,1,285.04400634765625,78.47699737548828)"><path fill="rgb(255,255,255)" fill-opacity="1" d=" M7.670000076293945,-1.9900000095367432 C8.269000053405762,0.3199999928474426 5.321000099182129,3.0850000381469727 1.0850000381469727,4.183000087738037 C-3.1510000228881836,5.2820000648498535 -7.071000099182129,4.298999786376953 -7.670000076293945,1.9889999628067017 C-8.269000053405762,-0.32199999690055847 -5.321000099182129,-3.0840001106262207 -1.0850000381469727,-4.183000087738037 C3.1510000228881836,-5.281000137329102 7.071000099182129,-4.300000190734863 7.670000076293945,-1.9900000095367432z"></path></g><g opacity="1" transform="matrix(1,0,0,1,264.1570129394531,78.56900024414062)"><path stroke-linecap="round" stroke-linejoin="round" fill-opacity="0" stroke="rgb(109,54,80)" stroke-opacity="1" stroke-width="9.167" d=" M-49.77799987792969,15.815999984741211 C-40.35100173950195,28.815000534057617 -17.59000015258789,45.784000396728516 22.367000579833984,41.89899826049805 C62.32400131225586,38.013999938964844 58.99399948120117,2.497999906539917 40.680999755859375,-15.26099967956543 C22.367000579833984,-33.02000045776367 -7.046000003814697,-45.784000396728516 -37.013999938964844,-30.799999237060547 C-62.32400131225586,-18.145000457763672 -58.007999420166016,4.4670000076293945 -49.77799987792969,15.815999984741211z"></path></g><g opacity="1" transform="matrix(1,0,0,1,262.2900085449219,56.4630012512207)"><path fill="rgb(252,226,204)" fill-opacity="1" d=" M-50.87099838256836,4.254000186920166 C-50.87099838256836,4.254000186920166 -25.71299934387207,12.394000053405762 10.175000190734863,15.354000091552734 C46.0620002746582,18.31399917602539 50.87099838256836,16.0939998626709 50.87099838256836,16.0939998626709 C50.87099838256836,16.0939998626709 37.63199996948242,-13.005000114440918 2.4049999713897705,-15.354000091552734 C-41.992000579833984,-18.312999725341797 -50.87099838256836,4.254000186920166 -50.87099838256836,4.254000186920166z"></path><path stroke-linecap="round" stroke-linejoin="round" fill-opacity="0" stroke="rgb(168,86,44)" stroke-opacity="1" stroke-width="10.185" d=" M-50.87099838256836,4.254000186920166 C-50.87099838256836,4.254000186920166 -25.71299934387207,12.394000053405762 10.175000190734863,15.354000091552734 C46.0620002746582,18.31399917602539 50.87099838256836,16.0939998626709 50.87099838256836,16.0939998626709 C50.87099838256836,16.0939998626709 37.63199996948242,-13.005000114440918 2.4049999713897705,-15.354000091552734 C-41.992000579833984,-18.312999725341797 -50.87099838256836,4.254000186920166 -50.87099838256836,4.254000186920166z"></path></g></g></g><g style="display: block;" transform="matrix(1,0,0,1,192.58099365234375,208.27301025390625)" opacity="1"><g opacity="1" transform="matrix(1,0,0,1,121.28600311279297,66.68299865722656)"><path fill="rgb(242,164,134)" fill-opacity="1" d=" M-73.08200073242188,15.848999977111816 C-61.45800018310547,4.5879998207092285 -44.358001708984375,-9.477999687194824 -5.943999767303467,-21.07200050354004 C40.5359992980957,-35.10100173950195 61.558998107910156,-29.042999267578125 70.13700103759766,-25.781999588012695 C78.71499633789062,-22.52199935913086 82.07099914550781,-15.274999618530273 79.46099853515625,-10.20300006866455 C76.8499984741211,-5.13100004196167 74.98500061035156,-18.898000717163086 54.472999572753906,-19.26099967956543 C40.29899978637695,-19.51099967956543 -9.300999641418457,-8.390999794006348 -30.93199920654297,0.30399999022483826 C-52.5629997253418,9 -76.35099792480469,35.10100173950195 -79.62100219726562,31.4689998626709 C-82.06999969482422,28.746999740600586 -75.49099731445312,18.183000564575195 -73.08200073242188,15.848999977111816z"></path></g><g opacity="1" transform="matrix(1,0,0,1,126.11299896240234,77.08399963378906)"><path fill="rgb(94,21,30)" fill-opacity="1" d=" M-65.25700378417969,11.003000259399414 C-65.95500183105469,10.722999572753906 -66.05799865722656,9.782999992370605 -65.44100189208984,9.352999687194824 C-59.0629997253418,4.9029998779296875 -31.010000228881836,-14.383999824523926 13.265999794006348,-23.43000030517578 C46.45500183105469,-30.211000442504883 63.939998626708984,-31.058000564575195 65.02999877929688,-23.43000030517578 C66.05799865722656,-16.232999801635742 63.86000061035156,8.041999816894531 22.52899932861328,19.614999771118164 C-18.336000442504883,31.058000564575195 -56.62099838256836,14.461000442504883 -65.25700378417969,11.003000259399414z"></path></g><g opacity="1" transform="matrix(1,0,0,1,217.92999267578125,46.0260009765625)"><path stroke-linecap="round" stroke-linejoin="round" fill-opacity="0" stroke="rgb(216,144,115)" stroke-opacity="1" stroke-width="11" d=" M-8.807000160217285,-18.525999069213867 C-8.807000160217285,-18.525999069213867 1.5460000038146973,-15.802000045776367 5.90500020980835,-1.6349999904632568 C8.807000160217285,7.796999931335449 2.0910000801086426,18.525999069213867 2.0910000801086426,18.525999069213867"></path></g><g opacity="1" transform="matrix(1,0,0,1,34.94300079345703,68.93599700927734)"><path stroke-linecap="round" stroke-linejoin="round" fill-opacity="0" stroke="rgb(216,144,115)" stroke-opacity="1" stroke-width="10.889" d=" M7.7210001945495605,-10.92300033569336 C7.7210001945495605,-10.92300033569336 -0.5529999732971191,-5.048999786376953 -5.460000038146973,3.322000026702881 C-7.71999979019165,7.177999973297119 -6.980000019073486,10.92300033569336 -6.980000019073486,10.92300033569336"></path></g><g opacity="1" transform="matrix(1,0,0,1,104.77899932861328,78.58200073242188)"><path fill="rgb(17,5,5)" fill-opacity="1" d=" M-28.878000259399414,-2.0429999828338623 C-28.878000259399414,-2.0429999828338623 0.27300000190734863,-19.207000732421875 19.3439998626709,-18.117000579833984 C38.41400146484375,-17.027000427246094 42.22800064086914,2.5880000591278076 37.051998138427734,8.3100004196167 C31.875999450683594,14.031000137329102 1.090000033378601,15.664999961853027 1.090000033378601,15.664999961853027 C1.090000033378601,15.664999961853027 -25.881999969482422,19.207000732421875 -34.05500030517578,12.395999908447266 C-42.22800064086914,5.585000038146973 -28.878000259399414,-2.0429999828338623 -28.878000259399414,-2.0429999828338623z"></path></g><g opacity="1" transform="matrix(1,0,0,1,122.03399658203125,89.16899871826172)"><path fill="rgb(211,49,108)" fill-opacity="1" d=" M-40.775001525878906,3.313999891281128 C-40.775001525878906,3.313999891281128 -25.888999938964844,-10.451000213623047 3.559999942779541,-10.451000213623047 C33.007999420166016,-10.451000213623047 40.775001525878906,-2.803999900817871 40.775001525878906,-2.803999900817871 C40.775001525878906,-2.803999900817871 28.801000595092773,6.373000144958496 4.206999778747559,8.411999702453613 C-20.38800048828125,10.451000213623047 -40.775001525878906,3.313999891281128 -40.775001525878906,3.313999891281128z"></path><path stroke-linecap="butt" stroke-linejoin="miter" fill-opacity="0" stroke-miterlimit="10" stroke="rgb(145,28,71)" stroke-opacity="1" stroke-width="4.744" d=" M-40.775001525878906,3.313999891281128 C-40.775001525878906,3.313999891281128 -25.888999938964844,-10.451000213623047 3.559999942779541,-10.451000213623047 C33.007999420166016,-10.451000213623047 40.775001525878906,-2.803999900817871 40.775001525878906,-2.803999900817871 C40.775001525878906,-2.803999900817871 28.801000595092773,6.373000144958496 4.206999778747559,8.411999702453613 C-20.38800048828125,10.451000213623047 -40.775001525878906,3.313999891281128 -40.775001525878906,3.313999891281128z"></path></g><g opacity="1" transform="matrix(1,0,0,1,126.11299896240234,77.08399963378906)"><path stroke-linecap="butt" stroke-linejoin="miter" fill-opacity="0" stroke-miterlimit="10" stroke="rgb(63,27,23)" stroke-opacity="1" stroke-width="10" d=" M-65.25700378417969,11.003000259399414 C-65.95500183105469,10.722999572753906 -66.05799865722656,9.782999992370605 -65.44100189208984,9.352999687194824 C-59.0629997253418,4.9029998779296875 -31.010000228881836,-14.383999824523926 13.265999794006348,-23.43000030517578 C46.45500183105469,-30.211000442504883 63.939998626708984,-31.058000564575195 65.02999877929688,-23.43000030517578 C66.05799865722656,-16.232999801635742 63.86000061035156,8.041999816894531 22.52899932861328,19.614999771118164 C-18.336000442504883,31.058000564575195 -56.62099838256836,14.461000442504883 -65.25700378417969,11.003000259399414z"></path></g><g opacity="0" transform="matrix(0.3430500030517578,0,0,0.17388001084327698,38.40623474121094,72.19625854492188)"><g opacity="1" transform="matrix(1,0,0,1,47.7760009765625,116.40299987792969)"><path fill="rgb(47,205,242)" fill-opacity="1" d=" M11.895000457763672,-16.82200050354004 C11.895000457763672,-16.82200050354004 -1.843999981880188,-17.847000122070312 -8.076000213623047,-2.0829999446868896 C-14.307999610900879,13.680999755859375 -4.552000045776367,17.040000915527344 1.6139999628067017,18.469999313354492 C7.78000020980835,19.899999618530273 12.083000183105469,15.383999824523926 14.515000343322754,1.5190000534057617 C16.94700050354004,-12.345000267028809 13.460000038146973,-15.116999626159668 13.460000038146973,-15.116999626159668"></path><path stroke-linecap="round" stroke-linejoin="round" fill-opacity="0" stroke="rgb(21,159,192)" stroke-opacity="1" stroke-width="7.681" d=" M11.895000457763672,-16.82200050354004 C11.895000457763672,-16.82200050354004 -1.843999981880188,-17.847000122070312 -8.076000213623047,-2.0829999446868896 C-14.307999610900879,13.680999755859375 -4.552000045776367,17.040000915527344 1.6139999628067017,18.469999313354492 C7.78000020980835,19.899999618530273 12.083000183105469,15.383999824523926 14.515000343322754,1.5190000534057617 C16.94700050354004,-12.345000267028809 13.460000038146973,-15.116999626159668 13.460000038146973,-15.116999626159668"></path></g><g opacity="1" transform="matrix(1,0,0,1,45.270999908447266,122.80400085449219)"><path fill="rgb(255,255,255)" fill-opacity="1" d=" M-1.4359999895095825,-7.28000020980835 C0.003000000026077032,-11.222999572753906 3.6710000038146973,-11.961999893188477 4.609000205993652,-7.815000057220459 C5.817999839782715,-2.4690001010894775 3.549999952316284,11.961999893188477 -1.1339999437332153,9.824000358581543 C-5.817999839782715,7.685999870300293 -4.005000114440918,0.5600000023841858 -2.7960000038146973,-3.181999921798706 C-2.740999937057495,-3.3510000705718994 -1.496000051498413,-7.116000175476074 -1.4359999895095825,-7.28000020980835z"></path></g></g><g opacity="0" transform="matrix(1,0,0,1,0,0)"><path fill="rgb(255,255,255)" fill-opacity="1" d=" M149.6929931640625,52.90599822998047 C110.28500366210938,56.03200149536133 67.70899963378906,84.99400329589844 67.70899963378906,84.99400329589844 C67.70899963378906,84.99400329589844 118.81300354003906,61.14699935913086 145.2209930419922,55.91600036621094 C173.0489959716797,50.40399932861328 183.52999877929688,57.35300064086914 186.3509979248047,57.915000915527344 C188.5540008544922,58.354000091552734 182.83299255371094,50.277000427246094 149.6929931640625,52.90599822998047z"></path><path stroke-linecap="butt" stroke-linejoin="miter" fill-opacity="0" stroke-miterlimit="4" stroke="rgb(85,114,155)" stroke-opacity="1" stroke-width="4.744" d=" M149.6929931640625,52.90599822998047 C110.28500366210938,56.03200149536133 67.70899963378906,84.99400329589844 67.70899963378906,84.99400329589844 C67.70899963378906,84.99400329589844 118.81300354003906,61.14699935913086 145.2209930419922,55.91600036621094 C173.0489959716797,50.40399932861328 183.52999877929688,57.35300064086914 186.3509979248047,57.915000915527344 C188.5540008544922,58.354000091552734 182.83299255371094,50.277000427246094 149.6929931640625,52.90599822998047z"></path></g><g opacity="0" transform="matrix(1,0,0,1,0,0)"><path stroke-linecap="round" stroke-linejoin="round" fill-opacity="0" stroke="rgb(145,28,71)" stroke-opacity="1" stroke-width="11" d=" M108.54900360107422,82.63800048828125 C108.54900360107422,82.63800048828125 120.27999877929688,82.03399658203125 126.4280014038086,83.1050033569336 C143.88699340820312,86.14600372314453 143.26400756835938,90.56099700927734 143.26400756835938,90.56099700927734"></path></g></g></g></g></svg>