<svg xmlns="http://www.w3.org/2000/svg" xmlns:xlink="http://www.w3.org/1999/xlink" viewBox="0 0 512 512" width="512" height="512" style="width: 100%; height: 100%; transform: translate3d(0,0,0); content-visibility: visible;" preserveAspectRatio="xMidYMid meet"><defs><clipPath id="__lottie_element_2"><rect width="512" height="512" x="0" y="0"></rect></clipPath><clipPath id="__lottie_element_4"><path d="M0,0 L512,0 L512,512 L0,512z"></path></clipPath><radialGradient id="__lottie_element_21" spreadMethod="pad" gradientUnits="userSpaceOnUse" cx="13.236000061035156" cy="-106.68699645996094" r="258.61496700216577" fx="9.460258976025177" fy="-61.73508095358743"><stop offset="21%" stop-color="rgb(252,236,219)"></stop><stop offset="61%" stop-color="rgb(248,211,184)"></stop><stop offset="100%" stop-color="rgb(243,187,149)"></stop></radialGradient><linearGradient id="__lottie_element_22" spreadMethod="pad" gradientUnits="userSpaceOnUse" x1="6.693999767303467" y1="-106.86100006103516" x2="27.680999755859375" y2="186.20199584960938"><stop offset="0%" stop-color="rgb(50,138,251)"></stop><stop offset="50%" stop-color="rgb(148,173,215)"></stop><stop offset="100%" stop-color="rgb(247,208,179)"></stop></linearGradient><mask id="__lottie_element_24"><path fill="url(#__lottie_element_23)" d=" M-9.824000358581543,194.24200439453125 C-28.288000106811523,191.8300018310547 -45.39899826049805,187.4239959716797 -60.957000732421875,180.97000122070312 C-82.85600280761719,171.88499450683594 -101.68199920654297,158.74400329589844 -116.87799835205078,141.3979949951172 C-129.48399353027344,127.00900268554688 -139.5919952392578,109.72699737548828 -146.88900756835938,89.46800231933594 C-147.30499267578125,88.31500244140625 -147.71499633789062,87.14800262451172 -148.11700439453125,85.96900177001953 C-154.68499755859375,66.7239990234375 -155.7538604736328,47.839569091796875 -156.7958526611328,29.286569595336914 C-158.3058624267578,2.413569688796997 -154.51284790039062,-22.859312057495117 -147.9158477783203,-46.15331268310547 C-142.6158447265625,-64.86531066894531 -136.01937866210938,-82.0168228149414 -127.88738250732422,-96.95682525634766 C-118.87738037109375,-113.50881958007812 -108.56787872314453,-126.2445068359375 -98.84687805175781,-136.47850036621094 C-87.00187683105469,-148.94850158691406 -76.23200225830078,-158.2811279296875 -62.417999267578125,-166.80712890625 C-48.75,-175.24313354492188 -34.88753890991211,-181.59613037109375 -19.750539779663086,-185.56613159179688 C-2.4545395374298096,-190.1021270751953 16.087984085083008,-191.96725463867188 34.66398239135742,-189.8312530517578 C52.3969841003418,-187.79225158691406 68.73955535888672,-183.20993041992188 82.79255676269531,-171.89393615722656 C92.15455627441406,-164.3549346923828 98.58841705322266,-155.88194274902344 107.26341247558594,-142.10194396972656 C115.24641418457031,-129.42193603515625 121.57331848144531,-113.7409439086914 129.59031677246094,-94.39594268798828 C135.4273223876953,-80.31094360351562 141.46034240722656,-68.31243133544922 146.26634216308594,-57.458431243896484 C155.45135498046875,-36.7164306640625 161.23878479003906,-20.598058700561523 165.4447784423828,-1.6500591039657593 C170.27577209472656,20.11294174194336 174.9980010986328,45.24800109863281 170.99600219726562,83.26799774169922 C169.4149932861328,98.28900146484375 166.39100646972656,111.21499633789062 162.33900451660156,122.3479995727539 C152.2259979248047,150.13800048828125 135.70899963378906,166.76400756835938 119.23200225830078,176.95700073242188 C105.27999877929688,185.58799743652344 91.35800170898438,189.6060028076172 81.37699890136719,191.88400268554688 C70.32599639892578,194.406005859375 56.31100082397461,195.99600219726562 41.25400161743164,196.5260009765625 C24.636999130249023,197.11099243164062 6.750999927520752,196.40699768066406 -9.824000358581543,194.24200439453125z"></path></mask><linearGradient id="__lottie_element_23" spreadMethod="pad" gradientUnits="userSpaceOnUse" x1="6.693999767303467" y1="-106.86100006103516" x2="27.680999755859375" y2="186.20199584960938"><stop stop-color="rgb(255,255,255)" offset="0%" stop-opacity="0.9300000071525574"></stop><stop stop-color="rgb(255,255,255)" offset="57%" stop-opacity="0.4650000035762787"></stop><stop stop-color="rgb(255,255,255)" offset="100%" stop-opacity="0"></stop></linearGradient><clipPath id="__lottie_element_35"><path d="M0,0 L512,0 L512,512 L0,512z"></path></clipPath><radialGradient id="__lottie_element_52" spreadMethod="pad" gradientUnits="userSpaceOnUse"><stop></stop><stop></stop><stop></stop></radialGradient><linearGradient id="__lottie_element_53" spreadMethod="pad" gradientUnits="userSpaceOnUse"><stop></stop><stop></stop><stop></stop></linearGradient><mask id="__lottie_element_55"><path fill="url(#__lottie_element_54)"></path></mask><linearGradient id="__lottie_element_54" spreadMethod="pad" gradientUnits="userSpaceOnUse"><stop stop-color="rgb(255,255,255)"></stop><stop stop-color="rgb(255,255,255)"></stop><stop stop-color="rgb(255,255,255)"></stop></linearGradient></defs><g clip-path="url(#__lottie_element_2)"><g clip-path="url(#__lottie_element_35)" style="display: none;"><g style="display: none;"><g></g><g><path></path><path stroke-linecap="butt" stroke-linejoin="miter" fill-opacity="0" stroke-miterlimit="10"></path></g><g><path fill="url(#__lottie_element_52)"></path></g><g><path fill="url(#__lottie_element_53)" mask="url(#__lottie_element_55)"></path></g><g><path stroke-linecap="round" stroke-linejoin="bevel" fill-opacity="0"></path></g></g><g style="display: none;"><g><path></path></g><g><path></path></g><g><path></path><path stroke-linecap="butt" stroke-linejoin="miter" fill-opacity="0" stroke-miterlimit="10"></path></g><g><path></path></g><g><g><path stroke-linecap="round" stroke-linejoin="round" fill-opacity="0"></path></g><g><path></path></g><g><path></path></g><g><path></path><path stroke-linecap="butt" stroke-linejoin="miter" fill-opacity="0" stroke-miterlimit="10"></path></g><g><path></path></g><g><g><path></path></g><g><path></path></g><g><path></path></g><g><path></path></g></g></g><g><g><path></path></g><g><path></path></g><g><path></path></g><g><path></path></g></g><g><path stroke-linecap="butt" stroke-linejoin="miter" fill-opacity="0" stroke-miterlimit="10"></path></g></g><g style="display: none;"><g><path></path><path stroke-linecap="round" stroke-linejoin="round" fill-opacity="0"></path></g><g><path></path><path stroke-linecap="round" stroke-linejoin="round" fill-opacity="0"></path></g></g><g style="display: none;"><g><g><path></path><path stroke-linecap="round" stroke-linejoin="round" fill-opacity="0"></path></g><g><path></path></g><g><path></path><path stroke-linecap="round" stroke-linejoin="round" fill-opacity="0"></path></g><g><g><path></path><path stroke-linecap="round" stroke-linejoin="round" fill-opacity="0"></path></g><g><path></path><path stroke-linecap="round" stroke-linejoin="round" fill-opacity="0"></path></g><g><path></path><path stroke-linecap="round" stroke-linejoin="round" fill-opacity="0"></path></g><g><path></path><path stroke-linecap="round" stroke-linejoin="round" fill-opacity="0"></path></g></g><g><g><path></path><path stroke-linecap="round" stroke-linejoin="round" fill-opacity="0"></path></g></g><g><path stroke-linecap="round" stroke-linejoin="round" fill-opacity="0"></path></g></g></g><g style="display: none;"><g><g><g><path></path></g><g><path stroke-linecap="round" stroke-linejoin="round" fill-opacity="0"></path></g></g><g><g><path></path></g><g><path stroke-linecap="round" stroke-linejoin="round" fill-opacity="0"></path></g></g><g><g><path></path></g><g><path stroke-linecap="round" stroke-linejoin="round" fill-opacity="0"></path></g></g><g><g><path></path></g><g><path stroke-linecap="round" stroke-linejoin="round" fill-opacity="0"></path></g></g><g><g><path></path></g><g><path stroke-linecap="round" stroke-linejoin="round" fill-opacity="0"></path></g></g></g></g><g style="display: none;"><g><g><g><path></path></g><g><path stroke-linecap="round" stroke-linejoin="round" fill-opacity="0"></path></g><g><path></path></g></g><g><g><path></path></g><g><path stroke-linecap="round" stroke-linejoin="round" fill-opacity="0"></path></g></g><g><g><path></path></g><g><path stroke-linecap="round" stroke-linejoin="round" fill-opacity="0"></path></g><g><path></path></g></g><g><g><path></path></g><g><path stroke-linecap="round" stroke-linejoin="round" fill-opacity="0"></path></g></g><g><g><path></path></g><g><path stroke-linecap="round" stroke-linejoin="round" fill-opacity="0"></path></g></g></g></g></g><g clip-path="url(#__lottie_element_4)" style="display: block;" transform="matrix(1.0078099966049194,0,0,1.0078099966049194,-4.999359130859375,-1.999359130859375)" opacity="1"><g style="display: block;" transform="matrix(1.2073858976364136,0,0,1.1261409521102905,-7.038614749908447,-1.3408679962158203)" opacity="1"><g opacity="1" transform="matrix(1,0,0,1,50.108001708984375,98.11199951171875)"></g><g opacity="1" transform="matrix(1,0,0,1,207.5030059814453,225.5659942626953)"><path fill="rgb(241,164,111)" fill-opacity="1" d=" M-9.824000358581543,194.24200439453125 C-28.288000106811523,191.8300018310547 -45.39899826049805,187.4239959716797 -60.957000732421875,180.97000122070312 C-82.85600280761719,171.88499450683594 -101.68199920654297,158.74400329589844 -116.87799835205078,141.3979949951172 C-129.48399353027344,127.00900268554688 -139.5919952392578,109.72699737548828 -146.88900756835938,89.46800231933594 C-147.30499267578125,88.31500244140625 -147.71499633789062,87.14800262451172 -148.11700439453125,85.96900177001953 C-154.68499755859375,66.7239990234375 -158.14999389648438,47.61899948120117 -159.19200134277344,29.06599998474121 C-160.70199584960938,2.193000078201294 -157.1269989013672,-23.520000457763672 -150.52999877929688,-46.81399917602539 C-145.22999572753906,-65.5260009765625 -137.97999572753906,-82.677001953125 -129.84800720214844,-97.61699676513672 C-120.83799743652344,-114.16899871826172 -110.74600219726562,-128.00599670410156 -101.0250015258789,-138.24000549316406 C-89.18000030517578,-150.7100067138672 -76.23200225830078,-161.36399841308594 -62.417999267578125,-169.88999938964844 C-48.75,-178.3260040283203 -34.23400115966797,-184.6790008544922 -19.097000122070312,-188.6490020751953 C-1.8009999990463257,-193.18499755859375 16.305999755859375,-194.61000061035156 34.88199996948242,-192.4739990234375 C52.6150016784668,-190.43499755859375 67.86799621582031,-185.19200134277344 81.9209976196289,-173.87600708007812 C91.28299713134766,-166.33700561523438 100.11299896240234,-156.1020050048828 108.78800201416016,-142.32200622558594 C116.77100372314453,-129.64199829101562 124.62300109863281,-113.96099853515625 132.63999938964844,-94.61599731445312 C138.4770050048828,-80.53099822998047 143.85699462890625,-68.53299713134766 148.66299438476562,-57.67900085449219 C157.84800720214844,-36.9370002746582 164.94200134277344,-20.378000259399414 169.1479949951172,-1.4299999475479126 C173.97900390625,20.33300018310547 174.9980010986328,45.24800109863281 170.99600219726562,83.26799774169922 C169.4149932861328,98.28900146484375 166.39100646972656,111.21499633789062 162.33900451660156,122.3479995727539 C152.2259979248047,150.13800048828125 135.70899963378906,166.76400756835938 119.23200225830078,176.95700073242188 C105.27999877929688,185.58799743652344 91.35800170898438,189.6060028076172 81.37699890136719,191.88400268554688 C70.32599639892578,194.406005859375 56.31100082397461,195.99600219726562 41.25400161743164,196.5260009765625 C24.636999130249023,197.11099243164062 6.750999927520752,196.40699768066406 -9.824000358581543,194.24200439453125z"></path><path stroke-linecap="butt" stroke-linejoin="miter" fill-opacity="0" stroke-miterlimit="10" stroke="rgb(181,95,48)" stroke-opacity="1" stroke-width="10.879" d=" M-9.824000358581543,194.24200439453125 C-28.288000106811523,191.8300018310547 -45.39899826049805,187.4239959716797 -60.957000732421875,180.97000122070312 C-82.85600280761719,171.88499450683594 -101.68199920654297,158.74400329589844 -116.87799835205078,141.3979949951172 C-129.48399353027344,127.00900268554688 -139.5919952392578,109.72699737548828 -146.88900756835938,89.46800231933594 C-147.30499267578125,88.31500244140625 -147.71499633789062,87.14800262451172 -148.11700439453125,85.96900177001953 C-154.68499755859375,66.7239990234375 -158.14999389648438,47.61899948120117 -159.19200134277344,29.06599998474121 C-160.70199584960938,2.193000078201294 -157.1269989013672,-23.520000457763672 -150.52999877929688,-46.81399917602539 C-145.22999572753906,-65.5260009765625 -137.97999572753906,-82.677001953125 -129.84800720214844,-97.61699676513672 C-120.83799743652344,-114.16899871826172 -110.74600219726562,-128.00599670410156 -101.0250015258789,-138.24000549316406 C-89.18000030517578,-150.7100067138672 -76.23200225830078,-161.36399841308594 -62.417999267578125,-169.88999938964844 C-48.75,-178.3260040283203 -34.23400115966797,-184.6790008544922 -19.097000122070312,-188.6490020751953 C-1.8009999990463257,-193.18499755859375 16.305999755859375,-194.61000061035156 34.88199996948242,-192.4739990234375 C52.6150016784668,-190.43499755859375 67.86799621582031,-185.19200134277344 81.9209976196289,-173.87600708007812 C91.28299713134766,-166.33700561523438 100.11299896240234,-156.1020050048828 108.78800201416016,-142.32200622558594 C116.77100372314453,-129.64199829101562 124.62300109863281,-113.96099853515625 132.63999938964844,-94.61599731445312 C138.4770050048828,-80.53099822998047 143.85699462890625,-68.53299713134766 148.66299438476562,-57.67900085449219 C157.84800720214844,-36.9370002746582 164.94200134277344,-20.378000259399414 169.1479949951172,-1.4299999475479126 C173.97900390625,20.33300018310547 174.9980010986328,45.24800109863281 170.99600219726562,83.26799774169922 C169.4149932861328,98.28900146484375 166.39100646972656,111.21499633789062 162.33900451660156,122.3479995727539 C152.2259979248047,150.13800048828125 135.70899963378906,166.76400756835938 119.23200225830078,176.95700073242188 C105.27999877929688,185.58799743652344 91.35800170898438,189.6060028076172 81.37699890136719,191.88400268554688 C70.32599639892578,194.406005859375 56.31100082397461,195.99600219726562 41.25400161743164,196.5260009765625 C24.636999130249023,197.11099243164062 6.750999927520752,196.40699768066406 -9.824000358581543,194.24200439453125z"></path></g><g opacity="1" transform="matrix(0.9100000262260437,0,0,0.8769500255584717,209.2100067138672,218.93800354003906)"><path fill="url(#__lottie_element_21)" fill-opacity="1" d=" M-9.824000358581543,194.24200439453125 C-28.288000106811523,191.8300018310547 -45.39899826049805,187.4239959716797 -60.957000732421875,180.97000122070312 C-82.85600280761719,171.88499450683594 -101.68199920654297,158.74400329589844 -116.87799835205078,141.3979949951172 C-129.48399353027344,127.00900268554688 -139.5919952392578,109.72699737548828 -146.88900756835938,89.46800231933594 C-147.30499267578125,88.31500244140625 -147.71499633789062,87.14800262451172 -148.11700439453125,85.96900177001953 C-154.68499755859375,66.7239990234375 -158.14999389648438,47.61899948120117 -159.19200134277344,29.06599998474121 C-160.70199584960938,2.193000078201294 -157.1269989013672,-23.520000457763672 -150.52999877929688,-46.81399917602539 C-145.22999572753906,-65.5260009765625 -137.97999572753906,-82.677001953125 -129.84800720214844,-97.61699676513672 C-120.83799743652344,-114.16899871826172 -110.74600219726562,-128.00599670410156 -101.0250015258789,-138.24000549316406 C-89.18000030517578,-150.7100067138672 -76.23200225830078,-161.36399841308594 -62.417999267578125,-169.88999938964844 C-48.75,-178.3260040283203 -34.23400115966797,-184.6790008544922 -19.097000122070312,-188.6490020751953 C-1.8009999990463257,-193.18499755859375 16.305999755859375,-194.61000061035156 34.88199996948242,-192.4739990234375 C52.6150016784668,-190.43499755859375 67.86799621582031,-185.19200134277344 81.9209976196289,-173.87600708007812 C91.28299713134766,-166.33700561523438 100.11299896240234,-156.1020050048828 108.78800201416016,-142.32200622558594 C116.77100372314453,-129.64199829101562 124.62300109863281,-113.96099853515625 132.63999938964844,-94.61599731445312 C138.4770050048828,-80.53099822998047 143.85699462890625,-68.53299713134766 148.66299438476562,-57.67900085449219 C157.84800720214844,-36.9370002746582 164.94200134277344,-20.378000259399414 169.1479949951172,-1.4299999475479126 C173.97900390625,20.33300018310547 174.9980010986328,45.24800109863281 170.99600219726562,83.26799774169922 C169.4149932861328,98.28900146484375 166.39100646972656,111.21499633789062 162.33900451660156,122.3479995727539 C152.2259979248047,150.13800048828125 135.70899963378906,166.76400756835938 119.23200225830078,176.95700073242188 C105.27999877929688,185.58799743652344 91.35800170898438,189.6060028076172 81.37699890136719,191.88400268554688 C70.32599639892578,194.406005859375 56.31100082397461,195.99600219726562 41.25400161743164,196.5260009765625 C24.636999130249023,197.11099243164062 6.750999927520752,196.40699768066406 -9.824000358581543,194.24200439453125z"></path></g><g opacity="0.78947" transform="matrix(1,0,0,1,207.5030059814453,225.5659942626953)"><path fill="url(#__lottie_element_22)" mask="url(#__lottie_element_24)" fill-opacity="1" d="M0 0 M-9.824000358581543,194.24200439453125 C-28.288000106811523,191.8300018310547 -45.39899826049805,187.4239959716797 -60.957000732421875,180.97000122070312 C-82.85600280761719,171.88499450683594 -101.68199920654297,158.74400329589844 -116.87799835205078,141.3979949951172 C-129.48399353027344,127.00900268554688 -139.5919952392578,109.72699737548828 -146.88900756835938,89.46800231933594 C-147.30499267578125,88.31500244140625 -147.71499633789062,87.14800262451172 -148.11700439453125,85.96900177001953 C-154.68499755859375,66.7239990234375 -155.7538604736328,47.839569091796875 -156.7958526611328,29.286569595336914 C-158.3058624267578,2.413569688796997 -154.51284790039062,-22.859312057495117 -147.9158477783203,-46.15331268310547 C-142.6158447265625,-64.86531066894531 -136.01937866210938,-82.0168228149414 -127.88738250732422,-96.95682525634766 C-118.87738037109375,-113.50881958007812 -108.56787872314453,-126.2445068359375 -98.84687805175781,-136.47850036621094 C-87.00187683105469,-148.94850158691406 -76.23200225830078,-158.2811279296875 -62.417999267578125,-166.80712890625 C-48.75,-175.24313354492188 -34.88753890991211,-181.59613037109375 -19.750539779663086,-185.56613159179688 C-2.4545395374298096,-190.1021270751953 16.087984085083008,-191.96725463867188 34.66398239135742,-189.8312530517578 C52.3969841003418,-187.79225158691406 68.73955535888672,-183.20993041992188 82.79255676269531,-171.89393615722656 C92.15455627441406,-164.3549346923828 98.58841705322266,-155.88194274902344 107.26341247558594,-142.10194396972656 C115.24641418457031,-129.42193603515625 121.57331848144531,-113.7409439086914 129.59031677246094,-94.39594268798828 C135.4273223876953,-80.31094360351562 141.46034240722656,-68.31243133544922 146.26634216308594,-57.458431243896484 C155.45135498046875,-36.7164306640625 161.23878479003906,-20.598058700561523 165.4447784423828,-1.6500591039657593 C170.27577209472656,20.11294174194336 174.9980010986328,45.24800109863281 170.99600219726562,83.26799774169922 C169.4149932861328,98.28900146484375 166.39100646972656,111.21499633789062 162.33900451660156,122.3479995727539 C152.2259979248047,150.13800048828125 135.70899963378906,166.76400756835938 119.23200225830078,176.95700073242188 C105.27999877929688,185.58799743652344 91.35800170898438,189.6060028076172 81.37699890136719,191.88400268554688 C70.32599639892578,194.406005859375 56.31100082397461,195.99600219726562 41.25400161743164,196.5260009765625 C24.636999130249023,197.11099243164062 6.750999927520752,196.40699768066406 -9.824000358581543,194.24200439453125z"></path></g><g opacity="1" transform="matrix(1,0,0,1,0,0)"><path stroke-linecap="round" stroke-linejoin="bevel" fill-opacity="0" stroke="rgb(44,67,130)" stroke-opacity="0.7000000000000001" stroke-width="11" d=" M49.33700180053711,219.69500732421875 C49.33700180053711,219.69500732421875 64.86629486083984,65.88683319091797 188.85699462890625,37.68199920654297 C279.7095031738281,17.00638198852539 310.6324157714844,64.67565155029297 324.285400390625,90.55464935302734 C337.93841552734375,116.43364715576172 347.7191162109375,157.1779022216797 354.5461120605469,168.3918914794922 C361.37310791015625,179.60589599609375 372.2949523925781,198.24481201171875 372.2949523925781,198.24481201171875"></path></g></g><g style="display: block;" transform="matrix(1.3606841564178467,0,0,1.0976814031600952,34.727115631103516,17.698122024536133)" opacity="1"><g opacity="1" transform="matrix(1,0,0,1,209.48500061035156,25.87700080871582)"><path fill="rgb(60,106,180)" fill-opacity="0.38" d=" M-58.582000732421875,1.0052000284194946 C-62.76319885253906,0.19670000672340393 -52.96390151977539,8.44849967956543 -48.8025016784668,9.363200187683105 C-38.60309982299805,11.464400291442871 -34.59880065917969,13.766500473022461 -2.533799886703491,15.501500129699707 C29.726200103759766,17.247499465942383 34.719600677490234,30.34630012512207 40.39360046386719,28.28730010986328 C50.01459884643555,24.796300888061523 40.833499908447266,11.265700340270996 34.60850143432617,12.42870044708252 C28.38249969482422,13.592700004577637 26.723100662231445,6.262599945068359 17.102100372314453,6.262599945068359 C7.481100082397461,6.262599945068359 -3.3422000408172607,3.170099973678589 -14.96560001373291,0.4936000108718872 C-23.28230094909668,-1.5077999830245972 -29.280799865722656,0.2809000015258789 -36.99150085449219,-1.152899980545044 C-41.20840072631836,-1.7477999925613403 -19.767000198364258,9.072799682617188 -19.767000198364258,9.072799682617188 C-17.732099533081055,8.65250015258789 -28.811399459838867,0.9101999998092651 -46.22800064086914,-0.08730000257492065 C-50.145301818847656,-0.4377000033855438 -52.373199462890625,2.3266000747680664 -58.582000732421875,1.0052000284194946z"></path></g><g opacity="1" transform="matrix(1,0,0,1,222.00399780273438,86.88600158691406)"><path fill="rgb(52,122,216)" fill-opacity="1" d=" M-23.685691833496094,35.213382720947266 C-24.223691940307617,34.89738464355469 -24.760692596435547,34.59738540649414 -25.313692092895508,34.3073844909668 C-29.060691833496094,32.344383239746094 -51.55807876586914,25.573999404907227 -56.30807876586914,8.456999778747559 C-61.674076080322266,-10.878000259399414 -37.34199905395508,-27.00492286682129 -27.586000442504883,-36.18892288208008 C-17.829999923706055,-45.3729248046875 -4.658999919891357,-51.17392349243164 8.51099967956543,-45.8569221496582 C21.68199920654297,-40.53992462158203 46.07099914550781,-11.5369234085083 51.4370002746582,9.249076843261719 C56.803001403808594,30.034076690673828 51.73269271850586,51.161460876464844 24.40976905822754,50.11492156982422 C7.228076934814453,49.92499923706055 -18.771692276000977,38.094383239746094 -23.685691833496094,35.213382720947266z"></path></g><g opacity="1" transform="matrix(1,0,0,1,223.28900146484375,76.18199920654297)"><path fill="rgb(201,194,229)" fill-opacity="1" d=" M-23.264856338500977,33.30928421020508 C-23.789857864379883,32.99928665161133 -25.37071418762207,32.703285217285156 -25.909713745117188,32.41828536987305 C-29.56171417236328,30.487285614013672 -46.667572021484375,23.66871452331543 -51.69757080078125,9.029571533203125 C-58.16471481323242,-9.588285446166992 -35.89899826049805,-28.3799991607666 -26.388999938964844,-37.415000915527344 C-16.878999710083008,-46.44900131225586 -4.041999816894531,-52.154998779296875 8.795999526977539,-46.92399978637695 C21.634000778198242,-41.694000244140625 45.40800094604492,-13.164999961853027 50.638999938964844,7.281000137329102 C55.86899948120117,27.726999282836914 56.611141204833984,48.4302864074707 29.878429412841797,49.5989990234375 C10.857999801635742,50.55500030517578 -18.474857330322266,36.14328384399414 -23.264856338500977,33.30928421020508z"></path><path stroke-linecap="butt" stroke-linejoin="miter" fill-opacity="0" stroke-miterlimit="10" stroke="rgb(48,67,126)" stroke-opacity="1" stroke-width="9.611" d=" M-23.264856338500977,33.30928421020508 C-23.789857864379883,32.99928665161133 -25.37071418762207,32.703285217285156 -25.909713745117188,32.41828536987305 C-29.56171417236328,30.487285614013672 -46.667572021484375,23.66871452331543 -51.69757080078125,9.029571533203125 C-58.16471481323242,-9.588285446166992 -35.89899826049805,-28.3799991607666 -26.388999938964844,-37.415000915527344 C-16.878999710083008,-46.44900131225586 -4.041999816894531,-52.154998779296875 8.795999526977539,-46.92399978637695 C21.634000778198242,-41.694000244140625 45.40800094604492,-13.164999961853027 50.638999938964844,7.281000137329102 C55.86899948120117,27.726999282836914 56.611141204833984,48.4302864074707 29.878429412841797,49.5989990234375 C10.857999801635742,50.55500030517578 -18.474857330322266,36.14328384399414 -23.264856338500977,33.30928421020508z"></path></g><g opacity="1" transform="matrix(1,0,0,1,220.2740020751953,74.15399932861328)"><path fill="rgb(255,255,255)" fill-opacity="1" d=" M-19.535999298095703,28.485000610351562 C-19.952999114990234,28.238000869750977 -20.3700008392334,28.0049991607666 -20.79800033569336,27.777999877929688 C-23.700000762939453,26.243999481201172 -36.55799865722656,18.78700065612793 -40.23699951171875,5.4079999923706055 C-44.393001556396484,-9.704000473022461 -28.524999618530273,-22.549999237060547 -20.9689998626709,-29.729000091552734 C-13.413000106811523,-36.90700149536133 2.0810000896453857,-30.19099998474121 6.988999843597412,-37.28499984741211 C11.897000312805176,-44.37900161743164 34.224998474121094,-14.402999877929688 40.236000061035156,5.785999774932861 C46.24700164794922,25.975000381469727 43.63600158691406,37.14400100708008 22.479000091552734,39.4109992980957 C3.5260000228881836,41.441001892089844 -15.729999542236328,30.73699951171875 -19.535999298095703,28.485000610351562z"></path></g><g opacity="1" transform="matrix(1.0685399770736694,0,0,1.055209994316101,-4.8658599853515625,-6.450126647949219)"><g opacity="1" transform="matrix(1,0,0,1,89.375,160.38400268554688)"><path stroke-linecap="round" stroke-linejoin="round" fill-opacity="0" stroke="rgb(68,126,208)" stroke-opacity="1" stroke-width="9.611" d=" M25.89299964904785,-27.93000030517578 C25.89299964904785,-27.93000030517578 21.238000869750977,-4.072999954223633 6.691999912261963,11.055999755859375 C-7.855000019073486,26.18400001525879 -25.89299964904785,27.93000030517578 -25.89299964904785,27.93000030517578"></path></g><g opacity="1" transform="matrix(1,0,0,1,41.95399856567383,93.17900085449219)"><path fill="rgb(40,102,190)" fill-opacity="0.38" d=" M5.403148174285889,32.690147399902344 C12.515148162841797,27.76614761352539 25.9129638671875,17.17807388305664 38.71396255493164,-9.586925506591797 C48.93596267700195,-30.960926055908203 54.02899932861328,-31.746334075927734 48.79199981689453,-34.073333740234375 C43.555999755859375,-36.40133285522461 40.50570297241211,-32.24100112915039 34.75344467163086,-26.552852630615234 C27.26951789855957,-19.56036949157715 22.10422134399414,-4.6415557861328125 15.121222496032715,1.176444411277771 C8.139222145080566,6.995444297790527 -1.5129629373550415,18.957740783691406 0.2330370396375656,23.612741470336914 C1.9780369997024536,28.26774024963379 11.117630004882812,10.54792594909668 11.117630004882812,10.54792594909668 C11.117630004882812,10.54792594909668 -5.254592418670654,26.0081844329834 -4.672592639923096,31.244184494018555 C-4.090592384338379,36.48118591308594 -2.1608519554138184,37.927146911621094 5.403148174285889,32.690147399902344z"></path></g><g opacity="1" transform="matrix(1,0,0,1,80.10600280761719,126.16100311279297)"><path fill="rgb(94,131,193)" fill-opacity="1" d=" M-33.762001037597656,-31.253000259399414 C-27.867000579833984,-43.084999084472656 -17.14900016784668,-52.34299850463867 2.680000066757202,-49.25699996948242 C31.31399917602539,-44.79899978637695 47.15999984741211,-34.3390007019043 50.375999450683594,-18.906999588012695 C53.590999603271484,-3.4739999771118164 36.97800064086914,17.617000579833984 16.61400032043457,35.106998443603516 C-3.4549999237060547,52.34299850463867 -29.187000274658203,49.6619987487793 -41.26499938964844,32.02000045776367 C-53.590999603271484,14.015999794006348 -41.71699905395508,-15.286999702453613 -33.762001037597656,-31.253000259399414z"></path></g><g opacity="1" transform="matrix(1,0,0,1,83.3489990234375,117.82499694824219)"><path fill="rgb(200,194,228)" fill-opacity="1" d=" M-29.95599937438965,-28.886999130249023 C-24.72599983215332,-39.823001861572266 -15.21500015258789,-48.38199996948242 2.378000020980835,-45.52899932861328 C27.784000396728516,-41.409000396728516 41.84199905395508,-31.739999771118164 44.69499969482422,-17.475000381469727 C47.54800033569336,-3.2109999656677246 32.80799865722656,16.284000396728516 14.739999771118164,32.45100021362305 C-3.065999984741211,48.38199996948242 -25.89699935913086,45.90399932861328 -36.612998962402344,29.597999572753906 C-47.54899978637695,12.956000328063965 -37.013999938964844,-14.130000114440918 -29.95599937438965,-28.886999130249023z"></path><path stroke-linecap="butt" stroke-linejoin="miter" fill-opacity="0" stroke-miterlimit="10" stroke="rgb(72,65,102)" stroke-opacity="1" stroke-width="9.611" d=" M-29.95599937438965,-28.886999130249023 C-24.72599983215332,-39.823001861572266 -15.21500015258789,-48.38199996948242 2.378000020980835,-45.52899932861328 C27.784000396728516,-41.409000396728516 41.84199905395508,-31.739999771118164 44.69499969482422,-17.475000381469727 C47.54800033569336,-3.2109999656677246 32.80799865722656,16.284000396728516 14.739999771118164,32.45100021362305 C-3.065999984741211,48.38199996948242 -25.89699935913086,45.90399932861328 -36.612998962402344,29.597999572753906 C-47.54899978637695,12.956000328063965 -37.013999938964844,-14.130000114440918 -29.95599937438965,-28.886999130249023z"></path></g><g opacity="1" transform="matrix(1,0,0,1,84.46099853515625,111.91799926757812)"><path fill="rgb(255,255,255)" fill-opacity="1" d=" M-22.582000732421875,-21.777000427246094 C-18.638999938964844,-30.020999908447266 -11.470000267028809,-36.472999572753906 1.7929999828338623,-34.323001861572266 C20.94499969482422,-31.216999053955078 31.54400062561035,-23.92799949645996 33.69499969482422,-13.173999786376953 C35.845001220703125,-2.4210000038146973 24.732999801635742,12.276000022888184 11.112000465393066,24.46299934387207 C-2.311000108718872,36.472999572753906 -19.52199935913086,34.60499954223633 -27.600000381469727,22.312000274658203 C-35.845001220703125,9.767000198364258 -27.902999877929688,-10.652000427246094 -22.582000732421875,-21.777000427246094z"></path></g><g opacity="1" transform="matrix(1.194309949874878,0,0,1.1672199964523315,-3.8121414184570312,-13.801666259765625)"><g opacity="1" transform="matrix(1,0,0,1,68.0260009765625,121.41500091552734)"><path fill="rgb(26,9,45)" fill-opacity="1" d=" M-5.559000015258789,-12.11400032043457 C-9.467000007629395,-8.720999717712402 -18.048999786376953,2.2060000896453857 -4.916999816894531,9.725000381469727 C6.428999900817871,16.222000122070312 18.049999237060547,1.1859999895095825 10.512999534606934,-10.272000312805176 C7.7230000495910645,-14.512999534606934 -0.824999988079071,-16.222999572753906 -5.559000015258789,-12.11400032043457z"></path></g><g opacity="1" transform="matrix(1,0,0,1,69.5510025024414,124.25599670410156)"><path fill="rgb(94,62,155)" fill-opacity="1" d=" M1.059999942779541,-3.438999891281128 C-0.7799999713897705,-1.8420000076293945 -11.152999877929688,1.2769999504089355 -4.758999824523926,4.415999889373779 C3.242000102996826,8.343999862670898 11.154000282287598,-0.9539999961853027 7.605999946594238,-6.3480000495910645 C6.293000221252441,-8.345000267028809 3.2880001068115234,-5.373000144958496 1.059999942779541,-3.438999891281128z"></path></g><g opacity="1" transform="matrix(1,0,0,1,57.24700164794922,130.3179931640625)"><path fill="rgb(255,255,255)" fill-opacity="1" d=" M-5.072999954223633,-4.458000183105469 C-6.749000072479248,-2.427000045776367 -9.928000450134277,3.634000062942505 -1.565999984741211,5.521999835968018 C5.6579999923706055,7.1539998054504395 9.928000450134277,-1.1629999876022339 4.0980000495910645,-5.535999774932861 C1.940000057220459,-7.1539998054504395 -3.0429999828338623,-6.918000221252441 -5.072999954223633,-4.458000183105469z"></path></g><g opacity="1" transform="matrix(1,0,0,1,77.32099914550781,111.19100189208984)"><path fill="rgb(255,255,255)" fill-opacity="1" d=" M-2.4070000648498535,-2.2929999828338623 C-3.2019999027252197,-1.2480000257492065 -4.710000038146973,1.8700000047683716 -0.7440000176429749,2.8410000801086426 C2.683000087738037,3.680000066757202 4.709000110626221,-0.5989999771118164 1.9429999589920044,-2.8480000495910645 C0.9200000166893005,-3.680999994277954 -1.444000005722046,-3.558000087738037 -2.4070000648498535,-2.2929999828338623z"></path></g></g></g><g opacity="1" transform="matrix(1.2153400182724,0,0,1.2977499961853027,-72.40034484863281,4.117820739746094)"><g opacity="1" transform="matrix(1,0,0,1,236.7030029296875,66.38300323486328)"><path fill="rgb(26,9,45)" fill-opacity="1" d=" M-9.491999626159668,-8.340999603271484 C-12.628000259399414,-4.540999889373779 -18.577999114990234,6.802000045776367 -2.931999921798706,10.335000038146973 C10.586999893188477,13.387999534606934 18.57699966430664,-2.177000045776367 7.668000221252441,-10.359000205993652 C3.630000114440918,-13.38700008392334 -5.692999839782715,-12.944000244140625 -9.491999626159668,-8.340999603271484z"></path></g><g opacity="1" transform="matrix(1,0,0,1,238.29100036621094,68.97899627685547)"><path fill="rgb(94,62,155)" fill-opacity="1" d=" M1.059999942779541,-3.438999891281128 C-0.7799999713897705,-1.8420000076293945 -11.152999877929688,1.2769999504089355 -4.758999824523926,4.415999889373779 C3.242000102996826,8.343999862670898 11.152999877929688,-0.9539999961853027 7.605000019073486,-6.3480000495910645 C6.291999816894531,-8.345000267028809 3.2880001068115234,-5.373000144958496 1.059999942779541,-3.438999891281128z"></path></g><g opacity="1" transform="matrix(1,0,0,1,225.28199768066406,76.12200164794922)"><path fill="rgb(255,255,255)" fill-opacity="1" d=" M-4.8460001945495605,-4.258999824523926 C-6.447000026702881,-2.319000005722046 -9.486000061035156,3.4719998836517334 -1.496999979019165,5.276000022888184 C5.406000137329102,6.835000038146973 9.486000061035156,-1.1109999418258667 3.9159998893737793,-5.289000034332275 C1.8539999723434448,-6.835000038146973 -2.9059998989105225,-6.609000205993652 -4.8460001945495605,-4.258999824523926z"></path></g><g opacity="1" transform="matrix(1,0,0,1,245.1510009765625,59.797000885009766)"><path fill="rgb(255,255,255)" fill-opacity="1" d=" M-2.2990000247955322,-2.190999984741211 C-3.059000015258789,-1.1929999589920044 -4.499000072479248,1.7869999408721924 -0.7099999785423279,2.7149999141693115 C2.563999891281128,3.5169999599456787 4.499000072479248,-0.5720000267028809 1.8569999933242798,-2.7209999561309814 C0.8790000081062317,-3.5169999599456787 -1.378999948501587,-3.4000000953674316 -2.2990000247955322,-2.190999984741211z"></path></g></g><g opacity="1" transform="matrix(1,0,0,1,223.28900146484375,76.18199920654297)"><path stroke-linecap="butt" stroke-linejoin="miter" fill-opacity="0" stroke-miterlimit="10" stroke="rgb(48,67,126)" stroke-opacity="1" stroke-width="9.611" d=" M-23.264856338500977,33.30928421020508 C-23.789857864379883,32.99928665161133 -25.37071418762207,32.703285217285156 -25.909713745117188,32.41828536987305 C-29.56171417236328,30.487285614013672 -46.667572021484375,23.66871452331543 -51.69757080078125,9.029571533203125 C-58.16471481323242,-9.588285446166992 -35.89899826049805,-28.3799991607666 -26.388999938964844,-37.415000915527344 C-16.878999710083008,-46.44900131225586 -4.041999816894531,-52.154998779296875 8.795999526977539,-46.92399978637695 C21.634000778198242,-41.694000244140625 45.40800094604492,-13.164999961853027 50.638999938964844,7.281000137329102 C55.86899948120117,27.726999282836914 56.611141204833984,48.4302864074707 29.878429412841797,49.5989990234375 C10.857999801635742,50.55500030517578 -18.474857330322266,36.14328384399414 -23.264856338500977,33.30928421020508z"></path></g></g><g style="display: block;" transform="matrix(1.3606841564178467,0,0,1.0976814031600952,27.590307235717773,-1.7681653499603271)" opacity="1"><g opacity="1" transform="matrix(1,0,0,1,50.108001708984375,98.11199951171875)"><path fill="rgb(68,36,25)" fill-opacity="1" d=" M4.175920009613037,-0.76528000831604 C9.057439804077148,-8.335240364074707 10.902999877929688,-10.379599571228027 17.30784034729004,-16.36079978942871 C32.53211975097656,-30.63680076599121 49.24795913696289,-38.03675842285156 46.666080474853516,-45.53691864013672 C43.13404083251953,-56.08591842651367 28.033119201660156,-45.2476806640625 16.149959564208984,-35.40760040283203 C7.997159957885742,-28.65239906311035 -5.278840065002441,-13.53279972076416 -9.373040199279785,-5.883080005645752 C-13.624480247497559,2.0850400924682617 -24.47439956665039,18.303199768066406 -18.059879302978516,25.97987937927246 C-11.977319717407227,33.208961486816406 -9.51591968536377,12.965559959411621 -9.51591968536377,12.965559959411621 C-9.51591968536377,12.965559959411621 -6.000999927520752,21.30780029296875 -0.8700000047683716,7.982800006866455 C1.0240000486373901,3.0657999515533447 -0.7698799967765808,6.9731597900390625 4.175920009613037,-0.76528000831604z"></path><path stroke-linecap="round" stroke-linejoin="round" fill-opacity="0" stroke="rgb(63,30,17)" stroke-opacity="1" stroke-width="7.475" d=" M4.175920009613037,-0.76528000831604 C9.057439804077148,-8.335240364074707 10.902999877929688,-10.379599571228027 17.30784034729004,-16.36079978942871 C32.53211975097656,-30.63680076599121 49.24795913696289,-38.03675842285156 46.666080474853516,-45.53691864013672 C43.13404083251953,-56.08591842651367 28.033119201660156,-45.2476806640625 16.149959564208984,-35.40760040283203 C7.997159957885742,-28.65239906311035 -5.278840065002441,-13.53279972076416 -9.373040199279785,-5.883080005645752 C-13.624480247497559,2.0850400924682617 -24.47439956665039,18.303199768066406 -18.059879302978516,25.97987937927246 C-11.977319717407227,33.208961486816406 -9.51591968536377,12.965559959411621 -9.51591968536377,12.965559959411621 C-9.51591968536377,12.965559959411621 -6.000999927520752,21.30780029296875 -0.8700000047683716,7.982800006866455 C1.0240000486373901,3.0657999515533447 -0.7698799967765808,6.9731597900390625 4.175920009613037,-0.76528000831604z"></path></g><g opacity="1" transform="matrix(1,0,0,1,217.93600463867188,30.597999572753906)"><path fill="rgb(68,36,25)" fill-opacity="1" d=" M-50.090599060058594,-2.9353599548339844 C-53.46348190307617,-0.1390399932861328 -49.940799713134766,10.438360214233398 -41.600120544433594,6.804279804229736 C-34.40283966064453,3.700040102005005 -13.157440185546875,2.536400079727173 8.395879745483398,6.363480091094971 C26.101280212402344,9.437959671020508 27.58371925354004,16.89192008972168 33.628841400146484,17.905080795288086 C40.93428039550781,19.10256004333496 41.18891906738281,11.184479713439941 33.6478385925293,6.368879795074463 C27.23628044128418,2.444999933242798 21.4460391998291,-1.2297199964523315 17.23423957824707,-2.9599199295043945 C8.951519966125488,-6.497200012207031 7.931119918823242,-5.919879913330078 -3.8378000259399414,-9.200039863586426 C-10.398679733276367,-11.111160278320312 -15.574440002441406,-12.323360443115234 -26.250160217285156,-11.348560333251953 C-29.759920120239258,-10.851160049438477 -37.02220153808594,-9.726360321044922 -33.71112060546875,-6.22760009765625 C-31.36236000061035,-3.7463600635528564 -32.24956130981445,-4.304679870605469 -40.34579849243164,-6.807799816131592 C-43.540401458740234,-7.827320098876953 -45.80704116821289,-6.44651985168457 -50.090599060058594,-2.9353599548339844z"></path><path stroke-linecap="round" stroke-linejoin="round" fill-opacity="0" stroke="rgb(63,30,17)" stroke-opacity="1" stroke-width="7.475" d=" M-50.090599060058594,-2.9353599548339844 C-53.46348190307617,-0.1390399932861328 -49.940799713134766,10.438360214233398 -41.600120544433594,6.804279804229736 C-34.40283966064453,3.700040102005005 -13.157440185546875,2.536400079727173 8.395879745483398,6.363480091094971 C26.101280212402344,9.437959671020508 27.58371925354004,16.89192008972168 33.628841400146484,17.905080795288086 C40.93428039550781,19.10256004333496 41.18891906738281,11.184479713439941 33.6478385925293,6.368879795074463 C27.23628044128418,2.444999933242798 21.4460391998291,-1.2297199964523315 17.23423957824707,-2.9599199295043945 C8.951519966125488,-6.497200012207031 7.931119918823242,-5.919879913330078 -3.8378000259399414,-9.200039863586426 C-10.398679733276367,-11.111160278320312 -15.574440002441406,-12.323360443115234 -26.250160217285156,-11.348560333251953 C-29.759920120239258,-10.851160049438477 -37.02220153808594,-9.726360321044922 -33.71112060546875,-6.22760009765625 C-31.36236000061035,-3.7463600635528564 -32.24956130981445,-4.304679870605469 -40.34579849243164,-6.807799816131592 C-43.540401458740234,-7.827320098876953 -45.80704116821289,-6.44651985168457 -50.090599060058594,-2.9353599548339844z"></path></g></g><g style="display: block;" transform="matrix(1.3606841564178467,0,0,1.1834458112716675,118.12947845458984,128.02272033691406)" opacity="1"><g opacity="1" transform="matrix(1.0914299488067627,0,-0.01079016737639904,1.100019931793213,0.806671142578125,5.721168518066406)"><g opacity="1" transform="matrix(1,0,0,1,122.97899627685547,100.94200134277344)"><path fill="rgb(112,6,6)" fill-opacity="1" d=" M-93.18000030517578,71.86399841308594 C-93.18000030517578,71.86399841308594 -75.39399719238281,42.9119987487793 -71.76100158691406,2.9519999027252197 C-68.12799835205078,-37.007999420166016 -53.62900161743164,-74.62000274658203 -15.982000350952148,-72.0999984741211 C15.883000373840332,-70.01200103759766 32.86199951171875,-49.19300079345703 49.209999084472656,-48.73899841308594 C65.55699920654297,-48.28499984741211 68.96800231933594,-47.33100128173828 77.59600067138672,-35.52399826049805 C86.2239990234375,-23.718000411987305 85.95899963378906,-3.5510001182556152 85.95899963378906,-3.5510001182556152 C85.95899963378906,-3.5510001182556152 89.41799926757812,9.928999900817871 41.284000396728516,11.746000289916992 C-6.849999904632568,13.562000274658203 -36.263999938964844,27.30299949645996 -53.066001892089844,42.742000579833984 C-69.86699676513672,58.180999755859375 -93.18000030517578,71.86399841308594 -93.18000030517578,71.86399841308594z"></path><path stroke-linecap="round" stroke-linejoin="round" fill-opacity="0" stroke="rgb(58,7,7)" stroke-opacity="1" stroke-width="8.543" d=" M-93.18000030517578,71.86399841308594 C-93.18000030517578,71.86399841308594 -75.39399719238281,42.9119987487793 -71.76100158691406,2.9519999027252197 C-68.12799835205078,-37.007999420166016 -53.62900161743164,-74.62000274658203 -15.982000350952148,-72.0999984741211 C15.883000373840332,-70.01200103759766 32.86199951171875,-49.19300079345703 49.209999084472656,-48.73899841308594 C65.55699920654297,-48.28499984741211 68.96800231933594,-47.33100128173828 77.59600067138672,-35.52399826049805 C86.2239990234375,-23.718000411987305 85.95899963378906,-3.5510001182556152 85.95899963378906,-3.5510001182556152 C85.95899963378906,-3.5510001182556152 89.41799926757812,9.928999900817871 41.284000396728516,11.746000289916992 C-6.849999904632568,13.562000274658203 -36.263999938964844,27.30299949645996 -53.066001892089844,42.742000579833984 C-69.86699676513672,58.180999755859375 -93.18000030517578,71.86399841308594 -93.18000030517578,71.86399841308594z"></path></g><g opacity="1" transform="matrix(1.2174526453018188,0,0,1.2174526453018188,115.69300079345703,85.0989990234375)"><path fill="rgb(14,2,6)" fill-opacity="1" d=" M-27.812000274658203,36.65700149536133 C-27.812000274658203,36.65700149536133 -40.87099838256836,28.12299919128418 -43.39799880981445,10.666999816894531 C-45.92599868774414,-6.789000034332275 -41.682640075683594,-21.63356590270996 -27.360637664794922,-22.409564971923828 C-13.037638664245605,-23.185565948486328 -11.750035285949707,-18.372695922851562 -10.556330680847168,-12.875748634338379 C-8.946946144104004,-6.903271675109863 -5.722845077514648,-0.9416269659996033 -0.24684494733810425,-0.16562697291374207 C5.230154991149902,0.6103730201721191 10.32502555847168,-4.968687534332275 6.5340256690979,-12.33968734741211 C2.742025852203369,-19.709688186645508 -10.071455955505371,-24.139434814453125 0.03854382038116455,-30.346435546875 C10.148543357849121,-36.552433013916016 24.86400032043457,-36.65700149536133 35.39500045776367,-16.874000549316406 C45.92599868774414,2.9089999198913574 36.21799850463867,8.727999687194824 34.11199951171875,12.607000350952148 C32.00600051879883,16.486000061035156 20.631999969482422,20.753000259399414 20.631999969482422,20.753000259399414 C20.631999969482422,20.753000259399414 -5.064000129699707,23.856000900268555 -5.064000129699707,23.856000900268555 C-5.064000129699707,23.856000900268555 -27.812000274658203,36.65700149536133 -27.812000274658203,36.65700149536133z"></path></g><g opacity="1" transform="matrix(1,0,0,1,126.31099700927734,112.16999816894531)"><path fill="rgb(204,25,21)" fill-opacity="1" d=" M-65.66799926757812,33.20899963378906 C-65.66799926757812,33.20899963378906 -58.81800079345703,2.1700000762939453 -37.93299865722656,-10.90999984741211 C-21.999000549316406,-20.889999389648438 -12.494999885559082,-14.190999984741211 -12.494999885559082,-14.190999984741211 C-12.494999885559082,-14.190999984741211 -11.602999687194824,-23.972000122070312 12.72700023651123,-26.399999618530273 C37.055999755859375,-28.827999114990234 59.91699981689453,-4.514999866485596 59.91699981689453,-4.514999866485596 C59.91699981689453,-4.514999866485596 39.027000427246094,0.4490000009536743 19.865999221801758,0.9160000085830688 C2.0230000019073486,1.350000023841858 -13.833000183105469,3.9140000343322754 -29.01099967956543,12.26200008392334 C-46.46699905395508,21.863000869750977 -65.66799926757812,33.20899963378906 -65.66799926757812,33.20899963378906z"></path><path stroke-linecap="round" stroke-linejoin="round" fill-opacity="0" stroke="rgb(113,9,9)" stroke-opacity="1" stroke-width="9" d=" M-65.66799926757812,33.20899963378906 C-65.66799926757812,33.20899963378906 -58.81800079345703,2.1700000762939453 -37.93299865722656,-10.90999984741211 C-21.999000549316406,-20.889999389648438 -12.494999885559082,-14.190999984741211 -12.494999885559082,-14.190999984741211 C-12.494999885559082,-14.190999984741211 -11.602999687194824,-23.972000122070312 12.72700023651123,-26.399999618530273 C37.055999755859375,-28.827999114990234 59.91699981689453,-4.514999866485596 59.91699981689453,-4.514999866485596 C59.91699981689453,-4.514999866485596 39.027000427246094,0.4490000009536743 19.865999221801758,0.9160000085830688 C2.0230000019073486,1.350000023841858 -13.833000183105469,3.9140000343322754 -29.01099967956543,12.26200008392334 C-46.46699905395508,21.863000869750977 -65.66799926757812,33.20899963378906 -65.66799926757812,33.20899963378906z"></path></g><g opacity="1" transform="matrix(0.9604672193527222,0.026761174201965332,-0.023883799090981483,0.8571973443031311,7.3714447021484375,1.6736106872558594)"><g opacity="1" transform="matrix(1,0,0,1,97.46700286865234,54.7400016784668)"><path fill="rgb(255,255,255)" fill-opacity="1" d=" M-28.729000091552734,-4.230000019073486 C-28.729000091552734,-4.230000019073486 -18.94099998474121,11.95300006866455 -14.038999557495117,18.488000869750977 C-9.137999534606934,25.02400016784668 -4.190000057220459,22.78499984741211 0.7549999952316284,20.82900047302246 C5.701000213623047,18.874000549316406 24.06599998474121,4.533999919891357 26.398000717163086,2.8480000495910645 C28.729000091552734,1.1610000133514404 12.295999526977539,-21.283000946044922 10.5600004196167,-22.423999786376953 C8.824000358581543,-23.565000534057617 0.41200000047683716,-25.02400016784668 -11.8100004196167,-19.708999633789062 C-24.0310001373291,-14.395000457763672 -28.729000091552734,-4.230000019073486 -28.729000091552734,-4.230000019073486z"></path><path stroke-linecap="round" stroke-linejoin="round" fill-opacity="0" stroke="rgb(86,109,162)" stroke-opacity="1" stroke-width="6.681" d=" M-28.729000091552734,-4.230000019073486 C-28.729000091552734,-4.230000019073486 -18.94099998474121,11.95300006866455 -14.038999557495117,18.488000869750977 C-9.137999534606934,25.02400016784668 -4.190000057220459,22.78499984741211 0.7549999952316284,20.82900047302246 C5.701000213623047,18.874000549316406 24.06599998474121,4.533999919891357 26.398000717163086,2.8480000495910645 C28.729000091552734,1.1610000133514404 12.295999526977539,-21.283000946044922 10.5600004196167,-22.423999786376953 C8.824000358581543,-23.565000534057617 0.41200000047683716,-25.02400016784668 -11.8100004196167,-19.708999633789062 C-24.0310001373291,-14.395000457763672 -28.729000091552734,-4.230000019073486 -28.729000091552734,-4.230000019073486z"></path></g><g opacity="1" transform="matrix(1,0,0,1,69.0770034790039,80.43000030517578)"><path fill="rgb(255,255,255)" fill-opacity="1" d=" M-17.785886764526367,20.472124099731445 C-17.785886764526367,20.472124099731445 -12.13700008392334,24.454999923706055 -2.8399999141693115,23.371000289916992 C6.455999851226807,22.28700065612793 10.022988319396973,6.455999851226807 12.070988655090332,3.3529999256134033 C14.118988990783691,0.25 15.600000381469727,-5.4029998779296875 15.600000381469727,-5.4029998779296875 C15.600000381469727,-5.4029998779296875 -3.3318862915039062,-26.194011688232422 -3.3318862915039062,-26.194011688232422 C-3.3318862915039062,-26.194011688232422 -9.53455638885498,-12.916431427001953 -13.354557037353516,-4.162431716918945 C-17.17355728149414,4.5915679931640625 -17.785886764526367,20.472124099731445 -17.785886764526367,20.472124099731445z"></path><path stroke-linecap="round" stroke-linejoin="round" fill-opacity="0" stroke="rgb(86,109,162)" stroke-opacity="1" stroke-width="6.681" d=" M-17.785886764526367,20.472124099731445 C-17.785886764526367,20.472124099731445 -12.13700008392334,24.454999923706055 -2.8399999141693115,23.371000289916992 C6.455999851226807,22.28700065612793 10.022988319396973,6.455999851226807 12.070988655090332,3.3529999256134033 C14.118988990783691,0.25 15.600000381469727,-5.4029998779296875 15.600000381469727,-5.4029998779296875 C15.600000381469727,-5.4029998779296875 -3.3318862915039062,-26.194011688232422 -3.3318862915039062,-26.194011688232422 C-3.3318862915039062,-26.194011688232422 -9.53455638885498,-12.916431427001953 -13.354557037353516,-4.162431716918945 C-17.17355728149414,4.5915679931640625 -17.785886764526367,20.472124099731445 -17.785886764526367,20.472124099731445z"></path></g><g opacity="1" transform="matrix(1,0,0,1,125.8740005493164,44.198001861572266)"><path fill="rgb(255,255,255)" fill-opacity="1" d=" M-15.812000274658203,-12.24899959564209 C-15.812000274658203,-12.24899959564209 -11.597000122070312,-12.493000030517578 -2.312999963760376,-11.312999725341797 C6.9720001220703125,-10.133000373840332 12.991000175476074,-4.39900016784668 12.991000175476074,-4.39900016784668 C12.991000175476074,-4.39900016784668 14.017000198364258,2.3399999141693115 10.506999969482422,7.415999889373779 C6.995999813079834,12.493000030517578 -1.1100000143051147,7.921999931335449 -1.1100000143051147,7.921999931335449 C-1.1100000143051147,7.921999931335449 -15.812000274658203,-12.24899959564209 -15.812000274658203,-12.24899959564209z"></path><path stroke-linecap="round" stroke-linejoin="round" fill-opacity="0" stroke="rgb(86,109,162)" stroke-opacity="1" stroke-width="6.681" d=" M-15.812000274658203,-12.24899959564209 C-15.812000274658203,-12.24899959564209 -11.597000122070312,-12.493000030517578 -2.312999963760376,-11.312999725341797 C6.9720001220703125,-10.133000373840332 12.991000175476074,-4.39900016784668 12.991000175476074,-4.39900016784668 C12.991000175476074,-4.39900016784668 14.017000198364258,2.3399999141693115 10.506999969482422,7.415999889373779 C6.995999813079834,12.493000030517578 -1.1100000143051147,7.921999931335449 -1.1100000143051147,7.921999931335449 C-1.1100000143051147,7.921999931335449 -15.812000274658203,-12.24899959564209 -15.812000274658203,-12.24899959564209z"></path></g><g opacity="1" transform="matrix(1,0,0,1,166.31199645996094,57.236000061035156)"><path fill="rgb(255,255,255)" fill-opacity="1" d=" M-14.807999610900879,-12.25 C-14.807999610900879,-12.25 -17.56800079345703,-0.8650000095367432 -9.15999984741211,5.692999839782715 C-0.7509999871253967,12.25 17.56800079345703,-3.6689999103546143 17.56800079345703,-3.6689999103546143 C17.56800079345703,-3.6689999103546143 3.736999988555908,-6.72599983215332 2.052000045776367,-7.2769999504089355 C0.3659999966621399,-7.828999996185303 -14.807999610900879,-12.25 -14.807999610900879,-12.25z"></path><path stroke-linecap="round" stroke-linejoin="round" fill-opacity="0" stroke="rgb(86,109,162)" stroke-opacity="1" stroke-width="6" d=" M-14.807999610900879,-12.25 C-14.807999610900879,-12.25 -17.56800079345703,-0.8650000095367432 -9.15999984741211,5.692999839782715 C-0.7509999871253967,12.25 17.56800079345703,-3.6689999103546143 17.56800079345703,-3.6689999103546143 C17.56800079345703,-3.6689999103546143 3.736999988555908,-6.72599983215332 2.052000045776367,-7.2769999504089355 C0.3659999966621399,-7.828999996185303 -14.807999610900879,-12.25 -14.807999610900879,-12.25z"></path></g></g><g opacity="1" transform="matrix(0.9994735717773438,-0.03244428709149361,0.03244428709149361,0.9994735717773438,-8.74212646484375,10.557342529296875)"><g opacity="1" transform="matrix(1,0,0,1,137.2689971923828,146.2429962158203)"><path fill="rgb(242,175,129)" fill-opacity="1" d=" M-28.364999771118164,6.546000003814697 C-28.364999771118164,6.546000003814697 -13.527999877929688,-3.055000066757202 3.055000066757202,-4.800000190734863 C19.638999938964844,-6.546000003814697 28.364999771118164,-5.672999858856201 28.364999771118164,-5.672999858856201"></path><path stroke-linecap="round" stroke-linejoin="round" fill-opacity="0" stroke="rgb(158,90,60)" stroke-opacity="1" stroke-width="11.747" d=" M-28.364999771118164,6.546000003814697 C-28.364999771118164,6.546000003814697 -13.527999877929688,-3.055000066757202 3.055000066757202,-4.800000190734863 C19.638999938964844,-6.546000003814697 28.364999771118164,-5.672999858856201 28.364999771118164,-5.672999858856201"></path></g></g><g opacity="1" transform="matrix(1,0,0,1,122.97899627685547,100.94200134277344)"><path stroke-linecap="round" stroke-linejoin="round" fill-opacity="0" stroke="rgb(87,9,9)" stroke-opacity="1" stroke-width="11" d=" M-93.18000030517578,71.86399841308594 C-93.18000030517578,71.86399841308594 -75.39399719238281,42.9119987487793 -71.76100158691406,2.9519999027252197 C-68.12799835205078,-37.007999420166016 -53.62900161743164,-74.62000274658203 -15.982000350952148,-72.0999984741211 C15.883000373840332,-70.01200103759766 32.86199951171875,-49.19300079345703 49.209999084472656,-48.73899841308594 C65.55699920654297,-48.28499984741211 68.96800231933594,-47.33100128173828 77.59600067138672,-35.52399826049805 C86.2239990234375,-23.718000411987305 85.95899963378906,-3.5510001182556152 85.95899963378906,-3.5510001182556152 C85.95899963378906,-3.5510001182556152 89.41799926757812,9.928999900817871 41.284000396728516,11.746000289916992 C-6.849999904632568,13.562000274658203 -36.263999938964844,27.30299949645996 -53.066001892089844,42.742000579833984 C-69.86699676513672,58.180999755859375 -93.18000030517578,71.86399841308594 -93.18000030517578,71.86399841308594z"></path></g></g></g><g style="display: block;" transform="matrix(0.6522430777549744,-0.6571645736694336,0.9210948944091797,0.773267388343811,270.6518859863281,249.05166625976562)" opacity="1"><g opacity="1" transform="matrix(1,0,0,1,0,0)"><g opacity="1" transform="matrix(1,0,0,1,0,0)"><g opacity="1" transform="matrix(1,0,0,1,130.05299377441406,112.96700286865234)"><path fill="rgb(247,208,179)" fill-opacity="1" d=" M3.4089999198913574,-28.976999282836914 C3.4089999198913574,-28.976999282836914 -10.795000076293945,-22.159000396728516 -31.81800079345703,-28.976999282836914 C-52.84000015258789,-35.79499816894531 -50.56700134277344,-2.2730000019073486 -50.56700134277344,-2.2730000019073486 C-50.56700134277344,-2.2730000019073486 -62.801998138427734,17.216999053955078 -49.99399948120117,32.66699981689453 C-37.3120002746582,47.965999603271484 -15.267999649047852,42.68299865722656 1.531000018119812,34.45399856567383 C10.729000091552734,29.947999954223633 23.863000869750977,28.408000946044922 44.31700134277344,10.795000076293945 C54.7400016784668,1.8200000524520874 57.95399856567383,-9.375 57.95399856567383,-9.375 C57.95399856567383,-9.375 24.430999755859375,-24.43199920654297 24.430999755859375,-24.43199920654297 C24.430999755859375,-24.43199920654297 3.4089999198913574,-28.976999282836914 3.4089999198913574,-28.976999282836914z"></path></g><g opacity="1" transform="matrix(1,0,0,1,152.21200561523438,135.05499267578125)"><path stroke-linecap="round" stroke-linejoin="round" fill-opacity="0" stroke="rgb(181,95,48)" stroke-opacity="1" stroke-width="9.385" d=" M-26.13599967956543,12.854999542236328 C-26.13599967956543,12.854999542236328 -13.157999992370605,10.015999794006348 0.5680000185966492,3.3380000591278076 C12.982999801635742,-2.7019999027252197 26.13599967956543,-12.854999542236328 26.13599967956543,-12.854999542236328"></path></g></g><g opacity="1" transform="matrix(0.9667202234268188,-0.25583600997924805,0.25583600997924805,0.9667202234268188,-29.87177276611328,26.59746551513672)"><g opacity="1" transform="matrix(1,0,0,1,89.14399719238281,85.97899627685547)"><path fill="rgb(247,208,179)" fill-opacity="1" d=" M34.82608413696289,7.700755596160889 C34.82608413696289,7.700755596160889 28.0258846282959,-0.6814815402030945 29.3204345703125,-19.82872200012207 C30.00170135498047,-27.639812469482422 13.460538864135742,-41.00294876098633 0.9615390300750732,-41.570945739746094 C-11.538460731506348,-42.138946533203125 -4.915060520172119,-29.633451461791992 -1.236494541168213,-13.271476745605469 C-4.547877788543701,3.332367420196533 -21.68899917602539,28.92300033569336 -16.575000762939453,42.560001373291016 C-11.461999893188477,56.19599914550781 15.907999992370605,45.737998962402344 15.907999992370605,45.737998962402344 C15.907999992370605,45.737998962402344 23.246000289916992,24.79400062561035 23.246000289916992,24.79400062561035 C23.246000289916992,24.79400062561035 34.82608413696289,7.700755596160889 34.82608413696289,7.700755596160889z"></path></g><g opacity="1" transform="matrix(1,0,0,1,87.4020004272461,80.78299713134766)"><path stroke-linecap="round" stroke-linejoin="round" fill-opacity="0" stroke="rgb(181,95,48)" stroke-opacity="1" stroke-width="9.385" d=" M43.23773193359375,75.65689849853516 C43.23773193359375,75.65689849853516 0.4254719018936157,87.2334976196289 -12.96044921875,56.19919204711914 C-14.713494300842285,53.89992141723633 -19.8655948638916,36.838863372802734 -12.01383113861084,27.635684967041016 C-10.17146110534668,19.363740921020508 0.06717977672815323,11.815572738647461 1.9913820028305054,3.159808874130249 C-0.6937865018844604,-19.682302474975586 -8.066011428833008,-26.215450286865234 -2.17842698097229,-33.16268539428711 C3.0370898246765137,-39.20738220214844 20.89463996887207,-36.94816970825195 28.882326126098633,-22.029325485229492 C34.564945220947266,-9.042078971862793 39.910011291503906,21.827877044677734 40.54714584350586,21.480899810791016"></path></g></g><g opacity="1" transform="matrix(1,0,0,1,0,0)"><g opacity="1" transform="matrix(1,0,0,1,180.052001953125,76.74600219726562)"><path fill="rgb(247,208,179)" fill-opacity="1" d=" M9.659000396728516,-26.277999877929688 C14.71399974822998,-32.77199935913086 25.56800079345703,-44.17499923706055 32.95399856567383,-36.78900146484375 C40.34000015258789,-29.402999877929688 39.20399856567383,-7.24399995803833 22.726999282836914,15.482999801635742 C7.854000091552734,35.99800109863281 -4.828999996185303,44.17499923706055 -4.828999996185303,44.17499923706055 C-4.828999996185303,44.17499923706055 -40.34000015258789,24.288999557495117 -40.34000015258789,24.288999557495117 C-40.34000015258789,24.288999557495117 -19.781999588012695,7.206999778747559 -13.63599967956543,0.9940000176429749 C-7.063000202178955,-5.650000095367432 3.571000099182129,-18.457000732421875 9.659000396728516,-26.277999877929688z"></path></g><g opacity="1" transform="matrix(1,0,0,1,187.77699279785156,78.0999984741211)"><path stroke-linecap="round" stroke-linejoin="round" fill-opacity="0" stroke="rgb(181,95,48)" stroke-opacity="1" stroke-width="9.385" d=" M-33.72800064086914,17.333999633789062 C-33.72800064086914,17.333999633789062 -26.393999099731445,7.708000183105469 -20.24799919128418,1.4950000047683716 C-13.675999641418457,-5.14900016784668 -3.0420000553131104,-17.95599937438965 3.046999931335449,-25.777000427246094 C8.10200023651123,-32.270999908447266 18.954999923706055,-43.67499923706055 26.341999053955078,-36.28799819946289 C33.72800064086914,-28.902000427246094 29.459999084472656,-3.86899995803833 17.131999969482422,15.123000144958496 C3.4059998989105225,36.26900100708008 -9.288000106811523,43.67399978637695 -9.288000106811523,43.67399978637695"></path></g></g><g opacity="1" transform="matrix(1,0,0,1,0,0)"><g opacity="1" transform="matrix(1,0,0,1,176.5540008544922,66.96499633789062)"><path fill="rgb(247,208,179)" fill-opacity="1" d=" M-15.826000213623047,41.82500076293945 C-1.3229999542236328,40.2140007019043 8.478008270263672,30.498046875 26.462989807128906,-3.3475394248962402 C41.69868087768555,-32.18681335449219 31.642318725585938,-50.2147102355957 17.893320083618164,-50.98571014404297 C8.232319831848145,-51.5277099609375 7.7421956062316895,-29.019107818603516 -4.7578043937683105,-13.110107421875 C-17.25780487060547,2.7988922595977783 -33.923805236816406,20.355424880981445 -33.923805236816406,20.355424880981445 C-33.923805236816406,20.355424880981445 -40.81999969482422,30.66200065612793 -40.81999969482422,30.66200065612793 C-40.81999969482422,30.66200065612793 -23.10300064086914,42.632999420166016 -15.826000213623047,41.82500076293945z"></path></g><g opacity="1" transform="matrix(1,0,0,1,179.6790008544922,65.81900024414062)"><path stroke-linecap="round" stroke-linejoin="round" fill-opacity="0" stroke="rgb(181,95,48)" stroke-opacity="1" stroke-width="9.385" d=" M-0.26100000739097595,40.492000579833984 C1.593999981880188,38.26599884033203 4.372560501098633,36.49117660522461 22.4073429107666,2.6891028881073 C37.337154388427734,-25.736326217651367 30.856304168701172,-51.610050201416016 16.020606994628906,-49.64548873901367 C-0.5422559976577759,-47.59605026245117 4.789352893829346,-27.7502384185791 -7.84852409362793,-12.000493049621582 C-20.500516891479492,3.7622084617614746 -37.239341735839844,21.410945892333984 -37.239341735839844,21.410945892333984"></path></g></g><g opacity="1" transform="matrix(0.9997784495353699,0.021049337461590767,-0.021049337461590767,0.9997784495353699,2.1716461181640625,-2.8648300170898438)"><g opacity="1" transform="matrix(1,0,0,1,156.61500549316406,66.63999938964844)"><path fill="rgb(247,208,179)" fill-opacity="1" d=" M-19.835630416870117,-40.040679931640625 C-28.437631607055664,-40.79268264770508 -32.83805847167969,-31.890697479248047 -23.136272430419922,-14.569009780883789 C-19.84482765197754,-8.155946731567383 -13.897000312805176,-4.743000030517578 -17.900999069213867,3.5989999771118164 C-24.7189998626709,17.80299949645996 -33.94900131225586,21.895906448364258 -33.94900131225586,21.895906448364258 C-33.94900131225586,21.895906448364258 -30.540000915527344,36.667999267578125 -20.312999725341797,38.941001892089844 C-10.086000442504883,41.2140007019043 -0.40299999713897705,31.43000030517578 11.529000282287598,14.383999824523926 C23.461000442504883,-2.6610000133514404 7.08806037902832,-41.056827545166016 -9.956939697265625,-45.60282897949219 C-12.414939880371094,-46.25782775878906 -17.813631057739258,-39.86368179321289 -19.835630416870117,-40.040679931640625z"></path></g><g opacity="1" transform="matrix(1,0,0,1,148.2989959716797,64.27100372314453)"><path stroke-linecap="round" stroke-linejoin="round" fill-opacity="0" stroke="rgb(181,95,48)" stroke-opacity="1" stroke-width="9.385" d=" M-26.913999557495117,25.354999542236328 C-26.913999557495117,25.354999542236328 -19.56100082397461,28.361000061035156 -11.602999687194824,6.611000061035156 C-5.980999946594238,-8.753999710083008 -16.159746170043945,-18.334184646606445 -18.972877502441406,-24.150575637817383 C-22.36947250366211,-31.01718521118164 -6.881692409515381,-44.85404968261719 5.83930778503418,-37.88505172729492 C16.397308349609375,-32.101051330566406 24.93852424621582,-14.094866752624512 23.604419708251953,-0.8424914479255676 C22.5371036529541,9.720287322998047 19.940000534057617,20.718000411987305 15.116999626159668,27.767000198364258 C10.293999671936035,34.816001892089844 8.19152545928955,37.52635192871094 8.19152545928955,37.52635192871094"></path></g></g></g></g><g style="display: block;" transform="matrix(-1.0487494468688965,0.08938863128423691,-0.1060805395245552,1.36037015914917,252.01296997070312,213.16258239746094)" opacity="1"><g opacity="1" transform="matrix(1,0,0,1,0,0)"><g opacity="1" transform="matrix(1,0,0,1,0,0)"><g opacity="1" transform="matrix(1,0,0,1,130.05299377441406,112.96700286865234)"><path fill="rgb(247,208,179)" fill-opacity="1" d=" M3.4089999198913574,-28.976999282836914 C3.4089999198913574,-28.976999282836914 -10.795000076293945,-22.159000396728516 -31.81800079345703,-28.976999282836914 C-52.84000015258789,-35.79499816894531 -50.56700134277344,-2.2730000019073486 -50.56700134277344,-2.2730000019073486 C-50.56700134277344,-2.2730000019073486 -66.8219985961914,27.81599998474121 -55.347999572753906,36.03499984741211 C-35.14099884033203,50.5099983215332 -13.651000022888184,40.54499816894531 -3.4240000247955322,39.97700119018555 C6.802999973297119,39.40800094604492 23.863000869750977,28.408000946044922 44.31700134277344,10.795000076293945 C54.7400016784668,1.8200000524520874 57.95399856567383,-9.375 57.95399856567383,-9.375 C57.95399856567383,-9.375 24.430999755859375,-24.43199920654297 24.430999755859375,-24.43199920654297 C24.430999755859375,-24.43199920654297 3.4089999198913574,-28.976999282836914 3.4089999198913574,-28.976999282836914z"></path></g><g opacity="1" transform="matrix(1,0,0,1,152.21200561523438,135.05499267578125)"><path stroke-linecap="round" stroke-linejoin="round" fill-opacity="0" stroke="rgb(181,95,48)" stroke-opacity="1" stroke-width="9.385" d=" M-82.72899627685547,-0.8140000104904175 C-82.72899627685547,-0.8140000104904175 -80.59600067138672,9.253999710083008 -71.86199951171875,15.510000228881836 C-62.00400161743164,22.570999145507812 -38.46500015258789,23.893999099731445 -2.2060000896453857,5.822000026702881 C10.151000022888184,-0.3370000123977661 26.13599967956543,-12.854999542236328 26.13599967956543,-12.854999542236328"></path></g><g opacity="1" transform="matrix(1,0,0,1,150.5070037841797,126.41400146484375)"><path fill="rgb(242,175,129)" fill-opacity="1" d=" M-54.986000061035156,23.197999954223633 C-54.986000061035156,23.197999954223633 -14.118000030517578,10.965999603271484 10.605999946594238,-4.35699987411499 C26.035999298095703,-13.920000076293945 35.22700119018555,-17.61400032043457 35.22700119018555,-17.61400032043457 C35.22700119018555,-17.61400032043457 21.92099952697754,-4.429999828338623 5.129000186920166,7.329999923706055 C-8.425999641418457,16.822999954223633 -29.632999420166016,22.143999099731445 -40.849998474121094,23.66200065612793 C-48.137001037597656,24.648000717163086 -54.986000061035156,23.197999954223633 -54.986000061035156,23.197999954223633z"></path></g></g><g opacity="1" transform="matrix(0.9667202234268188,-0.25583600997924805,0.25583600997924805,0.9667202234268188,-29.87177276611328,26.59746551513672)"><g opacity="1" transform="matrix(1,0,0,1,89.14399719238281,85.97899627685547)"><path fill="rgb(247,208,179)" fill-opacity="1" d=" M33.73421096801758,10.843953132629395 C33.73421096801758,10.843953132629395 33.79607009887695,6.101651191711426 33.954837799072266,-14.192116737365723 C34.038394927978516,-22.14699935913086 19.619348526000977,-44.95569610595703 7.120348930358887,-45.52369689941406 C-5.379651069641113,-46.091697692871094 -1.7932790517807007,-20.169721603393555 -3.2485814094543457,-2.630930185317993 C-4.651349067687988,14.859232902526855 -21.593233108520508,28.9033260345459 -16.479232788085938,42.54032516479492 C-11.366232872009277,56.176326751708984 15.907999992370605,45.737998962402344 15.907999992370605,45.737998962402344 C15.907999992370605,45.737998962402344 23.246000289916992,24.79400062561035 23.246000289916992,24.79400062561035 C23.246000289916992,24.79400062561035 33.73421096801758,10.843953132629395 33.73421096801758,10.843953132629395z"></path></g><g opacity="1" transform="matrix(1,0,0,1,87.4020004272461,80.78299713134766)"><path stroke-linecap="round" stroke-linejoin="round" fill-opacity="0" stroke="rgb(181,95,48)" stroke-opacity="1" stroke-width="9.385" d=" M-20.134342193603516,51.99757385253906 C-20.134342193603516,51.99757385253906 -21.20941925048828,43.16172409057617 -14.19389533996582,30.65468406677246 C-8.050643920898438,21.683019638061523 -0.6610230207443237,12.597607612609863 1.1271252632141113,3.976231336593628 C-2.1678640842437744,-18.990680694580078 -10.373984336853027,-25.214914321899414 -4.720363140106201,-32.64506149291992 C0.27341026067733765,-39.253822326660156 18.898460388183594,-37.29311752319336 27.518278121948242,-22.202342987060547 C33.83366775512695,-9.354552268981934 40.06734848022461,22.353282928466797 40.71458435058594,22.000795364379883"></path></g></g><g opacity="1" transform="matrix(1,0,0,1,0,0)"><g opacity="1" transform="matrix(1,0,0,1,180.052001953125,76.74600219726562)"><path fill="rgb(247,208,179)" fill-opacity="1" d=" M9.659000396728516,-26.277999877929688 C14.71399974822998,-32.77199935913086 25.56800079345703,-44.17499923706055 32.95399856567383,-36.78900146484375 C40.34000015258789,-29.402999877929688 39.20399856567383,-7.24399995803833 22.726999282836914,15.482999801635742 C7.854000091552734,35.99800109863281 -4.828999996185303,44.17499923706055 -4.828999996185303,44.17499923706055 C-4.828999996185303,44.17499923706055 -40.34000015258789,24.288999557495117 -40.34000015258789,24.288999557495117 C-40.34000015258789,24.288999557495117 -19.781999588012695,7.206999778747559 -13.63599967956543,0.9940000176429749 C-7.063000202178955,-5.650000095367432 3.571000099182129,-18.457000732421875 9.659000396728516,-26.277999877929688z"></path></g><g opacity="1" transform="matrix(1,0,0,1,187.77699279785156,78.0999984741211)"><path stroke-linecap="round" stroke-linejoin="round" fill-opacity="0" stroke="rgb(181,95,48)" stroke-opacity="1" stroke-width="9.385" d=" M-33.72800064086914,17.333999633789062 C-33.72800064086914,17.333999633789062 -26.393999099731445,7.708000183105469 -20.24799919128418,1.4950000047683716 C-13.675999641418457,-5.14900016784668 -3.0420000553131104,-17.95599937438965 3.046999931335449,-25.777000427246094 C8.10200023651123,-32.270999908447266 18.954999923706055,-43.67499923706055 26.341999053955078,-36.28799819946289 C33.72800064086914,-28.902000427246094 29.459999084472656,-3.86899995803833 17.131999969482422,15.123000144958496 C3.4059998989105225,36.26900100708008 -9.288000106811523,43.67399978637695 -9.288000106811523,43.67399978637695"></path></g><g opacity="1" transform="matrix(1,0,0,1,187.43800354003906,97.43699645996094)"><path fill="rgb(242,175,129)" fill-opacity="1" d=" M22.91699981689453,-25.378999710083008 C22.91699981689453,-25.378999710083008 12.689000129699707,-5.966000080108643 3.2190001010894775,3.7869999408721924 C-6.25,13.541000366210938 -22.91699981689453,23.86400032043457 -22.91699981689453,23.86400032043457 C-22.91699981689453,23.86400032043457 -17.233999252319336,25.378999710083008 -17.233999252319336,25.378999710083008 C-17.233999252319336,25.378999710083008 -0.7080000042915344,16.58799934387207 11.173999786376953,-1.8949999809265137 C21.400999069213867,-17.80299949645996 22.91699981689453,-25.378999710083008 22.91699981689453,-25.378999710083008z"></path></g></g><g opacity="1" transform="matrix(1,0,0,1,0,0)"><g opacity="1" transform="matrix(1,0,0,1,176.5540008544922,66.96499633789062)"><path fill="rgb(247,208,179)" fill-opacity="1" d=" M-15.826000213623047,41.82500076293945 C-1.3229999542236328,40.2140007019043 8.478008270263672,30.498046875 26.462989807128906,-3.3475394248962402 C41.69868087768555,-32.18681335449219 31.642318725585938,-50.2147102355957 17.893320083618164,-50.98571014404297 C8.232319831848145,-51.5277099609375 7.7421956062316895,-29.019107818603516 -4.7578043937683105,-13.110107421875 C-17.25780487060547,2.7988922595977783 -33.923805236816406,20.355424880981445 -33.923805236816406,20.355424880981445 C-33.923805236816406,20.355424880981445 -40.81999969482422,30.66200065612793 -40.81999969482422,30.66200065612793 C-40.81999969482422,30.66200065612793 -23.10300064086914,42.632999420166016 -15.826000213623047,41.82500076293945z"></path></g><g opacity="1" transform="matrix(1,0,0,1,179.6790008544922,65.81900024414062)"><path stroke-linecap="round" stroke-linejoin="round" fill-opacity="0" stroke="rgb(181,95,48)" stroke-opacity="1" stroke-width="9.385" d=" M-0.26100000739097595,40.492000579833984 C1.593999981880188,38.26599884033203 4.372560501098633,36.49117660522461 22.4073429107666,2.6891028881073 C37.337154388427734,-25.736326217651367 30.856304168701172,-51.610050201416016 16.020606994628906,-49.64548873901367 C-0.5422559976577759,-47.59605026245117 4.789352893829346,-27.7502384185791 -7.84852409362793,-12.000493049621582 C-20.500516891479492,3.7622084617614746 -37.239341735839844,21.410945892333984 -37.239341735839844,21.410945892333984"></path></g></g><g opacity="1" transform="matrix(0.9997784495353699,0.021049337461590767,-0.021049337461590767,0.9997784495353699,2.1716461181640625,-2.8648300170898438)"><g opacity="1" transform="matrix(1,0,0,1,156.61500549316406,66.63999938964844)"><path fill="rgb(247,208,179)" fill-opacity="1" d=" M-19.835630416870117,-40.040679931640625 C-28.437631607055664,-40.79268264770508 -32.83805847167969,-31.890697479248047 -23.136272430419922,-14.569009780883789 C-19.84482765197754,-8.155946731567383 -13.897000312805176,-4.743000030517578 -17.900999069213867,3.5989999771118164 C-24.7189998626709,17.80299949645996 -33.94900131225586,21.895906448364258 -33.94900131225586,21.895906448364258 C-33.94900131225586,21.895906448364258 -30.540000915527344,36.667999267578125 -20.312999725341797,38.941001892089844 C-10.086000442504883,41.2140007019043 -0.40299999713897705,31.43000030517578 11.529000282287598,14.383999824523926 C23.461000442504883,-2.6610000133514404 7.08806037902832,-41.056827545166016 -9.956939697265625,-45.60282897949219 C-12.414939880371094,-46.25782775878906 -17.813631057739258,-39.86368179321289 -19.835630416870117,-40.040679931640625z"></path></g><g opacity="1" transform="matrix(1,0,0,1,148.2989959716797,64.27100372314453)"><path stroke-linecap="round" stroke-linejoin="round" fill-opacity="0" stroke="rgb(181,95,48)" stroke-opacity="1" stroke-width="9.385" d=" M-26.913999557495117,25.354999542236328 C-26.913999557495117,25.354999542236328 -19.56100082397461,28.361000061035156 -11.602999687194824,6.611000061035156 C-5.980999946594238,-8.753999710083008 -16.159746170043945,-18.334184646606445 -18.972877502441406,-24.150575637817383 C-22.36947250366211,-31.01718521118164 -6.881692409515381,-44.85404968261719 5.83930778503418,-37.88505172729492 C16.397308349609375,-32.101051330566406 24.93852424621582,-14.094866752624512 23.604419708251953,-0.8424914479255676 C22.5371036529541,9.720287322998047 19.940000534057617,20.718000411987305 15.116999626159668,27.767000198364258 C10.293999671936035,34.816001892089844 8.19152545928955,37.52635192871094 8.19152545928955,37.52635192871094"></path></g></g></g></g></g></g></svg>