<svg xmlns="http://www.w3.org/2000/svg" xmlns:xlink="http://www.w3.org/1999/xlink" viewBox="0 0 512 512" width="512" height="512" style="width: 100%; height: 100%; transform: translate3d(0,0,0); content-visibility: visible;" preserveAspectRatio="xMidYMid meet"><defs><clipPath id="__lottie_element_2"><rect width="512" height="512" x="0" y="0"></rect></clipPath><clipPath id="__lottie_element_4"><path d="M0,0 L512,0 L512,512 L0,512z"></path></clipPath><radialGradient id="__lottie_element_33" spreadMethod="pad" gradientUnits="userSpaceOnUse" cx="12.404999732971191" cy="-138.4239959716797" r="310.57267233630665" fx="12.404999732971191" fy="-138.4239959716797"><stop offset="0%" stop-color="rgb(243,192,164)"></stop><stop offset="50%" stop-color="rgb(236,171,138)"></stop><stop offset="99%" stop-color="rgb(229,149,112)"></stop></radialGradient><radialGradient id="__lottie_element_34" spreadMethod="pad" gradientUnits="userSpaceOnUse" cx="-28.215999603271484" cy="-200.38900756835938" r="350.2720705284421" fx="-114.84327289820143" fy="-274.60752852848486"><stop offset="0%" stop-color="rgb(254,240,222)"></stop><stop offset="50%" stop-color="rgb(249,213,185)"></stop><stop offset="99%" stop-color="rgb(244,187,148)"></stop></radialGradient></defs><g clip-path="url(#__lottie_element_2)"><g clip-path="url(#__lottie_element_4)" style="display: block;" transform="matrix(1,0,0,1,0,0)" opacity="1"><g style="display: block;" transform="matrix(0.8500000238418579,0,0,0.8500000238418579,38.399993896484375,34.399993896484375)" opacity="1"><g opacity="1" transform="matrix(1,0,0,1,250.78399658203125,266.18701171875)"><path fill="url(#__lottie_element_33)" fill-opacity="1" d=" M-36.81800079345703,-231.9459991455078 C-69.78299713134766,-226.18699645996094 -121.78299713134766,-217.18699645996094 -176.5030059814453,-150.0709991455078 C-236.14100646972656,-76.9229965209961 -254.9770050048828,65.91899871826172 -157.59300231933594,154.54299926757812 C-73.78299713134766,230.81300354003906 37.12200164794922,237.11900329589844 118.38200378417969,193.427001953125 C203.2169952392578,147.81300354003906 248.51300048828125,49.47100067138672 231.05499267578125,-40.33399963378906 C213.06900024414062,-132.85800170898438 170.21600341796875,-188.18699645996094 97.44499969482422,-217.73899841308594 C48.215999603271484,-237.7310028076172 -8.281999588012695,-236.93099975585938 -36.81800079345703,-231.9459991455078z"></path><path stroke-linecap="butt" stroke-linejoin="miter" fill-opacity="0" stroke-miterlimit="10" stroke="rgb(168,81,36)" stroke-opacity="1" stroke-width="13" d=" M-36.81800079345703,-231.9459991455078 C-69.78299713134766,-226.18699645996094 -121.78299713134766,-217.18699645996094 -176.5030059814453,-150.0709991455078 C-236.14100646972656,-76.9229965209961 -254.9770050048828,65.91899871826172 -157.59300231933594,154.54299926757812 C-73.78299713134766,230.81300354003906 37.12200164794922,237.11900329589844 118.38200378417969,193.427001953125 C203.2169952392578,147.81300354003906 248.51300048828125,49.47100067138672 231.05499267578125,-40.33399963378906 C213.06900024414062,-132.85800170898438 170.21600341796875,-188.18699645996094 97.44499969482422,-217.73899841308594 C48.215999603271484,-237.7310028076172 -8.281999588012695,-236.93099975585938 -36.81800079345703,-231.9459991455078z"></path></g><g opacity="1" transform="matrix(1,0,0,1,243.68699645996094,252.26400756835938)"><path fill="url(#__lottie_element_34)" fill-opacity="1" d=" M-20.4689998626709,-200.3249969482422 C-57.97999954223633,-194.16099548339844 -111.6510009765625,-186.32699584960938 -164.2100067138672,-116.43299865722656 C-207.68699645996094,-58.617000579833984 -220.6280059814453,67.26499938964844 -145.822998046875,138.99000549316406 C-69.14099884033203,212.51499938964844 45.15700149536133,210.5709991455078 117.14199829101562,171.6649932861328 C189.1280059814453,132.75900268554688 229.9600067138672,28.441999435424805 213.25100708007812,-45.04499816894531 C195.625,-122.56500244140625 162.9010009765625,-155.08799743652344 112.80000305175781,-180.8719940185547 C68.38700103759766,-203.72900390625 4.650000095367432,-204.45199584960938 -20.4689998626709,-200.3249969482422z"></path></g></g><g style="display: block;" transform="matrix(0.554527223110199,0.014495288953185081,-0.019148075953125954,0.6988481283187866,123.84529876708984,45.00271224975586)" opacity="0.26"><g opacity="1" transform="matrix(1,0,0,1,268.9590148925781,157.05599975585938)"><path fill="rgb(255,212,175)" fill-opacity="1" d=" M-125.05999755859375,6.465000152587891 C-125.05999755859375,6.465000152587891 -86.92900085449219,9.343000411987305 -63.1870002746582,7.184000015258789 C-39.44499969482422,5.026000022888184 -25.774999618530273,-1.4490000009536743 -6.349999904632568,-1.4490000009536743 C13.074999809265137,-1.4490000009536743 21.29599952697754,3.99399995803833 46.47700119018555,2.555000066757202 C71.65799713134766,1.1160000562667847 96.63500213623047,-3.6389999389648438 103.68599700927734,-5.067999839782715 C112.55899810791016,-6.867000102996826 125.06099700927734,-9.343000411987305 125.06099700927734,-9.343000411987305"></path></g><g opacity="1" transform="matrix(1,0,0,1,268.9590148925781,157.05599975585938)"><path stroke-linecap="round" stroke-linejoin="round" fill-opacity="0" stroke="rgb(182,94,49)" stroke-opacity="1" stroke-width="9" d=" M-65.06700134277344,5.7210001945495605 C-40.61600112915039,6.074999809265137 -40.479000091552734,5.4079999923706055 -25.868999481201172,3.9089999198913574 C-15.581999778747559,2.8540000915527344 -14.029000282287598,2.309000015258789 5.395999908447266,2.309000015258789 C24.820999145507812,2.309000015258789 20.701000213623047,1.6380000114440918 34.85100173950195,2.2960000038146973 C50.43600082397461,3.0209999084472656 49.638999938964844,2.565000057220459 56.832000732421875,2.4059998989105225 C68.47599792480469,2.1480000019073486 75.76499938964844,2.183000087738037 75.76499938964844,2.183000087738037"></path></g><g opacity="1" transform="matrix(1,0,0,1,292.45001220703125,176.53500366210938)"><path fill="rgb(255,212,175)" fill-opacity="1" d=" M-49.4630012512207,1.0789999961853027 C-49.4630012512207,1.0789999961853027 -36.51300048828125,-0.35899999737739563 -14.210000038146973,0.0010000000474974513 C8.093000411987305,0.36000001430511475 10.970999717712402,0.7200000286102295 20.323999404907227,0.0010000000474974513 C29.677000045776367,-0.718999981880188 43.34600067138672,-1.0789999961853027 43.34600067138672,-1.0789999961853027 C43.34600067138672,-1.0789999961853027 49.46200180053711,-0.718999981880188 49.46200180053711,-0.718999981880188"></path></g><g opacity="1" transform="matrix(1,0,0,1,292.45001220703125,176.53500366210938)"><path stroke-linecap="round" stroke-linejoin="round" fill-opacity="0" stroke="rgb(182,94,49)" stroke-opacity="1" stroke-width="9" d=" M-18.516000747680664,0.18799999356269836 C-18.516000747680664,0.18799999356269836 -23.92300033569336,0.30300000309944153 -1.6169999837875366,0.23999999463558197 C6.868000030517578,0.2160000056028366 -0.3140000104904175,0.9539999961853027 9.038999557495117,0.23499999940395355 C18.392000198364258,-0.48500001430511475 18.51799964904785,-0.5649999976158142 18.51799964904785,-0.5649999976158142 C18.51799964904785,-0.5649999976158142 24.94700050354004,-0.460999995470047 24.94700050354004,-0.460999995470047"></path></g></g><g style="display: block;" transform="matrix(0.8600000143051147,0,0,0.8399999737739563,34.1199951171875,30.040006637573242)" opacity="1"><g opacity="1" transform="matrix(0.6856532096862793,0.01839754730463028,-0.026822492480278015,0.9996402263641357,107.4140625,-4.80853271484375)"><g opacity="1" transform="matrix(1,0,0,1,291.7449951171875,416.68798828125)"><path fill="rgb(232,153,108)" fill-opacity="1" d=" M-5.079999923706055,-12.678000450134277 C10.503000259399414,-2.2890000343322754 7.881999969482422,6.210999965667725 6.401000022888184,12.506999969482422 C5.639999866485596,15.741999626159668 3.5859999656677246,19.94300079345703 1.4479999542236328,23.7450008392334 C-0.6439999938011169,27.466999053955078 3.0429999828338623,31.795000076293945 7.031000137329102,30.270000457763672 C16.98900032043457,26.464000701904297 29.8700008392334,18.85300064086914 31.21500015258789,4.729000091552734 C33.00600051879883,-14.074000358581543 22.167999267578125,-32.446998596191406 -4.51200008392334,-30.433000564575195 C-16.14900016784668,-29.554000854492188 -24.225000381469727,-26.979999542236328 -29.632999420166016,-24.35700035095215 C-32.63800048828125,-22.89900016784668 -31.58300018310547,-18.41200065612793 -28.243000030517578,-18.423999786376953 C-21.216999053955078,-18.448999404907227 -12.116999626159668,-17.368999481201172 -5.079999923706055,-12.678000450134277z"></path></g><g opacity="1" transform="matrix(1,0,0,1,274.0270080566406,362.15899658203125)"><path fill="rgb(248,164,128)" fill-opacity="1" d=" M-160.89700317382812,-10.163000106811523 C-160.89700317382812,-10.163000106811523 -121.99500274658203,-18.48900032043457 -95.96700286865234,-17.46500015258789 C-77.3479995727539,-16.732999801635742 -68.3219985961914,-11.95199966430664 -32.999000549316406,-10.434000015258789 C-16.83099937438965,-9.73900032043457 -1.8819999694824219,-8.128000259399414 23.788000106811523,-10.060999870300293 C46.59199905395508,-11.777999877929688 46.97800064086914,-11.440999984741211 66.55899810791016,-12.567999839782715 C83.1050033569336,-13.520000457763672 95.87799835205078,-13.75100040435791 116.98799896240234,-17.44099998474121 C140.92300415039062,-21.625 160.13499450683594,-13.333000183105469 160.13499450683594,-13.333000183105469 C160.13499450683594,-13.333000183105469 148.74600219726562,-26.665000915527344 101.5250015258789,-27.22100067138672 C54.30400085449219,-27.775999069213867 -5.138999938964844,-21.665000915527344 -11.805000305175781,-22.22100067138672 C-18.472000122070312,-22.775999069213867 -74.58200073242188,-25 -86.24800109863281,-23.33300018310547 C-97.91400146484375,-21.666000366210938 -160.89700317382812,-10.163000106811523 -160.89700317382812,-10.163000106811523z"></path></g><g opacity="1" transform="matrix(1,0,0,1,286.60198974609375,352.0639953613281)"><path fill="rgb(251,153,135)" fill-opacity="1" d=" M-127.97599792480469,-14.833000183105469 C-127.97599792480469,-14.833000183105469 -93.13600158691406,-13.550999641418457 -81.0250015258789,-12.201000213623047 C-61.165000915527344,-9.98799991607666 -51.65399932861328,-8.630999565124512 -33.78499984741211,-9.574999809265137 C-19.003999710083008,-10.354999542236328 -11.875,-12.322999954223633 13.942000389099121,-12.534000396728516 C35.176998138427734,-12.708000183105469 35.178001403808594,-9.121000289916992 54.742000579833984,-10.755000114440918 C74.51100158691406,-12.406000137329102 79.61799621582031,-9.331999778747559 94.85700225830078,-11.291999816894531 C106.33200073242188,-12.767999649047852 127.9749984741211,-12.491000175476074 127.9749984741211,-12.491000175476074 C127.9749984741211,-12.491000175476074 74.29499816894531,-14.053000450134277 58.736000061035156,-14.053000450134277 C43.17599868774414,-14.053000450134277 15.168999671936035,-14.833000183105469 12.836000442504883,-15.61400032043457 C10.501999855041504,-16.395000457763672 -14.911999702453613,-12.491000175476074 -14.652000427246094,-14.053000450134277 C-14.392999649047852,-15.61400032043457 -16.726999282836914,-9.368000030517578 -29.173999786376953,-11.710000038146973 C-41.62200164794922,-14.053000450134277 -54.069000244140625,-14.053000450134277 -54.069000244140625,-14.053000450134277 C-54.069000244140625,-14.053000450134277 -68.072998046875,-12.491000175476074 -68.072998046875,-12.491000175476074 C-68.072998046875,-12.491000175476074 -80.5199966430664,-14.833000183105469 -80.5199966430664,-14.833000183105469 C-80.5199966430664,-14.833000183105469 -90.63400268554688,-14.833000183105469 -90.63400268554688,-14.833000183105469 C-90.63400268554688,-14.833000183105469 -127.97599792480469,-14.833000183105469 -127.97599792480469,-14.833000183105469z"></path></g><g opacity="0.75" transform="matrix(1,0,0,1,237.5,354.0050048828125)"><path fill="rgb(227,87,72)" fill-opacity="1" d=" M-6.196000099182129,-10.031999588012695 C-6.196000099182129,-10.031999588012695 1.6269999742507935,-9.3149995803833 9.92300033569336,-9.428000450134277 C17.604999542236328,-9.532999992370605 14.651000022888184,-8.597999572753906 25.485000610351562,-9.710000038146973 C36.31800079345703,-10.821000099182129 53.87900161743164,-9.052000045776367 53.87900161743164,-9.052000045776367 C53.87900161743164,-9.052000045776367 29.791000366210938,-7.929999828338623 19.753000259399414,-7.908999919891357 C3.5390000343322754,-7.874000072479248 -0.7979999780654907,-8.253999710083008 -21.591999053955078,-9.312000274658203 C-31.517000198364258,-9.817000389099121 -63.46099853515625,-10.258000373840332 -63.46099853515625,-10.258000373840332 C-63.46099853515625,-10.258000373840332 -41.922000885009766,-11.348999977111816 -32.47800064086914,-11.071000099182129 C-23.034000396728516,-10.793000221252441 -6.196000099182129,-10.031999588012695 -6.196000099182129,-10.031999588012695z"></path></g><g opacity="1" transform="matrix(1,0,0,1,288.72900390625,354.2439880371094)"><path stroke-linecap="round" stroke-linejoin="round" fill-opacity="0" stroke="rgb(227,98,93)" stroke-opacity="1" stroke-width="10" d=" M-115.13800048828125,-13.510000228881836 C-115.13800048828125,-13.510000228881836 -83.41400146484375,-16.31800079345703 -56.720001220703125,-14.463000297546387 C-30.024999618530273,-12.607999801635742 -20.106000900268555,-12.843000411987305 6.435999870300293,-15.092000007629395 C31.697999954223633,-17.23200035095215 43.61199951171875,-17.750999450683594 59.797000885009766,-16.260000228881836 C78.5999984741211,-14.527999877929688 67.45800018310547,-15.220999717712402 87.0459976196289,-16.125999450683594 C100.71800231933594,-16.756999969482422 121.7969970703125,-15.739999771118164 121.7969970703125,-15.739999771118164"></path></g><g opacity="1" transform="matrix(1,0,0,1,296.34100341796875,329.4230041503906)"><path fill="rgb(251,153,135)" fill-opacity="1" d=" M-115.98999786376953,7.934000015258789 C-115.98999786376953,7.934000015258789 -73.09100341796875,8.697999954223633 -49.69499969482422,8.74899959564209 C-21.059999465942383,8.810999870300293 -1.809999942779541,7.686999797821045 13.64900016784668,6.9070000648498535 C29.10700035095215,6.125999927520752 35.268001556396484,3.5840001106262207 55.36399841308594,4.363999843597412 C75.45999908447266,5.145999908447266 83.70899963378906,4.4720001220703125 96.0250015258789,8.020999908447266 C101.69000244140625,9.652999877929688 116.70999908447266,10.149999618530273 116.70999908447266,10.149999618530273 C116.70999908447266,10.149999618530273 78.06400299072266,7.0269999504089355 64.92500305175781,7.808000087738037 C51.78499984741211,8.588000297546387 25.579999923706055,6.85099983215332 20.16900062561035,6.070000171661377 C14.758999824523926,5.289000034332275 -2.2760000228881836,8.661999702453613 -2.2760000228881836,8.661999702453613 C-2.2760000228881836,8.661999702453613 -22.415000915527344,10.930999755859375 -39.41899871826172,10.930999755859375 C-56.422000885009766,10.930999755859375 -78.06400299072266,10.149999618530273 -78.06400299072266,10.149999618530273 C-78.06400299072266,10.149999618530273 -115.98999786376953,7.934000015258789 -115.98999786376953,7.934000015258789z"></path></g><g opacity="0.52" transform="matrix(1,0,0,1,101.49099731445312,354.82000732421875)"><path fill="rgb(210,129,94)" fill-opacity="1" d=" M2.2829999923706055,-28.638999938964844 C2.2829999923706055,-28.638999938964844 -11.48799991607666,-25.993000030517578 -18.04199981689453,-8.854000091552734 C-22.325000762939453,2.3459999561309814 -17.32200050354004,15.248000144958496 -8.508999824523926,21.902999877929688 C0.6209999918937683,28.79800033569336 4.921000003814697,29.937000274658203 12.175000190734863,31.076000213623047 C17.409000396728516,31.898000717163086 22.325000762939453,28.510000228881836 18.111000061035156,26.2189998626709 C13.696999549865723,23.81999969482422 -3.7100000381469727,21.597999572753906 -9.048999786376953,4.0960001945495605 C-12.58899974822998,-7.508999824523926 -5.315999984741211,-16.197999954223633 0.9200000166893005,-20.993000030517578 C6.019999980926514,-24.91699981689453 12.354999542236328,-26.479999542236328 10.435999870300293,-28.878000259399414 C8.020999908447266,-31.898000717163086 2.2829999923706055,-28.638999938964844 2.2829999923706055,-28.638999938964844z"></path></g><g opacity="0.52" transform="matrix(1,0,0,1,440.93701171875,362.4049987792969)"><path stroke-linecap="round" stroke-linejoin="round" fill-opacity="0" stroke="rgb(196,113,84)" stroke-opacity="1" stroke-width="9" d=" M-10.652000427246094,7.932000160217285 C-10.652000427246094,7.932000160217285 -7.849999904632568,7.874000072479248 -0.15800000727176666,7.165999889373779 C6.718999862670898,6.5329999923706055 9.027999877929688,4.709000110626221 12.229000091552734,3.078000068664551 C18.56399917602539,-0.15000000596046448 21.650999069213867,-1.7920000553131104 22.391000747680664,-5.125999927520752 C22.94300079345703,-7.607999801635742 21.60300064086914,-8.682999610900879 21.60300064086914,-8.682999610900879"></path></g><g opacity="1" transform="matrix(1,0,0,1,292.49700927734375,330.83099365234375)"><path stroke-linecap="round" stroke-linejoin="round" fill-opacity="0" stroke="rgb(227,98,92)" stroke-opacity="1" stroke-width="9" d=" M-117.49800109863281,8.300000190734863 C-117.49800109863281,8.300000190734863 -69.20500183105469,8.432000160217285 -50.0099983215332,8.236000061035156 C-30.81399917602539,8.039999961853027 -14.652999877929688,5.986000061035156 2.11899995803833,7.8379998207092285 C18.891000747680664,9.690999984741211 27.756999969482422,8.883999824523926 39.42499923706055,7.4019999504089355 C51.09299850463867,5.921000003814697 60.46099853515625,4.796000003814697 80.5770034790039,6.297999858856201 C94.97799682617188,7.373000144958496 117.49800109863281,7.255000114440918 117.49800109863281,7.255000114440918"></path></g><g opacity="1" transform="matrix(1,0,0,1,305.7040100097656,425.5010070800781)"><path stroke-linecap="round" stroke-linejoin="round" fill-opacity="0" stroke="rgb(185,92,45)" stroke-opacity="1" stroke-width="9" d=" M-1.2610000371932983,-17.23200035095215 C-1.2610000371932983,-17.23200035095215 6.238999843597412,-10.288000106811523 3.739000082015991,1.1009999513626099 C0.8119999766349792,14.434000015258789 -6.238999843597412,17.23200035095215 -6.238999843597412,17.23200035095215"></path></g><g opacity="1" transform="matrix(1,0,0,1,118.33599853515625,352.2799987792969)"><path fill="rgb(62,11,9)" fill-opacity="1" d=" M13.0600004196167,-9.994999885559082 C13.0600004196167,-9.994999885559082 5.004000186920166,3.1989998817443848 -2.7730000019073486,8.199000358581543 C-7.511000156402588,11.244999885559082 -16.665000915527344,12.468999862670898 -17.356000900268555,5.2820000648498535 C-18.049999237060547,-1.9390000104904175 -9.968000411987305,-6.059999942779541 -3.6070001125335693,-7.2170000076293945 C2.503999948501587,-8.32800006866455 13.0600004196167,-9.994999885559082 13.0600004196167,-9.994999885559082z"></path></g><g opacity="1" transform="matrix(1,0,0,1,437.99200439453125,345.6470031738281)"><path fill="rgb(62,11,9)" fill-opacity="1" d=" M-2.6989998817443848,7.853000164031982 C-2.6989998817443848,7.853000164031982 -10.47700023651123,4.704999923706055 -9.940999984741211,0.6499999761581421 C-9.418999671936035,-3.296999931335449 -8.097000122070312,-3.625999927520752 -1.5880000591278076,-3.444000005722046 C4.501999855041504,-3.2730000019073486 13.236000061035156,-1.9450000524520874 14.562000274658203,2.7300000190734863 C15.88700008392334,7.406000137329102 12.802000045776367,11.25 8.968000411987305,11.555999755859375 C5.132999897003174,11.862000465393066 -2.6989998817443848,7.853000164031982 -2.6989998817443848,7.853000164031982z"></path></g><g opacity="1" transform="matrix(1,0,0,1,242.77699279785156,329.7820129394531)"><path fill="rgb(229,77,61)" fill-opacity="0.7000000000000001" d=" M13.76200008392334,6.316999912261963 C13.76200008392334,6.316999912261963 -7.474999904632568,5.8420000076293945 -11.456999778747559,5.61899995803833 C-24.31100082397461,4.8979997634887695 -31.195999145507812,3.7850000858306885 -31.195999145507812,3.7850000858306885 C-31.195999145507812,3.7850000858306885 -62.34000015258789,5.665999889373779 -62.34000015258789,5.665999889373779 C-62.34000015258789,5.665999889373779 -44.52899932861328,4.830999851226807 -29.3439998626709,4.460999965667725 C-14.15999984741211,4.091000080108643 13.76200008392334,6.316999912261963 13.76200008392334,6.316999912261963z"></path></g><g opacity="1" transform="matrix(1,0,0,1,411.2919921875,325.4010009765625)"><path stroke-linecap="round" stroke-linejoin="round" fill-opacity="0" stroke="rgb(232,153,108)" stroke-opacity="1" stroke-width="5.289" d=" M-26.111000061035156,-8.333000183105469 C-26.111000061035156,-8.333000183105469 -16.145000457763672,-1.2960000038146973 -1.3960000276565552,3.5190000534057617 C13.354000091552734,8.333000183105469 26.110000610351562,8.333000183105469 26.110000610351562,8.333000183105469"></path></g><g opacity="1" transform="matrix(1,0,0,1,296.9429931640625,378.2699890136719)"><path fill="rgb(255,182,142)" fill-opacity="1" d=" M-46.439998626708984,-11.218000411987305 C-46.439998626708984,-11.218000411987305 -27.184999465942383,0.7049999833106995 5.708000183105469,0.5249999761581421 C31.408000946044922,0.38499999046325684 42.63399887084961,-6.894000053405762 43.375,-5.5980000495910645 C44.1150016784668,-4.302000045776367 41.86800003051758,-15.069000244140625 41.86800003051758,-15.069000244140625 C41.86800003051758,-15.069000244140625 33.13800048828125,-10.151000022888184 5.309999942779541,-9.666000366210938 C-23.240999221801758,-9.168999671936035 -46.439998626708984,-11.218000411987305 -46.439998626708984,-11.218000411987305z"></path></g><g opacity="0.15" transform="matrix(1,0,0,1,295.86700439453125,374.7449951171875)"><path stroke-linecap="round" stroke-linejoin="round" fill-opacity="0" stroke="rgb(177,93,62)" stroke-opacity="1" stroke-width="7.323" d=" M-43.97700119018555,-8.696000099182129 C-43.97700119018555,-8.696000099182129 -21.572999954223633,-6.297999858856201 0.4519999921321869,-6.622000217437744 C30.7549991607666,-7.066999912261963 42.13600158691406,-12.187000274658203 42.13600158691406,-12.187000274658203"></path></g><g opacity="1" transform="matrix(1,0,0,1,277.9849853515625,343.0329895019531)"><path stroke-linecap="round" stroke-linejoin="round" fill-opacity="0" stroke="rgb(104,32,27)" stroke-opacity="1" stroke-width="11" d=" M165.62100219726562,4.125999927520752 C165.62100219726562,4.125999927520752 158.17599487304688,0.41499999165534973 132.9949951171875,-3.9019999504089355 C107.37799835205078,-8.293000221252441 90.83300018310547,-1.9179999828338623 63.49399948120117,-3.8369998931884766 C46.236000061035156,-5.047999858856201 27.113000869750977,-3.4230000972747803 0.902999997138977,-2.7260000705718994 C-34.257999420166016,-1.7910000085830688 -61.97700119018555,-7.139999866485596 -102.98500061035156,-3.9019999504089355 C-143.99400329589844,-0.6639999747276306 -165.62100219726562,8.293000221252441 -165.62100219726562,8.293000221252441"></path></g><g opacity="1" transform="matrix(1,0,0,1,299.2569885253906,380.677001953125)"><path fill="rgb(255,182,142)" fill-opacity="1" d=" M20.184999465942383,-1.0180000066757202 C20.184999465942383,-1.0180000066757202 13.795999526977539,-3.240000009536743 10.741000175476074,1.7599999904632568 C9.503999710083008,3.7839999198913574 14.074000358581543,11.482000350952148 14.074000358581543,11.482000350952148 C14.074000358581543,11.482000350952148 6.945000171661377,6.945000171661377 -0.925000011920929,3.9820001125335693 C-6.136000156402588,2.0199999809265137 -23.33300018310547,2.5929999351501465 -23.33300018310547,2.5929999351501465 C-23.33300018310547,2.5929999351501465 -15.925000190734863,0.7419999837875366 -15.925000190734863,-1.8509999513626099 C-15.925000190734863,-1.8509999513626099 -15.925000190734863,-4.443999767303467 -15.925000190734863,-4.443999767303467 C-15.925000190734863,-4.443999767303467 -9.258999824523926,-11.480999946594238 7.0370001792907715,-7.7769999504089355 C23.33300018310547,-4.073999881744385 20.184999465942383,-1.0180000066757202 20.184999465942383,-1.0180000066757202z"></path></g><g opacity="1" transform="matrix(1,0,0,1,289.5719909667969,396.01300048828125)"><path stroke-linecap="round" stroke-linejoin="round" fill-opacity="0" stroke="rgb(184,91,44)" stroke-opacity="1" stroke-width="10" d=" M-30.03700065612793,-1.4839999675750732 C-30.03700065612793,-1.4839999675750732 -17.851999282836914,-11.105999946594238 -2.3380000591278076,-9.758000373840332 C24.03700065612793,-7.466000080108643 30.03700065612793,11.105999946594238 30.03700065612793,11.105999946594238"></path></g><g opacity="0.66" transform="matrix(0.8999999761581421,0,0,0.8999999761581421,440.1570129394531,319.760986328125)"><path fill="rgb(232,153,108)" fill-opacity="1" d=" M-20.236000061035156,1.468999981880188 C-20.236000061035156,1.468999981880188 -12.081999778747559,-1.8880000114440918 -2.9089999198913574,-2.427000045776367 C6.263999938964844,-2.9679999351501465 12.559000015258789,0.4490000009536743 15.616999626159668,3.506999969482422 C18.673999786376953,6.565999984741211 18.493999481201172,10.342000007629395 22.091999053955078,8.36400032043457 C25.68899917602539,6.385000228881836 24.790000915527344,2.6089999675750732 20.83300018310547,-1.3480000495910645 C16.875999450683594,-5.304999828338623 10.579999923706055,-10.342000007629395 -0.7509999871253967,-9.623000144958496 C-12.081999778747559,-8.902999877929688 -21.614999771118164,-3.1470000743865967 -23.233999252319336,-1.5290000438690186 C-24.85300064086914,0.09000000357627869 -25.68899917602539,0.8299999833106995 -24.312999725341797,2.069000005722046 C-22.513999938964844,3.687999963760376 -20.236000061035156,1.468999981880188 -20.236000061035156,1.468999981880188z"></path></g><g opacity="1" transform="matrix(1,0,0,1,85.53500366210938,310.49798583984375)"><path stroke-linecap="round" stroke-linejoin="round" fill-opacity="0" stroke="rgb(232,153,108)" stroke-opacity="0" stroke-width="10" d=" M-12.223999977111816,20.614999771118164 C-12.223999977111816,20.614999771118164 -6.894000053405762,11.57800006866455 8.946000099182129,8.050999641418457 C24.885000228881836,4.501999855041504 34.71699905395508,8.819000244140625 34.71699905395508,8.819000244140625"></path></g></g></g><g style="display: block;" transform="matrix(0.8600000143051147,0,0,0.8399999737739563,39.27999496459961,30.040006637573242)" opacity="1"><g opacity="0" transform="matrix(1,0,0,1,197.968994140625,260.57598876953125)"><path fill="rgb(206,130,103)" fill-opacity="0.8" d=" M-45.599998474121094,-21.545000076293945 C-45.599998474121094,-21.545000076293945 -48.957000732421875,-2.549999952316284 -35.86399841308594,14.88700008392334 C-20.21500015258789,35.72800064086914 -6.547999858856201,37.44200134277344 11.54699993133545,29.92300033569336 C28.788000106811523,22.757999420166016 43.540000915527344,-0.6240000128746033 47.50299835205078,-16.7450008392334 C54.41600036621094,-44.8650016784668 52.305999755859375,-55.08000183105469 52.305999755859375,-55.08000183105469 C52.305999755859375,-55.08000183105469 7.184999942779541,-33.12200164794922 7.184999942779541,-33.12200164794922 C7.184999942779541,-33.12200164794922 -0.10499999672174454,-32.551998138427734 -0.10499999672174454,-32.551998138427734 C-0.10499999672174454,-32.551998138427734 -45.599998474121094,-21.545000076293945 -45.599998474121094,-21.545000076293945z"></path></g><g opacity="1" transform="matrix(1,0,0,1,148.52200317382812,235.1580047607422)"><path fill="rgb(255,212,175)" fill-opacity="1" d=" M-20.000999450683594,-4.107999801635742 C-20.000999450683594,-4.107999801635742 -13.62600040435791,0.2709999978542328 -2.5940001010894775,2.188999891281128 C8.437999725341797,4.107999801635742 20.000999450683594,0.7319999933242798 20.000999450683594,0.7319999933242798"></path></g><g opacity="1" transform="matrix(1,0,0,1,148.52200317382812,235.1580047607422)"><path stroke-linecap="round" stroke-linejoin="round" fill-opacity="0" stroke="rgb(182,94,49)" stroke-opacity="1" stroke-width="9" d=" M6.999000072479248,3.3919999599456787 C6.999000072479248,3.3919999599456787 13.37399959564209,7.770999908447266 24.4060001373291,9.689000129699707 C35.4379997253418,11.607999801635742 47.000999450683594,8.232000350952148 47.000999450683594,8.232000350952148"></path></g><g opacity="1" transform="matrix(1,0,0,1,148.37899780273438,261.1910095214844)"><path stroke-linecap="round" stroke-linejoin="round" fill-opacity="0" stroke="rgb(182,94,49)" stroke-opacity="1" stroke-width="9" d=" M13.35200023651123,-2.191999912261963 C13.35200023651123,-2.191999912261963 22.46500015258789,-5.070000171661377 29.18000030517578,-7.947999954223633 C35.89400100708008,-10.826000213623047 40.21099853515625,-13.70300006866455 40.21099853515625,-13.70300006866455"></path></g><g opacity="0.51" transform="matrix(1,0,0,1,209.95599365234375,279.6130065917969)"><path stroke-linecap="round" stroke-linejoin="round" fill-opacity="0" stroke="rgb(182,94,49)" stroke-opacity="1" stroke-width="9" d=" M-33.45399856567383,20.5049991607666 C-33.45399856567383,20.5049991607666 -12.590999603271484,24.101999282836914 10.432000160217285,11.151000022888184 C33.45399856567383,-1.7990000247955322 33.45399856567383,-24.10099983215332 33.45399856567383,-24.10099983215332"></path></g><g opacity="1" transform="matrix(1,0,0,1,198.5570068359375,243.62100219726562)"><path fill="rgb(255,255,255)" fill-opacity="1" d=" M-33.020999908447266,-35.13399887084961 C-33.020999908447266,-35.13399887084961 -50.27899932861328,-18.540000915527344 -44.63800048828125,3.0320000648498535 C-39.15800094604492,23.982999801635742 -22.54199981689453,38.12200164794922 5.668000221252441,36.46200180053711 C33.87699890136719,34.803001403808594 46.61600112915039,13.595000267028809 48.2869987487793,-2.2790000438690186 C50.27799987792969,-21.195999145507812 39.659000396728516,-34.801998138427734 38.33100128173828,-36.46200180053711 C37.00299835205078,-38.12099838256836 26.384000778198242,-37.457000732421875 26.384000778198242,-37.457000732421875 C26.384000778198242,-37.457000732421875 -5.808000087738037,-37.125 -5.808000087738037,-37.125 C-5.808000087738037,-37.125 -33.020999908447266,-35.13399887084961 -33.020999908447266,-35.13399887084961z"></path><path stroke-linecap="butt" stroke-linejoin="miter" fill-opacity="0" stroke-miterlimit="10" stroke="rgb(108,80,111)" stroke-opacity="1" stroke-width="11" d=" M-33.020999908447266,-35.13399887084961 C-33.020999908447266,-35.13399887084961 -50.27899932861328,-18.540000915527344 -44.63800048828125,3.0320000648498535 C-39.15800094604492,23.982999801635742 -22.54199981689453,38.12200164794922 5.668000221252441,36.46200180053711 C33.87699890136719,34.803001403808594 46.61600112915039,13.595000267028809 48.2869987487793,-2.2790000438690186 C50.27799987792969,-21.195999145507812 39.659000396728516,-34.801998138427734 38.33100128173828,-36.46200180053711 C37.00299835205078,-38.12099838256836 26.384000778198242,-37.457000732421875 26.384000778198242,-37.457000732421875 C26.384000778198242,-37.457000732421875 -5.808000087738037,-37.125 -5.808000087738037,-37.125 C-5.808000087738037,-37.125 -33.020999908447266,-35.13399887084961 -33.020999908447266,-35.13399887084961z"></path></g><g opacity="0" transform="matrix(1,0,0,1,207.93099975585938,242.17300415039062)"><path fill="rgb(241,84,84)" fill-opacity="1" d=" M-35.90999984741211,24.611000061035156 C-35.90999984741211,24.611000061035156 -9.644000053405762,37.51900100708008 13.96500015258789,24.326000213623047 C33.34400177001953,13.496000289916992 31.631000518798828,-4.111999988555908 31.350000381469727,-9.305000305175781 C30.780000686645508,-19.849000930786133 25.64900016784668,-25.83300018310547 24.79400062561035,-27.542999267578125 C23.93899917602539,-29.253000259399414 17.010000228881836,-36.00899887084961 17.010000228881836,-36.00899887084961 C17.010000228881836,-36.00899887084961 19.663999557495117,-37.518001556396484 19.663999557495117,-37.518001556396484 C19.663999557495117,-37.518001556396484 35.909000396728516,-26.687999725341797 35.3390007019043,-5.314000129699707 C34.78300094604492,15.531999588012695 18.999000549316406,32.875 -3.515000104904175,33.72999954223633 C-30.360000610351562,34.749000549316406 -35.90999984741211,24.611000061035156 -35.90999984741211,24.611000061035156z"></path></g><g opacity="0" transform="matrix(1,0,0,1,203.18299865722656,238.85899353027344)"><path fill="rgb(241,84,84)" fill-opacity="0.42" d=" M23.082000732421875,-27.934999465942383 C23.082000732421875,-27.934999465942383 37.902000427246094,-11.593999862670898 32.582000732421875,4.366000175476074 C27.261999130249023,20.325000762939453 20.802000045776367,28.30500030517578 4.461999893188477,30.20400047302246 C-11.876999855041504,32.10499954223633 -23.277000427246094,28.684999465942383 -27.457000732421875,26.784000396728516 C-31.636999130249023,24.884000778198242 -37.71699905395508,22.224000930786133 -37.71699905395508,22.224000930786133 C-37.71699905395508,22.224000930786133 -23.656999588012695,36.284000396728516 -6.558000087738037,36.66400146484375 C10.541999816894531,37.04399871826172 29.54199981689453,25.645000457763672 34.10200119018555,14.62600040435791 C38.6619987487793,3.6059999465942383 37.902000427246094,-4.754000186920166 37.141998291015625,-12.734000205993652 C36.38199996948242,-20.714000701904297 21.941999435424805,-36.67399978637695 21.941999435424805,-36.67399978637695 C21.941999435424805,-36.67399978637695 23.082000732421875,-27.934999465942383 23.082000732421875,-27.934999465942383z"></path></g><g opacity="1" transform="matrix(0.8600000143051147,0,0,0.8600000143051147,46.492584228515625,34.83575439453125)"><g opacity="1" transform="matrix(1,0,0,1,177.3159942626953,241.6840057373047)"><path fill="rgb(8,8,21)" fill-opacity="1" d=" M12.569999694824219,0 C12.569999694824219,6.941999912261963 6.942999839782715,12.569000244140625 0.0010000000474974513,12.569000244140625 C-6.940999984741211,12.569000244140625 -12.569999694824219,6.941999912261963 -12.569999694824219,0 C-12.569999694824219,-6.940999984741211 -6.940999984741211,-12.569000244140625 0.0010000000474974513,-12.569000244140625 C6.942999839782715,-12.569000244140625 12.569999694824219,-6.940999984741211 12.569999694824219,0z"></path></g><g opacity="1" transform="matrix(1,0,0,1,166.4929962158203,244.24400329589844)"><path fill="rgb(255,255,255)" fill-opacity="1" d=" M6.484000205993652,0 C6.484000205993652,3.5810000896453857 3.5810000896453857,6.482999801635742 0.0010000000474974513,6.482999801635742 C-3.5799999237060547,6.482999801635742 -6.484000205993652,3.5810000896453857 -6.484000205993652,0 C-6.484000205993652,-3.5810000896453857 -3.5799999237060547,-6.482999801635742 0.0010000000474974513,-6.482999801635742 C3.5810000896453857,-6.482999801635742 6.484000205993652,-3.5810000896453857 6.484000205993652,0z"></path></g></g><g opacity="1" transform="matrix(1,0,0,1,197.11500549316406,233.6790008544922)"><path fill="rgb(168,164,197)" fill-opacity="1" d=" M-32.483001708984375,25.889999389648438 C-32.483001708984375,25.889999389648438 -37.53799819946289,13.630000114440918 -35.827999114990234,0.23499999940395355 C-34.60300064086914,-9.36400032043457 -30.45400047302246,-14.456000328063965 -24.704999923706055,-16.145999908447266 C-18.409000396728516,-17.99799919128418 40.45600128173828,-17.90999984741211 40.45600128173828,-17.90999984741211 C40.45600128173828,-17.90999984741211 34.75600051879883,-25.889999389648438 34.75600051879883,-25.889999389648438 C34.75600051879883,-25.889999389648438 -24.238000869750977,-25.889999389648438 -24.238000869750977,-25.889999389648438 C-24.238000869750977,-25.889999389648438 -31.577999114990234,-25.191999435424805 -31.577999114990234,-25.191999435424805 C-31.577999114990234,-25.191999435424805 -40.45600128173828,-13.597000122070312 -40.07600021362305,2.743000030517578 C-39.667999267578125,20.309999465942383 -32.483001708984375,25.889999389648438 -32.483001708984375,25.889999389648438z"></path></g><g opacity="0.8300000000000001" transform="matrix(1,0,0,1,196.11199951171875,197.7899932861328)"><path fill="rgb(226,144,102)" fill-opacity="1" d=" M-67.22100067138672,-0.6269999742507935 C-67.22100067138672,-0.6269999742507935 16.110000610351562,-6.182000160217285 31.665000915527344,-6.182000160217285 C57.220001220703125,-6.182000160217285 70.5530014038086,-13.404000282287598 70.5530014038086,-13.404000282287598 C70.5530014038086,-13.404000282287598 63.54600143432617,4.684999942779541 61.77199935913086,5.36299991607666 C59.99800109863281,6.039999961853027 41.516998291015625,13.404000282287598 35.757999420166016,9.99899959564209 C29.999000549316406,6.59499979019165 -70.55400085449219,7.705999851226807 -70.55400085449219,7.705999851226807 C-70.55400085449219,7.705999851226807 -67.22100067138672,-0.6269999742507935 -67.22100067138672,-0.6269999742507935z"></path></g><g opacity="1" transform="matrix(1,0,0,1,199.51699829101562,198.29100036621094)"><path stroke-linecap="round" stroke-linejoin="round" fill-opacity="0" stroke="rgb(72,27,20)" stroke-opacity="1" stroke-width="12.235" d=" M-69.51499938964844,8.871999740600586 C-69.51499938964844,8.871999740600586 -32.71799850463867,7.788000106811523 7.065000057220459,6.239999771118164 C46.84700012207031,4.690999984741211 51.23899841308594,7.452000141143799 58.367000579833984,4.861999988555908 C65.49500274658203,2.2709999084472656 69.51399993896484,-8.871999740600586 69.51399993896484,-8.871999740600586"></path></g><g opacity="1" transform="matrix(1,0,0,1,191.7270050048828,283.46099853515625)"><path fill="rgb(251,204,167)" fill-opacity="1" d=" M-30.799999237060547,-11.668999671936035 C-30.799999237060547,-11.668999671936035 -18.02400016784668,0.531000018119812 -0.3240000009536743,1.031000018119812 C17.374000549316406,1.531000018119812 28.898000717163086,-2.303999900817871 28.898000717163086,-2.303999900817871 C28.898000717163086,-2.303999900817871 22.250999450683594,1.9509999752044678 1.440999984741211,1.6080000400543213 C-19.368000030517578,1.2660000324249268 -30.799999237060547,-11.668999671936035 -30.799999237060547,-11.668999671936035z"></path></g><g opacity="0" transform="matrix(1,0,0,1,0,0)"><g opacity="0" transform="matrix(1,0,0,1,218.09100341796875,260.2489929199219)"><path stroke-linecap="round" stroke-linejoin="round" fill-opacity="0" stroke="rgb(166,45,91)" stroke-opacity="1" stroke-width="4" d=" M9.147000312805176,9.505000114440918 C9.147000312805176,9.505000114440918 14.810999870300293,4.644000053405762 14.875,4.906000137329102 C18.474000930786133,9.50100040435791 12.572999954223633,6.741000175476074 12.572999954223633,9.116000175476074 C12.572999954223633,11.491000175476074 10.946999549865723,12.800000190734863 10.946999549865723,12.800000190734863"></path></g><g opacity="0.49" transform="matrix(1,0,0,1,235.56300354003906,244.64300537109375)"><path stroke-linecap="round" stroke-linejoin="round" fill-opacity="0" stroke="rgb(166,45,91)" stroke-opacity="1" stroke-width="4" d=" M6.948999881744385,3.7960000038146973 C6.948999881744385,3.7960000038146973 5.150000095367432,2.565000057220459 8.20300006866455,3.921999931335449 C11.256999969482422,5.2789998054504395 9.821999549865723,3.5829999446868896 10.83899974822998,3.243000030517578 C11.857000350952148,2.9049999713897705 13.553000450134277,1.5470000505447388 13.553000450134277,1.5470000505447388"></path></g><g opacity="1" transform="matrix(1,0,0,1,235.39300537109375,230.22500610351562)"><path stroke-linecap="round" stroke-linejoin="round" fill-opacity="0" stroke="rgb(166,45,91)" stroke-opacity="1" stroke-width="4" d=" M10.053000450134277,1.1679999828338623 C10.053000450134277,1.1679999828338623 10.527000427246094,-4.436999797821045 10.527000427246094,-2.062999963760376 C10.527000427246094,0.31200000643730164 7.8379998207092285,8.102999687194824 12.22700023651123,9.947999954223633 C12.45199966430664,10.104999542236328 10.553999900817871,1.2339999675750732 10.894000053405762,3.2699999809265137 C11.232999801635742,5.306000232696533 8.859000205993652,8.697999954223633 11.232999801635742,9.376999855041504 C13.607999801635742,10.055000305175781 13.26099967956543,0.03999999910593033 13.26099967956543,0.03999999910593033"></path></g><g opacity="0.41000000000000003" transform="matrix(1,0,0,1,208.76199340820312,268.7300109863281)"><path stroke-linecap="round" stroke-linejoin="round" fill-opacity="0" stroke="rgb(166,45,91)" stroke-opacity="1" stroke-width="4" d=" M4.085999965667725,9.156000137329102 C4.085999965667725,9.156000137329102 1.1749999523162842,7.609000205993652 4.986999988555908,9.852999687194824 C10.133000373840332,12.880999565124512 5.883999824523926,9.067999839782715 7.138999938964844,9.055000305175781 C10.807999610900879,9.017999649047852 10.133999824523926,11.107999801635742 10.133999824523926,11.107999801635742"></path></g><g opacity="0" transform="matrix(1,0,0,1,185.5240020751953,270.59600830078125)"><path stroke-linecap="round" stroke-linejoin="round" fill-opacity="0" stroke="rgb(166,45,91)" stroke-opacity="1" stroke-width="4" d=" M-3.434000015258789,6.24399995803833 C-3.434000015258789,6.24399995803833 -3.138000011444092,6.574999809265137 -2.6080000400543213,6.931000232696533 C-1.906999945640564,7.4019999504089355 -0.7960000038146973,7.914000034332275 0.5770000219345093,7.749000072479248 C2.8369998931884766,7.478000164031982 3.441999912261963,8.343999862670898 4.460000038146973,10.039999961853027 C5.478000164031982,11.736000061035156 4.163000106811523,11.119999885559082 4.163000106811523,11.119999885559082"></path></g><g opacity="1" transform="matrix(1,0,0,1,167.20399475097656,259.2309875488281)"><path stroke-linecap="round" stroke-linejoin="round" fill-opacity="0" stroke="rgb(166,45,91)" stroke-opacity="1" stroke-width="4" d=" M3.6010000705718994,3.9830000400543213 C3.6010000705718994,3.9830000400543213 2.5329999923706055,3.7100000381469727 3.306999921798706,7.863999843597412 C4.170000076293945,12.496999740600586 1.9539999961853027,9.612000465393066 0.9359999895095825,10.291000366210938 C-0.0820000022649765,10.968999862670898 -1.2289999723434448,8.116999626159668 -1.2289999723434448,8.116999626159668 C-1.2289999723434448,8.116999626159668 -6.997000217437744,2.3489999771118164 -6.997000217437744,2.3489999771118164"></path></g></g><g opacity="0" transform="matrix(1,0,0,1,0,0)"><path fill="rgb(252,193,158)" fill-opacity="1" d=" M239.29800415039062,212.66099548339844 C239.29800415039062,212.66099548339844 227.30999755859375,207.00399780273438 193.44400024414062,209.6439971923828 C155.87399291992188,212.572998046875 147.9510040283203,224.48699951171875 147.9510040283203,224.48699951171875 C147.9510040283203,224.48699951171875 159.68099975585938,217.81100463867188 164.83200073242188,215.6959991455078 C175.6230010986328,211.26499938964844 184.20899963378906,210.82899475097656 202.35499572753906,210.11599731445312 C231.04400634765625,208.98800659179688 232.29100036621094,214.7740020751953 240.9199981689453,214.1479949951172 C244.67599487304688,213.87600708007812 239.29800415039062,212.66099548339844 239.29800415039062,212.66099548339844z"></path><path stroke-linecap="butt" stroke-linejoin="round" fill-opacity="0" stroke="rgb(154,55,29)" stroke-opacity="1" stroke-width="9" d=" M239.29800415039062,212.66099548339844 C239.29800415039062,212.66099548339844 227.30999755859375,207.00399780273438 193.44400024414062,209.6439971923828 C155.87399291992188,212.572998046875 147.9510040283203,224.48699951171875 147.9510040283203,224.48699951171875 C147.9510040283203,224.48699951171875 159.68099975585938,217.81100463867188 164.83200073242188,215.6959991455078 C175.6230010986328,211.26499938964844 184.20899963378906,210.82899475097656 202.35499572753906,210.11599731445312 C231.04400634765625,208.98800659179688 232.29100036621094,214.7740020751953 240.9199981689453,214.1479949951172 C244.67599487304688,213.87600708007812 239.29800415039062,212.66099548339844 239.29800415039062,212.66099548339844z"></path></g></g><g style="display: block;" transform="matrix(0.7826000452041626,0,0,0.7644000053405762,55.08679962158203,45.27760696411133)" opacity="1"><g opacity="1" transform="matrix(1,0,0,1,382.04400634765625,194.5240020751953)"><path fill="rgb(226,144,102)" fill-opacity="0.79" d=" M-51.67599868774414,-9.027999877929688 C-51.67599868774414,-9.027999877929688 -44.06700134277344,-2.174999952316284 -34.638999938964844,-1.6200000047683716 C-25.211999893188477,-1.065000057220459 27.261999130249023,-0.6949999928474426 34.652000427246094,-0.13899999856948853 C42.04100036621094,0.41600000858306885 52.233001708984375,0.14000000059604645 51.2140007019043,4.584000110626221 C50.194000244140625,9.027999877929688 12.994000434875488,8.194000244140625 -10.192000389099121,7.915999889373779 C-33.37900161743164,7.638000011444092 -49.17599868774414,8.194000244140625 -50.70500183105469,2.9159998893737793 C-52.23400115966797,-2.3610000610351562 -51.67599868774414,-9.027999877929688 -51.67599868774414,-9.027999877929688z"></path></g><g opacity="0" transform="matrix(1,0,0,1,382.4079895019531,258.3909912109375)"><path fill="rgb(206,130,103)" fill-opacity="0.8" d=" M38.41600036621094,-50.31700134277344 C38.41600036621094,-50.31700134277344 58.37699890136719,-38.106998443603516 27.597000122070312,6.353000164031982 C13.531999588012695,26.66900062561035 2.2899999618530273,24.951000213623047 -12.598999977111816,20.132999420166016 C-31.488000869750977,14.02299976348877 -45.51900100708008,11.0600004196167 -48.36899948120117,-14.019000053405762 C-51.417999267578125,-40.854000091552734 -44.233001708984375,-53.16699981689453 -44.233001708984375,-53.16699981689453 C-44.233001708984375,-53.16699981689453 -16.31800079345703,-29.797000885009766 -16.31800079345703,-29.797000885009766 C-16.31800079345703,-29.797000885009766 -9.821999549865723,-29.226999282836914 -9.821999549865723,-29.226999282836914 C-9.821999549865723,-29.226999282836914 38.41600036621094,-50.31700134277344 38.41600036621094,-50.31700134277344z"></path></g><g opacity="1" transform="matrix(1,0,0,1,427.1669921875,263.40899658203125)"><path stroke-linecap="round" stroke-linejoin="round" fill-opacity="0" stroke="rgb(182,94,49)" stroke-opacity="1" stroke-width="7.323" d=" M-32.70899963378906,-2.799999952316284 C-32.70899963378906,-2.799999952316284 -25.155000686645508,-3.878999948501587 -19.040000915527344,-3.1600000858306885 C-12.923999786376953,-2.440000057220459 -8.248000144958496,-1.3609999418258667 -8.248000144958496,-1.3609999418258667"></path></g><g opacity="1" transform="matrix(1,0,0,1,433.1029968261719,248.83999633789062)"><path fill="rgb(255,212,175)" fill-opacity="1" d=" M-12.050999641418457,1.7979999780654907 C-12.050999641418457,1.7979999780654907 -5.550000190734863,-0.6890000104904175 2.697999954223633,-1.4390000104904175 C6.65500020980835,-1.7979999780654907 12.050999641418457,-0.3610000014305115 12.050999641418457,-0.3610000014305115"></path></g><g opacity="1" transform="matrix(1,0,0,1,433.1029968261719,248.83999633789062)"><path stroke-linecap="round" stroke-linejoin="round" fill-opacity="0" stroke="rgb(182,94,49)" stroke-opacity="1" stroke-width="7.323" d=" M-35.676998138427734,0.699999988079071 C-35.676998138427734,0.699999988079071 -29.176000595092773,-1.7879999876022339 -20.92799949645996,-2.5380001068115234 C-16.97100067138672,-2.8970000743865967 -11.574999809265137,-1.4589999914169312 -11.574999809265137,-1.4589999914169312"></path></g><g opacity="1" transform="matrix(1,0,0,1,378.09100341796875,243.92999267578125)"><path fill="rgb(255,255,255)" fill-opacity="1" d=" M-32.981998443603516,-34.00600051879883 C-32.981998443603516,-34.00600051879883 -50.21900177001953,-17.41699981689453 -44.58399963378906,4.1479997634887695 C-39.111000061035156,25.091999053955078 -23.259000778198242,36.99100112915039 4.915999889373779,35.33300018310547 C33.09199905395508,33.67399978637695 46.560001373291016,14.706000328063965 48.229000091552734,-1.1610000133514404 C50.21799850463867,-20.07200050354004 39.611000061035156,-33.67399978637695 38.28499984741211,-35.33300018310547 C36.95899963378906,-36.992000579833984 26.351999282836914,-36.32699966430664 26.351999282836914,-36.32699966430664 C26.351999282836914,-36.32699966430664 -5.801000118255615,-35.99700164794922 -5.801000118255615,-35.99700164794922 C-5.801000118255615,-35.99700164794922 -32.981998443603516,-34.00600051879883 -32.981998443603516,-34.00600051879883z"></path><path stroke-linecap="butt" stroke-linejoin="miter" fill-opacity="0" stroke-miterlimit="10" stroke="rgb(108,80,111)" stroke-opacity="1" stroke-width="11" d=" M-32.981998443603516,-34.00600051879883 C-32.981998443603516,-34.00600051879883 -50.21900177001953,-17.41699981689453 -44.58399963378906,4.1479997634887695 C-39.111000061035156,25.091999053955078 -23.259000778198242,36.99100112915039 4.915999889373779,35.33300018310547 C33.09199905395508,33.67399978637695 46.560001373291016,14.706000328063965 48.229000091552734,-1.1610000133514404 C50.21799850463867,-20.07200050354004 39.611000061035156,-33.67399978637695 38.28499984741211,-35.33300018310547 C36.95899963378906,-36.992000579833984 26.351999282836914,-36.32699966430664 26.351999282836914,-36.32699966430664 C26.351999282836914,-36.32699966430664 -5.801000118255615,-35.99700164794922 -5.801000118255615,-35.99700164794922 C-5.801000118255615,-35.99700164794922 -32.981998443603516,-34.00600051879883 -32.981998443603516,-34.00600051879883z"></path></g><g opacity="1" transform="matrix(1,0,0,1,0,0)"><g opacity="1" transform="matrix(1,0,0,1,400.92498779296875,243.1929931640625)"><path fill="rgb(8,8,21)" fill-opacity="1" d=" M13.131999969482422,0 C13.131999969482422,7.251999855041504 7.251999855041504,13.130999565124512 0,13.130999565124512 C-7.252999782562256,13.130999565124512 -13.131999969482422,7.251999855041504 -13.131999969482422,0 C-13.131999969482422,-7.251999855041504 -7.252999782562256,-13.130999565124512 0,-13.130999565124512 C7.251999855041504,-13.130999565124512 13.131999969482422,-7.251999855041504 13.131999969482422,0z"></path></g><g opacity="1" transform="matrix(1,0,0,1,410.03900146484375,245.59100341796875)"><path fill="rgb(255,255,255)" fill-opacity="1" d=" M6.798999786376953,0 C6.798999786376953,3.755000114440918 3.755000114440918,6.798999786376953 0,6.798999786376953 C-3.755000114440918,6.798999786376953 -6.798999786376953,3.755000114440918 -6.798999786376953,0 C-6.798999786376953,-3.755000114440918 -3.755000114440918,-6.798999786376953 0,-6.798999786376953 C3.755000114440918,-6.798999786376953 6.798999786376953,-3.755000114440918 6.798999786376953,0z"></path></g></g><g opacity="1" transform="matrix(1,0,0,1,376.3800048828125,236.64199829101562)"><path fill="rgb(177,177,206)" fill-opacity="1" d=" M-30.549999237060547,25.889999389648438 C-30.549999237060547,25.889999389648438 -35.60499954223633,13.630000114440918 -33.89500045776367,0.23499999940395355 C-32.66899871826172,-9.36400032043457 -28.520999908447266,-14.456000328063965 -22.77199935913086,-16.145999908447266 C-16.47599983215332,-17.99799919128418 40.09600067138672,-17.99799919128418 40.09600067138672,-17.99799919128418 C40.09600067138672,-17.99799919128418 35.83700180053711,-25.59000015258789 35.83700180053711,-25.59000015258789 C35.83700180053711,-25.59000015258789 -22.30500030517578,-25.889999389648438 -22.30500030517578,-25.889999389648438 C-22.30500030517578,-25.889999389648438 -26.93899917602539,-24.201000213623047 -26.93899917602539,-24.201000213623047 C-26.93899917602539,-24.201000213623047 -40.09600067138672,-14.986000061035156 -39.71699905395508,1.3530000448226929 C-39.30799865722656,18.922000885009766 -30.549999237060547,25.889999389648438 -30.549999237060547,25.889999389648438z"></path></g><g opacity="0" transform="matrix(1,0,0,1,386.864013671875,244.33200073242188)"><path fill="rgb(241,84,84)" fill-opacity="1" d=" M-36.48400115966797,22.290000915527344 C-36.48400115966797,22.290000915527344 -9.277000427246094,34.946998596191406 14.520999908447266,22.690000534057617 C34.05699920654297,12.628000259399414 32.58100128173828,-4.428999900817871 32.29800033569336,-9.253999710083008 C31.724000930786133,-19.051000595092773 26.770999908447266,-25.304000854492188 25.90999984741211,-26.89299964904785 C25.04800033569336,-28.481000900268555 19.70599937438965,-33.74300003051758 19.70599937438965,-33.74300003051758 C19.70599937438965,-33.74300003051758 24.983999252319336,-34.948001861572266 24.983999252319336,-34.948001861572266 C24.983999252319336,-34.948001861572266 36.48400115966797,-24.992000579833984 35.90999984741211,-5.133999824523926 C35.3489990234375,14.232999801635742 18.868000030517578,29.968000411987305 -3.828000068664551,30.76300048828125 C-30.888999938964844,31.709999084472656 -36.48400115966797,22.290000915527344 -36.48400115966797,22.290000915527344z"></path></g><g opacity="0" transform="matrix(1,0,0,1,382.75299072265625,241.67999267578125)"><path fill="rgb(241,84,84)" fill-opacity="0.42" d=" M23.493000030517578,-28.4060001373291 C23.493000030517578,-28.4060001373291 38.77000045776367,-11.184000015258789 33.21500015258789,4.788000106811523 C28.03499984741211,19.68000030517578 20.010000228881836,25.29599952697754 3.5380001068115234,27.062000274658203 C-12.932999610900879,28.826000213623047 -24.375999450683594,27.246999740600586 -28.589000701904297,25.48200035095215 C-32.803001403808594,23.716999053955078 -37.06100082397461,21.593000411987305 -37.06100082397461,21.593000411987305 C-37.06100082397461,21.593000411987305 -27.215999603271484,33.60100173950195 -9.979000091552734,33.952999114990234 C7.258999824523926,34.30699920654297 28.81999969482422,22.825000762939453 33.41699981689453,12.586999893188477 C38.013999938964844,2.3489999771118164 37.24700164794922,-5.418000221252441 36.48099899291992,-12.831000328063965 C35.71500015258789,-20.2450008392334 20.761999130249023,-33.96099853515625 20.761999130249023,-33.96099853515625 C20.761999130249023,-33.96099853515625 23.493000030517578,-28.4060001373291 23.493000030517578,-28.4060001373291z"></path></g><g opacity="1" transform="matrix(1,0,0,1,378.28900146484375,199.47999572753906)"><path stroke-linecap="round" stroke-linejoin="round" fill-opacity="0" stroke="rgb(57,20,15)" stroke-opacity="1" stroke-width="12.235" d=" M51.24300003051758,6.7129998207092285 C51.24300003051758,6.7129998207092285 29.516000747680664,6.550000190734863 -1.843000054359436,5.834000110626221 C-33.20199966430664,5.118000030517578 -36.624000549316406,7.968999862670898 -42.27399826049805,5.5279998779296875 C-47.92399978637695,3.0880000591278076 -51.242000579833984,-7.968999862670898 -51.242000579833984,-7.968999862670898"></path></g><g opacity="1" transform="matrix(1,0,0,1,391.7550048828125,280.5530090332031)"><path fill="rgb(251,204,167)" fill-opacity="1" d=" M-23.981000900268555,3.0899999141693115 C-23.981000900268555,3.0899999141693115 -13.13700008392334,3.7679998874664307 -1.222000002861023,1.9149999618530273 C16.191999435424805,-0.7940000295639038 23.981000900268555,-9.317000389099121 23.981000900268555,-9.317000389099121 C23.981000900268555,-9.317000389099121 16.941999435424805,-0.29600000381469727 -2.9820001125335693,2.2249999046325684 C-22.854000091552734,4.738999843597412 -23.981000900268555,3.0899999141693115 -23.981000900268555,3.0899999141693115z"></path></g><g opacity="0.42" transform="matrix(1,0,0,1,400.2980041503906,287.4150085449219)"><path stroke-linecap="round" stroke-linejoin="round" fill-opacity="0" stroke="rgb(182,94,49)" stroke-opacity="1" stroke-width="7.323" d=" M-20.503999710083008,6.656000137329102 C-20.503999710083008,6.656000137329102 -9.352999687194824,8.454000473022461 3.9570000171661377,2.3389999866485596 C17.267000198364258,-3.7769999504089355 20.503999710083008,-8.45300006866455 20.503999710083008,-8.45300006866455"></path></g><g opacity="0" transform="matrix(1,0,0,1,0,0)"><g opacity="1" transform="matrix(1,0,0,1,349.7959899902344,241.38800048828125)"><path stroke-linecap="round" stroke-linejoin="round" fill-opacity="0" stroke="rgb(165,45,90)" stroke-opacity="1" stroke-width="5" d=" M-8.093000411987305,4.4770002365112305 C-8.093000411987305,4.4770002365112305 -8.373000144958496,4.563000202178955 -8.678000450134277,4.953000068664551 C-9.006999969482422,5.373000144958496 -9.36400032043457,6.146999835968018 -9.427000045776367,7.546999931335449 C-9.59000015258789,11.163000106811523 -10.192000389099121,6.840000152587891 -12.41100025177002,6.840000152587891 C-14.630000114440918,6.840000152587891 -12.897000312805176,7.7870001792907715 -12.897000312805176,7.7870001792907715"></path></g><g opacity="1" transform="matrix(1,0,0,1,355.7120056152344,260.2669982910156)"><path stroke-linecap="round" stroke-linejoin="round" fill-opacity="0" stroke="rgb(165,45,90)" stroke-opacity="1" stroke-width="5" d=" M-4.690999984741211,4.802999973297119 C-4.690999984741211,4.802999973297119 -4.421000003814697,3.197000026702881 -4.0229997634887695,6.331999778747559 C-3.671999931335449,9.095000267028809 -3.818000078201294,6.0970001220703125 -4.188000202178955,8.456999778747559 C-4.558000087738037,10.817000389099121 -6.776000022888184,9.02400016784668 -6.776000022888184,9.02400016784668"></path></g><g opacity="1" transform="matrix(1,0,0,1,373.0920104980469,268.9989929199219)"><path stroke-linecap="round" stroke-linejoin="round" fill-opacity="0" stroke="rgb(165,45,90)" stroke-opacity="1" stroke-width="5" d=" M-4.607999801635742,1.5750000476837158 C-4.607999801635742,1.5750000476837158 -4.590000152587891,1.3140000104904175 -4.686999797821045,1.340000033378601 C-4.7870001792907715,1.3669999837875366 -5.008999824523926,1.6979999542236328 -5.499000072479248,2.9260001182556152 C-6.556000232696533,5.578000068664551 -3.625,5.619999885559082 -3.625,5.619999885559082"></path></g><g opacity="1" transform="matrix(1,0,0,1,394.1700134277344,273.4830017089844)"><path stroke-linecap="round" stroke-linejoin="round" fill-opacity="0" stroke="rgb(165,45,90)" stroke-opacity="1" stroke-width="5" d=" M4.992000102996826,-5.900000095367432 C4.992000102996826,-5.900000095367432 4.252999782562256,-1.6519999504089355 1.6640000343322754,0.7080000042915344 C-0.925000011920929,3.068000078201294 -4.992000102996826,5.900000095367432 -4.992000102996826,5.900000095367432"></path></g></g><g opacity="0" transform="matrix(1,0,0,1,0,0)"><path fill="rgb(252,193,158)" fill-opacity="1" d=" M389.33599853515625,212.80799865722656 C378.60198974609375,213.69900512695312 349.0740051269531,209.6820068359375 341.47100830078125,213.24400329589844 C333.8680114746094,216.80599975585938 331.9389953613281,213.0570068359375 348.47900390625,212.70199584960938 C360.656005859375,212.4409942626953 367.656005859375,212.89199829101562 392.59100341796875,212.9149932861328 C402.3070068359375,212.9239959716797 427.9519958496094,215.92300415039062 425.5429992675781,215.66900634765625 C422.7590026855469,215.37600708007812 400.07000732421875,211.91700744628906 389.33599853515625,212.80799865722656z"></path><path stroke-linecap="butt" stroke-linejoin="round" fill-opacity="0" stroke="rgb(154,55,29)" stroke-opacity="1" stroke-width="9" d=" M389.33599853515625,212.80799865722656 C378.60198974609375,213.69900512695312 349.0740051269531,209.6820068359375 341.47100830078125,213.24400329589844 C333.8680114746094,216.80599975585938 331.9389953613281,213.0570068359375 348.47900390625,212.70199584960938 C360.656005859375,212.4409942626953 367.656005859375,212.89199829101562 392.59100341796875,212.9149932861328 C402.3070068359375,212.9239959716797 427.9519958496094,215.92300415039062 425.5429992675781,215.66900634765625 C422.7590026855469,215.37600708007812 400.07000732421875,211.91700744628906 389.33599853515625,212.80799865722656z"></path></g></g><g style="display: block;" transform="matrix(0.7612118124961853,0,0,0.7576212286949158,63.92831039428711,53.659507751464844)" opacity="1"><g opacity="1" transform="matrix(1,0,0,1,299.7130126953125,264.6929931640625)"><path fill="rgb(251,204,167)" fill-opacity="1" d=" M-14.53499984741211,-28.79199981689453 C-14.53499984741211,-28.79199981689453 -35.220001220703125,6.427999973297119 -35.220001220703125,6.427999973297119 C-35.220001220703125,6.427999973297119 -35.220001220703125,12.57800006866455 -35.220001220703125,12.57800006866455 C-35.220001220703125,12.57800006866455 -59.25899887084961,24.31800079345703 -49.19599914550781,38.29399871826172 C-39.13399887084961,52.27000045776367 -21.76799964904785,47.981998443603516 -21.76799964904785,47.981998443603516 C-21.76799964904785,47.981998443603516 -7.267000198364258,42.20800018310547 -7.267000198364258,42.20800018310547 C-7.267000198364258,42.20800018310547 13.416999816894531,47.2400016784668 13.416999816894531,47.2400016784668 C13.416999816894531,47.2400016784668 31.865999221801758,56.74399948120117 43.60599899291992,50.59400177001953 C55.34600067138672,44.44499969482422 59.25899887084961,38.85300064086914 57.582000732421875,29.349000930786133 C55.904998779296875,19.844999313354492 51.992000579833984,13.696000099182129 44.165000915527344,10.901000022888184 C36.3390007019043,8.105999946594238 17.889999389648438,-12.020000457763672 15.093999862670898,-20.964000701904297 C12.298999786376953,-29.909000396728516 8.38599967956543,-55.066001892089844 8.38599967956543,-55.066001892089844 C8.38599967956543,-55.066001892089844 -8.38599967956543,-56.74300003051758 -8.38599967956543,-56.74300003051758 C-8.38599967956543,-56.74300003051758 -13.416999816894531,-46.680999755859375 -13.416999816894531,-46.680999755859375 C-13.416999816894531,-46.680999755859375 -14.53499984741211,-28.79199981689453 -14.53499984741211,-28.79199981689453z"></path></g><g opacity="1" transform="matrix(1,0,0,1,311.43798828125,259.3299865722656)"><path fill="rgb(225,144,102)" fill-opacity="0.77" d=" M-13.774999618530273,-31.441999435424805 C-13.774999618530273,-31.441999435424805 -13.774999618530273,7.318999767303467 -8.557000160217285,23.718000411987305 C-3.3389999866485596,40.11600112915039 16.709999084472656,43.57899856567383 23.417999267578125,42.83399963378906 C30.12700080871582,42.0880012512207 33.5359992980957,39.49599838256836 34.5880012512207,35.75 C36.90399932861328,27.509000778198242 34.40700149536133,20.766000747680664 34.40700149536133,20.766000747680664 C34.40700149536133,20.766000747680664 45.45500183105469,30.481000900268555 39.492000579833984,41.290000915527344 C33.52899932861328,52.097999572753906 21.51099967956543,56.54600143432617 3.5299999713897705,49.64400100708008 C-7.164000034332275,45.53900146484375 -11.770999908447266,42.191001892089844 -17.44700050354004,42.56100082397461 C-22.516000747680664,42.89099884033203 -24.5310001373291,45.28499984741211 -29.434999465942383,46.375 C-38.777000427246094,48.45100021362305 -45.45500183105469,38.99800109863281 -34.27399826049805,32.6619987487793 C-23.091999053955078,26.326000213623047 -24.583999633789062,18.12700080871582 -24.95599937438965,10.300999641418457 C-25.32900047302246,2.4739999771118164 -26.856000900268555,-25.485000610351562 -23.531999588012695,-40.44200134277344 C-20.625999450683594,-53.51900100708008 -16.64900016784668,-56.547000885009766 -15.902999877929688,-51.702999114990234 C-15.157999992370605,-46.858001708984375 -13.774999618530273,-31.441999435424805 -13.774999618530273,-31.441999435424805z"></path></g><g opacity="1" transform="matrix(1,0,0,1,273.2139892578125,301.72900390625)"><path fill="rgb(224,143,105)" fill-opacity="1" d=" M-2.8510000705718994,-13.277000427246094 C-2.8510000705718994,-13.277000427246094 -11.237000465393066,-7.127999782562256 -10.119000434875488,-1.5379999876022339 C-8.659000396728516,5.761000156402588 14.07699966430664,-5.4679999351501465 16.871999740600586,-5.4679999351501465 C19.66699981689453,-5.4679999351501465 26.052000045776367,2.941999912261963 22.138999938964844,4.339000225067139 C18.22599983215332,5.736999988555908 -4.808000087738037,16.910999298095703 -12.913999557495117,12.718000411987305 C-21.020000457763672,8.526000022888184 -26.052000045776367,1.5369999408721924 -21.299999237060547,-6.568999767303467 C-16.54800033569336,-14.675000190734863 -13.192999839782715,-16.351999282836914 -9.279999732971191,-16.631000518798828 C-5.367000102996826,-16.910999298095703 0.07100000232458115,-15.383999824523926 0.07100000232458115,-15.383999824523926 C0.07100000232458115,-15.383999824523926 -2.8510000705718994,-13.277000427246094 -2.8510000705718994,-13.277000427246094z"></path></g><g opacity="1" transform="matrix(1,0,0,1,264.7669982910156,300.5559997558594)"><path fill="rgb(160,69,24)" fill-opacity="1" d=" M3.88700008392334,-11.87399959564209 C3.88700008392334,-11.87399959564209 -0.8339999914169312,-12.756999969482422 -6.284999847412109,-9.58899974822998 C-9.5,-7.7210001945495605 -12.145999908447266,-2.816999912261963 -11.006999969482422,2.4240000247955322 C-10.074999809265137,6.710000038146973 -6.4670000076293945,11.142999649047852 1.8880000114440918,11.324000358581543 C8.420000076293945,11.465999603271484 24.756000518798828,4.817999839782715 25.600000381469727,6.848999977111816 C26.23200035095215,8.369999885559082 22.361000061035156,14.47599983215332 5.456999778747559,18.738000869750977 C-0.5120000243186951,20.243000030517578 -19.16900062561035,16.742000579833984 -21.142000198364258,5.013000011444092 C-23.134000778198242,-6.828000068664551 -16.81599998474121,-12.715999603271484 -11.369999885559082,-15.784000396728516 C-4.576000213623047,-19.610000610351562 2.9130001068115234,-19.312000274658203 7.382999897003174,-17.19499969482422 C10.154000282287598,-15.881999969482422 8.97700023651123,-13.572999954223633 8.23799991607666,-12.814000129699707 C7.460999965667725,-12.017999649047852 3.88700008392334,-11.87399959564209 3.88700008392334,-11.87399959564209z"></path></g><g opacity="1" transform="matrix(1,0,0,1,321.0589904785156,293.4460144042969)"><path stroke-linecap="round" stroke-linejoin="round" fill-opacity="0" stroke="rgb(160,69,23)" stroke-opacity="1" stroke-width="9" d=" M-38.64500045776367,4.291999816894531 C-38.64500045776367,4.291999816894531 -31.23699951171875,0.7649999856948853 -26.649999618530273,3.938999891281128 C-22.062999725341797,7.114999771118164 -13.947999954223633,21.22800064086914 5.458000183105469,22.992000579833984 C21.268999099731445,24.43000030517578 29.426000595092773,20.204999923706055 34.4109992980957,8.98900032043457 C38.64500045776367,-0.5360000133514404 33.819000244140625,-11.529000282287598 26.05699920654297,-17.527000427246094 C18.295000076293945,-23.524999618530273 10.074000358581543,-24.43000030517578 10.074000358581543,-24.43000030517578"></path></g><g opacity="1" transform="matrix(1,0,0,1,281.9289855957031,298.3030090332031)"><path fill="rgb(8,8,21)" fill-opacity="1" d=" M2.005000114440918,-5.263000011444092 C2.005000114440918,-5.263000011444092 -3.302999973297119,-3.553999900817871 -4.625999927520752,-2.990000009536743 C-10.432999610900879,-0.5090000033378601 -11.027000427246094,6.260000228881836 -4.493000030517578,5.854000091552734 C-0.546999990940094,5.609000205993652 1.6979999542236328,3.8259999752044678 3.3420000076293945,2.555000066757202 C4.986000061035156,1.284999966621399 8.074000358581543,1.2519999742507935 8.871000289916992,0.05299999937415123 C9.668000221252441,-1.1449999809265137 11.027000427246094,-4.119999885559082 8.168999671936035,-5.190999984741211 C5.309999942779541,-6.260000228881836 2.005000114440918,-5.263000011444092 2.005000114440918,-5.263000011444092z"></path></g><g opacity="1" transform="matrix(1,0,0,1,332.3169860839844,239.22999572753906)"><path stroke-linecap="round" stroke-linejoin="round" fill-opacity="0" stroke="rgb(168,81,37)" stroke-opacity="1" stroke-width="8" d=" M9.482999801635742,-40.3380012512207 C9.482999801635742,-40.3380012512207 -2.6029999256134033,-30.364999771118164 -2.9059998989105225,-4.951000213623047 C-3.0789999961853027,9.595999717712402 3.631999969482422,28.69700050354004 3.631999969482422,28.69700050354004"></path></g></g><g style="display: block;" transform="matrix(0.7826000452041626,0,0,0.7644000053405762,55.08679962158203,45.27760696411133)" opacity="1"><g opacity="1" transform="matrix(1,0,0,1,378.28900146484375,199.47999572753906)"><path stroke-linecap="round" stroke-linejoin="round" fill-opacity="0" stroke="rgb(71,27,19)" stroke-opacity="1" stroke-width="12.235" d=" M51.24300003051758,6.7129998207092285 C51.24300003051758,6.7129998207092285 29.516000747680664,6.550000190734863 -1.843000054359436,5.834000110626221 C-33.20199966430664,5.118000030517578 -36.624000549316406,7.968999862670898 -42.27399826049805,5.5279998779296875 C-47.92399978637695,3.0880000591278076 -51.242000579833984,-7.968999862670898 -51.242000579833984,-7.968999862670898"></path></g></g><g style="display: block;" transform="matrix(1,0,0,1,256,256)" opacity="1"></g></g></g></svg>