<svg xmlns="http://www.w3.org/2000/svg" xmlns:xlink="http://www.w3.org/1999/xlink" viewBox="0 0 512 512" width="512" height="512" style="width: 100%; height: 100%; transform: translate3d(0,0,0); content-visibility: visible;" preserveAspectRatio="xMidYMid meet"><defs><clipPath id="__lottie_element_2"><rect width="512" height="512" x="0" y="0"></rect></clipPath><clipPath id="__lottie_element_4"><path d="M0,0 L512,0 L512,512 L0,512z"></path></clipPath><radialGradient id="__lottie_element_14" spreadMethod="pad" gradientUnits="userSpaceOnUse" cx="-27.128999710083008" cy="-216.45899963378906" r="582.0807946120542" fx="-27.128999710083008" fy="-216.45899963378906"><stop offset="0%" stop-color="rgb(252,126,126)"></stop><stop offset="50%" stop-color="rgb(232,92,86)"></stop><stop offset="99%" stop-color="rgb(211,59,46)"></stop></radialGradient><radialGradient id="__lottie_element_15" spreadMethod="pad" gradientUnits="userSpaceOnUse" cx="-36.80400085449219" cy="-182.36900329589844" r="394.9987625175721" fx="-36.80400085449219" fy="-182.36900329589844"><stop offset="0%" stop-color="rgb(254,198,184)"></stop><stop offset="50%" stop-color="rgb(245,150,142)"></stop><stop offset="99%" stop-color="rgb(237,101,99)"></stop></radialGradient></defs><g clip-path="url(#__lottie_element_2)"><g clip-path="url(#__lottie_element_4)" style="display: block;" transform="matrix(1,0,0,1,0,0)" opacity="1"><g style="display: block;" transform="matrix(0.8199999928474426,0,0,0.8100000023841858,37.36000061035156,39.63999938964844)" opacity="1"><g opacity="1" transform="matrix(1,0,0,1,257.1579895019531,260.8110046386719)"><path fill="url(#__lottie_element_14)" fill-opacity="1" d=" M-125.77100372314453,209.96600341796875 C-65.76699829101562,250.7830047607422 82.06900024414062,271.5889892578125 168.04200744628906,205.10800170898438 C234.91700744628906,153.3939971923828 247.3249969482422,97.23300170898438 245.32699584960938,41.513999938964844 C244.86500549316406,28.645000457763672 241.593994140625,13.531000137329102 237.99899291992188,1.9919999837875366 C235.50100708007812,-6.026000022888184 231.0019989013672,-15.744000434875488 227.16400146484375,-24.48699951171875 C217.9810028076172,-45.40599822998047 202.28399658203125,-65.81099700927734 194.0260009765625,-79.64299774169922 C182.9739990234375,-98.1520004272461 168.69000244140625,-130.406005859375 150.05299377441406,-157.38999938964844 C105.08300018310547,-222.50399780273438 30.832000732421875,-239.60800170898438 -61.7140007019043,-224.96800231933594 C-181.73500061035156,-205.98199462890625 -241.3260040283203,-89.71399688720703 -231.968994140625,22.354000091552734 C-222.9459991455078,130.41600036621094 -177.3040008544922,174.91099548339844 -125.77100372314453,209.96600341796875z"></path><path stroke-linecap="butt" stroke-linejoin="miter" fill-opacity="0" stroke-miterlimit="10" stroke="rgb(175,43,32)" stroke-opacity="1" stroke-width="13" d=" M-125.77100372314453,209.96600341796875 C-65.76699829101562,250.7830047607422 82.06900024414062,271.5889892578125 168.04200744628906,205.10800170898438 C234.91700744628906,153.3939971923828 247.3249969482422,97.23300170898438 245.32699584960938,41.513999938964844 C244.86500549316406,28.645000457763672 241.593994140625,13.531000137329102 237.99899291992188,1.9919999837875366 C235.50100708007812,-6.026000022888184 231.0019989013672,-15.744000434875488 227.16400146484375,-24.48699951171875 C217.9810028076172,-45.40599822998047 202.28399658203125,-65.81099700927734 194.0260009765625,-79.64299774169922 C182.9739990234375,-98.1520004272461 168.69000244140625,-130.406005859375 150.05299377441406,-157.38999938964844 C105.08300018310547,-222.50399780273438 30.832000732421875,-239.60800170898438 -61.7140007019043,-224.96800231933594 C-181.73500061035156,-205.98199462890625 -241.3260040283203,-89.71399688720703 -231.968994140625,22.354000091552734 C-222.9459991455078,130.41600036621094 -177.3040008544922,174.91099548339844 -125.77100372314453,209.96600341796875z"></path></g><g opacity="1" transform="matrix(1,0,0,1,260.9729919433594,253.531005859375)"><path fill="url(#__lottie_element_15)" fill-opacity="1" d=" M-97.83100128173828,197.79400634765625 C-48.38600158691406,222.718994140625 68.072998046875,244.49099731445312 148.0229949951172,182.65899658203125 C224.49200439453125,123.51899719238281 222.31300354003906,38.95800018310547 205.51400756835938,-3.1470000743865967 C195.47799682617188,-28.29800033569336 182.5780029296875,-44.154998779296875 171.4199981689453,-66.4800033569336 C160.26300048828125,-88.80500030517578 146.1300048828125,-113.37100219726562 131.59800720214844,-140.1179962158203 C98.60600280761719,-200.83599853515625 21.67300033569336,-215.97300720214844 -64.00499725341797,-200.4929962158203 C-161.3769989013672,-182.8990020751953 -224.49200439453125,-84.5739974975586 -215.7949981689453,19.757999420166016 C-207.41000366210938,120.36100006103516 -149.6699981689453,171.66299438476562 -97.83100128173828,197.79400634765625z"></path></g></g><g style="display: block;" transform="matrix(0.820001482963562,0,0,0.8100014328956604,37.35962677001953,39.63962936401367)" opacity="1"><g opacity="1" transform="matrix(1,0,0,1,166.4040069580078,254.82200622558594)"><path stroke-linecap="round" stroke-linejoin="round" fill-opacity="0" stroke="rgb(216,64,55)" stroke-opacity="1" stroke-width="12" d=" M31.361000061035156,-43.04800033569336 C31.361000061035156,-43.04800033569336 34.819000244140625,-14.505999565124512 20.37299919128418,11.20199966430664 C3.634999990463257,40.98699951171875 -34.81999969482422,43.04800033569336 -34.81999969482422,43.04800033569336"></path></g><g opacity="1" transform="matrix(1,0,0,1,369.56201171875,208.3990020751953)"><path stroke-linecap="round" stroke-linejoin="round" fill-opacity="0" stroke="rgb(216,64,55)" stroke-opacity="1" stroke-width="12" d=" M-42.053001403808594,-17.69700050354004 C-42.053001403808594,-17.69700050354004 -21.920000076293945,5.949999809265137 9.326000213623047,14.28499984741211 C22.114999771118164,17.69700050354004 42.053001403808594,17.201000213623047 42.053001403808594,17.201000213623047"></path></g><g opacity="0.6900000000000001" transform="matrix(1,0,0,1,0,0)"><g opacity="1" transform="matrix(1,0,0,1,237.63400268554688,154.3730010986328)"><path stroke-linecap="round" stroke-linejoin="round" fill-opacity="0" stroke="rgb(216,64,55)" stroke-opacity="1" stroke-width="12" d=" M-7.8480000495910645,-16.159000396728516 C-7.8480000495910645,-16.159000396728516 0.9700000286102295,-10.109999656677246 4.585000038146973,0.6600000262260437 C7.848999977111816,10.383999824523926 5.823999881744385,16.159000396728516 5.823999881744385,16.159000396728516"></path></g><g opacity="1" transform="matrix(1,0,0,1,263.21099853515625,148.37899780273438)"><path stroke-linecap="round" stroke-linejoin="round" fill-opacity="0" stroke="rgb(216,64,55)" stroke-opacity="1" stroke-width="12" d=" M-6.703000068664551,-19.631999969482422 C-6.703000068664551,-19.631999969482422 -7.006999969482422,-8.829000473022461 -2.628999948501587,3.1489999294281006 C1.3799999952316284,14.118000030517578 7.006999969482422,19.631999969482422 7.006999969482422,19.631999969482422"></path></g></g><g opacity="0.9500000000000001" transform="matrix(1,0,0,1,435.114990234375,277.8370056152344)"><path stroke-linecap="round" stroke-linejoin="round" fill-opacity="0" stroke="rgb(216,64,55)" stroke-opacity="1" stroke-width="12" d=" M-14.092000007629395,-25.024999618530273 C-14.092000007629395,-25.024999618530273 -0.06400000303983688,-21.499000549316406 7.288000106811523,-3.6449999809265137 C14.092000007629395,12.876999855041504 12.633999824523926,25.024999618530273 12.633999824523926,25.024999618530273"></path></g><g opacity="1" transform="matrix(1,0,0,1,141.93600463867188,406.20098876953125)"><path stroke-linecap="round" stroke-linejoin="round" fill-opacity="0" stroke="rgb(216,64,55)" stroke-opacity="1" stroke-width="12" d=" M-6.633999824523926,-28.02199935913086 C-6.633999824523926,-28.02199935913086 -17.01300048828125,-13.972999572753906 -9.225000381469727,4.374000072479248 C-0.8029999732971191,24.21500015258789 17.013999938964844,28.02199935913086 17.013999938964844,28.02199935913086"></path></g><g opacity="1" transform="matrix(1,0,0,1,357.125,408.0050048828125)"><path stroke-linecap="round" stroke-linejoin="round" fill-opacity="0" stroke="rgb(216,64,55)" stroke-opacity="1" stroke-width="12.5" d=" M-55.91400146484375,29.982999801635742 C-55.91400146484375,29.982999801635742 -32.35200119018555,-1.0369999408721924 -6.11299991607666,-6.868000030517578 C20.128000259399414,-12.699000358581543 46.15800094604492,-4.8460001945495605 46.15800094604492,-4.8460001945495605"></path></g></g><g style="display: block;" transform="matrix(0.8356702327728271,0,0,0.8254791498184204,36.628414154052734,42.15733337402344)" opacity="1"><g opacity="1" transform="matrix(1,0,0,1,311.5690002441406,386.8450012207031)"><path fill="rgb(221,74,64)" fill-opacity="1" d=" M-111.65399932861328,35.854000091552734 C-111.65399932861328,35.854000091552734 -83.96099853515625,45.11000061035156 -34.72100067138672,24.37700080871582 C9.1899995803833,5.888000011444092 38.707000732421875,-7.360000133514404 78.87699890136719,-15.782999992370605 C119.0459976196289,-24.20599937438965 110.18199920654297,-45.11000061035156 110.18199920654297,-45.11000061035156 C110.18199920654297,-45.11000061035156 102.40799713134766,-32.96200180053711 41.9109992980957,-18.8700008392334 C17.54400062561035,-13.194000244140625 -28.586000442504883,10.899999618530273 -40.895999908447266,15.435999870300293 C-53.20600128173828,19.972000122070312 -76.35399627685547,31.634000778198242 -88.33999633789062,33.9010009765625 C-99.81700134277344,36.071998596191406 -111.65399932861328,35.854000091552734 -111.65399932861328,35.854000091552734z"></path></g><g opacity="1" transform="matrix(1,0,0,1,295.7040100097656,311.3890075683594)"><path fill="rgb(142,13,6)" fill-opacity="1" d=" M-121.94100189208984,58.78200149536133 C-126.37200164794922,70.44499969482422 -129.3679962158203,91.28700256347656 -120.5999984741211,99.61599731445312 C-109.35900115966797,110.29399871826172 -98.36799621582031,110.98300170898438 -86.96499633789062,110.84700012207031 C-71.41400146484375,110.66200256347656 -70.18399810791016,111.84600067138672 -40.055999755859375,98.69999694824219 C-9.928999900817871,85.5530014038086 27.586000442504883,63.99300003051758 58.262001037597656,55.777000427246094 C88.93699645996094,47.560001373291016 106.85299682617188,44.1150016784668 106.85299682617188,44.1150016784668 C106.85299682617188,44.1150016784668 138.55499267578125,36.24700164794922 139.64999389648438,7.763000011444092 C140.74600219726562,-20.722000122070312 128.1320037841797,-29.277000427246094 114.43800354003906,-41.45000076293945 C98.70999908447266,-55.43199920654297 79.88899993896484,-58.558998107910156 57.470001220703125,-74.86399841308594 C33.367000579833984,-92.39299774169922 -0.7009999752044678,-111.84600067138672 -37.95000076293945,-101.98600006103516 C-75.19999694824219,-92.1259994506836 -90.64399719238281,-63.691001892089844 -97.76499938964844,-16.582000732421875 C-102.75,16.389999389648438 -111.86799621582031,32.266998291015625 -121.94100189208984,58.78200149536133z"></path></g><g opacity="1" transform="matrix(1,0,0,1,288.5610046386719,319.7539978027344)"><path fill="rgb(21,4,7)" fill-opacity="1" d=" M-0.25999999046325684,68.46900177001953 C-0.25999999046325684,68.46900177001953 -37.1609992980957,60.58000183105469 -50.4109992980957,19.159000396728516 C-63.6619987487793,-22.26099967956543 -47.47100067138672,-43.5260009765625 -35.678001403808594,-47.96500015258789 C-27.665000915527344,-50.97999954223633 -12.50100040435791,-47.53499984741211 -6.409999847412109,-53.79999923706055 C-0.3499999940395355,-60.03300094604492 4.406000137329102,-68.46900177001953 21.367000579833984,-65.77999877929688 C38.32699966430664,-63.09000015258789 49.3650016784668,-47.43000030517578 56.7859992980957,-21.878999710083008 C63.6609992980957,1.7949999570846558 53.96500015258789,39.83700180053711 53.96500015258789,39.83700180053711 C53.96500015258789,39.83700180053711 25.402999877929688,54.46200180053711 25.402999877929688,54.46200180053711 C25.402999877929688,54.46200180053711 -0.25999999046325684,68.46900177001953 -0.25999999046325684,68.46900177001953z"></path></g><g opacity="1" transform="matrix(1.3700000047683716,0,0,1.3700000047683716,275.5199890136719,280.85400390625)"><path fill="rgb(134,19,9)" fill-opacity="1" d=" M-16,-6.960000038146973 C-16,-6.960000038146973 -6.339000225067139,-8.840999603271484 -0.7739999890327454,-1.9819999933242798 C2.625999927520752,2.2079999446868896 -0.057999998331069946,14.312000274658203 6.302000045776367,15.321000099182129 C12.661999702453613,16.329999923706055 13.135000228881836,13.277999877929688 12.73799991607666,8.234999656677246 C12.34000015258789,3.191999912261963 7.763000011444092,2.625999927520752 6.10099983215332,-1.784999966621399 C3.5169999599456787,-8.642999649047852 11.626999855041504,-17.04599952697754 11.626999855041504,-17.04599952697754 C11.626999855041504,-17.04599952697754 -6.460000038146973,-16.440000534057617 -6.460000038146973,-16.440000534057617 C-6.460000038146973,-16.440000534057617 -16,-6.960000038146973 -16,-6.960000038146973z"></path></g><g opacity="1" transform="matrix(0.9700000286102295,0,0,0.9700000286102295,295.7040100097656,311.3890075683594)"><path stroke-linecap="butt" stroke-linejoin="miter" fill-opacity="0" stroke-miterlimit="10" stroke="rgb(91,6,6)" stroke-opacity="1" stroke-width="14" d=" M-121.94100189208984,58.78200149536133 C-126.37200164794922,70.44499969482422 -129.3679962158203,91.28700256347656 -120.5999984741211,99.61599731445312 C-109.35900115966797,110.29399871826172 -98.36799621582031,110.98300170898438 -86.96499633789062,110.84700012207031 C-71.41400146484375,110.66200256347656 -70.18399810791016,111.84600067138672 -40.055999755859375,98.69999694824219 C-9.928999900817871,85.5530014038086 27.586000442504883,63.99300003051758 58.262001037597656,55.777000427246094 C88.93699645996094,47.560001373291016 106.85299682617188,44.1150016784668 106.85299682617188,44.1150016784668 C106.85299682617188,44.1150016784668 138.55499267578125,36.24700164794922 139.64999389648438,7.763000011444092 C140.74600219726562,-20.722000122070312 128.1320037841797,-29.277000427246094 114.43800354003906,-41.45000076293945 C98.70999908447266,-55.43199920654297 79.88899993896484,-58.558998107910156 57.470001220703125,-74.86399841308594 C33.367000579833984,-92.39299774169922 -0.7009999752044678,-111.84600067138672 -37.95000076293945,-101.98600006103516 C-75.19999694824219,-92.1259994506836 -90.64399719238281,-63.691001892089844 -97.76499938964844,-16.582000732421875 C-102.75,16.389999389648438 -111.86799621582031,32.266998291015625 -121.94100189208984,58.78200149536133z"></path></g></g><g style="display: block;" transform="matrix(0.8321176767349243,-0.07603480666875839,0.07697350531816483,0.8219699263572693,3.016946792602539,59.10670852661133)" opacity="1"><g opacity="1" transform="matrix(1,0,0,1,316.6440124511719,328.3160095214844)"><path fill="rgb(232,34,19)" fill-opacity="1" d=" M-54.71099853515625,67.01000213623047 C-54.71099853515625,67.01000213623047 -27.55299949645996,33.8650016784668 -19.378999710083008,15.204000473022461 C-11.204999923706055,-3.4579999446868896 -5.933000087738037,-31.59000015258789 -4.877999782562256,-40.78099822998047 C-3.822999954223633,-49.97200012207031 2.502000093460083,-75.6449966430664 31.198999404907227,-69.10700225830078 C47.10900115966797,-65.48200225830078 54.71099853515625,-36.32400131225586 45.74599838256836,-8.470999717712402 C36.78099822998047,19.381999969482422 25.97100067138672,32.19499969482422 25.97100067138672,32.19499969482422 C25.97100067138672,32.19499969482422 -8.305999755859375,55.86800003051758 -8.305999755859375,55.86800003051758 C-8.305999755859375,55.86800003051758 -35.19900131225586,70.35299682617188 -35.19900131225586,70.35299682617188 C-35.19900131225586,70.35299682617188 -53.393001556396484,75.6449966430664 -53.393001556396484,75.6449966430664 C-53.393001556396484,75.6449966430664 -54.71099853515625,67.01000213623047 -54.71099853515625,67.01000213623047z"></path><path stroke-linecap="butt" stroke-linejoin="miter" fill-opacity="0" stroke-miterlimit="10" stroke="rgb(85,8,31)" stroke-opacity="1" stroke-width="10" d=" M-54.71099853515625,67.01000213623047 C-54.71099853515625,67.01000213623047 -27.55299949645996,33.8650016784668 -19.378999710083008,15.204000473022461 C-11.204999923706055,-3.4579999446868896 -5.933000087738037,-31.59000015258789 -4.877999782562256,-40.78099822998047 C-3.822999954223633,-49.97200012207031 2.502000093460083,-75.6449966430664 31.198999404907227,-69.10700225830078 C47.10900115966797,-65.48200225830078 54.71099853515625,-36.32400131225586 45.74599838256836,-8.470999717712402 C36.78099822998047,19.381999969482422 25.97100067138672,32.19499969482422 25.97100067138672,32.19499969482422 C25.97100067138672,32.19499969482422 -8.305999755859375,55.86800003051758 -8.305999755859375,55.86800003051758 C-8.305999755859375,55.86800003051758 -35.19900131225586,70.35299682617188 -35.19900131225586,70.35299682617188 C-35.19900131225586,70.35299682617188 -53.393001556396484,75.6449966430664 -53.393001556396484,75.6449966430664 C-53.393001556396484,75.6449966430664 -54.71099853515625,67.01000213623047 -54.71099853515625,67.01000213623047z"></path></g><g opacity="1" transform="matrix(1,0,0,1,324.7569885253906,332.47900390625)"><path fill="rgb(232,34,19)" fill-opacity="1" d=" M15.819999694824219,-42.39400100708008 C15.819999694824219,-42.39400100708008 12.36400032043457,-4.755000114440918 -0.7559999823570251,18.569000244140625 C-14.157999992370605,42.393001556396484 -15.819999694824219,40.19300079345703 -15.819999694824219,40.19300079345703"></path><path stroke-linecap="round" stroke-linejoin="round" fill-opacity="0" stroke="rgb(175,15,15)" stroke-opacity="1" stroke-width="10" d=" M15.819999694824219,-42.39400100708008 C15.819999694824219,-42.39400100708008 12.36400032043457,-4.755000114440918 -0.7559999823570251,18.569000244140625 C-14.157999992370605,42.393001556396484 -15.819999694824219,40.19300079345703 -15.819999694824219,40.19300079345703"></path></g><g opacity="1" transform="matrix(1,0,0,1,317.84100341796875,304.7950134277344)"><path stroke-linecap="round" stroke-linejoin="round" fill-opacity="0" stroke="rgb(251,107,159)" stroke-opacity="1" stroke-width="10.702" d=" M3.994999885559082,-20.19499969482422 C3.994999885559082,-20.19499969482422 2.5369999408721924,-6.479000091552734 0.4860000014305115,2.7290000915527344 C-1.5640000104904175,11.937000274658203 -3.994999885559082,20.19499969482422 -3.994999885559082,20.19499969482422"></path></g></g><g style="display: block;" transform="matrix(0.8356702327728271,0,0,0.8254791498184204,36.628414154052734,42.15733337402344)" opacity="1"><g opacity="1" transform="matrix(1,0,0,1,398.25201416015625,330.0350036621094)"><path fill="rgb(255,255,255)" fill-opacity="1" d=" M20.19099998474121,5.676000118255615 C20.19099998474121,5.676000118255615 -3.5940001010894775,-14.656999588012695 -3.5940001010894775,-14.656999588012695 C-3.5940001010894775,-14.656999588012695 -10.800999641418457,-18.496000289916992 -12.963000297546387,-6.619999885559082 C-15.319999694824219,6.322000026702881 -19.195999145507812,26.47100067138672 -19.195999145507812,26.47100067138672 C-19.195999145507812,26.47100067138672 -5.382999897003174,25.45599937438965 3.9609999656677246,20.58799934387207 C13.303999900817871,15.720000267028809 20.19099998474121,5.676000118255615 20.19099998474121,5.676000118255615z"></path><path stroke-linecap="butt" stroke-linejoin="miter" fill-opacity="0" stroke-miterlimit="10" stroke="rgb(107,124,181)" stroke-opacity="1" stroke-width="7" d=" M20.19099998474121,5.676000118255615 C20.19099998474121,5.676000118255615 -3.5940001010894775,-14.656999588012695 -3.5940001010894775,-14.656999588012695 C-3.5940001010894775,-14.656999588012695 -10.800999641418457,-18.496000289916992 -12.963000297546387,-6.619999885559082 C-15.319999694824219,6.322000026702881 -19.195999145507812,26.47100067138672 -19.195999145507812,26.47100067138672 C-19.195999145507812,26.47100067138672 -5.382999897003174,25.45599937438965 3.9609999656677246,20.58799934387207 C13.303999900817871,15.720000267028809 20.19099998474121,5.676000118255615 20.19099998474121,5.676000118255615z"></path></g><g opacity="1" transform="matrix(1,0,0,1,229.13099670410156,400.0260009765625)"><path fill="rgb(255,255,255)" fill-opacity="1" d=" M-26.773000717163086,13.491000175476074 C-26.773000717163086,13.491000175476074 -14.680000305175781,-2.1449999809265137 -7.7129998207092285,-8.741999626159668 C-0.5770000219345093,-15.5 2.3529999256134033,-16.55500030517578 6.822999954223633,-12.699999809265137 C11.291000366210938,-8.847000122070312 26.773000717163086,6.4120001792907715 26.773000717163086,6.4120001792907715 C26.773000717163086,6.4120001792907715 11.131999969482422,14.121000289916992 -2.884000062942505,15.338000297546387 C-16.899999618530273,16.554000854492188 -26.773000717163086,13.491000175476074 -26.773000717163086,13.491000175476074z"></path><path stroke-linecap="butt" stroke-linejoin="miter" fill-opacity="0" stroke-miterlimit="10" stroke="rgb(107,124,181)" stroke-opacity="1" stroke-width="7" d=" M-26.773000717163086,13.491000175476074 C-26.773000717163086,13.491000175476074 -14.680000305175781,-2.1449999809265137 -7.7129998207092285,-8.741999626159668 C-0.5770000219345093,-15.5 2.3529999256134033,-16.55500030517578 6.822999954223633,-12.699999809265137 C11.291000366210938,-8.847000122070312 26.773000717163086,6.4120001792907715 26.773000717163086,6.4120001792907715 C26.773000717163086,6.4120001792907715 11.131999969482422,14.121000289916992 -2.884000062942505,15.338000297546387 C-16.899999618530273,16.554000854492188 -26.773000717163086,13.491000175476074 -26.773000717163086,13.491000175476074z"></path></g><g opacity="1" transform="matrix(1,0,0,1,273.7489929199219,386.07000732421875)"><path fill="rgb(255,255,255)" fill-opacity="1" d=" M19.7450008392334,-0.06400000303983688 C19.7450008392334,-0.06400000303983688 11.097000122070312,-14.218999862670898 11.097000122070312,-14.218999862670898 C11.097000122070312,-14.218999862670898 8.48900032043457,-16.735000610351562 -0.041999999433755875,-14.706999778747559 C-8.572999954223633,-12.677000045776367 -13.651000022888184,-9.635000228881836 -13.651000022888184,-9.635000228881836 C-13.651000022888184,-9.635000228881836 -19.7450008392334,-6.185999870300293 -17.91699981689453,0.5070000290870667 C-16.089000701904297,7.202000141143799 -10.807999610900879,16.735000610351562 -10.807999610900879,16.735000610351562 C-10.807999610900879,16.735000610351562 2.802000045776367,8.012999534606934 8.28600025177002,5.375 C13.770000457763672,2.739000082015991 19.7450008392334,-0.06400000303983688 19.7450008392334,-0.06400000303983688z"></path><path stroke-linecap="butt" stroke-linejoin="miter" fill-opacity="0" stroke-miterlimit="10" stroke="rgb(107,124,181)" stroke-opacity="1" stroke-width="7" d=" M19.7450008392334,-0.06400000303983688 C19.7450008392334,-0.06400000303983688 11.097000122070312,-14.218999862670898 11.097000122070312,-14.218999862670898 C11.097000122070312,-14.218999862670898 8.48900032043457,-16.735000610351562 -0.041999999433755875,-14.706999778747559 C-8.572999954223633,-12.677000045776367 -13.651000022888184,-9.635000228881836 -13.651000022888184,-9.635000228881836 C-13.651000022888184,-9.635000228881836 -19.7450008392334,-6.185999870300293 -17.91699981689453,0.5070000290870667 C-16.089000701904297,7.202000141143799 -10.807999610900879,16.735000610351562 -10.807999610900879,16.735000610351562 C-10.807999610900879,16.735000610351562 2.802000045776367,8.012999534606934 8.28600025177002,5.375 C13.770000457763672,2.739000082015991 19.7450008392334,-0.06400000303983688 19.7450008392334,-0.06400000303983688z"></path></g><g opacity="1" transform="matrix(1,0,0,1,314.06500244140625,363.9800109863281)"><path fill="rgb(255,255,255)" fill-opacity="1" d=" M-8.190999984741211,20.476999282836914 C-8.190999984741211,20.476999282836914 6.230999946594238,12.36299991607666 11.918000221252441,9.52299976348877 C17.606000900268555,6.683000087738037 23.09000015258789,5.059999942779541 23.09000015258789,5.059999942779541 C23.09000015258789,5.059999942779541 20.246000289916992,-3.865000009536743 17.80900001525879,-8.529999732971191 C15.371000289916992,-13.196000099182129 13.13700008392334,-13.803999900817871 4.199999809265137,-11.369999885559082 C-4.73799991607666,-8.935999870300293 -9.815999984741211,-6.9079999923706055 -9.815999984741211,-6.9079999923706055 C-9.815999984741211,-6.9079999923706055 -18.145000457763672,-3.4600000381469727 -14.894000053405762,6.074999809265137 C-11.644000053405762,15.609000205993652 -8.190999984741211,20.476999282836914 -8.190999984741211,20.476999282836914z"></path><path stroke-linecap="butt" stroke-linejoin="miter" fill-opacity="0" stroke-miterlimit="10" stroke="rgb(107,124,181)" stroke-opacity="1" stroke-width="7" d=" M-8.190999984741211,20.476999282836914 C-8.190999984741211,20.476999282836914 6.230999946594238,12.36299991607666 11.918000221252441,9.52299976348877 C17.606000900268555,6.683000087738037 23.09000015258789,5.059999942779541 23.09000015258789,5.059999942779541 C23.09000015258789,5.059999942779541 20.246000289916992,-3.865000009536743 17.80900001525879,-8.529999732971191 C15.371000289916992,-13.196000099182129 13.13700008392334,-13.803999900817871 4.199999809265137,-11.369999885559082 C-4.73799991607666,-8.935999870300293 -9.815999984741211,-6.9079999923706055 -9.815999984741211,-6.9079999923706055 C-9.815999984741211,-6.9079999923706055 -18.145000457763672,-3.4600000381469727 -14.894000053405762,6.074999809265137 C-11.644000053405762,15.609000205993652 -8.190999984741211,20.476999282836914 -8.190999984741211,20.476999282836914z"></path></g><g opacity="1" transform="matrix(1,0,0,1,358.75299072265625,348.0559997558594)"><path fill="rgb(255,255,255)" fill-opacity="1" d=" M17.628000259399414,6.84499979019165 C17.628000259399414,6.84499979019165 15.800000190734863,-1.472000002861023 13.159000396728516,-5.124000072479248 C10.519000053405762,-8.77400016784668 9.097000122070312,-10.803000450134277 1.3769999742507935,-8.166000366210938 C-6.3420000076293945,-5.5289998054504395 -12.232000350952148,-2.688999891281128 -12.232000350952148,-2.688999891281128 C-12.232000350952148,-2.688999891281128 -17.920000076293945,-1.6749999523162842 -17.513999938964844,4.816999912261963 C-17.10700035095215,11.307000160217285 -17.513999938964844,18.000999450683594 -17.513999938964844,18.000999450683594 C-17.513999938964844,18.000999450683594 -3.2950000762939453,13.133000373840332 4.423999786376953,10.902000427246094 C12.144000053405762,8.670000076293945 17.628000259399414,6.84499979019165 17.628000259399414,6.84499979019165z"></path><path stroke-linecap="butt" stroke-linejoin="miter" fill-opacity="0" stroke-miterlimit="10" stroke="rgb(107,124,181)" stroke-opacity="1" stroke-width="7" d=" M17.628000259399414,6.84499979019165 C17.628000259399414,6.84499979019165 15.800000190734863,-1.472000002861023 13.159000396728516,-5.124000072479248 C10.519000053405762,-8.77400016784668 9.097000122070312,-10.803000450134277 1.3769999742507935,-8.166000366210938 C-6.3420000076293945,-5.5289998054504395 -12.232000350952148,-2.688999891281128 -12.232000350952148,-2.688999891281128 C-12.232000350952148,-2.688999891281128 -17.920000076293945,-1.6749999523162842 -17.513999938964844,4.816999912261963 C-17.10700035095215,11.307000160217285 -17.513999938964844,18.000999450683594 -17.513999938964844,18.000999450683594 C-17.513999938964844,18.000999450683594 -3.2950000762939453,13.133000373840332 4.423999786376953,10.902000427246094 C12.144000053405762,8.670000076293945 17.628000259399414,6.84499979019165 17.628000259399414,6.84499979019165z"></path></g></g><g style="display: block;" transform="matrix(0.902523934841156,0,0,0.8915175795555115,21.352359771728516,31.688587188720703)" opacity="1"><g opacity="1" transform="matrix(1,0,0,1,304.4410095214844,225.9219970703125)"><path fill="rgb(255,255,255)" fill-opacity="1" d=" M-17.871000289916992,-10.88700008392334 C-17.871000289916992,-10.88700008392334 -5.955999851226807,9.038000106811523 0.20600000023841858,11.913999557495117 C6.368000030517578,14.789999961853027 12.9399995803833,14.585000038146973 15.406000137329102,9.449000358581543 C17.871000289916992,4.314000129699707 17.461000442504883,-5.546000003814697 17.461000442504883,-5.546000003814697 C17.461000442504883,-5.546000003814697 -2.055000066757202,-13.968999862670898 -8.42300033569336,-14.378999710083008 C-14.789999961853027,-14.789999961853027 -17.871000289916992,-10.88700008392334 -17.871000289916992,-10.88700008392334z"></path><path stroke-linecap="butt" stroke-linejoin="miter" fill-opacity="0" stroke-miterlimit="10" stroke="rgb(99,123,184)" stroke-opacity="1" stroke-width="7" d=" M-17.871000289916992,-10.88700008392334 C-17.871000289916992,-10.88700008392334 -5.955999851226807,9.038000106811523 0.20600000023841858,11.913999557495117 C6.368000030517578,14.789999961853027 12.9399995803833,14.585000038146973 15.406000137329102,9.449000358581543 C17.871000289916992,4.314000129699707 17.461000442504883,-5.546000003814697 17.461000442504883,-5.546000003814697 C17.461000442504883,-5.546000003814697 -2.055000066757202,-13.968999862670898 -8.42300033569336,-14.378999710083008 C-14.789999961853027,-14.789999961853027 -17.871000289916992,-10.88700008392334 -17.871000289916992,-10.88700008392334z"></path></g><g opacity="1" transform="matrix(1,0,0,1,269.72601318359375,230.8509979248047)"><path fill="rgb(255,255,255)" fill-opacity="1" d=" M-22.375999450683594,-15.85099983215332 C-22.375999450683594,-15.85099983215332 -0.41100001335144043,15.406999588012695 -0.41100001335144043,15.406999588012695 C-0.41100001335144043,15.406999588012695 2.052999973297119,20.1299991607666 8.215999603271484,19.30900001525879 C14.378000259399414,18.48699951171875 16.8439998626709,18.076000213623047 16.8439998626709,18.076000213623047 C16.8439998626709,18.076000213623047 20.54199981689453,17.666000366210938 19.719999313354492,10.270999908447266 C18.89900016784668,2.875999927520752 17.302000045776367,-21.55500030517578 17.302000045776367,-21.55500030517578 C17.302000045776367,-21.55500030517578 5.798999786376953,-22.882999420166016 -3.8550000190734863,-21.239999771118164 C-13.510000228881836,-19.597000122070312 -22.375999450683594,-15.85099983215332 -22.375999450683594,-15.85099983215332z"></path><path stroke-linecap="butt" stroke-linejoin="miter" fill-opacity="0" stroke-miterlimit="10" stroke="rgb(99,123,184)" stroke-opacity="1" stroke-width="7" d=" M-22.375999450683594,-15.85099983215332 C-22.375999450683594,-15.85099983215332 -0.41100001335144043,15.406999588012695 -0.41100001335144043,15.406999588012695 C-0.41100001335144043,15.406999588012695 2.052999973297119,20.1299991607666 8.215999603271484,19.30900001525879 C14.378000259399414,18.48699951171875 16.8439998626709,18.076000213623047 16.8439998626709,18.076000213623047 C16.8439998626709,18.076000213623047 20.54199981689453,17.666000366210938 19.719999313354492,10.270999908447266 C18.89900016784668,2.875999927520752 17.302000045776367,-21.55500030517578 17.302000045776367,-21.55500030517578 C17.302000045776367,-21.55500030517578 5.798999786376953,-22.882999420166016 -3.8550000190734863,-21.239999771118164 C-13.510000228881836,-19.597000122070312 -22.375999450683594,-15.85099983215332 -22.375999450683594,-15.85099983215332z"></path></g><g opacity="1" transform="matrix(1,0,0,1,246,241.94400024414062)"><path fill="rgb(255,255,255)" fill-opacity="1" d=" M-20.739999771118164,-8.25100040435791 C-20.739999771118164,-8.25100040435791 -7.388000011444092,15.782999992370605 -7.388000011444092,15.782999992370605 C-7.388000011444092,15.782999992370605 -3.0739998817443848,22.356000900268555 1.8559999465942383,21.739999771118164 C6.785999774932861,21.124000549316406 13.359000205993652,17.426000595092773 13.359000205993652,17.426000595092773 C13.359000205993652,17.426000595092773 18.905000686645508,14.961000442504883 16.030000686645508,7.15500020980835 C13.154000282287598,-0.6499999761581421 2.2669999599456787,-26.944000244140625 2.2669999599456787,-26.944000244140625 C2.2669999599456787,-26.944000244140625 -10.263999938964844,-20.165000915527344 -14.166999816894531,-16.261999130249023 C-18.06999969482422,-12.359000205993652 -20.739999771118164,-8.25100040435791 -20.739999771118164,-8.25100040435791z"></path><path stroke-linecap="butt" stroke-linejoin="miter" fill-opacity="0" stroke-miterlimit="10" stroke="rgb(99,123,184)" stroke-opacity="1" stroke-width="7" d=" M-20.739999771118164,-8.25100040435791 C-20.739999771118164,-8.25100040435791 -7.388000011444092,15.782999992370605 -7.388000011444092,15.782999992370605 C-7.388000011444092,15.782999992370605 -3.0739998817443848,22.356000900268555 1.8559999465942383,21.739999771118164 C6.785999774932861,21.124000549316406 13.359000205993652,17.426000595092773 13.359000205993652,17.426000595092773 C13.359000205993652,17.426000595092773 18.905000686645508,14.961000442504883 16.030000686645508,7.15500020980835 C13.154000282287598,-0.6499999761581421 2.2669999599456787,-26.944000244140625 2.2669999599456787,-26.944000244140625 C2.2669999599456787,-26.944000244140625 -10.263999938964844,-20.165000915527344 -14.166999816894531,-16.261999130249023 C-18.06999969482422,-12.359000205993652 -20.739999771118164,-8.25100040435791 -20.739999771118164,-8.25100040435791z"></path></g><g opacity="1" transform="matrix(1,0,0,1,224.49099731445312,258.6199951171875)"><path fill="rgb(255,255,255)" fill-opacity="1" d=" M-14.116999626159668,9.630999565124512 C-14.116999626159668,9.630999565124512 -2.4089999198913574,18.875 -2.4089999198913574,18.875 C-2.4089999198913574,18.875 0.17100000381469727,20.79800033569336 3.9600000381469727,19.079999923706055 C10.654000282287598,16.04599952697754 8.468000411987305,12.402000427246094 8.468000411987305,12.402000427246094 C8.468000411987305,12.402000427246094 -0.14900000393390656,-24.468000411987305 -0.14900000393390656,-24.468000411987305 C-0.14900000393390656,-24.468000411987305 -6.105999946594238,-14.607999801635742 -10.21399974822998,-5.363999843597412 C-14.322999954223633,3.880000114440918 -14.116999626159668,9.630999565124512 -14.116999626159668,9.630999565124512z"></path><path stroke-linecap="butt" stroke-linejoin="miter" fill-opacity="0" stroke-miterlimit="10" stroke="rgb(99,123,184)" stroke-opacity="1" stroke-width="7" d=" M-14.116999626159668,9.630999565124512 C-14.116999626159668,9.630999565124512 -2.4089999198913574,18.875 -2.4089999198913574,18.875 C-2.4089999198913574,18.875 0.17100000381469727,20.79800033569336 3.9600000381469727,19.079999923706055 C10.654000282287598,16.04599952697754 8.468000411987305,12.402000427246094 8.468000411987305,12.402000427246094 C8.468000411987305,12.402000427246094 -0.14900000393390656,-24.468000411987305 -0.14900000393390656,-24.468000411987305 C-0.14900000393390656,-24.468000411987305 -6.105999946594238,-14.607999801635742 -10.21399974822998,-5.363999843597412 C-14.322999954223633,3.880000114440918 -14.116999626159668,9.630999565124512 -14.116999626159668,9.630999565124512z"></path></g></g><g style="display: block;" transform="matrix(0.8340099453926086,0.03144711256027222,-0.03215920180082321,0.8322198987007141,47.46230697631836,31.423694610595703)" opacity="1"><g opacity="1" transform="matrix(0.9700000286102295,0,0,0.9700000286102295,295.7040100097656,311.3890075683594)"><path stroke-linecap="butt" stroke-linejoin="miter" fill-opacity="0" stroke-miterlimit="10" stroke="rgb(91,6,6)" stroke-opacity="1" stroke-width="8.918" d=" M-121.94100189208984,58.78200149536133 C-126.37200164794922,70.44499969482422 -129.3679962158203,91.28700256347656 -120.5999984741211,99.61599731445312 C-109.35900115966797,110.29399871826172 -98.36799621582031,110.98300170898438 -86.96499633789062,110.84700012207031 C-71.41400146484375,110.66200256347656 -70.18399810791016,111.84600067138672 -40.055999755859375,98.69999694824219 C-9.928999900817871,85.5530014038086 27.586000442504883,63.99300003051758 58.262001037597656,55.777000427246094 C88.93699645996094,47.560001373291016 106.85299682617188,44.1150016784668 106.85299682617188,44.1150016784668 C106.85299682617188,44.1150016784668 138.55499267578125,36.24700164794922 139.64999389648438,7.763000011444092 C140.74600219726562,-20.722000122070312 128.1320037841797,-29.277000427246094 114.43800354003906,-41.45000076293945 C98.70999908447266,-55.43199920654297 79.88899993896484,-58.558998107910156 57.470001220703125,-74.86399841308594 C33.367000579833984,-92.39299774169922 -0.7009999752044678,-111.84600067138672 -37.95000076293945,-101.98600006103516 C-75.19999694824219,-92.1259994506836 -90.64399719238281,-63.691001892089844 -97.76499938964844,-16.582000732421875 C-102.75,16.389999389648438 -111.86799621582031,32.266998291015625 -121.94100189208984,58.78200149536133z"></path></g></g><g style="display: block;" transform="matrix(0.8729662895202637,0,0,0.8623204231262207,26.89296531677246,31.708213806152344)" opacity="1"><g opacity="1" transform="matrix(1,0,0,1,327.48199462890625,87.77300262451172)"><path fill="rgb(225,72,47)" fill-opacity="0.51" d=" M13.97599983215332,-52.12900161743164 C0.38499999046325684,-49.262001037597656 -0.9229999780654907,-40.8380012512207 -11.057000160217285,-19.81399917602539 C-22.40999984741211,3.740000009536743 -49.345001220703125,12.680000305175781 -50.85200119018555,14.75 C-52.35900115966797,16.81999969482422 -52.03200149536133,26.885000228881836 -48.27000045776367,32.159000396728516 C-44.50699996948242,37.43299865722656 -44.395999908447266,33.75 -44.395999908447266,33.75 C-44.395999908447266,33.75 -35.10300064086914,51.053001403808594 -17.606000900268555,33.49100112915039 C-7.840000152587891,23.687999725341797 -5.052000045776367,20.01799964904785 0.13099999725818634,4.735000133514404 C5.289000034332275,-10.473999977111816 1.5679999589920044,-18.95199966430664 7.794000148773193,-29.849000930786133 C13.08899974822998,-39.1150016784668 14.059000015258789,-43.97800064086914 19.270999908447266,-45.50899887084961 C24.64299964904785,-47.0880012512207 40.7599983215332,-49.63600158691406 38.4640007019043,-52.12900161743164 C35.231998443603516,-55.63999938964844 16.104000091552734,-52.577999114990234 13.97599983215332,-52.12900161743164z"></path></g><g opacity="1" transform="matrix(1,0,0,1,126.70500183105469,114.42900085449219)"><path fill="rgb(225,72,47)" fill-opacity="0.51" d=" M-38.5,-19.493000030517578 C-38.5,-19.493000030517578 0.7070000171661377,-28.062000274658203 25.43600082397461,-9.246000289916992 C46.67399978637695,6.913000106811523 58.69200134277344,21.999000549316406 66.99400329589844,24.601999282836914 C74.31700134277344,26.89900016784668 83.68000030517578,21.976999282836914 86.26499938964844,10.20300006866455 C88.8499984741211,-1.5709999799728394 76.64299774169922,-13.128999710083008 66.59700012207031,-21.062000274658203 C54.215999603271484,-30.839000701904297 26.20599937438965,-40.130001068115234 0.718999981880188,-39.83300018310547 C-24.76799964904785,-39.53499984741211 -32.439998626708984,-33.020999908447266 -32.439998626708984,-33.020999908447266 C-32.439998626708984,-33.020999908447266 -38.547000885009766,-30.27400016784668 -38.65800094604492,-28.45199966430664 C-38.880001068115234,-24.812999725341797 -38.5,-19.493000030517578 -38.5,-19.493000030517578z"></path></g></g><g style="display: block;" transform="matrix(0.8729662895202637,0,0,0.8623204231262207,26.89296531677246,31.708213806152344)" opacity="1"><g opacity="1" transform="matrix(1,0,0,1,148.72900390625,193.39599609375)"><path fill="rgb(255,255,255)" fill-opacity="1" d=" M-44.994998931884766,51.28499984741211 C-29.871000289916992,63.10100173950195 0.08699999749660492,76.18199920654297 37.104000091552734,52.28499984741211 C76.48400115966797,26.860000610351562 72.26399993896484,-33.49700164794922 43.28499984741211,-54.84000015258789 C14.305999755859375,-76.18299865722656 -36.358001708984375,-68.74600219726562 -57.07600021362305,-30.757999420166016 C-76.48500061035156,4.829999923706055 -60.25400161743164,39.3650016784668 -44.994998931884766,51.28499984741211z"></path><path stroke-linecap="butt" stroke-linejoin="miter" fill-opacity="0" stroke-miterlimit="10" stroke="rgb(94,59,93)" stroke-opacity="1" stroke-width="9.983" d=" M-44.994998931884766,51.28499984741211 C-29.871000289916992,63.10100173950195 0.08699999749660492,76.18199920654297 37.104000091552734,52.28499984741211 C76.48400115966797,26.860000610351562 72.26399993896484,-33.49700164794922 43.28499984741211,-54.84000015258789 C14.305999755859375,-76.18299865722656 -36.358001708984375,-68.74600219726562 -57.07600021362305,-30.757999420166016 C-76.48500061035156,4.829999923706055 -60.25400161743164,39.3650016784668 -44.994998931884766,51.28499984741211z"></path></g><g opacity="1" transform="matrix(1,0,0,1,153.8509979248047,207.78500366210938)"><path fill="rgb(241,176,186)" fill-opacity="1" d=" M43.3129997253418,-55.8390007019043 C52.71500015258789,-29.488000869750977 50.340999603271484,3.7809998989105225 24.243000030517578,21.184999465942383 C-10.020000457763672,44.034000396728516 -38.87799835205078,29.844999313354492 -52.87799835205078,18.54800033569336 C-56.57099914550781,15.567999839782715 -60.33599853515625,11.241000175476074 -63.56999969482422,5.881999969482422 C-59.80799865722656,16.687999725341797 -53.53900146484375,25.200000762939453 -47.47200012207031,30.09600067138672 C-33.47200012207031,41.391998291015625 -4.440000057220459,55.8390007019043 29.64900016784668,32.733001708984375 C63.56999969482422,9.741000175476074 58.98400115966797,-29.518999099731445 43.3129997253418,-55.8390007019043z"></path></g><g opacity="1" transform="matrix(1,0,0,1,0,0)"><g opacity="1" transform="matrix(1,0,0,1,116.41699981689453,176.22999572753906)"><path fill="rgb(26,11,40)" fill-opacity="1" d=" M31.64299964904785,6.001999855041504 C28.204999923706055,23.558000564575195 11.25100040435791,35.10300064086914 -6.224999904632568,31.788999557495117 C-23.700000762939453,28.474000930786133 -35.08100128173828,11.555000305175781 -31.64299964904785,-6.000999927520752 C-28.20599937438965,-23.558000564575195 -11.251999855041504,-35.10300064086914 6.223999977111816,-31.788000106811523 C23.700000762939453,-28.474000930786133 35.08100128173828,-11.553999900817871 31.64299964904785,6.001999855041504z"></path></g><g opacity="1" transform="matrix(1,0,0,1,113.17900085449219,189.30999755859375)"><path fill="rgb(91,64,123)" fill-opacity="1" d=" M-24.17300033569336,-3.302999973297119 C-23.145999908447266,2.686000108718872 -18.06399917602539,9.843000411987305 -4.492000102996826,14.222999572753906 C9.079999923706055,18.604000091552734 18.847999572753906,10.638999938964844 21.111000061035156,7.209000110626221 C24.57900047302246,1.9539999961853027 23.179000854492188,-3.9560000896453857 15.843999862670898,-7.459000110626221 C8.508999824523926,-10.961999893188477 -2.1630001068115234,-14.362000465393066 -9.145999908447266,-16.44099998474121 C-16.406999588012695,-18.604000091552734 -19.54400062561035,-15.536999702453613 -20.93199920654297,-14.135000228881836 C-23.923999786376953,-11.112000465393066 -24.57900047302246,-5.672999858856201 -24.17300033569336,-3.302999973297119z"></path></g><g opacity="1" transform="matrix(1,0,0,1,142.3249969482422,182.50999450683594)"><path fill="rgb(255,255,255)" fill-opacity="1" d=" M13.105999946594238,1.9819999933242798 C13.380000114440918,7.260000228881836 9.418000221252441,11.491999626159668 4.255000114440918,11.4350004196167 C-0.9070000052452087,11.378000259399414 -5.315000057220459,7.053999900817871 -5.590000152587891,1.7760000228881836 C-5.864999771118164,-3.502000093460083 -1.9019999504089355,-7.734000205993652 3.259999990463257,-7.677000045776367 C8.42300033569336,-7.620999813079834 12.831000328063965,-3.2960000038146973 13.105999946594238,1.9819999933242798z"></path></g></g><g opacity="1" transform="matrix(1,0,0,1,0,0)"><path stroke-linecap="round" stroke-linejoin="miter" fill-opacity="0" stroke-miterlimit="4" stroke="rgb(249,62,53)" stroke-opacity="1" stroke-width="8" d=" M175.43299865722656,191.427001953125 C175.43299865722656,191.427001953125 187.6439971923828,201.2899932861328 187.6439971923828,208.80499267578125 C187.6439971923828,216.32000732421875 186.23500061035156,215.85000610351562 186.7050018310547,221.48599243164062 C187.1750030517578,227.1219940185547 196.09800720214844,239.80299377441406 196.09800720214844,239.80299377441406"></path></g><g opacity="1" transform="matrix(1,0,0,1,0,0)"><path stroke-linecap="round" stroke-linejoin="miter" fill-opacity="0" stroke-miterlimit="4" stroke="rgb(249,62,53)" stroke-opacity="1" stroke-width="8" d=" M148.66200256347656,217.72900390625 C148.66200256347656,217.72900390625 153.82899475097656,229.00100708007812 156.177001953125,233.22799682617188 C158.52499389648438,237.4550018310547 165.57000732421875,235.5760040283203 166.0399932861328,238.86399841308594 C166.50999450683594,242.15199279785156 168.85800170898438,254.36300659179688 168.85800170898438,254.36300659179688"></path></g><g opacity="1" transform="matrix(1,0,0,1,0,0)"><path stroke-linecap="round" stroke-linejoin="miter" fill-opacity="0" stroke-miterlimit="4" stroke="rgb(249,62,53)" stroke-opacity="0.6" stroke-width="8" d=" M122.27100372314453,223.33099365234375 C122.27100372314453,223.33099365234375 121.00499725341797,230.697998046875 119.52899932861328,234.7899932861328 C117.78399658203125,239.6280059814453 123.51799774169922,242.1739959716797 123.51799774169922,245.73899841308594 C123.51799774169922,249.3040008544922 118.28299713134766,254.14199829101562 118.28299713134766,254.14199829101562"></path></g><g opacity="1" transform="matrix(1,0,0,1,0,0)"><path stroke-linecap="round" stroke-linejoin="miter" fill-opacity="0" stroke-miterlimit="4" stroke="rgb(249,62,53)" stroke-opacity="0.59" stroke-width="8" d=" M212.00599670410156,188.406005859375 C212.00599670410156,188.406005859375 207.9980010986328,182.76699829101562 202.98699951171875,180.71600341796875 C197.9759979248047,178.6649932861328 191.46200561523438,177.63999938964844 191.46200561523438,177.63999938964844"></path></g><g opacity="1" transform="matrix(1,0,0,1,148.72900390625,193.39599609375)"><path stroke-linecap="butt" stroke-linejoin="miter" fill-opacity="0" stroke-miterlimit="10" stroke="rgb(94,59,93)" stroke-opacity="1" stroke-width="12" d=" M-44.994998931884766,51.28499984741211 C-29.871000289916992,63.10100173950195 0.08699999749660492,76.18199920654297 37.104000091552734,52.28499984741211 C76.48400115966797,26.860000610351562 72.26399993896484,-33.49700164794922 43.28499984741211,-54.84000015258789 C14.305999755859375,-76.18299865722656 -36.358001708984375,-68.74600219726562 -57.07600021362305,-30.757999420166016 C-76.48500061035156,4.829999923706055 -60.25400161743164,39.3650016784668 -44.994998931884766,51.28499984741211z"></path></g></g><g style="display: block;" transform="matrix(0.756060779094696,0.24437929689884186,-0.2663576006889343,0.8040810227394104,286.2289123535156,-36.8747673034668)" opacity="1"><g opacity="1" transform="matrix(1,0,0,1,148.72900390625,193.39599609375)"><path fill="rgb(255,255,255)" fill-opacity="1" d=" M-40.22999954223633,44.79999923706055 C-23.297000885009766,53.83399963378906 6.539999961853027,61.08100128173828 39.625,39.430999755859375 C78.8479995727539,13.763999938964844 69.63600158691406,-30.18000030517578 40.65700149536133,-51.52299880981445 C11.678000450134277,-72.86599731445312 -44.073001861572266,-72.73899841308594 -65.03700256347656,-34.88600158691406 C-82.72100067138672,-2.9560000896453857 -59.14799880981445,34.707000732421875 -40.22999954223633,44.79999923706055z"></path><path stroke-linecap="butt" stroke-linejoin="miter" fill-opacity="0" stroke-miterlimit="10" stroke="rgb(94,59,93)" stroke-opacity="1" stroke-width="9.983" d=" M-40.22999954223633,44.79999923706055 C-23.297000885009766,53.83399963378906 6.539999961853027,61.08100128173828 39.625,39.430999755859375 C78.8479995727539,13.763999938964844 69.63600158691406,-30.18000030517578 40.65700149536133,-51.52299880981445 C11.678000450134277,-72.86599731445312 -44.073001861572266,-72.73899841308594 -65.03700256347656,-34.88600158691406 C-82.72100067138672,-2.9560000896453857 -59.14799880981445,34.707000732421875 -40.22999954223633,44.79999923706055z"></path></g><g opacity="1" transform="matrix(1,0,0,1,153.8509979248047,207.78500366210938)"><path fill="rgb(241,176,186)" fill-opacity="1" d=" M43.3129997253418,-55.8390007019043 C52.71500015258789,-29.488000869750977 50.340999603271484,3.7809998989105225 24.243000030517578,21.184999465942383 C-10.020000457763672,44.034000396728516 -38.87799835205078,29.844999313354492 -52.87799835205078,18.54800033569336 C-56.57099914550781,15.567999839782715 -60.33599853515625,11.241000175476074 -63.56999969482422,5.881999969482422 C-59.80799865722656,16.687999725341797 -53.53900146484375,25.200000762939453 -47.47200012207031,30.09600067138672 C-33.47200012207031,41.391998291015625 -4.110000133514404,55.23500061035156 29.979000091552734,32.12900161743164 C63.900001525878906,9.13700008392334 58.98400115966797,-29.518999099731445 43.3129997253418,-55.8390007019043z"></path></g><g opacity="1" transform="matrix(0.7221600413322449,0,0,0.7221600413322449,68.44000244140625,21.06200408935547)"><g opacity="1" transform="matrix(1,0,0,1,116.41699981689453,176.22999572753906)"><path fill="rgb(26,11,40)" fill-opacity="1" d=" M31.64299964904785,6.001999855041504 C28.204999923706055,23.558000564575195 11.25100040435791,35.10300064086914 -6.224999904632568,31.788999557495117 C-23.700000762939453,28.474000930786133 -35.08100128173828,11.555000305175781 -31.64299964904785,-6.000999927520752 C-28.20599937438965,-23.558000564575195 -11.251999855041504,-35.10300064086914 6.223999977111816,-31.788000106811523 C23.700000762939453,-28.474000930786133 35.08100128173828,-11.553999900817871 31.64299964904785,6.001999855041504z"></path></g><g opacity="1" transform="matrix(1,0,0,1,113.17900085449219,189.30999755859375)"><path fill="rgb(91,64,123)" fill-opacity="1" d=" M-24.17300033569336,-3.302999973297119 C-23.145999908447266,2.686000108718872 -18.06399917602539,9.843000411987305 -4.492000102996826,14.222999572753906 C9.079999923706055,18.604000091552734 18.847999572753906,10.638999938964844 21.111000061035156,7.209000110626221 C24.57900047302246,1.9539999961853027 23.179000854492188,-3.9560000896453857 15.843999862670898,-7.459000110626221 C8.508999824523926,-10.961999893188477 -2.1630001068115234,-14.362000465393066 -9.145999908447266,-16.44099998474121 C-16.406999588012695,-18.604000091552734 -19.54400062561035,-15.536999702453613 -20.93199920654297,-14.135000228881836 C-23.923999786376953,-11.112000465393066 -24.57900047302246,-5.672999858856201 -24.17300033569336,-3.302999973297119z"></path></g><g opacity="1" transform="matrix(1,0,0,1,142.3249969482422,182.50999450683594)"><path fill="rgb(255,255,255)" fill-opacity="1" d=" M13.105999946594238,1.9819999933242798 C13.380000114440918,7.260000228881836 9.418000221252441,11.491999626159668 4.255000114440918,11.4350004196167 C-0.9070000052452087,11.378000259399414 -5.315000057220459,7.053999900817871 -5.590000152587891,1.7760000228881836 C-5.864999771118164,-3.502000093460083 -1.9019999504089355,-7.734000205993652 3.259999990463257,-7.677000045776367 C8.42300033569336,-7.620999813079834 12.831000328063965,-3.2960000038146973 13.105999946594238,1.9819999933242798z"></path></g></g><g opacity="1" transform="matrix(0.9100000262260437,0,0,0.9100000262260437,13.737000465393066,15.699999809265137)"><path stroke-linecap="round" stroke-linejoin="miter" fill-opacity="0" stroke-miterlimit="4" stroke="rgb(249,62,53)" stroke-opacity="1" stroke-width="8" d=" M171.9709930419922,198.5970001220703 C171.9709930419922,198.5970001220703 186.29600524902344,205.10499572753906 188.00799560546875,208.13800048828125 C191.70199584960938,214.6820068359375 192.68800354003906,219.8470001220703 191.74000549316406,222.17999267578125 C189.61099243164062,227.4199981689453 200.08099365234375,235.81199645996094 200.08099365234375,235.81199645996094"></path></g><g opacity="1" transform="matrix(1,0,0,1,-5.88700008392334,-8.831000328063965)"><path stroke-linecap="round" stroke-linejoin="miter" fill-opacity="0" stroke-miterlimit="4" stroke="rgb(249,62,53)" stroke-opacity="1" stroke-width="8" d=" M148.66200256347656,217.72900390625 C148.66200256347656,217.72900390625 153.82899475097656,229.00100708007812 156.177001953125,233.22799682617188 C158.52499389648438,237.4550018310547 165.57000732421875,235.5760040283203 166.0399932861328,238.86399841308594 C166.50999450683594,242.15199279785156 168.85800170898438,254.36300659179688 168.85800170898438,254.36300659179688"></path></g><g opacity="1" transform="matrix(1,0,0,1,-3.924999952316284,-13.246999740600586)"><path stroke-linecap="round" stroke-linejoin="miter" fill-opacity="0" stroke-miterlimit="4" stroke="rgb(249,62,53)" stroke-opacity="0.6" stroke-width="8" d=" M122.27100372314453,223.33099365234375 C122.27100372314453,223.33099365234375 121.00499725341797,230.697998046875 119.52899932861328,234.7899932861328 C117.78399658203125,239.6280059814453 123.51799774169922,242.1739959716797 123.51799774169922,245.73899841308594 C123.51799774169922,249.3040008544922 118.28299713134766,254.14199829101562 118.28299713134766,254.14199829101562"></path></g><g opacity="1" transform="matrix(1,0,0,1,0,0)"><path stroke-linecap="round" stroke-linejoin="miter" fill-opacity="0" stroke-miterlimit="4" stroke="rgb(249,62,53)" stroke-opacity="0.59" stroke-width="8" d=" M212.00599670410156,188.406005859375 C212.00599670410156,188.406005859375 207.9980010986328,182.76699829101562 202.98699951171875,180.71600341796875 C197.9759979248047,178.6649932861328 191.46200561523438,177.63999938964844 191.46200561523438,177.63999938964844"></path></g><g opacity="1" transform="matrix(1,0,0,1,148.72900390625,193.39599609375)"><path stroke-linecap="butt" stroke-linejoin="miter" fill-opacity="0" stroke-miterlimit="10" stroke="rgb(94,59,93)" stroke-opacity="1" stroke-width="12" d=" M-40.22999954223633,44.79999923706055 C-23.297000885009766,53.83399963378906 6.539999961853027,61.08100128173828 39.625,39.430999755859375 C78.8479995727539,13.763999938964844 69.63600158691406,-30.18000030517578 40.65700149536133,-51.52299880981445 C11.678000450134277,-72.86599731445312 -44.073001861572266,-72.73899841308594 -65.03700256347656,-34.88600158691406 C-82.72100067138672,-2.9560000896453857 -59.14799880981445,34.707000732421875 -40.22999954223633,44.79999923706055z"></path></g></g><g style="display: block;" transform="matrix(0.8729662895202637,0,0,0.8623204231262207,26.89296531677246,31.708213806152344)" opacity="1"><g opacity="1" transform="matrix(1,0,0,1,319.6820068359375,76.75599670410156)"><path fill="rgb(73,19,15)" fill-opacity="1" d=" M27.64299964904785,-45.92900085449219 C13.772000312805176,-45.209999084472656 3.946000099182129,-45.41299819946289 -9.333000183105469,-26.219999313354492 C-24.208999633789062,-4.7170000076293945 -39.62300109863281,16.645000457763672 -41.43299865722656,18.45599937438965 C-43.24399948120117,20.267000198364258 -47.465999603271484,25.03700065612793 -44.569000244140625,30.832000732421875 C-41.672000885009766,36.625999450683594 -39.619998931884766,39.402000427246094 -39.619998931884766,39.402000427246094 C-39.619998931884766,39.402000427246094 -35.51599884033203,46.04199981689453 -25.375999450683594,36.625999450683594 C-15.236000061035156,27.209999084472656 -5.820000171661377,16.34600067138672 -0.7509999871253967,3.309000015258789 C4.320000171661377,-9.727999687194824 7.414000034332275,-20.716999053955078 16.465999603271484,-29.408000946044922 C25.520000457763672,-38.0989990234375 32.744998931884766,-36.939998626708984 39.0620002746582,-37.18199920654297 C44.65800094604492,-37.39799880981445 47.465999603271484,-37.965999603271484 46.108001708984375,-41.06999969482422 C44.40700149536133,-44.957000732421875 29.81599998474121,-46.04199981689453 27.64299964904785,-45.92900085449219z"></path><path stroke-linecap="butt" stroke-linejoin="miter" fill-opacity="0" stroke-miterlimit="10" stroke="rgb(73,19,15)" stroke-opacity="1" stroke-width="5" d=" M27.64299964904785,-45.92900085449219 C13.772000312805176,-45.209999084472656 3.946000099182129,-45.41299819946289 -9.333000183105469,-26.219999313354492 C-24.208999633789062,-4.7170000076293945 -39.62300109863281,16.645000457763672 -41.43299865722656,18.45599937438965 C-43.24399948120117,20.267000198364258 -47.465999603271484,25.03700065612793 -44.569000244140625,30.832000732421875 C-41.672000885009766,36.625999450683594 -39.619998931884766,39.402000427246094 -39.619998931884766,39.402000427246094 C-39.619998931884766,39.402000427246094 -35.51599884033203,46.04199981689453 -25.375999450683594,36.625999450683594 C-15.236000061035156,27.209999084472656 -5.820000171661377,16.34600067138672 -0.7509999871253967,3.309000015258789 C4.320000171661377,-9.727999687194824 7.414000034332275,-20.716999053955078 16.465999603271484,-29.408000946044922 C25.520000457763672,-38.0989990234375 32.744998931884766,-36.939998626708984 39.0620002746582,-37.18199920654297 C44.65800094604492,-37.39799880981445 47.465999603271484,-37.965999603271484 46.108001708984375,-41.06999969482422 C44.40700149536133,-44.957000732421875 29.81599998474121,-46.04199981689453 27.64299964904785,-45.92900085449219z"></path></g><g opacity="1" transform="matrix(1,0,0,1,132.0780029296875,98.81600189208984)"><path fill="rgb(73,19,15)" fill-opacity="1" d=" M-50.88999938964844,-0.7089999914169312 C-50.88999938964844,-0.7089999914169312 -12.164999961853027,-22.569000244140625 16.160999298095703,-7.118000030517578 C40.4900016784668,6.1519999504089355 51.82400131225586,22.319000244140625 60.750999450683594,23.691999435424805 C68.6259994506836,24.90399932861328 76.52400207519531,24.018999099731445 77.33200073242188,11.52299976348877 C78.13899993896484,-0.9739999771118164 60.981998443603516,-12.8100004196167 49.43000030517578,-19.382999420166016 C35.191001892089844,-27.486000061035156 9.218000411987305,-30.76300048828125 -16.891000747680664,-26.465999603271484 C-43,-22.16900062561035 -55.95899963378906,-8.170999526977539 -55.95899963378906,-8.170999526977539 C-55.95899963378906,-8.170999526977539 -62.189998626708984,-3.493000030517578 -59.744998931884766,-0.6269999742507935 C-56.5629997253418,3.1029999256134033 -50.88999938964844,-0.7089999914169312 -50.88999938964844,-0.7089999914169312z"></path><path stroke-linecap="butt" stroke-linejoin="miter" fill-opacity="0" stroke-miterlimit="10" stroke="rgb(73,18,14)" stroke-opacity="1" stroke-width="5" d=" M-50.88999938964844,-0.7089999914169312 C-50.88999938964844,-0.7089999914169312 -12.164999961853027,-22.569000244140625 16.160999298095703,-7.118000030517578 C40.4900016784668,6.1519999504089355 51.82400131225586,22.319000244140625 60.750999450683594,23.691999435424805 C68.6259994506836,24.90399932861328 76.52400207519531,24.018999099731445 77.33200073242188,11.52299976348877 C78.13899993896484,-0.9739999771118164 60.981998443603516,-12.8100004196167 49.43000030517578,-19.382999420166016 C35.191001892089844,-27.486000061035156 9.218000411987305,-30.76300048828125 -16.891000747680664,-26.465999603271484 C-43,-22.16900062561035 -55.95899963378906,-8.170999526977539 -55.95899963378906,-8.170999526977539 C-55.95899963378906,-8.170999526977539 -62.189998626708984,-3.493000030517578 -59.744998931884766,-0.6269999742507935 C-56.5629997253418,3.1029999256134033 -50.88999938964844,-0.7089999914169312 -50.88999938964844,-0.7089999914169312z"></path></g></g></g></g></svg>