<svg xmlns="http://www.w3.org/2000/svg" xmlns:xlink="http://www.w3.org/1999/xlink" viewBox="0 0 512 512" width="512" height="512" style="width: 100%; height: 100%; transform: translate3d(0,0,0); content-visibility: visible;" preserveAspectRatio="xMidYMid meet"><defs><clipPath id="__lottie_element_2"><rect width="512" height="512" x="0" y="0"></rect></clipPath><clipPath id="__lottie_element_4"><path d="M0,0 L512,0 L512,512 L0,512z"></path></clipPath><linearGradient id="__lottie_element_14" spreadMethod="pad" gradientUnits="userSpaceOnUse"><stop></stop><stop></stop><stop></stop></linearGradient><mask id="__lottie_element_16"><path fill="url(#__lottie_element_15)"></path></mask><linearGradient id="__lottie_element_15" spreadMethod="pad" gradientUnits="userSpaceOnUse"><stop stop-color="rgb(255,255,255)"></stop><stop stop-color="rgb(255,255,255)"></stop><stop stop-color="rgb(255,255,255)"></stop></linearGradient><linearGradient id="__lottie_element_17" spreadMethod="pad" gradientUnits="userSpaceOnUse"><stop></stop><stop></stop><stop></stop></linearGradient><mask id="__lottie_element_19"><path fill="url(#__lottie_element_18)"></path></mask><linearGradient id="__lottie_element_18" spreadMethod="pad" gradientUnits="userSpaceOnUse"><stop stop-color="rgb(255,255,255)"></stop><stop stop-color="rgb(255,255,255)"></stop><stop stop-color="rgb(255,255,255)"></stop></linearGradient><radialGradient id="__lottie_element_28" spreadMethod="pad" gradientUnits="userSpaceOnUse"><stop></stop><stop></stop><stop></stop></radialGradient><mask id="__lottie_element_30"><path fill="url(#__lottie_element_29)"></path></mask><radialGradient id="__lottie_element_29" spreadMethod="pad" gradientUnits="userSpaceOnUse"><stop stop-color="rgb(255,255,255)"></stop><stop stop-color="rgb(255,255,255)"></stop><stop stop-color="rgb(255,255,255)"></stop></radialGradient><clipPath id="__lottie_element_40"><path d="M0,0 L512,0 L512,512 L0,512z"></path></clipPath><linearGradient id="__lottie_element_50" spreadMethod="pad" gradientUnits="userSpaceOnUse" x1="38.696998596191406" y1="-37.893001556396484" x2="-17.2450008392334" y2="41.45800018310547"><stop offset="0%" stop-color="rgb(255,255,255)"></stop><stop offset="85%" stop-color="rgb(255,255,255)"></stop><stop offset="100%" stop-color="rgb(255,255,255)"></stop></linearGradient><mask id="__lottie_element_52"><path fill="url(#__lottie_element_51)" d=" M-32.11800003051758,19.16200065612793 C-32.11800003051758,19.16200065612793 0.46299999952316284,-3.3989999294281006 6.395999908447266,-8.60200023651123 C14.543000221252441,-15.746000289916992 22.351999282836914,-26.75 27.363000869750977,-25.388999938964844 C36.99800109863281,-22.770999908447266 24.906999588012695,-9.243000030517578 18.858999252319336,-1.7680000066757202 C12.425000190734863,6.182000160217285 -15.973999977111816,29.650999069213867 -15.973999977111816,29.650999069213867 C-15.973999977111816,29.650999069213867 -17.597000122070312,30.093000411987305 -26.523000717163086,24.590999603271484 C-32.138999938964844,21.128999710083008 -32.11800003051758,19.16200065612793 -32.11800003051758,19.16200065612793z"></path></mask><linearGradient id="__lottie_element_51" spreadMethod="pad" gradientUnits="userSpaceOnUse" x1="38.696998596191406" y1="-37.893001556396484" x2="-17.2450008392334" y2="41.45800018310547"><stop stop-color="rgb(255,255,255)" offset="0%" stop-opacity="1"></stop><stop stop-color="rgb(255,255,255)" offset="57%" stop-opacity="0.5"></stop><stop stop-color="rgb(255,255,255)" offset="100%" stop-opacity="0"></stop></linearGradient><linearGradient id="__lottie_element_53" spreadMethod="pad" gradientUnits="userSpaceOnUse" x1="25.312999725341797" y1="-21.378000259399414" x2="-6.310999870300293" y2="39.340999603271484"><stop offset="0%" stop-color="rgb(255,255,255)"></stop><stop offset="85%" stop-color="rgb(255,255,255)"></stop><stop offset="100%" stop-color="rgb(255,255,255)"></stop></linearGradient><mask id="__lottie_element_55"><path fill="url(#__lottie_element_54)" d=" M-36.04100036621094,23.29400062561035 C-36.04100036621094,23.29400062561035 -13.76099967956543,11.97599983215332 2.0420000553131104,1.0479999780654907 C17.8439998626709,-9.878999710083008 24.43400001525879,-19.408000946044922 29.79400062561035,-22.618000030517578 C37.67399978637695,-27.336999893188477 43.04800033569336,-29.65399932861328 38.512001037597656,-18.959999084472656 C33.92599868774414,-8.14799976348877 8.371999740600586,13.467000007629395 -1.378999948501587,20.191999435424805 C-11.128999710083008,26.916000366210938 -18.82900047302246,30.93199920654297 -18.82900047302246,30.93199920654297 C-18.82900047302246,30.93199920654297 -23.540000915527344,30.632999420166016 -31.437000274658203,26.729000091552734 C-35.840999603271484,24.552000045776367 -34.69599914550781,24.80699920654297 -36.04100036621094,23.29400062561035z"></path></mask><linearGradient id="__lottie_element_54" spreadMethod="pad" gradientUnits="userSpaceOnUse" x1="25.312999725341797" y1="-21.378000259399414" x2="-6.310999870300293" y2="39.340999603271484"><stop stop-color="rgb(255,255,255)" offset="0%" stop-opacity="1"></stop><stop stop-color="rgb(255,255,255)" offset="57%" stop-opacity="0.5"></stop><stop stop-color="rgb(255,255,255)" offset="100%" stop-opacity="0"></stop></linearGradient><radialGradient id="__lottie_element_64" spreadMethod="pad" gradientUnits="userSpaceOnUse" cx="-145.69200134277344" cy="-230.93899536132812" r="519.8343256462489" fx="-145.69200134277344" fy="-230.93899536132812"><stop offset="0%" stop-color="rgb(255,255,255)"></stop><stop offset="85%" stop-color="rgb(255,255,255)"></stop><stop offset="100%" stop-color="rgb(255,255,255)"></stop></radialGradient><mask id="__lottie_element_66"><path fill="url(#__lottie_element_65)" d=" M79.05599975585938,159.7689971923828 C57.13100051879883,167.74099731445312 33.45399856567383,169.6439971923828 10.4399995803833,165.79800415039062 C-15.987000465393066,161.38299560546875 -55.90800094604492,159.5749969482422 -97.4000015258789,140.6230010986328 C-143.75999450683594,119.44599914550781 -159.98899841308594,81.65799713134766 -166.3179931640625,44.45399856567383 C-172.6479949951172,7.25 -167.72500610351562,-55.92599868774414 -141.00100708007812,-91.72599792480469 C-114.27799987792969,-127.5260009765625 -62.941001892089844,-155.60400390625 -5.27400016784668,-162.62399291992188 C52.391998291015625,-169.64300537109375 101.76200103759766,-151.47300720214844 126.93599700927734,-116.29399871826172 C155.0659942626953,-76.98500061035156 172.6479949951172,0.9319999814033508 169.13099670410156,54.28099822998047 C165.61500549316406,107.62999725341797 122.71700286865234,135.70899963378906 97.4000015258789,151.15199279785156 C91.7040023803711,154.6269989013672 85.4020004272461,157.46200561523438 79.05599975585938,159.7689971923828z"></path></mask><radialGradient id="__lottie_element_65" spreadMethod="pad" gradientUnits="userSpaceOnUse" cx="-145.69200134277344" cy="-230.93899536132812" r="519.8343256462489" fx="-145.69200134277344" fy="-230.93899536132812"><stop stop-color="rgb(255,255,255)" offset="0%" stop-opacity="1"></stop><stop stop-color="rgb(255,255,255)" offset="57%" stop-opacity="0.5"></stop><stop stop-color="rgb(255,255,255)" offset="100%" stop-opacity="0"></stop></radialGradient></defs><g clip-path="url(#__lottie_element_2)"><g clip-path="url(#__lottie_element_40)" style="display: block;" transform="matrix(1,0,0,1,0,0)" opacity="1"><g style="display: block;" transform="matrix(0.9987977743148804,0.04902036488056183,-0.04902036488056183,0.9987977743148804,59.460968017578125,12.776779174804688)" opacity="1"><g opacity="1" transform="matrix(1,0,0,1,228.14999389648438,225.02200317382812)"><path fill="rgb(239,169,122)" fill-opacity="1" d=" M91.87799835205078,186.0240020751953 C66.39700317382812,195.30599975585938 38.880001068115234,197.52200317382812 12.133000373840332,193.04400634765625 C-18.579999923706055,187.9029998779297 -64.97699737548828,185.7989959716797 -113.1989974975586,163.7310028076172 C-167.07899475097656,139.07400512695312 -185.94000244140625,95.0770034790039 -193.29600524902344,51.75899887084961 C-200.6510009765625,8.440999984741211 -194.92999267578125,-65.11699676513672 -163.8719940185547,-106.80000305175781 C-132.81399536132812,-148.48300170898438 -73.1500015258789,-181.1750030517578 -6.13100004196167,-189.3489990234375 C60.888999938964844,-197.52200317382812 118.26699829101562,-176.36599731445312 147.5240020751953,-135.406005859375 C180.2169952392578,-89.63600158691406 200.64999389648438,1.0859999656677246 196.56300354003906,63.20199966430664 C192.4770050048828,125.31700134277344 142.62100219726562,158.00999450683594 113.1969985961914,175.99099731445312 C106.5770034790039,180.03700256347656 99.25299835205078,183.33799743652344 91.87799835205078,186.0240020751953z"></path><path stroke-linecap="butt" stroke-linejoin="miter" fill-opacity="0" stroke-miterlimit="10" stroke="rgb(181,95,48)" stroke-opacity="1" stroke-width="11" d=" M91.87799835205078,186.0240020751953 C66.39700317382812,195.30599975585938 38.880001068115234,197.52200317382812 12.133000373840332,193.04400634765625 C-18.579999923706055,187.9029998779297 -64.97699737548828,185.7989959716797 -113.1989974975586,163.7310028076172 C-167.07899475097656,139.07400512695312 -185.94000244140625,95.0770034790039 -193.29600524902344,51.75899887084961 C-200.6510009765625,8.440999984741211 -194.92999267578125,-65.11699676513672 -163.8719940185547,-106.80000305175781 C-132.81399536132812,-148.48300170898438 -73.1500015258789,-181.1750030517578 -6.13100004196167,-189.3489990234375 C60.888999938964844,-197.52200317382812 118.26699829101562,-176.36599731445312 147.5240020751953,-135.406005859375 C180.2169952392578,-89.63600158691406 200.64999389648438,1.0859999656677246 196.56300354003906,63.20199966430664 C192.4770050048828,125.31700134277344 142.62100219726562,158.00999450683594 113.1969985961914,175.99099731445312 C106.5770034790039,180.03700256347656 99.25299835205078,183.33799743652344 91.87799835205078,186.0240020751953z"></path></g><g opacity="1" transform="matrix(1,0,0,1,223.26199340820312,209.59500122070312)"><path fill="url(#__lottie_element_64)" mask="url(#__lottie_element_66)" fill-opacity="1" d="M0 0 M79.05599975585938,159.7689971923828 C57.13100051879883,167.74099731445312 33.45399856567383,169.6439971923828 10.4399995803833,165.79800415039062 C-15.987000465393066,161.38299560546875 -55.90800094604492,159.5749969482422 -97.4000015258789,140.6230010986328 C-143.75999450683594,119.44599914550781 -159.98899841308594,81.65799713134766 -166.3179931640625,44.45399856567383 C-172.6479949951172,7.25 -167.72500610351562,-55.92599868774414 -141.00100708007812,-91.72599792480469 C-114.27799987792969,-127.5260009765625 -62.941001892089844,-155.60400390625 -5.27400016784668,-162.62399291992188 C52.391998291015625,-169.64300537109375 101.76200103759766,-151.47300720214844 126.93599700927734,-116.29399871826172 C155.0659942626953,-76.98500061035156 172.6479949951172,0.9319999814033508 169.13099670410156,54.28099822998047 C165.61500549316406,107.62999725341797 122.71700286865234,135.70899963378906 97.4000015258789,151.15199279785156 C91.7040023803711,154.6269989013672 85.4020004272461,157.46200561523438 79.05599975585938,159.7689971923828z"></path></g><g opacity="1" transform="matrix(1.0487456321716309,0.020191876217722893,-0.019249793142080307,0.9998146891593933,-21.611724853515625,-0.4473114013671875)"><g opacity="1" transform="matrix(1,0,0,1,276.50799560546875,101.78500366210938)"><path stroke-linecap="round" stroke-linejoin="round" fill-opacity="0" stroke="rgb(224,149,99)" stroke-opacity="0.76" stroke-width="9" d=" M-82.00399780273438,0.3630000054836273 C-82.00399780273438,0.3630000054836273 -44.22600173950195,11.987000465393066 6.265999794006348,3.631999969482422 C56.757999420166016,-4.7230000495910645 82.00399780273438,-11.98799991607666 82.00399780273438,-11.98799991607666"></path></g><g opacity="1" transform="matrix(1,0,0,1,270.7869873046875,80.1719970703125)"><path stroke-linecap="round" stroke-linejoin="round" fill-opacity="0" stroke="rgb(224,149,99)" stroke-opacity="0.76" stroke-width="9" d=" M-45.919677734375,2.96468186378479 C-44.466678619384766,3.3276820182800293 -30.627851486206055,5.126893520355225 2.231597900390625,1.330199956893921 C41.810909271240234,-3.240078926086426 45.84648895263672,-5.680252552032471 45.84648895263672,-5.680252552032471"></path></g></g><g opacity="1" transform="matrix(1,0,0,1,108.14099884033203,132.38900756835938)"><path stroke-linecap="round" stroke-linejoin="round" fill-opacity="0" stroke="rgb(224,149,99)" stroke-opacity="0.77" stroke-width="9" d=" M-9.884562492370605,-8.50668716430664 C-9.884562492370605,-8.50668716430664 -11.580875396728516,-3.6308751106262207 -13.892437934875488,2.6096251010894775 C-16.31487464904785,9.03793716430664 -21.852188110351562,14.161437034606934 -21.852188110351562,14.161437034606934"></path></g></g><g style="display: block;" transform="matrix(1.033765435218811,-0.03097572736442089,0.02970375306904316,0.9913151264190674,234.69692993164062,302.89019775390625)" opacity="1"><g opacity="1" transform="matrix(1.0700000524520874,0,0,1.0700000524520874,-5.150184631347656,-3.0800704956054688)"><g opacity="1" transform="matrix(0.9816274046897888,0.01048461627215147,-0.0106802424415946,0.99994295835495,73.4885025024414,41.28127670288086)"><path stroke-linecap="round" stroke-linejoin="round" fill-opacity="0" stroke="rgb(135,61,41)" stroke-opacity="1" stroke-width="11" d=" M-57.77867126464844,19.189786911010742 C-57.77867126464844,19.189786911010742 -49.16606903076172,-6.948393821716309 -15.842755317687988,-11.253982543945312 C14.003310203552246,-15.102599143981934 32.377803802490234,-8.774127960205078 44.311317443847656,-1.3920499086380005 C51.51603317260742,3.069500207901001 56.971351623535156,15.708847045898438 56.971351623535156,15.708847045898438"></path></g><g opacity="1" transform="matrix(1,0,0,1,82.07599639892578,54.1619987487793)"><path stroke-linecap="round" stroke-linejoin="round" fill-opacity="0" stroke="rgb(224,149,99)" stroke-opacity="1" stroke-width="11.945" d=" M-17.973018646240234,1.8377010822296143 C-17.973018646240234,1.8377010822296143 -9.769523620605469,1.9109992980957031 -1.05098295211792,2.707355260848999 C7.880762100219727,3.5260777473449707 23.19382667541504,3.9031155109405518 23.19382667541504,3.9031155109405518"></path></g></g></g><g style="display: block;" transform="matrix(1.033765435218811,-0.03097572736442089,0.02970375306904316,0.9913151264190674,91.29135131835938,153.22671508789062)" opacity="1"><g opacity="1" transform="matrix(1,0,0,1,0,0)"><path fill="rgb(228,152,101)" fill-opacity="0.59" d=" M329.8544921875,3.6102499961853027 C320.76849365234375,-3.1697499752044678 251.99325561523438,13.369999885559082 251.99325561523438,13.369999885559082 C251.99325561523438,13.369999885559082 238.33999633789062,17.18600082397461 237.37399291992188,27.96500015258789 C235.21249389648438,48.912498474121094 251.98500061035156,84.59300231933594 268.7330017089844,89.41200256347656 C285.4809875488281,94.23100280761719 328.3399963378906,87.04399871826172 335.72100830078125,65.5770034790039 C343.10198974609375,44.11000061035156 338.94049072265625,10.390250205993652 329.8544921875,3.6102499961853027z"></path></g><g opacity="1" transform="matrix(0.9923604130744934,-0.0035999349784106016,0.0016066699754446745,1.0000007152557373,2.015869140625,1.1673393249511719)"><g opacity="1" transform="matrix(1,0,0,1,289.1709899902344,48.654998779296875)"><path fill="rgb(211,207,229)" fill-opacity="1" d=" M-37.15745544433594,-5.278681755065918 C-31.997682571411133,-11.37813663482666 -26.631454467773438,-14.545772552490234 -7.813454627990723,-18.455772399902344 C14.78254508972168,-23.15177345275879 27.051362991333008,-23.383045196533203 34.33054733276367,-13.957091331481934 C41.59813690185547,-4.549136161804199 41.69068145751953,7.777954578399658 36.718544006347656,12.348954200744629 C27.92086410522461,20.279909133911133 10.646591186523438,22.496273040771484 -10.932863235473633,23.05718231201172 C-32.35954666137695,23.622955322265625 -36.69590759277344,16.537954330444336 -39.64500045776367,8.690999984741211 C-41.503273010253906,3.7612273693084717 -38.63754653930664,-3.553636312484741 -37.15745544433594,-5.278681755065918z"></path><path stroke-linecap="butt" stroke-linejoin="miter" fill-opacity="0" stroke-miterlimit="10" stroke="rgb(135,61,41)" stroke-opacity="1" stroke-width="9.607" d=" M-37.15745544433594,-5.278681755065918 C-31.997682571411133,-11.37813663482666 -26.631454467773438,-14.545772552490234 -7.813454627990723,-18.455772399902344 C14.78254508972168,-23.15177345275879 27.051362991333008,-23.383045196533203 34.33054733276367,-13.957091331481934 C41.59813690185547,-4.549136161804199 41.69068145751953,7.777954578399658 36.718544006347656,12.348954200744629 C27.92086410522461,20.279909133911133 10.646591186523438,22.496273040771484 -10.932863235473633,23.05718231201172 C-32.35954666137695,23.622955322265625 -36.69590759277344,16.537954330444336 -39.64500045776367,8.690999984741211 C-41.503273010253906,3.7612273693084717 -38.63754653930664,-3.553636312484741 -37.15745544433594,-5.278681755065918z"></path></g><g opacity="1" transform="matrix(1,0,0,1,291.35198974609375,48.007999420166016)"><path fill="rgb(255,255,255)" fill-opacity="1" d=" M-27.266408920288086,-5.84990930557251 C-23.207408905029297,-9.622909545898438 -19.31986427307129,-11.04163646697998 -4.962863445281982,-13.034636497497559 C12.27713680267334,-15.42763614654541 21.413000106811523,-15.071000099182129 26.566999435424805,-8.428000450134277 C31.72100067138672,-1.784999966621399 31.34613609313965,6.51200008392334 27.388635635375977,9.443090438842773 C20.36936378479004,14.575045585632324 7.1795454025268555,15.465909004211426 -9.017454147338867,15.133909225463867 C-25.2154541015625,14.801909446716309 -28.08904457092285,8.304863929748535 -30.033000946044922,4.2769999504089355 C-31.650318145751953,1.0044090747833252 -28.463409423828125,-4.736908912658691 -27.266408920288086,-5.84990930557251z"></path></g><g opacity="1" transform="matrix(1.1399999856948853,0,0,1.1399999856948853,-41.2603759765625,-6.689197540283203)"><g opacity="1" transform="matrix(1,0,0,1,291.39898681640625,47.779998779296875)"><path fill="rgb(40,23,61)" fill-opacity="1" d=" M8.527999877929688,0 C8.527999877929688,4.709000110626221 4.710000038146973,8.527000427246094 0.0010000000474974513,8.527000427246094 C-4.709000110626221,8.527000427246094 -8.527000427246094,4.709000110626221 -8.527000427246094,0 C-8.527000427246094,-4.710000038146973 -4.709000110626221,-8.527000427246094 0.0010000000474974513,-8.527000427246094 C4.710000038146973,-8.527000427246094 8.527999877929688,-4.710000038146973 8.527999877929688,0z"></path></g><g opacity="1" transform="matrix(1,0,0,1,300.52099609375,44.198001861572266)"><path fill="rgb(255,255,255)" fill-opacity="1" d=" M6.041999816894531,0 C6.041999816894531,2.384999990463257 3.3359999656677246,4.318999767303467 -0.0010000000474974513,4.318999767303467 C-3.3369998931884766,4.318999767303467 -6.041999816894531,2.384999990463257 -6.041999816894531,0 C-6.041999816894531,-2.384999990463257 -3.3369998931884766,-4.318999767303467 -0.0010000000474974513,-4.318999767303467 C3.3359999656677246,-4.318999767303467 6.041999816894531,-2.384999990463257 6.041999816894531,0z"></path></g></g><g opacity="1" transform="matrix(1,0,0,1,291.0790100097656,81.77400207519531)"><path stroke-linecap="round" stroke-linejoin="round" fill-opacity="0" stroke="rgb(224,149,99)" stroke-opacity="0.78" stroke-width="9" d=" M-26.517000198364258,1.2710000276565552 C-26.517000198364258,1.2710000276565552 -7.265999794006348,-1.2710000276565552 6.901000022888184,-1.2710000276565552 C21.06800079345703,-1.2710000276565552 26.517000198364258,-0.9079999923706055 26.517000198364258,-0.9079999923706055"></path></g></g><g opacity="1" transform="matrix(1,0,0,1,0,0)"><path fill="rgb(228,152,101)" fill-opacity="0.66" d=" M178.5989990234375,22.336999893188477 C162.35400390625,18.03700065612793 92.47599792480469,6.432000160217285 92.47599792480469,6.432000160217285 C92.47599792480469,6.432000160217285 78.18299865722656,11.182000160217285 81.4280014038086,38.42100143432617 C84.6729965209961,65.66000366210938 94.00199890136719,95.0250015258789 154.63999938964844,91.64299774169922 C181.156005859375,90.16400146484375 194.23699951171875,58.75600051879883 194.44200134277344,41.308998107910156 C194.64700317382812,23.86199951171875 194.843994140625,26.636999130249023 178.5989990234375,22.336999893188477z"></path></g><g opacity="1" transform="matrix(1,0,0,1,0,0)"><g opacity="1" transform="matrix(1,0,0,1,143.3769989013672,51.722999572753906)"><path fill="rgb(211,207,229)" fill-opacity="1" d=" M-28.16377830505371,-20.203304290771484 C-14.820777893066406,-24.19215202331543 8.020092010498047,-23.484838485717773 24.407093048095703,-16.86783790588379 C49.465091705322266,-6.747838497161865 45.88791275024414,10.409780502319336 39.118736267089844,18.580703735351562 C32.29569625854492,26.805278778076172 13.687325477600098,28.982650756835938 -15.224674224853516,24.163650512695312 C-44.13767623901367,19.34465217590332 -51.62267303466797,6.942461967468262 -50.4188346862793,-2.9074180126190186 C-49.02610397338867,-14.30624008178711 -37.69924545288086,-17.33308982849121 -28.16377830505371,-20.203304290771484z"></path><path stroke-linecap="butt" stroke-linejoin="miter" fill-opacity="0" stroke-miterlimit="10" stroke="rgb(135,61,41)" stroke-opacity="1" stroke-width="9.769" d=" M-28.16377830505371,-20.203304290771484 C-14.820777893066406,-24.19215202331543 8.020092010498047,-23.484838485717773 24.407093048095703,-16.86783790588379 C49.465091705322266,-6.747838497161865 45.88791275024414,10.409780502319336 39.118736267089844,18.580703735351562 C32.29569625854492,26.805278778076172 13.687325477600098,28.982650756835938 -15.224674224853516,24.163650512695312 C-44.13767623901367,19.34465217590332 -51.62267303466797,6.942461967468262 -50.4188346862793,-2.9074180126190186 C-49.02610397338867,-14.30624008178711 -37.69924545288086,-17.33308982849121 -28.16377830505371,-20.203304290771484z"></path></g><g opacity="1" transform="matrix(1,0,0,1,140.46800231933594,49.40700149536133)"><path fill="rgb(255,255,255)" fill-opacity="1" d=" M-20.1812744140625,-12.229357719421387 C-11.149699211120605,-15.275839805603027 6.754094123840332,-15.298884391784668 19.143815994262695,-10.784408569335938 C37.5335807800293,-4.159939289093018 35.13459777832031,9.479344367980957 29.907207489013672,14.96042537689209 C24.928144454956055,20.194616317749023 11.192519187927246,20.744165420532227 -10.097480773925781,17.658164978027344 C-31.3864803314209,14.572164535522461 -35.18228530883789,6.192718982696533 -34.27628707885742,-0.11228083819150925 C-33.566287994384766,-5.049280643463135 -26.88722038269043,-9.986503601074219 -20.1812744140625,-12.229357719421387z"></path></g><g opacity="1" transform="matrix(1.1100000143051147,0,0,1.1100000143051147,-16.158340454101562,-5.633762359619141)"><g opacity="1" transform="matrix(1,0,0,1,143.16299438476562,51.215999603271484)"><path fill="rgb(40,23,61)" fill-opacity="1" d=" M9.592000007629395,0 C9.592000007629395,5.296999931335449 5.296999931335449,9.592000007629395 -0.0010000000474974513,9.592000007629395 C-5.297999858856201,9.592000007629395 -9.592000007629395,5.296999931335449 -9.592000007629395,0 C-9.592000007629395,-5.296999931335449 -5.297999858856201,-9.592000007629395 -0.0010000000474974513,-9.592000007629395 C5.296999931335449,-9.592000007629395 9.592000007629395,-5.296999931335449 9.592000007629395,0z"></path></g><g opacity="1" transform="matrix(1,0,0,1,153.42100524902344,47.1870002746582)"><path fill="rgb(255,255,255)" fill-opacity="1" d=" M6.796000003814697,0 C6.796000003814697,2.683000087738037 3.753000020980835,4.857999801635742 0,4.857999801635742 C-3.753000020980835,4.857999801635742 -6.796000003814697,2.683000087738037 -6.796000003814697,0 C-6.796000003814697,-2.683000087738037 -3.753000020980835,-4.857999801635742 0,-4.857999801635742 C3.753000020980835,-4.857999801635742 6.796000003814697,-2.683000087738037 6.796000003814697,0z"></path></g></g><g opacity="1" transform="matrix(1,0,0,1,127.66100311279297,83.09100341796875)"><path stroke-linecap="round" stroke-linejoin="round" fill-opacity="0" stroke="rgb(224,149,99)" stroke-opacity="0.74" stroke-width="9" d=" M-33.81490707397461,-7.127171039581299 C-33.81490707397461,-7.127171039581299 -22.842430114746094,2.6300208568573 -0.45254042744636536,6.187963008880615 C21.9666805267334,9.750129699707031 33.95446014404297,5.358413219451904 33.95446014404297,5.358413219451904"></path></g></g><g opacity="1" transform="matrix(1,0,0,1,44.56700134277344,66.83499908447266)"><path stroke-linecap="round" stroke-linejoin="round" fill-opacity="0" stroke="rgb(224,149,99)" stroke-opacity="0.73" stroke-width="9" d=" M-18.556533813476562,6.0537333488464355 C-18.556533813476562,6.0537333488464355 2.571000099182129,-1.531999945640564 10.744000434875488,-2.621999979019165 C18.917999267578125,-3.7109999656677246 30.1915340423584,-4.99726676940918 30.1915340423584,-4.99726676940918"></path></g></g><g style="display: block;" transform="matrix(1.033765435218811,-0.03097572736442089,0.02970375306904316,0.9913151264190674,150.41517639160156,162.1491241455078)" opacity="1"><g opacity="1" transform="matrix(1,0,0,1,209.17599487304688,164.48800659179688)"><path stroke-linecap="round" stroke-linejoin="round" fill-opacity="0" stroke="rgb(224,149,99)" stroke-opacity="0.86" stroke-width="9" d=" M-14.711000442504883,-22.06800079345703 C-14.711000442504883,-22.06800079345703 -5.99399995803833,-17.163999557495117 2.7239999771118164,-4.086999893188477 C11.442000389099121,8.989999771118164 14.711000442504883,22.06800079345703 14.711000442504883,22.06800079345703"></path></g><g opacity="1" transform="matrix(1,0,0,1,80.11900329589844,176.47500610351562)"><path stroke-linecap="round" stroke-linejoin="round" fill-opacity="0" stroke="rgb(224,149,99)" stroke-opacity="0.89" stroke-width="9" d=" M16.812000274658203,-28.33300018310547 C16.812000274658203,-28.33300018310547 -4.438000202178955,-20.15999984741211 -10.97700023651123,-2.178999900817871 C-16.812000274658203,13.866999626159668 -10.97700023651123,28.333999633789062 -10.97700023651123,28.333999633789062"></path></g><g opacity="1" transform="matrix(1,0,0,1,66.14600372314453,123.25)"><path stroke-linecap="round" stroke-linejoin="round" fill-opacity="0" stroke="rgb(224,149,99)" stroke-opacity="0.81" stroke-width="10.221" d=" M-40.59400177001953,29.79599952697754 C-40.59400177001953,29.79599952697754 -38.76300048828125,7.841000080108643 -13.734999656677246,-10.977999687194824 C11.291999816894531,-29.79599952697754 40.59400177001953,-22.895999908447266 40.59400177001953,-22.895999908447266"></path></g><g opacity="1" transform="matrix(1,0,0,1,82.13099670410156,121.10099792480469)"><path stroke-linecap="round" stroke-linejoin="round" fill-opacity="0" stroke="rgb(224,149,99)" stroke-opacity="0.81" stroke-width="11.416" d=" M-10.630000114440918,9.010000228881836 C-10.630000114440918,9.010000228881836 -8.746000289916992,2.450000047683716 -1.4559999704360962,-3.2799999713897705 C5.833000183105469,-9.010000228881836 10.630000114440918,-8.979000091552734 10.630000114440918,-8.979000091552734"></path></g><g opacity="1" transform="matrix(1,0,0,1,219.25599670410156,125.52999877929688)"><path stroke-linecap="round" stroke-linejoin="round" fill-opacity="0" stroke="rgb(224,149,99)" stroke-opacity="0.8200000000000001" stroke-width="9" d=" M-22.066999435424805,-23.70199966430664 C-22.066999435424805,-23.70199966430664 -1.3630000352859497,-16.618999481201172 7.900000095367432,-8.989999771118164 C21.365999221801758,2.0989999771118164 22.066999435424805,23.70199966430664 22.066999435424805,23.70199966430664"></path></g><g opacity="1" transform="matrix(1,0,0,1,0,0)"><path fill="rgb(228,152,101)" fill-opacity="0.66" d=" M96.54656982421875,117.9557876586914 C96.54656982421875,117.9557876586914 87.40228271484375,116.96035766601562 89.36028289794922,123.65535736083984 C91.31828308105469,130.35035705566406 96.82571411132812,136.7316436767578 101.92664337158203,141.70343017578125 C108.93106842041016,148.445068359375 127.71278381347656,165.34329223632812 143.6307830810547,165.20928955078125 C194.0487823486328,164.78428649902344 190.0619354248047,133.81314086914062 190.0619354248047,133.81314086914062 C190.0619354248047,133.81314086914062 173.037353515625,143.37457275390625 153.56964111328125,138.86050415039062 C135.36514282226562,134.72293090820312 120.62735748291016,127.22200012207031 115.07535552978516,123.05000305175781 C109.52335357666016,118.87799835205078 96.54656982421875,117.9557876586914 96.54656982421875,117.9557876586914z"></path></g><g opacity="1" transform="matrix(0.9999863505363464,-0.005228203255683184,0.005228203255683184,0.9999863505363464,0.440643310546875,0.6300811767578125)"><g opacity="1" transform="matrix(1,0,0,1,159.41000366210938,94.1989974975586)"><path stroke-linecap="round" stroke-linejoin="round" fill-opacity="0" stroke="rgb(224,149,99)" stroke-opacity="0.8" stroke-width="9.922" d=" M-13.885250091552734,0.3005000054836273 C-13.885250091552734,0.3005000054836273 -5.362500190734863,-1.1632499694824219 2.940000057220459,-0.2877500057220459 C11.801250457763672,0.7555000185966492 15.494750022888184,2.132499933242798 15.494750022888184,2.132499933242798"></path></g><g opacity="1" transform="matrix(1,0,0,1,142.6179962158203,89.56800079345703)"><path stroke-linecap="round" stroke-linejoin="round" fill-opacity="0" stroke="rgb(181,95,48)" stroke-opacity="1" stroke-width="10" d=" M29.149436950683594,-63.568748474121094 C29.149436950683594,-63.568748474121094 42.14556121826172,-53.959999084472656 41.05556106567383,-38.70399856567383 C39.9665641784668,-23.44700050354004 36.76850128173828,-20.50287437438965 36.21056365966797,-9.231062889099121 C35.502750396728516,3.2709999084472656 39.08274841308594,12.258312225341797 41.8077507019043,17.162311553955078 C44.5317497253418,22.066312789916992 54.666812896728516,36.46881103515625 52.10881423950195,45.63481140136719 C48.839813232421875,57.34981155395508 34.94087600708008,65.44612121582031 10.693875312805176,64.62812805175781 C-8.374124526977539,63.98612594604492 -24.981311798095703,53.125 -26.615312576293945,48.76599884033203 C-28.25031280517578,44.40700149536133 -27.70599937438965,42.22800064086914 -30.43000030517578,41.68299865722656 C-33.154998779296875,41.13800048828125 -51.99156188964844,46.17387390136719 -53.08156204223633,33.641876220703125 C-54.170562744140625,21.109874725341797 -33.94712448120117,11.189062118530273 -33.94712448120117,11.189062118530273"></path></g></g></g><g style="display: block;" transform="matrix(1.033765435218811,-0.03097572736442089,0.02970375306904316,0.9913151264190674,144.9103546142578,135.31776428222656)" opacity="1"><g opacity="1" transform="matrix(1,0,0,1,76.97000122070312,33.02199935913086)"><path fill="rgb(68,36,25)" fill-opacity="1" d=" M-53.48400115966797,-16.187000274658203 C-55.13600158691406,-16.66699981689453 -62.89099884033203,-14.038000106811523 -55.974998474121094,-7.590000152587891 C-51.14400100708008,-3.0859999656677246 10.696999549865723,11.753999710083008 32.82899856567383,14.210000038146973 C54.959999084472656,16.666000366210938 62.89099884033203,10.321000099182129 62.89099884033203,2.9519999027252197 C62.89099884033203,-0.35499998927116394 57.72600173950195,-0.11800000071525574 34.487998962402344,-1.9609999656677246 C11.25,-3.802999973297119 -5.625999927520752,-6.668000221252441 -17.79800033569336,-8.510000228881836 C-23.52199935913086,-9.37600040435791 -41.8650016784668,-12.8100004196167 -53.48400115966797,-16.187000274658203z"></path><path stroke-linecap="round" stroke-linejoin="round" fill-opacity="0" stroke="rgb(63,30,17)" stroke-opacity="1" stroke-width="5.632" d=" M-53.48400115966797,-16.187000274658203 C-55.13600158691406,-16.66699981689453 -62.89099884033203,-14.038000106811523 -55.974998474121094,-7.590000152587891 C-51.14400100708008,-3.0859999656677246 10.696999549865723,11.753999710083008 32.82899856567383,14.210000038146973 C54.959999084472656,16.666000366210938 62.89099884033203,10.321000099182129 62.89099884033203,2.9519999027252197 C62.89099884033203,-0.35499998927116394 57.72600173950195,-0.11800000071525574 34.487998962402344,-1.9609999656677246 C11.25,-3.802999973297119 -5.625999927520752,-6.668000221252441 -17.79800033569336,-8.510000228881836 C-23.52199935913086,-9.37600040435791 -41.8650016784668,-12.8100004196167 -53.48400115966797,-16.187000274658203z"></path></g><g opacity="1" transform="matrix(1,0,0,1,233.10499572753906,29.023000717163086)"><path fill="rgb(68,36,25)" fill-opacity="1" d=" M45.597999572753906,-16.20800018310547 C46.9900016784668,-16.72100067138672 53.46900177001953,-16.150999069213867 48.124000549316406,-10.086999893188477 C44.301998138427734,-5.75 0.08699999749660492,10.01099967956543 -18.777999877929688,13.366000175476074 C-37.643001556396484,16.72100067138672 -52.88100051879883,14.079999923706055 -53.2869987487793,7.553999900817871 C-53.46900177001953,4.625 -50.391998291015625,4.49399995803833 -30.542999267578125,1.6230000257492065 C-10.694000244140625,-1.246999979019165 4.76200008392334,-5.75600004196167 15.111000061035156,-8.03600025177002 C19.976999282836914,-9.109000205993652 35.808998107910156,-12.597000122070312 45.597999572753906,-16.20800018310547z"></path><path stroke-linecap="round" stroke-linejoin="round" fill-opacity="0" stroke="rgb(63,30,17)" stroke-opacity="1" stroke-width="4.921" d=" M45.597999572753906,-16.20800018310547 C46.9900016784668,-16.72100067138672 53.46900177001953,-16.150999069213867 48.124000549316406,-10.086999893188477 C44.301998138427734,-5.75 0.08699999749660492,10.01099967956543 -18.777999877929688,13.366000175476074 C-37.643001556396484,16.72100067138672 -52.88100051879883,14.079999923706055 -53.2869987487793,7.553999900817871 C-53.46900177001953,4.625 -50.391998291015625,4.49399995803833 -30.542999267578125,1.6230000257492065 C-10.694000244140625,-1.246999979019165 4.76200008392334,-5.75600004196167 15.111000061035156,-8.03600025177002 C19.976999282836914,-9.109000205993652 35.808998107910156,-12.597000122070312 45.597999572753906,-16.20800018310547z"></path></g></g><g style="display: block;" transform="matrix(1.044260025024414,0,0,1.044260025024414,85.78712463378906,359.8683166503906)" opacity="1"><g opacity="1" transform="matrix(1,0,-0.1606922447681427,0.8266899585723877,9.77056884765625,10.537769317626953)"><g opacity="1" transform="matrix(1,0,0,1,194.98300170898438,64.88999938964844)"><path fill="rgb(11,17,35)" fill-opacity="0.87" d=" M-7.343999862670898,-37.742000579833984 C16.517000198364258,-39.893001556396484 41.72100067138672,-34.827999114990234 52.67399978637695,-26.80900001525879 C63.625999450683594,-18.790000915527344 63.51900100708008,-2.7179999351501465 61.95399856567383,13.319999694824219 C60.388999938964844,29.357999801635742 47.52799987792969,42.76599884033203 9.583999633789062,42.76599884033203 C-28.358999252319336,42.76599884033203 -47.525001525878906,32.70399856567383 -55.12799835205078,20.886999130249023 C-65.61000061035156,4.59499979019165 -52.915000915527344,-16.51099967956543 -50.176998138427734,-20.81399917602539 C-47.43899917602539,-25.117000579833984 -31.204999923706055,-35.590999603271484 -7.343999862670898,-37.742000579833984z"></path><path stroke-linecap="round" stroke-linejoin="round" fill-opacity="0" stroke="rgb(18,12,35)" stroke-opacity="1" stroke-width="9" d=" M-7.343999862670898,-37.742000579833984 C16.517000198364258,-39.893001556396484 41.72100067138672,-34.827999114990234 52.67399978637695,-26.80900001525879 C63.625999450683594,-18.790000915527344 63.51900100708008,-2.7179999351501465 61.95399856567383,13.319999694824219 C60.388999938964844,29.357999801635742 47.52799987792969,42.76599884033203 9.583999633789062,42.76599884033203 C-28.358999252319336,42.76599884033203 -47.525001525878906,32.70399856567383 -55.12799835205078,20.886999130249023 C-65.61000061035156,4.59499979019165 -52.915000915527344,-16.51099967956543 -50.176998138427734,-20.81399917602539 C-47.43899917602539,-25.117000579833984 -31.204999923706055,-35.590999603271484 -7.343999862670898,-37.742000579833984z"></path></g><g opacity="1" transform="matrix(1,0,0,1,343.7250061035156,64.74099731445312)"><path fill="rgb(11,17,35)" fill-opacity="0.86" d=" M-57.17399978637695,-13.440999984741211 C-57.17399978637695,-13.440999984741211 -47.39799880981445,-43.391998291015625 -14.777000427246094,-45.117000579833984 C17.843000411987305,-46.84199905395508 46.30699920654297,-30.878999710083008 54.47999954223633,-10.494999885559082 C61.22600173950195,6.329999923706055 58.5369987487793,34.42100143432617 22.18600082397461,40.63100051879883 C-14.166000366210938,46.84199905395508 -38.577999114990234,28.62299919128418 -51.768001556396484,14.99899959564209 C-61.22700119018555,5.230000019073486 -57.17399978637695,-13.440999984741211 -57.17399978637695,-13.440999984741211z"></path><path stroke-linecap="round" stroke-linejoin="round" fill-opacity="0" stroke="rgb(18,12,35)" stroke-opacity="1" stroke-width="9" d=" M-57.17399978637695,-13.440999984741211 C-57.17399978637695,-13.440999984741211 -47.39799880981445,-43.391998291015625 -14.777000427246094,-45.117000579833984 C17.843000411987305,-46.84199905395508 46.30699920654297,-30.878999710083008 54.47999954223633,-10.494999885559082 C61.22600173950195,6.329999923706055 58.5369987487793,34.42100143432617 22.18600082397461,40.63100051879883 C-14.166000366210938,46.84199905395508 -38.577999114990234,28.62299919128418 -51.768001556396484,14.99899959564209 C-61.22700119018555,5.230000019073486 -57.17399978637695,-13.440999984741211 -57.17399978637695,-13.440999984741211z"></path></g><g opacity="1" transform="matrix(1,0,0,1,271.0169982910156,59.316001892089844)"><path fill="rgb(11,17,35)" fill-opacity="1" d=" M-16.576000213623047,12.029000282287598 C-16.576000213623047,12.029000282287598 15.109000205993652,12.029000282287598 15.109000205993652,12.029000282287598 C13.968000411987305,3.944999933242798 16.281999588012695,-11.440999984741211 16.281999588012695,-11.440999984741211 C16.281999588012695,-11.440999984741211 11.588000297546387,-5.281000137329102 8.361000061035156,-4.98799991607666 C5.133999824523926,-4.695000171661377 -6.894999980926514,-4.695000171661377 -8.067999839782715,-4.98799991607666 C-9.241999626159668,-5.281000137329102 -15.98900032043457,-12.029000282287598 -15.98900032043457,-12.029000282287598 C-15.98900032043457,-12.029000282287598 -14.135000228881836,0.3880000114440918 -14.135000228881836,0.3880000114440918 C-14.135000228881836,0.3880000114440918 -16.576000213623047,12.029000282287598 -16.576000213623047,12.029000282287598z"></path><path stroke-linecap="round" stroke-linejoin="round" fill-opacity="0" stroke="rgb(18,12,35)" stroke-opacity="1" stroke-width="4.307" d=" M-16.576000213623047,12.029000282287598 C-16.576000213623047,12.029000282287598 15.109000205993652,12.029000282287598 15.109000205993652,12.029000282287598 C13.968000411987305,3.944999933242798 16.281999588012695,-11.440999984741211 16.281999588012695,-11.440999984741211 C16.281999588012695,-11.440999984741211 11.588000297546387,-5.281000137329102 8.361000061035156,-4.98799991607666 C5.133999824523926,-4.695000171661377 -6.894999980926514,-4.695000171661377 -8.067999839782715,-4.98799991607666 C-9.241999626159668,-5.281000137329102 -15.98900032043457,-12.029000282287598 -15.98900032043457,-12.029000282287598 C-15.98900032043457,-12.029000282287598 -14.135000228881836,0.3880000114440918 -14.135000228881836,0.3880000114440918 C-14.135000228881836,0.3880000114440918 -16.576000213623047,12.029000282287598 -16.576000213623047,12.029000282287598z"></path></g><g opacity="1" transform="matrix(1,0,0,1,84.875,35.38100051879883)"><path fill="rgb(11,17,35)" fill-opacity="1" d=" M71.04499816894531,1.190999984741211 C71.04499816894531,1.190999984741211 52.80799865722656,-2.4089999198913574 9.217000007629395,-14.395999908447266 C-30.729000091552734,-25.381000518798828 -46.36000061035156,-22.02400016784668 -58.891998291015625,-14.395999908447266 C-71.42400360107422,-6.76800012588501 -74.875,9.21500015258789 -70.60700225830078,15.027000427246094 C-64.08200073242188,23.91200065612793 -49.08399963378906,25.381000518798828 -43.090999603271484,17.479999542236328 C-37.09700012207031,9.579999923706055 -39.82099914550781,2.494999885559082 -40.09400177001953,-3.2260000705718994 C-40.36600112915039,-8.946999549865723 -37.09700012207031,-12.21500015258789 -24.565000534057617,-11.39799976348877 C-12.032999992370605,-10.581000328063965 21.64699935913086,-3.815999984741211 38.36800003051758,3.5850000381469727 C54.98699951171875,10.940999984741211 56.81999969482422,16.18400001525879 56.81999969482422,16.18400001525879 C56.81999969482422,16.18400001525879 63.14400100708008,7.514999866485596 63.14400100708008,7.514999866485596 C63.14400100708008,7.514999866485596 71.04499816894531,1.190999984741211 71.04499816894531,1.190999984741211z"></path><path stroke-linecap="round" stroke-linejoin="round" fill-opacity="0" stroke="rgb(18,12,35)" stroke-opacity="1" stroke-width="4" d=" M71.04499816894531,1.190999984741211 C71.04499816894531,1.190999984741211 52.80799865722656,-2.4089999198913574 9.217000007629395,-14.395999908447266 C-30.729000091552734,-25.381000518798828 -46.36000061035156,-22.02400016784668 -58.891998291015625,-14.395999908447266 C-71.42400360107422,-6.76800012588501 -74.875,9.21500015258789 -70.60700225830078,15.027000427246094 C-64.08200073242188,23.91200065612793 -49.08399963378906,25.381000518798828 -43.090999603271484,17.479999542236328 C-37.09700012207031,9.579999923706055 -39.82099914550781,2.494999885559082 -40.09400177001953,-3.2260000705718994 C-40.36600112915039,-8.946999549865723 -37.09700012207031,-12.21500015258789 -24.565000534057617,-11.39799976348877 C-12.032999992370605,-10.581000328063965 21.64699935913086,-3.815999984741211 38.36800003051758,3.5850000381469727 C54.98699951171875,10.940999984741211 56.81999969482422,16.18400001525879 56.81999969482422,16.18400001525879 C56.81999969482422,16.18400001525879 63.14400100708008,7.514999866485596 63.14400100708008,7.514999866485596 C63.14400100708008,7.514999866485596 71.04499816894531,1.190999984741211 71.04499816894531,1.190999984741211z"></path></g><g opacity="0.6" transform="matrix(1,0,0,1,344.0589904785156,63.88399887084961)"><path fill="url(#__lottie_element_50)" mask="url(#__lottie_element_52)" fill-opacity="1" d="M0 0 M-32.11800003051758,19.16200065612793 C-32.11800003051758,19.16200065612793 0.46299999952316284,-3.3989999294281006 6.395999908447266,-8.60200023651123 C14.543000221252441,-15.746000289916992 22.351999282836914,-26.75 27.363000869750977,-25.388999938964844 C36.99800109863281,-22.770999908447266 24.906999588012695,-9.243000030517578 18.858999252319336,-1.7680000066757202 C12.425000190734863,6.182000160217285 -15.973999977111816,29.650999069213867 -15.973999977111816,29.650999069213867 C-15.973999977111816,29.650999069213867 -17.597000122070312,30.093000411987305 -26.523000717163086,24.590999603271484 C-32.138999938964844,21.128999710083008 -32.11800003051758,19.16200065612793 -32.11800003051758,19.16200065612793z"></path></g><g opacity="0.6" transform="matrix(1,0,0,1,192.6479949951172,66.78700256347656)"><path fill="url(#__lottie_element_53)" mask="url(#__lottie_element_55)" fill-opacity="1" d="M0 0 M-36.04100036621094,23.29400062561035 C-36.04100036621094,23.29400062561035 -13.76099967956543,11.97599983215332 2.0420000553131104,1.0479999780654907 C17.8439998626709,-9.878999710083008 24.43400001525879,-19.408000946044922 29.79400062561035,-22.618000030517578 C37.67399978637695,-27.336999893188477 43.04800033569336,-29.65399932861328 38.512001037597656,-18.959999084472656 C33.92599868774414,-8.14799976348877 8.371999740600586,13.467000007629395 -1.378999948501587,20.191999435424805 C-11.128999710083008,26.916000366210938 -18.82900047302246,30.93199920654297 -18.82900047302246,30.93199920654297 C-18.82900047302246,30.93199920654297 -23.540000915527344,30.632999420166016 -31.437000274658203,26.729000091552734 C-35.840999603271484,24.552000045776367 -34.69599914550781,24.80699920654297 -36.04100036621094,23.29400062561035z"></path></g></g></g><g style="display: block;" transform="matrix(1,0,0,1,67.62535095214844,345.85528564453125)" opacity="1"><g opacity="1" transform="matrix(1,0,0,1,62.41699981689453,69.34700012207031)"><path fill="rgb(242,175,129)" fill-opacity="1" d=" M-20.149999618530273,30.715999603271484 C-20.149999618530273,30.715999603271484 -23.141000747680664,6.6529998779296875 -15.166000366210938,-6.216000080108643 C-7.191999912261963,-19.083999633789062 -1.8359999656677246,-29.114999771118164 8.76200008392334,-31.375999450683594 C19.360000610351562,-33.63600158691406 23.141000747680664,-25.54199981689453 20.732999801635742,-23.788999557495117 C18.323999404907227,-22.03700065612793 8.083000183105469,-5.958000183105469 7.202000141143799,-0.1679999977350235 C6.320000171661377,5.623000144958496 3.124000072479248,16.43899917602539 3.124000072479248,16.43899917602539 C3.124000072479248,16.43899917602539 -6.056000232696533,33.637001037597656 -6.056000232696533,33.637001037597656 C-6.056000232696533,33.637001037597656 -20.149999618530273,30.715999603271484 -20.149999618530273,30.715999603271484z"></path><path stroke-linecap="butt" stroke-linejoin="miter" fill-opacity="0" stroke-miterlimit="10" stroke="rgb(181,95,48)" stroke-opacity="1" stroke-width="11" d=" M-20.149999618530273,30.715999603271484 C-20.149999618530273,30.715999603271484 -23.141000747680664,6.6529998779296875 -15.166000366210938,-6.216000080108643 C-7.191999912261963,-19.083999633789062 -1.8359999656677246,-29.114999771118164 8.76200008392334,-31.375999450683594 C19.360000610351562,-33.63600158691406 23.141000747680664,-25.54199981689453 20.732999801635742,-23.788999557495117 C18.323999404907227,-22.03700065612793 8.083000183105469,-5.958000183105469 7.202000141143799,-0.1679999977350235 C6.320000171661377,5.623000144958496 3.124000072479248,16.43899917602539 3.124000072479248,16.43899917602539 C3.124000072479248,16.43899917602539 -6.056000232696533,33.637001037597656 -6.056000232696533,33.637001037597656 C-6.056000232696533,33.637001037597656 -20.149999618530273,30.715999603271484 -20.149999618530273,30.715999603271484z"></path></g><g opacity="1" transform="matrix(1,0,0,1,93.1709976196289,83.70500183105469)"><path fill="rgb(247,206,172)" fill-opacity="1" d=" M-68.1719970703125,24.542999267578125 C-68.1719970703125,24.542999267578125 -61.6150016784668,10.548999786376953 -51.402000427246094,-4.557000160217285 C-44.1619987487793,-15.267000198364258 -35.08300018310547,-26.53499984741211 -25.201000213623047,-33.775001525878906 C-19.73200035095215,-37.78200149536133 -6.269999980926514,-46.41299819946289 -0.9800000190734863,-48.46500015258789 C17.3799991607666,-55.5880012512207 33.7869987487793,-58.70500183105469 37.303001403808594,-51.137001037597656 C40.75199890136719,-43.7140007019043 23.820999145507812,-41.262001037597656 12.302000045776367,-31.9950008392334 C4.150000095367432,-25.437000274658203 -2.5429999828338623,-14.633000373840332 -2.5429999828338623,-14.633000373840332 C-2.5429999828338623,-14.633000373840332 -5.2769999504089355,-11.961999893188477 -1.3700000047683716,-12.85200023651123 C0.9430000185966492,-13.380000114440918 4.599999904632568,-20.46299934387207 18.16200065612793,-30.214000701904297 C27.506999969482422,-36.93299865722656 46.888999938964844,-43.28799819946289 52.14799880981445,-44.013999938964844 C65.03900146484375,-45.79499816894531 68.16400146484375,-38.22700119018555 64.25800323486328,-32.8849983215332 C62.4379997253418,-30.395999908447266 46.00299835205078,-22.915000915527344 37.303001403808594,-16.858999252319336 C27.329999923706055,-9.916999816894531 18.94300079345703,-4.39300012588501 21.677000045776367,0.05900000035762787 C23.382999420166016,2.8359999656677246 32.07500076293945,-6.946000099182129 42.38199996948242,-9.736000061035156 C55.319000244140625,-13.23799991607666 66.98300170898438,-12.635000228881836 67.77400207519531,-2.61299991607666 C68.1709976196289,2.4119999408721924 57.27000045776367,3.86899995803833 45.117000579833984,10.743000030517578 C38.54499816894531,14.460000038146973 29.750999450683594,23.488000869750977 27.145999908447266,26.768999099731445 C19.724000930786133,36.117000579833984 8.78600025177002,54.814998626708984 8.78600025177002,54.814998626708984 C8.78600025177002,54.814998626708984 -15.411999702453613,64.87100219726562 -43.106998443603516,57.5890007019043 C-70.18399810791016,50.470001220703125 -68.1719970703125,24.542999267578125 -68.1719970703125,24.542999267578125z"></path></g><g opacity="1" transform="matrix(1,0,0,1,93.1709976196289,81.76000213623047)"><path stroke-linecap="round" stroke-linejoin="round" fill-opacity="0" stroke="rgb(181,95,48)" stroke-opacity="1" stroke-width="10" d=" M-68.1719970703125,26.488000869750977 C-68.1719970703125,26.488000869750977 -61.6150016784668,12.494000434875488 -51.402000427246094,-2.611999988555908 C-44.1619987487793,-13.321999549865723 -35.08300018310547,-24.59000015258789 -25.201000213623047,-31.829999923706055 C-19.73200035095215,-35.83700180053711 -6.269999980926514,-44.46900177001953 -0.9800000190734863,-46.520999908447266 C17.3799991607666,-53.64400100708008 33.7869987487793,-56.7599983215332 37.303001403808594,-49.19200134277344 C40.75199890136719,-41.76900100708008 23.82200050354004,-39.31700134277344 12.303000450134277,-30.049999237060547 C4.151000022888184,-23.492000579833984 -2.5429999828338623,-12.687999725341797 -2.5429999828338623,-12.687999725341797 C-2.5429999828338623,-12.687999725341797 -5.2769999504089355,-10.017000198364258 -1.3700000047683716,-10.906999588012695 C0.9430000185966492,-11.4350004196167 4.599999904632568,-18.51799964904785 18.16200065612793,-28.268999099731445 C27.506999969482422,-34.987998962402344 46.888999938964844,-41.34299850463867 52.14799880981445,-42.069000244140625 C65.03900146484375,-43.849998474121094 68.16400146484375,-36.28200149536133 64.25800323486328,-30.940000534057617 C62.4379997253418,-28.451000213623047 46.00299835205078,-20.969999313354492 37.303001403808594,-14.913999557495117 C27.329999923706055,-7.9720001220703125 18.94300079345703,-2.447999954223633 21.677000045776367,2.003999948501587 C23.382999420166016,4.781000137329102 31.575000762939453,-3.000999927520752 41.88199996948242,-5.790999889373779 C54.819000244140625,-9.293000221252441 68.98300170898438,-6.190000057220459 69.77400207519531,3.8320000171661377 C70.1709976196289,8.857000350952148 55.0890007019043,8.815999984741211 42.617000579833984,14.687999725341797 C35.7859992980957,17.90399932861328 24.250999450683594,29.933000564575195 21.645999908447266,33.2140007019043 C14.223999977111816,42.5620002746582 8.78600025177002,56.7599983215332 8.78600025177002,56.7599983215332"></path></g></g></g><g clip-path="url(#__lottie_element_4)" style="display: none;"><g style="display: none;"><g><path></path><path stroke-linecap="butt" stroke-linejoin="miter" fill-opacity="0" stroke-miterlimit="10"></path></g><g><path fill="url(#__lottie_element_28)" mask="url(#__lottie_element_30)"></path></g><g><g><path stroke-linecap="round" stroke-linejoin="round" fill-opacity="0"></path></g><g><path stroke-linecap="round" stroke-linejoin="round" fill-opacity="0"></path></g></g><g><path stroke-linecap="round" stroke-linejoin="round" fill-opacity="0"></path></g></g><g style="display: none;"><g><g><path stroke-linecap="round" stroke-linejoin="round" fill-opacity="0"></path></g><g><path stroke-linecap="round" stroke-linejoin="round" fill-opacity="0"></path></g></g></g><g style="display: none;"><g><path></path></g><g><g><path></path><path stroke-linecap="butt" stroke-linejoin="miter" fill-opacity="0" stroke-miterlimit="10"></path></g><g><path></path></g><g><g><path></path></g><g><path></path></g></g><g><path stroke-linecap="round" stroke-linejoin="round" fill-opacity="0"></path></g></g><g><path></path></g><g><g><path></path><path stroke-linecap="butt" stroke-linejoin="miter" fill-opacity="0" stroke-miterlimit="10"></path></g><g><path></path></g><g><g><path></path></g><g><path></path></g></g><g><path stroke-linecap="round" stroke-linejoin="round" fill-opacity="0"></path></g></g><g><path stroke-linecap="round" stroke-linejoin="round" fill-opacity="0"></path></g></g><g style="display: none;"><g><path stroke-linecap="round" stroke-linejoin="round" fill-opacity="0"></path></g><g><path stroke-linecap="round" stroke-linejoin="round" fill-opacity="0"></path></g><g><path stroke-linecap="round" stroke-linejoin="round" fill-opacity="0"></path></g><g><path stroke-linecap="round" stroke-linejoin="round" fill-opacity="0"></path></g><g><path stroke-linecap="round" stroke-linejoin="round" fill-opacity="0"></path></g><g><path></path></g><g><g><path stroke-linecap="round" stroke-linejoin="round" fill-opacity="0"></path></g><g><path stroke-linecap="round" stroke-linejoin="round" fill-opacity="0"></path></g></g></g><g style="display: none;"><g><path></path><path stroke-linecap="round" stroke-linejoin="round" fill-opacity="0"></path></g><g><path></path><path stroke-linecap="round" stroke-linejoin="round" fill-opacity="0"></path></g></g><g style="display: none;"><g><g><path></path><path stroke-linecap="round" stroke-linejoin="round" fill-opacity="0"></path></g><g><path></path><path stroke-linecap="round" stroke-linejoin="round" fill-opacity="0"></path></g><g><path></path><path stroke-linecap="round" stroke-linejoin="round" fill-opacity="0"></path></g><g><path></path><path stroke-linecap="round" stroke-linejoin="round" fill-opacity="0"></path></g><g><path fill="url(#__lottie_element_14)" mask="url(#__lottie_element_16)"></path></g><g><path fill="url(#__lottie_element_17)" mask="url(#__lottie_element_19)"></path></g></g></g><g style="display: none;"><g><path></path><path stroke-linecap="butt" stroke-linejoin="miter" fill-opacity="0" stroke-miterlimit="10"></path></g><g><path></path></g><g><path stroke-linecap="round" stroke-linejoin="round" fill-opacity="0"></path></g></g></g></g></svg>