<svg xmlns="http://www.w3.org/2000/svg" xmlns:xlink="http://www.w3.org/1999/xlink" viewBox="0 0 512 512" width="512" height="512" style="width: 100%; height: 100%; transform: translate3d(0,0,0); content-visibility: visible;" preserveAspectRatio="xMidYMid meet"><defs><clipPath id="__lottie_element_2"><rect width="512" height="512" x="0" y="0"></rect></clipPath><clipPath id="__lottie_element_4"><path d="M0,0 L512,0 L512,512 L0,512z"></path></clipPath><radialGradient id="__lottie_element_13" spreadMethod="pad" gradientUnits="userSpaceOnUse"><stop></stop><stop></stop><stop></stop></radialGradient><linearGradient id="__lottie_element_29" spreadMethod="pad" gradientUnits="userSpaceOnUse"><stop></stop><stop></stop><stop></stop></linearGradient><clipPath id="__lottie_element_50"><path d="M0,0 L512,0 L512,512 L0,512z"></path></clipPath><radialGradient id="__lottie_element_59" spreadMethod="pad" gradientUnits="userSpaceOnUse" cx="-104.44100189208984" cy="-108.36199951171875" r="277.41941977137895" fx="-104.44100189208984" fy="-108.36199951171875"><stop offset="0%" stop-color="rgb(249,223,201)"></stop><stop offset="50%" stop-color="rgb(249,202,171)"></stop><stop offset="100%" stop-color="rgb(250,181,140)"></stop></radialGradient><linearGradient id="__lottie_element_75" spreadMethod="pad" gradientUnits="userSpaceOnUse" x1="72.6449966430664" y1="-30.819000244140625" x2="-67.5250015258789" y2="45.612998962402344"><stop offset="0%" stop-color="rgb(250,181,140)"></stop><stop offset="47%" stop-color="rgb(252,188,150)"></stop><stop offset="100%" stop-color="rgb(255,195,161)"></stop></linearGradient></defs><g clip-path="url(#__lottie_element_2)"><g clip-path="url(#__lottie_element_50)" style="display: block;" transform="matrix(1,0,0,1,0,0)" opacity="1"><g style="display: block;" transform="matrix(1.018354058265686,0.018930356949567795,-0.018666373565793037,1.0041531324386597,-13.382116317749023,87.04019165039062)" opacity="1"><g opacity="1" transform="matrix(1,0,0,1,113.33499908447266,90.7509994506836)"><path fill="rgb(232,157,128)" fill-opacity="1" d=" M88.00499725341797,25.483999252319336 C88.00499725341797,25.483999252319336 77.1729965209961,-22.545000076293945 33.40999984741211,-46.74399948120117 C23.31100082397461,-52.327999114990234 5.1020002365112305,-53.005001068115234 -7.895999908447266,-55.67100143432617 C-58.33599853515625,-66.0199966430664 -84.37999725341797,-90.5 -87.6240005493164,-57.67100143432617 C-88.00399780273438,-53.83000183105469 -84.62200164794922,-49.229000091552734 -84.29199981689453,-44.31800079345703 C-82.21700286865234,-13.416000366210938 -74.49400329589844,35.0369987487793 -39.869998931884766,59.08100128173828 C5.375999927520752,90.5009994506836 58.268001556396484,80.26699829101562 58.268001556396484,80.26699829101562 C58.268001556396484,80.26699829101562 88.00499725341797,25.483999252319336 88.00499725341797,25.483999252319336z"></path></g><g opacity="1" transform="matrix(1,0,0,1,85.34300231933594,113.54000091552734)"><path stroke-linecap="round" stroke-linejoin="round" fill-opacity="0" stroke="rgb(155,78,27)" stroke-opacity="1" stroke-width="11" d=" M-56.30099868774414,-67.10900115966797 C-56.30099868774414,-67.10900115966797 -60.448001861572266,-0.22100000083446503 -12.390999794006348,34.61800003051758 C32.42499923706055,67.10900115966797 60.448001861572266,59.96799850463867 60.448001861572266,59.96799850463867"></path></g><g opacity="1" transform="matrix(1,0,0,1,145.4459991455078,54.516998291015625)"><path stroke-linecap="round" stroke-linejoin="round" fill-opacity="0" stroke="rgb(155,78,27)" stroke-opacity="1" stroke-width="11" d=" M33.90299987792969,22.886999130249023 C33.90299987792969,22.886999130249023 43.43199920654297,3.552999973297119 5.035999774932861,-13.897000312805176 C-14.744999885559082,-22.886999130249023 -43.43199920654297,-12.994000434875488 -43.43199920654297,-12.994000434875488"></path></g><g opacity="1" transform="matrix(1,0,0,1,82.19200134277344,111.88200378417969)"><path fill="rgb(216,130,104)" fill-opacity="1" d=" M-44.67399978637695,-55.29899978637695 C-44.67399978637695,-55.29899978637695 -22.145000457763672,-15.625 -0.6389999985694885,-1.2860000133514404 C20.867000579833984,13.053000450134277 46.362998962402344,17.898000717163086 46.362998962402344,17.898000717163086 C46.362998962402344,17.898000717163086 51.138999938964844,55.29899978637695 51.138999938964844,55.29899978637695 C51.138999938964844,55.29899978637695 1.50600004196167,47.15700149536133 -24.816999435424805,12.522000312805176 C-51.138999938964844,-22.113000869750977 -44.67399978637695,-55.29899978637695 -44.67399978637695,-55.29899978637695z"></path></g></g><g style="display: block;" transform="matrix(1.0184880495071411,0.009086794219911098,-0.008683626540005207,1.0042904615402222,-12.470447540283203,0.7662764191627502)" opacity="1"><g opacity="1" transform="matrix(1,0,0,1,102.33200073242188,77.2030029296875)"><path fill="rgb(232,157,128)" fill-opacity="1" d=" M-63.742000579833984,46.73400115966797 C-70.33399963378906,43.17100143432617 -72.66500091552734,33.89400100708008 -68.73799896240234,26.836999893188477 C-62.1349983215332,14.970999717712402 -50.53099822998047,-2.50600004196167 -33.444000244140625,-16.56800079345703 C7.505000114440918,-50.266998291015625 36.415000915527344,-55.07699966430664 54.540000915527344,-59.3489990234375 C72.66500091552734,-63.62099838256836 52.481998443603516,-33.0620002746582 52.481998443603516,-33.0620002746582 C52.481998443603516,-33.0620002746582 45.74700164794922,-2.4170000553131104 27.39900016784668,27.20800018310547 C12.378999710083008,51.459999084472656 -16.145000457763672,58.763999938964844 -16.145000457763672,58.763999938964844 C-16.145000457763672,58.763999938964844 -32.50199890136719,63.62099838256836 -32.50199890136719,63.62099838256836 C-32.50199890136719,63.62099838256836 -63.742000579833984,46.73400115966797 -63.742000579833984,46.73400115966797z"></path></g><g opacity="1" transform="matrix(1,0,0,1,89.947998046875,64.35600280761719)"><path stroke-linecap="round" stroke-linejoin="round" fill-opacity="0" stroke="rgb(155,78,27)" stroke-opacity="1" stroke-width="11" d=" M-54.05699920654297,39.46099853515625 C-54.05699920654297,39.46099853515625 -38.89400100708008,14.260000228881836 -18.41900062561035,-2.5889999866485596 C18.679000854492188,-33.119998931884766 54.05699920654297,-39.46099853515625 54.05699920654297,-39.46099853515625"></path></g><g opacity="1" transform="matrix(1,0,0,1,124.5770034790039,92.33799743652344)"><path stroke-linecap="round" stroke-linejoin="round" fill-opacity="0" stroke="rgb(155,78,27)" stroke-opacity="1" stroke-width="11" d=" M26.679000854492188,-38.71699905395508 C26.679000854492188,-38.71699905395508 17.604999542236328,-2.687999963760376 5.13100004196167,12.579999923706055 C-7.668000221252441,28.246999740600586 -26.679000854492188,38.71699905395508 -26.679000854492188,38.71699905395508"></path></g><g opacity="1" transform="matrix(1,0,0,1,29.79599952697754,117.0719985961914)"><path stroke-linecap="round" stroke-linejoin="round" fill-opacity="0" stroke="rgb(155,78,27)" stroke-opacity="1" stroke-width="9.958" d=" M4.901000022888184,-13.307999610900879 C4.901000022888184,-13.307999610900879 -1.4869999885559082,-12.460000038146973 -2.9159998893737793,-5.535999774932861 C-3.6760001182556152,-1.850000023841858 -4.901000022888184,4.564000129699707 -4.676000118255615,7.236000061035156 C-4.510000228881836,9.20300006866455 -1.2070000171661377,13.307999610900879 -1.2070000171661377,13.307999610900879"></path></g><g opacity="1" transform="matrix(1,0,0,1,111.0780029296875,88.41200256347656)"><path stroke-linecap="round" stroke-linejoin="round" fill-opacity="0" stroke="rgb(216,130,104)" stroke-opacity="1" stroke-width="10.735" d=" M18.551000595092773,-6.540999889373779 C18.551000595092773,-6.540999889373779 5.716000080108643,6.051000118255615 -18.551000595092773,6.540999889373779"></path></g></g><g style="display: block;" transform="matrix(1.0184880495071411,0.009086794219911098,-0.008683626540005207,1.0042904615402222,110.37602996826172,-12.450949668884277)" opacity="1"><g opacity="1" transform="matrix(1,0,0,1,47.70500183105469,51.8129997253418)"><path fill="rgb(232,157,128)" fill-opacity="1" d=" M-20.884000778198242,-14.60200023651123 C-20.884000778198242,-14.60200023651123 -7.5229997634887695,-24.61199951171875 0.5550000071525574,-24.761999130249023 C8.633000373840332,-24.91200065612793 10.635000228881836,-14.425000190734863 15.760000228881836,-8.619000434875488 C20.884000778198242,-2.812000036239624 15.503000259399414,12.420999526977539 7.604000091552734,18.66699981689453 C-0.29499998688697815,24.91200065612793 -19.113000869750977,9.916999816894531 -19.113000869750977,9.916999816894531 C-19.113000869750977,9.916999816894531 -20.884000778198242,-14.60200023651123 -20.884000778198242,-14.60200023651123z"></path></g><g opacity="1" transform="matrix(1,0,0,1,44.558998107910156,47.74599838256836)"><path stroke-linecap="round" stroke-linejoin="round" fill-opacity="0" stroke="rgb(155,78,27)" stroke-opacity="1" stroke-width="11" d=" M-18.698999404907227,-8.519000053405762 C-18.698999404907227,-8.519000053405762 3.9749999046325684,-22.851999282836914 10.317000389099121,-17.729999542236328 C16.659000396728516,-12.607000350952148 19.665000915527344,-1.3359999656677246 19.409000396728516,4.464000225067139 C19.152999877929688,10.263999938964844 15.597999572753906,22.711999893188477 10.75,22.732999801635742 C5.9019999504089355,22.753999710083008 -2.8610000610351562,22.85099983215332 -5.004000186920166,21.788000106811523 C-7.145999908447266,20.724000930786133 -19.665000915527344,10.22599983215332 -15.361000061035156,12.246000289916992 C-11.473999977111816,14.071000099182129 -5.7820000648498535,15.531000137329102 -3.4110000133514404,14.758000373840332 C4.438000202178955,12.199000358581543 4.333000183105469,5.4120001792907715 4.333000183105469,5.4120001792907715"></path></g></g><g style="display: block;" transform="matrix(1.018354058265686,0.018930356949567795,-0.018666373565793037,1.0041531324386597,79.23342895507812,-33.4822998046875)" opacity="1"><g opacity="1" transform="matrix(1,0,0,1,224.33999633789062,253.14100646972656)"><path fill="rgb(237,147,113)" fill-opacity="1" d=" M-146.48899841308594,-113.31800079345703 C-114.05400085449219,-164.1060028076172 -35.40399932861328,-226.2030029296875 80.13999938964844,-176.58099365234375 C148.02099609375,-147.4290008544922 192.06900024414062,-76.7239990234375 194.60299682617188,-10.00100040435791 C197.40199279785156,63.71799850463867 173.19500732421875,130.7270050048828 125.7030029296875,163.30999755859375 C34.03200149536133,226.20399475097656 -112.11399841308594,195.24600219726562 -161.86599731445312,89.48699951171875 C-197.4029998779297,13.942999839782715 -178.79600524902344,-62.73099899291992 -146.48899841308594,-113.31800079345703z"></path><path stroke-linecap="butt" stroke-linejoin="miter" fill-opacity="0" stroke-miterlimit="10" stroke="rgb(173,92,37)" stroke-opacity="1" stroke-width="12" d=" M-146.48899841308594,-113.31800079345703 C-114.05400085449219,-164.1060028076172 -35.40399932861328,-226.2030029296875 80.13999938964844,-176.58099365234375 C148.02099609375,-147.4290008544922 192.06900024414062,-76.7239990234375 194.60299682617188,-10.00100040435791 C197.40199279785156,63.71799850463867 173.19500732421875,130.7270050048828 125.7030029296875,163.30999755859375 C34.03200149536133,226.20399475097656 -112.11399841308594,195.24600219726562 -161.86599731445312,89.48699951171875 C-197.4029998779297,13.942999839782715 -178.79600524902344,-62.73099899291992 -146.48899841308594,-113.31800079345703z"></path></g><g opacity="1" transform="matrix(1,0,0,1,217.34500122070312,240.53199768066406)"><path fill="url(#__lottie_element_59)" fill-opacity="1" d=" M-131.11199951171875,-102.6050033569336 C-102.96900177001953,-146.6719970703125 -34.72700119018555,-200.55299377441406 65.52799987792969,-157.4969940185547 C124.4260025024414,-132.2030029296875 157.83900451660156,-83.83300018310547 166.76800537109375,-17.43400001525879 C175.28900146484375,45.93600082397461 145.86399841308594,117.70899963378906 104.65699768066406,145.9810028076172 C25.115999221801758,200.552001953125 -101.28600311279297,165.1280059814453 -144.45399475097656,73.36399841308594 C-175.28900146484375,7.816999912261963 -159.14300537109375,-58.71200180053711 -131.11199951171875,-102.6050033569336z"></path></g></g><g style="display: block;" transform="matrix(1.0574983358383179,0.07906018197536469,-0.07382044941186905,1.0223596096038818,123.37622833251953,211.5774688720703)" opacity="1"><g opacity="1" transform="matrix(1,0,0,1,147.39999389648438,86.8030014038086)"><path fill="rgb(219,139,114)" fill-opacity="0.63" d=" M-128.51185607910156,-68.01676940917969 C-128.51185607910156,-68.01676940917969 -93.14486694335938,-84.86677551269531 -76.26486206054688,-71.32477569580078 C-58.90586471557617,-57.398773193359375 -48.82486343383789,-29.818546295166016 -38.325862884521484,-38.728546142578125 C-22.152864456176758,-52.45454406738281 8.19590950012207,-77.65454864501953 52.83890914916992,-74.35354614257812 C118.26690673828125,-69.5145492553711 146.74713134765625,-20.10054588317871 143.74513244628906,13.32945442199707 C140.7421417236328,46.75945281982422 -4.572091102600098,85.18745422363281 -4.572091102600098,85.18745422363281 C-4.572091102600098,85.18745422363281 -114.35609436035156,89.57245635986328 -128.6180877685547,61.400455474853516 C-146.7410888671875,25.60145378112793 -128.51185607910156,-68.01676940917969 -128.51185607910156,-68.01676940917969z"></path></g></g><g style="display: block;" transform="matrix(1.0224601030349731,0.01900668442249298,-0.018666373565793037,1.0041531324386597,151.52505493164062,107.19693756103516)" opacity="1"><g opacity="1" transform="matrix(1.106429934501648,0,0,1.1115200519561768,-18.37853240966797,-10.250846862792969)"><g opacity="1" transform="matrix(1,0,0,1,121.177001953125,67.41799926757812)"><path fill="rgb(232,157,128)" fill-opacity="1" d=" M-54.06999969482422,-23.051000595092773 C-54.06999969482422,-23.051000595092773 -57.37300109863281,-32.68899917602539 -33.65399932861328,-28.59000015258789 C-9.934000015258789,-24.490999221801758 30.09000015258789,-5.771999835968018 44.334999084472656,9.434000015258789 C57.37200164794922,23.351999282836914 52.12699890136719,28.763999938964844 50.51499938964844,30.72599983215332 C48.902000427246094,32.68899917602539 36.06700134277344,20.086999893188477 30.641000747680664,16.288000106811523 C25.21500015258789,12.48799991607666 -9.769000053405762,-5.178999900817871 -18.868999481201172,-10.232999801635742 C-27.969999313354492,-15.286999702453613 -54.06999969482422,-23.051000595092773 -54.06999969482422,-23.051000595092773z"></path></g><g opacity="1" transform="matrix(1,0,0,1,115.85600280761719,70.01699829101562)"><path stroke-linecap="round" stroke-linejoin="round" fill-opacity="0" stroke="rgb(173,79,42)" stroke-opacity="1" stroke-width="12.121" d=" M61.2239990234375,29.34000015258789 C61.2239990234375,29.34000015258789 30.30699920654297,3.697000026702881 -9.951000213623047,-13.690999984741211 C-45.69900131225586,-29.1299991607666 -61.2239990234375,-29.34000015258789 -58.07400131225586,-17.402000427246094 C-54.92399978637695,-5.464000225067139 -48.064998626708984,1.9769999980926514 -48.064998626708984,1.9769999980926514"></path></g><g opacity="1" transform="matrix(1,0,0,1,198.47900390625,105.31300354003906)"><path stroke-linecap="round" stroke-linejoin="round" fill-opacity="0" stroke="rgb(211,117,70)" stroke-opacity="1" stroke-width="11.225" d=" M0.2370000034570694,-18.003000259399414 C0.2370000034570694,-18.003000259399414 9.20300006866455,-9.175999641418457 4.210000038146973,5.486000061035156 C0.6840000152587891,15.84000015258789 -9.20300006866455,18.003000259399414 -9.20300006866455,18.003000259399414"></path></g><g opacity="1" transform="matrix(1,0,0,1,34.236000061035156,42.00899887084961)"><path stroke-linecap="round" stroke-linejoin="round" fill-opacity="0" stroke="rgb(211,117,70)" stroke-opacity="1" stroke-width="11.225" d=" M6.172999858856201,-13.946999549865723 C6.172999858856201,-13.946999549865723 0.29899999499320984,-13.019000053405762 -3.5169999599456787,-0.8109999895095825 C-6.172999858856201,7.686999797821045 -3.433000087738037,13.946999549865723 -3.433000087738037,13.946999549865723"></path></g></g></g><g style="display: block;" transform="matrix(1.0574983358383179,0.07906018197536469,-0.07382044941186905,1.0223596096038818,119.33155822753906,202.06837463378906)" opacity="1"><g opacity="1" transform="matrix(1,0,0,1,202.13999938964844,145.6529998779297)"><path fill="url(#__lottie_element_75)" fill-opacity="1" d=" M102.88099670410156,-45.22136688232422 C98.1141586303711,-66.28510284423828 57.112735748291016,-99.65521240234375 -21.501211166381836,-86.33210754394531 C-70.82168579101562,-78.00452423095703 -96.03700256347656,-29.86199951171875 -101.23899841308594,-10.857000350952148 C-106.44100189208984,8.14799976348877 -139.8040008544922,29.19700050354004 -139.8040008544922,29.19700050354004 C-139.8040008544922,29.19700050354004 -141.58831787109375,71.20758056640625 -111.71615600585938,91.61231231689453 C-101.00889587402344,99.02152252197266 -43.5069465637207,106.20858001708984 -27.320947647094727,107.54557800292969 C47.82305145263672,113.75457763671875 75.22210693359375,85.26483917236328 87.16100311279297,65.93699645996094 C116.58341979980469,18.397367477416992 106.34004974365234,-29.636947631835938 102.88099670410156,-45.22136688232422z"></path></g><g opacity="1" transform="matrix(1,0,0,1,174.58700561523438,156.96200561523438)"><path stroke-linecap="round" stroke-linejoin="round" fill-opacity="0" stroke="rgb(173,92,37)" stroke-opacity="1" stroke-width="13.186" d=" M96.53680419921875,-86.8623046875 C78.00780487060547,-93.70230102539062 52.32091522216797,-106.74443817138672 5.409915924072266,-97.2724380493164 C-36.590084075927734,-88.79243469238281 -72.48400115966797,-18.562999725341797 -81.16200256347656,-4.629000186920166 C-89.83999633789062,9.305000305175781 -106.97899627685547,11.854999542236328 -112.7959976196289,14.234000205993652 C-118.61199951171875,16.613000869750977 -129.4681396484375,48.321014404296875 -122.4161376953125,59.21501541137695 C-115.3631362915039,70.10901641845703 -100.69170379638672,81.86814880371094 -100.69170379638672,81.86814880371094 C-100.69170379638672,81.86814880371094 -74.88610076904297,84.60032653808594 -57.31247329711914,87.08860778808594 C-38.889286041259766,89.69298553466797 -5.7930402755737305,98.1760482788086 20.427772521972656,98.15528869628906 C86.21214294433594,98.10211181640625 104.88986206054688,69.61907958984375 116.05855560302734,53.21654510498047 C133.36611938476562,27.484851837158203 135.09823608398438,0.6951769590377808 138.85598754882812,-11.065010070800781"></path></g><g opacity="1" transform="matrix(1,0,0,1,188.343994140625,92.66799926757812)"><path stroke-linecap="round" stroke-linejoin="round" fill-opacity="0" stroke="rgb(173,92,37)" stroke-opacity="1" stroke-width="13.186" d=" M95.63574981689453,-12.74101734161377 C95.63574981689453,-12.74101734161377 65.04833984375,-48.47231674194336 -1.3113484382629395,-40.891605377197266 C-60.61554718017578,-33.80501174926758 -82.20506286621094,21.304813385009766 -93.11975860595703,43.360897064208984 C-101.60108947753906,61.762107849121094 -109.48381805419922,64.2820053100586 -109.48381805419922,64.2820053100586"></path></g><g opacity="1" transform="matrix(1,0,0,1,186.36000061035156,86.47200012207031)"><path fill="rgb(255,249,245)" fill-opacity="1" d=" M98.1341323852539,-0.26903489232063293 C98.1341323852539,-0.26903489232063293 96.88082122802734,2.2737040519714355 91.55534362792969,1.0625638961791992 C73.2769546508789,-3.06362247467041 50.468482971191406,-19.298263549804688 -2.7993733882904053,-11.487093925476074 C-42.0268669128418,-5.507080078125 -61.52873229980469,30.799150466918945 -71.53184509277344,46.00576400756836 C-82.62987518310547,62.45339584350586 -94.10808563232422,68.39865112304688 -93.41008758544922,66.70465087890625 C-90.8670883178711,60.5296516418457 -62.84446334838867,-4.77981424331665 -15.852499008178711,-22.32801055908203 C41.21607208251953,-43.70574188232422 98.1341323852539,-0.26903489232063293 98.1341323852539,-0.26903489232063293z"></path></g><g opacity="1" transform="matrix(1,0,0,1,0,0)"><g opacity="1" transform="matrix(1,0,0,1,140.68099975585938,151.08399963378906)"><path stroke-linecap="round" stroke-linejoin="round" fill-opacity="0" stroke="rgb(226,142,116)" stroke-opacity="1" stroke-width="9.662" d=" M-20.690000534057617,-20.874000549316406 C-20.690000534057617,-20.874000549316406 -17.320999145507812,-10.809000015258789 -5.677999973297119,1.909999966621399 C5.965000152587891,14.628999710083008 20.690000534057617,20.874000549316406 20.690000534057617,20.874000549316406"></path></g><g opacity="1" transform="matrix(1,0,0,1,170.83399963378906,136.70799255371094)"><path stroke-linecap="round" stroke-linejoin="round" fill-opacity="0" stroke="rgb(226,142,116)" stroke-opacity="1" stroke-width="9.662" d=" M12.690999984741211,23.006999969482422 C12.690999984741211,23.006999969482422 -4.484000205993652,14.619999885559082 -8.815999984741211,9.09000015258789 C-12.690999984741211,4.14300012588501 -4.4120001792907715,-2.1449999809265137 -3.507999897003174,-7.456999778747559 C-2.4779999256134033,-13.513999938964844 7.0960001945495605,-23.006999969482422 7.0960001945495605,-23.006999969482422"></path></g><g opacity="1" transform="matrix(1,0,0,1,147.88099670410156,111.84700012207031)"><path stroke-linecap="round" stroke-linejoin="round" fill-opacity="0" stroke="rgb(226,142,116)" stroke-opacity="1" stroke-width="9.662" d=" M16.222999572753906,-13.25 C16.222999572753906,-13.25 11.480999946594238,-10.958000183105469 7.276000022888184,-0.6779999732971191 C5.048999786376953,4.764999866485596 -0.12399999797344208,11.354999542236328 -1.6699999570846558,11.895000457763672 C-5.544000148773193,13.25 -6.830999851226807,7.853000164031982 -9.013999938964844,5.468999862670898 C-11.196999549865723,3.0840001106262207 -16.222999572753906,-4.004000186920166 -16.222999572753906,-4.004000186920166"></path></g></g><g opacity="1" transform="matrix(0.9658399224281311,-0.2591393291950226,0.2591393291950226,0.9658399224281311,-14.446487426757812,69.18035125732422)"><g opacity="1" transform="matrix(1,0,0,1,243.73800659179688,85.30899810791016)"><path stroke-linecap="round" stroke-linejoin="round" fill-opacity="0" stroke="rgb(226,142,116)" stroke-opacity="1" stroke-width="9.662" d=" M0.7710000276565552,-22.56999969482422 C0.7710000276565552,-22.56999969482422 13.428000450134277,-9.805999755859375 9.888999938964844,1.225000023841858 C8.50100040435791,5.552000045776367 -2.7850000858306885,11.852999687194824 -2.7850000858306885,11.852999687194824 C-2.7850000858306885,11.852999687194824 -13.428000450134277,22.56999969482422 -13.428000450134277,22.56999969482422"></path></g><g opacity="1" transform="matrix(1,0,0,1,264.0249938964844,106.48899841308594)"><path stroke-linecap="round" stroke-linejoin="round" fill-opacity="0" stroke="rgb(226,142,116)" stroke-opacity="1" stroke-width="9.662" d=" M-16.023000717163086,9.545000076293945 C-16.023000717163086,9.545000076293945 -4.165999889373779,0.15299999713897705 -1.7139999866485596,-3.552999973297119 C2.25,-9.545000076293945 9.142000198364258,-1.8020000457763672 9.142000198364258,-1.8020000457763672 C9.142000198364258,-1.8020000457763672 16.023000717163086,3.5869998931884766 16.023000717163086,3.5869998931884766"></path></g></g></g><g style="display: block;" transform="matrix(1.0620054006576538,0.03417399898171425,-0.027264315634965897,1.0226396322250366,75.48043823242188,155.5853729248047)" opacity="1"><g opacity="1" transform="matrix(0.9999871850013733,0.005064823664724827,-0.005064823664724827,0.9999871850013733,1.3523406982421875,0.056396484375)"><g opacity="1" transform="matrix(1,0,0,1,90.31400299072266,163.39700317382812)"><path fill="rgb(255,195,161)" fill-opacity="1" d=" M-12.884839057922363,97.22209930419922 C-13.475838661193848,104.82009887695312 -15.090999603271484,115.55500030517578 0.38199999928474426,121.03800201416016 C15.854000091552734,126.52200317382812 24.874000549316406,130.4320068359375 35.62900161743164,129.73899841308594 C46.38399887084961,129.0469970703125 25.110000610351562,120.79399871826172 37.73899841308594,115.66000366210938 C50.36800003051758,110.5270004272461 27.107999801635742,68.89700317382812 33.145999908447266,62.02899932861328 C39.18299865722656,55.15999984741211 55.566837310791016,26.321613311767578 58.50954818725586,5.378612995147705 C63.452613830566406,-29.119258880615234 32.965999603271484,-67.48300170898438 27.83300018310547,-80.11199951171875 C22.700000762939453,-92.74099731445312 18.024999618530273,-106.62200164794922 20.836000442504883,-113.28299713134766 C23.64699935913086,-119.94400024414062 8.630000114440918,-127.27999877929688 -4.004000186920166,-130.04299926757812 C-5.78000020980835,-130.4320068359375 -31.21500015258789,-91.83300018310547 -40.30799865722656,-65.3290023803711 C-49.400001525878906,-38.82400131225586 -63.28303146362305,-10.323354721069336 -59.80803298950195,20.66864585876465 C-53.526031494140625,76.69764709472656 -12.293838500976562,89.62409973144531 -12.884839057922363,97.22209930419922z"></path><path stroke-linecap="round" stroke-linejoin="round" fill-opacity="0" stroke="rgb(173,92,37)" stroke-opacity="1" stroke-width="13.186" d=" M-12.884839057922363,97.22209930419922 C-13.475838661193848,104.82009887695312 -15.090999603271484,115.55500030517578 0.38199999928474426,121.03800201416016 C15.854000091552734,126.52200317382812 24.874000549316406,130.4320068359375 35.62900161743164,129.73899841308594 C46.38399887084961,129.0469970703125 25.110000610351562,120.79399871826172 37.73899841308594,115.66000366210938 C50.36800003051758,110.5270004272461 27.107999801635742,68.89700317382812 33.145999908447266,62.02899932861328 C39.18299865722656,55.15999984741211 55.566837310791016,26.321613311767578 58.50954818725586,5.378612995147705 C63.452613830566406,-29.119258880615234 32.965999603271484,-67.48300170898438 27.83300018310547,-80.11199951171875 C22.700000762939453,-92.74099731445312 18.024999618530273,-106.62200164794922 20.836000442504883,-113.28299713134766 C23.64699935913086,-119.94400024414062 8.630000114440918,-127.27999877929688 -4.004000186920166,-130.04299926757812 C-5.78000020980835,-130.4320068359375 -31.21500015258789,-91.83300018310547 -40.30799865722656,-65.3290023803711 C-49.400001525878906,-38.82400131225586 -63.28303146362305,-10.323354721069336 -59.80803298950195,20.66864585876465 C-53.526031494140625,76.69764709472656 -12.293838500976562,89.62409973144531 -12.884839057922363,97.22209930419922z"></path></g><g opacity="1" transform="matrix(1,0,0,1,63.42300033569336,142.5229949951172)"><path fill="rgb(255,249,245)" fill-opacity="1" d=" M21.37412452697754,-84.6500015258789 C21.37412452697754,-84.6500015258789 -2.524250030517578,-30.72512435913086 -8.94124984741211,1.7078750133514404 C-13.773249626159668,26.131874084472656 -12.846875190734863,45.88850021362305 -8.488875389099121,62.35350036621094 C-4.130875110626221,78.81849670410156 11.322999954223633,104.61412811279297 11.322999954223633,104.61412811279297 C11.322999954223633,104.61412811279297 -20.905500411987305,80.1760025024414 -25.770999908447266,41.50299835205078 C-30.226125717163086,6.202750205993652 -0.12337499856948853,-54.45862579345703 2.638624906539917,-59.42262649536133 C5.400625228881836,-64.38562774658203 22.950000762939453,-96.63999938964844 22.950000762939453,-96.63999938964844 C22.950000762939453,-96.63999938964844 21.37412452697754,-84.6500015258789 21.37412452697754,-84.6500015258789z"></path></g><g opacity="1" transform="matrix(1,0,0,1,91.99400329589844,130.4499969482422)"><path stroke-linecap="round" stroke-linejoin="round" fill-opacity="0" stroke="rgb(226,142,116)" stroke-opacity="1" stroke-width="8.662" d=" M12.34000015258789,-19.190000534057617 C12.34000015258789,-19.190000534057617 -1.684999942779541,-3.7660000324249268 -7.013000011444092,7.711999893188477 C-7.013000011444092,7.711999893188477 -12.34000015258789,19.190000534057617 -12.34000015258789,19.190000534057617"></path></g></g><g opacity="1" transform="matrix(0.8103575110435486,-0.46476903557777405,0.458406537771225,0.7992640137672424,-83.92729187011719,107.50318908691406)"><path fill="rgb(255,195,161)" fill-opacity="1" d=" M135.218994140625,209.33999633789062 C135.218994140625,209.33999633789062 91.01100158691406,218.30799865722656 91.01100158691406,218.30799865722656 C91.01100158691406,218.30799865722656 81.99849700927734,258.8114929199219 86.98899841308594,270.36700439453125 C89.86299896240234,277.093505859375 104.30500030517578,282.2594909667969 113.14199829101562,286.81451416015625 C126.83100128173828,293.8695068359375 148.24949645996094,317.468994140625 148.24949645996094,317.468994140625 C148.24949645996094,317.468994140625 168.17100524902344,293.47100830078125 168.17100524902344,293.47100830078125 C168.17100524902344,293.47100830078125 159.5970001220703,245.64300537109375 159.5970001220703,245.64300537109375 C159.5970001220703,245.64300537109375 148.45599365234375,222.92599487304688 148.45599365234375,222.92599487304688 C148.45599365234375,222.92599487304688 133.6580047607422,234.11300659179688 125.05899810791016,225.88699340820312 C120.19499969482422,221.23399353027344 135.218994140625,209.33999633789062 135.218994140625,209.33999633789062z"></path></g></g><g style="display: block;" transform="matrix(1.0574983358383179,0.07906018197536469,-0.07382044941186905,1.0223596096038818,119.33155822753906,202.06837463378906)" opacity="1"><g opacity="1" transform="matrix(1,0,0,1,188.343994140625,92.66799926757812)"><path stroke-linecap="round" stroke-linejoin="round" fill-opacity="0" stroke="rgb(173,92,37)" stroke-opacity="1" stroke-width="13.186" d=" M95.63574981689453,-12.74101734161377 C95.63574981689453,-12.74101734161377 65.04833984375,-48.47231674194336 -1.3113484382629395,-40.891605377197266"></path></g></g><g style="display: block;" transform="matrix(1.0617531538009644,0.0423576645553112,-0.035763271152973175,1.0223332643508911,131.71697998046875,147.14227294921875)" opacity="1"><g opacity="1" transform="matrix(1,0,0,1,78.05999755859375,84.74199676513672)"><path fill="rgb(255,195,161)" fill-opacity="1" d=" M21.71500015258789,-12.133999824523926 C21.71500015258789,-12.133999824523926 12.097999572753906,7.508999824523926 6.710000038146973,9.821000099182129 C1.3209999799728394,12.133999824523926 -5.48199987411499,11.086999893188477 -10.067999839782715,9.5649995803833 C-14.654000282287598,8.043000221252441 -20.7189998626709,3.7929999828338623 -21.216999053955078,0.7390000224113464 C-21.71500015258789,-2.315999984741211 -20.68899917602539,-7.008999824523926 -18.15399932861328,-7.938000202178955 C-15.619000434875488,-8.868000030517578 -6.00600004196167,-4.836999893188477 -3.190000057220459,-4.554999828338623 C-0.37299999594688416,-4.271999835968018 5.752999782562256,-9.788999557495117 5.752999782562256,-9.788999557495117 C5.752999782562256,-9.788999557495117 21.71500015258789,-12.133999824523926 21.71500015258789,-12.133999824523926z"></path><path stroke-linecap="round" stroke-linejoin="round" fill-opacity="0" stroke="rgb(173,92,37)" stroke-opacity="1" stroke-width="12.205" d=" M21.71500015258789,-12.133999824523926 C21.71500015258789,-12.133999824523926 12.097999572753906,7.508999824523926 6.710000038146973,9.821000099182129 C1.3209999799728394,12.133999824523926 -5.48199987411499,11.086999893188477 -10.067999839782715,9.5649995803833 C-14.654000282287598,8.043000221252441 -20.7189998626709,3.7929999828338623 -21.216999053955078,0.7390000224113464 C-21.71500015258789,-2.315999984741211 -20.68899917602539,-7.008999824523926 -18.15399932861328,-7.938000202178955 C-15.619000434875488,-8.868000030517578 -6.00600004196167,-4.836999893188477 -3.190000057220459,-4.554999828338623 C-0.37299999594688416,-4.271999835968018 5.752999782562256,-9.788999557495117 5.752999782562256,-9.788999557495117 C5.752999782562256,-9.788999557495117 21.71500015258789,-12.133999824523926 21.71500015258789,-12.133999824523926z"></path></g><g opacity="1" transform="matrix(1,0,0,1,69.5790023803711,60.82699966430664)"><path fill="rgb(255,195,161)" fill-opacity="1" d=" M8.180999755859375,-29.334999084472656 C14.66100025177002,-28.586999893188477 14.543000221252441,-27.551000595092773 25.599000930786133,-19.128000259399414 C36.654998779296875,-10.706000328063965 38.90999984741211,-7.5980000495910645 38.987998962402344,-1.7940000295639038 C39.06700134277344,4.011000156402588 33.46500015258789,22.45800018310547 30.798999786376953,24.382999420166016 C22.583999633789062,30.31399917602539 1.5850000381469727,22.924999237060547 -2.48799991607666,19.05699920654297 C-6.559999942779541,15.189000129699707 2.625999927520752,9.26099967956543 4.497000217437744,8.204000473022461 C6.368000030517578,7.1479997634887695 11.628999710083008,6.551000118255615 11.628999710083008,6.551000118255615 C11.628999710083008,6.551000118255615 14.557000160217285,4.044000148773193 14.557000160217285,4.044000148773193 C15.664999961853027,3.0940001010894775 14.951000213623047,1.2799999713897705 13.493000030517578,1.3389999866485596 C13.493000030517578,1.3389999866485596 10.015000343322754,2.437000036239624 10.015000343322754,2.437000036239624 C10.015000343322754,2.437000036239624 -1.1139999628067017,9.390000343322754 -8.104999542236328,7.535999774932861 C-15.095999717712402,5.681000232696533 -25.323999404907227,-12.23900032043457 -26.48699951171875,-15.420999526977539 C-27.64900016784668,-18.60300064086914 -39.066001892089844,-15.4399995803833 -33.742000579833984,-19.589000701904297 C-23.94700050354004,-27.222999572753906 -0.3100000023841858,-30.315000534057617 8.180999755859375,-29.334999084472656z"></path><path stroke-linecap="round" stroke-linejoin="round" fill-opacity="0" stroke="rgb(173,92,37)" stroke-opacity="1" stroke-width="12.205" d=" M8.180999755859375,-29.334999084472656 C14.66100025177002,-28.586999893188477 14.543000221252441,-27.551000595092773 25.599000930786133,-19.128000259399414 C36.654998779296875,-10.706000328063965 38.90999984741211,-7.5980000495910645 38.987998962402344,-1.7940000295639038 C39.06700134277344,4.011000156402588 33.46500015258789,22.45800018310547 30.798999786376953,24.382999420166016 C22.583999633789062,30.31399917602539 1.5850000381469727,22.924999237060547 -2.48799991607666,19.05699920654297 C-6.559999942779541,15.189000129699707 2.625999927520752,9.26099967956543 4.497000217437744,8.204000473022461 C6.368000030517578,7.1479997634887695 11.628999710083008,6.551000118255615 11.628999710083008,6.551000118255615 C11.628999710083008,6.551000118255615 14.557000160217285,4.044000148773193 14.557000160217285,4.044000148773193 C15.664999961853027,3.0940001010894775 14.951000213623047,1.2799999713897705 13.493000030517578,1.3389999866485596 C13.493000030517578,1.3389999866485596 10.015000343322754,2.437000036239624 10.015000343322754,2.437000036239624 C10.015000343322754,2.437000036239624 -1.1139999628067017,9.390000343322754 -8.104999542236328,7.535999774932861 C-15.095999717712402,5.681000232696533 -25.323999404907227,-12.23900032043457 -26.48699951171875,-15.420999526977539 C-27.64900016784668,-18.60300064086914 -39.066001892089844,-15.4399995803833 -33.742000579833984,-19.589000701904297 C-23.94700050354004,-27.222999572753906 -0.3100000023841858,-30.315000534057617 8.180999755859375,-29.334999084472656z"></path></g><g opacity="1" transform="matrix(1,0,0,1,45.8489990234375,72.97200012207031)"><path fill="rgb(255,195,161)" fill-opacity="1" d=" M-16.011999130249023,-10.503999710083008 C-16.011999130249023,-10.503999710083008 -11.234000205993652,-24.410999298095703 -2.671999931335449,-29.406999588012695 C3.1040000915527344,-32.777000427246094 14.63700008392334,-34.198001861572266 14.63700008392334,-34.198001861572266 C14.63700008392334,-34.198001861572266 16.849000930786133,-19.174999237060547 16.849000930786133,-19.174999237060547 C16.849000930786133,-19.174999237060547 17.527999877929688,-14.369999885559082 17.527999877929688,-14.369999885559082 C17.527999877929688,-14.369999885559082 4.445000171661377,-16.72599983215332 5.36899995803833,-5.558000087738037 C6.526000022888184,8.41100025177002 15.970999717712402,26.937000274658203 15.970999717712402,26.937000274658203 C15.970999717712402,26.937000274658203 -7.057000160217285,34.198001861572266 -7.057000160217285,34.198001861572266 C-7.057000160217285,34.198001861572266 -17.527999877929688,7.007999897003174 -17.527999877929688,7.007999897003174 C-17.527999877929688,7.007999897003174 -16.011999130249023,-10.503999710083008 -16.011999130249023,-10.503999710083008z"></path></g></g><g style="display: block;" transform="matrix(1.0574983358383179,0.07906018197536469,-0.07382044941186905,1.0223596096038818,119.33155822753906,202.06837463378906)" opacity="1"><g opacity="1" transform="matrix(1,0,0,1,0,0)"><path fill="rgb(237,147,113)" fill-opacity="1" d=" M309.0083312988281,97.50900268554688 C309.6866760253906,97.10033416748047 303.5703430175781,92.25733184814453 300.2453308105469,102.40733337402344 C291.4723205566406,129.18533325195312 273.8890075683594,179.90199279785156 246.61099243164062,195.0070037841797 C207.93899536132812,216.42100524902344 187.08233642578125,211.09432983398438 159.81033325195312,206.8383331298828 C148.00332641601562,204.99533081054688 110.29566955566406,216.3719940185547 101.11866760253906,219.13400268554688 C89.09967041015625,222.7530059814453 79.6943359375,221.36366271972656 73.38733673095703,220.5086669921875 C62.267333984375,219.00067138671875 49.52366638183594,202.97300720214844 49.52366638183594,202.97300720214844 C49.52366638183594,202.97300720214844 46.6063346862793,223.9326629638672 55.513999938964844,228.6653289794922 C86.5989990234375,249.24234008789062 108.60966491699219,237.18666076660156 108.60966491699219,237.18666076660156 C108.60966491699219,237.18666076660156 178.00399780273438,258.08599853515625 231.6269989013672,245.2760009765625 C294.00201416015625,230.37399291992188 309.3169860839844,154.43833923339844 312.8689880371094,136.4683380126953 C317.4530029296875,113.27933502197266 315.8343200683594,102.5826644897461 315.8343200683594,102.5826644897461 C315.8343200683594,102.5826644897461 309.0083312988281,97.50900268554688 309.0083312988281,97.50900268554688z"></path></g><g opacity="1" transform="matrix(1,0,0,1,0,0)"><path stroke-linecap="round" stroke-linejoin="round" fill-opacity="0" stroke="rgb(173,92,37)" stroke-opacity="1" stroke-width="16" d=" M276.6549987792969,144.63099670410156 C276.6549987792969,144.63099670410156 271.0703430175781,180.89633178710938 240.39633178710938,199.41000366210938 C210.69566345214844,217.34500122070312 170.93634033203125,207.4443359375 170.93634033203125,207.4443359375"></path></g></g><g style="display: block;" transform="matrix(1.0224601030349731,0.01900668442249298,-0.018666373565793037,1.0041531324386597,152.26148986816406,14.869945526123047)" opacity="1"><g opacity="1" transform="matrix(1,0,0,1,-0.9600067138671875,0.0279998779296875)"><g opacity="1" transform="matrix(1,0,0,1,221.9739990234375,109.3499984741211)"><path fill="rgb(226,142,116)" fill-opacity="1" d=" M-54.46699905395508,-24.226999282836914 C-45.00699996948242,-43.143001556396484 -29.343000411987305,-53.428001403808594 -4.014999866485596,-47.84700012207031 C33.650001525878906,-39.547000885009766 62.5620002746582,-15.809000015258789 61.2130012512207,13.404000282287598 C59.94499969482422,40.858001708984375 39.736000061035156,53.428001403808594 16.479999542236328,53.34600067138672 C-4.000999927520752,53.27399826049805 -29.031999588012695,43.3129997253418 -43.08399963378906,28.81399917602539 C-57.15700149536133,14.293999671936035 -62.56100082397461,-8.041999816894531 -54.46699905395508,-24.226999282836914z"></path></g><g opacity="1" transform="matrix(1,0,0,1,218.57200622558594,102.09400177001953)"><path fill="rgb(210,192,226)" fill-opacity="1" d=" M-51.96900177001953,-22.72599983215332 C-43.85900115966797,-38.03099822998047 -29.513999938964844,-45.89500045776367 -5.354000091552734,-40.15599822998047 C30.573999404907227,-31.621000289916992 58.90800094604492,-10.638999938964844 58.90599822998047,13.574999809265137 C58.90399932861328,36.33100128173828 40.36800003051758,45.89500045776367 18.40399932861328,44.81399917602539 C-0.9409999847412109,43.862998962402344 -25.010000228881836,34.49800109863281 -38.9109992980957,21.84000015258789 C-52.832000732421875,9.163000106811523 -58.90800094604492,-9.630000114440918 -51.96900177001953,-22.72599983215332z"></path><path stroke-linecap="round" stroke-linejoin="round" fill-opacity="0" stroke="rgb(82,98,130)" stroke-opacity="1" stroke-width="10" d=" M-51.96900177001953,-22.72599983215332 C-43.85900115966797,-38.03099822998047 -29.513999938964844,-45.89500045776367 -5.354000091552734,-40.15599822998047 C30.573999404907227,-31.621000289916992 58.90800094604492,-10.638999938964844 58.90599822998047,13.574999809265137 C58.90399932861328,36.33100128173828 40.36800003051758,45.89500045776367 18.40399932861328,44.81399917602539 C-0.9409999847412109,43.862998962402344 -25.010000228881836,34.49800109863281 -38.9109992980957,21.84000015258789 C-52.832000732421875,9.163000106811523 -58.90800094604492,-9.630000114440918 -51.96900177001953,-22.72599983215332z"></path></g><g opacity="1" transform="matrix(1,0,0,1,216.51100158691406,97.66100311279297)"><path fill="rgb(255,255,255)" fill-opacity="1" d=" M-40.777000427246094,-17.863000869750977 C-34.340999603271484,-30.090999603271484 -23.03700065612793,-36.415000915527344 -4.079999923706055,-31.94499969482422 C24.11199951171875,-25.29599952697754 46.284000396728516,-8.699999809265137 46.18000030517578,10.59000015258789 C46.08300018310547,28.7189998626709 31.479000091552734,36.415000915527344 14.22700023651123,35.64699935913086 C-0.9670000076293945,34.97100067138672 -19.83799934387207,27.61199951171875 -30.70599937438965,17.586000442504883 C-41.59000015258789,7.546000003814697 -46.284000396728516,-7.401000022888184 -40.777000427246094,-17.863000869750977z"></path></g><g opacity="1" transform="matrix(1.1291500329971313,0,0,1.1291500329971313,-31.0933837890625,-14.326225280761719)"><g opacity="1" transform="matrix(1,0,0,1,238.9550018310547,110.927001953125)"><path fill="rgb(33,15,58)" fill-opacity="1" d=" M12.031000137329102,4.238999843597412 C9.76099967956543,11.178999900817871 2.5350000858306885,14.909000396728516 -4.109000205993652,12.567000389099121 C-10.753000259399414,10.225000381469727 -14.300000190734863,2.7009999752044678 -12.029999732971191,-4.239999771118164 C-9.76099967956543,-11.180000305175781 -2.5360000133514404,-14.907999992370605 4.109000205993652,-12.567000389099121 C10.753000259399414,-10.225000381469727 14.300999641418457,-2.7009999752044678 12.031000137329102,4.238999843597412z"></path></g><g opacity="1" transform="matrix(1,0,0,1,250.61300659179688,110.7040023803711)"><path fill="rgb(255,255,255)" fill-opacity="1" d=" M4.406000137329102,1.5529999732971191 C3.575000047683716,4.09499979019165 0.9279999732971191,5.460000038146973 -1.5049999952316284,4.603000164031982 C-3.937999963760376,3.744999885559082 -5.236999988555908,0.9890000224113464 -4.406000137329102,-1.5529999732971191 C-3.575000047683716,-4.093999862670898 -0.9279999732971191,-5.460000038146973 1.5049999952316284,-4.6020002365112305 C3.937999963760376,-3.744999885559082 5.236999988555908,-0.9890000224113464 4.406000137329102,1.5529999732971191z"></path></g></g><g opacity="1" transform="matrix(1,0,0,1,215.18600463867188,122.23300170898438)"><path fill="rgb(255,195,161)" fill-opacity="1" d=" M-51.37900161743164,-30.25200080871582 C-51.37900161743164,-30.25200080871582 -20.59600067138672,-15.517000198364258 3.621999979019165,-6.703999996185303 C27.84000015258789,2.1089999675750732 56.108001708984375,12.347999572753906 56.108001708984375,12.347999572753906 C56.108001708984375,12.347999572753906 46.09299850463867,26.156999588012695 20.834999084472656,28.091999053955078 C-7.35099983215332,30.25200080871582 -33.2400016784668,14.914999961853027 -44.67399978637695,-0.49300000071525574 C-56.108001708984375,-15.902000427246094 -51.37900161743164,-30.25200080871582 -51.37900161743164,-30.25200080871582z"></path><path stroke-linecap="round" stroke-linejoin="round" fill-opacity="0" stroke="rgb(173,92,37)" stroke-opacity="1" stroke-width="8.516" d=" M-51.37900161743164,-30.25200080871582 C-51.37900161743164,-30.25200080871582 -20.59600067138672,-15.517000198364258 3.621999979019165,-6.703999996185303 C27.84000015258789,2.1089999675750732 56.108001708984375,12.347999572753906 56.108001708984375,12.347999572753906 C56.108001708984375,12.347999572753906 46.09299850463867,26.156999588012695 20.834999084472656,28.091999053955078 C-7.35099983215332,30.25200080871582 -33.2400016784668,14.914999961853027 -44.67399978637695,-0.49300000071525574 C-56.108001708984375,-15.902000427246094 -51.37900161743164,-30.25200080871582 -51.37900161743164,-30.25200080871582z"></path></g><g opacity="1" transform="matrix(1,0,0,1,228.67599487304688,83.93000030517578)"><path fill="rgb(255,195,161)" fill-opacity="1" d=" M-54.65599822998047,-16.048999786376953 C-54.65599822998047,-16.048999786376953 -32.13199996948242,-14.628999710083008 1.9520000219345093,-1.4769999980926514 C36.03499984741211,11.675000190734863 51.409000396728516,29.236000061035156 51.409000396728516,29.236000061035156 C51.409000396728516,29.236000061035156 54.65599822998047,0.5950000286102295 19.104999542236328,-18.511999130249023 C3.5409998893737793,-26.87700080871582 -8.704000473022461,-27.83099937438965 -17.402000427246094,-28.31999969482422 C-33.720001220703125,-29.236000061035156 -44.0369987487793,-22.990999221801758 -47.012001037597656,-21.65399932861328 C-51.770999908447266,-19.514999389648438 -54.65599822998047,-16.048999786376953 -54.65599822998047,-16.048999786376953z"></path><path stroke-linecap="round" stroke-linejoin="round" fill-opacity="0" stroke="rgb(173,92,37)" stroke-opacity="1" stroke-width="8.827" d=" M-54.65599822998047,-16.048999786376953 C-54.65599822998047,-16.048999786376953 -32.13199996948242,-14.628999710083008 1.9520000219345093,-1.4769999980926514 C36.03499984741211,11.675000190734863 51.409000396728516,29.236000061035156 51.409000396728516,29.236000061035156 C51.409000396728516,29.236000061035156 54.65599822998047,0.5950000286102295 19.104999542236328,-18.511999130249023 C3.5409998893737793,-26.87700080871582 -8.704000473022461,-27.83099937438965 -17.402000427246094,-28.31999969482422 C-33.720001220703125,-29.236000061035156 -44.0369987487793,-22.990999221801758 -47.012001037597656,-21.65399932861328 C-51.770999908447266,-19.514999389648438 -54.65599822998047,-16.048999786376953 -54.65599822998047,-16.048999786376953z"></path></g></g><g opacity="1" transform="matrix(0.9981251955032349,-0.06120532378554344,0.06120532378554344,0.9981251955032349,-4.116455078125,2.8088035583496094)"><g opacity="1" transform="matrix(1,0,0,1,78.0009994506836,72.90299987792969)"><path fill="rgb(226,142,116)" fill-opacity="1" d=" M-46.43600082397461,-20.395000457763672 C-38.150001525878906,-30.513999938964844 -26.29599952697754,-43.099998474121094 6.747000217437744,-39.49800109863281 C50.4900016784668,-34.72999954223633 57.03799819946289,-4.326000213623047 52.91600036621094,11.61299991607666 C48.792999267578125,27.55299949645996 24.801000595092773,45.167999267578125 -7.875999927520752,40.452999114990234 C-40.55400085449219,35.737998962402344 -49.625999450683594,19.690000534057617 -51.97200012207031,9.956999778747559 C-55.24599838256836,-3.627000093460083 -50.51599884033203,-15.411999702453613 -46.43600082397461,-20.395000457763672z"></path></g><g opacity="1" transform="matrix(1,0,0,1,74.59700012207031,63.90999984741211)"><path fill="rgb(210,192,226)" fill-opacity="1" d=" M-44.117000579833984,-19.768999099731445 C-36.54600143432617,-28.7549991607666 -25.69099998474121,-39.9119987487793 5.014999866485596,-36.29399871826172 C45.66600036621094,-31.503000259399414 52.09700012207031,-4.13700008392334 48.457000732421875,10.121999740600586 C44.81800079345703,24.381999969482422 22.759000778198242,39.91299819946289 -7.622000217437744,35.29899978637695 C-38.00299835205078,30.684999465942383 -46.60900115966797,16.173999786376953 -48.900001525878906,7.410999774932861 C-52.09700012207031,-4.820000171661377 -47.845001220703125,-15.343999862670898 -44.117000579833984,-19.768999099731445z"></path><path stroke-linecap="round" stroke-linejoin="round" fill-opacity="0" stroke="rgb(82,98,130)" stroke-opacity="1" stroke-width="10" d=" M-44.117000579833984,-19.768999099731445 C-36.54600143432617,-28.7549991607666 -25.69099998474121,-39.9119987487793 5.014999866485596,-36.29399871826172 C45.66600036621094,-31.503000259399414 52.09700012207031,-4.13700008392334 48.457000732421875,10.121999740600586 C44.81800079345703,24.381999969482422 22.759000778198242,39.91299819946289 -7.622000217437744,35.29899978637695 C-38.00299835205078,30.684999465942383 -46.60900115966797,16.173999786376953 -48.900001525878906,7.410999774932861 C-52.09700012207031,-4.820000171661377 -47.845001220703125,-15.343999862670898 -44.117000579833984,-19.768999099731445z"></path></g><g opacity="1" transform="matrix(1,0,0,1,73.30400085449219,62.6879997253418)"><path fill="rgb(255,255,255)" fill-opacity="1" d=" M-34.71500015258789,-15.5649995803833 C-28.75,-22.658000946044922 -20.198999404907227,-31.465999603271484 3.9679999351501465,-28.631000518798828 C35.96099853515625,-24.878000259399414 41.00600051879883,-3.296999931335449 38.13199996948242,7.953000068664551 C35.257999420166016,19.20199966430664 17.885000228881836,31.465999603271484 -6.025000095367432,27.847000122070312 C-29.93400001525879,24.226999282836914 -36.70000076293945,12.78600025177002 -38.49700164794922,5.875999927520752 C-41.00600051879883,-3.7690000534057617 -37.652000427246094,-12.072999954223633 -34.71500015258789,-15.5649995803833z"></path></g><g opacity="1" transform="matrix(1,0,0,1,0,0)"><g opacity="1" transform="matrix(1,0,0,1,80.97899627685547,63.207000732421875)"><path fill="rgb(33,15,58)" fill-opacity="1" d=" M12.031000137329102,4.238999843597412 C9.76099967956543,11.178999900817871 2.5350000858306885,14.909000396728516 -4.109000205993652,12.567000389099121 C-10.753000259399414,10.225000381469727 -14.300999641418457,2.7009999752044678 -12.031000137329102,-4.239999771118164 C-9.76200008392334,-11.180000305175781 -2.5350000858306885,-14.907999992370605 4.110000133514404,-12.567000389099121 C10.753999710083008,-10.225000381469727 14.300999641418457,-2.7009999752044678 12.031000137329102,4.238999843597412z"></path></g><g opacity="1" transform="matrix(1,0,0,1,92.49299621582031,61.12799835205078)"><path fill="rgb(255,255,255)" fill-opacity="1" d=" M4.051000118255615,1.4270000457763672 C3.2869999408721924,3.7639999389648438 0.8539999723434448,5.019999980926514 -1.3830000162124634,4.23199987411499 C-3.619999885559082,3.443000078201294 -4.815000057220459,0.9100000262260437 -4.051000118255615,-1.4270000457763672 C-3.2869999408721924,-3.7639999389648438 -0.8539999723434448,-5.019999980926514 1.3830000162124634,-4.23199987411499 C3.619999885559082,-3.443000078201294 4.815000057220459,-0.9100000262260437 4.051000118255615,1.4270000457763672z"></path></g></g><g opacity="1" transform="matrix(1,0,0,1,71.33000183105469,83.94300079345703)"><path fill="rgb(255,195,161)" fill-opacity="1" d=" M-49.02000045776367,-21.014999389648438 C-49.02000045776367,-21.014999389648438 -41.70000076293945,-20.68600082397461 -15.829000473022461,-14.312000274658203 C11.838000297546387,-7.495999813079834 37.0260009765625,-0.2029999941587448 45.97999954223633,2.4030001163482666 C49.02000045776367,3.2880001068115234 45.54499816894531,14.319999694824219 19.621999740600586,17.764999389648438 C-4.826000213623047,21.013999938964844 -26.98200035095215,12.951000213623047 -39.097999572753906,0.17100000381469727 C-48.069000244140625,-9.291999816894531 -49.02000045776367,-21.014999389648438 -49.02000045776367,-21.014999389648438z"></path><path stroke-linecap="round" stroke-linejoin="round" fill-opacity="0" stroke="rgb(173,92,37)" stroke-opacity="1" stroke-width="8.516" d=" M-49.02000045776367,-21.014999389648438 C-49.02000045776367,-21.014999389648438 -41.70000076293945,-20.68600082397461 -15.829000473022461,-14.312000274658203 C11.838000297546387,-7.495999813079834 37.0260009765625,-0.2029999941587448 45.97999954223633,2.4030001163482666 C49.02000045776367,3.2880001068115234 45.54499816894531,14.319999694824219 19.621999740600586,17.764999389648438 C-4.826000213623047,21.013999938964844 -26.98200035095215,12.951000213623047 -39.097999572753906,0.17100000381469727 C-48.069000244140625,-9.291999816894531 -49.02000045776367,-21.014999389648438 -49.02000045776367,-21.014999389648438z"></path></g><g opacity="1" transform="matrix(1,0,0,1,78.31700134277344,40.143001556396484)"><path fill="rgb(255,195,161)" fill-opacity="1" d=" M-47.236000061035156,0.9490000009536743 C-47.236000061035156,0.9490000009536743 -28.325000762939453,-2.5139999389648438 -3.260999917984009,0.7559999823570251 C23.87299919128418,4.295000076293945 47.236000061035156,18.85300064086914 47.236000061035156,18.85300064086914 C47.236000061035156,18.85300064086914 45.1619987487793,3.921999931335449 23.982999801635742,-6.873000144958496 C0.47600001096725464,-18.85300064086914 -16.617000579833984,-16.177000045776367 -25.804000854492188,-13.192999839782715 C-40.9640007019043,-8.267000198364258 -47.236000061035156,0.9490000009536743 -47.236000061035156,0.9490000009536743z"></path><path stroke-linecap="round" stroke-linejoin="round" fill-opacity="0" stroke="rgb(173,92,37)" stroke-opacity="1" stroke-width="8.516" d=" M-47.236000061035156,0.9490000009536743 C-47.236000061035156,0.9490000009536743 -28.325000762939453,-2.5139999389648438 -3.260999917984009,0.7559999823570251 C23.87299919128418,4.295000076293945 47.236000061035156,18.85300064086914 47.236000061035156,18.85300064086914 C47.236000061035156,18.85300064086914 45.1619987487793,3.921999931335449 23.982999801635742,-6.873000144958496 C0.47600001096725464,-18.85300064086914 -16.617000579833984,-16.177000045776367 -25.804000854492188,-13.192999839782715 C-40.9640007019043,-8.267000198364258 -47.236000061035156,0.9490000009536743 -47.236000061035156,0.9490000009536743z"></path></g></g></g><g style="display: block;" transform="matrix(1.0224601030349731,0.01900668442249298,-0.018666373565793037,1.0041531324386597,191.2882080078125,-20.798625946044922)" opacity="1"><g opacity="1" transform="matrix(1,0,0,1,61.124000549316406,41.73899841308594)"><path stroke-linecap="round" stroke-linejoin="round" fill-opacity="0" stroke="rgb(86,40,54)" stroke-opacity="1" stroke-width="14.809" d=" M-24.101999282836914,2.8480000495910645 C-24.101999282836914,2.8480000495910645 -13.479000091552734,-4.7170000076293945 1.3489999771118164,-4.445000171661377 C14.838000297546387,-4.197999954223633 24.101999282836914,4.716000080108643 24.101999282836914,4.716000080108643"></path></g><g opacity="1" transform="matrix(1,0,0,1,231.0070037841797,72.95700073242188)"><path stroke-linecap="round" stroke-linejoin="round" fill-opacity="0" stroke="rgb(86,40,54)" stroke-opacity="1" stroke-width="15.46" d=" M-41.52399826049805,-14.055999755859375 C-41.52399826049805,-14.055999755859375 -23.010000228881836,-18.042999267578125 -8.798999786376953,-10.928000450134277 C4.127999782562256,-4.456999778747559 9.151000022888184,8.998000144958496 9.151000022888184,8.998000144958496"></path></g></g></g><g clip-path="url(#__lottie_element_4)" style="display: none;"><g style="display: none;"><g><path></path></g><g><path stroke-linecap="round" stroke-linejoin="round" fill-opacity="0"></path></g><g><path stroke-linecap="round" stroke-linejoin="round" fill-opacity="0"></path></g><g><path></path></g></g><g style="display: none;"><g><path></path></g><g><path stroke-linecap="round" stroke-linejoin="round" fill-opacity="0"></path></g><g><path stroke-linecap="round" stroke-linejoin="round" fill-opacity="0"></path></g><g><path stroke-linecap="round" stroke-linejoin="round" fill-opacity="0"></path></g><g><path stroke-linecap="round" stroke-linejoin="round" fill-opacity="0"></path></g></g><g style="display: none;"><g><path></path></g><g><path stroke-linecap="round" stroke-linejoin="round" fill-opacity="0"></path></g></g><g style="display: none;"><g><path></path><path stroke-linecap="butt" stroke-linejoin="miter" fill-opacity="0" stroke-miterlimit="10"></path></g><g><path fill="url(#__lottie_element_13)"></path></g></g><g style="display: none;"><g><path></path></g></g><g style="display: none;"><g><g><path></path></g><g><path stroke-linecap="round" stroke-linejoin="round" fill-opacity="0"></path></g><g><path stroke-linecap="round" stroke-linejoin="round" fill-opacity="0"></path></g><g><path stroke-linecap="round" stroke-linejoin="round" fill-opacity="0"></path></g></g></g><g style="display: none;"><g><path fill="url(#__lottie_element_29)"></path></g><g><path stroke-linecap="round" stroke-linejoin="round" fill-opacity="0"></path></g><g><path stroke-linecap="round" stroke-linejoin="round" fill-opacity="0"></path></g><g><path></path></g><g><g><path stroke-linecap="round" stroke-linejoin="round" fill-opacity="0"></path></g><g><path stroke-linecap="round" stroke-linejoin="round" fill-opacity="0"></path></g><g><path stroke-linecap="round" stroke-linejoin="round" fill-opacity="0"></path></g></g><g><g><path stroke-linecap="round" stroke-linejoin="round" fill-opacity="0"></path></g><g><path stroke-linecap="round" stroke-linejoin="round" fill-opacity="0"></path></g></g></g><g style="display: none;"><g><g><path></path><path stroke-linecap="round" stroke-linejoin="round" fill-opacity="0"></path></g><g><path></path></g><g><path stroke-linecap="round" stroke-linejoin="round" fill-opacity="0"></path></g></g><g><path></path></g></g><g style="display: none;"><g><path stroke-linecap="round" stroke-linejoin="round" fill-opacity="0"></path></g></g><g style="display: none;"><g><path></path><path stroke-linecap="round" stroke-linejoin="round" fill-opacity="0"></path></g><g><path></path><path stroke-linecap="round" stroke-linejoin="round" fill-opacity="0"></path></g><g><path></path></g></g><g style="display: none;"><g><path></path></g><g><path stroke-linecap="round" stroke-linejoin="round" fill-opacity="0"></path></g></g><g style="display: none;"><g><g><path></path></g><g><path></path><path stroke-linecap="round" stroke-linejoin="round" fill-opacity="0"></path></g><g><path></path></g><g><g><path></path></g><g><path></path></g></g><g><path></path><path stroke-linecap="round" stroke-linejoin="round" fill-opacity="0"></path></g><g><path></path><path stroke-linecap="round" stroke-linejoin="round" fill-opacity="0"></path></g></g><g><g><path></path></g><g><path></path><path stroke-linecap="round" stroke-linejoin="round" fill-opacity="0"></path></g><g><path></path></g><g><g><path></path></g><g><path></path></g></g><g><path></path><path stroke-linecap="round" stroke-linejoin="round" fill-opacity="0"></path></g><g><path></path><path stroke-linecap="round" stroke-linejoin="round" fill-opacity="0"></path></g></g></g><g style="display: none;"><g><path stroke-linecap="round" stroke-linejoin="round" fill-opacity="0"></path></g><g><path stroke-linecap="round" stroke-linejoin="round" fill-opacity="0"></path></g></g></g></g></svg>