<svg xmlns="http://www.w3.org/2000/svg" xmlns:xlink="http://www.w3.org/1999/xlink" viewBox="0 0 512 512" width="512" height="512" style="width: 100%; height: 100%; transform: translate3d(0,0,0); content-visibility: visible;" preserveAspectRatio="xMidYMid meet"><defs><clipPath id="__lottie_element_2"><rect width="512" height="512" x="0" y="0"></rect></clipPath><radialGradient id="__lottie_element_14" spreadMethod="pad" gradientUnits="userSpaceOnUse" cx="-11.958999633789062" cy="-147.802001953125" r="272.3535483742482" fx="-11.958999633789062" fy="-147.802001953125"><stop offset="0%" stop-color="rgb(254,230,212)"></stop><stop offset="50%" stop-color="rgb(248,209,180)"></stop><stop offset="100%" stop-color="rgb(242,188,147)"></stop></radialGradient><radialGradient id="__lottie_element_15" spreadMethod="pad" gradientUnits="userSpaceOnUse" cx="-20" cy="-170" r="253.051076473579" fx="-20" fy="-170"><stop offset="41%" stop-color="rgb(249,236,228)" stop-opacity="1"></stop><stop offset="61%" stop-color="rgb(249,236,228)" stop-opacity="0.5"></stop><stop offset="81%" stop-color="rgb(249,236,228)" stop-opacity="0"></stop></radialGradient><radialGradient id="__lottie_element_41" spreadMethod="pad" gradientUnits="userSpaceOnUse"><stop></stop><stop></stop><stop></stop></radialGradient></defs><g clip-path="url(#__lottie_element_2)"><g style="display: none;"><g><path fill="url(#__lottie_element_41)"></path></g></g><g style="display: block;" transform="matrix(0.9925461411476135,0.12186934053897858,-0.12186934053897858,0.9925461411476135,276.9250183105469,257.45843505859375)" opacity="1"><g opacity="1" transform="matrix(1,0,0,1,0,0)"><path fill="url(#__lottie_element_14)" fill-opacity="1" d=" M-94.06999969482422,-203.0500030517578 C-198.4720001220703,-169.38800048828125 -224.28900146484375,-47.18199920654297 -185.8260040283203,52.47800064086914 C-148.06199645996094,150.32699584960938 7.943999767303467,183.2220001220703 99.2030029296875,116.28800201416016 C193.9250030517578,46.81399917602539 159.80299377441406,-83.99400329589844 146.21499633789062,-112.98999786376953 C132.6269989013672,-141.98599243164062 72.89299774169922,-256.8840026855469 -94.06999969482422,-203.0500030517578z"></path></g><g opacity="1" transform="matrix(1,0,0,1,0,0)"><path fill="rgb(229,157,107)" fill-opacity="1" d=" M137.7030029296875,-122.84100341796875 C200.4600067138672,35.37799835205078 -2.4609999656677246,229.38600158691406 -180.78199768066406,45.132999420166016 C-183.6300048828125,51.77799987792969 -113.58799743652344,169.74099731445312 29.652999877929688,141.09300231933594 C86.61000061035156,129.70199584960938 117.9800033569336,94.68499755859375 135.48699951171875,60.558998107910156 C185.53599548339844,-36.99800109863281 137.7030029296875,-122.84100341796875 137.7030029296875,-122.84100341796875z"></path></g><g opacity="1" transform="matrix(1,0,0,1,0,0)"><path fill="url(#__lottie_element_15)" fill-opacity="1" d=" M76.38099670410156,-184.70399475097656 C76.38099670410156,-184.70399475097656 13.607000350952148,-213.17100524902344 -71.79499816894531,-192.73300170898438 C-157.19700622558594,-172.2949981689453 -180.781005859375,-87.65799713134766 -185.6649932861328,-70.83399963378906 C-192.23399353027344,-48.20600128173828 -195.1540069580078,-32.87799835205078 -195.1540069580078,-32.87799835205078 C-195.1540069580078,-32.87799835205078 -207.06700134277344,-136.5489959716797 -116.32099914550781,-186.8939971923828 C-9.75100040435791,-246.01800537109375 76.38099670410156,-184.70399475097656 76.38099670410156,-184.70399475097656z"></path></g></g><g style="display: block;" transform="matrix(0.9902680516242981,0.13917312026023865,-0.13917312026023865,0.9902680516242981,276.1773681640625,256.99090576171875)" opacity="1"><g opacity="1" transform="matrix(1,0,0,1,0,0)"><g opacity="1" transform="matrix(1,0,0,1,0,0)"><g opacity="1" transform="matrix(1,0,0,1,0,0)"><path stroke-linecap="butt" stroke-linejoin="miter" fill-opacity="0" stroke-miterlimit="10" stroke="rgb(229,157,107)" stroke-opacity="1" stroke-width="12" d=" M-1.3070000410079956,35.49399948120117 C25.011999130249023,50.861000061035156 49.242000579833984,46.720001220703125 65.03099822998047,18.29599952697754"></path></g><g opacity="1" transform="matrix(1,0,0,1,0,0)"><path stroke-linecap="round" stroke-linejoin="round" fill-opacity="0" stroke="rgb(165,80,56)" stroke-opacity="1" stroke-width="13.029" d=" M-0.972000002861023,30.893999099731445 C25.393999099731445,37.922000885009766 46.82500076293945,33.62699890136719 62.553001403808594,16.239999771118164"></path></g></g><g opacity="1" transform="matrix(1,0,0,1,0,0)"><path stroke-linecap="round" stroke-linejoin="round" fill-opacity="0" stroke="rgb(204,120,86)" stroke-opacity="1" stroke-width="13.029" d=" M-3.1080000400543213,19.97800064086914 C-0.6389999985694885,31.28499984741211 -3.799999952316284,37.909000396728516 -7.380000114440918,44.183998107910156"></path></g><g opacity="1" transform="matrix(1,0,0,1,0,0)"><path stroke-linecap="round" stroke-linejoin="round" fill-opacity="0" stroke="rgb(204,120,86)" stroke-opacity="1" stroke-width="13.462" d=" M63.5,5.73799991607666 C63.33300018310547,12.954999923706055 65.95500183105469,18.658000946044922 73.1510009765625,21.875999450683594"></path></g></g></g><g style="display: block;" transform="matrix(0.9902680516242981,0.13917312026023865,-0.13917312026023865,0.9902680516242981,276.17681884765625,256.99005126953125)" opacity="1"><g opacity="1" transform="matrix(0.8597542643547058,0.5107079744338989,-0.5107079744338989,0.8597542643547058,-24.35266876220703,-55.987220764160156)"><g opacity="1" transform="matrix(1,0,0,1,0,0)"><path fill="rgb(229,157,107)" fill-opacity="1" d=" M38.638999938964844,-65.76799774169922 C38.638999938964844,-65.76799774169922 41.36600112915039,-119.37200164794922 86.03199768066406,-125.35600280761719 C130.697998046875,-131.33900451660156 156.45399475097656,-85.2699966430664 144.88400268554688,-55.2130012512207 C133.31399536132812,-25.1560001373291 100.76000213623047,-7.385000228881836 69.98300170898438,-21.8439998626709 C45.141998291015625,-33.513999938964844 38.638999938964844,-65.76799774169922 38.638999938964844,-65.76799774169922z"></path></g><g opacity="1" transform="matrix(1,0,0,1,0,0)"><path fill="rgb(247,213,191)" fill-opacity="1" d=" M56.49599838256836,-114.06199645996094 C91.33499908447266,-140.23199462890625 123.78399658203125,-117.22799682617188 136.66900634765625,-92.83200073242188 C149.5540008544922,-68.43599700927734 107.80799865722656,-35.79800033569336 76.23500061035156,-31.663999557495117 C58.62699890136719,-29.357999801635742 14.399999618530273,-82.44200134277344 56.49599838256836,-114.06199645996094z"></path><path stroke-linecap="butt" stroke-linejoin="miter" fill-opacity="0" stroke-miterlimit="10" stroke="rgb(206,119,95)" stroke-opacity="1" stroke-width="10.987" d=" M56.49599838256836,-114.06199645996094 C91.33499908447266,-140.23199462890625 123.78399658203125,-117.22799682617188 136.66900634765625,-92.83200073242188 C149.5540008544922,-68.43599700927734 107.80799865722656,-35.79800033569336 76.23500061035156,-31.663999557495117 C58.62699890136719,-29.357999801635742 14.399999618530273,-82.44200134277344 56.49599838256836,-114.06199645996094z"></path></g><g opacity="1" transform="matrix(1,0,0,1,0,0)"><path fill="rgb(237,171,126)" fill-opacity="1" d=" M77.16600036621094,-119.50199890136719 C106.56300354003906,-106.73500061035156 119.86900329589844,-85.875 117.67900085449219,-57.22200012207031 C117.67900085449219,-57.22200012207031 132.125,-70.50399780273438 132.31399536132812,-77.95500183105469 C124.33999633789062,-124.05799865722656 77.16600036621094,-119.50199890136719 77.16600036621094,-119.50199890136719z"></path></g><g opacity="1" transform="matrix(1,0,0,1,0,0)"><path stroke-linecap="round" stroke-linejoin="round" fill-opacity="0" stroke="rgb(122,54,41)" stroke-opacity="1" stroke-width="13.409" d=" M76.47599792480469,-29.135000228881836 C107.26100158691406,-39.236000061035156 132.41099548339844,-55.14899826049805 143.55799865722656,-85.49600219726562"></path></g></g></g><g style="display: block;" transform="matrix(0.9902680516242981,0.13917312026023865,-0.13917312026023865,0.9902680516242981,276.1767272949219,256.9902038574219)" opacity="1"><g opacity="1" transform="matrix(1,0,0,1,0,0)"><path fill="rgb(229,157,107)" fill-opacity="1" d=" M-82.59300231933594,-100.53199768066406 C-123.42900085449219,-88.00299835205078 -139.09300231933594,-21.791000366210938 -117.02200317382812,-1.1440000534057617 C-94.95099639892578,19.503000259399414 -43.689998626708984,14.520000457763672 -23.042999267578125,-9.687000274658203 C-6.377999782562256,-29.225000381469727 -41.75699996948242,-113.06099700927734 -82.59300231933594,-100.53199768066406z"></path></g><g opacity="1" transform="matrix(1,0,0,1,0,0)"><path fill="rgb(247,213,191)" fill-opacity="1" d=" M-122.64299774169922,-24.033000946044922 C-122.64299774169922,-24.033000946044922 -139.468994140625,-85.68499755859375 -82.59300231933594,-97.68399810791016 C-38.38800048828125,-107.01000213623047 -13.654999732971191,-64.552001953125 -18.488000869750977,-36.26599884033203 C-20.775999069213867,-22.874000549316406 -46.85599899291992,-7.070000171661377 -79.97599792480469,-9.663999557495117 C-113.09600067138672,-12.258000373840332 -122.64299774169922,-24.033000946044922 -122.64299774169922,-24.033000946044922z"></path><path stroke-linecap="butt" stroke-linejoin="miter" fill-opacity="0" stroke-miterlimit="10" stroke="rgb(206,119,95)" stroke-opacity="1" stroke-width="10.906" d=" M-122.64299774169922,-24.033000946044922 C-122.64299774169922,-24.033000946044922 -139.468994140625,-85.68499755859375 -82.59300231933594,-97.68399810791016 C-38.38800048828125,-107.01000213623047 -13.654999732971191,-64.552001953125 -18.488000869750977,-36.26599884033203 C-20.775999069213867,-22.874000549316406 -46.85599899291992,-7.070000171661377 -79.97599792480469,-9.663999557495117 C-113.09600067138672,-12.258000373840332 -122.64299774169922,-24.033000946044922 -122.64299774169922,-24.033000946044922z"></path></g><g opacity="1" transform="matrix(1,0,0,1,0,0)"><path fill="rgb(237,171,126)" fill-opacity="1" d=" M-56.268001556396484,-90.13899993896484 C-33.005001068115234,-65.4229965209961 -27.868000030517578,-41.362998962402344 -48.43600082397461,-18.231000900268555 C-48.43600082397461,-18.231000900268555 -29.450000762939453,-25.113000869750977 -26.128000259399414,-33.18199920654297 C-13.909000396728516,-75.00800323486328 -56.268001556396484,-90.13899993896484 -56.268001556396484,-90.13899993896484z"></path></g><g opacity="1" transform="matrix(1,0,0,1,0,0)"><path stroke-linecap="round" stroke-linejoin="round" fill-opacity="0" stroke="rgb(122,54,41)" stroke-opacity="1" stroke-width="13.31" d=" M-121.197998046875,-21.35099983215332 C-93.63800048828125,-0.5199999809265137 -32.27299880981445,-11.37399959564209 -16.312000274658203,-31.235000610351562"></path></g></g><g style="display: none;"><g><g><g><path stroke-linecap="butt" stroke-linejoin="miter" fill-opacity="0" stroke-miterlimit="10"></path></g><g><path stroke-linecap="round" stroke-linejoin="round" fill-opacity="0"></path></g></g><g><path stroke-linecap="round" stroke-linejoin="round" fill-opacity="0"></path></g><g><path stroke-linecap="round" stroke-linejoin="round" fill-opacity="0"></path></g></g></g><g style="display: none;"><g><g><path></path></g><g><path></path><path stroke-linecap="butt" stroke-linejoin="miter" fill-opacity="0" stroke-miterlimit="10"></path></g><g><path></path></g><g><path stroke-linecap="round" stroke-linejoin="round" fill-opacity="0"></path></g></g></g><g style="display: none;"><g><path></path></g><g><path></path><path stroke-linecap="butt" stroke-linejoin="miter" fill-opacity="0" stroke-miterlimit="10"></path></g><g><path></path></g><g><path stroke-linecap="round" stroke-linejoin="round" fill-opacity="0"></path></g></g><g style="display: block;" transform="matrix(0.9925461411476135,0.12186934053897858,-0.12186934053897858,0.9925461411476135,276.9250183105469,257.45843505859375)" opacity="1"><g opacity="1" transform="matrix(1,0,0,1,0,0)"><path stroke-linecap="butt" stroke-linejoin="miter" fill-opacity="0" stroke-miterlimit="10" stroke="rgb(184,99,72)" stroke-opacity="1" stroke-width="13.029" d=" M-94.06999969482422,-203.0500030517578 C-198.4720001220703,-169.38800048828125 -224.28900146484375,-47.18199920654297 -185.8260040283203,52.47800064086914 C-148.06199645996094,150.32699584960938 7.943999767303467,183.2220001220703 99.2030029296875,116.28800201416016 C193.9250030517578,46.81399917602539 159.80299377441406,-83.99400329589844 146.21499633789062,-112.98999786376953 C132.6269989013672,-141.98599243164062 72.89299774169922,-256.8840026855469 -94.06999969482422,-203.0500030517578z"></path></g></g><g style="display: block;" transform="matrix(1,0,0,1,267,250)" opacity="1"><g opacity="1" transform="matrix(1,0,0,1,0,0)"><g opacity="1" transform="matrix(1,0,0,1,0,0)"><path fill="rgb(244,186,146)" fill-opacity="1" d=" M-137.97900390625,109.71700286865234 C-145.9510040283203,103.66699981689453 -147.25,57.75 -176.10800170898438,62.30799865722656 C-187.3820037841797,64.08899688720703 -173.08099365234375,118.77799987792969 -173.08099365234375,118.77799987792969 C-173.08099365234375,118.77799987792969 -181.1510009765625,164.60699462890625 -160.37600708007812,173.81100463867188 C-139.6009979248047,183.01499938964844 -113.37899780273438,173.21299743652344 -109.61100006103516,162.41200256347656 C-100.41899871826172,136.06399536132812 -126.38600158691406,118.51499938964844 -137.97900390625,109.71700286865234z"></path><path stroke-linecap="round" stroke-linejoin="round" fill-opacity="0" stroke="rgb(184,99,72)" stroke-opacity="1" stroke-width="10.568" d=" M-137.97900390625,109.71700286865234 C-145.9510040283203,103.66699981689453 -147.25,57.75 -176.10800170898438,62.30799865722656 C-187.3820037841797,64.08899688720703 -173.08099365234375,118.77799987792969 -173.08099365234375,118.77799987792969 C-173.08099365234375,118.77799987792969 -181.1510009765625,164.60699462890625 -160.37600708007812,173.81100463867188 C-139.6009979248047,183.01499938964844 -113.37899780273438,173.21299743652344 -109.61100006103516,162.41200256347656 C-100.41899871826172,136.06399536132812 -126.38600158691406,118.51499938964844 -137.97900390625,109.71700286865234z"></path></g><g opacity="1" transform="matrix(1,0,0,1,0,0)"><path fill="rgb(244,186,146)" fill-opacity="1" d=" M-202.72900390625,82.90399932861328 C-197.5760040283203,77.16600036621094 -186.5780029296875,70.23899841308594 -181.27699279785156,69.27200317382812 C-176.31300354003906,68.36599731445312 -168.7779998779297,70.94999694824219 -167.12100219726562,77.09200286865234 C-163.11000061035156,91.95800018310547 -182.01800537109375,95.9000015258789 -184.53900146484375,106.49099731445312 C-187.8070068359375,120.22100067138672 -179.6840057373047,153.17100524902344 -192.2779998779297,152.86199951171875 C-206.38600158691406,152.51600646972656 -218.50799560546875,100.4749984741211 -202.72900390625,82.90399932861328z"></path><path stroke-linecap="round" stroke-linejoin="round" fill-opacity="0" stroke="rgb(184,99,72)" stroke-opacity="1" stroke-width="10.568" d=" M-202.72900390625,82.90399932861328 C-197.5760040283203,77.16600036621094 -186.5780029296875,70.23899841308594 -181.27699279785156,69.27200317382812 C-176.31300354003906,68.36599731445312 -168.7779998779297,70.94999694824219 -167.12100219726562,77.09200286865234 C-163.11000061035156,91.95800018310547 -182.01800537109375,95.9000015258789 -184.53900146484375,106.49099731445312 C-187.8070068359375,120.22100067138672 -179.6840057373047,153.17100524902344 -192.2779998779297,152.86199951171875 C-206.38600158691406,152.51600646972656 -218.50799560546875,100.4749984741211 -202.72900390625,82.90399932861328z"></path></g><g opacity="1" transform="matrix(1,0,0,1,0,0)"><path fill="rgb(244,202,174)" fill-opacity="1" d=" M-128.91099548339844,160.72799682617188 C-137.04600524902344,168.01100158691406 -141.47000122070312,177.44000244140625 -157.36700439453125,171.7969970703125 C-173.26400756835938,166.1540069580078 -202.23500061035156,158.2550048828125 -202.23500061035156,158.2550048828125 C-202.23500061035156,158.2550048828125 -196.89599609375,130.64599609375 -196.89599609375,130.64599609375 C-196.89599609375,130.64599609375 -175.6479949951172,117.80899810791016 -158.96099853515625,120.91999816894531"></path><path stroke-linecap="round" stroke-linejoin="round" fill-opacity="0" stroke="rgb(184,99,72)" stroke-opacity="1" stroke-width="9.022" d=" M-128.91099548339844,160.72799682617188 C-137.04600524902344,168.01100158691406 -141.47000122070312,177.44000244140625 -157.36700439453125,171.7969970703125 C-173.26400756835938,166.1540069580078 -202.23500061035156,158.2550048828125 -202.23500061035156,158.2550048828125 C-202.23500061035156,158.2550048828125 -196.89599609375,130.64599609375 -196.89599609375,130.64599609375 C-196.89599609375,130.64599609375 -175.6479949951172,117.80899810791016 -158.96099853515625,120.91999816894531"></path></g><g opacity="1" transform="matrix(1,0,0,1,0,0)"><path fill="rgb(244,186,146)" fill-opacity="1" d=" M-229.0469970703125,150.20799255371094 C-231.57000732421875,143.11700439453125 -220.51400756835938,103.44499969482422 -217.3209991455078,98.05599975585938 C-212.32000732421875,89.61499786376953 -202.79600524902344,86.6240005493164 -193.52200317382812,94.89299774169922 C-184.92300415039062,102.55999755859375 -199.1219940185547,134.20399475097656 -198.9499969482422,142.2949981689453 C-198.7779998779297,150.38600158691406 -181.04600524902344,172.70199584960938 -193.8249969482422,171.7519989013672 C-206.60400390625,170.802001953125 -223.85000610351562,164.81500244140625 -229.0469970703125,150.20799255371094z"></path><path stroke-linecap="round" stroke-linejoin="round" fill-opacity="0" stroke="rgb(184,99,72)" stroke-opacity="1" stroke-width="10.568" d=" M-229.0469970703125,150.20799255371094 C-231.57000732421875,143.11700439453125 -220.51400756835938,103.44499969482422 -217.3209991455078,98.05599975585938 C-212.32000732421875,89.61499786376953 -202.79600524902344,86.6240005493164 -193.52200317382812,94.89299774169922 C-184.92300415039062,102.55999755859375 -199.1219940185547,134.20399475097656 -198.9499969482422,142.2949981689453 C-198.7779998779297,150.38600158691406 -181.04600524902344,172.70199584960938 -193.8249969482422,171.7519989013672 C-206.60400390625,170.802001953125 -223.85000610351562,164.81500244140625 -229.0469970703125,150.20799255371094z"></path></g><g opacity="1" transform="matrix(1,0,0,1,0,0)"><path fill="rgb(244,186,146)" fill-opacity="1" d=" M-220.3939971923828,168.99899291992188 C-222.11399841308594,161.71200561523438 -223.81700134277344,109.9739990234375 -202.58799743652344,112.7770004272461 C-185.75,115 -192.74200439453125,160.4459991455078 -192.74200439453125,160.4459991455078 C-192.74200439453125,160.4459991455078 -154.01300048828125,190.59300231933594 -166.11900329589844,194.33099365234375 C-182.9810028076172,199.53799438476562 -217.48199462890625,181.33099365234375 -220.3939971923828,168.99899291992188z"></path><path stroke-linecap="round" stroke-linejoin="round" fill-opacity="0" stroke="rgb(184,99,72)" stroke-opacity="1" stroke-width="10.568" d=" M-220.3939971923828,168.99899291992188 C-222.11399841308594,161.71200561523438 -223.81700134277344,109.9739990234375 -202.58799743652344,112.7770004272461 C-185.75,115 -192.74200439453125,160.4459991455078 -192.74200439453125,160.4459991455078 C-192.74200439453125,160.4459991455078 -154.01300048828125,190.59300231933594 -166.11900329589844,194.33099365234375 C-182.9810028076172,199.53799438476562 -217.48199462890625,181.33099365234375 -220.3939971923828,168.99899291992188z"></path></g><g opacity="1" transform="matrix(1,0,0,1,0,0)"><path fill="rgb(244,202,174)" fill-opacity="1" d=" M-110.56800079345703,154.6699981689453 C-110.56800079345703,154.6699981689453 -84.01000213623047,177.02000427246094 -100.11199951171875,192.06900024414062 C-108.19400024414062,199.6219940185547 -134.8249969482422,201.9010009765625 -153.1510009765625,201.29800415039062 C-171.4770050048828,200.69500732421875 -186.7449951171875,191.6929931640625 -189.4669952392578,178.6790008544922 C-191.10899353027344,170.8280029296875 -192.16799926757812,153.52999877929688 -185.8300018310547,143.14999389648438 C-182.8939971923828,138.3419952392578 -175.68499755859375,136.77000427246094 -169.53399658203125,139.9949951171875 C-166.21800231933594,141.73399353027344 -163.35000610351562,149.08599853515625 -164.59800720214844,156.42100524902344 C-166.39999389648438,167.01100158691406 -162.8470001220703,170.31900024414062 -160.48199462890625,169.66299438476562 C-158.86000061035156,169.21299743652344 -143.91799926757812,160.48199462890625 -131.63900756835938,156.01800537109375"></path><path stroke-linecap="round" stroke-linejoin="round" fill-opacity="0" stroke="rgb(184,99,72)" stroke-opacity="1" stroke-width="10.568" d=" M-110.56800079345703,154.6699981689453 C-110.56800079345703,154.6699981689453 -84.01000213623047,177.02000427246094 -100.11199951171875,192.06900024414062 C-108.19400024414062,199.6219940185547 -134.8249969482422,201.9010009765625 -153.1510009765625,201.29800415039062 C-171.4770050048828,200.69500732421875 -186.7449951171875,191.6929931640625 -189.4669952392578,178.6790008544922 C-191.10899353027344,170.8280029296875 -192.16799926757812,153.52999877929688 -185.8300018310547,143.14999389648438 C-182.8939971923828,138.3419952392578 -175.68499755859375,136.77000427246094 -169.53399658203125,139.9949951171875 C-166.21800231933594,141.73399353027344 -163.35000610351562,149.08599853515625 -164.59800720214844,156.42100524902344 C-166.39999389648438,167.01100158691406 -162.8470001220703,170.31900024414062 -160.48199462890625,169.66299438476562 C-158.86000061035156,169.21299743652344 -143.91799926757812,160.48199462890625 -131.63900756835938,156.01800537109375"></path></g><g opacity="1" transform="matrix(1,0,0,1,0,0)"><path fill="rgb(229,157,107)" fill-opacity="1" d=" M-181.7050018310547,183.9320068359375 C-181.7050018310547,183.9320068359375 -166.00100708007812,190.8699951171875 -139.86199951171875,189.49899291992188 C-101.75,187.5 -107.00800323486328,165.8509979248047 -107.00800323486328,165.8509979248047 C-107.00800323486328,165.8509979248047 -90.41300201416016,181.3300018310547 -106.44000244140625,191.9219970703125 C-113.09200286865234,196.3179931640625 -141.43899536132812,201.0800018310547 -161.80999755859375,196.1199951171875 C-177.15899658203125,192.3820037841797 -181.7050018310547,183.9320068359375 -181.7050018310547,183.9320068359375z"></path></g></g></g><g style="display: block;" transform="matrix(-1,0,0,1,253.15399169921875,241)" opacity="1"><g opacity="1" transform="matrix(1,0,0,1,0,0)"><g opacity="1" transform="matrix(1,0,0,1,0,0)"><path fill="rgb(244,186,146)" fill-opacity="1" d=" M-137.97900390625,109.71700286865234 C-145.9510040283203,103.66699981689453 -147.25,57.75 -176.10800170898438,62.30799865722656 C-187.3820037841797,64.08899688720703 -173.08099365234375,118.77799987792969 -173.08099365234375,118.77799987792969 C-173.08099365234375,118.77799987792969 -181.1510009765625,164.60699462890625 -160.37600708007812,173.81100463867188 C-139.6009979248047,183.01499938964844 -113.37899780273438,173.21299743652344 -109.61100006103516,162.41200256347656 C-100.41899871826172,136.06399536132812 -126.38600158691406,118.51499938964844 -137.97900390625,109.71700286865234z"></path><path stroke-linecap="round" stroke-linejoin="round" fill-opacity="0" stroke="rgb(184,99,72)" stroke-opacity="1" stroke-width="10.568" d=" M-137.97900390625,109.71700286865234 C-145.9510040283203,103.66699981689453 -147.25,57.75 -176.10800170898438,62.30799865722656 C-187.3820037841797,64.08899688720703 -173.08099365234375,118.77799987792969 -173.08099365234375,118.77799987792969 C-173.08099365234375,118.77799987792969 -181.1510009765625,164.60699462890625 -160.37600708007812,173.81100463867188 C-139.6009979248047,183.01499938964844 -113.37899780273438,173.21299743652344 -109.61100006103516,162.41200256347656 C-100.41899871826172,136.06399536132812 -126.38600158691406,118.51499938964844 -137.97900390625,109.71700286865234z"></path></g><g opacity="1" transform="matrix(1,0,0,1,0,0)"><path fill="rgb(244,186,146)" fill-opacity="1" d=" M-202.72900390625,82.90399932861328 C-197.5760040283203,77.16600036621094 -186.5780029296875,70.23899841308594 -181.27699279785156,69.27200317382812 C-176.31300354003906,68.36599731445312 -168.7779998779297,70.94999694824219 -167.12100219726562,77.09200286865234 C-163.11000061035156,91.95800018310547 -182.01800537109375,95.9000015258789 -184.53900146484375,106.49099731445312 C-187.8070068359375,120.22100067138672 -179.6840057373047,153.17100524902344 -192.2779998779297,152.86199951171875 C-206.38600158691406,152.51600646972656 -218.50799560546875,100.4749984741211 -202.72900390625,82.90399932861328z"></path><path stroke-linecap="round" stroke-linejoin="round" fill-opacity="0" stroke="rgb(184,99,72)" stroke-opacity="1" stroke-width="10.568" d=" M-202.72900390625,82.90399932861328 C-197.5760040283203,77.16600036621094 -186.5780029296875,70.23899841308594 -181.27699279785156,69.27200317382812 C-176.31300354003906,68.36599731445312 -168.7779998779297,70.94999694824219 -167.12100219726562,77.09200286865234 C-163.11000061035156,91.95800018310547 -182.01800537109375,95.9000015258789 -184.53900146484375,106.49099731445312 C-187.8070068359375,120.22100067138672 -179.6840057373047,153.17100524902344 -192.2779998779297,152.86199951171875 C-206.38600158691406,152.51600646972656 -218.50799560546875,100.4749984741211 -202.72900390625,82.90399932861328z"></path></g><g opacity="1" transform="matrix(1,0,0,1,0,0)"><path fill="rgb(244,202,174)" fill-opacity="1" d=" M-128.91099548339844,160.72799682617188 C-137.04600524902344,168.01100158691406 -141.47000122070312,177.44000244140625 -157.36700439453125,171.7969970703125 C-173.26400756835938,166.1540069580078 -202.23500061035156,158.2550048828125 -202.23500061035156,158.2550048828125 C-202.23500061035156,158.2550048828125 -196.89599609375,130.64599609375 -196.89599609375,130.64599609375 C-196.89599609375,130.64599609375 -175.6479949951172,117.80899810791016 -158.96099853515625,120.91999816894531"></path><path stroke-linecap="round" stroke-linejoin="round" fill-opacity="0" stroke="rgb(184,99,72)" stroke-opacity="1" stroke-width="9.022" d=" M-128.91099548339844,160.72799682617188 C-137.04600524902344,168.01100158691406 -141.47000122070312,177.44000244140625 -157.36700439453125,171.7969970703125 C-173.26400756835938,166.1540069580078 -202.23500061035156,158.2550048828125 -202.23500061035156,158.2550048828125 C-202.23500061035156,158.2550048828125 -196.89599609375,130.64599609375 -196.89599609375,130.64599609375 C-196.89599609375,130.64599609375 -175.6479949951172,117.80899810791016 -158.96099853515625,120.91999816894531"></path></g><g opacity="1" transform="matrix(1,0,0,1,0,0)"><path fill="rgb(244,186,146)" fill-opacity="1" d=" M-229.0469970703125,150.20799255371094 C-231.57000732421875,143.11700439453125 -220.51400756835938,103.44499969482422 -217.3209991455078,98.05599975585938 C-212.32000732421875,89.61499786376953 -202.79600524902344,86.6240005493164 -193.52200317382812,94.89299774169922 C-184.92300415039062,102.55999755859375 -199.1219940185547,134.20399475097656 -198.9499969482422,142.2949981689453 C-198.7779998779297,150.38600158691406 -181.04600524902344,172.70199584960938 -193.8249969482422,171.7519989013672 C-206.60400390625,170.802001953125 -223.85000610351562,164.81500244140625 -229.0469970703125,150.20799255371094z"></path><path stroke-linecap="round" stroke-linejoin="round" fill-opacity="0" stroke="rgb(184,99,72)" stroke-opacity="1" stroke-width="10.568" d=" M-229.0469970703125,150.20799255371094 C-231.57000732421875,143.11700439453125 -220.51400756835938,103.44499969482422 -217.3209991455078,98.05599975585938 C-212.32000732421875,89.61499786376953 -202.79600524902344,86.6240005493164 -193.52200317382812,94.89299774169922 C-184.92300415039062,102.55999755859375 -199.1219940185547,134.20399475097656 -198.9499969482422,142.2949981689453 C-198.7779998779297,150.38600158691406 -181.04600524902344,172.70199584960938 -193.8249969482422,171.7519989013672 C-206.60400390625,170.802001953125 -223.85000610351562,164.81500244140625 -229.0469970703125,150.20799255371094z"></path></g><g opacity="1" transform="matrix(1,0,0,1,0,0)"><path fill="rgb(244,186,146)" fill-opacity="1" d=" M-220.3939971923828,168.99899291992188 C-222.11399841308594,161.71200561523438 -223.81700134277344,109.9739990234375 -202.58799743652344,112.7770004272461 C-185.75,115 -192.74200439453125,160.4459991455078 -192.74200439453125,160.4459991455078 C-192.74200439453125,160.4459991455078 -154.01300048828125,190.59300231933594 -166.11900329589844,194.33099365234375 C-182.9810028076172,199.53799438476562 -217.48199462890625,181.33099365234375 -220.3939971923828,168.99899291992188z"></path><path stroke-linecap="round" stroke-linejoin="round" fill-opacity="0" stroke="rgb(184,99,72)" stroke-opacity="1" stroke-width="10.568" d=" M-220.3939971923828,168.99899291992188 C-222.11399841308594,161.71200561523438 -223.81700134277344,109.9739990234375 -202.58799743652344,112.7770004272461 C-185.75,115 -192.74200439453125,160.4459991455078 -192.74200439453125,160.4459991455078 C-192.74200439453125,160.4459991455078 -154.01300048828125,190.59300231933594 -166.11900329589844,194.33099365234375 C-182.9810028076172,199.53799438476562 -217.48199462890625,181.33099365234375 -220.3939971923828,168.99899291992188z"></path></g><g opacity="1" transform="matrix(1,0,0,1,0,0)"><path fill="rgb(244,202,174)" fill-opacity="1" d=" M-110.56800079345703,154.6699981689453 C-110.56800079345703,154.6699981689453 -84.01000213623047,177.02000427246094 -100.11199951171875,192.06900024414062 C-108.19400024414062,199.6219940185547 -134.8249969482422,201.9010009765625 -153.1510009765625,201.29800415039062 C-171.4770050048828,200.69500732421875 -186.7449951171875,191.6929931640625 -189.4669952392578,178.6790008544922 C-191.10899353027344,170.8280029296875 -192.16799926757812,153.52999877929688 -185.8300018310547,143.14999389648438 C-182.8939971923828,138.3419952392578 -175.68499755859375,136.77000427246094 -169.53399658203125,139.9949951171875 C-166.21800231933594,141.73399353027344 -163.35000610351562,149.08599853515625 -164.59800720214844,156.42100524902344 C-166.39999389648438,167.01100158691406 -162.8470001220703,170.31900024414062 -160.48199462890625,169.66299438476562 C-158.86000061035156,169.21299743652344 -143.91799926757812,160.48199462890625 -131.63900756835938,156.01800537109375"></path><path stroke-linecap="round" stroke-linejoin="round" fill-opacity="0" stroke="rgb(184,99,72)" stroke-opacity="1" stroke-width="10.568" d=" M-110.56800079345703,154.6699981689453 C-110.56800079345703,154.6699981689453 -84.01000213623047,177.02000427246094 -100.11199951171875,192.06900024414062 C-108.19400024414062,199.6219940185547 -134.8249969482422,201.9010009765625 -153.1510009765625,201.29800415039062 C-171.4770050048828,200.69500732421875 -186.7449951171875,191.6929931640625 -189.4669952392578,178.6790008544922 C-191.10899353027344,170.8280029296875 -192.16799926757812,153.52999877929688 -185.8300018310547,143.14999389648438 C-182.8939971923828,138.3419952392578 -175.68499755859375,136.77000427246094 -169.53399658203125,139.9949951171875 C-166.21800231933594,141.73399353027344 -163.35000610351562,149.08599853515625 -164.59800720214844,156.42100524902344 C-166.39999389648438,167.01100158691406 -162.8470001220703,170.31900024414062 -160.48199462890625,169.66299438476562 C-158.86000061035156,169.21299743652344 -143.91799926757812,160.48199462890625 -131.63900756835938,156.01800537109375"></path></g><g opacity="1" transform="matrix(1,0,0,1,0,0)"><path fill="rgb(229,157,107)" fill-opacity="1" d=" M-181.7050018310547,183.9320068359375 C-181.7050018310547,183.9320068359375 -166.00100708007812,190.8699951171875 -139.86199951171875,189.49899291992188 C-101.75,187.5 -107.00800323486328,165.8509979248047 -107.00800323486328,165.8509979248047 C-107.00800323486328,165.8509979248047 -90.41300201416016,181.3300018310547 -106.44000244140625,191.9219970703125 C-113.09200286865234,196.3179931640625 -141.43899536132812,201.0800018310547 -161.80999755859375,196.1199951171875 C-177.15899658203125,192.3820037841797 -181.7050018310547,183.9320068359375 -181.7050018310547,183.9320068359375z"></path></g></g></g></g></svg>