<svg xmlns="http://www.w3.org/2000/svg" xmlns:xlink="http://www.w3.org/1999/xlink" viewBox="0 0 512 512" width="512" height="512" style="width: 100%; height: 100%; transform: translate3d(0,0,0); content-visibility: visible;" preserveAspectRatio="xMidYMid meet"><defs><clipPath id="__lottie_element_2"><rect width="512" height="512" x="0" y="0"></rect></clipPath><radialGradient id="__lottie_element_12" spreadMethod="pad" gradientUnits="userSpaceOnUse" cx="154.62600708007812" cy="112.0780029296875" r="419.27683467377534" fx="154.62600708007812" fy="112.0780029296875"><stop offset="0%" stop-color="rgb(245,147,86)"></stop><stop offset="50%" stop-color="rgb(245,147,86)"></stop><stop offset="61%" stop-color="rgb(245,147,86)"></stop><stop offset="81%" stop-color="rgb(250,170,120)"></stop><stop offset="100%" stop-color="rgb(255,192,155)"></stop></radialGradient><radialGradient id="__lottie_element_13" spreadMethod="pad" gradientUnits="userSpaceOnUse" cx="-154.25100708007812" cy="-123.7030029296875" r="454.03201872687816" fx="-154.25100708007812" fy="-123.7030029296875"><stop offset="0%" stop-color="rgb(249,223,201)"></stop><stop offset="48%" stop-color="rgb(249,202,171)"></stop><stop offset="100%" stop-color="rgb(250,181,140)"></stop></radialGradient></defs><g clip-path="url(#__lottie_element_2)"><g style="display: block;" transform="matrix(0.9396787881851196,0,0,0.9200000166893005,22.443763732910156,11.35999584197998)" opacity="1"><g opacity="1" transform="matrix(1,0,0,1,247.53500366210938,262.3330078125)"><path fill="url(#__lottie_element_12)" fill-opacity="1" d=" M-208.1909942626953,14.9399995803833 C-210.98800659179688,70.0770034790039 -172.6959991455078,211.56500244140625 -20.575000762939453,218.06500244140625 C160.11000061035156,225.78599548339844 210.98800659179688,57.189998626708984 177.18299865722656,-67.93499755859375 C143.3780059814453,-193.06100463867188 27.711000442504883,-225.78599548339844 -56.06999969482422,-207.68600463867188 C-206.50100708007812,-175.18499755859375 -206.22000122070312,-23.902000427246094 -208.1909942626953,14.9399995803833z"></path></g><g opacity="1" transform="matrix(1,0,0,1,247.53500366210938,262.3330078125)"><path stroke-linecap="butt" stroke-linejoin="miter" fill-opacity="0" stroke-miterlimit="10" stroke="rgb(183,99,57)" stroke-opacity="1" stroke-width="14" d=" M-208.1909942626953,14.9399995803833 C-210.98800659179688,70.0770034790039 -172.6959991455078,211.56500244140625 -20.575000762939453,218.06500244140625 C160.11000061035156,225.78599548339844 210.98800659179688,57.189998626708984 177.18299865722656,-67.93499755859375 C143.3780059814453,-193.06100463867188 27.711000442504883,-225.78599548339844 -56.06999969482422,-207.68600463867188 C-206.50100708007812,-175.18499755859375 -206.22000122070312,-23.902000427246094 -208.1909942626953,14.9399995803833z"></path></g><g opacity="1" transform="matrix(1,0,0,1,245.78700256347656,252.87899780273438)"><path fill="url(#__lottie_element_13)" fill-opacity="1" d=" M-187.4080047607422,13.10099983215332 C-189.92599487304688,61.448001861572266 -155.45599365234375,185.51199340820312 -18.520999908447266,191.21099853515625 C144.1269989013672,197.9810028076172 189.92599487304688,50.14799880981445 159.49600219726562,-59.56800079345703 C129.0659942626953,-169.28500366210938 24.94499969482422,-197.9810028076172 -50.47200012207031,-182.10899353027344 C-185.88600158691406,-153.61099243164062 -185.63400268554688,-20.957000732421875 -187.4080047607422,13.10099983215332z"></path></g></g><g style="display: block;" transform="matrix(0.9396787881851196,0,0,0.9200000166893005,200.94232177734375,104.51458740234375)" opacity="0.35000000000000003"><g opacity="1" transform="matrix(1,0,0,1,65.697998046875,48.367000579833984)"><path stroke-linecap="round" stroke-linejoin="round" fill-opacity="0" stroke="rgb(244,151,110)" stroke-opacity="0.72" stroke-width="12.138" d=" M4.539999961853027,-18.023000717163086 C4.539999961853027,-18.023000717163086 -0.9779999852180481,-13.36400032043457 -2.9590001106262207,-0.8460000157356262 C-4.539999961853027,9.145999908447266 -1.2669999599456787,18.023000717163086 -1.2669999599456787,18.023000717163086"></path></g><g opacity="1" transform="matrix(1,0,0,1,31.457000732421875,56.67599868774414)"><path stroke-linecap="round" stroke-linejoin="round" fill-opacity="0" stroke="rgb(244,151,110)" stroke-opacity="0.74" stroke-width="12.138" d=" M1.1119999885559082,-9.34000015258789 C1.1119999885559082,-9.34000015258789 -1.1119999885559082,-1.8669999837875366 -1.1119999885559082,1.86899995803833 C-1.1119999885559082,5.605000019073486 -0.3700000047683716,9.34000015258789 -0.3700000047683716,9.34000015258789"></path></g></g><g style="display: block;" transform="matrix(0.9396787881851196,0,0,0.9200000166893005,55.38702392578125,110.35015106201172)" opacity="1"><g opacity="1" transform="matrix(1,0,0,1,0,5.000003814697266)"><g opacity="1" transform="matrix(0.9994725584983826,0.03247486799955368,-0.03247486799955368,0.9994725584983826,2.06817626953125,-3.0953102111816406)"><g opacity="1" transform="matrix(1,0,0,1,98.00700378417969,74.53900146484375)"><path stroke-linecap="round" stroke-linejoin="round" fill-opacity="0" stroke="rgb(244,151,110)" stroke-opacity="1" stroke-width="18.796" d=" M51.016998291015625,-14.982999801635742 C51.016998291015625,-14.982999801635742 25.982999801635742,0.9480000138282776 -2.8450000286102295,8.154999732971191 C-21.472999572753906,12.812000274658203 -51.016998291015625,14.982999801635742 -51.016998291015625,14.982999801635742"></path></g></g><g opacity="1" transform="matrix(1.1654200553894043,0,0,1.1343399286270142,-51.245635986328125,-21.109195709228516)"><g opacity="1" transform="matrix(1,0,0,1,300.93701171875,77.29000091552734)"><path stroke-linecap="round" stroke-linejoin="round" fill-opacity="0" stroke="rgb(244,151,110)" stroke-opacity="1" stroke-width="18.796" d=" M-43.05099868774414,-28.82699966430664 C-43.05099868774414,-28.82699966430664 -28.257999420166016,-1.5169999599456787 6.26800012588501,15.517000198364258 C32.500999450683594,28.458999633789062 43.051998138427734,28.82699966430664 43.051998138427734,28.82699966430664"></path></g></g></g></g><g style="display: block;" transform="matrix(0.9396787881851196,0,0,0.9200000166893005,22.443763732910156,11.35999584197998)" opacity="1"><g opacity="1" transform="matrix(1,0,0,1,247.53500366210938,262.3330078125)"><path stroke-linecap="butt" stroke-linejoin="miter" fill-opacity="0" stroke-miterlimit="10" stroke="rgb(183,99,57)" stroke-opacity="1" stroke-width="14" d=" M-208.1909942626953,14.9399995803833 C-210.98800659179688,70.0770034790039 -172.6959991455078,211.56500244140625 -20.575000762939453,218.06500244140625 C160.11000061035156,225.78599548339844 210.98800659179688,57.189998626708984 177.18299865722656,-67.93499755859375 C143.3780059814453,-193.06100463867188 27.711000442504883,-225.78599548339844 -56.06999969482422,-207.68600463867188 C-206.50100708007812,-175.18499755859375 -206.22000122070312,-23.902000427246094 -208.1909942626953,14.9399995803833z"></path></g></g><g style="display: block;" transform="matrix(0.9396787881851196,0,0,0.9200000166893005,162.20407104492188,271.9886474609375)" opacity="1"><g opacity="1" transform="matrix(1.0800000429153442,0,0,1.0800000429153442,-6.733604431152344,-10.936164855957031)"><g opacity="1" transform="matrix(1,0,0,1,85.34100341796875,66.88800048828125)"><path fill="rgb(76,36,36)" fill-opacity="1" d=" M-11.628999710083008,12.906999588012695 C10.553000450134277,9.871999740600586 25.753999710083008,28.14299964904785 34.875999450683594,23.584999084472656 C45.40700149536133,18.32200050354004 46.59600067138672,3.13700008392334 32.887001037597656,-10.715999603271484 C17.954999923706055,-25.804000854492188 -7.241000175476074,-28.14299964904785 -24.577999114990234,-20.957000732421875 C-44.224998474121094,-12.814000129699707 -45.720001220703125,1.8760000467300415 -46.198001861572266,10.904999732971191 C-46.59600067138672,18.398000717163086 -42.715999603271484,19.891000747680664 -36.50899887084961,19.20599937438965 C-26.68600082397461,18.121000289916992 -25.986000061035156,14.871000289916992 -11.628999710083008,12.906999588012695z"></path><path stroke-linecap="round" stroke-linejoin="round" fill-opacity="0" stroke="rgb(244,144,103)" stroke-opacity="1" stroke-width="24" d=" M-11.628999710083008,12.906999588012695 C10.553000450134277,9.871999740600586 25.753999710083008,28.14299964904785 34.875999450683594,23.584999084472656 C45.40700149536133,18.32200050354004 46.59600067138672,3.13700008392334 32.887001037597656,-10.715999603271484 C17.954999923706055,-25.804000854492188 -7.241000175476074,-28.14299964904785 -24.577999114990234,-20.957000732421875 C-44.224998474121094,-12.814000129699707 -45.720001220703125,1.8760000467300415 -46.198001861572266,10.904999732971191 C-46.59600067138672,18.398000717163086 -42.715999603271484,19.891000747680664 -36.50899887084961,19.20599937438965 C-26.68600082397461,18.121000289916992 -25.986000061035156,14.871000289916992 -11.628999710083008,12.906999588012695z"></path></g></g><g opacity="1" transform="matrix(1.1687099933624268,0,0,1.1687099933624268,85.34100341796875,66.88800048828125)"><path fill="rgb(76,36,36)" fill-opacity="1" d=" M-11.628999710083008,12.906999588012695 C10.553000450134277,9.871999740600586 25.753999710083008,28.14299964904785 34.875999450683594,23.584999084472656 C45.40700149536133,18.32200050354004 46.59600067138672,3.13700008392334 32.887001037597656,-10.715999603271484 C17.954999923706055,-25.804000854492188 -7.241000175476074,-28.14299964904785 -24.577999114990234,-20.957000732421875 C-44.224998474121094,-12.814000129699707 -45.720001220703125,1.8760000467300415 -46.198001861572266,10.904999732971191 C-46.59600067138672,18.398000717163086 -42.715999603271484,19.891000747680664 -36.50899887084961,19.20599937438965 C-26.68600082397461,18.121000289916992 -25.986000061035156,14.871000289916992 -11.628999710083008,12.906999588012695z"></path><path stroke-linecap="round" stroke-linejoin="round" fill-opacity="0" stroke="rgb(81,21,21)" stroke-opacity="1" stroke-width="13" d=" M-11.628999710083008,12.906999588012695 C10.553000450134277,9.871999740600586 25.753999710083008,28.14299964904785 34.875999450683594,23.584999084472656 C45.40700149536133,18.32200050354004 46.59600067138672,3.13700008392334 32.887001037597656,-10.715999603271484 C17.954999923706055,-25.804000854492188 -7.241000175476074,-28.14299964904785 -24.577999114990234,-20.957000732421875 C-44.224998474121094,-12.814000129699707 -45.720001220703125,1.8760000467300415 -46.198001861572266,10.904999732971191 C-46.59600067138672,18.398000717163086 -42.715999603271484,19.891000747680664 -36.50899887084961,19.20599937438965 C-26.68600082397461,18.121000289916992 -25.986000061035156,14.871000289916992 -11.628999710083008,12.906999588012695z"></path></g><g opacity="1" transform="matrix(1,0,0,1,83.74099731445312,76.65499877929688)"><path fill="rgb(218,18,69)" fill-opacity="1" d=" M12.621000289916992,-10.829999923706055 C-13.300999641418457,-18.076000213623047 -30.010000228881836,-6.4710001945495605 -35.10100173950195,-1.1460000276565552 C-40.97800064086914,6.934999942779541 -42.08700180053711,9.095000267028809 -36.92399978637695,9.701000213623047 C-28.933000564575195,10.871000289916992 -12.770000457763672,1.6829999685287476 -0.5839999914169312,4.098999977111816 C24.15399932861328,8.940999984741211 36.38800048828125,17.295000076293945 37.887001037597656,14.208999633789062 C40.07099914550781,10.887999534606934 34.472999572753906,-4.560999870300293 12.621000289916992,-10.829999923706055z"></path><path stroke-linecap="round" stroke-linejoin="round" fill-opacity="0" stroke="rgb(166,26,33)" stroke-opacity="1" stroke-width="7.309" d=" M12.621000289916992,-10.829999923706055 C-13.300999641418457,-18.076000213623047 -30.010000228881836,-6.4710001945495605 -35.10100173950195,-1.1460000276565552 C-40.97800064086914,6.934999942779541 -42.08700180053711,9.095000267028809 -36.92399978637695,9.701000213623047 C-28.933000564575195,10.871000289916992 -12.770000457763672,1.6829999685287476 -0.5839999914169312,4.098999977111816 C24.15399932861328,8.940999984741211 36.38800048828125,17.295000076293945 37.887001037597656,14.208999633789062 C40.07099914550781,10.887999534606934 34.472999572753906,-4.560999870300293 12.621000289916992,-10.829999923706055z"></path></g><g opacity="1" transform="matrix(1,0,0,1,82.26300048828125,112.67900085449219)"><path stroke-linecap="round" stroke-linejoin="round" fill-opacity="0" stroke="rgb(244,151,110)" stroke-opacity="1" stroke-width="18.796" d=" M-18.159000396728516,8.432999610900879 C-18.159000396728516,8.432999610900879 -12.28499984741211,3.6760001182556152 -3.1429998874664307,3.4690001010894775 C11.071000099182129,3.1459999084472656 19.159000396728516,11.854000091552734 19.159000396728516,11.854000091552734"></path></g><g opacity="1" transform="matrix(1.1687099933624268,0,0,1.1687099933624268,85.34100341796875,66.88800048828125)"><path stroke-linecap="round" stroke-linejoin="round" fill-opacity="0" stroke="rgb(81,21,21)" stroke-opacity="1" stroke-width="13" d=" M-11.628999710083008,12.906999588012695 C10.553000450134277,9.871999740600586 25.753999710083008,28.14299964904785 34.875999450683594,23.584999084472656 C45.40700149536133,18.32200050354004 46.59600067138672,3.13700008392334 32.887001037597656,-10.715999603271484 C17.954999923706055,-25.804000854492188 -7.241000175476074,-28.14299964904785 -24.577999114990234,-20.957000732421875 C-44.224998474121094,-12.814000129699707 -45.720001220703125,1.8760000467300415 -46.198001861572266,10.904999732971191 C-46.59600067138672,18.398000717163086 -42.715999603271484,19.891000747680664 -36.50899887084961,19.20599937438965 C-26.68600082397461,18.121000289916992 -25.986000061035156,14.871000289916992 -11.628999710083008,12.906999588012695z"></path></g></g><g style="display: block;" transform="matrix(0.9396787881851196,0,0,0.9200000166893005,55.38702392578125,110.35015106201172)" opacity="1"><g opacity="1" transform="matrix(1,0,0,1,109.1969985961914,149.55299377441406)"><path fill="rgb(244,144,103)" fill-opacity="1" d=" M9.21500015258789,48.5620002746582 C60.54399871826172,40.03099822998047 62.82400131225586,0.5220000147819519 48.641998291015625,-23.92099952697754 C34.202999114990234,-48.80799865722656 -0.652999997138977,-57.5099983215332 -33.547000885009766,-38.029998779296875 C-57.209999084472656,-24.017000198364258 -62.82400131225586,0.12200000137090683 -60.72800064086914,13.211000442504883 C-58.95199966430664,24.301000595092773 -44.625,57.5099983215332 9.21500015258789,48.5620002746582z"></path></g><g opacity="1" transform="matrix(1,0,0,1,110.84100341796875,134.44000244140625)"><path fill="rgb(184,179,232)" fill-opacity="1" d=" M9.21500015258789,48.5620002746582 C60.54399871826172,40.03099822998047 62.82400131225586,0.5220000147819519 48.641998291015625,-23.92099952697754 C34.202999114990234,-48.80799865722656 -0.652999997138977,-57.5099983215332 -33.547000885009766,-38.029998779296875 C-57.209999084472656,-24.017000198364258 -62.82400131225586,0.12200000137090683 -60.72800064086914,13.211000442504883 C-58.95199966430664,24.301000595092773 -44.625,57.5099983215332 9.21500015258789,48.5620002746582z"></path></g><g opacity="1" transform="matrix(1,0,0,1,110.84100341796875,134.44000244140625)"><path stroke-linecap="butt" stroke-linejoin="miter" fill-opacity="0" stroke-miterlimit="10" stroke="rgb(55,55,96)" stroke-opacity="1" stroke-width="13.438" d=" M9.21500015258789,48.5620002746582 C60.54399871826172,40.03099822998047 62.82400131225586,0.5220000147819519 48.641998291015625,-23.92099952697754 C34.202999114990234,-48.80799865722656 -0.652999997138977,-57.5099983215332 -33.547000885009766,-38.029998779296875 C-57.209999084472656,-24.017000198364258 -62.82400131225586,0.12200000137090683 -60.72800064086914,13.211000442504883 C-58.95199966430664,24.301000595092773 -44.625,57.5099983215332 9.21500015258789,48.5620002746582z"></path></g><g opacity="1" transform="matrix(1,0,0,1,111.10600280761719,132.57000732421875)"><path fill="rgb(255,255,255)" fill-opacity="1" d=" M7.3460001945495605,37.94300079345703 C48.09000015258789,29.66699981689453 50.194000244140625,-0.19300000369548798 38.87200164794922,-19.58300018310547 C27.343000411987305,-39.32600021362305 -0.5019999742507935,-46.21900177001953 -26.790000915527344,-30.750999450683594 C-45.70100021362305,-19.62299919128418 -50.194000244140625,-0.46799999475479126 -48.52399826049805,9.916999816894531 C-47.10900115966797,18.715999603271484 -33.39799880981445,46.21900177001953 7.3460001945495605,37.94300079345703z"></path></g><g opacity="1" transform="matrix(1.100000023841858,0,0,1.100000023841858,-11.023002624511719,-13.575698852539062)"><g opacity="1" transform="matrix(1,0,0,1,107.0459976196289,135.75799560546875)"><path fill="rgb(31,28,45)" fill-opacity="1" d=" M11.022000312805176,-0.6790000200271606 C11.418000221252441,5.750999927520752 6.803999900817871,11.269000053405762 0.7160000205039978,11.642999649047852 C-5.370999813079834,12.017999649047852 -10.626999855041504,7.109000205993652 -11.02299976348877,0.6790000200271606 C-11.418000221252441,-5.751999855041504 -6.803999900817871,-11.269000053405762 -0.7170000076293945,-11.644000053405762 C5.370999813079834,-12.017999649047852 10.62600040435791,-7.109000205993652 11.022000312805176,-0.6790000200271606z"></path></g><g opacity="1" transform="matrix(1,0,0,1,117.79399871826172,135.76600646972656)"><path fill="rgb(255,255,255)" fill-opacity="1" d=" M6.6620001792907715,-0.4099999964237213 C6.814000129699707,2.056999921798706 3.9539999961853027,4.241000175476074 0.2750000059604645,4.4670000076293945 C-3.4049999713897705,4.693999767303467 -6.511000156402588,2.877000093460083 -6.6620001792907715,0.4099999964237213 C-6.814000129699707,-2.056999921798706 -3.9539999961853027,-4.241000175476074 -0.2750000059604645,-4.4670000076293945 C3.4040000438690186,-4.693999767303467 6.510000228881836,-2.877000093460083 6.6620001792907715,-0.4099999964237213z"></path></g></g><g opacity="1" transform="matrix(1,0,0,1,292.24700927734375,143.88699340820312)"><path fill="rgb(244,144,103)" fill-opacity="1" d=" M6.355000019073486,55.89500045776367 C59.10200119018555,49.95199966430664 63.89500045776367,6.395999908447266 50.999000549316406,-21.611000061035156 C37.86800003051758,-50.12799835205078 2.9570000171661377,-62.12900161743164 -31.724000930786133,-42.816001892089844 C-56.672000885009766,-28.92300033569336 -63.89400100708008,-2.5999999046325684 -62.58100128173828,12.02400016784668 C-61.46799850463867,24.413999557495117 -48.9739990234375,62.12900161743164 6.355000019073486,55.89500045776367z"></path></g><g opacity="1" transform="matrix(1,0,0,1,279.8179931640625,140.9029998779297)"><path fill="rgb(184,179,232)" fill-opacity="1" d=" M-9.638999938964844,-51.66400146484375 C-55.60100173950195,-48.402000427246094 -62.85100173950195,2.4030001163482666 -45.314998626708984,24.02899932861328 C-27.77899932861328,45.65599822998047 6.6529998779296875,54.367000579833984 37.5260009765625,36.869998931884766 C62.85100173950195,22.517000198364258 62.85100173950195,-0.7979999780654907 56.058998107910156,-16.52199935913086 C51.22600173950195,-27.711000442504883 28.45599937438965,-54.367000579833984 -9.638999938964844,-51.66400146484375z"></path></g><g opacity="1" transform="matrix(1,0,0,1,279.8179931640625,140.9029998779297)"><path stroke-linecap="butt" stroke-linejoin="miter" fill-opacity="0" stroke-miterlimit="10" stroke="rgb(55,55,96)" stroke-opacity="1" stroke-width="13.178" d=" M-9.638999938964844,-51.66400146484375 C-55.60100173950195,-48.402000427246094 -62.85100173950195,2.4030001163482666 -45.314998626708984,24.02899932861328 C-27.77899932861328,45.65599822998047 6.6529998779296875,54.367000579833984 37.5260009765625,36.869998931884766 C62.85100173950195,22.517000198364258 62.85100173950195,-0.7979999780654907 56.058998107910156,-16.52199935913086 C51.22600173950195,-27.711000442504883 28.45599937438965,-54.367000579833984 -9.638999938964844,-51.66400146484375z"></path></g><g opacity="1" transform="matrix(1,0,0,1,282.7380065917969,138.0540008544922)"><path fill="rgb(255,255,255)" fill-opacity="1" d=" M-7.520999908447266,-40.57099914550781 C-43.3849983215332,-38.0099983215332 -49.04199981689453,1.8860000371932983 -35.35900115966797,18.868999481201172 C-21.676000595092773,35.85200119018555 5.190999984741211,42.694000244140625 29.2810001373291,28.95400047302246 C49.04199981689453,17.683000564575195 49.04199981689453,-0.6269999742507935 43.742000579833984,-12.975000381469727 C39.97100067138672,-21.761999130249023 22.20400047302246,-42.694000244140625 -7.520999908447266,-40.57099914550781z"></path></g><g opacity="1" transform="matrix(1.0800000429153442,0,0,1.0800000429153442,-22.856964111328125,-10.883758544921875)"><g opacity="1" transform="matrix(1,0,0,1,283.57598876953125,136.0469970703125)"><path fill="rgb(31,28,45)" fill-opacity="1" d=" M11.47700023651123,0 C11.47700023651123,6.822999954223633 6.3379998207092285,12.352999687194824 0,12.352999687194824 C-6.339000225067139,12.352999687194824 -11.47700023651123,6.822999954223633 -11.47700023651123,0 C-11.47700023651123,-6.822999954223633 -6.339000225067139,-12.352999687194824 0,-12.352999687194824 C6.3379998207092285,-12.352999687194824 11.47700023651123,-6.822999954223633 11.47700023651123,0z"></path></g><g opacity="1" transform="matrix(1,0,0,1,292.9530029296875,135.8719940185547)"><path fill="rgb(255,255,255)" fill-opacity="1" d=" M6.372000217437744,0 C6.372000217437744,2.380000114440918 3.5190000534057617,4.309999942779541 0,4.309999942779541 C-3.5179998874664307,4.309999942779541 -6.370999813079834,2.380000114440918 -6.370999813079834,0 C-6.370999813079834,-2.380000114440918 -3.5179998874664307,-4.309999942779541 0,-4.309999942779541 C3.5190000534057617,-4.309999942779541 6.372000217437744,-2.380000114440918 6.372000217437744,0z"></path></g></g><g opacity="1" transform="matrix(1,0,0,1,0,5.000003814697266)"><g opacity="1" transform="matrix(0.9994725584983826,0.03247486799955368,-0.03247486799955368,0.9994725584983826,2.06817626953125,-3.0953102111816406)"><g opacity="1" transform="matrix(1,0,0,1,96.18199920654297,65.2030029296875)"><path stroke-linecap="round" stroke-linejoin="round" fill-opacity="0" stroke="rgb(81,21,21)" stroke-opacity="1" stroke-width="18.305" d=" M50.06100082397461,-15.982999801635742 C50.06100082397461,-15.982999801635742 13.980999946594238,3.759999990463257 -6.764999866485596,8.461000442504883 C-27.51099967956543,13.16100025177002 -50.06100082397461,15.982999801635742 -50.06100082397461,15.982999801635742"></path></g></g><g opacity="1" transform="matrix(1.1654200553894043,0,0,1.1343399286270142,-51.245635986328125,-21.109195709228516)"><g opacity="1" transform="matrix(1,0,0,1,300.5450134277344,70.68199920654297)"><path stroke-linecap="round" stroke-linejoin="round" fill-opacity="0" stroke="rgb(81,21,21)" stroke-opacity="1" stroke-width="17.073" d=" M-41.45199966430664,-27.999000549316406 C-41.45199966430664,-27.999000549316406 -17.66900062561035,-0.45500001311302185 8.027999877929688,13.484000205993652 C33.7239990234375,27.423999786376953 41.45199966430664,27.999000549316406 41.45199966430664,27.999000549316406"></path></g></g></g></g><g style="display: block;" transform="matrix(0.8470585346221924,-0.10453099012374878,0.10453099012374878,0.8470585346221924,291.8161315917969,258.5363464355469)" opacity="1"><g opacity="1" transform="matrix(1,0,0,1,107.72200012207031,229.57699584960938)"><path fill="rgb(250,193,157)" fill-opacity="1" d=" M-56.33700180053711,-34.19300079345703 C-56.33700180053711,-34.19300079345703 -67.9540023803711,-36.98699951171875 -68.70099639892578,-27.902999877929688 C-69.4489974975586,-18.81999969482422 -55.301998138427734,9.82800006866455 -39.37099838256836,31.448999404907227 C-28.43000030517578,46.29800033569336 1.3420000076293945,39.95600128173828 8.465999603271484,41.1510009765625 C15.590999603271484,42.34600067138672 35.50699996948242,49.733001708984375 50.33000183105469,34.099998474121094 C72.42500305175781,10.79699993133545 69.98799896240234,-16.62700080871582 66.1729965209961,-33.803001403808594 C62.356998443603516,-50.97800064086914 10.079999923706055,-56.909000396728516 -16.309999465942383,-56.18899917602539 C-42.70000076293945,-55.46900177001953 -56.40599822998047,-36.494998931884766 -56.40599822998047,-36.494998931884766"></path><path stroke-linecap="butt" stroke-linejoin="miter" fill-opacity="0" stroke-miterlimit="10" stroke="rgb(183,99,57)" stroke-opacity="1" stroke-width="14" d=" M-56.33700180053711,-34.19300079345703 C-56.33700180053711,-34.19300079345703 -67.9540023803711,-36.98699951171875 -68.70099639892578,-27.902999877929688 C-69.4489974975586,-18.81999969482422 -55.301998138427734,9.82800006866455 -39.37099838256836,31.448999404907227 C-28.43000030517578,46.29800033569336 1.3420000076293945,39.95600128173828 8.465999603271484,41.1510009765625 C15.590999603271484,42.34600067138672 35.50699996948242,49.733001708984375 50.33000183105469,34.099998474121094 C72.42500305175781,10.79699993133545 69.98799896240234,-16.62700080871582 66.1729965209961,-33.803001403808594 C62.356998443603516,-50.97800064086914 10.079999923706055,-56.909000396728516 -16.309999465942383,-56.18899917602539 C-42.70000076293945,-55.46900177001953 -56.40599822998047,-36.494998931884766 -56.40599822998047,-36.494998931884766"></path></g><g opacity="0.56" transform="matrix(1,0,0,1,95.02799987792969,219.67100524902344)"><path stroke-linecap="round" stroke-linejoin="round" fill-opacity="0" stroke="rgb(211,113,87)" stroke-opacity="1" stroke-width="14" d=" M-14.442999839782715,-29.586000442504883 C-14.442999839782715,-29.586000442504883 -0.8159999847412109,-22.757999420166016 7.896999835968018,-5.988999843597412 C18.201000213623047,13.208000183105469 17.47800064086914,19.524999618530273 17.47800064086914,19.524999618530273"></path></g><g opacity="1" transform="matrix(1,0,0,1,166.677001953125,202.5749969482422)"><path fill="rgb(250,193,157)" fill-opacity="1" d=" M4.373000144958496,36.439998626708984 C4.373000144958496,36.439998626708984 21.961000442504883,-11.17300033569336 14.61400032043457,-27.284000396728516 C10.439000129699707,-36.439998626708984 5.081999778747559,-31.3700008392334 0.6050000190734863,-33.55400085449219 C-3.871999979019165,-35.737998962402344 -21.959999084472656,-29.239999771118164 -20.874000549316406,-23.88800048828125 C-19.788000106811523,-18.535999298095703 -16.934999465942383,-7.749000072479248 -16.954999923706055,-1.8359999656677246 C-16.975000381469727,4.077000141143799 -20.187999725341797,10.645999908447266 -20.187999725341797,10.645999908447266"></path></g><g opacity="1" transform="matrix(1,0,0,1,166.677001953125,202.5749969482422)"><path stroke-linecap="round" stroke-linejoin="round" fill-opacity="0" stroke="rgb(183,99,57)" stroke-opacity="1" stroke-width="14" d=" M7.879000186920166,34.42900085449219 C7.879000186920166,34.42900085449219 26.334999084472656,-11.137999534606934 16.01300048828125,-29.82699966430664 C11.14799976348877,-38.63600158691406 5.081999778747559,-31.3700008392334 0.6050000190734863,-33.55400085449219 C-3.871999979019165,-35.737998962402344 -21.959999084472656,-29.239999771118164 -20.874000549316406,-23.88800048828125 C-19.788000106811523,-18.535999298095703 -16.934999465942383,-7.749000072479248 -16.954999923706055,-1.8359999656677246 C-16.975000381469727,4.077000141143799 -20.187999725341797,10.645999908447266 -20.187999725341797,10.645999908447266"></path></g><g opacity="1" transform="matrix(1,0,0,1,105.21700286865234,101.13500213623047)"><path fill="rgb(250,193,157)" fill-opacity="1" d=" M-19.2450008392334,60.665000915527344 C-19.2450008392334,60.665000915527344 -25.47599983215332,31.250999450683594 -23.805999755859375,23.468000411987305 C-23.110000610351562,20.222000122070312 -32.499000549316406,28.7549991607666 -44.26100158691406,20.44700050354004 C-52.61899948120117,14.543000221252441 -48.672000885009766,3.7799999713897705 -43.54899978637695,-1.8919999599456787 C-39.67300033569336,-6.184000015258789 -33.79399871826172,-9.039999961853027 -19.14299964904785,-10.628999710083008 C-9.42300033569336,-11.682999610900879 -4.464000225067139,-6.801000118255615 2.140000104904175,0.7390000224113464 C9.081999778747559,8.664999961853027 8.946000099182129,24.854999542236328 10.862000465393066,32.92100143432617 C15.16100025177002,51.01599884033203 11.79699993133545,81.00299835205078 7.257999897003174,79.77300262451172"></path><path stroke-linecap="butt" stroke-linejoin="miter" fill-opacity="0" stroke-miterlimit="10" stroke="rgb(183,99,57)" stroke-opacity="1" stroke-width="14" d=" M-19.2450008392334,60.665000915527344 C-19.2450008392334,60.665000915527344 -25.47599983215332,31.250999450683594 -23.805999755859375,23.468000411987305 C-23.110000610351562,20.222000122070312 -32.499000549316406,28.7549991607666 -44.26100158691406,20.44700050354004 C-52.61899948120117,14.543000221252441 -48.672000885009766,3.7799999713897705 -43.54899978637695,-1.8919999599456787 C-39.67300033569336,-6.184000015258789 -33.79399871826172,-9.039999961853027 -19.14299964904785,-10.628999710083008 C-9.42300033569336,-11.682999610900879 -4.464000225067139,-6.801000118255615 2.140000104904175,0.7390000224113464 C9.081999778747559,8.664999961853027 8.946000099182129,24.854999542236328 10.862000465393066,32.92100143432617 C15.16100025177002,51.01599884033203 11.79699993133545,81.00299835205078 7.257999897003174,79.77300262451172"></path></g><g opacity="1" transform="matrix(1,0,0,1,150.43800354003906,185.01600646972656)"><path fill="rgb(250,193,157)" fill-opacity="1" d=" M-16.290000915527344,-5.6579999923706055 C-10.222999572753906,-12.92300033569336 -1.0479999780654907,-21.445999145507812 7.495999813079834,-25.347999572753906 C16.040000915527344,-29.249000549316406 27.285999298095703,-20.086999893188477 29.035999298095703,-17.3439998626709 C30.785999298095703,-14.60099983215332 33.58700180053711,-10.142999649047852 28.506999969482422,-3.86299991607666 C25.69300079345703,-0.38499999046325684 17.475000381469727,3.240000009536743 10.96500015258789,8.569999694824219 C5.7230000495910645,12.862000465393066 1.812999963760376,19.968000411987305 -5.181000232696533,23.46500015258789 C-11.25,26.5 -17.645999908447266,26.780000686645508 -21.490999221801758,24.224000930786133 C-33.58700180053711,16.183000564575195 -20.780000686645508,-0.2809999883174896 -16.290000915527344,-5.6579999923706055z"></path></g><g opacity="1" transform="matrix(1,0,0,1,150.43800354003906,185.01600646972656)"><path stroke-linecap="butt" stroke-linejoin="miter" fill-opacity="0" stroke-miterlimit="10" stroke="rgb(183,99,57)" stroke-opacity="1" stroke-width="14" d=" M-19.993999481201172,-2.0420000553131104 C-13.927000045776367,-9.307000160217285 -3.755000114440918,-21.509000778198242 4.789000034332275,-25.410999298095703 C13.333000183105469,-29.312000274658203 21.232999801635742,-25.264999389648438 29.003000259399414,-17.07699966430664 C31.243000030517578,-14.717000007629395 29.249000549316406,-5.790999889373779 24.16900062561035,0.48899999260902405 C21.354999542236328,3.9670000076293945 13.13700008392334,7.5920000076293945 6.626999855041504,12.92199993133545 C1.3849999904632568,17.214000701904297 -2.5250000953674316,24.31999969482422 -9.519000053405762,27.816999435424805 C-15.588000297546387,30.851999282836914 -21.983999252319336,31.131999969482422 -25.82900047302246,28.576000213623047 C-37.92499923706055,20.53499984741211 -24.483999252319336,3.3350000381469727 -19.993999481201172,-2.0420000553131104z"></path></g><g opacity="1" transform="matrix(1,0,0,1,123.19100189208984,172.77699279785156)"><path fill="rgb(250,193,157)" fill-opacity="1" d=" M-19.93199920654297,-20.007999420166016 C-14.836000442504883,-26.507999420166016 -1.055999994277954,-42.62699890136719 8.239999771118164,-43.94300079345703 C17.22100067138672,-45.2140007019043 25.0939998626709,-38.584999084472656 26.865999221801758,-34.000999450683594 C28.388999938964844,-30.059999465942383 31.839000701904297,-21.222999572753906 25.979000091552734,-15.67199993133545 C23.20400047302246,-13.043999671936035 15.041000366210938,-5.901000022888184 8.696000099182129,2.11899995803833 C1.6430000066757202,11.032999992370605 -5.39900016784668,22.861000061035156 -8.347000122070312,26.166000366210938 C-13.949000358581543,32.444000244140625 -23.9060001373291,32.40700149536133 -28.507999420166016,28.05699920654297 C-39.073001861572266,18.070999145507812 -24.2549991607666,-14.494000434875488 -19.93199920654297,-20.007999420166016z"></path><path stroke-linecap="butt" stroke-linejoin="miter" fill-opacity="0" stroke-miterlimit="10" stroke="rgb(183,99,57)" stroke-opacity="1" stroke-width="14" d=" M-19.93199920654297,-20.007999420166016 C-14.836000442504883,-26.507999420166016 -1.055999994277954,-42.62699890136719 8.239999771118164,-43.94300079345703 C17.22100067138672,-45.2140007019043 25.0939998626709,-38.584999084472656 26.865999221801758,-34.000999450683594 C28.388999938964844,-30.059999465942383 31.839000701904297,-21.222999572753906 25.979000091552734,-15.67199993133545 C23.20400047302246,-13.043999671936035 15.041000366210938,-5.901000022888184 8.696000099182129,2.11899995803833 C1.6430000066757202,11.032999992370605 -5.39900016784668,22.861000061035156 -8.347000122070312,26.166000366210938 C-13.949000358581543,32.444000244140625 -23.9060001373291,32.40700149536133 -28.507999420166016,28.05699920654297 C-39.073001861572266,18.070999145507812 -24.2549991607666,-14.494000434875488 -19.93199920654297,-20.007999420166016z"></path></g><g opacity="1" transform="matrix(1,0,0,1,76.06600189208984,187.93099975585938)"><path fill="rgb(250,193,157)" fill-opacity="1" d=" M-27.0049991607666,42.7400016784668 C-27.0049991607666,42.7400016784668 -43.237998962402344,23.2189998626709 -37.04600143432617,8.123000144958496 C-33.19499969482422,-1.2680000066757202 -19.46299934387207,-30.059999465942383 -8.392999649047852,-32.887001037597656 C2.6760001182556152,-35.71500015258789 30.63800048828125,-37.349998474121094 35.63100051879883,-35.698001861572266 C43.22200012207031,-33.18600082397461 48.02799987792969,-8.461000442504883 19.608999252319336,-6.440999984741211 C9.324999809265137,-5.710000038146973 8.319999694824219,0.15299999713897705 6.021999835968018,8.576000213623047 C3.8889999389648438,16.39900016784668 1.6740000247955322,21.214000701904297 1.6740000247955322,21.214000701904297"></path><path stroke-linecap="round" stroke-linejoin="round" fill-opacity="0" stroke="rgb(183,99,57)" stroke-opacity="1" stroke-width="14" d=" M-27.0049991607666,42.7400016784668 C-27.0049991607666,42.7400016784668 -43.237998962402344,23.2189998626709 -37.04600143432617,8.123000144958496 C-33.19499969482422,-1.2680000066757202 -19.46299934387207,-30.059999465942383 -8.392999649047852,-32.887001037597656 C2.6760001182556152,-35.71500015258789 30.63800048828125,-37.349998474121094 35.63100051879883,-35.698001861572266 C43.22200012207031,-33.18600082397461 48.02799987792969,-8.461000442504883 19.608999252319336,-6.440999984741211 C9.324999809265137,-5.710000038146973 8.319999694824219,0.15299999713897705 6.021999835968018,8.576000213623047 C3.8889999389648438,16.39900016784668 1.6740000247955322,21.214000701904297 1.6740000247955322,21.214000701904297"></path></g><g opacity="1" transform="matrix(1,0,0,1,168.7740020751953,184.8350067138672)"><path fill="rgb(250,193,157)" fill-opacity="1" d=" M-10.241000175476074,2.2149999141693115 C-10.241000175476074,2.2149999141693115 -4.172999858856201,-2.3369998931884766 -0.7590000033378601,4.111999988555908 C1.5479999780654907,8.470000267028809 -6.447999954223633,16.81800079345703 -5.879000186920166,17.386999130249023 C-5.309999942779541,17.95599937438965 8.128999710083008,14.029999732971191 8.128999710083008,14.029999732971191 C8.425000190734863,14.48799991607666 12.562000274658203,-1.2089999914169312 6.068999767303467,-11.819000244140625 C2.3420000076293945,-17.909000396728516 -7.585999965667725,-10.302000045776367 -7.585999965667725,-10.302000045776367 C-7.585999965667725,-10.302000045776367 -10.241000175476074,2.2149999141693115 -10.241000175476074,2.2149999141693115z"></path></g><g opacity="0.68" transform="matrix(1,0,0,1,110.36100006103516,245.2740020751953)"><path fill="rgb(232,140,82)" fill-opacity="1" d=" M-66.38800048828125,-40.02399826049805 C-66.38800048828125,-40.02399826049805 -47.042999267578125,0.5619999766349792 -32.25,8.906999588012695 C-17.457000732421875,17.25200080871582 -2.6640000343322754,7.388999938964844 6.059999942779541,10.045000076293945 C14.784000396728516,12.699999809265137 28.81800079345703,13.079000473022461 38.30099868774414,5.872000217437744 C47.784000396728516,-1.3350000381469727 57.8489990234375,-23.27199935913086 60.882999420166016,-30.100000381469727 C63.917999267578125,-36.926998138427734 65.54100036621094,-42.95000076293945 65.54100036621094,-42.95000076293945 C65.54100036621094,-42.95000076293945 70.82499694824219,-18.003000259399414 48.23400115966797,8.901000022888184 C27.304000854492188,33.82600021362305 14.616999626159668,18.86199951171875 4.755000114440918,18.10300064086914 C-5.10699987411499,17.344999313354492 -10.092000007629395,19.735000610351562 -17.67799949645996,19.735000610351562 C-25.264999389648438,19.735000610351562 -31.202999114990234,21.43899917602539 -46.18000030517578,1.9270000457763672 C-61.35499954223633,-17.843000411987305 -66.38800048828125,-40.02399826049805 -66.38800048828125,-40.02399826049805z"></path></g><g opacity="1" transform="matrix(1,0,0,1,0,0)"><path stroke-linecap="round" stroke-linejoin="round" fill-opacity="0" stroke="rgb(199,93,40)" stroke-opacity="0.55" stroke-width="11" d=" M91.8010025024414,116.3219985961914 C91.8010025024414,116.3219985961914 85.0770034790039,120.41300201416016 76.88999938964844,120.80500030517578 C69.60199737548828,121.15399932861328 63.06800079345703,118.36199951171875 63.06800079345703,118.36199951171875"></path></g></g></g></svg>