<svg xmlns="http://www.w3.org/2000/svg" xmlns:xlink="http://www.w3.org/1999/xlink" viewBox="0 0 512 512" width="512" height="512" style="width: 100%; height: 100%; transform: translate3d(0,0,0); content-visibility: visible;" preserveAspectRatio="xMidYMid meet"><defs><clipPath id="__lottie_element_2"><rect width="512" height="512" x="0" y="0"></rect></clipPath><clipPath id="__lottie_element_4"><path d="M0,0 L512,0 L512,512 L0,512z"></path></clipPath><linearGradient id="__lottie_element_11" spreadMethod="pad" gradientUnits="userSpaceOnUse" x1="31.767000198364258" y1="-72.26399993896484" x2="6.052999973297119" y2="96.05899810791016"><stop offset="1%" stop-color="rgb(255,255,255)"></stop><stop offset="51%" stop-color="rgb(229,239,244)"></stop><stop offset="100%" stop-color="rgb(203,222,232)"></stop></linearGradient><linearGradient id="__lottie_element_12" spreadMethod="pad" gradientUnits="userSpaceOnUse" x1="6.206999778747559" y1="-83.83599853515625" x2="-13.442000389099121" y2="83.44599914550781"><stop offset="1%" stop-color="rgb(255,5,43)"></stop><stop offset="51%" stop-color="rgb(222,3,37)"></stop><stop offset="100%" stop-color="rgb(188,2,30)"></stop></linearGradient><linearGradient id="__lottie_element_13" spreadMethod="pad" gradientUnits="userSpaceOnUse" x1="20.476999282836914" y1="-69.57499694824219" x2="-13.442000389099121" y2="83.44599914550781"><stop offset="1%" stop-color="rgb(255,5,43)"></stop><stop offset="51%" stop-color="rgb(222,3,37)"></stop><stop offset="100%" stop-color="rgb(188,2,30)"></stop></linearGradient><linearGradient id="__lottie_element_14" spreadMethod="pad" gradientUnits="userSpaceOnUse" x1="20.476999282836914" y1="-69.57499694824219" x2="-13.442000389099121" y2="83.44599914550781"><stop offset="1%" stop-color="rgb(255,5,43)"></stop><stop offset="51%" stop-color="rgb(222,3,37)"></stop><stop offset="100%" stop-color="rgb(188,2,30)"></stop></linearGradient><radialGradient id="__lottie_element_29" spreadMethod="pad" gradientUnits="userSpaceOnUse" cx="-20.468000411987305" cy="-119.45700073242188" r="293.63034616086935" fx="-20.468000411987305" fy="-119.45700073242188"><stop offset="2%" stop-color="rgb(255,243,228)"></stop><stop offset="51%" stop-color="rgb(254,212,183)"></stop><stop offset="100%" stop-color="rgb(253,181,138)"></stop></radialGradient></defs><g clip-path="url(#__lottie_element_2)"><g clip-path="url(#__lottie_element_4)" style="display: block;" transform="matrix(1,0,0,1,0,0)" opacity="1"><g style="display: block;" transform="matrix(1.0399999618530273,0,0,1.0643359422683716,-12.504222869873047,-18.811201095581055)" opacity="1"><g opacity="1" transform="matrix(1,0,0,1,212.62100219726562,228.98800659179688)"><path fill="url(#__lottie_element_29)" fill-opacity="1" d=" M-43.250999450683594,-192.77999877929688 C-68.31199645996094,-187.12100219726562 -92.56500244140625,-182.27099609375 -128.94400024414062,-128.1060028076172 C-165.322998046875,-73.94200134277344 -183.91600036621094,27.111000061035156 -159.66400146484375,100.677001953125 C-135.41099548339844,174.2429962158203 -65.77899932861328,208.13900756835938 30.42300033569336,197.62899780273438 C126.625,187.1199951171875 183.91600036621094,113.61199951171875 181.49099731445312,2.049999952316284 C179.0659942626953,-109.51300048828125 119.24299621582031,-165.29400634765625 67.50399780273438,-186.31300354003906 C33.53499984741211,-200.11300659179688 -18.54400062561035,-198.35899353027344 -43.250999450683594,-192.77999877929688z"></path><path stroke-linecap="butt" stroke-linejoin="miter" fill-opacity="0" stroke-miterlimit="10" stroke="rgb(202,96,63)" stroke-opacity="1" stroke-width="11.339" d=" M-43.250999450683594,-192.77999877929688 C-68.31199645996094,-187.12100219726562 -92.56500244140625,-182.27099609375 -128.94400024414062,-128.1060028076172 C-165.322998046875,-73.94200134277344 -183.91600036621094,27.111000061035156 -159.66400146484375,100.677001953125 C-135.41099548339844,174.2429962158203 -65.77899932861328,208.13900756835938 30.42300033569336,197.62899780273438 C126.625,187.1199951171875 183.91600036621094,113.61199951171875 181.49099731445312,2.049999952316284 C179.0659942626953,-109.51300048828125 119.24299621582031,-165.29400634765625 67.50399780273438,-186.31300354003906 C33.53499984741211,-200.11300659179688 -18.54400062561035,-198.35899353027344 -43.250999450683594,-192.77999877929688z"></path></g><g opacity="1" transform="matrix(1,0,0,1,211.66299438476562,334.77099609375)"><path fill="rgb(245,139,99)" fill-opacity="1" d=" M-160.23599243164062,-97.9209976196289 C-160.23599243164062,-97.9209976196289 -166.49600219726562,38.6609992980957 -45.99399948120117,68.78600311279297 C53.0890007019043,93.55699920654297 124.85299682617188,29.104999542236328 142.65699768066406,12.848999977111816 C160.46099853515625,-3.4070000648498535 172.6199951171875,-48.380001068115234 172.6199951171875,-48.380001068115234 C172.6199951171875,-48.380001068115234 175.39500427246094,47.314998626708984 67.02300262451172,77.50399780273438 C-41.3489990234375,107.69300079345703 -117.23100280761719,69.05400085449219 -147.8509979248047,5.0320000648498535 C-173.39500427246094,-48.380001068115234 -160.23599243164062,-97.9209976196289 -160.23599243164062,-97.9209976196289z"></path></g></g><g style="display: block;" transform="matrix(1.0399999618530273,0,0,1.0643359422683716,49.099143981933594,123.21377563476562)" opacity="1"><g opacity="1" transform="matrix(1,0,0,1,162.8470001220703,42.145999908447266)"><path fill="rgb(241,149,113)" fill-opacity="1" d=" M158.51100158691406,-8.75 C156.36199951171875,-9.824000358581543 144.92999267578125,-21.843000411987305 144.92999267578125,-21.843000411987305 C144.92999267578125,-21.843000411987305 139.77499389648438,-30.53499984741211 132.9340057373047,-34.375999450683594 C126.14099884033203,-38.189998626708984 103.58899688720703,-36.25699996948242 83.51799774169922,-36.52399826049805 C62.08599853515625,-36.810001373291016 44.111000061035156,-35.58000183105469 30.878999710083008,-32.22700119018555 C19.239999771118164,-29.277999877929688 12.795999526977539,-23.992000579833984 12.795999526977539,-23.992000579833984 C12.795999526977539,-23.992000579833984 -15.85099983215332,-25.781999588012695 -15.85099983215332,-25.781999588012695 C-15.85099983215332,-25.781999588012695 -21.6560001373291,-29.233999252319336 -33.01300048828125,-32.321998596191406 C-42.66899871826172,-34.946998596191406 -54.814998626708984,-36.340999603271484 -72.2490005493164,-38.13600158691406 C-108.77400207519531,-41.895999908447266 -129.3769989013672,-39.5 -134.197998046875,-38.85200119018555 C-146.19400024414062,-37.24100112915039 -153.89199829101562,-25.2450008392334 -153.89199829101562,-25.2450008392334 C-153.89199829101562,-25.2450008392334 -159.51499938964844,-19.465999603271484 -159.51499938964844,-19.465999603271484 C-161.9530029296875,-19.465999603271484 -157.54299926757812,-19.850000381469727 -158.06199645996094,-17.468000411987305 C-158.86900329589844,-13.765999794006348 -162.5970001220703,-6.327000141143799 -160.60499572753906,-5.6620001792907715 C-157.3820037841797,-4.5879998207092285 -155.7010040283203,-8.02400016784668 -154.9669952392578,-8.593999862670898 C-151.8780059814453,-10.991999626159668 -151.74400329589844,14.503000259399414 -148.52099609375,25.781999588012695 C-145.29800415039062,37.0620002746582 -106.66500091552734,38.922000885009766 -74.93499755859375,39.21099853515625 C-57.948001861572266,39.3650016784668 -49.0620002746582,35.98099899291992 -42.16999816894531,31.15399932861328 C-37.72999954223633,28.04400062561035 -33.04999923706055,20.011999130249023 -30.889999389648438,15.039999961853027 C-27.73900032043457,7.784999847412109 -22.489999771118164,-4.215000152587891 -20.656999588012695,-7.879000186920166 C-17.972000122070312,-13.25100040435791 -2.421999931335449,-10.741999626159668 4.559999942779541,-8.057000160217285 C11.543000221252441,-5.370999813079834 14.140999794006348,8.82699966430664 20.136999130249023,21.485000610351562 C29.80500030517578,41.895999908447266 72.23799896240234,38.67300033569336 97.48300170898438,39.21099853515625 C103.8740005493164,39.34600067138672 125.00399780273438,39.40800094604492 134.00799560546875,31.69099998474121 C145.28799438476562,22.02199935913086 143.31700134277344,-0.335999995470047 145.97900390625,-1.6670000553131104 C149.20199584960938,-3.2780001163482666 155.96800231933594,2.1700000762939453 161.50799560546875,0.7850000262260437 C162.5970001220703,0.5130000114440918 160.65899658203125,-7.676000118255615 158.51100158691406,-8.75z M-44.58700180053711,19.04800033569336 C-53.71799850463867,28.97800064086914 -71.53299713134766,31.1560001373291 -88.36299896240234,30.110000610351562 C-105.19300079345703,29.065000534057617 -124.70800018310547,26.799999237060547 -132.94400024414062,24.01300048828125 C-139.2100067138672,21.892000198364258 -141.06700134277344,-3.9070000648498535 -141.42599487304688,-14.256999969482422 C-141.56199645996094,-18.18000030517578 -139.9600067138672,-21.992000579833984 -136.9510040283203,-24.60700035095215 C-134.49200439453125,-26.7450008392334 -131.1540069580078,-28.93400001525879 -127.21499633789062,-29.73200035095215 C-118.62100219726562,-31.475000381469727 -67.05699920654297,-27.292999267578125 -53.80799865722656,-25.899999618530273 C-40.558998107910156,-24.506000518798828 -31.695999145507812,-23.80900001525879 -31.695999145507812,-13.355999946594238 C-31.695999145507812,-2.9030001163482666 -38.80699920654297,12.76200008392334 -44.58700180053711,19.04800033569336z M134.00799560546875,-9.130999565124512 C133.66299438476562,1.218999981880188 132.39700317382812,20.05299949645996 124.51899719238281,24.350000381469727 C112.43000030517578,30.944000244140625 91.93299865722656,30.79599952697754 72.23799896240234,30.615999221801758 C56.00199890136719,30.4689998626709 38.88399887084961,29.483999252319336 30.093000411987305,19.554000854492188 C24.527999877929688,13.267999649047852 23.360000610351562,0.3190000057220459 23.360000610351562,-10.133999824523926 C23.360000610351562,-20.586000442504883 31.892000198364258,-21.283000946044922 44.64799880981445,-22.677000045776367 C57.40399932861328,-24.070999145507812 106.94400024414062,-27.6560001373291 115.32099914550781,-26.510000228881836 C136.33599853515625,-23.632999420166016 134.13900756835938,-13.055000305175781 134.00799560546875,-9.130999565124512z"></path></g></g><g style="display: block;" transform="matrix(1.138662576675415,-0.10121343284845352,0.10417986661195755,1.2275283336639404,138.4715118408203,195.18563842773438)" opacity="1"><g opacity="1" transform="matrix(0.9998317360877991,0.018342381343245506,-0.018342381343245506,0.9998317360877991,-2.814556121826172,-2.8395042419433594)"><g opacity="1" transform="matrix(1,0,0,1,61.492000579833984,52.66999816894531)"><path fill="rgb(242,149,114)" fill-opacity="1" d=" M-12.35099983215332,-28.35700035095215 C-12.35099983215332,-28.35700035095215 -27.10700035095215,-5.980000019073486 -20.667999267578125,-1.8279999494552612 C-14.227999687194824,2.322999954223633 -14.402000427246094,1.7869999408721924 -2.117000102996826,2.2179999351501465 C10.168000221252441,2.6489999294281006 22.308000564575195,4.853000164031982 25.27400016784668,2.250999927520752 C31.989999771118164,-3.640000104904175 30.871999740600586,-21.85300064086914 30.871999740600586,-21.85300064086914 C30.871999740600586,-21.85300064086914 45.891998291015625,8.520000457763672 38.60200119018555,18.42300033569336 C31.312000274658203,28.325000762939453 7.933000087738037,25.889999389648438 0.4860000014305115,25.125999450683594 C-6.960999965667725,24.361000061035156 -36.70500183105469,20.1299991607666 -41.29899978637695,12.015999794006348 C-45.891998291015625,3.9019999504089355 -40.11399841308594,-5.2170000076293945 -36.57400131225586,-10.645000457763672 C-30.08300018310547,-20.59600067138672 -12.35099983215332,-28.35700035095215 -12.35099983215332,-28.35700035095215z"></path></g><g opacity="1" transform="matrix(1,0,0,1,33.518001556396484,42.25)"><path stroke-linecap="round" stroke-linejoin="round" fill-opacity="0" stroke="rgb(202,96,63)" stroke-opacity="1" stroke-width="9.36" d=" M10.118000030517578,-18.85099983215332 C10.118000030517578,-18.85099983215332 -2.4230000972747803,-8.383000373840332 -6.270999908447266,4.480999946594238 C-10.118000030517578,17.34600067138672 0.3109999895095825,18.85099983215332 0.3109999895095825,18.85099983215332"></path></g><g opacity="1" transform="matrix(1,0,0,1,96.86699676513672,48.01900100708008)"><path stroke-linecap="round" stroke-linejoin="round" fill-opacity="0" stroke="rgb(202,96,63)" stroke-opacity="1" stroke-width="9.36" d=" M-5.382999897003174,-19.66200065612793 C-5.382999897003174,-19.66200065612793 9.727999687194824,0.4959999918937683 4.9120001792907715,12.192999839782715 C1.8370000123977661,19.66200065612793 -9.727999687194824,18.97800064086914 -9.727999687194824,18.97800064086914"></path></g><g opacity="1" transform="matrix(1,0,0,1,76.01100158691406,63.08300018310547)"><path stroke-linecap="round" stroke-linejoin="round" fill-opacity="0" stroke="rgb(123,62,53)" stroke-opacity="1" stroke-width="6.727" d=" M-8.343999862670898,-0.8939999938011169 C-6.333000183105469,-1.6019999980926514 -3.515000104904175,-1.9420000314712524 1.034999966621399,-1.7280000448226929 C5.9029998779296875,-1.4980000257492065 10.269000053405762,-0.19300000369548798 7.770999908447266,0.8740000128746033 C5.2729997634887695,1.9420000314712524 -4.642000198364258,1.5850000381469727 -7.454999923706055,1.1710000038146973 C-10.269000053405762,0.7570000290870667 -9.112000465393066,-0.6240000128746033 -8.343999862670898,-0.8939999938011169z"></path><path fill="rgb(123,62,53)" fill-opacity="1" d=" M-8.343999862670898,-0.8939999938011169 C-6.333000183105469,-1.6019999980926514 -3.515000104904175,-1.9420000314712524 1.034999966621399,-1.7280000448226929 C5.9029998779296875,-1.4980000257492065 10.269000053405762,-0.19300000369548798 7.770999908447266,0.8740000128746033 C5.2729997634887695,1.9420000314712524 -4.642000198364258,1.5850000381469727 -7.454999923706055,1.1710000038146973 C-10.269000053405762,0.7570000290870667 -9.112000465393066,-0.6240000128746033 -8.343999862670898,-0.8939999938011169z"></path></g><g opacity="1" transform="matrix(1,0,0,1,41.305999755859375,60.597999572753906)"><path stroke-linecap="round" stroke-linejoin="round" fill-opacity="0" stroke="rgb(123,62,53)" stroke-opacity="1" stroke-width="7.531" d=" M7.788000106811523,0.18000000715255737 C6.015999794006348,-0.6110000014305115 3.4630000591278076,-1.1859999895095825 -0.7379999756813049,-1.4910000562667847 C-5.234000205993652,-1.8170000314712524 -9.381999969482422,-1.2100000381469727 -7.199999809265137,-0.07400000095367432 C-5.019000053405762,1.062000036239624 4.125,1.8170000314712524 6.752999782562256,1.774999976158142 C9.380999565124512,1.7330000400543213 8.46500015258789,0.4819999933242798 7.788000106811523,0.18000000715255737z"></path></g></g></g><g style="display: block;" transform="matrix(1.0399999618530273,0,0,1.0643359422683716,81.44105529785156,246.42665100097656)" opacity="1"><g opacity="1" transform="matrix(1,0,0,1,200.4239959716797,72.13800048828125)"><path stroke-linecap="round" stroke-linejoin="round" fill-opacity="0" stroke="rgb(202,96,63)" stroke-opacity="0.48" stroke-width="8.86" d=" M-5.428999900817871,-17.170000076293945 C-5.428999900817871,-17.170000076293945 0.03400000184774399,-12.244999885559082 2.614000082015991,-2.9560000896453857 C5.428999900817871,7.178999900817871 3.992000102996826,17.170000076293945 3.992000102996826,17.170000076293945"></path></g><g opacity="1" transform="matrix(1,0,0,1,39.68899917602539,51.45500183105469)"><path stroke-linecap="round" stroke-linejoin="round" fill-opacity="0" stroke="rgb(202,96,63)" stroke-opacity="0.48" stroke-width="8.86" d=" M17.540000915527344,-29.305999755859375 C17.540000915527344,-29.305999755859375 1.055999994277954,-15.967000007629395 -8.241999626159668,0.6060000061988831 C-17.540000915527344,17.17799949645996 -17.540000915527344,29.305999755859375 -17.540000915527344,29.305999755859375"></path></g><g opacity="1" transform="matrix(1,0,0,1,62.757999420166016,124.4000015258789)"><path stroke-linecap="round" stroke-linejoin="round" fill-opacity="0" stroke="rgb(202,96,63)" stroke-opacity="0.48" stroke-width="8.86" d=" M-18.836000442504883,-10.321000099182129 C-18.836000442504883,-10.321000099182129 -14.194000244140625,-2.9260001182556152 -5.934999942779541,2.5799999237060547 C4.9029998779296875,9.805000305175781 18.836000442504883,10.321000099182129 18.836000442504883,10.321000099182129"></path></g><g opacity="1" transform="matrix(1,0,0,1,0,0)"><g opacity="1" transform="matrix(1,0,0,1,120.01200103759766,78.23300170898438)"><path fill="rgb(54,30,27)" fill-opacity="1" d=" M-55.60900115966797,9.960000038146973 C-55.60900115966797,9.960000038146973 -45.8489990234375,-29.836999893188477 -20.08300018310547,-31.21299934387207 C5.683000087738037,-32.5890007019043 55.61000061035156,-28.92799949645996 54.06800079345703,-13.145999908447266 C52.5260009765625,2.634999990463257 39.500999450683594,29.687000274658203 22.006999969482422,31.13800048828125 C4.513999938964844,32.5890007019043 -30.124000549316406,32.37099838256836 -38.534000396728516,29.719999313354492 C-46.94499969482422,27.06800079345703 -55.60900115966797,9.960000038146973 -55.60900115966797,9.960000038146973z"></path></g><g opacity="1" transform="matrix(1,0,0,1,120.052001953125,60.132999420166016)"><path fill="rgb(255,255,255)" fill-opacity="1" d=" M-40.018001556396484,5.065999984741211 C-40.018001556396484,5.065999984741211 -29.902000427246094,12.218000411987305 -5.4019999504089355,11.314000129699707 C19.097000122070312,10.41100025177002 30.233999252319336,4.959000110626221 35.125999450683594,1.4589999914169312 C40.018001556396484,-2.0399999618530273 35.625,-5.044000148773193 35.625,-5.044000148773193 C35.625,-5.044000148773193 25.930999755859375,-12.217000007629395 8.22700023651123,-10.866999626159668 C-9.47700023651123,-9.517000198364258 -29.756000518798828,-8.83899974822998 -32.180999755859375,-6.685999870300293 C-34.60499954223633,-4.5320000648498535 -40.018001556396484,5.065999984741211 -40.018001556396484,5.065999984741211z"></path><path stroke-linecap="butt" stroke-linejoin="miter" fill-opacity="0" stroke-miterlimit="10" stroke="rgb(95,119,138)" stroke-opacity="1" stroke-width="5.369" d=" M-40.018001556396484,5.065999984741211 C-40.018001556396484,5.065999984741211 -29.902000427246094,12.218000411987305 -5.4019999504089355,11.314000129699707 C19.097000122070312,10.41100025177002 30.233999252319336,4.959000110626221 35.125999450683594,1.4589999914169312 C40.018001556396484,-2.0399999618530273 35.625,-5.044000148773193 35.625,-5.044000148773193 C35.625,-5.044000148773193 25.930999755859375,-12.217000007629395 8.22700023651123,-10.866999626159668 C-9.47700023651123,-9.517000198364258 -29.756000518798828,-8.83899974822998 -32.180999755859375,-6.685999870300293 C-34.60499954223633,-4.5320000648498535 -40.018001556396484,5.065999984741211 -40.018001556396484,5.065999984741211z"></path></g><g opacity="1" transform="matrix(1,0,0,1,111.16400146484375,89.01300048828125)"><path fill="rgb(255,255,255)" fill-opacity="1" d=" M53.91400146484375,-7.817999839782715 C53.91400146484375,-7.817999839782715 12.692000389099121,-3.1559998989105225 -16.058000564575195,-5.238999843597412 C-39.051998138427734,-6.9039998054504395 -35.0260009765625,-19.41900062561035 -35.0260009765625,-19.41900062561035 C-35.0260009765625,-19.41900062561035 -53.91400146484375,1.284999966621399 -41.77399826049805,6.709000110626221 C-29.634000778198242,12.131999969482422 2.1480000019073486,12.86400032043457 2.1480000019073486,12.86400032043457 C2.1480000019073486,12.86400032043457 41.9370002746582,8.20199966430664 41.9370002746582,8.20199966430664 C41.9370002746582,8.20199966430664 53.91400146484375,-7.817999839782715 53.91400146484375,-7.817999839782715z"></path><path stroke-linecap="butt" stroke-linejoin="miter" fill-opacity="0" stroke-miterlimit="10" stroke="rgb(95,119,138)" stroke-opacity="1" stroke-width="5.369" d=" M53.91400146484375,-7.817999839782715 C53.91400146484375,-7.817999839782715 12.692000389099121,-3.1559998989105225 -16.058000564575195,-5.238999843597412 C-39.051998138427734,-6.9039998054504395 -35.0260009765625,-19.41900062561035 -35.0260009765625,-19.41900062561035 C-35.0260009765625,-19.41900062561035 -53.91400146484375,1.284999966621399 -41.77399826049805,6.709000110626221 C-29.634000778198242,12.131999969482422 2.1480000019073486,12.86400032043457 2.1480000019073486,12.86400032043457 C2.1480000019073486,12.86400032043457 41.9370002746582,8.20199966430664 41.9370002746582,8.20199966430664 C41.9370002746582,8.20199966430664 53.91400146484375,-7.817999839782715 53.91400146484375,-7.817999839782715z"></path></g><g opacity="1" transform="matrix(1,0,0,1,119.32099914550781,93.54000091552734)"><path fill="rgb(240,134,94)" fill-opacity="1" d=" M-58.560001373291016,-24.68000030517578 C-58.560001373291016,-24.68000030517578 -63.426998138427734,3.319000005722046 -53.452999114990234,15.73900032043457 C-45.902000427246094,25.142000198364258 -35.84299850463867,24.513999938964844 -19.215999603271484,22.81599998474121 C-2.5889999866485596,21.118999481201172 3.743000030517578,25.518999099731445 17.823999404907227,26.90999984741211 C39.097999572753906,29.011999130249023 45.816001892089844,7.656000137329102 51.3129997253418,-1.9119999408721924 C62.349998474121094,-21.121999740600586 63.428001403808594,-22.895999908447266 61.577999114990234,-25.83300018310547 C59.72800064086914,-28.770000457763672 57.020999908447266,-29.011999130249023 54.75899887084961,-28.452999114990234 C41.426998138427734,-25.156999588012695 37.459999084472656,-1.6640000343322754 21.702999114990234,4.440000057220459 C12.236000061035156,8.107000350952148 0.9869999885559082,0.890999972820282 -14.449999809265137,1.1080000400543213 C-29.88599967956543,1.3250000476837158 -37.9109992980957,5.598999977111816 -39.965999603271484,-1.1720000505447388 C-41.39799880981445,-5.89300012588501 -52.689998626708984,-21.7549991607666 -53.61000061035156,-23.12299919128418 C-54.52899932861328,-24.489999771118164 -58.560001373291016,-24.68000030517578 -58.560001373291016,-24.68000030517578z"></path><path stroke-linecap="butt" stroke-linejoin="miter" fill-opacity="0" stroke-miterlimit="10" stroke="rgb(183,80,48)" stroke-opacity="1" stroke-width="8.054" d=" M-58.560001373291016,-24.68000030517578 C-58.560001373291016,-24.68000030517578 -63.426998138427734,3.319000005722046 -53.452999114990234,15.73900032043457 C-45.902000427246094,25.142000198364258 -35.84299850463867,24.513999938964844 -19.215999603271484,22.81599998474121 C-2.5889999866485596,21.118999481201172 3.743000030517578,25.518999099731445 17.823999404907227,26.90999984741211 C39.097999572753906,29.011999130249023 45.816001892089844,7.656000137329102 51.3129997253418,-1.9119999408721924 C62.349998474121094,-21.121999740600586 63.428001403808594,-22.895999908447266 61.577999114990234,-25.83300018310547 C59.72800064086914,-28.770000457763672 57.020999908447266,-29.011999130249023 54.75899887084961,-28.452999114990234 C41.426998138427734,-25.156999588012695 37.459999084472656,-1.6640000343322754 21.702999114990234,4.440000057220459 C12.236000061035156,8.107000350952148 0.9869999885559082,0.890999972820282 -14.449999809265137,1.1080000400543213 C-29.88599967956543,1.3250000476837158 -37.9109992980957,5.598999977111816 -39.965999603271484,-1.1720000505447388 C-41.39799880981445,-5.89300012588501 -52.689998626708984,-21.7549991607666 -53.61000061035156,-23.12299919128418 C-54.52899932861328,-24.489999771118164 -58.560001373291016,-24.68000030517578 -58.560001373291016,-24.68000030517578z"></path></g><g opacity="1" transform="matrix(1,0,0,1,121.4489974975586,54.68199920654297)"><path fill="rgb(239,134,94)" fill-opacity="1" d=" M-58.45800018310547,8.390999794006348 C-58.45800018310547,8.390999794006348 -40.64699935913086,-10.774999618530273 -26.860000610351562,-14.142999649047852 C-13.072999954223633,-17.510000228881836 -7.251999855041504,-11.545999526977539 1.7359999418258667,-13.645000457763672 C10.722999572753906,-15.744000434875488 15.21500015258789,-18.816999435424805 25.29400062561035,-16.31999969482422 C35.374000549316406,-13.821999549865723 52.57500076293945,1.4609999656677246 54.766998291015625,4.572000026702881 C58.20100021362305,9.449000358581543 62.323001861572266,15.300000190734863 56.858001708984375,15.996999740600586 C51.393001556396484,16.694000244140625 24.15399932861328,1.9570000171661377 20.291000366210938,0.9490000009536743 C16.42799949645996,-0.05999999865889549 9.696000099182129,0.7039999961853027 -3.38700008392334,1.4019999504089355 C-16.469999313354492,2.1010000705718994 -22.983999252319336,-0.9909999966621399 -30.375999450683594,3.249000072479248 C-37.768001556396484,7.489999771118164 -52.821998596191406,18.81800079345703 -57.573001861572266,17.04800033569336 C-62.323001861572266,15.277000427246094 -58.45800018310547,8.390999794006348 -58.45800018310547,8.390999794006348z"></path><path stroke-linecap="butt" stroke-linejoin="miter" fill-opacity="0" stroke-miterlimit="10" stroke="rgb(182,80,47)" stroke-opacity="1" stroke-width="8.054" d=" M-58.45800018310547,8.390999794006348 C-58.45800018310547,8.390999794006348 -40.64699935913086,-10.774999618530273 -26.860000610351562,-14.142999649047852 C-13.072999954223633,-17.510000228881836 -7.251999855041504,-11.545999526977539 1.7359999418258667,-13.645000457763672 C10.722999572753906,-15.744000434875488 15.21500015258789,-18.816999435424805 25.29400062561035,-16.31999969482422 C35.374000549316406,-13.821999549865723 52.57500076293945,1.4609999656677246 54.766998291015625,4.572000026702881 C58.20100021362305,9.449000358581543 62.323001861572266,15.300000190734863 56.858001708984375,15.996999740600586 C51.393001556396484,16.694000244140625 24.15399932861328,1.9570000171661377 20.291000366210938,0.9490000009536743 C16.42799949645996,-0.05999999865889549 9.696000099182129,0.7039999961853027 -3.38700008392334,1.4019999504089355 C-16.469999313354492,2.1010000705718994 -22.983999252319336,-0.9909999966621399 -30.375999450683594,3.249000072479248 C-37.768001556396484,7.489999771118164 -52.821998596191406,18.81800079345703 -57.573001861572266,17.04800033569336 C-62.323001861572266,15.277000427246094 -58.45800018310547,8.390999794006348 -58.45800018310547,8.390999794006348z"></path></g></g></g><g style="display: block;" transform="matrix(1.0399999618530273,0,0,1.0643359422683716,55.62202835083008,88.10986328125)" opacity="1"><g opacity="1" transform="matrix(1,0,0,1,0,0)"><g opacity="1" transform="matrix(1,0,0,1,226.8459930419922,63.03300094604492)"><path fill="rgb(255,255,255)" fill-opacity="1" d=" M39.59000015258789,-18.090999603271484 C29.472000122070312,-28.608999252319336 15.395999908447266,-36.180999755859375 -10.557999610900879,-35.7599983215332 C-36.51100158691406,-35.3390007019043 -56.74599838256836,-6.73199987411499 -47.50899887084961,11.359000205993652 C-38.270999908447266,29.450000762939453 1.319000005722046,36.180999755859375 29.033000946044922,29.871000289916992 C56.74599838256836,23.559999465942383 47.082000732421875,-10.302000045776367 39.59000015258789,-18.090999603271484z"></path><path stroke-linecap="butt" stroke-linejoin="miter" fill-opacity="0" stroke-miterlimit="10" stroke="rgb(129,79,63)" stroke-opacity="1" stroke-width="8.383" d=" M39.59000015258789,-18.090999603271484 C29.472000122070312,-28.608999252319336 15.395999908447266,-36.180999755859375 -10.557999610900879,-35.7599983215332 C-36.51100158691406,-35.3390007019043 -56.74599838256836,-6.73199987411499 -47.50899887084961,11.359000205993652 C-38.270999908447266,29.450000762939453 1.319000005722046,36.180999755859375 29.033000946044922,29.871000289916992 C56.74599838256836,23.559999465942383 47.082000732421875,-10.302000045776367 39.59000015258789,-18.090999603271484z"></path></g><g opacity="1" transform="matrix(1,0,0,1,74.18399810791016,58.61199951171875)"><path fill="rgb(255,255,255)" fill-opacity="1" d=" M-47.948001861572266,12.831999778747559 C-47.948001861572266,12.831999778747559 -53.22700119018555,-14.9350004196167 -14.515999794006348,-26.295000076293945 C24.194000244140625,-37.65399932861328 43.54999923706055,-27.55699920654297 48.38800048828125,-13.67300033569336 C53.22700119018555,0.210999995470047 48.827999114990234,27.55699920654297 15.395999908447266,32.60599899291992 C-18.03499984741211,37.65399932861328 -32.992000579833984,35.130001068115234 -41.349998474121094,29.239999771118164 C-49.70800018310547,23.350000381469727 -47.948001861572266,12.831999778747559 -47.948001861572266,12.831999778747559z"></path><path stroke-linecap="butt" stroke-linejoin="miter" fill-opacity="0" stroke-miterlimit="10" stroke="rgb(129,79,63)" stroke-opacity="1" stroke-width="8.383" d=" M-47.948001861572266,12.831999778747559 C-47.948001861572266,12.831999778747559 -53.22700119018555,-14.9350004196167 -14.515999794006348,-26.295000076293945 C24.194000244140625,-37.65399932861328 43.54999923706055,-27.55699920654297 48.38800048828125,-13.67300033569336 C53.22700119018555,0.210999995470047 48.827999114990234,27.55699920654297 15.395999908447266,32.60599899291992 C-18.03499984741211,37.65399932861328 -32.992000579833984,35.130001068115234 -41.349998474121094,29.239999771118164 C-49.70800018310547,23.350000381469727 -47.948001861572266,12.831999778747559 -47.948001861572266,12.831999778747559z"></path></g><g opacity="1" transform="matrix(1,0,0,1,227.94500732421875,65.13700103759766)"><path fill="rgb(36,24,22)" fill-opacity="1" d=" M2.859999895095825,-10.939000129699707 C-8.13700008392334,-13.463000297546387 -12.97599983215332,-10.097000122070312 -15.614999771118164,-2.1029999256134033 C-18.2549991607666,5.890999794006348 -3.739000082015991,13.463000297546387 7.257999897003174,8.836000442504883 C18.2549991607666,4.208000183105469 7.9770002365112305,-9.763999938964844 2.859999895095825,-10.939000129699707z"></path></g><g opacity="1" transform="matrix(1,0,0,1,80.12300109863281,68.14099884033203)"><path fill="rgb(36,24,22)" fill-opacity="1" d=" M8.137999534606934,-10.15999984741211 C-2.3359999656677246,-14.241000175476074 -16.559999465942383,-12.694000244140625 -18.256000518798828,-1.746000051498413 C-20.014999389648438,9.61400032043457 -2.4189999103546143,14.241000175476074 8.57800006866455,9.61400032043457 C19.575000762939453,4.986000061035156 20.014999389648438,-5.5320000648498535 8.137999534606934,-10.15999984741211z"></path></g><g opacity="1" transform="matrix(1,0,0,1,238.51100158691406,64.79399871826172)"><path fill="rgb(255,255,255)" fill-opacity="1" d=" M5.551000118255615,0 C5.551000118255615,3.065000057220459 3.065000057220459,5.550000190734863 0,5.550000190734863 C-3.065999984741211,5.550000190734863 -5.551000118255615,3.065000057220459 -5.551000118255615,0 C-5.551000118255615,-3.065000057220459 -3.065999984741211,-5.550000190734863 0,-5.550000190734863 C3.065000057220459,-5.550000190734863 5.551000118255615,-3.065000057220459 5.551000118255615,0z"></path></g><g opacity="1" transform="matrix(1,0,0,1,95.7239990234375,68.19599914550781)"><path fill="rgb(255,255,255)" fill-opacity="1" d=" M5.551000118255615,0 C5.551000118255615,3.065000057220459 3.065999984741211,5.550000190734863 0.0010000000474974513,5.550000190734863 C-3.065000057220459,5.550000190734863 -5.551000118255615,3.065000057220459 -5.551000118255615,0 C-5.551000118255615,-3.065000057220459 -3.065000057220459,-5.550000190734863 0.0010000000474974513,-5.550000190734863 C3.065999984741211,-5.550000190734863 5.551000118255615,-3.065000057220459 5.551000118255615,0z"></path></g><g opacity="1" transform="matrix(1,0,0,1,210.9340057373047,67.97699737548828)"><path fill="rgb(255,255,255)" fill-opacity="1" d=" M5.546000003814697,0 C5.546000003814697,2.0989999771118164 3.062999963760376,3.799999952316284 0,3.799999952316284 C-3.062999963760376,3.799999952316284 -5.546000003814697,2.0989999771118164 -5.546000003814697,0 C-5.546000003814697,-2.0989999771118164 -3.062999963760376,-3.799999952316284 0,-3.799999952316284 C3.062999963760376,-3.799999952316284 5.546000003814697,-2.0989999771118164 5.546000003814697,0z"></path></g><g opacity="1" transform="matrix(1,0,0,1,62.875,69.80699920654297)"><path fill="rgb(255,255,255)" fill-opacity="1" d=" M5.546000003814697,0 C5.546000003814697,2.0989999771118164 3.062999963760376,3.799999952316284 0,3.799999952316284 C-3.062999963760376,3.799999952316284 -5.546000003814697,2.0989999771118164 -5.546000003814697,0 C-5.546000003814697,-2.0989999771118164 -3.062999963760376,-3.799999952316284 0,-3.799999952316284 C3.062999963760376,-3.799999952316284 5.546000003814697,-2.0989999771118164 5.546000003814697,0z"></path></g><g opacity="1" transform="matrix(1,0,0,1,74.18399810791016,58.61199951171875)"><path stroke-linecap="butt" stroke-linejoin="miter" fill-opacity="0" stroke-miterlimit="10" stroke="rgb(129,79,63)" stroke-opacity="1" stroke-width="8.383" d=" M-47.948001861572266,12.831999778747559 C-47.948001861572266,12.831999778747559 -53.22700119018555,-14.9350004196167 -14.515999794006348,-26.295000076293945 C24.194000244140625,-37.65399932861328 43.54999923706055,-27.55699920654297 48.38800048828125,-13.67300033569336 C53.22700119018555,0.210999995470047 48.827999114990234,27.55699920654297 15.395999908447266,32.60599899291992 C-18.03499984741211,37.65399932861328 -32.992000579833984,35.130001068115234 -41.349998474121094,29.239999771118164 C-49.70800018310547,23.350000381469727 -47.948001861572266,12.831999778747559 -47.948001861572266,12.831999778747559z"></path></g><g opacity="1" transform="matrix(1,0,0,1,226.8459930419922,63.03300094604492)"><path stroke-linecap="butt" stroke-linejoin="miter" fill-opacity="0" stroke-miterlimit="10" stroke="rgb(129,79,63)" stroke-opacity="1" stroke-width="8.383" d=" M39.59000015258789,-18.090999603271484 C29.472000122070312,-28.608999252319336 15.395999908447266,-36.180999755859375 -10.557999610900879,-35.7599983215332 C-36.51100158691406,-35.3390007019043 -56.74599838256836,-6.73199987411499 -47.50899887084961,11.359000205993652 C-38.270999908447266,29.450000762939453 1.319000005722046,36.180999755859375 29.033000946044922,29.871000289916992 C56.74599838256836,23.559999465942383 47.082000732421875,-10.302000045776367 39.59000015258789,-18.090999603271484z"></path></g></g></g><g style="display: block;" transform="matrix(1.0399999618530273,0,0,1.0643359422683716,33.4211311340332,113.49534606933594)" opacity="1"><g opacity="1" transform="matrix(1,0,0,1,91.23600006103516,43.4900016784668)"><path fill="rgb(255,38,85)" fill-opacity="0.76" d=" M-53.0629997253418,-27.483999252319336 C-53.0629997253418,-27.483999252319336 -50.198001861572266,-33.2130012512207 -38.02299880981445,-33.57099914550781 C-25.849000930786133,-33.93000030517578 45.40999984741211,-29.990999221801758 52.571998596191406,-25.694000244140625 C59.73400115966797,-21.39699935913086 62.2400016784668,-13.16100025177002 55.79499816894531,0.08900000154972076 C49.3489990234375,13.338000297546387 42.90399932861328,31.600000381469727 30.371000289916992,33.03200149536133 C17.83799934387207,34.46500015258789 -34.08399963378906,33.03200149536133 -45.9010009765625,30.167999267578125 C-57.71799850463867,27.30299949645996 -59.50899887084961,24.79599952697754 -59.150001525878906,16.20199966430664 C-58.79199981689453,7.607999801635742 -59.50899887084961,-21.038000106811523 -59.50899887084961,-21.038000106811523 C-59.50899887084961,-21.038000106811523 -53.0629997253418,-27.483999252319336 -53.0629997253418,-27.483999252319336z"></path></g><g opacity="1" transform="matrix(1,0,0,1,254.29100036621094,42.95000076293945)"><path fill="rgb(65,87,252)" fill-opacity="0.74" d=" M55.46099853515625,-28.375999450683594 C55.46099853515625,-28.375999450683594 52.2859992980957,-34.10499954223633 38.79199981689453,-34.4630012512207 C25.298999786376953,-34.821998596191406 -40.237998962402344,-33.74700164794922 -48.17599868774414,-29.450000762939453 C-56.112998962402344,-25.152999877929688 -67.49400329589844,-10.472000122070312 -60.349998474121094,2.7769999504089355 C-53.207000732421875,16.027000427246094 -50.900001525878906,30.70800018310547 -37.0099983215332,32.13999938964844 C-23.118999481201172,33.573001861572266 27.172000885009766,36.07899856567383 40.26900100708008,33.21500015258789 C53.36600112915039,30.350000381469727 57.13999938964844,22.003999710083008 59.965999603271484,13.878000259399414 C62.83100128173828,5.642000198364258 62.60499954223633,-21.93000030517578 62.60499954223633,-21.93000030517578 C62.60499954223633,-21.93000030517578 55.46099853515625,-28.375999450683594 55.46099853515625,-28.375999450683594z"></path></g><g opacity="1" transform="matrix(1,0,0,1,179.65499877929688,42.415000915527344)"><path fill="rgb(36,24,22)" fill-opacity="1" d=" M174.21400451660156,-6.425000190734863 C172.06500244140625,-7.5 143.19700622558594,-22.111000061035156 143.19700622558594,-22.111000061035156 C143.19700622558594,-22.111000061035156 138.04200744628906,-30.804000854492188 131.2010040283203,-34.64500045776367 C124.40799713134766,-38.45899963378906 101.85600280761719,-36.525001525878906 81.78500366210938,-36.79199981689453 C60.35300064086914,-37.077999114990234 42.37799835205078,-35.847999572753906 29.145999908447266,-32.494998931884766 C17.506999969482422,-29.54599952697754 11.062999725341797,-24.26099967956543 11.062999725341797,-24.26099967956543 C11.062999725341797,-24.26099967956543 -17.583999633789062,-26.049999237060547 -17.583999633789062,-26.049999237060547 C-17.583999633789062,-26.049999237060547 -23.388999938964844,-29.50200080871582 -34.74599838256836,-32.59000015258789 C-44.402000427246094,-35.21500015258789 -56.54800033569336,-36.60900115966797 -73.98200225830078,-38.40399932861328 C-110.50700378417969,-42.16400146484375 -131.11000061035156,-39.768001556396484 -135.93099975585938,-39.119998931884766 C-147.927001953125,-37.50899887084961 -155.625,-25.513999938964844 -155.625,-25.513999938964844 C-155.625,-25.513999938964844 -171.23800659179688,-13.32699966430664 -171.23800659179688,-13.32699966430664 C-173.5989990234375,-11.692999839782715 -177.4029998779297,-8.88700008392334 -177.9219970703125,-6.505000114440918 C-178.72900390625,-2.802999973297119 -179.40499877929688,3.625999927520752 -177.41299438476562,4.289999961853027 C-174.19000244140625,5.364999771118164 -160.28599548339844,-1.7799999713897705 -156.5260009765625,-0.7049999833106995 C-152.76600646972656,0.36899998784065247 -153.4770050048828,14.234999656677246 -150.25399780273438,25.513999938964844 C-147.031005859375,36.79399871826172 -108.39800262451172,38.65299987792969 -76.66799926757812,38.94200134277344 C-59.680999755859375,39.09600067138672 -47.9630012512207,33.44900131225586 -41.07099914550781,28.621999740600586 C-36.63100051879883,25.511999130249023 -33.19900131225586,21.177000045776367 -31.038999557495117,16.204999923706055 C-27.88800048828125,8.949999809265137 -22.638999938964844,-3.049999952316284 -20.805999755859375,-6.714000225067139 C-18.121000289916992,-12.086000442504883 -4.15500020980835,-11.01099967956543 2.8269999027252197,-8.326000213623047 C9.8100004196167,-5.639999866485596 9.1850004196167,9.095000267028809 15.180999755859375,21.753000259399414 C24.849000930786133,42.16400146484375 70.50399780273438,38.40399932861328 95.7490005493164,38.94200134277344 C102.13999938964844,39.077999114990234 123.27100372314453,39.13999938964844 132.27499389648438,31.42300033569336 C143.55499267578125,21.753999710083008 140.76600646972656,0.8980000019073486 143.42799377441406,-0.43299999833106995 C146.6510009765625,-2.0439999103546143 171.88499450683594,10.583000183105469 175.64500427246094,6.285999774932861 C179.40499877929688,1.9889999628067017 176.36199951171875,-5.35099983215332 174.21400451660156,-6.425000190734863z M-46.31999969482422,18.77899932861328 C-55.45100021362305,28.708999633789062 -73.26599884033203,30.88800048828125 -90.09600067138672,29.841999053955078 C-106.9260025024414,28.797000885009766 -126.44100189208984,26.5310001373291 -134.677001953125,23.743999481201172 C-140.9429931640625,21.62299919128418 -142.8000030517578,-4.173999786376953 -143.15899658203125,-14.524999618530273 C-143.2949981689453,-18.447999954223633 -141.6929931640625,-22.26099967956543 -138.6840057373047,-24.875999450683594 C-136.22500610351562,-27.013999938964844 -132.88699340820312,-29.202999114990234 -128.947998046875,-30.000999450683594 C-120.35399627685547,-31.743999481201172 -68.79000091552734,-27.562000274658203 -55.54100036621094,-26.16900062561035 C-42.29199981689453,-24.774999618530273 -33.42900085449219,-24.07699966430664 -33.42900085449219,-13.62399959564209 C-33.42900085449219,-3.1710000038146973 -40.540000915527344,12.493000030517578 -46.31999969482422,18.77899932861328z M132.27499389648438,-9.399999618530273 C131.92999267578125,0.949999988079071 130.66299438476562,19.784000396728516 122.78500366210938,24.08099937438965 C110.69599914550781,30.674999237060547 90.19999694824219,30.527000427246094 70.50499725341797,30.347000122070312 C54.26900100708008,30.200000762939453 37.1510009765625,29.215999603271484 28.360000610351562,19.285999298095703 C22.795000076293945,13 21.62700080871582,0.05000000074505806 21.62700080871582,-10.402999877929688 C21.62700080871582,-20.854999542236328 30.159000396728516,-21.552000045776367 42.915000915527344,-22.945999145507812 C55.67100143432617,-24.34000015258789 105.20999908447266,-27.924999237060547 113.58699798583984,-26.77899932861328 C134.6020050048828,-23.902000427246094 132.406005859375,-13.324000358581543 132.27499389648438,-9.399999618530273z"></path></g><g opacity="1" transform="matrix(1,0,0,1,34.23500061035156,44.42900085449219)"><path stroke-linecap="round" stroke-linejoin="round" fill-opacity="0" stroke="rgb(91,90,115)" stroke-opacity="1" stroke-width="8.383" d="M0 0"></path></g><g opacity="1" transform="matrix(1,0,0,1,205.7570037841797,53.784000396728516)"><path stroke-linecap="round" stroke-linejoin="round" fill-opacity="0" stroke="rgb(91,90,115)" stroke-opacity="1" stroke-width="8.383" d=" M-11.100000381469727,-19.516000747680664 C-11.100000381469727,-19.516000747680664 -10.385000228881836,-16.739999771118164 -10.116000175476074,-12.442999839782715 C-9.847999572753906,-8.145999908447266 -6.802999973297119,6.625 -1.4320000410079956,11.279999732971191 C4.690999984741211,16.586999893188477 11.100000381469727,19.516000747680664 11.100000381469727,19.516000747680664"></path></g></g><g style="display: block;" transform="matrix(1.0399999618530273,0,0,1.0643359422683716,159.35057067871094,-21.563575744628906)" opacity="1"><g opacity="1" transform="matrix(1,0,0,1,57.12900161743164,58.944000244140625)"><path stroke-linecap="round" stroke-linejoin="round" fill-opacity="0" stroke="rgb(227,157,130)" stroke-opacity="1" stroke-width="10.739" d=" M-28.847999572753906,13.838000297546387 C-28.847999572753906,13.838000297546387 -10.949000358581543,1.75600004196167 1.6180000305175781,-4.258999824523926 C14.1850004196167,-10.27400016784668 28.847999572753906,-13.838000297546387 28.847999572753906,-13.838000297546387"></path></g><g opacity="1" transform="matrix(1,0,0,1,93.54900360107422,52.36399841308594)"><path stroke-linecap="round" stroke-linejoin="round" fill-opacity="0" stroke="rgb(227,157,130)" stroke-opacity="1" stroke-width="10.739" d=" M-13.71500015258789,4.638000011444092 C-13.71500015258789,4.638000011444092 -3.2330000400543213,0.5490000247955322 13.71500015258789,-4.638000011444092"></path></g><g opacity="1" transform="matrix(1,0,0,1,95.10600280761719,45.52000045776367)"><path stroke-linecap="round" stroke-linejoin="round" fill-opacity="0" stroke="rgb(89,52,43)" stroke-opacity="1" stroke-width="9.507" d=" M-26.211000442504883,11.958000183105469 C-26.211000442504883,11.958000183105469 -14.907999992370605,-9.404000282287598 6.585000038146973,-10.73900032043457 C26.211999893188477,-11.958000183105469 24.371999740600586,1.2769999504089355 24.371999740600586,1.2769999504089355"></path></g><g opacity="1" transform="matrix(1,0,0,1,46.4370002746582,44.750999450683594)"><path stroke-linecap="round" stroke-linejoin="round" fill-opacity="0" stroke="rgb(227,157,130)" stroke-opacity="1" stroke-width="10.739" d=" M-19.59000015258789,5.0289998054504395 C-19.59000015258789,5.0289998054504395 -8.46399974822998,0.8799999952316284 -1.0529999732971191,-0.8999999761581421 C6.359000205993652,-2.680000066757202 19.59000015258789,-5.0289998054504395 19.59000015258789,-5.0289998054504395"></path></g><g opacity="1" transform="matrix(1,0,0,1,74.87000274658203,53.750999450683594)"><path stroke-linecap="round" stroke-linejoin="round" fill-opacity="0" stroke="rgb(89,52,43)" stroke-opacity="1" stroke-width="9.507" d=" M-47.665000915527344,16.743999481201172 C-47.665000915527344,16.743999481201172 -16.260000228881836,-16.743999481201172 18.20400047302246,-16.298999786376953 C42.36199951171875,-15.987000465393066 47.665000915527344,-4.618000030517578 47.665000915527344,-4.618000030517578"></path></g><g opacity="1" transform="matrix(1,0,0,1,49.29999923706055,34.6150016784668)"><path stroke-linecap="round" stroke-linejoin="round" fill-opacity="0" stroke="rgb(89,52,43)" stroke-opacity="1" stroke-width="9.507" d=" M-24.041000366210938,10.847000122070312 C-23.76300048828125,9.51200008392334 -13.20199966430664,-2.1689999103546143 -0.4169999957084656,-6.507999897003174 C12.368000030517578,-10.847000122070312 24.041000366210938,-1.1690000295639038 24.041000366210938,-1.1690000295639038"></path></g></g><g style="display: block;" transform="matrix(1,0,0,1,310.76397705078125,235.39901733398438)" opacity="1"><g opacity="1" transform="matrix(1,0,0,1,78.8949966430664,57.987998962402344)"><path fill="rgb(253,248,220)" fill-opacity="1" d=" M6.980000019073486,4.932000160217285 C6.980000019073486,4.932000160217285 6.073999881744385,18.204999923706055 -4.130000114440918,16.06999969482422 C-13.850000381469727,14.03600025177002 -7.264999866485596,3.825000047683716 -7.264999866485596,3.825000047683716 C-7.264999866485596,3.825000047683716 -22.405000686645508,2.3340001106262207 -17.533000946044922,-7.336999893188477 C-12.65999984741211,-17.009000778198242 1.5269999504089355,-9.571999549865723 1.5269999504089355,-9.571999549865723 C1.5269999504089355,-9.571999549865723 3.625999927520752,-18.20400047302246 13.015000343322754,-14.406000137329102 C22.40399932861328,-10.607000350952148 19.66699981689453,-1.718000054359436 15.89799976348877,0.9070000052452087 C12.130000114440918,3.5329999923706055 6.980000019073486,4.932000160217285 6.980000019073486,4.932000160217285z"></path></g><g opacity="1" transform="matrix(1,0,0,1,78.8949966430664,57.987998962402344)"><path stroke-linecap="round" stroke-linejoin="round" fill-opacity="0" stroke="rgb(180,147,110)" stroke-opacity="1" stroke-width="7.331" d=" M6.980000019073486,4.932000160217285 C6.980000019073486,4.932000160217285 6.073999881744385,18.204999923706055 -4.130000114440918,16.06999969482422 C-13.850000381469727,14.03600025177002 -7.264999866485596,3.825000047683716 -7.264999866485596,3.825000047683716 C-7.264999866485596,3.825000047683716 -22.405000686645508,2.3340001106262207 -17.533000946044922,-7.336999893188477 C-12.65999984741211,-17.009000778198242 1.5269999504089355,-9.571999549865723 1.5269999504089355,-9.571999549865723 C1.5269999504089355,-9.571999549865723 3.625999927520752,-18.20400047302246 13.015000343322754,-14.406000137329102 C22.40399932861328,-10.607000350952148 19.66699981689453,-1.718000054359436 15.89799976348877,0.9070000052452087 C12.130000114440918,3.5329999923706055 6.980000019073486,4.932000160217285 6.980000019073486,4.932000160217285z"></path></g><g opacity="1" transform="matrix(1,0,0,1,148.4530029296875,61.880001068115234)"><path fill="rgb(253,248,220)" fill-opacity="1" d=" M6.135000228881836,4.335000038146973 C6.135000228881836,4.335000038146973 5.340000152587891,16 -3.630000114440918,14.12399959564209 C-12.17199993133545,12.336000442504883 -6.385000228881836,3.36299991607666 -6.385000228881836,3.36299991607666 C-6.385000228881836,3.36299991607666 -19.691999435424805,2.052000045776367 -15.409000396728516,-6.448999881744385 C-11.126999855041504,-14.949999809265137 1.3420000076293945,-8.413000106811523 1.3420000076293945,-8.413000106811523 C1.3420000076293945,-8.413000106811523 3.187999963760376,-16 11.440999984741211,-12.661999702453613 C19.69300079345703,-9.322999954223633 17.28700065612793,-1.5099999904632568 13.973999977111816,0.7979999780654907 C10.661999702453613,3.1059999465942383 6.135000228881836,4.335000038146973 6.135000228881836,4.335000038146973z"></path><path stroke-linecap="round" stroke-linejoin="round" fill-opacity="0" stroke="rgb(180,147,110)" stroke-opacity="1" stroke-width="6.443" d=" M6.135000228881836,4.335000038146973 C6.135000228881836,4.335000038146973 5.340000152587891,16 -3.630000114440918,14.12399959564209 C-12.17199993133545,12.336000442504883 -6.385000228881836,3.36299991607666 -6.385000228881836,3.36299991607666 C-6.385000228881836,3.36299991607666 -19.691999435424805,2.052000045776367 -15.409000396728516,-6.448999881744385 C-11.126999855041504,-14.949999809265137 1.3420000076293945,-8.413000106811523 1.3420000076293945,-8.413000106811523 C1.3420000076293945,-8.413000106811523 3.187999963760376,-16 11.440999984741211,-12.661999702453613 C19.69300079345703,-9.322999954223633 17.28700065612793,-1.5099999904632568 13.973999977111816,0.7979999780654907 C10.661999702453613,3.1059999465942383 6.135000228881836,4.335000038146973 6.135000228881836,4.335000038146973z"></path></g><g opacity="1" transform="matrix(1,0,0,1,39.237998962402344,62.611000061035156)"><path fill="rgb(253,248,220)" fill-opacity="1" d=" M-6.5289998054504395,-5.136000156402588 C-6.5289998054504395,-5.136000156402588 -4.802999973297119,-18.548999786376953 5.422999858856201,-15.76099967956543 C15.161999702453613,-13.104000091552734 7.857999801635742,-3.1429998874664307 7.857999801635742,-3.1429998874664307 C7.857999801635742,-3.1429998874664307 23.131000518798828,-0.7080000042915344 17.597999572753906,8.8100004196167 C12.064000129699707,18.327999114990234 -1.8819999694824219,9.916999816894531 -1.8819999694824219,9.916999816894531 C-1.8819999694824219,9.916999816894531 -4.5370001792907715,18.548999786376953 -13.833000183105469,14.121999740600586 C-23.1299991607666,9.694999694824219 -19.81100082397461,0.8399999737739563 -15.82699966430664,-1.593999981880188 C-11.842000007629395,-4.0289998054504395 -6.5289998054504395,-5.136000156402588 -6.5289998054504395,-5.136000156402588z"></path><path stroke-linecap="round" stroke-linejoin="round" fill-opacity="0" stroke="rgb(180,147,110)" stroke-opacity="1" stroke-width="6.443" d=" M-6.5289998054504395,-5.136000156402588 C-6.5289998054504395,-5.136000156402588 -4.802999973297119,-18.548999786376953 5.422999858856201,-15.76099967956543 C15.161999702453613,-13.104000091552734 7.857999801635742,-3.1429998874664307 7.857999801635742,-3.1429998874664307 C7.857999801635742,-3.1429998874664307 23.131000518798828,-0.7080000042915344 17.597999572753906,8.8100004196167 C12.064000129699707,18.327999114990234 -1.8819999694824219,9.916999816894531 -1.8819999694824219,9.916999816894531 C-1.8819999694824219,9.916999816894531 -4.5370001792907715,18.548999786376953 -13.833000183105469,14.121999740600586 C-23.1299991607666,9.694999694824219 -19.81100082397461,0.8399999737739563 -15.82699966430664,-1.593999981880188 C-11.842000007629395,-4.0289998054504395 -6.5289998054504395,-5.136000156402588 -6.5289998054504395,-5.136000156402588z"></path></g><g opacity="1" transform="matrix(1,0,0,1,128.26600646972656,38.94300079345703)"><path fill="rgb(253,248,220)" fill-opacity="1" d=" M-8.038999557495117,-6.322000026702881 C-8.038999557495117,-6.322000026702881 -5.913000106811523,-22.836000442504883 6.676000118255615,-19.402000427246094 C18.66699981689453,-16.131999969482422 9.673999786376953,-3.86899995803833 9.673999786376953,-3.86899995803833 C9.673999786376953,-3.86899995803833 28.476999282836914,-0.871999979019165 21.663999557495117,10.845999717712402 C14.85200023651123,22.56399917602539 -2.315999984741211,12.208999633789062 -2.315999984741211,12.208999633789062 C-2.315999984741211,12.208999633789062 -5.585999965667725,22.836000442504883 -17.031999588012695,17.38599967956543 C-28.476999282836914,11.935999870300293 -24.388999938964844,1.0360000133514404 -19.483999252319336,-1.9620000123977661 C-14.579000473022461,-4.959000110626221 -8.038999557495117,-6.322000026702881 -8.038999557495117,-6.322000026702881z"></path><path stroke-linecap="round" stroke-linejoin="round" fill-opacity="0" stroke="rgb(180,147,110)" stroke-opacity="1" stroke-width="6.443" d=" M-8.038999557495117,-6.322000026702881 C-8.038999557495117,-6.322000026702881 -5.913000106811523,-22.836000442504883 6.676000118255615,-19.402000427246094 C18.66699981689453,-16.131999969482422 9.673999786376953,-3.86899995803833 9.673999786376953,-3.86899995803833 C9.673999786376953,-3.86899995803833 28.476999282836914,-0.871999979019165 21.663999557495117,10.845999717712402 C14.85200023651123,22.56399917602539 -2.315999984741211,12.208999633789062 -2.315999984741211,12.208999633789062 C-2.315999984741211,12.208999633789062 -5.585999965667725,22.836000442504883 -17.031999588012695,17.38599967956543 C-28.476999282836914,11.935999870300293 -24.388999938964844,1.0360000133514404 -19.483999252319336,-1.9620000123977661 C-14.579000473022461,-4.959000110626221 -8.038999557495117,-6.322000026702881 -8.038999557495117,-6.322000026702881z"></path></g><g opacity="1" transform="matrix(1,0,0,1,68.36199951171875,73.13800048828125)"><path fill="rgb(253,248,220)" fill-opacity="1" d=" M-5.644999980926514,-4.440000057220459 C-5.644999980926514,-4.440000057220459 -4.1519999504089355,-16.03700065612793 4.689000129699707,-13.62600040435791 C13.109000205993652,-11.329000473022461 6.794000148773193,-2.7179999351501465 6.794000148773193,-2.7179999351501465 C6.794000148773193,-2.7179999351501465 19.99799919128418,-0.6119999885559082 15.21399974822998,7.617000102996826 C10.430000305175781,15.845999717712402 -1.6260000467300415,8.574000358581543 -1.6260000467300415,8.574000358581543 C-1.6260000467300415,8.574000358581543 -3.9230000972747803,16.03700065612793 -11.960000038146973,12.210000038146973 C-19.99799919128418,8.383000373840332 -17.12700080871582,0.7269999980926514 -13.682000160217285,-1.378000020980835 C-10.23799991607666,-3.4830000400543213 -5.644999980926514,-4.440000057220459 -5.644999980926514,-4.440000057220459z"></path></g><g opacity="1" transform="matrix(1,0,0,1,68.36199951171875,73.13800048828125)"><path stroke-linecap="round" stroke-linejoin="round" fill-opacity="0" stroke="rgb(180,147,110)" stroke-opacity="1" stroke-width="6.443" d=" M-5.644999980926514,-4.440000057220459 C-5.644999980926514,-4.440000057220459 -4.1519999504089355,-16.03700065612793 4.689000129699707,-13.62600040435791 C13.109000205993652,-11.329000473022461 6.794000148773193,-2.7179999351501465 6.794000148773193,-2.7179999351501465 C6.794000148773193,-2.7179999351501465 19.99799919128418,-0.6119999885559082 15.21399974822998,7.617000102996826 C10.430000305175781,15.845999717712402 -1.6260000467300415,8.574000358581543 -1.6260000467300415,8.574000358581543 C-1.6260000467300415,8.574000358581543 -3.9230000972747803,16.03700065612793 -11.960000038146973,12.210000038146973 C-19.99799919128418,8.383000373840332 -17.12700080871582,0.7269999980926514 -13.682000160217285,-1.378000020980835 C-10.23799991607666,-3.4830000400543213 -5.644999980926514,-4.440000057220459 -5.644999980926514,-4.440000057220459z"></path></g><g opacity="1" transform="matrix(1,0,0,1,96.66699981689453,52.57899856567383)"><path fill="rgb(253,248,220)" fill-opacity="1" d=" M-10.137999534606934,-2.1559998989105225 C-10.137999534606934,-2.1559998989105225 -14.527000427246094,-15.704999923706055 -3.5350000858306885,-17.64900016784668 C6.933000087738037,-19.500999450683594 4.458000183105469,-6.730000019073486 4.458000183105469,-6.730000019073486 C4.458000183105469,-6.730000019073486 20.09600067138672,-11.281000137329102 19.107999801635742,0.2709999978542328 C18.1200008392334,11.824000358581543 1.0579999685287476,10.086999893188477 1.0579999685287476,10.086999893188477 C1.0579999685287476,10.086999893188477 2.4119999408721924,19.500999450683594 -8.432000160217285,19.466999053955078 C-19.274999618530273,19.43400001525879 -20.09600067138672,9.508000373840332 -17.39699935913086,5.3979997634887695 C-14.699000358581543,1.2869999408721924 -10.137999534606934,-2.1559998989105225 -10.137999534606934,-2.1559998989105225z"></path><path stroke-linecap="round" stroke-linejoin="round" fill-opacity="0" stroke="rgb(180,147,110)" stroke-opacity="1" stroke-width="6.443" d=" M-10.137999534606934,-2.1559998989105225 C-10.137999534606934,-2.1559998989105225 -14.527000427246094,-15.704999923706055 -3.5350000858306885,-17.64900016784668 C6.933000087738037,-19.500999450683594 4.458000183105469,-6.730000019073486 4.458000183105469,-6.730000019073486 C4.458000183105469,-6.730000019073486 20.09600067138672,-11.281000137329102 19.107999801635742,0.2709999978542328 C18.1200008392334,11.824000358581543 1.0579999685287476,10.086999893188477 1.0579999685287476,10.086999893188477 C1.0579999685287476,10.086999893188477 2.4119999408721924,19.500999450683594 -8.432000160217285,19.466999053955078 C-19.274999618530273,19.43400001525879 -20.09600067138672,9.508000373840332 -17.39699935913086,5.3979997634887695 C-14.699000358581543,1.2869999408721924 -10.137999534606934,-2.1559998989105225 -10.137999534606934,-2.1559998989105225z"></path></g><g opacity="1" transform="matrix(1,0,0,1,46.72700119018555,61.02299880981445)"><path fill="rgb(253,248,220)" fill-opacity="1" d=" M-10.137999534606934,-2.1559998989105225 C-10.137999534606934,-2.1559998989105225 -14.527000427246094,-15.704999923706055 -3.5350000858306885,-17.64900016784668 C6.933000087738037,-19.500999450683594 4.458000183105469,-6.730000019073486 4.458000183105469,-6.730000019073486 C4.458000183105469,-6.730000019073486 20.09600067138672,-11.281000137329102 19.107999801635742,0.2709999978542328 C18.1200008392334,11.824000358581543 1.0579999685287476,10.086999893188477 1.0579999685287476,10.086999893188477 C1.0579999685287476,10.086999893188477 2.4119999408721924,19.500999450683594 -8.432000160217285,19.466999053955078 C-19.274999618530273,19.43400001525879 -20.09600067138672,9.508000373840332 -17.39699935913086,5.3979997634887695 C-14.699000358581543,1.2869999408721924 -10.137999534606934,-2.1559998989105225 -10.137999534606934,-2.1559998989105225z"></path><path stroke-linecap="round" stroke-linejoin="round" fill-opacity="0" stroke="rgb(180,147,110)" stroke-opacity="1" stroke-width="6.443" d=" M-10.137999534606934,-2.1559998989105225 C-10.137999534606934,-2.1559998989105225 -14.527000427246094,-15.704999923706055 -3.5350000858306885,-17.64900016784668 C6.933000087738037,-19.500999450683594 4.458000183105469,-6.730000019073486 4.458000183105469,-6.730000019073486 C4.458000183105469,-6.730000019073486 20.09600067138672,-11.281000137329102 19.107999801635742,0.2709999978542328 C18.1200008392334,11.824000358581543 1.0579999685287476,10.086999893188477 1.0579999685287476,10.086999893188477 C1.0579999685287476,10.086999893188477 2.4119999408721924,19.500999450683594 -8.432000160217285,19.466999053955078 C-19.274999618530273,19.43400001525879 -20.09600067138672,9.508000373840332 -17.39699935913086,5.3979997634887695 C-14.699000358581543,1.2869999408721924 -10.137999534606934,-2.1559998989105225 -10.137999534606934,-2.1559998989105225z"></path></g></g><g style="display: block;" transform="matrix(1.0232068300247192,0.3756965100765228,-0.3756965100765228,1.0232068300247192,263.2757568359375,162.10418701171875)" opacity="1"><g opacity="1" transform="matrix(1,0,0,1,87.04499816894531,92.91600036621094)"><path fill="rgb(255,148,107)" fill-opacity="1" d=" M-39.82699966430664,6.798999786376953 C-39.82699966430664,6.798999786376953 -14.739999771118164,15.555000305175781 3.3239998817443848,16.343000411987305 C21.386999130249023,17.131999969482422 38.244998931884766,21.524999618530273 39.0359992980957,18.865999221801758 C39.82699966430664,16.20800018310547 39.32600021362305,6.21999979019165 28.200000762939453,2.4639999866485596 C17.075000762939453,-1.2920000553131104 5.28000020980835,-6.0920000076293945 2.2290000915527344,-8.557999610900879 C-0.8209999799728394,-11.02400016784668 -18.756000518798828,-21.524999618530273 -25.94700050354004,-20.54800033569336 C-33.13800048828125,-19.570999145507812 -39.82699966430664,6.798999786376953 -39.82699966430664,6.798999786376953z"></path><path stroke-linecap="round" stroke-linejoin="round" fill-opacity="0" stroke="rgb(202,96,63)" stroke-opacity="1" stroke-width="8.86" d=" M-39.82699966430664,6.798999786376953 C-39.82699966430664,6.798999786376953 -14.739999771118164,15.555000305175781 3.3239998817443848,16.343000411987305 C21.386999130249023,17.131999969482422 38.244998931884766,21.524999618530273 39.0359992980957,18.865999221801758 C39.82699966430664,16.20800018310547 39.32600021362305,6.21999979019165 28.200000762939453,2.4639999866485596 C17.075000762939453,-1.2920000553131104 5.28000020980835,-6.0920000076293945 2.2290000915527344,-8.557999610900879 C-0.8209999799728394,-11.02400016784668 -18.756000518798828,-21.524999618530273 -25.94700050354004,-20.54800033569336 C-33.13800048828125,-19.570999145507812 -39.82699966430664,6.798999786376953 -39.82699966430664,6.798999786376953z"></path></g><g opacity="1" transform="matrix(1,0,0,1,124.0009994506836,64.42500305175781)"><path fill="rgb(245,216,192)" fill-opacity="1" d=" M-32.5369987487793,-37.22800064086914 C-32.5369987487793,-37.22800064086914 3.1410000324249268,-30.062999725341797 11.569000244140625,-16.19499969482422 C19.996999740600586,-2.3269999027252197 32.5369987487793,28.6299991607666 28.833999633789062,32.92900085449219 C25.131000518798828,37.22800064086914 20.979000091552734,36.29399871826172 16.371000289916992,33.20600128173828 C11.76200008392334,30.117000579833984 6.091000080108643,21.48699951171875 3.640000104904175,17.17300033569336 C1.1890000104904175,12.859000205993652 -25.524999618530273,-10.593000411987305 -25.524999618530273,-10.593000411987305 C-25.524999618530273,-10.593000411987305 -32.5369987487793,-37.22800064086914 -32.5369987487793,-37.22800064086914z"></path><path stroke-linecap="round" stroke-linejoin="round" fill-opacity="0" stroke="rgb(202,96,63)" stroke-opacity="1" stroke-width="8.86" d=" M-32.5369987487793,-37.22800064086914 C-32.5369987487793,-37.22800064086914 3.1410000324249268,-30.062999725341797 11.569000244140625,-16.19499969482422 C19.996999740600586,-2.3269999027252197 32.5369987487793,28.6299991607666 28.833999633789062,32.92900085449219 C25.131000518798828,37.22800064086914 20.979000091552734,36.29399871826172 16.371000289916992,33.20600128173828 C11.76200008392334,30.117000579833984 6.091000080108643,21.48699951171875 3.640000104904175,17.17300033569336 C1.1890000104904175,12.859000205993652 -25.524999618530273,-10.593000411987305 -25.524999618530273,-10.593000411987305 C-25.524999618530273,-10.593000411987305 -32.5369987487793,-37.22800064086914 -32.5369987487793,-37.22800064086914z"></path></g><g opacity="1" transform="matrix(1,0,0,1,79.98799896240234,66.9530029296875)"><path fill="rgb(255,203,171)" fill-opacity="1" d=" M53.327999114990234,21.73699951171875 C53.327999114990234,21.73699951171875 55.7130012512207,-9.79800033569336 44.047000885009766,-21.05900001525879 C32.38100051879883,-32.319000244140625 11.791000366210938,-42.678001403808594 0.24199999868869781,-38.86000061035156 C-11.307000160217285,-35.04199981689453 -31.968000411987305,-16.937999725341797 -36.45199966430664,-8.024999618530273 C-40.93600082397461,0.8880000114440918 -55.7140007019043,14.003000259399414 -44.055999755859375,28.34000015258789 C-32.39799880981445,42.678001403808594 -24.385000228881836,41.974998474121094 -13.609000205993652,39.69300079345703 C-2.8329999446868896,37.4119987487793 8.23799991607666,30.74799919128418 13.473999977111816,23.638999938964844 C18.62700080871582,16.641000747680664 17.98200035095215,4.724999904632568 24.908000946044922,3.9730000495910645 C31.83300018310547,3.2209999561309814 34.03900146484375,8.168999671936035 35.244998931884766,18.018999099731445 C36.45199966430664,27.868999481201172 38.525001525878906,35.08599853515625 44.986000061035156,35.25600051879883 C51.448001861572266,35.42599868774414 53.327999114990234,21.73699951171875 53.327999114990234,21.73699951171875z"></path><path stroke-linecap="round" stroke-linejoin="round" fill-opacity="0" stroke="rgb(202,96,63)" stroke-opacity="1" stroke-width="9.71" d=" M53.327999114990234,21.73699951171875 C53.327999114990234,21.73699951171875 55.7130012512207,-9.79800033569336 44.047000885009766,-21.05900001525879 C32.38100051879883,-32.319000244140625 11.791000366210938,-42.678001403808594 0.24199999868869781,-38.86000061035156 C-11.307000160217285,-35.04199981689453 -31.968000411987305,-16.937999725341797 -36.45199966430664,-8.024999618530273 C-40.93600082397461,0.8880000114440918 -55.7140007019043,14.003000259399414 -44.055999755859375,28.34000015258789 C-32.39799880981445,42.678001403808594 -24.385000228881836,41.974998474121094 -13.609000205993652,39.69300079345703 C-2.8329999446868896,37.4119987487793 8.23799991607666,30.74799919128418 13.473999977111816,23.638999938964844 C18.62700080871582,16.641000747680664 17.98200035095215,4.724999904632568 24.908000946044922,3.9730000495910645 C31.83300018310547,3.2209999561309814 34.03900146484375,8.168999671936035 35.244998931884766,18.018999099731445 C36.45199966430664,27.868999481201172 38.525001525878906,35.08599853515625 44.986000061035156,35.25600051879883 C51.448001861572266,35.42599868774414 53.327999114990234,21.73699951171875 53.327999114990234,21.73699951171875z"></path></g><g opacity="1" transform="matrix(1,0,0,1,67.34100341796875,90.66200256347656)"><path fill="rgb(255,147,107)" fill-opacity="1" d=" M9.675999641418457,-6.8379998207092285 C9.675999641418457,-6.8379998207092285 2.193000078201294,0.6460000276565552 -5.0320000648498535,2.7100000381469727 C-12.255999565124512,4.77400016784668 -21.28700065612793,3.4830000400543213 -23.610000610351562,2.193000078201294 C-25.93199920654297,0.902999997138977 -27.738000869750977,-0.3869999945163727 -27.738000869750977,-0.3869999945163727 C-27.738000869750977,-0.3869999945163727 -24.384000778198242,11.741000175476074 -10.965999603271484,11.99899959564209 C2.4509999752044678,12.256999969482422 14.062000274658203,5.031000137329102 19.481000900268555,0.6449999809265137 C24.899999618530273,-3.742000102996826 27.738000869750977,-12.256999969482422 27.738000869750977,-12.256999969482422 C27.738000869750977,-12.256999969482422 20.770999908447266,-10.190999984741211 20.770999908447266,-10.190999984741211 C20.770999908447266,-10.190999984741211 9.675999641418457,-6.8379998207092285 9.675999641418457,-6.8379998207092285z"></path></g><g opacity="1" transform="matrix(1,0,0,1,96.23999786376953,75.2300033569336)"><path fill="rgb(255,203,171)" fill-opacity="1" d=" M-16.506000518798828,-33.137001037597656 C-2.885999917984009,-32.67599868774414 15.38599967956543,-23.937999725341797 20.37299919128418,-10.597999572753906 C25.531999588012695,3.2039999961853027 21.7450008392334,14.559000015258789 20.02400016784668,17.482999801635742 C16.156999588012695,24.05900001525879 -3.36899995803833,33.137001037597656 -5.089000225067139,21.95599937438965 C-5.618000030517578,18.517000198364258 -5.261000156402588,16.708999633789062 -1.3049999475479126,14.902999877929688 C0.367000013589859,14.140000343322754 2.76200008392334,13.378999710083008 2.6519999504089355,13.01099967956543 C2.135999917984009,11.289999961853027 1.7350000143051147,9.25100040435791 0.7580000162124634,6.817999839782715 C-0.09700000286102295,4.686999797821045 -1.7269999980926514,2.5380001068115234 -3.0250000953674316,2.5169999599456787 C-4.264999866485596,2.497999906539917 -19.996000289916992,9.01200008392334 -22.763999938964844,8.388999938964844 C-22.763999938964844,8.388999938964844 -25.531999588012695,7.767000198364258 -25.531999588012695,7.767000198364258"></path><path stroke-linecap="round" stroke-linejoin="round" fill-opacity="0" stroke="rgb(202,96,63)" stroke-opacity="1" stroke-width="8.86" d=" M-16.506000518798828,-33.137001037597656 C-2.885999917984009,-32.67599868774414 15.38599967956543,-23.937999725341797 20.37299919128418,-10.597999572753906 C25.531999588012695,3.2039999961853027 21.7450008392334,14.559000015258789 20.02400016784668,17.482999801635742 C16.156999588012695,24.05900001525879 -3.36899995803833,33.137001037597656 -5.089000225067139,21.95599937438965 C-5.618000030517578,18.517000198364258 -5.261000156402588,16.708999633789062 -1.3049999475479126,14.902999877929688 C0.367000013589859,14.140000343322754 2.76200008392334,13.378999710083008 2.6519999504089355,13.01099967956543 C2.135999917984009,11.289999961853027 1.7350000143051147,9.25100040435791 0.7580000162124634,6.817999839782715 C-0.09700000286102295,4.686999797821045 -1.7269999980926514,2.5380001068115234 -3.0250000953674316,2.5169999599456787 C-4.264999866485596,2.497999906539917 -19.996000289916992,9.01200008392334 -22.763999938964844,8.388999938964844 C-22.763999938964844,8.388999938964844 -25.531999588012695,7.767000198364258 -25.531999588012695,7.767000198364258"></path></g><g opacity="0" transform="matrix(1,0,0,1,0,0)"><path fill="rgb(255,203,171)" fill-opacity="1" d=" M99.2760009765625,26.996000289916992 C88.59400177001953,25.763999938964844 70.5009994506836,34.65800094604492 70.92500305175781,36.053001403808594 C71.3489990234375,37.448001861572266 72.58100128173828,36.46699905395508 75.65599822998047,35.01599884033203 C80.96499633789062,32.5099983215332 84.81999969482422,29.791000366210938 91.13400268554688,29.13800048828125 C96.08899688720703,28.625 97.51599884033203,28.618999481201172 101.86599731445312,29.400999069213867 C106.59300231933594,30.250999450683594 112.39800262451172,33.25400161743164 112.39800262451172,33.25400161743164 C112.39800262451172,33.25400161743164 106.39199829101562,27.816999435424805 99.2760009765625,26.996000289916992z"></path></g></g><g style="display: block;" transform="matrix(1,0,0,1,263.94598388671875,270.6240234375)" opacity="1"><g opacity="1" transform="matrix(1,0,0,1,124.60099792480469,120.34300231933594)"><path fill="url(#__lottie_element_11)" fill-opacity="1" d=" M69.28099822998047,99.08300018310547 C69.28099822998047,99.08300018310547 76.3550033569336,44.12300109863281 88.00700378417969,-15.482000350952148 C97.4209976196289,-63.6349983215332 103.33999633789062,-81.27899932861328 103.33999633789062,-81.27899932861328 C103.33999633789062,-81.27899932861328 88.3499984741211,-95.2979965209961 88.3499984741211,-95.2979965209961 C88.3499984741211,-95.2979965209961 61.882999420166016,-83.51499938964844 61.882999420166016,-83.51499938964844 C61.882999420166016,-83.51499938964844 60.62900161743164,-83.59700012207031 60.55500030517578,-82.87100219726562 C60.55500030517578,-82.87100219726562 46.91699981689453,-97.53500366210938 46.91699981689453,-97.53500366210938 C46.91699981689453,-97.53500366210938 22.999000549316406,-85.14900207519531 22.999000549316406,-85.14900207519531 C22.999000549316406,-85.14900207519531 1.3279999494552612,-99.08300018310547 1.3279999494552612,-99.08300018310547 C1.3279999494552612,-99.08300018310547 -22.59000015258789,-85.40699768066406 -22.59000015258789,-85.40699768066406 C-22.59000015258789,-85.40699768066406 -43.645999908447266,-97.53500366210938 -43.645999908447266,-97.53500366210938 C-43.645999908447266,-97.53500366210938 -63.270999908447266,-85.40699768066406 -63.270999908447266,-85.40699768066406 C-63.270999908447266,-85.40699768066406 -86.78199768066406,-96.76000213623047 -86.78199768066406,-96.76000213623047 C-86.78199768066406,-96.76000213623047 -103.33999633789062,-81.27899932861328 -103.33999633789062,-81.27899932861328 C-103.33999633789062,-81.27899932861328 -98.84100341796875,-52.00299835205078 -95.36799621582031,-24.167999267578125 C-89.91699981689453,19.52400016784668 -83.3740005493164,97.96499633789062 -83.3740005493164,97.96499633789062 C-83.3740005493164,97.96499633789062 -48.14400100708008,98.30899810791016 -25.45199966430664,97.53500366210938 C-2.759999990463257,96.76100158691406 29.285999298095703,98.0510025024414 29.285999298095703,98.0510025024414 C29.285999298095703,98.0510025024414 69.28099822998047,99.08300018310547 69.28099822998047,99.08300018310547z"></path></g><g opacity="1" transform="matrix(1,0,0,1,124.60099792480469,120.34300231933594)"><path stroke-linecap="round" stroke-linejoin="round" fill-opacity="0" stroke="rgb(99,118,178)" stroke-opacity="1" stroke-width="8.504" d=" M69.28099822998047,99.08300018310547 C69.28099822998047,99.08300018310547 76.3550033569336,44.12300109863281 88.00700378417969,-15.482000350952148 C97.4209976196289,-63.6349983215332 103.33999633789062,-81.27899932861328 103.33999633789062,-81.27899932861328 C103.33999633789062,-81.27899932861328 88.3499984741211,-95.2979965209961 88.3499984741211,-95.2979965209961 C88.3499984741211,-95.2979965209961 61.882999420166016,-83.51499938964844 61.882999420166016,-83.51499938964844 C61.882999420166016,-83.51499938964844 60.62900161743164,-83.59700012207031 60.55500030517578,-82.87100219726562 C60.55500030517578,-82.87100219726562 46.91699981689453,-97.53500366210938 46.91699981689453,-97.53500366210938 C46.91699981689453,-97.53500366210938 22.999000549316406,-85.14900207519531 22.999000549316406,-85.14900207519531 C22.999000549316406,-85.14900207519531 1.3279999494552612,-99.08300018310547 1.3279999494552612,-99.08300018310547 C1.3279999494552612,-99.08300018310547 -22.59000015258789,-85.40699768066406 -22.59000015258789,-85.40699768066406 C-22.59000015258789,-85.40699768066406 -43.645999908447266,-97.53500366210938 -43.645999908447266,-97.53500366210938 C-43.645999908447266,-97.53500366210938 -63.270999908447266,-85.40699768066406 -63.270999908447266,-85.40699768066406 C-63.270999908447266,-85.40699768066406 -86.78199768066406,-96.76000213623047 -86.78199768066406,-96.76000213623047 C-86.78199768066406,-96.76000213623047 -103.33999633789062,-81.27899932861328 -103.33999633789062,-81.27899932861328 C-103.33999633789062,-81.27899932861328 -98.84100341796875,-52.00299835205078 -95.36799621582031,-24.167999267578125 C-89.91699981689453,19.52400016784668 -83.3740005493164,97.96499633789062 -83.3740005493164,97.96499633789062 C-83.3740005493164,97.96499633789062 -48.14400100708008,98.30899810791016 -25.45199966430664,97.53500366210938 C-2.759999990463257,96.76100158691406 29.285999298095703,98.0510025024414 29.285999298095703,98.0510025024414 C29.285999298095703,98.0510025024414 69.28099822998047,99.08300018310547 69.28099822998047,99.08300018310547z"></path></g><g opacity="1" transform="matrix(1,0,0,1,123.3740005493164,119.56900024414062)"><path fill="url(#__lottie_element_12)" fill-opacity="1" d=" M-21.363000869750977,-84.63400268554688 C-21.363000869750977,-84.63400268554688 -21.63599967956543,-39.909000396728516 -22.452999114990234,3.0959999561309814 C-23.277999877929688,46.48099899291992 -24.225000381469727,98.30899810791016 -24.225000381469727,98.30899810791016 C-24.225000381469727,98.30899810791016 11.074000358581543,98.0510025024414 11.074000358581543,98.0510025024414 C11.074000358581543,98.0510025024414 12.982000350952148,44.380001068115234 17.06999969482422,-7.570000171661377 C18.847000122070312,-30.138999938964844 24.225000381469727,-84.3759994506836 24.225000381469727,-84.3759994506836 C24.225000381469727,-84.3759994506836 2.555999994277954,-98.30899810791016 2.555999994277954,-98.30899810791016 C2.555999994277954,-98.30899810791016 -21.363000869750977,-84.63400268554688 -21.363000869750977,-84.63400268554688z"></path></g><g opacity="1" transform="matrix(1,0,0,1,45.41699981689453,121.11699676513672)"><path fill="url(#__lottie_element_13)" fill-opacity="1" d=" M15.911999702453613,-86.18199920654297 C15.911999702453613,-86.18199920654297 18.77400016784668,-65.02300262451172 21.226999282836914,0.7749999761581421 C23.68000030517578,66.5719985961914 24.156999588012695,97.19000244140625 24.156999588012695,97.19000244140625 C24.156999588012695,97.19000244140625 -3.9179999828338623,97.53500366210938 -3.9179999828338623,97.53500366210938 C-3.9179999828338623,97.53500366210938 -9.097000122070312,34.57600021362305 -15.638999938964844,-20.81399917602539 C-21.408000946044922,-69.66500091552734 -24.156999588012695,-82.0530014038086 -24.156999588012695,-82.0530014038086 C-24.156999588012695,-82.0530014038086 -7.5980000495910645,-97.53500366210938 -7.5980000495910645,-97.53500366210938 C-7.5980000495910645,-97.53500366210938 15.911999702453613,-86.18199920654297 15.911999702453613,-86.18199920654297z"></path></g><g opacity="1" transform="matrix(1,0,0,1,194.3780059814453,122.23500061035156)"><path fill="url(#__lottie_element_14)" fill-opacity="1" d=" M-9.114999771118164,-85.83799743652344 C-9.114999771118164,-85.83799743652344 -11.208000183105469,-63.81999969482422 -19.79400062561035,-3.440999984741211 C-29.01799964904785,61.42100143432617 -33.5620002746582,96.84700012207031 -33.5620002746582,96.84700012207031 C-33.5620002746582,96.84700012207031 -0.4970000088214874,97.19100189208984 -0.4970000088214874,97.19100189208984 C-0.4970000088214874,97.19100189208984 6.577000141143799,42.22999954223633 18.229999542236328,-17.374000549316406 C27.643999099731445,-65.52799987792969 33.5620002746582,-83.1719970703125 33.5620002746582,-83.1719970703125 C33.5620002746582,-83.1719970703125 18.572999954223633,-97.19100189208984 18.572999954223633,-97.19100189208984 C18.572999954223633,-97.19100189208984 -9.114999771118164,-85.83799743652344 -9.114999771118164,-85.83799743652344z"></path></g><g opacity="1" transform="matrix(1,0,0,1,124.60099792480469,120.34300231933594)"><path stroke-linecap="round" stroke-linejoin="round" fill-opacity="0" stroke="rgb(157,8,31)" stroke-opacity="1" stroke-width="8.054" d=" M69.28099822998047,99.08300018310547 C69.28099822998047,99.08300018310547 76.3550033569336,44.12300109863281 88.00700378417969,-15.482000350952148 C97.4209976196289,-63.6349983215332 103.33999633789062,-81.27899932861328 103.33999633789062,-81.27899932861328 C103.33999633789062,-81.27899932861328 88.3499984741211,-95.2979965209961 88.3499984741211,-95.2979965209961 C88.3499984741211,-95.2979965209961 61.882999420166016,-83.51499938964844 61.882999420166016,-83.51499938964844 C61.882999420166016,-83.51499938964844 60.62900161743164,-83.59700012207031 60.55500030517578,-82.87100219726562 C60.55500030517578,-82.87100219726562 46.91699981689453,-97.53500366210938 46.91699981689453,-97.53500366210938 C46.91699981689453,-97.53500366210938 22.999000549316406,-85.14900207519531 22.999000549316406,-85.14900207519531 C22.999000549316406,-85.14900207519531 1.3279999494552612,-99.08300018310547 1.3279999494552612,-99.08300018310547 C1.3279999494552612,-99.08300018310547 -22.59000015258789,-85.40699768066406 -22.59000015258789,-85.40699768066406 C-22.59000015258789,-85.40699768066406 -43.645999908447266,-97.53500366210938 -43.645999908447266,-97.53500366210938 C-43.645999908447266,-97.53500366210938 -63.270999908447266,-85.40699768066406 -63.270999908447266,-85.40699768066406 C-63.270999908447266,-85.40699768066406 -86.78199768066406,-96.76000213623047 -86.78199768066406,-96.76000213623047 C-86.78199768066406,-96.76000213623047 -103.33999633789062,-81.27899932861328 -103.33999633789062,-81.27899932861328 C-103.33999633789062,-81.27899932861328 -98.84100341796875,-52.00299835205078 -95.36799621582031,-24.167999267578125 C-89.91699981689453,19.52400016784668 -83.3740005493164,97.96499633789062 -83.3740005493164,97.96499633789062 C-83.3740005493164,97.96499633789062 -48.14400100708008,98.30899810791016 -25.45199966430664,97.53500366210938 C-2.759999990463257,96.76100158691406 29.285999298095703,98.0510025024414 29.285999298095703,98.0510025024414 C29.285999298095703,98.0510025024414 69.28099822998047,99.08300018310547 69.28099822998047,99.08300018310547z"></path></g><g opacity="1" transform="matrix(1,0,0,1,38.20399856567383,94.88400268554688)"><path stroke-linecap="round" stroke-linejoin="round" fill-opacity="0" stroke="rgb(255,108,123)" stroke-opacity="1" stroke-width="8.054" d=" M-5.159999847412109,-41.112998962402344 C-5.159999847412109,-41.112998962402344 1.7200000286102295,15.654000282287598 3.440000057220459,28.384000778198242 C3.440000057220459,28.384000778198242 5.159999847412109,41.112998962402344 5.159999847412109,41.112998962402344"></path></g><g opacity="1" transform="matrix(1,0,0,1,46.80500030517578,173.927001953125)"><path stroke-linecap="round" stroke-linejoin="round" fill-opacity="0" stroke="rgb(255,108,123)" stroke-opacity="1" stroke-width="8.054" d=" M-1.031999945640564,-11.526000022888184 C-1.031999945640564,-11.526000022888184 1.031999945640564,11.524999618530273 1.031999945640564,11.524999618530273"></path></g><g opacity="0.22" transform="matrix(1,0,0,1,132.81399536132812,129.02999877929688)"><path fill="rgb(97,4,152)" fill-opacity="1" d=" M-77.40899658203125,70.18299865722656 C-77.40899658203125,70.18299865722656 17.545000076293945,67.7750015258789 30.274999618530273,67.08699798583984 C43.00400161743164,66.39900207519531 84.28900146484375,-85.3219985961914 84.28900146484375,-85.3219985961914 C84.28900146484375,-85.3219985961914 88.072998046875,-86.01000213623047 88.072998046875,-86.01000213623047 C88.072998046875,-86.01000213623047 56.077999114990234,86.00900268554688 56.077999114990234,86.00900268554688 C56.077999114990234,86.00900268554688 -84.63400268554688,85.32099914550781 -85.66600036621094,84.97699737548828 C-86.697998046875,84.63300323486328 -88.0739974975586,73.27899932861328 -88.0739974975586,73.27899932861328 C-88.0739974975586,73.27899932861328 -77.40899658203125,70.18299865722656 -77.40899658203125,70.18299865722656z"></path></g></g><g style="display: block;" transform="matrix(1,0,0,1,429.6949768066406,320.4060363769531)" opacity="1"><g opacity="1" transform="matrix(1,0,0,1,54.48400115966797,42.7130012512207)"><path fill="rgb(245,216,192)" fill-opacity="1" d=" M0.6539999842643738,-15.845000267028809 C-5.48799991607666,-18.163000106811523 -16.849000930786133,-18.43899917602539 -17.923999786376953,-6.46999979019165 C-18.88800048828125,4.256999969482422 -5.392000198364258,7.800000190734863 -3.382999897003174,11.897000312805176 C-1.3739999532699585,15.994000434875488 2.9210000038146973,18.43899917602539 6.158999919891357,18.215999603271484 C16.13599967956543,17.527999877929688 18.88800048828125,-8.96399974822998 0.6539999842643738,-15.845000267028809z"></path></g><g opacity="1" transform="matrix(1,0,0,1,54.48400115966797,42.7130012512207)"><path stroke-linecap="round" stroke-linejoin="round" fill-opacity="0" stroke="rgb(202,96,63)" stroke-opacity="1" stroke-width="9.71" d=" M0.6539999842643738,-15.845000267028809 C-5.48799991607666,-18.163000106811523 -16.849000930786133,-18.43899917602539 -17.923999786376953,-6.46999979019165 C-18.88800048828125,4.256999969482422 -5.392000198364258,7.800000190734863 -3.382999897003174,11.897000312805176 C-1.3739999532699585,15.994000434875488 2.9210000038146973,18.43899917602539 6.158999919891357,18.215999603271484 C16.13599967956543,17.527999877929688 18.88800048828125,-8.96399974822998 0.6539999842643738,-15.845000267028809z"></path></g><g opacity="1" transform="matrix(1,0,0,1,46.055999755859375,100.36299896240234)"><path fill="rgb(245,216,192)" fill-opacity="1" d=" M7.01800012588501,-32.46799850463867 C2.569000005722046,-33.42100143432617 -15.399999618530273,-37.02899932861328 -17.409000396728516,-21.114999771118164 C-18.733999252319336,-10.616999626159668 -8.809000015258789,-8.041000366210938 -8.809000015258789,-8.041000366210938 C-8.809000015258789,-8.041000366210938 -19.91699981689453,-5.396999835968018 -20.849000930786133,4.343999862670898 C-21.7810001373291,14.085000038146973 -12.697999954223633,16.535999298095703 -12.697999954223633,16.535999298095703 C-12.697999954223633,16.535999298095703 -18.986000061035156,20.420000076293945 -17.753999710083008,29.459999084472656 C-16.722000122070312,37.02899932861328 -8.809000015258789,36.685001373291016 -8.809000015258789,36.685001373291016 C-8.809000015258789,36.685001373291016 -0.08100000023841858,36.14099884033203 4.609000205993652,34.619998931884766 C10.972999572753906,32.555999755859375 11.586999893188477,29.076000213623047 13.038999557495117,26.19099998474121 C16.040000915527344,20.225000381469727 12.59000015258789,17.58099937438965 12.59000015258789,17.58099937438965 C12.59000015258789,17.58099937438965 15.61299991607666,15.491999626159668 16.844999313354492,10.192999839782715 C18.07699966430664,4.89300012588501 15.618000030517578,-1.8489999771118164 15.618000030517578,-1.8489999771118164 C15.618000030517578,-1.8489999771118164 21.152000427246094,-9.800000190734863 21.466999053955078,-15.609999656677246 C21.7810001373291,-21.420000076293945 21.468000411987305,-29.371999740600586 7.01800012588501,-32.46799850463867z"></path></g><g opacity="1" transform="matrix(1,0,0,1,46.055999755859375,100.36299896240234)"><path stroke-linecap="round" stroke-linejoin="round" fill-opacity="0" stroke="rgb(202,96,63)" stroke-opacity="1" stroke-width="9.71" d=" M7.01800012588501,-32.46799850463867 C2.569000005722046,-33.42100143432617 -15.399999618530273,-37.02899932861328 -17.409000396728516,-21.114999771118164 C-18.733999252319336,-10.616999626159668 -8.809000015258789,-8.041000366210938 -8.809000015258789,-8.041000366210938 C-8.809000015258789,-8.041000366210938 -19.91699981689453,-5.396999835968018 -20.849000930786133,4.343999862670898 C-21.7810001373291,14.085000038146973 -12.697999954223633,16.535999298095703 -12.697999954223633,16.535999298095703 C-12.697999954223633,16.535999298095703 -18.986000061035156,20.420000076293945 -17.753999710083008,29.459999084472656 C-16.722000122070312,37.02899932861328 -8.809000015258789,36.685001373291016 -8.809000015258789,36.685001373291016 C-8.809000015258789,36.685001373291016 -0.08100000023841858,36.14099884033203 4.609000205993652,34.619998931884766 C10.972999572753906,32.555999755859375 11.586999893188477,29.076000213623047 13.038999557495117,26.19099998474121 C16.040000915527344,20.225000381469727 12.59000015258789,17.58099937438965 12.59000015258789,17.58099937438965 C12.59000015258789,17.58099937438965 15.61299991607666,15.491999626159668 16.844999313354492,10.192999839782715 C18.07699966430664,4.89300012588501 15.618000030517578,-1.8489999771118164 15.618000030517578,-1.8489999771118164 C15.618000030517578,-1.8489999771118164 21.152000427246094,-9.800000190734863 21.466999053955078,-15.609999656677246 C21.7810001373291,-21.420000076293945 21.468000411987305,-29.371999740600586 7.01800012588501,-32.46799850463867z"></path></g><g opacity="1" transform="matrix(1,0,0,1,48.946998596191406,96.5510025024414)"><path stroke-linecap="round" stroke-linejoin="round" fill-opacity="0" stroke="rgb(202,96,63)" stroke-opacity="1" stroke-width="6.253" d=" M-14.274999618530273,-3.247999906539917 C-14.274999618530273,-3.247999906539917 -3.377000093460083,-4.545000076293945 1.7990000247955322,-3.2850000858306885 C11.35099983215332,-0.9610000252723694 14.274999618530273,4.544000148773193 14.274999618530273,4.544000148773193"></path></g><g opacity="1" transform="matrix(1,0,0,1,48.02199935913086,114.81999969482422)"><path stroke-linecap="round" stroke-linejoin="round" fill-opacity="0" stroke="rgb(202,96,63)" stroke-opacity="1" stroke-width="6.253" d=" M-14.661999702453613,2.0799999237060547 C-14.661999702453613,2.0799999237060547 -3.882999897003174,2.5429999828338623 3.3310000896453857,0.8970000147819519 C14.661999702453613,-1.6890000104904175 13.309000015258789,-2.5429999828338623 13.309000015258789,-2.5429999828338623"></path></g></g></g></g></svg>