<svg xmlns="http://www.w3.org/2000/svg" xmlns:xlink="http://www.w3.org/1999/xlink" viewBox="0 0 512 512" width="512" height="512" style="width: 100%; height: 100%; transform: translate3d(0,0,0); content-visibility: visible;" preserveAspectRatio="xMidYMid meet"><defs><clipPath id="__lottie_element_2"><rect width="512" height="512" x="0" y="0"></rect></clipPath><clipPath id="__lottie_element_4"><path d="M0,0 L512,0 L512,512 L0,512z"></path></clipPath><radialGradient id="__lottie_element_13" spreadMethod="pad" gradientUnits="userSpaceOnUse"><stop></stop><stop></stop><stop></stop></radialGradient><radialGradient id="__lottie_element_14" spreadMethod="pad" gradientUnits="userSpaceOnUse"><stop></stop><stop></stop><stop></stop></radialGradient><g id="__lottie_element_25"><g style="display: none;"><g><path></path></g></g></g><mask id="__lottie_element_25_1" mask-type="alpha"><use href="#__lottie_element_25"></use></mask><clipPath id="__lottie_element_41"><path d="M0,0 L512,0 L512,512 L0,512z"></path></clipPath><radialGradient id="__lottie_element_50" spreadMethod="pad" gradientUnits="userSpaceOnUse" cx="-82.5469970703125" cy="-190.1439971923828" r="372.25715457693303" fx="-82.5469970703125" fy="-190.1439971923828"><stop offset="0%" stop-color="rgb(255,192,150)"></stop><stop offset="46%" stop-color="rgb(253,168,110)"></stop><stop offset="100%" stop-color="rgb(252,144,71)"></stop></radialGradient><radialGradient id="__lottie_element_51" spreadMethod="pad" gradientUnits="userSpaceOnUse" cx="-123.44000244140625" cy="-94.2020034790039" r="265.21982993273286" fx="-123.44000244140625" fy="-94.2020034790039"><stop offset="0%" stop-color="rgb(249,223,201)"></stop><stop offset="46%" stop-color="rgb(249,202,171)"></stop><stop offset="100%" stop-color="rgb(250,181,140)"></stop></radialGradient><g id="__lottie_element_62"><g style="display: block;" transform="matrix(1,0,0,1,253,256)" opacity="1"><g opacity="1" transform="matrix(1.0653700828552246,0,0,1,5.15869665145874,7.105867862701416)"><path fill="rgb(12,42,117)" fill-opacity="1" d=" M13,27 C-8,27 -88,27 -104,33 C-116.45999908447266,37.672000885009766 -130.13299560546875,38.099998474121094 -141.24000549316406,71.58899688720703 C-144.39599609375,81.1050033569336 -133.34500122070312,96.29000091552734 -136,112 C-138.39300537109375,126.16100311279297 -154.54800415039062,138.19700622558594 -156.46400451660156,153.1959991455078 C-160.43699645996094,184.3000030517578 -141.38400268554688,188.2429962158203 -143.30499267578125,210.88900756835938 C-145.1020050048828,232.0749969482422 -168,273 -168,273 C-168,273 -167,296 -45.01599884033203,292.99200439453125 C70.96900177001953,290.1319885253906 58,279.5 58,279.5 C58,279.5 62.284000396728516,257.6400146484375 58.099998474121094,212.86399841308594 C57.33399963378906,204.66400146484375 49.1870002746582,170.83999633789062 47,161 C42,138.5 53.797000885009766,139.42599487304688 55.290000915527344,121.51100158691406 C57,101 48.665000915527344,88.49700164794922 47.867000579833984,73.05899810791016 C47.00699996948242,56.41600036621094 53.36800003051758,48.91600036621094 53,44.5 C52,32.5 34,27 13,27z"></path></g></g></g><mask id="__lottie_element_62_1" mask-type="alpha"><use href="#__lottie_element_62"></use></mask></defs><g clip-path="url(#__lottie_element_2)"><g clip-path="url(#__lottie_element_41)" style="display: block;" transform="matrix(1,0,0,1,0,0)" opacity="1"><g style="display: block;" transform="matrix(1.0187400579452515,0,0,0.9945600032806396,13.885818481445312,7.42279052734375)" opacity="1"><g opacity="1" transform="matrix(1,0,0,1,242.9709930419922,230.1479949951172)"><path fill="url(#__lottie_element_50)" fill-opacity="1" d=" M-184.39199829101562,-51.743595123291016 C-184.39199829101562,-51.743595123291016 -150.0189971923828,-136.21644592285156 -80.66400146484375,-162.55345153808594 C-10.494000434875488,-189.20045471191406 82.2959976196289,-195.43345642089844 154.2429962158203,-137.69944763183594 C223.79800415039062,-81.8834457397461 215.92300415039062,14.462404251098633 208.21099853515625,76.92640686035156 C199.32899475097656,148.87339782714844 130.85299682617188,202.84054565429688 10.89900016784668,201.7665557861328 C-83.31600189208984,200.92355346679688 -163.1540069580078,147.1884002685547 -188.0240020751953,82.34740447998047 C-212.89500427246094,17.506404876708984 -184.39199829101562,-51.743595123291016 -184.39199829101562,-51.743595123291016z"></path><path stroke-linecap="butt" stroke-linejoin="miter" fill-opacity="0" stroke-miterlimit="10" stroke="rgb(183,99,57)" stroke-opacity="1" stroke-width="12.37" d=" M-184.39199829101562,-51.743595123291016 C-184.39199829101562,-51.743595123291016 -150.0189971923828,-136.21644592285156 -80.66400146484375,-162.55345153808594 C-10.494000434875488,-189.20045471191406 82.2959976196289,-195.43345642089844 154.2429962158203,-137.69944763183594 C223.79800415039062,-81.8834457397461 215.92300415039062,14.462404251098633 208.21099853515625,76.92640686035156 C199.32899475097656,148.87339782714844 130.85299682617188,202.84054565429688 10.89900016784668,201.7665557861328 C-83.31600189208984,200.92355346679688 -163.1540069580078,147.1884002685547 -188.0240020751953,82.34740447998047 C-212.89500427246094,17.506404876708984 -184.39199829101562,-51.743595123291016 -184.39199829101562,-51.743595123291016z"></path></g><g opacity="1" transform="matrix(1,0,0,1,237.51699829101562,225.88900756835938)"><path fill="url(#__lottie_element_51)" fill-opacity="1" d=" M-161.1909942626953,-49.5989990234375 C-161.1909942626953,-49.5989990234375 -133.66299438476562,-122.64800262451172 -72.18599700927734,-146.3520050048828 C-9.986000061035156,-170.33399963378906 62.53099822998047,-179.3000030517578 126.30599975585938,-127.33899688720703 C187.96099853515625,-77.1050033569336 179.4770050048828,18.09000015258789 172.64100646972656,74.30799865722656 C164.76800537109375,139.0590057373047 109.65299987792969,173.43299865722656 9.66100025177002,176.63099670410156 C-73.81500244140625,179.3000030517578 -143.8699951171875,128.66700744628906 -165.9149932861328,70.31099700927734 C-187.96099853515625,11.954999923706055 -161.1909942626953,-49.5989990234375 -161.1909942626953,-49.5989990234375z"></path></g></g><g style="display: block;" transform="matrix(1.1062519550323486,0,0,1.0291577577590942,87.81590270996094,195.66778564453125)" opacity="1"><g opacity="1" transform="matrix(1.063960075378418,0,0,1.1012200117111206,-7.940650939941406,-9.397972106933594)"><g opacity="1" transform="matrix(1,0,0,1,127.39299774169922,94.47699737548828)"><path fill="rgb(76,14,32)" fill-opacity="1" d=" M-88.76599884033203,-37.86899948120117 C-88.76599884033203,-37.86899948120117 -73.50900268554688,-62.38800048828125 -47.35499954223633,-65.11299896240234 C-21.201000213623047,-67.83699798583984 17.961999893188477,-67.65799713134766 34.92100143432617,-61.29899978637695 C47.99800109863281,-56.39500045776367 81.23500061035156,-33.5099983215332 92.13300323486328,-26.427000045776367 C100.75299835205078,-20.823999404907227 72.51699829101562,34.05500030517578 59.439998626708984,47.676998138427734 C45.07099914550781,62.64400100708008 -10.303999900817871,67.83699798583984 -53.89400100708008,59.66400146484375 C-97.48400115966797,51.49100112915039 -99.66400146484375,40.04800033569336 -100.20800018310547,26.97100067138672 C-100.75299835205078,13.894000053405762 -88.76599884033203,-37.86899948120117 -88.76599884033203,-37.86899948120117z"></path><path stroke-linecap="butt" stroke-linejoin="miter" fill-opacity="0" stroke-miterlimit="10" stroke="rgb(155,74,38)" stroke-opacity="1" stroke-width="13" d=" M-88.76599884033203,-37.86899948120117 C-88.76599884033203,-37.86899948120117 -73.50900268554688,-62.38800048828125 -47.35499954223633,-65.11299896240234 C-21.201000213623047,-67.83699798583984 17.961999893188477,-67.65799713134766 34.92100143432617,-61.29899978637695 C47.99800109863281,-56.39500045776367 81.23500061035156,-33.5099983215332 92.13300323486328,-26.427000045776367 C100.75299835205078,-20.823999404907227 72.51699829101562,34.05500030517578 59.439998626708984,47.676998138427734 C45.07099914550781,62.64400100708008 -10.303999900817871,67.83699798583984 -53.89400100708008,59.66400146484375 C-97.48400115966797,51.49100112915039 -99.66400146484375,40.04800033569336 -100.20800018310547,26.97100067138672 C-100.75299835205078,13.894000053405762 -88.76599884033203,-37.86899948120117 -88.76599884033203,-37.86899948120117z"></path></g><g opacity="1" transform="matrix(1,0,0,1,136.21600341796875,87.40299987792969)"><path fill="rgb(22,3,10)" fill-opacity="1" d=" M49.06399917602539,34.77799987792969 C49.06399917602539,34.77799987792969 60.67499923706055,19.45800018310547 58.82699966430664,-2.0420000553131104 C56.979000091552734,-23.54199981689453 47.981998443603516,-31.118000030517578 39.30500030517578,-34.09299850463867 C22.874000549316406,-39.72700119018555 9.206000328063965,-34.60900115966797 12.475000381469727,-22.621999740600586 C14.652999877929688,-14.63599967956543 8.887999534606934,-6.4019999504089355 -1.1460000276565552,-11.180000305175781 C-12.588000297546387,-16.628000259399414 -3.253000020980835,-26.709999084472656 -4.414999961853027,-30.795000076293945 C-5.578000068664551,-34.880001068115234 -19.93400001525879,-37.11899948120117 -34.426998138427734,-35.04399871826172 C-48.91899871826172,-32.96900177001953 -46.91600036621094,-14.449000358581543 -49.19499969482422,-1.1859999895095825 C-51.555999755859375,12.550999641418457 -60.67499923706055,30.54400062561035 -42.55699920654297,35.1349983215332 C-24.437999725341797,39.72600173950195 49.06399917602539,34.77799987792969 49.06399917602539,34.77799987792969z"></path></g></g></g><g style="display: block;" transform="matrix(1.0803214311599731,0,0,1.0050342082977295,62.55276107788086,98.05792999267578)" opacity="1"><g opacity="1" transform="matrix(1.2272090911865234,-0.06833232939243317,0.07228011637926102,1.2981091737747192,-67.20660400390625,-3.5070266723632812)"><g opacity="1" transform="matrix(1,0,0,1,275.17401123046875,68.8740005493164)"><path fill="rgb(242,139,87)" fill-opacity="1" d=" M-35.24800109863281,-6.392000198364258 C-35.24800109863281,-6.392000198364258 -31.18199920654297,-29.94099998474121 2.7109999656677246,-33.30500030517578 C36.604000091552734,-36.66899871826172 44.737998962402344,-2.3550000190734863 34.56999969482422,14.465999603271484 C24.402000427246094,31.285999298095703 2.7109999656677246,36.66899871826172 -21.013999938964844,24.558000564575195 C-44.73899841308594,12.446999549865723 -35.24800109863281,-6.392000198364258 -35.24800109863281,-6.392000198364258z"></path></g><g opacity="1" transform="matrix(1,0,0,1,270.510986328125,62.61899948120117)"><path fill="rgb(37,33,48)" fill-opacity="1" d=" M-29.785999298095703,-5.441999912261963 C-29.785999298095703,-5.441999912261963 -26.349000930786133,-25.490999221801758 2.2920000553131104,-28.354999542236328 C30.933000564575195,-31.2189998626709 37.805999755859375,-2.005000114440918 29.214000701904297,12.315999984741211 C20.621000289916992,26.63599967956543 2.2920000553131104,31.2189998626709 -17.756999969482422,20.908000946044922 C-37.805999755859375,10.597000122070312 -29.785999298095703,-5.441999912261963 -29.785999298095703,-5.441999912261963z"></path><path stroke-linecap="round" stroke-linejoin="round" fill-opacity="0" stroke="rgb(5,7,15)" stroke-opacity="1" stroke-width="11.564" d=" M-29.785999298095703,-5.441999912261963 C-29.785999298095703,-5.441999912261963 -26.349000930786133,-25.490999221801758 2.2920000553131104,-28.354999542236328 C30.933000564575195,-31.2189998626709 37.805999755859375,-2.005000114440918 29.214000701904297,12.315999984741211 C20.621000289916992,26.63599967956543 2.2920000553131104,31.2189998626709 -17.756999969482422,20.908000946044922 C-37.805999755859375,10.597000122070312 -29.785999298095703,-5.441999912261963 -29.785999298095703,-5.441999912261963z"></path></g><g opacity="1" transform="matrix(1,0,0,1,251.97900390625,52.67399978637695)"><path fill="rgb(81,103,183)" fill-opacity="1" d=" M0.6050000190734863,0.06051851809024811 C0.6050000190734863,0.06051851809024811 -1.8071480989456177,-1.123518466949463 3.0128519535064697,-5.598518371582031 C7.832851886749268,-10.072518348693848 10.66429615020752,-5.812703609466553 10.582296371459961,-2.7757036685943604 C10.500296592712402,0.2612963020801544 10.72177791595459,0.2943703830242157 6.098777770996094,1.8763703107833862 C1.4767777919769287,3.4583704471588135 0.6050000190734863,0.06051851809024811 0.6050000190734863,0.06051851809024811z"></path></g><g opacity="0.92617727945843" transform="matrix(1,0,0,1,282.6730041503906,54.04499816894531)"><path fill="rgb(255,255,255)" fill-opacity="1" d=" M-16.875200271606445,-10.652400016784668 C-17.960399627685547,-10.12279987335205 -19.22920036315918,-9.79640007019043 -18.006200790405273,-7.404399871826172 C-17.99920082092285,-7.39139986038208 -17.84119987487793,-7.13539981842041 -17.838199615478516,-7.1203999519348145 C-17.597200393676758,-5.676400184631348 -14.453200340270996,-6.020400047302246 -10.68120002746582,-4.25439977645874 C-6.908199787139893,-2.4883999824523926 -5.667200088500977,5.847400188446045 -3.809000015258789,8.928000450134277 C-2.0931999683380127,11.825599670410156 2.7444000244140625,14.334600448608398 5.875400066375732,14.334600448608398 C9.005399703979492,14.334600448608398 12.99839973449707,10.70479965209961 12.196399688720703,6.049799919128418 C11.393400192260742,1.3938000202178955 9.299599647521973,-4.981800079345703 2.9586000442504883,-9.154800415039062 C-2.1953999996185303,-12.547800064086914 -11.441800117492676,-13.501399993896484 -16.875200271606445,-10.652400016784668z"></path></g><g opacity="1" transform="matrix(1,0,0,1,270.510986328125,62.61899948120117)"><path stroke-linecap="round" stroke-linejoin="round" fill-opacity="0" stroke="rgb(5,7,15)" stroke-opacity="1" stroke-width="11.564" d=" M-29.785999298095703,-5.441999912261963 C-29.785999298095703,-5.441999912261963 -26.349000930786133,-25.490999221801758 2.2920000553131104,-28.354999542236328 C30.933000564575195,-31.2189998626709 37.805999755859375,-2.005000114440918 29.214000701904297,12.315999984741211 C20.621000289916992,26.63599967956543 2.2920000553131104,31.2189998626709 -17.756999969482422,20.908000946044922 C-37.805999755859375,10.597000122070312 -29.785999298095703,-5.441999912261963 -29.785999298095703,-5.441999912261963z"></path></g></g><g opacity="1" transform="matrix(1.19035005569458,0,0,1.2369699478149414,-8.287193298339844,-16.590469360351562)"><g opacity="1" transform="matrix(1,0,0,1,63.43600082397461,61.393001556396484)"><path fill="rgb(242,139,87)" fill-opacity="1" d=" M-33.558998107910156,-6.211999893188477 C-33.558998107910156,-6.211999893188477 -29.687000274658203,-29.099000930786133 2.5810000896453857,-32.36899948120117 C34.849998474121094,-35.638999938964844 42.59400177001953,-2.2880001068115234 32.91400146484375,14.0600004196167 C23.232999801635742,30.408000946044922 2.5810000896453857,35.638999938964844 -20.006000518798828,23.868999481201172 C-42.59400177001953,12.097999572753906 -33.558998107910156,-6.211999893188477 -33.558998107910156,-6.211999893188477z"></path></g><g opacity="1" transform="matrix(1,0,0,1,61.494998931884766,55.095001220703125)"><path fill="rgb(37,33,48)" fill-opacity="1" d=" M-29.725000381469727,-6.353000164031982 C-29.725000381469727,-6.353000164031982 -23.086000442504883,-30.860000610351562 7.086999893188477,-26.976999282836914 C37.2599983215332,-23.093000411987305 29.964000701904297,10.682999610900879 23.676000595092773,17.834999084472656 C17.386999130249023,24.98699951171875 -2.565000057220459,30.860000610351562 -19.913000106811523,20.224000930786133 C-37.2599983215332,9.588000297546387 -29.725000381469727,-6.353000164031982 -29.725000381469727,-6.353000164031982z"></path><path stroke-linecap="round" stroke-linejoin="round" fill-opacity="0" stroke="rgb(5,7,15)" stroke-opacity="1" stroke-width="9.694" d=" M-29.725000381469727,-6.353000164031982 C-29.725000381469727,-6.353000164031982 -23.086000442504883,-30.860000610351562 7.086999893188477,-26.976999282836914 C37.2599983215332,-23.093000411987305 29.964000701904297,10.682999610900879 23.676000595092773,17.834999084472656 C17.386999130249023,24.98699951171875 -2.565000057220459,30.860000610351562 -19.913000106811523,20.224000930786133 C-37.2599983215332,9.588000297546387 -29.725000381469727,-6.353000164031982 -29.725000381469727,-6.353000164031982z"></path></g><g opacity="1" transform="matrix(1,0,0,1,44.83000183105469,46.066001892089844)"><path fill="rgb(100,145,249)" fill-opacity="1" d=" M-3.436000108718872,1.7589999437332153 C-3.436000108718872,1.7589999437332153 -5.170000076293945,-0.7839999794960022 -2.1530001163482666,-4.388999938964844 C0.8629999756813049,-7.993000030517578 4.76800012588501,-5.656000137329102 5.294000148773193,-3.132999897003174 C5.821000099182129,-0.609000027179718 4.183000087738037,1.9919999837875366 0.7609999775886536,3.196000099182129 C-2.6600000858306885,4.400000095367432 -3.436000108718872,1.7589999437332153 -3.436000108718872,1.7589999437332153z"></path></g><g opacity="0.8246329595938224" transform="matrix(1,0,0,1,69.07499694824219,41.65399932861328)"><path fill="rgb(255,255,255)" fill-opacity="1" d=" M-5.916600227355957,-2.186000108718872 C-5.094600200653076,-4.936600208282471 -0.5342000126838684,-4.390399932861328 1.7838000059127808,-4.331399917602539 C5.070799827575684,-4.2484002113342285 9.414999961853027,-1.444599986076355 11.395000457763672,1.2829999923706055 C15.935799598693848,7.7779998779296875 15.334199905395508,19.74839973449707 10.406399726867676,21.089599609375 C8.11400032043457,21.921600341796875 3.436000108718872,21.895999908447266 0.5496000051498413,18.56559944152832 C-1.9182000160217285,15.74839973449707 -1.2259999513626099,6.532199859619141 -5.817800045013428,4.357800006866455 C-9.76200008392334,2.4993999004364014 -6.100399971008301,-1.5642000436782837 -5.916600227355957,-2.186000108718872z"></path></g><g opacity="1" transform="matrix(1,0,0,1,61.494998931884766,55.095001220703125)"><path stroke-linecap="round" stroke-linejoin="round" fill-opacity="0" stroke="rgb(5,7,15)" stroke-opacity="1" stroke-width="9.694" d=" M-29.725000381469727,-6.353000164031982 C-29.725000381469727,-6.353000164031982 -23.086000442504883,-30.860000610351562 7.086999893188477,-26.976999282836914 C37.2599983215332,-23.093000411987305 29.964000701904297,10.682999610900879 23.676000595092773,17.834999084472656 C17.386999130249023,24.98699951171875 -2.565000057220459,30.860000610351562 -19.913000106811523,20.224000930786133 C-37.2599983215332,9.588000297546387 -29.725000381469727,-6.353000164031982 -29.725000381469727,-6.353000164031982z"></path></g></g></g><g style="display: block;" transform="matrix(1.1062519550323486,0,0,1.0291577577590942,121.02779388427734,272.9215087890625)" opacity="1"><g opacity="1" transform="matrix(1,0,0,1,91.10800170898438,46.02000045776367)"><path fill="rgb(214,33,93)" fill-opacity="1" d=" M67.88300323486328,-2.5429999828338623 C67.88300323486328,-2.5429999828338623 51.900001525878906,-22.885000228881836 -1.8609999418258667,-22.52199935913086 C-55.62200164794922,-22.159000396728516 -67.9729995727539,3.631999969482422 -67.9729995727539,3.631999969482422 C-67.9729995727539,3.631999969482422 -39.2760009765625,22.885000228881836 3.9509999752044678,21.06800079345703 C47.178001403808594,19.25200080871582 67.9729995727539,6.35699987411499 67.9729995727539,6.35699987411499 C67.9729995727539,6.35699987411499 67.88300323486328,-2.5429999828338623 67.88300323486328,-2.5429999828338623z"></path><path stroke-linecap="round" stroke-linejoin="round" fill-opacity="0" stroke="rgb(137,21,66)" stroke-opacity="1" stroke-width="9.254" d=" M67.88300323486328,-2.5429999828338623 C67.88300323486328,-2.5429999828338623 51.900001525878906,-22.885000228881836 -1.8609999418258667,-22.52199935913086 C-55.62200164794922,-22.159000396728516 -67.9729995727539,3.631999969482422 -67.9729995727539,3.631999969482422 C-67.9729995727539,3.631999969482422 -39.2760009765625,22.885000228881836 3.9509999752044678,21.06800079345703 C47.178001403808594,19.25200080871582 67.9729995727539,6.35699987411499 67.9729995727539,6.35699987411499 C67.9729995727539,6.35699987411499 67.88300323486328,-2.5429999828338623 67.88300323486328,-2.5429999828338623z"></path></g></g><g style="display: block;" transform="matrix(1.1597280502319336,0,0,1.16616952419281,97.51792907714844,293.05731201171875)" opacity="1"><g opacity="1" transform="matrix(1,0,0,1,98.40399932861328,48.00199890136719)"><path fill="rgb(255,255,255)" fill-opacity="1" d=" M-20.614999771118164,-13.621999740600586 C-20.614999771118164,-13.621999740600586 -20.797000885009766,-2.3610000610351562 -20.433000564575195,2.5429999828338623 C-20.06999969482422,7.447000026702881 -19.88800048828125,11.079000473022461 -17.527000427246094,12.350000381469727 C-15.166000366210938,13.621999740600586 13.713000297546387,12.895000457763672 16.256000518798828,11.987000465393066 C18.798999786376953,11.079000473022461 20.797000885009766,-12.440999984741211 20.797000885009766,-12.440999984741211 C20.797000885009766,-12.440999984741211 11.805000305175781,-12.440999984741211 1.4520000219345093,-12.71399974822998 C-7.263999938964844,-12.942999839782715 -20.614999771118164,-13.621999740600586 -20.614999771118164,-13.621999740600586z"></path><path stroke-linecap="round" stroke-linejoin="round" fill-opacity="0" stroke="rgb(107,136,178)" stroke-opacity="1" stroke-width="7.359" d=" M-20.614999771118164,-13.621999740600586 C-20.614999771118164,-13.621999740600586 -20.797000885009766,-2.3610000610351562 -20.433000564575195,2.5429999828338623 C-20.06999969482422,7.447000026702881 -19.88800048828125,11.079000473022461 -17.527000427246094,12.350000381469727 C-15.166000366210938,13.621999740600586 13.713000297546387,12.895000457763672 16.256000518798828,11.987000465393066 C18.798999786376953,11.079000473022461 20.797000885009766,-12.440999984741211 20.797000885009766,-12.440999984741211 C20.797000885009766,-12.440999984741211 11.805000305175781,-12.440999984741211 1.4520000219345093,-12.71399974822998 C-7.263999938964844,-12.942999839782715 -20.614999771118164,-13.621999740600586 -20.614999771118164,-13.621999740600586z"></path></g><g opacity="1" transform="matrix(1,0,0,1,133.91099548339844,46.595001220703125)"><path fill="rgb(255,255,255)" fill-opacity="1" d=" M18.253000259399414,-12.668999671936035 C18.253000259399414,-12.668999671936035 15.444999694824219,-2.6449999809265137 14.041000366210938,2.0889999866485596 C12.63700008392334,6.822000026702881 9.12600040435791,9.604999542236328 1.4040000438690186,10.718999862670898 C-6.318999767303467,11.831999778747559 -18.253999710083008,12.668999671936035 -18.253999710083008,12.668999671936035 C-18.253999710083008,12.668999671936035 -15.093999862670898,-5.429999828338623 -15.093999862670898,-8.21399974822998 C-15.093999862670898,-10.998000144958496 -16.499000549316406,-10.996999740600586 -16.499000549316406,-10.996999740600586 C-16.499000549316406,-10.996999740600586 -2.7869999408721924,-11.555999755859375 0,-11.833000183105469 C5.616000175476074,-12.390000343322754 18.253000259399414,-12.668999671936035 18.253000259399414,-12.668999671936035z"></path><path stroke-linecap="round" stroke-linejoin="round" fill-opacity="0" stroke="rgb(107,136,178)" stroke-opacity="1" stroke-width="7.359" d=" M18.253000259399414,-12.668999671936035 C18.253000259399414,-12.668999671936035 15.444999694824219,-2.6449999809265137 14.041000366210938,2.0889999866485596 C12.63700008392334,6.822000026702881 9.12600040435791,9.604999542236328 1.4040000438690186,10.718999862670898 C-6.318999767303467,11.831999778747559 -18.253999710083008,12.668999671936035 -18.253999710083008,12.668999671936035 C-18.253999710083008,12.668999671936035 -15.093999862670898,-5.429999828338623 -15.093999862670898,-8.21399974822998 C-15.093999862670898,-10.998000144958496 -16.499000549316406,-10.996999740600586 -16.499000549316406,-10.996999740600586 C-16.499000549316406,-10.996999740600586 -2.7869999408721924,-11.555999755859375 0,-11.833000183105469 C5.616000175476074,-12.390000343322754 18.253000259399414,-12.668999671936035 18.253000259399414,-12.668999671936035z"></path></g><g opacity="1" transform="matrix(1,0,0,1,164.28799438476562,42.779998779296875)"><path fill="rgb(255,255,255)" fill-opacity="1" d=" M14.576000213623047,-13.486000061035156 C14.576000213623047,-13.486000061035156 5.311999797821045,-10.48799991607666 -2.0439999103546143,-9.39799976348877 C-6.625,-8.720000267028809 -12.940999984741211,-8.03600025177002 -12.940999984741211,-8.03600025177002 C-12.940999984741211,-8.03600025177002 -14.576000213623047,13.486000061035156 -14.576000213623047,13.486000061035156 C-14.576000213623047,13.486000061035156 1.2259999513626099,8.309000015258789 6.673999786376953,1.7710000276565552 C12.123000144958496,-4.76800012588501 14.576000213623047,-13.486000061035156 14.576000213623047,-13.486000061035156z"></path><path stroke-linecap="round" stroke-linejoin="round" fill-opacity="0" stroke="rgb(107,136,178)" stroke-opacity="1" stroke-width="7.359" d=" M14.576000213623047,-13.486000061035156 C14.576000213623047,-13.486000061035156 5.311999797821045,-10.48799991607666 -2.0439999103546143,-9.39799976348877 C-6.625,-8.720000267028809 -12.940999984741211,-8.03600025177002 -12.940999984741211,-8.03600025177002 C-12.940999984741211,-8.03600025177002 -14.576000213623047,13.486000061035156 -14.576000213623047,13.486000061035156 C-14.576000213623047,13.486000061035156 1.2259999513626099,8.309000015258789 6.673999786376953,1.7710000276565552 C12.123000144958496,-4.76800012588501 14.576000213623047,-13.486000061035156 14.576000213623047,-13.486000061035156z"></path></g><g opacity="1" transform="matrix(1,0,0,1,61.034000396728516,44.27899932861328)"><path fill="rgb(255,255,255)" fill-opacity="1" d=" M-16.209999084472656,-15.802000045776367 C-16.209999084472656,-15.802000045776367 -17.027000427246094,0.5450000166893005 -16.48200035095215,4.086999893188477 C-15.937999725341797,7.629000186920166 -14.574999809265137,10.89799976348877 -9.39900016784668,11.442999839782715 C-4.2230000495910645,11.98799991607666 15.664999961853027,15.802000045776367 15.664999961853027,15.802000045776367 C15.664999961853027,15.802000045776367 17.027000427246094,2.178999900817871 17.027000427246094,-1.9079999923706055 C17.027000427246094,-1.9079999923706055 17.027000427246094,-9.53600025177002 17.027000427246094,-9.53600025177002 C17.027000427246094,-9.53600025177002 8.036999702453613,-11.170999526977539 0.9539999961853027,-12.805000305175781 C-6.130000114440918,-14.4399995803833 -16.209999084472656,-15.802000045776367 -16.209999084472656,-15.802000045776367z"></path><path stroke-linecap="round" stroke-linejoin="round" fill-opacity="0" stroke="rgb(107,136,178)" stroke-opacity="1" stroke-width="7.359" d=" M-16.209999084472656,-15.802000045776367 C-16.209999084472656,-15.802000045776367 -17.027000427246094,0.5450000166893005 -16.48200035095215,4.086999893188477 C-15.937999725341797,7.629000186920166 -14.574999809265137,10.89799976348877 -9.39900016784668,11.442999839782715 C-4.2230000495910645,11.98799991607666 15.664999961853027,15.802000045776367 15.664999961853027,15.802000045776367 C15.664999961853027,15.802000045776367 17.027000427246094,2.178999900817871 17.027000427246094,-1.9079999923706055 C17.027000427246094,-1.9079999923706055 17.027000427246094,-9.53600025177002 17.027000427246094,-9.53600025177002 C17.027000427246094,-9.53600025177002 8.036999702453613,-11.170999526977539 0.9539999961853027,-12.805000305175781 C-6.130000114440918,-14.4399995803833 -16.209999084472656,-15.802000045776367 -16.209999084472656,-15.802000045776367z"></path></g><g opacity="1" transform="matrix(1,0,0,1,31.611000061035156,35.970001220703125)"><path fill="rgb(255,255,255)" fill-opacity="1" d=" M-11.12399959564209,-17.572999954223633 C-11.12399959564209,-17.572999954223633 -12.668999671936035,-5.040999889373779 -12.940999984741211,-0.9539999961853027 C-13.21399974822998,3.131999969482422 -8.3100004196167,6.675000190734863 -0.13699999451637268,11.85099983215332 C2.437000036239624,13.480999946594238 12.668999671936035,17.572999954223633 12.668999671936035,17.572999954223633 C12.668999671936035,17.572999954223633 10.76099967956543,6.675000190734863 11.032999992370605,3.4059998989105225 C11.305999755859375,0.13600000739097595 13.213000297546387,-8.581999778747559 11.57800006866455,-9.12600040435791 C9.944000244140625,-9.670999526977539 5.823999881744385,-10.470000267028809 1.4980000257492065,-12.12399959564209 C-7.764999866485596,-15.666000366210938 -11.12399959564209,-17.572999954223633 -11.12399959564209,-17.572999954223633z"></path><path stroke-linecap="round" stroke-linejoin="round" fill-opacity="0" stroke="rgb(107,136,178)" stroke-opacity="1" stroke-width="7.359" d=" M-11.12399959564209,-17.572999954223633 C-11.12399959564209,-17.572999954223633 -12.668999671936035,-5.040999889373779 -12.940999984741211,-0.9539999961853027 C-13.21399974822998,3.131999969482422 -8.3100004196167,6.675000190734863 -0.13699999451637268,11.85099983215332 C2.437000036239624,13.480999946594238 12.668999671936035,17.572999954223633 12.668999671936035,17.572999954223633 C12.668999671936035,17.572999954223633 10.76099967956543,6.675000190734863 11.032999992370605,3.4059998989105225 C11.305999755859375,0.13600000739097595 13.213000297546387,-8.581999778747559 11.57800006866455,-9.12600040435791 C9.944000244140625,-9.670999526977539 5.823999881744385,-10.470000267028809 1.4980000257492065,-12.12399959564209 C-7.764999866485596,-15.666000366210938 -11.12399959564209,-17.572999954223633 -11.12399959564209,-17.572999954223633z"></path></g></g><g style="display: block;" transform="matrix(1.3389298915863037,0,0,1.1889241933822632,106.2305908203125,205.63182067871094)" opacity="1"><g opacity="1" transform="matrix(1,0,0,1,30.586999893188477,30.367000579833984)"><path fill="rgb(255,255,255)" fill-opacity="1" d=" M-12.189000129699707,-1.003000020980835 C-12.189000129699707,-1.003000020980835 -6.09499979019165,4.51200008392334 1.6619999408721924,7.520999908447266 C1.6619999408721924,7.520999908447266 9.418999671936035,10.529000282287598 9.418999671936035,10.529000282287598 C9.418999671936035,10.529000282287598 12.189000129699707,-10.529000282287598 12.189000129699707,-10.529000282287598 C12.189000129699707,-10.529000282287598 5.539999961853027,-9.527000427246094 -0.5540000200271606,-7.520999908447266 C-6.64900016784668,-5.515999794006348 -12.189000129699707,-1.003000020980835 -12.189000129699707,-1.003000020980835z"></path><path stroke-linecap="round" stroke-linejoin="round" fill-opacity="0" stroke="rgb(107,136,178)" stroke-opacity="1" stroke-width="7.359" d=" M-12.189000129699707,-1.003000020980835 C-12.189000129699707,-1.003000020980835 -6.09499979019165,4.51200008392334 1.6619999408721924,7.520999908447266 C1.6619999408721924,7.520999908447266 9.418999671936035,10.529000282287598 9.418999671936035,10.529000282287598 C9.418999671936035,10.529000282287598 12.189000129699707,-10.529000282287598 12.189000129699707,-10.529000282287598 C12.189000129699707,-10.529000282287598 5.539999961853027,-9.527000427246094 -0.5540000200271606,-7.520999908447266 C-6.64900016784668,-5.515999794006348 -12.189000129699707,-1.003000020980835 -12.189000129699707,-1.003000020980835z"></path></g><g opacity="1" transform="matrix(1,0,0,1,57.459999084472656,31.033000946044922)"><path fill="rgb(255,255,255)" fill-opacity="1" d=" M15.791999816894531,-10.694000244140625 C15.791999816894531,-10.694000244140625 16.899999618530273,1.840999960899353 16.899999618530273,4.848999977111816 C16.899999618530273,7.85699987411499 17.45400047302246,10.866000175476074 17.45400047302246,10.866000175476074 C17.45400047302246,10.866000175476074 10.34000015258789,12.07800006866455 -1.8289999961853027,11.71500015258789 C-9.045999526977539,11.5 -17.45400047302246,9.86299991607666 -17.45400047302246,9.86299991607666 C-17.45400047302246,9.86299991607666 -15.451000213623047,-10.442999839782715 -15.451000213623047,-10.442999839782715 C-15.451000213623047,-10.442999839782715 -5.460999965667725,-12.07800006866455 3.9830000400543213,-11.532999992370605 C6.415999889373779,-11.392999649047852 15.791999816894531,-10.694000244140625 15.791999816894531,-10.694000244140625z"></path><path stroke-linecap="round" stroke-linejoin="round" fill-opacity="0" stroke="rgb(107,136,178)" stroke-opacity="1" stroke-width="7.359" d=" M15.791999816894531,-10.694000244140625 C15.791999816894531,-10.694000244140625 16.899999618530273,1.840999960899353 16.899999618530273,4.848999977111816 C16.899999618530273,7.85699987411499 17.45400047302246,10.866000175476074 17.45400047302246,10.866000175476074 C17.45400047302246,10.866000175476074 10.34000015258789,12.07800006866455 -1.8289999961853027,11.71500015258789 C-9.045999526977539,11.5 -17.45400047302246,9.86299991607666 -17.45400047302246,9.86299991607666 C-17.45400047302246,9.86299991607666 -15.451000213623047,-10.442999839782715 -15.451000213623047,-10.442999839782715 C-15.451000213623047,-10.442999839782715 -5.460999965667725,-12.07800006866455 3.9830000400543213,-11.532999992370605 C6.415999889373779,-11.392999649047852 15.791999816894531,-10.694000244140625 15.791999816894531,-10.694000244140625z"></path></g><g opacity="1" transform="matrix(1,0,0,1,88.32599639892578,30.753999710083008)"><path fill="rgb(255,255,255)" fill-opacity="1" d=" M18.23200035095215,-9.255999565124512 C18.23200035095215,-9.255999565124512 19.43600082397461,9.270000457763672 19.03499984741211,10.359999656677246 C18.632999420166016,11.449000358581543 5.36899995803833,12.357000350952148 -1.4550000429153442,12.357000350952148 C-8.279999732971191,12.357000350952148 -16.691999435424805,11.086000442504883 -16.691999435424805,11.086000442504883 C-16.691999435424805,11.086000442504883 -19.43600082397461,-10.163999557495117 -19.43600082397461,-10.163999557495117 C-19.43600082397461,-10.163999557495117 -11.069000244140625,-12.357000350952148 -0.2329999953508377,-11.798999786376953 C10.350000381469727,-11.253999710083008 18.23200035095215,-9.255999565124512 18.23200035095215,-9.255999565124512z"></path><path stroke-linecap="round" stroke-linejoin="round" fill-opacity="0" stroke="rgb(107,136,178)" stroke-opacity="1" stroke-width="7.359" d=" M18.23200035095215,-9.255999565124512 C18.23200035095215,-9.255999565124512 19.43600082397461,9.270000457763672 19.03499984741211,10.359999656677246 C18.632999420166016,11.449000358581543 5.36899995803833,12.357000350952148 -1.4550000429153442,12.357000350952148 C-8.279999732971191,12.357000350952148 -16.691999435424805,11.086000442504883 -16.691999435424805,11.086000442504883 C-16.691999435424805,11.086000442504883 -19.43600082397461,-10.163999557495117 -19.43600082397461,-10.163999557495117 C-19.43600082397461,-10.163999557495117 -11.069000244140625,-12.357000350952148 -0.2329999953508377,-11.798999786376953 C10.350000381469727,-11.253999710083008 18.23200035095215,-9.255999565124512 18.23200035095215,-9.255999565124512z"></path></g><g opacity="1" transform="matrix(1,0,0,1,121.00900268554688,30.398000717163086)"><path fill="rgb(255,255,255)" fill-opacity="1" d=" M9.633999824523926,-6.71999979019165 C9.633999824523926,-6.71999979019165 4.816999912261963,-8.899999618530273 -0.4020000100135803,-9.98900032043457 C-5.619999885559082,-11.079000473022461 -17.26099967956543,-9.98900032043457 -17.26099967956543,-9.98900032043457 C-17.26099967956543,-9.98900032043457 -14.451000213623047,11.079000473022461 -14.451000213623047,11.079000473022461 C-14.451000213623047,11.079000473022461 -2.821000099182129,8.876999855041504 4.013999938964844,6.35699987411499 C14.852999687194824,2.3610000610351562 17.26099967956543,-1.2710000276565552 17.26099967956543,-1.2710000276565552 C17.26099967956543,-1.2710000276565552 9.633999824523926,-6.71999979019165 9.633999824523926,-6.71999979019165z"></path><path stroke-linecap="round" stroke-linejoin="round" fill-opacity="0" stroke="rgb(107,136,178)" stroke-opacity="1" stroke-width="7.359" d=" M9.633999824523926,-6.71999979019165 C9.633999824523926,-6.71999979019165 4.816999912261963,-8.899999618530273 -0.4020000100135803,-9.98900032043457 C-5.619999885559082,-11.079000473022461 -17.26099967956543,-9.98900032043457 -17.26099967956543,-9.98900032043457 C-17.26099967956543,-9.98900032043457 -14.451000213623047,11.079000473022461 -14.451000213623047,11.079000473022461 C-14.451000213623047,11.079000473022461 -2.821000099182129,8.876999855041504 4.013999938964844,6.35699987411499 C14.852999687194824,2.3610000610351562 17.26099967956543,-1.2710000276565552 17.26099967956543,-1.2710000276565552 C17.26099967956543,-1.2710000276565552 9.633999824523926,-6.71999979019165 9.633999824523926,-6.71999979019165z"></path></g></g><g style="display: block;" mask="url(#__lottie_element_62_1)"><g transform="matrix(1.080841302871704,0,0,0.974035918712616,75.10832977294922,238.479248046875)" opacity="1"><g opacity="1" transform="matrix(1,0,0,1,40.17499923706055,145.9669952392578)"><path fill="rgb(214,48,34)" fill-opacity="1" d=" M-22.850000381469727,-108.18800354003906 C-22.850000381469727,-108.18800354003906 12.95199966430664,-117.27300262451172 22.86199951171875,-117.27300262451172 C32.77299880981445,-117.27300262451172 45.55400085449219,-112.52999877929688 45.55400085449219,-112.52999877929688 C45.55400085449219,-112.52999877929688 30.579999923706055,-93.34500122070312 21.59600067138672,-55.858001708984375 C15.720000267028809,-31.341999053955078 22.45199966430664,-22.608999252319336 21.764999389648438,-0.29499998688697815 C21.360000610351562,12.869999885559082 7.677999973297119,26.378000259399414 5.855000019073486,40.422000885009766 C3.2200000286102295,60.72999954223633 16.250999450683594,85.38700103759766 13.404000282287598,108.26200103759766 C10.89799976348877,128.4029998779297 0.2630000114440918,158.75 1.8869999647140503,168.64199829101562 C5.636000156402588,191.47500610351562 3.5390000343322754,213.5240020751953 3.5390000343322754,213.5240020751953 C3.5390000343322754,213.5240020751953 -31.999000549316406,230.375 -31.999000549316406,230.375 C-31.999000549316406,230.375 -54.25400161743164,159.8260040283203 -51.777000427246094,106.14399719238281 C-49.29899978637695,52.46200180053711 -41.176998138427734,-6.142000198364258 -38.70000076293945,-28.44099998474121 C-36.22200012207031,-50.73899841308594 -22.850000381469727,-108.18800354003906 -22.850000381469727,-108.18800354003906z"></path></g><g opacity="1" transform="matrix(1,0,0,1,48.17499923706055,145.9669952392578)"><path fill="rgb(214,48,34)" fill-opacity="1" d=" M-22.850000381469727,-108.18800354003906 C-22.850000381469727,-108.18800354003906 12.95199966430664,-117.27300262451172 22.86199951171875,-117.27300262451172 C32.77299880981445,-117.27300262451172 45.55400085449219,-112.52999877929688 45.55400085449219,-112.52999877929688 C45.55400085449219,-112.52999877929688 30.579999923706055,-93.34500122070312 21.59600067138672,-55.858001708984375 C15.720000267028809,-31.341999053955078 22.45199966430664,-22.608999252319336 21.764999389648438,-0.29499998688697815 C21.360000610351562,12.869999885559082 7.677999973297119,26.378000259399414 5.855000019073486,40.422000885009766 C3.2200000286102295,60.72999954223633 16.250999450683594,85.38700103759766 13.404000282287598,108.26200103759766 C10.89799976348877,128.4029998779297 0.2630000114440918,158.75 1.8869999647140503,168.64199829101562 C5.636000156402588,191.47500610351562 3.5390000343322754,213.5240020751953 3.5390000343322754,213.5240020751953 C3.5390000343322754,213.5240020751953 -31.999000549316406,230.375 -31.999000549316406,230.375 C-31.999000549316406,230.375 -54.25400161743164,159.8260040283203 -51.777000427246094,106.14399719238281 C-49.29899978637695,52.46200180053711 -41.176998138427734,-6.142000198364258 -38.70000076293945,-28.44099998474121 C-36.22200012207031,-50.73899841308594 -22.850000381469727,-108.18800354003906 -22.850000381469727,-108.18800354003906z"></path></g><g opacity="1" transform="matrix(1,0,0,1,81.03900146484375,144.34100341796875)"><path fill="rgb(242,158,63)" fill-opacity="1" d=" M32.29800033569336,-118.89800262451172 C32.29800033569336,-118.89800262451172 30.599000930786133,-108.37899780273438 22.957000732421875,-85.43299865722656 C15.303000450134277,-62.452999114990234 4.556000232696533,-68.2020034790039 4.888000011444092,-43.71900177001953 C5.124000072479248,-26.322999954223633 14.279999732971191,-13.32800006866455 10.581999778747559,6.690000057220459 C8.347000122070312,18.788000106811523 -7.72599983215332,31.615999221801758 -2.940000057220459,56.75400161743164 C-0.8360000252723694,67.8030014038086 12.432999610900879,93.7750015258789 11.640999794006348,112.13899993896484 C10.04800033569336,149.0760040283203 -1.5190000534057617,185.69900512695312 -0.41600000858306885,200.5919952392578 C1.2350000143051147,222.89100646972656 28.079999923706055,239.35800170898438 28.079999923706055,239.35800170898438 C28.079999923706055,239.35800170898438 -40.792999267578125,210.96800231933594 -40.792999267578125,210.96800231933594 C-40.792999267578125,210.96800231933594 -40.17900085449219,172.41900634765625 -30.554000854492188,108.9729995727539 C-25.636999130249023,76.56099700927734 -41.47800064086914,75.95500183105469 -38.979000091552734,45.21900177001953 C-36.895999908447266,19.59600067138672 -26.429000854492188,30.066999435424805 -22.82699966430664,-0.7559999823570251 C-19.975000381469727,-25.160999298095703 -27.68400001525879,-35.27799987792969 -24.576000213623047,-56.32899856567383 C-22.881999969482422,-67.80500030517578 -14.699999809265137,-76.35800170898438 -11.036999702453613,-85.23600006103516 C-2.1440000534057617,-106.78600311279297 10.135000228881836,-113.58300018310547 10.135000228881836,-113.58300018310547 C10.135000228881836,-113.58300018310547 18.676000595092773,-117.80799865722656 18.676000595092773,-117.80799865722656 C18.676000595092773,-117.80799865722656 32.29800033569336,-118.89800262451172 32.29800033569336,-118.89800262451172z"></path></g><g opacity="1" transform="matrix(1,0,0,1,87.03900146484375,144.34100341796875)"><path fill="rgb(242,158,63)" fill-opacity="1" d=" M32.29800033569336,-118.89800262451172 C32.29800033569336,-118.89800262451172 30.599000930786133,-108.37899780273438 22.957000732421875,-85.43299865722656 C15.303000450134277,-62.452999114990234 4.556000232696533,-68.2020034790039 4.888000011444092,-43.71900177001953 C5.124000072479248,-26.322999954223633 14.279999732971191,-13.32800006866455 10.581999778747559,6.690000057220459 C8.347000122070312,18.788000106811523 -7.72599983215332,31.615999221801758 -2.940000057220459,56.75400161743164 C-0.8360000252723694,67.8030014038086 12.432999610900879,93.7750015258789 11.640999794006348,112.13899993896484 C10.04800033569336,149.0760040283203 -1.5190000534057617,185.69900512695312 -0.41600000858306885,200.5919952392578 C1.2350000143051147,222.89100646972656 28.079999923706055,239.35800170898438 28.079999923706055,239.35800170898438 C28.079999923706055,239.35800170898438 -40.792999267578125,210.96800231933594 -40.792999267578125,210.96800231933594 C-40.792999267578125,210.96800231933594 -40.17900085449219,172.41900634765625 -30.554000854492188,108.9729995727539 C-25.636999130249023,76.56099700927734 -41.47800064086914,75.95500183105469 -38.979000091552734,45.21900177001953 C-36.895999908447266,19.59600067138672 -26.429000854492188,30.066999435424805 -22.82699966430664,-0.7559999823570251 C-19.975000381469727,-25.160999298095703 -27.68400001525879,-35.27799987792969 -24.576000213623047,-56.32899856567383 C-22.881999969482422,-67.80500030517578 -14.699999809265137,-76.35800170898438 -11.036999702453613,-85.23600006103516 C-2.1440000534057617,-106.78600311279297 10.135000228881836,-113.58300018310547 10.135000228881836,-113.58300018310547 C10.135000228881836,-113.58300018310547 18.676000595092773,-117.80799865722656 18.676000595092773,-117.80799865722656 C18.676000595092773,-117.80799865722656 32.29800033569336,-118.89800262451172 32.29800033569336,-118.89800262451172z"></path></g><g opacity="1" transform="matrix(1,0,0,1,114.9749984741211,141.07200622558594)"><path fill="rgb(254,248,87)" fill-opacity="1" d=" M22.881999969482422,-122.16799926757812 C22.881999969482422,-122.16799926757812 11.579989433288574,-120.2699966430664 3.265989065170288,-119.44400024414062 C-5.047010898590088,-118.61799621582031 -6.327281475067139,-115.1003189086914 -6.327281475067139,-115.1003189086914 C-6.327281475067139,-115.1003189086914 -6.494659900665283,-94.73040008544922 -13.557760238647461,-79.49336242675781 C-18.79360580444336,-68.1944580078125 -28.716957092285156,-63.29229736328125 -29.94852066040039,-48.903648376464844 C-31.4173641204834,-31.76108741760254 -20.896419525146484,-19.412569046020508 -24.858041763305664,6.046999931335449 C-27.18752670288086,21.032608032226562 -37.46417236328125,32.342838287353516 -37.92692947387695,56.2866096496582 C-38.47881317138672,84.98218536376953 -19.916322708129883,87.23116302490234 -22.604394912719727,112.41400146484375 C-23.93794822692871,124.9676284790039 -26.446998596191406,144.0645751953125 -32.455238342285156,161.9845733642578 C-50.55295181274414,215.98623657226562 -15.571999549865723,242.62600708007812 -15.571999549865723,242.62600708007812 C-15.571999549865723,242.62600708007812 25.9950008392334,241.80099487304688 25.9950008392334,241.80099487304688 C25.9950008392334,241.80099487304688 22.07388687133789,212.4505615234375 22.072887420654297,146.83755493164062 C22.072887420654297,134.83255004882812 23.46884536743164,116.30183410644531 21.458845138549805,106.04583740234375 C15.827845573425293,77.3078384399414 5.163122653961182,59.20252227783203 4.968510150909424,50.3675537109375 C4.398271083831787,26.584123611450195 22.368886947631836,10.501556396484375 12.74936580657959,-15.582985877990723 C9.218052864074707,-25.224285125732422 7.220625877380371,-32.54271697998047 6.837981700897217,-39.10690689086914 C6.312215805053711,-47.98286437988281 8.78709602355957,-55.45783996582031 14.799927711486816,-66.10359191894531 C29.84734535217285,-92.5352783203125 22.881999969482422,-122.16799926757812 22.881999969482422,-122.16799926757812z"></path></g><g opacity="1" transform="matrix(1,0,0,1,150.10400390625,141.61700439453125)"><path fill="rgb(131,243,81)" fill-opacity="1" d=" M14.22700023651123,-118.82599639892578 C14.22700023651123,-118.82599639892578 15.041000366210938,-121.62300109863281 2.4579999446868896,-121.62300109863281 C-10.125,-121.62300109863281 -16.988000869750977,-118.99500274658203 -16.988000869750977,-118.99500274658203 C-16.988000869750977,-118.99500274658203 -6.9343342781066895,-107.98859405517578 -16.338430404663086,-79.16805267333984 C-22.152475357055664,-61.324668884277344 -30.366655349731445,-59.2132682800293 -30.687580108642578,-43.225521087646484 C-31.093387603759766,-23.269670486450195 -21.977745056152344,-21.30152130126953 -21.74117088317871,-2.590371608734131 C-21.42571449279785,23.005537033081055 -32.423641204833984,31.85952377319336 -32.423641204833984,47.79352569580078 C-32.423641204833984,66.01952362060547 -16.497591018676758,83.80690002441406 -16.06859016418457,112.12689971923828 C-15.188591003417969,170.20889282226562 -25.47800064086914,244.1750030517578 -25.47800064086914,244.1750030517578 C-25.47800064086914,244.1750030517578 16.003000259399414,247.84800720214844 16.003000259399414,247.84800720214844 C16.003000259399414,247.84800720214844 39.66029357910156,134.53652954101562 13.830619812011719,73.69562530517578 C-1.0094295740127563,38.56142044067383 17.35681915283203,21.941102981567383 18.080820083618164,7.663103103637695 C19.0598201751709,-11.638896942138672 10.167510986328125,-18.78993797302246 5.305039882659912,-37.299468994140625 C-0.5959103107452393,-59.78133010864258 20.14715003967285,-60.24089813232422 21.7281494140625,-80.62389373779297 C23.692150115966797,-105.9458999633789 14.22700023651123,-118.82599639892578 14.22700023651123,-118.82599639892578z"></path></g><g opacity="1" transform="matrix(1,0,0,1,45.17499923706055,145.9669952392578)"><path fill="rgb(214,48,34)" fill-opacity="1" d=" M-22.850000381469727,-108.18800354003906 C-22.850000381469727,-108.18800354003906 12.95199966430664,-117.27300262451172 22.86199951171875,-117.27300262451172 C32.77299880981445,-117.27300262451172 45.55400085449219,-112.52999877929688 45.55400085449219,-112.52999877929688 C45.55400085449219,-112.52999877929688 30.579999923706055,-93.34500122070312 21.59600067138672,-55.858001708984375 C15.720000267028809,-31.341999053955078 22.45199966430664,-22.608999252319336 21.764999389648438,-0.29499998688697815 C21.360000610351562,12.869999885559082 7.677999973297119,26.378000259399414 5.855000019073486,40.422000885009766 C3.2200000286102295,60.72999954223633 16.250999450683594,85.38700103759766 13.404000282287598,108.26200103759766 C10.89799976348877,128.4029998779297 0.2630000114440918,158.75 1.8869999647140503,168.64199829101562 C5.636000156402588,191.47500610351562 3.5390000343322754,213.5240020751953 3.5390000343322754,213.5240020751953 C3.5390000343322754,213.5240020751953 -31.999000549316406,230.375 -31.999000549316406,230.375 C-31.999000549316406,230.375 -54.25400161743164,159.8260040283203 -51.777000427246094,106.14399719238281 C-49.29899978637695,52.46200180053711 -41.176998138427734,-6.142000198364258 -38.70000076293945,-28.44099998474121 C-36.22200012207031,-50.73899841308594 -22.850000381469727,-108.18800354003906 -22.850000381469727,-108.18800354003906z"></path></g><g opacity="1" transform="matrix(1,0,0,1,144.10400390625,141.61700439453125)"><path fill="rgb(131,243,81)" fill-opacity="1" d=" M14.22700023651123,-118.82599639892578 C14.22700023651123,-118.82599639892578 15.041000366210938,-121.62300109863281 2.4579999446868896,-121.62300109863281 C-10.125,-121.62300109863281 -16.988000869750977,-118.99500274658203 -16.988000869750977,-118.99500274658203 C-16.988000869750977,-118.99500274658203 -6.9343342781066895,-107.98859405517578 -16.338430404663086,-79.16805267333984 C-22.152475357055664,-61.324668884277344 -30.366655349731445,-59.2132682800293 -30.687580108642578,-43.225521087646484 C-31.093387603759766,-23.269670486450195 -21.977745056152344,-21.30152130126953 -21.74117088317871,-2.590371608734131 C-21.42571449279785,23.005537033081055 -32.423641204833984,31.85952377319336 -32.423641204833984,47.79352569580078 C-32.423641204833984,66.01952362060547 -16.497591018676758,83.80690002441406 -16.06859016418457,112.12689971923828 C-15.188591003417969,170.20889282226562 -25.47800064086914,244.1750030517578 -25.47800064086914,244.1750030517578 C-25.47800064086914,244.1750030517578 16.003000259399414,247.84800720214844 16.003000259399414,247.84800720214844 C16.003000259399414,247.84800720214844 39.66029357910156,134.53652954101562 13.830619812011719,73.69562530517578 C-1.0094295740127563,38.56142044067383 17.35681915283203,21.941102981567383 18.080820083618164,7.663103103637695 C19.0598201751709,-11.638896942138672 10.167510986328125,-18.78993797302246 5.305039882659912,-37.299468994140625 C-0.5959103107452393,-59.78133010864258 20.14715003967285,-60.24089813232422 21.7281494140625,-80.62389373779297 C23.692150115966797,-105.9458999633789 14.22700023651123,-118.82599639892578 14.22700023651123,-118.82599639892578z"></path></g><g opacity="1" transform="matrix(1,0,0,1,180.38499450683594,137.52999877929688)"><path fill="rgb(96,239,232)" fill-opacity="1" d=" M19.58799934387207,-97.10299682617188 C19.58799934387207,-97.10299682617188 27.009000778198242,-77.06900024414062 10.526000022888184,-49.86000061035156 C0.7860000133514404,-33.78200149536133 15.23900032043457,-19.58300018310547 15.614999771118164,2.0439999103546143 C15.847000122070312,15.409000396728516 -1.6490000486373901,31.634000778198242 12.89799976348877,57.784000396728516 C21.7810001373291,73.75299835205078 24.56999969482422,98.18699645996094 25.624000549316406,116.43499755859375 C27.489999771118164,148.74000549316406 24.22800064086914,176.41700744628906 24.22800064086914,185.8800048828125 C24.22800064086914,206.52699279785156 25.29400062561035,237.08399963378906 25.29400062561035,237.08399963378906 C25.29400062561035,237.08399963378906 -14.14799976348877,246.16900634765625 -15.21399974822998,241.21299743652344 C-16.084999084472656,237.16299438476562 -4.854000091552734,165.5500030517578 -10.684000015258789,114.1969985961914 C-14.954999923706055,76.5770034790039 -28.260000228881836,74.48699951171875 -26.701000213623047,55.82400131225586 C-25.29199981689453,38.96099853515625 -17.393999099731445,31.503999710083008 -17.19499969482422,2.3589999675750732 C-17.082000732421875,-14.175000190734863 -29.606000900268555,-23.819000244140625 -29.243999481201172,-39.45199966430664 C-28.96500015258789,-51.4900016784668 -16.350000381469727,-64.30899810791016 -15.993000030517578,-73.97200012207031 C-15.35200023651123,-91.31900024414062 -20.26300048828125,-101.9800033569336 -19.64299964904785,-104.45899963378906 C-14.73900032043457,-124.0739974975586 -15.557000160217285,-125.70899963378906 -15.557000160217285,-125.70899963378906 C-15.557000160217285,-125.70899963378906 18.770999908447266,-122.44000244140625 18.770999908447266,-122.44000244140625 C18.770999908447266,-122.44000244140625 19.58799934387207,-97.10299682617188 19.58799934387207,-97.10299682617188z"></path></g><g opacity="1" transform="matrix(1,0,0,1,215.67799377441406,131.7449951171875)"><path fill="rgb(83,88,255)" fill-opacity="1" d=" M-5.353000164031982,-124.28299713134766 C-5.353000164031982,-124.28299713134766 39.071998596191406,-130.4499969482422 42.375999450683594,-118.06199645996094 C45.67900085449219,-105.67400360107422 40.74100112915039,-8.269000053405762 41.83100128173828,77.82099914550781 C42.520999908447266,132.3249969482422 25.51300048828125,237.91400146484375 25.51300048828125,237.91400146484375 C25.51300048828125,237.91400146484375 6.51800012588501,244.52099609375 -0.08900000154972076,244.52099609375 C-6.696000099182129,244.52099609375 -12.435999870300293,246.23300170898438 -12.435999870300293,246.23300170898438 C-12.435999870300293,246.23300170898438 -17.496000289916992,207.26699829101562 -15.871000289916992,148.20700073242188 C-15.57699966430664,137.51300048828125 -15.041000366210938,114.83200073242188 -15.145999908447266,104.56500244140625 C-15.449000358581543,75.0469970703125 -29.777999877929688,63.54899978637695 -31.687999725341797,46.31999969482422 C-33.94499969482422,25.964000701904297 -23.125,17.009000778198242 -23.280000686645508,3.4509999752044678 C-23.409000396728516,-7.820000171661377 -31.10300064086914,-25.624000549316406 -31.142000198364258,-30.341999053955078 C-31.312999725341797,-50.902000427246094 -22.61400032043457,-54.56100082397461 -19.656999588012695,-67.68499755859375 C-12.651000022888184,-98.78600311279297 -21.562000274658203,-118.86499786376953 -21.562000274658203,-118.86499786376953 C-21.562000274658203,-118.86499786376953 -5.353000164031982,-124.28299713134766 -5.353000164031982,-124.28299713134766z"></path></g></g></g><g style="display: block;" transform="matrix(1.086483359336853,0,0,1.0117868185043335,282.646240234375,202.09445190429688)" opacity="1"><g opacity="1" transform="matrix(1,0,0,1,77.44400024414062,87.0739974975586)"><path fill="rgb(250,181,140)" fill-opacity="1" d=" M-7.355999946594238,-59.57400131225586 C-7.355999946594238,-59.57400131225586 -14.439000129699707,-65.2030029296875 -26.062999725341797,-45.224998474121094 C-37.6870002746582,-25.246000289916992 -41.31999969482422,-1.2719999551773071 -38.05099868774414,16.163999557495117 C-34.78099822998047,33.599998474121094 -11.170000076293945,56.48500061035156 -0.27300000190734863,60.84400177001953 C10.625,65.2030029296875 41.31999969482422,32.87300109863281 34.05500030517578,-13.803999900817871 C27.156999588012695,-58.12200164794922 -7.355999946594238,-59.57400131225586 -7.355999946594238,-59.57400131225586z"></path></g><g opacity="1" transform="matrix(1,0,0,1,49.611000061035156,85.25700378417969)"><path stroke-linecap="round" stroke-linejoin="round" fill-opacity="0" stroke="rgb(206,107,58)" stroke-opacity="1" stroke-width="12" d=" M22.11199951171875,-57.75699996948242 C22.11199951171875,-57.75699996948242 -2.9519999027252197,-50.12900161743164 -10.03600025177002,-29.42300033569336 C-22.111000061035156,5.874000072479248 -13.958000183105469,21.81800079345703 -8.67300033569336,32.69200134277344 C-1.590000033378601,47.268001556396484 15.845000267028809,57.75699996948242 15.845000267028809,57.75699996948242"></path></g></g><g style="display: block;" transform="matrix(1.1062519550323486,0,0,1.0291577577590942,73.34943389892578,191.18064880371094)" opacity="1"><g opacity="1" transform="matrix(1,0,0,1,132.89100646972656,50.6150016784668)"><path stroke-linecap="round" stroke-linejoin="round" fill-opacity="0" stroke="rgb(155,74,38)" stroke-opacity="1" stroke-width="10.656" d=" M-104.84700012207031,15.975000381469727 C-104.84700012207031,15.975000381469727 -80.08899688720703,-20.591999053955078 -45.21699905395508,-21.680999755859375 C-1.593999981880188,-23.045000076293945 27.07900047302246,-23.235000610351562 46.62900161743164,-16.957000732421875 C65.33399963378906,-10.951000213623047 84.71900177001953,5.545000076293945 84.71900177001953,5.545000076293945"></path></g></g></g><g clip-path="url(#__lottie_element_4)" style="display: none;"><g style="display: none;"><g><path fill="url(#__lottie_element_13)"></path><path stroke-linecap="butt" stroke-linejoin="miter" fill-opacity="0" stroke-miterlimit="10"></path></g><g><path fill="url(#__lottie_element_14)"></path></g></g><g style="display: none;"><g><g><path></path><path stroke-linecap="butt" stroke-linejoin="miter" fill-opacity="0" stroke-miterlimit="10"></path></g><g><path></path></g></g></g><g style="display: none;"><g><g><path></path></g><g><path></path><path stroke-linecap="round" stroke-linejoin="round" fill-opacity="0"></path></g><g><path></path></g><g><path></path></g><g><path stroke-linecap="round" stroke-linejoin="round" fill-opacity="0"></path></g></g><g><g><path></path></g><g><path></path><path stroke-linecap="round" stroke-linejoin="round" fill-opacity="0"></path></g><g><path></path></g><g><path></path></g><g><path stroke-linecap="round" stroke-linejoin="round" fill-opacity="0"></path></g></g></g><g style="display: none;"><g><path></path><path stroke-linecap="round" stroke-linejoin="round" fill-opacity="0"></path></g></g><g style="display: none;"><g><path></path><path stroke-linecap="round" stroke-linejoin="round" fill-opacity="0"></path></g><g><path></path><path stroke-linecap="round" stroke-linejoin="round" fill-opacity="0"></path></g><g><path></path><path stroke-linecap="round" stroke-linejoin="round" fill-opacity="0"></path></g><g><path></path><path stroke-linecap="round" stroke-linejoin="round" fill-opacity="0"></path></g><g><path></path><path stroke-linecap="round" stroke-linejoin="round" fill-opacity="0"></path></g></g><g style="display: none;"><g><path></path><path stroke-linecap="round" stroke-linejoin="round" fill-opacity="0"></path></g><g><path></path><path stroke-linecap="round" stroke-linejoin="round" fill-opacity="0"></path></g><g><path></path><path stroke-linecap="round" stroke-linejoin="round" fill-opacity="0"></path></g><g><path></path><path stroke-linecap="round" stroke-linejoin="round" fill-opacity="0"></path></g></g><g style="display: none;" mask="url(#__lottie_element_25_1)"><g><g><path></path></g><g><path></path></g><g><path></path></g><g><path></path></g><g><path></path></g><g><path></path></g><g><path></path></g><g><path></path></g><g><path></path></g><g><path></path></g></g></g><g style="display: none;"><g><path></path></g><g><path stroke-linecap="round" stroke-linejoin="round" fill-opacity="0"></path></g></g><g style="display: none;"><g><path stroke-linecap="round" stroke-linejoin="round" fill-opacity="0"></path></g></g></g></g></svg>