<svg xmlns="http://www.w3.org/2000/svg" xmlns:xlink="http://www.w3.org/1999/xlink" viewBox="0 0 512 512" width="512" height="512" style="width: 100%; height: 100%; transform: translate3d(0,0,0); content-visibility: visible;" preserveAspectRatio="xMidYMid meet"><defs><clipPath id="__lottie_element_2"><rect width="512" height="512" x="0" y="0"></rect></clipPath><radialGradient id="__lottie_element_16" spreadMethod="pad" gradientUnits="userSpaceOnUse" cx="6.2230000495910645" cy="-133.38900756835938" r="329.90606636841017" fx="6.2230000495910645" fy="-133.38900756835938"><stop offset="0%" stop-color="rgb(223,250,237)"></stop><stop offset="50%" stop-color="rgb(180,214,208)"></stop><stop offset="100%" stop-color="rgb(136,178,179)"></stop></radialGradient><radialGradient id="__lottie_element_17" spreadMethod="pad" gradientUnits="userSpaceOnUse" cx="-99" cy="-100" r="314.94340778064435" fx="-99" fy="-100"><stop offset="0%" stop-color="rgb(144,186,183)"></stop><stop offset="50%" stop-color="rgb(124,170,170)"></stop><stop offset="100%" stop-color="rgb(105,154,156)"></stop></radialGradient><radialGradient id="__lottie_element_25" spreadMethod="pad" gradientUnits="userSpaceOnUse"><stop></stop><stop></stop><stop></stop></radialGradient><radialGradient id="__lottie_element_26" spreadMethod="pad" gradientUnits="userSpaceOnUse"><stop></stop><stop></stop><stop></stop></radialGradient><radialGradient id="__lottie_element_30" spreadMethod="pad" gradientUnits="userSpaceOnUse" cx="-88" cy="-237" r="460.8727843046311" fx="-88" fy="-237"><stop offset="0%" stop-color="rgb(223,250,237)"></stop><stop offset="50%" stop-color="rgb(180,214,208)"></stop><stop offset="100%" stop-color="rgb(136,178,179)"></stop></radialGradient><radialGradient id="__lottie_element_31" spreadMethod="pad" gradientUnits="userSpaceOnUse" cx="269.0679931640625" cy="-168.9080047607422" r="437.1089546029825" fx="269.0679931640625" fy="-168.9080047607422"><stop offset="0%" stop-color="rgb(223,250,237)"></stop><stop offset="50%" stop-color="rgb(180,214,208)"></stop><stop offset="100%" stop-color="rgb(136,178,179)"></stop></radialGradient></defs><g clip-path="url(#__lottie_element_2)"><g style="display: none;"><g><g><path></path><path stroke-linecap="round" stroke-linejoin="round" fill-opacity="0"></path></g></g><g><path></path><path stroke-linecap="round" stroke-linejoin="round" fill-opacity="0"></path></g><g><path></path><path stroke-linecap="round" stroke-linejoin="round" fill-opacity="0"></path></g></g><g style="display: none;"><g><g><path></path><path stroke-linecap="round" stroke-linejoin="round" fill-opacity="0"></path></g></g><g><path></path><path stroke-linecap="round" stroke-linejoin="round" fill-opacity="0"></path></g><g><path></path><path stroke-linecap="round" stroke-linejoin="round" fill-opacity="0"></path></g></g><g style="display: block;" transform="matrix(1,0,0,1,275.0003662109375,251.9993133544922)" opacity="1"><g opacity="1" transform="matrix(1,0,0,1,0,0)"><path fill="url(#__lottie_element_16)" fill-opacity="1" d=" M-222.3780059814453,167.4600067138672 C-249.71499633789062,123.10199737548828 -204.00999450683594,94.94000244140625 -204.00999450683594,76.35299682617188 C-204.00999450683594,55.64799880981445 -247.9810028076172,-103.20600128173828 -89.39099884033203,-175.66099548339844 C140.58099365234375,-280.7279968261719 238.3939971923828,122.42400360107422 180.99099731445312,177.01100158691406 C96.84500122070312,257.02899169921875 -183.43699645996094,230.64700317382812 -222.3780059814453,167.4600067138672z"></path><path stroke-linecap="round" stroke-linejoin="round" fill-opacity="0" stroke="rgb(68,120,132)" stroke-opacity="1" stroke-width="12.756" d=" M-222.3780059814453,167.4600067138672 C-249.71499633789062,123.10199737548828 -204.00999450683594,94.94000244140625 -204.00999450683594,76.35299682617188 C-204.00999450683594,55.64799880981445 -247.9810028076172,-103.20600128173828 -89.39099884033203,-175.66099548339844 C140.58099365234375,-280.7279968261719 238.3939971923828,122.42400360107422 180.99099731445312,177.01100158691406 C96.84500122070312,257.02899169921875 -183.43699645996094,230.64700317382812 -222.3780059814453,167.4600067138672z"></path></g><g opacity="1" transform="matrix(1,0,0,1,0,0)"><path fill="url(#__lottie_element_17)" fill-opacity="1" d=" M-190.1750030517578,-52.194000244140625 C-176,304 179.53199768066406,184.1739959716797 183.76600646972656,159.08700561523438 C105,257 -214.6009979248047,208.6999969482422 -219.38699340820312,144.56700134277344 C-222.052001953125,108.86199951171875 -185.54299926757812,91.94000244140625 -185.54299926757812,91.94000244140625 C-185.54299926757812,91.94000244140625 -208,25 -190.1750030517578,-52.194000244140625z"></path></g><g opacity="1" transform="matrix(1,0,0,1,0,0)"><path stroke-linecap="round" stroke-linejoin="round" fill-opacity="0" stroke="rgb(68,120,132)" stroke-opacity="1" stroke-width="12.756" d="M0 0"></path></g></g><g style="display: block;" transform="matrix(1,0,0,1,275.0008239746094,251.9988555908203)" opacity="1"><g opacity="1" transform="matrix(1,0,0,1,-22.790000915527344,20.00800323486328)"><g opacity="0.56" transform="matrix(1,0,0,1,0.1469999998807907,-0.35899999737739563)"><path fill="rgb(186,165,137)" fill-opacity="1" d=" M6.619999885559082,68.30999755859375 C6.619999885559082,68.30999755859375 1.534999966621399,75.57499694824219 4.803999900817871,78.84400177001953 C8.072999954223633,82.11299896240234 29.128000259399414,64.58799743652344 29.128000259399414,64.58799743652344 C29.128000259399414,64.58799743652344 29.81800079345703,87.13700103759766 45.75400161743164,87.3949966430664 C62.823001861572266,87.6719970703125 48.27199935913086,51.67900085449219 55.17399978637695,49.13600158691406 C62.07600021362305,46.59299850463867 71.83100128173828,55.84600067138672 81.8290023803711,44.83300018310547 C93.4000015258789,32.08700180053711 71.27200317382812,21.427000045776367 76.95700073242188,14.197999954223633 C87.24299621582031,1.1169999837875366 94.51399993896484,16.961999893188477 99.08399963378906,7.6579999923706055 C101.59100341796875,2.555000066757202 110.14600372314453,3.2880001068115234 98.52200317382812,2.561000108718872 C86.89800262451172,1.8339999914169312 15.338000297546387,41.79199981689453 8.072999954223633,48.694000244140625 C0.8080000281333923,55.59600067138672 -1.9529999494552612,80.16000366210938 -1.9529999494552612,80.16000366210938 C-1.9529999494552612,80.16000366210938 6.619999885559082,68.30999755859375 6.619999885559082,68.30999755859375z"></path></g><g opacity="0.46" transform="matrix(1,0,0,1,0,0)"><path stroke-linecap="round" stroke-linejoin="round" fill-opacity="0" stroke="rgb(167,134,103)" stroke-opacity="1" stroke-width="11.339" d=" M50.93600082397461,51.9630012512207 C50.93600082397461,51.9630012512207 46.395999908447266,88.83300018310547 46.395999908447266,88.83300018310547"></path></g><g opacity="0.46" transform="matrix(1,0,0,1,0,0)"><path stroke-linecap="round" stroke-linejoin="round" fill-opacity="0" stroke="rgb(167,134,103)" stroke-opacity="1" stroke-width="11.339" d=" M78.54299926757812,37.06999969482422 C78.54299926757812,37.06999969482422 87.4990005493164,42.41600036621094 87.4990005493164,42.41600036621094"></path></g></g><g opacity="1" transform="matrix(1,0,0,1,0,0)"><path fill="rgb(116,175,175)" fill-opacity="1" d=" M-31.98900032043457,156.4510040283203 C-31.98900032043457,156.4510040283203 -35.5880012512207,135.5 -51.487998962402344,122.54399871826172 C-67.38800048828125,109.58799743652344 -108.0999984741211,108.77300262451172 -102.23500061035156,115.94200134277344 C-96.37000274658203,123.11100006103516 -55.827999114990234,162.28799438476562 -41.62300109863281,166.6929931640625 C-27.417999267578125,171.09800720214844 -31.98900032043457,156.4510040283203 -31.98900032043457,156.4510040283203z"></path></g><g opacity="1" transform="matrix(1,0,0,1,0,0)"><path fill="rgb(116,175,175)" fill-opacity="1" d=" M87.1729965209961,15.64900016784668 C87.1729965209961,15.64900016784668 75.38700103759766,-3.111999988555908 63.84400177001953,-1.5640000104904175 C52.30099868774414,-0.01600000075995922 -14.873000144958496,49.34600067138672 -20.656999588012695,57.52899932861328 C-26.44099998474121,65.71199798583984 -27.86199951171875,96.23799896240234 -27.86199951171875,96.23799896240234 C-27.86199951171875,96.23799896240234 87.1729965209961,15.64900016784668 87.1729965209961,15.64900016784668z"></path></g><g opacity="0.48" transform="matrix(1,0,0,1,0,0)"><path stroke-linecap="round" stroke-linejoin="round" fill-opacity="0" stroke="rgb(68,120,132)" stroke-opacity="1" stroke-width="12.756" d=" M-85.08799743652344,110.28399658203125 C-36.875999450683594,110.20700073242188 -27.770000457763672,159.81900024414062 -27.770000457763672,159.81900024414062"></path></g><g opacity="0.48" transform="matrix(1,0,0,1,0,0)"><path stroke-linecap="round" stroke-linejoin="round" fill-opacity="0" stroke="rgb(68,120,132)" stroke-opacity="1" stroke-width="12.756" d=" M121.42900085449219,-13.821000099182129 C109.75700378417969,19.804000854492188 130.01800537109375,45.6150016784668 130.01800537109375,45.6150016784668"></path></g><g opacity="1" transform="matrix(1,0,0,1,0,0)"><path fill="rgb(85,41,30)" fill-opacity="1" d=" M80.38099670410156,16.798999786376953 C80.38099670410156,16.798999786376953 72.38700103759766,133.50799560546875 13.5,131.63800048828125 C-4.341000080108643,131.07200622558594 -21.4060001373291,97.802001953125 -21.4060001373291,97.802001953125 C14.649999618530273,55.98899841308594 51.0260009765625,11.951000213623047 80.38099670410156,16.798999786376953z"></path><path stroke-linecap="round" stroke-linejoin="round" fill-opacity="0" stroke="rgb(51,24,10)" stroke-opacity="1" stroke-width="11.339" d=" M80.38099670410156,16.798999786376953 C80.38099670410156,16.798999786376953 72.38700103759766,133.50799560546875 13.5,131.63800048828125 C-4.341000080108643,131.07200622558594 -21.4060001373291,97.802001953125 -21.4060001373291,97.802001953125 C14.649999618530273,55.98899841308594 51.0260009765625,11.951000213623047 80.38099670410156,16.798999786376953z"></path></g><g opacity="1" transform="matrix(1,0,0,1,0,0)"><g opacity="1" transform="matrix(1,0,0,1,0.4729999899864197,1.8070000410079956)"><path fill="rgb(247,99,152)" fill-opacity="1" d=" M44.875,101.55599975585938 C30.60099983215332,87.71499633789062 17.48200035095215,111.72100067138672 17.48200035095215,111.72100067138672 C17.48200035095215,111.72100067138672 5.322999954223633,105.46499633789062 -2.9159998893737793,112.875 C-20.100000381469727,128.33099365234375 -12.467000007629395,206.96200561523438 -12.467000007629395,206.96200561523438 C-12.467000007629395,206.96200561523438 -70.86100006103516,205.66400146484375 -64.7699966430664,227.82899475097656 C-60.95000076293945,241.72999572753906 15.878000259399414,246.27699279785156 31.979000091552734,234.7519989013672 C53.27899932861328,219.50599670410156 32.33100128173828,127.50900268554688 44.875,101.55599975585938z"></path><path stroke-linecap="round" stroke-linejoin="round" fill-opacity="0" stroke="rgb(147,31,100)" stroke-opacity="1" stroke-width="12.066" d=" M44.875,101.55599975585938 C30.60099983215332,87.71499633789062 17.48200035095215,111.72100067138672 17.48200035095215,111.72100067138672 C17.48200035095215,111.72100067138672 5.322999954223633,105.46499633789062 -2.9159998893737793,112.875 C-20.100000381469727,128.33099365234375 -12.467000007629395,206.96200561523438 -12.467000007629395,206.96200561523438 C-12.467000007629395,206.96200561523438 -70.86100006103516,205.66400146484375 -64.7699966430664,227.82899475097656 C-60.95000076293945,241.72999572753906 15.878000259399414,246.27699279785156 31.979000091552734,234.7519989013672 C53.27899932861328,219.50599670410156 32.33100128173828,127.50900268554688 44.875,101.55599975585938z"></path></g><g opacity="0.43" transform="matrix(1,0,0,1,0,0)"><path stroke-linecap="round" stroke-linejoin="round" fill-opacity="0" stroke="rgb(147,31,100)" stroke-opacity="1" stroke-width="12.394" d=" M17.191999435424805,111.93699645996094 C-1.406999945640564,141.35000610351562 12.550999641418457,197.88400268554688 11.968000411987305,200.927001953125"></path></g></g><g opacity="1" transform="matrix(1,0,0,1,0,0)"><path fill="rgb(255,255,255)" fill-opacity="1" d=" M-15.27299976348877,91.53800201416016 C-15.27299976348877,91.53800201416016 4.186999797821045,91.35299682617188 13.210000038146973,91.50599670410156 C22.232999801635742,91.65899658203125 21.20599937438965,60.518001556396484 21.20599937438965,60.518001556396484 C21.20599937438965,60.518001556396484 29.15399932861328,69.05599975585938 34.12699890136719,69.4520034790039 C39.099998474121094,69.8479995727539 55.42300033569336,61.72200012207031 57.380001068115234,56.4640007019043 C59.33700180053711,51.20600128173828 49.053001403808594,33.60200119018555 49.053001403808594,33.60200119018555 C49.053001403808594,33.60200119018555 63.17100143432617,45.358001708984375 66.2979965209961,44.47700119018555 C69.42500305175781,43.59600067138672 68.66500091552734,13.74899959564209 68.66500091552734,13.74899959564209"></path><path stroke-linecap="round" stroke-linejoin="round" fill-opacity="0" stroke="rgb(74,121,142)" stroke-opacity="1" stroke-width="9.375" d=" M-15.27299976348877,91.53800201416016 C-15.27299976348877,91.53800201416016 4.186999797821045,91.35299682617188 13.210000038146973,91.50599670410156 C22.232999801635742,91.65899658203125 21.20599937438965,60.518001556396484 21.20599937438965,60.518001556396484 C21.20599937438965,60.518001556396484 29.15399932861328,69.05599975585938 34.12699890136719,69.4520034790039 C39.099998474121094,69.8479995727539 55.42300033569336,61.72200012207031 57.380001068115234,56.4640007019043 C59.33700180053711,51.20600128173828 49.053001403808594,33.60200119018555 49.053001403808594,33.60200119018555 C49.053001403808594,33.60200119018555 63.17100143432617,45.358001708984375 66.2979965209961,44.47700119018555 C69.42500305175781,43.59600067138672 68.66500091552734,13.74899959564209 68.66500091552734,13.74899959564209"></path></g><g opacity="1" transform="matrix(1,0,0,1,0,0)"><path stroke-linecap="round" stroke-linejoin="round" fill-opacity="0" stroke="rgb(26,48,48)" stroke-opacity="1" stroke-width="12.5" d=" M-25.753999710083008,110.78600311279297 C-25.198999404907227,77.74600219726562 40.65399932861328,35.643001556396484 57.321998596191406,20.69300079345703 C73.98999786376953,5.743000030517578 92.44000244140625,23.77899932861328 92.44000244140625,23.77899932861328"></path></g></g><g style="display: block;" transform="matrix(1,0,0,1,275.0006103515625,251.99891662597656)" opacity="1"><g opacity="1" transform="matrix(1,0,0,1,0.6229991912841797,0.5400009155273438)"><g opacity="0.48" transform="matrix(1,0,0,1,0.27000001072883606,0.8109999895095825)"><path stroke-linecap="round" stroke-linejoin="round" fill-opacity="0" stroke="rgb(68,120,132)" stroke-opacity="1" stroke-width="12.756" d=" M-11.819999694824219,-56.172000885009766 C-11.819999694824219,-56.172000885009766 -11.093000411987305,-26.81999969482422 34.755001068115234,-14.579999923706055"></path></g><g opacity="1" transform="matrix(1,0,0,1,0.27000001072883606,0)"><path fill="rgb(116,175,175)" fill-opacity="1" d=" M-45.91999816894531,-21.570999145507812 C-34.19599914550781,18.398000717163086 -61.54899978637695,57.367000579833984 -75.89399719238281,70.76000213623047 C-87.26899719238281,81.38099670410156 -116.052001953125,86.19499969482422 -139.625,64.71900177001953 C-163.197998046875,43.24300003051758 -163.8470001220703,0.023000000044703484 -149.8719940185547,-18.517000198364258 C-127.26599884033203,-48.50600051879883 -50.40299987792969,-36.85300064086914 -45.91999816894531,-21.570999145507812z"></path></g><g opacity="1" transform="matrix(1,0,0,1,0.27000001072883606,0.33799999952316284)"><path fill="rgb(116,175,175)" fill-opacity="1" d=" M-14.949999809265137,-51.10900115966797 C-2.888000011444092,-31.944000244140625 38.499000549316406,-18.361000061035156 77.0790023803711,-28.726999282836914 C115.65899658203125,-39.09299850463867 114.8030014038086,-59.31399917602539 110.8949966430664,-76.5250015258789 C106.98699951171875,-93.73600006103516 71.8550033569336,-134.01600646972656 31.88599967956543,-119.09400177001953 C5.302000045776367,-109.16899871826172 -26.63599967956543,-69.677001953125 -14.949999809265137,-51.10900115966797z"></path></g><g opacity="0.48" transform="matrix(1,0,0,1,0.27000001072883606,0.8109999895095825)"><path stroke-linecap="round" stroke-linejoin="round" fill-opacity="0" stroke="rgb(68,120,132)" stroke-opacity="1" stroke-width="12.756" d=" M-38.84299850463867,0.8460000157356262 C-33.11399841308594,7.083000183105469 -37.58599853515625,15.595000267028809 -37.58599853515625,15.595000267028809"></path></g></g><g opacity="1" transform="matrix(1,0,0,1,0,0)"><path fill="rgb(255,255,255)" fill-opacity="1" d=" M-69.01599884033203,-43.21699905395508 C-50.10499954223633,-34.55799865722656 -49.82400131225586,-15.027000427246094 -53.073001861572266,-0.06599999964237213 C-70.05000305175781,78.12200164794922 -122.76799774169922,70.81400299072266 -145.6439971923828,50.17599868774414 C-168.52000427246094,29.538000106811523 -169.15899658203125,-11.98900032043457 -155.6009979248047,-29.799999237060547 C-133.67100524902344,-58.61000061035156 -87.927001953125,-51.875999450683594 -69.01599884033203,-43.21699905395508z"></path></g><g opacity="1" transform="matrix(1,0,0,1,0,0)"><path fill="rgb(253,255,255)" fill-opacity="1" d=" M-11.321999549865723,-61.47999954223633 C0.49900001287460327,-43.077999114990234 41.04399871826172,-30.024999618530273 78.83100128173828,-39.9630012512207 C116.61799621582031,-49.9010009765625 115.77300262451172,-69.31300354003906 111.93900299072266,-85.83599853515625 C108.1050033569336,-102.35900115966797 81.64099884033203,-162.66799926757812 26.84000015258789,-151.17100524902344 C-28.360000610351562,-139.58999633789062 -22.774999618530273,-79.30799865722656 -11.321999549865723,-61.47999954223633z"></path></g><g opacity="1" transform="matrix(1,0,0,1,-19.90599822998047,-25.546001434326172)"><g opacity="1" transform="matrix(1,0,0,1,0,0)"><path fill="rgb(119,159,191)" fill-opacity="1" d=" M62.354000091552734,-82.65399932861328 C62.354000091552734,-66.13200378417969 48.095001220703125,-52.73699951171875 30.506999969482422,-52.73699951171875 C12.918999671936035,-52.73699951171875 -1.3389999866485596,-66.13200378417969 -1.3389999866485596,-82.65399932861328 C-1.3389999866485596,-99.1760025024414 12.918999671936035,-112.56999969482422 30.506999969482422,-112.56999969482422 C48.095001220703125,-112.56999969482422 62.354000091552734,-99.1760025024414 62.354000091552734,-82.65399932861328z"></path><path stroke-linecap="round" stroke-linejoin="round" fill-opacity="0" stroke="rgb(71,110,142)" stroke-opacity="1" stroke-width="8.268" d=" M62.354000091552734,-82.65399932861328 C62.354000091552734,-66.13200378417969 48.095001220703125,-52.73699951171875 30.506999969482422,-52.73699951171875 C12.918999671936035,-52.73699951171875 -1.3389999866485596,-66.13200378417969 -1.3389999866485596,-82.65399932861328 C-1.3389999866485596,-99.1760025024414 12.918999671936035,-112.56999969482422 30.506999969482422,-112.56999969482422 C48.095001220703125,-112.56999969482422 62.354000091552734,-99.1760025024414 62.354000091552734,-82.65399932861328z"></path></g><g opacity="1" transform="matrix(1,0,0,1,0,0)"><path fill="rgb(119,159,191)" fill-opacity="1" d=" M-114.91200256347656,-12.720999717712402 C-117.20800018310547,-6.146999835968018 -118.33300018310547,7.624000072479248 -101.95099639892578,14.052000045776367 C-85.56900024414062,20.479999542236328 -74.77999877929688,10.60099983215332 -73.74199676513672,-1.121000051498413 C-72.7040023803711,-12.843000411987305 -80.06400299072266,-23.868000030517578 -89.82499694824219,-25.152000427246094 C-105.1050033569336,-27.16200065612793 -112.32599639892578,-20.12299919128418 -114.91200256347656,-12.720999717712402z"></path><path stroke-linecap="round" stroke-linejoin="round" fill-opacity="0" stroke="rgb(71,110,142)" stroke-opacity="1" stroke-width="7.982" d=" M-114.91200256347656,-12.720999717712402 C-117.20800018310547,-6.146999835968018 -118.33300018310547,7.624000072479248 -101.95099639892578,14.052000045776367 C-85.56900024414062,20.479999542236328 -74.77999877929688,10.60099983215332 -73.74199676513672,-1.121000051498413 C-72.7040023803711,-12.843000411987305 -80.06400299072266,-23.868000030517578 -89.82499694824219,-25.152000427246094 C-105.1050033569336,-27.16200065612793 -112.32599639892578,-20.12299919128418 -114.91200256347656,-12.720999717712402z"></path></g><g opacity="1" transform="matrix(1,0,0,1,0,0)"><path fill="rgb(51,24,10)" fill-opacity="1" d=" M23.812000274658203,-97.43499755859375 C18.302000045776367,-95.96199798583984 13.967000007629395,-89.8290023803711 16.336999893188477,-76.83499908447266 C18.707000732421875,-63.840999603271484 34.21500015258789,-61.63399887084961 42.85300064086914,-74.44100189208984 C51.49100112915039,-87.24800109863281 37.47600173950195,-101.08899688720703 23.812000274658203,-97.43499755859375z"></path></g><g opacity="1" transform="matrix(1,0,0,1,0,0)"><path fill="rgb(255,255,255)" fill-opacity="1" d=" M50.391998291015625,-110.81400299072266 C46.54100036621094,-109.78399658203125 43.512001037597656,-105.49800109863281 45.167999267578125,-96.41600036621094 C46.82400131225586,-87.33399963378906 57.66299819946289,-85.79100036621094 63.70000076293945,-94.74299621582031 C69.73699951171875,-103.69499969482422 59.94200134277344,-113.36799621582031 50.391998291015625,-110.81400299072266z"></path></g><g opacity="1" transform="matrix(1,0,0,1,0,0)"><path fill="rgb(255,255,255)" fill-opacity="1" d=" M-84.37000274658203,-34.082000732421875 C-88.02100372314453,-33.10599899291992 -90.89299774169922,-29.04199981689453 -89.322998046875,-20.430999755859375 C-87.75299835205078,-11.819999694824219 -77.47699737548828,-10.357999801635742 -71.75299835205078,-18.844999313354492 C-66.02899932861328,-27.332000732421875 -75.31600189208984,-36.50299835205078 -84.37000274658203,-34.082000732421875z"></path></g><g opacity="1" transform="matrix(1,0,0,1,0,0)"><path fill="rgb(255,255,255)" fill-opacity="1" d=" M15.034000396728516,-73.63999938964844 C12.99899959564209,-73.09600067138672 11.39900016784668,-70.83100128173828 12.27400016784668,-66.03299713134766 C13.14900016784668,-61.23500061035156 18.875,-60.41999816894531 22.065000534057617,-65.14900207519531 C25.2549991607666,-69.87799835205078 20.079999923706055,-74.98899841308594 15.034000396728516,-73.63999938964844z"></path></g><g opacity="1" transform="matrix(1,0,0,1,0,0)"><path fill="rgb(51,24,10)" fill-opacity="1" d=" M-96.02400207519531,-15.767999649047852 C-99.63500213623047,-15.369000434875488 -107.68099975585938,-13.232999801635742 -103.41000366210938,-3.253999948501587 C-99.13899993896484,6.724999904632568 -83.77799987792969,7.328000068664551 -82.55599975585938,-4.265999794006348 C-81.33399963378906,-15.859999656677246 -91.62300109863281,-16.2549991607666 -96.02400207519531,-15.767999649047852z"></path></g><g opacity="1" transform="matrix(1,0,0,1,0,0)"><path fill="rgb(255,255,255)" fill-opacity="1" d=" M-99.75,-2.109999895095825 C-101.67900085449219,-1.593999981880188 -103.1969985961914,0.5529999732971191 -102.36699676513672,5.1020002365112305 C-101.53700256347656,9.651000022888184 -96.10800170898438,10.423999786376953 -93.08399963378906,5.940000057220459 C-90.05999755859375,1.4559999704360962 -94.96600341796875,-3.3889999389648438 -99.75,-2.109999895095825z"></path></g></g><g opacity="1" transform="matrix(1,0,0,1,0,0)"><g opacity="1" transform="matrix(1,0,0,1,0,0)"><path stroke-linecap="round" stroke-linejoin="round" fill-opacity="0" stroke="rgb(252,134,154)" stroke-opacity="1" stroke-width="11.904" d="M0 0"></path></g><g opacity="1" transform="matrix(1,0,0,1,0,0)"><path stroke-linecap="round" stroke-linejoin="round" fill-opacity="0" stroke="rgb(252,134,154)" stroke-opacity="1" stroke-width="8.504" d="M0 0"></path></g><g opacity="1" transform="matrix(1,0,0,1,0,0)"><path stroke-linecap="round" stroke-linejoin="round" fill-opacity="0" stroke="rgb(252,134,154)" stroke-opacity="1" stroke-width="12.392" d="M0 0"></path></g><g opacity="1" transform="matrix(1,0,0,1,0,0)"><path stroke-linecap="round" stroke-linejoin="round" fill-opacity="0" stroke="rgb(252,134,154)" stroke-opacity="1" stroke-width="8.504" d="M0 0"></path></g><g opacity="1" transform="matrix(1,0,0,1,0,0)"><path stroke-linecap="round" stroke-linejoin="round" fill-opacity="0" stroke="rgb(252,134,154)" stroke-opacity="1" stroke-width="12.392" d="M0 0"></path></g><g opacity="1" transform="matrix(1,0,0,1,0,0)"><path stroke-linecap="round" stroke-linejoin="round" fill-opacity="0" stroke="rgb(252,134,154)" stroke-opacity="1" stroke-width="12.392" d="M0 0"></path></g><g opacity="1" transform="matrix(1,0,0,1,0,0)"><path stroke-linecap="round" stroke-linejoin="round" fill-opacity="0" stroke="rgb(252,134,154)" stroke-opacity="1" stroke-width="8.504" d="M0 0"></path></g><g opacity="1" transform="matrix(1,0,0,1,0,0)"><path stroke-linecap="round" stroke-linejoin="round" fill-opacity="0" stroke="rgb(252,134,154)" stroke-opacity="1" stroke-width="8.504" d="M0 0"></path></g><g opacity="1" transform="matrix(1,0,0,1,0,0)"><path stroke-linecap="round" stroke-linejoin="round" fill-opacity="0" stroke="rgb(252,134,154)" stroke-opacity="1" stroke-width="12.23" d="M0 0"></path></g></g><g opacity="1" transform="matrix(1,0,0,1,0,0)"><g opacity="1" transform="matrix(1,0,0,1,0,0)"><path stroke-linecap="butt" stroke-linejoin="miter" fill-opacity="0" stroke-miterlimit="10" stroke="rgb(93,56,94)" stroke-opacity="1" stroke-width="9.921" d=" M-11.321999549865723,-61.47999954223633 C0.49900001287460327,-43.077999114990234 41.04399871826172,-30.024999618530273 78.83100128173828,-39.9630012512207 C116.61799621582031,-49.9010009765625 115.77300262451172,-69.31300354003906 111.93900299072266,-85.83599853515625 C108.1050033569336,-102.35900115966797 81.64099884033203,-162.66799926757812 26.84000015258789,-151.17100524902344 C-28.360000610351562,-139.58999633789062 -22.774999618530273,-79.30799865722656 -11.321999549865723,-61.47999954223633z"></path></g><g opacity="1" transform="matrix(1,0,0,1,0,0)"><path stroke-linecap="butt" stroke-linejoin="miter" fill-opacity="0" stroke-miterlimit="10" stroke="rgb(93,56,94)" stroke-opacity="1" stroke-width="9.921" d=" M-69.01599884033203,-43.21699905395508 C-50.10499954223633,-34.55799865722656 -49.24800109863281,-14.890000343322754 -53.073001861572266,-0.06599999964237213 C-56.89799880981445,14.758000373840332 -69.88700103759766,43.125 -83.80400085449219,55.99100112915039 C-94.83999633789062,66.19400024414062 -122.76799774169922,70.81400299072266 -145.6439971923828,50.17599868774414 C-168.52000427246094,29.538000106811523 -169.15899658203125,-11.98900032043457 -155.6009979248047,-29.799999237060547 C-133.67100524902344,-58.61000061035156 -87.927001953125,-51.875999450683594 -69.01599884033203,-43.21699905395508z"></path></g></g></g><g style="display: block;" transform="matrix(1,0,0,1,275.0006103515625,251.99891662597656)" opacity="1"><g opacity="1" transform="matrix(1,0,0,1,0,0)"><path fill="url(#__lottie_element_30)" fill-opacity="1" d=" M-153.8459930419922,-28.475000381469727 C-177.81399536132812,4.88100004196167 -154.93600463867188,43.99300003051758 -144.62399291992188,52.43600082397461 C-136.4149932861328,59.15599822998047 -104.68000030517578,77.06300354003906 -86.89600372314453,64.02200317382812 C-47.96699905395508,35.4739990234375 -47.45100021362305,-18.12299919128418 -51.29399871826172,-28.3700008392334 C-57.83300018310547,-45.805999755859375 -121.36399841308594,-73.68000030517578 -153.8459930419922,-28.475000381469727z"></path><path stroke-linecap="round" stroke-linejoin="round" fill-opacity="0" stroke="rgb(68,120,132)" stroke-opacity="1" stroke-width="12.756" d=" M-153.8459930419922,-28.475000381469727 C-177.81399536132812,4.88100004196167 -154.93600463867188,43.99300003051758 -144.62399291992188,52.43600082397461 C-136.4149932861328,59.15599822998047 -104.68000030517578,77.06300354003906 -86.89600372314453,64.02200317382812 C-47.96699905395508,35.4739990234375 -47.45100021362305,-18.12299919128418 -51.29399871826172,-28.3700008392334 C-57.83300018310547,-45.805999755859375 -121.36399841308594,-73.68000030517578 -153.8459930419922,-28.475000381469727z"></path></g><g opacity="1" transform="matrix(1,0,0,1,0,0)"><path fill="url(#__lottie_element_31)" fill-opacity="1" d=" M10.711999893188477,-157.3280029296875 C46.88399887084961,-176.78700256347656 82.28800201416016,-146.6020050048828 89.3280029296875,-135.28599548339844 C94.93199920654297,-126.27799987792969 99.06900024414062,-100.69499969482422 83.83999633789062,-84.74400329589844 C50.50299835205078,-49.827999114990234 3.1440000534057617,-55.59199905395508 -6.520999908447266,-60.72600173950195 C-22.966999053955078,-69.46199798583984 -38.308998107910156,-130.95599365234375 10.711999893188477,-157.3280029296875z"></path><path stroke-linecap="round" stroke-linejoin="round" fill-opacity="0" stroke="rgb(68,120,132)" stroke-opacity="1" stroke-width="12.756" d=" M10.711999893188477,-157.3280029296875 C46.88399887084961,-176.78700256347656 82.28800201416016,-146.6020050048828 89.3280029296875,-135.28599548339844 C94.93199920654297,-126.27799987792969 99.06900024414062,-100.69499969482422 83.83999633789062,-84.74400329589844 C50.50299835205078,-49.827999114990234 3.1440000534057617,-55.59199905395508 -6.520999908447266,-60.72600173950195 C-22.966999053955078,-69.46199798583984 -38.308998107910156,-130.95599365234375 10.711999893188477,-157.3280029296875z"></path></g></g><g style="display: none;"><g><path fill="url(#__lottie_element_25)"></path><path stroke-linecap="round" stroke-linejoin="round" fill-opacity="0"></path></g><g><path fill="url(#__lottie_element_26)"></path><path stroke-linecap="round" stroke-linejoin="round" fill-opacity="0"></path></g></g><g style="display: block;" transform="matrix(1,0,0,1,275.0006103515625,251.99891662597656)" opacity="1"><g opacity="1" transform="matrix(1,0,0,1,0,0)"><g opacity="1" transform="matrix(1,0,0,1,0,0)"><path fill="rgb(85,41,30)" fill-opacity="1" d=" M-61.8849983215332,-95.25499725341797 C-61.8849983215332,-95.25499725341797 -61.55799865722656,-166.70599365234375 -50.194000244140625,-178.2689971923828 C-38.83000183105469,-189.83200073242188 -39.61899948120117,-175.36599731445312 -39.61899948120117,-175.36599731445312 C-39.61899948120117,-175.36599731445312 -30.781999588012695,-192.21299743652344 -7.735000133514404,-199.46299743652344 C15.312000274658203,-206.71299743652344 36.23099899291992,-196.4499969482422 41.4900016784668,-194.5970001220703 C54.71200180053711,-189.93899536132812 60.143001556396484,-185.46400451660156 53.051998138427734,-183.23300170898438 C45.96099853515625,-181.0019989013672 14.565999984741211,-190.01199340820312 -5.625,-183.2169952392578 C-23.36199951171875,-177.2480010986328 -33.9010009765625,-154.18499755859375 -32.21500015258789,-129.6179962158203 C-30.724000930786133,-107.89299774169922 -27.375,-74.35299682617188 -38.560001373291016,-73.36699676513672 C-49.744998931884766,-72.38099670410156 -50.07400131225586,-89.41500091552734 -50.07400131225586,-89.41500091552734 C-50.07400131225586,-89.41500091552734 -52.10499954223633,-82.74600219726562 -56.76599884033203,-85.1760025024414 C-61.426998138427734,-87.60600280761719 -61.8849983215332,-95.25499725341797 -61.8849983215332,-95.25499725341797z"></path><path stroke-linecap="round" stroke-linejoin="round" fill-opacity="0" stroke="rgb(51,24,10)" stroke-opacity="1" stroke-width="11.339" d=" M-61.8849983215332,-95.25499725341797 C-61.8849983215332,-95.25499725341797 -61.55799865722656,-166.70599365234375 -50.194000244140625,-178.2689971923828 C-38.83000183105469,-189.83200073242188 -39.61899948120117,-175.36599731445312 -39.61899948120117,-175.36599731445312 C-39.61899948120117,-175.36599731445312 -30.781999588012695,-192.21299743652344 -7.735000133514404,-199.46299743652344 C15.312000274658203,-206.71299743652344 36.23099899291992,-196.4499969482422 41.4900016784668,-194.5970001220703 C54.71200180053711,-189.93899536132812 60.143001556396484,-185.46400451660156 53.051998138427734,-183.23300170898438 C45.96099853515625,-181.0019989013672 14.565999984741211,-190.01199340820312 -5.625,-183.2169952392578 C-23.36199951171875,-177.2480010986328 -33.9010009765625,-154.18499755859375 -32.21500015258789,-129.6179962158203 C-30.724000930786133,-107.89299774169922 -27.375,-74.35299682617188 -38.560001373291016,-73.36699676513672 C-49.744998931884766,-72.38099670410156 -50.07400131225586,-89.41500091552734 -50.07400131225586,-89.41500091552734 C-50.07400131225586,-89.41500091552734 -52.10499954223633,-82.74600219726562 -56.76599884033203,-85.1760025024414 C-61.426998138427734,-87.60600280761719 -61.8849983215332,-95.25499725341797 -61.8849983215332,-95.25499725341797z"></path></g><g opacity="1" transform="matrix(1,0,0,1,0,0)"><path fill="rgb(85,41,30)" fill-opacity="1" d=" M-206.93699645996094,-68.33100128173828 C-206.93699645996094,-68.33100128173828 -202.57400512695312,-82.95099639892578 -187.81399536132812,-86.81500244140625 C-173.0540008544922,-90.67900085449219 -148.38400268554688,-89.6719970703125 -132.53799438476562,-88.22699737548828 C-116.69200134277344,-86.78199768066406 -109.53199768066406,-93.1259994506836 -107.28099822998047,-87.20999908447266 C-105.02999877929688,-81.29399871826172 -107.47100067138672,-76.04499816894531 -107.47100067138672,-76.04499816894531 C-107.47100067138672,-76.04499816894531 -86.2020034790039,-70.43099975585938 -85.33100128173828,-64.5009994506836 C-83.52899932861328,-52.22999954223633 -95.71399688720703,-56.176998138427734 -100.9729995727539,-58.029998779296875 C-106.23200225830078,-59.882999420166016 -118.88400268554688,-79.98799896240234 -145.2969970703125,-82.19999694824219 C-171.7100067138672,-84.41200256347656 -185.593994140625,-79.13500213623047 -190.95199584960938,-75.11199951171875 C-196.30999755859375,-71.08899688720703 -206.93699645996094,-68.33100128173828 -206.93699645996094,-68.33100128173828z"></path><path stroke-linecap="round" stroke-linejoin="round" fill-opacity="0" stroke="rgb(51,24,10)" stroke-opacity="1" stroke-width="11.339" d=" M-206.93699645996094,-68.33100128173828 C-206.93699645996094,-68.33100128173828 -202.57400512695312,-82.95099639892578 -187.81399536132812,-86.81500244140625 C-173.0540008544922,-90.67900085449219 -148.38400268554688,-89.6719970703125 -132.53799438476562,-88.22699737548828 C-116.69200134277344,-86.78199768066406 -109.53199768066406,-93.1259994506836 -107.28099822998047,-87.20999908447266 C-105.02999877929688,-81.29399871826172 -107.47100067138672,-76.04499816894531 -107.47100067138672,-76.04499816894531 C-107.47100067138672,-76.04499816894531 -86.2020034790039,-70.43099975585938 -85.33100128173828,-64.5009994506836 C-83.52899932861328,-52.22999954223633 -95.71399688720703,-56.176998138427734 -100.9729995727539,-58.029998779296875 C-106.23200225830078,-59.882999420166016 -118.88400268554688,-79.98799896240234 -145.2969970703125,-82.19999694824219 C-171.7100067138672,-84.41200256347656 -185.593994140625,-79.13500213623047 -190.95199584960938,-75.11199951171875 C-196.30999755859375,-71.08899688720703 -206.93699645996094,-68.33100128173828 -206.93699645996094,-68.33100128173828z"></path></g></g></g><g style="display: none;"><g><g><path></path><path stroke-linecap="round" stroke-linejoin="round" fill-opacity="0"></path></g></g><g><path></path><path stroke-linecap="round" stroke-linejoin="round" fill-opacity="0"></path></g><g><path></path><path stroke-linecap="round" stroke-linejoin="round" fill-opacity="0"></path></g></g><g style="display: block;" transform="matrix(0.7771459817886353,-0.6293203830718994,0.6293203830718994,0.7771459817886353,44.2607421875,379.1033935546875)" opacity="1"><g opacity="1" transform="matrix(0.7880107760429382,0.6156615018844604,-0.6156615018844604,0.7880107760429382,-86.90673828125,-171.05050659179688)"><g opacity="1" transform="matrix(0.7550873160362244,-0.6556242108345032,0.6556242108345032,0.7550873160362244,201.98211669921875,77.05091857910156)"><path fill="rgb(197,231,249)" fill-opacity="1" d=" M175.0050048828125,-196.5850067138672 C175.0050048828125,-196.5850067138672 140.09100341796875,-245.53799438476562 174.3419952392578,-249.30099487304688 C222.7100067138672,-254.61500549316406 175.0050048828125,-196.5850067138672 175.0050048828125,-196.5850067138672z"></path><path stroke-linecap="round" stroke-linejoin="round" fill-opacity="0" stroke="rgb(101,151,168)" stroke-opacity="1" stroke-width="11.339" d=" M175.0050048828125,-196.5850067138672 C175.0050048828125,-196.5850067138672 140.09100341796875,-245.53799438476562 174.3419952392578,-249.30099487304688 C222.7100067138672,-254.61500549316406 175.0050048828125,-196.5850067138672 175.0050048828125,-196.5850067138672z"></path></g></g><g opacity="1" transform="matrix(1,0,0,1,0,0)"><path fill="rgb(51,37,66)" fill-opacity="1" d=" M170.83299255371094,-175.64199829101562 C170.83299255371094,-175.64199829101562 186.2220001220703,-156.36500549316406 201.42100524902344,-164.31900024414062 C216.6199951171875,-172.2729949951172 207.7689971923828,-186.83799743652344 199.40899658203125,-192.79200744628906 C191.0489959716797,-198.74600219726562 176.00799560546875,-193.6540069580078 176.00799560546875,-193.6540069580078 C176.00799560546875,-193.6540069580078 158.11000061035156,-205.35499572753906 152.76600646972656,-195.22799682617188 C147.4219970703125,-185.1009979248047 155.677001953125,-177.95599365234375 161.3000030517578,-177.08999633789062 C166.92300415039062,-176.2239990234375 170.83299255371094,-175.64199829101562 170.83299255371094,-175.64199829101562z"></path><path stroke-linecap="round" stroke-linejoin="round" fill-opacity="0" stroke="rgb(22,9,35)" stroke-opacity="1" stroke-width="14.12" d=" M170.83299255371094,-175.64199829101562 C170.83299255371094,-175.64199829101562 186.2220001220703,-156.36500549316406 201.42100524902344,-164.31900024414062 C216.6199951171875,-172.2729949951172 207.7689971923828,-186.83799743652344 199.40899658203125,-192.79200744628906 C191.0489959716797,-198.74600219726562 176.00799560546875,-193.6540069580078 176.00799560546875,-193.6540069580078 C176.00799560546875,-193.6540069580078 158.11000061035156,-205.35499572753906 152.76600646972656,-195.22799682617188 C147.4219970703125,-185.1009979248047 155.677001953125,-177.95599365234375 161.3000030517578,-177.08999633789062 C166.92300415039062,-176.2239990234375 170.83299255371094,-175.64199829101562 170.83299255371094,-175.64199829101562z"></path></g><g opacity="1" transform="matrix(0.9996453523635864,-0.026630574837327003,0.026630574837327003,0.9996453523635864,15.173431396484375,9.53814697265625)"><path fill="rgb(197,231,249)" fill-opacity="1" d=" M175.0050048828125,-196.5850067138672 C175.0050048828125,-196.5850067138672 140.09100341796875,-245.53799438476562 174.3419952392578,-249.30099487304688 C222.7100067138672,-254.61500549316406 175.0050048828125,-196.5850067138672 175.0050048828125,-196.5850067138672z"></path><path stroke-linecap="round" stroke-linejoin="round" fill-opacity="0" stroke="rgb(101,151,168)" stroke-opacity="1" stroke-width="11.339" d=" M175.0050048828125,-196.5850067138672 C175.0050048828125,-196.5850067138672 140.09100341796875,-245.53799438476562 174.3419952392578,-249.30099487304688 C222.7100067138672,-254.61500549316406 175.0050048828125,-196.5850067138672 175.0050048828125,-196.5850067138672z"></path></g></g></g></svg>