<svg xmlns="http://www.w3.org/2000/svg" xmlns:xlink="http://www.w3.org/1999/xlink" viewBox="0 0 512 512" width="512" height="512" style="width: 100%; height: 100%; transform: translate3d(0,0,0); content-visibility: visible;" preserveAspectRatio="xMidYMid meet"><defs><clipPath id="__lottie_element_2"><rect width="512" height="512" x="0" y="0"></rect></clipPath><clipPath id="__lottie_element_4"><path d="M0,0 L512,0 L512,512 L0,512z"></path></clipPath><linearGradient id="__lottie_element_33" spreadMethod="pad" gradientUnits="userSpaceOnUse" x1="-95.5719985961914" y1="-272.3789978027344" x2="157.7209930419922" y2="117.76300048828125"><stop offset="0%" stop-color="rgb(254,240,222)"></stop><stop offset="42%" stop-color="rgb(249,213,185)"></stop><stop offset="85%" stop-color="rgb(244,187,148)"></stop></linearGradient><radialGradient id="__lottie_element_34" spreadMethod="pad" gradientUnits="userSpaceOnUse" cx="214.552001953125" cy="86.71299743652344" r="368.54476408655256" fx="214.552001953125" fy="86.71299743652344"><stop offset="0%" stop-color="rgb(254,240,222)"></stop><stop offset="42%" stop-color="rgb(249,213,185)"></stop><stop offset="85%" stop-color="rgb(244,187,148)"></stop></radialGradient></defs><g clip-path="url(#__lottie_element_2)"><g clip-path="url(#__lottie_element_4)" style="display: block;" transform="matrix(1,0,0,1,0,0)" opacity="1"><g style="display: block;" transform="matrix(0.9412623047828674,0,0,0.8938044309616089,9.825748443603516,31.300390243530273)" opacity="1"><g opacity="1" transform="matrix(1,0,0,1,263.9570007324219,257.6549987792969)"><path fill="url(#__lottie_element_33)" fill-opacity="1" d=" M-152.3780059814453,-150.38499450683594 C-130.61099243164062,-173.60299682617188 -85.48999786376953,-209.33299255371094 -12.934000015258789,-216.58900451660156 C81.197998046875,-226.0019989013672 185.8699951171875,-155.64300537109375 209.08700561523438,-43.90599822998047 C232.30499267578125,67.83000183105469 162.46600341796875,160.1790008544922 103.15599822998047,189.51300048828125 C39.22800064086914,221.13099670410156 -100.08599853515625,224.01100158691406 -166.7530059814453,141.83700561523438 C-232.30499267578125,61.0369987487793 -216.09100341796875,-30.847000122070312 -201.5800018310547,-70.0270004272461 C-187.0679931640625,-109.20700073242188 -167.2740020751953,-134.4969940185547 -152.3780059814453,-150.38499450683594z"></path><path stroke-linecap="butt" stroke-linejoin="miter" fill-opacity="0" stroke-miterlimit="10" stroke="rgb(182,94,49)" stroke-opacity="1" stroke-width="13" d=" M-152.3780059814453,-150.38499450683594 C-130.61099243164062,-173.60299682617188 -85.48999786376953,-209.33299255371094 -12.934000015258789,-216.58900451660156 C81.197998046875,-226.0019989013672 185.8699951171875,-155.64300537109375 209.08700561523438,-43.90599822998047 C232.30499267578125,67.83000183105469 162.46600341796875,160.1790008544922 103.15599822998047,189.51300048828125 C39.22800064086914,221.13099670410156 -100.08599853515625,224.01100158691406 -166.7530059814453,141.83700561523438 C-232.30499267578125,61.0369987487793 -216.09100341796875,-30.847000122070312 -201.5800018310547,-70.0270004272461 C-187.0679931640625,-109.20700073242188 -167.2740020751953,-134.4969940185547 -152.3780059814453,-150.38499450683594z"></path></g><g opacity="1" transform="matrix(1,0,0,1,95.28399658203125,348.260009765625)"><path fill="rgb(235,149,116)" fill-opacity="1" d=" M-37.321998596191406,-66.03099822998047 C-37.321998596191406,-66.03099822998047 -28.19700050354004,-68.2300033569336 -26.975000381469727,-63.097999572753906 C-25.753000259399414,-57.965999603271484 -25.263999938964844,-46.80400085449219 -15.814000129699707,-38.33100128173828 C-6.363999843597412,-29.857999801635742 11.232999801635742,-10.305000305175781 14.491999626159668,-4.764999866485596 C17.750999450683594,0.7749999761581421 29.482999801635742,43.78900146484375 32.09000015258789,49.32899856567383 C34.698001861572266,54.86899948120117 38.606998443603516,68.2300033569336 38.606998443603516,68.2300033569336 C38.606998443603516,68.2300033569336 25.246999740600586,64.64700317382812 25.246999740600586,64.64700317382812 C25.246999740600586,64.64700317382812 6.3460001945495605,57.47700119018555 -20.375999450683594,3.38100004196167 C-38.606998443603516,-33.525001525878906 -37.64799880981445,-64.72799682617188 -37.64799880981445,-64.72799682617188 C-37.64799880981445,-64.72799682617188 -37.321998596191406,-66.03099822998047 -37.321998596191406,-66.03099822998047z"></path></g><g opacity="1" transform="matrix(1,0,0,1,311.5480041503906,379.9429931640625)"><path stroke-linecap="round" stroke-linejoin="round" fill-opacity="0" stroke="rgb(182,94,49)" stroke-opacity="0.62" stroke-width="11" d=" M21.64699935913086,-38.0629997253418 C21.64699935913086,-38.0629997253418 2.617000102996826,-39.20899963378906 -10.706000328063965,-21.464000701904297 C-20.856000900268555,-7.945000171661377 -21.648000717163086,19.174999237060547 -21.172000885009766,27.18899917602539 C-20.69700050354004,35.202999114990234 -20.22100067138672,39.20899963378906 -20.22100067138672,39.20899963378906"></path></g><g opacity="1" transform="matrix(1,0,0,1,91.91100311279297,326.22198486328125)"><path stroke-linecap="round" stroke-linejoin="round" fill-opacity="0" stroke="rgb(182,95,50)" stroke-opacity="0.66" stroke-width="10" d=" M-28.735000610351562,-47.90399932861328 C-28.735000610351562,-47.90399932861328 -29.92300033569336,-28.590999603271484 -19.937999725341797,-21.018999099731445 C-9.62399959564209,-13.199999809265137 1.3880000114440918,-4.320000171661377 6.948999881744385,2.933000087738037 C18.19099998474121,17.597000122070312 29.92300033569336,47.90399932861328 29.92300033569336,47.90399932861328"></path></g><g opacity="1" transform="matrix(1,0,0,1,0,0)"><path fill="url(#__lottie_element_34)" fill-opacity="1" d=" M111.5790023803711,107.2699966430664 C133.3459930419922,84.052001953125 178.4669952392578,48.32099914550781 251.0229949951172,41.064998626708984 C345.1549987792969,31.652000427246094 449.8269958496094,102.01200103759766 473.04400634765625,213.74899291992188 C496.2619934082031,325.4849853515625 426.4230041503906,417.8340148925781 367.1130065917969,447.1679992675781 C303.18499755859375,478.7860107421875 163.87100219726562,481.6659851074219 97.2040023803711,399.49200439453125 C31.652000427246094,318.6919860839844 47.86600112915039,226.80799865722656 62.37699890136719,187.6280059814453 C76.88899993896484,148.447998046875 96.68299865722656,123.15799713134766 111.5790023803711,107.2699966430664z"></path><path stroke-linecap="butt" stroke-linejoin="miter" fill-opacity="0" stroke-miterlimit="4" stroke="rgb(182,94,49)" stroke-opacity="1" stroke-width="13" d=" M111.5790023803711,107.2699966430664 C133.3459930419922,84.052001953125 178.4669952392578,48.32099914550781 251.0229949951172,41.064998626708984 C345.1549987792969,31.652000427246094 449.8269958496094,102.01200103759766 473.04400634765625,213.74899291992188 C496.2619934082031,325.4849853515625 426.4230041503906,417.8340148925781 367.1130065917969,447.1679992675781 C303.18499755859375,478.7860107421875 163.87100219726562,481.6659851074219 97.2040023803711,399.49200439453125 C31.652000427246094,318.6919860839844 47.86600112915039,226.80799865722656 62.37699890136719,187.6280059814453 C76.88899993896484,148.447998046875 96.68299865722656,123.15799713134766 111.5790023803711,107.2699966430664z"></path></g><g opacity="1" transform="matrix(1,0,0,1,282.4580078125,271.3890075683594)"><path fill="rgb(237,156,120)" fill-opacity="1" d=" M184.23699951171875,-54.41699981689453 C169.23399353027344,-127.66000366210938 116.27799987792969,-184.16099548339844 57.38800048828125,-209.61700439453125 C106.87100219726562,-182.26600646972656 149.18099975585938,-134.3000030517578 162.24000549316406,-70.5479965209961 C183.91400146484375,35.2599983215332 120.85199737548828,126.4209976196289 62.520999908447266,155.28700256347656 C-8.60200023651123,190.4810028076172 -129.63600158691406,180.24400329589844 -191.86900329589844,102.42900085449219 C-197.3719940185547,95.5479965209961 -202.2480010986328,88.58200073242188 -206.57400512695312,81.57499694824219 C-200.11199951171875,94.7969970703125 -193.53399658203125,108.09100341796875 -183.5989990234375,121.31300354003906 C-117.18900299072266,209.69400024414062 20.815000534057617,206.3070068359375 79.38500213623047,173.61700439453125 C142.4429931640625,138.4219970703125 206.57400512695312,54.63199996948242 184.23699951171875,-54.41699981689453z"></path></g></g><g style="display: block;" transform="matrix(0.9412623047828674,0,0,0.8938044309616089,69.97992706298828,231.42050170898438)" opacity="1"><g opacity="1" transform="matrix(1,0,0,1,262.90301513671875,79.52100372314453)"><path fill="rgb(223,140,101)" fill-opacity="1" d=" M-37.814998626708984,-4.534999847412109 C-37.814998626708984,-4.534999847412109 -14.664999961853027,-19.145000457763672 -2.6070001125335693,-25.663000106811523 C7.198999881744385,-30.96299934387207 23.95800018310547,-33.04399871826172 28.847000122070312,-23.267000198364258 C33.73500061035156,-13.491000175476074 36.71699905395508,3.9189999103546143 36.26499938964844,14.588000297546387 C35.43000030517578,34.29999923706055 29.329999923706055,31.365999221801758 29.329999923706055,31.365999221801758 C29.329999923706055,31.365999221801758 27.04800033569336,-18.493999481201172 15.968000411987305,-18.656999588012695 C9.055999755859375,-18.757999420166016 4.236999988555908,-16.701000213623047 -4.561999797821045,-8.880000114440918 C-13.361000061035156,-1.059000015258789 -40.965999603271484,14.164999961853027 -40.965999603271484,14.164999961853027 C-40.965999603271484,14.164999961853027 -37.814998626708984,-4.534999847412109 -37.814998626708984,-4.534999847412109z"></path></g><g opacity="0.7000000000000001" transform="matrix(1,0,0,1,189.29800415039062,56.29899978637695)"><path fill="rgb(210,111,85)" fill-opacity="1" d=" M-65.86199951171875,15.333000183105469 C-65.86199951171875,15.333000183105469 -67.41400146484375,19.645000457763672 -60.68899917602539,18.093000411987305 C-53.9630012512207,16.541000366210938 -50.16899871826172,12.229000091552734 -41.374000549316406,13.263999938964844 C-32.57899856567383,14.298999786376953 -24.990999221801758,38.44200134277344 6.567999839782715,39.99399948120117 C38.12699890136719,41.54600143432617 45.111000061035156,16.972000122070312 47.43899917602539,2.2279999256134033 C49.766998291015625,-12.517999649047852 67.41400146484375,-41.54600143432617 67.41400146484375,-41.54600143432617 C67.41400146484375,-41.54600143432617 22.606000900268555,-29.332000732421875 -2.2269999980926514,-29.332000732421875 C-27.059999465942383,-29.332000732421875 -30.468000411987305,-34.05400085449219 -41.569000244140625,-27.812999725341797 C-52.66999816894531,-21.570999145507812 -58.797000885009766,-1.2699999809265137 -58.797000885009766,-1.2699999809265137 C-58.797000885009766,-1.2699999809265137 -64.30999755859375,12.057000160217285 -64.30999755859375,12.057000160217285"></path></g><g opacity="1" transform="matrix(1,0,0,1,192.71499633789062,40.80699920654297)"><path fill="rgb(168,79,34)" fill-opacity="1" d=" M-57.380001068115234,20.823999404907227 C-57.380001068115234,20.823999404907227 -32.54800033569336,11.51099967956543 -6.679999828338623,4.785999774932861 C19.187999725341797,-1.940000057220459 59.7599983215332,-20.677000045776367 59.7599983215332,-20.677000045776367 C59.7599983215332,-20.677000045776367 47.902000427246094,-20.823999404907227 47.902000427246094,-20.823999404907227 C47.902000427246094,-20.823999404907227 -7.714000225067139,-15.909000396728516 -27.374000549316406,-13.322999954223633 C-47.034000396728516,-10.736000061035156 -56.65599822998047,-10.329999923706055 -58.20800018310547,0.017000000923871994 C-59.7599983215332,10.36400032043457 -57.380001068115234,20.823999404907227 -57.380001068115234,20.823999404907227z"></path></g><g opacity="1" transform="matrix(1.0800000429153442,0,0,1.0800000429153442,-15.928329467773438,-4.822803497314453)"><g opacity="1" transform="matrix(1,0,0,1,200.7899932861328,70.09600067138672)"><path fill="rgb(255,144,133)" fill-opacity="1" d=" M-34.58599853515625,-6.946000099182129 C-34.58599853515625,-6.946000099182129 -30.792999267578125,20.475000381469727 -2.8550000190734863,25.134000778198242 C13.01099967956543,27.780000686645508 26.117000579833984,20.503999710083008 31.291000366210938,9.59000015258789 C34.58599853515625,2.640000104904175 32.99399948120117,-5.453000068664551 31.981000900268555,-10.418999671936035 C30.429000854492188,-18.024999618530273 24.565000534057617,-27.7810001373291 24.565000534057617,-27.7810001373291 C24.565000534057617,-27.7810001373291 -3.890000104904175,-19.67799949645996 -3.890000104904175,-19.67799949645996 C-3.890000104904175,-19.67799949645996 -30.27400016784668,-16.535999298095703 -30.27400016784668,-16.535999298095703 C-30.27400016784668,-16.535999298095703 -34.58599853515625,-6.946000099182129 -34.58599853515625,-6.946000099182129z"></path><path stroke-linecap="round" stroke-linejoin="round" fill-opacity="0" stroke="rgb(168,16,11)" stroke-opacity="1" stroke-width="6.508" d=" M-34.58599853515625,-6.946000099182129 C-34.58599853515625,-6.946000099182129 -30.792999267578125,20.475000381469727 -2.8550000190734863,25.134000778198242 C13.01099967956543,27.780000686645508 26.117000579833984,20.503999710083008 31.291000366210938,9.59000015258789 C34.58599853515625,2.640000104904175 32.99399948120117,-5.453000068664551 31.981000900268555,-10.418999671936035 C30.429000854492188,-18.024999618530273 24.565000534057617,-27.7810001373291 24.565000534057617,-27.7810001373291 C24.565000534057617,-27.7810001373291 -3.890000104904175,-19.67799949645996 -3.890000104904175,-19.67799949645996 C-3.890000104904175,-19.67799949645996 -30.27400016784668,-16.535999298095703 -30.27400016784668,-16.535999298095703 C-30.27400016784668,-16.535999298095703 -34.58599853515625,-6.946000099182129 -34.58599853515625,-6.946000099182129z"></path></g><g opacity="1" transform="matrix(1,0,0,1,196.17300415039062,61.56700134277344)"><path fill="rgb(255,255,255)" fill-opacity="1" d=" M-31.349000930786133,-11.836999893188477 C-33.24599838256836,-4.578999996185303 -31.700000762939453,12.592000007629395 -19.450000762939453,20.757999420166016 C1.503000020980835,34.72700119018555 29.354999542236328,21.447999954223633 31.250999450683594,2.6500000953674316 C33.24599838256836,-17.1200008392334 27.270999908447266,-32.40299987792969 11.333000183105469,-33.564998626708984 C-4.604000091552734,-34.72600173950195 -13.555000305175781,-32.042999267578125 -20.743000030517578,-28.132999420166016 C-26.434999465942383,-25.035999298095703 -29.83099937438965,-17.64299964904785 -31.349000930786133,-11.836999893188477z"></path><path stroke-linecap="butt" stroke-linejoin="miter" fill-opacity="0" stroke-miterlimit="10" stroke="rgb(94,59,93)" stroke-opacity="1" stroke-width="7.596" d=" M-31.349000930786133,-11.836999893188477 C-33.24599838256836,-4.578999996185303 -31.700000762939453,12.592000007629395 -19.450000762939453,20.757999420166016 C1.503000020980835,34.72700119018555 29.354999542236328,21.447999954223633 31.250999450683594,2.6500000953674316 C33.24599838256836,-17.1200008392334 27.270999908447266,-32.40299987792969 11.333000183105469,-33.564998626708984 C-4.604000091552734,-34.72600173950195 -13.555000305175781,-32.042999267578125 -20.743000030517578,-28.132999420166016 C-26.434999465942383,-25.035999298095703 -29.83099937438965,-17.64299964904785 -31.349000930786133,-11.836999893188477z"></path></g><g opacity="1" transform="matrix(1,0,0,1,0,0)"><g opacity="1" transform="matrix(1,0,0,1,201.14500427246094,56.28900146484375)"><path fill="rgb(50,145,211)" fill-opacity="1" d=" M-12.295000076293945,-4.039999961853027 C-12.987000465393066,-1.159999966621399 -12.553999900817871,5.27400016784668 -7.491000175476074,8.670999526977539 C0.8569999933242798,14.27299976348877 11.244999885559082,8.980999946594238 12.020000457763672,1.7380000352859497 C12.987000465393066,-7.2789998054504395 8.664999961853027,-12.543000221252441 2.8940000534057617,-13.423999786376953 C-2.6760001182556152,-14.27299976348877 -5.46999979019165,-13.128000259399414 -7.8979997634887695,-11.282999992370605 C-10.258000373840332,-9.48900032043457 -11.741000175476074,-6.343999862670898 -12.295000076293945,-4.039999961853027z"></path></g><g opacity="1" transform="matrix(1,0,0,1,201.14500427246094,56.28900146484375)"><path stroke-linecap="butt" stroke-linejoin="miter" fill-opacity="0" stroke-miterlimit="10" stroke="rgb(50,145,211)" stroke-opacity="1" stroke-width="5.697" d=" M-12.295000076293945,-4.039999961853027 C-12.987000465393066,-1.159999966621399 -12.553999900817871,5.27400016784668 -7.491000175476074,8.670999526977539 C0.8569999933242798,14.27299976348877 11.244999885559082,8.980999946594238 12.020000457763672,1.7380000352859497 C12.987000465393066,-7.2789998054504395 8.664999961853027,-12.543000221252441 2.8940000534057617,-13.423999786376953 C-2.6760001182556152,-14.27299976348877 -5.46999979019165,-13.128000259399414 -7.8979997634887695,-11.282999992370605 C-10.258000373840332,-9.48900032043457 -11.741000175476074,-6.343999862670898 -12.295000076293945,-4.039999961853027z"></path></g><g opacity="1" transform="matrix(1,0,0,1,201.25999450683594,55.67100143432617)"><path fill="rgb(6,5,15)" fill-opacity="1" d=" M-5.709000110626221,-1.7120000123977661 C-6.044000148773193,-0.3149999976158142 -5.818999767303467,2.8929998874664307 -3.6080000400543213,4.382999897003174 C-0.09399999678134918,6.752999782562256 5.294000148773193,4.085000038146973 5.64300012588501,0.7860000133514404 C6.044000148773193,-3.0160000324249268 4.205999851226807,-5.913000106811523 1.4149999618530273,-6.341000080108643 C-1.2790000438690186,-6.752999782562256 -2.571000099182129,-6.182000160217285 -3.744999885559082,-5.285999774932861 C-4.88700008392334,-4.415999889373779 -5.440999984741211,-2.8299999237060547 -5.709000110626221,-1.7120000123977661z"></path></g><g opacity="1" transform="matrix(1,0,0,1,206.552001953125,47.749000549316406)"><path fill="rgb(255,255,255)" fill-opacity="1" d=" M1.2309999465942383,-2.8589999675750732 C1.027999997138977,-2.010999917984009 1.1640000343322754,-0.06700000166893005 2.503999948501587,0.8370000123977661 C4.635000228881836,2.2739999294281006 7.9029998779296875,0.656000018119812 8.11400032043457,-1.343999981880188 C8.357999801635742,-3.6489999294281006 7.243000030517578,-5.406000137329102 5.550000190734863,-5.665999889373779 C3.9170000553131104,-5.915999889373779 3.132999897003174,-5.568999767303467 2.4210000038146973,-5.026000022888184 C1.7289999723434448,-4.498000144958496 1.3930000066757202,-3.5369999408721924 1.2309999465942383,-2.8589999675750732z"></path></g><g opacity="1" transform="matrix(1,0,0,1,192.2899932861328,65.69300079345703)"><path fill="rgb(255,255,255)" fill-opacity="1" d=" M-1.159999966621399,-1.8580000400543213 C-1.7489999532699585,-1.36899995803833 -2.8510000705718994,-0.020999999716877937 -2.8350000381469727,1.0779999494552612 C-2.808000087738037,2.8259999752044678 -0.49000000953674316,2.9590001106262207 0.7900000214576721,1.7050000429153442 C2.2660000324249268,0.2590000033378601 2.8510000705718994,-1.3259999752044678 2.303999900817871,-2.127000093460083 C1.7760000228881836,-2.8989999294281006 1.24399995803833,-2.9590001106262207 0.6259999871253967,-2.8610000610351562 C0.02500000037252903,-2.765000104904175 -0.6880000233650208,-2.25 -1.159999966621399,-1.8580000400543213z"></path></g></g><g opacity="0.35000000000000003" transform="matrix(1,0,0,1,195.1649932861328,44.058998107910156)"><path fill="rgb(94,59,93)" fill-opacity="1" d=" M-24.475000381469727,13.223999977111816 C-24.475000381469727,13.223999977111816 -9.741000175476074,2.259000062942505 0.2460000067949295,-1.5540000200271606 C10.232999801635742,-5.368000030517578 22.674999237060547,-5.5269999504089355 22.674999237060547,-5.5269999504089355 C22.674999237060547,-5.5269999504089355 24.80299949645996,-5.843999862670898 24.80299949645996,-5.843999862670898 C24.80299949645996,-5.843999862670898 21.038000106811523,-15.220000267028809 -0.4090000092983246,-12.836999893188477 C-21.856000900268555,-10.45300006866455 -23.34000015258789,-0.781000018119812 -24.322999954223633,2.874000072479248 C-25.30500030517578,6.5289998054504395 -24.475000381469727,13.223999977111816 -24.475000381469727,13.223999977111816z"></path></g><g opacity="1" transform="matrix(1,0,0,1,225.3350067138672,80.71099853515625)"><path stroke-linecap="round" stroke-linejoin="round" fill-opacity="0" stroke="rgb(255,255,255)" stroke-opacity="1" stroke-width="4.747" d=" M1.2730000019073486,-1.527999997138977 C1.2730000019073486,-1.527999997138977 -1.2730000019073486,1.527999997138977 -1.2730000019073486,1.527999997138977"></path></g><g opacity="0" transform="matrix(1,0,0,1,0,0)"><path fill="rgb(249,213,184)" fill-opacity="1" d=" M196.07200622558594,24.81800079345703 C172.00599670410156,25.44700050354004 165.5050048828125,38.970001220703125 164.80599975585938,50.59000015258789 C163.94900512695312,64.83200073242188 164.96600341796875,63.02000045776367 164.96600341796875,63.02000045776367 C164.96600341796875,63.02000045776367 159.31700134277344,32.40599822998047 193.43800354003906,28.899999618530273 C230.78900146484375,25.062000274658203 229.6269989013672,61.31800079345703 227.36300659179688,49.176998138427734 C224.4600067138672,33.604000091552734 217.37100219726562,24.261999130249023 196.07200622558594,24.81800079345703z"></path><path stroke-linecap="butt" stroke-linejoin="miter" fill-opacity="0" stroke-miterlimit="4" stroke="rgb(130,64,57)" stroke-opacity="1" stroke-width="8" d=" M196.07200622558594,24.81800079345703 C172.00599670410156,25.44700050354004 165.5050048828125,38.970001220703125 164.80599975585938,50.59000015258789 C163.94900512695312,64.83200073242188 164.96600341796875,63.02000045776367 164.96600341796875,63.02000045776367 C164.96600341796875,63.02000045776367 159.31700134277344,32.40599822998047 193.43800354003906,28.899999618530273 C230.78900146484375,25.062000274658203 229.6269989013672,61.31800079345703 227.36300659179688,49.176998138427734 C224.4600067138672,33.604000091552734 217.37100219726562,24.261999130249023 196.07200622558594,24.81800079345703z"></path></g></g></g><g style="display: block;" transform="matrix(0.9412623047828674,0,0,0.8938044309616089,109.6927261352539,319.5594482421875)" opacity="1"><g opacity="1" transform="matrix(1,0,0,1,85.93900299072266,59.79399871826172)"><path stroke-linecap="round" stroke-linejoin="round" fill-opacity="0" stroke="rgb(121,53,37)" stroke-opacity="1" stroke-width="10" d=" M-36.4119987487793,30.354999542236328 C-36.4119987487793,30.354999542236328 -39.70600128173828,23.767000198364258 -44.784000396728516,16.738000869750977 C-49.86199951171875,9.708999633789062 -52.12699890136719,4.242000102996826 -54.426998138427734,-0.5120000243186951 C-56.72600173950195,-5.265999794006348 -65.6520004272461,-29.983999252319336 -49.724998474121094,-31.010000228881836 C-33.79800033569336,-32.03799819946289 -3.0910000801086426,-32.715999603271484 6.406000137329102,-35.12200164794922 C15.902999877929688,-37.527000427246094 38.292999267578125,-39.50699996948242 46.680999755859375,-32.130001068115234 C57.41699981689453,-22.687000274658203 52.06999969482422,-16.51099967956543 56.0890007019043,-2.38700008392334 C60.106998443603516,11.737000465393066 63.349998474121094,19.39299964904785 64.5009994506836,25.520999908447266 C65.6520004272461,31.64900016784668 65.63899993896484,39.50699996948242 65.63899993896484,39.50699996948242"></path></g><g opacity="1" transform="matrix(1,0,0,1,140.9550018310547,104.03099822998047)"><path stroke-linecap="round" stroke-linejoin="round" fill-opacity="0" stroke="rgb(182,94,49)" stroke-opacity="0.54" stroke-width="9.169" d=" M23.993000030517578,15.256999969482422 C23.993000030517578,15.256999969482422 25.50200080871582,22.518999099731445 23.770000457763672,23.73699951171875 C16.027000427246094,29.184999465942383 1.3830000162124634,20.511999130249023 -8.256999969482422,7.394000053405762 C-16.14900016784668,-3.3469998836517334 -25.50200080871582,-29.184999465942383 -25.50200080871582,-29.184999465942383"></path></g><g opacity="0" transform="matrix(1,0,0,1,0,0)"><path fill="rgb(114,47,40)" fill-opacity="1" d=" M107.95099639892578,23.989999771118164 C107.95099639892578,20.775999069213867 94.30899810791016,15.03600025177002 74.45099639892578,21.489999771118164 C54.45100021362305,27.989999771118164 48.45100021362305,40.2760009765625 55.45100021362305,33.9900016784668 C59.79199981689453,30.091999053955078 71.45099639892578,25.275999069213867 81.45099639892578,24.489999771118164 C94.15899658203125,23.490999221801758 107.95099639892578,25.275999069213867 107.95099639892578,23.989999771118164z"></path><path stroke-linecap="butt" stroke-linejoin="miter" fill-opacity="0" stroke-miterlimit="4" stroke="rgb(114,47,40)" stroke-opacity="1" stroke-width="9.169" d=" M107.95099639892578,23.989999771118164 C107.95099639892578,20.775999069213867 94.30899810791016,15.03600025177002 74.45099639892578,21.489999771118164 C54.45100021362305,27.989999771118164 48.45100021362305,40.2760009765625 55.45100021362305,33.9900016784668 C59.79199981689453,30.091999053955078 71.45099639892578,25.275999069213867 81.45099639892578,24.489999771118164 C94.15899658203125,23.490999221801758 107.95099639892578,25.275999069213867 107.95099639892578,23.989999771118164z"></path></g></g><g style="display: block;" transform="matrix(1.0165632963180542,0,0,0.9653088450431824,66.55591583251953,228.09054565429688)" opacity="1"><g opacity="1" transform="matrix(1,0,0,1,0,0)"><g opacity="1" transform="matrix(1,0,0,1,46.68199920654297,51.90299987792969)"><path fill="rgb(210,111,85)" fill-opacity="1" d=" M-41.54899978637695,-38.779998779296875 C-41.54899978637695,-38.779998779296875 -34.38100051879883,-25.091999053955078 -35.35900115966797,-21.833999633789062 C-36.33599853515625,-18.575000762939453 -37.17599868774414,19.597000122070312 -17.108999252319336,29.003000259399414 C3.746999979019165,38.779998779296875 21.996999740600586,30.30699920654297 26.233999252319336,25.417999267578125 C30.469999313354492,20.5310001373291 38.29100036621094,7.169000148773193 39.92100143432617,3.5840001106262207 C41.54999923706055,0 36.85599899291992,-17.3700008392334 33.66299819946289,-17.80900001525879 C30.469999313354492,-18.249000549316406 7.333000183105469,-30.305999755859375 -0.8140000104904175,-31.284000396728516 C-8.961000442504883,-32.262001037597656 -29.492000579833984,-33.89099884033203 -29.492000579833984,-33.89099884033203 C-29.492000579833984,-33.89099884033203 -41.54899978637695,-38.779998779296875 -41.54899978637695,-38.779998779296875z"></path></g><g opacity="1" transform="matrix(1,0,0,1,47.007999420166016,57.18199920654297)"><path fill="rgb(255,144,133)" fill-opacity="1" d=" M-21.996999740600586,-23.527000427246094 C-21.996999740600586,-23.527000427246094 -28.84000015258789,-16.357999801635742 -27.211000442504883,-2.3450000286102295 C-25.47599983215332,12.57699966430664 -16.131000518798828,21.118000030517578 -3.746999979019165,22.42099952697754 C6.749000072479248,23.527000427246094 21.018999099731445,21.118000030517578 25.582000732421875,7.756999969482422 C28.75,-1.5199999809265137 28.84000015258789,-14.729000091552734 28.84000015258789,-14.729000091552734 C28.84000015258789,-14.729000091552734 -14.82800006866455,-17.988000869750977 -14.82800006866455,-17.988000869750977 C-14.82800006866455,-17.988000869750977 -21.996999740600586,-23.527000427246094 -21.996999740600586,-23.527000427246094z"></path><path stroke-linecap="round" stroke-linejoin="round" fill-opacity="0" stroke="rgb(168,16,11)" stroke-opacity="1" stroke-width="6.508" d=" M-21.996999740600586,-23.527000427246094 C-21.996999740600586,-23.527000427246094 -28.84000015258789,-16.357999801635742 -27.211000442504883,-2.3450000286102295 C-25.47599983215332,12.57699966430664 -16.131000518798828,21.118000030517578 -3.746999979019165,22.42099952697754 C6.749000072479248,23.527000427246094 21.018999099731445,21.118000030517578 25.582000732421875,7.756999969482422 C28.75,-1.5199999809265137 28.84000015258789,-14.729000091552734 28.84000015258789,-14.729000091552734 C28.84000015258789,-14.729000091552734 -14.82800006866455,-17.988000869750977 -14.82800006866455,-17.988000869750977 C-14.82800006866455,-17.988000869750977 -21.996999740600586,-23.527000427246094 -21.996999740600586,-23.527000427246094z"></path></g><g opacity="1" transform="matrix(1,0,0,1,51.28499984741211,74.71499633789062)"><path stroke-linecap="round" stroke-linejoin="round" fill-opacity="0" stroke="rgb(255,255,255)" stroke-opacity="1" stroke-width="4.747" d=" M1.9789999723434448,-0.20000000298023224 C1.9789999723434448,-0.20000000298023224 -1.9789999723434448,0.20000000298023224 -1.9789999723434448,0.20000000298023224"></path></g><g opacity="1" transform="matrix(1,0,0,1,49.29600143432617,47.54999923706055)"><path fill="rgb(255,255,255)" fill-opacity="1" d=" M-26.833999633789062,-12.347000122070312 C-28.388999938964844,-6.019000053405762 -29.61400032043457,9.845999717712402 -17.135000228881836,17.59000015258789 C-0.5690000057220459,27.868000030517578 22.128999710083008,19.950000762939453 25.923999786376953,2.5910000801086426 C29.61400032043457,-14.284000396728516 23.141000747680664,-17.729999542236328 8.338000297546387,-22.573999404907227 C-4.182000160217285,-26.67099952697754 -13.729999542236328,-27.868000030517578 -19.62299919128418,-24.457000732421875 C-24.288000106811523,-21.757999420166016 -25.59000015258789,-17.409000396728516 -26.833999633789062,-12.347000122070312z"></path><path stroke-linecap="butt" stroke-linejoin="miter" fill-opacity="0" stroke-miterlimit="10" stroke="rgb(94,59,93)" stroke-opacity="1" stroke-width="7.873" d=" M-26.833999633789062,-12.347000122070312 C-28.388999938964844,-6.019000053405762 -29.61400032043457,9.845999717712402 -17.135000228881836,17.59000015258789 C-0.5690000057220459,27.868000030517578 22.128999710083008,19.950000762939453 25.923999786376953,2.5910000801086426 C29.61400032043457,-14.284000396728516 23.141000747680664,-17.729999542236328 8.338000297546387,-22.573999404907227 C-4.182000160217285,-26.67099952697754 -13.729999542236328,-27.868000030517578 -19.62299919128418,-24.457000732421875 C-24.288000106811523,-21.757999420166016 -25.59000015258789,-17.409000396728516 -26.833999633789062,-12.347000122070312z"></path></g><g opacity="1" transform="matrix(1,0,0,1,0,0)"><g opacity="1" transform="matrix(1,0,0,1,58.74300003051758,45.965999603271484)"><path fill="rgb(50,145,211)" fill-opacity="1" d=" M-10.151000022888184,-3.5480000972747803 C-10.722999572753906,-1.0199999809265137 -10.364999771118164,4.63100004196167 -6.184999942779541,7.613999843597412 C0.7070000171661377,12.534000396728516 9.284000396728516,7.88700008392334 9.925000190734863,1.5260000228881836 C10.722999572753906,-6.39300012588501 7.1539998054504395,-11.015999794006348 2.390000104904175,-11.788000106811523 C-2.2090001106262207,-12.534000396728516 -4.515999794006348,-11.529000282287598 -6.520999908447266,-9.909000396728516 C-8.468999862670898,-8.333999633789062 -9.692999839782715,-5.571000099182129 -10.151000022888184,-3.5480000972747803z"></path></g><g opacity="1" transform="matrix(1,0,0,1,58.74300003051758,45.965999603271484)"><path stroke-linecap="butt" stroke-linejoin="miter" fill-opacity="0" stroke-miterlimit="10" stroke="rgb(50,145,211)" stroke-opacity="1" stroke-width="4.851" d=" M-10.151000022888184,-3.5480000972747803 C-10.722999572753906,-1.0199999809265137 -10.364999771118164,4.63100004196167 -6.184999942779541,7.613999843597412 C0.7070000171661377,12.534000396728516 9.284000396728516,7.88700008392334 9.925000190734863,1.5260000228881836 C10.722999572753906,-6.39300012588501 7.1539998054504395,-11.015999794006348 2.390000104904175,-11.788000106811523 C-2.2090001106262207,-12.534000396728516 -4.515999794006348,-11.529000282287598 -6.520999908447266,-9.909000396728516 C-8.468999862670898,-8.333999633789062 -9.692999839782715,-5.571000099182129 -10.151000022888184,-3.5480000972747803z"></path></g><g opacity="1" transform="matrix(1,0,0,1,58.99300003051758,45.45000076293945)"><path fill="rgb(6,5,15)" fill-opacity="1" d=" M-4.808000087738037,-1.5379999876022339 C-5.090000152587891,-0.28200000524520874 -4.901000022888184,2.5989999771118164 -3.0390000343322754,3.938999891281128 C-0.07900000363588333,6.066999912261963 4.458000183105469,3.6700000762939453 4.751999855041504,0.7059999704360962 C5.090000152587891,-2.7100000381469727 3.5420000553131104,-5.313000202178955 1.1920000314712524,-5.697000026702881 C-1.0779999494552612,-6.066999912261963 -2.1649999618530273,-5.554999828338623 -3.1549999713897705,-4.75 C-4.116000175476074,-3.9679999351501465 -4.581999778747559,-2.5429999828338623 -4.808000087738037,-1.5379999876022339z"></path></g><g opacity="1" transform="matrix(1,0,0,1,47.40599822998047,49.89400100708008)"><path fill="rgb(255,255,255)" fill-opacity="1" d=" M-2.2170000076293945,-0.652999997138977 C-2.3469998836517334,-0.11999999731779099 -2.259999990463257,1.1039999723434448 -1.4010000228881836,1.6720000505447388 C-0.035999998450279236,2.5759999752044678 2.055999994277954,1.559000015258789 2.190999984741211,0.30000001192092896 C2.3469998836517334,-1.149999976158142 1.6339999437332153,-2.25600004196167 0.550000011920929,-2.4189999103546143 C-0.4970000088214874,-2.5759999752044678 -0.9980000257492065,-2.3580000400543213 -1.4539999961853027,-2.0169999599456787 C-1.8980000019073486,-1.684000015258789 -2.11299991607666,-1.0800000429153442 -2.2170000076293945,-0.652999997138977z"></path></g><g opacity="1" transform="matrix(1,0,0,1,67.08599853515625,42.25699996948242)"><path fill="rgb(255,255,255)" fill-opacity="1" d=" M-2.819999933242798,-0.8320000171661377 C-2.9860000610351562,-0.15299999713897705 -2.875999927520752,1.4040000438690186 -1.7829999923706055,2.128000020980835 C-0.04699999839067459,3.2780001163482666 2.615000009536743,1.9830000400543213 2.7869999408721924,0.38199999928474426 C2.9860000610351562,-1.4639999866485596 2.0769999027252197,-2.869999885559082 0.6990000009536743,-3.0769999027252197 C-0.6330000162124634,-3.2769999504089355 -1.2710000276565552,-3.000999927520752 -1.8509999513626099,-2.565999984741211 C-2.4149999618530273,-2.1440000534057617 -2.687999963760376,-1.3739999532699585 -2.819999933242798,-0.8320000171661377z"></path></g></g><g opacity="0.38" transform="matrix(1,0,0,1,50.37200164794922,38.54199981689453)"><path fill="rgb(56,32,56)" fill-opacity="1" d=" M-21.775999069213867,-13.685999870300293 C-21.775999069213867,-13.685999870300293 -1.5720000267028809,-3.5840001106262207 2.013000011444092,-0.32600000500679016 C5.5980000495910645,2.933000087738037 18.30699920654297,16.621000289916992 18.30699920654297,16.621000289916992 C18.30699920654297,16.621000289916992 27.106000900268555,2.933000087738037 16.67799949645996,-5.866000175476074 C6.249000072479248,-14.663999557495117 -9.067000389099121,-16.6200008392334 -9.067000389099121,-16.6200008392334 C-9.067000389099121,-16.6200008392334 -21.775999069213867,-13.685999870300293 -21.775999069213867,-13.685999870300293z"></path></g><g opacity="0" transform="matrix(1,0,0,1,0,0)"><path fill="rgb(249,211,182)" fill-opacity="1" d=" M29.02899932861328,21.59600067138672 C26.281999588012695,21.332000732421875 21.392000198364258,33.81700134277344 25.104000091552734,29.66699981689453 C28.097999572753906,26.319000244140625 36.775001525878906,25.320999145507812 49.95100021362305,27.551000595092773 C74.9800033569336,31.78700065612793 79.4209976196289,46.10900115966797 75.22599792480469,37.70800018310547 C71.78299713134766,30.81399917602539 55.99800109863281,28.726999282836914 49.00600051879883,25.02899932861328 C42.013999938964844,21.33099937438965 31.775999069213867,21.860000610351562 29.02899932861328,21.59600067138672z"></path><path stroke-linecap="butt" stroke-linejoin="miter" fill-opacity="0" stroke-miterlimit="4" stroke="rgb(130,64,57)" stroke-opacity="1" stroke-width="8" d=" M29.02899932861328,21.59600067138672 C26.281999588012695,21.332000732421875 21.392000198364258,33.81700134277344 25.104000091552734,29.66699981689453 C28.097999572753906,26.319000244140625 36.775001525878906,25.320999145507812 49.95100021362305,27.551000595092773 C74.9800033569336,31.78700065612793 79.4209976196289,46.10900115966797 75.22599792480469,37.70800018310547 C71.78299713134766,30.81399917602539 55.99800109863281,28.726999282836914 49.00600051879883,25.02899932861328 C42.013999938964844,21.33099937438965 31.775999069213867,21.860000610351562 29.02899932861328,21.59600067138672z"></path></g></g></g><g style="display: block;" transform="matrix(0.9412623047828674,0,0,0.8938044309616089,45.70854187011719,164.57554626464844)" opacity="1"><g opacity="1" transform="matrix(1,0,0,1,128.8699951171875,117.03600311279297)"><path stroke-linecap="round" stroke-linejoin="round" fill-opacity="0" stroke="rgb(130,64,57)" stroke-opacity="1" stroke-width="6.549" d=" M-9.277999877929688,-1.190000057220459 C-9.277999877929688,-1.190000057220459 -6.184999942779541,0.7139999866485596 -0.9520000219345093,0.953000009059906 C4.2820000648498535,1.190000057220459 9.277999877929688,-0.9520000219345093 9.277999877929688,-0.9520000219345093"></path></g><g opacity="0.77" transform="matrix(1,0,0,1,81.02200317382812,84.2040023803711)"><path fill="rgb(234,146,112)" fill-opacity="1" d=" M-38.12799835205078,-29.940000534057617 C-38.12799835205078,-29.940000534057617 -38.617000579833984,-8.187999725341797 -32.99599838256836,-5.74399995803833 C-27.374000549316406,-3.2990000247955322 -9.776000022888184,-1.8329999446868896 0,0.6110000014305115 C9.776000022888184,3.055000066757202 12.46500015258789,5.010000228881836 18.575000762939453,8.432000160217285 C24.684999465942383,11.854000091552734 30.18899917602539,12.89900016784668 33.72800064086914,15.031000137329102 C36.91400146484375,16.951000213623047 43.505001068115234,24.075000762939453 43.749000549316406,26.030000686645508 C43.99399948120117,27.985000610351562 44.237998962402344,29.940000534057617 44.237998962402344,29.940000534057617 C44.237998962402344,29.940000534057617 19.55299949645996,20.163999557495117 14.663999557495117,17.719999313354492 C9.776000022888184,15.276000022888184 2.200000047683716,10.87600040435791 -7.0879998207092285,9.40999984741211 C-16.375999450683594,7.943999767303467 -35.19499969482422,4.2769999504089355 -38.12799835205078,2.565999984741211 C-41.06100082397461,0.8560000061988831 -44.237998962402344,0.12200000137090683 -43.75,-5.74399995803833 C-43.26100158691406,-11.609000205993652 -38.12799835205078,-29.940000534057617 -38.12799835205078,-29.940000534057617z"></path></g><g opacity="1" transform="matrix(1,0,0,1,73.58599853515625,81.42500305175781)"><path stroke-linecap="round" stroke-linejoin="round" fill-opacity="0" stroke="rgb(130,62,46)" stroke-opacity="1" stroke-width="12" d=" M-32.92900085449219,-29.29800033569336 C-32.92900085449219,-29.29800033569336 -39.94300079345703,-17.14699935913086 -39.00199890136719,-3.4600000381469727 C-38.242000579833984,7.574999809265137 -29.638999938964844,9.727999687194824 -20.02400016784668,10.803999900817871 C-10.407999992370605,11.880000114440918 0.3479999899864197,12.583000183105469 10.593000411987305,16.9950008392334 C21.22100067138672,21.56999969482422 25.624000549316406,25.985000610351562 32.54499816894531,27.457000732421875 C38.869998931884766,28.80299949645996 39.94300079345703,29.29800033569336 39.94300079345703,29.29800033569336"></path></g><g opacity="1" transform="matrix(1,0,0,1,123.05999755859375,61.18899917602539)"><path stroke-linecap="round" stroke-linejoin="round" fill-opacity="0" stroke="rgb(182,94,49)" stroke-opacity="1" stroke-width="9" d=" M-5.539999961853027,-12.057999610900879 C-5.539999961853027,-12.057999610900879 -1.2599999904632568,-7.026000022888184 0.6520000100135803,-3.5840001106262207 C3.9110000133514404,2.2820000648498535 5.539999961853027,12.057999610900879 5.539999961853027,12.057999610900879"></path></g></g><g style="display: block;" transform="matrix(0.9412623047828674,0,0,0.8938044309616089,45.70854187011719,164.57554626464844)" opacity="1"><g opacity="0.49" transform="matrix(1,0,0,1,325.1679992675781,63.047000885009766)"><path stroke-linecap="round" stroke-linejoin="round" fill-opacity="0" stroke="rgb(182,94,49)" stroke-opacity="1" stroke-width="9" d=" M11.095000267028809,-36.95399856567383 C11.095000267028809,-36.95399856567383 0.4490000009536743,-28.968000411987305 -8.201000213623047,-14.329999923706055 C-17.03700065612793,0.621999979019165 -12.590999603271484,8.687000274658203 -5.119999885559082,17.81800079345703 C3.944999933242798,28.89699935913086 17.03700065612793,36.95399856567383 17.03700065612793,36.95399856567383"></path></g><g opacity="0.67" transform="matrix(1,0,0,1,225.0189971923828,54.834999084472656)"><path fill="rgb(234,146,112)" fill-opacity="1" d=" M65.95099639892578,-31.121999740600586 C65.17500305175781,-17.277999877929688 64.96900177001953,2.4100000858306885 56.17399978637695,14.82699966430664 C47.37900161743164,27.243999481201172 30.325000762939453,29.243000030517578 8.597000122070312,30.795000076293945 C-13.133000373840332,32.34700012207031 -45.3120002746582,36.257999420166016 -54.624000549316406,37.63800048828125 C-63.025001525878906,38.882999420166016 -78.73899841308594,38.61600112915039 -80.36900329589844,46.111000061035156 C-81.79399871826172,52.66899871826172 -73.75399780273438,54.584999084472656 -69.61399841308594,54.584999084472656 C-65.47599792480469,54.584999084472656 34.39799880981445,40.194000244140625 45.26300048828125,38.125 C56.12799835205078,36.05500030517578 76.30400085449219,30.881000518798828 78.89099884033203,13.809000015258789 C81.47799682617188,-3.2639999389648438 80.96199798583984,-19.302000045776367 80.44499969482422,-23.95800018310547 C79.9280014038086,-28.614999771118164 81.79499816894531,-48.893001556396484 77.34100341796875,-50.34400177001953 C64.3219985961914,-54.584999084472656 66.09500122070312,-33.67900085449219 65.95099639892578,-31.121999740600586z"></path></g><g opacity="1" transform="matrix(1,0,0,1,131.75999450683594,77.52100372314453)"><path stroke-linecap="round" stroke-linejoin="round" fill-opacity="0" stroke="rgb(182,94,49)" stroke-opacity="1" stroke-width="10" d=" M4.743000030517578,-35.233001708984375 C4.743000030517578,-35.233001708984375 4.48199987411499,-26.618000030517578 4.00600004196167,-24.23900032043457 C3.5299999713897705,-21.860000610351562 1.1510000228881836,-21.384000778198242 -0.7519999742507935,-19.0049991607666 C-2.6549999713897705,-16.62700080871582 -4.743000030517578,-8.857000350952148 -2.8929998874664307,5.020999908447266 C-0.9900000095367432,19.295000076293945 -0.03799999877810478,35.233001708984375 -0.03799999877810478,35.233001708984375"></path></g><g opacity="1" transform="matrix(1,0,0,1,228.1179962158203,73.04100036621094)"><path stroke-linecap="round" stroke-linejoin="round" fill-opacity="0" stroke="rgb(131,63,47)" stroke-opacity="1" stroke-width="12" d=" M-72.68900299072266,33.369998931884766 C-72.68900299072266,33.369998931884766 -71.7770004272461,31.784000396728516 -54.604000091552734,30.232999801635742 C-47.08100128173828,29.554000854492188 8.08899974822998,24.94499969482422 23.19499969482422,22.68000030517578 C38.303001403808594,20.413999557495117 60.207000732421875,16.636999130249023 66.25,2.2860000133514404 C71.08399963378906,-9.194999694824219 72.1719970703125,-21.988000869750977 72.68900299072266,-33.369998931884766"></path></g></g><g style="display: block;" transform="matrix(0.9412623047828674,0,0,0.8938044309616089,96.7503662109375,97.1773452758789)" opacity="0.48"><g opacity="1" transform="matrix(1,0,0,1,40.99800109863281,63.88999938964844)"><path stroke-linecap="round" stroke-linejoin="round" fill-opacity="0" stroke="rgb(182,94,49)" stroke-opacity="1" stroke-width="10" d=" M-20.312999725341797,-0.26899999380111694 C-20.312999725341797,-0.26899999380111694 -12.805999755859375,-6.190000057220459 -2.2079999446868896,-4.574999809265137 C12.206000328063965,-2.378999948501587 20.312999725341797,6.190000057220459 20.312999725341797,6.190000057220459"></path></g><g opacity="1" transform="matrix(1,0,0,1,126.97799682617188,67.01000213623047)"><path stroke-linecap="round" stroke-linejoin="round" fill-opacity="0" stroke="rgb(182,94,49)" stroke-opacity="1" stroke-width="10" d=" M36.159000396728516,-9.303999900817871 C36.159000396728516,-9.303999900817871 17.042999267578125,-10.678999900817871 -0.4749999940395355,-6.925000190734863 C-20.45800018310547,-2.6429998874664307 -36.159000396728516,10.678999900817871 -36.159000396728516,10.678999900817871"></path></g><g opacity="1" transform="matrix(1,0,0,1,124.98400115966797,29.46299934387207)"><path stroke-linecap="round" stroke-linejoin="round" fill-opacity="0" stroke="rgb(182,94,49)" stroke-opacity="1" stroke-width="10" d=" M-67.56099700927734,6.8979997634887695 C-67.56099700927734,6.8979997634887695 -51.3849983215332,2.1419999599456787 -45.20000076293945,4.045000076293945 C-39.01499938964844,5.947999954223633 -40.44200134277344,8.326000213623047 -30.451000213623047,8.800999641418457 C-20.458999633789062,9.277000427246094 -5.709000110626221,6.8979997634887695 1.4279999732971191,7.374000072479248 C8.564000129699707,7.849999904632568 10.467000007629395,8.802000045776367 19.506999969482422,6.422999858856201 C28.547000885009766,4.045000076293945 36.6349983215332,1.1890000104904175 45.19900131225586,-1.6660000085830688 C53.76300048828125,-4.519999980926514 67.56099700927734,-9.277999877929688 67.56099700927734,-9.277999877929688"></path></g></g><g style="display: block;" transform="matrix(0.9412623047828674,0,0,0.8938044309616089,103.15473175048828,238.5101776123047)" opacity="1"><g opacity="1" transform="matrix(1,0,0,1,0,0)"><g opacity="1" transform="matrix(1,0,0,1,0,0)"></g></g><g opacity="1" transform="matrix(1,0,0,1,0,0)"><g opacity="1" transform="matrix(1,0,0,1,0,0)"></g></g><g opacity="1" transform="matrix(1,0,0,1,0,0)"><g opacity="1" transform="matrix(1,0,0,1,82.31600189208984,201.53399658203125)"><path fill="rgb(235,149,116)" fill-opacity="1" d=" M3.5850000381469727,-16.783000946044922 C3.5850000381469727,-16.783000946044922 6.191999912261963,0.8159999847412109 5.214000225067139,7.658999919891357 C4.236999988555908,14.501999855041504 2.2809998989105225,16.131999969482422 2.2809998989105225,16.131999969482422 C2.2809998989105225,16.131999969482422 -6.190999984741211,16.783000946044922 -6.190999984741211,16.783000946044922 C-6.190999984741211,16.783000946044922 -2.2820000648498535,1.1410000324249268 -2.2820000648498535,1.1410000324249268 C-2.2820000648498535,1.1410000324249268 3.5850000381469727,-16.783000946044922 3.5850000381469727,-16.783000946044922z"></path></g><g opacity="1" transform="matrix(1,0,0,1,73.46600341796875,201.2729949951172)"><path stroke-linecap="round" stroke-linejoin="round" fill-opacity="0" stroke="rgb(182,95,50)" stroke-opacity="0.68" stroke-width="8.074" d=" M8.765999794006348,-19.583999633789062 C8.765999794006348,-19.583999633789062 9.072999954223633,-8.329000473022461 6.567999839782715,1.4019999504089355 C1.8880000114440918,19.583999633789062 -9.074000358581543,11.829999923706055 -9.074000358581543,11.829999923706055"></path></g><g opacity="0.7000000000000001" transform="matrix(1,0,0,1,139.1580047607422,121.22599792480469)"><path stroke-linecap="round" stroke-linejoin="round" fill-opacity="0" stroke="rgb(182,94,49)" stroke-opacity="1" stroke-width="10" d=" M-32.4010009765625,-34.888999938964844 C-32.4010009765625,-34.888999938964844 -9.467000007629395,-25.05699920654297 7.659999847412109,-12.687000274658203 C21.24799919128418,-2.872999906539917 23.323999404907227,0.9570000171661377 25.604999542236328,8.12600040435791 C26.482999801635742,10.883000373840332 26.070999145507812,16.099000930786133 28.21299934387207,23.117000579833984 C29.398000717163086,27.006000518798828 32.4010009765625,34.888999938964844 32.4010009765625,34.888999938964844"></path></g><g opacity="1" transform="matrix(1,0,0,1,43.43000030517578,150.60400390625)"><path stroke-linecap="round" stroke-linejoin="round" fill-opacity="0" stroke="rgb(182,94,49)" stroke-opacity="0.75" stroke-width="8.074" d=" M4.427999973297119,-63.47600173950195 C4.427999973297119,-63.47600173950195 -23.16699981689453,-41.472999572753906 -23.19300079345703,-31.68000030517578 C-23.243999481201172,-12.73900032043457 -18.599000930786133,5.88700008392334 -11.461999893188477,21.11199951171875 C-4.326000213623047,36.33700180053711 12.491000175476074,62.00899887084961 23.2450008392334,63.47600173950195"></path></g><g opacity="0.25" transform="matrix(1,0,0,1,85.98200225830078,133.10899353027344)"><path fill="rgb(112,39,14)" fill-opacity="1" d=" M41.459999084472656,-33.51599884033203 C41.459999084472656,-33.51599884033203 30.01799964904785,-26.80699920654297 21.2189998626709,-5.543000221252441 C12.420000076293945,15.720000267028809 20.930999755859375,54.672000885009766 -4.730999946594238,49.53900146484375 C-28.150999069213867,44.854000091552734 -45.459999084472656,-19.31800079345703 -45.459999084472656,-19.31800079345703 C-45.459999084472656,-19.31800079345703 -8.798999786376953,-53.04600143432617 -8.798999786376953,-53.04600143432617 C-8.798999786376953,-53.04600143432617 41.459999084472656,-33.51599884033203 41.459999084472656,-33.51599884033203z"></path></g><g opacity="1" transform="matrix(1,0,0,1,47.222999572753906,109.96099853515625)"><path fill="rgb(255,194,153)" fill-opacity="1" d=" M7.632999897003174,-22.231000900268555 C7.632999897003174,-22.231000900268555 0.6589999794960022,-28.841999053955078 -9.637999534606934,-20.69300079345703 C-14.697999954223633,-16.687999725341797 -6.322000026702881,2.325000047683716 -3.062999963760376,10.472999572753906 C-0.949999988079071,15.756999969482422 1.2009999752044678,24.27899932861328 1.2009999752044678,24.27899932861328 C1.2009999752044678,24.27899932861328 11.303999900817871,26.55900001525879 11.303999900817871,26.55900001525879"></path><path stroke-linecap="butt" stroke-linejoin="miter" fill-opacity="0" stroke-miterlimit="10" stroke="rgb(168,79,34)" stroke-opacity="1" stroke-width="10" d=" M7.632999897003174,-22.231000900268555 C7.632999897003174,-22.231000900268555 0.6589999794960022,-28.841999053955078 -9.637999534606934,-20.69300079345703 C-14.697999954223633,-16.687999725341797 -6.322000026702881,2.325000047683716 -3.062999963760376,10.472999572753906 C-0.949999988079071,15.756999969482422 1.2009999752044678,24.27899932861328 1.2009999752044678,24.27899932861328 C1.2009999752044678,24.27899932861328 11.303999900817871,26.55900001525879 11.303999900817871,26.55900001525879"></path></g><g opacity="1" transform="matrix(1,0,0,1,92.87699890136719,49.29399871826172)"><path stroke-linecap="round" stroke-linejoin="round" fill-opacity="0" stroke="rgb(168,79,34)" stroke-opacity="1" stroke-width="11.663" d=" M5.181000232696533,-17.483999252319336 C5.181000232696533,-17.483999252319336 4.269000053405762,-8.465999603271484 2.0409998893737793,0.6600000262260437 C0.1809999942779541,8.281999588012695 -5.181000232696533,17.483999252319336 -5.181000232696533,17.483999252319336"></path></g><g opacity="1" transform="matrix(1,0,0,1,78.05699920654297,85.2770004272461)"><path fill="rgb(246,196,160)" fill-opacity="1" d=" M-18.388999938964844,-58.57699966430664 C-18.388999938964844,-58.57699966430664 -16.270999908447266,-52.875 -17.047000885009766,-44.32500076293945 C-17.243000030517578,-42.17300033569336 -18.04199981689453,-37.62300109863281 -19.216999053955078,-35.957000732421875 C-22.163999557495117,-31.77400016784668 -29.7549991607666,-29.13800048828125 -29.135000228881836,-17.979999542236328 C-28.514999389648438,-6.822000026702881 -19.836999893188477,5.265999794006348 -20.45599937438965,13.635000228881836 C-21.07699966430664,22.003000259399414 -22.31599998474121,31.611000061035156 -22.93600082397461,37.500999450683594 C-23.555999755859375,43.38999938964844 -27.584999084472656,52.37799835205078 -22.625999450683594,55.47800064086914 C-17.66699981689453,58.57699966430664 -8.057999610900879,48.03900146484375 -6.198999881744385,43.08000183105469 C-4.339000225067139,38.119998931884766 -2.7890000343322754,35.33100128173828 -2.7890000343322754,35.33100128173828 C-2.7890000343322754,35.33100128173828 13.947999954223633,26.961999893188477 22.316999435424805,18.5939998626709 C28.788000106811523,12.121999740600586 29.7549991607666,5.886000156402588 22.316999435424805,3.0969998836517334 C18.160999298095703,1.5379999876022339 13.32800006866455,4.335999965667725 13.32800006866455,4.335999965667725 C13.32800006866455,4.335999965667725 7.439000129699707,-7.131999969482422 7.439000129699707,-7.131999969482422 C7.439000129699707,-7.131999969482422 -1.8600000143051147,-14.880999565124512 0.6200000047683716,-21.07900047302246 C2.1640000343322754,-24.940000534057617 11.777999877929688,-46.185001373291016 11.777999877929688,-46.185001373291016 C11.777999877929688,-46.185001373291016 6.678999900817871,-51.88399887084961 6.678999900817871,-51.88399887084961 C6.678999900817871,-51.88399887084961 1.2400000095367432,-57.9630012512207 1.2400000095367432,-57.9630012512207 C1.2400000095367432,-57.9630012512207 -18.388999938964844,-58.57699966430664 -18.388999938964844,-58.57699966430664z"></path></g><g opacity="1" transform="matrix(1,0,0,1,49.05799865722656,73.9520034790039)"><path stroke-linecap="round" stroke-linejoin="round" fill-opacity="0" stroke="rgb(168,79,34)" stroke-opacity="1" stroke-width="11" d=" M5.070000171661377,-44.481998443603516 C5.070000171661377,-44.481998443603516 6.857999801635742,-32.05699920654297 6.678999900817871,-29.46500015258789 C6.500999927520752,-26.878000259399414 6.9710001945495605,-28.65999984741211 6.063000202178955,-27.731000900268555 C2.822000026702881,-24.416000366210938 -6.9710001945495605,-19.652000427246094 -5.900000095367432,-6.806000232696533 C-4.828999996185303,6.039000034332275 1.88100004196167,14.088000297546387 2.9519999027252197,19.797000885009766 C4.021999835968018,25.506999969482422 1.9739999771118164,44.481998443603516 1.9739999771118164,44.481998443603516"></path></g><g opacity="1" transform="matrix(1,0,0,1,94.72100067138672,102.4729995727539)"><path stroke-linecap="round" stroke-linejoin="miter" fill-opacity="0" stroke-miterlimit="10" stroke="rgb(168,79,34)" stroke-opacity="1" stroke-width="10" d=" M-5.232999801635742,-17.010000228881836 C-5.232999801635742,-17.010000228881836 0.47600001096725464,-21.05299949645996 7.85099983215332,-16.770999908447266 C15.225000381469727,-12.48900032043457 16.176000595092773,-4.639999866485596 12.607000350952148,1.3070000410079956 C9.038999557495117,7.255000114440918 5.234000205993652,9.395999908447266 0.7139999866485596,11.774999618530273 C-3.805999994277954,14.154000282287598 -16.176000595092773,21.05299949645996 -16.176000595092773,21.05299949645996"></path></g><g opacity="1" transform="matrix(1,0,0,1,71.01200103759766,118.74099731445312)"><path fill="rgb(228,120,92)" fill-opacity="1" d=" M15.54800033569336,-22.97800064086914 C12.446000099182129,-24.038000106811523 9.07800006866455,-20.378999710083008 4.678999900817871,-12.314000129699707 C0.2800000011920929,-4.248000144958496 -0.1889999955892563,5.431000232696533 -3.367000102996826,9.831000328063965 C-5.6020002365112305,12.925000190734863 -7.8460001945495605,12.958999633789062 -10.307000160217285,13.696999549865723 C-15.194999694824219,15.163999557495117 -17.27899932861328,11.258999824523926 -17.27899932861328,11.258999824523926 C-17.27899932861328,11.258999824523926 -20.20599937438965,22.937999725341797 -13.239999771118164,23.549999237060547 C-6.27400016784668,24.160999298095703 -1.4049999713897705,14.11400032043457 0.18400000035762787,11.670999526977539 C1.7719999551773071,9.22599983215332 8.776000022888184,1.8040000200271606 10.609000205993652,-0.5180000066757202 C12.442000389099121,-2.8399999141693115 24.719999313354492,-10.17199993133545 24.108999252319336,-16.038000106811523 C23.49799919128418,-21.90399932861328 17.54599952697754,-22.295000076293945 15.54800033569336,-22.97800064086914z"></path></g><g opacity="1" transform="matrix(1,0,0,1,68.7300033569336,124.81600189208984)"><path stroke-linecap="round" stroke-linejoin="miter" fill-opacity="0" stroke-miterlimit="10" stroke="rgb(167,79,33)" stroke-opacity="1" stroke-width="10" d=" M20.763999938964844,-23.885000228881836 C20.763999938964844,-23.885000228881836 15.767999649047852,-23.64699935913086 11.723999977111816,-13.892999649047852 C8.586000442504883,-6.324999809265137 7.423999786376953,3.9630000591278076 4.164999961853027,10.185999870300293 C-1.6510000228881836,21.29599952697754 -9.130999565124512,23.884000778198242 -13.96500015258789,21.466999053955078 C-20.763999938964844,18.066999435424805 -20.391000747680664,7.755000114440918 -19.43899917602539,2.996999979019165 C-18.48699951171875,-1.7610000371932983 -17.059999465942383,-5.567999839782715 -17.29800033569336,-6.756999969482422 C-17.535999298095703,-7.946000099182129 -17.059999465942383,-13.416999816894531 -17.059999465942383,-13.416999816894531"></path></g><g opacity="1" transform="matrix(1,0,0,1,74.57599639892578,39.59199905395508)"><path fill="rgb(207,124,101)" fill-opacity="1" d=" M-17.35300064086914,-16.639999389648438 C-15.642000198364258,-15.418000221252441 -14.310999870300293,-12.593999862670898 -9.91100025177002,-14.182000160217285 C-6.5960001945495605,-15.378999710083008 -8.357000350952148,-14.243000030517578 -5.179999828338623,-12.777000427246094 C-2.003000020980835,-11.310999870300293 0.21899999678134918,-14.609000205993652 0.21899999678134918,-14.609000205993652 C0.21899999678134918,-14.609000205993652 17.190000534057617,-6.048999786376953 17.190000534057617,-6.048999786376953 C17.190000534057617,-6.048999786376953 17.35300064086914,-2.2200000286102295 16.375999450683594,3.239000082015991 C15.017000198364258,10.824999809265137 11.649999618530273,16.639999389648438 11.649999618530273,16.639999389648438 C11.649999618530273,16.639999389648438 6.355000019073486,5.438000202178955 3.4619998931884766,2.3420000076293945 C0.39500001072883606,-0.9409999847412109 -3.0139999389648438,-0.5899999737739563 -5.947000026702881,0.6309999823570251 C-8.880000114440918,1.8539999723434448 -14.25,7.48799991607666 -14.25,7.48799991607666 C-14.25,7.48799991607666 -14.020000457763672,3.0829999446868896 -14.020000457763672,-1.0729999542236328 C-14.020000457763672,-5.228000164031982 -14.746000289916992,-7.540999889373779 -14.746000289916992,-9.633000373840332"></path></g><g opacity="1" transform="matrix(1,0,0,1,55.308998107910156,87.88400268554688)"><path fill="rgb(252,236,227)" fill-opacity="1" d=" M7.454999923706055,-44.481998443603516 C7.454999923706055,-44.481998443603516 -0.6110000014305115,-30.795000076293945 -1.100000023841858,-20.774999618530273 C-1.5889999866485596,-10.753000259399414 4.767000198364258,-2.444000005722046 5.255000114440918,6.8429999351501465 C5.74399995803833,16.131000518798828 3.055999994277954,29.81800079345703 2.322000026702881,32.750999450683594 C1.5889999866485596,35.683998107910156 -2.078000068664551,44.481998443603516 -2.078000068664551,44.481998443603516 C-2.078000068664551,44.481998443603516 3.055999994277954,15.39799976348877 1.5889999866485596,7.822000026702881 C0.12200000137090683,0.24500000476837158 -7.454999923706055,-13.687000274658203 -6.7220001220703125,-21.753000259399414 C-5.98799991607666,-29.81800079345703 -3.299999952316284,-31.52899932861328 -0.367000013589859,-34.95100021362305 C2.0190000534057617,-37.73400115966797 7.454999923706055,-44.481998443603516 7.454999923706055,-44.481998443603516z"></path></g></g></g><g style="display: block;" transform="matrix(1.620093822479248,0,0,1.620093822479248,32.91675567626953,21.47356414794922)" opacity="1"><g opacity="1" transform="matrix(1,0,0,1,62.66600036621094,44.20600128173828)"><path stroke-linecap="round" stroke-linejoin="round" fill-opacity="0" stroke="rgb(255,255,255)" stroke-opacity="1" stroke-width="34" d=" M-0.20600000023841858,-36.20600128173828 C-0.20600000023841858,-36.20600128173828 0.20600000023841858,36.20600128173828 0.20600000023841858,36.20600128173828"></path></g><g opacity="1" transform="matrix(1,0,0,1,8.206000328063965,44.20600128173828)"><path stroke-linecap="round" stroke-linejoin="round" fill-opacity="0" stroke="rgb(255,255,255)" stroke-opacity="1" stroke-width="34" d=" M-0.20600000023841858,-36.20600128173828 C-0.20600000023841858,-36.20600128173828 0.20600000023841858,36.20600128173828 0.20600000023841858,36.20600128173828"></path></g><g opacity="1" transform="matrix(1,0,0,1,35.8390007019043,44.020999908447266)"><path stroke-linecap="round" stroke-linejoin="round" fill-opacity="0" stroke="rgb(255,255,255)" stroke-opacity="1" stroke-width="34" d=" M-25.90399932861328,-35.270999908447266 C-25.90399932861328,-35.270999908447266 25.90399932861328,35.270999908447266 25.90399932861328,35.270999908447266"></path></g></g><g style="display: block;" transform="matrix(0.9412623047828674,0,0,0.8938044309616089,45.70854187011719,164.57554626464844)" opacity="1"><g opacity="0.49" transform="matrix(1,0,0,1,325.1679992675781,63.047000885009766)"><path stroke-linecap="round" stroke-linejoin="round" fill-opacity="0" stroke="rgb(182,94,49)" stroke-opacity="1" stroke-width="9" d=" M11.095000267028809,-36.95399856567383 C11.095000267028809,-36.95399856567383 0.4490000009536743,-28.968000411987305 -8.201000213623047,-14.329999923706055 C-17.03700065612793,0.621999979019165 -12.590999603271484,8.687000274658203 -5.119999885559082,17.81800079345703 C3.944999933242798,28.89699935913086 17.03700065612793,36.95399856567383 17.03700065612793,36.95399856567383"></path></g><g opacity="1" transform="matrix(1,0,0,1,228.1179962158203,73.04100036621094)"><path stroke-linecap="round" stroke-linejoin="round" fill-opacity="0" stroke="rgb(131,63,47)" stroke-opacity="1" stroke-width="12" d=" M-72.68900299072266,33.369998931884766 C-72.68900299072266,33.369998931884766 -71.7770004272461,31.784000396728516 -54.604000091552734,30.232999801635742 C-47.08100128173828,29.554000854492188 8.08899974822998,24.94499969482422 23.19499969482422,22.68000030517578 C38.303001403808594,20.413999557495117 60.207000732421875,16.636999130249023 66.25,2.2860000133514404 C71.08399963378906,-9.194999694824219 72.1719970703125,-21.988000869750977 72.68900299072266,-33.369998931884766"></path></g></g><g style="display: block;" transform="matrix(0.43860000371932983,0,0,0.43860000371932983,161.094970703125,69.46744537353516)" opacity="1"><g opacity="1" transform="matrix(1,0,0,1,8.550999641418457,8.727999687194824)"><path stroke-linecap="round" stroke-linejoin="round" fill-opacity="0" stroke="rgb(255,255,255)" stroke-opacity="1" stroke-width="34" d=" M-0.5509999990463257,-0.7279999852180481 C-0.5509999990463257,-0.7279999852180481 0.5509999990463257,0.7279999852180481 0.5509999990463257,0.7279999852180481"></path></g></g><g style="display: block;" transform="matrix(0.43860000371932983,0,0,0.43860000371932983,161.094970703125,69.46744537353516)" opacity="1"><g opacity="1" transform="matrix(1,0,0,1,8.550999641418457,8.727999687194824)"><path stroke-linecap="round" stroke-linejoin="round" fill-opacity="0" stroke="rgb(244,3,37)" stroke-opacity="1" stroke-width="16" d=" M-0.5509999990463257,-0.7279999852180481 C-0.5509999990463257,-0.7279999852180481 0.5509999990463257,0.7279999852180481 0.5509999990463257,0.7279999852180481"></path></g></g><g style="display: none;"><g><path stroke-linecap="round" stroke-linejoin="round" fill-opacity="0"></path></g></g><g style="display: block;" transform="matrix(1.620093822479248,0,0,1.620093822479248,32.91675567626953,21.47356414794922)" opacity="1"><g opacity="1" transform="matrix(1,0,0,1,62.66600036621094,44.20600128173828)"><path stroke-linecap="round" stroke-linejoin="round" fill-opacity="0" stroke="rgb(244,3,37)" stroke-opacity="1" stroke-width="16" d=" M-0.20600000023841858,-36.20600128173828 C-0.20600000023841858,-36.20600128173828 0.20600000023841858,36.20600128173828 0.20600000023841858,36.20600128173828"></path></g><g opacity="1" transform="matrix(1,0,0,1,8.206000328063965,44.20600128173828)"><path stroke-linecap="round" stroke-linejoin="round" fill-opacity="0" stroke="rgb(244,3,37)" stroke-opacity="1" stroke-width="16" d=" M-0.20600000023841858,-36.20600128173828 C-0.20600000023841858,-36.20600128173828 0.20600000023841858,36.20600128173828 0.20600000023841858,36.20600128173828"></path></g><g opacity="1" transform="matrix(1,0,0,1,35.8390007019043,44.020999908447266)"><path stroke-linecap="round" stroke-linejoin="round" fill-opacity="0" stroke="rgb(244,3,37)" stroke-opacity="1" stroke-width="16" d=" M-25.90399932861328,-35.270999908447266 C-25.90399932861328,-35.270999908447266 25.90399932861328,35.270999908447266 25.90399932861328,35.270999908447266"></path></g></g><g style="display: none;"><g><path stroke-linecap="round" stroke-linejoin="round" fill-opacity="0"></path></g></g></g></g></svg>