<svg xmlns="http://www.w3.org/2000/svg" xmlns:xlink="http://www.w3.org/1999/xlink" viewBox="0 0 512 512" width="512" height="512" style="width: 100%; height: 100%; transform: translate3d(0,0,0); content-visibility: visible;" preserveAspectRatio="xMidYMid meet"><defs><clipPath id="__lottie_element_2"><rect width="512" height="512" x="0" y="0"></rect></clipPath><linearGradient id="__lottie_element_6" spreadMethod="pad" gradientUnits="userSpaceOnUse"><stop></stop><stop></stop><stop></stop></linearGradient><linearGradient id="__lottie_element_10" spreadMethod="pad" gradientUnits="userSpaceOnUse"><stop></stop><stop></stop><stop></stop></linearGradient><linearGradient id="__lottie_element_14" spreadMethod="pad" gradientUnits="userSpaceOnUse"><stop></stop><stop></stop><stop></stop></linearGradient><linearGradient id="__lottie_element_18" spreadMethod="pad" gradientUnits="userSpaceOnUse"><stop></stop><stop></stop><stop></stop></linearGradient><linearGradient id="__lottie_element_22" spreadMethod="pad" gradientUnits="userSpaceOnUse" x1="-63.933998107910156" y1="12.01200008392334" x2="48.3120002746582" y2="6.88700008392334"><stop offset="0%" stop-color="rgb(255,255,255)" stop-opacity="0"></stop><stop offset="50%" stop-color="rgb(255,255,255)" stop-opacity="0.5"></stop><stop offset="100%" stop-color="rgb(255,255,255)" stop-opacity="1"></stop></linearGradient><linearGradient id="__lottie_element_23" spreadMethod="pad" gradientUnits="userSpaceOnUse" x1="48.862998962402344" y1="-95.08599853515625" x2="48.3120002746582" y2="6.88700008392334"><stop offset="0%" stop-color="rgb(255,255,255)" stop-opacity="0"></stop><stop offset="50%" stop-color="rgb(255,255,255)" stop-opacity="0.5"></stop><stop offset="100%" stop-color="rgb(255,255,255)" stop-opacity="1"></stop></linearGradient><linearGradient id="__lottie_element_24" spreadMethod="pad" gradientUnits="userSpaceOnUse" x1="130.73399353027344" y1="-9.484000205993652" x2="48.3120002746582" y2="6.88700008392334"><stop offset="0%" stop-color="rgb(255,255,255)" stop-opacity="0"></stop><stop offset="50%" stop-color="rgb(255,255,255)" stop-opacity="0.5"></stop><stop offset="100%" stop-color="rgb(255,255,255)" stop-opacity="1"></stop></linearGradient><linearGradient id="__lottie_element_25" spreadMethod="pad" gradientUnits="userSpaceOnUse" x1="57.80500030517578" y1="130.30499267578125" x2="48.3120002746582" y2="6.88700008392334"><stop offset="0%" stop-color="rgb(255,255,255)" stop-opacity="0"></stop><stop offset="50%" stop-color="rgb(255,255,255)" stop-opacity="0.5"></stop><stop offset="100%" stop-color="rgb(255,255,255)" stop-opacity="1"></stop></linearGradient><radialGradient id="__lottie_element_31" spreadMethod="pad" gradientUnits="userSpaceOnUse" cx="175" cy="458" r="94.85938318595414" fx="175" fy="458"><stop offset="0%" stop-color="rgb(251,236,218)"></stop><stop offset="50%" stop-color="rgb(250,207,180)"></stop><stop offset="100%" stop-color="rgb(249,178,142)"></stop></radialGradient><radialGradient id="__lottie_element_34" spreadMethod="pad" gradientUnits="userSpaceOnUse" cx="-136.5189971923828" cy="-161.30999755859375" r="264.39008682274556" fx="-136.5189971923828" fy="-161.30999755859375"><stop offset="0%" stop-color="rgb(251,236,218)"></stop><stop offset="50%" stop-color="rgb(250,212,184)"></stop><stop offset="100%" stop-color="rgb(249,189,149)"></stop></radialGradient><radialGradient id="__lottie_element_39" spreadMethod="pad" gradientUnits="userSpaceOnUse" cx="144.36700439453125" cy="125.14299774169922" r="116.19302879904883" fx="144.36700439453125" fy="125.14299774169922"><stop offset="0%" stop-color="rgb(251,236,218)"></stop><stop offset="27%" stop-color="rgb(249,200,172)"></stop><stop offset="54%" stop-color="rgb(247,164,126)"></stop></radialGradient><radialGradient id="__lottie_element_42" spreadMethod="pad" gradientUnits="userSpaceOnUse" cx="132" cy="115" r="46.46099853515625" fx="132" fy="115"><stop offset="0%" stop-color="rgb(251,236,218)"></stop><stop offset="50%" stop-color="rgb(250,207,180)"></stop><stop offset="100%" stop-color="rgb(249,178,142)"></stop></radialGradient><radialGradient id="__lottie_element_43" spreadMethod="pad" gradientUnits="userSpaceOnUse" cx="47.54199981689453" cy="-4.296999931335449" r="284.02147543650096" fx="47.54199981689453" fy="-4.296999931335449"><stop offset="0%" stop-color="rgb(251,236,218)"></stop><stop offset="50%" stop-color="rgb(250,207,180)"></stop><stop offset="100%" stop-color="rgb(249,178,142)"></stop></radialGradient><radialGradient id="__lottie_element_44" spreadMethod="pad" gradientUnits="userSpaceOnUse" cx="341.7149963378906" cy="-23.674999237060547" r="355.5801348497965" fx="341.7149963378906" fy="-23.674999237060547"><stop offset="0%" stop-color="rgb(251,236,218)"></stop><stop offset="50%" stop-color="rgb(250,212,184)"></stop><stop offset="100%" stop-color="rgb(249,189,149)"></stop></radialGradient><radialGradient id="__lottie_element_51" spreadMethod="pad" gradientUnits="userSpaceOnUse" cx="-71.0989990234375" cy="-51.915000915527344" r="22.87435492479171" fx="-71.0989990234375" fy="-51.915000915527344"><stop offset="0%" stop-color="rgb(251,236,218)"></stop><stop offset="50%" stop-color="rgb(250,212,184)"></stop><stop offset="100%" stop-color="rgb(249,189,149)"></stop></radialGradient><radialGradient id="__lottie_element_52" spreadMethod="pad" gradientUnits="userSpaceOnUse" cx="-74.09600067138672" cy="-22.000999450683594" r="26.840179423505415" fx="-74.09600067138672" fy="-22.000999450683594"><stop offset="0%" stop-color="rgb(251,236,218)"></stop><stop offset="50%" stop-color="rgb(250,212,184)"></stop><stop offset="100%" stop-color="rgb(249,189,149)"></stop></radialGradient><radialGradient id="__lottie_element_53" spreadMethod="pad" gradientUnits="userSpaceOnUse" cx="52.00400161743164" cy="-48.00699996948242" r="70.77491243580396" fx="52.00400161743164" fy="-48.00699996948242"><stop offset="0%" stop-color="rgb(251,236,218)"></stop><stop offset="50%" stop-color="rgb(250,212,184)"></stop><stop offset="100%" stop-color="rgb(249,189,149)"></stop></radialGradient></defs><g clip-path="url(#__lottie_element_2)"><g style="display: block;" transform="matrix(1,0,0,1,256.41802978515625,262.91998291015625)" opacity="1"><g opacity="1" transform="matrix(1,0,0,1,0,0)"><path fill="url(#__lottie_element_39)" fill-opacity="1" d=" M168.57899475097656,59.17599868774414 C131.6510009765625,55.1870002746582 126.83899688720703,77.60399627685547 98.59100341796875,79.7300033569336 C58.45800018310547,82.7509994506836 3.9809999465942383,72.5469970703125 3.9809999465942383,72.5469970703125 C3.9809999465942383,72.5469970703125 -29.822999954223633,163.76199340820312 -29.822999954223633,163.76199340820312 C-29.822999954223633,163.76199340820312 27.97100067138672,178.97799682617188 74.88099670410156,158.4530029296875 C101.31800079345703,146.88600158691406 117.85900115966797,170.23500061035156 149.9810028076172,169.35400390625 C182.10299682617188,168.47300720214844 168.57899475097656,59.17599868774414 168.57899475097656,59.17599868774414z"></path><path stroke-linecap="butt" stroke-linejoin="miter" fill-opacity="0" stroke-miterlimit="10" stroke="rgb(188,80,51)" stroke-opacity="1" stroke-width="8.34" d=" M168.57899475097656,59.17599868774414 C131.6510009765625,55.1870002746582 126.83899688720703,77.60399627685547 98.59100341796875,79.7300033569336 C58.45800018310547,82.7509994506836 3.9809999465942383,72.5469970703125 3.9809999465942383,72.5469970703125 C3.9809999465942383,72.5469970703125 -29.822999954223633,163.76199340820312 -29.822999954223633,163.76199340820312 C-29.822999954223633,163.76199340820312 27.97100067138672,178.97799682617188 74.88099670410156,158.4530029296875 C101.31800079345703,146.88600158691406 117.85900115966797,170.23500061035156 149.9810028076172,169.35400390625 C182.10299682617188,168.47300720214844 168.57899475097656,59.17599868774414 168.57899475097656,59.17599868774414z"></path></g></g><g style="display: block;" transform="matrix(1,0,0,1,256,256)" opacity="1"><g opacity="1" transform="matrix(1,0,0,1,0,0)"><path fill="url(#__lottie_element_31)" fill-opacity="1" d=" M38.5369987487793,114.56800079345703 C38.5369987487793,114.56800079345703 13.359999656677246,146.1649932861328 16.73699951171875,172.33799743652344 C20.11400032043457,198.51100158691406 20.7450008392334,199.947998046875 20.7450008392334,199.947998046875 C20.7450008392334,199.947998046875 0.5429999828338623,217.572998046875 -61.935001373291016,208.28599548339844 C-124.41300201416016,198.99899291992188 -150.58700561523438,178.73599243164062 -155.6529998779297,166.0709991455078 C-160.718994140625,153.406005859375 -145.52099609375,119.63400268554688 -152.27499389648438,95.14900207519531 C-159.0290069580078,70.66400146484375 -171.947998046875,36.2130012512207 -171.947998046875,36.2130012512207 C-171.947998046875,36.2130012512207 -136.23399353027344,-34.87300109863281 -75.44400024414062,-20.520000457763672 C-14.654000282287598,-6.166999816894531 38.5369987487793,114.56800079345703 38.5369987487793,114.56800079345703z"></path></g><g opacity="1" transform="matrix(1,0,0,1,0,0)"><path stroke-linecap="round" stroke-linejoin="round" fill-opacity="0" stroke="rgb(188,80,51)" stroke-opacity="1" stroke-width="8.34" d=" M-155.6529998779297,166.0709991455078 C-155.6529998779297,166.0709991455078 -149.19000244140625,127.44999694824219 -151.59500122070312,107.41000366210938 C-154,87.37000274658203 -163.70799255371094,63.67900085449219 -167.71600341796875,55.66299819946289 C-171.7239990234375,47.64699935913086 -195.50399780273438,25.024999618530273 -195.50399780273438,25.024999618530273 C-195.50399780273438,25.024999618530273 -140.3719940185547,-7.216000080108643 -91.47599792480469,11.220000267028809 C-42.58000183105469,29.6560001373291 19.142000198364258,96.98899841308594 23.951000213623047,109.01300048828125 C28.760000228881836,121.03700256347656 17.975000381469727,144.2480010986328 16.73699951171875,159.51199340820312 C15.133999824523926,179.28399658203125 19.142000198364258,195.58399963378906 19.142000198364258,195.58399963378906"></path></g><g opacity="0.61" transform="matrix(1,0,0,1,0,0)"><path fill="rgb(206,98,50)" fill-opacity="1" d=" M-144.9149932861328,44.61899948120117 C-144.9149932861328,44.61899948120117 -132.08900451660156,74.01000213623047 -117.66100311279297,88.9729995727539 C-103.23300170898438,103.93599700927734 -47.12300109863281,139.2050018310547 -24.143999099731445,150.96200561523438 C-1.1649999618530273,162.718994140625 14.866999626159668,154.7030029296875 14.866999626159668,154.7030029296875 C14.866999626159668,154.7030029296875 18.072999954223633,140.8090057373047 18.072999954223633,140.8090057373047 C18.072999954223633,140.8090057373047 -11.852999687194824,140.8090057373047 -24.67799949645996,134.93099975585938 C-37.50299835205078,129.05299377441406 -87.73500061035156,96.98899841308594 -96.81999969482422,92.71399688720703 C-105.90499877929688,88.43900299072266 -129.41799926757812,61.71900177001953 -131.55599975585938,58.51300048828125 C-133.69400024414062,55.30699920654297 -144.9149932861328,44.61899948120117 -144.9149932861328,44.61899948120117z"></path></g></g><g style="display: block;" transform="matrix(1,0,0,1,256,256)" opacity="1"><g opacity="1" transform="matrix(1,0,0,1,0,0)"><path fill="url(#__lottie_element_34)" fill-opacity="1" d=" M-135.32899475097656,41.28300094604492 C-135.32899475097656,41.28300094604492 -127.54299926757812,78.05699920654297 -102.68599700927734,93.01100158691406 C-77.8290023803711,107.96499633789062 -50.391998291015625,120.38800048828125 -39.439998626708984,125.76000213623047 C-28.488000869750977,131.1320037841797 -7.498000144958496,150.28500366210938 17.98200035095215,150.11199951171875 C43.46200180053711,149.93899536132812 69.6709976196289,136.1790008544922 79.56400299072266,127.44000244140625 C89.45700073242188,118.70099639892578 98.18499755859375,72.2239990234375 98.13200378417969,59.810001373291016 C98.0790023803711,47.395999908447266 107.50399780273438,9.904000282287598 112.0199966430664,-0.1979999989271164 C116.53600311279297,-10.300000190734863 118,-43.26599884033203 103.697998046875,-58.138999938964844 C89.39600372314453,-73.01200103759766 85.4489974975586,-74.04499816894531 84.9990005493164,-91.7509994506836 C84.54900360107422,-109.45700073242188 75.10800170898438,-141.55499267578125 52.47600173950195,-162.00100708007812 C29.8439998626709,-182.44700622558594 -61.50400161743164,-251.74899291992188 -161.54400634765625,-190.88400268554688 C-261.5840148925781,-130.0189971923828 -229.16700744628906,-28.75 -210.24400329589844,3.5439999103546143 C-196.5,27 -196.68099975585938,28.62700080871582 -188.40199279785156,35.90999984741211 C-159.55299377441406,61.28799819946289 -135.32899475097656,41.28300094604492 -135.32899475097656,41.28300094604492z"></path></g><g opacity="1" transform="matrix(1,0,0,1,0,0)"><path stroke-linecap="round" stroke-linejoin="round" fill-opacity="0" stroke="rgb(188,80,51)" stroke-opacity="1" stroke-width="9.601" d=" M-140.8419952392578,40.310001373291016 C-140.8419952392578,40.310001373291016 -133.05599975585938,77.08399963378906 -108.1989974975586,92.03800201416016 C-83.34200286865234,106.99199676513672 -55.90399932861328,119.41600036621094 -44.95199966430664,124.78800201416016 C-34,130.16000366210938 -13.01099967956543,149.31300354003906 12.468999862670898,149.13999938964844 C37.94900131225586,148.9669952392578 66.00800323486328,138.4720001220703 75.9010009765625,129.73300170898438 C85.79399871826172,120.99400329589844 92.6729965209961,71.25199890136719 92.62000274658203,58.8380012512207 C92.56700134277344,46.42399978637695 101.99099731445312,8.930999755859375 106.50700378417969,-1.1710000038146973 C111.02300262451172,-11.27299976348877 112.48699951171875,-44.23899841308594 98.18499755859375,-59.11199951171875 C83.88300323486328,-73.98500061035156 79.93699645996094,-75.01799774169922 79.48699951171875,-92.7239990234375 C79.03700256347656,-110.43000030517578 69.59500122070312,-142.5279998779297 46.9630012512207,-162.9739990234375 C24.33099937438965,-183.4199981689453 -67.01699829101562,-252.7220001220703 -167.0570068359375,-191.85699462890625 C-267.09698486328125,-130.99200439453125 -230.31199645996094,-28.509000778198242 -212.4080047607422,4.334000110626221 C-195.37399291992188,35.58000183105469 -177.5,46 -169.2949981689453,50.30500030517578"></path></g><g opacity="0.38" transform="matrix(1,0,0,1,0,0)"><path fill="rgb(206,98,50)" fill-opacity="1" d=" M-129.14300537109375,61.013999938964844 C-129.14300537109375,61.013999938964844 -108.47699737548828,78.04299926757812 -96.82599639892578,83.08100128173828 C-85.17500305175781,88.11900329589844 -43.0099983215332,103.23400115966797 -32.46900177001953,110.51200103759766 C-21.92799949645996,117.79000091552734 -4.730000019073486,131.78599548339844 10.25,134.02499389648438 C25.229999542236328,136.26400756835938 52.071998596191406,128.59500122070312 63.233001708984375,122.5479965209961 C79.66400146484375,113.64600372314453 79.64600372314453,73.44100189208984 88.47599792480469,72.44499969482422 C88.47599792480469,72.44499969482422 82.55899810791016,107.9000015258789 74.23699951171875,123.57499694824219 C65.91500091552734,139.25 29.208999633789062,142.86000061035156 17.461999893188477,145.2209930419922 C-21,152.9499969482422 -85.51499938964844,98.83599853515625 -92.38700103759766,96.51699829101562 C-121.68399810791016,86.63200378417969 -129.14300537109375,61.013999938964844 -129.14300537109375,61.013999938964844z"></path></g></g><g style="display: block;" transform="matrix(1.1299998760223389,0,0,1.1299998760223389,255.34996032714844,259.8995361328125)" opacity="1"><g opacity="1" transform="matrix(1,0,0,1,0,0)"><g opacity="0.66" transform="matrix(1,0,0,1,0,0)"><path stroke-linecap="round" stroke-linejoin="round" fill-opacity="0" stroke="rgb(206,98,50)" stroke-opacity="1" stroke-width="8.471" d=" M-61.48899841308594,56.33700180053711 C-58.0359992980957,47.21200180053711 -61.96099853515625,38.40599822998047 -24.351999282836914,27.80699920654297"></path></g><g opacity="1" transform="matrix(1,0,0,1,0,0)"><path fill="rgb(255,255,255)" fill-opacity="1" d=" M-23.180999755859375,47.071998596191406 C0.5400000214576721,43.7239990234375 25.469999313354492,51.13199996948242 36.465999603271484,51.99700164794922 C47.49100112915039,52.86399841308594 53.654998779296875,49.37699890136719 55.43899917602539,51.979000091552734 C58.763999938964844,56.827999114990234 55.358001708984375,65.7229995727539 52.44599914550781,67.48100280761719 C1.3209999799728394,66.03299713134766 -27.5,82.38400268554688 -32.09700012207031,81.96700286865234 C-36.694000244140625,81.55000305175781 -46.902000427246094,50.41999816894531 -23.180999755859375,47.071998596191406z"></path></g><g opacity="0.35000000000000003" transform="matrix(1,0,0,1,0,0)"><path stroke-linecap="round" stroke-linejoin="round" fill-opacity="0" stroke="rgb(206,98,50)" stroke-opacity="1" stroke-width="8.471" d=" M-67.76000213623047,37.257999420166016 C-74.94100189208984,38.630001068115234 -78.83300018310547,47.095001220703125 -73.7040023803711,51.433998107910156"></path></g><g opacity="1" transform="matrix(1,0,0,1,0,0)"><path stroke-linecap="round" stroke-linejoin="round" fill-opacity="0" stroke="rgb(206,104,65)" stroke-opacity="1" stroke-width="8.471" d=" M7.751999855041504,88.63200378417969 C21.538000106811523,80.36599731445312 34.577999114990234,77.00800323486328 46.43299865722656,81.44000244140625"></path></g><g opacity="0.48" transform="matrix(1,0,0,1,0,0)"><path stroke-linecap="round" stroke-linejoin="round" fill-opacity="0" stroke="rgb(206,98,50)" stroke-opacity="1" stroke-width="8.471" d=" M47.33399963378906,17.083999633789062 C47.33399963378906,17.083999633789062 69.63600158691406,21.006999969482422 68.40699768066406,44.34600067138672"></path></g><g opacity="1" transform="matrix(1,0,0,1,0,0)"><path stroke-linecap="round" stroke-linejoin="round" fill-opacity="0" stroke="rgb(118,141,168)" stroke-opacity="1" stroke-width="7.059" d=" M-35.87900161743164,68.33599853515625 C-7.447000026702881,56.999000549316406 23.117000579833984,56.446998596191406 55.16899871826172,63.42900085449219"></path></g><g opacity="1" transform="matrix(1,0,0,1,0,0)"><path stroke-linecap="round" stroke-linejoin="round" fill-opacity="0" stroke="rgb(96,53,36)" stroke-opacity="1" stroke-width="7.059" d=" M-40.566001892089844,62.92900085449219 C-41.07899856567383,54.10300064086914 -36.124000549316406,48.652000427246094 -23.180999755859375,47.071998596191406 C0.5989999771118164,44.16899871826172 26.121999740600586,54.10499954223633 55.43899917602539,51.979000091552734 C56.75699996948242,54.736000061035156 56.18899917602539,64.94300079345703 53.277000427246094,66.70099639892578 C50.3650016784668,68.45899963378906 24.611000061035156,65.93000030517578 6.808000087738037,69.97200012207031 C-14.805999755859375,74.87899780273438 -27.5,82.38400268554688 -32.09700012207031,81.96700286865234 C-36.694000244140625,81.55000305175781 -40.263999938964844,68.12999725341797 -40.566001892089844,62.92900085449219z"></path></g></g></g><g style="display: block;" transform="matrix(1.1299998760223389,0,0,1.1299998760223389,255.3499298095703,259.8990173339844)" opacity="1"><g opacity="1" transform="matrix(1,0,0,1,0,0)"><g opacity="0.46" transform="matrix(1,0,0,1,0,0)"><path fill="rgb(188,88,53)" fill-opacity="1" d=" M-22.371000289916992,22.53700065612793 C-14.642000198364258,12.067000389099121 7.803999900817871,9.574999809265137 27.070999145507812,15.449000358581543 C40.72800064086914,19.613000869750977 47.33399963378906,2.36299991607666 47.33399963378906,2.36299991607666 C47.33399963378906,2.36299991607666 47.53200149536133,21.895000457763672 44.37099838256836,25.760000228881836 C41.209999084472656,29.625 15.699999809265137,29.155000686645508 -7.421000003814697,32.53300094604492 C-17.024999618530273,33.93600082397461 -22.371000289916992,22.53700065612793 -22.371000289916992,22.53700065612793z"></path></g><g opacity="1" transform="matrix(1,0,0,1,0,0)"><path stroke-linecap="round" stroke-linejoin="round" fill-opacity="0" stroke="rgb(188,80,51)" stroke-opacity="1" stroke-width="8.471" d=" M8.428999900817871,-52.70500183105469 C8.428999900817871,-52.70500183105469 16.253999710083008,-19.319000244140625 30.797000885009766,-13.135000228881836 C45.34000015258789,-6.951000213623047 49.731998443603516,-4.214000225067139 48.73400115966797,2.7730000019073486 C47.736000061035156,9.760000228881836 41.76300048828125,16.360000610351562 41.76300048828125,16.360000610351562 C41.76300048828125,16.360000610351562 45.73699951171875,24.6560001373291 32.612998962402344,26.27400016784668"></path></g><g opacity="1" transform="matrix(1,0,0,1,0,0)"><path stroke-linecap="round" stroke-linejoin="round" fill-opacity="0" stroke="rgb(188,80,51)" stroke-opacity="1" stroke-width="8.471" d=" M-7.454999923706055,27.827999114990234 C-24.0939998626709,28.20800018310547 -30.72599983215332,12.10099983215332 -25.35700035095215,8.942999839782715 C-23.256999969482422,7.708000183105469 -7.99399995803833,3.565000057220459 -7.99399995803833,3.565000057220459"></path></g><g opacity="1" transform="matrix(1,0,0,1,0,0)"><path stroke-linecap="round" stroke-linejoin="round" fill-opacity="0" stroke="rgb(153,68,35)" stroke-opacity="1" stroke-width="8.471" d=" M13.994999885559082,22.358999252319336 C13.994999885559082,22.358999252319336 2.4089999198913574,26.900999069213867 2.4089999198913574,26.900999069213867"></path></g></g></g><g style="display: block;" transform="matrix(1.1299998760223389,0,0,1.1299998760223389,255.35049438476562,259.90093994140625)" opacity="1"><g opacity="1" transform="matrix(1,0,0,1,0,0)"><g opacity="1" transform="matrix(1,0,0,1,0,0)"><g opacity="0.54" transform="matrix(1,0,0,1,0,0)"><path fill="url(#__lottie_element_51)" fill-opacity="1" d=" M-105.65699768066406,-52.095001220703125 C-58.428001403808594,-60.44499969482422 -48.72800064086914,-55.80099868774414 -43.09600067138672,-50.62200164794922"></path><path stroke-linecap="round" stroke-linejoin="round" fill-opacity="0" stroke="rgb(178,85,48)" stroke-opacity="1" stroke-width="8.837" d=" M-105.65699768066406,-52.095001220703125 C-58.428001403808594,-60.44499969482422 -48.72800064086914,-55.80099868774414 -43.09600067138672,-50.62200164794922"></path></g><g opacity="0.54" transform="matrix(1,0,0,1,0,0)"><path stroke-linecap="round" stroke-linejoin="round" fill-opacity="0" stroke="rgb(178,85,48)" stroke-opacity="1" stroke-width="8.358" d=" M50.361000061035156,-81.61000061035156 C50.361000061035156,-81.61000061035156 4.961999893188477,-70.95999908447266 8.70199966430664,-52.832000732421875"></path></g></g><g opacity="1" transform="matrix(1,0,0,1,0,0)"><g opacity="1" transform="matrix(1,0,0,1,0,0)"><g opacity="1" transform="matrix(1,0,0,1,0,0)"><path fill="rgb(255,255,255)" fill-opacity="1" d=" M55.56800079345703,-75.33100128173828 C48.29199981689453,-73.01300048828125 14.182000160217285,-65.06600189208984 17.44300079345703,-55.35100173950195 C18.985000610351562,-50.757999420166016 21.784000396728516,-50.8380012512207 25.238000869750977,-51.0880012512207 C28.691999435424805,-51.3380012512207 52.23500061035156,-55.018001556396484 57.14899826049805,-56.01100158691406 C70.48600006103516,-58.70600128173828 67.44400024414062,-79.11499786376953 55.56800079345703,-75.33100128173828z"></path></g><g opacity="1" transform="matrix(1,0,0,1,0,0)"><path fill="rgb(255,255,255)" fill-opacity="1" d=" M-103.66300201416016,-42.66600036621094 C-103.66300201416016,-42.66600036621094 -83.89700317382812,-46.20199966430664 -72.83499908447266,-47.38100051879883 C-58.07600021362305,-48.95399856567383 -50.28499984741211,-50.266998291015625 -44.77899932861328,-48.229000091552734 C-39.27299880981445,-46.191001892089844 -39.91999816894531,-44.47800064086914 -39.65999984741211,-40.763999938964844 C-39.400001525878906,-37.04999923706055 -47.63600158691406,-34.29999923706055 -48.77899932861328,-34.20600128173828 C-49.922000885009766,-34.11199951171875 -79.1719970703125,-25.072999954223633 -87.90399932861328,-23.941999435424805 C-96.63600158691406,-22.81100082397461 -102.78199768066406,-28.5310001373291 -103.4800033569336,-33.03900146484375 C-104.1780014038086,-37.547000885009766 -103.66300201416016,-42.66600036621094 -103.66300201416016,-42.66600036621094z"></path></g></g><g opacity="1" transform="matrix(1,0,0,1,0,0)"><path fill="rgb(25,10,7)" fill-opacity="1" d=" M-63.89699935913086,-43.64500045776367 C-63.89699935913086,-34.6609992980957 -72.46099853515625,-27.378000259399414 -83.0250015258789,-27.378000259399414 C-93.58899688720703,-27.378000259399414 -108.89099884033203,-37.70199966430664 -102.15399932861328,-43.64500045776367 C-101.197998046875,-44.487998962402344 -94.21199798583984,-45.242000579833984 -83.77799987792969,-46.35599899291992 C-73.27300262451172,-47.47700119018555 -63.89699935913086,-52.62900161743164 -63.89699935913086,-43.64500045776367z"></path></g><g opacity="1" transform="matrix(1,0,0,1,0,0)"><path fill="rgb(25,10,7)" fill-opacity="1" d=" M48.46500015258789,-63.97800064086914 C48.46500015258789,-57.07400131225586 41.11399841308594,-51.47700119018555 32.047000885009766,-51.47700119018555 C22.979999542236328,-51.47700119018555 21.375999450683594,-53.92100143432617 19.017000198364258,-60.40999984741211 C18.415000915527344,-62.06700134277344 23.253000259399414,-64.29199981689453 31.516000747680664,-67.66999816894531 C39.909000396728516,-71.10099792480469 48.46500015258789,-70.88200378417969 48.46500015258789,-63.97800064086914z"></path></g><g opacity="1" transform="matrix(1,0,0,1,0,0)"><path fill="rgb(255,255,255)" fill-opacity="1" d=" M-59.64400100708008,-40.361000061035156 C-59.32899856567383,-38.683998107910156 -62.14099884033203,-36.707000732421875 -65.927001953125,-35.94599914550781 C-69.71299743652344,-35.185001373291016 -73.03800201416016,-35.92900085449219 -73.35299682617188,-37.60599899291992 C-73.66799926757812,-39.28300094604492 -70.8550033569336,-41.25899887084961 -67.06900024414062,-42.02000045776367 C-63.28300094604492,-42.78099822998047 -59.95899963378906,-42.03799819946289 -59.64400100708008,-40.361000061035156z"></path></g><g opacity="1" transform="matrix(1,0,0,1,0,0)"><path fill="rgb(255,255,255)" fill-opacity="1" d=" M54.486000061035156,-66.08999633789062 C54.78900146484375,-64.60099792480469 52.08300018310547,-62.845001220703125 48.44300079345703,-62.16999816894531 C44.803001403808594,-61.494998931884766 41.60599899291992,-62.154998779296875 41.303001403808594,-63.64400100708008 C41,-65.13300323486328 43.70500183105469,-66.88800048828125 47.345001220703125,-67.56300354003906 C50.98500061035156,-68.23799896240234 54.18299865722656,-67.5790023803711 54.486000061035156,-66.08999633789062z"></path></g><g opacity="1" transform="matrix(1,0,0,1,0,0)"><g opacity="1" transform="matrix(1,0,0,1,0,0)"><path stroke-linecap="round" stroke-linejoin="round" fill-opacity="0" stroke="rgb(86,47,34)" stroke-opacity="1" stroke-width="6.433" d=" M55.56800079345703,-75.33100128173828 C48.2239990234375,-73.23600006103516 15.01099967956543,-64.4020004272461 17.44300079345703,-55.35100173950195 C18.700000762939453,-50.672000885009766 21.784000396728516,-50.8380012512207 25.238000869750977,-51.0880012512207 C28.691999435424805,-51.3380012512207 52.21099853515625,-55.14500045776367 57.14899826049805,-56.01100158691406 C69.98899841308594,-58.26300048828125 66.50399780273438,-78.45099639892578 55.56800079345703,-75.33100128173828z"></path></g><g opacity="1" transform="matrix(1,0,0,1,0,0)"><path stroke-linecap="round" stroke-linejoin="round" fill-opacity="0" stroke="rgb(86,47,34)" stroke-opacity="1" stroke-width="6.801" d=" M-103.66300201416016,-42.66600036621094 C-103.66300201416016,-42.66600036621094 -83.89700317382812,-46.20199966430664 -72.83499908447266,-47.38100051879883 C-58.07600021362305,-48.95399856567383 -50.28499984741211,-50.266998291015625 -44.77899932861328,-48.229000091552734 C-39.27299880981445,-46.191001892089844 -39.91999816894531,-44.47800064086914 -39.65999984741211,-40.763999938964844 C-39.400001525878906,-37.04999923706055 -47.63600158691406,-34.29999923706055 -48.77899932861328,-34.20600128173828 C-49.922000885009766,-34.11199951171875 -79.1719970703125,-25.072999954223633 -87.90399932861328,-23.941999435424805 C-96.63600158691406,-22.81100082397461 -102.78199768066406,-28.5310001373291 -103.4800033569336,-33.03900146484375 C-104.1780014038086,-37.547000885009766 -103.66300201416016,-42.66600036621094 -103.66300201416016,-42.66600036621094z"></path></g></g></g><g opacity="1" transform="matrix(1,0,0,1,0,0)"><g opacity="1" transform="matrix(1,0,0,1,0,0)"><path fill="url(#__lottie_element_52)" fill-opacity="1" d=" M-110.98699951171875,-13.449000358581543 C-110.98699951171875,-13.449000358581543 -77.1259994506836,-31.23900032043457 -40.70100021362305,-29.788000106811523"></path><path stroke-linecap="round" stroke-linejoin="round" fill-opacity="0" stroke="rgb(188,80,51)" stroke-opacity="1" stroke-width="8.276" d=" M-110.98699951171875,-13.449000358581543 C-110.98699951171875,-13.449000358581543 -77.1259994506836,-31.23900032043457 -40.70100021362305,-29.788000106811523"></path></g><g opacity="1" transform="matrix(1,0,0,1,0,0)"><path fill="url(#__lottie_element_53)" fill-opacity="1" d=" M25.420000076293945,-42.89099884033203 C25.420000076293945,-42.89099884033203 42.64699935913086,-54.70100021362305 77.49400329589844,-53.35599899291992"></path><path stroke-linecap="round" stroke-linejoin="round" fill-opacity="0" stroke="rgb(188,80,51)" stroke-opacity="1" stroke-width="8.358" d=" M25.420000076293945,-42.89099884033203 C25.420000076293945,-42.89099884033203 42.64699935913086,-54.70100021362305 77.49400329589844,-53.35599899291992"></path></g><g opacity="0.49" transform="matrix(1,0,0,1,0,0)"><path stroke-linecap="round" stroke-linejoin="round" fill-opacity="0" stroke="rgb(206,98,50)" stroke-opacity="1" stroke-width="8.276" d=" M-73.11799621582031,-12.685999870300293 C-73.11799621582031,-12.685999870300293 -62.768001556396484,-18.125999450683594 -57.215999603271484,-19.45400047302246 C-38.62099838256836,-23.902999877929688 -41.59400177001953,-28.933000564575195 -41.59400177001953,-28.933000564575195"></path></g></g></g></g><g style="display: block;" transform="matrix(1.1299998760223389,0,0,1.1299998760223389,255.34933471679688,259.89971923828125)" opacity="1"><g opacity="1" transform="matrix(1,0,0,1,0,0)"><g opacity="1" transform="matrix(1,0,0,1,0,0)"><path stroke-linecap="round" stroke-linejoin="miter" fill-opacity="0" stroke-miterlimit="10" stroke="rgb(117,31,11)" stroke-opacity="1" stroke-width="11.295" d=" M-36.78300094604492,-79.03800201416016 C-72.41400146484375,-62.43299865722656 -91.96399688720703,-93.97100067138672 -124.46900177001953,-77.25700378417969"></path></g><g opacity="1" transform="matrix(1,0,0,1,0,0)"><path stroke-linecap="round" stroke-linejoin="miter" fill-opacity="0" stroke-miterlimit="10" stroke="rgb(117,31,11)" stroke-opacity="1" stroke-width="10.884" d=" M0.2150000035762787,-85.2300033569336 C0.2150000035762787,-85.2300033569336 3.4619998931884766,-76.56700134277344 13.406999588012695,-78.94300079345703 C30.226999282836914,-82.96099853515625 38.4379997253418,-110.43800354003906 67.59600067138672,-100.14099884033203"></path></g><g opacity="0.35000000000000003" transform="matrix(1,0,0,1,0,0)"><path stroke-linecap="round" stroke-linejoin="round" fill-opacity="0" stroke="rgb(178,85,48)" stroke-opacity="1" stroke-width="8.471" d=" M-15.076000213623047,-104.2300033569336 C-8.96500015258789,-94.24400329589844 -9.01099967956543,-85.93299865722656 -15.105999946594238,-79.2699966430664"></path></g><g opacity="0.6" transform="matrix(1,0,0,1,0,0)"><path stroke-linecap="round" stroke-linejoin="round" fill-opacity="0" stroke="rgb(206,104,65)" stroke-opacity="1" stroke-width="8.471" d=" M-101.52799987792969,-121.69599914550781 C-101.52799987792969,-121.69599914550781 -72.5459976196289,-135.45899963378906 -51.00899887084961,-137.48899841308594 C-29.472000122070312,-139.5189971923828 -22.632999420166016,-129.59800720214844 -13.725000381469727,-132.58200073242188 C-4.816999912261963,-135.5659942626953 4.61899995803833,-148.03700256347656 11.401000022888184,-148.93899536132812 C18.183000564575195,-149.84100341796875 38.14799880981445,-145.66700744628906 38.14799880981445,-145.66700744628906"></path></g><g opacity="0.43" transform="matrix(1,0,0,1,0,0)"><path stroke-linecap="round" stroke-linejoin="round" fill-opacity="0" stroke="rgb(206,104,65)" stroke-opacity="1" stroke-width="8.471" d=" M-88.29299926757812,-154.66400146484375 C-88.29299926757812,-154.66400146484375 -66.2300033569336,-158.30799865722656 -51.779998779296875,-156.6510009765625 C-41.37799835205078,-155.45799255371094 -31.139999389648438,-154.48500061035156 -26.694000244140625,-154.66400146484375 C-16.07200050354004,-155.0919952392578 -11.85099983215332,-162.1320037841797 -5.619999885559082,-165.29600524902344 C0.6110000014305115,-168.4600067138672 15.182999610900879,-171.29299926757812 15.182999610900879,-171.29299926757812"></path></g></g></g><g style="display: block;" transform="matrix(1,0,0,1,256.41802978515625,262.91998291015625)" opacity="1"><g opacity="1" transform="matrix(1,0,0,1,0,0)"><path fill="url(#__lottie_element_42)" fill-opacity="1" d=" M101.86399841308594,124.01499938964844 C91.36299896240234,173.68299865722656 123.14800262451172,172.65899658203125 123.14800262451172,172.65899658203125 C123.14800262451172,172.65899658203125 185.1490020751953,163.65199279785156 157.06300354003906,95.94599914550781 C128.9770050048828,28.239999771118164 109.91899871826172,72.3740005493164 109.91899871826172,72.3740005493164"></path><path stroke-linecap="round" stroke-linejoin="round" fill-opacity="0" stroke="rgb(188,80,51)" stroke-opacity="1" stroke-width="8.649" d=" M101.86399841308594,124.01499938964844 C91.36299896240234,173.68299865722656 123.14800262451172,172.65899658203125 123.14800262451172,172.65899658203125 C123.14800262451172,172.65899658203125 185.1490020751953,163.65199279785156 157.06300354003906,95.94599914550781 C128.9770050048828,28.239999771118164 109.91899871826172,72.3740005493164 109.91899871826172,72.3740005493164"></path></g><g opacity="1" transform="matrix(1,0,0,1,0,0)"><path fill="url(#__lottie_element_43)" fill-opacity="1" d=" M122.36699676513672,60.31800079345703 C122.36699676513672,60.31800079345703 189.5800018310547,59.7130012512207 207.30599975585938,58.334999084472656 C241.6649932861328,55.66299819946289 241.86000061035156,93.66699981689453 222.38400268554688,95.94599914550781 C242.59500122070312,98.96299743652344 239.9709930419922,134.26800537109375 228.03900146484375,137.1060028076172 C244.26499938964844,145.71800231933594 240.447998046875,178.87600708007812 219.4340057373047,182.27200317382812 C227.08999633789062,199.86900329589844 213.6699981689453,214.00799560546875 187.96800231933594,204.63999938964844 C181.26499938964844,202.19700622558594 126.72699737548828,181.1529998779297 123.0469970703125,171.39999389648438 C119.02799987792969,160.7469940185547 125.51100158691406,155.1999969482422 125.51100158691406,155.1999969482422 C117.00800323486328,147.6750030517578 117.40899658203125,139.20399475097656 125.34700012207031,129.93299865722656 C125.34700012207031,129.93299865722656 118.1969985961914,119.96199798583984 124.15399932861328,107.86799621582031 C130.11099243164062,95.77400207519531 122.36699676513672,60.31800079345703 122.36699676513672,60.31800079345703z"></path><path stroke-linecap="round" stroke-linejoin="round" fill-opacity="0" stroke="rgb(188,80,51)" stroke-opacity="1" stroke-width="8.649" d=" M122.36699676513672,60.31800079345703 C122.36699676513672,60.31800079345703 189.5800018310547,59.7130012512207 207.30599975585938,58.334999084472656 C241.6649932861328,55.66299819946289 241.86000061035156,93.66699981689453 222.38400268554688,95.94599914550781 C242.59500122070312,98.96299743652344 239.9709930419922,134.26800537109375 228.03900146484375,137.1060028076172 C244.26499938964844,145.71800231933594 240.447998046875,178.87600708007812 219.4340057373047,182.27200317382812 C227.08999633789062,199.86900329589844 213.6699981689453,214.00799560546875 187.96800231933594,204.63999938964844 C181.26499938964844,202.19700622558594 126.72699737548828,181.1529998779297 123.0469970703125,171.39999389648438 C119.02799987792969,160.7469940185547 125.51100158691406,155.1999969482422 125.51100158691406,155.1999969482422 C117.00800323486328,147.6750030517578 117.40899658203125,139.20399475097656 125.34700012207031,129.93299865722656 C125.34700012207031,129.93299865722656 118.1969985961914,119.96199798583984 124.15399932861328,107.86799621582031 C130.11099243164062,95.77400207519531 122.36699676513672,60.31800079345703 122.36699676513672,60.31800079345703z"></path></g><g opacity="1" transform="matrix(1,0,0,1,0,0)"><path stroke-linecap="round" stroke-linejoin="miter" fill-opacity="0" stroke-miterlimit="10" stroke="rgb(155,63,27)" stroke-opacity="1" stroke-width="8.649" d=" M128.81199645996094,155.98399353027344 C149.55599975585938,163.9080047607422 169.5469970703125,170.13299560546875 187.66600036621094,172.14300537109375"></path></g><g opacity="1" transform="matrix(1,0,0,1,0,0)"><path stroke-linecap="round" stroke-linejoin="miter" fill-opacity="0" stroke-miterlimit="10" stroke="rgb(155,63,27)" stroke-opacity="1" stroke-width="8.649" d=" M129.76100158691406,124.7239990234375 C156,128.4770050048828 181.81100463867188,132.23599243164062 197.6300048828125,136.13699340820312"></path></g><g opacity="1" transform="matrix(1,0,0,1,0,0)"><path stroke-linecap="round" stroke-linejoin="miter" fill-opacity="0" stroke-miterlimit="10" stroke="rgb(155,63,27)" stroke-opacity="1" stroke-width="8.649" d=" M124.69300079345703,94.58899688720703 C149.2899932861328,92.45700073242188 173.06300354003906,91.13099670410156 194.07200622558594,92.5009994506836"></path></g><g opacity="1" transform="matrix(1,0,0,1,0,0)"><path fill="url(#__lottie_element_44)" fill-opacity="1" d=" M149.322998046875,42.665000915527344 C136.31399536132812,41.10499954223633 108.05400085449219,51.492000579833984 106.68599700927734,73.14399719238281 C106.21199798583984,80.64900207519531 115.63600158691406,93.84100341796875 119.98200225830078,102.302001953125 C124.3280029296875,110.76300048828125 125.14600372314453,128.14300537109375 133.14700317382812,127.18800354003906 C171.74600219726562,122.5790023803711 146.54400634765625,72.49099731445312 146.54400634765625,72.49099731445312 C146.54400634765625,72.49099731445312 147.17599487304688,58.17100143432617 167.73199462890625,57.1349983215332 C164.19700622558594,49.84000015258789 155.13499450683594,43.36199951171875 149.322998046875,42.665000915527344z"></path><path stroke-linecap="round" stroke-linejoin="round" fill-opacity="0" stroke="rgb(188,80,51)" stroke-opacity="1" stroke-width="8.649" d=" M149.322998046875,42.665000915527344 C136.31399536132812,41.10499954223633 108.05400085449219,51.492000579833984 106.68599700927734,73.14399719238281 C106.21199798583984,80.64900207519531 115.63600158691406,93.84100341796875 119.98200225830078,102.302001953125 C124.3280029296875,110.76300048828125 125.14600372314453,128.14300537109375 133.14700317382812,127.18800354003906 C171.74600219726562,122.5790023803711 146.54400634765625,72.49099731445312 146.54400634765625,72.49099731445312 C146.54400634765625,72.49099731445312 147.17599487304688,58.17100143432617 167.73199462890625,57.1349983215332 C164.19700622558594,49.84000015258789 155.13499450683594,43.36199951171875 149.322998046875,42.665000915527344z"></path></g><g opacity="0.46" transform="matrix(1,0,0,1,0,0)"><path fill="rgb(193,103,72)" fill-opacity="1" d=" M207.34300231933594,60.08000183105469 C207.34300231933594,60.08000183105469 216.0540008544922,69.83399963378906 212.47300720214844,79.0770034790039 C208.89199829101562,88.31999969482422 206.9969940185547,91.83899688720703 209.1199951171875,96.64800262451172 C211.2429962158203,101.45700073242188 222.92599487304688,109.26200103759766 221.052001953125,118.9010009765625 C219.17799377441406,128.5399932861328 208.05999755859375,134.59800720214844 210.33900451660156,141.06199645996094 C212.6179962158203,147.5260009765625 221.59100341796875,150.2050018310547 220.71600341796875,158.63699340820312 C219.84100341796875,167.06900024414062 205.38600158691406,175.11399841308594 205.6699981689453,180.09300231933594 C206.5229949951172,195.04100036621094 187.29200744628906,205.57400512695312 187.29200744628906,205.57400512695312 C204.46299743652344,206.63400268554688 224.3300018310547,210.91600036621094 216.86000061035156,182.51499938964844 C228.99899291992188,182.9320068359375 246.41200256347656,156.4530029296875 227.08999633789062,137.60800170898438 C241.6300048828125,124.12899780273438 240.09500122070312,111.3219985961914 224.38099670410156,99.10600280761719 C244.69400024414062,73.88099670410156 235.86300659179688,62.354000091552734 207.34300231933594,60.08000183105469z"></path></g><g opacity="0.51" transform="matrix(1,0,0,1,0,0)"><path stroke-linecap="round" stroke-linejoin="round" fill-opacity="0" stroke="rgb(178,85,48)" stroke-opacity="1" stroke-width="8.649" d=" M118.59200286865234,100.03299713134766 C118.59200286865234,100.03299713134766 124.61900329589844,97.01899719238281 127.63200378417969,98.5260009765625 C130.64500427246094,100.03299713134766 133.65899658203125,110.58000183105469 134.03599548339844,115.0999984741211 C134.41299438476562,119.62000274658203 129.51600646972656,121.50399780273438 129.51600646972656,121.50399780273438"></path></g></g><g style="display: block;" transform="matrix(1,0,0,1,256,256)" opacity="1"><g opacity="1" transform="matrix(1,0,0,1,0,0)"><path fill="url(#__lottie_element_22)" fill-opacity="1" d="M0 0"></path><path stroke-linecap="round" stroke-linejoin="round" fill-opacity="0" stroke="rgb(136,179,204)" stroke-opacity="1" stroke-width="15" d="M0 0"></path></g><g opacity="1" transform="matrix(1,0,0,1,0,0)"><path fill="url(#__lottie_element_23)" fill-opacity="1" d="M0 0"></path><path stroke-linecap="round" stroke-linejoin="round" fill-opacity="0" stroke="rgb(136,179,204)" stroke-opacity="1" stroke-width="15" d="M0 0"></path></g><g opacity="1" transform="matrix(1,0,0,1,0,0)"><path fill="url(#__lottie_element_24)" fill-opacity="1" d="M0 0"></path><path stroke-linecap="round" stroke-linejoin="round" fill-opacity="0" stroke="rgb(136,179,204)" stroke-opacity="1" stroke-width="15" d="M0 0"></path></g><g opacity="1" transform="matrix(1,0,0,1,0,0)"><path fill="url(#__lottie_element_25)" fill-opacity="1" d="M0 0"></path><path stroke-linecap="round" stroke-linejoin="round" fill-opacity="0" stroke="rgb(136,179,204)" stroke-opacity="1" stroke-width="15" d="M0 0"></path></g></g><g style="display: none;"><g><path fill="url(#__lottie_element_18)"></path><path stroke-linecap="round" stroke-linejoin="round" fill-opacity="0"></path></g></g><g style="display: none;"><g><path fill="url(#__lottie_element_14)"></path><path stroke-linecap="round" stroke-linejoin="round" fill-opacity="0"></path></g></g><g style="display: none;"><g><path fill="url(#__lottie_element_10)"></path><path stroke-linecap="round" stroke-linejoin="round" fill-opacity="0"></path></g></g><g style="display: none;"><g><path fill="url(#__lottie_element_6)"></path><path stroke-linecap="round" stroke-linejoin="round" fill-opacity="0"></path></g></g></g></svg>