<svg xmlns="http://www.w3.org/2000/svg" xmlns:xlink="http://www.w3.org/1999/xlink" viewBox="0 0 512 512" width="512" height="512" style="width: 100%; height: 100%; transform: translate3d(0,0,0); content-visibility: visible;" preserveAspectRatio="xMidYMid meet"><defs><clipPath id="__lottie_element_2"><rect width="512" height="512" x="0" y="0"></rect></clipPath><clipPath id="__lottie_element_7"><path d="M0,0 L512,0 L512,512 L0,512z"></path></clipPath><radialGradient id="__lottie_element_17" spreadMethod="pad" gradientUnits="userSpaceOnUse" cx="-210.81100463867188" cy="177.64500427246094" r="470.5834267733284" fx="-210.81100463867188" fy="177.64500427246094"><stop offset="0%" stop-color="rgb(245,146,103)"></stop><stop offset="48%" stop-color="rgb(247,185,152)"></stop><stop offset="100%" stop-color="rgb(249,223,201)"></stop></radialGradient></defs><g clip-path="url(#__lottie_element_2)"><g clip-path="url(#__lottie_element_7)" style="display: block;" transform="matrix(0.9257799983024597,0,0,0.9257799983024597,19.000320434570312,19.000320434570312)" opacity="1"><g style="display: block;" transform="matrix(1,0,0,1,88.36700439453125,374.39300537109375)" opacity="1"><g opacity="1" transform="matrix(1,0,0,1,55.27199935913086,62.736000061035156)"><path fill="rgb(244,152,110)" fill-opacity="1" d=" M26.097999572753906,-3.180000066757202 C26.097999572753906,-3.180000066757202 24.420000076293945,12.36400032043457 22.299999237060547,22.608999252319336 C21.073999404907227,28.53700065612793 17.000999450683594,47.691001892089844 17.000999450683594,47.691001892089844 C17.000999450683594,47.691001892089844 4.989999771118164,50.87099838256836 -10.906999588012695,46.63199996948242 C-22.35099983215332,43.58000183105469 -26.097999572753906,36.7400016784668 -26.097999572753906,36.7400016784668 C-26.097999572753906,36.7400016784668 -16.02899932861328,-0.7940000295639038 -15.234999656677246,-14.307000160217285 C-14.4399995803833,-27.81999969482422 -9.670999526977539,-50.869998931884766 -9.670999526977539,-50.869998931884766 C-9.670999526977539,-50.869998931884766 26.097999572753906,-3.180000066757202 26.097999572753906,-3.180000066757202z"></path></g><g opacity="1" transform="matrix(1,0,0,1,36.59299850463867,63.44200134277344)"><path fill="rgb(252,210,180)" fill-opacity="1" d=" M7.419000148773193,-34.266998291015625 C7.419000148773193,-34.266998291015625 -1.4140000343322754,6.00600004196167 -3.5329999923706055,17.663999557495117 C-5.6529998779296875,29.32200050354004 -7.419000148773193,34.266998291015625 -7.419000148773193,34.266998291015625"></path></g><g opacity="1" transform="matrix(1,0,0,1,36.59299850463867,63.44200134277344)"><path stroke-linecap="round" stroke-linejoin="round" fill-opacity="0" stroke="rgb(183,99,57)" stroke-opacity="1" stroke-width="11.67" d=" M7.419000148773193,-34.266998291015625 C7.419000148773193,-34.266998291015625 -1.4140000343322754,6.00600004196167 -3.5329999923706055,17.663999557495117 C-5.6529998779296875,29.32200050354004 -7.419000148773193,34.266998291015625 -7.419000148773193,34.266998291015625"></path></g><g opacity="1" transform="matrix(1,0,0,1,75.65299987792969,84.0530014038086)"><path fill="rgb(252,210,180)" fill-opacity="1" d=" M4.361999988555908,-21.016000747680664 C4.361999988555908,-21.016000747680664 0.5040000081062317,-0.7260000109672546 -1.6080000400543213,9.24899959564209 C-3.7200000286102295,19.224000930786133 -4.361999988555908,21.016000747680664 -4.361999988555908,21.016000747680664"></path></g><g opacity="1" transform="matrix(1,0,0,1,75.65299987792969,84.0530014038086)"><path stroke-linecap="round" stroke-linejoin="round" fill-opacity="0" stroke="rgb(183,99,57)" stroke-opacity="1" stroke-width="11.67" d=" M4.361999988555908,-21.016000747680664 C4.361999988555908,-21.016000747680664 0.5040000081062317,-0.7260000109672546 -1.6080000400543213,9.24899959564209 C-3.7200000286102295,19.224000930786133 -4.361999988555908,21.016000747680664 -4.361999988555908,21.016000747680664"></path></g></g><g style="display: block;" transform="matrix(0.9997929334640503,0.020349133759737015,-0.020349133759737015,0.9997929334640503,103.10490417480469,21.90252685546875)" opacity="1"><g opacity="1" transform="matrix(1,0,0,1,167.3040008544922,225.6320037841797)"><path fill="url(#__lottie_element_17)" fill-opacity="1" d=" M118.68399810791016,-90.88800048828125 C118.68399810791016,-90.88800048828125 138.12899780273438,-133.25 109.2969970703125,-162.16400146484375 C80.46399688720703,-191.07899475097656 -43.584999084472656,-196.45700073242188 -79.12300109863281,-189.73300170898438 C-114.66100311279297,-183.00799560546875 -120.0260009765625,-166.197998046875 -122.70800018310547,-122.49099731445312 C-125.38999938964844,-78.78299713134766 -134.1060028076172,-17.5939998626709 -136.1179962158203,69.81999969482422 C-138.12899780273438,157.23500061035156 -131.26800537109375,183.00900268554688 -107.79900360107422,189.73300170898438 C-84.33100128173828,196.45700073242188 -43.152000427246094,189.20399475097656 -34.198001861572266,178.7530059814453 C-25.395999908447266,168.4810028076172 -32.85599899291992,158.91600036621094 -47.608001708984375,158.24400329589844 C-62.36000061035156,157.5709991455078 -74.42900085449219,157.5709991455078 -80.46399688720703,143.4499969482422 C-82.31800079345703,139.11300659179688 -83.50700378417969,126.36399841308594 -78.11699676513672,125.2959976196289 C-72.14399719238281,124.11199951171875 -59.2400016784668,128.88999938964844 -47.608001708984375,131.00999450683594 C-25.481000900268555,135.0449981689453 13.282999992370605,139.1280059814453 20.966999053955078,141.51199340820312 C23.832000732421875,142.40199279785156 45.34199905395508,153.16900634765625 51.17100143432617,144.6909942626953 C62.04999923706055,128.8679962158203 40.902000427246094,126.97599792480469 42.24300003051758,122.94100189208984 C42.51900100708008,122.11299896240234 47.82600021362305,118.99600219726562 50.11199951171875,112.54299926757812 C52.91699981689453,104.625 57.729000091552734,90.49700164794922 61.41600036621094,78.2760009765625 C69.36299896240234,51.941001892089844 72.4020004272461,23.413999557495117 74.22200012207031,21.224000930786133 C77.57499694824219,17.18899917602539 93.29900360107422,35.529998779296875 104.427001953125,24.402000427246094 C109.83899688720703,18.990999221801758 110.78700256347656,9.300999641418457 104.16300201416016,6.38700008392334 C99.36100006103516,4.27400016784668 70.24800109863281,-1.7389999628067017 66.00900268554688,-30.882999420166016 C65.13200378417969,-36.909000396728516 118.68399810791016,-90.88800048828125 118.68399810791016,-90.88800048828125z"></path><path stroke-linecap="butt" stroke-linejoin="miter" fill-opacity="0" stroke-miterlimit="10" stroke="rgb(183,99,57)" stroke-opacity="1" stroke-width="11.67" d=" M118.68399810791016,-90.88800048828125 C118.68399810791016,-90.88800048828125 138.12899780273438,-133.25 109.2969970703125,-162.16400146484375 C80.46399688720703,-191.07899475097656 -43.584999084472656,-196.45700073242188 -79.12300109863281,-189.73300170898438 C-114.66100311279297,-183.00799560546875 -120.0260009765625,-166.197998046875 -122.70800018310547,-122.49099731445312 C-125.38999938964844,-78.78299713134766 -134.1060028076172,-17.5939998626709 -136.1179962158203,69.81999969482422 C-138.12899780273438,157.23500061035156 -131.26800537109375,183.00900268554688 -107.79900360107422,189.73300170898438 C-84.33100128173828,196.45700073242188 -43.152000427246094,189.20399475097656 -34.198001861572266,178.7530059814453 C-25.395999908447266,168.4810028076172 -32.85599899291992,158.91600036621094 -47.608001708984375,158.24400329589844 C-62.36000061035156,157.5709991455078 -74.42900085449219,157.5709991455078 -80.46399688720703,143.4499969482422 C-82.31800079345703,139.11300659179688 -83.50700378417969,126.36399841308594 -78.11699676513672,125.2959976196289 C-72.14399719238281,124.11199951171875 -59.2400016784668,128.88999938964844 -47.608001708984375,131.00999450683594 C-25.481000900268555,135.0449981689453 13.282999992370605,139.1280059814453 20.966999053955078,141.51199340820312 C23.832000732421875,142.40199279785156 45.34199905395508,153.16900634765625 51.17100143432617,144.6909942626953 C62.04999923706055,128.8679962158203 40.902000427246094,126.97599792480469 42.24300003051758,122.94100189208984 C42.51900100708008,122.11299896240234 47.82600021362305,118.99600219726562 50.11199951171875,112.54299926757812 C52.91699981689453,104.625 57.729000091552734,90.49700164794922 61.41600036621094,78.2760009765625 C69.36299896240234,51.941001892089844 72.4020004272461,23.413999557495117 74.22200012207031,21.224000930786133 C77.57499694824219,17.18899917602539 93.29900360107422,35.529998779296875 104.427001953125,24.402000427246094 C109.83899688720703,18.990999221801758 110.78700256347656,9.300999641418457 104.16300201416016,6.38700008392334 C99.36100006103516,4.27400016784668 70.24800109863281,-1.7389999628067017 66.00900268554688,-30.882999420166016 C65.13200378417969,-36.909000396728516 118.68399810791016,-90.88800048828125 118.68399810791016,-90.88800048828125z"></path></g><g opacity="1" transform="matrix(1,0,0,1,83.70500183105469,230.1230010986328)"><path fill="rgb(241,142,97)" fill-opacity="1" d=" M48.39699935913086,-190.99000549316406 C48.39699935913086,-190.99000549316406 22.235000610351562,-179.2570037841797 14.109000205993652,-162.3800048828125 C5.982999801635742,-145.50399780273438 -13.392999649047852,-57.994998931884766 -20.893999099731445,34.51499938964844 C-28.395000457763672,127.02400207519531 -16.68400001525879,163.61599731445312 -4.01800012588501,170.1529998779297 C15.359000205993652,180.1540069580078 39.91899871826172,174.64500427246094 39.91899871826172,174.64500427246094 C39.91899871826172,174.64500427246094 4.945000171661377,191.6020050048828 -27.770000457763672,177.0290069580078 C-44.39699935913086,169.6219940185547 -48.39699935913086,102.02100372314453 -45.89699935913086,81.39399719238281 C-44.625999450683594,70.91300201416016 -45.834999084472656,19.70400047302246 -40.770999908447266,-40.49399948120117 C-36.47600173950195,-91.54499816894531 -31.04199981689453,-144.89999389648438 -29.020000457763672,-155.5050048828125 C-25.790000915527344,-172.4429931640625 -24.405000686645508,-176.60000610351562 -5.6529998779296875,-184.1009979248047 C13.098999977111816,-191.6020050048828 48.39699935913086,-190.99000549316406 48.39699935913086,-190.99000549316406z"></path></g><g opacity="1" transform="matrix(1,0,0,1,51.0260009765625,401.3240051269531)"><path fill="rgb(243,151,108)" fill-opacity="1" d=" M11.128000259399414,21.195999145507812 C11.128000259399414,21.195999145507812 0.7950000166893005,18.281999588012695 2.9140000343322754,11.657999992370605 C4.506999969482422,6.681000232696533 15.10200023651123,9.27299976348877 15.10200023651123,9.27299976348877 C15.10200023651123,9.27299976348877 -2.8489999771118164,-6.135000228881836 -2.8489999771118164,-6.135000228881836 C-2.8489999771118164,-6.135000228881836 -8.477999687194824,-21.195999145507812 -8.477999687194824,-21.195999145507812 C-8.477999687194824,-21.195999145507812 -11.119000434875488,-5.093999862670898 -11.92300033569336,0.5299999713897705 C-12.72599983215332,6.1529998779296875 -15.10200023651123,14.836999893188477 -15.10200023651123,14.836999893188477 C-15.10200023651123,14.836999893188477 11.128000259399414,21.195999145507812 11.128000259399414,21.195999145507812z"></path></g></g><g style="display: block;" transform="matrix(0.9997929334640503,0.020349133759737015,-0.020349133759737015,0.9997929334640503,217.55995178222656,195.79859924316406)" opacity="1"><g opacity="1" transform="matrix(1,0,0,1,0,0)"><g opacity="1" transform="matrix(1,0,0,1,53.875,109.00900268554688)"><path fill="rgb(242,142,97)" fill-opacity="0.84" d=" M-7.418000221252441,-55.4109992980957 C-7.418000221252441,-55.4109992980957 -6.908999919891357,-34.70899963378906 -7.948999881744385,-23.617000579833984 C-9.538999557495117,-6.659999847412109 -19.606000900268555,-1.8910000324249268 -20.666000366210938,-0.3009999990463257 C-21.725000381469727,1.2890000343322754 -42.391998291015625,4.468999862670898 -39.742000579833984,20.895999908447266 C-36.59199905395508,40.42900085449219 -27.150999069213867,46.125999450683594 -13.373000144958496,51.42499923706055 C-4.921999931335449,54.67499923706055 -3.305000066757202,36.58700180053711 -3.305000066757202,36.58700180053711 C-3.305000066757202,36.58700180053711 41.332000732421875,-41.104000091552734 41.86199951171875,-44.28300094604492 C42.391998291015625,-47.46200180053711 21.19700050354004,-53.290000915527344 21.19700050354004,-53.290000915527344 C21.19700050354004,-53.290000915527344 -7.418000221252441,-55.4109992980957 -7.418000221252441,-55.4109992980957z"></path></g><g opacity="1" transform="matrix(1,0,0,1,72.13300323486328,97.18399810791016)"><path fill="rgb(248,199,170)" fill-opacity="1" d=" M24.00200080871582,-64.0459976196289 C24.00200080871582,-64.0459976196289 16.423999786376953,-71.18900299072266 -5.368000030517578,-60.46900177001953 C-11.625,-57.39099884033203 -20.214000701904297,-44.88399887084961 -20.214000701904297,-44.88399887084961 C-20.214000701904297,-44.88399887084961 -15.694000244140625,-36.64699935913086 -13.951000213623047,-34.03300094604492 C-12.208000183105469,-31.41900062561035 -5.581999778747559,-6.552000045776367 -8.984999656677246,2.7820000648498535 C-16.34600067138672,22.972999572753906 -29.200000762939453,22.165000915527344 -34.862998962402344,26.086000442504883 C-40.5260009765625,30.006999969482422 -40.090999603271484,39.590999603271484 -34.862998962402344,45.689998626708984 C-29.635000228881836,51.78900146484375 -18.913000106811523,64.84100341796875 -10.081999778747559,53.18299865722656 C-8.826000213623047,51.525001525878906 -7.625,48.02000045776367 -3.8589999675750732,41.446998596191406 C-0.6899999976158142,35.91699981689453 9.609999656677246,33.70800018310547 13.53600025177002,26.363000869750977 C24.736000061035156,5.40500020980835 37.65999984741211,-16.871000289916992 39.138999938964844,-29.690000534057617 C41.75299835205078,-52.34299850463867 24.00200080871582,-64.0459976196289 24.00200080871582,-64.0459976196289z"></path></g><g opacity="1" transform="matrix(1,0,0,1,72.13300323486328,97.18399810791016)"><path stroke-linecap="round" stroke-linejoin="round" fill-opacity="0" stroke="rgb(183,99,57)" stroke-opacity="1" stroke-width="12.643" d=" M23.604999542236328,-65.57599639892578 C23.604999542236328,-65.57599639892578 40.525001525878906,-56.435001373291016 37.9109992980957,-33.78200149536133 C36.43199920654297,-20.96299934387207 24.736000061035156,5.40500020980835 13.53600025177002,26.363000869750977 C9.609999656677246,33.70800018310547 5.264999866485596,36.652000427246094 2.0959999561309814,42.18199920654297 C-1.6699999570846558,48.755001068115234 -2.871999979019165,52.2599983215332 -4.127999782562256,53.917999267578125 C-12.958999633789062,65.57599639892578 -29.635000228881836,51.78900146484375 -34.862998962402344,45.689998626708984 C-40.090999603271484,39.590999603271484 -40.5260009765625,30.006999969482422 -34.862998962402344,26.086000442504883 C-29.200000762939453,22.165000915527344 -16.34600067138672,22.972999572753906 -8.984999656677246,2.7820000648498535 C-5.581999778747559,-6.552000045776367 -12.208000183105469,-31.41900062561035 -13.951000213623047,-34.03300094604492 C-15.694000244140625,-36.64699935913086 -19.31800079345703,-43.31999969482422 -19.31800079345703,-43.31999969482422"></path></g></g></g><g style="display: block;" transform="matrix(0.9997929334640503,0.020349133759737015,-0.020349133759737015,0.9997929334640503,133.96530151367188,69.32333374023438)" opacity="1"><g opacity="1" transform="matrix(1,0,0,1,0,0)"><g opacity="1" transform="matrix(1,0,0,1,259.1000061035156,117.58799743652344)"><path fill="rgb(179,197,242)" fill-opacity="1" d=" M-74.82599639892578,-33.03499984741211 C-72.97100067138672,-47.34199905395508 -70.74199676513672,-52.7760009765625 -59.1879997253418,-60.27399826049805 C-52.053001403808594,-64.90399932861328 -43.15999984741211,-69.31600189208984 -32.8650016784668,-71.70999908447266 C-4.765999794006348,-78.24500274658203 39.66899871826172,-57.98699951171875 57.3129997253418,-26.621000289916992 C74.95700073242188,4.745999813079834 75.48400115966797,31.531999588012695 66.46299743652344,46.56800079345703 C50.77899932861328,72.70700073242188 11.282999992370605,78.24600219726562 -38.74700164794922,55.71699905395508 C-58.909000396728516,46.637001037597656 -64.177001953125,15.309000015258789 -70.05799865722656,-4.948999881744385 C-71.80999755859375,-10.984000205993652 -75.48300170898438,-27.968000411987305 -74.82599639892578,-33.03499984741211z"></path><path stroke-linecap="round" stroke-linejoin="round" fill-opacity="0" stroke="rgb(76,79,114)" stroke-opacity="1" stroke-width="9.725" d=" M-74.82599639892578,-33.03499984741211 C-72.97100067138672,-47.34199905395508 -70.74199676513672,-52.7760009765625 -59.1879997253418,-60.27399826049805 C-52.053001403808594,-64.90399932861328 -43.15999984741211,-69.31600189208984 -32.8650016784668,-71.70999908447266 C-4.765999794006348,-78.24500274658203 39.66899871826172,-57.98699951171875 57.3129997253418,-26.621000289916992 C74.95700073242188,4.745999813079834 75.48400115966797,31.531999588012695 66.46299743652344,46.56800079345703 C50.77899932861328,72.70700073242188 11.282999992370605,78.24600219726562 -38.74700164794922,55.71699905395508 C-58.909000396728516,46.637001037597656 -64.177001953125,15.309000015258789 -70.05799865722656,-4.948999881744385 C-71.80999755859375,-10.984000205993652 -75.48300170898438,-27.968000411987305 -74.82599639892578,-33.03499984741211z"></path></g><g opacity="1" transform="matrix(1,0,0,1,261.47601318359375,118.30599975585938)"><path fill="rgb(255,255,255)" fill-opacity="1" d=" M-63.68899917602539,-20.5049991607666 C-65.22799682617188,-28.80299949645996 -60.512001037597656,-40.85900115966797 -53.09199905395508,-44.880001068115234 C-45.856998443603516,-48.79999923706055 -35.81399917602539,-53.34199905395508 -24.264999389648438,-56.066001892089844 C-0.7300000190734863,-61.617000579833984 35.231998443603516,-49.40399932861328 50.00899887084961,-22.759000778198242 C64.78700256347656,3.885999917984009 65.22799682617188,26.639999389648438 57.672000885009766,39.41299819946289 C44.5359992980957,61.617000579833984 -6.080999851226807,55.68000030517578 -30.44700050354004,47.185001373291016 C-47.96099853515625,41.07899856567383 -57.88100051879883,11.187000274658203 -62.80699920654297,-6.020999908447266 C-64.98899841308594,-13.642999649047852 -62.54399871826172,-14.333999633789062 -63.68899917602539,-20.5049991607666z"></path></g><g opacity="1" transform="matrix(1,0,0,1,0,0)"><g opacity="1" transform="matrix(1,0,0,1,278.39898681640625,144.97999572753906)"><path fill="rgb(81,189,244)" fill-opacity="1" d=" M-32.124000549316406,-25.04199981689453 C-24.718000411987305,-34.625999450683594 -18.183000564575195,-37.2400016784668 -1.628999948501587,-35.93299865722656 C23.243999481201172,-33.970001220703125 40.2869987487793,-8.456999778747559 33.316001892089844,13.76099967956543 C28.981000900268555,27.577999114990234 6.158999919891357,37.2400016784668 -16.4950008392334,23.298999786376953 C-39.14799880981445,9.357999801635742 -40.2869987487793,-14.477999687194824 -32.124000549316406,-25.04199981689453z"></path><path stroke-linecap="butt" stroke-linejoin="miter" fill-opacity="0" stroke-miterlimit="10" stroke="rgb(32,136,206)" stroke-opacity="1" stroke-width="9.454" d=" M-32.124000549316406,-25.04199981689453 C-24.718000411987305,-34.625999450683594 -18.183000564575195,-37.2400016784668 -1.628999948501587,-35.93299865722656 C23.243999481201172,-33.970001220703125 40.2869987487793,-8.456999778747559 33.316001892089844,13.76099967956543 C28.981000900268555,27.577999114990234 6.158999919891357,37.2400016784668 -16.4950008392334,23.298999786376953 C-39.14799880981445,9.357999801635742 -40.2869987487793,-14.477999687194824 -32.124000549316406,-25.04199981689453z"></path></g><g opacity="1" transform="matrix(1,0,0,1,289.51300048828125,151.83799743652344)"><path fill="rgb(0,0,0)" fill-opacity="1" d=" M-24.06999969482422,-7.940000057220459 C-22.844999313354492,-14.293000221252441 -17.53499984741211,-26.236000061035156 -0.10899999737739563,-23.621999740600586 C17.31599998474121,-21.007999420166016 24.84000015258789,-0.7730000019073486 17.43400001525879,12.732000350952148 C10.027999877929688,26.23699951171875 -9.590999603271484,23.329999923706055 -17.97100067138672,10.357999801635742 C-23.177000045776367,2.2990000247955322 -24.84000015258789,-3.947000026702881 -24.06999969482422,-7.940000057220459z"></path></g><g opacity="1" transform="matrix(1,0,0,1,261.7929992675781,129.10899353027344)"><path fill="rgb(255,255,255)" fill-opacity="1" d=" M8.22599983215332,0 C8.22599983215332,4.364999771118164 4.543000221252441,7.9039998054504395 0,7.9039998054504395 C-4.543000221252441,7.9039998054504395 -8.22599983215332,4.364999771118164 -8.22599983215332,0 C-8.22599983215332,-4.364999771118164 -4.543000221252441,-7.9039998054504395 0,-7.9039998054504395 C4.543000221252441,-7.9039998054504395 8.22599983215332,-4.364999771118164 8.22599983215332,0z"></path></g><g opacity="0.58" transform="matrix(1,0,0,1,281.0220031738281,139.61900329589844)"><path fill="rgb(255,255,255)" fill-opacity="1" d=" M4.701000213623047,0 C4.701000213623047,2.494999885559082 2.5959999561309814,4.517000198364258 0,4.517000198364258 C-2.5969998836517334,4.517000198364258 -4.701000213623047,2.494999885559082 -4.701000213623047,0 C-4.701000213623047,-2.494999885559082 -2.5969998836517334,-4.517000198364258 0,-4.517000198364258 C2.5959999561309814,-4.517000198364258 4.701000213623047,-2.494999885559082 4.701000213623047,0z"></path></g></g><g opacity="1" transform="matrix(1,0,0,1,218.32699584960938,77.6240005493164)"><path stroke-linecap="round" stroke-linejoin="round" fill-opacity="0" stroke="rgb(255,142,152)" stroke-opacity="1" stroke-width="7.78" d=" M-20.541000366210938,-20.09600067138672 C-20.541000366210938,-20.09600067138672 -9.517999649047852,-19.11199951171875 -8.211000442504883,-13.883999824523926 C-6.9039998054504395,-8.656999588012695 -7.776000022888184,-1.6859999895095825 -5.5980000495910645,1.3630000352859497 C-3.4189999103546143,4.413000106811523 9.21399974822998,11.817999839782715 10.520999908447266,12.689000129699707 C11.82800006866455,13.5600004196167 20.541000366210938,20.09600067138672 20.541000366210938,20.09600067138672"></path></g><g opacity="1" transform="matrix(1,0,0,1,223.4029998779297,57.858001708984375)"><path stroke-linecap="round" stroke-linejoin="round" fill-opacity="0" stroke="rgb(255,142,152)" stroke-opacity="1" stroke-width="5.835" d=" M7.188000202178955,8.930999755859375 C7.188000202178955,8.930999755859375 2.3959999084472656,-0.21799999475479126 1.524999976158142,-2.8310000896453857 C0.652999997138977,-5.445000171661377 -7.188000202178955,-8.930999755859375 -7.188000202178955,-8.930999755859375"></path></g><g opacity="1" transform="matrix(1,0,0,1,245.60499572753906,54.97600173950195)"><path stroke-linecap="round" stroke-linejoin="round" fill-opacity="0" stroke="rgb(255,142,152)" stroke-opacity="1" stroke-width="7.78" d=" M-8.074999809265137,-9.635000228881836 C-8.074999809265137,-9.635000228881836 0.6700000166893005,-4.742000102996826 4.156000137329102,0.050999999046325684 C7.640999794006348,4.8429999351501465 8.074999809265137,9.635000228881836 8.074999809265137,9.635000228881836"></path></g><g opacity="1" transform="matrix(1,0,0,1,214.4720001220703,134.31399536132812)"><path stroke-linecap="round" stroke-linejoin="round" fill-opacity="0" stroke="rgb(255,142,152)" stroke-opacity="1" stroke-width="7.78" d=" M-15.246999740600586,-0.4359999895095825 C-15.246999740600586,-0.4359999895095825 0.4350000023841858,-2.177999973297119 5.663000106811523,-1.305999994277954 C10.890999794006348,-0.4350000023841858 15.246999740600586,2.177999973297119 15.246999740600586,2.177999973297119"></path></g><g opacity="1" transform="matrix(1,0,0,1,215.53799438476562,97.36000061035156)"><path stroke-linecap="round" stroke-linejoin="round" fill-opacity="0" stroke="rgb(255,142,152)" stroke-opacity="1" stroke-width="4.863" d=" M-1.6779999732971191,-14.74899959564209 C-1.6779999732971191,-14.74899959564209 -7.684000015258789,0.44200000166893005 -4.151000022888184,3.621000051498413 C-1.3799999952316284,6.114999771118164 7.684000015258789,14.74899959564209 7.684000015258789,14.74899959564209"></path></g><g opacity="1" transform="matrix(1,0,0,1,259.1000061035156,117.58799743652344)"><path stroke-linecap="round" stroke-linejoin="round" fill-opacity="0" stroke="rgb(38,99,169)" stroke-opacity="1" stroke-width="9.725" d=" M-74.82599639892578,-33.03499984741211 C-72.97100067138672,-47.34199905395508 -70.74199676513672,-52.7760009765625 -59.1879997253418,-60.27399826049805 C-52.053001403808594,-64.90399932861328 -43.15999984741211,-69.31600189208984 -32.8650016784668,-71.70999908447266 C-4.765999794006348,-78.24500274658203 39.66899871826172,-57.98699951171875 57.3129997253418,-26.621000289916992 C74.95700073242188,4.745999813079834 75.48400115966797,31.531999588012695 66.46299743652344,46.56800079345703 C50.77899932861328,72.70700073242188 11.282999992370605,78.24600219726562 -38.74700164794922,55.71699905395508 C-58.909000396728516,46.637001037597656 -64.177001953125,15.309000015258789 -70.05799865722656,-4.948999881744385 C-71.80999755859375,-10.984000205993652 -75.48300170898438,-27.968000411987305 -74.82599639892578,-33.03499984741211z"></path></g></g><g opacity="0" transform="matrix(1,0,0,1,0,0)"><path fill="rgb(255,201,173)" fill-opacity="1" d=" M239.8730010986328,46.02299880981445 C190.8040008544922,46.20100021362305 184.58999633789062,77.69999694824219 188.552001953125,76.54399871826172 C188.552001953125,76.54399871826172 184.42100524902344,80.10099792480469 180.42100524902344,83.10099792480469 C176.42100524902344,86.10099792480469 181.21600341796875,103.16300201416016 182.76199340820312,97.02999877929688 C185.7270050048828,85.27200317382812 187.49600219726562,44.54199981689453 250.5489959716797,47.387001037597656 C294.1549987792969,49.35499954223633 320.3659973144531,93.81199645996094 321.3659973144531,95.31199645996094 C323.3070068359375,98.2239990234375 325.4519958496094,105.76000213623047 326.10400390625,105.21499633789062 C328.4360046386719,101.08699798583984 322.14599609375,97.74600219726562 322.14599609375,97.74600219726562 C322.14599609375,97.74600219726562 321.0679931640625,88.46099853515625 307.0679931640625,74.46099853515625 C298.8139953613281,66.20700073242188 291.62799072265625,59.24700164794922 279.8009948730469,53.82899856567383 C268.3999938964844,48.60599899291992 261.4599914550781,45.94499969482422 239.8730010986328,46.02299880981445z"></path><path stroke-linecap="round" stroke-linejoin="round" fill-opacity="0" stroke="rgb(183,99,57)" stroke-opacity="1" stroke-width="12" d=" M239.8730010986328,46.02299880981445 C190.8040008544922,46.20100021362305 184.58999633789062,77.69999694824219 188.552001953125,76.54399871826172 C188.552001953125,76.54399871826172 184.42100524902344,80.10099792480469 180.42100524902344,83.10099792480469 C176.42100524902344,86.10099792480469 181.21600341796875,103.16300201416016 182.76199340820312,97.02999877929688 C185.7270050048828,85.27200317382812 187.49600219726562,44.54199981689453 250.5489959716797,47.387001037597656 C294.1549987792969,49.35499954223633 320.3659973144531,93.81199645996094 321.3659973144531,95.31199645996094 C323.3070068359375,98.2239990234375 325.4519958496094,105.76000213623047 326.10400390625,105.21499633789062 C328.4360046386719,101.08699798583984 322.14599609375,97.74600219726562 322.14599609375,97.74600219726562 C322.14599609375,97.74600219726562 321.0679931640625,88.46099853515625 307.0679931640625,74.46099853515625 C298.8139953613281,66.20700073242188 291.62799072265625,59.24700164794922 279.8009948730469,53.82899856567383 C268.3999938964844,48.60599899291992 261.4599914550781,45.94499969482422 239.8730010986328,46.02299880981445z"></path></g><g opacity="1" transform="matrix(1,0,0,1,0,0)"><g opacity="1" transform="matrix(1,0,0,1,92.06999969482422,120.21800231933594)"><path fill="rgb(229,136,94)" fill-opacity="1" d=" M-55.375,-56.33100128173828 C-55.375,-56.33100128173828 -82.93000030517578,-28.246000289916992 -65.44300079345703,15.736000061035156 C-50.76599884033203,52.652000427246094 -11.906000137329102,56.33100128173828 20.400999069213867,51.77000045776367 C65.44300079345703,45.4109992980957 82.93000030517578,22.094999313354492 82.93000030517578,22.094999313354492 C82.93000030517578,22.094999313354492 -48.486000061035156,-32.220001220703125 -50.87099838256836,-38.57899856567383 C-53.255001068115234,-44.9379997253418 -55.375,-56.33100128173828 -55.375,-56.33100128173828z"></path></g><g opacity="1" transform="matrix(1,0,0,1,112.85800170898438,95.21499633789062)"><path fill="rgb(179,197,242)" fill-opacity="1" d=" M-61.75299835205078,-50.64400100708008 C-46.31100082397461,-64.15599822998047 -29.88599967956543,-68.56099700927734 1.6339999437332153,-69.59500122070312 C41.494998931884766,-70.9020004272461 72.86199951171875,-46.722999572753906 80.7040023803711,-0.9800000190734863 C88.54499816894531,44.76300048828125 40.84199905395508,70.9020004272461 -23.851999282836914,63.7130012512207 C-88.54499816894531,56.525001525878906 -84.7969970703125,-3.624000072479248 -82.66400146484375,-15.357000350952148 C-78.74299621582031,-36.92100143432617 -66.98100280761719,-46.06999969482422 -61.75299835205078,-50.64400100708008z"></path><path stroke-linecap="round" stroke-linejoin="round" fill-opacity="0" stroke="rgb(76,79,114)" stroke-opacity="1" stroke-width="9.725" d=" M-61.75299835205078,-50.64400100708008 C-46.31100082397461,-64.15599822998047 -29.88599967956543,-68.56099700927734 1.6339999437332153,-69.59500122070312 C41.494998931884766,-70.9020004272461 72.86199951171875,-46.722999572753906 80.7040023803711,-0.9800000190734863 C88.54499816894531,44.76300048828125 40.84199905395508,70.9020004272461 -23.851999282836914,63.7130012512207 C-88.54499816894531,56.525001525878906 -84.7969970703125,-3.624000072479248 -82.66400146484375,-15.357000350952148 C-78.74299621582031,-36.92100143432617 -66.98100280761719,-46.06999969482422 -61.75299835205078,-50.64400100708008z"></path></g><g opacity="1" transform="matrix(1,0,0,1,119.8479995727539,96.84300231933594)"><path fill="rgb(255,255,255)" fill-opacity="1" d=" M-51.79600143432617,-41.689998626708984 C-38.84299850463867,-52.8129997253418 -25.06800079345703,-56.43899917602539 1.3700000047683716,-57.290000915527344 C34.80500030517578,-58.36600112915039 61.1150016784668,-38.46200180053711 67.69300079345703,-0.8069999814033508 C74.2699966430664,36.8489990234375 34.257999420166016,58.36600112915039 -20.0049991607666,52.44900131225586 C-74.26899719238281,46.53200149536133 -71.1259994506836,-2.9830000400543213 -69.33699798583984,-12.640999794006348 C-66.0479965209961,-30.39299964904785 -56.180999755859375,-37.92399978637695 -51.79600143432617,-41.689998626708984z"></path></g><g opacity="1" transform="matrix(1,0,0,1,0,0)"><g opacity="1" transform="matrix(1,0,0,1,143.33399963378906,107.80999755859375)"><path fill="rgb(81,189,244)" fill-opacity="1" d=" M-40.06100082397461,-12.416000366210938 C-39.81700134277344,-21.430999755859375 -30.636999130249023,-38.308998107910156 -2.309999942779541,-34.43899917602539 C26.016000747680664,-30.56800079345703 40.41400146484375,-4.979000091552734 35.209999084472656,14.866000175476074 C31.222000122070312,30.069000244140625 4.584000110626221,38.308998107910156 -14.26099967956543,28.72100067138672 C-36.00400161743164,17.658000946044922 -40.41400146484375,0.6209999918937683 -40.06100082397461,-12.416000366210938z"></path><path stroke-linecap="butt" stroke-linejoin="miter" fill-opacity="0" stroke-miterlimit="10" stroke="rgb(32,136,206)" stroke-opacity="1" stroke-width="9.843" d=" M-40.06100082397461,-12.416000366210938 C-39.81700134277344,-21.430999755859375 -30.636999130249023,-38.308998107910156 -2.309999942779541,-34.43899917602539 C26.016000747680664,-30.56800079345703 40.41400146484375,-4.979000091552734 35.209999084472656,14.866000175476074 C31.222000122070312,30.069000244140625 4.584000110626221,38.308998107910156 -14.26099967956543,28.72100067138672 C-36.00400161743164,17.658000946044922 -40.41400146484375,0.6209999918937683 -40.06100082397461,-12.416000366210938z"></path></g><g opacity="1" transform="matrix(1,0,0,1,153.9239959716797,115.0009994506836)"><path fill="rgb(0,0,0)" fill-opacity="1" d=" M-24.57699966430664,-11.338000297546387 C-24.57699966430664,-11.338000297546387 -21.386999130249023,-29.075000762939453 -2.7829999923706055,-26.67799949645996 C15.821000099182129,-24.2810001373291 26.371000289916992,-10.939000129699707 24.136999130249023,7.964000225067139 C21.642000198364258,29.076000213623047 -5.8460001945495605,28.98699951171875 -19.266000747680664,10.989999771118164 C-26.371000289916992,1.4630000591278076 -24.57699966430664,-11.338000297546387 -24.57699966430664,-11.338000297546387z"></path></g><g opacity="1" transform="matrix(1,0,0,1,121.80699920654297,91.99199676513672)"><path fill="rgb(255,255,255)" fill-opacity="1" d=" M15.32800006866455,3.821000099182129 C14.682999610900879,10.02299976348877 5.9670000076293945,12.111000061035156 -0.28700000047683716,11.461000442504883 C-6.541999816894531,10.810999870300293 -11.621999740600586,5.311999797821045 -10.977999687194824,-0.8899999856948853 C-10.333000183105469,-7.0920000076293945 -4.664000034332275,-10.869000434875488 1.590000033378601,-10.218999862670898 C7.843999862670898,-9.569000244140625 15.972999572753906,-2.38100004196167 15.32800006866455,3.821000099182129z"></path></g><g opacity="0.5" transform="matrix(1,0,0,1,142.43899536132812,98.36199951171875)"><path fill="rgb(255,255,255)" fill-opacity="1" d=" M8.848999977111816,5.452000141143799 C8.576000213623047,8.07699966430664 6.210000038146973,9.980999946594238 3.562999963760376,9.706000328063965 C0.9160000085830688,9.430999755859375 -1.0080000162124634,7.080999851226807 -0.7360000014305115,4.455999851226807 C-0.46299999952316284,1.8309999704360962 1.9040000438690186,-0.07400000095367432 4.551000118255615,0.20200000703334808 C7.197000026702881,0.47699999809265137 9.121999740600586,2.8269999027252197 8.848999977111816,5.452000141143799z"></path></g></g><g opacity="1" transform="matrix(1,0,0,1,64.74500274658203,58.29899978637695)"><path stroke-linecap="round" stroke-linejoin="round" fill-opacity="0" stroke="rgb(255,142,152)" stroke-opacity="1" stroke-width="8.753" d=" M-23.30699920654297,-0.4359999895095825 C-23.30699920654297,-0.4359999895095825 -11.109000205993652,-6.098999977111816 -3.2669999599456787,-5.664000034332275 C4.573999881744385,-5.228000164031982 8.0600004196167,-1.3070000410079956 11.109000205993652,1.3070000410079956 C14.159000396728516,3.9200000762939453 20.257999420166016,6.098999977111816 23.30699920654297,6.098999977111816"></path></g><g opacity="1" transform="matrix(1,0,0,1,60.83100128173828,109.42900085449219)"><path stroke-linecap="round" stroke-linejoin="round" fill-opacity="0" stroke="rgb(255,141,152)" stroke-opacity="1" stroke-width="9.812" d=" M-25.461000442504883,6.918000221252441 C-25.461000442504883,6.918000221252441 -10.581999778747559,1.8960000276565552 -3.2760000228881836,-2.0209999084472656 C4.03000020980835,-5.938000202178955 13.770999908447266,-6.918000221252441 16.694000244140625,-6.427999973297119 C19.615999221801758,-5.938000202178955 25.461000442504883,-2.51200008392334 25.461000442504883,-2.51200008392334"></path></g><g opacity="1" transform="matrix(1,0,0,1,77.89700317382812,141.72000122070312)"><path stroke-linecap="round" stroke-linejoin="round" fill-opacity="0" stroke="rgb(255,141,152)" stroke-opacity="1" stroke-width="8.753" d=" M-21.56399917602539,3.484999895095825 C-21.56399917602539,3.484999895095825 -1.9600000381469727,4.791999816894531 9.366999626159668,1.3070000410079956 C20.694000244140625,-2.177999973297119 21.56399917602539,-4.791999816894531 21.56399917602539,-4.791999816894531"></path></g><g opacity="1" transform="matrix(1,0,0,1,89.17400360107422,32.154998779296875)"><path stroke-linecap="round" stroke-linejoin="round" fill-opacity="0" stroke="rgb(255,141,152)" stroke-opacity="1" stroke-width="8.753" d=" M18.565000534057617,5.010000228881836 C18.565000534057617,5.010000228881836 12.902000427246094,-1.524999976158142 8.545000076293945,-3.2669999599456787 C4.189000129699707,-5.010000228881836 -0.39500001072883606,-3.7709999084472656 -2.138000011444092,-3.7709999084472656 C-3.880000114440918,-3.7709999084472656 -18.565000534057617,0.9980000257492065 -18.565000534057617,0.9980000257492065"></path></g><g opacity="1" transform="matrix(1,0,0,1,72.4280014038086,91.34600067138672)"><path stroke-linecap="round" stroke-linejoin="round" fill-opacity="0" stroke="rgb(255,141,152)" stroke-opacity="1" stroke-width="5.451" d=" M14.873000144958496,-12.092000007629395 C14.873000144958496,-12.092000007629395 6.184000015258789,-8.517000198364258 1.0490000247955322,-6.135000228881836 C-4.085999965667725,-3.753000020980835 -8.824999809265137,-0.18000000715255737 -9.614999771118164,1.4079999923706055 C-10.404999732971191,2.996000051498413 -14.873000144958496,12.092000007629395 -14.873000144958496,12.092000007629395"></path></g><g opacity="1" transform="matrix(1,0,0,1,112.85800170898438,95.21499633789062)"><path stroke-linecap="round" stroke-linejoin="round" fill-opacity="0" stroke="rgb(39,100,169)" stroke-opacity="1" stroke-width="11" d=" M-61.75299835205078,-50.64400100708008 C-46.31100082397461,-64.15599822998047 -29.88599967956543,-68.56099700927734 1.6339999437332153,-69.59500122070312 C41.494998931884766,-70.9020004272461 72.86199951171875,-46.722999572753906 80.7040023803711,-0.9800000190734863 C88.54499816894531,44.76300048828125 40.84199905395508,70.9020004272461 -23.851999282836914,63.7130012512207 C-88.54499816894531,56.525001525878906 -84.7969970703125,-3.624000072479248 -82.66400146484375,-15.357000350952148 C-78.74299621582031,-36.92100143432617 -66.98100280761719,-46.06999969482422 -61.75299835205078,-50.64400100708008z"></path></g></g></g><g style="display: block;" transform="matrix(0.9764167070388794,0.21589431166648865,-0.21589431166648865,0.9764167070388794,292.5184326171875,278.50604248046875)" opacity="1"><g opacity="0" transform="matrix(0.9865750074386597,0.1633087396621704,-0.16589392721652985,1.002192497253418,-18.73290252685547,14.895370483398438)"><path fill="rgb(255,193,162)" fill-opacity="1" d=" M-34.32400131225586,-167.33900451660156 C-70.74600219726562,-184.47500610351562 -125.58899688720703,-158.37399291992188 -141.27000427246094,-136.5540008544922 C-156.1269989013672,-115.88099670410156 -151.32899475097656,-86.41799926757812 -151.32899475097656,-86.41799926757812 C-151.32899475097656,-86.41799926757812 -151.3419952392578,-79.38999938964844 -150.19900512695312,-76.62200164794922 C-149.4080047607422,-74.70800018310547 -152.13900756835938,-97.09200286865234 -152.13900756835938,-97.09200286865234 C-152.13900756835938,-97.09200286865234 -152.05499267578125,-148.4409942626953 -83.6259994506836,-167.42100524902344 C-52.53200149536133,-176.04600524902344 -23.409000396728516,-164.1999969482422 -9.420000076293945,-150.4949951171875 C-4.4070000648498535,-145.58399963378906 4.3460001945495605,-135.06100463867188 -0.7160000205039978,-141.60299682617188 C-3.7320001125335693,-145.50100708007812 -10.458000183105469,-155.4040069580078 -10.458000183105469,-155.4040069580078 C-10.458000183105469,-155.4040069580078 -14.243000030517578,-157.89100646972656 -34.32400131225586,-167.33900451660156z"></path><path stroke-linecap="butt" stroke-linejoin="miter" fill-opacity="0" stroke-miterlimit="4" stroke="rgb(183,99,57)" stroke-opacity="1" stroke-width="12" d=" M-34.32400131225586,-167.33900451660156 C-70.74600219726562,-184.47500610351562 -125.58899688720703,-158.37399291992188 -141.27000427246094,-136.5540008544922 C-156.1269989013672,-115.88099670410156 -151.32899475097656,-86.41799926757812 -151.32899475097656,-86.41799926757812 C-151.32899475097656,-86.41799926757812 -151.3419952392578,-79.38999938964844 -150.19900512695312,-76.62200164794922 C-149.4080047607422,-74.70800018310547 -152.13900756835938,-97.09200286865234 -152.13900756835938,-97.09200286865234 C-152.13900756835938,-97.09200286865234 -152.05499267578125,-148.4409942626953 -83.6259994506836,-167.42100524902344 C-52.53200149536133,-176.04600524902344 -23.409000396728516,-164.1999969482422 -9.420000076293945,-150.4949951171875 C-4.4070000648498535,-145.58399963378906 4.3460001945495605,-135.06100463867188 -0.7160000205039978,-141.60299682617188 C-3.7320001125335693,-145.50100708007812 -10.458000183105469,-155.4040069580078 -10.458000183105469,-155.4040069580078 C-10.458000183105469,-155.4040069580078 -14.243000030517578,-157.89100646972656 -34.32400131225586,-167.33900451660156z"></path></g></g><g style="display: block;" transform="matrix(1,0,0,1,256,256)" opacity="1"></g><g style="display: block;" transform="matrix(0.9964576959609985,0.08409524708986282,-0.08409524708986282,0.9964576959609985,274.58673095703125,270.74945068359375)" opacity="1"><g opacity="0" transform="matrix(1,0,0,1,0,0)"><path fill="rgb(99,246,250)" fill-opacity="0.84" d=" M-57.5099983215332,132.1280059814453 C-57.5099983215332,132.1280059814453 -42.94499969482422,130.9669952392578 -39.01900100708008,134.50799560546875 C-34.263999938964844,138.79600524902344 -37.62799835205078,134.8209991455078 -33.03300094604492,139.27999877929688 C-30.29400062561035,141.93800354003906 -30.667999267578125,142.56399536132812 -30.378000259399414,145.39199829101562 C-29.783000946044922,151.1929931640625 -30.77199935913086,151.43899536132812 -29.900999069213867,151.406005859375 C-27.79400062561035,152.8350067138672 -27.1200008392334,150.4239959716797 -27.365999221801758,148.04100036621094 C-27.66200065612793,145.1820068359375 -27.763999938964844,145.67999267578125 -30.826000213623047,140.42300415039062 C-32.053001403808594,138.31700134277344 -33.55400085449219,137.69500732421875 -35.893001556396484,136.1719970703125 C-42.4379997253418,131.91000366210938 -57.5099983215332,132.1280059814453 -57.5099983215332,132.1280059814453z"></path><path stroke-linecap="round" stroke-linejoin="round" fill-opacity="0" stroke="rgb(30,145,213)" stroke-opacity="1" stroke-width="7" d=" M-57.5099983215332,132.1280059814453 C-57.5099983215332,132.1280059814453 -42.94499969482422,130.9669952392578 -39.01900100708008,134.50799560546875 C-34.263999938964844,138.79600524902344 -37.62799835205078,134.8209991455078 -33.03300094604492,139.27999877929688 C-30.29400062561035,141.93800354003906 -30.667999267578125,142.56399536132812 -30.378000259399414,145.39199829101562 C-29.783000946044922,151.1929931640625 -30.77199935913086,151.43899536132812 -29.900999069213867,151.406005859375 C-27.79400062561035,152.8350067138672 -27.1200008392334,150.4239959716797 -27.365999221801758,148.04100036621094 C-27.66200065612793,145.1820068359375 -27.763999938964844,145.67999267578125 -30.826000213623047,140.42300415039062 C-32.053001403808594,138.31700134277344 -33.55400085449219,137.69500732421875 -35.893001556396484,136.1719970703125 C-42.4379997253418,131.91000366210938 -57.5099983215332,132.1280059814453 -57.5099983215332,132.1280059814453z"></path></g></g></g><g style="display: block;" transform="matrix(1,0,0,1,256,256)" opacity="1"></g></g></svg>