<svg xmlns="http://www.w3.org/2000/svg" xmlns:xlink="http://www.w3.org/1999/xlink" viewBox="0 0 512 512" width="512" height="512" style="width: 100%; height: 100%; transform: translate3d(0,0,0); content-visibility: visible;" preserveAspectRatio="xMidYMid meet"><defs><clipPath id="__lottie_element_2"><rect width="512" height="512" x="0" y="0"></rect></clipPath><clipPath id="__lottie_element_7"><path d="M0,0 L512,0 L512,512 L0,512z"></path></clipPath><radialGradient id="__lottie_element_18" spreadMethod="pad" gradientUnits="userSpaceOnUse" cx="-10.836999893188477" cy="-143.9409942626953" r="418.02564184986005" fx="-10.836999893188477" fy="-143.9409942626953"><stop offset="12%" stop-color="rgb(251,231,211)"></stop><stop offset="47%" stop-color="rgb(248,209,179)"></stop><stop offset="81%" stop-color="rgb(244,186,147)"></stop></radialGradient><clipPath id="__lottie_element_61"><path d="M0,0 L512,0 L512,512 L0,512z"></path></clipPath><radialGradient id="__lottie_element_72" spreadMethod="pad" gradientUnits="userSpaceOnUse"><stop></stop><stop></stop><stop></stop></radialGradient></defs><g clip-path="url(#__lottie_element_2)"><g clip-path="url(#__lottie_element_61)" style="display: none;"><g style="display: none;"><g><path></path><path stroke-linecap="round" stroke-linejoin="round" fill-opacity="0"></path></g></g><g style="display: none;"><g><path></path><path stroke-linecap="butt" stroke-linejoin="miter" fill-opacity="0" stroke-miterlimit="4"></path></g></g><g style="display: none;"><g><path stroke-linecap="butt" stroke-linejoin="miter" fill-opacity="0" stroke-miterlimit="4"></path></g></g><g style="display: none;"><g><path stroke-linecap="round" stroke-linejoin="round" fill-opacity="0"></path></g><g><path stroke-linecap="round" stroke-linejoin="round" fill-opacity="0"></path></g></g><g style="display: none;"><g><path></path></g><g><path stroke-linecap="butt" stroke-linejoin="miter" fill-opacity="0" stroke-miterlimit="10"></path></g><g><path fill="url(#__lottie_element_72)"></path></g></g><g style="display: none;"><g><path></path><path stroke-linecap="round" stroke-linejoin="round" fill-opacity="0"></path></g><g><path></path><path stroke-linecap="round" stroke-linejoin="round" fill-opacity="0"></path></g><g><path></path></g><g><path stroke-linecap="round" stroke-linejoin="round" fill-opacity="0"></path></g></g><g style="display: none;"><g><g><path></path></g><g><path></path><path stroke-linecap="butt" stroke-linejoin="miter" fill-opacity="0" stroke-miterlimit="10"></path></g><g><path></path></g><g><path></path></g><g><path stroke-linecap="round" stroke-linejoin="round" fill-opacity="0"></path></g><g><g><path></path></g><g><path></path></g><g><path></path></g><g><path></path></g><g><path></path></g></g><g><path stroke-linecap="butt" stroke-linejoin="miter" fill-opacity="0" stroke-miterlimit="10"></path></g></g><g><g><path></path></g><g><path></path></g><g><path stroke-linecap="butt" stroke-linejoin="miter" fill-opacity="0" stroke-miterlimit="10"></path></g><g><path></path></g><g><path></path></g><g><path></path></g><g><path stroke-linecap="round" stroke-linejoin="round" fill-opacity="0"></path></g><g><g><path></path></g><g><path></path></g><g><path></path></g><g><path></path></g><g><path></path></g></g></g></g><g style="display: none;"><g><path></path><path stroke-linecap="round" stroke-linejoin="round" fill-opacity="0"></path></g><g><path></path></g><g><path></path></g></g><g style="display: none;"><g><path></path><path stroke-linecap="round" stroke-linejoin="round" fill-opacity="0"></path></g><g><path></path></g><g><path></path></g></g><g style="display: none;"><g><path></path><path stroke-linecap="butt" stroke-linejoin="miter" fill-opacity="0" stroke-miterlimit="4"></path></g></g><g style="display: none;"><g><path></path><path stroke-linecap="round" stroke-linejoin="round" fill-opacity="0"></path></g></g><g style="display: none;"><g><g><path></path></g><g><path stroke-linecap="round" stroke-linejoin="round" fill-opacity="0"></path></g></g><g><g><path></path></g><g><path></path></g><g><path stroke-linecap="round" stroke-linejoin="round" fill-opacity="0"></path></g></g></g><g style="display: none;"><g><path></path><path stroke-linecap="round" stroke-linejoin="round" fill-opacity="0"></path></g><g><path></path><path stroke-linecap="round" stroke-linejoin="round" fill-opacity="0"></path></g><g><path stroke-linecap="round" stroke-linejoin="round" fill-opacity="0"></path></g><g><path stroke-linecap="round" stroke-linejoin="round" fill-opacity="0"></path></g><g><path></path></g><g><path></path></g><g><path stroke-linecap="round" stroke-linejoin="round" fill-opacity="0"></path></g><g><path stroke-linecap="round" stroke-linejoin="round" fill-opacity="0"></path></g></g><g style="display: none;"></g><g style="display: none;"><g><path stroke-linecap="round" stroke-linejoin="round" fill-opacity="0"></path></g><g><path></path></g><g><path stroke-linecap="round" stroke-linejoin="round" fill-opacity="0"></path></g></g></g><g clip-path="url(#__lottie_element_7)" style="display: block;" transform="matrix(1,0,0,1,0,0)" opacity="1"><g style="display: block;" transform="matrix(0.9053417444229126,-0.21015314757823944,0.23435834050178528,0.9063220620155334,248.3979034423828,275.2757568359375)" opacity="1"><g opacity="1" transform="matrix(1,0,0,1,0,0)"><path fill="rgb(234,245,252)" fill-opacity="1" d=" M121.48844146728516,66.85832977294922 C121.48844146728516,66.85832977294922 68.48844146728516,105.85832977294922 76.48844146728516,137.8583221435547 C84.48844146728516,169.8583221435547 127.87508392333984,139.0493927001953 127.87508392333984,139.0493927001953 C127.87508392333984,139.0493927001953 107.40093994140625,168.80699157714844 118.09793853759766,167.54898071289062 C135.0979461669922,165.54898071289062 159.37826538085938,130.97238159179688 159.37826538085938,130.97238159179688 C159.37826538085938,130.97238159179688 123.58773040771484,189.10675048828125 148.73641967773438,194.85997009277344 C167.41505432128906,199.39735412597656 192.3491973876953,122.34776306152344 193.3491973876953,129.34776306152344 C194.3491973876953,136.34776306152344 169.3183135986328,188.9618682861328 199.138427734375,184.15538024902344 C220.92507934570312,180.8550567626953 232.39280700683594,107.11003112792969 234.97886657714844,90.36322784423828 C239.97384643554688,61.44176483154297 242.174560546875,2.3690409660339355 218.88455200195312,-14.910959243774414 C187.88455200195312,-37.91095733642578 121.48844146728516,66.85832977294922 121.48844146728516,66.85832977294922z"></path><path stroke-linecap="round" stroke-linejoin="round" fill-opacity="0" stroke="rgb(85,199,233)" stroke-opacity="1" stroke-width="17" d=" M121.48844146728516,66.85832977294922 C121.48844146728516,66.85832977294922 68.48844146728516,105.85832977294922 76.48844146728516,137.8583221435547 C84.48844146728516,169.8583221435547 127.87508392333984,139.0493927001953 127.87508392333984,139.0493927001953 C127.87508392333984,139.0493927001953 107.40093994140625,168.80699157714844 118.09793853759766,167.54898071289062 C135.0979461669922,165.54898071289062 159.37826538085938,130.97238159179688 159.37826538085938,130.97238159179688 C159.37826538085938,130.97238159179688 123.58773040771484,189.10675048828125 148.73641967773438,194.85997009277344 C167.41505432128906,199.39735412597656 192.3491973876953,122.34776306152344 193.3491973876953,129.34776306152344 C194.3491973876953,136.34776306152344 169.3183135986328,188.9618682861328 199.138427734375,184.15538024902344 C220.92507934570312,180.8550567626953 232.39280700683594,107.11003112792969 234.97886657714844,90.36322784423828 C239.97384643554688,61.44176483154297 242.174560546875,2.3690409660339355 218.88455200195312,-14.910959243774414 C187.88455200195312,-37.91095733642578 121.48844146728516,66.85832977294922 121.48844146728516,66.85832977294922z"></path></g></g><g style="display: block;" transform="matrix(0.8252795338630676,0.013049319386482239,-0.014475950039923191,0.8239755630493164,221.09495544433594,254.4573211669922)" opacity="1"><g opacity="1" transform="matrix(1,0,0,1,0,0)"><path fill="rgb(234,245,252)" fill-opacity="1" d=" M-155,-76 C-188,-82 -201.6103057861328,-42.03131103515625 -211.42831420898438,-22.858312606811523 C-220.622314453125,-4.9023118019104 -227.7780303955078,16.74079704284668 -231.62657165527344,43.87998962402344 C-237.1715850830078,81.16197204589844 -237.31773376464844,99.79753875732422 -226.99696350097656,104.54911041259766 C-204.15306091308594,114.56175994873047 -202.27828979492188,72.5979232788086 -194.4272918701172,55.91392517089844 C-186.4272918701172,38.91392517089844 -203.7321319580078,124.5408935546875 -186.39512634277344,131.98489379882812 C-160.18112182617188,143.2408905029297 -164.1983184814453,79.82974243164062 -164.1983184814453,79.82974243164062 C-164.1983184814453,79.82974243164062 -165.49136352539062,129.25588989257812 -158.03836059570312,134.68289184570312 C-147.2743682861328,142.52188110351562 -122,75 -110,65 C-98,55 -49,43 -49,43 C-49,43 -122,-70 -155,-76z"></path><path stroke-linecap="butt" stroke-linejoin="miter" fill-opacity="0" stroke-miterlimit="4" stroke="rgb(85,199,233)" stroke-opacity="1" stroke-width="17" d=" M-155,-76 C-188,-82 -201.6103057861328,-42.03131103515625 -211.42831420898438,-22.858312606811523 C-220.622314453125,-4.9023118019104 -227.7780303955078,16.74079704284668 -231.62657165527344,43.87998962402344 C-237.1715850830078,81.16197204589844 -237.31773376464844,99.79753875732422 -226.99696350097656,104.54911041259766 C-204.15306091308594,114.56175994873047 -202.27828979492188,72.5979232788086 -194.4272918701172,55.91392517089844 C-186.4272918701172,38.91392517089844 -203.7321319580078,124.5408935546875 -186.39512634277344,131.98489379882812 C-160.18112182617188,143.2408905029297 -164.1983184814453,79.82974243164062 -164.1983184814453,79.82974243164062 C-164.1983184814453,79.82974243164062 -165.49136352539062,129.25588989257812 -158.03836059570312,134.68289184570312 C-147.2743682861328,142.52188110351562 -122,75 -110,65 C-98,55 -49,43 -49,43 C-49,43 -122,-70 -155,-76z"></path></g></g><g style="display: block;" transform="matrix(1.1289933919906616,-0.12604700028896332,0.1321662813425064,1.0624903440475464,242.7581329345703,275.0018615722656)" opacity="1"><g opacity="1" transform="matrix(0.9944174289703369,0.10551779717206955,-0.08770322799682617,0.8265299201011658,-23.90512466430664,-28.306320190429688)"><path stroke-linecap="butt" stroke-linejoin="miter" fill-opacity="0" stroke-miterlimit="4" stroke="rgb(219,196,1)" stroke-opacity="1" stroke-width="25" d=" M26.30299949645996,-246.75100708007812 C16.14900016784668,-246.5959930419922 6.140999794006348,-241.32200622558594 4.9019999504089355,-231.5989990234375 C4.72599983215332,-230.21400451660156 4.7829999923706055,-228.27699279785156 5.25600004196167,-226.00900268554688 C6.5320000648498535,-219.89599609375 10.829999923706055,-211.38699340820312 21.725000381469727,-204.85699462890625 C43.97600173950195,-191.52000427246094 64.3030014038086,-178.78500366210938 97.56500244140625,-172.26100158691406 C117.85700225830078,-168.281005859375 129.2740020751953,-171 134.96099853515625,-177.13400268554688 C136.93800354003906,-179.26600646972656 138.2239990234375,-181.81199645996094 138.947998046875,-184.63099670410156 C142.77699279785156,-199.5330047607422 129.47500610351562,-213.0330047607422 108.03800201416016,-225.24899291992188 C75.74800109863281,-243.64999389648438 48.07699966430664,-247.08399963378906 26.30299949645996,-246.75100708007812z"></path></g></g><g style="display: block;" transform="matrix(1.1289933919906616,-0.12604700028896332,0.1321662813425064,1.0624903440475464,242.7581329345703,275.0018615722656)" opacity="1"><g opacity="1" transform="matrix(0.9944174289703369,0.10551779717206955,-0.08770322799682617,0.8265299201011658,-23.90512466430664,-28.306320190429688)"><path stroke-linecap="round" stroke-linejoin="round" fill-opacity="0" stroke="rgb(246,221,17)" stroke-opacity="1" stroke-width="19" d=" M138.947998046875,-184.63099670410156 C142.77699279785156,-199.5330047607422 129.47500610351562,-213.0330047607422 108.03800201416016,-225.24899291992188 C75.74800109863281,-243.64999389648438 48.07699966430664,-247.08399963378906 26.30299949645996,-246.75100708007812 C16.14900016784668,-246.5959930419922 6.140999794006348,-241.32200622558594 4.9019999504089355,-231.5989990234375"></path></g><g opacity="1" transform="matrix(0.9944174289703369,0.10551779717206955,-0.08770322799682617,0.8265299201011658,-23.90512466430664,-28.306320190429688)"><path stroke-linecap="round" stroke-linejoin="round" fill-opacity="0" stroke="rgb(255,253,237)" stroke-opacity="1" stroke-width="12" d=" M108.03800201416016,-225.24899291992188 C75.74800109863281,-243.64999389648438 48.07699966430664,-247.08399963378906 26.30299949645996,-246.75100708007812"></path></g></g><g style="display: block;" transform="matrix(1.1862305402755737,0.01836421899497509,-0.019332682713866234,1.1239978075027466,19.649517059326172,23.357515335083008)" opacity="1"><g opacity="1" transform="matrix(1,0,0,1,190.9739990234375,202.57000732421875)"><path fill="rgb(252,160,106)" fill-opacity="1" d=" M-126.72899627685547,-100.38899993896484 C-145.7969970703125,-73.22100067138672 -165.9739990234375,-3.934999942779541 -140.2469940185547,71.4729995727539 C-114.51899719238281,146.8800048828125 -27.19499969482422,177.57000732421875 25.395999908447266,176.08900451660156 C88.38300323486328,174.31399536132812 137.59500122070312,131.5989990234375 151.8070068359375,71.4729995727539 C165.9739990234375,11.53600025177002 163.75100708007812,-43.57500076293945 115.84500122070312,-108.33699798583984 C67.93900299072266,-173.09800720214844 1.0199999809265137,-177.57000732421875 -36.2400016784668,-171.36000061035156 C-73.5,-165.14999389648438 -106.53500366210938,-129.16099548339844 -126.72899627685547,-100.38899993896484z"></path></g><g opacity="1" transform="matrix(1,0,0,1,190.9739990234375,202.57000732421875)"><path stroke-linecap="butt" stroke-linejoin="miter" fill-opacity="0" stroke-miterlimit="10" stroke="rgb(181,95,48)" stroke-opacity="1" stroke-width="10" d=" M-126.72899627685547,-100.38899993896484 C-145.7969970703125,-73.22100067138672 -165.9739990234375,-3.934999942779541 -140.2469940185547,71.4729995727539 C-114.51899719238281,146.8800048828125 -27.19499969482422,177.57000732421875 25.395999908447266,176.08900451660156 C88.38300323486328,174.31399536132812 137.59500122070312,131.5989990234375 151.8070068359375,71.4729995727539 C165.9739990234375,11.53600025177002 163.75100708007812,-43.57500076293945 115.84500122070312,-108.33699798583984 C67.93900299072266,-173.09800720214844 1.0199999809265137,-177.57000732421875 -36.2400016784668,-171.36000061035156 C-73.5,-165.14999389648438 -106.53500366210938,-129.16099548339844 -126.72899627685547,-100.38899993896484z"></path></g><g opacity="1" transform="matrix(1,0,0,1,186.3520050048828,192.8719940185547)"><path fill="url(#__lottie_element_18)" fill-opacity="1" d=" M-116.5510025024414,-92.32599639892578 C-134.08700561523438,-67.33999633789062 -152.6439971923828,-3.61899995803833 -128.98300170898438,65.73300170898438 C-105.3219985961914,135.08399963378906 -25.01099967956543,163.3090057373047 23.356000900268555,161.94700622558594 C81.28500366210938,160.31500244140625 126.54399871826172,121.02999877929688 139.61500549316406,65.73300170898438 C152.6439971923828,10.609999656677246 150.60000610351562,-40.07500076293945 106.54100036621094,-99.63500213623047 C62.483001708984375,-159.1959991455078 0.9380000233650208,-163.3090057373047 -33.32899856567383,-157.59800720214844 C-67.59700012207031,-151.88699340820312 -97.97899627685547,-118.78800201416016 -116.5510025024414,-92.32599639892578z"></path></g></g><g style="display: block;" transform="matrix(1.2050503492355347,0.054836928844451904,-0.0584033727645874,1.153269648551941,125.7617416381836,303.688232421875)" opacity="1"><g opacity="1" transform="matrix(1,0,0,1,85.69200134277344,44.194000244140625)"><path fill="rgb(29,22,30)" fill-opacity="1" d=" M-47.78799819946289,-13.378999710083008 C-47.78799819946289,-13.378999710083008 -45.75899887084961,4.885000228881836 -9.628000259399414,11.680999755859375 C26.503999710083008,18.47599983215332 32.768001556396484,17.892000198364258 41.93000030517578,10.406000137329102 C51.0359992980957,2.9679999351501465 47.23500061035156,-0.20600000023841858 48.02000045776367,1.062000036239624 C48.02000045776367,1.062000036239624 22.44499969482422,-7.432000160217285 13.918999671936035,-9.979999542236328 C5.394000053405762,-12.529000282287598 -2.7260000705718994,-12.529999732971191 -7.5980000495910645,-12.104999542236328 C-12.470000267028809,-11.680000305175781 -20.183000564575195,-9.131999969482422 -27.895999908447266,-12.104999542236328 C-35.61000061035156,-15.07800006866455 -43.729000091552734,-18.47599983215332 -47.382999420166016,-17.625999450683594 C-51.0369987487793,-16.777000427246094 -47.78799819946289,-13.378999710083008 -47.78799819946289,-13.378999710083008z"></path><path stroke-linecap="round" stroke-linejoin="round" fill-opacity="0" stroke="rgb(71,47,39)" stroke-opacity="1" stroke-width="7.372" d=" M-47.78799819946289,-13.378999710083008 C-47.78799819946289,-13.378999710083008 -45.75899887084961,4.885000228881836 -9.628000259399414,11.680999755859375 C26.503999710083008,18.47599983215332 32.768001556396484,17.892000198364258 41.93000030517578,10.406000137329102 C51.0359992980957,2.9679999351501465 47.23500061035156,-0.20600000023841858 48.02000045776367,1.062000036239624 C48.02000045776367,1.062000036239624 22.44499969482422,-7.432000160217285 13.918999671936035,-9.979999542236328 C5.394000053405762,-12.529000282287598 -2.7260000705718994,-12.529999732971191 -7.5980000495910645,-12.104999542236328 C-12.470000267028809,-11.680000305175781 -20.183000564575195,-9.131999969482422 -27.895999908447266,-12.104999542236328 C-35.61000061035156,-15.07800006866455 -43.729000091552734,-18.47599983215332 -47.382999420166016,-17.625999450683594 C-51.0369987487793,-16.777000427246094 -47.78799819946289,-13.378999710083008 -47.78799819946289,-13.378999710083008z"></path></g><g opacity="1" transform="matrix(1,0,0,1,91.18399810791016,43.332000732421875)"><path fill="rgb(206,10,33)" fill-opacity="1" d=" M-33.5099983215332,0.3199999928474426 C-33.5099983215332,0.3199999928474426 -20.208999633789062,-10.378000259399414 -7.855000019073486,-10.182000160217285 C4.499000072479248,-9.986000061035156 14.809000015258789,-7.671000003814697 20.479999542236328,-5.6479997634887695 C26.152000427246094,-3.625999927520752 33.5099983215332,3.3340001106262207 33.5099983215332,3.3340001106262207 C33.5099983215332,3.3340001106262207 28.94300079345703,10.378000259399414 13.907999992370605,9.680000305175781 C-1.1260000467300415,8.982000350952148 -33.5099983215332,0.3199999928474426 -33.5099983215332,0.3199999928474426z"></path><path stroke-linecap="round" stroke-linejoin="round" fill-opacity="0" stroke="rgb(162,8,30)" stroke-opacity="1" stroke-width="8.425" d=" M-33.5099983215332,0.3199999928474426 C-33.5099983215332,0.3199999928474426 -20.208999633789062,-10.378000259399414 -7.855000019073486,-10.182000160217285 C4.499000072479248,-9.986000061035156 14.809000015258789,-7.671000003814697 20.479999542236328,-5.6479997634887695 C26.152000427246094,-3.625999927520752 33.5099983215332,3.3340001106262207 33.5099983215332,3.3340001106262207 C33.5099983215332,3.3340001106262207 28.94300079345703,10.378000259399414 13.907999992370605,9.680000305175781 C-1.1260000467300415,8.982000350952148 -33.5099983215332,0.3199999928474426 -33.5099983215332,0.3199999928474426z"></path></g><g opacity="1" transform="matrix(1,0,0,1,89.88899993896484,29.655000686645508)"><path fill="rgb(237,178,138)" fill-opacity="1" d=" M-68.7249984741211,-1.5410000085830688 C-68.7249984741211,-1.5410000085830688 -57.737998962402344,-17.045000076293945 -49.5099983215332,-15.479999542236328 C-41.28200149536133,-13.913999557495117 -31.371000289916992,-4.867000102996826 -20.524999618530273,-6.432000160217285 C-9.678999900817871,-7.997000217437744 -6.685999870300293,-13.279999732971191 10.519000053405762,-8.192999839782715 C27.724000930786133,-3.1059999465942383 26.97599983215332,4.132999897003174 41.1879997253418,5.307000160217285 C55.4010009765625,6.480000019073486 60.45000076293945,3.937000036239624 66.05999755859375,9.02400016784668 C68.72599792480469,11.440999984741211 66.99500274658203,17.04599952697754 66.99500274658203,17.04599952697754 C66.99500274658203,17.04599952697754 66.05899810791016,8.82800006866455 51.659000396728516,9.218999862670898 C41.56399917602539,9.494000434875488 35.202999114990234,11.567000389099121 23.607999801635742,4.914999961853027 C12.013999938964844,-1.7369999885559082 6.591000080108643,-4.084000110626221 -3.506999969482422,-2.5190000534057617 C-13.605999946594238,-0.9539999961853027 -21.833999633789062,1.7860000133514404 -29.500999450683594,-1.343999981880188 C-35.209999084472656,-3.674999952316284 -42.21799850463867,-5.257999897003174 -48.95000076293945,-5.650000095367432 C-55.68199920654297,-6.040999889373779 -68.7249984741211,-1.5410000085830688 -68.7249984741211,-1.5410000085830688z"></path></g><g opacity="1" transform="matrix(1,0,0,1,87.9280014038086,35.29499816894531)"><path stroke-linecap="round" stroke-linejoin="round" fill-opacity="0" stroke="rgb(122,64,35)" stroke-opacity="1" stroke-width="9.478" d=" M-64.23300170898438,-3.5309998989105225 C-64.23300170898438,-3.5309998989105225 -58.54899978637695,-8.20300006866455 -49.61800003051758,-9.902000427246094 C-40.6870002746582,-11.60099983215332 -40.83100128173828,-4.526000022888184 -26.479000091552734,-3.1059999465942383 C-8.682999610900879,-1.3459999561309814 -6.795000076293945,-8.602999687194824 11.682999610900879,-2.256999969482422 C23.881000518798828,1.9320000410079956 38.88199996948242,10.060999870300293 51.0620002746582,9.211999893188477 C63.24100112915039,8.362000465393066 64.23300170898438,11.60099983215332 64.23300170898438,11.60099983215332"></path></g></g><g style="display: block;" transform="matrix(1.2050503492355347,0.054836928844451904,-0.0584033727645874,1.153269648551941,52.90602493286133,79.1988754272461)" opacity="1"><g opacity="1" transform="matrix(0.9438347816467285,-0.10805490612983704,0.10965298116207123,0.9577935934066772,5.3160552978515625,30.61762237548828)"><g opacity="1" transform="matrix(1,0,0,1,229.2570037841797,53.5629997253418)"><path fill="rgb(237,178,138)" fill-opacity="1" d=" M-48.948001861572266,-23.066999435424805 C-48.948001861572266,-23.066999435424805 -49.31100082397461,-7.083000183105469 -37.141998291015625,1.8170000314712524 C-24.972999572753906,10.715999603271484 4.26800012588501,11.805000305175781 17.70800018310547,14.347999572753906 C31.14900016784668,16.891000747680664 49.31100082397461,23.066999435424805 49.31100082397461,21.795000076293945 C49.31100082397461,20.52400016784668 41.500999450683594,12.168999671936035 41.500999450683594,12.168999671936035 C41.500999450683594,12.168999671936035 -4.994999885559082,3.631999969482422 -10.442999839782715,1.0889999866485596 C-15.892000198364258,-1.4539999961853027 -37.6870002746582,-12.713000297546387 -40.04800033569336,-15.619000434875488 C-42.409000396728516,-18.524999618530273 -48.948001861572266,-23.066999435424805 -48.948001861572266,-23.066999435424805z"></path></g><g opacity="1" transform="matrix(1,0,0,1,233.19200134277344,126.90699768066406)"><path fill="rgb(226,221,237)" fill-opacity="1" d=" M-68.27471160888672,19.25521469116211 C-71.7874984741211,-2.3516428470611572 -68.52857208251953,-21.810428619384766 -54.05457305908203,-40.434356689453125 C-47.612213134765625,-48.60164260864258 -37.171714782714844,-56.778926849365234 -30.609357833862305,-61.092430114746094 C-14.403714179992676,-71.67628479003906 26.03514289855957,-70.81478881835938 42.00714111328125,-54.647430419921875 C59.175071716308594,-37.58071517944336 75.92135620117188,4.221785545349121 62.240928649902344,35.04542922973633 C51.900001525878906,60.93550109863281 27.306072235107422,68.10985565185547 7.788071632385254,69.29285430908203 C-11.728928565979004,70.47586059570312 -28.193214416503906,72.08057403564453 -52.78464126586914,50.71635818481445 C-62.028926849365234,42.68792724609375 -66.3682861328125,30.985214233398438 -68.27471160888672,19.25521469116211z"></path><path stroke-linecap="butt" stroke-linejoin="miter" fill-opacity="0" stroke-miterlimit="10" stroke="rgb(122,64,35)" stroke-opacity="1" stroke-width="10" d=" M-68.27471160888672,19.25521469116211 C-71.7874984741211,-2.3516428470611572 -68.52857208251953,-21.810428619384766 -54.05457305908203,-40.434356689453125 C-47.612213134765625,-48.60164260864258 -37.171714782714844,-56.778926849365234 -30.609357833862305,-61.092430114746094 C-14.403714179992676,-71.67628479003906 26.03514289855957,-70.81478881835938 42.00714111328125,-54.647430419921875 C59.175071716308594,-37.58071517944336 75.92135620117188,4.221785545349121 62.240928649902344,35.04542922973633 C51.900001525878906,60.93550109863281 27.306072235107422,68.10985565185547 7.788071632385254,69.29285430908203 C-11.728928565979004,70.47586059570312 -28.193214416503906,72.08057403564453 -52.78464126586914,50.71635818481445 C-62.028926849365234,42.68792724609375 -66.3682861328125,30.985214233398438 -68.27471160888672,19.25521469116211z"></path></g><g opacity="1" transform="matrix(1,0,0,1,228.5240020751953,123.88500213623047)"><path fill="rgb(255,255,255)" fill-opacity="1" d=" M-58.784000396728516,16.12700080871582 C-61.68299865722656,-2.3570001125335693 -57.82400131225586,-19.665000915527344 -44.87699890136719,-34.47800064086914 C-38.987998962402344,-41.21699905395508 -29.902000427246094,-48.492000579833984 -24.459999084472656,-52.35599899291992 C-11.513999938964844,-61.54999923706055 20.85300064086914,-62.571998596191406 34.79499816894531,-47.24800109863281 C48.737998962402344,-31.923999786376953 61.683998107910156,6.385000228881836 54.21500015258789,29.3700008392334 C46.74599838256836,52.35599899291992 23.84000015258789,58.99599838256836 7.4079999923706055,60.018001556396484 C-9.02400016784668,61.03900146484375 -25.457000732421875,62.571998596191406 -45.87300109863281,43.672000885009766 C-53.53099822998047,36.58300018310547 -57.19499969482422,26.260000228881836 -58.784000396728516,16.12700080871582z"></path></g><g opacity="1" transform="matrix(1,0,0,1,232.19400024414062,47.97600173950195)"><path fill="rgb(252,226,204)" fill-opacity="1" d=" M-47.5260009765625,-20.47599983215332 C-47.5260009765625,-20.47599983215332 -47.98400115966797,-10.890999794006348 -24.910999298095703,2.5959999561309814 C-13.256999969482422,9.409000396728516 9.812999725341797,10.416000366210938 20.39699935913086,12.064000129699707 C38.66299819946289,14.907999992370605 47.98400115966797,20.47599983215332 47.98400115966797,20.47599983215332"></path></g><g opacity="1" transform="matrix(1,0,0,1,232.19400024414062,47.97600173950195)"><path stroke-linecap="round" stroke-linejoin="round" fill-opacity="0" stroke="rgb(94,49,27)" stroke-opacity="1" stroke-width="11" d=" M-47.5260009765625,-20.47599983215332 C-47.5260009765625,-20.47599983215332 -47.98400115966797,-10.890999794006348 -24.910999298095703,2.5959999561309814 C-13.256999969482422,9.409000396728516 9.812999725341797,10.416000366210938 20.39699935913086,12.064000129699707 C38.66299819946289,14.907999992370605 47.98400115966797,20.47599983215332 47.98400115966797,20.47599983215332"></path></g><g opacity="1" transform="matrix(1,0,0,1,0.239410400390625,-0.6731948852539062)"><g opacity="1" transform="matrix(1,0,0,1,224.54299926757812,117.44499969482422)"><path fill="rgb(26,9,45)" fill-opacity="1" d=" M-43.470001220703125,-28.0939998626709 C-47.7239990234375,-18.908000946044922 -53.52399826049805,-7.394000053405762 -49.38399887084961,9.758000373840332 C-44.465999603271484,30.132999420166016 -30.45800018310547,50.56700134277344 -0.29499998688697815,45.24399948120117 C29.868000030517578,39.92100143432617 42.87900161743164,21.586999893188477 48.20199966430664,5.0269999504089355 C53.525001525878906,-11.532999992370605 44.0620002746582,-36.37300109863281 17.447999954223633,-43.470001220703125 C-9.166999816894531,-50.56700134277344 -20.761999130249023,-45.930999755859375 -25.13599967956543,-43.470001220703125 C-34.5989990234375,-38.14699935913086 -41.8390007019043,-31.615999221801758 -43.470001220703125,-28.0939998626709z"></path></g><g opacity="1" transform="matrix(1,0,0,1,207.14100646972656,92.53500366210938)"><path fill="rgb(255,255,255)" fill-opacity="1" d=" M-14.142102241516113,-1.04374361038208 C-14.918102264404297,3.4262564182281494 -14.83666706085205,13.836872100830078 -2.810666561126709,13.836872100830078 C9.215332984924316,13.836872100830078 10.437692642211914,3.879718065261841 4.423692226409912,-3.3382821083068848 C-1.5893076658248901,-10.557282447814941 -12.263102531433105,-11.871743202209473 -14.142102241516113,-1.04374361038208z"></path></g><g opacity="1" transform="matrix(1,0,0,1,263.68798828125,91.92500305175781)"><path fill="rgb(255,255,255)" fill-opacity="1" d=" M-12.72821044921875,0.3075263202190399 C-13.110210418701172,2.509526252746582 -12.559473991394043,7.777420997619629 -6.635473728179932,7.777420997619629 C-0.7124736905097961,7.777420997619629 2.6775262355804443,1.4358947277069092 -0.2844736874103546,-2.119105339050293 C-3.246473789215088,-5.675105094909668 -11.802210807800293,-5.025473594665527 -12.72821044921875,0.3075263202190399z"></path></g><g opacity="1" transform="matrix(1,0,0,1,213.87600708007812,126.31500244140625)"><path fill="rgb(49,85,186)" fill-opacity="1" d=" M-8.098999977111816,27.142000198364258 C-8.098999977111816,27.142000198364258 -35.314998626708984,19.47800064086914 -34.09600067138672,-9.359999656677246 C-33.16400146484375,-31.400999069213867 -21.0310001373291,-12.54699993133545 0.9940000176429749,-5.8480000495910645 C23.018999099731445,0.8519999980926514 35.314998626708984,5.664999961853027 23.202999114990234,18.533000946044922 C11.09000015258789,31.400999069213867 -8.098999977111816,27.142000198364258 -8.098999977111816,27.142000198364258z"></path></g><g opacity="0.7000000000000001" transform="matrix(1,0,0,1,235.593994140625,129.3459930419922)"><path fill="rgb(255,255,255)" fill-opacity="1" d=" M-42.217620849609375,3.3095998764038086 C-42.217620849609375,3.3095998764038086 -41.586727142333984,-4.1126909255981445 -35.539730072021484,-3.031690835952759 C-29.491727828979492,-1.9516907930374146 -26.291231155395508,2.9642841815948486 -22.008230209350586,0.5872840881347656 C-17.724231719970703,-1.7897158861160278 -15.412714004516602,0.4096849262714386 -9.86971378326416,-0.6703150868415833 C-4.325713634490967,-1.7513151168823242 -4.406237602233887,-1.5821850299835205 -1.439760446548462,-2.5012223720550537 C2.2295830249786377,-3.536013126373291 5.4746904373168945,-2.5990188121795654 7.4906907081604,1.2899811267852783 C9.506690979003906,5.178981304168701 10.30222225189209,9.549690246582031 4.7582221031188965,13.87069034576416 C-0.7847779393196106,18.192689895629883 -1.4218151569366455,19.803388595581055 -11.798460960388184,19.8535213470459 C-21.40034294128418,19.923065185546875 -27.50784683227539,17.04215431213379 -31.72884750366211,15.419154167175293 C-39.03584671020508,12.610154151916504 -42.217620849609375,3.3095998764038086 -42.217620849609375,3.3095998764038086z"></path></g></g><g opacity="1" transform="matrix(1,0,0,1,233.19200134277344,126.90699768066406)"><path stroke-linecap="butt" stroke-linejoin="miter" fill-opacity="0" stroke-miterlimit="10" stroke="rgb(122,64,35)" stroke-opacity="1" stroke-width="10" d=" M-68.27471160888672,19.25521469116211 C-71.7874984741211,-2.3516428470611572 -68.52857208251953,-21.810428619384766 -54.05457305908203,-40.434356689453125 C-47.612213134765625,-48.60164260864258 -37.171714782714844,-56.778926849365234 -30.609357833862305,-61.092430114746094 C-14.403714179992676,-71.67628479003906 26.03514289855957,-70.81478881835938 42.00714111328125,-54.647430419921875 C59.175071716308594,-37.58071517944336 75.92135620117188,4.221785545349121 62.240928649902344,35.04542922973633 C51.900001525878906,60.93550109863281 27.306072235107422,68.10985565185547 7.788071632385254,69.29285430908203 C-11.728928565979004,70.47586059570312 -28.193214416503906,72.08057403564453 -52.78464126586914,50.71635818481445 C-62.028926849365234,42.68792724609375 -66.3682861328125,30.985214233398438 -68.27471160888672,19.25521469116211z"></path></g></g><g opacity="1" transform="matrix(0.9861783385276794,0.04282836616039276,-0.031800150871276855,0.9762696027755737,3.0927734375,3.0581817626953125)"><g opacity="1" transform="matrix(1,0,0,1,133.7220001220703,41.39400100708008)"><path fill="rgb(237,178,138)" fill-opacity="1" d=" M13.713000297546387,-9.98900032043457 C13.713000297546387,-9.98900032043457 10.625,1.9980000257492065 2.0889999866485596,7.809999942779541 C-6.447000026702881,13.621999740600586 -13.894000053405762,11.62399959564209 -13.894000053405762,11.62399959564209 C-13.894000053405762,11.62399959564209 -14.076000213623047,2.9059998989105225 -12.803999900817871,1.9980000257492065 C-11.532999992370605,1.090000033378601 -0.9990000128746033,-4.177000045776367 1.7259999513626099,-6.175000190734863 C4.449999809265137,-8.17300033569336 11.170000076293945,-13.621999740600586 12.623000144958496,-12.531999588012695 C14.076000213623047,-11.442000389099121 13.713000297546387,-9.98900032043457 13.713000297546387,-9.98900032043457z"></path></g><g opacity="1" transform="matrix(1,0,0,1,90.0250015258789,101.18000030517578)"><path fill="rgb(226,221,237)" fill-opacity="1" d=" M-52.07899856567383,-26.614999771118164 C-59.8849983215332,-16.36400032043457 -65.0250015258789,12.72599983215332 -52.07899856567383,34.303001403808594 C-37.8849983215332,57.959999084472656 -17.18400001525879,67.4229965209961 16.527000427246094,55.59400177001953 C50.23899841308594,43.76499938964844 65.0250015258789,11.82800006866455 62.06700134277344,-22.475000381469727 C59.11000061035156,-56.77799987792969 14.16100025177002,-67.4229965209961 -7.130000114440918,-63.874000549316406 C-28.422000885009766,-60.32600021362305 -43.236000061035156,-38.22700119018555 -52.07899856567383,-26.614999771118164z"></path></g><g opacity="1" transform="matrix(1,0,0,1,90.0250015258789,101.18000030517578)"><path stroke-linecap="butt" stroke-linejoin="miter" fill-opacity="0" stroke-miterlimit="10" stroke="rgb(122,64,35)" stroke-opacity="1" stroke-width="10" d=" M-52.07899856567383,-26.614999771118164 C-59.8849983215332,-16.36400032043457 -65.0250015258789,12.72599983215332 -52.07899856567383,34.303001403808594 C-37.8849983215332,57.959999084472656 -17.18400001525879,67.4229965209961 16.527000427246094,55.59400177001953 C50.23899841308594,43.76499938964844 65.0250015258789,11.82800006866455 62.06700134277344,-22.475000381469727 C59.11000061035156,-56.77799987792969 14.16100025177002,-67.4229965209961 -7.130000114440918,-63.874000549316406 C-28.422000885009766,-60.32600021362305 -43.236000061035156,-38.22700119018555 -52.07899856567383,-26.614999771118164z"></path></g><g opacity="1" transform="matrix(1,0,0,1,86.6520004272461,95.9000015258789)"><path fill="rgb(255,255,255)" fill-opacity="1" d=" M-44.94300079345703,-22.933000564575195 C-51.68000030517578,-14.10099983215332 -56.1150016784668,10.965999603271484 -44.94300079345703,29.55699920654297 C-32.69300079345703,49.941001892089844 -14.831000328063965,58.09400177001953 14.26200008392334,47.902000427246094 C43.35499954223633,37.70899963378906 56.11600112915039,10.192000389099121 53.56399917602539,-19.364999771118164 C51.012001037597656,-48.922000885009766 12.220000267028809,-58.09400177001953 -6.1539998054504395,-55.0369987487793 C-24.527999877929688,-51.979000091552734 -37.31100082397461,-32.9379997253418 -44.94300079345703,-22.933000564575195z"></path></g><g opacity="1" transform="matrix(1,0,0,1,0,0)"><path fill="rgb(255,234,216)" fill-opacity="1" d=" M94.7699966430664,10.770000457763672 C82.4000015258789,17.540000915527344 57.20000076293945,42.369998931884766 60.53200149536133,44.78900146484375 C63.86399841308594,47.20800018310547 104.1259994506836,43.895999908447266 116.09300231933594,41.61399841308594 C128.05999755859375,39.332000732421875 145.3350067138672,16.402000427246094 145.3350067138672,16.402000427246094 C145.3350067138672,16.402000427246094 122.91500091552734,-4.632999897003174 94.7699966430664,10.770000457763672z"></path></g><g opacity="1" transform="matrix(1,0,0,1,90.3740005493164,40.12300109863281)"><path fill="rgb(252,226,204)" fill-opacity="1" d=" M-46.428001403808594,8.871000289916992 C-46.428001403808594,8.871000289916992 -1.4579999446868896,8.315999984741211 17.466999053955078,5.357999801635742 C36.393001556396484,2.4010000228881836 40.513999938964844,-2.9570000171661377 46.428001403808594,-8.871000289916992"></path></g><g opacity="1" transform="matrix(1,0,0,1,90.3740005493164,40.12300109863281)"><path stroke-linecap="round" stroke-linejoin="round" fill-opacity="0" stroke="rgb(94,49,27)" stroke-opacity="1" stroke-width="11" d=" M-46.428001403808594,8.871000289916992 C-46.428001403808594,8.871000289916992 -1.4579999446868896,8.315999984741211 17.466999053955078,5.357999801635742 C36.393001556396484,2.4010000228881836 40.513999938964844,-2.9570000171661377 46.428001403808594,-8.871000289916992"></path></g><g opacity="1" transform="matrix(1,0,0,1,1.2760772705078125,-0.553680419921875)"><g opacity="1" transform="matrix(1,0,0,1,83.78199768066406,86.98600006103516)"><path fill="rgb(26,9,45)" fill-opacity="1" d=" M-45.83599853515625,-12.420000076293945 C-49.3849983215332,2.365999937057495 -49.97600173950195,23.656999588012695 -28.68400001525879,34.303001403808594 C-7.39300012588501,44.94900131225586 19.222000122070312,35.486000061035156 34.5989990234375,22.475000381469727 C49.97600173950195,9.463000297546387 44.65299987792969,-14.194000244140625 35.78200149536133,-27.20599937438965 C26.90999984741211,-40.21699905395508 16.263999938964844,-43.76599884033203 0.8870000243186951,-44.356998443603516 C-14.489999771118164,-44.94900131225586 -27.50200080871582,-37.85200119018555 -32.233001708984375,-32.52899932861328 C-36.96500015258789,-27.20599937438965 -45.125,-15.383999824523926 -45.83599853515625,-12.420000076293945z"></path></g><g opacity="1" transform="matrix(1,0,0,1,79.41799926757812,65.76499938964844)"><path fill="rgb(255,255,255)" fill-opacity="1" d=" M-15.982335090637207,-0.4533498287200928 C-16.754335403442383,3.7656502723693848 -17.01401710510254,13.9705810546875 -5.042017936706543,13.9705810546875 C6.928982257843018,13.9705810546875 8.47339153289795,3.3539066314697266 2.487391710281372,-3.4590933322906494 C-3.498608350753784,-10.273093223571777 -14.111335754394531,-10.674349784851074 -15.982335090637207,-0.4533498287200928z"></path></g><g opacity="1" transform="matrix(1,0,0,1,128.83200073242188,74.42400360107422)"><path fill="rgb(255,255,255)" fill-opacity="1" d=" M-6.380000114440918,-1.0870000123977661 C-6.76200008392334,1.1150000095367432 -6.011000156402588,6.617000102996826 -0.08699999749660492,6.617000102996826 C5.835999965667725,6.617000102996826 6.763000011444092,0.49399998784065247 3.8010001182556152,-3.061000108718872 C0.8389999866485596,-6.617000102996826 -5.453999996185303,-6.420000076293945 -6.380000114440918,-1.0870000123977661z"></path></g><g opacity="1" transform="matrix(1,0,0,1,66.927001953125,98.78199768066406)"><path fill="rgb(50,86,187)" fill-opacity="1" d=" M-6.340000152587891,19.90999984741211 C-6.340000152587891,19.90999984741211 -27.674999237060547,14.274999618530273 -26.732999801635742,-6.876999855041504 C-26.01300048828125,-23.04400062561035 -16.4950008392334,-9.208999633789062 0.7699999809265137,-4.283999919891357 C18.03499984741211,0.6399999856948853 27.674999237060547,4.177000045776367 18.187999725341797,13.609999656677246 C8.701000213623047,23.042999267578125 -6.340000152587891,19.90999984741211 -6.340000152587891,19.90999984741211z"></path></g><g opacity="0.73" transform="matrix(1,0,0,1,86.77300262451172,101.29199981689453)"><path fill="rgb(255,255,255)" fill-opacity="1" d=" M-31.271385192871094,1.7557692527770996 C-31.271385192871094,1.7557692527770996 -30.33684539794922,-1.0109230279922485 -24.399307250976562,-2.115077018737793 C-19.404691696166992,-2.901461601257324 -16.906230926513672,2.7003846168518066 -9.805231094360352,-1.566615343093872 C-2.705230712890625,-5.833615303039551 -0.9331538677215576,-1.0859999656677246 1.3328461647033691,-2.4746923446655273 C5.104230880737305,-4.272230625152588 7.385922908782959,-4.387692451477051 9.867076873779297,-3.1393845081329346 C14.158923149108887,-0.8311538696289062 15.587153434753418,2.7163076400756836 11.976922988891602,7.590615272521973 C9.392000198364258,11.239923477172852 4.52346134185791,12.924769401550293 -0.12853845953941345,14.631769180297852 C-4.780538558959961,16.3377685546875 -12.378000259399414,15.312846183776855 -17.763999938964844,15.098846435546875 C-23.150999069213867,14.885846138000488 -28.36376953125,10.370230674743652 -29.710384368896484,8.714692115783691 C-32.4232292175293,5.668307781219482 -31.271385192871094,1.7557692527770996 -31.271385192871094,1.7557692527770996z"></path></g></g></g></g><g style="display: block;" transform="matrix(1.1075538396835327,0.23310036957263947,-0.25894567370414734,1.1223526000976562,93.5746078491211,156.2681121826172)" opacity="1"><g opacity="1" transform="matrix(1,0,0,1,224.9320068359375,73.3270034790039)"><path fill="rgb(74,211,244)" fill-opacity="1" d=" M-57.073001861572266,-3.6470000743865967 C-57.702999114990234,-4.5929999351501465 -60.029998779296875,-14.883999824523926 -44.06100082397461,-10.152999877929688 C-35.68899917602539,-7.671999931335449 -15.081999778747559,0.49300000071525574 10.348999977111816,-4.23799991607666 C35.78099822998047,-8.970000267028809 45.04499816894531,-21.194000244140625 50.56800079345703,-18.433000564575195 C60.03099822998047,-13.701000213623047 53.52399826049805,-2.4630000591278076 36.37200164794922,7.591000080108643 C24.243999481201172,14.701000213623047 3.8450000286102295,21.194000244140625 -20.996000289916992,16.46299934387207 C-45.83599853515625,11.730999946594238 -51.159000396728516,5.223999977111816 -57.073001861572266,-3.6470000743865967z"></path><path stroke-linecap="round" stroke-linejoin="round" fill-opacity="0" stroke="rgb(12,175,226)" stroke-opacity="1" stroke-width="8" d=" M-57.073001861572266,-3.6470000743865967 C-57.702999114990234,-4.5929999351501465 -60.029998779296875,-14.883999824523926 -44.06100082397461,-10.152999877929688 C-35.68899917602539,-7.671999931335449 -15.081999778747559,0.49300000071525574 10.348999977111816,-4.23799991607666 C35.78099822998047,-8.970000267028809 45.04499816894531,-21.194000244140625 50.56800079345703,-18.433000564575195 C60.03099822998047,-13.701000213623047 53.52399826049805,-2.4630000591278076 36.37200164794922,7.591000080108643 C24.243999481201172,14.701000213623047 3.8450000286102295,21.194000244140625 -20.996000289916992,16.46299934387207 C-45.83599853515625,11.730999946594238 -51.159000396728516,5.223999977111816 -57.073001861572266,-3.6470000743865967z"></path></g><g opacity="0.7489738241033578" transform="matrix(1,0,0,1,189.51600646972656,73.5530014038086)"><path fill="rgb(255,255,255)" fill-opacity="1" d=" M-7.663000106811523,-3.5490000247955322 C-5.0960001945495605,-4.8979997634887695 1.871999979019165,-3.5480000972747803 5.685999870300293,-1.0959999561309814 C9.50100040435791,1.3559999465942383 8.967000007629395,4.519000053405762 6.230999946594238,4.624000072479248 C-0.8519999980926514,4.896999835968018 -4.394000053405762,2.7179999351501465 -7.663000106811523,0.8109999895095825 C-9.50100040435791,-0.26100000739097595 -8.574999809265137,-3.069999933242798 -7.663000106811523,-3.5490000247955322z"></path></g><g opacity="0.7197974723290683" transform="matrix(1,0,0,1,211.5240020751953,78.3290023803711)"><path fill="rgb(255,255,255)" fill-opacity="1" d=" M-3.9600000381469727,-0.9750000238418579 C-3.9600000381469727,-0.9750000238418579 -5.2270002365112305,1.9490000009536743 -1.9010000228881836,2.9240000247955322 C1.4249999523162842,3.8980000019073486 5.2270002365112305,3.509000062942505 4.909999847412109,0.19599999487400055 C4.5929999351501465,-3.118000030517578 2.2170000076293945,-3.8980000019073486 -0.7919999957084656,-3.703000068664551 C-3.802000045776367,-3.507999897003174 -3.9600000381469727,-0.9750000238418579 -3.9600000381469727,-0.9750000238418579z"></path></g></g><g style="display: block;" transform="matrix(1.171521782875061,-0.2626723051071167,0.27498775720596313,1.1273733377456665,64.65099334716797,224.3172149658203)" opacity="1"><g opacity="0.9979120879120879" transform="matrix(1,0,0,1,63.5629997253418,39.516998291015625)"><path fill="rgb(74,211,244)" fill-opacity="1" d=" M-38.2400016784668,-9.463000297546387 C-38.2400016784668,-9.463000297546387 -43.5629997253418,-19.517000198364258 -34.691001892089844,-18.926000595092773 C-25.81999969482422,-18.333999633789062 -19.025999069213867,-7.25 -2.671999931335449,-4.385000228881836 C15.390000343322754,-1.2200000286102295 20.756999969482422,-1.1150000095367432 28.930999755859375,-1.659999966621399 C37.95800018310547,-2.26200008392334 43.5629997253418,4.413000106811523 37.64899826049805,10.32699966430664 C31.733999252319336,16.240999221801758 13.21500015258789,19.517000198364258 -10.442999839782715,14.78600025177002 C-34.099998474121094,10.053999900817871 -38.2400016784668,-9.463000297546387 -38.2400016784668,-9.463000297546387z"></path><path stroke-linecap="round" stroke-linejoin="round" fill-opacity="0" stroke="rgb(12,175,226)" stroke-opacity="1" stroke-width="8" d=" M-38.2400016784668,-9.463000297546387 C-38.2400016784668,-9.463000297546387 -43.5629997253418,-19.517000198364258 -34.691001892089844,-18.926000595092773 C-25.81999969482422,-18.333999633789062 -19.025999069213867,-7.25 -2.671999931335449,-4.385000228881836 C15.390000343322754,-1.2200000286102295 20.756999969482422,-1.1150000095367432 28.930999755859375,-1.659999966621399 C37.95800018310547,-2.26200008392334 43.5629997253418,4.413000106811523 37.64899826049805,10.32699966430664 C31.733999252319336,16.240999221801758 13.21500015258789,19.517000198364258 -10.442999839782715,14.78600025177002 C-34.099998474121094,10.053999900817871 -38.2400016784668,-9.463000297546387 -38.2400016784668,-9.463000297546387z"></path></g><g opacity="0.7095305385460826" transform="matrix(1,0,0,1,40.220001220703125,32.40999984741211)"><path fill="rgb(255,255,255)" fill-opacity="1" d=" M-6.464000225067139,-3.7909998893737793 C-4.058000087738037,-4.730999946594238 2.0309998989105225,-2.927000045776367 5.211999893188477,-0.44999998807907104 C8.392999649047852,2.0269999504089355 7.638000011444092,4.730000019073486 5.190999984741211,4.573999881744385 C-1.1440000534057617,4.169000148773193 -4.105999946594238,1.9529999494552612 -6.849999904632568,-0.0010000000474974513 C-8.392999649047852,-1.100000023841858 -7.318999767303467,-3.4570000171661377 -6.464000225067139,-3.7909998893737793z"></path></g><g opacity="0.7489738241033578" transform="matrix(1,0,0,1,62.76499938964844,40.78799819946289)"><path fill="rgb(255,255,255)" fill-opacity="1" d=" M-3.2119998931884766,-1.2710000276565552 C-3.2119998931884766,-1.2710000276565552 -4.598999977111816,1.156999945640564 -1.722000002861023,2.305000066757202 C1.1549999713897705,3.4539999961853027 4.577000141143799,3.4590001106262207 4.5879998207092285,0.5490000247955322 C4.598999977111816,-2.3610000610351562 2.549999952316284,-3.253999948501587 -0.14900000393390656,-3.3570001125335693 C-2.8469998836517334,-3.4600000381469727 -3.2119998931884766,-1.2710000276565552 -3.2119998931884766,-1.2710000276565552z"></path></g></g><g style="display: block;" transform="matrix(0.9689156413078308,-0.07816117256879807,0.08721714466810226,1.000950813293457,246.51104736328125,293.3683776855469)" opacity="1"><g opacity="0" transform="matrix(0.9700000286102295,0,0,0.9700000286102295,3,-2)"><path fill="rgb(251,230,210)" fill-opacity="1" d=" M142.47000122070312,-103.18800354003906 C100.75800323486328,-130.6300048828125 50.85900115966797,-131.625 27.933000564575195,-101.18800354003906 C8.53499984741211,-75.43599700927734 9.718000411987305,-49.180999755859375 11.927000045776367,-66.96800231933594 C14.123000144958496,-84.64700317382812 46.862998962402344,-151.68299865722656 133.4810028076172,-110.03800201416016 C169.41400146484375,-92.76200103759766 172.95599365234375,-68.37200164794922 169.3679962158203,-39.18600082397461 C165.67599487304688,-9.15999984741211 141.9290008544922,12.536999702453613 154.35299682617188,-2.421999931335449 C178.85299682617188,-31.922000885009766 180.47000122070312,-78.18800354003906 142.47000122070312,-103.18800354003906z"></path><path stroke-linecap="butt" stroke-linejoin="miter" fill-opacity="0" stroke-miterlimit="4" stroke="rgb(196,96,51)" stroke-opacity="1" stroke-width="13" d=" M142.47000122070312,-103.18800354003906 C100.75800323486328,-130.6300048828125 50.85900115966797,-131.625 27.933000564575195,-101.18800354003906 C8.53499984741211,-75.43599700927734 9.718000411987305,-49.180999755859375 11.927000045776367,-66.96800231933594 C14.123000144958496,-84.64700317382812 46.862998962402344,-151.68299865722656 133.4810028076172,-110.03800201416016 C169.41400146484375,-92.76200103759766 172.95599365234375,-68.37200164794922 169.3679962158203,-39.18600082397461 C165.67599487304688,-9.15999984741211 141.9290008544922,12.536999702453613 154.35299682617188,-2.421999931335449 C178.85299682617188,-31.922000885009766 180.47000122070312,-78.18800354003906 142.47000122070312,-103.18800354003906z"></path></g></g><g style="display: none;"><g><path></path><path stroke-linecap="round" stroke-linejoin="round" fill-opacity="0"></path></g></g><g style="display: block;" transform="matrix(1.2050503492355347,0.054836928844451904,-0.0584033727645874,1.153269648551941,52.90602493286133,79.1988754272461)" opacity="1"><g opacity="1" transform="matrix(0.9641301035881042,-0.11037841439247131,0.11218951642513275,0.9799495935440063,0.3383026123046875,28.66767120361328)"><g opacity="1" transform="matrix(1,0,0,1,232.19400024414062,47.97600173950195)"><path fill="rgb(252,226,204)" fill-opacity="1" d=" M-47.5260009765625,-20.47599983215332 C-47.5260009765625,-20.47599983215332 -47.98400115966797,-10.890999794006348 -24.910999298095703,2.5959999561309814 C-13.256999969482422,9.409000396728516 9.812999725341797,10.416000366210938 20.39699935913086,12.064000129699707 C38.66299819946289,14.907999992370605 47.98400115966797,20.47599983215332 47.98400115966797,20.47599983215332"></path></g><g opacity="1" transform="matrix(1,0,0,1,232.19400024414062,47.97600173950195)"><path stroke-linecap="round" stroke-linejoin="round" fill-opacity="0" stroke="rgb(158,74,28)" stroke-opacity="1" stroke-width="12" d=" M-47.5260009765625,-20.47599983215332 C-47.5260009765625,-20.47599983215332 -47.98400115966797,-10.890999794006348 -24.910999298095703,2.5959999561309814 C-13.256999969482422,9.409000396728516 9.812999725341797,10.416000366210938 20.39699935913086,12.064000129699707 C38.66299819946289,14.907999992370605 47.98400115966797,20.47599983215332 47.98400115966797,20.47599983215332"></path></g></g><g opacity="1" transform="matrix(0.9861783385276794,0.04282836616039276,-0.031800150871276855,0.9762696027755737,3.0927734375,3.0581817626953125)"><g opacity="1" transform="matrix(1,0,0,1,0,0)"><path fill="rgb(255,234,216)" fill-opacity="1" d=" M94.7699966430664,10.770000457763672 C82.4000015258789,17.540000915527344 57.20000076293945,42.369998931884766 60.53200149536133,44.78900146484375 C63.86399841308594,47.20800018310547 104.1259994506836,43.895999908447266 116.09300231933594,41.61399841308594 C128.05999755859375,39.332000732421875 145.3350067138672,16.402000427246094 145.3350067138672,16.402000427246094 C145.3350067138672,16.402000427246094 122.91500091552734,-4.632999897003174 94.7699966430664,10.770000457763672z"></path></g><g opacity="1" transform="matrix(1,0,0,1,90.3740005493164,40.12300109863281)"><path fill="rgb(252,226,204)" fill-opacity="1" d=" M-46.428001403808594,8.871000289916992 C-46.428001403808594,8.871000289916992 -1.4579999446868896,8.315999984741211 17.466999053955078,5.357999801635742 C36.393001556396484,2.4010000228881836 40.513999938964844,-2.9570000171661377 46.428001403808594,-8.871000289916992"></path></g><g opacity="1" transform="matrix(1,0,0,1,90.3740005493164,40.12300109863281)"><path stroke-linecap="round" stroke-linejoin="round" fill-opacity="0" stroke="rgb(158,73,27)" stroke-opacity="1" stroke-width="12" d=" M-46.428001403808594,8.871000289916992 C-46.428001403808594,8.871000289916992 -1.4579999446868896,8.315999984741211 17.466999053955078,5.357999801635742 C36.393001556396484,2.4010000228881836 40.513999938964844,-2.9570000171661377 46.428001403808594,-8.871000289916992"></path></g></g></g><g style="display: block;" transform="matrix(1.2984387874603271,0.07840048521757126,-0.07441495358943939,1.2324318885803223,140.10491943359375,326.03839111328125)" opacity="1"><g opacity="1" transform="matrix(1,0,0,1,86.59700012207031,75.33399963378906)"><path fill="rgb(255,200,164)" fill-opacity="1" d=" M23.879932403564453,33.460201263427734 C24.330533981323242,26.807666778564453 26.592065811157227,25.991933822631836 23.18433380126953,19.50353240966797 C18.690000534057617,10.927533149719238 9.124466896057129,-7.049533367156982 4.926066875457764,-17.805932998657227 C-2.949333429336548,-37.909000396728516 -7.69926643371582,-50.64080047607422 -17.625999450683594,-47.03200149536133 C-23.9153995513916,-44.707332611083984 -26.274999618530273,-16.47599983215332 -24.594999313354492,-8.074999809265137 C-22.915000915527344,0.32600000500679016 -23.383333206176758,15.789667129516602 -20.863332748413086,25.87066650390625 C-18.34233283996582,35.95166778564453 -17.8344669342041,44.4544677734375 -4.792600154876709,48.303531646728516 C3.7046000957489014,50.812198638916016 18.42213249206543,48.21066665649414 20.10213279724121,46.53066635131836 C20.70013427734375,45.93266677856445 23.61513328552246,36.694400787353516 23.879932403564453,33.460201263427734z"></path><path stroke-linecap="round" stroke-linejoin="round" fill-opacity="0" stroke="rgb(181,95,48)" stroke-opacity="1" stroke-width="9" d=" M23.879932403564453,33.460201263427734 C24.330533981323242,26.807666778564453 26.592065811157227,25.991933822631836 23.18433380126953,19.50353240966797 C18.690000534057617,10.927533149719238 9.124466896057129,-7.049533367156982 4.926066875457764,-17.805932998657227 C-2.949333429336548,-37.909000396728516 -7.69926643371582,-50.64080047607422 -17.625999450683594,-47.03200149536133 C-23.9153995513916,-44.707332611083984 -26.274999618530273,-16.47599983215332 -24.594999313354492,-8.074999809265137 C-22.915000915527344,0.32600000500679016 -23.383333206176758,15.789667129516602 -20.863332748413086,25.87066650390625 C-18.34233283996582,35.95166778564453 -17.8344669342041,44.4544677734375 -4.792600154876709,48.303531646728516 C3.7046000957489014,50.812198638916016 18.42213249206543,48.21066665649414 20.10213279724121,46.53066635131836 C20.70013427734375,45.93266677856445 23.61513328552246,36.694400787353516 23.879932403564453,33.460201263427734z"></path></g><g opacity="1" transform="matrix(1,0,0,1,46.61000061035156,74.98400115966797)"><path fill="rgb(255,200,163)" fill-opacity="1" d=" M-21.364999771118164,33.41299819946289 C-24.110000610351562,28.13599967956543 -22.088499069213867,22.36862564086914 -18.485124588012695,17.661375045776367 C-16.09862518310547,14.25825023651123 -12.696249961853027,10.400875091552734 -11.629249572753906,5.672874927520752 C-8.688249588012695,-7.348124980926514 -1.8904999494552612,-36.67850112915039 0.3608750104904175,-42.0516242980957 C4.751937389373779,-52.499874114990234 9.752625465393066,-47.82931137084961 14.793624877929688,-44.46831130981445 C19.834625244140625,-41.10831069946289 19.207687377929688,-6.52468729019165 20.047687530517578,0.1953125 C20.88768768310547,6.9163126945495605 24.058124542236328,35.260311126708984 18.70112419128418,41.64931106567383 C9.777125358581543,52.293312072753906 -4.422124862670898,49.77149963378906 -9.869125366210938,48.06949996948242 C-14.228124618530273,46.70750045776367 -17.746000289916992,40.36899948120117 -21.364999771118164,33.41299819946289z"></path><path stroke-linecap="round" stroke-linejoin="round" fill-opacity="0" stroke="rgb(181,95,48)" stroke-opacity="1" stroke-width="9" d=" M-21.364999771118164,33.41299819946289 C-24.110000610351562,28.13599967956543 -22.088499069213867,22.36862564086914 -18.485124588012695,17.661375045776367 C-16.09862518310547,14.25825023651123 -12.696249961853027,10.400875091552734 -11.629249572753906,5.672874927520752 C-8.688249588012695,-7.348124980926514 -1.8904999494552612,-36.67850112915039 0.3608750104904175,-42.0516242980957 C4.751937389373779,-52.499874114990234 9.752625465393066,-47.82931137084961 14.793624877929688,-44.46831130981445 C19.834625244140625,-41.10831069946289 19.207687377929688,-6.52468729019165 20.047687530517578,0.1953125 C20.88768768310547,6.9163126945495605 24.058124542236328,35.260311126708984 18.70112419128418,41.64931106567383 C9.777125358581543,52.293312072753906 -4.422124862670898,49.77149963378906 -9.869125366210938,48.06949996948242 C-14.228124618530273,46.70750045776367 -17.746000289916992,40.36899948120117 -21.364999771118164,33.41299819946289z"></path></g><g opacity="1" transform="matrix(1,0,0,1,56.12699890136719,65.0469970703125)"><path stroke-linecap="round" stroke-linejoin="round" fill-opacity="0" stroke="rgb(181,95,48)" stroke-opacity="1" stroke-width="7" d=" M6.28463888168335,-19.411338806152344 C6.28463888168335,-19.411338806152344 -2.1968843936920166,-17.790836334228516 -2.616884469985962,-14.42983627319336 C-3.0368845462799072,-11.069836616516113 -5.576943397521973,11.317438125610352 -5.711540222167969,13.879770278930664 C-5.738157749176025,15.976694107055664 -6.6069560050964355,19.7570858001709 -6.6069560050964355,19.7570858001709"></path></g><g opacity="1" transform="matrix(1,0,0,1,76.40799713134766,62.696998596191406)"><path stroke-linecap="round" stroke-linejoin="round" fill-opacity="0" stroke="rgb(181,95,48)" stroke-opacity="1" stroke-width="8" d=" M-7.436999797821045,-19.68400001525879 C-7.436999797821045,-19.68400001525879 -2.3959999084472656,-17.163999557495117 -1.1360000371932983,-12.123000144958496 C0.12399999797344208,-7.083000183105469 2.680000066757202,9.16100025177002 3.940000057220459,12.10099983215332 C5.199999809265137,15.041000366210938 7.436999797821045,19.68400001525879 7.436999797821045,19.68400001525879"></path></g><g opacity="1" transform="matrix(1,0,0,1,48.49300003051758,86.33100128173828)"><path fill="rgb(228,154,104)" fill-opacity="1" d=" M12.606562614440918,-14.079500198364258 C12.606562614440918,-14.079500198364258 12.341437339782715,6.71150016784668 9.798437118530273,13.250499725341797 C7.25543737411499,19.78849983215332 0.9236249923706055,22.399063110351562 -2.0546875,23.188438415527344 C-7.243562698364258,24.604999542236328 -16.30437469482422,23.095874786376953 -17.03037452697754,23.095874786376953 C-17.757375717163086,23.095874786376953 -15.484000205993652,26.97100067138672 -14.576000213623047,28.243000030517578 C-13.668000221252441,29.513999938964844 -12.395999908447266,31.694000244140625 -11.48799991607666,32.237998962402344 C-10.579999923706055,32.78300094604492 1.406999945640564,35.87099838256836 9.217000007629395,32.05699920654297 C17.027000427246094,28.243000030517578 15.756999969482422,17.163999557495117 15.937999725341797,11.895999908447266 C16.1200008392334,6.629000186920166 13.037812232971191,-29.37212562561035 12.855812072753906,-31.007125854492188 C12.674812316894531,-32.6411247253418 13.50837516784668,-33.322811126708984 12.78137493133545,-33.322811126708984 C12.055375099182129,-33.322811126708984 12.606562614440918,-14.079500198364258 12.606562614440918,-14.079500198364258z"></path></g><g opacity="1" transform="matrix(1,0,0,1,86.67900085449219,88.10099792480469)"><path fill="rgb(229,154,104)" fill-opacity="1" d=" M-16.34600067138672,-34.4640007019043 C-16.34600067138672,-34.4640007019043 -13.621999740600586,-27.381000518798828 -13.348999977111816,-20.024999618530273 C-13.07699966430664,-12.668999671936035 -8.895999908447266,13.70300006866455 -5.625999927520752,16.427000045776367 C-2.3570001125335693,19.152000427246094 4.923999786376953,21.844999313354492 8.46500015258789,21.844999313354492 C12.006999969482422,21.844999313354492 19.197999954223633,19.777999877929688 19.197999954223633,19.777999877929688 C19.197999954223633,19.777999877929688 17.163999557495117,30.104000091552734 16.347000122070312,30.375999450683594 C15.529000282287598,30.64900016784668 1.090000033378601,34.4630012512207 -8.444999694824219,30.375999450683594 C-17.981000900268555,26.290000915527344 -13.348999977111816,17.299999237060547 -13.894000053405762,10.76200008392334 C-14.439000129699707,4.2230000495910645 -16.618000030517578,-21.659000396728516 -16.618000030517578,-22.749000549316406 C-16.618000030517578,-23.839000701904297 -16.34600067138672,-34.4640007019043 -16.34600067138672,-34.4640007019043z"></path></g><g opacity="1" transform="matrix(1,0,0,1,0,0)"><path stroke-linecap="round" stroke-linejoin="round" fill-opacity="0" stroke="rgb(181,95,48)" stroke-opacity="1" stroke-width="8" d=" M94.56800079345703,66.94499969482422 C94.56800079345703,66.94499969482422 88.47699737548828,49.98099899291992 85.14399719238281,43.40399932861328 C81.73300170898438,36.67300033569336 80.10399627685547,27.996999740600586 72.66400146484375,28.15399932861328 C64.61599731445312,28.323999404907227 65.08699798583984,37.387001037597656 65.08699798583984,37.387001037597656"></path></g><g opacity="1" transform="matrix(1,0,0,1,0,0)"><path stroke-linecap="round" stroke-linejoin="round" fill-opacity="0" stroke="rgb(181,95,48)" stroke-opacity="1" stroke-width="7" d=" M61.827999114990234,32.36199951171875 C61.827999114990234,32.36199951171875 61.012001037597656,26.288999557495117 52.9900016784668,28.222000122070312 C48.34700012207031,29.340999603271484 44.54399871826172,42.62300109863281 41.78900146484375,52.49599838256836 C38.96900177001953,62.604000091552734 36.05400085449219,76.40599822998047 36.05400085449219,76.40599822998047"></path></g></g><g style="display: block;" transform="matrix(1,0,0,1,256,256)" opacity="1"></g><g style="display: block;" transform="matrix(1.2050503492355347,0.054836928844451904,-0.0584033727645874,1.153269648551941,52.0987434387207,220.54592895507812)" opacity="1"><g opacity="1" transform="matrix(1,0,0,1,226.81100463867188,83.86799621582031)"><path stroke-linecap="round" stroke-linejoin="round" fill-opacity="0" stroke="rgb(181,95,48)" stroke-opacity="1" stroke-width="10" d=" M-37.457000732421875,-2.3329999446868896 C-35.880001068115234,-1.9390000104904175 -16.341999053955078,-9.496000289916992 6.702000141143799,-6.670000076293945 C25.163000106811523,-4.4070000648498535 31.148000717163086,0.8209999799728394 33.513999938964844,3.5810000896453857 C35.880001068115234,6.341000080108643 37.457000732421875,9.496000289916992 37.457000732421875,9.496000289916992"></path></g><g opacity="1" transform="matrix(1,0,0,1,0,0)"><path fill="rgb(247,204,167)" fill-opacity="1" d=" M43.3489990234375,33.24399948120117 C36.00199890136719,32.5359992980957 25.195999145507812,38.099998474121094 25.195999145507812,38.099998474121094 C25.195999145507812,38.099998474121094 40.72100067138672,39.3390007019043 45.882999420166016,41.76499938964844 C52.167999267578125,44.71799850463867 63.308998107910156,54.58599853515625 67.76000213623047,52.11000061035156 C72.21099853515625,49.63399887084961 69.9229965209961,51.72200012207031 65.3759994506836,45.75299835205078 C60.82899856567383,39.784000396728516 48.09400177001953,33.70100021362305 43.3489990234375,33.24399948120117z"></path></g><g opacity="1" transform="matrix(1,0,0,1,47.67100143432617,37.814998626708984)"><path stroke-linecap="round" stroke-linejoin="round" fill-opacity="0" stroke="rgb(181,95,48)" stroke-opacity="1" stroke-width="10" d=" M-22.67099952697754,-4.534999847412109 C-22.67099952697754,-4.534999847412109 -11.631999969482422,-12.8149995803833 4.927999973297119,-4.534999847412109 C21.488000869750977,3.744999885559082 22.67099952697754,12.8149995803833 22.67099952697754,12.8149995803833"></path></g></g></g><g style="display: block;" transform="matrix(1,0,0,1,256,256)" opacity="1"></g></g></svg>