<svg xmlns="http://www.w3.org/2000/svg" xmlns:xlink="http://www.w3.org/1999/xlink" viewBox="0 0 512 512" width="512" height="512" style="width: 100%; height: 100%; transform: translate3d(0,0,0); content-visibility: visible;" preserveAspectRatio="xMidYMid meet"><defs><clipPath id="__lottie_element_2"><rect width="512" height="512" x="0" y="0"></rect></clipPath><radialGradient id="__lottie_element_80" spreadMethod="pad" gradientUnits="userSpaceOnUse" cx="-3.7850000858306885" cy="-165.9550018310547" r="338.80500774187175" fx="-3.7850000858306885" fy="-165.9550018310547"><stop offset="0%" stop-color="rgb(249,228,212)"></stop><stop offset="50%" stop-color="rgb(250,212,184)"></stop><stop offset="100%" stop-color="rgb(251,197,156)"></stop></radialGradient></defs><g clip-path="url(#__lottie_element_2)"><g style="display: block;" transform="matrix(1,0,0,1,255.99940490722656,255.9998779296875)" opacity="1"><g opacity="1" transform="matrix(1,0,0,1,0,0)"><path fill="url(#__lottie_element_80)" fill-opacity="1" d=" M-149.56900024414062,117.34500122070312 C-267.9010009765625,40.66600036621094 -198.15199279785156,-49.952999114990234 -185.8159942626953,-101.75700378417969 C-172.5229949951172,-157.5800018310547 -142.25599670410156,-196.32200622558594 -104.18299865722656,-210.52999877929688 C-66.11000061035156,-224.73800659179688 -11.317000389099121,-229.9980010986328 69.53700256347656,-205.052001953125 C229.2899932861328,-155.76400756835938 174.6580047607422,-10.003000259399414 177.6009979248047,13.404999732971191 C192.75,133.90499877929688 128.9429931640625,160.00900268554688 72.66699981689453,164.29600524902344 C47.54100036621094,166.2100067138672 -46.93899917602539,183.8489990234375 -149.56900024414062,117.34500122070312z"></path><path stroke-linecap="butt" stroke-linejoin="miter" fill-opacity="0" stroke-miterlimit="10" stroke="rgb(184,99,72)" stroke-opacity="1" stroke-width="14.173" d=" M-149.56900024414062,117.34500122070312 C-267.9010009765625,40.66600036621094 -198.15199279785156,-49.952999114990234 -185.8159942626953,-101.75700378417969 C-172.5229949951172,-157.5800018310547 -142.25599670410156,-196.32200622558594 -104.18299865722656,-210.52999877929688 C-66.11000061035156,-224.73800659179688 -11.317000389099121,-229.9980010986328 69.53700256347656,-205.052001953125 C229.2899932861328,-155.76400756835938 174.6580047607422,-10.003000259399414 177.6009979248047,13.404999732971191 C192.75,133.90499877929688 128.9429931640625,160.00900268554688 72.66699981689453,164.29600524902344 C47.54100036621094,166.2100067138672 -46.93899917602539,183.8489990234375 -149.56900024414062,117.34500122070312z"></path></g></g><g style="display: block;" transform="matrix(1,0,0,1,250.0006103515625,262.4997253417969)" opacity="1"><g opacity="1" transform="matrix(1,0,0,1,0,0)"><path fill="rgb(102,29,22)" fill-opacity="1" d=" M-137.1719970703125,-20.23900032043457 C-164.76699829101562,2.8450000286102295 -181.58900451660156,73.28600311279297 -99.93199920654297,109.5780029296875 C-67.54199981689453,123.9739990234375 49.41400146484375,138.968994140625 74.01399993896484,138.968994140625 C102.20500183105469,138.968994140625 139.6479949951172,122.89600372314453 141.1929931640625,52.59600067138672 C142.39300537109375,-1.9869999885559082 60.733001708984375,-7.63100004196167 25.422000885009766,-14.753999710083008 C-2.4000000953674316,-20.365999221801758 -105.93000030517578,-46.37300109863281 -137.1719970703125,-20.23900032043457z"></path></g><g opacity="1" transform="matrix(1,0,0,1,0,0)"><g opacity="1" transform="matrix(1,0,0,1,0,0)"><path fill="rgb(211,103,129)" fill-opacity="1" d=" M-147.91700744628906,67.59100341796875 C-147.91700744628906,67.59100341796875 -135.0290069580078,57.56399917602539 -124.85600280761719,61.47700119018555 C-114.68299865722656,65.38999938964844 89.33000183105469,96.90899658203125 97.15499877929688,109.42900085449219 C104.9800033569336,121.9489974975586 107.3280029296875,132.90499877929688 107.3280029296875,132.90499877929688 C107.3280029296875,132.90499877929688 74.82599639892578,145.33599853515625 -31.17799949645996,126.12300109863281 C-140.46499633789062,106.31500244140625 -147.91700744628906,67.59100341796875 -147.91700744628906,67.59100341796875z"></path><path stroke-linecap="round" stroke-linejoin="round" fill-opacity="0" stroke="rgb(150,57,68)" stroke-opacity="1" stroke-width="8" d=" M-147.91700744628906,67.59100341796875 C-147.91700744628906,67.59100341796875 -135.0290069580078,57.56399917602539 -124.85600280761719,61.47700119018555 C-114.68299865722656,65.38999938964844 89.33000183105469,96.90899658203125 97.15499877929688,109.42900085449219 C104.9800033569336,121.9489974975586 107.3280029296875,132.90499877929688 107.3280029296875,132.90499877929688 C107.3280029296875,132.90499877929688 74.82599639892578,145.33599853515625 -31.17799949645996,126.12300109863281 C-140.46499633789062,106.31500244140625 -147.91700744628906,67.59100341796875 -147.91700744628906,67.59100341796875z"></path></g><g opacity="1" transform="matrix(1,0,0,1,0,0)"><path fill="rgb(255,255,255)" fill-opacity="1" d=" M-133.52200317382812,62.792999267578125 C-134.30299377441406,58.33399963378906 -118.5270004272461,30.402999877929688 -83.18699645996094,40.71699905395508 C-77.15899658203125,42.47600173950195 45.71799850463867,83.19499969482422 103.35800170898438,86.58200073242188 C105.56999969482422,96.60399627685547 106.21199798583984,115.0250015258789 101.81400299072266,119.09600067138672 C72.20899963378906,135.8509979248047 51.24800109863281,117.51599884033203 51.24800109863281,117.51599884033203 C51.24800109863281,117.51599884033203 12.684000015258789,129.63699340820312 -0.6859999895095825,108.18199920654297 C-5.958000183105469,115.24700164794922 -43.24300003051758,117.86299896240234 -49.26300048828125,100.8219985961914 C-49.26300048828125,100.8219985961914 -96.99600219726562,111.64700317382812 -102.90899658203125,78.12899780273438 C-99.82499694824219,79.2699966430664 -123.50599670410156,83.5260009765625 -133.52200317382812,62.792999267578125z"></path><path stroke-linecap="round" stroke-linejoin="round" fill-opacity="0" stroke="rgb(81,136,158)" stroke-opacity="1" stroke-width="10.995" d=" M-133.52200317382812,62.792999267578125 C-134.30299377441406,58.33399963378906 -118.5270004272461,30.402999877929688 -83.18699645996094,40.71699905395508 C-77.15899658203125,42.47600173950195 45.71799850463867,83.19499969482422 103.35800170898438,86.58200073242188 C105.56999969482422,96.60399627685547 106.21199798583984,115.0250015258789 101.81400299072266,119.09600067138672 C72.20899963378906,135.8509979248047 51.24800109863281,117.51599884033203 51.24800109863281,117.51599884033203 C51.24800109863281,117.51599884033203 12.684000015258789,129.63699340820312 -0.6859999895095825,108.18199920654297 C-5.958000183105469,115.24700164794922 -43.24300003051758,117.86299896240234 -49.26300048828125,100.8219985961914 C-49.26300048828125,100.8219985961914 -96.99600219726562,111.64700317382812 -102.90899658203125,78.12899780273438 C-99.82499694824219,79.2699966430664 -123.50599670410156,83.5260009765625 -133.52200317382812,62.792999267578125z"></path></g><g opacity="1" transform="matrix(1,0,0,1,0,0)"><path stroke-linecap="round" stroke-linejoin="round" fill-opacity="0" stroke="rgb(81,136,158)" stroke-opacity="1" stroke-width="11.207" d=" M-83.18699645996094,40.71699905395508 C-96.71099853515625,55.40700149536133 -100.8219985961914,83.60600280761719 -100.8219985961914,83.60600280761719"></path></g><g opacity="1" transform="matrix(1,0,0,1,0,0)"><path stroke-linecap="round" stroke-linejoin="round" fill-opacity="0" stroke="rgb(81,136,158)" stroke-opacity="1" stroke-width="11.207" d=" M-33.7859992980957,56.21799850463867 C-33.7859992980957,56.21799850463867 -41.26300048828125,69.43399810791016 -44.74100112915039,85.43199920654297 C-47.85200119018555,99.74199676513672 -47.87099838256836,102.8219985961914 -47.87099838256836,102.8219985961914"></path></g><g opacity="1" transform="matrix(1,0,0,1,0,0)"><path stroke-linecap="round" stroke-linejoin="round" fill-opacity="0" stroke="rgb(81,136,158)" stroke-opacity="1" stroke-width="11.207" d=" M-0.6859999895095825,108.93800354003906 C-0.6859999895095825,108.93800354003906 14.765999794006348,91.2770004272461 15.317999839782715,71.96199798583984"></path></g><g opacity="1" transform="matrix(1,0,0,1,0,0)"><path stroke-linecap="round" stroke-linejoin="round" fill-opacity="0" stroke="rgb(81,136,158)" stroke-opacity="1" stroke-width="11.207" d=" M60.11600112915039,81.77999877929688 C60.11600112915039,81.77999877929688 58.37699890136719,108.21199798583984 54.724998474121094,117.08100128173828"></path></g></g><g opacity="1" transform="matrix(1,0,0,1,0,0)"><g opacity="1" transform="matrix(1,0,0,1,0,0)"><path fill="rgb(211,103,129)" fill-opacity="1" d=" M-133.94900512695312,-19.94700050354004 C-133.94900512695312,-19.94700050354004 -131.51800537109375,-5.980000019073486 -122.64900207519531,1.3240000009536743 C-113.77999877929688,8.628000259399414 102.37200164794922,63.52199935913086 113.3270034790039,59.869998931884766 C124.28199768066406,56.21799850463867 131.06399536132812,35.87300109863281 131.06399536132812,35.87300109863281 C131.06399536132812,35.87300109863281 125.8479995727539,12.397000312805176 100.80699920654297,3.006999969482422 C81.0260009765625,-4.410999774932861 -29.613000869750977,-25.68600082397461 -78.6510009765625,-29.858999252319336 C-122.83399963378906,-33.61899948120117 -133.94900512695312,-19.94700050354004 -133.94900512695312,-19.94700050354004z"></path><path stroke-linecap="round" stroke-linejoin="round" fill-opacity="0" stroke="rgb(150,57,68)" stroke-opacity="1" stroke-width="8" d=" M-133.94900512695312,-19.94700050354004 C-133.94900512695312,-19.94700050354004 -131.51800537109375,-5.980000019073486 -122.64900207519531,1.3240000009536743 C-113.77999877929688,8.628000259399414 102.37200164794922,63.52199935913086 113.3270034790039,59.869998931884766 C124.28199768066406,56.21799850463867 131.06399536132812,35.87300109863281 131.06399536132812,35.87300109863281 C131.06399536132812,35.87300109863281 125.8479995727539,12.397000312805176 100.80699920654297,3.006999969482422 C81.0260009765625,-4.410999774932861 -29.613000869750977,-25.68600082397461 -78.6510009765625,-29.858999252319336 C-122.83399963378906,-33.61899948120117 -133.94900512695312,-19.94700050354004 -133.94900512695312,-19.94700050354004z"></path></g><g opacity="1" transform="matrix(1,0,0,1,0,0)"><path fill="rgb(255,255,255)" fill-opacity="1" d=" M-120.63800048828125,-8.10200023651123 C-120.63800048828125,-8.10200023651123 -103.4219970703125,-35.52799987792969 -78.63099670410156,-8.052000045776367 C-48.14899826049805,-37.49100112915039 -25.143999099731445,4.164000034332275 -25.143999099731445,4.164000034332275 C-25.143999099731445,4.164000034332275 7.5920000076293945,-33.99599838256836 38.465999603271484,15.527000427246094 C41.255001068115234,18.982999801635742 76.57599639892578,-16.88800048828125 94.80799865722656,28.569000244140625 C144.7050018310547,12.315999984741211 104.01200103759766,85.11199951171875 93.13099670410156,84.65499877929688 C32.97800064086914,77.48100280761719 -75.09200286865234,41.5099983215332 -78.49199676513672,40.176998138427734 C-81.89199829101562,38.84400177001953 -106.5770034790039,39.25299835205078 -113.60299682617188,34.30799865722656 C-120.62899780273438,29.363000869750977 -120.63800048828125,-8.10200023651123 -120.63800048828125,-8.10200023651123z"></path><path stroke-linecap="round" stroke-linejoin="round" fill-opacity="0" stroke="rgb(81,136,158)" stroke-opacity="1" stroke-width="11.207" d=" M-120.63800048828125,-8.10200023651123 C-120.63800048828125,-8.10200023651123 -103.4219970703125,-35.52799987792969 -78.63099670410156,-8.052000045776367 C-48.14899826049805,-37.49100112915039 -25.143999099731445,4.164000034332275 -25.143999099731445,4.164000034332275 C-25.143999099731445,4.164000034332275 7.5920000076293945,-33.99599838256836 38.465999603271484,15.527000427246094 C41.255001068115234,18.982999801635742 76.57599639892578,-16.88800048828125 94.80799865722656,28.569000244140625 C144.7050018310547,12.315999984741211 104.01200103759766,85.11199951171875 93.13099670410156,84.65499877929688 C32.97800064086914,77.48100280761719 -75.09200286865234,41.5099983215332 -78.49199676513672,40.176998138427734 C-81.89199829101562,38.84400177001953 -106.5770034790039,39.25299835205078 -113.60299682617188,34.30799865722656 C-120.62899780273438,29.363000869750977 -120.63800048828125,-8.10200023651123 -120.63800048828125,-8.10200023651123z"></path></g><g opacity="1" transform="matrix(1,0,0,1,0,0)"><path stroke-linecap="round" stroke-linejoin="round" fill-opacity="0" stroke="rgb(81,136,158)" stroke-opacity="1" stroke-width="11.207" d=" M-78.63099670410156,-8.052000045776367 C-82.91400146484375,10.154000282287598 -80.21600341796875,37.95899963378906 -80.21600341796875,37.95899963378906"></path></g><g opacity="1" transform="matrix(1,0,0,1,0,0)"><path stroke-linecap="round" stroke-linejoin="round" fill-opacity="0" stroke="rgb(81,136,158)" stroke-opacity="1" stroke-width="11.207" d=" M-24.917999267578125,1.9639999866485596 C-33.24700164794922,16.224000930786133 -33.263999938964844,51.000999450683594 -33.263999938964844,51.000999450683594"></path></g><g opacity="1" transform="matrix(1,0,0,1,0,0)"><path stroke-linecap="round" stroke-linejoin="round" fill-opacity="0" stroke="rgb(81,136,158)" stroke-opacity="1" stroke-width="11.207" d=" M39.770999908447266,15.005999565124512 C42.9119987487793,43.81800079345703 17.860000610351562,66.12999725341797 17.860000610351562,66.12999725341797"></path></g><g opacity="1" transform="matrix(1,0,0,1,0,0)"><path stroke-linecap="round" stroke-linejoin="round" fill-opacity="0" stroke="rgb(81,136,158)" stroke-opacity="1" stroke-width="11.207" d=" M95.3290023803711,28.569000244140625 C86.5999984741211,68.80400085449219 64.81099700927734,78.12899780273438 64.81099700927734,78.12899780273438"></path></g></g><g opacity="1" transform="matrix(1,0,0,1,0,0)"><g opacity="0.63" transform="matrix(1,0,0,1,0,0)"><path stroke-linecap="round" stroke-linejoin="round" fill-opacity="0" stroke="rgb(184,99,72)" stroke-opacity="1" stroke-width="13.106" d=" M-147.7270050048828,-56.87900161743164 C-234.51300048828125,-19.695999145507812 -173.07400512695312,70.82499694824219 -173.07400512695312,70.82499694824219"></path></g><g opacity="0.63" transform="matrix(1,0,0,1,0,0)"><path stroke-linecap="round" stroke-linejoin="round" fill-opacity="0" stroke="rgb(184,99,72)" stroke-opacity="1" stroke-width="11.339" d=" M155.8769989013672,8.38599967956543 C155.8769989013672,8.38599967956543 181.03599548339844,68.15499877929688 128.3560028076172,131.19900512695312"></path></g><g opacity="1" transform="matrix(1,0,0,1,0,0)"><path stroke-linecap="butt" stroke-linejoin="miter" fill-opacity="0" stroke-miterlimit="10" stroke="rgb(76,22,15)" stroke-opacity="1" stroke-width="13" d=" M-137.1719970703125,-20.23900032043457 C-164.76699829101562,2.8450000286102295 -181.58900451660156,73.28600311279297 -99.93199920654297,109.5780029296875 C-67.54199981689453,123.9739990234375 49.41400146484375,138.968994140625 74.01399993896484,138.968994140625 C102.20500183105469,138.968994140625 139.6479949951172,122.89600372314453 141.1929931640625,52.59600067138672 C142.39300537109375,-1.9869999885559082 60.733001708984375,-7.63100004196167 25.422000885009766,-14.753999710083008 C-2.4000000953674316,-20.365999221801758 -105.93000030517578,-46.37300109863281 -137.1719970703125,-20.23900032043457z"></path></g></g></g><g style="display: block;" transform="matrix(1,0,0,1,255.9996795654297,255.99945068359375)" opacity="1"><g opacity="1" transform="matrix(1,0,0,1,0,0)"><g opacity="0.63" transform="matrix(1,0,0,1,0,0)"><path stroke-linecap="round" stroke-linejoin="round" fill-opacity="0" stroke="rgb(184,99,72)" stroke-opacity="1" stroke-width="11.339" d=" M-138.35299682617188,-94.38999938964844 C-138.35299682617188,-94.38999938964844 -139.54600524902344,-50.45500183105469 -48.915000915527344,-64.81099700927734"></path></g><g opacity="0.63" transform="matrix(1,0,0,1,0,0)"><path stroke-linecap="round" stroke-linejoin="round" fill-opacity="0" stroke="rgb(184,99,72)" stroke-opacity="1" stroke-width="11.339" d=" M42.301998138427734,-50.209999084472656 C80.84200286865234,-7.959000110626221 121.56500244140625,-8.859000205993652 121.56500244140625,-8.859000205993652"></path></g></g><g opacity="1" transform="matrix(1,0,0,1,0,0)"><g opacity="1" transform="matrix(1,0,0,1,0,0)"><path fill="rgb(255,255,255)" fill-opacity="1" d=" M71.47000122070312,-117.1729965209961 C55.59700012207031,-104.1780014038086 49.1619987487793,-88.83999633789062 49.869998931884766,-74.66600036621094 C50.577999114990234,-60.49100112915039 58.428001403808594,-47.47999954223633 71.12699890136719,-39.13800048828125 C96.5250015258789,-22.45400047302246 136.0050048828125,-16.14299964904785 156.02000427246094,-56.27899932861328 C178.58599853515625,-101.53099822998047 107.86900329589844,-146.9720001220703 71.47000122070312,-117.1729965209961z"></path></g><g opacity="1" transform="matrix(1,0,0,1,0,0)"><path fill="rgb(255,255,255)" fill-opacity="1" d=" M-79.65899658203125,-160.468994140625 C-108.05999755859375,-152.9759979248047 -121.61199951171875,-111.36000061035156 -107.05599975585938,-86.31900024414062 C-92.5,-61.27799987792969 -54.57500076293945,-61.5359992980957 -28.334999084472656,-70.5780029296875 C-2.0950000286102295,-79.62000274658203 15.274999618530273,-89.61799621582031 13.517999649047852,-113.00199890136719 C11.76099967956543,-136.38600158691406 -27.72800064086914,-174.1699981689453 -79.65899658203125,-160.468994140625z"></path></g><g opacity="1" transform="matrix(1,0,0,1,0,0)"><path fill="rgb(193,220,229)" fill-opacity="1" d=" M55.472999572753906,-92.7959976196289 C69.9530029296875,-31.788000106811523 139.23699951171875,-39.42300033569336 139.23699951171875,-39.42300033569336 C139.23699951171875,-39.42300033569336 107.83599853515625,-2.302999973297119 59.500999450683594,-52.516998291015625 C42.49300003051758,-70.18599700927734 52.250999450683594,-92.7959976196289 55.472999572753906,-92.7959976196289z"></path></g><g opacity="1" transform="matrix(1,0,0,1,0,0)"><path fill="rgb(193,220,229)" fill-opacity="1" d=" M-104.79199981689453,-114.6989974975586 C-97.94300079345703,-58.1870002746582 -4.39900016784668,-78.96399688720703 4.413000106811523,-94.5270004272461 C4.413000106811523,-94.5270004272461 -40.12200164794922,-43.92499923706055 -92.48400115966797,-72.12000274658203 C-110.85700225830078,-82.01300048828125 -109.31300354003906,-112.7030029296875 -104.79199981689453,-114.6989974975586z"></path></g></g><g opacity="1" transform="matrix(1,0,0,1,0,0)"><g opacity="1" transform="matrix(1,0,0,1,-2.3440093994140625,4.7819976806640625)"><g opacity="1" transform="matrix(1,0,0,1,0,0)"><path fill="rgb(105,179,209)" fill-opacity="1" d=" M103.28700256347656,-74.57499694824219 C101.61000061035156,-59.27000045776367 103.81500244140625,-47.26900100708008 126.61299896240234,-43.32400131225586 C142.4530029296875,-40.58300018310547 156.97900390625,-55.10900115966797 156.2530059814453,-70.36199951171875 C155.625,-83.5459976196289 151.42300415039062,-93.6780014038086 139.57699584960938,-97.00399780273438 C132.28500366210938,-99.0510025024414 106.2249984741211,-101.38899993896484 103.28700256347656,-74.57499694824219z"></path><path stroke-linecap="round" stroke-linejoin="round" fill-opacity="0" stroke="rgb(64,124,173)" stroke-opacity="1" stroke-width="10.909" d=" M103.28700256347656,-74.57499694824219 C101.61000061035156,-59.27000045776367 103.81500244140625,-47.26900100708008 126.61299896240234,-43.32400131225586 C142.4530029296875,-40.58300018310547 156.97900390625,-55.10900115966797 156.2530059814453,-70.36199951171875 C155.625,-83.5459976196289 151.42300415039062,-93.6780014038086 139.57699584960938,-97.00399780273438 C132.28500366210938,-99.0510025024414 106.2249984741211,-101.38899993896484 103.28700256347656,-74.57499694824219z"></path></g><g opacity="1" transform="matrix(1,0,0,1,0,0)"><path fill="rgb(25,28,51)" fill-opacity="1" d=" M116.60800170898438,-72.22100067138672 C115.99800109863281,-67.33499908447266 117.43699645996094,-62.09000015258789 123.78399658203125,-58.012001037597656 C140.10400390625,-47.525001525878906 147.94700622558594,-52.433998107910156 152.14199829101562,-58.96200180053711 C156.33700561523438,-65.48999786376953 156.70700073242188,-80.1760025024414 141.4010009765625,-85.5459976196289 C134.80799865722656,-87.85900115966797 117.77899932861328,-81.59300231933594 116.60800170898438,-72.22100067138672z"></path></g><g opacity="1" transform="matrix(1,0,0,1,0,0)"><path fill="rgb(255,255,255)" fill-opacity="1" d=" M118.73600006103516,-72.79100036621094 C114.98799896240234,-71.64600372314453 110.61199951171875,-66.69000244140625 115.77300262451172,-61.32600021362305 C120.93399810791016,-55.96200180053711 128.29100036621094,-57.94300079345703 128.9290008544922,-65.05999755859375 C129.447998046875,-70.8489990234375 123.875,-74.36100006103516 118.73600006103516,-72.79100036621094z"></path></g></g><g opacity="1" transform="matrix(1,0,0,1,-2.9359989166259766,-0.7259979248046875)"><g opacity="1" transform="matrix(1,0,0,1,0,0)"><path fill="rgb(105,179,209)" fill-opacity="1" d=" M-53.43600082397461,-108.28500366210938 C-54.37200164794922,-96.81500244140625 -49.65599822998047,-85.56700134277344 -32.569000244140625,-82.89600372314453 C-15.482000350952148,-80.2249984741211 -4.644999980926514,-90.9489974975586 -5.789000034332275,-105.50199890136719 C-6.933000087738037,-120.05500030517578 -17.937000274658203,-125.87200164794922 -27.003999710083008,-127.41300201416016 C-36.07099914550781,-128.95399475097656 -52.04499816894531,-125.3270034790039 -53.43600082397461,-108.28500366210938z"></path><path stroke-linecap="round" stroke-linejoin="round" fill-opacity="0" stroke="rgb(64,124,173)" stroke-opacity="1" stroke-width="8.154" d=" M-53.43600082397461,-108.28500366210938 C-54.37200164794922,-96.81500244140625 -49.65599822998047,-85.56700134277344 -32.569000244140625,-82.89600372314453 C-15.482000350952148,-80.2249984741211 -4.644999980926514,-90.9489974975586 -5.789000034332275,-105.50199890136719 C-6.933000087738037,-120.05500030517578 -17.937000274658203,-125.87200164794922 -27.003999710083008,-127.41300201416016 C-36.07099914550781,-128.95399475097656 -52.04499816894531,-125.3270034790039 -53.43600082397461,-108.28500366210938z"></path></g><g opacity="1" transform="matrix(1,0,0,1,0,0)"><path fill="rgb(25,28,51)" fill-opacity="1" d=" M-34.67900085449219,-118.9520034790039 C-41.89400100708008,-116.69000244140625 -50.35499954223633,-107.01499938964844 -40.48699951171875,-96.64099884033203 C-30.618999481201172,-86.26699829101562 -16.458999633789062,-90.18900299072266 -15.161999702453613,-104.02799987792969 C-14.107000350952148,-115.28399658203125 -24.785999298095703,-122.05400085449219 -34.67900085449219,-118.9520034790039z"></path></g><g opacity="1" transform="matrix(1,0,0,1,0,0)"><path fill="rgb(255,255,255)" fill-opacity="1" d=" M-55.090999603271484,-109.697998046875 C-59.266998291015625,-108.38899993896484 -64.16300201416016,-102.78900146484375 -58.45199966430664,-96.78600311279297 C-52.74100112915039,-90.78299713134766 -44.547000885009766,-93.052001953125 -43.79600143432617,-101.06099700927734 C-43.185001373291016,-107.57499694824219 -49.36600112915039,-111.49299621582031 -55.090999603271484,-109.697998046875z"></path></g></g></g><g opacity="1" transform="matrix(1,0,0,1,0,0)"><g opacity="1" transform="matrix(1,0,0,1,0,0)"><path fill="rgb(255,255,255)" fill-opacity="1" d=" M-97.69200134277344,-148.802001953125 C-97.69200134277344,-148.802001953125 -80.16200256347656,-150.59800720214844 -64.30400085449219,-130.02099609375"></path><path stroke-linecap="round" stroke-linejoin="round" fill-opacity="0" stroke="rgb(242,97,115)" stroke-opacity="1" stroke-width="11.339" d=" M-97.69200134277344,-148.802001953125 C-97.69200134277344,-148.802001953125 -80.16200256347656,-150.59800720214844 -64.30400085449219,-130.02099609375"></path></g><g opacity="1" transform="matrix(1,0,0,1,0,0)"><path fill="rgb(255,255,255)" fill-opacity="1" d=" M-108.03800201416016,-101.3290023803711 C-108.03800201416016,-101.3290023803711 -83.6449966430664,-102.87100219726562 -78.12899780273438,-95.41699981689453"></path><path stroke-linecap="round" stroke-linejoin="round" fill-opacity="0" stroke="rgb(242,97,115)" stroke-opacity="1" stroke-width="11.339" d=" M-108.03800201416016,-101.3290023803711 C-108.03800201416016,-101.3290023803711 -83.6449966430664,-102.87100219726562 -78.12899780273438,-95.41699981689453"></path></g><g opacity="1" transform="matrix(1,0,0,1,0,0)"><path fill="rgb(255,255,255)" fill-opacity="1" d=" M-88.91000366210938,-114.54499816894531 C-102.41899871826172,-111.3239974975586 -106.64700317382812,-106.197998046875 -106.64700317382812,-106.197998046875"></path><path stroke-linecap="round" stroke-linejoin="round" fill-opacity="0" stroke="rgb(242,97,115)" stroke-opacity="1" stroke-width="11.339" d=" M-88.91000366210938,-114.54499816894531 C-102.41899871826172,-111.3239974975586 -106.64700317382812,-106.197998046875 -106.64700317382812,-106.197998046875"></path></g><g opacity="1" transform="matrix(1,0,0,1,0,0)"><path fill="rgb(255,255,255)" fill-opacity="1" d=" M53.68199920654297,-76.98400115966797 C53.68199920654297,-76.98400115966797 60.92300033569336,-65.31300354003906 81.15699768066406,-68.98500061035156"></path><path stroke-linecap="round" stroke-linejoin="round" fill-opacity="0" stroke="rgb(242,97,115)" stroke-opacity="1" stroke-width="11.339" d=" M53.68199920654297,-76.98400115966797 C53.68199920654297,-76.98400115966797 60.92300033569336,-65.31300354003906 81.15699768066406,-68.98500061035156"></path></g><g opacity="1" transform="matrix(1,0,0,1,0,0)"><path fill="rgb(255,255,255)" fill-opacity="1" d=" M84.11299896240234,-102.89399719238281 C75.34400177001953,-113.74099731445312 63.79800033569336,-110.25 63.79800033569336,-110.25"></path><path stroke-linecap="round" stroke-linejoin="round" fill-opacity="0" stroke="rgb(242,97,115)" stroke-opacity="1" stroke-width="11.839" d=" M84.11299896240234,-102.89399719238281 C75.34400177001953,-113.74099731445312 63.79800033569336,-110.25 63.79800033569336,-110.25"></path></g></g><g opacity="1" transform="matrix(1,0,0,1,0,0)"><path stroke-linecap="round" stroke-linejoin="round" fill-opacity="0" stroke="rgb(132,51,32)" stroke-opacity="1" stroke-width="11.339" d=" M133.82200622558594,-115.41600036621094 C119.81500244140625,-122.2699966430664 62.0620002746582,-142.5959930419922 49.244998931884766,-84.38200378417969 C45.439998626708984,-67.0999984741211 55.9739990234375,-49.09199905395508 71.12699890136719,-39.13800048828125 C96.5250015258789,-22.45400047302246 139.64599609375,-14.524999618530273 156.02000427246094,-56.27899932861328 C169.44700622558594,-90.51899719238281 148.0070037841797,-108.47599792480469 133.82200622558594,-115.41600036621094z"></path></g><g opacity="1" transform="matrix(1,0,0,1,0,0)"><path stroke-linecap="round" stroke-linejoin="round" fill-opacity="0" stroke="rgb(132,51,32)" stroke-opacity="1" stroke-width="11.339" d=" M-79.65899658203125,-160.468994140625 C-108.08000183105469,-153.0500030517578 -121.61199951171875,-111.36000061035156 -107.05599975585938,-86.31900024414062 C-92.5,-61.27799987792969 -54.57500076293945,-61.5359992980957 -28.334999084472656,-70.5780029296875 C-2.0950000286102295,-79.62000274658203 15.274999618530273,-89.61799621582031 13.517999649047852,-113.00199890136719 C11.76099967956543,-136.38600158691406 -27.176000595092773,-174.1699981689453 -79.65899658203125,-160.468994140625z"></path></g><g opacity="1" transform="matrix(1,0,0,1,0,0)"><path stroke-linecap="round" stroke-linejoin="round" fill-opacity="0" stroke="rgb(207,141,113)" stroke-opacity="1" stroke-width="11.339" d=" M46.85499954223633,-168.47999572753906 C46.85499954223633,-168.47999572753906 41.292999267578125,-128.6479949951172 15.77299976348877,-144.10699462890625 C-25.58099937438965,-169.1580047607422 -78.12899780273438,-180.1020050048828 -78.12899780273438,-180.1020050048828"></path></g><g opacity="1" transform="matrix(1,0,0,1,0,0)"><path stroke-linecap="round" stroke-linejoin="round" fill-opacity="0" stroke="rgb(208,141,113)" stroke-opacity="1" stroke-width="11.339" d=" M66.65599822998047,-162.7689971923828 C66.65599822998047,-162.7689971923828 59.595001220703125,-146.4550018310547 62.724998474121094,-140.9770050048828 C70.48999786376953,-127.38899993896484 115.5,-133 152.822998046875,-119.21900177001953"></path></g></g><g style="display: none;"><g><path></path><path stroke-linecap="butt" stroke-linejoin="miter" fill-opacity="0" stroke-miterlimit="4"></path></g></g><g style="display: none;"><g><path></path><path stroke-linecap="butt" stroke-linejoin="miter" fill-opacity="0" stroke-miterlimit="4"></path></g></g><g style="display: none;"><g><path></path><path stroke-linecap="butt" stroke-linejoin="miter" fill-opacity="0" stroke-miterlimit="4"></path></g></g><g style="display: none;"><g><path></path><path stroke-linecap="butt" stroke-linejoin="miter" fill-opacity="0" stroke-miterlimit="4"></path></g></g><g style="display: none;"><g><path></path><path stroke-linecap="butt" stroke-linejoin="miter" fill-opacity="0" stroke-miterlimit="4"></path></g></g><g style="display: none;"><g><path></path><path stroke-linecap="butt" stroke-linejoin="miter" fill-opacity="0" stroke-miterlimit="4"></path></g></g><g style="display: none;"><g><path></path><path stroke-linecap="butt" stroke-linejoin="miter" fill-opacity="0" stroke-miterlimit="4"></path></g></g><g style="display: none;"><g><path></path><path stroke-linecap="butt" stroke-linejoin="miter" fill-opacity="0" stroke-miterlimit="4"></path></g></g><g style="display: none;"><g><path></path><path stroke-linecap="butt" stroke-linejoin="miter" fill-opacity="0" stroke-miterlimit="4"></path></g></g><g style="display: none;"><g><path></path><path stroke-linecap="butt" stroke-linejoin="miter" fill-opacity="0" stroke-miterlimit="4"></path></g></g><g style="display: block;" transform="matrix(1,0,0,1,256,256)" opacity="1"><g opacity="1" transform="matrix(1,0,0,1,0,0)"><path fill="rgb(252,211,185)" fill-opacity="1" d=" M109.63400268554688,109.26399993896484 C109.63400268554688,109.26399993896484 118.03199768066406,66.83000183105469 133.94500732421875,55.77899932861328 C149.85800170898438,44.72800064086914 179.91600036621094,49.14799880981445 178.58999633789062,64.61900329589844 C177.26400756835938,80.08999633789062 153.83599853515625,76.55400085449219 148.53199768066406,83.6259994506836 C143.22799682617188,90.697998046875 153.83599853515625,107.49600219726562 153.83599853515625,107.49600219726562 C153.83599853515625,107.49600219726562 196.27099609375,97.77100372314453 182.12600708007812,153.46600341796875 C167.9810028076172,209.16099548339844 147.93299865722656,200.3249969482422 137.92300415039062,196.78500366210938 C57.91600036621094,168.4949951171875 109.63400268554688,109.26399993896484 109.63400268554688,109.26399993896484z"></path><path stroke-linecap="round" stroke-linejoin="round" fill-opacity="0" stroke="rgb(184,99,72)" stroke-opacity="1" stroke-width="12.189" d=" M109.63400268554688,109.26399993896484 C109.63400268554688,109.26399993896484 118.03199768066406,66.83000183105469 133.94500732421875,55.77899932861328 C149.85800170898438,44.72800064086914 179.91600036621094,49.14799880981445 178.58999633789062,64.61900329589844 C177.26400756835938,80.08999633789062 153.83599853515625,76.55400085449219 148.53199768066406,83.6259994506836 C143.22799682617188,90.697998046875 153.83599853515625,107.49600219726562 153.83599853515625,107.49600219726562 C153.83599853515625,107.49600219726562 196.27099609375,97.77100372314453 182.12600708007812,153.46600341796875 C167.9810028076172,209.16099548339844 147.93299865722656,200.3249969482422 137.92300415039062,196.78500366210938 C57.91600036621094,168.4949951171875 109.63400268554688,109.26399993896484 109.63400268554688,109.26399993896484z"></path></g><g opacity="1" transform="matrix(1,0,0,1,0,0)"><path fill="rgb(252,211,185)" fill-opacity="1" d=" M156.04600524902344,109.70600128173828 C156.04600524902344,109.70600128173828 199.36500549316406,84.06800079345703 219.25599670410156,88.48799896240234 C239.14700317382812,92.90799713134766 242.24200439453125,131.36500549316406 232.0749969482422,135.78500366210938 C210.3470001220703,145.23199462890625 208.64700317382812,118.10399627685547 208.64700317382812,118.10399627685547 C208.64700317382812,118.10399627685547 176.82200622558594,138.87899780273438 176.82200622558594,138.87899780273438"></path><path stroke-linecap="round" stroke-linejoin="round" fill-opacity="0" stroke="rgb(184,99,72)" stroke-opacity="1" stroke-width="12.189" d=" M156.04600524902344,109.70600128173828 C156.04600524902344,109.70600128173828 199.36500549316406,84.06800079345703 219.25599670410156,88.48799896240234 C239.14700317382812,92.90799713134766 242.24200439453125,131.36500549316406 232.0749969482422,135.78500366210938 C210.3470001220703,145.23199462890625 208.64700317382812,118.10399627685547 208.64700317382812,118.10399627685547 C208.64700317382812,118.10399627685547 176.82200622558594,138.87899780273438 176.82200622558594,138.87899780273438"></path></g><g opacity="1" transform="matrix(1,0,0,1,0,0)"><path fill="rgb(252,211,185)" fill-opacity="1" d=" M151.62600708007812,195.01699829101562 C158.91600036621094,209.9199981689453 205.1929931640625,227.2259979248047 203.34300231933594,198.55299377441406 C202.45899963378906,184.85000610351562 183.00999450683594,193.2480010986328 172.84300231933594,171.14700317382812"></path><path stroke-linecap="round" stroke-linejoin="round" fill-opacity="0" stroke="rgb(184,99,72)" stroke-opacity="1" stroke-width="12.189" d=" M151.62600708007812,195.01699829101562 C158.91600036621094,209.9199981689453 205.1929931640625,227.2259979248047 203.34300231933594,198.55299377441406 C202.45899963378906,184.85000610351562 183.00999450683594,193.2480010986328 172.84300231933594,171.14700317382812"></path></g><g opacity="1" transform="matrix(1,0,0,1,0,0)"><path fill="rgb(252,211,185)" fill-opacity="1" d=" M174.61099243164062,139.3209991455078 C174.61099243164062,139.3209991455078 194.06100463867188,130.92300415039062 215.72000122070312,149.92999267578125 C237.37899780273438,168.93699645996094 233.5,181 217.48800659179688,181.31399536132812 C202.7969970703125,181.6020050048828 189.197998046875,159.6540069580078 171.0749969482422,169.8209991455078"></path><path stroke-linecap="round" stroke-linejoin="round" fill-opacity="0" stroke="rgb(184,99,72)" stroke-opacity="1" stroke-width="12.189" d=" M174.61099243164062,139.3209991455078 C174.61099243164062,139.3209991455078 194.06100463867188,130.92300415039062 215.72000122070312,149.92999267578125 C237.37899780273438,168.93699645996094 233.5,181 217.48800659179688,181.31399536132812 C202.7969970703125,181.6020050048828 189.197998046875,159.6540069580078 171.0749969482422,169.8209991455078"></path></g><g opacity="0.63" transform="matrix(1,0,0,1,0,0)"><path stroke-linecap="round" stroke-linejoin="round" fill-opacity="0" stroke="rgb(184,99,72)" stroke-opacity="1" stroke-width="12.792" d=" M151.69500732421875,128.927001953125 C148.9739990234375,145.9510040283203 119.52200317382812,150.5260009765625 119.52200317382812,150.5260009765625"></path></g></g><g style="display: block;" transform="matrix(1,0,0,1,249.5,267)" opacity="1"><g opacity="1" transform="matrix(1,0,0,1,0,0)"><g opacity="1" transform="matrix(1,0,0,1,0,0)"><path fill="rgb(252,211,185)" fill-opacity="1" d=" M46.222999572753906,131.56399536132812 C21.388999938964844,159.15699768066406 -0.1340000033378601,134.875 -0.906000018119812,124.06400299072266 C-1.6369999647140503,113.83000183105469 28.900999069213867,129.99400329589844 18.628999710083008,103.97100067138672 C10.35099983215332,83 -64.1510009765625,89.06999969482422 -15.03499984741211,164.12399291992188 C-21.106000900268555,224.27699279785156 36.108001708984375,244.01199340820312 74.91999816894531,223.1739959716797 C95.7699966430664,211.97999572753906 103.31199645996094,191.53199768066406 80.01000213623047,158.78900146484375 C56.70800018310547,126.0459976196289 46.222999572753906,131.56399536132812 46.222999572753906,131.56399536132812z"></path><path stroke-linecap="round" stroke-linejoin="round" fill-opacity="0" stroke="rgb(184,99,72)" stroke-opacity="1" stroke-width="12.189" d=" M46.222999572753906,131.56399536132812 C21.388999938964844,159.15699768066406 -0.1340000033378601,134.875 -0.906000018119812,124.06400299072266 C-1.6369999647140503,113.83000183105469 28.900999069213867,129.99400329589844 18.628999710083008,103.97100067138672 C10.35099983215332,83 -64.1510009765625,89.06999969482422 -15.03499984741211,164.12399291992188 C-21.106000900268555,224.27699279785156 36.108001708984375,244.01199340820312 74.91999816894531,223.1739959716797 C95.7699966430664,211.97999572753906 103.31199645996094,191.53199768066406 80.01000213623047,158.78900146484375 C56.70800018310547,126.0459976196289 46.222999572753906,131.56399536132812 46.222999572753906,131.56399536132812z"></path></g><g opacity="1" transform="matrix(1,0,0,1,0,0)"><path fill="rgb(252,211,185)" fill-opacity="1" d=" M84.48999786376953,185.13999938964844 C84.48999786376953,185.13999938964844 109.68699645996094,176.26499938964844 111.34300231933594,176.26499938964844 C112.9990005493164,176.26499938964844 149.9739990234375,165.22799682617188 136.72900390625,144.2570037841797 C123.48400115966797,123.28600311279297 106.9280014038086,150.3280029296875 98.0979995727539,152.53500366210938 C89.26799774169922,154.74200439453125 73.9219970703125,158.0330047607422 73.9219970703125,158.0330047607422 C73.9219970703125,158.0330047607422 87.06099700927734,128.2530059814453 97.09500122070312,124.15699768066406 C107.12899780273438,120.06099700927734 119.62100219726562,137.63400268554688 127.34700012207031,122.73400115966797 C135.072998046875,107.83399963378906 105.8239974975586,91.83000183105469 85.95700073242188,94.03700256347656 C66.08999633789062,96.24400329589844 40.70399856567383,134.87600708007812 43.18299865722656,135.23599243164062"></path><path stroke-linecap="round" stroke-linejoin="round" fill-opacity="0" stroke="rgb(184,99,72)" stroke-opacity="1" stroke-width="12.189" d=" M84.48999786376953,185.13999938964844 C84.48999786376953,185.13999938964844 109.68699645996094,176.26499938964844 111.34300231933594,176.26499938964844 C112.9990005493164,176.26499938964844 149.9739990234375,165.22799682617188 136.72900390625,144.2570037841797 C123.48400115966797,123.28600311279297 106.9280014038086,150.3280029296875 98.0979995727539,152.53500366210938 C89.26799774169922,154.74200439453125 73.9219970703125,158.0330047607422 73.9219970703125,158.0330047607422 C73.9219970703125,158.0330047607422 87.06099700927734,128.2530059814453 97.09500122070312,124.15699768066406 C107.12899780273438,120.06099700927734 119.62100219726562,137.63400268554688 127.34700012207031,122.73400115966797 C135.072998046875,107.83399963378906 105.8239974975586,91.83000183105469 85.95700073242188,94.03700256347656 C66.08999633789062,96.24400329589844 40.70399856567383,134.87600708007812 43.18299865722656,135.23599243164062"></path></g><g opacity="1" transform="matrix(1,0,0,1,0,0)"><path fill="rgb(252,211,185)" fill-opacity="1" d=" M79.33499908447266,217.10299682617188 C96.99500274658203,216.55099487304688 136.72900390625,204.41099548339844 131.2100067138672,186.19900512695312 C127.05699920654297,172.4949951171875 97.5459976196289,186.19900512695312 84.3010025024414,187.30299377441406"></path><path stroke-linecap="round" stroke-linejoin="round" fill-opacity="0" stroke="rgb(184,99,72)" stroke-opacity="1" stroke-width="12.189" d=" M79.33499908447266,217.10299682617188 C96.99500274658203,216.55099487304688 136.72900390625,204.41099548339844 131.2100067138672,186.19900512695312 C127.05699920654297,172.4949951171875 97.5459976196289,186.19900512695312 84.3010025024414,187.30299377441406"></path></g></g></g><g style="display: none;"><g><path></path><path stroke-linecap="butt" stroke-linejoin="miter" fill-opacity="0" stroke-miterlimit="4"></path></g></g><g style="display: none;"><g><path></path><path stroke-linecap="butt" stroke-linejoin="miter" fill-opacity="0" stroke-miterlimit="4"></path></g></g><g style="display: none;"><g><path></path><path stroke-linecap="butt" stroke-linejoin="miter" fill-opacity="0" stroke-miterlimit="4"></path></g></g><g style="display: none;"><g><path></path><path stroke-linecap="butt" stroke-linejoin="miter" fill-opacity="0" stroke-miterlimit="4"></path></g></g><g style="display: none;"><g><path></path><path stroke-linecap="butt" stroke-linejoin="miter" fill-opacity="0" stroke-miterlimit="4"></path></g></g><g style="display: none;"><g><path></path><path stroke-linecap="butt" stroke-linejoin="miter" fill-opacity="0" stroke-miterlimit="4"></path></g></g><g style="display: none;"><g><path></path><path stroke-linecap="butt" stroke-linejoin="miter" fill-opacity="0" stroke-miterlimit="4"></path></g></g><g style="display: none;"><g><path></path><path stroke-linecap="butt" stroke-linejoin="miter" fill-opacity="0" stroke-miterlimit="4"></path></g></g><g style="display: none;"><g><path></path><path stroke-linecap="butt" stroke-linejoin="miter" fill-opacity="0" stroke-miterlimit="4"></path></g></g><g style="display: none;"><g><path></path><path stroke-linecap="butt" stroke-linejoin="miter" fill-opacity="0" stroke-miterlimit="4"></path></g></g></g></svg>