<svg xmlns="http://www.w3.org/2000/svg" xmlns:xlink="http://www.w3.org/1999/xlink" viewBox="0 0 512 512" width="512" height="512" style="width: 100%; height: 100%; transform: translate3d(0,0,0); content-visibility: visible;" preserveAspectRatio="xMidYMid meet"><defs><clipPath id="__lottie_element_2"><rect width="512" height="512" x="0" y="0"></rect></clipPath><linearGradient id="__lottie_element_11" spreadMethod="pad" gradientUnits="userSpaceOnUse" x1="0" y1="0" x2="100" y2="0"><stop offset="0%" stop-color="rgb(255,255,255)"></stop><stop offset="100%" stop-color="rgb(0,0,0)"></stop></linearGradient><radialGradient id="__lottie_element_12" spreadMethod="pad" gradientUnits="userSpaceOnUse" cx="25.014999389648438" cy="-220.31199645996094" r="363.92750301030696" fx="25.014999389648438" fy="-220.31199645996094"><stop offset="0%" stop-color="rgb(247,189,152)"></stop><stop offset="42%" stop-color="rgb(246,168,127)"></stop><stop offset="100%" stop-color="rgb(245,146,103)"></stop></radialGradient><radialGradient id="__lottie_element_13" spreadMethod="pad" gradientUnits="userSpaceOnUse" cx="95.33699798583984" cy="-127.03299713134766" r="266.9511524389487" fx="95.33699798583984" fy="-127.03299713134766"><stop offset="0%" stop-color="rgb(249,223,201)"></stop><stop offset="43%" stop-color="rgb(249,202,171)"></stop><stop offset="100%" stop-color="rgb(250,181,140)"></stop></radialGradient></defs><g clip-path="url(#__lottie_element_2)"><g style="display: block;" transform="matrix(0.9629611372947693,0.011378762312233448,-0.011244187131524086,0.9515723586082458,57.674903869628906,17.921985626220703)" opacity="1"><g opacity="1" transform="matrix(1,0,0,1,227.77099609375,258.9129943847656)"><path fill="url(#__lottie_element_11)" fill-opacity="1" d=" M-102.28600311279297,216.9810028076172 C-163.4459991455078,193.43899536132812 -204.45599365234375,148.0800018310547 -210.02499389648438,67.51300048828125 C-217.68499755859375,-43.308998107910156 -175.0500030517578,-102.11000061035156 -149.5679931640625,-134.74899291992188 C-124.08599853515625,-167.38800048828125 -93.90299987792969,-185.63499450683594 -70.2490005493164,-197.5050048828125 C-16.9060001373291,-224.2729949951172 68.06500244140625,-228.91299438476562 108.79399871826172,-186.53399658203125 C155.27099609375,-138.17300415039062 161.50900268554688,-68.69200134277344 170.843994140625,-32.24800109863281 C193.97300720214844,58.03799819946289 204.30799865722656,138.85000610351562 151.70199584960938,183.8249969482422 C99.09700012207031,228.7989959716797 -58.0260009765625,234.01800537109375 -102.28600311279297,216.9810028076172z"></path><path fill="url(#__lottie_element_12)" fill-opacity="1" d=" M-102.28600311279297,216.9810028076172 C-163.4459991455078,193.43899536132812 -204.45599365234375,148.0800018310547 -210.02499389648438,67.51300048828125 C-217.68499755859375,-43.308998107910156 -175.0500030517578,-102.11000061035156 -149.5679931640625,-134.74899291992188 C-124.08599853515625,-167.38800048828125 -93.90299987792969,-185.63499450683594 -70.2490005493164,-197.5050048828125 C-16.9060001373291,-224.2729949951172 68.06500244140625,-228.91299438476562 108.79399871826172,-186.53399658203125 C155.27099609375,-138.17300415039062 161.50900268554688,-68.69200134277344 170.843994140625,-32.24800109863281 C193.97300720214844,58.03799819946289 204.30799865722656,138.85000610351562 151.70199584960938,183.8249969482422 C99.09700012207031,228.7989959716797 -58.0260009765625,234.01800537109375 -102.28600311279297,216.9810028076172z"></path><path stroke-linecap="butt" stroke-linejoin="miter" fill-opacity="0" stroke-miterlimit="10" stroke="rgb(183,99,57)" stroke-opacity="1" stroke-width="14" d=" M-102.28600311279297,216.9810028076172 C-163.4459991455078,193.43899536132812 -204.45599365234375,148.0800018310547 -210.02499389648438,67.51300048828125 C-217.68499755859375,-43.308998107910156 -175.0500030517578,-102.11000061035156 -149.5679931640625,-134.74899291992188 C-124.08599853515625,-167.38800048828125 -93.90299987792969,-185.63499450683594 -70.2490005493164,-197.5050048828125 C-16.9060001373291,-224.2729949951172 68.06500244140625,-228.91299438476562 108.79399871826172,-186.53399658203125 C155.27099609375,-138.17300415039062 161.50900268554688,-68.69200134277344 170.843994140625,-32.24800109863281 C193.97300720214844,58.03799819946289 204.30799865722656,138.85000610351562 151.70199584960938,183.8249969482422 C99.09700012207031,228.7989959716797 -58.0260009765625,234.01800537109375 -102.28600311279297,216.9810028076172z"></path></g><g opacity="1" transform="matrix(1,0,0,1,231.7310028076172,255.0489959716797)"><path fill="url(#__lottie_element_13)" fill-opacity="1" d=" M-69.27999877929688,197.58900451660156 C-109.39600372314453,185.6739959716797 -156.1269989013672,122.03600311279297 -161.0590057373047,49.099998474121094 C-167.8419952392578,-51.224998474121094 -147.6580047607422,-102.63200378417969 -124.98200225830078,-132.18699645996094 C-102.30699920654297,-161.74200439453125 -77.20800018310547,-175.63900756835938 -57.025001525878906,-187.98300170898438 C-24.76799964904785,-207.71200561523438 60.736000061035156,-215.26600646972656 96.9540023803711,-176.91099548339844 C138.2830047607422,-133.14300537109375 150.74400329589844,-72.03099822998047 159.03799438476562,-39.04100036621094 C179.58700561523438,42.68899917602539 186.65699768066406,129.59300231933594 139.8509979248047,170.322998046875 C93.04499816894531,211.05299377441406 -28.790000915527344,209.61500549316406 -69.27999877929688,197.58900451660156z"></path></g></g><g style="display: block;" transform="matrix(0.955551028251648,0.10446180403232574,-0.105811707675457,0.9475246667861938,124.54017639160156,17.144668579101562)" opacity="1"><g opacity="1" transform="matrix(0.7663688659667969,0.16289673745632172,-0.16463695466518402,0.7745559215545654,246.68499755859375,39.0620002746582)"><path fill="rgb(84,55,43)" fill-opacity="1" d=" M-65.66899871826172,10.907999992370605 C-65.66899871826172,10.907999992370605 -53.24800109863281,8.267999649047852 -36.09000015258789,9.460000038146973 C-21.270000457763672,10.489999771118164 4.624000072479248,14.090999603271484 25.899999618530273,14.222000122070312 C46.590999603271484,14.348999977111816 65.66899871826172,9.569999694824219 65.34500122070312,4.6479997634887695 C65.17900085449219,2.125999927520752 55.85599899291992,6.923999786376953 49.90299987792969,5.821000099182129 C44.23899841308594,4.771999835968018 35.792999267578125,3.5160000324249268 35.792999267578125,3.5160000324249268 C35.792999267578125,3.5160000324249268 39.55699920654297,-3.3469998836517334 40.840999603271484,-5.218999862670898 C43.21099853515625,-8.675999641418457 48.349998474121094,-12.031000137329102 47.46099853515625,-12.74899959564209 C45.486000061035156,-14.347999572753906 34.3650016784668,-13.33899974822998 25.089000701904297,-12.085000038146973 C16.773000717163086,-10.961000442504883 6.374000072479248,-5.138999938964844 -12.859999656677246,-2.250999927520752 C-31.884000778198242,0.6060000061988831 -52.42499923706055,-2.052999973297119 -56.547000885009766,-0.9900000095367432 C-60.66999816894531,0.07199999690055847 -65.66899871826172,10.907999992370605 -65.66899871826172,10.907999992370605z"></path><path stroke-linecap="round" stroke-linejoin="round" fill-opacity="0" stroke="rgb(73,44,23)" stroke-opacity="1" stroke-width="12" d=" M-65.66899871826172,10.907999992370605 C-65.66899871826172,10.907999992370605 -53.24800109863281,8.267999649047852 -36.09000015258789,9.460000038146973 C-21.270000457763672,10.489999771118164 4.624000072479248,14.090999603271484 25.899999618530273,14.222000122070312 C46.590999603271484,14.348999977111816 65.66899871826172,9.569999694824219 65.34500122070312,4.6479997634887695 C65.17900085449219,2.125999927520752 55.85599899291992,6.923999786376953 49.90299987792969,5.821000099182129 C44.23899841308594,4.771999835968018 35.792999267578125,3.5160000324249268 35.792999267578125,3.5160000324249268 C35.792999267578125,3.5160000324249268 39.55699920654297,-3.3469998836517334 40.840999603271484,-5.218999862670898 C43.21099853515625,-8.675999641418457 48.349998474121094,-12.031000137329102 47.46099853515625,-12.74899959564209 C45.486000061035156,-14.347999572753906 34.3650016784668,-13.33899974822998 25.089000701904297,-12.085000038146973 C16.773000717163086,-10.961000442504883 6.374000072479248,-5.138999938964844 -12.859999656677246,-2.250999927520752 C-31.884000778198242,0.6060000061988831 -52.42499923706055,-2.052999973297119 -56.547000885009766,-0.9900000095367432 C-60.66999816894531,0.07199999690055847 -65.66899871826172,10.907999992370605 -65.66899871826172,10.907999992370605z"></path></g><g opacity="1" transform="matrix(1,0,0,1,72.94400024414062,97.6969985961914)"><path fill="rgb(84,55,43)" fill-opacity="1" d=" M-11.873000144958496,15.204000473022461 C-6.758999824523926,7.611000061035156 -2.2850000858306885,0.4819999933242798 13.496000289916992,-13.239999771118164 C31.177000045776367,-28.614999771118164 52.617000579833984,-33.82400131225586 52.275001525878906,-34.50699996948242 C50.619998931884766,-37.81700134277344 41.540000915527344,-34.49800109863281 31.863000869750977,-31.799999237060547 C20.54800033569336,-28.643999099731445 8.883000373840332,-24.00200080871582 8.883000373840332,-24.00200080871582 C8.883000373840332,-24.00200080871582 10.348999977111816,-28.53700065612793 13.324999809265137,-31.77400016784668 C16.868999481201172,-35.62799835205078 26.409000396728516,-39.314998626708984 20.5,-39.29100036621094 C9.628000259399414,-39.24599838256836 -16.429000854492188,-15.812000274658203 -28.017000198364258,-4.7829999923706055 C-39.604000091552734,6.244999885559082 -52.617000579833984,22.549999237060547 -47.83300018310547,28.700000762939453 C-39.57699966430664,39.314998626708984 -33.494998931884766,31.756999969482422 -26.649999618530273,30.750999450683594 C-19.80500030517578,29.743999481201172 -15.147000312805176,20.06599998474121 -11.873000144958496,15.204000473022461z"></path><path stroke-linecap="round" stroke-linejoin="round" fill-opacity="0" stroke="rgb(73,44,23)" stroke-opacity="1" stroke-width="12" d=" M-11.873000144958496,15.204000473022461 C-6.758999824523926,7.611000061035156 -2.2850000858306885,0.4819999933242798 13.496000289916992,-13.239999771118164 C31.177000045776367,-28.614999771118164 52.617000579833984,-33.82400131225586 52.275001525878906,-34.50699996948242 C50.619998931884766,-37.81700134277344 41.540000915527344,-34.49800109863281 31.863000869750977,-31.799999237060547 C20.54800033569336,-28.643999099731445 8.883000373840332,-24.00200080871582 8.883000373840332,-24.00200080871582 C8.883000373840332,-24.00200080871582 10.348999977111816,-28.53700065612793 13.324999809265137,-31.77400016784668 C16.868999481201172,-35.62799835205078 26.409000396728516,-39.314998626708984 20.5,-39.29100036621094 C9.628000259399414,-39.24599838256836 -16.429000854492188,-15.812000274658203 -28.017000198364258,-4.7829999923706055 C-39.604000091552734,6.244999885559082 -52.617000579833984,22.549999237060547 -47.83300018310547,28.700000762939453 C-39.57699966430664,39.314998626708984 -33.494998931884766,31.756999969482422 -26.649999618530273,30.750999450683594 C-19.80500030517578,29.743999481201172 -15.147000312805176,20.06599998474121 -11.873000144958496,15.204000473022461z"></path></g></g><g style="display: block;" transform="matrix(0.955551028251648,0.10446180403232574,-0.105811707675457,0.9475246667861938,150.379638671875,55.81458282470703)" opacity="1"><g opacity="1" transform="matrix(0.9380061626434326,-0.1770007461309433,0.17487017810344696,0.9267153739929199,-10.364456176757812,47.89891052246094)"><g opacity="1" transform="matrix(1,0,0,1,244.21600341796875,102.61900329589844)"><path fill="rgb(245,146,102)" fill-opacity="1" d=" M-29.56599998474121,-61.54600143432617 C-43.49599838256836,-56.119998931884766 -61.680999755859375,-30.388999938964844 -63.3489990234375,-1.6100000143051147 C-65.52899932861328,35.98699951171875 -41.66999816894531,56.895999908447266 -12.675999641418457,61.59600067138672 C16.31800079345703,66.2959976196289 65.52799987792969,53.34700012207031 58.702999114990234,14.73799991607666 C52.970001220703125,-17.695999145507812 22.927000045776367,-45.77799987792969 14.24899959564209,-52.67399978637695 C-2.8940000534057617,-66.2969970703125 -22.226999282836914,-64.40399932861328 -29.56599998474121,-61.54600143432617z"></path></g><g opacity="1" transform="matrix(1,0,0,1,247.80499267578125,91.71499633789062)"><path fill="rgb(179,197,242)" fill-opacity="1" d=" M-12.954000473022461,-59.85599899291992 C-26.884000778198242,-54.43000030517578 -50.70899963378906,-26.46299934387207 -57.797000885009766,1.4800000190734863 C-65.16999816894531,30.54400062561035 -39.180999755859375,56.073001861572266 -10.187000274658203,60.77299880981445 C18.80699920654297,65.4729995727539 65.16999816894531,51.13399887084961 58.34600067138672,12.524999618530273 C52.612998962402344,-19.909000396728516 24.78700065612793,-44.95500183105469 16.110000610351562,-51.85100173950195 C-1.0329999923706055,-65.4729995727539 -5.614999771118164,-62.7140007019043 -12.954000473022461,-59.85599899291992z"></path><path stroke-linecap="round" stroke-linejoin="round" fill-opacity="0" stroke="rgb(76,79,114)" stroke-opacity="1" stroke-width="8.887" d=" M-12.954000473022461,-59.85599899291992 C-26.884000778198242,-54.43000030517578 -50.70899963378906,-26.46299934387207 -57.797000885009766,1.4800000190734863 C-65.16999816894531,30.54400062561035 -39.180999755859375,56.073001861572266 -10.187000274658203,60.77299880981445 C18.80699920654297,65.4729995727539 65.16999816894531,51.13399887084961 58.34600067138672,12.524999618530273 C52.612998962402344,-19.909000396728516 24.78700065612793,-44.95500183105469 16.110000610351562,-51.85100173950195 C-1.0329999923706055,-65.4729995727539 -5.614999771118164,-62.7140007019043 -12.954000473022461,-59.85599899291992z"></path></g><g opacity="1" transform="matrix(1,0,0,1,250.1529998779297,82.9990005493164)"><path fill="rgb(255,255,255)" fill-opacity="1" d=" M-20.121000289916992,-47.22999954223633 C-32.30400085449219,-42.48500061035156 -50.12699890136719,-17.20199966430664 -51.59400177001953,6.376999855041504 C-53.22999954223633,32.66699981689453 -38.03499984741211,49.04199981689453 -12.677000045776367,53.152000427246094 C12.680999755859375,57.262001037597656 53.22999954223633,44.722999572753906 47.26100158691406,10.954999923706055 C42.24700164794922,-17.410999298095703 17.910999298095703,-39.316001892089844 10.321000099182129,-45.34700012207031 C-4.671000003814697,-57.26100158691406 -13.70300006866455,-49.72999954223633 -20.121000289916992,-47.22999954223633z"></path></g><g opacity="1" transform="matrix(1.132040023803711,0,0,1.0755400657653809,-40.803009033203125,-7.407623291015625)"><g opacity="1" transform="matrix(1,0,0,1,280.52099609375,92.31199645996094)"><path fill="rgb(37,33,48)" fill-opacity="1" d=" M16.214000701904297,-2.005000114440918 C17.356000900268555,7.00600004196167 11.022000312805176,15.208000183105469 2.066999912261963,16.31599998474121 C-6.88700008392334,17.42300033569336 -15.071999549865723,11.017000198364258 -16.214000701904297,2.00600004196167 C-17.356000900268555,-7.005000114440918 -11.02299976348877,-15.208000183105469 -2.068000078201294,-16.315000534057617 C6.88700008392334,-17.42300033569336 15.071999549865723,-11.015999794006348 16.214000701904297,-2.005000114440918z"></path></g><g opacity="1" transform="matrix(1,0,0,1,272.3009948730469,106.36599731445312)"><path fill="rgb(255,255,255)" fill-opacity="1" d=" M4.060999870300293,3.8589999675750732 C0.257999986410141,8.470000267028809 -4.644000053405762,10.479999542236328 -6.88700008392334,8.348999977111816 C-9.130000114440918,6.2179999351501465 -7.864999771118164,0.7519999742507935 -4.061999797821045,-3.8589999675750732 C-0.257999986410141,-8.470000267028809 4.64300012588501,-10.479999542236328 6.886000156402588,-8.348999977111816 C9.128999710083008,-6.2170000076293945 7.863999843597412,-0.7519999742507935 4.060999870300293,3.8589999675750732z"></path></g></g><g opacity="1" transform="matrix(1,0,0,1,247.80499267578125,91.71499633789062)"><path stroke-linecap="round" stroke-linejoin="round" fill-opacity="0" stroke="rgb(76,79,114)" stroke-opacity="1" stroke-width="10" d=" M-12.954000473022461,-59.85599899291992 C-26.884000778198242,-54.43000030517578 -50.70899963378906,-26.46299934387207 -57.797000885009766,1.4800000190734863 C-65.16999816894531,30.54400062561035 -39.180999755859375,56.073001861572266 -10.187000274658203,60.77299880981445 C18.80699920654297,65.4729995727539 65.16999816894531,51.13399887084961 58.34600067138672,12.524999618530273 C52.612998962402344,-19.909000396728516 24.78700065612793,-44.95500183105469 16.110000610351562,-51.85100173950195 C-1.0329999923706055,-65.4729995727539 -5.614999771118164,-62.7140007019043 -12.954000473022461,-59.85599899291992z"></path></g><g opacity="1" transform="matrix(1,0,0,1,242.375,71.93099975585938)"><path fill="rgb(250,192,155)" fill-opacity="1" d=" M-52.0890007019043,44.43000030517578 C-52.0890007019043,44.43000030517578 -48.39799880981445,29.750999450683594 -24.743000030517578,21.163000106811523 C2.947999954223633,11.109999656677246 49.87900161743164,10.276000022888184 54.51900100708008,9.149999618530273 C57.41999816894531,8.446000099182129 50.60900115966797,-6.406000137329102 36.56999969482422,-21.5939998626709 C28.145999908447266,-30.707000732421875 12.28499984741211,-43.65399932861328 2.7880001068115234,-43.933998107910156 C-14.067000389099121,-44.43000030517578 -21.27400016784668,-37.55500030517578 -29.69300079345703,-26.2810001373291 C-36.194000244140625,-17.575000762939453 -44.62900161743164,-3.4679999351501465 -48.720001220703125,8.109999656677246 C-57.41999816894531,32.73400115966797 -52.0890007019043,44.43000030517578 -52.0890007019043,44.43000030517578z"></path><path stroke-linecap="round" stroke-linejoin="round" fill-opacity="0" stroke="rgb(183,99,57)" stroke-opacity="1" stroke-width="13" d=" M-52.0890007019043,44.43000030517578 C-52.0890007019043,44.43000030517578 -48.39799880981445,29.750999450683594 -24.743000030517578,21.163000106811523 C2.947999954223633,11.109999656677246 49.87900161743164,10.276000022888184 54.51900100708008,9.149999618530273 C57.41999816894531,8.446000099182129 50.60900115966797,-6.406000137329102 36.56999969482422,-21.5939998626709 C28.145999908447266,-30.707000732421875 12.28499984741211,-43.65399932861328 2.7880001068115234,-43.933998107910156 C-14.067000389099121,-44.43000030517578 -21.27400016784668,-37.55500030517578 -29.69300079345703,-26.2810001373291 C-36.194000244140625,-17.575000762939453 -44.62900161743164,-3.4679999351501465 -48.720001220703125,8.109999656677246 C-57.41999816894531,32.73400115966797 -52.0890007019043,44.43000030517578 -52.0890007019043,44.43000030517578z"></path></g></g><g opacity="1" transform="matrix(1.0685166120529175,-0.04271059110760689,0.04307764396071434,1.0776994228363037,-10.504592895507812,-7.8704833984375)"><g opacity="1" transform="matrix(1,0,0,1,84.05899810791016,153.51300048828125)"><path fill="rgb(245,146,102)" fill-opacity="1" d=" M49.459999084472656,-32.000999450683594 C43.525001525878906,-39.39500045776367 31.30699920654297,-52.66600036621094 16.65399932861328,-56.0359992980957 C-8.96399974822998,-61.92900085449219 -26.070999145507812,-56.034000396728516 -44.63199996948242,-40.25699996948242 C-63.19300079345703,-24.479999542236328 -62.944000244140625,2.700000047683716 -59.02299880981445,21.61400032043457 C-55.10200119018555,40.52899932861328 -37.29999923706055,61.92900085449219 -4.7170000076293945,59.691001892089844 C16.679000854492188,58.22100067138672 41.777000427246094,24.8439998626709 50.36800003051758,11.109999656677246 C63.19200134277344,-9.390000343322754 55.854000091552734,-24.03499984741211 49.459999084472656,-32.000999450683594z"></path></g><g opacity="1" transform="matrix(1,0,0,1,84.77999877929688,142.3179931640625)"><path fill="rgb(179,197,242)" fill-opacity="1" d=" M46.1349983215332,-30.673999786376953 C40.590999603271484,-37.779998779296875 29.180999755859375,-50.5359992980957 15.506999969482422,-53.78499984741211 C-8.39900016784668,-59.4640007019043 -24.356000900268555,-53.81700134277344 -41.6609992980957,-38.680999755859375 C-58.965999603271484,-23.54400062561035 -58.71200180053711,2.559000015258789 -55.03799819946289,20.726999282836914 C-51.36399841308594,38.895999908447266 -34.737998962402344,59.4640007019043 -4.3379998207092285,57.340999603271484 C15.623000144958496,55.946998596191406 39.013999938964844,23.91200065612793 47.018001556396484,10.729000091552734 C58.965999603271484,-8.949000358581543 52.106998443603516,-23.01799964904785 46.1349983215332,-30.673999786376953z"></path><path stroke-linecap="round" stroke-linejoin="round" fill-opacity="0" stroke="rgb(76,79,114)" stroke-opacity="1" stroke-width="8.629" d=" M46.1349983215332,-30.673999786376953 C40.590999603271484,-37.779998779296875 29.180999755859375,-50.5359992980957 15.506999969482422,-53.78499984741211 C-8.39900016784668,-59.4640007019043 -24.356000900268555,-53.81700134277344 -41.6609992980957,-38.680999755859375 C-58.965999603271484,-23.54400062561035 -58.71200180053711,2.559000015258789 -55.03799819946289,20.726999282836914 C-51.36399841308594,38.895999908447266 -34.737998962402344,59.4640007019043 -4.3379998207092285,57.340999603271484 C15.623000144958496,55.946998596191406 39.013999938964844,23.91200065612793 47.018001556396484,10.729000091552734 C58.965999603271484,-8.949000358581543 52.106998443603516,-23.01799964904785 46.1349983215332,-30.673999786376953z"></path></g><g opacity="1" transform="matrix(1,0,0,1,83.25900268554688,142.7519989013672)"><path fill="rgb(255,255,255)" fill-opacity="1" d=" M39.446998596191406,-25.364999771118164 C34.847999572753906,-31.1200008392334 25.613000869750977,-38.49399948120117 14.258999824523926,-41.11800003051758 C-5.590000152587891,-45.70600128173828 -17.520999908447266,-45.250999450683594 -31.900999069213867,-32.974998474121094 C-46.279998779296875,-20.698999404907227 -46.084999084472656,0.4519999921321869 -43.04499816894531,15.17199993133545 C-40.005001068115234,29.891000747680664 -27.961999893188477,45.70600128173828 -5.02400016784668,44.176998138427734 C17.915000915527344,42.64899826049805 37.33599853515625,13.107999801635742 41.483001708984375,1.277999997138977 C46.279998779296875,-12.404999732971191 44.402000427246094,-19.165000915527344 39.446998596191406,-25.364999771118164z"></path></g><g opacity="1" transform="matrix(1,0,0,1,0,0)"><g opacity="1" transform="matrix(1,0,0,1,66.06700134277344,146.5590057373047)"><path fill="rgb(37,33,48)" fill-opacity="1" d=" M22.69700050354004,-0.675000011920929 C23.04400062561035,10.994999885559082 13.163999557495117,20.757999420166016 0.6290000081062317,21.131000518798828 C-11.904999732971191,21.503999710083008 -22.347999572753906,12.345999717712402 -22.69499969482422,0.675000011920929 C-23.042999267578125,-10.994999885559082 -13.163999557495117,-20.757999420166016 -0.6290000081062317,-21.131000518798828 C11.906000137329102,-21.503999710083008 22.350000381469727,-12.345000267028809 22.69700050354004,-0.675000011920929z"></path></g><g opacity="1" transform="matrix(1,0,0,1,60.900001525878906,145.4010009765625)"><path fill="rgb(255,255,255)" fill-opacity="1" d=" M5.179999828338623,-4.534999847412109 C9.13700008392334,-0.8220000267028809 7.914999961853027,3.0209999084472656 5.441999912261963,5.633999824523926 C2.9679999351501465,8.248000144958496 -1.2230000495910645,6.710000038146973 -5.179999828338623,2.996999979019165 C-9.13700008392334,-0.7160000205039978 -7.9070000648498535,-2.9110000133514404 -5.433000087738037,-5.525000095367432 C-2.9600000381469727,-8.137999534606934 1.2230000495910645,-8.248000144958496 5.179999828338623,-4.534999847412109z"></path></g><g opacity="1" transform="matrix(1,0,0,1,82.24299621582031,164.38699340820312)"><path fill="rgb(255,255,255)" fill-opacity="1" d=" M3.7260000705718994,-3.26200008392334 C6.572000026702881,-0.5920000076293945 5.692999839782715,2.171999931335449 3.9140000343322754,4.052000045776367 C2.134999990463257,5.932000160217285 -0.8790000081062317,4.826000213623047 -3.7260000705718994,2.1559998989105225 C-6.572000026702881,-0.5149999856948853 -5.686999797821045,-2.0940001010894775 -3.9079999923706055,-3.9739999771118164 C-2.128999948501587,-5.854000091552734 0.8799999952316284,-5.932000160217285 3.7260000705718994,-3.26200008392334z"></path></g></g><g opacity="1" transform="matrix(1,0,0,1,84.77999877929688,142.3179931640625)"><path stroke-linecap="round" stroke-linejoin="round" fill-opacity="0" stroke="rgb(76,79,114)" stroke-opacity="1" stroke-width="10" d=" M46.1349983215332,-30.673999786376953 C40.590999603271484,-37.779998779296875 29.180999755859375,-50.5359992980957 15.506999969482422,-53.78499984741211 C-8.39900016784668,-59.4640007019043 -24.356000900268555,-53.81700134277344 -41.6609992980957,-38.680999755859375 C-58.965999603271484,-23.54400062561035 -58.71200180053711,2.559000015258789 -55.03799819946289,20.726999282836914 C-51.36399841308594,38.895999908447266 -34.737998962402344,59.4640007019043 -4.3379998207092285,57.340999603271484 C15.623000144958496,55.946998596191406 39.013999938964844,23.91200065612793 47.018001556396484,10.729000091552734 C58.965999603271484,-8.949000358581543 52.106998443603516,-23.01799964904785 46.1349983215332,-30.673999786376953z"></path></g><g opacity="1" transform="matrix(1,0,0,1,74.73100280761719,110.66400146484375)"><path fill="rgb(250,192,155)" fill-opacity="1" d=" M-37.70600128173828,33.887001037597656 C-43.2859992980957,33.641998291015625 -47.231998443603516,29.625 -46.880001068115234,24.052000045776367 C-46.0620002746582,11.09000015258789 -41.56399917602539,-13.48799991607666 -19.18600082397461,-22.18600082397461 C11.906000137329102,-34.270999908447266 37.959999084472656,-20.584999084472656 44.46900177001953,-12.42300033569336 C47.23099899291992,-8.961000442504883 26.430999755859375,13.178999900817871 4.813000202178955,23.7450008392334 C-11.425999641418457,31.68000030517578 -28.937000274658203,34.270999908447266 -37.70600128173828,33.887001037597656z"></path><path stroke-linecap="round" stroke-linejoin="round" fill-opacity="0" stroke="rgb(183,99,57)" stroke-opacity="1" stroke-width="13" d=" M-37.70600128173828,33.887001037597656 C-43.2859992980957,33.641998291015625 -47.231998443603516,29.625 -46.880001068115234,24.052000045776367 C-46.0620002746582,11.09000015258789 -41.56399917602539,-13.48799991607666 -19.18600082397461,-22.18600082397461 C11.906000137329102,-34.270999908447266 37.959999084472656,-20.584999084472656 44.46900177001953,-12.42300033569336 C47.23099899291992,-8.961000442504883 26.430999755859375,13.178999900817871 4.813000202178955,23.7450008392334 C-11.425999641418457,31.68000030517578 -28.937000274658203,34.270999908447266 -37.70600128173828,33.887001037597656z"></path></g></g></g><g style="display: block;" transform="matrix(0.955551028251648,0.10446180403232574,-0.105811707675457,0.9475246667861938,176.21951293945312,195.22853088378906)" opacity="1"><g opacity="1" transform="matrix(1,0,0,1,0,0)"><g opacity="1" transform="matrix(1,0,0,1,142.58299255371094,74.45999908447266)"><path fill="rgb(245,146,102)" fill-opacity="1" d=" M-118.20600128173828,46.018001556396484 C-118.20600128173828,46.018001556396484 -123.70700073242188,24.93199920654297 -111.28299713134766,21.312000274658203 C-98.85800170898438,17.691999435424805 -78.16200256347656,17.64900016784668 -59.34600067138672,8.946000099182129 C-40.529998779296875,0.24199999868869781 11.321999549865723,-53.516998291015625 54.84400177001953,-55.29600143432617 C98.36699676513672,-57.07600021362305 113.0260009765625,-39.516998291015625 114.25299835205078,-34.64899826049805 C115.4800033569336,-29.781999588012695 107.20600128173828,-14.29800033569336 107.20600128173828,-14.29800033569336 C107.20600128173828,-14.29800033569336 123.70600128173828,-27.83799934387207 89.91699981689453,-28.513999938964844 C56.12900161743164,-29.18899917602539 18.698999404907227,-4.706999778747559 16.56800079345703,-3.013000011444092 C14.437999725341797,-1.3179999589920044 -46.56999969482422,36.904998779296875 -46.56999969482422,36.904998779296875 C-46.56999969482422,36.904998779296875 -104.8219985961914,57.07600021362305 -104.8219985961914,57.07600021362305 C-104.8219985961914,57.07600021362305 -118.20600128173828,46.018001556396484 -118.20600128173828,46.018001556396484z"></path></g><g opacity="1" transform="matrix(1,0,0,1,140.13400268554688,130.62100219726562)"><path fill="rgb(131,0,22)" fill-opacity="1" d=" M-111.76899719238281,-0.09200000017881393 C-111.93099975585938,-6.881999969482422 -111.75199890136719,-22.985000610351562 -95.75700378417969,-27.163000106811523 C-79.76300048828125,-31.34000015258789 -61.00899887084961,-30.163999557495117 -50.18899917602539,-37.10300064086914 C-39.369998931884766,-44.04199981689453 14.404000282287598,-86.18800354003906 40.84299850463867,-94.3030014038086 C67.28199768066406,-102.41799926757812 100.22699737548828,-100.36399841308594 108.52799987792969,-83.80400085449219 C111.93099975585938,-77.01599884033203 96.33699798583984,-61.875 94.58200073242188,-32.4379997253418 C92.8270034790039,-3 90.11399841308594,16.02899932861328 85.53399658203125,38.62200164794922 C80.8499984741211,61.73099899291992 62.32400131225586,90.61699676513672 24.839000701904297,95.9990005493164 C-19.871000289916992,102.41799926757812 -45.06700134277344,92.56300354003906 -71.79000091552734,70.83100128173828 C-95.19100189208984,51.79999923706055 -111.15299987792969,25.759000778198242 -111.76899719238281,-0.09200000017881393z"></path><path stroke-linecap="butt" stroke-linejoin="miter" fill-opacity="0" stroke-miterlimit="10" stroke="rgb(112,39,16)" stroke-opacity="1" stroke-width="11.281" d=" M-111.76899719238281,-0.09200000017881393 C-111.93099975585938,-6.881999969482422 -111.75199890136719,-22.985000610351562 -95.75700378417969,-27.163000106811523 C-79.76300048828125,-31.34000015258789 -61.00899887084961,-30.163999557495117 -50.18899917602539,-37.10300064086914 C-39.369998931884766,-44.04199981689453 14.404000282287598,-86.18800354003906 40.84299850463867,-94.3030014038086 C67.28199768066406,-102.41799926757812 100.22699737548828,-100.36399841308594 108.52799987792969,-83.80400085449219 C111.93099975585938,-77.01599884033203 96.33699798583984,-61.875 94.58200073242188,-32.4379997253418 C92.8270034790039,-3 90.11399841308594,16.02899932861328 85.53399658203125,38.62200164794922 C80.8499984741211,61.73099899291992 62.32400131225586,90.61699676513672 24.839000701904297,95.9990005493164 C-19.871000289916992,102.41799926757812 -45.06700134277344,92.56300354003906 -71.79000091552734,70.83100128173828 C-95.19100189208984,51.79999923706055 -111.15299987792969,25.759000778198242 -111.76899719238281,-0.09200000017881393z"></path></g><g opacity="1" transform="matrix(1,0,0,1,153.69900512695312,137.89300537109375)"><path fill="rgb(39,0,1)" fill-opacity="1" d=" M-44.01100158691406,48.27199935913086 C-44.01100158691406,48.27199935913086 -60.88800048828125,34.207000732421875 -63.159000396728516,18.95400047302246 C-65.43099975585938,3.7009999752044678 -62.62799835205078,-11.637999534606934 -52.37900161743164,-15.324999809265137 C-42.12900161743164,-19.011999130249023 -36.904998779296875,-4.60099983215332 -25.093000411987305,-7.968999862670898 C-13.281000137329102,-11.336000442504883 -18.391000747680664,-24.759000778198242 -13.729000091552734,-32.805999755859375 C-9.067000389099121,-40.85200119018555 1.1009999513626099,-54.03900146484375 18.62700080871582,-47.555999755859375 C36.152000427246094,-41.07400131225586 38.01499938964844,-11.760000228881836 34.71099853515625,3.63700008392334 C31.406999588012695,19.034000396728516 37.279998779296875,25.863000869750977 18.285999298095703,33.0629997253418 C-0.7080000042915344,40.263999938964844 -34.27199935913086,62.1609992980957 -34.27199935913086,62.1609992980957 C-34.27199935913086,62.1609992980957 -44.01100158691406,48.27199935913086 -44.01100158691406,48.27199935913086z"></path></g><g opacity="1" transform="matrix(1,0,0,1,154.64300537109375,187.03900146484375)"><path fill="rgb(234,21,57)" fill-opacity="1" d=" M-72.98799896240234,18.312999725341797 C-72.98799896240234,18.312999725341797 -59.584999084472656,-10.635000228881836 -34.74599838256836,-20.67099952697754 C-9.907999992370605,-30.707000732421875 7.044000148773193,-24.475000381469727 7.044000148773193,-24.475000381469727 C7.044000148773193,-24.475000381469727 21.049999237060547,-39.51499938964844 38.18299865722656,-40.75600051879883 C55.314998626708984,-41.99800109863281 72.98799896240234,-30.820999145507812 72.98799896240234,-30.820999145507812 C72.98799896240234,-30.820999145507812 69.46399688720703,16.11199951171875 23.520999908447266,29.054000854492188 C-22.422000885009766,41.99700164794922 -72.98799896240234,18.312999725341797 -72.98799896240234,18.312999725341797z"></path><path stroke-linecap="round" stroke-linejoin="round" fill-opacity="0" stroke="rgb(193,14,52)" stroke-opacity="1" stroke-width="9.12" d=" M-72.98799896240234,18.312999725341797 C-72.98799896240234,18.312999725341797 -59.584999084472656,-10.635000228881836 -34.74599838256836,-20.67099952697754 C-9.907999992370605,-30.707000732421875 7.044000148773193,-24.475000381469727 7.044000148773193,-24.475000381469727 C7.044000148773193,-24.475000381469727 21.049999237060547,-39.51499938964844 38.18299865722656,-40.75600051879883 C55.314998626708984,-41.99800109863281 72.98799896240234,-30.820999145507812 72.98799896240234,-30.820999145507812 C72.98799896240234,-30.820999145507812 69.46399688720703,16.11199951171875 23.520999908447266,29.054000854492188 C-22.422000885009766,41.99700164794922 -72.98799896240234,18.312999725341797 -72.98799896240234,18.312999725341797z"></path></g><g opacity="1" transform="matrix(1,0,0,1,0,0)"><g opacity="1" transform="matrix(1,0,0,1,212.0279998779297,170.92599487304688)"><path fill="rgb(255,255,255)" fill-opacity="1" d=" M13.317000389099121,-9.133999824523926 C13.317000389099121,-9.133999824523926 10.074000358581543,-13.970000267028809 0.4230000078678131,-15.043999671936035 C-9.22700023651123,-16.118000030517578 -14.713000297546387,-14.38700008392334 -12.984000205993652,-9.486000061035156 C-11.253999710083008,-4.584000110626221 4.809000015258789,16.118000030517578 4.809000015258789,16.118000030517578 C4.809000015258789,16.118000030517578 14.71399974822998,-0.2370000034570694 13.640000343322754,-1.6829999685287476 C12.567000389099121,-3.130000114440918 13.317000389099121,-9.133999824523926 13.317000389099121,-9.133999824523926z"></path><path stroke-linecap="round" stroke-linejoin="round" fill-opacity="0" stroke="rgb(133,151,193)" stroke-opacity="1" stroke-width="8.208" d=" M13.317000389099121,-9.133999824523926 C13.317000389099121,-9.133999824523926 10.074000358581543,-13.970000267028809 0.4230000078678131,-15.043999671936035 C-9.22700023651123,-16.118000030517578 -14.713000297546387,-14.38700008392334 -12.984000205993652,-9.486000061035156 C-11.253999710083008,-4.584000110626221 4.809000015258789,16.118000030517578 4.809000015258789,16.118000030517578 C4.809000015258789,16.118000030517578 14.71399974822998,-0.2370000034570694 13.640000343322754,-1.6829999685287476 C12.567000389099121,-3.130000114440918 13.317000389099121,-9.133999824523926 13.317000389099121,-9.133999824523926z"></path></g><g opacity="1" transform="matrix(1,0,0,1,196.9669952392578,195.1699981689453)"><path fill="rgb(255,255,255)" fill-opacity="1" d=" M-18.027000427246094,-19.420000076293945 C-18.027000427246094,-19.420000076293945 -3.9649999141693115,-21.523000717163086 4.784999847412109,-17.922000885009766 C13.534000396728516,-14.319999694824219 16.423999786376953,-5.985000133514404 18.506000518798828,-4.583000183105469 C20.589000701904297,-3.180000066757202 14.585000038146973,8.687999725341797 6.179999828338623,13.03499984741211 C-2.2249999046325684,17.381000518798828 -9.678999900817871,21.523000717163086 -9.678999900817871,21.523000717163086 C-9.678999900817871,21.523000717163086 -18.22599983215332,10.946000099182129 -19.406999588012695,7.015999794006348 C-20.589000701904297,3.0859999656677246 -18.027000427246094,-19.420000076293945 -18.027000427246094,-19.420000076293945z"></path><path stroke-linecap="round" stroke-linejoin="round" fill-opacity="0" stroke="rgb(133,151,193)" stroke-opacity="1" stroke-width="8.208" d=" M-18.027000427246094,-19.420000076293945 C-18.027000427246094,-19.420000076293945 -3.9649999141693115,-21.523000717163086 4.784999847412109,-17.922000885009766 C13.534000396728516,-14.319999694824219 16.423999786376953,-5.985000133514404 18.506000518798828,-4.583000183105469 C20.589000701904297,-3.180000066757202 14.585000038146973,8.687999725341797 6.179999828338623,13.03499984741211 C-2.2249999046325684,17.381000518798828 -9.678999900817871,21.523000717163086 -9.678999900817871,21.523000717163086 C-9.678999900817871,21.523000717163086 -18.22599983215332,10.946000099182129 -19.406999588012695,7.015999794006348 C-20.589000701904297,3.0859999656677246 -18.027000427246094,-19.420000076293945 -18.027000427246094,-19.420000076293945z"></path></g><g opacity="1" transform="matrix(1,0,0,1,114.62200164794922,208.73899841308594)"><path fill="rgb(255,255,255)" fill-opacity="1" d=" M-42.970001220703125,-8.97599983215332 C-42.970001220703125,-8.97599983215332 -33.4640007019043,-17.704999923706055 -21.339000701904297,-18.048999786376953 C-16.868000030517578,-18.176000595092773 -4.113999843597412,2.0929999351501465 -2.0220000743865967,2.306999921798706 C1.0049999952316284,2.617000102996826 16.85099983215332,-12.420999526977539 20.334999084472656,-12.272000312805176 C27.416000366210938,-11.967000007629395 38.88199996948242,1.6579999923706055 38.88199996948242,1.6579999923706055 C38.88199996948242,1.6579999923706055 42.970001220703125,14.569999694824219 42.970001220703125,14.569999694824219 C42.970001220703125,14.569999694824219 9.147000312805176,18.176000595092773 -13.10200023651123,10.303000450134277 C-35.35200119018555,2.430999994277954 -42.970001220703125,-8.97599983215332 -42.970001220703125,-8.97599983215332z"></path><path stroke-linecap="round" stroke-linejoin="round" fill-opacity="0" stroke="rgb(133,151,193)" stroke-opacity="1" stroke-width="8.208" d=" M-42.970001220703125,-8.97599983215332 C-42.970001220703125,-8.97599983215332 -33.4640007019043,-17.704999923706055 -21.339000701904297,-18.048999786376953 C-16.868000030517578,-18.176000595092773 -4.113999843597412,2.0929999351501465 -2.0220000743865967,2.306999921798706 C1.0049999952316284,2.617000102996826 16.85099983215332,-12.420999526977539 20.334999084472656,-12.272000312805176 C27.416000366210938,-11.967000007629395 38.88199996948242,1.6579999923706055 38.88199996948242,1.6579999923706055 C38.88199996948242,1.6579999923706055 42.970001220703125,14.569999694824219 42.970001220703125,14.569999694824219 C42.970001220703125,14.569999694824219 9.147000312805176,18.176000595092773 -13.10200023651123,10.303000450134277 C-35.35200119018555,2.430999994277954 -42.970001220703125,-8.97599983215332 -42.970001220703125,-8.97599983215332z"></path></g><g opacity="1" transform="matrix(1,0,0,1,174.26100158691406,205.0989990234375)"><path fill="rgb(255,255,255)" fill-opacity="1" d=" M-18.922000885009766,-2.447000026702881 C-18.922000885009766,-2.447000026702881 -18.97800064086914,-15.383999824523926 -17.04599952697754,-17.45800018310547 C-15.11400032043457,-19.533000946044922 3.5450000762939453,-8.895999908447266 10.932000160217285,-1.7519999742507935 C18.319000244140625,5.392000198364258 20.04800033569336,10.293999671936035 20.04800033569336,10.293999671936035 C20.04800033569336,10.293999671936035 10.720000267028809,16.670000076293945 0.6729999780654907,18.101999282836914 C-9.375,19.533000946044922 -14.484999656677246,18.261999130249023 -14.484999656677246,18.261999130249023 C-14.484999656677246,18.261999130249023 -20.04800033569336,6.559999942779541 -20.04800033569336,6.559999942779541 C-20.04800033569336,6.559999942779541 -18.922000885009766,-2.447000026702881 -18.922000885009766,-2.447000026702881z"></path><path stroke-linecap="round" stroke-linejoin="round" fill-opacity="0" stroke="rgb(133,151,193)" stroke-opacity="1" stroke-width="8.208" d=" M-18.922000885009766,-2.447000026702881 C-18.922000885009766,-2.447000026702881 -18.97800064086914,-15.383999824523926 -17.04599952697754,-17.45800018310547 C-15.11400032043457,-19.533000946044922 3.5450000762939453,-8.895999908447266 10.932000160217285,-1.7519999742507935 C18.319000244140625,5.392000198364258 20.04800033569336,10.293999671936035 20.04800033569336,10.293999671936035 C20.04800033569336,10.293999671936035 10.720000267028809,16.670000076293945 0.6729999780654907,18.101999282836914 C-9.375,19.533000946044922 -14.484999656677246,18.261999130249023 -14.484999656677246,18.261999130249023 C-14.484999656677246,18.261999130249023 -20.04800033569336,6.559999942779541 -20.04800033569336,6.559999942779541 C-20.04800033569336,6.559999942779541 -18.922000885009766,-2.447000026702881 -18.922000885009766,-2.447000026702881z"></path></g></g><g opacity="1" transform="matrix(1,0,0,1,0,0)"><g opacity="1" transform="matrix(1,0,0,1,190.4499969482422,62.215999603271484)"><path fill="rgb(255,255,255)" fill-opacity="1" d=" M51.81700134277344,-23.011999130249023 C51.81700134277344,-23.011999130249023 42.69200134277344,-4.230000019073486 31.264999389648438,-0.7480000257492065 C19.836999893188477,2.7339999675750732 11.182000160217285,-14.805999755859375 4.877999782562256,-14.532999992370605 C-1.4249999523162842,-14.258999824523926 -6.276000022888184,7.35099983215332 -17.86199951171875,19.299999237060547 C-29.447999954223633,31.24799919128418 -51.41400146484375,0.574999988079071 -51.41400146484375,0.574999988079071 C-51.41400146484375,0.574999988079071 -32.23500061035156,-22.326000213623047 -4.611999988555908,-27.05900001525879 C34.380001068115234,-33.7400016784668 51.81700134277344,-23.011999130249023 51.81700134277344,-23.011999130249023z"></path><path stroke-linecap="round" stroke-linejoin="round" fill-opacity="0" stroke="rgb(133,151,193)" stroke-opacity="1" stroke-width="8.375" d=" M51.81700134277344,-23.011999130249023 C51.81700134277344,-23.011999130249023 42.69200134277344,-4.230000019073486 31.264999389648438,-0.7480000257492065 C19.836999893188477,2.7339999675750732 11.182000160217285,-14.805999755859375 4.877999782562256,-14.532999992370605 C-1.4249999523162842,-14.258999824523926 -6.276000022888184,7.35099983215332 -17.86199951171875,19.299999237060547 C-29.447999954223633,31.24799919128418 -51.41400146484375,0.574999988079071 -51.41400146484375,0.574999988079071 C-51.41400146484375,0.574999988079071 -32.23500061035156,-22.326000213623047 -4.611999988555908,-27.05900001525879 C34.380001068115234,-33.7400016784668 51.81700134277344,-23.011999130249023 51.81700134277344,-23.011999130249023z"></path></g><g opacity="1" transform="matrix(1,0,0,1,102.99400329589844,94.77400207519531)"><path fill="rgb(255,255,255)" fill-opacity="1" d=" M-36.52399826049805,15.215999603271484 C-36.52399826049805,15.215999603271484 -23.340999603271484,31.614999771118164 -17.783000946044922,33.66299819946289 C-12.22599983215332,35.709999084472656 2.9719998836517334,10.050000190734863 7.218999862670898,9.210000038146973 C11.467000007629395,8.369999885559082 24.195999145507812,17.733999252319336 28.836999893188477,16.45199966430664 C37.76300048828125,13.986000061035156 38.85100173950195,-11.131999969482422 39.44599914550781,-17.165000915527344 C40.040000915527344,-23.197999954223633 38.91999816894531,-35.709999084472656 38.91999816894531,-35.709999084472656 C38.91999816894531,-35.709999084472656 33.66999816894531,-30.822999954223633 33.66999816894531,-30.822999954223633 C33.66999816894531,-30.822999954223633 15.98799991607666,-15.934000015258789 -2.5480000972747803,-4.968999862670898 C-21.083999633789062,5.995999813079834 -40.040000915527344,5.025000095367432 -40.040000915527344,5.025000095367432 C-40.040000915527344,5.025000095367432 -36.52399826049805,15.215999603271484 -36.52399826049805,15.215999603271484z"></path><path stroke-linecap="round" stroke-linejoin="round" fill-opacity="0" stroke="rgb(133,151,193)" stroke-opacity="1" stroke-width="8.469" d=" M-36.52399826049805,15.215999603271484 C-36.52399826049805,15.215999603271484 -23.340999603271484,31.614999771118164 -17.783000946044922,33.66299819946289 C-12.22599983215332,35.709999084472656 2.9719998836517334,10.050000190734863 7.218999862670898,9.210000038146973 C11.467000007629395,8.369999885559082 24.195999145507812,17.733999252319336 28.836999893188477,16.45199966430664 C37.76300048828125,13.986000061035156 38.85100173950195,-11.131999969482422 39.44599914550781,-17.165000915527344 C40.040000915527344,-23.197999954223633 38.91999816894531,-35.709999084472656 38.91999816894531,-35.709999084472656 C38.91999816894531,-35.709999084472656 33.66999816894531,-30.822999954223633 33.66999816894531,-30.822999954223633 C33.66999816894531,-30.822999954223633 15.98799991607666,-15.934000015258789 -2.5480000972747803,-4.968999862670898 C-21.083999633789062,5.995999813079834 -40.040000915527344,5.025000095367432 -40.040000915527344,5.025000095367432 C-40.040000915527344,5.025000095367432 -36.52399826049805,15.215999603271484 -36.52399826049805,15.215999603271484z"></path></g><g opacity="1" transform="matrix(1,0,0,1,48.06399917602539,121.28600311279297)"><path fill="rgb(255,255,255)" fill-opacity="1" d=" M-17.60700035095215,-0.8009999990463257 C-17.60700035095215,-0.8009999990463257 -6.151000022888184,14.569999694824219 1.3109999895095825,16.961000442504883 C16.48900032043457,21.82200050354004 14.925000190734863,-12.565999984741211 16.266000747680664,-16.604999542236328 C17.60700035095215,-20.645000457763672 8.940999984741211,-21.82200050354004 0.9110000133514404,-20.47800064086914 C-7.118000030517578,-19.134000778198242 -8.137999534606934,-17.618000030517578 -11.512999534606934,-14.491999626159668 C-14.26099967956543,-11.946000099182129 -17.60700035095215,-0.8009999990463257 -17.60700035095215,-0.8009999990463257z"></path><path stroke-linecap="round" stroke-linejoin="round" fill-opacity="0" stroke="rgb(133,151,193)" stroke-opacity="1" stroke-width="8.208" d=" M-17.60700035095215,-0.8009999990463257 C-17.60700035095215,-0.8009999990463257 -6.151000022888184,14.569999694824219 1.3109999895095825,16.961000442504883 C16.48900032043457,21.82200050354004 14.925000190734863,-12.565999984741211 16.266000747680664,-16.604999542236328 C17.60700035095215,-20.645000457763672 8.940999984741211,-21.82200050354004 0.9110000133514404,-20.47800064086914 C-7.118000030517578,-19.134000778198242 -8.137999534606934,-17.618000030517578 -11.512999534606934,-14.491999626159668 C-14.26099967956543,-11.946000099182129 -17.60700035095215,-0.8009999990463257 -17.60700035095215,-0.8009999990463257z"></path></g></g><g opacity="1" transform="matrix(1,0,0,1,140.13400268554688,130.62100219726562)"><path stroke-linecap="butt" stroke-linejoin="miter" fill-opacity="0" stroke-miterlimit="10" stroke="rgb(112,39,16)" stroke-opacity="1" stroke-width="13" d=" M-111.76899719238281,-0.09200000017881393 C-111.93099975585938,-6.881999969482422 -111.75199890136719,-22.985000610351562 -95.75700378417969,-27.163000106811523 C-79.76300048828125,-31.34000015258789 -61.00899887084961,-30.163999557495117 -50.18899917602539,-37.10300064086914 C-39.369998931884766,-44.04199981689453 14.404000282287598,-86.18800354003906 40.84299850463867,-94.3030014038086 C67.28199768066406,-102.41799926757812 100.22699737548828,-100.36399841308594 108.52799987792969,-83.80400085449219 C111.93099975585938,-77.01599884033203 96.33699798583984,-61.875 94.58200073242188,-32.4379997253418 C92.8270034790039,-3 90.11399841308594,16.02899932861328 85.53399658203125,38.62200164794922 C80.8499984741211,61.73099899291992 62.32400131225586,90.61699676513672 24.839000701904297,95.9990005493164 C-19.871000289916992,102.41799926757812 -45.06700134277344,92.56300354003906 -71.79000091552734,70.83100128173828 C-95.19100189208984,51.79999923706055 -111.15299987792969,25.759000778198242 -111.76899719238281,-0.09200000017881393z"></path></g></g></g><g style="display: block;" transform="matrix(1,0,0,1,357.02099609375,9.397994995117188)" opacity="1"><g opacity="1" transform="matrix(0.7351999878883362,0,0,0.7351999878883362,60.055999755859375,91.40799713134766)"><path stroke-linecap="round" stroke-linejoin="round" fill-opacity="0" stroke="rgb(34,225,50)" stroke-opacity="1" stroke-width="20" d=" M26.24799919128418,0 C26.24799919128418,14.496000289916992 14.496000289916992,26.24799919128418 -0.0010000000474974513,26.24799919128418 C-14.496999740600586,26.24799919128418 -26.24799919128418,14.496000289916992 -26.24799919128418,0 C-26.24799919128418,-14.496000289916992 -14.496999740600586,-26.24799919128418 -0.0010000000474974513,-26.24799919128418 C14.496000289916992,-26.24799919128418 26.24799919128418,-14.496000289916992 26.24799919128418,0z"></path></g><g opacity="0" transform="matrix(0.5053200125694275,0,0,0.5053200125694275,-14.45300006866455,308.4620056152344)"><path stroke-linecap="round" stroke-linejoin="round" fill-opacity="0" stroke="rgb(34,225,50)" stroke-opacity="1" stroke-width="11" d=" M13.50100040435791,0 C13.50100040435791,7.455999851226807 7.455999851226807,13.50100040435791 -0.0010000000474974513,13.50100040435791 C-7.456999778747559,13.50100040435791 -13.50100040435791,7.455999851226807 -13.50100040435791,0 C-13.50100040435791,-7.455999851226807 -7.456999778747559,-13.50100040435791 -0.0010000000474974513,-13.50100040435791 C7.455999851226807,-13.50100040435791 13.50100040435791,-7.455999851226807 13.50100040435791,0z"></path></g><g opacity="1" transform="matrix(1.614650011062622,0,0,1.614650011062622,113.66400146484375,217.22000122070312)"><path stroke-linecap="round" stroke-linejoin="round" fill-opacity="0" stroke="rgb(34,225,50)" stroke-opacity="1" stroke-width="11" d=" M13.50100040435791,0 C13.50100040435791,7.455999851226807 7.455999851226807,13.50100040435791 -0.0010000000474974513,13.50100040435791 C-7.456999778747559,13.50100040435791 -13.50100040435791,7.455999851226807 -13.50100040435791,0 C-13.50100040435791,-7.455999851226807 -7.456999778747559,-13.50100040435791 -0.0010000000474974513,-13.50100040435791 C7.455999851226807,-13.50100040435791 13.50100040435791,-7.455999851226807 13.50100040435791,0z"></path></g></g></g></svg>