<svg xmlns="http://www.w3.org/2000/svg" xmlns:xlink="http://www.w3.org/1999/xlink" viewBox="0 0 512 512" width="512" height="512" style="width: 100%; height: 100%; transform: translate3d(0,0,0); content-visibility: visible;" preserveAspectRatio="xMidYMid meet"><defs><clipPath id="__lottie_element_2"><rect width="512" height="512" x="0" y="0"></rect></clipPath><radialGradient id="__lottie_element_10" spreadMethod="pad" gradientUnits="userSpaceOnUse" cx="-100" cy="-157" r="307.53518266912096" fx="-100" fy="-157"><stop offset="0%" stop-color="rgb(252,238,221)"></stop><stop offset="50%" stop-color="rgb(248,210,183)"></stop><stop offset="100%" stop-color="rgb(243,183,144)"></stop></radialGradient><radialGradient id="__lottie_element_11" spreadMethod="pad" gradientUnits="userSpaceOnUse" cx="-82" cy="-141" r="349.704796947085" fx="-82" fy="-141"><stop offset="10%" stop-color="rgb(225,147,111)" stop-opacity="0"></stop><stop offset="55%" stop-color="rgb(225,147,111)" stop-opacity="0.5"></stop><stop offset="100%" stop-color="rgb(225,147,111)" stop-opacity="1"></stop></radialGradient><radialGradient id="__lottie_element_12" spreadMethod="pad" gradientUnits="userSpaceOnUse" cx="196" cy="-94" r="174.18160055519564" fx="196" fy="-94"><stop offset="10%" stop-color="rgb(225,147,111)" stop-opacity="0"></stop><stop offset="55%" stop-color="rgb(225,147,111)" stop-opacity="0.5"></stop><stop offset="100%" stop-color="rgb(225,147,111)" stop-opacity="1"></stop></radialGradient><radialGradient id="__lottie_element_13" spreadMethod="pad" gradientUnits="userSpaceOnUse" cx="100.70999908447266" cy="-104.5" r="96.18863439538865" fx="100.70999908447266" fy="-104.5"><stop offset="0%" stop-color="rgb(229,27,27)" stop-opacity="1"></stop><stop offset="50%" stop-color="rgb(236,105,85)" stop-opacity="0.5"></stop><stop offset="100%" stop-color="rgb(243,183,144)" stop-opacity="0"></stop></radialGradient><radialGradient id="__lottie_element_14" spreadMethod="pad" gradientUnits="userSpaceOnUse" cx="-98.30400085449219" cy="-39.766998291015625" r="127.6524622333891" fx="-98.30400085449219" fy="-39.766998291015625"><stop offset="0%" stop-color="rgb(229,27,27)" stop-opacity="1"></stop><stop offset="50%" stop-color="rgb(236,105,85)" stop-opacity="0.5"></stop><stop offset="100%" stop-color="rgb(243,183,144)" stop-opacity="0"></stop></radialGradient></defs><g clip-path="url(#__lottie_element_2)"><g style="display: block;" transform="matrix(1,0,0,1,256,256)" opacity="1"><g opacity="1" transform="matrix(1,0,0,1,0,0)"><path stroke-linecap="round" stroke-linejoin="round" fill-opacity="0" stroke="rgb(75,33,24)" stroke-opacity="1" stroke-width="12.3" d=" M-23.114999771118164,267.16900634765625 C-23.114999771118164,267.16900634765625 -28.81399917602539,224.05299377441406 -32.61800003051758,201.0919952392578 C-36.422000885009766,178.13099670410156 -56.202999114990234,145.24000549316406 -56.202999114990234,145.24000549316406"></path></g><g opacity="1" transform="matrix(1,0,0,1,0,0)"><path stroke-linecap="round" stroke-linejoin="round" fill-opacity="0" stroke="rgb(75,33,24)" stroke-opacity="1" stroke-width="12.3" d=" M-52.14099884033203,153.57400512695312 C-52.14099884033203,153.57400512695312 -17.143999099731445,191.42999267578125 -0.4059999883174896,203.84100341796875 C16.332000732421875,216.2519989013672 20.895999908447266,216.2530059814453 18.61400032043457,228.66400146484375 C16.332000732421875,241.0749969482422 5.25600004196167,265.39599609375 5.25600004196167,265.39599609375"></path></g><g opacity="1" transform="matrix(1,0,0,1,0,0)"><path stroke-linecap="round" stroke-linejoin="round" fill-opacity="0" stroke="rgb(75,33,24)" stroke-opacity="1" stroke-width="12.3" d=" M-49.27299880981445,150.53500366210938 C-49.27299880981445,150.53500366210938 -44.67100143432617,186.94500732421875 -54.05099868774414,205.74000549316406 C-63.430999755859375,224.53500366210938 -76.95700073242188,234.02200317382812 -74.07599639892578,241.28599548339844 C-71.19499969482422,248.5500030517578 -39.959999084472656,267.16900634765625 -39.959999084472656,267.16900634765625"></path></g></g><g style="display: block;" transform="matrix(0.6399999856948853,0,0,0.6399999856948853,247.1602020263672,343.8507995605469)" opacity="1"><g opacity="1" transform="matrix(1,0,0,1,0,0)"><path stroke-linecap="round" stroke-linejoin="round" fill-opacity="0" stroke="rgb(113,140,170)" stroke-opacity="1" stroke-width="9.13" d=" M36.632999420166016,196.11300659179688 C36.632999420166016,196.11300659179688 49.65999984741211,209.39599609375 56.17399978637695,222.01400756835938 C62.6879997253418,234.6320037841797 64.31700134277344,241.93800354003906 64.31700134277344,241.93800354003906"></path></g><g opacity="0.66" transform="matrix(1,0,0,1,0,0)"><path stroke-linecap="round" stroke-linejoin="round" fill-opacity="0" stroke="rgb(113,140,170)" stroke-opacity="1" stroke-width="9.13" d=" M62.6879997253418,183.4949951171875 C62.6879997253418,183.4949951171875 75.71499633789062,192.79299926757812 83.04299926757812,203.41900634765625 C90.37100219726562,214.0449981689453 91.18499755859375,220.68600463867188 91.18499755859375,220.68600463867188"></path></g><g opacity="0.45" transform="matrix(1,0,0,1,0,0)"><path stroke-linecap="round" stroke-linejoin="round" fill-opacity="0" stroke="rgb(113,140,170)" stroke-opacity="1" stroke-width="8.302" d=" M59.74399948120117,153.7830047607422 C59.74399948120117,153.7830047607422 77.51399993896484,153.7830047607422 92.3219985961914,163.4459991455078 C107.12999725341797,173.10899353027344 110.83200073242188,182.16799926757812 110.83200073242188,182.16799926757812"></path></g><g opacity="0.45" transform="matrix(1,0,0,1,0,0)"><path stroke-linecap="round" stroke-linejoin="round" fill-opacity="0" stroke="rgb(113,140,170)" stroke-opacity="1" stroke-width="8.302" d=" M136.14999389648438,202.03700256347656 C136.14999389648438,202.03700256347656 147.593994140625,210.1439971923828 149.0240020751953,221.14700317382812 C150.45399475097656,232.14999389648438 150.45399475097656,236.78199768066406 150.45399475097656,236.78199768066406"></path></g><g opacity="1" transform="matrix(1,0,0,1,0,0)"><path stroke-linecap="round" stroke-linejoin="round" fill-opacity="0" stroke="rgb(113,140,170)" stroke-opacity="1" stroke-width="10.972" d=" M-92.41300201416016,189.14199829101562 C-92.41300201416016,189.14199829101562 -102.3010025024414,194.98599243164062 -107.81900024414062,206.77699279785156 C-111.71499633789062,215.10400390625 -110.3219985961914,230.62899780273438 -110.3219985961914,230.62899780273438"></path></g><g opacity="0.61" transform="matrix(1,0,0,1,0,0)"><path stroke-linecap="round" stroke-linejoin="round" fill-opacity="0" stroke="rgb(113,140,170)" stroke-opacity="1" stroke-width="10.972" d=" M-109.7249984741211,175.36500549316406 C-109.7249984741211,175.36500549316406 -128.57699584960938,181.4010009765625 -138.07000732421875,197.2100067138672 C-147.56300354003906,213.0189971923828 -151.46499633789062,220.6909942626953 -151.46499633789062,220.6909942626953"></path></g><g opacity="0.49" transform="matrix(1,0,0,1,0,0)"><path stroke-linecap="round" stroke-linejoin="round" fill-opacity="0" stroke="rgb(113,140,170)" stroke-opacity="1" stroke-width="8.89" d=" M-147.91700744628906,157.343994140625 C-147.91700744628906,157.343994140625 -169.4810028076172,162.31900024414062 -178.68699645996094,174.7570037841797 C-187.89300537109375,187.19500732421875 -191.00900268554688,200.57699584960938 -191.00900268554688,200.57699584960938"></path></g></g><g style="display: none;"><g><path stroke-linecap="round" stroke-linejoin="round" fill-opacity="0"></path></g><g><path stroke-linecap="round" stroke-linejoin="round" fill-opacity="0"></path></g><g><path stroke-linecap="round" stroke-linejoin="round" fill-opacity="0"></path></g><g><path stroke-linecap="round" stroke-linejoin="round" fill-opacity="0"></path></g><g><path stroke-linecap="round" stroke-linejoin="round" fill-opacity="0"></path></g></g><g style="display: block;" transform="matrix(1,0,0,1,256,256)" opacity="1"><g opacity="1" transform="matrix(1,0,0,1,0.8790000081062317,0)"><path fill="url(#__lottie_element_10)" fill-opacity="1" d=" M-67.61499786376953,-229.57699584960938 C38.946998596191406,-232.8699951171875 95.197998046875,-191.2519989013672 136.28199768066406,-105.40399932861328 C177.36599731445312,-19.555999755859375 163.6719970703125,50.96099853515625 86.06900024414062,109.21499633789062 C8.465999603271484,167.468994140625 -110.22100067138672,153.6719970703125 -160.4340057373047,123.01200103759766 C-210.64700317382812,92.35199737548828 -232.031005859375,36.2140007019043 -233.4709930419922,-34.88600158691406 C-234.9929962158203,-110.00299835205078 -190.67999267578125,-225.7740020751953 -67.61499786376953,-229.57699584960938z"></path><path stroke-linecap="butt" stroke-linejoin="miter" fill-opacity="0" stroke-miterlimit="10" stroke="rgb(183,100,68)" stroke-opacity="1" stroke-width="12.3" d=" M-67.61499786376953,-229.57699584960938 C38.946998596191406,-232.8699951171875 95.197998046875,-191.2519989013672 136.28199768066406,-105.40399932861328 C177.36599731445312,-19.555999755859375 163.6719970703125,50.96099853515625 86.06900024414062,109.21499633789062 C8.465999603271484,167.468994140625 -110.22100067138672,153.6719970703125 -160.4340057373047,123.01200103759766 C-210.64700317382812,92.35199737548828 -232.031005859375,36.2140007019043 -233.4709930419922,-34.88600158691406 C-234.9929962158203,-110.00299835205078 -190.67999267578125,-225.7740020751953 -67.61499786376953,-229.57699584960938z"></path></g><g opacity="1" transform="matrix(1,0,0,1,0,0)"><path fill="url(#__lottie_element_11)" fill-opacity="1" d=" M-199.25,-140.66099548339844 C-199.25,-140.66099548339844 -226.91299438476562,54.04800033569336 -108.22699737548828,83.94100189208984 C-79.81099700927734,91.0979995727539 -52.29399871826172,93.5770034790039 -26.6560001373291,93.03500366210938 C-10.651000022888184,92.69599914550781 22.648000717163086,97.6719970703125 38.75,91.23100280761719 C82.09400177001953,73.89299774169922 71.06099700927734,34.095001220703125 71.06099700927734,34.095001220703125 C71.06099700927734,34.095001220703125 92.31900024414062,61.487998962402344 102.19000244140625,59.70800018310547 C126.22599792480469,55.374000549316406 120.41200256347656,29.486000061035156 125.04399871826172,25.81999969482422 C131.9929962158203,20.31999969482422 132.60800170898438,46.930999755859375 116.76899719238281,69.55799865722656 C96.18900299072266,98.95700073242188 50.83100128173828,128.0399932861328 -13.657999992370605,137.13600158691406 C-31.77400016784668,139.6909942626953 -52.308998107910156,139.39999389648438 -69.21700286865234,138.3179931640625 C-158.82200622558594,132.58200073242188 -216.91000366210938,81.58100128173828 -221.7100067138672,-3.5360000133514404 C-227.41600036621094,-104.71399688720703 -199.25,-140.66099548339844 -199.25,-140.66099548339844z"></path></g><g opacity="1" transform="matrix(1,0,0,1,0,0)"><path fill="url(#__lottie_element_12)" fill-opacity="1" d=" M125.83200073242188,-111.40399932861328 C125.83200073242188,-111.40399932861328 147.85400390625,-27.52199935913086 145.19400024414062,-1.8109999895095825 C142.53399658203125,23.899999618530273 117.41200256347656,67.59300231933594 117.41200256347656,67.59300231933594 C117.41200256347656,67.59300231933594 113.3949966430664,74.40299987792969 113.3949966430664,74.40299987792969 C113.3949966430664,74.40299987792969 157.1300048828125,39.112998962402344 152.6269989013672,-25.798999786376953 C149.6179962158203,-69.17400360107422 125.83200073242188,-111.40399932861328 125.83200073242188,-111.40399932861328z"></path></g><g opacity="1" transform="matrix(1,0,0,1,0.8790000081062317,0)"><path fill="url(#__lottie_element_13)" fill-opacity="0" d=" M-66.02899932861328,-224.2429962158203 C36.1870002746582,-227.4199981689453 90.1449966430664,-187.26499938964844 129.55299377441406,-104.43299865722656 C168.96099853515625,-21.60099983215332 155.8249969482422,46.43899917602539 81.38700103759766,102.64600372314453 C6.948999881744385,158.85299682617188 -106.89700317382812,145.54100036621094 -155.06199645996094,115.95800018310547 C-203.2270050048828,86.375 -223.73899841308594,32.20899963378906 -225.12100219726562,-36.393001556396484 C-226.58099365234375,-108.87100219726562 -184.0749969482422,-220.57400512695312 -66.02899932861328,-224.2429962158203z"></path></g><g opacity="1" transform="matrix(1,0,0,1,0.8790000081062317,0)"><path fill="url(#__lottie_element_14)" fill-opacity="0" d=" M-66.02899932861328,-224.2429962158203 C36.1870002746582,-227.4199981689453 90.1449966430664,-187.26499938964844 129.55299377441406,-104.43299865722656 C168.96099853515625,-21.60099983215332 155.8249969482422,46.43899917602539 81.38700103759766,102.64600372314453 C6.948999881744385,158.85299682617188 -106.89700317382812,145.54100036621094 -155.06199645996094,115.95800018310547 C-203.2270050048828,86.375 -223.73899841308594,32.20899963378906 -225.12100219726562,-36.393001556396484 C-226.58099365234375,-108.87100219726562 -184.0749969482422,-220.57400512695312 -66.02899932861328,-224.2429962158203z"></path></g></g><g style="display: block;" transform="matrix(1,0,0,1,256.0006408691406,256.0006103515625)" opacity="1"><g opacity="1" transform="matrix(1,0,0,1,0.667999267578125,0.0630035400390625)"><g opacity="0.98" transform="matrix(1,0,0,1,0.4790000021457672,0.4690000116825104)"><path stroke-linecap="round" stroke-linejoin="round" fill-opacity="0" stroke="rgb(183,100,68)" stroke-opacity="1" stroke-width="9.814" d=" M120.33599853515625,20.67300033569336 C120.33599853515625,20.67300033569336 136.9290008544922,37.28900146484375 128.2259979248047,55.4640007019043 C119.52300262451172,73.63899993896484 100.48799896240234,73.16400146484375 100.48799896240234,73.16400146484375"></path></g><g opacity="1" transform="matrix(1,0,0,1,0.8790000081062317,0.4390000104904175)"><path stroke-linecap="round" stroke-linejoin="round" fill-opacity="0" stroke="rgb(183,100,68)" stroke-opacity="1" stroke-width="9.814" d=" M69.48500061035156,31.336999893188477 C69.48500061035156,31.336999893188477 85.9729995727539,60.26100158691406 69.87899780273438,85.31999969482422 C53.78499984741211,110.37899780273438 19.04800033569336,110.14399719238281 19.04800033569336,110.14399719238281"></path></g></g><g opacity="0.39" transform="matrix(1,0,0,1,0,0)"><path stroke-linecap="round" stroke-linejoin="round" fill-opacity="0" stroke="rgb(183,100,68)" stroke-opacity="1" stroke-width="9.814" d=" M-0.949999988079071,-56.13999938964844 C-0.949999988079071,-56.13999938964844 14.067999839782715,-32.59199905395508 8.409000396728516,-12.795999526977539"></path></g><g opacity="0.39" transform="matrix(1,0,0,1,0,0)"><path stroke-linecap="round" stroke-linejoin="round" fill-opacity="0" stroke="rgb(183,100,68)" stroke-opacity="1" stroke-width="9.814" d=" M5.921000003814697,-66.26899719238281 C5.921000003814697,-66.26899719238281 33.481998443603516,-51.36000061035156 35.99100112915039,-33.68000030517578"></path></g><g opacity="0.39" transform="matrix(1,0,0,1,0,0)"><path stroke-linecap="round" stroke-linejoin="round" fill-opacity="0" stroke="rgb(183,100,68)" stroke-opacity="1" stroke-width="9.814" d=" M23.652000427246094,-91.09400177001953 C23.652000427246094,-91.09400177001953 53.19599914550781,-73.25800323486328 53.722999572753906,-58.50400161743164"></path></g><g opacity="1" transform="matrix(1,0,0,1,0,0)"><path stroke-linecap="round" stroke-linejoin="round" fill-opacity="0" stroke="rgb(211,138,110)" stroke-opacity="1" stroke-width="9.225" d=" M104.40699768066406,-20.819000244140625 C104.40699768066406,-20.819000244140625 106.08000183105469,-5.038000106811523 94.16500091552734,4.730999946594238"></path></g><g opacity="0.73" transform="matrix(1,0,0,1,0,0)"><path stroke-linecap="round" stroke-linejoin="round" fill-opacity="0" stroke="rgb(183,100,68)" stroke-opacity="1" stroke-width="9.814" d=" M-98.7699966430664,-10.036999702453613 C-98.7699966430664,-10.036999702453613 -100.5270004272461,15.557999610900879 -78.67400360107422,21.8799991607666 C-56.82099914550781,28.20199966430664 -47.93899917602539,11.241000175476074 -47.93899917602539,11.241000175476074"></path></g><g opacity="1" transform="matrix(1,0,0,1,0,0)"><path stroke-linecap="round" stroke-linejoin="round" fill-opacity="0" stroke="rgb(211,138,110)" stroke-opacity="1" stroke-width="9.814" d=" M76.18299865722656,-111.6989974975586 C100.25,-116 102.19000244140625,-93.96800231933594 102.19000244140625,-93.96800231933594"></path></g><g opacity="1" transform="matrix(1,0,0,1,0,0)"><path stroke-linecap="round" stroke-linejoin="round" fill-opacity="0" stroke="rgb(211,138,110)" stroke-opacity="1" stroke-width="9.225" d=" M88.5199966430664,-60.02000045776367 C88.5199966430664,-60.02000045776367 96.55999755859375,-51.40399932861328 86.90499877929688,-42.45199966430664"></path></g><g opacity="1" transform="matrix(1,0,0,1,0,0)"><path fill="rgb(53,20,15)" fill-opacity="1" d=" M-65.5510025024414,-18.27199935913086 C-65.5510025024414,-18.27199935913086 -14.335000038146973,-58.26100158691406 29.198999404907227,-67.93599700927734 C72.73300170898438,-77.61100006103516 86.177001953125,-66.0009994506836 86.177001953125,-66.0009994506836 C86.177001953125,-66.0009994506836 93.80899810791016,-99.95099639892578 48.994998931884766,-96.72599792480469 C4.181000232696533,-93.5009994506836 -30.34000015258789,-66.0009994506836 -41.86399841308594,-53.74599838256836 C-53.38800048828125,-41.49100112915039 -65.5510025024414,-18.27199935913086 -65.5510025024414,-18.27199935913086z"></path></g><g opacity="1" transform="matrix(1,0,0,1,0,0)"><path fill="rgb(255,255,255)" fill-opacity="1" d=" M-36.76900100708008,-58.474998474121094 C-36,-59.5 -25,-39.5 -7.244999885559082,-48.290000915527344 C-4,-40.875 14.125,-42.125 19.757999420166016,-51.72999954223633 C26.5,-50.125 43.875,-50.5 43.75600051879883,-66.30999755859375 C48.5,-62.875 58.165000915527344,-65.08399963378906 63.18000030517578,-72.39399719238281 C68.19499969482422,-79.7040023803711 64.61000061035156,-92.37699890136719 61.55500030517578,-94.7509994506836 C45.875,-95.75 12.125,-98.125 -36.76900100708008,-58.474998474121094z"></path></g><g opacity="1" transform="matrix(1,0,0,1,0,0)"><path stroke-linecap="round" stroke-linejoin="round" fill-opacity="0" stroke="rgb(74,112,147)" stroke-opacity="1" stroke-width="11.693" d=" M-36.26900100708008,-57.474998474121094 C-35.5,-58.5 -25,-39.5 -7.244999885559082,-48.290000915527344 C-4,-40.875 14.125,-42.125 19.757999420166016,-51.72999954223633 C26.5,-50.125 43.875,-50.5 43.75600051879883,-66.30999755859375 C48.5,-62.875 75.25,-67.5 62.05500030517578,-93.7509994506836"></path></g><g opacity="0.41000000000000003" transform="matrix(1,0,0,1,0,0)"><path fill="rgb(255,255,255)" fill-opacity="1" d=" M-8.338000297546387,-57.91299819946289 C-8.338000297546387,-57.91299819946289 -6.572000026702881,-48.53900146484375 -6.572000026702881,-48.53900146484375"></path><path stroke-linecap="round" stroke-linejoin="round" fill-opacity="0" stroke="rgb(74,112,147)" stroke-opacity="1" stroke-width="11.857" d=" M-8.338000297546387,-57.91299819946289 C-8.338000297546387,-57.91299819946289 -6.572000026702881,-48.53900146484375 -6.572000026702881,-48.53900146484375"></path></g><g opacity="0.41000000000000003" transform="matrix(1,0,0,1,0,0)"><path fill="rgb(255,255,255)" fill-opacity="1" d=" M16.145000457763672,-66.73300170898438 C16.145000457763672,-66.73300170898438 19.874000549316406,-51.426998138427734 19.874000549316406,-51.426998138427734"></path><path stroke-linecap="round" stroke-linejoin="round" fill-opacity="0" stroke="rgb(74,112,147)" stroke-opacity="1" stroke-width="11.857" d=" M16.145000457763672,-66.73300170898438 C16.145000457763672,-66.73300170898438 19.874000549316406,-51.426998138427734 19.874000549316406,-51.426998138427734"></path></g><g opacity="0.41000000000000003" transform="matrix(1,0,0,1,0,0)"><path fill="rgb(255,255,255)" fill-opacity="1" d=" M41.31100082397461,-70.32499694824219 C41.31100082397461,-70.32499694824219 43.08399963378906,-67.37000274658203 43.97100067138672,-65.59700012207031"></path><path stroke-linecap="round" stroke-linejoin="round" fill-opacity="0" stroke="rgb(74,112,147)" stroke-opacity="1" stroke-width="11.857" d=" M41.31100082397461,-70.32499694824219 C41.31100082397461,-70.32499694824219 43.08399963378906,-67.37000274658203 43.97100067138672,-65.59700012207031"></path></g><g opacity="1" transform="matrix(1,0,0,1,0.3930000066757202,0.5979999899864197)"><path stroke-linecap="round" stroke-linejoin="round" fill-opacity="0" stroke="rgb(81,40,31)" stroke-opacity="1" stroke-width="9.814" d=" M-65.55699920654297,-19.312000274658203 C-40.893001556396484,-68.09700012207031 0.7059999704360962,-88.59100341796875 33.893001556396484,-95.1510009765625 C69.81300354003906,-102.2509994506836 95.10700225830078,-90.5979995727539 86.177001953125,-47.941001892089844"></path></g></g><g style="display: block;" transform="matrix(1,0,0,1,255.99981689453125,255.99996948242188)" opacity="1"><g opacity="1" transform="matrix(1,0,0,1,0,0)"><path stroke-linecap="round" stroke-linejoin="round" fill-opacity="0" stroke="rgb(211,138,110)" stroke-opacity="1" stroke-width="8.961" d=" M-10.23799991607666,-134.01100158691406 C-10.23799991607666,-134.01100158691406 0.7319999933242798,-123.51100158691406 15.543000221252441,-121.85299682617188 C30.354000091552734,-120.19499969482422 39.130001068115234,-121.3010025024414 39.130001068115234,-121.3010025024414"></path></g><g opacity="0.52" transform="matrix(1,0,0,1,0,0)"><path stroke-linecap="round" stroke-linejoin="round" fill-opacity="0" stroke="rgb(183,100,68)" stroke-opacity="1" stroke-width="9.957" d=" M68.34200286865234,-176.6820068359375 C68.34200286865234,-176.6820068359375 74.92400360107422,-178.33999633789062 80.95800018310547,-175.0240020751953 C86.99199676513672,-171.70799255371094 89.18699645996094,-168.94500732421875 89.18699645996094,-168.94500732421875"></path></g><g opacity="1" transform="matrix(1,0,0,1,0,0)"><path fill="rgb(255,255,255)" fill-opacity="1" d=" M-11.883999824523926,-162.1959991455078 C-10.786999702453613,-174.35400390625 -2.009999990463257,-188.1699981689453 23.770999908447266,-189.8280029296875 C58.875,-192.0850067138672 73.68800354003906,-173.802001953125 68.7509994506836,-156.6699981689453 C63.51499938964844,-138.50100708007812 46.26100158691406,-135.66900634765625 21.027999877929688,-135.66900634765625 C-4.204999923706055,-135.66900634765625 -12.960000038146973,-150.2689971923828 -11.883999824523926,-162.1959991455078z"></path><path stroke-linecap="round" stroke-linejoin="round" fill-opacity="0" stroke="rgb(119,81,70)" stroke-opacity="1" stroke-width="9.957" d=" M-11.883999824523926,-162.1959991455078 C-10.786999702453613,-174.35400390625 -2.009999990463257,-188.1699981689453 23.770999908447266,-189.8280029296875 C58.875,-192.0850067138672 73.68800354003906,-173.802001953125 68.7509994506836,-156.6699981689453 C63.51499938964844,-138.50100708007812 46.26100158691406,-135.66900634765625 21.027999877929688,-135.66900634765625 C-4.204999923706055,-135.66900634765625 -12.960000038146973,-150.2689971923828 -11.883999824523926,-162.1959991455078z"></path></g><g opacity="1" transform="matrix(1,0,0,1,0,0)"><path fill="rgb(255,255,255)" fill-opacity="1" d=" M-143.4010009765625,-131.15699768066406 C-143.4010009765625,-131.15699768066406 -143.10800170898438,-156.78199768066406 -101.91999816894531,-161.91900634765625 C-75.53900146484375,-165.20899963378906 -65.49700164794922,-149.6219940185547 -64.1719970703125,-134.69000244140625 C-63.428001403808594,-126.30899810791016 -65.43099975585938,-118.13400268554688 -68.83300018310547,-113.62000274658203 C-78.29499816894531,-101.06300354003906 -115.39099884033203,-97.97699737548828 -130.41900634765625,-105.96800231933594 C-145.44700622558594,-113.95899963378906 -143.4010009765625,-131.15699768066406 -143.4010009765625,-131.15699768066406z"></path><path stroke-linecap="round" stroke-linejoin="round" fill-opacity="0" stroke="rgb(119,81,70)" stroke-opacity="1" stroke-width="10.193" d=" M-143.4010009765625,-131.15699768066406 C-143.4010009765625,-131.15699768066406 -143.10800170898438,-156.78199768066406 -101.91999816894531,-161.91900634765625 C-75.53900146484375,-165.20899963378906 -65.49700164794922,-149.6219940185547 -64.1719970703125,-134.69000244140625 C-63.428001403808594,-126.30899810791016 -65.43099975585938,-118.13400268554688 -68.83300018310547,-113.62000274658203 C-78.29499816894531,-101.06300354003906 -115.39099884033203,-97.97699737548828 -130.41900634765625,-105.96800231933594 C-145.44700622558594,-113.95899963378906 -143.4010009765625,-131.15699768066406 -143.4010009765625,-131.15699768066406z"></path></g><g opacity="1" transform="matrix(1,0,0,1,0,0)"><path stroke-linecap="round" stroke-linejoin="round" fill-opacity="0" stroke="rgb(211,138,110)" stroke-opacity="1" stroke-width="9.174" d=" M-45.45600128173828,-136.4499969482422 C-45.45600128173828,-136.4499969482422 -41.00400161743164,-126.177001953125 -46.01300048828125,-106.77100372314453 C-51.02199935913086,-87.36499786376953 -56.5880012512207,-84.51100158691406 -56.5880012512207,-84.51100158691406"></path></g><g opacity="1" transform="matrix(1,0,0,1,0,0)"><g opacity="1" transform="matrix(1,0,0,1,0,0)"><g opacity="1" transform="matrix(1,0,0,1,0,0)"><path fill="rgb(29,29,27)" fill-opacity="1" d=" M-83.43599700927734,-132.4320068359375 C-80.6510009765625,-126.56500244140625 -82.40899658203125,-119.83399963378906 -87.36299896240234,-117.39700317382812 C-92.31700134277344,-114.95999908447266 -98.59200286865234,-117.74099731445312 -101.37699890136719,-123.60800170898438 C-104.16200256347656,-129.47500610351562 -102.40399932861328,-136.20599365234375 -97.44999694824219,-138.64300537109375 C-92.49600219726562,-141.0800018310547 -86.22100067138672,-138.2989959716797 -83.43599700927734,-132.4320068359375z"></path></g><g opacity="1" transform="matrix(1,0,0,1,0,0)"><path fill="rgb(255,255,255)" fill-opacity="1" d=" M-98.31800079345703,-135.08999633789062 C-96.79199981689453,-131.875 -97.75499725341797,-128.18600463867188 -100.47000122070312,-126.85099792480469 C-103.18499755859375,-125.51599884033203 -106.62300109863281,-127.03900146484375 -108.14900207519531,-130.25399780273438 C-109.67500305175781,-133.468994140625 -108.71199798583984,-137.1580047607422 -105.99700164794922,-138.4929962158203 C-103.28199768066406,-139.8280029296875 -99.84400177001953,-138.30499267578125 -98.31800079345703,-135.08999633789062z"></path></g></g><g opacity="1" transform="matrix(1,0,0,1,0,0)"><g opacity="1" transform="matrix(1,0,0,1,0,0)"><path fill="rgb(29,29,27)" fill-opacity="1" d=" M36.1619987487793,-170.3520050048828 C38.62099838256836,-165.7449951171875 37.327999114990234,-160.25599670410156 33.275001525878906,-158.09300231933594 C29.222000122070312,-155.92999267578125 23.94300079345703,-157.91200256347656 21.483999252319336,-162.5189971923828 C19.024999618530273,-167.12600708007812 20.31800079345703,-172.61500549316406 24.371000289916992,-174.7779998779297 C28.423999786376953,-176.9409942626953 33.702999114990234,-174.95899963378906 36.1619987487793,-170.3520050048828z"></path></g><g opacity="1" transform="matrix(1,0,0,1,0,0)"><path fill="rgb(255,255,255)" fill-opacity="1" d=" M20.2549991607666,-168.8179931640625 C22.613000869750977,-167.0970001220703 23.325000762939453,-164.0590057373047 21.84600067138672,-162.03199768066406 C20.367000579833984,-160.0050048828125 17.256000518798828,-159.7570037841797 14.89799976348877,-161.47799682617188 C12.539999961853027,-163.19900512695312 11.82699966430664,-166.23699951171875 13.305999755859375,-168.26400756835938 C14.78499984741211,-170.29100036621094 17.89699935913086,-170.53900146484375 20.2549991607666,-168.8179931640625z"></path></g></g></g><g opacity="1" transform="matrix(1,0,0,1,0,0)"><path fill="rgb(244,199,168)" fill-opacity="1" d=" M-123.69599914550781,-100.76300048828125 C-103.25,-120.75 -59.32400131225586,-123.25299835205078 -59.32400131225586,-121.3499984741211 C-59.32400131225586,-119.4469985961914 -58.37699890136719,-104.4469985961914 -80.62200164794922,-98.43299865722656 C-100.09500122070312,-93.16799926757812 -123.51699829101562,-97.5260009765625 -123.69599914550781,-100.76300048828125z"></path><path stroke-linecap="round" stroke-linejoin="round" fill-opacity="0" stroke="rgb(183,100,68)" stroke-opacity="1" stroke-width="10.193" d=" M-123.69599914550781,-100.76300048828125 C-103.25,-120.75 -59.32400131225586,-123.25299835205078 -59.32400131225586,-121.3499984741211 C-59.32400131225586,-119.4469985961914 -58.37699890136719,-104.4469985961914 -80.62200164794922,-98.43299865722656 C-100.09500122070312,-93.16799926757812 -123.51699829101562,-97.5260009765625 -123.69599914550781,-100.76300048828125z"></path></g><g opacity="1" transform="matrix(1,0,0,1,0,0)"><path fill="rgb(244,199,168)" fill-opacity="1" d=" M0.7110000252723694,-140.9499969482422 C6.611000061035156,-145.5850067138672 11.329000473022461,-155.07200622558594 36.99300003051758,-161.94000244140625 C58.28300094604492,-167.63699340820312 74.37300109863281,-160.1580047607422 73.2760009765625,-156.8419952392578 C72.17900085449219,-153.5260009765625 66.86100006103516,-140.7310028076172 45.34700012207031,-135.66900634765625 C17,-129 -0.953000009059906,-139.64300537109375 0.7110000252723694,-140.9499969482422z"></path><path stroke-linecap="round" stroke-linejoin="round" fill-opacity="0" stroke="rgb(183,100,68)" stroke-opacity="1" stroke-width="9.957" d=" M0.7110000252723694,-140.9499969482422 C6.611000061035156,-145.5850067138672 11.329000473022461,-155.07200622558594 36.99300003051758,-161.94000244140625 C58.28300094604492,-167.63699340820312 74.37300109863281,-160.1580047607422 73.2760009765625,-156.8419952392578 C72.17900085449219,-153.5260009765625 66.86100006103516,-140.7310028076172 45.34700012207031,-135.66900634765625 C17,-129 -0.953000009059906,-139.64300537109375 0.7110000252723694,-140.9499969482422z"></path></g><g opacity="0.49" transform="matrix(1,0,0,1,0,0)"><path stroke-linecap="round" stroke-linejoin="round" fill-opacity="0" stroke="rgb(183,100,68)" stroke-opacity="1" stroke-width="10.193" d=" M-156.68699645996094,-110.81999969482422 C-156.68699645996094,-110.81999969482422 -156.99099731445312,-101.83899688720703 -153.6439971923828,-94.71600341796875 C-150.2969970703125,-87.59300231933594 -141.16900634765625,-84.80599975585938 -141.16900634765625,-84.80599975585938"></path></g></g><g style="display: block;" transform="matrix(1,0,0,1,252.5284881591797,245.31405639648438)" opacity="1"><g opacity="0.8200000000000001" transform="matrix(1,0,0,1,0,0)"><path fill="rgb(211,138,110)" fill-opacity="1" d=" M-168.8509979248047,-138.7969970703125 C-168.8509979248047,-138.7969970703125 -158.9969940185547,-161.86399841308594 -148.5449981689453,-171.66799926757812 C-138.09300231933594,-181.4720001220703 -132.18899536132812,-184.67799377441406 -119.93499755859375,-186.1300048828125 C-107.68099975585938,-187.58200073242188 -87.86699676513672,-184.8730010986328 -87.86699676513672,-192.41799926757812 C-87.86699676513672,-200.3780059814453 -99.90599822998047,-203.4709930419922 -113.96199798583984,-203.10800170898438 C-128.01800537109375,-202.7449951171875 -145.43800354003906,-198.552001953125 -162.3780059814453,-183.30099487304688 C-179.3179931640625,-168.0500030517578 -179.66299438476562,-138.4340057373047 -179.66299438476562,-138.4340057373047 C-179.66299438476562,-138.4340057373047 -180.0229949951172,-134.07699584960938 -175.33799743652344,-133.71400451660156 C-170.6529998779297,-133.3509979248047 -168.8509979248047,-138.7969970703125 -168.8509979248047,-138.7969970703125z"></path></g><g opacity="0.8200000000000001" transform="matrix(1,0,0,1,0,0)"><path fill="rgb(211,138,110)" fill-opacity="1" d=" M-53.117000579833984,-199.17599487304688 C-52.819000244140625,-199.29800415039062 -52.4379997253418,-199.48500061035156 -52.10200119018555,-199.59500122070312 C-45.470001220703125,-201.7740020751953 -33.67599868774414,-199.0030059814453 -27.742000579833984,-202.63400268554688 C-21.808000564575195,-206.26499938964844 -14.359000205993652,-217.15199279785156 4.840000152587891,-217.51499938964844 C18.858999252319336,-217.77999877929688 31.343000411987305,-211.49899291992188 33.766998291015625,-209.97000122070312 C37.42100143432617,-207.66400146484375 38.58300018310547,-206.16700744628906 38.233001708984375,-204.93899536132812 C37.21799850463867,-201.37600708007812 33.970001220703125,-202.63400268554688 29.707000732421875,-203.4720001220703 C24.381000518798828,-204.5189971923828 13.239999771118164,-208.18600463867188 -2.4690001010894775,-202.73899841308594 C-18.17799949645996,-197.29200744628906 -25.753000259399414,-185.85299682617188 -36.47100067138672,-183.77000427246094 C-54.29800033569336,-180.30499267578125 -57.01100158691406,-197.57400512695312 -53.117000579833984,-199.17599487304688z"></path></g><g opacity="1" transform="matrix(1,0,0,1,0,0)"><path fill="rgb(75,33,24)" fill-opacity="1" d=" M-52.672000885009766,-191.73500061035156 C-61.369998931884766,-197.70799255371094 -57.95000076293945,-203.86099243164062 -53.92900085449219,-205.46299743652344 C-53.62200164794922,-205.5850067138672 -53.22800064086914,-205.7729949951172 -52.88100051879883,-205.88299560546875 C-46.03300094604492,-208.06199645996094 -34.375999450683594,-206.36099243164062 -27.729999542236328,-208.9219970703125 C-16.5,-213.25 -6.25,-234.75 35.777000427246094,-216.25799560546875 C39.82400131225586,-214.4770050048828 40.777000427246094,-212.44700622558594 40.388999938964844,-211.2270050048828 C38.25,-204.5 14.583999633789062,-214.4739990234375 -1.6349999904632568,-209.02699279785156 C-17.854000091552734,-203.5800018310547 -25.569000244140625,-191.50999450683594 -36.742000579833984,-190.05799865722656 C-42.33100128173828,-189.33099365234375 -49.8380012512207,-189.78900146484375 -52.672000885009766,-191.73500061035156z"></path></g><g opacity="1" transform="matrix(1,0,0,1,0,0)"><path fill="rgb(75,33,24)" fill-opacity="1" d=" M-170.10800170898438,-147.0760040283203 C-170.10800170898438,-147.0760040283203 -160.25399780273438,-170.14300537109375 -149.802001953125,-179.94700622558594 C-139.35000610351562,-189.75100708007812 -133.44700622558594,-192.95700073242188 -121.19300079345703,-194.40899658203125 C-108.93900299072266,-195.86099243164062 -89.1240005493164,-193.15199279785156 -89.1240005493164,-200.69700622558594 C-89.1240005493164,-208.65699768066406 -101.16300201416016,-211.75 -115.21900177001953,-211.38699340820312 C-129.27499389648438,-211.0240020751953 -146.6959991455078,-206.83099365234375 -163.63600158691406,-191.5800018310547 C-180.5760040283203,-176.32899475097656 -180.92100524902344,-146.71299743652344 -180.92100524902344,-146.71299743652344 C-180.92100524902344,-146.71299743652344 -181.281005859375,-142.3560028076172 -176.5959930419922,-141.9929962158203 C-171.91099548339844,-141.6300048828125 -170.10800170898438,-147.0760040283203 -170.10800170898438,-147.0760040283203z"></path></g></g><g style="display: block;" transform="matrix(1,0,0,1,256,256)" opacity="1"><g opacity="1" transform="matrix(1,0,0,1,0,0)"><path stroke-linecap="round" stroke-linejoin="round" fill-opacity="0" stroke="rgb(255,255,255)" stroke-opacity="1" stroke-width="25.512" d=" M-198.1840057373047,94.8949966430664 C-198.1840057373047,94.8949966430664 -221.33700561523438,102.93800354003906 -226.96099853515625,109.19100189208984 C-232.5850067138672,115.44400024414062 -228.33200073242188,117.4020004272461 -223.46499633789062,128.4080047607422 C-218.59800720214844,139.41400146484375 -210.5970001220703,154.6479949951172 -210.5970001220703,154.6479949951172"></path></g><g opacity="1" transform="matrix(1,0,0,1,0,0)"><path stroke-linecap="round" stroke-linejoin="round" fill-opacity="0" stroke="rgb(255,255,255)" stroke-opacity="1" stroke-width="25.512" d=" M-167.7480010986328,132.54600524902344 C-167.7480010986328,132.54600524902344 -173.88099670410156,119.9749984741211 -177.531005859375,110.58200073242188 C-181.18099975585938,101.18900299072266 -178.29100036621094,93.87300109863281 -173.77099609375,93.28700256347656 C-169.25100708007812,92.70099639892578 -154.43499755859375,107.62899780273438 -151.38400268554688,111.37100219726562 C-148.33299255371094,115.11299896240234 -141.73500061035156,122.66100311279297 -141.73500061035156,122.66100311279297"></path></g><g opacity="1" transform="matrix(1,0,0,1,0,0)"><path stroke-linecap="round" stroke-linejoin="round" fill-opacity="0" stroke="rgb(255,255,255)" stroke-opacity="1" stroke-width="25.512" d=" M-124.5770034790039,113.9530029296875 C-124.5770034790039,113.9530029296875 -136.57400512695312,99.91500091552734 -141.74600219726562,92.62899780273438 C-146.91799926757812,85.34300231933594 -152.2760009765625,82.19499969482422 -147.14100646972656,76.43699645996094 C-142.00599670410156,70.67900085449219 -129.02000427246094,61.172000885009766 -121.51499938964844,72.18199920654297 C-113.08799743652344,84.54399871826172 -136.6580047607422,92.6050033569336 -136.6580047607422,92.6050033569336"></path></g><g opacity="1" transform="matrix(1,0,0,1,0,0)"><path stroke-linecap="round" stroke-linejoin="round" fill-opacity="0" stroke="rgb(255,255,255)" stroke-opacity="1" stroke-width="25.512" d=" M-173.11199951171875,120.19400024414062 C-173.11199951171875,120.19400024414062 -160.6179962158203,112.68499755859375 -160.6179962158203,112.68499755859375"></path></g><g opacity="1" transform="matrix(1,0,0,1,0,0)"><path stroke-linecap="round" stroke-linejoin="round" fill-opacity="0" stroke="rgb(255,255,255)" stroke-opacity="1" stroke-width="25.512" d=" M-194.6300048828125,124.86100006103516 C-194.6300048828125,124.86100006103516 -201.12899780273438,126.30999755859375 -205.63999938964844,129.16299438476562 C-210.1510009765625,132.01600646972656 -214.9459991455078,134.58700561523438 -214.9459991455078,134.58700561523438"></path></g><g opacity="1" transform="matrix(1,0,0,1,0,0)"><path stroke-linecap="round" stroke-linejoin="round" fill-opacity="0" stroke="rgb(75,33,24)" stroke-opacity="1" stroke-width="10.042" d=" M-198.1840057373047,94.8949966430664 C-198.1840057373047,94.8949966430664 -221.33700561523438,102.93800354003906 -226.96099853515625,109.19100189208984 C-232.5850067138672,115.44400024414062 -228.33200073242188,117.4020004272461 -223.46499633789062,128.4080047607422 C-218.59800720214844,139.41400146484375 -210.5970001220703,154.6479949951172 -210.5970001220703,154.6479949951172"></path></g><g opacity="1" transform="matrix(1,0,0,1,0,0)"><path stroke-linecap="round" stroke-linejoin="round" fill-opacity="0" stroke="rgb(75,33,24)" stroke-opacity="1" stroke-width="10.042" d=" M-167.7480010986328,132.54600524902344 C-167.7480010986328,132.54600524902344 -173.88099670410156,119.9749984741211 -177.531005859375,110.58200073242188 C-181.18099975585938,101.18900299072266 -178.29100036621094,93.87300109863281 -173.77099609375,93.28700256347656 C-169.25100708007812,92.70099639892578 -154.43499755859375,107.62899780273438 -151.38400268554688,111.37100219726562 C-148.33299255371094,115.11299896240234 -141.73500061035156,122.66100311279297 -141.73500061035156,122.66100311279297"></path></g><g opacity="1" transform="matrix(1,0,0,1,0,0)"><path stroke-linecap="round" stroke-linejoin="round" fill-opacity="0" stroke="rgb(75,33,24)" stroke-opacity="1" stroke-width="10.042" d=" M-124.5770034790039,113.9530029296875 C-124.5770034790039,113.9530029296875 -136.57400512695312,99.91500091552734 -141.74600219726562,92.62899780273438 C-146.91799926757812,85.34300231933594 -152.2760009765625,82.19499969482422 -147.14100646972656,76.43699645996094 C-142.00599670410156,70.67900085449219 -129.02000427246094,61.172000885009766 -121.51499938964844,72.18199920654297 C-113.08799743652344,84.54399871826172 -136.6580047607422,92.6050033569336 -136.6580047607422,92.6050033569336"></path></g><g opacity="1" transform="matrix(1,0,0,1,0,0)"><path stroke-linecap="round" stroke-linejoin="round" fill-opacity="0" stroke="rgb(75,33,24)" stroke-opacity="1" stroke-width="10.042" d=" M-173.11199951171875,120.19400024414062 C-173.11199951171875,120.19400024414062 -160.6179962158203,112.68499755859375 -160.6179962158203,112.68499755859375"></path></g><g opacity="1" transform="matrix(1,0,0,1,0,0)"><path stroke-linecap="round" stroke-linejoin="round" fill-opacity="0" stroke="rgb(75,33,24)" stroke-opacity="1" stroke-width="10.042" d=" M-194.6300048828125,124.86100006103516 C-194.6300048828125,124.86100006103516 -201.12899780273438,126.30999755859375 -205.63999938964844,129.16299438476562 C-210.1510009765625,132.01600646972656 -214.9459991455078,134.58700561523438 -214.9459991455078,134.58700561523438"></path></g></g><g style="display: none;"><g><path stroke-linecap="round" stroke-linejoin="round" fill-opacity="0"></path></g><g><path stroke-linecap="round" stroke-linejoin="round" fill-opacity="0"></path></g><g><path stroke-linecap="round" stroke-linejoin="round" fill-opacity="0"></path></g><g><path stroke-linecap="round" stroke-linejoin="round" fill-opacity="0"></path></g><g><path stroke-linecap="round" stroke-linejoin="round" fill-opacity="0"></path></g><g><path stroke-linecap="round" stroke-linejoin="round" fill-opacity="0"></path></g><g><path stroke-linecap="round" stroke-linejoin="round" fill-opacity="0"></path></g><g><path stroke-linecap="round" stroke-linejoin="round" fill-opacity="0"></path></g><g><path stroke-linecap="round" stroke-linejoin="round" fill-opacity="0"></path></g><g><path stroke-linecap="round" stroke-linejoin="round" fill-opacity="0"></path></g></g><g style="display: none;"><g><path stroke-linecap="round" stroke-linejoin="round" fill-opacity="0"></path></g><g><path stroke-linecap="round" stroke-linejoin="round" fill-opacity="0"></path></g><g><path stroke-linecap="round" stroke-linejoin="round" fill-opacity="0"></path></g><g><path stroke-linecap="round" stroke-linejoin="round" fill-opacity="0"></path></g><g><path stroke-linecap="round" stroke-linejoin="round" fill-opacity="0"></path></g><g><path stroke-linecap="round" stroke-linejoin="round" fill-opacity="0"></path></g><g><path stroke-linecap="round" stroke-linejoin="round" fill-opacity="0"></path></g><g><path stroke-linecap="round" stroke-linejoin="round" fill-opacity="0"></path></g><g><path stroke-linecap="round" stroke-linejoin="round" fill-opacity="0"></path></g><g><path stroke-linecap="round" stroke-linejoin="round" fill-opacity="0"></path></g></g><g style="display: block;" transform="matrix(0.9451028108596802,0.6374799013137817,-0.6374799013137817,0.9451028108596802,643.0950927734375,367.4330749511719)" opacity="1"><g opacity="1" transform="matrix(1,0,0,1,0,0)"><path stroke-linecap="round" stroke-linejoin="round" fill-opacity="0" stroke="rgb(255,255,255)" stroke-opacity="1" stroke-width="25.512" d=" M-198.1840057373047,94.8949966430664 C-198.1840057373047,94.8949966430664 -221.33700561523438,102.93800354003906 -226.96099853515625,109.19100189208984 C-232.5850067138672,115.44400024414062 -228.33200073242188,117.4020004272461 -223.46499633789062,128.4080047607422 C-218.59800720214844,139.41400146484375 -210.5970001220703,154.6479949951172 -210.5970001220703,154.6479949951172"></path></g><g opacity="1" transform="matrix(1,0,0,1,0,0)"><path stroke-linecap="round" stroke-linejoin="round" fill-opacity="0" stroke="rgb(255,255,255)" stroke-opacity="1" stroke-width="25.512" d=" M-167.7480010986328,132.54600524902344 C-167.7480010986328,132.54600524902344 -173.88099670410156,119.9749984741211 -177.531005859375,110.58200073242188 C-181.18099975585938,101.18900299072266 -178.29100036621094,93.87300109863281 -173.77099609375,93.28700256347656 C-169.25100708007812,92.70099639892578 -154.43499755859375,107.62899780273438 -151.38400268554688,111.37100219726562 C-148.33299255371094,115.11299896240234 -141.73500061035156,122.66100311279297 -141.73500061035156,122.66100311279297"></path></g><g opacity="1" transform="matrix(1,0,0,1,0,0)"><path stroke-linecap="round" stroke-linejoin="round" fill-opacity="0" stroke="rgb(255,255,255)" stroke-opacity="1" stroke-width="25.512" d=" M-124.5770034790039,113.9530029296875 C-124.5770034790039,113.9530029296875 -136.57400512695312,99.91500091552734 -141.74600219726562,92.62899780273438 C-146.91799926757812,85.34300231933594 -152.2760009765625,82.19499969482422 -147.14100646972656,76.43699645996094 C-142.00599670410156,70.67900085449219 -129.02000427246094,61.172000885009766 -121.51499938964844,72.18199920654297 C-113.08799743652344,84.54399871826172 -136.6580047607422,92.6050033569336 -136.6580047607422,92.6050033569336"></path></g><g opacity="1" transform="matrix(1,0,0,1,0,0)"><path stroke-linecap="round" stroke-linejoin="round" fill-opacity="0" stroke="rgb(255,255,255)" stroke-opacity="1" stroke-width="25.512" d=" M-173.11199951171875,120.19400024414062 C-173.11199951171875,120.19400024414062 -160.6179962158203,112.68499755859375 -160.6179962158203,112.68499755859375"></path></g><g opacity="1" transform="matrix(1,0,0,1,0,0)"><path stroke-linecap="round" stroke-linejoin="round" fill-opacity="0" stroke="rgb(255,255,255)" stroke-opacity="1" stroke-width="25.512" d=" M-194.6300048828125,124.86100006103516 C-194.6300048828125,124.86100006103516 -201.12899780273438,126.30999755859375 -205.63999938964844,129.16299438476562 C-210.1510009765625,132.01600646972656 -214.9459991455078,134.58700561523438 -214.9459991455078,134.58700561523438"></path></g><g opacity="1" transform="matrix(1,0,0,1,0,0)"><path stroke-linecap="round" stroke-linejoin="round" fill-opacity="0" stroke="rgb(75,33,24)" stroke-opacity="1" stroke-width="10.042" d=" M-198.1840057373047,94.8949966430664 C-198.1840057373047,94.8949966430664 -221.33700561523438,102.93800354003906 -226.96099853515625,109.19100189208984 C-232.5850067138672,115.44400024414062 -228.33200073242188,117.4020004272461 -223.46499633789062,128.4080047607422 C-218.59800720214844,139.41400146484375 -210.5970001220703,154.6479949951172 -210.5970001220703,154.6479949951172"></path></g><g opacity="1" transform="matrix(1,0,0,1,0,0)"><path stroke-linecap="round" stroke-linejoin="round" fill-opacity="0" stroke="rgb(75,33,24)" stroke-opacity="1" stroke-width="10.042" d=" M-167.7480010986328,132.54600524902344 C-167.7480010986328,132.54600524902344 -173.88099670410156,119.9749984741211 -177.531005859375,110.58200073242188 C-181.18099975585938,101.18900299072266 -178.29100036621094,93.87300109863281 -173.77099609375,93.28700256347656 C-169.25100708007812,92.70099639892578 -154.43499755859375,107.62899780273438 -151.38400268554688,111.37100219726562 C-148.33299255371094,115.11299896240234 -141.73500061035156,122.66100311279297 -141.73500061035156,122.66100311279297"></path></g><g opacity="1" transform="matrix(1,0,0,1,0,0)"><path stroke-linecap="round" stroke-linejoin="round" fill-opacity="0" stroke="rgb(75,33,24)" stroke-opacity="1" stroke-width="10.042" d=" M-124.5770034790039,113.9530029296875 C-124.5770034790039,113.9530029296875 -136.57400512695312,99.91500091552734 -141.74600219726562,92.62899780273438 C-146.91799926757812,85.34300231933594 -152.2760009765625,82.19499969482422 -147.14100646972656,76.43699645996094 C-142.00599670410156,70.67900085449219 -129.02000427246094,61.172000885009766 -121.51499938964844,72.18199920654297 C-113.08799743652344,84.54399871826172 -136.6580047607422,92.6050033569336 -136.6580047607422,92.6050033569336"></path></g><g opacity="1" transform="matrix(1,0,0,1,0,0)"><path stroke-linecap="round" stroke-linejoin="round" fill-opacity="0" stroke="rgb(75,33,24)" stroke-opacity="1" stroke-width="10.042" d=" M-173.11199951171875,120.19400024414062 C-173.11199951171875,120.19400024414062 -160.6179962158203,112.68499755859375 -160.6179962158203,112.68499755859375"></path></g><g opacity="1" transform="matrix(1,0,0,1,0,0)"><path stroke-linecap="round" stroke-linejoin="round" fill-opacity="0" stroke="rgb(75,33,24)" stroke-opacity="1" stroke-width="10.042" d=" M-194.6300048828125,124.86100006103516 C-194.6300048828125,124.86100006103516 -201.12899780273438,126.30999755859375 -205.63999938964844,129.16299438476562 C-210.1510009765625,132.01600646972656 -214.9459991455078,134.58700561523438 -214.9459991455078,134.58700561523438"></path></g></g><g style="display: none;"><g><path stroke-linecap="round" stroke-linejoin="round" fill-opacity="0"></path></g><g><path stroke-linecap="round" stroke-linejoin="round" fill-opacity="0"></path></g><g><path stroke-linecap="round" stroke-linejoin="round" fill-opacity="0"></path></g><g><path stroke-linecap="round" stroke-linejoin="round" fill-opacity="0"></path></g><g><path stroke-linecap="round" stroke-linejoin="round" fill-opacity="0"></path></g><g><path stroke-linecap="round" stroke-linejoin="round" fill-opacity="0"></path></g><g><path stroke-linecap="round" stroke-linejoin="round" fill-opacity="0"></path></g><g><path stroke-linecap="round" stroke-linejoin="round" fill-opacity="0"></path></g><g><path stroke-linecap="round" stroke-linejoin="round" fill-opacity="0"></path></g><g><path stroke-linecap="round" stroke-linejoin="round" fill-opacity="0"></path></g></g><g style="display: none;"><g><path stroke-linecap="round" stroke-linejoin="round" fill-opacity="0"></path></g><g><path stroke-linecap="round" stroke-linejoin="round" fill-opacity="0"></path></g><g><path stroke-linecap="round" stroke-linejoin="round" fill-opacity="0"></path></g><g><path stroke-linecap="round" stroke-linejoin="round" fill-opacity="0"></path></g><g><path stroke-linecap="round" stroke-linejoin="round" fill-opacity="0"></path></g><g><path stroke-linecap="round" stroke-linejoin="round" fill-opacity="0"></path></g><g><path stroke-linecap="round" stroke-linejoin="round" fill-opacity="0"></path></g><g><path stroke-linecap="round" stroke-linejoin="round" fill-opacity="0"></path></g><g><path stroke-linecap="round" stroke-linejoin="round" fill-opacity="0"></path></g><g><path stroke-linecap="round" stroke-linejoin="round" fill-opacity="0"></path></g></g><g style="display: none;"><g><path stroke-linecap="round" stroke-linejoin="round" fill-opacity="0"></path></g><g><path stroke-linecap="round" stroke-linejoin="round" fill-opacity="0"></path></g><g><path stroke-linecap="round" stroke-linejoin="round" fill-opacity="0"></path></g><g><path stroke-linecap="round" stroke-linejoin="round" fill-opacity="0"></path></g><g><path stroke-linecap="round" stroke-linejoin="round" fill-opacity="0"></path></g><g><path stroke-linecap="round" stroke-linejoin="round" fill-opacity="0"></path></g><g><path stroke-linecap="round" stroke-linejoin="round" fill-opacity="0"></path></g><g><path stroke-linecap="round" stroke-linejoin="round" fill-opacity="0"></path></g><g><path stroke-linecap="round" stroke-linejoin="round" fill-opacity="0"></path></g><g><path stroke-linecap="round" stroke-linejoin="round" fill-opacity="0"></path></g></g><g style="display: none;"><g><path></path><path stroke-linecap="round" stroke-linejoin="round" fill-opacity="0"></path></g></g><g style="display: none;"><g><path></path><path stroke-linecap="round" stroke-linejoin="round" fill-opacity="0"></path></g></g><g style="display: none;"><g><path></path><path stroke-linecap="round" stroke-linejoin="round" fill-opacity="0"></path></g></g><g style="display: none;"><g><path></path><path stroke-linecap="round" stroke-linejoin="round" fill-opacity="0"></path></g></g></g></svg>