<svg xmlns="http://www.w3.org/2000/svg" xmlns:xlink="http://www.w3.org/1999/xlink" viewBox="0 0 512 512" width="512" height="512" style="width: 100%; height: 100%; transform: translate3d(0,0,0); content-visibility: visible;" preserveAspectRatio="xMidYMid meet"><defs><clipPath id="__lottie_element_2"><rect width="512" height="512" x="0" y="0"></rect></clipPath><clipPath id="__lottie_element_4"><path d="M0,0 L512,0 L512,512 L0,512z"></path></clipPath><radialGradient id="__lottie_element_14" spreadMethod="pad" gradientUnits="userSpaceOnUse" cx="-52.80500030517578" cy="-97.4530029296875" r="244.8186764881006" fx="-52.80500030517578" fy="-97.4530029296875"><stop offset="0%" stop-color="rgb(255,232,215)"></stop><stop offset="50%" stop-color="rgb(254,208,172)"></stop><stop offset="100%" stop-color="rgb(253,184,128)"></stop></radialGradient><mask id="__lottie_element_16"><path fill="url(#__lottie_element_15)" d=" M-46.32899856567383,-170.99000549316406 C-68.13300323486328,-162.07000732421875 -92.7229995727539,-145.83099365234375 -117.00199890136719,-115.19599914550781 C-148.2449951171875,-75.77300262451172 -208.06700134277344,-6.954999923706055 -160.6280059814453,84.59400177001953 C-113.18800354003906,176.1439971923828 12.206999778747559,183.07899475097656 104.58899688720703,143.96299743652344 C196.9709930419922,104.84600067138672 208.0659942626953,-4.458000183105469 168.1179962158203,-81.0270004272461 C128.16900634765625,-157.59500122070312 64.05899810791016,-176.6739959716797 39.22200012207031,-179.35899353027344 C4.815999984741211,-183.07899475097656 -25.871000289916992,-179.35899353027344 -46.32899856567383,-170.99000549316406z"></path></mask><radialGradient id="__lottie_element_15" spreadMethod="pad" gradientUnits="userSpaceOnUse" cx="-52.80500030517578" cy="-97.4530029296875" r="244.8186764881006" fx="-52.80500030517578" fy="-97.4530029296875"><stop stop-color="rgb(255,255,255)" offset="0%" stop-opacity="0.9300000071525574"></stop><stop stop-color="rgb(255,255,255)" offset="57%" stop-opacity="0.9649999737739563"></stop><stop stop-color="rgb(255,255,255)" offset="100%" stop-opacity="1"></stop></radialGradient><radialGradient id="__lottie_element_17" spreadMethod="pad" gradientUnits="userSpaceOnUse" cx="-87.53099822998047" cy="-86.76599884033203" r="219.07971369147916" fx="-87.53099822998047" fy="-86.76599884033203"><stop offset="0%" stop-color="rgb(247,172,127)"></stop><stop offset="50%" stop-color="rgb(237,157,103)"></stop><stop offset="100%" stop-color="rgb(227,143,80)"></stop></radialGradient><mask id="__lottie_element_19"><path fill="url(#__lottie_element_18)" d=" M-175.61000061035156,-74.0739974975586 C-175.61000061035156,-74.0739974975586 -135.8419952392578,42.619998931884766 -9.152000427246094,47.439998626708984 C143.98899841308594,53.26599884033203 178.10699462890625,-60.47700119018555 178.10699462890625,-60.47700119018555 C178.10699462890625,-60.47700119018555 176.44700622558594,65.75 -0.8309999704360962,69.91200256347656 C-178.10800170898438,74.072998046875 -175.61000061035156,-74.0739974975586 -175.61000061035156,-74.0739974975586z"></path></mask><radialGradient id="__lottie_element_18" spreadMethod="pad" gradientUnits="userSpaceOnUse" cx="-87.53099822998047" cy="-86.76599884033203" r="219.07971369147916" fx="-87.53099822998047" fy="-86.76599884033203"><stop stop-color="rgb(255,255,255)" offset="0%" stop-opacity="0.9800000190734863"></stop><stop stop-color="rgb(255,255,255)" offset="57%" stop-opacity="0.9900000095367432"></stop><stop stop-color="rgb(255,255,255)" offset="100%" stop-opacity="1"></stop></radialGradient><linearGradient id="__lottie_element_24" spreadMethod="pad" gradientUnits="userSpaceOnUse" x1="9.314000129699707" y1="-33.547000885009766" x2="-4.188000202178955" y2="46.08000183105469"><stop offset="0%" stop-color="rgb(255,222,197)"></stop><stop offset="50%" stop-color="rgb(254,204,164)"></stop><stop offset="100%" stop-color="rgb(253,186,131)"></stop></linearGradient><mask id="__lottie_element_26"><path fill="url(#__lottie_element_25)" d=" M21.84000015258789,33.428001403808594 C21.84000015258789,33.428001403808594 18.579999923706055,49.8390007019043 0.9769999980926514,49.231998443603516 C-16.625,48.624000549316406 -29.663999557495117,26.743000030517578 -27.05699920654297,4.86299991607666 C-24.448999404907227,-17.01799964904785 -22.493000030517578,-27.350000381469727 -23.797000885009766,-29.17300033569336 C-25.10099983215332,-30.996999740600586 -14.668999671936035,-49.8390007019043 3.5850000381469727,-40.1150016784668 C21.84000015258789,-30.389999389648438 29.663999557495117,-6.077000141143799 29.011999130249023,0.6079999804496765 C28.361000061035156,7.294000148773193 21.84000015258789,33.428001403808594 21.84000015258789,33.428001403808594z"></path></mask><linearGradient id="__lottie_element_25" spreadMethod="pad" gradientUnits="userSpaceOnUse" x1="9.314000129699707" y1="-33.547000885009766" x2="-4.188000202178955" y2="46.08000183105469"><stop stop-color="rgb(255,255,255)" offset="0%" stop-opacity="0.9300000071525574"></stop><stop stop-color="rgb(255,255,255)" offset="57%" stop-opacity="0.9649999737739563"></stop><stop stop-color="rgb(255,255,255)" offset="100%" stop-opacity="1"></stop></linearGradient><linearGradient id="__lottie_element_27" spreadMethod="pad" gradientUnits="userSpaceOnUse" x1="13.543999671936035" y1="-25.136999130249023" x2="1.0410000085830688" y2="32.233001708984375"><stop offset="0%" stop-color="rgb(255,222,197)"></stop><stop offset="50%" stop-color="rgb(254,204,164)"></stop><stop offset="100%" stop-color="rgb(253,186,131)"></stop></linearGradient><mask id="__lottie_element_29"><path fill="url(#__lottie_element_28)" d=" M-3.4049999713897705,-14.640999794006348 C-3.4049999713897705,-14.640999794006348 -2.821000099182129,-9.609000205993652 3.4820001125335693,-9.008999824523926 C9.307999610900879,-8.454000473022461 10.512999534606934,-13.993000030517578 10.512999534606934,-13.993000030517578 C10.512999534606934,-13.993000030517578 13.663000106811523,-4.947000026702881 13.663000106811523,-4.947000026702881 C13.663000106811523,-4.947000026702881 8.67199993133545,8.494999885559082 7.421000003814697,10.17300033569336 C2.1500000953674316,17.246999740600586 -0.7630000114440918,17.10700035095215 -0.7630000114440918,17.10700035095215 C-0.7630000114440918,17.10700035095215 -2.2109999656677246,3.6640000343322754 -6.866000175476074,-3.561000108718872 C-11.520999908447266,-10.78600025177002 -13.663000106811523,-17.246999740600586 -13.663000106811523,-17.246999740600586 C-13.663000106811523,-17.246999740600586 -3.4049999713897705,-14.640999794006348 -3.4049999713897705,-14.640999794006348z"></path></mask><linearGradient id="__lottie_element_28" spreadMethod="pad" gradientUnits="userSpaceOnUse" x1="13.543999671936035" y1="-25.136999130249023" x2="1.0410000085830688" y2="32.233001708984375"><stop stop-color="rgb(255,255,255)" offset="0%" stop-opacity="0.9300000071525574"></stop><stop stop-color="rgb(255,255,255)" offset="57%" stop-opacity="0.9649999737739563"></stop><stop stop-color="rgb(255,255,255)" offset="100%" stop-opacity="1"></stop></linearGradient><linearGradient id="__lottie_element_30" spreadMethod="pad" gradientUnits="userSpaceOnUse" x1="5.5229997634887695" y1="-14.175999641418457" x2="-4.564000129699707" y2="35.02899932861328"><stop offset="0%" stop-color="rgb(255,222,197)"></stop><stop offset="50%" stop-color="rgb(254,204,164)"></stop><stop offset="100%" stop-color="rgb(253,186,131)"></stop></linearGradient><mask id="__lottie_element_32"><path fill="url(#__lottie_element_31)" d=" M-3.5369999408721924,-11.848999977111816 C-3.5369999408721924,-11.848999977111816 -3.6649999618530273,-5.439000129699707 2.430000066757202,-4.796999931335449 C7.701000213623047,-4.242000102996826 10.333999633789062,-8.9350004196167 10.333999633789062,-8.9350004196167 C10.333999633789062,-8.9350004196167 15.744000434875488,-4.728000164031982 15.744000434875488,-4.728000164031982 C15.744000434875488,-4.728000164031982 15.37399959564209,-2.322999954223633 15.37399959564209,-2.322999954223633 C15.37399959564209,-2.322999954223633 8.16100025177002,-1.3980000019073486 7.605999946594238,3.5950000286102295 C7.051000118255615,8.58899974822998 9.456000328063965,6.73799991607666 9.456000328063965,6.73799991607666 C9.456000328063965,6.73799991607666 3.5360000133514404,11.26099967956543 -0.0689999982714653,11.593999862670898 C-2.828000068664551,11.848999977111816 -9.085000038146973,11.454000473022461 -12.831000328063965,6.599999904632568 C-14.088000297546387,4.96999979019165 -15.744000434875488,-0.7509999871253967 -15.744000434875488,-0.7509999871253967 C-15.744000434875488,-0.7509999871253967 -6.079999923706055,-11.38700008392334 -6.079999923706055,-11.38700008392334 C-6.079999923706055,-11.38700008392334 -3.5369999408721924,-11.848999977111816 -3.5369999408721924,-11.848999977111816z"></path></mask><linearGradient id="__lottie_element_31" spreadMethod="pad" gradientUnits="userSpaceOnUse" x1="5.5229997634887695" y1="-14.175999641418457" x2="-4.564000129699707" y2="35.02899932861328"><stop stop-color="rgb(255,255,255)" offset="0%" stop-opacity="0.9300000071525574"></stop><stop stop-color="rgb(255,255,255)" offset="57%" stop-opacity="0.9649999737739563"></stop><stop stop-color="rgb(255,255,255)" offset="100%" stop-opacity="1"></stop></linearGradient><linearGradient id="__lottie_element_33" spreadMethod="pad" gradientUnits="userSpaceOnUse" x1="5.5229997634887695" y1="-14.175999641418457" x2="-11.149999618530273" y2="36.57600021362305"><stop offset="0%" stop-color="rgb(255,222,197)"></stop><stop offset="50%" stop-color="rgb(254,204,164)"></stop><stop offset="100%" stop-color="rgb(253,186,131)"></stop></linearGradient><mask id="__lottie_element_35"><path fill="url(#__lottie_element_34)" d=" M-3.3289999961853027,17.433000564575195 C-1.2860000133514404,18.07699966430664 5.548999786376953,15.491000175476074 5.548999786376953,15.491000175476074 C5.548999786376953,15.491000175476074 6.288000106811523,11.885000228881836 6.288000106811523,11.885000228881836 C6.288000106811523,11.885000228881836 7.322999954223633,2.634999990463257 9.246999740600586,0.7879999876022339 C11.559000015258789,-1.4320000410079956 16.09000015258789,-2.1710000038146973 16.09000015258789,-2.1710000038146973 C16.09000015258789,-2.1710000038146973 8.96399974822998,-2.5299999713897705 8.96399974822998,-2.5299999713897705 C6.757999897003174,-2.621999979019165 7.88100004196167,-2.7899999618530273 8.878000259399414,-4.761000156402588 C8.878000259399414,-4.761000156402588 7.304999828338623,-5.73199987411499 7.304999828338623,-5.73199987411499 C7.304999828338623,-5.73199987411499 1.097000002861023,-5.48799991607666 -0.3479999899864197,-9.569000244140625 C-1.9429999589920044,-14.07800006866455 1.8029999732971191,-18.0310001373291 1.8029999732971191,-18.0310001373291 C1.8029999732971191,-18.0310001373291 -8.878000259399414,-18.07699966430664 -8.878000259399414,-18.07699966430664 C-8.878000259399414,-18.07699966430664 -16.09000015258789,-5.315999984741211 -16.09000015258789,-5.315999984741211 C-16.09000015258789,-5.315999984741211 -13.868000030517578,3.989000082015991 -12.57699966430664,6.890999794006348 C-11.152999877929688,10.093999862670898 -6.671999931335449,16.378999710083008 -3.3289999961853027,17.433000564575195z"></path></mask><linearGradient id="__lottie_element_34" spreadMethod="pad" gradientUnits="userSpaceOnUse" x1="5.5229997634887695" y1="-14.175999641418457" x2="-11.149999618530273" y2="36.57600021362305"><stop stop-color="rgb(255,255,255)" offset="0%" stop-opacity="0.9300000071525574"></stop><stop stop-color="rgb(255,255,255)" offset="57%" stop-opacity="0.9649999737739563"></stop><stop stop-color="rgb(255,255,255)" offset="100%" stop-opacity="1"></stop></linearGradient><linearGradient id="__lottie_element_36" spreadMethod="pad" gradientUnits="userSpaceOnUse" x1="29.722999572753906" y1="-87.52300262451172" x2="-5.7129998207092285" y2="17.952999114990234"><stop offset="0%" stop-color="rgb(255,222,197)"></stop><stop offset="50%" stop-color="rgb(254,204,164)"></stop><stop offset="100%" stop-color="rgb(253,186,131)"></stop></linearGradient><mask id="__lottie_element_38"><path fill="url(#__lottie_element_37)" d=" M-13.539999961853027,-17.56999969482422 C-13.539999961853027,-17.56999969482422 -11.541000366210938,-10.541999816894531 -12.630999565124512,-4.439000129699707 C-13.722000122070312,1.6649999618530273 -15.072999954223633,12.946000099182129 -15.072999954223633,12.946000099182129 C-15.072999954223633,12.946000099182129 2.867000102996826,17.56999969482422 2.867000102996826,17.56999969482422 C2.867000102996826,17.56999969482422 5.301000118255615,8.642999649047852 7.860000133514404,3.3289999961853027 C10.263999938964844,-1.6640000343322754 15.072999954223633,-3.5139999389648438 15.072999954223633,-3.5139999389648438 C15.072999954223633,-3.5139999389648438 4.723999977111816,-13.685999870300293 4.723999977111816,-13.685999870300293 C4.723999977111816,-13.685999870300293 -13.539999961853027,-17.56999969482422 -13.539999961853027,-17.56999969482422z"></path></mask><linearGradient id="__lottie_element_37" spreadMethod="pad" gradientUnits="userSpaceOnUse" x1="29.722999572753906" y1="-87.52300262451172" x2="-5.7129998207092285" y2="17.952999114990234"><stop stop-color="rgb(255,255,255)" offset="0%" stop-opacity="0.9300000071525574"></stop><stop stop-color="rgb(255,255,255)" offset="57%" stop-opacity="0.9649999737739563"></stop><stop stop-color="rgb(255,255,255)" offset="100%" stop-opacity="1"></stop></linearGradient><radialGradient id="__lottie_element_54" spreadMethod="pad" gradientUnits="userSpaceOnUse" cx="-8.26200008392334" cy="-27.125" r="80.49841870970567" fx="-8.26200008392334" fy="-27.125"><stop offset="22%" stop-color="rgb(255,255,255)"></stop><stop offset="61%" stop-color="rgb(197,220,240)"></stop><stop offset="100%" stop-color="rgb(140,184,224)"></stop></radialGradient><mask id="__lottie_element_56"><path fill="url(#__lottie_element_55)" d=" M-25.53700065612793,-39.50299835205078 C-35.25899887084961,-33.3380012512207 -46.73400115966797,-18.440000534057617 -43.22800064086914,4.925000190734863 C-41.10599899291992,19.06800079345703 -27.402000427246094,29.922000885009766 -11.88599967956543,32.26100158691406 C1.156999945640564,34.22700119018555 15.479999542236328,30.177000045776367 25.277999877929688,17.006000518798828 C46.73400115966797,-11.833000183105469 24.077999114990234,-40.479000091552734 0.05900000035762787,-44.17900085449219 C-10.762999534606934,-45.845001220703125 -19.996000289916992,-43.016998291015625 -25.53700065612793,-39.50299835205078z"></path></mask><radialGradient id="__lottie_element_55" spreadMethod="pad" gradientUnits="userSpaceOnUse" cx="-8.26200008392334" cy="-27.125" r="80.49841870970567" fx="-8.26200008392334" fy="-27.125"><stop stop-color="rgb(255,255,255)" offset="0%" stop-opacity="0.9300000071525574"></stop><stop stop-color="rgb(255,255,255)" offset="57%" stop-opacity="0.9649999737739563"></stop><stop stop-color="rgb(255,255,255)" offset="100%" stop-opacity="1"></stop></radialGradient><radialGradient id="__lottie_element_57" spreadMethod="pad" gradientUnits="userSpaceOnUse" cx="1.0859999656677246" cy="-24.06599998474121" r="81.31766719273912" fx="1.0859999656677246" fy="-24.06599998474121"><stop offset="22%" stop-color="rgb(255,255,255)"></stop><stop offset="61%" stop-color="rgb(197,220,240)"></stop><stop offset="100%" stop-color="rgb(140,184,224)"></stop></radialGradient><mask id="__lottie_element_59"><path fill="url(#__lottie_element_58)" d=" M26.520000457763672,-38.65299987792969 C36.61600112915039,-32.619998931884766 48.53200149536133,-18.042999267578125 44.89099884033203,4.818999767303467 C42.625999450683594,19.042999267578125 27.6560001373291,29.865999221801758 10.996000289916992,31.73900032043457 C-2.180000066757202,33.220001220703125 -16.41200065612793,29.10300064086914 -26.25200080871582,16.641000747680664 C-48.53300094604492,-11.57800006866455 -25.006000518798828,-39.60900115966797 -0.06199999898672104,-43.229000091552734 C11.175999641418457,-44.86000061035156 20.766000747680664,-42.090999603271484 26.520000457763672,-38.65299987792969z"></path></mask><radialGradient id="__lottie_element_58" spreadMethod="pad" gradientUnits="userSpaceOnUse" cx="1.0859999656677246" cy="-24.06599998474121" r="81.31766719273912" fx="1.0859999656677246" fy="-24.06599998474121"><stop stop-color="rgb(255,255,255)" offset="0%" stop-opacity="0.9300000071525574"></stop><stop stop-color="rgb(255,255,255)" offset="57%" stop-opacity="0.9649999737739563"></stop><stop stop-color="rgb(255,255,255)" offset="100%" stop-opacity="1"></stop></radialGradient><radialGradient id="__lottie_element_60" spreadMethod="pad" gradientUnits="userSpaceOnUse" cx="1.0859999656677246" cy="-24.06599998474121" r="81.31766719273912" fx="1.0859999656677246" fy="-24.06599998474121"><stop offset="22%" stop-color="rgb(255,255,255)"></stop><stop offset="61%" stop-color="rgb(197,220,240)"></stop><stop offset="100%" stop-color="rgb(140,184,224)"></stop></radialGradient><mask id="__lottie_element_62"><path fill="url(#__lottie_element_61)" d=" M26.520000457763672,-38.65299987792969 C36.61600112915039,-32.619998931884766 48.53200149536133,-18.042999267578125 44.89099884033203,4.818999767303467 C42.625999450683594,19.042999267578125 27.6560001373291,29.865999221801758 10.996000289916992,31.73900032043457 C-2.180000066757202,33.220001220703125 -16.41200065612793,29.10300064086914 -26.25200080871582,16.641000747680664 C-48.53300094604492,-11.57800006866455 -25.006000518798828,-39.60900115966797 -0.06199999898672104,-43.229000091552734 C11.175999641418457,-44.86000061035156 20.766000747680664,-42.090999603271484 26.520000457763672,-38.65299987792969z"></path></mask><radialGradient id="__lottie_element_61" spreadMethod="pad" gradientUnits="userSpaceOnUse" cx="1.0859999656677246" cy="-24.06599998474121" r="81.31766719273912" fx="1.0859999656677246" fy="-24.06599998474121"><stop stop-color="rgb(255,255,255)" offset="0%" stop-opacity="0.9300000071525574"></stop><stop stop-color="rgb(255,255,255)" offset="57%" stop-opacity="0.9649999737739563"></stop><stop stop-color="rgb(255,255,255)" offset="100%" stop-opacity="1"></stop></radialGradient></defs><g clip-path="url(#__lottie_element_2)"><g clip-path="url(#__lottie_element_4)" style="display: block;" transform="matrix(1,0,0,1,0,0)" opacity="1"><g style="display: block;" transform="matrix(0.9122474789619446,-0.08414490520954132,0.08930958062410355,0.9682397842407227,13.79791259765625,194.2025909423828)" opacity="1"><g opacity="1" transform="matrix(1,0,0,1,101.22599792480469,127.92500305175781)"><path fill="rgb(253,186,131)" fill-opacity="1" d=" M-53.10599899291992,-97.375 C-53.10599899291992,-97.375 -70.6760025024414,-36.15700149536133 -57.36000061035156,30.423999786376953 C-44.04399871826172,97.00499725341797 43.992000579833984,97.375 61.74700164794922,96.26599884033203 C70.6760025024414,95.70800018310547 43.25199890136719,71.85199737548828 43.25199890136719,71.85199737548828 C43.25199890136719,71.85199737548828 -31.20800018310547,70.79199981689453 -34.79600143432617,0.8320000171661377 C-37.01599884033203,-42.44499969482422 -22.312000274658203,-88.22000122070312 -22.312000274658203,-88.22000122070312 C-22.312000274658203,-88.22000122070312 -53.10599899291992,-97.375 -53.10599899291992,-97.375z"></path><path stroke-linecap="round" stroke-linejoin="round" fill-opacity="0" stroke="rgb(167,88,42)" stroke-opacity="1" stroke-width="12.22" d=" M-53.10599899291992,-97.375 C-53.10599899291992,-97.375 -70.6760025024414,-36.15700149536133 -57.36000061035156,30.423999786376953 C-44.04399871826172,97.00499725341797 43.992000579833984,97.375 61.74700164794922,96.26599884033203 C70.6760025024414,95.70800018310547 43.25199890136719,71.85199737548828 43.25199890136719,71.85199737548828 C43.25199890136719,71.85199737548828 -31.20800018310547,70.79199981689453 -34.79600143432617,0.8320000171661377 C-37.01599884033203,-42.44499969482422 -22.312000274658203,-88.22000122070312 -22.312000274658203,-88.22000122070312 C-22.312000274658203,-88.22000122070312 -53.10599899291992,-97.375 -53.10599899291992,-97.375z"></path></g></g><g style="display: block;" transform="matrix(1,0,0,1,57.522003173828125,45.11000061035156)" opacity="1"><g opacity="1" transform="matrix(1,0,0,1,238.61700439453125,213.62899780273438)"><path fill="url(#__lottie_element_14)" mask="url(#__lottie_element_16)" fill-opacity="1" d="M0 0 M-46.32899856567383,-170.99000549316406 C-68.13300323486328,-162.07000732421875 -92.7229995727539,-145.83099365234375 -117.00199890136719,-115.19599914550781 C-148.2449951171875,-75.77300262451172 -208.06700134277344,-6.954999923706055 -160.6280059814453,84.59400177001953 C-113.18800354003906,176.1439971923828 12.206999778747559,183.07899475097656 104.58899688720703,143.96299743652344 C196.9709930419922,104.84600067138672 208.0659942626953,-4.458000183105469 168.1179962158203,-81.0270004272461 C128.16900634765625,-157.59500122070312 64.05899810791016,-176.6739959716797 39.22200012207031,-179.35899353027344 C4.815999984741211,-183.07899475097656 -25.871000289916992,-179.35899353027344 -46.32899856567383,-170.99000549316406z"></path><path stroke-linecap="butt" stroke-linejoin="miter" fill-opacity="0" stroke-miterlimit="10" stroke="rgb(167,88,42)" stroke-opacity="1" stroke-width="12.22" d=" M-46.32899856567383,-170.99000549316406 C-68.13300323486328,-162.07000732421875 -92.7229995727539,-145.83099365234375 -117.00199890136719,-115.19599914550781 C-148.2449951171875,-75.77300262451172 -208.06700134277344,-6.954999923706055 -160.6280059814453,84.59400177001953 C-113.18800354003906,176.1439971923828 12.206999778747559,183.07899475097656 104.58899688720703,143.96299743652344 C196.9709930419922,104.84600067138672 208.0659942626953,-4.458000183105469 168.1179962158203,-81.0270004272461 C128.16900634765625,-157.59500122070312 64.05899810791016,-176.6739959716797 39.22200012207031,-179.35899353027344 C4.815999984741211,-183.07899475097656 -25.871000289916992,-179.35899353027344 -46.32899856567383,-170.99000549316406z"></path></g><g opacity="1" transform="matrix(1,0,0,1,242.2209930419922,301.5509948730469)"><path fill="url(#__lottie_element_17)" mask="url(#__lottie_element_19)" fill-opacity="1" d="M0 0 M-175.61000061035156,-74.0739974975586 C-175.61000061035156,-74.0739974975586 -135.8419952392578,42.619998931884766 -9.152000427246094,47.439998626708984 C143.98899841308594,53.26599884033203 178.10699462890625,-60.47700119018555 178.10699462890625,-60.47700119018555 C178.10699462890625,-60.47700119018555 176.44700622558594,65.75 -0.8309999704360962,69.91200256347656 C-178.10800170898438,74.072998046875 -175.61000061035156,-74.0739974975586 -175.61000061035156,-74.0739974975586z"></path></g></g><g style="display: block;" transform="matrix(1,0,0,1,151.6199951171875,113.125)" opacity="1"><g opacity="1" transform="matrix(1,0,0,1,0,0)"><g opacity="1" transform="matrix(1,0,0,1,229.8780059814453,68.5999984741211)"><path fill="rgb(201,127,79)" fill-opacity="0.74" d=" M-17.655000686645508,-48.47600173950195 C-29.049999237060547,-43.71099853515625 -42.582000732421875,-28.889999389648438 -44.74599838256836,-3.427999973297119 C-47.172000885009766,25.125 -33.32099914550781,49.45500183105469 -2.1619999408721924,50.92399978637695 C28.996000289916992,52.393001556396484 47.172000885009766,18.60700035095215 46.393001556396484,-7.834000110626221 C45.61399841308594,-34.275001525878906 23.80299949645996,-49.45500183105469 12.119000434875488,-50.92399978637695 C0.4339999854564667,-52.393001556396484 -10.25100040435791,-51.571998596191406 -17.655000686645508,-48.47600173950195z"></path></g><g opacity="1" transform="matrix(1,0,0,1,235.4949951171875,71.3030014038086)"><path fill="url(#__lottie_element_54)" mask="url(#__lottie_element_56)" fill-opacity="1" d="M0 0 M-25.53700065612793,-39.50299835205078 C-35.25899887084961,-33.3380012512207 -46.73400115966797,-18.440000534057617 -43.22800064086914,4.925000190734863 C-41.10599899291992,19.06800079345703 -27.402000427246094,29.922000885009766 -11.88599967956543,32.26100158691406 C1.156999945640564,34.22700119018555 15.479999542236328,30.177000045776367 25.277999877929688,17.006000518798828 C46.73400115966797,-11.833000183105469 24.077999114990234,-40.479000091552734 0.05900000035762787,-44.17900085449219 C-10.762999534606934,-45.845001220703125 -19.996000289916992,-43.016998291015625 -25.53700065612793,-39.50299835205078z"></path><path stroke-linecap="butt" stroke-linejoin="miter" fill-opacity="0" stroke-miterlimit="10" stroke="rgb(111,55,20)" stroke-opacity="1" stroke-width="10.183" d=" M-25.53700065612793,-39.50299835205078 C-35.25899887084961,-33.3380012512207 -46.73400115966797,-18.440000534057617 -43.22800064086914,4.925000190734863 C-41.10599899291992,19.06800079345703 -27.402000427246094,29.922000885009766 -11.88599967956543,32.26100158691406 C1.156999945640564,34.22700119018555 15.479999542236328,30.177000045776367 25.277999877929688,17.006000518798828 C46.73400115966797,-11.833000183105469 24.077999114990234,-40.479000091552734 0.05900000035762787,-44.17900085449219 C-10.762999534606934,-45.845001220703125 -19.996000289916992,-43.016998291015625 -25.53700065612793,-39.50299835205078z"></path></g><g opacity="1" transform="matrix(1,0,0,1,0,0)"><g opacity="1" transform="matrix(1,0,0,1,234.7740020751953,42.167999267578125)"><path fill="rgb(46,46,46)" fill-opacity="1" d=" M11.836999893188477,0 C11.836999893188477,6.434999942779541 6.5370001792907715,11.652000427246094 -0.0010000000474974513,11.652000427246094 C-6.538000106811523,11.652000427246094 -11.836999893188477,6.434999942779541 -11.836999893188477,0 C-11.836999893188477,-6.434999942779541 -6.538000106811523,-11.652000427246094 -0.0010000000474974513,-11.652000427246094 C6.5370001792907715,-11.652000427246094 11.836999893188477,-6.434999942779541 11.836999893188477,0z"></path></g><g opacity="1" transform="matrix(1,0,0,1,230.79800415039062,55.9379997253418)"><path fill="rgb(255,255,255)" fill-opacity="1" d=" M5.5269999504089355,1.600000023841858 C4.309999942779541,5.801000118255615 0.8500000238418579,8.489999771118164 -2.203000068664551,7.60699987411499 C-5.255000114440918,6.7230000495910645 -6.74399995803833,2.5999999046325684 -5.5269999504089355,-1.6009999513626099 C-4.310999870300293,-5.802000045776367 -0.8500000238418579,-8.489999771118164 2.203000068664551,-7.60699987411499 C5.255000114440918,-6.7230000495910645 6.74399995803833,-2.6010000705718994 5.5269999504089355,1.600000023841858z"></path></g></g><g opacity="1" transform="matrix(1,0,0,1,235.4949951171875,71.3030014038086)"><path stroke-linecap="butt" stroke-linejoin="miter" fill-opacity="0" stroke-miterlimit="10" stroke="rgb(117,77,51)" stroke-opacity="1" stroke-width="10.183" d=" M-25.53700065612793,-39.50299835205078 C-35.25899887084961,-33.3380012512207 -46.73400115966797,-18.440000534057617 -43.22800064086914,4.925000190734863 C-41.10599899291992,19.06800079345703 -27.402000427246094,29.922000885009766 -11.88599967956543,32.26100158691406 C1.156999945640564,34.22700119018555 15.479999542236328,30.177000045776367 25.277999877929688,17.006000518798828 C46.73400115966797,-11.833000183105469 24.077999114990234,-40.479000091552734 0.05900000035762787,-44.17900085449219 C-10.762999534606934,-45.845001220703125 -19.996000289916992,-43.016998291015625 -25.53700065612793,-39.50299835205078z"></path></g></g><g opacity="1" transform="matrix(1,0,0,1,0,0)"><g opacity="0.73" transform="matrix(1,0,0,1,80.33699798583984,70.23799896240234)"><path fill="rgb(200,126,79)" fill-opacity="1" d=" M-17.55299949645996,-47.972999572753906 C-28.881999969482422,-43.257999420166016 -42.33700180053711,-28.589000701904297 -44.48899841308594,-3.3910000324249268 C-46.9010009765625,24.864999771118164 -33.130001068115234,48.941001892089844 -2.1500000953674316,50.39500045776367 C28.82900047302246,51.8489990234375 46.9010009765625,18.413999557495117 46.125999450683594,-7.752999782562256 C45.35200119018555,-33.91899871826172 23.66699981689453,-48.941001892089844 12.048999786376953,-50.39500045776367 C0.4320000112056732,-51.8489990234375 -10.190999984741211,-51.0369987487793 -17.55299949645996,-47.972999572753906z"></path></g><g opacity="1" transform="matrix(1,0,0,1,73.98999786376953,72.00700378417969)"><path fill="url(#__lottie_element_57)" mask="url(#__lottie_element_59)" fill-opacity="1" d="M0 0 M26.520000457763672,-38.65299987792969 C36.61600112915039,-32.619998931884766 48.53200149536133,-18.042999267578125 44.89099884033203,4.818999767303467 C42.625999450683594,19.042999267578125 27.6560001373291,29.865999221801758 10.996000289916992,31.73900032043457 C-2.180000066757202,33.220001220703125 -16.41200065612793,29.10300064086914 -26.25200080871582,16.641000747680664 C-48.53300094604492,-11.57800006866455 -25.006000518798828,-39.60900115966797 -0.06199999898672104,-43.229000091552734 C11.175999641418457,-44.86000061035156 20.766000747680664,-42.090999603271484 26.520000457763672,-38.65299987792969z"></path><path stroke-linecap="butt" stroke-linejoin="miter" fill-opacity="0" stroke-miterlimit="10" stroke="rgb(117,77,51)" stroke-opacity="1" stroke-width="10.183" d=" M26.520000457763672,-38.65299987792969 C36.61600112915039,-32.619998931884766 48.53200149536133,-18.042999267578125 44.89099884033203,4.818999767303467 C42.625999450683594,19.042999267578125 27.6560001373291,29.865999221801758 10.996000289916992,31.73900032043457 C-2.180000066757202,33.220001220703125 -16.41200065612793,29.10300064086914 -26.25200080871582,16.641000747680664 C-48.53300094604492,-11.57800006866455 -25.006000518798828,-39.60900115966797 -0.06199999898672104,-43.229000091552734 C11.175999641418457,-44.86000061035156 20.766000747680664,-42.090999603271484 26.520000457763672,-38.65299987792969z"></path></g><g opacity="1" transform="matrix(1,0,0,1,73.98999786376953,72.00700378417969)"><path fill="url(#__lottie_element_60)" mask="url(#__lottie_element_62)" fill-opacity="1" d="M0 0 M26.520000457763672,-38.65299987792969 C36.61600112915039,-32.619998931884766 48.53200149536133,-18.042999267578125 44.89099884033203,4.818999767303467 C42.625999450683594,19.042999267578125 27.6560001373291,29.865999221801758 10.996000289916992,31.73900032043457 C-2.180000066757202,33.220001220703125 -16.41200065612793,29.10300064086914 -26.25200080871582,16.641000747680664 C-48.53300094604492,-11.57800006866455 -25.006000518798828,-39.60900115966797 -0.06199999898672104,-43.229000091552734 C11.175999641418457,-44.86000061035156 20.766000747680664,-42.090999603271484 26.520000457763672,-38.65299987792969z"></path><path stroke-linecap="butt" stroke-linejoin="miter" fill-opacity="0" stroke-miterlimit="10" stroke="rgb(117,77,51)" stroke-opacity="1" stroke-width="10.183" d=" M26.520000457763672,-38.65299987792969 C36.61600112915039,-32.619998931884766 48.53200149536133,-18.042999267578125 44.89099884033203,4.818999767303467 C42.625999450683594,19.042999267578125 27.6560001373291,29.865999221801758 10.996000289916992,31.73900032043457 C-2.180000066757202,33.220001220703125 -16.41200065612793,29.10300064086914 -26.25200080871582,16.641000747680664 C-48.53300094604492,-11.57800006866455 -25.006000518798828,-39.60900115966797 -0.06199999898672104,-43.229000091552734 C11.175999641418457,-44.86000061035156 20.766000747680664,-42.090999603271484 26.520000457763672,-38.65299987792969z"></path></g><g opacity="1" transform="matrix(1,0,0,1,0,0)"><g opacity="1" transform="matrix(1,0,0,1,76.36599731445312,43.000999450683594)"><path fill="rgb(46,46,46)" fill-opacity="1" d=" M11.836999893188477,0 C11.836999893188477,6.434999942779541 6.5370001792907715,11.652000427246094 -0.0010000000474974513,11.652000427246094 C-6.538000106811523,11.652000427246094 -11.836999893188477,6.434999942779541 -11.836999893188477,0 C-11.836999893188477,-6.434999942779541 -6.538000106811523,-11.652000427246094 -0.0010000000474974513,-11.652000427246094 C6.5370001792907715,-11.652000427246094 11.836999893188477,-6.434999942779541 11.836999893188477,0z"></path></g><g opacity="1" transform="matrix(1,0,0,1,71.00299835205078,56.040000915527344)"><path fill="rgb(255,255,255)" fill-opacity="1" d=" M5.5269999504089355,1.600000023841858 C4.309999942779541,5.801000118255615 0.8500000238418579,8.489999771118164 -2.203000068664551,7.605999946594238 C-5.255000114440918,6.7230000495910645 -6.74399995803833,2.5999999046325684 -5.5269999504089355,-1.6009999513626099 C-4.310999870300293,-5.802000045776367 -0.8500000238418579,-8.489999771118164 2.203000068664551,-7.60699987411499 C5.255000114440918,-6.7230000495910645 6.74399995803833,-2.6010000705718994 5.5269999504089355,1.600000023841858z"></path></g></g><g opacity="1" transform="matrix(1,0,0,1,73.98999786376953,72.00700378417969)"><path stroke-linecap="butt" stroke-linejoin="miter" fill-opacity="0" stroke-miterlimit="10" stroke="rgb(117,77,51)" stroke-opacity="1" stroke-width="10.183" d=" M26.520000457763672,-38.65299987792969 C36.61600112915039,-32.619998931884766 48.53200149536133,-18.042999267578125 44.89099884033203,4.818999767303467 C42.625999450683594,19.042999267578125 27.6560001373291,29.865999221801758 10.996000289916992,31.73900032043457 C-2.180000066757202,33.220001220703125 -16.41200065612793,29.10300064086914 -26.25200080871582,16.641000747680664 C-48.53300094604492,-11.57800006866455 -25.006000518798828,-39.60900115966797 -0.06199999898672104,-43.229000091552734 C11.175999641418457,-44.86000061035156 20.766000747680664,-42.090999603271484 26.520000457763672,-38.65299987792969z"></path></g></g></g><g style="display: block;" transform="matrix(1,0,0,1,253.19900512695312,203.71800231933594)" opacity="1"><g opacity="1" transform="matrix(1,0,0,1,0,0)"><g opacity="1" transform="matrix(1,0,0,1,47.441001892089844,28.854999542236328)"><path fill="rgb(212,158,122)" fill-opacity="1" d=" M-23.92099952697754,11.496000289916992 C-23.92099952697754,11.496000289916992 -34.7400016784668,1.2309999465942383 -25.586000442504883,-7.36899995803833 C-14.909000396728516,-17.398000717163086 3.7290000915527344,-15.968999862670898 15.196000099182129,-12.640000343322754 C26.66200065612793,-9.310999870300293 30.916000366210938,1.4160000085830688 28.69700050354004,7.335000038146973 C26.476999282836914,13.253000259399414 21.854000091552734,14.732999801635742 19.634000778198242,15.10200023651123 C17.415000915527344,15.472000122070312 24.99799919128418,10.293999671936035 16.860000610351562,6.224999904632568 C8.722000122070312,2.1559998989105225 -2.005000114440918,3.2660000324249268 -10.142000198364258,3.2660000324249268 C-18.280000686645508,3.2660000324249268 -23.92099952697754,11.496000289916992 -23.92099952697754,11.496000289916992z"></path></g><g opacity="1" transform="matrix(1,0,0,1,47.96500015258789,34.777000427246094)"><path fill="rgb(52,34,16)" fill-opacity="1" d=" M-16.02899932861328,-6.171000003814697 C-11.960000038146973,-7.002999782562256 -4.007999897003174,-8.204999923706055 1.725000023841858,-7.835999965667725 C7.458000183105469,-7.466000080108643 14.116999626159668,-6.72599983215332 15.41100025177002,-4.322000026702881 C16.70599937438965,-1.9170000553131104 21.392000198364258,8.204999923706055 11.342000007629395,5.296000003814697 C4.138000011444092,3.2109999656677246 -0.38100001215934753,2.9609999656677246 -3.953000068664551,3.318000078201294 C-7.35099983215332,3.6579999923706055 -9.892999649047852,4.546999931335449 -13.071000099182129,4.926000118255615 C-15.100000381469727,5.168000221252441 -21.39299964904785,5.665999889373779 -20.4689998626709,-0.2529999911785126 C-19.54400062561035,-6.171000003814697 -17.969999313354492,-5.77400016784668 -16.02899932861328,-6.171000003814697z"></path><path stroke-linecap="butt" stroke-linejoin="miter" fill-opacity="0" stroke-miterlimit="10" stroke="rgb(111,55,20)" stroke-opacity="1" stroke-width="10.629" d=" M-16.02899932861328,-6.171000003814697 C-11.960000038146973,-7.002999782562256 -4.007999897003174,-8.204999923706055 1.725000023841858,-7.835999965667725 C7.458000183105469,-7.466000080108643 14.116999626159668,-6.72599983215332 15.41100025177002,-4.322000026702881 C16.70599937438965,-1.9170000553131104 21.392000198364258,8.204999923706055 11.342000007629395,5.296000003814697 C4.138000011444092,3.2109999656677246 -0.38100001215934753,2.9609999656677246 -3.953000068664551,3.318000078201294 C-7.35099983215332,3.6579999923706055 -9.892999649047852,4.546999931335449 -13.071000099182129,4.926000118255615 C-15.100000381469727,5.168000221252441 -21.39299964904785,5.665999889373779 -20.4689998626709,-0.2529999911785126 C-19.54400062561035,-6.171000003814697 -17.969999313354492,-5.77400016784668 -16.02899932861328,-6.171000003814697z"></path></g><g opacity="0" transform="matrix(1,0,0,1,0,0)"><path fill="rgb(255,255,255)" fill-opacity="1" d=" M55.34299850463867,31.00200080871582 C55.34299850463867,31.00200080871582 53.395999908447266,33.91699981689453 59.0369987487793,36.09000015258789 C62.28900146484375,37.34299850463867 65.33399963378906,37.83300018310547 66.21800231933594,38.20100021362305 C68.80400085449219,38.64899826049805 69.14800262451172,35.74100112915039 69.14800262451172,35.74100112915039 C69.14800262451172,35.74100112915039 67.08100128173828,35.10900115966797 63.242000579833984,32.47800064086914 C56.06700134277344,29.416000366210938 55.34299850463867,31.00200080871582 55.34299850463867,31.00200080871582z"></path></g><g opacity="0" transform="matrix(-1.0139000415802002,0,0,1,100.2760009765625,-2.2839999198913574)"><path fill="rgb(255,255,255)" fill-opacity="1" d=" M55.34299850463867,31.00200080871582 C55.34299850463867,31.00200080871582 53.395999908447266,33.91699981689453 59.0369987487793,36.09000015258789 C62.28900146484375,37.34299850463867 65.33399963378906,37.83300018310547 66.21800231933594,38.20100021362305 C68.80400085449219,38.64899826049805 69.14800262451172,35.74100112915039 69.14800262451172,35.74100112915039 C69.14800262451172,35.74100112915039 67.08100128173828,35.10900115966797 63.242000579833984,32.47800064086914 C56.06700134277344,29.416000366210938 55.34299850463867,31.00200080871582 55.34299850463867,31.00200080871582z"></path></g><g opacity="0.04" transform="matrix(1,0,0,1,0,0)"><path fill="rgb(255,255,255)" fill-opacity="1" d=" M48.06700134277344,27.344999313354492 C36.49100112915039,28.14299964904785 30.202999114990234,30.725000381469727 30.202999114990234,30.725000381469727 C30.202999114990234,30.725000381469727 30.81399917602539,32.5 32.76300048828125,33.255001068115234 C34.71200180053711,34.0099983215332 38.98099899291992,32.87099838256836 41.2400016784668,32.18899917602539 C46.012001037597656,30.74799919128418 49.055999755859375,31.583999633789062 48.90399932861328,29.14699935913086 C48.75199890136719,26.709999084472656 46.79600143432617,26.85099983215332 47.36899948120117,25.70199966430664 C48.22600173950195,23.982999801635742 49.632999420166016,24.707000732421875 49.505001068115234,26.051000595092773 C49.37699890136719,27.395000457763672 54.763999938964844,31.284000396728516 52.03900146484375,29.726999282836914 C49.31399917602539,28.170000076293945 58.090999603271484,32.0099983215332 60.9379997253418,32.74599838256836 C63.78499984741211,33.481998443603516 65.11799621582031,34.02799987792969 65.21800231933594,32.24100112915039 C65.31800079345703,30.45400047302246 59.643001556396484,26.547000885009766 48.06700134277344,27.344999313354492z"></path></g><g opacity="0" transform="matrix(1,0,0,1,0,0)"><path fill="rgb(255,255,255)" fill-opacity="1" d=" M76.78099822998047,50.060001373291016 C76.78099822998047,50.060001373291016 73.7020034790039,50.89099884033203 73.19999694824219,53.47600173950195 C72.697998046875,56.06100082397461 71.87999725341797,59.17300033569336 73.55799865722656,60.016998291015625 C75.23600006103516,60.861000061035156 80.30899810791016,58.619998931884766 82.6760025024414,57.67399978637695 C85.04299926757812,56.72800064086914 83.68499755859375,57.27799987792969 81.37300109863281,53.731998443603516 C79.06099700927734,50.18600082397461 76.78099822998047,50.060001373291016 76.78099822998047,50.060001373291016z"></path></g><g opacity="0" transform="matrix(1,0,0,1,0,0)"><path fill="rgb(255,255,255)" fill-opacity="1" d=" M23.94300079345703,44.880001068115234 C23.94300079345703,44.880001068115234 22.18199920654297,48.09299850463867 20.641000747680664,51.99399948120117 C19.100000381469727,55.89500045776367 19.541000366210938,58.41899871826172 19.541000366210938,58.41899871826172 C19.541000366210938,58.41899871826172 26.804000854492188,57.959999084472656 28.565000534057617,57.959999084472656 C30.326000213623047,57.959999084472656 31.427000045776367,55.89400100708008 30.326000213623047,53.82899856567383 C29.225000381469727,51.763999938964844 27.464000701904297,48.09199905395508 27.464000701904297,48.09199905395508 C27.464000701904297,48.09199905395508 23.94300079345703,44.880001068115234 23.94300079345703,44.880001068115234z"></path></g><g opacity="0" transform="matrix(1,0,0,1,0,0)"><path fill="rgb(173,51,88)" fill-opacity="1" d=" M67.44999694824219,60.93899917602539 C61.946998596191406,62.75400161743164 64.23699951171875,60.89899826049805 60.12799835205078,62.92399978637695 C55.46799850463867,65.22100067138672 54.9739990234375,65.36199951171875 51.90700149536133,65.55000305175781 C49.18600082397461,65.71700286865234 49.30500030517578,65.45999908447266 44.95600128173828,63.58100128173828 C42.35900115966797,62.45899963378906 39.099998474121094,61.59400177001953 35.316001892089844,61.69499969482422 C25.19700050354004,61.96500015258789 32.34400177001953,64.85700225830078 32.34400177001953,64.85700225830078 C32.34400177001953,64.85700225830078 36.6609992980957,69.3740005493164 37.882999420166016,70.072998046875 C46.15299987792969,74.80400085449219 48.05799865722656,75.71800231933594 53.87200164794922,75.9530029296875 C57.64899826049805,76.1050033569336 63.54399871826172,78.16200256347656 69.9729995727539,70.06800079345703 C77.19200134277344,60.979000091552734 77.64299774169922,62.60300064086914 78.00199890136719,58.4010009765625 C78.29000091552734,55.03499984741211 76.71199798583984,57.88399887084961 67.44999694824219,60.93899917602539z"></path></g><g opacity="0" transform="matrix(1,0,0,1,0,0)"><path fill="rgb(180,52,91)" fill-opacity="1" d=" M67.44999694824219,60.93899917602539 C61.946998596191406,62.75400161743164 64.23699951171875,60.89899826049805 60.12799835205078,62.92399978637695 C55.46799850463867,65.22100067138672 54.9739990234375,65.36199951171875 51.90700149536133,65.55000305175781 C49.18600082397461,65.71700286865234 49.30500030517578,65.45999908447266 44.95600128173828,63.58100128173828 C42.35900115966797,62.45899963378906 39.099998474121094,61.59400177001953 35.316001892089844,61.69499969482422 C25.19700050354004,61.96500015258789 32.34400177001953,64.85700225830078 32.34400177001953,64.85700225830078 C32.34400177001953,64.85700225830078 36.6609992980957,69.3740005493164 37.882999420166016,70.072998046875 C46.15299987792969,74.80400085449219 48.05799865722656,75.71800231933594 53.87200164794922,75.9530029296875 C57.64899826049805,76.1050033569336 63.54399871826172,78.16200256347656 69.9729995727539,70.06800079345703 C77.19200134277344,60.979000091552734 77.64299774169922,62.60300064086914 78.00199890136719,58.4010009765625 C78.29000091552734,55.03499984741211 76.71199798583984,57.88399887084961 67.44999694824219,60.93899917602539z"></path><path stroke-linecap="butt" stroke-linejoin="miter" fill-opacity="0" stroke-miterlimit="4" stroke="rgb(139,18,55)" stroke-opacity="1" stroke-width="8" d=" M67.44999694824219,60.93899917602539 C61.946998596191406,62.75400161743164 64.23699951171875,60.89899826049805 60.12799835205078,62.92399978637695 C55.46799850463867,65.22100067138672 54.9739990234375,65.36199951171875 51.90700149536133,65.55000305175781 C49.18600082397461,65.71700286865234 49.30500030517578,65.45999908447266 44.95600128173828,63.58100128173828 C42.35900115966797,62.45899963378906 39.099998474121094,61.59400177001953 35.316001892089844,61.69499969482422 C25.19700050354004,61.96500015258789 32.34400177001953,64.85700225830078 32.34400177001953,64.85700225830078 C32.34400177001953,64.85700225830078 36.6609992980957,69.3740005493164 37.882999420166016,70.072998046875 C46.15299987792969,74.80400085449219 48.05799865722656,75.71800231933594 53.87200164794922,75.9530029296875 C57.64899826049805,76.1050033569336 63.54399871826172,78.16200256347656 69.9729995727539,70.06800079345703 C77.19200134277344,60.979000091552734 77.64299774169922,62.60300064086914 78.00199890136719,58.4010009765625 C78.29000091552734,55.03499984741211 76.71199798583984,57.88399887084961 67.44999694824219,60.93899917602539z"></path></g><g opacity="0" transform="matrix(1,0,0,1,-7,-5)"><path fill="rgb(206,223,232)" fill-opacity="1" d=" M33.4370002746582,41.74100112915039 C32.6349983215332,43.98699951171875 32.650001525878906,47.82899856567383 32.650001525878906,47.82899856567383 C32.650001525878906,47.82899856567383 33.904998779296875,46.66600036621094 35.888999938964844,48.04899978637695 C37.87300109863281,49.43199920654297 41.46200180053711,48.332000732421875 41.46200180053711,48.332000732421875 C41.46200180053711,48.332000732421875 43.11600112915039,50.4739990234375 43.73500061035156,47.742000579833984 C44.19200134277344,45.7239990234375 43.18899917602539,41.16999816894531 41.66999816894531,40.316001892089844 C39.5260009765625,39.111000061035156 34.83700180053711,37.82400131225586 33.4370002746582,41.74100112915039z"></path></g><g opacity="0" transform="matrix(1,0,0,1,-4,2)"><path fill="rgb(206,223,232)" fill-opacity="1" d=" M65.1259994506836,39.09299850463867 C63.90599822998047,38.275001525878906 60.82899856567383,37.56100082397461 59.42399978637695,38.244998931884766 C58.01900100708008,38.92900085449219 58.132999420166016,40.358001708984375 57.858001708984375,42.16699981689453 C57.63199996948242,43.65700149536133 58.20899963378906,45.45899963378906 58.20899963378906,45.45899963378906 C58.20899963378906,45.45899963378906 58.4119987487793,46.41899871826172 62.229000091552734,46.74800109863281 C66.31999969482422,47.10100173950195 69.47599792480469,47.150001525878906 69.47599792480469,47.150001525878906 C69.47599792480469,47.150001525878906 68.64600372314453,41.452999114990234 65.1259994506836,39.09299850463867z"></path></g><g opacity="0" transform="matrix(1,0,0,1,0,0)"><path fill="rgb(243,249,252)" fill-opacity="1" d=" M76.28500366210938,84.91999816894531 C75.01799774169922,85.43000030517578 67.54000091552734,87.77899932861328 65.62100219726562,89.38099670410156 C63.869998931884766,90.84300231933594 63.459999084472656,90.53700256347656 61.73500061035156,91.3489990234375 C59.83599853515625,92.24400329589844 59.9640007019043,91.63899993896484 57.04499816894531,91.09200286865234 C55.665000915527344,90.83300018310547 50.492000579833984,91.69000244140625 48.27899932861328,91.4749984741211 C46.066001892089844,91.26000213623047 46.91400146484375,91.5250015258789 46.30400085449219,91.51899719238281 C41.60200119018555,91.4739990234375 40.82099914550781,91.82099914550781 37.28799819946289,93.23799896240234 C35.86600112915039,93.80799865722656 36.69200134277344,89.86900329589844 34.375999450683594,89.26000213623047 C30.009000778198242,88.11100006103516 24.413000106811523,84.60099792480469 22.92300033569336,84.74199676513672 C19.868000030517578,85.02999877929688 14.333999633789062,87.94400024414062 14.333999633789062,87.94400024414062 C14.333999633789062,87.94400024414062 28.39900016784668,103.4209976196289 57.349998474121094,100.38999938964844 C73.23799896240234,98.72699737548828 84.80899810791016,87.08799743652344 84.80899810791016,87.08799743652344 C84.80899810791016,87.08799743652344 80.70899963378906,83.14099884033203 76.28500366210938,84.91999816894531z"></path></g><g opacity="1" transform="matrix(1,0,0,1,47.96500015258789,34.777000427246094)"><path stroke-linecap="butt" stroke-linejoin="miter" fill-opacity="0" stroke-miterlimit="10" stroke="rgb(111,55,20)" stroke-opacity="1" stroke-width="10.629" d=" M-16.02899932861328,-6.171000003814697 C-11.960000038146973,-7.002999782562256 -4.007999897003174,-8.204999923706055 1.725000023841858,-7.835999965667725 C7.458000183105469,-7.466000080108643 14.116999626159668,-6.72599983215332 15.41100025177002,-4.322000026702881 C16.70599937438965,-1.9170000553131104 21.392000198364258,8.204999923706055 11.342000007629395,5.296000003814697 C4.138000011444092,3.2109999656677246 -0.38100001215934753,2.9609999656677246 -3.953000068664551,3.318000078201294 C-7.35099983215332,3.6579999923706055 -9.892999649047852,4.546999931335449 -13.071000099182129,4.926000118255615 C-15.100000381469727,5.168000221252441 -21.39299964904785,5.665999889373779 -20.4689998626709,-0.2529999911785126 C-19.54400062561035,-6.171000003814697 -17.969999313354492,-5.77400016784668 -16.02899932861328,-6.171000003814697z"></path></g></g></g><g style="display: none;"><g><path stroke-linecap="round" stroke-linejoin="round" fill-opacity="0"></path></g></g><g style="display: none;"><g><path stroke-linecap="round" stroke-linejoin="round" fill-opacity="0"></path></g><g><path stroke-linecap="round" stroke-linejoin="round" fill-opacity="0"></path></g></g><g style="display: none;"><g><path stroke-linecap="round" stroke-linejoin="round" fill-opacity="0"></path></g><g><path stroke-linecap="round" stroke-linejoin="round" fill-opacity="0"></path></g><g><path stroke-linecap="butt" stroke-linejoin="miter" fill-opacity="0" stroke-miterlimit="4"></path></g></g><g style="display: block;" transform="matrix(0.9122474789619446,-0.08414490520954132,0.08930958062410355,0.9682397842407227,-19.495697021484375,84.31365966796875)" opacity="1"><g opacity="1" transform="matrix(1,0,0,1,93.78900146484375,109.20500183105469)"><path fill="url(#__lottie_element_24)" mask="url(#__lottie_element_26)" fill-opacity="1" d="M0 0 M21.84000015258789,33.428001403808594 C21.84000015258789,33.428001403808594 18.579999923706055,49.8390007019043 0.9769999980926514,49.231998443603516 C-16.625,48.624000549316406 -29.663999557495117,26.743000030517578 -27.05699920654297,4.86299991607666 C-24.448999404907227,-17.01799964904785 -22.493000030517578,-27.350000381469727 -23.797000885009766,-29.17300033569336 C-25.10099983215332,-30.996999740600586 -14.668999671936035,-49.8390007019043 3.5850000381469727,-40.1150016784668 C21.84000015258789,-30.389999389648438 29.663999557495117,-6.077000141143799 29.011999130249023,0.6079999804496765 C28.361000061035156,7.294000148773193 21.84000015258789,33.428001403808594 21.84000015258789,33.428001403808594z"></path><path stroke-linecap="butt" stroke-linejoin="miter" fill-opacity="0" stroke-miterlimit="10" stroke="rgb(167,88,42)" stroke-opacity="1" stroke-width="12.22" d=" M21.84000015258789,33.428001403808594 C21.84000015258789,33.428001403808594 18.579999923706055,49.8390007019043 0.9769999980926514,49.231998443603516 C-16.625,48.624000549316406 -29.663999557495117,26.743000030517578 -27.05699920654297,4.86299991607666 C-24.448999404907227,-17.01799964904785 -22.493000030517578,-27.350000381469727 -23.797000885009766,-29.17300033569336 C-25.10099983215332,-30.996999740600586 -14.668999671936035,-49.8390007019043 3.5850000381469727,-40.1150016784668 C21.84000015258789,-30.389999389648438 29.663999557495117,-6.077000141143799 29.011999130249023,0.6079999804496765 C28.361000061035156,7.294000148773193 21.84000015258789,33.428001403808594 21.84000015258789,33.428001403808594z"></path></g><g opacity="1" transform="matrix(1,0,0,1,57.21099853515625,62.84600067138672)"><path fill="rgb(250,206,172)" fill-opacity="1" d=" M10.670000076293945,30.257999420166016 C10.670000076293945,30.257999420166016 9.935999870300293,21.964000701904297 3.318000078201294,12.548999786376953 C-2.3340001106262207,4.508999824523926 -11.92199993133545,-7.034999847412109 -17.67099952697754,-10.809000015258789 C-26.66200065612793,-16.709999084472656 -24.190000534057617,-25.395999908447266 -18.104999542236328,-27.82699966430664 C-12.020000457763672,-30.257999420166016 -2.8929998874664307,-25.801000595092773 4.931000232696533,-16.48200035095215 C12.753999710083008,-7.1620001792907715 23.184999465942383,6.209000110626221 24.923999786376953,10.26099967956543 C26.66200065612793,14.312999725341797 25.358999252319336,18.364999771118164 22.750999450683594,20.391000747680664 C20.14299964904785,22.41699981689453 16.666000366210938,23.226999282836914 16.666000366210938,23.226999282836914 C16.666000366210938,23.226999282836914 10.670000076293945,30.257999420166016 10.670000076293945,30.257999420166016z"></path><path stroke-linecap="round" stroke-linejoin="round" fill-opacity="0" stroke="rgb(167,88,42)" stroke-opacity="1" stroke-width="12.22" d=" M10.670000076293945,30.257999420166016 C10.670000076293945,30.257999420166016 9.935999870300293,21.964000701904297 3.318000078201294,12.548999786376953 C-2.3340001106262207,4.508999824523926 -11.92199993133545,-7.034999847412109 -17.67099952697754,-10.809000015258789 C-26.66200065612793,-16.709999084472656 -24.190000534057617,-25.395999908447266 -18.104999542236328,-27.82699966430664 C-12.020000457763672,-30.257999420166016 -2.8929998874664307,-25.801000595092773 4.931000232696533,-16.48200035095215 C12.753999710083008,-7.1620001792907715 23.184999465942383,6.209000110626221 24.923999786376953,10.26099967956543 C26.66200065612793,14.312999725341797 25.358999252319336,18.364999771118164 22.750999450683594,20.391000747680664 C20.14299964904785,22.41699981689453 16.666000366210938,23.226999282836914 16.666000366210938,23.226999282836914 C16.666000366210938,23.226999282836914 10.670000076293945,30.257999420166016 10.670000076293945,30.257999420166016z"></path></g><g opacity="1" transform="matrix(1,0,0,1,100.08999633789062,61.012001037597656)"><path fill="rgb(250,206,172)" fill-opacity="1" d=" M1.5750000476837158,21.350000381469727 C1.5750000476837158,21.350000381469727 1.6660000085830688,10.866000175476074 1.0950000286102295,-0.3840000033378601 C0.2029999941587448,-17.964000701904297 -6.929999828338623,-45.52899932861328 -14.281000137329102,-47.724998474121094 C-26.797000885009766,-51.4640007019043 -29.797000885009766,-42.9640007019043 -25.95400047302246,-30.52400016784668 C-22.04199981689453,-17.863000869750977 -16.381000518798828,6.2129998207092285 -21.59000015258789,15.28499984741211 C-26.798999786376953,24.356000900268555 -28.94099998474121,24.429000854492188 -24.17300033569336,28.43199920654297 C-19.405000686645508,32.435001373291016 -13.187000274658203,29.565000534057617 -13.187000274658203,29.565000534057617 C-13.187000274658203,29.565000534057617 1.5750000476837158,21.350000381469727 1.5750000476837158,21.350000381469727z"></path><path stroke-linecap="butt" stroke-linejoin="miter" fill-opacity="0" stroke-miterlimit="10" stroke="rgb(167,88,42)" stroke-opacity="1" stroke-width="12.22" d=" M1.5750000476837158,21.350000381469727 C1.5750000476837158,21.350000381469727 1.6660000085830688,10.866000175476074 1.0950000286102295,-0.3840000033378601 C0.2029999941587448,-17.964000701904297 -6.929999828338623,-45.52899932861328 -14.281000137329102,-47.724998474121094 C-26.797000885009766,-51.4640007019043 -29.797000885009766,-42.9640007019043 -25.95400047302246,-30.52400016784668 C-22.04199981689453,-17.863000869750977 -16.381000518798828,6.2129998207092285 -21.59000015258789,15.28499984741211 C-26.798999786376953,24.356000900268555 -28.94099998474121,24.429000854492188 -24.17300033569336,28.43199920654297 C-19.405000686645508,32.435001373291016 -13.187000274658203,29.565000534057617 -13.187000274658203,29.565000534057617 C-13.187000274658203,29.565000534057617 1.5750000476837158,21.350000381469727 1.5750000476837158,21.350000381469727z"></path></g><g opacity="1" transform="matrix(1,0,0,1,119.68499755859375,73.36599731445312)"><path fill="rgb(250,206,172)" fill-opacity="1" d=" M-31.69099998474121,17.10300064086914 C-31.69099998474121,17.10300064086914 -21.506999969482422,5.885000228881836 -12.96500015258789,-3.9809999465942383 C-2.631999969482422,-15.916000366210938 13.038000106811523,-22.64299964904785 18.70199966430664,-22.691999435424805 C24.367000579833984,-22.740999221801758 31.69099998474121,-14.5649995803833 26.868000030517578,-7.15500020980835 C22.04599952697754,0.2549999952316284 9.288000106811523,2.2929999828338623 2.756999969482422,9.189000129699707 C-3.7750000953674316,16.084999084472656 -7.679999828338623,22.740999221801758 -7.679999828338623,22.740999221801758 C-7.679999828338623,22.740999221801758 -29.610000610351562,19.600000381469727 -29.610000610351562,19.600000381469727"></path><path stroke-linecap="butt" stroke-linejoin="miter" fill-opacity="0" stroke-miterlimit="10" stroke="rgb(167,88,42)" stroke-opacity="1" stroke-width="12.22" d=" M-31.69099998474121,17.10300064086914 C-31.69099998474121,17.10300064086914 -21.506999969482422,5.885000228881836 -12.96500015258789,-3.9809999465942383 C-2.631999969482422,-15.916000366210938 13.038000106811523,-22.64299964904785 18.70199966430664,-22.691999435424805 C24.367000579833984,-22.740999221801758 31.69099998474121,-14.5649995803833 26.868000030517578,-7.15500020980835 C22.04599952697754,0.2549999952316284 9.288000106811523,2.2929999828338623 2.756999969482422,9.189000129699707 C-3.7750000953674316,16.084999084472656 -7.679999828338623,22.740999221801758 -7.679999828338623,22.740999221801758 C-7.679999828338623,22.740999221801758 -29.610000610351562,19.600000381469727 -29.610000610351562,19.600000381469727"></path></g><g opacity="1" transform="matrix(1,0,0,1,123.18199920654297,102.28399658203125)"><path fill="rgb(250,206,172)" fill-opacity="1" d=" M-15.310999870300293,11.272000312805176 C-15.310999870300293,11.272000312805176 -1.8370000123977661,6.815000057220459 7.724999904632568,6.815000057220459 C17.28700065612793,6.815000057220459 24.874000549316406,4.380000114440918 24.874000549316406,-2.5220000743865967 C24.874000549316406,-6.960000038146973 21.239999771118164,-11.677000045776367 12.11299991607666,-11.677000045776367 C2.984999895095825,-11.677000045776367 -8.791999816894531,-8.98799991607666 -12.270000457763672,-7.367000102996826 C-15.746999740600586,-5.745999813079834 -24.87299919128418,-5.341000080108643 -21.395999908447266,3.1679999828338623 C-17.91900062561035,11.677000045776367 -15.310999870300293,11.272000312805176 -15.310999870300293,11.272000312805176z"></path><path stroke-linecap="round" stroke-linejoin="round" fill-opacity="0" stroke="rgb(167,88,42)" stroke-opacity="1" stroke-width="12.22" d=" M-15.310999870300293,11.272000312805176 C-15.310999870300293,11.272000312805176 -1.8370000123977661,6.815000057220459 7.724999904632568,6.815000057220459 C17.28700065612793,6.815000057220459 24.874000549316406,4.380000114440918 24.874000549316406,-2.5220000743865967 C24.874000549316406,-6.960000038146973 21.239999771118164,-11.677000045776367 12.11299991607666,-11.677000045776367 C2.984999895095825,-11.677000045776367 -8.791999816894531,-8.98799991607666 -12.270000457763672,-7.367000102996826 C-15.746999740600586,-5.745999813079834 -24.87299919128418,-5.341000080108643 -21.395999908447266,3.1679999828338623 C-17.91900062561035,11.677000045776367 -15.310999870300293,11.272000312805176 -15.310999870300293,11.272000312805176z"></path></g><g opacity="1" transform="matrix(1,0,0,1,76.41100311279297,83.76499938964844)"><path fill="url(#__lottie_element_27)" mask="url(#__lottie_element_29)" fill-opacity="1" d="M0 0 M-3.4049999713897705,-14.640999794006348 C-3.4049999713897705,-14.640999794006348 -2.821000099182129,-9.609000205993652 3.4820001125335693,-9.008999824523926 C9.307999610900879,-8.454000473022461 10.512999534606934,-13.993000030517578 10.512999534606934,-13.993000030517578 C10.512999534606934,-13.993000030517578 13.663000106811523,-4.947000026702881 13.663000106811523,-4.947000026702881 C13.663000106811523,-4.947000026702881 8.67199993133545,8.494999885559082 7.421000003814697,10.17300033569336 C2.1500000953674316,17.246999740600586 -0.7630000114440918,17.10700035095215 -0.7630000114440918,17.10700035095215 C-0.7630000114440918,17.10700035095215 -2.2109999656677246,3.6640000343322754 -6.866000175476074,-3.561000108718872 C-11.520999908447266,-10.78600025177002 -13.663000106811523,-17.246999740600586 -13.663000106811523,-17.246999740600586 C-13.663000106811523,-17.246999740600586 -3.4049999713897705,-14.640999794006348 -3.4049999713897705,-14.640999794006348z"></path></g><g opacity="1" transform="matrix(1,0,0,1,93.61199951171875,90.66600036621094)"><path fill="url(#__lottie_element_30)" mask="url(#__lottie_element_32)" fill-opacity="1" d="M0 0 M-3.5369999408721924,-11.848999977111816 C-3.5369999408721924,-11.848999977111816 -3.6649999618530273,-5.439000129699707 2.430000066757202,-4.796999931335449 C7.701000213623047,-4.242000102996826 10.333999633789062,-8.9350004196167 10.333999633789062,-8.9350004196167 C10.333999633789062,-8.9350004196167 15.744000434875488,-4.728000164031982 15.744000434875488,-4.728000164031982 C15.744000434875488,-4.728000164031982 15.37399959564209,-2.322999954223633 15.37399959564209,-2.322999954223633 C15.37399959564209,-2.322999954223633 8.16100025177002,-1.3980000019073486 7.605999946594238,3.5950000286102295 C7.051000118255615,8.58899974822998 9.456000328063965,6.73799991607666 9.456000328063965,6.73799991607666 C9.456000328063965,6.73799991607666 3.5360000133514404,11.26099967956543 -0.0689999982714653,11.593999862670898 C-2.828000068664551,11.848999977111816 -9.085000038146973,11.454000473022461 -12.831000328063965,6.599999904632568 C-14.088000297546387,4.96999979019165 -15.744000434875488,-0.7509999871253967 -15.744000434875488,-0.7509999871253967 C-15.744000434875488,-0.7509999871253967 -6.079999923706055,-11.38700008392334 -6.079999923706055,-11.38700008392334 C-6.079999923706055,-11.38700008392334 -3.5369999408721924,-11.848999977111816 -3.5369999408721924,-11.848999977111816z"></path></g><g opacity="1" transform="matrix(1,0,0,1,108.8010025024414,105.30899810791016)"><path fill="url(#__lottie_element_33)" mask="url(#__lottie_element_35)" fill-opacity="1" d="M0 0 M-3.3289999961853027,17.433000564575195 C-1.2860000133514404,18.07699966430664 5.548999786376953,15.491000175476074 5.548999786376953,15.491000175476074 C5.548999786376953,15.491000175476074 6.288000106811523,11.885000228881836 6.288000106811523,11.885000228881836 C6.288000106811523,11.885000228881836 7.322999954223633,2.634999990463257 9.246999740600586,0.7879999876022339 C11.559000015258789,-1.4320000410079956 16.09000015258789,-2.1710000038146973 16.09000015258789,-2.1710000038146973 C16.09000015258789,-2.1710000038146973 8.96399974822998,-2.5299999713897705 8.96399974822998,-2.5299999713897705 C6.757999897003174,-2.621999979019165 7.88100004196167,-2.7899999618530273 8.878000259399414,-4.761000156402588 C8.878000259399414,-4.761000156402588 7.304999828338623,-5.73199987411499 7.304999828338623,-5.73199987411499 C7.304999828338623,-5.73199987411499 1.097000002861023,-5.48799991607666 -0.3479999899864197,-9.569000244140625 C-1.9429999589920044,-14.07800006866455 1.8029999732971191,-18.0310001373291 1.8029999732971191,-18.0310001373291 C1.8029999732971191,-18.0310001373291 -8.878000259399414,-18.07699966430664 -8.878000259399414,-18.07699966430664 C-8.878000259399414,-18.07699966430664 -16.09000015258789,-5.315999984741211 -16.09000015258789,-5.315999984741211 C-16.09000015258789,-5.315999984741211 -13.868000030517578,3.989000082015991 -12.57699966430664,6.890999794006348 C-11.152999877929688,10.093999862670898 -6.671999931335449,16.378999710083008 -3.3289999961853027,17.433000564575195z"></path></g><g opacity="1" transform="matrix(1,0,0,1,90.39900207519531,152.70399475097656)"><path fill="url(#__lottie_element_36)" mask="url(#__lottie_element_38)" fill-opacity="1" d="M0 0 M-13.539999961853027,-17.56999969482422 C-13.539999961853027,-17.56999969482422 -11.541000366210938,-10.541999816894531 -12.630999565124512,-4.439000129699707 C-13.722000122070312,1.6649999618530273 -15.072999954223633,12.946000099182129 -15.072999954223633,12.946000099182129 C-15.072999954223633,12.946000099182129 2.867000102996826,17.56999969482422 2.867000102996826,17.56999969482422 C2.867000102996826,17.56999969482422 5.301000118255615,8.642999649047852 7.860000133514404,3.3289999961853027 C10.263999938964844,-1.6640000343322754 15.072999954223633,-3.5139999389648438 15.072999954223633,-3.5139999389648438 C15.072999954223633,-3.5139999389648438 4.723999977111816,-13.685999870300293 4.723999977111816,-13.685999870300293 C4.723999977111816,-13.685999870300293 -13.539999961853027,-17.56999969482422 -13.539999961853027,-17.56999969482422z"></path></g></g></g></g></svg>