<svg xmlns="http://www.w3.org/2000/svg" xmlns:xlink="http://www.w3.org/1999/xlink" viewBox="0 0 512 512" width="512" height="512" style="width: 100%; height: 100%; transform: translate3d(0,0,0); content-visibility: visible;" preserveAspectRatio="xMidYMid meet"><defs><clipPath id="__lottie_element_2"><rect width="512" height="512" x="0" y="0"></rect></clipPath><clipPath id="__lottie_element_4"><path d="M0,0 L512,0 L512,512 L0,512z"></path></clipPath><radialGradient id="__lottie_element_13" spreadMethod="pad" gradientUnits="userSpaceOnUse" cx="-37.9379997253418" cy="-193.72999572753906" r="286.31564057966443" fx="-37.9379997253418" fy="-193.72999572753906"><stop offset="16%" stop-color="rgb(255,218,191)"></stop><stop offset="88%" stop-color="rgb(251,202,173)"></stop><stop offset="100%" stop-color="rgb(248,186,155)"></stop></radialGradient></defs><g clip-path="url(#__lottie_element_2)"><g clip-path="url(#__lottie_element_4)" style="display: block;" transform="matrix(1,0,0,1,0,0)" opacity="1"><g style="display: block;" transform="matrix(1.0971218347549438,0.10815373808145523,-0.10815373808145523,1.0971218347549438,17.701147079467773,-32.070674896240234)" opacity="1"><g opacity="1" transform="matrix(1,0,0,1,240.52499389648438,243.46600341796875)"><path fill="rgb(244,156,118)" fill-opacity="1" d=" M-190.45199584960938,61.56700134277344 C-203.4429931640625,8.803000450134277 -207.42999267578125,-64.12000274658203 -151.26100158691406,-125.18900299072266 C-72.91300201416016,-210.37100219726562 58.0359992980957,-205.92100524902344 132.73300170898438,-146.72500610351562 C207.4290008544922,-87.52899932861328 203.93299865722656,31.601999282836914 191.2449951171875,70.0479965209961 C178.55599975585938,108.49299621582031 138.27999877929688,182.177001953125 14.527000427246094,196.1750030517578 C-110.97200012207031,210.37100219726562 -173.7899932861328,129.24099731445312 -190.45199584960938,61.56700134277344z"></path><path stroke-linecap="butt" stroke-linejoin="miter" fill-opacity="0" stroke-miterlimit="10" stroke="rgb(181,95,48)" stroke-opacity="1" stroke-width="13.238" d=" M-190.45199584960938,61.56700134277344 C-203.4429931640625,8.803000450134277 -207.42999267578125,-64.12000274658203 -151.26100158691406,-125.18900299072266 C-72.91300201416016,-210.37100219726562 58.0359992980957,-205.92100524902344 132.73300170898438,-146.72500610351562 C207.4290008544922,-87.52899932861328 203.93299865722656,31.601999282836914 191.2449951171875,70.0479965209961 C178.55599975585938,108.49299621582031 138.27999877929688,182.177001953125 14.527000427246094,196.1750030517578 C-110.97200012207031,210.37100219726562 -173.7899932861328,129.24099731445312 -190.45199584960938,61.56700134277344z"></path></g><g opacity="1" transform="matrix(1,0,0,1,242.3719940185547,222.2949981689453)"><path fill="url(#__lottie_element_13)" fill-opacity="1" d=" M-160.76600646972656,62.60599899291992 C-172.08399963378906,16.639999389648438 -180.70599365234375,-51.56100082397461 -131.7729949951172,-104.76300048828125 C-63.51900100708008,-178.97000122070312 50.558998107910156,-175.093994140625 115.63200378417969,-123.52400207519531 C180.70599365234375,-71.95500183105469 179.33799743652344,19.576000213623047 164.4429931640625,65.91600036621094 C153.6510009765625,99.49299621582031 130.74899291992188,153.85000610351562 22.93899917602539,166.04400634765625 C-86.39099884033203,178.41099548339844 -146.25,121.56099700927734 -160.76600646972656,62.60599899291992z"></path></g></g><g style="display: block;" transform="matrix(1.0971218347549438,0.10815373808145523,-0.10815373808145523,1.0971218347549438,160.62562561035156,215.05874633789062)" opacity="1"><g opacity="1" transform="matrix(1.1370700597763062,0,0,1.0942699909210205,-21.549636840820312,-16.217422485351562)"><g opacity="1" transform="matrix(1,0,0,1,139.9550018310547,87.81900024414062)"><path fill="rgb(61,17,10)" fill-opacity="1" d=" M-82.44499969482422,11.560999870300293 C-82.44499969482422,11.560999870300293 -53.32899856567383,37.8390007019043 0.09300000220537186,37.26300048828125 C53.51499938964844,36.68600082397461 63.62699890136719,15.060999870300293 68.50599670410156,3.694999933242798 C73.3550033569336,-7.586999893188477 79.75700378417969,-19.9060001373291 79.75700378417969,-19.9060001373291 C79.75700378417969,-19.9060001373291 48.57099914550781,-26.878999710083008 32.869998931884766,-39.85100173950195 C24.621999740600586,-46.28900146484375 -14.255999565124512,-32.04100036621094 -25.160999298095703,-24.62299919128418 C-36.064998626708984,-17.204999923706055 -42.65299987792969,-6.831999778747559 -55.893001556396484,-0.7940000295639038 C-69.13200378417969,5.24399995803833 -82.44499969482422,11.560999870300293 -82.44499969482422,11.560999870300293z"></path></g><g opacity="1" transform="matrix(1,0,0,1,53.659000396728516,91.2030029296875)"><path stroke-linecap="round" stroke-linejoin="round" fill-opacity="0" stroke="rgb(198,106,78)" stroke-opacity="1" stroke-width="10" d=" M11.654999732971191,-19.93600082397461 C7.361999988555908,-14.666999816894531 8.222000122070312,-13.954999923706055 -3.1389999389648438,-4.743000030517578 C-13.430000305175781,3.1989998817443848 -7.158999919891357,11.48900032043457 -4.374000072479248,19.964000701904297 C-1.5889999866485596,28.43899917602539 -0.9079999923706055,29.780000686645508 -0.9079999923706055,29.780000686645508"></path></g><g opacity="1" transform="matrix(1,0,0,1,210.38900756835938,57.13399887084961)"><path stroke-linecap="round" stroke-linejoin="round" fill-opacity="0" stroke="rgb(198,106,78)" stroke-opacity="1" stroke-width="10" d=" M6.492000102996826,-14.288999557495117 C6.492000102996826,-14.288999557495117 11.689000129699707,-7.829999923706055 18.150999069213867,-3.243000030517578 C22.594999313354492,-0.08799999952316284 20.742000579833984,3.734999895095825 19.99799919128418,11.012999534606934 C18.920000076293945,21.565000534057617 16.19099998474121,29.61400032043457 16.19099998474121,29.61400032043457"></path></g><g opacity="1" transform="matrix(1,0,0,1,0,0)"><path fill="rgb(18,6,4)" fill-opacity="1" d=" M144.3979949951172,67.44599914550781 C120.12799835205078,69.9229965209961 131.00100708007812,88.4800033569336 124.80500030517578,87.1780014038086 C118.60900115966797,85.8759994506836 122.98699951171875,78.54299926757812 108.08100128173828,83.66600036621094 C93.17500305175781,88.78900146484375 82.16799926757812,91.77899932861328 92.35099792480469,107.33000183105469 C102.69200134277344,123.21600341796875 115.83599853515625,120.59100341796875 123.93000030517578,115.98100280761719 C132.0240020751953,111.37100219726562 156.90899658203125,105.79499816894531 156.90899658203125,105.79499816894531 C156.90899658203125,105.79499816894531 163.43899536132812,98.59400177001953 163.69700622558594,88.1510009765625 C164.24600219726562,70.83499908447266 158.48800659179688,66.00800323486328 144.3979949951172,67.44599914550781z"></path></g><g opacity="1" transform="matrix(1,0,0,1,148.1739959716797,106.97799682617188)"><path fill="rgb(188,32,84)" fill-opacity="1" d=" M-46.98099899291992,9.581000328063965 C-46.98099899291992,9.581000328063965 -23.860000610351562,-14.116999626159668 7.309000015258789,-14.392999649047852 C27.445999145507812,-14.571000099182129 44.270999908447266,-1.7039999961853027 44.270999908447266,-1.7039999961853027 C44.270999908447266,-1.7039999961853027 30.281999588012695,11.968000411987305 -2.500999927520752,14.406000137329102 C-36.611000061035156,16.94300079345703 -46.98099899291992,9.581000328063965 -46.98099899291992,9.581000328063965z"></path><path stroke-linecap="round" stroke-linejoin="round" fill-opacity="0" stroke="rgb(146,13,61)" stroke-opacity="1" stroke-width="8" d=" M-46.98099899291992,9.581000328063965 C-46.98099899291992,9.581000328063965 -23.860000610351562,-14.116999626159668 7.309000015258789,-14.392999649047852 C27.445999145507812,-14.571000099182129 44.270999908447266,-1.7039999961853027 44.270999908447266,-1.7039999961853027 C44.270999908447266,-1.7039999961853027 30.281999588012695,11.968000411987305 -2.500999927520752,14.406000137329102 C-36.611000061035156,16.94300079345703 -46.98099899291992,9.581000328063965 -46.98099899291992,9.581000328063965z"></path></g><g opacity="1" transform="matrix(1.0539799928665161,0,0,1.0539799928665161,-9.345046997070312,-8.136726379394531)"><g opacity="1" transform="matrix(1,0,0,1,133.94500732421875,73.10299682617188)"><path fill="rgb(255,255,255)" fill-opacity="1" d=" M-15.140999794006348,-1.0740000009536743 C-15.140999794006348,-1.0740000009536743 -6.309999942779541,12.904000282287598 -1.815000057220459,13.418000221252441 C1.38100004196167,13.784000396728516 7.660999774932861,10.960000038146973 11.722000122070312,8.906000137329102 C13.95300006866455,7.7779998779296875 15.140999794006348,5.25600004196167 14.616999626159668,2.7829999923706055 C14.152000427246094,0.5929999947547913 13.628000259399414,-2.053999900817871 13.35200023651123,-4.041999816894531 C12.78600025177002,-8.114999771118164 10.432000160217285,-13.784000396728516 10.432000160217285,-13.784000396728516 C10.432000160217285,-13.784000396728516 0.1599999964237213,-9.289999961853027 -2.638000011444092,-8.041999816894531 C-5.434999942779541,-6.794000148773193 -15.140999794006348,-1.0740000009536743 -15.140999794006348,-1.0740000009536743z"></path><path stroke-linecap="round" stroke-linejoin="round" fill-opacity="0" stroke="rgb(78,127,147)" stroke-opacity="1" stroke-width="5.835" d=" M-15.140999794006348,-1.0740000009536743 C-15.140999794006348,-1.0740000009536743 -6.309999942779541,12.904000282287598 -1.815000057220459,13.418000221252441 C1.38100004196167,13.784000396728516 7.660999774932861,10.960000038146973 11.722000122070312,8.906000137329102 C13.95300006866455,7.7779998779296875 15.140999794006348,5.25600004196167 14.616999626159668,2.7829999923706055 C14.152000427246094,0.5929999947547913 13.628000259399414,-2.053999900817871 13.35200023651123,-4.041999816894531 C12.78600025177002,-8.114999771118164 10.432000160217285,-13.784000396728516 10.432000160217285,-13.784000396728516 C10.432000160217285,-13.784000396728516 0.1599999964237213,-9.289999961853027 -2.638000011444092,-8.041999816894531 C-5.434999942779541,-6.794000148773193 -15.140999794006348,-1.0740000009536743 -15.140999794006348,-1.0740000009536743z"></path></g><g opacity="1" transform="matrix(1,0,0,1,202.56100463867188,75.93399810791016)"><path fill="rgb(255,255,255)" fill-opacity="1" d=" M8.170000076293945,-3.6080000400543213 C8.170000076293945,-3.6080000400543213 2.740999937057495,4.460000038146973 0.06199999898672104,5.730000019073486 C-2.617000102996826,7 -7.251999855041504,6.017000198364258 -7.710999965667725,5.307000160217285 C-8.170000076293945,4.5970001220703125 -5.388999938964844,-7 -5.388999938964844,-7 C-5.388999938964844,-7 -0.21400000154972076,-5.127999782562256 1.5889999866485596,-4.85699987411499 C3.303999900817871,-4.598999977111816 8.170000076293945,-3.6080000400543213 8.170000076293945,-3.6080000400543213z"></path><path stroke-linecap="round" stroke-linejoin="round" fill-opacity="0" stroke="rgb(78,127,147)" stroke-opacity="1" stroke-width="5.835" d=" M8.170000076293945,-3.6080000400543213 C8.170000076293945,-3.6080000400543213 2.740999937057495,4.460000038146973 0.06199999898672104,5.730000019073486 C-2.617000102996826,7 -7.251999855041504,6.017000198364258 -7.710999965667725,5.307000160217285 C-8.170000076293945,4.5970001220703125 -5.388999938964844,-7 -5.388999938964844,-7 C-5.388999938964844,-7 -0.21400000154972076,-5.127999782562256 1.5889999866485596,-4.85699987411499 C3.303999900817871,-4.598999977111816 8.170000076293945,-3.6080000400543213 8.170000076293945,-3.6080000400543213z"></path></g><g opacity="1" transform="matrix(1,0,0,1,112.79299926757812,85.76499938964844)"><path fill="rgb(255,255,255)" fill-opacity="1" d=" M-11.795999526977539,-0.5950000286102295 C-11.795999526977539,-0.5950000286102295 -6.355000019073486,8.032999992370605 -3.196000099182129,10.133000373840332 C-0.5080000162124634,11.918999671936035 0.9049999713897705,11.456999778747559 3.871000051498413,10.25 C5.6570000648498535,9.52299976348877 8.651000022888184,7.177999973297119 10.015999794006348,6.355000019073486 C11.795999526977539,5.2820000648498535 11.758000373840332,3.062999963760376 10.704999923706055,1.253999948501587 C10.704999923706055,1.253999948501587 3.8919999599456787,-11.918000221252441 3.8919999599456787,-11.918000221252441 C3.8919999599456787,-11.918000221252441 -2.2320001125335693,-8.024999618530273 -4.23199987411499,-6.619999885559082 C-6.074999809265137,-5.323999881744385 -11.795999526977539,-0.5950000286102295 -11.795999526977539,-0.5950000286102295z"></path><path stroke-linecap="round" stroke-linejoin="round" fill-opacity="0" stroke="rgb(78,127,147)" stroke-opacity="1" stroke-width="5.835" d=" M-11.795999526977539,-0.5950000286102295 C-11.795999526977539,-0.5950000286102295 -6.355000019073486,8.032999992370605 -3.196000099182129,10.133000373840332 C-0.5080000162124634,11.918999671936035 0.9049999713897705,11.456999778747559 3.871000051498413,10.25 C5.6570000648498535,9.52299976348877 8.651000022888184,7.177999973297119 10.015999794006348,6.355000019073486 C11.795999526977539,5.2820000648498535 11.758000373840332,3.062999963760376 10.704999923706055,1.253999948501587 C10.704999923706055,1.253999948501587 3.8919999599456787,-11.918000221252441 3.8919999599456787,-11.918000221252441 C3.8919999599456787,-11.918000221252441 -2.2320001125335693,-8.024999618530273 -4.23199987411499,-6.619999885559082 C-6.074999809265137,-5.323999881744385 -11.795999526977539,-0.5950000286102295 -11.795999526977539,-0.5950000286102295z"></path></g><g opacity="1" transform="matrix(1,0,0,1,91.00399780273438,98.42900085449219)"><path fill="rgb(255,255,255)" fill-opacity="1" d=" M-10.916999816894531,3.757999897003174 C-10.916999816894531,3.757999897003174 -1.6430000066757202,9.293000221252441 4.164999961853027,9.833000183105469 C12.515000343322754,10.609000205993652 7.88700008392334,-10.609000205993652 7.88700008392334,-10.609000205993652 C7.88700008392334,-10.609000205993652 -12.515000343322754,2.681999921798706 -12.515000343322754,2.681999921798706"></path><path stroke-linecap="round" stroke-linejoin="round" fill-opacity="0" stroke="rgb(78,127,147)" stroke-opacity="1" stroke-width="5.835" d=" M-10.916999816894531,3.757999897003174 C-10.916999816894531,3.757999897003174 -1.6430000066757202,9.293000221252441 4.164999961853027,9.833000183105469 C12.515000343322754,10.609000205993652 7.88700008392334,-10.609000205993652 7.88700008392334,-10.609000205993652 C7.88700008392334,-10.609000205993652 -12.515000343322754,2.681999921798706 -12.515000343322754,2.681999921798706"></path></g><g opacity="1" transform="matrix(1,0,0,1,161.4720001220703,67.6780014038086)"><path fill="rgb(255,255,255)" fill-opacity="1" d=" M13.46500015258789,-8.635000228881836 C13.46500015258789,-8.635000228881836 13.82699966430664,6.704999923706055 12.185999870300293,8.809000015258789 C10.545000076293945,10.911999702453613 -4.203000068664551,12.074000358581543 -7.130000114440918,9.246999740600586 C-10.057000160217285,6.420000076293945 -13.82699966430664,-9.39900016784668 -13.82699966430664,-9.39900016784668 C-13.82699966430664,-9.39900016784668 -1.059999942779541,-12.072999954223633 3.4030001163482666,-11.494000434875488 C10.559000015258789,-10.5649995803833 13.46500015258789,-8.635000228881836 13.46500015258789,-8.635000228881836z"></path><path stroke-linecap="round" stroke-linejoin="round" fill-opacity="0" stroke="rgb(78,127,147)" stroke-opacity="1" stroke-width="5.835" d=" M13.46500015258789,-8.635000228881836 C13.46500015258789,-8.635000228881836 13.82699966430664,6.704999923706055 12.185999870300293,8.809000015258789 C10.545000076293945,10.911999702453613 -4.203000068664551,12.074000358581543 -7.130000114440918,9.246999740600586 C-10.057000160217285,6.420000076293945 -13.82699966430664,-9.39900016784668 -13.82699966430664,-9.39900016784668 C-13.82699966430664,-9.39900016784668 -1.059999942779541,-12.072999954223633 3.4030001163482666,-11.494000434875488 C10.559000015258789,-10.5649995803833 13.46500015258789,-8.635000228881836 13.46500015258789,-8.635000228881836z"></path></g><g opacity="1" transform="matrix(1,0,0,1,186.0399932861328,70.13400268554688)"><path fill="rgb(255,255,255)" fill-opacity="1" d=" M9.039999961853027,-1.6440000534057617 C9.039999961853027,-1.6440000534057617 8.133000373840332,7.948999881744385 5.520999908447266,9.479000091552734 C2.9100000858306885,11.008999824523926 -2.119999885559082,9.557999610900879 -3.674999952316284,8.928000450134277 C-7.4019999504089355,7.419000148773193 -8.178999900817871,5.618000030517578 -8.381999969482422,4.839000225067139 C-8.585000038146973,4.060999870300293 -9.039999961853027,-11.008999824523926 -9.039999961853027,-11.008999824523926 C-9.039999961853027,-11.008999824523926 -0.8220000267028809,-8.067000389099121 1.1339999437332153,-6.7129998207092285 C3.744999885559082,-4.90500020980835 9.039999961853027,-1.6440000534057617 9.039999961853027,-1.6440000534057617z"></path><path stroke-linecap="round" stroke-linejoin="round" fill-opacity="0" stroke="rgb(78,127,147)" stroke-opacity="1" stroke-width="5.835" d=" M9.039999961853027,-1.6440000534057617 C9.039999961853027,-1.6440000534057617 8.133000373840332,7.948999881744385 5.520999908447266,9.479000091552734 C2.9100000858306885,11.008999824523926 -2.119999885559082,9.557999610900879 -3.674999952316284,8.928000450134277 C-7.4019999504089355,7.419000148773193 -8.178999900817871,5.618000030517578 -8.381999969482422,4.839000225067139 C-8.585000038146973,4.060999870300293 -9.039999961853027,-11.008999824523926 -9.039999961853027,-11.008999824523926 C-9.039999961853027,-11.008999824523926 -0.8220000267028809,-8.067000389099121 1.1339999437332153,-6.7129998207092285 C3.744999885559082,-4.90500020980835 9.039999961853027,-1.6440000534057617 9.039999961853027,-1.6440000534057617z"></path></g></g><g opacity="1" transform="matrix(1.0696899890899658,0,0,1.0269700288772583,-17.044952392578125,-8.18853759765625)"><g opacity="1" transform="matrix(1,0,0,1,181.24600219726562,105.48300170898438)"><path fill="rgb(255,255,255)" fill-opacity="1" d=" M-5.748000144958496,10.989999771118164 C-5.748000144958496,10.989999771118164 -11.583000183105469,-1.2109999656677246 -5.644999980926514,-6.10099983215332 C0.2939999997615814,-10.989999771118164 8.847000122070312,-1.6410000324249268 8.847000122070312,-1.6410000324249268 C8.847000122070312,-1.6410000324249268 11.583000183105469,2.3399999141693115 11.583000183105469,2.3399999141693115 C11.583000183105469,2.3399999141693115 3.7790000438690186,7.76200008392334 3.7790000438690186,7.76200008392334 C3.7790000438690186,7.76200008392334 -5.748000144958496,10.989999771118164 -5.748000144958496,10.989999771118164z"></path><path stroke-linecap="round" stroke-linejoin="round" fill-opacity="0" stroke="rgb(78,127,147)" stroke-opacity="1" stroke-width="5.835" d=" M-5.748000144958496,10.989999771118164 C-5.748000144958496,10.989999771118164 -11.583000183105469,-1.2109999656677246 -5.644999980926514,-6.10099983215332 C0.2939999997615814,-10.989999771118164 8.847000122070312,-1.6410000324249268 8.847000122070312,-1.6410000324249268 C8.847000122070312,-1.6410000324249268 11.583000183105469,2.3399999141693115 11.583000183105469,2.3399999141693115 C11.583000183105469,2.3399999141693115 3.7790000438690186,7.76200008392334 3.7790000438690186,7.76200008392334 C3.7790000438690186,7.76200008392334 -5.748000144958496,10.989999771118164 -5.748000144958496,10.989999771118164z"></path></g><g opacity="1" transform="matrix(1,0,0,1,163.4040069580078,111.03199768066406)"><path fill="rgb(255,255,255)" fill-opacity="1" d=" M-6.451000213623047,10.706000328063965 C-6.451000213623047,10.706000328063965 -11.319000244140625,-0.9269999861717224 -5.380000114440918,-5.816999912261963 C0.5590000152587891,-10.706000328063965 4.080999851226807,-9.527000427246094 5.086999893188477,-7.89300012588501 C6.0929999351501465,-6.258999824523926 9.112000465393066,-1.3569999933242798 9.112000465393066,-1.3569999933242798 C9.112000465393066,-1.3569999933242798 11.319000244140625,5.630000114440918 11.319000244140625,5.630000114440918 C11.319000244140625,5.630000114440918 2.372999906539917,8.942000389099121 2.372999906539917,8.942000389099121 C2.372999906539917,8.942000389099121 -6.451000213623047,10.706000328063965 -6.451000213623047,10.706000328063965z"></path><path stroke-linecap="round" stroke-linejoin="round" fill-opacity="0" stroke="rgb(78,127,147)" stroke-opacity="1" stroke-width="5.835" d=" M-6.451000213623047,10.706000328063965 C-6.451000213623047,10.706000328063965 -11.319000244140625,-0.9269999861717224 -5.380000114440918,-5.816999912261963 C0.5590000152587891,-10.706000328063965 4.080999851226807,-9.527000427246094 5.086999893188477,-7.89300012588501 C6.0929999351501465,-6.258999824523926 9.112000465393066,-1.3569999933242798 9.112000465393066,-1.3569999933242798 C9.112000465393066,-1.3569999933242798 11.319000244140625,5.630000114440918 11.319000244140625,5.630000114440918 C11.319000244140625,5.630000114440918 2.372999906539917,8.942000389099121 2.372999906539917,8.942000389099121 C2.372999906539917,8.942000389099121 -6.451000213623047,10.706000328063965 -6.451000213623047,10.706000328063965z"></path></g><g opacity="1" transform="matrix(1,0,0,1,143.19000244140625,114.00599670410156)"><path fill="rgb(255,255,255)" fill-opacity="1" d=" M-9.862000465393066,10.010000228881836 C-9.862000465393066,10.010000228881836 -11.48799991607666,-4.440999984741211 -3.756999969482422,-7.244999885559082 C3.9730000495910645,-10.04800033569336 7.127999782562256,-7.584000110626221 7.572999954223633,-5.567999839782715 C8.017999649047852,-3.5510001182556152 9.352999687194824,2.497999906539917 9.352999687194824,2.497999906539917 C9.352999687194824,2.497999906539917 11.487000465393066,7.839000225067139 11.487000465393066,7.839000225067139 C11.487000465393066,7.839000225067139 2.875999927520752,9.807999610900879 -0.1459999978542328,9.942000389099121 C-2.555000066757202,10.04800033569336 -9.862000465393066,10.010000228881836 -9.862000465393066,10.010000228881836z"></path><path stroke-linecap="round" stroke-linejoin="round" fill-opacity="0" stroke="rgb(78,127,147)" stroke-opacity="1" stroke-width="5.835" d=" M-9.862000465393066,10.010000228881836 C-9.862000465393066,10.010000228881836 -11.48799991607666,-4.440999984741211 -3.756999969482422,-7.244999885559082 C3.9730000495910645,-10.04800033569336 7.127999782562256,-7.584000110626221 7.572999954223633,-5.567999839782715 C8.017999649047852,-3.5510001182556152 9.352999687194824,2.497999906539917 9.352999687194824,2.497999906539917 C9.352999687194824,2.497999906539917 11.487000465393066,7.839000225067139 11.487000465393066,7.839000225067139 C11.487000465393066,7.839000225067139 2.875999927520752,9.807999610900879 -0.1459999978542328,9.942000389099121 C-2.555000066757202,10.04800033569336 -9.862000465393066,10.010000228881836 -9.862000465393066,10.010000228881836z"></path></g></g><g opacity="1" transform="matrix(1,0,0,1,139.84800720214844,102.75199890136719)"><path stroke-linecap="round" stroke-linejoin="round" fill-opacity="0" stroke="rgb(167,78,49)" stroke-opacity="1" stroke-width="12.355" d=" M-80.02899932861328,-5.543000221252441 C-80.02899932861328,-5.543000221252441 -39.42399978637695,31.04199981689453 26.0049991607666,17.785999298095703 C67.88200378417969,9.246999740600586 74.81800079345703,-34.66999816894531 74.81800079345703,-34.66999816894531"></path></g><g opacity="1" transform="matrix(1,0,0,1,0,0)"><path fill="rgb(238,139,103)" fill-opacity="0.65" d=" M173.68099975585938,38.96900177001953 C162.56700134277344,35.358001708984375 137.33200073242188,31.43899917602539 111.2760009765625,53.12099838256836 C101.4000015258789,61.3390007019043 90.99199676513672,68.51300048828125 81.30699920654297,75.40799713134766 C62.577999114990234,88.13099670410156 48.1349983215332,91.19400024414062 48.1349983215332,91.19400024414062 C48.1349983215332,91.19400024414062 76.64900207519531,96.16500091552734 91.98400115966797,81.22599792480469 C106.74400329589844,66.84700012207031 131.21600341796875,55.137001037597656 137.1719970703125,53 C150.03599548339844,48.382999420166016 172.49600219726562,50.32099914550781 184.56700134277344,55.191001892089844 C196.63800048828125,60.06100082397461 224.98699951171875,61.69599914550781 224.98699951171875,61.69599914550781 C224.98699951171875,61.69599914550781 214.84800720214844,56.89500045776367 203.23399353027344,52.47800064086914 C193.16200256347656,48.5099983215332 189.27200317382812,44.01599884033203 173.68099975585938,38.96900177001953z"></path></g><g opacity="1" transform="matrix(1,0,0,1,132.94700622558594,75.04100036621094)"><path stroke-linecap="round" stroke-linejoin="round" fill-opacity="0" stroke="rgb(81,36,14)" stroke-opacity="1" stroke-width="12.355" d=" M-84.11000061035156,19.83799934387207 C-84.11000061035156,19.83799934387207 -66.2249984741211,23.66699981689453 -46.33599853515625,9.335000038146973 C-30.35700035095215,-2.309000015258789 -1.9149999618530273,-24.98200035095215 23.326000213623047,-26.176000595092773 C47.779998779296875,-27.45599937438965 58.297000885009766,-16.430999755859375 69.85800170898438,-13.3149995803833 C82.39900207519531,-9.932999610900879 88.29299926757812,-11.567999839782715 88.29299926757812,-11.567999839782715"></path></g></g></g><g style="display: block;" transform="matrix(1.0971218347549438,0.10815373808145523,-0.10815373808145523,1.0971218347549438,116.06217193603516,81.98002624511719)" opacity="1"><g opacity="1" transform="matrix(1,0,0,1,43.696998596191406,57.4379997253418)"><path fill="rgb(56,23,12)" fill-opacity="1" d=" M-40.1870002746582,0.5680000185966492 C-34.85100173950195,-5.394999980926514 -19.559999465942383,-24.507999420166016 2.000999927520752,-31.04599952697754 C25.858999252319336,-38.28099822998047 45.2859992980957,-21.416000366210938 52.09299850463867,-14.835000038146973 C59.00400161743164,-8.154000282287598 54.16899871826172,4.827000141143799 43.49300003051758,4.14300012588501 C30.97800064086914,3.3420000076293945 15.168000221252441,-12.86400032043457 -6.702000141143799,-9.045999526977539 C-15.404000282287598,-7.5269999504089355 -24.506000518798828,0.6919999718666077 -27.013999938964844,3.681999921798706 C-29.41900062561035,6.547999858856201 -34.178001403808594,10.857999801635742 -37.00899887084961,9.967000007629395 C-43.49700164794922,7.923999786376953 -41.01100158691406,1.4889999628067017 -40.1870002746582,0.5680000185966492z"></path></g><g opacity="1" transform="matrix(0.8480480909347534,-0.5299192667007446,0.5299192667007446,0.8480480909347534,220.33399963378906,15.861000061035156)"><path fill="rgb(55,23,12)" fill-opacity="1" d=" M-38.262001037597656,-7.013000011444092 C-28.038999557495117,-17.190000534057617 -14.291000366210938,-15.704000473022461 -1.2910000085830688,-12.906000137329102 C9.503999710083008,-10.581999778747559 24.101999282836914,6.005000114440918 29.100000381469727,17.593000411987305 C31.579999923706055,23.3439998626709 24.923999786376953,25.166000366210938 21.21299934387207,20.986000061035156 C13.961000442504883,12.817000389099121 6.928999900817871,4.256999969482422 -12.54699993133545,9.572999954223633 C-20.792999267578125,11.824000358581543 -30.5310001373291,13.6850004196167 -33.928001403808594,12.118000030517578 C-47.31999969482422,5.936999797821045 -39.44200134277344,-5.8379998207092285 -38.262001037597656,-7.013000011444092z"></path></g></g><g style="display: block;" transform="matrix(1.0971218347549438,0.10815373808145523,-0.10815373808145523,1.0971218347549438,101.83457946777344,103.58170318603516)" opacity="1"><g opacity="1" transform="matrix(1,0,0,1,311.7950134277344,90.37899780273438)"><path stroke-linecap="round" stroke-linejoin="round" fill-opacity="0" stroke="rgb(229,127,96)" stroke-opacity="1" stroke-width="10" d=" M-12.399999618530273,4.579999923706055 C5.701000213623047,-3.878999948501587 1.1050000190734863,-22.54800033569336 1.1050000190734863,-22.54800033569336"></path></g><g opacity="1" transform="matrix(1,0,0,1,55.44499969482422,146.88499450683594)"><path stroke-linecap="round" stroke-linejoin="round" fill-opacity="0" stroke="rgb(229,127,96)" stroke-opacity="1" stroke-width="11" d=" M-26.930999755859375,-21.17300033569336 C-26.930999755859375,-21.17300033569336 -24.14699935913086,-13.390000343322754 -9.513999938964844,-9.741999626159668 C-4.186999797821045,-8.413999557495117 3.2980000972747803,-8.276000022888184 3.2980000972747803,-8.276000022888184"></path></g><g opacity="1" transform="matrix(1.1195175647735596,0.2171863615512848,-0.20177710056304932,1.0400882959365845,-11.550811767578125,-53.30717086791992)"><g opacity="0.7000000000000001" transform="matrix(1,0,0,1,252.41200256347656,50.749000549316406)"><path fill="rgb(229,150,115)" fill-opacity="1" d=" M-47.67399978637695,-0.04500000178813934 C-47.67399978637695,-0.04500000178813934 -36.486000061035156,-31.666000366210938 5.14300012588501,-34.72999954223633 C37.87699890136719,-37.13800048828125 57.42300033569336,-11.182000160217285 57.874000549316406,1.3630000352859497 C58.32500076293945,13.906999588012695 56.28099822998047,15.47599983215332 46.404998779296875,17.55500030517578 C36.529998779296875,19.632999420166016 12.277000427246094,20.489999771118164 -3.868000030517578,25.131000518798828 C-20.013999938964844,29.77199935913086 -31.56599998474121,37.13800048828125 -41.683998107910156,31.898000717163086 C-58.32600021362305,23.280000686645508 -47.67399978637695,-0.04500000178813934 -47.67399978637695,-0.04500000178813934z"></path></g><g opacity="1" transform="matrix(1,0,0,1,242.01400756835938,88.00299835205078)"><path stroke-linecap="round" stroke-linejoin="round" fill-opacity="0" stroke="rgb(229,127,96)" stroke-opacity="1" stroke-width="11" d=" M9.00100040435791,6.980000019073486 C9.00100040435791,6.980000019073486 -3.9600000381469727,6.889999866485596 -15.741999626159668,-0.4790000021457672 C-26.687999725341797,-7.324999809265137 -26.545000076293945,-13.977999687194824 -26.545000076293945,-13.977999687194824"></path></g><g opacity="1" transform="matrix(1,0,0,1,256.7019958496094,51.72200012207031)"><path fill="rgb(255,255,255)" fill-opacity="1" d=" M-40.78300094604492,20.55500030517578 C-41.9010009765625,18.739999771118164 -41.30400085449219,18.017000198364258 -41.3129997253418,15.878000259399414 C-41.36899948120117,2.553999900817871 -30.05500030517578,-16.070999145507812 -0.5929999947547913,-21.316999435424805 C23.209999084472656,-25.555999755859375 41.900001525878906,-3.930999994277954 41.393001556396484,4.208000183105469 C40.8849983215332,12.347000122070312 29.690000534057617,5.730999946594238 0.41200000047683716,12.477999687194824 C-20.820999145507812,17.371000289916992 -31.81399917602539,21.21500015258789 -36.25199890136719,22.95800018310547 C-37.676998138427734,23.51799964904785 -39.29199981689453,22.97599983215332 -40.10200119018555,21.660999298095703 C-40.10200119018555,21.660999298095703 -40.78300094604492,20.55500030517578 -40.78300094604492,20.55500030517578z"></path><path stroke-linecap="round" stroke-linejoin="round" fill-opacity="0" stroke="rgb(140,59,31)" stroke-opacity="1" stroke-width="11.282" d=" M-40.78300094604492,20.55500030517578 C-41.9010009765625,18.739999771118164 -41.30400085449219,18.017000198364258 -41.3129997253418,15.878000259399414 C-41.36899948120117,2.553999900817871 -30.05500030517578,-16.070999145507812 -0.5929999947547913,-21.316999435424805 C23.209999084472656,-25.555999755859375 41.900001525878906,-3.930999994277954 41.393001556396484,4.208000183105469 C40.8849983215332,12.347000122070312 29.690000534057617,5.730999946594238 0.41200000047683716,12.477999687194824 C-20.820999145507812,17.371000289916992 -31.81399917602539,21.21500015258789 -36.25199890136719,22.95800018310547 C-37.676998138427734,23.51799964904785 -39.29199981689453,22.97599983215332 -40.10200119018555,21.660999298095703 C-40.10200119018555,21.660999298095703 -40.78300094604492,20.55500030517578 -40.78300094604492,20.55500030517578z"></path></g><g opacity="1" transform="matrix(1,0,0,1,0,0)"><g opacity="1" transform="matrix(1,0,0,1,261.4639892578125,54.0629997253418)"><path fill="rgb(11,17,35)" fill-opacity="1" d=" M8.354000091552734,-20.5049991607666 C5.551000118255615,-19.868000030517578 -2.2090001106262207,-16.21299934387207 -4.058000087738037,-9.184000015258789 C-6.400000095367432,-0.28200000524520874 -0.3440000116825104,6.1479997634887695 2.134000062942505,6.908999919891357 C4.611999988555908,7.671000003814697 22.618000030517578,6.111000061035156 26.3700008392334,3.687000036239624 C30.121000289916992,1.2630000114440918 32.172000885009766,-2.9070000648498535 31.145999908447266,-5.9029998779296875 C27.839000701904297,-15.557999610900879 18.410999298095703,-22.788999557495117 8.354000091552734,-20.5049991607666z"></path></g><g opacity="1" transform="matrix(1,0,0,1,245.41799926757812,57.74800109863281)"><path fill="rgb(255,255,255)" fill-opacity="1" d=" M16.72599983215332,-8.451000213623047 C17.204999923706055,-6.61299991607666 14.269000053405762,-4.235000133514404 10.168000221252441,-3.140000104904175 C6.066999912261963,-2.0460000038146973 2.3529999256134033,-2.6489999294281006 1.8739999532699585,-4.486999988555908 C1.3949999809265137,-6.324999809265137 4.330999851226807,-8.70300006866455 8.432000160217285,-9.79800033569336 C12.532999992370605,-10.892000198364258 16.246999740600586,-10.288999557495117 16.72599983215332,-8.451000213623047z"></path></g></g><g opacity="1" transform="matrix(1,0,0,1,256.7019958496094,51.72200012207031)"><path stroke-linecap="round" stroke-linejoin="round" fill-opacity="0" stroke="rgb(140,59,31)" stroke-opacity="1" stroke-width="11.282" d=" M-40.78300094604492,20.55500030517578 C-41.9010009765625,18.739999771118164 -41.30400085449219,18.017000198364258 -41.3129997253418,15.878000259399414 C-41.36899948120117,2.553999900817871 -30.05500030517578,-16.070999145507812 -0.5929999947547913,-21.316999435424805 C23.209999084472656,-25.555999755859375 41.900001525878906,-3.930999994277954 41.393001556396484,4.208000183105469 C40.8849983215332,12.347000122070312 29.690000534057617,5.730999946594238 0.41200000047683716,12.477999687194824 C-20.820999145507812,17.371000289916992 -31.81399917602539,21.21500015258789 -36.25199890136719,22.95800018310547 C-37.676998138427734,23.51799964904785 -39.29199981689453,22.97599983215332 -40.10200119018555,21.660999298095703 C-40.10200119018555,21.660999298095703 -40.78300094604492,20.55500030517578 -40.78300094604492,20.55500030517578z"></path></g></g><g opacity="1" transform="matrix(0.9988383054733276,0.04818732663989067,-0.052272647619247437,1.0835198163986206,4.7427215576171875,-11.227165222167969)"><g opacity="0.7000000000000001" transform="matrix(1,0,0,1,79.80400085449219,84.64099884033203)"><path fill="rgb(229,150,115)" fill-opacity="1" d=" M-64.01000213623047,10.861000061035156 C-64.01000213623047,10.861000061035156 -56.034000396728516,-16.36199951171875 -14.258000373840332,-31.246999740600586 C34.180999755859375,-48.50699996948242 56.43000030517578,-19.86199951171875 60.3489990234375,-8.399999618530273 C64.26699829101562,3.061000108718872 66.42400360107422,15.968999862670898 42.76100158691406,18.836999893188477 C21.073999404907227,21.465999603271484 -25.187999725341797,37.630001068115234 -38.60200119018555,43.29399871826172 C-50.94499969482422,48.50699996948242 -59.62200164794922,43.22600173950195 -63.137001037597656,32.638999938964844 C-66.42500305175781,22.733999252319336 -64.01000213623047,10.861000061035156 -64.01000213623047,10.861000061035156z"></path></g><g opacity="1" transform="matrix(1,0,0,1,126.03900146484375,104.05500030517578)"><path stroke-linecap="round" stroke-linejoin="round" fill-opacity="0" stroke="rgb(229,127,96)" stroke-opacity="1" stroke-width="11" d=" M-15.288999557495117,18.3439998626709 C-15.288999557495117,18.3439998626709 -1.434999942779541,11.333999633789062 3.5409998893737793,-0.3409999907016754 C9.027999877929688,-13.215999603271484 2.6419999599456787,-20.604000091552734 2.6419999599456787,-20.604000091552734"></path></g><g opacity="1" transform="matrix(1,0,0,1,78.4489974975586,89.31700134277344)"><path fill="rgb(255,255,255)" fill-opacity="1" d=" M-47.12900161743164,10.015000343322754 C-47.12900161743164,10.015000343322754 -40.4010009765625,-16.045000076293945 -5.396999835968018,-26.010000228881836 C25.086999893188477,-34.68899917602539 52.040000915527344,-12.901000022888184 49.97200012207031,-1.6610000133514404 C48.70199966430664,5.241000175476074 39.34299850463867,6.020999908447266 27.420000076293945,8.14900016784668 C15.496999740600586,10.277000427246094 -2.6429998874664307,14.196000099182129 -19.01300048828125,21.201000213623047 C-34.095001220703125,27.6560001373291 -38.99700164794922,31.707000732421875 -44.7859992980957,27.45199966430664 C-50.57500076293945,23.195999145507812 -47.12900161743164,10.015000343322754 -47.12900161743164,10.015000343322754z"></path><path stroke-linecap="round" stroke-linejoin="round" fill-opacity="0" stroke="rgb(140,59,31)" stroke-opacity="1" stroke-width="11.15" d=" M-47.12900161743164,10.015000343322754 C-47.12900161743164,10.015000343322754 -40.4010009765625,-16.045000076293945 -5.396999835968018,-26.010000228881836 C25.086999893188477,-34.68899917602539 52.040000915527344,-12.901000022888184 49.97200012207031,-1.6610000133514404 C48.70199966430664,5.241000175476074 39.34299850463867,6.020999908447266 27.420000076293945,8.14900016784668 C15.496999740600586,10.277000427246094 -2.6429998874664307,14.196000099182129 -19.01300048828125,21.201000213623047 C-34.095001220703125,27.6560001373291 -38.99700164794922,31.707000732421875 -44.7859992980957,27.45199966430664 C-50.57500076293945,23.195999145507812 -47.12900161743164,10.015000343322754 -47.12900161743164,10.015000343322754z"></path></g><g opacity="1" transform="matrix(1,0,0,1,0,0)"><g opacity="1" transform="matrix(1,0,0,1,85.20800018310547,91.05999755859375)"><path fill="rgb(11,17,35)" fill-opacity="1" d=" M12.866000175476074,-23.042999267578125 C9.942999839782715,-22.385000228881836 0.7009999752044678,-20.708999633789062 -1.659999966621399,-10.74899959564209 C-3.9619998931884766,-1.0379999876022339 3.6610000133514404,5.2820000648498535 6.263999938964844,6.14900016784668 C8.866000175476074,7.015999794006348 27.68000030517578,5.556000232696533 31.570999145507812,2.9560000896453857 C35.4630012512207,0.35600000619888306 37.553001403808594,-4.176000118255615 36.43899917602539,-7.4670000076293945 C32.85100173950195,-18.07200050354004 23.356000900268555,-25.40399932861328 12.866000175476074,-23.042999267578125z"></path></g><g opacity="1" transform="matrix(1,0,0,1,68.4020004272461,94.88700103759766)"><path fill="rgb(255,255,255)" fill-opacity="1" d=" M22.347999572753906,-9.701000213623047 C22.874000549316406,-7.684000015258789 19.834999084472656,-5.123000144958496 15.559000015258789,-3.9820001125335693 C11.284000396728516,-2.8410000801086426 7.390999794006348,-3.5510001182556152 6.864999771118164,-5.568999767303467 C6.339000225067139,-7.585999965667725 9.378999710083008,-10.145999908447266 13.654000282287598,-11.286999702453613 C17.929000854492188,-12.428999900817871 21.82200050354004,-11.718000411987305 22.347999572753906,-9.701000213623047z"></path></g></g><g opacity="1" transform="matrix(1,0,0,1,78.4489974975586,89.31700134277344)"><path stroke-linecap="round" stroke-linejoin="round" fill-opacity="0" stroke="rgb(140,59,31)" stroke-opacity="1" stroke-width="11.15" d=" M-47.12900161743164,10.015000343322754 C-47.12900161743164,10.015000343322754 -40.4010009765625,-16.045000076293945 -5.396999835968018,-26.010000228881836 C25.086999893188477,-34.68899917602539 52.040000915527344,-12.901000022888184 49.97200012207031,-1.6610000133514404 C48.70199966430664,5.241000175476074 39.34299850463867,6.020999908447266 27.420000076293945,8.14900016784668 C15.496999740600586,10.277000427246094 -2.6429998874664307,14.196000099182129 -19.01300048828125,21.201000213623047 C-34.095001220703125,27.6560001373291 -38.99700164794922,31.707000732421875 -44.7859992980957,27.45199966430664 C-50.57500076293945,23.195999145507812 -47.12900161743164,10.015000343322754 -47.12900161743164,10.015000343322754z"></path></g></g></g></g></g></svg>