<svg xmlns="http://www.w3.org/2000/svg" xmlns:xlink="http://www.w3.org/1999/xlink" viewBox="0 0 512 512" width="512" height="512" style="width: 100%; height: 100%; transform: translate3d(0,0,0); content-visibility: visible;" preserveAspectRatio="xMidYMid meet"><defs><clipPath id="__lottie_element_2"><rect width="512" height="512" x="0" y="0"></rect></clipPath><clipPath id="__lottie_element_4"><path d="M0,0 L512,0 L512,512 L0,512z"></path></clipPath><clipPath id="__lottie_element_8"><path d="M0,0 L512,0 L512,512 L0,512z"></path></clipPath><radialGradient id="__lottie_element_20" spreadMethod="pad" gradientUnits="userSpaceOnUse"><stop></stop><stop></stop><stop></stop></radialGradient><g id="__lottie_element_14"><g style="display: none;"><g><path></path></g></g></g><mask id="__lottie_element_14_1" mask-type="alpha"><use href="#__lottie_element_14"></use></mask><clipPath id="__lottie_element_101"><path d="M0,0 L512,0 L512,512 L0,512z"></path></clipPath><radialGradient id="__lottie_element_113" spreadMethod="pad" gradientUnits="userSpaceOnUse" cx="-24.76799964904785" cy="-65.5510025024414" r="161.40065238126962" fx="-24.76799964904785" fy="-65.5510025024414"><stop offset="0%" stop-color="rgb(255,238,221)"></stop><stop offset="50%" stop-color="rgb(246,208,176)"></stop><stop offset="100%" stop-color="rgb(236,177,132)"></stop></radialGradient><g id="__lottie_element_107"><g style="display: block;" transform="matrix(0.9572330117225647,-0.00006191435386426747,-0.000027941123335040174,0.9981929063796997,260.2750244140625,260.8725891113281)" opacity="1"><g opacity="1" transform="matrix(1,0,0,1,0,0)"><path fill="rgb(255,190,29)" fill-opacity="1" d=" M-154,-45 C-167,-54 -254,-27 -299,-29 C-344,-31 -330,200 -330,200 C-330,200 -197,259 -197,259 C-197,259 -58,227 -58,227 C-58,227 -65,148 -76,132 C-87,116 -76,98 -73,84 C-70,70 -84,49 -84,49 C-84,49 -141,-36 -154,-45z"></path></g></g></g><mask id="__lottie_element_107_1" mask-type="alpha"><use href="#__lottie_element_107"></use></mask></defs><g clip-path="url(#__lottie_element_2)"><g clip-path="url(#__lottie_element_4)" style="display: block;" transform="matrix(1,0,0,1,0,0)" opacity="1"><g clip-path="url(#__lottie_element_101)" style="display: block;" transform="matrix(1,0,0,1,0,0)" opacity="1"><g style="display: block;" transform="matrix(1.6967692375183105,0.0020137671381235123,-0.0020927395671606064,1.763310194015503,48.84732437133789,1.9154744148254395)" opacity="1"><g opacity="1" transform="matrix(1,0,0,1,137.052001953125,142.9810028076172)"><path fill="url(#__lottie_element_113)" fill-opacity="1" d=" M102.60199737548828,4.428750038146973 C95.85037231445312,-12.103187561035156 105.72274780273438,-32.419498443603516 105.7040023803711,-52.61643600463867 C105.44556427001953,-66.86018371582031 102.91950225830078,-87.9651870727539 90.18412780761719,-102.7795639038086 C77.77418518066406,-117.19306182861328 58.70487594604492,-124.82749938964844 28.734874725341797,-123.74849700927734 C-27.695125579833984,-121.71749877929688 -52.37562561035156,-88.70594024658203 -60.777626037597656,-74.7619400024414 C-69.17762756347656,-60.817935943603516 -75.22512817382812,-19.524250030517578 -75.22512817382812,-19.524250030517578 C-75.22512817382812,-19.524250030517578 -121.55662536621094,28.06624984741211 -82.22012329101562,76.0616226196289 C-62.938751220703125,99.55774688720703 -45.01762390136719,106.22869110107422 -24.85356330871582,111.78437805175781 C14.564187049865723,122.91468811035156 63.89649963378906,119.27474975585938 92.06925201416016,100.6473159790039 C112.52543640136719,87.10206604003906 118.83431243896484,69.30162811279297 118.38725280761719,52.12037658691406 C117.67250061035156,28.269311904907227 108.1849365234375,18.5310001373291 102.60199737548828,4.428750038146973z"></path><path stroke-linecap="butt" stroke-linejoin="miter" fill-opacity="0" stroke-miterlimit="10" stroke="rgb(180,100,62)" stroke-opacity="1" stroke-width="10" d=" M102.60199737548828,4.428750038146973 C95.85037231445312,-12.103187561035156 105.72274780273438,-32.419498443603516 105.7040023803711,-52.61643600463867 C105.44556427001953,-66.86018371582031 102.91950225830078,-87.9651870727539 90.18412780761719,-102.7795639038086 C77.77418518066406,-117.19306182861328 58.70487594604492,-124.82749938964844 28.734874725341797,-123.74849700927734 C-27.695125579833984,-121.71749877929688 -52.37562561035156,-88.70594024658203 -60.777626037597656,-74.7619400024414 C-69.17762756347656,-60.817935943603516 -75.22512817382812,-19.524250030517578 -75.22512817382812,-19.524250030517578 C-75.22512817382812,-19.524250030517578 -121.55662536621094,28.06624984741211 -82.22012329101562,76.0616226196289 C-62.938751220703125,99.55774688720703 -45.01762390136719,106.22869110107422 -24.85356330871582,111.78437805175781 C14.564187049865723,122.91468811035156 63.89649963378906,119.27474975585938 92.06925201416016,100.6473159790039 C112.52543640136719,87.10206604003906 118.83431243896484,69.30162811279297 118.38725280761719,52.12037658691406 C117.67250061035156,28.269311904907227 108.1849365234375,18.5310001373291 102.60199737548828,4.428750038146973z"></path></g><g opacity="1" transform="matrix(1,0,0,1,193.9510040283203,143.83999633789062)"><path fill="rgb(220,153,105)" fill-opacity="1" d=" M7.955249786376953,-112.93033599853516 C19.736249923706055,-110.63733673095703 30.757165908813477,-98.64225006103516 33.915164947509766,-76.53724670410156 C37.72916793823242,-49.83824920654297 23.361083984375,-14.782999992370605 26.086082458496094,0.4729999899864197 C28.809083938598633,15.729999542236328 38.13666534423828,13.099833488464355 41.578582763671875,44.42475128173828 C44.23249816894531,68.61799621582031 37.70783233642578,83.9609146118164 22.774499893188477,93.28683471679688 C8.901749610900879,101.94833374023438 2.2050833702087402,104.64341735839844 -11.46774959564209,107.32575225830078 C-28.308584213256836,110.65791320800781 -47.712581634521484,111.79683685302734 -47.712581634521484,111.79683685302734 C-47.712581634521484,111.79683685302734 2.614333391189575,116.04783630371094 32.03733444213867,97.52183532714844 C65.54533386230469,76.42383575439453 59.09608459472656,37.5525016784668 53.738250732421875,27.425416946411133 C42.199249267578125,5.513750076293945 39.71049880981445,6.924083232879639 38.722251892089844,-7.516499996185303 C37.55141830444336,-26.36541748046875 63.0850830078125,-102.98574829101562 7.955249786376953,-113.47441864013672"></path></g></g><g style="display: none;"><g><path stroke-linecap="round" stroke-linejoin="round" fill-opacity="0"></path></g></g><g style="display: block;" transform="matrix(1.6967692375183105,0.0020137671381235123,-0.0020927395671606064,1.763310194015503,135.4232635498047,232.21339416503906)" opacity="1"><g opacity="1" transform="matrix(1,0,0,1.0717999935150146,0,-4.595489501953125)"><g opacity="1" transform="matrix(1,0,0,1,0,0)"><g opacity="1" transform="matrix(0.9997913837432861,0.02042507193982601,-0.02042507193982601,0.9997913837432861,1.0334625244140625,-1.1866836547851562)"><g opacity="1" transform="matrix(1,0,0,1,84.30000305175781,62.268001556396484)"><path stroke-linecap="round" stroke-linejoin="round" fill-opacity="0" stroke="rgb(203,119,84)" stroke-opacity="1" stroke-width="8" d=" M4.823999881744385,0.8799999952316284 C1.8009999990463257,0.09399999678134918 -1.2740000486373901,-0.40299999713897705 -3.115999937057495,-0.6620000004768372 C-4.173999786376953,-0.8109999895095825 -4.823999881744385,-0.8799999952316284 -4.823999881744385,-0.8799999952316284"></path></g><g opacity="1" transform="matrix(1,0,0,1,47.32500076293945,30.402999877929688)"><path stroke-linecap="round" stroke-linejoin="round" fill-opacity="0" stroke="rgb(236,154,97)" stroke-opacity="1" stroke-width="8" d=" M18.548999786376953,-3.8519999980926514 C18.548999786376953,-3.8519999980926514 15.824000358581543,1.2330000400543213 10.920999526977539,2.868000030517578 C7.9710001945495605,3.8519999980926514 5.107999801635742,2.687000036239624 1.475000023841858,1.597000002861023 C-2.1579999923706055,0.5070000290870667 -6.426000118255615,-0.8550000190734863 -11.329000473022461,-1.0369999408721924 C-16.232999801635742,-1.218000054359436 -18.548999786376953,0.32600000500679016 -18.548999786376953,0.32600000500679016"></path></g><g opacity="1" transform="matrix(1,0,0,1,41.16600036621094,62.37699890136719)"><path fill="rgb(57,19,19)" fill-opacity="1" d=" M-0.8069999814033508,-3.6059999465942383 C-0.4819999933242798,-2.0269999504089355 -3.3239998817443848,-11.6899995803833 -3.8350000381469727,-10.234999656677246 C-4.250999927520752,-9.04800033569336 -5.110000133514404,-3.5999999046325684 -4.638999938964844,-1.0540000200271606 C-4.140999794006348,1.6349999904632568 -4.61299991607666,6.502999782562256 -1.9600000381469727,8.97700023651123 C-0.4729999899864197,10.36400032043457 0.19300000369548798,7.785999774932861 -0.17599999904632568,3.072999954223633 C-0.6679999828338623,-3.2130000591278076 -1.2430000305175781,-5.72599983215332 -0.8069999814033508,-3.6059999465942383z"></path></g><g opacity="1" transform="matrix(1,0,0,1,35.676998138427734,44.5890007019043)"><path stroke-linecap="round" stroke-linejoin="round" fill-opacity="0" stroke="rgb(138,68,35)" stroke-opacity="1" stroke-width="7" d=" M6.7210001945495605,23.12299919128418 C6.7210001945495605,23.12299919128418 7.495312690734863,12.755851745605469 2.0318195819854736,6.053456783294678 C-2.6794281005859375,0.2766564190387726 -11.46080207824707,-1.9311842918395996 -8.651877403259277,-9.382568359375 C-3.9259769916534424,-21.705760955810547 12.981388092041016,-10.548669815063477 14.353355407714844,-7.181291580200195"></path></g><g opacity="1" transform="matrix(1,0,0,1,49.34400177001953,88.16799926757812)"><path fill="rgb(220,125,85)" fill-opacity="1" d=" M13.97990894317627,-17.810728073120117 C13.97990894317627,-17.810728073120117 22.76190948486328,4.291182041168213 18.547908782958984,10.768181800842285 C14.625908851623535,16.798181533813477 7.280090808868408,15.421454429626465 4.711091041564941,13.945454597473145 C4.5200910568237305,13.835545539855957 2.973818063735962,13.09427261352539 2.787818193435669,12.998272895812988 C-1.4761818647384644,10.973272323608398 -7.545000076293945,-0.03372727334499359 -7.545000076293945,-0.03372727334499359 C-7.545000076293945,-0.03372727334499359 4.976545333862305,2.0458180904388428 6.4325456619262695,-0.12418181449174881 C7.78354549407959,-2.1381819248199463 6.633727073669434,-12.137182235717773 6.633727073669434,-12.137182235717773 C6.633727073669434,-12.137182235717773 13.97990894317627,-17.810728073120117 13.97990894317627,-17.810728073120117z"></path></g><g opacity="1" transform="matrix(1,0,0,1,47.66999816894531,81.10199737548828)"><path stroke-linecap="round" stroke-linejoin="round" fill-opacity="0" stroke="rgb(137,68,34)" stroke-opacity="1" stroke-width="7" d=" M19.035459518432617,-14.374489784240723 C19.035459518432617,-14.374489784240723 13.797460556030273,-12.770489692687988 10.397459983825684,-5.90248966217041 C8.28246021270752,-1.6294896602630615 16.064762115478516,7.85109806060791 9.526762962341309,11.392098426818848 C4.04476261138916,14.361098289489746 -3.5336246490478516,8.282126426696777 -5.801301956176758,4.850050926208496 C-9.965015411376953,-1.3767281770706177 -7.005219459533691,-12.993268966674805 -7.005219459533691,-12.993268966674805"></path></g></g></g></g></g><g style="display: block;" transform="matrix(1.1327999830245972,0,0,1.1327999830245972,186.99520874023438,452.1280212402344)" opacity="1"><g opacity="1" transform="matrix(1,0,0,1,0,0)"><path fill="rgb(224,141,30)" fill-opacity="1" d=" M-80,91 C-88.82599639892578,89.57599639892578 -96.71299743652344,91.61399841308594 -103.58599853515625,95.48600006103516 C-111.9260025024414,100.18499755859375 -118.77200317382812,107.58599853515625 -123.98799896240234,114.78399658203125 C-131.84100341796875,125.62200164794922 -136,136 -136,136 C-136,136 -151.23800659179688,175.65699768066406 -124,192 C-104,204 -82.95600128173828,198.05499267578125 -67,185 C-56,176 -43.82400131225586,153.99000549316406 -45,134 C-45.52399826049805,125.08599853515625 -46.5989990234375,115.0719985961914 -51.97100067138672,106.84200286865234 C-56.84400177001953,99.3759994506836 -65.25499725341797,93.37799835205078 -80,91z"></path><path stroke-linecap="butt" stroke-linejoin="miter" fill-opacity="0" stroke-miterlimit="4" stroke="rgb(128,67,19)" stroke-opacity="1" stroke-width="16" d=" M-80,91 C-88.82599639892578,89.57599639892578 -96.71299743652344,91.61399841308594 -103.58599853515625,95.48600006103516 C-111.9260025024414,100.18499755859375 -118.77200317382812,107.58599853515625 -123.98799896240234,114.78399658203125 C-131.84100341796875,125.62200164794922 -136,136 -136,136 C-136,136 -151.23800659179688,175.65699768066406 -124,192 C-104,204 -82.95600128173828,198.05499267578125 -67,185 C-56,176 -43.82400131225586,153.99000549316406 -45,134 C-45.52399826049805,125.08599853515625 -46.5989990234375,115.0719985961914 -51.97100067138672,106.84200286865234 C-56.84400177001953,99.3759994506836 -65.25499725341797,93.37799835205078 -80,91z"></path></g></g><g style="display: block;" transform="matrix(1.8155430555343628,0.002154730958864093,-0.0022392317187041044,1.8867419958114624,62.012855529785156,118.79804992675781)" opacity="1"><g opacity="1" transform="matrix(1,0,0,1,58.27899932861328,39.854000091552734)"><path fill="rgb(215,135,82)" fill-opacity="1" d=" M10.017999649047852,21.6200008392334 C27.851999282836914,19.707000732421875 27.763999938964844,-0.44699999690055847 23.136999130249023,-11.444999694824219 C17.70400047302246,-24.357999801635742 4.827000141143799,-23.694000244140625 -13.869999885559082,-15.628999710083008 C-27.319000244140625,-9.82699966430664 -31.735000610351562,-2.625 -31.158000946044922,3.7709999084472656 C-30.670000076293945,9.1899995803833 -19.41200065612793,24.777000427246094 10.017999649047852,21.6200008392334z"></path></g><g opacity="1" transform="matrix(1,0,0,1,85.58300018310547,32.527000427246094)"><path stroke-linecap="round" stroke-linejoin="round" fill-opacity="0" stroke="rgb(215,135,82)" stroke-opacity="1" stroke-width="5.67" d=" M8.993000030517578,-2.2780001163482666 C8.993000030517578,-2.2780001163482666 -3.6040000915527344,1.8020000457763672 -3.6040000915527344,1.8020000457763672"></path></g><g opacity="1" transform="matrix(1,0,0,1,78.11699676513672,15.53499984741211)"><path stroke-linecap="round" stroke-linejoin="round" fill-opacity="0" stroke="rgb(215,135,82)" stroke-opacity="1" stroke-width="5.67" d=" M3.9260001182556152,-7.406000137329102 C3.9260001182556152,-7.406000137329102 -0.6010000109672546,-4.822000026702881 -2.1530001163482666,-2.6419999599456787 C-6.192999839782715,3.0309998989105225 -6.020999908447266,6.255000114440918 -6.020999908447266,6.255000114440918"></path></g><g opacity="1" transform="matrix(1,0,0,1,77.85900115966797,59.04499816894531)"><path stroke-linecap="round" stroke-linejoin="round" fill-opacity="0" stroke="rgb(215,135,82)" stroke-opacity="1" stroke-width="5.67" d=" M10.79800033569336,5.36299991607666 C10.79800033569336,5.36299991607666 -4.376999855041504,-2.059000015258789 -4.376999855041504,-2.059000015258789"></path></g><g opacity="1" transform="matrix(1,0,0,1,47.20199966430664,42.15800094604492)"><path fill="rgb(184,179,232)" fill-opacity="1" d=" M1.1440000534057617,-24.358999252319336 C-26.961000442504883,-23.136999130249023 -57.070640563964844,-14.757861137390137 -48.166805267333984,4.184166431427002 C-42.06769561767578,17.161500930786133 2.2060000896453857,27.107999801635742 21.292999267578125,17.69499969482422 C26.375,15.189000129699707 28.413000106811523,9.949999809265137 29.520000457763672,0.7269999980926514 C30.034000396728516,-3.563999891281128 29.336000442504883,-9.807000160217285 26.68899917602539,-14.562000274658203 C22.847999572753906,-21.461999893188477 19.39299964904785,-25.152000427246094 1.1440000534057617,-24.358999252319336z"></path><path stroke-linecap="butt" stroke-linejoin="miter" fill-opacity="0" stroke-miterlimit="10" stroke="rgb(110,52,24)" stroke-opacity="1" stroke-width="5" d=" M1.1440000534057617,-24.358999252319336 C-26.961000442504883,-23.136999130249023 -57.070640563964844,-14.757861137390137 -48.166805267333984,4.184166431427002 C-42.06769561767578,17.161500930786133 2.2060000896453857,27.107999801635742 21.292999267578125,17.69499969482422 C26.375,15.189000129699707 28.413000106811523,9.949999809265137 29.520000457763672,0.7269999980926514 C30.034000396728516,-3.563999891281128 29.336000442504883,-9.807000160217285 26.68899917602539,-14.562000274658203 C22.847999572753906,-21.461999893188477 19.39299964904785,-25.152000427246094 1.1440000534057617,-24.358999252319336z"></path></g><g opacity="1" transform="matrix(1,0,0,1,45.72100067138672,41.676998138427734)"><path fill="rgb(255,255,255)" fill-opacity="1" d=" M-10.560999870300293,-18.562000274658203 C-28.399999618530273,-15.798999786376953 -42.786109924316406,-6.314388751983643 -39.69511032104492,1.8436111211776733 C-36.15311050415039,11.190610885620117 4.555722236633301,18.41755485534668 18.0587215423584,10.836555480957031 C28.079721450805664,5.209555625915527 23.541000366210938,-8.857999801635742 19.792999267578125,-14.65999984741211 C13.501999855041504,-24.39900016784668 1.680999994277954,-20.45800018310547 -10.560999870300293,-18.562000274658203z"></path></g><g opacity="1" transform="matrix(1.0849230289459229,0,0,0.8157863616943359,-13.172107696533203,8.084455490112305)"><g opacity="1" transform="matrix(1,0,0,1,28.649999618530273,39.06800079345703)"><path fill="rgb(31,28,44)" fill-opacity="1" d=" M-1.4509999752044678,0.8709999918937683 C-1.8279999494552612,7.828999996185303 -5.583000183105469,13.27299976348877 -9.83899974822998,13.031000137329102 C-14.093999862670898,12.788999557495117 -17.238000869750977,6.952000141143799 -16.861000061035156,-0.006000000052154064 C-16.483999252319336,-6.9629998207092285 -12.727999687194824,-12.407999992370605 -8.472999572753906,-12.166000366210938 C-4.2179999351501465,-11.923999786376953 -1.0740000009536743,-6.086999893188477 -1.4509999752044678,0.8709999918937683z"></path></g><g opacity="1" transform="matrix(1,0,0,1,34.95500183105469,39.24800109863281)"><path fill="rgb(255,255,255)" fill-opacity="1" d=" M-4.071000099182129,0.6850000023841858 C-4.203000068664551,3.111999988555908 -6.223999977111816,4.9710001945495605 -8.586999893188477,4.836999893188477 C-10.949000358581543,4.703000068664551 -12.758000373840332,2.625999927520752 -12.62600040435791,0.1979999989271164 C-12.494000434875488,-2.2290000915527344 -10.472000122070312,-4.086999893188477 -8.109999656677246,-3.9519999027252197 C-5.748000144958496,-3.818000078201294 -3.940000057220459,-1.7419999837875366 -4.071000099182129,0.6850000023841858z"></path></g><g opacity="1" transform="matrix(1,0,0,1,22.398000717163086,39.266998291015625)"><path fill="rgb(255,255,255)" fill-opacity="1" d=" M-6.632999897003174,0.746999979019165 C-6.664000034332275,2.3459999561309814 -7.579999923706055,3.624000072479248 -8.678000450134277,3.6019999980926514 C-9.776000022888184,3.5810000896453857 -10.640999794006348,2.2679998874664307 -10.609999656677246,0.6690000295639038 C-10.57800006866455,-0.9290000200271606 -9.663000106811523,-2.2079999446868896 -8.5649995803833,-2.186000108718872 C-7.466000080108643,-2.1649999618530273 -6.6020002365112305,-0.8510000109672546 -6.632999897003174,0.746999979019165z"></path></g></g><g opacity="1" transform="matrix(1,0,0,1,47.20199966430664,42.15800094604492)"><path stroke-linecap="butt" stroke-linejoin="miter" fill-opacity="0" stroke-miterlimit="10" stroke="rgb(142,63,25)" stroke-opacity="1" stroke-width="7" d=" M1.1440000534057617,-24.358999252319336 C-26.961000442504883,-23.136999130249023 -57.070640563964844,-14.757861137390137 -48.166805267333984,4.184166431427002 C-42.06769561767578,17.161500930786133 2.2060000896453857,27.107999801635742 21.292999267578125,17.69499969482422 C26.375,15.189000129699707 28.413000106811523,9.949999809265137 29.520000457763672,0.7269999980926514 C30.034000396728516,-3.563999891281128 29.336000442504883,-9.807000160217285 26.68899917602539,-14.562000274658203 C22.847999572753906,-21.461999893188477 19.39299964904785,-25.152000427246094 1.1440000534057617,-24.358999252319336z"></path></g></g><g style="display: block;" transform="matrix(1.9745811223983765,0.0023434811737388372,-0.0023020135704427958,1.9396412372589111,163.05593872070312,103.62751007080078)" opacity="1"><g opacity="1" transform="matrix(1,0,0,1,79.51000213623047,80.16799926757812)"><path stroke-linecap="round" stroke-linejoin="round" fill-opacity="0" stroke="rgb(228,141,105)" stroke-opacity="0.87" stroke-width="8" d=" M8.470999717712402,6.583000183105469 C8.470999717712402,6.583000183105469 -5.10099983215332,-2.934000015258789 -5.10099983215332,-2.934000015258789"></path></g><g opacity="1" transform="matrix(1,0,0,1,81.65599822998047,19.19499969482422)"><path stroke-linecap="round" stroke-linejoin="round" fill-opacity="0" stroke="rgb(228,141,105)" stroke-opacity="0.87" stroke-width="8" d=" M5.14900016784668,-5.020999908447266 C5.14900016784668,-5.020999908447266 -2.575000047683716,2.187999963760376 -3.3469998836517334,2.9609999656677246 C-4.119999885559082,3.7330000400543213 -5.14900016784668,5.020999908447266 -5.14900016784668,5.020999908447266"></path></g><g opacity="1" transform="matrix(1,0,0,1,90.10900115966797,53.393001556396484)"><path stroke-linecap="round" stroke-linejoin="round" fill-opacity="0" stroke="rgb(228,141,105)" stroke-opacity="0.87" stroke-width="8" d=" M7.853000164031982,-1.0299999713897705 C7.853000164031982,-1.0299999713897705 -7.853000164031982,1.0299999713897705 -7.853000164031982,1.0299999713897705"></path></g><g opacity="1" transform="matrix(1,0,0,1,62.183998107910156,53.5359992980957)"><path fill="rgb(215,135,82)" fill-opacity="1" d=" M9.706055641174316,30.84144401550293 C27.253610610961914,28.130056381225586 29.730777740478516,-1.3769999742507935 25.290945053100586,-16.517499923706055 C20.093833923339844,-34.183998107910156 5.500500202178955,-36.99766540527344 -13.256500244140625,-25.825666427612305 C-26.749500274658203,-17.78766632080078 -31.743000030517578,-3.3489999771118164 -31.211999893188477,5.400000095367432 C-30.76300048828125,12.812000274658203 -19.747833251953125,35.39877700805664 9.706055641174316,30.84144401550293z"></path></g><g opacity="1" transform="matrix(1,0,0,1,49.125,55.34000015258789)"><path fill="rgb(184,179,232)" fill-opacity="1" d=" M10.608499526977539,-31.724388122558594 C-29.36716651916504,-31.68405532836914 -62.355499267578125,-14.322111129760742 -45.47083282470703,8.37844467163086 C-31.541000366210938,27.095500946044922 17.913000106811523,32.236778259277344 24.851165771484375,25.47916603088379 C29.92816734313965,20.57866668701172 33.89038848876953,3.547722339630127 33.29683303833008,-8.232000350952148 C32.89872360229492,-14.973111152648926 33.778221130371094,-31.739778518676758 10.608499526977539,-31.724388122558594z"></path><path stroke-linecap="butt" stroke-linejoin="miter" fill-opacity="0" stroke-miterlimit="10" stroke="rgb(141,63,25)" stroke-opacity="1" stroke-width="7" d=" M10.608499526977539,-31.724388122558594 C-29.36716651916504,-31.68405532836914 -62.355499267578125,-14.322111129760742 -45.47083282470703,8.37844467163086 C-31.541000366210938,27.095500946044922 17.913000106811523,32.236778259277344 24.851165771484375,25.47916603088379 C29.92816734313965,20.57866668701172 33.89038848876953,3.547722339630127 33.29683303833008,-8.232000350952148 C32.89872360229492,-14.973111152648926 33.778221130371094,-31.739778518676758 10.608499526977539,-31.724388122558594z"></path></g><g opacity="1" transform="matrix(1,0,0,1,48.29600143432617,53.487998962402344)"><path fill="rgb(255,255,255)" fill-opacity="1" d=" M-3.4378888607025146,-23.25316619873047 C-24.178054809570312,-22.190332412719727 -47.76499938964844,-10.831889152526855 -43.15744400024414,2.1846110820770264 C-35.308998107910156,20.76449966430664 6.359444618225098,23.257999420166016 12.754777908325195,21.87961196899414 C22.819499969482422,19.949443817138672 24.96177864074707,13.928555488586426 24.99766731262207,-4.664888858795166 C25.032611846923828,-22.924667358398438 9.390832901000977,-23.865388870239258 -3.4378888607025146,-23.25316619873047z"></path></g><g opacity="1" transform="matrix(0.8521133661270142,0,0,0.8536338806152344,-15.61304759979248,7.397678375244141)"><g opacity="1" transform="matrix(1,0,0,1,31.28499984741211,52.37900161743164)"><path fill="rgb(31,28,44)" fill-opacity="1" d=" M8.845999717712402,0.17299999296665192 C8.682000160217285,8.53600025177002 4.589000225067139,15.23799991607666 -0.296999990940094,15.142999649047852 C-5.182000160217285,15.04699993133545 -9.010000228881836,8.190999984741211 -8.847000122070312,-0.1720000058412552 C-8.682999610900879,-8.53499984741211 -4.590000152587891,-15.23799991607666 0.29600000381469727,-15.142000198364258 C5.182000160217285,-15.045999526977539 9.010000228881836,-8.1899995803833 8.845999717712402,0.17299999296665192z"></path></g><g opacity="1" transform="matrix(1,0,0,1,40.42300033569336,51.27399826049805)"><path fill="rgb(255,255,255)" fill-opacity="1" d=" M4.910999774932861,0.09600000083446503 C4.86899995803833,2.2320001125335693 2.63700008392334,3.9200000762939453 -0.07500000298023224,3.867000102996826 C-2.7880001068115234,3.813999891281128 -4.953000068664551,2.0399999618530273 -4.910999774932861,-0.09600000083446503 C-4.86899995803833,-2.2320001125335693 -2.635999917984009,-3.9200000762939453 0.07599999755620956,-3.867000102996826 C2.7880001068115234,-3.813999891281128 4.953000068664551,-2.0399999618530273 4.910999774932861,0.09600000083446503z"></path></g><g opacity="1" transform="matrix(1,0,0,1,24.160999298095703,52.946998596191406)"><path fill="rgb(255,255,255)" fill-opacity="1" d=" M1.9889999628067017,0.039000000804662704 C1.9579999446868896,1.6380000114440918 1.0410000085830688,2.9159998893737793 -0.05700000002980232,2.8940000534057617 C-1.1549999713897705,2.872999906539917 -2.0190000534057617,1.559999942779541 -1.9880000352859497,-0.039000000804662704 C-1.9559999704360962,-1.6369999647140503 -1.0410000085830688,-2.9159998893737793 0.05700000002980232,-2.8940000534057617 C1.156000018119812,-2.872999906539917 2.0199999809265137,-1.559000015258789 1.9889999628067017,0.039000000804662704z"></path></g></g></g><g style="display: block;" transform="matrix(1.8155430555343628,0.002154730958864093,-0.0022392317187041044,1.8867419958114624,167.8140411376953,43.104347229003906)" opacity="1"><g opacity="1" transform="matrix(1,0,0,1,93.10399627685547,24.50200080871582)"><path fill="rgb(234,155,100)" fill-opacity="1" d=" M-32.13949966430664,-7.68583345413208 C-26.938499450683594,-11.871833801269531 -12.675833702087402,-20.844999313354492 3.2731666564941406,-16.58799934387207 C20.574167251586914,-11.970000267028809 27.912166595458984,9.24899959564209 20.32266616821289,10.83666706085205 C17.656999588012695,11.246333122253418 8.090332984924316,-0.843666672706604 0.5456666946411133,-3.384500026702881 C-17.062334060668945,-9.317333221435547 -24.965166091918945,1.9231666326522827 -30.44333267211914,-0.23066666722297668 C-32.90566635131836,-1.2008333206176758 -33.27450180053711,-6.771833419799805 -32.13949966430664,-7.68583345413208z"></path></g><g opacity="1" transform="matrix(1,0,0,1,90.81500244140625,19.40999984741211)"><path fill="rgb(56,30,33)" fill-opacity="1" d=" M-30.8387451171875,-6.0765814781188965 C-26.042743682861328,-10.72158145904541 -13.956278800964355,-18.484046936035156 2.314720869064331,-15.707046508789062 C19.966720581054688,-12.692046165466309 25.610000610351562,10.081999778747559 21.375,12.336999893188477 C19.400999069213867,13.387999534606934 8.627069473266602,-0.9459069967269897 0.8840697407722473,-2.7989070415496826 C-17.632930755615234,-7.229907035827637 -25.676488876342773,1.892046570777893 -30.954790115356445,1.3713023662567139 C-36.32353591918945,0.660720944404602 -31.885744094848633,-5.062581539154053 -30.8387451171875,-6.0765814781188965z"></path></g><g opacity="1" transform="matrix(1,0,0,1,39.5620002746582,21.1299991607666)"><path fill="rgb(234,155,100)" fill-opacity="1" d=" M-4.786799907684326,-2.139400005340576 C-4.786799907684326,-2.139400005340576 -4.712399959564209,-1.582800030708313 -4.414400100708008,-1.4337999820709229 C-2.899399995803833,-0.6758000254631042 -3.180999994277954,-0.656000018119812 0.4620000123977661,1.1649999618530273 C4.821000099182129,3.3450000286102295 7.546000003814697,4.616000175476074 8.635000228881836,2.072999954223633 C9.725000381469727,-0.4690000116825104 5.910999774932861,-5.554999828338623 5.910999774932861,-5.554999828338623 C5.910999774932861,-5.554999828338623 3.5280001163482666,-7.111800193786621 3.5280001163482666,-7.111800193786621 C3.5280001163482666,-7.111800193786621 -4.786799907684326,-2.139400005340576 -4.786799907684326,-2.139400005340576z"></path></g><g opacity="1" transform="matrix(1,0,0,1,25.34000015258789,12.288999557495117)"><path fill="rgb(56,30,33)" fill-opacity="1" d=" M-19.283000946044922,1.7970000505447388 C-15.605999946594238,-3.4140000343322754 -7.814000129699707,-12.857000350952148 5.914000034332275,-12.196000099182129 C20.805999755859375,-11.480999946594238 26.639999389648438,6.889999866485596 23.26799964904785,9.664999961853027 C21.695999145507812,10.958000183105469 11.478487968444824,0.6900930404663086 4.910488605499268,-0.14890697598457336 C-10.79651165008545,-2.156907081604004 -15.968000411987305,10.539999961853027 -19.993000030517578,8.003999710083008 C-21.895000457763672,6.804999828338623 -20.086000442504883,2.934999942779541 -19.283000946044922,1.7970000505447388z"></path></g></g><g style="display: none;"><g><path></path></g><g><path stroke-linecap="round" stroke-linejoin="round" fill-opacity="0"></path></g><g><path></path></g><g><path stroke-linecap="round" stroke-linejoin="round" fill-opacity="0"></path></g><g><path></path></g><g><path stroke-linecap="round" stroke-linejoin="round" fill-opacity="0"></path></g><g><path></path></g><g><path stroke-linecap="round" stroke-linejoin="round" fill-opacity="0"></path></g><g><path></path></g><g><path stroke-linecap="round" stroke-linejoin="round" fill-opacity="0"></path></g><g><path></path></g><g><path stroke-linecap="round" stroke-linejoin="round" fill-opacity="0"></path></g><g><path></path></g><g><path stroke-linecap="round" stroke-linejoin="round" fill-opacity="0"></path></g><g><path></path></g><g><path stroke-linecap="round" stroke-linejoin="round" fill-opacity="0"></path></g><g><path></path></g><g><path stroke-linecap="round" stroke-linejoin="round" fill-opacity="0"></path></g></g><g style="display: none;"><g><path></path></g><g><path stroke-linecap="round" stroke-linejoin="round" fill-opacity="0"></path></g><g><path></path></g><g><path stroke-linecap="round" stroke-linejoin="round" fill-opacity="0"></path></g><g><path></path></g><g><path stroke-linecap="round" stroke-linejoin="round" fill-opacity="0"></path></g><g><path></path></g><g><path stroke-linecap="round" stroke-linejoin="round" fill-opacity="0"></path></g><g><path></path></g><g><path stroke-linecap="round" stroke-linejoin="round" fill-opacity="0"></path></g><g><path></path></g><g><path stroke-linecap="round" stroke-linejoin="round" fill-opacity="0"></path></g><g><path></path></g><g><path stroke-linecap="round" stroke-linejoin="round" fill-opacity="0"></path></g><g><path></path></g><g><path stroke-linecap="round" stroke-linejoin="round" fill-opacity="0"></path></g><g><path></path></g><g><path stroke-linecap="round" stroke-linejoin="round" fill-opacity="0"></path></g></g><g style="display: block;" transform="matrix(1.782576322555542,-0.00011529782204888761,-0.000052033065003342927,1.8588653802871704,388.4263916015625,347.23126220703125)" opacity="1"><g opacity="1" transform="matrix(1,0,0,1,0,0)"><path stroke-linecap="round" stroke-linejoin="miter" fill-opacity="0" stroke-miterlimit="4" stroke="rgb(131,123,107)" stroke-opacity="0" stroke-width="6" d=" M-97.5,-25 C-97.5,-25 -94.5,-26 -101,-28.5 C-107.5,-31 -109,-33 -109,-33"></path></g></g><g style="display: none;"><g><path></path><path stroke-linecap="butt" stroke-linejoin="miter" fill-opacity="0" stroke-miterlimit="4"></path></g></g><g style="display: none;"><g><path></path><path stroke-linecap="butt" stroke-linejoin="miter" fill-opacity="0" stroke-miterlimit="4"></path></g></g><g style="display: none;"><g><path></path><path stroke-linecap="butt" stroke-linejoin="miter" fill-opacity="0" stroke-miterlimit="4"></path></g></g><g style="display: none;"><g><path></path><path stroke-linecap="round" stroke-linejoin="round" fill-opacity="0"></path></g></g><g style="display: none;"><g><path stroke-linecap="round" stroke-linejoin="round" fill-opacity="0"></path></g></g><g style="display: none;"><g><path></path><path stroke-linecap="butt" stroke-linejoin="miter" fill-opacity="0" stroke-miterlimit="4"></path></g></g><g style="display: block;" transform="matrix(0.9599999785423279,0,0,0.9599999785423279,66.8800048828125,268.4800109863281)" opacity="1"><g opacity="1" transform="matrix(1,0,0,1,0,0)"><path stroke-linecap="round" stroke-linejoin="round" fill-opacity="0" stroke="rgb(81,76,71)" stroke-opacity="1" stroke-width="13" d=" M-81,100 C-81,100 -111,106 -111,106"></path></g><g opacity="1" transform="matrix(1,0,0,1,0,0)"><path stroke-linecap="butt" stroke-linejoin="miter" fill-opacity="0" stroke-miterlimit="4" stroke="rgb(81,76,71)" stroke-opacity="1" stroke-width="13" d=" M-196,79"></path></g></g><g style="display: block;" transform="matrix(2.209136486053467,-0.00014288818056229502,-0.00006448354542953894,2.303664445877075,45.52228927612305,323.6971130371094)" opacity="1"><g opacity="1" transform="matrix(1,0,0,1,0,0)"><path fill="rgb(225,142,31)" fill-opacity="1" d=" M5.5,-7 C-1.5,-11.5 -2,-8.5 -2,-8.5 C-2,-8.5 -6.5,1 -0.5,1.5 C5.5,2 12.5,-2.5 5.5,-7z"></path><path stroke-linecap="butt" stroke-linejoin="miter" fill-opacity="0" stroke-miterlimit="4" stroke="rgb(125,60,2)" stroke-opacity="1" stroke-width="6" d=" M5.5,-7 C-1.5,-11.5 -2,-8.5 -2,-8.5 C-2,-8.5 -6.5,1 -0.5,1.5 C5.5,2 12.5,-2.5 5.5,-7z"></path></g></g><g style="display: none;"><g><path></path><path stroke-linecap="butt" stroke-linejoin="miter" fill-opacity="0" stroke-miterlimit="4"></path></g></g><g style="display: none;"><g><path></path><path stroke-linecap="butt" stroke-linejoin="miter" fill-opacity="0" stroke-miterlimit="4"></path></g></g><g style="display: none;"><g><path></path><path stroke-linecap="butt" stroke-linejoin="miter" fill-opacity="0" stroke-miterlimit="4"></path></g></g><g style="display: none;"><g><path></path><path stroke-linecap="butt" stroke-linejoin="miter" fill-opacity="0" stroke-miterlimit="4"></path></g></g><g style="display: none;"><g><path></path><path stroke-linecap="butt" stroke-linejoin="miter" fill-opacity="0" stroke-miterlimit="4"></path></g></g><g style="display: block;" transform="matrix(1.782576322555542,-0.00011529782204888761,-0.000052033065003342927,1.8588653802871704,388.4263916015625,347.23126220703125)" opacity="1"><g opacity="0.6900000000000001" transform="matrix(1,0,0,1,0,0)"><path stroke-linecap="round" stroke-linejoin="miter" fill-opacity="0" stroke-miterlimit="4" stroke="rgb(97,78,56)" stroke-opacity="0" stroke-width="6" d=" M-236.75,66.75 C-32768,-32768 -32768,-32768 -252.08399963378906,73.88999938964844 C-267.7829895019531,81.23300170898438 -266.75,80.75 -266.75,80.75"></path></g></g><g style="display: block;" transform="matrix(1.5095551013946533,0,0,1.4043749570846558,305.2390441894531,228.09011840820312)" opacity="1"><g opacity="1" transform="matrix(1,0,0,1,0,0)"><path fill="rgb(225,142,31)" fill-opacity="1" d=" M-117,62 C-122.14199829101562,59.52799987792969 -132,58 -132,65 C-132,70.0989990234375 -128,79 -120,84 C-116.35299682617188,86.27999877929688 -107.5,84 -108,76.5 C-108.5,69 -111.87300109863281,64.46499633789062 -117,62z"></path><path stroke-linecap="round" stroke-linejoin="round" fill-opacity="0" stroke="rgb(125,60,2)" stroke-opacity="1" stroke-width="9" d=" M-117,62 C-122.14199829101562,59.52799987792969 -132,58 -132,65 C-132,70.0989990234375 -128,79 -120,84 C-116.35299682617188,86.27999877929688 -107.5,84 -108,76.5 C-108.5,69 -111.87300109863281,64.46499633789062 -117,62z"></path></g></g><g style="display: block;" transform="matrix(0.60393226146698,0.7426616549491882,-0.9116706848144531,0.7413703203201294,343.4909362792969,405.3103332519531)" opacity="1"><g opacity="1" transform="matrix(1,0,0,1,0,0)"><path fill="rgb(225,142,31)" fill-opacity="1" d=" M-150,151 C-155.67300415039062,150.7899932861328 -165.27200317382812,160.26199340820312 -161,164 C-154.2220001220703,169.93099975585938 -139.81700134277344,171.875 -134,165 C-129.4219970703125,159.58999633789062 -142.91799926757812,151.26199340820312 -150,151z"></path><path stroke-linecap="butt" stroke-linejoin="miter" fill-opacity="0" stroke-miterlimit="4" stroke="rgb(125,60,2)" stroke-opacity="1" stroke-width="11" d=" M-150,151 C-155.67300415039062,150.7899932861328 -165.27200317382812,160.26199340820312 -161,164 C-154.2220001220703,169.93099975585938 -139.81700134277344,171.875 -134,165 C-129.4219970703125,159.58999633789062 -142.91799926757812,151.26199340820312 -150,151z"></path></g></g><g style="display: block;" mask="url(#__lottie_element_107_1)"><g transform="matrix(0.9862642288208008,0.29807570576667786,-0.31881389021873474,1.0548821687698364,207.46783447265625,292.09368896484375)" opacity="1"><g opacity="1" transform="matrix(1,0,0,1,0,0)"><path stroke-linecap="round" stroke-linejoin="round" fill-opacity="0" stroke="rgb(104,99,93)" stroke-opacity="1" stroke-width="13" d=" M-98,116 C-98,116 -144,154 -144,154"></path></g></g></g><g style="display: block;" transform="matrix(0.9954362511634827,-0.09542879462242126,0.09542879462242126,0.9954362511634827,249.09800720214844,383.1593017578125)" opacity="1"><g opacity="1" transform="matrix(1,0,0,1,0,0)"><path fill="rgb(68,29,10)" fill-opacity="1" d=" M-93.5,142.5 C-104.61699676513672,137.5590057373047 -143.5,143.5 -151.5,149.5 C-159.5,155.5 -195,205 -195,205 C-195,205 -205.5,227 -209,233 C-210.39300537109375,235.38800048828125 -209.9219970703125,241.45700073242188 -205.69200134277344,244.86000061035156 C-202.27099609375,247.61199951171875 -199,248 -194,248 C-188.61500549316406,248 -173,224.5 -161,226.5 C-149,228.5 -136,224.5 -136,224.5 C-135,226 -153,229 -144,240.5 C-140.1020050048828,245.4810028076172 -114.5,231 -109.5,227 C-104.5,223 -101,211 -101,211 C-101,211 -86,209 -84,202 C-82,195 -90,187.5 -101,182.5 C-112,177.5 -139,179 -139,175 C-139,171 -127,164 -115,163 C-103,162 -90.06400299072266,170.822998046875 -82,168 C-72,164.5 -80,148.5 -93.5,142.5z"></path></g></g></g><g clip-path="url(#__lottie_element_8)" style="display: none;"><g style="display: none;"><g><path fill="url(#__lottie_element_20)"></path><path stroke-linecap="butt" stroke-linejoin="miter" fill-opacity="0" stroke-miterlimit="10"></path></g><g><path></path></g></g><g style="display: none;"><g><path stroke-linecap="round" stroke-linejoin="round" fill-opacity="0"></path></g></g><g style="display: none;"><g><g><g><g><path stroke-linecap="round" stroke-linejoin="round" fill-opacity="0"></path></g><g><path stroke-linecap="round" stroke-linejoin="round" fill-opacity="0"></path></g><g><path></path></g><g><path stroke-linecap="round" stroke-linejoin="round" fill-opacity="0"></path></g><g><path></path></g><g><path stroke-linecap="round" stroke-linejoin="round" fill-opacity="0"></path></g></g></g></g></g><g style="display: none;"><g><path></path><path stroke-linecap="butt" stroke-linejoin="miter" fill-opacity="0" stroke-miterlimit="4"></path></g></g><g style="display: none;"><g><path></path></g><g><path stroke-linecap="round" stroke-linejoin="round" fill-opacity="0"></path></g><g><path stroke-linecap="round" stroke-linejoin="round" fill-opacity="0"></path></g><g><path stroke-linecap="round" stroke-linejoin="round" fill-opacity="0"></path></g><g><path></path><path stroke-linecap="butt" stroke-linejoin="miter" fill-opacity="0" stroke-miterlimit="10"></path></g><g><path></path></g><g><g><path></path></g><g><path></path></g><g><path></path></g></g><g><path stroke-linecap="butt" stroke-linejoin="miter" fill-opacity="0" stroke-miterlimit="10"></path></g></g><g style="display: none;"><g><path stroke-linecap="round" stroke-linejoin="round" fill-opacity="0"></path></g><g><path stroke-linecap="round" stroke-linejoin="round" fill-opacity="0"></path></g><g><path stroke-linecap="round" stroke-linejoin="round" fill-opacity="0"></path></g><g><path></path></g><g><path></path><path stroke-linecap="butt" stroke-linejoin="miter" fill-opacity="0" stroke-miterlimit="10"></path></g><g><path></path></g><g><g><path></path></g><g><path></path></g><g><path></path></g></g></g><g style="display: none;"><g><path></path></g><g><path></path></g><g><path></path></g><g><path></path></g></g><g style="display: none;"><g><path></path></g><g><path stroke-linecap="round" stroke-linejoin="round" fill-opacity="0"></path></g><g><path></path></g><g><path stroke-linecap="round" stroke-linejoin="round" fill-opacity="0"></path></g><g><path></path></g><g><path stroke-linecap="round" stroke-linejoin="round" fill-opacity="0"></path></g><g><path></path></g><g><path stroke-linecap="round" stroke-linejoin="round" fill-opacity="0"></path></g><g><path></path></g><g><path stroke-linecap="round" stroke-linejoin="round" fill-opacity="0"></path></g><g><path></path></g><g><path stroke-linecap="round" stroke-linejoin="round" fill-opacity="0"></path></g><g><path></path></g><g><path stroke-linecap="round" stroke-linejoin="round" fill-opacity="0"></path></g><g><path></path></g><g><path stroke-linecap="round" stroke-linejoin="round" fill-opacity="0"></path></g><g><path></path></g><g><path stroke-linecap="round" stroke-linejoin="round" fill-opacity="0"></path></g></g><g style="display: none;"><g><path></path></g><g><path stroke-linecap="round" stroke-linejoin="round" fill-opacity="0"></path></g><g><path></path></g><g><path stroke-linecap="round" stroke-linejoin="round" fill-opacity="0"></path></g><g><path></path></g><g><path stroke-linecap="round" stroke-linejoin="round" fill-opacity="0"></path></g><g><path></path></g><g><path stroke-linecap="round" stroke-linejoin="round" fill-opacity="0"></path></g><g><path></path></g><g><path stroke-linecap="round" stroke-linejoin="round" fill-opacity="0"></path></g><g><path></path></g><g><path stroke-linecap="round" stroke-linejoin="round" fill-opacity="0"></path></g><g><path></path></g><g><path stroke-linecap="round" stroke-linejoin="round" fill-opacity="0"></path></g><g><path></path></g><g><path stroke-linecap="round" stroke-linejoin="round" fill-opacity="0"></path></g><g><path></path></g><g><path stroke-linecap="round" stroke-linejoin="round" fill-opacity="0"></path></g></g><g style="display: none;"><g><path stroke-linecap="round" stroke-linejoin="miter" fill-opacity="0" stroke-miterlimit="4"></path></g></g><g style="display: none;"><g><path></path><path stroke-linecap="butt" stroke-linejoin="miter" fill-opacity="0" stroke-miterlimit="4"></path></g></g><g style="display: none;"><g><path></path><path stroke-linecap="butt" stroke-linejoin="miter" fill-opacity="0" stroke-miterlimit="4"></path></g></g><g style="display: none;"><g><path></path><path stroke-linecap="butt" stroke-linejoin="miter" fill-opacity="0" stroke-miterlimit="4"></path></g></g><g style="display: none;"><g><path></path><path stroke-linecap="round" stroke-linejoin="round" fill-opacity="0"></path></g></g><g style="display: none;"><g><path stroke-linecap="round" stroke-linejoin="round" fill-opacity="0"></path></g></g><g style="display: none;"><g><path></path><path stroke-linecap="butt" stroke-linejoin="miter" fill-opacity="0" stroke-miterlimit="4"></path></g></g><g style="display: none;"><g><path stroke-linecap="round" stroke-linejoin="round" fill-opacity="0"></path></g><g><path stroke-linecap="butt" stroke-linejoin="miter" fill-opacity="0" stroke-miterlimit="4"></path></g></g><g style="display: none;"><g><path></path><path stroke-linecap="butt" stroke-linejoin="miter" fill-opacity="0" stroke-miterlimit="4"></path></g></g><g style="display: none;"><g><path></path><path stroke-linecap="butt" stroke-linejoin="miter" fill-opacity="0" stroke-miterlimit="4"></path></g></g><g style="display: none;"><g><path></path><path stroke-linecap="butt" stroke-linejoin="miter" fill-opacity="0" stroke-miterlimit="4"></path></g></g><g style="display: none;"><g><path></path><path stroke-linecap="butt" stroke-linejoin="miter" fill-opacity="0" stroke-miterlimit="4"></path></g></g><g style="display: none;"><g><path></path><path stroke-linecap="butt" stroke-linejoin="miter" fill-opacity="0" stroke-miterlimit="4"></path></g></g><g style="display: none;"><g><path></path><path stroke-linecap="butt" stroke-linejoin="miter" fill-opacity="0" stroke-miterlimit="4"></path></g></g><g style="display: none;"><g><path stroke-linecap="round" stroke-linejoin="miter" fill-opacity="0" stroke-miterlimit="4"></path></g></g><g style="display: none;"><g><path></path><path stroke-linecap="round" stroke-linejoin="round" fill-opacity="0"></path></g></g><g style="display: none;"><g><path></path><path stroke-linecap="butt" stroke-linejoin="miter" fill-opacity="0" stroke-miterlimit="4"></path></g></g><g style="display: none;" mask="url(#__lottie_element_14_1)"><g><g><path stroke-linecap="round" stroke-linejoin="round" fill-opacity="0"></path></g></g></g><g style="display: none;"><g><path></path></g></g></g></g></g></svg>