<svg xmlns="http://www.w3.org/2000/svg" xmlns:xlink="http://www.w3.org/1999/xlink" viewBox="0 0 512 512" width="512" height="512" style="width: 100%; height: 100%; transform: translate3d(0,0,0); content-visibility: visible;" preserveAspectRatio="xMidYMid meet"><defs><clipPath id="__lottie_element_2"><rect width="512" height="512" x="0" y="0"></rect></clipPath><radialGradient id="__lottie_element_30" spreadMethod="pad" gradientUnits="userSpaceOnUse" cx="-72.20099639892578" cy="-168.72000122070312" r="315.96290937827996" fx="-72.20099639892578" fy="-168.72000122070312"><stop offset="0%" stop-color="rgb(65,183,250)"></stop><stop offset="52%" stop-color="rgb(45,147,228)"></stop><stop offset="100%" stop-color="rgb(25,111,207)"></stop></radialGradient><radialGradient id="__lottie_element_31" spreadMethod="pad" gradientUnits="userSpaceOnUse" cx="-59.417999267578125" cy="-84.66899871826172" r="234.4049512759196" fx="-59.417999267578125" fy="-84.66899871826172"><stop offset="0%" stop-color="rgb(136,232,243)"></stop><stop offset="50%" stop-color="rgb(90,192,228)"></stop><stop offset="100%" stop-color="rgb(44,152,214)"></stop></radialGradient></defs><g clip-path="url(#__lottie_element_2)"><g style="display: block;" transform="matrix(1,0,0,1,13.96600341796875,44.53498840332031)" opacity="1"><g opacity="1" transform="matrix(1,0,0.01745506562292576,1,-3.660675048828125,0)"><g opacity="1" transform="matrix(1,0,0,1,241.5919952392578,217.7830047607422)"><path fill="url(#__lottie_element_30)" fill-opacity="1" d=" M-168.15199279785156,-117.55799865722656 C-135.8800048828125,-154.19700622558594 -99.7020034790039,-190.47300720214844 16.368000030517578,-190.47300720214844 C132.43800354003906,-190.47300720214844 181.54400634765625,-92.26100158691406 197.91299438476562,-26.785999298095703 C214.28199768066406,38.689998626708984 212.60400390625,158.10800170898438 31.249000549316406,172.61599731445312 C-191.96200561523438,190.47300720214844 -205.35400390625,65.4749984741211 -209.8179931640625,10.416000366210938 C-214.28199768066406,-44.641998291015625 -190.468994140625,-92.22100067138672 -168.15199279785156,-117.55799865722656z"></path><path stroke-linecap="butt" stroke-linejoin="miter" fill-opacity="0" stroke-miterlimit="10" stroke="rgb(12,81,163)" stroke-opacity="1" stroke-width="10.924" d=" M-168.15199279785156,-117.55799865722656 C-135.8800048828125,-154.19700622558594 -99.7020034790039,-190.47300720214844 16.368000030517578,-190.47300720214844 C132.43800354003906,-190.47300720214844 181.54400634765625,-92.26100158691406 197.91299438476562,-26.785999298095703 C214.28199768066406,38.689998626708984 212.60400390625,158.10800170898438 31.249000549316406,172.61599731445312 C-191.96200561523438,190.47300720214844 -205.35400390625,65.4749984741211 -209.8179931640625,10.416000366210938 C-214.28199768066406,-44.641998291015625 -190.468994140625,-92.22100067138672 -168.15199279785156,-117.55799865722656z"></path></g><g opacity="1" transform="matrix(1,0,0,1,231.0469970703125,194.45799255371094)"><path fill="url(#__lottie_element_31)" fill-opacity="1" d=" M-142.24400329589844,-92.72599792480469 C-114.56800079345703,-123.41400146484375 -90.51899719238281,-154.67799377441406 9.020999908447266,-154.67799377441406 C108.56099700927734,-154.67799377441406 153.61399841308594,-73.44599914550781 167.65199279785156,-18.606000900268555 C181.69000244140625,36.23500061035156 180.55299377441406,131.57000732421875 25.024999618530273,143.7220001220703 C-166.3979949951172,158.6790008544922 -176.10299682617188,61.28900146484375 -179.93099975585938,15.17300033569336 C-183.75999450683594,-30.94300079345703 -161.3820037841797,-71.50399780273438 -142.24400329589844,-92.72599792480469z"></path></g><g opacity="1" transform="matrix(1,0,0,1,313.0199890136719,309.052001953125)"><path stroke-linecap="round" stroke-linejoin="round" fill-opacity="0" stroke="rgb(11,78,158)" stroke-opacity="0.38" stroke-width="10" d=" M4.464000225067139,-29.761999130249023 C4.464000225067139,-29.761999130249023 4.464000225067139,-11.904000282287598 0,-1.4880000352859497 C-4.464000225067139,8.928999900817871 -1.9839999675750732,11.407999992370605 0.4959999918937683,15.871999740600586 C2.9760000705718994,20.336000442504883 2.9760000705718994,26.785999298095703 2.9760000705718994,29.761999130249023"></path></g><g opacity="1" transform="matrix(1,0,0,1,351.7099914550781,194.96600341796875)"><path stroke-linecap="round" stroke-linejoin="round" fill-opacity="0" stroke="rgb(11,78,158)" stroke-opacity="0.41000000000000003" stroke-width="11" d=" M-17.85700035095215,40.67399978637695 C-17.85700035095215,40.67399978637695 2.9760000705718994,13.888999938964844 4.464000225067139,-3.9679999351501465 C5.952000141143799,-21.825000762939453 3.4719998836517334,-26.288999557495117 6.447999954223633,-30.256999969482422 C9.423999786376953,-34.22600173950195 17.85700035095215,-40.67399978637695 17.85700035095215,-40.67399978637695"></path></g><g opacity="1" transform="matrix(1,0,0,1,94.27300262451172,119.07499694824219)"><path stroke-linecap="round" stroke-linejoin="round" fill-opacity="0" stroke="rgb(11,78,158)" stroke-opacity="0.45" stroke-width="11" d=" M9.920999526977539,-20.83300018310547 C9.920999526977539,-20.83300018310547 11.904999732971191,-13.392999649047852 6.945000171661377,-3.9679999351501465 C1.9850000143051147,5.455999851226807 -4.960999965667725,11.409000396728516 -4.960999965667725,11.409000396728516 C-4.960999965667725,11.409000396728516 -11.904999732971191,20.83300018310547 -11.904999732971191,20.83300018310547"></path></g></g></g><g style="display: block;" transform="matrix(1.035789966583252,0,0,1.035789966583252,121.1795883178711,40.49818420410156)" opacity="1"><g opacity="1" transform="matrix(1,0,0,1,128.42100524902344,118.49099731445312)"><path stroke-linecap="round" stroke-linejoin="round" fill-opacity="0" stroke="rgb(52,129,198)" stroke-opacity="1" stroke-width="6.372" d=" M-3.315000057220459,-20.701000213623047 C-3.315000057220459,-20.701000213623047 -9.107999801635742,-6.692999839782715 -2.2820000648498535,6.145999908447266 C1.3990000486373901,13.071000099182129 9.107999801635742,20.701000213623047 9.107999801635742,20.701000213623047"></path></g><g opacity="1" transform="matrix(1,0,0,1,166.93800354003906,107.69400024414062)"><path fill="rgb(210,192,226)" fill-opacity="1" d=" M-37.59400177001953,-15.343999862670898 C-37.59400177001953,-15.343999862670898 4.129000186920166,-26.632999420166016 11.324999809265137,-28.628999710083008 C18.520000457763672,-30.625999450683594 32.358001708984375,-21.97599983215332 36.46200180053711,-2.631999969482422 C40.154998779296875,14.777999877929688 21.20199966430664,30.625999450683594 -7.311999797821045,28.42300033569336 C-35.82600021362305,26.2189998626709 -40.154998779296875,0.6140000224113464 -40.020999908447266,-4.480999946594238 C-39.88800048828125,-9.576000213623047 -37.59400177001953,-15.343999862670898 -37.59400177001953,-15.343999862670898z"></path><path stroke-linecap="round" stroke-linejoin="round" fill-opacity="0" stroke="rgb(51,84,135)" stroke-opacity="1" stroke-width="8.305" d=" M-37.59400177001953,-15.343999862670898 C-37.59400177001953,-15.343999862670898 4.129000186920166,-26.632999420166016 11.324999809265137,-28.628999710083008 C18.520000457763672,-30.625999450683594 32.358001708984375,-21.97599983215332 36.46200180053711,-2.631999969482422 C40.154998779296875,14.777999877929688 21.20199966430664,30.625999450683594 -7.311999797821045,28.42300033569336 C-35.82600021362305,26.2189998626709 -40.154998779296875,0.6140000224113464 -40.020999908447266,-4.480999946594238 C-39.88800048828125,-9.576000213623047 -37.59400177001953,-15.343999862670898 -37.59400177001953,-15.343999862670898z"></path></g><g opacity="1" transform="matrix(1,0,0,1,164.52099609375,106.57599639892578)"><path fill="rgb(255,255,255)" fill-opacity="1" d=" M-29.773000717163086,-11.527000427246094 C-29.773000717163086,-11.527000427246094 2.2679998874664307,-22.615999221801758 8.277000427246094,-22.46299934387207 C16.5049991607666,-22.253999710083008 28.507999420166016,-16.023000717163086 29.351999282836914,-2.11899995803833 C30.033000946044922,9.093999862670898 18.402999877929688,24.05900001525879 -4.551000118255615,22.285999298095703 C-27.5049991607666,20.511999130249023 -32.130001068115234,2.2660000324249268 -32.02299880981445,-1.8359999656677246 C-31.916000366210938,-5.938000202178955 -29.773000717163086,-11.527000427246094 -29.773000717163086,-11.527000427246094z"></path></g><g opacity="1" transform="matrix(1,0,0,1,51.13600158691406,78.14900207519531)"><path fill="rgb(210,192,226)" fill-opacity="1" d=" M2.8299999237060547,-28.13599967956543 C-7.271999835968018,-33.16600036621094 -19.665000915527344,-29.198999404907227 -24.746000289916992,-19.12299919128418 C-28.864999771118164,-10.95300006866455 -32.395999908447266,0.9229999780654907 -24.392000198364258,11.618000030517578 C-8.265000343322754,33.16600036621094 19.777999877929688,21.19700050354004 26.281999588012695,11.949999809265137 C26.486000061035156,11.66100025177002 26.68000030517578,11.368000030517578 26.864999771118164,11.074999809265137 C32.395999908447266,2.316999912261963 29.788000106811523,-9.295999526977539 21.354999542236328,-15.312000274658203 C14.010000228881836,-20.55299949645996 4.4039998054504395,-27.344999313354492 2.9070000648498535,-28.097000122070312 C2.881999969482422,-28.110000610351562 2.8570001125335693,-28.12299919128418 2.8299999237060547,-28.13599967956543z"></path><path stroke-linecap="round" stroke-linejoin="round" fill-opacity="0" stroke="rgb(51,84,135)" stroke-opacity="1" stroke-width="7.496" d=" M2.8299999237060547,-28.13599967956543 C-7.271999835968018,-33.16600036621094 -19.665000915527344,-29.198999404907227 -24.746000289916992,-19.12299919128418 C-28.864999771118164,-10.95300006866455 -32.395999908447266,0.9229999780654907 -24.392000198364258,11.618000030517578 C-8.265000343322754,33.16600036621094 19.777999877929688,21.19700050354004 26.281999588012695,11.949999809265137 C26.486000061035156,11.66100025177002 26.68000030517578,11.368000030517578 26.864999771118164,11.074999809265137 C32.395999908447266,2.316999912261963 29.788000106811523,-9.295999526977539 21.354999542236328,-15.312000274658203 C14.010000228881836,-20.55299949645996 4.4039998054504395,-27.344999313354492 2.9070000648498535,-28.097000122070312 C2.881999969482422,-28.110000610351562 2.8570001125335693,-28.12299919128418 2.8299999237060547,-28.13599967956543z"></path></g><g opacity="1" transform="matrix(1,0,0,1,54.0099983215332,74.03299713134766)"><path fill="rgb(255,255,255)" fill-opacity="1" d=" M1.5709999799728394,-19.632999420166016 C-5.60099983215332,-23.20400047302246 -14.39900016784668,-20.38800048828125 -18.006000518798828,-13.234000205993652 C-20.930999755859375,-7.434000015258789 -22.562000274658203,0.31299999356269836 -16.878999710083008,7.906000137329102 C-5.429999828338623,23.20400047302246 13.602999687194824,15.390000343322754 18.22100067138672,8.824999809265137 C18.364999771118164,8.619999885559082 18.503000259399414,8.413000106811523 18.635000228881836,8.204999923706055 C22.562000274658203,1.9869999885559082 20.709999084472656,-6.257999897003174 14.722999572753906,-10.529000282287598 C9.508000373840332,-14.25 2.688999891281128,-19.07200050354004 1.6260000467300415,-19.606000900268555 C1.6080000400543213,-19.61400032043457 1.590000033378601,-19.624000549316406 1.5709999799728394,-19.632999420166016z"></path></g><g opacity="1" transform="matrix(1,0,0,1,38.4010009765625,74.63700103759766)"><path fill="rgb(37,33,48)" fill-opacity="1" d=" M8.76200008392334,0.2290000021457672 C8.633000373840332,5.163000106811523 4.604000091552734,9.0600004196167 -0.23399999737739563,8.934000015258789 C-5.072999954223633,8.807000160217285 -8.890999794006348,4.703999996185303 -8.76200008392334,-0.23000000417232513 C-8.633000373840332,-5.164000034332275 -4.604000091552734,-9.0600004196167 0.23399999737739563,-8.934000015258789 C5.072999954223633,-8.807000160217285 8.890999794006348,-4.704999923706055 8.76200008392334,0.2290000021457672z"></path></g><g opacity="1" transform="matrix(1,0,0,1,0,0)"><path fill="rgb(255,255,255)" fill-opacity="1" d=" M33.41999816894531,67.39700317382812 C28.48699951171875,66.12799835205078 29.159000396728516,70.18800354003906 29.159000396728516,70.18800354003906 C29.159000396728516,70.18800354003906 33.86800003051758,76.02400207519531 36.33399963378906,73.23300170898438 C38.79999923706055,70.44200134277344 36.409000396728516,68.16600036621094 33.41999816894531,67.39700317382812z"></path></g><g opacity="1" transform="matrix(1,0,0,1,66.88899993896484,55.58599853515625)"><path stroke-linecap="round" stroke-linejoin="round" fill-opacity="0" stroke="rgb(27,129,204)" stroke-opacity="1" stroke-width="10.014" d=" M-32.70399856567383,-30.551000595092773 C-32.70399856567383,-30.551000595092773 -26.680999755859375,-21.452999114990234 -10.083999633789062,-9.52400016784668 C6.51200008392334,2.4059998989105225 22.992000579833984,18.802000045776367 26.03700065612793,22.075000762939453 C26.03700065612793,22.075000762939453 29.08300018310547,25.347000122070312 29.08300018310547,25.347000122070312 C29.08300018310547,25.347000122070312 32.70399856567383,30.551000595092773 32.70399856567383,30.551000595092773"></path></g><g opacity="1" transform="matrix(1,0,0,1,165.20799255371094,77.0999984741211)"><path stroke-linecap="round" stroke-linejoin="round" fill-opacity="0" stroke="rgb(27,129,204)" stroke-opacity="1" stroke-width="11.413" d=" M-52.05099868774414,19.06100082397461 C-52.05099868774414,19.06100082397461 -8.553999900817871,5.49399995803833 9.133999824523926,0.23800000548362732 C26.820999145507812,-5.017000198364258 43.840999603271484,-12.739999771118164 46.05400085449219,-13.5 C48.268001556396484,-14.258999824523926 52.04999923706055,-19.06100082397461 52.04999923706055,-19.06100082397461"></path></g><g opacity="1" transform="matrix(1,0,0,1,69.6510009765625,104.85299682617188)"><path stroke-linecap="round" stroke-linejoin="round" fill-opacity="0" stroke="rgb(52,129,198)" stroke-opacity="1" stroke-width="6.372" d=" M14.880999565124512,-3.0999999046325684 C14.880999565124512,-3.0999999046325684 11.15999984741211,-6.076000213623047 8.928000450134277,-4.340000152587891 C6.696000099182129,-2.6040000915527344 2.7269999980926514,1.1160000562667847 -2.2330000400543213,3.5959999561309814 C-7.192999839782715,6.076000213623047 -14.880999565124512,4.0920000076293945 -14.880999565124512,4.0920000076293945"></path></g><g opacity="0.38" transform="matrix(1,0,0,1,128.30499267578125,60.99700164794922)"><path stroke-linecap="round" stroke-linejoin="round" fill-opacity="0" stroke="rgb(11,78,158)" stroke-opacity="1" stroke-width="8.527" d=" M-31.215999603271484,-5.133999824523926 C-31.215999603271484,-5.133999824523926 -26.871000289916992,-0.6299999952316284 -22.261999130249023,4.960999965667725 C-18.4689998626709,9.562000274658203 -18.281999588012695,9.961000442504883 -15.305000305175781,9.46500015258789 C-12.329000473022461,8.968999862670898 1.062999963760376,3.513000011444092 4.534999847412109,2.7690000534057617 C8.008000373840332,2.0250000953674316 12.223999977111816,1.281000018119812 12.223999977111816,1.281000018119812"></path></g><g opacity="1" transform="matrix(1,0,0,1,173.20700073242188,113.54900360107422)"><path fill="rgb(37,33,48)" fill-opacity="1" d=" M11.720000267028809,0.3070000112056732 C11.572999954223633,5.934999942779541 6.205999851226807,10.359999656677246 -0.26600000262260437,10.1899995803833 C-6.738999843597412,10.020999908447266 -11.866999626159668,5.321000099182129 -11.718999862670898,-0.3070000112056732 C-11.571999549865723,-5.934999942779541 -6.204999923706055,-10.359999656677246 0.2669999897480011,-10.1899995803833 C6.739999771118164,-10.020999908447266 11.866999626159668,-5.321000099182129 11.720000267028809,0.3070000112056732z"></path></g><g opacity="1" transform="matrix(1,0,0,1,163.1840057373047,108.27300262451172)"><path fill="rgb(255,255,255)" fill-opacity="1" d=" M5.769999980926514,0.1509999930858612 C5.697000026702881,2.921999931335449 3.055000066757202,5.10099983215332 -0.13199999928474426,5.017000198364258 C-3.319000005722046,4.934000015258789 -5.8429999351501465,2.619999885559082 -5.770999908447266,-0.1509999930858612 C-5.697999954223633,-2.921999931335449 -3.055999994277954,-5.10099983215332 0.13099999725818634,-5.017000198364258 C3.318000078201294,-4.934000015258789 5.8429999351501465,-2.619999885559082 5.769999980926514,0.1509999930858612z"></path></g></g><g style="display: block;" transform="matrix(1,0,0,1,111.99199676513672,125.53598022460938)" opacity="1"><g opacity="1" transform="matrix(1,0,0,1,161.40699768066406,77.18000030517578)"><path fill="rgb(22,13,53)" fill-opacity="1" d=" M-50.21900177001953,-28.624000549316406 C-48.8380012512207,-29.320999145507812 -46.56800079345703,-30.79199981689453 -42.27399826049805,-27.540000915527344 C-38.9010009765625,-24.985000610351562 -29.253000259399414,-18.60300064086914 -23.591999053955078,-16.69700050354004 C-15.861000061035156,-14.095000267028809 3.0360000133514404,-9.107999801635742 9.477999687194824,-2.6019999980926514 C15.920000076293945,3.9030001163482666 24.724000930786133,17.131000518798828 35.03099822998047,13.227999687194824 C45.3390007019043,9.324000358581543 32.84600067138672,-5.5929999351501465 33.0989990234375,-9.541000366210938 C33.52799987792969,-16.263999938964844 38.89699935913086,-17.347999572753906 41.472999572753906,-16.69700050354004 C44.04999923706055,-16.047000885009766 38.25199890136719,-11.493000030517578 45.3390007019043,-1.7350000143051147 C52.42499923706055,8.02299976348877 53.069000244140625,24.28700065612793 36.31999969482422,27.538999557495117 C19.56999969482422,30.79199981689453 13.772000312805176,8.673999786376953 -1.6890000104904175,2.819000005722046 C-17.149999618530273,-3.0360000133514404 -37.69900131225586,-9.059000015258789 -45.42900085449219,-14.262999534606934 C-49.38399887084961,-16.926000595092773 -51.316001892089844,-19.929000854492188 -52.25899887084961,-22.226999282836914 C-53.069000244140625,-24.198999404907227 -52.53900146484375,-27.236000061035156 -50.64799880981445,-28.190000534057617 C-50.64799880981445,-28.190000534057617 -50.21900177001953,-28.624000549316406 -50.21900177001953,-28.624000549316406z"></path><path stroke-linecap="butt" stroke-linejoin="miter" fill-opacity="0" stroke-miterlimit="10" stroke="rgb(9,27,38)" stroke-opacity="1" stroke-width="2.731" d=" M-50.21900177001953,-28.624000549316406 C-48.8380012512207,-29.320999145507812 -46.56800079345703,-30.79199981689453 -42.27399826049805,-27.540000915527344 C-38.9010009765625,-24.985000610351562 -29.253000259399414,-18.60300064086914 -23.591999053955078,-16.69700050354004 C-15.861000061035156,-14.095000267028809 3.0360000133514404,-9.107999801635742 9.477999687194824,-2.6019999980926514 C15.920000076293945,3.9030001163482666 24.724000930786133,17.131000518798828 35.03099822998047,13.227999687194824 C45.3390007019043,9.324000358581543 32.84600067138672,-5.5929999351501465 33.0989990234375,-9.541000366210938 C33.52799987792969,-16.263999938964844 38.89699935913086,-17.347999572753906 41.472999572753906,-16.69700050354004 C44.04999923706055,-16.047000885009766 38.25199890136719,-11.493000030517578 45.3390007019043,-1.7350000143051147 C52.42499923706055,8.02299976348877 53.069000244140625,24.28700065612793 36.31999969482422,27.538999557495117 C19.56999969482422,30.79199981689453 13.772000312805176,8.673999786376953 -1.6890000104904175,2.819000005722046 C-17.149999618530273,-3.0360000133514404 -37.69900131225586,-9.059000015258789 -45.42900085449219,-14.262999534606934 C-49.38399887084961,-16.926000595092773 -51.316001892089844,-19.929000854492188 -52.25899887084961,-22.226999282836914 C-53.069000244140625,-24.198999404907227 -52.53900146484375,-27.236000061035156 -50.64799880981445,-28.190000534057617 C-50.64799880981445,-28.190000534057617 -50.21900177001953,-28.624000549316406 -50.21900177001953,-28.624000549316406z"></path></g><g opacity="1" transform="matrix(1,0,0,1,47.4010009765625,28.121999740600586)"><path fill="rgb(22,13,53)" fill-opacity="1" d=" M-15.61400032043457,-16.39900016784668 C-15.458000183105469,-14.456999778747559 -17.746999740600586,-13.361000061035156 -19.27899932861328,-14.564000129699707 C-20.264999389648438,-15.336999893188477 -21.597000122070312,-15.977999687194824 -23.184999465942383,-15.75100040435791 C-26.71299934387207,-15.246999740600586 -32.005001068115234,-11.718999862670898 -30.493000030517578,-4.6620001792907715 C-28.981000900268555,2.3940000534057617 -24.19300079345703,4.6620001792907715 -17.892000198364258,4.6620001792907715 C-11.592000007629395,4.6620001792907715 -3.2760000228881836,3.4019999504089355 1.2599999904632568,5.418000221252441 C5.796999931335449,7.434000015258789 7.813000202178955,11.718000411987305 13.861000061035156,12.72599983215332 C19.909000396728516,13.734000205993652 30.746000289916992,10.961999893188477 34.77799987792969,11.21399974822998 C38.810001373291016,11.465999603271484 40.57400131225586,15.246000289916992 36.54199981689453,19.027000427246094 C34.44599914550781,20.992000579833984 30.242000579833984,21.295000076293945 26.965999603271484,21.042999267578125 C23.68899917602539,20.791000366210938 11.08899974822998,20.538999557495117 7.309000015258789,18.523000717163086 C3.5290000438690186,16.506999969482422 2.7730000019073486,12.222000122070312 -4.283999919891357,10.206000328063965 C-7.991000175476074,9.147000312805176 -16.631999969482422,13.229999542236328 -26.208999633789062,10.710000038146973 C-35.78499984741211,8.1899995803833 -40.57400131225586,-0.3779999911785126 -38.30500030517578,-7.939000129699707 C-36.0369987487793,-15.49899959564209 -31.753000259399414,-21.295000076293945 -23.68899917602539,-21.042999267578125 C-15.62399959564209,-20.791000366210938 -15.87600040435791,-18.774999618530273 -15.62399959564209,-16.506999969482422 C-15.619999885559082,-16.47100067138672 -15.616999626159668,-16.434999465942383 -15.61400032043457,-16.39900016784668z"></path><path stroke-linecap="butt" stroke-linejoin="miter" fill-opacity="0" stroke-miterlimit="10" stroke="rgb(9,27,38)" stroke-opacity="1" stroke-width="2.731" d=" M-15.61400032043457,-16.39900016784668 C-15.458000183105469,-14.456999778747559 -17.746999740600586,-13.361000061035156 -19.27899932861328,-14.564000129699707 C-20.264999389648438,-15.336999893188477 -21.597000122070312,-15.977999687194824 -23.184999465942383,-15.75100040435791 C-26.71299934387207,-15.246999740600586 -32.005001068115234,-11.718999862670898 -30.493000030517578,-4.6620001792907715 C-28.981000900268555,2.3940000534057617 -24.19300079345703,4.6620001792907715 -17.892000198364258,4.6620001792907715 C-11.592000007629395,4.6620001792907715 -3.2760000228881836,3.4019999504089355 1.2599999904632568,5.418000221252441 C5.796999931335449,7.434000015258789 7.813000202178955,11.718000411987305 13.861000061035156,12.72599983215332 C19.909000396728516,13.734000205993652 30.746000289916992,10.961999893188477 34.77799987792969,11.21399974822998 C38.810001373291016,11.465999603271484 40.57400131225586,15.246000289916992 36.54199981689453,19.027000427246094 C34.44599914550781,20.992000579833984 30.242000579833984,21.295000076293945 26.965999603271484,21.042999267578125 C23.68899917602539,20.791000366210938 11.08899974822998,20.538999557495117 7.309000015258789,18.523000717163086 C3.5290000438690186,16.506999969482422 2.7730000019073486,12.222000122070312 -4.283999919891357,10.206000328063965 C-7.991000175476074,9.147000312805176 -16.631999969482422,13.229999542236328 -26.208999633789062,10.710000038146973 C-35.78499984741211,8.1899995803833 -40.57400131225586,-0.3779999911785126 -38.30500030517578,-7.939000129699707 C-36.0369987487793,-15.49899959564209 -31.753000259399414,-21.295000076293945 -23.68899917602539,-21.042999267578125 C-15.62399959564209,-20.791000366210938 -15.87600040435791,-18.774999618530273 -15.62399959564209,-16.506999969482422 C-15.619999885559082,-16.47100067138672 -15.616999626159668,-16.434999465942383 -15.61400032043457,-16.39900016784668z"></path></g></g><g style="display: block;" transform="matrix(1,0,0,1,76.572998046875,157.34597778320312)" opacity="1"><g opacity="1" transform="matrix(1,0,-0.01745506562292576,1,-1.6618804931640625,0.957000732421875)"><g opacity="1" transform="matrix(1,0,0,1,111.52799987792969,83.36199951171875)"><path fill="rgb(76,14,32)" fill-opacity="1" d=" M-50.4119987487793,-56.05699920654297 C-36.52299880981445,-54.569000244140625 0.8560000061988831,-51.308998107910156 27.711000442504883,-43.361000061035156 C55.40299987792969,-35.16600036621094 74.81400299072266,-28.184999465942383 79.71299743652344,-22.059999465942383 C87.6500015258789,-12.140000343322754 85.1780014038086,37.834999084472656 80.76100158691406,44.67599868774414 C70.89399719238281,59.95899963378906 49.04100036621094,52.867000579833984 24.735000610351562,46.41899871826172 C-13.991999626159668,36.14400100708008 -39.784000396728516,27.302000045776367 -58.632999420166016,17.878000259399414 C-77.48200225830078,8.45300006866455 -77.81900024414062,8.47700023651123 -82.80899810791016,-0.9010000228881836 C-86.74600219726562,-8.300000190734863 -64.3010025024414,-57.54499816894531 -50.4119987487793,-56.05699920654297z"></path><path stroke-linecap="butt" stroke-linejoin="miter" fill-opacity="0" stroke-miterlimit="10" stroke="rgb(10,88,165)" stroke-opacity="1" stroke-width="8.527" d=" M-50.4119987487793,-56.05699920654297 C-36.52299880981445,-54.569000244140625 0.8560000061988831,-51.308998107910156 27.711000442504883,-43.361000061035156 C55.40299987792969,-35.16600036621094 74.81400299072266,-28.184999465942383 79.71299743652344,-22.059999465942383 C87.6500015258789,-12.140000343322754 85.1780014038086,37.834999084472656 80.76100158691406,44.67599868774414 C70.89399719238281,59.95899963378906 49.04100036621094,52.867000579833984 24.735000610351562,46.41899871826172 C-13.991999626159668,36.14400100708008 -39.784000396728516,27.302000045776367 -58.632999420166016,17.878000259399414 C-77.48200225830078,8.45300006866455 -77.81900024414062,8.47700023651123 -82.80899810791016,-0.9010000228881836 C-86.74600219726562,-8.300000190734863 -64.3010025024414,-57.54499816894531 -50.4119987487793,-56.05699920654297z"></path></g><g opacity="1" transform="matrix(1,0,0,1,0,0)"><path fill="rgb(30,2,11)" fill-opacity="1" d=" M107.26499938964844,56.058998107910156 C91.74700164794922,56.26300048828125 79.21800231933594,87.98699951171875 79.21800231933594,87.98699951171875 C79.21800231933594,87.98699951171875 74.01799774169922,92.02799987792969 78.58899688720703,100.84300231933594 C83.16000366210938,109.65799713134766 93.83100128173828,110.81300354003906 116.5780029296875,116.95600128173828 C139.3249969482422,123.0989990234375 173.15899658203125,132.35400390625 174.9600067138672,120.26499938964844 C176.76100158691406,108.1760025024414 179.73599243164062,81.48200225830078 156.7550048828125,71.45600128173828 C147.4530029296875,67.39800262451172 122.59200286865234,69.05999755859375 134.0469970703125,70.62200164794922 C140.343994140625,71.4800033569336 122.78299713134766,55.85499954223633 107.26499938964844,56.058998107910156z"></path></g><g opacity="1" transform="matrix(1,0,0,1,116.69200134277344,66.83200073242188)"><path fill="rgb(242,249,252)" fill-opacity="1" d=" M-50.24700164794922,-34.43899917602539 C-54.349998474121094,-33.49100112915039 -57.59199905395508,-37.6349983215332 -65.87100219726562,-26.983999252319336 C-68.64199829101562,-23.417999267578125 -77.20800018310547,-8.939000129699707 -73.3499984741211,-10.29699993133545 C-72.50800323486328,-10.593000411987305 -64.19400024414062,-16.141000747680664 -62.87099838256836,-17.132999420166016 C-61.54800033569336,-18.125 -59.143001556396484,-8.843999862670898 -56.48500061035156,-8.642999649047852 C-54.95500183105469,-8.527999877929688 -40.154998779296875,-14.03499984741211 -40.154998779296875,-14.03499984741211 C-40.154998779296875,-14.03499984741211 -37.24100112915039,-1.1069999933242798 -36.974998474121094,-1.0379999876022339 C-35.33700180053711,-0.6119999885559082 -22.601999282836914,-9.217000007629395 -22.601999282836914,-9.217000007629395 C-22.601999282836914,-9.217000007629395 -16.406999588012695,1.4529999494552612 -14.157999992370605,2.2690000534057617 C-12.913999557495117,2.7200000286102295 0.7229999899864197,-2.690999984741211 0.7229999899864197,-2.690999984741211 C0.7229999899864197,-2.690999984741211 6.013999938964844,8.220999717712402 7.00600004196167,10.53600025177002 C7.998000144958496,12.85099983215332 19.73699951171875,3.756999969482422 22.052000045776367,4.418000221252441 C24.367000579833984,5.079999923706055 24.204999923706055,15.564000129699707 26.516000747680664,18.80299949645996 C27.684999465942383,20.44099998474121 42.500999450683594,13.538999557495117 43.823001861572266,14.531000137329102 C45.145999908447266,15.52299976348877 47.60900115966797,30.018999099731445 48.34199905395508,31.20400047302246 C49.89699935913086,33.720001220703125 65.20600128173828,22.274999618530273 65.20600128173828,22.274999618530273 C65.20600128173828,22.274999618530273 72.00199890136719,38.564998626708984 74.64800262451172,38.895999908447266 C77.29299926757812,39.22700119018555 76.16699981689453,25.507999420166016 76.36699676513672,23.415000915527344 C77.74299621582031,8.960000038146973 75.75900268554688,6.686999797821045 73.68599700927734,2.796999931335449 C69.99199676513672,-4.135000228881836 58.42399978637695,-7.849999904632568 54.94900131225586,-9.307000160217285 C44.698001861572266,-13.605999946594238 16.67799949645996,-22.135000228881836 -1.2369999885559082,-26.302000045776367 C-12.961000442504883,-29.02899932861328 -24.829999923706055,-31.253000259399414 -34.75,-32.90599822998047 C-36.766998291015625,-33.24300003051758 -47.933998107910156,-34.9739990234375 -50.24700164794922,-34.43899917602539z"></path><path stroke-linecap="round" stroke-linejoin="round" fill-opacity="0" stroke="rgb(54,165,214)" stroke-opacity="1" stroke-width="5.685" d=" M-50.24700164794922,-34.43899917602539 C-54.349998474121094,-33.49100112915039 -57.59199905395508,-37.6349983215332 -65.87100219726562,-26.983999252319336 C-68.64199829101562,-23.417999267578125 -77.20800018310547,-8.939000129699707 -73.3499984741211,-10.29699993133545 C-72.50800323486328,-10.593000411987305 -64.19400024414062,-16.141000747680664 -62.87099838256836,-17.132999420166016 C-61.54800033569336,-18.125 -59.143001556396484,-8.843999862670898 -56.48500061035156,-8.642999649047852 C-54.95500183105469,-8.527999877929688 -40.154998779296875,-14.03499984741211 -40.154998779296875,-14.03499984741211 C-40.154998779296875,-14.03499984741211 -37.24100112915039,-1.1069999933242798 -36.974998474121094,-1.0379999876022339 C-35.33700180053711,-0.6119999885559082 -22.601999282836914,-9.217000007629395 -22.601999282836914,-9.217000007629395 C-22.601999282836914,-9.217000007629395 -16.406999588012695,1.4529999494552612 -14.157999992370605,2.2690000534057617 C-12.913999557495117,2.7200000286102295 0.7229999899864197,-2.690999984741211 0.7229999899864197,-2.690999984741211 C0.7229999899864197,-2.690999984741211 6.013999938964844,8.220999717712402 7.00600004196167,10.53600025177002 C7.998000144958496,12.85099983215332 19.73699951171875,3.756999969482422 22.052000045776367,4.418000221252441 C24.367000579833984,5.079999923706055 24.204999923706055,15.564000129699707 26.516000747680664,18.80299949645996 C27.684999465942383,20.44099998474121 42.500999450683594,13.538999557495117 43.823001861572266,14.531000137329102 C45.145999908447266,15.52299976348877 47.60900115966797,30.018999099731445 48.34199905395508,31.20400047302246 C49.89699935913086,33.720001220703125 65.20600128173828,22.274999618530273 65.20600128173828,22.274999618530273 C65.20600128173828,22.274999618530273 72.00199890136719,38.564998626708984 74.64800262451172,38.895999908447266 C77.29299926757812,39.22700119018555 76.16699981689453,25.507999420166016 76.36699676513672,23.415000915527344 C77.74299621582031,8.960000038146973 75.75900268554688,6.686999797821045 73.68599700927734,2.796999931335449 C69.99199676513672,-4.135000228881836 58.42399978637695,-7.849999904632568 54.94900131225586,-9.307000160217285 C44.698001861572266,-13.605999946594238 16.67799949645996,-22.135000228881836 -1.2369999885559082,-26.302000045776367 C-12.961000442504883,-29.02899932861328 -24.829999923706055,-31.253000259399414 -34.75,-32.90599822998047 C-36.766998291015625,-33.24300003051758 -47.933998107910156,-34.9739990234375 -50.24700164794922,-34.43899917602539z"></path></g><g opacity="1" transform="matrix(1,0,0,1,108.40699768066406,102.65699768066406)"><path fill="rgb(242,249,252)" fill-opacity="1" d=" M-72.8499984741211,-27.76099967956543 C-72.8499984741211,-27.76099967956543 -64.58999633789062,-30.858999252319336 -64.58999633789062,-30.858999252319336 C-64.58999633789062,-30.858999252319336 -59.770999908447266,-19.500999450683594 -59.770999908447266,-19.500999450683594 C-59.770999908447266,-19.500999450683594 -48.319000244140625,-24.690000534057617 -46.00400161743164,-25.351999282836914 C-43.689998626708984,-26.01300048828125 -37.74399948120117,-17.780000686645508 -37.74399948120117,-17.780000686645508 C-37.74399948120117,-17.780000686645508 -26.29199981689453,-24.319000244140625 -23.976999282836914,-24.319000244140625 C-21.66200065612793,-24.319000244140625 -17.68899917602539,-10.916999816894531 -17.68899917602539,-10.916999816894531 C-17.68899917602539,-10.916999816894531 -4.302999973297119,-16.077999114990234 -2.2939999103546143,-16.746999740600586 C-0.2290000021457672,-17.43600082397461 6.120999813079834,-5.460000038146973 6.120999813079834,-5.460000038146973 C6.120999813079834,-5.460000038146973 19.045000076293945,-9.86400032043457 20.07699966430664,-9.86400032043457 C20.847000122070312,-9.86400032043457 24.9689998626709,4.460000038146973 24.9689998626709,4.460000038146973 C24.9689998626709,4.460000038146973 37.03900146484375,-1.4919999837875366 39.354000091552734,-1.4919999837875366 C41.66899871826172,-1.4919999837875366 49.332000732421875,14.572999954223633 49.332000732421875,14.572999954223633 C49.332000732421875,14.572999954223633 62.53200149536133,11.805999755859375 65.50800323486328,11.475000381469727 C68.48500061035156,11.144000053405762 77.55500030517578,25.586000442504883 77.55500030517578,25.586000442504883 C77.55500030517578,25.586000442504883 76.86599731445312,31.093000411987305 70.3270034790039,32.81399917602539 C61.513999938964844,35.132999420166016 9.178999900817871,18.266000747680664 -22.81399917602539,8.593999862670898 C-43.974998474121094,2.196000099182129 -75.06199645996094,-8.60200023651123 -77.70800018310547,-16.538000106811523 C-80.35299682617188,-24.475000381469727 -72.8499984741211,-27.76099967956543 -72.8499984741211,-27.76099967956543z"></path><path stroke-linecap="round" stroke-linejoin="round" fill-opacity="0" stroke="rgb(54,165,214)" stroke-opacity="1" stroke-width="5.685" d=" M-72.8499984741211,-27.76099967956543 C-72.8499984741211,-27.76099967956543 -64.58999633789062,-30.858999252319336 -64.58999633789062,-30.858999252319336 C-64.58999633789062,-30.858999252319336 -59.770999908447266,-19.500999450683594 -59.770999908447266,-19.500999450683594 C-59.770999908447266,-19.500999450683594 -48.319000244140625,-24.690000534057617 -46.00400161743164,-25.351999282836914 C-43.689998626708984,-26.01300048828125 -37.74399948120117,-17.780000686645508 -37.74399948120117,-17.780000686645508 C-37.74399948120117,-17.780000686645508 -26.29199981689453,-24.319000244140625 -23.976999282836914,-24.319000244140625 C-21.66200065612793,-24.319000244140625 -17.68899917602539,-10.916999816894531 -17.68899917602539,-10.916999816894531 C-17.68899917602539,-10.916999816894531 -4.302999973297119,-16.077999114990234 -2.2939999103546143,-16.746999740600586 C-0.2290000021457672,-17.43600082397461 6.120999813079834,-5.460000038146973 6.120999813079834,-5.460000038146973 C6.120999813079834,-5.460000038146973 19.045000076293945,-9.86400032043457 20.07699966430664,-9.86400032043457 C20.847000122070312,-9.86400032043457 24.9689998626709,4.460000038146973 24.9689998626709,4.460000038146973 C24.9689998626709,4.460000038146973 37.03900146484375,-1.4919999837875366 39.354000091552734,-1.4919999837875366 C41.66899871826172,-1.4919999837875366 49.332000732421875,14.572999954223633 49.332000732421875,14.572999954223633 C49.332000732421875,14.572999954223633 62.53200149536133,11.805999755859375 65.50800323486328,11.475000381469727 C68.48500061035156,11.144000053405762 77.55500030517578,25.586000442504883 77.55500030517578,25.586000442504883 C77.55500030517578,25.586000442504883 76.86599731445312,31.093000411987305 70.3270034790039,32.81399917602539 C61.513999938964844,35.132999420166016 9.178999900817871,18.266000747680664 -22.81399917602539,8.593999862670898 C-43.974998474121094,2.196000099182129 -75.06199645996094,-8.60200023651123 -77.70800018310547,-16.538000106811523 C-80.35299682617188,-24.475000381469727 -72.8499984741211,-27.76099967956543 -72.8499984741211,-27.76099967956543z"></path></g><g opacity="1" transform="matrix(1,0,0,1,111.70099639892578,83.37000274658203)"><path stroke-linecap="butt" stroke-linejoin="miter" fill-opacity="0" stroke-miterlimit="10" stroke="rgb(16,103,175)" stroke-opacity="1" stroke-width="8.527" d=" M-52.132999420166016,-58.11899948120117 C-38.189998626708984,-58.95500183105469 0.3580000102519989,-52.1619987487793 27.045000076293945,-43.82400131225586 C54.72999954223633,-35.17399978637695 74.3010025024414,-31.173999786376953 81.55599975585938,-22.301000595092773 C89.54299926757812,-12.534000396728516 83.77999877929688,41.334999084472656 81.60600280761719,45.77000045776367 C73.66899871826172,61.95500183105469 48.8849983215332,53.88199996948242 24.579999923706055,47.50600051879883 C-14.14799976348877,37.34600067138672 -40.45600128173828,27.575000762939453 -59.30500030517578,18.256999969482422 C-78.15399932861328,8.937999725341797 -83.0270004272461,7.7129998207092285 -85.50499725341797,0.27900001406669617 C-87.56999969482422,-5.915999889373779 -68.50199890136719,-57.13800048828125 -52.132999420166016,-58.11899948120117z"></path></g></g><g opacity="1" transform="matrix(1,0,0,1,0,-2)"><g opacity="0.68" transform="matrix(1,0,0,1,86.93499755859375,160.6959991455078)"><path fill="rgb(27,129,204)" fill-opacity="1" d=" M-41.33700180053711,-25.52199935913086 C-38.96200180053711,-25.965999603271484 -36.45600128173828,-26.410999298095703 -32.32600021362305,-22.02199935913086 C-28.195999145507812,-17.634000778198242 -19.716999053955078,-4.868000030517578 -3.4539999961853027,-3.578000068664551 C12.807999610900879,-2.2869999408721924 20.81599998474121,-2.319999933242798 32.43199920654297,-2.578000068664551 C44.04800033569336,-2.8359999656677246 43.61199951171875,-3.0829999446868896 44.387001037597656,1.8209999799728394 C45.1609992980957,6.72599983215332 51.724998474121094,9.63700008392334 41.91600036621094,17.03700065612793 C32.57899856567383,24.079999923706055 20.746000289916992,28.378000259399414 -5.073999881744385,24.81599998474121 C-34.66899871826172,20.732999801635742 -41.37799835205078,-6.7210001945495605 -43.185001373291016,-13.432000160217285 C-44.992000579833984,-20.143999099731445 -45.20000076293945,-24.798999786376953 -41.33700180053711,-25.52199935913086z"></path></g><g opacity="1" transform="matrix(1,0,0,1,86.2959976196289,155.06700134277344)"><path stroke-linecap="round" stroke-linejoin="round" fill-opacity="0" stroke="rgb(16,103,175)" stroke-opacity="1" stroke-width="11" d=" M-40.047000885009766,-18.29199981689453 C-40.047000885009766,-18.29199981689453 -37.03300094604492,1.3450000286102295 -14.92199993133545,8.555000305175781 C14.940999984741211,18.29199981689453 40.047000885009766,8.939000129699707 40.047000885009766,8.939000129699707"></path></g></g></g><g style="display: block;" transform="matrix(1,0,0,1,28.998001098632812,305.907958984375)" opacity="1"><g opacity="1" transform="matrix(1,0,0,1,0,0)"><g opacity="1" transform="matrix(1,0,0,1,46.07899856567383,69.66799926757812)"><path fill="rgb(96,188,244)" fill-opacity="0.54" d=" M-2.249000072479248,-40.292999267578125 C3.7739999294281006,-34.61399841308594 6.998000144958496,-36.23899841308594 12.206000328063965,-31.774999618530273 C17.415000915527344,-27.309999465942383 14.560999870300293,-35.13399887084961 11.585000038146973,-24.718000411987305 C8.609000205993652,-14.300999641418457 4.888000011444092,5.044000148773193 4.888000011444092,16.20400047302246 C4.888000011444092,27.364999771118164 -1.7330000400543213,52.63399887084961 -1.7330000400543213,52.63399887084961 C-1.7330000400543213,52.63399887084961 -12.579000473022461,-34.29999923706055 -14.810999870300293,-47.69300079345703 C-17.04400062561035,-61.084999084472656 -5.48199987411499,-43.340999603271484 -2.249000072479248,-40.292999267578125z"></path></g><g opacity="1" transform="matrix(1,0,0,1,45.108001708984375,79.96900177001953)"><path stroke-linecap="round" stroke-linejoin="round" fill-opacity="0" stroke="rgb(12,81,163)" stroke-opacity="1" stroke-width="10.924" d=" M-16.79800033569336,-55.159000396728516 C-16.79800033569336,-55.159000396728516 -12.119000434875488,-30.459999084472656 -10.053999900817871,-12.906999588012695 C-8.069999694824219,3.9579999446868896 -1.277999997138977,52.659000396728516 1.3040000200271606,52.141998291015625 C4.882999897003174,51.42599868774414 1.6790000200271606,2.0969998836517334 5.2829999923706055,-7.460000038146973 C8.88599967956543,-17.01799964904785 6.889999866485596,-23.742000579833984 12.343999862670898,-27.555999755859375 C17.79800033569336,-31.3700008392334 17.308000564575195,-40.78499984741211 17.308000564575195,-40.78499984741211"></path></g></g><g opacity="1" transform="matrix(1,0,0,1,0,0)"><g opacity="1" transform="matrix(1,0,0,1,369.2669982910156,107.97000122070312)"><path fill="rgb(11,149,244)" fill-opacity="0.72" d=" M-35.125,-24.386999130249023 C-35.125,-24.386999130249023 -15.128000259399414,-32.22100067138672 -2.427999973297119,-32.99100112915039 C7.489999771118164,-33.59299850463867 31.308000564575195,-54.047000885009766 34.39799880981445,-50.54399871826172 C39.56100082397461,-44.69300079345703 15.67199993133545,-33.07500076293945 9.27400016784668,-19.569000244140625 C5.931000232696533,-12.51200008392334 4.633999824523926,-6.480999946594238 3.868000030517578,2.4560000896453857 C1.6360000371932983,28.496999740600586 -6.547999858856201,58.25899887084961 -7.291999816894531,49.33000183105469 C-8.03600025177002,40.402000427246094 -14.732999801635742,-6.4720001220703125 -14.732999801635742,-8.704999923706055 C-14.732999801635742,-10.937000274658203 -32.37200164794922,-19.569000244140625 -32.37200164794922,-19.569000244140625"></path></g><g opacity="1" transform="matrix(1,0,0,1,372.34600830078125,116.27899932861328)"><path stroke-linecap="round" stroke-linejoin="round" fill-opacity="0" stroke="rgb(12,81,163)" stroke-opacity="1" stroke-width="10.924" d=" M35.79399871826172,-56.10100173950195 C35.79399871826172,-56.10100173950195 6.189000129699707,-23.29400062561035 3.575000047683716,-5.624000072479248 C1.7660000324249268,6.605000019073486 0,56.10100173950195 -8.260000228881836,54.0359992980957 C-13.793000221252441,52.65299987792969 -12.045999526977539,11.70199966430664 -12.562999725341797,-2.23799991607666 C-13.045000076293945,-15.265000343322754 -14.628000259399414,-11.529999732971191 -17.725000381469727,-15.144000053405762 C-22.53700065612793,-20.757999420166016 -35.79399871826172,-28.30900001525879 -35.79399871826172,-28.30900001525879"></path></g></g></g><g style="display: block;" transform="matrix(1,0,0,1,4.4449920654296875,8.290008544921875)" opacity="1"><g opacity="0" transform="matrix(0.5699999928474426,0,0,0.5699999928474426,20.7549991607666,172.93299865722656)"><path fill="rgb(242,249,252)" fill-opacity="1" d=" M19.082000732421875,8.218000411987305 C15.904999732971191,15.595000267028809 4.785999774932861,17.895999908447266 -5.752999782562256,13.357000350952148 C-16.291000366210938,8.819000244140625 -22.259000778198242,-0.8399999737739563 -19.08099937438965,-8.218000411987305 C-15.904000282287598,-15.595000267028809 -4.784999847412109,-17.895999908447266 5.754000186920166,-13.357000350952148 C16.29199981689453,-8.817999839782715 22.259000778198242,0.8410000205039978 19.082000732421875,8.218000411987305z"></path><path stroke-linecap="round" stroke-linejoin="round" fill-opacity="0" stroke="rgb(67,187,239)" stroke-opacity="1" stroke-width="11" d=" M19.082000732421875,8.218000411987305 C15.904999732971191,15.595000267028809 4.785999774932861,17.895999908447266 -5.752999782562256,13.357000350952148 C-16.291000366210938,8.819000244140625 -22.259000778198242,-0.8399999737739563 -19.08099937438965,-8.218000411987305 C-15.904000282287598,-15.595000267028809 -4.784999847412109,-17.895999908447266 5.754000186920166,-13.357000350952148 C16.29199981689453,-8.817999839782715 22.259000778198242,0.8410000205039978 19.082000732421875,8.218000411987305z"></path></g><g opacity="1" transform="matrix(1.0372599363327026,0,0,1.0372599363327026,250.1739959716797,160.8260040283203)"><path fill="rgb(242,249,252)" fill-opacity="1" d=" M20.1299991607666,8.670000076293945 C16.812000274658203,16.37299919128418 5.109000205993652,18.736000061035156 -6.007999897003174,13.947999954223633 C-17.125999450683594,9.15999984741211 -23.447999954223633,-0.9660000205039978 -20.1299991607666,-8.670000076293945 C-16.812999725341797,-16.37299919128418 -5.110000133514404,-18.736000061035156 6.007999897003174,-13.947999954223633 C17.125,-9.15999984741211 23.447999954223633,0.9670000076293945 20.1299991607666,8.670000076293945z"></path><path stroke-linecap="round" stroke-linejoin="round" fill-opacity="0" stroke="rgb(67,187,239)" stroke-opacity="1" stroke-width="12.49" d=" M20.1299991607666,8.670000076293945 C16.812000274658203,16.37299919128418 5.109000205993652,18.736000061035156 -6.007999897003174,13.947999954223633 C-17.125999450683594,9.15999984741211 -23.447999954223633,-0.9660000205039978 -20.1299991607666,-8.670000076293945 C-16.812999725341797,-16.37299919128418 -5.110000133514404,-18.736000061035156 6.007999897003174,-13.947999954223633 C17.125,-9.15999984741211 23.447999954223633,0.9670000076293945 20.1299991607666,8.670000076293945z"></path></g><g opacity="0.02" transform="matrix(0.4556499719619751,0,0,0.7625900506973267,32.52199935913086,44.52399826049805)"><path fill="rgb(242,249,252)" fill-opacity="1" d=" M23.67300033569336,10.001999855041504 C20.976999282836914,16.770000457763672 -3.3940000534057617,14.256999969482422 -13.460000038146973,9.920999526977539 C-23.524999618530273,5.585999965667725 -29.349000930786133,-3.3510000705718994 -26.466999053955078,-10.041999816894531 C-23.586000442504883,-16.732999801635742 -9.626999855041504,-16.770999908447266 0.43799999356269836,-12.435999870300293 C10.503999710083008,-8.100000381469727 29.349000930786133,-4.245999813079834 23.67300033569336,10.001999855041504z"></path><path stroke-linecap="round" stroke-linejoin="round" fill-opacity="0" stroke="rgb(67,187,239)" stroke-opacity="1" stroke-width="10.569" d=" M23.67300033569336,10.001999855041504 C20.976999282836914,16.770000457763672 -3.3940000534057617,14.256999969482422 -13.460000038146973,9.920999526977539 C-23.524999618530273,5.585999965667725 -29.349000930786133,-3.3510000705718994 -26.466999053955078,-10.041999816894531 C-23.586000442504883,-16.732999801635742 -9.626999855041504,-16.770999908447266 0.43799999356269836,-12.435999870300293 C10.503999710083008,-8.100000381469727 29.349000930786133,-4.245999813079834 23.67300033569336,10.001999855041504z"></path></g><g opacity="0" transform="matrix(0.48217999935150146,0,0,0.48217999935150146,482.90399169921875,174.37600708007812)"><path fill="rgb(242,249,252)" fill-opacity="1" d=" M21.06800079345703,10.086000442504883 C18.06599998474121,17.090999603271484 -0.12200000137090683,16.868000030517578 -10.119999885559082,12.562000274658203 C-20.118999481201172,8.255000114440918 -25.780000686645508,-0.9089999794960022 -22.764999389648438,-7.908999919891357 C-19.750999450683594,-14.907999992370605 -9.20199966430664,-17.090999603271484 0.7960000038146973,-12.78499984741211 C10.795000076293945,-8.477999687194824 25.780000686645508,-0.9079999923706055 21.06800079345703,10.086000442504883z"></path><path stroke-linecap="round" stroke-linejoin="round" fill-opacity="0" stroke="rgb(67,187,239)" stroke-opacity="1" stroke-width="9.608" d=" M21.06800079345703,10.086000442504883 C18.06599998474121,17.090999603271484 -0.12200000137090683,16.868000030517578 -10.119999885559082,12.562000274658203 C-20.118999481201172,8.255000114440918 -25.780000686645508,-0.9089999794960022 -22.764999389648438,-7.908999919891357 C-19.750999450683594,-14.907999992370605 -9.20199966430664,-17.090999603271484 0.7960000038146973,-12.78499984741211 C10.795000076293945,-8.477999687194824 25.780000686645508,-0.9079999923706055 21.06800079345703,10.086000442504883z"></path></g><g opacity="1" transform="matrix(1,0,0,1,389.35400390625,370.5270080566406)"><path fill="rgb(242,249,252)" fill-opacity="1" d=" M22.017000198364258,8.154999732971191 C18.35099983215332,16.66699981689453 5.520999908447266,19.322999954223633 -6.638000011444092,14.086000442504883 C-18.79800033569336,8.848999977111816 -25.683000564575195,-2.296999931335449 -22.017000198364258,-10.8100004196167 C-18.35099983215332,-19.32200050354004 -5.499000072479248,-16.8439998626709 6.660999774932861,-11.607000350952148 C18.820999145507812,-6.369999885559082 25.683000564575195,-0.3569999933242798 22.017000198364258,8.154999732971191z"></path><path stroke-linecap="round" stroke-linejoin="round" fill-opacity="0" stroke="rgb(67,187,239)" stroke-opacity="1" stroke-width="9.608" d=" M22.017000198364258,8.154999732971191 C18.35099983215332,16.66699981689453 5.520999908447266,19.322999954223633 -6.638000011444092,14.086000442504883 C-18.79800033569336,8.848999977111816 -25.683000564575195,-2.296999931335449 -22.017000198364258,-10.8100004196167 C-18.35099983215332,-19.32200050354004 -5.499000072479248,-16.8439998626709 6.660999774932861,-11.607000350952148 C18.820999145507812,-6.369999885559082 25.683000564575195,-0.3569999933242798 22.017000198364258,8.154999732971191z"></path></g><g opacity="1" transform="matrix(1.3700000047683716,0,0,1.3700000047683716,256.98199462890625,32.698001861572266)"><path fill="rgb(242,249,252)" fill-opacity="1" d=" M12.274999618530273,5.2870001792907715 C10.904999732971191,8.467000007629395 4.298999786376953,8.678000450134277 -2.4800000190734863,5.758999824523926 C-9.258999824523926,2.8389999866485596 -13.644000053405762,-2.1059999465942383 -12.27400016784668,-5.285999774932861 C-10.904000282287598,-8.465999603271484 -4.298999786376953,-8.678000450134277 2.4800000190734863,-5.757999897003174 C9.258999824523926,-2.8380000591278076 13.645000457763672,2.1070001125335693 12.274999618530273,5.2870001792907715z"></path><path stroke-linecap="round" stroke-linejoin="round" fill-opacity="0" stroke="rgb(67,187,239)" stroke-opacity="1" stroke-width="9.608" d=" M12.274999618530273,5.2870001792907715 C10.904999732971191,8.467000007629395 4.298999786376953,8.678000450134277 -2.4800000190734863,5.758999824523926 C-9.258999824523926,2.8389999866485596 -13.644000053405762,-2.1059999465942383 -12.27400016784668,-5.285999774932861 C-10.904000282287598,-8.465999603271484 -4.298999786376953,-8.678000450134277 2.4800000190734863,-5.757999897003174 C9.258999824523926,-2.8380000591278076 13.645000457763672,2.1070001125335693 12.274999618530273,5.2870001792907715z"></path></g><g opacity="0" transform="matrix(0.6411502957344055,0.21582074463367462,-0.2179964780807495,0.6476138830184937,23.83300018310547,351.177001953125)"><path fill="rgb(242,249,252)" fill-opacity="1" d=" M12.522000312805176,5.39300012588501 C11.125,8.63700008392334 4.386000156402588,8.852999687194824 -2.5299999713897705,5.874000072479248 C-9.446000099182129,2.8949999809265137 -13.918999671936035,-2.1489999294281006 -12.522000312805176,-5.394000053405762 C-11.125,-8.637999534606934 -4.386000156402588,-8.852999687194824 2.5299999713897705,-5.875 C9.446000099182129,-2.8959999084472656 13.918999671936035,2.1489999294281006 12.522000312805176,5.39300012588501z"></path><path stroke-linecap="round" stroke-linejoin="round" fill-opacity="0" stroke="rgb(67,187,239)" stroke-opacity="1" stroke-width="9.802" d=" M12.522000312805176,5.39300012588501 C11.125,8.63700008392334 4.386000156402588,8.852999687194824 -2.5299999713897705,5.874000072479248 C-9.446000099182129,2.8949999809265137 -13.918999671936035,-2.1489999294281006 -12.522000312805176,-5.394000053405762 C-11.125,-8.637999534606934 -4.386000156402588,-8.852999687194824 2.5299999713897705,-5.875 C9.446000099182129,-2.8959999084472656 13.918999671936035,2.1489999294281006 12.522000312805176,5.39300012588501z"></path></g><g opacity="1" transform="matrix(0.9585118293762207,-0.28505271673202515,0.28505271673202515,0.9585118293762207,397.364990234375,58.5260009765625)"><path fill="rgb(242,249,252)" fill-opacity="1" d=" M17.04800033569336,7.3420000076293945 C14.680000305175781,12.84000015258789 5.127999782562256,14.010000228881836 -4.2870001792907715,9.954999923706055 C-13.70300006866455,5.89900016784668 -19.416000366210938,-1.8450000286102295 -17.047000885009766,-7.3429999351501465 C-14.680000305175781,-12.840999603271484 -5.126999855041504,-14.010000228881836 4.288000106811523,-9.954999923706055 C13.70300006866455,-5.89900016784668 19.416000366210938,1.843999981880188 17.04800033569336,7.3420000076293945z"></path><path stroke-linecap="round" stroke-linejoin="round" fill-opacity="0" stroke="rgb(67,187,239)" stroke-opacity="1" stroke-width="9.608" d=" M17.04800033569336,7.3420000076293945 C14.680000305175781,12.84000015258789 5.127999782562256,14.010000228881836 -4.2870001792907715,9.954999923706055 C-13.70300006866455,5.89900016784668 -19.416000366210938,-1.8450000286102295 -17.047000885009766,-7.3429999351501465 C-14.680000305175781,-12.840999603271484 -5.126999855041504,-14.010000228881836 4.288000106811523,-9.954999923706055 C13.70300006866455,-5.89900016784668 19.416000366210938,1.843999981880188 17.04800033569336,7.3420000076293945z"></path></g><g opacity="1" transform="matrix(1,0,0,1,225.45700073242188,449.81298828125)"><path fill="rgb(242,249,252)" fill-opacity="1" d=" M28.0310001373291,11.92199993133545 C22.22100067138672,21.601999282836914 1.0579999685287476,23.54400062561035 -13.765999794006348,17.159000396728516 C-28.590999603271484,10.774999618530273 -36.987998962402344,-2.806999921798706 -32.52199935913086,-13.175000190734863 C-28.055999755859375,-23.54400062561035 -8.704999923706055,-21.334999084472656 6.11899995803833,-14.949999809265137 C20.944000244140625,-8.5649995803833 36.98699951171875,-3 28.0310001373291,11.92199993133545z"></path><path stroke-linecap="round" stroke-linejoin="round" fill-opacity="0" stroke="rgb(67,187,239)" stroke-opacity="1" stroke-width="13.395" d=" M28.0310001373291,11.92199993133545 C22.22100067138672,21.601999282836914 1.0579999685287476,23.54400062561035 -13.765999794006348,17.159000396728516 C-28.590999603271484,10.774999618530273 -36.987998962402344,-2.806999921798706 -32.52199935913086,-13.175000190734863 C-28.055999755859375,-23.54400062561035 -8.704999923706055,-21.334999084472656 6.11899995803833,-14.949999809265137 C20.944000244140625,-8.5649995803833 36.98699951171875,-3 28.0310001373291,11.92199993133545z"></path></g></g><g style="display: none;"><g><path></path><path stroke-linecap="round" stroke-linejoin="round" fill-opacity="0"></path></g><g><path></path><path stroke-linecap="round" stroke-linejoin="round" fill-opacity="0"></path></g><g><path></path><path stroke-linecap="round" stroke-linejoin="round" fill-opacity="0"></path></g><g><path></path><path stroke-linecap="round" stroke-linejoin="round" fill-opacity="0"></path></g><g><path></path><path stroke-linecap="round" stroke-linejoin="round" fill-opacity="0"></path></g><g><path></path><path stroke-linecap="round" stroke-linejoin="round" fill-opacity="0"></path></g><g><path></path><path stroke-linecap="round" stroke-linejoin="round" fill-opacity="0"></path></g></g><g style="display: block;" transform="matrix(1,0,0,1,29.404998779296875,283.0690002441406)" opacity="1"><g opacity="1" transform="matrix(1,0,0,1,87.43000030517578,58.00199890136719)"><path stroke-linecap="round" stroke-linejoin="round" fill-opacity="0" stroke="rgb(242,249,252)" stroke-opacity="0.81" stroke-width="11" d="M0 0"></path></g><g opacity="1" transform="matrix(1,0,0,1,0,0)"><path stroke-linecap="round" stroke-linejoin="round" fill-opacity="0" stroke="rgb(242,249,252)" stroke-opacity="0.63" stroke-width="13" d="M0 0"></path></g></g><g style="display: block;" transform="matrix(1,0,0,1,29.404998779296875,283.0690002441406)" opacity="1"><g opacity="1" transform="matrix(1,0,0,1,0,0)"><path stroke-linecap="round" stroke-linejoin="round" fill-opacity="0" stroke="rgb(242,249,252)" stroke-opacity="0.63" stroke-width="13" d="M0 0"></path></g></g><g style="display: block;" transform="matrix(1,0,0,1,256,256)" opacity="1"><g opacity="1" transform="matrix(1,0,0,1,0,0)"><path stroke-linecap="round" stroke-linejoin="round" fill-opacity="0" stroke="rgb(183,240,255)" stroke-opacity="0.6900000000000001" stroke-width="11" d="M0 0"></path></g></g><g style="display: block;" transform="matrix(0.7300000190734863,0,0,0.7300000190734863,108.23564147949219,81.42037200927734)" opacity="1"><g opacity="1" transform="matrix(1,0,0,1,0,0)"><path stroke-linecap="round" stroke-linejoin="round" fill-opacity="0" stroke="rgb(242,249,252)" stroke-opacity="0.63" stroke-width="13" d="M0 0"></path></g></g><g style="display: block;" transform="matrix(1,0,0,1,256,256)" opacity="1"></g></g></svg>