<svg xmlns="http://www.w3.org/2000/svg" xmlns:xlink="http://www.w3.org/1999/xlink" viewBox="0 0 512 512" width="512" height="512" style="width: 100%; height: 100%; transform: translate3d(0,0,0); content-visibility: visible;" preserveAspectRatio="xMidYMid meet"><defs><clipPath id="__lottie_element_2"><rect width="512" height="512" x="0" y="0"></rect></clipPath><clipPath id="__lottie_element_4"><path d="M0,0 L512,0 L512,512 L0,512z"></path></clipPath><radialGradient id="__lottie_element_11" spreadMethod="pad" gradientUnits="userSpaceOnUse" cx="-82.43000030517578" cy="-180.8090057373047" r="491.3950239734339" fx="-82.43000030517578" fy="-180.8090057373047"><stop offset="0%" stop-color="rgb(254,240,222)"></stop><stop offset="35%" stop-color="rgb(249,213,185)"></stop><stop offset="70%" stop-color="rgb(244,187,148)"></stop></radialGradient><clipPath id="__lottie_element_18"><path d="M0,0 L512,0 L512,512 L0,512z"></path></clipPath><radialGradient id="__lottie_element_25" spreadMethod="pad" gradientUnits="userSpaceOnUse"><stop></stop><stop></stop><stop></stop></radialGradient></defs><g clip-path="url(#__lottie_element_2)"><g clip-path="url(#__lottie_element_18)" style="display: none;"><g style="display: none;"><g><path fill="url(#__lottie_element_25)"></path><path stroke-linecap="butt" stroke-linejoin="miter" fill-opacity="0" stroke-miterlimit="10"></path></g><g><path></path></g></g><g style="display: none;"><g><g><path></path></g><g><path stroke-linecap="round" stroke-linejoin="round" fill-opacity="0"></path></g><g><path></path></g><g><path></path></g></g><g><g><path></path></g><g><path stroke-linecap="round" stroke-linejoin="round" fill-opacity="0"></path></g><g><path></path></g><g><path></path></g></g></g><g style="display: none;"><g><g><path></path></g><g><path stroke-linecap="round" stroke-linejoin="round" fill-opacity="0"></path></g></g><g><path></path></g><g><path stroke-linecap="round" stroke-linejoin="round" fill-opacity="0"></path></g></g></g><g clip-path="url(#__lottie_element_4)" style="display: block;" transform="matrix(0.9257799983024597,0,0,0.9257799983024597,13.000320434570312,13.000320434570312)" opacity="1"><g style="display: block;" transform="matrix(0.9933059215545654,0,0,0.9933059215545654,39.50262451171875,5.86602783203125)" opacity="1"><g opacity="1" transform="matrix(1,0,0,1,232.53700256347656,258.2929992675781)"><path fill="url(#__lottie_element_11)" fill-opacity="1" d=" M-27.72100067138672,224.24200439453125 C-89.83699798583984,218.79299926757812 -171.39999389648438,171.81900024414062 -189.00399780273438,38.98400115966797 C-200.03700256347656,-44.2599983215332 -193.09500122070312,-111.80599975585938 -162.85000610351562,-156.08099365234375 C-138.3070068359375,-192.01100158691406 -93.56300354003906,-222.82699584960938 1.180999994277954,-224.70399475097656 C56.2140007019043,-225.79299926757812 104.66100311279297,-200.9759979248047 122.14399719238281,-188.74200439453125 C149.6719970703125,-169.47799682617188 165.37100219726562,-143.1790008544922 173.36199951171875,-114.63899993896484 C196.2469940185547,-32.90700149536133 200.03700256347656,74.94599914550781 184.781005859375,113.08699798583984 C155.51100158691406,186.26199340820312 85.61299896240234,224.24200439453125 8.241000175476074,225.33200073242188 C-10.3149995803833,225.59300231933594 -10.048999786376953,225.79200744628906 -27.72100067138672,224.24200439453125z"></path><path stroke-linecap="butt" stroke-linejoin="miter" fill-opacity="0" stroke-miterlimit="10" stroke="rgb(181,95,48)" stroke-opacity="1" stroke-width="13" d=" M-27.72100067138672,224.24200439453125 C-89.83699798583984,218.79299926757812 -171.39999389648438,171.81900024414062 -189.00399780273438,38.98400115966797 C-200.03700256347656,-44.2599983215332 -193.09500122070312,-111.80599975585938 -162.85000610351562,-156.08099365234375 C-138.3070068359375,-192.01100158691406 -93.56300354003906,-222.82699584960938 1.180999994277954,-224.70399475097656 C56.2140007019043,-225.79299926757812 104.66100311279297,-200.9759979248047 122.14399719238281,-188.74200439453125 C149.6719970703125,-169.47799682617188 165.37100219726562,-143.1790008544922 173.36199951171875,-114.63899993896484 C196.2469940185547,-32.90700149536133 200.03700256347656,74.94599914550781 184.781005859375,113.08699798583984 C155.51100158691406,186.26199340820312 85.61299896240234,224.24200439453125 8.241000175476074,225.33200073242188 C-10.3149995803833,225.59300231933594 -10.048999786376953,225.79200744628906 -27.72100067138672,224.24200439453125z"></path></g><g opacity="1" transform="matrix(1,0,0,1,230.44900512695312,316.3800048828125)"><path fill="rgb(230,154,118)" fill-opacity="1" d=" M-170.25537109375,-173.07350158691406 C-170.25537109375,-173.07350158691406 -182.58206176757812,45.64789962768555 -62.09230422973633,100.43431091308594 C55.74747848510742,154.05087280273438 143.51438903808594,86.52420043945312 161.49539184570312,65.27420043945312 C179.4763946533203,44.024200439453125 185.00462341308594,27.440292358398438 185.00462341308594,27.440292358398438 C185.00462341308594,27.440292358398438 177.921630859375,84.1084976196289 133.2416229248047,120.06949615478516 C88.56163024902344,156.031494140625 -17.099876403808594,183.31295776367188 -101.01087951660156,129.36996459960938 C-165.17787170410156,88.11996459960938 -187.017333984375,-23.77750587463379 -184.8383331298828,-88.07250213623047 C-182.6583251953125,-152.36849975585938 -170.25537109375,-173.07350158691406 -170.25537109375,-173.07350158691406z"></path></g></g><g style="display: block;" transform="matrix(0.9588282704353333,0,0,0.9933059215545654,150.0403594970703,159.99630737304688)" opacity="1"><g opacity="1" transform="matrix(1.3383758068084717,-0.10998748242855072,0.1060718521475792,1.2907286882400513,-17.073974609375,-4.7728729248046875)"><g opacity="1" transform="matrix(1,0,0,1,34.0260009765625,58.35100173950195)"><path fill="rgb(230,154,118)" fill-opacity="0.59" d=" M-34.0260009765625,3.868000030517578 C-34.0260009765625,3.868000030517578 -34.0260009765625,25.934999465942383 -6.236999988555908,29.204999923706055 C21.551000595092773,32.4739990234375 31.358999252319336,26.753000259399414 33.81100082397461,-1.0360000133514404 C36.26300048828125,-28.825000762939453 17.46500015258789,-31.277000427246094 -7.054999828338623,-29.642000198364258 C-31.573999404907227,-28.006999969482422 -34.0260009765625,3.868000030517578 -34.0260009765625,3.868000030517578z"></path></g><g opacity="1" transform="matrix(1,0,0,1,55.50299835205078,58.77799987792969)"><path stroke-linecap="round" stroke-linejoin="round" fill-opacity="0" stroke="rgb(181,95,48)" stroke-opacity="1" stroke-width="9" d=" M-3.812000036239624,-13.628000259399414 C-3.812000036239624,-13.628000259399414 1.1230000257492065,-11.053000450134277 2.625,-5.9019999504089355 C3.812000036239624,-1.8339999914169312 3.1619999408721924,6.330999851226807 3.1619999408721924,7.61899995803833 C3.1619999408721924,8.906000137329102 2.5179998874664307,13.628000259399414 2.5179998874664307,13.628000259399414"></path></g><g opacity="1" transform="matrix(1,0,0,1,38.55699920654297,54.09299850463867)"><path fill="rgb(32,13,7)" fill-opacity="1" d=" M-22.219999313354492,-6.951000213623047 C-23.726999282836914,-2.2360000610351562 -23.496000289916992,5.441999912261963 -15.331000328063965,11.225000381469727 C-3.690999984741211,19.4689998626709 16.56399917602539,12.60200023651123 19.625999450683594,5.7179999351501465 C22.687000274658203,-1.1670000553131104 23.726999282836914,-13.506999969482422 10.20300006866455,-16.26099967956543 C-5.543000221252441,-19.468000411987305 -19.667999267578125,-14.937000274658203 -22.219999313354492,-6.951000213623047z"></path></g><g opacity="1" transform="matrix(1,0,0,1,27.305999755859375,52.1870002746582)"><path fill="rgb(255,255,255)" fill-opacity="1" d=" M-4.829671382904053,-1.497279167175293 C-5.093951225280762,0.7074244618415833 -5.467015743255615,2.325702667236328 -3.651404857635498,3.758686065673828 C-0.896577000617981,5.878158092498779 5.899064540863037,4.3531413078308105 6.385251998901367,2.376465320587158 C6.854295253753662,0.13672740757465363 6.804543495178223,-3.838654041290283 2.7230191230773926,-4.726016521453857 C-1.4079681634902954,-5.58576774597168 -4.392845630645752,-3.7766683101654053 -4.829671382904053,-1.497279167175293z"></path></g></g><g opacity="1" transform="matrix(1.277559757232666,-0.14598871767520905,0.1318035125732422,1.15342378616333,-80.22007751464844,43.16712188720703)"><g opacity="1" transform="matrix(1,0,0,1,259.635986328125,30.749000549316406)"><path fill="rgb(230,154,118)" fill-opacity="0.59" d=" M-34.05699920654297,-6.943999767303467 C-34.05699920654297,-6.943999767303467 -36.50899887084961,19.209999084472656 -11.989999771118164,26.56599998474121 C14.810999870300293,34.60599899291992 29.194000244140625,32.83300018310547 33.779998779296875,5.315999984741211 C37.04899978637695,-14.300000190734863 16.615999221801758,-32.28099822998047 -7.9029998779296875,-30.645999908447266 C-32.422000885009766,-29.01099967956543 -34.05699920654297,-6.943999767303467 -34.05699920654297,-6.943999767303467z"></path></g><g opacity="1" transform="matrix(1,0,0,1,260.3739929199219,42.27199935913086)"><path stroke-linecap="round" stroke-linejoin="round" fill-opacity="0" stroke="rgb(181,95,48)" stroke-opacity="1" stroke-width="10.001" d=" M-17.694000244140625,-2.634999990463257 C-17.694000244140625,-2.634999990463257 -9.729999542236328,1.4730000495910645 -2.2309999465942383,2.053999900817871 C5.267000198364258,2.634999990463257 17.694000244140625,2.2130000591278076 17.694000244140625,2.2130000591278076"></path></g><g opacity="1" transform="matrix(1,0,0,1,250.56700134277344,32.33300018310547)"><path fill="rgb(34,14,7)" fill-opacity="1" d=" M17.615999221801758,-4.118000030517578 C19.881999969482422,0.28299999237060547 19.9950008392334,7.538000106811523 12.006999969482422,13.01200008392334 C0.6209999918937683,20.815000534057617 -13.020999908447266,11.881999969482422 -16.410999298095703,5.204999923706055 C-19.9950008392334,-1.8550000190734863 -19.975000381469727,-16.139999389648438 -6.223999977111816,-18.364999771118164 C8.913999557495117,-20.815000534057617 13.767999649047852,-11.58899974822998 17.615999221801758,-4.118000030517578z"></path></g><g opacity="1" transform="matrix(1,0,0,1,241.072998046875,29.70800018310547)"><path fill="rgb(255,255,255)" fill-opacity="1" d=" M-4.723303318023682,-1.946940302848816 C-5.04930305480957,-0.46194031834602356 -4.714654445648193,1.6124600172042847 -2.762620687484741,3.0234880447387695 C0.5648488998413086,5.058371543884277 4.6925554275512695,3.31813383102417 5.233284950256348,1.398690104484558 C5.812069416046143,-0.7888373732566833 5.590726852416992,-3.8509681224823 2.663726568222046,-4.718968391418457 C-0.7432733178138733,-5.728968143463135 -4.1713032722473145,-4.461940288543701 -4.723303318023682,-1.946940302848816z"></path></g></g></g><g style="display: block;" transform="matrix(0.9588282704353333,0,0,0.9933059215545654,135.0653839111328,220.03965759277344)" opacity="1"><g opacity="1" transform="matrix(1.086113452911377,-0.06654345244169235,0.061152830719947815,0.9981284141540527,-21.05743408203125,12.389656066894531)"><g opacity="0.62" transform="matrix(1,0,0,1,183.7830047607422,85.54399871826172)"><path fill="rgb(230,154,118)" fill-opacity="1" d=" M-35.91782760620117,12.231341361999512 C-32.648826599121094,17.13534164428711 -18.879173278808594,19.090129852294922 -0.9684381484985352,17.26329803466797 C21.80255126953125,14.970539093017578 30.466283798217773,6.843115329742432 32.26628112792969,0.8631153106689453 C34.067283630371094,-5.117884635925293 40.818172454833984,-16.755659103393555 18.206174850463867,-14.28565788269043 C10.324173927307129,-13.424657821655273 3.8395912647247314,-12.005495071411133 -6.616408824920654,-10.913495063781738 C-23.43840789794922,-9.15749454498291 -37.48500061035156,-8.83367919921875 -38.595001220703125,-4.121679306030273 C-40.395999908447266,3.5213208198547363 -37.63082504272461,9.662342071533203 -35.91782760620117,12.231341361999512z"></path></g><g opacity="1" transform="matrix(1,0,0,1,185.79400634765625,81.37699890136719)"><path stroke-linecap="round" stroke-linejoin="round" fill-opacity="0" stroke="rgb(181,95,48)" stroke-opacity="1" stroke-width="13" d=" M-27.508939743041992,4.303929328918457 C-27.508939743041992,4.303929328918457 -14.439054489135742,5.173498630523682 0.5799967646598816,3.3137683868408203 C16.9915828704834,1.2782282829284668 26.87667465209961,-3.263263702392578 28.8986759185791,-3.769263744354248"></path></g></g><g opacity="1" transform="matrix(1,0,0,1,170.7259979248047,47.637001037597656)"><path fill="rgb(230,154,118)" fill-opacity="1" d=" M-143.30299377441406,25.511999130249023 C-143.30299377441406,25.511999130249023 -134.73500061035156,16.900314331054688 -78.50199890136719,4.813314914703369 C-57.93000030517578,0.3913151025772095 -31.324012756347656,-5.311141490936279 3.9219870567321777,-10.784141540527344 C32.36698532104492,-15.201141357421875 77.25102233886719,-18.256549835205078 98.78290557861328,-18.997173309326172 C139.3162078857422,-20.342161178588867 142.95599365234375,-16.040205001831055 142.95599365234375,-16.040205001831055 C142.95599365234375,-16.040205001831055 7.537678241729736,3.171999931335449 -22.70332145690918,7.258999824523926 C-52.943321228027344,11.345000267028809 -143.30299377441406,25.511999130249023 -143.30299377441406,25.511999130249023z"></path></g><g opacity="1" transform="matrix(1,0,0,1,171.55999755859375,54.01499938964844)"><path stroke-linecap="round" stroke-linejoin="round" fill-opacity="0" stroke="rgb(76,33,19)" stroke-opacity="1" stroke-width="12" d=" M-141.55999755859375,24.013999938964844 C-141.55999755859375,24.013999938964844 -67.45854949951172,7.538588523864746 7.8177876472473145,-3.9587717056274414 C90.01577758789062,-16.48379135131836 139.82789611816406,-17.568662643432617 139.82789611816406,-17.568662643432617"></path></g></g></g></g></svg>