<svg xmlns="http://www.w3.org/2000/svg" xmlns:xlink="http://www.w3.org/1999/xlink" viewBox="0 0 512 512" width="512" height="512" style="width: 100%; height: 100%; transform: translate3d(0,0,0); content-visibility: visible;" preserveAspectRatio="xMidYMid meet"><defs><clipPath id="__lottie_element_2"><rect width="512" height="512" x="0" y="0"></rect></clipPath><radialGradient id="__lottie_element_19" spreadMethod="pad" gradientUnits="userSpaceOnUse" cx="-40.47100067138672" cy="-194.31300354003906" r="319.1358443487938" fx="-40.47100067138672" fy="-194.31300354003906"><stop offset="33%" stop-color="rgb(253,215,187)"></stop><stop offset="90%" stop-color="rgb(248,198,169)"></stop><stop offset="100%" stop-color="rgb(243,181,150)"></stop></radialGradient></defs><g clip-path="url(#__lottie_element_2)"><g style="display: block;" transform="matrix(1.0800000429153442,0,0,0.9599999785423279,-29.95918083190918,-7.734066009521484)" opacity="1"><g opacity="1" transform="matrix(1,0,0,1,125.9000015258789,111.2750015258789)"><path fill="rgb(117,27,234)" fill-opacity="1" d=" M93.4000015258789,-20.593000411987305 C93.4000015258789,-20.593000411987305 -36.17300033569336,-67.7249984741211 -74.4209976196289,-80.0719985961914 C-87.89700317382812,-84.4219970703125 -90.24299621582031,-81.79399871826172 -91.67500305175781,-75.98400115966797 C-94.30699920654297,-65.30400085449219 -80.41500091552734,-35.05699920654297 -69.29900360107422,-6.4730000495910645 C-50.27299880981445,42.45100021362305 -34.805999755859375,83.83599853515625 -34.805999755859375,83.83599853515625 C-34.805999755859375,83.83599853515625 18.50200080871582,25.840999603271484 41.90299987792969,13.138999938964844 C65.30400085449219,0.43700000643730164 93.4000015258789,-20.593000411987305 93.4000015258789,-20.593000411987305z"></path><path stroke-linecap="round" stroke-linejoin="round" fill-opacity="0" stroke="rgb(61,36,109)" stroke-opacity="1" stroke-width="13" d=" M93.4000015258789,-20.593000411987305 C93.4000015258789,-20.593000411987305 -36.17300033569336,-67.7249984741211 -74.4209976196289,-80.0719985961914 C-87.89700317382812,-84.4219970703125 -90.24299621582031,-81.79399871826172 -91.67500305175781,-75.98400115966797 C-94.30699920654297,-65.30400085449219 -80.41500091552734,-35.05699920654297 -69.29900360107422,-6.4730000495910645 C-50.27299880981445,42.45100021362305 -34.805999755859375,83.83599853515625 -34.805999755859375,83.83599853515625 C-34.805999755859375,83.83599853515625 18.50200080871582,25.840999603271484 41.90299987792969,13.138999938964844 C65.30400085449219,0.43700000643730164 93.4000015258789,-20.593000411987305 93.4000015258789,-20.593000411987305z"></path></g><g opacity="1" transform="matrix(1,0,0,1,74.26499938964844,89.58100128173828)"><path fill="rgb(250,212,50)" fill-opacity="1" d=" M-0.4169999957084656,-43.39799880981445 C-0.4169999957084656,-43.39799880981445 -9.369000434875488,-41.42399978637695 -14.817999839782715,-26.16699981689453 C-20.323999404907227,-10.75 -17.815000534057617,-0.013000000268220901 -17.815000534057617,-0.013000000268220901 C-17.815000534057617,-0.013000000268220901 -2.8310000896453857,35.584999084472656 -2.8310000896453857,35.584999084472656 C-2.8310000896453857,35.584999084472656 -4.620999813079834,22.10300064086914 -3.556999921798706,9.067999839782715 C-2.8919999599456787,0.9110000133514404 -0.3140000104904175,-13.069999694824219 2.9809999465942383,-19.266000747680664 C12.062999725341797,-36.3380012512207 17.547000885009766,-37.58599853515625 17.547000885009766,-37.58599853515625 C17.547000885009766,-37.58599853515625 -0.4169999957084656,-43.39799880981445 -0.4169999957084656,-43.39799880981445z"></path></g><g opacity="1" transform="matrix(1,0,0,1,116.21499633789062,129.427001953125)"><path fill="rgb(250,212,50)" fill-opacity="1" d=" M1.4420000314712524,-66.51699829101562 C1.4420000314712524,-66.51699829101562 -6.966000080108643,-56.52000045776367 -13.543000221252441,-41.573001861572266 C-17.849000930786133,-31.78700065612793 -23.384000778198242,-11.979999542236328 -24.55900001525879,-1.5839999914169312 C-28.774999618530273,35.7130012512207 -23.44300079345703,51.11600112915039 -23.44300079345703,51.11600112915039 C-23.44300079345703,51.11600112915039 9.043999671936035,75.37200164794922 9.043999671936035,75.37200164794922 C9.043999671936035,75.37200164794922 3.802999973297119,46.152000427246094 1.781999945640564,23.834999084472656 C1.0240000486373901,15.463000297546387 1.8029999732971191,-8.350000381469727 14.331000328063965,-37.4900016784668 C21.284000396728516,-53.66299819946289 27.38599967956543,-57.902000427246094 27.38599967956543,-57.902000427246094 C27.38599967956543,-57.902000427246094 1.4420000314712524,-66.51699829101562 1.4420000314712524,-66.51699829101562z"></path></g><g opacity="1" transform="matrix(1,0,0,1,183.26800537109375,102.2040023803711)"><path fill="rgb(229,189,21)" fill-opacity="1" d=" M-15.255999565124512,-20.433000564575195 C-15.255999565124512,-20.433000564575195 -23.429000854492188,-11.170000076293945 -26.15399932861328,0.2720000147819519 C-28.878000259399414,11.71500015258789 -25.06399917602539,20.433000564575195 -25.06399917602539,20.433000564575195 C-25.06399917602539,20.433000564575195 28.878999710083008,-7.355999946594238 28.878999710083008,-7.355999946594238 C28.878999710083008,-7.355999946594238 -15.255999565124512,-20.433000564575195 -15.255999565124512,-20.433000564575195z"></path></g><g opacity="0.33" transform="matrix(1,0,0,1,82.60299682617188,104.9280014038086)"><path fill="rgb(52,26,135)" fill-opacity="1" d=" M-47.8129997253418,-71.9229965209961 C-47.8129997253418,-71.9229965209961 -36.37099838256836,-66.2020034790039 -36.37099838256836,-66.2020034790039 C-36.37099838256836,-66.2020034790039 47.8129997253418,45.77000045776367 47.8129997253418,45.77000045776367 C47.8129997253418,45.77000045776367 20.02400016784668,71.92400360107422 20.02400016784668,71.92400360107422 C20.02400016784668,71.92400360107422 -47.8129997253418,-71.9229965209961 -47.8129997253418,-71.9229965209961z"></path></g></g><g style="display: block;" transform="matrix(1.0800000429153442,0,0,0.9599999785423279,-15.076780319213867,37.168006896972656)" opacity="1"><g opacity="1" transform="matrix(1,0,0,1,242.8979949951172,258.4779968261719)"><path fill="rgb(242,157,113)" fill-opacity="1" d=" M-51.06999969482422,210.4969940185547 C-97.3270034790039,203.21299743652344 -160.58999633789062,200.68899536132812 -186.74400329589844,78.09200286865234 C-212.8979949951172,-44.505001068115234 -163.86000061035156,-129.50599670410156 -126.26399993896484,-168.73699951171875 C-88.66699981689453,-207.96800231933594 5.410999774932861,-228.47799682617188 66.62200164794922,-219.41000366210938 C110.75700378417969,-212.8719940185547 146.718994140625,-170.37100219726562 179.41200256347656,-65.75499725341797 C212.8979949951172,41.4010009765625 178.1490020751953,131.26300048828125 145.08399963378906,172.9010009765625 C100.9489974975586,228.47799682617188 -5.2769999504089355,217.70799255371094 -51.06999969482422,210.4969940185547z"></path><path stroke-linecap="butt" stroke-linejoin="miter" fill-opacity="0" stroke-miterlimit="10" stroke="rgb(167,85,40)" stroke-opacity="1" stroke-width="13" d=" M-51.06999969482422,210.4969940185547 C-97.3270034790039,203.21299743652344 -160.58999633789062,200.68899536132812 -186.74400329589844,78.09200286865234 C-212.8979949951172,-44.505001068115234 -163.86000061035156,-129.50599670410156 -126.26399993896484,-168.73699951171875 C-88.66699981689453,-207.96800231933594 5.410999774932861,-228.47799682617188 66.62200164794922,-219.41000366210938 C110.75700378417969,-212.8719940185547 146.718994140625,-170.37100219726562 179.41200256347656,-65.75499725341797 C212.8979949951172,41.4010009765625 178.1490020751953,131.26300048828125 145.08399963378906,172.9010009765625 C100.9489974975586,228.47799682617188 -5.2769999504089355,217.70799255371094 -51.06999969482422,210.4969940185547z"></path></g><g opacity="1" transform="matrix(1,0,0,1,241.21299743652344,250.05999755859375)"><path fill="url(#__lottie_element_19)" fill-opacity="1" d=" M-43.404998779296875,208.05799865722656 C-85.23400115966797,201.4709930419922 -121.14600372314453,200.2310028076172 -144.79600524902344,89.36799621582031 C-168.44700622558594,-21.4950008392334 -136.13900756835938,-80.6520004272461 -102.14099884033203,-116.12799835205078 C-68.14299774169922,-151.60400390625 8.597000122070312,-173.27699279785156 63.95000076293945,-165.07699584960938 C103.86000061035156,-159.16400146484375 135.45399475097656,-136.3560028076172 165.01800537109375,-41.75299835205078 C195.2989959716797,55.14699935913086 151.83900451660156,136.4080047607422 121.93900299072266,174.05999755859375 C82.02799987792969,224.3179931640625 -1.9950000047683716,214.57899475097656 -43.404998779296875,208.05799865722656z"></path></g></g><g style="display: block;" transform="matrix(1.1221846342086792,-0.012431089766323566,0.013783661648631096,0.983135461807251,46.949031829833984,141.61471557617188)" opacity="1"><g opacity="1" transform="matrix(1,0,0,1,99.1989974975586,148.46400451660156)"><path fill="rgb(242,175,129)" fill-opacity="1" d=" M-72.51899719238281,-20.611000061035156 C-75.29399871826172,-7.421999931335449 -78.41100311279297,8.958000183105469 -68.99800109863281,33.68199920654297 C-60.40599822998047,56.249000549316406 -39.183998107910156,68.44000244140625 -10.385000228881836,65.17500305175781 C18.415000915527344,61.90999984741211 37.38999938964844,33.12699890136719 58.39400100708008,3.5199999809265137 C78.41100311279297,-24.69499969482422 60.62099838256836,-38.01100158691406 43.92599868774414,-48.768001556396484 C27.231000900268555,-59.525001525878906 -0.9580000042915344,-68.44000244140625 -27.88599967956543,-64.22100067138672 C-60.72800064086914,-59.07400131225586 -69.6760025024414,-34.125 -72.51899719238281,-20.611000061035156z"></path></g><g opacity="1" transform="matrix(1,0,0,1,99.49800109863281,135.2449951171875)"><path fill="rgb(202,202,229)" fill-opacity="1" d=" M-68.36499786376953,-18.52400016784668 C-70.60600280761719,-5.638000011444092 -73.08100128173828,10.354999542236328 -63.57500076293945,34.095001220703125 C-54.89799880981445,55.763999938964844 -34.65800094604492,66.9990005493164 -7.736000061035156,63.01100158691406 C19.184999465942383,59.02199935913086 36.19300079345703,30.535999298095703 55.08100128173828,1.190999984741211 C73.08100128173828,-26.774999618530273 56.03099822998047,-39.20000076293945 40.07699966430664,-49.17100143432617 C24.124000549316406,-59.141998291015625 -2.559000015258789,-66.9990005493164 -27.698999404907227,-62.137001037597656 C-58.361000061035156,-56.207000732421875 -66.06900024414062,-31.726999282836914 -68.36499786376953,-18.52400016784668z"></path><path stroke-linecap="butt" stroke-linejoin="miter" fill-opacity="0" stroke-miterlimit="10" stroke="rgb(73,73,122)" stroke-opacity="1" stroke-width="10.567" d=" M-68.36499786376953,-18.52400016784668 C-70.60600280761719,-5.638000011444092 -73.08100128173828,10.354999542236328 -63.57500076293945,34.095001220703125 C-54.89799880981445,55.763999938964844 -34.65800094604492,66.9990005493164 -7.736000061035156,63.01100158691406 C19.184999465942383,59.02199935913086 36.19300079345703,30.535999298095703 55.08100128173828,1.190999984741211 C73.08100128173828,-26.774999618530273 56.03099822998047,-39.20000076293945 40.07699966430664,-49.17100143432617 C24.124000549316406,-59.141998291015625 -2.559000015258789,-66.9990005493164 -27.698999404907227,-62.137001037597656 C-58.361000061035156,-56.207000732421875 -66.06900024414062,-31.726999282836914 -68.36499786376953,-18.52400016784668z"></path></g><g opacity="1" transform="matrix(1,0,0,1,93.41600036621094,132.5290069580078)"><path fill="rgb(255,255,255)" fill-opacity="1" d=" M-54.744998931884766,-15.258999824523926 C-56.53900146484375,-4.644999980926514 -58.520999908447266,8.529000282287598 -50.90800094604492,28.083999633789062 C-43.959999084472656,45.93299865722656 -27.753000259399414,55.1879997253418 -6.195000171661377,51.902000427246094 C15.36299991607666,48.617000579833984 28.98200035095215,25.152000427246094 44.106998443603516,0.9800000190734863 C58.520999908447266,-22.055999755859375 44.86800003051758,-32.290000915527344 32.09299850463867,-40.50299835205078 C19.316999435424805,-48.715999603271484 -2.049999952316284,-55.1879997253418 -22.180999755859375,-51.18299865722656 C-46.73400115966797,-46.29899978637695 -52.90700149536133,-26.134000778198242 -54.744998931884766,-15.258999824523926z"></path></g><g opacity="1" transform="matrix(1,0,0,1,92.42500305175781,140.54600524902344)"><path fill="rgb(11,17,35)" fill-opacity="1" d=" M-37.000999450683594,-20.027000427246094 C-42.88999938964844,-10.118000030517578 -49.44499969482422,15.993000030517578 -20.6299991607666,33.67499923706055 C-0.9660000205039978,45.74100112915039 32.98099899291992,37.349998474121094 40.93000030517578,15.338000297546387 C49.444000244140625,-8.23799991607666 41.584999084472656,-31.81399917602539 13.425000190734863,-38.362998962402344 C-18.29599952697754,-45.7400016784668 -30.652999877929688,-30.70800018310547 -37.000999450683594,-20.027000427246094z"></path></g><g opacity="1" transform="matrix(1,0,0,1,76.2760009765625,115.54199981689453)"><path fill="rgb(254,254,254)" fill-opacity="1" d=" M-12.086999893188477,-5.749000072479248 C-14.01099967956543,-2.9049999713897705 -16.152000427246094,4.590000152587891 -6.738999843597412,9.664999961853027 C-0.3160000145435333,13.128999710083008 10.774999618530273,10.720000267028809 13.371000289916992,4.4019999504089355 C16.152000427246094,-2.365000009536743 13.585000038146973,-9.131999969482422 4.386000156402588,-11.01099967956543 C-5.97599983215332,-13.128999710083008 -10.012999534606934,-8.8149995803833 -12.086999893188477,-5.749000072479248z"></path></g><g opacity="1" transform="matrix(1,0,0,1,65.1259994506836,150.2760009765625)"><path fill="rgb(254,254,254)" fill-opacity="1" d=" M-5.410999774932861,-5.955999851226807 C-7.133999824523926,-4.015999794006348 -9.99899959564209,1.5609999895095825 -5.732999801635742,7.060999870300293 C-2.822000026702881,10.812999725341797 4.041999816894531,10.670999526977539 6.909999847412109,6.09499979019165 C9.982000350952148,1.194000005722046 9.99899959564209,-4.554999828338623 5.1539998054504395,-7.498000144958496 C-0.3019999861717224,-10.812999725341797 -3.553999900817871,-8.04699993133545 -5.410999774932861,-5.955999851226807z"></path></g><g opacity="1" transform="matrix(1,0,0,1,0,0)"><g opacity="1" transform="matrix(1,0,0,1,267.2359924316406,110.60800170898438)"><path fill="rgb(242,175,129)" fill-opacity="1" d=" M-54.28200149536133,-30.010000228881836 C-45.051998138427734,-43.95899963378906 -25.155000686645508,-70.61100006103516 3.0899999141693115,-64.43299865722656 C31.333999633789062,-58.255001068115234 63.10900115966797,-15.005000114440918 64.8740005493164,20.301000595092773 C66.63999938964844,55.60599899291992 56.047000885009766,70.61100006103516 18.093000411987305,67.96299743652344 C-19.860000610351562,65.31500244140625 -63.108001708984375,25.59600067138672 -64.8740005493164,7.943999767303467 C-66.63899993896484,-9.708999633789062 -59.71799850463867,-21.795000076293945 -54.28200149536133,-30.010000228881836z"></path></g><g opacity="1" transform="matrix(1,0,0,1,268.8710021972656,96.98600006103516)"><path fill="rgb(202,202,229)" fill-opacity="1" d=" M-54.28200149536133,-30.010000228881836 C-45.051998138427734,-43.95899963378906 -25.1560001373291,-70.61100006103516 3.0889999866485596,-64.43299865722656 C31.33300018310547,-58.25400161743164 63.108001708984375,-15.005000114440918 64.87300109863281,20.301000595092773 C66.63899993896484,55.60599899291992 56.047000885009766,70.61100006103516 18.0939998626709,67.96299743652344 C-19.860000610351562,65.31500244140625 -63.108001708984375,25.59600067138672 -64.8740005493164,7.943999767303467 C-66.63899993896484,-9.708999633789062 -59.71799850463867,-21.795000076293945 -54.28200149536133,-30.010000228881836z"></path><path stroke-linecap="butt" stroke-linejoin="miter" fill-opacity="0" stroke-miterlimit="10" stroke="rgb(73,73,122)" stroke-opacity="1" stroke-width="10.55" d=" M-54.28200149536133,-30.010000228881836 C-45.051998138427734,-43.95899963378906 -25.1560001373291,-70.61100006103516 3.0889999866485596,-64.43299865722656 C31.33300018310547,-58.25400161743164 63.108001708984375,-15.005000114440918 64.87300109863281,20.301000595092773 C66.63899993896484,55.60599899291992 56.047000885009766,70.61100006103516 18.0939998626709,67.96299743652344 C-19.860000610351562,65.31500244140625 -63.108001708984375,25.59600067138672 -64.8740005493164,7.943999767303467 C-66.63899993896484,-9.708999633789062 -59.71799850463867,-21.795000076293945 -54.28200149536133,-30.010000228881836z"></path></g><g opacity="1" transform="matrix(1,0,0,1,270.33099365234375,93.56900024414062)"><path fill="rgb(255,255,255)" fill-opacity="1" d=" M-44.56100082397461,-26.783000946044922 C-37.23400115966797,-39.250999450683594 -21.086999893188477,-60.80099868774414 1.3350000381469727,-55.27799987792969 C23.756000518798828,-49.75600051879883 51.56800079345703,-14.017000198364258 52.96900177001953,17.540000915527344 C54.369998931884766,49.09700012207031 45.29100036621094,60.80099868774414 15.163000106811523,58.433998107910156 C-14.965999603271484,56.06800079345703 -51.56800079345703,22.91900062561035 -52.96900177001953,7.140999794006348 C-54.369998931884766,-8.637999534606934 -48.875999450683594,-19.440000534057617 -44.56100082397461,-26.783000946044922z"></path></g><g opacity="1" transform="matrix(1,0,0,1,278.614990234375,112.83899688720703)"><path fill="rgb(11,17,35)" fill-opacity="1" d=" M-36.73899841308594,-20.007999420166016 C-42.58700180053711,-10.107999801635742 -49.09400177001953,15.977999687194824 -20.482999801635742,33.643001556396484 C-0.9589999914169312,45.698001861572266 32.74800109863281,37.314998626708984 40.63999938964844,15.324000358581543 C49.09400177001953,-8.229999542236328 41.29100036621094,-31.784000396728516 13.329999923706055,-38.32699966430664 C-18.166000366210938,-45.696998596191406 -30.43600082397461,-30.679000854492188 -36.73899841308594,-20.007999420166016z"></path></g><g opacity="1" transform="matrix(0.5099999904632568,0,0,0.5099999904632568,257.15899658203125,120.59400177001953)"><path fill="rgb(254,254,254)" fill-opacity="1" d=" M-8.194000244140625,-0.18199999630451202 C-9.940999984741211,2.568000078201294 -10.211000442504883,12.930999755859375 -6.849999904632568,15.378000259399414 C-1.690000057220459,19.134000778198242 6.991000175476074,13.550999641418457 9.350000381469727,7.441999912261963 C11.87600040435791,0.8989999890327454 9.987000465393066,-5.486999988555908 3.4130001068115234,-5.611999988555908 C-6.2170000076293945,-5.795000076293945 -6.309999942779541,-3.1459999084472656 -8.194000244140625,-0.18199999630451202z"></path></g><g opacity="1" transform="matrix(1,0,0,1,264.15899658203125,90.59400177001953)"><path fill="rgb(254,254,254)" fill-opacity="1" d=" M-8.194000244140625,-0.18199999630451202 C-9.940999984741211,2.568000078201294 -10.211000442504883,12.930999755859375 -6.849999904632568,15.378000259399414 C-1.690000057220459,19.134000778198242 6.991000175476074,13.550999641418457 9.350000381469727,7.441999912261963 C11.87600040435791,0.8989999890327454 9.987000465393066,-5.486999988555908 3.4130001068115234,-5.611999988555908 C-6.2170000076293945,-5.795000076293945 -6.309999942779541,-3.1459999084472656 -8.194000244140625,-0.18199999630451202z"></path></g><g opacity="1" transform="matrix(1,0,0,1,293.8320007324219,126.46600341796875)"><path fill="rgb(61,61,142)" fill-opacity="1" d=" M-15.973999977111816,12.970999717712402 C-21.187000274658203,10.8100004196167 -22.284000396728516,0.828000009059906 -17.677000045776367,-2.431999921798706 C-9.196000099182129,-8.432999610900879 3.5840001106262207,-16.423999786376953 10.805999755859375,-15.868000030517578 C22.284000396728516,-14.986000061035156 20.615999221801758,4.632999897003174 5.60699987411499,12.579000473022461 C-1.656000018119812,16.423999786376953 -10.4350004196167,15.267000198364258 -15.973999977111816,12.970999717712402z"></path></g><g opacity="1" transform="matrix(1,0,0,1,268.8710021972656,96.98600006103516)"><path stroke-linecap="butt" stroke-linejoin="miter" fill-opacity="0" stroke-miterlimit="10" stroke="rgb(73,73,122)" stroke-opacity="1" stroke-width="10.55" d=" M-54.28200149536133,-30.010000228881836 C-45.051998138427734,-43.95899963378906 -25.1560001373291,-70.61100006103516 3.0889999866485596,-64.43299865722656 C31.33300018310547,-58.25400161743164 63.108001708984375,-15.005000114440918 64.87300109863281,20.301000595092773 C66.63899993896484,55.60599899291992 56.047000885009766,70.61100006103516 18.0939998626709,67.96299743652344 C-19.860000610351562,65.31500244140625 -63.108001708984375,25.59600067138672 -64.8740005493164,7.943999767303467 C-66.63899993896484,-9.708999633789062 -59.71799850463867,-21.795000076293945 -54.28200149536133,-30.010000228881836z"></path></g></g><g opacity="1" transform="matrix(1,0,0,1,249.1909942626953,121.77899932861328)"><path fill="rgb(254,254,254)" fill-opacity="1" d="M0 0"></path></g><g opacity="1" transform="matrix(1,0,0,1,107.71499633789062,152.98500061035156)"><path fill="rgb(61,61,142)" fill-opacity="1" d=" M-16.43199920654297,13.343000411987305 C-21.795000076293945,11.119999885559082 -22.92300033569336,0.8519999980926514 -18.18400001525879,-2.500999927520752 C-9.458999633789062,-8.673999786376953 3.684999942779541,-16.895999908447266 11.114999771118164,-16.325000762939453 C22.922000885009766,-15.416000366210938 21.207000732421875,4.765999794006348 5.76800012588501,12.939000129699707 C-1.7039999961853027,16.895000457763672 -10.734000205993652,15.704999923706055 -16.43199920654297,13.343000411987305z"></path></g></g><g style="display: block;" transform="matrix(1.0800005197525024,0,0,0.959999144077301,163.7086181640625,282.3058776855469)" opacity="1"><g opacity="1" transform="matrix(1,0,0,1,0,0)"><g opacity="1" transform="matrix(1,0,0,1,103.66500091552734,99.83000183105469)"><path fill="rgb(68,32,18)" fill-opacity="1" d=" M-61.92599868774414,-24.415000915527344 C-47.75899887084961,-34.222999572753906 -30.209999084472656,-39.814998626708984 6.677000045776367,-48.52199935913086 C52.784000396728516,-59.40599822998047 67.28199768066406,-58.987998962402344 72.56199645996094,-46.119998931884766 C76.79000091552734,-35.814998626708984 71.37899780273438,-6.175000190734863 59.75400161743164,22.158000946044922 C48.130001068115234,50.492000579833984 25.246000289916992,74.10299682617188 -11.805999755859375,55.939998626708984 C-48.856998443603516,37.77799987792969 -67.72000122070312,5.434999942779541 -70.64800262451172,-3.3510000705718994 C-74.64399719238281,-15.338000297546387 -69.57499694824219,-19.118999481201172 -61.92599868774414,-24.415000915527344z"></path><path stroke-linecap="round" stroke-linejoin="round" fill-opacity="0" stroke="rgb(135,61,41)" stroke-opacity="1" stroke-width="10" d=" M-61.92599868774414,-24.415000915527344 C-47.75899887084961,-34.222999572753906 -30.209999084472656,-39.814998626708984 6.677000045776367,-48.52199935913086 C52.784000396728516,-59.40599822998047 67.28199768066406,-58.987998962402344 72.56199645996094,-46.119998931884766 C76.79000091552734,-35.814998626708984 71.37899780273438,-6.175000190734863 59.75400161743164,22.158000946044922 C48.130001068115234,50.492000579833984 25.246000289916992,74.10299682617188 -11.805999755859375,55.939998626708984 C-48.856998443603516,37.77799987792969 -67.72000122070312,5.434999942779541 -70.64800262451172,-3.3510000705718994 C-74.64399719238281,-15.338000297546387 -69.57499694824219,-19.118999481201172 -61.92599868774414,-24.415000915527344z"></path></g><g opacity="1" transform="matrix(1,0,0,1,93.72000122070312,82.21199798583984)"><path fill="rgb(35,14,7)" fill-opacity="1" d=" M-32.867000579833984,48.15399932861328 C-32.867000579833984,48.15399932861328 -35.047000885009766,1.7489999532699585 -0.44699999690055847,-3.246000051498413 C34.15299987792969,-8.241000175476074 46.4119987487793,17.09600067138672 47.22999954223633,26.90399932861328 C48.047000885009766,36.71200180053711 18.624000549316406,52.24100112915039 18.624000549316406,52.24100112915039 C18.624000549316406,52.24100112915039 -32.867000579833984,48.15399932861328 -32.867000579833984,48.15399932861328z"></path></g><g opacity="1" transform="matrix(1,0,0,1,40.88600158691406,68.1729965209961)"><path fill="rgb(255,255,255)" fill-opacity="1" d=" M-9.694000244140625,26.225000381469727 C-9.694000244140625,26.225000381469727 -4.40500020980835,30.378000259399414 2.5280001163482666,31.493000030517578 C9.461000442504883,32.608001708984375 12.27299976348877,27.634000778198242 13.425000190734863,23.865999221801758 C15.428999900817871,17.312000274658203 16.81399917602539,4.382999897003174 16.69499969482422,3.88700008392334 C16.575000762939453,3.3919999599456787 5.584000110626221,8.434000015258789 -1.468000054359436,10.788000106811523 C-8.520000457763672,13.140999794006348 -9.574000358581543,22.757999420166016 -9.694000244140625,23.500999450683594 C-9.814000129699707,24.243999481201172 -9.694000244140625,26.225000381469727 -9.694000244140625,26.225000381469727z"></path><path stroke-linecap="round" stroke-linejoin="round" fill-opacity="0" stroke="rgb(106,131,168)" stroke-opacity="1" stroke-width="7" d=" M-9.694000244140625,26.225000381469727 C-9.694000244140625,26.225000381469727 -4.40500020980835,30.378000259399414 2.5280001163482666,31.493000030517578 C9.461000442504883,32.608001708984375 12.27299976348877,27.634000778198242 13.425000190734863,23.865999221801758 C15.428999900817871,17.312000274658203 16.81399917602539,4.382999897003174 16.69499969482422,3.88700008392334 C16.575000762939453,3.3919999599456787 5.584000110626221,8.434000015258789 -1.468000054359436,10.788000106811523 C-8.520000457763672,13.140999794006348 -9.574000358581543,22.757999420166016 -9.694000244140625,23.500999450683594 C-9.814000129699707,24.243999481201172 -9.694000244140625,26.225000381469727 -9.694000244140625,26.225000381469727z"></path></g><g opacity="1" transform="matrix(1,0,0,1,102.02999877929688,52.606998443603516)"><path fill="rgb(255,255,255)" fill-opacity="1" d=" M-42.52299880981445,22.506999969482422 C-42.52299880981445,22.506999969482422 -29.941999435424805,33.63100051879883 -25.2189998626709,35.446998596191406 C-20.496999740600586,37.263999938964844 -12.142000198364258,24.322999954223633 -12.142000198364258,24.322999954223633 C-12.142000198364258,24.322999954223633 -7.236000061035156,30.95199966430664 -1.4240000247955322,31.67799949645996 C4.388000011444092,32.404998779296875 14.92199993133545,14.604999542236328 14.92199993133545,14.604999542236328 C14.92199993133545,14.604999542236328 24.003000259399414,24.413000106811523 32.72100067138672,25.503000259399414 C41.43899917602539,26.593000411987305 43.981998443603516,13.878999710083008 45.071998596191406,11.336000442504883 C46.1609992980957,8.793000221252441 45.840999603271484,-4.335000038146973 45.840999603271484,-4.335000038146973 C45.840999603271484,-4.335000038146973 28.957000732421875,-2.7209999561309814 10.067999839782715,0.5479999780654907 C-8.821000099182129,3.816999912261963 -28.974000930786133,11.440999984741211 -28.974000930786133,11.440999984741211 C-28.974000930786133,11.440999984741211 -44.612998962402344,17.17799949645996 -44.612998962402344,17.17799949645996"></path><path stroke-linecap="round" stroke-linejoin="round" fill-opacity="0" stroke="rgb(106,131,168)" stroke-opacity="1" stroke-width="7" d=" M-42.52299880981445,22.506999969482422 C-42.52299880981445,22.506999969482422 -29.941999435424805,33.63100051879883 -25.2189998626709,35.446998596191406 C-20.496999740600586,37.263999938964844 -12.142000198364258,24.322999954223633 -12.142000198364258,24.322999954223633 C-12.142000198364258,24.322999954223633 -7.236000061035156,30.95199966430664 -1.4240000247955322,31.67799949645996 C4.388000011444092,32.404998779296875 14.92199993133545,14.604999542236328 14.92199993133545,14.604999542236328 C14.92199993133545,14.604999542236328 24.003000259399414,24.413000106811523 32.72100067138672,25.503000259399414 C41.43899917602539,26.593000411987305 43.981998443603516,13.878999710083008 45.071998596191406,11.336000442504883 C46.1609992980957,8.793000221252441 45.840999603271484,-4.335000038146973 45.840999603271484,-4.335000038146973 C45.840999603271484,-4.335000038146973 28.957000732421875,-2.7209999561309814 10.067999839782715,0.5479999780654907 C-8.821000099182129,3.816999912261963 -28.974000930786133,11.440999984741211 -28.974000930786133,11.440999984741211 C-28.974000930786133,11.440999984741211 -44.612998962402344,17.17799949645996 -44.612998962402344,17.17799949645996"></path></g><g opacity="1" transform="matrix(1,0,0,1,163.05599975585938,46.340999603271484)"><path fill="rgb(255,255,255)" fill-opacity="1" d=" M-8.62399959564209,2.3299999237060547 C-8.62399959564209,2.3299999237060547 -6.808000087738037,15.043999671936035 -4.447000026702881,20.31100082397461 C-2.0850000381469727,25.577999114990234 -1.1770000457763672,26.12299919128418 1.3650000095367432,25.033000946044922 C3.9079999923706055,23.94300079345703 11.39799976348877,16.860000610351562 11.39799976348877,16.860000610351562 C11.39799976348877,16.860000610351562 14.987000465393066,11.593000411987305 8.449000358581543,6.326000213623047 C1.909999966621399,1.059000015258789 -8.987000465393066,3.877000093460083 -8.987000465393066,3.877000093460083"></path><path stroke-linecap="round" stroke-linejoin="round" fill-opacity="0" stroke="rgb(106,131,168)" stroke-opacity="1" stroke-width="7" d=" M-8.62399959564209,2.3299999237060547 C-8.62399959564209,2.3299999237060547 -6.808000087738037,15.043999671936035 -4.447000026702881,20.31100082397461 C-2.0850000381469727,25.577999114990234 -1.1770000457763672,26.12299919128418 1.3650000095367432,25.033000946044922 C3.9079999923706055,23.94300079345703 11.39799976348877,16.860000610351562 11.39799976348877,16.860000610351562 C11.39799976348877,16.860000610351562 14.987000465393066,11.593000411987305 8.449000358581543,6.326000213623047 C1.909999966621399,1.059000015258789 -8.987000465393066,3.877000093460083 -8.987000465393066,3.877000093460083"></path></g><g opacity="1" transform="matrix(1,0,0,1,103.83100128173828,99.46600341796875)"><path stroke-linecap="round" stroke-linejoin="round" fill-opacity="0" stroke="rgb(135,61,41)" stroke-opacity="1" stroke-width="10" d=" M-64.68199920654297,-19.187999725341797 C-50.51499938964844,-28.996000289916992 -37.07500076293945,-38.80400085449219 9.420999526977539,-47.8849983215332 C55.91699981689453,-56.965999603271484 79.6240005493164,-55.45100021362305 77.98600006103516,-36.393001556396484 C77.177001953125,-26.985000610351562 71.21199798583984,-5.811999797821045 59.5880012512207,22.52199935913086 C47.9640007019043,50.85499954223633 25.07900047302246,74.46600341796875 -11.972000122070312,56.303001403808594 C-49.02399826049805,38.14099884033203 -69.29399871826172,12.355999946594238 -73.31500244140625,4.013000011444092 C-77.8759994506836,-5.451000213623047 -72.33100128173828,-13.892000198364258 -64.68199920654297,-19.187999725341797z"></path></g><g opacity="1" transform="matrix(1,0,0,1,0,0)"><g opacity="1" transform="matrix(1,0,0,1,109.65799713134766,127.4739990234375)"><path fill="rgb(244,71,108)" fill-opacity="1" d=" M-57.94499969482422,-1.2089999914169312 C-57.94499969482422,-1.2089999914169312 -49.5,-11.32800006866455 -32.428001403808594,-13.871000289916992 C-15.354999542236328,-16.413000106811523 -2.86299991607666,-12.734000205993652 -2.86299991607666,-12.734000205993652 C-2.86299991607666,-12.734000205993652 11.668000221252441,-25.041000366210938 26.875999450683594,-22.547000885009766 C51.797000885009766,-18.459999084472656 53.08100128173828,-7.84499979019165 53.08100128173828,-7.84499979019165 C53.08100128173828,-7.84499979019165 41.952999114990234,15.89900016784668 24.517000198364258,26.06999969482422 C7.080999851226807,36.24100112915039 -12.20300006866455,33.04100036621094 -32.5989990234375,19.1299991607666 C-50.50400161743164,6.918000221252441 -57.94499969482422,-1.2089999914169312 -57.94499969482422,-1.2089999914169312z"></path><path stroke-linecap="butt" stroke-linejoin="miter" fill-opacity="0" stroke-miterlimit="10" stroke="rgb(170,39,77)" stroke-opacity="1" stroke-width="10" d=" M-57.94499969482422,-1.2089999914169312 C-57.94499969482422,-1.2089999914169312 -49.5,-11.32800006866455 -32.428001403808594,-13.871000289916992 C-15.354999542236328,-16.413000106811523 -2.86299991607666,-12.734000205993652 -2.86299991607666,-12.734000205993652 C-2.86299991607666,-12.734000205993652 11.668000221252441,-25.041000366210938 26.875999450683594,-22.547000885009766 C51.797000885009766,-18.459999084472656 53.08100128173828,-7.84499979019165 53.08100128173828,-7.84499979019165 C53.08100128173828,-7.84499979019165 41.952999114990234,15.89900016784668 24.517000198364258,26.06999969482422 C7.080999851226807,36.24100112915039 -12.20300006866455,33.04100036621094 -32.5989990234375,19.1299991607666 C-50.50400161743164,6.918000221252441 -57.94499969482422,-1.2089999914169312 -57.94499969482422,-1.2089999914169312z"></path></g><g opacity="0.6" transform="matrix(1,0,0,1,114.24500274658203,116.9020004272461)"><path stroke-linecap="round" stroke-linejoin="round" fill-opacity="0" stroke="rgb(170,39,77)" stroke-opacity="1" stroke-width="10" d=" M-9.949999809265137,-4.163000106811523 C-9.949999809265137,-4.163000106811523 -1.7899999618530273,0.1120000034570694 4.041999816894531,10.085000038146973 C9.333000183105469,19.132999420166016 11.175999641418457,25.163000106811523 11.175999641418457,25.163000106811523"></path></g><g opacity="0.67" transform="matrix(1,0,0,1,94.58999633789062,123.35099792480469)"><path fill="rgb(255,125,162)" fill-opacity="1" d=" M-3.9230000972747803,-1.6039999723434448 C0.375,-2.869999885559082 12.720999717712402,-2.5230000019073486 15.58899974822998,4.873000144958496 C19.650999069213867,15.345999717712402 12.791000366210938,18.523000717163086 5.197000026702881,17.215999603271484 C-2.3970000743865967,15.909000396728516 -15.194000244140625,12.541000366210938 -17.35700035095215,7.421999931335449 C-20.635000228881836,-0.335999995470047 -6.75,-0.7720000147819519 -3.9230000972747803,-1.6039999723434448z"></path></g><g opacity="0.58" transform="matrix(1,0,0,1,136.42599487304688,122.1760025024414)"><path fill="rgb(255,125,162)" fill-opacity="1" d=" M-4.533999919891357,-4.385000228881836 C-0.23600000143051147,-5.651000022888184 14.310999870300293,-3.8289999961853027 13.784000396728516,4.086999893188477 C13.23900032043457,12.260000228881836 6.934999942779541,11.651000022888184 -0.6589999794960022,10.343999862670898 C-8.253000259399414,9.036999702453613 -11.942999839782715,8.199000358581543 -12.876999855041504,2.7209999561309814 C-13.810999870300293,-2.75600004196167 -7.361000061035156,-3.552999973297119 -4.533999919891357,-4.385000228881836z"></path></g></g></g></g><g style="display: block;" transform="matrix(1,0,0,1,33.21099853515625,348.81298828125)" opacity="1"><g opacity="1" transform="matrix(1,0,0,1,86.51200103759766,98.45700073242188)"><path fill="rgb(249,214,189)" fill-opacity="1" d=" M-49.66699981689453,-30.125 C-42.82699966430664,-45.09600067138672 -29.659000396728516,-57.63199996948242 -4.914999961853027,-62.180999755859375 C19.82900047302246,-66.7300033569336 53.189998626708984,-46.92300033569336 55.86600112915039,-27.474000930786133 C56.948001861572266,-19.61400032043457 58.80500030517578,23.42300033569336 29.576000213623047,6.78000020980835 C24.902000427246094,4.118000030517578 24.239999771118164,-11.343000411987305 22.947999954223633,-13.9350004196167 C21.256000518798828,-17.33099937438965 9.980999946594238,-11.095000267028809 13.845000267028809,-3.2139999866485596 C16.722999572753906,2.6559998989105225 26.038000106811523,9.854000091552734 31.204999923706055,18.118999481201172 C36.37200164794922,26.382999420166016 38.698001861572266,39.29800033569336 36.167999267578125,47.20199966430664 C33.63800048828125,55.10599899291992 8.87399959564209,76.0999984741211 -24.965999603271484,54.14899826049805 C-58.805999755859375,32.198001861572266 -57.34000015258789,-13.329000473022461 -49.66699981689453,-30.125z"></path></g><g opacity="1" transform="matrix(1,0,0,1,103.77400207519531,65.4489974975586)"><path stroke-linecap="round" stroke-linejoin="round" fill-opacity="0" stroke="rgb(167,85,40)" stroke-opacity="1" stroke-width="10" d=" M32.60200119018555,-4.019999980926514 C32.60200119018555,-4.019999980926514 27.718000411987305,-9.553999900817871 18.43400001525879,-12.01200008392334 C12.098999977111816,-13.689000129699707 2.243000030517578,-13.27400016784668 -3.7239999771118164,-11.28499984741211 C-18.43600082397461,-6.38100004196167 -31.78499984741211,10.420000076293945 -32.60200119018555,13.689000129699707"></path></g><g opacity="1" transform="matrix(1,0,0,1,87.06400299072266,48.76100158691406)"><path stroke-linecap="round" stroke-linejoin="round" fill-opacity="0" stroke="rgb(167,85,40)" stroke-opacity="1" stroke-width="10" d=" M30.05900001525879,-4.76800012588501 C30.05900001525879,-4.76800012588501 15.347000122070312,-14.394000053405762 0.6359999775886536,-9.489999771118164 C-14.076000213623047,-4.585999965667725 -29.242000579833984,11.125 -30.05900001525879,14.394000053405762"></path></g><g opacity="1" transform="matrix(1,0,0,1,108.58699798583984,117.12200164794922)"><path fill="rgb(242,161,107)" fill-opacity="1" d=" M20.886999130249023,-15.008999824523926 C20.886999130249023,-15.008999824523926 25.246000289916992,-36.441001892089844 14.347999572753906,-42.25299835205078 C3.4509999752044678,-48.064998626708984 -5.630000114440918,-46.249000549316406 -14.711999893188477,-37.89400100708008 C-23.792999267578125,-29.538999557495117 -25.246000289916992,-17.915000915527344 -15.800999641418457,-1.9320000410079956 C-6.35699987411499,14.050999641418457 -2.3610000610351562,22.042999267578125 -5.99399995803833,28.944000244140625 C-9.62600040435791,35.84600067138672 -14.347999572753906,43.8380012512207 -14.347999572753906,43.8380012512207 C-14.347999572753906,43.8380012512207 7.447000026702881,49.650001525878906 11.079000473022461,30.034000396728516 C13.73799991607666,15.675999641418457 -7.083000183105469,-17.18899917602539 -1.6349999904632568,-24.09000015258789 C3.813999891281128,-30.992000579833984 9.262999534606934,-17.18899917602539 11.079000473022461,-11.37600040435791 C12.895000457763672,-5.564000129699707 20.886999130249023,-15.008999824523926 20.886999130249023,-15.008999824523926z"></path></g><g opacity="1" transform="matrix(1,0,0,1,86.97200012207031,93.66400146484375)"><path stroke-linecap="round" stroke-linejoin="round" fill-opacity="0" stroke="rgb(167,85,40)" stroke-opacity="1" stroke-width="13" d=" M-45.57699966430664,42.334999084472656 C-59.72100067138672,23.35700035095215 -56.97200012207031,-10.918999671936035 -51.21699905395508,-23.516000747680664 C-44.37699890136719,-38.48699951171875 -29.82900047302246,-54.566001892089844 -5.085000038146973,-59.1150016784668 C19.659000396728516,-63.66400146484375 52.73099899291992,-42.13100051879883 55.40599822998047,-22.680999755859375 C56.487998962402344,-14.821999549865723 56.972999572753906,28.27199935913086 27.7450008392334,11.628000259399414 C24.20800018310547,9.61400032043457 27.7450008392334,0.5600000023841858 26.791000366210938,-4.989999771118164 C26.485000610351562,-6.776000022888184 27.003999710083008,-8.170000076293945 24.61199951171875,-7.85099983215332 C22.569000244140625,-7.578999996185303 12.215999603271484,-2.2660000324249268 15.484999656677246,3.5910000801086426 C18.672000885009766,9.300999641418457 25.577999114990234,14.645999908447266 30.7450008392334,22.910999298095703 C35.9119987487793,31.176000595092773 43.926998138427734,43.03099822998047 37.020999908447266,54.12200164794922 C20.114999771118164,81.27400207519531 -5.840000152587891,77.1510009765625 -22.174999237060547,67.05599975585938 C-32.97200012207031,60.38399887084961 -41.57400131225586,48.34700012207031 -44.487998962402344,44.68600082397461"></path></g></g><g style="display: block;" transform="matrix(0.9800000190734863,0,0,0.9800000190734863,365.8960266113281,329.8778076171875)" opacity="1"><g opacity="1" transform="matrix(1,0,0,1,87.78500366210938,95.70800018310547)"><path fill="rgb(249,214,189)" fill-opacity="1" d=" M41.57099914550781,-46.2140007019043 C31.964000701904297,-59.57899856567383 16.6200008392334,-69.33000183105469 -8.536999702453613,-69.00700378417969 C-33.694000244140625,-68.68299865722656 -62.59299850463867,-42.79600143432617 -61.45600128173828,-23.195999145507812 C-60.99599838256836,-15.276000022888184 -54.49300003051758,27.308000564575195 -29.035999298095703,5.323999881744385 C-24.96500015258789,1.8079999685287476 -27.30699920654297,-13.48799991607666 -26.541000366210938,-16.2810001373291 C-25.538000106811523,-19.94099998474121 -13.270000457763672,-16.003999710083008 -15.53600025177002,-7.525000095367432 C-17.224000930786133,-1.2079999446868896 -24.969999313354492,7.656000137329102 -28.44099998474121,16.763999938964844 C-31.910999298095703,25.871999740600586 -31.69499969482422,38.99300003051758 -27.683000564575195,46.257999420166016 C-23.672000885009766,53.52299880981445 4.685999870300293,69.33000183105469 33.63999938964844,41.24700164794922 C62.59299850463867,13.163999557495117 52.3489990234375,-31.219999313354492 41.57099914550781,-46.2140007019043z"></path></g><g opacity="1" transform="matrix(1,0,0,1,118.40799713134766,93.98300170898438)"><path fill="rgb(242,161,107)" fill-opacity="1" d=" M-27.878999710083008,-59.573001861572266 C-27.878999710083008,-59.573001861572266 6.630000114440918,-46.132999420166016 4.814000129699707,-15.255999565124512 C2.996999979019165,15.619999885559082 -1.725000023841858,27.60700035095215 -6.629000186920166,36.32500076293945 C-11.555000305175781,45.082000732421875 -20.250999450683594,55.395999908447266 -20.250999450683594,55.395999908447266 C-20.250999450683594,55.395999908447266 -1.906999945640564,62.11600112915039 12.987000465393066,25.42799949645996 C27.8799991607666,-11.26099967956543 17.08300018310547,-32.3120002746582 10.947999954223633,-44.4900016784668 C4.813000202178955,-56.66699981689453 -6.447999954223633,-62.11600112915039 -10.081000328063965,-62.11600112915039 C-13.713000297546387,-62.11600112915039 -27.878999710083008,-59.573001861572266 -27.878999710083008,-59.573001861572266z"></path></g><g opacity="1" transform="matrix(1,0,0,1,69.822998046875,59.176998138427734)"><path stroke-linecap="round" stroke-linejoin="round" fill-opacity="0" stroke="rgb(167,85,40)" stroke-opacity="1" stroke-width="10" d=" M-37.05099868774414,10.104999542236328 C-37.05099868774414,10.104999542236328 -35.96200180053711,-2.427000045776367 -18.253999710083008,-10.055000305175781 C-12.234999656677246,-12.64799976348877 7.381999969482422,-12.487000465393066 13.621000289916992,-11.6899995803833 C29.003999710083008,-9.725000381469727 35.617000579833984,9.597999572753906 37.05099868774414,12.64799976348877"></path></g><g opacity="1" transform="matrix(1,0,0,1,89.98300170898438,47.862998962402344)"><path stroke-linecap="round" stroke-linejoin="round" fill-opacity="0" stroke="rgb(167,85,40)" stroke-opacity="1" stroke-width="10" d=" M-34.32699966430664,-4.735000133514404 C-34.32699966430664,-4.735000133514404 -14.756999969482422,-15.970000267028809 0.5450000166893005,-13.45199966430664 C22.06800079345703,-9.90999984741211 32.893001556396484,12.92199993133545 34.32699966430664,15.970999717712402"></path></g><g opacity="1" transform="matrix(1,0,0,1,86.5510025024414,90.29100036621094)"><path stroke-linecap="round" stroke-linejoin="round" fill-opacity="0" stroke="rgb(167,85,40)" stroke-opacity="1" stroke-width="13" d=" M36.66999816894531,47.099998474121094 C51.926998138427734,28.573999404907227 56.55099868774414,-17.118999481201172 49.74700164794922,-29.18199920654297 C43.75299835205078,-39.80699920654297 35.94499969482422,-60.29100036621094 10.788000106811523,-59.96699905395508 C-14.368000030517578,-59.643001556396484 -56.55099868774414,-41.15399932861328 -55.41400146484375,-21.554000854492188 C-54.95399856567383,-13.633999824523926 -51.9010009765625,32.513999938964844 -26.44499969482422,10.531000137329102 C-23.364999771118164,7.869999885559082 -21.766000747680664,0.4230000078678131 -21.90399932861328,-5.206999778747559 C-21.948999404907227,-7.01800012588501 -21.04400062561035,-9.144000053405762 -18.635000228881836,-9.293999671936035 C-16.577999114990234,-9.42199993133545 -13.89799976348877,-6.105999946594238 -15.972000122070312,0.27399998903274536 C-17.993999481201172,6.492000102996826 -23.735000610351562,13.071000099182129 -27.20599937438965,22.18000030517578 C-30.676000595092773,31.288000106811523 -30.459999084472656,44.409000396728516 -26.447999954223633,51.67499923706055 C-24.974000930786133,54.345001220703125 6.208000183105469,86.71199798583984 33.53799819946289,50.180999755859375"></path></g></g><g style="display: block;" transform="matrix(1,0,0,1,15.137008666992188,4.156005859375)" opacity="1"><g opacity="1" transform="matrix(-0.9911206364631653,0.13296565413475037,-0.13296565413475037,-0.9911206364631653,343.3489990234375,189.4669952392578)"><path fill="rgb(247,25,106)" fill-opacity="1" d=" M-35.37099838256836,-5.511000156402588 C-30.466999053955078,-13.684000015258789 7.129000186920166,-25.12700080871582 15.847000122070312,-25.12700080871582 C24.565000534057617,-25.12700080871582 39.277000427246094,-10.960000038146973 38.1870002746582,-5.511000156402588 C37.097999572753906,-0.06199999898672104 1.1360000371932983,10.291000366210938 -18.479999542236328,17.920000076293945 C-37.013999938964844,25.12700080871582 -39.2760009765625,0.996999979019165 -35.37099838256836,-5.511000156402588z"></path></g><g opacity="0" transform="matrix(0.4647800028324127,0,0,0.126460000872612,276.5090026855469,11.156999588012695)"><path fill="rgb(103,226,23)" fill-opacity="1" d=" M-15.322999954223633,-29.80900001525879 C-7.78000020980835,-29.4060001373291 21.573999404907227,-4.413000106811523 26.905000686645508,2.5179998874664307 C32.23699951171875,9.447999954223633 33.35900115966797,27.20199966430664 29.663000106811523,28.666000366210938 C25.968000411987305,30.1299991607666 -1.781000018119812,5.96999979019165 -18.01799964904785,-6.361000061035156 C-33.35900115966797,-18.011999130249023 -21.32900047302246,-30.1299991607666 -15.322999954223633,-29.80900001525879z"></path></g><g opacity="0" transform="matrix(0.18497999012470245,0,0,0.12634000182151794,483.57000732421875,20.249000549316406)"><path fill="rgb(173,16,226)" fill-opacity="1" d=" M-2.6649999618530273,-22.516000747680664 C4.629000186920166,-21.913000106811523 22.020999908447266,-2.438999891281128 24.05900001525879,2.8459999561309814 C26.09600067138672,8.130999565124512 18.875999450683594,21.158000946044922 14.52299976348877,22.07699966430664 C10.168999671936035,22.996000289916992 -6.021999835968018,4.197000026702881 -16.3439998626709,-5.48199987411499 C-26.097000122070312,-14.628000259399414 -8.472999572753906,-22.996000289916992 -2.6649999618530273,-22.516000747680664z"></path></g><g opacity="0" transform="matrix(0.8417800068855286,0,0,0.36353999376296997,370.2969970703125,10.361000061035156)"><path fill="rgb(67,229,14)" fill-opacity="1" d=" M-17.31100082397461,3.124000072479248 C-16.15399932861328,-3.253999948501587 -13.295000076293945,-10.854999542236328 -6.76800012588501,-17.304000854492188 C-0.2409999966621399,-23.753999710083008 14.760000228881836,-20.566999435424805 16.990999221801758,-8.062999725341797 C18.048999786376953,-2.132999897003174 10.282999992370605,19.075000762939453 -1.0959999561309814,21.027999877929688 C-16.986000061035156,23.7549991607666 -18.048999786376953,7.189000129699707 -17.31100082397461,3.124000072479248z"></path></g><g opacity="1" transform="matrix(1.345870018005371,0,0,1.2023299932479858,362.52398681640625,384.9729919433594)"><path fill="rgb(255,255,18)" fill-opacity="1" d=" M-8.878999710083008,-16.05900001525879 C-2.753000020980835,-18.356000900268555 5.236000061035156,-19.641000747680664 13.923999786376953,-16.701000213623047 C22.611000061035156,-13.76099967956543 26.802000045776367,2.694000005722046 16.886999130249023,11.619000434875488 C12.184000015258789,15.85200023651123 -10.01099967956543,19.641000747680664 -17.017000198364258,9.512999534606934 C-26.801000595092773,-4.63100004196167 -12.782999992370605,-14.595000267028809 -8.878999710083008,-16.05900001525879z"></path></g><g opacity="0" transform="matrix(0.2581399977207184,0,0,0.08912000060081482,204.8769989013672,9.236000061035156)"><path fill="rgb(255,21,71)" fill-opacity="1" d=" M4.164999961853027,-16.347000122070312 C9.829000473022461,-13.395999908447266 15.956000328063965,-8.425000190734863 19.42099952697754,-0.17900000512599945 C22.88599967956543,8.067000389099121 13.470999717712402,21.895999908447266 0.46399998664855957,20.5310001373291 C-5.704999923706055,19.884000778198242 -22.88599967956543,6.2220001220703125 -19.961999893188477,-5.511000156402588 C-15.878000259399414,-21.895999908447266 0.5550000071525574,-18.22800064086914 4.164999961853027,-16.347000122070312z"></path></g><g opacity="0" transform="matrix(0.2970599830150604,0,0,-0.0707399994134903,172.3800048828125,4.935999870300293)"><path fill="rgb(123,18,224)" fill-opacity="1" d=" M4.164999961853027,-16.347000122070312 C9.829000473022461,-13.395999908447266 15.956000328063965,-8.425000190734863 19.42099952697754,-0.17900000512599945 C22.88599967956543,8.067000389099121 13.470999717712402,21.895999908447266 0.46399998664855957,20.5310001373291 C-5.704999923706055,19.884000778198242 -22.88599967956543,6.2220001220703125 -19.961999893188477,-5.511000156402588 C-15.878000259399414,-21.895999908447266 0.5550000071525574,-18.22800064086914 4.164999961853027,-16.347000122070312z"></path></g><g opacity="0" transform="matrix(1,0,0,0.298550009727478,426.9809875488281,33.64699935913086)"><path fill="rgb(16,127,226)" fill-opacity="1" d=" M4.210000038146973,-23.46500015258789 C6.646999835968018,-24.959999084472656 9.836000442504883,-23.98900032043457 11.020000457763672,-21.386999130249023 C14.859999656677246,-12.954000473022461 22.270000457763672,3.5869998931884766 21.864999771118164,4.801000118255615 C21.31999969482422,6.435999870300293 -6.468999862670898,24.961000442504883 -9.192999839782715,23.32699966430664 C-11.916999816894531,21.691999435424805 -22.270000457763672,-4.461999893188477 -19.54599952697754,-7.185999870300293 C-17.586999893188477,-9.145000457763672 -2.753000020980835,-19.19300079345703 4.210000038146973,-23.46500015258789z"></path></g><g opacity="0" transform="matrix(1.1071799993515015,0,0,0.5262200236320496,426.9809875488281,33.64699935913086)"><path fill="rgb(67,229,14)" fill-opacity="1" d=" M4.210000038146973,-23.46500015258789 C6.646999835968018,-24.959999084472656 9.836000442504883,-23.98900032043457 11.020000457763672,-21.386999130249023 C14.859999656677246,-12.954000473022461 22.270000457763672,3.5869998931884766 21.864999771118164,4.801000118255615 C21.31999969482422,6.435999870300293 -6.468999862670898,24.961000442504883 -9.192999839782715,23.32699966430664 C-11.916999816894531,21.691999435424805 -22.270000457763672,-4.461999893188477 -19.54599952697754,-7.185999870300293 C-17.586999893188477,-9.145000457763672 -2.753000020980835,-19.19300079345703 4.210000038146973,-23.46500015258789z"></path></g><g opacity="0" transform="matrix(0.31474000215530396,0,0,0.18224000930786133,170.1060028076172,7.124000072479248)"><path fill="rgb(232,74,109)" fill-opacity="1" d=" M22.85300064086914,-15.541999816894531 C25.674999237060547,-14.998000144958496 26.79599952697754,-12.01200008392334 25.2450008392334,-9.16100025177002 C20.215999603271484,0.07999999821186066 10.274999618530273,18.118999481201172 8.958000183105469,18.780000686645508 C7.184999942779541,19.667999267578125 -26.292999267578125,14.616000175476074 -26.54400062561035,11.439000129699707 C-26.795000076293945,8.26200008392334 -10.234999656677246,-19.30699920654297 -6.156000137329102,-19.51799964904785 C-3.2230000495910645,-19.66900062561035 14.788999557495117,-17.09600067138672 22.85300064086914,-15.541999816894531z"></path></g><g opacity="1" transform="matrix(1,0,0,1,60.40999984741211,421.2250061035156)"><path fill="rgb(76,102,229)" fill-opacity="1" d=" M36.79899978637695,10.501999855041504 C35.244998931884766,13.592000007629395 36.44300079345703,15.826000213623047 31.77899932861328,15.831999778747559 C16.660999298095703,15.85200023651123 -28.952999114990234,11.336000442504883 -30.91900062561035,10.468999862670898 C-33.564998626708984,9.303000450134277 -39.189998626708984,-12.248000144958496 -35.823001861572266,-14.050000190734863 C-32.45500183105469,-15.85200023651123 23.555999755859375,-12.739999771118164 27.56599998474121,-9.145999908447266 C30.447999954223633,-6.563000202178955 39.189998626708984,5.747000217437744 36.79899978637695,10.501999855041504z"></path></g><g opacity="1" transform="matrix(1,0,0,1,22.316999435424805,178.781005859375)"><path fill="rgb(242,160,15)" fill-opacity="1" d=" M22.06800079345703,0 C22.06800079345703,13.09000015258789 12.187999725341797,23.70199966430664 0.0010000000474974513,23.70199966430664 C-12.187000274658203,23.70199966430664 -22.06800079345703,13.09000015258789 -22.06800079345703,0 C-22.06800079345703,-13.09000015258789 -12.187000274658203,-23.70199966430664 0.0010000000474974513,-23.70199966430664 C12.187999725341797,-23.70199966430664 22.06800079345703,-13.09000015258789 22.06800079345703,0z"></path></g><g opacity="1" transform="matrix(1.219153881072998,0.045428793877363205,-0.045428793877363205,1.219153881072998,457.9460144042969,319.3590087890625)"><path fill="rgb(255,21,71)" fill-opacity="1" d=" M11.746000289916992,0 C11.746000289916992,6.9670000076293945 6.486999988555908,12.616000175476074 0,12.616000175476074 C-6.486999988555908,12.616000175476074 -11.746000289916992,6.9670000076293945 -11.746000289916992,0 C-11.746000289916992,-6.9670000076293945 -6.486999988555908,-12.616000175476074 0,-12.616000175476074 C6.486999988555908,-12.616000175476074 11.746000289916992,-6.9670000076293945 11.746000289916992,0z"></path></g><g opacity="0" transform="matrix(1.2799999713897705,0,0,1.2799999713897705,449.77301025390625,12.866000175476074)"><path fill="rgb(255,21,71)" fill-opacity="1" d=" M11.746000289916992,0 C11.746000289916992,6.9670000076293945 6.486999988555908,12.616000175476074 0,12.616000175476074 C-6.486999988555908,12.616000175476074 -11.746000289916992,6.9670000076293945 -11.746000289916992,0 C-11.746000289916992,-6.9670000076293945 -6.486999988555908,-12.616000175476074 0,-12.616000175476074 C6.486999988555908,-12.616000175476074 11.746000289916992,-6.9670000076293945 11.746000289916992,0z"></path></g><g opacity="1" transform="matrix(1.5800000429153442,0,0,1.5800000429153442,12.510000228881836,351.2340087890625)"><path fill="rgb(67,229,14)" fill-opacity="1" d=" M11.744999885559082,0 C11.744999885559082,6.9670000076293945 6.486000061035156,12.616000175476074 -0.0010000000474974513,12.616000175476074 C-6.48799991607666,12.616000175476074 -11.744999885559082,6.9670000076293945 -11.744999885559082,0 C-11.744999885559082,-6.9670000076293945 -6.48799991607666,-12.616000175476074 -0.0010000000474974513,-12.616000175476074 C6.486000061035156,-12.616000175476074 11.744999885559082,-6.9670000076293945 11.744999885559082,0z"></path></g></g></g></svg>