<svg xmlns="http://www.w3.org/2000/svg" xmlns:xlink="http://www.w3.org/1999/xlink" viewBox="0 0 512 512" width="512" height="512" style="width: 100%; height: 100%; transform: translate3d(0,0,0); content-visibility: visible;" preserveAspectRatio="xMidYMid meet"><defs><clipPath id="__lottie_element_2"><rect width="512" height="512" x="0" y="0"></rect></clipPath><clipPath id="__lottie_element_7"><path d="M0,0 L512,0 L512,512 L0,512z"></path></clipPath><radialGradient id="__lottie_element_16" spreadMethod="pad" gradientUnits="userSpaceOnUse" cx="-77.41400146484375" cy="-188.67300415039062" r="411.2911124036273" fx="-77.41400146484375" fy="-188.67300415039062"><stop offset="0%" stop-color="rgb(254,240,222)"></stop><stop offset="51%" stop-color="rgb(249,213,185)"></stop><stop offset="86%" stop-color="rgb(244,187,148)"></stop></radialGradient></defs><g clip-path="url(#__lottie_element_2)"><g clip-path="url(#__lottie_element_7)" style="display: block;" transform="matrix(1,0,0,1,0,0)" opacity="1"><g style="display: block;" transform="matrix(1,0,0,1,16.225997924804688,30.426010131835938)" opacity="1"><g opacity="1" transform="matrix(1,0,0,1,232.7429962158203,232.22999572753906)"><path fill="rgb(232,151,104)" fill-opacity="1" d=" M-157.8780059814453,90.93599700927734 C-117.1719970703125,158.5070037841797 -31.176000595092773,204.72999572753906 68.71499633789062,174.32899475097656 C126.83699798583984,156.63900756835938 163.77699279785156,116.375 183.27499389648438,69.03500366210938 C200.6230010986328,26.913000106811523 205.2429962158203,-16.51300048828125 191.697998046875,-65.74199676513672 C183.56100463867188,-95.31900024414062 157.16200256347656,-163.45399475097656 75.4540023803711,-187.88299560546875 C31.775999069213867,-200.9409942626953 -14.678000450134277,-204.72999572753906 -66.90399932861328,-183.67100524902344 C-205.24400329589844,-127.88800048828125 -199.99600219726562,21.020999908447266 -157.8780059814453,90.93599700927734z"></path><path stroke-linecap="butt" stroke-linejoin="miter" fill-opacity="0" stroke-miterlimit="10" stroke="rgb(162,88,50)" stroke-opacity="1" stroke-width="12" d=" M-157.8780059814453,90.93599700927734 C-117.1719970703125,158.5070037841797 -31.176000595092773,204.72999572753906 68.71499633789062,174.32899475097656 C126.83699798583984,156.63900756835938 163.77699279785156,116.375 183.27499389648438,69.03500366210938 C200.6230010986328,26.913000106811523 205.2429962158203,-16.51300048828125 191.697998046875,-65.74199676513672 C183.56100463867188,-95.31900024414062 157.16200256347656,-163.45399475097656 75.4540023803711,-187.88299560546875 C31.775999069213867,-200.9409942626953 -14.678000450134277,-204.72999572753906 -66.90399932861328,-183.67100524902344 C-205.24400329589844,-127.88800048828125 -199.99600219726562,21.020999908447266 -157.8780059814453,90.93599700927734z"></path></g><g opacity="1" transform="matrix(1,0,0,1,245.01100158691406,218.3769989013672)"><path fill="url(#__lottie_element_16)" fill-opacity="1" d=" M-144.6199951171875,89.10199737548828 C-115.83599853515625,134.0449981689453 -43.38100051879883,187.68499755859375 44.06700134277344,165.47500610351562 C170.21299743652344,133.43800354003906 189.2030029296875,41.04800033569336 167.33099365234375,-47.63999938964844 C158.40499877929688,-83.83300018310547 82.81500244140625,-210.77499389648438 -73.0199966430664,-157.98800659179688 C-207.44400024414062,-112.4530029296875 -183.60800170898438,28.22599983215332 -144.6199951171875,89.10199737548828z"></path></g></g><g style="display: block;" transform="matrix(0.9981603026390076,-0.0606304369866848,0.0606304369866848,0.9981603026390076,128.3119659423828,99.13885498046875)" opacity="1"><g opacity="1" transform="matrix(1,0,0,1,0,0)"><g opacity="1" transform="matrix(1,0,0,1,57.520999908447266,91.322998046875)"><path fill="rgb(122,59,44)" fill-opacity="1" d=" M-50.042999267578125,7.723999977111816 C-38,-0.8220000267028809 -28.040000915527344,-6.947999954223633 -8.730999946594238,-12.925000190734863 C11.309000015258789,-19.128999710083008 40.52899932861328,-20.672000885009766 48.941001892089844,-19.39699935913086 C55.90399932861328,-18.341999053955078 57.27199935913086,-9.725000381469727 51.48699951171875,-7.173999786376953 C46.1349983215332,-4.815000057220459 17.316999435424805,-2.7239999771118164 -0.335999995470047,1.8380000591278076 C-17.989999771118164,6.400000095367432 -43.63100051879883,18.368999481201172 -47.611000061035156,19.51099967956543 C-51.65399932861328,20.672000885009766 -54.18899917602539,20.586000442504883 -55.375,17.86400032043457 C-57.270999908447266,13.512999534606934 -51.60599899291992,8.833000183105469 -50.042999267578125,7.723999977111816z"></path></g><g opacity="1" transform="matrix(1,0,0,1,79.7239990234375,91.35099792480469)"><path fill="rgb(122,59,44)" fill-opacity="1" d=" M19.20400047302246,-14.758999824523926 C19.20400047302246,-14.758999824523926 1.4859999418258667,-8.371000289916992 1.4859999418258667,-8.371000289916992 C1.4859999418258667,-8.371000289916992 -25.020999908447266,5.039000034332275 -29.80699920654297,9.418000221252441 C-34.59299850463867,13.79800033569336 -31.465999603271484,17.791000366210938 -26.625,18.215999603271484 C-24.54400062561035,18.39900016784668 -18.389999389648438,15.236000061035156 -12.77299976348877,12.788000106811523 C-4.2769999504089355,9.083999633789062 5.696000099182129,5.025000095367432 12.336000442504883,2.7300000190734863 C23.368000030517578,-1.0809999704360962 32.33300018310547,-2.1730000972747803 33.4630012512207,-5.931000232696533 C34.59299850463867,-9.6899995803833 33.2760009765625,-17.163000106811523 29.9689998626709,-17.895000457763672 C27.695999145507812,-18.39900016784668 19.20400047302246,-14.758999824523926 19.20400047302246,-14.758999824523926z"></path></g></g><g opacity="1" transform="matrix(1,0,0,1,0,0)"><g opacity="1" transform="matrix(1,0,0,1,203.49400329589844,47.25600051879883)"><path fill="rgb(239,155,112)" fill-opacity="1" d=" M-38.39500045776367,19.36199951171875 C-38.39500045776367,19.36199951171875 -38.33599853515625,19.259000778198242 -38.33599853515625,19.259000778198242 C-38.33599853515625,19.259000778198242 -50.939998626708984,12.236000061035156 -50.939998626708984,12.236000061035156 C-49.97200012207031,10.5 -40.630001068115234,-4.919000148773193 -11.019000053405762,-11.555999755859375 C23.82200050354004,-19.363000869750977 49.22999954223633,1.9589999914169312 50.939998626708984,3.259000062942505 C50.939998626708984,3.259000062942505 45.12799835205078,7.617000102996826 45.12799835205078,7.617000102996826 C45.12799835205078,7.617000102996826 45.85499954223633,6.164000034332275 45.85499954223633,6.164000034332275 C45.733001708984375,6.079999923706055 20.37700080871582,-3.802999973297119 -7.86299991607666,2.5250000953674316 C-31.16699981689453,7.748000144958496 -38.111000061035156,18.889999389648438 -38.39500045776367,19.36199951171875z"></path></g><g opacity="1" transform="matrix(1,0,0,1,199.93299865722656,86.35600280761719)"><path fill="rgb(239,155,112)" fill-opacity="1" d=" M-43.130001068115234,-18.7189998626709 C-43.130001068115234,-18.7189998626709 -24.19700050354004,0.09799999743700027 1.4210000038146973,-0.37400001287460327 C16.216999053955078,-0.6470000147819519 29.945999145507812,-1.7890000343322754 37.95800018310547,-2.5810000896453857 C41.15399932861328,-2.8970000743865967 43.130001068115234,0.878000020980835 41.00400161743164,3.2850000858306885 C36.137001037597656,8.795000076293945 26.20599937438965,15.723999977111816 7.035999774932861,15.723999977111816 C-1.4620000123977661,15.723999977111816 -16.923999786376953,18.7189998626709 -27.7810001373291,13.102999687194824 C-42.82899856567383,5.320000171661377 -43.130001068115234,-18.7189998626709 -43.130001068115234,-18.7189998626709z"></path></g><g opacity="1" transform="matrix(1,0,0,1,149.64500427246094,35.44599914550781)"><path fill="rgb(239,155,112)" fill-opacity="1" d=" M-4.447999954223633,-25.83799934387207 C-5.048999786376953,-17.472000122070312 -3.078000068664551,-7.480000019073486 -0.8920000195503235,0.36899998784065247 C1.2929999828338623,8.217000007629395 13.085000038146973,9.409000396728516 13.085000038146973,9.409000396728516 C13.085000038146973,9.409000396728516 19.273000717163086,34.250999450683594 8.654999732971191,34.624000549316406 C-7.620999813079834,35.19499969482422 -13.26099967956543,19.922000885009766 -15.118000030517578,8.791999816894531 C-16.975000381469727,-2.3380000591278076 -19.27199935913086,-19.69700050354004 -16.80299949645996,-29.020000457763672 C-16.187000274658203,-31.344999313354492 -15.109999656677246,-35.19599914550781 -9.128999710083008,-34.44900131225586 C-4.636000156402588,-33.887001037597656 -4.313000202178955,-27.714000701904297 -4.447999954223633,-25.83799934387207z"></path></g><g opacity="1" transform="matrix(1,0,0,1,0,0)"><g opacity="1" transform="matrix(1,0,0,1,204.5229949951172,58.87900161743164)"><path fill="rgb(122,59,44)" fill-opacity="1" d=" M-44.77799987792969,3.822999954223633 C-35.367000579833984,-2.8570001125335693 -29.90399932861328,-7.2779998779296875 -2.8970000743865967,-11.817999839782715 C19.996999740600586,-15.666999816894531 36.78200149536133,-11.0600004196167 39.92499923706055,-10.189000129699707 C44.63100051879883,-8.885000228881836 48.51300048828125,-5.422999858856201 46.042999267578125,-2.124000072479248 C43.573001861572266,1.1749999523162842 34.946998596191406,-0.06400000303983688 23.655000686645508,0.6690000295639038 C12.362000465393066,1.4019999504089355 -7.400000095367432,3.9679999351501465 -18.34000015258789,6.901000022888184 C-29.280000686645508,9.833000183105469 -38.45500183105469,12.765000343322754 -38.45500183105469,12.765000343322754 C-38.45500183105469,12.765000343322754 -44.91699981689453,15.666999816894531 -46.749000549316406,11.482999801635742 C-48.51300048828125,7.449999809265137 -46.0989990234375,4.761000156402588 -44.77799987792969,3.822999954223633z"></path></g><g opacity="1" transform="matrix(1,0,0,1,189.85899353027344,70.52400207519531)"><path fill="rgb(122,59,44)" fill-opacity="1" d=" M23.475000381469727,2.7279999256134033 C15.270000457763672,2.865000009536743 7.692999839782715,3.309000015258789 -4.48199987411499,4.683000087738037 C-16.656999588012695,6.058000087738037 -23.93600082397461,7.570000171661377 -27.642000198364258,5.921000003814697 C-31.347000122070312,4.270999908447266 -33.02399826049805,-1.0440000295639038 -30.642000198364258,-2.9679999351501465 C-28.259000778198242,-4.89300012588501 -1.968999981880188,-7.275000095367432 -1.968999981880188,-7.275000095367432 C-1.968999981880188,-7.275000095367432 21.32699966430664,-7.570000171661377 28.340999603271484,-5.507999897003174 C33.02299880981445,-4.131999969482422 32.290000915527344,-1.1929999589920044 31.149999618530273,0.6690000295639038 C30.222999572753906,2.180999994277954 25.51300048828125,2.694000005722046 23.475000381469727,2.7279999256134033z"></path></g></g></g></g><g style="display: block;" transform="matrix(0.9981603026390076,-0.0606304369866848,0.0606304369866848,0.9981603026390076,344.53973388671875,101.97509002685547)" opacity="1"><g opacity="1" transform="matrix(1,0,0,1,50.310001373291016,43.854000091552734)"><path fill="rgb(102,216,230)" fill-opacity="1" d=" M-15.482999801635742,-19.083999633789062 C-21.94099998474121,-17.68000030517578 -26.082000732421875,-12.878000259399414 -26.9950008392334,-6.166999816894531 C-27.809999465942383,-0.17399999499320984 -23.43199920654297,0.574999988079071 -19.614999771118164,1.4040000438690186 C-15.798999786376953,2.2320001125335693 -3.062000036239624,6.474999904632568 0,7.941999912261963 C17.43600082397461,16.297000885009766 17.98900032043457,21.354000091552734 22.159000396728516,20.656999588012695 C27.809999465942383,19.711999893188477 27.770000457763672,3.5769999027252197 18.163000106811523,-7.676000118255615 C8.335000038146973,-19.18899917602539 -5.041999816894531,-21.354000091552734 -15.482999801635742,-19.083999633789062z"></path></g><g opacity="1" transform="matrix(1,0,0,1,50.310001373291016,43.854000091552734)"><path stroke-linecap="butt" stroke-linejoin="miter" fill-opacity="0" stroke-miterlimit="10" stroke="rgb(45,153,226)" stroke-opacity="1" stroke-width="9" d=" M-15.482999801635742,-19.083999633789062 C-21.94099998474121,-17.68000030517578 -26.082000732421875,-12.878000259399414 -26.9950008392334,-6.166999816894531 C-27.809999465942383,-0.17399999499320984 -23.43199920654297,0.574999988079071 -19.614999771118164,1.4040000438690186 C-15.798999786376953,2.2320001125335693 -3.062000036239624,6.474999904632568 0,7.941999912261963 C17.43600082397461,16.297000885009766 17.98900032043457,21.354000091552734 22.159000396728516,20.656999588012695 C27.809999465942383,19.711999893188477 27.770000457763672,3.5769999027252197 18.163000106811523,-7.676000118255615 C8.335000038146973,-19.18899917602539 -5.041999816894531,-21.354000091552734 -15.482999801635742,-19.083999633789062z"></path></g><g opacity="1" transform="matrix(1,0,0,1,40.85300064086914,34.48099899291992)"><path fill="rgb(255,255,255)" fill-opacity="1" d=" M6.369999885559082,4.60099983215332 C2.496999979019165,6.066999912261963 0.19499999284744263,4.965000152587891 -4.164000034332275,5.510000228881836 C-11.194999694824219,6.388999938964844 -12.329999923706055,3.003999948501587 -11.973999977111816,0.5149999856948853 C-11.156999588012695,-5.205999851226807 -1.1019999980926514,-6.388999938964844 2.555999994277954,-5.570000171661377 C12.329999923706055,-3.38100004196167 8.717000007629395,3.7130000591278076 6.369999885559082,4.60099983215332z"></path></g></g><g style="display: block;" transform="matrix(0.9981603026390076,-0.0606304369866848,0.0606304369866848,0.9981603026390076,55.66595458984375,169.8565216064453)" opacity="1"><g opacity="1" transform="matrix(1,0,0,1,69.83000183105469,58.763999938964844)"><path fill="rgb(102,216,230)" fill-opacity="1" d=" M40.5620002746582,-26.03499984741211 C37.7140007019043,-21.777000427246094 16.843000411987305,0.4050000011920929 10.946000099182129,7.425000190734863 C-3.622999906539917,24.768999099731445 -13.225000381469727,36.263999938964844 -29.39299964904785,27.641000747680664 C-46.2400016784668,18.6560001373291 -47.33000183105469,-3.7929999828338623 -25.461999893188477,-18.9689998626709 C-3.5940001010894775,-34.14500045776367 21.347999572753906,-36.263999938964844 36.930999755859375,-34.80400085449219 C47.33000183105469,-33.82899856567383 42.4109992980957,-28.799999237060547 40.5620002746582,-26.03499984741211z"></path></g><g opacity="1" transform="matrix(1,0,0,1,69.83000183105469,58.763999938964844)"><path stroke-linecap="butt" stroke-linejoin="miter" fill-opacity="0" stroke-miterlimit="10" stroke="rgb(45,153,226)" stroke-opacity="1" stroke-width="9" d=" M40.5620002746582,-26.03499984741211 C37.7140007019043,-21.777000427246094 16.843000411987305,0.4050000011920929 10.946000099182129,7.425000190734863 C-3.622999906539917,24.768999099731445 -13.225000381469727,36.263999938964844 -29.39299964904785,27.641000747680664 C-46.2400016784668,18.6560001373291 -47.33000183105469,-3.7929999828338623 -25.461999893188477,-18.9689998626709 C-3.5940001010894775,-34.14500045776367 21.347999572753906,-36.263999938964844 36.930999755859375,-34.80400085449219 C47.33000183105469,-33.82899856567383 42.4109992980957,-28.799999237060547 40.5620002746582,-26.03499984741211z"></path></g><g opacity="1" transform="matrix(1,0,0,1,47.327999114990234,56.78499984741211)"><path fill="rgb(254,255,255)" fill-opacity="1" d=" M13.043999671936035,-10.439000129699707 C15.805000305175781,-7.116000175476074 11.25100040435791,2.546999931335449 4.386000156402588,7.495999813079834 C-2.4800000190734863,12.444000244140625 -10.282999992370605,13.76200008392334 -13.043999671936035,10.439000129699707 C-15.805000305175781,7.114999771118164 -12.071999549865723,-2.4010000228881836 -5.206999778747559,-7.348999977111816 C1.6579999923706055,-12.29800033569336 10.282999992370605,-13.76200008392334 13.043999671936035,-10.439000129699707z"></path></g><g opacity="1" transform="matrix(1,0,0,1,72.10700225830078,37.64899826049805)"><path fill="rgb(254,255,255)" fill-opacity="1" d=" M7.767000198364258,-3.0950000286102295 C8.458000183105469,-1.2089999914169312 8.196000099182129,1.00600004196167 4.111000061035156,3.828000068664551 C0.8240000009536743,6.0980000495910645 -4.52400016784668,6.239999771118164 -6.215000152587891,4.041999816894531 C-8.456999778747559,1.128000020980835 -6.335999965667725,-1.9270000457763672 -4.451000213623047,-3.444000005722046 C-1.906999945640564,-5.491000175476074 6.614999771118164,-6.239999771118164 7.767000198364258,-3.0950000286102295z"></path></g><g opacity="1" transform="matrix(1,0,0,1,66.45600128173828,63.00600051879883)"><path fill="rgb(131,255,255)" fill-opacity="1" d=" M29.85700035095215,-22.836999893188477 C29.85700035095215,-22.836999893188477 2.9019999504089355,0.18700000643730164 0.8429999947547913,2.434000015258789 C-1.215999960899353,4.679999828338623 -9.07800006866455,12.166999816894531 -13.758000373840332,14.413999557495117 C-18.437999725341797,16.65999984741211 -25.36400032043457,14.038999557495117 -26.861000061035156,13.102999687194824 C-28.358999252319336,12.166999816894531 -29.85700035095215,11.043999671936035 -29.85700035095215,11.043999671936035 C-29.85700035095215,11.043999671936035 -27.986000061035156,17.222000122070312 -20.871999740600586,20.02899932861328 C-13.758999824523926,22.836999893188477 -7.206999778747559,17.969999313354492 -3.2769999504089355,14.788000106811523 C0.6539999842643738,11.605999946594238 18.437000274658203,-10.107999801635742 21.43199920654297,-12.729000091552734 C24.42799949645996,-15.348999977111816 29.85700035095215,-22.836999893188477 29.85700035095215,-22.836999893188477z"></path></g></g><g style="display: block;" transform="matrix(1,0,0,1,141.56500244140625,185.3830108642578)" opacity="1"><g opacity="1" transform="matrix(1,0,0,1,145.02499389648438,95.79900360107422)"><path fill="rgb(239,155,112)" fill-opacity="1" d=" M-118.52899932861328,19.742000579833984 C-123.50900268554688,8.996000289916992 -122.94599914550781,6.2270002365112305 -119.6520004272461,-1.8819999694824219 C-112.35199737548828,-19.851999282836914 -65.55400085449219,-54.29499816894531 -1.1610000133514404,-69.2699966430664 C64.75599670410156,-84.5999984741211 98.81999969482422,-75.7229995727539 104.78800201416016,-73.38800048828125 C117.7040023803711,-68.33399963378906 123.51000213623047,-61.6609992980957 123.50700378417969,-49.428001403808594 C123.50399780273438,-35.172000885009766 116.3550033569336,-23.235000610351562 112.18099975585938,-5.375999927520752 C105.90399932861328,21.486000061035156 98.90799713134766,49.3650016784668 39.178001403808594,66.50499725341797 C-25.402999877929688,85.03700256347656 -62.95199966430664,79.86699676513672 -89.77300262451172,55.48400115966797 C-105.76000213623047,40.95100021362305 -113.54100036621094,30.5049991607666 -118.52899932861328,19.742000579833984z"></path></g><g opacity="1" transform="matrix(1,0,0,1,24.98900032043457,107.62300109863281)"><path fill="rgb(239,155,112)" fill-opacity="1" d=" M22.260000228881836,-42.534000396728516 C24.73900032043457,-52.744998931884766 15.824999809265137,-55.882999420166016 9.531000137329102,-51.183998107910156 C-2.7360000610351562,-42.02799987792969 -17.72599983215332,-27.305999755859375 -20.899999618530273,-7.775000095367432 C-24.73900032043457,15.843999862670898 -9.326000213623047,35.22200012207031 2.11899995803833,48.625999450683594 C8.314000129699707,55.882999420166016 13.553999900817871,50.82699966430664 12.585000038146973,46.44200134277344 C9.196000099182129,31.118999481201172 4.750999927520752,7.624000072479248 6.664999961853027,-2.878000020980835 C8.574000358581543,-13.354000091552734 22.260000228881836,-42.534000396728516 22.260000228881836,-42.534000396728516z"></path></g><g opacity="1" transform="matrix(1,0,0,1,266.1619873046875,48.86800003051758)"><path fill="rgb(239,155,112)" fill-opacity="1" d=" M-21.6560001373291,-31.652000427246094 C-24.45400047302246,-34.560001373291016 -22.482999801635742,-39.22700119018555 -18.320999145507812,-38.849998474121094 C-7.97599983215332,-37.9119987487793 3.934000015258789,-34.007999420166016 11.732999801635742,-24.417999267578125 C24.45400047302246,-8.777999877929688 20.288000106811523,15.097000122070312 19.47800064086914,20.393999099731445 C19.21500015258789,22.113000869750977 17.14699935913086,29.415000915527344 16.41900062561035,32.191001892089844 C15.383000373840332,36.14500045776367 9.727999687194824,39.22600173950195 8,35.40999984741211 C1.937999963760376,22.020000457763672 2.703000068664551,-5.1529998779296875 -1.0889999866485596,-12.27299976348877 C-4.208000183105469,-18.128000259399414 -16.940000534057617,-26.75 -21.6560001373291,-31.652000427246094z"></path></g><g opacity="1" transform="matrix(1,0,0,1,146.51699829101562,108.40699768066406)"><path fill="rgb(221,67,122)" fill-opacity="1" d=" M-114.46700286865234,22.33799934387207 C-120.01599884033203,13.071999549865723 -118.69499969482422,4.459000110626221 -113.22200012207031,-2.371000051498413 C-98.45999908447266,-20.79400062561035 -58.1510009765625,-56.03499984741211 3.8310000896453857,-70.26699829101562 C69.79000091552734,-85.41100311279297 102.4990005493164,-76.03299713134766 108.46700286865234,-73.697998046875 C121.38300323486328,-68.64399719238281 121.947998046875,-66.65299987792969 121.94599914550781,-54.41999816894531 C121.94300079345703,-40.16400146484375 118.38099670410156,-20.861000061035156 114.20700073242188,-3.002000093460083 C107.92900085449219,23.860000610351562 100.04100036621094,45.20600128173828 43.202999114990234,61.37900161743164 C0.4129999876022339,73.55500030517578 -25.798999786376953,79.70500183105469 -48.10499954223633,75.39800262451172 C-59.459999084472656,73.20500183105469 -71.67900085449219,68.54900360107422 -80.71900177001953,59.79499816894531 C-96.24099731445312,44.76599884033203 -107.95899963378906,33.20600128173828 -114.46700286865234,22.33799934387207z"></path><path stroke-linecap="butt" stroke-linejoin="miter" fill-opacity="0" stroke-miterlimit="10" stroke="rgb(160,18,109)" stroke-opacity="1" stroke-width="8" d=" M-114.46700286865234,22.33799934387207 C-120.01599884033203,13.071999549865723 -118.69499969482422,4.459000110626221 -113.22200012207031,-2.371000051498413 C-98.45999908447266,-20.79400062561035 -58.1510009765625,-56.03499984741211 3.8310000896453857,-70.26699829101562 C69.79000091552734,-85.41100311279297 102.4990005493164,-76.03299713134766 108.46700286865234,-73.697998046875 C121.38300323486328,-68.64399719238281 121.947998046875,-66.65299987792969 121.94599914550781,-54.41999816894531 C121.94300079345703,-40.16400146484375 118.38099670410156,-20.861000061035156 114.20700073242188,-3.002000093460083 C107.92900085449219,23.860000610351562 100.04100036621094,45.20600128173828 43.202999114990234,61.37900161743164 C0.4129999876022339,73.55500030517578 -25.798999786376953,79.70500183105469 -48.10499954223633,75.39800262451172 C-59.459999084472656,73.20500183105469 -71.67900085449219,68.54900360107422 -80.71900177001953,59.79499816894531 C-96.24099731445312,44.76599884033203 -107.95899963378906,33.20600128173828 -114.46700286865234,22.33799934387207z"></path></g><g opacity="1" transform="matrix(1,0,0,1,150.01300048828125,110.04299926757812)"><path fill="rgb(88,15,40)" fill-opacity="1" d=" M-106.6989974975586,13.402000427246094 C-106.6989974975586,13.402000427246094 -90.64399719238281,37.4010009765625 -81.27899932861328,46.487998962402344 C-71.91300201416016,55.57400131225586 -71.77200317382812,53.70899963378906 -61.209999084472656,55.80699920654297 C-50.64699935913086,57.90599822998047 -34.89699935913086,49.749000549316406 -34.89699935913086,49.749000549316406 C-34.89699935913086,49.749000549316406 -21.882999420166016,55.14099884033203 -13.491000175476074,50.21500015258789 C-5.0980000495910645,45.28799819946289 24.947999954223633,36.87699890136719 39.02299880981445,32.053001403808594 C53.82899856567383,26.979000091552734 88.46299743652344,16.555999755859375 96.48999786376953,3.9749999046325684 C104.51799774169922,-8.607000350952148 107.06600189208984,-25.674999237060547 108.88999938964844,-41.31800079345703 C110.71299743652344,-56.959999084472656 109.70500183105469,-57.90599822998047 99.78700256347656,-57.893001556396484 C89.86799621582031,-57.88100051879883 88.81300354003906,-56.40399932861328 88.81300354003906,-56.40399932861328 C88.81300354003906,-56.40399932861328 72.31099700927734,-54.53300094604492 52.6879997253418,-56.862998962402344 C44.74100112915039,-57.805999755859375 26.40399932861328,-49.500999450683594 10.640000343322754,-43.6879997253418 C-4.5229997634887695,-38.09600067138672 -30.606000900268555,-26.988000869750977 -39.97100067138672,-22.79400062561035 C-49.33599853515625,-18.600000381469727 -65.69000244140625,-9.24899959564209 -75.7239990234375,-4.355999946594238 C-80.88500213623047,-1.8389999866485596 -89.6259994506836,0.6340000033378601 -93.08300018310547,2.443000078201294 C-96.54000091552734,4.251999855041504 -110.71299743652344,8.277000427246094 -110.71299743652344,8.277000427246094"></path></g><g opacity="1" transform="matrix(1.0755000114440918,0,0,1.191849946975708,-6.3231353759765625,-19.160133361816406)"><path fill="rgb(24,9,14)" fill-opacity="1" d=" M169.58200073242188,76.12000274658203 C154.25599670410156,73.87100219726562 149.25900268554688,82.95800018310547 145.75900268554688,88.35099792480469 C142.25900268554688,93.74400329589844 132.91900634765625,93.21299743652344 125.69400024414062,92.80999755859375 C118.98999786376953,92.43599700927734 106.35800170898438,86.76499938964844 96.06500244140625,96.52899932861328 C84.5780029296875,107.42500305175781 91.22200012207031,129.13299560546875 98.13999938964844,140.58399963378906 C108.22000122070312,157.27000427246094 126.43599700927734,146.03700256347656 126.43599700927734,146.03700256347656 C126.43599700927734,146.03700256347656 147.04800415039062,139.75999450683594 165.54800415039062,136.3280029296875 C184.04800415039062,132.89599609375 201.52699279785156,138.23399353027344 200.822998046875,123.54199981689453 C199.5399932861328,96.76399993896484 185.88099670410156,78.51200103759766 169.58200073242188,76.12000274658203z"></path></g><g opacity="1" transform="matrix(1,0,0,1,0,0)"><path fill="rgb(231,14,86)" fill-opacity="1" d=" M193.42999267578125,111.73100280761719 C175.92999267578125,113.70999908447266 158.92999267578125,125.08699798583984 158.92999267578125,125.08699798583984 C158.92999267578125,125.08699798583984 139.92999267578125,122.61299896240234 123.93000030517578,132.01199340820312 C107.93000030517578,141.41099548339844 87.92500305175781,158.58599853515625 101.42500305175781,161.5540008544922 C114.92500305175781,164.52200317382812 195.91299438476562,136.46800231933594 195.91299438476562,136.46800231933594 C195.91299438476562,136.46800231933594 239.906005859375,118.25299835205078 239.906005859375,118.25299835205078 C239.906005859375,118.25299835205078 235.16400146484375,107.01200103759766 193.42999267578125,111.73100280761719z"></path><path stroke-linecap="round" stroke-linejoin="round" fill-opacity="0" stroke="rgb(167,3,55)" stroke-opacity="1" stroke-width="7" d=" M193.42999267578125,111.73100280761719 C175.92999267578125,113.70999908447266 158.92999267578125,125.08699798583984 158.92999267578125,125.08699798583984 C158.92999267578125,125.08699798583984 139.92999267578125,122.61299896240234 123.93000030517578,132.01199340820312 C107.93000030517578,141.41099548339844 87.92500305175781,158.58599853515625 101.42500305175781,161.5540008544922 C114.92500305175781,164.52200317382812 195.91299438476562,136.46800231933594 195.91299438476562,136.46800231933594 C195.91299438476562,136.46800231933594 239.906005859375,118.25299835205078 239.906005859375,118.25299835205078 C239.906005859375,118.25299835205078 235.16400146484375,107.01200103759766 193.42999267578125,111.73100280761719z"></path></g></g><g style="display: block;" transform="matrix(1,0,0,1,184.5290069580078,254.13101196289062)" opacity="1"><g opacity="1" transform="matrix(1,0,0,1,116.44999694824219,62.25699996948242)"><path fill="rgb(254,255,255)" fill-opacity="1" d=" M-96.44999694824219,22.04199981689453 C-96.44999694824219,22.04199981689453 -86.28500366210938,34.492000579833984 -76.23400115966797,38.888999938964844 C-71.74099731445312,40.85499954223633 -65.14299774169922,36.22200012207031 -65.14299774169922,36.22200012207031 C-65.14299774169922,36.22200012207031 -57.13999938964844,39.73099899291992 -51.525001525878906,37.48500061035156 C-43.10100173950195,34.11600112915039 -40.85499954223633,29.62299919128418 -40.85499954223633,29.62299919128418 C-40.85499954223633,29.62299919128418 -37.57899856567383,36.92399978637695 -24.850000381469727,35.79999923706055 C-14.744000434875488,34.909000396728516 -9.968000411987305,25.691999435424805 -9.968000411987305,25.691999435424805 C-9.968000411987305,25.691999435424805 0.01899999938905239,33.125 9.12600040435791,30.746000289916992 C21.027999877929688,27.63800048828125 23.72599983215332,15.022000312805176 23.72599983215332,15.022000312805176 C23.72599983215332,15.022000312805176 31.589000701904297,22.04199981689453 40.854000091552734,19.79599952697754 C52.01499938964844,17.09000015258789 52.928001403808594,8.003000259399414 52.928001403808594,8.003000259399414 C52.928001403808594,8.003000259399414 58.20600128173828,12.267000198364258 67.24800109863281,6.598999977111816 C74.36199951171875,2.1389999389648438 75.6709976196289,-7.160999774932861 75.6709976196289,-7.160999774932861 C75.6709976196289,-7.160999774932861 82.1240005493164,-1.4950000047683716 86.90299987792969,-9.687999725341797 C88.86900329589844,-13.057000160217285 92.09700012207031,-22.045000076293945 93.36000061035156,-27.09600067138672 C95.04499816894531,-33.834999084472656 96.44999694824219,-40.85499954223633 96.44999694824219,-40.85499954223633 C96.44999694824219,-40.85499954223633 44.43199920654297,-37.444000244140625 -6.372000217437744,-23.042999267578125 C-57.17599868774414,-8.642000198364258 -96.44999694824219,22.04199981689453 -96.44999694824219,22.04199981689453z"></path><path stroke-linecap="round" stroke-linejoin="round" fill-opacity="0" stroke="rgb(118,184,229)" stroke-opacity="1" stroke-width="8" d=" M-96.44999694824219,22.04199981689453 C-96.44999694824219,22.04199981689453 -86.28500366210938,34.492000579833984 -76.23400115966797,38.888999938964844 C-71.74099731445312,40.85499954223633 -65.14299774169922,36.22200012207031 -65.14299774169922,36.22200012207031 C-65.14299774169922,36.22200012207031 -57.13999938964844,39.73099899291992 -51.525001525878906,37.48500061035156 C-43.10100173950195,34.11600112915039 -40.85499954223633,29.62299919128418 -40.85499954223633,29.62299919128418 C-40.85499954223633,29.62299919128418 -37.57899856567383,36.92399978637695 -24.850000381469727,35.79999923706055 C-14.744000434875488,34.909000396728516 -9.968000411987305,25.691999435424805 -9.968000411987305,25.691999435424805 C-9.968000411987305,25.691999435424805 0.01899999938905239,33.125 9.12600040435791,30.746000289916992 C21.027999877929688,27.63800048828125 23.72599983215332,15.022000312805176 23.72599983215332,15.022000312805176 C23.72599983215332,15.022000312805176 31.589000701904297,22.04199981689453 40.854000091552734,19.79599952697754 C52.01499938964844,17.09000015258789 52.928001403808594,8.003000259399414 52.928001403808594,8.003000259399414 C52.928001403808594,8.003000259399414 58.20600128173828,12.267000198364258 67.24800109863281,6.598999977111816 C74.36199951171875,2.1389999389648438 75.6709976196289,-7.160999774932861 75.6709976196289,-7.160999774932861 C75.6709976196289,-7.160999774932861 82.1240005493164,-1.4950000047683716 86.90299987792969,-9.687999725341797 C88.86900329589844,-13.057000160217285 92.09700012207031,-22.045000076293945 93.36000061035156,-27.09600067138672 C95.04499816894531,-33.834999084472656 96.44999694824219,-40.85499954223633 96.44999694824219,-40.85499954223633 C96.44999694824219,-40.85499954223633 44.43199920654297,-37.444000244140625 -6.372000217437744,-23.042999267578125 C-57.17599868774414,-8.642000198364258 -96.44999694824219,22.04199981689453 -96.44999694824219,22.04199981689453z"></path></g><g opacity="1" transform="matrix(1,0,0,1,135.54299926757812,58.827999114990234)"><path stroke-linecap="round" stroke-linejoin="round" fill-opacity="0" stroke="rgb(118,184,229)" stroke-opacity="0.51" stroke-width="7" d=" M-5.474999904632568,-20.179000854492188 C-5.474999904632568,-20.179000854492188 0.28299999237060547,0.27900001406669617 2.5889999866485596,8.967000007629395 C4.895999908447266,17.6560001373291 5.474999904632568,20.179000854492188 5.474999904632568,20.179000854492188"></path></g><g opacity="1" transform="matrix(1,0,0,1,167.781005859375,50.01599884033203)"><path stroke-linecap="round" stroke-linejoin="round" fill-opacity="0" stroke="rgb(118,184,229)" stroke-opacity="0.53" stroke-width="7" d=" M-2.1670000553131104,-22.334999084472656 C-2.1670000553131104,-22.334999084472656 -0.008999999612569809,-1.1920000314712524 0.7710000276565552,7.763000011444092 C1.5520000457763672,16.7189998626709 2.1670000553131104,22.334999084472656 2.1670000553131104,22.334999084472656"></path></g><g opacity="1" transform="matrix(1,0,0,1,192.64500427246094,39.40999984741211)"><path stroke-linecap="round" stroke-linejoin="round" fill-opacity="0" stroke="rgb(118,184,229)" stroke-opacity="0.49" stroke-width="7" d=" M0.46000000834465027,-16.90999984741211 C0.46000000834465027,-16.90999984741211 0.4970000088214874,-3.631999969482422 0.10100000351667404,5.348999977111816 C-0.29499998688697815,14.329999923706055 -0.4970000088214874,16.90999984741211 -0.4970000088214874,16.90999984741211"></path></g><g opacity="1" transform="matrix(1,0,0,1,99.43000030517578,67.75499725341797)"><path stroke-linecap="round" stroke-linejoin="round" fill-opacity="0" stroke="rgb(118,184,229)" stroke-opacity="0.5" stroke-width="7" d=" M-7.210999965667725,-20.05299949645996 C-7.210999965667725,-20.05299949645996 0.3440000116825104,1.6610000133514404 4.499000072479248,12.517999649047852 C7.211999893188477,19.606000900268555 7.051000118255615,20.05299949645996 7.051000118255615,20.05299949645996"></path></g><g opacity="1" transform="matrix(1,0,0,1,68.11000061035156,77.76000213623047)"><path stroke-linecap="round" stroke-linejoin="round" fill-opacity="0" stroke="rgb(118,184,229)" stroke-opacity="0.51" stroke-width="7" d=" M-7.625,-15.243000030517578 C-7.625,-15.243000030517578 2.1510000228881836,5.002999782562256 7.625,15.243000030517578"></path></g><g opacity="1" transform="matrix(1,0,0,1,43.23500061035156,87.177001953125)"><path stroke-linecap="round" stroke-linejoin="round" fill-opacity="0" stroke="rgb(118,184,229)" stroke-opacity="0.55" stroke-width="7" d=" M-8.354000091552734,-11.020999908447266 C-8.354000091552734,-11.020999908447266 1.1929999589920044,1.0529999732971191 3.7200000286102295,4.421999931335449 C6.247000217437744,7.791999816894531 8.354000091552734,11.020999908447266 8.354000091552734,11.020999908447266"></path></g></g><g style="display: block;" transform="matrix(1,0,0,1,156.84799194335938,201.08900451660156)" opacity="1"><g opacity="1" transform="matrix(1,0,0,1,135.0500030517578,80.06099700927734)"><path fill="rgb(254,255,255)" fill-opacity="1" d=" M-86.5260009765625,57.56100082397461 C-86.5260009765625,57.56100082397461 -51.47600173950195,27.825000762939453 11.748000144958496,12.074000358581543 C72.36100006103516,-3.0260000228881836 105.34300231933594,-5.1479997634887695 105.34300231933594,-5.1479997634887695 C105.34300231933594,-5.1479997634887695 107.88500213623047,-20.82900047302246 108.9000015258789,-31.16699981689453 C109.27300262451172,-34.96900177001953 112.55000305175781,-50.821998596191406 102.72200012207031,-51.382999420166016 C93.99700164794922,-51.88199996948242 86.43699645996094,-45.487998962402344 86.43699645996094,-45.487998962402344 C86.43699645996094,-45.487998962402344 81.10199737548828,-57.560001373291016 65.37799835205078,-54.75299835205078 C52.91299819946289,-52.527000427246094 49.74800109863281,-45.20600128173828 49.74800109863281,-45.20600128173828 C49.74800109863281,-45.20600128173828 41.88600158691406,-54.564998626708984 29.7189998626709,-53.06800079345703 C14.97700023651123,-51.25400161743164 10.437999725341797,-32.85200119018555 10.437999725341797,-32.85200119018555 C10.437999725341797,-32.85200119018555 0.8930000066757202,-45.88999938964844 -16.048999786376953,-39.87200164794922 C-33.176998138427734,-33.78799819946289 -30.649999618530273,-17.408000946044922 -30.649999618530273,-17.408000946044922 C-30.649999618530273,-17.408000946044922 -41.31999969482422,-27.51799964904785 -53.67399978637695,-22.46299934387207 C-70.19200134277344,-15.706000328063965 -67.71299743652344,-1.4049999713897705 -67.71299743652344,-1.4049999713897705 C-67.71299743652344,-1.4049999713897705 -82.10800170898438,-5.035999774932861 -91.58000183105469,1.965000033378601 C-98.03800201416016,6.73799991607666 -96.35299682617188,16.566999435424805 -96.35299682617188,16.566999435424805 C-96.35299682617188,16.566999435424805 -107.02300262451172,16.566999435424805 -110.9540023803711,21.621000289916992 C-112.55000305175781,23.672000885009766 -112.51499938964844,28.863000869750977 -108.70800018310547,33.132999420166016 C-108.70800018310547,33.132999420166016 -86.5260009765625,57.56100082397461 -86.5260009765625,57.56100082397461z"></path><path stroke-linecap="round" stroke-linejoin="round" fill-opacity="0" stroke="rgb(118,184,229)" stroke-opacity="1" stroke-width="9" d=" M-86.5260009765625,57.56100082397461 C-86.5260009765625,57.56100082397461 -51.47600173950195,27.825000762939453 11.748000144958496,12.074000358581543 C72.36100006103516,-3.0260000228881836 105.34300231933594,-5.1479997634887695 105.34300231933594,-5.1479997634887695 C105.34300231933594,-5.1479997634887695 107.88500213623047,-20.82900047302246 108.9000015258789,-31.16699981689453 C109.27300262451172,-34.96900177001953 112.55000305175781,-50.821998596191406 102.72200012207031,-51.382999420166016 C93.99700164794922,-51.88199996948242 86.43699645996094,-45.487998962402344 86.43699645996094,-45.487998962402344 C86.43699645996094,-45.487998962402344 81.10199737548828,-57.560001373291016 65.37799835205078,-54.75299835205078 C52.91299819946289,-52.527000427246094 49.74800109863281,-45.20600128173828 49.74800109863281,-45.20600128173828 C49.74800109863281,-45.20600128173828 41.88600158691406,-54.564998626708984 29.7189998626709,-53.06800079345703 C14.97700023651123,-51.25400161743164 10.437999725341797,-32.85200119018555 10.437999725341797,-32.85200119018555 C10.437999725341797,-32.85200119018555 0.8930000066757202,-45.88999938964844 -16.048999786376953,-39.87200164794922 C-33.176998138427734,-33.78799819946289 -30.649999618530273,-17.408000946044922 -30.649999618530273,-17.408000946044922 C-30.649999618530273,-17.408000946044922 -41.31999969482422,-27.51799964904785 -53.67399978637695,-22.46299934387207 C-70.19200134277344,-15.706000328063965 -67.71299743652344,-1.4049999713897705 -67.71299743652344,-1.4049999713897705 C-67.71299743652344,-1.4049999713897705 -82.10800170898438,-5.035999774932861 -91.58000183105469,1.965000033378601 C-98.03800201416016,6.73799991607666 -96.35299682617188,16.566999435424805 -96.35299682617188,16.566999435424805 C-96.35299682617188,16.566999435424805 -107.02300262451172,16.566999435424805 -110.9540023803711,21.621000289916992 C-112.55000305175781,23.672000885009766 -112.51499938964844,28.863000869750977 -108.70800018310547,33.132999420166016 C-108.70800018310547,33.132999420166016 -86.5260009765625,57.56100082397461 -86.5260009765625,57.56100082397461z"></path></g><g opacity="0.51" transform="matrix(1,0,0,1,149.9199981689453,64.21800231933594)"><path stroke-linecap="round" stroke-linejoin="round" fill-opacity="0" stroke="rgb(118,184,229)" stroke-opacity="1" stroke-width="7" d=" M-6.811999797821045,-21.312000274658203 C-6.811999797821045,-21.312000274658203 -0.8939999938011169,-3.8910000324249268 1.7630000114440918,4.410999774932861 C4.421000003814697,12.71399974822998 6.811999797821045,21.312000274658203 6.811999797821045,21.312000274658203"></path></g><g opacity="1" transform="matrix(1,0,0,1,110.68199920654297,77.94300079345703)"><path stroke-linecap="round" stroke-linejoin="round" fill-opacity="0" stroke="rgb(118,184,229)" stroke-opacity="0.54" stroke-width="7" d=" M-7.684999942779541,-19.222000122070312 C-7.684999942779541,-19.222000122070312 -1.930999994277954,-5.3480000495910645 1.3569999933242798,2.73799991607666 C4.644999980926514,10.822999954223633 7.684999942779541,19.222000122070312 7.684999942779541,19.222000122070312"></path></g><g opacity="1" transform="matrix(1,0,0,1,76.3219985961914,95.64399719238281)"><path stroke-linecap="round" stroke-linejoin="round" fill-opacity="0" stroke="rgb(118,184,229)" stroke-opacity="0.56" stroke-width="7" d=" M-9.545999526977539,-17.26799964904785 C-9.545999526977539,-17.26799964904785 -3.75,-7.7179999351501465 0.5609999895095825,-0.14000000059604645 C4.872000217437744,7.436999797821045 9.545999526977539,17.26799964904785 9.545999526977539,17.26799964904785"></path></g><g opacity="1" transform="matrix(1,0,0,1,189.10299682617188,56.56800079345703)"><path stroke-linecap="round" stroke-linejoin="round" fill-opacity="0" stroke="rgb(118,184,229)" stroke-opacity="0.5700000000000001" stroke-width="7" d=" M-4.118000030517578,-22.275999069213867 C-4.118000030517578,-22.275999069213867 -0.9359999895095825,-8.79699993133545 1.1579999923706055,3.7239999771118164 C2.5959999561309814,12.322999954223633 4.118000030517578,22.275999069213867 4.118000030517578,22.275999069213867"></path></g><g opacity="1" transform="matrix(1,0,0,1,220.74000549316406,53.73899841308594)"><path stroke-linecap="round" stroke-linejoin="round" fill-opacity="0" stroke="rgb(118,184,229)" stroke-opacity="0.51" stroke-width="7" d=" M-0.5630000233650208,-20.381999969482422 C-0.5630000233650208,-20.381999969482422 -0.23999999463558197,-5.73199987411499 0.00800000037997961,2.9830000400543213 C0.2549999952316284,11.696999549865723 0.5630000233650208,20.381999969482422 0.5630000233650208,20.381999969482422"></path></g><g opacity="1" transform="matrix(1,0,0,1,49.22600173950195,111.08699798583984)"><path stroke-linecap="round" stroke-linejoin="round" fill-opacity="0" stroke="rgb(118,184,229)" stroke-opacity="0.61" stroke-width="7" d=" M11.652999877929688,14.741000175476074 C11.652999877929688,14.741000175476074 -11.652999877929688,-14.741000175476074 -11.652999877929688,-14.741000175476074"></path></g></g><g style="display: block;" transform="matrix(0.9981603026390076,-0.0606304369866848,0.0606304369866848,0.9981603026390076,155.4717254638672,98.12928771972656)" opacity="1"><g opacity="1" transform="matrix(1,0,0,1,40.56399917602539,42.46699905395508)"><path fill="rgb(81,24,21)" fill-opacity="1" d=" M19.770999908447266,-8.835000038146973 C8.531000137329102,-12.854000091552734 -14.237000465393066,-15.312000274658203 -24.525999069213867,-13.614999771118164 C-33.39699935913086,-12.154000282287598 -38.51300048828125,-8.359999656677246 -39.733001708984375,-2.3389999866485596 C-40.31399917602539,0.5270000100135803 -39.73500061035156,3.1579999923706055 -38.10200119018555,5.068999767303467 C-35.922000885009766,7.61899995803833 -32.053001403808594,8.793000221252441 -26.590999603271484,8.553000450134277 C-17.9689998626709,8.177000045776367 -8.649999618530273,8.031000137329102 1.0700000524520874,9.494999885559082 C11.14900016784668,11.01200008392334 26.861000061035156,14.845999717712402 26.990999221801758,14.878000259399414 C27.110000610351562,14.909000396728516 28.68000030517578,15.312000274658203 30.6560001373291,15.312000274658203 C32.34600067138672,15.312000274658203 34.334999084472656,15.017000198364258 35.9630012512207,13.937000274658203 C37.62799835205078,12.833000183105469 38.63199996948242,11.147000312805176 38.94900131225586,8.928000450134277 C40.31399917602539,-0.6690000295639038 31.070999145507812,-4.795000076293945 19.770999908447266,-8.835000038146973z"></path></g><g opacity="1" transform="matrix(1,0,0,1,148.60800170898438,23.023000717163086)"><path fill="rgb(81,24,21)" fill-opacity="1" d=" M27.111000061035156,-14.215999603271484 C26.31100082397461,-17.382999420166016 23.79199981689453,-20.18400001525879 20.84000015258789,-21.187999725341797 C16.18000030517578,-22.77400016784668 12.739999771118164,-21.82200050354004 10.22700023651123,-21.128999710083008 C10.22700023651123,-21.128999710083008 9.944999694824219,-21.051000595092773 9.944999694824219,-21.051000595092773 C2.6449999809265137,-19.048999786376953 -7.014999866485596,-15.371000289916992 -17.009000778198242,-4.603000164031982 C-24.62299919128418,3.6010000705718994 -27.7810001373291,9.720999717712402 -26.944000244140625,14.654999732971191 C-26.430999755859375,17.679000854492188 -24.384000778198242,20.158000946044922 -20.860000610351562,22.02199935913086 C-19.881000518798828,22.540000915527344 -18.892000198364258,22.773000717163086 -17.892000198364258,22.773000717163086 C-13.503000259399414,22.773000717163086 -8.90999984741211,18.275999069213867 -4.098999977111816,13.5649995803833 C-1.8380000591278076,11.35099983215332 0.49900001287460327,9.0600004196167 2.944999933242798,7.060999870300293 C7.3520002365112305,3.4590001106262207 11.944000244140625,1.0679999589920044 15.994999885559082,-1.0429999828338623 C19.889999389648438,-3.072000026702881 23.2549991607666,-4.824999809265137 25.402000427246094,-7.138999938964844 C27.173999786376953,-9.04800033569336 27.7810001373291,-11.562999725341797 27.111000061035156,-14.215999603271484z"></path></g></g></g><g style="display: block;" transform="matrix(1,0,0,1,256,256)" opacity="1"></g></g></svg>