<svg xmlns="http://www.w3.org/2000/svg" xmlns:xlink="http://www.w3.org/1999/xlink" viewBox="0 0 512 512" width="512" height="512" style="width: 100%; height: 100%; transform: translate3d(0,0,0); content-visibility: visible;" preserveAspectRatio="xMidYMid meet"><defs><clipPath id="__lottie_element_2"><rect width="512" height="512" x="0" y="0"></rect></clipPath><linearGradient id="__lottie_element_17" spreadMethod="pad" gradientUnits="userSpaceOnUse" x1="-63.26100158691406" y1="-30.187000274658203" x2="67.80599975585938" y2="40.917999267578125"><stop offset="0%" stop-color="rgb(247,198,164)"></stop><stop offset="48%" stop-color="rgb(245,179,137)"></stop><stop offset="100%" stop-color="rgb(244,159,109)"></stop></linearGradient><linearGradient id="__lottie_element_20" spreadMethod="pad" gradientUnits="userSpaceOnUse" x1="34.9900016784668" y1="-18.33799934387207" x2="-40.57400131225586" y2="31.305999755859375"><stop offset="0%" stop-color="rgb(247,198,164)"></stop><stop offset="48%" stop-color="rgb(245,179,137)"></stop><stop offset="100%" stop-color="rgb(244,159,109)"></stop></linearGradient><radialGradient id="__lottie_element_24" spreadMethod="pad" gradientUnits="userSpaceOnUse" cx="196.13699340820312" cy="-125.38600158691406" r="422.72330780010486" fx="196.13699340820312" fy="-125.38600158691406"><stop offset="0%" stop-color="rgb(252,187,147)"></stop><stop offset="48%" stop-color="rgb(247,169,121)"></stop><stop offset="100%" stop-color="rgb(241,150,96)"></stop></radialGradient><radialGradient id="__lottie_element_25" spreadMethod="pad" gradientUnits="userSpaceOnUse" cx="93.03900146484375" cy="-69.83999633789062" r="414.2333541503137" fx="93.03900146484375" fy="-69.83999633789062"><stop offset="0%" stop-color="rgb(249,223,201)"></stop><stop offset="48%" stop-color="rgb(246,191,155)"></stop><stop offset="100%" stop-color="rgb(244,159,109)"></stop></radialGradient></defs><g clip-path="url(#__lottie_element_2)"><g style="display: block;" transform="matrix(0.9586670398712158,0.034000564366579056,-0.03322611004114151,0.981012225151062,239.0582275390625,307.08013916015625)" opacity="1"><g opacity="1" transform="matrix(1,0,0,1,87.83699798583984,77.55599975585938)"><path fill="rgb(246,186,148)" fill-opacity="1" d=" M-23.570999145507812,-39.444000244140625 C-23.570999145507812,-39.444000244140625 -9.404000282287598,-10.565999984741211 1.2209999561309814,-7.296000003814697 C21.283000946044922,-1.1230000257492065 42.08700180053711,-14.923999786376953 42.08700180053711,-14.923999786376953 C42.08700180053711,-14.923999786376953 57.34600067138672,-5.179999828338623 60.07400131225586,11.734000205993652 C62.801998138427734,28.64900016784668 60.07400131225586,41.196998596191406 55.16400146484375,41.74300003051758 C50.25299835205078,42.28799819946289 23.483999252319336,52.520999908447266 -6.952000141143799,40.92599868774414 C-41.27899932861328,27.849000930786133 -48.24599838256836,-5.2129998207092285 -49.724998474121094,-10.020999908447266 C-62.801998138427734,-52.520999908447266 -23.570999145507812,-39.444000244140625 -23.570999145507812,-39.444000244140625z"></path><path stroke-linecap="round" stroke-linejoin="round" fill-opacity="0" stroke="rgb(183,99,57)" stroke-opacity="1" stroke-width="10.014" d=" M-23.570999145507812,-39.444000244140625 C-23.570999145507812,-39.444000244140625 -9.404000282287598,-10.565999984741211 1.2209999561309814,-7.296000003814697 C21.283000946044922,-1.1230000257492065 42.08700180053711,-14.923999786376953 42.08700180053711,-14.923999786376953 C42.08700180053711,-14.923999786376953 57.34600067138672,-5.179999828338623 60.07400131225586,11.734000205993652 C62.801998138427734,28.64900016784668 60.07400131225586,41.196998596191406 55.16400146484375,41.74300003051758 C50.25299835205078,42.28799819946289 23.483999252319336,52.520999908447266 -6.952000141143799,40.92599868774414 C-41.27899932861328,27.849000930786133 -48.24599838256836,-5.2129998207092285 -49.724998474121094,-10.020999908447266 C-62.801998138427734,-52.520999908447266 -23.570999145507812,-39.444000244140625 -23.570999145507812,-39.444000244140625z"></path></g><g opacity="1" transform="matrix(1,0,0,1,93.50800323486328,108.22000122070312)"><path fill="rgb(235,143,89)" fill-opacity="1" d=" M-37.59600067138672,-14.166999816894531 C-37.59600067138672,-14.166999816894531 -15.802000045776367,-1.090000033378601 3.813999891281128,2.178999900817871 C23.429000854492188,5.448999881744385 37.59600067138672,3.2690000534057617 37.59600067138672,3.2690000534057617 C37.59600067138672,3.2690000534057617 36.50600051879883,8.354999542236328 32.5099983215332,9.444000244140625 C28.514999389648438,10.534000396728516 11.079000473022461,14.166999816894531 -7.809999942779541,8.718000411987305 C-26.698999404907227,3.2690000534057617 -31.78499984741211,-2.180000066757202 -31.78499984741211,-2.180000066757202 C-31.78499984741211,-2.180000066757202 -37.59600067138672,-14.166999816894531 -37.59600067138672,-14.166999816894531z"></path></g></g><g style="display: block;" transform="matrix(0.9586670398712158,0.034000564366579056,-0.03322611004114151,0.981012225151062,239.0582275390625,307.08013916015625)" opacity="1"><g opacity="1" transform="matrix(1,0,0,1,170.71200561523438,96.15299987792969)"><path fill="rgb(255,199,161)" fill-opacity="1" d=" M-11.64799976348877,-35.79100036621094 C-11.64799976348877,-35.79100036621094 2.818000078201294,-43.02199935913086 13.425999641418457,-41.150001525878906 C22.68899917602539,-39.51499938964844 29.5,-34.88399887084961 35.76599884033203,-19.899999618530273 C39.97100067138672,-9.843999862670898 39.494998931884766,8.057000160217285 35.49399948120117,18.242000579833984 C32.5890007019043,25.635000228881836 22.906999588012695,38.172000885009766 9.32699966430664,40.59700012207031 C-4.252999782562256,43.02299880981445 -21.347999572753906,40.54199981689453 -24.493000030517578,38.77799987792969 C-30.344999313354492,35.49599838256836 -33.97600173950195,30.591999053955078 -34.70399856567383,29.864999771118164 C-35.430999755859375,29.136999130249023 -39.97200012207031,25.14299964904785 -39.97200012207031,25.14299964904785"></path><path stroke-linecap="round" stroke-linejoin="round" fill-opacity="0" stroke="rgb(183,99,57)" stroke-opacity="1" stroke-width="10.014" d=" M-11.64799976348877,-35.79100036621094 C-11.64799976348877,-35.79100036621094 2.818000078201294,-43.02199935913086 13.425999641418457,-41.150001525878906 C22.68899917602539,-39.51499938964844 29.5,-34.88399887084961 35.76599884033203,-19.899999618530273 C39.97100067138672,-9.843999862670898 39.494998931884766,8.057000160217285 35.49399948120117,18.242000579833984 C32.5890007019043,25.635000228881836 22.906999588012695,38.172000885009766 9.32699966430664,40.59700012207031 C-4.252999782562256,43.02299880981445 -21.347999572753906,40.54199981689453 -24.493000030517578,38.77799987792969 C-30.344999313354492,35.49599838256836 -33.97600173950195,30.591999053955078 -34.70399856567383,29.864999771118164 C-35.430999755859375,29.136999130249023 -39.97200012207031,25.14299964904785 -39.97200012207031,25.14299964904785"></path></g><g opacity="1" transform="matrix(1,0,0,1,164.822998046875,98.59400177001953)"><path fill="rgb(246,186,148)" fill-opacity="1" d=" M-38.441001892089844,-2.5429999828338623 C-40.24300003051758,-9.597000122070312 -40.98400115966797,-24.33799934387207 -29.722999572753906,-30.332000732421875 C-18.461999893188477,-36.32500076293945 9.145000457763672,-36.32500076293945 17.863000869750977,-29.968000411987305 C26.58099937438965,-23.61199951171875 40.98400115966797,7.297999858856201 24.038000106811523,26.8799991607666 C15.864999771118164,36.32500076293945 -12.468999862670898,29.785999298095703 -15.73799991607666,26.698999404907227 C-19.006999969482422,23.611000061035156 -25.406999588012695,17.708999633789062 -26.635000228881836,17.072999954223633 C-31.538999557495117,14.529999732971191 -37.02399826049805,3.002000093460083 -38.441001892089844,-2.5429999828338623z"></path></g><g opacity="1" transform="matrix(1,0,0,1,166.1580047607422,112.21499633789062)"><path fill="rgb(235,143,89)" fill-opacity="1" d=" M-34.73500061035156,-0.9539999961853027 C-34.73500061035156,-0.9539999961853027 -24.246999740600586,4.460000038146973 -17.43600082397461,6.9120001792907715 C-10.625,9.36400032043457 2.453000068664551,10.079999923706055 8.446000099182129,9.26200008392334 C14.4399995803833,8.444999694824219 26.15399932861328,3.2690000534057617 31.329999923706055,-4.631999969482422 C36.50699996948242,-12.532999992370605 36.50699996948242,-21.523000717163086 36.50699996948242,-21.523000717163086 C36.50699996948242,-21.523000717163086 41.95500183105469,-7.083000183105469 34.05500030517578,3.2699999809265137 C26.15399932861328,13.621999740600586 21.795000076293945,17.70800018310547 13.07699966430664,19.614999771118164 C4.359000205993652,21.52199935913086 -5.175000190734863,20.433000564575195 -10.62399959564209,19.888999938964844 C-16.072999954223633,19.3439998626709 -20.704999923706055,17.572999954223633 -23.156999588012695,14.576000213623047 C-25.608999252319336,11.579000473022461 -32.198001861572266,5.539999961853027 -33.91899871826172,5.448999881744385 C-36.50699996948242,5.313000202178955 -41.95500183105469,6.265999794006348 -41.95500183105469,6.265999794006348 C-41.95500183105469,6.265999794006348 -36.77899932861328,-1.090000033378601 -36.77899932861328,-1.090000033378601 C-36.77899932861328,-1.090000033378601 -34.73500061035156,-0.9539999961853027 -34.73500061035156,-0.9539999961853027z"></path></g><g opacity="1" transform="matrix(1,0,0,1,161.5260009765625,88.24099731445312)"><path fill="rgb(234,143,89)" fill-opacity="1" d=" M-16.461000442504883,-17.163000106811523 C-16.461000442504883,-17.163000106811523 -25.724000930786133,4.360000133514404 -20.54800033569336,9.262999534606934 C-15.371000289916992,14.166999816894531 -10.194999694824219,17.163999557495117 2.881999969482422,16.892000198364258 C15.958999633789062,16.618999481201172 19.500999450683594,11.71500015258789 20.590999603271484,9.807999610900879 C21.68000030517578,7.901000022888184 20.04599952697754,1.6349999904632568 20.04599952697754,1.6349999904632568 C20.04599952697754,1.6349999904632568 1.5199999809265137,-14.982999801635742 1.5199999809265137,-14.982999801635742 C1.5199999809265137,-14.982999801635742 -9.92199993133545,-8.444999694824219 -9.92199993133545,-8.444999694824219 C-9.92199993133545,-8.444999694824219 -16.461000442504883,-17.163000106811523 -16.461000442504883,-17.163000106811523z"></path></g><g opacity="1" transform="matrix(1,0,0,1,156.1750030517578,73.37200164794922)"><path fill="rgb(246,186,148)" fill-opacity="1" d=" M-28.614999771118164,-2.7890000343322754 C-28.614999771118164,-2.7890000343322754 -25.46299934387207,-9.336999893188477 -23.764999389648438,-14.67199993133545 C-22.06800079345703,-20.006999969482422 -1.2130000591278076,-24.371999740600586 11.154999732971191,-21.70400047302246 C23.523000717163086,-19.03700065612793 24.976999282836914,-7.638000011444092 26.190000534057617,1.5770000219345093 C27.402000427246094,10.791999816894531 28.614999771118164,15.640999794006348 24.25,19.520999908447266 C19.885000228881836,23.400999069213867 10.670000076293945,24.371999740600586 4.122000217437744,22.673999786376953 C-2.424999952316284,20.976999282836914 -6.789999961853027,18.30900001525879 -6.789999961853027,11.034000396728516 C-6.789999961853027,3.759000062942505 -4.60699987411499,-2.546999931335449 -4.60699987411499,-2.546999931335449"></path><path stroke-linecap="round" stroke-linejoin="round" fill-opacity="0" stroke="rgb(183,99,57)" stroke-opacity="1" stroke-width="10.014" d=" M-28.614999771118164,-2.7890000343322754 C-28.614999771118164,-2.7890000343322754 -25.46299934387207,-9.336999893188477 -23.764999389648438,-14.67199993133545 C-22.06800079345703,-20.006999969482422 -1.2130000591278076,-24.371999740600586 11.154999732971191,-21.70400047302246 C23.523000717163086,-19.03700065612793 24.976999282836914,-7.638000011444092 26.190000534057617,1.5770000219345093 C27.402000427246094,10.791999816894531 28.614999771118164,15.640999794006348 24.25,19.520999908447266 C19.885000228881836,23.400999069213867 10.670000076293945,24.371999740600586 4.122000217437744,22.673999786376953 C-2.424999952316284,20.976999282836914 -6.789999961853027,18.30900001525879 -6.789999961853027,11.034000396728516 C-6.789999961853027,3.759000062942505 -4.60699987411499,-2.546999931335449 -4.60699987411499,-2.546999931335449"></path></g></g><g style="display: block;" transform="matrix(0.9592427015304565,0,0,0.9816012382507324,75.09307861328125,315.8363342285156)" opacity="1"><g opacity="1" transform="matrix(0.9459800124168396,0,0,0.8899999856948853,7.314849853515625,9.986351013183594)"><g opacity="1" transform="matrix(1,0,0,1,134.74099731445312,98.1719970703125)"><path fill="rgb(246,184,144)" fill-opacity="1" d=" M-101.12999725341797,33.1510009765625 C-101.12999725341797,33.1510009765625 -86.81099700927734,-16.535999298095703 -75.36299896240234,-34.34299850463867 C-63.91600036621094,-52.150001525878906 -53.104000091552734,-66.14199829101562 -53.104000091552734,-66.14199829101562 C-53.104000091552734,-66.14199829101562 -2.861999988555908,-67.41400146484375 27.02899932861328,-69.32099914550781 C56.91999816894531,-71.22899627685547 109.70600128173828,-73.13700103759766 109.70600128173828,-73.13700103759766 C109.70600128173828,-73.13700103759766 98.89399719238281,-48.33399963378906 102.0739974975586,-9.539999961853027 C105.25399780273438,29.2549991607666 104.01000213623047,40.13100051879883 102.73799896240234,44.58300018310547 C101.46600341796875,49.03499984741211 72.18299865722656,73.13700103759766 -18.76099967956543,68.04900360107422 C-109.70600128173828,62.96099853515625 -101.12999725341797,33.1510009765625 -101.12999725341797,33.1510009765625z"></path><path stroke-linecap="round" stroke-linejoin="round" fill-opacity="0" stroke="rgb(183,99,57)" stroke-opacity="1" stroke-width="12" d=" M-101.12999725341797,33.1510009765625 C-101.12999725341797,33.1510009765625 -86.81099700927734,-16.535999298095703 -75.36299896240234,-34.34299850463867 C-63.91600036621094,-52.150001525878906 -53.104000091552734,-66.14199829101562 -53.104000091552734,-66.14199829101562 C-53.104000091552734,-66.14199829101562 -2.861999988555908,-67.41400146484375 27.02899932861328,-69.32099914550781 C56.91999816894531,-71.22899627685547 109.70600128173828,-73.13700103759766 109.70600128173828,-73.13700103759766 C109.70600128173828,-73.13700103759766 98.89399719238281,-48.33399963378906 102.0739974975586,-9.539999961853027 C105.25399780273438,29.2549991607666 104.01000213623047,40.13100051879883 102.73799896240234,44.58300018310547 C101.46600341796875,49.03499984741211 72.18299865722656,73.13700103759766 -18.76099967956543,68.04900360107422 C-109.70600128173828,62.96099853515625 -101.12999725341797,33.1510009765625 -101.12999725341797,33.1510009765625z"></path></g><g opacity="1" transform="matrix(1,0,0,1,134.13900756835938,151.15499877929688)"><path fill="rgb(246,184,144)" fill-opacity="1" d=" M-94.0250015258789,-23.667999267578125 C-94.0250015258789,-23.667999267578125 -95.7959976196289,-19.17300033569336 -96.34100341796875,-17.06100082397461 C-96.8949966430664,-14.914999961853027 -95.74600219726562,-11.47599983215332 -102.06199645996094,-11.272000312805176 C-104.1729965209961,-11.204000473022461 -105.53600311279297,-13.723999977111816 -105.53600311279297,-13.723999977111816 C-105.53600311279297,-13.723999977111816 -102.06199645996094,-2.2139999866485596 -91.16400146484375,4.324999809265137 C-80.26699829101562,10.86400032043457 -46.21200180053711,23.667999267578125 3.371999979019165,23.12299919128418 C55.422000885009766,22.551000595092773 87.7969970703125,8.555000305175781 96.27300262451172,4.052999973297119 C102.08499908447266,0.9649999737739563 105.53600311279297,-2.757999897003174 105.53600311279297,-2.757999897003174 C105.53600311279297,-2.757999897003174 102.08499908447266,-1.850000023841858 99.90499877929688,-4.574999809265137 C98.93199920654297,-5.790999889373779 98.96099853515625,-8.911999702453613 99.13400268554688,-11.067999839782715 C99.3479995727539,-13.741000175476074 99.2699966430664,-16.652999877929688 99.2699966430664,-16.652999877929688 C99.2699966430664,-16.652999877929688 57.31399917602539,-0.03400000184774399 57.31399917602539,-0.03400000184774399 C57.31399917602539,-0.03400000184774399 42.60300064086914,4.052999973297119 21.625,7.593999862670898 C0.6470000147819519,11.13599967956543 -33.40800094604492,5.142000198364258 -47.02899932861328,0.5109999775886536 C-60.6510009765625,-4.120999813079834 -77.81500244140625,-14.472999572753906 -77.81500244140625,-14.472999572753906 C-77.81500244140625,-14.472999572753906 -94.0250015258789,-23.667999267578125 -94.0250015258789,-23.667999267578125z"></path></g><g opacity="1" transform="matrix(1,0,0,1,166.9340057373047,44.597999572753906)"><path fill="rgb(235,143,89)" fill-opacity="1" d=" M92.72100067138672,-47.83300018310547 C92.72100067138672,-47.83300018310547 75.83999633789062,-10.307000160217285 44.63600158691406,13.748000144958496 C9.34000015258789,41.42300033569336 -54.775001525878906,33.689998626708984 -73.8030014038086,21.06100082397461 C-110.72000122070312,-2.6679999828338623 -90.66200256347656,-38.54600143432617 -90.66200256347656,-38.54600143432617 C-90.66200256347656,-38.54600143432617 21.097999572753906,-33.17399978637695 21.097999572753906,-33.17399978637695 C21.097999572753906,-33.17399978637695 92.72100067138672,-47.83300018310547 92.72100067138672,-47.83300018310547z"></path></g></g></g><g style="display: block;" transform="matrix(0.9592427015304565,0,0,1.0147793292999268,61.52842330932617,315.5653991699219)" opacity="1"><g opacity="1" transform="matrix(1,0,0,1,65.76100158691406,57.590999603271484)"><path fill="rgb(246,191,155)" fill-opacity="1" d=" M-16.618999481201172,-18.66200065612793 C-11.918000221252441,-24.88800048828125 -0.36399999260902405,-35.73500061035156 8.718000411987305,-36.097999572753906 C17.798999786376953,-36.46099853515625 27.243999481201172,-30.37700080871582 28.69700050354004,-23.475000381469727 C30.149999618530273,-16.572999954223633 27.969999313354492,-13.666999816894531 27.969999313354492,-13.666999816894531 C27.969999313354492,-13.666999816894531 15.255999565124512,-3.132999897003174 15.619000434875488,6.675000190734863 C15.982999801635742,16.482999801635742 22.885000228881836,28.83300018310547 22.885000228881836,28.83300018310547 C22.885000228881836,28.83300018310547 5.811999797821045,36.46099853515625 0.3630000054836273,36.46099853515625 C-5.085999965667725,36.46099853515625 -30.149999618530273,27.3799991607666 -30.149999618530273,23.384000778198242 C-30.149999618530273,19.388999938964844 -30.05900001525879,-0.8629999756813049 -16.618999481201172,-18.66200065612793z"></path></g><g opacity="1" transform="matrix(1,0,0,1,91.00499725341797,85.8290023803711)"><path fill="url(#__lottie_element_17)" fill-opacity="1" d=" M-28.513999938964844,-60.79399871826172 C-28.513999938964844,-60.79399871826172 -49.21900177001953,-44.81100082397461 -58.481998443603516,-18.839000701904297 C-65.97000122070312,2.1570000648498535 -59.04800033569336,37.10599899291992 -30.482999801635742,46.85300064086914 C-1.9170000553131104,56.599998474121094 13.866999626159668,52.85599899291992 20.315000534057617,54.11899948120117 C26.76300048828125,55.38100051879883 45.92599868774414,60.79399871826172 51.82699966430664,52.1150016784668 C57.72800064086914,43.435001373291016 65.97000122070312,18.54599952697754 61.32699966430664,10.895999908447266 C56.683998107910156,3.246000051498413 46.439998626708984,1.5640000104904175 39.93199920654297,0.843999981880188 C33.42399978637695,0.12399999797344208 4.813000202178955,-1.9229999780654907 -2.9739999771118164,-8.293999671936035 C-16.527000427246094,-19.382999420166016 5.26800012588501,-41.90399932861328 5.26800012588501,-41.90399932861328"></path><path stroke-linecap="round" stroke-linejoin="round" fill-opacity="0" stroke="rgb(183,99,57)" stroke-opacity="1" stroke-width="10.014" d=" M-28.513999938964844,-60.79399871826172 C-28.513999938964844,-60.79399871826172 -49.21900177001953,-44.81100082397461 -58.481998443603516,-18.839000701904297 C-65.97000122070312,2.1570000648498535 -59.04800033569336,37.10599899291992 -30.482999801635742,46.85300064086914 C-1.9170000553131104,56.599998474121094 13.866999626159668,52.85599899291992 20.315000534057617,54.11899948120117 C26.76300048828125,55.38100051879883 45.92599868774414,60.79399871826172 51.82699966430664,52.1150016784668 C57.72800064086914,43.435001373291016 65.97000122070312,18.54599952697754 61.32699966430664,10.895999908447266 C56.683998107910156,3.246000051498413 46.439998626708984,1.5640000104904175 39.93199920654297,0.843999981880188 C33.42399978637695,0.12399999797344208 4.813000202178955,-1.9229999780654907 -2.9739999771118164,-8.293999671936035 C-16.527000427246094,-19.382999420166016 5.26800012588501,-41.90399932861328 5.26800012588501,-41.90399932861328"></path></g><g opacity="1" transform="matrix(1,0,0,1,69.23400115966797,97.68499755859375)"><path fill="rgb(235,143,89)" fill-opacity="1" d=" M-26.72100067138672,-38.505001068115234 C-26.72100067138672,-38.505001068115234 -33.26100158691406,-10.534000396728516 -25.631999969482422,0.7269999980926514 C-18.003999710083008,11.98799991607666 -6.197999954223633,21.43199920654297 10.14799976348877,24.33799934387207 C26.493999481201172,27.243999481201172 40.525001525878906,29.785999298095703 40.525001525878906,29.785999298095703 C40.525001525878906,29.785999298095703 34.48699951171875,38.505001068115234 30.128000259399414,38.505001068115234 C25.768999099731445,38.505001068115234 -4.199999809265137,38.32400131225586 -22.363000869750977,21.250999450683594 C-40.5260009765625,4.177999973297119 -32.89699935913086,-28.33300018310547 -31.808000564575195,-30.511999130249023 C-30.718000411987305,-32.69200134277344 -26.72100067138672,-38.505001068115234 -26.72100067138672,-38.505001068115234z"></path></g></g><g style="display: block;" transform="matrix(0.9592342376708984,0.004128841683268547,-0.004032496828585863,0.9810330271720886,-14.029435157775879,-33.52103042602539)" opacity="1"><g opacity="1" transform="matrix(1,0,0,1,281.7950134277344,219.96400451660156)"><path fill="url(#__lottie_element_24)" fill-opacity="1" d=" M29.214000701904297,172.64100646972656 C-39.321998596191406,188.53199768066406 -112.22200012207031,174.8470001220703 -169.9600067138672,133.1790008544922 C-183.19900512695312,123.61199951171875 -194.66299438476562,111.75599670410156 -204.4199981689453,98.83499908447266 C-251.2519989013672,36.814998626708984 -216.58299255371094,-72.87000274658203 -139.32899475097656,-120.9729995727539 C-96.10700225830078,-147.9149932861328 38.084999084472656,-184.61900329589844 120.35700225830078,-146.6479949951172 C202.62899780273438,-108.6760025024414 253.16600036621094,8.79699993133545 180.6739959716797,94.71399688720703 C145.24000549316406,136.7100067138672 79.697998046875,160.93600463867188 29.214000701904297,172.64100646972656z"></path><path stroke-linecap="butt" stroke-linejoin="miter" fill-opacity="0" stroke-miterlimit="10" stroke="rgb(183,99,57)" stroke-opacity="1" stroke-width="13.163" d=" M29.214000701904297,172.64100646972656 C-39.321998596191406,188.53199768066406 -112.22200012207031,174.8470001220703 -169.9600067138672,133.1790008544922 C-183.19900512695312,123.61199951171875 -194.66299438476562,111.75599670410156 -204.4199981689453,98.83499908447266 C-251.2519989013672,36.814998626708984 -216.58299255371094,-72.87000274658203 -139.32899475097656,-120.9729995727539 C-96.10700225830078,-147.9149932861328 38.084999084472656,-184.61900329589844 120.35700225830078,-146.6479949951172 C202.62899780273438,-108.6760025024414 253.16600036621094,8.79699993133545 180.6739959716797,94.71399688720703 C145.24000549316406,136.7100067138672 79.697998046875,160.93600463867188 29.214000701904297,172.64100646972656z"></path></g><g opacity="1" transform="matrix(1,0,0,1,293.052001953125,212.28199768066406)"><path fill="url(#__lottie_element_25)" fill-opacity="1" d=" M26.834999084472656,159.1280059814453 C-33.512001037597656,173.43800354003906 -103.41000366210938,163.09800720214844 -152.6300048828125,124.62899780273438 C-164.06500244140625,115.69200134277344 -174.05599975585938,107.76000213623047 -182.64599609375,96.125 C-223.88299560546875,40.277000427246094 -193.04800415039062,-53.702999114990234 -127.93800354003906,-93.88400268554688 C-89.55500030517578,-117.63700103759766 38.638999938964844,-151.4669952392578 111.08200073242188,-117.27400207519531 C183.5240020751953,-83.08200073242188 225.68499755859375,13.20300006866455 161.85400390625,90.56999969482422 C130.6540069580078,128.38600158691406 71.28700256347656,148.58799743652344 26.834999084472656,159.1280059814453z"></path></g></g><g style="display: block;" transform="matrix(0.9573001265525818,0.0645492896437645,-0.06101664528250694,1.0127243995666504,142.54519653320312,356.3173828125)" opacity="1"><g opacity="1" transform="matrix(1,0,0,1,70.12699890136719,71.5)"><path fill="url(#__lottie_element_20)" fill-opacity="1" d=" M-29.47100067138672,-23.70800018310547 C-29.47100067138672,-23.70800018310547 -27.655000686645508,-36.058998107910156 -20.83099937438965,-40.66299819946289 C-12.232000350952148,-46.46500015258789 16.56399917602539,-42.39699935913086 30.827999114990234,-35.69499969482422 C45.090999603271484,-28.993999481201172 44.74100112915039,-17.763999938964844 43.178001403808594,-4.455999851226807 C41.88800048828125,6.5320000648498535 37.12799835205078,30.891000747680664 32.10900115966797,36.55699920654297 C27.090999603271484,42.222999572753906 20.670000076293945,46.34700012207031 11.576000213623047,46.39899826049805 C0.1420000046491623,46.46500015258789 -20.281999588012695,43.625999450683594 -30.923999786376953,39.861000061035156 C-38.2869987487793,37.25600051879883 -45.090999603271484,32.233001708984375 -43.374000549316406,24.18199920654297 C-43.19499969482422,23.339000701904297 -42.57699966430664,21.413999557495117 -41.698001861572266,18.863000869750977"></path><path stroke-linecap="round" stroke-linejoin="round" fill-opacity="0" stroke="rgb(183,99,57)" stroke-opacity="1" stroke-width="10.014" d=" M-29.47100067138672,-23.70800018310547 C-29.47100067138672,-23.70800018310547 -27.655000686645508,-36.058998107910156 -20.83099937438965,-40.66299819946289 C-12.232000350952148,-46.46500015258789 16.56399917602539,-42.39699935913086 30.827999114990234,-35.69499969482422 C45.090999603271484,-28.993999481201172 44.74100112915039,-17.763999938964844 43.178001403808594,-4.455999851226807 C41.88800048828125,6.5320000648498535 37.12799835205078,30.891000747680664 32.10900115966797,36.55699920654297 C27.090999603271484,42.222999572753906 20.670000076293945,46.34700012207031 11.576000213623047,46.39899826049805 C0.1420000046491623,46.46500015258789 -20.281999588012695,43.625999450683594 -30.923999786376953,39.861000061035156 C-38.2869987487793,37.25600051879883 -45.090999603271484,32.233001708984375 -43.374000549316406,24.18199920654297 C-43.19499969482422,23.339000701904297 -42.57699966430664,21.413999557495117 -41.698001861572266,18.863000869750977"></path></g><g opacity="1" transform="matrix(1,0,0,1,69.20700073242188,84.96399688720703)"><path fill="rgb(235,143,89)" fill-opacity="1" d=" M-35.27199935913086,2.8310000896453857 C-35.27199935913086,2.8310000896453857 -33.303001403808594,14.345999717712402 -22.558000564575195,17.31599998474121 C-4.486000061035156,22.309999465942383 9.708999633789062,20.035999298095703 15.454000473022461,18.95800018310547 C21.197999954223633,17.8799991607666 25.506000518798828,14.288000106811523 27.65999984741211,9.618000030517578 C29.81399917602539,4.947999954223633 34.48099899291992,-11.397000312805176 35.91699981689453,-17.143999099731445 C37.35300064086914,-22.892000198364258 39.73899841308594,-30.632999420166016 39.73899841308594,-30.632999420166016 C39.73899841308594,-30.632999420166016 41.17499923706055,-25.766000747680664 39.73899841308594,-12.833999633789062 C38.303001403808594,0.09799999743700027 32.8650016784668,20.573999404907227 23.172000885009766,25.604000091552734 C13.479000091552734,30.632999420166016 -4.165999889373779,29.06599998474121 -13.11400032043457,27.48699951171875 C-22.37700080871582,25.851999282836914 -32.08700180053711,21.10300064086914 -36.0890007019043,17.815000534057617 C-41.17499923706055,13.637999534606934 -35.27199935913086,2.8310000896453857 -35.27199935913086,2.8310000896453857z"></path></g></g><g style="display: block;" transform="matrix(0.9751560091972351,0.01403853390365839,-0.013686519116163254,0.995539665222168,236.49554443359375,201.58114624023438)" opacity="1"><g opacity="1" transform="matrix(0.9887028932571411,-0.028376851230859756,0.026955584064126015,0.939183235168457,2.7871780395507812,2.5454139709472656)"><g opacity="1" transform="matrix(1,0,0,1,86.47200012207031,59.400001525878906)"><path fill="rgb(232,142,104)" fill-opacity="1" d=" M-58.84600067138672,19.070999145507812 C-58.84600067138672,19.070999145507812 -69.01699829101562,2.7249999046325684 -60.29899978637695,-7.446000099182129 C-51.58100128173828,-17.617000579833984 -43.5890007019043,-19.43400001525879 -29.785999298095703,-19.797000885009766 C-15.982000350952148,-20.15999984741211 6.176000118255615,-24.1560001373291 16.347000122070312,-29.968000411987305 C26.51799964904785,-35.779998779296875 33.055999755859375,-47.04100036621094 46.86000061035156,-41.59199905395508 C60.66299819946289,-36.143001556396484 69.01799774169922,-23.429000854492188 59.57400131225586,-1.6339999437332153 C50.07500076293945,20.28499984741211 38.415000915527344,35.12300109863281 6.538000106811523,39.7760009765625 C-43.22700119018555,47.04100036621094 -58.84600067138672,19.070999145507812 -58.84600067138672,19.070999145507812z"></path></g><g opacity="1" transform="matrix(1,0,0,1,86.94999694824219,66.70600128173828)"><path fill="rgb(81,37,21)" fill-opacity="1" d=" M-44.090999603271484,19.597999572753906 C-50.840999603271484,14.53499984741211 -56.95100021362305,6.583000183105469 -49.744998931884766,-4.7170000076293945 C-43.750999450683594,-14.116000175476074 -34.643001556396484,-13.074999809265137 -15.194999694824219,-14.767000198364258 C13.916999816894531,-17.29800033569336 29.527000427246094,-31.64299964904785 38.387001037597656,-34.17399978637695 C47.24700164794922,-36.70600128173828 53.57500076293945,-35.018001556396484 55.26300048828125,-26.579999923706055 C56.95000076293945,-18.142000198364258 48.09000015258789,8.859999656677246 23.6200008392334,22.783000946044922 C-0.8510000109672546,36.70600128173828 -34.63399887084961,26.69099998474121 -44.090999603271484,19.597999572753906z"></path><path stroke-linecap="butt" stroke-linejoin="miter" fill-opacity="0" stroke-miterlimit="10" stroke="rgb(158,75,38)" stroke-opacity="1" stroke-width="12" d=" M-44.090999603271484,19.597999572753906 C-50.840999603271484,14.53499984741211 -56.95100021362305,6.583000183105469 -49.744998931884766,-4.7170000076293945 C-43.750999450683594,-14.116000175476074 -34.643001556396484,-13.074999809265137 -15.194999694824219,-14.767000198364258 C13.916999816894531,-17.29800033569336 29.527000427246094,-31.64299964904785 38.387001037597656,-34.17399978637695 C47.24700164794922,-36.70600128173828 53.57500076293945,-35.018001556396484 55.26300048828125,-26.579999923706055 C56.95000076293945,-18.142000198364258 48.09000015258789,8.859999656677246 23.6200008392334,22.783000946044922 C-0.8510000109672546,36.70600128173828 -34.63399887084961,26.69099998474121 -44.090999603271484,19.597999572753906z"></path></g><g opacity="1" transform="matrix(1,0,0,1,49.89500045776367,73.6510009765625)"><path fill="rgb(240,245,255)" fill-opacity="1" d=" M10.468999862670898,-21.711999893188477 C10.468999862670898,-21.711999893188477 15.743000030517578,-12.218000411987305 17.2189998626709,0.2280000001192093 C18.614999771118164,11.98900032043457 16.597999572753906,21.711999893188477 16.597999572753906,21.711999893188477 C16.597999572753906,21.711999893188477 1.1670000553131104,20 -8.829000473022461,12.267999649047852 C-18.45599937438965,4.821000099182129 -18.614999771118164,-7.300000190734863 -13.552000045776367,-14.61299991607666 C-9.244000434875488,-20.834999084472656 10.468999862670898,-21.711999893188477 10.468999862670898,-21.711999893188477z"></path><path stroke-linecap="round" stroke-linejoin="round" fill-opacity="0" stroke="rgb(88,139,214)" stroke-opacity="1" stroke-width="10" d=" M10.468999862670898,-21.711999893188477 C10.468999862670898,-21.711999893188477 15.743000030517578,-12.218000411987305 17.2189998626709,0.2280000001192093 C18.614999771118164,11.98900032043457 16.597999572753906,21.711999893188477 16.597999572753906,21.711999893188477 C16.597999572753906,21.711999893188477 1.1670000553131104,20 -8.829000473022461,12.267999649047852 C-18.45599937438965,4.821000099182129 -18.614999771118164,-7.300000190734863 -13.552000045776367,-14.61299991607666 C-9.244000434875488,-20.834999084472656 10.468999862670898,-21.711999893188477 10.468999862670898,-21.711999893188477z"></path></g><g opacity="1" transform="matrix(1,0,0,1,80.19000244140625,71.78500366210938)"><path fill="rgb(240,245,255)" fill-opacity="1" d=" M9.98900032043457,-25.47100067138672 C9.98900032043457,-25.47100067138672 15.402999877929688,-13.305000305175781 17.724000930786133,1.6729999780654907 C19.614999771118164,13.878000259399414 18.56800079345703,22.34600067138672 18.56800079345703,22.34600067138672 C18.56800079345703,22.34600067138672 12.638999938964844,24.849000930786133 2.6500000953674316,25.211999893188477 C-4.427999973297119,25.469999313354492 -12.86400032043457,23.399999618530273 -12.86400032043457,23.399999618530273 C-12.86400032043457,23.399999618530273 -12.244999885559082,5.017000198364258 -13.074999809265137,-1.0700000524520874 C-14.340999603271484,-10.35200023651123 -19.614999771118164,-19.84600067138672 -19.614999771118164,-19.84600067138672 C-19.614999771118164,-19.84600067138672 -7.043000221252441,-21.142000198364258 -2.9489998817443848,-22.165000915527344 C4.644999980926514,-24.06399917602539 9.98900032043457,-25.47100067138672 9.98900032043457,-25.47100067138672z"></path><path stroke-linecap="round" stroke-linejoin="round" fill-opacity="0" stroke="rgb(88,139,214)" stroke-opacity="1" stroke-width="10" d=" M9.98900032043457,-25.47100067138672 C9.98900032043457,-25.47100067138672 15.402999877929688,-13.305000305175781 17.724000930786133,1.6729999780654907 C19.614999771118164,13.878000259399414 18.56800079345703,22.34600067138672 18.56800079345703,22.34600067138672 C18.56800079345703,22.34600067138672 12.638999938964844,24.849000930786133 2.6500000953674316,25.211999893188477 C-4.427999973297119,25.469999313354492 -12.86400032043457,23.399999618530273 -12.86400032043457,23.399999618530273 C-12.86400032043457,23.399999618530273 -12.244999885559082,5.017000198364258 -13.074999809265137,-1.0700000524520874 C-14.340999603271484,-10.35200023651123 -19.614999771118164,-19.84600067138672 -19.614999771118164,-19.84600067138672 C-19.614999771118164,-19.84600067138672 -7.043000221252441,-21.142000198364258 -2.9489998817443848,-22.165000915527344 C4.644999980926514,-24.06399917602539 9.98900032043457,-25.47100067138672 9.98900032043457,-25.47100067138672z"></path></g><g opacity="1" transform="matrix(1,0,0,1,127.75,51.518001556396484)"><path fill="rgb(240,245,255)" fill-opacity="1" d=" M-5.788000106811523,-19.12700080871582 C-3.006999969482422,-20.617000579833984 0.5410000085830688,-23.625999450683594 4.760000228881836,-22.783000946044922 C12.793000221252441,-21.176000595092773 16.054000854492188,-10.991000175476074 14.041999816894531,-1.2660000324249268 C11.510000228881836,10.968999862670898 -0.30300000309944153,23.62700080871582 -0.30300000309944153,23.62700080871582 C-0.30300000309944153,23.62700080871582 -5.788000106811523,9.281999588012695 -7.47599983215332,2.109999895095825 C-9.163000106811523,-5.061999797821045 -16.054000854492188,-12.937999725341797 -16.054000854492188,-12.937999725341797 C-16.054000854492188,-12.937999725341797 -9.72599983215332,-17.017000198364258 -5.788000106811523,-19.12700080871582z"></path><path stroke-linecap="round" stroke-linejoin="round" fill-opacity="0" stroke="rgb(88,139,214)" stroke-opacity="1" stroke-width="10" d=" M-5.788000106811523,-19.12700080871582 C-3.006999969482422,-20.617000579833984 0.5410000085830688,-23.625999450683594 4.760000228881836,-22.783000946044922 C12.793000221252441,-21.176000595092773 16.054000854492188,-10.991000175476074 14.041999816894531,-1.2660000324249268 C11.510000228881836,10.968999862670898 -0.30300000309944153,23.62700080871582 -0.30300000309944153,23.62700080871582 C-0.30300000309944153,23.62700080871582 -5.788000106811523,9.281999588012695 -7.47599983215332,2.109999895095825 C-9.163000106811523,-5.061999797821045 -16.054000854492188,-12.937999725341797 -16.054000854492188,-12.937999725341797 C-16.054000854492188,-12.937999725341797 -9.72599983215332,-17.017000198364258 -5.788000106811523,-19.12700080871582z"></path></g><g opacity="1" transform="matrix(1,0,0,1,110.04299926757812,66.51300048828125)"><path fill="rgb(240,245,255)" fill-opacity="1" d=" M0.22300000488758087,-27.301000595092773 C1.8420000076293945,-28.12299919128418 4.203000068664551,-26.98200035095215 5.309000015258789,-25.542999267578125 C7.640999794006348,-22.507999420166016 8.994999885559082,-19.190000534057617 11.777999877929688,-13.026000022888184 C17.148000717163086,-1.1360000371932983 18.66900062561035,7.085000038146973 18.66900062561035,7.085000038146973 C18.66900062561035,7.085000038146973 15.574999809265137,14.116999626159668 4.745999813079834,21.288999557495117 C-1.4279999732971191,25.378999710083008 -10.130999565124512,28.12299919128418 -10.130999565124512,28.12299919128418 C-10.130999565124512,28.12299919128418 -11.302000045776367,9.159000396728516 -13.1850004196167,-0.017000000923871994 C-14.871999740600586,-8.244999885559082 -17.902999877929688,-17.07200050354004 -18.45800018310547,-19.847000122070312 C-18.66900062561035,-20.902000427246094 -12.642000198364258,-21.96299934387207 -7.910999774932861,-24.06599998474121 C-5.008999824523926,-25.356000900268555 -1.656999945640564,-26.34600067138672 0.22300000488758087,-27.301000595092773z"></path><path stroke-linecap="round" stroke-linejoin="round" fill-opacity="0" stroke="rgb(88,139,214)" stroke-opacity="1" stroke-width="10" d=" M0.22300000488758087,-27.301000595092773 C1.8420000076293945,-28.12299919128418 4.203000068664551,-26.98200035095215 5.309000015258789,-25.542999267578125 C7.640999794006348,-22.507999420166016 8.994999885559082,-19.190000534057617 11.777999877929688,-13.026000022888184 C17.148000717163086,-1.1360000371932983 18.66900062561035,7.085000038146973 18.66900062561035,7.085000038146973 C18.66900062561035,7.085000038146973 15.574999809265137,14.116999626159668 4.745999813079834,21.288999557495117 C-1.4279999732971191,25.378999710083008 -10.130999565124512,28.12299919128418 -10.130999565124512,28.12299919128418 C-10.130999565124512,28.12299919128418 -11.302000045776367,9.159000396728516 -13.1850004196167,-0.017000000923871994 C-14.871999740600586,-8.244999885559082 -17.902999877929688,-17.07200050354004 -18.45800018310547,-19.847000122070312 C-18.66900062561035,-20.902000427246094 -12.642000198364258,-21.96299934387207 -7.910999774932861,-24.06599998474121 C-5.008999824523926,-25.356000900268555 -1.656999945640564,-26.34600067138672 0.22300000488758087,-27.301000595092773z"></path></g></g></g><g style="display: block;" transform="matrix(0.9751560091972351,0.01403853390365839,-0.013686519116163254,0.995539665222168,86.6725845336914,51.998451232910156)" opacity="1"><g opacity="1" transform="matrix(1,0,0,1,323.2860107421875,112.6500015258789)"><path fill="rgb(232,142,104)" fill-opacity="1" d=" M-31.33099937438965,-53.94300079345703 C-31.33099937438965,-53.94300079345703 -49.856998443603516,-43.04399871826172 -54.215999603271484,-27.788000106811523 C-58.57500076293945,-12.531000137329102 -61.84400177001953,16.892000198364258 -30.785999298095703,35.417999267578125 C0.2720000147819519,53.94300079345703 31.812999725341797,44.39099884033203 39.50299835205078,40.86600112915039 C52.58000183105469,34.87300109863281 61.84299850463867,26.155000686645508 61.84299850463867,26.155000686645508 C61.84299850463867,26.155000686645508 43.96900177001953,11.88700008392334 43.96900177001953,11.88700008392334 C43.96900177001953,11.88700008392334 -31.875999450683594,-36.50699996948242 -31.875999450683594,-36.50699996948242 C-31.875999450683594,-36.50699996948242 -31.33099937438965,-53.94300079345703 -31.33099937438965,-53.94300079345703z"></path></g><g opacity="1" transform="matrix(1,0,0,1,111.30999755859375,164.76600646972656)"><path fill="rgb(232,142,103)" fill-opacity="1" d=" M-86.83499908447266,4.008999824523926 C-87.43900299072266,-9.710000038146973 -80.14099884033203,-32.06999969482422 -47.86800003051758,-44.09600067138672 C-15.595000267028809,-56.12300109863281 25.761999130249023,-68.81700134277344 56.60100173950195,-32.06999969482422 C87.44000244140625,4.677000045776367 49.428001403808594,38.08399963378906 8.548999786376953,53.45100021362305 C-32.33000183105469,68.81700134277344 -61.564998626708984,48.902000427246094 -73.9260025024414,36.74700164794922 C-86.83499908447266,24.05299949645996 -86.56500244140625,10.145999908447266 -86.83499908447266,4.008999824523926z"></path></g><g opacity="1" transform="matrix(1,0,0,1,347.32598876953125,90.55999755859375)"><path fill="rgb(179,197,242)" fill-opacity="1" d=" M-69.9000015258789,1.2029999494552612 C-69.79399871826172,-11.144000053405762 -63.39500045776367,-32.12300109863281 -42.292999267578125,-43.47700119018555 C-15.368000030517578,-57.9640007019043 23.424999237060547,-62.630001068115234 46.696998596191406,-31.954999923706055 C69.96900177001953,-1.2790000438690186 49.28300094604492,39.62300109863281 21.270000457763672,51.125999450683594 C-6.742000102996826,62.62900161743164 -47.422000885009766,58.025001525878906 -62.33599853515625,31.95400047302246 C-69.53700256347656,19.365999221801758 -69.96800231933594,9.119999885559082 -69.9000015258789,1.2029999494552612z"></path><path stroke-linecap="round" stroke-linejoin="round" fill-opacity="0" stroke="rgb(59,62,97)" stroke-opacity="1" stroke-width="11.172" d=" M-69.9000015258789,1.2029999494552612 C-69.79399871826172,-11.144000053405762 -63.39500045776367,-32.12300109863281 -42.292999267578125,-43.47700119018555 C-15.368000030517578,-57.9640007019043 23.424999237060547,-62.630001068115234 46.696998596191406,-31.954999923706055 C69.96900177001953,-1.2790000438690186 49.28300094604492,39.62300109863281 21.270000457763672,51.125999450683594 C-6.742000102996826,62.62900161743164 -47.422000885009766,58.025001525878906 -62.33599853515625,31.95400047302246 C-69.53700256347656,19.365999221801758 -69.96800231933594,9.119999885559082 -69.9000015258789,1.2029999494552612z"></path></g><g opacity="1" transform="matrix(1,0,0,1,352.3340148925781,83.3479995727539)"><path fill="rgb(255,255,255)" fill-opacity="1" d=" M-52.60200119018555,3.3410000801086426 C-52.60200119018555,3.3410000801086426 -55.62699890136719,-21.719999313354492 -34.45199966430664,-32.74700164794922 C-13.277000427246094,-43.77399826049805 19.32699966430664,-49.12099838256836 37.47700119018555,-25.06100082397461 C55.62699890136719,-1.0019999742507935 39.492000579833984,31.07699966430664 17.645000457763672,40.0989990234375 C-4.202000141143799,49.12200164794922 -39.58700180053711,46.98699951171875 -47.560001373291016,25.06100082397461 C-52.82600021362305,10.581000328063965 -52.60200119018555,3.3410000801086426 -52.60200119018555,3.3410000801086426z"></path></g><g opacity="1" transform="matrix(1,0,0,1,112.52999877929688,154.03399658203125)"><path fill="rgb(179,197,242)" fill-opacity="1" d=" M-82.87999725341797,3.9240000247955322 C-83.45700073242188,-9.503000259399414 -76.49199676513672,-31.388999938964844 -45.68899917602539,-43.15999984741211 C-14.885000228881836,-54.930999755859375 24.59000015258789,-67.35600280761719 54.02399826049805,-31.388999938964844 C83.45800018310547,4.578000068664551 47.17900085449219,37.275001525878906 8.16100025177002,52.316001892089844 C-30.85700035095215,67.35600280761719 -58.76100158691406,47.86399841308594 -70.55899810791016,35.96699905395508 C-82.87999725341797,23.54199981689453 -82.62200164794922,9.930000305175781 -82.87999725341797,3.9240000247955322z"></path><path stroke-linecap="round" stroke-linejoin="round" fill-opacity="0" stroke="rgb(76,79,114)" stroke-opacity="1" stroke-width="11.629" d=" M-82.87999725341797,3.9240000247955322 C-83.45700073242188,-9.503000259399414 -76.49199676513672,-31.388999938964844 -45.68899917602539,-43.15999984741211 C-14.885000228881836,-54.930999755859375 24.59000015258789,-67.35600280761719 54.02399826049805,-31.388999938964844 C83.45800018310547,4.578000068664551 47.17900085449219,37.275001525878906 8.16100025177002,52.316001892089844 C-30.85700035095215,67.35600280761719 -58.76100158691406,47.86399841308594 -70.55899810791016,35.96699905395508 C-82.87999725341797,23.54199981689453 -82.62200164794922,9.930000305175781 -82.87999725341797,3.9240000247955322z"></path></g><g opacity="1" transform="matrix(1,0,0,1,115.49800109863281,149.44900512695312)"><path fill="rgb(255,255,255)" fill-opacity="1" d=" M-69.25499725341797,3.1500000953674316 C-69.73699951171875,-7.630000114440918 -63.91699981689453,-25.200000762939453 -38.176998138427734,-34.650001525878906 C-12.437999725341797,-44.099998474121094 20.54599952697754,-54.07500076293945 45.14099884033203,-25.200000762939453 C69.73699951171875,3.674999952316284 39.422000885009766,29.924999237060547 6.818999767303467,42 C-25.784000396728516,54.07500076293945 -49.10100173950195,38.42599868774414 -58.95899963378906,28.875 C-69.25499725341797,18.899999618530273 -69.03900146484375,7.9720001220703125 -69.25499725341797,3.1500000953674316z"></path></g><g opacity="1" transform="matrix(1,0,0,1,95.18399810791016,130.56399536132812)"><path fill="rgb(37,33,48)" fill-opacity="1" d=" M46.67599868774414,1.4049999713897705 C46.358001708984375,25.354999542236328 26.14699935913086,40.444000244140625 1.4479999542236328,40.444000244140625 C-23.250999450683594,40.444000244140625 -46.28099822998047,23.357999801635742 -43.268001556396484,0.921999990940094 C-40.777000427246094,-17.628000259399414 -13.541000366210938,-28.32900047302246 11.157999992370605,-28.32900047302246 C35.858001708984375,-28.32900047302246 46.81700134277344,-9.21500015258789 46.67599868774414,1.4049999713897705z"></path></g><g opacity="1" transform="matrix(1,0,0,1,377.77899169921875,73.05599975585938)"><path fill="rgb(37,33,48)" fill-opacity="1" d=" M-6.75,-28.584999084472656 C-6.75,-28.584999084472656 -31.43199920654297,-24.15399932861328 -31.43199920654297,1.159999966621399 C-31.43199920654297,26.475000381469727 -6.585999965667725,31.562999725341797 5.695000171661377,31.959999084472656 C18.77400016784668,32.38199996948242 25.525999069213867,28.37299919128418 26.79199981689453,22.045000076293945 C28.05699920654297,15.715999603271484 31.43199920654297,3.059000015258789 16.45400047302246,-14.66100025177002 C1.4759999513626099,-32.38100051879883 -6.75,-28.584999084472656 -6.75,-28.584999084472656z"></path></g><g opacity="1" transform="matrix(1,0,0,1,349.5660095214844,80.86199951171875)"><path fill="rgb(255,255,255)" fill-opacity="1" d=" M14.121999740600586,-3.059000015258789 C15.253000259399414,3.1059999465942383 6.734000205993652,5.386000156402588 -0.210999995470047,7.067999839782715 C-7.156000137329102,8.75 -13.496999740600586,7.177000045776367 -14.375,3.553999900817871 C-15.251999855041504,-0.07000000029802322 -10.333000183105469,-4.372000217437744 -3.388000011444092,-6.052999973297119 C3.556999921798706,-7.735000133514404 13.07800006866455,-8.75100040435791 14.121999740600586,-3.059000015258789z"></path></g><g opacity="1" transform="matrix(1,0,0,1,59.87900161743164,148.1909942626953)"><path fill="rgb(255,255,255)" fill-opacity="1" d=" M14.315999984741211,-4.995999813079834 C16.878000259399414,2.0409998893737793 8.13700008392334,5.791999816894531 0.9729999899864197,8.642000198364258 C-6.190999984741211,11.493000030517578 -13.406000137329102,10.473999977111816 -15.142000198364258,6.364999771118164 C-16.878000259399414,2.256999969482422 -12.477999687194824,-3.385999917984009 -5.314000129699707,-6.236000061035156 C1.850000023841858,-9.086999893188477 11.951000213623047,-11.493000030517578 14.315999984741211,-4.995999813079834z"></path></g><g opacity="1" transform="matrix(1,0,0,1,99.34100341796875,149.156005859375)"><path fill="rgb(56,66,109)" fill-opacity="1" d=" M-14.711999893188477,-12.168999671936035 C-14.711999893188477,-12.168999671936035 2.361999988555908,-12.895000457763672 7.810999870300293,-12.531000137329102 C13.258999824523926,-12.168000221252441 21.61400032043457,-7.809000015258789 19.79800033569336,-0.1809999942779541 C17.98200035095215,7.447999954223633 2.7239999771118164,12.895000457763672 -7.084000110626221,11.805999755859375 C-16.892000198364258,10.715999603271484 -20.886999130249023,0.5450000166893005 -21.250999450683594,-5.267000198364258 C-21.61400032043457,-11.079000473022461 -14.711999893188477,-12.168999671936035 -14.711999893188477,-12.168999671936035z"></path></g><g opacity="1" transform="matrix(1,0,0,1,112.52999877929688,154.03399658203125)"><path stroke-linecap="round" stroke-linejoin="round" fill-opacity="0" stroke="rgb(58,61,96)" stroke-opacity="1" stroke-width="10" d=" M-82.87999725341797,3.9240000247955322 C-83.45700073242188,-9.503000259399414 -76.49199676513672,-31.388999938964844 -45.68899917602539,-43.15999984741211 C-14.885000228881836,-54.930999755859375 24.59000015258789,-67.35600280761719 54.02399826049805,-31.388999938964844 C83.45800018310547,4.578000068664551 47.17900085449219,37.275001525878906 8.16100025177002,52.316001892089844 C-30.85700035095215,67.35600280761719 -58.76100158691406,47.86399841308594 -70.55899810791016,35.96699905395508 C-82.87999725341797,23.54199981689453 -82.62200164794922,9.930000305175781 -82.87999725341797,3.9240000247955322z"></path></g><g opacity="1" transform="matrix(1,0,0,1,381.0190124511719,91.24800109863281)"><path fill="rgb(62,75,117)" fill-opacity="1" d=" M-12.8100004196167,-9.826000213623047 C-12.8100004196167,-9.826000213623047 2.056999921798706,-10.413000106811523 6.801000118255615,-10.119000434875488 C11.545999526977539,-9.826000213623047 18.81999969482422,-6.304999828338623 17.238000869750977,-0.1459999978542328 C15.656999588012695,6.013000011444092 2.372999906539917,10.411999702453613 -6.168000221252441,9.531999588012695 C-14.708000183105469,8.652000427246094 -18.187000274658203,0.4399999976158142 -18.503999710083008,-4.251999855041504 C-18.81999969482422,-8.944999694824219 -12.8100004196167,-9.826000213623047 -12.8100004196167,-9.826000213623047z"></path></g></g></g></svg>