<svg xmlns="http://www.w3.org/2000/svg" xmlns:xlink="http://www.w3.org/1999/xlink" viewBox="0 0 512 512" width="512" height="512" style="width: 100%; height: 100%; transform: translate3d(0,0,0); content-visibility: visible;" preserveAspectRatio="xMidYMid meet"><defs><clipPath id="__lottie_element_2"><rect width="512" height="512" x="0" y="0"></rect></clipPath><linearGradient id="__lottie_element_41" spreadMethod="pad" gradientUnits="userSpaceOnUse" x1="-74" y1="-150" x2="20.773000717163086" y2="26.143999099731445"><stop offset="0%" stop-color="rgb(251,224,203)"></stop><stop offset="50%" stop-color="rgb(247,209,180)"></stop><stop offset="100%" stop-color="rgb(243,194,156)"></stop></linearGradient><linearGradient id="__lottie_element_44" spreadMethod="pad" gradientUnits="userSpaceOnUse" x1="-115" y1="-21" x2="-78.80599975585938" y2="-21"><stop offset="0%" stop-color="rgb(251,224,203)"></stop><stop offset="50%" stop-color="rgb(247,209,180)"></stop><stop offset="100%" stop-color="rgb(243,194,156)"></stop></linearGradient><linearGradient id="__lottie_element_45" spreadMethod="pad" gradientUnits="userSpaceOnUse" x1="96.3010025024414" y1="-45.847999572753906" x2="126.1500015258789" y2="-48.99599838256836"><stop offset="0%" stop-color="rgb(251,224,203)"></stop><stop offset="50%" stop-color="rgb(247,209,180)"></stop><stop offset="100%" stop-color="rgb(243,194,156)"></stop></linearGradient><linearGradient id="__lottie_element_51" spreadMethod="pad" gradientUnits="userSpaceOnUse" x1="-3" y1="-66" x2="32.597999572753906" y2="233.22000122070312"><stop offset="0%" stop-color="rgb(251,224,203)"></stop><stop offset="50%" stop-color="rgb(247,209,180)"></stop><stop offset="100%" stop-color="rgb(243,194,156)"></stop></linearGradient></defs><g clip-path="url(#__lottie_element_2)"><g style="display: block;" transform="matrix(1,0,0,1,255.99960327148438,255.9990234375)" opacity="1"><g opacity="1" transform="matrix(1,0,0,1,0,0)"><g opacity="1" transform="matrix(1,0,0,1,0,0)"><g opacity="1" transform="matrix(1,0,0,1,0,0)"><path fill="rgb(165,82,45)" fill-opacity="1" d=" M146.05799865722656,-28.704999923706055 C149.6009979248047,-13.982999801635742 87.63899993896484,13.553000450134277 7.6620001792907715,32.79800033569336 C-72.31500244140625,52.042999267578125 -140.02000427246094,55.70899963378906 -143.56300354003906,40.98699951171875 C-147.1060028076172,26.264999389648438 -85.14399719238281,-1.2710000276565552 -5.166999816894531,-20.516000747680664 C74.80999755859375,-39.76100158691406 142.51499938964844,-43.426998138427734 146.05799865722656,-28.704999923706055z"></path><path stroke-linecap="butt" stroke-linejoin="miter" fill-opacity="0" stroke-miterlimit="10" stroke="rgb(140,58,42)" stroke-opacity="1" stroke-width="11" d=" M146.05799865722656,-28.704999923706055 C149.6009979248047,-13.982999801635742 87.63899993896484,13.553000450134277 7.6620001792907715,32.79800033569336 C-72.31500244140625,52.042999267578125 -140.02000427246094,55.70899963378906 -143.56300354003906,40.98699951171875 C-147.1060028076172,26.264999389648438 -85.14399719238281,-1.2710000276565552 -5.166999816894531,-20.516000747680664 C74.80999755859375,-39.76100158691406 142.51499938964844,-43.426998138427734 146.05799865722656,-28.704999923706055z"></path></g><g opacity="1" transform="matrix(1,0,0,1,0,0)"><path fill="rgb(245,249,255)" fill-opacity="1" d=" M-93.36299896240234,28.20400047302246 C-93.36299896240234,28.20400047302246 -59.40299987792969,43.60200119018555 -53.01100158691406,41.91999816894531 C-46.61899948120117,40.237998962402344 -41.23699951171875,23.753999710083008 -41.23699951171875,23.753999710083008 C-41.23699951171875,23.753999710083008 -16.006000518798828,46.292999267578125 -10.960000038146973,44.275001525878906 C-5.914000034332275,42.25699996948242 -1.8769999742507935,14.333999633789062 -1.8769999742507935,14.333999633789062 C-1.8769999742507935,14.333999633789062 30.7549991607666,41.58399963378906 34.45600128173828,40.9109992980957 C38.15700149536133,40.237998962402344 42.529998779296875,5.923999786376953 42.529998779296875,5.923999786376953 C42.529998779296875,5.923999786376953 49.595001220703125,22.070999145507812 53.96799850463867,23.41699981689453 C58.340999603271484,24.76300048828125 70.1760025024414,-2.00600004196167 70.1760025024414,-2.00600004196167 C70.1760025024414,-2.00600004196167 52.62200164794922,-30.7450008392334 -4.23199987411499,-18.97100067138672 C-61.08599853515625,-7.197000026702881 -93.36299896240234,28.20400047302246 -93.36299896240234,28.20400047302246z"></path><path stroke-linecap="round" stroke-linejoin="round" fill-opacity="0" stroke="rgb(85,100,142)" stroke-opacity="1" stroke-width="11" d=" M-93.36299896240234,28.20400047302246 C-93.36299896240234,28.20400047302246 -59.40299987792969,43.60200119018555 -53.01100158691406,41.91999816894531 C-46.61899948120117,40.237998962402344 -41.23699951171875,23.753999710083008 -41.23699951171875,23.753999710083008 C-41.23699951171875,23.753999710083008 -16.006000518798828,46.292999267578125 -10.960000038146973,44.275001525878906 C-5.914000034332275,42.25699996948242 -1.8769999742507935,14.333999633789062 -1.8769999742507935,14.333999633789062 C-1.8769999742507935,14.333999633789062 30.7549991607666,41.58399963378906 34.45600128173828,40.9109992980957 C38.15700149536133,40.237998962402344 42.529998779296875,5.923999786376953 42.529998779296875,5.923999786376953 C42.529998779296875,5.923999786376953 49.595001220703125,22.070999145507812 53.96799850463867,23.41699981689453 C58.340999603271484,24.76300048828125 70.1760025024414,-2.00600004196167 70.1760025024414,-2.00600004196167 C70.1760025024414,-2.00600004196167 52.62200164794922,-30.7450008392334 -4.23199987411499,-18.97100067138672 C-61.08599853515625,-7.197000026702881 -93.36299896240234,28.20400047302246 -93.36299896240234,28.20400047302246z"></path></g></g></g></g><g style="display: block;" transform="matrix(1,0,0,1,255.99977111816406,256.0003662109375)" opacity="1"><g opacity="1" transform="matrix(1,0,0,1,1.156999945640564,0.7129999995231628)"><g opacity="1" transform="matrix(1,0,0,1,0,0)"><path fill="rgb(165,82,45)" fill-opacity="1" d=" M156.23699951171875,87.6719970703125 C158.0800018310547,102.13500213623047 106.16899871826172,162.64300537109375 31.591999053955078,172.1490020751953 C-42.98500061035156,181.65499877929688 -122.1510009765625,137.7949981689453 -123.99400329589844,123.33200073242188 C-125.83699798583984,108.86900329589844 -62.32400131225586,94.1500015258789 12.253000259399414,84.64399719238281 C86.83000183105469,75.13800048828125 154.3939971923828,73.20899963378906 156.23699951171875,87.6719970703125z"></path><path stroke-linecap="butt" stroke-linejoin="miter" fill-opacity="0" stroke-miterlimit="10" stroke="rgb(140,58,42)" stroke-opacity="1" stroke-width="11" d=" M156.23699951171875,87.6719970703125 C158.0800018310547,102.13500213623047 106.16899871826172,162.64300537109375 31.591999053955078,172.1490020751953 C-42.98500061035156,181.65499877929688 -122.1510009765625,137.7949981689453 -123.99400329589844,123.33200073242188 C-125.83699798583984,108.86900329589844 -62.32400131225586,94.1500015258789 12.253000259399414,84.64399719238281 C86.83000183105469,75.13800048828125 154.3939971923828,73.20899963378906 156.23699951171875,87.6719970703125z"></path></g></g></g><g style="display: block;" transform="matrix(1,0,0,1,255.99977111816406,256.0003662109375)" opacity="1"><g opacity="1" transform="matrix(1,0,0,1,0,0)"><g opacity="1" transform="matrix(1,0,0,1,0,0)"><g opacity="1" transform="matrix(1,0,0,1,0,0)"><path fill="rgb(226,77,98)" fill-opacity="1" d=" M-52.67499923706055,154.95399475097656 C-45.46500015258789,146.86399841308594 -57.80699920654297,97.18399810791016 -11.312000274658203,60.80500030517578 C14,41 35.58000183105469,60.766998291015625 49.9640007019043,56.55400085449219 C86,46 106,51 102.70999908447266,65.29900360107422 C94.62300109863281,100.44999694824219 47,82 24.73900032043457,94.31300354003906 C16.858999252319336,98.6719970703125 16.625999450683594,136.78799438476562 16.625999450683594,136.78799438476562 C16.625999450683594,136.78799438476562 -53.54899978637695,155.9340057373047 -52.67499923706055,154.95399475097656z"></path><path stroke-linecap="butt" stroke-linejoin="miter" fill-opacity="0" stroke-miterlimit="10" stroke="rgb(175,39,88)" stroke-opacity="1" stroke-width="11" d=" M-52.67499923706055,154.95399475097656 C-45.46500015258789,146.86399841308594 -57.80699920654297,97.18399810791016 -11.312000274658203,60.80500030517578 C14,41 35.58000183105469,60.766998291015625 49.9640007019043,56.55400085449219 C86,46 106,51 102.70999908447266,65.29900360107422 C94.62300109863281,100.44999694824219 47,82 24.73900032043457,94.31300354003906 C16.858999252319336,98.6719970703125 16.625999450683594,136.78799438476562 16.625999450683594,136.78799438476562 C16.625999450683594,136.78799438476562 -53.54899978637695,155.9340057373047 -52.67499923706055,154.95399475097656z"></path></g><g opacity="1" transform="matrix(1,0,0,1,0,0)"><path stroke-linecap="round" stroke-linejoin="round" fill-opacity="0" stroke="rgb(175,39,88)" stroke-opacity="1" stroke-width="11" d="M0 0"></path></g></g></g></g><g style="display: block;" transform="matrix(1,0,0,1,255.99977111816406,256.0003662109375)" opacity="1"><g opacity="1" transform="matrix(1,0,0,1,0.550000011920929,0.48500001430511475)"><path fill="rgb(245,249,255)" fill-opacity="1" d=" M-97.01499938964844,126.30000305175781 C-97.01499938964844,126.30000305175781 -79.6500015258789,100.43800354003906 -73.05899810791016,98.93299865722656 C-66.46800231933594,97.4280014038086 -55.40399932861328,121.44400024414062 -55.40399932861328,121.44400024414062 C-55.40399932861328,121.44400024414062 -35.518001556396484,93.72699737548828 -30.808000564575195,93.39099884033203 C-26.097999572753906,93.05500030517578 -5.238999843597412,122.76399993896484 -5.238999843597412,122.76399993896484 C-5.238999843597412,122.76399993896484 8.38700008392334,87.78800201416016 13.01099967956543,87.89800262451172 C17.635000228881836,88.00800323486328 45.55699920654297,116.94000244140625 45.55699920654297,116.94000244140625 C45.55699920654297,116.94000244140625 62.7140007019043,85.65399932861328 66.0780029296875,84.30799865722656 C69.44200134277344,82.96199798583984 97.36499786376953,110.88400268554688 97.36499786376953,110.88400268554688 C97.36499786376953,110.88400268554688 110.14900207519531,92.38099670410156 116.87699890136719,88.00800323486328 C123.6050033569336,83.63500213623047 144.46200561523438,100.45600128173828 144.46200561523438,100.45600128173828 C144.46200561523438,100.45600128173828 64.73300170898438,147.88999938964844 6.197000026702881,150.58099365234375 C-52.3390007019043,153.27200317382812 -97.01499938964844,126.30000305175781 -97.01499938964844,126.30000305175781z"></path><path stroke-linecap="round" stroke-linejoin="round" fill-opacity="0" stroke="rgb(85,100,142)" stroke-opacity="1" stroke-width="11" d=" M-97.01499938964844,126.30000305175781 C-97.01499938964844,126.30000305175781 -79.6500015258789,100.43800354003906 -73.05899810791016,98.93299865722656 C-66.46800231933594,97.4280014038086 -55.40399932861328,121.44400024414062 -55.40399932861328,121.44400024414062 C-55.40399932861328,121.44400024414062 -35.518001556396484,93.72699737548828 -30.808000564575195,93.39099884033203 C-26.097999572753906,93.05500030517578 -5.238999843597412,122.76399993896484 -5.238999843597412,122.76399993896484 C-5.238999843597412,122.76399993896484 8.38700008392334,87.78800201416016 13.01099967956543,87.89800262451172 C17.635000228881836,88.00800323486328 45.55699920654297,116.94000244140625 45.55699920654297,116.94000244140625 C45.55699920654297,116.94000244140625 62.7140007019043,85.65399932861328 66.0780029296875,84.30799865722656 C69.44200134277344,82.96199798583984 97.36499786376953,110.88400268554688 97.36499786376953,110.88400268554688 C97.36499786376953,110.88400268554688 110.14900207519531,92.38099670410156 116.87699890136719,88.00800323486328 C123.6050033569336,83.63500213623047 144.46200561523438,100.45600128173828 144.46200561523438,100.45600128173828 C144.46200561523438,100.45600128173828 64.73300170898438,147.88999938964844 6.197000026702881,150.58099365234375 C-52.3390007019043,153.27200317382812 -97.01499938964844,126.30000305175781 -97.01499938964844,126.30000305175781z"></path></g><g opacity="1" transform="matrix(1,0,0,1,0,0)"><path fill="url(#__lottie_element_51)" fill-opacity="1" d=" M-121.13999938964844,121.6709976196289 C-85.26000213623047,124.68299865722656 -19.32200050354004,130.072998046875 53.176998138427734,118.13300323486328 C131.33700561523438,105.26100158691406 147.5229949951172,83.3740005493164 156.46099853515625,89.33300018310547 C165.3990020751953,95.29199981689453 165.45899963378906,126.60700225830078 163.31199645996094,147.375 C160.48699951171875,174.69900512695312 142.1649932861328,198.32000732421875 70.0719985961914,209.85499572753906 C-8.01099967956543,222.34800720214844 -72.19000244140625,219.4669952392578 -102.74199676513672,178.71299743652344 C-115.427001953125,161.79299926757812 -133.41299438476562,120.64099884033203 -121.13999938964844,121.6709976196289z"></path><path stroke-linecap="butt" stroke-linejoin="miter" fill-opacity="0" stroke-miterlimit="10" stroke="rgb(181,97,72)" stroke-opacity="1" stroke-width="11" d=" M-121.13999938964844,121.6709976196289 C-85.26000213623047,124.68299865722656 -19.32200050354004,130.072998046875 53.176998138427734,118.13300323486328 C131.33700561523438,105.26100158691406 147.5229949951172,83.3740005493164 156.46099853515625,89.33300018310547 C165.3990020751953,95.29199981689453 165.45899963378906,126.60700225830078 163.31199645996094,147.375 C160.48699951171875,174.69900512695312 142.1649932861328,198.32000732421875 70.0719985961914,209.85499572753906 C-8.01099967956543,222.34800720214844 -72.19000244140625,219.4669952392578 -102.74199676513672,178.71299743652344 C-115.427001953125,161.79299926757812 -133.41299438476562,120.64099884033203 -121.13999938964844,121.6709976196289z"></path></g><g opacity="1" transform="matrix(1,0,0,1,0,0)"><path fill="rgb(232,162,114)" fill-opacity="1" d=" M146.9709930419922,95.22799682617188 C146.9709930419922,95.22799682617188 152.8730010986328,130.05999755859375 134.47500610351562,159.87100219726562 C119.84100341796875,183.58399963378906 -53.347999572753906,232.32899475097656 -105.83399963378906,162.9949951171875 C-105.83399963378906,162.9949951171875 -94.05799865722656,203.1269989013672 -29.174999237060547,210.33599853515625 C35.70800018310547,217.5449981689453 111.40499877929688,199.52200317382812 139.52099609375,180.0570068359375 C162.58900451660156,164.08700561523438 160.5590057373047,117.8759994506836 157.5449981689453,99.79399871826172 C156.58399963378906,94.0270004272461 153.50999450683594,92.2750015258789 150.8159942626953,93.78600311279297 C150.8159942626953,93.78600311279297 146.9709930419922,95.22799682617188 146.9709930419922,95.22799682617188z"></path></g></g><g style="display: block;" transform="matrix(1,0,0,1,255.99960327148438,255.9990234375)" opacity="1"><g opacity="1" transform="matrix(1,0,0,1,0,0)"><path fill="url(#__lottie_element_41)" fill-opacity="1" d=" M-131.78700256347656,24.336999893188477 C-126.0199966430664,29.382999420166016 0.14100000262260437,-6.860000133514404 128.58700561523438,-30.93400001525879 C135.57899475097656,-32.24399948120117 136.83999633789062,-37.18000030517578 136.03700256347656,-42.5890007019043 C134.23500061035156,-54.724998474121094 127.0250015258789,-80.0770034790039 127.0250015258789,-80.0770034790039 C129.18800354003906,-76.23200225830078 142.44400024414062,-38.81800079345703 139.76199340820312,-32.85599899291992 C136.14500427246094,-24.81599998474121 98.71099853515625,-9.550999641418457 -8.940999984741211,8.95199966430664 C-35.3390007019043,13.48900032043457 -139.28199768066406,44.02899932861328 -140.43800354003906,41.638999938964844 C-149.8979949951172,22.070999145507812 -159.3179931640625,-67.75 -159.3179931640625,-67.75 C-159.3179931640625,-67.75 -137.5540008544922,19.291000366210938 -131.78700256347656,24.336999893188477z M-144.1790008544922,45.619998931884766 C-145.78500366210938,46.2599983215332 -195.64999389648438,-121.23899841308594 -126.5770034790039,-159.71499633789062 C-97.93299865722656,-175.6699981689453 -22.54199981689453,-209.8000030517578 16.43199920654297,-207.38499450683594 C114.52200317382812,-201.30599975585938 143.5500030517578,-46.5 144.54299926757812,-33.59000015258789 C145.53599548339844,-20.68000030517578 96.8740005493164,-11.741000175476074 49.20399856567383,1.1690000295639038 C1.534000039100647,14.079000473022461 -18.32699966430664,12.093000411987305 -59.04499816894531,21.0310001373291 C-93.50900268554688,28.59600067138672 -133.31199645996094,41.28900146484375 -144.1790008544922,45.619998931884766z"></path><g opacity="1" transform="matrix(1,0,0,1,0,0)"><path fill="rgb(232,162,114)" fill-opacity="1" d=" M-131.78700256347656,24.336999893188477 C-126.0199966430664,29.382999420166016 0.14100000262260437,-6.860000133514404 128.58700561523438,-30.93400001525879 C135.57899475097656,-32.24399948120117 136.83999633789062,-37.18000030517578 136.03700256347656,-42.5890007019043 C134.23500061035156,-54.724998474121094 127.0250015258789,-80.0770034790039 127.0250015258789,-80.0770034790039 C129.18800354003906,-76.23200225830078 142.44400024414062,-38.81800079345703 139.76199340820312,-32.85599899291992 C136.14500427246094,-24.81599998474121 98.71099853515625,-9.550999641418457 -8.940999984741211,8.95199966430664 C-35.3390007019043,13.48900032043457 -139.28199768066406,44.02899932861328 -140.43800354003906,41.638999938964844 C-149.8979949951172,22.070999145507812 -159.3179931640625,-67.75 -159.3179931640625,-67.75 C-159.3179931640625,-67.75 -137.5540008544922,19.291000366210938 -131.78700256347656,24.336999893188477z"></path></g><path stroke-linecap="butt" stroke-linejoin="miter" fill-opacity="0" stroke-miterlimit="10" stroke="rgb(181,97,72)" stroke-opacity="1" stroke-width="11" d=" M-144.1790008544922,45.619998931884766 C-145.78500366210938,46.2599983215332 -195.64999389648438,-121.23899841308594 -126.5770034790039,-159.71499633789062 C-97.93299865722656,-175.6699981689453 -22.54199981689453,-209.8000030517578 16.43199920654297,-207.38499450683594 C114.52200317382812,-201.30599975585938 143.5500030517578,-46.5 144.54299926757812,-33.59000015258789 C145.53599548339844,-20.68000030517578 96.8740005493164,-11.741000175476074 49.20399856567383,1.1690000295639038 C1.534000039100647,14.079000473022461 -18.32699966430664,12.093000411987305 -59.04499816894531,21.0310001373291 C-93.50900268554688,28.59600067138672 -133.31199645996094,41.28900146484375 -144.1790008544922,45.619998931884766z"></path></g></g><g style="display: block;" transform="matrix(1,0,0,1,255.99960327148438,255.9990234375)" opacity="1"><g opacity="1" transform="matrix(1,0,0,1,0,0)"><path fill="rgb(237,158,119)" fill-opacity="1" d=" M81.78700256347656,-58.79899978637695 C86.7969970703125,-47.625 103.36900329589844,-39.33100128173828 118.62100219726562,-53.95600128173828 C133.66700744628906,-68.38300323486328 132.2729949951172,-104.86599731445312 120.17900085449219,-122.66200256347656 C108.08499908447266,-140.45799255371094 76.7770004272461,-69.9729995727539 81.78700256347656,-58.79899978637695z"></path></g><g opacity="1" transform="matrix(1,0,0,1,0,0)"><path fill="url(#__lottie_element_44)" fill-opacity="1" d=" M-114.38500213623047,-30.746000289916992 C-101.11799621582031,-8.204999923706055 -78.19200134277344,-11.324999809265137 -78.19200134277344,-11.324999809265137"></path><path stroke-linecap="round" stroke-linejoin="round" fill-opacity="0" stroke="rgb(224,141,99)" stroke-opacity="1" stroke-width="11" d=" M-114.38500213623047,-30.746000289916992 C-101.11799621582031,-8.204999923706055 -78.19200134277344,-11.324999809265137 -78.19200134277344,-11.324999809265137"></path></g><g opacity="1" transform="matrix(1,0,0,1,0,0)"><path fill="url(#__lottie_element_45)" fill-opacity="1" d=" M131.16799926757812,-55.11899948120117 C122.81500244140625,-41.04600143432617 102.06099700927734,-44.948001861572266 102.06099700927734,-44.948001861572266"></path><path stroke-linecap="round" stroke-linejoin="round" fill-opacity="0" stroke="rgb(224,141,99)" stroke-opacity="1" stroke-width="11" d=" M131.16799926757812,-55.11899948120117 C122.81500244140625,-41.04600143432617 102.06099700927734,-44.948001861572266 102.06099700927734,-44.948001861572266"></path></g><g opacity="1" transform="matrix(1,0,0,1,0,0)"><g opacity="1" transform="matrix(1,0,0,1,0,0)"><path stroke-linecap="round" stroke-linejoin="round" fill-opacity="0" stroke="rgb(224,141,99)" stroke-opacity="1" stroke-width="11" d=" M8.553000450134277,-130.4219970703125 C12.251999855041504,-111.82099914550781 23.933000564575195,-91.33200073242188 23.933000564575195,-91.33200073242188"></path></g><g opacity="1" transform="matrix(1,0,0,1,0,0)"><path fill="rgb(224,141,99)" fill-opacity="1" d=" M70.11499786376953,-180.447998046875 C61.3380012512207,-176.0749969482422 27.391000747680664,-150.843994140625 23.833999633789062,-112.28900146484375 C22.73900032043457,-100.41400146484375 32.00699996948242,-97.87200164794922 36.19300079345703,-100.37100219726562 C43.53900146484375,-104.75499725341797 44.04600143432617,-151.3040008544922 79.87100219726562,-170.3560028076172 C76.27400207519531,-174.08399963378906 74.34600067138672,-177.01600646972656 70.11499786376953,-180.447998046875z"></path></g><g opacity="1" transform="matrix(1,0,0,1,0,0)"><path fill="rgb(104,39,33)" fill-opacity="1" d=" M85.13200378417969,-192.58200073242188 C37.81999969482422,-181.45799255371094 18.74799919128418,-130.69400024414062 18.30699920654297,-118.7770004272461 C17.865999221801758,-106.86000061035156 26.65999984741211,-104.08200073242188 30.666000366210938,-106.86000061035156 C37.81999969482422,-111.82099914550781 38.492000579833984,-143.1060028076172 64.21099853515625,-166.0050048828125 C84.05899810791016,-183.677001953125 87.78700256347656,-180.38400268554688 90.5790023803711,-184.5709991455078 C93.14199829101562,-188.41600036621094 89.25299835205078,-193.55099487304688 85.13200378417969,-192.58200073242188z"></path></g><g opacity="1" transform="matrix(1,0,0,1,0,0)"><path fill="rgb(224,141,99)" fill-opacity="1" d=" M-117.12799835205078,-126.33699798583984 C-117.12799835205078,-126.33699798583984 -119.0510025024414,-118.16600036621094 -113.76399993896484,-115.28199768066406 C-108.47699737548828,-112.39800262451172 -58.012001037597656,-119.60800170898438 -31.577999114990234,-102.30599975585938 C-5.144000053405762,-85.00399780273438 -15.444999694824219,-86.36799621582031 -7.27400016784668,-88.77100372314453 C0.8970000147819519,-91.17400360107422 -3.428999900817871,-104.63099670410156 -3.428999900817871,-104.63099670410156 C-42.45199966430664,-133.40199279785156 -71.24199676513672,-142.8679962158203 -117.12799835205078,-126.33699798583984z"></path></g><g opacity="1" transform="matrix(1,0,0,1,0,0)"><path fill="rgb(104,39,33)" fill-opacity="1" d=" M-117.03099822998047,-123.5459976196289 C-121.41600036621094,-127.24099731445312 -118.73600006103516,-133.08399963378906 -113.2030029296875,-134.58700561523438 C-97.98500061035156,-138.7209930419922 -25.874000549316406,-159.0240020751953 3.878000020980835,-102.55400085449219 C7.394000053405762,-95.88099670410156 -4.949999809265137,-92.28500366210938 -10.246999740600586,-94.0510025024414 C-15.543999671936035,-95.81700134277344 -17.606000900268555,-119.0009994506836 -57.77199935913086,-122.09100341796875 C-97.93800354003906,-125.18099975585938 -115.93199920654297,-122.62000274658203 -117.03099822998047,-123.5459976196289z"></path></g></g><g opacity="1" transform="matrix(1,0,0,1,0,0)"><path fill="rgb(237,158,119)" fill-opacity="1" d=" M-108.4739990234375,-63.62900161743164 C-111.40499877929688,-31.090999603271484 -85.05599975585938,-11.043999671936035 -49.73099899291992,-15.305999755859375 C-10.366000175476074,-20.055999755859375 2.427999973297119,-54.755001068115234 -1.4800000190734863,-74.4749984741211 C-5.388000011444092,-94.19499969482422 -22.488000869750977,-109.47799682617188 -22.488000869750977,-109.47799682617188 C-22.488000869750977,-109.47799682617188 -105.54299926757812,-96.16699981689453 -108.4739990234375,-63.62900161743164z"></path></g><g opacity="1" transform="matrix(1,0,0,1,0,0)"><path fill="rgb(255,253,253)" fill-opacity="1" d=" M-10.968000411987305,-79.9489974975586 C-4.690000057220459,-53.11000061035156 -18.104999542236328,-31.232999801635742 -46.09600067138672,-24.68600082397461 C-74.08699798583984,-18.138999938964844 -103.99500274658203,-30.33099937438965 -110.27300262451172,-57.16999816894531 C-116.5510025024414,-84.00900268554688 -98.9489974975586,-111.0739974975586 -70.95800018310547,-117.62100219726562 C-42.96699905395508,-124.16799926757812 -17.246000289916992,-106.78800201416016 -10.968000411987305,-79.9489974975586z"></path></g><g opacity="1" transform="matrix(1,0,0,1,0,0)"><path fill="rgb(255,253,253)" fill-opacity="1" d=" M125.83399963378906,-116.61599731445312 C135.92300415039062,-90.93599700927734 123.45600128173828,-60.323001861572266 104.31500244140625,-52.803001403808594 C85.17400360107422,-45.28300094604492 70.71600341796875,-63.03099822998047 60.62699890136719,-88.71099853515625 C50.53799819946289,-114.39099884033203 48.637001037597656,-138.2779998779297 67.77799987792969,-145.79800415039062 C86.91899871826172,-153.3179931640625 115.74500274658203,-142.29600524902344 125.83399963378906,-116.61599731445312z"></path></g><g opacity="1" transform="matrix(1,0,0,1,0,0)"><g opacity="1" transform="matrix(1,0,0,1,0,0)"><g opacity="1" transform="matrix(1,0,0,1,0,0)"><path fill="rgb(212,211,239)" fill-opacity="1" d=" M-27.010000228881836,-102.44300079345703 C0.9539999961853027,-52.75699996948242 -58.387001037597656,-19.860000610351562 -94.77899932861328,-39.584999084472656 C-94.77899932861328,-39.584999084472656 -77.96900177001953,-14.581000328063965 -43.09700012207031,-28.113000869750977 C12.689000129699707,-49.76100158691406 -27.010000228881836,-102.44300079345703 -27.010000228881836,-102.44300079345703z"></path></g></g><g opacity="1" transform="matrix(1,0,0,1,0,0)"><g opacity="1" transform="matrix(1,0,0,1,0,0)"><path fill="rgb(0,0,0)" fill-opacity="1" d=" M-56.37799835205078,-67.9540023803711 C-56.37799835205078,-56.83399963378906 -65.39199829101562,-47.819000244140625 -76.51200103759766,-47.819000244140625 C-87.63200378417969,-47.819000244140625 -96.64700317382812,-56.83399963378906 -96.64700317382812,-67.9540023803711 C-96.64700317382812,-79.0739974975586 -87.63200378417969,-88.08799743652344 -76.51200103759766,-88.08799743652344 C-65.39199829101562,-88.08799743652344 -56.37799835205078,-79.0739974975586 -56.37799835205078,-67.9540023803711z"></path></g><g opacity="1" transform="matrix(1,0,0,1,0,0)"><path fill="rgb(50,50,112)" fill-opacity="1" d=" M-82.44400024414062,-62.013999938964844 C-82.44400024414062,-62.013999938964844 -65.46099853515625,-72.26699829101562 -62.737998962402344,-69.2229995727539 C-60.01499938964844,-66.17900085449219 -61.9370002746582,-55.28499984741211 -70.90899658203125,-53.04199981689453 C-79.88099670410156,-50.79899978637695 -86.12799835205078,-55.926998138427734 -85.80799865722656,-57.8489990234375 C-85.48799896240234,-59.770999908447266 -82.44400024414062,-62.013999938964844 -82.44400024414062,-62.013999938964844z"></path></g><g opacity="1" transform="matrix(1,0,0,1,0,0)"><path fill="rgb(255,255,255)" fill-opacity="1" d=" M-84.41799926757812,-57.8489990234375 C-84.41799926757812,-54.696998596191406 -87.12100219726562,-52.14099884033203 -90.4540023803711,-52.14099884033203 C-93.78700256347656,-52.14099884033203 -96.48899841308594,-54.696998596191406 -96.48899841308594,-57.8489990234375 C-96.48899841308594,-61.000999450683594 -93.78700256347656,-63.555999755859375 -90.4540023803711,-63.555999755859375 C-87.12100219726562,-63.555999755859375 -84.41799926757812,-61.000999450683594 -84.41799926757812,-57.8489990234375z"></path></g></g><g opacity="1" transform="matrix(1,0,0,1,0,0)"><g opacity="1" transform="matrix(1,0,0,1,0,0)"><path fill="rgb(212,211,239)" fill-opacity="1" d=" M122.5469970703125,-111.68099975585938 C122.5469970703125,-111.68099975585938 124.04499816894531,-81.47000122070312 107.06700134277344,-70.48400115966797 C88.91200256347656,-58.73699951171875 75.35800170898438,-67.73799896240234 75.35800170898438,-67.73799896240234 C75.35800170898438,-67.73799896240234 81.41999816894531,-49.21500015258789 102.78800201416016,-56.92399978637695 C135.52999877929688,-68.73699951171875 122.5469970703125,-111.68099975585938 122.5469970703125,-111.68099975585938z"></path></g></g><g opacity="1" transform="matrix(1,0,0,1,0,0)"><g opacity="1" transform="matrix(1,0,0,1,0,0)"><path fill="rgb(0,0,0)" fill-opacity="1" d=" M120.68199920654297,-119.68599700927734 C125.12999725341797,-109.98200225830078 122.94400024414062,-99.45999908447266 115.79900360107422,-96.18499755859375 C108.65399932861328,-92.91000366210938 99.25599670410156,-98.12100219726562 94.80799865722656,-107.82499694824219 C90.36000061035156,-117.52899932861328 92.54499816894531,-128.0500030517578 99.69000244140625,-131.3249969482422 C106.83499908447266,-134.60000610351562 116.23400115966797,-129.38999938964844 120.68199920654297,-119.68599700927734z"></path></g><g opacity="1" transform="matrix(1,0,0,1,0,0)"><path fill="rgb(50,50,112)" fill-opacity="1" d=" M103.93699645996094,-106.50199890136719 C103.93699645996094,-106.50199890136719 116.71900177001953,-118.16100311279297 119.26100158691406,-115.36799621582031 C121.8030014038086,-112.57499694824219 121.37699890136719,-101.57599639892578 114.29100036621094,-98.572998046875 C107.20500183105469,-95.56999969482422 101.56800079345703,-100.13099670410156 101.62799835205078,-102.06999969482422 C101.68800354003906,-104.00900268554688 103.93699645996094,-106.50199890136719 103.93699645996094,-106.50199890136719z"></path></g><g opacity="1" transform="matrix(1,0,0,1,0,0)"><path fill="rgb(255,255,255)" fill-opacity="1" d=" M104.0770034790039,-103.83899688720703 C104.40799713134766,-100.7040023803711 101.98899841308594,-97.87999725341797 98.67400360107422,-97.52999877929688 C95.35900115966797,-97.18000030517578 92.40399932861328,-99.43800354003906 92.072998046875,-102.572998046875 C91.74199676513672,-105.70800018310547 94.16200256347656,-108.53199768066406 97.47699737548828,-108.88200378417969 C100.79199981689453,-109.23200225830078 103.74600219726562,-106.9739990234375 104.0770034790039,-103.83899688720703z"></path></g></g></g><g opacity="1" transform="matrix(1,0,0,1,0,0)"><path stroke-linecap="round" stroke-linejoin="round" fill-opacity="0" stroke="rgb(135,68,53)" stroke-opacity="1" stroke-width="11" d=" M-10.968000411987305,-79.9489974975586 C-4.690000057220459,-53.11000061035156 -18.104999542236328,-31.232999801635742 -46.09600067138672,-24.68600082397461 C-74.08699798583984,-18.138999938964844 -103.99500274658203,-30.33099937438965 -110.27300262451172,-57.16999816894531 C-116.5510025024414,-84.00900268554688 -98.9489974975586,-111.0739974975586 -70.95800018310547,-117.62100219726562 C-42.96699905395508,-124.16799926757812 -17.246000289916992,-106.78800201416016 -10.968000411987305,-79.9489974975586z"></path></g><g opacity="1" transform="matrix(1,0,0,1,0,0)"><path stroke-linecap="round" stroke-linejoin="round" fill-opacity="0" stroke="rgb(135,68,53)" stroke-opacity="1" stroke-width="11" d=" M125.83399963378906,-116.61599731445312 C135.92300415039062,-90.93599700927734 123.45600128173828,-60.323001861572266 104.31500244140625,-52.803001403808594 C85.17400360107422,-45.28300094604492 70.71600341796875,-63.03099822998047 60.62699890136719,-88.71099853515625 C50.53799819946289,-114.39099884033203 48.637001037597656,-138.2779998779297 67.77799987792969,-145.79800415039062 C86.91899871826172,-153.3179931640625 115.74500274658203,-142.29600524902344 125.83399963378906,-116.61599731445312z"></path></g></g><g style="display: block;" transform="matrix(1,0,0,1,255.99960327148438,255.9990234375)" opacity="1"><g opacity="1" transform="matrix(1,0,0,1,0.05900000035762787,0)"><path stroke-linecap="round" stroke-linejoin="round" fill-opacity="0" stroke="rgb(224,141,99)" stroke-opacity="1" stroke-width="11" d=" M-40.053001403808594,-151.2729949951172 C-40.053001403808594,-151.2729949951172 -17.547000885009766,-150.08700561523438 -4.03000020980835,-152.25599670410156 C10.234000205993652,-154.5449981689453 3.385999917984009,-166.53799438476562 24.14299964904785,-173.6750030517578"></path></g><g opacity="1" transform="matrix(1,0,0,1,0.05900000035762787,0)"><path stroke-linecap="round" stroke-linejoin="round" fill-opacity="0" stroke="rgb(224,141,99)" stroke-opacity="1" stroke-width="11" d=" M-22.166000366210938,-171.60299682617188 C-22.166000366210938,-171.60299682617188 -13.345999717712402,-170.093994140625 -8.788999557495117,-175.27099609375"></path></g></g><g style="display: none;"><g><path></path><path stroke-linecap="round" stroke-linejoin="round" fill-opacity="0"></path></g></g><g style="display: none;"><g><path></path><path stroke-linecap="round" stroke-linejoin="round" fill-opacity="0"></path></g></g><g style="display: none;"><g><path></path><path stroke-linecap="round" stroke-linejoin="round" fill-opacity="0"></path></g></g><g style="display: none;"><g><path></path><path stroke-linecap="round" stroke-linejoin="round" fill-opacity="0"></path></g></g><g style="display: none;"><g><path></path><path stroke-linecap="round" stroke-linejoin="round" fill-opacity="0"></path></g></g><g style="display: none;"><g><path></path><path stroke-linecap="round" stroke-linejoin="round" fill-opacity="0"></path></g></g><g style="display: none;"><g><path></path><path stroke-linecap="round" stroke-linejoin="round" fill-opacity="0"></path></g></g><g style="display: block;" transform="matrix(1,0,0,1,235.95802307128906,263.8595886230469)" opacity="1"><g opacity="1" transform="matrix(1,0,0,1,0,0)"><path fill="rgb(122,200,255)" fill-opacity="1" d=" M156.9149932861328,20.974000930786133 C156.9149932861328,20.974000930786133 204.95899963378906,-34.60599899291992 219.08900451660156,-4.460999965667725 C233.218994140625,25.68400001525879 156.9149932861328,20.974000930786133 156.9149932861328,20.974000930786133z"></path><path stroke-linecap="round" stroke-linejoin="round" fill-opacity="0" stroke="rgb(3,100,255)" stroke-opacity="1" stroke-width="11" d=" M156.9149932861328,20.974000930786133 C156.9149932861328,20.974000930786133 204.95899963378906,-34.60599899291992 219.08900451660156,-4.460999965667725 C233.218994140625,25.68400001525879 156.9149932861328,20.974000930786133 156.9149932861328,20.974000930786133z"></path></g></g><g style="display: none;"><g><path></path><path stroke-linecap="round" stroke-linejoin="round" fill-opacity="0"></path></g></g><g style="display: block;" transform="matrix(1,0,0,1,255.9755859375,300.21405029296875)" opacity="1"><g opacity="1" transform="matrix(1,0,0,1,0,0)"><path fill="rgb(122,200,255)" fill-opacity="1" d=" M140.81900024414062,12.9399995803833 C140.81900024414062,12.9399995803833 190.8260040283203,-0.2540000081062317 182.43699645996094,22.905000686645508 C174.04800415039062,46.06399917602539 140.81900024414062,12.9399995803833 140.81900024414062,12.9399995803833z"></path><path stroke-linecap="round" stroke-linejoin="round" fill-opacity="0" stroke="rgb(3,100,255)" stroke-opacity="1" stroke-width="11" d=" M140.81900024414062,12.9399995803833 C140.81900024414062,12.9399995803833 190.8260040283203,-0.2540000081062317 182.43699645996094,22.905000686645508 C174.04800415039062,46.06399917602539 140.81900024414062,12.9399995803833 140.81900024414062,12.9399995803833z"></path></g></g></g></svg>