<svg xmlns="http://www.w3.org/2000/svg" xmlns:xlink="http://www.w3.org/1999/xlink" viewBox="0 0 512 512" width="512" height="512" style="width: 100%; height: 100%; transform: translate3d(0,0,0); content-visibility: visible;" preserveAspectRatio="xMidYMid meet"><defs><clipPath id="__lottie_element_2"><rect width="512" height="512" x="0" y="0"></rect></clipPath><radialGradient id="__lottie_element_8" spreadMethod="pad" gradientUnits="userSpaceOnUse" cx="77.4739990234375" cy="-111" r="135.36329090519186" fx="77.4739990234375" fy="-111"><stop offset="0%" stop-color="rgb(249,228,212)"></stop><stop offset="50%" stop-color="rgb(250,212,184)"></stop><stop offset="100%" stop-color="rgb(251,197,156)"></stop></radialGradient><radialGradient id="__lottie_element_9" spreadMethod="pad" gradientUnits="userSpaceOnUse" cx="-88" cy="3" r="46.94680984337977" fx="-88" fy="3"><stop offset="0%" stop-color="rgb(249,228,212)"></stop><stop offset="50%" stop-color="rgb(250,212,184)"></stop><stop offset="100%" stop-color="rgb(251,197,156)"></stop></radialGradient><radialGradient id="__lottie_element_19" spreadMethod="pad" gradientUnits="userSpaceOnUse" cx="11.847999572753906" cy="-16.448999404907227" r="43.0292106963539" fx="11.847999572753906" fy="-16.448999404907227"><stop offset="0%" stop-color="rgb(249,228,212)"></stop><stop offset="50%" stop-color="rgb(250,212,184)"></stop><stop offset="100%" stop-color="rgb(251,197,156)"></stop></radialGradient><linearGradient id="__lottie_element_23" spreadMethod="pad" gradientUnits="userSpaceOnUse" x1="6.145999908447266" y1="15.440999984741211" x2="6.965000152587891" y2="31.31800079345703"><stop offset="0%" stop-color="rgb(249,228,212)" stop-opacity="0"></stop><stop offset="50%" stop-color="rgb(250,212,184)" stop-opacity="0.5"></stop><stop offset="100%" stop-color="rgb(251,197,156)" stop-opacity="1"></stop></linearGradient><linearGradient id="__lottie_element_27" spreadMethod="pad" gradientUnits="userSpaceOnUse" x1="2.2109999656677246" y1="217.93800354003906" x2="2.944000005722046" y2="-83.26000213623047"><stop offset="0%" stop-color="rgb(184,99,72)" stop-opacity="0"></stop><stop offset="50%" stop-color="rgb(163,76,49)" stop-opacity="0.5"></stop><stop offset="100%" stop-color="rgb(141,53,25)" stop-opacity="1"></stop></linearGradient><radialGradient id="__lottie_element_34" spreadMethod="pad" gradientUnits="userSpaceOnUse" cx="346" cy="-37" r="77.3147549632655" fx="346" fy="-37"><stop offset="0%" stop-color="rgb(249,228,212)"></stop><stop offset="50%" stop-color="rgb(250,212,184)"></stop><stop offset="100%" stop-color="rgb(251,197,156)"></stop></radialGradient><radialGradient id="__lottie_element_38" spreadMethod="pad" gradientUnits="userSpaceOnUse" cx="346" cy="-37" r="77.3147549632655" fx="346" fy="-37"><stop offset="0%" stop-color="rgb(249,228,212)"></stop><stop offset="50%" stop-color="rgb(250,212,184)"></stop><stop offset="100%" stop-color="rgb(251,197,156)"></stop></radialGradient></defs><g clip-path="url(#__lottie_element_2)"><g style="display: block;" transform="matrix(1.1250035762786865,0,0,1.0285704135894775,-292.5417785644531,281.52838134765625)" opacity="1"><g opacity="1" transform="matrix(1,0,0,1,0,0)"><path fill="url(#__lottie_element_38)" fill-opacity="1" d=" M423.135009765625,-11.788000106811523 C423.135009765625,-11.788000106811523 403.89300537109375,-45.76300048828125 378.8080139160156,-45.56399917602539 C363.552001953125,-45.44300079345703 371.68701171875,-22.27199935913086 376.1789855957031,-14.043999671936035 C399.552001953125,28.77400016784668 393.5780029296875,70.57099914550781 403.42999267578125,81.04000091552734 C408.6310119628906,86.56700134277344 422.5899963378906,64.49500274658203 422.5899963378906,64.49500274658203 C422.5899963378906,64.49500274658203 423.135009765625,-11.788000106811523 423.135009765625,-11.788000106811523z"></path><path stroke-linecap="round" stroke-linejoin="round" fill-opacity="0" stroke="rgb(184,99,72)" stroke-opacity="1" stroke-width="14.173" d=" M423.135009765625,-11.788000106811523 C423.135009765625,-11.788000106811523 403.89300537109375,-45.76300048828125 378.8080139160156,-45.56399917602539 C363.552001953125,-45.44300079345703 371.68701171875,-22.27199935913086 376.1789855957031,-14.043999671936035 C399.552001953125,28.77400016784668 393.5780029296875,70.57099914550781 403.42999267578125,81.04000091552734 C408.6310119628906,86.56700134277344 422.5899963378906,64.49500274658203 422.5899963378906,64.49500274658203 C422.5899963378906,64.49500274658203 423.135009765625,-11.788000106811523 423.135009765625,-11.788000106811523z"></path></g></g><g style="display: block;" transform="matrix(-1.1250035762786865,0,0,1.0285704135894775,785.6359252929688,279.3683776855469)" opacity="1"><g opacity="1" transform="matrix(1,0,0,1,0,0)"><path fill="url(#__lottie_element_34)" fill-opacity="1" d=" M423.135009765625,-11.788000106811523 C423.135009765625,-11.788000106811523 403.89300537109375,-45.76300048828125 378.8080139160156,-45.56399917602539 C363.552001953125,-45.44300079345703 371.68701171875,-22.27199935913086 376.1789855957031,-14.043999671936035 C399.552001953125,28.77400016784668 393.5780029296875,70.57099914550781 403.42999267578125,81.04000091552734 C408.6310119628906,86.56700134277344 422.5899963378906,64.49500274658203 422.5899963378906,64.49500274658203 C422.5899963378906,64.49500274658203 423.135009765625,-11.788000106811523 423.135009765625,-11.788000106811523z"></path><path stroke-linecap="round" stroke-linejoin="round" fill-opacity="0" stroke="rgb(184,99,72)" stroke-opacity="1" stroke-width="14.173" d=" M423.135009765625,-11.788000106811523 C423.135009765625,-11.788000106811523 403.89300537109375,-45.76300048828125 378.8080139160156,-45.56399917602539 C363.552001953125,-45.44300079345703 371.68701171875,-22.27199935913086 376.1789855957031,-14.043999671936035 C399.552001953125,28.77400016784668 393.5780029296875,70.57099914550781 403.42999267578125,81.04000091552734 C408.6310119628906,86.56700134277344 422.5899963378906,64.49500274658203 422.5899963378906,64.49500274658203 C422.5899963378906,64.49500274658203 423.135009765625,-11.788000106811523 423.135009765625,-11.788000106811523z"></path></g></g><g style="display: block;" transform="matrix(1.0800000429153442,0,0,1.0800000429153442,243.36000061035156,278.5600280761719)" opacity="1"><g opacity="1" transform="matrix(1,0,0,1,0.9020000100135803,0.8320000171661377)"><path fill="url(#__lottie_element_8)" fill-opacity="1" d=" M-137.90699768066406,153.71400451660156 C-146.072998046875,145.45799255371094 -104.36599731445312,24.740999221801758 -109.0250015258789,-0.3230000138282776 C-113.68399810791016,-25.386999130249023 -118.64299774169922,-22.316999435424805 -118.64299774169922,-50.6510009765625 C-118.64299774169922,-78.98500061035156 -105.87000274658203,-191.15199279785156 -90.72799682617188,-193.33200073242188 C-75.58599853515625,-195.51199340820312 61.551998138427734,-203.11399841308594 89.03700256347656,-197.5679931640625 C117.50700378417969,-191.82400512695312 139.49600219726562,-39.880001068115234 132.5989990234375,-76.23999786376953 C129.69400024414062,-91.5530014038086 119.41600036621094,-28.812000274658203 119.41600036621094,-21.18400001525879 C119.41600036621094,-13.555999755859375 169.07699584960938,145.71299743652344 162.18800354003906,152.16299438476562 C125.58699798583984,186.42999267578125 -67.34200286865234,225.0540008544922 -137.90699768066406,153.71400451660156z"></path></g><g opacity="1" transform="matrix(1,0,0,1,0.9020000100135803,0.8320000171661377)"><path stroke-linecap="round" stroke-linejoin="round" fill-opacity="0" stroke="rgb(184,99,72)" stroke-opacity="1" stroke-width="14.173" d=" M-136.9010009765625,145.4770050048828 C-133.35000610351562,121.08599853515625 -104.93900299072266,17.791000366210938 -104.93900299072266,-7.678999900817871 C-104.93900299072266,-15.03499984741211 -116.31700134277344,-37.04999923706055 -116.31700134277344,-65.38400268554688 C-116.31700134277344,-93.71800231933594 -101.67400360107422,-193.4810028076172 -86.95800018310547,-195.66099548339844 C-72.24199676513672,-197.84100341796875 65.88300323486328,-200.16400146484375 93.0510025024414,-197.98399353027344 C120.21900177001953,-195.8040008544922 134.53399658203125,-71.70099639892578 134.53399658203125,-64.072998046875 C134.53399658203125,-56.44499969482422 117.37100219726562,-39.55400085449219 119.822998046875,-16.66900062561035 C122.1449966430664,5.001999855041504 157.54100036621094,136.35299682617188 160.28900146484375,145.8730010986328"></path></g><g opacity="1" transform="matrix(1,0,0,1,0.3970000147819519,0.23000000417232513)"><path fill="url(#__lottie_element_9)" fill-opacity="1" d=" M-106.02899932861328,-11.220000267028809 C-106.02899932861328,-11.220000267028809 -98.03800201416016,20.565000534057617 -90.0459976196289,28.19300079345703 C-82.05400085449219,35.82099914550781 -80.96399688720703,49.98699951171875 -80.60099792480469,59.79499816894531"></path><path stroke-linecap="round" stroke-linejoin="round" fill-opacity="0" stroke="rgb(184,99,72)" stroke-opacity="1" stroke-width="14.173" d=" M-106.02899932861328,-11.220000267028809 C-106.02899932861328,-11.220000267028809 -98.03800201416016,20.565000534057617 -90.0459976196289,28.19300079345703 C-82.05400085449219,35.82099914550781 -80.96399688720703,49.98699951171875 -80.60099792480469,59.79499816894531"></path></g><g opacity="1" transform="matrix(1,0,0,1,0,0)"><path stroke-linecap="round" stroke-linejoin="round" fill-opacity="0" stroke="rgb(184,99,72)" stroke-opacity="1" stroke-width="14.173" d=" M119.00499725341797,7.306000232696533 C119.00499725341797,7.306000232696533 104.29399871826172,12.935999870300293 103.2040023803711,18.74799919128418 C102.11399841308594,24.559999465942383 103.2040023803711,50.349998474121094 101.7509994506836,59.79499816894531"></path></g><g opacity="0.25" transform="matrix(1,0,0,1,0,0)"><path stroke-linecap="round" stroke-linejoin="round" fill-opacity="0" stroke="rgb(184,99,72)" stroke-opacity="1" stroke-width="14.173" d=" M-91.31700134277344,-142.53500366210938 C-89.30400085449219,-120.50900268554688 -102.07099914550781,-87.01799774169922 -89.13700103759766,-84.50599670410156"></path></g><g opacity="0.25" transform="matrix(1,0,0,1,0,0)"><path stroke-linecap="round" stroke-linejoin="round" fill-opacity="0" stroke="rgb(184,99,72)" stroke-opacity="1" stroke-width="14.173" d=" M104.4219970703125,-140.8520050048828 C104.4219970703125,-140.8520050048828 114.91999816894531,-85.10099792480469 97.18499755859375,-83.18599700927734"></path></g><g opacity="0.25" transform="matrix(1,0,0,1,0.44999998807907104,0.17299999296665192)"><path stroke-linecap="round" stroke-linejoin="round" fill-opacity="0" stroke="rgb(184,99,72)" stroke-opacity="1" stroke-width="14.173" d=" M-87.86199951171875,93.98600006103516 C-87.86199951171875,93.98600006103516 -100.93900299072266,156.91900634765625 -100.93900299072266,156.91900634765625"></path></g><g opacity="0.25" transform="matrix(1,0,0,1,0,0)"><path stroke-linecap="round" stroke-linejoin="round" fill-opacity="0" stroke="rgb(184,99,72)" stroke-opacity="1" stroke-width="14.173" d=" M112.37999725341797,107.06300354003906 C112.37999725341797,107.06300354003906 119.73600006103516,145.4770050048828 121.37100219726562,152.83299255371094 C123.00599670410156,160.18899536132812 123.00499725341797,160.18899536132812 123.00499725341797,160.18899536132812"></path></g><g opacity="1" transform="matrix(1,0,0,1,0,0)"><path fill="rgb(35,26,20)" fill-opacity="1" d=" M-96.91899871826172,-195.2469940185547 C-96.91899871826172,-195.2469940185547 -69.74600219726562,-207.51199340820312 -61.3849983215332,-210.02499389648438 C-53.02399826049805,-212.53799438476562 -53.303001403808594,-205.7169952392578 -53.303001403808594,-205.7169952392578 C-53.303001403808594,-205.7169952392578 -42.7130012512207,-215.6490020751953 -42.7130012512207,-215.6490020751953 C-42.7130012512207,-215.6490020751953 -41.31999969482422,-207.7519989013672 -41.31999969482422,-207.7519989013672 C-41.31999969482422,-207.7519989013672 -21.672000885009766,-215.17100524902344 -21.672000885009766,-215.17100524902344 C-21.672000885009766,-215.17100524902344 -2.859999895095825,-227.73500061035156 -2.859999895095825,-227.73500061035156 C-2.859999895095825,-227.73500061035156 -1.187999963760376,-216.6060028076172 -1.187999963760376,-216.6060028076172 C-1.187999963760376,-216.6060028076172 5.570000171661377,-216.2469940185547 5.570000171661377,-217.32400512695312 C5.570000171661377,-218.4010009765625 11.352999687194824,-229.17100524902344 11.352999687194824,-229.17100524902344 C11.352999687194824,-229.17100524902344 16.368999481201172,-217.68299865722656 16.368999481201172,-217.68299865722656 C16.368999481201172,-217.68299865722656 25.35700035095215,-226.47900390625 31.628000259399414,-222.52999877929688 C37.89899826049805,-218.58099365234375 34.345001220703125,-215.88800048828125 34.345001220703125,-215.88800048828125 C34.345001220703125,-215.88800048828125 39.98899841308594,-213.37600708007812 45.42300033569336,-211.94000244140625 C50.856998443603516,-210.50399780273438 56.500999450683594,-210.50399780273438 56.500999450683594,-210.50399780273438 C56.500999450683594,-210.50399780273438 64.86199951171875,-216.8459930419922 64.86199951171875,-216.8459930419922 C64.86199951171875,-216.8459930419922 69.45999908447266,-208.35000610351562 69.45999908447266,-208.35000610351562 C69.45999908447266,-208.35000610351562 84.927001953125,-200.81100463867188 84.927001953125,-200.81100463867188 C84.927001953125,-200.81100463867188 85.44999694824219,-211.1320037841797 88.3759994506836,-210.05499267578125 C91.302001953125,-208.97799682617188 96.00499725341797,-199.91400146484375 96.00499725341797,-199.91400146484375 C96.00499725341797,-199.91400146484375 96.77200317382812,-206.07699584960938 98.86199951171875,-203.2050018310547 C100.9520034790039,-200.33299255371094 104.43599700927734,-192.6750030517578 102.76399993896484,-189.0850067138672 C101.09200286865234,-185.4949951171875 98.30400085449219,-186.21299743652344 94.1240005493164,-186.57200622558594 C89.94400024414062,-186.93099975585938 77.81999969482422,-187.5290069580078 72.80400085449219,-187.5290069580078 C67.78800201416016,-187.5290069580078 63.18899917602539,-186.45199584960938 63.18899917602539,-186.45199584960938 C63.18899917602539,-186.45199584960938 58.73099899291992,-183.82000732421875 58.45199966430664,-183.82000732421875 C56.31999969482422,-183.82000732421875 54.54999923706055,-186.45199584960938 54.54999923706055,-186.45199584960938 C54.54999923706055,-186.45199584960938 46.46799850463867,-182.14500427246094 43.124000549316406,-181.78599548339844 C39.779998779296875,-181.427001953125 37.270999908447266,-187.88800048828125 37.270999908447266,-187.88800048828125 C37.270999908447266,-187.88800048828125 33.7869987487793,-176.281005859375 30.861000061035156,-176.63999938964844 C27.934999465942383,-176.99899291992188 28.90999984741211,-182.50399780273438 23.893999099731445,-182.86300659179688 C18.878000259399414,-183.2220001220703 7.591000080108643,-168.14500427246094 7.591000080108643,-168.14500427246094 C7.591000080108643,-168.14500427246094 -1.1759999990463257,-181.3820037841797 -2.302999973297119,-182.14500427246094 C-9.548999786376953,-187.05099487304688 -19.582000732421875,-182.86300659179688 -22.09000015258789,-183.2220001220703 C-24.597999572753906,-183.58099365234375 -26.270999908447266,-185.73399353027344 -28.77899932861328,-185.73399353027344 C-31.28700065612793,-185.73399353027344 -37.97600173950195,-178.1959991455078 -39.64799880981445,-179.2729949951172 C-41.31999969482422,-180.35000610351562 -40.902000427246094,-186.81100463867188 -45.5,-187.88800048828125 C-50.097999572753906,-188.96499633789062 -57.1349983215332,-180.11000061035156 -57.1349983215332,-180.11000061035156 C-57.1349983215332,-180.11000061035156 -63.89400100708008,-185.9739990234375 -65.56600189208984,-187.05099487304688 C-67.23799896240234,-188.1280059814453 -77.68900299072266,-189.32400512695312 -78.94300079345703,-189.32400512695312 C-80.1969985961914,-189.32400512695312 -96.91899871826172,-195.2469940185547 -96.91899871826172,-195.2469940185547z"></path><path stroke-linecap="round" stroke-linejoin="round" fill-opacity="0" stroke="rgb(28,15,12)" stroke-opacity="1" stroke-width="8.061" d=" M-96.91899871826172,-195.2469940185547 C-96.91899871826172,-195.2469940185547 -69.74600219726562,-207.51199340820312 -61.3849983215332,-210.02499389648438 C-53.02399826049805,-212.53799438476562 -53.303001403808594,-205.7169952392578 -53.303001403808594,-205.7169952392578 C-53.303001403808594,-205.7169952392578 -42.7130012512207,-215.6490020751953 -42.7130012512207,-215.6490020751953 C-42.7130012512207,-215.6490020751953 -41.31999969482422,-207.7519989013672 -41.31999969482422,-207.7519989013672 C-41.31999969482422,-207.7519989013672 -21.672000885009766,-215.17100524902344 -21.672000885009766,-215.17100524902344 C-21.672000885009766,-215.17100524902344 -2.859999895095825,-227.73500061035156 -2.859999895095825,-227.73500061035156 C-2.859999895095825,-227.73500061035156 -1.187999963760376,-216.6060028076172 -1.187999963760376,-216.6060028076172 C-1.187999963760376,-216.6060028076172 5.570000171661377,-216.2469940185547 5.570000171661377,-217.32400512695312 C5.570000171661377,-218.4010009765625 11.352999687194824,-229.17100524902344 11.352999687194824,-229.17100524902344 C11.352999687194824,-229.17100524902344 16.368999481201172,-217.68299865722656 16.368999481201172,-217.68299865722656 C16.368999481201172,-217.68299865722656 25.35700035095215,-226.47900390625 31.628000259399414,-222.52999877929688 C37.89899826049805,-218.58099365234375 34.345001220703125,-215.88800048828125 34.345001220703125,-215.88800048828125 C34.345001220703125,-215.88800048828125 39.98899841308594,-213.37600708007812 45.42300033569336,-211.94000244140625 C50.856998443603516,-210.50399780273438 56.500999450683594,-210.50399780273438 56.500999450683594,-210.50399780273438 C56.500999450683594,-210.50399780273438 64.86199951171875,-216.8459930419922 64.86199951171875,-216.8459930419922 C64.86199951171875,-216.8459930419922 69.45999908447266,-208.35000610351562 69.45999908447266,-208.35000610351562 C69.45999908447266,-208.35000610351562 84.927001953125,-200.81100463867188 84.927001953125,-200.81100463867188 C84.927001953125,-200.81100463867188 85.44999694824219,-211.1320037841797 88.3759994506836,-210.05499267578125 C91.302001953125,-208.97799682617188 96.00499725341797,-199.91400146484375 96.00499725341797,-199.91400146484375 C96.00499725341797,-199.91400146484375 96.77200317382812,-206.07699584960938 98.86199951171875,-203.2050018310547 C100.9520034790039,-200.33299255371094 104.43599700927734,-192.6750030517578 102.76399993896484,-189.0850067138672 C101.09200286865234,-185.4949951171875 98.30400085449219,-186.21299743652344 94.1240005493164,-186.57200622558594 C89.94400024414062,-186.93099975585938 77.81999969482422,-187.5290069580078 72.80400085449219,-187.5290069580078 C67.78800201416016,-187.5290069580078 63.18899917602539,-186.45199584960938 63.18899917602539,-186.45199584960938 C63.18899917602539,-186.45199584960938 58.73099899291992,-183.82000732421875 58.45199966430664,-183.82000732421875 C56.31999969482422,-183.82000732421875 54.54999923706055,-186.45199584960938 54.54999923706055,-186.45199584960938 C54.54999923706055,-186.45199584960938 46.46799850463867,-182.14500427246094 43.124000549316406,-181.78599548339844 C39.779998779296875,-181.427001953125 37.270999908447266,-187.88800048828125 37.270999908447266,-187.88800048828125 C37.270999908447266,-187.88800048828125 33.7869987487793,-176.281005859375 30.861000061035156,-176.63999938964844 C27.934999465942383,-176.99899291992188 28.90999984741211,-182.50399780273438 23.893999099731445,-182.86300659179688 C18.878000259399414,-183.2220001220703 7.591000080108643,-168.14500427246094 7.591000080108643,-168.14500427246094 C7.591000080108643,-168.14500427246094 -1.1759999990463257,-181.3820037841797 -2.302999973297119,-182.14500427246094 C-9.548999786376953,-187.05099487304688 -19.582000732421875,-182.86300659179688 -22.09000015258789,-183.2220001220703 C-24.597999572753906,-183.58099365234375 -26.270999908447266,-185.73399353027344 -28.77899932861328,-185.73399353027344 C-31.28700065612793,-185.73399353027344 -37.97600173950195,-178.1959991455078 -39.64799880981445,-179.2729949951172 C-41.31999969482422,-180.35000610351562 -40.902000427246094,-186.81100463867188 -45.5,-187.88800048828125 C-50.097999572753906,-188.96499633789062 -57.1349983215332,-180.11000061035156 -57.1349983215332,-180.11000061035156 C-57.1349983215332,-180.11000061035156 -63.89400100708008,-185.9739990234375 -65.56600189208984,-187.05099487304688 C-67.23799896240234,-188.1280059814453 -77.68900299072266,-189.32400512695312 -78.94300079345703,-189.32400512695312 C-80.1969985961914,-189.32400512695312 -96.91899871826172,-195.2469940185547 -96.91899871826172,-195.2469940185547z"></path></g></g><g style="display: block;" transform="matrix(1.0800000429153442,0,0,1.0800000429153442,243.36000061035156,278.5600280761719)" opacity="1"><g opacity="1" transform="matrix(1,0,0,1,0,0)"><path fill="rgb(211,130,102)" fill-opacity="1" d=" M-106.02899932861328,-60.80400085449219 C-106.02899932861328,-60.80400085449219 -91.9209976196289,-18.304000854492188 -76.05999755859375,-13.944999694824219 C-60.19900131225586,-9.586000442504883 -26.628000259399414,-18.034000396728516 -20.753999710083008,-24.027999877929688 C-14.880000114440918,-30.02199935913086 -7.9670000076293945,-55.900001525878906 -7.9670000076293945,-55.900001525878906 C-7.9670000076293945,-55.900001525878906 -106.02899932861328,-60.80400085449219 -106.02899932861328,-60.80400085449219z"></path></g><g opacity="1" transform="matrix(1,0,0,1,0,0)"><path fill="rgb(211,130,102)" fill-opacity="1" d=" M124.9990005493164,-56.44499969482422 C124.9990005493164,-56.44499969482422 116.87999725341797,-25.195999145507812 101.56900024414062,-18.304000854492188 C86.25800323486328,-11.411999702453613 46.79499816894531,-15.496999740600586 39.909000396728516,-20.454999923706055 C33.02299880981445,-25.413000106811523 27.5049991607666,-63.016998291015625 27.5049991607666,-63.016998291015625 C27.5049991607666,-63.016998291015625 124.9990005493164,-56.44499969482422 124.9990005493164,-56.44499969482422z"></path></g><g opacity="1" transform="matrix(1,0,0,1,0,0)"><path stroke-linecap="round" stroke-linejoin="round" fill-opacity="0" stroke="rgb(183,98,72)" stroke-opacity="1" stroke-width="12" d=" M29.645999908447266,-50.99599838256836 C29.645999908447266,-50.99599838256836 50.108001708984375,-17.625 72.71299743652344,-15.817000389099121"></path></g><g opacity="1" transform="matrix(1,0,0,1,0,0)"><path stroke-linecap="round" stroke-linejoin="round" fill-opacity="0" stroke="rgb(183,98,72)" stroke-opacity="1" stroke-width="12" d=" M-9.041000366210938,-53.17599868774414 C-9.119000434875488,-27.1200008392334 -44.382999420166016,-13.557000160217285 -44.382999420166016,-13.557000160217285"></path></g></g><g style="display: block;" transform="matrix(1.0800000429153442,0,0,1.0800000429153442,243.36000061035156,278.5600280761719)" opacity="1"><g opacity="1" transform="matrix(1,0,0,1,0,0)"><path fill="url(#__lottie_element_27)" fill-opacity="1" d=" M-112.07599639892578,-74.39600372314453 C-112.07599639892578,-74.39600372314453 -83.88099670410156,142.40899658203125 -50.05699920654297,168.89999389648438 C-15.050000190734863,196.3179931640625 67.50800323486328,199.0260009765625 85.25700378417969,170.71499633789062 C114.14800262451172,124.63099670410156 133.95199584960938,-66.7040023803711 133.95199584960938,-66.7040023803711 C133.95199584960938,-66.7040023803711 13.065999984741211,-64.99600219726562 13.065999984741211,-64.99600219726562 C13.065999984741211,-64.99600219726562 -112.07599639892578,-74.39600372314453 -112.07599639892578,-74.39600372314453z"></path></g></g><g style="display: block;" transform="matrix(1.0800000429153442,0,0,1.0800000429153442,243.36000061035156,290.4400329589844)" opacity="1"><g opacity="1" transform="matrix(1,0,0,1,0,0)"><path stroke-linecap="round" stroke-linejoin="round" fill-opacity="0" stroke="rgb(184,99,72)" stroke-opacity="1" stroke-width="13" d=" M-39.862998962402344,99.31099700927734 C-28.04599952697754,142.11399841308594 51.569000244140625,146.63999938964844 65.68800354003906,86.23999786376953"></path></g><g opacity="1" transform="matrix(1,0,0,1,0,0)"><path fill="url(#__lottie_element_23)" fill-opacity="1" d=" M-22.5,-2.5 C-28.5,14.5 -50.5,46.012001037597656 -49,49.512001037597656 C-47.5,53.012001037597656 59,49.512001037597656 66.5,48.012001037597656 C74,46.512001037597656 52.5,28 43,-2"></path></g><g opacity="1" transform="matrix(1,0,0,1,0,0)"><path stroke-linecap="round" stroke-linejoin="round" fill-opacity="0" stroke="rgb(124,59,41)" stroke-opacity="1" stroke-width="14.173" d=" M-52.2859992980957,52.104000091552734 C-51.58700180053711,51.80099868774414 -50.88399887084961,51.5369987487793 -50.19499969482422,51.332000732421875 C-37.01900100708008,47.404998779296875 60.67599868774414,47.25600051879883 78.52799987792969,50.44599914550781"></path></g><g opacity="0.53" transform="matrix(1,0,0,1,0,0)"><path stroke-linecap="round" stroke-linejoin="round" fill-opacity="0" stroke="rgb(184,99,72)" stroke-opacity="1" stroke-width="14.173" d=" M-12.399999618530273,67.4280014038086 C-12.399999618530273,67.4280014038086 26.5,64.5 44.36399841308594,67.24800109863281"></path></g></g><g style="display: block;" transform="matrix(1.0800000429153442,0,0,1.0800000429153442,243.36000061035156,278.5600280761719)" opacity="1"><g opacity="1" transform="matrix(1,0,0,1,0,0)"><path fill="url(#__lottie_element_19)" fill-opacity="1" d=" M0.7940000295639038,-71.7239990234375 C0.13300000131130219,-70.73300170898438 -31.898000717163086,-9.27299976348877 -30.246999740600586,5.920000076293945 C-28.59600067138672,21.113000869750977 24.90999984741211,27.718000411987305 33.49700164794922,17.14900016784668 C42.08399963378906,6.579999923706055 47.3489990234375,11.029000282287598 50.981998443603516,3.1019999980926514 C54.6150016784668,-4.824999809265137 24.97599983215332,-68.52999877929688 24.97599983215332,-68.52999877929688"></path><path stroke-linecap="round" stroke-linejoin="round" fill-opacity="0" stroke="rgb(166,81,53)" stroke-opacity="1" stroke-width="13" d=" M0.7940000295639038,-71.7239990234375 C0.13300000131130219,-70.73300170898438 -31.898000717163086,-9.27299976348877 -30.246999740600586,5.920000076293945 C-28.59600067138672,21.113000869750977 24.90999984741211,27.718000411987305 33.49700164794922,17.14900016784668 C42.08399963378906,6.579999923706055 47.3489990234375,11.029000282287598 50.981998443603516,3.1019999980926514 C54.6150016784668,-4.824999809265137 24.97599983215332,-68.52999877929688 24.97599983215332,-68.52999877929688"></path></g></g><g style="display: none;"><g><path></path></g><g><path></path></g><g><path></path><path stroke-linecap="round" stroke-linejoin="round" fill-opacity="0"></path></g><g><path></path><path stroke-linecap="round" stroke-linejoin="round" fill-opacity="0"></path></g></g><g style="display: block;" transform="matrix(1.0800000429153442,0,0,1.0800000429153442,243.36000061035156,278.5600280761719)" opacity="1"><g opacity="1" transform="matrix(1,0,0,1,0,0)"><path stroke-linecap="round" stroke-linejoin="round" fill-opacity="0" stroke="rgb(184,99,72)" stroke-opacity="1" stroke-width="14.173" d=" M21.108999252319336,-105.66500091552734 C21.108999252319336,-105.66500091552734 9,-66 44.67100143432617,-55.40599822998047"></path></g><g opacity="1" transform="matrix(1,0,0,1,0,0)"><path stroke-linecap="round" stroke-linejoin="round" fill-opacity="0" stroke="rgb(184,99,72)" stroke-opacity="1" stroke-width="14.528" d=" M-1.034999966621399,-96.51300048828125 C-1.034999966621399,-96.51300048828125 4.5,-66 -4.400000095367432,-66.49299621582031"></path></g><g opacity="1" transform="matrix(1,0,0,1,0,0)"><g opacity="1" transform="matrix(1,0,0,1,0,0)"><path fill="rgb(35,26,20)" fill-opacity="1" d=" M-118.197998046875,-64.61900329589844 C-117.90599822998047,-72.72799682617188 -73.76100158691406,-71.31300354003906 -57.75899887084961,-67.97699737548828 C-19.5,-60 -1.6679999828338623,-81.44499969482422 -0.8510000109672546,-70.81999969482422 C-0.03400000184774399,-60.19499969482422 0.8980000019073486,-59.64099884033203 -16.124000549316406,-57.36199951171875 C-37.5,-54.5 -118.48999786376953,-56.5099983215332 -118.197998046875,-64.61900329589844z"></path><path stroke-linecap="round" stroke-linejoin="round" fill-opacity="0" stroke="rgb(28,15,12)" stroke-opacity="1" stroke-width="11.339" d=" M-118.197998046875,-64.61900329589844 C-117.90599822998047,-72.72799682617188 -73.76100158691406,-71.31300354003906 -57.75899887084961,-67.97699737548828 C-19.5,-60 -1.6679999828338623,-81.44499969482422 -0.8510000109672546,-70.81999969482422 C-0.03400000184774399,-60.19499969482422 0.8980000019073486,-59.64099884033203 -16.124000549316406,-57.36199951171875 C-37.5,-54.5 -118.48999786376953,-56.5099983215332 -118.197998046875,-64.61900329589844z"></path></g><g opacity="1" transform="matrix(1,0,0,1,0,0)"><path fill="rgb(35,26,20)" fill-opacity="1" d=" M20.981000900268555,-75.76100158691406 C20.981000900268555,-75.76100158691406 45.448001861572266,-63.308998107910156 62.01100158691406,-65.96600341796875 C96.5,-71.5 126,-72 127.53700256347656,-60.61399841308594 C128.12399291992188,-56.268001556396484 94.97799682617188,-55.57899856567383 60.87900161743164,-53.12699890136719 C26.780000686645508,-50.67499923706055 20.981000900268555,-75.76100158691406 20.981000900268555,-75.76100158691406z"></path><path stroke-linecap="round" stroke-linejoin="round" fill-opacity="0" stroke="rgb(28,15,12)" stroke-opacity="1" stroke-width="12.379" d=" M20.981000900268555,-75.76100158691406 C20.981000900268555,-75.76100158691406 45.448001861572266,-63.308998107910156 62.01100158691406,-65.96600341796875 C96.5,-71.5 126,-72 127.53700256347656,-60.61399841308594 C128.12399291992188,-56.268001556396484 94.97799682617188,-55.57899856567383 60.87900161743164,-53.12699890136719 C26.780000686645508,-50.67499923706055 20.981000900268555,-75.76100158691406 20.981000900268555,-75.76100158691406z"></path></g></g></g></g></svg>