<svg xmlns="http://www.w3.org/2000/svg" xmlns:xlink="http://www.w3.org/1999/xlink" viewBox="0 0 512 512" width="512" height="512" style="width: 100%; height: 100%; transform: translate3d(0,0,0); content-visibility: visible;" preserveAspectRatio="xMidYMid meet"><defs><clipPath id="__lottie_element_2"><rect width="512" height="512" x="0" y="0"></rect></clipPath><radialGradient id="__lottie_element_9" spreadMethod="pad" gradientUnits="userSpaceOnUse" cx="-124.66799926757812" cy="-315.2340087890625" r="542.3074112454541" fx="-124.66799926757812" fy="-315.2340087890625"><stop offset="17%" stop-color="rgb(249,228,212)"></stop><stop offset="55%" stop-color="rgb(247,209,181)"></stop><stop offset="92%" stop-color="rgb(245,189,149)"></stop></radialGradient><radialGradient id="__lottie_element_10" spreadMethod="pad" gradientUnits="userSpaceOnUse" cx="-67.97599792480469" cy="-302.7489929199219" r="664.8546991275897" fx="-67.97599792480469" fy="-302.7489929199219"><stop offset="17%" stop-color="rgb(249,228,212)"></stop><stop offset="55%" stop-color="rgb(247,209,181)"></stop><stop offset="92%" stop-color="rgb(245,189,149)"></stop></radialGradient><radialGradient id="__lottie_element_11" spreadMethod="pad" gradientUnits="userSpaceOnUse" cx="-125.89399719238281" cy="30.815000534057617" r="11.655036338009428" fx="-125.89399719238281" fy="30.815000534057617"><stop offset="17%" stop-color="rgb(249,228,212)"></stop><stop offset="55%" stop-color="rgb(247,209,181)"></stop><stop offset="92%" stop-color="rgb(245,189,149)"></stop></radialGradient><radialGradient id="__lottie_element_12" spreadMethod="pad" gradientUnits="userSpaceOnUse" cx="-102.70600128173828" cy="51.92100143432617" r="12.106323547121072" fx="-102.70600128173828" fy="51.92100143432617"><stop offset="17%" stop-color="rgb(249,228,212)"></stop><stop offset="55%" stop-color="rgb(247,209,181)"></stop><stop offset="92%" stop-color="rgb(245,189,149)"></stop></radialGradient><radialGradient id="__lottie_element_20" spreadMethod="pad" gradientUnits="userSpaceOnUse" cx="-131.7429962158203" cy="-244.34500122070312" r="499.74613019689554" fx="-131.7429962158203" fy="-244.34500122070312"><stop offset="22%" stop-color="rgb(249,228,212)"></stop><stop offset="50%" stop-color="rgb(250,211,183)"></stop><stop offset="100%" stop-color="rgb(252,195,153)"></stop></radialGradient><radialGradient id="__lottie_element_21" spreadMethod="pad" gradientUnits="userSpaceOnUse" cx="152.1219940185547" cy="-5.256999969482422" r="70.46865830081785" fx="152.1219940185547" fy="-5.256999969482422"><stop offset="0%" stop-color="rgb(249,228,212)"></stop><stop offset="46%" stop-color="rgb(247,209,181)"></stop><stop offset="92%" stop-color="rgb(245,189,149)"></stop></radialGradient><radialGradient id="__lottie_element_22" spreadMethod="pad" gradientUnits="userSpaceOnUse" cx="-137.95799255371094" cy="38.4739990234375" r="82.85815498519698" fx="-137.95799255371094" fy="38.4739990234375"><stop offset="0%" stop-color="rgb(249,228,212)"></stop><stop offset="46%" stop-color="rgb(247,209,181)"></stop><stop offset="92%" stop-color="rgb(245,189,149)"></stop></radialGradient><radialGradient id="__lottie_element_37" spreadMethod="pad" gradientUnits="userSpaceOnUse" cx="18.649999618530273" cy="-122.64399719238281" r="181.9566250217056" fx="18.649999618530273" fy="-122.64399719238281"><stop offset="0%" stop-color="rgb(249,228,212)"></stop><stop offset="46%" stop-color="rgb(247,209,181)"></stop><stop offset="92%" stop-color="rgb(245,189,149)"></stop></radialGradient><radialGradient id="__lottie_element_38" spreadMethod="pad" gradientUnits="userSpaceOnUse" cx="118.04000091552734" cy="-108.19599914550781" r="100.5342986095204" fx="118.04000091552734" fy="-108.19599914550781"><stop offset="0%" stop-color="rgb(249,228,212)"></stop><stop offset="46%" stop-color="rgb(247,209,181)"></stop><stop offset="92%" stop-color="rgb(245,189,149)"></stop></radialGradient><radialGradient id="__lottie_element_39" spreadMethod="pad" gradientUnits="userSpaceOnUse" cx="9.015999794006348" cy="-111.13099670410156" r="176.38526691572483" fx="9.015999794006348" fy="-111.13099670410156"><stop offset="0%" stop-color="rgb(249,228,212)"></stop><stop offset="46%" stop-color="rgb(247,209,181)"></stop><stop offset="92%" stop-color="rgb(245,189,149)"></stop></radialGradient><radialGradient id="__lottie_element_40" spreadMethod="pad" gradientUnits="userSpaceOnUse" cx="17.767000198364258" cy="-69.52200317382812" r="12.137542381846133" fx="17.767000198364258" fy="-69.52200317382812"><stop offset="0%" stop-color="rgb(249,228,212)"></stop><stop offset="46%" stop-color="rgb(247,209,181)"></stop><stop offset="92%" stop-color="rgb(245,189,149)"></stop></radialGradient><radialGradient id="__lottie_element_41" spreadMethod="pad" gradientUnits="userSpaceOnUse" cx="105.5" cy="-117.74299621582031" r="107.32943073674387" fx="105.5" fy="-117.74299621582031"><stop offset="0%" stop-color="rgb(249,228,212)"></stop><stop offset="46%" stop-color="rgb(247,209,181)"></stop><stop offset="92%" stop-color="rgb(245,189,149)"></stop></radialGradient><radialGradient id="__lottie_element_42" spreadMethod="pad" gradientUnits="userSpaceOnUse" cx="75.61000061035156" cy="-70.21199798583984" r="8.399178334876769" fx="75.61000061035156" fy="-70.21199798583984"><stop offset="0%" stop-color="rgb(249,228,212)"></stop><stop offset="46%" stop-color="rgb(247,209,181)"></stop><stop offset="92%" stop-color="rgb(245,189,149)"></stop></radialGradient></defs><g clip-path="url(#__lottie_element_2)"><g style="display: block;" transform="matrix(1,0,0,1,255.99984741210938,256.000244140625)" opacity="1"><g opacity="1" transform="matrix(1,0,0,1,0,0)"><g opacity="1" transform="matrix(1,0,0,1,0,0)"><path fill="rgb(79,44,37)" fill-opacity="1" d=" M96.83300018310547,-190.947998046875 C96.83300018310547,-190.947998046875 107.57599639892578,-193.9929962158203 109.25599670410156,-198.6269989013672 C110.93599700927734,-203.26100158691406 121.11299896240234,-202.28900146484375 124.00399780273438,-203.19200134277344 C126.8949966430664,-204.09500122070312 130.05499267578125,-208.96800231933594 128.6179962158203,-212.2259979248047 C127.18099975585938,-215.48399353027344 122.41899871826172,-218.63999938964844 122.41899871826172,-218.63999938964844 C122.41899871826172,-218.63999938964844 129.83799743652344,-221.58399963378906 131.18600463867188,-217.0030059814453 C132.53399658203125,-212.4219970703125 131.6510009765625,-206.60899353027344 130.4459991455078,-204.66900634765625 C129.24099731445312,-202.72900390625 126.197998046875,-195.2570037841797 126.197998046875,-195.2570037841797 C126.197998046875,-195.2570037841797 130.91099548339844,-194.2740020751953 130.91099548339844,-194.2740020751953 C130.91099548339844,-194.2740020751953 133.70700073242188,-199.52499389648438 136.3699951171875,-199.9550018310547 C139.0330047607422,-200.38499450683594 141.01499938964844,-199.39599609375 140.99400329589844,-197.6479949951172 C140.97300720214844,-195.89999389648438 140.98300170898438,-184.5590057373047 140.98300170898438,-184.5590057373047 C140.98300170898438,-184.5590057373047 147.0279998779297,-196.00599670410156 151.3509979248047,-199.32200622558594 C155.6739959716797,-202.63800048828125 162.7259979248047,-207.8489990234375 167.1020050048828,-203.3209991455078 C169.30499267578125,-201.04100036621094 168.4720001220703,-198.5989990234375 168.4720001220703,-198.5989990234375 C168.4720001220703,-198.5989990234375 162.50100708007812,-205.48599243164062 156.60000610351562,-201.9149932861328 C152.26499938964844,-199.29200744628906 147.03900146484375,-184.6649932861328 146.26800537109375,-181.92300415039062 C145.4969940185547,-179.18099975585938 144.4080047607422,-174.64199829101562 144.4080047607422,-174.64199829101562 C144.4080047607422,-174.64199829101562 149.9770050048828,-183.39500427246094 154.89700317382812,-181.13600158691406 C159.81700134277344,-178.8769989013672 162.73399353027344,-175.85899353027344 163.7169952392578,-171.65499877929688 C164.6999969482422,-167.4510040283203 165.25,-164.0500030517578 165.25,-164.0500030517578 C165.25,-164.0500030517578 161.75599670410156,-174.39199829101562 156.15499877929688,-175.23199462890625 C150.5540008544922,-176.07200622558594 148.23899841308594,-167.84500122070312 148.23899841308594,-167.84500122070312 C148.23899841308594,-167.84500122070312 153.75100708007812,-165.6820068359375 153.8459930419922,-161.3350067138672 C153.9409942626953,-156.98800659179688 142.3159942626953,-148.12899780273438 137.35400390625,-146.89100646972656 C132.39199829101562,-145.6529998779297 132.76699829101562,-158.36500549316406 133.9720001220703,-160.30499267578125 C135.177001953125,-162.2449951171875 124.95099639892578,-165.39100646972656 122.53600311279297,-167.1820068359375 C120.12100219726562,-168.97300720214844 118.36100006103516,-176.10499572753906 120.38500213623047,-178.61300659179688 C122.40899658203125,-181.12100219726562 125.2509994506836,-184.197998046875 122.49299621582031,-188.11500549316406 C119.73500061035156,-192.03199768066406 113.83200073242188,-198.49400329589844 111.8290023803711,-197.73399353027344 C109.82599639892578,-196.9739990234375 96.83300018310547,-190.947998046875 96.83300018310547,-190.947998046875z"></path><path stroke-linecap="round" stroke-linejoin="round" fill-opacity="0" stroke="rgb(79,44,37)" stroke-opacity="1" stroke-width="11.215" d=" M96.83300018310547,-190.947998046875 C96.83300018310547,-190.947998046875 107.57599639892578,-193.9929962158203 109.25599670410156,-198.6269989013672 C110.93599700927734,-203.26100158691406 121.11299896240234,-202.28900146484375 124.00399780273438,-203.19200134277344 C126.8949966430664,-204.09500122070312 130.05499267578125,-208.96800231933594 128.6179962158203,-212.2259979248047 C127.18099975585938,-215.48399353027344 122.41899871826172,-218.63999938964844 122.41899871826172,-218.63999938964844 C122.41899871826172,-218.63999938964844 129.83799743652344,-221.58399963378906 131.18600463867188,-217.0030059814453 C132.53399658203125,-212.4219970703125 131.6510009765625,-206.60899353027344 130.4459991455078,-204.66900634765625 C129.24099731445312,-202.72900390625 126.197998046875,-195.2570037841797 126.197998046875,-195.2570037841797 C126.197998046875,-195.2570037841797 130.91099548339844,-194.2740020751953 130.91099548339844,-194.2740020751953 C130.91099548339844,-194.2740020751953 133.70700073242188,-199.52499389648438 136.3699951171875,-199.9550018310547 C139.0330047607422,-200.38499450683594 141.01499938964844,-199.39599609375 140.99400329589844,-197.6479949951172 C140.97300720214844,-195.89999389648438 140.98300170898438,-184.5590057373047 140.98300170898438,-184.5590057373047 C140.98300170898438,-184.5590057373047 147.0279998779297,-196.00599670410156 151.3509979248047,-199.32200622558594 C155.6739959716797,-202.63800048828125 162.7259979248047,-207.8489990234375 167.1020050048828,-203.3209991455078 C169.30499267578125,-201.04100036621094 168.4720001220703,-198.5989990234375 168.4720001220703,-198.5989990234375 C168.4720001220703,-198.5989990234375 162.50100708007812,-205.48599243164062 156.60000610351562,-201.9149932861328 C152.26499938964844,-199.29200744628906 147.03900146484375,-184.6649932861328 146.26800537109375,-181.92300415039062 C145.4969940185547,-179.18099975585938 144.4080047607422,-174.64199829101562 144.4080047607422,-174.64199829101562 C144.4080047607422,-174.64199829101562 149.9770050048828,-183.39500427246094 154.89700317382812,-181.13600158691406 C159.81700134277344,-178.8769989013672 162.73399353027344,-175.85899353027344 163.7169952392578,-171.65499877929688 C164.6999969482422,-167.4510040283203 165.25,-164.0500030517578 165.25,-164.0500030517578 C165.25,-164.0500030517578 161.75599670410156,-174.39199829101562 156.15499877929688,-175.23199462890625 C150.5540008544922,-176.07200622558594 148.23899841308594,-167.84500122070312 148.23899841308594,-167.84500122070312 C148.23899841308594,-167.84500122070312 153.75100708007812,-165.6820068359375 153.8459930419922,-161.3350067138672 C153.9409942626953,-156.98800659179688 142.3159942626953,-148.12899780273438 137.35400390625,-146.89100646972656 C132.39199829101562,-145.6529998779297 132.76699829101562,-158.36500549316406 133.9720001220703,-160.30499267578125 C135.177001953125,-162.2449951171875 124.95099639892578,-165.39100646972656 122.53600311279297,-167.1820068359375 C120.12100219726562,-168.97300720214844 118.36100006103516,-176.10499572753906 120.38500213623047,-178.61300659179688 C122.40899658203125,-181.12100219726562 125.2509994506836,-184.197998046875 122.49299621582031,-188.11500549316406 C119.73500061035156,-192.03199768066406 113.83200073242188,-198.49400329589844 111.8290023803711,-197.73399353027344 C109.82599639892578,-196.9739990234375 96.83300018310547,-190.947998046875 96.83300018310547,-190.947998046875z"></path></g></g></g><g style="display: block;" transform="matrix(1,0,0,1,255.99984741210938,256.000244140625)" opacity="1"><g opacity="1" transform="matrix(1,0,0,1,0.3319999873638153,0.22100000083446503)"><path fill="url(#__lottie_element_20)" fill-opacity="1" d=" M-141.10499572753906,28.03700065612793 C-206.51300048828125,-170.843994140625 -58.17599868774414,-228.48899841308594 13.303000450134277,-230.0260009765625 C178.54100036621094,-233.57899475097656 172.24400329589844,-9.312999725341797 172.24400329589844,-9.312999725341797 C172.24400329589844,-9.312999725341797 202.0260009765625,62.07600021362305 190.54299926757812,110.85399627685547 C179.05999755859375,159.6320037841797 160.12100219726562,191.88699340820312 126.08899688720703,207.82000732421875 C29.82699966430664,252.88800048828125 -25.902000427246094,225.25100708007812 -63.26499938964844,189.74600219726562 C-113.55799865722656,141.95399475097656 -141.10499572753906,28.03700065612793 -141.10499572753906,28.03700065612793z"></path><path stroke-linecap="butt" stroke-linejoin="miter" fill-opacity="0" stroke-miterlimit="10" stroke="rgb(186,101,72)" stroke-opacity="1" stroke-width="14.681" d=" M-141.10499572753906,28.03700065612793 C-206.51300048828125,-170.843994140625 -58.17599868774414,-228.48899841308594 13.303000450134277,-230.0260009765625 C178.54100036621094,-233.57899475097656 172.24400329589844,-9.312999725341797 172.24400329589844,-9.312999725341797 C172.24400329589844,-9.312999725341797 202.0260009765625,62.07600021362305 190.54299926757812,110.85399627685547 C179.05999755859375,159.6320037841797 160.12100219726562,191.88699340820312 126.08899688720703,207.82000732421875 C29.82699966430664,252.88800048828125 -25.902000427246094,225.25100708007812 -63.26499938964844,189.74600219726562 C-113.55799865722656,141.95399475097656 -141.10499572753906,28.03700065612793 -141.10499572753906,28.03700065612793z"></path></g><g opacity="0.8" transform="matrix(1,0,0,1,0,0)"><path fill="rgb(224,155,121)" fill-opacity="1" d=" M-127.14299774169922,66.88200378417969 C-24.83300018310547,268.572998046875 167.45799255371094,197.37899780273438 180.16700744628906,41.27299880981445 C187.12899780273438,39.37900161743164 217.218994140625,187.3000030517578 79.91000366210938,219.9929962158203 C29.670000076293945,231.9550018310547 -68.08200073242188,249.94200134277344 -127.14299774169922,66.88200378417969z"></path></g><g opacity="1" transform="matrix(1,0,0,1,0,0)"><path stroke-linecap="round" stroke-linejoin="round" fill-opacity="0" stroke="rgb(216,139,108)" stroke-opacity="1" stroke-width="12.087" d=" M140.1999969482422,85.64099884033203 C162.447998046875,130.44700622558594 139.9980010986328,165.1909942626953 107.13700103759766,170.76600646972656"></path></g><g opacity="1" transform="matrix(1,0,0,1,0,0)"><path fill="url(#__lottie_element_21)" fill-opacity="1" d=" M171.9320068359375,-22.05299949645996 C173.53799438476562,12.949999809265137 161.26699829101562,53.08300018310547 161.26699829101562,53.08300018310547"></path><path stroke-linecap="round" stroke-linejoin="round" fill-opacity="0" stroke="rgb(186,101,72)" stroke-opacity="1" stroke-width="14.681" d=" M171.9320068359375,-22.05299949645996 C173.53799438476562,12.949999809265137 161.26699829101562,53.08300018310547 161.26699829101562,53.08300018310547"></path></g><g opacity="1" transform="matrix(1,0,0,1,0,0)"><path fill="url(#__lottie_element_22)" fill-opacity="1" d=" M-69.56500244140625,131.343994140625 C-69.56500244140625,131.343994140625 -124.46700286865234,91.19400024414062 -131.1020050048828,60.821998596191406"></path><path stroke-linecap="round" stroke-linejoin="round" fill-opacity="0" stroke="rgb(186,101,72)" stroke-opacity="1" stroke-width="14.681" d=" M-69.56500244140625,131.343994140625 C-69.56500244140625,131.343994140625 -124.46700286865234,91.19400024414062 -131.1020050048828,60.821998596191406"></path></g><g opacity="1" transform="matrix(1,0,0,1,0,0)"><path stroke-linecap="round" stroke-linejoin="round" fill-opacity="0" stroke="rgb(198,117,89)" stroke-opacity="1" stroke-width="11.339" d=" M148.18299865722656,162.2429962158203 C139.9980010986328,194.0570068359375 101.9229965209961,200.5489959716797 101.9229965209961,200.5489959716797"></path></g></g><g style="display: block;" transform="matrix(1,0,0,1,255.9996337890625,256.0001525878906)" opacity="1"><g opacity="1" transform="matrix(1,0,0,1,0,0)"><path fill="rgb(224,155,121)" fill-opacity="1" d=" M-0.7950000166893005,76.5790023803711 C-22.136999130249023,72.7979965209961 -24.864999771118164,92.27100372314453 -12.038000106811523,98.0270004272461 C-1.284000039100647,102.85299682617188 35.00400161743164,104.93000030517578 62.611000061035156,96.93800354003906 C90.21800231933594,88.94599914550781 118.36900329589844,67.33300018310547 123.81800079345703,60.430999755859375 C129.26699829101562,53.52899932861328 124.72599792480469,49.395999908447266 122.5469970703125,49.35200119018555 C117.84300231933594,49.257999420166016 66.46499633789062,88.49500274658203 -0.7950000166893005,76.5790023803711z"></path></g><g opacity="1" transform="matrix(1,0,0,1,0,0)"><path fill="rgb(119,48,31)" fill-opacity="1" d=" M-1.9119999408721924,84.33000183105469 C-1.9119999408721924,84.33000183105469 31.496999740600586,88.07099914550781 59.340999603271484,81.68099975585938 C92.5780029296875,74.0530014038086 123.12100219726562,47.499000549316406 125.27100372314453,52.66699981689453 C125.90299987792969,54.1870002746582 97.79000091552734,84.47799682617188 52.98400115966797,93.30500030517578 C-6.556000232696533,105.03500366210938 -15.241000175476074,90.95899963378906 -11.493000030517578,86.04000091552734 C-9.581999778747559,83.53199768066406 -1.9119999408721924,84.33000183105469 -1.9119999408721924,84.33000183105469z"></path></g></g><g style="display: block;" transform="matrix(1,0,0,1,256.0002136230469,256.00054931640625)" opacity="1"><g opacity="1" transform="matrix(1,0,0,1,0,0)"><path fill="rgb(255,255,255)" fill-opacity="1" d=" M72.50199890136719,-34.6510009765625 C66.80400085449219,-40.25699996948242 58.507999420166016,-62.027000427246094 73.18299865722656,-90.2979965209961 C87.85800170898438,-118.56900024414062 138.83999633789062,-109.73300170898438 146.7830047607422,-88.03199768066406 C154.7259979248047,-66.33100128173828 153.5030059814453,-52.40800094604492 146.322998046875,-41.45500183105469 C139.14300537109375,-30.50200080871582 105.51899719238281,-2.1659998893737793 72.50199890136719,-34.6510009765625z"></path><path stroke-linecap="butt" stroke-linejoin="miter" fill-opacity="0" stroke-miterlimit="10" stroke="rgb(122,59,46)" stroke-opacity="1" stroke-width="11.525" d=" M72.50199890136719,-34.6510009765625 C66.80400085449219,-40.25699996948242 58.507999420166016,-62.027000427246094 73.18299865722656,-90.2979965209961 C87.85800170898438,-118.56900024414062 138.83999633789062,-109.73300170898438 146.7830047607422,-88.03199768066406 C154.7259979248047,-66.33100128173828 153.5030059814453,-52.40800094604492 146.322998046875,-41.45500183105469 C139.14300537109375,-30.50200080871582 105.51899719238281,-2.1659998893737793 72.50199890136719,-34.6510009765625z"></path></g><g opacity="1" transform="matrix(1,0,0,1,0,0)"><path fill="rgb(255,255,255)" fill-opacity="1" d=" M-75.76000213623047,-21.812999725341797 C-83.36499786376953,-62.83599853515625 -57.619998931884766,-75.41300201416016 -33.7760009765625,-77.6500015258789 C-9.932000160217285,-79.88700103759766 14.579000473022461,-66.0469970703125 20.038000106811523,-42.284000396728516 C24.06100082397461,-24.770000457763672 23.533000946044922,9.62399959564209 -19.781999588012695,16.48200035095215 C-58.31700134277344,22.58300018310547 -72.12100219726562,-2.183000087738037 -75.76000213623047,-21.812999725341797z"></path><path stroke-linecap="butt" stroke-linejoin="miter" fill-opacity="0" stroke-miterlimit="10" stroke="rgb(122,59,46)" stroke-opacity="1" stroke-width="11.86" d=" M-75.76000213623047,-21.812999725341797 C-83.36499786376953,-62.83599853515625 -57.619998931884766,-75.41300201416016 -33.7760009765625,-77.6500015258789 C-9.932000160217285,-79.88700103759766 14.579000473022461,-66.0469970703125 20.038000106811523,-42.284000396728516 C24.06100082397461,-24.770000457763672 23.533000946044922,9.62399959564209 -19.781999588012695,16.48200035095215 C-58.31700134277344,22.58300018310547 -72.12100219726562,-2.183000087738037 -75.76000213623047,-21.812999725341797z"></path></g><g opacity="1" transform="matrix(1,0,0,1,0,0)"><g opacity="1" transform="matrix(1,0,0,1,0.41500091552734375,0)"><g opacity="1" transform="matrix(1,0,0,1,0,0)"><path fill="rgb(15,15,15)" fill-opacity="1" d=" M-48.15599822998047,-32.290000915527344 C-48.15599822998047,-32.290000915527344 -54.986000061035156,-18.72100067138672 -42.46900177001953,-10.597999572753906 C-29.95199966430664,-2.4749999046325684 -15.76200008392334,-14.96500015258789 -16.39299964904785,-22.577999114990234 C-17.02400016784668,-30.19099998474121 -21.58300018310547,-40.31999969482422 -32.1349983215332,-40.66299819946289 C-42.6870002746582,-41.00600051879883 -48.15599822998047,-32.290000915527344 -48.15599822998047,-32.290000915527344z"></path></g><g opacity="1" transform="matrix(1,0,0,1,0,0)"><path fill="rgb(255,255,255)" fill-opacity="1" d=" M-22.365999221801758,-27.506999969482422 C-22.365999221801758,-27.506999969482422 -26.43400001525879,-22.68199920654297 -19.829999923706055,-20.222999572753906 C-13.22599983215332,-17.763999938964844 -5.178999900817871,-22.408000946044922 -5.326000213623047,-25 C-5.4730000495910645,-27.591999053955078 -7.692999839782715,-30.944000244140625 -13.428000450134277,-30.788999557495117 C-19.163000106811523,-30.634000778198242 -22.365999221801758,-27.506999969482422 -22.365999221801758,-27.506999969482422z"></path></g><g opacity="1" transform="matrix(1,0,0,1,0,0)"><path fill="rgb(255,255,255)" fill-opacity="1" d=" M-54.77799987792969,-20.701000213623047 C-54.77799987792969,-20.701000213623047 -57.20899963378906,-17.88599967956543 -53.279998779296875,-16.465999603271484 C-49.35100173950195,-15.045999526977539 -44.54899978637695,-17.763999938964844 -44.63199996948242,-19.27199935913086 C-44.71500015258789,-20.780000686645508 -46.03200149536133,-22.726999282836914 -49.448001861572266,-22.62700080871582 C-52.86399841308594,-22.527000427246094 -54.77799987792969,-20.701000213623047 -54.77799987792969,-20.701000213623047z"></path></g></g><g opacity="1" transform="matrix(1,0,0,1,0,0)"><g opacity="1" transform="matrix(1,0,0,1,0.41499999165534973,0)"><path fill="rgb(15,15,15)" fill-opacity="1" d=" M92.44300079345703,-66.03600311279297 C92.44300079345703,-66.03600311279297 86.427001953125,-54.1609992980957 97.43299865722656,-47.0620002746582 C108.43900299072266,-39.9630012512207 121.44400024414062,-49.250999450683594 119.71199798583984,-59.637001037597656 C118.61299896240234,-66.22899627685547 115.8239974975586,-73.0770034790039 106.54199981689453,-73.37100219726562 C97.26000213623047,-73.66500091552734 92.44300079345703,-66.03600311279297 92.44300079345703,-66.03600311279297z"></path></g><g opacity="1" transform="matrix(1,0,0,1,0,0)"><path fill="rgb(255,255,255)" fill-opacity="1" d=" M113.35199737548828,-62.224998474121094 C113.35199737548828,-62.224998474121094 109.4020004272461,-57.625 115.79199981689453,-55.29999923706055 C122.18199920654297,-52.974998474121094 129.98500061035156,-57.4119987487793 129.8489990234375,-59.87699890136719 C129.71299743652344,-62.34199905395508 127.56999969482422,-65.5270004272461 122.01499938964844,-65.36699676513672 C116.45999908447266,-65.20700073242188 113.35199737548828,-62.224998474121094 113.35199737548828,-62.224998474121094z"></path></g><g opacity="1" transform="matrix(1,0,0,1,0,0)"><path fill="rgb(255,255,255)" fill-opacity="1" d=" M86.39600372314453,-55.12699890136719 C86.39600372314453,-55.12699890136719 84.21700286865234,-52.619998931884766 87.73500061035156,-51.35900115966797 C91.25299835205078,-50.097999572753906 95.55500030517578,-52.520999908447266 95.48200225830078,-53.862998962402344 C95.40899658203125,-55.20500183105469 94.23100280761719,-56.93600082397461 91.1709976196289,-56.84400177001953 C88.11100006103516,-56.75199890136719 86.39600372314453,-55.12699890136719 86.39600372314453,-55.12699890136719z"></path></g></g></g><g opacity="1" transform="matrix(1,0,0,1,0,0)"><path fill="url(#__lottie_element_37)" fill-opacity="1" d=" M-81.06700134277344,-46.01499938964844 C-81.06700134277344,-46.01499938964844 -88.19599914550781,-95.3219985961914 -47.39899826049805,-105.86799621582031 C-0.19300000369548798,-118.07099914550781 10.404000282287598,-80.4990005493164 14.66100025177002,-66.7979965209961 C30.31399917602539,-69.26000213623047 33.84700012207031,-55.12900161743164 17.113000869750977,-49.90599822998047 C11.46500015258789,-48.143001556396484 -81.43800354003906,-19.163000106811523 -88.97200012207031,-32.76499938964844 C-94.75800323486328,-43.21099853515625 -81.06700134277344,-46.01499938964844 -81.06700134277344,-46.01499938964844z"></path><path stroke-linecap="round" stroke-linejoin="round" fill-opacity="0" stroke="rgb(186,101,72)" stroke-opacity="1" stroke-width="11.86" d=" M-81.06700134277344,-46.01499938964844 C-81.06700134277344,-46.01499938964844 -88.19599914550781,-95.3219985961914 -47.39899826049805,-105.86799621582031 C-0.19300000369548798,-118.07099914550781 10.404000282287598,-80.4990005493164 14.66100025177002,-66.7979965209961 C30.31399917602539,-69.26000213623047 33.84700012207031,-55.12900161743164 17.113000869750977,-49.90599822998047 C11.46500015258789,-48.143001556396484 -81.43800354003906,-19.163000106811523 -88.97200012207031,-32.76499938964844 C-94.75800323486328,-43.21099853515625 -81.06700134277344,-46.01499938964844 -81.06700134277344,-46.01499938964844z"></path></g><g opacity="1" transform="matrix(1,0,0,1,0,0)"><path fill="url(#__lottie_element_38)" fill-opacity="1" d=" M71.13200378417969,-28.985000610351562 C50.43299865722656,-28.770000457763672 56.16999816894531,-42.16600036621094 65.69599914550781,-41.1609992980957 C107.73300170898438,-36.72800064086914 133.43600463867188,-49.112998962402344 160.41400146484375,-62.0620002746582 C170.36199951171875,-66.83699798583984 173.89999389648438,-50.82500076293945 157.9029998779297,-44.9119987487793 C156.6699981689453,-28.461999893188477 140.06700134277344,-15.138999938964844 121.07099914550781,-10.869000434875488 C102.78500366210938,-6.757999897003174 82.28099822998047,-11.03499984741211 71.13200378417969,-28.985000610351562z"></path><path stroke-linecap="round" stroke-linejoin="round" fill-opacity="0" stroke="rgb(186,101,72)" stroke-opacity="1" stroke-width="10.373" d=" M71.13200378417969,-28.985000610351562 C50.43299865722656,-28.770000457763672 56.16999816894531,-42.16600036621094 65.69599914550781,-41.1609992980957 C107.73300170898438,-36.72800064086914 133.43600463867188,-49.112998962402344 160.41400146484375,-62.0620002746582 C170.36199951171875,-66.83699798583984 173.89999389648438,-50.82500076293945 157.9029998779297,-44.9119987487793 C156.6699981689453,-28.461999893188477 140.06700134277344,-15.138999938964844 121.07099914550781,-10.869000434875488 C102.78500366210938,-6.757999897003174 82.28099822998047,-11.03499984741211 71.13200378417969,-28.985000610351562z"></path></g><g opacity="1" transform="matrix(1,0,0,1,0,0)"><path fill="url(#__lottie_element_39)" fill-opacity="1" d=" M-69.24099731445312,10.482999801635742 C-96.53199768066406,3.63700008392334 -87.60800170898438,-9.329000473022461 -72.125,-7.281000137329102 C-11.432000160217285,0.746999979019165 20.584999084472656,-21.200000762939453 27.736000061035156,-21.334999084472656 C43.85300064086914,-21.639999389648438 36.84299850463867,-5.714000225067139 22.965999603271484,-4.409999847412109 C18.57200050354004,16.41900062561035 -6.017000198364258,26.375999450683594 -28.791000366210938,27.093000411987305 C-47.82099914550781,27.691999435424805 -65.58399963378906,21.839000701904297 -69.24099731445312,10.482999801635742z"></path><path stroke-linecap="round" stroke-linejoin="round" fill-opacity="0" stroke="rgb(186,101,72)" stroke-opacity="1" stroke-width="11.86" d=" M-69.24099731445312,10.482999801635742 C-96.53199768066406,3.63700008392334 -87.60800170898438,-9.329000473022461 -72.125,-7.281000137329102 C-11.432000160217285,0.746999979019165 20.584999084472656,-21.200000762939453 27.736000061035156,-21.334999084472656 C43.85300064086914,-21.639999389648438 36.84299850463867,-5.714000225067139 22.965999603271484,-4.409999847412109 C18.57200050354004,16.41900062561035 -6.017000198364258,26.375999450683594 -28.791000366210938,27.093000411987305 C-47.82099914550781,27.691999435424805 -65.58399963378906,21.839000701904297 -69.24099731445312,10.482999801635742z"></path></g><g opacity="1" transform="matrix(1,0,0,1,0,0)"><path fill="url(#__lottie_element_40)" fill-opacity="1" d=" M-2.76200008392334,-63.15800094604492 C7.513999938964844,-66.69000244140625 18.433000564575195,-66.36900329589844 18.433000564575195,-66.36900329589844"></path><path stroke-linecap="round" stroke-linejoin="round" fill-opacity="0" stroke="rgb(186,101,72)" stroke-opacity="1" stroke-width="10.674" d=" M-2.76200008392334,-63.15800094604492 C7.513999938964844,-66.69000244140625 18.433000564575195,-66.36900329589844 18.433000564575195,-66.36900329589844"></path></g><g opacity="1" transform="matrix(1,0,0,1,0,0)"><g opacity="1" transform="matrix(1,0,0,1,0.054999999701976776,0.3610000014305115)"><path fill="url(#__lottie_element_41)" fill-opacity="1" d=" M62.069000244140625,-74.38500213623047 C45.72800064086914,-74.0770034790039 49.847999572753906,-61.053001403808594 57.61000061035156,-58.983001708984375 C66.302001953125,-56.665000915527344 142.50900268554688,-70.01899719238281 158.02699279785156,-80.76300048828125 C167.81199645996094,-87.53700256347656 163.26199340820312,-99.44499969482422 150.70399475097656,-95.31700134277344 C133.40199279785156,-131.89300537109375 106.45600128173828,-138.3800048828125 86.3499984741211,-129.54200744628906 C66.94000244140625,-121.01000213623047 53.90299987792969,-98.19599914550781 62.069000244140625,-74.38500213623047z"></path><path stroke-linecap="round" stroke-linejoin="round" fill-opacity="0" stroke="rgb(186,101,72)" stroke-opacity="1" stroke-width="10.373" d=" M62.069000244140625,-74.38500213623047 C45.72800064086914,-74.0770034790039 49.847999572753906,-61.053001403808594 57.61000061035156,-58.983001708984375 C66.302001953125,-56.665000915527344 142.50900268554688,-70.01899719238281 158.02699279785156,-80.76300048828125 C167.81199645996094,-87.53700256347656 163.26199340820312,-99.44499969482422 150.70399475097656,-95.31700134277344 C133.40199279785156,-131.89300537109375 106.45600128173828,-138.3800048828125 86.3499984741211,-129.54200744628906 C66.94000244140625,-121.01000213623047 53.90299987792969,-98.19599914550781 62.069000244140625,-74.38500213623047z"></path></g><g opacity="1" transform="matrix(1,0,0,1,0,0)"><path fill="url(#__lottie_element_42)" fill-opacity="1" d=" M58.20000076293945,-73.33899688720703 C58.20000076293945,-73.33899688720703 68.00299835205078,-75.81099700927734 73.08300018310547,-75.58599853515625"></path><path stroke-linecap="round" stroke-linejoin="round" fill-opacity="0" stroke="rgb(186,101,72)" stroke-opacity="1" stroke-width="10.373" d=" M58.20000076293945,-73.33899688720703 C58.20000076293945,-73.33899688720703 68.00299835205078,-75.81099700927734 73.08300018310547,-75.58599853515625"></path></g></g></g><g style="display: block;" transform="matrix(1,0,0,1,255.99984741210938,256.000244140625)" opacity="1"><g opacity="1" transform="matrix(1,0,0,1,0,0)"><path fill="rgb(79,44,37)" fill-opacity="1" d=" M-124.68199920654297,-129.83999633789062 C-124.68199920654297,-129.83999633789062 -130.26800537109375,-142.73300170898438 -134.2969970703125,-149.5030059814453 C-138.3260040283203,-156.2729949951172 -144.63400268554688,-164.6009979248047 -143.4409942626953,-160.35400390625 C-142.2480010986328,-156.10699462890625 -131.24899291992188,-141.42100524902344 -140.21200561523438,-137.93899536132812 C-143.16200256347656,-136.79299926757812 -153.44200134277344,-143.09300231933594 -157.5749969482422,-148.48500061035156 C-161.70799255371094,-153.8769989013672 -172.01499938964844,-164.35299682617188 -175.23199462890625,-161.82400512695312 C-178.44900512695312,-159.2949981689453 -161.2239990234375,-146.91200256347656 -159.4080047607422,-137.53700256347656 C-157.5919952392578,-128.16200256347656 -161.41400146484375,-124.29299926757812 -168.33200073242188,-126.19999694824219 C-175.25,-128.10699462890625 -186.9600067138672,-132.6199951171875 -192.302001953125,-129.39100646972656 C-203.0030059814453,-122.9219970703125 -185.677001953125,-111.77999877929688 -190.33099365234375,-115.38500213623047 C-191.27000427246094,-116.11199951171875 -199.71600341796875,-121.76599884033203 -194.843994140625,-125.77200317382812 C-190.89199829101562,-129.02200317382812 -173.85000610351562,-126.61499786376953 -172.86399841308594,-119.61199951171875 C-171.8780059814453,-112.60900115966797 -167.2899932861328,-111.57099914550781 -162.37899780273438,-109.81500244140625 C-157.46800231933594,-108.05899810791016 -156.47799682617188,-102.78900146484375 -156.47799682617188,-102.78900146484375 C-156.47799682617188,-102.78900146484375 -153.0970001220703,-94.10399627685547 -159.61700439453125,-94.59500122070312 C-166.13699340820312,-95.08599853515625 -185.35000610351562,-91.10600280761719 -185.35000610351562,-91.10600280761719 C-185.35000610351562,-91.10600280761719 -173.23599243164062,-84.53500366210938 -163.27499389648438,-82.86100006103516 C-153.31399536132812,-81.18699645996094 -143.67599487304688,-86.9280014038086 -143.67599487304688,-86.9280014038086 C-143.67599487304688,-86.9280014038086 -130.64100646972656,-80.86499786376953 -126.04900360107422,-84.90699768066406 C-120.05400085449219,-90.18499755859375 -136.77099609375,-96.56999969482422 -136.77099609375,-96.56999969482422 C-136.77099609375,-96.56999969482422 -139.9010009765625,-101.88600158691406 -139.0189971923828,-106.9010009765625 C-138.13699340820312,-111.91600036621094 -128.03799438476562,-112.0780029296875 -130.9429931640625,-113.68299865722656 C-133.84800720214844,-115.28800201416016 -140.281005859375,-123.625 -140.281005859375,-123.625 C-140.281005859375,-123.625 -135.17999267578125,-131.09300231933594 -135.17999267578125,-131.09300231933594 C-135.17999267578125,-131.09300231933594 -124.68199920654297,-129.83999633789062 -124.68199920654297,-129.83999633789062z"></path><path stroke-linecap="round" stroke-linejoin="round" fill-opacity="0" stroke="rgb(79,44,37)" stroke-opacity="1" stroke-width="11.268" d=" M-124.68199920654297,-129.83999633789062 C-124.68199920654297,-129.83999633789062 -130.26800537109375,-142.73300170898438 -134.2969970703125,-149.5030059814453 C-138.3260040283203,-156.2729949951172 -144.63400268554688,-164.6009979248047 -143.4409942626953,-160.35400390625 C-142.2480010986328,-156.10699462890625 -131.24899291992188,-141.42100524902344 -140.21200561523438,-137.93899536132812 C-143.16200256347656,-136.79299926757812 -153.44200134277344,-143.09300231933594 -157.5749969482422,-148.48500061035156 C-161.70799255371094,-153.8769989013672 -172.01499938964844,-164.35299682617188 -175.23199462890625,-161.82400512695312 C-178.44900512695312,-159.2949981689453 -161.2239990234375,-146.91200256347656 -159.4080047607422,-137.53700256347656 C-157.5919952392578,-128.16200256347656 -161.41400146484375,-124.29299926757812 -168.33200073242188,-126.19999694824219 C-175.25,-128.10699462890625 -186.9600067138672,-132.6199951171875 -192.302001953125,-129.39100646972656 C-203.0030059814453,-122.9219970703125 -185.677001953125,-111.77999877929688 -190.33099365234375,-115.38500213623047 C-191.27000427246094,-116.11199951171875 -199.71600341796875,-121.76599884033203 -194.843994140625,-125.77200317382812 C-190.89199829101562,-129.02200317382812 -173.85000610351562,-126.61499786376953 -172.86399841308594,-119.61199951171875 C-171.8780059814453,-112.60900115966797 -167.2899932861328,-111.57099914550781 -162.37899780273438,-109.81500244140625 C-157.46800231933594,-108.05899810791016 -156.47799682617188,-102.78900146484375 -156.47799682617188,-102.78900146484375 C-156.47799682617188,-102.78900146484375 -153.0970001220703,-94.10399627685547 -159.61700439453125,-94.59500122070312 C-166.13699340820312,-95.08599853515625 -185.35000610351562,-91.10600280761719 -185.35000610351562,-91.10600280761719 C-185.35000610351562,-91.10600280761719 -173.23599243164062,-84.53500366210938 -163.27499389648438,-82.86100006103516 C-153.31399536132812,-81.18699645996094 -143.67599487304688,-86.9280014038086 -143.67599487304688,-86.9280014038086 C-143.67599487304688,-86.9280014038086 -130.64100646972656,-80.86499786376953 -126.04900360107422,-84.90699768066406 C-120.05400085449219,-90.18499755859375 -136.77099609375,-96.56999969482422 -136.77099609375,-96.56999969482422 C-136.77099609375,-96.56999969482422 -139.9010009765625,-101.88600158691406 -139.0189971923828,-106.9010009765625 C-138.13699340820312,-111.91600036621094 -128.03799438476562,-112.0780029296875 -130.9429931640625,-113.68299865722656 C-133.84800720214844,-115.28800201416016 -140.281005859375,-123.625 -140.281005859375,-123.625 C-140.281005859375,-123.625 -135.17999267578125,-131.09300231933594 -135.17999267578125,-131.09300231933594 C-135.17999267578125,-131.09300231933594 -124.68199920654297,-129.83999633789062 -124.68199920654297,-129.83999633789062z"></path></g></g><g style="display: block;" transform="matrix(1,0,0,1,255.99984741210938,256.000244140625)" opacity="1"><g opacity="1" transform="matrix(1,0,0,1,0,0)"><path stroke-linecap="round" stroke-linejoin="round" fill-opacity="0" stroke="rgb(79,44,37)" stroke-opacity="1" stroke-width="14.039" d=" M-100.96800231933594,-197.79299926757812 C-100.96800231933594,-197.79299926757812 -39.534000396728516,-201.9080047607422 -21.591999053955078,-160.61599731445312"></path></g><g opacity="1" transform="matrix(1,0,0,1,0,0)"><path stroke-linecap="round" stroke-linejoin="round" fill-opacity="0" stroke="rgb(79,44,37)" stroke-opacity="1" stroke-width="13.403" d=" M-83.5739974975586,-209.8560028076172 C-83.5739974975586,-209.8560028076172 -13.942999839782715,-223.9980010986328 14.369000434875488,-185.5070037841797"></path></g><g opacity="1" transform="matrix(1,0,0,1,0,0)"><path stroke-linecap="round" stroke-linejoin="round" fill-opacity="0" stroke="rgb(79,44,37)" stroke-opacity="1" stroke-width="11.874" d=" M-47.36000061035156,-222.1479949951172 C-47.36000061035156,-222.1479949951172 -4.751999855041504,-243.34100341796875 32.810001373291016,-205.2969970703125"></path></g><g opacity="1" transform="matrix(1,0,0,1,0,0)"><path stroke-linecap="round" stroke-linejoin="round" fill-opacity="0" stroke="rgb(79,44,37)" stroke-opacity="1" stroke-width="11.874" d=" M-91.22200012207031,-205.2899932861328 C-91.22200012207031,-205.2899932861328 -71.61100006103516,-238.19200134277344 -34.70199966430664,-226.1540069580078"></path></g></g><g style="display: block;" transform="matrix(1,0,0,1,255.99935913085938,256)" opacity="1"><g opacity="1" transform="matrix(1,0,0,1,0,0)"><path fill="rgb(66,34,26)" fill-opacity="1" d=" M102.75,10.121000289916992 C130.64100646972656,11.434000015258789 146.11099243164062,31.81399917602539 178.30799865722656,23.05699920654297 C210.8040008544922,14.218999862670898 233.42799377441406,-20.222999572753906 233.42799377441406,-20.222999572753906 C233.42799377441406,-20.222999572753906 235.14199829101562,-21.32200050354004 235.73199462890625,-18.802000045776367 C236.2740020751953,-16.48900032043457 223.5590057373047,8.571000099182129 189.9530029296875,27.152999877929688 C156.3470001220703,45.73500061035156 120.4010009765625,26.240999221801758 108.74299621582031,24.242000579833984 C87.61799621582031,20.6200008392334 78.91699981689453,48.25400161743164 69.64800262451172,42.08700180053711 C57.03200149536133,33.69300079345703 78.63899993896484,8.986000061035156 102.75,10.121000289916992z"></path><path stroke-linecap="round" stroke-linejoin="round" fill-opacity="0" stroke="rgb(79,44,37)" stroke-opacity="1" stroke-width="2.835" d=" M102.75,10.121000289916992 C130.64100646972656,11.434000015258789 146.11099243164062,31.81399917602539 178.30799865722656,23.05699920654297 C210.8040008544922,14.218999862670898 233.42799377441406,-20.222999572753906 233.42799377441406,-20.222999572753906 C233.42799377441406,-20.222999572753906 235.14199829101562,-21.32200050354004 235.73199462890625,-18.802000045776367 C236.2740020751953,-16.48900032043457 223.5590057373047,8.571000099182129 189.9530029296875,27.152999877929688 C156.3470001220703,45.73500061035156 120.4010009765625,26.240999221801758 108.74299621582031,24.242000579833984 C87.61799621582031,20.6200008392334 78.91699981689453,48.25400161743164 69.64800262451172,42.08700180053711 C57.03200149536133,33.69300079345703 78.63899993896484,8.986000061035156 102.75,10.121000289916992z"></path></g></g><g style="display: block;" transform="matrix(1,0,0,1,255.99920654296875,255.99969482421875)" opacity="1"><g opacity="1" transform="matrix(1,0,0,1,0,0)"><path fill="rgb(66,34,26)" fill-opacity="1" d=" M-1.6749999523162842,35.167999267578125 C-31.341999053955078,49.07899856567383 -39.27000045776367,78.51899719238281 -78.14600372314453,85.11799621582031 C-124.31600189208984,92.95500183105469 -159.6750030517578,72.85399627685547 -159.6750030517578,72.85399627685547 C-159.6750030517578,72.85399627685547 -162.00799560546875,72.67900085449219 -161.59100341796875,75.09200286865234 C-161.20799255371094,77.30699920654297 -99.10399627685547,145.18499755859375 -5.189000129699707,53.577999114990234 C18.32900047302246,30.63800048828125 39.82600021362305,62.944000244140625 47.92399978637695,49.71699905395508 C54.96900177001953,38.21099853515625 27.992000579833984,21.256999969482422 -1.6749999523162842,35.167999267578125z"></path><path stroke-linecap="round" stroke-linejoin="round" fill-opacity="0" stroke="rgb(79,44,37)" stroke-opacity="1" stroke-width="2.835" d=" M-1.6749999523162842,35.167999267578125 C-31.341999053955078,49.07899856567383 -39.27000045776367,78.51899719238281 -78.14600372314453,85.11799621582031 C-124.31600189208984,92.95500183105469 -159.6750030517578,72.85399627685547 -159.6750030517578,72.85399627685547 C-159.6750030517578,72.85399627685547 -162.00799560546875,72.67900085449219 -161.59100341796875,75.09200286865234 C-161.20799255371094,77.30699920654297 -99.10399627685547,145.18499755859375 -5.189000129699707,53.577999114990234 C18.32900047302246,30.63800048828125 39.82600021362305,62.944000244140625 47.92399978637695,49.71699905395508 C54.96900177001953,38.21099853515625 27.992000579833984,21.256999969482422 -1.6749999523162842,35.167999267578125z"></path></g></g><g style="display: block;" transform="matrix(1,0,0,1,256,256)" opacity="1"><g opacity="1" transform="matrix(1,0,0,1,0,0)"><path fill="url(#__lottie_element_9)" fill-opacity="1" d=" M-214.83200073242188,67.98600006103516 C-214.83200073242188,67.98600006103516 -217.70899963378906,10.5649995803833 -205.4720001220703,-11.684000015258789 C-192.07000732421875,-36.04899978637695 -153.85299682617188,-62.00600051879883 -141.1959991455078,-53.70399856567383 C-109.40799713134766,-32.854000091552734 -170.05099487304688,-3.98799991607666 -170.09800720214844,7.730000019073486 C-170.14500427246094,19.447999954223633 -170.11300659179688,41.21900177001953 -170.11300659179688,41.21900177001953 C-170.11300659179688,41.21900177001953 -214.83200073242188,67.98600006103516 -214.83200073242188,67.98600006103516z"></path><path stroke-linecap="round" stroke-linejoin="round" fill-opacity="0" stroke="rgb(186,101,72)" stroke-opacity="1" stroke-width="14.681" d=" M-214.83200073242188,67.98600006103516 C-214.83200073242188,67.98600006103516 -217.70899963378906,10.5649995803833 -205.4720001220703,-11.684000015258789 C-192.07000732421875,-36.04899978637695 -153.85299682617188,-62.00600051879883 -141.1959991455078,-53.70399856567383 C-109.40799713134766,-32.854000091552734 -170.05099487304688,-3.98799991607666 -170.09800720214844,7.730000019073486 C-170.14500427246094,19.447999954223633 -170.11300659179688,41.21900177001953 -170.11300659179688,41.21900177001953 C-170.11300659179688,41.21900177001953 -214.83200073242188,67.98600006103516 -214.83200073242188,67.98600006103516z"></path></g><g opacity="1" transform="matrix(1,0,0,1,0,0)"><path fill="url(#__lottie_element_10)" fill-opacity="1" d=" M-222.6699981689453,94.18699645996094 C-227.2729949951172,70.6709976196289 -229.37100219726562,14.362000465393066 -129.61900329589844,14.970000267028809 C-110.10299682617188,15.08899974822998 -111.15699768066406,25.20400047302246 -112.24600219726562,28.84000015258789 C-87.375,28.351999282836914 -94.49400329589844,51.54600143432617 -94.49400329589844,51.54600143432617 C-94.49400329589844,51.54600143432617 -81.7249984741211,57.09700012207031 -81.06500244140625,70.54299926757812 C-80.40499877929688,83.98899841308594 -93.69300079345703,104.75499725341797 -93.69300079345703,104.75499725341797 C-93.69300079345703,104.75499725341797 -74.98400115966797,156.40199279785156 -124.5260009765625,169.40899658203125 C-174.0679931640625,182.41600036621094 -216.39599609375,126.24099731445312 -222.6699981689453,94.18699645996094z"></path><path stroke-linecap="round" stroke-linejoin="round" fill-opacity="0" stroke="rgb(186,101,72)" stroke-opacity="1" stroke-width="14.681" d=" M-222.6699981689453,94.18699645996094 C-227.2729949951172,70.6709976196289 -229.37100219726562,14.362000465393066 -129.61900329589844,14.970000267028809 C-110.10299682617188,15.08899974822998 -111.15699768066406,25.20400047302246 -112.24600219726562,28.84000015258789 C-87.375,28.351999282836914 -94.49400329589844,51.54600143432617 -94.49400329589844,51.54600143432617 C-94.49400329589844,51.54600143432617 -81.7249984741211,57.09700012207031 -81.06500244140625,70.54299926757812 C-80.40499877929688,83.98899841308594 -93.69300079345703,104.75499725341797 -93.69300079345703,104.75499725341797 C-93.69300079345703,104.75499725341797 -74.98400115966797,156.40199279785156 -124.5260009765625,169.40899658203125 C-174.0679931640625,182.41600036621094 -216.39599609375,126.24099731445312 -222.6699981689453,94.18699645996094z"></path></g><g opacity="1" transform="matrix(1,0,0,1,0,0)"><path stroke-linecap="round" stroke-linejoin="round" fill-opacity="0" stroke="rgb(186,101,72)" stroke-opacity="1" stroke-width="14.681" d=" M-105.87100219726562,81.84100341796875 C-105.87100219726562,81.84100341796875 -93.58599853515625,98.43499755859375 -91.77100372314453,113.2239990234375 C-90.08599853515625,126.9530029296875 -90.98600006103516,135.41400146484375 -90.98600006103516,135.41400146484375"></path></g><g opacity="1" transform="matrix(1,0,0,1,0,0)"><path fill="url(#__lottie_element_11)" fill-opacity="1" d=" M-139.58799743652344,36.03099822998047 C-123.447998046875,25.301000595092773 -107.39099884033203,29.35300064086914 -107.39099884033203,29.35300064086914"></path><path stroke-linecap="round" stroke-linejoin="round" fill-opacity="0" stroke="rgb(186,101,72)" stroke-opacity="1" stroke-width="14.681" d=" M-139.58799743652344,36.03099822998047 C-123.447998046875,25.301000595092773 -107.39099884033203,29.35300064086914 -107.39099884033203,29.35300064086914"></path></g><g opacity="1" transform="matrix(1,0,0,1,0,0)"><path fill="url(#__lottie_element_12)" fill-opacity="1" d=" M-118.65799713134766,55.56700134277344 C-100.41500091552734,47.275001525878906 -84.95500183105469,59.09600067138672 -84.95500183105469,59.09600067138672"></path><path stroke-linecap="round" stroke-linejoin="round" fill-opacity="0" stroke="rgb(186,101,72)" stroke-opacity="1" stroke-width="14.681" d=" M-118.65799713134766,55.56700134277344 C-100.41500091552734,47.275001525878906 -84.95500183105469,59.09600067138672 -84.95500183105469,59.09600067138672"></path></g><g opacity="0.67" transform="matrix(1,0,0,1,0,0)"><path fill="rgb(224,155,121)" fill-opacity="1" d=" M-208.5989990234375,110.60299682617188 C-182.5050048828125,162.6540069580078 -154.92100524902344,165.9029998779297 -123.39800262451172,160.90499877929688 C-91.875,155.90699768066406 -96.52300262451172,116.76100158691406 -101.56700134277344,106.65699768066406 C-88.42400360107422,150.06399536132812 -184.9530029296875,161.9550018310547 -208.5989990234375,110.60299682617188z"></path></g></g><g style="display: none;"><g><path stroke-linecap="round" stroke-linejoin="round" fill-opacity="0"></path></g><g><path stroke-linecap="round" stroke-linejoin="round" fill-opacity="0"></path></g></g></g></svg>