<svg xmlns="http://www.w3.org/2000/svg" xmlns:xlink="http://www.w3.org/1999/xlink" viewBox="0 0 512 512" width="512" height="512" style="width: 100%; height: 100%; transform: translate3d(0,0,0); content-visibility: visible;" preserveAspectRatio="xMidYMid meet"><defs><clipPath id="__lottie_element_2"><rect width="512" height="512" x="0" y="0"></rect></clipPath><linearGradient id="__lottie_element_11" spreadMethod="pad" gradientUnits="userSpaceOnUse" x1="-2.562000036239624" y1="-47.487998962402344" x2="26.8700008392334" y2="137.71099853515625"><stop offset="0%" stop-color="rgb(240,249,255)"></stop><stop offset="55%" stop-color="rgb(187,218,244)"></stop><stop offset="100%" stop-color="rgb(135,187,233)"></stop></linearGradient><linearGradient id="__lottie_element_12" spreadMethod="pad" gradientUnits="userSpaceOnUse" x1="0" y1="0" x2="-156.77000427246094" y2="-157.58999633789062"><stop offset="0%" stop-color="rgb(249,223,201)"></stop><stop offset="85%" stop-color="rgb(249,202,171)"></stop><stop offset="100%" stop-color="rgb(250,181,140)"></stop></linearGradient><radialGradient id="__lottie_element_15" spreadMethod="pad" gradientUnits="userSpaceOnUse" cx="-77.45500183105469" cy="-155.01100158691406" r="194.70993879015285" fx="-77.45500183105469" fy="-155.01100158691406"><stop offset="0%" stop-color="rgb(249,205,174)"></stop><stop offset="53%" stop-color="rgb(247,175,138)"></stop><stop offset="100%" stop-color="rgb(245,146,103)"></stop></radialGradient><radialGradient id="__lottie_element_16" spreadMethod="pad" gradientUnits="userSpaceOnUse" cx="-192.177001953125" cy="-153.22900390625" r="323.49406805898263" fx="-192.177001953125" fy="-153.22900390625"><stop offset="0%" stop-color="rgb(249,223,201)"></stop><stop offset="85%" stop-color="rgb(249,202,171)"></stop><stop offset="100%" stop-color="rgb(250,181,140)"></stop></radialGradient><linearGradient id="__lottie_element_30" spreadMethod="pad" gradientUnits="userSpaceOnUse" x1="41.382999420166016" y1="-15.364999771118164" x2="30.860000610351562" y2="121.00399780273438"><stop offset="0%" stop-color="rgb(255,255,255)"></stop><stop offset="85%" stop-color="rgb(254,255,255)"></stop><stop offset="100%" stop-color="rgb(254,255,255)"></stop></linearGradient><mask id="__lottie_element_32"><path fill="url(#__lottie_element_31)" d=" M32.69499969482422,-4.4670000076293945 C40.470001220703125,54.814998626708984 34.553001403808594,120.38300323486328 17.993000030517578,122.33999633789062 C-0.03700000047683716,124.47000122070312 -24.43199920654297,65.7490005493164 -32.20600128173828,6.4670000076293945 C-39.98099899291992,-52.814998626708984 -31.030000686645508,-113.11699676513672 -16.524999618530273,-115.83999633789062 C0.3409999907016754,-119.00700378417969 24.920000076293945,-63.749000549316406 32.69499969482422,-4.4670000076293945z"></path></mask><linearGradient id="__lottie_element_31" spreadMethod="pad" gradientUnits="userSpaceOnUse" x1="41.382999420166016" y1="-15.364999771118164" x2="30.860000610351562" y2="121.00399780273438"><stop stop-color="rgb(255,255,255)" offset="0%" stop-opacity="1"></stop><stop stop-color="rgb(255,255,255)" offset="57%" stop-opacity="0.5849999785423279"></stop><stop stop-color="rgb(255,255,255)" offset="100%" stop-opacity="0.17000000178813934"></stop></linearGradient><linearGradient id="__lottie_element_36" spreadMethod="pad" gradientUnits="userSpaceOnUse" x1="-41.27000045776367" y1="55.332000732421875" x2="5.2210001945495605" y2="-30.788999557495117"><stop offset="0%" stop-color="rgb(38,136,217)"></stop><stop offset="51%" stop-color="rgb(60,159,229)"></stop><stop offset="100%" stop-color="rgb(82,181,242)"></stop></linearGradient><linearGradient id="__lottie_element_40" spreadMethod="pad" gradientUnits="userSpaceOnUse" x1="9.852999687194824" y1="20.823999404907227" x2="-32.09700012207031" y2="-31.726999282836914"><stop offset="0%" stop-color="rgb(38,136,217)"></stop><stop offset="51%" stop-color="rgb(60,159,229)"></stop><stop offset="100%" stop-color="rgb(82,181,242)"></stop></linearGradient><linearGradient id="__lottie_element_41" spreadMethod="pad" gradientUnits="userSpaceOnUse" x1="9.852999687194824" y1="20.823999404907227" x2="-32.09700012207031" y2="-31.726999282836914"><stop offset="0%" stop-color="rgb(38,136,217)"></stop><stop offset="51%" stop-color="rgb(60,159,229)"></stop><stop offset="100%" stop-color="rgb(82,181,242)"></stop></linearGradient></defs><g clip-path="url(#__lottie_element_2)"><g style="display: block;" transform="matrix(1.021589994430542,0,0,1,99.30751037597656,124.08600616455078)" opacity="1"><g opacity="1" transform="matrix(1,0,0,1,108.15699768066406,65.16500091552734)"><path fill="rgb(41,174,226)" fill-opacity="1" d=" M81.64700317382812,16.719999313354492 C81.64700317382812,16.719999313354492 10.272000312805176,-11.942000389099121 -19.145000457763672,-24.159000396728516 C-48.5629997253418,-36.37699890136719 -59.95100021362305,-38.654998779296875 -70.79900360107422,-32.86199951171875 C-81.64700317382812,-27.06999969482422 -78.4280014038086,-19.365999221801758 -72.87100219726562,-12.645000457763672 C-67.31400299072266,-5.923999786376953 -19.027999877929688,38.654998779296875 -19.027999877929688,38.654998779296875 C-19.027999877929688,38.654998779296875 81.64700317382812,16.719999313354492 81.64700317382812,16.719999313354492z"></path><path stroke-linecap="butt" stroke-linejoin="miter" fill-opacity="0" stroke-miterlimit="10" stroke="rgb(18,106,178)" stroke-opacity="1" stroke-width="10.604" d=" M81.64700317382812,16.719999313354492 C81.64700317382812,16.719999313354492 10.272000312805176,-11.942000389099121 -19.145000457763672,-24.159000396728516 C-48.5629997253418,-36.37699890136719 -59.95100021362305,-38.654998779296875 -70.79900360107422,-32.86199951171875 C-81.64700317382812,-27.06999969482422 -78.4280014038086,-19.365999221801758 -72.87100219726562,-12.645000457763672 C-67.31400299072266,-5.923999786376953 -19.027999877929688,38.654998779296875 -19.027999877929688,38.654998779296875 C-19.027999877929688,38.654998779296875 81.64700317382812,16.719999313354492 81.64700317382812,16.719999313354492z"></path></g></g><g style="display: block;" transform="matrix(1.021589994430542,0,0,1,2.390289306640625,130.77000427246094)" opacity="1"><g opacity="1" transform="matrix(1,0,0,1,254.36300659179688,126.70899963378906)"><path fill="url(#__lottie_element_11)" fill-opacity="1" d=" M-200.81300354003906,1.8949999809265137 C-200.81300354003906,1.8949999809265137 -73.13200378417969,-86.47799682617188 60.084999084472656,-92.13400268554688 C193.30099487304688,-97.78900146484375 219.9080047607422,-65.35600280761719 221.86199951171875,-36.1609992980957 C225.4429931640625,17.363000869750977 144.9010009765625,79.77300262451172 23.2549991607666,87.91300201416016 C-124.34200286865234,97.78900146484375 -181.55799865722656,68.45999908447266 -199.59500122070312,53.750999450683594 C-225.4429931640625,32.67100143432617 -200.81300354003906,1.8949999809265137 -200.81300354003906,1.8949999809265137z"></path><path stroke-linecap="butt" stroke-linejoin="miter" fill-opacity="0" stroke-miterlimit="10" stroke="rgb(124,155,198)" stroke-opacity="1" stroke-width="13" d=" M-200.81300354003906,1.8949999809265137 C-200.81300354003906,1.8949999809265137 -73.13200378417969,-86.47799682617188 60.084999084472656,-92.13400268554688 C193.30099487304688,-97.78900146484375 219.9080047607422,-65.35600280761719 221.86199951171875,-36.1609992980957 C225.4429931640625,17.363000869750977 144.9010009765625,79.77300262451172 23.2549991607666,87.91300201416016 C-124.34200286865234,97.78900146484375 -181.55799865722656,68.45999908447266 -199.59500122070312,53.750999450683594 C-225.4429931640625,32.67100143432617 -200.81300354003906,1.8949999809265137 -200.81300354003906,1.8949999809265137z"></path></g><g opacity="1" transform="matrix(1,0,0,1,461.52899169921875,65.02899932861328)"><path fill="url(#__lottie_element_12)" fill-opacity="1" d=" M-24.38599967956543,3.171999931335449 C-24.38599967956543,3.171999931335449 -9.345000267028809,8.350000381469727 1.2690000534057617,10.496000289916992 C11.883000373840332,12.642999649047852 28.316999435424805,19.121999740600586 28.316999435424805,19.121999740600586 C28.316999435424805,19.121999740600586 25.861000061035156,5.795000076293945 9.371999740600586,-2.2190001010894775 C0.9210000038146973,-6.326000213623047 -18.375999450683594,-11.121999740600586 -18.375999450683594,-11.121999740600586 C-18.375999450683594,-11.121999740600586 -21.6299991607666,-5.765999794006348 -22.2549991607666,-3.934999942779541 C-22.9060001373291,-2.0280001163482666 -24.38599967956543,3.171999931335449 -24.38599967956543,3.171999931335449z"></path></g><g opacity="1" transform="matrix(1,0,0,1,0,0)"><path fill="rgb(255,255,255)" fill-opacity="1" d=" M367.8389892578125,40.125999450683594 C297.2560119628906,33.625999450683594 159.69400024414062,77.87200164794922 114.94100189208984,98.6259994506836 C55.41400146484375,126.23100280761719 46.301998138427734,156.12600708007812 46.301998138427734,156.12600708007812 C46.301998138427734,156.12600708007812 93.61499786376953,134.3159942626953 155.9759979248047,112.72100067138672 C186.46600341796875,102.16300201416016 219.25399780273438,93.87300109863281 258.04400634765625,88.1259994506836 C305.3789978027344,81.11399841308594 344.87799072265625,72.29299926757812 375.1830139160156,70.96199798583984 C420.5050048828125,68.97100067138672 446.4729919433594,74.427001953125 457.0480041503906,75.6259994506836 C474.6940002441406,77.6259994506836 472.8370056152344,49.79499816894531 367.8389892578125,40.125999450683594z"></path></g></g><g style="display: block;" transform="matrix(1.021589994430542,0,0,1,-21.217620849609375,159.24301147460938)" opacity="1"><g opacity="1" transform="matrix(1,0,0,1,76.697998046875,75.74600219726562)"><path fill="url(#__lottie_element_40)" fill-opacity="1" d=" M50.1879997253418,-5.086999893188477 C50.1879997253418,-5.086999893188477 -4.307000160217285,-38.54999923706055 -17.65399932861328,-43.893001556396484 C-31.000999450683594,-49.236000061035156 -49.42399978637695,-41.28499984741211 -49.805999755859375,-34.018001556396484 C-50.1879997253418,-26.750999450683594 -10.98799991607666,49.236000061035156 -10.98799991607666,49.236000061035156 C-10.98799991607666,49.236000061035156 -8.675999641418457,35.8849983215332 14.093000411987305,18.288000106811523 C26.62299919128418,8.604000091552734 50.1879997253418,-5.086999893188477 50.1879997253418,-5.086999893188477z"></path><path fill="url(#__lottie_element_41)" fill-opacity="1" d=" M50.1879997253418,-5.086999893188477 C50.1879997253418,-5.086999893188477 -4.307000160217285,-38.54999923706055 -17.65399932861328,-43.893001556396484 C-31.000999450683594,-49.236000061035156 -49.42399978637695,-41.28499984741211 -49.805999755859375,-34.018001556396484 C-50.1879997253418,-26.750999450683594 -10.98799991607666,49.236000061035156 -10.98799991607666,49.236000061035156 C-10.98799991607666,49.236000061035156 -8.675999641418457,35.8849983215332 14.093000411987305,18.288000106811523 C26.62299919128418,8.604000091552734 50.1879997253418,-5.086999893188477 50.1879997253418,-5.086999893188477z"></path><path stroke-linecap="round" stroke-linejoin="round" fill-opacity="0" stroke="rgb(18,106,178)" stroke-opacity="1" stroke-width="11" d=" M50.1879997253418,-5.086999893188477 C50.1879997253418,-5.086999893188477 -4.307000160217285,-38.54999923706055 -17.65399932861328,-43.893001556396484 C-31.000999450683594,-49.236000061035156 -49.42399978637695,-41.28499984741211 -49.805999755859375,-34.018001556396484 C-50.1879997253418,-26.750999450683594 -10.98799991607666,49.236000061035156 -10.98799991607666,49.236000061035156 C-10.98799991607666,49.236000061035156 -8.675999641418457,35.8849983215332 14.093000411987305,18.288000106811523 C26.62299919128418,8.604000091552734 50.1879997253418,-5.086999893188477 50.1879997253418,-5.086999893188477z"></path></g><g opacity="1" transform="matrix(1,0,0,1,76.03399658203125,55.79999923706055)"><path fill="rgb(123,224,255)" fill-opacity="1" d=" M-40.965999603271484,-9.937999725341797 C-40.965999603271484,-9.937999725341797 -31.983999252319336,-15.6899995803833 -26.608999252319336,-13.130000114440918 C-21.235000610351562,-10.569999694824219 28.66200065612793,20.249000549316406 28.66200065612793,20.249000549316406 C28.66200065612793,20.249000549316406 39.2599983215332,14.333999633789062 39.2599983215332,14.333999633789062 C39.2599983215332,14.333999633789062 -1.159999966621399,-11.170999526977539 -9.779000282287598,-15.685999870300293 C-18.39699935913086,-20.20199966430664 -27.04199981689453,-20.94499969482422 -29.799999237060547,-20.340999603271484 C-34.73099899291992,-19.26099967956543 -43.48099899291992,-13.949000358581543 -43.48099899291992,-13.949000358581543 C-43.48099899291992,-13.949000358581543 -40.965999603271484,-9.937999725341797 -40.965999603271484,-9.937999725341797z"></path></g></g><g style="display: block;" transform="matrix(1.1824802160263062,0,0,1.1574900150299072,129.52590942382812,242.3452606201172)" opacity="1"><g opacity="1" transform="matrix(1,0,0,1,95.55400085449219,98.73799896240234)"><path fill="url(#__lottie_element_36)" fill-opacity="1" d=" M-51.893001556396484,-57.30799865722656 C-47.31700134277344,-64.43499755859375 -37.560001373291016,-70.90799713134766 -32.52299880981445,-72.61599731445312 C-23.01799964904785,-75.83899688720703 -13.60200023651123,-75.33799743652344 15.968000411987305,-76.8010025024414 C25.32900047302246,-77.26399993896484 55.89699935913086,-76.86000061035156 61.61399841308594,-74.73600006103516 C70.43900299072266,-71.45700073242188 72.67900085449219,-62.41999816894531 66.8270034790039,-56.76900100708008 C33.7599983215332,-24.839000701904297 13.517000198364258,-15.338000297546387 -16.798999786376953,4.557000160217285 C-43.619998931884766,22.158000946044922 -90.65799713134766,23.160999298095703 -82.81500244140625,-4.3429999351501465 C-76.78600311279297,-25.486000061035156 -60.54100036621094,-43.8390007019043 -51.893001556396484,-57.30799865722656z"></path><path stroke-linecap="butt" stroke-linejoin="miter" fill-opacity="0" stroke-miterlimit="10" stroke="rgb(18,106,178)" stroke-opacity="1" stroke-width="11" d=" M-51.893001556396484,-57.30799865722656 C-47.31700134277344,-64.43499755859375 -37.560001373291016,-70.90799713134766 -32.52299880981445,-72.61599731445312 C-23.01799964904785,-75.83899688720703 -13.60200023651123,-75.33799743652344 15.968000411987305,-76.8010025024414 C25.32900047302246,-77.26399993896484 55.89699935913086,-76.86000061035156 61.61399841308594,-74.73600006103516 C70.43900299072266,-71.45700073242188 72.67900085449219,-62.41999816894531 66.8270034790039,-56.76900100708008 C33.7599983215332,-24.839000701904297 13.517000198364258,-15.338000297546387 -16.798999786376953,4.557000160217285 C-43.619998931884766,22.158000946044922 -90.65799713134766,23.160999298095703 -82.81500244140625,-4.3429999351501465 C-76.78600311279297,-25.486000061035156 -60.54100036621094,-43.8390007019043 -51.893001556396484,-57.30799865722656z"></path></g><g opacity="1" transform="matrix(1,0,0,1,104.85399627685547,97.12100219726562)"><path fill="rgb(123,224,255)" fill-opacity="1" d=" M49.65700149536133,-68.43499755859375 C49.65700149536133,-68.43499755859375 29.17300033569336,-51.14099884033203 -1.5770000219345093,-29.881000518798828 C-21.981000900268555,-15.77400016784668 -60.99800109863281,12.01099967956543 -60.99800109863281,12.01099967956543 C-60.99800109863281,12.01099967956543 -57.74300003051758,12.833999633789062 -52.87300109863281,11.640000343322754 C-39.69900131225586,8.411999702453613 -8.47700023651123,-8.140999794006348 22.304000854492188,-32.233001708984375 C42.87799835205078,-48.33599853515625 53.38800048828125,-57.770999908447266 54.356998443603516,-60.10200119018555 C55.54899978637695,-62.96900177001953 56.61800003051758,-63.14099884033203 55.45199966430664,-66.08200073242188 C55.04399871826172,-67.11100006103516 49.65700149536133,-68.43499755859375 49.65700149536133,-68.43499755859375z"></path></g></g><g style="display: block;" transform="matrix(1.021589994430542,0,0,1,407.2311096191406,113.90200805664062)" opacity="1"><g opacity="1" transform="matrix(1,0,0,1,46.95399856567383,112.71700286865234)"><path fill="url(#__lottie_element_30)" mask="url(#__lottie_element_32)" fill-opacity="0.8" d="M0 0 M32.69499969482422,-4.4670000076293945 C40.470001220703125,54.814998626708984 34.553001403808594,120.38300323486328 17.993000030517578,122.33999633789062 C-0.03700000047683716,124.47000122070312 -24.43199920654297,65.7490005493164 -32.20600128173828,6.4670000076293945 C-39.98099899291992,-52.814998626708984 -31.030000686645508,-113.11699676513672 -16.524999618530273,-115.83999633789062 C0.3409999907016754,-119.00700378417969 24.920000076293945,-63.749000549316406 32.69499969482422,-4.4670000076293945z"></path><path stroke-linecap="butt" stroke-linejoin="miter" fill-opacity="0" stroke-miterlimit="10" stroke="rgb(139,166,204)" stroke-opacity="1" stroke-width="8.328" d=" M32.69499969482422,-4.4670000076293945 C40.470001220703125,54.814998626708984 34.553001403808594,120.38300323486328 17.993000030517578,122.33999633789062 C-0.03700000047683716,124.47000122070312 -24.43199920654297,65.7490005493164 -32.20600128173828,6.4670000076293945 C-39.98099899291992,-52.814998626708984 -31.030000686645508,-113.11699676513672 -16.524999618530273,-115.83999633789062 C0.3409999907016754,-119.00700378417969 24.920000076293945,-63.749000549316406 32.69499969482422,-4.4670000076293945z"></path><path stroke-linecap="butt" stroke-linejoin="miter" fill-opacity="0" stroke-miterlimit="10" stroke="rgb(154,227,244)" stroke-opacity="1" stroke-width="12.604" d=" M32.69499969482422,-4.4670000076293945 C40.470001220703125,54.814998626708984 34.553001403808594,120.38300323486328 17.993000030517578,122.33999633789062 C-0.03700000047683716,124.47000122070312 -24.43199920654297,65.7490005493164 -32.20600128173828,6.4670000076293945 C-39.98099899291992,-52.814998626708984 -31.030000686645508,-113.11699676513672 -16.524999618530273,-115.83999633789062 C0.3409999907016754,-119.00700378417969 24.920000076293945,-63.749000549316406 32.69499969482422,-4.4670000076293945z"></path></g><g opacity="1" transform="matrix(1,0,0,1,43.922000885009766,167.92300415039062)"><path stroke-linecap="round" stroke-linejoin="round" fill-opacity="0" stroke="rgb(253,255,255)" stroke-opacity="1" stroke-width="10.604" d=" M-12.440999984741211,-37.395999908447266 C-12.440999984741211,-37.395999908447266 -6.953000068664551,-14.821999549865723 0.8709999918937683,7.585000038146973 C5.452000141143799,20.70599937438965 14.39799976348877,36.395999908447266 14.39799976348877,36.395999908447266"></path></g><g opacity="1" transform="matrix(1,0,0,1,30.95400047302246,52.564998626708984)"><path stroke-linecap="round" stroke-linejoin="round" fill-opacity="0" stroke="rgb(253,255,255)" stroke-opacity="1" stroke-width="10.604" d=" M2.5320000648498535,-34.608001708984375 C2.5320000648498535,-34.608001708984375 -3.0880000591278076,-23.68000030517578 -4.613999843597412,-1.6460000276565552 C-6.21999979019165,21.53499984741211 -4.243000030517578,38.608001708984375 -4.243000030517578,38.608001708984375"></path></g></g><g style="display: block;" transform="matrix(1.021589994430542,0,0,1,418.7791748046875,153.16700744628906)" opacity="1"><g opacity="1" transform="matrix(1,0,0,1,58.3390007019043,70.13999938964844)"><path fill="rgb(41,174,226)" fill-opacity="1" d=" M-28.874000549316406,-33.124000549316406 C-26.240999221801758,-40.566001892089844 -18.684999465942383,-44.542999267578125 -11.489999771118164,-42.40700149536133 C1.8279999494552612,-38.45500183105469 22.77199935913086,-28.674999237060547 26.858999252319336,-10.914999961853027 C32.74100112915039,14.644000053405762 2.2049999237060547,44.542999267578125 -6.520999908447266,44.00600051879883 C-17.207000732421875,43.3489990234375 -27.156999588012695,31.582000732421875 -31.14299964904785,-3.052999973297119 C-32.742000579833984,-16.941999435424805 -31.179000854492188,-26.611000061035156 -28.874000549316406,-33.124000549316406z"></path></g><g opacity="1" transform="matrix(1,0,0,1,58.3390007019043,70.13999938964844)"><path stroke-linecap="butt" stroke-linejoin="miter" fill-opacity="0" stroke-miterlimit="10" stroke="rgb(18,106,178)" stroke-opacity="1" stroke-width="12" d=" M-28.874000549316406,-33.124000549316406 C-26.240999221801758,-40.566001892089844 -18.684999465942383,-44.542999267578125 -11.489999771118164,-42.40700149536133 C1.8279999494552612,-38.45500183105469 22.77199935913086,-28.674999237060547 26.858999252319336,-10.914999961853027 C32.74100112915039,14.644000053405762 2.2049999237060547,44.542999267578125 -6.520999908447266,44.00600051879883 C-17.207000732421875,43.3489990234375 -27.156999588012695,31.582000732421875 -31.14299964904785,-3.052999973297119 C-32.742000579833984,-16.941999435424805 -31.179000854492188,-26.611000061035156 -28.874000549316406,-33.124000549316406z"></path></g><g opacity="1" transform="matrix(1,0,0,1,52.75899887084961,44.75400161743164)"><path fill="rgb(123,224,255)" fill-opacity="1" d=" M-19.70599937438965,0.9359999895095825 C-19.70599937438965,0.9359999895095825 15.67199993133545,15.758999824523926 19.1299991607666,10.869999885559082 C22.589000701904297,5.980000019073486 9.588000297546387,-4.181000232696533 4.104000091552734,-7.376999855041504 C-0.0820000022649765,-9.8149995803833 -4.703000068664551,-10.5600004196167 -7.60099983215332,-11.484999656677246 C-9.753000259399414,-12.17300033569336 -12.121000289916992,-11.914999961853027 -14.00100040435791,-10.664999961853027 C-15.793999671936035,-9.472999572753906 -17.759000778198242,-7.40500020980835 -18.871000289916992,-3.8340001106262207 C-19.239999771118164,-2.6510000228881836 -19.70599937438965,0.9359999895095825 -19.70599937438965,0.9359999895095825z"></path></g></g><g style="display: block;" transform="matrix(0.9942135810852051,0,0,1.0107282400131226,132.51966857910156,-13.436004638671875)" opacity="1"><g opacity="1" transform="matrix(1,0,0,1,131.2899932861328,123.91500091552734)"><path fill="url(#__lottie_element_15)" fill-opacity="1" d=" M-96.83100128173828,97.12300109863281 C-96.83100128173828,97.12300109863281 -109.5999984741211,45.915000915527344 -105.51499938964844,18.55500030517578 C-99.46900177001953,-21.94499969482422 -91.06199645996094,-62.551998138427734 -46.125999450683594,-80.36900329589844 C8.994000434875488,-102.2249984741211 13.98900032043457,-100.052001953125 31.506999969482422,-90.77300262451172 C49.025001525878906,-81.49299621582031 91.03900146484375,-28.37299919128418 98.7490005493164,8.076000213623047 C106.45999908447266,44.525001525878906 109.60099792480469,66.06400299072266 109.60099792480469,66.06400299072266 C109.60099792480469,66.06400299072266 94.0790023803711,84.11399841308594 -18.027000427246094,98.02799987792969 C-51.845001220703125,102.2249984741211 -96.83100128173828,97.12300109863281 -96.83100128173828,97.12300109863281z"></path><path stroke-linecap="butt" stroke-linejoin="miter" fill-opacity="0" stroke-miterlimit="10" stroke="rgb(183,99,57)" stroke-opacity="1" stroke-width="11" d=" M-96.83100128173828,97.12300109863281 C-96.83100128173828,97.12300109863281 -109.5999984741211,45.915000915527344 -105.51499938964844,18.55500030517578 C-99.46900177001953,-21.94499969482422 -91.06199645996094,-62.551998138427734 -46.125999450683594,-80.36900329589844 C8.994000434875488,-102.2249984741211 13.98900032043457,-100.052001953125 31.506999969482422,-90.77300262451172 C49.025001525878906,-81.49299621582031 91.03900146484375,-28.37299919128418 98.7490005493164,8.076000213623047 C106.45999908447266,44.525001525878906 109.60099792480469,66.06400299072266 109.60099792480469,66.06400299072266 C109.60099792480469,66.06400299072266 94.0790023803711,84.11399841308594 -18.027000427246094,98.02799987792969 C-51.845001220703125,102.2249984741211 -96.83100128173828,97.12300109863281 -96.83100128173828,97.12300109863281z"></path></g><g opacity="1" transform="matrix(1,0,0,1,144.99400329589844,129.88699340820312)"><path fill="url(#__lottie_element_16)" fill-opacity="1" d=" M-86.80400085449219,83.6729965209961 C-86.80400085449219,83.6729965209961 -90.52200317382812,40.768001556396484 -89.12999725341797,15.159000396728516 C-86.96800231933594,-24.615999221801758 -85.51100158691406,-48.58399963378906 -40.117000579833984,-69.09700012207031 C5.2769999504089355,-89.61000061035156 10.732000350952148,-91.23200225830078 25.534000396728516,-82.33499908447266 C40.33599853515625,-73.43800354003906 73.54000091552734,-28.006000518798828 80.552001953125,6.001999855041504 C87.56300354003906,40.01100158691406 90.52200317382812,60.08700180053711 90.52200317382812,60.08700180053711 C90.52200317382812,60.08700180053711 77.80899810791016,76.62999725341797 -15.788999557495117,87.8479995727539 C-44.02399826049805,91.23200225830078 -86.80400085449219,83.6729965209961 -86.80400085449219,83.6729965209961z"></path></g></g><g style="display: block;" transform="matrix(0.9879796504974365,0,0,0.9670999646186829,128.7716064453125,140.516357421875)" opacity="1"><g opacity="1" transform="matrix(1,0,0,1,142.47500610351562,61.56100082397461)"><path fill="rgb(41,174,226)" fill-opacity="1" d=" M-113.75499725341797,-1.5950000286102295 C-113.06199645996094,-1.9880000352859497 -110.66799926757812,-2.494999885559082 -109.9020004272461,-2.2739999294281006 C-106.94200134277344,-1.4210000038146973 -99.00700378417969,1.2869999408721924 -87.20600128173828,4.0329999923706055 C-63.856998443603516,9.46500015258789 -25.371999740600586,15.04699993133545 19.6560001373291,6.711999893188477 C59.59400177001953,-0.6800000071525574 82.22799682617188,-15.270000457763672 93.70999908447266,-25.392000198364258 C100.18399810791016,-31.099000930786133 103.11199951171875,-35.38600158691406 103.59700012207031,-36.1609992980957 C103.65699768066406,-36.25600051879883 103.71700286865234,-36.34199905395508 103.78700256347656,-36.43000030517578 C104.30599975585938,-37.07699966430664 105.5260009765625,-38.29199981689453 108.28700256347656,-38.856998443603516 C113.23600006103516,-39.87099838256836 120.78600311279297,-35.744998931884766 119.7249984741211,-30.176000595092773 C119.30699920654297,-27.985000610351562 116.40699768066406,-20.2810001373291 106.90599822998047,-11.003000259399414 C95.30799865722656,0.32199999690055847 73.8740005493164,13.991000175476074 35.111000061035156,22.834999084472656 C-17.773000717163086,34.9010009765625 -63.21699905395508,30.267000198364258 -90.56800079345703,23.381000518798828 C-101.83599853515625,20.54400062561035 -110.03299713134766,17.326000213623047 -114.41500091552734,14.734999656677246 C-116.57099914550781,13.461000442504883 -118.20700073242188,12.279000282287598 -118.8270034790039,10.204000473022461 C-120.78600311279297,3.6500000953674316 -116.14399719238281,-0.2409999966621399 -113.75499725341797,-1.5950000286102295z"></path><path stroke-linecap="butt" stroke-linejoin="miter" fill-opacity="0" stroke-miterlimit="10" stroke="rgb(18,106,178)" stroke-opacity="1" stroke-width="10" d=" M-113.75499725341797,-1.5950000286102295 C-113.06199645996094,-1.9880000352859497 -110.66799926757812,-2.494999885559082 -109.9020004272461,-2.2739999294281006 C-106.94200134277344,-1.4210000038146973 -99.00700378417969,1.2869999408721924 -87.20600128173828,4.0329999923706055 C-63.856998443603516,9.46500015258789 -25.371999740600586,15.04699993133545 19.6560001373291,6.711999893188477 C59.59400177001953,-0.6800000071525574 82.22799682617188,-15.270000457763672 93.70999908447266,-25.392000198364258 C100.18399810791016,-31.099000930786133 103.11199951171875,-35.38600158691406 103.59700012207031,-36.1609992980957 C103.65699768066406,-36.25600051879883 103.71700286865234,-36.34199905395508 103.78700256347656,-36.43000030517578 C104.30599975585938,-37.07699966430664 105.5260009765625,-38.29199981689453 108.28700256347656,-38.856998443603516 C113.23600006103516,-39.87099838256836 120.78600311279297,-35.744998931884766 119.7249984741211,-30.176000595092773 C119.30699920654297,-27.985000610351562 116.40699768066406,-20.2810001373291 106.90599822998047,-11.003000259399414 C95.30799865722656,0.32199999690055847 73.8740005493164,13.991000175476074 35.111000061035156,22.834999084472656 C-17.773000717163086,34.9010009765625 -63.21699905395508,30.267000198364258 -90.56800079345703,23.381000518798828 C-101.83599853515625,20.54400062561035 -110.03299713134766,17.326000213623047 -114.41500091552734,14.734999656677246 C-116.57099914550781,13.461000442504883 -118.20700073242188,12.279000282287598 -118.8270034790039,10.204000473022461 C-120.78600311279297,3.6500000953674316 -116.14399719238281,-0.2409999966621399 -113.75499725341797,-1.5950000286102295z"></path></g></g><g style="display: block;" transform="matrix(0.9942135810852051,0,0,1.0107282400131226,211.66603088378906,105.71267700195312)" opacity="1"><g opacity="1" transform="matrix(1,0,0,1,0,0)"><g opacity="1" transform="matrix(1,0,0,1,76.63600158691406,43.922000885009766)"><path fill="rgb(234,139,101)" fill-opacity="1" d=" M-57.314998626708984,22.558000564575195 C-57.314998626708984,22.558000564575195 -49.38399887084961,23.51300048828125 -47.606998443603516,22.118000030517578 C-45.83000183105469,20.722000122070312 -43.862998962402344,11.956999778747559 -32.915000915527344,9.881999969482422 C-21.966999053955078,7.806000232696533 27.261999130249023,-8.104000091552734 36.862998962402344,-10.906999588012695 C46.4630012512207,-13.708999633789062 48.01300048828125,-18.160999298095703 47.941001892089844,-19.735000610351562 C47.869998931884766,-21.30900001525879 53.117000579833984,-29.26099967956543 53.117000579833984,-29.26099967956543 C53.117000579833984,-29.26099967956543 57.314998626708984,-17.882999420166016 52.49700164794922,-13.984000205993652 C47.67900085449219,-10.083999633789062 21.20400047302246,-2.569000005722046 5.211999893188477,4.204999923706055 C-10.781000137329102,10.979000091552734 -35.013999938964844,15.76099967956543 -36.73099899291992,18.468000411987305 C-38.448001861572266,21.174999237060547 -42.8129997253418,29.260000228881836 -46.52199935913086,28.639999389648438 C-50.23099899291992,28.020000457763672 -57.314998626708984,22.558000564575195 -57.314998626708984,22.558000564575195z"></path></g><g opacity="1" transform="matrix(1,0,0,1,76.22699737548828,47.20500183105469)"><path stroke-linecap="round" stroke-linejoin="round" fill-opacity="0" stroke="rgb(153,73,38)" stroke-opacity="1" stroke-width="10" d=" M-57.8120002746582,22.472000122070312 C-57.8120002746582,22.472000122070312 -46.5359992980957,28.790000915527344 -41.117000579833984,25.393999099731445 C-35.237998962402344,21.708999633789062 -37.08599853515625,15.746000289916992 -24.349000930786133,12.164999961853027 C-7.0370001792907715,7.296999931335449 33.77399826049805,-4.806000232696533 44.72100067138672,-9.170000076293945 C55.66899871826172,-13.534000396728516 57.8120002746582,-20.37700080871582 57.233001708984375,-22.288999557495117 C56.65299987792969,-24.201000213623047 55.262001037597656,-28.790000915527344 55.262001037597656,-28.790000915527344"></path></g><g opacity="1" transform="matrix(1,0,0,1,90.83999633789062,49.29499816894531)"><path fill="rgb(255,239,233)" fill-opacity="1" d=" M-39.77199935913086,15.741999626159668 C-39.77199935913086,15.741999626159668 -23.11199951171875,12.093000411987305 -15.038000106811523,10.41100025177002 C-6.964000225067139,8.729000091552734 28.275999069213867,-2.6010000705718994 35.694000244140625,-7.144000053405762 C43.11199951171875,-11.687999725341797 44.74599838256836,-16.23200035095215 44.74599838256836,-16.23200035095215 C44.74599838256836,-16.23200035095215 39.76100158691406,-10.220999717712402 24.459999084472656,-5.581999778747559 C9.159000396728516,-0.9430000185966492 -34.70399856567383,11.567999839782715 -37.005001068115234,12.987000465393066 C-39.30699920654297,14.406000137329102 -44.744998931884766,16.231000900268555 -44.744998931884766,16.231000900268555 C-44.744998931884766,16.231000900268555 -39.77199935913086,15.741999626159668 -39.77199935913086,15.741999626159668z"></path></g></g></g><g style="display: block;" transform="matrix(1.0055476427078247,0,0,1.0222505331039429,165.08151245117188,5.6652069091796875)" opacity="1"><g opacity="1" transform="matrix(1,0,0,1,141.95899963378906,62.91299819946289)"><path fill="rgb(226,143,106)" fill-opacity="1" d=" M-12.612000465393066,-28.790000915527344 C-21.70800018310547,-25.802000045776367 -28.822999954223633,-18.30299949645996 -32.29199981689453,-9.15999984741211 C-34.72100067138672,-2.76200008392334 -35.4119987487793,4.8460001945495605 -30.474000930786133,11.954999923706055 C-18.854999542236328,28.683000564575195 2.8489999771118164,34.98699951171875 22.586999893188477,26.847999572753906 C42.32600021362305,18.708999633789062 31.94300079345703,-0.7409999966621399 26.81800079345703,-8.789999961853027 C21.69300079345703,-16.839000701904297 12.63599967956543,-28.549999237060547 0.4050000011920929,-30.148000717163086 C-2.497999906539917,-30.527000427246094 -6.886000156402588,-30.67099952697754 -12.612000465393066,-28.790000915527344z"></path></g><g opacity="1" transform="matrix(1,0,0,1,51.29199981689453,100.06300354003906)"><path fill="rgb(226,143,106)" fill-opacity="1" d=" M-20.360000610351562,-23.89299964904785 C-20.360000610351562,-23.89299964904785 -39.10200119018555,-13.383999824523926 -30.32699966430664,7.973999977111816 C-21.551000595092773,29.33099937438965 -16.259000778198242,38.83000183105469 0.09200000017881393,36.768001556396484 C10.769000053405762,35.42100143432617 15.201000213623047,31.378999710083008 22.406999588012695,23.1200008392334 C29.61400032043457,14.862000465393066 39.10300064086914,-4.224999904632568 38.05699920654297,-13.420999526977539 C37.01100158691406,-22.617000579833984 23.847000122070312,-38.83000183105469 6.739999771118164,-35.70800018310547 C-10.368000030517578,-32.58599853515625 -20.360000610351562,-23.89299964904785 -20.360000610351562,-23.89299964904785z"></path></g><g opacity="1" transform="matrix(1,0,0,1,136.46299743652344,27.819000244140625)"><path stroke-linecap="round" stroke-linejoin="round" fill-opacity="0" stroke="rgb(142,72,41)" stroke-opacity="1" stroke-width="6.748" d=" M-21.527999877929688,-4.889999866485596 C-21.527999877929688,-4.889999866485596 -7.145999908447266,-10.949000358581543 3.2300000190734863,-6.579999923706055 C13.604999542236328,-2.2100000381469727 21.527999877929688,10.949999809265137 21.527999877929688,10.949999809265137"></path></g><g opacity="1" transform="matrix(1,0,0,1,39.49700164794922,72.32599639892578)"><path stroke-linecap="round" stroke-linejoin="round" fill-opacity="0" stroke="rgb(142,72,41)" stroke-opacity="1" stroke-width="6.748" d=" M19.025999069213867,-18.757999420166016 C19.025999069213867,-18.757999420166016 -5.247000217437744,-12.814000129699707 -12.13700008392334,-3.565999984741211 C-19.025999069213867,5.681000232696533 -14.64799976348877,18.757999420166016 -14.64799976348877,18.757999420166016"></path></g><g opacity="1" transform="matrix(1,0,0,1,146.531005859375,59.33599853515625)"><path fill="rgb(179,197,242)" fill-opacity="1" d=" M-15.517000198364258,-29.356000900268555 C-24.415000915527344,-26.476999282836914 -31.39900016784668,-19.320999145507812 -34.82899856567383,-10.619000434875488 C-37.229000091552734,-4.53000020980835 -37.939998626708984,2.7009999752044678 -33.14699935913086,9.434000015258789 C-21.871000289916992,25.274999618530273 -0.6970000267028809,31.167999267578125 18.621000289916992,23.347999572753906 C37.93899917602539,15.527999877929688 27.884000778198242,-2.9040000438690186 22.913000106811523,-10.529000282287598 C17.941999435424805,-18.15399932861328 9.145000457763672,-29.23900032043457 -2.7960000038146973,-30.702999114990234 C-5.630000114440918,-31.051000595092773 -9.914999961853027,-31.167999267578125 -15.517000198364258,-29.356000900268555z"></path></g><g opacity="1" transform="matrix(1,0,0,1,146.531005859375,59.33599853515625)"><path stroke-linecap="round" stroke-linejoin="round" fill-opacity="0" stroke="rgb(76,79,114)" stroke-opacity="1" stroke-width="8" d=" M-15.517000198364258,-29.356000900268555 C-24.415000915527344,-26.476999282836914 -31.39900016784668,-19.320999145507812 -34.82899856567383,-10.619000434875488 C-37.229000091552734,-4.53000020980835 -37.939998626708984,2.7009999752044678 -33.14699935913086,9.434000015258789 C-21.871000289916992,25.274999618530273 -0.6970000267028809,31.167999267578125 18.621000289916992,23.347999572753906 C37.93899917602539,15.527999877929688 27.884000778198242,-2.9040000438690186 22.913000106811523,-10.529000282287598 C17.941999435424805,-18.15399932861328 9.145000457763672,-29.23900032043457 -2.7960000038146973,-30.702999114990234 C-5.630000114440918,-31.051000595092773 -9.914999961853027,-31.167999267578125 -15.517000198364258,-29.356000900268555z"></path></g><g opacity="1" transform="matrix(1,0,0,1,146.35000610351562,56.987998962402344)"><path fill="rgb(255,255,255)" fill-opacity="1" d=" M-11.854000091552734,-22.093000411987305 C-18.724000930786133,-19.898000717163086 -24.1299991607666,-14.484000205993652 -26.799999237060547,-7.916999816894531 C-28.667999267578125,-3.321000099182129 -29.23699951171875,2.130000114440918 -25.56100082397461,7.190000057220459 C-16.910999298095703,19.094999313354492 -0.6000000238418579,23.475000381469727 14.317999839782715,17.525999069213867 C29.23699951171875,11.57699966430664 21.535999298095703,-2.2839999198913574 17.725000381469727,-8.015999794006348 C13.913999557495117,-13.748000144958496 7.163000106811523,-22.076000213623047 -2.0399999618530273,-23.145000457763672 C-4.224999904632568,-23.39900016784668 -7.5289998054504395,-23.475000381469727 -11.854000091552734,-22.093000411987305z"></path></g><g opacity="1" transform="matrix(1,0,0,1,53.30400085449219,93.26599884033203)"><path fill="rgb(179,197,242)" fill-opacity="1" d=" M-19.040000915527344,-23.163999557495117 C-19.040000915527344,-23.163999557495117 -36.433998107910156,-13.133999824523926 -28.14699935913086,7.502999782562256 C-19.860000610351562,28.138999938964844 -14.880000114440918,37.32400131225586 0.33399999141693115,35.42399978637695 C10.267999649047852,34.183998107910156 14.371000289916992,30.31100082397461 21.03700065612793,22.388999938964844 C27.70199966430664,14.467000007629395 36.433998107910156,-3.880000114440918 35.40999984741211,-12.75100040435791 C34.38600158691406,-21.621000289916992 22.041000366210938,-37.32500076293945 6.129000186920166,-34.40800094604492 C-9.782999992370605,-31.490999221801758 -19.040000915527344,-23.163999557495117 -19.040000915527344,-23.163999557495117z"></path></g><g opacity="1" transform="matrix(1,0,0,1,53.30400085449219,93.26599884033203)"><path stroke-linecap="round" stroke-linejoin="round" fill-opacity="0" stroke="rgb(76,79,114)" stroke-opacity="1" stroke-width="8" d=" M-19.040000915527344,-23.163999557495117 C-19.040000915527344,-23.163999557495117 -36.433998107910156,-13.133999824523926 -28.14699935913086,7.502999782562256 C-19.860000610351562,28.138999938964844 -14.880000114440918,37.32400131225586 0.33399999141693115,35.42399978637695 C10.267999649047852,34.183998107910156 14.371000289916992,30.31100082397461 21.03700065612793,22.388999938964844 C27.70199966430664,14.467000007629395 36.433998107910156,-3.880000114440918 35.40999984741211,-12.75100040435791 C34.38600158691406,-21.621000289916992 22.041000366210938,-37.32500076293945 6.129000186920166,-34.40800094604492 C-9.782999992370605,-31.490999221801758 -19.040000915527344,-23.163999557495117 -19.040000915527344,-23.163999557495117z"></path></g><g opacity="1" transform="matrix(1,0,0,1,56.444000244140625,91.4219970703125)"><path fill="rgb(255,255,255)" fill-opacity="1" d=" M-15.28499984741211,-18.069000244140625 C-15.28499984741211,-18.069000244140625 -29.334999084472656,-10.147000312805176 -22.733999252319336,5.993000030517578 C-16.132999420166016,22.132999420166016 -12.154000282287598,29.31399917602539 0.10999999940395355,27.770000457763672 C8.116999626159668,26.761999130249023 11.437000274658203,23.711000442504883 16.836000442504883,17.479999542236328 C22.233999252319336,11.248000144958496 29.334999084472656,-3.1600000858306885 28.542999267578125,-10.107000350952148 C27.75,-17.054000854492188 17.86199951171875,-29.312999725341797 5.0320000648498535,-26.969999313354492 C-7.796999931335449,-24.62700080871582 -15.28499984741211,-18.069000244140625 -15.28499984741211,-18.069000244140625z"></path></g><g opacity="1" transform="matrix(1,0,0,1,0,0)"><g opacity="1" transform="matrix(1,0,0,1,54.91299819946289,93.13999938964844)"><path fill="rgb(37,33,48)" fill-opacity="1" d=" M11.015000343322754,-1.7209999561309814 C11.991000175476074,4.183000087738037 7.85099983215332,9.73900032043457 1.7680000066757202,10.6899995803833 C-4.315000057220459,11.640000343322754 -10.038000106811523,7.625 -11.013999938964844,1.7209999561309814 C-11.991000175476074,-4.182000160217285 -7.85099983215332,-9.73900032043457 -1.7680000066757202,-10.689000129699707 C4.315000057220459,-11.640000343322754 10.038999557495117,-7.625 11.015000343322754,-1.7209999561309814z"></path></g><g opacity="1" transform="matrix(1,0,0,1,62.733001708984375,88.88600158691406)"><path fill="rgb(255,255,255)" fill-opacity="1" d=" M4.763999938964844,-2.440000057220459 C5.818999767303467,-1.031999945640564 4.540999889373779,1.2020000219345093 1.909999966621399,2.5490000247955322 C-0.7210000157356262,3.8959999084472656 -3.7090001106262207,3.8469998836517334 -4.763999938964844,2.438999891281128 C-5.818999767303467,1.031000018119812 -4.541999816894531,-1.2029999494552612 -1.9110000133514404,-2.549999952316284 C0.7200000286102295,-3.8970000743865967 3.7090001106262207,-3.8480000495910645 4.763999938964844,-2.440000057220459z"></path></g><g opacity="1" transform="matrix(1,0,0,1,51.88800048828125,97.64900207519531)"><path fill="rgb(74,88,160)" fill-opacity="1" d=" M-5.458000183105469,-0.2680000066757202 C-7.73199987411499,-4.020999908447266 -4.164000034332275,-4.677999973297119 -2.191999912261963,-4.4770002365112305 C1.6699999570846558,-4.081999778747559 6.979000091552734,-3.26200008392334 7.270999908447266,-1.7230000495910645 C7.73199987411499,0.7099999785423279 5.2829999923706055,4.677999973297119 0.3700000047683716,4.551000118255615 C-2.1429998874664307,4.486000061035156 -4.230999946594238,1.7569999694824219 -5.458000183105469,-0.2680000066757202z"></path></g></g><g opacity="1" transform="matrix(1,0,0,1,0,0)"><g opacity="1" transform="matrix(1,0,0,1,142.83999633789062,58.066001892089844)"><path fill="rgb(37,33,48)" fill-opacity="1" d=" M10.548999786376953,-1.6490000486373901 C11.484000205993652,4.005000114440918 7.51800012588501,9.32800006866455 1.6929999589920044,10.23799991607666 C-4.132999897003174,11.14799976348877 -9.61400032043457,7.302999973297119 -10.548999786376953,1.6490000486373901 C-11.484000205993652,-4.005000114440918 -7.519000053405762,-9.32800006866455 -1.6929999589920044,-10.23799991607666 C4.131999969482422,-11.14799976348877 9.61400032043457,-7.302999973297119 10.548999786376953,-1.6490000486373901z"></path></g><g opacity="1" transform="matrix(1,0,0,1,151.40499877929688,53.83100128173828)"><path fill="rgb(255,255,255)" fill-opacity="1" d=" M4.763999938964844,-2.440000057220459 C5.818999767303467,-1.031999945640564 4.540999889373779,1.2020000219345093 1.909999966621399,2.5490000247955322 C-0.7210000157356262,3.8959999084472656 -3.7090001106262207,3.8469998836517334 -4.763999938964844,2.438999891281128 C-5.818999767303467,1.031000018119812 -4.541999816894531,-1.2029999494552612 -1.9110000133514404,-2.549999952316284 C0.7200000286102295,-3.8970000743865967 3.7090001106262207,-3.8480000495910645 4.763999938964844,-2.440000057220459z"></path></g><g opacity="1" transform="matrix(1,0,0,1,140.51199340820312,61.54499816894531)"><path fill="rgb(74,88,160)" fill-opacity="1" d=" M-5.458000183105469,-0.2680000066757202 C-7.73199987411499,-4.020999908447266 -4.164000034332275,-4.677999973297119 -2.190999984741211,-4.4770002365112305 C1.6699999570846558,-4.081999778747559 6.979000091552734,-3.26200008392334 7.270999908447266,-1.7230000495910645 C7.73199987411499,0.7099999785423279 5.2829999923706055,4.677999973297119 0.3700000047683716,4.551000118255615 C-2.1429998874664307,4.486000061035156 -4.230999946594238,1.7569999694824219 -5.458000183105469,-0.2680000066757202z"></path></g></g><g opacity="0" transform="matrix(1,0,0,1,0,0)"><path fill="rgb(249,216,183)" fill-opacity="1" d=" M63.3380012512207,59.53099822998047 C55.902000427246094,60.51900100708008 35.57699966430664,65.46099853515625 25.16699981689453,80.78099822998047 C18.444000244140625,90.67500305175781 28.152999877929688,109.4229965209961 28.152999877929688,109.4229965209961 C28.152999877929688,109.4229965209961 14.831999778747559,79.2030029296875 41.999000549316406,68.00399780273438 C55.900001525878906,62.27299880981445 65.8949966430664,58.63800048828125 79.29299926757812,65.08399963378906 C91.05400085449219,70.74199676513672 89.61100006103516,96.59500122070312 90.60199737548828,88.19400024414062 C92.57499694824219,71.47799682617188 78.37000274658203,57.53300094604492 63.3380012512207,59.53099822998047z"></path><path stroke-linecap="round" stroke-linejoin="round" fill-opacity="0" stroke="rgb(183,99,57)" stroke-opacity="1" stroke-width="3" d=" M63.3380012512207,59.53099822998047 C55.902000427246094,60.51900100708008 35.57699966430664,65.46099853515625 25.16699981689453,80.78099822998047 C18.444000244140625,90.67500305175781 28.152999877929688,109.4229965209961 28.152999877929688,109.4229965209961 C28.152999877929688,109.4229965209961 14.831999778747559,79.2030029296875 41.999000549316406,68.00399780273438 C55.900001525878906,62.27299880981445 65.8949966430664,58.63800048828125 79.29299926757812,65.08399963378906 C91.05400085449219,70.74199676513672 89.61100006103516,96.59500122070312 90.60199737548828,88.19400024414062 C92.57499694824219,71.47799682617188 78.37000274658203,57.53300094604492 63.3380012512207,59.53099822998047z"></path></g><g opacity="0" transform="matrix(1,0,0,1,0,0)"><path fill="rgb(249,216,183)" fill-opacity="1" d=" M151.22000122070312,30.295000076293945 C139.3419952392578,24.452999114990234 124.677001953125,30.295000076293945 117.52999877929688,38.83100128173828 C110.38300323486328,47.367000579833984 109.36199951171875,55.652000427246094 109.36199951171875,55.652000427246094 C109.36199951171875,55.652000427246094 109.13400268554688,68.58899688720703 119.13800048828125,75.58399963378906 C123.01799774169922,78.2969970703125 95.60700225830078,53.51599884033203 128.1320037841797,33.76100158691406 C139.0570068359375,27.125 156.06399536132812,31.51099967956543 161.54600524902344,37.762001037597656 C166.6199951171875,43.54800033569336 169.15199279785156,52.55699920654297 167.99400329589844,46.290000915527344 C165.95199584960938,35.24300003051758 158.36700439453125,33.810001373291016 151.22000122070312,30.295000076293945z"></path><path stroke-linecap="round" stroke-linejoin="miter" fill-opacity="0" stroke-miterlimit="4" stroke="rgb(183,99,57)" stroke-opacity="1" stroke-width="3" d=" M151.22000122070312,30.295000076293945 C139.3419952392578,24.452999114990234 124.677001953125,30.295000076293945 117.52999877929688,38.83100128173828 C110.38300323486328,47.367000579833984 109.36199951171875,55.652000427246094 109.36199951171875,55.652000427246094 C109.36199951171875,55.652000427246094 109.13400268554688,68.58899688720703 119.13800048828125,75.58399963378906 C123.01799774169922,78.2969970703125 95.60700225830078,53.51599884033203 128.1320037841797,33.76100158691406 C139.0570068359375,27.125 156.06399536132812,31.51099967956543 161.54600524902344,37.762001037597656 C166.6199951171875,43.54800033569336 169.15199279785156,52.55699920654297 167.99400329589844,46.290000915527344 C165.95199584960938,35.24300003051758 158.36700439453125,33.810001373291016 151.22000122070312,30.295000076293945z"></path></g></g></g></svg>