<svg xmlns="http://www.w3.org/2000/svg" xmlns:xlink="http://www.w3.org/1999/xlink" viewBox="0 0 512 512" width="512" height="512" style="width: 100%; height: 100%; transform: translate3d(0,0,0); content-visibility: visible;" preserveAspectRatio="xMidYMid meet"><defs><clipPath id="__lottie_element_2"><rect width="512" height="512" x="0" y="0"></rect></clipPath><clipPath id="__lottie_element_4"><path d="M0,0 L512,0 L512,512 L0,512z"></path></clipPath><radialGradient id="__lottie_element_21" spreadMethod="pad" gradientUnits="userSpaceOnUse" cx="-37.9379997253418" cy="-193.72999572753906" r="286.31564057966443" fx="-37.9379997253418" fy="-193.72999572753906"><stop offset="16%" stop-color="rgb(255,218,191)"></stop><stop offset="88%" stop-color="rgb(251,202,173)"></stop><stop offset="100%" stop-color="rgb(248,186,155)"></stop></radialGradient></defs><g clip-path="url(#__lottie_element_2)"><g clip-path="url(#__lottie_element_4)" style="display: block;" transform="matrix(1,0,0,1,0,0)" opacity="1"><g style="display: block;" transform="matrix(0.9898784160614014,0,0,0.9898784160614014,12.157883644104004,-26.290491104125977)" opacity="1"><g opacity="1" transform="matrix(1,0,0,1,240.52499389648438,243.46600341796875)"><path fill="rgb(244,156,118)" fill-opacity="1" d=" M-190.45199584960938,61.56700134277344 C-203.4429931640625,8.803000450134277 -207.42999267578125,-64.12000274658203 -151.26100158691406,-125.18900299072266 C-72.91300201416016,-210.37100219726562 58.0359992980957,-205.92100524902344 132.73300170898438,-146.72500610351562 C207.4290008544922,-87.52899932861328 203.93299865722656,31.601999282836914 191.2449951171875,70.0479965209961 C178.55599975585938,108.49299621582031 138.27999877929688,182.177001953125 14.527000427246094,196.1750030517578 C-110.97200012207031,210.37100219726562 -173.7899932861328,129.24099731445312 -190.45199584960938,61.56700134277344z"></path><path stroke-linecap="butt" stroke-linejoin="miter" fill-opacity="0" stroke-miterlimit="10" stroke="rgb(181,95,48)" stroke-opacity="1" stroke-width="13.238" d=" M-190.45199584960938,61.56700134277344 C-203.4429931640625,8.803000450134277 -207.42999267578125,-64.12000274658203 -151.26100158691406,-125.18900299072266 C-72.91300201416016,-210.37100219726562 58.0359992980957,-205.92100524902344 132.73300170898438,-146.72500610351562 C207.4290008544922,-87.52899932861328 203.93299865722656,31.601999282836914 191.2449951171875,70.0479965209961 C178.55599975585938,108.49299621582031 138.27999877929688,182.177001953125 14.527000427246094,196.1750030517578 C-110.97200012207031,210.37100219726562 -173.7899932861328,129.24099731445312 -190.45199584960938,61.56700134277344z"></path></g><g opacity="1" transform="matrix(1,0,0,1,242.3719940185547,222.2949981689453)"><path fill="url(#__lottie_element_21)" fill-opacity="1" d=" M-160.76600646972656,62.60599899291992 C-172.08399963378906,16.639999389648438 -180.70599365234375,-51.56100082397461 -131.7729949951172,-104.76300048828125 C-63.51900100708008,-178.97000122070312 50.558998107910156,-175.093994140625 115.63200378417969,-123.52400207519531 C180.70599365234375,-71.95500183105469 179.33799743652344,19.576000213623047 164.4429931640625,65.91600036621094 C153.6510009765625,99.49299621582031 130.74899291992188,153.85000610351562 22.93899917602539,166.04400634765625 C-86.39099884033203,178.41099548339844 -146.25,121.56099700927734 -160.76600646972656,62.60599899291992z"></path></g></g><g style="display: block;" transform="matrix(-1.0800000429153442,0,0,1,529.64794921875,-2.449005126953125)" opacity="1"><g opacity="1" transform="matrix(1,0,0,1,0,0)"><g opacity="1" transform="matrix(1,0,0,1,302.7049865722656,342.4440002441406)"><path fill="rgb(149,247,249)" fill-opacity="1" d=" M26.631999969482422,0 C26.631999969482422,14.708000183105469 14.708000183105469,26.631999969482422 -0.0010000000474974513,26.631999969482422 C-14.708999633789062,26.631999969482422 -26.631999969482422,14.708000183105469 -26.631999969482422,0 C-26.631999969482422,-14.708000183105469 -14.708999633789062,-26.631999969482422 -0.0010000000474974513,-26.631999969482422 C14.708000183105469,-26.631999969482422 26.631999969482422,-14.708000183105469 26.631999969482422,0z"></path><path stroke-linecap="round" stroke-linejoin="round" fill-opacity="0" stroke="rgb(20,204,247)" stroke-opacity="1" stroke-width="13.162" d=" M26.631999969482422,0 C26.631999969482422,14.708000183105469 14.708000183105469,26.631999969482422 -0.0010000000474974513,26.631999969482422 C-14.708999633789062,26.631999969482422 -26.631999969482422,14.708000183105469 -26.631999969482422,0 C-26.631999969482422,-14.708000183105469 -14.708999633789062,-26.631999969482422 -0.0010000000474974513,-26.631999969482422 C14.708000183105469,-26.631999969482422 26.631999969482422,-14.708000183105469 26.631999969482422,0z"></path></g><g opacity="1" transform="matrix(1,0,0,1,0,0)"><g opacity="1" transform="matrix(1,0,0,1,51.5260009765625,309.3529968261719)"><path fill="rgb(149,247,249)" fill-opacity="1" d=" M18.621000289916992,0 C18.621000289916992,10.284000396728516 10.284000396728516,18.621000289916992 0,18.621000289916992 C-10.284000396728516,18.621000289916992 -18.621000289916992,10.284000396728516 -18.621000289916992,0 C-18.621000289916992,-10.284000396728516 -10.284000396728516,-18.621000289916992 0,-18.621000289916992 C10.284000396728516,-18.621000289916992 18.621000289916992,-10.284000396728516 18.621000289916992,0z"></path><path stroke-linecap="round" stroke-linejoin="round" fill-opacity="0" stroke="rgb(10,173,232)" stroke-opacity="1" stroke-width="13.162" d=" M18.621000289916992,0 C18.621000289916992,10.284000396728516 10.284000396728516,18.621000289916992 0,18.621000289916992 C-10.284000396728516,18.621000289916992 -18.621000289916992,10.284000396728516 -18.621000289916992,0 C-18.621000289916992,-10.284000396728516 -10.284000396728516,-18.621000289916992 0,-18.621000289916992 C10.284000396728516,-18.621000289916992 18.621000289916992,-10.284000396728516 18.621000289916992,0z"></path></g><g opacity="1" transform="matrix(1,0,0,1,53.981998443603516,306.0719909667969)"><path fill="rgb(255,255,255)" fill-opacity="1" d=" M5.747000217437744,-4.48199987411499 C8.633000373840332,-0.781000018119812 8.39900016784668,4.22599983215332 5.223999977111816,6.701000213623047 C2.049999952316284,9.175999641418457 -2.861999988555908,8.182999610900879 -5.748000144958496,4.48199987411499 C-8.633000373840332,0.7820000052452087 -8.39900016784668,-4.22599983215332 -5.224999904632568,-6.701000213623047 C-2.0510001182556152,-9.175999641418457 2.8610000610351562,-8.182999610900879 5.747000217437744,-4.48199987411499z"></path></g></g><g opacity="1" transform="matrix(1,0,0,1,0,0)"><g opacity="1" transform="matrix(1,0,0,1,440.9620056152344,321.3240051269531)"><path fill="rgb(149,247,249)" fill-opacity="1" d=" M29.051000595092773,0 C29.051000595092773,16.04400062561035 16.04400062561035,29.049999237060547 0,29.049999237060547 C-16.045000076293945,29.049999237060547 -29.051000595092773,16.04400062561035 -29.051000595092773,0 C-29.051000595092773,-16.04400062561035 -16.045000076293945,-29.049999237060547 0,-29.049999237060547 C16.04400062561035,-29.049999237060547 29.051000595092773,-16.04400062561035 29.051000595092773,0z"></path><path stroke-linecap="round" stroke-linejoin="round" fill-opacity="0" stroke="rgb(9,172,231)" stroke-opacity="1" stroke-width="13.162" d=" M29.051000595092773,0 C29.051000595092773,16.04400062561035 16.04400062561035,29.049999237060547 0,29.049999237060547 C-16.045000076293945,29.049999237060547 -29.051000595092773,16.04400062561035 -29.051000595092773,0 C-29.051000595092773,-16.04400062561035 -16.045000076293945,-29.049999237060547 0,-29.049999237060547 C16.04400062561035,-29.049999237060547 29.051000595092773,-16.04400062561035 29.051000595092773,0z"></path></g><g opacity="1" transform="matrix(1,0,0,1,450.40899658203125,311.67999267578125)"><path fill="rgb(255,255,255)" fill-opacity="1" d=" M7.079999923706055,-5.519999980926514 C10.633999824523926,-0.9620000123977661 10.345999717712402,5.204999923706055 6.435999870300293,8.253000259399414 C2.5260000228881836,11.302000045776367 -3.5250000953674316,10.079000473022461 -7.078999996185303,5.520999908447266 C-10.633000373840332,0.9620000123977661 -10.345000267028809,-5.203999996185303 -6.434999942779541,-8.253000259399414 C-2.5250000953674316,-11.302000045776367 3.5260000228881836,-10.07800006866455 7.079999923706055,-5.519999980926514z"></path></g></g></g></g><g style="display: block;" transform="matrix(0.9898784160614014,0,0,0.9898784160614014,146.5883026123047,147.84197998046875)" opacity="1"><g opacity="1" transform="matrix(1.1257200241088867,0,0,1.0893100500106812,-15.605987548828125,-18.789268493652344)"><g opacity="1" transform="matrix(1,0,0,1,139.9550018310547,87.81900024414062)"><path fill="rgb(61,17,10)" fill-opacity="1" d=" M-74.4000015258789,19.18400001525879 C-74.4000015258789,19.18400001525879 -48.39500045776367,40.6879997253418 0.09300000220537186,37.26300048828125 C48.58100128173828,33.83700180053711 59.722999572753906,15.336999893188477 65.2509994506836,4.3460001945495605 C70.77899932861328,-6.645999908447266 77.37000274658203,-6.394000053405762 77.37000274658203,-6.394000053405762 C77.37000274658203,-6.394000053405762 52.90700149536133,-10.942999839782715 34.90599822998047,-26.72599983215332 C27.00200080871582,-33.65599822998047 -6.500999927520752,-21.042999267578125 -17.4060001373291,-13.625 C-28.309999465942383,-6.206999778747559 -37.834999084472656,4.184000015258789 -51.07500076293945,10.222000122070312 C-64.31400299072266,16.260000228881836 -74.4000015258789,19.18400001525879 -74.4000015258789,19.18400001525879z"></path></g><g opacity="1" transform="matrix(1,0,0,1,53.659000396728516,91.2030029296875)"><path stroke-linecap="round" stroke-linejoin="round" fill-opacity="0" stroke="rgb(198,106,78)" stroke-opacity="1" stroke-width="14.3" d=" M15.256999969482422,-21.64299964904785 C12.336999893188477,-19.090999603271484 6.146999835968018,-9.817000389099121 -1.5190000534057617,-4.494999885559082 C-12.21500015258789,2.930000066757202 -6.067999839782715,12.550000190734863 -3.2829999923706055,21.024999618530273 C-0.49799999594688416,29.5 0.8349999785423279,33.69900131225586 0.8349999785423279,33.69900131225586"></path></g><g opacity="1" transform="matrix(1,0,0,1,210.38900756835938,57.13399887084961)"><path stroke-linecap="round" stroke-linejoin="round" fill-opacity="0" stroke="rgb(198,106,78)" stroke-opacity="1" stroke-width="12.355" d=" M0.6259999871253967,-9.317000389099121 C0.6259999871253967,-9.317000389099121 11.187000274658203,0.46299999952316284 17.64900016784668,5.050000190734863 C22.093000411987305,8.204999923706055 19.23699951171875,10.991999626159668 18.493000030517578,18.270000457763672 C17.415000915527344,28.82200050354004 17.209999084472656,32.426998138427734 17.209999084472656,32.426998138427734"></path></g><g opacity="1" transform="matrix(1,0,0,1,0,0)"><path fill="rgb(18,6,4)" fill-opacity="1" d=" M145.4040069580078,73.99400329589844 C121.13400268554688,76.47100067138672 131.8769989013672,91.84500122070312 125.68099975585938,90.54299926757812 C119.48500061035156,89.24099731445312 130.072998046875,84.42900085449219 115.16699981689453,89.552001953125 C100.26100158691406,94.67500305175781 84.05400085449219,93.76799774169922 96.03199768066406,108.17400360107422 C108.01000213623047,122.58000183105469 119.78800201416016,112.0530014038086 127.88200378417969,107.44300079345703 C135.9759979248047,102.83300018310547 155.74099731445312,97.44400024414062 155.74099731445312,97.44400024414062 C155.74099731445312,97.44400024414062 164.7259979248047,96.50800323486328 164.57400512695312,86.0530014038086 C164.35899353027344,71.26699829101562 159.49400329589844,72.55599975585938 145.4040069580078,73.99400329589844z"></path></g><g opacity="1" transform="matrix(1,0,0,1,148.1739959716797,106.97799682617188)"><path fill="rgb(188,32,84)" fill-opacity="1" d=" M-46.98099899291992,9.581000328063965 C-46.98099899291992,9.581000328063965 -23.860000610351562,-14.116999626159668 7.309000015258789,-14.392999649047852 C27.445999145507812,-14.571000099182129 44.270999908447266,-1.7039999961853027 44.270999908447266,-1.7039999961853027 C44.270999908447266,-1.7039999961853027 30.281999588012695,11.968000411987305 -2.500999927520752,14.406000137329102 C-36.611000061035156,16.94300079345703 -46.98099899291992,9.581000328063965 -46.98099899291992,9.581000328063965z"></path><path stroke-linecap="round" stroke-linejoin="round" fill-opacity="0" stroke="rgb(146,13,61)" stroke-opacity="1" stroke-width="8" d=" M-46.98099899291992,9.581000328063965 C-46.98099899291992,9.581000328063965 -23.860000610351562,-14.116999626159668 7.309000015258789,-14.392999649047852 C27.445999145507812,-14.571000099182129 44.270999908447266,-1.7039999961853027 44.270999908447266,-1.7039999961853027 C44.270999908447266,-1.7039999961853027 30.281999588012695,11.968000411987305 -2.500999927520752,14.406000137329102 C-36.611000061035156,16.94300079345703 -46.98099899291992,9.581000328063965 -46.98099899291992,9.581000328063965z"></path></g><g opacity="1" transform="matrix(1,0,0,1,0.537994384765625,7.082000732421875)"><g opacity="1" transform="matrix(1,0,0,1,133.94500732421875,73.10299682617188)"><path fill="rgb(255,255,255)" fill-opacity="1" d=" M-15.140999794006348,-1.0740000009536743 C-15.140999794006348,-1.0740000009536743 -6.309999942779541,12.904000282287598 -1.815000057220459,13.418000221252441 C1.38100004196167,13.784000396728516 7.660999774932861,10.960000038146973 11.722000122070312,8.906000137329102 C13.95300006866455,7.7779998779296875 15.140999794006348,5.25600004196167 14.616999626159668,2.7829999923706055 C14.152000427246094,0.5929999947547913 13.628000259399414,-2.053999900817871 13.35200023651123,-4.041999816894531 C12.78600025177002,-8.114999771118164 10.432000160217285,-13.784000396728516 10.432000160217285,-13.784000396728516 C10.432000160217285,-13.784000396728516 0.1599999964237213,-9.289999961853027 -2.638000011444092,-8.041999816894531 C-5.434999942779541,-6.794000148773193 -15.140999794006348,-1.0740000009536743 -15.140999794006348,-1.0740000009536743z"></path><path stroke-linecap="round" stroke-linejoin="round" fill-opacity="0" stroke="rgb(78,127,147)" stroke-opacity="1" stroke-width="5.835" d=" M-15.140999794006348,-1.0740000009536743 C-15.140999794006348,-1.0740000009536743 -6.309999942779541,12.904000282287598 -1.815000057220459,13.418000221252441 C1.38100004196167,13.784000396728516 7.660999774932861,10.960000038146973 11.722000122070312,8.906000137329102 C13.95300006866455,7.7779998779296875 15.140999794006348,5.25600004196167 14.616999626159668,2.7829999923706055 C14.152000427246094,0.5929999947547913 13.628000259399414,-2.053999900817871 13.35200023651123,-4.041999816894531 C12.78600025177002,-8.114999771118164 10.432000160217285,-13.784000396728516 10.432000160217285,-13.784000396728516 C10.432000160217285,-13.784000396728516 0.1599999964237213,-9.289999961853027 -2.638000011444092,-8.041999816894531 C-5.434999942779541,-6.794000148773193 -15.140999794006348,-1.0740000009536743 -15.140999794006348,-1.0740000009536743z"></path></g><g opacity="1" transform="matrix(1,0,0,1,202.56100463867188,75.93399810791016)"><path fill="rgb(255,255,255)" fill-opacity="1" d=" M8.170000076293945,-3.6080000400543213 C8.170000076293945,-3.6080000400543213 2.740999937057495,4.460000038146973 0.06199999898672104,5.730000019073486 C-2.617000102996826,7 -7.251999855041504,6.017000198364258 -7.710999965667725,5.307000160217285 C-8.170000076293945,4.5970001220703125 -5.388999938964844,-7 -5.388999938964844,-7 C-5.388999938964844,-7 -0.21400000154972076,-5.127999782562256 1.5889999866485596,-4.85699987411499 C3.303999900817871,-4.598999977111816 8.170000076293945,-3.6080000400543213 8.170000076293945,-3.6080000400543213z"></path><path stroke-linecap="round" stroke-linejoin="round" fill-opacity="0" stroke="rgb(78,127,147)" stroke-opacity="1" stroke-width="5.835" d=" M8.170000076293945,-3.6080000400543213 C8.170000076293945,-3.6080000400543213 2.740999937057495,4.460000038146973 0.06199999898672104,5.730000019073486 C-2.617000102996826,7 -7.251999855041504,6.017000198364258 -7.710999965667725,5.307000160217285 C-8.170000076293945,4.5970001220703125 -5.388999938964844,-7 -5.388999938964844,-7 C-5.388999938964844,-7 -0.21400000154972076,-5.127999782562256 1.5889999866485596,-4.85699987411499 C3.303999900817871,-4.598999977111816 8.170000076293945,-3.6080000400543213 8.170000076293945,-3.6080000400543213z"></path></g><g opacity="1" transform="matrix(1,0,0,1,112.79299926757812,85.76499938964844)"><path fill="rgb(255,255,255)" fill-opacity="1" d=" M-11.795999526977539,-0.5950000286102295 C-11.795999526977539,-0.5950000286102295 -6.355000019073486,8.032999992370605 -3.196000099182129,10.133000373840332 C-0.5080000162124634,11.918999671936035 0.9049999713897705,11.456999778747559 3.871000051498413,10.25 C5.6570000648498535,9.52299976348877 8.651000022888184,7.177999973297119 10.015999794006348,6.355000019073486 C11.795999526977539,5.2820000648498535 11.758000373840332,3.062999963760376 10.704999923706055,1.253999948501587 C10.704999923706055,1.253999948501587 3.8919999599456787,-11.918000221252441 3.8919999599456787,-11.918000221252441 C3.8919999599456787,-11.918000221252441 -2.2320001125335693,-8.024999618530273 -4.23199987411499,-6.619999885559082 C-6.074999809265137,-5.323999881744385 -11.795999526977539,-0.5950000286102295 -11.795999526977539,-0.5950000286102295z"></path><path stroke-linecap="round" stroke-linejoin="round" fill-opacity="0" stroke="rgb(78,127,147)" stroke-opacity="1" stroke-width="5.835" d=" M-11.795999526977539,-0.5950000286102295 C-11.795999526977539,-0.5950000286102295 -6.355000019073486,8.032999992370605 -3.196000099182129,10.133000373840332 C-0.5080000162124634,11.918999671936035 0.9049999713897705,11.456999778747559 3.871000051498413,10.25 C5.6570000648498535,9.52299976348877 8.651000022888184,7.177999973297119 10.015999794006348,6.355000019073486 C11.795999526977539,5.2820000648498535 11.758000373840332,3.062999963760376 10.704999923706055,1.253999948501587 C10.704999923706055,1.253999948501587 3.8919999599456787,-11.918000221252441 3.8919999599456787,-11.918000221252441 C3.8919999599456787,-11.918000221252441 -2.2320001125335693,-8.024999618530273 -4.23199987411499,-6.619999885559082 C-6.074999809265137,-5.323999881744385 -11.795999526977539,-0.5950000286102295 -11.795999526977539,-0.5950000286102295z"></path></g><g opacity="1" transform="matrix(1,0,0,1,91.00399780273438,98.42900085449219)"><path fill="rgb(255,255,255)" fill-opacity="1" d=" M-10.916999816894531,3.757999897003174 C-10.916999816894531,3.757999897003174 -1.6430000066757202,9.293000221252441 4.164999961853027,9.833000183105469 C12.515000343322754,10.609000205993652 7.88700008392334,-10.609000205993652 7.88700008392334,-10.609000205993652 C7.88700008392334,-10.609000205993652 -12.515000343322754,2.681999921798706 -12.515000343322754,2.681999921798706"></path><path stroke-linecap="round" stroke-linejoin="round" fill-opacity="0" stroke="rgb(78,127,147)" stroke-opacity="1" stroke-width="5.835" d=" M-10.916999816894531,3.757999897003174 C-10.916999816894531,3.757999897003174 -1.6430000066757202,9.293000221252441 4.164999961853027,9.833000183105469 C12.515000343322754,10.609000205993652 7.88700008392334,-10.609000205993652 7.88700008392334,-10.609000205993652 C7.88700008392334,-10.609000205993652 -12.515000343322754,2.681999921798706 -12.515000343322754,2.681999921798706"></path></g><g opacity="1" transform="matrix(1,0,0,1,161.4720001220703,67.6780014038086)"><path fill="rgb(255,255,255)" fill-opacity="1" d=" M13.46500015258789,-8.635000228881836 C13.46500015258789,-8.635000228881836 13.82699966430664,6.704999923706055 12.185999870300293,8.809000015258789 C10.545000076293945,10.911999702453613 -4.203000068664551,12.074000358581543 -7.130000114440918,9.246999740600586 C-10.057000160217285,6.420000076293945 -13.82699966430664,-9.39900016784668 -13.82699966430664,-9.39900016784668 C-13.82699966430664,-9.39900016784668 -1.059999942779541,-12.072999954223633 3.4030001163482666,-11.494000434875488 C10.559000015258789,-10.5649995803833 13.46500015258789,-8.635000228881836 13.46500015258789,-8.635000228881836z"></path><path stroke-linecap="round" stroke-linejoin="round" fill-opacity="0" stroke="rgb(78,127,147)" stroke-opacity="1" stroke-width="5.835" d=" M13.46500015258789,-8.635000228881836 C13.46500015258789,-8.635000228881836 13.82699966430664,6.704999923706055 12.185999870300293,8.809000015258789 C10.545000076293945,10.911999702453613 -4.203000068664551,12.074000358581543 -7.130000114440918,9.246999740600586 C-10.057000160217285,6.420000076293945 -13.82699966430664,-9.39900016784668 -13.82699966430664,-9.39900016784668 C-13.82699966430664,-9.39900016784668 -1.059999942779541,-12.072999954223633 3.4030001163482666,-11.494000434875488 C10.559000015258789,-10.5649995803833 13.46500015258789,-8.635000228881836 13.46500015258789,-8.635000228881836z"></path></g><g opacity="1" transform="matrix(1,0,0,1,186.0399932861328,70.13400268554688)"><path fill="rgb(255,255,255)" fill-opacity="1" d=" M9.039999961853027,-1.6440000534057617 C9.039999961853027,-1.6440000534057617 8.133000373840332,7.948999881744385 5.520999908447266,9.479000091552734 C2.9100000858306885,11.008999824523926 -2.119999885559082,9.557999610900879 -3.674999952316284,8.928000450134277 C-7.4019999504089355,7.419000148773193 -8.178999900817871,5.618000030517578 -8.381999969482422,4.839000225067139 C-8.585000038146973,4.060999870300293 -9.039999961853027,-11.008999824523926 -9.039999961853027,-11.008999824523926 C-9.039999961853027,-11.008999824523926 -0.8220000267028809,-8.067000389099121 1.1339999437332153,-6.7129998207092285 C3.744999885559082,-4.90500020980835 9.039999961853027,-1.6440000534057617 9.039999961853027,-1.6440000534057617z"></path><path stroke-linecap="round" stroke-linejoin="round" fill-opacity="0" stroke="rgb(78,127,147)" stroke-opacity="1" stroke-width="5.835" d=" M9.039999961853027,-1.6440000534057617 C9.039999961853027,-1.6440000534057617 8.133000373840332,7.948999881744385 5.520999908447266,9.479000091552734 C2.9100000858306885,11.008999824523926 -2.119999885559082,9.557999610900879 -3.674999952316284,8.928000450134277 C-7.4019999504089355,7.419000148773193 -8.178999900817871,5.618000030517578 -8.381999969482422,4.839000225067139 C-8.585000038146973,4.060999870300293 -9.039999961853027,-11.008999824523926 -9.039999961853027,-11.008999824523926 C-9.039999961853027,-11.008999824523926 -0.8220000267028809,-8.067000389099121 1.1339999437332153,-6.7129998207092285 C3.744999885559082,-4.90500020980835 9.039999961853027,-1.6440000534057617 9.039999961853027,-1.6440000534057617z"></path></g></g><g opacity="1" transform="matrix(1.1258200407028198,0,0,1.0486900806427002,-24.103561401367188,-15.074363708496094)"><g opacity="1" transform="matrix(1,0,0,1,181.24600219726562,105.48300170898438)"><path fill="rgb(255,255,255)" fill-opacity="1" d=" M-5.748000144958496,10.989999771118164 C-5.748000144958496,10.989999771118164 -11.583000183105469,-1.2109999656677246 -5.644999980926514,-6.10099983215332 C0.2939999997615814,-10.989999771118164 8.847000122070312,-1.6410000324249268 8.847000122070312,-1.6410000324249268 C8.847000122070312,-1.6410000324249268 11.583000183105469,2.3399999141693115 11.583000183105469,2.3399999141693115 C11.583000183105469,2.3399999141693115 3.7790000438690186,7.76200008392334 3.7790000438690186,7.76200008392334 C3.7790000438690186,7.76200008392334 -5.748000144958496,10.989999771118164 -5.748000144958496,10.989999771118164z"></path><path stroke-linecap="round" stroke-linejoin="round" fill-opacity="0" stroke="rgb(78,127,147)" stroke-opacity="1" stroke-width="5.835" d=" M-5.748000144958496,10.989999771118164 C-5.748000144958496,10.989999771118164 -11.583000183105469,-1.2109999656677246 -5.644999980926514,-6.10099983215332 C0.2939999997615814,-10.989999771118164 8.847000122070312,-1.6410000324249268 8.847000122070312,-1.6410000324249268 C8.847000122070312,-1.6410000324249268 11.583000183105469,2.3399999141693115 11.583000183105469,2.3399999141693115 C11.583000183105469,2.3399999141693115 3.7790000438690186,7.76200008392334 3.7790000438690186,7.76200008392334 C3.7790000438690186,7.76200008392334 -5.748000144958496,10.989999771118164 -5.748000144958496,10.989999771118164z"></path></g><g opacity="1" transform="matrix(1,0,0,1,163.4040069580078,111.03199768066406)"><path fill="rgb(255,255,255)" fill-opacity="1" d=" M-6.451000213623047,10.706000328063965 C-6.451000213623047,10.706000328063965 -11.319000244140625,-0.9269999861717224 -5.380000114440918,-5.816999912261963 C0.5590000152587891,-10.706000328063965 4.080999851226807,-9.527000427246094 5.086999893188477,-7.89300012588501 C6.0929999351501465,-6.258999824523926 9.112000465393066,-1.3569999933242798 9.112000465393066,-1.3569999933242798 C9.112000465393066,-1.3569999933242798 11.319000244140625,5.630000114440918 11.319000244140625,5.630000114440918 C11.319000244140625,5.630000114440918 2.372999906539917,8.942000389099121 2.372999906539917,8.942000389099121 C2.372999906539917,8.942000389099121 -6.451000213623047,10.706000328063965 -6.451000213623047,10.706000328063965z"></path><path stroke-linecap="round" stroke-linejoin="round" fill-opacity="0" stroke="rgb(78,127,147)" stroke-opacity="1" stroke-width="5.835" d=" M-6.451000213623047,10.706000328063965 C-6.451000213623047,10.706000328063965 -11.319000244140625,-0.9269999861717224 -5.380000114440918,-5.816999912261963 C0.5590000152587891,-10.706000328063965 4.080999851226807,-9.527000427246094 5.086999893188477,-7.89300012588501 C6.0929999351501465,-6.258999824523926 9.112000465393066,-1.3569999933242798 9.112000465393066,-1.3569999933242798 C9.112000465393066,-1.3569999933242798 11.319000244140625,5.630000114440918 11.319000244140625,5.630000114440918 C11.319000244140625,5.630000114440918 2.372999906539917,8.942000389099121 2.372999906539917,8.942000389099121 C2.372999906539917,8.942000389099121 -6.451000213623047,10.706000328063965 -6.451000213623047,10.706000328063965z"></path></g><g opacity="1" transform="matrix(1,0,0,1,143.19000244140625,114.00599670410156)"><path fill="rgb(255,255,255)" fill-opacity="1" d=" M-9.862000465393066,10.010000228881836 C-9.862000465393066,10.010000228881836 -11.48799991607666,-4.440999984741211 -3.756999969482422,-7.244999885559082 C3.9730000495910645,-10.04800033569336 7.127999782562256,-7.584000110626221 7.572999954223633,-5.567999839782715 C8.017999649047852,-3.5510001182556152 9.352999687194824,2.497999906539917 9.352999687194824,2.497999906539917 C9.352999687194824,2.497999906539917 11.487000465393066,7.839000225067139 11.487000465393066,7.839000225067139 C11.487000465393066,7.839000225067139 2.875999927520752,9.807999610900879 -0.1459999978542328,9.942000389099121 C-2.555000066757202,10.04800033569336 -9.862000465393066,10.010000228881836 -9.862000465393066,10.010000228881836z"></path><path stroke-linecap="round" stroke-linejoin="round" fill-opacity="0" stroke="rgb(78,127,147)" stroke-opacity="1" stroke-width="5.835" d=" M-9.862000465393066,10.010000228881836 C-9.862000465393066,10.010000228881836 -11.48799991607666,-4.440999984741211 -3.756999969482422,-7.244999885559082 C3.9730000495910645,-10.04800033569336 7.127999782562256,-7.584000110626221 7.572999954223633,-5.567999839782715 C8.017999649047852,-3.5510001182556152 9.352999687194824,2.497999906539917 9.352999687194824,2.497999906539917 C9.352999687194824,2.497999906539917 11.487000465393066,7.839000225067139 11.487000465393066,7.839000225067139 C11.487000465393066,7.839000225067139 2.875999927520752,9.807999610900879 -0.1459999978542328,9.942000389099121 C-2.555000066757202,10.04800033569336 -9.862000465393066,10.010000228881836 -9.862000465393066,10.010000228881836z"></path></g></g><g opacity="1" transform="matrix(1,0,0,1,139.84800720214844,102.75199890136719)"><path stroke-linecap="round" stroke-linejoin="round" fill-opacity="0" stroke="rgb(167,78,49)" stroke-opacity="1" stroke-width="12.355" d=" M-72.6510009765625,-1.340999960899353 C-72.6510009765625,-1.340999960899353 -38.00699996948242,25.143999099731445 24.929000854492188,13.187000274658203 C61.43299865722656,6.251999855041504 74.18099975585938,-24.85300064086914 74.18099975585938,-24.85300064086914"></path></g><g opacity="1" transform="matrix(1,0,0,1,0,0)"><path fill="rgb(238,139,103)" fill-opacity="0.65" d=" M172.29800415039062,50.3849983215332 C163.43600463867188,47.542999267578125 136.04400634765625,43.755001068115234 109.98799896240234,65.43699645996094 C100.11199951171875,73.65499877929688 91.23400115966797,80.4729995727539 82.177001953125,85.01000213623047 C62.6150016784668,94.80899810791016 47.527000427246094,94.58100128173828 47.527000427246094,94.58100128173828 C47.527000427246094,94.58100128173828 78.08899688720703,105.25 93.42400360107422,90.31099700927734 C108.18399810791016,75.93199920654297 131.39199829101562,69.20700073242188 137.34800720214844,67.06999969482422 C150.21200561523438,62.452999114990234 173.8979949951172,62.202999114990234 185.968994140625,67.072998046875 C198.0399932861328,71.94300079345703 222.78500366210938,67.0479965209961 222.78500366210938,67.0479965209961 C222.78500366210938,67.0479965209961 214.68499755859375,64.55400085449219 201.68899536132812,60.770999908447266 C191.2259979248047,57.724998474121094 188.51499938964844,55.584999084472656 172.29800415039062,50.3849983215332z"></path></g><g opacity="1" transform="matrix(1,0,0,1,132.94700622558594,75.04100036621094)"><path stroke-linecap="round" stroke-linejoin="round" fill-opacity="0" stroke="rgb(81,36,14)" stroke-opacity="1" stroke-width="12.355" d=" M-79.13099670410156,21.920000076293945 C-79.13099670410156,21.920000076293945 -60.19499969482422,31.065000534057617 -36.744998931884766,14.946000099182129 C-20.444000244140625,3.740999937057495 -0.8650000095367432,-13.01200008392334 24.42099952697754,-13.32800006866455 C45.98899841308594,-13.597999572753906 56.5629997253418,-7.328000068664551 68.12300109863281,-4.206999778747559 C82.83999633789062,-0.2329999953508377 87.51699829101562,-4.5879998207092285 87.51699829101562,-4.5879998207092285"></path></g></g></g><g style="display: block;" transform="matrix(0.9898784160614014,0,0,0.9898784160614014,93.10222625732422,22.685718536376953)" opacity="1"><g opacity="1" transform="matrix(1,0,0,1,43.52799987792969,57.07400131225586)"><path fill="rgb(108,40,16)" fill-opacity="1" d=" M-39.96799850463867,23.38599967956543 C-36.861000061035156,11.942999839782715 -26.72800064086914,-10.817999839782715 -6.6579999923706055,-21.05699920654297 C18.079999923706055,-33.676998138427734 29.597000122070312,-29.729999542236328 35.92300033569336,-24.406999588012695 C43.27799987792969,-18.2189998626709 43.025001525878906,-6.60099983215332 32.3489990234375,-5.923999786376953 C27.194000244140625,-5.5970001220703125 7.468999862670898,-1.6269999742507935 -9.994000434875488,9.043999671936035 C-17.531999588012695,13.649999618530273 -27.558000564575195,26.371000289916992 -30.06599998474121,29.361000061035156 C-32.47100067138672,32.22700119018555 -33.95899963378906,33.676998138427734 -36.790000915527344,32.7859992980957 C-43.27799987792969,30.743000030517578 -40.29199981689453,24.577999114990234 -39.96799850463867,23.38599967956543z"></path></g><g opacity="1" transform="matrix(1,0,0,1,220.33399963378906,15.861000061035156)"><path fill="rgb(108,40,16)" fill-opacity="1" d=" M-37.35300064086914,-5.434000015258789 C-27.1299991607666,-15.611000061035156 -1.6390000581741333,-15.069000244140625 11.361000061035156,-12.270999908447266 C22.1560001373291,-9.946999549865723 40.69300079345703,4.044000148773193 43.29600143432617,7.1539998054504395 C47.316001892089844,11.956000328063965 42.590999603271484,15.515000343322754 37.00600051879883,15.28499984741211 C33.255001068115234,15.130999565124512 22.12700080871582,6.047999858856201 -8.477999687194824,10.463000297546387 C-16.937999725341797,11.682999610900879 -30.527000427246094,14.8149995803833 -33.92399978637695,13.248000144958496 C-47.316001892089844,7.066999912261963 -38.53300094604492,-4.258999824523926 -37.35300064086914,-5.434000015258789z"></path></g></g><g style="display: block;" transform="matrix(0.9898784160614014,0,0,0.9898784160614014,84.2348861694336,53.40857696533203)" opacity="1"><g opacity="1" transform="matrix(1.1195175647735596,0.2171863615512848,-0.20177710056304932,1.0400882959365845,-11.550811767578125,-53.30717086791992)"><g opacity="0.7000000000000001" transform="matrix(1,0,0,1,252.41200256347656,50.749000549316406)"><path fill="rgb(229,150,115)" fill-opacity="1" d=" M-47.67399978637695,-0.04500000178813934 C-47.67399978637695,-0.04500000178813934 -36.486000061035156,-31.666000366210938 5.14300012588501,-34.72999954223633 C37.87699890136719,-37.13800048828125 57.42300033569336,-11.182000160217285 57.874000549316406,1.3630000352859497 C58.32500076293945,13.906999588012695 56.28099822998047,15.47599983215332 46.404998779296875,17.55500030517578 C36.529998779296875,19.632999420166016 12.277000427246094,20.489999771118164 -3.868000030517578,25.131000518798828 C-20.013999938964844,29.77199935913086 -31.56599998474121,37.13800048828125 -41.683998107910156,31.898000717163086 C-58.32600021362305,23.280000686645508 -47.67399978637695,-0.04500000178813934 -47.67399978637695,-0.04500000178813934z"></path></g><g opacity="0.65" transform="matrix(1,0,0,1,242.01400756835938,88.00299835205078)"><path stroke-linecap="round" stroke-linejoin="round" fill-opacity="0" stroke="rgb(198,106,78)" stroke-opacity="1" stroke-width="12.355" d=" M22.195999145507812,6.22599983215332 C22.195999145507812,6.22599983215332 4.448999881744385,9.973999977111816 -10.4399995803833,0.3059999942779541 C-21.26799964904785,-6.724999904632568 -26.545000076293945,-13.977999687194824 -26.545000076293945,-13.977999687194824"></path></g><g opacity="1" transform="matrix(1,0,0,1,256.7019958496094,51.72200012207031)"><path fill="rgb(255,255,255)" fill-opacity="1" d=" M-40.78300094604492,20.55500030517578 C-41.9010009765625,18.739999771118164 -41.30400085449219,18.017000198364258 -41.3129997253418,15.878000259399414 C-41.36899948120117,2.553999900817871 -30.05500030517578,-16.070999145507812 -0.5929999947547913,-21.316999435424805 C23.209999084472656,-25.555999755859375 41.900001525878906,-3.930999994277954 41.393001556396484,4.208000183105469 C40.8849983215332,12.347000122070312 29.690000534057617,5.730999946594238 0.41200000047683716,12.477999687194824 C-20.820999145507812,17.371000289916992 -31.81399917602539,21.21500015258789 -36.25199890136719,22.95800018310547 C-37.676998138427734,23.51799964904785 -39.29199981689453,22.97599983215332 -40.10200119018555,21.660999298095703 C-40.10200119018555,21.660999298095703 -40.78300094604492,20.55500030517578 -40.78300094604492,20.55500030517578z"></path><path stroke-linecap="round" stroke-linejoin="round" fill-opacity="0" stroke="rgb(140,59,31)" stroke-opacity="1" stroke-width="11.282" d=" M-40.78300094604492,20.55500030517578 C-41.9010009765625,18.739999771118164 -41.30400085449219,18.017000198364258 -41.3129997253418,15.878000259399414 C-41.36899948120117,2.553999900817871 -30.05500030517578,-16.070999145507812 -0.5929999947547913,-21.316999435424805 C23.209999084472656,-25.555999755859375 41.900001525878906,-3.930999994277954 41.393001556396484,4.208000183105469 C40.8849983215332,12.347000122070312 29.690000534057617,5.730999946594238 0.41200000047683716,12.477999687194824 C-20.820999145507812,17.371000289916992 -31.81399917602539,21.21500015258789 -36.25199890136719,22.95800018310547 C-37.676998138427734,23.51799964904785 -39.29199981689453,22.97599983215332 -40.10200119018555,21.660999298095703 C-40.10200119018555,21.660999298095703 -40.78300094604492,20.55500030517578 -40.78300094604492,20.55500030517578z"></path></g><g opacity="1" transform="matrix(1,0,0,1,261.4639892578125,54.0629997253418)"><path fill="rgb(11,17,35)" fill-opacity="1" d=" M-3.9619998931884766,-11.574999809265137 C-6.764999866485596,-10.937999725341797 -14.904999732971191,-8.654000282287598 -16.753999710083008,-1.625 C-19.09600067138672,7.2769999504089355 -13.420000076293945,12.336000442504883 -10.942000389099121,13.097000122070312 C-8.46399974822998,13.859000205993652 9.541999816894531,12.298999786376953 13.293999671936035,9.875 C17.045000076293945,7.451000213623047 19.09600067138672,3.2809998989105225 18.06999969482422,0.2849999964237213 C14.762999534606934,-9.369999885559082 6.09499979019165,-13.859000205993652 -3.9619998931884766,-11.574999809265137z"></path></g><g opacity="1" transform="matrix(1,0,0,1,245.41799926757812,57.74800109863281)"><path fill="rgb(255,255,255)" fill-opacity="1" d=" M7.426000118255615,-1.9819999933242798 C7.90500020980835,-0.14399999380111694 4.968999862670898,2.2339999675750732 0.8679999709129333,3.3289999961853027 C-3.2330000400543213,4.422999858856201 -6.947000026702881,3.819999933242798 -7.426000118255615,1.9819999933242798 C-7.90500020980835,0.14399999380111694 -4.968999862670898,-2.2339999675750732 -0.8679999709129333,-3.3289999961853027 C3.2330000400543213,-4.422999858856201 6.947000026702881,-3.819999933242798 7.426000118255615,-1.9819999933242798z"></path></g><g opacity="1" transform="matrix(1,0,0,1,256.7019958496094,51.72200012207031)"><path stroke-linecap="round" stroke-linejoin="round" fill-opacity="0" stroke="rgb(140,59,31)" stroke-opacity="1" stroke-width="11.282" d=" M-40.78300094604492,20.55500030517578 C-41.9010009765625,18.739999771118164 -41.30400085449219,18.017000198364258 -41.3129997253418,15.878000259399414 C-41.36899948120117,2.553999900817871 -30.05500030517578,-16.070999145507812 -0.5929999947547913,-21.316999435424805 C23.209999084472656,-25.555999755859375 41.900001525878906,-3.930999994277954 41.393001556396484,4.208000183105469 C40.8849983215332,12.347000122070312 29.690000534057617,5.730999946594238 0.41200000047683716,12.477999687194824 C-20.820999145507812,17.371000289916992 -31.81399917602539,21.21500015258789 -36.25199890136719,22.95800018310547 C-37.676998138427734,23.51799964904785 -39.29199981689453,22.97599983215332 -40.10200119018555,21.660999298095703 C-40.10200119018555,21.660999298095703 -40.78300094604492,20.55500030517578 -40.78300094604492,20.55500030517578z"></path></g></g><g opacity="1" transform="matrix(0.9988383054733276,0.04818732663989067,-0.052272647619247437,1.0835198163986206,4.7427215576171875,-11.227165222167969)"><g opacity="0.7000000000000001" transform="matrix(1,0,0,1,79.80400085449219,84.64099884033203)"><path fill="rgb(229,150,115)" fill-opacity="1" d=" M-64.01000213623047,10.861000061035156 C-64.01000213623047,10.861000061035156 -56.034000396728516,-16.36199951171875 -14.258000373840332,-31.246999740600586 C34.180999755859375,-48.50699996948242 56.43000030517578,-19.86199951171875 60.3489990234375,-8.399999618530273 C64.26699829101562,3.061000108718872 66.42400360107422,15.968999862670898 42.76100158691406,18.836999893188477 C21.073999404907227,21.465999603271484 -25.187999725341797,37.630001068115234 -38.60200119018555,43.29399871826172 C-50.94499969482422,48.50699996948242 -59.62200164794922,43.22600173950195 -63.137001037597656,32.638999938964844 C-66.42500305175781,22.733999252319336 -64.01000213623047,10.861000061035156 -64.01000213623047,10.861000061035156z"></path></g><g opacity="0.67" transform="matrix(1,0,0,1,126.03900146484375,104.05500030517578)"><path stroke-linecap="round" stroke-linejoin="round" fill-opacity="0" stroke="rgb(198,106,78)" stroke-opacity="1" stroke-width="13.008" d=" M-15.288999557495117,18.3439998626709 C-15.288999557495117,18.3439998626709 -1.434999942779541,11.333999633789062 3.5409998893737793,-0.3409999907016754 C9.027999877929688,-13.215999603271484 2.6419999599456787,-20.604000091552734 2.6419999599456787,-20.604000091552734"></path></g><g opacity="1" transform="matrix(1,0,0,1,78.4489974975586,89.31700134277344)"><path fill="rgb(255,255,255)" fill-opacity="1" d=" M-47.12900161743164,10.015000343322754 C-47.12900161743164,10.015000343322754 -40.4010009765625,-16.045000076293945 -5.396999835968018,-26.010000228881836 C25.086999893188477,-34.68899917602539 52.040000915527344,-12.901000022888184 49.97200012207031,-1.6610000133514404 C48.70199966430664,5.241000175476074 39.34299850463867,6.020999908447266 27.420000076293945,8.14900016784668 C15.496999740600586,10.277000427246094 -2.6429998874664307,14.196000099182129 -19.01300048828125,21.201000213623047 C-34.095001220703125,27.6560001373291 -38.99700164794922,31.707000732421875 -44.7859992980957,27.45199966430664 C-50.57500076293945,23.195999145507812 -47.12900161743164,10.015000343322754 -47.12900161743164,10.015000343322754z"></path><path stroke-linecap="round" stroke-linejoin="round" fill-opacity="0" stroke="rgb(140,59,31)" stroke-opacity="1" stroke-width="11.15" d=" M-47.12900161743164,10.015000343322754 C-47.12900161743164,10.015000343322754 -40.4010009765625,-16.045000076293945 -5.396999835968018,-26.010000228881836 C25.086999893188477,-34.68899917602539 52.040000915527344,-12.901000022888184 49.97200012207031,-1.6610000133514404 C48.70199966430664,5.241000175476074 39.34299850463867,6.020999908447266 27.420000076293945,8.14900016784668 C15.496999740600586,10.277000427246094 -2.6429998874664307,14.196000099182129 -19.01300048828125,21.201000213623047 C-34.095001220703125,27.6560001373291 -38.99700164794922,31.707000732421875 -44.7859992980957,27.45199966430664 C-50.57500076293945,23.195999145507812 -47.12900161743164,10.015000343322754 -47.12900161743164,10.015000343322754z"></path></g><g opacity="1" transform="matrix(1,0,0,1,85.20800018310547,91.05999755859375)"><path fill="rgb(11,17,35)" fill-opacity="1" d=" M-4.36899995803833,-12.697999954223633 C-7.291999816894531,-12.039999961853027 -15.777000427246094,-9.652999877929688 -17.617000579833984,-1.9900000095367432 C-19.947999954223633,7.714000225067139 -13.942999839782715,13.324000358581543 -11.34000015258789,14.190999984741211 C-8.73799991607666,15.057999610900879 10.076000213623047,13.598999977111816 13.967000007629395,10.99899959564209 C17.858999252319336,8.39900016784668 19.948999404907227,3.867000102996826 18.834999084472656,0.5759999752044678 C15.246999740600586,-10.029000282287598 6.120999813079834,-15.059000015258789 -4.36899995803833,-12.697999954223633z"></path></g><g opacity="1" transform="matrix(1,0,0,1,68.4020004272461,94.88700103759766)"><path fill="rgb(255,255,255)" fill-opacity="1" d=" M7.742000102996826,-2.065999984741211 C8.267999649047852,-0.04899999871850014 5.229000091552734,2.51200008392334 0.953000009059906,3.6530001163482666 C-3.322000026702881,4.794000148773193 -7.216000080108643,4.084000110626221 -7.742000102996826,2.065999984741211 C-8.267999649047852,0.04899999871850014 -5.2270002365112305,-2.510999917984009 -0.9520000219345093,-3.6519999504089355 C3.322999954223633,-4.794000148773193 7.216000080108643,-4.083000183105469 7.742000102996826,-2.065999984741211z"></path></g><g opacity="1" transform="matrix(1,0,0,1,78.4489974975586,89.31700134277344)"><path stroke-linecap="round" stroke-linejoin="round" fill-opacity="0" stroke="rgb(140,59,31)" stroke-opacity="1" stroke-width="11.15" d=" M-47.12900161743164,10.015000343322754 C-47.12900161743164,10.015000343322754 -40.4010009765625,-16.045000076293945 -5.396999835968018,-26.010000228881836 C25.086999893188477,-34.68899917602539 52.040000915527344,-12.901000022888184 49.97200012207031,-1.6610000133514404 C48.70199966430664,5.241000175476074 39.34299850463867,6.020999908447266 27.420000076293945,8.14900016784668 C15.496999740600586,10.277000427246094 -2.6429998874664307,14.196000099182129 -19.01300048828125,21.201000213623047 C-34.095001220703125,27.6560001373291 -38.99700164794922,31.707000732421875 -44.7859992980957,27.45199966430664 C-50.57500076293945,23.195999145507812 -47.12900161743164,10.015000343322754 -47.12900161743164,10.015000343322754z"></path></g></g><g opacity="0.59" transform="matrix(1,0,0,1,55.44499969482422,146.88499450683594)"><path stroke-linecap="round" stroke-linejoin="round" fill-opacity="0" stroke="rgb(198,106,78)" stroke-opacity="1" stroke-width="13.008" d=" M-9.718999862670898,-1.0449999570846558 C-9.718999862670898,-1.0449999570846558 -4.816999912261963,0.8109999895095825 0.6729999780654907,0.9279999732971191 C6.1620001792907715,1.0449999570846558 9.718999862670898,0.22699999809265137 9.718999862670898,0.22699999809265137"></path></g><g opacity="0.61" transform="matrix(1,0,0,1,311.7950134277344,90.37899780273438)"><path stroke-linecap="round" stroke-linejoin="round" fill-opacity="0" stroke="rgb(198,106,78)" stroke-opacity="1" stroke-width="12.355" d=" M-6.883999824523926,14.187000274658203 C-1.2829999923706055,14.045000076293945 3.618000030517578,13.241000175476074 3.618000030517578,13.241000175476074"></path></g></g><g style="display: block;" transform="matrix(1,0,0,1,6.3260040283203125,9.550994873046875)" opacity="1"><g opacity="1" transform="matrix(1.2857999801635742,0,0,1.2857999801635742,-128.59341430664062,264.61785888671875)"><g opacity="0.77" transform="matrix(1,0,0,1,448.0559997558594,51.5260009765625)"><path fill="rgb(149,247,249)" fill-opacity="1" d=" M18.621000289916992,0 C18.621000289916992,10.284000396728516 10.284000396728516,18.621000289916992 0,18.621000289916992 C-10.284000396728516,18.621000289916992 -18.621000289916992,10.284000396728516 -18.621000289916992,0 C-18.621000289916992,-10.284000396728516 -10.284000396728516,-18.621000289916992 0,-18.621000289916992 C10.284000396728516,-18.621000289916992 18.621000289916992,-10.284000396728516 18.621000289916992,0z"></path></g><g opacity="1" transform="matrix(1,0,0,1,448.0559997558594,51.5260009765625)"><path stroke-linecap="round" stroke-linejoin="round" fill-opacity="0" stroke="rgb(20,204,247)" stroke-opacity="1" stroke-width="13.162" d=" M18.621000289916992,0 C18.621000289916992,10.284000396728516 10.284000396728516,18.621000289916992 0,18.621000289916992 C-10.284000396728516,18.621000289916992 -18.621000289916992,10.284000396728516 -18.621000289916992,0 C-18.621000289916992,-10.284000396728516 -10.284000396728516,-18.621000289916992 0,-18.621000289916992 C10.284000396728516,-18.621000289916992 18.621000289916992,-10.284000396728516 18.621000289916992,0z"></path></g><g opacity="1" transform="matrix(1,0,0,1,450.5119934082031,48.244998931884766)"><path fill="rgb(255,255,255)" fill-opacity="1" d=" M12.918000221252441,-5.078999996185303 C15.70199966430664,-1.3009999990463257 15.939000129699707,7.688000202178955 11.79699993133545,9.987000465393066 C8.277999877929688,11.940999984741211 5.504000186920166,2.803999900817871 2.618000030517578,-0.8970000147819519 C-0.2669999897480011,-4.5970001220703125 -7.203999996185303,-6.316999912261963 -4.03000020980835,-8.791999816894531 C-0.8560000061988831,-11.267000198364258 7.572999954223633,-12.331000328063965 12.918000221252441,-5.078999996185303z"></path></g></g><g opacity="1" transform="matrix(1,0,0,1,-0.53900146484375,259.343994140625)"><g opacity="0.77" transform="matrix(1,0,0,1,448.0559997558594,51.5260009765625)"><path fill="rgb(149,247,249)" fill-opacity="1" d=" M18.621000289916992,0 C18.621000289916992,10.284000396728516 10.284000396728516,18.621000289916992 0,18.621000289916992 C-10.284000396728516,18.621000289916992 -18.621000289916992,10.284000396728516 -18.621000289916992,0 C-18.621000289916992,-10.284000396728516 -10.284000396728516,-18.621000289916992 0,-18.621000289916992 C10.284000396728516,-18.621000289916992 18.621000289916992,-10.284000396728516 18.621000289916992,0z"></path></g><g opacity="1" transform="matrix(1,0,0,1,448.0559997558594,51.5260009765625)"><path stroke-linecap="round" stroke-linejoin="round" fill-opacity="0" stroke="rgb(20,204,247)" stroke-opacity="1" stroke-width="13.162" d=" M18.621000289916992,0 C18.621000289916992,10.284000396728516 10.284000396728516,18.621000289916992 0,18.621000289916992 C-10.284000396728516,18.621000289916992 -18.621000289916992,10.284000396728516 -18.621000289916992,0 C-18.621000289916992,-10.284000396728516 -10.284000396728516,-18.621000289916992 0,-18.621000289916992 C10.284000396728516,-18.621000289916992 18.621000289916992,-10.284000396728516 18.621000289916992,0z"></path></g><g opacity="1" transform="matrix(1,0,0,1,455.4909973144531,45.74300003051758)"><path fill="rgb(255,255,255)" fill-opacity="1" d=" M5.376999855041504,-3.555000066757202 C8.262999534606934,0.1459999978542328 7.965000152587891,5.173999786376953 5.223999977111816,6.699999809265137 C1.7070000171661377,8.657999992370605 -0.26899999380111694,5.589000225067139 -3.1549999713897705,1.8880000114440918 C-6.039999961853027,-1.812000036239624 -8.942999839782715,-5.158999919891357 -5.224999904632568,-6.701000213623047 C-2.5940001010894775,-7.791999816894531 2.490999937057495,-7.25600004196167 5.376999855041504,-3.555000066757202z"></path></g></g><g opacity="1" transform="matrix(1,0,0,1,18.60900115966797,95.73501586914062)"><g opacity="1" transform="matrix(1,0,0,1,54.16400146484375,231.093994140625)"><path fill="rgb(149,247,249)" fill-opacity="0.75" d=" M18.621000289916992,0 C18.621000289916992,10.284000396728516 10.284000396728516,18.621000289916992 0,18.621000289916992 C-10.284000396728516,18.621000289916992 -18.621000289916992,10.284000396728516 -18.621000289916992,0 C-18.621000289916992,-10.284000396728516 -10.284000396728516,-18.621000289916992 0,-18.621000289916992 C10.284000396728516,-18.621000289916992 18.621000289916992,-10.284000396728516 18.621000289916992,0z"></path><path stroke-linecap="round" stroke-linejoin="round" fill-opacity="0" stroke="rgb(20,204,247)" stroke-opacity="1" stroke-width="8" d=" M18.621000289916992,0 C18.621000289916992,10.284000396728516 10.284000396728516,18.621000289916992 0,18.621000289916992 C-10.284000396728516,18.621000289916992 -18.621000289916992,10.284000396728516 -18.621000289916992,0 C-18.621000289916992,-10.284000396728516 -10.284000396728516,-18.621000289916992 0,-18.621000289916992 C10.284000396728516,-18.621000289916992 18.621000289916992,-10.284000396728516 18.621000289916992,0z"></path></g><g opacity="1" transform="matrix(1,0,0,1,56.619998931884766,227.81300354003906)"><path fill="rgb(255,255,255)" fill-opacity="1" d=" M8.163000106811523,-6.293000221252441 C11.880999565124512,-3.428999900817871 12.928999900817871,3.0179998874664307 9.753999710083008,5.493000030517578 C6.579999923706055,7.9679999351501465 2.2720000743865967,3.0490000247955322 -0.6140000224113464,-0.6520000100135803 C-3.499000072479248,-4.3520002365112305 -9.003000259399414,-6.640999794006348 -5.828999996185303,-9.116000175476074 C-2.6549999713897705,-11.590999603271484 2.990000009536743,-10.277999877929688 8.163000106811523,-6.293000221252441z"></path></g></g><g opacity="1" transform="matrix(1,0,0,1,0,0)"><g opacity="1" transform="matrix(0.6844199895858765,0,0,0.6844199895858765,165.52699279785156,293.5329895019531)"><path fill="rgb(149,247,249)" fill-opacity="0.77" d=" M30.621999740600586,0 C30.621999740600586,16.91200065612793 16.91200065612793,30.621999740600586 0,30.621999740600586 C-16.91200065612793,30.621999740600586 -30.621999740600586,16.91200065612793 -30.621999740600586,0 C-30.621999740600586,-16.91200065612793 -16.91200065612793,-30.621999740600586 0,-30.621999740600586 C16.91200065612793,-30.621999740600586 30.621999740600586,-16.91200065612793 30.621999740600586,0z"></path><path stroke-linecap="round" stroke-linejoin="round" fill-opacity="0" stroke="rgb(20,204,247)" stroke-opacity="1" stroke-width="15" d=" M30.621999740600586,0 C30.621999740600586,16.91200065612793 16.91200065612793,30.621999740600586 0,30.621999740600586 C-16.91200065612793,30.621999740600586 -30.621999740600586,16.91200065612793 -30.621999740600586,0 C-30.621999740600586,-16.91200065612793 -16.91200065612793,-30.621999740600586 0,-30.621999740600586 C16.91200065612793,-30.621999740600586 30.621999740600586,-16.91200065612793 30.621999740600586,0z"></path></g><g opacity="1" transform="matrix(1,0,0,1,302.7049865722656,342.4440002441406)"><path fill="rgb(149,247,249)" fill-opacity="0.67" d=" M26.631999969482422,0 C26.631999969482422,14.708000183105469 14.708000183105469,26.631999969482422 -0.0010000000474974513,26.631999969482422 C-14.708999633789062,26.631999969482422 -26.631999969482422,14.708000183105469 -26.631999969482422,0 C-26.631999969482422,-14.708000183105469 -14.708999633789062,-26.631999969482422 -0.0010000000474974513,-26.631999969482422 C14.708000183105469,-26.631999969482422 26.631999969482422,-14.708000183105469 26.631999969482422,0z"></path><path stroke-linecap="round" stroke-linejoin="round" fill-opacity="0" stroke="rgb(20,204,247)" stroke-opacity="1" stroke-width="13.162" d=" M26.631999969482422,0 C26.631999969482422,14.708000183105469 14.708000183105469,26.631999969482422 -0.0010000000474974513,26.631999969482422 C-14.708999633789062,26.631999969482422 -26.631999969482422,14.708000183105469 -26.631999969482422,0 C-26.631999969482422,-14.708000183105469 -14.708999633789062,-26.631999969482422 -0.0010000000474974513,-26.631999969482422 C14.708000183105469,-26.631999969482422 26.631999969482422,-14.708000183105469 26.631999969482422,0z"></path></g><g opacity="1" transform="matrix(1,0,0,1,0,0)"><g opacity="1" transform="matrix(1,0,0,1,51.5260009765625,309.3529968261719)"><path fill="rgb(149,247,249)" fill-opacity="0.74" d=" M18.621000289916992,0 C18.621000289916992,10.284000396728516 10.284000396728516,18.621000289916992 0,18.621000289916992 C-10.284000396728516,18.621000289916992 -18.621000289916992,10.284000396728516 -18.621000289916992,0 C-18.621000289916992,-10.284000396728516 -10.284000396728516,-18.621000289916992 0,-18.621000289916992 C10.284000396728516,-18.621000289916992 18.621000289916992,-10.284000396728516 18.621000289916992,0z"></path><path stroke-linecap="round" stroke-linejoin="round" fill-opacity="0" stroke="rgb(20,204,247)" stroke-opacity="1" stroke-width="13.162" d=" M18.621000289916992,0 C18.621000289916992,10.284000396728516 10.284000396728516,18.621000289916992 0,18.621000289916992 C-10.284000396728516,18.621000289916992 -18.621000289916992,10.284000396728516 -18.621000289916992,0 C-18.621000289916992,-10.284000396728516 -10.284000396728516,-18.621000289916992 0,-18.621000289916992 C10.284000396728516,-18.621000289916992 18.621000289916992,-10.284000396728516 18.621000289916992,0z"></path></g><g opacity="1" transform="matrix(1,0,0,1,53.981998443603516,306.0719909667969)"><path fill="rgb(255,255,255)" fill-opacity="1" d=" M5.747000217437744,-4.48199987411499 C8.633000373840332,-0.781000018119812 8.39900016784668,4.22599983215332 5.223999977111816,6.701000213623047 C2.049999952316284,9.175999641418457 -2.861999988555908,8.182999610900879 -5.748000144958496,4.48199987411499 C-8.633000373840332,0.7820000052452087 -8.39900016784668,-4.22599983215332 -5.224999904632568,-6.701000213623047 C-2.0510001182556152,-9.175999641418457 2.8610000610351562,-8.182999610900879 5.747000217437744,-4.48199987411499z"></path></g></g><g opacity="1" transform="matrix(1,0,0,1,0,0)"><g opacity="1" transform="matrix(1,0,0,1,116.76799774169922,306.6159973144531)"><path fill="rgb(149,247,249)" fill-opacity="0.76" d=" M37.85900115966797,0 C37.85900115966797,20.909000396728516 20.90999984741211,37.85900115966797 0.0010000000474974513,37.85900115966797 C-20.908000946044922,37.85900115966797 -37.86000061035156,20.909000396728516 -37.86000061035156,0 C-37.86000061035156,-20.909000396728516 -20.908000946044922,-37.85900115966797 0.0010000000474974513,-37.85900115966797 C20.90999984741211,-37.85900115966797 37.85900115966797,-20.909000396728516 37.85900115966797,0z"></path><path stroke-linecap="round" stroke-linejoin="round" fill-opacity="0" stroke="rgb(20,204,247)" stroke-opacity="1" stroke-width="13.162" d=" M37.85900115966797,0 C37.85900115966797,20.909000396728516 20.90999984741211,37.85900115966797 0.0010000000474974513,37.85900115966797 C-20.908000946044922,37.85900115966797 -37.86000061035156,20.909000396728516 -37.86000061035156,0 C-37.86000061035156,-20.909000396728516 -20.908000946044922,-37.85900115966797 0.0010000000474974513,-37.85900115966797 C20.90999984741211,-37.85900115966797 37.85900115966797,-20.909000396728516 37.85900115966797,0z"></path></g><g opacity="1" transform="matrix(1,0,0,1,134.4499969482422,299.94000244140625)"><path fill="rgb(255,255,255)" fill-opacity="1" d=" M12.454000473022461,-3.3940000534057617 C14.638999938964844,4.624000072479248 10.833000183105469,12.642999649047852 3.9560000896453857,14.517999649047852 C-2.921999931335449,16.392000198364258 -10.269000053405762,11.41100025177002 -12.454000473022461,3.3929998874664307 C-14.638999938964844,-4.625 -10.833999633789062,-12.645000457763672 -3.9560000896453857,-14.519000053405762 C2.9210000038146973,-16.39299964904785 10.269000053405762,-11.411999702453613 12.454000473022461,-3.3940000534057617z"></path></g></g><g opacity="1" transform="matrix(1.1461600065231323,0,0,1.1461600065231323,-21.901687622070312,-47.32275390625)"><g opacity="1" transform="matrix(1,0,0,1,199.5189971923828,326.47601318359375)"><path fill="rgb(149,247,249)" fill-opacity="0.75" d=" M37.85900115966797,0 C37.85900115966797,20.909000396728516 20.909000396728516,37.85900115966797 0,37.85900115966797 C-20.909000396728516,37.85900115966797 -37.86000061035156,20.909000396728516 -37.86000061035156,0 C-37.86000061035156,-20.909000396728516 -20.909000396728516,-37.85900115966797 0,-37.85900115966797 C20.909000396728516,-37.85900115966797 37.85900115966797,-20.909000396728516 37.85900115966797,0z"></path><path stroke-linecap="round" stroke-linejoin="round" fill-opacity="0" stroke="rgb(20,204,247)" stroke-opacity="1" stroke-width="13.162" d=" M37.85900115966797,0 C37.85900115966797,20.909000396728516 20.909000396728516,37.85900115966797 0,37.85900115966797 C-20.909000396728516,37.85900115966797 -37.86000061035156,20.909000396728516 -37.86000061035156,0 C-37.86000061035156,-20.909000396728516 -20.909000396728516,-37.85900115966797 0,-37.85900115966797 C20.909000396728516,-37.85900115966797 37.85900115966797,-20.909000396728516 37.85900115966797,0z"></path></g><g opacity="1" transform="matrix(1,0,0,1,212.02200317382812,309.7980041503906)"><path fill="rgb(255,255,255)" fill-opacity="1" d=" M7.11299991607666,-5.546999931335449 C10.684000015258789,-0.9670000076293945 10.394000053405762,5.229000091552734 6.466000080108643,8.293000221252441 C2.5380001068115234,11.355999946594238 -3.5420000553131104,10.125 -7.11299991607666,5.546000003814697 C-10.684000015258789,0.9660000205039978 -10.394000053405762,-5.230000019073486 -6.466000080108643,-8.293000221252441 C-2.5369999408721924,-11.355999946594238 3.5420000553131104,-10.126999855041504 7.11299991607666,-5.546999931335449z"></path></g><g opacity="1" transform="matrix(1,0,0,1,222.8209991455078,325.68798828125)"><path fill="rgb(255,255,255)" fill-opacity="1" d=" M3.3580000400543213,-2.618000030517578 C5.043000221252441,-0.4560000002384186 4.9070000648498535,2.4690001010894775 3.052999973297119,3.9149999618530273 C1.1990000009536743,5.360000133514404 -1.6710000038146973,4.7789998054504395 -3.3559999465942383,2.618000030517578 C-5.041999816894531,0.4560000002384186 -4.90500020980835,-2.4670000076293945 -3.0510001182556152,-3.9130001068115234 C-1.1970000267028809,-5.359000205993652 1.6729999780654907,-4.78000020980835 3.3580000400543213,-2.618000030517578z"></path></g></g><g opacity="1" transform="matrix(1,0,0,1,-3.0159912109375,-4.527008056640625)"><g opacity="1" transform="matrix(1,0,0,1,366.48699951171875,310.2900085449219)"><path fill="rgb(149,247,249)" fill-opacity="0.76" d=" M37.86000061035156,0 C37.86000061035156,20.909000396728516 20.90999984741211,37.85900115966797 0.0010000000474974513,37.85900115966797 C-20.908000946044922,37.85900115966797 -37.85900115966797,20.909000396728516 -37.85900115966797,0 C-37.85900115966797,-20.909000396728516 -20.908000946044922,-37.85900115966797 0.0010000000474974513,-37.85900115966797 C20.90999984741211,-37.85900115966797 37.86000061035156,-20.909000396728516 37.86000061035156,0z"></path><path stroke-linecap="round" stroke-linejoin="round" fill-opacity="0" stroke="rgb(20,204,247)" stroke-opacity="1" stroke-width="13.162" d=" M37.86000061035156,0 C37.86000061035156,20.909000396728516 20.90999984741211,37.85900115966797 0.0010000000474974513,37.85900115966797 C-20.908000946044922,37.85900115966797 -37.85900115966797,20.909000396728516 -37.85900115966797,0 C-37.85900115966797,-20.909000396728516 -20.908000946044922,-37.85900115966797 0.0010000000474974513,-37.85900115966797 C20.90999984741211,-37.85900115966797 37.86000061035156,-20.909000396728516 37.86000061035156,0z"></path></g><g opacity="1" transform="matrix(1,0,0,1,378.7980041503906,297.7229919433594)"><path fill="rgb(255,255,255)" fill-opacity="1" d=" M9.22599983215332,-7.193999767303467 C13.857999801635742,-1.253999948501587 13.482000350952148,6.7829999923706055 8.38700008392334,10.755999565124512 C3.2909998893737793,14.729000091552734 -4.593999862670898,13.135000228881836 -9.22599983215332,7.193999767303467 C-13.857999801635742,1.253999948501587 -13.482000350952148,-6.7820000648498535 -8.38700008392334,-10.755999565124512 C-3.2920000553131104,-14.729000091552734 4.593999862670898,-13.133999824523926 9.22599983215332,-7.193999767303467z"></path></g></g><g opacity="1" transform="matrix(1,0,0,1,0,0)"><g opacity="1" transform="matrix(1,0,0,1,440.9620056152344,321.3240051269531)"><path fill="rgb(149,247,249)" fill-opacity="0.76" d=" M29.051000595092773,0 C29.051000595092773,16.04400062561035 16.04400062561035,29.049999237060547 0,29.049999237060547 C-16.045000076293945,29.049999237060547 -29.051000595092773,16.04400062561035 -29.051000595092773,0 C-29.051000595092773,-16.04400062561035 -16.045000076293945,-29.049999237060547 0,-29.049999237060547 C16.04400062561035,-29.049999237060547 29.051000595092773,-16.04400062561035 29.051000595092773,0z"></path><path stroke-linecap="round" stroke-linejoin="round" fill-opacity="0" stroke="rgb(20,204,247)" stroke-opacity="1" stroke-width="13.162" d=" M29.051000595092773,0 C29.051000595092773,16.04400062561035 16.04400062561035,29.049999237060547 0,29.049999237060547 C-16.045000076293945,29.049999237060547 -29.051000595092773,16.04400062561035 -29.051000595092773,0 C-29.051000595092773,-16.04400062561035 -16.045000076293945,-29.049999237060547 0,-29.049999237060547 C16.04400062561035,-29.049999237060547 29.051000595092773,-16.04400062561035 29.051000595092773,0z"></path></g><g opacity="1" transform="matrix(1,0,0,1,450.40899658203125,311.67999267578125)"><path fill="rgb(255,255,255)" fill-opacity="1" d=" M7.079999923706055,-5.519999980926514 C10.633999824523926,-0.9620000123977661 10.345999717712402,5.204999923706055 6.435999870300293,8.253000259399414 C2.5260000228881836,11.302000045776367 -3.5250000953674316,10.079000473022461 -7.078999996185303,5.520999908447266 C-10.633000373840332,0.9620000123977661 -10.345000267028809,-5.203999996185303 -6.434999942779541,-8.253000259399414 C-2.5250000953674316,-11.302000045776367 3.5260000228881836,-10.07800006866455 7.079999923706055,-5.519999980926514z"></path></g></g><g opacity="1" transform="matrix(1,0,0,1,120.99199676513672,343.8900146484375)"><path fill="rgb(149,247,249)" fill-opacity="0.67" d=" M0,-35.83100128173828 C19.775129318237305,-35.83100128173828 35.83100128173828,-19.775129318237305 35.83100128173828,0 C35.83100128173828,19.775129318237305 19.775129318237305,35.83100128173828 0,35.83100128173828 C-19.775129318237305,35.83100128173828 -35.83100128173828,19.775129318237305 -35.83100128173828,0 C-35.83100128173828,-19.775129318237305 -19.775129318237305,-35.83100128173828 0,-35.83100128173828z"></path><path stroke-linecap="butt" stroke-linejoin="miter" fill-opacity="0" stroke-miterlimit="4" stroke="rgb(20,204,247)" stroke-opacity="1" stroke-width="13.162" d=" M0,-35.83100128173828 C19.775129318237305,-35.83100128173828 35.83100128173828,-19.775129318237305 35.83100128173828,0 C35.83100128173828,19.775129318237305 19.775129318237305,35.83100128173828 0,35.83100128173828 C-19.775129318237305,35.83100128173828 -35.83100128173828,19.775129318237305 -35.83100128173828,0 C-35.83100128173828,-19.775129318237305 -19.775129318237305,-35.83100128173828 0,-35.83100128173828z"></path></g><g opacity="1" transform="matrix(1,0,0,1,382.12701416015625,343.8290100097656)"><path fill="rgb(124,250,244)" fill-opacity="0.65" d=" M0,-30.113500595092773 C16.619640350341797,-30.113500595092773 30.113500595092773,-16.619640350341797 30.113500595092773,0 C30.113500595092773,16.619640350341797 16.619640350341797,30.113500595092773 0,30.113500595092773 C-16.619640350341797,30.113500595092773 -30.113500595092773,16.619640350341797 -30.113500595092773,0 C-30.113500595092773,-16.619640350341797 -16.619640350341797,-30.113500595092773 0,-30.113500595092773z"></path><path stroke-linecap="butt" stroke-linejoin="miter" fill-opacity="0" stroke-miterlimit="4" stroke="rgb(20,204,247)" stroke-opacity="1" stroke-width="13.162" d=" M0,-30.113500595092773 C16.619640350341797,-30.113500595092773 30.113500595092773,-16.619640350341797 30.113500595092773,0 C30.113500595092773,16.619640350341797 16.619640350341797,30.113500595092773 0,30.113500595092773 C-16.619640350341797,30.113500595092773 -30.113500595092773,16.619640350341797 -30.113500595092773,0 C-30.113500595092773,-16.619640350341797 -16.619640350341797,-30.113500595092773 0,-30.113500595092773z"></path></g></g></g><g style="display: block;" transform="matrix(1.0450700521469116,0,0,0.8836299777030945,-32.7449951171875,288.8345947265625)" opacity="1"><g opacity="1" transform="matrix(1,0,0,1,128.14199829101562,215.9429931640625)"><path fill="rgb(63,69,76)" fill-opacity="1" d=" M-3.505000114440918,-34.72100067138672 C-9.331999778747559,-34.777000427246094 -14.282999992370605,-30.56599998474121 -15.42300033569336,-25.02400016784668 C-18.77899932861328,-8.722000122070312 -24.882999420166016,24.288999557495117 -23.125999450683594,27.336000442504883 C-20.65399932861328,31.624000549316406 -16.316999435424805,34.77799987792969 -8.72700023651123,27.417999267578125 C-4.901000022888184,23.70800018310547 12.27299976348877,2.2260000705718994 20.54599952697754,-8.329000473022461 C23.05299949645996,-11.527000427246094 24.882999420166016,-17.266000747680664 21.6299991607666,-23.048999786376953 C19.312999725341797,-27.167999267578125 7.535999774932861,-34.61399841308594 -3.505000114440918,-34.72100067138672z"></path></g><g opacity="1" transform="matrix(1,0,0,1,128.14199829101562,215.9429931640625)"><path stroke-linecap="butt" stroke-linejoin="miter" fill-opacity="0" stroke-miterlimit="10" stroke="rgb(29,35,63)" stroke-opacity="1" stroke-width="12.15" d=" M-3.505000114440918,-34.72100067138672 C-9.331999778747559,-34.777000427246094 -14.282999992370605,-30.56599998474121 -15.42300033569336,-25.02400016784668 C-18.77899932861328,-8.722000122070312 -24.882999420166016,24.288999557495117 -23.125999450683594,27.336000442504883 C-20.65399932861328,31.624000549316406 -16.316999435424805,34.77799987792969 -8.72700023651123,27.417999267578125 C-4.901000022888184,23.70800018310547 12.27299976348877,2.2260000705718994 20.54599952697754,-8.329000473022461 C23.05299949645996,-11.527000427246094 24.882999420166016,-17.266000747680664 21.6299991607666,-23.048999786376953 C19.312999725341797,-27.167999267578125 7.535999774932861,-34.61399841308594 -3.505000114440918,-34.72100067138672z"></path></g><g opacity="1" transform="matrix(1,0,0,1,431.9360046386719,215.9429931640625)"><path fill="rgb(63,69,76)" fill-opacity="1" d=" M3.50600004196167,-34.72100067138672 C9.333000183105469,-34.777000427246094 14.282999992370605,-30.56599998474121 15.42300033569336,-25.02400016784668 C18.77899932861328,-8.722000122070312 24.882999420166016,24.288999557495117 23.125999450683594,27.336000442504883 C20.65399932861328,31.624000549316406 16.31800079345703,34.77799987792969 8.727999687194824,27.417999267578125 C4.9019999504089355,23.70800018310547 -12.27299976348877,2.2260000705718994 -20.54599952697754,-8.329000473022461 C-23.05299949645996,-11.527000427246094 -24.882999420166016,-17.266000747680664 -21.6299991607666,-23.048999786376953 C-19.312999725341797,-27.167999267578125 -7.534999847412109,-34.61399841308594 3.50600004196167,-34.72100067138672z"></path></g><g opacity="1" transform="matrix(1,0,0,1,431.9360046386719,215.9429931640625)"><path stroke-linecap="butt" stroke-linejoin="miter" fill-opacity="0" stroke-miterlimit="10" stroke="rgb(29,35,63)" stroke-opacity="1" stroke-width="12.15" d=" M3.50600004196167,-34.72100067138672 C9.333000183105469,-34.777000427246094 14.282999992370605,-30.56599998474121 15.42300033569336,-25.02400016784668 C18.77899932861328,-8.722000122070312 24.882999420166016,24.288999557495117 23.125999450683594,27.336000442504883 C20.65399932861328,31.624000549316406 16.31800079345703,34.77799987792969 8.727999687194824,27.417999267578125 C4.9019999504089355,23.70800018310547 -12.27299976348877,2.2260000705718994 -20.54599952697754,-8.329000473022461 C-23.05299949645996,-11.527000427246094 -24.882999420166016,-17.266000747680664 -21.6299991607666,-23.048999786376953 C-19.312999725341797,-27.167999267578125 -7.534999847412109,-34.61399841308594 3.50600004196167,-34.72100067138672z"></path></g><g opacity="1" transform="matrix(1,0,0,1,274.47601318359375,148.46200561523438)"></g><g opacity="1" transform="matrix(1,0,0,1,274.47601318359375,148.46200561523438)"><path fill="rgb(190,243,244)" fill-opacity="1" d=" M-216.2519989013672,-90.90899658203125 C-216.2519989013672,-90.90899658203125 -166.7740020751953,-69.1760025024414 26.295000076293945,-69.1760025024414 C136.0540008544922,-69.1760025024414 218.52099609375,-92.08699798583984 218.52099609375,-92.08699798583984 C218.52099609375,-92.08699798583984 217.677001953125,-29.297000885009766 198.28599548339844,14.826000213623047 C190.28399658203125,33.034000396728516 172.12399291992188,59.79899978637695 130.00399780273438,69.65699768066406 C34.167999267578125,92.08599853515625 -78.04499816894531,75.12300109863281 -132.20700073242188,61.494998931884766 C-179.42100524902344,49.61600112915039 -192.24400329589844,14.347999572753906 -199.38499450683594,-0.6110000014305115 C-218.52000427246094,-40.69900131225586 -216.2519989013672,-90.90899658203125 -216.2519989013672,-90.90899658203125z"></path><path stroke-linecap="round" stroke-linejoin="round" fill-opacity="0" stroke="rgb(54,160,192)" stroke-opacity="1" stroke-width="14.175" d=" M-216.2519989013672,-90.90899658203125 C-216.2519989013672,-90.90899658203125 -166.7740020751953,-69.1760025024414 26.295000076293945,-69.1760025024414 C136.0540008544922,-69.1760025024414 218.52099609375,-92.08699798583984 218.52099609375,-92.08699798583984 C218.52099609375,-92.08699798583984 217.677001953125,-29.297000885009766 198.28599548339844,14.826000213623047 C190.28399658203125,33.034000396728516 172.12399291992188,59.79899978637695 130.00399780273438,69.65699768066406 C34.167999267578125,92.08599853515625 -78.04499816894531,75.12300109863281 -132.20700073242188,61.494998931884766 C-179.42100524902344,49.61600112915039 -192.24400329589844,14.347999572753906 -199.38499450683594,-0.6110000014305115 C-218.52000427246094,-40.69900131225586 -216.2519989013672,-90.90899658203125 -216.2519989013672,-90.90899658203125z"></path></g><g opacity="1" transform="matrix(1,0,0,1,256.99798583984375,135.677001953125)"><path fill="rgb(255,255,255)" fill-opacity="1" d=" M-181.5970001220703,-76.33999633789062 C-181.5970001220703,-76.33999633789062 -140.04800415039062,-58.09000015258789 22.079999923706055,-58.09000015258789 C114.2490005493164,-58.09000015258789 183.50100708007812,-77.3290023803711 183.50100708007812,-77.3290023803711 C183.50100708007812,-77.3290023803711 182.79299926757812,-24.601999282836914 166.50900268554688,12.451000213623047 C159.7899932861328,27.739999771118164 144.53900146484375,50.215999603271484 109.16899871826172,58.49399948120117 C28.69099998474121,77.3290023803711 -65.53900146484375,63.08399963378906 -111.02100372314453,51.63999938964844 C-150.66799926757812,41.665000915527344 -161.43699645996094,12.050000190734863 -167.43299865722656,-0.5120000243186951 C-183.50100708007812,-34.17499923706055 -181.5970001220703,-76.33999633789062 -181.5970001220703,-76.33999633789062z"></path></g><g opacity="1" transform="matrix(1,0,0,1,264.9960021972656,112.85099792480469)"><path fill="rgb(190,243,244)" fill-opacity="1" d=" M-203.36300659179688,-18.756999969482422 C-203.36300659179688,-18.756999969482422 -177.46600341796875,3.4570000171661377 -48.10499954223633,15.73900032043457 C81.25499725341797,28.020999908447266 136.5659942626953,23.427000045776367 165.86700439453125,21.450000762939453 C195.16900634765625,19.472000122070312 203.36199951171875,15.467000007629395 203.36199951171875,15.467000007629395 C203.36199951171875,15.467000007629395 201,-12.932000160217285 201,-12.932000160217285 C201,-12.932000160217285 -79.25199890136719,-16.54800033569336 -79.25199890136719,-16.54800033569336 C-79.25199890136719,-16.54800033569336 -178.28199768066406,-28.020999908447266 -178.28199768066406,-28.020999908447266 C-178.28199768066406,-28.020999908447266 -203.36300659179688,-18.756999969482422 -203.36300659179688,-18.756999969482422z"></path></g><g opacity="1" transform="matrix(1,0,0,1,276.6579895019531,72.51300048828125)"><path fill="rgb(190,243,244)" fill-opacity="1" d=" M-238.84100341796875,0.29100000858306885 C-237.60299682617188,7.668000221252441 -231.81300354003906,13.440999984741211 -224.4320068359375,14.652000427246094 C-195.41900634765625,19.413000106811523 -112.87200164794922,35.52299880981445 10.914999961853027,36.202999114990234 C169.68600463867188,37.07600021362305 227.26300048828125,25.735000610351562 233.36900329589844,16.138999938964844 C239.4759979248047,6.543000221252441 241.2209930419922,-20.500999450683594 229.00799560546875,-23.989999771118164 C216.79400634765625,-27.479999542236328 128.68499755859375,-4.797999858856201 -27.4689998626709,-11.777000427246094 C-178.66299438476562,-18.534000396728516 -215.9010009765625,-37.07600021362305 -231.60299682617188,-30.097000122070312 C-241.2209930419922,-25.82200050354004 -240.69400024414062,-10.75 -238.84100341796875,0.29100000858306885z"></path><path stroke-linecap="round" stroke-linejoin="round" fill-opacity="0" stroke="rgb(54,159,191)" stroke-opacity="1" stroke-width="14.175" d=" M-238.84100341796875,0.29100000858306885 C-237.60299682617188,7.668000221252441 -231.81300354003906,13.440999984741211 -224.4320068359375,14.652000427246094 C-195.41900634765625,19.413000106811523 -112.87200164794922,35.52299880981445 10.914999961853027,36.202999114990234 C169.68600463867188,37.07600021362305 227.26300048828125,25.735000610351562 233.36900329589844,16.138999938964844 C239.4759979248047,6.543000221252441 241.2209930419922,-20.500999450683594 229.00799560546875,-23.989999771118164 C216.79400634765625,-27.479999542236328 128.68499755859375,-4.797999858856201 -27.4689998626709,-11.777000427246094 C-178.66299438476562,-18.534000396728516 -215.9010009765625,-37.07600021362305 -231.60299682617188,-30.097000122070312 C-241.2209930419922,-25.82200050354004 -240.69400024414062,-10.75 -238.84100341796875,0.29100000858306885z"></path></g><g opacity="1" transform="matrix(1,0,0,1,263.8699951171875,63.45399856567383)"><path fill="rgb(255,255,255)" fill-opacity="1" d=" M-214.6269989013672,2.6559998989105225 C-213.64999389648438,7.243000030517578 -207.62399291992188,9.822999954223633 -201.05499267578125,10.758000373840332 C-175.23300170898438,14.430000305175781 -99.89299774169922,26.46299934387207 10.62399959564209,30.007999420166016 C152.375,34.55500030517578 202.06900024414062,22.214000701904297 207.68899536132812,16.441999435424805 C213.3090057373047,10.668999671936035 222.03700256347656,1.9329999685287476 211.1929931640625,-0.531000018119812 C200.3489990234375,-2.99399995803833 121.27999877929688,14.447999954223633 -18.027999877929688,6.196000099182129 C-152.91099548339844,-1.7940000295639038 -191.57699584960938,-17.579999923706055 -205.72000122070312,-13.666000366210938 C-214.3820037841797,-11.269000053405762 -216.08900451660156,-4.210000038146973 -214.6269989013672,2.6559998989105225z"></path></g></g></g></g></svg>