<svg xmlns="http://www.w3.org/2000/svg" xmlns:xlink="http://www.w3.org/1999/xlink" viewBox="0 0 512 512" width="512" height="512" style="width: 100%; height: 100%; transform: translate3d(0,0,0); content-visibility: visible;" preserveAspectRatio="xMidYMid meet"><defs><clipPath id="__lottie_element_2"><rect width="512" height="512" x="0" y="0"></rect></clipPath><clipPath id="__lottie_element_4"><path d="M0,0 L1000,0 L1000,1000 L0,1000z"></path></clipPath><linearGradient id="__lottie_element_11" spreadMethod="pad" gradientUnits="userSpaceOnUse" x1="-3.5850000381469727" y1="-57.20000076293945" x2="14.506999969482422" y2="141.67300415039062"><stop offset="0%" stop-color="rgb(244,160,123)"></stop><stop offset="85%" stop-color="rgb(247,171,131)"></stop><stop offset="100%" stop-color="rgb(250,181,140)"></stop></linearGradient><mask id="__lottie_element_13"><path fill="url(#__lottie_element_12)" d=" M-100.55000305175781,-83.13600158691406 C-100.55000305175781,-83.13600158691406 -90.9739990234375,-95.7699966430664 -76.8479995727539,-91.9530029296875 C-62.72200012207031,-88.13500213623047 -60.99100112915039,-77.56600189208984 -52.143001556396484,-78.87799835205078 C-43.29499816894531,-80.19100189208984 -33.402000427246094,-84.48999786376953 -23.21500015258789,-79.75499725341797 C-13.029000282287598,-75.0199966430664 -12.690999984741211,-67.99099731445312 -3.865000009536743,-68.3010025024414 C4.960999965667725,-68.61100006103516 2.109999895095825,-72.68499755859375 12.383999824523926,-71.96099853515625 C22.656999588012695,-71.23600006103516 28.305999755859375,-60.582000732421875 37.13199996948242,-60.891998291015625 C45.95899963378906,-61.20199966430664 55.83000183105469,-64.49800109863281 63.577999114990234,-60.31800079345703 C71.3270034790039,-56.137001037597656 86.1500015258789,-24.2189998626709 94.6500015258789,13.079000473022461 C103.1510009765625,50.37699890136719 85.33499908447266,81.08499908447266 61.65299987792969,88.59600067138672 C39.03099822998047,95.7699966430664 15.116000175476074,95.61000061035156 -14.006999969482422,82.94100189208984 C-39.10200119018555,72.0250015258789 -59.86899948120117,36.305999755859375 -68.90299987792969,23.57200050354004 C-77.93599700927734,10.838000297546387 -100.62300109863281,-48.12300109863281 -101.48500061035156,-55.15800094604492 C-103.1510009765625,-68.73500061035156 -100.55000305175781,-83.13600158691406 -100.55000305175781,-83.13600158691406z"></path></mask><linearGradient id="__lottie_element_12" spreadMethod="pad" gradientUnits="userSpaceOnUse" x1="-3.5850000381469727" y1="-57.20000076293945" x2="14.506999969482422" y2="141.67300415039062"><stop stop-color="rgb(255,255,255)" offset="0%" stop-opacity="1"></stop><stop stop-color="rgb(255,255,255)" offset="57%" stop-opacity="0.5"></stop><stop stop-color="rgb(255,255,255)" offset="100%" stop-opacity="0"></stop></linearGradient><radialGradient id="__lottie_element_29" spreadMethod="pad" gradientUnits="userSpaceOnUse" cx="201.70399475097656" cy="-286.6059875488281" r="519.8995602123484" fx="201.70399475097656" fy="-286.6059875488281"><stop offset="0%" stop-color="rgb(249,223,201)"></stop><stop offset="59%" stop-color="rgb(249,202,171)"></stop><stop offset="100%" stop-color="rgb(250,181,140)"></stop></radialGradient></defs><g clip-path="url(#__lottie_element_2)"><g clip-path="url(#__lottie_element_4)" style="display: block;" transform="matrix(0.5120000243186951,0,0,0.5120000243186951,-1,0)" opacity="1"><g style="display: block;" transform="matrix(0.9894049167633057,-0.021105151623487473,0.021210292354226112,0.994333803653717,518.595458984375,4.773193359375)" opacity="1"><g opacity="1" transform="matrix(1.0012199878692627,0,0,0.9965900182723999,166.6320037841797,142.19500732421875)"><path fill="rgb(20,20,35)" fill-opacity="1" d=" M-133.41799926757812,-1.097000002861023 C-133.41799926757812,-1.097000002861023 -74.56700134277344,-52.652000427246094 -29.41900062561035,-44.40299987792969 C15.727999687194824,-36.15399932861328 59.55500030517578,-38.404998779296875 104.54199981689453,-84.89099884033203 C116.1510009765625,-96.88700103759766 121.03700256347656,-0.9160000085830688 94.54499816894531,53.569000244140625 C90.58599853515625,61.709999084472656 67.0530014038086,102.55400085449219 34.43199920654297,106.51200103759766 C16.45800018310547,108.69300079345703 1.0230000019073486,62.83000183105469 -23.316999435424805,42.04499816894531 C-47.65800094604492,21.260000228881836 -133.41799926757812,-1.097000002861023 -133.41799926757812,-1.097000002861023z"></path><path stroke-linecap="round" stroke-linejoin="round" fill-opacity="0" stroke="rgb(14,14,45)" stroke-opacity="1" stroke-width="15.762" d=" M-133.41799926757812,-1.097000002861023 C-133.41799926757812,-1.097000002861023 -74.56700134277344,-52.652000427246094 -29.41900062561035,-44.40299987792969 C15.727999687194824,-36.15399932861328 59.55500030517578,-38.404998779296875 104.54199981689453,-84.89099884033203 C116.1510009765625,-96.88700103759766 121.03700256347656,-0.9160000085830688 94.54499816894531,53.569000244140625 C90.58599853515625,61.709999084472656 67.0530014038086,102.55400085449219 34.43199920654297,106.51200103759766 C16.45800018310547,108.69300079345703 1.0230000019073486,62.83000183105469 -23.316999435424805,42.04499816894531 C-47.65800094604492,21.260000228881836 -133.41799926757812,-1.097000002861023 -133.41799926757812,-1.097000002861023z"></path></g><g opacity="1" transform="matrix(1,0,0,1,233.1280059814453,101.63600158691406)"><path stroke-linecap="round" stroke-linejoin="round" fill-opacity="0" stroke="rgb(76,76,114)" stroke-opacity="1" stroke-width="15.762" d=" M-33.7400016784668,17.2450008392334 C-33.7400016784668,17.2450008392334 -7.248000144958496,12.246000289916992 11.246999740600586,2.249000072479248 C22.44099998474121,-3.8010001182556152 33.7400016784668,-17.2450008392334 33.7400016784668,-17.2450008392334"></path></g></g><g style="display: block;" transform="matrix(0.9894049167633057,-0.021105151623487473,0.021210292354226112,0.994333803653717,117.04983520507812,76.74530029296875)" opacity="1"><g opacity="1" transform="matrix(1,0,0,1,456.2950134277344,431.70599365234375)"><path fill="rgb(239,154,117)" fill-opacity="1" d=" M-308.7279968261719,-143.19000244140625 C-308.7279968261719,-143.19000244140625 -315.5950012207031,-120.02300262451172 -332.86700439453125,-99.36100006103516 C-350.13800048828125,-78.69999694824219 -395.8609924316406,-47.98099899291992 -391.36199951171875,10.501999855041504 C-389.4939880371094,34.78099822998047 -357.9320068359375,132.69200134277344 -304.6029968261719,183.41600036621094 C-243.58799743652344,241.67799377441406 -136.64100646972656,291.0469970703125 -32.624000549316406,325.27099609375 C117.85399627685547,374.8699951171875 227.57699584960938,346.90899658203125 290.00201416015625,284.4849853515625 C319.9930114746094,254.4929962158203 312.3609924316406,187.88600158691406 335.072998046875,145.29200744628906 C357.7850036621094,102.697998046875 391.8559875488281,62.678001403808594 376.60198974609375,8.713000297546387 C361.11700439453125,-46.13399887084961 352.8330078125,-124.19499969482422 298.0989990234375,-151.41299438476562 C252.3800048828125,-174.0760040283203 221.2969970703125,-170.29600524902344 205.81100463867188,-187.4409942626953 C190.3260040283203,-204.58700561523438 172.7239990234375,-257.87200927734375 159.3350067138672,-284.2950134277344 C143.42599487304688,-315.3340148925781 98.63700103759766,-353.1319885253906 29.856000900268555,-363.5400085449219 C-38.92399978637695,-373.947998046875 -122.76799774169922,-366.4739990234375 -195.92999267578125,-334.7300109863281 C-269.0920104980469,-302.9859924316406 -284.1059875488281,-230.21099853515625 -292.14300537109375,-203.93299865722656 C-300.1789855957031,-177.65499877929688 -308.7279968261719,-143.19000244140625 -308.7279968261719,-143.19000244140625z"></path><path stroke-linecap="butt" stroke-linejoin="miter" fill-opacity="0" stroke-miterlimit="10" stroke="rgb(183,99,57)" stroke-opacity="1" stroke-width="23.103" d=" M-308.7279968261719,-143.19000244140625 C-308.7279968261719,-143.19000244140625 -315.5950012207031,-120.02300262451172 -332.86700439453125,-99.36100006103516 C-350.13800048828125,-78.69999694824219 -395.8609924316406,-47.98099899291992 -391.36199951171875,10.501999855041504 C-389.4939880371094,34.78099822998047 -357.9320068359375,132.69200134277344 -304.6029968261719,183.41600036621094 C-243.58799743652344,241.67799377441406 -136.64100646972656,291.0469970703125 -32.624000549316406,325.27099609375 C117.85399627685547,374.8699951171875 227.57699584960938,346.90899658203125 290.00201416015625,284.4849853515625 C319.9930114746094,254.4929962158203 312.3609924316406,187.88600158691406 335.072998046875,145.29200744628906 C357.7850036621094,102.697998046875 391.8559875488281,62.678001403808594 376.60198974609375,8.713000297546387 C361.11700439453125,-46.13399887084961 352.8330078125,-124.19499969482422 298.0989990234375,-151.41299438476562 C252.3800048828125,-174.0760040283203 221.2969970703125,-170.29600524902344 205.81100463867188,-187.4409942626953 C190.3260040283203,-204.58700561523438 172.7239990234375,-257.87200927734375 159.3350067138672,-284.2950134277344 C143.42599487304688,-315.3340148925781 98.63700103759766,-353.1319885253906 29.856000900268555,-363.5400085449219 C-38.92399978637695,-373.947998046875 -122.76799774169922,-366.4739990234375 -195.92999267578125,-334.7300109863281 C-269.0920104980469,-302.9859924316406 -284.1059875488281,-230.21099853515625 -292.14300537109375,-203.93299865722656 C-300.1789855957031,-177.65499877929688 -308.7279968261719,-143.19000244140625 -308.7279968261719,-143.19000244140625z"></path></g><g opacity="1" transform="matrix(1,0,0,1,471.7640075683594,395.8949890136719)"><path fill="url(#__lottie_element_29)" fill-opacity="1" d=" M-275.510009765625,-108.177001953125 C-275.510009765625,-108.177001953125 -281.9169921875,-76.85099792480469 -297.2090148925781,-59.176998138427734 C-312.50201416015625,-41.50400161743164 -344.7650146484375,14.102999687194824 -330.04998779296875,45.73500061035156 C-310.4830017089844,87.7969970703125 -270.2070007324219,222.29400634765625 -130.90499877929688,265.4330139160156 C8.397000312805176,308.5719909667969 117.0260009765625,326.9289855957031 184.02200317382812,287.7340087890625 C218.26199340820312,267.7019958496094 244.5679931640625,237.9029998779297 264.77301025390625,208.67300415039062 C284.10198974609375,180.7100067138672 297.8489990234375,153.26800537109375 307.614990234375,135.3990020751953 C327.5889892578125,98.85099792480469 344.7650146484375,79.93099975585938 327.4859924316406,34.143001556396484 C310.20599365234375,-11.645999908447266 303.00799560546875,-89.84700012207031 261.3380126953125,-108.7699966430664 C219.66700744628906,-127.69200134277344 195.87899780273438,-122.91600036621094 181.85400390625,-137.84300231933594 C167.82899475097656,-152.77099609375 145.2220001220703,-216.20799255371094 134.02499389648438,-239.73300170898438 C118.2979965209961,-272.7760009765625 81.26499938964844,-305.54400634765625 19.551000595092773,-315.12799072265625 C-42.16400146484375,-324.71099853515625 -109.76799774169922,-326.9289855957031 -175.03799438476562,-300.18499755859375 C-240.3090057373047,-273.4419860839844 -254.21499633789062,-183.03700256347656 -261.18499755859375,-160.43699645996094 C-268.15399169921875,-137.83700561523438 -275.510009765625,-108.177001953125 -275.510009765625,-108.177001953125z"></path></g></g><g style="display: block;" transform="matrix(0.9894049167633057,-0.021105151623487473,0.021210292354226112,0.994333803653717,224.54925537109375,464.50689697265625)" opacity="0.65"><g opacity="1" transform="matrix(1,0,0,1,653.8270263671875,75.25)"><path stroke-linecap="round" stroke-linejoin="round" fill-opacity="0" stroke="rgb(188,95,70)" stroke-opacity="1" stroke-width="18.189" d=" M4.952000141143799,-56.48899841308594 C4.952000141143799,-56.48899841308594 -4.150000095367432,-36.3129997253418 -13.642999649047852,-14.645999908447266 C-23.13599967956543,7.020999908447266 -23.986000061035156,14.031000137329102 -23.986000061035156,28.61199951171875 C-23.986000061035156,33.11000061035156 -25.378000259399414,58.02799987792969 -25.378000259399414,58.02799987792969"></path></g><g opacity="1" transform="matrix(1,0,0,1,252.802001953125,111.05400085449219)"><path stroke-linecap="round" stroke-linejoin="round" fill-opacity="0" stroke="rgb(188,95,70)" stroke-opacity="1" stroke-width="17.514" d=" M-48.39099884033203,-63.43899917602539 C-48.39099884033203,-63.43899917602539 -2.328000068664551,-8.930000305175781 11.017000198364258,10.553000450134277 C24.363000869750977,30.03499984741211 27.725000381469727,44.7400016784668 33.57600021362305,50.61800003051758 C39.426998138427734,56.494998931884766 48.39099884033203,63.43899917602539 48.39099884033203,63.43899917602539"></path></g><g opacity="1" transform="matrix(1,0,0,1,126.96399688720703,163.1490020751953)"><path stroke-linecap="round" stroke-linejoin="round" fill-opacity="0" stroke="rgb(188,95,70)" stroke-opacity="1" stroke-width="17.514" d=" M-40.487998962402344,-62.231998443603516 C-40.487998962402344,-62.231998443603516 -37.215999603271484,-16.0939998626709 -13.043999671936035,12.380999565124512 C11.126999855041504,40.85599899291992 22.968000411987305,51.03099822998047 31.72800064086914,56.63199996948242 C31.72800064086914,56.63199996948242 40.487998962402344,62.231998443603516 40.487998962402344,62.231998443603516"></path></g><g opacity="1" transform="matrix(1,0,0,1,534.7899780273438,181.80099487304688)"><path stroke-linecap="round" stroke-linejoin="round" fill-opacity="0" stroke="rgb(188,95,70)" stroke-opacity="1" stroke-width="18.189" d=" M20.48200035095215,-5.605000019073486 C20.48200035095215,-5.605000019073486 2.931999921798706,-9.208999633789062 -20.48200035095215,9.208000183105469"></path></g><g opacity="1" transform="matrix(1,0,0,1,492.58599853515625,254.9669952392578)"><path stroke-linecap="round" stroke-linejoin="round" fill-opacity="0" stroke="rgb(188,95,70)" stroke-opacity="1" stroke-width="18.189" d=" M-21.48900032043457,-62.47800064086914 C-21.48900032043457,-62.47800064086914 -4.703999996185303,-60.30699920654297 5.485000133514404,-47.5359992980957 C15.673999786376953,-34.76499938964844 19.26799964904785,-11.394000053405762 20.322999954223633,19.089000701904297 C21.48900032043457,52.80400085449219 -16.1200008392334,62.47800064086914 -16.1200008392334,62.47800064086914"></path></g><g opacity="1" transform="matrix(1,0,0,1,377.1600036621094,317.7430114746094)"><path stroke-linecap="round" stroke-linejoin="round" fill-opacity="0" stroke="rgb(188,95,70)" stroke-opacity="1" stroke-width="18.189" d=" M-74.24700164794922,-12.88599967956543 C-74.24700164794922,-12.88599967956543 -37.25899887084961,2.109999895095825 12.72700023651123,9.107999801635742 C39.70600128173828,12.885000228881836 74.24700164794922,10.572999954223633 74.24700164794922,10.572999954223633"></path></g><g opacity="1" transform="matrix(1,0,0,1,572.0189819335938,297.3599853515625)"><path stroke-linecap="round" stroke-linejoin="round" fill-opacity="0" stroke="rgb(188,95,70)" stroke-opacity="1" stroke-width="18.189" d=" M-48.801998138427734,14.109000205993652 C-48.801998138427734,14.109000205993652 -34.37300109863281,18.493999481201172 -4.182000160217285,18.493999481201172 C18.81100082397461,18.493999481201172 29.715999603271484,3.4570000171661377 33.805999755859375,1.4989999532699585 C37.895999908447266,-0.45899999141693115 48.801998138427734,-18.4950008392334 48.801998138427734,-18.4950008392334"></path></g></g><g style="display: block;" transform="matrix(0.9894108176231384,-0.021100832149386406,0.021421002224087715,0.9943384528160095,333.5735168457031,294.519287109375)" opacity="1"><g opacity="1" transform="matrix(1,0,0,1,0.97198486328125,5.1280059814453125)"><g opacity="1" transform="matrix(1,0,0,1,59.915000915527344,84.70099639892578)"><path stroke-linecap="round" stroke-linejoin="round" fill-opacity="0" stroke="rgb(211,113,87)" stroke-opacity="1" stroke-width="16.689" d=" M14.744000434875488,-38.79600143432617 C14.744000434875488,-38.79600143432617 5.894000053405762,-19.684999465942383 1.1979999542236328,-17.187000274658203 C-3.497999906539917,-14.6899995803833 -18.19300079345703,-6.435999870300293 -11.79800033569336,7.804999828338623 C-3.7320001125335693,25.768999099731445 18.19300079345703,38.79600143432617 18.19300079345703,38.79600143432617"></path></g><g opacity="1" transform="matrix(1,0,0,1,474.41900634765625,81.00499725341797)"><path stroke-linecap="round" stroke-linejoin="round" fill-opacity="0" stroke="rgb(211,113,87)" stroke-opacity="1" stroke-width="16.689" d=" M-20.958999633789062,-17.232999801635742 C-2.638000011444092,-15.800999641418457 12.005999565124512,-27.95599937438965 26.56599998474121,0.5049999952316284 C34.40999984741211,15.838000297546387 14.26200008392334,28.375 14.26200008392334,28.375"></path></g><g opacity="1" transform="matrix(1,0,0,1,274.6809997558594,143.79200744628906)"><path fill="rgb(249,247,247)" fill-opacity="1" d=" M-131.35699462890625,-35.430999755859375 C-131.35699462890625,-35.430999755859375 3.263000011444092,53.279998779296875 70.8499984741211,51.685001373291016 C110.86499786376953,50.74100112915039 148.14100646972656,21.941999435424805 154.8260040283203,-4.798999786376953 C156.23300170898438,-10.425000190734863 159.75599670410156,-44.41299819946289 159.75599670410156,-44.41299819946289 C159.75599670410156,-44.41299819946289 67.18699645996094,-4.855999946594238 -1.3819999694824219,-12.5649995803833 C-78.1259994506836,-21.191999435424805 -159.7550048828125,-53.279998779296875 -159.7550048828125,-53.279998779296875 C-159.7550048828125,-53.279998779296875 -131.35699462890625,-35.430999755859375 -131.35699462890625,-35.430999755859375z"></path><path stroke-linecap="round" stroke-linejoin="round" fill-opacity="0" stroke="rgb(130,64,58)" stroke-opacity="1" stroke-width="15.49" d=" M-131.35699462890625,-35.430999755859375 C-131.35699462890625,-35.430999755859375 3.263000011444092,53.279998779296875 70.8499984741211,51.685001373291016 C110.86499786376953,50.74100112915039 148.14100646972656,21.941999435424805 154.8260040283203,-4.798999786376953 C156.23300170898438,-10.425000190734863 159.75599670410156,-44.41299819946289 159.75599670410156,-44.41299819946289 C159.75599670410156,-44.41299819946289 67.18699645996094,-4.855999946594238 -1.3819999694824219,-12.5649995803833 C-78.1259994506836,-21.191999435424805 -159.7550048828125,-53.279998779296875 -159.7550048828125,-53.279998779296875 C-159.7550048828125,-53.279998779296875 -131.35699462890625,-35.430999755859375 -131.35699462890625,-35.430999755859375z"></path></g><g opacity="1" transform="matrix(1,0,0,1,340.1669921875,223.2760009765625)"><path fill="rgb(231,127,100)" fill-opacity="1" d=" M119.72000122070312,-43.47700119018555 C119.72000122070312,-43.47700119018555 114.63500213623047,34.1510009765625 42.70500183105469,39.86800003051758 C-29.22599983215332,45.58599853515625 -85.1760025024414,0.7229999899864197 -91.91000366210938,-4.159999847412109 C-98.64399719238281,-9.043000221252441 -119.72000122070312,-22.836999893188477 -119.72000122070312,-22.836999893188477 C-119.72000122070312,-22.836999893188477 -114.49099731445312,-23.43199920654297 -114.49099731445312,-23.43199920654297 C-114.49099731445312,-23.43199920654297 -4.493000030517578,19.180999755859375 35.319000244140625,13.493000030517578 C87.01499938964844,6.107999801635742 117.61000061035156,-45.58700180053711 117.61000061035156,-45.58700180053711"></path></g><g opacity="1" transform="matrix(1,0,0,1,330.8699951171875,163.29400634765625)"><path fill="rgb(160,184,232)" fill-opacity="1" d=" M-80.18000030517578,-5.011000156402588 C-80.18000030517578,-5.011000156402588 -30.0939998626709,2.690999984741211 13.16100025177002,-0.4740000069141388 C56.41600036621094,-3.6389999389648438 80.18000030517578,-16.089000701904297 80.18000030517578,-16.089000701904297 C80.18000030517578,-16.089000701904297 44.310001373291016,11.869000434875488 18.461999893188477,13.979000091552734 C-7.386000156402588,16.089000701904297 -44.8380012512207,8.704000473022461 -44.8380012512207,8.704000473022461 C-44.8380012512207,8.704000473022461 -80.18000030517578,-5.011000156402588 -80.18000030517578,-5.011000156402588z"></path></g><g opacity="1" transform="matrix(1,0,0,1,301.3299865722656,130.41299438476562)"><path fill="rgb(160,184,232)" fill-opacity="1" d=" M-109.54499816894531,-4.308000087738037 C-109.54499816894531,-4.308000087738037 -82.81800079345703,11.164999961853027 1.5820000171661377,15.385000228881836 C85.98300170898438,19.606000900268555 122.38099670410156,-13.538999557495117 122.38099670410156,-13.538999557495117 C122.38099670410156,-13.538999557495117 123.1719970703125,-19.606000900268555 123.1719970703125,-19.606000900268555 C123.1719970703125,-19.606000900268555 56.44300079345703,9.055000305175781 -9.670999526977539,6.945000171661377 C-87.02799987792969,4.4770002365112305 -123.1719970703125,-10.637999534606934 -123.1719970703125,-10.637999534606934 C-123.1719970703125,-10.637999534606934 -109.54499816894531,-4.308000087738037 -109.54499816894531,-4.308000087738037z"></path></g><g opacity="1" transform="matrix(1,0,0,1,225.8159942626953,144.74099731445312)"><path fill="rgb(160,184,232)" fill-opacity="1" d=" M59.233001708984375,29.740999221801758 C59.233001708984375,29.740999221801758 9.413999557495117,5.915999889373779 4.914999961853027,0.4169999957084656 C0.4169999957084656,-5.080999851226807 21.90999984741211,-8.079999923706055 21.90999984741211,-8.079999923706055 C21.90999984741211,-8.079999923706055 -24.076000213623047,-20.82699966430664 -24.076000213623047,-20.82699966430664 C-24.076000213623047,-20.82699966430664 -59.233001708984375,-29.740999221801758 -59.233001708984375,-29.740999221801758 C-59.233001708984375,-29.740999221801758 -16.2450008392334,-2.749000072479248 1.75,6.249000072479248 C19.743999481201172,15.246000289916992 59.233001708984375,29.740999221801758 59.233001708984375,29.740999221801758z"></path></g><g opacity="1" transform="matrix(1,0,0,1,278.07598876953125,107.4530029296875)"><path stroke-linecap="round" stroke-linejoin="round" fill-opacity="0" stroke="rgb(130,64,58)" stroke-opacity="1" stroke-width="15.07" d=" M-187.62100219726562,-26.952999114990234 C-187.62100219726562,-26.952999114990234 -177.01600646972656,-22.670000076293945 -160.0850067138672,-16.66900062561035 C-125.76899719238281,-4.506999969482422 -65.46199798583984,14.711000442504883 -14.776000022888184,19.621000289916992 C60.917999267578125,26.952999114990234 125.72000122070312,5.427000045776367 144.43699645996094,-3.6619999408721924 C163.1540069580078,-12.75100040435791 187.62100219726562,-17.36199951171875 187.62100219726562,-17.36199951171875"></path></g><g opacity="1" transform="matrix(1,0,0,1,412.60101318359375,139.5760040283203)"><path fill="rgb(160,184,232)" fill-opacity="1" d=" M-7.2170000076293945,-13.333000183105469 C-7.2170000076293945,-13.333000183105469 -5.775000095367432,2.1019999980926514 -8.659000396728516,10.473999977111816 C-11.541999816894531,18.84600067138672 -13.253000259399414,28.575000762939453 -13.253000259399414,28.575000762939453 C-13.253000259399414,28.575000762939453 -1.7400000095367432,17.798999786376953 4.890999794006348,8.380999565124512 C11.52299976348877,-1.0369999408721924 12.100000381469727,-11.762999534606934 12.677000045776367,-14.378999710083008 C13.253000259399414,-16.996000289916992 12.906000137329102,-28.575000762939453 12.906000137329102,-28.575000762939453 C12.906000137329102,-28.575000762939453 -1.7400000095367432,-21.180999755859375 -1.7400000095367432,-21.180999755859375 C-1.7400000095367432,-21.180999755859375 -7.2170000076293945,-13.333000183105469 -7.2170000076293945,-13.333000183105469z"></path></g></g></g><g style="display: none;"><g><path></path></g></g><g style="display: block;" transform="matrix(0.9894108176231384,-0.021100832149386406,0.021421002224087715,0.9943384528160095,512.3012084960938,225.257080078125)" opacity="1"><g opacity="1" transform="matrix(1,0,0,1,101.84200286865234,155.73800659179688)"><path stroke-linecap="round" stroke-linejoin="round" fill-opacity="0" stroke="rgb(221,136,107)" stroke-opacity="1" stroke-width="11.008" d=" M-15.199000358581543,-9.07699966430664 C-15.199000358581543,-9.07699966430664 -16.472000122070312,-5.3420000076293945 -7.729000091552734,6.241000175476074 C2.5360000133514404,19.84000015258789 8.857000350952148,22.016000747680664 8.857000350952148,22.016000747680664"></path></g><g opacity="1" transform="matrix(1,0,0,1,81.78500366210938,42.58300018310547)"><path fill="rgb(255,201,153)" fill-opacity="1" d=" M5.369999885559082,-16.246000289916992 C5.369999885559082,-16.246000289916992 -5.369999885559082,-6.75 -1.7960000038146973,4.748000144958496 C1.7790000438690186,16.246000289916992 3.8570001125335693,15.814000129699707 3.8570001125335693,15.814000129699707"></path></g><g opacity="1" transform="matrix(1,0,0,1,81.78500366210938,42.58300018310547)"><path stroke-linecap="round" stroke-linejoin="round" fill-opacity="0" stroke="rgb(211,113,87)" stroke-opacity="1" stroke-width="10.535" d=" M5.369999885559082,-16.246000289916992 C5.369999885559082,-16.246000289916992 -5.369999885559082,-6.75 -1.7960000038146973,4.748000144958496 C1.7790000438690186,16.246000289916992 3.8570001125335693,15.814000129699707 3.8570001125335693,15.814000129699707"></path></g><g opacity="0.56" transform="matrix(1,0,0,1,72.24199676513672,133.5570068359375)"><path fill="rgb(211,107,83)" fill-opacity="1" d=" M-39.737998962402344,-29.740999221801758 C-39.737998962402344,-29.740999221801758 -33.970001220703125,-8.640999794006348 -19.868999481201172,11.732000350952148 C-5.76800012588501,32.104000091552734 -0.6399999856948853,31.37700080871582 6.409999847412109,27.73900032043457 C13.460000038146973,24.10099983215332 39.73899841308594,-21.010000228881836 39.73899841308594,-21.010000228881836 C39.73899841308594,-21.010000228881836 24.996999740600586,-7.185999870300293 8.973999977111816,-13.005999565124512 C-7.050000190734863,-18.82699966430664 -39.737998962402344,-29.740999221801758 -39.737998962402344,-29.740999221801758z"></path></g><g opacity="1" transform="matrix(1,0,0,1,77.17500305175781,109.86799621582031)"><path stroke-linecap="round" stroke-linejoin="round" fill-opacity="0" stroke="rgb(211,113,87)" stroke-opacity="1" stroke-width="14.834" d=" M18.26099967956543,-30.381000518798828 C18.26099967956543,-30.381000518798828 24.13800048828125,-20.527999877929688 32.11399841308594,-7.801000118255615 C40.09000015258789,4.927000045776367 39.25,5.131999969482422 35.47200012207031,9.442999839782715 C31.694000244140625,13.753000259399414 26.027000427246094,27.917999267578125 18.47100067138672,29.14900016784668 C10.914999961853027,30.381000518798828 2.0989999771118164,22.990999221801758 -8.604999542236328,18.06399917602539 C-19.309999465942383,13.137999534606934 -40.09000015258789,8.211000442504883 -38.20100021362305,-2.257999897003174 C-36.31100082397461,-12.72700023651123 -35.051998138427734,-27.506999969482422 -26.23699951171875,-26.274999618530273 C-17.42099952697754,-25.04400062561035 -8.604999542236328,-11.496000289916992 -8.604999542236328,-11.496000289916992"></path></g></g><g style="display: block;" transform="matrix(0.9894108176231384,-0.021100832149386406,0.021421002224087715,0.9943384528160095,593.4993286132812,224.08349609375)" opacity="1"><g opacity="1" transform="matrix(1,0,0,1,76.80699920654297,86.59300231933594)"><path stroke-linecap="round" stroke-linejoin="round" fill-opacity="0" stroke="rgb(211,113,87)" stroke-opacity="1" stroke-width="12.98" d=" M-25.358999252319336,-4.7729997634887695 C-25.358999252319336,-4.7729997634887695 -9.774999618530273,4.99399995803833 6.861000061035156,4.677999973297119 C23.496000289916992,4.361999988555908 19.176000595092773,-1.3619999885559082 25.358999252319336,-4.99399995803833"></path></g><g opacity="1" transform="matrix(1,0,0,1,62.96799850463867,42.470001220703125)"><path stroke-linecap="round" stroke-linejoin="round" fill-opacity="0" stroke="rgb(211,113,87)" stroke-opacity="1" stroke-width="11.793" d=" M25.71500015258789,-31.209999084472656 C25.71500015258789,-31.209999084472656 -0.8140000104904175,-41.75600051879883 -19.78700065612793,-19.56599998474121 C-24.514999389648438,-14.03600025177002 -21.71500015258789,1.1050000190734863 -21.71500015258789,1.1050000190734863"></path></g><g opacity="1" transform="matrix(1,0,0,1,81.65499877929688,58.33700180053711)"><path stroke-linecap="round" stroke-linejoin="round" fill-opacity="0" stroke="rgb(130,64,58)" stroke-opacity="1" stroke-width="14.542" d=" M-43.16899871826172,-17.91900062561035 C-43.16899871826172,-17.91900062561035 -40.82699966430664,-32.641998291015625 -16.253000259399414,-37.441001892089844 C0.9940000176429749,-40.808998107910156 15.782999992370605,-29.5049991607666 18.542999267578125,-24.434999465942383 C22.961000442504883,-16.319000244140625 21.77199935913086,-18.434999465942383 21.77199935913086,-18.434999465942383 C21.77199935913086,-18.434999465942383 24.722000122070312,-12.074000358581543 24.722000122070312,-12.074000358581543"></path></g><g opacity="1" transform="matrix(1,0,0,1,0,0)"><path fill="rgb(255,255,255)" fill-opacity="1" d=" M63.108001708984375,22.104000091552734 C52.132999420166016,24.434999465942383 40.06800079345703,38.75400161743164 42.75199890136719,56.404998779296875 C44.9370002746582,70.77899932861328 62.888999938964844,84.9540023803711 80.5979995727539,82.78299713134766 C100.73400115966797,80.31500244140625 110.17400360107422,62.3489990234375 104.58499908447266,43.525001525878906 C98.4280014038086,22.790000915527344 74.68299865722656,19.645999908447266 63.108001708984375,22.104000091552734z"></path><path stroke-linecap="round" stroke-linejoin="round" fill-opacity="0" stroke="rgb(58,49,76)" stroke-opacity="1" stroke-width="14.542" d=" M63.108001708984375,22.104000091552734 C52.132999420166016,24.434999465942383 40.06800079345703,38.75400161743164 42.75199890136719,56.404998779296875 C44.9370002746582,70.77899932861328 62.888999938964844,84.9540023803711 80.5979995727539,82.78299713134766 C100.73400115966797,80.31500244140625 110.17400360107422,62.3489990234375 104.58499908447266,43.525001525878906 C98.4280014038086,22.790000915527344 74.68299865722656,19.645999908447266 63.108001708984375,22.104000091552734z"></path></g><g opacity="1" transform="matrix(1,0,0,1,0,0)"><path fill="rgb(30,20,20)" fill-opacity="1" d=" M63.54100036621094,38.70600128173828 C56.97200012207031,39.08100128173828 54.45000076293945,49.47700119018555 56.41400146484375,54.65800094604492 C58.1510009765625,59.24100112915039 62.8120002746582,63.07899856567383 69.91000366210938,61.457000732421875 C76.9530029296875,59.84700012207031 81.17900085449219,53.12799835205078 78.54100036621094,46.0369987487793 C76.39900207519531,40.27799987792969 72.33899688720703,38.202999114990234 63.54100036621094,38.70600128173828z"></path></g><g opacity="1" transform="matrix(0.3799999952316284,0,0,0.3799999952316284,51,29)"><path fill="rgb(255,255,255)" fill-opacity="1" d=" M63.54100036621094,38.70600128173828 C56.97200012207031,39.08100128173828 54.45000076293945,49.47700119018555 56.41400146484375,54.65800094604492 C58.1510009765625,59.24100112915039 62.8120002746582,63.07899856567383 69.91000366210938,61.457000732421875 C76.9530029296875,59.84700012207031 81.17900085449219,53.12799835205078 78.54100036621094,46.0369987487793 C76.39900207519531,40.27799987792969 72.33899688720703,38.202999114990234 63.54100036621094,38.70600128173828z"></path></g><g opacity="0" transform="matrix(1,0,0,1,0,0)"><path fill="rgb(255,207,174)" fill-opacity="1" d=" M77.52999877929688,81.94400024414062 C53.290000915527344,80.04299926757812 43.845001220703125,61.465999603271484 43.845001220703125,61.465999603271484 C43.845001220703125,61.465999603271484 45.481998443603516,82.77400207519531 76.84600067138672,82.94999694824219 C103.80400085449219,83.10199737548828 105.5009994506836,62.856998443603516 105.5009994506836,62.856998443603516 C105.5009994506836,62.856998443603516 100.21700286865234,83.7229995727539 77.52999877929688,81.94400024414062z"></path><path stroke-linecap="round" stroke-linejoin="round" fill-opacity="0" stroke="rgb(183,99,57)" stroke-opacity="1" stroke-width="11" d=" M77.52999877929688,81.94400024414062 C53.290000915527344,80.04299926757812 43.845001220703125,61.465999603271484 43.845001220703125,61.465999603271484 C43.845001220703125,61.465999603271484 45.481998443603516,82.77400207519531 76.84600067138672,82.94999694824219 C103.80400085449219,83.10199737548828 105.5009994506836,62.856998443603516 105.5009994506836,62.856998443603516 C105.5009994506836,62.856998443603516 100.21700286865234,83.7229995727539 77.52999877929688,81.94400024414062z"></path></g></g><g style="display: block;" transform="matrix(0.9894108176231384,-0.021100832149386406,0.021421002224087715,0.9943384528160095,391.78558349609375,183.05255126953125)" opacity="1"><g opacity="1" transform="matrix(1,0,0,1,102.90899658203125,70.53099822998047)"><path stroke-linecap="round" stroke-linejoin="round" fill-opacity="0" stroke="rgb(211,113,87)" stroke-opacity="1" stroke-width="10.462" d=" M-26.062999725341797,-16.861000061035156 C-26.062999725341797,-16.861000061035156 -4.495999813079834,-27.908000946044922 14.979999542236328,-10.836999893188477 C25.082000732421875,-1.9819999933242798 26.062999725341797,7.263000011444092 25.09000015258789,13.274999618530273 C24.118000030517578,19.288000106811523 19.90399932861328,27.908000946044922 19.90399932861328,27.908000946044922"></path></g><g opacity="1" transform="matrix(1,0,0,1,77.40899658203125,129.0500030517578)"><path stroke-linecap="round" stroke-linejoin="round" fill-opacity="0" stroke="rgb(211,113,87)" stroke-opacity="1" stroke-width="13.66" d=" M-43.25899887084961,1.3880000114440918 C-43.25899887084961,1.3880000114440918 -33.279998779296875,12.133999824523926 -13.5,16.35099983215332 C6.28000020980835,20.56800079345703 14.461999893188477,11.571000099182129 22.055999755859375,7.941999912261963 C29.649999618530273,4.311999797821045 37.94499969482422,0.8569999933242798 39.933998107910156,-4.163000106811523 C41.92300033569336,-9.182999610900879 43.25899887084961,-20.56800079345703 43.25899887084961,-20.56800079345703"></path></g><g opacity="1" transform="matrix(1,0,0,1,84.24400329589844,46.2859992980957)"><path stroke-linecap="round" stroke-linejoin="round" fill-opacity="0" stroke="rgb(130,64,58)" stroke-opacity="1" stroke-width="13.725" d=" M-28.898000717163086,11.973999977111816 C-28.898000717163086,11.973999977111816 -14.423999786376953,-2.4230000972747803 -4.742000102996826,-6.806000232696533 C4.940999984741211,-11.1899995803833 11.005000114440918,-11.973999977111816 18.069000244140625,-11.74899959564209 C20.371999740600586,-11.675999641418457 28.898000717163086,-9.449999809265137 28.898000717163086,-9.449999809265137"></path></g><g opacity="1" transform="matrix(1,0,0,1,88.6729965209961,97.38700103759766)"><path fill="rgb(179,197,242)" fill-opacity="1" d=" M-31.937999725341797,-20.697999954223633 C-31.937999725341797,-20.697999954223633 -46.45500183105469,16.099000930786133 -9.111000061035156,28.530000686645508 C28.233999252319336,40.96200180053711 46.45500183105469,14.58899974822998 41.29600143432617,-8.07800006866455 C36.13800048828125,-30.743999481201172 19.775999069213867,-39.43899917602539 -1.9479999542236328,-40.191001892089844 C-24.216999053955078,-40.96200180053711 -31.937999725341797,-20.697999954223633 -31.937999725341797,-20.697999954223633z"></path></g><g opacity="1" transform="matrix(1,0,0,1,88.6729965209961,97.38700103759766)"><path stroke-linecap="round" stroke-linejoin="round" fill-opacity="0" stroke="rgb(58,49,76)" stroke-opacity="1" stroke-width="13.368" d=" M-31.937999725341797,-20.697999954223633 C-31.937999725341797,-20.697999954223633 -46.45500183105469,16.099000930786133 -9.111000061035156,28.530000686645508 C28.233999252319336,40.96200180053711 46.45500183105469,14.58899974822998 41.29600143432617,-8.07800006866455 C36.13800048828125,-30.743999481201172 19.775999069213867,-39.43899917602539 -1.9479999542236328,-40.191001892089844 C-24.216999053955078,-40.96200180053711 -31.937999725341797,-20.697999954223633 -31.937999725341797,-20.697999954223633z"></path></g><g opacity="1" transform="matrix(1,0,0,1,92.5260009765625,94.1510009765625)"><path fill="rgb(255,255,255)" fill-opacity="1" d=" M-21.190000534057617,-14.711999893188477 C-21.190000534057617,-14.711999893188477 -31.590999603271484,12.527000427246094 -6.385000228881836,21.118000030517578 C18.82200050354004,29.708999633789062 31.590999603271484,10.072999954223633 28.41200065612793,-6.501999855041504 C25.232999801635742,-23.07699966430664 14.236000061035156,-29.226999282836914 -0.5210000276565552,-29.46500015258789 C-15.64799976348877,-29.708999633789062 -21.190000534057617,-14.711999893188477 -21.190000534057617,-14.711999893188477z"></path></g><g opacity="1" transform="matrix(1,0,0,1,87.55899810791016,92.50299835205078)"><path fill="rgb(30,20,20)" fill-opacity="1" d=" M-10.592000007629395,-7.340000152587891 C-10.592000007629395,-7.340000152587891 -15.779999732971191,6.232999801635742 -3.186000108718872,10.522000312805176 C9.407999992370605,14.812000274658203 15.779999732971191,5.03000020980835 14.187000274658203,-3.2320001125335693 C12.593999862670898,-11.494000434875488 7.098999977111816,-14.564000129699707 -0.2720000147819519,-14.687000274658203 C-7.828000068664551,-14.812999725341797 -10.592000007629395,-7.340000152587891 -10.592000007629395,-7.340000152587891z"></path></g><g opacity="1" transform="matrix(1,0,0,1,100.26399993896484,91.66500091552734)"><path fill="rgb(255,255,255)" fill-opacity="1" d=" M-4.552999973297119,-2.7929999828338623 C-4.552999973297119,-2.7929999828338623 -6.498000144958496,1.996999979019165 -1.24399995803833,3.7139999866485596 C4.011000156402588,5.429999828338623 6.498000144958496,2.0169999599456787 5.7230000495910645,-0.9660000205039978 C4.948999881744385,-3.950000047683716 2.6389999389648438,-5.129000186920166 -0.40299999713897705,-5.2779998779296875 C-3.5209999084472656,-5.431000232696533 -4.552999973297119,-2.7929999828338623 -4.552999973297119,-2.7929999828338623z"></path></g><g opacity="0" transform="matrix(1,0,0,1,0,0)"><path fill="rgb(255,207,174)" fill-opacity="1" d=" M92.41100311279297,128.62399291992188 C65.62899780273438,128.55799865722656 52.70600128173828,101.08899688720703 52.70600128173828,101.08899688720703 C52.70600128173828,101.08899688720703 53.3650016784668,127.00700378417969 94.02400207519531,130.5850067138672 C125.52200317382812,133.35699462890625 131.31100463867188,105.73500061035156 131.31100463867188,105.73500061035156 C131.31100463867188,105.73500061035156 122.72899627685547,128.69900512695312 92.41100311279297,128.62399291992188z"></path><path stroke-linecap="round" stroke-linejoin="round" fill-opacity="0" stroke="rgb(183,99,57)" stroke-opacity="1" stroke-width="11" d=" M92.41100311279297,128.62399291992188 C65.62899780273438,128.55799865722656 52.70600128173828,101.08899688720703 52.70600128173828,101.08899688720703 C52.70600128173828,101.08899688720703 53.3650016784668,127.00700378417969 94.02400207519531,130.5850067138672 C125.52200317382812,133.35699462890625 131.31100463867188,105.73500061035156 131.31100463867188,105.73500061035156 C131.31100463867188,105.73500061035156 122.72899627685547,128.69900512695312 92.41100311279297,128.62399291992188z"></path></g></g><g style="display: block;" transform="matrix(0.9894108176231384,-0.021100832149386406,0.021421002224087715,0.9943384528160095,378.56298828125,139.72470092773438)" opacity="1"><g opacity="1" transform="matrix(1,0,0,1,106.36000061035156,58.31800079345703)"><path fill="rgb(20,20,35)" fill-opacity="1" d=" M-64.01200103759766,3.6440000534057617 C-64.01200103759766,3.6440000534057617 -1.8450000286102295,-15.067000389099121 13.732999801635742,-16.836000442504883 C29.309999465942383,-18.606000900268555 40.58599853515625,-11.170000076293945 46.375,-3.437999963760376 C52.16400146484375,4.294000148773193 71.6989974975586,18.749000549316406 69.00599670410156,20.73200035095215 C66.31199645996094,22.71500015258789 41.40399932861328,2.177000045776367 20.038000106811523,-3.7850000858306885 C-1.3289999961853027,-9.748000144958496 -57.20000076293945,6.880000114440918 -61.452999114990234,5.1620001792907715 C-65.70600128173828,3.444999933242798 -64.01200103759766,3.6440000534057617 -64.01200103759766,3.6440000534057617z"></path><path stroke-linecap="round" stroke-linejoin="round" fill-opacity="0" stroke="rgb(14,14,45)" stroke-opacity="1" stroke-width="15.063" d=" M-64.01200103759766,3.6440000534057617 C-64.01200103759766,3.6440000534057617 -1.8450000286102295,-15.067000389099121 13.732999801635742,-16.836000442504883 C29.309999465942383,-18.606000900268555 40.58599853515625,-11.170000076293945 46.375,-3.437999963760376 C52.16400146484375,4.294000148773193 71.6989974975586,18.749000549316406 69.00599670410156,20.73200035095215 C66.31199645996094,22.71500015258789 41.40399932861328,2.177000045776367 20.038000106811523,-3.7850000858306885 C-1.3289999961853027,-9.748000144958496 -57.20000076293945,6.880000114440918 -61.452999114990234,5.1620001792907715 C-65.70600128173828,3.444999933242798 -64.01200103759766,3.6440000534057617 -64.01200103759766,3.6440000534057617z"></path></g><g opacity="1" transform="matrix(1,0,0,1,281.0249938964844,97.66000366210938)"><path fill="rgb(20,20,35)" fill-opacity="1" d=" M-49.691001892089844,-14.5649995803833 C-49.691001892089844,-14.5649995803833 -30.58799934387207,-22.783000946044922 -13.069999694824219,-27.552000045776367 C20.05900001525879,-36.56999969482422 55.64500045776367,-11.611000061035156 62.9640007019043,-9.229999542236328 C66.26300048828125,-8.157999992370605 12.946999549865723,-18.066999435424805 -0.6159999966621399,-15.781000137329102 C-22.825000762939453,-12.036999702453613 -43.803001403808594,-3.5320000648498535 -48.64799880981445,-7.706999778747559 C-53.49300003051758,-11.881999969482422 -49.691001892089844,-14.5649995803833 -49.691001892089844,-14.5649995803833z"></path><path stroke-linecap="round" stroke-linejoin="round" fill-opacity="0" stroke="rgb(14,14,45)" stroke-opacity="1" stroke-width="14.09" d=" M-49.691001892089844,-14.5649995803833 C-49.691001892089844,-14.5649995803833 -30.58799934387207,-22.783000946044922 -13.069999694824219,-27.552000045776367 C20.05900001525879,-36.56999969482422 55.64500045776367,-11.611000061035156 62.9640007019043,-9.229999542236328 C66.26300048828125,-8.157999992370605 12.946999549865723,-18.066999435424805 -0.6159999966621399,-15.781000137329102 C-22.825000762939453,-12.036999702453613 -43.803001403808594,-3.5320000648498535 -48.64799880981445,-7.706999778747559 C-53.49300003051758,-11.881999969482422 -49.691001892089844,-14.5649995803833 -49.691001892089844,-14.5649995803833z"></path></g></g><g style="display: block;" transform="matrix(0.9894049167633057,-0.021105151623487473,0.021210292354226112,0.994333803653717,213.3270263671875,-35.55657958984375)" opacity="1"><g opacity="1" transform="matrix(1,0,0,1,266.78900146484375,208.51400756835938)"><path fill="rgb(20,20,35)" fill-opacity="1" d=" M-221.10499572753906,168.84500122070312 C-221.10499572753906,168.84500122070312 -227.38499450683594,68.35199737548828 -216.1840057373047,41.39099884033203 C-204.98300170898438,14.430000305175781 -118.7760009765625,-89.88300323486328 -83.4209976196289,-106.2020034790039 C-48.06700134277344,-122.5199966430664 12.156999588012695,-123.3479995727539 73.3550033569336,-122.8499984741211 C134.5540008544922,-122.35099792480469 191.8179931640625,-135.78700256347656 206.67999267578125,-151.8040008544922 C222.73699951171875,-169.10899353027344 227.38400268554688,-80.28500366210938 177.44700622558594,-49.354000091552734 C137.16000366210938,-24.400999069213867 102.18499755859375,-31.590999603271484 44.9109992980957,-37.14699935913086 C-12.36299991607666,-42.702999114990234 -40.32600021362305,-61.15800094604492 -138.4949951171875,21.47599983215332 C-172.49600219726562,50.09700012207031 -179.44400024414062,104.44300079345703 -184.4709930419922,129.71299743652344 C-189.4980010986328,154.98399353027344 -205.10400390625,169.10899353027344 -213.5279998779297,167.4340057373047 C-221.9510040283203,165.75799560546875 -221.10499572753906,168.84500122070312 -221.10499572753906,168.84500122070312z"></path><path stroke-linecap="round" stroke-linejoin="round" fill-opacity="0" stroke="rgb(14,14,45)" stroke-opacity="1" stroke-width="15.762" d=" M-221.10499572753906,168.84500122070312 C-221.10499572753906,168.84500122070312 -227.38499450683594,68.35199737548828 -216.1840057373047,41.39099884033203 C-204.98300170898438,14.430000305175781 -118.7760009765625,-89.88300323486328 -83.4209976196289,-106.2020034790039 C-48.06700134277344,-122.5199966430664 12.156999588012695,-123.3479995727539 73.3550033569336,-122.8499984741211 C134.5540008544922,-122.35099792480469 191.8179931640625,-135.78700256347656 206.67999267578125,-151.8040008544922 C222.73699951171875,-169.10899353027344 227.38400268554688,-80.28500366210938 177.44700622558594,-49.354000091552734 C137.16000366210938,-24.400999069213867 102.18499755859375,-31.590999603271484 44.9109992980957,-37.14699935913086 C-12.36299991607666,-42.702999114990234 -40.32600021362305,-61.15800094604492 -138.4949951171875,21.47599983215332 C-172.49600219726562,50.09700012207031 -179.44400024414062,104.44300079345703 -184.4709930419922,129.71299743652344 C-189.4980010986328,154.98399353027344 -205.10400390625,169.10899353027344 -213.5279998779297,167.4340057373047 C-221.9510040283203,165.75799560546875 -221.10499572753906,168.84500122070312 -221.10499572753906,168.84500122070312z"></path></g><g opacity="1" transform="matrix(1,0,0,1,228.33299255371094,132.97799682617188)"><path stroke-linecap="round" stroke-linejoin="round" fill-opacity="0" stroke="rgb(97,97,135)" stroke-opacity="1" stroke-width="17.815" d=" M-104.4260025024414,44.391998291015625 C-104.4260025024414,44.391998291015625 -45.03799819946289,-17.985000610351562 -17.35700035095215,-25.28499984741211 C10.324000358581543,-32.58599853515625 0.33899998664855957,-28.145999908447266 39.51100158691406,-26.85099983215332"></path></g><g opacity="1" transform="matrix(1,0,0,1,404.0780029296875,98.90599822998047)"><path stroke-linecap="round" stroke-linejoin="round" fill-opacity="0" stroke="rgb(76,76,114)" stroke-opacity="1" stroke-width="17.815" d=" M-58.74399948120117,10.409000396728516 C-58.74399948120117,10.409000396728516 -29.742000579833984,10.20199966430664 -16.28499984741211,8.255000114440918 C4.045000076293945,5.314000129699707 20.180999755859375,-0.996999979019165 20.180999755859375,-0.996999979019165"></path></g></g><g style="display: block;" transform="matrix(1.0144400596618652,0,0,1.0022200345993042,157.27053833007812,603.302978515625)" opacity="1"><g opacity="1" transform="matrix(1,0,0,1,98.17900085449219,95.375)"><path fill="rgb(237,152,110)" fill-opacity="1" d=" M-23.2810001373291,40.334999084472656 C-23.2810001373291,40.334999084472656 -43.13999938964844,-10.598999977111816 -28.604999542236328,-21.718000411987305 C-14.071000099182129,-32.8380012512207 35.643001556396484,-40.334999084472656 39.39099884033203,-37.39500045776367 C43.138999938964844,-34.45500183105469 29.95599937438965,10.701000213623047 29.95599937438965,10.701000213623047 C29.95599937438965,10.701000213623047 -23.2810001373291,40.334999084472656 -23.2810001373291,40.334999084472656z"></path></g><g opacity="1" transform="matrix(1,0,0,1,98.17900085449219,95.375)"><path stroke-linecap="butt" stroke-linejoin="miter" fill-opacity="0" stroke-miterlimit="10" stroke="rgb(155,80,47)" stroke-opacity="1" stroke-width="22.016" d=" M-23.2810001373291,40.334999084472656 C-23.2810001373291,40.334999084472656 -43.13999938964844,-10.598999977111816 -28.604999542236328,-21.718000411987305 C-14.071000099182129,-32.8380012512207 35.643001556396484,-40.334999084472656 39.39099884033203,-37.39500045776367 C43.138999938964844,-34.45500183105469 29.95599937438965,10.701000213623047 29.95599937438965,10.701000213623047 C29.95599937438965,10.701000213623047 -23.2810001373291,40.334999084472656 -23.2810001373291,40.334999084472656z"></path></g></g><g style="display: block;" transform="matrix(1.0122565031051636,-0.06572287529706955,0.06652422994375229,1.0000627040863037,-48.82648468017578,512.4010620117188)" opacity="1"><g opacity="1" transform="matrix(1,0,0,1,689.0260009765625,333.1570129394531)"><path fill="rgb(89,95,114)" fill-opacity="1" d=" M-47.948001861572266,-38.16400146484375 C-46.29199981689453,-42.67499923706055 -42.68199920654297,-45.29600143432617 -38.86600112915039,-44.702999114990234 C-38.86600112915039,-44.702999114990234 27.163000106811523,-32.814998626708984 41.86399841308594,-29.542999267578125 C47.12799835205078,-28.371999740600586 53.42599868774414,-21.841999053955078 53.880001068115234,-11.201000213623047 C54.33399963378906,-0.5600000023841858 50.34000015258789,15.050000190734863 48.4010009765625,24.30699920654297 C47.14899826049805,30.284000396728516 41.310001373291016,45.29600143432617 28.464000701904297,44.507999420166016 C23.60700035095215,44.209999084472656 -22.222000122070312,33.34000015258789 -50.137001037597656,28.844999313354492 C-54.33300018310547,28.16900062561035 -51.14099884033203,18.750999450683594 -51.73099899291992,13.218999862670898 C-52.617000579833984,4.914999961853027 -53.395999908447266,-3.1630001068115234 -52.683998107910156,-12.487000465393066 C-52.04100036621094,-20.909000396728516 -49.92399978637695,-32.78099822998047 -47.948001861572266,-38.16400146484375z"></path></g><g opacity="1" transform="matrix(1,0,0,1,689.0260009765625,333.1570129394531)"><path stroke-linecap="butt" stroke-linejoin="miter" fill-opacity="0" stroke-miterlimit="10" stroke="rgb(34,40,53)" stroke-opacity="1" stroke-width="18.4" d=" M-47.948001861572266,-38.16400146484375 C-46.29199981689453,-42.67499923706055 -42.68199920654297,-45.29600143432617 -38.86600112915039,-44.702999114990234 C-38.86600112915039,-44.702999114990234 27.163000106811523,-32.814998626708984 41.86399841308594,-29.542999267578125 C47.12799835205078,-28.371999740600586 53.42599868774414,-21.841999053955078 53.880001068115234,-11.201000213623047 C54.33399963378906,-0.5600000023841858 50.34000015258789,15.050000190734863 48.4010009765625,24.30699920654297 C47.14899826049805,30.284000396728516 41.310001373291016,45.29600143432617 28.464000701904297,44.507999420166016 C23.60700035095215,44.209999084472656 -22.222000122070312,33.34000015258789 -50.137001037597656,28.844999313354492 C-54.33300018310547,28.16900062561035 -51.14099884033203,18.750999450683594 -51.73099899291992,13.218999862670898 C-52.617000579833984,4.914999961853027 -53.395999908447266,-3.1630001068115234 -52.683998107910156,-12.487000465393066 C-52.04100036621094,-20.909000396728516 -49.92399978637695,-32.78099822998047 -47.948001861572266,-38.16400146484375z"></path></g><g opacity="1" transform="matrix(1,0,0,1,108.70099639892578,220.42799377441406)"><path fill="rgb(77,85,104)" fill-opacity="1" d=" M46.82099914550781,-132.7449951171875 C43.845001220703125,-135.76499938964844 45.64400100708008,-143.30799865722656 43.15299987792969,-144.11399841308594 C39.72600173950195,-145.2239990234375 13.61299991607666,-148.33299255371094 13.291999816894531,-148.4010009765625 C11.888999938964844,-148.69500732421875 4.642000198364258,-146.4199981689453 4.10699987411499,-143.88800048828125 C-10.22599983215332,-134.7760009765625 -36.1619987487793,-95.77999877929688 -50.35900115966797,-28.149999618530273 C-66.07499694824219,46.71200180053711 -67.41899871826172,130.39100646972656 -49.62900161743164,137.85699462890625 C-46.35100173950195,142.0189971923828 -36.321998596191406,145.55799865722656 -27.163000106811523,147.00999450683594 C-16.527000427246094,148.6959991455078 -13.178000450134277,146.968994140625 -4.854000091552734,141.3489990234375 C13.847000122070312,132.2899932861328 37.70100021362305,79.04199981689453 51.762001037597656,12.064000129699707 C67.41899871826172,-62.513999938964844 65.11000061035156,-126.3759994506836 46.82099914550781,-132.7449951171875z"></path></g><g opacity="1" transform="matrix(1,0,0,1,108.70099639892578,220.42799377441406)"><path stroke-linecap="butt" stroke-linejoin="miter" fill-opacity="0" stroke-miterlimit="10" stroke="rgb(34,40,53)" stroke-opacity="1" stroke-width="16.513" d=" M46.82099914550781,-132.7449951171875 C43.845001220703125,-135.76499938964844 45.64400100708008,-143.30799865722656 43.15299987792969,-144.11399841308594 C39.72600173950195,-145.2239990234375 13.61299991607666,-148.33299255371094 13.291999816894531,-148.4010009765625 C11.888999938964844,-148.69500732421875 4.642000198364258,-146.4199981689453 4.10699987411499,-143.88800048828125 C-10.22599983215332,-134.7760009765625 -36.1619987487793,-95.77999877929688 -50.35900115966797,-28.149999618530273 C-66.07499694824219,46.71200180053711 -67.41899871826172,130.39100646972656 -49.62900161743164,137.85699462890625 C-46.35100173950195,142.0189971923828 -36.321998596191406,145.55799865722656 -27.163000106811523,147.00999450683594 C-16.527000427246094,148.6959991455078 -13.178000450134277,146.968994140625 -4.854000091552734,141.3489990234375 C13.847000122070312,132.2899932861328 37.70100021362305,79.04199981689453 51.762001037597656,12.064000129699707 C67.41899871826172,-62.513999938964844 65.11000061035156,-126.3759994506836 46.82099914550781,-132.7449951171875z"></path></g><g opacity="1" transform="matrix(1,0,0,1,83.66600036621094,202.9409942626953)"><path stroke-linecap="round" stroke-linejoin="round" fill-opacity="0" stroke="rgb(117,132,150)" stroke-opacity="1" stroke-width="19.314" d=" M12.515000343322754,-56.59199905395508 C12.515000343322754,-56.59199905395508 3.878999948501587,-39.00299835205078 -4.422999858856201,-2.696000099182129 C-10.373000144958496,23.329999923706055 -12.515000343322754,56.59199905395508 -12.515000343322754,56.59199905395508"></path></g><g opacity="1" transform="matrix(1,0,0,1,158.56700134277344,231.6959991455078)"><path fill="rgb(89,95,114)" fill-opacity="1" d=" M59.4900016784668,-174.97900390625 C55.60200119018555,-178.9239959716797 50.98400115966797,-183.03700256347656 47.72999954223633,-184.09100341796875 C43.25299835205078,-185.54100036621094 29.472999572753906,-188.6909942626953 19.40999984741211,-189.64100646972656 C19.003000259399414,-189.7729949951172 18.604999542236328,-189.9409942626953 18.18600082397461,-190.0290069580078 C16.35300064086914,-190.41400146484375 14.449000358581543,-190.31300354003906 12.496999740600586,-189.85000610351562 C10.847999572753906,-189.73800659179688 9.531000137329102,-189.4759979248047 8.795999526977539,-188.97500610351562 C8.680000305175781,-188.89599609375 8.508999824523926,-188.64599609375 8.312000274658203,-188.30999755859375 C-16.121000289916992,-175.8419952392578 -47.32099914550781,-105.47100067138672 -65.86699676513672,-17.125999450683594 C-86.39700317382812,80.66699981689453 -83.8759994506836,164.53199768066406 -60.637001037597656,174.28399658203125 C-56.35499954223633,179.7220001220703 -55.05099868774414,183.6009979248047 -43.084999084472656,185.4980010986328 C-29.191999435424805,187.7010040283203 -18.886999130249023,190.41400146484375 -8.013999938964844,183.072998046875 C16.416000366210938,171.24000549316406 47.57600021362305,101.68099975585938 65.94400024414062,14.187000274658203 C86.39600372314453,-83.23500061035156 83.38099670410156,-166.65899658203125 59.4900016784668,-174.97900390625z"></path></g><g opacity="1" transform="matrix(1,0,0,1,158.56700134277344,231.6959991455078)"><path stroke-linecap="butt" stroke-linejoin="miter" fill-opacity="0" stroke-miterlimit="10" stroke="rgb(34,40,53)" stroke-opacity="1" stroke-width="16.513" d=" M59.4900016784668,-174.97900390625 C55.60200119018555,-178.9239959716797 50.98400115966797,-183.03700256347656 47.72999954223633,-184.09100341796875 C43.25299835205078,-185.54100036621094 29.472999572753906,-188.6909942626953 19.40999984741211,-189.64100646972656 C19.003000259399414,-189.7729949951172 18.604999542236328,-189.9409942626953 18.18600082397461,-190.0290069580078 C16.35300064086914,-190.41400146484375 14.449000358581543,-190.31300354003906 12.496999740600586,-189.85000610351562 C10.847999572753906,-189.73800659179688 9.531000137329102,-189.4759979248047 8.795999526977539,-188.97500610351562 C8.680000305175781,-188.89599609375 8.508999824523926,-188.64599609375 8.312000274658203,-188.30999755859375 C-16.121000289916992,-175.8419952392578 -47.32099914550781,-105.47100067138672 -65.86699676513672,-17.125999450683594 C-86.39700317382812,80.66699981689453 -83.8759994506836,164.53199768066406 -60.637001037597656,174.28399658203125 C-56.35499954223633,179.7220001220703 -55.05099868774414,183.6009979248047 -43.084999084472656,185.4980010986328 C-29.191999435424805,187.7010040283203 -18.886999130249023,190.41400146484375 -8.013999938964844,183.072998046875 C16.416000366210938,171.24000549316406 47.57600021362305,101.68099975585938 65.94400024414062,14.187000274658203 C86.39600372314453,-83.23500061035156 83.38099670410156,-166.65899658203125 59.4900016784668,-174.97900390625z"></path></g><g opacity="1" transform="matrix(1,0,0,1,189.11599731445312,236.75900268554688)"><path fill="rgb(55,63,79)" fill-opacity="1" d=" M42.231998443603516,8.866000175476074 C22.343000411987305,103.6050033569336 -12.687999725341797,176.43600463867188 -36.012001037597656,171.53900146484375 C-59.33599853515625,166.64300537109375 -62.12099838256836,85.87300109863281 -42.231998443603516,-8.866000175476074 C-22.3439998626709,-103.60399627685547 12.687000274658203,-176.43600463867188 36.01100158691406,-171.53900146484375 C59.33599853515625,-166.64300537109375 62.12099838256836,-85.87300109863281 42.231998443603516,8.866000175476074z"></path></g><g opacity="1" transform="matrix(1,0,0,1,189.11599731445312,236.75900268554688)"><path stroke-linecap="round" stroke-linejoin="round" fill-opacity="0" stroke="rgb(34,40,53)" stroke-opacity="1" stroke-width="18.061" d=" M42.231998443603516,8.866000175476074 C22.343000411987305,103.6050033569336 -12.687999725341797,176.43600463867188 -36.012001037597656,171.53900146484375 C-59.33599853515625,166.64300537109375 -62.12099838256836,85.87300109863281 -42.231998443603516,-8.866000175476074 C-22.3439998626709,-103.60399627685547 12.687000274658203,-176.43600463867188 36.01100158691406,-171.53900146484375 C59.33599853515625,-166.64300537109375 62.12099838256836,-85.87300109863281 42.231998443603516,8.866000175476074z"></path></g><g opacity="1" transform="matrix(1,0,0,1,194.16000366210938,238.0279998779297)"><path fill="rgb(38,47,58)" fill-opacity="1" d=" M12.642000198364258,2.6540000438690186 C6.271999835968018,32.999000549316406 -4.552000045776367,56.40999984741211 -11.534000396728516,54.944000244140625 C-18.516000747680664,53.479000091552734 -19.011999130249023,27.69099998474121 -12.640999794006348,-2.6540000438690186 C-6.270999908447266,-32.999000549316406 4.552999973297119,-56.40999984741211 11.53499984741211,-54.944000244140625 C18.517000198364258,-53.47800064086914 19.011999130249023,-27.69099998474121 12.642000198364258,2.6540000438690186z"></path></g><g opacity="1" transform="matrix(1,0,0,1,194.16000366210938,238.0279998779297)"><path stroke-linecap="round" stroke-linejoin="round" fill-opacity="0" stroke="rgb(34,40,53)" stroke-opacity="1" stroke-width="14.879" d=" M12.642000198364258,2.6540000438690186 C6.271999835968018,32.999000549316406 -4.552000045776367,56.40999984741211 -11.534000396728516,54.944000244140625 C-18.516000747680664,53.479000091552734 -19.011999130249023,27.69099998474121 -12.640999794006348,-2.6540000438690186 C-6.270999908447266,-32.999000549316406 4.552999973297119,-56.40999984741211 11.53499984741211,-54.944000244140625 C18.517000198364258,-53.47800064086914 19.011999130249023,-27.69099998474121 12.642000198364258,2.6540000438690186z"></path></g><g opacity="1" transform="matrix(1,0,0,1,367.24798583984375,273.8999938964844)"><path fill="rgb(89,95,114)" fill-opacity="1" d=" M-147.2550048828125,-66.33999633789062 C-147.2550048828125,-66.33999633789062 179.98199462890625,-8.562000274658203 179.98199462890625,-8.562000274658203 C179.98199462890625,-8.562000274658203 162.61099243164062,68.10399627685547 162.61099243164062,68.10399627685547 C162.61099243164062,68.10399627685547 -160.44400024414062,6.804999828338623 -160.44400024414062,6.804999828338623 C-171.57699584960938,4.692999839782715 -179.73199462890625,-5.182000160217285 -179.88999938964844,-16.816999435424805 C-179.9810028076172,-23.55900001525879 -179.50999450683594,-31.173999786376953 -177.77699279785156,-38.34000015258789 C-176.1840057373047,-44.93199920654297 -174.2209930419922,-50.05699920654297 -172.13800048828125,-54.04199981689453 C-167.33599853515625,-63.22700119018555 -157.2480010986328,-68.10399627685547 -147.2550048828125,-66.33999633789062z"></path></g><g opacity="1" transform="matrix(1,0,0,1,367.24798583984375,273.8999938964844)"><path stroke-linecap="butt" stroke-linejoin="miter" fill-opacity="0" stroke-miterlimit="10" stroke="rgb(34,40,53)" stroke-opacity="1" stroke-width="19.729" d=" M-147.2550048828125,-66.33999633789062 C-147.2550048828125,-66.33999633789062 179.98199462890625,-8.562000274658203 179.98199462890625,-8.562000274658203 C179.98199462890625,-8.562000274658203 162.61099243164062,68.10399627685547 162.61099243164062,68.10399627685547 C162.61099243164062,68.10399627685547 -160.44400024414062,6.804999828338623 -160.44400024414062,6.804999828338623 C-171.57699584960938,4.692999839782715 -179.73199462890625,-5.182000160217285 -179.88999938964844,-16.816999435424805 C-179.9810028076172,-23.55900001525879 -179.50999450683594,-31.173999786376953 -177.77699279785156,-38.34000015258789 C-176.1840057373047,-44.93199920654297 -174.2209930419922,-50.05699920654297 -172.13800048828125,-54.04199981689453 C-167.33599853515625,-63.22700119018555 -157.2480010986328,-68.10399627685547 -147.2550048828125,-66.33999633789062z"></path></g><g opacity="1" transform="matrix(1,0,0,1,125.40499877929688,223.68899536132812)"><path stroke-linecap="round" stroke-linejoin="round" fill-opacity="0" stroke="rgb(154,170,193)" stroke-opacity="1" stroke-width="27.997" d=" M15.524999618530273,-82.56700134277344 C15.524999618530273,-82.56700134277344 3.822999954223633,-56.68600082397461 -6.531000137329102,-3.7019999027252197 C-13.95300006866455,34.27899932861328 -15.524999618530273,82.56600189208984 -15.524999618530273,82.56600189208984"></path></g><g opacity="1" transform="matrix(1,0,0,1,561.4949951171875,299.9159851074219)"><path fill="rgb(89,95,114)" fill-opacity="1" d=" M20.19700050354004,-190.78700256347656 C10.274999618530273,-189.5 1.2230000495910645,-183.2949981689453 -2.736999988555908,-174.10699462890625 C-12.522000312805176,-151.4040069580078 -29.190000534057617,-122.96399688720703 -47.59600067138672,-19.2549991607666 C-64.72599792480469,77.26699829101562 -72.02300262451172,161.7050018310547 -58.86600112915039,177.49000549316406 C-47.51499938964844,191.10800170898438 -8.678000450134277,191.6060028076172 0.9290000200271606,186.78700256347656 C19.993000030517578,177.2239990234375 30.743999481201172,100.28299713134766 41.03200149536133,57.09600067138672 C54.85599899291992,-0.9409999847412109 72.02300262451172,-130.2550048828125 69.85700225830078,-154.53399658203125 C67.69200134277344,-178.81300354003906 61.96799850463867,-183.87399291992188 55.26900100708008,-185.36500549316406 C51.91999816894531,-186.11099243164062 33.92100143432617,-191.6060028076172 22.632999420166016,-191.00999450683594 C21.805999755859375,-190.96600341796875 20.993000030517578,-190.88999938964844 20.19700050354004,-190.78700256347656z"></path></g><g opacity="1" transform="matrix(1,0,0,1,561.4949951171875,299.9159851074219)"><path stroke-linecap="butt" stroke-linejoin="miter" fill-opacity="0" stroke-miterlimit="10" stroke="rgb(34,40,53)" stroke-opacity="1" stroke-width="16.513" d=" M20.19700050354004,-190.78700256347656 C10.274999618530273,-189.5 1.2230000495910645,-183.2949981689453 -2.736999988555908,-174.10699462890625 C-12.522000312805176,-151.4040069580078 -29.190000534057617,-122.96399688720703 -47.59600067138672,-19.2549991607666 C-64.72599792480469,77.26699829101562 -72.02300262451172,161.7050018310547 -58.86600112915039,177.49000549316406 C-47.51499938964844,191.10800170898438 -8.678000450134277,191.6060028076172 0.9290000200271606,186.78700256347656 C19.993000030517578,177.2239990234375 30.743999481201172,100.28299713134766 41.03200149536133,57.09600067138672 C54.85599899291992,-0.9409999847412109 72.02300262451172,-130.2550048828125 69.85700225830078,-154.53399658203125 C67.69200134277344,-178.81300354003906 61.96799850463867,-183.87399291992188 55.26900100708008,-185.36500549316406 C51.91999816894531,-186.11099243164062 33.92100143432617,-191.6060028076172 22.632999420166016,-191.00999450683594 C21.805999755859375,-190.96600341796875 20.993000030517578,-190.88999938964844 20.19700050354004,-190.78700256347656z"></path></g><g opacity="1" transform="matrix(1,0,0,1,596.9769897460938,304.2130126953125)"><path fill="rgb(55,63,79)" fill-opacity="1" d=" M20.97800064086914,3.634000062942505 C3.5889999866485596,104.01200103759766 -19.89900016784668,183.7570037841797 -31.485000610351562,181.75 C-43.06999969482422,179.7429962158203 -38.36600112915039,96.74400329589844 -20.976999282836914,-3.634000062942505 C-3.5880000591278076,-104.01200103759766 19.899999618530273,-183.7570037841797 31.486000061035156,-181.75 C43.07099914550781,-179.7429962158203 38.367000579833984,-96.74400329589844 20.97800064086914,3.634000062942505z"></path><path stroke-linecap="round" stroke-linejoin="round" fill-opacity="0" stroke="rgb(34,40,53)" stroke-opacity="1" stroke-width="13.014" d=" M20.97800064086914,3.634000062942505 C3.5889999866485596,104.01200103759766 -19.89900016784668,183.7570037841797 -31.485000610351562,181.75 C-43.06999969482422,179.7429962158203 -38.36600112915039,96.74400329589844 -20.976999282836914,-3.634000062942505 C-3.5880000591278076,-104.01200103759766 19.899999618530273,-183.7570037841797 31.486000061035156,-181.75 C43.07099914550781,-179.7429962158203 38.367000579833984,-96.74400329589844 20.97800064086914,3.634000062942505z"></path></g><g opacity="1" transform="matrix(1,0,0,1,625.8419799804688,311.4169921875)"><path fill="rgb(77,85,104)" fill-opacity="1" d=" M-25.7810001373291,-15.38700008392334 C-35.73699951171875,37.55099868774414 -41.301998138427734,77.77100372314453 -44.441001892089844,107.20099639892578 C-45.415000915527344,116.33899688720703 -47.80799865722656,124.12699890136719 -43.48400115966797,132.2209930419922 C-41.0890007019043,136.7030029296875 -36.87099838256836,138.52000427246094 -31.64299964904785,139.4770050048828 C-22.93000030517578,141.07400512695312 -11.862000465393066,142.36900329589844 -5.656000137329102,140.04100036621094 C4.426000118255615,136.25999450683594 14.095999717712402,69.80000305175781 20.065000534057617,37.60499954223633 C28.55900001525879,-8.208000183105469 45.01499938964844,-98.34600067138672 46.39400100708008,-115.81500244140625 C47.80799865722656,-133.72000122070312 40.4379997253418,-136.42100524902344 35.367000579833984,-137.55299377441406 C33.915000915527344,-137.8769989013672 22.479000091552734,-140.24899291992188 16.45199966430664,-141.46299743652344 C11.961000442504883,-142.36900329589844 8.456999778747559,-141.63699340820312 4.872000217437744,-137.71499633789062 C2.486999988555908,-135.1060028076172 3.4739999771118164,-137.0850067138672 0.6690000295639038,-128.3070068359375 C-5.711999893188477,-108.33899688720703 -15.814000129699707,-68.38700103759766 -25.7810001373291,-15.38700008392334z"></path><path stroke-linecap="butt" stroke-linejoin="miter" fill-opacity="0" stroke-miterlimit="10" stroke="rgb(34,40,53)" stroke-opacity="1" stroke-width="16.513" d=" M-25.7810001373291,-15.38700008392334 C-35.73699951171875,37.55099868774414 -41.301998138427734,77.77100372314453 -44.441001892089844,107.20099639892578 C-45.415000915527344,116.33899688720703 -47.80799865722656,124.12699890136719 -43.48400115966797,132.2209930419922 C-41.0890007019043,136.7030029296875 -36.87099838256836,138.52000427246094 -31.64299964904785,139.4770050048828 C-22.93000030517578,141.07400512695312 -11.862000465393066,142.36900329589844 -5.656000137329102,140.04100036621094 C4.426000118255615,136.25999450683594 14.095999717712402,69.80000305175781 20.065000534057617,37.60499954223633 C28.55900001525879,-8.208000183105469 45.01499938964844,-98.34600067138672 46.39400100708008,-115.81500244140625 C47.80799865722656,-133.72000122070312 40.4379997253418,-136.42100524902344 35.367000579833984,-137.55299377441406 C33.915000915527344,-137.8769989013672 22.479000091552734,-140.24899291992188 16.45199966430664,-141.46299743652344 C11.961000442504883,-142.36900329589844 8.456999778747559,-141.63699340820312 4.872000217437744,-137.71499633789062 C2.486999988555908,-135.1060028076172 3.4739999771118164,-137.0850067138672 0.6690000295639038,-128.3070068359375 C-5.711999893188477,-108.33899688720703 -15.814000129699707,-68.38700103759766 -25.7810001373291,-15.38700008392334z"></path></g><g opacity="0.74" transform="matrix(1,0,0,1,545.655029296875,303.3489990234375)"><path stroke-linecap="round" stroke-linejoin="round" fill-opacity="0" stroke="rgb(170,186,206)" stroke-opacity="1" stroke-width="31.191" d=" M0.49300000071525574,-28.39299964904785 C0.49300000071525574,-28.39299964904785 -9.618000030517578,16.92799949645996 -14.031999588012695,60.321998596191406 C-17.881999969482422,98.16899871826172 -16.72800064086914,139.5469970703125 -16.72800064086914,139.5469970703125"></path></g><g opacity="1" transform="matrix(1,0,0,1,623.4019775390625,314.7860107421875)"><path stroke-linecap="round" stroke-linejoin="round" fill-opacity="0" stroke="rgb(130,145,160)" stroke-opacity="1" stroke-width="22.017" d=" M12.920000076293945,-76.96499633789062 C12.920000076293945,-76.96499633789062 6.206999778747559,-44.112998962402344 -0.7329999804496765,-0.765999972820282 C-6.748000144958496,36.797000885009766 -12.920000076293945,76.96600341796875 -12.920000076293945,76.96600341796875"></path></g><g opacity="1" transform="matrix(1,0,0,1,698.52099609375,333.2860107421875)"><path fill="rgb(130,145,160)" fill-opacity="1" d=" M-34.89799880981445,-17.211000442504883 C-34.89799880981445,-17.211000442504883 2.944000005722046,-10.057000160217285 10.91100025177002,-8.550000190734863 C18.87700080871582,-7.044000148773193 21.166000366210938,-4.994999885559082 21.709999084472656,0.6830000281333923 C22.253000259399414,6.361999988555908 19.60300064086914,20.969999313354492 19.545000076293945,23.635000228881836 C19.48699951171875,26.299999237060547 16.742000579833984,29.906999588012695 19.066999435424805,30.291000366210938 C21.392000198364258,30.674999237060547 26.368000030517578,31.783000946044922 28.264999389648438,21.158000946044922 C30.16200065612793,10.532999992370605 34.89799880981445,-8.029999732971191 33.369998931884766,-14.395999908447266 C31.840999603271484,-20.761999130249023 28.820999145507812,-19.827999114990234 18.551000595092773,-22.716999053955078 C8.281000137329102,-25.60700035095215 -30.58300018310547,-31.783000946044922 -30.58300018310547,-31.783000946044922 C-30.58300018310547,-31.783000946044922 -34.89799880981445,-17.211000442504883 -34.89799880981445,-17.211000442504883z"></path></g></g><g style="display: block;" transform="matrix(1.0122565031051636,-0.06572287529706955,0.06652422994375229,1.0000627040863037,53.12882995605469,583.6310424804688)" opacity="1"><g opacity="0" transform="matrix(-0.37030354142189026,0.0992363840341568,-0.0992363840341568,-0.37030354142189026,450.6080017089844,246.06399536132812)"><path fill="rgb(255,255,255)" fill-opacity="1" d=" M-19.847000122070312,-1.0290000438690186 C-16.843000411987305,-2.3959999084472656 -10.015000343322754,-4.488999843597412 -8.354999542236328,-7.525000095367432 C-6.695000171661377,-10.562000274658203 -9.833999633789062,-29.158000946044922 -8.53600025177002,-30.761999130249023 C-7.238999843597412,-32.36600112915039 -4.889999866485596,-31.660999298095703 -4.316999912261963,-30.400999069213867 C-3.743000030517578,-29.141000747680664 0.9980000257492065,-14.822999954223633 4.0920000076293945,-11.92199993133545 C7.185999870300293,-9.020999908447266 19.195999145507812,-9.92300033569336 19.195999145507812,-9.92300033569336 C19.195999145507812,-9.92300033569336 23.9689998626709,-10.574000358581543 23.760000228881836,-7.690999984741211 C23.579999923706055,-5.211999893188477 13.54699993133545,-2.2829999923706055 11.543999671936035,1.6699999570846558 C9.539999961853027,5.623000144958496 10.579000473022461,25.173999786376953 10.197999954223633,27.121999740600586 C9.817000389099121,29.06999969482422 6.760000228881836,32.36600112915039 4.488999843597412,27.94499969482422 C2.2730000019073486,23.631000518798828 -2.068000078201294,6.849999904632568 -6.363999843597412,5.763000011444092 C-7.9770002365112305,5.355000019073486 -15.300999641418457,4.560999870300293 -18.08799934387207,4.506999969482422 C-23.9689998626709,4.394999980926514 -22.996999740600586,0.40400001406669617 -19.847000122070312,-1.0290000438690186z"></path></g><g opacity="0" transform="matrix(-0.3872716724872589,-0.048525553196668625,0.048525553196668625,-0.3872716724872589,31.476999282836914,40.7239990234375)"><path fill="rgb(255,255,255)" fill-opacity="1" d=" M-23.601999282836914,-11.857999801635742 C-19.454999923706055,-11.767999649047852 -10.579999923706055,-10.413999557495117 -7.044000148773193,-12.947999954223633 C-3.509000062942505,-15.482000350952148 3.078000068664551,-38.255001068115234 5.422999858856201,-39.3650016784668 C7.767000198364258,-40.4739990234375 10.043000221252441,-38.39400100708008 10.005000114440918,-36.654998779296875 C9.967000007629395,-34.915000915527344 7.5289998054504395,-16.113000869750977 9.451000213623047,-11.140999794006348 C11.37399959564209,-6.168000221252441 25.466999053955078,-0.640999972820282 25.466999053955078,-0.640999972820282 C25.466999053955078,-0.640999972820282 31.22800064086914,1.225000023841858 29.41900062561035,4.375999927520752 C27.86400032043457,7.085000038146973 14.904000282287598,4.931000232696533 10.479000091552734,8.315999984741211 C6.054999828338623,11.701000213623047 -3.430000066757202,34.4109992980957 -4.923999786376953,36.409000396728516 C-6.418000221252441,38.40700149536133 -11.678000450134277,40.472999572753906 -11.83899974822998,34.22800064086914 C-11.996999740600586,28.132999420166016 -7.76200008392334,6.761000156402588 -12.03600025177002,3.187999963760376 C-13.640000343322754,1.8459999561309814 -21.500999450683594,-3.0480000972747803 -24.628000259399414,-4.629000186920166 C-31.226999282836914,-7.9629998207092285 -27.951000213623047,-11.95199966430664 -23.601999282836914,-11.857999801635742z"></path></g></g><g style="display: block;" transform="matrix(1.0144400596618652,0,0,1.0022200345993042,175.2951202392578,593.185546875)" opacity="1"><g opacity="1" transform="matrix(1,0,0,1,166.66600036621094,201.48599243164062)"><path fill="rgb(242,209,187)" fill-opacity="1" d=" M19.589000701904297,102.93000030517578 C-16.756000518798828,98.63800048828125 -48.667999267578125,88.68000030517578 -64.38800048828125,59.33100128173828 C-84.88999938964844,21.05500030517578 -112.84600067138672,-36.347999572753906 -110.8550033569336,-53.48500061035156 C-107.68499755859375,-80.77300262451172 -109.19000244140625,-86.89399719238281 -85.8030014038086,-95.50499725341797 C-62.41600036621094,-104.11699676513672 -72.92400360107422,-91.375 -69.05899810791016,-91.29100036621094 C-65.19400024414062,-91.20700073242188 -35.29199981689453,-103.09700012207031 -18.64299964904785,-98.1760025024414 C-1.99399995803833,-93.25499725341797 -3.430000066757202,-86.4469985961914 8.189000129699707,-87.33499908447266 C19.808000564575195,-88.22200012207031 31.476999282836914,-91.38899993896484 44.26100158691406,-86.552001953125 C57.04499816894531,-81.71499633789062 64.8740005493164,-86.10399627685547 84.0989990234375,-81.12799835205078 C103.32499694824219,-76.1510009765625 112.84600067138672,1.0460000038146973 111.98100280761719,40.92399978637695 C111.11499786376953,80.8010025024414 96.84300231933594,102.94599914550781 36.292999267578125,101.63200378417969 C24.03499984741211,101.36599731445312 29.638999938964844,104.11699676513672 19.589000701904297,102.93000030517578z"></path></g><g opacity="1" transform="matrix(1,0,0,1,106.27799987792969,88.71099853515625)"><path fill="rgb(255,207,174)" fill-opacity="1" d=" M29.09000015258789,-37.10300064086914 C19.926000595092773,-38.93000030517578 10.444000244140625,-36.24100112915039 3.2139999866485596,-30.320999145507812 C-12.482999801635742,-17.468000411987305 -35.154998779296875,2.6070001125335693 -40.82899856567383,18.506000518798828 C-47.689998626708984,37.73500061035156 -45.138999938964844,38.93000030517578 -21.924999237060547,38.29399871826172 C1.2899999618530273,37.65800094604492 16.972000122070312,27.73900032043457 18.333999633789062,24.349000930786133 C19.69700050354004,20.958999633789062 39.51599884033203,-1.4079999923706055 43.60300064086914,-11.579000473022461 C47.689998626708984,-21.749000549316406 42.7599983215332,-32.1150016784668 33.816001892089844,-35.729000091552734 C32.32500076293945,-36.33100128173828 30.724000930786133,-36.777000427246094 29.09000015258789,-37.10300064086914z"></path></g><g opacity="1" transform="matrix(1,0,0,1,151.19500732421875,96.48100280761719)"><path fill="rgb(255,207,174)" fill-opacity="1" d=" M14.086999893188477,-38.37699890136719 C2.750999927520752,-34.20199966430664 -33.965999603271484,0.460999995470047 -40.827999114990234,19.690000534057617 C-47.689998626708984,38.91899871826172 -45.13800048828125,40.11399841308594 -21.923999786376953,39.47800064086914 C1.2899999618530273,38.84199905395508 16.97100067138672,28.923999786376953 18.33300018310547,25.534000396728516 C19.695999145507812,22.143999099731445 39.51599884033203,-0.2240000069141388 43.60300064086914,-10.394000053405762 C47.691001892089844,-20.56399917602539 42.75899887084961,-30.93000030517578 33.814998626708984,-34.54399871826172 C24.871000289916992,-38.15800094604492 18.802000045776367,-40.11399841308594 14.086999893188477,-38.37699890136719z"></path></g><g opacity="1" transform="matrix(1,0,0,1,200.0019989013672,105.35800170898438)"><path fill="rgb(255,207,174)" fill-opacity="1" d=" M11.9399995803833,-37.137001037597656 C8.050000190734863,-36.082000732421875 -33.965999603271484,-0.5170000195503235 -40.827999114990234,18.711999893188477 C-47.689998626708984,37.941001892089844 -45.13800048828125,39.13600158691406 -21.923999786376953,38.5 C1.2899999618530273,37.86399841308594 16.97100067138672,27.945999145507812 18.33300018310547,24.555999755859375 C19.695999145507812,21.165000915527344 39.51599884033203,-1.2020000219345093 43.60300064086914,-11.371999740600586 C47.691001892089844,-21.542999267578125 42.75899887084961,-31.909000396728516 33.814998626708984,-35.52199935913086 C24.871000289916992,-39.13600158691406 11.9399995803833,-37.137001037597656 11.9399995803833,-37.137001037597656z"></path></g><g opacity="1" transform="matrix(1,0,0,1,242.08599853515625,123.322998046875)"><path fill="rgb(255,207,174)" fill-opacity="1" d=" M4.672999858856201,-39.70500183105469 C0.9909999966621399,-38.17599868774414 -34.981998443603516,2.4100000858306885 -38.74300003051758,22.408000946044922 C-42.50299835205078,42.404998779296875 -39.790000915527344,43.28300094604492 -16.92099952697754,39.79899978637695 C5.947999954223633,36.314998626708984 19.902999877929688,24.509000778198242 20.716999053955078,20.96500015258789 C21.5310001373291,17.42099952697754 37.61800003051758,-7.293000221252441 40.06100082397461,-17.926000595092773 C42.50299835205078,-28.55900001525879 35.992000579833984,-38.279998779296875 26.572999954223633,-40.78200149536133 C17.15399932861328,-43.28300094604492 4.672999858856201,-39.70500183105469 4.672999858856201,-39.70500183105469z"></path></g><g opacity="1" transform="matrix(1,0,0,1,165.5679931640625,211.06500244140625)"><path stroke-linecap="round" stroke-linejoin="round" fill-opacity="0" stroke="rgb(183,99,57)" stroke-opacity="1" stroke-width="20.182" d=" M-101.33100128173828,-100.04499816894531 C-101.33100128173828,-100.04499816894531 -115.11299896240234,-79.697998046875 -102.56400299072266,-43.21500015258789 C-90.01599884033203,-6.732999801635742 -62.27899932861328,48.04600143432617 -34.849998474121094,72.14600372314453 C-7.421999931335449,96.24600219726562 32.12799835205078,100.04499816894531 57.62300109863281,96.1520004272461 C83.11900329589844,92.25800323486328 103.8280029296875,70.61900329589844 109.66100311279297,48.284000396728516 C115.11399841308594,27.402999877929688 114.55400085449219,-7.375 108.09300231933594,-31.655000686645508 C101.63200378417969,-55.935001373291016 97.23400115966797,-66.7770004272461 97.23400115966797,-66.7770004272461"></path></g><g opacity="1" transform="matrix(1,0,0,1,108.53900146484375,79.46399688720703)"><path stroke-linecap="round" stroke-linejoin="round" fill-opacity="0" stroke="rgb(183,99,57)" stroke-opacity="1" stroke-width="18.347" d=" M-42.32099914550781,28.104999542236328 C-42.32099914550781,28.104999542236328 -5.980999946594238,-19.864999771118164 8.418999671936035,-26.695999145507812 C22.96299934387207,-33.59600067138672 40.194000244140625,-27.277999877929688 41.257999420166016,-17.72599983215332 C42.32099914550781,-8.173999786376953 33.143001556396484,4.9679999351501465 25.937999725341797,14.97599983215332 C18.732999801635742,24.983999252319336 16.409000396728516,30.31800079345703 16.409000396728516,30.31800079345703"></path></g><g opacity="1" transform="matrix(1,0,0,1,161.21400451660156,89.11199951171875)"><path stroke-linecap="round" stroke-linejoin="round" fill-opacity="0" stroke="rgb(183,99,57)" stroke-opacity="1" stroke-width="18.347" d=" M-36.6619987487793,23.53499984741211 C-36.6619987487793,23.53499984741211 -13.831999778747559,-18.531999588012695 0.15399999916553497,-26.327999114990234 C10.170999526977539,-31.910999298095703 21.64299964904785,-28.56100082397461 29.152000427246094,-23.31599998474121 C36.6619987487793,-18.070999145507812 32.32600021362305,-10.265000343322754 28.825000762939453,-5.1020002365112305 C23.14299964904785,3.2739999294281006 7.916999816894531,26.224000930786133 6.5229997634887695,31.910999298095703"></path></g><g opacity="1" transform="matrix(1,0,0,1,202.8679962158203,99.19000244140625)"><path stroke-linecap="round" stroke-linejoin="round" fill-opacity="0" stroke="rgb(183,99,57)" stroke-opacity="1" stroke-width="18.347" d=" M8.475000381469727,31.85700035095215 C8.475000381469727,31.85700035095215 24.523000717163086,5.021999835968018 30.722000122070312,-5.298999786376953 C34.67599868774414,-11.883000373840332 34.41699981689453,-21.895000457763672 25.472000122070312,-26.854000091552734 C20.70599937438965,-29.496000289916992 5.560999870300293,-31.857999801635742 -4.14900016784668,-23.492000579833984 C-10.623000144958496,-17.915000915527344 -13.682999610900879,-14.333999633789062 -21.77899932861328,-1.4809999465942383 C-29.180999755859375,10.270000457763672 -34.67599868774414,22.344999313354492 -34.67599868774414,22.344999313354492"></path></g><g opacity="1" transform="matrix(1,0,0,1,245.84300231933594,111.05999755859375)"><path stroke-linecap="round" stroke-linejoin="round" fill-opacity="0" stroke="rgb(183,99,57)" stroke-opacity="1" stroke-width="18.347" d=" M-33.06100082397461,19.54199981689453 C-33.06100082397461,19.54199981689453 -17.985000610351562,-9.083999633789062 -13.543999671936035,-16.134000778198242 C-9.102999687194824,-23.184999465942383 4.28000020980835,-32.53300094604492 18.452999114990234,-26.983999252319336 C31.368999481201172,-21.927000045776367 33.060001373291016,-12.996999740600586 28.402999877929688,-2.4700000286102295 C23.392000198364258,8.855999946594238 17.875,21.600000381469727 17.875,21.600000381469727 C17.875,21.600000381469727 16.68400001525879,32.534000396728516 16.68400001525879,32.534000396728516"></path></g><g opacity="1" transform="matrix(1,0,0,1,171.84300231933594,207.3990020751953)"><path fill="url(#__lottie_element_11)" mask="url(#__lottie_element_13)" fill-opacity="1" d="M0 0 M-100.55000305175781,-83.13600158691406 C-100.55000305175781,-83.13600158691406 -90.9739990234375,-95.7699966430664 -76.8479995727539,-91.9530029296875 C-62.72200012207031,-88.13500213623047 -60.99100112915039,-77.56600189208984 -52.143001556396484,-78.87799835205078 C-43.29499816894531,-80.19100189208984 -33.402000427246094,-84.48999786376953 -23.21500015258789,-79.75499725341797 C-13.029000282287598,-75.0199966430664 -12.690999984741211,-67.99099731445312 -3.865000009536743,-68.3010025024414 C4.960999965667725,-68.61100006103516 2.109999895095825,-72.68499755859375 12.383999824523926,-71.96099853515625 C22.656999588012695,-71.23600006103516 28.305999755859375,-60.582000732421875 37.13199996948242,-60.891998291015625 C45.95899963378906,-61.20199966430664 55.83000183105469,-64.49800109863281 63.577999114990234,-60.31800079345703 C71.3270034790039,-56.137001037597656 86.1500015258789,-24.2189998626709 94.6500015258789,13.079000473022461 C103.1510009765625,50.37699890136719 85.33499908447266,81.08499908447266 61.65299987792969,88.59600067138672 C39.03099822998047,95.7699966430664 15.116000175476074,95.61000061035156 -14.006999969482422,82.94100189208984 C-39.10200119018555,72.0250015258789 -59.86899948120117,36.305999755859375 -68.90299987792969,23.57200050354004 C-77.93599700927734,10.838000297546387 -100.62300109863281,-48.12300109863281 -101.48500061035156,-55.15800094604492 C-103.1510009765625,-68.73500061035156 -100.55000305175781,-83.13600158691406 -100.55000305175781,-83.13600158691406z"></path></g></g></g></g></svg>