<svg xmlns="http://www.w3.org/2000/svg" xmlns:xlink="http://www.w3.org/1999/xlink" viewBox="0 0 512 512" width="512" height="512" style="width: 100%; height: 100%; transform: translate3d(0,0,0); content-visibility: visible;" preserveAspectRatio="xMidYMid meet"><defs><clipPath id="__lottie_element_2"><rect width="512" height="512" x="0" y="0"></rect></clipPath><radialGradient id="__lottie_element_10" spreadMethod="pad" gradientUnits="userSpaceOnUse" cx="-69.86299896240234" cy="-122.86699676513672" r="202.41630636716073" fx="-69.86299896240234" fy="-122.86699676513672"><stop offset="0%" stop-color="rgb(255,215,190)"></stop><stop offset="78%" stop-color="rgb(249,201,170)"></stop><stop offset="92%" stop-color="rgb(243,187,149)"></stop></radialGradient></defs><g clip-path="url(#__lottie_element_2)"><g style="display: block;" transform="matrix(1.0094047784805298,0,0,0.9776585102081299,0.8823148012161255,37.18592834472656)" opacity="1"><g opacity="1" transform="matrix(1,0,0,1,219.1540069580078,204.49899291992188)"><path fill="rgb(242,157,114)" fill-opacity="1" d=" M-189.90499877929688,51.6870002746582 C-189.90499877929688,51.6870002746582 -197.46600341796875,-36.53799819946289 -135.81399536132812,-99.05799865722656 C-74.16200256347656,-161.5780029296875 0.4359999895095825,-167.40499877929688 65.9800033569336,-146.8159942626953 C131.23699951171875,-126.31700134277344 179.072998046875,-59.80699920654297 189.16099548339844,1.2899999618530273 C199.3719940185547,63.12300109863281 183.2519989013672,119.4260025024414 165.75999450683594,138.375 C144.9199981689453,160.95199584960938 112.14800262451172,179.9510040283203 4.242000102996826,178.67300415039062 C-106.08399963378906,177.36599731445312 -156.17799377441406,130.86199951171875 -173.23699951171875,105.072998046875 C-188.26699829101562,82.35199737548828 -189.90499877929688,51.6870002746582 -189.90499877929688,51.6870002746582z"></path><path stroke-linecap="butt" stroke-linejoin="miter" fill-opacity="0" stroke-miterlimit="10" stroke="rgb(181,95,48)" stroke-opacity="1" stroke-width="9.819" d=" M-189.90499877929688,51.6870002746582 C-189.90499877929688,51.6870002746582 -197.46600341796875,-36.53799819946289 -135.81399536132812,-99.05799865722656 C-74.16200256347656,-161.5780029296875 0.4359999895095825,-167.40499877929688 65.9800033569336,-146.8159942626953 C131.23699951171875,-126.31700134277344 179.072998046875,-59.80699920654297 189.16099548339844,1.2899999618530273 C199.3719940185547,63.12300109863281 183.2519989013672,119.4260025024414 165.75999450683594,138.375 C144.9199981689453,160.95199584960938 112.14800262451172,179.9510040283203 4.242000102996826,178.67300415039062 C-106.08399963378906,177.36599731445312 -156.17799377441406,130.86199951171875 -173.23699951171875,105.072998046875 C-188.26699829101562,82.35199737548828 -189.90499877929688,51.6870002746582 -189.90499877929688,51.6870002746582z"></path></g><g opacity="1" transform="matrix(1,0,0,1,225.67999267578125,193.96400451660156)"><path fill="url(#__lottie_element_10)" fill-opacity="1" d=" M-159.04800415039062,64.9219970703125 C-159.04800415039062,64.9219970703125 -171.76499938964844,-18.965999603271484 -116.50800323486328,-75.0009994506836 C-61.25199890136719,-131.03599548339844 8.223999977111816,-140.89500427246094 65.81500244140625,-119.88200378417969 C123.40599822998047,-98.86900329589844 157.88299560546875,-37.507999420166016 167.49099731445312,14.897000312805176 C177.6199951171875,70.14600372314453 174.43499755859375,118.44400024414062 158.75799560546875,135.427001953125 C140.0800018310547,155.66200256347656 125.68099975585938,172.0590057373047 26.841999053955078,175.1719970703125 C-71.99600219726562,178.28500366210938 -124.14199829101562,144.33599853515625 -145.34800720214844,115.1780014038086 C-156.6540069580078,99.63300323486328 -159.04800415039062,64.9219970703125 -159.04800415039062,64.9219970703125z"></path></g></g><g style="display: block;" transform="matrix(0.9288744926452637,0,0,0.8497416973114014,119.85433959960938,188.28822326660156)" opacity="1"><g opacity="1" transform="matrix(1.064329981803894,0,0,1.1128299236297607,-9.276123046875,7.115089416503906)"><g opacity="1" transform="matrix(1,0,0,1,144.99099731445312,72.74800109863281)"><path fill="rgb(53,19,14)" fill-opacity="1" d=" M-99.20800018310547,26.809999465942383 C-99.20800018310547,26.809999465942383 -92.03900146484375,-19.131000518798828 -53.86600112915039,-37.63199996948242 C-15.208999633789062,-56.36800003051758 16.33300018310547,-52.867000579833984 43.652000427246094,-40.2760009765625 C70.97200012207031,-27.684999465942383 92.64199829101562,14.85099983215332 95.41999816894531,27.006999969482422 C98.1989974975586,39.16400146484375 95.13500213623047,45.867000579833984 95.13500213623047,45.867000579833984 C95.13500213623047,45.867000579833984 57.79100036621094,31.312999725341797 -4.256999969482422,30.444000244140625 C-66.30599975585938,29.576000213623047 -100.63400268554688,36.71799850463867 -100.63400268554688,36.71799850463867 C-100.63400268554688,36.71799850463867 -99.20800018310547,26.809999465942383 -99.20800018310547,26.809999465942383z"></path><path stroke-linecap="round" stroke-linejoin="round" fill-opacity="0" stroke="rgb(132,59,23)" stroke-opacity="1" stroke-width="9.875" d=" M-99.20800018310547,26.809999465942383 C-99.20800018310547,26.809999465942383 -92.03900146484375,-19.131000518798828 -53.86600112915039,-37.63199996948242 C-15.208999633789062,-56.36800003051758 16.33300018310547,-52.867000579833984 43.652000427246094,-40.2760009765625 C70.97200012207031,-27.684999465942383 92.64199829101562,14.85099983215332 95.41999816894531,27.006999969482422 C98.1989974975586,39.16400146484375 95.13500213623047,45.867000579833984 95.13500213623047,45.867000579833984 C95.13500213623047,45.867000579833984 57.79100036621094,31.312999725341797 -4.256999969482422,30.444000244140625 C-66.30599975585938,29.576000213623047 -100.63400268554688,36.71799850463867 -100.63400268554688,36.71799850463867 C-100.63400268554688,36.71799850463867 -99.20800018310547,26.809999465942383 -99.20800018310547,26.809999465942383z"></path></g><g opacity="1" transform="matrix(1,0,0,1,134.33599853515625,80.01799774169922)"><path fill="rgb(211,42,90)" fill-opacity="1" d=" M-62.66699981689453,6.511000156402588 C-62.66699981689453,6.511000156402588 -45.172000885009766,-14.960000038146973 -7.000999927520752,-17.34600067138672 C31.170000076293945,-19.73200035095215 59.55799865722656,0.2029999941587448 58.882999420166016,4.1519999504089355 C58.20800018310547,8.10099983215332 64.38099670410156,12.102999687194824 64.38099670410156,12.102999687194824 C64.38099670410156,12.102999687194824 25.60300064086914,8.897000312805176 0.9509999752044678,11.281999588012695 C-23.701000213623047,13.668000221252441 -64.38099670410156,19.73200035095215 -64.38099670410156,19.73200035095215 C-64.38099670410156,19.73200035095215 -62.66699981689453,6.511000156402588 -62.66699981689453,6.511000156402588z"></path><path stroke-linecap="round" stroke-linejoin="round" fill-opacity="0" stroke="rgb(155,21,59)" stroke-opacity="1" stroke-width="8" d=" M-62.66699981689453,6.511000156402588 C-62.66699981689453,6.511000156402588 -45.172000885009766,-14.960000038146973 -7.000999927520752,-17.34600067138672 C31.170000076293945,-19.73200035095215 59.55799865722656,0.2029999941587448 58.882999420166016,4.1519999504089355 C58.20800018310547,8.10099983215332 64.38099670410156,12.102999687194824 64.38099670410156,12.102999687194824 C64.38099670410156,12.102999687194824 25.60300064086914,8.897000312805176 0.9509999752044678,11.281999588012695 C-23.701000213623047,13.668000221252441 -64.38099670410156,19.73200035095215 -64.38099670410156,19.73200035095215 C-64.38099670410156,19.73200035095215 -62.66699981689453,6.511000156402588 -62.66699981689453,6.511000156402588z"></path></g><g opacity="1" transform="matrix(1,0,0,1,0,0)"><g opacity="1" transform="matrix(1,0,0,1,145.33799743652344,159.52200317382812)"><path stroke-linecap="round" stroke-linejoin="round" fill-opacity="0" stroke="rgb(224,135,97)" stroke-opacity="1" stroke-width="11" d=" M-57.06800079345703,2.631999969482422 C-57.06800079345703,2.631999969482422 -27.246000289916992,17.764999389648438 -1.3890000581741333,22.527000427246094 C18.11400032043457,26.118999481201172 40.35900115966797,24.128999710083008 54.7140007019043,8.49899959564209 C69.06800079345703,-7.13100004196167 67.61699676513672,-11.821000099182129 67.61699676513672,-11.821000099182129"></path></g><g opacity="1" transform="matrix(1,0,0,1,127.86499786376953,170.4949951171875)"><path stroke-linecap="round" stroke-linejoin="round" fill-opacity="0" stroke="rgb(211,118,85)" stroke-opacity="1" stroke-width="11" d=" M-76.10199737548828,-17.076000213623047 C-76.10199737548828,-17.076000213623047 -55.74599838256836,13.895999908447266 -6.25600004196167,25.958999633789062 C27.586999893188477,34.20800018310547 54.130001068115234,36.492000579833984 70.71499633789062,26.378999710083008 C92.45099639892578,13.125 96.10199737548828,1.1200000047683716 96.10199737548828,1.1200000047683716"></path></g></g><g opacity="1" transform="matrix(1,0,0,1,32.584999084472656,99.55799865722656)"><path stroke-linecap="round" stroke-linejoin="round" fill-opacity="0" stroke="rgb(224,135,97)" stroke-opacity="1" stroke-width="9.052" d=" M-10.45300006866455,-5.192999839782715 C-10.45300006866455,-5.192999839782715 -12.39900016784668,2.052999973297119 -10.083000183105469,12.906999588012695 C-7.76800012588501,23.761999130249023 -3.6010000705718994,30.27400016784668 -3.6010000705718994,30.27400016784668"></path></g><g opacity="1" transform="matrix(1,0,0,1,256.4219970703125,115.71900177001953)"><path stroke-linecap="round" stroke-linejoin="round" fill-opacity="0" stroke="rgb(224,135,97)" stroke-opacity="1" stroke-width="9.052" d=" M8.529999732971191,-2.4149999618530273 C8.529999732971191,-2.4149999618530273 13.536999702453613,10.003999710083008 7.980999946594238,16.950000762939453 C2.4240000247955322,23.89699935913086 -5.538000106811523,26.493000030517578 -5.538000106811523,26.493000030517578"></path></g><g opacity="1" transform="matrix(1.0473530292510986,0.017550209537148476,-0.016754377633333206,0.999859631061554,-6.0176239013671875,-5.923858642578125)"><path stroke-linecap="round" stroke-linejoin="round" fill-opacity="0" stroke="rgb(91,152,212)" stroke-opacity="1" stroke-width="9.052" d=" M84.71,48.34 C84.71,48.34 96.47,56.98 101.79,54.59 C103.93,53.63 102.21,37.67 102.21,37.67 C102.21,37.67 94.15,39.6 92,40.3 C89.84,41 84.71,48.34 84.71,48.34z M104.83,40.5 C104.83,40.5 115.85,53.09 117.8,52.75 C123.35,51.79 127.85,33.15 127.85,33.15 C127.85,33.15 119.16,32.49 115.14,33.59 C111.12,34.69 104.83,40.5 104.83,40.5z M130.67,30.62 C130.67,30.62 130.82,38.3 131.58,39.9 C132.34,41.5 133.29,45.88 138.67,47.46 C140.63,48.04 143.74,47.83 146.24,47.5 C148.52,47.2 150.18,45.33 150.09,43.18 C150.09,43.18 151.23,28.27 151.23,28.27 C151.23,28.27 130.67,30.62 130.67,30.62z M156.27,31.79 C156.27,31.79 158.16,37.14 158.3,38.94 C158.44,40.75 159.44,45.62 160.95,46.73 C162.46,47.84 172.98,48.79 174.28,47.18 C175.58,45.58 177.69,35.03 177.69,35.03 C177.69,35.03 156.27,31.79 156.27,31.79z M180.88,35.96 C180.88,35.96 181.99,44.05 183.71,45.86 C185.43,47.68 190.37,49.95 191.62,49.86 C192.88,49.77 197.33,45.14 197.33,45.14 C197.33,45.14 195.21,39.78 191.94,38.35 C188.68,36.91 180.88,35.96 180.88,35.96z"></path><g opacity="1" transform="matrix(1,0,0,1,95.1259994506836,46.46900177001953)"><path fill="rgb(255,255,255)" fill-opacity="1" d=" M-10.411999702453613,1.8660000562667847 C-10.411999702453613,1.8660000562667847 1.3420000076293945,10.51099967956543 6.666999816894531,8.123000144958496 C8.807999610900879,7.1620001792907715 7.085000038146973,-8.803000450134277 7.085000038146973,-8.803000450134277 C7.085000038146973,-8.803000450134277 -0.9729999899864197,-6.870999813079834 -3.128000020980835,-6.171999931335449 C-5.2829999923706055,-5.4720001220703125 -10.411999702453613,1.8660000562667847 -10.411999702453613,1.8660000562667847z"></path></g><g opacity="1" transform="matrix(1,0,0,1,115.11499786376953,42.77899932861328)"><path fill="rgb(255,255,255)" fill-opacity="1" d=" M-10.286999702453613,-2.2739999294281006 C-10.286999702453613,-2.2739999294281006 0.7400000095367432,10.312999725341797 2.684999942779541,9.97599983215332 C8.234999656677246,9.013999938964844 12.73799991607666,-9.626999855041504 12.73799991607666,-9.626999855041504 C12.73799991607666,-9.626999855041504 4.044000148773193,-10.291000366210938 0.026000000536441803,-9.187000274658203 C-3.992000102996826,-8.083999633789062 -10.286999702453613,-2.2739999294281006 -10.286999702453613,-2.2739999294281006z"></path></g><g opacity="1" transform="matrix(1,0,0,1,140.4550018310547,40.308998107910156)"><path fill="rgb(255,255,255)" fill-opacity="1" d=" M-9.789999961853027,-9.685999870300293 C-9.789999961853027,-9.685999870300293 -9.633000373840332,-2.013000011444092 -8.876999855041504,-0.4090000092983246 C-8.119999885559082,1.1950000524520874 -7.165999889373779,5.567999839782715 -1.784000039100647,7.156000137329102 C0.1720000058412552,7.732999801635742 3.2809998989105225,7.520999908447266 5.784999847412109,7.190999984741211 C8.062999725341797,6.890999794006348 9.727999687194824,5.026000022888184 9.635000228881836,2.871000051498413 C9.635000228881836,2.871000051498413 10.777000427246094,-12.034000396728516 10.777000427246094,-12.034000396728516 C10.777000427246094,-12.034000396728516 -9.789999961853027,-9.685999870300293 -9.789999961853027,-9.685999870300293z"></path></g><g opacity="1" transform="matrix(1,0,0,1,167.40499877929688,42.000999450683594)"><path fill="rgb(255,255,255)" fill-opacity="1" d=" M-11.138999938964844,-10.21500015258789 C-11.138999938964844,-10.21500015258789 -9.248000144958496,-4.864999771118164 -9.107000350952148,-3.056999921798706 C-8.965999603271484,-1.2489999532699585 -7.9629998207092285,3.621999979019165 -6.452000141143799,4.730000019073486 C-4.940000057220459,5.8379998207092285 5.572000026702881,6.784999847412109 6.872000217437744,5.181000232696533 C8.17300033569336,3.5769999027252197 10.28600025177002,-6.9670000076293945 10.28600025177002,-6.9670000076293945 C10.28600025177002,-6.9670000076293945 -11.138999938964844,-10.21500015258789 -11.138999938964844,-10.21500015258789z"></path></g><g opacity="1" transform="matrix(1,0,0,1,189.5399932861328,43.15999984741211)"><path fill="rgb(255,255,255)" fill-opacity="1" d=" M-8.656000137329102,-7.199999809265137 C-8.656000137329102,-7.199999809265137 -7.551000118255615,0.8899999856948853 -5.830999851226807,2.7039999961853027 C-4.111000061035156,4.51800012588501 0.8289999961853027,6.785999774932861 2.0850000381469727,6.699999809265137 C3.3410000801086426,6.613999843597412 7.795000076293945,1.9850000143051147 7.795000076293945,1.9850000143051147 C7.795000076293945,1.9850000143051147 5.672999858856201,-3.381999969482422 2.4040000438690186,-4.814000129699707 C-0.8640000224113464,-6.245999813079834 -8.656000137329102,-7.199999809265137 -8.656000137329102,-7.199999809265137z"></path></g></g><g opacity="1" transform="matrix(1.068160057067871,0,0,1.0919100046157837,-9.864334106445312,-4.9513092041015625)"><path stroke-linecap="round" stroke-linejoin="round" fill-opacity="0" stroke="rgb(91,152,212)" stroke-opacity="1" stroke-width="11" d=" M124.19,94.48 C124.19,94.48 125.12,77.99 125.01,76.07 C124.9,74.14 128.06,70.68 132.64,71 C137.22,71.32 146.44,72.79 149.25,74.03 C152.06,75.27 153.22,79.62 153.3,80.99 C153.38,82.37 154.17,96.39 154.17,96.39 C154.17,96.39 145,95.74 140.72,95.4 C136.44,95.07 124.19,94.48 124.19,94.48z M180.51,98.25 C180.51,98.25 178.77,90.35 177.68,88.19 C176.59,86.04 176.75,83.33 174.81,83.1 C169.94,82.52 160.54,81.61 159.6,82.21 C158.67,82.8 159.88,98.45 159.88,98.45 C159.88,98.45 180.51,98.25 180.51,98.25z M98.93,97.24 C98.93,97.24 96.66,86.77 98.18,83.12 C99.7,79.47 108.15,74.99 110.95,73.64 C113.75,72.3 115.03,74.6 115.48,76.21 C115.93,77.81 117.38,95.85 117.38,95.85 C117.38,95.85 98.93,97.24 98.93,97.24z M78.97,98.69 C78.97,98.69 73.41,89.43 73.1,85.95 C72.82,82.78 76.37,82.37 80.63,80.63 C82.99,79.67 86.95,80.19 88.16,82.31 C88.16,82.31 94.17,97.15 94.17,97.15 C94.17,97.15 78.97,98.69 78.97,98.69z M54.49,100.83 C54.49,100.83 53.72,92.07 54.88,89.81 C56.04,87.55 67.97,88.3 67.97,88.3 C67.97,88.3 72.8,99.36 72.8,99.36 C72.8,99.36 54.49,100.83 54.49,100.83z M190.12,100.38 C190.12,100.38 191.19,92.77 191.35,87.67 C191.48,83.7 191.27,78.99 194.75,77.79 C197.01,77.02 203.96,84.72 204.07,86.64 C204.18,88.57 205.13,103.05 205.13,103.05 C205.13,103.05 190.12,100.38 190.12,100.38z M222.19,108.54 C222.19,108.54 222.33,96.8 219.9,93.81 C217.48,90.82 215.37,86.65 213.12,86.42 C210.87,86.18 207.79,87.91 208.55,90.87 C209.31,93.82 211.25,104.69 211.25,104.69 C211.25,104.69 222.19,108.54 222.19,108.54z M233.7,111.06 C234.85,111.43 235.98,110.48 235.7,109.37 C234.88,106.16 233.64,99.12 231.98,96.95 C230.69,95.27 228.85,94.1 226.81,93.63 C225.26,93.26 224.04,94.14 224.14,95.38 C224.14,95.38 225.06,107.37 225.06,107.37 C225.1,107.95 225.51,108.44 226.1,108.63 C226.1,108.63 233.7,111.06 233.7,111.06z"></path><g opacity="1" transform="matrix(1,0,0,1,139.18299865722656,83.53199768066406)"><path fill="rgb(255,255,255)" fill-opacity="1" d=" M-14.989999771118164,10.951000213623047 C-14.989999771118164,10.951000213623047 -14.060999870300293,-5.540999889373779 -14.170000076293945,-7.465000152587891 C-14.279000282287598,-9.390000343322754 -11.126999855041504,-12.854999542236328 -6.543000221252441,-12.531999588012695 C-1.9579999446868896,-12.210000038146973 7.256999969482422,-10.739999771118164 10.067000389099121,-9.501999855041504 C12.878000259399414,-8.263999938964844 14.038000106811523,-3.9119999408721924 14.116000175476074,-2.5380001068115234 C14.194000244140625,-1.1629999876022339 14.989999771118164,12.854999542236328 14.989999771118164,12.854999542236328 C14.989999771118164,12.854999542236328 5.821000099182129,12.210000038146973 1.5399999618530273,11.871999740600586 C-2.740999937057495,11.53499984741211 -14.989999771118164,10.951000213623047 -14.989999771118164,10.951000213623047z"></path></g><g opacity="1" transform="matrix(1,0,0,1,169.58999633789062,90.03199768066406)"><path fill="rgb(255,255,255)" fill-opacity="1" d=" M10.92199993133545,8.220000267028809 C10.92199993133545,8.220000267028809 9.182000160217285,0.3140000104904175 8.092000007629395,-1.8370000123977661 C7.001999855041504,-3.986999988555908 7.159999847412109,-6.698999881744385 5.2230000495910645,-6.931000232696533 C0.35199999809265137,-7.513999938964844 -9.053999900817871,-8.423999786376953 -9.98799991607666,-7.826000213623047 C-10.920999526977539,-7.228000164031982 -9.711000442504883,8.42300033569336 -9.711000442504883,8.42300033569336 C-9.711000442504883,8.42300033569336 10.92199993133545,8.220000267028809 10.92199993133545,8.220000267028809z"></path></g><g opacity="1" transform="matrix(1,0,0,1,107.9489974975586,83.48400115966797)"><path fill="rgb(255,255,255)" fill-opacity="1" d=" M-9.017999649047852,13.758999824523926 C-9.017999649047852,13.758999824523926 -11.291000366210938,3.2820000648498535 -9.767999649047852,-0.3659999966621399 C-8.244999885559082,-4.013999938964844 0.2029999941587448,-8.494999885559082 3.003999948501587,-9.840999603271484 C5.806000232696533,-11.187000274658203 7.084000110626221,-8.885000228881836 7.5329999923706055,-7.2779998779296875 C7.980999946594238,-5.671000003814697 9.427000045776367,12.364999771118164 9.427000045776367,12.364999771118164 C9.427000045776367,12.364999771118164 -9.017999649047852,13.758999824523926 -9.017999649047852,13.758999824523926z"></path></g><g opacity="1" transform="matrix(1,0,0,1,83.08899688720703,89.18199920654297)"><path fill="rgb(255,255,255)" fill-opacity="1" d=" M-4.122000217437744,9.506999969482422 C-4.122000217437744,9.506999969482422 -9.678999900817871,0.24500000476837158 -9.987000465393066,-3.2290000915527344 C-10.269000053405762,-6.4019999504089355 -6.7220001220703125,-6.809000015258789 -2.4549999237060547,-8.54800033569336 C-0.10300000011920929,-9.506999969482422 3.864000082015991,-8.993000030517578 5.070000171661377,-6.870999813079834 C5.070000171661377,-6.870999813079834 11.086000442504883,7.9720001220703125 11.086000442504883,7.9720001220703125 C11.086000442504883,7.9720001220703125 -4.122000217437744,9.506999969482422 -4.122000217437744,9.506999969482422z"></path></g><g opacity="1" transform="matrix(1,0,0,1,59.7869987487793,94.56400299072266)"><path fill="rgb(255,255,255)" fill-opacity="1" d=" M-5.293000221252441,6.263000011444092 C-5.293000221252441,6.263000011444092 -6.065000057220459,-2.490999937057495 -4.9039998054504395,-4.755000114440918 C-3.742000102996826,-7.01800012588501 8.187999725341797,-6.263000011444092 8.187999725341797,-6.263000011444092 C8.187999725341797,-6.263000011444092 13.010000228881836,4.797999858856201 13.010000228881836,4.797999858856201 C13.010000228881836,4.797999858856201 -5.293000221252441,6.263000011444092 -5.293000221252441,6.263000011444092z"></path></g><g opacity="1" transform="matrix(1,0,0,1,195.47999572753906,86.0510025024414)"><path fill="rgb(255,255,255)" fill-opacity="1" d=" M-5.35699987411499,14.331999778747559 C-5.35699987411499,14.331999778747559 -4.289999961853027,6.7220001220703125 -4.129000186920166,1.6139999628067017 C-4.004000186920166,-2.3540000915527344 -4.208000183105469,-7.065999984741211 -0.7260000109672546,-8.256999969482422 C1.5260000228881836,-9.027000427246094 8.480999946594238,-1.3309999704360962 8.59000015258789,0.5929999947547913 C8.699999809265137,2.5169999599456787 9.647000312805176,16.9950008392334 9.647000312805176,16.9950008392334 C9.647000312805176,16.9950008392334 -5.35699987411499,14.331999778747559 -5.35699987411499,14.331999778747559z"></path></g><g opacity="1" transform="matrix(1,0,0,1,217.03199768066406,96.97100067138672)"><path fill="rgb(255,255,255)" fill-opacity="1" d=" M5.158999919891357,11.572999954223633 C5.158999919891357,11.572999954223633 5.295000076293945,-0.16899999976158142 2.869999885559082,-3.1619999408721924 C0.4449999928474426,-6.156000137329102 -1.6640000343322754,-10.319999694824219 -3.9140000343322754,-10.553999900817871 C-6.164000034332275,-10.788000106811523 -9.244000434875488,-9.060999870300293 -8.484000205993652,-6.105999946594238 C-7.724999904632568,-3.1519999504089355 -5.7779998779296875,7.7210001945495605 -5.7779998779296875,7.7210001945495605 C-5.7779998779296875,7.7210001945495605 5.158999919891357,11.572999954223633 5.158999919891357,11.572999954223633z"></path></g><g opacity="1" transform="matrix(1,0,0,1,233.2790069580078,105.09600067138672)"><path fill="rgb(255,255,255)" fill-opacity="1" d=" M0.421999990940094,5.9679999351501465 C1.569000005722046,6.335000038146973 2.7009999752044678,5.379000186920166 2.4200000762939453,4.27400016784668 C1.6039999723434448,1.0670000314712524 0.36000001430511475,-5.9730000495910645 -1.3009999990463257,-8.142000198364258 C-2.5929999351501465,-9.831000328063965 -4.427000045776367,-10.991999626159668 -6.4720001220703125,-11.470999717712402 C-8.015000343322754,-11.833000183105469 -9.23799991607666,-10.95300006866455 -9.142999649047852,-9.720999717712402 C-9.142999649047852,-9.720999717712402 -8.220000267028809,2.2709999084472656 -8.220000267028809,2.2709999084472656 C-8.175000190734863,2.8489999771118164 -7.765999794006348,3.3459999561309814 -7.182000160217285,3.5329999923706055 C-7.182000160217285,3.5329999923706055 0.421999990940094,5.9679999351501465 0.421999990940094,5.9679999351501465z"></path></g></g><g opacity="1" transform="matrix(1,0,0,1,144.99099731445312,72.74800109863281)"><path stroke-linecap="round" stroke-linejoin="round" fill-opacity="0" stroke="rgb(132,59,23)" stroke-opacity="1" stroke-width="9.875" d=" M-99.20800018310547,26.809999465942383 C-99.20800018310547,26.809999465942383 -92.03900146484375,-19.131000518798828 -53.86600112915039,-37.63199996948242 C-15.208999633789062,-56.36800003051758 16.33300018310547,-52.867000579833984 43.652000427246094,-40.2760009765625 C70.97200012207031,-27.684999465942383 92.64199829101562,14.85099983215332 95.41999816894531,27.006999969482422 C98.1989974975586,39.16400146484375 95.13500213623047,45.867000579833984 95.13500213623047,45.867000579833984 C95.13500213623047,45.867000579833984 57.79100036621094,31.312999725341797 -4.256999969482422,30.444000244140625 C-66.30599975585938,29.576000213623047 -100.63400268554688,36.71799850463867 -100.63400268554688,36.71799850463867 C-100.63400268554688,36.71799850463867 -99.20800018310547,26.809999465942383 -99.20800018310547,26.809999465942383z"></path></g></g></g><g style="display: block;" transform="matrix(0.9288744926452637,0,0,0.9566647410392761,21.695518493652344,38.36513900756836)" opacity="1"><g opacity="1" transform="matrix(1,0,0,1,319.0090026855469,102.44000244140625)"><path stroke-linecap="round" stroke-linejoin="round" fill-opacity="0" stroke="rgb(224,135,97)" stroke-opacity="1" stroke-width="9.562" d=" M40.159000396728516,16.832000732421875 C40.159000396728516,16.832000732421875 24.00200080871582,3.0290000438690186 3.8440001010894775,2.253999948501587 C-23.724000930786133,1.194000005722046 -40.77299880981445,19.658000946044922 -40.77299880981445,19.658000946044922 C-40.77299880981445,19.658000946044922 -40.659000396728516,13.699000358581543 -36.68299865722656,0.4449999928474426 C-34.96500015258789,-5.2829999923706055 -30.85099983215332,-13.157999992370605 -30.85099983215332,-13.157999992370605"></path></g><g opacity="1" transform="matrix(1,0,0,1,163.29100036621094,137.86599731445312)"><path stroke-linecap="round" stroke-linejoin="round" fill-opacity="0" stroke="rgb(205,96,50)" stroke-opacity="0.55" stroke-width="9.562" d=" M-4.203000068664551,16.6299991607666 C-4.203000068664551,16.6299991607666 17.656999588012695,17.479000091552734 35.891998291015625,9.663999557495117 C54.12699890136719,1.8489999771118164 53.84400177001953,-2.450000047683716 50.750999450683594,-6.315000057220459 C49.01499938964844,-8.486000061035156 47.891998291015625,-4.091000080108643 12.729999542236328,-4.671000003814697 C-26.780000686645508,-5.322000026702881 -52.34400177001953,-15.630000114440918 -52.34400177001953,-15.630000114440918"></path></g><g opacity="1" transform="matrix(1,0,0,1,183.42999267578125,168.8350067138672)"><path stroke-linecap="round" stroke-linejoin="round" fill-opacity="0" stroke="rgb(224,135,97)" stroke-opacity="1" stroke-width="7" d=" M-23.367000579833984,5.086999893188477 C-23.367000579833984,5.086999893188477 -4.35099983215332,6.7129998207092285 9.335000038146973,0.9810000061988831 C23.020999908447266,-4.750999927520752 23.368000030517578,-6.7129998207092285 23.368000030517578,-6.7129998207092285"></path></g><g opacity="1" transform="matrix(1,0,0,1,102.7509994506836,143.48300170898438)"><path stroke-linecap="round" stroke-linejoin="round" fill-opacity="0" stroke="rgb(172,89,53)" stroke-opacity="0.5" stroke-width="9.562" d=" M-10.24899959564209,-11.133000373840332 C-10.24899959564209,-11.133000373840332 -8.835000038146973,-3.7109999656677246 -2.8269999027252197,1.944000005722046 C5.750999927520752,10.017000198364258 10.24899959564209,11.133000373840332 10.24899959564209,11.133000373840332"></path></g><g opacity="1" transform="matrix(1,0,0,1,320.8680114746094,149.58900451660156)"><path stroke-linecap="round" stroke-linejoin="round" fill-opacity="0" stroke="rgb(224,135,97)" stroke-opacity="1" stroke-width="11" d=" M-8.821999549865723,11.024999618530273 C-8.821999549865723,11.024999618530273 -22.2810001373291,4.8420000076293945 -30.96500015258789,-1.6710000038146973 C-39.64799880981445,-8.182999610900879 -38.9109992980957,-14.024999618530273 -37.17499923706055,-13.590999603271484 C-35.4379997253418,-13.156999588012695 -8.980999946594238,-7.260000228881836 6.296000003814697,-6.513000011444092 C35.80799865722656,-5.068999767303467 42.64799880981445,-9.276000022888184 42.64799880981445,-9.276000022888184"></path></g><g opacity="1" transform="matrix(1,0,0,1,164.75,97.27100372314453)"><path stroke-linecap="round" stroke-linejoin="round" fill-opacity="0" stroke="rgb(224,135,97)" stroke-opacity="1" stroke-width="11" d=" M27.820999145507812,-16.71500015258789 C27.820999145507812,-16.71500015258789 42.90599822998047,-9.723999977111816 48.97999954223633,-0.6179999709129333 C54.93000030517578,8.303000450134277 54.73899841308594,13.243000030517578 53.4370002746582,14.979000091552734 C52.13399887084961,16.715999603271484 38.667999267578125,7.88700008392334 27.066999435424805,5.0370001792907715 C-34.83100128173828,-10.166999816894531 -54.93000030517578,12.458999633789062 -54.93000030517578,12.458999633789062"></path></g><g opacity="1" transform="matrix(1,0,0,1,159.5919952392578,116.21299743652344)"><path fill="rgb(255,255,255)" fill-opacity="1" d=" M-57.194000244140625,2 C-57.72700119018555,-0.7540000081062317 -59.41600036621094,-2.693000078201294 -55.073001861572266,-6.302000045776367 C-48.630001068115234,-11.656000137329102 -31.860000610351562,-19.429000854492188 -7.228000164031982,-18.382999420166016 C32.58399963378906,-16.69300079345703 48.17499923706055,-1.3580000400543213 52.95100021362305,3.8529999256134033 C57.72700119018555,9.062999725341797 54.25299835205078,12.970000267028809 52.95100021362305,13.838000297546387 C51.64799880981445,14.706999778747559 26.965999603271484,12.838000297546387 -3.859999895095825,10.668000221252441 C-34.68600082397461,8.496999740600586 -55.70000076293945,4.877999782562256 -56.13399887084961,2.7070000171661377 C-56.137001037597656,2.691999912261963 -57.191001892089844,2.0160000324249268 -57.194000244140625,2z"></path><path stroke-linecap="round" stroke-linejoin="round" fill-opacity="0" stroke="rgb(140,59,31)" stroke-opacity="1" stroke-width="9.73" d=" M-57.194000244140625,2 C-57.72700119018555,-0.7540000081062317 -59.41600036621094,-2.693000078201294 -55.073001861572266,-6.302000045776367 C-48.630001068115234,-11.656000137329102 -31.860000610351562,-19.429000854492188 -7.228000164031982,-18.382999420166016 C32.58399963378906,-16.69300079345703 48.17499923706055,-1.3580000400543213 52.95100021362305,3.8529999256134033 C57.72700119018555,9.062999725341797 54.25299835205078,12.970000267028809 52.95100021362305,13.838000297546387 C51.64799880981445,14.706999778747559 26.965999603271484,12.838000297546387 -3.859999895095825,10.668000221252441 C-34.68600082397461,8.496999740600586 -55.70000076293945,4.877999782562256 -56.13399887084961,2.7070000171661377 C-56.137001037597656,2.691999912261963 -57.191001892089844,2.0160000324249268 -57.194000244140625,2z"></path></g><g opacity="1" transform="matrix(1,0,0,1,324.8190002441406,125.84300231933594)"><path fill="rgb(255,255,255)" fill-opacity="1" d=" M-44.060001373291016,1.4709999561309814 C-39.71799850463867,-3.305000066757202 -31.143999099731445,-15.822999954223633 -3.431999921798706,-18.395000457763672 C36.70899963378906,-22.121000289916992 46.856998443603516,1.6770000457763672 46.301998138427734,11.956000328063965 C46.04999923706055,16.625 27.224000930786133,12.28600025177002 -1.8650000095367432,10.984000205993652 C-20.69300079345703,10.140999794006348 -36.518001556396484,8.390000343322754 -41.8120002746582,8.670000076293945 C-44.55799865722656,8.8149995803833 -45.26900100708008,7.749000072479248 -45.38999938964844,5.001999855041504 C-45.41999816894531,4.335000038146973 -44.33599853515625,1.774999976158142 -44.060001373291016,1.4709999561309814z"></path><path stroke-linecap="round" stroke-linejoin="round" fill-opacity="0" stroke="rgb(140,59,31)" stroke-opacity="1" stroke-width="9.73" d=" M-44.060001373291016,1.4709999561309814 C-39.71799850463867,-3.305000066757202 -31.143999099731445,-15.822999954223633 -3.431999921798706,-18.395000457763672 C36.70899963378906,-22.121000289916992 46.856998443603516,1.6770000457763672 46.301998138427734,11.956000328063965 C46.04999923706055,16.625 27.224000930786133,12.28600025177002 -1.8650000095367432,10.984000205993652 C-20.69300079345703,10.140999794006348 -36.518001556396484,8.390000343322754 -41.8120002746582,8.670000076293945 C-44.55799865722656,8.8149995803833 -45.26900100708008,7.749000072479248 -45.38999938964844,5.001999855041504 C-45.41999816894531,4.335000038146973 -44.33599853515625,1.774999976158142 -44.060001373291016,1.4709999561309814z"></path></g><g opacity="1" transform="matrix(1.1364099979400635,0,0,1.0801100730895996,-50.07025146484375,-10.344375610351562)"><g opacity="1" transform="matrix(1,0,0,1,344.99700927734375,125.25900268554688)"><path fill="rgb(11,17,35)" fill-opacity="1" d=" M3.3410000801086426,-12.425999641418457 C8.720999717712402,-11.128000259399414 23.679000854492188,-3.739000082015991 24.285999298095703,5.38100004196167 C24.969999313354492,15.659000396728516 5.127999782562256,15.51099967956543 -5.1519999504089355,11.003999710083008 C-16.163999557495117,6.177999973297119 -22.847999572753906,2.171999931335449 -15.97599983215332,-8.824000358581543 C-8.234000205993652,-21.211000442504883 -2.4579999446868896,-13.824999809265137 3.3410000801086426,-12.425999641418457z"></path></g><g opacity="1" transform="matrix(1,0,0,1,352.01800537109375,124.96199798583984)"><path fill="rgb(53,53,124)" fill-opacity="1" d=" M-6.580999851226807,-6.438000202178955 C-8.906999588012695,-5.500999927520752 -9.592000007629395,-0.7829999923706055 -7.642000198364258,0.8399999737739563 C-4.052000045776367,3.8299999237060547 1.3769999742507935,7.835000038146973 4.551000118255615,7.692999839782715 C9.593000411987305,7.4670000076293945 9.265000343322754,-1.8680000305175781 2.8580000400543213,-5.888999938964844 C-0.24300000071525574,-7.835999965667725 -4.109000205993652,-7.434000015258789 -6.580999851226807,-6.438000202178955z"></path></g><g opacity="1" transform="matrix(1,0,0,1,333.7760009765625,123.51499938964844)"><path fill="rgb(254,254,254)" fill-opacity="1" d=" M1.1619999408721924,-3.25 C2.046999931335449,-3.058000087738037 3.878999948501587,-2.062000036239624 3.2669999599456787,0.43299999833106995 C2.8489999771118164,2.135999917984009 0.4860000014305115,3.559999942779541 -1.194000005722046,2.8529999256134033 C-2.992000102996826,2.0959999561309814 -3.878999948501587,0.44200000166893005 -2.677999973297119,-1.440000057220459 C-1.3259999752044678,-3.559999942779541 0.20800000429153442,-3.4570000171661377 1.1619999408721924,-3.25z"></path></g></g><g opacity="1" transform="matrix(1,0,0,1,0,0)"><g opacity="1" transform="matrix(1,0,0,1,129.656005859375,115.50900268554688)"><path fill="rgb(11,17,35)" fill-opacity="1" d=" M-3.2679998874664307,-12.821999549865723 C-9.003000259399414,-12.541999816894531 -25.981000900268555,-9.98900032043457 -26.913999557495117,-1.5850000381469727 C-28.038000106811523,8.541000366210938 -5.672999858856201,14.491999626159668 5.744999885559082,11.986000061035156 C17.974000930786133,9.302000045776367 26.488000869750977,2.6110000610351562 22.02400016784668,-9.336000442504883 C16.996000289916992,-22.792999267578125 2.9140000343322754,-13.12399959564209 -3.2679998874664307,-12.821999549865723z"></path></g><g opacity="1" transform="matrix(1,0,0,1,135.5590057373047,111.9489974975586)"><path fill="rgb(53,53,124)" fill-opacity="1" d=" M-8.357999801635742,5.535999774932861 C-9.574999809265137,7.769000053405762 -18.642000198364258,7.026000022888184 -20.177000045776367,4.938000202178955 C-23.003000259399414,1.0950000286102295 -23.229999542236328,1.8270000219345093 -22.774999618530273,-1.3209999799728394 C-22.05299949645996,-6.322000026702881 -16.884000778198242,-3.928999900817871 -10.03600025177002,-0.9139999747276306 C-6.639999866485596,0.5809999704360962 -7.065000057220459,3.1640000343322754 -8.357999801635742,5.535999774932861z"></path></g><g opacity="1" transform="matrix(1,0,0,1,116.6709976196289,111.97899627685547)"><path fill="rgb(254,254,254)" fill-opacity="1" d=" M34.41299819946289,-3.384000062942505 C28.753999710083008,-3.4600000381469727 28.753999710083008,-1.2100000381469727 28.68899917602539,0.125 C28.549999237060547,2.9709999561309814 32.65800094604492,3.736999988555908 35.4010009765625,3.4019999504089355 C38.34000015258789,3.0439999103546143 40.99100112915039,3.868000030517578 42.52899932861328,0.4180000126361847 C43.25400161743164,-1.2089999914169312 39.25400161743164,-3.319000005722046 34.41299819946289,-3.384000062942505z"></path></g></g><g opacity="1" transform="matrix(1,0,0,1,324.8190002441406,125.84300231933594)"><path stroke-linecap="round" stroke-linejoin="round" fill-opacity="0" stroke="rgb(140,59,31)" stroke-opacity="1" stroke-width="9.73" d=" M-44.060001373291016,1.4709999561309814 C-39.71799850463867,-3.305000066757202 -31.143999099731445,-15.822999954223633 -3.431999921798706,-18.395000457763672 C36.70899963378906,-22.121000289916992 46.856998443603516,1.6770000457763672 46.301998138427734,11.956000328063965 C46.04999923706055,16.625 27.224000930786133,12.28600025177002 -1.8650000095367432,10.984000205993652 C-20.69300079345703,10.140999794006348 -36.518001556396484,8.390000343322754 -41.8120002746582,8.670000076293945 C-44.55799865722656,8.8149995803833 -45.26900100708008,7.749000072479248 -45.38999938964844,5.001999855041504 C-45.41999816894531,4.335000038146973 -44.33599853515625,1.774999976158142 -44.060001373291016,1.4709999561309814z"></path></g><g opacity="1" transform="matrix(1,0,0,1,159.5919952392578,116.21299743652344)"><path stroke-linecap="round" stroke-linejoin="round" fill-opacity="0" stroke="rgb(140,59,31)" stroke-opacity="1" stroke-width="9.73" d=" M-57.194000244140625,2 C-57.72700119018555,-0.7540000081062317 -59.41600036621094,-2.693000078201294 -55.073001861572266,-6.302000045776367 C-48.630001068115234,-11.656000137329102 -31.860000610351562,-19.429000854492188 -7.228000164031982,-18.382999420166016 C32.58399963378906,-16.69300079345703 48.17499923706055,-1.3580000400543213 52.95100021362305,3.8529999256134033 C57.72700119018555,9.062999725341797 54.25299835205078,12.970000267028809 52.95100021362305,13.838000297546387 C51.64799880981445,14.706999778747559 26.965999603271484,12.838000297546387 -3.859999895095825,10.668000221252441 C-34.68600082397461,8.496999740600586 -55.70000076293945,4.877999782562256 -56.13399887084961,2.7070000171661377 C-56.137001037597656,2.691999912261963 -57.191001892089844,2.0160000324249268 -57.194000244140625,2z"></path></g><g opacity="1" transform="matrix(1,0,0,1,368.1809997558594,159.03399658203125)"><path stroke-linecap="round" stroke-linejoin="round" fill-opacity="0" stroke="rgb(224,135,97)" stroke-opacity="1" stroke-width="9.562" d=" M4.771999835968018,-9.012999534606934 C4.771999835968018,-9.012999534606934 4.242000102996826,-1.059999942779541 1.0609999895095825,3.180999994277954 C-2.119999885559082,7.422999858856201 -4.771999835968018,9.012999534606934 -4.771999835968018,9.012999534606934"></path></g></g><g style="display: block;" transform="matrix(0.9288744926452637,0,0,0.9566647410392761,132.5000457763672,87.37985229492188)" opacity="1"><g opacity="1" transform="matrix(1.0614399909973145,0,0,1,34.07600021362305,10.861000061035156)"><path fill="rgb(62,25,13)" fill-opacity="1" d=" M29.886999130249023,-15.230999946594238 C25.341999053955078,-17.958999633789062 10.21399974822998,-18.283000946044922 -0.40700000524520874,-15.711999893188477 C-23.690000534057617,-10.076000213623047 -35.189998626708984,4.923999786376953 -31.881999969482422,9.053999900817871 C-29.452999114990234,12.086000442504883 -12.795999526977539,3.937999963760376 -10.125,3.0739998817443848 C1.7610000371932983,-0.7739999890327454 13.378000259399414,-1.375 22.3799991607666,-1.7910000085830688 C31.381000518798828,-2.2070000171661377 33.82600021362305,-1.6419999599456787 33.64899826049805,-4.718999862670898 C33.47100067138672,-7.796000003814697 36.810001373291016,-11.076000213623047 29.886999130249023,-15.230999946594238z"></path></g><g opacity="1" transform="matrix(1,0,0,1,197.29299926757812,18.43199920654297)"><path fill="rgb(62,25,12)" fill-opacity="1" d=" M-25.323999404907227,-14.869000434875488 C-14.182000160217285,-16.833999633789062 -7.34499979019165,-14.401000022888184 0.6320000290870667,-12.779000282287598 C12.086000442504883,-10.449999809265137 33.81700134277344,3.1659998893737793 28.57200050354004,11.829000473022461 C26.590999603271484,15.10099983215332 12.022000312805176,5.214000225067139 10.062999725341797,4.421000003814697 C1.3480000495910645,0.8899999856948853 -7.841000080108643,-0.9210000038146973 -14.57699966430664,-1.1130000352859497 C-21.312000274658203,-1.3049999475479126 -22.667999267578125,-1.6080000400543213 -25.152000427246094,-3.4240000247955322 C-31.18199920654297,-7.834000110626221 -26.760000228881836,-14.616000175476074 -25.323999404907227,-14.869000434875488z"></path></g></g></g></svg>