<svg xmlns="http://www.w3.org/2000/svg" xmlns:xlink="http://www.w3.org/1999/xlink" viewBox="0 0 512 512" width="512" height="512" style="width: 100%; height: 100%; transform: translate3d(0,0,0); content-visibility: visible;" preserveAspectRatio="xMidYMid meet"><defs><clipPath id="__lottie_element_2"><rect width="512" height="512" x="0" y="0"></rect></clipPath><clipPath id="__lottie_element_4"><path d="M0,0 L512,0 L512,512 L0,512z"></path></clipPath><radialGradient id="__lottie_element_25" spreadMethod="pad" gradientUnits="userSpaceOnUse"><stop></stop><stop></stop><stop></stop></radialGradient><radialGradient id="__lottie_element_26" spreadMethod="pad" gradientUnits="userSpaceOnUse"><stop></stop><stop></stop><stop></stop></radialGradient><clipPath id="__lottie_element_59"><path d="M0,0 L512,0 L512,512 L0,512z"></path></clipPath><radialGradient id="__lottie_element_80" spreadMethod="pad" gradientUnits="userSpaceOnUse" cx="-36.08100128173828" cy="554.5289916992188" r="497.3588763543517" fx="91.89320507671594" fy="476.34209965431285"><stop offset="0%" stop-color="rgb(217,131,92)"></stop><stop offset="50%" stop-color="rgb(227,143,105)"></stop><stop offset="100%" stop-color="rgb(237,156,118)"></stop></radialGradient><radialGradient id="__lottie_element_81" spreadMethod="pad" gradientUnits="userSpaceOnUse" cx="-47.03099822998047" cy="-160.9010009765625" r="312.52621175440174" fx="-47.03099822998047" fy="-160.9010009765625"><stop offset="0%" stop-color="rgb(254,240,222)"></stop><stop offset="50%" stop-color="rgb(249,213,185)"></stop><stop offset="100%" stop-color="rgb(244,187,148)"></stop></radialGradient></defs><g clip-path="url(#__lottie_element_2)"><g clip-path="url(#__lottie_element_59)" style="display: block;" transform="matrix(1,0,0,1,0,0)" opacity="1"><g style="display: none;"><g><path></path><path stroke-linecap="butt" stroke-linejoin="miter" fill-opacity="0" stroke-miterlimit="10"></path></g><g><path></path></g><g><path stroke-linecap="butt" stroke-linejoin="miter" fill-opacity="0" stroke-miterlimit="10"></path></g><g><path></path></g><g><path stroke-linecap="butt" stroke-linejoin="miter" fill-opacity="0" stroke-miterlimit="10"></path></g><g><path></path></g><g><path></path></g><g><path stroke-linecap="butt" stroke-linejoin="miter" fill-opacity="0" stroke-miterlimit="10"></path></g><g><path></path></g><g><path stroke-linecap="butt" stroke-linejoin="miter" fill-opacity="0" stroke-miterlimit="10"></path></g><g><path></path></g><g><path></path></g><g><path></path></g><g><g><path></path></g><g><path></path></g><g><path></path></g></g><g><path></path></g><g><path></path><path stroke-linecap="round" stroke-linejoin="miter" fill-opacity="0" stroke-miterlimit="4"></path></g></g><g style="display: block;" transform="matrix(0.800000011920929,0,0,0.800000011920929,109.25790405273438,47.09245300292969)" opacity="1"><g opacity="1" transform="matrix(1,0,0,1,407.052001953125,187.61898803710938)"><path fill="rgb(227,143,104)" fill-opacity="1" d=" M-39.02899932861328,84.30000305175781 C-39.02899932861328,84.30000305175781 -36.94900131225586,54.74100112915039 -25.611000061035156,34.73099899291992 C-21.722000122070312,27.8700008392334 -17.48200035095215,20.895000457763672 -13.980999946594238,14.565999984741211 C-6.8979997634887695,1.7610000371932983 -14.230999946594238,-11.8709077835083 -21.25,-30.11990737915039 C-26.698999404907227,-44.28690719604492 -30.621999740600586,-52.97600173950195 -24.62700080871582,-60.604000091552734 C-15.875,-71.74400329589844 9.807999610900879,-71.52999877929688 27.243999481201172,-45.375999450683594 C44.68000030517578,-19.222000122070312 40.86600112915039,14.833000183105469 35.417999267578125,36.62799835205078 C29.968000411987305,58.42300033569336 23.158000946044922,76.677001953125 23.158000946044922,76.677001953125"></path><path stroke-linecap="butt" stroke-linejoin="miter" fill-opacity="0" stroke-miterlimit="10" stroke="rgb(177,88,43)" stroke-opacity="1" stroke-width="11" d=" M-39.02899932861328,84.30000305175781 C-39.02899932861328,84.30000305175781 -36.94900131225586,54.74100112915039 -25.611000061035156,34.73099899291992 C-21.722000122070312,27.8700008392334 -17.48200035095215,20.895000457763672 -13.980999946594238,14.565999984741211 C-6.8979997634887695,1.7610000371932983 -14.230999946594238,-11.8709077835083 -21.25,-30.11990737915039 C-26.698999404907227,-44.28690719604492 -30.621999740600586,-52.97600173950195 -24.62700080871582,-60.604000091552734 C-15.875,-71.74400329589844 9.807999610900879,-71.52999877929688 27.243999481201172,-45.375999450683594 C44.68000030517578,-19.222000122070312 40.86600112915039,14.833000183105469 35.417999267578125,36.62799835205078 C29.968000411987305,58.42300033569336 23.158000946044922,76.677001953125 23.158000946044922,76.677001953125"></path></g><g opacity="1" transform="matrix(0.999906599521637,-0.013665502890944481,0.013665502890944481,0.999906599521637,398.86199951171875,208.22239685058594)"><path fill="rgb(245,191,153)" fill-opacity="1" d=" M-18.003999710083008,27.451000213623047 C-16.320999145507812,23.333999633789062 -12.666000366210938,18.458999633789062 -8.196000099182129,10.741999626159668 C-4.429999828338623,4.23799991607666 -1.5219999551773071,2.499000072479248 2.3380000591278076,-5.605000019073486 C6.994999885559082,-15.383999824523926 -1.8580000400543213,-40.01300048828125 -8.649999618530273,-51.737998962402344 C-13.32699966430664,-59.810001373291016 -17.28700065612793,-65.93699645996094 -14.989999771118164,-71.4469985961914 C-11.21500015258789,-80.51000213623047 11.685999870300293,-75.31199645996094 23.768999099731445,-57.1879997253418 C35.85200119018555,-39.0629997253418 33.03200149536133,-25.583999633789062 31.398000717163086,-11.961999893188477 C29.542999267578125,3.496000051498413 25.40399932861328,7.6539998054504395 22.68000030517578,22.093000411987305 C21.990999221801758,25.743999481201172 22.68000030517578,39.25699996948242 22.68000030517578,39.25699996948242 C22.68000030517578,39.25699996948242 16.68600082397461,39.619998931884766 16.142000198364258,44.34199905395508 C15.300000190734863,51.63999938964844 23.768999099731445,49.97200012207031 23.768999099731445,49.97200012207031 C23.768999099731445,49.97200012207031 6.730999946594238,64.13899993896484 0.5210000276565552,64.13899993896484 C-3.367000102996826,64.13899993896484 -7.947000026702881,80.51000213623047 -10.73900032043457,79.75900268554688 C-35.85200119018555,73 -23.25200080871582,40.290000915527344 -18.003999710083008,27.451000213623047z"></path></g><g opacity="1" transform="matrix(1,0,0,1,393.8332824707031,146.46438598632812)"><path stroke-linecap="butt" stroke-linejoin="miter" fill-opacity="0" stroke-miterlimit="10" stroke="rgb(143,77,52)" stroke-opacity="0.43" stroke-width="11" d=" M-11.635000228881836,-5.8420000076293945 C-11.635000228881836,-5.8420000076293945 -4.000999927520752,-11.887999534606934 4.610000133514404,-9.25100040435791 C11.635000228881836,-7.099999904632568 10.213000297546387,1.569000005722046 5.517000198364258,5.2210001945495605 C1.7920000553131104,8.119000434875488 -4.390999794006348,11.88700008392334 -4.390999794006348,11.88700008392334 C-4.390999794006348,11.88700008392334 -11.635000228881836,-5.8420000076293945 -11.635000228881836,-5.8420000076293945z"></path></g><g opacity="1" transform="matrix(1,0,0,1,437.4289855957031,285.6820068359375)"><path fill="rgb(227,143,104)" fill-opacity="1" d=" M-35.82500076293945,-25.746000289916992 C-35.82500076293945,-25.746000289916992 -7.218999862670898,-37.459999084472656 23.29400062561035,-37.459999084472656 C53.80699920654297,-37.459999084472656 60.34600067138672,-17.57200050354004 55.7140007019043,-3.9509999752044678 C50.68899917602539,10.831000328063965 36.64400100708008,21.113000869750977 7.21999979019165,29.28700065612793 C-22.202999114990234,37.459999084472656 -57.07500076293945,27.652000427246094 -58.709999084472656,8.581000328063965 C-60.345001220703125,-10.48900032043457 -35.82500076293945,-25.746000289916992 -35.82500076293945,-25.746000289916992z"></path></g><g opacity="1" transform="matrix(1,0,0,1,437.4289855957031,285.6820068359375)"><path stroke-linecap="butt" stroke-linejoin="miter" fill-opacity="0" stroke-miterlimit="10" stroke="rgb(178,89,43)" stroke-opacity="1" stroke-width="12" d=" M-35.82500076293945,-25.746000289916992 C-35.82500076293945,-25.746000289916992 -7.218999862670898,-37.459999084472656 23.29400062561035,-37.459999084472656 C53.80699920654297,-37.459999084472656 60.34600067138672,-17.57200050354004 55.7140007019043,-3.9509999752044678 C50.68899917602539,10.831000328063965 36.64400100708008,21.113000869750977 7.21999979019165,29.28700065612793 C-22.202999114990234,37.459999084472656 -57.07500076293945,27.652000427246094 -58.709999084472656,8.581000328063965 C-60.345001220703125,-10.48900032043457 -35.82500076293945,-25.746000289916992 -35.82500076293945,-25.746000289916992z"></path></g><g opacity="1" transform="matrix(1,0,0,1,431.62200927734375,283.2560119628906)"><path fill="rgb(245,191,153)" fill-opacity="1" d=" M-26.20400047302246,-13.78600025177002 C-26.20400047302246,-13.78600025177002 -4.170000076293945,-25.77199935913086 18.20199966430664,-25.77199935913086 C40.57400131225586,-25.77199935913086 46.36399841308594,-13.052000045776367 40.77199935913086,-3.441999912261963 C35.17900085449219,6.166999816894531 26.788999557495117,14.23900032043457 5.216000080108643,20.0049991607666 C-16.35700035095215,25.770999908447266 -40.608001708984375,18.66900062561035 -43.124000549316406,5.39900016784668 C-46.3650016784668,-11.696999549865723 -26.20400047302246,-13.78600025177002 -26.20400047302246,-13.78600025177002z"></path></g><g opacity="1" transform="matrix(1,0,0,1,425.2149963378906,365.6419982910156)"><path fill="rgb(227,143,104)" fill-opacity="1" d=" M-69.01699829101562,-28.33300018310547 C-69.01699829101562,-28.33300018310547 -65.7249984741211,-11.317999839782715 -43.77199935913086,9.262999534606934 C-26.336000442504883,25.608999252319336 4.177999973297119,33.23699951171875 31.965999603271484,32.14699935913086 C59.755001068115234,31.05900001525879 69.01699829101562,16.892000198364258 65.2030029296875,2.7249999046325684 C61.388999938964844,-11.442000389099121 52.12799835205078,-16.891000747680664 44.499000549316406,-21.795000076293945 C36.87099838256836,-26.698999404907227 17.798999786376953,-33.23699951171875 17.798999786376953,-33.23699951171875 C17.798999786376953,-33.23699951171875 -2.361999988555908,-32.14699935913086 -2.361999988555908,-32.14699935913086 C-2.361999988555908,-32.14699935913086 -69.01699829101562,-28.33300018310547 -69.01699829101562,-28.33300018310547z"></path></g><g opacity="1" transform="matrix(1,0,0,1,425.2149963378906,365.6419982910156)"><path stroke-linecap="butt" stroke-linejoin="miter" fill-opacity="0" stroke-miterlimit="10" stroke="rgb(178,89,43)" stroke-opacity="1" stroke-width="12" d=" M-69.01699829101562,-28.33300018310547 C-69.01699829101562,-28.33300018310547 -65.7249984741211,-11.317999839782715 -43.77199935913086,9.262999534606934 C-26.336000442504883,25.608999252319336 4.177999973297119,33.23699951171875 31.965999603271484,32.14699935913086 C59.755001068115234,31.05900001525879 69.01699829101562,16.892000198364258 65.2030029296875,2.7249999046325684 C61.388999938964844,-11.442000389099121 52.12799835205078,-16.891000747680664 44.499000549316406,-21.795000076293945 C36.87099838256836,-26.698999404907227 17.798999786376953,-33.23699951171875 17.798999786376953,-33.23699951171875 C17.798999786376953,-33.23699951171875 -2.361999988555908,-32.14699935913086 -2.361999988555908,-32.14699935913086 C-2.361999988555908,-32.14699935913086 -69.01699829101562,-28.33300018310547 -69.01699829101562,-28.33300018310547z"></path></g><g opacity="1" transform="matrix(1,0,0,1,432.5710144042969,326.49700927734375)"><path fill="rgb(227,143,104)" fill-opacity="1" d=" M-51.672000885009766,-9.348999977111816 C-51.672000885009766,-9.348999977111816 1.6820000410079956,-17.76799964904785 13.711999893188477,-19.70199966430664 C28.9689998626709,-22.15399932861328 58.138999938964844,-26.795000076293945 58.93600082397461,-1.7200000286102295 C59.845001220703125,26.795000076293945 23.520000457763672,25.704999923706055 -4.26800012588501,24.97800064086914 C-32.095001220703125,24.250999450683594 -55.48699951171875,21.165000915527344 -57.66699981689453,14.081000328063965 C-59.84600067138672,6.998000144958496 -51.672000885009766,-9.348999977111816 -51.672000885009766,-9.348999977111816z"></path></g><g opacity="1" transform="matrix(1,0,0,1,432.5710144042969,326.49700927734375)"><path stroke-linecap="butt" stroke-linejoin="miter" fill-opacity="0" stroke-miterlimit="10" stroke="rgb(178,89,43)" stroke-opacity="1" stroke-width="12" d=" M-51.672000885009766,-9.348999977111816 C-51.672000885009766,-9.348999977111816 1.6820000410079956,-17.76799964904785 13.711999893188477,-19.70199966430664 C28.9689998626709,-22.15399932861328 58.138999938964844,-26.795000076293945 58.93600082397461,-1.7200000286102295 C59.845001220703125,26.795000076293945 23.520000457763672,25.704999923706055 -4.26800012588501,24.97800064086914 C-32.095001220703125,24.250999450683594 -55.48699951171875,21.165000915527344 -57.66699981689453,14.081000328063965 C-59.84600067138672,6.998000144958496 -51.672000885009766,-9.348999977111816 -51.672000885009766,-9.348999977111816z"></path></g><g opacity="1" transform="matrix(1,0,0,1,425.66900634765625,328.18701171875)"><path fill="rgb(245,191,153)" fill-opacity="1" d=" M-39.207000732421875,-7.015999794006348 C-39.207000732421875,-7.015999794006348 3.3010001182556152,-11.142999649047852 12.380999565124512,-12.793000221252441 C21.459999084472656,-14.444999694824219 43.744998931884766,-20.222000122070312 44.57099914550781,-1.2380000352859497 C45.39699935913086,17.746999740600586 17.7450008392334,17.746999740600586 -3.302000045776367,18.983999252319336 C-24.350000381469727,20.222000122070312 -42.09600067138672,16.094999313354492 -43.74700164794922,10.729999542236328 C-45.39699935913086,5.364999771118164 -39.207000732421875,-7.015999794006348 -39.207000732421875,-7.015999794006348z"></path></g><g opacity="1" transform="matrix(1,0,0,1,428.7829895019531,368.05499267578125)"><path fill="rgb(245,191,153)" fill-opacity="1" d=" M-32.62799835205078,-13.310999870300293 C-32.62799835205078,-13.310999870300293 5.742000102996826,-12.343999862670898 14.956999778747559,-11.857999801635742 C24.17300033569336,-11.371999740600586 52.78900146484375,-10.78499984741211 49.21699905395508,7.877999782562256 C45.64400100708008,26.54199981689453 12.758999824523926,19.54800033569336 -7.565000057220459,13.932999610900879 C-28.270000457763672,8.211000442504883 -52.78900146484375,-11.675999641418457 -52.24399948120117,-20.93899917602539 C-51.91400146484375,-26.54199981689453 -33.310001373291016,-13.310999870300293 -33.310001373291016,-13.310999870300293"></path></g><g opacity="1" transform="matrix(1,0,0,1,410.3210144042969,325.1390075683594)"><path fill="rgb(245,191,153)" fill-opacity="1" d=" M26.517000198364258,-22.520999908447266 C26.517000198364258,-22.520999908447266 18.3439998626709,-21.430999755859375 18.888999938964844,-13.984999656677246 C19.233999252319336,-9.274999618530273 28.152000427246094,-9.807000160217285 28.152000427246094,-9.807000160217285 C28.152000427246094,-9.807000160217285 31.60300064086914,15.074999809265137 31.60300064086914,15.074999809265137 C31.60300064086914,15.074999809265137 29.42300033569336,20.52400016784668 29.42300033569336,20.52400016784668 C29.42300033569336,20.52400016784668 21.79400062561035,20.886999130249023 21.79400062561035,25.608999252319336 C21.79400062561035,30.332000732421875 27.243999481201172,30.69499969482422 27.243999481201172,30.69499969482422 C27.243999481201172,30.69499969482422 23.611000061035156,49.58300018310547 23.611000061035156,49.58300018310547 C23.611000061035156,49.58300018310547 -10.62600040435791,41.31999969482422 -10.62600040435791,41.31999969482422 C-10.62600040435791,41.31999969482422 -33.055999755859375,28.33300018310547 -33.78300094604492,21.43199920654297 C-34.50899887084961,14.529999732971191 -29.604999542236328,-15.166000366210938 -29.968000411987305,-23.520000457763672 C-30.332000732421875,-31.875 -23.61199951171875,-44.49800109863281 -6.175000190734863,-47.04100036621094 C11.260000228881836,-49.58300018310547 34.507999420166016,-37.59600067138672 34.507999420166016,-37.59600067138672 C34.507999420166016,-37.59600067138672 26.517000198364258,-22.520999908447266 26.517000198364258,-22.520999908447266z"></path></g><g opacity="0.75" transform="matrix(1,0,0,1,394.76300048828125,147.44700622558594)"><g opacity="1" transform="matrix(1,0,0,1,49.676998138427734,219.95899963378906)"><path fill="rgb(254,254,255)" fill-opacity="1" d=" M-4.0269999504089355,-5.135000228881836 C-1.8209999799728394,-5.302999973297119 1.3869999647140503,-4.715000152587891 4.85099983215332,-2.9860000610351562 C8.3149995803833,-1.25600004196167 11.4350004196167,3.125999927520752 8.227999687194824,4.836999893188477 C5.813000202178955,6.125 -1.5119999647140503,3.256999969482422 -5.046999931335449,2.430000066757202 C-7.1579999923706055,1.9359999895095825 -10.416000366210938,0.42899999022483826 -9.364999771118164,-2.059000015258789 C-8.314000129699707,-4.546999931335449 -6.434000015258789,-4.952000141143799 -4.0269999504089355,-5.135000228881836z"></path></g><g opacity="1" transform="matrix(1,0,0,1,48.165000915527344,120.052001953125)"><path fill="rgb(254,254,255)" fill-opacity="1" d=" M-8.522000312805176,-4.614999771118164 C-5.589000225067139,-5.958000183105469 -0.9049999713897705,-6.771999835968018 4.706999778747559,-6.15500020980835 C10.317000389099121,-5.539000034332275 16.797000885009766,-1.1200000047683716 13.27299976348877,2.8389999866485596 C10.621000289916992,5.821000099182129 -0.847000002861023,5.5929999351501465 -6.0980000495910645,6.247000217437744 C-9.236000061035156,6.638999938964844 -14.451000213623047,6.2230000495910645 -14.270000457763672,2.2890000343322754 C-14.08899974822998,-1.6440000534057617 -11.722000122070312,-3.1489999294281006 -8.522000312805176,-4.614999771118164z"></path></g><g opacity="1" transform="matrix(1,0,0,1,45.29899978637695,175.42100524902344)"><path fill="rgb(254,254,255)" fill-opacity="1" d=" M-8.522000312805176,-4.614999771118164 C-5.589000225067139,-5.958000183105469 -0.9039999842643738,-6.771999835968018 4.706999778747559,-6.156000137329102 C10.317000389099121,-5.539999961853027 16.797000885009766,-1.1200000047683716 13.27400016784668,2.8389999866485596 C10.621000289916992,5.820000171661377 -0.8460000157356262,5.593999862670898 -6.0980000495910645,6.248000144958496 C-9.236000061035156,6.638999938964844 -14.451000213623047,6.2220001220703125 -14.270000457763672,2.2880001068115234 C-14.08899974822998,-1.6449999809265137 -11.722000122070312,-3.1489999294281006 -8.522000312805176,-4.614999771118164z"></path></g></g><g opacity="1" transform="matrix(1,0,0,1,0,0)"><path fill="rgb(222,159,123)" fill-opacity="1" d=" M376.27801513671875,254.75 C376.27801513671875,254.75 364.00201416015625,263.68499755859375 358.22198486328125,295.8609924316406 C349.8890075683594,342.25 376.27801513671875,361.69500732421875 376.27801513671875,361.69500732421875 C376.27801513671875,361.69500732421875 398.5,338.9169921875 398.5,338.9169921875 C398.5,338.9169921875 392.6669921875,305.02801513671875 392.6669921875,305.02801513671875 C392.6669921875,305.02801513671875 376.27801513671875,254.75 376.27801513671875,254.75z"></path></g><g opacity="1" transform="matrix(1,0,0,1,0,0)"><path fill="rgb(245,191,153)" fill-opacity="1" d=" M382.7430114746094,245.6020050048828 C382.7430114746094,245.6020050048828 359.7449951171875,263.2690124511719 360.614990234375,314.8450012207031 C361.36199951171875,359.16900634765625 412.1400146484375,379.2909851074219 412.1400146484375,379.2909851074219 C412.1400146484375,379.2909851074219 422.8710021972656,362.6889953613281 415.7170104980469,344.010986328125 C408.56298828125,325.3330078125 400.8590087890625,280.5669860839844 400.8590087890625,280.5669860839844 C400.8590087890625,280.5669860839844 392.3290100097656,274.9339904785156 392.3290100097656,274.9339904785156 C392.3290100097656,274.9339904785156 387.3760070800781,279.3810119628906 384.0740051269531,274.34100341796875 C381.24700927734375,270.0260009765625 390.12701416015625,261.8890075683594 390.12701416015625,261.8890075683594 C390.12701416015625,261.8890075683594 382.7430114746094,245.6020050048828 382.7430114746094,245.6020050048828z"></path></g><g opacity="1" transform="matrix(1,0,0,1,0,0)"><path stroke-linecap="round" stroke-linejoin="miter" fill-opacity="0" stroke-miterlimit="4" stroke="rgb(178,89,43)" stroke-opacity="1" stroke-width="12" d=" M375.02301025390625,244.3800048828125 C375.02301025390625,244.3800048828125 356.27801513671875,272.135009765625 353.6340026855469,305.2130126953125 C350.6400146484375,342.677001953125 366.4119873046875,358.8240051269531 366.4119873046875,358.8240051269531"></path></g></g><g style="display: block;" transform="matrix(0.9800000190734863,0,0,0.9800000190734863,46.64714431762695,5.08111572265625)" opacity="1"><g opacity="1" transform="matrix(1,0,0,1,210.5540008544922,246.46400451660156)"><path fill="url(#__lottie_element_80)" fill-opacity="1" d=" M-73.76000213623047,-184.86300659179688 C-115.71600341796875,-162.5229949951172 -170.7480010986328,-112.94000244140625 -181.64599609375,-0.6949999928474426 C-188.5970001220703,70.91100311279297 -156.4499969482422,130.302001953125 -106.76300048828125,164.9810028076172 C-57.07600021362305,199.66000366210938 12.862000465393066,213.74099731445312 76.6259994506836,187.83200073242188 C188.5970001220703,142.3350067138672 173.1959991455078,48.814998626708984 170.343994140625,26.003999710083008 C165.44000244140625,-13.22700023651123 139.83200073242188,-55.18299865722656 136.56199645996094,-74.7979965209961 C133.29299926757812,-94.41400146484375 124.26300048828125,-167.4429931640625 54.83100128173828,-195.21600341796875 C8.515999794006348,-213.74099731445312 -47.034000396728516,-199.093994140625 -73.76000213623047,-184.86300659179688z"></path><path stroke-linecap="butt" stroke-linejoin="miter" fill-opacity="0" stroke-miterlimit="10" stroke="rgb(182,94,49)" stroke-opacity="1" stroke-width="13" d=" M-73.76000213623047,-184.86300659179688 C-115.71600341796875,-162.5229949951172 -170.7480010986328,-112.94000244140625 -181.64599609375,-0.6949999928474426 C-188.5970001220703,70.91100311279297 -156.4499969482422,130.302001953125 -106.76300048828125,164.9810028076172 C-57.07600021362305,199.66000366210938 12.862000465393066,213.74099731445312 76.6259994506836,187.83200073242188 C188.5970001220703,142.3350067138672 173.1959991455078,48.814998626708984 170.343994140625,26.003999710083008 C165.44000244140625,-13.22700023651123 139.83200073242188,-55.18299865722656 136.56199645996094,-74.7979965209961 C133.29299926757812,-94.41400146484375 124.26300048828125,-167.4429931640625 54.83100128173828,-195.21600341796875 C8.515999794006348,-213.74099731445312 -47.034000396728516,-199.093994140625 -73.76000213623047,-184.86300659179688z"></path></g><g opacity="1" transform="matrix(1,0,0,1,210.80099487304688,230.77099609375)"><path fill="url(#__lottie_element_81)" fill-opacity="1" d=" M-65.11199951171875,-165.07081604003906 C-102.40899658203125,-145.2998046875 -151.33200073242188,-102.375 -161.02000427246094,-3.0409998893737793 C-167.1999969482422,60.327999114990234 -139.88250732421875,118.59523010253906 -95.71150970458984,149.2852325439453 C-51.54151153564453,179.97622680664062 11.155976295471191,193.30227661132812 67.84097290039062,170.3722686767578 C167.3809814453125,130.10926818847656 154.4250030517578,40.77299880981445 151.88900756835938,20.586999893188477 C147.52999877929688,-14.131999969482422 124.76399993896484,-51.26100158691406 121.85800170898438,-68.62100219726562 C118.95099639892578,-85.9800033569336 110.9260025024414,-149.08074951171875 49.20199966430664,-173.6597442626953 C8.029000282287598,-190.05474853515625 -41.35300064086914,-177.66481018066406 -65.11199951171875,-165.07081604003906z"></path></g></g><g style="display: block;" transform="matrix(0.9800000190734863,0,0,0.9796951413154602,57.054500579833984,4.621591091156006)" opacity="0.53"><g opacity="1" transform="matrix(1,0,0,1,113.94999694824219,236.0679931640625)"><path fill="rgb(254,254,255)" fill-opacity="1" d=" M-12.300999641418457,-7.103000164031982 C-8.29800033569336,-9.515000343322754 -1.815000057220459,-11.20300006866455 6.057000160217285,-10.633999824523926 C13.928000450134277,-10.0649995803833 23.26799964904785,-3.378000020980835 18.615999221801758,3.3350000381469727 C15.11400032043457,8.388999938964844 -0.9039999842643738,8.909000396728516 -8.189000129699707,10.378999710083008 C-12.541000366210938,11.258000373840332 -19.847000122070312,10.982999801635742 -19.858999252319336,4.570000171661377 C-19.871000289916992,-1.843000054359436 -16.66900062561035,-4.4720001220703125 -12.300999641418457,-7.103000164031982z"></path></g><g opacity="1" transform="matrix(1,0,0,1,319.1319885253906,225.7449951171875)"><path fill="rgb(254,254,255)" fill-opacity="1" d=" M-10.970988273620605,-8.930137634277344 C-6.234988689422607,-9.657137870788574 0.7890114784240723,-8.91713809967041 8.552011489868164,-5.756137847900391 C16.3170108795166,-2.5961380004882812 23.778011322021484,6.3508620262146 17.13401222229004,10.573862075805664 C12.133011817932129,13.754861831665039 -4.1549882888793945,8.771862030029297 -11.921988487243652,7.57186222076416 C-16.56298828125,6.855862140655518 -23.8439884185791,4.139862060546875 -21.986988067626953,-1.4051378965377808 C-20.129987716674805,-6.951138019561768 -16.137989044189453,-8.138137817382812 -10.970988273620605,-8.930137634277344z"></path></g></g><g style="display: none;"><g><path></path></g><g><path></path><path stroke-linecap="butt" stroke-linejoin="miter" fill-opacity="0" stroke-miterlimit="10"></path></g><g><path></path></g><g><path></path></g><g><path></path></g><g><path></path></g><g><path></path></g><g><path stroke-linecap="butt" stroke-linejoin="miter" fill-opacity="0" stroke-miterlimit="10"></path></g></g><g style="display: block;" transform="matrix(0.9800000190734863,0,0,0.9796951413154602,57.054500579833984,6.580977916717529)" opacity="1"><g opacity="1" transform="matrix(1,0,0,1,279.91400146484375,181.3780059814453)"><path fill="rgb(221,160,124)" fill-opacity="1" d=" M-42.159000396728516,23.92799949645996 C-34.816001892089844,34.50199890136719 -15.003000259399414,45.52000045776367 13.07699966430664,35.84400177001953 C37.141998291015625,27.552000045776367 52.29800033569336,1.7359999418258667 37.229000091552734,-23.733999252319336 C24.354999542236328,-45.49100112915039 -15.656999588012695,-45.520999908447266 -35.90299987792969,-26.90999984741211 C-52.297000885009766,-11.84000015258789 -50.42300033569336,12.029999732971191 -42.159000396728516,23.92799949645996z"></path></g><g opacity="1" transform="matrix(1,0,0,1,275.1940002441406,165.20399475097656)"><path fill="rgb(198,219,226)" fill-opacity="1" d=" M-43.56399917602539,26.584999084472656 C-35.2599983215332,39.21200180053711 -13.659000396728516,52.92900085449219 15.798999786376953,42.96900177001953 C41.04399871826172,34.43199920654297 56,5.11899995803833 38.7869987487793,-25.17799949645996 C24.08099937438965,-51.060001373291016 -18.527999877929688,-52.93000030517578 -39.233001708984375,-32.224998474121094 C-56.000999450683594,-15.456999778747559 -52.909000396728516,12.375 -43.56399917602539,26.584999084472656z"></path><path stroke-linecap="butt" stroke-linejoin="miter" fill-opacity="0" stroke-miterlimit="10" stroke="rgb(101,61,109)" stroke-opacity="1" stroke-width="10" d=" M-43.56399917602539,26.584999084472656 C-35.2599983215332,39.21200180053711 -13.659000396728516,52.92900085449219 15.798999786376953,42.96900177001953 C41.04399871826172,34.43199920654297 56,5.11899995803833 38.7869987487793,-25.17799949645996 C24.08099937438965,-51.060001373291016 -18.527999877929688,-52.93000030517578 -39.233001708984375,-32.224998474121094 C-56.000999450683594,-15.456999778747559 -52.909000396728516,12.375 -43.56399917602539,26.584999084472656z"></path></g><g opacity="1" transform="matrix(1,0,0,1,276.75299072265625,162.11399841308594)"><path fill="rgb(254,254,255)" fill-opacity="1" d=" M-36.9010009765625,22.518999099731445 C-29.867000579833984,33.21500015258789 -11.569000244140625,44.83300018310547 13.383000373840332,36.39699935913086 C34.76599884033203,29.166000366210938 47.433998107910156,4.335999965667725 32.85300064086914,-21.326000213623047 C20.39699935913086,-43.249000549316406 -15.694000244140625,-44.83300018310547 -33.231998443603516,-27.29400062561035 C-47.433998107910156,-13.092000007629395 -44.81700134277344,10.482000350952148 -36.9010009765625,22.518999099731445z"></path></g><g opacity="1" transform="matrix(1,0,0,1,265.677001953125,161.0570068359375)"><path fill="rgb(7,2,20)" fill-opacity="1" d=" M-14.710000038146973,8.743000030517578 C-11.927000045776367,12.973999977111816 -5.369999885559082,17.27400016784668 4.605000019073486,14.26200008392334 C14.871000289916992,11.161999702453613 18.652000427246094,1.5509999990463257 12.883000373840332,-8.60200023651123 C7.955999851226807,-17.27400016784668 -6.711999893188477,-16.631000518798828 -13.133000373840332,-9.980999946594238 C-18.652000427246094,-4.264999866485596 -17.841999053955078,3.9809999465942383 -14.710000038146973,8.743000030517578z"></path></g><g opacity="1" transform="matrix(1.1133333444595337,0,0,1.1133333444595337,277.12701416015625,149.50399780273438)"><path fill="rgb(254,254,255)" fill-opacity="1" d=" M-5.453999996185303,3.242000102996826 C-4.422999858856201,4.810999870300293 -1.9900000095367432,6.40500020980835 1.7079999446868896,5.288000106811523 C5.513999938964844,4.138999938964844 6.915999889373779,0.574999988079071 4.7769999504089355,-3.190000057220459 C2.950000047683716,-6.40500020980835 -2.489000082015991,-6.166999816894531 -4.869999885559082,-3.7009999752044678 C-6.915999889373779,-1.5820000171661377 -6.614999771118164,1.4759999513626099 -5.453999996185303,3.242000102996826z"></path></g><g opacity="1" transform="matrix(1,0,0,1,263.5299987792969,167.13499450683594)"><path fill="rgb(45,34,44)" fill-opacity="1" d=" M-10.550000190734863,0.0860000029206276 C-9.9399995803833,2.828000068664551 -7.534999847412109,5.796000003814697 -1.5140000581741333,6.77400016784668 C4.506999969482422,7.751999855041504 8.53499984741211,3.2119998931884766 9.425999641418457,1.4129999876022339 C10.791000366210938,-1.343999981880188 10.020999908447266,-4.01800012588501 6.736000061035156,-5.081999778747559 C3.4509999752044678,-6.145999908447266 -1.281999945640564,-6.894000053405762 -4.375999927520752,-7.315000057220459 C-7.5929999351501465,-7.751999855041504 -8.871000289916992,-6.054999828338623 -9.435999870300293,-5.2829999923706055 C-10.654999732971191,-3.617000102996826 -10.791000366210938,-0.9990000128746033 -10.550000190734863,0.0860000029206276z"></path></g><g opacity="1" transform="matrix(0.9766666293144226,0,0,0.9766666293144226,252.61300659179688,169.2030029296875)"><path fill="rgb(254,254,255)" fill-opacity="1" d=" M-3.984999895095825,2.368000030517578 C-3.2309999465942383,3.5139999389648438 -1.4539999961853027,4.679999828338623 1.2480000257492065,3.864000082015991 C4.0289998054504395,3.0239999294281006 5.052999973297119,0.41999998688697815 3.490999937057495,-2.3299999237060547 C2.1559998989105225,-4.678999900817871 -1.8179999589920044,-4.506999969482422 -3.558000087738037,-2.7049999237060547 C-5.052999973297119,-1.156000018119812 -4.833000183105469,1.0779999494552612 -3.984999895095825,2.368000030517578z"></path></g></g><g style="display: none;"><g><path></path></g><g><path></path></g><g><path></path><path stroke-linecap="butt" stroke-linejoin="miter" fill-opacity="0" stroke-miterlimit="10"></path></g><g><path></path></g><g><g><path></path></g><g><path></path></g><g><path></path></g><g><path></path></g></g><g><path stroke-linecap="butt" stroke-linejoin="miter" fill-opacity="0" stroke-miterlimit="10"></path></g></g><g style="display: none;"><g><path></path></g><g><path></path><path stroke-linecap="butt" stroke-linejoin="miter" fill-opacity="0" stroke-miterlimit="10"></path></g><g><path></path></g><g><path></path></g><g><path></path></g><g><path></path></g><g><path></path></g><g><path stroke-linecap="butt" stroke-linejoin="miter" fill-opacity="0" stroke-miterlimit="10"></path></g></g><g style="display: none;"><g><path></path></g><g><path></path><path stroke-linecap="butt" stroke-linejoin="miter" fill-opacity="0" stroke-miterlimit="10"></path></g><g><path></path></g><g><path></path></g><g><path></path></g><g><path></path></g><g><path></path></g></g><g style="display: block;" transform="matrix(0.9800000190734863,0,0,0.9796951413154602,57.054500579833984,4.621591091156006)" opacity="1"><g opacity="1" transform="matrix(1,0,0,1,134.4969940185547,174.22799682617188)"><path fill="rgb(220,159,123)" fill-opacity="1" d=" M-46.58300018310547,27.80900001525879 C-38.18600082397461,37.566001892089844 -11.142999649047852,53.74300003051758 21.913000106811523,41.02899932861328 C45.66999816894531,31.892000198364258 64.77100372314453,-6.514999866485596 49.70199966430664,-31.983999252319336 C36.827999114990234,-53.742000579833984 -28.131000518798828,-51.685001373291016 -48.375999450683594,-33.07400131225586 C-64.77100372314453,-18.003000259399414 -58.183998107910156,14.329000473022461 -46.58300018310547,27.80900001525879z"></path></g><g opacity="1" transform="matrix(1,0,0,1,135.7519989013672,159.43600463867188)"><path fill="rgb(198,219,226)" fill-opacity="1" d=" M-53.53099822998047,13.529000282287598 C-50.39500045776367,28.687000274658203 -35.8849983215332,51.17599868774414 -4.119999885559082,51.17599868774414 C32.97999954223633,51.17599868774414 57.058998107910156,23.54800033569336 48.81999969482422,-11.177000045776367 C40.584999084472656,-45.88199996948242 -0.0020000000949949026,-51.17599868774414 -25.884000778198242,-39.999000549316406 C-50.854000091552734,-29.216999053955078 -57.060001373291016,-3.5299999713897705 -53.53099822998047,13.529000282287598z"></path><path stroke-linecap="butt" stroke-linejoin="miter" fill-opacity="0" stroke-miterlimit="10" stroke="rgb(101,61,109)" stroke-opacity="1" stroke-width="10" d=" M-53.53099822998047,13.529000282287598 C-50.39500045776367,28.687000274658203 -35.8849983215332,51.17599868774414 -4.119999885559082,51.17599868774414 C32.97999954223633,51.17599868774414 57.058998107910156,23.54800033569336 48.81999969482422,-11.177000045776367 C40.584999084472656,-45.88199996948242 -0.0020000000949949026,-51.17599868774414 -25.884000778198242,-39.999000549316406 C-50.854000091552734,-29.216999053955078 -57.060001373291016,-3.5299999713897705 -53.53099822998047,13.529000282287598z"></path></g><g opacity="1" transform="matrix(1,0,0,1,137.73699951171875,157.15699768066406)"><path fill="rgb(254,254,255)" fill-opacity="1" d=" M-45.8390007019043,11.585000038146973 C-43.15299987792969,24.565000534057617 -30.72800064086914,43.821998596191406 -3.5269999504089355,43.821998596191406 C28.242000579833984,43.821998596191406 48.86199951171875,20.166000366210938 41.80699920654297,-9.569999694824219 C34.75400161743164,-39.28900146484375 -0.0020000000949949026,-43.821998596191406 -22.165000915527344,-34.250999450683594 C-43.547000885009766,-25.01799964904785 -48.861000061035156,-3.0220000743865967 -45.8390007019043,11.585000038146973z"></path></g><g opacity="1" transform="matrix(1,0,0,1,139.49200439453125,161.24200439453125)"><path fill="rgb(7,2,20)" fill-opacity="1" d=" M-16.951000213623047,-6.433000087738037 C-18.273000717163086,-1.5440000295639038 -18.624000549316406,7.160999774932861 -9.607000350952148,12.381999969482422 C1.5700000524520874,18.85300064086914 13.92199993133545,11.793999671936035 16.274999618530273,2.0880000591278076 C18.625,-7.605999946594238 12.156999588012695,-17.91200065612793 -1.0770000219345093,-18.500999450683594 C-9.015000343322754,-18.85300064086914 -15.461999893188477,-11.934000015258789 -16.951000213623047,-6.433000087738037z"></path></g><g opacity="1" transform="matrix(1.25,0,0,1.25,151.49000549316406,152.3260040283203)"><path fill="rgb(254,254,255)" fill-opacity="1" d=" M-5.484000205993652,3.259000062942505 C-4.447000026702881,4.835999965667725 -2.002000093460083,6.439000129699707 1.7170000076293945,5.315999984741211 C5.543000221252441,4.160999774932861 6.953000068664551,0.578000009059906 4.802999973297119,-3.2060000896453857 C2.9660000801086426,-6.439000129699707 -2.503000020980835,-6.199999809265137 -4.895999908447266,-3.7209999561309814 C-6.953999996185303,-1.590999960899353 -6.651000022888184,1.4839999675750732 -5.484000205993652,3.259000062942505z"></path></g><g opacity="1" transform="matrix(1,0,0,1,136.1510009765625,165.7989959716797)"><path fill="rgb(45,34,44)" fill-opacity="1" d=" M-10.592000007629395,-1.6779999732971191 C-10.529999732971191,1.1299999952316284 -8.753000259399414,4.511000156402588 -3.0399999618530273,6.64900016784668 C2.6740000247955322,8.78600025177002 7.51200008392334,5.123000144958496 8.73799991607666,3.5329999923706055 C10.616000175476074,1.097000002861023 10.38599967956543,-1.6770000457763672 7.372000217437744,-3.36299991607666 C4.359000205993652,-5.050000190734863 -0.1379999965429306,-6.709000110626221 -3.0889999866485596,-7.7270002365112305 C-6.1570000648498535,-8.78600025177002 -7.743000030517578,-7.372000217437744 -8.449000358581543,-6.724999904632568 C-9.970000267028809,-5.329999923706055 -10.616000175476074,-2.7890000343322754 -10.592000007629395,-1.6779999732971191z"></path></g><g opacity="1" transform="matrix(0.9766666293144226,0,0,0.9766666293144226,127.90699768066406,171.80599975585938)"><path fill="rgb(254,254,255)" fill-opacity="1" d=" M-4.006999969482422,2.381999969482422 C-3.249000072479248,3.5339999198913574 -1.4620000123977661,4.704999923706055 1.2549999952316284,3.884999990463257 C4.051000118255615,3.0409998893737793 5.080999851226807,0.4230000078678131 3.509999990463257,-2.3429999351501465 C2.1679999828338623,-4.704999923706055 -1.8289999961853027,-4.53000020980835 -3.5769999027252197,-2.7190001010894775 C-5.080999851226807,-1.1610000133514404 -4.860000133514404,1.0850000381469727 -4.006999969482422,2.381999969482422z"></path></g></g><g style="display: block;" transform="matrix(0.9800000190734863,0,0,0.9796951413154602,57.054500579833984,4.621591091156006)" opacity="1"><g opacity="1" transform="matrix(1,0,0,1,229.0279998779297,307.1919860839844)"><path stroke-linecap="round" stroke-linejoin="round" fill-opacity="0" stroke="rgb(122,59,44)" stroke-opacity="1" stroke-width="12" d=" M-86.8759994506836,38.57500076293945 C-86.8759994506836,38.57500076293945 -64.0790023803711,51.176998138427734 -36.15800094604492,56.47600173950195 C-17.385000228881836,60.03900146484375 9.102999687194824,58.696998596191406 26.770000457763672,48.95600128173828 C42.64899826049805,40.19900131225586 50.48099899291992,28.356000900268555 56.0989990234375,15.970000267028809 C63.893001556396484,-1.2170000076293945 66.51100158691406,-14.581999778747559 71.14600372314453,-27.687000274658203 C78.86299896240234,-49.50199890136719 86.8759994506836,-60.03900146484375 86.8759994506836,-60.03900146484375"></path></g><g opacity="1" transform="matrix(1,0,0,1,140.6490020751953,345.62701416015625)"><path stroke-linecap="round" stroke-linejoin="round" fill-opacity="0" stroke="rgb(122,59,44)" stroke-opacity="1" stroke-width="12" d=" M-8.685999870300293,9.560999870300293 C-8.685999870300293,9.560999870300293 -8.789999961853027,-0.7360000014305115 -1.1670000553131104,-9.395000457763672 C4.2729997634887695,-15.574999809265137 10.50100040435791,-17.332000732421875 10.50100040435791,-17.332000732421875"></path></g><g opacity="1" transform="matrix(1,0,0,1,315.41400146484375,250.48500061035156)"><path stroke-linecap="round" stroke-linejoin="round" fill-opacity="0" stroke="rgb(122,59,44)" stroke-opacity="1" stroke-width="12" d=" M-9.906999588012695,-8.321999549865723 C-9.906999588012695,-8.321999549865723 -2.0209999084472656,-7.0320000648498535 3.4839999675750732,-2.296999931335449 C8.98900032043457,2.437999963760376 9.906999588012695,8.321999549865723 9.906999588012695,8.321999549865723"></path></g></g><g style="display: none;"><g><path></path><path stroke-linecap="butt" stroke-linejoin="miter" fill-opacity="0" stroke-miterlimit="10"></path></g><g><path></path></g><g><path stroke-linecap="butt" stroke-linejoin="miter" fill-opacity="0" stroke-miterlimit="10"></path></g><g><path></path></g><g><path stroke-linecap="butt" stroke-linejoin="miter" fill-opacity="0" stroke-miterlimit="10"></path></g><g><path></path></g><g><path></path></g><g><path stroke-linecap="butt" stroke-linejoin="miter" fill-opacity="0" stroke-miterlimit="10"></path></g><g><path></path></g><g><path stroke-linecap="butt" stroke-linejoin="miter" fill-opacity="0" stroke-miterlimit="10"></path></g><g><path></path></g><g><path></path></g><g><path></path></g><g><g><path></path></g><g><path></path></g><g><path></path></g></g><g><path></path></g><g><path></path></g><g><path stroke-linecap="round" stroke-linejoin="miter" fill-opacity="0" stroke-miterlimit="4"></path></g></g><g style="display: none;"><g><path></path><path stroke-linecap="butt" stroke-linejoin="miter" fill-opacity="0" stroke-miterlimit="10"></path></g><g><path></path></g><g><path stroke-linecap="butt" stroke-linejoin="miter" fill-opacity="0" stroke-miterlimit="10"></path></g><g><path></path></g><g><path stroke-linecap="butt" stroke-linejoin="miter" fill-opacity="0" stroke-miterlimit="10"></path></g><g><path></path></g><g><path></path></g><g><path stroke-linecap="butt" stroke-linejoin="miter" fill-opacity="0" stroke-miterlimit="10"></path></g><g><path></path></g><g><path stroke-linecap="butt" stroke-linejoin="miter" fill-opacity="0" stroke-miterlimit="10"></path></g><g><path></path></g><g><path></path></g><g><path></path></g><g><g><path></path></g><g><path></path></g><g><path></path></g></g><g><path></path></g><g><path></path></g><g><path stroke-linecap="round" stroke-linejoin="miter" fill-opacity="0" stroke-miterlimit="4"></path></g></g><g style="display: none;"><g><path></path><path stroke-linecap="butt" stroke-linejoin="miter" fill-opacity="0" stroke-miterlimit="4"></path></g><g><path></path></g><g><path></path><path stroke-linecap="round" stroke-linejoin="round" fill-opacity="0"></path></g><g><path></path><path stroke-linecap="round" stroke-linejoin="round" fill-opacity="0"></path></g><g><path></path><path stroke-linecap="round" stroke-linejoin="round" fill-opacity="0"></path></g></g></g><g clip-path="url(#__lottie_element_4)" style="display: none;"><g style="display: none;"><g><path></path><path stroke-linecap="butt" stroke-linejoin="miter" fill-opacity="0" stroke-miterlimit="10"></path></g><g><path></path></g><g><path stroke-linecap="butt" stroke-linejoin="miter" fill-opacity="0" stroke-miterlimit="10"></path></g><g><path></path></g><g><path stroke-linecap="butt" stroke-linejoin="miter" fill-opacity="0" stroke-miterlimit="10"></path></g><g><path></path></g><g><path></path></g><g><path stroke-linecap="butt" stroke-linejoin="miter" fill-opacity="0" stroke-miterlimit="10"></path></g><g><path></path></g><g><path stroke-linecap="butt" stroke-linejoin="miter" fill-opacity="0" stroke-miterlimit="10"></path></g><g><path></path></g><g><path></path></g><g><path></path></g><g><g><path></path></g><g><path></path></g><g><path></path></g></g><g><path></path></g><g><path></path><path stroke-linecap="round" stroke-linejoin="miter" fill-opacity="0" stroke-miterlimit="4"></path></g></g><g style="display: none;"><g><path></path><path stroke-linecap="butt" stroke-linejoin="miter" fill-opacity="0" stroke-miterlimit="10"></path></g><g><path></path></g><g><path stroke-linecap="butt" stroke-linejoin="miter" fill-opacity="0" stroke-miterlimit="10"></path></g><g><path></path></g><g><path stroke-linecap="butt" stroke-linejoin="miter" fill-opacity="0" stroke-miterlimit="10"></path></g><g><path></path></g><g><path></path></g><g><path stroke-linecap="butt" stroke-linejoin="miter" fill-opacity="0" stroke-miterlimit="10"></path></g><g><path></path></g><g><path stroke-linecap="butt" stroke-linejoin="miter" fill-opacity="0" stroke-miterlimit="10"></path></g><g><path></path></g><g><path></path></g><g><path></path></g><g><g><path></path></g><g><path></path></g><g><path></path></g></g><g><path></path></g><g><path></path></g><g><path stroke-linecap="round" stroke-linejoin="miter" fill-opacity="0" stroke-miterlimit="4"></path></g></g><g style="display: none;"><g><path fill="url(#__lottie_element_25)"></path><path stroke-linecap="butt" stroke-linejoin="miter" fill-opacity="0" stroke-miterlimit="10"></path></g><g><path fill="url(#__lottie_element_26)"></path></g></g><g style="display: none;"><g><path></path></g><g><path></path></g></g><g style="display: none;"><g><path></path></g><g><path></path><path stroke-linecap="butt" stroke-linejoin="miter" fill-opacity="0" stroke-miterlimit="10"></path></g><g><path></path></g><g><path></path></g><g><path></path></g><g><path></path></g><g><path></path></g><g><path stroke-linecap="butt" stroke-linejoin="miter" fill-opacity="0" stroke-miterlimit="10"></path></g></g><g style="display: none;"><g><path></path></g><g><path></path><path stroke-linecap="butt" stroke-linejoin="miter" fill-opacity="0" stroke-miterlimit="10"></path></g><g><path></path></g><g><path></path></g><g><path></path></g><g><path></path></g><g><path></path></g></g><g style="display: none;"><g><path></path></g><g><path></path></g><g><path></path><path stroke-linecap="butt" stroke-linejoin="miter" fill-opacity="0" stroke-miterlimit="10"></path></g><g><path></path></g><g><g><path></path></g><g><path></path></g><g><path></path></g><g><path></path></g></g><g><path stroke-linecap="butt" stroke-linejoin="miter" fill-opacity="0" stroke-miterlimit="10"></path></g></g><g style="display: none;"><g><path></path></g><g><path></path><path stroke-linecap="butt" stroke-linejoin="miter" fill-opacity="0" stroke-miterlimit="10"></path></g><g><path></path></g><g><path></path></g><g><path></path></g><g><path></path></g><g><path></path></g><g><path stroke-linecap="butt" stroke-linejoin="miter" fill-opacity="0" stroke-miterlimit="10"></path></g></g><g style="display: none;"><g><path></path></g><g><path></path><path stroke-linecap="butt" stroke-linejoin="miter" fill-opacity="0" stroke-miterlimit="10"></path></g><g><path></path></g><g><path></path></g><g><path></path></g><g><path></path></g><g><path></path></g></g><g style="display: none;"><g><path></path></g><g><path></path><path stroke-linecap="butt" stroke-linejoin="miter" fill-opacity="0" stroke-miterlimit="10"></path></g><g><path></path></g><g><path></path></g><g><path></path></g><g><path></path></g><g><path></path></g></g><g style="display: none;"><g><path stroke-linecap="round" stroke-linejoin="round" fill-opacity="0"></path></g><g><path stroke-linecap="round" stroke-linejoin="round" fill-opacity="0"></path></g><g><path stroke-linecap="round" stroke-linejoin="round" fill-opacity="0"></path></g></g><g style="display: none;"><g><path></path><path stroke-linecap="butt" stroke-linejoin="miter" fill-opacity="0" stroke-miterlimit="10"></path></g><g><path></path></g><g><path stroke-linecap="butt" stroke-linejoin="miter" fill-opacity="0" stroke-miterlimit="10"></path></g><g><path></path></g><g><path stroke-linecap="butt" stroke-linejoin="miter" fill-opacity="0" stroke-miterlimit="10"></path></g><g><path></path></g><g><path></path></g><g><path stroke-linecap="butt" stroke-linejoin="miter" fill-opacity="0" stroke-miterlimit="10"></path></g><g><path></path></g><g><path stroke-linecap="butt" stroke-linejoin="miter" fill-opacity="0" stroke-miterlimit="10"></path></g><g><path></path></g><g><path></path></g><g><path></path></g><g><g><path></path></g><g><path></path></g><g><path></path></g></g><g><path></path></g><g><path></path></g><g><path stroke-linecap="round" stroke-linejoin="miter" fill-opacity="0" stroke-miterlimit="4"></path></g></g><g style="display: none;"><g><path></path><path stroke-linecap="butt" stroke-linejoin="miter" fill-opacity="0" stroke-miterlimit="10"></path></g><g><path></path></g><g><path stroke-linecap="butt" stroke-linejoin="miter" fill-opacity="0" stroke-miterlimit="10"></path></g><g><path></path></g><g><path stroke-linecap="butt" stroke-linejoin="miter" fill-opacity="0" stroke-miterlimit="10"></path></g><g><path></path></g><g><path></path></g><g><path stroke-linecap="butt" stroke-linejoin="miter" fill-opacity="0" stroke-miterlimit="10"></path></g><g><path></path></g><g><path stroke-linecap="butt" stroke-linejoin="miter" fill-opacity="0" stroke-miterlimit="10"></path></g><g><path></path></g><g><path></path></g><g><path></path></g><g><g><path></path></g><g><path></path></g><g><path></path></g></g><g><path></path></g><g><path></path></g><g><path stroke-linecap="round" stroke-linejoin="miter" fill-opacity="0" stroke-miterlimit="4"></path></g></g><g style="display: none;"><g><path></path><path stroke-linecap="butt" stroke-linejoin="miter" fill-opacity="0" stroke-miterlimit="4"></path></g><g><path></path></g><g><path></path><path stroke-linecap="round" stroke-linejoin="round" fill-opacity="0"></path></g><g><path></path><path stroke-linecap="round" stroke-linejoin="round" fill-opacity="0"></path></g><g><path></path><path stroke-linecap="round" stroke-linejoin="round" fill-opacity="0"></path></g></g></g></g></svg>