<svg xmlns="http://www.w3.org/2000/svg" xmlns:xlink="http://www.w3.org/1999/xlink" viewBox="0 0 512 512" width="512" height="512" style="width: 100%; height: 100%; transform: translate3d(0,0,0); content-visibility: visible;" preserveAspectRatio="xMidYMid meet"><defs><clipPath id="__lottie_element_2"><rect width="512" height="512" x="0" y="0"></rect></clipPath><clipPath id="__lottie_element_4"><path d="M0,0 L512,0 L512,512 L0,512z"></path></clipPath><radialGradient id="__lottie_element_13" spreadMethod="pad" gradientUnits="userSpaceOnUse" cx="-33.14500045776367" cy="-93.2699966430664" r="233.2358341672765" fx="-33.14500045776367" fy="-93.2699966430664"><stop offset="0%" stop-color="rgb(255,234,212)"></stop><stop offset="50%" stop-color="rgb(254,208,169)"></stop><stop offset="100%" stop-color="rgb(253,181,126)"></stop></radialGradient><mask id="__lottie_element_15"><path fill="url(#__lottie_element_14)" d=" M147.40699768066406,26.05299949645996 C147.40699768066406,26.05299949645996 195.25100708007812,-55.76599884033203 127.79399871826172,-116.322998046875 C60.33700180053711,-176.88099670410156 -37.20899963378906,-165.10000610351562 -112.33100128173828,-94.5770034790039 C-187.4530029296875,-24.054000854492188 -196.86599731445312,94.52799987792969 -142.71299743652344,136.0780029296875 C-87.55999755859375,178.39599609375 -6.706999778747559,168.8719940185547 37.41699981689453,155.33999633789062 C88.80999755859375,139.5780029296875 96.9990005493164,115.88600158691406 97.48899841308594,105.96099853515625 C99.0790023803711,93.65699768066406 96.73600006103516,81.73200225830078 96.73600006103516,81.73200225830078 C96.73600006103516,81.73200225830078 115.14900207519531,82.50399780273438 122.16799926757812,76.19300079345703 C130.29200744628906,69.71900177001953 124.31800079345703,63.069000244140625 123.64299774169922,61.645999908447266 C123.21399688720703,60.02299880981445 152.83299255371094,61.930999755859375 158.17999267578125,48.29999923706055 C162.59300231933594,37.948001861572266 147.40699768066406,26.05299949645996 147.40699768066406,26.05299949645996z"></path></mask><radialGradient id="__lottie_element_14" spreadMethod="pad" gradientUnits="userSpaceOnUse" cx="-33.14500045776367" cy="-93.2699966430664" r="233.2358341672765" fx="-33.14500045776367" fy="-93.2699966430664"><stop stop-color="rgb(255,255,255)" offset="0%" stop-opacity="0.9300000071525574"></stop><stop stop-color="rgb(255,255,255)" offset="57%" stop-opacity="0.9649999737739563"></stop><stop stop-color="rgb(255,255,255)" offset="100%" stop-opacity="1"></stop></radialGradient><radialGradient id="__lottie_element_20" spreadMethod="pad" gradientUnits="userSpaceOnUse" cx="-42.040000915527344" cy="-44.34299850463867" r="102.70102160830618" fx="-42.040000915527344" fy="-44.34299850463867"><stop offset="0%" stop-color="rgb(255,231,208)"></stop><stop offset="50%" stop-color="rgb(248,202,165)"></stop><stop offset="100%" stop-color="rgb(241,174,122)"></stop></radialGradient><mask id="__lottie_element_22"><path fill="url(#__lottie_element_21)" d=" M4.318999767303467,-33.66899871826172 C4.318999767303467,-33.66899871826172 -12.180000305175781,-44.362998962402344 -34.0099983215332,-24.645999908447266 C-55.8390007019043,-4.928999900817871 -48.09299850463867,23.941999435424805 -33.305999755859375,29.575000762939453 C-18.51799964904785,35.20899963378906 -5.138999938964844,30.280000686645508 -5.138999938964844,30.280000686645508 C-5.138999938964844,30.280000686645508 12.465999603271484,44.362998962402344 31.479000091552734,39.433998107910156 C50.49100112915039,34.505001068115234 55.8390007019043,7.644999980926514 54.012001037597656,-6.3379998207092285 C51.722999572753906,-23.861000061035156 36.558998107910156,-34.7140007019043 21.7549991607666,-34.75899887084961 C12.5600004196167,-34.7859992980957 4.318999767303467,-33.66899871826172 4.318999767303467,-33.66899871826172z"></path></mask><radialGradient id="__lottie_element_21" spreadMethod="pad" gradientUnits="userSpaceOnUse" cx="-42.040000915527344" cy="-44.34299850463867" r="102.70102160830618" fx="-42.040000915527344" fy="-44.34299850463867"><stop stop-color="rgb(255,255,255)" offset="0%" stop-opacity="0.9300000071525574"></stop><stop stop-color="rgb(255,255,255)" offset="57%" stop-opacity="0.9649999737739563"></stop><stop stop-color="rgb(255,255,255)" offset="100%" stop-opacity="1"></stop></radialGradient><clipPath id="__lottie_element_34"><path d="M0,0 L512,0 L512,512 L0,512z"></path></clipPath><radialGradient id="__lottie_element_43" spreadMethod="pad" gradientUnits="userSpaceOnUse"><stop></stop><stop></stop><stop></stop></radialGradient><mask id="__lottie_element_45"><path fill="url(#__lottie_element_44)"></path></mask><radialGradient id="__lottie_element_44" spreadMethod="pad" gradientUnits="userSpaceOnUse"><stop stop-color="rgb(255,255,255)"></stop><stop stop-color="rgb(255,255,255)"></stop><stop stop-color="rgb(255,255,255)"></stop></radialGradient><radialGradient id="__lottie_element_50" spreadMethod="pad" gradientUnits="userSpaceOnUse"><stop></stop><stop></stop><stop></stop></radialGradient><mask id="__lottie_element_52"><path fill="url(#__lottie_element_51)"></path></mask><radialGradient id="__lottie_element_51" spreadMethod="pad" gradientUnits="userSpaceOnUse"><stop stop-color="rgb(255,255,255)"></stop><stop stop-color="rgb(255,255,255)"></stop><stop stop-color="rgb(255,255,255)"></stop></radialGradient></defs><g clip-path="url(#__lottie_element_2)"><g clip-path="url(#__lottie_element_34)" style="display: none;"><g style="display: none;"><g><path stroke-linecap="round" stroke-linejoin="round" fill-opacity="0"></path></g></g><g style="display: none;"><g><g><path fill="url(#__lottie_element_43)" mask="url(#__lottie_element_45)"></path><path stroke-linecap="round" stroke-linejoin="round" fill-opacity="0"></path></g><g><path></path></g></g></g><g style="display: none;"><g><path stroke-linecap="round" stroke-linejoin="round" fill-opacity="0"></path></g><g><path stroke-linecap="round" stroke-linejoin="round" fill-opacity="0"></path></g><g><path stroke-linecap="round" stroke-linejoin="round" fill-opacity="0"></path></g><g><path></path></g><g><path stroke-linecap="round" stroke-linejoin="round" fill-opacity="0"></path></g></g><g style="display: none;"><g><g><path></path></g><g><path></path><path stroke-linecap="round" stroke-linejoin="round" fill-opacity="0"></path></g><g><g><path></path></g><g><path></path></g></g><g><path stroke-linecap="round" stroke-linejoin="round" fill-opacity="0"></path></g></g><g><g><path></path></g><g><path></path><path stroke-linecap="round" stroke-linejoin="round" fill-opacity="0"></path></g><g><g><path></path></g><g><path></path></g></g><g><path stroke-linecap="round" stroke-linejoin="round" fill-opacity="0"></path></g></g></g><g style="display: none;"><g><g><path></path><path stroke-linecap="round" stroke-linejoin="round" fill-opacity="0"></path></g><g><path></path><path stroke-linecap="round" stroke-linejoin="round" fill-opacity="0"></path></g><g><path></path><path stroke-linecap="round" stroke-linejoin="round" fill-opacity="0"></path></g><g><path></path><path stroke-linecap="round" stroke-linejoin="round" fill-opacity="0"></path></g><g><path></path><path stroke-linecap="round" stroke-linejoin="round" fill-opacity="0"></path></g><g><path stroke-linecap="round" stroke-linejoin="round" fill-opacity="0"></path></g><g><g><path></path><path stroke-linecap="round" stroke-linejoin="round" fill-opacity="0"></path></g><g><path></path><path stroke-linecap="round" stroke-linejoin="round" fill-opacity="0"></path></g><g><path></path><path stroke-linecap="round" stroke-linejoin="round" fill-opacity="0"></path></g><g><path></path><path stroke-linecap="round" stroke-linejoin="round" fill-opacity="0"></path></g><g><path></path><path stroke-linecap="round" stroke-linejoin="round" fill-opacity="0"></path></g><g><path></path><path stroke-linecap="round" stroke-linejoin="round" fill-opacity="0"></path></g><g><path></path><path stroke-linecap="round" stroke-linejoin="round" fill-opacity="0"></path></g><g><path></path><path stroke-linecap="round" stroke-linejoin="round" fill-opacity="0"></path></g></g><g><path></path></g></g></g><g style="display: none;"><g><path></path><path stroke-linecap="round" stroke-linejoin="round" fill-opacity="0"></path></g><g><path></path><path stroke-linecap="round" stroke-linejoin="round" fill-opacity="0"></path></g><g><path fill="url(#__lottie_element_50)" mask="url(#__lottie_element_52)"></path><path stroke-linecap="round" stroke-linejoin="round" fill-opacity="0"></path></g><g><path stroke-linecap="round" stroke-linejoin="round" fill-opacity="0"></path></g><g><path></path></g><g><path></path></g></g></g><g clip-path="url(#__lottie_element_4)" style="display: block;" transform="matrix(1,0,0,1,0,0)" opacity="1"><g style="display: block;" transform="matrix(0.9900000095367432,0,0,0.9900000095367432,105.8707046508789,380.6358337402344)" opacity="1"><g opacity="1" transform="matrix(1,0,0,1,157.50100708007812,62.99300003051758)"><path stroke-linecap="round" stroke-linejoin="round" fill-opacity="0" stroke="rgb(153,76,44)" stroke-opacity="1" stroke-width="12" d=" M-127.5009994506836,-32.99300003051758 C-127.5009994506836,-32.99300003051758 -73.63099670410156,34.375 26.881999969482422,38.986000061035156 C119.10800170898438,43.94200134277344 154.97000122070312,-36.23891830444336 154.97000122070312,-36.23891830444336"></path></g></g><g style="display: block;" transform="matrix(0.9900000095367432,0,0,0.9900000095367432,-21.51357650756836,39.1026725769043)" opacity="1"><g opacity="1" transform="matrix(1,0,0,1,0,0)"><g opacity="1" transform="matrix(1,0,0,1,226.1020050048828,207.91900634765625)"><path fill="url(#__lottie_element_13)" mask="url(#__lottie_element_15)" fill-opacity="1" d="M0 0 M147.40699768066406,26.05299949645996 C147.40699768066406,26.05299949645996 195.25100708007812,-55.76599884033203 127.79399871826172,-116.322998046875 C60.33700180053711,-176.88099670410156 -37.20899963378906,-165.10000610351562 -112.33100128173828,-94.5770034790039 C-187.4530029296875,-24.054000854492188 -196.86599731445312,94.52799987792969 -142.71299743652344,136.0780029296875 C-87.55999755859375,178.39599609375 -6.706999778747559,168.8719940185547 37.41699981689453,155.33999633789062 C88.80999755859375,139.5780029296875 96.9990005493164,115.88600158691406 97.48899841308594,105.96099853515625 C99.0790023803711,93.65699768066406 96.73600006103516,81.73200225830078 96.73600006103516,81.73200225830078 C96.73600006103516,81.73200225830078 115.14900207519531,82.50399780273438 122.16799926757812,76.19300079345703 C130.29200744628906,69.71900177001953 124.31800079345703,63.069000244140625 123.64299774169922,61.645999908447266 C123.21399688720703,60.02299880981445 152.83299255371094,61.930999755859375 158.17999267578125,48.29999923706055 C162.59300231933594,37.948001861572266 147.40699768066406,26.05299949645996 147.40699768066406,26.05299949645996z"></path><path stroke-linecap="round" stroke-linejoin="round" fill-opacity="0" stroke="rgb(197,108,69)" stroke-opacity="1" stroke-width="13" d=" M147.40699768066406,26.05299949645996 C147.40699768066406,26.05299949645996 195.25100708007812,-55.76599884033203 127.79399871826172,-116.322998046875 C60.33700180053711,-176.88099670410156 -37.20899963378906,-165.10000610351562 -112.33100128173828,-94.5770034790039 C-187.4530029296875,-24.054000854492188 -196.86599731445312,94.52799987792969 -142.71299743652344,136.0780029296875 C-87.55999755859375,178.39599609375 -6.706999778747559,168.8719940185547 37.41699981689453,155.33999633789062 C88.80999755859375,139.5780029296875 96.9990005493164,115.88600158691406 97.48899841308594,105.96099853515625 C99.0790023803711,93.65699768066406 96.73600006103516,81.73200225830078 96.73600006103516,81.73200225830078 C96.73600006103516,81.73200225830078 115.14900207519531,82.50399780273438 122.16799926757812,76.19300079345703 C130.29200744628906,69.71900177001953 124.31800079345703,63.069000244140625 123.64299774169922,61.645999908447266 C123.21399688720703,60.02299880981445 152.83299255371094,61.930999755859375 158.17999267578125,48.29999923706055 C162.59300231933594,37.948001861572266 147.40699768066406,26.05299949645996 147.40699768066406,26.05299949645996z"></path></g><g opacity="1" transform="matrix(1,0,0,1,177.66200256347656,292.66900634765625)"><path fill="rgb(226,150,106)" fill-opacity="1" d=" M138.40899658203125,16.113000869750977 C138.40899658203125,16.113000869750977 111.32099914550781,64.39900207519531 20.65399932861328,60.84299850463867 C-62.71200180053711,57.57400131225586 -92.40499877929688,12.621999740600586 -104.66500091552734,-17.618999481201172 C-115.09100341796875,-43.3390007019043 -112.85160064697266,-88.25564575195312 -112.85160064697266,-88.25564575195312 C-112.85160064697266,-88.25564575195312 -149.50454711914062,7.658356189727783 -84.87355041503906,50.687355041503906 C-23.647552490234375,91.44935607910156 74.11259460449219,71.93830871582031 102.50460052490234,58.80630874633789 C146.23959350585938,38.57731246948242 138.40899658203125,16.113000869750977 138.40899658203125,16.113000869750977z"></path></g></g></g><g style="display: block;" transform="matrix(0.9900000095367432,0,0,0.9900000095367432,133.53326416015625,100.44862365722656)" opacity="1"><g opacity="1" transform="matrix(1,0,0,1,74.36000061035156,47.1879997253418)"><path stroke-linecap="round" stroke-linejoin="round" fill-opacity="0" stroke="rgb(217,132,83)" stroke-opacity="1" stroke-width="12" d=" M-23.011999130249023,-3.0209999084472656 C-23.011999130249023,-3.0209999084472656 -0.12600000202655792,-17.187999725341797 12.951000213623047,-5.201000213623047 C23.011999130249023,4.021999835968018 14.829000473022461,17.187999725341797 14.829000473022461,17.187999725341797"></path></g><g opacity="1" transform="matrix(1,0,0,1,73.85900115966797,230.7169952392578)"><path stroke-linecap="round" stroke-linejoin="round" fill-opacity="0" stroke="rgb(206,123,87)" stroke-opacity="0.56" stroke-width="12" d=" M29.128999710083008,-27.59600067138672 C29.128999710083008,-27.59600067138672 26.82900047302246,-13.79800033569336 8.432000160217285,6.131999969482422 C-2.4809999465942383,17.954999923706055 -13.663000106811523,23.304000854492188 -20.95599937438965,25.698999404907227"></path></g><g opacity="1" transform="matrix(1,0,0,1,110.14099884033203,240.39999389648438)"><path stroke-linecap="round" stroke-linejoin="round" fill-opacity="0" stroke="rgb(205,122,87)" stroke-opacity="0.65" stroke-width="12" d=" M19.163999557495117,-24.913000106811523 C19.163999557495117,-24.913000106811523 20.69700050354004,-7.2820000648498535 5.366000175476074,8.048999786376953 C-0.3659999966621399,13.781000137329102 -5.455999851226807,17.583999633789062 -9.581000328063965,20.100000381469727"></path></g><g opacity="1" transform="matrix(1,0,0,1,101.9260025024414,137.2519989013672)"><path fill="rgb(227,151,107)" fill-opacity="1" d=" M-41.196998596191406,-78.10099792480469 C-41.196998596191406,-78.10099792480469 -89.66500091552734,-38.27799987792969 -74.58699798583984,7.546000003814697 C-59.507999420166016,53.37099838256836 -9.04800033569336,61.74800109863281 21.270999908447266,70.46399688720703 C47.8380012512207,78.10099792480469 78.71399688720703,75.19200134277344 78.71399688720703,75.19200134277344 C78.71399688720703,75.19200134277344 89.66400146484375,72.19100189208984 51.96699905395508,68.0999984741211 C14.270000457763672,64.00800323486328 -64.35399627685547,36.45899963378906 -66.50800323486328,-6.0920000076293945 C-68.66200256347656,-48.643001556396484 -41.196998596191406,-78.10099792480469 -41.196998596191406,-78.10099792480469z"></path></g><g opacity="1" transform="matrix(1,0,0,1,116.2040023803711,132.2449951171875)"><path stroke-linecap="round" stroke-linejoin="round" fill-opacity="0" stroke="rgb(155,76,43)" stroke-opacity="1" stroke-width="9" d=" M-49.24399948120117,-75.53600311279297 C-49.24399948120117,-75.53600311279297 -93.7040023803711,-23.409000396728516 -79.90599822998047,11.85200023651123 C-66.10800170898438,47.112998962402344 -3.8289999961853027,65.03199768066406 39.76100158691406,71.0250015258789 C72.55599975585938,75.53500366210938 93.7040023803711,72.66000366210938 93.7040023803711,72.66000366210938"></path></g></g><g style="display: block;" transform="matrix(0.9900000095367432,0,0,0.9900000095367432,184.25689697265625,151.8236846923828)" opacity="1"><g opacity="1" transform="matrix(1,0,0,1,0,0)"><g opacity="1" transform="matrix(1,0,0,1,140.05499267578125,42.45600128173828)"><path fill="rgb(227,151,107)" fill-opacity="1" d=" M-14.628999710083008,-27.23699951171875 C-14.628999710083008,-27.23699951171875 -33.48400115966797,-18.158000946044922 -36.084999084472656,-5.947999954223633 C-38.685001373291016,6.261000156402588 -36.40999984741211,20.97599983215332 -16.579999923706055,24.41900062561035 C3.250999927520752,27.863000869750977 25.68199920654297,26.923999786376953 32.18299865722656,12.836000442504883 C38.685001373291016,-1.2519999742507935 35.75899887084961,-15.34000015258789 25.35700035095215,-21.601999282836914 C14.954000473022461,-27.863000869750977 -14.628999710083008,-27.23699951171875 -14.628999710083008,-27.23699951171875z"></path></g><g opacity="1" transform="matrix(1,0,0,1,145.65499877929688,42.303001403808594)"><path fill="rgb(255,255,255)" fill-opacity="1" d=" M-4.216000080108643,-22.156999588012695 C-13.949000358581543,-21.924999237060547 -31.045000076293945,-15.338000297546387 -31.045000076293945,-0.6940000057220459 C-31.045000076293945,20.003000259399414 -1.149999976158142,22.30299949645996 14.947999954223633,16.17099952697754 C31.045000076293945,10.038000106811523 30.709999084472656,-6.513999938964844 21.847000122070312,-14.491000175476074 C14.180999755859375,-21.389999389648438 1.906000018119812,-22.30299949645996 -4.216000080108643,-22.156999588012695z"></path><path stroke-linecap="round" stroke-linejoin="round" fill-opacity="0" stroke="rgb(106,74,63)" stroke-opacity="1" stroke-width="8" d=" M-4.216000080108643,-22.156999588012695 C-13.949000358581543,-21.924999237060547 -31.045000076293945,-15.338000297546387 -31.045000076293945,-0.6940000057220459 C-31.045000076293945,20.003000259399414 -1.149999976158142,22.30299949645996 14.947999954223633,16.17099952697754 C31.045000076293945,10.038000106811523 30.709999084472656,-6.513999938964844 21.847000122070312,-14.491000175476074 C14.180999755859375,-21.389999389648438 1.906000018119812,-22.30299949645996 -4.216000080108643,-22.156999588012695z"></path></g><g opacity="1" transform="matrix(1.272570013999939,0,0,1.2592400312423706,-38.68504333496094,-10.55495834350586)"><g opacity="1" transform="matrix(1,0,0,1,141.1479949951172,41.99300003051758)"><path fill="rgb(0,0,0)" fill-opacity="1" d=" M0.4169999957084656,-7.291999816894531 C-2.0859999656677246,-7.441999912261963 -7.079999923706055,-6.890999794006348 -6.247000217437744,-0.09300000220537186 C-5.323999881744385,7.441999912261963 7.079999923706055,7.104000091552734 7.079999923706055,0.3070000112056732 C7.079999923706055,-6.491000175476074 2.997999906539917,-7.138000011444092 0.4169999957084656,-7.291999816894531z"></path></g><g opacity="1" transform="matrix(1,0,0,1,145.63600158691406,37.702999114990234)"><path fill="rgb(255,255,255)" fill-opacity="1" d=" M-0.7789999842643738,-3.568000078201294 C-1.9220000505447388,-3.1600000858306885 -4.48199987411499,-0.1850000023841858 -1.753999948501587,1.5069999694824219 C2.13100004196167,3.9159998893737793 4.48199987411499,-0.1850000023841858 2.9230000972747803,-2.440000057220459 C1.902999997138977,-3.9149999618530273 0.13099999725818634,-3.8929998874664307 -0.7789999842643738,-3.568000078201294z"></path></g></g><g opacity="1" transform="matrix(1,0,0,1,145.65499877929688,42.303001403808594)"><path stroke-linecap="round" stroke-linejoin="round" fill-opacity="0" stroke="rgb(106,74,63)" stroke-opacity="1" stroke-width="8" d=" M-4.216000080108643,-22.156999588012695 C-13.949000358581543,-21.924999237060547 -31.045000076293945,-15.338000297546387 -31.045000076293945,-0.6940000057220459 C-31.045000076293945,20.003000259399414 -1.149999976158142,22.30299949645996 14.947999954223633,16.17099952697754 C31.045000076293945,10.038000106811523 30.709999084472656,-6.513999938964844 21.847000122070312,-14.491000175476074 C14.180999755859375,-21.389999389648438 1.906000018119812,-22.30299949645996 -4.216000080108643,-22.156999588012695z"></path></g></g><g opacity="1" transform="matrix(1,0,0,1,0,0)"><g opacity="1" transform="matrix(1,0,0,1,56.529998779296875,86.3239974975586)"><path fill="rgb(227,151,107)" fill-opacity="1" d=" M-29.790000915527344,-19.96500015258789 C-29.790000915527344,-19.96500015258789 -22.66699981689453,-33.38100051879883 -5.828999996185303,-33.38100051879883 C11.008999824523926,-33.38100051879883 17.16200065612793,-32.42300033569336 21.695999145507812,-24.118000030517578 C26.229000091552734,-15.812000274658203 39.50400161743164,-2.3959999084472656 23.31399917602539,15.491999626159668 C7.123000144958496,33.38100051879883 -7.771999835968018,27.631000518798828 -16.19099998474121,23.79800033569336 C-24.610000610351562,19.964000701904297 -37.5620002746582,14.21500015258789 -38.534000396728516,7.826000213623047 C-39.505001068115234,1.437000036239624 -29.790000915527344,-19.96500015258789 -29.790000915527344,-19.96500015258789z"></path></g><g opacity="1" transform="matrix(1.059999942779541,0,0,1.059999942779541,50.439998626708984,85.58999633789062)"><path fill="rgb(255,255,255)" fill-opacity="1" d=" M-7.119999885559082,-25.58300018310547 C-21.45199966430664,-19.3700008392334 -30.44099998474121,0.06599999964237213 -17.086000442504883,11.977999687194824 C3.322999954223633,30.18199920654297 30.44099998474121,11.211999893188477 25.841999053955078,-9.484999656677246 C21.242000579833984,-30.18199920654297 2.4739999771118164,-29.742000579833984 -7.119999885559082,-25.58300018310547z"></path><path stroke-linecap="round" stroke-linejoin="round" fill-opacity="0" stroke="rgb(106,74,63)" stroke-opacity="1" stroke-width="8" d=" M-7.119999885559082,-25.58300018310547 C-21.45199966430664,-19.3700008392334 -30.44099998474121,0.06599999964237213 -17.086000442504883,11.977999687194824 C3.322999954223633,30.18199920654297 30.44099998474121,11.211999893188477 25.841999053955078,-9.484999656677246 C21.242000579833984,-30.18199920654297 2.4739999771118164,-29.742000579833984 -7.119999885559082,-25.58300018310547z"></path></g><g opacity="1" transform="matrix(1.155419945716858,0,0,1.135010004043579,-7.482227325439453,-10.800529479980469)"><g opacity="1" transform="matrix(1,0,0,1,45.972999572753906,81.8489990234375)"><path fill="rgb(0,0,0)" fill-opacity="1" d=" M-1.8890000581741333,-8.765999794006348 C-4.659999847412109,-7.763999938964844 -10.86299991607666,-0.45500001311302185 -4.250999927520752,3.700000047683716 C5.166999816894531,9.619000434875488 10.862000465393066,-0.45399999618530273 7.083000183105469,-5.994999885559082 C4.611999988555908,-9.619000434875488 0.31700000166893005,-9.564000129699707 -1.8890000581741333,-8.765999794006348z"></path></g><g opacity="1" transform="matrix(1,0,0,1,53.125999450683594,77.70999908447266)"><path fill="rgb(255,255,255)" fill-opacity="1" d=" M-1.0010000467300415,-4.645999908447266 C-2.4700000286102295,-4.114999771118164 -5.756999969482422,-0.2409999966621399 -2.253000020980835,1.9620000123977661 C2.739000082015991,5.098999977111816 5.757999897003174,-0.2409999966621399 3.755000114440918,-3.177999973297119 C2.444999933242798,-5.098999977111816 0.16899999976158142,-5.068999767303467 -1.0010000467300415,-4.645999908447266z"></path></g></g><g opacity="1" transform="matrix(1.059999942779541,0,0,1.059999942779541,50.439998626708984,85.58999633789062)"><path stroke-linecap="round" stroke-linejoin="round" fill-opacity="0" stroke="rgb(106,74,63)" stroke-opacity="1" stroke-width="8" d=" M-7.119999885559082,-25.58300018310547 C-21.45199966430664,-19.3700008392334 -30.44099998474121,0.06599999964237213 -17.086000442504883,11.977999687194824 C3.322999954223633,30.18199920654297 30.44099998474121,11.211999893188477 25.841999053955078,-9.484999656677246 C21.242000579833984,-30.18199920654297 2.4739999771118164,-29.742000579833984 -7.119999885559082,-25.58300018310547z"></path></g></g></g><g style="display: block;" transform="matrix(1.0057178735733032,-0.035687703639268875,0.03483657166361809,0.981732189655304,302.7326965332031,7.999346733093262)" opacity="1"><g opacity="1" transform="matrix(0.9999883770942688,-0.004818303510546684,0.004818303510546684,0.9999883770942688,-0.8756256103515625,0.4951629638671875)"><g opacity="1" transform="matrix(1,0,0,1,106.36000061035156,193.39300537109375)"><path fill="rgb(170,161,191)" fill-opacity="1" d=" M-16.875999450683594,-4.158999919891357 C-16.875999450683594,-4.158999919891357 -13.137999534606934,7.047999858856201 -1.190999984741211,7.4710001945495605 C15.718999862670898,8.071000099182129 16.87700080871582,-6.298999786376953 16.80900001525879,-7.184999942779541 C16.740999221801758,-8.071000099182129 12.770000457763672,-5.426000118255615 0.1889999955892563,-4.460999965667725 C-9.208999633789062,-3.740999937057495 -16.875999450683594,-4.158999919891357 -16.875999450683594,-4.158999919891357z"></path><path stroke-linecap="round" stroke-linejoin="round" fill-opacity="0" stroke="rgb(73,86,115)" stroke-opacity="1" stroke-width="7" d=" M-16.875999450683594,-4.158999919891357 C-16.875999450683594,-4.158999919891357 -13.137999534606934,7.047999858856201 -1.190999984741211,7.4710001945495605 C15.718999862670898,8.071000099182129 16.87700080871582,-6.298999786376953 16.80900001525879,-7.184999942779541 C16.740999221801758,-8.071000099182129 12.770000457763672,-5.426000118255615 0.1889999955892563,-4.460999965667725 C-9.208999633789062,-3.740999937057495 -16.875999450683594,-4.158999919891357 -16.875999450683594,-4.158999919891357z"></path></g><g opacity="1" transform="matrix(1,0,0,1,96.04100036621094,110.7239990234375)"><path fill="rgb(243,234,133)" fill-opacity="1" d=" M-3.183000087738037,60.28099822998047 C-6.328999996185303,59.50400161743164 -8.779000282287598,57.064998626708984 -9.576000213623047,53.92300033569336 C-11.128000259399414,47.805999755859375 -15.302000045776367,39.21799850463867 -21.57200050354004,33.56999969482422 C-31.783000946044922,24.371999740600586 -58.79999923706055,-5.638000011444092 -42.38199996948242,-33.275001525878906 C-25.964000701904297,-60.91299819946289 12.954000473022461,-61.63800048828125 34.494998931884766,-47.249000549316406 C53.840999603271484,-34.32500076293945 58.79899978637695,-3.009999990463257 42.3650016784668,18.211999893188477 C32.6870002746582,30.709999084472656 28.937000274658203,33.52799987792969 26.347999572753906,41.77899932861328 C24.719999313354492,46.96900177001953 24.604999542236328,47.492000579833984 24.3700008392334,51.93299865722656 C24.16900062561035,55.709999084472656 21.558000564575195,58.957000732421875 17.889999389648438,59.87799835205078 C15.032999992370605,60.59600067138672 11.196999549865723,61.263999938964844 6.3520002365112305,61.49300003051758 C3.256999969482422,61.638999938964844 -0.3179999887943268,60.98899841308594 -3.183000087738037,60.28099822998047z"></path><path stroke-linecap="round" stroke-linejoin="round" fill-opacity="0" stroke="rgb(172,105,43)" stroke-opacity="1" stroke-width="8" d=" M-3.183000087738037,60.28099822998047 C-6.328999996185303,59.50400161743164 -8.779000282287598,57.064998626708984 -9.576000213623047,53.92300033569336 C-11.128000259399414,47.805999755859375 -15.302000045776367,39.21799850463867 -21.57200050354004,33.56999969482422 C-31.783000946044922,24.371999740600586 -58.79999923706055,-5.638000011444092 -42.38199996948242,-33.275001525878906 C-25.964000701904297,-60.91299819946289 12.954000473022461,-61.63800048828125 34.494998931884766,-47.249000549316406 C53.840999603271484,-34.32500076293945 58.79899978637695,-3.009999990463257 42.3650016784668,18.211999893188477 C32.6870002746582,30.709999084472656 28.937000274658203,33.52799987792969 26.347999572753906,41.77899932861328 C24.719999313354492,46.96900177001953 24.604999542236328,47.492000579833984 24.3700008392334,51.93299865722656 C24.16900062561035,55.709999084472656 21.558000564575195,58.957000732421875 17.889999389648438,59.87799835205078 C15.032999992370605,60.59600067138672 11.196999549865723,61.263999938964844 6.3520002365112305,61.49300003051758 C3.256999969482422,61.638999938964844 -0.3179999887943268,60.98899841308594 -3.183000087738037,60.28099822998047z"></path></g><g opacity="1" transform="matrix(1,0,0,1,105.30799865722656,176.69200134277344)"><path fill="rgb(183,176,204)" fill-opacity="1" d=" M-24.190000534057617,-5.341000080108643 C-24.39900016784668,-8.668999671936035 -22.94300079345703,-10.631999969482422 -19.718000411987305,-9.782999992370605 C-15.529000282287598,-8.680999755859375 -7.663000106811523,-7.60699987411499 0.15399999916553497,-8.633000373840332 C13.211999893188477,-10.347000122070312 17.083999633789062,-13.317000389099121 19.496000289916992,-12.076000213623047 C21.908000946044922,-10.835000038146973 20.733999252319336,-5.21999979019165 19.6299991607666,-3.3529999256134033 C19.6299991607666,-3.3529999256134033 18.524999618530273,-1.4859999418258667 18.524999618530273,-1.4859999418258667 C18.524999618530273,-1.4859999418258667 24.39900016784668,4.066999912261963 18.950000762939453,8.425999641418457 C15.697999954223633,11.027000427246094 6.123000144958496,12.857999801635742 -4.751999855041504,13.057000160217285 C-18.990999221801758,13.315999984741211 -20.135000228881836,10.019000053405762 -20.979999542236328,8.300999641418457 C-21.823999404907227,6.583000183105469 -20.674999237060547,0.984000027179718 -20.674999237060547,0.984000027179718 C-20.674999237060547,0.984000027179718 -24,-0.5419999957084656 -24.312999725341797,-4.618000030517578 C-24.31599998474121,-4.6579999923706055 -24.187000274658203,-5.301000118255615 -24.190000534057617,-5.341000080108643z"></path><path stroke-linecap="round" stroke-linejoin="round" fill-opacity="0" stroke="rgb(73,86,115)" stroke-opacity="1" stroke-width="7" d=" M-24.190000534057617,-5.341000080108643 C-24.39900016784668,-8.668999671936035 -22.94300079345703,-10.631999969482422 -19.718000411987305,-9.782999992370605 C-15.529000282287598,-8.680999755859375 -7.663000106811523,-7.60699987411499 0.15399999916553497,-8.633000373840332 C13.211999893188477,-10.347000122070312 17.083999633789062,-13.317000389099121 19.496000289916992,-12.076000213623047 C21.908000946044922,-10.835000038146973 20.733999252319336,-5.21999979019165 19.6299991607666,-3.3529999256134033 C19.6299991607666,-3.3529999256134033 18.524999618530273,-1.4859999418258667 18.524999618530273,-1.4859999418258667 C18.524999618530273,-1.4859999418258667 24.39900016784668,4.066999912261963 18.950000762939453,8.425999641418457 C15.697999954223633,11.027000427246094 6.123000144958496,12.857999801635742 -4.751999855041504,13.057000160217285 C-18.990999221801758,13.315999984741211 -20.135000228881836,10.019000053405762 -20.979999542236328,8.300999641418457 C-21.823999404907227,6.583000183105469 -20.674999237060547,0.984000027179718 -20.674999237060547,0.984000027179718 C-20.674999237060547,0.984000027179718 -24,-0.5419999957084656 -24.312999725341797,-4.618000030517578 C-24.31599998474121,-4.6579999923706055 -24.187000274658203,-5.301000118255615 -24.190000534057617,-5.341000080108643z"></path></g><g opacity="1" transform="matrix(1,0,0,1,97.01499938964844,178.26199340820312)"><path fill="rgb(170,161,191)" fill-opacity="1" d=" M19.159000396728516,-0.7129999995231628 C21.77899932861328,-1.3660000562667847 23.29400062561035,-2.009999990463257 24.049999237060547,-2.3919999599456787"></path><path stroke-linecap="round" stroke-linejoin="round" fill-opacity="0" stroke="rgb(73,86,115)" stroke-opacity="1" stroke-width="4" d=" M19.159000396728516,-0.7129999995231628 C21.77899932861328,-1.3660000562667847 23.29400062561035,-2.009999990463257 24.049999237060547,-2.3919999599456787"></path></g><g opacity="1" transform="matrix(1,0,0,1,97.01499938964844,178.26199340820312)"><path fill="rgb(170,161,191)" fill-opacity="1" d=" M-11.687999725341797,-0.8149999976158142 C-10.234999656677246,-0.0689999982714653 -6.436999797821045,1.531999945640564 -0.7649999856948853,1.4220000505447388 C2.565000057220459,1.3569999933242798 5.488999843597412,1.2009999752044678 8.048999786376953,0.9850000143051147"></path><path stroke-linecap="round" stroke-linejoin="round" fill-opacity="0" stroke="rgb(73,86,115)" stroke-opacity="1" stroke-width="4" d=" M-11.687999725341797,-0.8149999976158142 C-10.234999656677246,-0.0689999982714653 -6.436999797821045,1.531999945640564 -0.7649999856948853,1.4220000505447388 C2.565000057220459,1.3569999933242798 5.488999843597412,1.2009999752044678 8.048999786376953,0.9850000143051147"></path></g><g opacity="1" transform="matrix(1,0,0,1,99.23999786376953,135.16600036621094)"><path stroke-linecap="round" stroke-linejoin="round" fill-opacity="0" stroke="rgb(74,60,102)" stroke-opacity="1" stroke-width="4" d=" M-0.1010918915271759,32.61445999145508 C-0.1010918915271759,32.61445999145508 -0.8802893757820129,2.499943971633911 -2.572269916534424,-9.310733795166016 C-4.266209125518799,-21.17527198791504 -8.771724700927734,-31.94072151184082 -13.264273643493652,-30.758445739746094 C-20.96002197265625,-29.66724395751953 -13.993742942810059,-11.447808265686035 3.2953639030456543,-13.693092346191406 C21.941762924194336,-16.175338745117188 19.130741119384766,-32.964176177978516 14.169740676879883,-32.58317565917969 C9.207740783691406,-32.20317459106445 8.06651782989502,-22.950397491455078 7.153814315795898,-3.817810535430908 C6.2381720542907715,13.871349334716797 6.942009449005127,32.39945983886719 6.942009449005127,32.39945983886719"></path></g><g opacity="1" transform="matrix(-0.12424931675195694,-0.9922510385513306,0.9922510385513306,-0.12424931675195694,9.501663208007812,216.34019470214844)"><g opacity="1" transform="matrix(1,0,0,1,46.340999603271484,33.77899932861328)"><path fill="rgb(243,234,133)" fill-opacity="1" d=" M7.9881720542907715,8.378662109375 C7.9881720542907715,8.378662109375 -21.97516632080078,-27.287797927856445 -21.97516632080078,-27.287797927856445"></path><path stroke-linecap="round" stroke-linejoin="round" fill-opacity="0" stroke="rgb(250,211,36)" stroke-opacity="1" stroke-width="12" d=" M7.9881720542907715,8.378662109375 C7.9881720542907715,8.378662109375 -21.97516632080078,-27.287797927856445 -21.97516632080078,-27.287797927856445"></path></g><g opacity="1" transform="matrix(1,0,0,1,17.81399917602539,88.34100341796875)"><path fill="rgb(243,234,133)" fill-opacity="1" d=" M11.780458450317383,0.3234264552593231 C11.780458450317383,0.3234264552593231 -22.341068267822266,-5.003400802612305 -22.341068267822266,-5.003400802612305"></path><path stroke-linecap="round" stroke-linejoin="round" fill-opacity="0" stroke="rgb(250,211,36)" stroke-opacity="1" stroke-width="12" d=" M11.780458450317383,0.3234264552593231 C11.780458450317383,0.3234264552593231 -22.341068267822266,-5.003400802612305 -22.341068267822266,-5.003400802612305"></path></g><g opacity="1" transform="matrix(1,0,0,1,43.007999420166016,150.3560028076172)"><path fill="rgb(243,234,133)" fill-opacity="1" d=" M6.890477180480957,-8.900226593017578 C6.890477180480957,-8.900226593017578 -12.6167631149292,7.771152973175049 -12.6167631149292,7.771152973175049"></path><path stroke-linecap="round" stroke-linejoin="round" fill-opacity="0" stroke="rgb(250,211,36)" stroke-opacity="1" stroke-width="12" d=" M6.890477180480957,-8.900226593017578 C6.890477180480957,-8.900226593017578 -12.6167631149292,7.771152973175049 -12.6167631149292,7.771152973175049"></path></g><g opacity="1" transform="matrix(1,0,0,1,173.49600219726562,76.96399688720703)"><path fill="rgb(243,234,133)" fill-opacity="1" d=" M-7.3500447273254395,11.978026390075684 C-7.3500447273254395,11.978026390075684 26.35552406311035,2.7468771934509277 26.35552406311035,2.7468771934509277"></path><path stroke-linecap="round" stroke-linejoin="round" fill-opacity="0" stroke="rgb(250,211,36)" stroke-opacity="1" stroke-width="12" d=" M-7.3500447273254395,11.978026390075684 C-7.3500447273254395,11.978026390075684 26.35552406311035,2.7468771934509277 26.35552406311035,2.7468771934509277"></path></g><g opacity="1" transform="matrix(1,0,0,1,149.2519989013672,30.593000411987305)"><path fill="rgb(243,234,133)" fill-opacity="1" d=" M-10.626385688781738,14.394414901733398 C-10.626385688781738,14.394414901733398 13.179142951965332,-13.373638153076172 13.179142951965332,-13.373638153076172"></path><path stroke-linecap="round" stroke-linejoin="round" fill-opacity="0" stroke="rgb(250,211,36)" stroke-opacity="1" stroke-width="12" d=" M-10.626385688781738,14.394414901733398 C-10.626385688781738,14.394414901733398 13.179142951965332,-13.373638153076172 13.179142951965332,-13.373638153076172"></path></g><g opacity="1" transform="matrix(1,0,0,1,164.4550018310547,149.63699340820312)"><path fill="rgb(243,234,133)" fill-opacity="1" d=" M-9.064359664916992,-8.231103897094727 C-9.064359664916992,-8.231103897094727 16.402244567871094,12.400932312011719 16.402244567871094,12.400932312011719"></path><path stroke-linecap="round" stroke-linejoin="round" fill-opacity="0" stroke="rgb(250,211,36)" stroke-opacity="1" stroke-width="12" d=" M-9.064359664916992,-8.231103897094727 C-9.064359664916992,-8.231103897094727 16.402244567871094,12.400932312011719 16.402244567871094,12.400932312011719"></path></g><g opacity="1" transform="matrix(1,0,0,1,95.7239990234375,19.22599983215332)"><path fill="rgb(243,234,133)" fill-opacity="1" d=" M4.054018974304199,-30.617311477661133 C4.054018974304199,-30.617311477661133 0.5973303914070129,13.730819702148438 0.5973303914070129,13.730819702148438"></path><path stroke-linecap="round" stroke-linejoin="round" fill-opacity="0" stroke="rgb(250,211,36)" stroke-opacity="1" stroke-width="12" d=" M4.054018974304199,-30.617311477661133 C4.054018974304199,-30.617311477661133 0.5973303914070129,13.730819702148438 0.5973303914070129,13.730819702148438"></path></g><g opacity="1" transform="matrix(1,0,0,1,102.28900146484375,172.8040008544922)"><path fill="rgb(243,234,133)" fill-opacity="1" d=" M-1.0761263370513916,-4.779201507568359 C-1.0761263370513916,-4.779201507568359 -3.759673833847046,27.966140747070312 -3.759673833847046,27.966140747070312"></path><path stroke-linecap="round" stroke-linejoin="round" fill-opacity="0" stroke="rgb(250,211,36)" stroke-opacity="1" stroke-width="12" d=" M-1.0761263370513916,-4.779201507568359 C-1.0761263370513916,-4.779201507568359 -3.759673833847046,27.966140747070312 -3.759673833847046,27.966140747070312"></path></g></g><g opacity="1" transform="matrix(1,0,0,1,89.7490005493164,96.73600006103516)"><path fill="rgb(255,255,255)" fill-opacity="1" d=" M38.141998291015625,-27.950000762939453 C38.141998291015625,-27.950000762939453 9.807999610900879,-36.66699981689453 -7.263999938964844,-28.312000274658203 C-24.336999893188477,-19.957000732421875 -28.695999145507812,-5.427999973297119 -26.8799991607666,9.10200023651123 C-25.381999969482422,21.08300018310547 -15.982999801635742,38.1619987487793 -15.982999801635742,38.1619987487793 C-15.982999801635742,38.1619987487793 -38.141998291015625,21.089000701904297 -35.236000061035156,-5.427999973297119 C-31.83300018310547,-36.47800064086914 5.453999996185303,-38.16299819946289 13.803000450134277,-37.03099822998047 C35.23500061035156,-34.125 38.141998291015625,-27.950000762939453 38.141998291015625,-27.950000762939453z"></path></g></g></g><g style="display: block;" transform="matrix(0.9734475612640381,0.1802772581577301,-0.1802772581577301,0.9734475612640381,357.1758728027344,221.157470703125)" opacity="1"><g opacity="1" transform="matrix(1,0,0,1,111.2969970703125,119.74700164794922)"><path fill="rgb(246,196,155)" fill-opacity="1" d=" M-28.16699981689453,-12.675000190734863 C-28.16699981689453,-12.675000190734863 -6.3379998207092285,-27.46299934387207 8.449999809265137,-21.125 C23.238000869750977,-14.788000106811523 28.16699981689453,1.409000039100647 25.350000381469727,11.970999717712402 C22.534000396728516,22.534000396728516 11.970999717712402,27.46299934387207 3.5209999084472656,23.941999435424805 C-4.928999900817871,20.42099952697754 -4.928999900817871,4.928999900817871 -7.041999816894531,2.11299991607666 C-9.154000282287598,-0.7039999961853027 -21.82900047302246,2.816999912261963 -21.82900047302246,2.816999912261963 C-21.82900047302246,2.816999912261963 -28.16699981689453,-12.675000190734863 -28.16699981689453,-12.675000190734863z"></path><path stroke-linecap="round" stroke-linejoin="round" fill-opacity="0" stroke="rgb(198,108,70)" stroke-opacity="1" stroke-width="11" d=" M-28.16699981689453,-12.675000190734863 C-28.16699981689453,-12.675000190734863 -6.3379998207092285,-27.46299934387207 8.449999809265137,-21.125 C23.238000869750977,-14.788000106811523 28.16699981689453,1.409000039100647 25.350000381469727,11.970999717712402 C22.534000396728516,22.534000396728516 11.970999717712402,27.46299934387207 3.5209999084472656,23.941999435424805 C-4.928999900817871,20.42099952697754 -4.928999900817871,4.928999900817871 -7.041999816894531,2.11299991607666 C-9.154000282287598,-0.7039999961853027 -21.82900047302246,2.816999912261963 -21.82900047302246,2.816999912261963 C-21.82900047302246,2.816999912261963 -28.16699981689453,-12.675000190734863 -28.16699981689453,-12.675000190734863z"></path></g><g opacity="1" transform="matrix(1,0,0,1,81.72100067138672,91.93199920654297)"><path fill="rgb(244,215,187)" fill-opacity="1" d=" M-7.745999813079834,39.7859992980957 C-7.745999813079834,39.7859992980957 -26.05500030517578,-3.872999906539917 -25.350000381469727,-32.040000915527344 C-24.645999908447266,-60.207000732421875 -15.491999626159668,-64.43199920654297 -2.11299991607666,-62.31999969482422 C11.267000198364258,-60.207000732421875 16.195999145507812,-37.67300033569336 17.604000091552734,-23.59000015258789 C19.01300048828125,-9.505999565124512 21.125,45.41899871826172 21.125,45.41899871826172 C21.125,45.41899871826172 26.05500030517578,64.43199920654297 11.267000198364258,61.6150016784668 C-3.5209999084472656,58.79899978637695 -7.745999813079834,39.7859992980957 -7.745999813079834,39.7859992980957z"></path><path stroke-linecap="round" stroke-linejoin="round" fill-opacity="0" stroke="rgb(198,108,70)" stroke-opacity="1" stroke-width="11" d=" M-7.745999813079834,39.7859992980957 C-7.745999813079834,39.7859992980957 -26.05500030517578,-3.872999906539917 -25.350000381469727,-32.040000915527344 C-24.645999908447266,-60.207000732421875 -15.491999626159668,-64.43199920654297 -2.11299991607666,-62.31999969482422 C11.267000198364258,-60.207000732421875 16.195999145507812,-37.67300033569336 17.604000091552734,-23.59000015258789 C19.01300048828125,-9.505999565124512 21.125,45.41899871826172 21.125,45.41899871826172 C21.125,45.41899871826172 26.05500030517578,64.43199920654297 11.267000198364258,61.6150016784668 C-3.5209999084472656,58.79899978637695 -7.745999813079834,39.7859992980957 -7.745999813079834,39.7859992980957z"></path></g><g opacity="1" transform="matrix(1,0,0,1,83.33899688720703,170.447998046875)"><path fill="url(#__lottie_element_20)" mask="url(#__lottie_element_22)" fill-opacity="1" d="M0 0 M4.318999767303467,-33.66899871826172 C4.318999767303467,-33.66899871826172 -12.180000305175781,-44.362998962402344 -34.0099983215332,-24.645999908447266 C-55.8390007019043,-4.928999900817871 -48.09299850463867,23.941999435424805 -33.305999755859375,29.575000762939453 C-18.51799964904785,35.20899963378906 -5.138999938964844,30.280000686645508 -5.138999938964844,30.280000686645508 C-5.138999938964844,30.280000686645508 12.465999603271484,44.362998962402344 31.479000091552734,39.433998107910156 C50.49100112915039,34.505001068115234 55.8390007019043,7.644999980926514 54.012001037597656,-6.3379998207092285 C51.722999572753906,-23.861000061035156 36.558998107910156,-34.7140007019043 21.7549991607666,-34.75899887084961 C12.5600004196167,-34.7859992980957 4.318999767303467,-33.66899871826172 4.318999767303467,-33.66899871826172z"></path><path stroke-linecap="round" stroke-linejoin="round" fill-opacity="0" stroke="rgb(198,108,70)" stroke-opacity="1" stroke-width="11" d=" M4.318999767303467,-33.66899871826172 C4.318999767303467,-33.66899871826172 -12.180000305175781,-44.362998962402344 -34.0099983215332,-24.645999908447266 C-55.8390007019043,-4.928999900817871 -48.09299850463867,23.941999435424805 -33.305999755859375,29.575000762939453 C-18.51799964904785,35.20899963378906 -5.138999938964844,30.280000686645508 -5.138999938964844,30.280000686645508 C-5.138999938964844,30.280000686645508 12.465999603271484,44.362998962402344 31.479000091552734,39.433998107910156 C50.49100112915039,34.505001068115234 55.8390007019043,7.644999980926514 54.012001037597656,-6.3379998207092285 C51.722999572753906,-23.861000061035156 36.558998107910156,-34.7140007019043 21.7549991607666,-34.75899887084961 C12.5600004196167,-34.7859992980957 4.318999767303467,-33.66899871826172 4.318999767303467,-33.66899871826172z"></path></g><g opacity="1" transform="matrix(1,0,0,1,95.83100128173828,163.35499572753906)"><path stroke-linecap="round" stroke-linejoin="round" fill-opacity="0" stroke="rgb(198,108,70)" stroke-opacity="1" stroke-width="11" d=" M15.802000045776367,26.003999710083008 C15.802000045776367,26.003999710083008 18.524999618530273,8.567999839782715 4.359000205993652,0.39500001072883606 C-9.807999610900879,-7.7779998779296875 -18.525999069213867,-9.413000106811523 -18.525999069213867,-9.413000106811523 C-18.525999069213867,-9.413000106811523 -1.0889999866485596,-6.144000053405762 3.2699999809265137,-13.772000312805176 C7.629000186920166,-21.399999618530273 7.015999794006348,-26.003999710083008 7.015999794006348,-26.003999710083008"></path></g><g opacity="0.1877064659431003" transform="matrix(1,0,0,1,0,0)"><path fill="rgb(244,215,187)" fill-opacity="1" d=" M97.04890441894531,126.12125396728516 C97.04890441894531,126.12125396728516 81.73790740966797,125.69525909423828 80.05790710449219,125.75125885009766 C77.56890869140625,125.83525848388672 77.9137954711914,131.06658935546875 79.87379455566406,130.44058227539062 C80.94579315185547,130.0985870361328 85.9118881225586,129.92555236816406 88.92588806152344,129.04954528808594 C91.73888397216797,128.23255920410156 95.69490814208984,129.64724731445312 97.48890686035156,130.1062469482422 C99.3259048461914,130.5762481689453 96.46690368652344,131.9822540283203 97.55890655517578,127.93525695800781 C98.41590881347656,124.75725555419922 97.04890441894531,126.12125396728516 97.04890441894531,126.12125396728516z"></path></g><g opacity="1" transform="matrix(1,0,0,1,83.66200256347656,80.83799743652344)"><path fill="rgb(225,173,145)" fill-opacity="1" d=" M-13.258000373840332,-46.132999420166016 C-13.258000373840332,-46.132999420166016 -4.9039998054504395,-41.4109992980957 -0.9079999923706055,-27.60700035095215 C3.0869998931884766,-13.803999900817871 6.71999979019165,27.607999801635742 6.71999979019165,36.32600021362305 C6.71999979019165,45.04399871826172 5.993000030517578,50.12799835205078 5.993000030517578,50.12799835205078 C5.993000030517578,50.12799835205078 13.258000373840332,49.402000427246094 13.258000373840332,49.402000427246094 C13.258000373840332,49.402000427246094 12.168999671936035,-6.538000106811523 8.53600025177002,-28.33300018310547 C4.9039998054504395,-50.12799835205078 -13.258000373840332,-46.132999420166016 -13.258000373840332,-46.132999420166016z"></path></g></g></g></g></svg>