<svg xmlns="http://www.w3.org/2000/svg" xmlns:xlink="http://www.w3.org/1999/xlink" viewBox="0 0 512 512" width="512" height="512" style="width: 100%; height: 100%; transform: translate3d(0,0,0); content-visibility: visible;" preserveAspectRatio="xMidYMid meet"><defs><clipPath id="__lottie_element_2"><rect width="512" height="512" x="0" y="0"></rect></clipPath><clipPath id="__lottie_element_4"><path d="M0,0 L512,0 L512,512 L0,512z"></path></clipPath><radialGradient id="__lottie_element_15" spreadMethod="pad" gradientUnits="userSpaceOnUse" cx="-140.36700439453125" cy="-235.59800720214844" r="455.1514318449296" fx="-140.36700439453125" fy="-235.59800720214844"><stop offset="0%" stop-color="rgb(254,240,222)"></stop><stop offset="50%" stop-color="rgb(249,213,185)"></stop><stop offset="100%" stop-color="rgb(244,187,148)"></stop></radialGradient><clipPath id="__lottie_element_43"><path d="M0,0 L512,0 L512,512 L0,512z"></path></clipPath><radialGradient id="__lottie_element_54" spreadMethod="pad" gradientUnits="userSpaceOnUse"><stop></stop><stop></stop><stop></stop></radialGradient></defs><g clip-path="url(#__lottie_element_2)"><g clip-path="url(#__lottie_element_43)" style="display: none;"><g style="display: none;"><g><path></path><path stroke-linecap="butt" stroke-linejoin="miter" fill-opacity="0" stroke-miterlimit="10"></path></g><g><path fill="url(#__lottie_element_54)"></path></g></g><g style="display: none;"><g><g><g></g></g></g><g><g><path stroke-linecap="round" stroke-linejoin="round" fill-opacity="0"></path></g><g><path></path><path stroke-linecap="round" stroke-linejoin="bevel" fill-opacity="0"></path></g><g><path stroke-linecap="round" stroke-linejoin="round" fill-opacity="0"></path></g><g><path stroke-linecap="round" stroke-linejoin="round" fill-opacity="0"></path></g><g><g><path></path></g><g><path></path></g><g><path></path></g><g><path></path></g></g></g><g><g><path stroke-linecap="round" stroke-linejoin="round" fill-opacity="0"></path></g><g><path stroke-linecap="round" stroke-linejoin="round" fill-opacity="0"></path></g><g><path></path><path stroke-linecap="butt" stroke-linejoin="miter" fill-opacity="0" stroke-miterlimit="10"></path></g><g><g><path></path></g><g><path></path></g><g><path></path></g><g><path></path></g></g><g><path stroke-linecap="butt" stroke-linejoin="miter" fill-opacity="0" stroke-miterlimit="10"></path></g><g><path></path><path stroke-linecap="round" stroke-linejoin="round" fill-opacity="0"></path></g></g><g><path></path><path stroke-linecap="round" stroke-linejoin="round" fill-opacity="0"></path></g></g><g style="display: none;"><g><path stroke-linecap="round" stroke-linejoin="round" fill-opacity="0"></path></g><g><path stroke-linecap="round" stroke-linejoin="round" fill-opacity="0"></path></g><g><path stroke-linecap="round" stroke-linejoin="round" fill-opacity="0"></path></g></g><g style="display: none;"><g><path stroke-linecap="round" stroke-linejoin="round" fill-opacity="0"></path></g></g><g style="display: none;"><g><path stroke-linecap="round" stroke-linejoin="round" fill-opacity="0"></path></g></g><g style="display: none;"><g><g><path></path></g><g><path stroke-linecap="round" stroke-linejoin="round" fill-opacity="0"></path></g><g><path stroke-linecap="round" stroke-linejoin="round" fill-opacity="0"></path></g><g><path stroke-linecap="round" stroke-linejoin="round" fill-opacity="0"></path></g><g><g><path></path></g><g><path></path></g><g><path stroke-linecap="round" stroke-linejoin="round" fill-opacity="0"></path></g><g><path stroke-linecap="round" stroke-linejoin="round" fill-opacity="0"></path></g><g><path stroke-linecap="round" stroke-linejoin="round" fill-opacity="0"></path></g></g></g></g><g style="display: none;"><g><g><path></path><path stroke-linecap="round" stroke-linejoin="round" fill-opacity="0"></path></g><g><path stroke-linecap="round" stroke-linejoin="round" fill-opacity="0"></path></g><g><path stroke-linecap="round" stroke-linejoin="round" fill-opacity="0"></path></g><g><g><path stroke-linecap="round" stroke-linejoin="round" fill-opacity="0"></path></g></g></g></g><g style="display: none;"><g><path></path></g><g><path></path></g><g><path></path></g><g><path></path></g><g><path></path></g><g><path></path></g><g><path></path></g><g><path></path></g><g><path></path></g><g><path></path></g></g><g style="display: none;"><g><path></path></g><g><path></path></g><g><path></path></g><g><path></path></g><g><path></path></g><g><path></path></g><g><path></path></g><g><path></path></g></g><g style="display: none;"><g><g><path stroke-linecap="round" stroke-linejoin="round" fill-opacity="0"></path></g></g></g><g style="display: none;"><g><path stroke-linecap="round" stroke-linejoin="round" fill-opacity="0"></path></g><g><path stroke-linecap="round" stroke-linejoin="round" fill-opacity="0"></path></g><g><path stroke-linecap="round" stroke-linejoin="round" fill-opacity="0"></path></g><g><path stroke-linecap="round" stroke-linejoin="round" fill-opacity="0"></path></g></g></g><g clip-path="url(#__lottie_element_4)" style="display: block;" transform="matrix(1,0,0,1,0,-9)" opacity="1"><g style="display: block;" transform="matrix(-0.8667218685150146,0,0,0.9331300258636475,493.4115905761719,34.772216796875)" opacity="1"><g opacity="1" transform="matrix(1,0,0,1,271.2300109863281,223.30799865722656)"><path fill="rgb(231,157,106)" fill-opacity="1" d=" M-218.51300048828125,-96.9260025024414 C-203.9669952392578,-107.27200317382812 -179.39199829101562,-112.83799743652344 -173.70799255371094,-120.2699966430664 C-162.3000030517578,-135.18699645996094 -161.96099853515625,-147.6649932861328 -137.65199279785156,-169.91200256347656 C-122.39900207519531,-183.8719940185547 -117.91899871826172,-188.39999389648438 -54.479000091552734,-196.64999389648438 C1.3580000400543213,-203.91000366210938 9.343999862670898,-200.79299926757812 34.275001525878906,-200.28399658203125 C59.28799819946289,-199.7740020751953 99,-189.6929931640625 119.73400115966797,-176.88699340820312 C137.08900451660156,-166.16799926757812 142.85400390625,-162.41600036621094 158.26300048828125,-142.30299377441406 C163.91600036621094,-134.9250030517578 166.5229949951172,-131.9709930419922 180.09100341796875,-120.53099822998047 C188.3990020751953,-111.41300201416016 205.7519989013672,-106.25199890136719 218.6300048828125,-98.26699829101562 C233.56399536132812,-89.00700378417969 246.9510040283203,-71.31400299072266 246.9510040283203,-49.409000396728516 C246.9510040283203,-15.975000381469727 233.36300659179688,22.054000854492188 193.50900268554688,61.7760009765625 C172.4709930419922,82.68699645996094 152.6790008544922,103.79299926757812 129.30499267578125,120.78600311279297 C106.02300262451172,137.71299743652344 79.90799713134766,155.6199951171875 43.61600112915039,168.6179962158203 C6.998000144958496,185.25999450683594 -50.62300109863281,199.3090057373047 -77.1510009765625,201.77000427246094 C-118.45700073242188,205.6009979248047 -191.1439971923828,203.45700073242188 -207.35499572753906,163.1909942626953 C-217.63699340820312,137.6510009765625 -209.60400390625,115.58100128173828 -206.13699340820312,83.8030014038086 C-205.61099243164062,52.698001861572266 -193.90899658203125,22.216999053955078 -206.38400268554688,5.797999858856201 C-217.20399475097656,-8.442000389099121 -234.41600036621094,-24.613000869750977 -238.1479949951172,-44.159000396728516 C-243.177001953125,-70.4990005493164 -237.47000122070312,-83.44200134277344 -218.51300048828125,-96.9260025024414z"></path><path stroke-linecap="butt" stroke-linejoin="miter" fill-opacity="0" stroke-miterlimit="10" stroke="rgb(182,94,49)" stroke-opacity="1" stroke-width="12" d=" M-218.51300048828125,-96.9260025024414 C-203.9669952392578,-107.27200317382812 -179.39199829101562,-112.83799743652344 -173.70799255371094,-120.2699966430664 C-162.3000030517578,-135.18699645996094 -161.96099853515625,-147.6649932861328 -137.65199279785156,-169.91200256347656 C-122.39900207519531,-183.8719940185547 -117.91899871826172,-188.39999389648438 -54.479000091552734,-196.64999389648438 C1.3580000400543213,-203.91000366210938 9.343999862670898,-200.79299926757812 34.275001525878906,-200.28399658203125 C59.28799819946289,-199.7740020751953 99,-189.6929931640625 119.73400115966797,-176.88699340820312 C137.08900451660156,-166.16799926757812 142.85400390625,-162.41600036621094 158.26300048828125,-142.30299377441406 C163.91600036621094,-134.9250030517578 166.5229949951172,-131.9709930419922 180.09100341796875,-120.53099822998047 C188.3990020751953,-111.41300201416016 205.7519989013672,-106.25199890136719 218.6300048828125,-98.26699829101562 C233.56399536132812,-89.00700378417969 246.9510040283203,-71.31400299072266 246.9510040283203,-49.409000396728516 C246.9510040283203,-15.975000381469727 233.36300659179688,22.054000854492188 193.50900268554688,61.7760009765625 C172.4709930419922,82.68699645996094 152.6790008544922,103.79299926757812 129.30499267578125,120.78600311279297 C106.02300262451172,137.71299743652344 79.90799713134766,155.6199951171875 43.61600112915039,168.6179962158203 C6.998000144958496,185.25999450683594 -50.62300109863281,199.3090057373047 -77.1510009765625,201.77000427246094 C-118.45700073242188,205.6009979248047 -191.1439971923828,203.45700073242188 -207.35499572753906,163.1909942626953 C-217.63699340820312,137.6510009765625 -209.60400390625,115.58100128173828 -206.13699340820312,83.8030014038086 C-205.61099243164062,52.698001861572266 -193.90899658203125,22.216999053955078 -206.38400268554688,5.797999858856201 C-217.20399475097656,-8.442000389099121 -234.41600036621094,-24.613000869750977 -238.1479949951172,-44.159000396728516 C-243.177001953125,-70.4990005493164 -237.47000122070312,-83.44200134277344 -218.51300048828125,-96.9260025024414z"></path></g><g opacity="1" transform="matrix(1,0,0,1,263.3789978027344,217.11500549316406)"><path fill="url(#__lottie_element_15)" fill-opacity="1" d=" M-201.64700317382812,-87.75199890136719 C-187.57200622558594,-96.72000122070312 -156.7270050048828,-103.1449966430664 -154.21400451660156,-111.53199768066406 C-151.37399291992188,-121.01499938964844 -142.7220001220703,-140.4530029296875 -117.2770004272461,-155.1739959716797 C-100.54399871826172,-164.8560028076172 -114.23400115966797,-173.93800354003906 -54.94300079345703,-181.65899658203125 C-2.75600004196167,-188.45399475097656 11.489999771118164,-186.3159942626953 34.79199981689453,-185.83999633789062 C58.167999267578125,-185.36199951171875 99.59400177001953,-178.7570037841797 118.9729995727539,-166.77200317382812 C135.1929931640625,-156.74000549316406 138.9239959716797,-145.0780029296875 153.3249969482422,-126.25399780273438 C158.60800170898438,-119.3489990234375 178.8209991455078,-105.70800018310547 184.21200561523438,-100.31700134277344 C189.96499633789062,-94.56400299072266 218.26400756835938,-83.80000305175781 224.75999450683594,-78.09100341796875 C237.10400390625,-67.24400329589844 238.13900756835938,-58.744998931884766 238.13900756835938,-38.24399948120117 C238.13900756835938,-6.954999923706055 215.58299255371094,18.459999084472656 179.1529998779297,58.05799865722656 C160.3419952392578,78.50599670410156 121.31500244140625,108.0770034790039 106.68900299072266,116.73300170898438 C92.06400299072266,125.38700103759766 53.24300003051758,147.94700622558594 15.036999702453613,159.63800048828125 C-15.352999687194824,168.93600463867188 -61.202999114990234,175.79200744628906 -86.04499816894531,177.74899291992188 C-129.7949981689453,181.19500732421875 -158.14500427246094,163.2100067138672 -171.9040069580078,133.072998046875 C-179.7689971923828,115.84300231933594 -173.2030029296875,108.32599639892578 -175.0070037841797,80.41600036621094 C-177.30799865722656,44.810001373291016 -177.48800659179688,14.293000221252441 -186.48399353027344,-2.7750000953674316 C-193.99600219726562,-17.027000427246094 -221.4029998779297,-30.792999267578125 -222.7050018310547,-55.939998626708984 C-223.95700073242188,-80.11900329589844 -208.61599731445312,-83.31199645996094 -201.64700317382812,-87.75199890136719z"></path></g></g><g style="display: block;" transform="matrix(-0.8543443083763123,-0.0022404270712286234,0.0018561924807727337,0.7328996658325195,391.3050231933594,90.09886169433594)" opacity="1"><g opacity="1" transform="matrix(1,0,0,1,0,0)"><g opacity="1" transform="matrix(1,0,0,1,0,0)"><g opacity="1" transform="matrix(1,0,0,1,0,0)"></g></g></g><g opacity="1" transform="matrix(1,0,0,1,0,0)"><g opacity="1" transform="matrix(1,0,0,1,211.57200622558594,47.9010009765625)"><path stroke-linecap="round" stroke-linejoin="round" fill-opacity="0" stroke="rgb(229,144,85)" stroke-opacity="1" stroke-width="10.73" d=" M-44.78499984741211,21.076000213623047 C-44.78499984741211,21.076000213623047 -58.79100036621094,1.440000057220459 -28.225000381469727,-10.706000328063965 C-2.128999948501587,-21.076000213623047 29.770999908447266,-13.940999984741211 44.21500015258789,-4.670000076293945 C57.54899978637695,3.888000011444092 58.79100036621094,15.911999702453613 58.79100036621094,15.911999702453613"></path></g><g opacity="1" transform="matrix(1,0,0,1,215.4720001220703,57.24599838256836)"><path fill="rgb(255,255,255)" fill-opacity="1" d=" M-45.04600143432617,19.590999603271484 C-34.69900131225586,17.298999786376953 -20.736000061035156,12.472999572753906 -2.7909998893737793,10.27400016784668 C14.991999626159668,8.095000267028809 32.76900100708008,9.119000434875488 43.61199951171875,11.329999923706055 C48.354000091552734,12.295999526977539 58.198001861572266,12.506999969482422 56.917999267578125,4.10099983215332 C55.180999755859375,-7.301000118255615 34.676998138427734,-25.261999130249023 4.048999786376953,-25.659000396728516 C-26.57900047302246,-26.05699920654297 -37.03099822998047,-16.56399917602539 -43.683998107910156,-10.883999824523926 C-50.025001525878906,-5.46999979019165 -59.52199935913086,3.937000036239624 -56.737998962402344,11.494999885559082 C-53.95399856567383,19.05299949645996 -48.680999755859375,20.395999908447266 -45.04600143432617,19.590999603271484z"></path><path stroke-linecap="round" stroke-linejoin="bevel" fill-opacity="0" stroke="rgb(34,19,19)" stroke-opacity="1" stroke-width="7.804" d=" M-45.04600143432617,19.590999603271484 C-34.69900131225586,17.298999786376953 -20.736000061035156,12.472999572753906 -2.7909998893737793,10.27400016784668 C14.991999626159668,8.095000267028809 32.76900100708008,9.119000434875488 43.61199951171875,11.329999923706055 C48.354000091552734,12.295999526977539 58.198001861572266,12.506999969482422 56.917999267578125,4.10099983215332 C55.180999755859375,-7.301000118255615 34.676998138427734,-25.261999130249023 4.048999786376953,-25.659000396728516 C-26.57900047302246,-26.05699920654297 -37.03099822998047,-16.56399917602539 -43.683998107910156,-10.883999824523926 C-50.025001525878906,-5.46999979019165 -59.52199935913086,3.937000036239624 -56.737998962402344,11.494999885559082 C-53.95399856567383,19.05299949645996 -48.680999755859375,20.395999908447266 -45.04600143432617,19.590999603271484z"></path></g><g opacity="1" transform="matrix(1,0,0,1,210.24200439453125,85.5999984741211)"><path stroke-linecap="round" stroke-linejoin="round" fill-opacity="0" stroke="rgb(240,160,105)" stroke-opacity="1" stroke-width="9" d=" M-34.823001861572266,2.4070000648498535 C-34.823001861572266,2.4070000648498535 -31.30500030517578,5.408999919891357 -23.95800018310547,4.388999938964844 C-16.610000610351562,3.368000030517578 -3.240999937057495,-1.0579999685287476 7.11899995803833,-2.74399995803833 C15.696999549865723,-4.140999794006348 34.823001861572266,-5.4079999923706055 34.823001861572266,-5.4079999923706055"></path></g><g opacity="1" transform="matrix(1,0,0,1,298.8550109863281,61.867000579833984)"><path stroke-linecap="round" stroke-linejoin="round" fill-opacity="0" stroke="rgb(227,139,78)" stroke-opacity="1" stroke-width="6.828" d=" M-8.53600025177002,-6.283999919891357 C-8.53600025177002,-6.283999919891357 8.53600025177002,-0.35600000619888306 8.298999786376953,0.8299999833106995 C8.062999725341797,2.015000104904175 -5.2170000076293945,6.283999919891357 -5.2170000076293945,6.283999919891357"></path></g><g opacity="1" transform="matrix(1,0,0,1,0,0)"><g opacity="1" transform="matrix(1,0,0,1,225.4510040283203,51)"><path fill="rgb(34,19,19)" fill-opacity="1" d=" M-23.06800079345703,-13.725000381469727 C-23.06800079345703,-13.725000381469727 -27.20800018310547,-7.327000141143799 -25.687999725341797,0.39500001072883606 C-24.371999740600586,7.089000225067139 -15.75,15.184000015258789 -15.75,15.184000015258789 C-15.75,15.184000015258789 6.744999885559082,13.680000305175781 6.744999885559082,13.680000305175781 C6.744999885559082,13.680000305175781 23.073999404907227,12.793999671936035 23.073999404907227,12.793999671936035 C23.073999404907227,12.793999671936035 26.57200050354004,7.5279998779296875 26.889999389648438,3.427000045776367 C27.20800018310547,-0.6740000247955322 28.594999313354492,-5.169000148773193 28.594999313354492,-5.169000148773193 C28.594999313354492,-5.169000148773193 24.117000579833984,-13.208999633789062 6.218999862670898,-15.380999565124512 C-11.678000450134277,-17.55299949645996 -23.06800079345703,-13.725000381469727 -23.06800079345703,-13.725000381469727z"></path></g><g opacity="1" transform="matrix(1,0,0,1,206.03700256347656,51.470001220703125)"><path fill="rgb(255,255,255)" fill-opacity="1" d=" M9.583000183105469,-0.9670000076293945 C9.848999977111816,1.6670000553131104 5.7729997634887695,4.236000061035156 0.48100000619888306,4.769999980926514 C-4.811999797821045,5.303999900817871 -9.317000389099121,3.5999999046325684 -9.583000183105469,0.9660000205039978 C-9.848999977111816,-1.6679999828338623 -5.7729997634887695,-4.236999988555908 -0.47999998927116394,-4.769999980926514 C4.811999797821045,-5.303999900817871 9.317000389099121,-3.6010000705718994 9.583000183105469,-0.9670000076293945z"></path></g><g opacity="1" transform="matrix(1,0,0,1,232.38600158691406,54.02199935913086)"><path fill="rgb(69,58,85)" fill-opacity="1" d=" M-11.562999725341797,2.1700000762939453 C-11.562999725341797,2.1700000762939453 -8.67300033569336,-5.438000202178955 1.2170000076293945,-5.590000152587891 C6.445000171661377,-5.670000076293945 12.628000259399414,0.8009999990463257 11.71500015258789,3.234999895095825 C10.802000045776367,5.670000076293945 7.607999801635742,4.605000019073486 0.30399999022483826,4.1479997634887695 C-4.124000072479248,3.871999979019165 -9.281999588012695,5.364999771118164 -10.956000328063965,4.605000019073486 C-12.628999710083008,3.8440001010894775 -11.562999725341797,2.1700000762939453 -11.562999725341797,2.1700000762939453z"></path></g><g opacity="1" transform="matrix(1,0,0,1,242.6929931640625,51.22100067138672)"><path fill="rgb(255,255,255)" fill-opacity="1" d=" M13.293000221252441,0.15000000596046448 C13.475000381469727,1.9520000219345093 11.26099967956543,1.7740000486373901 9.267000198364258,1.975000023841858 C7.2729997634887695,2.177000045776367 3.7709999084472656,1.6510000228881836 3.5880000591278076,-0.15000000596046448 C3.4070000648498535,-1.9520000219345093 5.688000202178955,-3.559000015258789 7.614999771118164,-3.005000114440918 C10.946000099182129,-2.046999931335449 13.111000061035156,-1.6510000228881836 13.293000221252441,0.15000000596046448z"></path></g></g></g><g opacity="1" transform="matrix(1.0399999618530273,0,0,1.0399999618530273,-5.427036285400391,-2.5689163208007812)"><g opacity="1" transform="matrix(1,0,0,1,78.62000274658203,84.35700225830078)"><path stroke-linecap="round" stroke-linejoin="round" fill-opacity="0" stroke="rgb(240,160,105)" stroke-opacity="1" stroke-width="7.804" d=" M-18.69700050354004,-0.7379999756813049 C-18.69700050354004,-0.7379999756813049 -5.413000106811523,1.968000054359436 1.7209999561309814,3.197999954223633 C8.855999946594238,4.427999973297119 10.57800006866455,3.444000005722046 14.022000312805176,0.7379999756813049 C17.465999603271484,-1.968000054359436 18.69700050354004,-4.427999973297119 18.69700050354004,-4.427999973297119"></path></g><g opacity="1" transform="matrix(1,0,0,1,61.18600082397461,50.83599853515625)"><path stroke-linecap="round" stroke-linejoin="round" fill-opacity="0" stroke="rgb(229,144,85)" stroke-opacity="1" stroke-width="9.755" d=" M-36.79800033569336,1.1890000104904175 C-36.79800033569336,1.1890000104904175 -27.959999084472656,-11.72700023651123 0.42500001192092896,-10.368000030517578 C28.809999465942383,-9.008000373840332 36.79800033569336,10.708000183105469 36.79800033569336,10.708000183105469 C36.79800033569336,10.708000183105469 23.201000213623047,11.727999687194824 23.201000213623047,11.727999687194824 C23.201000213623047,11.727999687194824 -21.840999603271484,4.589000225067139 -21.840999603271484,4.589000225067139 C-21.840999603271484,4.589000225067139 -36.79800033569336,1.1890000104904175 -36.79800033569336,1.1890000104904175z"></path></g><g opacity="1" transform="matrix(1,0,0,1,58.0989990234375,60.53200149536133)"><path fill="rgb(255,255,255)" fill-opacity="1" d=" M-25.722000122070312,2.9030001163482666 C-17.701000213623047,3.8919999599456787 -7.586999893188477,4.34499979019165 1.9600000381469727,5.936999797821045 C11.505999565124512,7.5279998779296875 25.655000686645508,12.057999610900879 30.360000610351562,13.194000244140625 C37.0099983215332,14.798999786376953 38.38600158691406,8.836000442504883 34.257999420166016,4.249000072479248 C30.67799949645996,0.2720000147819519 20.382999420166016,-13.236000061035156 -5.133999824523926,-14.086999893188477 C-26.482999801635742,-14.798999786376953 -34.542999267578125,-9.970000267028809 -35.91899871826172,-5.61299991607666 C-38.38600158691406,2.197999954223633 -29.10300064086914,2.4860000610351562 -25.722000122070312,2.9030001163482666z"></path><path stroke-linecap="butt" stroke-linejoin="miter" fill-opacity="0" stroke-miterlimit="10" stroke="rgb(34,19,19)" stroke-opacity="1" stroke-width="7.804" d=" M-25.722000122070312,2.9030001163482666 C-17.701000213623047,3.8919999599456787 -7.586999893188477,4.34499979019165 1.9600000381469727,5.936999797821045 C11.505999565124512,7.5279998779296875 25.655000686645508,12.057999610900879 30.360000610351562,13.194000244140625 C37.0099983215332,14.798999786376953 38.38600158691406,8.836000442504883 34.257999420166016,4.249000072479248 C30.67799949645996,0.2720000147819519 20.382999420166016,-13.236000061035156 -5.133999824523926,-14.086999893188477 C-26.482999801635742,-14.798999786376953 -34.542999267578125,-9.970000267028809 -35.91899871826172,-5.61299991607666 C-38.38600158691406,2.197999954223633 -29.10300064086914,2.4860000610351562 -25.722000122070312,2.9030001163482666z"></path></g><g opacity="1" transform="matrix(1.1786799430847168,0,0,1.1028800010681152,-17.55066680908203,-6.2629241943359375)"><g opacity="1" transform="matrix(1,0,0,1,74.25499725341797,60.875999450683594)"><path fill="rgb(34,19,19)" fill-opacity="1" d=" M-14.366999626159668,-9.256999969482422 C-14.366999626159668,-9.256999969482422 -16.489999771118164,-6.75 -16.68199920654297,-3.4709999561309814 C-16.875,-0.19300000369548798 -14.560999870300293,3.4719998836517334 -14.560999870300293,3.4719998836517334 C-14.560999870300293,3.4719998836517334 3.760999917984009,10.993000030517578 4.340000152587891,10.993000030517578 C4.918000221252441,10.993000030517578 11.784000396728516,10.881999969482422 13.392999649047852,9.368000030517578 C15.00100040435791,7.854000091552734 16.875,2.121000051498413 6.8460001945495605,-4.050000190734863 C-3.181999921798706,-10.220999717712402 -12.826000213623047,-10.993000030517578 -12.826000213623047,-10.993000030517578 C-12.826000213623047,-10.993000030517578 -14.366999626159668,-9.256999969482422 -14.366999626159668,-9.256999969482422z"></path></g><g opacity="1" transform="matrix(1,0,0,1,73.71499633789062,62.82500076293945)"><path fill="rgb(69,58,85)" fill-opacity="1" d=" M-8.440999984741211,-0.2939999997615814 C-8.440999984741211,-0.2939999997615814 -5.243000030517578,-5.449999809265137 2.0169999599456787,-4.1539998054504395 C5.855000019073486,-3.4690001010894775 9.458999633789062,2.1459999084472656 8.444999694824219,3.7980000972747803 C7.431000232696533,5.449999809265137 5.24399995803833,4.216000080108643 -0.03700000047683716,2.8429999351501465 C-3.23799991607666,2.009999990463257 -7.22599983215332,2.369999885559082 -8.342000007629395,1.5740000009536743 C-9.458999633789062,0.7789999842643738 -8.440999984741211,-0.2939999997615814 -8.440999984741211,-0.2939999997615814z"></path></g><g opacity="1" transform="matrix(1,0,0,1,58.91600036621094,57.46900177001953)"><path fill="rgb(255,255,255)" fill-opacity="1" d=" M7.6529998779296875,0.9810000061988831 C7.426000118255615,2.75 3.815999984741211,3.74399995803833 -0.4099999964237213,3.2019999027252197 C-4.63700008392334,2.6589999198913574 -7.880000114440918,0.7870000004768372 -7.6529998779296875,-0.9810000061988831 C-7.426000118255615,-2.749000072479248 -3.815999984741211,-3.74399995803833 0.41100001335144043,-3.2019999027252197 C4.63700008392334,-2.6600000858306885 7.880000114440918,-0.7879999876022339 7.6529998779296875,0.9810000061988831z"></path></g><g opacity="1" transform="matrix(1,0,0,1,82.35600280761719,62.08000183105469)"><path fill="rgb(255,255,255)" fill-opacity="1" d=" M4.519999980926514,0.6729999780654907 C4.519999980926514,2.0510001182556152 3.4030001163482666,3.1679999828338623 2.0250000953674316,3.1679999828338623 C0.6470000147819519,3.1679999828338623 -0.4690000116825104,2.0510001182556152 -0.4690000116825104,0.6729999780654907 C-0.4690000116825104,-0.7049999833106995 0.6470000147819519,-1.8220000267028809 2.0250000953674316,-1.8220000267028809 C3.4030001163482666,-1.8220000267028809 4.519999980926514,-0.7049999833106995 4.519999980926514,0.6729999780654907z"></path></g></g><g opacity="1" transform="matrix(1,0,0,1,58.0989990234375,60.53200149536133)"><path stroke-linecap="butt" stroke-linejoin="miter" fill-opacity="0" stroke-miterlimit="10" stroke="rgb(34,19,19)" stroke-opacity="1" stroke-width="7.804" d=" M-25.722000122070312,2.9030001163482666 C-17.701000213623047,3.8919999599456787 -7.586999893188477,4.34499979019165 1.9600000381469727,5.936999797821045 C11.505999565124512,7.5279998779296875 25.655000686645508,12.057999610900879 30.360000610351562,13.194000244140625 C37.0099983215332,14.798999786376953 38.38600158691406,8.836000442504883 34.257999420166016,4.249000072479248 C30.67799949645996,0.2720000147819519 20.382999420166016,-13.236000061035156 -5.133999824523926,-14.086999893188477 C-26.482999801635742,-14.798999786376953 -34.542999267578125,-9.970000267028809 -35.91899871826172,-5.61299991607666 C-38.38600158691406,2.197999954223633 -29.10300064086914,2.4860000610351562 -25.722000122070312,2.9030001163482666z"></path></g><g opacity="1" transform="matrix(1,0,0,1,0,0)"><path fill="rgb(248,209,178)" fill-opacity="1" d=" M60.847999572753906,6.449999809265137 C53.051998138427734,6.767000198364258 46.612998962402344,11.545000076293945 38.4379997253418,22.7810001373291 C30.1560001373291,34.16299819946289 24.309999465942383,44.06100082397461 24.309999465942383,44.06100082397461 C24.309999465942383,44.06100082397461 39.89899826049805,39.11199951171875 57.92499923706055,40.10200119018555 C72.51799774169922,40.90299987792969 93.97599792480469,56.928001403808594 93.97599792480469,56.928001403808594 C93.97599792480469,56.928001403808594 88.12999725341797,21.791000366210938 80.33499908447266,14.368000030517578 C72.54000091552734,6.945000171661377 66.5270004272461,6.218999862670898 60.847999572753906,6.449999809265137z"></path><path stroke-linecap="round" stroke-linejoin="round" fill-opacity="0" stroke="rgb(204,119,62)" stroke-opacity="1" stroke-width="10" d=" M60.847999572753906,6.449999809265137 C53.051998138427734,6.767000198364258 46.612998962402344,11.545000076293945 38.4379997253418,22.7810001373291 C30.1560001373291,34.16299819946289 24.309999465942383,44.06100082397461 24.309999465942383,44.06100082397461 C24.309999465942383,44.06100082397461 39.89899826049805,39.11199951171875 57.92499923706055,40.10200119018555 C72.51799774169922,40.90299987792969 93.97599792480469,56.928001403808594 93.97599792480469,56.928001403808594 C93.97599792480469,56.928001403808594 88.12999725341797,21.791000366210938 80.33499908447266,14.368000030517578 C72.54000091552734,6.945000171661377 66.5270004272461,6.218999862670898 60.847999572753906,6.449999809265137z"></path></g></g><g opacity="1" transform="matrix(1,0,0,1,0,0)"><path fill="rgb(248,209,178)" fill-opacity="1" d=" M218.3979949951172,-2.5510001182556152 C186.3979949951172,-5.051000118255615 177.93499755859375,15.461999893188477 170.9720001220703,29.21299934387207 C165.50399780273438,40.01100158691406 157.98500061035156,61.7869987487793 157.98500061035156,61.7869987487793 C157.98500061035156,61.7869987487793 177.9340057373047,36.56399917602539 214.56500244140625,32.66899871826172 C244.41299438476562,29.4950008392334 268.9320068359375,51.683998107910156 268.9320068359375,51.683998107910156 C268.9320068359375,51.683998107910156 250.3979949951172,-0.050999999046325684 218.3979949951172,-2.5510001182556152z"></path><path stroke-linecap="round" stroke-linejoin="round" fill-opacity="0" stroke="rgb(204,119,62)" stroke-opacity="1" stroke-width="10" d=" M218.3979949951172,-2.5510001182556152 C186.3979949951172,-5.051000118255615 177.93499755859375,15.461999893188477 170.9720001220703,29.21299934387207 C165.50399780273438,40.01100158691406 157.98500061035156,61.7869987487793 157.98500061035156,61.7869987487793 C157.98500061035156,61.7869987487793 177.9340057373047,36.56399917602539 214.56500244140625,32.66899871826172 C244.41299438476562,29.4950008392334 268.9320068359375,51.683998107910156 268.9320068359375,51.683998107910156 C268.9320068359375,51.683998107910156 250.3979949951172,-0.050999999046325684 218.3979949951172,-2.5510001182556152z"></path></g></g><g style="display: block;" transform="matrix(-0.8667218685150146,0,0,0.9065171480178833,472.183837890625,136.0064239501953)" opacity="1"><g opacity="1" transform="matrix(1,0,0,1,78.6449966430664,64.21199798583984)"><path stroke-linecap="round" stroke-linejoin="round" fill-opacity="0" stroke="rgb(226,138,78)" stroke-opacity="0.67" stroke-width="8.779" d=" M-25.132644653320312,155.3888397216797 C-25.132644653320312,155.3888397216797 -23.0046443939209,149.46652221679688 -22.83590316772461,136.71238708496094 C-22.6622257232666,124.91748046875 -17.168935775756836,105.6963882446289 -13.593935012817383,100.32038879394531"></path></g><g opacity="1" transform="matrix(1,0,0,1,60.060001373291016,34.35499954223633)"><path stroke-linecap="round" stroke-linejoin="round" fill-opacity="0" stroke="rgb(226,138,78)" stroke-opacity="0.67" stroke-width="6.828" d=" M8.309000015258789,113.79493713378906 C8.309000015258789,113.79493713378906 9.951125144958496,103.4332504272461 6.006124973297119,88.51325225830078 C-0.49287500977516174,63.93524932861328 -12.65668773651123,53.77493667602539 -12.65668773651123,53.77493667602539"></path></g><g opacity="1" transform="matrix(1,0,0,1,442.7959899902344,77.7300033569336)"><path stroke-linecap="round" stroke-linejoin="round" fill-opacity="0" stroke="rgb(226,138,78)" stroke-opacity="1" stroke-width="11.706" d=" M-35.91893768310547,-47.41593933105469 C-35.91893768310547,-47.41593933105469 13.1431245803833,-45.675376892089844 25.244375228881836,-16.45018768310547 C36.35556411743164,10.395812034606934 23.619125366210938,26.743812561035156 18.204063415527344,34.33143615722656 C11.856687545776367,43.13724899291992 0.09300000220537186,49.578311920166016 0.09300000220537186,49.578311920166016"></path></g></g><g style="display: block;" transform="matrix(-0.8667218685150146,0,0,0.9065171480178833,451.01763916015625,319.67291259765625)" opacity="1"><g opacity="1" transform="matrix(1,0,0,1,181.50399780273438,55.49100112915039)"><path stroke-linecap="round" stroke-linejoin="round" fill-opacity="0" stroke="rgb(222,141,87)" stroke-opacity="1" stroke-width="13" d=" M-148.9168701171875,-48.07294845581055 C-148.9168701171875,-48.07294845581055 -148.2471923828125,14.818824768066406 -117.3187255859375,30.553974151611328 C-94.97344970703125,41.997074127197266 -50.65022659301758,43.944576263427734 -26.687299728393555,38.29759979248047 C13.1493501663208,31.32717514038086 32.25127410888672,22.839324951171875 54.369651794433594,10.276124954223633 C86.9072036743164,-8.928825378417969 120.60514831542969,-47.38679885864258 120.60514831542969,-47.38679885864258"></path></g></g><g style="display: block;" transform="matrix(-0.8543443083763123,-0.0022404270712286234,0.0025390363298356533,1.0025140047073364,394.2485656738281,18.848831176757812)" opacity="0.68"><g opacity="1" transform="matrix(1,0,0,1,177.1179962158203,35.94499969482422)"><path stroke-linecap="round" stroke-linejoin="round" fill-opacity="0" stroke="rgb(240,160,105)" stroke-opacity="1" stroke-width="9" d=" M-134.02340698242188,19.584733963012695 C-134.02340698242188,19.584733963012695 -91.00140380859375,11.442733764648438 -72.65039825439453,8.938733100891113 C-37.03239822387695,4.078733444213867 -18.11440086364746,4.6626667976379395 9.94159984588623,5.071666717529297 C40.155601501464844,5.512666702270508 51.87853240966797,7.116733551025391 69.82752990722656,14.711732864379883 C84.4475326538086,20.897733688354492 87.0645980834961,22.360733032226562 87.0645980834961,22.360733032226562"></path></g></g><g style="display: block;" transform="matrix(-0.8603613376617432,-0.002256203442811966,0.0021796736400574446,0.8606234192848206,385.7875061035156,110.59815979003906)" opacity="1"><g opacity="1" transform="matrix(0.9896500110626221,0,0,1.0399999618530273,-6.186065673828125,-2.8785171508789062)"><g opacity="1" transform="matrix(1,0,0,1,0,0)"><path fill="rgb(249,214,186)" fill-opacity="1" d=" M90.22599792480469,22.62700080871582 C90.22599792480469,22.62700080871582 92.26799774169922,37.41999816894531 93.28900146484375,44.577999114990234 C94.30999755859375,51.736000061035156 83.59200286865234,74.63999938964844 71.85299682617188,79.41200256347656 C60.11399841308594,84.18399810791016 74.91500091552734,109.4749984741211 80.01899719238281,113.7699966430664 C85.12300109863281,118.06500244140625 114.21399688720703,103.7490005493164 114.21399688720703,103.7490005493164 C114.21399688720703,103.7490005493164 121.87000274658203,76.54900360107422 121.87000274658203,76.54900360107422 C121.87000274658203,76.54900360107422 114.7239990234375,39.32899856567383 114.7239990234375,39.32899856567383 C114.7239990234375,39.32899856567383 90.22599792480469,22.62700080871582 90.22599792480469,22.62700080871582z"></path></g><g opacity="1" transform="matrix(1,0,0,1,104.70500183105469,27.510000228881836)"><path stroke-linecap="round" stroke-linejoin="round" fill-opacity="0" stroke="rgb(240,160,105)" stroke-opacity="1" stroke-width="8.779" d=" M-13,-6.336894512176514 C-13,-6.336894512176514 -6.443578720092773,-10.282316207885742 0.43073683977127075,-11.406526565551758 C9.64489459991455,-12.906526565551758 21.020051956176758,-13.026104927062988 21.020051956176758,-13.026104927062988"></path></g><g opacity="1" transform="matrix(1,0,0,1,45.59199905395508,98.9219970703125)"><path stroke-linecap="round" stroke-linejoin="round" fill-opacity="0" stroke="rgb(240,160,105)" stroke-opacity="1" stroke-width="10.73" d=" M-55.62900161743164,101.5260009765625 C-55.62900161743164,101.5260009765625 -39.553001403808594,61.512001037597656 -18.384000778198242,32.6609992980957 C0.6790000200271606,6.678999900817871 18.767000198364258,-6.508999824523926 18.767000198364258,-6.508999824523926"></path></g><g opacity="1" transform="matrix(1,0,0,1,199.3509979248047,93.01300048828125)"><path stroke-linecap="round" stroke-linejoin="round" fill-opacity="0" stroke="rgb(233,153,98)" stroke-opacity="1" stroke-width="11" d=" M-5.304999828338623,136.00399780273438 C-5.304999828338623,136.00399780273438 28.663999557495117,83.34100341796875 22.65999984741211,36.237998962402344 C20.52199935913086,19.466999053955078 2.819000005722046,33.097999572753906 -19.268999099731445,-11.104000091552734"></path></g><g opacity="1" transform="matrix(1.001096248626709,0,0,1.0010452270507812,2.2762374877929688,4.4947509765625)"><g opacity="1" transform="matrix(1,0,0,1,83.6520004272461,69.33699798583984)"><path fill="rgb(248,158,97)" fill-opacity="1" d=" M7.78000020980835,-42.29399871826172 C7.78000020980835,-42.29399871826172 17.499000549316406,-18.71500015258789 15.876999855041504,-4.14900016784668 C14.842000007629395,5.140999794006348 4.3902058601379395,4.9095001220703125 -1.6277941465377808,8.15250015258789 C-12.849794387817383,14.19849967956543 -13.045000076293945,18.677000045776367 -12.803999900817871,24.573999404907227 C-12.562000274658203,30.469999313354492 -4.174823760986328,38.56841278076172 5.385176658630371,38.56841278076172 C12.415176391601562,38.56841278076172 29.519088745117188,35.87308883666992 29.519088745117188,35.87308883666992 C29.519088745117188,35.87308883666992 13.548999786376953,52.58300018310547 8.956000328063965,52.58300018310547 C4.36299991607666,52.58300018310547 -20.39900016784668,38.457000732421875 -20.881999969482422,31.086000442504883 C-21.365999221801758,23.71500015258789 -20.909000396728516,13.222000122070312 -13.656999588012695,11.256999969482422 C-6.40500020980835,9.291000366210938 7.014999866485596,6.11299991607666 7.499000072479248,-4.452000141143799 C7.98199987411499,-15.017000198364258 7.747000217437744,-27.023000717163086 7.747000217437744,-27.023000717163086 C7.747000217437744,-27.023000717163086 4.605000019073486,-36.35900115966797 4.605000019073486,-36.35900115966797 C4.605000019073486,-36.35900115966797 7.78000020980835,-42.29399871826172 7.78000020980835,-42.29399871826172z"></path></g><g opacity="1" transform="matrix(1,0,0,1,133.8730010986328,106.48600006103516)"><path fill="rgb(234,146,86)" fill-opacity="1" d=" M-42.611000061035156,3.0840001106262207 C-42.611000061035156,3.0840001106262207 -16.75200080871582,-14.939000129699707 0.503000020980835,-13.543999671936035 C17.757999420166016,-12.14900016784668 28.679000854492188,-7.388000011444092 31.0310001373291,-7.7870001792907715 C33.38399887084961,-8.185999870300293 47.762001037597656,-18.90999984741211 47.762001037597656,-18.90999984741211 C47.762001037597656,-18.90999984741211 49.520999908447266,8.17300033569336 32.176998138427734,9.194999694824219 C25.714000701904297,9.576000213623047 12.819999694824219,8.684000015258789 -2.5139999389648438,10.472999572753906 C-11.939000129699707,11.571999549865723 -26.19300079345703,16.048999786376953 -31.67300033569336,17.114999771118164 C-40.888999938964844,18.909000396728516 -49.520999908447266,15.071999549865723 -49.520999908447266,15.071999549865723 C-49.520999908447266,15.071999549865723 -42.611000061035156,3.0840001106262207 -42.611000061035156,3.0840001106262207z"></path></g><g opacity="1" transform="matrix(1,0,0,1,83.26300048828125,71.77899932861328)"><path stroke-linecap="round" stroke-linejoin="round" fill-opacity="0" stroke="rgb(187,102,47)" stroke-opacity="1" stroke-width="11" d=" M4.257500171661377,-60.950557708740234 C4.257500171661377,-60.950557708740234 9.25100040435791,-18.902000427246094 8.126999855041504,-10.579000473022461 C6.973999977111816,-2.046999931335449 -2.2736470699310303,-1.5855000019073486 -7.244264602661133,0.4572941064834595 C-13.609353065490723,3.0721471309661865 -23.689647674560547,5.260264873504639 -21.71464729309082,16.971263885498047 C-20.417646408081055,24.66026496887207 -15.194999694824219,42.483177185058594 -9.031000137329102,45.224178314208984 C-2.867000102996826,47.9661750793457 -12.069293975830078,45.211971282958984 3.3317646980285645,51.0338249206543 C7.370500087738037,52.543148040771484 23.725940704345703,56.89958953857422 23.725940704345703,56.89958953857422"></path></g><g opacity="1" transform="matrix(1,0,0,1,139.8459930419922,103.33599853515625)"><path stroke-linecap="round" stroke-linejoin="round" fill-opacity="0" stroke="rgb(57,39,11)" stroke-opacity="1" stroke-width="9.624" d=" M-15.765437126159668,0.5174375176429749 C-15.765437126159668,0.5174375176429749 -6.455999851226807,-2.0386874675750732 2.7535624504089355,-0.640625 C10.660687446594238,0.5366874933242798 15.816374778747559,3.8373124599456787 15.816374778747559,3.8373124599456787"></path></g><g opacity="1" transform="matrix(1,0,0,1,167.67799377441406,92.66600036621094)"><path stroke-linecap="round" stroke-linejoin="round" fill-opacity="0" stroke="rgb(182,94,49)" stroke-opacity="1" stroke-width="11" d=" M-11.687999725341797,-17.86400032043457 C-11.687999725341797,-17.86400032043457 3.2190001010894775,-17.489999771118164 8.463000297546387,-9.336999893188477 C11.687999725341797,-4.322999954223633 5.541999816894531,7.808000087738037 3.7709999084472656,10.194999694824219 C2.6110000610351562,11.758000373840332 -0.4620000123977661,17.86400032043457 -0.4620000123977661,17.86400032043457"></path></g></g></g></g><g style="display: block;" transform="matrix(-0.7818520665168762,-0.04791637137532234,-0.04253057762980461,0.8043902516365051,428.72601318359375,168.1776123046875)" opacity="1"><g opacity="1" transform="matrix(1.0562353134155273,0,0,1.0020235776901245,-12.992935180664062,-21.717575073242188)"><g opacity="1" transform="matrix(1,0,0,1,196.0330047607422,126.65599822998047)"><path fill="rgb(66,23,15)" fill-opacity="1" d=" M19.777000427246094,88.71499633789062 C19.777000427246094,88.71499633789062 4.005000114440918,25.424999237060547 -67.5459976196289,22.06999969482422 C-133.8459930419922,18.961000442504883 -154.22900390625,52.263999938964844 -154.22900390625,52.263999938964844 C-154.22900390625,52.263999938964844 -153.09300231933594,47.979000091552734 -153.09300231933594,50.887001037597656 C-153.09300231933594,53.79499816894531 -141.1219940185547,37.68299865722656 -123.78700256347656,30.51300048828125 C-106.00700378417969,23.15999984741211 -102.48799896240234,21.827999114990234 -79.03099822998047,21.863000869750977 C-60.82899856567383,21.889999389648438 -32.4900016784668,25.780000686645508 -6.909999847412109,47.516998291015625 C13.074000358581543,64.4990005493164 19.72599983215332,87.93800354003906 19.72599983215332,87.93800354003906 C19.72599983215332,87.93800354003906 19.777000427246094,88.71499633789062 19.777000427246094,88.71499633789062z"></path><path stroke-linecap="round" stroke-linejoin="round" fill-opacity="0" stroke="rgb(32,15,13)" stroke-opacity="1" stroke-width="9.5" d=" M19.777000427246094,88.71499633789062 C19.777000427246094,88.71499633789062 4.005000114440918,25.424999237060547 -67.5459976196289,22.06999969482422 C-133.8459930419922,18.961000442504883 -154.22900390625,52.263999938964844 -154.22900390625,52.263999938964844 C-154.22900390625,52.263999938964844 -153.09300231933594,47.979000091552734 -153.09300231933594,50.887001037597656 C-153.09300231933594,53.79499816894531 -141.1219940185547,37.68299865722656 -123.78700256347656,30.51300048828125 C-106.00700378417969,23.15999984741211 -102.48799896240234,21.827999114990234 -79.03099822998047,21.863000869750977 C-60.82899856567383,21.889999389648438 -32.4900016784668,25.780000686645508 -6.909999847412109,47.516998291015625 C13.074000358581543,64.4990005493164 19.72599983215332,87.93800354003906 19.72599983215332,87.93800354003906 C19.72599983215332,87.93800354003906 19.777000427246094,88.71499633789062 19.777000427246094,88.71499633789062z"></path></g><g opacity="1" transform="matrix(1,0,0,1,202.18899536132812,78.6510009765625)"><path stroke-linecap="round" stroke-linejoin="round" fill-opacity="0" stroke="rgb(57,39,11)" stroke-opacity="1" stroke-width="9.856" d=" M-173.46099853515625,118.39700317382812 C-173.46099853515625,118.39700317382812 -165.65699768066406,100.64800262451172 -141.73800659179688,85.26899719238281 C-125.51200103759766,74.83699798583984 -95.78199768066406,64.052001953125 -69.60800170898438,69.37200164794922 C-40.58300018310547,75.27100372314453 -26.836999893188477,80.50900268554688 -4.86899995803833,103.13700103759766 C17.104000091552734,125.7699966430664 22.474000930786133,163.34800720214844 22.474000930786133,163.34800720214844"></path></g><g opacity="1" transform="matrix(1,0,0,1,379.0329895019531,41.24800109863281)"><path stroke-linecap="round" stroke-linejoin="round" fill-opacity="0" stroke="rgb(227,139,78)" stroke-opacity="1" stroke-width="12" d=" M-64.86799621582031,47.97700119018555 C-64.86799621582031,47.97700119018555 -60.902000427246094,50.93899917602539 -61.731998443603516,78.03700256347656 C-62.62699890136719,107.26699829101562 -76.52300262451172,127.60700225830078 -76.52300262451172,127.60700225830078"></path></g><g opacity="1" transform="matrix(1,0,0,1,0,0)"><g opacity="1" transform="matrix(1,0,0,1,134.23500061035156,220.2949981689453)"><path stroke-linecap="round" stroke-linejoin="round" fill-opacity="0" stroke="rgb(204,119,62)" stroke-opacity="1" stroke-width="16" d=" M-70.91817474365234,-32.108177185058594 C-70.91817474365234,-32.108177185058594 -32.531822204589844,-46.808292388916016 -8.515823364257812,-39.645294189453125 C31.93817710876465,-27.579294204711914 50.652000427246094,10.609999656677246 50.652000427246094,10.609999656677246"></path></g></g></g></g><g style="display: block;" transform="matrix(-0.7642903327941895,-0.026143481954932213,-0.018022824078798294,0.6603399515151978,403.2704772949219,243.3999481201172)" opacity="0.5984251968503937"><g opacity="0" transform="matrix(1,0,0,1,162.3300018310547,48.05099868774414)"><path fill="rgb(255,255,255)" fill-opacity="1" d=" M52.939998626708984,43.4640007019043 C52.939998626708984,43.4640007019043 42.54800033569336,30.13800048828125 -18.08300018310547,25.44099998474121 C-99.11900329589844,19.163999557495117 -134.36599731445312,19.53700065612793 -134.36599731445312,19.53700065612793 C-134.36599731445312,19.53700065612793 -139.4320068359375,21.281999588012695 -115.86499786376953,27.506999969482422 C-92.2979965209961,33.731998443603516 -48.393001556396484,34.44599914550781 -26.93199920654297,32.465999603271484 C-8.444000244140625,31.23699951171875 2.5460000038146973,34.255001068115234 24.14900016784668,39.79100036621094 C36.22100067138672,42.88399887084961 59.12099838256836,44.63999938964844 53.87900161743164,46.97999954223633 C52.400001525878906,47.63999938964844 52.939998626708984,43.4640007019043 52.939998626708984,43.4640007019043z"></path></g><g opacity="0" transform="matrix(1,0,0,1,287.52398681640625,35.387001037597656)"><path fill="rgb(162,162,206)" fill-opacity="1" d=" M-53.880001068115234,24.948999404907227 C-53.880001068115234,24.948999404907227 -58.0260009765625,38.1870002746582 -58.0260009765625,38.1870002746582 C-58.0260009765625,38.1870002746582 -52.35900115966797,36.34700012207031 -48.98099899291992,36.007999420166016 C-44.902000427246094,35.5989990234375 -40.03200149536133,32.05500030517578 -40.03200149536133,32.05500030517578 C-40.03200149536133,32.05500030517578 -45.952999114990234,20.679000854492188 -45.952999114990234,20.679000854492188 C-45.952999114990234,20.679000854492188 -45.11800003051758,23.760000228881836 -47.64099884033203,24.53700065612793 C-50.16400146484375,25.312999725341797 -53.880001068115234,24.948999404907227 -53.880001068115234,24.948999404907227z"></path></g><g opacity="0" transform="matrix(1,0,0,1,227.6790008544922,63.71699905395508)"><path fill="rgb(162,162,206)" fill-opacity="1" d=" M-29.658000946044922,7.558000087738037 C-29.658000946044922,7.558000087738037 -30.648000717163086,17.610000610351562 -30.648000717163086,17.610000610351562 C-30.648000717163086,17.610000610351562 -29.274999618530273,17.677000045776367 -24.820999145507812,18.409000396728516 C-19.400999069213867,19.299999237060547 -18.888999938964844,16.077999114990234 -18.888999938964844,16.077999114990234 C-18.888999938964844,16.077999114990234 -16.729999542236328,5.636000156402588 -16.729999542236328,5.636000156402588 C-16.729999542236328,5.636000156402588 -20.722000122070312,6.535999774932861 -25.499000549316406,7.809000015258789 C-29.364999771118164,8.840999603271484 -29.658000946044922,7.558000087738037 -29.658000946044922,7.558000087738037z"></path></g><g opacity="0" transform="matrix(1,0,0,1,162.01400756835938,79.8740005493164)"><path fill="rgb(162,162,206)" fill-opacity="1" d=" M6.757999897003174,-8.288000106811523 C6.757999897003174,-8.288000106811523 4.988999843597412,5.890999794006348 4.988999843597412,5.890999794006348 C4.988999843597412,5.890999794006348 7.478000164031982,4.923999786376953 10.00100040435791,4.923999786376953 C10.00100040435791,4.923999786376953 14.276000022888184,5.631999969482422 14.276000022888184,5.631999969482422 C14.276000022888184,5.631999969482422 17.89900016784668,-7.939000129699707 17.89900016784668,-7.939000129699707 C17.89900016784668,-7.939000129699707 6.757999897003174,-8.288000106811523 6.757999897003174,-8.288000106811523z"></path></g><g opacity="0" transform="matrix(1,0,0,1,112.99700164794922,82.01899719238281)"><path fill="rgb(162,162,206)" fill-opacity="1" d=" M17.326000213623047,-6.451000213623047 C17.326000213623047,-6.451000213623047 16.451000213623047,1.0119999647140503 16.451000213623047,1.0119999647140503 C16.451000213623047,1.0119999647140503 20.357999801635742,1.2890000343322754 23.268999099731445,1.2890000343322754 C26.18000030517578,1.2890000343322754 27.445999145507812,0.5249999761581421 27.445999145507812,0.5249999761581421 C27.445999145507812,0.5249999761581421 29.361000061035156,-7.933000087738037 29.361000061035156,-7.933000087738037 C29.361000061035156,-7.933000087738037 27.517000198364258,-7.431000232696533 22.29599952697754,-7.005000114440918 C20.167999267578125,-6.830999851226807 17.326000213623047,-6.451000213623047 17.326000213623047,-6.451000213623047z"></path></g><g opacity="0" transform="matrix(1,0,0,1,80.26799774169922,81.33899688720703)"><path fill="rgb(162,162,206)" fill-opacity="1" d=" M12.62600040435791,-7.940000057220459 C12.62600040435791,-7.940000057220459 14.128000259399414,0.4699999988079071 14.128000259399414,0.4699999988079071 C14.128000259399414,0.4699999988079071 14.157999992370605,1.128999948501587 19.785999298095703,0.9340000152587891 C25.413999557495117,0.7400000095367432 24.850000381469727,0.3330000042915344 24.850000381469727,0.3330000042915344 C24.850000381469727,0.3330000042915344 23.429000854492188,-9.251999855041504 23.429000854492188,-9.251999855041504 C23.429000854492188,-9.251999855041504 12.62600040435791,-7.940000057220459 12.62600040435791,-7.940000057220459z"></path></g><g opacity="0" transform="matrix(1,0,0,1,51.582000732421875,77.53500366210938)"><path fill="rgb(162,162,206)" fill-opacity="1" d=" M16.93400001525879,-4.171999931335449 C16.93400001525879,-4.171999931335449 21.097999572753906,9.821000099182129 21.097999572753906,9.821000099182129 C21.097999572753906,9.821000099182129 21.034000396728516,10.140999794006348 24.138999938964844,10.529000282287598 C27.243999481201172,10.916000366210938 28.849000930786133,9.10099983215332 28.849000930786133,9.10099983215332 C28.849000930786133,9.10099983215332 25.750999450683594,-3.7109999656677246 25.750999450683594,-3.7109999656677246 C25.750999450683594,-3.7109999656677246 20.731000900268555,-2.5420000553131104 18.198999404907227,-3.063999891281128 C16.815000534057617,-3.3489999771118164 16.93400001525879,-4.171999931335449 16.93400001525879,-4.171999931335449z"></path></g><g opacity="0" transform="matrix(1,0,0,1,24.850000381469727,72.14800262451172)"><path fill="rgb(162,162,206)" fill-opacity="1" d=" M31.125999450683594,-3.3259999752044678 C31.125999450683594,-3.3259999752044678 37.23400115966797,10.369999885559082 37.23400115966797,10.369999885559082 C37.23400115966797,10.369999885559082 36.52399826049805,10.149999618530273 30.648000717163086,9.312999725341797 C25.75,8.614999771118164 24.347999572753906,7.9629998207092285 24.347999572753906,7.9629998207092285 C24.347999572753906,7.9629998207092285 21.76099967956543,-1.2979999780654907 21.76099967956543,-1.2979999780654907 C21.76099967956543,-1.2979999780654907 24.490999221801758,-4.070000171661377 27.983999252319336,-3.0989999771118164 C31.476999282836914,-2.128999948501587 32.80400085449219,-2.197999954223633 32.80400085449219,-2.197999954223633 C32.80400085449219,-2.197999954223633 31.125999450683594,-3.3259999752044678 31.125999450683594,-3.3259999752044678z"></path></g><g opacity="0" transform="matrix(1,0,0,1,158.3990020751953,60.67499923706055)"><path fill="rgb(163,163,206)" fill-opacity="1" d=" M-128.57000732421875,4.244999885559082 C-128.57000732421875,4.244999885559082 -94.60299682617188,8.746999740600586 -43.375999450683594,9.503000259399414 C24.402000427246094,10.503000259399414 5.1529998779296875,11.505000114440918 35.25199890136719,22.027999877929688 C60.0369987487793,30.694000244140625 57.52199935913086,32.970001220703125 57.52199935913086,32.970001220703125 C57.52199935913086,32.970001220703125 58.97999954223633,32.880001068115234 58.97999954223633,32.880001068115234 C58.97999954223633,32.880001068115234 56.987998962402344,30.636999130249023 19.929000854492188,25.138999938964844 C5.920000076293945,23.06100082397461 -4.083000183105469,19.288000106811523 -15.031999588012695,19.7450008392334 C-25.981000900268555,20.201000213623047 -89.1240005493164,17 -101.30400085449219,14.708000183105469 C-122.64199829101562,10.694000244140625 -134.26100158691406,10.928999900817871 -131.94000244140625,1.937000036239624 C-131.94000244140625,1.937000036239624 -130.43600463867188,-0.7080000042915344 -130.43600463867188,-0.7080000042915344 C-130.43600463867188,-0.7080000042915344 -128.57000732421875,4.244999885559082 -128.57000732421875,4.244999885559082z"></path></g><g opacity="0" transform="matrix(1,0,0,1,162.8780059814453,40.82899856567383)"><path fill="rgb(184,184,221)" fill-opacity="1" d=" M-138.14100646972656,26.743999481201172 C-138.14100646972656,26.743999481201172 -126.45700073242188,34.80099868774414 -34.9010009765625,34.404998779296875 C37.444000244140625,34.09199905395508 52.566001892089844,54.055999755859375 52.566001892089844,54.055999755859375 C52.566001892089844,54.055999755859375 51.90999984741211,51.724998474121094 51.90999984741211,51.724998474121094 C51.90999984741211,51.724998474121094 43.6619987487793,32.047000885009766 -36.314998626708984,29.799999237060547 C-117.97200012207031,27.5049991607666 -139.74600219726562,24.375999450683594 -139.74600219726562,24.375999450683594 C-139.74600219726562,24.375999450683594 -138.14100646972656,26.743999481201172 -138.14100646972656,26.743999481201172z"></path></g></g><g style="display: block;" transform="matrix(-0.7677083611488342,-0.04704956337809563,-0.04253057762980461,0.8043902516365051,398.4603271484375,205.77359008789062)" opacity="0.5748031496062992"><g opacity="0.01" transform="matrix(1,0,0,1,168.61000061035156,45.14899826049805)"><path fill="rgb(255,255,255)" fill-opacity="1" d=" M-155.16700744628906,55.277000427246094 C-155.16700744628906,55.277000427246094 -147.24899291992188,55.92499923706055 -96.70099639892578,57.215999603271484 C-44.4010009765625,58.551998138427734 -36.80400085449219,61.24300003051758 -10.079999923706055,65.93699645996094 C12.607000350952148,69.9219970703125 25.5544490814209,86.08531188964844 25.5544490814209,86.08531188964844 C25.5544490814209,86.08531188964844 39.27141189575195,83.29751586914062 39.27141189575195,83.29751586914062 C39.27141189575195,83.29751586914062 26.94910430908203,73.957275390625 26.94910430908203,73.957275390625 C26.94910430908203,73.957275390625 -0.20603448152542114,49.974517822265625 -70.64303588867188,47.40751647949219 C-140.8090362548828,44.85051727294922 -157.85000610351562,53.611000061035156 -157.85000610351562,53.611000061035156 C-157.85000610351562,53.611000061035156 -155.16700744628906,55.277000427246094 -155.16700744628906,55.277000427246094z"></path></g><g opacity="0" transform="matrix(1,0,0,1,142.85899353027344,70.75199890136719)"><path fill="rgb(162,162,206)" fill-opacity="1" d=" M-23.207414627075195,26.625654220581055 C-23.207414627075195,26.625654220581055 -24.067413330078125,38.73565673828125 -24.067413330078125,38.73565673828125 C-24.067413330078125,38.73565673828125 -19.60141372680664,39.41365432739258 -16.848413467407227,39.17465591430664 C-14.080413818359375,38.934654235839844 -11.354413986206055,39.529273986816406 -11.354413986206055,39.529273986816406 C-11.354413986206055,39.529273986816406 -8.64803409576416,27.320655822753906 -8.64803409576416,27.320655822753906 C-8.64803409576416,27.320655822753906 -23.207414627075195,26.625654220581055 -23.207414627075195,26.625654220581055z"></path></g><g opacity="0" transform="matrix(1,0,0,1,204.34800720214844,58.62200164794922)"><path fill="rgb(162,162,206)" fill-opacity="1" d=" M-42.20555114746094,47.498863220214844 C-42.20555114746094,47.498863220214844 -48.17555236816406,57.500484466552734 -48.17555236816406,57.500484466552734 C-48.17555236816406,57.500484466552734 -46.412174224853516,57.998863220214844 -43.649173736572266,57.985862731933594 C-40.06017303466797,57.9688606262207 -41.05055236816406,58.81248092651367 -41.05055236816406,58.81248092651367 C-41.05055236816406,58.81248092651367 -33.23368835449219,48.79568862915039 -33.23368835449219,48.79568862915039 C-33.23368835449219,48.79568862915039 -42.20555114746094,47.498863220214844 -42.20555114746094,47.498863220214844z"></path></g><g opacity="0" transform="matrix(1,0,0,1,274.8550109863281,35.619998931884766)"><path fill="rgb(162,162,206)" fill-opacity="1" d=" M-91.1474838256836,79.23693084716797 C-91.1474838256836,79.23693084716797 -93.87368774414062,86.95127868652344 -93.87368774414062,86.95127868652344 C-93.87368774414062,86.95127868652344 -92.84407043457031,87.7486572265625 -89.09107208251953,89.43265533447266 C-86.2200698852539,90.72065734863281 -85.36869049072266,91.80065155029297 -85.36869049072266,91.80065155029297 C-85.36869049072266,91.80065155029297 -79.33948516845703,83.22486114501953 -79.33948516845703,83.22486114501953 C-79.33948516845703,83.22486114501953 -91.1474838256836,79.23693084716797 -91.1474838256836,79.23693084716797z"></path></g><g opacity="0" transform="matrix(1,0,0,1,97.69100189208984,73.08200073242188)"><path fill="rgb(162,162,206)" fill-opacity="1" d=" M-9.97599983215332,27.2549991607666 C-9.97599983215332,27.2549991607666 -10.298999786376953,36.60200119018555 -10.298999786376953,36.60200119018555 C-10.298999786376953,36.60200119018555 -11.628000259399414,36.91600036621094 -14.324999809265137,36.832000732421875 C-17.02199935913086,36.74800109863281 -18.875999450683594,36.57899856567383 -18.875999450683594,36.57899856567383 C-18.875999450683594,36.57899856567383 -20.746000289916992,25.506000518798828 -20.746000289916992,25.506000518798828 C-20.746000289916992,25.506000518798828 -19.545000076293945,25.23699951171875 -16.594999313354492,25.152000427246094 C-13.645000457763672,25.06800079345703 -9.97599983215332,27.2549991607666 -9.97599983215332,27.2549991607666z"></path></g><g opacity="0" transform="matrix(1,0,0,1,55.430999755859375,66.8239974975586)"><path fill="rgb(162,162,206)" fill-opacity="1" d=" M-8.324999809265137,31.93400001525879 C-8.324999809265137,31.93400001525879 -5.525000095367432,43.63399887084961 -5.525000095367432,43.63399887084961 C-5.525000095367432,43.63399887084961 -3.367000102996826,42.94599914550781 -0.6880000233650208,43.57500076293945 C3.0139999389648438,44.444000244140625 3.059000015258789,43.9010009765625 3.059000015258789,43.9010009765625 C3.059000015258789,43.9010009765625 1.7799999713897705,32.63399887084961 1.7799999713897705,32.63399887084961 C1.7799999713897705,32.63399887084961 -1.9470000267028809,31.829999923706055 -1.9470000267028809,31.829999923706055 C-1.9470000267028809,31.829999923706055 -8.324999809265137,31.93400001525879 -8.324999809265137,31.93400001525879z"></path></g><g opacity="0" transform="matrix(1,0,0,1,22.298999786376953,55.23699951171875)"><path fill="rgb(162,162,206)" fill-opacity="1" d=" M6.855000019073486,43.78300094604492 C6.855000019073486,43.78300094604492 11.767999649047852,54.26599884033203 11.767999649047852,54.26599884033203 C11.767999649047852,54.26599884033203 15.866999626159668,54.99100112915039 12.255000114440918,54.698001861572266 C8.038999557495117,54.35599899291992 5.732999801635742,54.35300064086914 5.732999801635742,54.35300064086914 C5.732999801635742,54.35300064086914 1.597000002861023,46.03200149536133 1.597000002861023,46.03200149536133 C1.597000002861023,46.03200149536133 3.697999954223633,43.303001403808594 7.27400016784668,43.16600036621094 C9.496999740600586,43.08100128173828 6.855000019073486,43.78300094604492 6.855000019073486,43.78300094604492z"></path></g><g opacity="0" transform="matrix(1,0,0,1,165.27000427246094,37.112998962402344)"><path fill="rgb(162,162,206)" fill-opacity="1" d=" M-156.63499450683594,64.62000274658203 C-156.63499450683594,64.62000274658203 -152.83689880371094,56.391448974609375 -117.49689483642578,55.85344696044922 C-95.14289855957031,55.51344680786133 -88.46034240722656,56.821102142333984 -61.43234634399414,58.03810501098633 C-37.15434646606445,59.131103515625 -6.895931243896484,67.19438171386719 7.361069202423096,71.38638305664062 C28.728069305419922,77.66838073730469 40.59989547729492,92.09972381591797 40.59989547729492,92.09972381591797 C40.59989547729492,92.09972381591797 33.95641326904297,96.4315185546875 33.95641326904297,96.4315185546875 C33.95641326904297,96.4315185546875 12.314000129699707,64.90699768066406 -56.95199966430664,60.0880012512207 C-135.24200439453125,54.64099884033203 -154.11199951171875,64.30000305175781 -154.11199951171875,64.30000305175781 C-154.11199951171875,64.30000305175781 -156.63499450683594,64.62000274658203 -156.63499450683594,64.62000274658203z"></path></g></g><g style="display: block;" transform="matrix(-0.7818520665168762,-0.04791637137532234,-0.04253057762980461,0.8043902516365051,428.72601318359375,168.1776123046875)" opacity="1"><g opacity="1" transform="matrix(1.0562353134155273,0,0,1.0020235776901245,-12.992935180664062,-21.717575073242188)"><g opacity="1" transform="matrix(1,0,0,1,196.0330047607422,126.65599822998047)"><path stroke-linecap="round" stroke-linejoin="round" fill-opacity="0" stroke="rgb(32,15,13)" stroke-opacity="1" stroke-width="9.5" d=" M19.777000427246094,88.71499633789062 C19.777000427246094,88.71499633789062 4.005000114440918,25.424999237060547 -67.5459976196289,22.06999969482422 C-133.8459930419922,18.961000442504883 -154.22900390625,52.263999938964844 -154.22900390625,52.263999938964844 C-154.22900390625,52.263999938964844 -153.09300231933594,47.979000091552734 -153.09300231933594,50.887001037597656 C-153.09300231933594,53.79499816894531 -141.1219940185547,37.68299865722656 -123.78700256347656,30.51300048828125 C-106.00700378417969,23.15999984741211 -102.48799896240234,21.827999114990234 -79.03099822998047,21.863000869750977 C-60.82899856567383,21.889999389648438 -32.4900016784668,25.780000686645508 -6.909999847412109,47.516998291015625 C13.074000358581543,64.4990005493164 19.72599983215332,87.93800354003906 19.72599983215332,87.93800354003906 C19.72599983215332,87.93800354003906 19.777000427246094,88.71499633789062 19.777000427246094,88.71499633789062z"></path></g></g></g><g style="display: block;" transform="matrix(-0.8543443083763123,-0.0022404270712286234,0.0025390363298356533,1.0025140047073364,403.9801330566406,42.717987060546875)" opacity="1"><g opacity="1" transform="matrix(1,0,0,1,182.49099731445312,49.15800094604492)"><path stroke-linecap="round" stroke-linejoin="round" fill-opacity="0" stroke="rgb(239,159,105)" stroke-opacity="1" stroke-width="10.73" d=" M-6.9029998779296875,-32.95000076293945 C-6.9029998779296875,-32.95000076293945 -15.149999618530273,-22.451000213623047 -16.43199920654297,-11.862000465393066 C-17.423999786376953,-3.6649999618530273 -18.1200008392334,7.552000045776367 -18.1200008392334,7.552000045776367"></path></g><g opacity="1" transform="matrix(1,0,0,1,107.5,53.77299880981445)"><path stroke-linecap="round" stroke-linejoin="round" fill-opacity="0" stroke="rgb(239,159,105)" stroke-opacity="1" stroke-width="10.73" d=" M-1.7890000343322754,-28.68199920654297 C-1.7890000343322754,-28.68199920654297 2.427999973297119,-19.729999542236328 4.629000186920166,-8.147000312805176 C5.421000003814697,-3.9809999465942383 7.341000080108643,6.306000232696533 7.341000080108643,6.306000232696533"></path></g><g opacity="1" transform="matrix(1,0,0,1,68.48300170898438,51.76300048828125)"><path stroke-linecap="round" stroke-linejoin="round" fill-opacity="0" stroke="rgb(57,39,11)" stroke-opacity="1" stroke-width="9.755" d=" M-45.108001708984375,-3.9570000171661377 C-45.108001708984375,-3.9570000171661377 -46.71200180053711,-10.468999862670898 -29.847000122070312,-27.941999435424805 C-11.902000427246094,-46.534000396728516 -0.9850000143051147,-46.236000061035156 13.317999839782715,-45.41400146484375 C29.643999099731445,-44.474998474121094 39.03200149536133,-23.75 39.03200149536133,-23.75"></path></g><g opacity="1" transform="matrix(1,0,0,1,232.91200256347656,41.04499816894531)"><path stroke-linecap="round" stroke-linejoin="round" fill-opacity="0" stroke="rgb(57,39,11)" stroke-opacity="1" stroke-width="12" d=" M-59.14500045776367,-26.920000076293945 C-59.14500045776367,-26.920000076293945 -24.509000778198242,-52.683998107910156 11.651000022888184,-43.74700164794922 C40.52799987792969,-36.611000061035156 56.10499954223633,16.656999588012695 56.10499954223633,16.656999588012695"></path></g></g></g></g></svg>