<svg xmlns="http://www.w3.org/2000/svg" xmlns:xlink="http://www.w3.org/1999/xlink" viewBox="0 0 512 512" width="512" height="512" style="width: 100%; height: 100%; transform: translate3d(0,0,0); content-visibility: visible;" preserveAspectRatio="xMidYMid meet"><defs><clipPath id="__lottie_element_2"><rect width="512" height="512" x="0" y="0"></rect></clipPath><clipPath id="__lottie_element_4"><path d="M0,0 L512,0 L512,512 L0,512z"></path></clipPath><radialGradient id="__lottie_element_12" spreadMethod="pad" gradientUnits="userSpaceOnUse" cx="-101.58300018310547" cy="-153.03799438476562" r="455.1826865120367" fx="-75.51708426826684" fy="-127.00077391478851"><stop offset="26%" stop-color="rgb(254,217,188)"></stop><stop offset="63%" stop-color="rgb(245,197,169)"></stop><stop offset="100%" stop-color="rgb(237,178,150)"></stop></radialGradient><clipPath id="__lottie_element_37"><path d="M0,0 L512,0 L512,512 L0,512z"></path></clipPath><radialGradient id="__lottie_element_45" spreadMethod="pad" gradientUnits="userSpaceOnUse"><stop></stop><stop></stop><stop></stop></radialGradient></defs><g clip-path="url(#__lottie_element_2)"><g clip-path="url(#__lottie_element_37)" style="display: none;"><g style="display: none;"><g></g><g><path></path><path stroke-linecap="butt" stroke-linejoin="miter" fill-opacity="0" stroke-miterlimit="10"></path></g><g><path fill="url(#__lottie_element_45)"></path></g></g><g style="display: none;"><g><path></path></g><g><path></path></g><g><path></path></g><g><path stroke-linecap="butt" stroke-linejoin="miter" fill-opacity="0" stroke-miterlimit="10"></path></g><g><path></path></g><g><path></path></g><g><path stroke-linecap="butt" stroke-linejoin="miter" fill-opacity="0" stroke-miterlimit="10"></path></g><g><path></path></g><g><g><path></path></g><g><path></path></g><g><path></path></g></g><g><g><path></path></g><g><path></path></g><g><path></path></g></g><g><path stroke-linecap="butt" stroke-linejoin="miter" fill-opacity="0" stroke-miterlimit="10"></path></g><g><path stroke-linecap="butt" stroke-linejoin="miter" fill-opacity="0" stroke-miterlimit="10"></path></g></g><g style="display: none;"><g><path></path></g><g><g><path></path></g><g><path></path><path stroke-linecap="butt" stroke-linejoin="miter" fill-opacity="0" stroke-miterlimit="10"></path></g><g><path stroke-linecap="round" stroke-linejoin="round" fill-opacity="0"></path></g><g><path></path></g></g><g><path stroke-linecap="round" stroke-linejoin="round" fill-opacity="0"></path></g><g><path></path></g></g><g style="display: none;"><g><path stroke-linecap="butt" stroke-linejoin="miter" fill-opacity="0" stroke-miterlimit="10"></path></g><g><path stroke-linecap="butt" stroke-linejoin="miter" fill-opacity="0" stroke-miterlimit="10"></path></g><g><path stroke-linecap="butt" stroke-linejoin="miter" fill-opacity="0" stroke-miterlimit="10"></path></g><g><path stroke-linecap="butt" stroke-linejoin="miter" fill-opacity="0" stroke-miterlimit="10"></path></g><g><path stroke-linecap="butt" stroke-linejoin="miter" fill-opacity="0" stroke-miterlimit="10"></path></g><g><path></path></g><g><path></path></g></g><g style="display: none;"><g><path></path></g><g><path stroke-linecap="butt" stroke-linejoin="miter" fill-opacity="0" stroke-miterlimit="10"></path></g></g><g style="display: none;"><g><path></path><path stroke-linecap="round" stroke-linejoin="round" fill-opacity="0"></path></g><g><path></path><path stroke-linecap="round" stroke-linejoin="round" fill-opacity="0"></path></g><g><path></path><path stroke-linecap="round" stroke-linejoin="round" fill-opacity="0"></path></g><g><path></path><path stroke-linecap="round" stroke-linejoin="bevel" fill-opacity="0"></path></g><g><path stroke-linecap="round" stroke-linejoin="round" fill-opacity="0"></path></g><g><path stroke-linecap="round" stroke-linejoin="round" fill-opacity="0"></path></g><g><path></path></g><g><path></path></g></g><g style="display: none;"><g><path></path></g><g><path stroke-linecap="butt" stroke-linejoin="miter" fill-opacity="0" stroke-miterlimit="10"></path></g><g><path></path></g><g><path stroke-linecap="butt" stroke-linejoin="miter" fill-opacity="0" stroke-miterlimit="10"></path></g><g><path></path></g><g><path stroke-linecap="round" stroke-linejoin="round" fill-opacity="0"></path></g><g><path stroke-linecap="butt" stroke-linejoin="miter" fill-opacity="0" stroke-miterlimit="10"></path></g><g><path stroke-linecap="round" stroke-linejoin="round" fill-opacity="0"></path></g></g><g style="display: none;"><g><path></path><path stroke-linecap="round" stroke-linejoin="round" fill-opacity="0"></path></g><g><path></path></g><g><path></path></g><g><path stroke-linecap="round" stroke-linejoin="round" fill-opacity="0"></path></g><g><path stroke-linecap="round" stroke-linejoin="round" fill-opacity="0"></path></g><g><path stroke-linecap="round" stroke-linejoin="round" fill-opacity="0"></path></g></g></g><g clip-path="url(#__lottie_element_4)" style="display: block;" transform="matrix(1,0,0,1,0,0)" opacity="1"><g style="display: block;" transform="matrix(0.9268388152122498,0,0,0.915280282497406,67.68940734863281,-12.818710327148438)" opacity="1"><g opacity="1" transform="matrix(1,0,0,1,255.14100646972656,270.97601318359375)"></g><g opacity="1" transform="matrix(1,0,0,1,255.14100646972656,270.97601318359375)"><path fill="rgb(236,150,109)" fill-opacity="1" d=" M-36.722999572753906,231.53500366210938 C-83.80400085449219,226.55799865722656 -161.39871215820312,219.849853515625 -194.49871826171875,93.60285949707031 C-227.59771728515625,-32.6451416015625 -182.1865692138672,-116.35742950439453 -146.3895721435547,-159.35142517089844 C-110.59156799316406,-202.34542846679688 -17.39257049560547,-240.9454345703125 44.8784294128418,-234.95343017578125 C89.77742767333984,-230.63243103027344 134.1571502685547,-174.9944305419922 181.12014770507812,-68.3104248046875 C228.06414794921875,38.32857131958008 189.0657196044922,134.37542724609375 157.97271728515625,179.62042236328125 C116.46971130371094,240.013427734375 9.88599967956543,236.46200561523438 -36.722999572753906,231.53500366210938z"></path><path stroke-linecap="butt" stroke-linejoin="miter" fill-opacity="0" stroke-miterlimit="10" stroke="rgb(173,90,45)" stroke-opacity="1" stroke-width="12.323" d=" M-36.722999572753906,231.53500366210938 C-83.80400085449219,226.55799865722656 -161.39871215820312,219.849853515625 -194.49871826171875,93.60285949707031 C-227.59771728515625,-32.6451416015625 -182.1865692138672,-116.35742950439453 -146.3895721435547,-159.35142517089844 C-110.59156799316406,-202.34542846679688 -17.39257049560547,-240.9454345703125 44.8784294128418,-234.95343017578125 C89.77742767333984,-230.63243103027344 134.1571502685547,-174.9944305419922 181.12014770507812,-68.3104248046875 C228.06414794921875,38.32857131958008 189.0657196044922,134.37542724609375 157.97271728515625,179.62042236328125 C116.46971130371094,240.013427734375 9.88599967956543,236.46200561523438 -36.722999572753906,231.53500366210938z"></path></g><g opacity="1" transform="matrix(1,0,0,1,252.8209991455078,267.4209899902344)"><path fill="url(#__lottie_element_12)" fill-opacity="1" d=" M-43.70671463012695,216.43470764160156 C-86.2817153930664,211.9337158203125 -150.763427734375,207.88613891601562 -180.69442749023438,93.7221450805664 C-210.62542724609375,-20.441856384277344 -162.73443603515625,-99.92385864257812 -130.36343383789062,-138.8028564453125 C-97.992431640625,-177.68185424804688 -13.147428512573242,-203.6054229736328 43.163570404052734,-198.1874237060547 C83.76557159423828,-194.28042602539062 127.92328643798828,-146.73414611816406 162.93228149414062,-49.84414291381836 C198.7922821044922,49.39985656738281 175.1731414794922,125.39571380615234 147.05613708496094,166.3107147216797 C109.5261459350586,220.92372131347656 -1.5587142705917358,220.89071655273438 -43.70671463012695,216.43470764160156z"></path></g></g><g style="display: block;" transform="matrix(0.9268350601196289,0,0,0.8608976602554321,100.82958984375,87.7069091796875)" opacity="1"><g opacity="1" transform="matrix(1,0,0,1,284.02398681640625,120.55400085449219)"><path fill="rgb(242,175,129)" fill-opacity="1" d=" M-58.99800109863281,-27.95400047302246 C-50.25,-43.35200119018555 -31.201000213623047,-72.9020004272461 -1.6979999542236328,-67.9489974975586 C27.804000854492188,-62.994998931884766 63.025001525878906,-18.742000579833984 66.8219985961914,18.77899932861328 C70.61900329589844,56.30099868774414 60.525001525878906,72.9020004272461 21.19700050354004,72.27200317382812 C-18.131000518798828,71.64199829101562 -64.9990005493164,31.812999725341797 -67.80899810791016,13.102999687194824 C-70.61900329589844,-5.60699987411499 -64.1500015258789,-18.885000228881836 -58.99800109863281,-27.95400047302246z"></path></g><g opacity="1" transform="matrix(1,0,0,1,100.30699920654297,169.5590057373047)"><path fill="rgb(242,175,129)" fill-opacity="1" d=" M-73.88500213623047,-18.511999130249023 C-75.96399688720703,-4.613999843597412 -78.21399688720703,12.62600040435791 -67.36199951171875,37.85300064086914 C-57.45800018310547,60.87799835205078 -35.37300109863281,72.38099670410156 -6.486999988555908,67.35399627685547 C22.399999618530273,62.32600021362305 39.97600173950195,31.268999099731445 59.55500030517578,-0.7620000243186951 C78.21399688720703,-31.28700065612793 59.53099822998047,-44.154998779296875 42.09400177001953,-54.41999816894531 C24.6560001373291,-64.68399810791016 -4.28000020980835,-72.38099670410156 -31.225000381469727,-66.46499633789062 C-64.08899688720703,-59.249000549316406 -71.75499725341797,-32.750999450683594 -73.88500213623047,-18.511999130249023z"></path></g><g opacity="1" transform="matrix(1,0,0,1,97.53600311279297,155.68800354003906)"><path fill="rgb(202,202,229)" fill-opacity="1" d=" M-67.2300033569336,-16.489999771118164 C-68.78700256347656,-2.938999891281128 -70.40899658203125,13.862000465393066 -59.516998291015625,38.058998107910156 C-49.57500076293945,60.14400100708008 -28.534000396728516,70.70700073242188 -1.5829999446868896,65.03199768066406 C25.368999481201172,59.356998443603516 36.31399917602539,43.34000015258789 53.770999908447266,11.701000213623047 C70.40799713134766,-18.450000762939453 50.388999938964844,-45.15700149536133 33.74399948120117,-54.64400100708008 C17.097999572753906,-64.13099670410156 -3.4690001010894775,-70.70700073242188 -28.573999404907227,-64.22200012207031 C-59.194000244140625,-56.3129997253418 -65.63500213623047,-30.374000549316406 -67.2300033569336,-16.489999771118164z"></path></g><g opacity="1" transform="matrix(1,0,0,1,97.53600311279297,155.68800354003906)"><path stroke-linecap="butt" stroke-linejoin="miter" fill-opacity="0" stroke-miterlimit="10" stroke="rgb(73,73,122)" stroke-opacity="1" stroke-width="10.851" d=" M-67.2300033569336,-16.489999771118164 C-68.78700256347656,-2.938999891281128 -70.40899658203125,13.862000465393066 -59.516998291015625,38.058998107910156 C-49.57500076293945,60.14400100708008 -28.534000396728516,70.70700073242188 -1.5829999446868896,65.03199768066406 C25.368999481201172,59.356998443603516 36.31399917602539,43.34000015258789 53.770999908447266,11.701000213623047 C70.40799713134766,-18.450000762939453 50.388999938964844,-45.15700149536133 33.74399948120117,-54.64400100708008 C17.097999572753906,-64.13099670410156 -3.4690001010894775,-70.70700073242188 -28.573999404907227,-64.22200012207031 C-59.194000244140625,-56.3129997253418 -65.63500213623047,-30.374000549316406 -67.2300033569336,-16.489999771118164z"></path></g><g opacity="1" transform="matrix(1,0,0,1,94.96600341796875,156.3070068359375)"><path fill="rgb(255,255,255)" fill-opacity="1" d=" M-55.19300079345703,-13.64799976348877 C-56.42300033569336,-2.489000082015991 -57.70399856567383,11.348999977111816 -48.95199966430664,31.29199981689453 C-40.9630012512207,49.494998931884766 -24.10099983215332,58.22100067138672 -2.5239999294281006,53.58100128173828 C19.05299949645996,48.94200134277344 30.474000930786133,46.32600021362305 44.41600036621094,20.288999557495117 C57.70399856567383,-4.5229997634887695 42.948001861572266,-33.38800048828125 29.606000900268555,-41.2239990234375 C16.263999938964844,-49.058998107910156 -4.196000099182129,-58.22200012207031 -24.29400062561035,-52.91299819946289 C-48.80699920654297,-46.4379997253418 -53.93199920654297,-25.082000732421875 -55.19300079345703,-13.64799976348877z"></path></g><g opacity="1" transform="matrix(1,0,0,1,287.8940124511719,103.2760009765625)"><path fill="rgb(202,202,229)" fill-opacity="1" d=" M-61.94200134277344,-25.285999298095703 C-53.194000244140625,-40.683998107910156 -33.73099899291992,-75.57099914550781 -4.229000091552734,-70.61799621582031 C25.27400016784668,-65.66500091552734 55.683998107910156,-9.32800006866455 63.87799835205078,21.44700050354004 C73.56400299072266,57.82400131225586 57.58100128173828,75.56999969482422 18.253000259399414,74.94000244140625 C-21.075000762939453,74.30999755859375 -67.94300079345703,34.48099899291992 -70.75299835205078,15.770999908447266 C-73.56300354003906,-2.938999891281128 -67.09400177001953,-16.216999053955078 -61.94200134277344,-25.285999298095703z"></path></g><g opacity="1" transform="matrix(1,0,0,1,287.8940124511719,103.2760009765625)"><path stroke-linecap="butt" stroke-linejoin="miter" fill-opacity="0" stroke-miterlimit="10" stroke="rgb(73,73,122)" stroke-opacity="1" stroke-width="11.082" d=" M-61.94200134277344,-25.285999298095703 C-53.194000244140625,-40.683998107910156 -33.73099899291992,-75.57099914550781 -4.229000091552734,-70.61799621582031 C25.27400016784668,-65.66500091552734 55.683998107910156,-9.32800006866455 63.87799835205078,21.44700050354004 C73.56400299072266,57.82400131225586 57.58100128173828,75.56999969482422 18.253000259399414,74.94000244140625 C-21.075000762939453,74.30999755859375 -67.94300079345703,34.48099899291992 -70.75299835205078,15.770999908447266 C-73.56300354003906,-2.938999891281128 -67.09400177001953,-16.216999053955078 -61.94200134277344,-25.285999298095703z"></path></g><g opacity="1" transform="matrix(1,0,0,1,288.5419921875,102.41200256347656)"><path fill="rgb(255,255,255)" fill-opacity="1" d=" M-51.05799865722656,-25.270000457763672 C-44.19200134277344,-38.97999954223633 -28.72800064086914,-62.87699890136719 -5.27400016784668,-58.2869987487793 C18.180999755859375,-53.696998596191406 41.71799850463867,-4.224999904632568 49.79399871826172,20.6560001373291 C60.16899871826172,52.62099838256836 46.59600067138672,62.875999450683594 15.362000465393066,62.09299850463867 C-15.871999740600586,61.31100082397461 -55.51100158691406,28.10099983215332 -57.84000015258789,11.366999626159668 C-60.16899871826172,-5.366000175476074 -55.10200119018555,-17.195999145507812 -51.05799865722656,-25.270000457763672z"></path></g><g opacity="1" transform="matrix(1,0,0,1,0,0)"><g opacity="1" transform="matrix(1,0,0,1,292.16400146484375,149.13299560546875)"><path fill="rgb(11,17,35)" fill-opacity="1" d=" M-29.334999084472656,-17.45599937438965 C-34.249000549316406,-9.170999526977539 -39.98699951171875,12.824000358581543 -17.125999450683594,28.319000244140625 C-1.524999976158142,38.89400100708008 25.93000030517578,32.4010009765625 32.71699905395508,13.904000282287598 C39.986000061035156,-5.9079999923706055 34.08599853515625,-26.017000198364258 11.553000450134277,-32.071998596191406 C-13.829999923706055,-38.893001556396484 -24.038000106811523,-26.386999130249023 -29.334999084472656,-17.45599937438965z"></path></g><g opacity="1" transform="matrix(1,0,0,1,289.7179870605469,161.48399353027344)"><path fill="rgb(254,254,254)" fill-opacity="1" d=" M-17.71511459350586,-6.48301887512207 C-19.18011474609375,-4.184019088745117 -17.446544647216797,-0.16248129308223724 -10.6075439453125,4.1525187492370605 C-5.941544532775879,7.0975189208984375 -0.2610502541065216,9.248376846313477 1.7589497566223145,4.113377094268799 C3.921949863433838,-1.3876227140426636 1.0040409564971924,-4.424561023712158 -5.731958866119385,-6.117561340332031 C-13.319958686828613,-8.024560928344727 -16.1361141204834,-8.962018966674805 -17.71511459350586,-6.48301887512207z"></path></g><g opacity="1" transform="matrix(1,0,0,1,290.18798828125,128.07400512695312)"><path fill="rgb(80,80,170)" fill-opacity="1" d=" M18.347000122070312,0.3400000035762787 C20.64699935913086,4.330999851226807 16.320999145507812,11.661999702453613 11.678999900817871,11.656000137329102 C3.134000062942505,11.645999908447266 -9.211000442504883,10.914999961853027 -13.628000259399414,7.046000003814697 C-20.64699935913086,0.8980000019073486 -9.65999984741211,-11.661999702453613 4.111999988555908,-9.821999549865723 C10.777999877929688,-8.932000160217285 15.902999877929688,-3.9010000228881836 18.347000122070312,0.3400000035762787z"></path></g></g><g opacity="1" transform="matrix(1,0,0,1,0,0)"><g opacity="1" transform="matrix(1,0,0,1,89.16100311279297,193.21299743652344)"><path fill="rgb(11,17,35)" fill-opacity="1" d=" M-28.90999984741211,-20.499000549316406 C-34.957000732421875,-12.590999603271484 -43.36600112915039,9.277999877929688 -21.149999618530273,27.91200065612793 C-5.991000175476074,40.62699890136719 24.469999313354492,31.506999969482422 33.59299850463867,13.350000381469727 C43.3650016784668,-6.0980000495910645 38.36199951171875,-21.676000595092773 15.456000328063965,-30.58799934387207 C-10.345999717712402,-40.62699890136719 -22.392000198364258,-29.02400016784668 -28.90999984741211,-20.499000549316406z"></path></g><g opacity="1" transform="matrix(1,0,0,1,91.4020004272461,201.82699584960938)"><path fill="rgb(254,254,254)" fill-opacity="1" d=" M-20.40030860900879,-2.6274614334106445 C-22.332307815551758,-0.38446155190467834 -21.791383743286133,3.833615303039551 -14.456384658813477,9.313615798950195 C-9.451384544372559,13.05361557006836 -2.212615489959717,13.763461112976074 0.6703845858573914,8.587461471557617 C3.7583847045898438,3.044461488723755 1.5223076343536377,0.4356153905391693 -5.988692283630371,-2.250384569168091 C-14.449692726135254,-5.2763848304748535 -18.318307876586914,-5.045461654663086 -20.40030860900879,-2.6274614334106445z"></path></g><g opacity="1" transform="matrix(1,0,0,1,73.4000015258789,181.9250030517578)"><path fill="rgb(69,69,153)" fill-opacity="1" d=" M8.267000198364258,-18.159000396728516 C13.222000122070312,-18.229999542236328 17.795000076293945,-10.444999694824219 15.333000183105469,-6.151000022888184 C10.800999641418457,1.7549999952316284 3.5820000171661377,12.805999755859375 -2.378000020980835,14.901000022888184 C-11.85099983215332,18.229999542236328 -17.795000076293945,1.5809999704360962 -8.782999992370605,-10.220000267028809 C-4.421000003814697,-15.932000160217285 3.003000020980835,-18.08300018310547 8.267000198364258,-18.159000396728516z"></path></g></g><g opacity="1" transform="matrix(1,0,0,1,97.53600311279297,155.68800354003906)"><path stroke-linecap="butt" stroke-linejoin="miter" fill-opacity="0" stroke-miterlimit="10" stroke="rgb(73,73,122)" stroke-opacity="1" stroke-width="10.851" d=" M-67.2300033569336,-16.489999771118164 C-68.78700256347656,-2.938999891281128 -70.40899658203125,13.862000465393066 -59.516998291015625,38.058998107910156 C-49.57500076293945,60.14400100708008 -28.534000396728516,70.70700073242188 -1.5829999446868896,65.03199768066406 C25.368999481201172,59.356998443603516 36.31399917602539,43.34000015258789 53.770999908447266,11.701000213623047 C70.40799713134766,-18.450000762939453 50.388999938964844,-45.15700149536133 33.74399948120117,-54.64400100708008 C17.097999572753906,-64.13099670410156 -3.4690001010894775,-70.70700073242188 -28.573999404907227,-64.22200012207031 C-59.194000244140625,-56.3129997253418 -65.63500213623047,-30.374000549316406 -67.2300033569336,-16.489999771118164z"></path></g><g opacity="1" transform="matrix(1,0,0,1,287.8940124511719,103.2760009765625)"><path stroke-linecap="butt" stroke-linejoin="miter" fill-opacity="0" stroke-miterlimit="10" stroke="rgb(73,73,122)" stroke-opacity="1" stroke-width="11.082" d=" M-61.94200134277344,-25.285999298095703 C-53.194000244140625,-40.683998107910156 -33.73099899291992,-75.57099914550781 -4.229000091552734,-70.61799621582031 C25.27400016784668,-65.66500091552734 55.683998107910156,-9.32800006866455 63.87799835205078,21.44700050354004 C73.56400299072266,57.82400131225586 57.58100128173828,75.56999969482422 18.253000259399414,74.94000244140625 C-21.075000762939453,74.30999755859375 -67.94300079345703,34.48099899291992 -70.75299835205078,15.770999908447266 C-73.56300354003906,-2.938999891281128 -67.09400177001953,-16.216999053955078 -61.94200134277344,-25.285999298095703z"></path></g></g><g style="display: block;" transform="matrix(0.9268350601196289,0,0,0.8941229581832886,197.7072296142578,258.41094970703125)" opacity="1"><g opacity="1" transform="matrix(1,0,0,1,135.09300231933594,97.25399780273438)"><path fill="rgb(234,145,109)" fill-opacity="1" d=" M-103.14900207519531,26.343000411987305 C-103.14900207519531,26.343000411987305 -98.60600280761719,-13.194999694824219 -30.367000579833984,-21.281999588012695 C12.33899974822998,-26.343000411987305 34.58700180053711,-18.288000106811523 60.250999450683594,-14.458000183105469 C87.58899688720703,-10.378000259399414 103.69200134277344,-3.562999963760376 103.69200134277344,-3.562999963760376 C103.69200134277344,-3.562999963760376 88.49299621582031,-3.380000114440918 40.233001708984375,-4.415999889373779 C-8.027000427246094,-5.451000213623047 -41.066001892089844,-4.456999778747559 -54.084999084472656,-0.31299999356269836 C-67.10299682617188,3.8310000896453857 -103.14900207519531,26.343000411987305 -103.14900207519531,26.343000411987305z"></path></g><g opacity="1" transform="matrix(0.9999861121177673,0.00526813231408596,-0.00526813231408596,0.9999861121177673,-0.4813385009765625,-1.09771728515625)"><g opacity="1" transform="matrix(1,0,0,1,207.01800537109375,63.172000885009766)"><path fill="rgb(225,141,106)" fill-opacity="1" d=" M-37.12200164794922,21.52899932861328 C-37.12200164794922,21.52899932861328 -24.752960205078125,6.668038845062256 -15.536416053771973,-3.4830129146575928 C-6.693597316741943,-13.649805068969727 -0.4808701276779175,-29.617597579956055 9.823922157287598,-30.597246170043945 C26.199909210205078,-32.10706329345703 34.23481750488281,-18.697311401367188 35.70561218261719,-5.74240255355835 C37.482154846191406,7.212207794189453 32.68907928466797,35.236000061035156 19.93107795715332,35.95000076293945 C7.174077987670898,36.66299819946289 -37.12200164794922,21.52899932861328 -37.12200164794922,21.52899932861328z"></path></g><g opacity="1" transform="matrix(1,0,0,1,217.92599487304688,64.84100341796875)"><path fill="rgb(249,83,127)" fill-opacity="1" d=" M-34.00038146972656,29.063085556030273 C-34.00038146972656,29.063085556030273 -10.130638122558594,-0.45695745944976807 -4.288936138153076,-10.5552978515625 C1.5757020711898804,-20.656639099121094 8.462701797485352,-31.257020950317383 17.506467819213867,-29.33672332763672 C27.601638793945312,-27.185977935791016 33.211936950683594,-8.674574851989746 30.555702209472656,10.784255027770996 C27.814319610595703,30.147424697875977 11.956681251525879,33.62102127075195 11.956681251525879,33.62102127075195 C11.956681251525879,33.62102127075195 -15.519319534301758,33.500022888183594 -19.79231834411621,33.18001937866211 C-24.064319610595703,32.86001968383789 -34.00038146972656,29.063085556030273 -34.00038146972656,29.063085556030273z"></path><path stroke-linecap="butt" stroke-linejoin="miter" fill-opacity="0" stroke-miterlimit="10" stroke="rgb(186,45,92)" stroke-opacity="1" stroke-width="12.52" d=" M-34.00038146972656,29.063085556030273 C-34.00038146972656,29.063085556030273 -10.130638122558594,-0.45695745944976807 -4.288936138153076,-10.5552978515625 C1.5757020711898804,-20.656639099121094 8.462701797485352,-31.257020950317383 17.506467819213867,-29.33672332763672 C27.601638793945312,-27.185977935791016 33.211936950683594,-8.674574851989746 30.555702209472656,10.784255027770996 C27.814319610595703,30.147424697875977 11.956681251525879,33.62102127075195 11.956681251525879,33.62102127075195 C11.956681251525879,33.62102127075195 -15.519319534301758,33.500022888183594 -19.79231834411621,33.18001937866211 C-24.064319610595703,32.86001968383789 -34.00038146972656,29.063085556030273 -34.00038146972656,29.063085556030273z"></path></g><g opacity="1" transform="matrix(1,0,0,1,221.83700561523438,83.09700012207031)"><path stroke-linecap="round" stroke-linejoin="round" fill-opacity="0" stroke="rgb(186,45,92)" stroke-opacity="1" stroke-width="11.886" d=" M8.850500106811523,-11.567999839782715 C8.850500106811523,-11.567999839782715 4.940000057220459,-3.0369999408721924 1.3222825527191162,1.9597173929214478 C-3.0013914108276367,8.3892822265625 -10.481717109680176,12.599217414855957 -10.481717109680176,12.599217414855957"></path></g><g opacity="1" transform="matrix(1,0,0,1,220.94500732421875,62.57899856567383)"><path fill="rgb(249,197,219)" fill-opacity="1" d=" M-12.154816627502441,10.956718444824219 C-12.154816627502441,10.956718444824219 2.8551268577575684,-14.932647705078125 6.12412691116333,-14.660648345947266 C9.393126487731934,-14.38764762878418 10.676521301269531,1.2970986366271973 3.6002113819122314,9.640689849853516 C-3.6580140590667725,17.980520248413086 -12.154816627502441,10.956718444824219 -12.154816627502441,10.956718444824219z"></path></g></g><g opacity="1" transform="matrix(1,0,0,1,137.1490020751953,105.80699920654297)"><path stroke-linecap="round" stroke-linejoin="round" fill-opacity="0" stroke="rgb(147,74,37)" stroke-opacity="1" stroke-width="14.377" d=" M-101.20600128173828,20.413000106811523 C-101.20600128173828,20.413000106811523 -86.83100128173828,-5.156000137329102 -35.944000244140625,-12.842000007629395 C14.187999725341797,-20.413000106811523 37.39500045776367,-7.835000038146973 59.56999969482422,-5.659999847412109 C81.74400329589844,-3.4839999675750732 101.20600128173828,-5.710000038146973 101.20600128173828,-5.710000038146973"></path></g><g opacity="1" transform="matrix(1,0,0,1,168.48300170898438,144.76499938964844)"><path fill="rgb(229,146,112)" fill-opacity="1" d=" M-36.604000091552734,-19.07200050354004 C-36.604000091552734,-19.07200050354004 -11.78600025177002,-14.163000106811523 -4.552999973297119,-12.609000205993652 C9.11299991607666,-9.67199993133545 38.606998443603516,-9.899999618530273 38.606998443603516,-9.899999618530273 C38.606998443603516,-9.899999618530273 42.823001861572266,2.1050000190734863 33.19300079345703,7.76800012588501 C27.81599998474121,10.928999900817871 9.243000030517578,19.070999145507812 -7.432000160217285,16.586999893188477 C-24.107999801635742,14.104000091552734 -33.310001373291016,6.933000087738037 -38.066001892089844,0.367000013589859 C-42.823001861572266,-6.198999881744385 -36.604000091552734,-19.07200050354004 -36.604000091552734,-19.07200050354004z"></path></g></g><g style="display: block;" transform="matrix(0.9267812371253967,-0.00927858054637909,0.009665321558713913,0.8329330682754517,64.10708618164062,89.65174865722656)" opacity="1"><g opacity="1" transform="matrix(1,0,0,1,126.06400299072266,171.3459930419922)"><path stroke-linecap="butt" stroke-linejoin="miter" fill-opacity="0" stroke-miterlimit="10" stroke="rgb(232,145,110)" stroke-opacity="1" stroke-width="13.139" d=" M-45.06100082397461,-79.1050033569336 C-32.22700119018555,-86.13400268554688 -17.4950008392334,-90.12999725341797 -1.8300000429153442,-90.12999725341797 C47.948001861572266,-90.12999725341797 88.30000305175781,-49.77799987792969 88.30000305175781,0 C88.30000305175781,49.77799987792969 47.948001861572266,90.12999725341797 -1.8300000429153442,90.12999725341797 C-42.749000549316406,90.12999725341797 -77.2979965209961,62.862998962402344 -88.30000305175781,25.506999969482422"></path></g><g opacity="1" transform="matrix(1,0,0,1,327.135009765625,131.4239959716797)"><path stroke-linecap="butt" stroke-linejoin="miter" fill-opacity="0" stroke-miterlimit="10" stroke="rgb(232,145,110)" stroke-opacity="1" stroke-width="13.139" d=" M90.9739990234375,21.898000717163086 C83.85800170898438,65.38800048828125 46.10599899291992,98.57599639892578 0.6029999852180481,98.57599639892578 C-49.9739990234375,98.57599639892578 -90.9739990234375,57.57500076293945 -90.9739990234375,6.999000072479248 C-90.9739990234375,-43.577999114990234 -55.75600051879883,-98.57599639892578 -5.179999828338623,-98.57599639892578"></path></g><g opacity="1" transform="matrix(1,0,0,1,331.8680114746094,125.20600128173828)"><path stroke-linecap="butt" stroke-linejoin="miter" fill-opacity="0" stroke-miterlimit="10" stroke="rgb(72,88,114)" stroke-opacity="1" stroke-width="12.07" d=" M91.5770034790039,0 C91.5770034790039,50.57699966430664 50.57699966430664,91.5770034790039 0,91.5770034790039 C-50.57699966430664,91.5770034790039 -91.5770034790039,50.57699966430664 -91.5770034790039,0 C-91.5770034790039,-50.57699966430664 -50.57699966430664,-91.5770034790039 0,-91.5770034790039 C50.57699966430664,-91.5770034790039 91.5770034790039,-50.57699966430664 91.5770034790039,0z"></path></g><g opacity="1" transform="matrix(1,0,0,1,119.8280029296875,162.53500366210938)"><path stroke-linecap="butt" stroke-linejoin="miter" fill-opacity="0" stroke-miterlimit="10" stroke="rgb(72,88,114)" stroke-opacity="1" stroke-width="11.879" d=" M90.13099670410156,0 C90.13099670410156,49.77799987792969 49.77799987792969,90.12999725341797 0.0010000000474974513,90.12999725341797 C-49.777000427246094,90.12999725341797 -90.13099670410156,49.77799987792969 -90.13099670410156,0 C-90.13099670410156,-49.77799987792969 -49.777000427246094,-90.12999725341797 0.0010000000474974513,-90.12999725341797 C49.77799987792969,-90.12999725341797 90.13099670410156,-49.77799987792969 90.13099670410156,0z"></path></g><g opacity="1" transform="matrix(1,0,0,1,226.5,147.76100158691406)"><path stroke-linecap="butt" stroke-linejoin="miter" fill-opacity="0" stroke-miterlimit="10" stroke="rgb(72,88,114)" stroke-opacity="1" stroke-width="13.139" d=" M17.256000518798828,-0.367000013589859 C17.256000518798828,-0.367000013589859 9.545999526977539,-5.506999969482422 -1.8350000381469727,-3.6710000038146973 C-11.286999702453613,-2.1470000743865967 -17.2549991607666,5.506999969482422 -17.2549991607666,5.506999969482422"></path></g><g opacity="0.59" transform="matrix(1,0,0,1,58.487998962402344,177.92100524902344)"><path fill="rgb(255,255,255)" fill-opacity="1" d=" M9.622857093811035,-2.00600004196167 C18.445999145507812,9.505285263061523 23.377714157104492,25.83785629272461 30.272857666015625,36.27171325683594 C35.493141174316406,44.8849983215332 30.957714080810547,52.68685531616211 20.74557113647461,50.145713806152344 C5.655714511871338,46.768714904785156 -6.561999797821045,34.840858459472656 -9.303285598754883,7.4679999351501465 C-10.109143257141113,-8.305571556091309 5.621285915374756,-7.102142810821533 9.622857093811035,-2.00600004196167z"></path></g><g opacity="0.59" transform="matrix(1,0,0,1,268.32501220703125,149.03900146484375)"><path fill="rgb(255,255,255)" fill-opacity="1" d=" M5.599666595458984,6.545333385467529 C13.140999794006348,11.517000198364258 24.174999237060547,24.62266731262207 29.579334259033203,28.727333068847656 C38.36199951171875,35.04166793823242 40.34199905395508,40.619667053222656 33.83433151245117,45.32666778564453 C28.308666229248047,49.02299880981445 5.548999786376953,38.19900131225586 -2.4159998893737793,21.733999252319336 C-8.944999694824219,8.234999656677246 2.075666666030884,4.269333362579346 5.599666595458984,6.545333385467529z"></path></g></g><g style="display: block;" transform="matrix(0.9266469478607178,-0.018398437649011612,0.01844349317252636,0.915103018283844,76.321044921875,299.72320556640625)" opacity="1"><g opacity="1" transform="matrix(1,0,0,1,64.38300323486328,71.28800201416016)"><path fill="rgb(243,170,140)" fill-opacity="1" d=" M-28.555999755859375,-26.302000045776367 C-23.790000915527344,-35.76599884033203 -11.446999549865723,-39.5880012512207 -2.1649999618530273,-33.9900016784668 C-2.049999952316284,-33.92100143432617 -1.934999942779541,-33.85100173950195 -1.8200000524520874,-33.77899932861328 C9.692999839782715,-26.597000122070312 20.9060001373291,-6.86899995803833 26.108999252319336,8.762999534606934 C31.312000274658203,24.395000457763672 32.68299865722656,33.70000076293945 27.566999435424805,36.64400100708008 C22.451000213623047,39.5880012512207 -3.513000011444092,25.940000534057617 -18.097999572753906,13.947999954223633 C-32.68299865722656,1.9570000171661377 -31.695999145507812,-17.10700035095215 -29.96500015258789,-22.857999801635742 C-29.6200008392334,-24.0049991607666 -29.125999450683594,-25.17099952697754 -28.555999755859375,-26.302000045776367z"></path></g><g opacity="1" transform="matrix(1,0,0,1,64.38300323486328,71.28800201416016)"><path stroke-linecap="butt" stroke-linejoin="miter" fill-opacity="0" stroke-miterlimit="10" stroke="rgb(181,95,48)" stroke-opacity="1" stroke-width="12.68" d=" M-28.555999755859375,-26.302000045776367 C-23.790000915527344,-35.76599884033203 -11.446999549865723,-39.5880012512207 -2.1649999618530273,-33.9900016784668 C-2.049999952316284,-33.92100143432617 -1.934999942779541,-33.85100173950195 -1.8200000524520874,-33.77899932861328 C9.692999839782715,-26.597000122070312 20.9060001373291,-6.86899995803833 26.108999252319336,8.762999534606934 C31.312000274658203,24.395000457763672 32.68299865722656,33.70000076293945 27.566999435424805,36.64400100708008 C22.451000213623047,39.5880012512207 -3.513000011444092,25.940000534057617 -18.097999572753906,13.947999954223633 C-32.68299865722656,1.9570000171661377 -31.695999145507812,-17.10700035095215 -29.96500015258789,-22.857999801635742 C-29.6200008392334,-24.0049991607666 -29.125999450683594,-25.17099952697754 -28.555999755859375,-26.302000045776367z"></path></g></g><g style="display: block;" transform="matrix(1,0,0,1,269,240.5)" opacity="1"><g opacity="1" transform="matrix(1,0,0,1,0,0)"><path fill="rgb(120,187,206)" fill-opacity="1" d=" M-115,222 C-164,222 -229.8142852783203,234.44285583496094 -229.8142852783203,234.44285583496094 C-229.8142852783203,234.44285583496094 -232.17100524902344,235.68499755859375 -238.5,242.5 C-245,249.5 -250,252 -250,252 C-250,252 -168.38600158691406,248.0959930419922 -95.47100067138672,249.49400329589844 C-72.64900207519531,249.93099975585938 -51.97800064086914,251.10000610351562 -33.757999420166016,251.4429931640625 C-22.179000854492188,251.66099548339844 -12.845999717712402,255.36199951171875 -4.974999904632568,256.8680114746094 C1.4609999656677246,258.0989990234375 8.916999816894531,256.9490051269531 12,257 C18.46500015258789,257.10699462890625 21.391000747680664,254.28199768066406 28.215999603271484,253.2689971923828 C36.41299819946289,252.052001953125 48.57400131225586,252.56300354003906 57.0880012512207,252.08999633789062 C76.61000061035156,251.0050048828125 101.14643096923828,252.2790069580078 120.42042541503906,252.718994140625 C184.25442504882812,254.17599487304688 227.91543579101562,256.4251403808594 225.971435546875,254.1571502685547 C224.68142700195312,252.6521453857422 225.42599487304688,252.3780059814453 222.59800720214844,248.61900329589844 C219.5,244.5 218.5,238 218.5,238 C218.5,238 144,223 103.5,224 C79.21700286865234,224.60000610351562 39.92300033569336,228.14700317382812 18.756000518798828,235.2969970703125 C4.619999885559082,240.07200622558594 3,249.5 3,249.5 C3,249.5 5,245.5 -12.539999961853027,238.093994140625 C-36.33300018310547,228.04800415039062 -84.63400268554688,222 -115,222z"></path><path stroke-linecap="round" stroke-linejoin="round" fill-opacity="0" stroke="rgb(56,116,165)" stroke-opacity="1" stroke-width="11" d=" M-115,222 C-164,222 -229.8142852783203,234.44285583496094 -229.8142852783203,234.44285583496094 C-229.8142852783203,234.44285583496094 -232.17100524902344,235.68499755859375 -238.5,242.5 C-245,249.5 -250,252 -250,252 C-250,252 -168.38600158691406,248.0959930419922 -95.47100067138672,249.49400329589844 C-72.64900207519531,249.93099975585938 -51.97800064086914,251.10000610351562 -33.757999420166016,251.4429931640625 C-22.179000854492188,251.66099548339844 -12.845999717712402,255.36199951171875 -4.974999904632568,256.8680114746094 C1.4609999656677246,258.0989990234375 8.916999816894531,256.9490051269531 12,257 C18.46500015258789,257.10699462890625 21.391000747680664,254.28199768066406 28.215999603271484,253.2689971923828 C36.41299819946289,252.052001953125 48.57400131225586,252.56300354003906 57.0880012512207,252.08999633789062 C76.61000061035156,251.0050048828125 101.14643096923828,252.2790069580078 120.42042541503906,252.718994140625 C184.25442504882812,254.17599487304688 227.91543579101562,256.4251403808594 225.971435546875,254.1571502685547 C224.68142700195312,252.6521453857422 225.42599487304688,252.3780059814453 222.59800720214844,248.61900329589844 C219.5,244.5 218.5,238 218.5,238 C218.5,238 144,223 103.5,224 C79.21700286865234,224.60000610351562 39.92300033569336,228.14700317382812 18.756000518798828,235.2969970703125 C4.619999885559082,240.07200622558594 3,249.5 3,249.5 C3,249.5 5,245.5 -12.539999961853027,238.093994140625 C-36.33300018310547,228.04800415039062 -84.63400268554688,222 -115,222z"></path></g><g opacity="1" transform="matrix(1,0,0,1,0,-8)"><path fill="rgb(242,251,253)" fill-opacity="1" d=" M-191.2949676513672,216.28057861328125 C-191.2949676513672,216.28057861328125 -235.30935668945312,244.47122192382812 -235.30935668945312,244.47122192382812 C-235.30935668945312,244.47122192382812 -187.17625427246094,239.97122192382812 -100.20225524902344,238.8832244873047 C-67.71625518798828,238.47622680664062 -35.80712890625,241.6116180419922 -19.229129791259766,247.24560546875 C-2.3381295204162598,252.98561096191406 1.8381295204162598,261.82373046875 1.8381295204162598,261.82373046875 C1.8381295204162598,261.82373046875 -7.848920822143555,218.3309326171875 -7.848920822143555,218.3309326171875 C-7.848920822143555,218.3309326171875 -46.6762580871582,206.0342254638672 -89.66326141357422,206.0062255859375 C-143.67625427246094,205.97122192382812 -191.2949676513672,216.28057861328125 -191.2949676513672,216.28057861328125z"></path><path stroke-linecap="round" stroke-linejoin="round" fill-opacity="0" stroke="rgb(56,116,165)" stroke-opacity="1" stroke-width="11" d=" M-191.2949676513672,216.28057861328125 C-191.2949676513672,216.28057861328125 -235.30935668945312,244.47122192382812 -235.30935668945312,244.47122192382812 C-235.30935668945312,244.47122192382812 -187.17625427246094,239.97122192382812 -100.20225524902344,238.8832244873047 C-67.71625518798828,238.47622680664062 -35.80712890625,241.6116180419922 -19.229129791259766,247.24560546875 C-2.3381295204162598,252.98561096191406 1.8381295204162598,261.82373046875 1.8381295204162598,261.82373046875 C1.8381295204162598,261.82373046875 -7.848920822143555,218.3309326171875 -7.848920822143555,218.3309326171875 C-7.848920822143555,218.3309326171875 -46.6762580871582,206.0342254638672 -89.66326141357422,206.0062255859375 C-143.67625427246094,205.97122192382812 -191.2949676513672,216.28057861328125 -191.2949676513672,216.28057861328125z"></path></g><g opacity="1" transform="matrix(1,0,0,1,0,-8)"><path fill="rgb(242,251,253)" fill-opacity="1" d=" M76.5,205.5 C26.5,208.5 -5.5,217.5 -5.5,217.5 C-5.5,217.5 1.9470000267028809,243.93699645996094 1.9470000267028809,243.93699645996094 C1.9470000267028809,243.93699645996094 3,259.5 3,259.5 C3,259.5 11.5,250.5 32.819000244140625,244.54600524902344 C51.15399932861328,239.4250030517578 80.8759994506836,239 100.5,239 C140.5,239 220,246.5 220,246.5 C220,246.5 167.5,212.5 167.5,212.5 C167.5,212.5 112.43499755859375,203.343994140625 76.5,205.5z"></path><path stroke-linecap="round" stroke-linejoin="round" fill-opacity="0" stroke="rgb(56,116,165)" stroke-opacity="1" stroke-width="11" d=" M76.5,205.5 C26.5,208.5 -5.5,217.5 -5.5,217.5 C-5.5,217.5 1.9470000267028809,243.93699645996094 1.9470000267028809,243.93699645996094 C1.9470000267028809,243.93699645996094 3,259.5 3,259.5 C3,259.5 11.5,250.5 32.819000244140625,244.54600524902344 C51.15399932861328,239.4250030517578 80.8759994506836,239 100.5,239 C140.5,239 220,246.5 220,246.5 C220,246.5 167.5,212.5 167.5,212.5 C167.5,212.5 112.43499755859375,203.343994140625 76.5,205.5z"></path></g><g opacity="1" transform="matrix(1,0,0,1,0,-10.5)"><path fill="rgb(81,35,49)" fill-opacity="1" d=" M-250.5,263 C-250.5,263 -189.00100708007812,263.2560119628906 -189.00100708007812,263.2560119628906 C-189.00100708007812,263.2560119628906 -91.5,263.6610107421875 -91.5,263.6610107421875 C-91.5,263.6610107421875 -56.99300003051758,263.80499267578125 -56.99300003051758,263.80499267578125 C-56.99300003051758,263.80499267578125 -19.996000289916992,263.9580078125 -19.996000289916992,263.9580078125 C-19.996000289916992,263.9580078125 -14.206000328063965,264.5559997558594 -11.5,266.5 C-9.46500015258789,267.9620056152344 -12.52299976348877,266.7980041503906 -9.5,271.5 C-5,278.5 10.480999946594238,280.5190124511719 17,274 C21.5,269.5 18.450000762939453,266.84600830078125 20.5,265 C22.770999908447266,262.9549865722656 31.707000732421875,263.60400390625 35.03799819946289,263.6579895019531 C56.51599884033203,264.00799560546875 103.34100341796875,264.343994140625 136.031005859375,264.6470031738281 C176.23199462890625,265.0190124511719 228.11700439453125,266.510009765625 234,267"></path><path stroke-linecap="round" stroke-linejoin="bevel" fill-opacity="0" stroke="rgb(126,9,31)" stroke-opacity="1" stroke-width="11" d=" M-250.5,263 C-250.5,263 -189.00100708007812,263.2560119628906 -189.00100708007812,263.2560119628906 C-189.00100708007812,263.2560119628906 -91.5,263.6610107421875 -91.5,263.6610107421875 C-91.5,263.6610107421875 -56.99300003051758,263.80499267578125 -56.99300003051758,263.80499267578125 C-56.99300003051758,263.80499267578125 -19.996000289916992,263.9580078125 -19.996000289916992,263.9580078125 C-19.996000289916992,263.9580078125 -14.206000328063965,264.5559997558594 -11.5,266.5 C-9.46500015258789,267.9620056152344 -12.52299976348877,266.7980041503906 -9.5,271.5 C-5,278.5 10.480999946594238,280.5190124511719 17,274 C21.5,269.5 18.450000762939453,266.84600830078125 20.5,265 C22.770999908447266,262.9549865722656 31.707000732421875,263.60400390625 35.03799819946289,263.6579895019531 C56.51599884033203,264.00799560546875 103.34100341796875,264.343994140625 136.031005859375,264.6470031738281 C176.23199462890625,265.0190124511719 228.11700439453125,266.510009765625 234,267"></path></g><g opacity="1" transform="matrix(1,0,0,1,0,0)"><path stroke-linecap="round" stroke-linejoin="round" fill-opacity="0" stroke="rgb(167,187,219)" stroke-opacity="1" stroke-width="8" d=" M20.5,223 C20.5,223 62.5,213 95,213 C127.5,213 165,218.5 165,218.5"></path></g><g opacity="1" transform="matrix(1,0,0,1,0,0)"><path stroke-linecap="round" stroke-linejoin="round" fill-opacity="0" stroke="rgb(177,195,226)" stroke-opacity="0.85" stroke-width="8" d=" M-21.85714340209961,223.45713806152344 C-21.85714340209961,223.45713806152344 -56.20000076293945,215.42857360839844 -89.69999694824219,214.42857360839844 C-123.19999694824219,213.42857360839844 -172,219.92857360839844 -172,219.92857360839844"></path></g><g opacity="1" transform="matrix(1,0,0,1,0,0)"><path fill="rgb(127,9,32)" fill-opacity="1" d=" M-27.5,254 C-36.5,253 -256.5,254 -256.5,254 C-256.5,254 -258,265 -253.5,265 C-249,265 -79,264 -59,263 C-39,262 -12,263 -12,263 C-12,263 -18.5,255 -27.5,254z"></path></g><g opacity="1" transform="matrix(1,0,0,1,0,0)"><path fill="rgb(127,9,32)" fill-opacity="1" d=" M27,257.25 C22.75,257.75 22,263.5 22,263.5 C22,263.5 27,263 27,263 C27,263 113.5,264.5 142,264.5 C170.5,264.5 230.9340057373047,267.4570007324219 234.75,266.75 C241.5,265.5 238.25,256 238.25,256 C238.25,256 31.25,256.75 27,257.25z"></path></g></g><g style="display: block;" transform="matrix(0.9266469478607178,-0.018398437649011612,0.01844349317252636,0.915103018283844,-1.99560546875,207.990966796875)" opacity="1"><g opacity="1" transform="matrix(1,0,0,1,37.858001708984375,40.80799865722656)"><path fill="rgb(211,26,61)" fill-opacity="1" d=" M14.793999671936035,9.706000328063965 C14.793999671936035,9.706000328063965 2.2899999618530273,-9.427000045776367 -0.746999979019165,-13.585000038146973 C-3.7839999198913574,-17.743000030517578 -9.1899995803833,-14.428999900817871 -10.82699966430664,-12.156999588012695 C-12.46399974822998,-9.88599967956543 -14.793999671936035,-9.04699993133545 -10.229999542236328,-1.0260000228881836 C-5.666999816894531,6.994999885559082 1.2419999837875366,17.743000030517578 1.2419999837875366,17.743000030517578 C1.2419999837875366,17.743000030517578 14.793999671936035,9.706000328063965 14.793999671936035,9.706000328063965z"></path></g><g opacity="1" transform="matrix(1,0,0,1,37.858001708984375,40.80799865722656)"><path stroke-linecap="butt" stroke-linejoin="miter" fill-opacity="0" stroke-miterlimit="10" stroke="rgb(135,14,49)" stroke-opacity="1" stroke-width="9.226" d=" M14.793999671936035,9.706000328063965 C14.793999671936035,9.706000328063965 2.2899999618530273,-9.427000045776367 -0.746999979019165,-13.585000038146973 C-3.7839999198913574,-17.743000030517578 -9.1899995803833,-14.428999900817871 -10.82699966430664,-12.156999588012695 C-12.46399974822998,-9.88599967956543 -14.793999671936035,-9.04699993133545 -10.229999542236328,-1.0260000228881836 C-5.666999816894531,6.994999885559082 1.2419999837875366,17.743000030517578 1.2419999837875366,17.743000030517578 C1.2419999837875366,17.743000030517578 14.793999671936035,9.706000328063965 14.793999671936035,9.706000328063965z"></path></g><g opacity="1" transform="matrix(1,0,0,1,105.51100158691406,154.04600524902344)"><path fill="rgb(211,26,61)" fill-opacity="1" d=" M70.89399719238281,89.4260025024414 C70.89399719238281,89.4260025024414 -16.708999633789062,-55.611000061035156 -28.95599937438965,-76.21800231933594 C-31.9060001373291,-81.18199920654297 -35.624000549316406,-92.10800170898438 -37.13100051879883,-96.0260009765625 C-41.380001068115234,-107.0719985961914 -41.78799819946289,-112.1500015258789 -51.308998107910156,-109.87000274658203 C-61.55500030517578,-107.41600036621094 -77.01599884033203,-93.99400329589844 -75.64299774169922,-88.06999969482422 C-74.38400268554688,-82.63999938964844 -68.56700134277344,-77.44200134277344 -63.70600128173828,-72.93599700927734 C-58.845001220703125,-68.42900085449219 -57.13100051879883,-66.63700103759766 -52.652000427246094,-60.28300094604492 C-49.176998138427734,-55.35499954223633 47.48099899291992,92.73100280761719 52.08300018310547,98.87899780273438 C56.68600082397461,105.0270004272461 64.35399627685547,112.1500015258789 71.55500030517578,106.83699798583984 C77.01499938964844,102.80999755859375 70.89399719238281,89.4260025024414 70.89399719238281,89.4260025024414z"></path></g><g opacity="1" transform="matrix(1,0,0,1,105.51100158691406,154.04600524902344)"><path stroke-linecap="butt" stroke-linejoin="miter" fill-opacity="0" stroke-miterlimit="10" stroke="rgb(124,17,47)" stroke-opacity="1" stroke-width="9.226" d=" M70.89399719238281,89.4260025024414 C70.89399719238281,89.4260025024414 -16.708999633789062,-55.611000061035156 -28.95599937438965,-76.21800231933594 C-31.9060001373291,-81.18199920654297 -35.624000549316406,-92.10800170898438 -37.13100051879883,-96.0260009765625 C-41.380001068115234,-107.0719985961914 -41.78799819946289,-112.1500015258789 -51.308998107910156,-109.87000274658203 C-61.55500030517578,-107.41600036621094 -77.01599884033203,-93.99400329589844 -75.64299774169922,-88.06999969482422 C-74.38400268554688,-82.63999938964844 -68.56700134277344,-77.44200134277344 -63.70600128173828,-72.93599700927734 C-58.845001220703125,-68.42900085449219 -57.13100051879883,-66.63700103759766 -52.652000427246094,-60.28300094604492 C-49.176998138427734,-55.35499954223633 47.48099899291992,92.73100280761719 52.08300018310547,98.87899780273438 C56.68600082397461,105.0270004272461 64.35399627685547,112.1500015258789 71.55500030517578,106.83699798583984 C77.01499938964844,102.80999755859375 70.89399719238281,89.4260025024414 70.89399719238281,89.4260025024414z"></path></g><g opacity="1" transform="matrix(1,0,0,1,178.9429931640625,265.2770080566406)"><path fill="rgb(211,26,61)" fill-opacity="1" d=" M-3.118000030517578,-4.675000190734863 C-3.118000030517578,-4.675000190734863 3.118000030517578,4.675000190734863 3.118000030517578,4.675000190734863"></path></g><g opacity="1" transform="matrix(1,0,0,1,178.9429931640625,265.2770080566406)"><path stroke-linecap="round" stroke-linejoin="round" fill-opacity="0" stroke="rgb(147,17,48)" stroke-opacity="1" stroke-width="9.226" d=" M-3.118000030517578,-4.675000190734863 C-3.118000030517578,-4.675000190734863 3.118000030517578,4.675000190734863 3.118000030517578,4.675000190734863"></path></g><g opacity="1" transform="matrix(1,0,0,1,47.87900161743164,114.36900329589844)"><path stroke-linecap="butt" stroke-linejoin="miter" fill-opacity="0" stroke-miterlimit="10" stroke="rgb(130,11,45)" stroke-opacity="1" stroke-width="9.226" d=" M-9.505000114440918,-30.427000045776367 C-9.505000114440918,-30.427000045776367 -10.975000381469727,-28.099000930786133 -13.958999633789062,-23.990999221801758 C-16.94300079345703,-19.882999420166016 -11.34000015258789,-12.04699993133545 -6.284999847412109,-4.166999816894531 C-1.2300000190734863,3.7130000591278076 16.94300079345703,30.427000045776367 16.94300079345703,30.427000045776367"></path></g><g opacity="1" transform="matrix(1,0,0,1,0,0)"><path stroke-linecap="round" stroke-linejoin="round" fill-opacity="0" stroke="rgb(241,176,183)" stroke-opacity="0.6" stroke-width="9.226" d=" M59.084999084472656,67.23600006103516 C59.084999084472656,67.23600006103516 68.99600219726562,85.13999938964844 72.30500030517578,91.65399932861328 C75.61399841308594,98.16799926757812 89.34100341796875,118.76499938964844 89.34100341796875,118.76499938964844"></path></g></g><g style="display: block;" transform="matrix(0.9266469478607178,-0.018398437649011612,0.01844349317252636,0.915103018283844,10.073944091796875,316.20697021484375)" opacity="1"><g opacity="1" transform="matrix(1,0,0,1,94.27799987792969,90.81400299072266)"><path fill="rgb(252,213,184)" fill-opacity="1" d=" M-46.952999114990234,-34.20100021362305 C-46.952999114990234,-34.20100021362305 -45.47200012207031,-53.85499954223633 -25.417999267578125,-56.48500061035156 C-5.363999843597412,-59.11399841308594 21.45199966430664,-51 39.37900161743164,-34.34400177001953 C57.305999755859375,-17.687000274658203 62.577999114990234,0.11299999803304672 61.4379997253418,5.630000114440918 C59.2599983215332,16.174999237060547 55.058998107910156,18.441999435424805 52.196998596191406,22.256999969482422 C51.784000396728516,22.808000564575195 51.237998962402344,29.542999267578125 49.71900177001953,31.481000900268555 C45.72700119018555,36.57500076293945 43.16600036621094,37.36899948120117 42.560001373291016,37.95199966430664 C40.417999267578125,40.013999938964844 40.99700164794922,41.02299880981445 37.25199890136719,43.792999267578125 C36.1510009765625,44.606998443603516 34.981998443603516,48.369998931884766 34.1619987487793,49.37900161743164 C30.582000732421875,53.78499984741211 24.111000061035156,54.33599853515625 24.111000061035156,54.33599853515625 C24.111000061035156,54.33599853515625 23.2189998626709,54.24599838256836 20.190000534057617,55.38100051879883 C13.12399959564209,58.02899932861328 10.821000099182129,59.11399841308594 -7.507999897003174,59.016998291015625 C-23.35099983215332,58.93199920654297 -46.40999984741211,55.99300003051758 -50.53300094604492,47.98500061035156 C-54.18299865722656,40.895999908447266 -50.64699935913086,30.874000549316406 -50.64699935913086,30.874000549316406 C-50.64699935913086,30.874000549316406 -62.577999114990234,25.51300048828125 -62.43199920654297,14.086000442504883 C-62.29999923706055,3.802999973297119 -55.90299987792969,-0.20999999344348907 -55.90299987792969,-0.20999999344348907 C-55.90299987792969,-0.20999999344348907 -62.327999114990234,-11.996999740600586 -60.638999938964844,-17.839000701904297 C-58.393001556396484,-25.611000061035156 -46.952999114990234,-34.20100021362305 -46.952999114990234,-34.20100021362305z"></path><path stroke-linecap="round" stroke-linejoin="round" fill-opacity="0" stroke="rgb(181,95,48)" stroke-opacity="1" stroke-width="12.68" d=" M-46.952999114990234,-34.20100021362305 C-46.952999114990234,-34.20100021362305 -45.47200012207031,-53.85499954223633 -25.417999267578125,-56.48500061035156 C-5.363999843597412,-59.11399841308594 21.45199966430664,-51 39.37900161743164,-34.34400177001953 C57.305999755859375,-17.687000274658203 62.577999114990234,0.11299999803304672 61.4379997253418,5.630000114440918 C59.2599983215332,16.174999237060547 55.058998107910156,18.441999435424805 52.196998596191406,22.256999969482422 C51.784000396728516,22.808000564575195 51.237998962402344,29.542999267578125 49.71900177001953,31.481000900268555 C45.72700119018555,36.57500076293945 43.16600036621094,37.36899948120117 42.560001373291016,37.95199966430664 C40.417999267578125,40.013999938964844 40.99700164794922,41.02299880981445 37.25199890136719,43.792999267578125 C36.1510009765625,44.606998443603516 34.981998443603516,48.369998931884766 34.1619987487793,49.37900161743164 C30.582000732421875,53.78499984741211 24.111000061035156,54.33599853515625 24.111000061035156,54.33599853515625 C24.111000061035156,54.33599853515625 23.2189998626709,54.24599838256836 20.190000534057617,55.38100051879883 C13.12399959564209,58.02899932861328 10.821000099182129,59.11399841308594 -7.507999897003174,59.016998291015625 C-23.35099983215332,58.93199920654297 -46.40999984741211,55.99300003051758 -50.53300094604492,47.98500061035156 C-54.18299865722656,40.895999908447266 -50.64699935913086,30.874000549316406 -50.64699935913086,30.874000549316406 C-50.64699935913086,30.874000549316406 -62.577999114990234,25.51300048828125 -62.43199920654297,14.086000442504883 C-62.29999923706055,3.802999973297119 -55.90299987792969,-0.20999999344348907 -55.90299987792969,-0.20999999344348907 C-55.90299987792969,-0.20999999344348907 -62.327999114990234,-11.996999740600586 -60.638999938964844,-17.839000701904297 C-58.393001556396484,-25.611000061035156 -46.952999114990234,-34.20100021362305 -46.952999114990234,-34.20100021362305z"></path></g><g opacity="1" transform="matrix(1,0,0,1,0,0)"><path fill="rgb(243,170,139)" fill-opacity="1" d=" M94.19999694824219,84.11599731445312 C92.49199676513672,87.89199829101562 96.50700378417969,104.84500122070312 83.13400268554688,120.36199951171875 C76.80899810791016,127.70099639892578 55.027000427246094,137.76199340820312 55.027000427246094,137.76199340820312 C55.027000427246094,137.76199340820312 65.82099914550781,142.33200073242188 83.73200225830078,144.86700439453125 C101.64299774169922,147.40199279785156 114.8740005493164,138.95799255371094 119.78199768066406,138.51199340820312 C124.69000244140625,138.0659942626953 126.08300018310547,122.85399627685547 131.51300048828125,123.50700378417969 C136.9429931640625,124.16000366210938 146.38800048828125,114.5510025024414 137.8350067138672,106.76000213623047 C129.28199768066406,98.96900177001953 95.90799713134766,80.33999633789062 94.19999694824219,84.11599731445312z"></path></g><g opacity="1" transform="matrix(1,0,0,1,128.20899963378906,81.50599670410156)"><path fill="rgb(252,213,184)" fill-opacity="1" d=" M-49.45100021362305,-13.812999725341797 C-49.45100021362305,-13.812999725341797 -17.89699935913086,1.4919999837875366 -1.871999979019165,12.439000129699707 C14.152000427246094,23.386999130249023 29.341999053955078,38.814998626708984 39.395999908447266,32.53799819946289 C49.45100021362305,26.26099967956543 40.57400131225586,9.255000114440918 25.260000228881836,-7.821000099182129 C9.944999694824219,-24.895999908447266 -5.997000217437744,-34.744998931884766 -17.996999740600586,-38.814998626708984"></path></g><g opacity="1" transform="matrix(1,0,0,1,124.28500366210938,78.41600036621094)"><path stroke-linecap="round" stroke-linejoin="round" fill-opacity="0" stroke="rgb(181,95,48)" stroke-opacity="1" stroke-width="12.68" d=" M-53.375,-14 C-53.375,-14 -13.972999572753906,4.581999778747559 2.0510001182556152,15.529000282287598 C18.075000762939453,26.476999282836914 33.26599884033203,41.904998779296875 43.32099914550781,35.62799835205078 C53.375,29.35099983215332 44.49800109863281,12.345000267028809 29.183000564575195,-4.730000019073486 C13.868000030517578,-21.805999755859375 -15.401000022888184,-37.83399963378906 -27.400999069213867,-41.904998779296875"></path></g><g opacity="1" transform="matrix(1,0,0,1,100.90499877929688,113.75900268554688)"><path stroke-linecap="round" stroke-linejoin="round" fill-opacity="0" stroke="rgb(181,95,48)" stroke-opacity="1" stroke-width="12.68" d=" M-30.288999557495117,-16.797000885009766 C-30.288999557495117,-16.797000885009766 -1.6519999504089355,-1.3769999742507935 8.260000228881836,3.5789999961853027 C18.17300033569336,8.53499984741211 30.288999557495117,16.79599952697754 30.288999557495117,16.79599952697754"></path></g><g opacity="1" transform="matrix(1,0,0,1,92.00199890136719,134.593994140625)"><path stroke-linecap="round" stroke-linejoin="round" fill-opacity="0" stroke="rgb(181,95,48)" stroke-opacity="1" stroke-width="12.68" d=" M-24.138999938964844,-10.095999717712402 C-24.138999938964844,-10.095999717712402 -9.086999893188477,-1.6519999504089355 1.3760000467300415,2.753999948501587 C11.83899974822998,7.158999919891357 24.138999938964844,10.095999717712402 24.138999938964844,10.095999717712402"></path></g></g></g></g></svg>