<svg xmlns="http://www.w3.org/2000/svg" xmlns:xlink="http://www.w3.org/1999/xlink" viewBox="0 0 512 512" width="512" height="512" style="width: 100%; height: 100%; transform: translate3d(0,0,0); content-visibility: visible;" preserveAspectRatio="xMidYMid meet"><defs><clipPath id="__lottie_element_2"><rect width="512" height="512" x="0" y="0"></rect></clipPath><radialGradient id="__lottie_element_20" spreadMethod="pad" gradientUnits="userSpaceOnUse" cx="-63" cy="-168" r="290.33335047830224" fx="-63" fy="-168"><stop offset="0%" stop-color="rgb(255,235,220)"></stop><stop offset="50%" stop-color="rgb(248,208,177)"></stop><stop offset="100%" stop-color="rgb(240,180,134)"></stop></radialGradient></defs><g clip-path="url(#__lottie_element_2)"><g style="display: block;" transform="matrix(1,0,0,1,256,255.99998474121094)" opacity="1"><g opacity="1" transform="matrix(1,0,0,1,0,0)"><path fill="rgb(247,195,159)" fill-opacity="1" d=" M-107.37999725341797,86.41899871826172 C-107.37999725341797,86.41899871826172 -149.27200317382812,150.68899536132812 -159.99600219726562,173.8300018310547 C-170.72000122070312,196.9709930419922 -170.718994140625,196.9709930419922 -170.718994140625,196.9709930419922 C-170.718994140625,196.9709930419922 -8.263999938964844,237.42999267578125 70.8010025024414,230.74600219726562 C149.86599731445312,224.06199645996094 164.54100036621094,198.10000610351562 164.54100036621094,198.10000610351562 C164.54100036621094,198.10000610351562 137.44900512695312,124.72699737548828 126.16100311279297,108.9229965209961 C114.87300109863281,93.11900329589844 109.31700134277344,87.88400268554688 109.31700134277344,87.88400268554688 C109.31700134277344,87.88400268554688 -107.37999725341797,86.41899871826172 -107.37999725341797,86.41899871826172z"></path></g><g opacity="1" transform="matrix(1,0,0,1,0,0)"><path fill="rgb(229,157,108)" fill-opacity="1" d=" M87.78099822998047,131.49899291992188 C87.78099822998047,131.49899291992188 152.58599853515625,244.66900634765625 -24.53700065612793,209.9530029296875 C-194.2740020751953,176.68499755859375 -105.81199645996094,122.46900177001953 -105.81199645996094,122.46900177001953 C-105.81199645996094,122.46900177001953 -117.66500091552734,111.74500274658203 -117.66500091552734,111.74500274658203 C-117.66500091552734,111.74500274658203 -183.1060028076172,166.68899536132812 -168.99600219726562,189.8300018310547 C-154.88600158691406,212.9709930419922 -60.095001220703125,234.2220001220703 31.90399932861328,234.2220001220703 C123.90299987792969,234.2220001220703 167.2530059814453,199.03500366210938 167.2530059814453,199.03500366210938 C167.2530059814453,199.03500366210938 125.59600067138672,102.71399688720703 125.59600067138672,102.71399688720703 C125.59600067138672,102.71399688720703 87.78099822998047,131.49899291992188 87.78099822998047,131.49899291992188z"></path></g><g opacity="1" transform="matrix(1,0,0,1,0,0)"><path stroke-linecap="round" stroke-linejoin="round" fill-opacity="0" stroke="rgb(184,99,72)" stroke-opacity="1" stroke-width="11.745" d=" M-175.5,194 C-175.5,194 -127.5,96 -106,87 C-84.5,78 97.5,85.5 97.5,85.5 C97.5,85.5 135.5,105.5 167,199.5"></path></g></g><g style="display: block;" transform="matrix(1,0,0,1,256,255.99998474121094)" opacity="1"><g opacity="1" transform="matrix(1,0,0,1,0,0)"><path fill="rgb(247,195,159)" fill-opacity="1" d=" M-126.94499969482422,69.69000244140625 C-126.94499969482422,69.69000244140625 -145.71400451660156,67.15299987792969 -166.7830047607422,84.30500030517578 C-181.17300415039062,96.01899719238281 -226.0330047607422,147.77099609375 -208.25799560546875,177.00599670410156 C-190.48300170898438,206.24099731445312 -168.63499450683594,212.0030059814453 -165.4949951171875,205.91000366210938 C-162.35499572753906,199.81700134277344 -157.6269989013672,158.64599609375 -144.61599731445312,140.62100219726562 C-131.60499572753906,122.59600067138672 -102.75800323486328,97.57499694824219 -107.37999725341797,86.41899871826172 C-112.00199890136719,75.26300048828125 -126.94499969482422,69.69000244140625 -126.94499969482422,69.69000244140625z"></path><path stroke-linecap="round" stroke-linejoin="round" fill-opacity="0" stroke="rgb(184,99,72)" stroke-opacity="1" stroke-width="11.745" d=" M-126.94499969482422,69.69000244140625 C-126.94499969482422,69.69000244140625 -145.71400451660156,67.15299987792969 -166.7830047607422,84.30500030517578 C-181.17300415039062,96.01899719238281 -226.0330047607422,147.77099609375 -208.25799560546875,177.00599670410156 C-190.48300170898438,206.24099731445312 -168.63499450683594,212.0030059814453 -165.4949951171875,205.91000366210938 C-162.35499572753906,199.81700134277344 -157.6269989013672,158.64599609375 -144.61599731445312,140.62100219726562 C-131.60499572753906,122.59600067138672 -102.75800323486328,97.57499694824219 -107.37999725341797,86.41899871826172 C-112.00199890136719,75.26300048828125 -126.94499969482422,69.69000244140625 -126.94499969482422,69.69000244140625z"></path></g></g><g style="display: block;" transform="matrix(1,0,0,1,258,255.99998474121094)" opacity="1"><g opacity="1" transform="matrix(1,0,0,1,0,0)"><path fill="rgb(247,195,159)" fill-opacity="1" d=" M-156.13800048828125,143.88699340820312 C-157.9290008544922,177.29200744628906 -39.236000061035156,184.11700439453125 -29.763999938964844,198.98199462890625 C-17.88599967956543,217.6230010986328 -25.275999069213867,250.11900329589844 -69.8479995727539,244.44400024414062 C-114.41999816894531,238.7689971923828 -180.14100646972656,215.21099853515625 -202.98899841308594,192.95199584960938 C-225.83700561523438,170.6929931640625 -211,139 -205.177001953125,130.6959991455078"></path><path stroke-linecap="round" stroke-linejoin="round" fill-opacity="0" stroke="rgb(184,99,72)" stroke-opacity="1" stroke-width="11.745" d=" M-156.13800048828125,143.88699340820312 C-157.9290008544922,177.29200744628906 -39.236000061035156,184.11700439453125 -29.763999938964844,198.98199462890625 C-17.88599967956543,217.6230010986328 -25.275999069213867,250.11900329589844 -69.8479995727539,244.44400024414062 C-114.41999816894531,238.7689971923828 -180.14100646972656,215.21099853515625 -202.98899841308594,192.95199584960938 C-225.83700561523438,170.6929931640625 -211,139 -205.177001953125,130.6959991455078"></path></g><g opacity="1" transform="matrix(1,0,0,1,0,0)"><path fill="rgb(229,157,108)" fill-opacity="1" d=" M-205.72300720214844,160.8179931640625 C-183.5959930419922,198.80299377441406 -103.51000213623047,236.17599487304688 -33.34000015258789,229.31199645996094 C-33.34000015258789,229.31199645996094 -42.45500183105469,247.4199981689453 -96.64600372314453,234.6510009765625 C-229.35899353027344,203.3800048828125 -205.72300720214844,160.8179931640625 -205.72300720214844,160.8179931640625z"></path></g></g><g style="display: block;" transform="matrix(0.9999999403953552,0,0,0.9999999403953552,256.00006103515625,256.0003356933594)" opacity="1"><g opacity="1" transform="matrix(1,0,0,1,0,0)"><path fill="url(#__lottie_element_20)" fill-opacity="1" d=" M82.08799743652344,-214.0590057373047 C51.3120002746582,-229.968994140625 -2.441999912261963,-252.80099487304688 -84.62300109863281,-223.4510040283203 C-166.8040008544922,-194.1009979248047 -190.28399658203125,-103.70099639892578 -190.28399658203125,-59.0880012512207 C-190.28399658203125,-14.475000381469727 -160.93299865722656,155.75599670410156 16.343000411987305,139.32000732421875 C193.61900329589844,122.88400268554688 199.48899841308594,-0.3880000114440918 192.44500732421875,-74.35099792480469 C185.4010009765625,-148.31399536132812 130.03500366210938,-189.2729949951172 82.08799743652344,-214.0590057373047z"></path><path stroke-linecap="round" stroke-linejoin="round" fill-opacity="0" stroke="rgb(184,99,72)" stroke-opacity="1" stroke-width="13.25" d=" M82.08799743652344,-214.0590057373047 C51.3120002746582,-229.968994140625 -2.441999912261963,-252.80099487304688 -84.62300109863281,-223.4510040283203 C-166.8040008544922,-194.1009979248047 -190.28399658203125,-103.70099639892578 -190.28399658203125,-59.0880012512207 C-190.28399658203125,-14.475000381469727 -160.93299865722656,155.75599670410156 16.343000411987305,139.32000732421875 C193.61900329589844,122.88400268554688 199.48899841308594,-0.3880000114440918 192.44500732421875,-74.35099792480469 C185.4010009765625,-148.31399536132812 130.03500366210938,-189.2729949951172 82.08799743652344,-214.0590057373047z"></path></g><g opacity="1" transform="matrix(1,0,0,1,0,0)"><path fill="rgb(229,157,108)" fill-opacity="1" d=" M118.8239974975586,-183.7239990234375 C118.8239974975586,-183.7239990234375 192.69500732421875,-85.5199966430664 145.9149932861328,4.224999904632568 C63.50600051879883,162.3209991455078 -93.9229965209961,136.625 -141.3699951171875,67.15699768066406 C-141.3699951171875,67.15699768066406 -77.03500366210938,186.91600036621094 74.60199737548828,125.33399963378906 C156.47999572753906,92.08200073242188 174.72799682617188,43.08100128173828 185.56199645996094,-0.949999988079071 C206.9530029296875,-87.88500213623047 142.1219940185547,-173.4980010986328 118.8239974975586,-183.7239990234375z"></path></g></g><g style="display: block;" transform="matrix(0.9999998807907104,0,0,0.9999998807907104,250.38284301757812,255.1373291015625)" opacity="1"><g opacity="1" transform="matrix(1,0,0,1,0,0)"><path stroke-linecap="round" stroke-linejoin="round" fill-opacity="0" stroke="rgb(211,132,89)" stroke-opacity="1" stroke-width="13.272" d=" M-78.43800354003906,48.249000549316406 C-105.9520034790039,77.63600158691406 -84.72000122070312,128.69500732421875 -36.106998443603516,120.21099853515625"></path></g><g opacity="1" transform="matrix(1,0,0,1,0,0)"><path fill="rgb(221,153,107)" fill-opacity="1" d=" M-89.44400024414062,36.11399841308594 C-89.44400024414062,36.11399841308594 -114.0739974975586,25.097999572753906 -68.56099700927734,13.536999702453613 C150.61700439453125,-42.137001037597656 124.46800231933594,7.328999996185303 124.46800231933594,7.328999996185303 C124.46800231933594,7.328999996185303 108.0989990234375,-0.00800000037997961 97.94000244140625,-0.00800000037997961 C87.78099822998047,-0.00800000037997961 -89.44400024414062,36.11399841308594 -89.44400024414062,36.11399841308594z"></path></g><g opacity="1" transform="matrix(1,0,0,1,0,0)"><path stroke-linecap="round" stroke-linejoin="round" fill-opacity="0" stroke="rgb(140,66,47)" stroke-opacity="1" stroke-width="11.745" d=" M-89.62200164794922,31.219999313354492 C-89.62200164794922,31.219999313354492 28.672000885009766,9.38700008392334 73.21399688720703,4.054999828338623 C121.50700378417969,-1.7259999513626099 119.38800048828125,6.4679999351501465 119.38800048828125,6.4679999351501465"></path></g></g><g style="display: block;" transform="matrix(1,0,0,1,256,255.99998474121094)" opacity="1"><g opacity="1" transform="matrix(1,0,0,1,0,0)"><g opacity="1" transform="matrix(1,0,0,1,0,0)"><path fill="rgb(112,54,173)" fill-opacity="1" d=" M-35.62300109863281,145.01800537109375 C-35.62300109863281,145.01800537109375 23.893999099731445,141.18099975585938 33.527000427246094,139.95399475097656 C43.15999984741211,138.7270050048828 48.61000061035156,139.51400756835938 48.04600143432617,145.97999572753906 C47.481998443603516,152.4459991455078 7.247000217437744,201.19400024414062 7.247000217437744,201.19400024414062 C7.247000217437744,201.19400024414062 3.500999927520752,210.26699829101562 -4.758999824523926,206.0070037841797 C-22.27899932861328,196.9709930419922 -38.63600158691406,160.73399353027344 -38.63600158691406,160.73399353027344 C-38.63600158691406,160.73399353027344 -35.62300109863281,145.01800537109375 -35.62300109863281,145.01800537109375z"></path><path stroke-linecap="round" stroke-linejoin="round" fill-opacity="0" stroke="rgb(52,19,104)" stroke-opacity="1" stroke-width="11.546" d=" M-35.62300109863281,145.01800537109375 C-35.62300109863281,145.01800537109375 23.893999099731445,141.18099975585938 33.527000427246094,139.95399475097656 C43.15999984741211,138.7270050048828 48.61000061035156,139.51400756835938 48.04600143432617,145.97999572753906 C47.481998443603516,152.4459991455078 7.247000217437744,201.19400024414062 7.247000217437744,201.19400024414062 C7.247000217437744,201.19400024414062 3.500999927520752,210.26699829101562 -4.758999824523926,206.0070037841797 C-22.27899932861328,196.9709930419922 -38.63600158691406,160.73399353027344 -38.63600158691406,160.73399353027344 C-38.63600158691406,160.73399353027344 -35.62300109863281,145.01800537109375 -35.62300109863281,145.01800537109375z"></path></g><g opacity="1" transform="matrix(1,0,0,1,0,0)"><path stroke-linecap="round" stroke-linejoin="round" fill-opacity="0" stroke="rgb(66,32,132)" stroke-opacity="1" stroke-width="8.809" d=" M-35.6349983215332,155.29200744628906 C-35.6349983215332,155.29200744628906 -21.520999908447266,166.3470001220703 -15.871000289916992,170.04100036621094 C-10.220999717712402,173.73500061035156 -8.63700008392334,174.3470001220703 -8.63700008392334,174.3470001220703"></path></g><g opacity="1" transform="matrix(1,0,0,1,0,0)"><path fill="rgb(112,54,173)" fill-opacity="1" d=" M-50.22100067138672,159.42100524902344 C-50.22100067138672,159.42100524902344 -68.2770004272461,156.3350067138672 -86.40899658203125,153.0399932861328 C-103.13899993896484,150 -115.99099731445312,144.9040069580078 -114.84300231933594,133.1929931640625 C-114.06500244140625,125.2490005493164 -100.73200225830078,117.9540023803711 -100.73200225830078,117.9540023803711 C-100.73200225830078,117.9540023803711 -96.26499938964844,97.52799987792969 -86.5,93.37699890136719 C-76.73500061035156,89.22599792480469 -61.972999572753906,114.95099639892578 -56.27399826049805,122.2959976196289 C-50.57500076293945,129.64100646972656 -42.42100143432617,140.79299926757812 -42.42100143432617,140.79299926757812 C-42.42100143432617,140.79299926757812 -45.94300079345703,148.531005859375 -45.94300079345703,148.531005859375 C-45.94300079345703,148.531005859375 -50.22100067138672,159.42100524902344 -50.22100067138672,159.42100524902344z"></path><path stroke-linecap="round" stroke-linejoin="round" fill-opacity="0" stroke="rgb(52,19,104)" stroke-opacity="1" stroke-width="9.744" d=" M-50.22100067138672,159.42100524902344 C-50.22100067138672,159.42100524902344 -68.2770004272461,156.3350067138672 -86.40899658203125,153.0399932861328 C-103.13899993896484,150 -115.99099731445312,144.9040069580078 -114.84300231933594,133.1929931640625 C-114.06500244140625,125.2490005493164 -100.73200225830078,117.9540023803711 -100.73200225830078,117.9540023803711 C-100.73200225830078,117.9540023803711 -96.26499938964844,97.52799987792969 -86.5,93.37699890136719 C-76.73500061035156,89.22599792480469 -61.972999572753906,114.95099639892578 -56.27399826049805,122.2959976196289 C-50.57500076293945,129.64100646972656 -42.42100143432617,140.79299926757812 -42.42100143432617,140.79299926757812 C-42.42100143432617,140.79299926757812 -45.94300079345703,148.531005859375 -45.94300079345703,148.531005859375 C-45.94300079345703,148.531005859375 -50.22100067138672,159.42100524902344 -50.22100067138672,159.42100524902344z"></path></g><g opacity="1" transform="matrix(1,0,0,1,0,0)"><path stroke-linecap="round" stroke-linejoin="round" fill-opacity="0" stroke="rgb(66,32,132)" stroke-opacity="1" stroke-width="8.809" d=" M-70.95700073242188,132.54200744628906 C-70.95700073242188,132.54200744628906 -62.303001403808594,138.58700561523438 -56.95399856567383,140.89500427246094 C-51.60499954223633,143.2030029296875 -48.49399948120117,143.65199279785156 -48.49399948120117,143.65199279785156"></path></g><g opacity="1" transform="matrix(1,0,0,1,0,0)"><path stroke-linecap="round" stroke-linejoin="round" fill-opacity="0" stroke="rgb(66,32,132)" stroke-opacity="1" stroke-width="8.809" d=" M-74.55000305175781,144.68099975585938 C-74.55000305175781,144.68099975585938 -62.652000427246094,147.93499755859375 -58.75,148.6909942626953 C-54.847999572753906,149.44700622558594 -48.92599868774414,150.11099243164062 -48.92599868774414,150.11099243164062"></path></g><g opacity="1" transform="matrix(1,0,0,1,0,0)"><path stroke-linecap="round" stroke-linejoin="round" fill-opacity="0" stroke="rgb(66,32,132)" stroke-opacity="1" stroke-width="8.809" d=" M-29.71500015258789,154.2270050048828 C-29.71500015258789,154.2270050048828 -13.831999778747559,158.3979949951172 -9.862000465393066,159.156005859375 C-5.892000198364258,159.91400146484375 -1.75600004196167,160.1020050048828 -1.75600004196167,160.1020050048828"></path></g><g opacity="1" transform="matrix(1,0,0,1,0,0)"><path fill="rgb(112,54,173)" fill-opacity="1" d=" M-33.215999603271484,142.1230010986328 C-34.39400100708008,139.6750030517578 -37.83000183105469,137.927001953125 -40.20399856567383,137.17799377441406 C-42.652000427246094,136.406005859375 -45.236000061035156,137.23399353027344 -48.388999938964844,138.2969970703125 C-54.362998962402344,140.31100463867188 -58.88100051879883,156.53599548339844 -48.12699890136719,161.92599487304688 C-37.37300109863281,167.3159942626953 -31.295000076293945,157.64599609375 -30.67099952697754,152.1739959716797 C-30.308000564575195,148.99200439453125 -31.85700035095215,144.94900512695312 -33.215999603271484,142.1230010986328z"></path><path stroke-linecap="round" stroke-linejoin="round" fill-opacity="0" stroke="rgb(52,19,104)" stroke-opacity="1" stroke-width="10.277" d=" M-33.215999603271484,142.1230010986328 C-34.39400100708008,139.6750030517578 -37.83000183105469,137.927001953125 -40.20399856567383,137.17799377441406 C-42.652000427246094,136.406005859375 -45.236000061035156,137.23399353027344 -48.388999938964844,138.2969970703125 C-54.362998962402344,140.31100463867188 -58.88100051879883,156.53599548339844 -48.12699890136719,161.92599487304688 C-37.37300109863281,167.3159942626953 -31.295000076293945,157.64599609375 -30.67099952697754,152.1739959716797 C-30.308000564575195,148.99200439453125 -31.85700035095215,144.94900512695312 -33.215999603271484,142.1230010986328z"></path></g><g opacity="1" transform="matrix(1,0,0,1,0,0)"><path fill="rgb(140,75,224)" fill-opacity="1" d=" M-92.83100128173828,108.9229965209961 C-92.83100128173828,108.9229965209961 -81.8239974975586,108.63999938964844 -77.30899810791016,112.30899810791016 C-73.5790023803711,115.33899688720703 -60.37699890136719,128.9600067138672 -58.402000427246094,130.37100219726562 C-56.426998138427734,131.78199768066406 -53.88600158691406,134.03900146484375 -53.88600158691406,134.03900146484375 C-53.88600158691406,134.03900146484375 -52.75699996948242,134.3209991455078 -52.75699996948242,134.3209991455078 C-52.75699996948242,134.3209991455078 -66.02100372314453,112.59100341796875 -70.81900024414062,108.07599639892578 C-75.61699676513672,103.56099700927734 -79.8489990234375,96.78800201416016 -84.08200073242188,97.06999969482422 C-88.31500244140625,97.35199737548828 -92.83100128173828,108.9229965209961 -92.83100128173828,108.9229965209961z"></path></g><g opacity="1" transform="matrix(1,0,0,1,0,0)"><path fill="rgb(140,75,224)" fill-opacity="1" d=" M-25.10099983215332,151.53599548339844 C-25.10099983215332,151.53599548339844 18.357999801635742,151.53599548339844 24.849000930786133,152.38299560546875 C31.34000015258789,153.22999572753906 30.493000030517578,157.46200561523438 30.493000030517578,157.46200561523438 C30.493000030517578,157.46200561523438 33.59700012207031,157.17999267578125 33.59700012207031,157.17999267578125 C33.59700012207031,157.17999267578125 43.75699996948242,147.86700439453125 41.499000549316406,146.1739959716797 C39.24100112915039,144.4810028076172 15.255000114440918,148.14999389648438 7.635000228881836,148.14999389648438 C0.014999999664723873,148.14999389648438 -25.10099983215332,151.53599548339844 -25.10099983215332,151.53599548339844z"></path></g></g></g><g style="display: block;" transform="matrix(1,0,0,1,256,255.99998474121094)" opacity="1"><g opacity="1" transform="matrix(1,0,0,1,0,0)"><path fill="rgb(247,195,159)" fill-opacity="1" d=" M122.5469970703125,124.6510009765625 C118.64600372314453,112.79900360107422 114.64800262451172,102.10900115966797 124.54299926757812,90.49700164794922 C140.24099731445312,72.07599639892578 164.9669952392578,63.03900146484375 189.37399291992188,122.53099822998047 C213.781005859375,182.0229949951172 200.052001953125,220.9219970703125 176.4080047607422,227.78599548339844 C152.76400756835938,234.64999389648438 141.7570037841797,222.21800231933594 133.16299438476562,151.44400024414062"></path><path stroke-linecap="round" stroke-linejoin="round" fill-opacity="0" stroke="rgb(184,99,72)" stroke-opacity="1" stroke-width="11.143" d=" M122.5469970703125,124.6510009765625 C118.64600372314453,112.79900360107422 114.64800262451172,102.10900115966797 124.54299926757812,90.49700164794922 C140.24099731445312,72.07599639892578 164.9669952392578,63.03900146484375 189.37399291992188,122.53099822998047 C213.781005859375,182.0229949951172 200.052001953125,220.9219970703125 176.4080047607422,227.78599548339844 C152.76400756835938,234.64999389648438 141.7570037841797,222.21800231933594 133.16299438476562,151.44400024414062"></path></g></g><g style="display: block;" transform="matrix(0.9999998807907104,0,0,0.9999998807907104,250.3822479248047,255.1363525390625)" opacity="1"><g opacity="1" transform="matrix(1,0,0,1,0,0)"><g opacity="1" transform="matrix(1,0,0,1,0,0)"><g opacity="1" transform="matrix(1,0,0,1,0,0)"><path stroke-linecap="round" stroke-linejoin="round" fill-opacity="0" stroke="rgb(211,132,89)" stroke-opacity="1" stroke-width="11.745" d=" M-19.174999237060547,-47.23099899291992 C-21.025999069213867,-17.886999130249023 -34.77000045776367,-5.519000053405762 -64.85299682617188,2.194999933242798"></path></g><g opacity="1" transform="matrix(1,0,0,1,0,0)"><path stroke-linecap="round" stroke-linejoin="round" fill-opacity="0" stroke="rgb(211,132,89)" stroke-opacity="1" stroke-width="11.745" d=" M9.456999778747559,-68.16400146484375 C12.17300033569336,-30.60700035095215 19.10700035095215,-13.227999687194824 58.48400115966797,-12.163000106811523"></path></g></g><g opacity="1" transform="matrix(1,0,0,1,0,0)"><g opacity="1" transform="matrix(1,0,0,1,0,0)"><path fill="rgb(255,255,255)" fill-opacity="1" d=" M11.647000312805176,-63.00199890136719 C23.386999130249023,-29.347000122070312 49.21500015258789,-16.823999404907227 95.39299774169922,-24.650999069213867 C141.5709991455078,-32.47800064086914 153.31100463867188,-72.39399719238281 146.26699829101562,-105.26599884033203 C139.22300720214844,-138.13800048828125 106.34200286865234,-157.98899841308594 76.60900115966797,-156.92300415039062 C5.382999897003174,-154.3679962158203 -0.09300000220537186,-96.65699768066406 11.647000312805176,-63.00199890136719z"></path><path stroke-linecap="round" stroke-linejoin="round" fill-opacity="0" stroke="rgb(119,61,45)" stroke-opacity="1" stroke-width="10.277" d=" M11.647000312805176,-63.00199890136719 C23.386999130249023,-29.347000122070312 49.21500015258789,-16.823999404907227 95.39299774169922,-24.650999069213867 C141.5709991455078,-32.47800064086914 153.31100463867188,-72.39399719238281 146.26699829101562,-105.26599884033203 C139.22300720214844,-138.13800048828125 106.34200286865234,-157.98899841308594 76.60900115966797,-156.92300415039062 C5.382999897003174,-154.3679962158203 -0.09300000220537186,-96.65699768066406 11.647000312805176,-63.00199890136719z"></path></g><g opacity="1" transform="matrix(1,0,0,1,0,0)"><path fill="rgb(204,202,224)" fill-opacity="1" d=" M109.78099822998047,-146.33099365234375 C130.9510040283203,-106.4739990234375 126.77200317382812,-59.60300064086914 104.49800109863281,-31.92099952697754 C151.29100036621094,-48.422000885009766 157.38999938964844,-113.11199951171875 109.78099822998047,-146.33099365234375z"></path></g></g><g opacity="1" transform="matrix(1,0,0,1,0,0)"><g opacity="1" transform="matrix(1,0,0,1,0,-0.5139999985694885)"><path fill="rgb(255,255,255)" fill-opacity="1" d=" M-157.12899780273438,-82.43800354003906 C-156.84300231933594,-97.7040023803711 -156.28700256347656,-140.41700744628906 -90.63400268554688,-145.75100708007812 C-12.987000465393066,-152.05999755859375 -13.197999954223633,-80.66999816894531 -18.704999923706055,-52.499000549316406 C-22.882999420166016,-31.124000549316406 -48.882999420166016,-15.623000144958496 -90.79100036621094,-12.321000099182129 C-145.43099975585938,-8.015999794006348 -157.61000061035156,-56.762001037597656 -157.12899780273438,-82.43800354003906z"></path><path stroke-linecap="round" stroke-linejoin="round" fill-opacity="0" stroke="rgb(119,61,45)" stroke-opacity="1" stroke-width="10.277" d=" M-157.12899780273438,-82.43800354003906 C-156.84300231933594,-97.7040023803711 -156.28700256347656,-140.41700744628906 -90.63400268554688,-145.75100708007812 C-12.987000465393066,-152.05999755859375 -13.197999954223633,-80.66999816894531 -18.704999923706055,-52.499000549316406 C-22.882999420166016,-31.124000549316406 -48.882999420166016,-15.623000144958496 -90.79100036621094,-12.321000099182129 C-145.43099975585938,-8.015999794006348 -157.61000061035156,-56.762001037597656 -157.12899780273438,-82.43800354003906z"></path></g><g opacity="1" transform="matrix(1,0,0,1,0.01600000075995922,-0.3479999899864197)"><path fill="rgb(204,202,224)" fill-opacity="1" d=" M-54.1150016784668,-134.6719970703125 C-32.94499969482422,-94.81500244140625 -37.124000549316406,-47.944000244140625 -59.39799880981445,-20.261999130249023 C-12.604999542236328,-36.76300048828125 -6.50600004196167,-101.4530029296875 -54.1150016784668,-134.6719970703125z"></path></g></g><g opacity="1" transform="matrix(1,0,0,1,0,0)"><g opacity="1" transform="matrix(1,0,0,1,0,0)"><path fill="rgb(30,20,17)" fill-opacity="1" d=" M47.143001556396484,-95.7699966430664 C47.143001556396484,-95.7699966430664 50.15399932861328,-70.55999755859375 74.98799896240234,-72.06500244140625 C96.88800048828125,-73.39199829101562 100.8550033569336,-97.3499984741211 95.30599975585938,-104.8010025024414 C88.45800018310547,-113.99700164794922 67.80400085449219,-117.78900146484375 58.4119987487793,-111.52799987792969 C49.02000045776367,-105.26699829101562 47.143001556396484,-95.7699966430664 47.143001556396484,-95.7699966430664z"></path><path stroke-linecap="butt" stroke-linejoin="miter" fill-opacity="0" stroke-miterlimit="10" stroke="rgb(29,29,27)" stroke-opacity="1" stroke-width="1.436" d=" M47.143001556396484,-95.7699966430664 C47.143001556396484,-95.7699966430664 50.15399932861328,-70.55999755859375 74.98799896240234,-72.06500244140625 C96.88800048828125,-73.39199829101562 100.8550033569336,-97.3499984741211 95.30599975585938,-104.8010025024414 C88.45800018310547,-113.99700164794922 67.80400085449219,-117.78900146484375 58.4119987487793,-111.52799987792969 C49.02000045776367,-105.26699829101562 47.143001556396484,-95.7699966430664 47.143001556396484,-95.7699966430664z"></path></g><g opacity="1" transform="matrix(1,0,0,1,0,0)"><path fill="rgb(255,255,255)" fill-opacity="1" d=" M85.73400115966797,-97.1760025024414 C80.97799682617188,-95.0270004272461 80.66000366210938,-88.80599975585938 85.2249984741211,-86.33999633789062 C87.20099639892578,-85.27300262451172 89.9729995727539,-84.53600311279297 93.8479995727539,-84.69100189208984 C104.39099884033203,-85.11299896240234 106.3010025024414,-92.72799682617188 103.62999725341797,-95.09700012207031 C100.33300018310547,-98.02100372314453 90.38899993896484,-99.22599792480469 85.86799621582031,-97.23600006103516 C85.822998046875,-97.21600341796875 85.77799987792969,-97.19599914550781 85.73400115966797,-97.1760025024414z"></path></g><g opacity="1" transform="matrix(1,0,0,1,0,0)"><path fill="rgb(67,56,168)" fill-opacity="1" d=" M56.33700180053711,-77.90599822998047 C54.3380012512207,-79.93099975585938 54.85200119018555,-83.2509994506836 57.33399963378906,-84.64199829101562 C58.48699951171875,-85.28800201416016 59.801998138427734,-85.84700012207031 61.064998626708984,-85.98699951171875 C64.45099639892578,-86.36299896240234 80.44400024414062,-84.48200225830078 80.44400024414062,-79.58999633789062 C80.44400024414062,-76.6510009765625 75.36299896240234,-73.56999969482422 65.2040023803711,-74.322998046875 C60.70800018310547,-74.65599822998047 57.98099899291992,-76.24099731445312 56.33700180053711,-77.90599822998047z"></path></g></g><g opacity="1" transform="matrix(1,0,0,1,0,0)"><g opacity="1" transform="matrix(1,0,0,1,0,0)"><path fill="rgb(30,20,17)" fill-opacity="1" d=" M-109.14299774169922,-94.73100280761719 C-114.3239974975586,-86.86599731445312 -114.54399871826172,-76.68599700927734 -109.20600128173828,-68.9209976196289 C-105.35600280761719,-63.31999969482422 -99.00399780273438,-58.26499938964844 -88.58799743652344,-57.992000579833984 C-64.77999877929688,-57.367000579833984 -61.637001037597656,-81.59300231933594 -64.77999877929688,-89.22000122070312 C-68.64099884033203,-98.58899688720703 -77.00599670410156,-103.58599853515625 -91.16200256347656,-102.96099853515625 C-99.01399993896484,-102.61499786376953 -104.58799743652344,-101.6449966430664 -109.14299774169922,-94.73100280761719z"></path><path stroke-linecap="butt" stroke-linejoin="miter" fill-opacity="0" stroke-miterlimit="10" stroke="rgb(29,29,27)" stroke-opacity="1" stroke-width="1.745" d=" M-109.14299774169922,-94.73100280761719 C-114.3239974975586,-86.86599731445312 -114.54399871826172,-76.68599700927734 -109.20600128173828,-68.9209976196289 C-105.35600280761719,-63.31999969482422 -99.00399780273438,-58.26499938964844 -88.58799743652344,-57.992000579833984 C-64.77999877929688,-57.367000579833984 -61.637001037597656,-81.59300231933594 -64.77999877929688,-89.22000122070312 C-68.64099884033203,-98.58899688720703 -77.00599670410156,-103.58599853515625 -91.16200256347656,-102.96099853515625 C-99.01399993896484,-102.61499786376953 -104.58799743652344,-101.6449966430664 -109.14299774169922,-94.73100280761719z"></path></g><g opacity="1" transform="matrix(1,0,0,1,0,0)"><path fill="rgb(255,255,255)" fill-opacity="1" d=" M-72.11299896240234,-83.25399780273438 C-76.86900329589844,-81.1050033569336 -77.18699645996094,-74.88400268554688 -72.62200164794922,-72.41799926757812 C-70.64600372314453,-71.35099792480469 -67.8740005493164,-70.61399841308594 -63.999000549316406,-70.76899719238281 C-53.45600128173828,-71.19100189208984 -51.54600143432617,-78.80599975585938 -54.21699905395508,-81.17500305175781 C-57.513999938964844,-84.0989990234375 -67.45800018310547,-85.30400085449219 -71.97899627685547,-83.31400299072266 C-72.02400207519531,-83.29399871826172 -72.06900024414062,-83.27400207519531 -72.11299896240234,-83.25399780273438z"></path></g><g opacity="1" transform="matrix(1,0,0,1,0,0)"><path fill="rgb(67,56,168)" fill-opacity="1" d=" M-105.45999908447266,-65.11299896240234 C-107.45899963378906,-67.13800048828125 -106.94599914550781,-70.45700073242188 -104.46399688720703,-71.8479995727539 C-103.31099700927734,-72.49400329589844 -101.99500274658203,-73.05400085449219 -100.73200225830078,-73.19400024414062 C-97.34600067138672,-73.56999969482422 -81.35399627685547,-71.68900299072266 -81.35399627685547,-66.7969970703125 C-81.35399627685547,-63.858001708984375 -86.43399810791016,-60.7760009765625 -96.59300231933594,-61.52899932861328 C-101.08899688720703,-61.86199951171875 -103.81600189208984,-63.448001861572266 -105.45999908447266,-65.11299896240234z"></path></g></g><g opacity="1" transform="matrix(1,0,0,1,0,0)"><g opacity="1" transform="matrix(1,0,0,1,0,0)"><path fill="rgb(255,220,197)" fill-opacity="1" d=" M1.940000057220459,-92.86499786376953 C49.15399932861328,-99.21299743652344 98.12000274658203,-101.84200286865234 149.86599731445312,-99.90899658203125 C149.86599731445312,-99.90899658203125 137.50900268554688,-166.26800537109375 69.71900177001953,-161.2310028076172 C-1.0399999618530273,-155.97300720214844 1.940000057220459,-92.86499786376953 1.940000057220459,-92.86499786376953z"></path><path stroke-linecap="round" stroke-linejoin="round" fill-opacity="0" stroke="rgb(184,99,72)" stroke-opacity="1" stroke-width="10.277" d=" M1.940000057220459,-92.86499786376953 C49.15399932861328,-99.21299743652344 98.12000274658203,-101.84200286865234 149.86599731445312,-99.90899658203125 C149.86599731445312,-99.90899658203125 137.50900268554688,-166.26800537109375 69.71900177001953,-161.2310028076172 C-1.0399999618530273,-155.97300720214844 1.940000057220459,-92.86499786376953 1.940000057220459,-92.86499786376953z"></path></g><g opacity="1" transform="matrix(1,0,0,1,0,0)"><path fill="rgb(242,172,124)" fill-opacity="1" d=" M88.26899719238281,-155.18899536132812 C108.72799682617188,-142.73300170898438 121.36900329589844,-126.29199981689453 124.18499755859375,-105.5530014038086 C124.18499755859375,-105.5530014038086 143.09300231933594,-105.74099731445312 143.09300231933594,-105.74099731445312 C132.08399963378906,-135.2969970703125 113.99500274658203,-151.57200622558594 88.26899719238281,-155.18899536132812z"></path></g></g><g opacity="1" transform="matrix(1,0,0,1,0,0)"><g opacity="1" transform="matrix(1,0,0,1,0,0)"><path fill="rgb(255,220,197)" fill-opacity="1" d=" M9.076000213623047,-59.582000732421875 C48.87799835205078,-64.50599670410156 110.427001953125,-66.55699920654297 146.12600708007812,-66.14700317382812 C146.12600708007812,-66.14700317382812 146.8350067138672,-22.757999420166016 81.4540023803711,-18.985000610351562 C13.208999633789062,-15.04699993133545 9.076000213623047,-59.582000732421875 9.076000213623047,-59.582000732421875z"></path><path stroke-linecap="round" stroke-linejoin="round" fill-opacity="0" stroke="rgb(184,99,72)" stroke-opacity="1" stroke-width="10.277" d=" M9.076000213623047,-59.582000732421875 C48.87799835205078,-64.50599670410156 110.427001953125,-66.55699920654297 146.12600708007812,-66.14700317382812 C146.12600708007812,-66.14700317382812 146.8350067138672,-22.757999420166016 81.4540023803711,-18.985000610351562 C13.208999633789062,-15.04699993133545 9.076000213623047,-59.582000732421875 9.076000213623047,-59.582000732421875z"></path></g><g opacity="1" transform="matrix(1,0,0,1,0,0)"><path fill="rgb(242,172,124)" fill-opacity="1" d=" M49.698001861572266,-26.344999313354492 C98.93800354003906,-20.600000381469727 119.41300201416016,-44.382999420166016 120.2750015258789,-60.40299987792969 C120.2750015258789,-60.40299987792969 139.56100463867188,-60.8129997253418 139.56100463867188,-60.8129997253418 C135.8679962158203,-35.37300109863281 100.5790023803711,-12.803999900817871 49.698001861572266,-26.344999313354492z"></path></g></g><g opacity="1" transform="matrix(1,0,0,1,0,0)"><g opacity="1" transform="matrix(1,0,0,1,0,0)"><path fill="rgb(255,220,197)" fill-opacity="1" d=" M-160.98800659179688,-77.97699737548828 C-114.26300048828125,-87.26499938964844 -65.55699920654297,-92.94999694824219 -13.791999816894531,-94.25700378417969 C-13.791999816894531,-94.25700378417969 -30.27400016784668,-159.71299743652344 -97.61599731445312,-150.44700622558594 C-167.9080047607422,-140.77499389648438 -160.98800659179688,-77.97699737548828 -160.98800659179688,-77.97699737548828z"></path><path stroke-linecap="round" stroke-linejoin="round" fill-opacity="0" stroke="rgb(184,99,72)" stroke-opacity="1" stroke-width="10.277" d=" M-160.98800659179688,-77.97699737548828 C-114.26300048828125,-87.26499938964844 -65.55699920654297,-92.94999694824219 -13.791999816894531,-94.25700378417969 C-13.791999816894531,-94.25700378417969 -30.27400016784668,-159.71299743652344 -97.61599731445312,-150.44700622558594 C-167.9080047607422,-140.77499389648438 -160.98800659179688,-77.97699737548828 -160.98800659179688,-77.97699737548828z"></path></g><g opacity="1" transform="matrix(1,0,0,1,0,0)"><path fill="rgb(242,172,124)" fill-opacity="1" d=" M-78.7249984741211,-145.57699584960938 C-57.527000427246094,-134.4250030517578 -43.88199996948242,-118.80799865722656 -39.775001525878906,-98.28500366210938 C-39.775001525878906,-98.28500366210938 -20.916000366210938,-99.65499877929688 -20.916000366210938,-99.65499877929688 C-33.75199890136719,-128.46499633789062 -52.823001861572266,-143.5760040283203 -78.7249984741211,-145.57699584960938z"></path></g></g><g opacity="1" transform="matrix(1,0,0,1,0,0)"><g opacity="1" transform="matrix(1,0,0,1,0,0)"><path fill="rgb(255,220,197)" fill-opacity="1" d=" M-151.78500366210938,-45.20500183105469 C-112.36900329589844,-52.608001708984375 -51.06700134277344,-58.505001068115234 -15.413000106811523,-60.327999114990234 C-15.413000106811523,-60.327999114990234 -11.993000030517578,-17.06800079345703 -77.01000213623047,-9.21399974822998 C-144.875,-1.0160000324249268 -151.78500366210938,-45.20500183105469 -151.78500366210938,-45.20500183105469z"></path><path stroke-linecap="round" stroke-linejoin="round" fill-opacity="0" stroke="rgb(184,99,72)" stroke-opacity="1" stroke-width="10.277" d=" M-151.78500366210938,-45.20500183105469 C-112.36900329589844,-52.608001708984375 -51.06700134277344,-58.505001068115234 -15.413000106811523,-60.327999114990234 C-15.413000106811523,-60.327999114990234 -11.993000030517578,-17.06800079345703 -77.01000213623047,-9.21399974822998 C-144.875,-1.0160000324249268 -151.78500366210938,-45.20500183105469 -151.78500366210938,-45.20500183105469z"></path></g><g opacity="1" transform="matrix(1,0,0,1,0,0)"><path fill="rgb(242,172,124)" fill-opacity="1" d=" M-109.16300201416016,-14.574000358581543 C-59.6609992980957,-11.920000076293945 -43.71200180053711,-37.935001373291016 -43.854000091552734,-53.97800064086914 C-43.854000091552734,-53.97800064086914 -20.131999969482422,-57.09299850463867 -20.131999969482422,-57.09299850463867 C-22.226999282836914,-31.47100067138672 -57.53499984741211,-4.241000175476074 -109.16300201416016,-14.574000358581543z"></path></g></g></g></g><g style="display: block;" transform="matrix(1,0,0,1,246.572998046875,255.57199096679688)" opacity="1"><g opacity="1" transform="matrix(1,0,0,1,0,0)"><g opacity="0.62" transform="matrix(1,0,0,1,0,0)"><path fill="rgb(151,245,255)" fill-opacity="1" d=" M63.47800064086914,98.27799987792969 C151.08999633789062,98.54399871826172 141.57400512695312,1.0709999799728394 140.65699768066406,-2.5969998836517334 C139.74000549316406,-6.264999866485596 140.65699768066406,-16.658000946044922 133.3209991455078,-17.575000762939453 C125.98500061035156,-18.492000579833984 -5.14900016784668,-16.81100082397461 -5.14900016784668,-16.81100082397461 C-5.14900016784668,-16.81100082397461 -11.567999839782715,-15.894000053405762 -11.567999839782715,-3.9730000495910645 C-11.567999839782715,0.703000009059906 -20.493999481201172,98.02300262451172 63.47800064086914,98.27799987792969z"></path></g><g opacity="1" transform="matrix(1,0,0,1,0,0)"><path fill="rgb(168,19,62)" fill-opacity="1" d=" M132.56900024414062,32.715999603271484 C132.56900024414062,38.051998138427734 115.6240005493164,96.41999816894531 64.37699890136719,95.6500015258789 C4.5,94.75 -6.014999866485596,33.36199951171875 -1.3140000104904175,31.816999435424805 C6.5,29.25 132.56900024414062,27.3799991607666 132.56900024414062,32.715999603271484z"></path></g><g opacity="1" transform="matrix(1,0,0,1,0,0)"><path fill="rgb(255,255,255)" fill-opacity="1" d=" M11.647000312805176,-12.871000289916992 C11.647000312805176,-12.871000289916992 11.199000358581543,24.570999145507812 20.20800018310547,42.59000015258789 C25.249000549316406,52.67100143432617 36.61600112915039,48.9630012512207 37.75199890136719,40.69300079345703 C40.52799987792969,20.488000869750977 39.14899826049805,-13.345000267028809 39.14899826049805,-13.345000267028809 C39.14899826049805,-13.345000267028809 11.647000312805176,-12.871000289916992 11.647000312805176,-12.871000289916992z"></path></g><g opacity="0.24" transform="matrix(1,0,0,1,0,0)"><path fill="rgb(48,26,130)" fill-opacity="1" d=" M93.4020004272461,-13.902999877929688 C102.41600036621094,37.77000045776367 91.39299774169922,75.24600219726562 58.2599983215332,89.05899810791016 C108.822998046875,86.4000015258789 132.7010040283203,49.82099914550781 129.23500061035156,-14.055999755859375 C129.23500061035156,-14.055999755859375 93.4020004272461,-13.902999877929688 93.4020004272461,-13.902999877929688z"></path></g></g><g opacity="1" transform="matrix(1,0,0,1,0,0)"><path stroke-linecap="butt" stroke-linejoin="miter" fill-opacity="0" stroke-miterlimit="10" stroke="rgb(64,101,130)" stroke-opacity="1" stroke-width="11.745" d=" M62.6619987487793,98.2249984741211 C140.2270050048828,98.15599822998047 141.57400512695312,1.0709999799728394 140.65699768066406,-2.5969998836517334 C139.74000549316406,-6.264999866485596 140.65699768066406,-16.658000946044922 133.3209991455078,-17.575000762939453 C125.98500061035156,-18.492000579833984 -5.14900016784668,-16.81100082397461 -5.14900016784668,-16.81100082397461 C-5.14900016784668,-16.81100082397461 -11.567999839782715,-15.894000053405762 -11.567999839782715,-3.9730000495910645 C-11.567999839782715,0.703000009059906 -16.160999298095703,98.29499816894531 62.6619987487793,98.2249984741211z"></path></g><g opacity="0.62" transform="matrix(1,0,0,1,0,0)"><path fill="rgb(151,245,255)" fill-opacity="1" d=" M49.013999938964844,98.66100311279297 C49.013999938964844,98.66100311279297 49.75,124.75 49.25199890136719,143.14700317382812 C48.667999267578125,164.71499633789062 15.560999870300293,178.90499877929688 15.942000389099121,182.1820068359375 C17.08799934387207,192.0399932861328 111.63700103759766,190.81199645996094 109.47799682617188,182.79400634765625 C108.72000122070312,179.97799682617188 85.63800048828125,166.5500030517578 77.8479995727539,147.35899353027344 C69.14700317382812,125.9229965209961 75.68599700927734,98.66100311279297 75.68599700927734,98.66100311279297 C75.68599700927734,98.66100311279297 49.013999938964844,98.66100311279297 49.013999938964844,98.66100311279297z"></path></g><g opacity="1" transform="matrix(1,0,0,1,0,0)"><path stroke-linecap="round" stroke-linejoin="round" fill-opacity="0" stroke="rgb(64,101,130)" stroke-opacity="1" stroke-width="11.745" d=" M49.013999938964844,98.66100311279297 C49.013999938964844,98.66100311279297 49.43600082397461,112.12000274658203 48.03799819946289,138.1649932861328 C45.95800018310547,176.90699768066406 15.173999786376953,175.5780029296875 15.942000389099121,182.1820068359375 C17.08799934387207,192.0399932861328 111.63700103759766,190.81199645996094 109.47799682617188,182.79400634765625 C107.87300109863281,176.83299255371094 82.81300354003906,172.63999938964844 76.46600341796875,140.91600036621094 C74.24099731445312,129.79400634765625 75.68599700927734,98.66100311279297 75.68599700927734,98.66100311279297 C75.68599700927734,98.66100311279297 49.013999938964844,98.66100311279297 49.013999938964844,98.66100311279297z"></path></g><g opacity="1" transform="matrix(1,0,0,1,0,0)"><path fill="rgb(202,249,255)" fill-opacity="1" d=" M63.88199996948242,189.6510009765625 C34.15399932861328,189.06900024414062 16.614999771118164,184.2779998779297 16.614999771118164,184.2779998779297 C16.614999771118164,184.2779998779297 35.03099822998047,188.60299682617188 64.75900268554688,189.18499755859375 C94.48699951171875,189.76699829101562 109.01899719238281,183.13600158691406 109.01899719238281,183.13600158691406 C109.01899719238281,183.13600158691406 93.61000061035156,190.23300170898438 63.88199996948242,189.6510009765625z"></path><path stroke-linecap="round" stroke-linejoin="round" fill-opacity="0" stroke="rgb(64,101,130)" stroke-opacity="1" stroke-width="11.745" d=" M63.88199996948242,189.6510009765625 C34.15399932861328,189.06900024414062 16.614999771118164,184.2779998779297 16.614999771118164,184.2779998779297 C16.614999771118164,184.2779998779297 35.03099822998047,188.60299682617188 64.75900268554688,189.18499755859375 C94.48699951171875,189.76699829101562 109.01899719238281,183.13600158691406 109.01899719238281,183.13600158691406 C109.01899719238281,183.13600158691406 93.61000061035156,190.23300170898438 63.88199996948242,189.6510009765625z"></path></g></g><g style="display: block;" transform="matrix(1,0,0,1,256,255.99998474121094)" opacity="1"><g opacity="1" transform="matrix(1,0,0,1,0,0)"><path fill="rgb(247,195,159)" fill-opacity="1" d=" M147.82400512695312,173.18099975585938 C136.19700622558594,196.9409942626953 22.402000427246094,151.70399475097656 14.336000442504883,180.68600463867188 C6.269999980926514,209.66799926757812 35.17499923706055,222.18299865722656 70.8010025024414,230.74600219726562 C106.427001953125,239.3090057373047 214.54400634765625,261.34600830078125 201.87899780273438,174.75799560546875"></path><path stroke-linecap="round" stroke-linejoin="round" fill-opacity="0" stroke="rgb(184,99,72)" stroke-opacity="1" stroke-width="10.662" d=" M147.82400512695312,173.18099975585938 C136.19700622558594,196.9409942626953 22.402000427246094,151.70399475097656 14.336000442504883,180.68600463867188 C6.269999980926514,209.66799926757812 35.17499923706055,222.18299865722656 70.8010025024414,230.74600219726562 C106.427001953125,239.3090057373047 214.54400634765625,261.34600830078125 201.87899780273438,174.75799560546875"></path></g><g opacity="1" transform="matrix(1,0,0,1,0,0)"><path fill="rgb(229,157,108)" fill-opacity="1" d=" M18.408000946044922,181.27000427246094 C37.06100082397461,224.8470001220703 164.20399475097656,233.88800048828125 194.71299743652344,209.4810028076172 C194.71299743652344,209.4810028076172 181.98399353027344,234.4290008544922 142.6479949951172,235.9510040283203 C103.31199645996094,237.47300720214844 37.0620002746582,219.21499633789062 25.674999237060547,206.0279998779297 C14.288000106811523,192.84100341796875 18.408000946044922,181.27000427246094 18.408000946044922,181.27000427246094z"></path></g></g></g></svg>