<svg xmlns="http://www.w3.org/2000/svg" xmlns:xlink="http://www.w3.org/1999/xlink" viewBox="0 0 512 512" width="512" height="512" style="width: 100%; height: 100%; transform: translate3d(0,0,0); content-visibility: visible;" preserveAspectRatio="xMidYMid meet"><defs><clipPath id="__lottie_element_2"><rect width="512" height="512" x="0" y="0"></rect></clipPath><clipPath id="__lottie_element_4"><path d="M0,0 L512,0 L512,512 L0,512z"></path></clipPath><radialGradient id="__lottie_element_11" spreadMethod="pad" gradientUnits="userSpaceOnUse" cx="-39.13999938964844" cy="-187.1199951171875" r="339.89578882203716" fx="-39.13999938964844" fy="-187.1199951171875"><stop offset="0%" stop-color="rgb(254,240,222)"></stop><stop offset="50%" stop-color="rgb(249,213,185)"></stop><stop offset="100%" stop-color="rgb(244,187,148)"></stop></radialGradient></defs><g clip-path="url(#__lottie_element_2)"><g clip-path="url(#__lottie_element_4)" style="display: block;" transform="matrix(1,0,0,1,0,0)" opacity="1"><g style="display: block;" transform="matrix(0.9077999591827393,0,0,0.9571900367736816,20.174209594726562,37.030364990234375)" opacity="1"><g opacity="1" transform="matrix(1,0,0,1,268.156005859375,231.8090057373047)"><path fill="rgb(235,150,111)" fill-opacity="1" d=" M-221.01100158691406,40.41999816894531 C-207.0229949951172,97.11699676513672 -164.73300170898438,176.17799377441406 -64.47699737548828,200.1529998779297 C54.630001068115234,228.63400268554688 174.30099487304688,186.9149932861328 194.28399658203125,85.48300170898438 C216.4600067138672,-26.250999450683594 176.33700561523438,-64.74600219726562 159.99099731445312,-96.3489990234375 C143.6439971923828,-127.9520034790039 111.69300079345703,-171.2830047607422 77.06999969482422,-194.82699584960938 C36.20399856567383,-222.61599731445312 -41.26300048828125,-224.18600463867188 -83.11299896240234,-211.37399291992188 C-136.51100158691406,-195.0279998779297 -182.2570037841797,-158.03399658203125 -206.53799438476562,-100.49800109863281 C-227.15499877929688,-53.215999603271484 -228.00100708007812,12.086999893188477 -221.01100158691406,40.41999816894531z"></path><path stroke-linecap="butt" stroke-linejoin="miter" fill-opacity="0" stroke-miterlimit="10" stroke="rgb(182,94,49)" stroke-opacity="1" stroke-width="12.235" d=" M-221.01100158691406,40.41999816894531 C-207.0229949951172,97.11699676513672 -164.73300170898438,176.17799377441406 -64.47699737548828,200.1529998779297 C54.630001068115234,228.63400268554688 174.30099487304688,186.9149932861328 194.28399658203125,85.48300170898438 C216.4600067138672,-26.250999450683594 176.33700561523438,-64.74600219726562 159.99099731445312,-96.3489990234375 C143.6439971923828,-127.9520034790039 111.69300079345703,-171.2830047607422 77.06999969482422,-194.82699584960938 C36.20399856567383,-222.61599731445312 -41.26300048828125,-224.18600463867188 -83.11299896240234,-211.37399291992188 C-136.51100158691406,-195.0279998779297 -182.2570037841797,-158.03399658203125 -206.53799438476562,-100.49800109863281 C-227.15499877929688,-53.215999603271484 -228.00100708007812,12.086999893188477 -221.01100158691406,40.41999816894531z"></path></g><g opacity="1" transform="matrix(1,0,0,1,257.6610107421875,221.69700622558594)"><path fill="url(#__lottie_element_11)" fill-opacity="1" d=" M-197.93600463867188,46.5890007019043 C-185.17300415039062,97.3010025024414 -136.10299682617188,169.5 -44.62300109863281,190.94400024414062 C64.05799865722656,216.42100524902344 172.43499755859375,174.69900512695312 192.9040069580078,84.40399932861328 C216.7689971923828,-20.867000579833984 177.14500427246094,-57.742000579833984 162.22999572753906,-86.01000213623047 C147.31399536132812,-114.2770004272461 101.43199920654297,-155.3820037841797 69.83899688720703,-176.44200134277344 C32.55099868774414,-201.2969970703125 -35.54899978637695,-198.5260009765625 -73.73500061035156,-187.06700134277344 C-122.45800018310547,-172.4459991455078 -171.86599731445312,-123.90399932861328 -190.61099243164062,-70.19100189208984 C-203.53799438476562,-33.1510009765625 -204.31399536132812,21.246000289916992 -197.93600463867188,46.5890007019043z"></path></g><g opacity="1" transform="matrix(1,0,0,1,250.41000366210938,138.42799377441406)"><path stroke-linecap="round" stroke-linejoin="round" fill-opacity="0" stroke="rgb(231,131,87)" stroke-opacity="1" stroke-width="8.157" d=" M-50.41600036621094,-17.023000717163086 C-50.41600036621094,-17.023000717163086 -25.55299949645996,-12.472000122070312 -7.269999980926514,20.621999740600586 C6.480000019073486,45.5099983215332 -1.8209999799728394,74.85099792480469 -1.8209999799728394,74.85099792480469"></path></g><g opacity="1" transform="matrix(1,0,0,1,257.7560119628906,192.77999877929688)"><path stroke-linecap="round" stroke-linejoin="round" fill-opacity="0" stroke="rgb(231,130,86)" stroke-opacity="1" stroke-width="8.157" d=" M-12.076000213623047,34.84299850463867 C-12.076000213623047,34.84299850463867 -17.139999389648438,44.21200180053711 -20.136999130249023,50.479000091552734"></path></g></g><g style="display: block;" transform="matrix(1.0694881677627563,0,0,1.127675175666809,-34.521568298339844,50.834022521972656)" opacity="1"><g opacity="1" transform="matrix(1,0,0,1,354.03399658203125,164.31700134277344)"><path fill="rgb(232,145,113)" fill-opacity="1" d=" M-20.608999252319336,-67.90399932861328 C-31.85099983215332,-65.4260025024414 -42.78099822998047,-58.87699890136719 -53.16400146484375,-42.94599914550781 C-67.4800033569336,-20.98200035095215 -69.79299926757812,38.29800033569336 -22.482999801635742,54.22800064086914 C25.329999923706055,70.3280029296875 66.0479965209961,36.17399978637695 67.9219970703125,-5.244999885559082 C69.79399871826172,-46.63999938964844 40.987998962402344,-62.59400177001953 25.763999938964844,-67.90399932861328 C19.649999618530273,-70.03700256347656 8.631999969482422,-70.3280029296875 3.9830000400543213,-70.29399871826172 C-2.5230000019073486,-70.24600219726562 -13.088000297546387,-69.56199645996094 -20.608999252319336,-67.90399932861328z"></path></g><g opacity="1" transform="matrix(1,0,0,1,368.4110107421875,155.65699768066406)"><path fill="rgb(194,193,219)" fill-opacity="1" d=" M-30.01300048828125,-64.63300323486328 C-31.68400001525879,-64.05400085449219 -34.375999450683594,-63.40800094604492 -36.007999420166016,-62.72600173950195 C-43.90399932861328,-59.42300033569336 -65.40799713134766,-46.13100051879883 -66.5199966430664,-11.234999656677246 C-67.94100189208984,33.31800079345703 -42.20000076293945,55.58599853515625 -11.125,62.08700180053711 C21.45800018310547,68.90399932861328 47.393001556396484,52.48099899291992 57.71099853515625,28.358999252319336 C67.94000244140625,4.448999881744385 58.92100143432617,-27.708999633789062 33.0099983215332,-50.82899856567383 C12.753999710083008,-68.90399932861328 -22.93000030517578,-67.08499908447266 -30.01300048828125,-64.63300323486328z"></path></g><g opacity="1" transform="matrix(1,0,0,1,368.4110107421875,155.65699768066406)"><path stroke-linecap="butt" stroke-linejoin="miter" fill-opacity="0" stroke-miterlimit="10" stroke="rgb(108,80,111)" stroke-opacity="1" stroke-width="9" d=" M-30.01300048828125,-64.63300323486328 C-31.68400001525879,-64.05400085449219 -34.375999450683594,-63.40800094604492 -36.007999420166016,-62.72600173950195 C-43.90399932861328,-59.42300033569336 -65.40799713134766,-46.13100051879883 -66.5199966430664,-11.234999656677246 C-67.94100189208984,33.31800079345703 -42.20000076293945,55.58599853515625 -11.125,62.08700180053711 C21.45800018310547,68.90399932861328 47.393001556396484,52.48099899291992 57.71099853515625,28.358999252319336 C67.94000244140625,4.448999881744385 58.92100143432617,-27.708999633789062 33.0099983215332,-50.82899856567383 C12.753999710083008,-68.90399932861328 -22.93000030517578,-67.08499908447266 -30.01300048828125,-64.63300323486328z"></path></g><g opacity="1" transform="matrix(1,0,0,1,369.40899658203125,157.33099365234375)"><path fill="rgb(255,255,255)" fill-opacity="1" d=" M-26.652000427246094,-56.31700134277344 C-36.459999084472656,-53.59299850463867 -58.8380012512207,-41.10499954223633 -59.8390007019043,-10.01099967956543 C-61.117000579833984,29.687000274658203 -37.96200180053711,49.52899932861328 -10.008000373840332,55.321998596191406 C19.30299949645996,61.395999908447266 42.63399887084961,46.762001037597656 51.91600036621094,25.268999099731445 C61.117000579833984,3.9639999866485596 53.00400161743164,-24.690000534057617 29.695999145507812,-45.29100036621094 C11.473999977111816,-61.395999908447266 -19.035999298095703,-58.43299865722656 -26.652000427246094,-56.31700134277344z"></path></g><g opacity="1" transform="matrix(0.8214499950408936,0,0,0.9762300252914429,220,-0.5830000042915344)"><path fill="rgb(252,204,167)" fill-opacity="1" d=" M147.89500427246094,94.00599670410156 C108.9739990234375,106.63800048828125 98.90599822998047,132.41600036621094 97.625,155.0540008544922 C96.55000305175781,174.05299377441406 102.26699829101562,174.83399963378906 99.33300018310547,159.3249969482422 C96.34300231933594,143.52099609375 101.03299713134766,88.93099975585938 168.91700744628906,91.83999633789062 C228.71400451660156,94.40299987792969 238.78900146484375,115.33200073242188 244.98199462890625,129.85400390625 C250.11099243164062,141.8800048828125 256.0889892578125,152.62100219726562 248.82699584960938,131.56199645996094 C240.28500366210938,106.78900146484375 196.58700561523438,78.2020034790039 147.89500427246094,94.00599670410156z"></path><path stroke-linecap="butt" stroke-linejoin="miter" fill-opacity="0" stroke-miterlimit="4" stroke="rgb(124,52,37)" stroke-opacity="1" stroke-width="7" d=" M147.89500427246094,94.00599670410156 C108.9739990234375,106.63800048828125 98.90599822998047,132.41600036621094 97.625,155.0540008544922 C96.55000305175781,174.05299377441406 102.26699829101562,174.83399963378906 99.33300018310547,159.3249969482422 C96.34300231933594,143.52099609375 101.03299713134766,88.93099975585938 168.91700744628906,91.83999633789062 C228.71400451660156,94.40299987792969 238.78900146484375,115.33200073242188 244.98199462890625,129.85400390625 C250.11099243164062,141.8800048828125 256.0889892578125,152.62100219726562 248.82699584960938,131.56199645996094 C240.28500366210938,106.78900146484375 196.58700561523438,78.2020034790039 147.89500427246094,94.00599670410156z"></path></g></g><g style="display: block;" transform="matrix(1.0694881677627563,0,0,1.127675175666809,-34.521568298339844,50.834022521972656)" opacity="1"><g opacity="1" transform="matrix(1,0,0,1,152.5449981689453,171.3719940185547)"><path fill="rgb(232,145,113)" fill-opacity="1" d=" M-10.404000282287598,-66.79000091552734 C-22.257999420166016,-64.37999725341797 -33.78099822998047,-58.01100158691406 -44.72999954223633,-42.51900100708008 C-59.82400131225586,-21.15999984741211 -62.26300048828125,36.48699951171875 -12.380000114440918,51.979000091552734 C38.034000396728516,67.63500213623047 80.96700286865234,34.422000885009766 82.94300079345703,-5.855999946594238 C84.91699981689453,-46.111000061035156 54.542999267578125,-61.625999450683594 38.492000579833984,-66.79000091552734 C32.04499816894531,-68.86399841308594 20.42799949645996,-69.14600372314453 15.526000022888184,-69.11399841308594 C8.666000366210938,-69.06700134277344 -2.4730000495910645,-68.4020004272461 -10.404000282287598,-66.79000091552734z"></path></g><g opacity="1" transform="matrix(1,0,0,1,171.1199951171875,163.42599487304688)"><path fill="rgb(194,193,219)" fill-opacity="1" d=" M-21.97599983215332,-69.85900115966797 C-35.053001403808594,-67.31600189208984 -49.76499938964844,-60.415000915527344 -61.84299850463867,-44.06800079345703 C-78.49600219726562,-21.530000686645508 -81.18599700927734,39.29800033569336 -26.152999877929688,55.64400100708008 C29.46299934387207,72.16400146484375 76.8280029296875,37.11899948120117 79.00800323486328,-5.381999969482422 C81.18599700927734,-47.858001708984375 47.676998138427734,-64.22899627685547 29.9689998626709,-69.677001953125 C22.85700035095215,-71.86599731445312 10.039999961853027,-72.16400146484375 4.631999969482422,-72.12999725341797 C-2.934999942779541,-72.08100128173828 -13.22700023651123,-71.55999755859375 -21.97599983215332,-69.85900115966797z"></path></g><g opacity="1" transform="matrix(1,0,0,1,171.1199951171875,163.42599487304688)"><path stroke-linecap="butt" stroke-linejoin="miter" fill-opacity="0" stroke-miterlimit="10" stroke="rgb(108,80,111)" stroke-opacity="1" stroke-width="9" d=" M-21.97599983215332,-69.85900115966797 C-35.053001403808594,-67.31600189208984 -49.76499938964844,-60.415000915527344 -61.84299850463867,-44.06800079345703 C-78.49600219726562,-21.530000686645508 -81.18599700927734,39.29800033569336 -26.152999877929688,55.64400100708008 C29.46299934387207,72.16400146484375 76.8280029296875,37.11899948120117 79.00800323486328,-5.381999969482422 C81.18599700927734,-47.858001708984375 47.676998138427734,-64.22899627685547 29.9689998626709,-69.677001953125 C22.85700035095215,-71.86599731445312 10.039999961853027,-72.16400146484375 4.631999969482422,-72.12999725341797 C-2.934999942779541,-72.08100128173828 -13.22700023651123,-71.55999755859375 -21.97599983215332,-69.85900115966797z"></path></g><g opacity="1" transform="matrix(1,0,0,1,175.15699768066406,162.99200439453125)"><path fill="rgb(255,255,255)" fill-opacity="1" d=" M-21.729999542236328,-62.150001525878906 C-33.58399963378906,-59.88199996948242 -45.10900115966797,-53.88800048828125 -56.05699920654297,-39.30799865722656 C-71.1520004272461,-19.204999923706055 -73.58999633789062,35.051998138427734 -23.707000732421875,49.63199996948242 C26.707000732421875,64.36799621582031 69.63999938964844,33.108001708984375 71.61499786376953,-4.801000118255615 C73.58899688720703,-42.6879997253418 43.215999603271484,-57.290000915527344 27.165000915527344,-62.150001525878906 C20.718000411987305,-64.10199737548828 9.10200023651123,-64.36799621582031 4.198999881744385,-64.33699798583984 C-2.6600000858306885,-64.29399871826172 -13.800000190734863,-63.667999267578125 -21.729999542236328,-62.150001525878906z"></path></g><g opacity="1" transform="matrix(1,0,0,1,0,0)"><g opacity="1" transform="matrix(1,0,0,1,178.14500427246094,156.3000030517578)"><path fill="rgb(40,19,16)" fill-opacity="1" d=" M-13.666999816894531,-45.474998474121094 C-22.43199920654297,-44.099998474121094 -38.185001373291016,-37.470001220703125 -45.49100112915039,-21.5049991607666 C-54.20899963378906,-2.453000068664551 -47.88999938964844,29.722000122070312 -19.01099967956543,40.56999969482422 C2.2090001106262207,48.542999267578125 26.054000854492188,45.0369987487793 38.74599838256836,31.573999404907227 C45.62099838256836,24.2810001373291 50.196998596191406,14.51200008392334 51.27799987792969,5.11299991607666 C54.20899963378906,-20.382999420166016 40.387001037597656,-34.37099838256836 25.66900062561035,-41.457000732421875 C10.949999809265137,-48.542999267578125 -4.339000225067139,-46.9379997253418 -13.666999816894531,-45.474998474121094z"></path></g><g opacity="1" transform="matrix(1,0,0,1,196.91799926757812,170.43299865722656)"><path fill="rgb(83,45,44)" fill-opacity="1" d=" M0.41600000858306885,-21.173999786376953 C-2.819999933242798,-20.349000930786133 -9.210000038146973,-17.906999588012695 -13.76200008392334,-10.600000381469727 C-17.549999237060547,-4.519000053405762 -22.135000228881836,10.411999702453613 -11.619999885559082,15.720000267028809 C1.5729999542236328,22.378999710083008 18.857999801635742,12.0649995803833 20.582000732421875,0.8880000114440918 C22.13599967956543,-9.1899995803833 17.341999053955078,-16.549999237060547 12.0600004196167,-19.940000534057617 C8.258000373840332,-22.378999710083008 3.7179999351501465,-22.016000747680664 0.41600000858306885,-21.173999786376953z"></path></g><g opacity="1" transform="matrix(0.550000011920929,0,0,0.550000011920929,159.0489959716797,138.28599548339844)"><path fill="rgb(255,255,255)" fill-opacity="1" d=" M0.41600000858306885,-21.173999786376953 C-2.821000099182129,-20.349000930786133 -9.210000038146973,-17.906999588012695 -13.76200008392334,-10.600000381469727 C-17.549999237060547,-4.519000053405762 -22.135000228881836,10.411999702453613 -11.619999885559082,15.720000267028809 C1.5729999542236328,22.378999710083008 18.85700035095215,12.0649995803833 20.582000732421875,0.8880000114440918 C22.13599967956543,-9.1899995803833 17.341999053955078,-16.548999786376953 12.059000015258789,-19.940000534057617 C8.258000373840332,-22.378999710083008 3.7179999351501465,-22.014999389648438 0.41600000858306885,-21.173999786376953z"></path></g><g opacity="0.73" transform="matrix(1,0,0,1,208.83299255371094,152.13499450683594)"><path fill="rgb(255,255,255)" fill-opacity="0.11" d=" M-6.752999782562256,-1.093000054359436 C-7.75,0.6259999871253967 -9.454000473022461,4.7270002365112305 -8.727999687194824,8.35099983215332 C-8.12399959564209,11.368000030517578 -2.8459999561309814,14.517000198364258 2.359999895095825,10.298999786376953 C8.892000198364258,5.00600004196167 10.508999824523926,-8.911999702453613 7.321000099182129,-11.5 C2.1449999809265137,-15.699999809265137 -5.690999984741211,-2.921999931335449 -6.752999782562256,-1.093000054359436z"></path></g><g opacity="0.32" transform="matrix(0.7300000190734863,0,0,0.7300000190734863,166.16200256347656,182.05499267578125)"><path fill="rgb(255,255,255)" fill-opacity="1" d=" M1.8600000143051147,-8.934000015258789 C-0.39100000262260437,-9.477999687194824 -4.710000038146973,-10.248000144958496 -8.407999992370605,-8.468999862670898 C-11.486000061035156,-6.98799991607666 -14.406999588012695,-0.07800000160932541 -7.861000061035156,4.110000133514404 C0.35100001096725464,9.36400032043457 6.625,10.248000144958496 11.211999893188477,6.675000190734863 C14.407999992370605,4.185999870300293 13.947999954223633,-2.7219998836517334 10.663000106811523,-5.066999912261963 C7.379000186920166,-7.4120001792907715 4.25600004196167,-8.354999542236328 1.8600000143051147,-8.934000015258789z"></path></g></g><g opacity="1" transform="matrix(1,0,0,1,0,0)"><path fill="rgb(252,204,167)" fill-opacity="1" d=" M151.01499938964844,92.69400024414062 C112.09400177001953,105.32599639892578 98.90599822998047,132.41600036621094 97.625,155.0540008544922 C96.55000305175781,174.05299377441406 102.26699829101562,174.83399963378906 99.33300018310547,159.3249969482422 C96.34300231933594,143.52099609375 103.63300323486328,88.93099975585938 171.51699829101562,91.83999633789062 C231.31399536132812,94.40299987792969 238.78900146484375,115.33200073242188 244.98199462890625,129.85400390625 C250.11099243164062,141.8800048828125 256.0889892578125,152.62100219726562 248.82699584960938,131.56199645996094 C240.28500366210938,106.78900146484375 199.70700073242188,76.88999938964844 151.01499938964844,92.69400024414062z"></path><path stroke-linecap="butt" stroke-linejoin="miter" fill-opacity="0" stroke-miterlimit="4" stroke="rgb(124,52,37)" stroke-opacity="1" stroke-width="9" d=" M151.01499938964844,92.69400024414062 C112.09400177001953,105.32599639892578 98.90599822998047,132.41600036621094 97.625,155.0540008544922 C96.55000305175781,174.05299377441406 102.26699829101562,174.83399963378906 99.33300018310547,159.3249969482422 C96.34300231933594,143.52099609375 103.63300323486328,88.93099975585938 171.51699829101562,91.83999633789062 C231.31399536132812,94.40299987792969 238.78900146484375,115.33200073242188 244.98199462890625,129.85400390625 C250.11099243164062,141.8800048828125 256.0889892578125,152.62100219726562 248.82699584960938,131.56199645996094 C240.28500366210938,106.78900146484375 199.70700073242188,76.88999938964844 151.01499938964844,92.69400024414062z"></path></g></g><g style="display: block;" transform="matrix(1.0160138607025146,0,0,1.1389518976211548,167.68869018554688,43.50413513183594)" opacity="1"><g opacity="1" transform="matrix(1,0,0,1,0,0)"><g opacity="1" transform="matrix(1,0,0,1,178.14500427246094,156.3000030517578)"><path fill="rgb(40,19,16)" fill-opacity="1" d=" M-13.666999816894531,-45.474998474121094 C-22.43199920654297,-44.099998474121094 -38.185001373291016,-37.470001220703125 -45.49100112915039,-21.5049991607666 C-54.20899963378906,-2.453000068664551 -47.88999938964844,29.722000122070312 -19.01099967956543,40.56999969482422 C2.2090001106262207,48.542999267578125 26.054000854492188,45.0369987487793 38.74599838256836,31.573999404907227 C45.62099838256836,24.2810001373291 50.196998596191406,14.51200008392334 51.27799987792969,5.11299991607666 C54.20899963378906,-20.382999420166016 40.387001037597656,-34.37099838256836 25.66900062561035,-41.457000732421875 C10.949999809265137,-48.542999267578125 -4.339000225067139,-46.9379997253418 -13.666999816894531,-45.474998474121094z"></path></g><g opacity="1" transform="matrix(1,0,0,1,196.91799926757812,170.43299865722656)"><path fill="rgb(83,45,44)" fill-opacity="1" d=" M0.41600000858306885,-21.173999786376953 C-2.819999933242798,-20.349000930786133 -9.210000038146973,-17.906999588012695 -13.76200008392334,-10.600000381469727 C-17.549999237060547,-4.519000053405762 -22.135000228881836,10.411999702453613 -11.619999885559082,15.720000267028809 C1.5729999542236328,22.378999710083008 18.857999801635742,12.0649995803833 20.582000732421875,0.8880000114440918 C22.13599967956543,-9.1899995803833 17.341999053955078,-16.549999237060547 12.0600004196167,-19.940000534057617 C8.258000373840332,-22.378999710083008 3.7179999351501465,-22.016000747680664 0.41600000858306885,-21.173999786376953z"></path></g><g opacity="1" transform="matrix(0.550000011920929,0,0,0.550000011920929,159.0489959716797,138.28599548339844)"><path fill="rgb(255,255,255)" fill-opacity="1" d=" M0.41600000858306885,-21.173999786376953 C-2.821000099182129,-20.349000930786133 -9.210000038146973,-17.906999588012695 -13.76200008392334,-10.600000381469727 C-17.549999237060547,-4.519000053405762 -22.135000228881836,10.411999702453613 -11.619999885559082,15.720000267028809 C1.5729999542236328,22.378999710083008 18.85700035095215,12.0649995803833 20.582000732421875,0.8880000114440918 C22.13599967956543,-9.1899995803833 17.341999053955078,-16.548999786376953 12.059000015258789,-19.940000534057617 C8.258000373840332,-22.378999710083008 3.7179999351501465,-22.014999389648438 0.41600000858306885,-21.173999786376953z"></path></g><g opacity="0.73" transform="matrix(1,0,0,1,208.83299255371094,152.13499450683594)"><path fill="rgb(255,255,255)" fill-opacity="0.11" d=" M-6.752999782562256,-1.093000054359436 C-7.75,0.6259999871253967 -9.454000473022461,4.7270002365112305 -8.727999687194824,8.35099983215332 C-8.12399959564209,11.368000030517578 -2.8459999561309814,14.517000198364258 2.359999895095825,10.298999786376953 C8.892000198364258,5.00600004196167 10.508999824523926,-8.911999702453613 7.321000099182129,-11.5 C2.1449999809265137,-15.699999809265137 -5.690999984741211,-2.921999931335449 -6.752999782562256,-1.093000054359436z"></path></g><g opacity="0.32" transform="matrix(0.7300000190734863,0,0,0.7300000190734863,166.16200256347656,182.05499267578125)"><path fill="rgb(255,255,255)" fill-opacity="1" d=" M1.8600000143051147,-8.934000015258789 C-0.39100000262260437,-9.477999687194824 -4.710000038146973,-10.248000144958496 -8.407999992370605,-8.468999862670898 C-11.486000061035156,-6.98799991607666 -14.406999588012695,-0.07800000160932541 -7.861000061035156,4.110000133514404 C0.35100001096725464,9.36400032043457 6.625,10.248000144958496 11.211999893188477,6.675000190734863 C14.407999992370605,4.185999870300293 13.947999954223633,-2.7219998836517334 10.663000106811523,-5.066999912261963 C7.379000186920166,-7.4120001792907715 4.25600004196167,-8.354999542236328 1.8600000143051147,-8.934000015258789z"></path></g></g></g><g style="display: block;" transform="matrix(1.1981582641601562,0,0,1.2633455991744995,237.91664123535156,337.2928161621094)" opacity="1"><g opacity="1" transform="matrix(1,0,0,1,0,0)"></g><g opacity="1" transform="matrix(1,0,0,1,0,0)"><path fill="rgb(37,225,244)" fill-opacity="1" d=" M-124.81800079345703,-56.262001037597656 C-134.56900024414062,-60.435001373291016 -136.20399475097656,-51.58599853515625 -131.3209991455078,-42.323001861572266 C-130.58700561523438,-40.93000030517578 -125.50800323486328,-33.20500183105469 -112.04199981689453,-31.26099967956543 C-102.03099822998047,-29.81599998474121 -97.2490005493164,-18.14699935913086 -84.14099884033203,-15.435999870300293 C-76.7959976196289,-13.916999816894531 -69.55500030517578,-19.5 -64.05500030517578,-21 C-58.55500030517578,-22.5 -46.645999908447266,-19.823999404907227 -35.625999450683594,-25.39699935913086 C-28.398000717163086,-29.05299949645996 -27.856000900268555,-31.937999725341797 -25.356000900268555,-37.4379997253418 C-22.856000900268555,-42.9379997253418 -25.41200065612793,-44.762001037597656 -25.41200065612793,-44.762001037597656 C-25.41200065612793,-44.762001037597656 -32.47200012207031,-41.90800094604492 -42.97200012207031,-38.40800094604492 C-53.47200012207031,-34.90800094604492 -64.552001953125,-35.08700180053711 -88.11399841308594,-38.88600158691406 C-117.25499725341797,-43.58399963378906 -114.99199676513672,-52.05699920654297 -124.81800079345703,-56.262001037597656z"></path><path stroke-linecap="round" stroke-linejoin="round" fill-opacity="0" stroke="rgb(9,158,198)" stroke-opacity="1" stroke-width="7" d=" M-124.81800079345703,-56.262001037597656 C-134.56900024414062,-60.435001373291016 -136.20399475097656,-51.58599853515625 -131.3209991455078,-42.323001861572266 C-130.58700561523438,-40.93000030517578 -125.50800323486328,-33.20500183105469 -112.04199981689453,-31.26099967956543 C-102.03099822998047,-29.81599998474121 -97.2490005493164,-18.14699935913086 -84.14099884033203,-15.435999870300293 C-76.7959976196289,-13.916999816894531 -69.55500030517578,-19.5 -64.05500030517578,-21 C-58.55500030517578,-22.5 -46.645999908447266,-19.823999404907227 -35.625999450683594,-25.39699935913086 C-28.398000717163086,-29.05299949645996 -27.856000900268555,-31.937999725341797 -25.356000900268555,-37.4379997253418 C-22.856000900268555,-42.9379997253418 -25.41200065612793,-44.762001037597656 -25.41200065612793,-44.762001037597656 C-25.41200065612793,-44.762001037597656 -32.47200012207031,-41.90800094604492 -42.97200012207031,-38.40800094604492 C-53.47200012207031,-34.90800094604492 -64.552001953125,-35.08700180053711 -88.11399841308594,-38.88600158691406 C-117.25499725341797,-43.58399963378906 -114.99199676513672,-52.05699920654297 -124.81800079345703,-56.262001037597656z"></path></g></g><g style="display: block;" transform="matrix(1.0694881677627563,0,0,1.127675175666809,-34.521568298339844,50.834022521972656)" opacity="1"><g opacity="0" transform="matrix(1,0,0,1,126.86000061035156,289.76800537109375)"><path fill="rgb(36,224,244)" fill-opacity="1" d=" M-15.079000473022461,-53.676998138427734 C-16.5310001373291,-68.63400268554688 -15.793000221252441,-57.01100158691406 -14.482999801635742,-60.132999420166016 C-10.859999656677246,-68.76799774169922 -23.149999618530273,-68.56199645996094 -19.80299949645996,-77.21600341796875 C-15.050999641418457,-89.50499725341797 -17.523000717163086,-83.34600067138672 -21.384000778198242,-87.41300201416016 C-25.88800048828125,-92.15699768066406 -12.678000450134277,-93.31099700927734 -8.319000244140625,-90.58599853515625 C-3.9600000381469727,-87.86199951171875 11.114999771118164,-77.96299743652344 21.64900016784668,-75.05699920654297 C29.297000885009766,-72.9469985961914 27.149999618530273,-53.21699905395508 23.920000076293945,-55.986000061035156 C17.562999725341797,-61.435001373291016 9.531999588012695,-67.27799987792969 3.940999984741211,-56.25899887084961 C0.14000000059604645,-48.768001556396484 3.640000104904175,-56.268001556396484 1.2230000495910645,-49.268001556396484 C-1.2000000476837158,-42.25299835205078 0.9940000176429749,-61.64799880981445 -1.3639999628067017,-53.4379997253418 C-2.8570001125335693,-48.2400016784668 -0.7409999966621399,-46.16600036621094 -0.7409999966621399,-46.16600036621094 C4.458000183105469,-51.3650016784668 -5.920000076293945,-43.900001525878906 -11.166999816894531,-47.56100082397461 C-12.859000205993652,-48.74100112915039 -14.470000267028809,-47.40399932861328 -15.079000473022461,-53.676998138427734z"></path><path stroke-linecap="round" stroke-linejoin="round" fill-opacity="0" stroke="rgb(8,158,197)" stroke-opacity="1" stroke-width="7" d=" M-15.079000473022461,-53.676998138427734 C-16.5310001373291,-68.63400268554688 -15.793000221252441,-57.01100158691406 -14.482999801635742,-60.132999420166016 C-10.859999656677246,-68.76799774169922 -23.149999618530273,-68.56199645996094 -19.80299949645996,-77.21600341796875 C-15.050999641418457,-89.50499725341797 -17.523000717163086,-83.34600067138672 -21.384000778198242,-87.41300201416016 C-25.88800048828125,-92.15699768066406 -12.678000450134277,-93.31099700927734 -8.319000244140625,-90.58599853515625 C-3.9600000381469727,-87.86199951171875 11.114999771118164,-77.96299743652344 21.64900016784668,-75.05699920654297 C29.297000885009766,-72.9469985961914 27.149999618530273,-53.21699905395508 23.920000076293945,-55.986000061035156 C17.562999725341797,-61.435001373291016 9.531999588012695,-67.27799987792969 3.940999984741211,-56.25899887084961 C0.14000000059604645,-48.768001556396484 3.640000104904175,-56.268001556396484 1.2230000495910645,-49.268001556396484 C-1.2000000476837158,-42.25299835205078 0.9940000176429749,-61.64799880981445 -1.3639999628067017,-53.4379997253418 C-2.8570001125335693,-48.2400016784668 -0.7409999966621399,-46.16600036621094 -0.7409999966621399,-46.16600036621094 C4.458000183105469,-51.3650016784668 -5.920000076293945,-43.900001525878906 -11.166999816894531,-47.56100082397461 C-12.859000205993652,-48.74100112915039 -14.470000267028809,-47.40399932861328 -15.079000473022461,-53.676998138427734z"></path></g><g opacity="0" transform="matrix(1,0,0,1,160.76800537109375,252.44400024414062)"><path fill="rgb(36,224,244)" fill-opacity="1" d=" M-21.61199951171875,-28.240999221801758 C-17.79800033569336,-24.155000686645508 -19.03499984741211,-33.1870002746582 -15.347000122070312,-25.648000717163086 C-13.581999778747559,-22.038999557495117 -15.727999687194824,-26.298999786376953 -11.168999671936035,-17.788999557495117 C-8.723999977111816,-13.22599983215332 -10.444000244140625,-15.104999542236328 -5.813000202178955,-10.201000213623047 C-1.1820000410079956,-5.296999931335449 2.0429999828338623,-3.7100000381469727 3.677000045776367,-8.340999603271484 C5.311999797821045,-12.972999572753906 5.103000164031982,-14.527000427246094 9.807000160217285,-18.746000289916992 C16.55900001525879,-24.802000045776367 12.192999839782715,-16.3799991607666 15.663999557495117,-17.88800048828125 C21.93000030517578,-20.613000869750977 24.24799919128418,-10.76099967956543 25.881999969482422,-4.2230000495910645 C26.415000915527344,-2.0920000076293945 26.427000045776367,-21.659000396728516 26.427000045776367,-21.659000396728516 C26.427000045776367,-21.659000396728516 23.43000030517578,-30.375999450683594 23.43000030517578,-30.375999450683594 C23.43000030517578,-30.375999450683594 22.613000869750977,-37.1879997253418 22.613000869750977,-37.1879997253418 C22.613000869750977,-37.1879997253418 11.442999839782715,-35.82500076293945 0.9089999794960022,-36.82400131225586 C-12.47599983215332,-38.09400177001953 -23.79199981689453,-42.637001037597656 -23.79199981689453,-42.637001037597656 C-23.79199981689453,-42.637001037597656 -26.426000595092773,-25.201000213623047 -26.426000595092773,-25.201000213623047 C-26.426000595092773,-25.201000213623047 -27.562999725341797,-34.617000579833984 -21.61199951171875,-28.240999221801758z"></path><path stroke-linecap="round" stroke-linejoin="round" fill-opacity="0" stroke="rgb(8,158,197)" stroke-opacity="1" stroke-width="7" d=" M-21.61199951171875,-28.240999221801758 C-17.79800033569336,-24.155000686645508 -19.03499984741211,-33.1870002746582 -15.347000122070312,-25.648000717163086 C-13.581999778747559,-22.038999557495117 -15.727999687194824,-26.298999786376953 -11.168999671936035,-17.788999557495117 C-8.723999977111816,-13.22599983215332 -10.444000244140625,-15.104999542236328 -5.813000202178955,-10.201000213623047 C-1.1820000410079956,-5.296999931335449 2.0429999828338623,-3.7100000381469727 3.677000045776367,-8.340999603271484 C5.311999797821045,-12.972999572753906 5.103000164031982,-14.527000427246094 9.807000160217285,-18.746000289916992 C16.55900001525879,-24.802000045776367 12.192999839782715,-16.3799991607666 15.663999557495117,-17.88800048828125 C21.93000030517578,-20.613000869750977 24.24799919128418,-10.76099967956543 25.881999969482422,-4.2230000495910645 C26.415000915527344,-2.0920000076293945 26.427000045776367,-21.659000396728516 26.427000045776367,-21.659000396728516 C26.427000045776367,-21.659000396728516 23.43000030517578,-30.375999450683594 23.43000030517578,-30.375999450683594 C23.43000030517578,-30.375999450683594 22.613000869750977,-37.1879997253418 22.613000869750977,-37.1879997253418 C22.613000869750977,-37.1879997253418 11.442999839782715,-35.82500076293945 0.9089999794960022,-36.82400131225586 C-12.47599983215332,-38.09400177001953 -23.79199981689453,-42.637001037597656 -23.79199981689453,-42.637001037597656 C-23.79199981689453,-42.637001037597656 -26.426000595092773,-25.201000213623047 -26.426000595092773,-25.201000213623047 C-26.426000595092773,-25.201000213623047 -27.562999725341797,-34.617000579833984 -21.61199951171875,-28.240999221801758z"></path></g><g opacity="1" transform="matrix(1,0,0,1,192.09800720214844,312.5169982910156)"></g><g opacity="0" transform="matrix(1,0,0,1,192.09800720214844,312.5169982910156)"><path fill="rgb(36,224,244)" fill-opacity="1" d=" M18.259000778198242,-102.62200164794922 C29.1560001373291,-105.16400146484375 34.676998138427734,-107.12200164794922 33.72600173950195,-104.26899719238281 C31.54599952697754,-97.73100280761719 30.46299934387207,-95.30400085449219 24.64299964904785,-92.35900115966797 C15.11400032043457,-87.53700256347656 17.413999557495117,-86.0780029296875 18.416000366210938,-81.18699645996094 C18.996000289916992,-78.35399627685547 20.492000579833984,-79.8499984741211 13.130999565124512,-70.66100311279297 C4.170000076293945,-59.4739990234375 13.013999938964844,-69.87899780273438 8.093000411987305,-55.77000045776367 C5.395999908447266,-48.0359992980957 4.60099983215332,-47.43299865722656 3.1740000247955322,-47.02899932861328 C-5.929999828338623,-44.45399856567383 -2.3580000400543213,-48.05699920654297 -1.9299999475479126,-51.20600128173828 C1.9559999704360962,-79.78099822998047 -1.7289999723434448,-59.9900016784668 0.628000020980835,-75.60600280761719 C1.6549999713897705,-82.41400146484375 1.8140000104904175,-77.83999633789062 -3.634000062942505,-83.93299865722656 C-12.90999984741211,-94.30799865722656 -10.916000366210938,-78.35399627685547 -14.331000328063965,-84.45999908447266 C-17.444000244140625,-90.0260009765625 -14.166000366210938,-76.8280029296875 -15.255999565124512,-82.8219985961914 C-16.34600067138672,-88.81500244140625 -18.733999252319336,-95.68900299072266 -8.717000007629395,-97.26000213623047 C5.177000045776367,-99.44000244140625 18.214000701904297,-102.61100006103516 18.259000778198242,-102.62200164794922z"></path><path stroke-linecap="butt" stroke-linejoin="miter" fill-opacity="0" stroke-miterlimit="10" stroke="rgb(8,158,197)" stroke-opacity="1" stroke-width="7" d=" M18.259000778198242,-102.62200164794922 C29.1560001373291,-105.16400146484375 34.676998138427734,-107.12200164794922 33.72600173950195,-104.26899719238281 C31.54599952697754,-97.73100280761719 30.46299934387207,-95.30400085449219 24.64299964904785,-92.35900115966797 C15.11400032043457,-87.53700256347656 17.413999557495117,-86.0780029296875 18.416000366210938,-81.18699645996094 C18.996000289916992,-78.35399627685547 20.492000579833984,-79.8499984741211 13.130999565124512,-70.66100311279297 C4.170000076293945,-59.4739990234375 13.013999938964844,-69.87899780273438 8.093000411987305,-55.77000045776367 C5.395999908447266,-48.0359992980957 4.60099983215332,-47.43299865722656 3.1740000247955322,-47.02899932861328 C-5.929999828338623,-44.45399856567383 -2.3580000400543213,-48.05699920654297 -1.9299999475479126,-51.20600128173828 C1.9559999704360962,-79.78099822998047 -1.7289999723434448,-59.9900016784668 0.628000020980835,-75.60600280761719 C1.6549999713897705,-82.41400146484375 1.8140000104904175,-77.83999633789062 -3.634000062942505,-83.93299865722656 C-12.90999984741211,-94.30799865722656 -10.916000366210938,-78.35399627685547 -14.331000328063965,-84.45999908447266 C-17.444000244140625,-90.0260009765625 -14.166000366210938,-76.8280029296875 -15.255999565124512,-82.8219985961914 C-16.34600067138672,-88.81500244140625 -18.733999252319336,-95.68900299072266 -8.717000007629395,-97.26000213623047 C5.177000045776367,-99.44000244140625 18.214000701904297,-102.61100006103516 18.259000778198242,-102.62200164794922z"></path></g><g opacity="0" transform="matrix(1,0,0,1,136.6580047607422,219.61500549316406)"><path fill="rgb(36,224,244)" fill-opacity="1" d=" M-13.758000373840332,-12.805000305175781 C-13.758000373840332,-12.805000305175781 -7.21999979019165,-8.989999771118164 -0.13600000739097595,-6.809999942779541 C6.947000026702881,-4.63100004196167 13.758000373840332,-1.3619999885559082 13.758000373840332,-1.3619999885559082 C13.758000373840332,-1.3619999885559082 12.123000144958496,9.263999938964844 12.123000144958496,9.263999938964844 C12.123000144958496,9.263999938964844 6.947000026702881,2.4519999027252197 -0.9539999961853027,4.359000205993652 C-7.321000099182129,5.895999908447266 -9.126999855041504,12.805000305175781 -9.126999855041504,12.805000305175781 C-9.126999855041504,12.805000305175781 -13.758000373840332,-9.807000160217285 -13.758000373840332,-9.807000160217285 C-13.758000373840332,-9.807000160217285 -13.758000373840332,-12.805000305175781 -13.758000373840332,-12.805000305175781z"></path></g><g opacity="0" transform="matrix(1,0,0,1,117.5770034790039,218.0279998779297)"><path fill="rgb(255,255,255)" fill-opacity="1" d=" M5.260000228881836,0 C5.260000228881836,5.142000198364258 2.9049999713897705,9.310999870300293 0,9.310999870300293 C-2.9049999713897705,9.310999870300293 -5.260000228881836,5.142000198364258 -5.260000228881836,0 C-5.260000228881836,-5.142000198364258 -2.9049999713897705,-9.310999870300293 0,-9.310999870300293 C2.9049999713897705,-9.310999870300293 5.260000228881836,-5.142000198364258 5.260000228881836,0z"></path></g><g opacity="0" transform="matrix(1,0,0,1,168.98699951171875,384.69598388671875)"><path fill="rgb(255,255,255)" fill-opacity="1" d=" M13.069000244140625,-37.88800048828125 C13.069000244140625,-33.58599853515625 10.788999557495117,-30.097999572753906 7.9770002365112305,-30.097999572753906 C5.164000034332275,-30.097999572753906 2.884000062942505,-33.58599853515625 2.884000062942505,-37.88800048828125 C2.884000062942505,-42.191001892089844 5.164000034332275,-45.67900085449219 7.9770002365112305,-45.67900085449219 C10.788999557495117,-45.67900085449219 13.069000244140625,-42.191001892089844 13.069000244140625,-37.88800048828125z"></path></g><g opacity="1" transform="matrix(-0.03695765510201454,0.9993168115615845,-0.9993168115615845,-0.03695765510201454,158.9149932861328,219.5030059814453)"><path fill="rgb(255,255,255)" fill-opacity="1" d=" M3.1610000133514404,0.008999999612569809 C3.1610000133514404,2.98799991607666 1.6440000534057617,5.4019999504089355 -0.22599999606609344,5.4019999504089355 C-2.0969998836517334,5.4019999504089355 -3.61299991607666,2.98799991607666 -3.61299991607666,0.008999999612569809 C-3.61299991607666,-2.9700000286102295 -2.0969998836517334,-5.385000228881836 -0.22599999606609344,-5.385000228881836 C1.6440000534057617,-5.385000228881836 3.1610000133514404,-2.9700000286102295 3.1610000133514404,0.008999999612569809z"></path></g><g opacity="0" transform="matrix(1,0,0,1,174.93499755859375,222.06700134277344)"><path fill="rgb(59,240,255)" fill-opacity="1" d=" M-49.481998443603516,-13.517000198364258 C-49.481998443603516,-13.517000198364258 -23.683000564575195,6.443999767303467 -1.5779999494552612,4.914999961853027 C22.167999267578125,3.2720000743865967 49.55099868774414,-8.668000221252441 47.26599884033203,-13.640999794006348 C45.54999923706055,-17.375 11.631999969482422,-5.001999855041504 -6.168000221252441,-6.0920000076293945 C-23.966999053955078,-7.181000232696533 -53.5359992980957,-24.43899917602539 -54.99599838256836,-22.006000518798828 C-58.26499938964844,-16.55699920654297 -49.481998443603516,-13.517000198364258 -49.481998443603516,-13.517000198364258z"></path></g><g opacity="0" transform="matrix(1,0,0,1,11.363006591796875,-83.333984375)"><path fill="rgb(36,224,244)" fill-opacity="1" d=" M150.5,303 C150.5,303 143.5,304 142,314.5 C140.90199279785156,322.1839904785156 141.5399932861328,327.61700439453125 149,325 C158.4010009765625,321.7019958496094 153.5,309.5 153,305.5 C152.5,301.5 150.5,303 150.5,303z"></path><path stroke-linecap="butt" stroke-linejoin="miter" fill-opacity="0" stroke-miterlimit="4" stroke="rgb(8,158,197)" stroke-opacity="1" stroke-width="7" d=" M150.5,303 C150.5,303 143.5,304 142,314.5 C140.90199279785156,322.1839904785156 141.5399932861328,327.61700439453125 149,325 C158.4010009765625,321.7019958496094 153.5,309.5 153,305.5 C152.5,301.5 150.5,303 150.5,303z"></path></g><g opacity="0" transform="matrix(1,0,0,1,11.363006591796875,-83.333984375)"><path fill="rgb(36,224,244)" fill-opacity="1" d=" M150.5,303 C150.5,303 143.5,304 142,314.5 C140.90199279785156,322.1839904785156 141.5399932861328,327.61700439453125 149,325 C158.4010009765625,321.7019958496094 153.5,309.5 153,305.5 C152.5,301.5 150.5,303 150.5,303z"></path><path stroke-linecap="butt" stroke-linejoin="miter" fill-opacity="0" stroke-miterlimit="4" stroke="rgb(8,158,197)" stroke-opacity="1" stroke-width="7" d=" M150.5,303 C150.5,303 143.5,304 142,314.5 C140.90199279785156,322.1839904785156 141.5399932861328,327.61700439453125 149,325 C158.4010009765625,321.7019958496094 153.5,309.5 153,305.5 C152.5,301.5 150.5,303 150.5,303z"></path></g><g opacity="0" transform="matrix(1,0,0,1,11.363006591796875,-83.333984375)"><path fill="rgb(36,224,244)" fill-opacity="1" d=" M150.5,303 C150.5,303 143.5,304 142,314.5 C140.90199279785156,322.1839904785156 141.5399932861328,327.61700439453125 149,325 C158.4010009765625,321.7019958496094 153.5,309.5 153,305.5 C152.5,301.5 150.5,303 150.5,303z"></path><path stroke-linecap="butt" stroke-linejoin="miter" fill-opacity="0" stroke-miterlimit="4" stroke="rgb(8,158,197)" stroke-opacity="1" stroke-width="7" d=" M150.5,303 C150.5,303 143.5,304 142,314.5 C140.90199279785156,322.1839904785156 141.5399932861328,327.61700439453125 149,325 C158.4010009765625,321.7019958496094 153.5,309.5 153,305.5 C152.5,301.5 150.5,303 150.5,303z"></path></g></g><g style="display: block;" transform="matrix(1.0694881677627563,0,0,1.127675175666809,-34.521568298339844,50.834022521972656)" opacity="1"><g opacity="1" transform="matrix(0.8214499950408936,0,0,0.9762300252914429,220,-0.5830000042915344)"><path fill="rgb(252,204,167)" fill-opacity="1" d=" M147.89500427246094,94.00599670410156 C108.9739990234375,106.63800048828125 98.90599822998047,132.41600036621094 97.625,155.0540008544922 C96.55000305175781,174.05299377441406 102.26699829101562,174.83399963378906 99.33300018310547,159.3249969482422 C96.34300231933594,143.52099609375 101.03299713134766,88.93099975585938 168.91700744628906,91.83999633789062 C228.71400451660156,94.40299987792969 238.78900146484375,115.33200073242188 244.98199462890625,129.85400390625 C250.11099243164062,141.8800048828125 256.0889892578125,152.62100219726562 248.82699584960938,131.56199645996094 C240.28500366210938,106.78900146484375 196.58700561523438,78.2020034790039 147.89500427246094,94.00599670410156z"></path><path stroke-linecap="butt" stroke-linejoin="miter" fill-opacity="0" stroke-miterlimit="4" stroke="rgb(124,52,37)" stroke-opacity="1" stroke-width="9" d=" M147.89500427246094,94.00599670410156 C108.9739990234375,106.63800048828125 98.90599822998047,132.41600036621094 97.625,155.0540008544922 C96.55000305175781,174.05299377441406 102.26699829101562,174.83399963378906 99.33300018310547,159.3249969482422 C96.34300231933594,143.52099609375 101.03299713134766,88.93099975585938 168.91700744628906,91.83999633789062 C228.71400451660156,94.40299987792969 238.78900146484375,115.33200073242188 244.98199462890625,129.85400390625 C250.11099243164062,141.8800048828125 256.0889892578125,152.62100219726562 248.82699584960938,131.56199645996094 C240.28500366210938,106.78900146484375 196.58700561523438,78.2020034790039 147.89500427246094,94.00599670410156z"></path></g></g><g style="display: block;" transform="matrix(-1.0658577680587769,0.03469003736972809,0.03696620836853981,1.2627443075180054,284.785888671875,335.9283447265625)" opacity="1"><g opacity="1" transform="matrix(1,0,0,1,0,0)"><path fill="rgb(37,225,244)" fill-opacity="1" d=" M-124.81800079345703,-56.262001037597656 C-134.56900024414062,-60.435001373291016 -136.20399475097656,-51.58599853515625 -131.3209991455078,-42.323001861572266 C-130.58700561523438,-40.93000030517578 -125.50800323486328,-33.20500183105469 -112.04199981689453,-31.26099967956543 C-102.03099822998047,-29.81599998474121 -97.2490005493164,-18.14699935913086 -84.14099884033203,-15.435999870300293 C-76.7959976196289,-13.916999816894531 -69.55500030517578,-19.5 -64.05500030517578,-21 C-58.55500030517578,-22.5 -46.645999908447266,-19.823999404907227 -35.625999450683594,-25.39699935913086 C-28.398000717163086,-29.05299949645996 -27.856000900268555,-31.937999725341797 -25.356000900268555,-37.4379997253418 C-22.856000900268555,-42.9379997253418 -25.41200065612793,-44.762001037597656 -25.41200065612793,-44.762001037597656 C-25.41200065612793,-44.762001037597656 -32.47200012207031,-41.90800094604492 -42.97200012207031,-38.40800094604492 C-53.47200012207031,-34.90800094604492 -64.552001953125,-35.08700180053711 -88.11399841308594,-38.88600158691406 C-117.25499725341797,-43.58399963378906 -114.99199676513672,-52.05699920654297 -124.81800079345703,-56.262001037597656z"></path><path stroke-linecap="round" stroke-linejoin="round" fill-opacity="0" stroke="rgb(9,158,198)" stroke-opacity="1" stroke-width="7" d=" M-124.81800079345703,-56.262001037597656 C-134.56900024414062,-60.435001373291016 -136.20399475097656,-51.58599853515625 -131.3209991455078,-42.323001861572266 C-130.58700561523438,-40.93000030517578 -125.50800323486328,-33.20500183105469 -112.04199981689453,-31.26099967956543 C-102.03099822998047,-29.81599998474121 -97.2490005493164,-18.14699935913086 -84.14099884033203,-15.435999870300293 C-76.7959976196289,-13.916999816894531 -69.55500030517578,-19.5 -64.05500030517578,-21 C-58.55500030517578,-22.5 -46.645999908447266,-19.823999404907227 -35.625999450683594,-25.39699935913086 C-28.398000717163086,-29.05299949645996 -27.856000900268555,-31.937999725341797 -25.356000900268555,-37.4379997253418 C-22.856000900268555,-42.9379997253418 -25.41200065612793,-44.762001037597656 -25.41200065612793,-44.762001037597656 C-25.41200065612793,-44.762001037597656 -32.47200012207031,-41.90800094604492 -42.97200012207031,-38.40800094604492 C-53.47200012207031,-34.90800094604492 -64.552001953125,-35.08700180053711 -88.11399841308594,-38.88600158691406 C-117.25499725341797,-43.58399963378906 -114.99199676513672,-52.05699920654297 -124.81800079345703,-56.262001037597656z"></path></g></g><g style="display: none;"><g><path></path><path stroke-linecap="round" stroke-linejoin="round" fill-opacity="0"></path></g><g><path></path><path stroke-linecap="round" stroke-linejoin="round" fill-opacity="0"></path></g><g></g><g><path></path><path stroke-linecap="butt" stroke-linejoin="miter" fill-opacity="0" stroke-miterlimit="10"></path></g><g><path></path></g><g><path></path></g><g><path></path></g><g><path></path></g><g><path></path></g><g><path></path><path stroke-linecap="butt" stroke-linejoin="miter" fill-opacity="0" stroke-miterlimit="4"></path></g><g><path></path><path stroke-linecap="butt" stroke-linejoin="miter" fill-opacity="0" stroke-miterlimit="4"></path></g><g><path></path><path stroke-linecap="butt" stroke-linejoin="miter" fill-opacity="0" stroke-miterlimit="4"></path></g></g><g style="display: block;" transform="matrix(1.0694881677627563,0,0,1.127675175666809,-34.521568298339844,50.834022521972656)" opacity="1"><g opacity="1" transform="matrix(1,0,0,1,344.9360046386719,69.22899627685547)"><path fill="rgb(51,19,9)" fill-opacity="1" d=" M-43.909000396728516,-21.163999557495117 C-43.909000396728516,-21.163999557495117 -23.892000198364258,-27.614999771118164 -1.7339999675750732,-26.88800048828125 C20.424999237060547,-26.16200065612793 32.5,-28.040000915527344 52.48699951171875,-12.168000221252441 C65.74800109863281,-1.6369999647140503 76.89099884033203,23.43000030517578 76.89099884033203,23.43000030517578 C76.89099884033203,23.43000030517578 54.64799880981445,1.7209999561309814 30.35700035095215,-2.6559998989105225 C6.824999809265137,-6.895999908447266 -5.257999897003174,-1.6109999418258667 -25.23900032043457,-9.67300033569336 C-43.14099884033203,-16.895999908447266 -43.909000396728516,-21.163999557495117 -43.909000396728516,-21.163999557495117z"></path><path stroke-linecap="round" stroke-linejoin="round" fill-opacity="0" stroke="rgb(51,19,9)" stroke-opacity="1" stroke-width="5" d=" M-43.909000396728516,-21.163999557495117 C-43.909000396728516,-21.163999557495117 -23.892000198364258,-27.614999771118164 -1.7339999675750732,-26.88800048828125 C20.424999237060547,-26.16200065612793 32.5,-28.040000915527344 52.48699951171875,-12.168000221252441 C65.74800109863281,-1.6369999647140503 76.89099884033203,23.43000030517578 76.89099884033203,23.43000030517578 C76.89099884033203,23.43000030517578 54.64799880981445,1.7209999561309814 30.35700035095215,-2.6559998989105225 C6.824999809265137,-6.895999908447266 -5.257999897003174,-1.6109999418258667 -25.23900032043457,-9.67300033569336 C-43.14099884033203,-16.895999908447266 -43.909000396728516,-21.163999557495117 -43.909000396728516,-21.163999557495117z"></path></g></g><g style="display: block;" transform="matrix(1.0694881677627563,0,0,1.127675175666809,-34.521568298339844,50.834022521972656)" opacity="1"><g opacity="1" transform="matrix(1,0,0,1,171.14100646972656,73.375)"><path fill="rgb(51,18,9)" fill-opacity="1" d=" M-68.01399993896484,-5.017000198364258 C-64.04100036621094,-12.258999824523926 -61.74300003051758,-21.54800033569336 -41.87099838256836,-30.743000030517578 C-18.08799934387207,-41.74800109863281 1.4110000133514404,-38.124000549316406 15.229000091552734,-36.01100158691406 C40.882999420166016,-32.08700180053711 56.534000396728516,-27.93400001525879 56.534000396728516,-27.93400001525879 C56.534000396728516,-27.93400001525879 57.88800048828125,-20.445999145507812 55.4630012512207,-19.6560001373291 C34.880001068115234,-12.944999694824219 16.743000030517578,-14.881999969482422 8.49899959564209,-14.305000305175781 C-7.408999919891357,-13.192000389099121 -18.73699951171875,-11.71500015258789 -28.930999755859375,-7.732999801635742 C-42.387001037597656,-2.4769999980926514 -53.33599853515625,8.08899974822998 -59.57099914550781,15.477999687194824 C-71.7750015258789,29.941999435424805 -74.83799743652344,34.60200119018555 -74.83799743652344,34.60200119018555 C-77.67500305175781,37.387001037597656 -79.14900207519531,15.281000137329102 -68.01399993896484,-5.017000198364258z"></path><path stroke-linecap="round" stroke-linejoin="round" fill-opacity="0" stroke="rgb(51,19,9)" stroke-opacity="1" stroke-width="5" d=" M-68.01399993896484,-5.017000198364258 C-64.04100036621094,-12.258999824523926 -61.74300003051758,-21.54800033569336 -41.87099838256836,-30.743000030517578 C-18.08799934387207,-41.74800109863281 1.4110000133514404,-38.124000549316406 15.229000091552734,-36.01100158691406 C40.882999420166016,-32.08700180053711 56.534000396728516,-27.93400001525879 56.534000396728516,-27.93400001525879 C56.534000396728516,-27.93400001525879 57.88800048828125,-20.445999145507812 55.4630012512207,-19.6560001373291 C34.880001068115234,-12.944999694824219 16.743000030517578,-14.881999969482422 8.49899959564209,-14.305000305175781 C-7.408999919891357,-13.192000389099121 -18.73699951171875,-11.71500015258789 -28.930999755859375,-7.732999801635742 C-42.387001037597656,-2.4769999980926514 -53.33599853515625,8.08899974822998 -59.57099914550781,15.477999687194824 C-71.7750015258789,29.941999435424805 -74.83799743652344,34.60200119018555 -74.83799743652344,34.60200119018555 C-77.67500305175781,37.387001037597656 -79.14900207519531,15.281000137329102 -68.01399993896484,-5.017000198364258z"></path></g></g><g style="display: block;" transform="matrix(1.0694881677627563,0,0,1.127675175666809,-34.521568298339844,50.834022521972656)" opacity="1"><g opacity="1" transform="matrix(1,0,0,1,280.59600830078125,218.1219940185547)"><path fill="rgb(232,145,113)" fill-opacity="1" d=" M-42.000999450683594,1.4019999504089355 C-42.000999450683594,1.4019999504089355 -32.25699996948242,5.918000221252441 -25.06100082397461,5.129000186920166 C-12.593999862670898,3.76200008392334 -10.493000030517578,3.4790000915527344 -1.2300000190734863,1.843999981880188 C8.48799991607666,0.1289999932050705 22.054000854492188,0.19499999284744263 28.04800033569336,3.193000078201294 C34.04100036621094,6.189000129699707 39.15299987792969,7.6519999504089355 46.665000915527344,9.005000114440918 C53.47600173950195,10.229999542236328 47.47800064086914,11.067999839782715 47.47800064086914,11.067999839782715 C47.47800064086914,11.067999839782715 43.53099822998047,14.218999862670898 35.902000427246094,13.402000427246094 C28.27400016784668,12.583999633789062 24.44499969482422,9.60200023651123 17.36199951171875,9.60200023651123 C10.277999877929688,9.60200023651123 8.168999671936035,10.276000022888184 8.168999671936035,10.276000022888184 C8.168999671936035,10.276000022888184 1.4739999771118164,11.494000434875488 1.4739999771118164,11.494000434875488 C1.4739999771118164,11.494000434875488 -10.39799976348877,12.527000427246094 -10.39799976348877,12.527000427246094 C-10.39799976348877,12.527000427246094 -24.020000457763672,9.847999572753906 -24.020000457763672,9.847999572753906 C-24.020000457763672,9.847999572753906 -33.555999755859375,9.847999572753906 -33.555999755859375,9.847999572753906 C-33.555999755859375,9.847999572753906 -45.814998626708984,5.488999843597412 -45.814998626708984,5.488999843597412 C-45.814998626708984,5.488999843597412 -42.000999450683594,1.4019999504089355 -42.000999450683594,1.4019999504089355z"></path></g><g opacity="1" transform="matrix(1,0,0,1,283.9830017089844,257.8949890136719)"><path stroke-linecap="round" stroke-linejoin="round" fill-opacity="0" stroke="rgb(209,112,70)" stroke-opacity="1" stroke-width="8.157" d=" M-28.698999404907227,-3.3589999675750732 C-28.698999404907227,-3.3589999675750732 -15.01099967956543,-10.862000465393066 1.9179999828338623,-9.092000007629395 C18.84600067138672,-7.322000026702881 32.441001892089844,0.8849999904632568 32.441001892089844,0.8849999904632568"></path></g><g opacity="1" transform="matrix(1,0,0,1,276.9630126953125,240.1840057373047)"><path fill="rgb(43,31,21)" fill-opacity="1" d=" M-34.736000061035156,-8.854999542236328 C-34.736000061035156,-8.854999542236328 -32.20000076293945,-13.970000267028809 -30.020000457763672,-9.883000373840332 C-27.840999603271484,-5.796999931335449 -26.13599967956543,-7.318999767303467 -23.41200065612793,-7.2769999504089355 C-12.619000434875488,-7.110000133514404 -6.304999828338623,-9.569999694824219 11.026000022888184,-8.418999671936035 C27.072999954223633,-7.353000164031982 32.516998291015625,-2.4749999046325684 35.047000885009766,-2.924999952316284 C39.678001403808594,-3.749000072479248 40.50899887084961,-4.995999813079834 41.58300018310547,-7.599999904632568 C43.599998474121094,-12.489999771118164 40.14500045776367,-6.103000164031982 40.14500045776367,-6.103000164031982 C40.14500045776367,-6.103000164031982 17.415000915527344,-10.074999809265137 17.415000915527344,-10.074999809265137 C17.415000915527344,-10.074999809265137 2.200000047683716,-10.361000061035156 2.200000047683716,-10.361000061035156 C2.200000047683716,-10.361000061035156 -13.57699966430664,-8.057000160217285 -13.57699966430664,-8.057000160217285 C-13.57699966430664,-8.057000160217285 -29.014999389648438,-10.217000007629395 -29.014999389648438,-10.217000007629395 C-29.014999389648438,-10.217000007629395 -34.736000061035156,-8.854999542236328 -34.736000061035156,-8.854999542236328z"></path><path stroke-linecap="round" stroke-linejoin="round" fill-opacity="0" stroke="rgb(40,19,16)" stroke-opacity="1" stroke-width="6" d=" M-34.736000061035156,-8.854999542236328 C-34.736000061035156,-8.854999542236328 -32.20000076293945,-13.970000267028809 -30.020000457763672,-9.883000373840332 C-27.840999603271484,-5.796999931335449 -26.13599967956543,-7.318999767303467 -23.41200065612793,-7.2769999504089355 C-12.619000434875488,-7.110000133514404 -6.304999828338623,-9.569999694824219 11.026000022888184,-8.418999671936035 C27.072999954223633,-7.353000164031982 32.516998291015625,-2.4749999046325684 35.047000885009766,-2.924999952316284 C39.678001403808594,-3.749000072479248 40.50899887084961,-4.995999813079834 41.58300018310547,-7.599999904632568 C43.599998474121094,-12.489999771118164 40.14500045776367,-6.103000164031982 40.14500045776367,-6.103000164031982 C40.14500045776367,-6.103000164031982 17.415000915527344,-10.074999809265137 17.415000915527344,-10.074999809265137 C17.415000915527344,-10.074999809265137 2.200000047683716,-10.361000061035156 2.200000047683716,-10.361000061035156 C2.200000047683716,-10.361000061035156 -13.57699966430664,-8.057000160217285 -13.57699966430664,-8.057000160217285 C-13.57699966430664,-8.057000160217285 -29.014999389648438,-10.217000007629395 -29.014999389648438,-10.217000007629395 C-29.014999389648438,-10.217000007629395 -34.736000061035156,-8.854999542236328 -34.736000061035156,-8.854999542236328z"></path></g><g opacity="1" transform="matrix(0.7910840511322021,-0.30172181129455566,0.30172181129455566,0.7910840511322021,233.02000427246094,227.13800048828125)"><path fill="rgb(40,19,16)" fill-opacity="1" d=" M0.44600000977516174,-6.8429999351501465 C0.44600000977516174,-6.8429999351501465 -0.8840000033378601,-5.078999996185303 -4.020999908447266,-0.7260000109672546 C-7.158999919891357,3.625999927520752 -11.15999984741211,7.927999973297119 -11.15999984741211,7.927999973297119 C-11.15999984741211,7.927999973297119 -14.20199966430664,11.475000381469727 -10.074000358581543,11.053000450134277 C-6.052999973297119,10.642000198364258 0.12200000137090683,10.29699993133545 2.9049999713897705,10.77400016784668 C8.810999870300293,11.788000106811523 14.20199966430664,14.458000183105469 14.20199966430664,14.458000183105469 C14.20199966430664,14.458000183105469 10.35200023651123,8.138999938964844 10.35200023651123,8.138999938964844 C10.35200023651123,8.138999938964844 26.45199966430664,15.906000137329102 26.820999145507812,13.755000114440918 C27.19099998474121,11.602999687194824 12.538999557495117,3.885999917984009 11.869999885559082,1.0080000162124634 C11.20199966430664,-1.8700000047683716 7.89300012588501,-7.98799991607666 5.710999965667725,-7.923999786376953 C3.5290000438690186,-7.859000205993652 0.44600000977516174,-6.8429999351501465 0.44600000977516174,-6.8429999351501465z"></path></g><g opacity="1" transform="matrix(1,0,0,1,278.82501220703125,224.79100036621094)"><path stroke-linecap="round" stroke-linejoin="round" fill-opacity="0" stroke="rgb(40,19,16)" stroke-opacity="1" stroke-width="8.538" d=" M-42.62900161743164,5.099999904632568 C-42.62900161743164,5.099999904632568 -34.0620002746582,7.046999931335449 -21.673999786376953,6.089000225067139 C-7.497000217437744,4.993000030517578 5.456999778747559,3.5299999713897705 18.534000396728516,4.619999885559082 C31.611000061035156,5.709000110626221 26.702999114990234,4.586999893188477 32.87799835205078,6.039999961853027 C37.840999603271484,7.208000183105469 45.542999267578125,7.254000186920166 45.542999267578125,7.254000186920166"></path></g></g></g></g></svg>