<svg xmlns="http://www.w3.org/2000/svg" xmlns:xlink="http://www.w3.org/1999/xlink" viewBox="0 0 512 512" width="512" height="512" style="width: 100%; height: 100%; transform: translate3d(0,0,0); content-visibility: visible;" preserveAspectRatio="xMidYMid meet"><defs><clipPath id="__lottie_element_2"><rect width="512" height="512" x="0" y="0"></rect></clipPath><clipPath id="__lottie_element_4"><path d="M0,0 L512,0 L512,512 L0,512z"></path></clipPath><radialGradient id="__lottie_element_13" spreadMethod="pad" gradientUnits="userSpaceOnUse" cx="-17.594999313354492" cy="-79.76499938964844" r="172.93410473691108" fx="-22.80306075008837" fy="-92.95459436731566"><stop offset="0%" stop-color="rgb(252,227,204)"></stop><stop offset="50%" stop-color="rgb(248,207,176)"></stop><stop offset="100%" stop-color="rgb(244,187,148)"></stop></radialGradient><clipPath id="__lottie_element_37"><path d="M0,0 L512,0 L512,512 L0,512z"></path></clipPath></defs><g clip-path="url(#__lottie_element_2)"><g clip-path="url(#__lottie_element_4)" style="display: block;" transform="matrix(1.0781199932098389,0,0,1.0781199932098389,-12.99871826171875,-60.99871826171875)" opacity="1"><g clip-path="url(#__lottie_element_37)" style="display: block;" transform="matrix(0.3375576138496399,0.17549088597297668,-0.17010197043418884,0.33837735652923584,336.272216796875,264.945556640625)" opacity="1"><g style="display: block;" transform="matrix(1,0,0,1,105.58401489257812,-23.355987548828125)" opacity="1"><g opacity="1" transform="matrix(1,0,0,1,174.12100219726562,365.7120056152344)"><path fill="rgb(250,197,161)" fill-opacity="1" d=" M-107.91699981689453,-122.31700134277344 C-120.10399627685547,-109.10099792480469 -136.42100524902344,-86.80899810791016 -140.05299377441406,-69.4229965209961 C-147.12399291992188,-35.571998596191406 -136.45599365234375,27.138999938964844 -106.03199768066406,79.18900299072266 C-62.792999267578125,153.16299438476562 49.404998779296875,150.72999572753906 89.55599975585938,95.2490005493164 C116.06900024414062,58.612998962402344 108.45600128173828,0.9409999847412109 100.73400115966797,-54.540000915527344 C92.1969985961914,-115.88500213623047 41.16299819946289,-148.03399658203125 -23.69499969482422,-153.87399291992188 C-60.21900177001953,-157.16299438476562 -90.75700378417969,-140.92599487304688 -107.91699981689453,-122.31700134277344z"></path><path stroke-linecap="round" stroke-linejoin="round" fill-opacity="0" stroke="rgb(175,87,42)" stroke-opacity="1" stroke-width="24" d=" M-107.91699981689453,-122.31700134277344 C-120.10399627685547,-109.10099792480469 -136.42100524902344,-86.80899810791016 -140.05299377441406,-69.4229965209961 C-147.12399291992188,-35.571998596191406 -136.45599365234375,27.138999938964844 -106.03199768066406,79.18900299072266 C-62.792999267578125,153.16299438476562 49.404998779296875,150.72999572753906 89.55599975585938,95.2490005493164 C116.06900024414062,58.612998962402344 108.45600128173828,0.9409999847412109 100.73400115966797,-54.540000915527344 C92.1969985961914,-115.88500213623047 41.16299819946289,-148.03399658203125 -23.69499969482422,-153.87399291992188 C-60.21900177001953,-157.16299438476562 -90.75700378417969,-140.92599487304688 -107.91699981689453,-122.31700134277344z"></path></g><g opacity="1" transform="matrix(1,0,0,1,158.16900634765625,145.67599487304688)"><path fill="rgb(250,198,162)" fill-opacity="1" d=" M-93.8270034790039,90.01100158691406 C-93.8270034790039,90.01100158691406 -99.08300018310547,66.70099639892578 -84.41200256347656,26.549999237060547 C-69.74199676513672,-13.60099983215332 -54.62699890136719,-6.611999988555908 -43.034000396728516,-2.2820000648498535 C-29.753000259399414,2.678999900817871 -23.753000259399414,16.679000854492188 -29.187000274658203,41 C-34.60100173950195,65.23100280761719 -25.683000564575195,26.75 -31.945999145507812,51.95100021362305 C-52.75299835205078,135.6790008544922 -94.6449966430664,97.33499908447266 -94.6449966430664,97.33499908447266"></path><path stroke-linecap="round" stroke-linejoin="round" fill-opacity="0" stroke="rgb(175,87,42)" stroke-opacity="1" stroke-width="23" d=" M-93.8270034790039,90.01100158691406 C-93.8270034790039,90.01100158691406 -99.08300018310547,66.70099639892578 -84.41200256347656,26.549999237060547 C-69.74199676513672,-13.60099983215332 -54.62699890136719,-6.611999988555908 -43.034000396728516,-2.2820000648498535 C-29.753000259399414,2.678999900817871 -23.753000259399414,16.679000854492188 -29.187000274658203,41 C-34.60100173950195,65.23100280761719 -25.683000564575195,26.75 -31.945999145507812,51.95100021362305 C-52.75299835205078,135.6790008544922 -94.6449966430664,97.33499908447266 -94.6449966430664,97.33499908447266"></path></g><g opacity="1" transform="matrix(0.8849299550056458,0,0,1,-27.959014892578125,-16.13299560546875)"><g opacity="1" transform="matrix(1,0,0,1,271.6340026855469,309.35400390625)"><path fill="rgb(250,198,162)" fill-opacity="1" d=" M31.45800018310547,-41.76599884033203 C25.934999465942383,-44.577999114990234 12.498000144958496,-45.834999084472656 3.6640000343322754,-38.22600173950195 C-5.169000148773193,-30.615999221801758 -34.58700180053711,-8.616000175476074 -41.893001556396484,10.795000076293945 C-49.19900131225586,30.20599937438965 -30.312000274658203,45.834999084472656 -7.1479997634887695,36.345001220703125 C2.440999984741211,32.41699981689453 30.702999114990234,12.836000442504883 39.95100021362305,-3.805000066757202 C49.19900131225586,-20.44700050354004 41.49599838256836,-36.65599822998047 31.45800018310547,-41.76599884033203z"></path><path stroke-linecap="round" stroke-linejoin="round" fill-opacity="0" stroke="rgb(175,87,42)" stroke-opacity="1" stroke-width="23" d=" M31.45800018310547,-41.76599884033203 C25.934999465942383,-44.577999114990234 12.498000144958496,-45.834999084472656 3.6640000343322754,-38.22600173950195 C-5.169000148773193,-30.615999221801758 -34.58700180053711,-8.616000175476074 -41.893001556396484,10.795000076293945 C-49.19900131225586,30.20599937438965 -30.312000274658203,45.834999084472656 -7.1479997634887695,36.345001220703125 C2.440999984741211,32.41699981689453 30.702999114990234,12.836000442504883 39.95100021362305,-3.805000066757202 C49.19900131225586,-20.44700050354004 41.49599838256836,-36.65599822998047 31.45800018310547,-41.76599884033203z"></path></g><g opacity="1" transform="matrix(1,0,0,1,194.9949951171875,255.54299926757812)"><path fill="rgb(250,198,162)" fill-opacity="1" d=" M15.442999839782715,-58.76599884033203 C8.888999938964844,-60.7760009765625 -8.493000030517578,-60.95600128173828 -14.670000076293945,-50.00600051879883 C-20.847000122070312,-39.055999755859375 -41.69499969482422,12.045000076293945 -41.69499969482422,34.67499923706055 C-41.69499969482422,57.305999755859375 -21.618999481201172,60.95600128173828 -10.809000015258789,57.305999755859375 C0.0010000000474974513,53.65599822998047 35.516998291015625,-9.125 38.60599899291992,-29.56599998474121 C41.694000244140625,-50.00600051879883 24.624000549316406,-55.95000076293945 15.442999839782715,-58.76599884033203z"></path><path stroke-linecap="round" stroke-linejoin="round" fill-opacity="0" stroke="rgb(175,87,42)" stroke-opacity="1" stroke-width="23" d=" M15.442999839782715,-58.76599884033203 C8.888999938964844,-60.7760009765625 -8.493000030517578,-60.95600128173828 -14.670000076293945,-50.00600051879883 C-20.847000122070312,-39.055999755859375 -41.69499969482422,12.045000076293945 -41.69499969482422,34.67499923706055 C-41.69499969482422,57.305999755859375 -21.618999481201172,60.95600128173828 -10.809000015258789,57.305999755859375 C0.0010000000474974513,53.65599822998047 35.516998291015625,-9.125 38.60599899291992,-29.56599998474121 C41.694000244140625,-50.00600051879883 24.624000549316406,-55.95000076293945 15.442999839782715,-58.76599884033203z"></path></g><g opacity="1" transform="matrix(1,0,0,1,241.67799377441406,280.0929870605469)"><path fill="rgb(250,198,162)" fill-opacity="1" d=" M29.756999969482422,-50.46500015258789 C20.492000579833984,-54.845001220703125 7.361999988555908,-55.994998931884766 -1.6779999732971191,-46.99800109863281 C-15.79800033569336,-32.94499969482422 -40.542999267578125,6.545000076293945 -46.08000183105469,28.56100082397461 C-51.61800003051758,50.57699966430664 -37.14099884033203,55.994998931884766 -25.72100067138672,54.89899826049805 C-0.35600000619888306,52.465999603271484 35.60499954223633,0.40400001406669617 43.61199951171875,-18.805999755859375 C51.61800003051758,-38.01599884033203 38.38999938964844,-46.38399887084961 29.756999969482422,-50.46500015258789z"></path><path stroke-linecap="round" stroke-linejoin="round" fill-opacity="0" stroke="rgb(175,87,42)" stroke-opacity="1" stroke-width="23" d=" M29.756999969482422,-50.46500015258789 C20.492000579833984,-54.845001220703125 7.361999988555908,-55.994998931884766 -1.6779999732971191,-46.99800109863281 C-15.79800033569336,-32.94499969482422 -40.542999267578125,6.545000076293945 -46.08000183105469,28.56100082397461 C-51.61800003051758,50.57699966430664 -37.14099884033203,55.994998931884766 -25.72100067138672,54.89899826049805 C-0.35600000619888306,52.465999603271484 35.60499954223633,0.40400001406669617 43.61199951171875,-18.805999755859375 C51.61800003051758,-38.01599884033203 38.38999938964844,-46.38399887084961 29.756999969482422,-50.46500015258789z"></path></g></g><g opacity="1" transform="matrix(1,0,0,1,144.2989959716797,335.7539978027344)"><path fill="rgb(245,192,155)" fill-opacity="1" d=" M-109.61499786376953,-40.707000732421875 C-109.61499786376953,-40.707000732421875 -113.34600067138672,-80.48600006103516 -74.90299987792969,-78.08999633789062 C-47.04199981689453,-76.35399627685547 -46.39799880981445,-68.49500274658203 -28.923999786376953,-56.55099868774414 C-4.386000156402588,-39.77799987792969 3.1519999504089355,-1.5549999475479126 -21.55699920654297,5.781000137329102 C-45,12.741999626159668 -76.73500061035156,-12.986000061035156 -72.99299621582031,-14.58899974822998 C-72.99299621582031,-14.58899974822998 -34.380001068115234,31.534000396728516 -28.638999938964844,41.52899932861328 C-16.187999725341797,63.20600128173828 -20.555999755859375,68.48600006103516 -20.555999755859375,68.48600006103516"></path><path stroke-linecap="round" stroke-linejoin="round" fill-opacity="0" stroke="rgb(175,87,42)" stroke-opacity="1" stroke-width="24" d=" M-109.61499786376953,-40.707000732421875 C-109.61499786376953,-40.707000732421875 -113.34600067138672,-80.48600006103516 -74.90299987792969,-78.08999633789062 C-47.04199981689453,-76.35399627685547 -46.39799880981445,-68.49500274658203 -28.923999786376953,-56.55099868774414 C-4.386000156402588,-39.77799987792969 3.1519999504089355,-1.5549999475479126 -21.55699920654297,5.781000137329102 C-45,12.741999626159668 -76.73500061035156,-12.986000061035156 -72.99299621582031,-14.58899974822998 C-72.99299621582031,-14.58899974822998 -34.380001068115234,31.534000396728516 -28.638999938964844,41.52899932861328 C-16.187999725341797,63.20600128173828 -20.555999755859375,68.48600006103516 -20.555999755859375,68.48600006103516"></path></g><g opacity="1" transform="matrix(1,0,0,1,170.80299377441406,429.59100341796875)"><path fill="rgb(242,153,113)" fill-opacity="0.64" d=" M-123.58200073242188,-73.24500274658203 C-123.58200073242188,-73.24500274658203 -94.38600158691406,30.764999389648438 -14.779999732971191,41.07699966430664 C38.500999450683594,47.979000091552734 63.4379997253418,-17.09000015258789 70.02200317382812,-33.430999755859375 C79.61399841308594,-57.236000061035156 90.61100006103516,-127.80500030517578 90.61100006103516,-127.80500030517578 C90.61100006103516,-127.80500030517578 121.58100128173828,22.476999282836914 53.6349983215332,50.70399856567383 C-19.881999969482422,81.24500274658203 -77.8270034790039,36.435001373291016 -94.08100128173828,9.116000175476074 C-112.61100006103516,-22.0310001373291 -123.58200073242188,-73.24500274658203 -123.58200073242188,-73.24500274658203z"></path></g></g></g><g style="display: block;" transform="matrix(1.1936627626419067,0.1280352920293808,-0.12590137124061584,1.2138944864273071,-34.94179153442383,-28.47108268737793)" opacity="1"><g opacity="1" transform="matrix(1,0,0,1,216.48800659179688,271.29901123046875)"><path fill="url(#__lottie_element_13)" fill-opacity="1" d=" M-106.03099822998047,-92.85900115966797 C-121.86000061035156,-71.5790023803711 -153.33700561523438,-32.555999755859375 -127.33200073242188,43.97200012207031 C-109.24299621582031,97.20500183105469 -44.7239990234375,137.0050048828125 49.90599822998047,106.67400360107422 C134.427001953125,79.58499908447266 153.36599731445312,-22.589000701904297 125.98500061035156,-73.0719985961914 C91.31099700927734,-137.0050048828125 40.297000885009766,-130.88400268554688 40.297000885009766,-130.88400268554688 C40.297000885009766,-130.88400268554688 0.5139999985694885,-131.2550048828125 -19.035999298095703,-128.1230010986328 C-36.15700149536133,-125.37999725341797 -52.80699920654297,-119.78399658203125 -68.9219970703125,-113.38600158691406 C-82.7770004272461,-107.88500213623047 -97.13400268554688,-104.81999969482422 -106.03099822998047,-92.85900115966797z"></path><path stroke-linecap="butt" stroke-linejoin="miter" fill-opacity="0" stroke-miterlimit="10" stroke="rgb(175,86,41)" stroke-opacity="1" stroke-width="11" d=" M-106.03099822998047,-92.85900115966797 C-121.86000061035156,-71.5790023803711 -153.33700561523438,-32.555999755859375 -127.33200073242188,43.97200012207031 C-109.24299621582031,97.20500183105469 -44.7239990234375,137.0050048828125 49.90599822998047,106.67400360107422 C134.427001953125,79.58499908447266 153.36599731445312,-22.589000701904297 125.98500061035156,-73.0719985961914 C91.31099700927734,-137.0050048828125 40.297000885009766,-130.88400268554688 40.297000885009766,-130.88400268554688 C40.297000885009766,-130.88400268554688 0.5139999985694885,-131.2550048828125 -19.035999298095703,-128.1230010986328 C-36.15700149536133,-125.37999725341797 -52.80699920654297,-119.78399658203125 -68.9219970703125,-113.38600158691406 C-82.7770004272461,-107.88500213623047 -97.13400268554688,-104.81999969482422 -106.03099822998047,-92.85900115966797z"></path></g><g opacity="1" transform="matrix(1,0,0,1,217.46299743652344,269.8599853515625)"><path fill="rgb(229,148,110)" fill-opacity="1" d=" M122.13200378417969,-69.7750015258789 C87.45700073242188,-133.70700073242188 26.267000198364258,-128.85499572753906 26.267000198364258,-128.85499572753906 C26.267000198364258,-128.85499572753906 -15.579999923706055,-116.44100189208984 -15.579999923706055,-116.44100189208984 C-15.579999923706055,-116.44100189208984 -69.03700256347656,-103.79900360107422 -69.03700256347656,-103.79900360107422 C-69.03700256347656,-103.79900360107422 -103.50199890136719,-92.45800018310547 -103.50199890136719,-92.45800018310547 C-103.50199890136719,-92.45800018310547 -151.69500732421875,-27.534000396728516 -123.0770034790039,45.07899856567383 C-102.46199798583984,97.38600158691406 -47.16299819946289,135.70700073242188 47.46799850463867,105.37699890136719 C131.98800659179688,78.28700256347656 149.51199340820312,-19.29199981689453 122.13200378417969,-69.7750015258789z M56.75199890136719,87.2030029296875 C-29.483999252319336,114.84300231933594 -96.35299682617188,80.6780014038086 -115.48699951171875,33.150001525878906 C-139.10499572753906,-25.513999938964844 -90.40599822998047,-91.6969985961914 -90.40599822998047,-91.6969985961914 C-90.40599822998047,-91.6969985961914 -58.290000915527344,-105.26200103759766 -58.290000915527344,-105.26200103759766 C-58.290000915527344,-105.26200103759766 -9.574999809265137,-116.78199768066406 -9.574999809265137,-116.78199768066406 C-9.574999809265137,-116.78199768066406 30.219999313354492,-123.79900360107422 30.219999313354492,-123.79900360107422 C30.219999313354492,-123.79900360107422 87.53900146484375,-128.10000610351562 119.13899993896484,-69.83899688720703 C144.08999633789062,-23.833999633789062 133.77499389648438,62.51599884033203 56.75199890136719,87.2030029296875z"></path></g><g opacity="1" transform="matrix(1,0,0,1,170.95399475097656,216.96099853515625)"><path stroke-linecap="butt" stroke-linejoin="miter" fill-opacity="0" stroke-miterlimit="10" stroke="rgb(248,160,121)" stroke-opacity="1" stroke-width="9.87" d=" M-39.08100128173828,17.479999542236328 C-39.08100128173828,19.27199935913086 -21.57699966430664,33.790000915527344 -10.039999961853027,19.989999771118164 C-4.250999927520752,13.065999984741211 -6.013000011444092,16.479000091552734 6.992000102996826,6.724999904632568 C36.71699905395508,-15.569999694824219 33.70899963378906,-7.453000068664551 35.494998931884766,-11.204000473022461 C39.08100128173828,-18.732999801635742 30.834999084472656,-33.79100036621094 30.834999084472656,-33.79100036621094"></path></g><g opacity="0.66" transform="matrix(1,0,0,1,202.25100708007812,184.0659942626953)"><path fill="rgb(229,148,110)" fill-opacity="1" d=" M-99.77799987792969,41.4109992980957 C-99.77799987792969,41.4109992980957 -69.01499938964844,-16.496000289916992 7.620999813079834,-27.690000534057617 C77.77300262451172,-37.9370002746582 101.03299713134766,-21.665000915527344 97.77899932861328,-24.917999267578125 C90.96700286865234,-31.731000900268555 61.74599838256836,-41.4109992980957 61.74599838256836,-41.4109992980957 C61.74599838256836,-41.4109992980957 -10.800000190734863,-35.803001403808594 -10.800000190734863,-35.803001403808594 C-10.800000190734863,-35.803001403808594 -70.72100067138672,-15.010000228881836 -70.72100067138672,-15.010000228881836 C-70.72100067138672,-15.010000228881836 -90.35800170898438,3.4639999866485596 -90.35800170898438,3.4639999866485596 C-90.35800170898438,3.4639999866485596 -101.03299713134766,16.340999603271484 -101.03299713134766,16.340999603271484 C-101.03299713134766,16.340999603271484 -99.77799987792969,41.4109992980957 -99.77799987792969,41.4109992980957z"></path></g><g opacity="1" transform="matrix(1,0,0,1,168.80299377441406,210.99899291992188)"><path stroke-linecap="round" stroke-linejoin="round" fill-opacity="0" stroke="rgb(190,99,70)" stroke-opacity="1" stroke-width="8.183" d=" M-37.28799819946289,24.159000396728516 C-37.28799819946289,24.159000396728516 -27.638999938964844,27.11199951171875 -16.135000228881836,25.5939998626709 C-7.186999797821045,24.413000106811523 -7.806000232696533,19.93000030517578 5.198999881744385,10.175999641418457 C34.92499923706055,-12.118000030517578 29.41200065612793,-4.4720001220703125 31.197999954223633,-8.222999572753906 C34.78300094604492,-15.751999855041504 33.34400177001953,-27.11199951171875 33.34400177001953,-27.11199951171875"></path></g></g><g style="display: block;" transform="matrix(1.1936627626419067,0.1280352920293808,-0.12590137124061584,1.2138944864273071,-34.94179153442383,-28.47108268737793)" opacity="1"><g opacity="1" transform="matrix(1,0,0,1,273.78900146484375,179.13600158691406)"><path stroke-linecap="round" stroke-linejoin="round" fill-opacity="0" stroke="rgb(228,135,98)" stroke-opacity="1" stroke-width="7.157" d=" M-42.22600173950195,-9.232999801635742 C-42.22600173950195,-9.232999801635742 -36.9640007019043,2.627000093460083 -12.984999656677246,5.646999835968018 C15.486000061035156,9.232999801635742 42.22600173950195,1.1640000343322754 42.22600173950195,1.1640000343322754"></path></g><g opacity="1" transform="matrix(1,0,0,1,274.3160095214844,170.50599670410156)"><path fill="rgb(62,19,28)" fill-opacity="1" d=" M-43.2140007019043,-10.748000144958496 C-42.22600173950195,-10.815999984741211 -41.03900146484375,-10.23799991607666 -40.70500183105469,-9.454000473022461 C-39.93000030517578,-7.633999824523926 -38.25199890136719,-4.866000175476074 -34.77000045776367,-4.456999778747559 C-30.523000717163086,-3.9590001106262207 -22.36199951171875,-5.890999794006348 -14.281999588012695,-5.890999794006348 C14.625,-5.890999794006348 21.5,1.7280000448226929 31.503000259399414,2.9830000400543213 C37.441001892089844,3.7279999256134033 45.45500183105469,2.555999994277954 43.62200164794922,6.388999938964844 C41.78900146484375,10.222000122070312 16.5310001373291,10.815999984741211 -0.8159999847412109,9.795000076293945 C-19.091999053955078,8.718999862670898 -26.969999313354492,8.621000289916992 -36.2130012512207,3.3410000801086426 C-45.45600128173828,-1.937999963760376 -45.224998474121094,-9.970999717712402 -44.382999420166016,-10.402000427246094 C-44.02899932861328,-10.583000183105469 -44.00299835205078,-10.692999839782715 -43.2140007019043,-10.748000144958496z"></path><path stroke-linecap="round" stroke-linejoin="round" fill-opacity="0" stroke="rgb(30,10,22)" stroke-opacity="1" stroke-width="4.238" d=" M-43.2140007019043,-10.748000144958496 C-42.22600173950195,-10.815999984741211 -41.03900146484375,-10.23799991607666 -40.70500183105469,-9.454000473022461 C-39.93000030517578,-7.633999824523926 -38.25199890136719,-4.866000175476074 -34.77000045776367,-4.456999778747559 C-30.523000717163086,-3.9590001106262207 -22.36199951171875,-5.890999794006348 -14.281999588012695,-5.890999794006348 C14.625,-5.890999794006348 21.5,1.7280000448226929 31.503000259399414,2.9830000400543213 C37.441001892089844,3.7279999256134033 45.45500183105469,2.555999994277954 43.62200164794922,6.388999938964844 C41.78900146484375,10.222000122070312 16.5310001373291,10.815999984741211 -0.8159999847412109,9.795000076293945 C-19.091999053955078,8.718999862670898 -26.969999313354492,8.621000289916992 -36.2130012512207,3.3410000801086426 C-45.45600128173828,-1.937999963760376 -45.224998474121094,-9.970999717712402 -44.382999420166016,-10.402000427246094 C-44.02899932861328,-10.583000183105469 -44.00299835205078,-10.692999839782715 -43.2140007019043,-10.748000144958496z"></path></g></g><g style="display: block;" transform="matrix(1.1936627626419067,0.1280352920293808,-0.12590137124061584,1.2138944864273071,-34.94179153442383,-28.47108268737793)" opacity="1"><g opacity="1" transform="matrix(1,0,0,1,283.09100341796875,215.5)"><path fill="rgb(248,160,121)" fill-opacity="1" d=" M-19.812000274658203,-30.179000854492188 C-19.812000274658203,-30.179000854492188 -38.645999908447266,-17.760000228881836 -31.56999969482422,3.4679999351501465 C-24.493999481201172,24.695999145507812 -1.0149999856948853,30.822999954223633 13.607000350952148,27.961999893188477 C26.125999450683594,25.51300048828125 38.645999908447266,17.076000213623047 35.92399978637695,-3.062999963760376 C33.20199966430664,-23.202999114990234 19.049999237060547,-26.19700050354004 19.049999237060547,-26.19700050354004 C19.049999237060547,-26.19700050354004 -2.177999973297119,-30.822999954223633 -2.177999973297119,-30.822999954223633 C-2.177999973297119,-30.822999954223633 -19.812000274658203,-30.179000854492188 -19.812000274658203,-30.179000854492188z"></path></g><g opacity="1" transform="matrix(1,0,0,1,283.8080139160156,208.68699645996094)"><path fill="rgb(255,255,255)" fill-opacity="1" d=" M-19.81100082397461,-30.17799949645996 C-19.81100082397461,-30.17799949645996 -38.645999908447266,-17.759000778198242 -31.56999969482422,3.4690001010894775 C-24.4950008392334,24.69700050354004 -1.0149999856948853,30.822999954223633 13.607000350952148,27.96299934387207 C26.125999450683594,25.51300048828125 38.64500045776367,17.07699966430664 35.92399978637695,-3.062999963760376 C33.20199966430664,-23.20199966430664 19.051000595092773,-26.195999145507812 19.051000595092773,-26.195999145507812 C19.051000595092773,-26.195999145507812 -2.177999973297119,-30.822999954223633 -2.177999973297119,-30.822999954223633 C-2.177999973297119,-30.822999954223633 -19.81100082397461,-30.17799949645996 -19.81100082397461,-30.17799949645996z"></path></g><g opacity="0.35000000000000003" transform="matrix(1,0,0,1,286.08599853515625,210.8350067138672)"><path fill="rgb(125,95,126)" fill-opacity="1" d=" M31.365999221801758,-4.011000156402588 C31.023000717163086,-6.550000190734863 30.47599983215332,-8.781000137329102 29.797000885009766,-10.756999969482422 C29.836999893188477,-10.508000373840332 29.882999420166016,-10.267000198364258 29.91699981689453,-10.010000228881836 C32.1870002746582,6.785999774932861 22.392000198364258,12.89799976348877 11.951000213623047,14.940999984741211 C-0.24199999868869781,17.326000213623047 -19.823999404907227,12.217000007629395 -25.725000381469727,-5.486000061035156 C-28.60300064086914,-14.119000434875488 -27.073999404907227,-20.572999954223633 -24.753999710083008,-24.926000595092773 C-29.222000122070312,-19.38800048828125 -34.23400115966797,-9.935999870300293 -30.270999908447266,1.9539999961853027 C-23.80900001525879,21.34000015258789 -2.365999937057495,26.93400001525879 10.986000061035156,24.32200050354004 C22.41900062561035,22.084999084472656 33.85100173950195,14.380999565124512 31.365999221801758,-4.011000156402588z"></path></g><g opacity="1" transform="matrix(1,0,0,1,-25.60498046875,5.6970062255859375)"><g opacity="1" transform="matrix(1,0,0,1,302.7640075683594,205.83599853515625)"><path fill="rgb(28,31,35)" fill-opacity="1" d=" M11.586999893188477,0 C11.586999893188477,6.39900016784668 6.39900016784668,11.586999893188477 0,11.586999893188477 C-6.39900016784668,11.586999893188477 -11.586999893188477,6.39900016784668 -11.586999893188477,0 C-11.586999893188477,-6.39900016784668 -6.39900016784668,-11.586999893188477 0,-11.586999893188477 C6.39900016784668,-11.586999893188477 11.586999893188477,-6.39900016784668 11.586999893188477,0z"></path></g><g opacity="1" transform="matrix(1,0,0,1,291.4739990234375,208.6060028076172)"><path fill="rgb(255,255,255)" fill-opacity="1" d=" M6.918000221252441,-1.6640000343322754 C7.368000030517578,0.20600000023841858 4.635000228881836,2.4679999351501465 0.8140000104904175,3.38700008392334 C-3.00600004196167,4.306000232696533 -6.4679999351501465,3.5339999198913574 -6.918000221252441,1.6640000343322754 C-7.368000030517578,-0.20600000023841858 -4.635000228881836,-2.4679999351501465 -0.8140000104904175,-3.38700008392334 C3.00600004196167,-4.306000232696533 6.4679999351501465,-3.5350000858306885 6.918000221252441,-1.6640000343322754z"></path></g></g><g opacity="1" transform="matrix(1,0,0,1,283.8080139160156,208.68699645996094)"><path stroke-linecap="butt" stroke-linejoin="miter" fill-opacity="0" stroke-miterlimit="10" stroke="rgb(125,95,126)" stroke-opacity="1" stroke-width="8" d=" M-19.0939998626709,-29.10300064086914 C-19.0939998626709,-29.10300064086914 -38.64500045776367,-17.760000228881836 -31.569000244140625,3.4679999351501465 C-24.493000030517578,24.695999145507812 -1.0130000114440918,30.822999954223633 13.607999801635742,27.961999893188477 C26.12700080871582,25.51300048828125 38.64500045776367,17.076000213623047 35.92399978637695,-3.062999963760376 C33.20199966430664,-23.202999114990234 19.052000045776367,-26.195999145507812 19.052000045776367,-26.195999145507812 C19.052000045776367,-26.195999145507812 -2.177000045776367,-30.822999954223633 -2.177000045776367,-30.822999954223633 C-2.177000045776367,-30.822999954223633 -19.0939998626709,-29.10300064086914 -19.0939998626709,-29.10300064086914z"></path></g><g opacity="1" transform="matrix(0.9599999785423279,0,0,0.9599999785423279,281.72198486328125,191.92300415039062)"><path fill="rgb(249,212,184)" fill-opacity="1" d=" M-30.51300048828125,16.29199981689453 C-30.51300048828125,16.29199981689453 -19.808000564575195,7.765999794006348 3.2339999675750732,4.590000152587891 C16.80500030517578,2.7209999561309814 28.020999908447266,2.878999948501587 32.82500076293945,3.0510001182556152 C34.59600067138672,3.115000009536743 33.3380012512207,1.1430000066757202 32.150001525878906,-0.17299999296665192 C28.625,-4.081999778747559 20.388999938964844,-13.64799976348877 3.1500000953674316,-14.892999649047852 C-16.243999481201172,-16.29199981689453 -23.785999298095703,-9.807000160217285 -27.246999740600586,-4.935999870300293 C-34.59600067138672,5.406000137329102 -30.51300048828125,16.29199981689453 -30.51300048828125,16.29199981689453z"></path><path stroke-linecap="butt" stroke-linejoin="miter" fill-opacity="0" stroke-miterlimit="10" stroke="rgb(175,87,42)" stroke-opacity="1" stroke-width="8" d=" M-30.51300048828125,16.29199981689453 C-30.51300048828125,16.29199981689453 -19.808000564575195,7.765999794006348 3.2339999675750732,4.590000152587891 C16.80500030517578,2.7209999561309814 28.020999908447266,2.878999948501587 32.82500076293945,3.0510001182556152 C34.59600067138672,3.115000009536743 33.3380012512207,1.1430000066757202 32.150001525878906,-0.17299999296665192 C28.625,-4.081999778747559 20.388999938964844,-13.64799976348877 3.1500000953674316,-14.892999649047852 C-16.243999481201172,-16.29199981689453 -23.785999298095703,-9.807000160217285 -27.246999740600586,-4.935999870300293 C-34.59600067138672,5.406000137329102 -30.51300048828125,16.29199981689453 -30.51300048828125,16.29199981689453z"></path></g></g><g style="display: block;" transform="matrix(1.1917039155960083,0.14569061994552612,-0.14326243102550507,1.211902379989624,-30.32192039489746,-30.175941467285156)" opacity="1"><g opacity="1" transform="matrix(1,0,0,1,113.98100280761719,247.072998046875)"><path fill="rgb(33,22,60)" fill-opacity="1" d=" M2.6489999294281006,0.46799999475479126 C2.390000104904175,1.9299999475479126 0.9950000047683716,2.9070000648498535 -0.46700000762939453,2.6489999294281006 C-1.9299999475479126,2.390000104904175 -2.9070000648498535,0.9950000047683716 -2.6480000019073486,-0.46799999475479126 C-2.390000104904175,-1.9299999475479126 -0.9929999709129333,-2.9070000648498535 0.4690000116825104,-2.6480000019073486 C1.9320000410079956,-2.3889999389648438 2.9070000648498535,-0.9940000176429749 2.6489999294281006,0.46799999475479126z"></path><path stroke-linecap="round" stroke-linejoin="round" fill-opacity="0" stroke="rgb(30,10,22)" stroke-opacity="1" stroke-width="4.935" d=" M2.6489999294281006,0.46799999475479126 C2.390000104904175,1.9299999475479126 0.9950000047683716,2.9070000648498535 -0.46700000762939453,2.6489999294281006 C-1.9299999475479126,2.390000104904175 -2.9070000648498535,0.9950000047683716 -2.6480000019073486,-0.46799999475479126 C-2.390000104904175,-1.9299999475479126 -0.9929999709129333,-2.9070000648498535 0.4690000116825104,-2.6480000019073486 C1.9320000410079956,-2.3889999389648438 2.9070000648498535,-0.9940000176429749 2.6489999294281006,0.46799999475479126z"></path></g><g opacity="1" transform="matrix(1,0,0,1,116.59300231933594,260.09698486328125)"><path stroke-linecap="round" stroke-linejoin="round" fill-opacity="0" stroke="rgb(30,10,22)" stroke-opacity="1" stroke-width="4.935" d=" M2.6489999294281006,0.46799999475479126 C2.390000104904175,1.9299999475479126 0.9950000047683716,2.9059998989105225 -0.46700000762939453,2.6480000019073486 C-1.9299999475479126,2.3889999389648438 -2.9070000648498535,0.9940000176429749 -2.6480000019073486,-0.4690000116825104 C-2.390000104904175,-1.930999994277954 -0.9940000176429749,-2.9070000648498535 0.4690000116825104,-2.6480000019073486 C1.9320000410079956,-2.3889999389648438 2.9070000648498535,-0.9940000176429749 2.6489999294281006,0.46799999475479126z"></path></g><g opacity="1" transform="matrix(1,0,0,1,118.39600372314453,274.614990234375)"><path fill="rgb(33,22,60)" fill-opacity="1" d=" M2.6480000019073486,0.46799999475479126 C2.3889999389648438,1.930999994277954 0.9940000176429749,2.9059998989105225 -0.46799999475479126,2.6489999294281006 C-1.930999994277954,2.390000104904175 -2.9070000648498535,0.9940000176429749 -2.6480000019073486,-0.46799999475479126 C-2.390000104904175,-1.9299999475479126 -0.9940000176429749,-2.9059998989105225 0.4690000116825104,-2.6470000743865967 C1.930999994277954,-2.3889999389648438 2.9059998989105225,-0.9940000176429749 2.6480000019073486,0.46799999475479126z"></path><path stroke-linecap="round" stroke-linejoin="round" fill-opacity="0" stroke="rgb(30,10,22)" stroke-opacity="1" stroke-width="5.922" d=" M2.6480000019073486,0.46799999475479126 C2.3889999389648438,1.930999994277954 0.9940000176429749,2.9059998989105225 -0.46799999475479126,2.6489999294281006 C-1.930999994277954,2.390000104904175 -2.9070000648498535,0.9940000176429749 -2.6480000019073486,-0.46799999475479126 C-2.390000104904175,-1.9299999475479126 -0.9940000176429749,-2.9059998989105225 0.4690000116825104,-2.6470000743865967 C1.930999994277954,-2.3889999389648438 2.9059998989105225,-0.9940000176429749 2.6480000019073486,0.46799999475479126z"></path></g><g opacity="1" transform="matrix(1,0,0,1,121.25700378417969,289.3210144042969)"><path fill="rgb(33,22,60)" fill-opacity="1" d=" M2.6489999294281006,0.46799999475479126 C2.390000104904175,1.930999994277954 0.9950000047683716,2.9059998989105225 -0.46700000762939453,2.6480000019073486 C-1.9299999475479126,2.390000104904175 -2.9070000648498535,0.9940000176429749 -2.6480000019073486,-0.4690000116825104 C-2.390000104904175,-1.9299999475479126 -0.9940000176429749,-2.9059998989105225 0.4690000116825104,-2.6480000019073486 C1.9320000410079956,-2.3889999389648438 2.9070000648498535,-0.9940000176429749 2.6489999294281006,0.46799999475479126z"></path><path stroke-linecap="round" stroke-linejoin="round" fill-opacity="0" stroke="rgb(30,10,22)" stroke-opacity="1" stroke-width="5.922" d=" M2.6489999294281006,0.46799999475479126 C2.390000104904175,1.930999994277954 0.9950000047683716,2.9059998989105225 -0.46700000762939453,2.6480000019073486 C-1.9299999475479126,2.390000104904175 -2.9070000648498535,0.9940000176429749 -2.6480000019073486,-0.4690000116825104 C-2.390000104904175,-1.9299999475479126 -0.9940000176429749,-2.9059998989105225 0.4690000116825104,-2.6480000019073486 C1.9320000410079956,-2.3889999389648438 2.9070000648498535,-0.9940000176429749 2.6489999294281006,0.46799999475479126z"></path></g><g opacity="1" transform="matrix(1,0,0,1,123.04900360107422,304.92999267578125)"><path fill="rgb(33,22,60)" fill-opacity="1" d=" M2.6480000019073486,0.4690000116825104 C2.3889999389648438,1.930999994277954 0.9940000176429749,2.9059998989105225 -0.46799999475479126,2.6480000019073486 C-1.930999994277954,2.3889999389648438 -2.9070000648498535,0.9940000176429749 -2.6480000019073486,-0.4690000116825104 C-2.390000104904175,-1.930999994277954 -0.9940000176429749,-2.9070000648498535 0.4690000116825104,-2.6480000019073486 C1.930999994277954,-2.3889999389648438 2.9059998989105225,-0.9940000176429749 2.6480000019073486,0.4690000116825104z"></path><path stroke-linecap="round" stroke-linejoin="round" fill-opacity="0" stroke="rgb(30,10,22)" stroke-opacity="1" stroke-width="6.909" d=" M2.6480000019073486,0.4690000116825104 C2.3889999389648438,1.930999994277954 0.9940000176429749,2.9059998989105225 -0.46799999475479126,2.6480000019073486 C-1.930999994277954,2.3889999389648438 -2.9070000648498535,0.9940000176429749 -2.6480000019073486,-0.4690000116825104 C-2.390000104904175,-1.930999994277954 -0.9940000176429749,-2.9070000648498535 0.4690000116825104,-2.6480000019073486 C1.930999994277954,-2.3889999389648438 2.9059998989105225,-0.9940000176429749 2.6480000019073486,0.4690000116825104z"></path></g><g opacity="1" transform="matrix(1,0,0,1,126.50299835205078,319.3760070800781)"><path fill="rgb(33,22,60)" fill-opacity="1" d=" M2.6480000019073486,0.4690000116825104 C2.390000104904175,1.9320000410079956 0.9929999709129333,2.9059998989105225 -0.4690000116825104,2.6480000019073486 C-1.9320000410079956,2.3889999389648438 -2.9059998989105225,0.9940000176429749 -2.6480000019073486,-0.4690000116825104 C-2.3889999389648438,-1.9299999475479126 -0.9950000047683716,-2.9070000648498535 0.46700000762939453,-2.6480000019073486 C1.9299999475479126,-2.3889999389648438 2.9070000648498535,-0.9940000176429749 2.6480000019073486,0.4690000116825104z"></path><path stroke-linecap="round" stroke-linejoin="round" fill-opacity="0" stroke="rgb(30,10,22)" stroke-opacity="1" stroke-width="6.909" d=" M2.6480000019073486,0.4690000116825104 C2.390000104904175,1.9320000410079956 0.9929999709129333,2.9059998989105225 -0.4690000116825104,2.6480000019073486 C-1.9320000410079956,2.3889999389648438 -2.9059998989105225,0.9940000176429749 -2.6480000019073486,-0.4690000116825104 C-2.3889999389648438,-1.9299999475479126 -0.9950000047683716,-2.9070000648498535 0.46700000762939453,-2.6480000019073486 C1.9299999475479126,-2.3889999389648438 2.9070000648498535,-0.9940000176429749 2.6480000019073486,0.4690000116825104z"></path></g><g opacity="1" transform="matrix(1,0,0,1,128.05499267578125,335.3070068359375)"><path stroke-linecap="round" stroke-linejoin="round" fill-opacity="0" stroke="rgb(30,10,22)" stroke-opacity="1" stroke-width="7.896" d=" M2.6480000019073486,0.4690000116825104 C2.3889999389648438,1.9320000410079956 0.9940000176429749,2.9059998989105225 -0.46799999475479126,2.6480000019073486 C-1.930999994277954,2.3889999389648438 -2.9070000648498535,0.9940000176429749 -2.6480000019073486,-0.4690000116825104 C-2.390000104904175,-1.9299999475479126 -0.9950000047683716,-2.9070000648498535 0.46799999475479126,-2.6480000019073486 C1.930999994277954,-2.3889999389648438 2.9059998989105225,-0.9929999709129333 2.6480000019073486,0.4690000116825104z"></path></g><g opacity="1" transform="matrix(1,0,0,1,119.78399658203125,349.1369934082031)"><path fill="rgb(33,22,60)" fill-opacity="1" d=" M2.6480000019073486,0.4690000116825104 C2.3889999389648438,1.930999994277954 0.9940000176429749,2.9070000648498535 -0.46799999475479126,2.6489999294281006 C-1.930999994277954,2.390000104904175 -2.9070000648498535,0.9950000047683716 -2.6480000019073486,-0.46799999475479126 C-2.390000104904175,-1.9290000200271606 -0.9940000176429749,-2.9059998989105225 0.46799999475479126,-2.6470000743865967 C1.930999994277954,-2.388000011444092 2.9070000648498535,-0.9940000176429749 2.6480000019073486,0.4690000116825104z"></path><path stroke-linecap="round" stroke-linejoin="round" fill-opacity="0" stroke="rgb(30,10,22)" stroke-opacity="1" stroke-width="7.896" d=" M2.6480000019073486,0.4690000116825104 C2.3889999389648438,1.930999994277954 0.9940000176429749,2.9070000648498535 -0.46799999475479126,2.6489999294281006 C-1.930999994277954,2.390000104904175 -2.9070000648498535,0.9950000047683716 -2.6480000019073486,-0.46799999475479126 C-2.390000104904175,-1.9290000200271606 -0.9940000176429749,-2.9059998989105225 0.46799999475479126,-2.6470000743865967 C1.930999994277954,-2.388000011444092 2.9070000648498535,-0.9940000176429749 2.6480000019073486,0.4690000116825104z"></path></g><g opacity="1" transform="matrix(1,0,0,1,105.24400329589844,353.1199951171875)"><path stroke-linecap="round" stroke-linejoin="round" fill-opacity="0" stroke="rgb(30,10,22)" stroke-opacity="1" stroke-width="4.935" d=" M2.6480000019073486,0.4690000116825104 C2.3889999389648438,1.930999994277954 0.9940000176429749,2.9070000648498535 -0.46799999475479126,2.6489999294281006 C-1.930999994277954,2.390000104904175 -2.9070000648498535,0.9940000176429749 -2.6480000019073486,-0.46799999475479126 C-2.390000104904175,-1.9299999475479126 -0.9940000176429749,-2.9059998989105225 0.46799999475479126,-2.6470000743865967 C1.930999994277954,-2.3889999389648438 2.9070000648498535,-0.9940000176429749 2.6480000019073486,0.4690000116825104z"></path><path fill="rgb(33,22,60)" fill-opacity="1" d=" M2.6480000019073486,0.4690000116825104 C2.3889999389648438,1.930999994277954 0.9940000176429749,2.9070000648498535 -0.46799999475479126,2.6489999294281006 C-1.930999994277954,2.390000104904175 -2.9070000648498535,0.9940000176429749 -2.6480000019073486,-0.46799999475479126 C-2.390000104904175,-1.9299999475479126 -0.9940000176429749,-2.9059998989105225 0.46799999475479126,-2.6470000743865967 C1.930999994277954,-2.3889999389648438 2.9070000648498535,-0.9940000176429749 2.6480000019073486,0.4690000116825104z"></path></g><g opacity="1" transform="matrix(1,0,0,1,95.73100280761719,340.5150146484375)"><path fill="rgb(33,22,60)" fill-opacity="1" d=" M2.6480000019073486,0.4690000116825104 C2.390000104904175,1.930999994277954 0.9929999709129333,2.9070000648498535 -0.4690000116825104,2.6489999294281006 C-1.9320000410079956,2.390000104904175 -2.9070000648498535,0.9950000047683716 -2.6489999294281006,-0.46799999475479126 C-2.390000104904175,-1.9290000200271606 -0.9950000047683716,-2.9059998989105225 0.46700000762939453,-2.6470000743865967 C1.9299999475479126,-2.388000011444092 2.9070000648498535,-0.9940000176429749 2.6480000019073486,0.4690000116825104z"></path><path stroke-linecap="round" stroke-linejoin="round" fill-opacity="0" stroke="rgb(30,10,22)" stroke-opacity="1" stroke-width="3.948" d=" M2.6480000019073486,0.4690000116825104 C2.390000104904175,1.930999994277954 0.9929999709129333,2.9070000648498535 -0.4690000116825104,2.6489999294281006 C-1.9320000410079956,2.390000104904175 -2.9070000648498535,0.9950000047683716 -2.6489999294281006,-0.46799999475479126 C-2.390000104904175,-1.9290000200271606 -0.9950000047683716,-2.9059998989105225 0.46700000762939453,-2.6470000743865967 C1.9299999475479126,-2.388000011444092 2.9070000648498535,-0.9940000176429749 2.6480000019073486,0.4690000116825104z"></path></g></g><g style="display: block;" transform="matrix(0.833439290523529,0.08939680457115173,-0.08670322597026825,0.8359605669975281,23.108421325683594,28.59095573425293)" opacity="1"><g opacity="1" transform="matrix(0.9172029495239258,0.06840141117572784,0.05112532898783684,1.0702158212661743,13.411453247070312,-16.746849060058594)"><g opacity="1" transform="matrix(1,0,0,1,143.83799743652344,93.73400115966797)"><path fill="rgb(33,22,60)" fill-opacity="1" d=" M-99.62999725341797,-1.6679999828338623 C-99.62999725341797,-1.6679999828338623 -74.41799926757812,20.8439998626709 -62.849998474121094,40.729000091552734 C-51.85599899291992,59.62799835205078 -41.689998626708984,88.552001953125 -41.689998626708984,88.552001953125 C-41.689998626708984,88.552001953125 49.62699890136719,46.10599899291992 49.62699890136719,46.10599899291992 C49.62699890136719,46.10599899291992 96.4530029296875,32.19900131225586 96.4530029296875,32.19900131225586 C96.4530029296875,32.19900131225586 90.9260025024414,13.946000099182129 80.19400024414062,-21.320999145507812 C72.5510025024414,-46.43600082397461 68.38999938964844,-73.5 68.38999938964844,-73.5 C68.38999938964844,-73.5 26.53499984741211,-76.39700317382812 -34.525001525878906,-49.56800079345703 C-85.447998046875,-27.191999435424805 -99.62999725341797,-1.6679999828338623 -99.62999725341797,-1.6679999828338623z"></path><path stroke-linecap="round" stroke-linejoin="round" fill-opacity="0" stroke="rgb(30,10,22)" stroke-opacity="1" stroke-width="7.652" d=" M-99.62999725341797,-1.6679999828338623 C-99.62999725341797,-1.6679999828338623 -74.41799926757812,20.8439998626709 -62.849998474121094,40.729000091552734 C-51.85599899291992,59.62799835205078 -41.689998626708984,88.552001953125 -41.689998626708984,88.552001953125 C-41.689998626708984,88.552001953125 49.62699890136719,46.10599899291992 49.62699890136719,46.10599899291992 C49.62699890136719,46.10599899291992 96.4530029296875,32.19900131225586 96.4530029296875,32.19900131225586 C96.4530029296875,32.19900131225586 90.9260025024414,13.946000099182129 80.19400024414062,-21.320999145507812 C72.5510025024414,-46.43600082397461 68.38999938964844,-73.5 68.38999938964844,-73.5 C68.38999938964844,-73.5 26.53499984741211,-76.39700317382812 -34.525001525878906,-49.56800079345703 C-85.447998046875,-27.191999435424805 -99.62999725341797,-1.6679999828338623 -99.62999725341797,-1.6679999828338623z"></path></g><g opacity="1" transform="matrix(1,0,0,1,166.5570068359375,135.2209930419922)"><path fill="rgb(122,93,146)" fill-opacity="1" d=" M-64.94499969482422,37.367000579833984 C-64.94499969482422,37.367000579833984 -23.73900032043457,16.375 8.11299991607666,4.013000011444092 C39.96500015258789,-8.348999977111816 76.08999633789062,-15.831999778747559 76.08999633789062,-15.831999778747559 C76.08999633789062,-15.831999778747559 68.87699890136719,-33.933998107910156 68.87699890136719,-33.933998107910156 C68.87699890136719,-33.933998107910156 42.01900100708008,-37.59199905395508 -21.708999633789062,-15.178000450134277 C-62.209999084472656,-0.9330000281333923 -74.1500015258789,16.881000518798828 -74.1500015258789,16.881000518798828 C-74.1500015258789,16.881000518798828 -64.94499969482422,37.367000579833984 -64.94499969482422,37.367000579833984z"></path></g><g opacity="0.34" transform="matrix(1,0,0,1,115.87000274658203,97.81500244140625)"><path fill="rgb(255,255,255)" fill-opacity="1" d=" M-48.042999267578125,-36.69499969482422 C-48.042999267578125,-36.69499969482422 8.45199966430664,60.3129997253418 8.45199966430664,60.3129997253418 C8.45199966430664,60.3129997253418 16.68400001525879,55.06399917602539 28.15999984741211,50.70100021362305 C39.63600158691406,46.3390007019043 48.04399871826172,44.2760009765625 48.04399871826172,44.2760009765625 C48.04399871826172,44.2760009765625 -6.206999778747559,-60.3129997253418 -6.206999778747559,-60.3129997253418 C-6.206999778747559,-60.3129997253418 -24.49799919128418,-53.974998474121094 -32.72999954223633,-48.72700119018555 C-40.96099853515625,-43.47800064086914 -48.042999267578125,-36.69499969482422 -48.042999267578125,-36.69499969482422z"></path></g></g><g opacity="1" transform="matrix(1,0,0,1,185.42300415039062,170.88999938964844)"><path fill="rgb(33,22,60)" fill-opacity="1" d=" M-115.16400146484375,41.994998931884766 C-76.05000305175781,19.128999710083008 -56.03300094604492,8.491000175476074 5.507999897003174,-10.395000457763672 C62.06399917602539,-27.750999450683594 73.48799896240234,-27.781999588012695 95.85800170898438,-30.7189998626709 C148.49400329589844,-37.62900161743164 167.00100708007812,-30.082000732421875 162.031005859375,-39.722999572753906 C154.10800170898438,-55.09400177001953 54.191001892089844,-46.67900085449219 54.191001892089844,-46.67900085449219 C54.191001892089844,-46.67900085449219 28.722999572753906,-41.845001220703125 -22.51099967956543,-24.334999084472656 C-42.20600128173828,-17.604000091552734 -77.19599914550781,-1.062999963760376 -77.19599914550781,-1.062999963760376 C-77.19599914550781,-1.062999963760376 -99.99700164794922,9.998000144958496 -122.95500183105469,30.0310001373291 C-142.67300415039062,47.237998962402344 -146.62899780273438,61.4630012512207 -144.33099365234375,64.61499786376953 C-142.6719970703125,66.88999938964844 -120.44100189208984,45.08000183105469 -115.16400146484375,41.994998931884766z"></path><path stroke-linecap="round" stroke-linejoin="round" fill-opacity="0" stroke="rgb(30,10,22)" stroke-opacity="1" stroke-width="7.934" d=" M-115.16400146484375,41.994998931884766 C-76.05000305175781,19.128999710083008 -56.03300094604492,8.491000175476074 5.507999897003174,-10.395000457763672 C62.06399917602539,-27.750999450683594 73.48799896240234,-27.781999588012695 95.85800170898438,-30.7189998626709 C148.49400329589844,-37.62900161743164 167.00100708007812,-30.082000732421875 162.031005859375,-39.722999572753906 C154.10800170898438,-55.09400177001953 54.191001892089844,-46.67900085449219 54.191001892089844,-46.67900085449219 C54.191001892089844,-46.67900085449219 28.722999572753906,-41.845001220703125 -22.51099967956543,-24.334999084472656 C-42.20600128173828,-17.604000091552734 -77.19599914550781,-1.062999963760376 -77.19599914550781,-1.062999963760376 C-77.19599914550781,-1.062999963760376 -99.99700164794922,9.998000144958496 -122.95500183105469,30.0310001373291 C-142.67300415039062,47.237998962402344 -146.62899780273438,61.4630012512207 -144.33099365234375,64.61499786376953 C-142.6719970703125,66.88999938964844 -120.44100189208984,45.08000183105469 -115.16400146484375,41.994998931884766z"></path></g></g><g style="display: block;" transform="matrix(1.1936627626419067,0.1280352920293808,-0.12590137124061584,1.2138944864273071,-34.94179153442383,-28.47108268737793)" opacity="1"><g opacity="1" transform="matrix(1,0,0,1,179.32400512695312,251.30999755859375)"><path fill="rgb(248,160,121)" fill-opacity="1" d=" M-38.428001403808594,-7.796000003814697 C-39.74399948120117,2.569999933242798 -35.362998962402344,23.413000106811523 -16.599000930786133,30.51099967956543 C6.809999942779541,39.3650016784668 39.744998931884766,23.655000686645508 37.37200164794922,-6.25600004196167 C35.143001556396484,-34.36000061035156 11.732999801635742,-39.3650016784668 -3.500999927520752,-38.595001220703125 C-27.642000198364258,-37.375 -36.56999969482422,-22.426000595092773 -38.428001403808594,-7.796000003814697z"></path></g><g opacity="1" transform="matrix(1,0,0,1,0,0)"><path fill="rgb(255,208,161)" fill-opacity="1" d=" M198.9949951171875,230.6929931640625 C198.9949951171875,230.6929931640625 187.39700317382812,200.95199584960938 163.56900024414062,214.93699645996094 C139.74099731445312,228.9219970703125 145.03700256347656,248.55499267578125 157.7989959716797,260.5069885253906 C175.07699584960938,276.68798828125 191.20199584960938,268.2279968261719 199.96299743652344,259.27301025390625 C208.7239990234375,250.3179931640625 193.2519989013672,232.02999877929688 193.2519989013672,232.02999877929688"></path><path stroke-linecap="butt" stroke-linejoin="miter" fill-opacity="0" stroke-miterlimit="4" stroke="rgb(165,74,50)" stroke-opacity="1" stroke-width="8" d=" M198.9949951171875,230.6929931640625 C198.9949951171875,230.6929931640625 187.39700317382812,200.95199584960938 163.56900024414062,214.93699645996094 C139.74099731445312,228.9219970703125 145.03700256347656,248.55499267578125 157.7989959716797,260.5069885253906 C175.07699584960938,276.68798828125 191.20199584960938,268.2279968261719 199.96299743652344,259.27301025390625 C208.7239990234375,250.3179931640625 193.2519989013672,232.02999877929688 193.2519989013672,232.02999877929688"></path></g><g opacity="1" transform="matrix(1,0,0,1,137.88699340820312,251.80499267578125)"><path fill="rgb(62,19,28)" fill-opacity="1" d=" M11.50100040435791,5.809000015258789 C11.50100040435791,5.809000015258789 -12.883999824523926,0.13099999725818634 -12.883999824523926,0.13099999725818634 C-14.52400016784668,-0.25099998712539673 -15.543999671936035,-1.8910000324249268 -15.161999702453613,-3.5309998989105225 C-14.779999732971191,-5.171000003814697 -13.140999794006348,-6.190999984741211 -11.5,-5.809000015258789 C-11.5,-5.809000015258789 12.883999824523926,-0.12999999523162842 12.883999824523926,-0.12999999523162842 C14.52400016784668,0.25200000405311584 15.543999671936035,1.8919999599456787 15.163000106811523,3.5320000648498535 C14.781000137329102,5.171999931335449 13.140999794006348,6.190999984741211 11.50100040435791,5.809000015258789z"></path><path stroke-linecap="round" stroke-linejoin="round" fill-opacity="0" stroke="rgb(30,10,22)" stroke-opacity="1" stroke-width="4.296" d=" M11.50100040435791,5.809000015258789 C11.50100040435791,5.809000015258789 -12.883999824523926,0.13099999725818634 -12.883999824523926,0.13099999725818634 C-14.52400016784668,-0.25099998712539673 -15.543999671936035,-1.8910000324249268 -15.161999702453613,-3.5309998989105225 C-14.779999732971191,-5.171000003814697 -13.140999794006348,-6.190999984741211 -11.5,-5.809000015258789 C-11.5,-5.809000015258789 12.883999824523926,-0.12999999523162842 12.883999824523926,-0.12999999523162842 C14.52400016784668,0.25200000405311584 15.543999671936035,1.8919999599456787 15.163000106811523,3.5320000648498535 C14.781000137329102,5.171999931335449 13.140999794006348,6.190999984741211 11.50100040435791,5.809000015258789z"></path></g><g opacity="1" transform="matrix(1,0,0,1,181.83399963378906,240.91200256347656)"><path fill="rgb(33,206,223)" fill-opacity="1" d=" M-38.428001403808594,-7.796000003814697 C-39.744998931884766,2.569999933242798 -35.36199951171875,23.413000106811523 -16.597999572753906,30.510000228881836 C6.809999942779541,39.36600112915039 42.46699905395508,25.716999053955078 35.23400115966797,-3.4040000438690186 C27.68400001525879,-33.801998138427734 11.734000205993652,-39.3650016784668 -3.500999927520752,-38.595001220703125 C-27.642000198364258,-37.375 -36.57099914550781,-22.424999237060547 -38.428001403808594,-7.796000003814697z"></path><path stroke-linecap="butt" stroke-linejoin="miter" fill-opacity="0" stroke-miterlimit="10" stroke="rgb(15,143,187)" stroke-opacity="1" stroke-width="8" d=" M-38.428001403808594,-7.796000003814697 C-39.744998931884766,2.569999933242798 -35.36199951171875,23.413000106811523 -16.597999572753906,30.510000228881836 C6.809999942779541,39.36600112915039 42.46699905395508,25.716999053955078 35.23400115966797,-3.4040000438690186 C27.68400001525879,-33.801998138427734 11.734000205993652,-39.3650016784668 -3.500999927520752,-38.595001220703125 C-27.642000198364258,-37.375 -36.57099914550781,-22.424999237060547 -38.428001403808594,-7.796000003814697z"></path></g><g opacity="1" transform="matrix(1,0,0,1,182.2449951171875,236.17100524902344)"><path fill="rgb(146,234,244)" fill-opacity="1" d=" M-37.731998443603516,-5.507999897003174 C-39.04800033569336,4.322999954223633 -31.60099983215332,20.111000061035156 -16.27400016784668,25.93400001525879 C6.986000061035156,34.77000045776367 39.04800033569336,26.350000381469727 36.67499923706055,-2.0139999389648438 C34.44599914550781,-28.665000915527344 11.222999572753906,-34.77000045776367 -4.01200008392334,-34.03900146484375 C-28.152999877929688,-32.882999420166016 -35.874000549316406,-19.381000518798828 -37.731998443603516,-5.507999897003174z"></path><path stroke-linecap="butt" stroke-linejoin="miter" fill-opacity="0" stroke-miterlimit="10" stroke="rgb(15,143,187)" stroke-opacity="1" stroke-width="8" d=" M-37.731998443603516,-5.507999897003174 C-39.04800033569336,4.322999954223633 -31.60099983215332,20.111000061035156 -16.27400016784668,25.93400001525879 C6.986000061035156,34.77000045776367 39.04800033569336,26.350000381469727 36.67499923706055,-2.0139999389648438 C34.44599914550781,-28.665000915527344 11.222999572753906,-34.77000045776367 -4.01200008392334,-34.03900146484375 C-28.152999877929688,-32.882999420166016 -35.874000549316406,-19.381000518798828 -37.731998443603516,-5.507999897003174z"></path></g><g opacity="1" transform="matrix(1,0,0,1,185.06100463867188,231.8070068359375)"><path fill="rgb(255,255,255)" fill-opacity="1" d=" M-19.924999237060547,22.43400001525879 C-19.924999237060547,22.43400001525879 5.853000164031982,-24.663000106811523 5.853000164031982,-24.663000106811523 C5.853000164031982,-24.663000106811523 11.909000396728516,-23.222000122070312 13.656000137329102,-22.29400062561035 C18.114999771118164,-19.924999237060547 19.926000595092773,-18.253000259399414 19.926000595092773,-18.253000259399414 C19.926000595092773,-18.253000259399414 -14.630000114440918,24.663000106811523 -14.630000114440918,24.663000106811523 C-14.630000114440918,24.663000106811523 -19.924999237060547,22.43400001525879 -19.924999237060547,22.43400001525879z"></path></g></g><g style="display: block;" transform="matrix(1.1888539791107178,0.15341880917549133,-0.1513407975435257,1.2128427028656006,-28.815357208251953,-37.644813537597656)" opacity="1"><g opacity="0.6900000000000001" transform="matrix(1,0,0,1,205.74899291992188,303.8609924316406)"><path fill="rgb(229,148,110)" fill-opacity="1" d=" M50.43899917602539,-19.461000442504883 C51.47700119018555,-22.847000122070312 49.95100021362305,-26.47599983215332 46.81999969482422,-28.1299991607666 C41.61000061035156,-30.882999420166016 32.946998596191406,-33.391998291015625 23.023000717163086,-27.916000366210938 C6.860000133514404,-18.999000549316406 -2.8350000381469727,14.399999618530273 -22.12299919128418,17.04400062561035 C-38.55099868774414,19.295000076293945 -40.551998138427734,13.71500015258789 -41.25899887084961,12.213000297546387 C-42.744998931884766,9.055000305175781 -41.073001861572266,4.038000106811523 -37.72800064086914,4.038000106811523 C-34.3849983215332,4.038000106811523 -30.621999740600586,-0.27000001072883606 -33.27000045776367,-2.2780001163482666 C-38.65800094604492,-6.364999771118164 -49.9900016784668,-4.507999897003174 -50.733001708984375,8.12600040435791 C-51.47700119018555,20.759000778198242 -34.75600051879883,33.393001556396484 -15.4350004196167,24.10300064086914 C3.88700008392334,14.814000129699707 20.607999801635742,-9.338000297546387 32.869998931884766,-12.682000160217285 C37.54600143432617,-13.958000183105469 40.92599868774414,-14.3149995803833 43.31700134277344,-14.267999649047852 C46.58399963378906,-14.20300006866455 49.481998443603516,-16.33799934387207 50.43899917602539,-19.461000442504883z"></path></g><g opacity="1" transform="matrix(1,0,0,1.100600004196167,200.9090118408203,298.22198486328125)"><path fill="rgb(62,19,28)" fill-opacity="1" d=" M50.43899917602539,-19.461000442504883 C51.47700119018555,-22.847000122070312 49.95100021362305,-26.476999282836914 46.81999969482422,-28.131000518798828 C41.61000061035156,-30.884000778198242 32.946998596191406,-33.391998291015625 23.023000717163086,-27.91699981689453 C6.860000133514404,-18.999000549316406 -2.8350000381469727,14.399999618530273 -22.12299919128418,17.042999267578125 C-38.55099868774414,19.29400062561035 -40.551998138427734,13.71500015258789 -41.257999420166016,12.213000297546387 C-42.744998931884766,9.055000305175781 -41.073001861572266,4.038000106811523 -37.72800064086914,4.038000106811523 C-34.38399887084961,4.038000106811523 -30.621999740600586,-0.2709999978542328 -33.27000045776367,-2.2780001163482666 C-38.65800094604492,-6.366000175476074 -49.9900016784668,-4.507999897003174 -50.733001708984375,8.125 C-51.47700119018555,20.759000778198242 -34.75600051879883,33.391998291015625 -15.4350004196167,24.101999282836914 C3.88700008392334,14.812999725341797 20.607999801635742,-9.33899974822998 32.869998931884766,-12.682999610900879 C37.54600143432617,-13.958000183105469 40.92599868774414,-14.3149995803833 43.31800079345703,-14.267999649047852 C46.58399963378906,-14.204000473022461 49.481998443603516,-16.33799934387207 50.43899917602539,-19.461000442504883z"></path><path stroke-linecap="round" stroke-linejoin="round" fill-opacity="0" stroke="rgb(57,19,26)" stroke-opacity="1" stroke-width="4.092" d=" M50.43899917602539,-19.461000442504883 C51.47700119018555,-22.847000122070312 49.95100021362305,-26.476999282836914 46.81999969482422,-28.131000518798828 C41.61000061035156,-30.884000778198242 32.946998596191406,-33.391998291015625 23.023000717163086,-27.91699981689453 C6.860000133514404,-18.999000549316406 -2.8350000381469727,14.399999618530273 -22.12299919128418,17.042999267578125 C-38.55099868774414,19.29400062561035 -40.551998138427734,13.71500015258789 -41.257999420166016,12.213000297546387 C-42.744998931884766,9.055000305175781 -41.073001861572266,4.038000106811523 -37.72800064086914,4.038000106811523 C-34.38399887084961,4.038000106811523 -30.621999740600586,-0.2709999978542328 -33.27000045776367,-2.2780001163482666 C-38.65800094604492,-6.366000175476074 -49.9900016784668,-4.507999897003174 -50.733001708984375,8.125 C-51.47700119018555,20.759000778198242 -34.75600051879883,33.391998291015625 -15.4350004196167,24.101999282836914 C3.88700008392334,14.812999725341797 20.607999801635742,-9.33899974822998 32.869998931884766,-12.682999610900879 C37.54600143432617,-13.958000183105469 40.92599868774414,-14.3149995803833 43.31800079345703,-14.267999649047852 C46.58399963378906,-14.204000473022461 49.481998443603516,-16.33799934387207 50.43899917602539,-19.461000442504883z"></path></g><g opacity="0.64" transform="matrix(1,0,0,1,316.73699951171875,264.1260070800781)"><path fill="rgb(229,148,110)" fill-opacity="1" d=" M-29.292999267578125,5.531000137329102 C-29.292999267578125,5.531000137329102 -25.77199935913086,11.817000389099121 -21.75,10.307999610900879 C-17.726999282836914,8.800000190734863 -20.240999221801758,5.531000137329102 -8.925999641418457,3.5190000534057617 C2.3889999389648438,1.5080000162124634 11.437000274658203,0.008999999612569809 19.483999252319336,-0.996999979019165 C27.530000686645508,-2.003000020980835 31.781999588012695,-3.5339999198913574 31.781999588012695,-3.5339999198913574 C31.781999588012695,-3.5339999198913574 33.53900146484375,-11.61299991607666 33.53900146484375,-11.61299991607666 C33.53900146484375,-11.61299991607666 -11.692000389099121,-4.5269999504089355 -11.692000389099121,-4.5269999504089355 C-11.692000389099121,-4.5269999504089355 -22.7549991607666,-1.2580000162124634 -22.7549991607666,-1.2580000162124634 C-22.7549991607666,-1.2580000162124634 -29.292999267578125,5.531000137329102 -29.292999267578125,5.531000137329102z"></path></g><g opacity="1" transform="matrix(1,0,0,1,332.448974609375,236.37200927734375)"><path fill="rgb(62,19,28)" fill-opacity="1" d=" M-44.86600112915039,35.21699905395508 C-42.59600067138672,35.000999450683594 -40.58700180053711,33.74399948120117 -39.15999984741211,31.965999603271484 C-37.38600158691406,29.756000518798828 -32.566001892089844,26.22800064086914 -19.540000915527344,24.406999588012695 C-4.557000160217285,22.31399917602539 8.911999702453613,23.35700035095215 28.509000778198242,16.368999481201172 C48.10499954223633,9.380999565124512 52.84700012207031,-1.4630000591278076 52.52000045776367,-12.89799976348877 C52.194000244140625,-24.33300018310547 47.499000549316406,-30.87299919128418 42.069000244140625,-32.59199905395508 C33.35100173950195,-35.3489990234375 26.09000015258789,-30.636999130249023 26.216999053955078,-26.56100082397461 C26.37700080871582,-21.47100067138672 29.982999801635742,-19.56800079345703 34.229000091552734,-20.839000701904297 C38.000999450683594,-21.968000411987305 38.902000427246094,-24.80299949645996 39.055999755859375,-25.422000885009766 C39.069000244140625,-25.472000122070312 39.130001068115234,-25.489999771118164 39.165000915527344,-25.451000213623047 C40.28499984741211,-24.200000762939453 52.23400115966797,-10.369999885559082 42.263999938964844,0.23600000143051147 C31.812000274658203,11.352999687194824 17.784000396728516,9.732999801635742 -4.184000015258789,10.765000343322754 C-13.666999816894531,11.210000038146973 -31.944000244140625,10.777999877929688 -42.39500045776367,15.859999656677246 C-52.84700012207031,20.941999435424805 -51.941001892089844,27.56800079345703 -51.941001892089844,27.56800079345703 C-51.941001892089844,27.56800079345703 -52.595001220703125,32.6510009765625 -49.00299835205078,34.555999755859375 C-47.72700119018555,35.233001708984375 -46.24599838256836,35.3489990234375 -44.86600112915039,35.21699905395508z"></path><path stroke-linecap="round" stroke-linejoin="round" fill-opacity="0" stroke="rgb(57,19,26)" stroke-opacity="1" stroke-width="4" d=" M-44.86600112915039,35.21699905395508 C-42.59600067138672,35.000999450683594 -40.58700180053711,33.74399948120117 -39.15999984741211,31.965999603271484 C-37.38600158691406,29.756000518798828 -32.566001892089844,26.22800064086914 -19.540000915527344,24.406999588012695 C-4.557000160217285,22.31399917602539 8.911999702453613,23.35700035095215 28.509000778198242,16.368999481201172 C48.10499954223633,9.380999565124512 52.84700012207031,-1.4630000591278076 52.52000045776367,-12.89799976348877 C52.194000244140625,-24.33300018310547 47.499000549316406,-30.87299919128418 42.069000244140625,-32.59199905395508 C33.35100173950195,-35.3489990234375 26.09000015258789,-30.636999130249023 26.216999053955078,-26.56100082397461 C26.37700080871582,-21.47100067138672 29.982999801635742,-19.56800079345703 34.229000091552734,-20.839000701904297 C38.000999450683594,-21.968000411987305 38.902000427246094,-24.80299949645996 39.055999755859375,-25.422000885009766 C39.069000244140625,-25.472000122070312 39.130001068115234,-25.489999771118164 39.165000915527344,-25.451000213623047 C40.28499984741211,-24.200000762939453 52.23400115966797,-10.369999885559082 42.263999938964844,0.23600000143051147 C31.812000274658203,11.352999687194824 17.784000396728516,9.732999801635742 -4.184000015258789,10.765000343322754 C-13.666999816894531,11.210000038146973 -31.944000244140625,10.777999877929688 -42.39500045776367,15.859999656677246 C-52.84700012207031,20.941999435424805 -51.941001892089844,27.56800079345703 -51.941001892089844,27.56800079345703 C-51.941001892089844,27.56800079345703 -52.595001220703125,32.6510009765625 -49.00299835205078,34.555999755859375 C-47.72700119018555,35.233001708984375 -46.24599838256836,35.3489990234375 -44.86600112915039,35.21699905395508z"></path></g></g><g style="display: block;" transform="matrix(1.1936627626419067,0.1280352920293808,-0.12590137124061584,1.2138944864273071,-34.94179153442383,-28.47108268737793)" opacity="1"><g opacity="1" transform="matrix(1,0,0,1,276.3030090332031,292.7659912109375)"><path fill="rgb(255,208,160)" fill-opacity="1" d=" M-18.79599952697754,5.090000152587891 C-20.773000717163086,2.244999885559082 -17.125999450683594,0.18000000715255737 -14.416999816894531,-1.1019999980926514 C-10.491999626159668,-2.9590001106262207 -3.3380000591278076,-5.303999900817871 3.869999885559082,-4.466000080108643 C13.6850004196167,-3.3239998817443848 19.45400047302246,0.8059999942779541 20.351999282836914,1.152999997138977 C20.77199935913086,1.315999984741211 13.015999794006348,-4.857999801635742 -2.4509999752044678,-1.3860000371932983 C-8.269000053405762,-0.07900000363588333 -12.413000106811523,2.424999952316284 -14.369000434875488,3.7880001068115234 C-16.541000366210938,5.303999900817871 -18.79599952697754,5.090000152587891 -18.79599952697754,5.090000152587891z"></path></g><g opacity="1" transform="matrix(0.9986441135406494,-0.05205708369612694,0.05205708369612694,0.9986441135406494,276.3030090332031,292.7659912109375)"><path fill="rgb(57,35,13)" fill-opacity="1" d=" M-18.79599952697754,5.090000152587891 C-20.773000717163086,2.244999885559082 -17.125999450683594,0.18000000715255737 -14.416999816894531,-1.1019999980926514 C-10.491999626159668,-2.9590001106262207 -3.3380000591278076,-5.303999900817871 3.869999885559082,-4.466000080108643 C13.6850004196167,-3.3239998817443848 19.45400047302246,0.8059999942779541 20.351999282836914,1.152999997138977 C20.77199935913086,1.315999984741211 13.015999794006348,-4.857999801635742 -2.4509999752044678,-1.3860000371932983 C-7.873000144958496,-0.1679999977350235 -14.236000061035156,3.694999933242798 -14.369000434875488,3.7880001068115234 C-16.541000366210938,5.303999900817871 -18.79599952697754,5.090000152587891 -18.79599952697754,5.090000152587891z"></path><path stroke-linecap="round" stroke-linejoin="round" fill-opacity="0" stroke="rgb(136,44,31)" stroke-opacity="1" stroke-width="6.446" d=" M-18.79599952697754,5.090000152587891 C-20.773000717163086,2.244999885559082 -17.125999450683594,0.18000000715255737 -14.416999816894531,-1.1019999980926514 C-10.491999626159668,-2.9590001106262207 -3.3380000591278076,-5.303999900817871 3.869999885559082,-4.466000080108643 C13.6850004196167,-3.3239998817443848 19.45400047302246,0.8059999942779541 20.351999282836914,1.152999997138977 C20.77199935913086,1.315999984741211 13.015999794006348,-4.857999801635742 -2.4509999752044678,-1.3860000371932983 C-7.873000144958496,-0.1679999977350235 -14.236000061035156,3.694999933242798 -14.369000434875488,3.7880001068115234 C-16.541000366210938,5.303999900817871 -18.79599952697754,5.090000152587891 -18.79599952697754,5.090000152587891z"></path></g><g opacity="1" transform="matrix(1,0,0,1,314.3160095214844,285.4280090332031)"><path stroke-linecap="round" stroke-linejoin="round" fill-opacity="0" stroke="rgb(228,135,98)" stroke-opacity="1" stroke-width="6.909" d=" M-8.019000053405762,-7.0279998779296875 C-8.019000053405762,-7.0279998779296875 -3.5820000171661377,-4.613999843597412 -2.0999999046325684,2.4079999923706055 C-1.090999960899353,7.189000129699707 -2.6470000743865967,12.437999725341797 -2.6470000743865967,12.437999725341797"></path></g><g opacity="1" transform="matrix(1,0,0,1,241.1840057373047,311.1820068359375)"><path stroke-linecap="round" stroke-linejoin="round" fill-opacity="0" stroke="rgb(228,135,98)" stroke-opacity="1" stroke-width="6.909" d=" M-5.676000118255615,-9.241000175476074 C-5.676000118255615,-9.241000175476074 -7.23799991607666,-3.8289999961853027 -4.02400016784668,1.753000020980835 C-0.10100000351667404,8.567000389099121 7.23799991607666,9.241000175476074 7.23799991607666,9.241000175476074"></path></g><g opacity="1" transform="matrix(1,0,0,1,278.4150085449219,310.2919921875)"><path stroke-linecap="round" stroke-linejoin="round" fill-opacity="0" stroke="rgb(190,99,70)" stroke-opacity="1" stroke-width="8.183" d=" M-10.586999893188477,3.5820000171661377 C-10.586999893188477,3.5820000171661377 -4.63700008392334,-2.0350000858306885 1.2690000534057617,-2.809000015258789 C7.176000118255615,-3.5810000896453857 10.586999893188477,-2.694999933242798 10.586999893188477,-2.694999933242798"></path></g></g></g></g></svg>