<svg xmlns="http://www.w3.org/2000/svg" xmlns:xlink="http://www.w3.org/1999/xlink" viewBox="0 0 512 512" width="512" height="512" style="width: 100%; height: 100%; transform: translate3d(0,0,0); content-visibility: visible;" preserveAspectRatio="xMidYMid meet"><defs><clipPath id="__lottie_element_2"><rect width="512" height="512" x="0" y="0"></rect></clipPath><clipPath id="__lottie_element_6"><path d="M0,0 L512,0 L512,512 L0,512z"></path></clipPath><clipPath id="__lottie_element_14"><path d="M0,0 L512,0 L512,512 L0,512z"></path></clipPath><radialGradient id="__lottie_element_44" spreadMethod="pad" gradientUnits="userSpaceOnUse" cx="-102.12899780273438" cy="-196.093994140625" r="345.7172369246476" fx="-102.12899780273438" fy="-196.093994140625"><stop offset="0%" stop-color="rgb(254,240,222)"></stop><stop offset="50%" stop-color="rgb(249,213,185)"></stop><stop offset="100%" stop-color="rgb(244,187,148)"></stop></radialGradient></defs><g clip-path="url(#__lottie_element_2)"><g clip-path="url(#__lottie_element_14)" style="display: block;" transform="matrix(1.0199999809265137,0,0,1.0199999809265137,-24.1199951171875,45.8800048828125)" opacity="1"><g style="display: block;" transform="matrix(1.0239399671554565,0,0,1,-6.200439453125,3)" opacity="1"><g opacity="1" transform="matrix(1,0,0,1,263.0950012207031,210.9949951171875)"><path fill="rgb(231,152,109)" fill-opacity="1" d=" M-115.84300231933594,71.13200378417969 C-106.79399871826172,99.6719970703125 -97.13600158691406,141.53399658203125 -56.95899963378906,171.48399353027344 C-13.053000450134277,204.21200561523438 45.60300064086914,198.2989959716797 83.20099639892578,172.86500549316406 C123.25599670410156,145.77000427246094 170.5590057373047,73.34400177001953 161.98899841308594,-15.949999809265137 C153.5489959716797,-103.89700317382812 109.73999786376953,-199.23599243164062 -13.003000259399414,-201.72300720214844 C-135.7469940185547,-204.21200561523438 -170.5590057373047,-115.34200286865234 -160.6280059814453,-55.757999420166016 C-153.16299438476562,-10.972999572753906 -126.6240005493164,37.12900161743164 -115.84300231933594,71.13200378417969z"></path><path stroke-linecap="butt" stroke-linejoin="miter" fill-opacity="0" stroke-miterlimit="10" stroke="rgb(166,80,37)" stroke-opacity="1" stroke-width="10.229" d=" M-115.84300231933594,71.13200378417969 C-106.79399871826172,99.6719970703125 -97.13600158691406,141.53399658203125 -56.95899963378906,171.48399353027344 C-13.053000450134277,204.21200561523438 45.60300064086914,198.2989959716797 83.20099639892578,172.86500549316406 C123.25599670410156,145.77000427246094 170.5590057373047,73.34400177001953 161.98899841308594,-15.949999809265137 C153.5489959716797,-103.89700317382812 109.73999786376953,-199.23599243164062 -13.003000259399414,-201.72300720214844 C-135.7469940185547,-204.21200561523438 -170.5590057373047,-115.34200286865234 -160.6280059814453,-55.757999420166016 C-153.16299438476562,-10.972999572753906 -126.6240005493164,37.12900161743164 -115.84300231933594,71.13200378417969z"></path></g><g opacity="1" transform="matrix(1,0,0,1,261.0589904785156,198.78799438476562)"><path fill="url(#__lottie_element_44)" fill-opacity="1" d=" M-106.48999786376953,64.96800231933594 C-98.39299774169922,90.7249984741211 -79.71700286865234,126.95700073242188 -43.76900100708008,153.98500061035156 C-4.486000061035156,183.52200317382812 33.986000061035156,168.69200134277344 63.810001373291016,150.64300537109375 C100.91000366210938,128.18899536132812 155.44400024414062,64.96900177001953 142.08700561523438,-13.619000434875488 C128.7310028076172,-92.20800018310547 95.33999633789062,-179.03199768066406 -14.479000091552734,-181.27699279785156 C-124.30000305175781,-183.52200317382812 -155.44400024414062,-103.31900024414062 -146.5590057373047,-49.54600143432617 C-139.88099670410156,-9.128999710083008 -116.13600158691406,34.28099822998047 -106.48999786376953,64.96800231933594z"></path></g><g opacity="1" transform="matrix(1,0,0,1,210.46099853515625,155.6439971923828)"><path stroke-linecap="round" stroke-linejoin="round" fill-opacity="0" stroke="rgb(217,129,83)" stroke-opacity="0.72" stroke-width="8.118" d=" M-5.265999794006348,-12.91100025177002 C-5.265999794006348,-12.91100025177002 -1.9859999418258667,-3.627000093460083 0.04600000008940697,1.3049999475479126 C2.0759999752044678,6.23799991607666 5.265999794006348,12.91100025177002 5.265999794006348,12.91100025177002"></path></g><g opacity="1" transform="matrix(1,0,0,1,271.29998779296875,376.45001220703125)"><path stroke-linecap="round" stroke-linejoin="round" fill-opacity="0" stroke="rgb(166,81,37)" stroke-opacity="1" stroke-width="11" d=" M-29.763999938964844,-0.19200000166893005 C-29.763999938964844,-0.19200000166893005 -13.892999649047852,7.989999771118164 2.6440000534057617,7.699999809265137 C19.18199920654297,7.409999847412109 31.76300048828125,-2.990000009536743 31.76300048828125,-2.990000009536743"></path></g></g><g style="display: block;" transform="matrix(1,0,0,1,0.0189971923828125,3.037994384765625)" opacity="1"><g opacity="1" transform="matrix(1,0,0,1,307.9620056152344,222.7830047607422)"><path stroke-linecap="round" stroke-linejoin="round" fill-opacity="0" stroke="rgb(212,121,74)" stroke-opacity="1" stroke-width="11" d=" M-18.79800033569336,5.896999835968018 C-18.79800033569336,5.896999835968018 -3.687000036239624,11.059000015258789 8.47700023651123,4.054999828338623 C16.274999618530273,-0.4350000023841858 18.79800033569336,-11.059000015258789 18.79800033569336,-11.059000015258789"></path></g><g opacity="1" transform="matrix(1,0,0,1,173.23800659179688,234.85400390625)"><path stroke-linecap="round" stroke-linejoin="round" fill-opacity="0" stroke="rgb(212,121,74)" stroke-opacity="1" stroke-width="11" d=" M-15.204999923706055,-4.146999835968018 C-15.204999923706055,-4.146999835968018 -8.86299991607666,4.146999835968018 0,4.146999835968018 C9.95199966430664,4.146999835968018 15.204999923706055,-3.0399999618530273 15.204999923706055,-3.0399999618530273"></path></g></g><g style="display: block;" transform="matrix(1,0,0,1,0.0189971923828125,3.037994384765625)" opacity="1"><g opacity="1" transform="matrix(1,0,0,1,219.76600646972656,101.072998046875)"><path stroke-linecap="round" stroke-linejoin="round" fill-opacity="0" stroke="rgb(236,166,127)" stroke-opacity="1" stroke-width="11" d=" M-71.97699737548828,6.605000019073486 C-71.97699737548828,6.605000019073486 -40.8849983215332,-6.605000019073486 -16.516000747680664,-5.760000228881836 C7.853000164031982,-4.914999961853027 23.642000198364258,1.215999960899353 35.854000091552734,2.4679999351501465 C48.06700134277344,3.7190001010894775 53.178001403808594,3.2049999237060547 58.70800018310547,1.5460000038146973 C63.444000244140625,0.12600000202655792 71.97699737548828,-5.0879998207092285 71.97699737548828,-5.0879998207092285"></path></g><g opacity="1" transform="matrix(1,0,0,1,205.78900146484375,77.97000122070312)"><path stroke-linecap="round" stroke-linejoin="round" fill-opacity="0" stroke="rgb(236,166,127)" stroke-opacity="1" stroke-width="11" d=" M-47.42399978637695,7.117000102996826 C-47.42399978637695,7.117000102996826 -24.173999786376953,-6.382999897003174 -2.502000093460083,-5.447999954223633 C19.17099952697754,-4.513000011444092 26.945999145507812,-3.11299991607666 34.64799880981445,-3.9240000247955322 C42.349998474121094,-4.735000133514404 47.42399978637695,-7.117000102996826 47.42399978637695,-7.117000102996826"></path></g></g><g style="display: block;" transform="matrix(1,0,0,1,0.0189971923828125,3.037994384765625)" opacity="1"><g opacity="1" transform="matrix(1,0,0,1,279.81201171875,169.13499450683594)"><path fill="rgb(232,152,110)" fill-opacity="0.77" d=" M-44.09600067138672,-42.55699920654297 C-44.09600067138672,-42.55699920654297 -35.71200180053711,30.63599967956543 -9.07800006866455,40.37799835205078 C1.402999997138977,44.21200180053711 13.01099967956543,42.09400177001953 20.409000396728516,40.74700164794922 C36.257999420166016,37.86000061035156 42.013999938964844,22.21299934387207 43.262001037597656,10.847000122070312 C45.07699966430664,-5.685999870300293 43.36199951171875,-21.25200080871582 43.36199951171875,-21.25200080871582 C43.36199951171875,-21.25200080871582 -1.590000033378601,-29.283000946044922 -1.590000033378601,-29.283000946044922 C-1.590000033378601,-29.283000946044922 -44.09600067138672,-42.55699920654297 -44.09600067138672,-42.55699920654297z"></path></g><g opacity="1" transform="matrix(1,0,0,1,165.281005859375,174.4340057373047)"><path fill="rgb(232,152,110)" fill-opacity="0.77" d=" M-35.16899871826172,-2.88700008392334 C-35.16899871826172,-2.88700008392334 -29.086999893188477,35.26300048828125 -10.288999557495117,43.00400161743164 C0.03200000151991844,47.25299835205078 11.696000099182129,43.51900100708008 18.461999893188477,40.23899841308594 C36.70800018310547,31.39299964904785 33.801998138427734,27.277999877929688 35.04899978637695,15.91100025177002 C36.86399841308594,-0.6209999918937683 17.356000900268555,-44.90800094604492 17.356000900268555,-44.90800094604492 C17.356000900268555,-44.90800094604492 0.7020000219345093,-24.07699966430664 0.7020000219345093,-24.07699966430664 C0.7020000219345093,-24.07699966430664 -35.16899871826172,-2.88700008392334 -35.16899871826172,-2.88700008392334z"></path></g></g><g style="display: block;" transform="matrix(1,0,0,1,0.0189971923828125,3.037994384765625)" opacity="1"><g opacity="1" transform="matrix(1,0,0,1,285.5069885253906,188.28500366210938)"><path fill="rgb(225,149,107)" fill-opacity="1" d=" M-26.673999786376953,-12.184000015258789 C-26.673999786376953,-12.184000015258789 -30.125999450683594,-3.805999994277954 -27.302000045776367,6.184000015258789 C-24.47800064086914,16.17300033569336 -16.774999618530273,22.781999588012695 -7.679999828338623,23.226999282836914 C3.7149999141693115,23.784000396728516 8.196999549865723,23.22800064086914 15.107999801635742,21.743000030517578 C20.06100082397461,20.67799949645996 30.125999450683594,18.47800064086914 28.555999755859375,5.5879998207092285 C26.98699951171875,-7.302000045776367 23.333999633789062,-12.696999549865723 14.54800033569336,-17.5310001373291 C5.76200008392334,-22.364999771118164 -13.180999755859375,-23.784000396728516 -18.82900047302246,-21.204999923706055 C-24.39699935913086,-18.663999557495117 -26.673999786376953,-12.184000015258789 -26.673999786376953,-12.184000015258789z"></path></g><g opacity="1" transform="matrix(1,0,0,1,283.0920104980469,182.4739990234375)"><path fill="rgb(255,255,255)" fill-opacity="1" d=" M-23.999000549316406,-10.553999900817871 C-23.999000549316406,-10.553999900817871 -27.18000030517578,-3.0360000133514404 -24.57699966430664,5.927000045776367 C-21.975000381469727,14.890999794006348 -17.059999465942383,20.385000228881836 -8.673999786376953,20.674999237060547 C-0.2879999876022339,20.964000701904297 15.614999771118164,19.80699920654297 15.614999771118164,19.80699920654297 C15.614999771118164,19.80699920654297 27.18000030517578,17.493999481201172 25.733999252319336,5.927000045776367 C24.288000106811523,-5.638000011444092 19.374000549316406,-7.6620001792907715 11.277000427246094,-12 C3.181999921798706,-16.336999893188477 -11.565999984741211,-20.964000701904297 -16.770999908447266,-18.649999618530273 C-21.900999069213867,-16.3700008392334 -23.999000549316406,-10.553999900817871 -23.999000549316406,-10.553999900817871z"></path><path stroke-linecap="butt" stroke-linejoin="miter" fill-opacity="0" stroke-miterlimit="10" stroke="rgb(111,77,111)" stroke-opacity="1" stroke-width="6.063" d=" M-23.999000549316406,-10.553999900817871 C-23.999000549316406,-10.553999900817871 -27.18000030517578,-3.0360000133514404 -24.57699966430664,5.927000045776367 C-21.975000381469727,14.890999794006348 -17.059999465942383,20.385000228881836 -8.673999786376953,20.674999237060547 C-0.2879999876022339,20.964000701904297 15.614999771118164,19.80699920654297 15.614999771118164,19.80699920654297 C15.614999771118164,19.80699920654297 27.18000030517578,17.493999481201172 25.733999252319336,5.927000045776367 C24.288000106811523,-5.638000011444092 19.374000549316406,-7.6620001792907715 11.277000427246094,-12 C3.181999921798706,-16.336999893188477 -11.565999984741211,-20.964000701904297 -16.770999908447266,-18.649999618530273 C-21.900999069213867,-16.3700008392334 -23.999000549316406,-10.553999900817871 -23.999000549316406,-10.553999900817871z"></path></g><g opacity="1" transform="matrix(1,0,0,1,3,0)"><g opacity="1" transform="matrix(1,0,0,1,275.64801025390625,184.77499389648438)"><path fill="rgb(26,11,40)" fill-opacity="1" d=" M11.559000015258789,0 C11.559000015258789,6.9670000076293945 6.383999824523926,12.614999771118164 0,12.614999771118164 C-6.382999897003174,12.614999771118164 -11.559000015258789,6.9670000076293945 -11.559000015258789,0 C-11.559000015258789,-6.9670000076293945 -6.382999897003174,-12.614999771118164 0,-12.614999771118164 C6.383999824523926,-12.614999771118164 11.559000015258789,-6.9670000076293945 11.559000015258789,0z"></path></g><g opacity="1" transform="matrix(1,0,0,1,284.12298583984375,188.54299926757812)"><path fill="rgb(255,255,255)" fill-opacity="1" d=" M3.999000072479248,0 C3.999000072479248,2.1519999504089355 2.2090001106262207,3.8959999084472656 0,3.8959999084472656 C-2.2090001106262207,3.8959999084472656 -3.999000072479248,2.1519999504089355 -3.999000072479248,0 C-3.999000072479248,-2.1510000228881836 -2.2090001106262207,-3.8959999084472656 0,-3.8959999084472656 C2.2090001106262207,-3.8959999084472656 3.999000072479248,-2.1510000228881836 3.999000072479248,0z"></path></g><g opacity="1" transform="matrix(1,0,0,1,270.552001953125,189.70399475097656)"><path fill="rgb(64,41,95)" fill-opacity="1" d=" M4.258999824523926,-0.49399998784065247 C4.557000160217285,2.072999954223633 2.8910000324249268,4.375 0.5379999876022339,4.6479997634887695 C-1.812999963760376,4.921000003814697 -3.9619998931884766,3.061000108718872 -4.260000228881836,0.49300000071525574 C-4.556000232696533,-2.0739998817443848 -2.8910000324249268,-4.375999927520752 -0.5389999747276306,-4.6479997634887695 C1.812999963760376,-4.921000003814697 3.9609999656677246,-3.061000108718872 4.258999824523926,-0.49399998784065247z"></path></g></g><g opacity="1" transform="matrix(1,0,0,1,281.94500732421875,169.8780059814453)"><path fill="rgb(247,203,170)" fill-opacity="1" d=" M-25.586000442504883,13.16100025177002 C-25.586000442504883,13.16100025177002 -12.020000457763672,9.847999572753906 -0.34599998593330383,8.902000427246094 C11.32800006866455,7.954999923706055 26.472999572753906,9.217000007629395 26.472999572753906,9.217000007629395 C26.472999572753906,9.217000007629395 18.863000869750977,-3.5920000076293945 2.4570000171661377,-9.270999908447266 C-8.781999588012695,-13.16100025177002 -13.67300033569336,-12.395999908447266 -18.77400016784668,-10.109000205993652 C-24.874000549316406,-7.375 -25.930999755859375,0.7239999771118164 -26.31599998474121,4.97599983215332 C-26.474000930786133,6.705999851226807 -25.586000442504883,13.16100025177002 -25.586000442504883,13.16100025177002z"></path><path stroke-linecap="round" stroke-linejoin="round" fill-opacity="0" stroke="rgb(166,81,37)" stroke-opacity="1" stroke-width="8" d=" M-25.586000442504883,13.16100025177002 C-25.586000442504883,13.16100025177002 -12.020000457763672,9.847999572753906 -0.34599998593330383,8.902000427246094 C11.32800006866455,7.954999923706055 26.472999572753906,9.217000007629395 26.472999572753906,9.217000007629395 C26.472999572753906,9.217000007629395 18.863000869750977,-3.5920000076293945 2.4570000171661377,-9.270999908447266 C-8.781999588012695,-13.16100025177002 -13.67300033569336,-12.395999908447266 -18.77400016784668,-10.109000205993652 C-24.874000549316406,-7.375 -25.930999755859375,0.7239999771118164 -26.31599998474121,4.97599983215332 C-26.474000930786133,6.705999851226807 -25.586000442504883,13.16100025177002 -25.586000442504883,13.16100025177002z"></path></g></g><g style="display: block;" transform="matrix(1,0,0,1,0.0189971923828125,3.037994384765625)" opacity="1"><g opacity="1" transform="matrix(1,0,0,1,175.33299255371094,198.41600036621094)"><path fill="rgb(225,149,107)" fill-opacity="1" d=" M1.062000036239624,19.299999237060547 C4.586999893188477,18.121000289916992 11.789999961853027,16.055999755859375 17.208999633789062,11.809000015258789 C20.18199920654297,9.479000091552734 23.929000854492188,5.36299991607666 23.06399917602539,0.6169999837875366 C21.577999114990234,-7.5370001792907715 20.89900016784668,-14.097000122070312 16.73699951171875,-17.882999420166016 C12.574999809265137,-21.66900062561035 1.5199999809265137,-22.861000061035156 -5.614999771118164,-21.11400032043457 C-12.75100040435791,-19.365999221801758 -21.281999588012695,-9.949999809265137 -22.17300033569336,-2.378000020980835 C-23.065000534057617,5.193999767303467 -23.93000030517578,14.33899974822998 -16.524999618530273,19.658000946044922 C-12.0649995803833,22.86199951171875 -3.760999917984009,20.913000106811523 1.062000036239624,19.299999237060547z"></path></g><g opacity="1" transform="matrix(1,0,0,1,171.02499389648438,191.6929931640625)"><path fill="rgb(255,255,255)" fill-opacity="1" d=" M2.490999937057495,18.854999542236328 C6.015999794006348,17.676000595092773 14.493000030517578,16.165000915527344 19.913000106811523,11.918000221252441 C22.88599967956543,9.588000297546387 23.753000259399414,7.367000102996826 22.886999130249023,2.621999979019165 C21.400999069213867,-5.5329999923706055 15.402999877929688,-12.281999588012695 11.239999771118164,-16.06800079345703 C7.078000068664551,-19.85300064086914 2.61899995803833,-22.475000381469727 -4.517000198364258,-20.72800064086914 C-11.652999877929688,-18.979999542236328 -20.183000564575195,-9.562999725341797 -21.075000762939453,-1.9919999837875366 C-21.966999053955078,5.579999923706055 -23.753000259399414,13.95199966430664 -16.347999572753906,19.27199935913086 C-11.888999938964844,22.475000381469727 -2.3320000171661377,20.468000411987305 2.490999937057495,18.854999542236328z"></path><path stroke-linecap="butt" stroke-linejoin="miter" fill-opacity="0" stroke-miterlimit="10" stroke="rgb(111,77,111)" stroke-opacity="1" stroke-width="6.085" d=" M2.490999937057495,18.854999542236328 C6.015999794006348,17.676000595092773 14.493000030517578,16.165000915527344 19.913000106811523,11.918000221252441 C22.88599967956543,9.588000297546387 23.753000259399414,7.367000102996826 22.886999130249023,2.621999979019165 C21.400999069213867,-5.5329999923706055 15.402999877929688,-12.281999588012695 11.239999771118164,-16.06800079345703 C7.078000068664551,-19.85300064086914 2.61899995803833,-22.475000381469727 -4.517000198364258,-20.72800064086914 C-11.652999877929688,-18.979999542236328 -20.183000564575195,-9.562999725341797 -21.075000762939453,-1.9919999837875366 C-21.966999053955078,5.579999923706055 -23.753000259399414,13.95199966430664 -16.347999572753906,19.27199935913086 C-11.888999938964844,22.475000381469727 -2.3320000171661377,20.468000411987305 2.490999937057495,18.854999542236328z"></path></g><g opacity="1" transform="matrix(1,0,0,1,-7,0)"><g opacity="1" transform="matrix(1,0,0,1,172.07400512695312,191.9250030517578)"><path fill="rgb(26,11,40)" fill-opacity="1" d=" M10.819999694824219,-1.2289999723434448 C11.576000213623047,5.158999919891357 7.34499979019165,10.887999534606934 1.36899995803833,11.567000389099121 C-4.60699987411499,12.246000289916992 -10.064000129699707,7.617000102996826 -10.819999694824219,1.2289999723434448 C-11.576000213623047,-5.159999847412109 -7.343999862670898,-10.888999938964844 -1.3680000305175781,-11.567000389099121 C4.60699987411499,-12.246000289916992 10.064000129699707,-7.617000102996826 10.819999694824219,-1.2289999723434448z"></path></g><g opacity="1" transform="matrix(1,0,0,1,181.11399841308594,193.0500030517578)"><path fill="rgb(255,255,255)" fill-opacity="1" d=" M3.7679998874664307,0 C3.7679998874664307,1.9859999418258667 2.0810000896453857,3.5959999561309814 -0.0010000000474974513,3.5959999561309814 C-2.0820000171661377,3.5959999561309814 -3.7690000534057617,1.9859999418258667 -3.7690000534057617,0 C-3.7690000534057617,-1.9859999418258667 -2.0820000171661377,-3.5959999561309814 -0.0010000000474974513,-3.5959999561309814 C2.0810000896453857,-3.5959999561309814 3.7679998874664307,-1.9859999418258667 3.7679998874664307,0z"></path></g><g opacity="1" transform="matrix(1,0,0,1,167.66200256347656,195.80099487304688)"><path fill="rgb(64,41,95)" fill-opacity="1" d=" M4.364999771118164,-0.4959999918937683 C4.670000076293945,2.0810000896453857 2.9639999866485596,4.392000198364258 0.5519999861717224,4.665999889373779 C-1.8580000400543213,4.939000129699707 -4.059000015258789,3.072000026702881 -4.363999843597412,0.4950000047683716 C-4.669000148773193,-2.0810000896453857 -2.9619998931884766,-4.392000198364258 -0.5519999861717224,-4.665999889373779 C1.8589999675750732,-4.940000057220459 4.059999942779541,-3.072999954223633 4.364999771118164,-0.4959999918937683z"></path></g></g><g opacity="1" transform="matrix(1,0,0,1,170.44700622558594,178.5800018310547)"><path fill="rgb(247,203,170)" fill-opacity="1" d=" M-21.7189998626709,12.126999855041504 C-21.7189998626709,12.126999855041504 -10.536999702453613,6.831999778747559 0.3779999911785126,6.0229997634887695 C12.53600025177002,5.122000217437744 21.7189998626709,6.849999904632568 21.7189998626709,6.849999904632568 C21.7189998626709,6.849999904632568 16.368000030517578,-4.703000068664551 7.052000045776367,-8.876999855041504 C-0.20200000703334808,-12.128000259399414 -6.923999786376953,-10.230999946594238 -12.369999885559082,-5.631999969482422 C-20.586000442504883,1.305999994277954 -21.7189998626709,12.126999855041504 -21.7189998626709,12.126999855041504z"></path><path stroke-linecap="round" stroke-linejoin="round" fill-opacity="0" stroke="rgb(166,81,37)" stroke-opacity="1" stroke-width="7.8" d=" M-21.7189998626709,12.126999855041504 C-21.7189998626709,12.126999855041504 -10.536999702453613,6.831999778747559 0.3779999911785126,6.0229997634887695 C12.53600025177002,5.122000217437744 21.7189998626709,6.849999904632568 21.7189998626709,6.849999904632568 C21.7189998626709,6.849999904632568 16.368000030517578,-4.703000068664551 7.052000045776367,-8.876999855041504 C-0.20200000703334808,-12.128000259399414 -6.923999786376953,-10.230999946594238 -12.369999885559082,-5.631999969482422 C-20.586000442504883,1.305999994277954 -21.7189998626709,12.126999855041504 -21.7189998626709,12.126999855041504z"></path></g></g><g style="display: block;" transform="matrix(1,0,0,1,0.0189971923828125,3.037994384765625)" opacity="1"><g opacity="1" transform="matrix(1,0,0,1,279.27801513671875,140.26400756835938)"><path fill="rgb(53,26,6)" fill-opacity="1" d=" M-41.51499938964844,-13.248000144958496 C-37.44900131225586,-8.182000160217285 -33.89699935913086,-4.248000144958496 -24.95199966430664,-0.6000000238418579 C-12.399999618530273,4.519999980926514 -0.2160000056028366,2.8480000495910645 9.217000007629395,5.158999919891357 C19.05500030517578,7.567999839782715 30.402000427246094,11.366999626159668 38.231998443603516,18.795000076293945 C46.98699951171875,27.10099983215332 50.01100158691406,19.170000076293945 42.58300018310547,8.930999755859375 C36.1510009765625,0.06499999761581421 30.55900001525879,-4.461999893188477 15.3100004196167,-8.47700023651123 C0.06199999898672104,-12.493000030517578 -17.856000900268555,-7.224999904632568 -27.06100082397461,-10.83899974822998 C-36.60300064086914,-14.585000038146973 -40.92300033569336,-27.10099983215332 -44.827999114990234,-24.691999435424805 C-50.01100158691406,-21.4950008392334 -45.14099884033203,-17.766000747680664 -41.51499938964844,-13.248000144958496z"></path><path stroke-linecap="butt" stroke-linejoin="miter" fill-opacity="0" stroke-miterlimit="10" stroke="rgb(49,23,6)" stroke-opacity="1" stroke-width="3" d=" M-41.51499938964844,-13.248000144958496 C-37.44900131225586,-8.182000160217285 -33.89699935913086,-4.248000144958496 -24.95199966430664,-0.6000000238418579 C-12.399999618530273,4.519999980926514 -0.2160000056028366,2.8480000495910645 9.217000007629395,5.158999919891357 C19.05500030517578,7.567999839782715 30.402000427246094,11.366999626159668 38.231998443603516,18.795000076293945 C46.98699951171875,27.10099983215332 50.01100158691406,19.170000076293945 42.58300018310547,8.930999755859375 C36.1510009765625,0.06499999761581421 30.55900001525879,-4.461999893188477 15.3100004196167,-8.47700023651123 C0.06199999898672104,-12.493000030517578 -17.856000900268555,-7.224999904632568 -27.06100082397461,-10.83899974822998 C-36.60300064086914,-14.585000038146973 -40.92300033569336,-27.10099983215332 -44.827999114990234,-24.691999435424805 C-50.01100158691406,-21.4950008392334 -45.14099884033203,-17.766000747680664 -41.51499938964844,-13.248000144958496z"></path></g><g opacity="1" transform="matrix(1,0,0,1,156.95199584960938,144.91000366210938)"><path fill="rgb(53,26,6)" fill-opacity="1" d=" M-20.218000411987305,25.048999786376953 C-19.95400047302246,22.724000930786133 -16.767000198364258,16.893999099731445 -11.940999984741211,13.640000343322754 C-7.113999843597412,10.385000228881836 4.131999969482422,8.25 14.548999786376953,5.080999851226807 C26.011999130249023,1.593999981880188 27.04199981689453,-7.340000152587891 26.136999130249023,-15.243000030517578 C25.23200035095215,-23.14699935913086 27.150999069213867,-30.2189998626709 23.229000091552734,-30.2189998626709 C19.30699920654297,-30.2189998626709 20.72100067138672,-21.59000015258789 19.514999389648438,-15.777999877929688 C18.308000564575195,-9.967000007629395 6.665999889373779,-6.3470001220703125 2.441999912261963,-5.882999897003174 C-1.781000018119812,-5.416999816894531 -11.51200008392334,-3.0850000381469727 -18.14900016784668,3.6559998989105225 C-24.78499984741211,10.397000312805176 -25.599000930786133,16.958999633789062 -25.599000930786133,21.84000015258789 C-25.599000930786133,26.722000122070312 -27.150999069213867,30.2189998626709 -24.134000778198242,30.2189998626709 C-21.117000579833984,30.2189998626709 -20.343000411987305,26.155000686645508 -20.218000411987305,25.048999786376953z"></path><path stroke-linecap="butt" stroke-linejoin="miter" fill-opacity="0" stroke-miterlimit="10" stroke="rgb(49,23,6)" stroke-opacity="1" stroke-width="3" d=" M-20.218000411987305,25.048999786376953 C-19.95400047302246,22.724000930786133 -16.767000198364258,16.893999099731445 -11.940999984741211,13.640000343322754 C-7.113999843597412,10.385000228881836 4.131999969482422,8.25 14.548999786376953,5.080999851226807 C26.011999130249023,1.593999981880188 27.04199981689453,-7.340000152587891 26.136999130249023,-15.243000030517578 C25.23200035095215,-23.14699935913086 27.150999069213867,-30.2189998626709 23.229000091552734,-30.2189998626709 C19.30699920654297,-30.2189998626709 20.72100067138672,-21.59000015258789 19.514999389648438,-15.777999877929688 C18.308000564575195,-9.967000007629395 6.665999889373779,-6.3470001220703125 2.441999912261963,-5.882999897003174 C-1.781000018119812,-5.416999816894531 -11.51200008392334,-3.0850000381469727 -18.14900016784668,3.6559998989105225 C-24.78499984741211,10.397000312805176 -25.599000930786133,16.958999633789062 -25.599000930786133,21.84000015258789 C-25.599000930786133,26.722000122070312 -27.150999069213867,30.2189998626709 -24.134000778198242,30.2189998626709 C-21.117000579833984,30.2189998626709 -20.343000411987305,26.155000686645508 -20.218000411987305,25.048999786376953z"></path></g></g><g style="display: block;" transform="matrix(1,0,0,1,0,0)" opacity="1"><g opacity="1" transform="matrix(1,0,0,1,198.80999755859375,318.7569885253906)"><path fill="rgb(224,148,107)" fill-opacity="1" d=" M5.113999843597412,-41.051998138427734 C5.113999843597412,-41.051998138427734 2.9030001163482666,-45.75199890136719 -1.2430000305175781,-42.71099853515625 C-5.390999794006348,-39.66999816894531 -23.360000610351562,-22.253000259399414 -18.937000274658203,-4.560999870300293 C-14.513999938964844,13.131999969482422 4.284999847412109,37.18299865722656 12.302000045776367,40.777000427246094 C20.319000244140625,44.37099838256836 23.360000610351562,45.75299835205078 22.80699920654297,41.60599899291992 C22.2549991607666,37.459999084472656 7.414000034332275,9.243000030517578 5.390999794006348,0.1379999965429306 C1.5199999809265137,-17.277999877929688 5.113999843597412,-41.051998138427734 5.113999843597412,-41.051998138427734z"></path></g><g opacity="1" transform="matrix(1,0,0,1,256.1730041503906,311.42999267578125)"><path fill="rgb(224,148,107)" fill-opacity="1" d=" M-57.362998962402344,2.9040000438690186 C-57.362998962402344,2.9040000438690186 -46.856998443603516,1.7979999780654907 -46.856998443603516,1.7979999780654907 C-46.856998443603516,1.7979999780654907 -42.5260009765625,7.235000133514404 -34.417999267578125,7.603000164031982 C-26.308000564575195,7.9710001945495605 -24.60300064086914,5.943999767303467 -24.60300064086914,5.943999767303467 C-24.60300064086914,5.943999767303467 -20.457000732421875,8.708999633789062 -12.024999618530273,9.399999618530273 C-5.4019999504089355,9.942999839782715 -3.869999885559082,6.083000183105469 -3.869999885559082,6.083000183105469 C-3.869999885559082,6.083000183105469 1.2899999618530273,10.875 8.293999671936035,11.612000465393066 C15.29699993133545,12.348999977111816 24.143999099731445,14.098999977111816 27.093000411987305,11.887999534606934 C30.041000366210938,9.675999641418457 31.516000747680664,2.489000082015991 31.516000747680664,2.489000082015991 C31.516000747680664,2.489000082015991 44.50899887084961,5.806000232696533 52.249000549316406,6.9120001792907715 C57.04899978637695,7.5970001220703125 61.00400161743164,-3.0399999618530273 41.46799850463867,-8.569000244140625 C21.93199920654297,-14.097999572753906 -23.03700065612793,-11.241999626159668 -33.356998443603516,-9.39900016784668 C-43.678001403808594,-7.556000232696533 -61.00299835205078,3.132999897003174 -61.00299835205078,3.132999897003174 C-61.00299835205078,3.132999897003174 -57.362998962402344,2.9040000438690186 -57.362998962402344,2.9040000438690186z"></path></g><g opacity="1" transform="matrix(1,0,0,1,0,0)"><path fill="rgb(129,42,22)" fill-opacity="1" d=" M243.625,282.75 C228.125,283.125 195.625,302.75 196.125,307.375 C196.625,312 206.5,312.875 206.5,312.875 C206.5,312.875 215.49000549316406,312.2560119628906 222.99899291992188,312.2200012207031 C231.7530059814453,312.1780090332031 231,312 247.375,311.75 C259.3110046386719,311.5679931640625 271.364013671875,311.4670104980469 277.5589904785156,311.7650146484375 C290.96099853515625,312.40899658203125 305.625,314.2149963378906 305.625,310.625 C305.625,305.375 259.125,282.375 243.625,282.75z"></path></g><g opacity="1" transform="matrix(1.0299999713897705,0,0,1.0299999713897705,-4.3710479736328125,-9.25152587890625)"><g opacity="1" transform="matrix(1,0,0,1,266.7359924316406,309.5929870605469)"><path fill="rgb(255,255,255)" fill-opacity="1" d=" M-11.666999816894531,-7.567999839782715 C-11.666999816894531,-7.567999839782715 -13.347999572753906,2.068000078201294 -9.565999984741211,3.7850000858306885 C-7.250999927520752,4.835000038146973 -2.061000108718872,6.307000160217285 2.625999927520752,6.307000160217285 C8.090999603271484,6.307000160217285 12.222999572753906,7.567999839782715 12.715999603271484,5.045000076293945 C13.208999633789062,2.5230000019073486 13.347999572753906,-6.09499979019165 13.347999572753906,-6.09499979019165 C13.347999572753906,-6.09499979019165 0.5230000019073486,-7.567999839782715 0.5230000019073486,-7.567999839782715 C0.5230000019073486,-7.567999839782715 -11.666999816894531,-7.567999839782715 -11.666999816894531,-7.567999839782715z"></path><path stroke-linecap="butt" stroke-linejoin="round" fill-opacity="0" stroke="rgb(107,130,176)" stroke-opacity="1" stroke-width="6.944" d=" M-11.666999816894531,-7.567999839782715 C-11.666999816894531,-7.567999839782715 -13.347999572753906,2.068000078201294 -9.565999984741211,3.7850000858306885 C-7.250999927520752,4.835000038146973 -2.061000108718872,6.307000160217285 2.625999927520752,6.307000160217285 C8.090999603271484,6.307000160217285 12.222999572753906,7.567999839782715 12.715999603271484,5.045000076293945 C13.208999633789062,2.5230000019073486 13.347999572753906,-6.09499979019165 13.347999572753906,-6.09499979019165 C13.347999572753906,-6.09499979019165 0.5230000019073486,-7.567999839782715 0.5230000019073486,-7.567999839782715 C0.5230000019073486,-7.567999839782715 -11.666999816894531,-7.567999839782715 -11.666999816894531,-7.567999839782715z"></path></g><g opacity="1" transform="matrix(1,0,0,1,240.0469970703125,308.3320007324219)"><path fill="rgb(255,255,255)" fill-opacity="1" d=" M-9.038000106811523,-4.835000038146973 C-9.038000106811523,-4.835000038146973 -7.35699987411499,0.8410000205039978 -7.35699987411499,0.8410000205039978 C-7.35699987411499,0.8410000205039978 -6.72599983215332,5.465000152587891 -1.0509999990463257,5.675000190734863 C4.625,5.886000156402588 8.406999588012695,5.045000076293945 8.618000030517578,2.941999912261963 C8.82800006866455,0.8410000205039978 9.038000106811523,-5.466000080108643 9.038000106811523,-5.466000080108643 C9.038000106811523,-5.466000080108643 -1.6829999685287476,-5.886000156402588 -1.6829999685287476,-5.886000156402588 C-1.6829999685287476,-5.886000156402588 -9.038000106811523,-4.835000038146973 -9.038000106811523,-4.835000038146973z"></path><path stroke-linecap="butt" stroke-linejoin="miter" fill-opacity="0" stroke-miterlimit="10" stroke="rgb(107,130,176)" stroke-opacity="1" stroke-width="6.944" d=" M-9.038000106811523,-4.835000038146973 C-9.038000106811523,-4.835000038146973 -7.35699987411499,0.8410000205039978 -7.35699987411499,0.8410000205039978 C-7.35699987411499,0.8410000205039978 -6.72599983215332,5.465000152587891 -1.0509999990463257,5.675000190734863 C4.625,5.886000156402588 8.406999588012695,5.045000076293945 8.618000030517578,2.941999912261963 C8.82800006866455,0.8410000205039978 9.038000106811523,-5.466000080108643 9.038000106811523,-5.466000080108643 C9.038000106811523,-5.466000080108643 -1.6829999685287476,-5.886000156402588 -1.6829999685287476,-5.886000156402588 C-1.6829999685287476,-5.886000156402588 -9.038000106811523,-4.835000038146973 -9.038000106811523,-4.835000038146973z"></path></g><g opacity="1" transform="matrix(1,0,0,1,219.8179931640625,306.8599853515625)"><path fill="rgb(255,255,255)" fill-opacity="1" d=" M-8.496999740600586,-3.0250000953674316 C-8.496999740600586,-3.0250000953674316 -8.074000358581543,3.5739998817443848 -6.310999870300293,4.624000072479248 C-4.548999786376953,5.676000118255615 -2.256999969482422,6.0960001945495605 1.4450000524520874,6.0960001945495605 C5.1479997634887695,6.0960001945495605 8.145000457763672,6.306000232696533 8.319999694824219,4.203999996185303 C8.496999740600586,2.1019999980926514 7.614999771118164,-6.306000232696533 7.614999771118164,-6.306000232696533 C7.614999771118164,-6.306000232696533 -8.496999740600586,-3.0250000953674316 -8.496999740600586,-3.0250000953674316z"></path><path stroke-linecap="butt" stroke-linejoin="miter" fill-opacity="0" stroke-miterlimit="10" stroke="rgb(107,130,176)" stroke-opacity="1" stroke-width="6.944" d=" M-8.496999740600586,-3.0250000953674316 C-8.496999740600586,-3.0250000953674316 -8.074000358581543,3.5739998817443848 -6.310999870300293,4.624000072479248 C-4.548999786376953,5.676000118255615 -2.256999969482422,6.0960001945495605 1.4450000524520874,6.0960001945495605 C5.1479997634887695,6.0960001945495605 8.145000457763672,6.306000232696533 8.319999694824219,4.203999996185303 C8.496999740600586,2.1019999980926514 7.614999771118164,-6.306000232696533 7.614999771118164,-6.306000232696533 C7.614999771118164,-6.306000232696533 -8.496999740600586,-3.0250000953674316 -8.496999740600586,-3.0250000953674316z"></path></g></g><g opacity="1" transform="matrix(1,0,0,1,0,0)"><path fill="rgb(246,198,164)" fill-opacity="1" d=" M216.75,266.25 C207.25,268.5 195.5,291.25 195.5,291.25 C195.5,291.25 199.75,302.25 199.75,302.25 C199.75,302.25 226.04800415039062,291.4129943847656 240,290.25 C270,287.75 296.75,297.5 296.75,297.5 C296.75,297.5 313.25,291.5 313.25,291.5 C313.25,291.5 291,272.25 282.25,269.25 C273.5,266.25 226.25,264 216.75,266.25z"></path></g><g opacity="1" transform="matrix(1,0,0,1,196.62899780273438,315.7309875488281)"><path fill="rgb(166,81,37)" fill-opacity="1" d=" M0.7730000019073486,-38.297000885009766 C0.7730000019073486,-38.297000885009766 -17.409000396728516,-22.437000274658203 -6.9629998207092285,2.7079999446868896 C3.4809999465942383,27.85300064086914 13.539999961853027,37.52299880981445 13.539999961853027,37.52299880981445 C13.539999961853027,37.52299880981445 17.408000946044922,39.07099914550781 15.859999656677246,34.816001892089844 C14.312999725341797,30.56100082397461 0.38600000739097595,-1.159999966621399 0.7730000019073486,-10.831000328063965 C1.1610000133514404,-20.50200080871582 4.642000198364258,-32.88100051879883 5.802000045776367,-35.97600173950195 C6.961999893188477,-39.06999969482422 0.7730000019073486,-38.297000885009766 0.7730000019073486,-38.297000885009766z"></path></g><g opacity="1" transform="matrix(1,0,0,1,249.30099487304688,299.927001953125)"><path fill="rgb(224,148,107)" fill-opacity="1" d=" M-51.54600143432617,1.1740000247955322 C-51.54600143432617,1.1740000247955322 -28.739999771118164,-12.477999687194824 0.27300000190734863,-12.477999687194824 C29.285999298095703,-12.477999687194824 48.80799865722656,-3.4670000076293945 53.83700180053711,-1.1449999809265137 C58.8650016784668,1.1749999523162842 59.18600082397461,5.995999813079834 59.18600082397461,5.995999813079834 C59.18600082397461,5.995999813079834 59.57400131225586,9.477999687194824 59.57400131225586,9.477999687194824 C59.57400131225586,9.477999687194824 23.597000122070312,-3.2890000343322754 -1.934999942779541,-1.7410000562667847 C-27.466999053955078,-0.1940000057220459 -44.82400131225586,6.228000164031982 -44.82400131225586,6.228000164031982 C-44.82400131225586,6.228000164031982 -51.54600143432617,1.1740000247955322 -51.54600143432617,1.1740000247955322z"></path></g><g opacity="1" transform="matrix(1,0,0,1,251.05299377441406,302.04901123046875)"><path stroke-linecap="round" stroke-linejoin="round" fill-opacity="0" stroke="rgb(129,42,22)" stroke-opacity="1" stroke-width="8.52" d=" M51.69499969482422,5.36299991607666 C51.69499969482422,5.36299991607666 19.715999603271484,-6.131999969482422 -12.633000373840332,-2.499000072479248 C-44.983001708984375,1.1330000162124634 -51.69499969482422,6.132999897003174 -51.69499969482422,6.132999897003174"></path></g><g opacity="1" transform="matrix(1,0,0,1,301.04998779296875,303.69000244140625)"><path fill="rgb(223,148,107)" fill-opacity="1" d=" M-0.9210000038146973,-1.9359999895095825 C9.956999778747559,4.711999893188477 12.991999626159668,13.821999549865723 13.729000091552734,20.457000732421875 C14.467000007629395,27.090999603271484 14.006999969482422,42.112998962402344 20.273000717163086,44.69300079345703 C26.540000915527344,47.27299880981445 26.908000946044922,40.63800048828125 26.540000915527344,33.26599884033203 C26.17099952697754,25.893999099731445 29.118999481201172,4.513999938964844 16.586999893188477,-11.335000038146973 C4.053999900817871,-27.184999465942383 1.2580000162124634,-28.591999053955078 -0.9210000038146973,-33.72800064086914 C-4.790999889373779,-42.849998474121094 -8.371999740600586,-46.56999969482422 -12.809000015258789,-46.720001220703125 C-29.118999481201172,-47.27199935913086 -11.798999786376953,-8.583999633789062 -0.9210000038146973,-1.9359999895095825z"></path></g><g opacity="1" transform="matrix(1,0,0,1,307.4599914550781,303.35101318359375)"><path stroke-linecap="round" stroke-linejoin="round" fill-opacity="0" stroke="rgb(166,81,37)" stroke-opacity="1" stroke-width="9.585" d=" M-17.988000869750977,-39.263999938964844 C-17.988000869750977,-39.263999938964844 -12.185999870300293,-19.92099952697754 -0.5809999704360962,-11.40999984741211 C11.02400016784668,-2.9010000228881836 15.666000366210938,6.769999980926514 16.826000213623047,14.892999649047852 C17.988000869750977,23.017000198364258 17.601999282836914,39.263999938964844 17.601999282836914,39.263999938964844"></path></g></g><g style="display: block;" transform="matrix(1,0,0,1,0.0189971923828125,3.037994384765625)" opacity="1"><g opacity="1" transform="matrix(1,0,0,1,236.50900268554688,258.0820007324219)"><path fill="rgb(232,152,110)" fill-opacity="1" d=" M-27.73699951171875,-13.723999977111816 C-27.73699951171875,-13.723999977111816 -22.972999572753906,-6.127999782562256 -9.402000427246094,-5.6529998779296875 C0.22200000286102295,-5.315999984741211 10.784000396728516,-7.864999771118164 16.94700050354004,-6.389999866485596 C23.111000061035156,-4.915999889373779 29.174999237060547,-1.6059999465942383 28.326000213623047,2.296999931335449 C26.483999252319336,10.774999618530273 10.630000114440918,13.723999977111816 2.1570000648498535,13.723999977111816 C-6.317999839782715,13.723999977111816 -20.315000534057617,8.562999725341797 -24.552000045776367,4.508999824523926 C-28.790000915527344,0.45500001311302185 -29.173999786376953,-7.285999774932861 -29.173999786376953,-7.285999774932861 C-29.173999786376953,-7.285999774932861 -27.73699951171875,-13.723999977111816 -27.73699951171875,-13.723999977111816z"></path></g><g opacity="1" transform="matrix(1,0,0,1,217.81100463867188,246.23300170898438)"><path stroke-linecap="round" stroke-linejoin="round" fill-opacity="0" stroke="rgb(166,81,37)" stroke-opacity="1" stroke-width="10" d=" M-0.3400000035762787,-15.340999603271484 C-0.3400000035762787,-15.340999603271484 -7.940999984741211,-8.064000129699707 -9.10099983215332,-1.8739999532699585 C-10.152000427246094,3.7279999256134033 -9.10099983215332,9.923999786376953 -2.138000011444092,12.633000373840332 C4.826000213623047,15.340999603271484 10.152999877929688,14.760000228881836 10.152999877929688,14.760000228881836"></path></g><g opacity="1" transform="matrix(1,0,0,1,252.80999755859375,254.0260009765625)"><path stroke-linecap="round" stroke-linejoin="round" fill-opacity="0" stroke="rgb(166,81,37)" stroke-opacity="1" stroke-width="10" d=" M-11.024999618530273,2.13100004196167 C-11.024999618530273,2.13100004196167 2.381999969482422,11.699000358581543 8.123000144958496,1.937999963760376 C11.024999618530273,-2.99399995803833 2.321000099182129,-11.699000358581543 2.321000099182129,-11.699000358581543"></path></g><g opacity="1" transform="matrix(1,0,0,1,226.32200622558594,206.8040008544922)"><path stroke-linecap="round" stroke-linejoin="round" fill-opacity="0" stroke="rgb(166,81,37)" stroke-opacity="1" stroke-width="10" d=" M0.7820000052452087,-7.302000045776367 C0.7820000052452087,-7.302000045776367 1.0429999828338623,-5.736999988555908 0.7820000052452087,-0.7820000052452087 C0.6179999709129333,2.3429999351501465 -1.0429999828338623,7.302000045776367 -1.0429999828338623,7.302000045776367"></path></g><g opacity="1" transform="matrix(1,0,0,1,246.68499755859375,257.9129943847656)"><path fill="rgb(139,43,27)" fill-opacity="1" d=" M5.747000217437744,1.1799999475479126 C1.065999984741211,-0.45399999618530273 1.2239999771118164,-1.2230000495910645 -2.190999984741211,-2.196000099182129 C-5.60699987411499,-3.1689999103546143 -7.925000190734863,-3.2060000896453857 -8.390000343322754,-1.6230000257492065 C-9.102999687194824,0.8059999942779541 -5.120999813079834,2.6040000915527344 -0.29899999499320984,3.63700008392334 C4.521999835968018,4.671000003814697 7.683000087738037,4.872000217437744 8.187000274658203,3.6579999923706055 C8.692000389099121,2.443000078201294 8.02299976348877,1.9739999771118164 5.747000217437744,1.1799999475479126z"></path></g></g></g><g clip-path="url(#__lottie_element_6)" style="display: block;" transform="matrix(-0.35400524735450745,-0.09975310415029526,-0.10816042125225067,0.38384124636650085,528.1544189453125,283.8476257324219)" opacity="1"><g style="display: block;" transform="matrix(1,0,0,1,48.03047180175781,2.760833740234375)" opacity="1"><g opacity="1" transform="matrix(0.9888397455215454,-0.14898309111595154,0.14898309111595154,0.9888397455215454,273.5400695800781,191.28440856933594)"><path fill="rgb(247,195,159)" fill-opacity="1" d=" M-62.80099868774414,45.65299987792969 C-62.80099868774414,45.65299987792969 -50.88999938964844,23.611000061035156 -23.98900032043457,13.491000175476074 C-12.97599983215332,9.347000122070312 2.184000015258789,9.255000114440918 12.869999885559082,12.90999984741211 C39.858001708984375,22.14299964904785 45.277000427246094,43.67900085449219 57.35100173950195,56.4630012512207 C69.42400360107422,69.24700164794922 85.04900360107422,70.66699981689453 94.99199676513672,67.11599731445312 C104.93599700927734,63.564998626708984 109.1969985961914,58.59299850463867 108.48699951171875,45.808998107910156 C107.7760009765625,33.025001525878906 99.96399688720703,-12.428999900817871 68.00399780273438,-40.8380012512207 C39.23099899291992,-66.41400146484375 9.765999794006348,-70.66699981689453 -30.716999053955078,-66.40599822998047 C-71.19999694824219,-62.14500045776367 -109.1969985961914,-13.138999938964844 -109.1969985961914,-13.138999938964844"></path><path stroke-linecap="round" stroke-linejoin="round" fill-opacity="0" stroke="rgb(166,85,43)" stroke-opacity="1" stroke-width="27" d=" M-62.80099868774414,45.65299987792969 C-62.80099868774414,45.65299987792969 -50.88999938964844,23.611000061035156 -23.98900032043457,13.491000175476074 C-12.97599983215332,9.347000122070312 2.184000015258789,9.255000114440918 12.869999885559082,12.90999984741211 C39.858001708984375,22.14299964904785 45.277000427246094,43.67900085449219 57.35100173950195,56.4630012512207 C69.42400360107422,69.24700164794922 85.04900360107422,70.66699981689453 94.99199676513672,67.11599731445312 C104.93599700927734,63.564998626708984 109.1969985961914,58.59299850463867 108.48699951171875,45.808998107910156 C107.7760009765625,33.025001525878906 99.96399688720703,-12.428999900817871 68.00399780273438,-40.8380012512207 C39.23099899291992,-66.41400146484375 9.765999794006348,-70.66699981689453 -30.716999053955078,-66.40599822998047 C-71.19999694824219,-62.14500045776367 -109.1969985961914,-13.138999938964844 -109.1969985961914,-13.138999938964844"></path></g><g opacity="1" transform="matrix(1,0,0,1,318.0920104980469,371.9729919433594)"><path fill="rgb(247,195,159)" fill-opacity="1" d=" M-70.19300079345703,-34.80099868774414 C-70.19300079345703,-34.80099868774414 -41.35300064086914,-23.195999145507812 -14.795000076293945,-38.707000732421875 C14.968000411987305,-56.090999603271484 23.1200008392334,-109.85199737548828 50.30699920654297,-112.57099914550781 C71.61399841308594,-114.70099639892578 75.78754425048828,-108.68463897705078 76.49754333496094,-81.69564056396484 C77.2075424194336,-54.707637786865234 58.61994934082031,-13.270000457763672 35.156951904296875,23.21299934387207 C6.486950874328613,67.79299926757812 -34.32400131225586,90.26799774169922 -49.12300109863281,99.44400024414062 C-63.922000885009766,108.62000274658203 -85.05899810791016,113.70099639892578 -85.05899810791016,113.70099639892578"></path><path stroke-linecap="round" stroke-linejoin="round" fill-opacity="0" stroke="rgb(166,85,43)" stroke-opacity="1" stroke-width="24" d=" M-70.19300079345703,-34.80099868774414 C-70.19300079345703,-34.80099868774414 -41.35300064086914,-23.195999145507812 -14.795000076293945,-38.707000732421875 C14.968000411987305,-56.090999603271484 23.1200008392334,-109.85199737548828 50.30699920654297,-112.57099914550781 C71.61399841308594,-114.70099639892578 75.78754425048828,-108.68463897705078 76.49754333496094,-81.69564056396484 C77.2075424194336,-54.707637786865234 58.61994934082031,-13.270000457763672 35.156951904296875,23.21299934387207 C6.486950874328613,67.79299926757812 -34.32400131225586,90.26799774169922 -49.12300109863281,99.44400024414062 C-63.922000885009766,108.62000274658203 -85.05899810791016,113.70099639892578 -85.05899810791016,113.70099639892578"></path></g><g opacity="1" transform="matrix(1,0,0,1,169.92300415039062,350.97698974609375)"><path fill="rgb(247,195,159)" fill-opacity="1" d=" M-82.13800048828125,130.8159942626953 C-109.22599792480469,116.33100128173828 -137.31300354003906,85.197998046875 -135.45599365234375,54.5369987487793 C-133.82200622558594,27.56999969482422 -138.11099243164062,9.45199966430664 -135.802001953125,-12.385000228881836 C-130.1199951171875,-66.125 -112.83799743652344,-144.84100341796875 -86.55999755859375,-151.23300170898438 C-60.28200149536133,-157.625 19.73699951171875,-167.5679931640625 37.49300003051758,-149.81199645996094 C55.24800109863281,-132.0570068359375 45.805999755859375,-117.37100219726562 45.805999755859375,-117.37100219726562 C45.805999755859375,-117.37100219726562 35.36199951171875,-75.59400177001953 44.95000076293945,-50.0260009765625 C52.284000396728516,-30.468000411987305 74.42400360107422,-2.796999931335449 106.73899841308594,-6.3480000495910645 C125.8010025024414,-8.442999839782715 138.11099243164062,29.697999954223633 136.9239959716797,48.69499969482422 C135.1479949951172,77.10399627685547 124.63099670410156,104.20099639892578 77.0459976196289,135.4510040283203 C48.029998779296875,154.50599670410156 2.3580000400543213,156.5679931640625 -46.64699935913086,147.3350067138672 C-65.50399780273438,143.7830047607422 -66.072998046875,139.40699768066406 -82.13800048828125,130.8159942626953z"></path></g><g opacity="1" transform="matrix(0.9977921843528748,-0.06641321629285812,0.06641321629285812,0.9977921843528748,264.2889404296875,129.0574951171875)"><path fill="rgb(247,195,159)" fill-opacity="1" d=" M-130.89599609375,35.27399826049805 C-130.89599609375,35.27399826049805 -62.35900115966797,-40.720001220703125 -9.052000045776367,-59.18600082397461 C44.25400161743164,-77.6520004272461 101.71399688720703,-80.49199676513672 112.0989990234375,-71.96900177001953 C122.48300170898438,-63.44599914550781 130.89599609375,-31.013999938964844 101.81999969482422,-21.7810001373291 C72.74400329589844,-12.54800033569336 26.02400016784668,-4.7270002365112305 4.2829999923706055,7.576000213623047 C-25.836999893188477,24.621999740600586 -73.84100341796875,80.49299621582031 -73.84100341796875,80.49299621582031"></path><path stroke-linecap="round" stroke-linejoin="round" fill-opacity="0" stroke="rgb(166,85,43)" stroke-opacity="1" stroke-width="27" d=" M-130.89599609375,35.27399826049805 C-130.89599609375,35.27399826049805 -62.35900115966797,-40.720001220703125 -9.052000045776367,-59.18600082397461 C44.25400161743164,-77.6520004272461 101.71399688720703,-80.49199676513672 112.0989990234375,-71.96900177001953 C122.48300170898438,-63.44599914550781 130.89599609375,-31.013999938964844 101.81999969482422,-21.7810001373291 C72.74400329589844,-12.54800033569336 26.02400016784668,-4.7270002365112305 4.2829999923706055,7.576000213623047 C-25.836999893188477,24.621999740600586 -73.84100341796875,80.49299621582031 -73.84100341796875,80.49299621582031"></path></g><g opacity="1" transform="matrix(0.9303187727928162,-0.3667519986629486,0.3667519986629486,0.9303187727928162,170.28433227539062,116.78168487548828)"><path fill="rgb(247,195,159)" fill-opacity="1" d=" M-107.85700225830078,58.055999755859375 C-107.85700225830078,58.055999755859375 -98.72200012207031,23.08300018310547 -80.96600341796875,4.617000102996826 C-63.21099853515625,-13.848999977111816 -2.130000114440918,-50.06999969482422 29.1200008392334,-64.2750015258789 C60.36899948120117,-78.47899627685547 79.54499816894531,-87.71199798583984 97.3010025024414,-74.9280014038086 C115.05699920654297,-62.14400100708008 106.1780014038086,-44.74300003051758 81.31999969482422,-26.277999877929688 C56.46200180053711,-7.811999797821045 11.36299991607666,15.980999946594238 -7.103000164031982,34.446998596191406 C-25.569000244140625,52.9119987487793 -40.12799835205078,87.71299743652344 -40.12799835205078,87.71299743652344"></path><path stroke-linecap="round" stroke-linejoin="round" fill-opacity="0" stroke="rgb(166,85,43)" stroke-opacity="1" stroke-width="27" d=" M-107.85700225830078,58.055999755859375 C-107.85700225830078,58.055999755859375 -98.72200012207031,23.08300018310547 -80.96600341796875,4.617000102996826 C-63.21099853515625,-13.848999977111816 -2.130000114440918,-50.06999969482422 29.1200008392334,-64.2750015258789 C60.36899948120117,-78.47899627685547 79.54499816894531,-87.71199798583984 97.3010025024414,-74.9280014038086 C115.05699920654297,-62.14400100708008 106.1780014038086,-44.74300003051758 81.31999969482422,-26.277999877929688 C56.46200180053711,-7.811999797821045 11.36299991607666,15.980999946594238 -7.103000164031982,34.446998596191406 C-25.569000244140625,52.9119987487793 -40.12799835205078,87.71299743652344 -40.12799835205078,87.71299743652344"></path></g><g opacity="1" transform="matrix(0.6545253396034241,-0.8234239816665649,0.8189228177070618,0.6509473919868469,75.12214660644531,149.17141723632812)"><path fill="rgb(247,195,159)" fill-opacity="1" d=" M-83.78700256347656,55.659000396728516 C-83.78700256347656,55.659000396728516 -73.05799865722656,28.054000854492188 -44.64899826049805,3.9059998989105225 C-16.239999771118164,-20.242000579833984 29.21500015258789,-63.564998626708984 48.39099884033203,-66.40599822998047 C67.56700134277344,-69.24700164794922 83.78700256347656,-49.17499923706055 71.4729995727539,-31.42799949645996 C59.39899826049805,-14.027000427246094 31.167999267578125,9.055000305175781 20.513999938964844,20.41900062561035 C9.861000061035156,31.781999588012695 -15.885000228881836,69.24700164794922 -15.885000228881836,69.24700164794922"></path><path stroke-linecap="round" stroke-linejoin="round" fill-opacity="0" stroke="rgb(166,85,43)" stroke-opacity="1" stroke-width="27" d=" M-83.78700256347656,55.659000396728516 C-83.78700256347656,55.659000396728516 -73.05799865722656,28.054000854492188 -44.64899826049805,3.9059998989105225 C-16.239999771118164,-20.242000579833984 29.21500015258789,-63.564998626708984 48.39099884033203,-66.40599822998047 C67.56700134277344,-69.24700164794922 83.78700256347656,-49.17499923706055 71.4729995727539,-31.42799949645996 C59.39899826049805,-14.027000427246094 31.167999267578125,9.055000305175781 20.513999938964844,20.41900062561035 C9.861000061035156,31.781999588012695 -15.885000228881836,69.24700164794922 -15.885000228881836,69.24700164794922"></path></g><g opacity="1" transform="matrix(1,0,0,1,159.4040069580078,366.57501220703125)"><path fill="rgb(247,194,158)" fill-opacity="1" d=" M-94.03399658203125,-146.23399353027344 C-94.03399658203125,-146.23399353027344 -122.63099670410156,-100.37699890136719 -129.0229949951172,-21.54199981689453 C-133.33399963378906,31.625999450683594 -128.7550048828125,68.08300018310547 -93.30699920654297,103.31800079345703 C-59.05099868774414,137.3679962158203 6.144000053405762,142.23500061035156 44.79499816894531,133.01800537109375 C100.00900268554688,119.8499984741211 133.3350067138672,87.97899627685547 133.3350067138672,87.97899627685547"></path></g><g opacity="1" transform="matrix(1,0,0,1,159.4040069580078,366.57501220703125)"><path stroke-linecap="round" stroke-linejoin="round" fill-opacity="0" stroke="rgb(166,84,43)" stroke-opacity="1" stroke-width="27" d=" M-94.03299713134766,-146.23399353027344 C-94.03299713134766,-146.23399353027344 -127.63099670410156,-105.37699890136719 -134.0229949951172,-26.54199981689453 C-138.33399963378906,26.625999450683594 -123.75499725341797,61.08300018310547 -88.30699920654297,96.31800079345703 C-54.05099868774414,130.3679962158203 11.807000160217285,133.6840057373047 50.79499816894531,126.01799774169922 C119.56600189208984,112.49600219726562 139.3350067138672,84.97899627685547 139.3350067138672,84.97899627685547"></path></g><g opacity="1" transform="matrix(1,0,0,1,245.572998046875,287.989013671875)"><path stroke-linecap="round" stroke-linejoin="round" fill-opacity="0" stroke="rgb(166,85,43)" stroke-opacity="1" stroke-width="27" d=" M-19.336000442504883,-56.64099884033203 C-19.336000442504883,-56.64099884033203 -45.25899887084961,-25.391000747680664 -33.185001373291016,9.40999984741211 C-23.239999771118164,38.07500076293945 -7.613999843597412,46.32899856567383 8.008000373840332,50.95800018310547 C27.18400001525879,56.63999938964844 45.25899887084961,50.777000427246094 45.25899887084961,50.777000427246094"></path></g><g opacity="1" transform="matrix(1,0,0,1,134.7480010986328,342.8420104980469)"><path stroke-linecap="round" stroke-linejoin="round" fill-opacity="0" stroke="rgb(223,152,114)" stroke-opacity="1" stroke-width="27" d=" M17.798999786376953,-61.75600051879883 C17.798999786376953,-61.75600051879883 24.19700050354004,13.770000457763672 13.654000282287598,40.50699996948242 C-9.756999969482422,98.23400115966797 -36.82899856567383,102.29000091552734 -36.82899856567383,102.29000091552734"></path></g><g opacity="1" transform="matrix(1,0,0,1,188.94000244140625,402.2449951171875)"><path fill="rgb(228,155,117)" fill-opacity="1" d=" M-136.5780029296875,-127.69300079345703 C-136.5780029296875,-127.69300079345703 -146.4429931640625,-32.11399841308594 -122.43399810791016,-0.9169999957084656 C-105.59600067138672,20.9950008392334 -76.91999816894531,11.994000434875488 -71.51399993896484,18.94300079345703 C-67.2770004272461,24.67300033569336 -69.66600036621094,50.369998931884766 -25.19700050354004,62.737998962402344 C8.918000221252441,72.22599792480469 59.180999755859375,55.720001220703125 87.39800262451172,39.494998931884766 C120.08999633789062,20.69700050354004 150.4720001220703,-8.633999824523926 150.4720001220703,-8.633999824523926 C150.4720001220703,-8.633999824523926 121.78900146484375,27.864999771118164 85.55500030517578,53.83700180053711 C58.44900131225586,73.26699829101562 -21.788999557495117,98.69300079345703 -81.4530029296875,70.90499877929688 C-123.86499786376953,51.1510009765625 -149.24200439453125,9.552000045776367 -149.7449951171875,-33.52299880981445 C-150.27999877929688,-79.31900024414062 -136.5780029296875,-127.69300079345703 -136.5780029296875,-127.69300079345703z"></path></g></g></g></g></svg>