<?xml version="1.0" encoding="iso-8859-1"?>
<!-- Uploaded to: SVG Repo, www.svgrepo.com, Generator: SVG Repo Mixer Tools -->
<svg fill="#000000" height="800px" width="800px" version="1.1" id="Layer_1" xmlns="http://www.w3.org/2000/svg" xmlns:xlink="http://www.w3.org/1999/xlink" 
	 viewBox="0 0 512 512" xml:space="preserve">
<g>
	<g>
		<path fill="#FF7F5C" d="M349.421,256.003l10.195-10.562c3.753-3.892,5.82-9.003,5.82-14.393c0-11.433-9.301-20.733-20.733-20.733
			c-8.75,0-17.915,1.954-27.274,5.765l-39.921,39.922l39.921,39.922c9.359,3.811,18.524,5.765,27.274,5.765
			c11.433,0,20.733-9.301,20.733-20.733c0-5.391-2.067-10.501-5.82-14.389L349.421,256.003z"/>
	</g>
</g>
<g>
	<g>
		<path fill="#FF7F5C" d="M295.918,317.43L256,277.508l-39.92,39.922c-3.811,9.358-5.765,18.524-5.765,27.274c0,11.433,9.301,20.733,20.733,20.733
			c5.391,0,10.501-2.067,14.389-5.82l10.562-10.195l10.562,10.195c3.888,3.753,8.998,5.82,14.389,5.82
			c11.433,0,20.733-9.301,20.733-20.733C301.684,335.954,299.73,326.789,295.918,317.43z"/>
	</g>
</g>
<g>
	<g>
		<path fill="#FF7F5C" d="M194.572,216.078c-9.359-3.811-18.524-5.765-27.274-5.765c-11.433,0-20.733,9.301-20.733,20.733
			c0,5.391,2.067,10.501,5.82,14.389l10.195,10.562l-10.195,10.562c-3.753,3.888-5.82,8.998-5.82,14.389
			c0,11.433,9.301,20.733,20.733,20.733c8.75,0,17.915-1.954,27.274-5.765L234.492,256L194.572,216.078z"/>
	</g>
</g>
<g>
	<g>
		<path fill="#FF7F5C" d="M280.952,146.563c-5.391,0-10.501,2.067-14.389,5.82l-10.562,10.195l-10.562-10.195c-3.888-3.753-8.998-5.82-14.389-5.82
			c-11.433,0-20.733,9.301-20.733,20.733c0,8.75,1.954,17.915,5.765,27.274L256,234.492l39.921-39.922
			c3.811-9.358,5.765-18.524,5.765-27.274C301.686,155.864,292.385,146.563,280.952,146.563z"/>
	</g>
</g>
<g>
	<g>
		<path fill="#FF7F5C" d="M256,71.469c-101.75,0-184.531,82.78-184.531,184.531S154.249,440.531,256,440.531S440.531,357.751,440.531,256
			S357.75,71.469,256,71.469z M344.703,332.103c-4.502,0-9.042-0.338-13.608-1.008c0.671,4.566,1.008,9.106,1.008,13.608
			c0,28.205-22.946,51.151-51.151,51.151c-8.855,0-17.401-2.255-24.952-6.489c-7.552,4.234-16.097,6.489-24.952,6.489
			c-28.205,0-51.151-22.946-51.151-51.151c0-4.502,0.338-9.042,1.008-13.608c-4.566,0.671-9.106,1.008-13.608,1.008
			c-28.205,0-51.151-22.946-51.151-51.151c0-8.855,2.255-17.401,6.489-24.952c-4.234-7.552-6.489-16.097-6.489-24.952
			c0-28.205,22.946-51.151,51.151-51.151c4.502,0,9.042,0.338,13.608,1.008c-0.671-4.566-1.008-9.106-1.008-13.608
			c0-28.205,22.946-51.151,51.151-51.151c8.855,0,17.401,2.255,24.952,6.489c7.552-4.234,16.097-6.489,24.952-6.489
			c28.205,0,51.151,22.946,51.151,51.151c0,4.502-0.338,9.042-1.008,13.608c4.566-0.671,9.106-1.008,13.608-1.008
			c28.205,0,51.151,22.946,51.151,51.151c0,8.855-2.255,17.401-6.489,24.952c4.234,7.552,6.489,16.097,6.489,24.952
			C395.853,309.157,372.907,332.103,344.703,332.103z"/>
	</g>
</g>
<g>
	<g>
		<path fill="#FF7F5C" d="M437.019,74.98C388.667,26.628,324.38,0,256,0S123.333,26.628,74.98,74.98C26.628,123.333,0,187.619,0,256
			c0,68.381,26.628,132.668,74.98,181.02C123.333,485.372,187.619,512,256,512c68.381,0,132.668-26.628,181.02-74.98
			S512,324.381,512,256S485.371,123.333,437.019,74.98z M256,470.948c-118.523,0-214.948-96.425-214.948-214.948
			S137.477,41.052,256,41.052S470.948,137.477,470.948,256S374.523,470.948,256,470.948z"/>
	</g>
</g>
</svg>