<svg xmlns="http://www.w3.org/2000/svg" viewBox="0 0 128 128" id="after"><circle cx="64" cy="64" r="58" fill="#f8dc25"></circle><path fill="#f2bc0f" d="M53,107A71.65,71.65,0,0,1,16.25,96.91,58,58,0,0,0,121.56,57,72,72,0,0,1,53,107Z" opacity=".7"></path><path fill="#393c54" d="M80.29,107H55.9a11,11,0,1,1-.19-22H80a11.19,11.19,0,0,1,11,8.33A11,11,0,0,1,80.29,107Z"></path><path fill="#fff" d="M81,85c-.3,0-.6-.14-.9-.14H55.71a11.05,11.05,0,0,0-1.71.25V86a6,6,0,0,0,6,6H75a6,6,0,0,0,6-6Z"></path><path fill="#f85565" d="M62.28,107h18.5a10.5,10.5,0,0,0,10.5-10.5,10.39,10.39,0,0,0-.15-1.5H80.28A19.5,19.5,0,0,0,62.28,107Z"></path><path fill="none" stroke="#f2bc0f" stroke-linecap="round" stroke-linejoin="round" stroke-width="4" d="M49.68 61.29A15.6 15.6 0 0125.87 78M78.35 61.17A15.6 15.6 0 00102.13 78" opacity=".4"></path><circle cx="39" cy="63" r="13" fill="#fff"></circle><circle cx="39" cy="63" r="7" fill="#515570"></circle><circle cx="89" cy="63" r="13" fill="#fff"></circle><circle cx="89" cy="63" r="7" fill="#515570"></circle><path fill="none" stroke="#f2bc0f" stroke-linecap="round" stroke-linejoin="round" stroke-width="4" d="M38 36.25A24.35 24.35 0 0023 47M90 42c5-1 12 2 15 6" opacity=".5"></path><path fill="#f8dc25" d="M101.64 60a13 13 0 00-25.28 0zM76.36 66a13 13 0 0025.28 0z"></path><path fill="#f2bc0f" d="M101.64 60a13 13 0 00-25.28 0zM76.36 66a13 13 0 0025.28 0z" opacity=".7"></path></svg>