<svg xmlns="http://www.w3.org/2000/svg" viewBox="0 0 128 128" id="bad"><circle cx="64" cy="64" r="58" fill="#f8dc25"></circle><line x1="85" x2="108" y1="52" y2="52" fill="none" stroke="#00adfe" stroke-linecap="round" stroke-linejoin="round" stroke-width="4"></line><line x1="20" x2="43" y1="52" y2="52" fill="none" stroke="#00adfe" stroke-linecap="round" stroke-linejoin="round" stroke-width="4"></line><path fill="#f2bc0f" d="M53,107A71.65,71.65,0,0,1,16.25,96.91,58,58,0,0,0,121.56,57,72,72,0,0,1,53,107Z" opacity=".7"></path><path fill="#00adfe" d="M86,117.67a58.12,58.12,0,0,0,22-15.9V49H86Z"></path><path fill="#356cb6" d="M108,101.77V81.45A72.28,72.28,0,0,1,86,99v18.67A57.74,57.74,0,0,0,95.05,113l.21-.14Q96.63,112,98,111l0,0A58.38,58.38,0,0,0,108,101.77Z" opacity=".4"></path><path fill="none" stroke="#393c54" stroke-linecap="round" stroke-miterlimit="10" stroke-width="4" d="M79,41h0a8,8,0,0,0,8,8h21"></path><path fill="#00adfe" d="M20,101.77a58.12,58.12,0,0,0,22,15.9V49H20Z"></path><path fill="#356cb6" d="M42,106.15A71.51,71.51,0,0,1,20,99v2.78l0,0q1.1,1.28,2.26,2.48l0,0q1.17,1.21,2.41,2.36l0,0q1.24,1.15,2.55,2.22l0,0Q28.64,110,30,111h0a57.83,57.83,0,0,0,12,6.68Z" opacity=".4"></path><path fill="none" stroke="#393c54" stroke-linecap="round" stroke-miterlimit="10" stroke-width="4" d="M49,41h0a8,8,0,0,1-8,8H20"></path><path fill="#393c54" d="M48.89,72A1.9,1.9,0,0,1,47,69.84a17.12,17.12,0,0,1,34,0A1.9,1.9,0,0,1,79.11,72Z"></path><path fill="#f85565" d="M75.5,72a12.13,12.13,0,0,0-23,0Z"></path><line x1="58" x2="70" y1="78" y2="78" fill="none" stroke="#f2bc0f" stroke-linecap="round" stroke-linejoin="round" stroke-width="4"></line></svg>