<svg xmlns="http://www.w3.org/2000/svg" viewBox="0 0 128 128" id="boss"><circle cx="64" cy="64" r="58" fill="#f8dc25"></circle><path fill="#f2bc0f" d="M53,107A71.65,71.65,0,0,1,16.25,96.91,58,58,0,0,0,121.56,57,72,72,0,0,1,53,107Z" opacity=".7"></path><circle cx="94.6" cy="30.6" r="13" fill="#fff" transform="rotate(-85.88 94.6 30.603)"></circle><circle cx="99.59" cy="30.96" r="7" fill="#515570" transform="rotate(-85.88 99.588 30.963)"></circle><path fill="#f8dc25" d="M81.63,29.67a13,13,0,1,1,25.93,1.87"></path><path fill="#f2bc0f" d="M81.63,29.67a13,13,0,1,1,25.93,1.87" opacity=".7"></path><circle cx="49.72" cy="27.37" r="13" fill="#fff" transform="rotate(-85.88 49.713 27.372)"></circle><circle cx="54.7" cy="27.73" r="7" fill="#515570" transform="rotate(-85.88 54.701 27.733)"></circle><path fill="#f8dc25" d="M36.75,26.44a13,13,0,0,1,25.93,1.87"></path><path fill="#f2bc0f" d="M36.75,26.44a13,13,0,0,1,25.93,1.87" opacity=".7"></path><path fill="none" stroke="#393c54" stroke-linecap="round" stroke-miterlimit="10" stroke-width="6" d="M46.28,60.67s32.88-18.78,55.63,6.94"></path><line x1="41.82" x2="46.8" y1="57.74" y2="64.44" fill="none" stroke="#393c54" stroke-linecap="round" stroke-miterlimit="10" stroke-width="6"></line><path fill="none" stroke="#f2bc0f" stroke-linecap="round" stroke-miterlimit="10" stroke-width="4" d="M68.16,63.43c6.67-2.32,15.89.06,18.22,2.6"></path><polyline fill="none" stroke="#393c54" stroke-linecap="round" stroke-miterlimit="10" stroke-width="4" points="46.7 6.6 64.93 17.94 70.21 14.31"></polyline><line x1="82.24" x2="99.35" y1="21.19" y2="13.4" fill="none" stroke="#393c54" stroke-linecap="round" stroke-miterlimit="10" stroke-width="4"></line></svg>