<svg xmlns="http://www.w3.org/2000/svg" viewBox="0 0 128 128" id="cry"><circle cx="64" cy="64" r="58" fill="#f8dc25"></circle><path fill="#f2bc0f" d="M53,107A71.65,71.65,0,0,1,16.25,96.91,58,58,0,0,0,121.56,57,72,72,0,0,1,53,107Z" opacity=".7"></path><circle cx="37" cy="45" r="19" fill="#fff"></circle><path fill="none" stroke="#f2bc0f" stroke-linecap="round" stroke-linejoin="round" stroke-width="4" d="M60.25 45a23.21 23.21 0 01-1.37 7.87M52.78 27.93A23.27 23.27 0 0159 37.42M55.11 59.59A23.21 23.21 0 0137 68.25" opacity=".4"></path><path fill="none" stroke="#00adfe" stroke-linecap="round" stroke-linejoin="round" stroke-width="6" d="M42.52,63.19A19,19,0,0,1,37,64c-4.87,0-13.64-2-17-5"></path><circle cx="34.5" cy="44.5" r="7.5" fill="#393c54"></circle><path fill="none" stroke="#fff" stroke-linecap="round" stroke-linejoin="round" stroke-width="2" d="M31.52 40.39a5 5 0 01.48-.32M29.8 46.26a5.25 5.25 0 01-.2-2.79"></path><circle cx="91" cy="45" r="19" fill="#fff"></circle><path fill="none" stroke="#f2bc0f" stroke-linecap="round" stroke-linejoin="round" stroke-width="4" d="M101.11 66.22A23.52 23.52 0 0169.74 55M67.5 45a23.44 23.44 0 011.62-8.6" opacity=".4"></path><circle cx="88.5" cy="44.5" r="7.5" fill="#393c54"></circle><path fill="none" stroke="#393c54" stroke-linecap="round" stroke-linejoin="round" stroke-width="4" d="M15.5 29.08l22.27-2.32A25.61 25.61 0 0055 17.42h0M112.47 30.64l-22-4.1A25.61 25.61 0 0174 15.86h0"></path><path fill="none" stroke="#fff" stroke-linecap="round" stroke-linejoin="round" stroke-width="2" d="M85.52 40.39a5 5 0 01.48-.32M83.8 46.26a5.25 5.25 0 01-.2-2.79"></path><path fill="#00adfe" d="M21,102.92a58.35,58.35,0,0,0,6,5.74V62l-6-3Z"></path><path fill="#356cb6" d="M27,108.66v-6.51q-3.07-1.19-6-2.66v3.43A58.35,58.35,0,0,0,27,108.66Z" opacity=".4"></path><path fill="#00adfe" d="M39,116.35a57.65,57.65,0,0,0,6,2.45V62H39Z"></path><path fill="#356cb6" d="M45,106.55q-3-.34-6-.92v10.72a57.65,57.65,0,0,0,6,2.45Z" opacity=".4"></path><line x1="33" x2="33" y1="71.75" y2="63.13" fill="none" stroke="#00adfe" stroke-linecap="round" stroke-linejoin="round" stroke-width="4"></line><path fill="none" stroke="#00adfe" stroke-linecap="round" stroke-linejoin="round" stroke-width="6" d="M83.48,63.19A19,19,0,0,0,89,64c4.87,0,13-1,18-9"></path><path fill="#00adfe" d="M97,111.69a58.29,58.29,0,0,0,8-6.66V59l-8,3Z"></path><path fill="#356cb6" d="M97,92v19.72a58.29,58.29,0,0,0,8-6.66V84.77A72.4,72.4,0,0,1,97,92Z" opacity=".4"></path><path fill="#00adfe" d="M81,119.46a57.55,57.55,0,0,0,6-2.21V62H81Z"></path><path fill="#356cb6" d="M87,98.47c-1.95,1-3.95,2-6,2.88v18.12a57.55,57.55,0,0,0,6-2.21Z" opacity=".4"></path><line x1="37" x2="37" y1="67.75" y2="63.13" fill="none" stroke="#00adfe" stroke-linecap="round" stroke-linejoin="round" stroke-width="4"></line><line x1="29" x2="29" y1="67.75" y2="63.13" fill="none" stroke="#00adfe" stroke-linecap="round" stroke-linejoin="round" stroke-width="4"></line><circle cx="82" cy="61" r="4.5" fill="#00adfe"></circle><circle cx="96.25" cy="65.75" r="3.75" fill="#00adfe" transform="rotate(-5.44 96.24 65.752)"></circle><path fill="none" stroke="#f2bc0f" stroke-linecap="round" stroke-linejoin="round" stroke-width="4" d="M52.5,77.25s2.25-4,9.25-4S74,79.5,74,79.5" opacity=".4"></path><circle cx="100.5" cy="60.5" r="4.5" fill="#00adfe"></circle><path fill="#393c54" d="M77,67s-5.82,6-13,6-13-6-13-6a25.55,25.55,0,0,1,13-4A25.55,25.55,0,0,1,77,67Z"></path><path fill="#fff" d="M71,64.18a22.56,22.56,0,0,0-7-1.28,22.56,22.56,0,0,0-7,1.28h0A2.82,2.82,0,0,0,59.82,67h8.36A2.82,2.82,0,0,0,71,64.18Z"></path><path fill="#515570" d="M57,64.18a2.79,2.79,0,0,0,.67,1.8,20.94,20.94,0,0,1,12.67,0,2.79,2.79,0,0,0,.67-1.8,22.56,22.56,0,0,0-7-1.28A22.56,22.56,0,0,0,57,64.18Z" opacity=".2"></path></svg>