<svg xmlns="http://www.w3.org/2000/svg" viewBox="0 0 128 128" id="excited"><circle cx="64" cy="64" r="58" fill="#f8dc25"></circle><path fill="#f2bc0f" d="M53,107A71.65,71.65,0,0,1,16.25,96.91,58,58,0,0,0,121.56,57,72,72,0,0,1,53,107Z" opacity=".7"></path><path fill="#393c54" d="M90.3,77a3.3,3.3,0,0,1,3.28,3.7,29.76,29.76,0,0,1-59.15,0A3.3,3.3,0,0,1,37.7,77Z"></path><path fill="#fff" d="M45 77H83a0 0 0 010 0v5a4 4 0 01-4 4H49a4 4 0 01-4-4V77A0 0 0 0145 77zM45 100.21a29.52 29.52 0 0038 0V100a4 4 0 00-4-4H49a4 4 0 00-4 4z"></path><circle cx="39" cy="59" r="13" fill="#fff"></circle><circle cx="39" cy="59" r="7" fill="#515570"></circle><path fill="#f8dc25" d="M26,77c0-7.18,5.82-10,13-10s13,2.82,13,10"></path><circle cx="89" cy="59" r="13" fill="#fff"></circle><circle cx="89" cy="59" r="7" fill="#515570"></circle><path fill="#f8dc25" d="M76,77c0-7.18,5.82-10,13-10s13,2.82,13,10"></path><rect width="42" height="4" x="43" y="77" fill="#515570" opacity=".1"></rect></svg>