<svg xmlns="http://www.w3.org/2000/svg" viewBox="0 0 128 128" id="lauging"><circle cx="64" cy="64" r="58" fill="#f8dc25"></circle><path fill="#f2bc0f" d="M53,107A71.65,71.65,0,0,1,16.25,96.91,58,58,0,0,0,121.56,57,72,72,0,0,1,53,107Z" opacity=".7"></path><path fill="#393c54" d="M107.22 57.3a17.27 17.27 0 00-30.75 0C81.15 55.74 102.55 55.74 107.22 57.3zM51.53 57.3a17.27 17.27 0 00-30.75 0C25.45 55.74 46.85 55.74 51.53 57.3zM90.3 77a3.3 3.3 0 013.28 3.7 29.76 29.76 0 01-59.15 0A3.3 3.3 0 0137.7 77z"></path><path fill="#f85565" d="M64,89.1a33.08,33.08,0,0,0-21.91,8.32,29.56,29.56,0,0,0,43.81,0A33.08,33.08,0,0,0,64,89.1Z"></path><path fill="#00adfe" d="M112.52 70a5.52 5.52 0 11-11 0c0-3 2.47-11 5.52-11S112.52 67 112.52 70zM26.52 70a5.52 5.52 0 01-11 0c0-3 2.47-11 5.52-11S26.52 67 26.52 70z"></path></svg>