<svg xmlns="http://www.w3.org/2000/svg" viewBox="0 0 128 128" id="shock"><path fill="#f8dc25" d="M122,64a58,58,0,1,0-80.7,53.39A10,10,0,0,0,51,125H77a10,10,0,0,0,9.7-7.61A58,58,0,0,0,122,64Z"></path><circle cx="39" cy="63" r="9" fill="#fff"></circle><circle cx="39" cy="63" r="4.85" fill="#515570"></circle><circle cx="89" cy="61" r="13" fill="#fff"></circle><path fill="none" stroke="#f2bc0f" stroke-linecap="round" stroke-linejoin="round" stroke-width="4" d="M87.51 78a17 17 0 01-12-5M40.49 78a17 17 0 0012-5" opacity=".5"></path><circle cx="89" cy="61" r="7" fill="#515570"></circle><path fill="#f2bc0f" d="M121.89,60.57c0-.41-.06-.82-.09-1.23-.07-.78-.14-1.56-.23-2.34A72,72,0,0,1,53,107,71.65,71.65,0,0,1,16.25,96.91l.09.13a58.21,58.21,0,0,0,25,20.34A10,10,0,0,0,51,125H77a10,10,0,0,0,9.7-7.61,58,58,0,0,0,35.25-51v-.27c0-.69,0-1.39,0-2.09s0-1.64-.06-2.45C121.92,61.22,121.91,60.9,121.89,60.57Z" opacity=".7"></path><path fill="#393c54" d="M64,78h0A17,17,0,0,1,81,95v20a4,4,0,0,1-4,4H51a4,4,0,0,1-4-4V95A17,17,0,0,1,64,78Z"></path><path fill="#f85565" d="M52,116v-5.12A12.21,12.21,0,0,1,62.93,98.59,12,12,0,0,1,76,110.52V116Z" opacity=".2"></path><path fill="#f85565" d="M64,108.21a15.82,15.82,0,0,0-14.83,10.33A4,4,0,0,0,51,119H77a4,4,0,0,0,1.83-.46A15.82,15.82,0,0,0,64,108.21Z"></path><line x1="81" x2="101" y1="36" y2="43" fill="none" stroke="#393c54" stroke-linecap="round" stroke-miterlimit="10" stroke-width="4" opacity=".3"></line><line x1="27" x2="45" y1="49" y2="45" fill="none" stroke="#393c54" stroke-linecap="round" stroke-miterlimit="10" stroke-width="4" opacity=".3"></line></svg>