<svg xmlns="http://www.w3.org/2000/svg" viewBox="0 0 128 128" id="face"><circle cx="64" cy="64" r="58" fill="#f8dc25"></circle><path fill="#f2bc0f" d="M53,107A71.65,71.65,0,0,1,16.25,96.91,58,58,0,0,0,121.56,57,72,72,0,0,1,53,107Z" opacity=".7"></path><path fill="#f8dc25" d="M113.1,92a12.52,12.52,0,0,1,0-12l.15-.29A20.47,20.47,0,0,0,95.5,49L95,49v0l-.08,0C82,49,56,64,56,64v41c9-9,17,18,38.84,18l.16,0v0l.5,0a20.47,20.47,0,0,0,18.08-30.12Z"></path><path fill="none" stroke="#f2bc0f" stroke-linecap="round" stroke-linejoin="round" stroke-width="4" d="M73.42,103.77a22,22,0,0,1,3-11l.16-.31a13.48,13.48,0,0,0,0-12.89l-.53-1a22,22,0,0,1,.81-22.13" opacity=".5"></path><path fill="#393c54" d="M109.59,93.9a16.51,16.51,0,0,1,0-15.8v0a16.5,16.5,0,1,0-28.17,0v0a16.51,16.51,0,0,1,0,15.8v0a16.5,16.5,0,1,0,28.17,0Z"></path><circle cx="47" cy="41" r="13" fill="#fff"></circle><circle cx="44" cy="44" r="5" fill="#515570"></circle><circle cx="88" cy="35" r="13" fill="#fff"></circle><circle cx="92.5" cy="30.5" r="5" fill="#515570"></circle><path fill="#ff8475" d="M107.32 58a16.47 16.47 0 00-23.64 0zM82.77 113a16.5 16.5 0 0025.46 0z"></path><path fill="#fff" d="M80.07 63.7A4 4 0 0083 65h20a4 4 0 004-4V58H83.68A16.49 16.49 0 0080.07 63.7zM103 106H83a4 4 0 00-3.19 1.6 16.47 16.47 0 003 5.4H107v-3A4 4 0 00103 106z"></path><path fill="#515570" d="M83,102.5a16.4,16.4,0,0,1,2.41-8.56v0a16.51,16.51,0,0,0,0-15.8v0A16.46,16.46,0,0,1,97.5,53.13,16.41,16.41,0,0,0,79,69.5a16.4,16.4,0,0,0,2.41,8.56v0a16.51,16.51,0,0,1,0,15.8v0A16.47,16.47,0,0,0,95.5,119a16.59,16.59,0,0,0,2-.13A16.49,16.49,0,0,1,83,102.5Z" opacity=".3"></path><path fill="none" stroke="#f2bc0f" stroke-linecap="round" stroke-linejoin="round" stroke-width="4" d="M53 74s10-3 14-10M52 89s10 3 14 10" opacity=".4"></path><path fill="none" stroke="#393c54" stroke-linecap="round" stroke-miterlimit="10" stroke-width="4" d="M27 32s4-10 18-10M103.16 20.67S96 12.61 82.84 17.33"></path></svg>