<svg xmlns="http://www.w3.org/2000/svg" viewBox="0 0 128 128" id="alone"><path fill="#f8dc25" d="M122.68,71a9.08,9.08,0,0,0-1-1,58.65,58.65,0,0,0,.31-6,58,58,0,1,0-58,58H76a49.77,49.77,0,0,0,48.93-43.71A9.29,9.29,0,0,0,122.68,71Z"></path><path fill="#f2bc0f" d="M121.69,70a57.37,57.37,0,0,0-.12-13h0A72,72,0,0,1,53,107,71.65,71.65,0,0,1,16.25,96.91c.4.59.81,1.17,1.24,1.74l.05.07A57.91,57.91,0,0,0,64,122H76a49.77,49.77,0,0,0,48.93-43.71A9.29,9.29,0,0,0,122.68,71,9.08,9.08,0,0,0,121.69,70Z" opacity=".7"></path><path fill="#393c54" d="M115.85,72a5,5,0,0,1,5.07,5.7,45.41,45.41,0,0,1-90.26-.09,5,5,0,0,1,5-5.61Z"></path><path fill="#f85565" d="M89.71,107.45l0-.18a10.11,10.11,0,0,0-6.69-11.83,38.86,38.86,0,0,0-11.81-1.62,38.68,38.68,0,0,0-11.89,1.65,10.1,10.1,0,0,0-6.62,12l0,.07a5.76,5.76,0,0,0,5.08,4,106.64,106.64,0,0,0,26.78,0A5.73,5.73,0,0,0,89.71,107.45Z"></path><path fill="#ff8475" d="M30.66 77.61c.14 1.15.33 2.27.55 3.39H92a9 9 0 009-9H35.64A5 5 0 0030.66 77.61zM53.35 112a45 45 0 0039.45 2.65 1.38 1.38 0 00-.53-2.65z"></path><path fill="#fff" d="M88,104H51a2,2,0,0,0-2,2v3.15A45.29,45.29,0,0,0,57.25,114H90a2,2,0,0,0,2-2v-4A4,4,0,0,0,88,104Z"></path><path fill="none" stroke="#f2bc0f" stroke-linecap="round" stroke-linejoin="round" stroke-width="4" d="M77.64 47.43a10.5 10.5 0 0016 11.24M50.34 47.35a10.5 10.5 0 01-16 11.32" opacity=".4"></path><path fill="#fff" d="M91,76H32a2,2,0,0,0-1.36.54,5,5,0,0,0,0,1.07A46.17,46.17,0,0,0,32.47,86H89a4,4,0,0,0,4-4V78A2,2,0,0,0,91,76Z"></path><g opacity=".3"><path fill="#515570" d="M35.66 77.61a5 5 0 015-5.61h-5a5 5 0 00-5 5.61A45.66 45.66 0 0075.79 118c.84 0 1.67 0 2.5-.08A45.7 45.7 0 0135.66 77.61zM47.62 72h0z"></path></g><path fill="#fff" d="M68.35,93.9A8.63,8.63,0,0,1,73,100.33,2,2,0,0,0,75,102l.33,0A2,2,0,0,0,77,99.67a12.63,12.63,0,0,0-2.49-5.76q-1.59-.1-3.24-.1C70.26,93.81,69.29,93.84,68.35,93.9Z" opacity=".2"></path><circle cx="43" cy="49" r="7" fill="#fff"></circle><circle cx="43" cy="49" r="3.77" fill="#515570"></circle><circle cx="85" cy="49" r="7" fill="#fff"></circle><circle cx="85" cy="49" r="3.77" fill="#515570"></circle><path fill="none" stroke="#f2bc0f" stroke-linecap="round" stroke-linejoin="round" stroke-width="4" d="M26 77s-2-9 8-9c21 0 25-10 25-10M71 58s3 10 24 10h21.67M66 61s0 5 2 7M42.95 29a12.2 12.2 0 018.63 3.57l.09.09A12.13 12.13 0 0057.87 36 36.72 36.72 0 0072 35.95a12.29 12.29 0 006.38-3.37h0A12.2 12.2 0 0187.05 29M57.67 26.33a16 16 0 0016 .33" opacity=".4"></path></svg>