<svg xmlns="http://www.w3.org/2000/svg" viewBox="0 0 128 128" id="angry"><circle cx="64" cy="64" r="58" fill="#f85565"></circle><path fill="#393c54" d="M53,107A71.65,71.65,0,0,1,16.25,96.91,58,58,0,0,0,121.56,57,72,72,0,0,1,53,107Z" opacity=".2"></path><path fill="#393c54" d="M90.3,76.14c1.91.5,3.51-1.74,3.28-3.7C91.77,57.54,79.22,49,64,49S36.23,57.54,34.42,72.44c-.24,2,1.37,4.23,3.28,3.7C47.92,73.26,79.41,73.31,90.3,76.14Z"></path><path fill="#fff" d="M83 74.92V68.14a4 4 0 00-4-4H49a4 4 0 00-4 4v6.74A201.51 201.51 0 0183 74.92zM83 57.14v-2.6A33 33 0 0064 49a33 33 0 00-19 5.54v2.6a4 4 0 004 4H79A4 4 0 0083 57.14z"></path><path fill="#515570" d="M45 71.88v3a201.51 201.51 0 0138 0v-3A201.51 201.51 0 0045 71.88zM64 53a33.09 33.09 0 0118.78 5.38A4 4 0 0083 57.14v-2.6A33 33 0 0064 49a33 33 0 00-19 5.54v2.6a4 4 0 00.22 1.25A33.09 33.09 0 0164 53z" opacity=".1"></path><path fill="none" stroke="#393c54" stroke-linecap="round" stroke-linejoin="round" stroke-width="4" d="M32 36s9-2 14 4c-5-1-12 2-15 6M96 36s-9-2-14 4c5-1 12 2 15 6"></path><line x1="57" x2="71" y1="80" y2="80" fill="none" stroke="#393c54" stroke-linecap="round" stroke-linejoin="round" stroke-width="4" opacity=".2"></line></svg>