<svg xmlns="http://www.w3.org/2000/svg" viewBox="0 0 128 128" id="disappointed"><circle cx="64" cy="64" r="58" fill="#00adfe"></circle><path fill="#356cb6" d="M53,107A71.65,71.65,0,0,1,16.25,96.91,58,58,0,0,0,121.56,57,72,72,0,0,1,53,107Z" opacity=".4"></path><path fill="#393c54" d="M85.17,107H44.71A13.26,13.26,0,0,1,31.32,94.6a13,13,0,0,1,13-13.6H84.77A13.26,13.26,0,0,1,98.15,93.4,13,13,0,0,1,85.17,107Z"></path><path fill="#fff" d="M81 92H51.24A7.24 7.24 0 0144 84.76V81H87v5A6 6 0 0181 92zM87 107H44v-5a6 6 0 016-6H81a6 6 0 016 6z"></path><path fill="none" stroke="#393c54" stroke-linecap="round" stroke-miterlimit="10" stroke-width="4" d="M24.94 69.47a9.94 9.94 0 1119.88 0M83.18 69.47a9.94 9.94 0 1119.88 0"></path><line x1="83" x2="99" y1="48" y2="48" fill="none" stroke="#393c54" stroke-linecap="round" stroke-miterlimit="10" stroke-width="4" opacity=".3"></line><line x1="29" x2="45" y1="48" y2="48" fill="none" stroke="#393c54" stroke-linecap="round" stroke-miterlimit="10" stroke-width="4" opacity=".3"></line></svg>