<svg xmlns="http://www.w3.org/2000/svg" viewBox="0 0 128 128" id="face"><circle cx="64" cy="64" r="58" fill="#f8dc25"></circle><path fill="#f2bc0f" d="M53,107A71.65,71.65,0,0,1,16.25,96.91,58,58,0,0,0,121.56,57,72,72,0,0,1,53,107Z" opacity=".7"></path><path fill="none" stroke="#393c54" stroke-linecap="round" stroke-miterlimit="10" stroke-width="4" d="M26.79 71.9c1.45 3.14 5 4.57 9.25 4.57s7.65-1.38 9.16-4.38M82.79 71.9c1.45 3.14 5 4.57 9.25 4.57s7.65-1.38 9.16-4.38"></path><line x1="83" x2="99" y1="59" y2="59" fill="none" stroke="#f2bc0f" stroke-linecap="round" stroke-linejoin="round" stroke-width="4" opacity=".5"></line><line x1="29" x2="45" y1="59" y2="59" fill="none" stroke="#f2bc0f" stroke-linecap="round" stroke-linejoin="round" stroke-width="4" opacity=".5"></line><circle cx="81" cy="100" r="7" fill="#393c54"></circle><polyline fill="none" stroke="#00adfe" stroke-linecap="round" stroke-linejoin="round" stroke-width="6" points="80.32 14 95.18 14 80.32 35 95.18 35"></polyline><polyline fill="none" stroke="#00adfe" stroke-linecap="round" stroke-linejoin="round" stroke-width="4" points="104 31 111.57 31 103.79 42 112 42"></polyline></svg>