<svg xmlns="http://www.w3.org/2000/svg" viewBox="0 0 128 128" id="face"><circle cx="64" cy="64" r="58" fill="#f8dc25"></circle><path fill="#f2bc0f" d="M53,107A71.65,71.65,0,0,1,16.25,96.91,58,58,0,0,0,121.56,57,72,72,0,0,1,53,107Z" opacity=".7"></path><path fill="#393c54" d="M90.3,77a3.3,3.3,0,0,1,3.28,3.7,29.76,29.76,0,0,1-59.15,0A3.3,3.3,0,0,1,37.7,77Z"></path><path fill="#f85565" d="M50,81H78a0,0,0,0,1,0,0v30a14,14,0,0,1-14,14h0a14,14,0,0,1-14-14V81A0,0,0,0,1,50,81Z"></path><path fill="#fff" d="M45,77H83a0,0,0,0,1,0,0v5a4,4,0,0,1-4,4H49a4,4,0,0,1-4-4V77A0,0,0,0,1,45,77Z"></path><circle cx="39" cy="58" r="13" fill="#fff"></circle><circle cx="39" cy="58" r="7" fill="#515570"></circle><circle cx="89" cy="58" r="13" fill="#fff"></circle><circle cx="89" cy="58" r="7" fill="#515570"></circle><line x1="64" x2="64" y1="84" y2="116" fill="none" stroke="#fff" stroke-linecap="round" stroke-linejoin="round" stroke-width="4" opacity=".1"></line><rect width="42" height="4" x="43" y="77" fill="#515570" opacity=".1"></rect><rect width="42" height="4" x="43" y="86" fill="#515570" opacity=".2"></rect><path fill="none" stroke="#f2bc0f" stroke-linecap="round" stroke-linejoin="round" stroke-width="4" d="M38 38c-5-1-12 2-15 6M90 37c5-1 12 2 15 6" opacity=".5"></path></svg>