<svg xmlns="http://www.w3.org/2000/svg" viewBox="0 0 128 128" id="face"><circle cx="64" cy="64" r="58" fill="#f8dc25"></circle><path fill="#f2bc0f" d="M53,107A71.65,71.65,0,0,1,16.25,96.91,58,58,0,0,0,121.56,57,72,72,0,0,1,53,107Z" opacity=".7"></path><path fill="none" stroke="#f2bc0f" stroke-linecap="round" stroke-linejoin="round" stroke-width="4" d="M37.53 47.4A15.6 15.6 0 1128.87 76M90.47 47.4A15.6 15.6 0 1099.13 76" opacity=".5"></path><circle cx="39" cy="59" r="13" fill="#fff"></circle><circle cx="89" cy="59" r="13" fill="#fff"></circle><path fill="#f85565" d="M6.31,58H121.69A57.67,57.67,0,0,0,111,30H17A57.67,57.67,0,0,0,6.31,58Z"></path><path fill="#00adfe" d="M121,34.28a10.72,10.72,0,0,1-21.43,0c0-5.92,4.8-18.28,10.72-18.28S121,28.36,121,34.28Z" opacity=".6"></path><ellipse cx="74.84" cy="99.14" fill="#393c54" rx="9.16" ry="11.16"></ellipse><path fill="none" stroke="#f2bc0f" stroke-linecap="round" stroke-linejoin="round" stroke-width="4" d="M60.48,98.14A17.28,17.28,0,0,1,63.71,88" opacity=".5"></path></svg>