<svg xmlns="http://www.w3.org/2000/svg" xmlns:xlink="http://www.w3.org/1999/xlink" viewBox="0 0 512 512" width="512" height="512" style="width: 100%; height: 100%; transform: translate3d(0,0,0); content-visibility: visible;" preserveAspectRatio="xMidYMid meet"><defs><clipPath id="__lottie_element_2"><rect width="512" height="512" x="0" y="0"></rect></clipPath><clipPath id="__lottie_element_4"><path d="M0,0 L512,0 L512,512 L0,512z"></path></clipPath><clipPath id="__lottie_element_8"><path d="M0,0 L512,0 L512,512 L0,512z"></path></clipPath><radialGradient id="__lottie_element_29" spreadMethod="pad" gradientUnits="userSpaceOnUse"><stop></stop><stop></stop><stop></stop></radialGradient><linearGradient id="__lottie_element_30" spreadMethod="pad" gradientUnits="userSpaceOnUse"><stop></stop><stop></stop><stop></stop></linearGradient><mask id="__lottie_element_32"><path fill="url(#__lottie_element_31)"></path></mask><linearGradient id="__lottie_element_31" spreadMethod="pad" gradientUnits="userSpaceOnUse"><stop stop-color="rgb(255,255,255)"></stop><stop stop-color="rgb(255,255,255)"></stop><stop stop-color="rgb(255,255,255)"></stop></linearGradient><clipPath id="__lottie_element_40"><path d="M0,0 L512,0 L512,512 L0,512z"></path></clipPath><radialGradient id="__lottie_element_61" spreadMethod="pad" gradientUnits="userSpaceOnUse"><stop></stop><stop></stop><stop></stop></radialGradient><linearGradient id="__lottie_element_62" spreadMethod="pad" gradientUnits="userSpaceOnUse"><stop></stop><stop></stop><stop></stop></linearGradient><mask id="__lottie_element_64"><path fill="url(#__lottie_element_63)"></path></mask><linearGradient id="__lottie_element_63" spreadMethod="pad" gradientUnits="userSpaceOnUse"><stop stop-color="rgb(255,255,255)"></stop><stop stop-color="rgb(255,255,255)"></stop><stop stop-color="rgb(255,255,255)"></stop></linearGradient><clipPath id="__lottie_element_72"><path d="M0,0 L512,0 L512,512 L0,512z"></path></clipPath><radialGradient id="__lottie_element_93" spreadMethod="pad" gradientUnits="userSpaceOnUse" cx="-69.5009994506836" cy="-144.6230010986328" r="317.34206804769974" fx="-69.5009994506836" fy="-144.6230010986328"><stop offset="0%" stop-color="rgb(254,228,206)"></stop><stop offset="50%" stop-color="rgb(254,203,170)"></stop><stop offset="100%" stop-color="rgb(253,178,134)"></stop></radialGradient><linearGradient id="__lottie_element_94" spreadMethod="pad" gradientUnits="userSpaceOnUse" x1="16.320999145507812" y1="104.53299713134766" x2="99.2770004272461" y2="-117.80400085449219"><stop offset="0%" stop-color="rgb(212,109,81)"></stop><stop offset="50%" stop-color="rgb(188,104,78)"></stop><stop offset="100%" stop-color="rgb(164,99,75)"></stop></linearGradient><mask id="__lottie_element_96"><path fill="url(#__lottie_element_95)" d=" M138.38999938964844,-153.4149932861328 C138.38999938964844,-153.4149932861328 180.88999938964844,36.74700164794922 74.63999938964844,98.86299896240234 C-31.611000061035156,160.97799682617188 -150.6750030517578,103.25299835205078 -167.9709930419922,92.06700134277344 C-185.26600646972656,80.88200378417969 -121.25299835205078,183.34100341796875 40.3120002746582,144.6320037841797 C197.23699951171875,107.03600311279297 169.447998046875,-77.677001953125 167.81300354003906,-98.927001953125 C166.1790008544922,-120.1780014038086 138.38999938964844,-153.4149932861328 138.38999938964844,-153.4149932861328z"></path></mask><linearGradient id="__lottie_element_95" spreadMethod="pad" gradientUnits="userSpaceOnUse" x1="16.320999145507812" y1="104.53299713134766" x2="99.2770004272461" y2="-117.80400085449219"><stop stop-color="rgb(255,255,255)" offset="0%" stop-opacity="0.8399999737739563"></stop><stop stop-color="rgb(255,255,255)" offset="57%" stop-opacity="0.41999998688697815"></stop><stop stop-color="rgb(255,255,255)" offset="100%" stop-opacity="0"></stop></linearGradient></defs><g clip-path="url(#__lottie_element_2)"><g clip-path="url(#__lottie_element_4)" style="display: block;" transform="matrix(1,0,0,1,0,0)" opacity="1"><g clip-path="url(#__lottie_element_72)" style="display: block;" transform="matrix(1,0,0,1,2,2)" opacity="1"><g style="display: block;" transform="matrix(1.063443899154663,0.056085001677274704,-0.057103365659713745,1.0827534198760986,0.569793701171875,-31.3980712890625)" opacity="1"><g opacity="1" transform="matrix(1,0,0,1,260.1910095214844,243.73699951171875)"><path fill="url(#__lottie_element_93)" fill-opacity="1" d=" M4.90500020980835,-209.9429931640625 C-52.56700134277344,-208.968994140625 -148.82699584960938,-191.85699462890625 -184.99899291992188,-80.32599639892578 C-227.052001953125,49.3390007019043 -152.01300048828125,188.3520050048828 -11.673999786376953,200.0070037841797 C115.83699798583984,210.5970001220703 202.34500122070312,144.24200439453125 215.90899658203125,47.78300094604492 C227.05099487304688,-31.445999145507812 216.4290008544922,-98.96099853515625 151.1009979248047,-160.20599365234375 C102.87100219726562,-205.42100524902344 43.50600051879883,-210.5970001220703 4.90500020980835,-209.9429931640625z"></path><path stroke-linecap="butt" stroke-linejoin="miter" fill-opacity="0" stroke-miterlimit="10" stroke="rgb(177,106,85)" stroke-opacity="1" stroke-width="13.256" d=" M4.90500020980835,-209.9429931640625 C-52.56700134277344,-208.968994140625 -148.82699584960938,-191.85699462890625 -184.99899291992188,-80.32599639892578 C-227.052001953125,49.3390007019043 -152.01300048828125,188.3520050048828 -11.673999786376953,200.0070037841797 C115.83699798583984,210.5970001220703 202.34500122070312,144.24200439453125 215.90899658203125,47.78300094604492 C227.05099487304688,-31.445999145507812 216.4290008544922,-98.96099853515625 151.1009979248047,-160.20599365234375 C102.87100219726562,-205.42100524902344 43.50600051879883,-210.5970001220703 4.90500020980835,-209.9429931640625z"></path></g><g opacity="1" transform="matrix(1,0,0,1,302.322998046875,283.63800048828125)"><path fill="url(#__lottie_element_94)" mask="url(#__lottie_element_96)" fill-opacity="0.4" d="M0 0 M138.38999938964844,-153.4149932861328 C138.38999938964844,-153.4149932861328 180.88999938964844,36.74700164794922 74.63999938964844,98.86299896240234 C-31.611000061035156,160.97799682617188 -150.6750030517578,103.25299835205078 -167.9709930419922,92.06700134277344 C-185.26600646972656,80.88200378417969 -121.25299835205078,183.34100341796875 40.3120002746582,144.6320037841797 C197.23699951171875,107.03600311279297 169.447998046875,-77.677001953125 167.81300354003906,-98.927001953125 C166.1790008544922,-120.1780014038086 138.38999938964844,-153.4149932861328 138.38999938964844,-153.4149932861328z"></path></g></g><g style="display: block;" transform="matrix(1.0372295379638672,0.09939339756965637,-0.09797773510217667,1.0390067100524902,96.55924224853516,122.17813873291016)" opacity="1"><g opacity="1" transform="matrix(1,0,0,1,70.26499938964844,24.242000579833984)"><path stroke-linecap="round" stroke-linejoin="round" fill-opacity="0" stroke="rgb(164,94,75)" stroke-opacity="0.42" stroke-width="12.375" d=" M-35.1150016784668,46.75699996948242 C-35.1150016784668,46.75699996948242 -28.025999069213867,37.71900177001953 -15.557999610900879,19.09600067138672 C-7.936999797821045,7.711999893188477 5.129000186920166,4.1529998779296875 16.64900016784668,0.5139999985694885 C39.823001861572266,-6.807000160217285 52.78300094604492,-18.054000854492188 52.78300094604492,-18.054000854492188"></path></g><g opacity="1" transform="matrix(1,0,0,1,280.8599853515625,39.28099822998047)"><path stroke-linecap="round" stroke-linejoin="round" fill-opacity="0" stroke="rgb(164,94,75)" stroke-opacity="0.42" stroke-width="12.375" d=" M-69.37100219726562,-21.530000686645508 C-69.37100219726562,-21.530000686645508 -62.95800018310547,5.797999858856201 -48.40299987792969,19.795000076293945 C-28.23900032043457,39.185001373291016 -29.913000106811523,37.25699996948242 -30.55699920654297,47.89099884033203 C-31.458999633789062,62.79199981689453 -47.55400085449219,76.81199645996094 -47.55400085449219,76.81199645996094"></path></g><g opacity="1" transform="matrix(1,0,0,1,183.27099609375,77.1240005493164)"><path stroke-linecap="round" stroke-linejoin="round" fill-opacity="0" stroke="rgb(74,44,35)" stroke-opacity="1" stroke-width="10.812" d=" M-88.57599639892578,5.578999996185303 C-79.12000274658203,10.045000076293945 -69.23300170898438,14.086000442504883 -59.48500061035156,17.062000274658203"></path></g><g opacity="1" transform="matrix(1,0,0,1,168.19900512695312,122.1760025024414)"><path stroke-linecap="round" stroke-linejoin="round" fill-opacity="0" stroke="rgb(178,107,86)" stroke-opacity="1" stroke-width="12.72" d=" M-88.03600311279297,-10.859000205993652 C-88.03600311279297,-10.859000205993652 -74.25299835205078,18.64900016784668 -51.57400131225586,21.882999420166016 C-22.207000732421875,26.070999145507812 -1.5640000104904175,7.008999824523926 -1.5640000104904175,7.008999824523926"></path></g><g opacity="1" transform="matrix(1,0,0,1,247.4409942626953,139.16299438476562)"><path stroke-linecap="round" stroke-linejoin="round" fill-opacity="0" stroke="rgb(164,90,75)" stroke-opacity="0.55" stroke-width="12.492" d=" M-52.916500091552734,-27.094499588012695 C-52.916500091552734,-27.094499588012695 -51.77899932861328,-16.0674991607666 -56.61000061035156,-7.854499816894531 C-62.417999267578125,2.0195000171661377 -66.85900115966797,4.7754998207092285 -66.85900115966797,4.7754998207092285"></path></g><g opacity="1" transform="matrix(1,0,0,1,83.9280014038086,114.38700103759766)"><path stroke-linecap="round" stroke-linejoin="round" fill-opacity="0" stroke="rgb(164,90,75)" stroke-opacity="0.58" stroke-width="9.54" d=" M-64.78997039794922,-27.72224235534668 C-64.78997039794922,-27.72224235534668 -71.13642120361328,-14.157302856445312 -60.74542236328125,-5.599303245544434 C-50.33942413330078,2.9706969261169434 -52.02378845214844,0.0719090923666954 -52.02378845214844,0.0719090923666954"></path></g><g opacity="1" transform="matrix(1,0,0,1,323.5379943847656,79.28399658203125)"><path stroke-linecap="round" stroke-linejoin="round" fill-opacity="0" stroke="rgb(74,44,35)" stroke-opacity="0" stroke-width="12.72" d=" M-75.96700286865234,18.30699920654297 C-75.96700286865234,18.30699920654297 -79.1969985961914,12.090999603271484 -75.65399932861328,18.766000747680664 C-72.927001953125,23.90399932861328 -74.8949966430664,21.924999237060547 -74.8949966430664,21.924999237060547"></path></g><g opacity="1" transform="matrix(1,0,0,1,55.1609992980957,55.86000061035156)"><path stroke-linecap="round" stroke-linejoin="round" fill-opacity="0" stroke="rgb(178,107,86)" stroke-opacity="1" stroke-width="12.72" d=" M32.775001525878906,15.33899974822998 C32.775001525878906,15.33899974822998 25.114999771118164,9.01200008392334 17.850000381469727,24.297000885009766 C11.5,37.65599822998047 15.708000183105469,49.108001708984375 15.708000183105469,49.108001708984375"></path></g><g opacity="1" transform="matrix(1,0,0,1,160.4739990234375,63.44300079345703)"><path stroke-linecap="round" stroke-linejoin="round" fill-opacity="0" stroke="rgb(178,107,86)" stroke-opacity="1" stroke-width="9.54" d=" M-8.86893081665039,-11.868793487548828 C-8.86893081665039,-11.868793487548828 -9.82593059539795,-11.699724197387695 -13.587930679321289,-10.109724044799805 C-19.075931549072266,-7.789724349975586 -26.37086296081543,-5.876792907714844 -26.37086296081543,-5.876792907714844"></path></g><g opacity="1" transform="matrix(1,0,0,1,171.8040008544922,137.50100708007812)"><path fill="rgb(178,107,86)" fill-opacity="0.47000000000000003" d=" M-121.46133422851562,-7.328333377838135 C-121.46133422851562,-7.328333377838135 -104.2959976196289,36.95233154296875 -74.05500030517578,41.8563346862793 C-43.814998626708984,46.76033401489258 -17.922000885009766,11.685667037963867 -10.656000137329102,-1.3913333415985107 C-6.13100004196167,-9.537333488464355 -23.99566650390625,11.098666191101074 -65.11766815185547,3.303666591644287 C-106.23966979980469,-4.49233341217041 -121.46133422851562,-7.328333377838135 -121.46133422851562,-7.328333377838135z"></path></g><g opacity="1" transform="matrix(1,0,0,1,0,0)"><path fill="rgb(42,23,15)" fill-opacity="1" d=" M117.56180572509766,71.2821273803711 C105.41880798339844,72.29812622070312 104.34980773925781,84.83712768554688 104.98680877685547,90.71713256835938 C105.84380340576172,98.62413024902344 117.38980865478516,107.13912963867188 127.42680358886719,107.89813232421875 C137.46380615234375,108.6571273803711 144.47280883789062,108.50112915039062 145.53179931640625,89.32312774658203 C146.59080505371094,70.14512634277344 127.34880828857422,70.46312713623047 117.56180572509766,71.2821273803711z"></path><path stroke-linecap="butt" stroke-linejoin="miter" fill-opacity="0" stroke-miterlimit="4" stroke="rgb(74,44,35)" stroke-opacity="1" stroke-width="8" d=" M117.56180572509766,71.2821273803711 C105.41880798339844,72.29812622070312 104.34980773925781,84.83712768554688 104.98680877685547,90.71713256835938 C105.84380340576172,98.62413024902344 117.38980865478516,107.13912963867188 127.42680358886719,107.89813232421875 C137.46380615234375,108.6571273803711 144.47280883789062,108.50112915039062 145.53179931640625,89.32312774658203 C146.59080505371094,70.14512634277344 127.34880828857422,70.46312713623047 117.56180572509766,71.2821273803711z"></path></g></g><g style="display: block;" transform="matrix(1.0372295379638672,0.09939339756965637,-0.09797773510217667,1.0390067100524902,196.30934143066406,61.540401458740234)" opacity="1"><g opacity="1" transform="matrix(1,0,0,1,40.41699981689453,77.56400299072266)"><path stroke-linecap="round" stroke-linejoin="round" fill-opacity="0" stroke="rgb(178,107,86)" stroke-opacity="1" stroke-width="9.54" d=" M-0.9141538739204407,-1.3597692251205444 C-0.9141538739204407,-1.3597692251205444 -12.205153465270996,-1.2557692527770996 -11.451153755187988,7.787230968475342 C-10.69715404510498,16.830230712890625 -7.478153705596924,13.288230895996094 -7.478153705596924,13.288230895996094"></path></g><g opacity="1" transform="matrix(0.9472000002861023,0,0,0.9472000002861023,80.99199676513672,72.7030029296875)"><path stroke-linecap="round" stroke-linejoin="round" fill-opacity="0" stroke="rgb(178,107,86)" stroke-opacity="1" stroke-width="13.256" d=" M1.6540000438690186,-38.54941177368164 C1.6540000438690186,-38.54941177368164 -8.988471031188965,-16.376882553100586 -22.27505874633789,-9.993117332458496 C-37.90788269042969,-2.6812353134155273 -52.22494125366211,10.280470848083496 -44.53759002685547,19.406293869018555 C-41.15629577636719,23.521587371826172 -27.61888313293457,27.463529586791992 -12.749470710754395,28.52794075012207 C-2.056823492050171,29.12211799621582 6.9507060050964355,28.829647064208984 6.9507060050964355,28.829647064208984 C6.9507060050964355,28.829647064208984 18.399883270263672,41.88800048828125 30.457881927490234,40.380001068115234 C42.5148811340332,38.87300109863281 41.142704010009766,26.865177154541016 38.12870407104492,23.09717559814453 C38.12870407104492,23.09717559814453 35.049468994140625,10.656588554382324 35.049468994140625,10.656588554382324"></path></g></g><g style="display: block;" transform="matrix(0.9947084188461304,0.11335122585296631,-0.09840920567512512,0.8757899403572083,135.4575958251953,25.466794967651367)" opacity="1"><g opacity="1" transform="matrix(1,0,0,1,80.68299865722656,62.41600036621094)"><path fill="rgb(164,99,75)" fill-opacity="0.55" d=" M-37.569000244140625,-12.767999649047852 C-28.69099998474121,-21.979000091552734 -15.310999870300293,-27.1560001373291 3.6740000247955322,-29.552000045776367 C23.558000564575195,-32.06100082397461 42.22600173950195,-21.7810001373291 43.55799865722656,-3.568000078201294 C45.14899826049805,18.179000854492188 26.854999542236328,25.707000732421875 14.130000114440918,28.215999603271484 C-4.119999885559082,31.81399917602539 -25.155000686645508,30.06999969482422 -36.755001068115234,19.74799919128418 C-47.095001220703125,10.54699993133545 -44.49700164794922,-5.580999851226807 -37.569000244140625,-12.767999649047852z"></path></g><g opacity="1" transform="matrix(1,0,0,1,254.4290008544922,90.79199981689453)"><path fill="rgb(164,99,75)" fill-opacity="0.5700000000000001" d=" M14.286999702453613,-28.726999282836914 C2.578000068664551,-34.38199996948242 -33.46200180053711,-38.301998138427734 -44.547000885009766,-17.555999755859375 C-55.63100051879883,3.190999984741211 -34.314998626708984,23.138999938964844 -7.0289998054504395,30.320999145507812 C20.256000518798828,37.50199890136719 42.96500015258789,30.736000061035156 46.6879997253418,17.554000854492188 C52.428001403808594,-2.7709999084472656 27.724000930786133,-22.23699951171875 14.286999702453613,-28.726999282836914z"></path></g><g opacity="1" transform="matrix(1,0,0,1,241.66299438476562,43.13399887084961)"><path stroke-linecap="round" stroke-linejoin="round" fill-opacity="0" stroke="rgb(164,99,75)" stroke-opacity="0.61" stroke-width="12.72" d=" M-22.60700035095215,2.4489998817443848 C-22.60700035095215,2.4489998817443848 -8.289999961853027,-1.6959999799728394 2.259999990463257,-2.072999954223633 C12.810999870300293,-2.4489998817443848 22.607999801635742,0.5649999976158142 22.607999801635742,0.5649999976158142"></path></g><g opacity="1" transform="matrix(1,0,0,1,101.94499969482422,24.577999114990234)"><path stroke-linecap="round" stroke-linejoin="round" fill-opacity="0" stroke="rgb(164,99,75)" stroke-opacity="0.73" stroke-width="12.72" d=" M-18.274999618530273,-10.927000045776367 C-18.274999618530273,-10.927000045776367 -8.10200023651123,1.8839999437332153 3.2019999027252197,6.406000137329102 C14.505999565124512,10.927000045776367 18.274999618530273,10.17300033569336 18.274999618530273,10.17300033569336"></path></g><g opacity="1" transform="matrix(1,0,0,1,293.25,114.33999633789062)"><path stroke-linecap="round" stroke-linejoin="round" fill-opacity="0" stroke="rgb(164,99,75)" stroke-opacity="0.68" stroke-width="12.72" d=" M16.013999938964844,-11.869000434875488 C16.013999938964844,-11.869000434875488 8.100000381469727,0.5649999976158142 -0.5659999847412109,6.2170000076293945 C-9.232000350952148,11.869000434875488 -16.013999938964844,11.491999626159668 -16.013999938964844,11.491999626159668"></path></g><g opacity="1" transform="matrix(1,0,0,1,59.82600021362305,86.45700073242188)"><path stroke-linecap="round" stroke-linejoin="round" fill-opacity="0" stroke="rgb(164,99,75)" stroke-opacity="0.61" stroke-width="12.72" d=" M-33.9109992980957,-0.5659999847412109 C-33.9109992980957,-0.5659999847412109 -13.187999725341797,1.6950000524520874 2.259999990463257,0.9409999847412109 C17.708999633789062,0.18799999356269836 33.9109992980957,-1.6950000524520874 33.9109992980957,-1.6950000524520874"></path></g><g opacity="1" transform="matrix(1,0,0,1,23.65399932861328,46.89400100708008)"><path stroke-linecap="round" stroke-linejoin="round" fill-opacity="0" stroke="rgb(164,99,75)" stroke-opacity="0.6" stroke-width="12.72" d=" M6.0289998054504395,-10.362000465393066 C6.0289998054504395,-10.362000465393066 -0.0010000000474974513,-9.984999656677246 -3.015000104904175,-2.072999954223633 C-6.0289998054504395,5.840000152587891 -5.6519999504089355,10.362000465393066 -5.6519999504089355,10.362000465393066"></path></g><g opacity="1" transform="matrix(1,0,0,1,250.83099365234375,82.16400146484375)"><path fill="rgb(255,255,255)" fill-opacity="1" d=" M14.041999816894531,-26.753000259399414 C3.693000078201294,-32.09400177001953 -28.159000396728516,-35.79499816894531 -37.95600128173828,-16.20199966430664 C-47.75199890136719,3.3910000324249268 -28.91200065612793,22.231000900268555 -4.797999858856201,29.01300048828125 C19.316999435424805,35.79600143432617 39.38800048828125,29.4060001373291 42.678001403808594,16.95599937438965 C47.75199890136719,-2.239000082015991 25.917999267578125,-20.624000549316406 14.041999816894531,-26.753000259399414z"></path><path stroke-linecap="butt" stroke-linejoin="miter" fill-opacity="0" stroke-miterlimit="10" stroke="rgb(86,50,43)" stroke-opacity="1" stroke-width="10.674" d=" M14.041999816894531,-26.753000259399414 C3.693000078201294,-32.09400177001953 -28.159000396728516,-35.79499816894531 -37.95600128173828,-16.20199966430664 C-47.75199890136719,3.3910000324249268 -28.91200065612793,22.231000900268555 -4.797999858856201,29.01300048828125 C19.316999435424805,35.79600143432617 39.38800048828125,29.4060001373291 42.678001403808594,16.95599937438965 C47.75199890136719,-2.239000082015991 25.917999267578125,-20.624000549316406 14.041999816894531,-26.753000259399414z"></path></g><g opacity="1" transform="matrix(1,0,0,1,70.38400268554688,55.459999084472656)"><path fill="rgb(255,255,255)" fill-opacity="1" d=" M-34.67399978637695,-11.392999649047852 C-26.261999130249023,-19.691999435424805 -13.583999633789062,-24.356000900268555 4.4039998054504395,-26.513999938964844 C23.243999481201172,-28.774999618530273 40.930999755859375,-19.513999938964844 42.19300079345703,-3.1040000915527344 C43.70000076293945,16.489999771118164 26.368000030517578,23.273000717163086 14.3100004196167,25.534000396728516 C-2.9809999465942383,28.775999069213867 -22.91200065612793,27.20400047302246 -33.90299987792969,17.90399932861328 C-43.70000076293945,9.614999771118164 -41.237998962402344,-4.916999816894531 -34.67399978637695,-11.392999649047852z"></path><path stroke-linecap="butt" stroke-linejoin="miter" fill-opacity="0" stroke-miterlimit="10" stroke="rgb(86,50,43)" stroke-opacity="1" stroke-width="10.674" d=" M-34.67399978637695,-11.392999649047852 C-26.261999130249023,-19.691999435424805 -13.583999633789062,-24.356000900268555 4.4039998054504395,-26.513999938964844 C23.243999481201172,-28.774999618530273 40.930999755859375,-19.513999938964844 42.19300079345703,-3.1040000915527344 C43.70000076293945,16.489999771118164 26.368000030517578,23.273000717163086 14.3100004196167,25.534000396728516 C-2.9809999465942383,28.775999069213867 -22.91200065612793,27.20400047302246 -33.90299987792969,17.90399932861328 C-43.70000076293945,9.614999771118164 -41.237998962402344,-4.916999816894531 -34.67399978637695,-11.392999649047852z"></path></g><g opacity="1" transform="matrix(1,0,0,1,0,0)"><g opacity="1" transform="matrix(1,0,0,1,59.54199981689453,55.470001220703125)"><path fill="rgb(35,35,33)" fill-opacity="1" d=" M-6.89900016784668,-8.184000015258789 C-3.6610000133514404,-10.126999855041504 9.788000106811523,-11.713000297546387 11.71399974822998,-3.0480000972747803 C13.638999938964844,5.616000175476074 3.0490000247955322,11.71399974822998 -5.294000148773193,7.541999816894531 C-13.637999534606934,3.369999885559082 -11.713000297546387,-5.296000003814697 -6.89900016784668,-8.184000015258789z"></path></g><g opacity="1" transform="matrix(1,0,0,1,47.00600051879883,57.125)"><path fill="rgb(255,255,255)" fill-opacity="1" d=" M-4.211999893188477,-4.994999885559082 C-2.234999895095825,-6.181000232696533 5.973999977111816,-7.150000095367432 7.150000095367432,-1.8609999418258667 C8.324999809265137,3.427999973297119 1.8600000143051147,7.150000095367432 -3.2330000400543213,4.604000091552734 C-8.324999809265137,2.056999921798706 -7.150000095367432,-3.2320001125335693 -4.211999893188477,-4.994999885559082z"></path></g></g><g opacity="1" transform="matrix(1,0,0,1,0,0)"><g opacity="1" transform="matrix(1,0,0,1,259.6400146484375,85.77799987792969)"><path fill="rgb(35,35,33)" fill-opacity="1" d=" M0.5519999861717224,-10.881999969482422 C-8.699999809265137,-11.640999794006348 -15.651000022888184,-7.24399995803833 -12.675000190734863,2.015000104904175 C-9.699000358581543,11.27400016784668 2.885999917984009,11.640999794006348 9.149999618530273,5.321000099182129 C15.652000427246094,-1.2369999885559082 7.5960001945495605,-10.303999900817871 0.5519999861717224,-10.881999969482422z"></path></g><g opacity="1" transform="matrix(1,0,0,1,245.5229949951172,82.5530014038086)"><path fill="rgb(255,255,255)" fill-opacity="1" d=" M-4.210999965667725,-4.994999885559082 C-2.2339999675750732,-6.181000232696533 5.973999977111816,-7.150000095367432 7.150000095367432,-1.8609999418258667 C8.324999809265137,3.427999973297119 1.8600000143051147,7.150000095367432 -3.2330000400543213,4.604000091552734 C-8.324999809265137,2.056999921798706 -7.14900016784668,-3.2320001125335693 -4.210999965667725,-4.994999885559082z"></path></g></g><g opacity="1" transform="matrix(1,0,0,1,0,0)"><path fill="rgb(252,213,187)" fill-opacity="1" d=" M227.75,49.40700149536133 C201.46499633789062,57.150001525878906 207.05599975585938,74.78399658203125 208.68600463867188,79.18900299072266 C214.24200439453125,94.2030029296875 194.69400024414062,49.305999755859375 237.08099365234375,47.19900131225586 C248.94900512695312,46.60900115966797 264.3370056152344,50.340999603271484 274.04400634765625,58.04600143432617 C289.06298828125,69.96700286865234 298.3760070800781,87.0469970703125 287.3599853515625,71.1520004272461 C271.468994140625,48.22200012207031 251.01699829101562,42.553001403808594 227.75,49.40700149536133z"></path><path stroke-linecap="butt" stroke-linejoin="miter" fill-opacity="0" stroke-miterlimit="4" stroke="rgb(86,50,43)" stroke-opacity="1" stroke-width="3" d=" M227.75,49.40700149536133 C201.46499633789062,57.150001525878906 207.05599975585938,74.78399658203125 208.68600463867188,79.18900299072266 C214.24200439453125,94.2030029296875 194.69400024414062,49.305999755859375 237.08099365234375,47.19900131225586 C248.94900512695312,46.60900115966797 264.3370056152344,50.340999603271484 274.04400634765625,58.04600143432617 C289.06298828125,69.96700286865234 298.3760070800781,87.0469970703125 287.3599853515625,71.1520004272461 C271.468994140625,48.22200012207031 251.01699829101562,42.553001403808594 227.75,49.40700149536133z"></path></g><g opacity="1" transform="matrix(1,0,0,1,0,0)"><path fill="rgb(252,213,187)" fill-opacity="1" d=" M63.132999420166016,28.177000045776367 C40.30099868774414,33.4739990234375 27.73200035095215,54.145999908447266 28.99799919128418,54.49599838256836 C32.51499938964844,55.46900177001953 30.858999252319336,33.641998291015625 67.06199645996094,30.312000274658203 C89.72699737548828,28.226999282836914 105.01100158691406,37.391998291015625 110.4209976196289,41.441001892089844 C114.16899871826172,44.24599838256836 113.17900085449219,44.595001220703125 106.62100219726562,37.04800033569336 C97.93699645996094,27.05500030517578 82.64800262451172,23.649999618530273 63.132999420166016,28.177000045776367z"></path><path stroke-linecap="butt" stroke-linejoin="miter" fill-opacity="0" stroke-miterlimit="4" stroke="rgb(106,62,51)" stroke-opacity="1" stroke-width="4" d=" M63.132999420166016,28.177000045776367 C40.30099868774414,33.4739990234375 27.73200035095215,54.145999908447266 28.99799919128418,54.49599838256836 C32.51499938964844,55.46900177001953 30.858999252319336,33.641998291015625 67.06199645996094,30.312000274658203 C89.72699737548828,28.226999282836914 105.01100158691406,37.391998291015625 110.4209976196289,41.441001892089844 C114.16899871826172,44.24599838256836 113.17900085449219,44.595001220703125 106.62100219726562,37.04800033569336 C97.93699645996094,27.05500030517578 82.64800262451172,23.649999618530273 63.132999420166016,28.177000045776367z"></path></g></g><g style="display: block;" transform="matrix(1.0082368850708008,0.625046968460083,-0.625046968460083,1.0082368850708008,62.92549133300781,40.454132080078125)" opacity="1"><g opacity="1" transform="matrix(1,0,0,1,115.22799682617188,60.86800003051758)"><path fill="rgb(232,199,166)" fill-opacity="1" d=" M58.27283477783203,-4.455277919769287 C58.27283477783203,-4.455277919769287 49.337276458740234,-11.643333435058594 41.021278381347656,-12.365333557128906 C29.471277236938477,-13.36733341217041 -13.244722366333008,-17.26211166381836 -28.27833366394043,-7.2607221603393555 C-50.40599822998047,7.410611152648926 -35.965999603271484,23.068445205688477 -26.158721923828125,23.951833724975586 C-20.262887954711914,24.532333374023438 -10.639166831970215,17.651721954345703 8.551833152770996,10.59072208404541 C25.335832595825195,4.414722442626953 58.27283477783203,-4.455277919769287 58.27283477783203,-4.455277919769287z"></path><path stroke-linecap="butt" stroke-linejoin="miter" fill-opacity="0" stroke-miterlimit="10" stroke="rgb(164,99,75)" stroke-opacity="1" stroke-width="12.419" d=" M58.27283477783203,-4.455277919769287 C58.27283477783203,-4.455277919769287 49.337276458740234,-11.643333435058594 41.021278381347656,-12.365333557128906 C29.471277236938477,-13.36733341217041 -13.244722366333008,-17.26211166381836 -28.27833366394043,-7.2607221603393555 C-50.40599822998047,7.410611152648926 -35.965999603271484,23.068445205688477 -26.158721923828125,23.951833724975586 C-20.262887954711914,24.532333374023438 -10.639166831970215,17.651721954345703 8.551833152770996,10.59072208404541 C25.335832595825195,4.414722442626953 58.27283477783203,-4.455277919769287 58.27283477783203,-4.455277919769287z"></path></g><g opacity="1" transform="matrix(1,0,0,1,156.2209930419922,120.35700225830078)"><path fill="rgb(249,194,162)" fill-opacity="1" d=" M16.421846389770508,38.9104118347168 C16.421846389770508,38.9104118347168 -7.9468207359313965,36.36281967163086 -26.385820388793945,19.363821029663086 C-44.82482147216797,2.3658204078674316 -48.421104431152344,-20.015512466430664 -37.90510177612305,-29.999513626098633 C-27.389102935791016,-39.98351287841797 44.56089782714844,-44.3385124206543 49.950897216796875,-42.732513427734375 C73.7448959350586,-35.64651107788086 74.19905090332031,5.73548698425293 65.97599792480469,18.54728126525879 C50.77899932861328,42.223411560058594 16.421846389770508,38.9104118347168 16.421846389770508,38.9104118347168z"></path><path stroke-linecap="butt" stroke-linejoin="miter" fill-opacity="0" stroke-miterlimit="10" stroke="rgb(178,107,86)" stroke-opacity="1" stroke-width="12.419" d=" M16.421846389770508,38.9104118347168 C16.421846389770508,38.9104118347168 -7.9468207359313965,36.36281967163086 -26.385820388793945,19.363821029663086 C-44.82482147216797,2.3658204078674316 -48.421104431152344,-20.015512466430664 -37.90510177612305,-29.999513626098633 C-27.389102935791016,-39.98351287841797 44.56089782714844,-44.3385124206543 49.950897216796875,-42.732513427734375 C73.7448959350586,-35.64651107788086 74.19905090332031,5.73548698425293 65.97599792480469,18.54728126525879 C50.77899932861328,42.223411560058594 16.421846389770508,38.9104118347168 16.421846389770508,38.9104118347168z"></path></g><g opacity="1" transform="matrix(0.8999999761581421,0,0,0.8999999761581421,119.62899780273438,107.93699645996094)"><path fill="rgb(249,194,162)" fill-opacity="1" d=" M22.99077796936035,-29.599166870117188 C22.99077796936035,-29.599166870117188 -17.090499877929688,-29.720388412475586 -25.651500701904297,-21.900388717651367 C-34.212501525878906,-14.080389022827148 -36.553611755371094,25.3038330078125 -21.659610748291016,37.56383514404297 C-6.765611171722412,49.82383346557617 26.118389129638672,57.8849983215332 38.42177963256836,37.76105499267578 C46.674835205078125,24.30388832092285 25.510778427124023,23.23494529724121 18.98377799987793,18.1119441986084 C12.455778121948242,12.988944053649902 -6.091444492340088,5.921555519104004 -6.091444492340088,5.921555519104004 C-6.091444492340088,5.921555519104004 22.99077796936035,-29.599166870117188 22.99077796936035,-29.599166870117188z"></path><path stroke-linecap="butt" stroke-linejoin="miter" fill-opacity="0" stroke-miterlimit="10" stroke="rgb(178,107,86)" stroke-opacity="1" stroke-width="10.645" d=" M22.99077796936035,-29.599166870117188 C22.99077796936035,-29.599166870117188 -17.090499877929688,-29.720388412475586 -25.651500701904297,-21.900388717651367 C-34.212501525878906,-14.080389022827148 -36.553611755371094,25.3038330078125 -21.659610748291016,37.56383514404297 C-6.765611171722412,49.82383346557617 26.118389129638672,57.8849983215332 38.42177963256836,37.76105499267578 C46.674835205078125,24.30388832092285 25.510778427124023,23.23494529724121 18.98377799987793,18.1119441986084 C12.455778121948242,12.988944053649902 -6.091444492340088,5.921555519104004 -6.091444492340088,5.921555519104004 C-6.091444492340088,5.921555519104004 22.99077796936035,-29.599166870117188 22.99077796936035,-29.599166870117188z"></path></g><g opacity="1" transform="matrix(0.8899999856948853,0,0,0.8899999856948853,127.62899780273438,108.93699645996094)"><path fill="rgb(249,194,162)" fill-opacity="1" d=" M40.6689453125,-39.90338897705078 C40.6689453125,-39.90338897705078 0.15833333134651184,-40.200279235839844 -8.402667045593262,-32.380279541015625 C-16.963666915893555,-24.560277938842773 -18.55061149597168,-3.7625555992126465 -3.656611204147339,8.497444152832031 C11.237388610839844,20.757444381713867 34.34433364868164,50.01161193847656 49.82344436645508,31.968778610229492 C58.79199981689453,21.83966636657715 49.84299850463867,5.140833377838135 43.316001892089844,0.01783333346247673 C36.78799819946289,-5.105166435241699 30.002222061157227,-21.267499923706055 30.002222061157227,-21.267499923706055 C30.002222061157227,-21.267499923706055 40.6689453125,-39.90338897705078 40.6689453125,-39.90338897705078z"></path><path stroke-linecap="butt" stroke-linejoin="miter" fill-opacity="0" stroke-miterlimit="10" stroke="rgb(178,107,86)" stroke-opacity="1" stroke-width="13" d=" M40.6689453125,-39.90338897705078 C40.6689453125,-39.90338897705078 0.15833333134651184,-40.200279235839844 -8.402667045593262,-32.380279541015625 C-16.963666915893555,-24.560277938842773 -18.55061149597168,-3.7625555992126465 -3.656611204147339,8.497444152832031 C11.237388610839844,20.757444381713867 34.34433364868164,50.01161193847656 49.82344436645508,31.968778610229492 C58.79199981689453,21.83966636657715 49.84299850463867,5.140833377838135 43.316001892089844,0.01783333346247673 C36.78799819946289,-5.105166435241699 30.002222061157227,-21.267499923706055 30.002222061157227,-21.267499923706055 C30.002222061157227,-21.267499923706055 40.6689453125,-39.90338897705078 40.6689453125,-39.90338897705078z"></path></g><g opacity="1" transform="matrix(1,0,0,1,123.23600006103516,94.6989974975586)"><path fill="rgb(160,86,53)" fill-opacity="1" d=" M-71.30671691894531,4.783923149108887 C-60.82146072387695,-3.2150256633758545 -45.006744384765625,-11.61048698425293 -14.308743476867676,-24.68748664855957 C27.008256912231445,-42.289485931396484 80.39395141601562,-45.649539947509766 87.09558868408203,-32.483924865722656 C93.1337661743164,-20.596744537353516 68.78582000732422,-8.227179527282715 45.00617980957031,11.219512939453125 C28.6021785736084,24.66699981689453 -6.331794738769531,43.13871765136719 -40.04179382324219,53.7329216003418 C-66.46564483642578,61.99138641357422 -81.54561614990234,39.04964065551758 -81.39595031738281,29.2557430267334 C-81.1627426147461,12.016256332397461 -73.64466857910156,6.568487167358398 -71.30671691894531,4.783923149108887z"></path><path stroke-linecap="butt" stroke-linejoin="miter" fill-opacity="0" stroke-miterlimit="10" stroke="rgb(77,45,45)" stroke-opacity="1" stroke-width="11.418" d=" M-71.30671691894531,4.783923149108887 C-60.82146072387695,-3.2150256633758545 -45.006744384765625,-11.61048698425293 -14.308743476867676,-24.68748664855957 C27.008256912231445,-42.289485931396484 80.39395141601562,-45.649539947509766 87.09558868408203,-32.483924865722656 C93.1337661743164,-20.596744537353516 68.78582000732422,-8.227179527282715 45.00617980957031,11.219512939453125 C28.6021785736084,24.66699981689453 -6.331794738769531,43.13871765136719 -40.04179382324219,53.7329216003418 C-66.46564483642578,61.99138641357422 -81.54561614990234,39.04964065551758 -81.39595031738281,29.2557430267334 C-81.1627426147461,12.016256332397461 -73.64466857910156,6.568487167358398 -71.30671691894531,4.783923149108887z"></path></g><g opacity="1" transform="matrix(1,0,0,1,132.49200439453125,101.29299926757812)"><path fill="rgb(57,33,33)" fill-opacity="1" d=" M0.15628571808338165,-19.250713348388672 C0.15628571808338165,-19.250713348388672 4.69085693359375,-12.795286178588867 9.332571029663086,-2.51971435546875 C14.591428756713867,9.203428268432617 11.420000076293945,17.23442840576172 13.213000297546387,15.811429023742676 C15.005999565124512,14.387428283691406 28.933856964111328,8.399285316467285 29.66185760498047,5.301285743713379 C34.02485656738281,-13.254714012145996 16.039857864379883,-31.33742904663086 16.039857864379883,-31.33742904663086 C16.039857864379883,-31.33742904663086 7.453856945037842,-23.261571884155273 4.645857334136963,-21.643571853637695 C1.8388571739196777,-20.025571823120117 0.15628571808338165,-19.250713348388672 0.15628571808338165,-19.250713348388672z"></path></g><g opacity="1" transform="matrix(1,0,0,1,118.66500091552734,79.89399719238281)"><path fill="rgb(237,212,84)" fill-opacity="1" d=" M2.8269999027252197,-12.277000427246094 C-1.4869999885559082,-9.184000015258789 -1.239571452140808,-4.95557165145874 3.4534285068511963,-2.0545713901519775 C7.02742862701416,0.15442857146263123 11.91114330291748,-0.14428570866584778 19.110143661499023,-1.8772857189178467 C32.361141204833984,-5.068285942077637 38.05928421020508,-8.229857444763184 40.36642837524414,-14.779571533203125 C41.99342727661133,-19.466428756713867 37.066856384277344,-22.070999145507812 31.785856246948242,-21.542999267578125 C26.504858016967773,-21.016000747680664 8.43314266204834,-16.749570846557617 3.369142770767212,-13.18757152557373 C3.104142904281616,-13.000571250915527 3.0759999752044678,-12.454999923706055 2.8269999027252197,-12.277000427246094z"></path><path stroke-linecap="butt" stroke-linejoin="miter" fill-opacity="0" stroke-miterlimit="10" stroke="rgb(57,33,33)" stroke-opacity="1" stroke-width="11.418" d=" M2.8269999027252197,-12.277000427246094 C-1.4869999885559082,-9.184000015258789 -1.239571452140808,-4.95557165145874 3.4534285068511963,-2.0545713901519775 C7.02742862701416,0.15442857146263123 11.91114330291748,-0.14428570866584778 19.110143661499023,-1.8772857189178467 C32.361141204833984,-5.068285942077637 38.05928421020508,-8.229857444763184 40.36642837524414,-14.779571533203125 C41.99342727661133,-19.466428756713867 37.066856384277344,-22.070999145507812 31.785856246948242,-21.542999267578125 C26.504858016967773,-21.016000747680664 8.43314266204834,-16.749570846557617 3.369142770767212,-13.18757152557373 C3.104142904281616,-13.000571250915527 3.0759999752044678,-12.454999923706055 2.8269999027252197,-12.277000427246094z"></path></g><g opacity="1" transform="matrix(1,0,0,1,158.11900329589844,111.39399719238281)"><path fill="rgb(249,194,162)" fill-opacity="1" d=" M73.16100311279297,4.0995001792907715 C73.16100311279297,4.0995001792907715 70.45755004882812,-14.032549858093262 57.280548095703125,-29.8835506439209 C50.69654846191406,-37.803550720214844 47.9587516784668,-40.209049224853516 38.40850067138672,-53.845550537109375 C28.98819923400879,-67.21295166015625 5.462250232696533,-54.90264892578125 12.40725040435791,-41.00265121459961 C16.98925018310547,-31.83264923095703 33.39955139160156,-8.166549682617188 33.39955139160156,-8.166549682617188 C33.39955139160156,-8.166549682617188 32.88254928588867,0.7334499955177307 40.335548400878906,3.7614500522613525 C47.788551330566406,6.789450168609619 43.829551696777344,20.05845069885254 43.829551696777344,20.05845069885254"></path></g><g opacity="1" transform="matrix(1,0,0,1,158.11900329589844,111.39399719238281)"><path stroke-linecap="round" stroke-linejoin="round" fill-opacity="0" stroke="rgb(178,107,86)" stroke-opacity="1" stroke-width="12.419" d=" M67.9050521850586,10.529399871826172 C67.9050521850586,10.529399871826172 70.86524963378906,-21.65719985961914 60.51625061035156,-30.2362003326416 C51.55125045776367,-37.6682014465332 40.18724822998047,-50.25550079345703 35.28274917602539,-53.7015495300293 C25.38184928894043,-60.821998596191406 11.887049674987793,-56.33235168457031 14.508600234985352,-46.51810073852539 C19.597700119018555,-28.057100296020508 30.9330997467041,-12.423500061035156 30.9330997467041,-12.423500061035156 C30.9330997467041,-12.423500061035156 28.351200103759766,-15.063249588012695 34.177249908447266,-8.464750289916992 C39.768550872802734,-2.1239500045776367 29.74329948425293,7.538449764251709 33.21889877319336,16.072200775146484"></path></g><g opacity="1" transform="matrix(1,0,0,1,48.4640007019043,129.3679962158203)"><path fill="rgb(216,92,51)" fill-opacity="1" d=" M-9.052000045776367,-3.7139999866485596 C-9.003000259399414,2.0889999866485596 -2.849428653717041,20.00457191467285 18.022428512573242,21.28728485107422 C31.883142471313477,22.335142135620117 55.573429107666016,5.589571475982666 46.69428634643555,-16.81328582763672 C38.10514450073242,-38.2894287109375 23.145286560058594,-36.382286071777344 7.843142986297607,-31.08571434020996 C-6.605571269989014,-25.571285247802734 -9.10200023651123,-9.597000122070312 -9.052000045776367,-3.7139999866485596z"></path><path stroke-linecap="butt" stroke-linejoin="miter" fill-opacity="0" stroke-miterlimit="10" stroke="rgb(57,33,33)" stroke-opacity="1" stroke-width="11.418" d=" M-9.052000045776367,-3.7139999866485596 C-9.003000259399414,2.0889999866485596 -2.849428653717041,20.00457191467285 18.022428512573242,21.28728485107422 C31.883142471313477,22.335142135620117 55.573429107666016,5.589571475982666 46.69428634643555,-16.81328582763672 C38.10514450073242,-38.2894287109375 23.145286560058594,-36.382286071777344 7.843142986297607,-31.08571434020996 C-6.605571269989014,-25.571285247802734 -9.10200023651123,-9.597000122070312 -9.052000045776367,-3.7139999866485596z"></path></g></g><g style="display: none;"><g><path></path><path stroke-linecap="round" stroke-linejoin="round" fill-opacity="0"></path></g></g><g style="display: block;" transform="matrix(1.050463318824768,0.07079292833805084,-0.07079292833805084,1.050463318824768,248.845703125,272.0609436035156)" opacity="1"><g opacity="1" transform="matrix(1,0,0,1,6,0)"><path stroke-linecap="round" stroke-linejoin="round" fill-opacity="0" stroke="rgb(161,178,187)" stroke-opacity="0" stroke-width="14" d=" M-195.89599609375,-205.20899963378906 C-196.2429962158203,-205.7779998779297 -196.59300231933594,-206.33900451660156 -196.94400024414062,-206.89199829101562"></path></g></g><g style="display: block;" transform="matrix(1.050463318824768,0.07079292833805084,-0.07079292833805084,1.050463318824768,224.5883026123047,275.1672668457031)" opacity="1"><g opacity="1" transform="matrix(1,0,0,1,6,0)"><path stroke-linecap="round" stroke-linejoin="round" fill-opacity="0" stroke="rgb(161,178,187)" stroke-opacity="0.6187929717341484" stroke-width="13" d=" M-198.04200744628906,-139.22900390625 C-190.82400512695312,-149.68600463867188 -184.00599670410156,-160.67999267578125 -185.07000732421875,-175.0399932861328 C-185.87100219726562,-185.85899353027344 -190.51499938964844,-196.35000610351562 -195.79299926757812,-205.0399932861328"></path></g></g></g><g clip-path="url(#__lottie_element_40)" style="display: none;"><g style="display: none;"><g><path fill="url(#__lottie_element_61)"></path><path stroke-linecap="butt" stroke-linejoin="miter" fill-opacity="0" stroke-miterlimit="10"></path></g><g><path fill="url(#__lottie_element_62)" mask="url(#__lottie_element_64)"></path></g></g><g style="display: none;"><g><path stroke-linecap="round" stroke-linejoin="round" fill-opacity="0"></path></g><g><path stroke-linecap="round" stroke-linejoin="round" fill-opacity="0"></path></g><g><path stroke-linecap="round" stroke-linejoin="round" fill-opacity="0"></path></g><g><path stroke-linecap="round" stroke-linejoin="round" fill-opacity="0"></path></g><g><path stroke-linecap="round" stroke-linejoin="round" fill-opacity="0"></path></g><g><path stroke-linecap="round" stroke-linejoin="round" fill-opacity="0"></path></g><g><path stroke-linecap="round" stroke-linejoin="round" fill-opacity="0"></path></g><g><path stroke-linecap="round" stroke-linejoin="round" fill-opacity="0"></path></g><g><path stroke-linecap="round" stroke-linejoin="round" fill-opacity="0"></path></g><g><path></path></g><g><path></path><path stroke-linecap="butt" stroke-linejoin="miter" fill-opacity="0" stroke-miterlimit="4"></path></g></g><g style="display: none;"><g><path stroke-linecap="round" stroke-linejoin="round" fill-opacity="0"></path></g><g><path stroke-linecap="round" stroke-linejoin="round" fill-opacity="0"></path></g></g><g style="display: none;"><g><path></path></g><g><path></path></g><g><path stroke-linecap="round" stroke-linejoin="round" fill-opacity="0"></path></g><g><path stroke-linecap="round" stroke-linejoin="round" fill-opacity="0"></path></g><g><path stroke-linecap="round" stroke-linejoin="round" fill-opacity="0"></path></g><g><path stroke-linecap="round" stroke-linejoin="round" fill-opacity="0"></path></g><g><path stroke-linecap="round" stroke-linejoin="round" fill-opacity="0"></path></g><g><path></path><path stroke-linecap="butt" stroke-linejoin="miter" fill-opacity="0" stroke-miterlimit="10"></path></g><g><path></path><path stroke-linecap="butt" stroke-linejoin="miter" fill-opacity="0" stroke-miterlimit="10"></path></g><g><g><path></path></g><g><path></path></g></g><g><g><path></path></g><g><path></path></g></g><g><path></path><path stroke-linecap="butt" stroke-linejoin="miter" fill-opacity="0" stroke-miterlimit="4"></path></g><g><path></path><path stroke-linecap="butt" stroke-linejoin="miter" fill-opacity="0" stroke-miterlimit="4"></path></g></g><g style="display: none;"><g><path></path><path stroke-linecap="butt" stroke-linejoin="miter" fill-opacity="0" stroke-miterlimit="10"></path></g><g><path></path><path stroke-linecap="butt" stroke-linejoin="miter" fill-opacity="0" stroke-miterlimit="10"></path></g><g><path></path><path stroke-linecap="butt" stroke-linejoin="miter" fill-opacity="0" stroke-miterlimit="10"></path></g><g><path></path><path stroke-linecap="butt" stroke-linejoin="miter" fill-opacity="0" stroke-miterlimit="10"></path></g><g><path></path><path stroke-linecap="butt" stroke-linejoin="miter" fill-opacity="0" stroke-miterlimit="10"></path></g><g><path></path></g><g><path></path><path stroke-linecap="butt" stroke-linejoin="miter" fill-opacity="0" stroke-miterlimit="10"></path></g><g><path></path></g><g><path stroke-linecap="round" stroke-linejoin="round" fill-opacity="0"></path></g><g><path></path><path stroke-linecap="butt" stroke-linejoin="miter" fill-opacity="0" stroke-miterlimit="10"></path></g></g><g style="display: none;"><g><path></path><path stroke-linecap="round" stroke-linejoin="round" fill-opacity="0"></path></g></g><g style="display: none;"><g><path stroke-linecap="round" stroke-linejoin="round" fill-opacity="0"></path></g></g><g style="display: none;"><g><path stroke-linecap="round" stroke-linejoin="round" fill-opacity="0"></path></g></g></g><g clip-path="url(#__lottie_element_8)" style="display: none;"><g style="display: none;"><g><path fill="url(#__lottie_element_29)"></path><path stroke-linecap="butt" stroke-linejoin="miter" fill-opacity="0" stroke-miterlimit="10"></path></g><g><path fill="url(#__lottie_element_30)" mask="url(#__lottie_element_32)"></path></g></g><g style="display: none;"><g><path stroke-linecap="round" stroke-linejoin="round" fill-opacity="0"></path></g><g><path stroke-linecap="round" stroke-linejoin="round" fill-opacity="0"></path></g><g><path stroke-linecap="round" stroke-linejoin="round" fill-opacity="0"></path></g><g><path stroke-linecap="round" stroke-linejoin="round" fill-opacity="0"></path></g><g><path stroke-linecap="round" stroke-linejoin="round" fill-opacity="0"></path></g><g><path stroke-linecap="round" stroke-linejoin="round" fill-opacity="0"></path></g><g><path stroke-linecap="round" stroke-linejoin="round" fill-opacity="0"></path></g><g><path stroke-linecap="round" stroke-linejoin="round" fill-opacity="0"></path></g><g><path stroke-linecap="round" stroke-linejoin="round" fill-opacity="0"></path></g><g><path></path></g><g><path></path><path stroke-linecap="butt" stroke-linejoin="miter" fill-opacity="0" stroke-miterlimit="4"></path></g></g><g style="display: none;"><g><path stroke-linecap="round" stroke-linejoin="round" fill-opacity="0"></path></g><g><path stroke-linecap="round" stroke-linejoin="round" fill-opacity="0"></path></g></g><g style="display: none;"><g><path></path></g><g><path></path></g><g><path stroke-linecap="round" stroke-linejoin="round" fill-opacity="0"></path></g><g><path stroke-linecap="round" stroke-linejoin="round" fill-opacity="0"></path></g><g><path stroke-linecap="round" stroke-linejoin="round" fill-opacity="0"></path></g><g><path stroke-linecap="round" stroke-linejoin="round" fill-opacity="0"></path></g><g><path stroke-linecap="round" stroke-linejoin="round" fill-opacity="0"></path></g><g><path></path><path stroke-linecap="butt" stroke-linejoin="miter" fill-opacity="0" stroke-miterlimit="10"></path></g><g><path></path><path stroke-linecap="butt" stroke-linejoin="miter" fill-opacity="0" stroke-miterlimit="10"></path></g><g><g><path></path></g><g><path></path></g></g><g><g><path></path></g><g><path></path></g></g><g><path></path><path stroke-linecap="butt" stroke-linejoin="miter" fill-opacity="0" stroke-miterlimit="4"></path></g><g><path></path><path stroke-linecap="butt" stroke-linejoin="miter" fill-opacity="0" stroke-miterlimit="4"></path></g></g><g style="display: none;"><g><path></path><path stroke-linecap="butt" stroke-linejoin="miter" fill-opacity="0" stroke-miterlimit="10"></path></g><g><path></path><path stroke-linecap="butt" stroke-linejoin="miter" fill-opacity="0" stroke-miterlimit="10"></path></g><g><path></path><path stroke-linecap="butt" stroke-linejoin="miter" fill-opacity="0" stroke-miterlimit="10"></path></g><g><path></path><path stroke-linecap="butt" stroke-linejoin="miter" fill-opacity="0" stroke-miterlimit="10"></path></g><g><path></path><path stroke-linecap="butt" stroke-linejoin="miter" fill-opacity="0" stroke-miterlimit="10"></path></g><g><path></path></g><g><path></path><path stroke-linecap="butt" stroke-linejoin="miter" fill-opacity="0" stroke-miterlimit="10"></path></g><g><path></path></g><g><path stroke-linecap="round" stroke-linejoin="round" fill-opacity="0"></path></g><g><path></path><path stroke-linecap="butt" stroke-linejoin="miter" fill-opacity="0" stroke-miterlimit="10"></path></g></g><g style="display: none;"><g><path></path><path stroke-linecap="round" stroke-linejoin="round" fill-opacity="0"></path></g></g><g style="display: none;"><g><path stroke-linecap="round" stroke-linejoin="round" fill-opacity="0"></path></g></g><g style="display: none;"><g><path stroke-linecap="round" stroke-linejoin="round" fill-opacity="0"></path></g></g></g></g></g></svg>