<svg xmlns="http://www.w3.org/2000/svg" xmlns:xlink="http://www.w3.org/1999/xlink" viewBox="0 0 512 512" width="512" height="512" style="width: 100%; height: 100%; transform: translate3d(0,0,0); content-visibility: visible;" preserveAspectRatio="xMidYMid meet"><defs><clipPath id="__lottie_element_2"><rect width="512" height="512" x="0" y="0"></rect></clipPath><radialGradient id="__lottie_element_7" spreadMethod="pad" gradientUnits="userSpaceOnUse" cx="-67.51399993896484" cy="-164.36700439453125" r="323.07890266069404" fx="-67.51399993896484" fy="-164.36700439453125"><stop offset="0%" stop-color="rgb(252,238,221)"></stop><stop offset="50%" stop-color="rgb(248,210,183)"></stop><stop offset="100%" stop-color="rgb(243,183,144)"></stop></radialGradient><radialGradient id="__lottie_element_8" spreadMethod="pad" gradientUnits="userSpaceOnUse" cx="-63.604000091552734" cy="-169.9810028076172" r="327.4505137169432" fx="-63.604000091552734" fy="-169.9810028076172"><stop offset="0%" stop-color="rgb(251,236,221)" stop-opacity="0"></stop><stop offset="50%" stop-color="rgb(240,197,172)" stop-opacity="0.5"></stop><stop offset="100%" stop-color="rgb(230,158,122)" stop-opacity="1"></stop></radialGradient><radialGradient id="__lottie_element_30" spreadMethod="pad" gradientUnits="userSpaceOnUse" cx="242.43899536132812" cy="-182.98500061035156" r="136.77683076173085" fx="242.43899536132812" fy="-182.98500061035156"><stop offset="0%" stop-color="rgb(255,0,0)"></stop><stop offset="50%" stop-color="rgb(255,35,35)"></stop><stop offset="100%" stop-color="rgb(255,70,70)"></stop><stop offset="100%" stop-color="rgb(128,35,35)"></stop><stop offset="100%" stop-color="rgb(0,0,0)"></stop></radialGradient><mask id="__lottie_element_32"><path fill="url(#__lottie_element_31)" d=" M109.5469970703125,-50.11399841308594 C109.5469970703125,-50.11399841308594 162.20399475097656,-134.4759979248047 174.6750030517578,-148.625 C190.38900756835938,-166.45399475097656 214.72300720214844,-176.84800720214844 232.83799743652344,-156.96200561523438 C250.7209930419922,-137.33200073242188 242.94500732421875,-115.66100311279297 232.14599609375,-103.0530014038086 C224.41299438476562,-94.0250015258789 138.63999938964844,-7.303999900817871 132.50900268554688,-2.1519999504089355 C126.37799835205078,3 117.63099670410156,3.499000072479248 113.26300048828125,5.039000034332275 C108.8949966430664,6.578999996185303 92.0979995727539,25.214000701904297 85.80899810791016,26.091999053955078 C79.5199966430664,26.969999313354492 75.30699920654297,20.26099967956543 76.89600372314453,14.836999893188477 C79.14199829101562,7.171999931335449 86.83499908447266,3.1549999713897705 92.4489974975586,-4.5980000495910645 C95.10600280761719,-8.267000198364258 98.0989990234375,-12.022000312805176 96.1520004272461,-19.101999282836914 C92.74600219726562,-31.490999221801758 109.5469970703125,-50.11399841308594 109.5469970703125,-50.11399841308594z"></path></mask><radialGradient id="__lottie_element_31" spreadMethod="pad" gradientUnits="userSpaceOnUse" cx="242.43899536132812" cy="-182.98500061035156" r="136.77683076173085" fx="242.43899536132812" fy="-182.98500061035156"><stop stop-color="rgb(255,255,255)" offset="0%" stop-opacity="1"></stop><stop stop-color="rgb(255,255,255)" offset="50%" stop-opacity="0.5"></stop><stop stop-color="rgb(255,255,255)" offset="100%" stop-opacity="0"></stop></radialGradient><radialGradient id="__lottie_element_48" spreadMethod="pad" gradientUnits="userSpaceOnUse" cx="16.913999557495117" cy="-40.9109992980957" r="77.53370482004712" fx="16.913999557495117" fy="-40.9109992980957"><stop offset="0%" stop-color="rgb(251,0,67)" stop-opacity="1"></stop><stop offset="50%" stop-color="rgb(248,17,56)" stop-opacity="0.5"></stop><stop offset="100%" stop-color="rgb(245,34,44)" stop-opacity="0"></stop></radialGradient></defs><g clip-path="url(#__lottie_element_2)"><g style="display: block;" transform="matrix(1,0,0,1,256,256)" opacity="1"><g opacity="1" transform="matrix(1,0,0,1,0,0)"><path fill="url(#__lottie_element_7)" fill-opacity="1" d=" M-207.26600646972656,46.82400131225586 C-215.57200622558594,4.666999816894531 -218.9199981689453,-76.13999938964844 -152.54299926757812,-145.468994140625 C-73.95700073242188,-227.5500030517578 66.63700103759766,-220.35800170898438 132.36300659179688,-154.7790069580078 C198.08900451660156,-89.19999694824219 216,54.3380012512207 123.22899627685547,137.70199584960938 C56.40999984741211,197.7449951171875 -49.926998138427734,195.8040008544922 -115.0260009765625,164.0469970703125 C-180.125,132.2899932861328 -201.0780029296875,78.23300170898438 -207.26600646972656,46.82400131225586z"></path><path stroke-linecap="butt" stroke-linejoin="miter" fill-opacity="0" stroke-miterlimit="10" stroke="rgb(183,100,68)" stroke-opacity="1" stroke-width="14" d=" M-207.26600646972656,46.82400131225586 C-215.57200622558594,4.666999816894531 -218.9199981689453,-76.13999938964844 -152.54299926757812,-145.468994140625 C-73.95700073242188,-227.5500030517578 66.63700103759766,-220.35800170898438 132.36300659179688,-154.7790069580078 C198.08900451660156,-89.19999694824219 216,54.3380012512207 123.22899627685547,137.70199584960938 C56.40999984741211,197.7449951171875 -49.926998138427734,195.8040008544922 -115.0260009765625,164.0469970703125 C-180.125,132.2899932861328 -201.0780029296875,78.23300170898438 -207.26600646972656,46.82400131225586z"></path></g><g opacity="1" transform="matrix(1,0,0,1,0,0)"><path fill="url(#__lottie_element_8)" fill-opacity="1" d=" M-155.41299438476562,-98.82499694824219 C-155.41299438476562,-98.82499694824219 -232.22500610351562,21.100000381469727 -156.61900329589844,114.05000305175781 C-81.01300048828125,207 53.72800064086914,168.3699951171875 72.4469985961914,159.21400451660156 C96.7979965209961,147.30299377441406 117.84500122070312,130.7740020751953 128.13900756835938,116.65799713134766 C146.55299377441406,91.40499877929688 159.5500030517578,67.28399658203125 159.5500030517578,67.28399658203125 C159.5500030517578,67.28399658203125 64.36299896240234,182.1280059814453 -58.0989990234375,129.44000244140625 C-159.24000549316406,85.92500305175781 -155.41299438476562,-98.82499694824219 -155.41299438476562,-98.82499694824219z"></path></g></g><g style="display: block;" transform="matrix(0,0,0,0,400.93798828125,117.6510009765625)" opacity="1"><g opacity="1" transform="matrix(1,0,0,1,0,0)"><path fill="rgb(169,216,255)" fill-opacity="1" d=" M-433.6619873046875,-4.609000205993652 C-449.8039855957031,-7.308000087738037 -454.77099609375,14.272000312805176 -433.34698486328125,14.99899959564209 C-413.22198486328125,15.682000160217285 -417.0660095214844,-5.131999969482422 -432.7359924316406,-4.494999885559082"></path><path stroke-linecap="round" stroke-linejoin="round" fill-opacity="0" stroke="rgb(59,159,242)" stroke-opacity="1" stroke-width="12" d=" M-433.6619873046875,-4.609000205993652 C-449.8039855957031,-7.308000087738037 -454.77099609375,14.272000312805176 -433.34698486328125,14.99899959564209 C-413.22198486328125,15.682000160217285 -417.0660095214844,-5.131999969482422 -432.7359924316406,-4.494999885559082"></path></g></g><g style="display: block;" transform="matrix(0,0,0,0,97.93800354003906,154.6510009765625)" opacity="1"><g opacity="1" transform="matrix(1,0,0,1,0,0)"><path fill="rgb(169,216,255)" fill-opacity="1" d=" M-433.6619873046875,-4.609000205993652 C-449.8039855957031,-7.308000087738037 -454.77099609375,14.272000312805176 -433.34698486328125,14.99899959564209 C-413.22198486328125,15.682000160217285 -417.0660095214844,-5.131999969482422 -432.7359924316406,-4.494999885559082"></path><path stroke-linecap="round" stroke-linejoin="round" fill-opacity="0" stroke="rgb(59,159,242)" stroke-opacity="1" stroke-width="12" d=" M-433.6619873046875,-4.609000205993652 C-449.8039855957031,-7.308000087738037 -454.77099609375,14.272000312805176 -433.34698486328125,14.99899959564209 C-413.22198486328125,15.682000160217285 -417.0660095214844,-5.131999969482422 -432.7359924316406,-4.494999885559082"></path></g></g><g style="display: none;"><g><path></path><path stroke-linecap="round" stroke-linejoin="round" fill-opacity="0"></path></g></g><g style="display: none;"><g><path></path><path stroke-linecap="round" stroke-linejoin="round" fill-opacity="0"></path></g></g><g style="display: block;" transform="matrix(1.1875,0,0,1.1759799718856812,244.07130432128906,285.38604736328125)" opacity="1"><g opacity="0.5" transform="matrix(1.2508143186569214,-0.29897817969322205,0.20014719665050507,0.8373419642448425,-9.967000007629395,-17.260000228881836)"><path fill="url(#__lottie_element_48)" fill-opacity="1" d=" M47.07099914550781,-181.1510009765625 C12.595999717712402,-179.2310028076172 -77.26799774169922,-137.82899475097656 -100.87100219726562,-107.2229995727539 C-134.58900451660156,-63.500999450683594 -161,39.70899963378906 -101.85099792480469,137.06500244140625 C-50.249000549316406,222 158.38299560546875,181.91700744628906 179.17999267578125,56.41299819946289 C203,-87.33899688720703 116.1719970703125,-185 47.07099914550781,-181.1510009765625z"></path></g></g><g style="display: block;" transform="matrix(1,0,0,1,255.99961853027344,256.0003356933594)" opacity="1"><g opacity="1" transform="matrix(1,0,0,1,0,0)"><path fill="rgb(254,255,255)" fill-opacity="1" d=" M-129.83099365234375,-30.55699920654297 C-123.42400360107422,-33.94300079345703 -45.25,-65 -30.746999740600586,-61.89899826049805 C-19.707000732421875,-59.53900146484375 -15.003000259399414,-40.034000396728516 -22.05699920654297,-37.742000579833984 C-50.279998779296875,-28.570999145507812 -88.11100006103516,-14.234999656677246 -115.4469985961914,-3.191999912261963 C-133.25,4 -146.5,-21.75 -129.83099365234375,-30.55699920654297z"></path></g><g opacity="1" transform="matrix(1,0,0,1,0,0)"><path fill="rgb(254,255,255)" fill-opacity="1" d=" M54.612998962402344,-88.43299865722656 C69.72000122070312,-92.31999969482422 144.22000122070312,-98.57099914550781 153.76300048828125,-95.2770004272461 C165.5279998779297,-91.21600341796875 163.47000122070312,-69.06999969482422 154.63600158691406,-69.71299743652344 C144.01400756835938,-70.48600006103516 58.75400161743164,-60.18000030517578 54.39799880981445,-61.01300048828125 C39.720001220703125,-63.81999969482422 42.58399963378906,-85.33799743652344 54.612998962402344,-88.43299865722656z"></path></g><g opacity="1" transform="matrix(1,0,0,1,0,0)"><path stroke-linecap="round" stroke-linejoin="round" fill-opacity="0" stroke="rgb(209,127,86)" stroke-opacity="1" stroke-width="13" d=" M-18.10099983215332,-41.49100112915039 C-18.10099983215332,-41.49100112915039 -10.314000129699707,-20.106000900268555 -54.78200149536133,-0.17800000309944153"></path></g><g opacity="1" transform="matrix(1,0,0,1,0,0)"><path stroke-linecap="round" stroke-linejoin="round" fill-opacity="0" stroke="rgb(209,127,86)" stroke-opacity="1" stroke-width="13" d=" M47.986000061035156,-59.277000427246094 C47.986000061035156,-59.277000427246094 52.15599822998047,-39.70199966430664 95.0780029296875,-44.10100173950195"></path></g><g opacity="1" transform="matrix(1,0,0,1,0,0)"><g opacity="1" transform="matrix(1,0,0,1,0,0)"><g opacity="1" transform="matrix(1,0,0,1,0,0)"><path fill="rgb(0,0,0)" fill-opacity="1" d=" M-65,-53 C-84.75,-44.75 -91,-41.5 -84.25,-32 C-77.5,-22.5 -71,-20.25 -50.5,-26.25 C-30,-32.25 -27.75,-43 -30.5,-51 C-33.25,-59 -45.25,-61.25 -65,-53z"></path></g><g opacity="1" transform="matrix(1,0,0,1,0,0)"><g opacity="1" transform="matrix(1,0,0,1,0,0)"><path fill="rgb(255,255,255)" fill-opacity="1" d=" M-79.47100067138672,-34.09400177001953 C-78.73600006103516,-32.1150016784668 -84.4739990234375,-28.488000869750977 -88.69200134277344,-27 C-92.91000366210938,-25.511999130249023 -96.88600158691406,-25.926000595092773 -97.5719985961914,-27.923999786376953 C-98.25800323486328,-29.922000885009766 -95.39399719238281,-32.74599838256836 -91.1760025024414,-34.23400115966797 C-86.95800018310547,-35.72200012207031 -81.00499725341797,-38.22200012207031 -79.47100067138672,-34.09400177001953z"></path></g><g opacity="1" transform="matrix(1,0,0,1,0,0)"><path fill="rgb(255,255,255)" fill-opacity="1" d=" M-36.49800109863281,-48.65599822998047 C-35.98400115966797,-45.73500061035156 -38.41400146484375,-42.85900115966797 -41.92599868774414,-42.233001708984375 C-45.4379997253418,-41.606998443603516 -48.70000076293945,-43.46900177001953 -49.2140007019043,-46.38999938964844 C-49.72800064086914,-49.31100082397461 -47.29800033569336,-52.1870002746582 -43.7859992980957,-52.8129997253418 C-40.27399826049805,-53.43899917602539 -37.012001037597656,-51.57699966430664 -36.49800109863281,-48.65599822998047z"></path></g></g></g><g opacity="1" transform="matrix(1,0,0,1,0,0)"><g opacity="1" transform="matrix(1,0,0,1,175.83200073242188,-35.80799865722656)"><path fill="rgb(0,0,0)" fill-opacity="1" d=" M-70,-61 C-89.75,-52.75 -90.64299774169922,-44.57699966430664 -85.75,-34 C-82.83200073242188,-27.691999435424805 -73.64399719238281,-29.88800048828125 -54,-30.75 C-34.35599899291992,-31.61199951171875 -26.895000457763672,-32.15399932861328 -30.5,-51 C-32.832000732421875,-63.19200134277344 -50.25,-69.25 -70,-61z"></path></g><g opacity="1" transform="matrix(1,0,0,1,0,0)"><path fill="rgb(255,255,255)" fill-opacity="1" d=" M105.72200012207031,-80.13400268554688 C105.96099853515625,-77.51000213623047 101.3550033569336,-74.96499633789062 95.43399810791016,-74.4489974975586 C89.51300048828125,-73.93299865722656 84.51799774169922,-75.64199829101562 84.27899932861328,-78.26599884033203 C84.04000091552734,-80.88999938964844 88.64700317382812,-83.43499755859375 94.56800079345703,-83.95099639892578 C100.48899841308594,-84.46700286865234 105.48300170898438,-82.75800323486328 105.72200012207031,-80.13400268554688z"></path></g></g></g><g opacity="1" transform="matrix(1,0,0,1,0,0)"><path stroke-linecap="butt" stroke-linejoin="miter" fill-opacity="0" stroke-miterlimit="10" stroke="rgb(140,63,40)" stroke-opacity="1" stroke-width="13" d=" M-129.33099365234375,-30.05699920654297 C-109,-35.5 -42,-63.5 -30.746999740600586,-61.89899826049805 C-19.56999969482422,-60.308998107910156 -15.003000259399414,-40.034000396728516 -22.05699920654297,-37.742000579833984 C-50.279998779296875,-28.570999145507812 -88.11100006103516,-14.234999656677246 -115.4469985961914,-3.191999912261963 C-133.25,4 -147.54299926757812,-25.18199920654297 -129.33099365234375,-30.05699920654297z"></path></g><g opacity="1" transform="matrix(1,0,0,1,0,0)"><path stroke-linecap="butt" stroke-linejoin="miter" fill-opacity="0" stroke-miterlimit="10" stroke="rgb(140,63,40)" stroke-opacity="1" stroke-width="13" d=" M54.612998962402344,-88.43299865722656 C69.72000122070312,-92.31999969482422 144.22000122070312,-98.57099914550781 153.76300048828125,-95.2770004272461 C165.5279998779297,-91.21600341796875 163.47000122070312,-69.06999969482422 154.63600158691406,-69.71299743652344 C144.01400756835938,-70.48600006103516 58.75400161743164,-60.18000030517578 54.39799880981445,-61.01300048828125 C39.720001220703125,-63.81999969482422 42.58399963378906,-85.33799743652344 54.612998962402344,-88.43299865722656z"></path></g></g><g style="display: block;" transform="matrix(1,0,0,0.9715499877929688,256.00018310546875,254.1961669921875)" opacity="1"><g opacity="1" transform="matrix(1,0,0,1,0,0)"><path stroke-linecap="round" stroke-linejoin="round" fill-opacity="0" stroke="rgb(198,112,74)" stroke-opacity="1" stroke-width="13" d=" M14.47700023651123,-104.21199798583984 C14.47700023651123,-104.21199798583984 18.285999298095703,-92.85099792480469 32.76300048828125,-93.35700225830078 C41.45600128173828,-93.66100311279297 146.90699768066406,-100.5719985961914 150.73199462890625,-101.81900024414062"></path></g><g opacity="1" transform="matrix(1,0,0,1,0,0)"><path stroke-linecap="round" stroke-linejoin="round" fill-opacity="0" stroke="rgb(198,112,74)" stroke-opacity="1" stroke-width="13" d=" M-162.37399291992188,-35.891998291015625 C-162.37399291992188,-35.891998291015625 -154.5,-27.219999313354492 -142.22799682617188,-27.274999618530273 C-119.73899841308594,-27.375999450683594 -20.458999633789062,-73.72200012207031 -16.98900032043457,-75.8239974975586 C-8.781000137329102,-80.7969970703125 -13.314000129699707,-94.8280029296875 -13.314000129699707,-94.8280029296875"></path></g></g><g style="display: block;" transform="matrix(1,0,0,1,255.99974060058594,255.9999237060547)" opacity="1"><g opacity="1" transform="matrix(0.9999837875366211,0.005689742509275675,-0.005709258373826742,1.0034137964248657,0,0)"><path stroke-linecap="round" stroke-linejoin="round" fill-opacity="0" stroke="rgb(224,141,104)" stroke-opacity="1" stroke-width="12" d=" M-48.27899932861328,-124.46499633789062 C-27.25,-136.25 -18.75,-121.25 0.4830000102519989,-124.88700103759766 C15.284000396728516,-127.68599700927734 9.329999923706055,-147.72799682617188 36.415000915527344,-149.48899841308594"></path></g><g opacity="1" transform="matrix(0.9999837875366211,0.005689742509275675,-0.005709258373826742,1.0034137964248657,0,0)"><path stroke-linecap="round" stroke-linejoin="round" fill-opacity="0" stroke="rgb(224,141,104)" stroke-opacity="1" stroke-width="12" d=" M24.430999755859375,-168.42799377441406 C2,-169.5 0.847000002861023,-154.2689971923828 0.847000002861023,-154.2689971923828"></path></g><g opacity="1" transform="matrix(0.9999837875366211,0.005689742509275675,-0.005709258373826742,1.0034137964248657,0,0)"><path stroke-linecap="round" stroke-linejoin="round" fill-opacity="0" stroke="rgb(224,141,104)" stroke-opacity="1" stroke-width="11" d=" M-25.35700035095215,-146.73599243164062 C-25.35700035095215,-146.73599243164062 -52.50400161743164,-158.67599487304688 -63.75199890136719,-145.58799743652344"></path></g></g><g style="display: none;"><g><g><path></path><path stroke-linecap="round" stroke-linejoin="round" fill-opacity="0"></path></g><g><path></path></g><g><path stroke-linecap="round" stroke-linejoin="round" fill-opacity="0"></path></g><g><path></path></g></g></g><g style="display: block;" transform="matrix(1,0,0,1,247.99964904785156,248.0001983642578)" opacity="1"><g opacity="1" transform="matrix(1,0,0,1,0,0)"><g opacity="1" transform="matrix(1,0,0,1,0,0)"><path fill="rgb(207,248,255)" fill-opacity="1" d=" M109.5469970703125,-50.11399841308594 C109.5469970703125,-50.11399841308594 162.20399475097656,-134.4759979248047 174.6750030517578,-148.625 C190.38900756835938,-166.45399475097656 214.72300720214844,-176.84800720214844 232.83799743652344,-156.96200561523438 C250.7209930419922,-137.33200073242188 242.94500732421875,-115.66100311279297 232.14599609375,-103.0530014038086 C224.41299438476562,-94.0250015258789 138.63999938964844,-7.303999900817871 132.50900268554688,-2.1519999504089355 C126.37799835205078,3 117.63099670410156,3.499000072479248 113.26300048828125,5.039000034332275 C108.8949966430664,6.578999996185303 92.0979995727539,25.214000701904297 85.80899810791016,26.091999053955078 C79.5199966430664,26.969999313354492 75.30699920654297,20.26099967956543 76.89600372314453,14.836999893188477 C79.14199829101562,7.171999931335449 86.83499908447266,3.1549999713897705 92.4489974975586,-4.5980000495910645 C95.10600280761719,-8.267000198364258 98.0989990234375,-12.022000312805176 96.1520004272461,-19.101999282836914 C92.74600219726562,-31.490999221801758 109.5469970703125,-50.11399841308594 109.5469970703125,-50.11399841308594z"></path><path fill="url(#__lottie_element_30)" mask="url(#__lottie_element_32)" fill-opacity="0" d="M0 0 M109.5469970703125,-50.11399841308594 C109.5469970703125,-50.11399841308594 162.20399475097656,-134.4759979248047 174.6750030517578,-148.625 C190.38900756835938,-166.45399475097656 214.72300720214844,-176.84800720214844 232.83799743652344,-156.96200561523438 C250.7209930419922,-137.33200073242188 242.94500732421875,-115.66100311279297 232.14599609375,-103.0530014038086 C224.41299438476562,-94.0250015258789 138.63999938964844,-7.303999900817871 132.50900268554688,-2.1519999504089355 C126.37799835205078,3 117.63099670410156,3.499000072479248 113.26300048828125,5.039000034332275 C108.8949966430664,6.578999996185303 92.0979995727539,25.214000701904297 85.80899810791016,26.091999053955078 C79.5199966430664,26.969999313354492 75.30699920654297,20.26099967956543 76.89600372314453,14.836999893188477 C79.14199829101562,7.171999931335449 86.83499908447266,3.1549999713897705 92.4489974975586,-4.5980000495910645 C95.10600280761719,-8.267000198364258 98.0989990234375,-12.022000312805176 96.1520004272461,-19.101999282836914 C92.74600219726562,-31.490999221801758 109.5469970703125,-50.11399841308594 109.5469970703125,-50.11399841308594z"></path><path stroke-linecap="round" stroke-linejoin="round" fill-opacity="0" stroke="rgb(37,112,158)" stroke-opacity="1" stroke-width="12" d=" M109.5469970703125,-50.11399841308594 C109.5469970703125,-50.11399841308594 162.20399475097656,-134.4759979248047 174.6750030517578,-148.625 C190.38900756835938,-166.45399475097656 214.72300720214844,-176.84800720214844 232.83799743652344,-156.96200561523438 C250.7209930419922,-137.33200073242188 242.94500732421875,-115.66100311279297 232.14599609375,-103.0530014038086 C224.41299438476562,-94.0250015258789 138.63999938964844,-7.303999900817871 132.50900268554688,-2.1519999504089355 C126.37799835205078,3 117.63099670410156,3.499000072479248 113.26300048828125,5.039000034332275 C108.8949966430664,6.578999996185303 92.0979995727539,25.214000701904297 85.80899810791016,26.091999053955078 C79.5199966430664,26.969999313354492 75.30699920654297,20.26099967956543 76.89600372314453,14.836999893188477 C79.14199829101562,7.171999931335449 86.83499908447266,3.1549999713897705 92.4489974975586,-4.5980000495910645 C95.10600280761719,-8.267000198364258 98.0989990234375,-12.022000312805176 96.1520004272461,-19.101999282836914 C92.74600219726562,-31.490999221801758 109.5469970703125,-50.11399841308594 109.5469970703125,-50.11399841308594z"></path></g><g opacity="1" transform="matrix(1,0,0,1,0,0)"><path fill="rgb(106,155,196)" fill-opacity="1" d=" M82.01000213623047,18.368999481201172 C82.01000213623047,18.368999481201172 188.9320068359375,-124.06600189208984 188.9320068359375,-124.06600189208984 C188.9320068359375,-124.06600189208984 197.468994140625,-137.093994140625 208.22300720214844,-128.04100036621094 C217.06300354003906,-120.5989990234375 205.84100341796875,-108.13500213623047 205.84100341796875,-108.13500213623047 C205.84100341796875,-108.13500213623047 86.6969985961914,22.386999130249023 86.6969985961914,22.386999130249023 C85.65399932861328,23.31999969482422 84.1760025024414,24.104000091552734 82.61499786376953,22.804000854492188 C81.28500366210938,21.69700050354004 80.9739990234375,19.7450008392334 82.01000213623047,18.368999481201172z"></path></g><g opacity="1" transform="matrix(1,0,0,1,0,0)"><path stroke-linecap="round" stroke-linejoin="round" fill-opacity="0" stroke="rgb(255,255,255)" stroke-opacity="1" stroke-width="10" d=" M207.1840057373047,-145.67799377441406 C207.1840057373047,-145.67799377441406 195.3979949951172,-143.55499267578125 188.4550018310547,-136.15199279785156 C181.51199340820312,-128.74899291992188 166.0919952392578,-107.63800048828125 166.0919952392578,-107.63800048828125"></path></g><g opacity="1" transform="matrix(1,0,0,1,0,0)"><path fill="rgb(237,58,84)" fill-opacity="1" d=" M188.3209991455078,-106.21600341796875 C184.11599731445312,-109.35399627685547 178.31100463867188,-108.54399871826172 175.1510009765625,-104.37899780273438 C175.1510009765625,-104.37899780273438 82.01000213623047,18.368999481201172 82.01000213623047,18.368999481201172 C80.9739990234375,19.7450008392334 81.28500366210938,21.69700050354004 82.61499786376953,22.804000854492188 C84.1760025024414,24.104000091552734 85.65399932861328,23.31999969482422 86.6969985961914,22.386999130249023 C86.6969985961914,22.386999130249023 189.8179931640625,-91.31400299072266 189.8179931640625,-91.31400299072266 C193.7689971923828,-95.66999816894531 193.06500244140625,-102.6760025024414 188.3209991455078,-106.21600341796875 C188.3209991455078,-106.21600341796875 188.3209991455078,-106.21600341796875 188.3209991455078,-106.21600341796875z"></path></g></g></g><g style="display: none;"><g><path></path></g><g><g><path stroke-linecap="round" stroke-linejoin="round" fill-opacity="0"></path></g></g><g><path stroke-linecap="round" stroke-linejoin="round" fill-opacity="0"></path></g><g><path stroke-linecap="round" stroke-linejoin="round" fill-opacity="0"></path></g><g><path stroke-linecap="round" stroke-linejoin="round" fill-opacity="0"></path></g><g><path></path><path stroke-linecap="round" stroke-linejoin="round" fill-opacity="0"></path></g><g><path></path><path stroke-linecap="butt" stroke-linejoin="miter" fill-opacity="0" stroke-miterlimit="4"></path></g></g><g style="display: none;"><g><g><path></path><path stroke-linecap="round" stroke-linejoin="round" fill-opacity="0"></path></g><g><path></path></g><g><path stroke-linecap="round" stroke-linejoin="round" fill-opacity="0"></path></g><g><path></path></g></g></g><g style="display: none;"><g><g><path></path><path stroke-linecap="round" stroke-linejoin="round" fill-opacity="0"></path></g><g><path></path></g><g><path stroke-linecap="round" stroke-linejoin="round" fill-opacity="0"></path></g><g><path></path></g></g></g><g style="display: block;" transform="matrix(1,0,0,1,255.99964904785156,256.0002136230469)" opacity="1"><g opacity="1" transform="matrix(1,0,0,1,0.41499999165534973,0.4359999895095825)"><path fill="rgb(244,191,155)" fill-opacity="1" d=" M139.76600646972656,20.701000213623047 C109.58499908447266,-22.93600082397461 -45.77899932861328,23.624000549316406 -40.85599899291992,74.83399963378906 C-10.414999961853027,46.56399917602539 77.08499908447266,13.064000129699707 139.76600646972656,20.701000213623047z"></path></g><g opacity="1" transform="matrix(1,0,0,1,0,0)"><path stroke-linecap="round" stroke-linejoin="round" fill-opacity="0" stroke="rgb(140,63,40)" stroke-opacity="1" stroke-width="13" d=" M-38.540000915527344,75.30799865722656 C-53,56 7.988999843597412,20.61199951171875 47.11000061035156,11.430999755859375 C105.45099639892578,-2.259999990463257 141.97999572753906,7.118000030517578 139.24000549316406,20.55900001525879"></path></g><g opacity="1" transform="matrix(1,0,0,1,0,0)"><path stroke-linecap="round" stroke-linejoin="round" fill-opacity="0" stroke="rgb(209,127,86)" stroke-opacity="1" stroke-width="13" d=" M-67.69100189208984,61.28099822998047 C-67.69100189208984,61.28099822998047 -68.85199737548828,82.70600128173828 -39.42599868774414,94.85299682617188"></path></g><g opacity="1" transform="matrix(1,0,0,1,0,0)"><path stroke-linecap="round" stroke-linejoin="round" fill-opacity="0" stroke="rgb(209,127,86)" stroke-opacity="1" stroke-width="13" d=" M148.6959991455078,-6.958000183105469 C148.6959991455078,-6.958000183105469 170.97000122070312,9.15999984741211 159.73500061035156,34.58000183105469"></path></g><g opacity="1" transform="matrix(1,0,0,1,0,0)"><path stroke-linecap="round" stroke-linejoin="round" fill-opacity="0" stroke="rgb(209,127,86)" stroke-opacity="1" stroke-width="12" d=" M-47.78499984741211,120.93800354003906 C-62.5,124.5 -70.21600341796875,107.54100036621094 -70.21600341796875,107.54100036621094"></path></g></g><g style="display: block;" transform="matrix(1,0,0,1,255.99945068359375,256.00054931640625)" opacity="1"><g opacity="1" transform="matrix(1,0,0,1,0,0)"><path fill="rgb(183,229,83)" fill-opacity="1" d=" M9.687000274658203,-10.355999946594238 C9.687000274658203,-10.355999946594238 -19.60700035095215,41.04100036621094 -2.6410000324249268,55.58300018310547 C14.928000450134277,70.64199829101562 38.369998931884766,58.327999114990234 37.54100036621094,39.85599899291992 C36.53499984741211,17.45400047302246 9.687000274658203,-10.355999946594238 9.687000274658203,-10.355999946594238z"></path><path stroke-linecap="round" stroke-linejoin="round" fill-opacity="0" stroke="rgb(103,145,31)" stroke-opacity="1" stroke-width="13" d=" M9.687000274658203,-10.355999946594238 C9.687000274658203,-10.355999946594238 -19.60700035095215,41.04100036621094 -2.6410000324249268,55.58300018310547 C14.928000450134277,70.64199829101562 38.369998931884766,58.327999114990234 37.54100036621094,39.85599899291992 C36.53499984741211,17.45400047302246 9.687000274658203,-10.355999946594238 9.687000274658203,-10.355999946594238z"></path></g><g opacity="1" transform="matrix(1,0,0,1,0,0)"><path stroke-linecap="round" stroke-linejoin="round" fill-opacity="0" stroke="rgb(158,71,48)" stroke-opacity="1" stroke-width="11" d=" M16.788000106811523,-15.402000427246094 C0.25,-18.25 -2.8459999561309814,-11.904000282287598 -2.8459999561309814,-11.904000282287598"></path></g></g><g style="display: none;"><g><path></path><path stroke-linecap="round" stroke-linejoin="round" fill-opacity="0"></path></g><g><path stroke-linecap="round" stroke-linejoin="round" fill-opacity="0"></path></g></g></g></svg>