<svg xmlns="http://www.w3.org/2000/svg" xmlns:xlink="http://www.w3.org/1999/xlink" viewBox="0 0 512 512" width="512" height="512" style="width: 100%; height: 100%; transform: translate3d(0,0,0); content-visibility: visible;" preserveAspectRatio="xMidYMid meet"><defs><clipPath id="__lottie_element_2"><rect width="512" height="512" x="0" y="0"></rect></clipPath><radialGradient id="__lottie_element_9" spreadMethod="pad" gradientUnits="userSpaceOnUse" cx="107.40699768066406" cy="-123.927001953125" r="313.64048349865396" fx="107.40699768066406" fy="-123.927001953125"><stop offset="0%" stop-color="rgb(255,194,158)"></stop><stop offset="49%" stop-color="rgb(250,170,131)"></stop><stop offset="99%" stop-color="rgb(245,146,103)"></stop></radialGradient><radialGradient id="__lottie_element_10" spreadMethod="pad" gradientUnits="userSpaceOnUse" cx="107.21099853515625" cy="-104.56900024414062" r="369.71192806988654" fx="107.21099853515625" fy="-104.56900024414062"><stop offset="0%" stop-color="rgb(249,223,201)"></stop><stop offset="48%" stop-color="rgb(249,202,171)"></stop><stop offset="100%" stop-color="rgb(250,181,140)"></stop></radialGradient></defs><g clip-path="url(#__lottie_element_2)"><g style="display: none;"><g><path></path><path stroke-linecap="round" stroke-linejoin="round" fill-opacity="0"></path></g></g><g style="display: none;"><g><path></path><path stroke-linecap="round" stroke-linejoin="round" fill-opacity="0"></path></g></g><g style="display: none;"><g><path></path><path stroke-linecap="round" stroke-linejoin="round" fill-opacity="0"></path></g><g><path></path></g><g><path></path><path stroke-linecap="round" stroke-linejoin="round" fill-opacity="0"></path></g><g><path></path></g></g><g style="display: block;" transform="matrix(1.0299999713897705,0,0,1.0299999713897705,-29.86941909790039,3.7386012077331543)" opacity="1"><g opacity="1" transform="matrix(1,0,0,1,208.8509979248047,212.5330047607422)"><path fill="url(#__lottie_element_9)" fill-opacity="1" d=" M-162.10899353027344,-31.32699966430664 C-170.8560028076172,18.621000289916992 -160.76800537109375,115.76100158691406 -47.540000915527344,139.63099670410156 C118.0469970703125,174.53799438476562 170.8560028076172,65.33999633789062 161.90499877929688,-21.481000900268555 C152.95399475097656,-108.3030014038086 116.25700378417969,-174.53799438476562 -8.157999992370605,-168.27200317382812 C-116.26399993896484,-162.8280029296875 -153.3350067138672,-81.427001953125 -162.10899353027344,-31.32699966430664z"></path><path stroke-linecap="butt" stroke-linejoin="miter" fill-opacity="0" stroke-miterlimit="10" stroke="rgb(183,99,57)" stroke-opacity="1" stroke-width="12" d=" M-162.10899353027344,-31.32699966430664 C-170.8560028076172,18.621000289916992 -160.76800537109375,115.76100158691406 -47.540000915527344,139.63099670410156 C118.0469970703125,174.53799438476562 170.8560028076172,65.33999633789062 161.90499877929688,-21.481000900268555 C152.95399475097656,-108.3030014038086 116.25700378417969,-174.53799438476562 -8.157999992370605,-168.27200317382812 C-116.26399993896484,-162.8280029296875 -153.3350067138672,-81.427001953125 -162.10899353027344,-31.32699966430664z"></path></g><g opacity="1" transform="matrix(1,0,0,1,210.2449951171875,216.70799255371094)"><path fill="url(#__lottie_element_10)" fill-opacity="1" d=" M-138.4550018310547,-36.24399948120117 C-146.13600158691406,7.61299991607666 -137.2779998779297,92.90599822998047 -37.858001708984375,113.86499786376953 C107.53500366210938,144.51499938964844 153.9029998779297,48.63399887084961 146.04400634765625,-27.599000930786133 C138.18499755859375,-103.83200073242188 105.96299743652344,-161.99000549316406 -3.2780001163482666,-156.48800659179688 C-98.20099639892578,-151.70799255371094 -130.75100708007812,-80.23400115966797 -138.4550018310547,-36.24399948120117z"></path></g></g><g style="display: block;" transform="matrix(1,0,0,1,295.8659973144531,309.05499267578125)" opacity="1"><g opacity="1" transform="matrix(1,0,0,1,90.9469985961914,66.03800201416016)"><path fill="rgb(255,188,128)" fill-opacity="1" d=" M-52.494998931884766,29.992000579833984 C-56.20899963378906,23.089000701904297 -54.80500030517578,17.700000762939453 -54.80500030517578,10.414999961853027 C-54.80500030517578,3.875999927520752 -54.84000015258789,-5.202000141143799 -54.15999984741211,-12.37399959564209 C-52.8129997253418,-26.593000411987305 -42.8129997253418,-38.59299850463867 -27.575000762939453,-40.444000244140625 C-19.236000061035156,-41.457000732421875 7.583000183105469,-34.53799819946289 16.011999130249023,-33.35200119018555 C25.69499969482422,-31.989999771118164 32.874000549316406,-30.854999542236328 32.874000549316406,-30.854999542236328 C32.874000549316406,-30.854999542236328 52.1870002746582,-28.093000411987305 53.125,-20.636999130249023 C53.847999572753906,-14.888999938964844 52.888999938964844,-7.46999979019165 46.43299865722656,-3.6559998989105225 C41.638999938964844,-0.8240000009536743 16.09600067138672,0.9629999995231628 -2.430999994277954,2.7869999408721924 C-13.812999725341797,3.9070000648498535 -17.187999725341797,5.98799991607666 -20.979999542236328,8.423999786376953 C-32.36899948120117,15.741000175476074 -29.812999725341797,31.406999588012695 -36.564998626708984,33.715999603271484 C-40.821998596191406,35.17100143432617 -49.3129997253418,35.90700149536133 -52.494998931884766,29.992000579833984z"></path><path stroke-linecap="round" stroke-linejoin="round" fill-opacity="0" stroke="rgb(183,99,57)" stroke-opacity="1" stroke-width="13" d=" M-52.494998931884766,29.992000579833984 C-56.20899963378906,23.089000701904297 -54.80500030517578,17.700000762939453 -54.80500030517578,10.414999961853027 C-54.80500030517578,3.875999927520752 -54.84000015258789,-5.202000141143799 -54.15999984741211,-12.37399959564209 C-52.8129997253418,-26.593000411987305 -42.8129997253418,-38.59299850463867 -27.575000762939453,-40.444000244140625 C-19.236000061035156,-41.457000732421875 7.583000183105469,-34.53799819946289 16.011999130249023,-33.35200119018555 C25.69499969482422,-31.989999771118164 32.874000549316406,-30.854999542236328 32.874000549316406,-30.854999542236328 C32.874000549316406,-30.854999542236328 52.1870002746582,-28.093000411987305 53.125,-20.636999130249023 C53.847999572753906,-14.888999938964844 52.888999938964844,-7.46999979019165 46.43299865722656,-3.6559998989105225 C41.638999938964844,-0.8240000009536743 16.09600067138672,0.9629999995231628 -2.430999994277954,2.7869999408721924 C-13.812999725341797,3.9070000648498535 -17.187999725341797,5.98799991607666 -20.979999542236328,8.423999786376953 C-32.36899948120117,15.741000175476074 -29.812999725341797,31.406999588012695 -36.564998626708984,33.715999603271484 C-40.821998596191406,35.17100143432617 -49.3129997253418,35.90700149536133 -52.494998931884766,29.992000579833984z"></path></g><g opacity="1" transform="matrix(1,0,0,1,93.51200103759766,74.4010009765625)"><path fill="rgb(216,137,78)" fill-opacity="1" d=" M-41.09299850463867,18.26799964904785 C-43.12799835205078,14.795000076293945 -40.88600158691406,0.6940000057220459 -37.97999954223633,-4.0279998779296875 C-35.07400131225586,-8.75 -30.71500015258789,-12.746000289916992 -26.356000900268555,-14.199000358581543 C-21.996999740600586,-15.652000427246094 7.310999870300293,-20.010000228881836 16.507999420166016,-20.010000228881836 C29.584999084472656,-20.010000228881836 41.20899963378906,-19.28499984741211 39.393001556396484,-16.742000579833984 C36.814998626708984,-13.133999824523926 19.121999740600586,-10.956000328063965 4.836999893188477,-11.11400032043457 C-9.62399959564209,-11.27400016784668 -22.638999938964844,-9.22700023651123 -29.266000747680664,-2.5829999446868896 C-35.37799835205078,3.5450000762939453 -39.534000396728516,20.929000854492188 -41.09299850463867,18.26799964904785z"></path></g><g opacity="1" transform="matrix(1,0,0,1,2,0)"><g opacity="1" transform="matrix(1,0,0,1,119.61499786376953,44.76900100708008)"><path stroke-linecap="round" stroke-linejoin="round" fill-opacity="0" stroke="rgb(183,99,57)" stroke-opacity="1" stroke-width="10" d=" M-3.4149999618530273,-8.145999908447266 C0.27000001072883606,-7.573999881744385 5.591000080108643,-2.8259999752044678 6.164999961853027,3.630000114440918 C6.769999980926514,10.427000045776367 2.2799999713897705,12.895999908447266 2.2799999713897705,12.895999908447266"></path></g><g opacity="1" transform="matrix(1,0,0,1,95.71700286865234,46.0359992980957)"><path stroke-linecap="round" stroke-linejoin="round" fill-opacity="0" stroke="rgb(183,99,57)" stroke-opacity="1" stroke-width="10" d=" M-2.359999895095825,-10.307999610900879 C-2.359999895095825,-10.307999610900879 9.418000221252441,-7.591000080108643 9.315999984741211,0.7720000147819519 C9.197999954223633,10.470999717712402 6.044000148773193,12.807999610900879 6.044000148773193,12.807999610900879"></path></g><g opacity="1" transform="matrix(1,0,0,1,72.69000244140625,48.29199981689453)"><path stroke-linecap="round" stroke-linejoin="round" fill-opacity="0" stroke="rgb(183,99,57)" stroke-opacity="1" stroke-width="10" d=" M-2.2839999198913574,-9.458999633789062 C-2.2839999198913574,-9.458999633789062 8.050000190734863,-7.166999816894531 9.956999778747559,0.017000000923871994 C13.444000244140625,13.154000282287598 2.640000104904175,18.958999633789062 2.640000104904175,18.958999633789062"></path></g></g></g><g style="display: block;" transform="matrix(1,0,0,1,174.4199981689453,379.75299072265625)" opacity="1"><g opacity="1" transform="matrix(1,0,0,1,107.67400360107422,61.96699905395508)"><path fill="rgb(246,163,111)" fill-opacity="1" d=" M-38.3849983215332,18.888999938964844 C-38.3849983215332,18.888999938964844 -7.872000217437744,13.803000450134277 4.114999771118164,9.807999610900879 C16.10300064086914,5.811999797821045 38.38399887084961,-5.2779998779296875 37.17100143432617,-7.627999782562256 C31.358999252319336,-18.888999938964844 -10.413999557495117,-3.2690000534057617 -15.49899959564209,-0.7269999980926514 C-20.584999084472656,1.815999984741211 -38.3849983215332,18.888999938964844 -38.3849983215332,18.888999938964844z"></path><path stroke-linecap="round" stroke-linejoin="round" fill-opacity="0" stroke="rgb(183,99,57)" stroke-opacity="1" stroke-width="11" d=" M-38.3849983215332,18.888999938964844 C-38.3849983215332,18.888999938964844 -7.872000217437744,13.803000450134277 4.114999771118164,9.807999610900879 C16.10300064086914,5.811999797821045 38.38399887084961,-5.2779998779296875 37.17100143432617,-7.627999782562256 C31.358999252319336,-18.888999938964844 -10.413999557495117,-3.2690000534057617 -15.49899959564209,-0.7269999980926514 C-20.584999084472656,1.815999984741211 -38.3849983215332,18.888999938964844 -38.3849983215332,18.888999938964844z"></path></g><g opacity="1" transform="matrix(1,0,0,1,106.65299987792969,63.85200119018555)"><path fill="rgb(255,196,144)" fill-opacity="1" d=" M-67.35700225830078,1.8329999446868896 C-67.35700225830078,1.8329999446868896 -68.3740005493164,-21.48200035095215 -51.483001708984375,-28.020000457763672 C-40.11000061035156,-32.42300033569336 -12.095000267028809,-30.915000915527344 -1.184000015258789,-30.915000915527344 C11.892999649047852,-30.915000915527344 28.784000396728516,-27.371999740600586 42.06700134277344,-22.815000534057617 C49.46200180053711,-20.24799919128418 59.19900131225586,-14.302000045776367 59.19900131225586,-14.302000045776367 C59.19900131225586,-14.302000045776367 70.2249984741211,-11.47700023651123 68.9540023803711,2.055000066757202 C68.49199676513672,6.9670000076293945 57.14699935913086,10.154999732971191 40.25600051879883,9.609999656677246 C31.7189998626709,9.333999633789062 15.11299991607666,10.015999794006348 -1.1469999551773071,13.732999801635742 C-17.408000946044922,17.450000762939453 -42.667999267578125,21.708999633789062 -49.637001037597656,21.708999633789062 C-56.60599899291992,21.708999633789062 -63.880001068115234,17.746999740600586 -65.4749984741211,14.982999801635742 C-68.38200378417969,10.572999954223633 -67.35700225830078,1.8329999446868896 -67.35700225830078,1.8329999446868896z"></path><path stroke-linecap="round" stroke-linejoin="round" fill-opacity="0" stroke="rgb(183,99,57)" stroke-opacity="1" stroke-width="13" d=" M-67.35700225830078,1.8329999446868896 C-67.35700225830078,1.8329999446868896 -68.3740005493164,-21.48200035095215 -51.483001708984375,-28.020000457763672 C-40.11000061035156,-32.42300033569336 -12.095000267028809,-30.915000915527344 -1.184000015258789,-30.915000915527344 C11.892999649047852,-30.915000915527344 28.784000396728516,-27.371999740600586 42.06700134277344,-22.815000534057617 C49.46200180053711,-20.24799919128418 59.19900131225586,-14.302000045776367 59.19900131225586,-14.302000045776367 C59.19900131225586,-14.302000045776367 70.2249984741211,-11.47700023651123 68.9540023803711,2.055000066757202 C68.49199676513672,6.9670000076293945 57.14699935913086,10.154999732971191 40.25600051879883,9.609999656677246 C31.7189998626709,9.333999633789062 15.11299991607666,10.015999794006348 -1.1469999551773071,13.732999801635742 C-17.408000946044922,17.450000762939453 -42.667999267578125,21.708999633789062 -49.637001037597656,21.708999633789062 C-56.60599899291992,21.708999633789062 -63.880001068115234,17.746999740600586 -65.4749984741211,14.982999801635742 C-68.38200378417969,10.572999954223633 -67.35700225830078,1.8329999446868896 -67.35700225830078,1.8329999446868896z"></path></g><g opacity="1" transform="matrix(1,0,0,1,80.36799621582031,63.96500015258789)"><path fill="rgb(229,145,87)" fill-opacity="1" d=" M69.62200164794922,-14.34000015258789 C69.62200164794922,-14.34000015258789 29.87299919128418,-14.069999694824219 19.32699966430664,-12.28499984741211 C11.694999694824219,-10.458999633789062 1.7059999704360962,-7.390999794006348 -0.08900000154972076,-0.9340000152587891 C-1.3229999542236328,4.9770002365112305 4.993000030517578,11.751999855041504 4.993000030517578,11.751999855041504 C4.993000030517578,11.751999855041504 -1.7339999675750732,15.425999641418457 -8.741000175476074,17.01099967956543 C-14.911999702453613,18.535999298095703 -21.246000289916992,19.003000259399414 -24.152000427246094,18.638999938964844 C-27.058000564575195,18.275999069213867 -34.50299835205078,16.215999603271484 -35.229000091552734,13.67300033569336 C-35.95600128173828,11.130000114440918 -34.86899948120117,5.322000026702881 -34.86899948120117,3.1429998874664307 C-34.86899948120117,0.9629999995231628 -33.71200180053711,-20.336999893188477 -19.979999542236328,-23.006999969482422 C21.94300079345703,-29.753000259399414 71.1969985961914,-14.734000205993652 69.62200164794922,-14.34000015258789z"></path></g><g opacity="1" transform="matrix(1,0,0,1,132.197998046875,51.15999984741211)"><path stroke-linecap="round" stroke-linejoin="round" fill-opacity="0" stroke="rgb(183,99,57)" stroke-opacity="1" stroke-width="9" d=" M-22.270999908447266,-2.992000102996826 C-22.270999908447266,-2.992000102996826 -7.156000137329102,3.240000009536743 -5.047999858856201,9.64900016784668 C-3.5920000076293945,13.996999740600586 -4.6529998779296875,19.777000427246094 -4.6529998779296875,19.777000427246094"></path></g><g opacity="1" transform="matrix(1,0,0,1,104.45099639892578,56.24599838256836)"><path stroke-linecap="round" stroke-linejoin="round" fill-opacity="0" stroke="rgb(183,99,57)" stroke-opacity="1" stroke-width="9" d=" M-20.197999954223633,-4.638000011444092 C-20.197999954223633,-4.638000011444092 -7.888000011444092,0.753000020980835 -3.3469998836517334,5.8379998207092285 C-0.22599999606609344,9.335000038146973 -1.6779999732971191,16.753000259399414 -1.6779999732971191,16.753000259399414"></path></g><g opacity="1" transform="matrix(1,0,0,1,159.9199981689453,48.16400146484375)"><path stroke-linecap="round" stroke-linejoin="round" fill-opacity="0" stroke="rgb(183,99,57)" stroke-opacity="1" stroke-width="9" d=" M-20.927000045776367,-1.9019999504089355 C-20.927000045776367,-1.9019999504089355 -8.243000030517578,5.197999954223633 -6.942999839782715,10.744999885559082 C-6.942999839782715,10.744999885559082 -6.241000175476074,19.402000427246094 -6.241000175476074,19.402000427246094"></path></g><g opacity="0" transform="matrix(1,0,0,1,0,0)"><path fill="rgb(90,140,58)" fill-opacity="1" d=" M66.58000183105469,32.74700164794922 C66.58000183105469,32.74700164794922 78.60099792480469,35.3390007019043 84.08000183105469,36.74700164794922 C96.48699951171875,39.933998107910156 102.58000183105469,41.49700164794922 106.58000183105469,41.49700164794922 C108.51499938964844,41.49700164794922 115.97100067138672,41.354000091552734 129.25,40.68899917602539 C143.4149932861328,39.97999954223633 160.98300170898438,42.24700164794922 164.0800018310547,42.24700164794922 C166.08799743652344,42.24700164794922 168.13400268554688,38.07699966430664 162.78599548339844,36.516998291015625 C152.15499877929688,33.41699981689453 127.3030014038086,29.780000686645508 123.83000183105469,29.746999740600586 C117.23699951171875,29.68400001525879 109.48699951171875,27.18400001525879 94.08000183105469,27.246999740600586 C87.73100280761719,27.273000717163086 68.73699951171875,26.684999465942383 66.9520034790039,27.586000442504883 C65.00399780273438,28.569000244140625 66.58000183105469,32.74700164794922 66.58000183105469,32.74700164794922z"></path><path stroke-linecap="round" stroke-linejoin="round" fill-opacity="0" stroke="rgb(56,132,67)" stroke-opacity="1" stroke-width="7" d=" M66.58000183105469,32.74700164794922 C66.58000183105469,32.74700164794922 78.60099792480469,35.3390007019043 84.08000183105469,36.74700164794922 C96.48699951171875,39.933998107910156 102.58000183105469,41.49700164794922 106.58000183105469,41.49700164794922 C108.51499938964844,41.49700164794922 115.97100067138672,41.354000091552734 129.25,40.68899917602539 C143.4149932861328,39.97999954223633 160.98300170898438,42.24700164794922 164.0800018310547,42.24700164794922 C166.08799743652344,42.24700164794922 168.13400268554688,38.07699966430664 162.78599548339844,36.516998291015625 C152.15499877929688,33.41699981689453 127.3030014038086,29.780000686645508 123.83000183105469,29.746999740600586 C117.23699951171875,29.68400001525879 109.48699951171875,27.18400001525879 94.08000183105469,27.246999740600586 C87.73100280761719,27.273000717163086 68.73699951171875,26.684999465942383 66.9520034790039,27.586000442504883 C65.00399780273438,28.569000244140625 66.58000183105469,32.74700164794922 66.58000183105469,32.74700164794922z"></path></g></g><g style="display: block;" transform="matrix(1.0299999713897705,0,0,1.0299999713897705,42.38095474243164,56.50860595703125)" opacity="1"><g opacity="1" transform="matrix(1,0,0,1,240.76400756835938,93.9469985961914)"><path stroke-linecap="round" stroke-linejoin="round" fill-opacity="0" stroke="rgb(229,147,101)" stroke-opacity="0.71" stroke-width="14.555" d=" M-28.36400032043457,-20.80500030517578 C-28.36400032043457,-20.80500030517578 -36.33599853515625,9.289999961853027 -30.57900047302246,15.04800033569336 C-24.820999145507812,20.80500030517578 9.527000427246094,7.72599983215332 36.33599853515625,12.288999557495117"></path></g><g opacity="1" transform="matrix(1,0,0,1,0,0)"><g opacity="1" transform="matrix(1,0,0,1,113.76799774169922,70.5989990234375)"><path stroke-linecap="round" stroke-linejoin="round" fill-opacity="0" stroke="rgb(229,147,101)" stroke-opacity="0.79" stroke-width="14.555" d=" M-77.38099670410156,4.263999938964844 C-77.38099670410156,4.263999938964844 -60.37099838256836,-12.538000106811523 -25.381999969482422,-12.980999946594238 C9.607999801635742,-13.423999786376953 25.226999282836914,3.24399995803833 43.268001556396484,12.263999938964844 C60.98500061035156,21.121999740600586 77.38099670410156,21.40399932861328 72.06600189208984,-0.2980000078678131 C70.5989990234375,-6.289999961853027 65.22100067138672,-21.40399932861328 65.22100067138672,-21.40399932861328"></path></g><g opacity="1" transform="matrix(1,0,0,1,126.25499725341797,34.3650016784668)"><path stroke-linecap="round" stroke-linejoin="round" fill-opacity="0" stroke="rgb(229,147,101)" stroke-opacity="0.72" stroke-width="11" d=" M-21.923999786376953,-5.979000091552734 C-21.923999786376953,-5.979000091552734 -2.878999948501587,-6.864999771118164 7.308000087738037,-1.9930000305175781 C17.493999481201172,2.878999948501587 21.923999786376953,6.864999771118164 21.923999786376953,6.864999771118164"></path></g><g opacity="1" transform="matrix(1,0,0,1,107.79299926757812,65.802001953125)"><path fill="rgb(81,21,21)" fill-opacity="1" d=" M-79.2300033569336,7.363999843597412 C-80.53399658203125,3.796999931335449 -74.42400360107422,-2.0820000171661377 -69.41100311279297,-4.7210001945495605 C-62.236000061035156,-8.496999740600586 -35.04499816894531,-23.225000381469727 -4.455999851226807,-19.826000213623047 C26.132999420166016,-16.42799949645996 58.77000045776367,3.1570000648498535 63.143001556396484,1.6990000009536743 C71.0739974975586,-0.9440000057220459 79.00299835205078,0.5659999847412109 80.13600158691406,11.517999649047852 C80.53299713134766,15.350000381469727 77.49299621582031,21.525999069213867 69.27899932861328,22.375 C61.064998626708984,23.225000381469727 27.832000732421875,-4.625999927520752 -8.98799991607666,-6.609000205993652 C-45.80799865722656,-8.592000007629395 -56.57099914550781,-0.1889999955892563 -67.9010009765625,6.986000061035156 C-73.36799621582031,10.449000358581543 -77.73699951171875,11.446999549865723 -79.2300033569336,7.363999843597412z"></path></g></g><g opacity="1" transform="matrix(1,0,0,1,261.02398681640625,100.66999816894531)"><path fill="rgb(81,21,21)" fill-opacity="1" d=" M-55.9109992980957,5.066999912261963 C-55.9109992980957,5.066999912261963 -58.233001708984375,-8.642000198364258 -52.15700149536133,-9.934000015258789 C-40.409000396728516,-12.430999755859375 -43.23400115966797,-4.257999897003174 -29.28700065612793,-7.111000061035156 C-24.3700008392334,-8.116999626159668 -3.2279999256134033,-8.810999870300293 17.447999954223633,-8.810999870300293 C38.124000549316406,-8.810999870300293 53.70100021362305,-3.23799991607666 55.965999603271484,1.0110000371932983 C58.231998443603516,5.258999824523926 52.00199890136719,7.333000183105469 42.0890007019043,5.632999897003174 C32.86000061035156,4.051000118255615 27.738000869750977,3.4119999408721924 9.232999801635742,4.2179999351501465 C-12.645000457763672,5.171000003814697 -46.847999572753906,12.432000160217285 -51.09600067138672,10.449000358581543 C-55.345001220703125,8.467000007629395 -55.9109992980957,5.066999912261963 -55.9109992980957,5.066999912261963z"></path></g></g><g style="display: block;" transform="matrix(1.0299999713897705,0,0,1.0299999713897705,69.62034606933594,247.32228088378906)" opacity="1"><g opacity="1" transform="matrix(1,0,0,1,0,0)"><g opacity="1" transform="matrix(1,0,0,1,99.06199645996094,61.6510009765625)"><path fill="rgb(234,146,96)" fill-opacity="1" d=" M-61.000999450683594,-15.098999977111816 C-65.63999938964844,-22.22599983215332 -61.63999938964844,-31.22599983215332 -50.672000885009766,-27.84600067138672 C-37.65299987792969,-23.833999633789062 -14.177000045776367,-12.322999954223633 9.383000373840332,-8.52299976348877 C25.615999221801758,-5.90500020980835 52.034000396728516,-4.440000057220459 62.80799865722656,-3.193000078201294 C69.4219970703125,-2.427000045776367 65.81500244140625,9.14799976348877 59.50600051879883,11.27299976348877 C47.308998107910156,15.380999565124512 20.201000213623047,14.267000198364258 -4.211999893188477,9.27299976348877 C-35.15999984741211,2.943000078201294 -54.606998443603516,-5.276000022888184 -61.000999450683594,-15.098999977111816z"></path></g><g opacity="1" transform="matrix(1,0,0,1,97.73699951171875,60.81800079345703)"><path stroke-linecap="round" stroke-linejoin="round" fill-opacity="0" stroke="rgb(142,59,23)" stroke-opacity="1" stroke-width="9" d=" M48.64099884033203,11.76099967956543 C48.64099884033203,11.76099967956543 19.56599998474121,13.065999984741211 -5.236000061035156,6.421999931335449 C-30.038999557495117,-0.22200000286102295 -48.64099884033203,-13.065999984741211 -48.64099884033203,-13.065999984741211"></path></g><g opacity="1" transform="matrix(1,0,0,1,0,0)"><path fill="rgb(227,233,248)" fill-opacity="1" d=" M47.922000885009766,40.92499923706055 C43.13199996948242,39.88399887084961 38.922000885009766,39.92499923706055 42.922000885009766,54.92499923706055 C44.310001373291016,60.12799835205078 58.42599868774414,90.85600280761719 94.4219970703125,92.92500305175781 C137.9219970703125,95.42500305175781 161.7689971923828,68.8489990234375 157.9219970703125,66.92500305175781 C154.9219970703125,65.42500305175781 144.78500366210938,70.2750015258789 107.4219970703125,62.92499923706055 C76.9219970703125,56.92499923706055 59.422000885009766,43.42499923706055 47.922000885009766,40.92499923706055z"></path><path stroke-linecap="butt" stroke-linejoin="miter" fill-opacity="0" stroke-miterlimit="4" stroke="rgb(142,59,23)" stroke-opacity="1" stroke-width="10" d=" M47.922000885009766,40.92499923706055 C43.13199996948242,39.88399887084961 38.922000885009766,39.92499923706055 42.922000885009766,54.92499923706055 C44.310001373291016,60.12799835205078 58.42599868774414,90.85600280761719 94.4219970703125,92.92500305175781 C137.9219970703125,95.42500305175781 161.7689971923828,68.8489990234375 157.9219970703125,66.92500305175781 C154.9219970703125,65.42500305175781 144.78500366210938,70.2750015258789 107.4219970703125,62.92499923706055 C76.9219970703125,56.92499923706055 59.422000885009766,43.42499923706055 47.922000885009766,40.92499923706055z"></path></g><g opacity="1" transform="matrix(1,0,0,1,0,0)"><path fill="rgb(255,255,255)" fill-opacity="1" d=" M63.12900161743164,57.525001525878906 C58.569000244140625,55.72700119018555 52.21500015258789,57.64899826049805 56.74700164794922,63.6619987487793 C59.987998962402344,67.96199798583984 78.39299774169922,84.4219970703125 100.41300201416016,85.06199645996094 C134.24099731445312,86.04499816894531 142.4149932861328,77.14900207519531 138.5679931640625,75.2249984741211 C135.5679931640625,73.7249984741211 143.1009979248047,77.71299743652344 105.5790023803711,71.2249984741211 C87.697998046875,68.13300323486328 73.41200256347656,61.58000183105469 63.12900161743164,57.525001525878906z"></path></g></g><g opacity="1" transform="matrix(1.0465099811553955,0,0,1.0703099966049194,-9.650657653808594,-11.044994354248047)"><g opacity="1" transform="matrix(1,0,0,1,37.44200134277344,37.7140007019043)"><path fill="rgb(246,163,111)" fill-opacity="1" d=" M26.187000274658203,-11.53600025177002 C26.187000274658203,-11.53600025177002 4.922999858856201,-26.229999542236328 -14.97700023651123,-16.06800079345703 C-21.632999420166016,-12.668999671936035 -26.187000274658203,-2.7960000038146973 -24.417999267578125,5.080999851226807 C-20.263999938964844,23.586000442504883 -7.423999786376953,26.229999542236328 -7.423999786376953,26.229999542236328 C-7.423999786376953,26.229999542236328 -13.843999862670898,-1.340000033378601 -3.6480000019073486,-7.760000228881836 C6.547999858856201,-14.180000305175781 26.187000274658203,-11.53600025177002 26.187000274658203,-11.53600025177002z"></path></g><g opacity="1" transform="matrix(1,0,0,1,42.222999572753906,41.77299880981445)"><path stroke-linecap="round" stroke-linejoin="round" fill-opacity="0" stroke="rgb(183,99,57)" stroke-opacity="1" stroke-width="9.357" d=" M18.83099937438965,-10.409000396728516 C18.83099937438965,-10.409000396728516 2.444000005722046,-18.3799991607666 -8.628999710083008,-12.180000305175781 C-18.83099937438965,-6.466000080108643 -16.60099983215332,2.878999948501587 -15.715999603271484,7.750999927520752 C-14.92300033569336,12.109000205993652 -10.843999862670898,18.381000518798828 -10.843999862670898,18.381000518798828"></path></g></g></g><g style="display: block;" transform="matrix(1.0299999713897705,0,0,1.0299999713897705,0.0788792073726654,166.6423797607422)" opacity="1"><g opacity="1" transform="matrix(1,0,0,1,63.49599838256836,33.21900177001953)"><path stroke-linecap="round" stroke-linejoin="round" fill-opacity="0" stroke="rgb(197,96,33)" stroke-opacity="0.58" stroke-width="10.396" d=" M-41.632999420166016,9.170000076293945 C-23.767000198364258,4.506999969482422 13.958999633789062,-9.401000022888184 23.589000701904297,-10.532999992370605 C28.506999969482422,-11.112000465393066 31.43899917602539,-7.216000080108643 31.43899917602539,-7.216000080108643"></path></g><g opacity="1" transform="matrix(1,0,0,1,150.97000122070312,63.40299987792969)"><path fill="rgb(185,92,35)" fill-opacity="0.53" d=" M-73.24500274658203,-40.02799987792969 C-73.24500274658203,-40.02799987792969 -50.25,-48.55400085449219 14.11400032043457,-47.98699951171875 C54.970001220703125,-47.62799835205078 80.39099884033203,-45.154998779296875 80.71900177001953,-38.69900131225586 C80.84600067138672,-36.19599914550781 81.21700286865234,8.690999984741211 52.31800079345703,28.621999740600586 C23.417999267578125,48.553001403808594 -43.3489990234375,43.237998962402344 -62.28300094604492,18.878000259399414 C-81.21700286865234,-5.480999946594238 -73.24500274658203,-40.02799987792969 -73.24500274658203,-40.02799987792969z"></path></g><g opacity="1" transform="matrix(1,0,0,1,233.72000122070312,31.100000381469727)"><path stroke-linecap="round" stroke-linejoin="round" fill-opacity="0" stroke="rgb(0,0,0)" stroke-opacity="1" stroke-width="10.396" d=" M-9.630000114440918,-0.28299999237060547 C-9.630000114440918,-0.28299999237060547 6.086999893188477,-0.1589999943971634 9.630000114440918,0.28299999237060547"></path></g><g opacity="1" transform="matrix(1,0,0,1,49.334999084472656,27.979000091552734)"><path stroke-linecap="round" stroke-linejoin="round" fill-opacity="0" stroke="rgb(0,0,0)" stroke-opacity="1" stroke-width="12" d=" M-36.16400146484375,10.699000358581543 C-36.16400146484375,10.699000358581543 -19.361000061035156,5.892000198364258 -7.451000213623047,1.774999976158142 C15.793999671936035,-6.261000156402588 22.941999435424805,-8.489999771118164 32.571998596191406,-9.623000144958496 C37.4900016784668,-10.20199966430664 43.334999084472656,-10.1899995803833 43.334999084472656,-10.1899995803833"></path></g><g opacity="1" transform="matrix(1,0,0,1,282.0950012207031,76.66000366210938)"><path fill="rgb(185,92,35)" fill-opacity="0.5" d=" M-56.5620002746582,-19.295000076293945 C-57.39899826049805,-28.174999237060547 -54.71799850463867,-38.9379997253418 -46.82699966430664,-41.095001220703125 C-43.71500015258789,-41.94599914550781 16.547000885009766,-40.534000396728516 41.59000015258789,-32.11800003051758 C54.082000732421875,-27.920000076293945 57.39799880981445,-22.375999450683594 55,-10.093000411987305 C52.60300064086914,2.190999984741211 41.32699966430664,32.49800109863281 29.836000442504883,38.018001556396484 C21.659000396728516,41.94499969482422 -14.118000030517578,40.823001861572266 -27.316999435424805,35.970001220703125 C-41.61199951171875,30.714000701904297 -46.915000915527344,20.520999908447266 -50.91600036621094,9.402000427246094 C-53.29999923706055,2.7739999294281006 -55.744998931884766,-10.621000289916992 -56.5620002746582,-19.295000076293945z"></path></g><g opacity="1" transform="matrix(1,0,0,1,156.02999877929688,56.71200180053711)"><path fill="rgb(11,11,25)" fill-opacity="1" d=" M-65.10700225830078,-40.02799987792969 C-65.10700225830078,-40.02799987792969 -44.66699981689453,-48.55400085449219 12.545999526977539,-47.98699951171875 C48.86199951171875,-47.62799835205078 71.45899963378906,-45.154998779296875 71.75,-38.69900131225586 C71.86299896240234,-36.19599914550781 72.19300079345703,8.690999984741211 46.505001068115234,28.621999740600586 C20.81599998474121,48.553001403808594 -38.53300094604492,43.237998962402344 -55.362998962402344,18.878000259399414 C-72.19300079345703,-5.480999946594238 -65.10700225830078,-40.02799987792969 -65.10700225830078,-40.02799987792969z"></path><path stroke-linecap="butt" stroke-linejoin="miter" fill-opacity="0" stroke-miterlimit="10" stroke="rgb(0,0,0)" stroke-opacity="1" stroke-width="6.238" d=" M-65.10700225830078,-40.02799987792969 C-65.10700225830078,-40.02799987792969 -44.66699981689453,-48.55400085449219 12.545999526977539,-47.98699951171875 C48.86199951171875,-47.62799835205078 71.45899963378906,-45.154998779296875 71.75,-38.69900131225586 C71.86299896240234,-36.19599914550781 72.19300079345703,8.690999984741211 46.505001068115234,28.621999740600586 C20.81599998474121,48.553001403808594 -38.53300094604492,43.237998962402344 -55.362998962402344,18.878000259399414 C-72.19300079345703,-5.480999946594238 -65.10700225830078,-40.02799987792969 -65.10700225830078,-40.02799987792969z"></path></g><g opacity="1" transform="matrix(1,0,0,1,300.6669921875,69.01200103759766)"><path fill="rgb(11,11,25)" fill-opacity="1" d=" M-63.64400100708008,-19.295000076293945 C-64.58499908447266,-28.174999237060547 -61.569000244140625,-38.9379997253418 -52.689998626708984,-41.095001220703125 C-49.1879997253418,-41.94599914550781 18.618999481201172,-40.534000396728516 46.797000885009766,-32.11800003051758 C60.854000091552734,-27.920000076293945 64.58499908447266,-22.375 61.887001037597656,-10.092000007629395 C59.18899917602539,2.191999912261963 46.500999450683594,32.49800109863281 33.56999969482422,38.018001556396484 C24.368999481201172,41.94499969482422 -15.88599967956543,40.823001861572266 -30.73699951171875,35.970001220703125 C-46.821998596191406,30.714000701904297 -52.78900146484375,20.520999908447266 -57.29100036621094,9.402000427246094 C-59.9739990234375,2.7739999294281006 -62.724998474121094,-10.621000289916992 -63.64400100708008,-19.295000076293945z"></path><path stroke-linecap="butt" stroke-linejoin="miter" fill-opacity="0" stroke-miterlimit="10" stroke="rgb(0,0,0)" stroke-opacity="1" stroke-width="6.255" d=" M-63.64400100708008,-19.295000076293945 C-64.58499908447266,-28.174999237060547 -61.569000244140625,-38.9379997253418 -52.689998626708984,-41.095001220703125 C-49.1879997253418,-41.94599914550781 18.618999481201172,-40.534000396728516 46.797000885009766,-32.11800003051758 C60.854000091552734,-27.920000076293945 64.58499908447266,-22.375 61.887001037597656,-10.092000007629395 C59.18899917602539,2.191999912261963 46.500999450683594,32.49800109863281 33.56999969482422,38.018001556396484 C24.368999481201172,41.94499969482422 -15.88599967956543,40.823001861572266 -30.73699951171875,35.970001220703125 C-46.821998596191406,30.714000701904297 -52.78900146484375,20.520999908447266 -57.29100036621094,9.402000427246094 C-59.9739990234375,2.7739999294281006 -62.724998474121094,-10.621000289916992 -63.64400100708008,-19.295000076293945z"></path></g><g opacity="1" transform="matrix(1,0,0,1,109.57499694824219,41.590999603271484)"><path fill="rgb(255,255,255)" fill-opacity="1" d=" M-7.559000015258789,-2.8440001010894775 C-8.692000389099121,-8.508999824523926 -9.824999809265137,-19.55500030517578 -3.0269999504089355,-19.83799934387207 C3.7699999809265137,-20.121000289916992 4.336999893188477,-16.43899917602539 5.186999797821045,-11.340999603271484 C6.035999774932861,-6.243000030517578 6.603000164031982,2.253999948501587 7.736000061035156,8.20199966430664 C8.869000434875488,14.149999618530273 9.010000228881836,18.822999954223633 4.76200008392334,19.67300033569336 C-0.2680000066757202,20.679000854492188 -1.9809999465942383,17.240999221801758 -3.1689999103546143,14.717000007629395 C-5.434999942779541,9.902000427246094 -6.732999801635742,1.284999966621399 -7.559000015258789,-2.8440001010894775z"></path></g><g opacity="1" transform="matrix(1,0,0,1,260.8139953613281,49.926998138427734)"><path fill="rgb(255,255,255)" fill-opacity="1" d=" M-4.718999862670898,-1.5499999523162842 C-6.063000202178955,-7.168000221252441 -9.234999656677246,-15.739999771118164 -2.453000068664551,-16.277999877929688 C4.328999996185303,-16.81599998474121 2.1710000038146973,-11.144000053405762 3.2119998931884766,-6.080999851226807 C4.251999855041504,-1.0180000066757202 4.406000137329102,1.472000002861023 5.761000156402588,7.373000144958496 C7.116000175476074,13.27400016784668 6.894000053405762,15.444000244140625 5.193999767303467,16.01099967956543 C0.328000009059906,17.632999420166016 -0.8370000123977661,12.321000099182129 -1.6030000448226929,9.638999938964844 C-3.302999973297119,3.690999984741211 -3.739000082015991,2.5450000762939453 -4.718999862670898,-1.5499999523162842z"></path></g></g><g style="display: none;"><g><path></path><path stroke-linecap="round" stroke-linejoin="round" fill-opacity="0"></path></g><g><path></path></g><g><path></path><path stroke-linecap="round" stroke-linejoin="round" fill-opacity="0"></path></g><g><path></path></g></g><g style="display: none;"><g><path></path><path stroke-linecap="round" stroke-linejoin="round" fill-opacity="0"></path></g><g><path></path></g><g><path></path><path stroke-linecap="round" stroke-linejoin="round" fill-opacity="0"></path></g><g><path></path></g></g><g style="display: none;"><g><path></path><path stroke-linecap="round" stroke-linejoin="round" fill-opacity="0"></path></g><g><path></path></g><g><path></path></g></g><g style="display: none;"><g><path></path><path stroke-linecap="round" stroke-linejoin="round" fill-opacity="0"></path></g><g><path></path></g><g><path></path></g></g><g style="display: none;"><g><g><path></path><path stroke-linecap="round" stroke-linejoin="round" fill-opacity="0"></path></g><g><path></path></g><g><path></path></g></g><g><g><path stroke-linecap="round" stroke-linejoin="round" fill-opacity="0"></path></g></g></g><g style="display: none;"><g><path></path><path stroke-linecap="round" stroke-linejoin="round" fill-opacity="0"></path></g><g><path></path></g><g><path></path></g></g><g style="display: none;"><g><path></path><path stroke-linecap="round" stroke-linejoin="round" fill-opacity="0"></path></g><g><path></path></g><g><path></path></g></g><g style="display: none;"><g><path></path><path stroke-linecap="round" stroke-linejoin="round" fill-opacity="0"></path></g><g><path></path></g><g><path></path></g></g><g style="display: none;"><g><path></path><path stroke-linecap="round" stroke-linejoin="round" fill-opacity="0"></path></g><g><path></path></g><g><path></path></g><g><path></path><path stroke-linecap="butt" stroke-linejoin="miter" fill-opacity="0" stroke-miterlimit="4"></path></g></g><g style="display: none;"><g><path></path><path stroke-linecap="round" stroke-linejoin="round" fill-opacity="0"></path></g><g><path></path></g><g><path></path></g><g><path></path><path stroke-linecap="butt" stroke-linejoin="miter" fill-opacity="0" stroke-miterlimit="4"></path></g></g><g style="display: none;"><g><path></path><path stroke-linecap="round" stroke-linejoin="round" fill-opacity="0"></path></g><g><path></path></g><g><path></path></g><g><path></path><path stroke-linecap="butt" stroke-linejoin="miter" fill-opacity="0" stroke-miterlimit="4"></path></g></g><g style="display: none;"><g><path></path><path stroke-linecap="round" stroke-linejoin="round" fill-opacity="0"></path></g><g><path></path></g><g><path></path></g><g><path></path><path stroke-linecap="butt" stroke-linejoin="miter" fill-opacity="0" stroke-miterlimit="4"></path></g></g><g style="display: none;"><g><path></path></g></g></g></svg>