<svg xmlns="http://www.w3.org/2000/svg" xmlns:xlink="http://www.w3.org/1999/xlink" viewBox="0 0 512 512" width="512" height="512" style="width: 100%; height: 100%; transform: translate3d(0,0,0); content-visibility: visible;" preserveAspectRatio="xMidYMid meet"><defs><clipPath id="__lottie_element_2"><rect width="512" height="512" x="0" y="0"></rect></clipPath><radialGradient id="__lottie_element_12" spreadMethod="pad" gradientUnits="userSpaceOnUse" cx="256.5820007324219" cy="-188.4550018310547" r="461.25107411995356" fx="256.5820007324219" fy="-188.4550018310547"><stop offset="0%" stop-color="rgb(252,187,147)"></stop><stop offset="48%" stop-color="rgb(245,168,120)"></stop><stop offset="100%" stop-color="rgb(238,148,92)"></stop></radialGradient><radialGradient id="__lottie_element_13" spreadMethod="pad" gradientUnits="userSpaceOnUse" cx="138.51199340820312" cy="-133.0749969482422" r="445.7323553763587" fx="138.51199340820312" fy="-133.0749969482422"><stop offset="0%" stop-color="rgb(249,223,201)"></stop><stop offset="48%" stop-color="rgb(246,191,155)"></stop><stop offset="100%" stop-color="rgb(244,159,109)"></stop></radialGradient><linearGradient id="__lottie_element_21" spreadMethod="pad" gradientUnits="userSpaceOnUse" x1="-173.9499969482422" y1="-188.593994140625" x2="-111.1969985961914" y2="-123.36100006103516"><stop offset="0%" stop-color="rgb(249,223,201)"></stop><stop offset="48%" stop-color="rgb(246,191,155)"></stop><stop offset="100%" stop-color="rgb(244,159,109)"></stop></linearGradient><linearGradient id="__lottie_element_22" spreadMethod="pad" gradientUnits="userSpaceOnUse" x1="204.02099609375" y1="-171.36599731445312" x2="112.52899932861328" y2="-28.82900047302246"><stop offset="0%" stop-color="rgb(249,223,201)"></stop><stop offset="48%" stop-color="rgb(246,191,155)"></stop><stop offset="100%" stop-color="rgb(244,159,109)"></stop></linearGradient></defs><g clip-path="url(#__lottie_element_2)"><g style="display: block;" transform="matrix(0.7553557753562927,-0.018353695049881935,0.017461001873016357,0.7918524146080017,256.8404846191406,305.2590637207031)" opacity="1"><g opacity="1" transform="matrix(1,0,0,1,0,0)"><g opacity="1" transform="matrix(1,0,0,1,0,0)"><path fill="url(#__lottie_element_21)" fill-opacity="1" d=" M-187,-222 C-195,-218 -191,-172 -180,-132 C-171.93600463867188,-102.67500305175781 -151,-66 -151,-66 C-151,-66 -108,-118 -101,-127 C-94,-136 -68,-165 -68,-165 C-68,-165 -95.41899871826172,-184.20899963378906 -121,-197 C-145,-209 -178.96600341796875,-226.88600158691406 -181.98300170898438,-222.9429931640625 C-185,-219 -185.7949981689453,-222.6020050048828 -187,-222z"></path><path stroke-linecap="butt" stroke-linejoin="miter" fill-opacity="0" stroke-miterlimit="4" stroke="rgb(183,99,57)" stroke-opacity="1" stroke-width="14" d=" M-187,-222 C-195,-218 -191,-172 -180,-132 C-171.93600463867188,-102.67500305175781 -151,-66 -151,-66 C-151,-66 -108,-118 -101,-127 C-94,-136 -68,-165 -68,-165 C-68,-165 -95.41899871826172,-184.20899963378906 -121,-197 C-145,-209 -178.96600341796875,-226.88600158691406 -181.98300170898438,-222.9429931640625 C-185,-219 -185.7949981689453,-222.6020050048828 -187,-222z"></path></g><g opacity="1" transform="matrix(1,0,0,1,0,0)"><path stroke-linecap="butt" stroke-linejoin="miter" fill-opacity="0" stroke-miterlimit="4" stroke="rgb(183,99,57)" stroke-opacity="0.58" stroke-width="14" d=" M-147,-176 C-161,-182 -158,-167 -154,-156 C-150,-145 -131,-92 -122,-85 C-113,-78 -63,-117 -63,-117 C-63,-117 -75,-130 -75,-130 C-75,-130 -133,-170 -147,-176z"></path></g></g><g opacity="1" transform="matrix(1,0,0,1,0,0)"><g opacity="1" transform="matrix(1,0,0,1,0,0)"><path fill="url(#__lottie_element_22)" fill-opacity="1" d=" M192,-225 C183,-228 148,-215 120,-201 C91.1969985961914,-186.5989990234375 70,-158 70,-158 C70,-158 120,-137 123,-134 C126,-131 128.26400756835938,-46.4630012512207 128.26400756835938,-46.4630012512207 C128.26400756835938,-46.4630012512207 150.0679931640625,-41.98699951171875 150.0679931640625,-41.98699951171875 C150.0679931640625,-41.98699951171875 176.1840057373047,-70.7490005493164 188.28399658203125,-126.88700103759766 C195.07899475097656,-158.41200256347656 201,-222 192,-225z"></path><path stroke-linecap="butt" stroke-linejoin="miter" fill-opacity="0" stroke-miterlimit="4" stroke="rgb(183,99,57)" stroke-opacity="1" stroke-width="14" d=" M192,-225 C183,-228 148,-215 120,-201 C91.1969985961914,-186.5989990234375 70,-158 70,-158 C70,-158 120,-137 123,-134 C126,-131 128.26400756835938,-46.4630012512207 128.26400756835938,-46.4630012512207 C128.26400756835938,-46.4630012512207 150.0679931640625,-41.98699951171875 150.0679931640625,-41.98699951171875 C150.0679931640625,-41.98699951171875 176.1840057373047,-70.7490005493164 188.28399658203125,-126.88700103759766 C195.07899475097656,-158.41200256347656 201,-222 192,-225z"></path></g><g opacity="1" transform="matrix(1,0,0,1,0,0)"><path stroke-linecap="butt" stroke-linejoin="miter" fill-opacity="0" stroke-miterlimit="4" stroke="rgb(183,99,57)" stroke-opacity="0.56" stroke-width="14" d=" M153,-184 C137,-175 110,-155 110,-155 C110,-155 94,-139 94,-139 C94,-139 112,-120 112,-120 C112,-120 127,-62 127,-62 C127,-62 152,-93 158,-109 C164,-125 167,-165 167,-175 C167,-185 169,-193 153,-184z"></path></g></g></g><g style="display: block;" transform="matrix(0.9900000095367432,0,0,1.0392228364944458,44.46272659301758,-3.2758305072784424)" opacity="1"><g opacity="1" transform="matrix(1,0,0,1,219.3090057373047,236.9239959716797)"><path fill="url(#__lottie_element_12)" fill-opacity="1" d=" M-126.1780014038086,157.7220001220703 C-155.9199981689453,130.3730010986328 -186.8090057373047,95.4530029296875 -180.25399780273438,4.506999969482422 C-177.9250030517578,-27.816999435424805 -168.73899841308594,-71.11499786376953 -157.31300354003906,-93.40499877929688 C-138.2689971923828,-130.55499267578125 -111.08300018310547,-150.04800415039062 -87.25900268554688,-168.37399291992188 C-55.30500030517578,-192.95399475097656 -31.135000228881836,-204.4239959716797 29.496000289916992,-200.3280029296875 C90.12699890136719,-196.2310028076172 100.77899932861328,-169.1929931640625 127.81700134277344,-132.322998046875 C154.85499572753906,-95.4520034790039 186.8090057373047,-17.614999771118164 181.07400512695312,61.86000061035156 C175.33799743652344,141.33599853515625 114.70700073242188,204.4239959716797 21.30299949645996,201.14700317382812 C-72.10199737548828,197.8699951171875 -96.71099853515625,184.8179931640625 -126.1780014038086,157.7220001220703z"></path><path stroke-linecap="butt" stroke-linejoin="miter" fill-opacity="0" stroke-miterlimit="10" stroke="rgb(183,99,57)" stroke-opacity="1" stroke-width="13" d=" M-126.1780014038086,157.7220001220703 C-155.9199981689453,130.3730010986328 -186.8090057373047,95.4530029296875 -180.25399780273438,4.506999969482422 C-177.9250030517578,-27.816999435424805 -168.73899841308594,-71.11499786376953 -157.31300354003906,-93.40499877929688 C-138.2689971923828,-130.55499267578125 -111.08300018310547,-150.04800415039062 -87.25900268554688,-168.37399291992188 C-55.30500030517578,-192.95399475097656 -31.135000228881836,-204.4239959716797 29.496000289916992,-200.3280029296875 C90.12699890136719,-196.2310028076172 100.77899932861328,-169.1929931640625 127.81700134277344,-132.322998046875 C154.85499572753906,-95.4520034790039 186.8090057373047,-17.614999771118164 181.07400512695312,61.86000061035156 C175.33799743652344,141.33599853515625 114.70700073242188,204.4239959716797 21.30299949645996,201.14700317382812 C-72.10199737548828,197.8699951171875 -96.71099853515625,184.8179931640625 -126.1780014038086,157.7220001220703z"></path></g><g opacity="1" transform="matrix(1,0,0,1,222.25,232.12399291992188)"><path fill="url(#__lottie_element_13)" fill-opacity="1" d=" M-113.80500030517578,126.41500091552734 C-139.7779998779297,102.53199768066406 -161.71499633789062,38.12799835205078 -150.6750030517578,-40.72999954223633 C-142.07200622558594,-102.18000030517578 -117.36699676513672,-131.8820037841797 -83.02200317382812,-156.05099487304688 C-49.8390007019043,-179.40199279785156 -30.236000061035156,-187.1540069580078 22.711999893188477,-183.5760040283203 C75.65899658203125,-179.9980010986328 88.53800201416016,-159.96400451660156 112.1500015258789,-127.76699829101562 C135.76199340820312,-95.56900024414062 163.66600036621094,-27.59600067138672 158.6580047607422,41.80799865722656 C153.6490020751953,111.21199798583984 100.49500274658203,177.20799255371094 18.92799949645996,174.3459930419922 C-62.63999938964844,171.48399353027344 -88.0719985961914,150.07699584960938 -113.80500030517578,126.41500091552734z"></path></g></g><g style="display: block;" transform="matrix(0.9900000095367432,0,0,1.0392228364944458,166.4921112060547,257.8060607910156)" opacity="1"><g opacity="1" transform="matrix(0.8059799671173096,0,0,0.7987000346183777,22.504295349121094,6.812786102294922)"><g opacity="1" transform="matrix(1,0,0,1,116.46199798583984,72.30400085449219)"><path fill="rgb(255,228,215)" fill-opacity="1" d=" M-89.0009994506836,-2.197000026702881 C-89.0009994506836,-2.197000026702881 -71.45999908447266,13.352999687194824 -42.4900016784668,21.458999633789062 C-25.71500015258789,26.152000427246094 -5.107999801635742,28.350000381469727 18.143999099731445,23.58799934387207 C34.566001892089844,20.224000930786133 47.23500061035156,14.567000389099121 56.99300003051758,8.029999732971191 C84.91200256347656,-10.67199993133545 89.0009994506836,-36.57500076293945 89.0009994506836,-36.57500076293945 C89.0009994506836,-36.57500076293945 81.75900268554688,-13.784000396728516 49.9379997253418,0.1459999978542328 C39.145999908447266,4.869999885559082 25.527000427246094,8.576000213623047 8.404000282287598,10.027000427246094 C-13.097000122070312,11.848999977111816 -30.219999313354492,10.6850004196167 -43.64799880981445,8.17300033569336 C-74.64099884033203,2.375999927520752 -85.94499969482422,-10.60099983215332 -85.94499969482422,-10.60099983215332 C-85.94499969482422,-10.60099983215332 -89.0009994506836,-2.197000026702881 -89.0009994506836,-2.197000026702881z"></path></g><g opacity="1" transform="matrix(1,0,0,1,119.625,56.31700134277344)"><path fill="rgb(221,131,95)" fill-opacity="1" d=" M-84.79900360107422,0.28600001335144043 C-84.79900360107422,0.28600001335144043 -63.04999923706055,7.97599983215332 -37.236000061035156,12.199000358581543 C-21.361000061035156,14.795999526977539 -3.950000047683716,16.08300018310547 10.88599967956543,13.46500015258789 C23.216999053955078,11.288999557495117 35.14699935913086,5.89900016784668 45.694000244140625,-0.453000009059906 C68.47100067138672,-14.170000076293945 84.79900360107422,-32.37200164794922 84.79900360107422,-32.37200164794922 C84.79900360107422,-32.37200164794922 75.74600219726562,-10.493000030517578 54.305999755859375,6.440999984741211 C43.3849983215332,15.067000389099121 29.25,22.40999984741211 11.460000038146973,24.923999786376953 C-6.306000232696533,27.43400001525879 -22.509000778198242,26.4950008392334 -36.18600082397461,24.14699935913086 C-63.09000015258789,19.527000427246094 -80.21499633789062,9.454999923706055 -80.21499633789062,9.454999923706055 C-80.21499633789062,9.454999923706055 -84.79900360107422,0.28600001335144043 -84.79900360107422,0.28600001335144043z"></path></g><g opacity="1" transform="matrix(1,0,0,1,119.52899932861328,58.525001525878906)"><path stroke-linecap="round" stroke-linejoin="round" fill-opacity="0" stroke="rgb(153,73,38)" stroke-opacity="1" stroke-width="12" d=" M-85.76599884033203,6.043000221252441 C-85.76599884033203,6.043000221252441 -73.44300079345703,13.079999923706055 -53.81999969482422,18.709999084472656 C-49.61199951171875,19.91699981689453 -45.06700134277344,21.059999465942383 -40.23699951171875,22.05500030517578 C-27.959999084472656,24.58300018310547 -13.835000038146973,26.155000686645508 1.3259999752044678,25.40399932861328 C4.928999900817871,25.22599983215332 8.355999946594238,24.9060001373291 11.612000465393066,24.46500015258789 C31.886999130249023,21.716999053955078 45.59700012207031,14.270999908447266 54.75400161743164,7.122000217437744 C58.37699890136719,4.294000148773193 61.2859992980957,1.5119999647140503 63.608001708984375,-0.9150000214576721 C74.41000366210938,-12.20199966430664 82.38700103759766,-27.827999114990234 85.76599884033203,-27.822999954223633"></path></g><g opacity="1" transform="matrix(1,0,0,1,204.31399536132812,28.55500030517578)"><path stroke-linecap="round" stroke-linejoin="round" fill-opacity="0" stroke="rgb(153,73,38)" stroke-opacity="1" stroke-width="12" d=" M-5.328999996185303,-0.08399999886751175 C-5.328999996185303,-0.08399999886751175 -1.652999997138977,-0.27399998903274536 3.5789999961853027,1.7640000581741333"></path></g><g opacity="1" transform="matrix(1,0,0,1,33.76300048828125,60.367000579833984)"><path stroke-linecap="round" stroke-linejoin="round" fill-opacity="0" stroke="rgb(153,73,38)" stroke-opacity="1" stroke-width="12" d=" M-7.198999881744385,5.638000011444092 C-7.198999881744385,5.638000011444092 -5.577000141143799,0.7390000224113464 -3.496999979019165,-1.340999960899353 C-1.2050000429153442,-3.632999897003174 0.9490000009536743,-4.447000026702881 0.9490000009536743,-4.447000026702881"></path></g></g></g><g style="display: block;" transform="matrix(0.9900000095367432,0,0,1.0392228364944458,106.42781829833984,89.30231475830078)" opacity="1"><g opacity="1" transform="matrix(1,0,0,1,0,0)"><g opacity="1" transform="matrix(1,0,0,1,227.03799438476562,94.51899719238281)"><path fill="rgb(221,131,95)" fill-opacity="0.76" d=" M-19.8700008392334,-47.37200164794922 C-30.466999053955078,-39.32099914550781 -57.417999267578125,-16.202999114990234 -49.957000732421875,9.77299976348877 C-45.02199935913086,26.95199966430664 -15.081999778747559,47.30799865722656 2.4660000801086426,51.720001220703125 C20.013999938964844,56.132999420166016 45.611000061035156,49.62300109863281 51.138999938964844,32.37699890136719 C57.417999267578125,12.791000366210938 47.03300094604492,-18.30699920654297 35.5629997253418,-31.96299934387207 C17.033000946044922,-54.020999908447266 -8.338000297546387,-56.132999420166016 -19.8700008392334,-47.37200164794922z"></path></g><g opacity="1" transform="matrix(1,0,0,1,228.7570037841797,83.63300323486328)"><path fill="rgb(179,197,242)" fill-opacity="1" d=" M-19.8700008392334,-47.37200164794922 C-30.466999053955078,-39.32099914550781 -57.417999267578125,-16.202999114990234 -49.957000732421875,9.77299976348877 C-45.02199935913086,26.95199966430664 -15.081999778747559,47.30799865722656 2.4660000801086426,51.720001220703125 C20.013999938964844,56.132999420166016 45.611000061035156,49.62300109863281 51.138999938964844,32.37699890136719 C57.417999267578125,12.791000366210938 47.03300094604492,-18.30699920654297 35.5629997253418,-31.96299934387207 C17.033000946044922,-54.020999908447266 -8.338000297546387,-56.132999420166016 -19.8700008392334,-47.37200164794922z"></path><path stroke-linecap="round" stroke-linejoin="round" fill-opacity="0" stroke="rgb(76,79,114)" stroke-opacity="1" stroke-width="11" d=" M-19.8700008392334,-47.37200164794922 C-30.466999053955078,-39.32099914550781 -57.417999267578125,-16.202999114990234 -49.957000732421875,9.77299976348877 C-45.02199935913086,26.95199966430664 -15.081999778747559,47.30799865722656 2.4660000801086426,51.720001220703125 C20.013999938964844,56.132999420166016 45.611000061035156,49.62300109863281 51.138999938964844,32.37699890136719 C57.417999267578125,12.791000366210938 47.03300094604492,-18.30699920654297 35.5629997253418,-31.96299934387207 C17.033000946044922,-54.020999908447266 -8.338000297546387,-56.132999420166016 -19.8700008392334,-47.37200164794922z"></path></g><g opacity="1" transform="matrix(1,0,0,1,231.0330047607422,79.8550033569336)"><path fill="rgb(255,255,255)" fill-opacity="1" d=" M-25.059999465942383,-33.53200149536133 C-32.84400177001953,-27.42099952697754 -46.277000427246094,-8.593000411987305 -40.97800064086914,10.88700008392334 C-37.472999572753906,23.770000457763672 -16.441999435424805,39.39799880981445 -3.6540000438690186,42.61399841308594 C9.135000228881836,45.83000183105469 25.545000076293945,45.96200180053711 32.80699920654297,34.41999816894531 C46.277000427246094,13.01200008392334 33.76499938964844,-17.10700035095215 23.451000213623047,-27.038000106811523 C3.799999952316284,-45.96200180053711 -16.589000701904297,-40.18299865722656 -25.059999465942383,-33.53200149536133z"></path></g><g opacity="1" transform="matrix(1,0,0,1,0,0)"><g opacity="1" transform="matrix(1,0,0,1,223.7899932861328,90.95600128173828)"><path fill="rgb(37,33,48)" fill-opacity="1" d=" M15.734999656677246,3.9560000896453857 C13.550000190734863,12.645999908447266 4.734000205993652,17.91900062561035 -3.9560000896453857,15.734000205993652 C-12.645999908447266,13.54800033569336 -17.920000076293945,4.73199987411499 -15.734999656677246,-3.9570000171661377 C-13.550000190734863,-12.647000312805176 -4.734000205993652,-17.91900062561035 3.9560000896453857,-15.734000205993652 C12.645999908447266,-13.548999786376953 17.920000076293945,-4.734000205993652 15.734999656677246,3.9560000896453857z"></path></g><g opacity="1" transform="matrix(1,0,0,1,212.72500610351562,98.39700317382812)"><path fill="rgb(255,255,255)" fill-opacity="1" d=" M5.1570000648498535,-2.2980000972747803 C5.770999908447266,-0.3779999911785126 3.9590001106262207,2.2079999446868896 1.1109999418258667,3.4769999980926514 C-1.7369999885559082,4.745999813079834 -4.544000148773193,4.2179999351501465 -5.1579999923706055,2.2980000972747803 C-5.770999908447266,0.3779999911785126 -3.9590001106262207,-2.2070000171661377 -1.1109999418258667,-3.4769999980926514 C1.7369999885559082,-4.745999813079834 4.543000221252441,-4.2179999351501465 5.1570000648498535,-2.2980000972747803z"></path></g></g><g opacity="1" transform="matrix(1,0,0,1,228.7570037841797,83.63300323486328)"><path stroke-linecap="round" stroke-linejoin="round" fill-opacity="0" stroke="rgb(76,79,114)" stroke-opacity="1" stroke-width="11" d=" M-19.8700008392334,-47.37200164794922 C-30.466999053955078,-39.32099914550781 -57.417999267578125,-16.202999114990234 -49.957000732421875,9.77299976348877 C-45.02199935913086,26.95199966430664 -15.081999778747559,47.30799865722656 2.4660000801086426,51.720001220703125 C20.013999938964844,56.132999420166016 45.611000061035156,49.62300109863281 51.138999938964844,32.37699890136719 C57.417999267578125,12.791000366210938 47.03300094604492,-18.30699920654297 35.5629997253418,-31.96299934387207 C17.033000946044922,-54.020999908447266 -8.338000297546387,-56.132999420166016 -19.8700008392334,-47.37200164794922z"></path></g></g><g opacity="1" transform="matrix(1,0,0,1,0,0)"><g opacity="1" transform="matrix(1,0,0,1,84.31099700927734,118.97000122070312)"><path fill="rgb(221,131,95)" fill-opacity="0.7000000000000001" d=" M-14.513999938964844,-52.97600173950195 C-2.5850000381469727,-52.8390007019043 11.529999732971191,-48.130001068115234 31.03700065612793,-33.20800018310547 C52.79999923706055,-16.55900001525879 50.8380012512207,5.533999919891357 46.52799987792969,15.354000091552734 C42.16299819946289,25.297000885009766 28.395999908447266,36.99599838256836 13.157999992370605,44.56399917602539 C4.1519999504089355,49.0369987487793 -5.36899995803833,52.06700134277344 -13.765999794006348,52.43899917602539 C-28.3439998626709,53.084999084472656 -41.59400177001953,42.32699966430664 -47.196998596191406,23.589000701904297 C-52.79999923706055,4.849999904632568 -51.77199935913086,-23.07900047302246 -43.73400115966797,-37.73400115966797 C-37.15700149536133,-49.7239990234375 -24.05299949645996,-53.08599853515625 -14.513999938964844,-52.97600173950195z"></path></g><g opacity="1" transform="matrix(1,0,0,1,80.15699768066406,110.13099670410156)"><path fill="rgb(179,197,242)" fill-opacity="1" d=" M-14.371000289916992,-52.44499969482422 C-2.441999912261963,-52.30799865722656 11.38599967956543,-53.61600112915039 30.893999099731445,-38.69300079345703 C52.65700149536133,-22.04400062561035 50.98099899291992,6.065000057220459 46.67100143432617,15.885000228881836 C42.46900177001953,25.45800018310547 29.552000045776367,36.65700149536133 14.998000144958496,44.231998443603516 C5.499000072479248,49.17599868774414 -4.697000026702881,52.57500076293945 -13.623000144958496,52.97100067138672 C-28.201000213623047,53.617000579833984 -41.45100021362305,42.858001708984375 -47.05400085449219,24.1200008392334 C-52.65700149536133,5.38100004196167 -51.62900161743164,-22.547000885009766 -43.590999603271484,-37.20199966430664 C-37.013999938964844,-49.19200134277344 -23.90999984741211,-52.55500030517578 -14.371000289916992,-52.44499969482422z"></path><path stroke-linecap="round" stroke-linejoin="round" fill-opacity="0" stroke="rgb(76,79,114)" stroke-opacity="1" stroke-width="11" d=" M-14.371000289916992,-52.44499969482422 C-2.441999912261963,-52.30799865722656 11.38599967956543,-53.61600112915039 30.893999099731445,-38.69300079345703 C52.65700149536133,-22.04400062561035 50.98099899291992,6.065000057220459 46.67100143432617,15.885000228881836 C42.46900177001953,25.45800018310547 29.552000045776367,36.65700149536133 14.998000144958496,44.231998443603516 C5.499000072479248,49.17599868774414 -4.697000026702881,52.57500076293945 -13.623000144958496,52.97100067138672 C-28.201000213623047,53.617000579833984 -41.45100021362305,42.858001708984375 -47.05400085449219,24.1200008392334 C-52.65700149536133,5.38100004196167 -51.62900161743164,-22.547000885009766 -43.590999603271484,-37.20199966430664 C-37.013999938964844,-49.19200134277344 -23.90999984741211,-52.55500030517578 -14.371000289916992,-52.44499969482422z"></path></g><g opacity="1" transform="matrix(1,0,0,1,77.26000213623047,109.84600067138672)"><path fill="rgb(255,255,255)" fill-opacity="1" d=" M-18.63599967956543,-43.564998626708984 C-3.739000082015991,-45.284000396728516 8.937000274658203,-42.92599868774414 24.90999984741211,-32.10599899291992 C40.88199996948242,-21.28499984741211 43.12699890136719,3.1589999198913574 36.45800018310547,13.666999816894531 C29.18400001525879,25.128999710083008 8.814000129699707,39.3380012512207 -4.876999855041504,42.61800003051758 C-16.010000228881836,45.284000396728516 -31.600000381469727,32.474998474121094 -36,17.76099967956543 C-40.4010009765625,3.0450000762939453 -43.12699890136719,-18.257999420166016 -38.11800003051758,-30.386999130249023 C-34.233001708984375,-39.792999267578125 -22.31399917602539,-43.14099884033203 -18.63599967956543,-43.564998626708984z"></path></g><g opacity="1" transform="matrix(1,0,0,1,0,0)"><g opacity="1" transform="matrix(1,0,0,1,72.66100311279297,114.41100311279297)"><path fill="rgb(37,33,48)" fill-opacity="1" d=" M15.208000183105469,3.8239998817443848 C13.095999717712402,12.222999572753906 4.574999809265137,17.31999969482422 -3.8239998817443848,15.206999778747559 C-12.222999572753906,13.095000267028809 -17.31999969482422,4.573999881744385 -15.206999778747559,-3.825000047683716 C-13.095000267028809,-12.223999977111816 -4.573999881744385,-17.31999969482422 3.825000047683716,-15.208000183105469 C12.223999977111816,-13.095999717712402 17.31999969482422,-4.574999809265137 15.208000183105469,3.8239998817443848z"></path></g><g opacity="1" transform="matrix(1,0,0,1,62.16400146484375,122.71800231933594)"><path fill="rgb(255,255,255)" fill-opacity="1" d=" M6.968999862670898,-1.559000015258789 C7.216000080108643,0.8889999985694885 4.295000076293945,3.572000026702881 0.44699999690055847,4.433000087738037 C-3.4019999504089355,5.294000148773193 -6.7220001220703125,4.00600004196167 -6.968999862670898,1.5579999685287476 C-7.216000080108643,-0.8899999856948853 -4.295000076293945,-3.572000026702881 -0.44699999690055847,-4.433000087738037 C3.4019999504089355,-5.294000148773193 6.7220001220703125,-4.006999969482422 6.968999862670898,-1.559000015258789z"></path></g></g><g opacity="1" transform="matrix(1,0,0,1,80.15699768066406,110.13099670410156)"><path stroke-linecap="round" stroke-linejoin="round" fill-opacity="0" stroke="rgb(76,79,114)" stroke-opacity="1" stroke-width="11" d=" M-14.371000289916992,-52.44499969482422 C-2.441999912261963,-52.30799865722656 11.38599967956543,-53.61600112915039 30.893999099731445,-38.69300079345703 C52.65700149536133,-22.04400062561035 50.98099899291992,6.065000057220459 46.67100143432617,15.885000228881836 C42.46900177001953,25.45800018310547 29.552000045776367,36.65700149536133 14.998000144958496,44.231998443603516 C5.499000072479248,49.17599868774414 -4.697000026702881,52.57500076293945 -13.623000144958496,52.97100067138672 C-28.201000213623047,53.617000579833984 -41.45100021362305,42.858001708984375 -47.05400085449219,24.1200008392334 C-52.65700149536133,5.38100004196167 -51.62900161743164,-22.547000885009766 -43.590999603271484,-37.20199966430664 C-37.013999938964844,-49.19200134277344 -23.90999984741211,-52.55500030517578 -14.371000289916992,-52.44499969482422z"></path></g></g></g><g style="display: block;" transform="matrix(1,0,0,1,256,256)" opacity="1"></g></g></svg>