<svg xmlns="http://www.w3.org/2000/svg" xmlns:xlink="http://www.w3.org/1999/xlink" viewBox="0 0 512 512" width="512" height="512" style="width: 100%; height: 100%; transform: translate3d(0,0,0); content-visibility: visible;" preserveAspectRatio="xMidYMid meet"><defs><clipPath id="__lottie_element_2"><rect width="512" height="512" x="0" y="0"></rect></clipPath><clipPath id="__lottie_element_4"><path d="M0,0 L512,0 L512,512 L0,512z"></path></clipPath><radialGradient id="__lottie_element_17" spreadMethod="pad" gradientUnits="userSpaceOnUse" cx="-140.36700439453125" cy="-235.59800720214844" r="455.1514318449296" fx="-140.36700439453125" fy="-235.59800720214844"><stop offset="0%" stop-color="rgb(254,240,222)"></stop><stop offset="50%" stop-color="rgb(249,213,185)"></stop><stop offset="100%" stop-color="rgb(244,187,148)"></stop></radialGradient></defs><g clip-path="url(#__lottie_element_2)"><g clip-path="url(#__lottie_element_4)" style="display: block;" transform="matrix(0.8867200016975403,0,0,0.8867200016975403,28.999679565429688,19.999679565429688)" opacity="1"><g style="display: block;" transform="matrix(1.0069899559020996,0,0,1,-16.519287109375,50.160980224609375)" opacity="1"><g opacity="1" transform="matrix(1,0,0,1,271.2300109863281,223.30799865722656)"><path fill="rgb(231,157,106)" fill-opacity="1" d=" M-223.8300018310547,-89.9530029296875 C-208.77000427246094,-99.53600311279297 -200.468994140625,-100.20700073242188 -197.77999877929688,-109.16899871826172 C-194.74099731445312,-119.3010025024414 -202.177001953125,-141.42799377441406 -174.9510040283203,-157.1580047607422 C-157.04800415039062,-167.5030059814453 -133.78900146484375,-180.97300720214844 -70.3489990234375,-189.22300720214844 C-14.51200008392334,-196.48300170898438 13.864999771118164,-195.47999572753906 38.79600143432617,-194.9709930419922 C63.808998107910156,-194.46099853515625 116.05999755859375,-184.3800048828125 136.79400634765625,-171.57400512695312 C154.1490020751953,-160.85499572753906 158.85699462890625,-153.88699340820312 174.26600646972656,-133.7740020751953 C179.91900634765625,-126.39600372314453 189.37100219726562,-109.38400268554688 194.9429931640625,-103.44400024414062 C203.25100708007812,-94.32599639892578 216.47999572753906,-89.01100158691406 223.42999267578125,-82.91200256347656 C236.63800048828125,-71.3219985961914 245.20599365234375,-58.000999450683594 245.20599365234375,-36.09600067138672 C245.20599365234375,-2.6619999408721924 222.76699829101562,30.650999069213867 182.91299438476562,70.37300109863281 C161.875,91.28399658203125 120.49800109863281,119.98999786376953 104.8489990234375,129.23699951171875 C89.1989974975586,138.48399353027344 61.1609992980957,155.88999938964844 24.868999481201172,168.88900756835938 C-6.959000110626221,180.61300659179688 -54.67499923706055,190.64999389648438 -81.15299987792969,193.6009979248047 C-128.42599487304688,198.90199279785156 -182.64700317382812,198.94900512695312 -197.3679962158203,166.7469940185547 C-205.78399658203125,148.33799743652344 -211.2989959716797,108.09200286865234 -210.97000122070312,76.87799835205078 C-210.44400024414062,45.77299880981445 -209.16900634765625,30.007999420166016 -218.79400634765625,11.770999908447266 C-226.83200073242188,-3.4579999446868896 -244.35899353027344,-21.264999389648438 -245.86500549316406,-48.12900161743164 C-247.5709991455078,-78.08599853515625 -231.28700256347656,-85.20800018310547 -223.8300018310547,-89.9530029296875z"></path><path stroke-linecap="butt" stroke-linejoin="miter" fill-opacity="0" stroke-miterlimit="10" stroke="rgb(182,94,49)" stroke-opacity="1" stroke-width="12" d=" M-223.8300018310547,-89.9530029296875 C-208.77000427246094,-99.53600311279297 -200.468994140625,-100.20700073242188 -197.77999877929688,-109.16899871826172 C-194.74099731445312,-119.3010025024414 -202.177001953125,-141.42799377441406 -174.9510040283203,-157.1580047607422 C-157.04800415039062,-167.5030059814453 -133.78900146484375,-180.97300720214844 -70.3489990234375,-189.22300720214844 C-14.51200008392334,-196.48300170898438 13.864999771118164,-195.47999572753906 38.79600143432617,-194.9709930419922 C63.808998107910156,-194.46099853515625 116.05999755859375,-184.3800048828125 136.79400634765625,-171.57400512695312 C154.1490020751953,-160.85499572753906 158.85699462890625,-153.88699340820312 174.26600646972656,-133.7740020751953 C179.91900634765625,-126.39600372314453 189.37100219726562,-109.38400268554688 194.9429931640625,-103.44400024414062 C203.25100708007812,-94.32599639892578 216.47999572753906,-89.01100158691406 223.42999267578125,-82.91200256347656 C236.63800048828125,-71.3219985961914 245.20599365234375,-58.000999450683594 245.20599365234375,-36.09600067138672 C245.20599365234375,-2.6619999408721924 222.76699829101562,30.650999069213867 182.91299438476562,70.37300109863281 C161.875,91.28399658203125 120.49800109863281,119.98999786376953 104.8489990234375,129.23699951171875 C89.1989974975586,138.48399353027344 61.1609992980957,155.88999938964844 24.868999481201172,168.88900756835938 C-6.959000110626221,180.61300659179688 -54.67499923706055,190.64999389648438 -81.15299987792969,193.6009979248047 C-128.42599487304688,198.90199279785156 -182.64700317382812,198.94900512695312 -197.3679962158203,166.7469940185547 C-205.78399658203125,148.33799743652344 -211.2989959716797,108.09200286865234 -210.97000122070312,76.87799835205078 C-210.44400024414062,45.77299880981445 -209.16900634765625,30.007999420166016 -218.79400634765625,11.770999908447266 C-226.83200073242188,-3.4579999446868896 -244.35899353027344,-21.264999389648438 -245.86500549316406,-48.12900161743164 C-247.5709991455078,-78.08599853515625 -231.28700256347656,-85.20800018310547 -223.8300018310547,-89.9530029296875z"></path></g><g opacity="1" transform="matrix(1,0,0,1,263.3789978027344,217.11500549316406)"><path fill="url(#__lottie_element_17)" fill-opacity="1" d=" M-208.56900024414062,-71.67900085449219 C-194.49400329589844,-80.64700317382812 -177.10899353027344,-83.9020004272461 -174.5959930419922,-92.28900146484375 C-171.75599670410156,-101.77200317382812 -182.83599853515625,-126.73200225830078 -157.39100646972656,-141.4530029296875 C-140.6580047607422,-151.13499450683594 -120.04100036621094,-164.3719940185547 -60.75,-172.09300231933594 C-8.562999725341797,-178.88800048828125 15.956999778747559,-179.94900512695312 39.25899887084961,-179.47300720214844 C62.6349983215332,-178.9949951171875 111.85299682617188,-171.3040008544922 131.23199462890625,-159.31900024414062 C147.45199584960938,-149.28700256347656 152.468994140625,-144.0229949951172 166.8699951171875,-125.1989974975586 C172.1529998779297,-118.29399871826172 180.0570068359375,-105.572998046875 185.447998046875,-100.18199920654297 C191.2010040283203,-94.42900085449219 214.5780029296875,-79.42400360107422 221.07400512695312,-73.71499633789062 C233.41799926757812,-62.86800003051758 242.4250030517578,-40.64699935913086 242.4250030517578,-20.145999908447266 C242.4250030517578,11.142999649047852 214.33599853515625,35.457000732421875 177.906005859375,75.05500030517578 C159.09500122070312,95.50299835205078 112.88999938964844,118.80000305175781 98.26399993896484,127.45600128173828 C83.63899993896484,136.11000061035156 46.71900177001953,157.5540008544922 8.512999534606934,169.2449951171875 C-21.87700080871582,178.54299926757812 -54.14500045776367,186.48500061035156 -78.98699951171875,188.44200134277344 C-122.73699951171875,191.88800048828125 -159.34100341796875,192.01400756835938 -173.10000610351562,161.8769989013672 C-180.96499633789062,144.64700317382812 -184.36300659179688,107.23899841308594 -186.16700744628906,79.3290023803711 C-188.46800231933594,43.722999572753906 -186.6230010986328,37.720001220703125 -195.61900329589844,20.652000427246094 C-203.13099670410156,6.400000095367432 -224.8699951171875,-11.506999969482422 -226.1719970703125,-36.65399932861328 C-227.4239959716797,-60.83300018310547 -215.53799438476562,-67.23899841308594 -208.56900024414062,-71.67900085449219z"></path></g></g><g style="display: block;" transform="matrix(1.0069899559020996,0,0,0.9714800119400024,90.08670043945312,125.97982788085938)" opacity="1"><g opacity="1" transform="matrix(1,0,0,1,0,0)"><g opacity="1" transform="matrix(1,0,0,1,0,0)"><g opacity="1" transform="matrix(1,0,0,1,0,0)"></g></g></g><g opacity="1" transform="matrix(1,0,0,1,0,0)"><g opacity="1" transform="matrix(1,0,0,1,211.57200622558594,47.9010009765625)"><path stroke-linecap="round" stroke-linejoin="round" fill-opacity="0" stroke="rgb(229,144,85)" stroke-opacity="1" stroke-width="10.73" d=" M-44.78499984741211,21.076000213623047 C-44.78499984741211,21.076000213623047 -58.79100036621094,1.440000057220459 -28.225000381469727,-10.706000328063965 C-2.128999948501587,-21.076000213623047 29.770999908447266,-13.940999984741211 44.21500015258789,-4.670000076293945 C57.54899978637695,3.888000011444092 58.79100036621094,15.911999702453613 58.79100036621094,15.911999702453613"></path></g><g opacity="1" transform="matrix(1,0,0,1,215.4720001220703,57.24599838256836)"><path fill="rgb(255,255,255)" fill-opacity="1" d=" M-40.486000061035156,18.047000885009766 C-30.138999938964844,15.755000114440918 -22.256000518798828,8.355999946594238 -4.310999870300293,6.1570000648498535 C13.472000122070312,3.9779999256134033 28.209999084472656,5.001999855041504 39.053001403808594,7.2129998207092285 C43.79499816894531,8.178999900817871 56.481998443603516,12.968999862670898 54.89099884033203,4.616000175476074 C53.29999923706055,-3.736999988555908 36.19599914550781,-18.05699920654297 5.567999839782715,-18.45400047302246 C-25.059999465942383,-18.851999282836914 -42.257999420166016,-7.828000068664551 -45.71099853515625,-5.2230000495910645 C-48.85300064086914,-2.8510000705718994 -56.483001708984375,3.421999931335449 -53.69900131225586,10.979999542236328 C-50.915000915527344,18.538000106811523 -44.12099838256836,18.851999282836914 -40.486000061035156,18.047000885009766z"></path><path stroke-linecap="round" stroke-linejoin="bevel" fill-opacity="0" stroke="rgb(34,19,19)" stroke-opacity="1" stroke-width="7.804" d=" M-40.486000061035156,18.047000885009766 C-30.138999938964844,15.755000114440918 -22.256000518798828,8.355999946594238 -4.310999870300293,6.1570000648498535 C13.472000122070312,3.9779999256134033 28.209999084472656,5.001999855041504 39.053001403808594,7.2129998207092285 C43.79499816894531,8.178999900817871 56.481998443603516,12.968999862670898 54.89099884033203,4.616000175476074 C53.29999923706055,-3.736999988555908 36.19599914550781,-18.05699920654297 5.567999839782715,-18.45400047302246 C-25.059999465942383,-18.851999282836914 -42.257999420166016,-7.828000068664551 -45.71099853515625,-5.2230000495910645 C-48.85300064086914,-2.8510000705718994 -56.483001708984375,3.421999931335449 -53.69900131225586,10.979999542236328 C-50.915000915527344,18.538000106811523 -44.12099838256836,18.851999282836914 -40.486000061035156,18.047000885009766z"></path></g><g opacity="1" transform="matrix(1,0,0,1,210.24200439453125,85.5999984741211)"><path stroke-linecap="round" stroke-linejoin="round" fill-opacity="0" stroke="rgb(240,160,105)" stroke-opacity="1" stroke-width="9" d=" M-34.823001861572266,2.4070000648498535 C-34.823001861572266,2.4070000648498535 -31.30500030517578,5.408999919891357 -23.95800018310547,4.388999938964844 C-16.610000610351562,3.368000030517578 -3.240999937057495,-1.0579999685287476 7.11899995803833,-2.74399995803833 C15.696999549865723,-4.140999794006348 34.823001861572266,-5.4079999923706055 34.823001861572266,-5.4079999923706055"></path></g><g opacity="1" transform="matrix(1,0,0,1,298.8550109863281,61.867000579833984)"><path stroke-linecap="round" stroke-linejoin="round" fill-opacity="0" stroke="rgb(227,139,78)" stroke-opacity="1" stroke-width="6.828" d=" M-8.53600025177002,-6.283999919891357 C-8.53600025177002,-6.283999919891357 8.53600025177002,-0.35600000619888306 8.298999786376953,0.8299999833106995 C8.062999725341797,2.015000104904175 -5.2170000076293945,6.283999919891357 -5.2170000076293945,6.283999919891357"></path></g><g opacity="1" transform="matrix(1,0,0,1,0,0)"><g opacity="1" transform="matrix(1,0,0,1,225.4510040283203,51)"><path fill="rgb(34,19,19)" fill-opacity="1" d=" M-23.025999069213867,-9.559000015258789 C-23.025999069213867,-9.559000015258789 -27.20800018310547,-7.327000141143799 -25.687999725341797,0.39500001072883606 C-24.371999740600586,7.089000225067139 -18.03700065612793,11.517000198364258 -18.03700065612793,11.517000198364258 C-18.03700065612793,11.517000198364258 6.741000175476074,11.850000381469727 6.741000175476074,11.850000381469727 C6.741000175476074,11.850000381469727 23.073999404907227,12.793999671936035 23.073999404907227,12.793999671936035 C23.073999404907227,12.793999671936035 26.57200050354004,7.5279998779296875 26.889999389648438,3.427000045776367 C27.20800018310547,-0.6740000247955322 26.714000701904297,-3.0950000286102295 26.714000701904297,-3.0950000286102295 C26.714000701904297,-3.0950000286102295 23.621999740600586,-8.449999809265137 5.723999977111816,-10.621999740600586 C-12.17300033569336,-12.793999671936035 -23.025999069213867,-9.559000015258789 -23.025999069213867,-9.559000015258789z"></path></g><g opacity="1" transform="matrix(1,0,0,1,206.03700256347656,51.470001220703125)"><path fill="rgb(255,255,255)" fill-opacity="1" d=" M9.583000183105469,-0.9670000076293945 C9.848999977111816,1.6670000553131104 5.7729997634887695,4.236000061035156 0.48100000619888306,4.769999980926514 C-4.811999797821045,5.303999900817871 -9.317000389099121,3.5999999046325684 -9.583000183105469,0.9660000205039978 C-9.848999977111816,-1.6679999828338623 -5.7729997634887695,-4.236999988555908 -0.47999998927116394,-4.769999980926514 C4.811999797821045,-5.303999900817871 9.317000389099121,-3.6010000705718994 9.583000183105469,-0.9670000076293945z"></path></g><g opacity="1" transform="matrix(1,0,0,1,232.38600158691406,54.02199935913086)"><path fill="rgb(69,58,85)" fill-opacity="1" d=" M-11.562999725341797,2.1700000762939453 C-11.562999725341797,2.1700000762939453 -8.67300033569336,-5.438000202178955 1.2170000076293945,-5.590000152587891 C6.445000171661377,-5.670000076293945 12.628000259399414,0.8009999990463257 11.71500015258789,3.234999895095825 C10.802000045776367,5.670000076293945 7.607999801635742,4.605000019073486 0.30399999022483826,4.1479997634887695 C-4.124000072479248,3.871999979019165 -9.281999588012695,5.364999771118164 -10.956000328063965,4.605000019073486 C-12.628999710083008,3.8440001010894775 -11.562999725341797,2.1700000762939453 -11.562999725341797,2.1700000762939453z"></path></g><g opacity="1" transform="matrix(1,0,0,1,242.6929931640625,51.22100067138672)"><path fill="rgb(255,255,255)" fill-opacity="1" d=" M13.293000221252441,0.15000000596046448 C13.475000381469727,1.9520000219345093 11.26099967956543,1.7740000486373901 9.267000198364258,1.975000023841858 C7.2729997634887695,2.177000045776367 3.7709999084472656,1.6510000228881836 3.5880000591278076,-0.15000000596046448 C3.4070000648498535,-1.9520000219345093 5.688000202178955,-3.559000015258789 7.614999771118164,-3.005000114440918 C10.946000099182129,-2.046999931335449 13.111000061035156,-1.6510000228881836 13.293000221252441,0.15000000596046448z"></path></g></g></g><g opacity="1" transform="matrix(1.0399999618530273,0,0,1.0399999618530273,-5.427036285400391,-2.5689163208007812)"><g opacity="1" transform="matrix(1,0,0,1,78.62000274658203,84.35700225830078)"><path stroke-linecap="round" stroke-linejoin="round" fill-opacity="0" stroke="rgb(240,160,105)" stroke-opacity="1" stroke-width="7.804" d=" M-18.69700050354004,-0.7379999756813049 C-18.69700050354004,-0.7379999756813049 -5.413000106811523,1.968000054359436 1.7209999561309814,3.197999954223633 C8.855999946594238,4.427999973297119 10.57800006866455,3.444000005722046 14.022000312805176,0.7379999756813049 C17.465999603271484,-1.968000054359436 18.69700050354004,-4.427999973297119 18.69700050354004,-4.427999973297119"></path></g><g opacity="1" transform="matrix(1,0,0,1,61.18600082397461,50.83599853515625)"><path stroke-linecap="round" stroke-linejoin="round" fill-opacity="0" stroke="rgb(229,144,85)" stroke-opacity="1" stroke-width="9.755" d=" M-36.79800033569336,1.1890000104904175 C-36.79800033569336,1.1890000104904175 -27.959999084472656,-11.72700023651123 0.42500001192092896,-10.368000030517578 C28.809999465942383,-9.008000373840332 36.79800033569336,10.708000183105469 36.79800033569336,10.708000183105469 C36.79800033569336,10.708000183105469 23.201000213623047,11.727999687194824 23.201000213623047,11.727999687194824 C23.201000213623047,11.727999687194824 -21.840999603271484,4.589000225067139 -21.840999603271484,4.589000225067139 C-21.840999603271484,4.589000225067139 -36.79800033569336,1.1890000104904175 -36.79800033569336,1.1890000104904175z"></path></g><g opacity="1" transform="matrix(1,0,0,1,58.0989990234375,60.53200149536133)"><path fill="rgb(255,255,255)" fill-opacity="1" d=" M-25.722000122070312,2.9030001163482666 C-17.701000213623047,3.8919999599456787 -7.586999893188477,4.34499979019165 1.9600000381469727,5.936999797821045 C11.505999565124512,7.5279998779296875 25.655000686645508,12.057999610900879 30.360000610351562,13.194000244140625 C37.0099983215332,14.798999786376953 38.38600158691406,8.836000442504883 34.257999420166016,4.249000072479248 C30.67799949645996,0.2720000147819519 20.382999420166016,-13.236000061035156 -5.133999824523926,-14.086999893188477 C-26.482999801635742,-14.798999786376953 -34.542999267578125,-9.970000267028809 -35.91899871826172,-5.61299991607666 C-38.38600158691406,2.197999954223633 -29.10300064086914,2.4860000610351562 -25.722000122070312,2.9030001163482666z"></path><path stroke-linecap="butt" stroke-linejoin="miter" fill-opacity="0" stroke-miterlimit="10" stroke="rgb(34,19,19)" stroke-opacity="1" stroke-width="7.804" d=" M-25.722000122070312,2.9030001163482666 C-17.701000213623047,3.8919999599456787 -7.586999893188477,4.34499979019165 1.9600000381469727,5.936999797821045 C11.505999565124512,7.5279998779296875 25.655000686645508,12.057999610900879 30.360000610351562,13.194000244140625 C37.0099983215332,14.798999786376953 38.38600158691406,8.836000442504883 34.257999420166016,4.249000072479248 C30.67799949645996,0.2720000147819519 20.382999420166016,-13.236000061035156 -5.133999824523926,-14.086999893188477 C-26.482999801635742,-14.798999786376953 -34.542999267578125,-9.970000267028809 -35.91899871826172,-5.61299991607666 C-38.38600158691406,2.197999954223633 -29.10300064086914,2.4860000610351562 -25.722000122070312,2.9030001163482666z"></path></g><g opacity="1" transform="matrix(1.1786799430847168,0,0,1.1028800010681152,-17.55066680908203,-6.2629241943359375)"><g opacity="1" transform="matrix(1,0,0,1,74.25499725341797,60.875999450683594)"><path fill="rgb(34,19,19)" fill-opacity="1" d=" M-14.366999626159668,-9.256999969482422 C-14.366999626159668,-9.256999969482422 -16.489999771118164,-6.75 -16.68199920654297,-3.4709999561309814 C-16.875,-0.19300000369548798 -14.560999870300293,3.4719998836517334 -14.560999870300293,3.4719998836517334 C-14.560999870300293,3.4719998836517334 3.760999917984009,10.993000030517578 4.340000152587891,10.993000030517578 C4.918000221252441,10.993000030517578 11.784000396728516,10.881999969482422 13.392999649047852,9.368000030517578 C15.00100040435791,7.854000091552734 16.875,2.121000051498413 6.8460001945495605,-4.050000190734863 C-3.181999921798706,-10.220999717712402 -12.826000213623047,-10.993000030517578 -12.826000213623047,-10.993000030517578 C-12.826000213623047,-10.993000030517578 -14.366999626159668,-9.256999969482422 -14.366999626159668,-9.256999969482422z"></path></g><g opacity="1" transform="matrix(1,0,0,1,73.71499633789062,62.82500076293945)"><path fill="rgb(69,58,85)" fill-opacity="1" d=" M-8.440999984741211,-0.2939999997615814 C-8.440999984741211,-0.2939999997615814 -5.243000030517578,-5.449999809265137 2.0169999599456787,-4.1539998054504395 C5.855000019073486,-3.4690001010894775 9.458999633789062,2.1459999084472656 8.444999694824219,3.7980000972747803 C7.431000232696533,5.449999809265137 5.24399995803833,4.216000080108643 -0.03700000047683716,2.8429999351501465 C-3.23799991607666,2.009999990463257 -7.22599983215332,2.369999885559082 -8.342000007629395,1.5740000009536743 C-9.458999633789062,0.7789999842643738 -8.440999984741211,-0.2939999997615814 -8.440999984741211,-0.2939999997615814z"></path></g><g opacity="1" transform="matrix(1,0,0,1,58.91600036621094,57.46900177001953)"><path fill="rgb(255,255,255)" fill-opacity="1" d=" M7.6529998779296875,0.9810000061988831 C7.426000118255615,2.75 3.815999984741211,3.74399995803833 -0.4099999964237213,3.2019999027252197 C-4.63700008392334,2.6589999198913574 -7.880000114440918,0.7870000004768372 -7.6529998779296875,-0.9810000061988831 C-7.426000118255615,-2.749000072479248 -3.815999984741211,-3.74399995803833 0.41100001335144043,-3.2019999027252197 C4.63700008392334,-2.6600000858306885 7.880000114440918,-0.7879999876022339 7.6529998779296875,0.9810000061988831z"></path></g><g opacity="1" transform="matrix(1,0,0,1,82.35600280761719,62.08000183105469)"><path fill="rgb(255,255,255)" fill-opacity="1" d=" M4.519999980926514,0.6729999780654907 C4.519999980926514,2.0510001182556152 3.4030001163482666,3.1679999828338623 2.0250000953674316,3.1679999828338623 C0.6470000147819519,3.1679999828338623 -0.4690000116825104,2.0510001182556152 -0.4690000116825104,0.6729999780654907 C-0.4690000116825104,-0.7049999833106995 0.6470000147819519,-1.8220000267028809 2.0250000953674316,-1.8220000267028809 C3.4030001163482666,-1.8220000267028809 4.519999980926514,-0.7049999833106995 4.519999980926514,0.6729999780654907z"></path></g></g></g></g><g style="display: block;" transform="matrix(1.0069899559020996,0,0,0.9714800119400024,8.142901420593262,158.64971923828125)" opacity="1"><g opacity="1" transform="matrix(1,0,0,1,78.6449966430664,64.21199798583984)"><path stroke-linecap="round" stroke-linejoin="round" fill-opacity="0" stroke="rgb(226,138,78)" stroke-opacity="0.67" stroke-width="8.779" d=" M-21.88599967956543,10.822999954223633 C-21.88599967956543,10.822999954223633 -22.16200065612793,-3.9110000133514404 -8.333999633789062,-6.984000205993652 C8.942999839782715,-10.822999954223633 19.60099983215332,-0.9570000171661377 22.16200065612793,5.189000129699707"></path></g><g opacity="1" transform="matrix(1,0,0,1,42.34400177001953,70.20800018310547)"><path stroke-linecap="round" stroke-linejoin="round" fill-opacity="0" stroke="rgb(226,138,78)" stroke-opacity="0.67" stroke-width="6.828" d=" M7.349999904632568,-25.45400047302246 C7.349999904632568,-25.45400047302246 -9.142000198364258,-21.509000778198242 -7.708000183105469,-12.187999725341797 C-6.27400016784668,-2.868000030517578 -4.48199987411499,-1.0750000476837158 -5.557000160217285,4.660999774932861 C-6.631999969482422,10.397000312805176 -8.425000190734863,14.697999954223633 -2.688999891281128,18.641000747680664 C3.046999931335449,22.584999084472656 9.142000198364258,25.45400047302246 9.142000198364258,25.45400047302246"></path></g><g opacity="1" transform="matrix(1,0,0,1,33.56100082397461,78.81199645996094)"><path stroke-linecap="round" stroke-linejoin="round" fill-opacity="0" stroke="rgb(226,138,78)" stroke-opacity="0.67" stroke-width="6.828" d=" M-12.189000129699707,-31.9060001373291 C-12.189000129699707,-31.9060001373291 -16.490999221801758,-22.944000244140625 -11.831000328063965,-12.906000137329102 C-7.170000076293945,-2.868000030517578 -6.09499979019165,0.35899999737739563 -6.09499979019165,5.736000061035156 C-6.09499979019165,11.11400032043457 -8.961999893188477,20.076000213623047 0.7170000076293945,25.0939998626709 C10.395999908447266,30.11400032043457 16.490999221801758,31.9060001373291 16.490999221801758,31.9060001373291"></path></g><g opacity="1" transform="matrix(1,0,0,1,60.060001373291016,34.35499954223633)"><path stroke-linecap="round" stroke-linejoin="round" fill-opacity="0" stroke="rgb(226,138,78)" stroke-opacity="0.67" stroke-width="6.828" d=" M-26.91699981689453,8.560999870300293 C-26.91699981689453,8.560999870300293 -19.025999069213867,0.7599999904632568 -4.328000068664551,-3.9000000953674316 C10.369999885559082,-8.560999870300293 26.91699981689453,-3.940000057220459 26.91699981689453,-3.940000057220459"></path></g><g opacity="1" transform="matrix(1,0,0,1,442.7959899902344,77.7300033569336)"><path stroke-linecap="round" stroke-linejoin="round" fill-opacity="0" stroke="rgb(226,138,78)" stroke-opacity="1" stroke-width="11.706" d=" M-36.481998443603516,-48.46500015258789 C-36.481998443603516,-48.46500015258789 13.211000442504883,-46.79800033569336 25.33099937438965,-17.434999465942383 C36.481998443603516,9.583000183105469 23.724000930786133,25.759000778198242 18.333999633789062,33.36800003051758 C12.223999977111816,41.99399948120117 0.7210000157356262,48.46500015258789 0.7210000157356262,48.46500015258789"></path></g></g><g style="display: block;" transform="matrix(1.0069899559020996,0,0,0.9714800119400024,32.7356071472168,355.4783630371094)" opacity="1"><g opacity="1" transform="matrix(1,0,0,1,179.28900146484375,45.176998138427734)"><path stroke-linecap="round" stroke-linejoin="round" fill-opacity="0" stroke="rgb(222,141,87)" stroke-opacity="1" stroke-width="8" d=" M-131.8419952392578,1.8040000200271606 C-131.8419952392578,1.8040000200271606 -107.33599853515625,28.106000900268555 -41.16999816894531,27.59000015258789 C24.996000289916992,27.075000762939453 77.43900299072266,-1.8040000200271606 94.59300231933594,-9.539999961853027 C111.74700164794922,-17.275999069213867 131.8419952392578,-28.10700035095215 131.8419952392578,-28.10700035095215"></path></g><g opacity="1" transform="matrix(1,0,0,1,181.50399780273438,55.49100112915039)"><path stroke-linecap="round" stroke-linejoin="round" fill-opacity="0" stroke="rgb(222,141,87)" stroke-opacity="1" stroke-width="8" d=" M-137.75,2.822000026702881 C-137.75,2.822000026702881 -133.64999389648438,18.291000366210938 -110.125,27.058000564575195 C-86.5989990234375,35.82500076293945 -46.11000061035156,39.06399917602539 5.854000091552734,26.56100082397461 C45.17499923706055,17.100000381469727 84.80699920654297,0.7799999713897705 101.2229995727539,-7.988999843597412 C123.62699890136719,-19.95599937438965 162.447998046875,-45.11000061035156 162.447998046875,-45.11000061035156"></path></g></g><g style="display: block;" transform="matrix(1.0069899559020996,0,0,0.9714800119400024,69.94892120361328,244.27403259277344)" opacity="1"><g opacity="1" transform="matrix(1,0,0,1,171.4709930419922,71.84600067138672)"><path fill="rgb(57,10,3)" fill-opacity="1" d=" M171.2209930419922,-61.6150016784668 C171.2209930419922,-61.6150016784668 146.31300354003906,-15.178000450134277 101.85199737548828,18.268999099731445 C57.39099884033203,51.7140007019043 -4.089000225067139,55.71900177001953 -20.1200008392334,57.106998443603516 C-44.79899978637695,59.24399948120117 -102.23500061035156,60.0359992980957 -120.94000244140625,56.861000061035156 C-142.19000244140625,53.255001068115234 -167.2480010986328,55.94599914550781 -166.48199462890625,20.31800079345703 C-165.71499633789062,-15.309000015258789 -152.0570068359375,-46.14799880981445 -152.0570068359375,-49.055999755859375 C-152.0570068359375,-51.96500015258789 -151.5449981689453,-49.803001403808594 -151.5449981689453,-49.803001403808594 C-151.5449981689453,-49.803001403808594 -145.87399291992188,-20.64900016784668 -29.840999603271484,-21.283000946044922 C66.0510025024414,-21.805999755859375 140.7740020751953,-63.597999572753906 140.7740020751953,-63.597999572753906 C140.7740020751953,-63.597999572753906 163.00399780273438,-71.59600067138672 163.00399780273438,-71.59600067138672 C163.00399780273438,-71.59600067138672 171.2209930419922,-61.6150016784668 171.2209930419922,-61.6150016784668z"></path></g></g><g style="display: block;" transform="matrix(0.9829663634300232,0.024915015324950218,-0.021685054525732994,0.7962610721588135,73.8583984375,282.6988525390625)" opacity="1"><g opacity="1" transform="matrix(1,0,0,1,162.3300018310547,48.05099868774414)"><path fill="rgb(255,255,255)" fill-opacity="1" d=" M162.0800018310547,-47.80099868774414 C162.0800018310547,-47.80099868774414 58.02899932861328,8.67199993133545 -26.902000427246094,17.1200008392334 C-111.83300018310547,25.569000244140625 -162.0800018310547,1.555999994277954 -162.0800018310547,1.555999994277954 C-162.0800018310547,1.555999994277954 -161.63499450683594,32.23899841308594 -138.0679931640625,38.4640007019043 C-114.5009994506836,44.68899917602539 -28.236000061035156,46.91299819946289 -9.5600004196167,47.356998443603516 C9.116000175476074,47.801998138427734 43.79999923706055,45.13399887084961 74.03700256347656,32.23899841308594 C104.27400207519531,19.3439998626709 127.39600372314453,-0.22200000286102295 137.62399291992188,-9.5600004196167 C147.8509979248047,-18.898000717163086 162.0800018310547,-47.80099868774414 162.0800018310547,-47.80099868774414z"></path></g><g opacity="1" transform="matrix(1,0,0,1,287.52398681640625,35.387001037597656)"><path fill="rgb(162,162,206)" fill-opacity="1" d=" M-10.758000373840332,-9.864999771118164 C-10.758000373840332,-9.864999771118164 -3.632999897003174,17.04599952697754 -3.632999897003174,17.04599952697754 C-3.632999897003174,17.04599952697754 3.313999891281128,11.411999702453613 5.060999870300293,8.50100040435791 C6.807000160217285,5.590000152587891 10.758000373840332,1.753999948501587 10.758000373840332,1.753999948501587 C10.758000373840332,1.753999948501587 4.184999942779541,-17.04599952697754 4.184999942779541,-17.04599952697754 C4.184999942779541,-17.04599952697754 -3.190000057220459,-13.163999557495117 -5.7129998207092285,-12.38700008392334 C-8.236000061035156,-11.611000061035156 -10.758000373840332,-9.864999771118164 -10.758000373840332,-9.864999771118164z"></path></g><g opacity="1" transform="matrix(1,0,0,1,227.6790008544922,63.71699905395508)"><path fill="rgb(162,162,206)" fill-opacity="1" d=" M-14.8149995803833,-13.161999702453613 C-14.8149995803833,-13.161999702453613 -1.8760000467300415,19.406999588012695 -1.8760000467300415,19.406999588012695 C-1.8760000467300415,19.406999588012695 3.365000009536743,18.825000762939453 8.022000312805176,15.913999557495117 C12.680000305175781,13.003000259399414 14.8149995803833,11.449999809265137 14.8149995803833,11.449999809265137 C14.8149995803833,11.449999809265137 2.7839999198913574,-19.406999588012695 2.7839999198913574,-19.406999588012695 C2.7839999198913574,-19.406999588012695 -2.3959999084472656,-17.08099937438965 -7.172999858856201,-15.807999610900879 C-11.038999557495117,-14.776000022888184 -14.8149995803833,-13.161999702453613 -14.8149995803833,-13.161999702453613z"></path></g><g opacity="1" transform="matrix(1,0,0,1,162.01400756835938,79.8740005493164)"><path fill="rgb(162,162,206)" fill-opacity="1" d=" M-7.625,-14.156000137329102 C-7.625,-14.156000137329102 -4.019000053405762,15.902000427246094 -4.019000053405762,15.902000427246094 C-4.019000053405762,15.902000427246094 0.8330000042915344,16.67799949645996 3.3559999465942383,16.67799949645996 C3.3559999465942383,16.67799949645996 7.625,16.67799949645996 7.625,16.67799949645996 C7.625,16.67799949645996 6.1539998054504395,-16.67799949645996 6.1539998054504395,-16.67799949645996 C6.1539998054504395,-16.67799949645996 -7.625,-14.156000137329102 -7.625,-14.156000137329102z"></path></g><g opacity="1" transform="matrix(1,0,0,1,112.99700164794922,82.01899719238281)"><path fill="rgb(162,162,206)" fill-opacity="1" d=" M-9.319999694824219,-12.253999710083008 C-9.319999694824219,-12.253999710083008 -4.264999866485596,12.032999992370605 -4.264999866485596,12.032999992370605 C-4.264999866485596,12.032999992370605 -0.382999986410141,13.390999794006348 2.5280001163482666,13.390999794006348 C5.439000129699707,13.390999794006348 9.319999694824219,12.225000381469727 9.319999694824219,12.225000381469727 C9.319999694824219,12.225000381469727 7.767000198364258,-13.390999794006348 7.767000198364258,-13.390999794006348 C7.767000198364258,-13.390999794006348 4.117000102996826,-12.904999732971191 -1.1039999723434448,-12.479000091552734 C-3.2320001125335693,-12.305000305175781 -9.319999694824219,-12.253999710083008 -9.319999694824219,-12.253999710083008z"></path></g><g opacity="1" transform="matrix(1,0,0,1,80.26799774169922,81.33899688720703)"><path fill="rgb(162,162,206)" fill-opacity="1" d=" M-10.77299976348877,-12.883999824523926 C-10.77299976348877,-12.883999824523926 -5.916999816894531,11.720000267028809 -5.916999816894531,11.720000267028809 C-5.916999816894531,11.720000267028809 -2.812000036239624,12.883999824523926 2.815999984741211,12.689000129699707 C8.444000244140625,12.494999885559082 10.77299976348877,11.331000328063965 10.77299976348877,11.331000328063965 C10.77299976348877,11.331000328063965 1.746999979019165,-11.803000450134277 1.746999979019165,-11.803000450134277 C1.746999979019165,-11.803000450134277 -10.77299976348877,-12.883999824523926 -10.77299976348877,-12.883999824523926z"></path></g><g opacity="1" transform="matrix(1,0,0,1,51.582000732421875,77.53500366210938)"><path fill="rgb(162,162,206)" fill-opacity="1" d=" M-10.347999572753906,-13.387999534606934 C-10.347999572753906,-13.387999534606934 -2.4609999656677246,10.866000175476074 -2.4609999656677246,10.866000175476074 C-2.4609999656677246,10.866000175476074 0.44999998807907104,12.61299991607666 3.555000066757202,13.00100040435791 C6.659999847412109,13.387999534606934 10.347999572753906,13.00100040435791 10.347999572753906,13.00100040435791 C10.347999572753906,13.00100040435791 1.218999981880188,-11.09000015258789 1.218999981880188,-11.09000015258789 C1.218999981880188,-11.09000015258789 -2.615999937057495,-11.711999893188477 -5.1479997634887695,-12.234000205993652 C-6.5320000648498535,-12.519000053405762 -10.347999572753906,-13.387999534606934 -10.347999572753906,-13.387999534606934z"></path></g><g opacity="1" transform="matrix(1,0,0,1,24.850000381469727,72.14800262451172)"><path fill="rgb(162,162,206)" fill-opacity="1" d=" M3.875999927520752,-9.53600025177002 C3.875999927520752,-9.53600025177002 8.163000106811523,13.92300033569336 8.163000106811523,13.92300033569336 C8.163000106811523,13.92300033569336 4.863999843597412,13.92300033569336 0.4000000059604645,11.788000106811523 C-4.063000202178955,9.652999877929688 -5.809999942779541,6.936999797821045 -5.809999942779541,6.936999797821045 C-5.809999942779541,6.936999797821045 -8.163000106811523,-13.92300033569336 -8.163000106811523,-13.92300033569336 C-8.163000106811523,-13.92300033569336 -5.480000019073486,-12.76099967956543 -1.9869999885559082,-11.789999961853027 C1.50600004196167,-10.819999694824219 3.4560000896453857,-10.539999961853027 3.4560000896453857,-10.539999961853027 C3.4560000896453857,-10.539999961853027 3.875999927520752,-9.53600025177002 3.875999927520752,-9.53600025177002z"></path></g><g opacity="1" transform="matrix(1,0,0,1,158.3990020751953,60.67499923706055)"><path fill="rgb(162,162,206)" fill-opacity="1" d=" M-148.31500244140625,14.402999877929688 C-148.31500244140625,14.402999877929688 -97.4219970703125,36.69300079345703 -43.30099868774414,32.06700134277344 C24.238000869750977,26.29400062561035 37.698001861572266,20.4060001373291 67.49600219726562,9.0600004196167 C131.66400146484375,-15.373000144958496 148.7259979248047,-50.242000579833984 148.7259979248047,-50.242000579833984 C148.7259979248047,-50.242000579833984 153.74000549316406,-41.058998107910156 153.74000549316406,-41.058998107910156 C153.74000549316406,-41.058998107910156 136.4040069580078,-10.949000358581543 96.25800323486328,12.77400016784668 C56.112998962402344,36.49700164794922 -2.8929998874664307,40.19300079345703 -13.842000007629395,40.650001525878906 C-24.791000366210938,41.10599899291992 -107.76000213623047,46.571998596191406 -119.94000244140625,44.279998779296875 C-141.2779998779297,40.26599884033203 -146.9199981689453,29.8700008392334 -152.8509979248047,22.114999771118164 C-152.8509979248047,22.114999771118164 -153.74000549316406,12.317999839782715 -153.74000549316406,12.317999839782715 C-153.74000549316406,12.317999839782715 -148.31500244140625,14.402999877929688 -148.31500244140625,14.402999877929688z"></path></g><g opacity="1" transform="matrix(1,0,0,1,162.8780059814453,40.82899856567383)"><path fill="rgb(184,184,221)" fill-opacity="1" d=" M-157.78399658203125,12.458000183105469 C-157.78399658203125,12.458000183105469 -104.74400329589844,39.31999969482422 -14.07699966430664,26.58799934387207 C76.59100341796875,13.854999542236328 154.6999969482422,-33.47999954223633 154.6999969482422,-33.47999954223633 C154.6999969482422,-33.47999954223633 157.78399658203125,-39.31999969482422 157.78399658203125,-39.31999969482422 C157.78399658203125,-39.31999969482422 64.00499725341797,11.149999618530273 -22.731000900268555,19.71500015258789 C-109.46800231933594,28.280000686645508 -157.01300048828125,9.371999740600586 -157.01300048828125,9.371999740600586 C-157.01300048828125,9.371999740600586 -157.78399658203125,12.458000183105469 -157.78399658203125,12.458000183105469z"></path></g></g><g style="display: block;" transform="matrix(0.9887735247612,0,0,0.9714800119400024,82.58766174316406,237.75830078125)" opacity="1"><g opacity="1" transform="matrix(1,0,0,1,168.61000061035156,45.14899826049805)"><path fill="rgb(255,255,255)" fill-opacity="1" d=" M-168.36000061035156,16.082000732421875 C-168.36000061035156,16.082000732421875 -143.58099365234375,31.906999588012695 -96.51000213623047,38.0880012512207 C-44.63800048828125,44.89899826049805 -2.486999988555908,40.67399978637695 62.48400115966797,20.23900032043457 C130.13600158691406,-1.0379999876022339 162.6739959716797,-19.906999588012695 162.6739959716797,-19.906999588012695 C162.6739959716797,-19.906999588012695 168.36000061035156,-36.51599884033203 168.36000061035156,-36.51599884033203 C168.36000061035156,-36.51599884033203 156.3090057373047,-44.89899826049805 156.3090057373047,-44.89899826049805 C156.3090057373047,-44.89899826049805 45.23099899291992,15.04800033569336 -66.3740005493164,15.880000114440918 C-136.5850067138672,16.40399932861328 -163.8300018310547,-18.701000213623047 -163.8300018310547,-18.701000213623047 C-163.8300018310547,-18.701000213623047 -168.36000061035156,16.082000732421875 -168.36000061035156,16.082000732421875z"></path></g><g opacity="1" transform="matrix(1,0,0,1,142.85899353027344,70.75199890136719)"><path fill="rgb(162,162,206)" fill-opacity="1" d=" M-6.144999980926514,-13.812999725341797 C-6.144999980926514,-13.812999725341797 -6.565000057220459,14.86400032043457 -6.565000057220459,14.86400032043457 C-6.565000057220459,14.86400032043457 -1.7549999952316284,14.472000122070312 0.9980000257492065,14.232999801635742 C3.7660000324249268,13.993000030517578 6.565000057220459,13.49899959564209 6.565000057220459,13.49899959564209 C6.565000057220459,13.49899959564209 6.565000057220459,-14.86400032043457 6.565000057220459,-14.86400032043457 C6.565000057220459,-14.86400032043457 -6.144999980926514,-13.812999725341797 -6.144999980926514,-13.812999725341797z"></path></g><g opacity="1" transform="matrix(1,0,0,1,204.34800720214844,58.62200164794922)"><path fill="rgb(162,162,206)" fill-opacity="1" d=" M-8.720000267028809,-11.364999771118164 C-8.720000267028809,-11.364999771118164 -7.067999839782715,16.548999786376953 -7.067999839782715,16.548999786376953 C-7.067999839782715,16.548999786376953 -1.8300000429153442,15.282999992370605 0.8429999947547913,14.583999633789062 C3.6760001182556152,13.843999862670898 8.720000267028809,12.281000137329102 8.720000267028809,12.281000137329102 C8.720000267028809,12.281000137329102 8.175999641418457,-16.548999786376953 8.175999641418457,-16.548999786376953 C8.175999641418457,-16.548999786376953 -8.720000267028809,-11.364999771118164 -8.720000267028809,-11.364999771118164z"></path></g><g opacity="1" transform="matrix(1,0,0,1,274.8550109863281,35.619998931884766)"><path fill="rgb(162,162,206)" fill-opacity="1" d=" M-9.925999641418457,-11.184000015258789 C-9.925999641418457,-11.184000015258789 -9.026000022888184,18.086999893188477 -9.026000022888184,18.086999893188477 C-9.026000022888184,18.086999893188477 -2.4130001068115234,15.961000442504883 0.3499999940395355,14.826000213623047 C3.259999990463257,13.630000114440918 8.512999534606934,10.824999809265137 8.512999534606934,10.824999809265137 C8.512999534606934,10.824999809265137 9.927000045776367,-18.086999893188477 9.927000045776367,-18.086999893188477 C9.927000045776367,-18.086999893188477 -9.925999641418457,-11.184000015258789 -9.925999641418457,-11.184000015258789z"></path></g><g opacity="1" transform="matrix(1,0,0,1,97.69100189208984,73.08200073242188)"><path fill="rgb(162,162,206)" fill-opacity="1" d=" M6.489999771118164,-12.769000053405762 C6.489999771118164,-12.769000053405762 4.718999862670898,12.937000274658203 4.718999862670898,12.937000274658203 C4.718999862670898,12.937000274658203 0.7580000162124634,12.85200023651123 -1.9390000104904175,12.767999649047852 C-4.636000156402588,12.684000015258789 -6.489999771118164,12.515000343322754 -6.489999771118164,12.515000343322754 C-6.489999771118164,12.515000343322754 -6.406000137329102,-12.937000274658203 -6.406000137329102,-12.937000274658203 C-6.406000137329102,-12.937000274658203 -2.5290000438690186,-12.684000015258789 0.42100000381469727,-12.769000053405762 C3.371000051498413,-12.852999687194824 6.489999771118164,-12.769000053405762 6.489999771118164,-12.769000053405762z"></path></g><g opacity="1" transform="matrix(1,0,0,1,55.430999755859375,66.8239974975586)"><path fill="rgb(162,162,206)" fill-opacity="1" d=" M-7.684000015258789,-15.288999557495117 C-7.684000015258789,-15.288999557495117 -8.277999877929688,11.866999626159668 -8.277999877929688,11.866999626159668 C-8.277999877929688,11.866999626159668 -5.736999988555908,12.769000053405762 -2.0339999198913574,13.631999969482422 C1.6690000295639038,14.496000289916992 5.572000026702881,15.288999557495117 5.572000026702881,15.288999557495117 C5.572000026702881,15.288999557495117 8.277999877929688,-9.706999778747559 8.277999877929688,-9.706999778747559 C8.277999877929688,-9.706999778747559 -0.27799999713897705,-12.574000358581543 -0.27799999713897705,-12.574000358581543 C-0.27799999713897705,-12.574000358581543 -7.684000015258789,-15.288999557495117 -7.684000015258789,-15.288999557495117z"></path></g><g opacity="1" transform="matrix(1,0,0,1,22.298999786376953,55.23699951171875)"><path fill="rgb(162,162,206)" fill-opacity="1" d=" M5.129000186920166,-11.418000221252441 C5.129000186920166,-11.418000221252441 5.239999771118164,18.207000732421875 5.239999771118164,18.207000732421875 C5.239999771118164,18.207000732421875 2.3329999446868896,17.548999786376953 -1.0210000276565552,16.177000045776367 C-4.127999782562256,14.904999732971191 -4.195000171661377,14.696999549865723 -4.195000171661377,14.696999549865723 C-4.195000171661377,14.696999549865723 -5.239999771118164,-18.207000732421875 -5.239999771118164,-18.207000732421875 C-5.239999771118164,-18.207000732421875 -0.796999990940094,-15.491000175476074 1.0549999475479126,-14.256999969482422 C2.9059998989105225,-13.02299976348877 5.129000186920166,-11.418000221252441 5.129000186920166,-11.418000221252441z"></path></g><g opacity="1" transform="matrix(1,0,0,1,165.27000427246094,37.112998962402344)"><path fill="rgb(162,162,206)" fill-opacity="1" d=" M-159.64999389648438,-11.809000015258789 C-159.64999389648438,-11.809000015258789 -144.81900024414062,1.2649999856948853 -124.4520034790039,9.979999542236328 C-103.89800262451172,18.774999618530273 -75.447998046875,23.766000747680664 -48.40800094604492,22.849000930786133 C5.423999786376953,21.024999618530273 106.85199737548828,-15.055000305175781 120.99500274658203,-19.617000579833984 C135.13800048828125,-24.179000854492188 159.64999389648438,-36.862998962402344 159.64999389648438,-36.862998962402344 C159.64999389648438,-36.862998962402344 159.4409942626953,-29.229000091552734 159.4409942626953,-29.229000091552734 C159.4409942626953,-29.229000091552734 99.43499755859375,21.132999420166016 -42.9109992980957,31.281999588012695 C-121.19200134277344,36.862998962402344 -159.64999389648438,-8.456000328063965 -159.64999389648438,-8.456000328063965 C-159.64999389648438,-8.456000328063965 -159.64999389648438,-11.809000015258789 -159.64999389648438,-11.809000015258789z"></path></g></g><g style="display: block;" transform="matrix(1.0069899559020996,0,0,0.9714800119400024,46.28466033935547,190.26654052734375)" opacity="1"><g opacity="1" transform="matrix(1,0,0,1,201.63299560546875,72.66200256347656)"><path stroke-linecap="round" stroke-linejoin="round" fill-opacity="0" stroke="rgb(227,139,78)" stroke-opacity="1" stroke-width="10.73" d=" M-165.78500366210938,-28.871000289916992 C-165.78500366210938,-28.871000289916992 -171.04100036621094,-5.7170000076293945 -149.91099548339844,6.547999858856201 C-128.78199768066406,18.812999725341797 -85.19000244140625,30.687000274658203 -36.6619987487793,28.299999237060547 C13.237000465393066,25.84600067138672 56.255001068115234,12.157999992370605 86.26699829101562,2.4670000076293945 C118.1969985961914,-7.843999862670898 171.04100036621094,-30.687000274658203 171.04100036621094,-30.687000274658203"></path></g><g opacity="1" transform="matrix(1,0,0,1,196.0330047607422,126.65599822998047)"><path stroke-linecap="round" stroke-linejoin="round" fill-opacity="0" stroke="rgb(32,15,13)" stroke-opacity="1" stroke-width="9.5" d=" M172.2830047607422,-72.37899780273438 C172.2830047607422,-72.37899780273438 166.6580047607422,-61.832000732421875 166.6580047607422,-61.832000732421875 C166.6580047607422,-61.832000732421875 151.2100067138672,-16.77899932861328 106.7490005493164,16.66699981689453 C62.28799819946289,50.11199951171875 -11.170999526977539,57.814998626708984 -27.20199966430664,59.20399856567383 C-51.88100051879883,61.34000015258789 -107.98999786376953,59.71099853515625 -129.48800659179688,57.35900115966797 C-151.02000427246094,55.00299835205078 -167.2830047607422,46.66699981689453 -166.51699829101562,11.038999557495117 C-165.75,-24.58799934387207 -153.1179962158203,-45.3650016784668 -153.1179962158203,-48.27299880981445 C-153.1179962158203,-51.180999755859375 -152.60699462890625,-49.020999908447266 -152.60699462890625,-49.020999908447266"></path></g><g opacity="1" transform="matrix(1,0,0,1,202.18899536132812,78.6510009765625)"><path stroke-linecap="round" stroke-linejoin="round" fill-opacity="0" stroke="rgb(57,39,11)" stroke-opacity="1" stroke-width="9.856" d=" M-165.78500366210938,-28.871000289916992 C-165.78500366210938,-28.871000289916992 -171.04100036621094,-5.7170000076293945 -149.91099548339844,6.547999858856201 C-128.78199768066406,18.81399917602539 -85.18900299072266,30.687999725341797 -36.6619987487793,28.301000595092773 C13.237000465393066,25.847000122070312 56.255001068115234,12.159000396728516 86.26699829101562,2.4679999351501465 C118.197998046875,-7.8429999351501465 171.04100036621094,-30.687999725341797 171.04100036621094,-30.687999725341797"></path></g><g opacity="1" transform="matrix(1,0,0,1,379.0329895019531,41.24800109863281)"><path stroke-linecap="round" stroke-linejoin="round" fill-opacity="0" stroke="rgb(227,139,78)" stroke-opacity="1" stroke-width="12" d=" M-12.645999908447266,-16.861000061035156 C-12.645999908447266,-16.861000061035156 -16.264999389648438,-10.309000015258789 -6.570000171661377,0.2290000021457672 C3.125,10.767000198364258 17.281999588012695,16.861000061035156 17.281999588012695,16.861000061035156"></path></g><g opacity="1" transform="matrix(1,0,0,1,0,0)"><g opacity="1" transform="matrix(1,0,0,1,134.23500061035156,220.2949981689453)"><path stroke-linecap="round" stroke-linejoin="round" fill-opacity="0" stroke="rgb(182,94,49)" stroke-opacity="1" stroke-width="11" d=" M-45.52799987792969,-4.303999900817871 C-45.52799987792969,-4.303999900817871 -22.760000228881836,4.63700008392334 2.259999990463257,3.203000068664551 C27.27899932861328,1.7680000066757202 45.52899932861328,-4.63700008392334 45.52899932861328,-4.63700008392334"></path></g></g></g><g style="display: block;" transform="matrix(1.0069899559020996,0,0,0.9714800119400024,82.87162780761719,72.81655883789062)" opacity="0.68"><g opacity="1" transform="matrix(1,0,0,1,153.49000549316406,51.35499954223633)"><path stroke-linecap="round" stroke-linejoin="round" fill-opacity="0" stroke="rgb(240,160,105)" stroke-opacity="1" stroke-width="6.828" d=" M-136.4199981689453,6.828000068664551 C-136.4199981689453,6.828000068664551 -125.25399780273438,-3.5880000591278076 -108.2249984741211,-6.806000232696533 C-94.83899688720703,-9.336000442504883 -63.3650016784668,-1.534999966621399 -48.66699981689453,-1.1759999990463257 C-33.96900177001953,-0.8180000185966492 -12.406999588012695,-3.0980000495910645 7.63100004196167,-8.583999633789062 C34.983001708984375,-16.07200050354004 50.59000015258789,-17.76799964904785 70.73300170898438,-13.291999816894531 C92.06700134277344,-8.550999641418457 106.51100158691406,-0.41999998688697815 119.05899810791016,6.75 C131.60699462890625,13.920000076293945 136.4199981689453,17.76799964904785 136.4199981689453,17.76799964904785"></path></g><g opacity="1" transform="matrix(1,0,0,1,177.1179962158203,35.94499969482422)"><path stroke-linecap="round" stroke-linejoin="round" fill-opacity="0" stroke="rgb(240,160,105)" stroke-opacity="1" stroke-width="6.828" d=" M-117.18599700927734,-5.165999889373779 C-117.18599700927734,-5.165999889373779 -75.95899963378906,-1.2209999561309814 -58.034000396728516,-5.881999969482422 C-40.10900115966797,-10.541999816894531 -3.3289999961853027,-18.874000549316406 26.78499984741211,-16.364999771118164 C56.89799880981445,-13.854999542236328 74.57499694824219,-6.3460001945495605 96.58999633789062,5.678999900817871 C110.52200317382812,13.288999557495117 117.18599700927734,18.874000549316406 117.18599700927734,18.874000549316406"></path></g></g><g style="display: block;" transform="matrix(1.0069899559020996,0,0,0.9714800119400024,97.74787902832031,157.10313415527344)" opacity="1"><g opacity="1" transform="matrix(0.9896499514579773,0,0,1.0399999618530273,-6.186058044433594,-2.8785171508789062)"><g opacity="1" transform="matrix(1,0,0,1,0,0)"><path fill="rgb(249,214,186)" fill-opacity="1" d=" M90.22599792480469,22.62700080871582 C90.22599792480469,22.62700080871582 92.26799774169922,37.41999816894531 93.28900146484375,44.577999114990234 C94.30999755859375,51.736000061035156 83.59200286865234,74.63999938964844 71.85299682617188,79.41200256347656 C60.11399841308594,84.18399810791016 74.91500091552734,109.4749984741211 80.01899719238281,113.7699966430664 C85.12300109863281,118.06500244140625 114.21399688720703,103.7490005493164 114.21399688720703,103.7490005493164 C114.21399688720703,103.7490005493164 121.87000274658203,76.54900360107422 121.87000274658203,76.54900360107422 C121.87000274658203,76.54900360107422 114.7239990234375,39.32899856567383 114.7239990234375,39.32899856567383 C114.7239990234375,39.32899856567383 90.22599792480469,22.62700080871582 90.22599792480469,22.62700080871582z"></path></g><g opacity="1" transform="matrix(1,0,0,1,83.6520004272461,69.33699798583984)"><path fill="rgb(248,158,97)" fill-opacity="1" d=" M9.097999572753906,-47.43899917602539 C9.097999572753906,-47.43899917602539 18.832000732421875,-22.42799949645996 17.209999084472656,-7.861999988555908 C16.174999237060547,1.4279999732971191 9.401000022888184,7.5370001792907715 3.382999897003174,10.779999732971191 C-7.839000225067139,16.826000213623047 -10.61299991607666,15.78600025177002 -10.371999740600586,21.683000564575195 C-10.130000114440918,27.57900047302246 -1.9490000009536743,40.233001708984375 7.611000061035156,40.233001708984375 C14.640999794006348,40.233001708984375 20.048999786376953,36.111000061035156 20.048999786376953,36.111000061035156 C20.048999786376953,36.111000061035156 14.866999626159668,47.43899917602539 10.27400016784668,47.43899917602539 C5.681000232696533,47.43899917602539 -19.08099937438965,33.3129997253418 -19.56399917602539,25.941999435424805 C-20.04800033569336,18.570999145507812 -16.799999237060547,14.270000457763672 -9.54800033569336,12.305000305175781 C-2.2960000038146973,10.33899974822998 8.097999572753906,4.686999797821045 8.581999778747559,-5.877999782562256 C9.0649995803833,-16.44300079345703 9.0649995803833,-32.16699981689453 9.0649995803833,-32.16699981689453 C9.0649995803833,-32.16699981689453 5.922999858856201,-41.50299835205078 5.922999858856201,-41.50299835205078 C5.922999858856201,-41.50299835205078 9.097999572753906,-47.43899917602539 9.097999572753906,-47.43899917602539z"></path></g><g opacity="1" transform="matrix(1,0,0,1,133.8730010986328,106.48600006103516)"><path fill="rgb(234,146,86)" fill-opacity="1" d=" M-42.611000061035156,3.0840001106262207 C-42.611000061035156,3.0840001106262207 -16.75200080871582,-14.939000129699707 0.503000020980835,-13.543999671936035 C17.757999420166016,-12.14900016784668 28.679000854492188,-7.388000011444092 31.0310001373291,-7.7870001792907715 C33.38399887084961,-8.185999870300293 47.762001037597656,-18.90999984741211 47.762001037597656,-18.90999984741211 C47.762001037597656,-18.90999984741211 49.520999908447266,8.17300033569336 32.176998138427734,9.194999694824219 C25.714000701904297,9.576000213623047 12.819999694824219,8.684000015258789 -2.5139999389648438,10.472999572753906 C-11.939000129699707,11.571999549865723 -26.19300079345703,16.048999786376953 -31.67300033569336,17.114999771118164 C-40.888999938964844,18.909000396728516 -49.520999908447266,15.071999549865723 -49.520999908447266,15.071999549865723 C-49.520999908447266,15.071999549865723 -42.611000061035156,3.0840001106262207 -42.611000061035156,3.0840001106262207z"></path></g><g opacity="1" transform="matrix(1,0,0,1,104.70500183105469,27.510000228881836)"><path stroke-linecap="round" stroke-linejoin="round" fill-opacity="0" stroke="rgb(240,160,105)" stroke-opacity="1" stroke-width="8.779" d=" M-11.343000411987305,3.4790000915527344 C-11.343000411987305,3.4790000915527344 -5.889999866485596,3.26200008392334 1.5269999504089355,0.6520000100135803 C8.942999839782715,-1.9579999446868896 11.343000411987305,-3.4790000915527344 11.343000411987305,-3.4790000915527344"></path></g><g opacity="1" transform="matrix(1,0,0,1,45.59199905395508,98.9219970703125)"><path stroke-linecap="round" stroke-linejoin="round" fill-opacity="0" stroke="rgb(240,160,105)" stroke-opacity="1" stroke-width="10.73" d=" M-18.76799964904785,6.508999824523926 C-18.76799964904785,6.508999824523926 -7.4039998054504395,-0.6159999966621399 1.0700000524520874,-2.9700000286102295 C9.543999671936035,-5.323999881744385 18.76799964904785,-6.508999824523926 18.76799964904785,-6.508999824523926"></path></g><g opacity="1" transform="matrix(1,0,0,1,199.3509979248047,93.01300048828125)"><path stroke-linecap="round" stroke-linejoin="round" fill-opacity="0" stroke="rgb(240,160,105)" stroke-opacity="1" stroke-width="10.73" d=" M19.268999099731445,4.364999771118164 C19.268999099731445,4.364999771118164 1.062999963760376,-4.364999771118164 -19.268999099731445,-4.175000190734863"></path></g><g opacity="1" transform="matrix(1,0,0,1,83.26300048828125,71.77899932861328)"><path stroke-linecap="round" stroke-linejoin="round" fill-opacity="0" stroke="rgb(187,102,47)" stroke-opacity="1" stroke-width="11" d=" M5.428999900817871,-47.96699905395508 C5.428999900817871,-47.96699905395508 9.25100040435791,-18.902000427246094 8.126999855041504,-10.579000473022461 C6.973999977111816,-2.046999931335449 0.734000027179718,1.5700000524520874 -3.8889999389648438,4.310999870300293 C-8.51099967956543,7.052000045776367 -21.993999481201172,9.663999557495117 -20.018999099731445,21.375 C-18.722000122070312,29.06399917602539 -5.357999801635742,42.48400115966797 0.8059999942779541,45.224998474121094 C6.96999979019165,47.96699905395508 9.281999588012695,47.96699905395508 13.133999824523926,46.00899887084961 C16.986000061035156,44.05099868774414 21.993999481201172,38.96099853515625 21.993999481201172,38.96099853515625"></path></g><g opacity="1" transform="matrix(1,0,0,1,139.8459930419922,103.33599853515625)"><path stroke-linecap="round" stroke-linejoin="round" fill-opacity="0" stroke="rgb(57,39,11)" stroke-opacity="1" stroke-width="9.624" d=" M-15.878000259399414,-0.47600001096725464 C-15.878000259399414,-0.47600001096725464 -6.492000102996826,-3.0950000286102295 2.7100000381469727,-1.5980000495910645 C10.468000411987305,-0.335999995470047 15.878000259399414,3.0950000286102295 15.878000259399414,3.0950000286102295"></path></g><g opacity="1" transform="matrix(1,0,0,1,167.67799377441406,92.66600036621094)"><path stroke-linecap="round" stroke-linejoin="round" fill-opacity="0" stroke="rgb(182,94,49)" stroke-opacity="1" stroke-width="11" d=" M-11.687999725341797,-17.86400032043457 C-11.687999725341797,-17.86400032043457 3.2190001010894775,-17.489999771118164 8.463000297546387,-9.336999893188477 C11.687999725341797,-4.322999954223633 5.541999816894531,7.808000087738037 3.7709999084472656,10.194999694824219 C2.6110000610351562,11.758000373840332 -0.4620000123977661,17.86400032043457 -0.4620000123977661,17.86400032043457"></path></g></g></g><g style="display: block;" transform="matrix(1.0069899559020996,0,0,0.9714800119400024,71.47248840332031,95.92223358154297)" opacity="1"><g opacity="1" transform="matrix(1,0,0,1,66.60900115966797,57.724998474121094)"><path stroke-linecap="round" stroke-linejoin="round" fill-opacity="0" stroke="rgb(239,159,105)" stroke-opacity="1" stroke-width="6.828" d=" M-37.54399871826172,9.470999717712402 C-37.54399871826172,9.470999717712402 -22.253000259399414,-2.624000072479248 -0.7990000247955322,-6.047999858856201 C20.655000686645508,-9.470999717712402 37.54399871826172,-5.591000080108643 37.54399871826172,-5.591000080108643"></path></g><g opacity="1" transform="matrix(1,0,0,1,182.49099731445312,49.15800094604492)"><path stroke-linecap="round" stroke-linejoin="round" fill-opacity="0" stroke="rgb(239,159,105)" stroke-opacity="1" stroke-width="10.73" d=" M6.505000114440918,-11.890000343322754 C6.505000114440918,-11.890000343322754 -1.781999945640564,-12.66100025177002 -6.2210001945495605,-2.9539999961853027 C-8.437000274658203,1.8930000066757202 -12.079999923706055,17.349000930786133 -12.079999923706055,17.349000930786133"></path></g><g opacity="1" transform="matrix(1,0,0,1,107.5,53.77299880981445)"><path stroke-linecap="round" stroke-linejoin="round" fill-opacity="0" stroke="rgb(239,159,105)" stroke-opacity="1" stroke-width="10.73" d=" M-7.379000186920166,-5.809999942779541 C-7.379000186920166,-5.809999942779541 -3.5959999561309814,-7.208000183105469 -0.8429999947547913,3.427999973297119 C0.2199999988079071,7.534999847412109 0.8050000071525574,15.722000122070312 0.8050000071525574,15.722000122070312"></path></g><g opacity="1" transform="matrix(1,0,0,1,235.51199340820312,46.76900100708008)"><path stroke-linecap="round" stroke-linejoin="round" fill-opacity="0" stroke="rgb(239,159,105)" stroke-opacity="1" stroke-width="10.977" d=" M-48.30799865722656,-7.927000045776367 C-48.30799865722656,-7.927000045776367 -21.632999420166016,-13.545999526977539 -0.41999998688697815,-9.531999588012695 C20.79400062561035,-5.519000053405762 36.75600051879883,3.9130001068115234 39.90700149536133,6.7220001220703125 C43.05699920654297,9.531999588012695 48.30799865722656,13.545999526977539 48.30799865722656,13.545999526977539"></path></g><g opacity="1" transform="matrix(1,0,0,1,68.48300170898438,51.76300048828125)"><path stroke-linecap="round" stroke-linejoin="round" fill-opacity="0" stroke="rgb(57,39,11)" stroke-opacity="1" stroke-width="9.755" d=" M-44.095001220703125,8.395999908447266 C-44.095001220703125,8.395999908447266 -33.27399826049805,0.03500000014901161 -20.726999282836914,-4.267000198364258 C-8.178999900817871,-8.569000244140625 7.099999904632568,-9.659000396728516 21.423999786376953,-9.38700008392334 C31.458999633789062,-9.196000099182129 42.071998596191406,-6.250999927520752 42.071998596191406,-6.250999927520752"></path></g><g opacity="1" transform="matrix(1,0,0,1,232.91200256347656,41.04499816894531)"><path stroke-linecap="round" stroke-linejoin="round" fill-opacity="0" stroke="rgb(57,39,11)" stroke-opacity="1" stroke-width="9.755" d=" M-56.10499954223633,-7.361999988555908 C-56.10499954223633,-7.361999988555908 -24.509000778198242,-16.656999588012695 11.651000022888184,-7.71999979019165 C40.52799987792969,-0.5839999914169312 56.10499954223633,16.656999588012695 56.10499954223633,16.656999588012695"></path></g></g><g style="display: block;" transform="matrix(1.0069899559020996,0,0,1,-16.519287109375,50.160980224609375)" opacity="1"><g opacity="1" transform="matrix(1,0,0,1,271.2300109863281,223.30799865722656)"><path stroke-linecap="butt" stroke-linejoin="miter" fill-opacity="0" stroke-miterlimit="10" stroke="rgb(182,94,49)" stroke-opacity="1" stroke-width="12" d=" M-223.8300018310547,-89.9530029296875 C-208.77000427246094,-99.53600311279297 -200.468994140625,-100.20700073242188 -197.77999877929688,-109.16899871826172 C-194.74099731445312,-119.3010025024414 -202.177001953125,-141.42799377441406 -174.9510040283203,-157.1580047607422 C-157.04800415039062,-167.5030059814453 -133.78900146484375,-180.97300720214844 -70.3489990234375,-189.22300720214844 C-14.51200008392334,-196.48300170898438 13.864999771118164,-195.47999572753906 38.79600143432617,-194.9709930419922 C63.808998107910156,-194.46099853515625 116.05999755859375,-184.3800048828125 136.79400634765625,-171.57400512695312 C154.1490020751953,-160.85499572753906 158.85699462890625,-153.88699340820312 174.26600646972656,-133.7740020751953 C179.91900634765625,-126.39600372314453 189.37100219726562,-109.38400268554688 194.9429931640625,-103.44400024414062 C203.25100708007812,-94.32599639892578 216.47999572753906,-89.01100158691406 223.42999267578125,-82.91200256347656 C236.63800048828125,-71.3219985961914 245.20599365234375,-58.000999450683594 245.20599365234375,-36.09600067138672 C245.20599365234375,-2.6619999408721924 222.76699829101562,30.650999069213867 182.91299438476562,70.37300109863281 C161.875,91.28399658203125 120.49800109863281,119.98999786376953 104.8489990234375,129.23699951171875 C89.1989974975586,138.48399353027344 61.1609992980957,155.88999938964844 24.868999481201172,168.88900756835938 C-6.959000110626221,180.61300659179688 -54.67499923706055,190.64999389648438 -81.15299987792969,193.6009979248047 C-128.42599487304688,198.90199279785156 -182.64700317382812,198.94900512695312 -197.3679962158203,166.7469940185547 C-205.78399658203125,148.33799743652344 -211.2989959716797,108.09200286865234 -210.97000122070312,76.87799835205078 C-210.44400024414062,45.77299880981445 -209.16900634765625,30.007999420166016 -218.79400634765625,11.770999908447266 C-226.83200073242188,-3.4579999446868896 -244.35899353027344,-21.264999389648438 -245.86500549316406,-48.12900161743164 C-247.5709991455078,-78.08599853515625 -231.28700256347656,-85.20800018310547 -223.8300018310547,-89.9530029296875z"></path></g></g></g></g></svg>