<svg xmlns="http://www.w3.org/2000/svg" xmlns:xlink="http://www.w3.org/1999/xlink" viewBox="0 0 512 512" width="512" height="512" style="width: 100%; height: 100%; transform: translate3d(0,0,0); content-visibility: visible;" preserveAspectRatio="xMidYMid meet"><defs><clipPath id="__lottie_element_2"><rect width="512" height="512" x="0" y="0"></rect></clipPath><clipPath id="__lottie_element_4"><path d="M0,0 L512,0 L512,512 L0,512z"></path></clipPath><radialGradient id="__lottie_element_15" spreadMethod="pad" gradientUnits="userSpaceOnUse" cx="-41.4109992980957" cy="-193.8990020751953" r="477.7558900091956" fx="-41.4109992980957" fy="-193.8990020751953"><stop offset="0%" stop-color="rgb(243,192,164)"></stop><stop offset="31%" stop-color="rgb(236,171,138)"></stop><stop offset="62%" stop-color="rgb(229,149,112)"></stop></radialGradient><radialGradient id="__lottie_element_16" spreadMethod="pad" gradientUnits="userSpaceOnUse" cx="-35.72200012207031" cy="-159.6999969482422" r="290.40118144763187" fx="-28.026159738935387" fy="-143.88652480858119"><stop offset="0%" stop-color="rgb(254,240,222)"></stop><stop offset="50%" stop-color="rgb(249,213,185)"></stop><stop offset="99%" stop-color="rgb(244,187,148)"></stop></radialGradient></defs><g clip-path="url(#__lottie_element_2)"><g clip-path="url(#__lottie_element_4)" style="display: block;" transform="matrix(1,0,0,1,7,1)" opacity="1"><g style="display: block;" transform="matrix(1,0,0,1,19.733001708984375,45.141998291015625)" opacity="1"><g opacity="1" transform="matrix(1,0,0,1,235.79800415039062,219.62100219726562)"><path fill="url(#__lottie_element_15)" fill-opacity="1" d=" M-4.175000190734863,-190.9429931640625 C-60.25600051879883,-189.62399291992188 -123.76799774169922,-164.97999572753906 -168.8769989013672,-91.09700012207031 C-194.25,-49.53799819946289 -208.17100524902344,21.474000930786133 -168.76100158691406,90.07499694824219 C-138.10899353027344,143.4320068359375 -74.58100128173828,191.99400329589844 29.656999588012695,180.1199951171875 C122.6969985961914,169.52099609375 168.88999938964844,103.28099822998047 184.44700622558594,51.12900161743164 C208.17100524902344,-28.39699935913086 168.0959930419922,-98.93000030517578 139.38099670410156,-127.61499786376953 C92.9260025024414,-174.0189971923828 40.486000061035156,-191.99400329589844 -4.175000190734863,-190.9429931640625z"></path><path stroke-linecap="butt" stroke-linejoin="miter" fill-opacity="0" stroke-miterlimit="10" stroke="rgb(182,93,48)" stroke-opacity="1" stroke-width="12.5" d=" M-4.175000190734863,-190.9429931640625 C-60.25600051879883,-189.62399291992188 -123.76799774169922,-164.97999572753906 -168.8769989013672,-91.09700012207031 C-194.25,-49.53799819946289 -208.17100524902344,21.474000930786133 -168.76100158691406,90.07499694824219 C-138.10899353027344,143.4320068359375 -74.58100128173828,191.99400329589844 29.656999588012695,180.1199951171875 C122.6969985961914,169.52099609375 168.88999938964844,103.28099822998047 184.44700622558594,51.12900161743164 C208.17100524902344,-28.39699935913086 168.0959930419922,-98.93000030517578 139.38099670410156,-127.61499786376953 C92.9260025024414,-174.0189971923828 40.486000061035156,-191.99400329589844 -4.175000190734863,-190.9429931640625z"></path></g><g opacity="1" transform="matrix(1,0,0,1,226.4929962158203,217.18899536132812)"><path fill="url(#__lottie_element_16)" fill-opacity="1" d=" M3.572999954223633,-172.32400512695312 C-45.72700119018555,-171.1269989013672 -100.8489990234375,-148.7779998779297 -140.5030059814453,-81.76000213623047 C-162.8090057373047,-44.0629997253418 -174.7259979248047,18.17099952697754 -145.3730010986328,72.51200103759766 C-119.87300109863281,119.72000122070312 -52.22700119018555,164.6699981689453 36.696998596191406,157.24000549316406 C125.9020004272461,149.78700256347656 163.58799743652344,90.59500122070312 177.26499938964844,43.28900146484375 C198.11900329589844,-28.847000122070312 160.56199645996094,-93.5270004272461 135.3179931640625,-119.5469970703125 C94.48100280761719,-161.63999938964844 42.83300018310547,-173.27699279785156 3.572999954223633,-172.32400512695312z"></path></g></g><g style="display: block;" transform="matrix(-1.0193504095077515,0.06254258006811142,0.06543060392141342,1.0664209127426147,437.1869812011719,89.58573913574219)" opacity="1"><g opacity="1" transform="matrix(0.9626719951629639,-0.27155598998069763,0.26634880900382996,0.9442124366760254,-21.205108642578125,77.75529479980469)"><g opacity="1" transform="matrix(1,0,0,1,251.85800170898438,87.16000366210938)"><path fill="rgb(220,159,122)" fill-opacity="1" d=" M-32.500999450683594,-30.138999938964844 C-43.220001220703125,-13.539999961853027 -52.18000030517578,37.74399948120117 -11.574999809265137,49.12099838256836 C10.739999771118164,55.37300109863281 33.81800079345703,39.895999908447266 42.66699981689453,24.83300018310547 C52.18000030517578,8.642000198364258 52.18000030517578,-11.597999572753906 47.321998596191406,-23.134000778198242 C41.04600143432617,-38.04100036621094 33.75,-40.75600051879883 12.182999610900879,-48.8120002746582 C-5.38100004196167,-55.37300109863281 -24.31100082397461,-42.821998596191406 -32.500999450683594,-30.138999938964844z"></path></g><g opacity="1" transform="matrix(1,0,0,1,244.80599975585938,82.76200103759766)"><path fill="rgb(27,24,38)" fill-opacity="1" d=" M-25.61199951171875,-26.797000885009766 C-34.819000244140625,-12.420000076293945 -43.35599899291992,31.010000228881836 -8.479000091552734,40.86399841308594 C10.687000274658203,46.27899932861328 29.929000854492188,33.2859992980957 36.492000579833984,19.679000854492188 C43.08000183105469,6.021999835968018 43.356998443603516,-2.3570001125335693 42.27899932861328,-10.972999572753906 C40.323001861572266,-26.600000381469727 31.92799949645996,-39.590999603271484 12.767000198364258,-42.97100067138672 C-5.984000205993652,-46.279998779296875 -18.577999114990234,-37.78200149536133 -25.61199951171875,-26.797000885009766z"></path><path stroke-linecap="butt" stroke-linejoin="miter" fill-opacity="0" stroke-miterlimit="10" stroke="rgb(24,21,40)" stroke-opacity="1" stroke-width="14.593" d=" M-25.61199951171875,-26.797000885009766 C-34.819000244140625,-12.420000076293945 -43.35599899291992,31.010000228881836 -8.479000091552734,40.86399841308594 C10.687000274658203,46.27899932861328 29.929000854492188,33.2859992980957 36.492000579833984,19.679000854492188 C43.08000183105469,6.021999835968018 43.356998443603516,-2.3570001125335693 42.27899932861328,-10.972999572753906 C40.323001861572266,-26.600000381469727 31.92799949645996,-39.590999603271484 12.767000198364258,-42.97100067138672 C-5.984000205993652,-46.279998779296875 -18.577999114990234,-37.78200149536133 -25.61199951171875,-26.797000885009766z"></path></g><g opacity="1" transform="matrix(1,0,0,1,225.45399475097656,78.38500213623047)"><path fill="rgb(255,255,255)" fill-opacity="1" d=" M-2.0889999866485596,18.420000076293945 C3.989000082015991,18.375 8.619000434875488,15.288999557495117 9.902000427246094,6.311999797821045 C11.765000343322754,-6.7170000076293945 13.07800006866455,-16.246999740600586 5.826000213623047,-17.211999893188477 C-3.5169999599456787,-18.45400047302246 -11.982999801635742,-7.307000160217285 -12.553999900817871,2.5969998836517334 C-13.079000473022461,11.70300006866455 -6.5980000495910645,18.45400047302246 -2.0889999866485596,18.420000076293945z"></path></g><g opacity="0.41000000000000003" transform="matrix(1,0,0,1,239.58299255371094,47.17599868774414)"><path fill="rgb(255,255,255)" fill-opacity="1" d=" M-5.960999965667725,4.340000152587891 C-3.5230000019073486,6.464000225067139 -0.026000000536441803,6.514999866485596 2.828000068664551,4.359000205993652 C6.96999979019165,1.2289999723434448 9.13700008392334,-0.3970000147819519 6.493000030517578,-3.2269999980926514 C3.0869998931884766,-6.873000144958496 -3.200000047683716,-6.611000061035156 -6.01200008392334,-3.934999942779541 C-8.597000122070312,-1.475000023841858 -7.769999980926514,2.7639999389648438 -5.960999965667725,4.340000152587891z"></path></g><g opacity="0.54" transform="matrix(1,0,0,1,245.98699951171875,113.29000091552734)"><path fill="rgb(137,137,229)" fill-opacity="0.78" d=" M-32.388999938964844,-10.996999740600586 C-34.59400177001953,-0.7609999775886536 -1.6820000410079956,23.430999755859375 15.470999717712402,6.64300012588501 C20.635000228881836,1.5889999866485596 19.868000030517578,-2.177999973297119 14.154000282287598,-5.605999946594238 C9.380000114440918,-8.470999717712402 4.670000076293945,-5.539000034332275 -8.013999938964844,-9.631999969482422 C-15.416999816894531,-12.020999908447266 -30.50200080871582,-19.756999969482422 -32.388999938964844,-10.996999740600586z"></path></g><g opacity="0.66" transform="matrix(1,0,0,1,272.28900146484375,69.94300079345703)"><path fill="rgb(60,154,239)" fill-opacity="1" d=" M1.5839999914169312,37.12799835205078 C10.232000350952148,38.24100112915039 20.836000442504883,17.256999969482422 16.729999542236328,0.921999990940094 C14.95300006866455,-6.145999908447266 5.2270002365112305,-9.465999603271484 1.0980000495910645,-5.738999843597412 C-3.0309998989105225,-2.010999917984009 -3.9779999256134033,6.570000171661377 -3.947999954223633,13.821999549865723 C-3.9159998893737793,21.48200035095215 -9.689000129699707,35.676998138427734 1.5839999914169312,37.12799835205078z"></path></g></g><g opacity="1" transform="matrix(1.021120309829712,0.12197812646627426,-0.12145505845546722,1.0167415142059326,18.2060546875,-0.9774398803710938)"><g opacity="1" transform="matrix(1,0,0,1,74.56199645996094,83.13400268554688)"><path fill="rgb(220,159,122)" fill-opacity="1" d=" M-26.288999557495117,-23.69300079345703 C-35.5890007019043,-8.907999992370605 -43.34400177001953,34.345001220703125 -8.11400032043457,44.47800064086914 C11.246999740600586,50.047000885009766 27.393999099731445,41.46799850463867 35.13199996948242,28.055999755859375 C43.34400177001953,13.822999954223633 41.198001861572266,-5.651000022888184 38.41699981689453,-14.095000267028809 C33.922000885009766,-27.743000030517578 25.926000595092773,-37.027000427246094 7.214000225067139,-44.202999114990234 C-8.02400016784668,-50.047000885009766 -19.183000564575195,-34.9900016784668 -26.288999557495117,-23.69300079345703z"></path></g><g opacity="1" transform="matrix(1,0,0,1,69.29199981689453,79.56400299072266)"><path fill="rgb(27,24,38)" fill-opacity="1" d=" M34.73500061035156,6.156000137329102 C35.689998626708984,-9.279999732971191 24.718000411987305,-42.125 -3.8580000400543213,-34.6870002746582 C-35.689998626708984,-26.402000427246094 -28.209999084472656,13.409000396728516 -16.743000030517578,27.312000274658203 C-10.074000358581543,35.39799880981445 0.057999998331069946,42.124000549316406 16.010000228881836,35.4379997253418 C30.110000610351562,29.52899932861328 34.005001068115234,17.950000762939453 34.73500061035156,6.156000137329102z"></path><path stroke-linecap="butt" stroke-linejoin="miter" fill-opacity="0" stroke-miterlimit="10" stroke="rgb(24,21,40)" stroke-opacity="1" stroke-width="13.441" d=" M34.73500061035156,6.156000137329102 C35.689998626708984,-9.279999732971191 24.718000411987305,-42.125 -3.8580000400543213,-34.6870002746582 C-35.689998626708984,-26.402000427246094 -28.209999084472656,13.409000396728516 -16.743000030517578,27.312000274658203 C-10.074000358581543,35.39799880981445 0.057999998331069946,42.124000549316406 16.010000228881836,35.4379997253418 C30.110000610351562,29.52899932861328 34.005001068115234,17.950000762939453 34.73500061035156,6.156000137329102z"></path></g><g opacity="1" transform="matrix(1,0,0,1,53.7239990234375,77.7229995727539)"><path fill="rgb(255,255,255)" fill-opacity="1" d=" M-7.36299991607666,8.086999893188477 C-4.933000087738037,12.901000022888184 -0.9850000143051147,15.336000442504883 2.6559998989105225,14.776000022888184 C7.564000129699707,14.022000312805176 10.911999702453613,10.78600025177002 10.791999816894531,2.805000066757202 C10.616999626159668,-8.779999732971191 9.50100040435791,-15.336000442504883 3.5139999389648438,-15.324999809265137 C-4.199999809265137,-15.3100004196167 -10.911999702453613,-5.427999973297119 -9.095999717712402,3.125 C-8.692000389099121,5.026000022888184 -8.076000213623047,6.673999786376953 -7.36299991607666,8.086999893188477z"></path></g><g opacity="0.45" transform="matrix(1,0,0,1,62.13999938964844,49.79899978637695)"><path fill="rgb(255,255,255)" fill-opacity="1" d=" M-7.688000202178955,3.3550000190734863 C-6.519000053405762,5.331999778747559 -3.305999994277954,5.618000030517578 0.44600000977516174,3.9779999256134033 C5.890999794006348,1.5989999771118164 8.734999656677246,0.36500000953674316 7.73799991607666,-2.2279999256134033 C6.453999996185303,-5.567999839782715 0.49399998784065247,-5.78000020980835 -3.484999895095825,-3.696000099182129 C-7.144000053405762,-1.7790000438690186 -8.555000305175781,1.8880000114440918 -7.688000202178955,3.3550000190734863z"></path></g><g opacity="0.55" transform="matrix(1,0,0,1,76.74500274658203,108.302001953125)"><path fill="rgb(137,137,229)" fill-opacity="0.74" d=" M-24.04599952697754,0.42100000381469727 C-25.025999069213867,6.989999771118164 0.7910000085830688,16.659000396728516 16.25200080871582,4.803999900817871 C21.77899932861328,0.5659999847412109 28.349000930786133,-6.9670000076293945 20.357999801635742,-9.97599983215332 C16.736000061035156,-11.34000015258789 4.447000026702881,-9.074999809265137 -6.466000080108643,-7.7870001792907715 C-10.996000289916992,-7.251999855041504 -22.709999084472656,-8.534000396728516 -24.04599952697754,0.42100000381469727z"></path></g><g opacity="0.58" transform="matrix(1,0,0,1,92.36799621582031,69.4739990234375)"><path fill="rgb(60,154,239)" fill-opacity="0.92" d=" M-0.1589999943971634,20.84000015258789 C2.622999906539917,21.150999069213867 16.290000915527344,12.883000373840332 10.062000274658203,-6.63100004196167 C6.755000114440918,-16.992000579833984 -6.676000118255615,-23.218000411987305 -10.232999801635742,-19.996999740600586 C-13.788999557495117,-16.775999069213867 -9.675000190734863,-1.6440000534057617 -9.303999900817871,1.2020000219345093 C-8.442999839782715,7.821000099182129 -6.188000202178955,20.166000366210938 -0.1589999943971634,20.84000015258789z"></path></g></g></g><g style="display: block;" transform="matrix(-1.0160982608795166,0.10332269966602325,0.10440659523010254,1.0632448196411133,395.5570068359375,229.95297241210938)" opacity="1"><g opacity="1" transform="matrix(0.9949859976768494,-0.10001440346240997,0.10001440346240997,0.9949859976768494,-12.920257568359375,23.839679718017578)"><g opacity="1" transform="matrix(1,0,0,1,225.39599609375,15.204000473022461)"><path stroke-linecap="round" stroke-linejoin="round" fill-opacity="0" stroke="rgb(244,113,136)" stroke-opacity="0.8200000000000001" stroke-width="11" d=" M-24.68899917602539,3.822000026702881 C-24.68899917602539,3.822000026702881 -14.984000205993652,-0.6000000238418579 1.1820000410079956,-2.625 C10.73799991607666,-3.822000026702881 24.68899917602539,-1.1970000267028809 24.68899917602539,-1.1970000267028809"></path></g><g opacity="1" transform="matrix(1,0,0,1,222.09100341796875,40.055999755859375)"><path stroke-linecap="round" stroke-linejoin="round" fill-opacity="0" stroke="rgb(244,113,136)" stroke-opacity="0.8200000000000001" stroke-width="11" d=" M-17.535999298095703,2.256999969482422 C-17.535999298095703,2.256999969482422 -8.619000434875488,-1.0520000457763672 -0.42800000309944153,-1.6540000438690186 C7.763000011444092,-2.256999969482422 17.535999298095703,-1.1130000352859497 17.535999298095703,-1.1130000352859497"></path></g></g><g opacity="1" transform="matrix(1.1507899761199951,0,0,1,-8.603214263916016,6.894001007080078)"><g opacity="1" transform="matrix(1,0,0,1,26.156999588012695,11.619000434875488)"><path stroke-linecap="round" stroke-linejoin="round" fill-opacity="0" stroke="rgb(244,113,136)" stroke-opacity="0.8200000000000001" stroke-width="11" d=" M-20.158000946044922,-5.605000019073486 C-20.158000946044922,-5.605000019073486 -9.253000259399414,-6.050000190734863 4.2230000495910645,-1.8370000123977661 C11.97700023651123,0.5870000123977661 20.158000946044922,6.050000190734863 20.158000946044922,6.050000190734863"></path></g><g opacity="1" transform="matrix(1,0,0,1,20.531999588012695,31.586000442504883)"><path stroke-linecap="round" stroke-linejoin="round" fill-opacity="0" stroke="rgb(244,113,136)" stroke-opacity="0.8200000000000001" stroke-width="11" d=" M-13.00100040435791,-4.797999858856201 C-13.00100040435791,-4.797999858856201 -5.64900016784668,-3.8469998836517334 0.8709999918937683,-1.5369999408721924 C7.390999794006348,0.7720000147819519 13.00100040435791,4.797999858856201 13.00100040435791,4.797999858856201"></path></g></g></g><g style="display: block;" transform="matrix(-1.0193504095077515,0.06254258006811142,0.06543060392141342,1.0664209127426147,424.2391052246094,33.445831298828125)" opacity="1"><g opacity="1" transform="matrix(1,0,0,1,54.409000396728516,60.430999755859375)"><path fill="rgb(76,34,24)" fill-opacity="1" d=" M-31.20599937438965,19.941999435424805 C-33.303001403808594,14.8100004196167 -23.145000457763672,-0.5049999952316284 -10.192000389099121,-10.484000205993652 C4.497000217437744,-21.799999237060547 31.184999465942383,-25.7549991607666 31.606000900268555,-12.045999526977539 C31.804000854492188,-5.624000072479248 25.166000366210938,-4.868000030517578 19.94700050354004,-2.691999912261963 C13.548999786376953,-0.02500000037252903 8.932000160217285,2.3420000076293945 0.31700000166893005,6.683000087738037 C-5.158999919891357,9.442000389099121 -13.793999671936035,14.342000007629395 -18.243999481201172,18.54199981689453 C-19.360000610351562,19.594999313354492 -25.052000045776367,25.242000579833984 -27.895999908447266,23.261999130249023 C-27.895999908447266,23.261999130249023 -29.73900032043457,23.5310001373291 -31.20599937438965,19.941999435424805z"></path></g><g opacity="1" transform="matrix(1,0,0,1,255.03599548339844,44.784000396728516)"><path fill="rgb(75,33,24)" fill-opacity="1" d=" M35.233001708984375,20.714000701904297 C37.57099914550781,22.159000396728516 40.59000015258789,22.179000854492188 43.013999938964844,20.79400062561035 C45.1619987487793,19.56599998474121 46.84600067138672,17.937000274658203 45.53799819946289,15.697999954223633 C42.17100143432617,9.9350004196167 34.9010009765625,-6.538000106811523 14.140000343322754,-14.12600040435791 C-7.896999835968018,-22.179000854492188 -33.61899948120117,-14.364999771118164 -39.27000045776367,-7.703999996185303 C-43.44599914550781,-2.7809998989105225 -46.845001220703125,3.2139999866485596 -36.30500030517578,2.7300000190734863 C-27.836000442504883,2.3420000076293945 -13.704999923706055,1.187000036239624 1.2549999952316284,4.60099983215332 C8.538000106811523,6.26200008392334 19.28700065612793,11.777000427246094 24.84000015258789,14.463000297546387 C25.93199920654297,14.991000175476074 31.499000549316406,18.406999588012695 35.233001708984375,20.714000701904297z"></path></g></g><g style="display: none;"><g><path></path></g></g><g style="display: none;"><g><path></path></g><g><path stroke-linecap="butt" stroke-linejoin="miter" fill-opacity="0" stroke-miterlimit="10"></path></g><g><path></path></g><g><path></path></g><g><path></path></g></g><g style="display: none;"><g><path></path></g></g><g style="display: block;" transform="matrix(1.0412505865097046,-0.32176336646080017,0.32176336646080017,1.0412505865097046,352.9178466796875,209.93482971191406)" opacity="1"><g opacity="1" transform="matrix(1,0,0,1,70.1760025024414,66.55000305175781)"><path fill="rgb(168,79,13)" fill-opacity="0.25" d=" M5.558000087738037,-17.610000610351562 C5.558000087738037,-17.610000610351562 6.668000221252441,-21.52400016784668 3.947999954223633,-2.2669999599456787 C0.878000020980835,19.466999053955078 1.0920000076293945,15.003000259399414 -8.755000114440918,27.724000930786133 C-14.36400032043457,34.970001220703125 -11.642000198364258,41.88800048828125 -17.900999069213867,41.60599899291992 C-26.386999130249023,41.222999572753906 -37.93899917602539,18.288000106811523 -42.05500030517578,0.6209999918937683 C-47.67599868774414,-23.506000518798828 -34.66699981689453,-44.04999923706055 -18.183000564575195,-42.14400100708008 C-1.6990000009536743,-40.23899841308594 5.558000087738037,-17.610000610351562 5.558000087738037,-17.610000610351562z"></path></g></g><g style="display: none;"><g><path></path></g><g><path stroke-linecap="butt" stroke-linejoin="miter" fill-opacity="0" stroke-miterlimit="10"></path></g><g><path></path></g><g><path></path></g><g><path></path></g></g><g style="display: block;" transform="matrix(0.9537550806999207,-0.7613182067871094,0.7613182067871094,0.9537550806999207,336.44757080078125,184.40786743164062)" opacity="1"><g opacity="1" transform="matrix(1,0,0,1,70.1760025024414,66.55000305175781)"><path fill="rgb(251,123,181)" fill-opacity="1" d=" M5.558000087738037,-17.610000610351562 C5.558000087738037,-17.610000610351562 25.332000732421875,-30.844999313354492 37.058998107910156,-9.626999855041504 C47.67599868774414,9.583999633789062 21.420000076293945,27.33300018310547 9.38599967956543,33.54199981689453 C1.2419999837875366,37.74300003051758 -12.027999877929688,44.04899978637695 -22.57900047302246,39.61199951171875 C-30.409000396728516,36.319000244140625 -37.93899917602539,18.288000106811523 -42.05500030517578,0.6209999918937683 C-47.67599868774414,-23.506000518798828 -34.66699981689453,-44.04999923706055 -18.183000564575195,-42.14400100708008 C-1.6990000009536743,-40.23899841308594 5.558000087738037,-17.610000610351562 5.558000087738037,-17.610000610351562z"></path></g><g opacity="1" transform="matrix(1,0,0,1,70.1760025024414,66.55000305175781)"><path stroke-linecap="butt" stroke-linejoin="miter" fill-opacity="0" stroke-miterlimit="10" stroke="rgb(193,61,133)" stroke-opacity="1" stroke-width="9" d=" M5.558000087738037,-17.610000610351562 C5.558000087738037,-17.610000610351562 25.332000732421875,-30.844999313354492 37.058998107910156,-9.626999855041504 C47.67599868774414,9.583999633789062 21.420000076293945,27.33300018310547 9.38599967956543,33.54199981689453 C1.2419999837875366,37.74300003051758 -12.027999877929688,44.04899978637695 -22.57900047302246,39.61199951171875 C-30.409000396728516,36.319000244140625 -37.93899917602539,18.288000106811523 -42.05500030517578,0.6209999918937683 C-47.67599868774414,-23.506000518798828 -34.66699981689453,-44.04999923706055 -18.183000564575195,-42.14400100708008 C-1.6990000009536743,-40.23899841308594 5.558000087738037,-17.610000610351562 5.558000087738037,-17.610000610351562z"></path></g><g opacity="1" transform="matrix(1,0,0,1,45.11800003051758,42.525001525878906)"><path fill="rgb(255,255,255)" fill-opacity="1" d=" M5.578999996185303,-10.795000076293945 C0.05700000002980232,-11.798999786376953 -4.571000099182129,-9.753999710083008 -7.505000114440918,-4.9720001220703125 C-11.586999893188477,1.680999994277954 -8.694999694824219,9.986000061035156 -4.802999973297119,11.255000114440918 C-3.134999990463257,11.798999786376953 1.1019999980926514,7.849999904632568 3.440999984741211,5.928999900817871 C8.404999732971191,1.8519999980926514 10.279000282287598,-0.8859999775886536 10.77299976348877,-2.884999990463257 C11.586999893188477,-6.178999900817871 11.305000305175781,-9.753999710083008 5.578999996185303,-10.795000076293945z"></path></g><g opacity="1" transform="matrix(1,0,0,1,84.84600067138672,58.404998779296875)"><path fill="rgb(252,174,222)" fill-opacity="1" d=" M-16.458999633789062,5.388999938964844 C-16.187000274658203,6.6519999504089355 -14.557999610900879,8.097000122070312 -11.678999900817871,8.626999855041504 C-7.468999862670898,9.404000282287598 0.8190000057220459,7.468999862670898 4.895999908447266,6.395999908447266 C15.25,3.671999931335449 16.95599937438965,-1.9769999980926514 11.984999656677246,-5.617000102996826 C9.093000411987305,-7.734000205993652 4.382999897003174,-9.404000282287598 -2.86299991607666,-8.034000396728516 C-10.109999656677246,-6.664000034332275 -13.548999786376953,-1.6360000371932983 -14.317999839782715,-0.7120000123977661 C-15.02400016784668,0.13600000739097595 -16.95599937438965,3.0829999446868896 -16.458999633789062,5.388999938964844z"></path></g><g opacity="0.33" transform="matrix(1,0,0,1,65.3239974975586,76.37899780273438)"><path fill="rgb(211,15,113)" fill-opacity="1" d=" M32.21200180053711,2.625 C32.21200180053711,2.625 8.53600025177002,11.86299991607666 -1.3339999914169312,10.277999877929688 C-9.920000076293945,8.89900016784668 -16.89299964904785,0.4569999873638153 -21.893999099731445,-6.625999927520752 C-24.65399932861328,-10.53499984741211 -31.388999938964844,-26.75200080871582 -31.388999938964844,-26.75200080871582 C-31.388999938964844,-26.75200080871582 -34.46900177001953,-16.72800064086914 -28.711000442504883,0.7919999957084656 C-22.70199966430664,19.07699966430664 -18.176000595092773,23.69099998474121 -16.83099937438965,24.601999282836914 C-7.326000213623047,31.04599952697754 8.147000312805176,21.367000579833984 16.474000930786133,16.976999282836914 C23.10300064086914,13.482999801635742 32.21200180053711,2.625 32.21200180053711,2.625z"></path></g></g><g style="display: none;"><g><path></path></g></g><g style="display: none;"><g><path></path><path stroke-linecap="round" stroke-linejoin="round" fill-opacity="0"></path></g><g><path></path></g><g><path></path></g><g><path></path></g></g><g style="display: block;" transform="matrix(0.6911508440971375,0.34561988711357117,-0.34561988711357117,0.6911508440971375,403.13543701171875,21.874526977539062)" opacity="1"><g opacity="1" transform="matrix(1,0,0,1,61.9010009765625,61.88800048828125)"><path fill="rgb(249,40,135)" fill-opacity="1" d=" M-6.928999900817871,-8.531999588012695 C-6.928999900817871,-8.531999588012695 -12.651000022888184,-29.54199981689453 7.982999801635742,-34.70899963378906 C26.666000366210938,-39.387001037597656 34.409000396728516,-11.444999694824219 36.36600112915039,0.878000020980835 C37.689998626708984,9.218000411987305 39.4010009765625,22.67099952697754 32.94900131225586,30.996999740600586 C28.160999298095703,37.17599868774414 11.267999649047852,39.387001037597656 -4.422999858856201,38.637001037597656 C-25.85099983215332,37.61199951171875 -39.4010009765625,20.81999969482422 -33.474998474121094,6.551000118255615 C-27.549999237060547,-7.7179999351501465 -6.928999900817871,-8.531999588012695 -6.928999900817871,-8.531999588012695z"></path><path stroke-linecap="round" stroke-linejoin="round" fill-opacity="0" stroke="rgb(178,24,108)" stroke-opacity="1" stroke-width="9" d=" M-6.928999900817871,-8.531999588012695 C-6.928999900817871,-8.531999588012695 -12.651000022888184,-29.54199981689453 7.982999801635742,-34.70899963378906 C26.666000366210938,-39.387001037597656 34.409000396728516,-11.444999694824219 36.36600112915039,0.878000020980835 C37.689998626708984,9.218000411987305 39.4010009765625,22.67099952697754 32.94900131225586,30.996999740600586 C28.160999298095703,37.17599868774414 11.267999649047852,39.387001037597656 -4.422999858856201,38.637001037597656 C-25.85099983215332,37.61199951171875 -39.4010009765625,20.81999969482422 -33.474998474121094,6.551000118255615 C-27.549999237060547,-7.7179999351501465 -6.928999900817871,-8.531999588012695 -6.928999900817871,-8.531999588012695z"></path></g><g opacity="1" transform="matrix(1,0,0,1,40.9370002746582,74.21900177001953)"><path fill="rgb(252,192,229)" fill-opacity="1" d=" M-5.624000072479248,-5.379000186920166 C-7.454999923706055,-1.6740000247955322 -7.083000183105469,2.002000093460083 -4.546000003814697,5.019999980926514 C-1.0149999856948853,9.220999717712402 5.079999923706055,8.817999839782715 6.742000102996826,6.317999839782715 C7.453999996185303,5.245999813079834 5.743000030517578,1.4709999561309814 4.968999862670898,-0.5619999766349792 C3.3269999027252197,-4.876999855041504 1.9149999618530273,-6.743000030517578 0.6990000009536743,-7.486999988555908 C-1.3040000200271606,-8.713000297546387 -3.7249999046325684,-9.220999717712402 -5.624000072479248,-5.379000186920166z"></path></g><g opacity="1" transform="matrix(1,0,0,1,66.9520034790039,49.21500015258789)"><path fill="rgb(255,125,199)" fill-opacity="1" d=" M0.5329999923706055,14.276000022888184 C1.6200000047683716,14.345999717712402 3.2039999961853027,13.288999557495117 4.374000072479248,10.935999870300293 C6.085000038146973,7.49399995803833 6.664000034332275,-0.11599999666213989 6.8520002365112305,-3.8889999389648438 C7.328999996185303,-13.470000267028809 3.2190001010894775,-16.302000045776367 -0.9940000176429749,-12.894000053405762 C-3.444999933242798,-10.911999702453613 -6.004000186920166,-7.254000186920166 -6.769999980926514,-0.6779999732971191 C-7.535999774932861,5.89900016784668 -4.374000072479248,10.074999809265137 -3.828000068664551,10.960000038146973 C-3.3269999027252197,11.77299976348877 -1.4520000219345093,14.14900016784668 0.5329999923706055,14.276000022888184z"></path></g><g opacity="1" transform="matrix(1,0,0,1,68.79100036621094,67.01499938964844)"><path fill="rgb(211,15,113)" fill-opacity="1" d=" M15.190999984741211,-26.072999954223633 C15.190999984741211,-26.072999954223633 16.52400016784668,-3.438999891281128 12.70199966430664,4.686999797821045 C9.376999855041504,11.755000114440918 0.7799999713897705,15.732000350952148 -6.214000225067139,18.336000442504883 C-10.074000358581543,19.773000717163086 -24.8700008392334,21.67099952697754 -24.8700008392334,21.67099952697754 C-24.8700008392334,21.67099952697754 -17.593000411987305,26.740999221801758 -1.9980000257492065,26 C14.276000022888184,25.22599983215332 19.159000396728516,22.437000274658203 20.239999771118164,21.496999740600586 C27.881000518798828,14.855999946594238 24.07699966430664,-0.8140000104904175 22.690000534057617,-9.048999786376953 C21.586000442504883,-15.604999542236328 15.190999984741211,-26.072999954223633 15.190999984741211,-26.072999954223633z"></path></g></g><g style="display: none;"><g><path></path></g></g><g style="display: none;"><g><path></path><path stroke-linecap="round" stroke-linejoin="round" fill-opacity="0"></path></g><g><path></path></g><g><path></path></g><g><path></path></g></g><g style="display: none;"><g><path></path></g></g><g style="display: block;" transform="matrix(-0.0019078031182289124,0.5156064629554749,-0.526996374130249,-0.0019499472109600902,379.09332275390625,272.7171325683594)" opacity="1"><g opacity="1" transform="matrix(1,0,0,1,61.9010009765625,61.88800048828125)"><path fill="rgb(179,70,11)" fill-opacity="0.23" d=" M-6.928999900817871,-8.531999588012695 C-6.928999900817871,-8.531999588012695 -12.651000022888184,-29.54199981689453 7.982999801635742,-34.70899963378906 C26.666000366210938,-39.387001037597656 34.409000396728516,-11.444999694824219 36.36600112915039,0.878000020980835 C37.689998626708984,9.218000411987305 39.4010009765625,22.67099952697754 32.94900131225586,30.996999740600586 C28.160999298095703,37.17599868774414 11.267999649047852,39.387001037597656 -4.422999858856201,38.637001037597656 C-25.85099983215332,37.61199951171875 -39.4010009765625,20.81999969482422 -33.474998474121094,6.551000118255615 C-27.549999237060547,-7.7179999351501465 -6.928999900817871,-8.531999588012695 -6.928999900817871,-8.531999588012695z"></path></g></g><g style="display: none;"><g><path></path><path stroke-linecap="round" stroke-linejoin="round" fill-opacity="0"></path></g><g><path></path></g><g><path></path></g><g><path></path></g></g><g style="display: block;" transform="matrix(0.02673792466521263,0.5872316360473633,-0.5933353304862976,0.027015838772058487,403.79962158203125,259.2448425292969)" opacity="1"><g opacity="1" transform="matrix(1,0,0,1,61.9010009765625,61.88800048828125)"><path fill="rgb(249,40,135)" fill-opacity="1" d=" M-6.928999900817871,-8.531999588012695 C-6.928999900817871,-8.531999588012695 -12.651000022888184,-29.54199981689453 7.982999801635742,-34.70899963378906 C26.666000366210938,-39.387001037597656 34.409000396728516,-11.444999694824219 36.36600112915039,0.878000020980835 C37.689998626708984,9.218000411987305 39.4010009765625,22.67099952697754 32.94900131225586,30.996999740600586 C28.160999298095703,37.17599868774414 11.267999649047852,39.387001037597656 -4.422999858856201,38.637001037597656 C-25.85099983215332,37.61199951171875 -39.4010009765625,20.81999969482422 -33.474998474121094,6.551000118255615 C-27.549999237060547,-7.7179999351501465 -6.928999900817871,-8.531999588012695 -6.928999900817871,-8.531999588012695z"></path><path stroke-linecap="round" stroke-linejoin="round" fill-opacity="0" stroke="rgb(178,24,108)" stroke-opacity="1" stroke-width="9" d=" M-6.928999900817871,-8.531999588012695 C-6.928999900817871,-8.531999588012695 -12.651000022888184,-29.54199981689453 7.982999801635742,-34.70899963378906 C26.666000366210938,-39.387001037597656 34.409000396728516,-11.444999694824219 36.36600112915039,0.878000020980835 C37.689998626708984,9.218000411987305 39.4010009765625,22.67099952697754 32.94900131225586,30.996999740600586 C28.160999298095703,37.17599868774414 11.267999649047852,39.387001037597656 -4.422999858856201,38.637001037597656 C-25.85099983215332,37.61199951171875 -39.4010009765625,20.81999969482422 -33.474998474121094,6.551000118255615 C-27.549999237060547,-7.7179999351501465 -6.928999900817871,-8.531999588012695 -6.928999900817871,-8.531999588012695z"></path></g><g opacity="1" transform="matrix(1,0,0,1,40.9370002746582,74.21900177001953)"><path fill="rgb(252,192,229)" fill-opacity="1" d=" M-5.624000072479248,-5.379000186920166 C-7.454999923706055,-1.6740000247955322 -7.083000183105469,2.002000093460083 -4.546000003814697,5.019999980926514 C-1.0149999856948853,9.220999717712402 5.079999923706055,8.817999839782715 6.742000102996826,6.317999839782715 C7.453999996185303,5.245999813079834 5.743000030517578,1.4709999561309814 4.968999862670898,-0.5619999766349792 C3.3269999027252197,-4.876999855041504 1.9149999618530273,-6.743000030517578 0.6990000009536743,-7.486999988555908 C-1.3040000200271606,-8.713000297546387 -3.7249999046325684,-9.220999717712402 -5.624000072479248,-5.379000186920166z"></path></g><g opacity="1" transform="matrix(1,0,0,1,66.9520034790039,49.21500015258789)"><path fill="rgb(255,125,199)" fill-opacity="1" d=" M0.5329999923706055,14.276000022888184 C1.6200000047683716,14.345999717712402 3.2039999961853027,13.288999557495117 4.374000072479248,10.935999870300293 C6.085000038146973,7.49399995803833 6.664000034332275,-0.11599999666213989 6.8520002365112305,-3.8889999389648438 C7.328999996185303,-13.470000267028809 3.2190001010894775,-16.302000045776367 -0.9940000176429749,-12.894000053405762 C-3.444999933242798,-10.911999702453613 -6.004000186920166,-7.254000186920166 -6.769999980926514,-0.6779999732971191 C-7.535999774932861,5.89900016784668 -4.374000072479248,10.074999809265137 -3.828000068664551,10.960000038146973 C-3.3269999027252197,11.77299976348877 -1.4520000219345093,14.14900016784668 0.5329999923706055,14.276000022888184z"></path></g><g opacity="1" transform="matrix(1,0,0,1,68.79100036621094,67.01499938964844)"><path fill="rgb(211,15,113)" fill-opacity="1" d=" M15.190999984741211,-26.072999954223633 C15.190999984741211,-26.072999954223633 16.52400016784668,-3.438999891281128 12.70199966430664,4.686999797821045 C9.376999855041504,11.755000114440918 0.7799999713897705,15.732000350952148 -6.214000225067139,18.336000442504883 C-10.074000358581543,19.773000717163086 -24.8700008392334,21.67099952697754 -24.8700008392334,21.67099952697754 C-24.8700008392334,21.67099952697754 -17.593000411987305,26.740999221801758 -1.9980000257492065,26 C14.276000022888184,25.22599983215332 19.159000396728516,22.437000274658203 20.239999771118164,21.496999740600586 C27.881000518798828,14.855999946594238 24.07699966430664,-0.8140000104904175 22.690000534057617,-9.048999786376953 C21.586000442504883,-15.604999542236328 15.190999984741211,-26.072999954223633 15.190999984741211,-26.072999954223633z"></path></g></g><g style="display: block;" transform="matrix(-1.0193504095077515,0.06254258006811142,0.06543060392141342,1.0664209127426147,351.8777160644531,211.34109497070312)" opacity="1"><g opacity="1" transform="matrix(1.0358960628509521,0.08563943207263947,-0.0871216356754303,1.0538249015808105,-5.658435821533203,-10.870414733886719)"><g opacity="1" transform="matrix(1,0,0,1,0,0)"><path fill="rgb(247,205,173)" fill-opacity="1" d=" M49.62699890136719,39.21900177001953 C27.97599983215332,44.02899932861328 40.775001525878906,72.19599914550781 45.29999923706055,73.80000305175781 C49.82500076293945,75.40399932861328 65.32599639892578,83.52300262451172 65.32599639892578,83.52300262451172 C65.32599639892578,83.52300262451172 37.40399932861328,94.1259994506836 47.494998931884766,110.60099792480469 C58.750999450683594,128.97799682617188 87.77999877929688,112.5780029296875 96.24400329589844,108.71399688720703 C104.70800018310547,104.8499984741211 105.59300231933594,94.89099884033203 104.552001953125,81.6240005493164 C103.51200103759766,68.35700225830078 93.55799865722656,49.62799835205078 93.55799865722656,49.62799835205078 C93.55799865722656,49.62799835205078 68.5009994506836,35.0260009765625 49.62699890136719,39.21900177001953z"></path></g><g opacity="1" transform="matrix(1,0,0,1,57.0629997253418,70.6719970703125)"><path fill="rgb(220,159,122)" fill-opacity="1" d=" M-16.395000457763672,-24.551000595092773 C-16.395000457763672,-24.551000595092773 -14.572999954223633,-10.204000473022461 -1.4149999618530273,-4.348999977111816 C7.382999897003174,-0.4339999854564667 13.767999649047852,0.20800000429153442 14.871000289916992,2.0989999771118164 C16.148000717163086,4.289000034332275 20.163000106811523,15.237000465393066 5.382999897003174,11.95199966430664 C-1.0360000133514404,10.526000022888184 -16.711999893188477,3.193000078201294 -21.091999053955078,-3.6500000953674316 C-23.097999572753906,-6.784999847412109 -16.395000457763672,-24.551000595092773 -16.395000457763672,-24.551000595092773z"></path></g><g opacity="1" transform="matrix(1,0,0,1,78.13700103759766,111.177001953125)"><path fill="rgb(220,159,122)" fill-opacity="1" d=" M-8.234999656677246,-30.018999099731445 C-8.234999656677246,-30.018999099731445 -35.62799835205078,-5.789000034332275 -24.732999801635742,2.927000045776367 C-13.58899974822998,12.130999565124512 13.229999542236328,-9.994999885559082 16.791000366210938,-11.420999526977539 C20.35300064086914,-12.847000122070312 24.475000381469727,-14.958000183105469 25.56999969482422,-12.220999717712402 C26.29800033569336,-10.401000022888184 16.163000106811523,3.7860000133514404 4.915999889373779,7.708000183105469 C-6.329999923706055,11.630000114440918 -17.400999069213867,19.290000915527344 -20.961999893188477,16.259000778198242 C-24.52400016784668,13.227999687194824 -33.63600158691406,-4.183000087738037 -33.63600158691406,-4.183000087738037 C-33.63600158691406,-4.183000087738037 -8.234999656677246,-30.018999099731445 -8.234999656677246,-30.018999099731445z"></path></g><g opacity="1" transform="matrix(1,0,0,1,69.80500030517578,107.11199951171875)"><path stroke-linecap="round" stroke-linejoin="round" fill-opacity="0" stroke="rgb(102,31,25)" stroke-opacity="1" stroke-width="10" d=" M31.829999923706055,-0.7820000052452087 C31.829999923706055,-0.7820000052452087 10.333999633789062,26.072999954223633 -10.496999740600586,19.170000076293945 C-32.720001220703125,11.892999649047852 -19.408000946044922,-10.555999755859375 -16.36400032043457,-14.515999794006348 C-13.319000244140625,-18.475000381469727 -3.9760000705718994,-26.16699981689453 -3.9760000705718994,-26.16699981689453"></path></g><g opacity="1" transform="matrix(1,0,0,1,58.71900177001953,54.99300003051758)"><path stroke-linecap="round" stroke-linejoin="round" fill-opacity="0" stroke="rgb(102,31,25)" stroke-opacity="1" stroke-width="10" d=" M31.142000198364258,-7.184999942779541 C31.142000198364258,-7.184999942779541 -8.083999633789062,-22.400999069213867 -20.45599937438965,-8.689000129699707 C-34.176998138427734,5.309999942779541 -21.791000366210938,19.736000061035156 -10.21500015258789,23.66900062561035 C-2.3610000610351562,26.479999542236328 8.562000274658203,25.136999130249023 8.562000274658203,25.136999130249023"></path></g></g></g><g style="display: block;" transform="matrix(1,0,0,1,256,256)" opacity="1"></g></g></g></svg>