<svg xmlns="http://www.w3.org/2000/svg" xmlns:xlink="http://www.w3.org/1999/xlink" viewBox="0 0 512 512" width="512" height="512" style="width: 100%; height: 100%; transform: translate3d(0,0,0); content-visibility: visible;" preserveAspectRatio="xMidYMid meet"><defs><clipPath id="__lottie_element_2"><rect width="512" height="512" x="0" y="0"></rect></clipPath><clipPath id="__lottie_element_7"><path d="M0,0 L512,0 L512,512 L0,512z"></path></clipPath><linearGradient id="__lottie_element_14" spreadMethod="pad" gradientUnits="userSpaceOnUse" x1="178.06399536132812" y1="-153.0330047607422" x2="156.33700561523438" y2="177.16400146484375"><stop offset="0%" stop-color="rgb(188,105,255)"></stop><stop offset="50%" stop-color="rgb(144,70,204)"></stop><stop offset="100%" stop-color="rgb(100,34,153)"></stop></linearGradient><linearGradient id="__lottie_element_15" spreadMethod="pad" gradientUnits="userSpaceOnUse" x1="162.98199462890625" y1="-162.54800415039062" x2="86.30799865722656" y2="-50.70000076293945"><stop offset="0%" stop-color="rgb(242,180,251)"></stop><stop offset="50%" stop-color="rgb(249,218,253)"></stop><stop offset="100%" stop-color="rgb(255,255,255)"></stop></linearGradient><mask id="__lottie_element_17"><path fill="url(#__lottie_element_16)" d=" M159.21499633789062,-188.94900512695312 C148.77000427246094,-195.14199829101562 136.29200744628906,-175.87899780273438 136.29200744628906,-175.87899780273438 C136.29200744628906,-175.87899780273438 115.61299896240234,-142.20599365234375 102.91600036621094,-123.65599822998047 C90.21900177001953,-105.10600280761719 79.46600341796875,-89.1989974975586 79.46600341796875,-89.1989974975586 C79.46600341796875,-89.1989974975586 71.47000122070312,-80.86799621582031 67.7040023803711,-73.98200225830078 C64.40499877929688,-67.94999694824219 62.58300018310547,-63.66400146484375 69.47100067138672,-60.04600143432617 C80.49400329589844,-54.25699996948242 95.53399658203125,-72.05999755859375 101.23999786376953,-77.26499938964844 C106.94599914550781,-82.47000122070312 134.6529998779297,-128.19000244140625 144.93600463867188,-145.87100219726562 C152.46499633789062,-158.8159942626953 158.14199829101562,-167.77000427246094 163.1179962158203,-179.41000366210938 C165.03199768066406,-183.88699340820312 162.7480010986328,-186.85400390625 159.21499633789062,-188.94900512695312z"></path></mask><linearGradient id="__lottie_element_16" spreadMethod="pad" gradientUnits="userSpaceOnUse" x1="162.98199462890625" y1="-162.54800415039062" x2="86.30799865722656" y2="-50.70000076293945"><stop stop-color="rgb(255,255,255)" offset="0%" stop-opacity="0.7900000214576721"></stop><stop stop-color="rgb(255,255,255)" offset="57%" stop-opacity="0.41499999165534973"></stop><stop stop-color="rgb(255,255,255)" offset="100%" stop-opacity="0.03999999910593033"></stop></linearGradient><linearGradient id="__lottie_element_21" spreadMethod="pad" gradientUnits="userSpaceOnUse" x1="-73.072998046875" y1="-62.88399887084961" x2="-76.42400360107422" y2="117.78900146484375"><stop offset="0%" stop-color="rgb(188,105,255)"></stop><stop offset="50%" stop-color="rgb(144,70,204)"></stop><stop offset="100%" stop-color="rgb(100,34,153)"></stop></linearGradient><linearGradient id="__lottie_element_22" spreadMethod="pad" gradientUnits="userSpaceOnUse" x1="-73.072998046875" y1="-62.88399887084961" x2="-76.42400360107422" y2="117.78900146484375"><stop offset="0%" stop-color="rgb(188,105,255)"></stop><stop offset="50%" stop-color="rgb(144,70,204)"></stop><stop offset="100%" stop-color="rgb(100,34,153)"></stop></linearGradient><linearGradient id="__lottie_element_23" spreadMethod="pad" gradientUnits="userSpaceOnUse" x1="-117.1709976196289" y1="67.08699798583984" x2="-117.93199920654297" y2="-87.3499984741211"><stop offset="0%" stop-color="rgb(188,105,255)"></stop><stop offset="50%" stop-color="rgb(144,70,204)"></stop><stop offset="100%" stop-color="rgb(100,34,153)"></stop></linearGradient><linearGradient id="__lottie_element_24" spreadMethod="pad" gradientUnits="userSpaceOnUse" x1="-187.46400451660156" y1="9.777999877929688" x2="30.540000915527344" y2="2.4800000190734863"><stop offset="0%" stop-color="rgb(188,105,255)"></stop><stop offset="50%" stop-color="rgb(144,70,204)"></stop><stop offset="100%" stop-color="rgb(100,34,153)"></stop></linearGradient><linearGradient id="__lottie_element_25" spreadMethod="pad" gradientUnits="userSpaceOnUse" x1="-114.39399719238281" y1="76.01100158691406" x2="-62.415000915527344" y2="-18.68199920654297"><stop offset="0%" stop-color="rgb(234,167,255)"></stop><stop offset="50%" stop-color="rgb(244,210,255)"></stop><stop offset="100%" stop-color="rgb(254,254,255)"></stop></linearGradient><mask id="__lottie_element_27"><path fill="url(#__lottie_element_26)" d=" M-43.39899826049805,1.5779999494552612 C-49.56100082397461,1.4019999504089355 -89.06999969482422,1.937000036239624 -89.06999969482422,1.937000036239624 C-89.06999969482422,1.937000036239624 -99.94599914550781,0.6790000200271606 -103.62899780273438,11.307000160217285 C-106.46299743652344,19.485000610351562 -107.41899871826172,77.73300170898438 -107.41899871826172,77.73300170898438 C-107.41899871826172,77.73300170898438 -109.5,85.0260009765625 -102.26799774169922,86.36000061035156 C-95.42500305175781,87.62200164794922 -95.32099914550781,77.72200012207031 -95.32099914550781,77.72200012207031 C-95.32099914550781,77.72200012207031 -92.26799774169922,22.60099983215332 -92.26799774169922,22.60099983215332 C-92.26799774169922,22.60099983215332 -91.70600128173828,17.457000732421875 -88.625,17.545000076293945 C-85.54399871826172,17.632999420166016 -40.21500015258789,14.71399974822998 -40.21500015258789,14.71399974822998 C-40.21500015258789,14.71399974822998 -27.958999633789062,15.361000061035156 -28.917999267578125,7.38700008392334 C-29.81100082397461,-0.03700000047683716 -37.23699951171875,1.753999948501587 -43.39899826049805,1.5779999494552612z"></path></mask><linearGradient id="__lottie_element_26" spreadMethod="pad" gradientUnits="userSpaceOnUse" x1="-114.39399719238281" y1="76.01100158691406" x2="-62.415000915527344" y2="-18.68199920654297"><stop stop-color="rgb(255,255,255)" offset="0%" stop-opacity="1"></stop><stop stop-color="rgb(255,255,255)" offset="57%" stop-opacity="0.5"></stop><stop stop-color="rgb(255,255,255)" offset="100%" stop-opacity="0"></stop></linearGradient><linearGradient id="__lottie_element_28" spreadMethod="pad" gradientUnits="userSpaceOnUse" x1="-33.28099822998047" y1="-7.690999984741211" x2="-124.09400177001953" y2="15.442999839782715"><stop offset="0%" stop-color="rgb(234,167,255)"></stop><stop offset="50%" stop-color="rgb(244,210,255)"></stop><stop offset="100%" stop-color="rgb(254,254,255)"></stop></linearGradient><mask id="__lottie_element_30"><path fill="url(#__lottie_element_29)" d=" M-43.39899826049805,3.7890000343322754 C-49.56100082397461,3.61299991607666 -89.31900024414062,3.1070001125335693 -89.31900024414062,3.1070001125335693 C-89.31900024414062,3.1070001125335693 -99.94599914550781,0.6790000200271606 -103.62899780273438,11.307000160217285 C-106.46299743652344,19.485000610351562 -107.41899871826172,77.73300170898438 -107.41899871826172,77.73300170898438 C-107.41899871826172,77.73300170898438 -109.5,85.0260009765625 -102.26799774169922,86.36000061035156 C-95.42500305175781,87.62200164794922 -95.32099914550781,77.72200012207031 -95.32099914550781,77.72200012207031 C-95.32099914550781,77.72200012207031 -92.26799774169922,22.60099983215332 -92.26799774169922,22.60099983215332 C-92.26799774169922,22.60099983215332 -91.70600128173828,17.457000732421875 -88.625,17.545000076293945 C-85.54399871826172,17.632999420166016 -40.83700180053711,16.53499984741211 -40.83700180053711,16.53499984741211 C-40.83700180053711,16.53499984741211 -28.08300018310547,17.051000595092773 -29.04199981689453,9.07699966430664 C-29.934999465942383,1.652999997138977 -37.23699951171875,3.9649999141693115 -43.39899826049805,3.7890000343322754z"></path></mask><linearGradient id="__lottie_element_29" spreadMethod="pad" gradientUnits="userSpaceOnUse" x1="-33.28099822998047" y1="-7.690999984741211" x2="-124.09400177001953" y2="15.442999839782715"><stop stop-color="rgb(255,255,255)" offset="0%" stop-opacity="1"></stop><stop stop-color="rgb(255,255,255)" offset="57%" stop-opacity="0.5"></stop><stop stop-color="rgb(255,255,255)" offset="100%" stop-opacity="0"></stop></linearGradient><linearGradient id="__lottie_element_34" spreadMethod="pad" gradientUnits="userSpaceOnUse" x1="178.06399536132812" y1="-153.0330047607422" x2="156.33700561523438" y2="177.16400146484375"><stop offset="0%" stop-color="rgb(188,105,255)"></stop><stop offset="50%" stop-color="rgb(144,70,204)"></stop><stop offset="100%" stop-color="rgb(100,34,153)"></stop></linearGradient><linearGradient id="__lottie_element_38" spreadMethod="pad" gradientUnits="userSpaceOnUse"><stop></stop><stop></stop><stop></stop></linearGradient><radialGradient id="__lottie_element_46" spreadMethod="pad" gradientUnits="userSpaceOnUse"><stop></stop><stop></stop><stop></stop></radialGradient><clipPath id="__lottie_element_54"><path d="M0,0 L512,0 L512,512 L0,512z"></path></clipPath><linearGradient id="__lottie_element_61" spreadMethod="pad" gradientUnits="userSpaceOnUse"><stop></stop><stop></stop><stop></stop></linearGradient><linearGradient id="__lottie_element_62" spreadMethod="pad" gradientUnits="userSpaceOnUse"><stop></stop><stop></stop><stop></stop></linearGradient><mask id="__lottie_element_64"><path fill="url(#__lottie_element_63)"></path></mask><linearGradient id="__lottie_element_63" spreadMethod="pad" gradientUnits="userSpaceOnUse"><stop stop-color="rgb(255,255,255)"></stop><stop stop-color="rgb(255,255,255)"></stop><stop stop-color="rgb(255,255,255)"></stop></linearGradient><linearGradient id="__lottie_element_68" spreadMethod="pad" gradientUnits="userSpaceOnUse"><stop></stop><stop></stop><stop></stop></linearGradient><linearGradient id="__lottie_element_69" spreadMethod="pad" gradientUnits="userSpaceOnUse"><stop></stop><stop></stop><stop></stop></linearGradient><linearGradient id="__lottie_element_70" spreadMethod="pad" gradientUnits="userSpaceOnUse"><stop></stop><stop></stop><stop></stop></linearGradient><linearGradient id="__lottie_element_71" spreadMethod="pad" gradientUnits="userSpaceOnUse"><stop></stop><stop></stop><stop></stop></linearGradient><linearGradient id="__lottie_element_72" spreadMethod="pad" gradientUnits="userSpaceOnUse"><stop></stop><stop></stop><stop></stop></linearGradient><mask id="__lottie_element_74"><path fill="url(#__lottie_element_73)"></path></mask><linearGradient id="__lottie_element_73" spreadMethod="pad" gradientUnits="userSpaceOnUse"><stop stop-color="rgb(255,255,255)"></stop><stop stop-color="rgb(255,255,255)"></stop><stop stop-color="rgb(255,255,255)"></stop></linearGradient><linearGradient id="__lottie_element_75" spreadMethod="pad" gradientUnits="userSpaceOnUse"><stop></stop><stop></stop><stop></stop></linearGradient><mask id="__lottie_element_77"><path fill="url(#__lottie_element_76)"></path></mask><linearGradient id="__lottie_element_76" spreadMethod="pad" gradientUnits="userSpaceOnUse"><stop stop-color="rgb(255,255,255)"></stop><stop stop-color="rgb(255,255,255)"></stop><stop stop-color="rgb(255,255,255)"></stop></linearGradient><linearGradient id="__lottie_element_81" spreadMethod="pad" gradientUnits="userSpaceOnUse"><stop></stop><stop></stop><stop></stop></linearGradient><linearGradient id="__lottie_element_85" spreadMethod="pad" gradientUnits="userSpaceOnUse"><stop></stop><stop></stop><stop></stop></linearGradient><radialGradient id="__lottie_element_93" spreadMethod="pad" gradientUnits="userSpaceOnUse"><stop></stop><stop></stop><stop></stop></radialGradient></defs><g clip-path="url(#__lottie_element_2)"><g clip-path="url(#__lottie_element_54)" style="display: none;"><g style="display: none;"><g><path></path><path stroke-linecap="butt" stroke-linejoin="miter" fill-opacity="0" stroke-miterlimit="10"></path></g><g><path fill="url(#__lottie_element_93)"></path></g></g><g style="display: none;"><g><g><path></path></g><g><path></path><path stroke-linecap="butt" stroke-linejoin="miter" fill-opacity="0" stroke-miterlimit="10"></path></g><g><path></path></g><g><g><path></path></g><g><path></path></g><g><path></path></g><g><path></path></g></g></g><g><g><path></path></g><g><path></path><path stroke-linecap="butt" stroke-linejoin="miter" fill-opacity="0" stroke-miterlimit="10"></path></g><g><path></path></g><g><g><path></path></g><g><path></path></g><g><path></path></g><g><path></path></g></g><g><path stroke-linecap="butt" stroke-linejoin="miter" fill-opacity="0" stroke-miterlimit="10"></path></g></g><g><path></path></g></g><g style="display: none;"><g><g><path></path><path stroke-linecap="round" stroke-linejoin="round" fill-opacity="0"></path></g><g><path></path></g><g><path></path><path stroke-linecap="round" stroke-linejoin="round" fill-opacity="0"></path></g><g><path></path><path stroke-linecap="round" stroke-linejoin="round" fill-opacity="0"></path></g><g><path></path><path stroke-linecap="round" stroke-linejoin="round" fill-opacity="0"></path></g><g><g><path></path><path stroke-linecap="round" stroke-linejoin="round" fill-opacity="0"></path></g><g><path stroke-linecap="round" stroke-linejoin="round" fill-opacity="0"></path></g></g><g><path stroke-linecap="round" stroke-linejoin="round" fill-opacity="0"></path></g></g></g><g style="display: none;"><g><path fill="url(#__lottie_element_85)"></path><path stroke-linecap="round" stroke-linejoin="round" fill-opacity="0"></path></g><g><path stroke-linecap="round" stroke-linejoin="miter" fill-opacity="0" stroke-miterlimit="4"></path></g><g><path stroke-linecap="round" stroke-linejoin="round" fill-opacity="0"></path></g></g><g style="display: none;"><g><path fill="url(#__lottie_element_81)"></path><path stroke-linecap="butt" stroke-linejoin="round" fill-opacity="0"></path></g></g><g style="display: none;"><g><path fill="url(#__lottie_element_68)"></path><path stroke-linecap="round" stroke-linejoin="round" fill-opacity="0"></path></g><g><path fill="url(#__lottie_element_69)"></path><path stroke-linecap="round" stroke-linejoin="round" fill-opacity="0"></path></g><g><path fill="url(#__lottie_element_70)"></path></g><g><path fill="url(#__lottie_element_71)"></path></g><g><path stroke-linecap="round" stroke-linejoin="round" fill-opacity="0"></path></g><g><path fill="url(#__lottie_element_72)" mask="url(#__lottie_element_74)"></path></g><g><path fill="url(#__lottie_element_75)" mask="url(#__lottie_element_77)"></path></g></g><g style="display: none;"><g><path fill="url(#__lottie_element_61)"></path><path stroke-linecap="butt" stroke-linejoin="round" fill-opacity="0"></path></g><g><path fill="url(#__lottie_element_62)" mask="url(#__lottie_element_64)"></path></g></g></g><g clip-path="url(#__lottie_element_7)" style="display: block;" transform="matrix(0.9140599966049194,0,0,0.9140599966049194,22.000640869140625,18.000640869140625)" opacity="1"><g style="display: none;"><g><path></path><path stroke-linecap="butt" stroke-linejoin="miter" fill-opacity="0" stroke-miterlimit="10"></path></g><g><path fill="url(#__lottie_element_46)"></path></g></g><g style="display: none;"><g><g><path></path></g><g><path></path><path stroke-linecap="butt" stroke-linejoin="miter" fill-opacity="0" stroke-miterlimit="10"></path></g><g><path></path></g><g><g><path></path></g><g><path></path></g><g><path></path></g><g><path></path></g></g></g><g><g><path></path></g><g><path></path><path stroke-linecap="butt" stroke-linejoin="miter" fill-opacity="0" stroke-miterlimit="10"></path></g><g><path></path></g><g><g><path></path></g><g><path></path></g><g><path></path></g><g><path></path></g></g><g><path stroke-linecap="butt" stroke-linejoin="miter" fill-opacity="0" stroke-miterlimit="10"></path></g></g><g><path></path></g></g><g style="display: none;"><g><g><path></path><path stroke-linecap="round" stroke-linejoin="round" fill-opacity="0"></path></g><g><path></path></g><g><path></path><path stroke-linecap="round" stroke-linejoin="round" fill-opacity="0"></path></g><g><path></path><path stroke-linecap="round" stroke-linejoin="round" fill-opacity="0"></path></g><g><path></path><path stroke-linecap="round" stroke-linejoin="round" fill-opacity="0"></path></g><g><g><path></path><path stroke-linecap="round" stroke-linejoin="round" fill-opacity="0"></path></g><g><path stroke-linecap="round" stroke-linejoin="round" fill-opacity="0"></path></g></g><g><path stroke-linecap="round" stroke-linejoin="round" fill-opacity="0"></path></g></g></g><g style="display: none;"><g><path fill="url(#__lottie_element_38)"></path><path stroke-linecap="round" stroke-linejoin="round" fill-opacity="0"></path></g><g><path stroke-linecap="round" stroke-linejoin="miter" fill-opacity="0" stroke-miterlimit="4"></path></g><g><path stroke-linecap="round" stroke-linejoin="round" fill-opacity="0"></path></g></g><g style="display: block;" transform="matrix(1.1059200763702393,-0.006639949046075344,0.006639949046075344,1.1059200763702393,200.18490600585938,264.2071533203125)" opacity="1"><g opacity="1" transform="matrix(1,0,0,1,0,0)"><path fill="url(#__lottie_element_34)" fill-opacity="1" d=" M182,-208 C171.62899780273438,-208.35800170898438 151.3000030517578,-207.57000732421875 137.947998046875,-201.5590057373047 C125.43900299072266,-195.92799377441406 114.89099884033203,-180.34100341796875 105,-165 C56,-89 53,-92 42,-74 C31.11199951171875,-56.18299865722656 43,-38 71,-38 C77,-38 104,-38 104,-38 C104,-38 100,148 100,172 C100,196 130,200 130,200 C130,200 180.88299560546875,199.51199340820312 197,200 C230,201 229,183 230,140 C230.6060028076172,113.93000030517578 240,-163 236,-187 C232,-211 211,-207 182,-208z"></path><path stroke-linecap="butt" stroke-linejoin="round" fill-opacity="0" stroke="rgb(255,255,255)" stroke-opacity="1" stroke-width="44.643" d=" M182,-208 C171.62899780273438,-208.35800170898438 151.3000030517578,-207.57000732421875 137.947998046875,-201.5590057373047 C125.43900299072266,-195.92799377441406 114.89099884033203,-180.34100341796875 105,-165 C56,-89 53,-92 42,-74 C31.11199951171875,-56.18299865722656 43,-38 71,-38 C77,-38 104,-38 104,-38 C104,-38 100,148 100,172 C100,196 130,200 130,200 C130,200 180.88299560546875,199.51199340820312 197,200 C230,201 229,183 230,140 C230.6060028076172,113.93000030517578 240,-163 236,-187 C232,-211 211,-207 182,-208z"></path></g></g><g style="display: block;" transform="matrix(-0.011244649067521095,0.8729475736618042,-0.8729475736618042,-0.011244649067521095,127.76581573486328,388.67364501953125)" opacity="1"><g opacity="1" transform="matrix(0.9517800211906433,0,0,0.9517800211906433,-27.719711303710938,-27.232868194580078)"><path fill="url(#__lottie_element_21)" fill-opacity="1" d=" M-78.322998046875,-97 C-78.322998046875,-97 -138.4239959716797,-96.37300109863281 -143.4239959716797,-94.37300109863281 C-148.4239959716797,-92.37300109863281 -149.4239959716797,-78.37300109863281 -149.4239959716797,-78.37300109863281 C-149.4239959716797,-78.37300109863281 -149.94900512695312,-27.37299919128418 -149.94900512695312,-27.37299919128418 C-149.94900512695312,-27.37299919128418 -200.15199279785156,-26.047000885009766 -209.15199279785156,-25.047000885009766 C-218.15199279785156,-24.047000885009766 -220.15199279785156,-12.04699993133545 -220.15199279785156,-12.04699993133545 C-220.15199279785156,-12.04699993133545 -221.2030029296875,36.32600021362305 -221.2030029296875,36.32600021362305 C-221.2030029296875,36.32600021362305 -221.4600067138672,44.698001861572266 -214.2530059814453,51.17399978637695 C-208.9929962158203,55.900001525878906 -198.35499572753906,56.37699890136719 -198.35499572753906,56.37699890136719 C-198.35499572753906,56.37699890136719 -149.6269989013672,56.474998474121094 -149.6269989013672,56.474998474121094 C-149.6269989013672,56.474998474121094 -148.15199279785156,110 -147.15199279785156,118 C-146.15199279785156,126 -131.15199279785156,128 -131.15199279785156,128 C-131.15199279785156,128 -76.4219970703125,127.94300079345703 -70.42400360107422,128.1009979248047 C-58.08100128173828,128.4250030517578 -59.27199935913086,108.5250015258789 -59.27199935913086,108.5250015258789 C-59.27199935913086,108.5250015258789 -57,57.880001068115234 -57,57.880001068115234 C-57,57.880001068115234 -7.951000213623047,55.50600051879883 -1.8799999952316284,55.880001068115234 C15.991000175476074,56.97999954223633 14.373000144958496,33 14.373000144958496,33 C14.373000144958496,33 14.692999839782715,-5.033999919891357 13.373000144958496,-16 C11.788000106811523,-29.173999786376953 -4.626999855041504,-26 -4.626999855041504,-26 C-4.626999855041504,-26 -60.323001861572266,-27.576000213623047 -60.323001861572266,-27.576000213623047 C-60.323001861572266,-27.576000213623047 -63.1879997253418,-77.00199890136719 -63.323001861572266,-81 C-63.86000061035156,-96.94200134277344 -78.322998046875,-97 -78.322998046875,-97z"></path><path stroke-linecap="round" stroke-linejoin="round" fill-opacity="0" stroke="rgb(255,255,255)" stroke-opacity="1" stroke-width="47" d=" M-78.322998046875,-97 C-78.322998046875,-97 -138.4239959716797,-96.37300109863281 -143.4239959716797,-94.37300109863281 C-148.4239959716797,-92.37300109863281 -149.4239959716797,-78.37300109863281 -149.4239959716797,-78.37300109863281 C-149.4239959716797,-78.37300109863281 -149.94900512695312,-27.37299919128418 -149.94900512695312,-27.37299919128418 C-149.94900512695312,-27.37299919128418 -200.15199279785156,-26.047000885009766 -209.15199279785156,-25.047000885009766 C-218.15199279785156,-24.047000885009766 -220.15199279785156,-12.04699993133545 -220.15199279785156,-12.04699993133545 C-220.15199279785156,-12.04699993133545 -221.2030029296875,36.32600021362305 -221.2030029296875,36.32600021362305 C-221.2030029296875,36.32600021362305 -221.4600067138672,44.698001861572266 -214.2530059814453,51.17399978637695 C-208.9929962158203,55.900001525878906 -198.35499572753906,56.37699890136719 -198.35499572753906,56.37699890136719 C-198.35499572753906,56.37699890136719 -149.6269989013672,56.474998474121094 -149.6269989013672,56.474998474121094 C-149.6269989013672,56.474998474121094 -148.15199279785156,110 -147.15199279785156,118 C-146.15199279785156,126 -131.15199279785156,128 -131.15199279785156,128 C-131.15199279785156,128 -76.4219970703125,127.94300079345703 -70.42400360107422,128.1009979248047 C-58.08100128173828,128.4250030517578 -59.27199935913086,108.5250015258789 -59.27199935913086,108.5250015258789 C-59.27199935913086,108.5250015258789 -57,57.880001068115234 -57,57.880001068115234 C-57,57.880001068115234 -7.951000213623047,55.50600051879883 -1.8799999952316284,55.880001068115234 C15.991000175476074,56.97999954223633 14.373000144958496,33 14.373000144958496,33 C14.373000144958496,33 14.692999839782715,-5.033999919891357 13.373000144958496,-16 C11.788000106811523,-29.173999786376953 -4.626999855041504,-26 -4.626999855041504,-26 C-4.626999855041504,-26 -60.323001861572266,-27.576000213623047 -60.323001861572266,-27.576000213623047 C-60.323001861572266,-27.576000213623047 -63.1879997253418,-77.00199890136719 -63.323001861572266,-81 C-63.86000061035156,-96.94200134277344 -78.322998046875,-97 -78.322998046875,-97z"></path></g><g opacity="1" transform="matrix(0.9517800211906433,0,0,0.9517800211906433,-27.719711303710938,-27.232868194580078)"><path fill="url(#__lottie_element_22)" fill-opacity="1" d=" M-75.89299774169922,-97 C-75.89299774169922,-97 -132.6280059814453,-97.57099914550781 -137.95799255371094,-96.8030014038086 C-150.8260040283203,-94.947998046875 -150.031005859375,-78.37300109863281 -150.031005859375,-78.37300109863281 C-150.031005859375,-78.37300109863281 -149.94900512695312,-27.37299919128418 -149.94900512695312,-27.37299919128418 C-149.94900512695312,-27.37299919128418 -200.15199279785156,-26.047000885009766 -209.15199279785156,-25.047000885009766 C-218.15199279785156,-24.047000885009766 -220.15199279785156,-12.04699993133545 -220.15199279785156,-12.04699993133545 C-220.15199279785156,-12.04699993133545 -221.2030029296875,36.32600021362305 -221.2030029296875,36.32600021362305 C-221.2030029296875,36.32600021362305 -221.4600067138672,44.698001861572266 -214.2530059814453,51.17399978637695 C-208.9929962158203,55.900001525878906 -198.35499572753906,56.37699890136719 -198.35499572753906,56.37699890136719 C-198.35499572753906,56.37699890136719 -150.84100341796875,55.867000579833984 -150.84100341796875,55.867000579833984 C-150.84100341796875,55.867000579833984 -150.58099365234375,110 -149.58099365234375,118 C-148.58099365234375,126 -133.58099365234375,127.91200256347656 -133.58099365234375,127.91200256347656 C-133.58099365234375,127.91200256347656 -76.4219970703125,127.94300079345703 -70.42400360107422,128.1009979248047 C-58.08100128173828,128.4250030517578 -59.27199935913086,108.5250015258789 -59.27199935913086,108.5250015258789 C-59.27199935913086,108.5250015258789 -57,57.880001068115234 -57,57.880001068115234 C-57,57.880001068115234 -9.77299976348877,55.566001892089844 -3.7019999027252197,55.939998626708984 C14.168999671936035,57.040000915527344 12.550999641418457,33.060001373291016 12.550999641418457,33.060001373291016 C12.550999641418457,33.060001373291016 12.871000289916992,-4.973999977111816 11.550999641418457,-15.9399995803833 C9.965999603271484,-29.11400032043457 -4.019000053405762,-28.429000854492188 -4.019000053405762,-28.429000854492188 C-4.019000053405762,-28.429000854492188 -60.323001861572266,-27.576000213623047 -60.323001861572266,-27.576000213623047 C-60.323001861572266,-27.576000213623047 -60.757999420166016,-77.00199890136719 -60.893001556396484,-81 C-61.43000030517578,-96.94200134277344 -75.89299774169922,-97 -75.89299774169922,-97z"></path><path stroke-linecap="round" stroke-linejoin="round" fill-opacity="0" stroke="rgb(81,29,132)" stroke-opacity="1" stroke-width="14" d=" M-75.89299774169922,-97 C-75.89299774169922,-97 -132.6280059814453,-97.57099914550781 -137.95799255371094,-96.8030014038086 C-150.8260040283203,-94.947998046875 -150.031005859375,-78.37300109863281 -150.031005859375,-78.37300109863281 C-150.031005859375,-78.37300109863281 -149.94900512695312,-27.37299919128418 -149.94900512695312,-27.37299919128418 C-149.94900512695312,-27.37299919128418 -200.15199279785156,-26.047000885009766 -209.15199279785156,-25.047000885009766 C-218.15199279785156,-24.047000885009766 -220.15199279785156,-12.04699993133545 -220.15199279785156,-12.04699993133545 C-220.15199279785156,-12.04699993133545 -221.2030029296875,36.32600021362305 -221.2030029296875,36.32600021362305 C-221.2030029296875,36.32600021362305 -221.4600067138672,44.698001861572266 -214.2530059814453,51.17399978637695 C-208.9929962158203,55.900001525878906 -198.35499572753906,56.37699890136719 -198.35499572753906,56.37699890136719 C-198.35499572753906,56.37699890136719 -150.84100341796875,55.867000579833984 -150.84100341796875,55.867000579833984 C-150.84100341796875,55.867000579833984 -150.58099365234375,110 -149.58099365234375,118 C-148.58099365234375,126 -133.58099365234375,127.91200256347656 -133.58099365234375,127.91200256347656 C-133.58099365234375,127.91200256347656 -76.4219970703125,127.94300079345703 -70.42400360107422,128.1009979248047 C-58.08100128173828,128.4250030517578 -59.27199935913086,108.5250015258789 -59.27199935913086,108.5250015258789 C-59.27199935913086,108.5250015258789 -57,57.880001068115234 -57,57.880001068115234 C-57,57.880001068115234 -9.77299976348877,55.566001892089844 -3.7019999027252197,55.939998626708984 C14.168999671936035,57.040000915527344 12.550999641418457,33.060001373291016 12.550999641418457,33.060001373291016 C12.550999641418457,33.060001373291016 12.871000289916992,-4.973999977111816 11.550999641418457,-15.9399995803833 C9.965999603271484,-29.11400032043457 -4.019000053405762,-28.429000854492188 -4.019000053405762,-28.429000854492188 C-4.019000053405762,-28.429000854492188 -60.323001861572266,-27.576000213623047 -60.323001861572266,-27.576000213623047 C-60.323001861572266,-27.576000213623047 -60.757999420166016,-77.00199890136719 -60.893001556396484,-81 C-61.43000030517578,-96.94200134277344 -75.89299774169922,-97 -75.89299774169922,-97z"></path></g><g opacity="0" transform="matrix(0.9517800211906433,0,0,0.9517800211906433,-27.719711303710938,-27.232868194580078)"><path fill="url(#__lottie_element_23)" fill-opacity="1" d=" M-75.89299774169922,-97 C-75.89299774169922,-97 -132.6280059814453,-97.57099914550781 -137.95799255371094,-96.8030014038086 C-150.8260040283203,-94.947998046875 -150.031005859375,-78.37300109863281 -150.031005859375,-78.37300109863281 C-150.031005859375,-78.37300109863281 -149.94900512695312,-27.37299919128418 -149.94900512695312,-27.37299919128418 C-149.94900512695312,-27.37299919128418 -200.15199279785156,-26.047000885009766 -209.15199279785156,-25.047000885009766 C-218.15199279785156,-24.047000885009766 -220.15199279785156,-12.04699993133545 -220.15199279785156,-12.04699993133545 C-220.15199279785156,-12.04699993133545 -221.2030029296875,36.32600021362305 -221.2030029296875,36.32600021362305 C-221.2030029296875,36.32600021362305 -221.4600067138672,44.698001861572266 -214.2530059814453,51.17399978637695 C-208.9929962158203,55.900001525878906 -198.35499572753906,56.37699890136719 -198.35499572753906,56.37699890136719 C-198.35499572753906,56.37699890136719 -150.84100341796875,55.867000579833984 -150.84100341796875,55.867000579833984 C-150.84100341796875,55.867000579833984 -150.58099365234375,110 -149.58099365234375,118 C-148.58099365234375,126 -133.58099365234375,127.91200256347656 -133.58099365234375,127.91200256347656 C-133.58099365234375,127.91200256347656 -76.4219970703125,127.94300079345703 -70.42400360107422,128.1009979248047 C-58.08100128173828,128.4250030517578 -59.27199935913086,108.5250015258789 -59.27199935913086,108.5250015258789 C-59.27199935913086,108.5250015258789 -57,57.880001068115234 -57,57.880001068115234 C-57,57.880001068115234 -9.77299976348877,55.566001892089844 -3.7019999027252197,55.939998626708984 C14.168999671936035,57.040000915527344 12.550999641418457,33.060001373291016 12.550999641418457,33.060001373291016 C12.550999641418457,33.060001373291016 12.871000289916992,-4.973999977111816 11.550999641418457,-15.9399995803833 C9.965999603271484,-29.11400032043457 -4.019000053405762,-28.429000854492188 -4.019000053405762,-28.429000854492188 C-4.019000053405762,-28.429000854492188 -60.323001861572266,-27.576000213623047 -60.323001861572266,-27.576000213623047 C-60.323001861572266,-27.576000213623047 -60.757999420166016,-77.00199890136719 -60.893001556396484,-81 C-61.43000030517578,-96.94200134277344 -75.89299774169922,-97 -75.89299774169922,-97z"></path></g><g opacity="1" transform="matrix(0.9517800211906433,0,0,0.9517800211906433,-27.719711303710938,-27.232868194580078)"><path fill="url(#__lottie_element_24)" fill-opacity="1" d=" M-75.89299774169922,-97 C-75.89299774169922,-97 -132.6280059814453,-97.57099914550781 -137.95799255371094,-96.8030014038086 C-150.8260040283203,-94.947998046875 -150.031005859375,-78.37300109863281 -150.031005859375,-78.37300109863281 C-150.031005859375,-78.37300109863281 -149.94900512695312,-27.37299919128418 -149.94900512695312,-27.37299919128418 C-149.94900512695312,-27.37299919128418 -200.15199279785156,-26.047000885009766 -209.15199279785156,-25.047000885009766 C-218.15199279785156,-24.047000885009766 -220.15199279785156,-12.04699993133545 -220.15199279785156,-12.04699993133545 C-220.15199279785156,-12.04699993133545 -221.2030029296875,36.32600021362305 -221.2030029296875,36.32600021362305 C-221.2030029296875,36.32600021362305 -221.4600067138672,44.698001861572266 -214.2530059814453,51.17399978637695 C-208.9929962158203,55.900001525878906 -198.35499572753906,56.37699890136719 -198.35499572753906,56.37699890136719 C-198.35499572753906,56.37699890136719 -150.84100341796875,55.867000579833984 -150.84100341796875,55.867000579833984 C-150.84100341796875,55.867000579833984 -150.58099365234375,110 -149.58099365234375,118 C-148.58099365234375,126 -133.58099365234375,127.91200256347656 -133.58099365234375,127.91200256347656 C-133.58099365234375,127.91200256347656 -76.4219970703125,127.94300079345703 -70.42400360107422,128.1009979248047 C-58.08100128173828,128.4250030517578 -59.27199935913086,108.5250015258789 -59.27199935913086,108.5250015258789 C-59.27199935913086,108.5250015258789 -57,57.880001068115234 -57,57.880001068115234 C-57,57.880001068115234 -9.77299976348877,55.566001892089844 -3.7019999027252197,55.939998626708984 C14.168999671936035,57.040000915527344 12.550999641418457,33.060001373291016 12.550999641418457,33.060001373291016 C12.550999641418457,33.060001373291016 12.871000289916992,-4.973999977111816 11.550999641418457,-15.9399995803833 C9.965999603271484,-29.11400032043457 -4.019000053405762,-28.429000854492188 -4.019000053405762,-28.429000854492188 C-4.019000053405762,-28.429000854492188 -60.323001861572266,-27.576000213623047 -60.323001861572266,-27.576000213623047 C-60.323001861572266,-27.576000213623047 -60.757999420166016,-77.00199890136719 -60.893001556396484,-81 C-61.43000030517578,-96.94200134277344 -75.89299774169922,-97 -75.89299774169922,-97z"></path></g><g opacity="1" transform="matrix(0.9517800211906433,0,0,0.9517800211906433,-27.719711303710938,-27.232868194580078)"><path stroke-linecap="round" stroke-linejoin="round" fill-opacity="0" stroke="rgb(81,29,132)" stroke-opacity="1" stroke-width="14" d=" M-75.89299774169922,-97 C-75.89299774169922,-97 -132.6280059814453,-97.57099914550781 -137.95799255371094,-96.8030014038086 C-150.8260040283203,-94.947998046875 -150.031005859375,-78.37300109863281 -150.031005859375,-78.37300109863281 C-150.031005859375,-78.37300109863281 -149.94900512695312,-27.37299919128418 -149.94900512695312,-27.37299919128418 C-149.94900512695312,-27.37299919128418 -200.15199279785156,-26.047000885009766 -209.15199279785156,-25.047000885009766 C-218.15199279785156,-24.047000885009766 -220.15199279785156,-12.04699993133545 -220.15199279785156,-12.04699993133545 C-220.15199279785156,-12.04699993133545 -221.2030029296875,36.32600021362305 -221.2030029296875,36.32600021362305 C-221.2030029296875,36.32600021362305 -221.4600067138672,44.698001861572266 -214.2530059814453,51.17399978637695 C-208.9929962158203,55.900001525878906 -198.35499572753906,56.37699890136719 -198.35499572753906,56.37699890136719 C-198.35499572753906,56.37699890136719 -150.84100341796875,55.867000579833984 -150.84100341796875,55.867000579833984 C-150.84100341796875,55.867000579833984 -150.58099365234375,110 -149.58099365234375,118 C-148.58099365234375,126 -133.58099365234375,127.91200256347656 -133.58099365234375,127.91200256347656 C-133.58099365234375,127.91200256347656 -76.4219970703125,127.94300079345703 -70.42400360107422,128.1009979248047 C-58.08100128173828,128.4250030517578 -59.27199935913086,108.5250015258789 -59.27199935913086,108.5250015258789 C-59.27199935913086,108.5250015258789 -57,57.880001068115234 -57,57.880001068115234 C-57,57.880001068115234 -9.77299976348877,55.566001892089844 -3.7019999027252197,55.939998626708984 C14.168999671936035,57.040000915527344 12.550999641418457,33.060001373291016 12.550999641418457,33.060001373291016 C12.550999641418457,33.060001373291016 12.871000289916992,-4.973999977111816 11.550999641418457,-15.9399995803833 C9.965999603271484,-29.11400032043457 -4.019000053405762,-28.429000854492188 -4.019000053405762,-28.429000854492188 C-4.019000053405762,-28.429000854492188 -60.323001861572266,-27.576000213623047 -60.323001861572266,-27.576000213623047 C-60.323001861572266,-27.576000213623047 -60.757999420166016,-77.00199890136719 -60.893001556396484,-81 C-61.43000030517578,-96.94200134277344 -75.89299774169922,-97 -75.89299774169922,-97z"></path></g><g opacity="1" transform="matrix(1,0,0,1,0,0)"><path fill="url(#__lottie_element_25)" mask="url(#__lottie_element_27)" fill-opacity="0" d="M0 0 M-43.39899826049805,1.5779999494552612 C-49.56100082397461,1.4019999504089355 -89.06999969482422,1.937000036239624 -89.06999969482422,1.937000036239624 C-89.06999969482422,1.937000036239624 -99.94599914550781,0.6790000200271606 -103.62899780273438,11.307000160217285 C-106.46299743652344,19.485000610351562 -107.41899871826172,77.73300170898438 -107.41899871826172,77.73300170898438 C-107.41899871826172,77.73300170898438 -109.5,85.0260009765625 -102.26799774169922,86.36000061035156 C-95.42500305175781,87.62200164794922 -95.32099914550781,77.72200012207031 -95.32099914550781,77.72200012207031 C-95.32099914550781,77.72200012207031 -92.26799774169922,22.60099983215332 -92.26799774169922,22.60099983215332 C-92.26799774169922,22.60099983215332 -91.70600128173828,17.457000732421875 -88.625,17.545000076293945 C-85.54399871826172,17.632999420166016 -40.21500015258789,14.71399974822998 -40.21500015258789,14.71399974822998 C-40.21500015258789,14.71399974822998 -27.958999633789062,15.361000061035156 -28.917999267578125,7.38700008392334 C-29.81100082397461,-0.03700000047683716 -37.23699951171875,1.753999948501587 -43.39899826049805,1.5779999494552612z"></path></g><g opacity="1" transform="matrix(-1.0452200174331665,0,0,1,-259.25201416015625,-1.9809999465942383)"><path fill="url(#__lottie_element_28)" mask="url(#__lottie_element_30)" fill-opacity="0.39591000000000004" d="M0 0 M-43.39899826049805,3.7890000343322754 C-49.56100082397461,3.61299991607666 -89.31900024414062,3.1070001125335693 -89.31900024414062,3.1070001125335693 C-89.31900024414062,3.1070001125335693 -99.94599914550781,0.6790000200271606 -103.62899780273438,11.307000160217285 C-106.46299743652344,19.485000610351562 -107.41899871826172,77.73300170898438 -107.41899871826172,77.73300170898438 C-107.41899871826172,77.73300170898438 -109.5,85.0260009765625 -102.26799774169922,86.36000061035156 C-95.42500305175781,87.62200164794922 -95.32099914550781,77.72200012207031 -95.32099914550781,77.72200012207031 C-95.32099914550781,77.72200012207031 -92.26799774169922,22.60099983215332 -92.26799774169922,22.60099983215332 C-92.26799774169922,22.60099983215332 -91.70600128173828,17.457000732421875 -88.625,17.545000076293945 C-85.54399871826172,17.632999420166016 -40.83700180053711,16.53499984741211 -40.83700180053711,16.53499984741211 C-40.83700180053711,16.53499984741211 -28.08300018310547,17.051000595092773 -29.04199981689453,9.07699966430664 C-29.934999465942383,1.652999997138977 -37.23699951171875,3.9649999141693115 -43.39899826049805,3.7890000343322754z"></path></g></g><g style="display: block;" transform="matrix(1.0974202156066895,-0.006588916294276714,0.006588916294276714,1.0974202156066895,203.1531219482422,264.378662109375)" opacity="1"><g opacity="1" transform="matrix(1,0,0,1,0,0)"><path fill="url(#__lottie_element_14)" fill-opacity="1" d=" M182,-208 C171.62899780273438,-208.35800170898438 151.3000030517578,-207.57000732421875 137.947998046875,-201.5590057373047 C125.43900299072266,-195.92799377441406 114.89099884033203,-180.34100341796875 105,-165 C56,-89 53,-92 42,-74 C31.11199951171875,-56.18299865722656 43,-38 71,-38 C77,-38 104,-38 104,-38 C104,-38 100,148 100,172 C100,196 130,200 130,200 C130,200 180.88299560546875,199.51199340820312 197,200 C230,201 229,183 230,140 C230.6060028076172,113.93000030517578 240,-163 236,-187 C232,-211 211,-207 182,-208z"></path><path stroke-linecap="butt" stroke-linejoin="round" fill-opacity="0" stroke="rgb(74,27,119)" stroke-opacity="1" stroke-width="13" d=" M182,-208 C171.62899780273438,-208.35800170898438 151.3000030517578,-207.57000732421875 137.947998046875,-201.5590057373047 C125.43900299072266,-195.92799377441406 114.89099884033203,-180.34100341796875 105,-165 C56,-89 53,-92 42,-74 C31.11199951171875,-56.18299865722656 43,-38 71,-38 C77,-38 104,-38 104,-38 C104,-38 100,148 100,172 C100,196 130,200 130,200 C130,200 180.88299560546875,199.51199340820312 197,200 C230,201 229,183 230,140 C230.6060028076172,113.93000030517578 240,-163 236,-187 C232,-211 211,-207 182,-208z"></path></g><g opacity="1" transform="matrix(1,0,0,1,-4,0)"><path fill="url(#__lottie_element_15)" mask="url(#__lottie_element_17)" fill-opacity="1" d="M0 0 M159.21499633789062,-188.94900512695312 C148.77000427246094,-195.14199829101562 136.29200744628906,-175.87899780273438 136.29200744628906,-175.87899780273438 C136.29200744628906,-175.87899780273438 115.61299896240234,-142.20599365234375 102.91600036621094,-123.65599822998047 C90.21900177001953,-105.10600280761719 79.46600341796875,-89.1989974975586 79.46600341796875,-89.1989974975586 C79.46600341796875,-89.1989974975586 71.47000122070312,-80.86799621582031 67.7040023803711,-73.98200225830078 C64.40499877929688,-67.94999694824219 62.58300018310547,-63.66400146484375 69.47100067138672,-60.04600143432617 C80.49400329589844,-54.25699996948242 95.53399658203125,-72.05999755859375 101.23999786376953,-77.26499938964844 C106.94599914550781,-82.47000122070312 134.6529998779297,-128.19000244140625 144.93600463867188,-145.87100219726562 C152.46499633789062,-158.8159942626953 158.14199829101562,-167.77000427246094 163.1179962158203,-179.41000366210938 C165.03199768066406,-183.88699340820312 162.7480010986328,-186.85400390625 159.21499633789062,-188.94900512695312z"></path></g></g></g><g style="display: block;" transform="matrix(1,0,0,1,256,256)" opacity="1"></g></g></svg>