<svg xmlns="http://www.w3.org/2000/svg" xmlns:xlink="http://www.w3.org/1999/xlink" viewBox="0 0 512 512" width="512" height="512" style="width: 100%; height: 100%; transform: translate3d(0,0,0); content-visibility: visible;" preserveAspectRatio="xMidYMid meet"><defs><clipPath id="__lottie_element_2"><rect width="512" height="512" x="0" y="0"></rect></clipPath><clipPath id="__lottie_element_4"><path d="M0,0 L512,0 L512,512 L0,512z"></path></clipPath><radialGradient id="__lottie_element_13" spreadMethod="pad" gradientUnits="userSpaceOnUse" cx="-62.97700119018555" cy="-90.13300323486328" r="256.2203705525866" fx="-62.97700119018555" fy="-90.13300323486328"><stop offset="0%" stop-color="rgb(250,225,189)"></stop><stop offset="50%" stop-color="rgb(248,203,159)"></stop><stop offset="100%" stop-color="rgb(246,181,129)"></stop></radialGradient><mask id="__lottie_element_15"><path fill="url(#__lottie_element_14)" d=" M-183.48500061035156,18.70199966430664 C-189.3979949951172,-10.937999725341797 -197.64599609375,-83.03500366210938 -127.86399841308594,-132.81300354003906 C-58.08300018310547,-182.59100341796875 79.6969985961914,-170.7469940185547 147.25100708007812,-106.36299896240234 C209.6020050048828,-46.9379997253418 201.64500427246094,56.93000030517578 143.6959991455078,109.10399627685547 C77.62300109863281,168.5919952392578 -40.24700164794922,169.1219940185547 -97.0979995727539,129.5229949951172 C-157.3070068359375,87.58499908447266 -175.68699645996094,57.79100036621094 -183.48500061035156,18.70199966430664z"></path></mask><radialGradient id="__lottie_element_14" spreadMethod="pad" gradientUnits="userSpaceOnUse" cx="-62.97700119018555" cy="-90.13300323486328" r="256.2203705525866" fx="-62.97700119018555" fy="-90.13300323486328"><stop stop-color="rgb(255,255,255)" offset="0%" stop-opacity="0.9300000071525574"></stop><stop stop-color="rgb(255,255,255)" offset="57%" stop-opacity="0.9649999737739563"></stop><stop stop-color="rgb(255,255,255)" offset="100%" stop-opacity="1"></stop></radialGradient><radialGradient id="__lottie_element_16" spreadMethod="pad" gradientUnits="userSpaceOnUse" cx="-62.97700119018555" cy="-90.13300323486328" r="256.2203705525866" fx="-62.97700119018555" fy="-90.13300323486328"><stop offset="0%" stop-color="rgb(255,231,197)"></stop><stop offset="50%" stop-color="rgb(251,200,163)"></stop><stop offset="100%" stop-color="rgb(248,170,129)"></stop></radialGradient><mask id="__lottie_element_18"><path fill="url(#__lottie_element_17)" d=" M-183.48500061035156,18.70199966430664 C-189.3979949951172,-10.937999725341797 -197.64599609375,-83.03500366210938 -127.86399841308594,-132.81300354003906 C-58.08300018310547,-182.59100341796875 79.6969985961914,-170.7469940185547 147.25100708007812,-106.36299896240234 C209.6020050048828,-46.9379997253418 201.64500427246094,56.93000030517578 143.6959991455078,109.10399627685547 C77.62300109863281,168.5919952392578 -40.24700164794922,169.1219940185547 -97.0979995727539,129.5229949951172 C-157.3070068359375,87.58499908447266 -175.68699645996094,57.79100036621094 -183.48500061035156,18.70199966430664z"></path></mask><radialGradient id="__lottie_element_17" spreadMethod="pad" gradientUnits="userSpaceOnUse" cx="-62.97700119018555" cy="-90.13300323486328" r="256.2203705525866" fx="-62.97700119018555" fy="-90.13300323486328"><stop stop-color="rgb(255,255,255)" offset="0%" stop-opacity="0.9300000071525574"></stop><stop stop-color="rgb(255,255,255)" offset="57%" stop-opacity="0.9649999737739563"></stop><stop stop-color="rgb(255,255,255)" offset="100%" stop-opacity="1"></stop></radialGradient></defs><g clip-path="url(#__lottie_element_2)"><g clip-path="url(#__lottie_element_4)" style="display: block;" transform="matrix(1,0,0,1,0,0)" opacity="1"><g style="display: none;"><g><path></path><path stroke-linecap="butt" stroke-linejoin="miter" fill-opacity="0" stroke-miterlimit="10"></path></g><g><path></path><path stroke-linecap="butt" stroke-linejoin="miter" fill-opacity="0" stroke-miterlimit="10"></path></g></g><g style="display: block;" transform="matrix(0.9427695870399475,0.0009635257301852107,-0.0009543528431095183,0.9518311619758606,-9.272564888000488,243.28846740722656)" opacity="1"><g opacity="1" transform="matrix(1,0,0,1,47.08399963378906,54.51300048828125)"><path fill="rgb(112,63,46)" fill-opacity="1" d=" M-24.825000762939453,4.3460001945495605 C-29.52400016784668,4.573999881744385 -30.895999908447266,-1.9500000476837158 -26.472999572753906,-3.5280001163482666 C-26.40399932861328,-3.552999973297119 -26.334999084472656,-3.5769999027252197 -26.264999389648438,-3.5999999046325684 C-19.23200035095215,-5.9679999351501465 -6.396999835968018,-5.36899995803833 4.77400016784668,-4.3520002365112305 C15.944999694824219,-3.3340001106262207 20.702999114990234,-3.5299999713897705 21.225000381469727,-1.3109999895095825 C21.746999740600586,0.9079999923706055 22.819000244140625,3.688999891281128 20.292999267578125,4.198999881744385 C17.767000198364258,4.709000110626221 9.093999862670898,4.8379998207092285 0.7049999833106995,4.697000026702881 C-4.447999954223633,4.610000133514404 -19.902000427246094,4.10699987411499 -24.825000762939453,4.3460001945495605z"></path><path stroke-linecap="butt" stroke-linejoin="miter" fill-opacity="0" stroke-miterlimit="10" stroke="rgb(90,42,31)" stroke-opacity="1" stroke-width="9.706" d=" M-24.825000762939453,4.3460001945495605 C-29.52400016784668,4.573999881744385 -30.895999908447266,-1.9500000476837158 -26.472999572753906,-3.5280001163482666 C-26.40399932861328,-3.552999973297119 -26.334999084472656,-3.5769999027252197 -26.264999389648438,-3.5999999046325684 C-19.23200035095215,-5.9679999351501465 -6.396999835968018,-5.36899995803833 4.77400016784668,-4.3520002365112305 C15.944999694824219,-3.3340001106262207 20.702999114990234,-3.5299999713897705 21.225000381469727,-1.3109999895095825 C21.746999740600586,0.9079999923706055 22.819000244140625,3.688999891281128 20.292999267578125,4.198999881744385 C17.767000198364258,4.709000110626221 9.093999862670898,4.8379998207092285 0.7049999833106995,4.697000026702881 C-4.447999954223633,4.610000133514404 -19.902000427246094,4.10699987411499 -24.825000762939453,4.3460001945495605z"></path></g><g opacity="1" transform="matrix(1,0,0,1,75.58899688720703,70.15699768066406)"><path fill="rgb(90,42,31)" fill-opacity="1" d=" M12.932000160217285,11.842000007629395 C1.0570000410079956,19.37700080871582 -13.404999732971191,14.435999870300293 -18.391000747680664,11.58899974822998 C-23.378000259399414,8.743000030517578 -23.57699966430664,4.041999816894531 -23.57699966430664,4.041999816894531 C-23.57699966430664,4.041999816894531 -27.138999938964844,-0.43799999356269836 -25.386999130249023,-4.828999996185303 C-23.634000778198242,-9.220000267028809 -20.413000106811523,-17.729999542236328 -12.843999862670898,-18.707000732421875 C-7.64900016784668,-19.378000259399414 9.520000457763672,-18.93600082397461 19.777000427246094,-18.591999053955078 C24.066999435424805,-18.447999954223633 27.138999938964844,-14.413999557495117 26.04800033569336,-10.314000129699707 C24.11400032043457,-3.0480000972747803 20.207000732421875,7.224999904632568 12.932000160217285,11.842000007629395z"></path><path stroke-linecap="butt" stroke-linejoin="miter" fill-opacity="0" stroke-miterlimit="10" stroke="rgb(90,42,31)" stroke-opacity="1" stroke-width="9.706" d=" M12.932000160217285,11.842000007629395 C1.0570000410079956,19.37700080871582 -13.404999732971191,14.435999870300293 -18.391000747680664,11.58899974822998 C-23.378000259399414,8.743000030517578 -23.57699966430664,4.041999816894531 -23.57699966430664,4.041999816894531 C-23.57699966430664,4.041999816894531 -27.138999938964844,-0.43799999356269836 -25.386999130249023,-4.828999996185303 C-23.634000778198242,-9.220000267028809 -20.413000106811523,-17.729999542236328 -12.843999862670898,-18.707000732421875 C-7.64900016784668,-19.378000259399414 9.520000457763672,-18.93600082397461 19.777000427246094,-18.591999053955078 C24.066999435424805,-18.447999954223633 27.138999938964844,-14.413999557495117 26.04800033569336,-10.314000129699707 C24.11400032043457,-3.0480000972747803 20.207000732421875,7.224999904632568 12.932000160217285,11.842000007629395z"></path></g></g><g style="display: none;"><g><path stroke-linecap="round" stroke-linejoin="round" fill-opacity="0"></path></g></g><g style="display: block;" transform="matrix(0.8485377430915833,0.20690782368183136,-0.20493803918361664,0.8566935658454895,43.88375473022461,207.56576538085938)" opacity="1"><g opacity="1" transform="matrix(1,0,0,1,189.68499755859375,45.69900131225586)"><path stroke-linecap="round" stroke-linejoin="round" fill-opacity="0" stroke="rgb(90,42,31)" stroke-opacity="1" stroke-width="10.493" d=" M97.45800018310547,-11.467000007629395 C97.45800018310547,-11.467000007629395 74.17500305175781,-7.210000038146973 26.827999114990234,4.900000095367432 C-21.216999053955078,16.214000701904297 -45.99300003051758,22.0310001373291 -65.61499786376953,26.656999588012695 C-97.71700286865234,36.7140007019043 -124.45800018310547,38.96699905395508 -124.45800018310547,38.96699905395508"></path></g></g><g style="display: block;" transform="matrix(1.0299999713897705,0,0,1.0398999452590942,74.79752349853516,2.6585330963134766)" opacity="1"><g opacity="0.99" transform="matrix(1,0,0,1,226.61300659179688,197.5590057373047)"><path fill="url(#__lottie_element_13)" mask="url(#__lottie_element_15)" fill-opacity="1" d="M0 0 M-183.48500061035156,18.70199966430664 C-189.3979949951172,-10.937999725341797 -197.64599609375,-83.03500366210938 -127.86399841308594,-132.81300354003906 C-58.08300018310547,-182.59100341796875 79.6969985961914,-170.7469940185547 147.25100708007812,-106.36299896240234 C209.6020050048828,-46.9379997253418 201.64500427246094,56.93000030517578 143.6959991455078,109.10399627685547 C77.62300109863281,168.5919952392578 -40.24700164794922,169.1219940185547 -97.0979995727539,129.5229949951172 C-157.3070068359375,87.58499908447266 -175.68699645996094,57.79100036621094 -183.48500061035156,18.70199966430664z"></path><path stroke-linecap="butt" stroke-linejoin="miter" fill-opacity="0" stroke-miterlimit="10" stroke="rgb(173,102,64)" stroke-opacity="1" stroke-width="12" d=" M-183.48500061035156,18.70199966430664 C-189.3979949951172,-10.937999725341797 -197.64599609375,-83.03500366210938 -127.86399841308594,-132.81300354003906 C-58.08300018310547,-182.59100341796875 79.6969985961914,-170.7469940185547 147.25100708007812,-106.36299896240234 C209.6020050048828,-46.9379997253418 201.64500427246094,56.93000030517578 143.6959991455078,109.10399627685547 C77.62300109863281,168.5919952392578 -40.24700164794922,169.1219940185547 -97.0979995727539,129.5229949951172 C-157.3070068359375,87.58499908447266 -175.68699645996094,57.79100036621094 -183.48500061035156,18.70199966430664z"></path></g><g opacity="0.99" transform="matrix(1,0,0,1,226.61300659179688,197.5590057373047)"><path fill="url(#__lottie_element_16)" mask="url(#__lottie_element_18)" fill-opacity="1" d="M0 0 M-183.48500061035156,18.70199966430664 C-189.3979949951172,-10.937999725341797 -197.64599609375,-83.03500366210938 -127.86399841308594,-132.81300354003906 C-58.08300018310547,-182.59100341796875 79.6969985961914,-170.7469940185547 147.25100708007812,-106.36299896240234 C209.6020050048828,-46.9379997253418 201.64500427246094,56.93000030517578 143.6959991455078,109.10399627685547 C77.62300109863281,168.5919952392578 -40.24700164794922,169.1219940185547 -97.0979995727539,129.5229949951172 C-157.3070068359375,87.58499908447266 -175.68699645996094,57.79100036621094 -183.48500061035156,18.70199966430664z"></path><path stroke-linecap="butt" stroke-linejoin="miter" fill-opacity="0" stroke-miterlimit="10" stroke="rgb(173,102,64)" stroke-opacity="1" stroke-width="12" d=" M-183.48500061035156,18.70199966430664 C-189.3979949951172,-10.937999725341797 -197.64599609375,-83.03500366210938 -127.86399841308594,-132.81300354003906 C-58.08300018310547,-182.59100341796875 79.6969985961914,-170.7469940185547 147.25100708007812,-106.36299896240234 C209.6020050048828,-46.9379997253418 201.64500427246094,56.93000030517578 143.6959991455078,109.10399627685547 C77.62300109863281,168.5919952392578 -40.24700164794922,169.1219940185547 -97.0979995727539,129.5229949951172 C-157.3070068359375,87.58499908447266 -175.68699645996094,57.79100036621094 -183.48500061035156,18.70199966430664z"></path></g><g opacity="1" transform="matrix(1,0,0,1,237.9250030517578,239)"><path fill="rgb(238,146,93)" fill-opacity="1" d=" M147.08599853515625,-126.58999633789062 C145.3719940185547,-128.9429931640625 145.68800354003906,-127.55999755859375 146.27099609375,-124.70800018310547 C151.1479949951172,-100.87999725341797 164.125,-31.062999725341797 133.2449951171875,21.975000381469727 C93.9219970703125,89.51200103759766 11.260000228881836,93.95999908447266 -20.18600082397461,93.24500274658203 C-51.63199996948242,92.52999877929688 -93.8489990234375,77.302001953125 -116.3280029296875,65.94000244140625 C-138.80799865722656,54.577999114990234 -163.0780029296875,30.027000427246094 -163.0780029296875,30.027000427246094 C-163.0780029296875,30.027000427246094 -108.70899963378906,120.62100219726562 21.486000061035156,107.4489974975586 C164.08700561523438,93.02200317382812 174.0780029296875,-11.852999687194824 171.93699645996094,-47.167999267578125 C169.46299743652344,-87.98100280761719 154.8560028076172,-115.9209976196289 147.08599853515625,-126.58999633789062z"></path></g></g><g style="display: block;" transform="matrix(1.0299999713897705,0,0,1.0398999452590942,175.87965393066406,151.63565063476562)" opacity="1"><g opacity="1" transform="matrix(0.9802200198173523,0,0,0.9489200115203857,-5.013298034667969,8.355842590332031)"><g opacity="1" transform="matrix(1,0,0,1,111.7770004272461,95.34600067138672)"><path fill="rgb(65,30,39)" fill-opacity="1" d=" M-52.32500076293945,-59.54100036621094 C-58.1349983215332,-61.74399948120117 -64.6709976196289,-59.19200134277344 -67.43000030517578,-53.625 C-74.51100158691406,-39.334999084472656 -83.5250015258789,-10.793999671936035 -63.77000045776367,19.163999557495117 C-35.689998626708984,61.74399948120117 16.083999633789062,54.60599899291992 33.17599868774414,51.202999114990234 C50.268001556396484,47.80099868774414 67.83699798583984,32.42499923706055 75.19999694824219,16.97599983215332 C81.75800323486328,3.2149999141693115 83.5250015258789,-8.036999702453613 81.30899810791016,-8.87399959564209 C79.44499969482422,-9.579999923706055 -20.676000595092773,-47.54100036621094 -52.32500076293945,-59.54100036621094z"></path><path stroke-linecap="round" stroke-linejoin="round" fill-opacity="0" stroke="rgb(25,11,16)" stroke-opacity="1" stroke-width="11.301" d=" M-52.32500076293945,-59.54100036621094 C-58.1349983215332,-61.74399948120117 -64.6709976196289,-59.19200134277344 -67.43000030517578,-53.625 C-74.51100158691406,-39.334999084472656 -83.5250015258789,-10.793999671936035 -63.77000045776367,19.163999557495117 C-35.689998626708984,61.74399948120117 16.083999633789062,54.60599899291992 33.17599868774414,51.202999114990234 C50.268001556396484,47.80099868774414 67.83699798583984,32.42499923706055 75.19999694824219,16.97599983215332 C81.75800323486328,3.2149999141693115 83.5250015258789,-8.036999702453613 81.30899810791016,-8.87399959564209 C79.44499969482422,-9.579999923706055 -20.676000595092773,-47.54100036621094 -52.32500076293945,-59.54100036621094z"></path></g><g opacity="1" transform="matrix(1,0,0,1,60.23400115966797,44.724998474121094)"><path fill="rgb(253,253,253)" fill-opacity="1" d=" M-6.317999839782715,-9.416999816894531 C-8.37399959564209,-10.081000328063965 -10.527999877929688,-8.612000465393066 -10.529999732971191,-6.511000156402588 C-10.534000396728516,-3.5829999446868896 -10.069000244140625,0.40700000524520874 -8.008000373840332,3.815999984741211 C-4.2210001945495605,10.081000328063965 2.4670000076293945,7.460000038146973 5.609000205993652,4.927999973297119 C7.244999885559082,3.609999895095825 8.60200023651123,1.2920000553131104 9.527000427246094,-0.628000020980835 C10.335000038146973,-2.303999900817871 10.534000396728516,-3.9730000495910645 8.723999977111816,-4.558000087738037 C8.723999977111816,-4.558000087738037 -6.317999839782715,-9.416999816894531 -6.317999839782715,-9.416999816894531z"></path></g><g opacity="1" transform="matrix(1,0,0,1,83.35199737548828,52.941001892089844)"><path fill="rgb(253,253,253)" fill-opacity="1" d=" M8.508999824523926,-4.006999969482422 C11.27299976348877,-2.924999952316284 10.47599983215332,-0.47099998593330383 8.83899974822998,2.00600004196167 C7.9679999351501465,3.325000047683716 6.7210001945495605,4.751999855041504 4.935999870300293,6.109000205993652 C-0.7570000290870667,10.439000129699707 -4.883999824523926,8.529999732971191 -7.6529998779296875,6.308000087738037 C-10.42199993133545,4.086999893188477 -11.170999526977539,-1.5829999446868896 -11.232000350952148,-4.829999923706055 C-11.232999801635742,-4.86299991607666 -11.232999801635742,-4.894000053405762 -11.234000205993652,-4.926000118255615 C-11.27299976348877,-8.199999809265137 -7.920000076293945,-10.437999725341797 -4.872000217437744,-9.244999885559082 C-4.872000217437744,-9.244999885559082 8.508999824523926,-4.006999969482422 8.508999824523926,-4.006999969482422z"></path></g><g opacity="1" transform="matrix(1,0,0,1,113.79900360107422,62.73500061035156)"><path fill="rgb(253,253,253)" fill-opacity="1" d=" M17.243999481201172,0.6809999942779541 C17.26300048828125,0.8700000047683716 17.26099967956543,1.0549999475479126 17.233999252319336,1.2419999837875366 C17.040000915527344,2.5840001106262207 15.875,7.913000106811523 9.51200008392334,9.4399995803833 C2.2139999866485596,11.190999984741211 -3.5329999923706055,9.685999870300293 -9.317000389099121,6.276000022888184 C-15.100000381469727,2.865999937057495 -17.26300048828125,-2.9579999446868896 -17.160999298095703,-5.306000232696533 C-17.110000610351562,-6.484000205993652 -16.695999145507812,-8.039999961853027 -16.297000885009766,-9.295999526977539 C-15.906999588012695,-10.52299976348877 -14.583999633789062,-11.1899995803833 -13.361000061035156,-10.788999557495117 C-13.361000061035156,-10.788999557495117 15.654000282287598,-1.2920000553131104 15.654000282287598,-1.2920000553131104 C16.527000427246094,-1.00600004196167 17.149999618530273,-0.2329999953508377 17.243999481201172,0.6809999942779541z"></path></g><g opacity="1" transform="matrix(1,0,0,1,147.53500366210938,75.93299865722656)"><path fill="rgb(253,253,253)" fill-opacity="1" d=" M11.163999557495117,-0.7919999957084656 C12.850000381469727,-0.017000000923871994 13.508999824523926,2.0369999408721924 12.583000183105469,3.6449999809265137 C11.508999824523926,5.51200008392334 9.753000259399414,7.7270002365112305 7.1020002365112305,8.845999717712402 C2.010999917984009,10.994999885559082 -3.446000099182129,9.33899974822998 -7.3460001945495605,4.71999979019165 C-9.23799991607666,2.4800000190734863 -13.508000373840332,-3.2279999256134033 -13.437000274658203,-7.189000129699707 C-13.435999870300293,-7.211999893188477 -13.437000274658203,-7.236000061035156 -13.437999725341797,-7.258999824523926 C-13.45199966430664,-9.526000022888184 -11.02400016784668,-10.994999885559082 -8.96399974822998,-10.04800033569336 C-8.96399974822998,-10.04800033569336 11.163999557495117,-0.7919999957084656 11.163999557495117,-0.7919999957084656z"></path></g><g opacity="1" transform="matrix(1,0,0,1,174.43099975585938,87.14700317382812)"><path fill="rgb(253,253,253)" fill-opacity="1" d=" M-7.021999835968018,6.189000129699707 C-3.4489998817443848,9.053999900817871 -0.1720000058412552,8.442000389099121 2.1029999256134033,7.995999813079834 C6.445000171661377,7.144999980926514 9.732999801635742,2.244999885559082 10.182000160217285,-0.527999997138977 C10.368000030517578,-1.6759999990463257 9.727999687194824,-2.7939999103546143 8.63700008392334,-3.1989998817443848 C8.63700008392334,-3.1989998817443848 -4.702000141143799,-8.329000473022461 -4.702000141143799,-8.329000473022461 C-6.660999774932861,-9.053999900817871 -8.802000045776367,-7.855000019073486 -9.20199966430664,-5.804999828338623 C-9.928000450134277,-2.0840001106262207 -10.368000030517578,3.50600004196167 -7.021999835968018,6.189000129699707z"></path></g><g opacity="1" transform="matrix(1,0,0,1,133.9669952392578,128.22300720214844)"><path fill="rgb(232,107,131)" fill-opacity="1" d=" M-42.29800033569336,18.874000549316406 C-42.29800033569336,18.874000549316406 -39.04199981689453,1.6579999923706055 -15.23799991607666,-7.370999813079834 C8.565999984741211,-16.39900016784668 29.881000518798828,-5.804999828338623 34.551998138427734,-3.0329999923706055 C39.2239990234375,-0.2619999945163727 38.29800033569336,0.7570000290870667 38.29800033569336,0.7570000290870667 C38.29800033569336,0.7570000290870667 29.107999801635742,18.516000747680664 -0.08500000089406967,21.70800018310547 C-29.27899932861328,24.89900016784668 -42.29800033569336,18.874000549316406 -42.29800033569336,18.874000549316406z"></path><path stroke-linecap="round" stroke-linejoin="round" fill-opacity="0" stroke="rgb(202,54,77)" stroke-opacity="1" stroke-width="8.879" d=" M-42.29800033569336,18.874000549316406 C-42.29800033569336,18.874000549316406 -39.04199981689453,1.6579999923706055 -15.23799991607666,-7.370999813079834 C8.565999984741211,-16.39900016784668 29.881000518798828,-5.804999828338623 34.551998138427734,-3.0329999923706055 C39.2239990234375,-0.2619999945163727 38.29800033569336,0.7570000290870667 38.29800033569336,0.7570000290870667 C38.29800033569336,0.7570000290870667 29.107999801635742,18.516000747680664 -0.08500000089406967,21.70800018310547 C-29.27899932861328,24.89900016784668 -42.29800033569336,18.874000549316406 -42.29800033569336,18.874000549316406z"></path></g><g opacity="1" transform="matrix(1,0,0,1,111.7770004272461,95.34600067138672)"><path stroke-linecap="round" stroke-linejoin="round" fill-opacity="0" stroke="rgb(47,17,25)" stroke-opacity="1" stroke-width="11.301" d=" M-52.32500076293945,-59.54100036621094 C-58.1349983215332,-61.74399948120117 -64.6709976196289,-59.19200134277344 -67.43000030517578,-53.625 C-74.51100158691406,-39.334999084472656 -83.5250015258789,-10.793999671936035 -63.77000045776367,19.163999557495117 C-35.689998626708984,61.74399948120117 16.083999633789062,54.60599899291992 33.17599868774414,51.202999114990234 C50.268001556396484,47.80099868774414 67.83699798583984,32.42499923706055 75.19999694824219,16.97599983215332 C81.75800323486328,3.2149999141693115 83.5250015258789,-8.036999702453613 81.30899810791016,-8.87399959564209 C79.44499969482422,-9.579999923706055 -20.676000595092773,-47.54100036621094 -52.32500076293945,-59.54100036621094z"></path></g><g opacity="1" transform="matrix(1,0,0,1,116.74500274658203,58.01900100708008)"><path stroke-linecap="round" stroke-linejoin="round" fill-opacity="0" stroke="rgb(25,11,16)" stroke-opacity="1" stroke-width="11.301" d=" M-80.4729995727539,-29.06999969482422 C-80.4729995727539,-29.06999969482422 -74.62100219726562,-29.767000198364258 -70.19599914550781,-28.385000228881836 C-68.03099822998047,-27.70800018310547 -31.923999786376953,-13.776000022888184 4.395999908447266,0.2800000011920929 C42.31800079345703,14.956000328063965 80.4729995727539,29.767000198364258 80.4729995727539,29.767000198364258"></path></g></g></g><g style="display: block;" transform="matrix(1.0299999713897705,0,0,1.0398999452590942,140.5897979736328,98.62259674072266)" opacity="1"><g opacity="1" transform="matrix(1,0,0,1,0,0)"><g opacity="1" transform="matrix(1,0,0,1,68.70800018310547,44.65700149536133)"><path fill="rgb(255,255,255)" fill-opacity="1" d=" M-38.678001403808594,0.3869999945163727 C-40.74800109863281,-1.2899999618530273 -43.900001525878906,-5.7210001945495605 -44.1510009765625,-8.373000144958496 C-44.4900016784668,-11.939000129699707 -43.3380012512207,-17.599000930786133 -33.9109992980957,-18.910999298095703 C-22.941999435424805,-20.43899917602539 21.34000015258789,-5 31.54599952697754,-0.3540000021457672 C41.750999450683594,4.291999816894531 44.49100112915039,9.520000457763672 41.071998596191406,14.86299991607666 C37.65399932861328,20.207000732421875 15.407999992370605,20.440000534057617 -12.187000274658203,13.230999946594238 C-27.365999221801758,9.265999794006348 -33.01900100708008,4.9720001220703125 -38.678001403808594,0.3869999945163727z"></path><path stroke-linecap="butt" stroke-linejoin="miter" fill-opacity="0" stroke-miterlimit="10" stroke="rgb(64,43,35)" stroke-opacity="1" stroke-width="9.687" d=" M-38.678001403808594,0.3869999945163727 C-40.74800109863281,-1.2899999618530273 -43.900001525878906,-5.7210001945495605 -44.1510009765625,-8.373000144958496 C-44.4900016784668,-11.939000129699707 -43.3380012512207,-17.599000930786133 -33.9109992980957,-18.910999298095703 C-22.941999435424805,-20.43899917602539 21.34000015258789,-5 31.54599952697754,-0.3540000021457672 C41.750999450683594,4.291999816894531 44.49100112915039,9.520000457763672 41.071998596191406,14.86299991607666 C37.65399932861328,20.207000732421875 15.407999992370605,20.440000534057617 -12.187000274658203,13.230999946594238 C-27.365999221801758,9.265999794006348 -33.01900100708008,4.9720001220703125 -38.678001403808594,0.3869999945163727z"></path></g><g opacity="1" transform="matrix(1,0,0,1,42.433998107910156,39.6619987487793)"><path fill="rgb(9,9,2)" fill-opacity="1" d=" M14.628000259399414,-7.446000099182129 C19.218000411987305,-4.5229997634887695 19.82900047302246,3.319999933242798 16.93000030517578,7.925000190734863 C16.80900001525879,8.118000030517578 16.679000854492188,8.3100004196167 16.54199981689453,8.50100040435791 C12.684000015258789,13.852999687194824 6.071000099182129,13.097999572753906 1.2170000076293945,12.3100004196167 C-3.63700008392334,11.522000312805176 -19.829999923706055,3.4839999675750732 -17.878000259399414,-3.378000020980835 C-15.925999641418457,-10.241000175476074 -3.236999988555908,-13.852999687194824 6.031000137329102,-12.269000053405762 C11.755999565124512,-11.289999961853027 10.666000366210938,-9.968000411987305 14.628000259399414,-7.446000099182129z"></path></g><g opacity="1" transform="matrix(0.3199999928474426,0,0,0.3199999928474426,60.433998107910156,44.6619987487793)"><path fill="rgb(255,255,255)" fill-opacity="1" d=" M11.503000259399414,-7.446000099182129 C16.093000411987305,-4.5229997634887695 16.70400047302246,3.319999933242798 13.805000305175781,7.925000190734863 C13.684000015258789,8.118000030517578 13.553999900817871,8.3100004196167 13.416999816894531,8.50100040435791 C9.559000015258789,13.852999687194824 4.508999824523926,9.972999572753906 -0.3449999988079071,9.1850004196167 C-5.198999881744385,8.397000312805176 -27.966999053955078,0.5950000286102295 -27.253000259399414,-6.502999782562256 C-26.07699966430664,-18.194000244140625 -6.361999988555908,-13.852999687194824 2.9059998989105225,-12.269000053405762 C8.630999565124512,-11.289999961853027 7.540999889373779,-9.968000411987305 11.503000259399414,-7.446000099182129z"></path></g><g opacity="1" transform="matrix(1,0,0,1,68.70800018310547,44.65700149536133)"><path stroke-linecap="butt" stroke-linejoin="miter" fill-opacity="0" stroke-miterlimit="10" stroke="rgb(64,43,35)" stroke-opacity="1" stroke-width="9.687" d=" M-38.678001403808594,0.3869999945163727 C-40.74800109863281,-1.2899999618530273 -43.900001525878906,-5.7210001945495605 -44.1510009765625,-8.373000144958496 C-44.4900016784668,-11.939000129699707 -43.3380012512207,-17.599000930786133 -33.9109992980957,-18.910999298095703 C-22.941999435424805,-20.43899917602539 21.34000015258789,-5 31.54599952697754,-0.3540000021457672 C41.750999450683594,4.291999816894531 44.49100112915039,9.520000457763672 41.071998596191406,14.86299991607666 C37.65399932861328,20.207000732421875 15.407999992370605,20.440000534057617 -12.187000274658203,13.230999946594238 C-27.365999221801758,9.265999794006348 -33.01900100708008,4.9720001220703125 -38.678001403808594,0.3869999945163727z"></path></g></g><g opacity="1" transform="matrix(1.0404000282287598,0,0,1.0789399147033691,-5.165496826171875,-9.14532470703125)"><g opacity="1" transform="matrix(1,0,0,1,202.40699768066406,90.552001953125)"><path fill="rgb(255,255,255)" fill-opacity="1" d=" M-32.67100143432617,1.1380000114440918 C-36.31399917602539,-0.382999986410141 -40.987998962402344,-3.5950000286102295 -42.94300079345703,-7.025000095367432 C-45.67300033569336,-11.812000274658203 -42.446998596191406,-19.965999603271484 -39.26900100708008,-22.051000595092773 C-31.447999954223633,-27.184999465942383 -12.135000228881836,-22.468000411987305 9.75100040435791,-11.982000350952148 C38.310001373291016,1.7020000219345093 45.67399978637695,18.865999221801758 42.81999969482422,23.025999069213867 C39.965999603271484,27.184999465942383 10.753000259399414,17.766000747680664 1.8860000371932983,14.121999740600586 C-5.019999980926514,11.282999992370605 -24.402999877929688,4.589000225067139 -32.67100143432617,1.1380000114440918z"></path><path stroke-linecap="butt" stroke-linejoin="miter" fill-opacity="0" stroke-miterlimit="10" stroke="rgb(64,43,35)" stroke-opacity="1" stroke-width="8.879" d=" M-32.67100143432617,1.1380000114440918 C-36.31399917602539,-0.382999986410141 -40.987998962402344,-3.5950000286102295 -42.94300079345703,-7.025000095367432 C-45.67300033569336,-11.812000274658203 -42.446998596191406,-19.965999603271484 -39.26900100708008,-22.051000595092773 C-31.447999954223633,-27.184999465942383 -12.135000228881836,-22.468000411987305 9.75100040435791,-11.982000350952148 C38.310001373291016,1.7020000219345093 45.67399978637695,18.865999221801758 42.81999969482422,23.025999069213867 C39.965999603271484,27.184999465942383 10.753000259399414,17.766000747680664 1.8860000371932983,14.121999740600586 C-5.019999980926514,11.282999992370605 -24.402999877929688,4.589000225067139 -32.67100143432617,1.1380000114440918z"></path></g><g opacity="1" transform="matrix(1,0,0,1,178.51699829101562,81.15699768066406)"><path fill="rgb(9,9,2)" fill-opacity="1" d=" M18.200000762939453,-4.934000015258789 C18.200000762939453,-4.934000015258789 19.62700080871582,0.7580000162124634 17.097000122070312,6.52400016784668 C14.567000389099121,12.291000366210938 10.413999557495117,13.689000129699707 8.875,13.718000411987305 C7.335999965667725,13.748000144958496 -6.625,8.293999671936035 -11.718999862670898,6.410999774932861 C-16.81399917602539,4.5269999504089355 -19.62700080871582,-4.658999919891357 -16.843000411987305,-8.670000076293945 C-14.0600004196167,-12.682000160217285 -4.182000160217285,-13.748000144958496 0.8880000114440918,-13.184000015258789 C5.956999778747559,-12.619999885559082 18.200000762939453,-4.934000015258789 18.200000762939453,-4.934000015258789z"></path></g><g opacity="1" transform="matrix(0.28999999165534973,0,0,0.28999999165534973,193.51699829101562,85.15699768066406)"><path fill="rgb(255,255,255)" fill-opacity="1" d=" M18.200000762939453,-4.934000015258789 C18.200000762939453,-4.934000015258789 19.62700080871582,0.7580000162124634 17.097000122070312,6.52400016784668 C14.567000389099121,12.291000366210938 10.413999557495117,13.689000129699707 8.875,13.718000411987305 C7.335999965667725,13.748000144958496 -15.246000289916992,3.9830000400543213 -20.34000015258789,2.0999999046325684 C-25.434999465942383,0.2160000056028366 -32.55799865722656,-11.555000305175781 -29.77400016784668,-15.565999984741211 C-26.990999221801758,-19.577999114990234 -12.803000450134277,-18.05900001525879 -7.732999801635742,-17.4950008392334 C-2.6640000343322754,-16.930999755859375 18.200000762939453,-4.934000015258789 18.200000762939453,-4.934000015258789z"></path></g><g opacity="1" transform="matrix(1,0,0,1,202.40699768066406,90.552001953125)"><path stroke-linecap="butt" stroke-linejoin="miter" fill-opacity="0" stroke-miterlimit="10" stroke="rgb(64,43,35)" stroke-opacity="1" stroke-width="8" d=" M-32.67100143432617,1.1380000114440918 C-36.31399917602539,-0.382999986410141 -40.987998962402344,-3.5950000286102295 -42.94300079345703,-7.025000095367432 C-45.67300033569336,-11.812000274658203 -42.446998596191406,-19.965999603271484 -39.26900100708008,-22.051000595092773 C-31.447999954223633,-27.184999465942383 -12.135000228881836,-22.468000411987305 9.75100040435791,-11.982000350952148 C38.310001373291016,1.7020000219345093 45.67399978637695,18.865999221801758 42.81999969482422,23.025999069213867 C39.965999603271484,27.184999465942383 10.753000259399414,17.766000747680664 1.8860000371932983,14.121999740600586 C-5.019999980926514,11.282999992370605 -24.402999877929688,4.589000225067139 -32.67100143432617,1.1380000114440918z"></path></g></g></g><g style="display: block;" transform="matrix(1.0299999713897705,0,0,1.0398999452590942,78.07910919189453,322.27178955078125)" opacity="1"><g opacity="1" transform="matrix(1,0,0,1,189.68499755859375,45.69900131225586)"><path stroke-linecap="round" stroke-linejoin="round" fill-opacity="0" stroke="rgb(90,42,31)" stroke-opacity="1" stroke-width="10.493" d=" M132.45799255371094,-19.466999053955078 C132.45799255371094,-19.466999053955078 122.11100006103516,54.167999267578125 72.3280029296875,56.900001525878906 C39.28300094604492,58.7140007019043 14.539999961853027,38.90700149536133 -1.6150000095367432,26.156999588012695 C-23.716999053955078,8.71399974822998 -31.45800018310547,6.4670000076293945 -31.45800018310547,6.4670000076293945"></path></g></g><g style="display: block;" transform="matrix(1.0299999713897705,0,0,1.0398999452590942,139.8791046142578,322.27178955078125)" opacity="1"><g opacity="1" transform="matrix(1.1100000143051147,0,0,1.1100000143051147,-6.738384246826172,-7.4383087158203125)"><g opacity="1" transform="matrix(1,0,0,1,47.08399963378906,54.51300048828125)"><path fill="rgb(112,63,46)" fill-opacity="1" d=" M-21.24799919128418,-1.8589999675750732 C-25.538000106811523,-3.7890000343322754 -27.319000244140625,-8.154999732971191 -22.895999908447266,-9.732999801635742 C-22.82699966430664,-9.758000373840332 -22.76099967956543,-9.817000389099121 -22.687999725341797,-9.805000305175781 C-12.114999771118164,-8.100000381469727 -6.396999835968018,-5.36899995803833 4.77400016784668,-4.3520002365112305 C15.944999694824219,-3.3340001106262207 20.702999114990234,-3.5299999713897705 21.225000381469727,-1.3109999895095825 C21.746999740600586,0.9079999923706055 22.819000244140625,3.688999891281128 20.292999267578125,4.198999881744385 C17.767000198364258,4.709000110626221 9.093999862670898,4.8379998207092285 0.7049999833106995,4.697000026702881 C-4.447999954223633,4.610000133514404 -15.114999771118164,0.8999999761581421 -21.24799919128418,-1.8589999675750732z"></path><path stroke-linecap="butt" stroke-linejoin="miter" fill-opacity="0" stroke-miterlimit="10" stroke="rgb(90,42,31)" stroke-opacity="1" stroke-width="9.706" d=" M-21.24799919128418,-1.8589999675750732 C-25.538000106811523,-3.7890000343322754 -27.319000244140625,-8.154999732971191 -22.895999908447266,-9.732999801635742 C-22.82699966430664,-9.758000373840332 -22.76099967956543,-9.817000389099121 -22.687999725341797,-9.805000305175781 C-12.114999771118164,-8.100000381469727 -6.396999835968018,-5.36899995803833 4.77400016784668,-4.3520002365112305 C15.944999694824219,-3.3340001106262207 20.702999114990234,-3.5299999713897705 21.225000381469727,-1.3109999895095825 C21.746999740600586,0.9079999923706055 22.819000244140625,3.688999891281128 20.292999267578125,4.198999881744385 C17.767000198364258,4.709000110626221 9.093999862670898,4.8379998207092285 0.7049999833106995,4.697000026702881 C-4.447999954223633,4.610000133514404 -15.114999771118164,0.8999999761581421 -21.24799919128418,-1.8589999675750732z"></path></g><g opacity="1" transform="matrix(1,0,0,1,75.58899688720703,70.15699768066406)"><path fill="rgb(90,42,31)" fill-opacity="1" d=" M12.932000160217285,11.842000007629395 C1.0570000410079956,19.37700080871582 -13.404999732971191,14.435999870300293 -18.391000747680664,11.58899974822998 C-23.378000259399414,8.743000030517578 -23.57699966430664,4.041999816894531 -23.57699966430664,4.041999816894531 C-23.57699966430664,4.041999816894531 -27.138999938964844,-0.43799999356269836 -25.386999130249023,-4.828999996185303 C-23.634000778198242,-9.220000267028809 -20.413000106811523,-17.729999542236328 -12.843999862670898,-18.707000732421875 C-7.64900016784668,-19.378000259399414 9.520000457763672,-18.93600082397461 19.777000427246094,-18.591999053955078 C24.066999435424805,-18.447999954223633 27.138999938964844,-14.413999557495117 26.04800033569336,-10.314000129699707 C24.11400032043457,-3.0480000972747803 20.207000732421875,7.224999904632568 12.932000160217285,11.842000007629395z"></path><path stroke-linecap="butt" stroke-linejoin="miter" fill-opacity="0" stroke-miterlimit="10" stroke="rgb(90,42,31)" stroke-opacity="1" stroke-width="9.706" d=" M12.932000160217285,11.842000007629395 C1.0570000410079956,19.37700080871582 -13.404999732971191,14.435999870300293 -18.391000747680664,11.58899974822998 C-23.378000259399414,8.743000030517578 -23.57699966430664,4.041999816894531 -23.57699966430664,4.041999816894531 C-23.57699966430664,4.041999816894531 -27.138999938964844,-0.43799999356269836 -25.386999130249023,-4.828999996185303 C-23.634000778198242,-9.220000267028809 -20.413000106811523,-17.729999542236328 -12.843999862670898,-18.707000732421875 C-7.64900016784668,-19.378000259399414 9.520000457763672,-18.93600082397461 19.777000427246094,-18.591999053955078 C24.066999435424805,-18.447999954223633 27.138999938964844,-14.413999557495117 26.04800033569336,-10.314000129699707 C24.11400032043457,-3.0480000972747803 20.207000732421875,7.224999904632568 12.932000160217285,11.842000007629395z"></path></g></g></g></g></g></svg>