<svg xmlns="http://www.w3.org/2000/svg" xmlns:xlink="http://www.w3.org/1999/xlink" viewBox="0 0 512 512" width="512" height="512" style="width: 100%; height: 100%; transform: translate3d(0,0,0); content-visibility: visible;" preserveAspectRatio="xMidYMid meet"><defs><clipPath id="__lottie_element_2"><rect width="512" height="512" x="0" y="0"></rect></clipPath><clipPath id="__lottie_element_7"><path d="M0,0 L512,0 L512,512 L0,512z"></path></clipPath><radialGradient id="__lottie_element_24" spreadMethod="pad" gradientUnits="userSpaceOnUse" cx="-63.332000732421875" cy="-124.69300079345703" r="259.34440881181456" fx="-63.332000732421875" fy="-124.69300079345703"><stop offset="0%" stop-color="rgb(255,218,191)"></stop><stop offset="85%" stop-color="rgb(248,202,174)"></stop><stop offset="100%" stop-color="rgb(240,186,158)"></stop></radialGradient><mask id="__lottie_element_26"><path fill="url(#__lottie_element_25)" d=" M-153.49636840820312,-52.78086853027344 C-170.1531524658203,-17.575550079345703 -165.9794158935547,68.45105743408203 -106.37312316894531,116.10326385498047 C-41.92973709106445,167.63479614257812 51.22000503540039,175.30213928222656 110.70500946044922,144.9241485595703 C159.04000854492188,120.24114227294922 194.66807556152344,62.77989959716797 191.65692138671875,-3.859375 C187.48406982421875,-96.34600067138672 92.881103515625,-175.52000427246094 -26.582307815551758,-152.24449157714844 C-94.83865356445312,-138.9412078857422 -133.07479858398438,-95.79861450195312 -153.49636840820312,-52.78086853027344z"></path></mask><radialGradient id="__lottie_element_25" spreadMethod="pad" gradientUnits="userSpaceOnUse" cx="-63.332000732421875" cy="-124.69300079345703" r="259.34440881181456" fx="-63.332000732421875" fy="-124.69300079345703"><stop stop-color="rgb(255,255,255)" offset="0%" stop-opacity="1"></stop><stop stop-color="rgb(255,255,255)" offset="57%" stop-opacity="0.925000011920929"></stop><stop stop-color="rgb(255,255,255)" offset="100%" stop-opacity="0.8500000238418579"></stop></radialGradient><clipPath id="__lottie_element_53"><path d="M0,0 L512,0 L512,512 L0,512z"></path></clipPath><radialGradient id="__lottie_element_70" spreadMethod="pad" gradientUnits="userSpaceOnUse"><stop></stop><stop></stop><stop></stop></radialGradient><mask id="__lottie_element_72"><path fill="url(#__lottie_element_71)"></path></mask><radialGradient id="__lottie_element_71" spreadMethod="pad" gradientUnits="userSpaceOnUse"><stop stop-color="rgb(255,255,255)"></stop><stop stop-color="rgb(255,255,255)"></stop><stop stop-color="rgb(255,255,255)"></stop></radialGradient></defs><g clip-path="url(#__lottie_element_2)"><g clip-path="url(#__lottie_element_53)" style="display: none;"><g style="display: none;"><g><path></path><path stroke-linecap="butt" stroke-linejoin="miter" fill-opacity="0" stroke-miterlimit="10"></path></g><g><path fill="url(#__lottie_element_70)" mask="url(#__lottie_element_72)"></path></g></g><g style="display: none;"><g><path stroke-linecap="round" stroke-linejoin="round" fill-opacity="0"></path></g><g><path></path></g><g><path></path><path stroke-linecap="butt" stroke-linejoin="miter" fill-opacity="0" stroke-miterlimit="10"></path></g><g><g><path stroke-linecap="round" stroke-linejoin="round" fill-opacity="0"></path></g><g><path stroke-linecap="round" stroke-linejoin="round" fill-opacity="0"></path></g><g><path></path></g><g><path></path><path stroke-linecap="butt" stroke-linejoin="miter" fill-opacity="0" stroke-miterlimit="10"></path></g><g><g><path></path><path stroke-linecap="butt" stroke-linejoin="miter" fill-opacity="0" stroke-miterlimit="10"></path></g><g><path></path></g><g><path></path></g><g><path></path></g></g></g><g><g><path></path><path stroke-linecap="butt" stroke-linejoin="miter" fill-opacity="0" stroke-miterlimit="10"></path></g><g><path></path></g><g><path></path></g><g><path></path></g></g></g><g style="display: none;"><g><path stroke-linecap="round" stroke-linejoin="round" fill-opacity="0"></path></g></g><g style="display: none;"><g><path stroke-linecap="round" stroke-linejoin="round" fill-opacity="0"></path></g></g><g style="display: none;"><g><path stroke-linecap="round" stroke-linejoin="round" fill-opacity="0"></path></g><g><path></path></g><g><path stroke-linecap="round" stroke-linejoin="round" fill-opacity="0"></path></g><g><path stroke-linecap="round" stroke-linejoin="round" fill-opacity="0"></path></g><g><path stroke-linecap="round" stroke-linejoin="round" fill-opacity="0"></path></g><g><g><path></path></g><g><path></path></g><g><path></path></g><g><path stroke-linecap="round" stroke-linejoin="round" fill-opacity="0"></path></g><g><path></path><path stroke-linecap="round" stroke-linejoin="round" fill-opacity="0"></path></g></g></g><g style="display: none;"><g><path stroke-linecap="butt" stroke-linejoin="miter" fill-opacity="0" stroke-miterlimit="10"></path></g></g><g style="display: none;"><g><path stroke-linecap="round" stroke-linejoin="round" fill-opacity="0"></path></g><g><path></path></g><g><path></path><path stroke-linecap="butt" stroke-linejoin="miter" fill-opacity="0" stroke-miterlimit="10"></path></g><g><g><path></path><path stroke-linecap="butt" stroke-linejoin="miter" fill-opacity="0" stroke-miterlimit="10"></path></g><g><g><path></path><path stroke-linecap="butt" stroke-linejoin="miter" fill-opacity="0" stroke-miterlimit="10"></path></g><g><path></path></g><g><path></path></g><g><path></path></g></g></g><g><g><path></path><path stroke-linecap="butt" stroke-linejoin="miter" fill-opacity="0" stroke-miterlimit="10"></path></g><g><path></path></g><g><path></path></g><g><path></path></g></g></g><g style="display: none;"><g><g><path></path><path stroke-linecap="round" stroke-linejoin="round" fill-opacity="0"></path></g></g><g><g><path></path><path stroke-linecap="round" stroke-linejoin="round" fill-opacity="0"></path></g></g></g><g style="display: none;"><g><g><path stroke-linecap="round" stroke-linejoin="round" fill-opacity="0"></path></g><g><path stroke-linecap="round" stroke-linejoin="round" fill-opacity="0"></path></g><g><path></path><path stroke-linecap="round" stroke-linejoin="round" fill-opacity="0"></path></g><g><path></path><path stroke-linecap="butt" stroke-linejoin="miter" fill-opacity="0" stroke-miterlimit="4"></path></g></g></g><g style="display: none;"><g><path></path></g></g><g style="display: none;"><g><path></path><path stroke-linecap="butt" stroke-linejoin="miter" fill-opacity="0" stroke-miterlimit="4"></path></g><g><path></path><path stroke-linecap="butt" stroke-linejoin="miter" fill-opacity="0" stroke-miterlimit="4"></path></g><g><path stroke-linecap="butt" stroke-linejoin="miter" fill-opacity="0" stroke-miterlimit="4"></path></g><g><path stroke-linecap="butt" stroke-linejoin="miter" fill-opacity="0" stroke-miterlimit="4"></path></g><g><path stroke-linecap="round" stroke-linejoin="round" fill-opacity="0"></path></g></g><g style="display: none;"><g><path></path><path stroke-linecap="round" stroke-linejoin="round" fill-opacity="0"></path></g><g><path></path><path stroke-linecap="round" stroke-linejoin="round" fill-opacity="0"></path></g><g><path></path><path stroke-linecap="round" stroke-linejoin="round" fill-opacity="0"></path></g></g></g><g clip-path="url(#__lottie_element_7)" style="display: block;" transform="matrix(1.058590054512024,0,0,1.058590054512024,-2.999053955078125,32.000946044921875)" opacity="1"><g style="display: block;" transform="matrix(1.0299298763275146,-0.012012471444904804,0.012012471444904804,1.0299298763275146,-15.2657470703125,-26.80279541015625)" opacity="1"><g opacity="1" transform="matrix(1,0,0,1,232.8730010986328,226.94000244140625)"><path fill="rgb(236,151,109)" fill-opacity="1" d=" M-164.68179321289062,-67.51466369628906 C-182.55679321289062,-28.542667388916016 -201.76776123046875,70.61865997314453 -128.82473754882812,138.09967041015625 C-62.7650032043457,199.22662353515625 56.825843811035156,199.44927978515625 120.29815673828125,164.7538604736328 C172.84481811523438,135.97496032714844 208.77503967285156,70.64845275878906 204.7705535888672,-4.606985569000244 C198.89817810058594,-113.81851959228516 96.03534698486328,-199.14529418945312 -33.55565643310547,-172.36029052734375 C-106.55865478515625,-157.2712860107422 -142.44679260253906,-115.99266815185547 -164.68179321289062,-67.51466369628906z"></path><path stroke-linecap="butt" stroke-linejoin="miter" fill-opacity="0" stroke-miterlimit="10" stroke="rgb(173,90,45)" stroke-opacity="1" stroke-width="12" d=" M-164.68179321289062,-67.51466369628906 C-182.55679321289062,-28.542667388916016 -201.76776123046875,70.61865997314453 -128.82473754882812,138.09967041015625 C-62.7650032043457,199.22662353515625 56.825843811035156,199.44927978515625 120.29815673828125,164.7538604736328 C172.84481811523438,135.97496032714844 208.77503967285156,70.64845275878906 204.7705535888672,-4.606985569000244 C198.89817810058594,-113.81851959228516 96.03534698486328,-199.14529418945312 -33.55565643310547,-172.36029052734375 C-106.55865478515625,-157.2712860107422 -142.44679260253906,-115.99266815185547 -164.68179321289062,-67.51466369628906z"></path></g><g opacity="1" transform="matrix(1,0,0,1,232.82899475097656,214.53900146484375)"><path fill="url(#__lottie_element_24)" mask="url(#__lottie_element_26)" fill-opacity="1" d="M0 0 M-153.49636840820312,-52.78086853027344 C-170.1531524658203,-17.575550079345703 -165.9794158935547,68.45105743408203 -106.37312316894531,116.10326385498047 C-41.92973709106445,167.63479614257812 51.22000503540039,175.30213928222656 110.70500946044922,144.9241485595703 C159.04000854492188,120.24114227294922 194.66807556152344,62.77989959716797 191.65692138671875,-3.859375 C187.48406982421875,-96.34600067138672 92.881103515625,-175.52000427246094 -26.582307815551758,-152.24449157714844 C-94.83865356445312,-138.9412078857422 -133.07479858398438,-95.79861450195312 -153.49636840820312,-52.78086853027344z"></path></g></g><g style="display: block;" transform="matrix(1.1933013200759888,-0.013917935080826283,0.013917935080826283,1.1933013200759888,156.0821075439453,68.5380630493164)" opacity="1"><g opacity="0.84" transform="matrix(1,0,0,1,63.32099914550781,56.85100173950195)"><path stroke-linecap="round" stroke-linejoin="round" fill-opacity="0" stroke="rgb(199,118,74)" stroke-opacity="1" stroke-width="10" d=" M-40.81999969482422,-29.000999450683594 C-40.81999969482422,-29.000999450683594 -30.285999298095703,-38.91899871826172 -5.2210001945495605,-36.630001068115234 C24.565000534057617,-33.90999984741211 40.81999969482422,-9.449999809265137 39.45899963378906,2.8529999256134033 C38.540000915527344,11.149999618530273 26.299999237060547,18.75200080871582 24.20199966430664,21.736000061035156 C22.104000091552734,24.7189998626709 14.109999656677246,38.284000396728516 -7.218999862670898,38.709999084472656 C-17.632999420166016,38.917999267578125 -27.18199920654297,35.505001068115234 -34.099998474121094,31.08099937438965"></path></g><g opacity="1" transform="matrix(1,0,0,1,54.95899963378906,58.861000061035156)"><path fill="rgb(199,118,74)" fill-opacity="0.62" d=" M-40.08700180053711,-1.9759999513626099 C-40.67100143432617,10.935999870300293 -32.53200149536133,21.25200080871582 -16.839000701904297,27.81100082397461 C-1.1460000276565552,34.36899948120117 27.017000198364258,31.042999267578125 34.316001892089844,12.371999740600586 C40.67100143432617,-3.881999969482422 37.13100051879883,-12.100000381469727 25.660999298095703,-23.045000076293945 C15.989999771118164,-32.27299880981445 -12.350000381469727,-34.36899948120117 -24.829999923706055,-27.40399932861328 C-33.266998291015625,-22.69499969482422 -39.45500183105469,-15.937000274658203 -40.08700180053711,-1.9759999513626099z"></path></g><g opacity="1" transform="matrix(1,0,0,1,55.81700134277344,56.55799865722656)"><path fill="rgb(248,243,255)" fill-opacity="1" d=" M-32.59000015258789,-1.4900000095367432 C-33.31700134277344,7.591000080108643 -25.97100067138672,16.729000091552734 -12.746999740600586,21.05699920654297 C0.47699999809265137,25.38599967956543 21.08799934387207,24.31599998474121 27.625,11.069000244140625 C33.31700134277344,-0.46299999952316284 29.27400016784668,-8.170999526977539 19.718000411987305,-15.656000137329102 C11.65999984741211,-21.966999053955078 -7.730999946594238,-25.38599967956543 -18.464000701904297,-20.270000457763672 C-25.7189998626709,-16.812000274658203 -31.804000854492188,-11.309000015258789 -32.59000015258789,-1.4900000095367432z"></path><path stroke-linecap="butt" stroke-linejoin="miter" fill-opacity="0" stroke-miterlimit="10" stroke="rgb(97,77,111)" stroke-opacity="1" stroke-width="9" d=" M-32.59000015258789,-1.4900000095367432 C-33.31700134277344,7.591000080108643 -25.97100067138672,16.729000091552734 -12.746999740600586,21.05699920654297 C0.47699999809265137,25.38599967956543 21.08799934387207,24.31599998474121 27.625,11.069000244140625 C33.31700134277344,-0.46299999952316284 29.27400016784668,-8.170999526977539 19.718000411987305,-15.656000137329102 C11.65999984741211,-21.966999053955078 -7.730999946594238,-25.38599967956543 -18.464000701904297,-20.270000457763672 C-25.7189998626709,-16.812000274658203 -31.804000854492188,-11.309000015258789 -32.59000015258789,-1.4900000095367432z"></path></g><g opacity="1" transform="matrix(1,0,0,1,0,0)"><g opacity="0.8200000000000001" transform="matrix(1,0,0,1,178.19900512695312,105.69599914550781)"><path stroke-linecap="round" stroke-linejoin="round" fill-opacity="0" stroke="rgb(199,118,74)" stroke-opacity="1" stroke-width="10" d=" M-24.474000930786133,-12.57800006866455 C-24.474000930786133,-12.57800006866455 -20.159000396728516,-3.74399995803833 -9.307999610900879,4.585999965667725 C-5.460000038146973,7.539999961853027 -1.2280000448226929,9.208000183105469 7.401000022888184,11.125 C13.9399995803833,12.57800006866455 24.474000930786133,11.487000465393066 24.474000930786133,11.487000465393066"></path></g><g opacity="0.8" transform="matrix(1,0,0,1,182.8300018310547,54.25400161743164)"><path stroke-linecap="round" stroke-linejoin="round" fill-opacity="0" stroke="rgb(199,117,73)" stroke-opacity="1" stroke-width="10" d=" M24.83799934387207,7.3979997634887695 C24.83799934387207,7.3979997634887695 15.121000289916992,-4.336999893188477 1.1349999904632568,-5.868000030517578 C-12.85200023651123,-7.3979997634887695 -24.83799934387207,-0.4020000100135803 -24.83799934387207,-0.4020000100135803"></path></g><g opacity="0.66" transform="matrix(1,0,0,1,186.5229949951172,83.29399871826172)"><path fill="rgb(199,118,74)" fill-opacity="1" d=" M-20.964000701904297,-27.413999557495117 C-29.51799964904785,-23.961999893188477 -34.939998626708984,-14.595000267028809 -34.45800018310547,-4.8520002365112305 C-34.3129997253418,-1.9160000085830688 -32.861000061035156,3 -31.325000762939453,6.171999931335449 C-25.180999755859375,18.86400032043457 -1.8309999704360962,32.2859992980957 16.868000030517578,21.940000534057617 C34.939998626708984,11.940999984741211 28.07200050354004,-7.671999931335449 19.39699935913086,-16.51799964904785 C10.722999572753906,-25.363000869750977 -3.8559999465942383,-32.2859992980957 -15.42199993133545,-29.208999633789062 C-17.617000579833984,-28.625 -19.290000915527344,-28.089000701904297 -20.964000701904297,-27.413999557495117z"></path></g><g opacity="1" transform="matrix(1,0,0,1,184.9340057373047,81.84200286865234)"><path fill="rgb(248,243,255)" fill-opacity="1" d=" M-16.354000091552734,-20.100000381469727 C-23.027000427246094,-17.569000244140625 -27.256999969482422,-10.701000213623047 -26.881000518798828,-3.558000087738037 C-26.76799964904785,-1.4049999713897705 -25.63599967956543,2.1989998817443848 -24.437999725341797,4.526000022888184 C-19.643999099731445,13.831000328063965 -1.4279999732971191,23.672000885009766 13.159000396728516,16.086999893188477 C27.256999969482422,8.755000114440918 21.899999618530273,-5.625 15.131999969482422,-12.111000061035156 C8.366000175476074,-18.59600067138672 -3.006999969482422,-23.672000885009766 -12.031000137329102,-21.416000366210938 C-13.744000434875488,-20.988000869750977 -15.048999786376953,-20.594999313354492 -16.354000091552734,-20.100000381469727z"></path><path stroke-linecap="butt" stroke-linejoin="miter" fill-opacity="0" stroke-miterlimit="10" stroke="rgb(97,77,111)" stroke-opacity="1" stroke-width="8.28" d=" M-16.354000091552734,-20.100000381469727 C-23.027000427246094,-17.569000244140625 -27.256999969482422,-10.701000213623047 -26.881000518798828,-3.558000087738037 C-26.76799964904785,-1.4049999713897705 -25.63599967956543,2.1989998817443848 -24.437999725341797,4.526000022888184 C-19.643999099731445,13.831000328063965 -1.4279999732971191,23.672000885009766 13.159000396728516,16.086999893188477 C27.256999969482422,8.755000114440918 21.899999618530273,-5.625 15.131999969482422,-12.111000061035156 C8.366000175476074,-18.59600067138672 -3.006999969482422,-23.672000885009766 -12.031000137329102,-21.416000366210938 C-13.744000434875488,-20.988000869750977 -15.048999786376953,-20.594999313354492 -16.354000091552734,-20.100000381469727z"></path></g><g opacity="1" transform="matrix(1,0,0,1,0,0)"><g opacity="1" transform="matrix(1,0,0,1,190.1219940185547,81.4739990234375)"><path fill="rgb(33,23,47)" fill-opacity="1" d=" M-6.699999809265137,-4.656000137329102 C-6.910999774932861,-4.364999771118164 -7.084000110626221,-4.056000232696533 -7.2220001220703125,-3.7249999046325684 C-7.901000022888184,-2.11299991607666 -9.512999534606934,2.875 -4.714000225067139,5.202000141143799 C1.055999994277954,7.999000072479248 6.525000095367432,8.230999946594238 8.223999977111816,0.656000018119812 C9.512999534606934,-5.0929999351501465 4.150000095367432,-8.232000350952148 -0.05900000035762787,-8.107999801635742 C-2.2880001068115234,-8.043000221252441 -5.703999996185303,-6.03000020980835 -6.699999809265137,-4.656000137329102z"></path><path stroke-linecap="butt" stroke-linejoin="miter" fill-opacity="0" stroke-miterlimit="10" stroke="rgb(31,20,37)" stroke-opacity="1" stroke-width="7.504" d=" M-6.699999809265137,-4.656000137329102 C-6.910999774932861,-4.364999771118164 -7.084000110626221,-4.056000232696533 -7.2220001220703125,-3.7249999046325684 C-7.901000022888184,-2.11299991607666 -9.512999534606934,2.875 -4.714000225067139,5.202000141143799 C1.055999994277954,7.999000072479248 6.525000095367432,8.230999946594238 8.223999977111816,0.656000018119812 C9.512999534606934,-5.0929999351501465 4.150000095367432,-8.232000350952148 -0.05900000035762787,-8.107999801635742 C-2.2880001068115234,-8.043000221252441 -5.703999996185303,-6.03000020980835 -6.699999809265137,-4.656000137329102z"></path></g><g opacity="1" transform="matrix(1,0,0,1,190.01600646972656,84.68599700927734)"><path fill="rgb(70,48,91)" fill-opacity="1" d=" M8.189000129699707,-1.312999963760376 C7.785999774932861,-3.388000011444092 5.732999801635742,-4.869999885559082 3.4560000896453857,-4.984000205993652 C0.4429999887943268,-5.135000228881836 -4.013999938964844,-5.131999969482422 -5.664999961853027,-3.9660000801086426 C-8.253999710083008,-2.138000011444092 -5.539999961853027,3.3269999027252197 -1.593999981880188,4.230999946594238 C2.3519999980926514,5.135000228881836 8.026000022888184,0.953000009059906 8.22599983215332,-0.5950000286102295 C8.253999710083008,-0.8159999847412109 8.23799991607666,-1.059000015258789 8.189000129699707,-1.312999963760376z"></path></g><g opacity="1" transform="matrix(1,0,0,1,180.81399536132812,77.93599700927734)"><path fill="rgb(253,253,253)" fill-opacity="1" d=" M-3.874000072479248,-3.734999895095825 C-5.228000164031982,-2.450000047683716 -5.6479997634887695,-1.1679999828338623 -5.321000099182129,0.8399999737739563 C-5.1529998779296875,1.8760000467300415 -3.8919999599456787,3.5369999408721924 -2.4739999771118164,4.061999797821045 C1.3070000410079956,5.461999893188477 5.6479997634887695,5.321000099182129 5.507999897003174,-0.0010000000474974513 C5.368000030517578,-5.322000026702881 -2.053999900817871,-5.461999893188477 -3.874000072479248,-3.734999895095825z"></path></g><g opacity="1" transform="matrix(1,0,0,1,199.3780059814453,85.02799987792969)"><path fill="rgb(253,253,253)" fill-opacity="1" d=" M2.450000047683716,-1.86899995803833 C2.056999921798706,-2.8010001182556152 1.4709999561309814,-3.25600004196167 0.5130000114440918,-3.2869999408721924 C0.01899999938905239,-3.302999973297119 -1.2020000219345093,-3.0139999389648438 -1.6419999599456787,-2.24399995803833 C-2.813999891281128,-0.19300000369548798 -2.9760000705718994,2.2929999828338623 -0.5379999876022339,2.7990000247955322 C1.8980000019073486,3.303999900817871 2.9760000705718994,-0.6169999837875366 2.450000047683716,-1.86899995803833z"></path></g></g></g><g opacity="1" transform="matrix(1,0,0,1,-1.5764808654785156,1.5764846801757812)"><g opacity="1" transform="matrix(1,0,0,1,51.194000244140625,54.417999267578125)"><path fill="rgb(33,23,47)" fill-opacity="1" d=" M-7.318999767303467,-7.741000175476074 C-9.876999855041504,-5.078000068664551 -10.670000076293945,-2.4179999828338623 -10.053000450134277,1.7419999837875366 C-9.734000205993652,3.890000104904175 -7.3520002365112305,7.329999923706055 -4.672999858856201,8.418000221252441 C2.4700000286102295,11.321000099182129 10.670999526977539,11.031000137329102 10.406999588012695,0.0010000000474974513 C10.142000198364258,-11.029999732971191 -3.880000114440918,-11.321000099182129 -7.318999767303467,-7.741000175476074z"></path><path stroke-linecap="butt" stroke-linejoin="miter" fill-opacity="0" stroke-miterlimit="10" stroke="rgb(31,20,37)" stroke-opacity="1" stroke-width="9.011" d=" M-7.318999767303467,-7.741000175476074 C-9.876999855041504,-5.078000068664551 -10.670000076293945,-2.4179999828338623 -10.053000450134277,1.7419999837875366 C-9.734000205993652,3.890000104904175 -7.3520002365112305,7.329999923706055 -4.672999858856201,8.418000221252441 C2.4700000286102295,11.321000099182129 10.670999526977539,11.031000137329102 10.406999588012695,0.0010000000474974513 C10.142000198364258,-11.029999732971191 -3.880000114440918,-11.321000099182129 -7.318999767303467,-7.741000175476074z"></path></g><g opacity="1" transform="matrix(1,0,0,1,38.777000427246094,57.159000396728516)"><path fill="rgb(253,253,253)" fill-opacity="1" d=" M-2.4210000038146973,-2.559999942779541 C-3.2669999599456787,-1.6790000200271606 -3.5290000438690186,-0.800000011920929 -3.325000047683716,0.5759999752044678 C-3.2200000286102295,1.2860000133514404 -2.431999921798706,2.4240000247955322 -1.5460000038146973,2.7839999198913574 C0.8159999847412109,3.74399995803833 3.5290000438690186,3.6480000019073486 3.440999984741211,0 C3.3529999256134033,-3.6480000019073486 -1.2829999923706055,-3.74399995803833 -2.4210000038146973,-2.559999942779541z"></path></g><g opacity="1" transform="matrix(1,0,0,1,64.31199645996094,57.13199996948242)"><path fill="rgb(253,253,253)" fill-opacity="1" d=" M-4.441999912261963,-4.697999954223633 C-5.99399995803833,-3.0820000171661377 -6.47599983215332,-1.468000054359436 -6.10099983215332,1.0570000410079956 C-5.9070000648498535,2.3610000610351562 -4.461999893188477,4.447999954223633 -2.8359999656677246,5.107999801635742 C1.4989999532699585,6.86899995803833 6.47599983215332,6.693999767303467 6.315000057220459,0.0010000000474974513 C6.15500020980835,-6.692999839782715 -2.3550000190734863,-6.869999885559082 -4.441999912261963,-4.697999954223633z"></path></g><g opacity="1" transform="matrix(1,0,0,1,50.00699996948242,60.902000427246094)"><path fill="rgb(70,48,91)" fill-opacity="1" d=" M-8.812000274658203,-2.313999891281128 C-8.090999603271484,-4.675000190734863 -5.682000160217285,-6.093999862670898 -3.2219998836517334,-5.882999897003174 C0.032999999821186066,-5.604000091552734 4.817999839782715,-4.927999973297119 6.427999973297119,-3.318000078201294 C8.95300006866455,-0.7929999828338623 5.28000020980835,5.176000118255615 0.9190000295639038,5.635000228881836 C-3.443000078201294,6.093999862670898 -8.95300006866455,0.35499998927116394 -8.95300006866455,-1.4809999465942383 C-8.95300006866455,-1.74399995803833 -8.899999618530273,-2.0250000953674316 -8.812000274658203,-2.313999891281128z"></path></g></g></g><g style="display: block;" transform="matrix(1.1933013200759888,-0.013917935080826283,0.013917935080826283,1.1933013200759888,142.68125915527344,308.7452697753906)" opacity="1"><g opacity="1" transform="matrix(1,0,0,1,113.54900360107422,47.07500076293945)"><path stroke-linecap="round" stroke-linejoin="round" fill-opacity="0" stroke="rgb(173,90,45)" stroke-opacity="1" stroke-width="10" d=" M-38.0117073059082,-12.99718952178955 C-38.0117073059082,-12.99718952178955 -46.64461135864258,5.501523017883301 -30.49419403076172,9.871031761169434 C-16.99282455444336,13.533559799194336 -8.117241859436035,3.6691768169403076 -8.117241859436035,3.6691768169403076 C-8.117241859436035,3.6691768169403076 -3.870579719543457,10.48430061340332 2.9495978355407715,12.047408103942871 C9.741462707519531,13.640137672424316 14.49461555480957,12.857664108276367 18.56852912902832,9.67862606048584 C24.343883514404297,5.162741184234619 26.30321502685547,-0.17906172573566437 26.30321502685547,-0.17906172573566437"></path></g></g><g style="display: block;" transform="matrix(1.1933013200759888,-0.013917935080826283,0.013917935080826283,1.1933013200759888,272.7564392089844,14.932183265686035)" opacity="1"><g opacity="1" transform="matrix(1,0,0,1,25.764999389648438,42.88100051879883)"><path stroke-linecap="round" stroke-linejoin="round" fill-opacity="0" stroke="rgb(215,126,95)" stroke-opacity="1" stroke-width="10" d=" M-8.989524841308594,-21.73400115966797 C-8.989524841308594,-21.73400115966797 1.5665007829666138,-14.10218620300293 5.239334583282471,-4.836697101593018 C8.882418632507324,4.3865556716918945 2.1909892559051514,5.533092498779297 6.623989105224609,11.950092315673828 C11.054988861083984,18.366092681884766 10.641440391540527,22.335832595825195 10.641440391540527,22.335832595825195"></path></g></g><g style="display: block;" transform="matrix(1.1933013200759888,-0.013917935080826283,0.013917935080826283,1.1933013200759888,229.88699340820312,97.99958801269531)" opacity="1"><g opacity="1" transform="matrix(1,0,0,1,33.974998474121094,111.39199829101562)"><path stroke-linecap="round" stroke-linejoin="round" fill-opacity="0" stroke="rgb(215,126,95)" stroke-opacity="1" stroke-width="9" d=" M12.972000122070312,-25.42799949645996 C14.545000076293945,-20.183000564575195 11.13599967956543,-16.27199935913086 9.038000106811523,-12.076000213623047 C6.940999984741211,-7.880000114440918 0.12099999934434891,-2.8970000743865967 -2.239000082015991,-0.012000000104308128 C-3.874000072479248,1.9869999885559082 -7.256135940551758,6.609896183013916 -8.470135688781738,8.633895874023438 C-11.7391357421875,14.08189582824707 -21.157228469848633,25.67400360107422 -21.157228469848633,25.67400360107422"></path></g><g opacity="1" transform="matrix(1,0,0,1,70.4229965209961,119.58200073242188)"><path fill="rgb(215,126,95)" fill-opacity="1" d=" M-37.637001037597656,-25.77400016784668 C-37.637001037597656,-25.77400016784668 -43.893829345703125,-15.180116653442383 -40.42133712768555,-7.837153434753418 C-38.47336196899414,-3.5051350593566895 -21.683330535888672,-5.703079700469971 -17.687332153320312,-1.7070798873901367 C-13.691330909729004,2.2879202365875244 -3.288975238800049,19.667387008666992 10.87702465057373,20.757387161254883 C25.044025421142578,21.84738540649414 41.88392639160156,0.8557727932929993 41.88392639160156,0.8557727932929993 C41.88392639160156,0.8557727932929993 -0.8650000095367432,-14.001999855041504 -0.8650000095367432,-14.001999855041504 C-0.8650000095367432,-14.001999855041504 -27.40999984741211,-20.267000198364258 -27.40999984741211,-20.267000198364258 C-27.40999984741211,-20.267000198364258 -37.637001037597656,-25.77400016784668 -37.637001037597656,-25.77400016784668z"></path></g><g opacity="1" transform="matrix(1,0,0,1,81.302001953125,134.98199462890625)"><path stroke-linecap="round" stroke-linejoin="round" fill-opacity="0" stroke="rgb(215,126,95)" stroke-opacity="1" stroke-width="7.772" d=" M-9.265999794006348,2.359999895095825 C-9.265999794006348,2.359999895095825 -5.071000099182129,-7.080999851226807 -0.8740000128746033,-7.781000137329102 C3.322000026702881,-8.479999542236328 4.7210001945495605,-3.4100000858306885 4.7210001945495605,-3.4100000858306885 C4.7210001945495605,-3.4100000858306885 7.51800012588501,6.205999851226807 7.51800012588501,6.205999851226807 C7.51800012588501,6.205999851226807 9.265999794006348,8.479999542236328 9.265999794006348,8.479999542236328"></path></g><g opacity="1" transform="matrix(1,0,0,1,107.15499877929688,128.0570068359375)"><path stroke-linecap="round" stroke-linejoin="round" fill-opacity="0" stroke="rgb(215,126,95)" stroke-opacity="1" stroke-width="10" d=" M-5.7179999351501465,-7.070000171661377 C-5.7179999351501465,-7.070000171661377 2.5122222900390625,0.053265996277332306 4.42122220993042,6.046266078948975 C6.328222274780273,12.0382661819458 7.481704235076904,16.632051467895508 7.481704235076904,16.634052276611328 C7.481704235076904,16.635051727294922 8.870206832885742,21.371736526489258 8.870206832885742,21.371736526489258"></path></g><g opacity="1" transform="matrix(1,0,0,1,75.63600158691406,21.809999465942383)"><path stroke-linecap="round" stroke-linejoin="round" fill-opacity="0" stroke="rgb(215,126,95)" stroke-opacity="1" stroke-width="9" d=" M-33.88800048828125,0.7990000247955322 C-33.88800048828125,0.7990000247955322 -20.99799919128418,1.9880000352859497 -16.459999084472656,2.253999948501587 C-11.92199993133545,2.5209999084472656 -8.72599983215332,0.3569999933242798 -6.11899995803833,-2.2920000553131104 C-3.510999917984009,-4.940999984741211 -2.928999900817871,-10.878999710083008 -2.928999900817871,-10.878999710083008 C-2.928999900817871,-10.878999710083008 -4.860000133514404,-1.5770000219345093 -0.5479999780654907,2.5290000438690186 C3.7639999389648438,6.635000228881836 11.097999572753906,5.988999843597412 11.097999572753906,5.988999843597412 C11.097999572753906,5.988999843597412 22.957000732421875,7.440000057220459 22.957000732421875,7.440000057220459"></path></g><g opacity="1" transform="matrix(1,0,0,1,-2.0620040893554688,0.02099609375)"><g opacity="1" transform="matrix(1,0,0,1,72.91000366210938,82.12000274658203)"><path fill="rgb(255,194,153)" fill-opacity="1" d=" M23.864999771118164,-51.777000427246094 C23.864999771118164,-51.777000427246094 19.66900062561035,-50.465999603271484 19.143999099731445,-48.891998291015625 C18.6200008392334,-47.319000244140625 20.194000244140625,-44.172000885009766 18.094999313354492,-42.597999572753906 C15.998000144958496,-41.025001525878906 12.58899974822998,-38.66400146484375 12.58899974822998,-38.66400146484375 C12.58899974822998,-38.66400146484375 16.52199935913086,-32.369998931884766 16.52199935913086,-30.010000228881836 C16.52199935913086,-27.649999618530273 14.161999702453613,-25.552000045776367 14.161999702453613,-25.552000045776367 C14.161999702453613,-25.552000045776367 17.570999145507812,-15.586000442504883 20.194000244140625,-11.128000259399414 C22.81599998474121,-6.670000076293945 23.07900047302246,1.1979999542236328 28.06100082397461,5.6570000648498535 C33.04399871826172,10.114999771118164 43.534000396728516,21.65399932861328 41.08700180053711,31.44499969482422 C38.077999114990234,43.47800064086914 24.524999618530273,51.777000427246094 13.11299991607666,49.452999114990234 C4.09499979019165,47.617000579833984 -1.1710000038146973,43.98400115966797 -4.622000217437744,36.5369987487793 C-7.026000022888184,31.35099983215332 -13.322999954223633,26.58799934387207 -22.23900032043457,25.277000427246094 C-31.1560001373291,23.96500015258789 -34.35499954223633,25.850000381469727 -36.71500015258789,25.58799934387207 C-39.07500076293945,25.326000213623047 -43.534000396728516,17.98200035095215 -40.124000549316406,11.687999725341797 C-36.71500015258789,5.394000053405762 -31.7549991607666,2.8519999980926514 -26.488000869750977,3.0339999198913574 C-13.522000312805176,3.4809999465942383 -0.4449999928474426,15.831999778747559 -0.4449999928474426,15.831999778747559"></path></g><g opacity="0.45" transform="matrix(1,0,0,1,69.24500274658203,71.25299835205078)"><path fill="rgb(209,116,70)" fill-opacity="1" d=" M-3.681999921798706,-50.310001373291016 C-3.681999921798706,-50.310001373291016 -7.677000045776367,-40.86600112915039 -6.951000213623047,-33.60100173950195 C-6.650000095367432,-30.5939998626709 -0.777999997138977,-26.625 0.13199999928474426,-22.34000015258789 C1.4220000505447388,-16.270999908447266 -5.228000164031982,-14.392000198364258 -4.589000225067139,-11.62399959564209 C-3.5,-6.9019999504089355 2.8570001125335693,9.62600040435791 3.2200000286102295,12.531999588012695 C3.5840001106262207,15.437999725341797 26.740999221801758,24.79199981689453 10.939000129699707,35.14500045776367 C6.192999839782715,38.25400161743164 -13.670999526977539,18.434999465942383 -20.118999481201172,23.156999588012695 C-22.408000946044922,24.833999633789062 -15.397000312805176,31.23900032043457 -9.220999717712402,33.78200149536133 C-3.0460000038146973,36.32500076293945 9.395000457763672,42.319000244140625 14.480999946594238,47.40399932861328 C19.56599998474121,52.4900016784668 28.135000228881836,50.027000427246094 31.099000930786133,49.03900146484375 C36.82099914550781,47.13199996948242 50.152000427246094,37.5 50.152000427246094,37.5 C50.152000427246094,37.5 42.9119987487793,58.744998931884766 26.740999221801758,59.391998291015625 C-0.503000020980835,60.48099899291992 -4.4079999923706055,34.689998626708984 -18.575000762939453,36.14400100708008 C-32.742000579833984,37.59600067138672 -41.763999938964844,31.836000442504883 -42.36800003051758,23.792999267578125 C-42.9119987487793,16.527999877929688 -34.55799865722656,7.447000026702881 -26.566999435424805,5.99399995803833 C-19.886999130249023,4.7789998054504395 -12.581000328063965,10.534000396728516 -12.581000328063965,10.534000396728516 C-12.581000328063965,10.534000396728516 -14.03499984741211,-11.26099967956543 -19.482999801635742,-14.892999649047852 C-24.93199920654297,-18.525999069213867 -36.14400100708008,-25.43400001525879 -29.472000122070312,-34.87200164794922 C-22.025999069213867,-45.40599822998047 -31.288000106811523,-54.66899871826172 -30.198999404907227,-57.57500076293945 C-29.108999252319336,-60.48099899291992 -19.663999557495117,-54.305999755859375 -16.031999588012695,-52.85300064086914 C-12.399999618530273,-51.400001525878906 -3.681999921798706,-50.310001373291016 -3.681999921798706,-50.310001373291016z"></path></g><g opacity="1" transform="matrix(1,0,0,1,100.64800262451172,101.30500030517578)"><path fill="rgb(255,221,201)" fill-opacity="1" d=" M-4.879000186920166,0.5270000100135803 C-4.879000186920166,0.5270000100135803 -2.8299999237060547,5.9720001220703125 1.184000015258789,6.0370001792907715 C5.198999881744385,6.10099983215332 5.6620001792907715,1.715999960899353 4.599999904632568,-0.35600000619888306 C3.5399999618530273,-2.430000066757202 0.3700000047683716,-6.10099983215332 -2.6470000743865967,-4.96999979019165 C-5.663000106811523,-3.8399999141693115 -4.879000186920166,0.5270000100135803 -4.879000186920166,0.5270000100135803z"></path></g><g opacity="1" transform="matrix(1,0,0,1,72.91000366210938,82.12000274658203)"><path stroke-linecap="round" stroke-linejoin="round" fill-opacity="0" stroke="rgb(155,75,31)" stroke-opacity="1" stroke-width="10" d=" M23.774635314941406,-51.77851104736328 C23.774635314941406,-51.77851104736328 19.670509338378906,-50.556365966796875 19.145509719848633,-48.982364654541016 C18.621509552001953,-47.409366607666016 20.19680404663086,-44.35272979736328 18.097803115844727,-42.77872848510742 C16.000802993774414,-41.20573043823242 12.508771896362305,-39.297630310058594 12.508771896362305,-39.297630310058594 C12.508771896362305,-39.297630310058594 16.169384002685547,-32.917579650878906 16.169384002685547,-30.557580947875977 C16.169384002685547,-28.197580337524414 14.081771850585938,-26.185630798339844 14.081771850585938,-26.185630798339844 C14.081771850585938,-26.185630798339844 17.48645782470703,-15.948753356933594 20.109458923339844,-11.490753173828125 C22.73145866394043,-7.032752990722656 22.861175537109375,0.31915420293807983 27.843175888061523,4.778154373168945 C32.826175689697266,9.236154556274414 43.84973907470703,19.38884162902832 41.43379211425781,29.841510772705078 C38.57640838623047,41.904273986816406 24.715866088867188,50.27379608154297 13.303865432739258,47.94979476928711 C4.285865783691406,46.11379623413086 -0.5065279006958008,42.57223892211914 -4.440192222595215,35.59906005859375 C-7.233256816864014,30.717153549194336 -13.403228759765625,25.954368591308594 -22.319229125976562,24.643367767333984 C-31.236228942871094,23.33136749267578 -34.43523025512695,25.216367721557617 -36.79522705078125,24.954368591308594 C-39.15522766113281,24.692367553710938 -43.614227294921875,17.34836769104004 -40.204227447509766,11.054368019104004 C-36.79522705078125,4.760368347167969 -31.724159240722656,1.7061575651168823 -26.4571590423584,1.888157606124878 C-13.491159439086914,2.335157632827759 -0.42149221897125244,15.14854907989502 -0.42149221897125244,15.14854907989502"></path></g><g opacity="1" transform="matrix(1,0,0,1,76.9000015258789,41.26300048828125)"><path fill="rgb(255,194,153)" fill-opacity="1" d=" M-10.458999633789062,-3.5769999027252197 C-10.458999633789062,-3.5769999027252197 -3.7990000247955322,-5.107999801635742 2.8299999237060547,-1.7940000295639038 C8.642999649047852,1.1119999885559082 10.458999633789062,5.107999801635742 10.458999633789062,5.107999801635742"></path><path stroke-linecap="round" stroke-linejoin="round" fill-opacity="0" stroke="rgb(156,75,32)" stroke-opacity="1" stroke-width="9" d=" M-10.458999633789062,-3.5769999027252197 C-10.458999633789062,-3.5769999027252197 -3.7990000247955322,-5.107999801635742 2.8299999237060547,-1.7940000295639038 C8.642999649047852,1.1119999885559082 10.458999633789062,5.107999801635742 10.458999633789062,5.107999801635742"></path></g></g></g><g style="display: block;" transform="matrix(1.0299298763275146,-0.012012471444904804,0.012012471444904804,1.0299298763275146,-15.2657470703125,-26.80279541015625)" opacity="1"><g opacity="1" transform="matrix(1,0,0,1,232.8730010986328,226.94000244140625)"><path stroke-linecap="butt" stroke-linejoin="miter" fill-opacity="0" stroke-miterlimit="10" stroke="rgb(173,90,45)" stroke-opacity="1" stroke-width="12" d=" M-164.68179321289062,-67.51466369628906 C-182.55679321289062,-28.542667388916016 -201.76776123046875,70.61865997314453 -128.82473754882812,138.09967041015625 C-62.7650032043457,199.22662353515625 56.825843811035156,199.44927978515625 120.29815673828125,164.7538604736328 C172.84481811523438,135.97496032714844 208.77503967285156,70.64845275878906 204.7705535888672,-4.606985569000244 C198.89817810058594,-113.81851959228516 96.03534698486328,-199.14529418945312 -33.55565643310547,-172.36029052734375 C-106.55865478515625,-157.2712860107422 -142.44679260253906,-115.99266815185547 -164.68179321289062,-67.51466369628906z"></path></g></g><g style="display: block;" transform="matrix(1.1933013200759888,-0.013917935080826283,0.013917935080826283,1.1933013200759888,156.0821075439453,68.5380630493164)" opacity="1"><g opacity="0.84" transform="matrix(1,0,0,1,63.32099914550781,56.85100173950195)"><path stroke-linecap="round" stroke-linejoin="round" fill-opacity="0" stroke="rgb(199,118,74)" stroke-opacity="1" stroke-width="10" d=" M-40.81999969482422,-29.000999450683594 C-40.81999969482422,-29.000999450683594 -30.285999298095703,-38.91899871826172 -5.2210001945495605,-36.630001068115234 C24.565000534057617,-33.90999984741211 40.81999969482422,-9.449999809265137 39.45899963378906,2.8529999256134033 C38.540000915527344,11.149999618530273 26.299999237060547,18.75200080871582 24.20199966430664,21.736000061035156 C22.104000091552734,24.7189998626709 14.109999656677246,38.284000396728516 -7.218999862670898,38.709999084472656 C-17.632999420166016,38.917999267578125 -27.18199920654297,35.505001068115234 -34.099998474121094,31.08099937438965"></path></g><g opacity="1" transform="matrix(1,0,0,1,54.95899963378906,58.861000061035156)"><path fill="rgb(199,118,74)" fill-opacity="0.62" d=" M-40.08700180053711,-1.9759999513626099 C-40.67100143432617,10.935999870300293 -32.53200149536133,21.25200080871582 -16.839000701904297,27.81100082397461 C-1.1460000276565552,34.36899948120117 27.017000198364258,31.042999267578125 34.316001892089844,12.371999740600586 C40.67100143432617,-3.881999969482422 37.13100051879883,-12.100000381469727 25.660999298095703,-23.045000076293945 C15.989999771118164,-32.27299880981445 -12.350000381469727,-34.36899948120117 -24.829999923706055,-27.40399932861328 C-33.266998291015625,-22.69499969482422 -39.45500183105469,-15.937000274658203 -40.08700180053711,-1.9759999513626099z"></path></g><g opacity="1" transform="matrix(1,0,0,1,55.81700134277344,56.55799865722656)"><path fill="rgb(248,243,255)" fill-opacity="1" d=" M-32.59000015258789,-1.4900000095367432 C-33.31700134277344,7.591000080108643 -25.97100067138672,16.729000091552734 -12.746999740600586,21.05699920654297 C0.47699999809265137,25.38599967956543 21.08799934387207,24.31599998474121 27.625,11.069000244140625 C33.31700134277344,-0.46299999952316284 29.27400016784668,-8.170999526977539 19.718000411987305,-15.656000137329102 C11.65999984741211,-21.966999053955078 -7.730999946594238,-25.38599967956543 -18.464000701904297,-20.270000457763672 C-25.7189998626709,-16.812000274658203 -31.804000854492188,-11.309000015258789 -32.59000015258789,-1.4900000095367432z"></path><path stroke-linecap="butt" stroke-linejoin="miter" fill-opacity="0" stroke-miterlimit="10" stroke="rgb(97,77,111)" stroke-opacity="1" stroke-width="9" d=" M-32.59000015258789,-1.4900000095367432 C-33.31700134277344,7.591000080108643 -25.97100067138672,16.729000091552734 -12.746999740600586,21.05699920654297 C0.47699999809265137,25.38599967956543 21.08799934387207,24.31599998474121 27.625,11.069000244140625 C33.31700134277344,-0.46299999952316284 29.27400016784668,-8.170999526977539 19.718000411987305,-15.656000137329102 C11.65999984741211,-21.966999053955078 -7.730999946594238,-25.38599967956543 -18.464000701904297,-20.270000457763672 C-25.7189998626709,-16.812000274658203 -31.804000854492188,-11.309000015258789 -32.59000015258789,-1.4900000095367432z"></path></g><g opacity="1" transform="matrix(1,0,0,1,0,0)"><g opacity="1" transform="matrix(1,0,0,1,184.9340057373047,81.84200286865234)"><path fill="rgb(248,243,255)" fill-opacity="1" d=" M-16.354000091552734,-20.100000381469727 C-23.027000427246094,-17.569000244140625 -27.256999969482422,-10.701000213623047 -26.881000518798828,-3.558000087738037 C-26.76799964904785,-1.4049999713897705 -25.63599967956543,2.1989998817443848 -24.437999725341797,4.526000022888184 C-19.643999099731445,13.831000328063965 -1.4279999732971191,23.672000885009766 13.159000396728516,16.086999893188477 C27.256999969482422,8.755000114440918 21.899999618530273,-5.625 15.131999969482422,-12.111000061035156 C8.366000175476074,-18.59600067138672 -3.006999969482422,-23.672000885009766 -12.031000137329102,-21.416000366210938 C-13.744000434875488,-20.988000869750977 -15.048999786376953,-20.594999313354492 -16.354000091552734,-20.100000381469727z"></path><path stroke-linecap="butt" stroke-linejoin="miter" fill-opacity="0" stroke-miterlimit="10" stroke="rgb(97,77,111)" stroke-opacity="1" stroke-width="8.28" d=" M-16.354000091552734,-20.100000381469727 C-23.027000427246094,-17.569000244140625 -27.256999969482422,-10.701000213623047 -26.881000518798828,-3.558000087738037 C-26.76799964904785,-1.4049999713897705 -25.63599967956543,2.1989998817443848 -24.437999725341797,4.526000022888184 C-19.643999099731445,13.831000328063965 -1.4279999732971191,23.672000885009766 13.159000396728516,16.086999893188477 C27.256999969482422,8.755000114440918 21.899999618530273,-5.625 15.131999969482422,-12.111000061035156 C8.366000175476074,-18.59600067138672 -3.006999969482422,-23.672000885009766 -12.031000137329102,-21.416000366210938 C-13.744000434875488,-20.988000869750977 -15.048999786376953,-20.594999313354492 -16.354000091552734,-20.100000381469727z"></path></g><g opacity="1" transform="matrix(1,0,0,1,0,0)"><g opacity="1" transform="matrix(1,0,0,1,190.1219940185547,81.4739990234375)"><path fill="rgb(33,23,47)" fill-opacity="1" d=" M-6.699999809265137,-4.656000137329102 C-6.910999774932861,-4.364999771118164 -7.084000110626221,-4.056000232696533 -7.2220001220703125,-3.7249999046325684 C-7.901000022888184,-2.11299991607666 -9.512999534606934,2.875 -4.714000225067139,5.202000141143799 C1.055999994277954,7.999000072479248 6.525000095367432,8.230999946594238 8.223999977111816,0.656000018119812 C9.512999534606934,-5.0929999351501465 4.150000095367432,-8.232000350952148 -0.05900000035762787,-8.107999801635742 C-2.2880001068115234,-8.043000221252441 -5.703999996185303,-6.03000020980835 -6.699999809265137,-4.656000137329102z"></path><path stroke-linecap="butt" stroke-linejoin="miter" fill-opacity="0" stroke-miterlimit="10" stroke="rgb(31,20,37)" stroke-opacity="1" stroke-width="7.504" d=" M-6.699999809265137,-4.656000137329102 C-6.910999774932861,-4.364999771118164 -7.084000110626221,-4.056000232696533 -7.2220001220703125,-3.7249999046325684 C-7.901000022888184,-2.11299991607666 -9.512999534606934,2.875 -4.714000225067139,5.202000141143799 C1.055999994277954,7.999000072479248 6.525000095367432,8.230999946594238 8.223999977111816,0.656000018119812 C9.512999534606934,-5.0929999351501465 4.150000095367432,-8.232000350952148 -0.05900000035762787,-8.107999801635742 C-2.2880001068115234,-8.043000221252441 -5.703999996185303,-6.03000020980835 -6.699999809265137,-4.656000137329102z"></path></g><g opacity="1" transform="matrix(1,0,0,1,190.01600646972656,84.68599700927734)"><path fill="rgb(70,48,91)" fill-opacity="1" d=" M8.189000129699707,-1.312999963760376 C7.785999774932861,-3.388000011444092 5.732999801635742,-4.869999885559082 3.4560000896453857,-4.984000205993652 C0.4429999887943268,-5.135000228881836 -4.013999938964844,-5.131999969482422 -5.664999961853027,-3.9660000801086426 C-8.253999710083008,-2.138000011444092 -5.539999961853027,3.3269999027252197 -1.593999981880188,4.230999946594238 C2.3519999980926514,5.135000228881836 8.026000022888184,0.953000009059906 8.22599983215332,-0.5950000286102295 C8.253999710083008,-0.8159999847412109 8.23799991607666,-1.059000015258789 8.189000129699707,-1.312999963760376z"></path></g><g opacity="1" transform="matrix(1,0,0,1,180.81399536132812,77.93599700927734)"><path fill="rgb(253,253,253)" fill-opacity="1" d=" M-3.874000072479248,-3.734999895095825 C-5.228000164031982,-2.450000047683716 -5.6479997634887695,-1.1679999828338623 -5.321000099182129,0.8399999737739563 C-5.1529998779296875,1.8760000467300415 -3.8919999599456787,3.5369999408721924 -2.4739999771118164,4.061999797821045 C1.3070000410079956,5.461999893188477 5.6479997634887695,5.321000099182129 5.507999897003174,-0.0010000000474974513 C5.368000030517578,-5.322000026702881 -2.053999900817871,-5.461999893188477 -3.874000072479248,-3.734999895095825z"></path></g><g opacity="1" transform="matrix(1,0,0,1,199.3780059814453,85.02799987792969)"><path fill="rgb(253,253,253)" fill-opacity="1" d=" M2.450000047683716,-1.86899995803833 C2.056999921798706,-2.8010001182556152 1.4709999561309814,-3.25600004196167 0.5130000114440918,-3.2869999408721924 C0.01899999938905239,-3.302999973297119 -1.2020000219345093,-3.0139999389648438 -1.6419999599456787,-2.24399995803833 C-2.813999891281128,-0.19300000369548798 -2.9760000705718994,2.2929999828338623 -0.5379999876022339,2.7990000247955322 C1.8980000019073486,3.303999900817871 2.9760000705718994,-0.6169999837875366 2.450000047683716,-1.86899995803833z"></path></g></g></g><g opacity="1" transform="matrix(1,0,0,1,-1.5764808654785156,1.5764846801757812)"><g opacity="1" transform="matrix(1,0,0,1,51.194000244140625,54.417999267578125)"><path fill="rgb(33,23,47)" fill-opacity="1" d=" M-7.318999767303467,-7.741000175476074 C-9.876999855041504,-5.078000068664551 -10.670000076293945,-2.4179999828338623 -10.053000450134277,1.7419999837875366 C-9.734000205993652,3.890000104904175 -7.3520002365112305,7.329999923706055 -4.672999858856201,8.418000221252441 C2.4700000286102295,11.321000099182129 10.670999526977539,11.031000137329102 10.406999588012695,0.0010000000474974513 C10.142000198364258,-11.029999732971191 -3.880000114440918,-11.321000099182129 -7.318999767303467,-7.741000175476074z"></path><path stroke-linecap="butt" stroke-linejoin="miter" fill-opacity="0" stroke-miterlimit="10" stroke="rgb(31,20,37)" stroke-opacity="1" stroke-width="9.011" d=" M-7.318999767303467,-7.741000175476074 C-9.876999855041504,-5.078000068664551 -10.670000076293945,-2.4179999828338623 -10.053000450134277,1.7419999837875366 C-9.734000205993652,3.890000104904175 -7.3520002365112305,7.329999923706055 -4.672999858856201,8.418000221252441 C2.4700000286102295,11.321000099182129 10.670999526977539,11.031000137329102 10.406999588012695,0.0010000000474974513 C10.142000198364258,-11.029999732971191 -3.880000114440918,-11.321000099182129 -7.318999767303467,-7.741000175476074z"></path></g><g opacity="1" transform="matrix(1,0,0,1,38.777000427246094,57.159000396728516)"><path fill="rgb(253,253,253)" fill-opacity="1" d=" M-2.4210000038146973,-2.559999942779541 C-3.2669999599456787,-1.6790000200271606 -3.5290000438690186,-0.800000011920929 -3.325000047683716,0.5759999752044678 C-3.2200000286102295,1.2860000133514404 -2.431999921798706,2.4240000247955322 -1.5460000038146973,2.7839999198913574 C0.8159999847412109,3.74399995803833 3.5290000438690186,3.6480000019073486 3.440999984741211,0 C3.3529999256134033,-3.6480000019073486 -1.2829999923706055,-3.74399995803833 -2.4210000038146973,-2.559999942779541z"></path></g><g opacity="1" transform="matrix(1,0,0,1,64.31199645996094,57.13199996948242)"><path fill="rgb(253,253,253)" fill-opacity="1" d=" M-4.441999912261963,-4.697999954223633 C-5.99399995803833,-3.0820000171661377 -6.47599983215332,-1.468000054359436 -6.10099983215332,1.0570000410079956 C-5.9070000648498535,2.3610000610351562 -4.461999893188477,4.447999954223633 -2.8359999656677246,5.107999801635742 C1.4989999532699585,6.86899995803833 6.47599983215332,6.693999767303467 6.315000057220459,0.0010000000474974513 C6.15500020980835,-6.692999839782715 -2.3550000190734863,-6.869999885559082 -4.441999912261963,-4.697999954223633z"></path></g><g opacity="1" transform="matrix(1,0,0,1,50.00699996948242,60.902000427246094)"><path fill="rgb(70,48,91)" fill-opacity="1" d=" M-8.812000274658203,-2.313999891281128 C-8.090999603271484,-4.675000190734863 -5.682000160217285,-6.093999862670898 -3.2219998836517334,-5.882999897003174 C0.032999999821186066,-5.604000091552734 4.817999839782715,-4.927999973297119 6.427999973297119,-3.318000078201294 C8.95300006866455,-0.7929999828338623 5.28000020980835,5.176000118255615 0.9190000295639038,5.635000228881836 C-3.443000078201294,6.093999862670898 -8.95300006866455,0.35499998927116394 -8.95300006866455,-1.4809999465942383 C-8.95300006866455,-1.74399995803833 -8.899999618530273,-2.0250000953674316 -8.812000274658203,-2.313999891281128z"></path></g></g></g><g style="display: block;" transform="matrix(1.1933013200759888,-0.013917935080826283,0.013917935080826283,1.1933013200759888,132.55743408203125,33.722232818603516)" opacity="1"><g opacity="1" transform="matrix(1,0,0,1,0,0)"><g opacity="1" transform="matrix(1,0,0,1,61.63600158691406,36.654998779296875)"><path fill="rgb(72,37,18)" fill-opacity="1" d=" M-41.813560485839844,15.020694732666016 C-41.813560485839844,15.020694732666016 -26.40008544921875,0.6174237132072449 -17.0120849609375,-5.469576358795166 C-7.62508487701416,-11.557576179504395 2.3836610317230225,-13.447406768798828 10.152661323547363,-11.787406921386719 C17.92266082763672,-10.12740707397461 29.922609329223633,-4.818508625030518 36.073204040527344,-5.417440891265869 C42.8297119140625,-5.905949115753174 47.17377853393555,-12.406558990478516 47.498779296875,-14.896559715270996 C47.821781158447266,-17.38755989074707 46.950439453125,-18.630830764770508 43.226524353027344,-19.018508911132812 C39.76701736450195,-19.276609420776367 34.53596496582031,-18.72955894470215 30.03123664855957,-18.96489906311035 C26.029287338256836,-19.05238914489746 20.01905059814453,-18.63752555847168 19.048049926757812,-18.914525985717773 C18.076051712036133,-19.191524505615234 2.45725417137146,-21.059677124023438 -9.414745330810547,-17.15667724609375 C-17.831745147705078,-14.389678001403809 -27.695085525512695,-7.405982971191406 -32.22708511352539,-1.8719830513000488 C-36.75908660888672,3.6610169410705566 -46.36469650268555,13.521119117736816 -45.06969451904297,15.18211841583252 C-43.16069412231445,17.629117965698242 -41.813560485839844,15.020694732666016 -41.813560485839844,15.020694732666016z"></path><path stroke-linecap="round" stroke-linejoin="round" fill-opacity="0" stroke="rgb(53,21,19)" stroke-opacity="1" stroke-width="10" d=" M-41.813560485839844,15.020694732666016 C-41.813560485839844,15.020694732666016 -26.40008544921875,0.6174237132072449 -17.0120849609375,-5.469576358795166 C-7.62508487701416,-11.557576179504395 2.3836610317230225,-13.447406768798828 10.152661323547363,-11.787406921386719 C17.92266082763672,-10.12740707397461 29.922609329223633,-4.818508625030518 36.073204040527344,-5.417440891265869 C42.8297119140625,-5.905949115753174 47.17377853393555,-12.406558990478516 47.498779296875,-14.896559715270996 C47.821781158447266,-17.38755989074707 46.950439453125,-18.630830764770508 43.226524353027344,-19.018508911132812 C39.76701736450195,-19.276609420776367 34.53596496582031,-18.72955894470215 30.03123664855957,-18.96489906311035 C26.029287338256836,-19.05238914489746 20.01905059814453,-18.63752555847168 19.048049926757812,-18.914525985717773 C18.076051712036133,-19.191524505615234 2.45725417137146,-21.059677124023438 -9.414745330810547,-17.15667724609375 C-17.831745147705078,-14.389678001403809 -27.695085525512695,-7.405982971191406 -32.22708511352539,-1.8719830513000488 C-36.75908660888672,3.6610169410705566 -46.36469650268555,13.521119117736816 -45.06969451904297,15.18211841583252 C-43.16069412231445,17.629117965698242 -41.813560485839844,15.020694732666016 -41.813560485839844,15.020694732666016z"></path></g></g><g opacity="1" transform="matrix(1,0,0,1,0,0)"><g opacity="1" transform="matrix(1,0,0,1,217.4219970703125,70.51100158691406)"><path fill="rgb(72,37,18)" fill-opacity="1" d=" M-19.211000442504883,-23.448999404907227 C-19.211000442504883,-23.448999404907227 -7.178999900817871,-22.454999923706055 -3.7780001163482666,-22.195999145507812 C-0.3779999911785126,-21.937000274658203 9.300000190734863,-18.566999435424805 14.793000221252441,-8.199000358581543 C22.80900001525879,6.929999828338623 22.378999710083008,17.202999114990234 22.641000747680664,20.054000854492188 C22.900999069213867,22.905000686645508 23.68600082397461,29.90399932861328 23.947999954223633,30.42300033569336 C24.113000869750977,30.75 24.993999481201172,21.868999481201172 24.993999481201172,14.35200023651123 C24.993999481201172,6.835000038146973 25.256000518798828,-8.97700023651123 16.88599967956543,-19.86400032043457 C8.515999794006348,-30.75 -3.924999952316284,-27.04599952697754 -6.263999938964844,-26.775999069213867 C-8.878999710083008,-26.472999572753906 -16.507999420166016,-26.43000030517578 -19.38599967956543,-26.68899917602539 C-22.26300048828125,-26.948999404907227 -25.256000518798828,-27.72100067138672 -25.139999389648438,-26.43000030517578 C-24.965999603271484,-24.486000061035156 -19.211000442504883,-23.448999404907227 -19.211000442504883,-23.448999404907227z"></path><path stroke-linecap="round" stroke-linejoin="round" fill-opacity="0" stroke="rgb(53,21,19)" stroke-opacity="1" stroke-width="10" d=" M-19.211000442504883,-23.448999404907227 C-19.211000442504883,-23.448999404907227 -7.178999900817871,-22.454999923706055 -3.7780001163482666,-22.195999145507812 C-0.3779999911785126,-21.937000274658203 9.300000190734863,-18.566999435424805 14.793000221252441,-8.199000358581543 C22.80900001525879,6.929999828338623 22.378999710083008,17.202999114990234 22.641000747680664,20.054000854492188 C22.900999069213867,22.905000686645508 23.68600082397461,29.90399932861328 23.947999954223633,30.42300033569336 C24.113000869750977,30.75 24.993999481201172,21.868999481201172 24.993999481201172,14.35200023651123 C24.993999481201172,6.835000038146973 25.256000518798828,-8.97700023651123 16.88599967956543,-19.86400032043457 C8.515999794006348,-30.75 -3.924999952316284,-27.04599952697754 -6.263999938964844,-26.775999069213867 C-8.878999710083008,-26.472999572753906 -16.507999420166016,-26.43000030517578 -19.38599967956543,-26.68899917602539 C-22.26300048828125,-26.948999404907227 -25.256000518798828,-27.72100067138672 -25.139999389648438,-26.43000030517578 C-24.965999603271484,-24.486000061035156 -19.211000442504883,-23.448999404907227 -19.211000442504883,-23.448999404907227z"></path></g></g></g><g style="display: block;" transform="matrix(1.1933013200759888,-0.013917935080826283,0.013917935080826283,1.1933013200759888,221.0107879638672,234.77378845214844)" opacity="1"><g opacity="1" transform="matrix(1,0,0,1,0,0)"><g opacity="1" transform="matrix(1,0,0,1,60.012001037597656,59.99800109863281)"><path stroke-linecap="round" stroke-linejoin="round" fill-opacity="0" stroke="rgb(235,149,116)" stroke-opacity="1" stroke-width="12" d=" M-25.33307456970215,7.878165245056152 C-25.33307456970215,7.878165245056152 -18.128890991210938,20.561010360717773 -13.221890449523926,20.77800941467285 C-8.314889907836914,20.995010375976562 -4.804335117340088,19.32388687133789 -2.6833348274230957,20.916887283325195 C-0.5623348951339722,22.508888244628906 3.4797215461730957,23.14924430847168 5.3127217292785645,23.150243759155273 C7.145721435546875,23.151243209838867 19.424707412719727,19.024940490722656 19.424707412719727,19.024940490722656"></path></g><g opacity="1" transform="matrix(1,0,0,1,62.4640007019043,56.45600128173828)"><path stroke-linecap="round" stroke-linejoin="round" fill-opacity="0" stroke="rgb(173,90,45)" stroke-opacity="1" stroke-width="9" d=" M-23.9481258392334,6.900354385375977 C-23.9481258392334,6.900354385375977 -19.274614334106445,17.16434669494629 -11.929969787597656,18.174793243408203 C-7.058589458465576,18.686174392700195 -2.6674158573150635,17.25001335144043 -0.5484158396720886,18.844013214111328 C1.5715841054916382,20.438013076782227 3.6509854793548584,20.947715759277344 5.470434665679932,21.086387634277344 C11.343589782714844,22.024799346923828 19.601774215698242,16.92302894592285 19.601774215698242,16.92302894592285"></path></g><g opacity="1" transform="matrix(1,0,0,1,63.26499938964844,44.8650016784668)"><path fill="rgb(248,128,121)" fill-opacity="1" d=" M-59.14512634277344,-4.208719253540039 C-59.14512634277344,-4.208719253540039 -34.41431427001953,-1.9847345352172852 -10.735644340515137,-3.686248302459717 C10.742729187011719,-4.641933441162109 15.11545467376709,-3.922576427459717 23.07946014404297,-1.0309059619903564 C31.6201114654541,2.0552003383636475 36.145591735839844,9.74841594696045 42.922462463378906,12.036758422851562 C46.87546157836914,13.69010066986084 59.251136779785156,16.226396560668945 64.08513641357422,15.502396583557129 C68.91813659667969,14.777397155761719 49.288970947265625,11.667089462280273 47.59697341918945,0.07508978247642517 C45.904972076416016,-11.51791000366211 33.659114837646484,-15.2804594039917 29.114116668701172,-14.581459999084473 C24.92511558532715,-13.937459945678711 16.338489532470703,-11.281600952148438 10.376489639282227,-16.594600677490234 C5.359489917755127,-21.066600799560547 3.5246734619140625,-22.181072235107422 -7.83432674407959,-20.24907112121582 C-16.59632682800293,-18.759071350097656 -23.95427131652832,-16.714426040649414 -36.30246353149414,-9.110615730285645 C-45.349422454833984,-3.626831531524658 -59.14512634277344,-4.208719253540039 -59.14512634277344,-4.208719253540039z"></path><path stroke-linecap="round" stroke-linejoin="round" fill-opacity="0" stroke="rgb(207,73,73)" stroke-opacity="1" stroke-width="9" d=" M-59.14512634277344,-4.208719253540039 C-59.14512634277344,-4.208719253540039 -34.41431427001953,-1.9847345352172852 -10.735644340515137,-3.686248302459717 C10.742729187011719,-4.641933441162109 15.11545467376709,-3.922576427459717 23.07946014404297,-1.0309059619903564 C31.6201114654541,2.0552003383636475 36.145591735839844,9.74841594696045 42.922462463378906,12.036758422851562 C46.87546157836914,13.69010066986084 59.251136779785156,16.226396560668945 64.08513641357422,15.502396583557129 C68.91813659667969,14.777397155761719 49.288970947265625,11.667089462280273 47.59697341918945,0.07508978247642517 C45.904972076416016,-11.51791000366211 33.659114837646484,-15.2804594039917 29.114116668701172,-14.581459999084473 C24.92511558532715,-13.937459945678711 16.338489532470703,-11.281600952148438 10.376489639282227,-16.594600677490234 C5.359489917755127,-21.066600799560547 3.5246734619140625,-22.181072235107422 -7.83432674407959,-20.24907112121582 C-16.59632682800293,-18.759071350097656 -23.95427131652832,-16.714426040649414 -36.30246353149414,-9.110615730285645 C-45.349422454833984,-3.626831531524658 -59.14512634277344,-4.208719253540039 -59.14512634277344,-4.208719253540039z"></path></g><g opacity="1" transform="matrix(1,0,0,1,0,0)"><path fill="rgb(70,22,17)" fill-opacity="1" d=" M68.35374450683594,47.33298110961914 C52.39974594116211,43.55498123168945 29.2347469329834,45.96841049194336 25.219831466674805,44.32861328125 C16.076038360595703,40.98339080810547 34.41516876220703,41.268394470214844 65.06716918945312,42.62939453125 C92.73016357421875,43.857391357421875 108.51708984375,61.957183837890625 110.38009643554688,61.55818176269531 C112.50509643554688,61.10318374633789 84.30774688720703,51.11098098754883 68.35374450683594,47.33298110961914z"></path><path stroke-linecap="butt" stroke-linejoin="miter" fill-opacity="0" stroke-miterlimit="4" stroke="rgb(82,17,17)" stroke-opacity="0.042538344850833215" stroke-width="1" d=" M68.35374450683594,47.33298110961914 C52.39974594116211,43.55498123168945 29.2347469329834,45.96841049194336 25.219831466674805,44.32861328125 C16.076038360595703,40.98339080810547 34.41516876220703,41.268394470214844 65.06716918945312,42.62939453125 C92.73016357421875,43.857391357421875 108.51708984375,61.957183837890625 110.38009643554688,61.55818176269531 C112.50509643554688,61.10318374633789 84.30774688720703,51.11098098754883 68.35374450683594,47.33298110961914z"></path></g></g></g><g style="display: block;" transform="matrix(0.8230704069137573,-0.5434237122535706,0.5434237122535706,0.8230704069137573,267.6562805175781,220.3345947265625)" opacity="0.49"><g opacity="0.77" transform="matrix(1,0,0,1,0,0)"><path fill="rgb(192,100,55)" fill-opacity="1" d=" M-78.44017028808594,-177.6041717529297 C-78.44017028808594,-177.6041717529297 -119.03366088867188,-189.576171875 -141.03366088867188,-134.576171875 C-163.03366088867188,-79.576171875 -195.03366088867188,-8.576171875 -195.03366088867188,32.423828125 C-195.03366088867188,73.423828125 -168.09817504882812,106.048828125 -155.09817504882812,107.048828125 C-142.09817504882812,108.048828125 -108.55316925048828,117.70231628417969 -88.30216979980469,56.380313873291016 C-74.80416870117188,15.505313873291016 -112.71717071533203,-16.888172149658203 -118.1021728515625,-22.5451717376709 C-124.8531723022461,-29.638172149658203 -120.41865539550781,-48.921173095703125 -110.7486572265625,-54.904170989990234 C-91.95465850830078,-66.53217315673828 -90.61116790771484,-53.9666862487793 -74.61116790771484,-68.96668243408203 C-58.61117172241211,-83.96668243408203 -42.47565841674805,-117.26668548583984 -46.47565841674805,-147.26669311523438 C-50.47565841674805,-177.26669311523438 -78.44017028808594,-177.6041717529297 -78.44017028808594,-177.6041717529297z"></path></g></g><g style="display: block;" transform="matrix(1.1485726833343506,0.06895651668310165,-0.06895651668310165,1.1485726833343506,215.0507354736328,266.0611572265625)" opacity="1"><g opacity="1" transform="matrix(1,0,0,1,0,0)"><path fill="rgb(237,147,113)" fill-opacity="1" d=" M-128.38299560546875,-25.468000411987305 C-131.63099670410156,-31.499000549316406 -147.6719970703125,-17.506000518798828 -151.11700439453125,-10.156999588012695 C-158.0760040283203,4.690000057220459 -152.50799560546875,28.815000534057617 -152.50799560546875,28.815000534057617 C-152.50799560546875,28.815000534057617 -125.5989990234375,21.856000900268555 -118.63999938964844,21.856000900268555 C-111.68099975585938,21.856000900268555 -125.13500213623047,-19.437000274658203 -128.38299560546875,-25.468000411987305z"></path><path stroke-linecap="butt" stroke-linejoin="miter" fill-opacity="0" stroke-miterlimit="4" stroke="rgb(173,90,45)" stroke-opacity="1" stroke-width="11" d=" M-128.38299560546875,-25.468000411987305 C-131.63099670410156,-31.499000549316406 -147.6719970703125,-17.506000518798828 -151.11700439453125,-10.156999588012695 C-158.0760040283203,4.690000057220459 -152.50799560546875,28.815000534057617 -152.50799560546875,28.815000534057617 C-152.50799560546875,28.815000534057617 -125.5989990234375,21.856000900268555 -118.63999938964844,21.856000900268555 C-111.68099975585938,21.856000900268555 -125.13500213623047,-19.437000274658203 -128.38299560546875,-25.468000411987305z"></path></g><g opacity="1" transform="matrix(1,0,0,1,0,0)"><path fill="rgb(43,51,59)" fill-opacity="1" d=" M-94.1147232055664,-136.18942260742188 C-107.35379791259766,-140.20083618164062 -123.62895965576172,-133.76950073242188 -133.42295837402344,-123.82550048828125 C-147.99696350097656,-109.02749633789062 -152.5189208984375,-87.5953369140625 -151.5189208984375,-59.595340728759766 C-150.5189208984375,-31.595340728759766 -140.01808166503906,6.346720218658447 -125.01808166503906,37.34672164916992 C-110.01808166503906,68.34671783447266 -81.213623046875,103.86730194091797 -53.03696060180664,111.6535415649414 C-26.7243595123291,118.90878295898438 -1.152340054512024,111.91931915283203 4.616360187530518,98.26798248291016 C9.175800323486328,87.53843688964844 9.2050199508667,70.31629943847656 4.01278018951416,56.262020111083984 C-3.5965800285339355,35.69697952270508 -15.956700325012207,27.013200759887695 -23.65414047241211,22.788740158081055 C-35.78812026977539,15.53402042388916 -49.807861328125,22.34670066833496 -56.532859802246094,32.46369934082031 C-62.39786148071289,41.28670120239258 -64.98100280761719,48 -71.5,48 C-79.5,48 -95.00800323486328,21.195999145507812 -103,3.5 C-110,-12 -117.9643783569336,-45.85940170288086 -101.90260314941406,-44.44055938720703 C-84.86248016357422,-42.94055938720703 -72.69915771484375,-41.51935958862305 -63.15248107910156,-54.768558502197266 C-57.779518127441406,-62.19654083251953 -58.94137954711914,-86.29029846191406 -65.28515625,-101.6098403930664 C-70.59487915039062,-113.62857818603516 -79.79862213134766,-132.467041015625 -94.1147232055664,-136.18942260742188z"></path><path stroke-linecap="butt" stroke-linejoin="miter" fill-opacity="0" stroke-miterlimit="4" stroke="rgb(18,30,39)" stroke-opacity="1" stroke-width="12" d=" M-94.1147232055664,-136.18942260742188 C-107.35379791259766,-140.20083618164062 -123.62895965576172,-133.76950073242188 -133.42295837402344,-123.82550048828125 C-147.99696350097656,-109.02749633789062 -152.5189208984375,-87.5953369140625 -151.5189208984375,-59.595340728759766 C-150.5189208984375,-31.595340728759766 -140.01808166503906,6.346720218658447 -125.01808166503906,37.34672164916992 C-110.01808166503906,68.34671783447266 -81.213623046875,103.86730194091797 -53.03696060180664,111.6535415649414 C-26.7243595123291,118.90878295898438 -1.152340054512024,111.91931915283203 4.616360187530518,98.26798248291016 C9.175800323486328,87.53843688964844 9.2050199508667,70.31629943847656 4.01278018951416,56.262020111083984 C-3.5965800285339355,35.69697952270508 -15.956700325012207,27.013200759887695 -23.65414047241211,22.788740158081055 C-35.78812026977539,15.53402042388916 -49.807861328125,22.34670066833496 -56.532859802246094,32.46369934082031 C-62.39786148071289,41.28670120239258 -64.98100280761719,48 -71.5,48 C-79.5,48 -95.00800323486328,21.195999145507812 -103,3.5 C-110,-12 -117.9643783569336,-45.85940170288086 -101.90260314941406,-44.44055938720703 C-84.86248016357422,-42.94055938720703 -72.69915771484375,-41.51935958862305 -63.15248107910156,-54.768558502197266 C-57.779518127441406,-62.19654083251953 -58.94137954711914,-86.29029846191406 -65.28515625,-101.6098403930664 C-70.59487915039062,-113.62857818603516 -79.79862213134766,-132.467041015625 -94.1147232055664,-136.18942260742188z"></path></g><g opacity="0.55" transform="matrix(1,0,0,1,0,0)"><path stroke-linecap="butt" stroke-linejoin="miter" fill-opacity="0" stroke-miterlimit="4" stroke="rgb(18,30,39)" stroke-opacity="1" stroke-width="10" d=" M-116,-131.5 C-116,-131.5 -108.93399810791016,-129.31700134277344 -103.3280029296875,-124.14399719238281 C-97.29100036621094,-118.5739974975586 -87.03600311279297,-106.41699981689453 -83.5,-97.5 C-72,-68.5 -81,-46 -81,-46"></path></g><g opacity="0.49" transform="matrix(1,0,0,1,0,0)"><path stroke-linecap="butt" stroke-linejoin="miter" fill-opacity="0" stroke-miterlimit="4" stroke="rgb(18,30,39)" stroke-opacity="1" stroke-width="10" d=" M-46.077598571777344,26.220800399780273 C-46.077598571777344,26.220800399780273 -26.577600479125977,33.22079849243164 -13.57759952545166,57.22079849243164 C-8.627599716186523,66.35980224609375 -7.078000068664551,82.7208023071289 -8.913000106811523,94.2468032836914 C-10.64799976348877,105.14579772949219 -19.077600479125977,111.7208023071289 -19.077600479125977,111.7208023071289"></path></g><g opacity="1" transform="matrix(1,0,0,1,0,0)"><path stroke-linecap="round" stroke-linejoin="round" fill-opacity="0" stroke="rgb(136,153,166)" stroke-opacity="0.79" stroke-width="10.504273504273504" d=" M-129.4277801513672,-108.76699829101562 C-129.4277801513672,-108.76699829101562 -141.96826171875,-89.93229675292969 -138.96826171875,-55.93230056762695 C-137.249267578125,-36.45029830932617 -131.21226501464844,-14.320300102233887 -125.80326080322266,2.8587000370025635"></path></g></g><g style="display: block;" transform="matrix(1.0465046167373657,0.05841018259525299,-0.05841018259525299,1.0465046167373657,242.44552612304688,278.5383605957031)" opacity="1"><g opacity="1" transform="matrix(1,0,0,1,0,0)"><path fill="rgb(252,201,166)" fill-opacity="1" d=" M-150.5,-37 C-169,-30 -179.66400146484375,-13.170999526977539 -189,5.5 C-195.78900146484375,19.077999114990234 -193,39.5 -179.5,53 C-166,66.5 -148.5,57.5 -143.5,53.5 C-138.5,49.5 -118.5,26.5 -116,25.5 C-113.5,24.5 -108,32 -108,32 C-108,32 -97.31600189208984,15.840999603271484 -98.5,11.5 C-101.5,0.5 -114.5,-0.5 -114.5,-0.5 C-114.5,-0.5 -106.5,-6.5 -112,-15 C-118.0739974975586,-24.386999130249023 -129.5,-20 -129.5,-20 C-129.5,-20 -123.5,-25 -125.5,-31 C-127.5,-37 -130.39100646972656,-44.60900115966797 -150.5,-37z"></path><path stroke-linecap="round" stroke-linejoin="round" fill-opacity="0" stroke="rgb(191,105,59)" stroke-opacity="1" stroke-width="11" d=" M-150.5,-37 C-169,-30 -179.66400146484375,-13.170999526977539 -189,5.5 C-195.78900146484375,19.077999114990234 -193,39.5 -179.5,53 C-166,66.5 -148.5,57.5 -143.5,53.5 C-138.5,49.5 -118.5,26.5 -116,25.5 C-113.5,24.5 -108,32 -108,32 C-108,32 -97.31600189208984,15.840999603271484 -98.5,11.5 C-101.5,0.5 -114.5,-0.5 -114.5,-0.5 C-114.5,-0.5 -106.5,-6.5 -112,-15 C-118.0739974975586,-24.386999130249023 -129.5,-20 -129.5,-20 C-129.5,-20 -123.5,-25 -125.5,-31 C-127.5,-37 -130.39100646972656,-44.60900115966797 -150.5,-37z"></path></g><g opacity="1" transform="matrix(1,0,0,1,0,0)"><path fill="rgb(252,201,166)" fill-opacity="1" d=" M-135.5,7.25 C-135.5,7.25 -131,3 -123.5,0.5 C-116,-2 -111,-0.25 -111,-0.25"></path><path stroke-linecap="round" stroke-linejoin="round" fill-opacity="0" stroke="rgb(191,105,59)" stroke-opacity="1" stroke-width="11" d=" M-135.5,7.25 C-135.5,7.25 -131,3 -123.5,0.5 C-116,-2 -111,-0.25 -111,-0.25"></path></g><g opacity="1" transform="matrix(1,0,0,1,0,0)"><path fill="rgb(252,201,166)" fill-opacity="1" d=" M-147.5,-11 C-147.5,-11 -142.53599548339844,-16.822999954223633 -136.5,-18.5 C-127.5,-21 -124,-21 -124,-21"></path><path stroke-linecap="round" stroke-linejoin="round" fill-opacity="0" stroke="rgb(191,105,59)" stroke-opacity="1" stroke-width="11" d=" M-147.5,-11 C-147.5,-11 -142.53599548339844,-16.822999954223633 -136.5,-18.5 C-127.5,-21 -124,-21 -124,-21"></path></g></g></g><g style="display: block;" transform="matrix(1,0,0,1,256,256)" opacity="1"></g></g></svg>