<svg xmlns="http://www.w3.org/2000/svg" xmlns:xlink="http://www.w3.org/1999/xlink" viewBox="0 0 512 512" width="512" height="512" style="width: 100%; height: 100%; transform: translate3d(0,0,0); content-visibility: visible;" preserveAspectRatio="xMidYMid meet"><defs><clipPath id="__lottie_element_2"><rect width="512" height="512" x="0" y="0"></rect></clipPath><radialGradient id="__lottie_element_12" spreadMethod="pad" gradientUnits="userSpaceOnUse" cx="-143.6439971923828" cy="-124.06500244140625" r="340.06055468914934" fx="-143.6439971923828" fy="-124.06500244140625"><stop offset="0%" stop-color="rgb(197,131,255)"></stop><stop offset="46%" stop-color="rgb(157,89,216)"></stop><stop offset="100%" stop-color="rgb(117,48,176)"></stop></radialGradient><linearGradient id="__lottie_element_13" spreadMethod="pad" gradientUnits="userSpaceOnUse" x1="84.29900360107422" y1="77.99299621582031" x2="-15.090999603271484" y2="3.1089999675750732"><stop offset="0%" stop-color="rgb(77,21,125)"></stop><stop offset="85%" stop-color="rgb(80,21,130)"></stop><stop offset="100%" stop-color="rgb(82,21,136)"></stop></linearGradient><mask id="__lottie_element_15"><path fill="url(#__lottie_element_14)" d=" M-15.236000061035156,-17.656999588012695 C14.357999801635742,-68.38899993896484 34.619998931884766,-172.12899780273438 69.76499938964844,-159.8699951171875 C91.26200103759766,-152.37100219726562 129.31700134277344,-119.61799621582031 140.87100219726562,-56.07099914550781 C148.3769989013672,-14.788000106811523 138.9149932861328,41.61399841308594 75.48600006103516,107.39199829101562 C31.35099983215332,153.16200256347656 -62.63999938964844,178.4980010986328 -118.21800231933594,146.6230010986328 C-194.22799682617188,103.02899932861328 -77.29900360107422,88.73600006103516 -15.236000061035156,-17.656999588012695z"></path></mask><linearGradient id="__lottie_element_14" spreadMethod="pad" gradientUnits="userSpaceOnUse" x1="84.29900360107422" y1="77.99299621582031" x2="-15.090999603271484" y2="3.1089999675750732"><stop stop-color="rgb(255,255,255)" offset="0%" stop-opacity="0.5400000214576721"></stop><stop stop-color="rgb(255,255,255)" offset="57%" stop-opacity="0.27000001072883606"></stop><stop stop-color="rgb(255,255,255)" offset="100%" stop-opacity="0"></stop></linearGradient></defs><g clip-path="url(#__lottie_element_2)"><g style="display: block;" transform="matrix(0.9891573190689087,-0.14685995876789093,0.14685995876789093,0.9891573190689087,306.0715637207031,363.566162109375)" opacity="1"><g opacity="1" transform="matrix(1,0,0,1,41.72600173950195,57.4010009765625)"><path fill="rgb(63,33,102)" fill-opacity="1" d=" M-28.930999755859375,31.333999633789062 C-29.485000610351562,24.381000518798828 -30.416000366210938,19.58099937438965 -26.750999450683594,9.267000198364258 C-23.73200035095215,0.7680000066757202 -19.465999603271484,-4.304999828338623 -11.72700023651123,-9.432000160217285 C0.8370000123977661,-17.753999710083008 5.572000026702881,-15.567999839782715 23.85700035095215,-28.60099983215332 C33.88600158691406,-35.749000549316406 37.027000427246094,-31.81399917602539 34.07400131225586,-20.426000595092773 C31.121000289916992,-9.039999961853027 12.329000473022461,-10.015000343322754 9.470999717712402,-1.809999942779541 C8.380999565124512,1.319000005722046 21.90999984741211,10.225000381469727 -0.3709999918937683,28.812999725341797 C-22.652999877929688,47.4010009765625 -26.836000442504883,34.94900131225586 -28.259000778198242,33.97700119018555 C-28.614999771118164,33.73400115966797 -28.820999145507812,32.720001220703125 -28.930999755859375,31.333999633789062z"></path><path stroke-linecap="round" stroke-linejoin="round" fill-opacity="0" stroke="rgb(63,33,102)" stroke-opacity="1" stroke-width="4" d=" M-28.930999755859375,31.333999633789062 C-29.485000610351562,24.381000518798828 -30.416000366210938,19.58099937438965 -26.750999450683594,9.267000198364258 C-23.73200035095215,0.7680000066757202 -19.465999603271484,-4.304999828338623 -11.72700023651123,-9.432000160217285 C0.8370000123977661,-17.753999710083008 5.572000026702881,-15.567999839782715 23.85700035095215,-28.60099983215332 C33.88600158691406,-35.749000549316406 37.027000427246094,-31.81399917602539 34.07400131225586,-20.426000595092773 C31.121000289916992,-9.039999961853027 12.329000473022461,-10.015000343322754 9.470999717712402,-1.809999942779541 C8.380999565124512,1.319000005722046 21.90999984741211,10.225000381469727 -0.3709999918937683,28.812999725341797 C-22.652999877929688,47.4010009765625 -26.836000442504883,34.94900131225586 -28.259000778198242,33.97700119018555 C-28.614999771118164,33.73400115966797 -28.820999145507812,32.720001220703125 -28.930999755859375,31.333999633789062z"></path></g><g opacity="1" transform="matrix(1,0,0,1,52.78799819946289,84.31999969482422)"><path fill="rgb(63,33,102)" fill-opacity="1" d=" M-18.61400032043457,-24.43600082397461 C-18.61400032043457,-24.43600082397461 19.51300048828125,-34.61000061035156 28.961000442504883,-24.09600067138672 C38.409000396728516,-13.581999778747559 42.78799819946289,9.968000411987305 41.58100128173828,14.751999855041504 C40.374000549316406,19.535999298095703 17.361000061035156,29.738000869750977 3.6519999504089355,32.17399978637695 C-10.057000160217285,34.61000061035156 -25.854999542236328,31.224000930786133 -33.19900131225586,19.75200080871582 C-40.542999267578125,8.279000282287598 -42.78799819946289,-5.940000057220459 -34.29499816894531,-16.725000381469727 C-28.860000610351562,-23.628000259399414 -18.61400032043457,-24.43600082397461 -18.61400032043457,-24.43600082397461z"></path></g><g opacity="1" transform="matrix(1,0,0,1,52.78799819946289,84.31999969482422)"><path stroke-linecap="round" stroke-linejoin="round" fill-opacity="0" stroke="rgb(63,33,102)" stroke-opacity="1" stroke-width="4" d=" M-18.61400032043457,-24.43600082397461 C-18.61400032043457,-24.43600082397461 19.51300048828125,-34.61000061035156 28.961000442504883,-24.09600067138672 C38.409000396728516,-13.581999778747559 42.78799819946289,9.968000411987305 41.58100128173828,14.751999855041504 C40.374000549316406,19.535999298095703 17.361000061035156,29.738000869750977 3.6519999504089355,32.17399978637695 C-10.057000160217285,34.61000061035156 -25.854999542236328,31.224000930786133 -33.19900131225586,19.75200080871582 C-40.542999267578125,8.279000282287598 -42.78799819946289,-5.940000057220459 -34.29499816894531,-16.725000381469727 C-28.860000610351562,-23.628000259399414 -18.61400032043457,-24.43600082397461 -18.61400032043457,-24.43600082397461z"></path></g><g opacity="1" transform="matrix(1,0,0,1,93.31900024414062,46.12300109863281)"><path fill="rgb(63,33,102)" fill-opacity="1" d=" M-36.59400177001953,9.977999687194824 C-36.59400177001953,9.977999687194824 -25.764999389648438,1.2009999752044678 -5.331999778747559,-9.696000099182129 C14.875,-20.472999572753906 32.35300064086914,-23.525999069213867 34.444000244140625,-14.600000381469727 C36.59400177001953,-5.425000190734863 21.367000579833984,-4.791999816894531 7.572999954223633,2.8380000591278076 C-4.6479997634887695,9.597999572753906 -21.106000900268555,23.525999069213867 -21.106000900268555,23.525999069213867 C-21.106000900268555,23.525999069213867 -28.826000213623047,19.281999588012695 -28.826000213623047,19.281999588012695 C-28.826000213623047,19.281999588012695 -36.59400177001953,9.977999687194824 -36.59400177001953,9.977999687194824z"></path><path stroke-linecap="round" stroke-linejoin="round" fill-opacity="0" stroke="rgb(63,33,102)" stroke-opacity="1" stroke-width="4" d=" M-36.59400177001953,9.977999687194824 C-36.59400177001953,9.977999687194824 -25.764999389648438,1.2009999752044678 -5.331999778747559,-9.696000099182129 C14.875,-20.472999572753906 32.35300064086914,-23.525999069213867 34.444000244140625,-14.600000381469727 C36.59400177001953,-5.425000190734863 21.367000579833984,-4.791999816894531 7.572999954223633,2.8380000591278076 C-4.6479997634887695,9.597999572753906 -21.106000900268555,23.525999069213867 -21.106000900268555,23.525999069213867 C-21.106000900268555,23.525999069213867 -28.826000213623047,19.281999588012695 -28.826000213623047,19.281999588012695 C-28.826000213623047,19.281999588012695 -36.59400177001953,9.977999687194824 -36.59400177001953,9.977999687194824z"></path></g><g opacity="1" transform="matrix(1,0,0,1,109.56700134277344,67.63899993896484)"><path fill="rgb(63,33,102)" fill-opacity="1" d=" M-38.492000579833984,4.025000095367432 C-38.492000579833984,4.025000095367432 -33.481998443603516,1.7039999961853027 -22.18400001525879,-5.585000038146973 C-17.665000915527344,-8.50100040435791 0.9959999918937683,-17.760000228881836 9.020000457763672,-23.139999389648438 C18.143999099731445,-29.256999969482422 33.13600158691406,-35.347999572753906 35.042999267578125,-26.6299991607666 C36.45000076293945,-20.198999404907227 28.97800064086914,-13.394000053405762 15.354000091552734,-5.690999984741211 C10.16100025177002,-2.755000114440918 1.6449999809265137,1.9459999799728394 -5.033999919891357,4.919000148773193 C-19.884000778198242,11.529999732971191 -31.191999435424805,23.766000747680664 -33.77199935913086,22.889999389648438 C-36.35100173950195,22.013999938964844 -38.492000579833984,4.025000095367432 -38.492000579833984,4.025000095367432z"></path><path stroke-linecap="round" stroke-linejoin="round" fill-opacity="0" stroke="rgb(63,33,102)" stroke-opacity="1" stroke-width="4" d=" M-38.492000579833984,4.025000095367432 C-38.492000579833984,4.025000095367432 -33.481998443603516,1.7039999961853027 -22.18400001525879,-5.585000038146973 C-17.665000915527344,-8.50100040435791 0.9959999918937683,-17.760000228881836 9.020000457763672,-23.139999389648438 C18.143999099731445,-29.256999969482422 33.13600158691406,-35.347999572753906 35.042999267578125,-26.6299991607666 C36.45000076293945,-20.198999404907227 28.97800064086914,-13.394000053405762 15.354000091552734,-5.690999984741211 C10.16100025177002,-2.755000114440918 1.6449999809265137,1.9459999799728394 -5.033999919891357,4.919000148773193 C-19.884000778198242,11.529999732971191 -31.191999435424805,23.766000747680664 -33.77199935913086,22.889999389648438 C-36.35100173950195,22.013999938964844 -38.492000579833984,4.025000095367432 -38.492000579833984,4.025000095367432z"></path></g><g opacity="1" transform="matrix(1,0,0,1,112.0979995727539,91.322998046875)"><path fill="rgb(63,33,102)" fill-opacity="1" d=" M-30.922000885009766,-5.585000038146973 C-30.922000885009766,-5.585000038146973 -11.968999862670898,-7.317999839782715 -0.009999999776482582,-12.925000190734863 C14.16100025177002,-19.569000244140625 32.22100067138672,-28.944000244140625 30.45199966430664,-15.659000396728516 C29.48200035095215,-8.369000434875488 7.396999835968018,4.484000205993652 2.7990000247955322,6.290999889373779 C-1.7999999523162842,8.097000122070312 -33.645999908447266,18.117000579833984 -33.645999908447266,18.117000579833984 C-33.645999908447266,18.117000579833984 -30.922000885009766,-5.585000038146973 -30.922000885009766,-5.585000038146973z"></path><path stroke-linecap="round" stroke-linejoin="round" fill-opacity="0" stroke="rgb(63,33,102)" stroke-opacity="1" stroke-width="4" d=" M-30.922000885009766,-5.585000038146973 C-30.922000885009766,-5.585000038146973 -11.968999862670898,-7.317999839782715 -0.009999999776482582,-12.925000190734863 C14.16100025177002,-19.569000244140625 32.22100067138672,-28.944000244140625 30.45199966430664,-15.659000396728516 C29.48200035095215,-8.369000434875488 7.396999835968018,4.484000205993652 2.7990000247955322,6.290999889373779 C-1.7999999523162842,8.097000122070312 -33.645999908447266,18.117000579833984 -33.645999908447266,18.117000579833984 C-33.645999908447266,18.117000579833984 -30.922000885009766,-5.585000038146973 -30.922000885009766,-5.585000038146973z"></path></g></g><g style="display: block;" transform="matrix(1,0,0,1,342.3479919433594,100.67900085449219)" opacity="1"><g opacity="1" transform="matrix(1,0,0,1,72.97899627685547,91.50599670410156)"><path fill="rgb(41,27,58)" fill-opacity="1" d=" M-42.979000091552734,18.187999725341797 C-42.979000091552734,18.187999725341797 -7.834000110626221,18.187999725341797 5.256999969482422,-2.621000051498413 C13.682000160217285,-16.01300048828125 15.220999717712402,-54.25899887084961 18.844999313354492,-57.882999420166016 C22.468000411987305,-61.50600051879883 42.979000091552734,4.605999946594238 30.621999740600586,23.649999618530273 C6.059000015258789,61.50600051879883 -37.323001861572266,49.922000885009766 -37.323001861572266,49.922000885009766 C-37.323001861572266,49.922000885009766 -42.979000091552734,18.187999725341797 -42.979000091552734,18.187999725341797z"></path></g><g opacity="1" transform="matrix(1,0,0,1,72.97899627685547,91.50599670410156)"><path stroke-linecap="round" stroke-linejoin="round" fill-opacity="0" stroke="rgb(36,25,43)" stroke-opacity="1" stroke-width="12" d=" M-42.979000091552734,18.187999725341797 C-42.979000091552734,18.187999725341797 -7.834000110626221,18.187999725341797 5.256999969482422,-2.621000051498413 C13.682000160217285,-16.01300048828125 15.220999717712402,-54.25899887084961 18.844999313354492,-57.882999420166016 C22.468000411987305,-61.50600051879883 42.979000091552734,4.605999946594238 30.621999740600586,23.649999618530273 C6.059000015258789,61.50600051879883 -37.323001861572266,49.922000885009766 -37.323001861572266,49.922000885009766 C-37.323001861572266,49.922000885009766 -42.979000091552734,18.187999725341797 -42.979000091552734,18.187999725341797z"></path></g></g><g style="display: block;" transform="matrix(1,0,0,1,-42.623992919921875,41.53599548339844)" opacity="1"><g opacity="1" transform="matrix(1,0,0,1,248.20599365234375,236.0540008544922)"><path fill="url(#__lottie_element_12)" fill-opacity="1" d=" M-148.64300537109375,-112.18900299072266 C-119.04900360107422,-162.92100524902344 -52.6150016784668,-198.5540008544922 26.503000259399414,-190.7030029296875 C105.62000274658203,-182.8509979248047 152.5240020751953,-143.8260040283203 180.50999450683594,-85.61499786376953 C210.70700073242188,-22.804000854492188 195.60899353027344,56.3129997253418 121.322998046875,128.78700256347656 C49.81100082397461,198.55499267578125 -60.69200134277344,178.78599548339844 -116.02999877929688,134.2220001220703 C-184.2760009765625,79.26200103759766 -210.70599365234375,-5.796000003814697 -148.64300537109375,-112.18900299072266z"></path><path stroke-linecap="butt" stroke-linejoin="miter" fill-opacity="0" stroke-miterlimit="10" stroke="rgb(83,34,118)" stroke-opacity="1" stroke-width="15" d=" M-148.64300537109375,-112.18900299072266 C-119.04900360107422,-162.92100524902344 -52.6150016784668,-198.5540008544922 26.503000259399414,-190.7030029296875 C105.62000274658203,-182.8509979248047 152.5240020751953,-143.8260040283203 180.50999450683594,-85.61499786376953 C210.70700073242188,-22.804000854492188 195.60899353027344,56.3129997253418 121.322998046875,128.78700256347656 C49.81100082397461,198.55499267578125 -60.69200134277344,178.78599548339844 -116.02999877929688,134.2220001220703 C-184.2760009765625,79.26200103759766 -210.70599365234375,-5.796000003814697 -148.64300537109375,-112.18900299072266z"></path></g><g opacity="1" transform="matrix(1,0,0,1,293.71600341796875,246.1580047607422)"><path fill="url(#__lottie_element_13)" mask="url(#__lottie_element_15)" fill-opacity="1" d="M0 0 M-15.236000061035156,-17.656999588012695 C14.357999801635742,-68.38899993896484 34.619998931884766,-172.12899780273438 69.76499938964844,-159.8699951171875 C91.26200103759766,-152.37100219726562 129.31700134277344,-119.61799621582031 140.87100219726562,-56.07099914550781 C148.3769989013672,-14.788000106811523 138.9149932861328,41.61399841308594 75.48600006103516,107.39199829101562 C31.35099983215332,153.16200256347656 -62.63999938964844,178.4980010986328 -118.21800231933594,146.6230010986328 C-194.22799682617188,103.02899932861328 -77.29900360107422,88.73600006103516 -15.236000061035156,-17.656999588012695z"></path></g></g><g style="display: block;" transform="matrix(1.045549988746643,0,0,1.0088200569152832,28.756988525390625,-8.304351806640625)" opacity="1"><g opacity="1" transform="matrix(1,0,0,1,68.34400177001953,93.56600189208984)"><path fill="rgb(49,30,76)" fill-opacity="1" d=" M33.257999420166016,25.066999435424805 C33.257999420166016,25.066999435424805 9.322999954223633,21.35700035095215 2.0179998874664307,-3.993000030517578 C-4.1570000648498535,-25.424999237060547 16.472000122070312,-63.566001892089844 16.472000122070312,-63.566001892089844 C16.472000122070312,-63.566001892089844 -38.34400177001953,-44.62200164794922 -37.882999420166016,-0.1509999930858612 C-37.393001556396484,47.04399871826172 -7.789000034332275,62.11899948120117 -7.789000034332275,62.11899948120117 C-7.789000034332275,62.11899948120117 7.734000205993652,63.566001892089844 21.996999740600586,53.582000732421875 C38.34400177001953,42.13999938964844 38.34400177001953,27.610000610351562 38.34400177001953,27.610000610351562 C38.34400177001953,27.610000610351562 33.257999420166016,25.066999435424805 33.257999420166016,25.066999435424805z"></path></g><g opacity="1" transform="matrix(1,0,0,1,68.34400177001953,93.56600189208984)"><path stroke-linecap="round" stroke-linejoin="round" fill-opacity="0" stroke="rgb(43,24,58)" stroke-opacity="1" stroke-width="12" d=" M33.257999420166016,25.066999435424805 C33.257999420166016,25.066999435424805 9.322999954223633,21.35700035095215 2.0179998874664307,-3.993000030517578 C-4.1570000648498535,-25.424999237060547 16.472000122070312,-63.566001892089844 16.472000122070312,-63.566001892089844 C16.472000122070312,-63.566001892089844 -38.34400177001953,-44.62200164794922 -37.882999420166016,-0.1509999930858612 C-37.393001556396484,47.04399871826172 -7.789000034332275,62.11899948120117 -7.789000034332275,62.11899948120117 C-7.789000034332275,62.11899948120117 7.734000205993652,63.566001892089844 21.996999740600586,53.582000732421875 C38.34400177001953,42.13999938964844 38.34400177001953,27.610000610351562 38.34400177001953,27.610000610351562 C38.34400177001953,27.610000610351562 33.257999420166016,25.066999435424805 33.257999420166016,25.066999435424805z"></path></g><g opacity="1" transform="matrix(1,0,0,1,46.47999954223633,92.38800048828125)"><path stroke-linecap="round" stroke-linejoin="round" fill-opacity="0" stroke="rgb(93,53,135)" stroke-opacity="1" stroke-width="14" d=" M2.4519999027252197,-24.246999740600586 C2.4519999027252197,-24.246999740600586 -2.4519999027252197,-12.805000305175781 -2.4519999027252197,0.2720000147819519 C-2.4519999027252197,13.289999961853027 0.8769999742507935,22.715999603271484 1.3619999885559082,24.246999740600586"></path></g></g><g style="display: block;" transform="matrix(1,0,0,1,88.37399291992188,118.29399108886719)" opacity="1"><g opacity="1" transform="matrix(1,0,0,1,0,0)"><g opacity="1" transform="matrix(1,0,0,1,214.39599609375,85.45099639892578)"><path stroke-linecap="round" stroke-linejoin="round" fill-opacity="0" stroke="rgb(77,37,112)" stroke-opacity="1" stroke-width="10" d=" M-1.8839999437332153,-18.849000930786133 C-1.8839999437332153,-18.849000930786133 -3.1549999713897705,-10.46500015258789 -4.677999973297119,3.01200008392334 C-6.201000213623047,16.48900032043457 -7.2829999923706055,16.875999450683594 -2.5380001068115234,17.86199951171875 C2.2070000171661377,18.849000930786133 7.2829999923706055,18.375 7.2829999923706055,18.375"></path></g><g opacity="1" transform="matrix(1,0,0,1,104.19499969482422,149.10499572753906)"><path stroke-linecap="round" stroke-linejoin="round" fill-opacity="0" stroke="rgb(77,37,112)" stroke-opacity="1" stroke-width="15" d=" M-66.69499969482422,17.53700065612793 C-66.69499969482422,17.53700065612793 -46.82699966430664,40.43000030517578 -10.723999977111816,35.64899826049805 C57.70500183105469,26.58799934387207 66.69499969482422,-40.43000030517578 66.69499969482422,-40.43000030517578"></path></g><g opacity="1" transform="matrix(1,0,0,1,102.85399627685547,111.14900207519531)"><path fill="rgb(179,197,242)" fill-opacity="1" d=" M-56.04199981689453,-16.28700065612793 C-45.856998443603516,-47.922000885009766 -12.305999755859375,-60.73400115966797 16.834999084472656,-54.11899948120117 C60.45399856567383,-44.21799850463867 67.55000305175781,-6.497000217437744 60.1349983215332,13.598999977111816 C54.555999755859375,28.718000411987305 41.082000732421875,60.73400115966797 -6.119999885559082,56.93000030517578 C-67.5510025024414,51.97800064086914 -60.26300048828125,-3.177999973297119 -56.04199981689453,-16.28700065612793z"></path><path stroke-linecap="round" stroke-linejoin="round" fill-opacity="0" stroke="rgb(41,43,70)" stroke-opacity="1" stroke-width="9" d=" M-56.04199981689453,-16.28700065612793 C-45.856998443603516,-47.922000885009766 -12.305999755859375,-60.73400115966797 16.834999084472656,-54.11899948120117 C60.45399856567383,-44.21799850463867 67.55000305175781,-6.497000217437744 60.1349983215332,13.598999977111816 C54.555999755859375,28.718000411987305 41.082000732421875,60.73400115966797 -6.119999885559082,56.93000030517578 C-67.5510025024414,51.97800064086914 -60.26300048828125,-3.177999973297119 -56.04199981689453,-16.28700065612793z"></path></g><g opacity="1" transform="matrix(1,0,0,1,100.21900177001953,111.27200317382812)"><path fill="rgb(255,255,255)" fill-opacity="1" d=" M-46.52000045776367,-14.496999740600586 C-38.19200134277344,-42.45399856567383 -10.631999969482422,-53.73699951171875 13.329000473022461,-47.8489990234375 C49.194000244140625,-39.03499984741211 55.887001037597656,-8.71399974822998 49.819000244140625,9.045000076293945 C45.25400161743164,22.405000686645508 33.41400146484375,53.73699951171875 -5.388000011444092,50.30799865722656 C-55.887001037597656,45.84600067138672 -49.97100067138672,-2.9110000133514404 -46.52000045776367,-14.496999740600586z"></path></g><g opacity="1" transform="matrix(1,0,0,1,178.8209991455078,176.14700317382812)"><path stroke-linecap="round" stroke-linejoin="round" fill-opacity="0" stroke="rgb(77,37,112)" stroke-opacity="1" stroke-width="13" d=" M13.954999923706055,-48.130001068115234 C13.954999923706055,-48.130001068115234 -29.756000518798828,6.52400016784668 3.9660000801086426,36.68899917602539 C13.322999954223633,45.060001373291016 29.756000518798828,48.13100051879883 29.756000518798828,48.13100051879883"></path></g><g opacity="1" transform="matrix(1,0,0,1,239.35899353027344,166.052001953125)"><path fill="rgb(179,197,242)" fill-opacity="1" d=" M-53.69300079345703,-23.118000030517578 C-53.69300079345703,-23.118000030517578 -41.025001525878906,-60.124000549316406 13.564000129699707,-56.332000732421875 C68.15299987792969,-52.540000915527344 36.709999084472656,22.229999542236328 27.731000900268555,31.763999938964844 C18.75200080871582,41.29800033569336 -16.656999588012695,60.124000549316406 -42.404998779296875,30.801000595092773 C-68.15299987792969,1.4780000448226929 -53.69300079345703,-23.118000030517578 -53.69300079345703,-23.118000030517578z"></path><path stroke-linecap="round" stroke-linejoin="round" fill-opacity="0" stroke="rgb(41,44,70)" stroke-opacity="1" stroke-width="9.199" d=" M-53.69300079345703,-23.118000030517578 C-53.69300079345703,-23.118000030517578 -41.025001525878906,-60.124000549316406 13.564000129699707,-56.332000732421875 C68.15299987792969,-52.540000915527344 36.709999084472656,22.229999542236328 27.731000900268555,31.763999938964844 C18.75200080871582,41.29800033569336 -16.656999588012695,60.124000549316406 -42.404998779296875,30.801000595092773 C-68.15299987792969,1.4780000448226929 -53.69300079345703,-23.118000030517578 -53.69300079345703,-23.118000030517578z"></path></g><g opacity="1" transform="matrix(1,0,0,1,231.02999877929688,161.64100646972656)"><path fill="rgb(255,255,255)" fill-opacity="1" d=" M-39.07400131225586,-16.886999130249023 C-39.07400131225586,-16.886999130249023 -29.69099998474121,-42.569000244140625 10.588000297546387,-39.99100112915039 C50.867000579833984,-37.41299819946289 38.39099884033203,9.241000175476074 20.95599937438965,21.104000091552734 C13.206000328063965,26.378000259399414 -12.92300033569336,42.56999969482422 -31.895000457763672,22.2549991607666 C-50.86600112915039,1.940000057220459 -39.07400131225586,-16.886999130249023 -39.07400131225586,-16.886999130249023z"></path></g><g opacity="1" transform="matrix(1,0,0,1,186.0570068359375,74.3290023803711)"><path fill="rgb(141,87,188)" fill-opacity="1" d=" M5.46999979019165,-24.527999877929688 C5.46999979019165,-24.527999877929688 4.208000183105469,-7.333000183105469 0.8569999933242798,9.892000198364258 C-1.2979999780654907,20.966999053955078 -5.46999979019165,24.527999877929688 -5.46999979019165,24.527999877929688"></path></g><g opacity="1" transform="matrix(1,0,0,1,186.0570068359375,74.3290023803711)"><path stroke-linecap="round" stroke-linejoin="round" fill-opacity="0" stroke="rgb(77,37,112)" stroke-opacity="1" stroke-width="10" d=" M5.46999979019165,-24.527999877929688 C5.46999979019165,-24.527999877929688 4.208000183105469,-7.333000183105469 0.8569999933242798,9.892000198364258 C-1.2979999780654907,20.966999053955078 -5.46999979019165,24.527999877929688 -5.46999979019165,24.527999877929688"></path></g><g opacity="1" transform="matrix(1,0,0,1,10.009994506835938,3.730010986328125)"><g opacity="1" transform="matrix(1,0,0,1,210.7760009765625,154.7209930419922)"><path fill="rgb(19,9,28)" fill-opacity="1" d=" M20.709999084472656,-0.45100000500679016 C20.94300079345703,10.253999710083008 11.859999656677246,19.134000778198242 0.4230000078678131,19.382999420166016 C-11.015000343322754,19.631999969482422 -20.47599983215332,11.156000137329102 -20.708999633789062,0.45100000500679016 C-20.941999435424805,-10.253999710083008 -11.859999656677246,-19.134000778198242 -0.4230000078678131,-19.382999420166016 C11.015000343322754,-19.631999969482422 20.476999282836914,-11.156000137329102 20.709999084472656,-0.45100000500679016z"></path></g><g opacity="1" transform="matrix(1,0,0,1,219.1479949951172,159.656005859375)"><path fill="rgb(255,255,255)" fill-opacity="1" d=" M6.5929999351501465,2.1389999389648438 C5.9629998207092285,4.081999778747559 2.5,4.698999881744385 -1.1410000324249268,3.5179998874664307 C-4.7820000648498535,2.3359999656677246 -7.2230000495910645,-0.19599999487400055 -6.5929999351501465,-2.1389999389648438 C-5.961999893188477,-4.081999778747559 -2.5,-4.698999881744385 1.1419999599456787,-3.5179998874664307 C4.7829999923706055,-2.3369998931884766 7.2230000495910645,0.19599999487400055 6.5929999351501465,2.1389999389648438z"></path></g></g><g opacity="1" transform="matrix(1,0,0,1,0,0)"><g opacity="1" transform="matrix(1,0,0,1,87.1760025024414,112.10600280761719)"><path fill="rgb(19,9,28)" fill-opacity="1" d=" M23.666000366210938,-0.515999972820282 C23.934999465942383,11.822999954223633 13.557000160217285,22.055999755859375 0.4860000014305115,22.34000015258789 C-12.583999633789062,22.625 -23.398000717163086,12.852999687194824 -23.666000366210938,0.5149999856948853 C-23.934999465942383,-11.824000358581543 -13.557000160217285,-22.05699920654297 -0.4869999885559082,-22.341999053955078 C12.583999633789062,-22.625999450683594 23.39699935913086,-12.854999542236328 23.666000366210938,-0.515999972820282z"></path></g><g opacity="1" transform="matrix(1,0,0,1,97.96800231933594,117.11900329589844)"><path fill="rgb(255,255,255)" fill-opacity="1" d=" M6.633999824523926,2.1519999504089355 C5.985000133514404,4.1519999504089355 2.489000082015991,4.810999870300293 -1.1749999523162842,3.621999979019165 C-4.839000225067139,2.434000015258789 -7.2829999923706055,-0.15199999511241913 -6.633999824523926,-2.1530001163482666 C-5.985000133514404,-4.1529998779296875 -1.4889999628067017,-6.310999870300293 2.174999952316284,-5.122000217437744 C5.839000225067139,-3.934000015258789 7.2829999923706055,0.15199999511241913 6.633999824523926,2.1519999504089355z"></path></g></g><g opacity="1" transform="matrix(1,0,0,1,111.8219985961914,73.75599670410156)"><path fill="rgb(51,30,84)" fill-opacity="1" d=" M-63.70600128173828,15.10200023651123 C-63.70600128173828,15.10200023651123 -17.16699981689453,20.888999938964844 16.698999404907227,32.45899963378906 C48.5989990234375,43.367000579833984 53.16999816894531,51.94599914550781 53.16999816894531,51.94599914550781 C53.16999816894531,51.94599914550781 64.3740005493164,9.355999946594238 27.555999755859375,-14.392999649047852 C-29.530000686645508,-51.242000579833984 -63.70600128173828,15.10200023651123 -63.70600128173828,15.10200023651123z"></path><path stroke-linecap="round" stroke-linejoin="round" fill-opacity="0" stroke="rgb(36,25,43)" stroke-opacity="1" stroke-width="9" d=" M-63.70600128173828,15.10200023651123 C-63.70600128173828,15.10200023651123 -17.16699981689453,20.888999938964844 16.698999404907227,32.45899963378906 C48.5989990234375,43.367000579833984 53.16999816894531,51.94599914550781 53.16999816894531,51.94599914550781 C53.16999816894531,51.94599914550781 64.3740005493164,9.355999946594238 27.555999755859375,-14.392999649047852 C-29.530000686645508,-51.242000579833984 -63.70600128173828,15.10200023651123 -63.70600128173828,15.10200023651123z"></path></g><g opacity="1" transform="matrix(1,0,0,1,247.78500366210938,131.40899658203125)"><path fill="rgb(51,30,84)" fill-opacity="1" d=" M-57.79199981689453,0.017000000923871994 C-57.79199981689453,0.017000000923871994 -38.7239990234375,-39.974998474121094 10.99899959564209,-31.392000198364258 C60.72100067138672,-22.80900001525879 35.84199905395508,34.52899932861328 35.84199905395508,34.52899932861328 C35.84199905395508,34.52899932861328 -9.425000190734863,15.036999702453613 -25.268999099731445,8.737000465393066 C-41.11199951171875,2.437000036239624 -57.79199981689453,0.017000000923871994 -57.79199981689453,0.017000000923871994z"></path><path stroke-linecap="round" stroke-linejoin="round" fill-opacity="0" stroke="rgb(36,25,43)" stroke-opacity="1" stroke-width="9" d=" M-57.79199981689453,0.017000000923871994 C-57.79199981689453,0.017000000923871994 -38.7239990234375,-39.974998474121094 10.99899959564209,-31.392000198364258 C60.72100067138672,-22.80900001525879 35.84199905395508,34.52899932861328 35.84199905395508,34.52899932861328 C35.84199905395508,34.52899932861328 -9.425000190734863,15.036999702453613 -25.268999099731445,8.737000465393066 C-41.11199951171875,2.437000036239624 -57.79199981689453,0.017000000923871994 -57.79199981689453,0.017000000923871994z"></path></g><g opacity="1" transform="matrix(1,0,0,1,223.36099243164062,190.86300659179688)"><path fill="rgb(51,30,84)" fill-opacity="1" d=" M-42.66999816894531,-31.483999252319336 C-42.66999816894531,-31.483999252319336 -19.875,-27.69099998474121 11.82800006866455,-16.937999725341797 C43.53099822998047,-6.184999942779541 48.66699981689453,0.7799999713897705 48.66699981689453,0.7799999713897705 C48.66699981689453,0.7799999713897705 30.19300079345703,34.67900085449219 -11.319000244140625,20.134000778198242 C-52.83100128173828,5.590000152587891 -42.66999816894531,-31.483999252319336 -42.66999816894531,-31.483999252319336z"></path><path stroke-linecap="round" stroke-linejoin="round" fill-opacity="0" stroke="rgb(36,25,43)" stroke-opacity="1" stroke-width="9" d=" M-42.66999816894531,-31.483999252319336 C-42.66999816894531,-31.483999252319336 -19.875,-27.69099998474121 11.82800006866455,-16.937999725341797 C43.53099822998047,-6.184999942779541 48.66699981689453,0.7799999713897705 48.66699981689453,0.7799999713897705 C48.66699981689453,0.7799999713897705 30.19300079345703,34.67900085449219 -11.319000244140625,20.134000778198242 C-52.83100128173828,5.590000152587891 -42.66999816894531,-31.483999252319336 -42.66999816894531,-31.483999252319336z"></path></g><g opacity="1" transform="matrix(1,0,0,1,94.80699920654297,147.35800170898438)"><path fill="rgb(51,30,84)" fill-opacity="1" d=" M-54.525001525878906,-34.3489990234375 C-54.525001525878906,-34.3489990234375 -1.121999979019165,-20.594999313354492 21.113000869750977,-13.322999954223633 C43.347999572753906,-6.050000190734863 56.650001525878906,2.013000011444092 56.650001525878906,2.013000011444092 C56.650001525878906,2.013000011444092 23.940000534057617,34.3489990234375 -16.354999542236328,19.714000701904297 C-56.650001525878906,5.078000068664551 -54.525001525878906,-34.3489990234375 -54.525001525878906,-34.3489990234375z"></path><path stroke-linecap="round" stroke-linejoin="round" fill-opacity="0" stroke="rgb(36,25,43)" stroke-opacity="1" stroke-width="8.889" d=" M-54.525001525878906,-34.3489990234375 C-54.525001525878906,-34.3489990234375 -1.121999979019165,-20.594999313354492 21.113000869750977,-13.322999954223633 C43.347999572753906,-6.050000190734863 56.650001525878906,2.013000011444092 56.650001525878906,2.013000011444092 C56.650001525878906,2.013000011444092 23.940000534057617,34.3489990234375 -16.354999542236328,19.714000701904297 C-56.650001525878906,5.078000068664551 -54.525001525878906,-34.3489990234375 -54.525001525878906,-34.3489990234375z"></path></g></g></g><g style="display: block;" transform="matrix(1,0,0,1,144.39199829101562,105.45698547363281)" opacity="1"><g opacity="1" transform="matrix(1,0,0,1,75.43099975585938,74.85399627685547)"><path fill="rgb(21,15,35)" fill-opacity="1" d=" M-38.31399917602539,-52.15599822998047 C-38.31399917602539,-52.15599822998047 5.980999946594238,-22.399999618530273 25.179000854492188,-3.4779999256134033 C44.37799835205078,15.442999839782715 54.07899856567383,35.33399963378906 54.07899856567383,35.33399963378906 C54.07899856567383,35.33399963378906 48.7239990234375,44.15399932861328 46.03099822998047,45.874000549316406 C43.33700180053711,47.59299850463867 42.05799865722656,53.50199890136719 39.73099899291992,51.9010009765625 C37.40299987792969,50.29999923706055 -28.768999099731445,-19.51099967956543 -38.07899856567383,-25.915000915527344 C-47.388999938964844,-32.319000244140625 -54.07899856567383,-39.77899932861328 -53.85900115966797,-41.770999908447266 C-53.638999938964844,-43.76300048828125 -45.99700164794922,-44.9370002746582 -45.99700164794922,-44.9370002746582 C-45.99700164794922,-44.9370002746582 -44.426998138427734,-53.50199890136719 -44.426998138427734,-53.50199890136719 C-44.426998138427734,-53.50199890136719 -38.31399917602539,-52.15599822998047 -38.31399917602539,-52.15599822998047z"></path><path stroke-linecap="round" stroke-linejoin="round" fill-opacity="0" stroke="rgb(9,6,12)" stroke-opacity="1" stroke-width="8.541" d=" M-38.31399917602539,-52.15599822998047 C-38.31399917602539,-52.15599822998047 5.980999946594238,-22.399999618530273 25.179000854492188,-3.4779999256134033 C44.37799835205078,15.442999839782715 54.07899856567383,35.33399963378906 54.07899856567383,35.33399963378906 C54.07899856567383,35.33399963378906 48.7239990234375,44.15399932861328 46.03099822998047,45.874000549316406 C43.33700180053711,47.59299850463867 42.05799865722656,53.50199890136719 39.73099899291992,51.9010009765625 C37.40299987792969,50.29999923706055 -28.768999099731445,-19.51099967956543 -38.07899856567383,-25.915000915527344 C-47.388999938964844,-32.319000244140625 -54.07899856567383,-39.77899932861328 -53.85900115966797,-41.770999908447266 C-53.638999938964844,-43.76300048828125 -45.99700164794922,-44.9370002746582 -45.99700164794922,-44.9370002746582 C-45.99700164794922,-44.9370002746582 -44.426998138427734,-53.50199890136719 -44.426998138427734,-53.50199890136719 C-44.426998138427734,-53.50199890136719 -38.31399917602539,-52.15599822998047 -38.31399917602539,-52.15599822998047z"></path></g><g opacity="1" transform="matrix(1,0,0,1,215.68499755859375,117.27300262451172)"><path fill="rgb(11,8,17)" fill-opacity="1" d=" M-61.948001861572266,1.843000054359436 C-61.948001861572266,1.843000054359436 -0.47600001096725464,-12.843999862670898 28.059999465942383,-16.95199966430664 C56.59600067138672,-21.059999465942383 62.11000061035156,-19.12700080871582 62.604000091552734,-16.761999130249023 C63.097999572753906,-14.397000312805176 60.801998138427734,5.209000110626221 60.801998138427734,5.209000110626221 C60.801998138427734,5.209000110626221 65.60199737548828,19.013999938964844 60.702999114990234,20.03700065612793 C55.80500030517578,21.059999465942383 18.149999618530273,12.513999938964844 -13.822999954223633,12.402999877929688 C-45.79600143432617,12.293000221252441 -65.60299682617188,14.946000099182129 -65.60299682617188,14.946000099182129 C-65.60299682617188,14.946000099182129 -61.948001861572266,1.843000054359436 -61.948001861572266,1.843000054359436z"></path><path stroke-linecap="round" stroke-linejoin="round" fill-opacity="0" stroke="rgb(9,6,12)" stroke-opacity="1" stroke-width="8.141" d=" M-61.948001861572266,1.843000054359436 C-61.948001861572266,1.843000054359436 -0.47600001096725464,-12.843999862670898 28.059999465942383,-16.95199966430664 C56.59600067138672,-21.059999465942383 62.11000061035156,-19.12700080871582 62.604000091552734,-16.761999130249023 C63.097999572753906,-14.397000312805176 60.801998138427734,5.209000110626221 60.801998138427734,5.209000110626221 C60.801998138427734,5.209000110626221 65.60199737548828,19.013999938964844 60.702999114990234,20.03700065612793 C55.80500030517578,21.059999465942383 18.149999618530273,12.513999938964844 -13.822999954223633,12.402999877929688 C-45.79600143432617,12.293000221252441 -65.60299682617188,14.946000099182129 -65.60299682617188,14.946000099182129 C-65.60299682617188,14.946000099182129 -61.948001861572266,1.843000054359436 -61.948001861572266,1.843000054359436z"></path></g></g><g style="display: block;" transform="matrix(1,0,0,1,79.13699340820312,219.89999389648438)" opacity="1"><g opacity="1" transform="matrix(1,0,0,1,0,0)"><g opacity="1" transform="matrix(1,0,0,1,65.0530014038086,69.302001953125)"><path fill="rgb(152,84,211)" fill-opacity="1" d=" M-36.67399978637695,8.182000160217285 C-36.67399978637695,8.182000160217285 -43.21200180053711,-37.39799880981445 -19.23900032043457,-39.62200164794922 C-10.218999862670898,-40.45800018310547 1.2330000400543213,-26.57900047302246 4.875,-9.812999725341797 C6.515999794006348,-2.257999897003174 14.015999794006348,-1.3240000009536743 25.152000427246094,4.974999904632568 C26.83300018310547,5.926000118255615 14.541000366210938,4.6620001792907715 15.994000434875488,14.295999526977539 C17.56100082397461,24.683000564575195 33.611000061035156,21.89299964904785 35.60900115966797,21.70800018310547 C43.57500076293945,20.9689998626709 16.426000595092773,34.051998138427734 16.889999389648438,34.808998107910156 C18.70599937438965,37.77299880981445 -5.435999870300293,32.63999938964844 -5.435999870300293,32.63999938964844 C-5.435999870300293,32.63999938964844 -19.885000228881836,28.277999877929688 -29.902000427246094,20.434999465942383 C-36.946998596191406,14.918999671936035 -36.67399978637695,8.182000160217285 -36.67399978637695,8.182000160217285z"></path></g><g opacity="1" transform="matrix(1,0,0,1,132.83299255371094,133.07000732421875)"><path fill="rgb(63,27,63)" fill-opacity="1" d=" M-83.11299896240234,-76.41899871826172 C-83.11299896240234,-76.41899871826172 -95.33399963378906,42.89699935913086 -29.04199981689453,63.297000885009766 C13.60099983215332,76.41899871826172 95.33399963378906,8.854000091552734 95.33399963378906,8.854000091552734 C95.33399963378906,8.854000091552734 37.03200149536133,18.388999938964844 -2.1989998817443848,6.130000114440918 C-48.38399887084961,-8.303000450134277 -83.11299896240234,-76.41899871826172 -83.11299896240234,-76.41899871826172z"></path><path stroke-linecap="round" stroke-linejoin="round" fill-opacity="0" stroke="rgb(44,17,68)" stroke-opacity="1" stroke-width="15" d=" M-83.11299896240234,-76.41899871826172 C-83.11299896240234,-76.41899871826172 -95.33399963378906,42.89699935913086 -29.04199981689453,63.297000885009766 C13.60099983215332,76.41899871826172 95.33399963378906,8.854000091552734 95.33399963378906,8.854000091552734 C95.33399963378906,8.854000091552734 37.03200149536133,18.388999938964844 -2.1989998817443848,6.130000114440918 C-48.38399887084961,-8.303000450134277 -83.11299896240234,-76.41899871826172 -83.11299896240234,-76.41899871826172z"></path></g><g opacity="1" transform="matrix(1,0,0,1,49.448001861572266,48.93199920654297)"><path stroke-linecap="round" stroke-linejoin="round" fill-opacity="0" stroke="rgb(77,37,112)" stroke-opacity="1" stroke-width="11" d=" M-21.43199920654297,21.43199920654297 C-21.43199920654297,21.43199920654297 -20.117000579833984,-17.604000091552734 -3.632999897003174,-19.25200080871582 C18.16200065612793,-21.43199920654297 21.43199920654297,6.9019999504089355 21.43199920654297,6.9019999504089355"></path></g><g opacity="1" transform="matrix(1,0,0,1,243.03900146484375,134.32200622558594)"><path stroke-linecap="round" stroke-linejoin="round" fill-opacity="0" stroke="rgb(77,37,112)" stroke-opacity="1" stroke-width="11" d=" M-23.045000076293945,-10.196999549865723 C-23.045000076293945,-10.196999549865723 1.6549999713897705,-22.18400001525879 10.373000144958496,-12.739999771118164 C23.045000076293945,0.9879999756813049 0.26499998569488525,22.18400001525879 0.26499998569488525,22.18400001525879"></path></g><g opacity="1" transform="matrix(1,0,0,1,102.2750015258789,176.95700073242188)"><path fill="rgb(165,23,81)" fill-opacity="1" d=" M-45.40700149536133,-34.14500045776367 C-45.40700149536133,-34.14500045776367 -10.17199993133545,-27.243000030517578 -4.360000133514404,-19.25200080871582 C1.4520000219345093,-11.260000228881836 3.994999885559082,-4.7220001220703125 3.994999885559082,-4.7220001220703125 C3.994999885559082,-4.7220001220703125 15.802000045776367,-8.354000091552734 25.336999893188477,-4.177000045776367 C34.87200164794922,0.0010000000474974513 45.40700149536133,14.894000053405762 45.40700149536133,14.894000053405762 C45.40700149536133,14.894000053405762 25.70800018310547,27.67799949645996 -5.5320000648498535,14.23799991607666 C-36.770999908447266,0.7979999780654907 -45.40700149536133,-34.14500045776367 -45.40700149536133,-34.14500045776367z"></path><path stroke-linecap="round" stroke-linejoin="round" fill-opacity="0" stroke="rgb(124,17,53)" stroke-opacity="1" stroke-width="8" d=" M-45.40700149536133,-34.14500045776367 C-45.40700149536133,-34.14500045776367 -10.17199993133545,-27.243000030517578 -4.360000133514404,-19.25200080871582 C1.4520000219345093,-11.260000228881836 3.994999885559082,-4.7220001220703125 3.994999885559082,-4.7220001220703125 C3.994999885559082,-4.7220001220703125 15.802000045776367,-8.354000091552734 25.336999893188477,-4.177000045776367 C34.87200164794922,0.0010000000474974513 45.40700149536133,14.894000053405762 45.40700149536133,14.894000053405762 C45.40700149536133,14.894000053405762 25.70800018310547,27.67799949645996 -5.5320000648498535,14.23799991607666 C-36.770999908447266,0.7979999780654907 -45.40700149536133,-34.14500045776367 -45.40700149536133,-34.14500045776367z"></path></g><g opacity="1" transform="matrix(1,0,0,1,100.65299987792969,137.61099243164062)"><path fill="rgb(228,244,249)" fill-opacity="1" d=" M-7.7210001945495605,-16.02899932861328 C-7.7210001945495605,-16.02899932861328 -20.354999542236328,-2.3440001010894775 -14.739999771118164,4.499000072479248 C-9.125,11.342000007629395 -2.1659998893737793,16.02899932861328 4.644000053405762,16.02899932861328 C13.25100040435791,16.02899932861328 20.354999542236328,0.6980000138282776 20.354999542236328,0.6980000138282776 C20.354999542236328,0.6980000138282776 -7.7210001945495605,-16.02899932861328 -7.7210001945495605,-16.02899932861328z"></path><path stroke-linecap="round" stroke-linejoin="round" fill-opacity="0" stroke="rgb(69,141,173)" stroke-opacity="1" stroke-width="7.12" d=" M-7.7210001945495605,-16.02899932861328 C-7.7210001945495605,-16.02899932861328 -20.354999542236328,-2.3440001010894775 -14.739999771118164,4.499000072479248 C-9.125,11.342000007629395 -2.1659998893737793,16.02899932861328 4.644000053405762,16.02899932861328 C13.25100040435791,16.02899932861328 20.354999542236328,0.6980000138282776 20.354999542236328,0.6980000138282776 C20.354999542236328,0.6980000138282776 -7.7210001945495605,-16.02899932861328 -7.7210001945495605,-16.02899932861328z"></path></g><g opacity="1" transform="matrix(1,0,0,1,142.2030029296875,153.72999572753906)"><path fill="rgb(228,244,249)" fill-opacity="1" d=" M-12.364999771118164,-12.677000045776367 C-12.364999771118164,-12.677000045776367 -19.110000610351562,7.849999904632568 -13.769000053405762,9.586999893188477 C-5.51800012588501,12.270000457763672 5.381999969482422,12.677000045776367 10.010000228881836,9.496000289916992 C14.63700008392334,6.315000057220459 19.110000610351562,-9.041999816894531 19.110000610351562,-9.041999816894531 C19.110000610351562,-9.041999816894531 -12.364999771118164,-12.677000045776367 -12.364999771118164,-12.677000045776367z"></path><path stroke-linecap="round" stroke-linejoin="round" fill-opacity="0" stroke="rgb(69,141,173)" stroke-opacity="1" stroke-width="7" d=" M-12.364999771118164,-12.677000045776367 C-12.364999771118164,-12.677000045776367 -19.110000610351562,7.849999904632568 -13.769000053405762,9.586999893188477 C-5.51800012588501,12.270000457763672 5.381999969482422,12.677000045776367 10.010000228881836,9.496000289916992 C14.63700008392334,6.315000057220459 19.110000610351562,-9.041999816894531 19.110000610351562,-9.041999816894531 C19.110000610351562,-9.041999816894531 -12.364999771118164,-12.677000045776367 -12.364999771118164,-12.677000045776367z"></path></g><g opacity="1" transform="matrix(1,0,0,1,0,0)"><g opacity="1" transform="matrix(1,0,0,1,106.61399841308594,195.13999938964844)"><path fill="rgb(138,70,197)" fill-opacity="1" d=" M-68.29299926757812,-27.363000869750977 C-63.32899856567383,-1.8259999752044678 -64.79499816894531,6.35699987411499 -32.82899856567383,26.698999404907227 C-0.8629999756813049,47.04100036621094 61.874000549316406,14.454000473022461 61.874000549316406,14.454000473022461 C61.874000549316406,14.454000473022461 64.15699768066406,9.020000457763672 64.15699768066406,9.020000457763672 C68.75900268554688,-1.3300000429153442 54.59299850463867,-5.050000190734863 48.89699935913086,-1.9299999475479126 C36.189998626708984,5.031000137329102 20.31800079345703,12.918999671936035 -6.14900016784668,5.494999885559082 C-44.05799865722656,-5.138000011444092 -52.608001708984375,-41.448001861572266 -52.608001708984375,-41.448001861572266 C-52.608001708984375,-41.448001861572266 -72.77400207519531,-50.41400146484375 -68.29299926757812,-27.363000869750977z"></path></g><g opacity="1" transform="matrix(1,0,0,1,106.61399841308594,210.40899658203125)"><path stroke-linecap="round" stroke-linejoin="round" fill-opacity="0" stroke="rgb(77,37,112)" stroke-opacity="1" stroke-width="15" d=" M-64.97699737548828,-31.886999130249023 C-64.97699737548828,-31.886999130249023 -66.61199951171875,4.892000198364258 -30.649999618530273,17.152000427246094 C12.572999954223633,31.886999130249023 66.61199951171875,-3.2809998989105225 66.61199951171875,-3.2809998989105225"></path></g></g><g opacity="1" transform="matrix(1,0,0,1,132.83299255371094,133.07000732421875)"><path stroke-linecap="round" stroke-linejoin="round" fill-opacity="0" stroke="rgb(44,17,68)" stroke-opacity="1" stroke-width="15" d=" M-83.11299896240234,-76.41899871826172 C-83.11299896240234,-76.41899871826172 -95.33399963378906,42.89699935913086 -29.04199981689453,63.297000885009766 C13.60099983215332,76.41899871826172 95.33399963378906,8.854000091552734 95.33399963378906,8.854000091552734 C95.33399963378906,8.854000091552734 37.03200149536133,18.388999938964844 -2.1989998817443848,6.130000114440918 C-48.38399887084961,-8.303000450134277 -83.11299896240234,-76.41899871826172 -83.11299896240234,-76.41899871826172z"></path></g></g></g><g style="display: block;" transform="matrix(1,0,0,1,307.8110046386719,333.3289794921875)" opacity="1"><g opacity="1" transform="matrix(1,0,0,1,64.27300262451172,104.05000305175781)"><path fill="rgb(110,45,165)" fill-opacity="1" d=" M-27.243000030517578,-15.892000198364258 C-27.243000030517578,-15.892000198364258 7.706999778747559,-41.80099868774414 20.23900032043457,-35.262001037597656 C32.770999908447266,-28.724000930786133 42.31999969482422,-5.176000118255615 42.86399841308594,-0.2720000147819519 C43.409000396728516,4.631999969482422 25.42799949645996,22.249000549316406 13.440999984741211,29.33300018310547 C1.4539999961853027,36.41600036621094 -14.529999732971191,38.777000427246094 -25.42799949645996,30.604000091552734 C-36.32500076293945,22.430999755859375 -43.409000396728516,9.89900016784668 -39.23099899291992,-3.177999973297119 C-36.55799865722656,-11.54699993133545 -27.243000030517578,-15.892000198364258 -27.243000030517578,-15.892000198364258z"></path></g><g opacity="1" transform="matrix(1,0,0,1,88.06700134277344,49.74399948120117)"><path fill="rgb(110,45,165)" fill-opacity="1" d=" M-31.60300064086914,27.243999481201172 C-31.60300064086914,27.243999481201172 -22.34000015258789,16.891000747680664 -8.718000411987305,2.180000066757202 C4.9039998054504395,-12.531999588012695 19.06999969482422,-27.243999481201172 25.336999893188477,-20.15999984741211 C31.60300064086914,-13.07699966430664 25.608999252319336,-7.627999782562256 21.795000076293945,-3.2690000534057617 C17.981000900268555,1.090000033378601 7.916999816894531,12.210000038146973 4.085999965667725,16.891000747680664 C1.6339999437332153,19.88800048828125 -2.7249999046325684,26.698999404907227 -2.7249999046325684,26.698999404907227"></path><path stroke-linecap="round" stroke-linejoin="round" fill-opacity="0" stroke="rgb(61,27,104)" stroke-opacity="1" stroke-width="9" d=" M-31.60300064086914,27.243999481201172 C-31.60300064086914,27.243999481201172 -22.34000015258789,16.891000747680664 -8.718000411987305,2.180000066757202 C4.9039998054504395,-12.531999588012695 19.06999969482422,-27.243999481201172 25.336999893188477,-20.15999984741211 C31.60300064086914,-13.07699966430664 25.608999252319336,-7.627999782562256 21.795000076293945,-3.2690000534057617 C17.981000900268555,1.090000033378601 7.916999816894531,12.210000038146973 4.085999965667725,16.891000747680664 C1.6339999437332153,19.88800048828125 -2.7249999046325684,26.698999404907227 -2.7249999046325684,26.698999404907227"></path></g><g opacity="1" transform="matrix(1,0,0,1,117.6259994506836,64.18299865722656)"><path fill="rgb(110,45,165)" fill-opacity="1" d=" M-32.01100158691406,13.350000381469727 C-32.01100158691406,13.350000381469727 -20.840999603271484,-0.5440000295639038 -5.585000038146973,-10.897000312805176 C9.67199993133545,-21.25 15.425999641418457,-25.16699981689453 23.29400062561035,-25.881999969482422 C29.288000106811523,-26.427000045776367 32.01100158691406,-19.88800048828125 28.4689998626709,-13.895000457763672 C25.503000259399414,-8.875 13.21399974822998,-2.7239999771118164 1.2259999513626099,8.718999862670898 C-10.76099967956543,20.160999298095703 -13.486000061035156,26.427000045776367 -13.486000061035156,26.427000045776367"></path><path stroke-linecap="round" stroke-linejoin="round" fill-opacity="0" stroke="rgb(61,27,104)" stroke-opacity="1" stroke-width="11" d=" M-32.01100158691406,13.350000381469727 C-32.01100158691406,13.350000381469727 -20.840999603271484,-0.5440000295639038 -5.585000038146973,-10.897000312805176 C9.67199993133545,-21.25 15.425999641418457,-25.16699981689453 23.29400062561035,-25.881999969482422 C29.288000106811523,-26.427000045776367 32.01100158691406,-19.88800048828125 28.4689998626709,-13.895000457763672 C25.503000259399414,-8.875 13.21399974822998,-2.7239999771118164 1.2259999513626099,8.718999862670898 C-10.76099967956543,20.160999298095703 -13.486000061035156,26.427000045776367 -13.486000061035156,26.427000045776367"></path></g><g opacity="1" transform="matrix(1,0,0,1,115.42900085449219,103.93199920654297)"><path fill="rgb(110,45,165)" fill-opacity="1" d=" M-31.106000900268555,0.8989999890327454 C-31.106000900268555,0.8989999890327454 -8.152000427246094,-14.060999870300293 2.2219998836517334,-22.236000061035156 C12.032999992370605,-29.968000411987305 28.15999984741211,-46.64500045776367 29.858999252319336,-34.52799987792969 C30.8799991607666,-27.243999481201172 7.544000148773193,-3.055000066757202 3.190999984741211,-0.718999981880188 C-1.1629999876022339,1.6169999837875366 -29.158000946044922,22.131000518798828 -29.158000946044922,22.131000518798828 C-29.158000946044922,22.131000518798828 -31.106000900268555,0.8989999890327454 -31.106000900268555,0.8989999890327454z"></path></g><g opacity="1" transform="matrix(1,0,0,1,43.02299880981445,80.3479995727539)"><path fill="rgb(110,45,165)" fill-opacity="1" d=" M11.29699993133545,-1.6649999618530273 C11.29699993133545,-1.6649999618530273 20.523000717163086,-20.886999130249023 20.15999984741211,-31.78499984741211 C19.79599952697754,-42.68199920654297 9.625,-45.224998474121094 7.083000183105469,-42.68199920654297 C4.539999961853027,-40.138999938964844 4.539999961853027,-25.246000289916992 -0.5460000038146973,-18.70800018310547 C-5.63100004196167,-12.168999671936035 -13.258999824523926,1.6349999904632568 -16.892000198364258,13.258999824523926 C-20.52400016784668,24.882999420166016 -19.426000595092773,36.305999755859375 -15.79800033569336,40.76499938964844 C-15.79800033569336,40.76499938964844 -12.168999671936035,45.224998474121094 -12.168999671936035,45.224998474121094"></path><path stroke-linecap="round" stroke-linejoin="round" fill-opacity="0" stroke="rgb(61,27,104)" stroke-opacity="1" stroke-width="11" d=" M11.29699993133545,-1.6649999618530273 C11.29699993133545,-1.6649999618530273 20.523000717163086,-20.886999130249023 20.15999984741211,-31.78499984741211 C19.79599952697754,-42.68199920654297 9.625,-45.224998474121094 7.083000183105469,-42.68199920654297 C4.539999961853027,-40.138999938964844 4.539999961853027,-25.246000289916992 -0.5460000038146973,-18.70800018310547 C-5.63100004196167,-12.168999671936035 -13.258999824523926,1.6349999904632568 -16.892000198364258,13.258999824523926 C-20.52400016784668,24.882999420166016 -19.426000595092773,36.305999755859375 -15.79800033569336,40.76499938964844 C-15.79800033569336,40.76499938964844 -12.168999671936035,45.224998474121094 -12.168999671936035,45.224998474121094"></path></g><g opacity="1" transform="matrix(1,0,0,1,92.46399688720703,113.76699829101562)"><path stroke-linecap="round" stroke-linejoin="round" fill-opacity="0" stroke="rgb(61,27,104)" stroke-opacity="1" stroke-width="11" d=" M11.404000282287598,-20.160999298095703 C11.404000282287598,-20.160999298095703 23.339000701904297,-34.270999908447266 30.87700080871582,-38.65800094604492 C40.19200134277344,-44.08000183105469 47.555999755859375,-51.358001708984375 50.82500076293945,-46.67900085449219 C53.7400016784668,-42.50699996948242 52.5880012512207,-35.516998291015625 40.70500183105469,-25.47100067138672 C33.59400177001953,-19.458999633789062 19.357999801635742,-6.757999897003174 11.729999542236328,-0.7639999985694885 C4.10099983215332,5.230000019073486 -4.941999912261963,10.897000312805176 -9.574000358581543,15.800999641418457 C-14.204999923706055,20.704999923706055 -23.195999145507812,28.33300018310547 -32.45899963378906,28.878000259399414 C-41.72100067138672,29.42300033569336 -54.25400161743164,21.52199935913086 -55.34299850463867,19.886999130249023 C-56.43299865722656,18.253000259399414 -59.15700149536133,14.439000129699707 -59.15700149536133,14.439000129699707"></path></g></g></g></svg>