<svg xmlns="http://www.w3.org/2000/svg" xmlns:xlink="http://www.w3.org/1999/xlink" viewBox="0 0 512 512" width="512" height="512" style="width: 100%; height: 100%; transform: translate3d(0,0,0); content-visibility: visible;" preserveAspectRatio="xMidYMid meet"><defs><clipPath id="__lottie_element_2"><rect width="512" height="512" x="0" y="0"></rect></clipPath><clipPath id="__lottie_element_6"><path d="M0,0 L512,0 L512,512 L0,512z"></path></clipPath><radialGradient id="__lottie_element_35" spreadMethod="pad" gradientUnits="userSpaceOnUse" cx="-129.72900390625" cy="-199.86300659179688" r="479.54640520164617" fx="-56.41191960137199" fy="-177.75164149679244"><stop offset="0%" stop-color="rgb(253,237,220)"></stop><stop offset="34%" stop-color="rgb(249,213,185)"></stop><stop offset="67%" stop-color="rgb(244,189,151)"></stop></radialGradient><g id="__lottie_element_4"><g style="display: block;" transform="matrix(0.9079499840736389,0,0,0.9900000095367432,247,273)" opacity="1"><g opacity="1" transform="matrix(1,0,0,1,0,0)"><path fill="rgb(234,146,110)" fill-opacity="1" d=" M-110,-234 C-199,-211 -229,-114 -226,-70 C-223,-26 -225.30499267578125,12.777999877929688 -242,27 C-296,73 -215,160 -215,160 C-215,160 -156.8470001220703,230.31199645996094 -79,224 C-5,218 35.31999969482422,216.78599548339844 93,210 C161,202 226,109 241,79 C256,49 263,-47 225,-93 C187,-139 120,-141 92,-163 C64,-185 -21,-257 -110,-234z"></path></g></g></g><mask id="__lottie_element_4_1" mask-type="alpha"><use href="#__lottie_element_4"></use></mask></defs><g clip-path="url(#__lottie_element_2)"><g style="display: block;" mask="url(#__lottie_element_4_1)"><g clip-path="url(#__lottie_element_6)" transform="matrix(0.9079499840736389,0,0,0.9900000095367432,14.564804077148438,19.55999755859375)" opacity="1"><g style="display: block;" transform="matrix(0.9700000286102295,0,0,0.9700000286102295,-2.639862060546875,16.145721435546875)" opacity="1"><g opacity="1" transform="matrix(1,0,0,1,276.2720031738281,225.5240020751953)"><path fill="rgb(228,148,111)" fill-opacity="1" d=" M-223.04299926757812,-25.479999542236328 C-223.04299926757812,-25.479999542236328 -222.11599731445312,-4.170000076293945 -229.5290069580078,9.727999687194824 C-236.9409942626953,23.625999450683594 -249.49000549316406,64.80899810791016 -234.16200256347656,82.92400360107422 C-213.7779998779297,107.01399993896484 -150.7449951171875,195.6230010986328 -48.82600021362305,201.1820068359375 C-8.824000358581543,203.36399841308594 10.324000358581543,194.83299255371094 41.83399963378906,192.41299438476562 C90.60700225830078,188.66700744628906 128.2689971923828,191.99899291992188 151.91000366210938,170.0469970703125 C190.82400512695312,133.91299438476562 234.6649932861328,72.73300170898438 242.07699584960938,45.862998962402344 C249.49000549316406,18.993999481201172 246.7100067138672,-6.948999881744385 227.2530059814453,-33.819000244140625 C207.79600524902344,-60.6879997253418 189.26499938964844,-98.6760025024414 157.76300048828125,-104.23500061035156 C126.26100158691406,-109.79499816894531 94.75900268554688,-110.72100067138672 82.71399688720703,-118.13400268554688 C70.66899871826172,-125.5459976196289 50.28499984741211,-156.1219940185547 38.2400016784668,-169.09300231933594 C26.19499969482422,-182.06399536132812 -6.234000205993652,-198.74200439453125 -49.78099822998047,-195.03599548339844 C-93.3280029296875,-191.3300018310547 -143.36099243164062,-175.57899475097656 -183.20199584960938,-147.7830047607422 C-223.04299926757812,-119.98699951171875 -221.19000244140625,-77.36599731445312 -222.11599731445312,-61.6150016784668 C-223.04299926757812,-45.86399841308594 -223.04299926757812,-25.479999542236328 -223.04299926757812,-25.479999542236328z"></path><path stroke-linecap="butt" stroke-linejoin="miter" fill-opacity="0" stroke-miterlimit="10" stroke="rgb(182,94,49)" stroke-opacity="1" stroke-width="12" d=" M-223.04299926757812,-25.479999542236328 C-223.04299926757812,-25.479999542236328 -222.11599731445312,-4.170000076293945 -229.5290069580078,9.727999687194824 C-236.9409942626953,23.625999450683594 -249.49000549316406,64.80899810791016 -234.16200256347656,82.92400360107422 C-213.7779998779297,107.01399993896484 -150.7449951171875,195.6230010986328 -48.82600021362305,201.1820068359375 C-8.824000358581543,203.36399841308594 10.324000358581543,194.83299255371094 41.83399963378906,192.41299438476562 C90.60700225830078,188.66700744628906 128.2689971923828,191.99899291992188 151.91000366210938,170.0469970703125 C190.82400512695312,133.91299438476562 234.6649932861328,72.73300170898438 242.07699584960938,45.862998962402344 C249.49000549316406,18.993999481201172 246.7100067138672,-6.948999881744385 227.2530059814453,-33.819000244140625 C207.79600524902344,-60.6879997253418 189.26499938964844,-98.6760025024414 157.76300048828125,-104.23500061035156 C126.26100158691406,-109.79499816894531 94.75900268554688,-110.72100067138672 82.71399688720703,-118.13400268554688 C70.66899871826172,-125.5459976196289 50.28499984741211,-156.1219940185547 38.2400016784668,-169.09300231933594 C26.19499969482422,-182.06399536132812 -6.234000205993652,-198.74200439453125 -49.78099822998047,-195.03599548339844 C-93.3280029296875,-191.3300018310547 -143.36099243164062,-175.57899475097656 -183.20199584960938,-147.7830047607422 C-223.04299926757812,-119.98699951171875 -221.19000244140625,-77.36599731445312 -222.11599731445312,-61.6150016784668 C-223.04299926757812,-45.86399841308594 -223.04299926757812,-25.479999542236328 -223.04299926757812,-25.479999542236328z"></path></g><g opacity="1" transform="matrix(1,0,0,1,284.2229919433594,209.71499633789062)"><path fill="url(#__lottie_element_35)" fill-opacity="1" d=" M-201.4040069580078,-16.8439998626709 C-201.4040069580078,-16.8439998626709 -200.57200622558594,1.4950000047683716 -207.22900390625,13.454000473022461 C-213.88600158691406,25.413999557495117 -225.1580047607422,60.854000091552734 -211.39100646972656,76.44400024414062 C-193.08399963378906,97.17400360107422 -148.1479949951172,166.54100036621094 -56.61199951171875,171.32400512695312 C34.92399978637695,176.10899353027344 103.99099731445312,171.32400512695312 138.94200134277344,140.22999572753906 C173.89199829101562,109.13400268554688 209.6739959716797,67.6729965209961 216.33099365234375,44.54999923706055 C222.98899841308594,21.42799949645996 225.1580047607422,-0.8069999814033508 207.6840057373047,-23.929000854492188 C190.20799255371094,-47.051998138427734 176.37899780273438,-77.53700256347656 148.08599853515625,-82.3219985961914 C119.79299926757812,-87.1050033569336 84.02100372314453,-90.197998046875 73.2020034790039,-96.57599639892578 C62.3849983215332,-102.95500183105469 38.98699951171875,-135.1739959716797 28.5939998626709,-146.73300170898438 C13.994999885559082,-162.97000122070312 -13.562999725341797,-176.10899353027344 -52.67399978637695,-172.91900634765625 C-91.78399658203125,-169.72999572753906 -133.37399291992188,-161.6230010986328 -169.156005859375,-137.7030029296875 C-204.93899536132812,-113.78299713134766 -199.74099731445312,-61.49399948120117 -200.572998046875,-47.939998626708984 C-201.40499877929688,-34.3849983215332 -201.4040069580078,-16.8439998626709 -201.4040069580078,-16.8439998626709z"></path></g><g opacity="1" transform="matrix(1,0,0,1,411.58599853515625,260.6600036621094)"><path stroke-linecap="round" stroke-linejoin="round" fill-opacity="0" stroke="rgb(210,124,86)" stroke-opacity="0.77" stroke-width="8" d=" M20.570999145507812,-40.07099914550781 C20.570999145507812,-40.07099914550781 4.086999893188477,-17.364999771118164 -1.625,-4.995999813079834 C-7.336999893188477,7.374000072479248 -6.933000087738037,10.241999626159668 -10.420999526977539,17.881000518798828 C-13.909000396728516,25.520999908447266 -20.570999145507812,40.071998596191406 -20.570999145507812,40.071998596191406"></path></g><g opacity="1" transform="matrix(1,0,0,1,191.43699645996094,293.9110107421875)"><path stroke-linecap="round" stroke-linejoin="round" fill-opacity="0" stroke="rgb(221,136,107)" stroke-opacity="1" stroke-width="9" d=" M-34.231998443603516,-33.47999954223633 C-34.231998443603516,-33.47999954223633 -2.0139999389648438,-4.9679999351501465 7.551000118255615,5.400000095367432 C17.114999771118164,15.767999649047852 20.13599967956543,23.97599983215332 24.163000106811523,27 C28.190000534057617,30.02400016784668 34.23099899291992,33.47999954223633 34.23099899291992,33.47999954223633"></path></g><g opacity="1" transform="matrix(1,0,0,1,108.17400360107422,113.8489990234375)"><path stroke-linecap="round" stroke-linejoin="round" fill-opacity="0" stroke="rgb(221,135,107)" stroke-opacity="1" stroke-width="8" d=" M5.554999828338623,-14.145999908447266 C5.554999828338623,-14.145999908447266 9.359999656677246,-4.578000068664551 6.591000080108643,1.5049999952316284 C3.61899995803833,8.03499984741211 -9.361000061035156,14.145999908447266 -9.361000061035156,14.145999908447266"></path></g><g opacity="1" transform="matrix(1,0,0,1,131.1699981689453,133.11300659179688)"><path stroke-linecap="round" stroke-linejoin="round" fill-opacity="0" stroke="rgb(221,135,107)" stroke-opacity="1" stroke-width="9" d=" M-8.277000427246094,2.1070001125335693 C-8.277000427246094,2.1070001125335693 -4.363999843597412,-0.3009999990463257 0.4519999921321869,-1.2039999961853027 C5.267000198364258,-2.1070001125335693 8.277000427246094,-2.1070001125335693 8.277000427246094,-2.1070001125335693"></path></g><g opacity="1" transform="matrix(1,0,0,1,0,0)"><g opacity="1" transform="matrix(1,0,0,1,270.7279968261719,266.25)"><path stroke-linecap="round" stroke-linejoin="round" fill-opacity="0" stroke="rgb(184,120,112)" stroke-opacity="1" stroke-width="9" d=" M0.050999999046325684,-0.20100000500679016 C0.050999999046325684,-0.20100000500679016 -0.050999999046325684,0.20100000500679016 -0.050999999046325684,0.20100000500679016"></path></g><g opacity="1" transform="matrix(1,0,0,1,333.3340148925781,267.7550048828125)"><path stroke-linecap="round" stroke-linejoin="round" fill-opacity="0" stroke="rgb(184,120,112)" stroke-opacity="1" stroke-width="9" d=" M0.050999999046325684,-0.5019999742507935 C0.050999999046325684,-0.5019999742507935 -0.050999999046325684,0.5019999742507935 -0.050999999046325684,0.5019999742507935"></path></g><g opacity="1" transform="matrix(1,0,0,1,232.5030059814453,287.0190124511719)"><path stroke-linecap="round" stroke-linejoin="round" fill-opacity="0" stroke="rgb(184,120,112)" stroke-opacity="1" stroke-width="9" d=" M0.050999999046325684,-0.5009999871253967 C0.050999999046325684,-0.5009999871253967 -0.050999999046325684,0.5009999871253967 -0.050999999046325684,0.5009999871253967"></path></g><g opacity="1" transform="matrix(1,0,0,1,284.4490051269531,305.55499267578125)"><path stroke-linecap="round" stroke-linejoin="round" fill-opacity="0" stroke="rgb(184,120,112)" stroke-opacity="1" stroke-width="9" d=" M0.37599998712539673,-0.17599999904632568 C0.37599998712539673,-0.17599999904632568 -0.37700000405311584,0.17599999904632568 -0.37700000405311584,0.17599999904632568"></path></g></g><g opacity="1" transform="matrix(1,0,0,1,493.0090026855469,221.0019989013672)"><path stroke-linecap="round" stroke-linejoin="round" fill-opacity="0" stroke="rgb(221,135,107)" stroke-opacity="1" stroke-width="9" d=" M-1.7059999704360962,-12.942999839782715 C-1.7059999704360962,-12.942999839782715 1.7050000429153442,-5.116000175476074 1.7050000429153442,-0.30000001192092896 C1.7050000429153442,4.515999794006348 0.10100000351667404,12.942999839782715 0.10100000351667404,12.942999839782715"></path></g><g opacity="1" transform="matrix(1,0,0,1,0,0)"><g opacity="1" transform="matrix(1,0,0,1,119.11299896240234,324.39300537109375)"><path stroke-linecap="round" stroke-linejoin="round" fill-opacity="0" stroke="rgb(222,141,112)" stroke-opacity="1" stroke-width="9" d=" M-11.428000450134277,-24.39900016784668 C-11.428000450134277,-24.39900016784668 -14.515999794006348,-5.250999927520752 -5.250999927520752,5.86899995803833 C4.013999938964844,16.98699951171875 8.338000297546387,20.69300079345703 11.425999641418457,22.54599952697754 C11.425999641418457,22.54599952697754 14.515999794006348,24.39900016784668 14.515999794006348,24.39900016784668"></path></g><g opacity="1" transform="matrix(1,0,0,1,111.46900177001953,290.0979919433594)"><path stroke-linecap="round" stroke-linejoin="round" fill-opacity="0" stroke="rgb(221,135,107)" stroke-opacity="1" stroke-width="9" d=" M-0.9649999737739563,-20.034000396728516 C-0.9649999737739563,-20.034000396728516 6.822000026702881,-12.232000350952148 9.04800033569336,-3.4000000953674316 C11.274999618530273,5.433000087738037 10.654000282287598,13.821000099182129 10.654000282287598,13.821000099182129"></path></g></g></g><g style="display: block;" transform="matrix(1.0379096269607544,-0.0002354942262172699,0.00023548984609078616,1.0378903150558472,129.13082885742188,44.725894927978516)" opacity="1"><g opacity="1" transform="matrix(1,0,0,1,44.5260009765625,30.854999542236328)"><path stroke-linecap="round" stroke-linejoin="round" fill-opacity="0" stroke="rgb(221,135,107)" stroke-opacity="0.6900000000000001" stroke-width="9" d=" M-31.354999542236328,5.26200008392334 C-31.354999542236328,5.26200008392334 -17.610000610351562,-1.9129999876022339 -3.1700000762939453,-3.002000093460083 C7.914999961853027,-3.8389999866485596 11.640000343322754,-3.6500000953674316 18.222999572753906,-3.937999963760376 C24.80500030517578,-4.22599983215332 31.354999542236328,-5.26200008392334 31.354999542236328,-5.26200008392334"></path></g><g opacity="1" transform="matrix(1,0,0,1,72.58999633789062,32.731998443603516)"><path stroke-linecap="round" stroke-linejoin="round" fill-opacity="0" stroke="rgb(221,135,107)" stroke-opacity="0.6900000000000001" stroke-width="9" d=" M-39.55500030517578,7.539999961853027 C-39.55500030517578,7.539999961853027 -34.41299819946289,5.736999988555908 -26.636999130249023,6.701000213623047 C-18.861000061035156,7.664000034332275 -8.821999549865723,9.767000198364258 -3.7960000038146973,9.782999992370605 C8.447999954223633,9.822999954223633 14.83899974822998,7.436999797821045 19.937000274658203,3.8410000801086426 C25.03499984741211,0.24500000476837158 30.58300018310547,-5.48799991607666 34.69200134277344,-7.922999858856201 C35.80099868774414,-8.581000328063965 39.55500030517578,-9.822999954223633 39.55500030517578,-9.822999954223633"></path></g><g opacity="1" transform="matrix(1,0,0,1,95.6500015258789,16.163999557495117)"><path stroke-linecap="round" stroke-linejoin="round" fill-opacity="0" stroke="rgb(221,135,107)" stroke-opacity="0.6900000000000001" stroke-width="9" d=" M-7.9029998779296875,2.99399995803833 C-7.9029998779296875,2.99399995803833 -5.127999782562256,2.1419999599456787 -1.5839999914169312,0.5260000228881836 C1.9609999656677246,-1.090000033378601 7.9029998779296875,-2.99399995803833 7.9029998779296875,-2.99399995803833"></path></g></g><g style="display: block;" transform="matrix(0.9700000286102295,0,0,0.9700000286102295,185.77293395996094,296.0974426269531)" opacity="1"><g opacity="1" transform="matrix(1,0,0,1,133.68099975585938,24.898000717163086)"><path stroke-linecap="round" stroke-linejoin="round" fill-opacity="0" stroke="rgb(182,94,49)" stroke-opacity="0.56" stroke-width="10" d=" M3.382999897003174,-5.564000129699707 C3.382999897003174,-5.564000129699707 -1.065000057220459,-4.060999870300293 -2.128000020980835,-1.1109999418258667 C-3.190000057220459,1.8389999866485596 -3.382999897003174,5.564000129699707 -3.382999897003174,5.564000129699707"></path></g><g opacity="1" transform="matrix(1,0,0,1,133.4949951171875,75.87100219726562)"><path stroke-linecap="round" stroke-linejoin="round" fill-opacity="0" stroke="rgb(182,94,49)" stroke-opacity="0.56" stroke-width="10" d=" M-1.628000020980835,-28.604000091552734 C-1.628000020980835,-28.604000091552734 11.437000274658203,-16.966999053955078 3.4260001182556152,0.9610000252723694 C-4.586999893188477,18.888999938964844 -11.435999870300293,28.604000091552734 -11.435999870300293,28.604000091552734"></path></g><g opacity="1" transform="matrix(1,0,0,1,57.895999908447266,101.21099853515625)"><path stroke-linecap="round" stroke-linejoin="round" fill-opacity="0" stroke="rgb(182,94,49)" stroke-opacity="0.56" stroke-width="10" d=" M-39.715999603271484,-4.0320000648498535 C-39.715999603271484,-4.0320000648498535 -18.61400032043457,4.0320000648498535 7.421999931335449,3.936000108718872 C22.108999252319336,3.881999969482422 39.715999603271484,2.4040000438690186 39.715999603271484,2.4040000438690186"></path></g><g opacity="1" transform="matrix(1,0,0,1,180.32000732421875,87.36699676513672)"><path stroke-linecap="round" stroke-linejoin="round" fill-opacity="0" stroke="rgb(182,94,49)" stroke-opacity="0.56" stroke-width="10" d=" M-35.07600021362305,11.20300006866455 C-35.07600021362305,11.20300006866455 -17.29199981689453,9.692999839782715 -11.583999633789062,7.915999889373779 C-5.876999855041504,6.138999938964844 -2.6659998893737793,5.974999904632568 2.7909998893737793,5.421999931335449 C8.248000144958496,4.86899995803833 16.333999633789062,3.4670000076293945 22.225000381469727,0.0820000022649765 C28.115999221801758,-3.302000045776367 35.07600021362305,-11.20300006866455 35.07600021362305,-11.20300006866455"></path></g></g><g style="display: block;" transform="matrix(0.9700000286102295,0,0,0.9700000286102295,107.14376831054688,126.89936065673828)" opacity="1"><g opacity="1" transform="matrix(1,0,0,1,0,-2.0609970092773438)"><g opacity="1" transform="matrix(1,0,0,1,106.78700256347656,113.40799713134766)"><path fill="rgb(255,200,153)" fill-opacity="1" d=" M-21.40999984741211,-6.960999965667725 C-21.40999984741211,-6.960999965667725 -4.51800012588501,5.414000034332275 6.875,6.188000202178955 C18.267000198364258,6.960999965667725 21.40999984741211,5.0279998779296875 21.40999984741211,5.0279998779296875"></path><path stroke-linecap="round" stroke-linejoin="round" fill-opacity="0" stroke="rgb(210,112,86)" stroke-opacity="1" stroke-width="8" d=" M-21.40999984741211,-6.960999965667725 C-21.40999984741211,-6.960999965667725 -4.51800012588501,5.414000034332275 6.875,6.188000202178955 C18.267000198364258,6.960999965667725 21.40999984741211,5.0279998779296875 21.40999984741211,5.0279998779296875"></path></g><g opacity="1" transform="matrix(1,0,0,1,29.415000915527344,76.90399932861328)"><path stroke-linecap="round" stroke-linejoin="round" fill-opacity="0" stroke="rgb(210,112,86)" stroke-opacity="1" stroke-width="7" d=" M1.3240000009536743,-19.533000946044922 C1.3240000009536743,-19.533000946044922 -0.13300000131130219,-6.210000038146973 -2.490000009536743,-4.276000022888184 C-4.8470001220703125,-2.3429999351501465 -11.914999961853027,0.6970000267028809 -6.175000190734863,7.377999782562256 C1.065999984741211,15.805999755859375 11.914999961853027,19.533000946044922 11.914999961853027,19.533000946044922"></path></g><g opacity="1" transform="matrix(1,0,0,1,67.26399993896484,64.57499694824219)"><path stroke-linecap="round" stroke-linejoin="round" fill-opacity="0" stroke="rgb(211,113,87)" stroke-opacity="0.67" stroke-width="10" d=" M30.767000198364258,-30.270999908447266 C30.767000198364258,-30.270999908447266 18.506999969482422,-17.738000869750977 5.429999828338623,-11.562000274658203 C-0.9549999833106995,-8.54800033569336 -9.031999588012695,-6.46999979019165 -12.961000442504883,-4.150000095367432 C-16.888999938964844,-1.8300000429153442 -30.767000198364258,-0.44600000977516174 -26.445999145507812,3.4210000038146973 C-22.125,7.289000034332275 -14.531999588012695,12.093999862670898 -5.104000091552734,17.895000457763672 C4.324999809265137,23.695999145507812 11.789999961853027,29.108999252319336 11.789999961853027,29.108999252319336 C11.789999961853027,29.108999252319336 16.895999908447266,30.270999908447266 16.895999908447266,30.270999908447266"></path></g><g opacity="1" transform="matrix(1,0,0,1,275.0169982910156,39.391998291015625)"><path stroke-linecap="round" stroke-linejoin="round" fill-opacity="0" stroke="rgb(210,112,86)" stroke-opacity="1" stroke-width="7" d=" M-12.279999732971191,-17.503000259399414 C-4.239999771118164,-16.371999740600586 7.626999855041504,-15.996000289916992 11.072999954223633,-3.180999994277954 C12.279999732971191,1.305999994277954 10.770999908447266,17.503000259399414 10.770999908447266,17.503000259399414"></path></g><g opacity="1" transform="matrix(1,0,0,1,243.02099609375,18.04400062561035)"><path stroke-linecap="round" stroke-linejoin="round" fill-opacity="0" stroke="rgb(210,112,86)" stroke-opacity="1" stroke-width="5.991" d=" M-19.900999069213867,1.440000057220459 C-19.900999069213867,1.440000057220459 7.223999977111816,-3.066999912261963 19.900999069213867,3.065999984741211"></path></g><g opacity="1" transform="matrix(1,0,0,1,242.84800720214844,87.60199737548828)"><path fill="rgb(255,200,153)" fill-opacity="1" d=" M-23.170000076293945,17.395999908447266 C-23.170000076293945,17.395999908447266 -3.9600000381469727,12.74899959564209 5.170000076293945,6.585999965667725 C14.298999786376953,0.42399999499320984 18.655000686645508,-5.943999767303467 19.785999298095703,-9.586000442504883 C20.91699981689453,-13.229000091552734 23.170000076293945,-17.395999908447266 23.170000076293945,-17.395999908447266"></path><path stroke-linecap="round" stroke-linejoin="round" fill-opacity="0" stroke="rgb(210,112,86)" stroke-opacity="1" stroke-width="9" d=" M-23.170000076293945,17.395999908447266 C-23.170000076293945,17.395999908447266 -3.9600000381469727,12.74899959564209 5.170000076293945,6.585999965667725 C14.298999786376953,0.42399999499320984 18.655000686645508,-5.943999767303467 19.785999298095703,-9.586000442504883 C20.91699981689453,-13.229000091552734 23.170000076293945,-17.395999908447266 23.170000076293945,-17.395999908447266"></path></g><g opacity="1" transform="matrix(1,0,0,1,265.6080017089844,98.73500061035156)"><path fill="rgb(255,200,153)" fill-opacity="1" d=" M6.03000020980835,-3.9579999446868896 C6.03000020980835,-3.9579999446868896 3.446000099182129,0.28299999237060547 0.5740000009536743,1.6959999799728394 C-2.296999931335449,3.109999895095825 -6.03000020980835,3.9579999446868896 -6.03000020980835,3.9579999446868896"></path><path stroke-linecap="round" stroke-linejoin="round" fill-opacity="0" stroke="rgb(210,112,86)" stroke-opacity="1" stroke-width="5.991" d=" M6.03000020980835,-3.9579999446868896 C6.03000020980835,-3.9579999446868896 3.446000099182129,0.28299999237060547 0.5740000009536743,1.6959999799728394 C-2.296999931335449,3.109999895095825 -6.03000020980835,3.9579999446868896 -6.03000020980835,3.9579999446868896"></path></g><g opacity="1" transform="matrix(1,0,0,1,143.6439971923828,49.42599868774414)"><path stroke-linecap="round" stroke-linejoin="round" fill-opacity="0" stroke="rgb(221,135,107)" stroke-opacity="1" stroke-width="9" d=" M-6.867000102996826,-5.872000217437744 C-6.867000102996826,-5.872000217437744 -5.01800012588501,-2.555999994277954 -0.9990000128746033,0.7519999742507935 C3.0209999084472656,4.059000015258789 6.867000102996826,5.872000217437744 6.867000102996826,5.872000217437744"></path></g><g opacity="1" transform="matrix(1,0,0,1,152.5709991455078,61.42300033569336)"><path fill="rgb(30,17,14)" fill-opacity="1" d=" M-65.56300354003906,10.741000175476074 C-65.56300354003906,10.741000175476074 -22.110000610351562,19.22100067138672 9.092000007629395,16.017000198364258 C31.968000411987305,13.668999671936035 55.22700119018555,5.465000152587891 66.13800048828125,-5.089000225067139 C69.09200286865234,-7.946000099182129 83.17400360107422,-19.22100067138672 83.17400360107422,-19.22100067138672 C83.17400360107422,-19.22100067138672 45.4379997253418,3.765000104904175 5.072999954223633,8.479999542236328 C-40.10300064086914,13.755999565124512 -83.17400360107422,8.104000091552734 -83.17400360107422,8.104000091552734 C-83.17400360107422,8.104000091552734 -65.56300354003906,10.741000175476074 -65.56300354003906,10.741000175476074z"></path><path stroke-linecap="round" stroke-linejoin="round" fill-opacity="0" stroke="rgb(130,64,57)" stroke-opacity="1" stroke-width="6.274" d=" M-65.56300354003906,10.741000175476074 C-65.56300354003906,10.741000175476074 -22.110000610351562,19.22100067138672 9.092000007629395,16.017000198364258 C31.968000411987305,13.668999671936035 55.22700119018555,5.465000152587891 66.13800048828125,-5.089000225067139 C69.09200286865234,-7.946000099182129 83.17400360107422,-19.22100067138672 83.17400360107422,-19.22100067138672 C83.17400360107422,-19.22100067138672 45.4379997253418,3.765000104904175 5.072999954223633,8.479999542236328 C-40.10300064086914,13.755999565124512 -83.17400360107422,8.104000091552734 -83.17400360107422,8.104000091552734 C-83.17400360107422,8.104000091552734 -65.56300354003906,10.741000175476074 -65.56300354003906,10.741000175476074z"></path></g><g opacity="1" transform="matrix(1,0,0,1,207.67300415039062,25.388999938964844)"><path fill="rgb(210,112,86)" fill-opacity="0.77" d=" M-55.305999755859375,-1.1610000133514404 C-55.305999755859375,-1.1610000133514404 -32.35300064086914,0.41999998688697815 -12.918000221252441,-1.4859999418258667 C8.255999565124512,-3.561000108718872 13.163999557495117,-7.709000110626221 20.618999481201172,-8.574000358581543 C28.072999954223633,-9.4399995803833 38.875,-8.317999839782715 40.422000885009766,-7.890999794006348 C41.970001220703125,-7.464000225067139 55.305999755859375,-4.739999771118164 55.305999755859375,-4.739999771118164 C55.305999755859375,-4.739999771118164 44.823001861572266,1.628999948501587 43.34000015258789,2.138000011444092 C40.167999267578125,3.2290000915527344 33.06700134277344,-0.04500000178813934 23.70800018310547,2.0250000953674316 C12.449999809265137,4.514999866485596 6.059000015258789,4.888999938964844 -13.298999786376953,5.343999862670898 C-25.70400047302246,5.63700008392334 -55.24399948120117,2.5810000896453857 -55.24399948120117,2.5810000896453857 C-55.24399948120117,2.5810000896453857 -55.305999755859375,-1.1610000133514404 -55.305999755859375,-1.1610000133514404z"></path></g><g opacity="1" transform="matrix(1,0,0,1,153.85400390625,49.85599899291992)"><path stroke-linecap="round" stroke-linejoin="round" fill-opacity="0" stroke="rgb(130,64,57)" stroke-opacity="1" stroke-width="8.366" d=" M-108.13099670410156,17.322999954223633 C-108.13099670410156,17.322999954223633 -46.91899871826172,25 -2.5269999504089355,19.198999404907227 C41.8650016784668,13.39799976348877 75.91799926757812,-5.663000106811523 85.34700012207031,-12.625 C94.7750015258789,-19.586000442504883 108.13099670410156,-25 108.13099670410156,-25"></path></g><g opacity="1" transform="matrix(1,0,0,1,180.9980010986328,88.93599700927734)"><path fill="rgb(228,135,85)" fill-opacity="0.66" d=" M77.91000366210938,-34.486000061035156 C77.91000366210938,-34.486000061035156 54.3650016784668,9.98799991607666 13.592000007629395,22.426000595092773 C-27.183000564575195,34.862998962402344 -54.555999755859375,21.10700035095215 -59.1510009765625,19.40999984741211 C-63.744998931884766,17.71500015258789 -77.91000366210938,13.192000389099121 -77.91000366210938,13.192000389099121 C-77.91000366210938,13.192000389099121 -68.72200012207031,2.8269999027252197 -68.72200012207031,2.8269999027252197 C-68.72200012207031,2.8269999027252197 -15.888999938964844,11.684000015258789 7.083000183105469,5.465000152587891 C30.054000854492188,-0.7540000081062317 69.48799896240234,-34.862998962402344 69.48799896240234,-34.862998962402344"></path></g><g opacity="1" transform="matrix(1,0,0,1,0,0)"><path stroke-linecap="round" stroke-linejoin="miter" fill-opacity="0" stroke-miterlimit="4" stroke="rgb(211,113,87)" stroke-opacity="0" stroke-width="7" d=" M188.031005859375,71.77899932861328 C188.031005859375,71.77899932861328 190.53599548339844,71.12300109863281 180.48599243164062,69.98400115966797 C172.40899658203125,69.06900024414062 161.16799926757812,75.96700286865234 161.16799926757812,75.96700286865234"></path></g><g opacity="1" transform="matrix(1,0,0,1,185.30499267578125,78.0530014038086)"><path stroke-linecap="round" stroke-linejoin="round" fill-opacity="0" stroke="rgb(182,94,49)" stroke-opacity="1" stroke-width="10.14" d=" M74.75199890136719,-27.18400001525879 C74.75199890136719,-27.18400001525879 68.45500183105469,-21.333999633789062 61.73400115966797,-14.369999885559082 C54.459999084472656,-6.830999851226807 41.12699890136719,6.313000202178955 23.448999404907227,15.593999862670898 C20.59600067138672,17.091999053955078 17.899999618530273,18.409000396728516 15.281999588012695,19.559999465942383 C1.6820000410079956,25.538999557495117 -9.824999809265137,27.047000885009766 -30.533000946044922,26.336000442504883 C-42.9109992980957,25.910999298095703 -56.42100143432617,23.02400016784668 -65.20800018310547,20.795000076293945 C-71.00900268554688,19.322999954223633 -74.75199890136719,18.13800048828125 -74.75199890136719,18.13800048828125"></path></g></g></g><g style="display: block;" transform="matrix(1.1162081956863403,-0.0002532595826778561,0.0002442954864818603,1.0767000913619995,217.97659301757812,55.61719512939453)" opacity="1"><g opacity="1" transform="matrix(1,0,0,1,52.99700164794922,45.65599822998047)"><path fill="rgb(179,197,241)" fill-opacity="1" d=" M-15.616999626159668,-3.1110000610351562 C-15.616999626159668,-3.1110000610351562 -17.676000595092773,13.458999633789062 -2.2309999465942383,14.758999824523926 C13.213000297546387,16.058000564575195 17.674999237060547,3.388000011444092 13.557000160217285,-5.383999824523926 C9.437999725341797,-14.156000137329102 2.36299991607666,-16.05699920654297 -6.006999969482422,-14.156000137329102 C-14.586999893188477,-12.206999778747559 -15.616999626159668,-3.1110000610351562 -15.616999626159668,-3.1110000610351562z"></path><path stroke-linecap="round" stroke-linejoin="round" fill-opacity="0" stroke="rgb(57,48,75)" stroke-opacity="1" stroke-width="5.973" d=" M-15.616999626159668,-3.1110000610351562 C-15.616999626159668,-3.1110000610351562 -17.676000595092773,13.458999633789062 -2.2309999465942383,14.758999824523926 C13.213000297546387,16.058000564575195 17.674999237060547,3.388000011444092 13.557000160217285,-5.383999824523926 C9.437999725341797,-14.156000137329102 2.36299991607666,-16.05699920654297 -6.006999969482422,-14.156000137329102 C-14.586999893188477,-12.206999778747559 -15.616999626159668,-3.1110000610351562 -15.616999626159668,-3.1110000610351562z"></path></g><g opacity="1" transform="matrix(1,0,0,1,53.67300033569336,44.79899978637695)"><path fill="rgb(255,255,255)" fill-opacity="1" d=" M-11.189000129699707,-2.2290000915527344 C-11.189000129699707,-2.2290000915527344 -12.666999816894531,9.645000457763672 -1.5980000495910645,10.576000213623047 C9.468999862670898,11.506999969482422 12.666999816894531,2.427000045776367 9.715999603271484,-3.8580000400543213 C6.764999866485596,-10.144000053405762 1.6950000524520874,-11.506999969482422 -4.302999973297119,-10.144000053405762 C-10.45199966430664,-8.748000144958496 -11.189000129699707,-2.2290000915527344 -11.189000129699707,-2.2290000915527344z"></path></g><g opacity="0.76" transform="matrix(0.7400000095367432,0,0,0.7400000095367432,52.99700164794922,45.65599822998047)"><path stroke-linecap="round" stroke-linejoin="round" fill-opacity="0" stroke="rgb(236,43,74)" stroke-opacity="1" stroke-width="4" d=" M-15.616999626159668,-3.1110000610351562 C-15.616999626159668,-3.1110000610351562 -17.676000595092773,13.458999633789062 -2.2309999465942383,14.758999824523926 C13.213000297546387,16.058000564575195 17.674999237060547,3.388000011444092 13.557000160217285,-5.383999824523926 C9.437999725341797,-14.156000137329102 2.36299991607666,-16.05699920654297 -6.006999969482422,-14.156000137329102 C-14.586999893188477,-12.206999778747559 -15.616999626159668,-3.1110000610351562 -15.616999626159668,-3.1110000610351562z"></path></g><g opacity="1" transform="matrix(1,0,0,1,31.267000198364258,25.336000442504883)"><path stroke-linecap="round" stroke-linejoin="round" fill-opacity="0" stroke="rgb(130,64,57)" stroke-opacity="1" stroke-width="10" d=" M-14.694999694824219,8.762999534606934 C-12.678000450134277,3.890000104904175 -9.15999984741211,-1.6330000162124634 -3.1540000438690186,-4.23199987411499 C7.315999984741211,-8.762999534606934 14.694999694824219,-7.806000232696533 14.694999694824219,-7.806000232696533"></path></g><g opacity="1" transform="matrix(1,0,0,1,60.654998779296875,68.56700134277344)"><path stroke-linecap="round" stroke-linejoin="round" fill-opacity="0" stroke="rgb(210,112,86)" stroke-opacity="1" stroke-width="4.852" d=" M-18.91200065612793,-3.171999931335449 C-18.91200065612793,-3.171999931335449 -11.831999778747559,0.492000013589859 -2.125999927520752,1.8320000171661377 C7.579999923706055,3.171999931335449 6.191999912261963,2.5969998836517334 10.175999641418457,1.975000023841858 C14.15999984741211,1.3519999980926514 18.91200065612793,-1.0099999904632568 18.91200065612793,-1.0099999904632568"></path></g><g opacity="1" transform="matrix(1,0,0,1,57.763999938964844,64.66500091552734)"><path stroke-linecap="round" stroke-linejoin="round" fill-opacity="0" stroke="rgb(210,112,86)" stroke-opacity="1" stroke-width="4.852" d=" M-14.812000274658203,0.6190000176429749 C-14.812000274658203,0.6190000176429749 -5.926000118255615,2.8540000915527344 3.7950000762939453,1.6330000162124634 C13.517999649047852,0.41100001335144043 11.121000289916992,-1.2209999561309814 14.812000274658203,-2.8550000190734863"></path></g><g opacity="1" transform="matrix(1,0,0,1,50.33599853515625,45.534000396728516)"><path fill="rgb(30,19,19)" fill-opacity="1" d=" M-5.14900016784668,-0.8989999890327454 C-5.14900016784668,-0.8989999890327454 -5.829999923706055,3.890000104904175 -0.7360000014305115,4.265999794006348 C4.357999801635742,4.642000198364258 5.828999996185303,0.9789999723434448 4.4710001945495605,-1.5570000410079956 C3.11299991607666,-4.0920000076293945 0.781000018119812,-4.642000198364258 -1.9800000190734863,-4.0920000076293945 C-4.809999942779541,-3.5290000438690186 -5.14900016784668,-0.8989999890327454 -5.14900016784668,-0.8989999890327454z"></path></g><g opacity="1" transform="matrix(1,0,0,1,35.99700164794922,32.189998626708984)"><path stroke-linecap="round" stroke-linejoin="round" fill-opacity="0" stroke="rgb(210,112,86)" stroke-opacity="1" stroke-width="5.973" d=" M7.693999767303467,-5.989999771118164 C7.693999767303467,-5.989999771118164 2.00600004196167,-5.513999938964844 -3.9030001163482666,-0.7649999856948853 C-6.797999858856201,1.562000036239624 -7.693999767303467,5.989999771118164 -7.693999767303467,5.989999771118164"></path></g><g opacity="1" transform="matrix(1,0,0,1,52.99700164794922,45.65599822998047)"><path stroke-linecap="round" stroke-linejoin="round" fill-opacity="0" stroke="rgb(91,28,44)" stroke-opacity="1" stroke-width="5.973" d=" M-15.616999626159668,-3.1110000610351562 C-15.616999626159668,-3.1110000610351562 -17.676000595092773,13.458999633789062 -2.2309999465942383,14.758999824523926 C13.213000297546387,16.058000564575195 17.674999237060547,3.388000011444092 13.557000160217285,-5.383999824523926 C9.437999725341797,-14.156000137329102 2.36299991607666,-16.05699920654297 -6.006999969482422,-14.156000137329102 C-14.586999893188477,-12.206999778747559 -15.616999626159668,-3.1110000610351562 -15.616999626159668,-3.1110000610351562z"></path></g><g opacity="1" transform="matrix(1,0,0,1,54.39099884033203,44.696998596191406)"><path fill="rgb(255,255,255)" fill-opacity="1" d=" M-2.197000026702881,-0.34599998593330383 C-2.197000026702881,-0.34599998593330383 -2.4860000610351562,1.4950000047683716 -0.3140000104904175,1.6390000581741333 C1.8589999675750732,1.7829999923706055 2.4860000610351562,0.37599998712539673 1.906000018119812,-0.5989999771118164 C1.3259999752044678,-1.5740000009536743 0.3319999873638153,-1.784000039100647 -0.843999981880188,-1.5740000009536743 C-2.0510001182556152,-1.3569999933242798 -2.197000026702881,-0.34599998593330383 -2.197000026702881,-0.34599998593330383z"></path></g></g><g style="display: block;" transform="matrix(1.0379096269607544,-0.0002354942262172699,0.00023548984609078616,1.0378903150558472,117.85050201416016,84.41011810302734)" opacity="1"><g opacity="1" transform="matrix(1,0,0,1,50.0620002746582,28.76300048828125)"><path stroke-linecap="round" stroke-linejoin="round" fill-opacity="0" stroke="rgb(210,112,86)" stroke-opacity="1" stroke-width="5.973" d=" M-14.145999908447266,-11.288000106811523 C-14.145999908447266,-11.288000106811523 -1.8070000410079956,-12.1899995803833 4.513999938964844,-7.675000190734863 C10.835000038146973,-3.1600000858306885 13.543999671936035,0.45100000500679016 13.845000267028809,3.76200008392334 C14.145999908447266,7.072000026702881 12.942000389099121,12.190999984741211 12.942000389099121,12.190999984741211"></path></g><g opacity="1" transform="matrix(1,0,0,1,40.5099983215332,61.625999450683594)"><path stroke-linecap="round" stroke-linejoin="round" fill-opacity="0" stroke="rgb(210,112,86)" stroke-opacity="1" stroke-width="6.629" d=" M-23.937000274658203,9.303000450134277 C-23.937000274658203,9.303000450134277 -16.604999542236328,13.680999755859375 -4.5279998779296875,13.317000389099121 C7.547999858856201,12.951000213623047 10.998000144958496,7.114999771118164 14.880000114440918,4.196000099182129 C18.761999130249023,1.277999997138977 23.075000762939453,-1.6419999599456787 23.506000518798828,-4.560999870300293 C23.937000274658203,-7.480000019073486 23.075000762939453,-13.682000160217285 23.075000762939453,-13.682000160217285"></path></g><g opacity="1" transform="matrix(1,0,0,1,43.92499923706055,43.525001525878906)"><path fill="rgb(179,197,241)" fill-opacity="1" d=" M-18.485000610351562,-3.3389999866485596 C-18.485000610351562,-3.3389999866485596 -20.92300033569336,14.446999549865723 -2.640000104904175,15.842000007629395 C15.640999794006348,17.23699951171875 20.92300033569336,3.63700008392334 16.04800033569336,-5.7789998054504395 C11.17300033569336,-15.194999694824219 2.7980000972747803,-17.23699951171875 -7.110000133514404,-15.196000099182129 C-17.266000747680664,-13.104000091552734 -18.485000610351562,-3.3389999866485596 -18.485000610351562,-3.3389999866485596z"></path><path stroke-linecap="round" stroke-linejoin="round" fill-opacity="0" stroke="rgb(57,48,75)" stroke-opacity="1" stroke-width="7.016" d=" M-18.485000610351562,-3.3389999866485596 C-18.485000610351562,-3.3389999866485596 -20.92300033569336,14.446999549865723 -2.640000104904175,15.842000007629395 C15.640999794006348,17.23699951171875 20.92300033569336,3.63700008392334 16.04800033569336,-5.7789998054504395 C11.17300033569336,-15.194999694824219 2.7980000972747803,-17.23699951171875 -7.110000133514404,-15.196000099182129 C-17.266000747680664,-13.104000091552734 -18.485000610351562,-3.3389999866485596 -18.485000610351562,-3.3389999866485596z"></path></g><g opacity="1" transform="matrix(1,0,0,1,45.73500061035156,42.05500030517578)"><path fill="rgb(255,255,255)" fill-opacity="1" d=" M-12.50100040435791,-2.188999891281128 C-12.50100040435791,-2.188999891281128 -14.149999618530273,9.472000122070312 -1.7860000133514404,10.38700008392334 C10.579000473022461,11.300999641418457 14.149999618530273,2.384000062942505 10.852999687194824,-3.7890000343322754 C7.556000232696533,-9.961999893188477 1.8930000066757202,-11.300999641418457 -4.808000087738037,-9.961999893188477 C-11.677000045776367,-8.590999603271484 -12.50100040435791,-2.188999891281128 -12.50100040435791,-2.188999891281128z"></path></g><g opacity="1" transform="matrix(0.7400000095367432,0,0,0.7400000095367432,43.92499923706055,43.525001525878906)"><path stroke-linecap="round" stroke-linejoin="round" fill-opacity="0" stroke="rgb(244,16,47)" stroke-opacity="0.81" stroke-width="5.016" d=" M-18.485000610351562,-3.3389999866485596 C-18.485000610351562,-3.3389999866485596 -20.92300033569336,14.446999549865723 -2.640000104904175,15.842000007629395 C15.640999794006348,17.23699951171875 20.92300033569336,3.63700008392334 16.04800033569336,-5.7789998054504395 C11.17300033569336,-15.194999694824219 2.7980000972747803,-17.23699951171875 -7.110000133514404,-15.196000099182129 C-17.266000747680664,-13.104000091552734 -18.485000610351562,-3.3389999866485596 -18.485000610351562,-3.3389999866485596z"></path></g><g opacity="1" transform="matrix(1,0,0,1,43.79499816894531,43.42900085449219)"><path fill="rgb(30,19,19)" fill-opacity="1" d=" M-5.281000137329102,-0.9739999771118164 C-5.281000137329102,-0.9739999771118164 -5.978000164031982,4.214000225067139 -0.7549999952316284,4.620999813079834 C4.4679999351501465,5.0279998779296875 5.978000164031982,1.062000036239624 4.585000038146973,-1.684999942779541 C3.191999912261963,-4.432000160217285 0.800000011920929,-5.0279998779296875 -2.0309998989105225,-4.432000160217285 C-4.933000087738037,-3.822000026702881 -5.281000137329102,-0.9739999771118164 -5.281000137329102,-0.9739999771118164z"></path></g><g opacity="1" transform="matrix(1,0,0,1,48.22999954223633,42.472999572753906)"><path fill="rgb(255,255,255)" fill-opacity="1" d=" M-2.197000026702881,-0.34599998593330383 C-2.197000026702881,-0.34599998593330383 -2.486999988555908,1.4950000047683716 -0.3140000104904175,1.6390000581741333 C1.8580000400543213,1.784000039100647 2.486999988555908,0.37599998712539673 1.9079999923706055,-0.5979999899864197 C1.3279999494552612,-1.5729999542236328 0.3319999873638153,-1.784000039100647 -0.8450000286102295,-1.5729999542236328 C-2.052000045776367,-1.3559999465942383 -2.197000026702881,-0.34599998593330383 -2.197000026702881,-0.34599998593330383z"></path></g><g opacity="1" transform="matrix(1,0,0,1,41.433998107910156,19.884000778198242)"><path stroke-linecap="round" stroke-linejoin="round" fill-opacity="0" stroke="rgb(130,64,57)" stroke-opacity="1" stroke-width="10" d=" M-16.152999877929688,-0.902999997138977 C-16.152999877929688,-0.902999997138977 -5.7179999351501465,-3.311000108718872 -0.10000000149011612,-2.9089999198913574 C5.51800012588501,-2.507999897003174 8.527999877929688,-1.5049999952316284 11.73900032043457,0.10000000149011612 C12.78499984741211,0.6240000128746033 16.152999877929688,3.311000108718872 16.152999877929688,3.311000108718872"></path></g><g opacity="1" transform="matrix(1,0,0,1,43.92499923706055,43.525001525878906)"><path stroke-linecap="round" stroke-linejoin="round" fill-opacity="0" stroke="rgb(92,29,45)" stroke-opacity="1" stroke-width="7.016" d=" M-18.485000610351562,-3.3389999866485596 C-18.485000610351562,-3.3389999866485596 -20.92300033569336,14.446999549865723 -2.640000104904175,15.842000007629395 C15.640999794006348,17.23699951171875 20.92300033569336,3.63700008392334 16.04800033569336,-5.7789998054504395 C11.17300033569336,-15.194999694824219 2.7980000972747803,-17.23699951171875 -7.110000133514404,-15.196000099182129 C-17.266000747680664,-13.104000091552734 -18.485000610351562,-3.3389999866485596 -18.485000610351562,-3.3389999866485596z"></path></g></g><g style="display: block;" transform="matrix(1.2081947326660156,-0.0002741306961979717,0.0002644278865773231,1.1654309034347534,269.9803466796875,97.4168930053711)" opacity="1"><g opacity="0.8" transform="matrix(1,0,0,1,55.051998138427734,121.13800048828125)"><path fill="rgb(67,220,255)" fill-opacity="1" d=" M-43.40599822998047,-104.27200317382812 C-44.367000579833984,-103.66699981689453 -45.051998138427734,-103.23799896240234 -43.9739990234375,-102.87999725341797 C-39.305999755859375,-101.33000183105469 -31.59600067138672,-103.23600006103516 -24.60300064086914,-102.39700317382812 C-15.402999877929688,-101.29299926757812 -6.6570000648498535,-96.79100036621094 -4.816999912261963,-95.31900024414062 C-2.9769999980926514,-93.84700012207031 -4.427000045776367,-86.68199920654297 -0.3790000081062317,-83.37000274658203 C3.6689999103546143,-80.05799865722656 11.831000328063965,-73.58399963378906 12.934000015258789,-65.48799896240234 C14.038999557495117,-57.391998291015625 28.07900047302246,-55.88600158691406 28.07900047302246,-47.422000885009766 C28.07900047302246,-38.957000732421875 31.246000289916992,-22.341999053955078 24.542999267578125,-13.741999626159668 C21.17799949645996,-9.425000190734863 22.84000015258789,-2.5380001068115234 30.4689998626709,13.45300006866455 C33.51100158691406,19.829999923706055 27.834999084472656,18.5310001373291 25.051000595092773,25.69300079345703 C20.770000457763672,36.70899963378906 26.680999755859375,46.40999984741211 25.57699966430664,50.82600021362305 C24.472999572753906,55.242000579833984 29.08300018310547,56.26100158691406 30.187000274658203,59.571998596191406 C31.291000366210938,62.8849983215332 35.14500045776367,63.643001556396484 33.672000885009766,66.95500183105469 C32.20000076293945,70.26799774169922 32.26499938964844,73.86299896240234 36.680999755859375,76.07099914550781 C41.09700012207031,78.27899932861328 46.00899887084961,70.99800109863281 40.30500030517578,59.90299987792969 C36.70800018310547,52.90700149536133 37.926998138427734,51.332000732421875 34.99599838256836,48.02799987792969 C27.913000106811523,40.042999267578125 31.731000900268555,44.68199920654297 28.18899917602539,38.68899917602539 C25.33799934387207,33.862998962402344 40.9900016784668,18.968000411987305 32.13600158691406,9.824999809265137 C23.281999588012695,0.6819999814033508 31.961999893188477,-18.496999740600586 33.64899826049805,-22.152000427246094 C40.770999908447266,-37.58100128173828 30.891000747680664,-46.26100158691406 31.259000778198242,-49.573001861572266 C31.62700080871582,-52.8849983215332 19.450000762939453,-62.933998107910156 18.34600067138672,-68.08599853515625 C17.240999221801758,-73.23799896240234 8.128999710083008,-85.68499755859375 4.815999984741211,-88.99800109863281 C1.5049999952316284,-92.30999755859375 1.2230000495910645,-102.26799774169922 -5.0329999923706055,-103.00399780273438 C-11.289999961853027,-103.73999786376953 -14.946999549865723,-107.58599853515625 -21.746000289916992,-107.59300231933594 C-23.86199951171875,-107.59500122070312 -26.014999389648438,-107.75499725341797 -28.490999221801758,-109.08200073242188 C-31.3439998626709,-110.60800170898438 -34.37699890136719,-110.00800323486328 -35.165000915527344,-110.4020004272461 C-36.63600158691406,-111.13800048828125 -38.50199890136719,-107.33699798583984 -41.29499816894531,-105.63400268554688 C-41.7599983215332,-105.3499984741211 -42.952999114990234,-104.55699920654297 -43.40599822998047,-104.27200317382812z"></path><path stroke-linecap="butt" stroke-linejoin="miter" fill-opacity="0" stroke-miterlimit="10" stroke="rgb(17,153,200)" stroke-opacity="1" stroke-width="4" d=" M-43.40599822998047,-104.27200317382812 C-44.367000579833984,-103.66699981689453 -45.051998138427734,-103.23799896240234 -43.9739990234375,-102.87999725341797 C-39.305999755859375,-101.33000183105469 -31.59600067138672,-103.23600006103516 -24.60300064086914,-102.39700317382812 C-15.402999877929688,-101.29299926757812 -6.6570000648498535,-96.79100036621094 -4.816999912261963,-95.31900024414062 C-2.9769999980926514,-93.84700012207031 -4.427000045776367,-86.68199920654297 -0.3790000081062317,-83.37000274658203 C3.6689999103546143,-80.05799865722656 11.831000328063965,-73.58399963378906 12.934000015258789,-65.48799896240234 C14.038999557495117,-57.391998291015625 28.07900047302246,-55.88600158691406 28.07900047302246,-47.422000885009766 C28.07900047302246,-38.957000732421875 31.246000289916992,-22.341999053955078 24.542999267578125,-13.741999626159668 C21.17799949645996,-9.425000190734863 22.84000015258789,-2.5380001068115234 30.4689998626709,13.45300006866455 C33.51100158691406,19.829999923706055 27.834999084472656,18.5310001373291 25.051000595092773,25.69300079345703 C20.770000457763672,36.70899963378906 26.680999755859375,46.40999984741211 25.57699966430664,50.82600021362305 C24.472999572753906,55.242000579833984 29.08300018310547,56.26100158691406 30.187000274658203,59.571998596191406 C31.291000366210938,62.8849983215332 35.14500045776367,63.643001556396484 33.672000885009766,66.95500183105469 C32.20000076293945,70.26799774169922 32.26499938964844,73.86299896240234 36.680999755859375,76.07099914550781 C41.09700012207031,78.27899932861328 46.00899887084961,70.99800109863281 40.30500030517578,59.90299987792969 C36.70800018310547,52.90700149536133 37.926998138427734,51.332000732421875 34.99599838256836,48.02799987792969 C27.913000106811523,40.042999267578125 31.731000900268555,44.68199920654297 28.18899917602539,38.68899917602539 C25.33799934387207,33.862998962402344 40.9900016784668,18.968000411987305 32.13600158691406,9.824999809265137 C23.281999588012695,0.6819999814033508 31.961999893188477,-18.496999740600586 33.64899826049805,-22.152000427246094 C40.770999908447266,-37.58100128173828 30.891000747680664,-46.26100158691406 31.259000778198242,-49.573001861572266 C31.62700080871582,-52.8849983215332 19.450000762939453,-62.933998107910156 18.34600067138672,-68.08599853515625 C17.240999221801758,-73.23799896240234 8.128999710083008,-85.68499755859375 4.815999984741211,-88.99800109863281 C1.5049999952316284,-92.30999755859375 1.2230000495910645,-102.26799774169922 -5.0329999923706055,-103.00399780273438 C-11.289999961853027,-103.73999786376953 -14.946999549865723,-107.58599853515625 -21.746000289916992,-107.59300231933594 C-23.86199951171875,-107.59500122070312 -26.014999389648438,-107.75499725341797 -28.490999221801758,-109.08200073242188 C-31.3439998626709,-110.60800170898438 -34.37699890136719,-110.00800323486328 -35.165000915527344,-110.4020004272461 C-36.63600158691406,-111.13800048828125 -38.50199890136719,-107.33699798583984 -41.29499816894531,-105.63400268554688 C-41.7599983215332,-105.3499984741211 -42.952999114990234,-104.55699920654297 -43.40599822998047,-104.27200317382812z"></path></g><g opacity="1" transform="matrix(1,0,0,1,85.59200286865234,104.86799621582031)"><path fill="rgb(255,253,252)" fill-opacity="1" d=" M1.7740000486373901,-11.407999992370605 C1.7740000486373901,-11.407999992370605 0.6589999794960022,-15.012999534606934 -0.34200000762939453,-12.244999885559082 C-1.3420000076293945,-9.47599983215332 -2.515000104904175,-7.938000202178955 -1.7130000591278076,-6.166999816894531 C-0.9110000133514404,-4.394999980926514 -0.14900000393390656,-4.034999847412109 0.8510000109672546,-6.802999973297119 C1.8519999980926514,-9.571999549865723 1.7740000486373901,-11.407999992370605 1.7740000486373901,-11.407999992370605z"></path></g></g><g style="display: block;" transform="matrix(1.1238174438476562,-0.00025498608010821044,0.00025498136528767645,1.1237965822219849,132.7532958984375,124.75773620605469)" opacity="1"><g opacity="0.8" transform="matrix(1.302690029144287,0,0,1,22.589000701904297,120.37100219726562)"><path fill="rgb(67,220,255)" fill-opacity="1" d=" M3.174999952316284,-95.58899688720703 C3.174999952316284,-95.58899688720703 -8.20199966430664,-94.09500122070312 -8.776000022888184,-84.53700256347656 C-9.144000053405762,-78.40699768066406 -5.090000152587891,-69.0979995727539 -5.826000213623047,-61.77299880981445 C-6.561999797821045,-54.448001861572266 -2.2960000038146973,-51.439998626708984 -2.6559998989105225,-44.97100067138672 C-2.821000099182129,-42.00899887084961 2.0950000286102295,-37.94300079345703 1.7269999980926514,-34.262001037597656 C1.3589999675750732,-30.582000732421875 1.4919999837875366,-25.023000717163086 1.9129999876022339,-20.32900047302246 C2.4649999141693115,-14.173999786376953 6.331999778747559,-14.493000030517578 6.699999809265137,-5.291999816894531 C7.067999839782715,3.9079999923706055 0.9480000138282776,18.89699935913086 2.4159998893737793,20.22100067138672 C3.884000062942505,21.545000076293945 0.5609999895095825,27.39299964904785 1.6019999980926514,32.22600173950195 C3.24399995803833,39.849998474121094 0.921999990940094,43.486000061035156 0.18700000643730164,45.694000244140625 C-0.5490000247955322,47.902000427246094 1.003000020980835,47.53799819946289 1.7400000095367432,50.11399841308594 C2.4760000705718994,52.689998626708984 1.2640000581741333,59.97700119018555 0.05999999865889549,59.99300003051758 C-1.1440000534057617,60.00899887084961 7.224999904632568,72.30400085449219 -3.072000026702881,71.19499969482422 C-7.699999809265137,70.69599914550781 -8.013999938964844,67.63300323486328 -8.142999649047852,65.12000274658203 C-8.484999656677246,58.44900131225586 -9.437000274658203,62.834999084472656 -8.652000427246094,58.494998931884766 C-7.388000011444092,51.500999450683594 -8.008000373840332,53.321998596191406 -8.020000457763672,51.50400161743164 C-8.0600004196167,45.23099899291992 -5.90500020980835,47.47100067138672 -5.9679999351501465,42.358001708984375 C-6.104000091552734,31.215999603271484 -7.676000118255615,26.575000762939453 -6.572000026702881,25.101999282836914 C-5.4679999351501465,23.631000518798828 -3.8480000495910645,13.871999740600586 -2.8480000495910645,9.571000099182129 C1.0360000133514404,-7.140999794006348 -1.3309999704360962,7.066999912261963 -1.4630000591278076,3.947000026702881 C-1.819000005722046,-4.464000225067139 -3.1760001182556152,-8.201000213623047 -2.438999891281128,-12.986000061035156 C-1.7029999494552612,-17.770000457763672 -4.4720001220703125,-24.18000030517578 -6.311999797821045,-28.22800064086914 C-8.152000427246094,-32.2760009765625 -8.157999992370605,-41.36399841308594 -8.652000427246094,-46.17900085449219 C-9.437000274658203,-53.827999114990234 -15.13599967956543,-68.47799682617188 -16.851999282836914,-79.65699768066406 C-17.82699966430664,-86.00700378417969 -12.78499984741211,-97.38600158691406 -12.78499984741211,-98.85700225830078 C-12.78499984741211,-100.33000183105469 -14.175000190734863,-106.02999877929688 -12.149999618530273,-108.19999694824219 C-8.336000442504883,-112.28600311279297 -5.543000221252441,-105.73999786376953 -1.3200000524520874,-104.51399993896484 C1.5290000438690186,-103.68699645996094 9.446999549865723,-106.48699951171875 10.1899995803833,-104.10900115966797 C11.552000045776367,-99.7509994506836 3.174999952316284,-95.58899688720703 3.174999952316284,-95.58899688720703z"></path><path stroke-linecap="butt" stroke-linejoin="miter" fill-opacity="0" stroke-miterlimit="10" stroke="rgb(17,153,200)" stroke-opacity="1" stroke-width="4" d=" M3.174999952316284,-95.58899688720703 C3.174999952316284,-95.58899688720703 -8.20199966430664,-94.09500122070312 -8.776000022888184,-84.53700256347656 C-9.144000053405762,-78.40699768066406 -5.090000152587891,-69.0979995727539 -5.826000213623047,-61.77299880981445 C-6.561999797821045,-54.448001861572266 -2.2960000038146973,-51.439998626708984 -2.6559998989105225,-44.97100067138672 C-2.821000099182129,-42.00899887084961 2.0950000286102295,-37.94300079345703 1.7269999980926514,-34.262001037597656 C1.3589999675750732,-30.582000732421875 1.4919999837875366,-25.023000717163086 1.9129999876022339,-20.32900047302246 C2.4649999141693115,-14.173999786376953 6.331999778747559,-14.493000030517578 6.699999809265137,-5.291999816894531 C7.067999839782715,3.9079999923706055 0.9480000138282776,18.89699935913086 2.4159998893737793,20.22100067138672 C3.884000062942505,21.545000076293945 0.5609999895095825,27.39299964904785 1.6019999980926514,32.22600173950195 C3.24399995803833,39.849998474121094 0.921999990940094,43.486000061035156 0.18700000643730164,45.694000244140625 C-0.5490000247955322,47.902000427246094 1.003000020980835,47.53799819946289 1.7400000095367432,50.11399841308594 C2.4760000705718994,52.689998626708984 1.2640000581741333,59.97700119018555 0.05999999865889549,59.99300003051758 C-1.1440000534057617,60.00899887084961 7.224999904632568,72.30400085449219 -3.072000026702881,71.19499969482422 C-7.699999809265137,70.69599914550781 -8.013999938964844,67.63300323486328 -8.142999649047852,65.12000274658203 C-8.484999656677246,58.44900131225586 -9.437000274658203,62.834999084472656 -8.652000427246094,58.494998931884766 C-7.388000011444092,51.500999450683594 -8.008000373840332,53.321998596191406 -8.020000457763672,51.50400161743164 C-8.0600004196167,45.23099899291992 -5.90500020980835,47.47100067138672 -5.9679999351501465,42.358001708984375 C-6.104000091552734,31.215999603271484 -7.676000118255615,26.575000762939453 -6.572000026702881,25.101999282836914 C-5.4679999351501465,23.631000518798828 -3.8480000495910645,13.871999740600586 -2.8480000495910645,9.571000099182129 C1.0360000133514404,-7.140999794006348 -1.3309999704360962,7.066999912261963 -1.4630000591278076,3.947000026702881 C-1.819000005722046,-4.464000225067139 -3.1760001182556152,-8.201000213623047 -2.438999891281128,-12.986000061035156 C-1.7029999494552612,-17.770000457763672 -4.4720001220703125,-24.18000030517578 -6.311999797821045,-28.22800064086914 C-8.152000427246094,-32.2760009765625 -8.157999992370605,-41.36399841308594 -8.652000427246094,-46.17900085449219 C-9.437000274658203,-53.827999114990234 -15.13599967956543,-68.47799682617188 -16.851999282836914,-79.65699768066406 C-17.82699966430664,-86.00700378417969 -12.78499984741211,-97.38600158691406 -12.78499984741211,-98.85700225830078 C-12.78499984741211,-100.33000183105469 -14.175000190734863,-106.02999877929688 -12.149999618530273,-108.19999694824219 C-8.336000442504883,-112.28600311279297 -5.543000221252441,-105.73999786376953 -1.3200000524520874,-104.51399993896484 C1.5290000438690186,-103.68699645996094 9.446999549865723,-106.48699951171875 10.1899995803833,-104.10900115966797 C11.552000045776367,-99.7509994506836 3.174999952316284,-95.58899688720703 3.174999952316284,-95.58899688720703z"></path></g><g opacity="1" transform="matrix(1,0,0,1,20.878999710083008,41.79199981689453)"><path fill="rgb(255,253,252)" fill-opacity="1" d=" M-12.852999687194824,-1.944000005722046 C-12.852999687194824,-1.944000005722046 -13.701000213623047,1.3309999704360962 -12.597000122070312,2.190999984741211 C-11.493000030517578,3.049999952316284 -10.854999542236328,2.7309999465942383 -10.49899959564209,1.909999966621399 C-10.142999649047852,1.0880000591278076 -9.62600040435791,-1.8079999685287476 -10.729999542236328,-2.6670000553131104 C-11.833999633789062,-3.5269999504089355 -12.852999687194824,-1.944000005722046 -12.852999687194824,-1.944000005722046z"></path></g></g><g style="display: none;"><g><path></path><path stroke-linecap="butt" stroke-linejoin="miter" fill-opacity="0" stroke-miterlimit="4"></path></g></g><g style="display: none;"><g><path></path><path stroke-linecap="butt" stroke-linejoin="miter" fill-opacity="0" stroke-miterlimit="4"></path></g></g><g style="display: none;"><g><path></path><path stroke-linecap="butt" stroke-linejoin="miter" fill-opacity="0" stroke-miterlimit="4"></path></g></g><g style="display: none;"><g><path></path><path stroke-linecap="butt" stroke-linejoin="miter" fill-opacity="0" stroke-miterlimit="4"></path></g></g><g style="display: block;" transform="matrix(0.9700000286102295,0,0,0.9700000286102295,185.63327026367188,96.63341522216797)" opacity="0.86"><g opacity="1" transform="matrix(1,0,0,1,0,0)"><g opacity="1" transform="matrix(1,0,0,1,40.4630012512207,25.905000686645508)"><path fill="rgb(255,200,153)" fill-opacity="1" d=" M-6.019999980926514,-10.083000183105469 C-6.019999980926514,-10.083000183105469 -3.3489999771118164,-3.6070001125335693 0.5730000138282776,2.305000066757202 C4.494999885559082,8.217000007629395 6.019999980926514,10.083000183105469 6.019999980926514,10.083000183105469"></path><path stroke-linecap="round" stroke-linejoin="round" fill-opacity="0" stroke="rgb(180,93,50)" stroke-opacity="1" stroke-width="10" d=" M-6.019999980926514,-10.083000183105469 C-6.019999980926514,-10.083000183105469 -3.3489999771118164,-3.6070001125335693 0.5730000138282776,2.305000066757202 C4.494999885559082,8.217000007629395 6.019999980926514,10.083000183105469 6.019999980926514,10.083000183105469"></path></g><g opacity="1" transform="matrix(1,0,0,1,48.41899871826172,47.750999450683594)"><path fill="rgb(255,228,220)" fill-opacity="1" d=" M-4.323999881744385,-2.1459999084472656 C-5.684999942779541,-1.3420000076293945 -5.355999946594238,1.3580000400543213 -3.9000000953674316,2.23799991607666 C-3.0950000286102295,2.7249999046325684 -2.135999917984009,3.128000020980835 -1.0640000104904175,3.242000102996826 C2.121999979019165,3.578000068664551 5.684999942779541,3.244999885559082 5.619999885559082,1.2120000123977661 C5.545000076293945,-1.1239999532699585 3.931999921798706,-2.9690001010894775 0.8140000104904175,-3.2980000972747803 C-1.840999960899353,-3.5789999961853027 -3.119999885559082,-2.8559999465942383 -4.323999881744385,-2.1459999084472656z"></path></g><g opacity="1" transform="matrix(1,0,0,1,42.79600143432617,56.983001708984375)"><path fill="rgb(234,138,112)" fill-opacity="1" d=" M-11.362000465393066,-10.309000015258789 C-11.362000465393066,-10.309000015258789 -12.265000343322754,-1.4299999475479126 -7.448999881744385,-1.128999948501587 C-2.632999897003174,-0.828000009059906 2.7839999198913574,-1.7309999465942383 6.546999931335449,-2.634000062942505 C10.309000015258789,-3.5369999408721924 11.96500015258789,-5.794000148773193 11.96500015258789,-7.14900016784668 C11.96500015258789,-8.503000259399414 14.373000144958496,-11.663000106811523 14.373000144958496,-11.663000106811523 C14.373000144958496,-11.663000106811523 24.454999923706055,-5.794000148773193 24.604999542236328,-2.4830000400543213 C24.756000518798828,0.8270000219345093 21.833999633789062,3.2780001163482666 21.833999633789062,3.2780001163482666 C21.833999633789062,3.2780001163482666 15.444000244140625,4.005000114440918 12.315999984741211,5.191999912261963 C9.189000129699707,6.377999782562256 7.550000190734863,8.229000091552734 6.395999908447266,8.602999687194824 C2.683000087738037,9.807000160217285 -2.934000015258789,8.35200023651123 -2.934000015258789,8.35200023651123 C-2.934000015258789,8.35200023651123 -6.696000099182129,11.663000106811523 -12.414999961853027,11.362000465393066 C-18.134000778198242,11.060999870300293 -24.756000518798828,8.050999641418457 -22.347999572753906,3.687000036239624 C-19.940000534057617,-0.6779999732971191 -16.77899932861328,-3.5369999408721924 -16.77899932861328,-3.5369999408721924 C-16.77899932861328,-3.5369999408721924 -11.362000465393066,-10.309000015258789 -11.362000465393066,-10.309000015258789z"></path></g><g opacity="1" transform="matrix(1,0,0,1,61.86000061035156,52.435001373291016)"><path stroke-linecap="round" stroke-linejoin="round" fill-opacity="0" stroke="rgb(178,89,45)" stroke-opacity="1" stroke-width="10" d=" M-6.046000003814697,-8.244000434875488 C-6.046000003814697,-8.244000434875488 1.8450000286102295,-5.577000141143799 5.323999881744385,-1.88100004196167 C8.722999572753906,1.7300000190734863 8.654999732971191,6.683000087738037 2.7699999809265137,7.827000141143799 C0.6240000128746033,8.244000434875488 -2.4779999256134033,7.9070000648498535 -4.422999858856201,7.5 C-6.000999927520752,7.170000076293945 -8.722999572753906,7.28000020980835 -8.722999572753906,7.28000020980835"></path></g><g opacity="1" transform="matrix(1,0,0,1,28.59000015258789,60.18000030517578)"><path stroke-linecap="round" stroke-linejoin="round" fill-opacity="0" stroke="rgb(177,89,44)" stroke-opacity="1" stroke-width="10" d=" M1.871000051498413,-12.506999969482422 C1.871000051498413,-12.506999969482422 -0.2540000081062317,-8.909000396728516 -0.2540000081062317,-8.909000396728516 C-0.2540000081062317,-8.909000396728516 -11.045000076293945,-3.5139999389648438 -5.813000202178955,4.495999813079834 C-0.5820000171661377,12.506999969482422 7.204999923706055,6.061999797821045 8.185999870300293,5.080999851226807 C9.166999816894531,4.099999904632568 11.045000076293945,3.0490000247955322 11.045000076293945,3.0490000247955322"></path></g><g opacity="1" transform="matrix(1,0,0,1,37.82899856567383,64.53299713134766)"><path fill="rgb(44,22,19)" fill-opacity="1" d=" M-5.718999862670898,0.7020000219345093 C-5.718999862670898,0.7020000219345093 -3.311000108718872,-5.316999912261963 -0.3009999990463257,-5.919000148773193 C2.7090001106262207,-6.520999908447266 5.117000102996826,-5.51800012588501 5.718999862670898,-4.11299991607666 C6.321000099182129,-2.7090001106262207 6.520999908447266,-0.10000000149011612 5.317999839782715,0.3019999861717224 C4.113999843597412,0.703000009059906 -0.902999997138977,4.515999794006348 -1.906000018119812,4.916999816894531 C-2.9089999198913574,5.317999839782715 -5.718999862670898,6.521999835968018 -6.119999885559082,5.51800012588501 C-6.520999908447266,4.515999794006348 -5.718999862670898,0.7020000219345093 -5.718999862670898,0.7020000219345093z"></path></g><g opacity="1" transform="matrix(1,0,0,1,55.676998138427734,59.41600036621094)"><path fill="rgb(44,22,19)" fill-opacity="1" d=" M6.480000019073486,1.1710000038146973 C6.88700008392334,-0.6899999976158142 5.380000114440918,-2.0409998893737793 3.6089999675750732,-2.743000030517578 C1.5420000553131104,-3.561000108718872 -0.035999998450279236,-3.61299991607666 -0.5659999847412109,-3.6610000133514404 C-1.6699999570846558,-3.76200008392334 -3.877000093460083,-3.4609999656677246 -5.182000160217285,-1.9559999704360962 C-6.076000213623047,-0.925000011920929 -6.886000156402588,3.76200008392334 -3.4749999046325684,3.76200008392334 C-0.06400000303983688,3.76200008392334 -0.8669999837875366,3.260999917984009 1.2400000095367432,3.4619998931884766 C3.3469998836517334,3.6630001068115234 5.554999828338623,2.859999895095825 6.256999969482422,1.75600004196167 C6.357999801635742,1.597000002861023 6.431000232696533,1.3960000276565552 6.480000019073486,1.1710000038146973z"></path></g></g></g><g style="display: block;" transform="matrix(0.9072253704071045,-0.48769429326057434,0.48769429326057434,0.9072253704071045,591.0172729492188,568.388671875)" opacity="1"><g opacity="1" transform="matrix(1,0,0,1,0,0)"><path fill="rgb(255,254,253)" fill-opacity="1" d=" M-198,-137 C-205,-135 -218.71600341796875,-125.42400360107422 -219.71600341796875,-117.42400360107422 C-220.71600341796875,-109.42400360107422 -222.10400390625,-76.44999694824219 -226.10400390625,-67.44999694824219 C-230.10400390625,-58.45000076293945 -231,-15 -231,-15 C-231,-15 -251,21 -251,21 C-251,21 -225,27 -218,30 C-211,33 -214,38 -204,44 C-194,50 -183,53 -183,53 C-183,53 -155,40 -155,40 C-155,40 -140,28 -140,28 C-140,28 -147,-67 -147,-67 C-147,-67 -159.87600708007812,-97.20899963378906 -169.94500732421875,-116.15499877929688 C-174.1840057373047,-124.13099670410156 -177.92599487304688,-130.11099243164062 -180,-131 C-187,-134 -191,-139 -198,-137z"></path><path stroke-linecap="round" stroke-linejoin="round" fill-opacity="0" stroke="rgb(85,89,158)" stroke-opacity="1" stroke-width="7" d=" M-198,-137 C-205,-135 -218.71600341796875,-125.42400360107422 -219.71600341796875,-117.42400360107422 C-220.71600341796875,-109.42400360107422 -222.10400390625,-76.44999694824219 -226.10400390625,-67.44999694824219 C-230.10400390625,-58.45000076293945 -231,-15 -231,-15 C-231,-15 -251,21 -251,21 C-251,21 -225,27 -218,30 C-211,33 -214,38 -204,44 C-194,50 -183,53 -183,53 C-183,53 -155,40 -155,40 C-155,40 -140,28 -140,28 C-140,28 -147,-67 -147,-67 C-147,-67 -159.87600708007812,-97.20899963378906 -169.94500732421875,-116.15499877929688 C-174.1840057373047,-124.13099670410156 -177.92599487304688,-130.11099243164062 -180,-131 C-187,-134 -191,-139 -198,-137z"></path></g><g opacity="1" transform="matrix(1,0,0,1,0,0)"><path fill="rgb(178,203,239)" fill-opacity="1" d=" M-186,-104 C-192,-95 -204,-46 -213,-27 C-222,-8 -232,19 -232,19 C-232,19 -212,25 -202,33 C-192,41 -186,47 -172,40 C-158,33 -147,4 -147,4 C-147,4 -166,-72 -166,-72 C-166,-72 -180,-113 -186,-104z"></path></g><g opacity="1" transform="matrix(1,0,0,1,0,0)"><path fill="rgb(255,254,253)" fill-opacity="1" d=" M-196,-83 C-196,-83 -206,-17 -210,-6 C-214,5 -220,24 -220,24"></path><path stroke-linecap="round" stroke-linejoin="miter" fill-opacity="0" stroke-miterlimit="4" stroke="rgb(85,89,158)" stroke-opacity="1" stroke-width="7" d=" M-196,-83 C-196,-83 -206,-17 -210,-6 C-214,5 -220,24 -220,24"></path></g></g><g style="display: block;" transform="matrix(0.8015278577804565,-0.4308747947216034,0.4308747947216034,0.8015278577804565,435.0818176269531,638.7821044921875)" opacity="1"><g opacity="1" transform="matrix(1,0,0,1,0,0)"><path fill="rgb(255,194,153)" fill-opacity="1" d=" M52,86 C52,86 53.597999572753906,23.302000045776367 53.597999572753906,6.302000045776367 C53.597999572753906,-10.697999954223633 58.426998138427734,-22.184999465942383 52.426998138427734,-29.184999465942383 C46.426998138427734,-36.185001373291016 -5,-38 -16,-34 C-27,-30 -30,-11.5 -33,-7.5 C-36,-3.5 -36.5,45.5 -24,61.5 C-20.104999542236328,66.48600006103516 -16.900999069213867,72.4209976196289 -16.243000030517578,73.34700012207031 C-14,76.5 -10.595000267028809,86.62000274658203 -10,89 C-9,93 -4,115 -4,115"></path><path stroke-linecap="round" stroke-linejoin="miter" fill-opacity="0" stroke-miterlimit="4" stroke="rgb(182,94,49)" stroke-opacity="1" stroke-width="12" d=" M52,86 C52,86 53.597999572753906,23.302000045776367 53.597999572753906,6.302000045776367 C53.597999572753906,-10.697999954223633 58.426998138427734,-22.184999465942383 52.426998138427734,-29.184999465942383 C46.426998138427734,-36.185001373291016 -5,-38 -16,-34 C-27,-30 -30,-11.5 -33,-7.5 C-36,-3.5 -36.5,45.5 -24,61.5 C-20.104999542236328,66.48600006103516 -16.900999069213867,72.4209976196289 -16.243000030517578,73.34700012207031 C-14,76.5 -10.595000267028809,86.62000274658203 -10,89 C-9,93 -4,115 -4,115"></path></g><g opacity="1" transform="matrix(1,0,0,1,0,0)"><path fill="rgb(245,169,129)" fill-opacity="1" d=" M49.66400146484375,-27.465999603271484 C49.66400146484375,-27.465999603271484 32.91699981689453,-26.64900016784668 32.91699981689453,-26.64900016784668 C32.91699981689453,-26.64900016784668 38.41699981689453,-18.64900016784668 27.91699981689453,-7.64900016784668 C24.733999252319336,-4.314000129699707 10.916999816894531,-0.14900000393390656 3.9170000553131104,1.3509999513626099 C-3.0829999446868896,2.8510000705718994 0.9169999957084656,8.35099983215332 -0.08299999684095383,13.85099983215332 C-1.0829999446868896,19.35099983215332 9.35099983215332,52.09299850463867 15.416999816894531,61.35100173950195 C24.91699981689453,75.85099792480469 34.41699981689453,72.85099792480469 39.91699981689453,68.85099792480469 C45.41699981689453,64.85099792480469 46.58399963378906,47.948001861572266 46.58399963378906,47.948001861572266 C46.58399963378906,47.948001861572266 51.36399841308594,-6.263999938964844 52.36399841308594,-12.763999938964844 C53.36399841308594,-19.263999938964844 49.66400146484375,-27.465999603271484 49.66400146484375,-27.465999603271484z"></path></g><g opacity="1" transform="matrix(1,0,0,1,0,0)"><path fill="rgb(255,194,153)" fill-opacity="1" d=" M-3.25,6 C-3.25,6 -7.063000202178955,10.425999641418457 -8.75,11.5 C-11.5,13.25 -14.75,14.25 -14.75,14.25"></path><path stroke-linecap="round" stroke-linejoin="miter" fill-opacity="0" stroke-miterlimit="4" stroke="rgb(220,146,108)" stroke-opacity="1" stroke-width="5" d=" M-3.25,6 C-3.25,6 -7.063000202178955,10.425999641418457 -8.75,11.5 C-11.5,13.25 -14.75,14.25 -14.75,14.25"></path></g><g opacity="1" transform="matrix(1,0,0,1,0,0)"><path fill="rgb(255,194,153)" fill-opacity="1" d=" M15.75,-5.5 C15.75,-5.5 14.5,-1.5 11.75,1.5 C9.61299991607666,3.8310000896453857 6.5,6.5 6.5,6.5"></path><path stroke-linecap="round" stroke-linejoin="miter" fill-opacity="0" stroke-miterlimit="4" stroke="rgb(220,146,108)" stroke-opacity="1" stroke-width="5" d=" M15.75,-5.5 C15.75,-5.5 14.5,-1.5 11.75,1.5 C9.61299991607666,3.8310000896453857 6.5,6.5 6.5,6.5"></path></g><g opacity="1" transform="matrix(1,0,0,1,0,0)"><path fill="rgb(255,194,153)" fill-opacity="1" d=" M38,-18 C38,-18 36.75,-12.5 33.75,-8 C31.63800048828125,-4.831999778747559 27.5,-2.5 27.5,-2.5"></path><path stroke-linecap="round" stroke-linejoin="miter" fill-opacity="0" stroke-miterlimit="4" stroke="rgb(182,94,49)" stroke-opacity="1" stroke-width="5" d=" M38,-18 C38,-18 36.75,-12.5 33.75,-8 C31.63800048828125,-4.831999778747559 27.5,-2.5 27.5,-2.5"></path></g><g opacity="1" transform="matrix(1,0,0,1,0,0)"><path fill="rgb(255,194,153)" fill-opacity="1" d=" M18.136999130249023,17.607999801635742 C18.136999130249023,17.607999801635742 19.55699920654297,32.20100021362305 18.84600067138672,37.64899826049805 C18.135000228881836,43.09700012207031 16.3700008392334,52.82600021362305 16.570999145507812,55.08300018310547 C17.020999908447266,60.12900161743164 20.288999557495117,73.30000305175781 20.288999557495117,73.30000305175781"></path><path stroke-linecap="round" stroke-linejoin="miter" fill-opacity="0" stroke-miterlimit="4" stroke="rgb(182,94,49)" stroke-opacity="1" stroke-width="5" d=" M18.136999130249023,17.607999801635742 C18.136999130249023,17.607999801635742 19.55699920654297,32.20100021362305 18.84600067138672,37.64899826049805 C18.135000228881836,43.09700012207031 16.3700008392334,52.82600021362305 16.570999145507812,55.08300018310547 C17.020999908447266,60.12900161743164 20.288999557495117,73.30000305175781 20.288999557495117,73.30000305175781"></path></g><g opacity="1" transform="matrix(1,0,0,1,0,0)"><path fill="rgb(255,194,153)" fill-opacity="1" d=" M40.56999969482422,15.548999786376953 C40.56999969482422,15.548999786376953 39.50299835205078,23.72100067138672 39.14799880981445,26.44499969482422 C38.792999267578125,29.16900062561035 40.189998626708984,35.446998596191406 40.189998626708984,35.446998596191406"></path><path stroke-linecap="round" stroke-linejoin="miter" fill-opacity="0" stroke-miterlimit="4" stroke="rgb(182,94,49)" stroke-opacity="1" stroke-width="5" d=" M40.56999969482422,15.548999786376953 C40.56999969482422,15.548999786376953 39.50299835205078,23.72100067138672 39.14799880981445,26.44499969482422 C38.792999267578125,29.16900062561035 40.189998626708984,35.446998596191406 40.189998626708984,35.446998596191406"></path></g></g><g style="display: block;" transform="matrix(0.7595891356468201,-0.5011231303215027,0.5011231303215027,0.7595891356468201,581.2970581054688,555.9736938476562)" opacity="1"><g opacity="1" transform="matrix(1,0,0,1,0,0)"><path fill="rgb(240,158,125)" fill-opacity="1" d=" M-126.5,-31 C-126.5,-31 -135,-55.5 -135.5,-60 C-136,-64.5 -140,-77 -142,-81 C-144,-85 -149.5,-93 -150,-94.5 C-150.5,-96 -162,-112.5 -164,-116.5 C-166,-120.5 -171,-131 -173,-130.5 C-175,-130 -186.5,-130.5 -184,-121 C-182.2689971923828,-114.4229965209961 -177,-106.5 -175.5,-104 C-174,-101.5 -167.5,-79.5 -167.5,-79.5 C-167.5,-79.5 -158,-62 -157.5,-60 C-157,-58 -158.41799926757812,-48.82099914550781 -158.41799926757812,-48.82099914550781"></path><path stroke-linecap="round" stroke-linejoin="miter" fill-opacity="0" stroke-miterlimit="4" stroke="rgb(182,94,49)" stroke-opacity="1" stroke-width="11" d=" M-126.5,-31 C-126.5,-31 -135,-55.5 -135.5,-60 C-136,-64.5 -140,-77 -142,-81 C-144,-85 -149.5,-93 -150,-94.5 C-150.5,-96 -162,-112.5 -164,-116.5 C-166,-120.5 -171,-131 -173,-130.5 C-175,-130 -186.5,-130.5 -184,-121 C-182.2689971923828,-114.4229965209961 -177,-106.5 -175.5,-104 C-174,-101.5 -167.5,-79.5 -167.5,-79.5 C-167.5,-79.5 -158,-62 -157.5,-60 C-157,-58 -158.41799926757812,-48.82099914550781 -158.41799926757812,-48.82099914550781"></path></g><g opacity="1" transform="matrix(1,0,0,1,0,0)"><path stroke-linecap="round" stroke-linejoin="miter" fill-opacity="0" stroke-miterlimit="4" stroke="rgb(182,94,49)" stroke-opacity="1" stroke-width="3" d=" M-163.75,-113 C-163.75,-113 -168.25,-110.5 -170,-110.75 C-171.50999450683594,-110.96600341796875 -175.1909942626953,-116.50599670410156 -176.24000549316406,-120.10700225830078 C-176.406005859375,-120.67900085449219 -177,-124.40799713134766 -177,-124.75 C-177,-127.25 -175,-127.75 -172.75,-128.5 C-170.5,-129.25 -168.25,-127.25 -168.25,-127.25"></path></g></g><g style="display: block;" transform="matrix(0.7508622407913208,-0.5141068696975708,0.5141068696975708,0.7508622407913208,567.067626953125,551.8596801757812)" opacity="1"><g opacity="1" transform="matrix(1,0,0,1,0,0)"><path fill="rgb(255,194,153)" fill-opacity="1" d=" M-136.5,-29.5 C-136.5,-29.5 -146.5,-58 -148,-63.5 C-149.5,-69 -154,-81.5 -157.5,-86.5 C-161,-91.5 -161.22799682617188,-93.22799682617188 -165.5,-97.5 C-171.5,-103.5 -175,-108 -178.5,-111.5 C-179.93800354003906,-112.93800354003906 -182.50799560546875,-115.66899871826172 -185.51199340820312,-117.7770004272461 C-189.75,-120.75 -193.5,-124.5 -193.5,-124.5 C-193.5,-124.5 -199.76400756835938,-125.97200012207031 -202,-121.5 C-205.5,-114.5 -203.5,-110 -199,-103 C-196.21600341796875,-98.66999816894531 -180,-79.5 -178,-78 C-174.2259979248047,-75.16999816894531 -173.5,-62.5 -171.5,-55 C-169.5,-47.5 -166.53500366210938,-33.625999450683594 -166.53500366210938,-33.625999450683594"></path><path stroke-linecap="round" stroke-linejoin="miter" fill-opacity="0" stroke-miterlimit="4" stroke="rgb(182,94,49)" stroke-opacity="1" stroke-width="11" d=" M-136.5,-29.5 C-136.5,-29.5 -146.5,-58 -148,-63.5 C-149.5,-69 -154,-81.5 -157.5,-86.5 C-161,-91.5 -161.22799682617188,-93.22799682617188 -165.5,-97.5 C-171.5,-103.5 -175,-108 -178.5,-111.5 C-179.93800354003906,-112.93800354003906 -182.50799560546875,-115.66899871826172 -185.51199340820312,-117.7770004272461 C-189.75,-120.75 -193.5,-124.5 -193.5,-124.5 C-193.5,-124.5 -199.76400756835938,-125.97200012207031 -202,-121.5 C-205.5,-114.5 -203.5,-110 -199,-103 C-196.21600341796875,-98.66999816894531 -180,-79.5 -178,-78 C-174.2259979248047,-75.16999816894531 -173.5,-62.5 -171.5,-55 C-169.5,-47.5 -166.53500366210938,-33.625999450683594 -166.53500366210938,-33.625999450683594"></path></g><g opacity="1" transform="matrix(1,0,0,1,0,0)"><path fill="rgb(255,194,153)" fill-opacity="1" d=" M-161,-75.5 C-161,-75.5 -156,-77 -156,-77"></path><path stroke-linecap="round" stroke-linejoin="miter" fill-opacity="0" stroke-miterlimit="4" stroke="rgb(182,94,49)" stroke-opacity="1" stroke-width="4" d=" M-161,-75.5 C-161,-75.5 -156,-77 -156,-77"></path></g><g opacity="1" transform="matrix(1,0,0,1,0,0)"><path stroke-linecap="round" stroke-linejoin="miter" fill-opacity="0" stroke-miterlimit="4" stroke="rgb(182,94,49)" stroke-opacity="1" stroke-width="4" d=" M-180.25,-109.375 C-180.25,-109.375 -185.14700317382812,-103.81400299072266 -187.01400756835938,-104.69200134277344 C-191.125,-106.625 -196.33299255371094,-113.79199981689453 -196.625,-115.25 C-197.125,-117.75 -194.5,-122.25 -189.75,-120.5"></path></g></g><g style="display: block;" transform="matrix(0.8015278577804565,-0.4308747947216034,0.4308747947216034,0.8015278577804565,571.7723999023438,566.3348999023438)" opacity="1"><g opacity="1" transform="matrix(1,0,0,1,0,0)"><path fill="rgb(255,194,153)" fill-opacity="1" d=" M-158.58599853515625,-25.2549991607666 C-158.58599853515625,-25.2549991607666 -164.5,-52.5 -167,-57 C-169.5,-61.5 -173.5,-66.5 -177,-67 C-180.5,-67.5 -188.5,-70.5 -193,-70.5 C-197.5,-70.5 -207,-71 -208,-69 C-209,-67 -212.5,-61 -214,-58.5 C-215.5,-56 -220.5,-51 -217,-49 C-213.5,-47 -202.71400451660156,-44.573001861572266 -200.5,-49 C-198,-54 -191.5,-50.5 -188,-49.5 C-184.5,-48.5 -184,-36.5 -183,-32.5"></path><path stroke-linecap="round" stroke-linejoin="miter" fill-opacity="0" stroke-miterlimit="4" stroke="rgb(182,94,49)" stroke-opacity="1" stroke-width="11" d=" M-158.58599853515625,-25.2549991607666 C-158.58599853515625,-25.2549991607666 -164.5,-52.5 -167,-57 C-169.5,-61.5 -173.5,-66.5 -177,-67 C-180.5,-67.5 -188.5,-70.5 -193,-70.5 C-197.5,-70.5 -207,-71 -208,-69 C-209,-67 -212.5,-61 -214,-58.5 C-215.5,-56 -220.5,-51 -217,-49 C-213.5,-47 -202.71400451660156,-44.573001861572266 -200.5,-49 C-198,-54 -191.5,-50.5 -188,-49.5 C-184.5,-48.5 -184,-36.5 -183,-32.5"></path></g><g opacity="1" transform="matrix(1,0,0,1,0,0)"><path fill="rgb(225,143,111)" fill-opacity="1" d=" M-203,-68 C-203,-68 -207.5,-65.5 -208,-64.5 C-208.5,-63.5 -214.25,-54.75 -215.5,-51.75 C-216.75,-48.75 -208,-49 -205.5,-49.25 C-203,-49.5 -203,-54.25 -191.5,-52.75 C-180,-51.25 -183.5,-28 -183.5,-28 C-183.5,-28 -179.5,-25.25 -179.5,-25.25 C-179.5,-25.25 -177.75,-42.75 -177.75,-42.75 C-177.75,-42.75 -180.75,-51.5 -183,-53.75 C-185.25,-56 -194,-55.75 -197.5,-60 C-200.71800231933594,-63.90800094604492 -193,-67.75 -193,-67.75 C-193,-67.75 -203,-68 -203,-68z"></path></g></g><g style="display: block;" transform="matrix(0.8015278577804565,-0.4308747947216034,0.4308747947216034,0.8015278577804565,571.7723999023438,566.3348999023438)" opacity="1"><g opacity="1" transform="matrix(1,0,0,1,0,0)"><path fill="rgb(255,194,153)" fill-opacity="1" d=" M-186,-25 C-186,-25 -191.5,-33 -196,-37 C-200.5,-41 -208.5,-46.5 -213,-47.5 C-216.7209930419922,-48.32699966430664 -219.44200134277344,-44.7859992980957 -221.1840057373047,-43.1609992980957 C-221.5489959716797,-42.82099914550781 -221.82699584960938,-42.43299865722656 -222,-42 C-223,-39.5 -227.5,-37 -217.5,-26.5 C-210.4250030517578,-19.070999145507812 -207.5,-13 -206,-10.5 C-204.5,-8 -200.5,1.5 -200.5,1.5"></path><path stroke-linecap="round" stroke-linejoin="miter" fill-opacity="0" stroke-miterlimit="4" stroke="rgb(189,103,59)" stroke-opacity="1" stroke-width="11" d=" M-186,-25 C-186,-25 -191.5,-33 -196,-37 C-200.5,-41 -208.5,-46.5 -213,-47.5 C-216.7209930419922,-48.32699966430664 -219.44200134277344,-44.7859992980957 -221.1840057373047,-43.1609992980957 C-221.5489959716797,-42.82099914550781 -221.82699584960938,-42.43299865722656 -222,-42 C-223,-39.5 -227.5,-37 -217.5,-26.5 C-210.4250030517578,-19.070999145507812 -207.5,-13 -206,-10.5 C-204.5,-8 -200.5,1.5 -200.5,1.5"></path></g><g opacity="1" transform="matrix(1,0,0,1,0,0)"><path fill="rgb(226,143,112)" fill-opacity="1" d=" M-216.5,-44.25 C-220.25,-43 -220.5,-36.25 -219.5,-34.25 C-218.5,-32.25 -210.25,-20.5 -207,-16.25 C-203.75,-12 -197.75,0.25 -197.75,0.25 C-197.75,0.25 -197.5,-2.25 -197.75,-7.25 C-197.81700134277344,-8.595000267028809 -200.25,-16.25 -203,-19 C-205.75,-21.75 -209.25,-25.5 -210.5,-27.75 C-211.75,-30 -215.15199279785156,-32.6879997253418 -210.25,-36.5 C-205.75,-40 -200.5,-36 -200.5,-36 C-200.5,-36 -203.25,-39 -205.25,-40.75 C-207.25,-42.5 -212.75,-45.5 -216.5,-44.25z"></path></g></g><g style="display: block;" transform="matrix(0.9673827886581421,-0.25331899523735046,0.25331899523735046,0.9673827886581421,372.9216003417969,638.3953857421875)" opacity="1"><g opacity="1" transform="matrix(1,0,0,1,0,0)"><path fill="rgb(60,23,20)" fill-opacity="1" d=" M125,78 C125,78 56,100 56,100 C56,100 69,167 77,197 C85,227 96,270 96,270 C96,270 177,264 177,264 C177,264 152.67799377441406,180.61500549316406 145,151 C138,124 125,78 125,78z"></path><path stroke-linecap="round" stroke-linejoin="round" fill-opacity="0" stroke="rgb(64,25,22)" stroke-opacity="1" stroke-width="8" d=" M125,78 C125,78 56,100 56,100 C56,100 69,167 77,197 C85,227 96,270 96,270 C96,270 177,264 177,264 C177,264 152.67799377441406,180.61500549316406 145,151 C138,124 125,78 125,78z"></path></g></g></g></g></g></svg>