<svg xmlns="http://www.w3.org/2000/svg" xmlns:xlink="http://www.w3.org/1999/xlink" viewBox="0 0 512 512" width="512" height="512" style="width: 100%; height: 100%; transform: translate3d(0,0,0); content-visibility: visible;" preserveAspectRatio="xMidYMid meet"><defs><clipPath id="__lottie_element_2"><rect width="512" height="512" x="0" y="0"></rect></clipPath><radialGradient id="__lottie_element_22" spreadMethod="pad" gradientUnits="userSpaceOnUse" cx="103" cy="-137.56100463867188" r="302.9301247892311" fx="103" fy="-137.56100463867188"><stop offset="0%" stop-color="rgb(249,228,212)"></stop><stop offset="50%" stop-color="rgb(250,212,184)"></stop><stop offset="100%" stop-color="rgb(251,197,156)"></stop></radialGradient><radialGradient id="__lottie_element_23" spreadMethod="pad" gradientUnits="userSpaceOnUse" cx="-80" cy="9.333999633789062" r="133.31533767660483" fx="-80" fy="9.333999633789062"><stop offset="0%" stop-color="rgb(249,228,212)"></stop><stop offset="50%" stop-color="rgb(250,212,184)"></stop><stop offset="100%" stop-color="rgb(251,197,156)"></stop></radialGradient><radialGradient id="__lottie_element_24" spreadMethod="pad" gradientUnits="userSpaceOnUse" cx="156" cy="20.55900001525879" r="87.21897567464316" fx="156" fy="20.55900001525879"><stop offset="0%" stop-color="rgb(249,228,212)"></stop><stop offset="50%" stop-color="rgb(250,212,184)"></stop><stop offset="100%" stop-color="rgb(251,197,156)"></stop></radialGradient><radialGradient id="__lottie_element_27" spreadMethod="pad" gradientUnits="userSpaceOnUse" cx="-465.5820007324219" cy="13.82699966430664" r="309.66144190626403" fx="-465.5820007324219" fy="13.82699966430664"><stop offset="0%" stop-color="rgb(249,228,212)"></stop><stop offset="50%" stop-color="rgb(250,212,184)"></stop><stop offset="100%" stop-color="rgb(251,197,156)"></stop></radialGradient><radialGradient id="__lottie_element_28" spreadMethod="pad" gradientUnits="userSpaceOnUse" cx="-319.385986328125" cy="32.09299850463867" r="148.89784128115554" fx="-319.385986328125" fy="32.09299850463867"><stop offset="0%" stop-color="rgb(249,228,212)"></stop><stop offset="50%" stop-color="rgb(250,212,184)"></stop><stop offset="100%" stop-color="rgb(251,197,156)"></stop></radialGradient><radialGradient id="__lottie_element_29" spreadMethod="pad" gradientUnits="userSpaceOnUse" cx="-319.385986328125" cy="32.09299850463867" r="148.89784128115554" fx="-319.385986328125" fy="32.09299850463867"><stop offset="0%" stop-color="rgb(249,228,212)"></stop><stop offset="50%" stop-color="rgb(250,212,184)"></stop><stop offset="100%" stop-color="rgb(251,197,156)"></stop></radialGradient><radialGradient id="__lottie_element_33" spreadMethod="pad" gradientUnits="userSpaceOnUse" cx="-465.5820007324219" cy="13.82699966430664" r="309.66144190626403" fx="-465.5820007324219" fy="13.82699966430664"><stop offset="0%" stop-color="rgb(249,228,212)"></stop><stop offset="50%" stop-color="rgb(250,212,184)"></stop><stop offset="100%" stop-color="rgb(251,197,156)"></stop></radialGradient><radialGradient id="__lottie_element_34" spreadMethod="pad" gradientUnits="userSpaceOnUse" cx="-319.385986328125" cy="32.09299850463867" r="148.89784128115554" fx="-319.385986328125" fy="32.09299850463867"><stop offset="0%" stop-color="rgb(249,228,212)"></stop><stop offset="50%" stop-color="rgb(250,212,184)"></stop><stop offset="100%" stop-color="rgb(251,197,156)"></stop></radialGradient><radialGradient id="__lottie_element_35" spreadMethod="pad" gradientUnits="userSpaceOnUse" cx="-319.385986328125" cy="32.09299850463867" r="148.89784128115554" fx="-319.385986328125" fy="32.09299850463867"><stop offset="0%" stop-color="rgb(249,228,212)"></stop><stop offset="50%" stop-color="rgb(250,212,184)"></stop><stop offset="100%" stop-color="rgb(251,197,156)"></stop></radialGradient><radialGradient id="__lottie_element_40" spreadMethod="pad" gradientUnits="userSpaceOnUse" cx="13" cy="-140" r="26.172000885009766" fx="13" fy="-140"><stop offset="0%" stop-color="rgb(249,228,212)"></stop><stop offset="50%" stop-color="rgb(250,212,184)"></stop><stop offset="100%" stop-color="rgb(251,197,156)"></stop></radialGradient><radialGradient id="__lottie_element_44" spreadMethod="pad" gradientUnits="userSpaceOnUse" cx="-64" cy="-84" r="33.13199996948242" fx="-64" fy="-84"><stop offset="0%" stop-color="rgb(249,228,212)"></stop><stop offset="50%" stop-color="rgb(250,212,184)"></stop><stop offset="100%" stop-color="rgb(251,197,156)"></stop></radialGradient><radialGradient id="__lottie_element_45" spreadMethod="pad" gradientUnits="userSpaceOnUse" cx="111" cy="-87" r="19.155009561560995" fx="111" fy="-87"><stop offset="0%" stop-color="rgb(249,228,212)"></stop><stop offset="50%" stop-color="rgb(250,212,184)"></stop><stop offset="100%" stop-color="rgb(251,197,156)"></stop></radialGradient><radialGradient id="__lottie_element_49" spreadMethod="pad" gradientUnits="userSpaceOnUse" cx="37" cy="-53" r="13.551998138427734" fx="37" fy="-53"><stop offset="0%" stop-color="rgb(249,228,212)"></stop><stop offset="50%" stop-color="rgb(250,212,184)"></stop><stop offset="100%" stop-color="rgb(251,197,156)"></stop></radialGradient></defs><g clip-path="url(#__lottie_element_2)"><g style="display: none;"><g><path></path><path stroke-linecap="round" stroke-linejoin="round" fill-opacity="0"></path></g></g><g style="display: block;" transform="matrix(1,0,0,1,256,256)" opacity="1"><g opacity="1" transform="matrix(1,0,0,1,1.2799999713897705,1.0479999780654907)"><path fill="url(#__lottie_element_22)" fill-opacity="1" d=" M216.4510040283203,3.3450000286102295 C218.8489990234375,120.8290023803711 133.30999755859375,215.0659942626953 4.046000003814697,215.78399658203125 C-124.94200134277344,216.5 -211.1439971923828,120.54399871826172 -213.54200744628906,3.059999942779541 C-215.94000244140625,-114.42400360107422 -127.41600036621094,-207.04200744628906 -9.699999809265137,-210.6750030517578 C130.6699981689453,-215.0070037841797 214.05299377441406,-114.13899993896484 216.4510040283203,3.3450000286102295z"></path><path stroke-linecap="butt" stroke-linejoin="miter" fill-opacity="0" stroke-miterlimit="10" stroke="rgb(184,99,72)" stroke-opacity="1" stroke-width="17.008" d=" M216.4510040283203,3.3450000286102295 C218.8489990234375,120.8290023803711 133.30999755859375,215.0659942626953 4.046000003814697,215.78399658203125 C-124.94200134277344,216.5 -211.1439971923828,120.54399871826172 -213.54200744628906,3.059999942779541 C-215.94000244140625,-114.42400360107422 -127.41600036621094,-207.04200744628906 -9.699999809265137,-210.6750030517578 C130.6699981689453,-215.0070037841797 214.05299377441406,-114.13899993896484 216.4510040283203,3.3450000286102295z"></path></g><g opacity="0.44" transform="matrix(1,0,0,1,0,0)"><path fill="url(#__lottie_element_23)" fill-opacity="1" d=" M-126.37100219726562,10.213000297546387 C-98.07599639892578,42.8390007019043 -96.05799865722656,82.6259994506836 -96.05799865722656,82.6259994506836"></path><path stroke-linecap="round" stroke-linejoin="round" fill-opacity="0" stroke="rgb(184,99,72)" stroke-opacity="1" stroke-width="14.608" d=" M-126.37100219726562,10.213000297546387 C-98.07599639892578,42.8390007019043 -96.05799865722656,82.6259994506836 -96.05799865722656,82.6259994506836"></path></g><g opacity="0.46" transform="matrix(1,0,0,1,0,0)"><path fill="url(#__lottie_element_24)" fill-opacity="1" d=" M135.77699279785156,21.72100067138672 C118.19400024414062,31.312000274658203 115.1520004272461,68.9520034790039 115.1520004272461,68.9520034790039"></path><path stroke-linecap="round" stroke-linejoin="round" fill-opacity="0" stroke="rgb(184,99,72)" stroke-opacity="1" stroke-width="14.608" d=" M135.77699279785156,21.72100067138672 C118.19400024414062,31.312000274658203 115.1520004272461,68.9520034790039 115.1520004272461,68.9520034790039"></path></g><g opacity="0.35000000000000003" transform="matrix(1,0,0,1,0,0)"><path fill="rgb(184,99,72)" fill-opacity="1" d=" M-166.83399963378906,-127.81800079345703 C-229.6739959716797,58.689998626708984 -115.68399810791016,113.58300018310547 -85.53299713134766,138.53599548339844 C-55.38199996948242,163.48899841308594 -51.084999084472656,183.38400268554688 -36.66699981689453,187.40199279785156 C-4.955999851226807,196.23899841308594 -0.7979999780654907,173.88600158691406 10.638999938964844,175.96499633789062 C22.076000213623047,178.04400634765625 19.299999237060547,185.1009979248047 31.952999114990234,187.40199279785156 C66.26300048828125,193.63999938964844 66.75700378417969,169.49400329589844 75.0999984741211,168.68699645996094 C135.30299377441406,162.86300659179688 192.0659942626953,71.99600219726562 192.0659942626953,71.99600219726562 C192.0659942626953,71.99600219726562 181.66900634765625,196.75900268554688 21.555999755859375,211.31500244140625 C-114.85700225830078,223.71600341796875 -196.68899536132812,111.53099822998047 -206.04600524902344,33.55400085449219 C-217.93800354003906,-65.5459976196289 -181.7550048828125,-122.54900360107422 -166.83399963378906,-127.81800079345703z"></path></g></g><g style="display: block;" transform="matrix(1,0,0,1,256,256)" opacity="1"><g opacity="0" transform="matrix(1,0,0,1,0,0)"><path fill="rgb(255,255,255)" fill-opacity="1" d=" M20.267000198364258,78.84100341796875 C-5.309000015258789,78.29199981689453 -34.637001037597656,87.37999725341797 -34.637001037597656,87.37999725341797 C-34.637001037597656,87.37999725341797 -28.871999740600586,79.58699798583984 18.85300064086914,79.6969985961914 C66.5780029296875,79.80699920654297 70.44499969482422,86.0739974975586 70.44499969482422,86.0739974975586 C70.44499969482422,86.0739974975586 45.84299850463867,79.38999938964844 20.267000198364258,78.84100341796875z"></path><path stroke-linecap="round" stroke-linejoin="round" fill-opacity="0" stroke="rgb(73,40,30)" stroke-opacity="1" stroke-width="12" d=" M20.267000198364258,78.84100341796875 C-5.309000015258789,78.29199981689453 -34.637001037597656,87.37999725341797 -34.637001037597656,87.37999725341797 C-34.637001037597656,87.37999725341797 -28.871999740600586,79.58699798583984 18.85300064086914,79.6969985961914 C66.5780029296875,79.80699920654297 70.44499969482422,86.0739974975586 70.44499969482422,86.0739974975586 C70.44499969482422,86.0739974975586 45.84299850463867,79.38999938964844 20.267000198364258,78.84100341796875z"></path></g><g opacity="1" transform="matrix(1,0,0,1,0,0)"><path fill="rgb(229,108,108)" fill-opacity="1" d=" M-51.792999267578125,77.30799865722656 C-28.086000442504883,79.86199951171875 -23.0939998626709,62.132999420166016 -16.30299949645996,59.641998291015625 C-2.9800000190734863,54.755001068115234 5.105000019073486,64.1259994506836 15.35200023651123,63.52299880981445 C25.599000930786133,62.91999816894531 31.315000534057617,60.244998931884766 39.75400161743164,63.86199951171875 C48.19300079345703,67.47899627685547 55.60100173950195,85.04199981689453 70.34600067138672,81.85399627685547"></path><path stroke-linecap="round" stroke-linejoin="round" fill-opacity="0" stroke="rgb(145,78,63)" stroke-opacity="1" stroke-width="14.608" d=" M-51.792999267578125,77.30799865722656 C-28.086000442504883,79.86199951171875 -23.0939998626709,62.132999420166016 -16.30299949645996,59.641998291015625 C-2.9800000190734863,54.755001068115234 5.105000019073486,64.1259994506836 15.35200023651123,63.52299880981445 C25.599000930786133,62.91999816894531 31.315000534057617,60.244998931884766 39.75400161743164,63.86199951171875 C48.19300079345703,67.47899627685547 55.60100173950195,85.04199981689453 70.34600067138672,81.85399627685547"></path></g><g opacity="0.75" transform="matrix(1,0,0,1,0,0)"><path fill="rgb(184,99,72)" fill-opacity="1" d=" M-26.82200050354004,107.87999725341797 C-26.82200050354004,107.87999725341797 -2.9140000343322754,128.3800048828125 41.72200012207031,111.06600189208984 C48.176998138427734,108.56199645996094 39.97999954223633,134.59300231933594 32.72100067138672,138.93800354003906 C15.680999755859375,149.13699340820312 -36.21200180053711,135.29800415039062 -35.779998779296875,117.56800079345703 C-35.62799835205078,111.34500122070312 -26.82200050354004,107.87999725341797 -26.82200050354004,107.87999725341797z"></path></g><g opacity="1" transform="matrix(1,0,0,1,0,0)"><path stroke-linecap="round" stroke-linejoin="round" fill-opacity="0" stroke="rgb(73,40,30)" stroke-opacity="1" stroke-width="10.956" d=" M75.97100067138672,82.45600128173828 C63.970001220703125,93.41200256347656 45.55099868774414,77.30799865722656 35.255001068115234,78.24400329589844 C24.958999633789062,79.18000030517578 16.742000579833984,87.83799743652344 10.821000099182129,83.75299835205078 C-12.145999908447266,67.90599822998047 -36.94599914550781,83.5479965209961 -51.534000396728516,79.24500274658203"></path></g></g><g style="display: block;" transform="matrix(1,0,0,1,256,256)" opacity="1"><g opacity="1" transform="matrix(1,0,0,1,0,0)"><g opacity="1" transform="matrix(1,0,0,1,0,0)"><path fill="rgb(165,86,61)" fill-opacity="1" d=" M-11.32800006866455,9.758000373840332 C-4.09499979019165,8.552000045776367 7.357999801635742,21.211000442504883 13.98799991607666,23.621999740600586 C20.618000030517578,26.033000946044922 28.452999114990234,27.23900032043457 32.06999969482422,21.81399917602539 C35.6870002746582,16.388999938964844 32.67300033569336,1.9229999780654907 37.494998931884766,-4.105000019073486 C42.31700134277344,-10.133000373840332 48.948001861572266,-4.105000019073486 53.16699981689453,9.156000137329102 C57.38600158691406,22.41699981689453 66.33999633789062,33.38100051879883 54.974998474121094,35.676998138427734 C48.709999084472656,36.94300079345703 42.91999816894531,30.854999542236328 42.91999816894531,30.854999542236328 C42.91999816894531,30.854999542236328 38.097999572753906,42.30699920654297 23.02899932861328,40.499000549316406 C7.960000038146973,38.691001892089844 2.5350000858306885,32.06100082397461 -3.493000030517578,30.854999542236328 C-7.063000202178955,30.141000747680664 -29.726999282836914,35.74599838256836 -33.266998291015625,29.64900016784668 C-40.439998626708984,17.295000076293945 -15.470000267028809,10.447999954223633 -11.32800006866455,9.758000373840332z"></path></g><g opacity="0.8300000000000001" transform="matrix(1,0,0,1,0,0)"><path fill="url(#__lottie_element_49)" fill-opacity="1" d=" M36.14500045776367,-71.03500366210938 C32.41899871826172,-53.380001068115234 40.36399841308594,-33.06100082397461 40.36399841308594,-33.06100082397461"></path><path stroke-linecap="round" stroke-linejoin="round" fill-opacity="0" stroke="rgb(184,99,72)" stroke-opacity="1" stroke-width="14.608" d=" M36.14500045776367,-71.03500366210938 C32.41899871826172,-53.380001068115234 40.36399841308594,-33.06100082397461 40.36399841308594,-33.06100082397461"></path></g></g></g><g style="display: block;" transform="matrix(1,0,0,1,256,255.99899291992188)" opacity="1"><g opacity="1" transform="matrix(1,0,0,1,0,0)"><path fill="rgb(102,50,30)" fill-opacity="1" d=" M-24.792999267578125,-65.81199645996094 C-18.775999069213867,-69.87200164794922 -21.445999145507812,-63.095001220703125 -24.732999801635742,-61.47200012207031 C-46.43600082397461,-50.75400161743164 -112.15899658203125,-39.99399948120117 -111.03900146484375,-47.57099914550781 C-109.91899871826172,-55.14799880981445 -60.44499969482422,-41.75600051879883 -24.792999267578125,-65.81199645996094z"></path><path stroke-linecap="round" stroke-linejoin="round" fill-opacity="0" stroke="rgb(73,55,48)" stroke-opacity="1" stroke-width="10.956" d=" M-24.792999267578125,-65.81199645996094 C-18.775999069213867,-69.87200164794922 -21.445999145507812,-63.095001220703125 -24.732999801635742,-61.47200012207031 C-46.43600082397461,-50.75400161743164 -112.15899658203125,-39.99399948120117 -111.03900146484375,-47.57099914550781 C-109.91899871826172,-55.14799880981445 -60.44499969482422,-41.75600051879883 -24.792999267578125,-65.81199645996094z"></path></g><g opacity="0.63" transform="matrix(1,0,0,1,0,0)"><path fill="url(#__lottie_element_44)" fill-opacity="1" d=" M-107.2509994506836,-67.30400085449219 C-87.31900024414062,-86.46499633789062 -30.2810001373291,-81.04000091552734 -19.149999618530273,-99.24500274658203"></path><path stroke-linecap="round" stroke-linejoin="round" fill-opacity="0" stroke="rgb(184,99,72)" stroke-opacity="1" stroke-width="14.608" d=" M-107.2509994506836,-67.30400085449219 C-87.31900024414062,-86.46499633789062 -30.2810001373291,-81.04000091552734 -19.149999618530273,-99.24500274658203"></path></g><g opacity="0.63" transform="matrix(1,0,0,1,0,0)"><path fill="url(#__lottie_element_45)" fill-opacity="1" d=" M61.930999755859375,-90.47000122070312 C74.43199920654297,-79.11299896240234 116.8219985961914,-88.0770034790039 130.02499389648438,-71.51599884033203"></path><path stroke-linecap="round" stroke-linejoin="round" fill-opacity="0" stroke="rgb(184,99,72)" stroke-opacity="1" stroke-width="14.608" d=" M61.930999755859375,-90.47000122070312 C74.43199920654297,-79.11299896240234 116.8219985961914,-88.0770034790039 130.02499389648438,-71.51599884033203"></path></g><g opacity="1" transform="matrix(1,0,0,1,0,0)"><path stroke-linecap="round" stroke-linejoin="round" fill-opacity="0" stroke="rgb(38,18,13)" stroke-opacity="1" stroke-width="10.956" d=" M-125.64399719238281,-41.1879997253418 C-89.3239974975586,-31.704999923706055 -36.395999908447266,-63.01900100708008 -21.368000030517578,-57.4900016784668"></path></g><g opacity="1" transform="matrix(1,0,0,1,0,0)"><path fill="rgb(102,50,30)" fill-opacity="1" d=" M60.75400161743164,-66.86000061035156 C54.73699951171875,-70.91999816894531 57.40800094604492,-64.14299774169922 60.69499969482422,-62.52000045776367 C82.39800262451172,-51.801998138427734 145.6439971923828,-41.08100128173828 147,-48.61899948120117 C149.68699645996094,-63.5620002746582 96.40599822998047,-42.80400085449219 60.75400161743164,-66.86000061035156z"></path><path stroke-linecap="round" stroke-linejoin="round" fill-opacity="0" stroke="rgb(73,55,48)" stroke-opacity="1" stroke-width="10.956" d=" M60.75400161743164,-66.86000061035156 C54.73699951171875,-70.91999816894531 57.40800094604492,-64.14299774169922 60.69499969482422,-62.52000045776367 C82.39800262451172,-51.801998138427734 145.6439971923828,-41.08100128173828 147,-48.61899948120117 C149.68699645996094,-63.5620002746582 96.40599822998047,-42.80400085449219 60.75400161743164,-66.86000061035156z"></path></g><g opacity="1" transform="matrix(1,0,0,1,0,0)"><path stroke-linecap="round" stroke-linejoin="round" fill-opacity="0" stroke="rgb(38,18,13)" stroke-opacity="1" stroke-width="10.956" d=" M161.6060028076172,-42.236000061035156 C125.28600311279297,-32.75299835205078 72.35800170898438,-64.06700134277344 57.33000183105469,-58.53799819946289"></path></g></g><g style="display: block;" transform="matrix(1,0,0,1,256,256)" opacity="1"><g opacity="1" transform="matrix(1,0,0,1,0,0)"><path fill="rgb(94,31,19)" fill-opacity="1" d=" M44.090999603271484,-148.11500549316406 C51.89099884033203,-141.51499938964844 55.584999084472656,-119.78600311279297 86.31300354003906,-121.28500366210938 C168.8979949951172,-125.31300354003906 173.71299743652344,-95.96900177001953 168.89100646972656,-91.75 C164.06900024414062,-87.53099822998047 154.33799743652344,-95.74299621582031 147.79400634765625,-98.37999725341797 C116.69499969482422,-110.91300201416016 50.09199905395508,-89.91100311279297 38.09199905395508,-121.28500366210938 C32.8129997253418,-135.08700561523438 31.51300048828125,-158.75799560546875 44.090999603271484,-148.11500549316406z"></path><path stroke-linecap="round" stroke-linejoin="round" fill-opacity="0" stroke="rgb(51,26,20)" stroke-opacity="1" stroke-width="10.956" d=" M44.090999603271484,-148.11500549316406 C51.89099884033203,-141.51499938964844 55.584999084472656,-119.78600311279297 86.31300354003906,-121.28500366210938 C168.8979949951172,-125.31300354003906 173.71299743652344,-95.96900177001953 168.89100646972656,-91.75 C164.06900024414062,-87.53099822998047 154.33799743652344,-95.74299621582031 147.79400634765625,-98.37999725341797 C116.69499969482422,-110.91300201416016 50.09199905395508,-89.91100311279297 38.09199905395508,-121.28500366210938 C32.8129997253418,-135.08700561523438 31.51300048828125,-158.75799560546875 44.090999603271484,-148.11500549316406z"></path></g><g opacity="1" transform="matrix(1,0,0,1,0,0)"><path fill="rgb(94,31,19)" fill-opacity="1" d=" M-130.81900024414062,-130.0659942626953 C-130.81900024414062,-130.0659942626953 -43.513999938964844,-107.91200256347656 -15.355999946594238,-144.25799560546875 C-9.045000076293945,-152.4040069580078 -4.340000152587891,-165.2010040283203 -1.7389999628067017,-159.27099609375 C0.8619999885559082,-153.34100341796875 -5.711999893188477,-108.51300048828125 -37.12699890136719,-110.8280029296875 C-80.15699768066406,-113.9990005493164 -143.2519989013672,-100.01899719238281 -143.2519989013672,-100.01899719238281 C-143.2519989013672,-100.01899719238281 -130.81900024414062,-130.0659942626953 -130.81900024414062,-130.0659942626953z"></path><path stroke-linecap="round" stroke-linejoin="round" fill-opacity="0" stroke="rgb(51,26,20)" stroke-opacity="1" stroke-width="10.853" d=" M-130.81900024414062,-130.0659942626953 C-130.81900024414062,-130.0659942626953 -43.513999938964844,-107.91200256347656 -15.355999946594238,-144.25799560546875 C-9.045000076293945,-152.4040069580078 -4.340000152587891,-165.2010040283203 -1.7389999628067017,-159.27099609375 C0.8619999885559082,-153.34100341796875 -5.711999893188477,-108.51300048828125 -37.12699890136719,-110.8280029296875 C-80.15699768066406,-113.9990005493164 -143.2519989013672,-100.01899719238281 -143.2519989013672,-100.01899719238281 C-143.2519989013672,-100.01899719238281 -130.81900024414062,-130.0659942626953 -130.81900024414062,-130.0659942626953z"></path></g><g opacity="0.46" transform="matrix(1,0,0,1,0,0)"><path fill="url(#__lottie_element_40)" fill-opacity="1" d=" M16.884000778198242,-176.40899658203125 C16.884000778198242,-176.40899658203125 26.91900062561035,-127.2760009765625 6.823999881744385,-103.45700073242188"></path><path stroke-linecap="round" stroke-linejoin="round" fill-opacity="0" stroke="rgb(184,99,72)" stroke-opacity="1" stroke-width="14.608" d=" M16.884000778198242,-176.40899658203125 C16.884000778198242,-176.40899658203125 26.91900062561035,-127.2760009765625 6.823999881744385,-103.45700073242188"></path></g></g><g style="display: block;" transform="matrix(1,0,0,1,272,255)" opacity="1"><g opacity="1" transform="matrix(1,0,0,1,0,0)"><path fill="url(#__lottie_element_33)" fill-opacity="1" d=" M-152.2689971923828,135.75 C-152.2689971923828,135.75 -153.26800537109375,60.45800018310547 -134.46600341796875,66.96600341796875 C-126.24099731445312,69.81300354003906 -121,106 -119.93099975585938,147.72300720214844 C-119.0510025024414,182.06100463867188 -135.8489990234375,219.9669952392578 -161.6699981689453,221.06399536132812 C-207.56900024414062,223.01400756835938 -224.26800537109375,145.1529998779297 -214.77200317382812,122.09500122070312 C-206.54299926757812,102.11299896240234 -215.4040069580078,48.04899978637695 -193.89599609375,48.60100173950195 C-168.99600219726562,49.2400016784668 -181.2010040283203,121.8489990234375 -181.2010040283203,121.8489990234375"></path><path stroke-linecap="round" stroke-linejoin="round" fill-opacity="0" stroke="rgb(184,99,72)" stroke-opacity="1" stroke-width="14.173" d=" M-152.2689971923828,135.75 C-152.2689971923828,135.75 -153.26800537109375,60.45800018310547 -134.46600341796875,66.96600341796875 C-126.24099731445312,69.81300354003906 -121,106 -119.93099975585938,147.72300720214844 C-119.0510025024414,182.06100463867188 -135.8489990234375,219.9669952392578 -161.6699981689453,221.06399536132812 C-207.56900024414062,223.01400756835938 -224.26800537109375,145.1529998779297 -214.77200317382812,122.09500122070312 C-206.54299926757812,102.11299896240234 -215.4040069580078,48.04899978637695 -193.89599609375,48.60100173950195 C-168.99600219726562,49.2400016784668 -181.2010040283203,121.8489990234375 -181.2010040283203,121.8489990234375"></path></g><g opacity="1" transform="matrix(1,0,0,1,-23.96299934387207,-8.805000305175781)"><path fill="url(#__lottie_element_34)" fill-opacity="1" d=" M-161.91600036621094,133.72500610351562 C-158.03700256347656,97.80400085449219 -150.0030059814453,56.801998138427734 -176.5260009765625,58.30500030517578 C-184.2689971923828,58.74399948120117 -187.93099975585938,112.74800109863281 -189.58599853515625,131.57000732421875"></path><path stroke-linecap="round" stroke-linejoin="round" fill-opacity="0" stroke="rgb(184,99,72)" stroke-opacity="1" stroke-width="14.173" d=" M-161.91600036621094,133.72500610351562 C-158.03700256347656,97.80400085449219 -150.0030059814453,56.801998138427734 -176.5260009765625,58.30500030517578 C-184.2689971923828,58.74399948120117 -187.93099975585938,112.74800109863281 -189.58599853515625,131.57000732421875"></path></g><g opacity="1" transform="matrix(1,0,0,1,0,0)"><path fill="url(#__lottie_element_35)" fill-opacity="1" d=" M-152.41600036621094,139.22500610351562 C-157.52000427246094,96.68199920654297 -149.0030059814453,39.801998138427734 -175.5260009765625,41.30500030517578 C-183.2689971923828,41.74399948120117 -186.43099975585938,107.74800109863281 -188.08599853515625,126.56999969482422"></path><path stroke-linecap="round" stroke-linejoin="round" fill-opacity="0" stroke="rgb(184,99,72)" stroke-opacity="1" stroke-width="14.173" d=" M-152.41600036621094,139.22500610351562 C-157.52000427246094,96.68199920654297 -149.0030059814453,39.801998138427734 -175.5260009765625,41.30500030517578 C-183.2689971923828,41.74399948120117 -186.43099975585938,107.74800109863281 -188.08599853515625,126.56999969482422"></path></g></g><g style="display: block;" transform="matrix(-1,0,0,1,257.4280090332031,255)" opacity="1"><g opacity="1" transform="matrix(1,0,0,1,0,0)"><path fill="url(#__lottie_element_27)" fill-opacity="1" d=" M-152.2689971923828,135.75 C-152.2689971923828,135.75 -153.26800537109375,60.45800018310547 -134.46600341796875,66.96600341796875 C-126.24099731445312,69.81300354003906 -121,106 -119.93099975585938,147.72300720214844 C-119.0510025024414,182.06100463867188 -135.8489990234375,219.9669952392578 -161.6699981689453,221.06399536132812 C-207.56900024414062,223.01400756835938 -224.26800537109375,145.1529998779297 -214.77200317382812,122.09500122070312 C-206.54299926757812,102.11299896240234 -215.4040069580078,48.04899978637695 -193.89599609375,48.60100173950195 C-168.99600219726562,49.2400016784668 -181.2010040283203,121.8489990234375 -181.2010040283203,121.8489990234375"></path><path stroke-linecap="round" stroke-linejoin="round" fill-opacity="0" stroke="rgb(184,99,72)" stroke-opacity="1" stroke-width="14.173" d=" M-152.2689971923828,135.75 C-152.2689971923828,135.75 -153.26800537109375,60.45800018310547 -134.46600341796875,66.96600341796875 C-126.24099731445312,69.81300354003906 -121,106 -119.93099975585938,147.72300720214844 C-119.0510025024414,182.06100463867188 -135.8489990234375,219.9669952392578 -161.6699981689453,221.06399536132812 C-207.56900024414062,223.01400756835938 -224.26800537109375,145.1529998779297 -214.77200317382812,122.09500122070312 C-206.54299926757812,102.11299896240234 -215.4040069580078,48.04899978637695 -193.89599609375,48.60100173950195 C-168.99600219726562,49.2400016784668 -181.2010040283203,121.8489990234375 -181.2010040283203,121.8489990234375"></path></g><g opacity="1" transform="matrix(1,0,0,1,-23.96299934387207,-8.805000305175781)"><path fill="url(#__lottie_element_28)" fill-opacity="1" d=" M-161.91600036621094,133.72500610351562 C-158.03700256347656,97.80400085449219 -150.0030059814453,56.801998138427734 -176.5260009765625,58.30500030517578 C-184.2689971923828,58.74399948120117 -187.93099975585938,112.74800109863281 -189.58599853515625,131.57000732421875"></path><path stroke-linecap="round" stroke-linejoin="round" fill-opacity="0" stroke="rgb(184,99,72)" stroke-opacity="1" stroke-width="14.173" d=" M-161.91600036621094,133.72500610351562 C-158.03700256347656,97.80400085449219 -150.0030059814453,56.801998138427734 -176.5260009765625,58.30500030517578 C-184.2689971923828,58.74399948120117 -187.93099975585938,112.74800109863281 -189.58599853515625,131.57000732421875"></path></g><g opacity="1" transform="matrix(1,0,0,1,0,0)"><path fill="url(#__lottie_element_29)" fill-opacity="1" d=" M-152.41600036621094,139.22500610351562 C-157.52000427246094,96.68199920654297 -149.0030059814453,39.801998138427734 -175.5260009765625,41.30500030517578 C-183.2689971923828,41.74399948120117 -186.43099975585938,107.74800109863281 -188.08599853515625,126.56999969482422"></path><path stroke-linecap="round" stroke-linejoin="round" fill-opacity="0" stroke="rgb(184,99,72)" stroke-opacity="1" stroke-width="14.173" d=" M-152.41600036621094,139.22500610351562 C-157.52000427246094,96.68199920654297 -149.0030059814453,39.801998138427734 -175.5260009765625,41.30500030517578 C-183.2689971923828,41.74399948120117 -186.43099975585938,107.74800109863281 -188.08599853515625,126.56999969482422"></path></g></g><g style="display: block;" transform="matrix(1,0,0,1,256,256)" opacity="1"><g opacity="1" transform="matrix(1,0,0,1,0,0)"><path fill="rgb(249,236,145)" fill-opacity="1" d=" M-104.1240005493164,242.81199645996094 C-108.8499984741211,202.89999389648438 -120.88099670410156,177.81500244140625 -143.51100158691406,167.71400451660156 C-120.39900207519531,160.27200317382812 -108.11799621582031,135.3090057373047 -105.17400360107422,95.24099731445312 C-102.76399993896484,133.5399932861328 -88.6449966430664,157.53599548339844 -61.06100082397461,165.08799743652344 C-90.447998046875,170.43299865722656 -99.39800262451172,204.47500610351562 -104.1240005493164,242.81199645996094z"></path><path stroke-linecap="round" stroke-linejoin="round" fill-opacity="0" stroke="rgb(247,159,62)" stroke-opacity="1" stroke-width="17.188" d=" M-104.1240005493164,242.81199645996094 C-108.8499984741211,202.89999389648438 -120.88099670410156,177.81500244140625 -143.51100158691406,167.71400451660156 C-120.39900207519531,160.27200317382812 -108.11799621582031,135.3090057373047 -105.17400360107422,95.24099731445312 C-102.76399993896484,133.5399932861328 -88.6449966430664,157.53599548339844 -61.06100082397461,165.08799743652344 C-90.447998046875,170.43299865722656 -99.39800262451172,204.47500610351562 -104.1240005493164,242.81199645996094z"></path></g></g><g style="display: block;" transform="matrix(1,0,0,1,538,-70.99999237060547)" opacity="1"><g opacity="1" transform="matrix(1,0,0,1,0,0)"><path fill="rgb(249,236,145)" fill-opacity="1" d=" M-104.1240005493164,242.81199645996094 C-108.8499984741211,202.89999389648438 -120.88099670410156,177.81500244140625 -143.51100158691406,167.71400451660156 C-120.39900207519531,160.27200317382812 -108.11799621582031,135.3090057373047 -105.17400360107422,95.24099731445312 C-102.76399993896484,133.5399932861328 -88.6449966430664,157.53599548339844 -61.06100082397461,165.08799743652344 C-90.447998046875,170.43299865722656 -99.39800262451172,204.47500610351562 -104.1240005493164,242.81199645996094z"></path><path stroke-linecap="round" stroke-linejoin="round" fill-opacity="0" stroke="rgb(247,159,62)" stroke-opacity="1" stroke-width="17.188" d=" M-104.1240005493164,242.81199645996094 C-108.8499984741211,202.89999389648438 -120.88099670410156,177.81500244140625 -143.51100158691406,167.71400451660156 C-120.39900207519531,160.27200317382812 -108.11799621582031,135.3090057373047 -105.17400360107422,95.24099731445312 C-102.76399993896484,133.5399932861328 -88.6449966430664,157.53599548339844 -61.06100082397461,165.08799743652344 C-90.447998046875,170.43299865722656 -99.39800262451172,204.47500610351562 -104.1240005493164,242.81199645996094z"></path></g></g><g style="display: none;"><g><path></path><path stroke-linecap="round" stroke-linejoin="round" fill-opacity="0"></path></g></g><g style="display: none;"><g><path></path><path stroke-linecap="round" stroke-linejoin="round" fill-opacity="0"></path></g></g><g style="display: none;"><g><path></path><path stroke-linecap="round" stroke-linejoin="round" fill-opacity="0"></path></g></g></g></svg>