<svg xmlns="http://www.w3.org/2000/svg" xmlns:xlink="http://www.w3.org/1999/xlink" viewBox="0 0 512 512" width="512" height="512" style="width: 100%; height: 100%; transform: translate3d(0,0,0); content-visibility: visible;" preserveAspectRatio="xMidYMid meet"><defs><clipPath id="__lottie_element_2"><rect width="512" height="512" x="0" y="0"></rect></clipPath><clipPath id="__lottie_element_4"><path d="M0,0 L512,0 L512,512 L0,512z"></path></clipPath><linearGradient id="__lottie_element_13" spreadMethod="pad" gradientUnits="userSpaceOnUse" x1="-8.628999710083008" y1="-142.6320037841797" x2="13.048999786376953" y2="84.99700164794922"><stop offset="0%" stop-color="rgb(119,104,138)"></stop><stop offset="47%" stop-color="rgb(87,76,105)"></stop><stop offset="100%" stop-color="rgb(56,48,72)"></stop></linearGradient><radialGradient id="__lottie_element_33" spreadMethod="pad" gradientUnits="userSpaceOnUse" cx="-212.6959991455078" cy="-365.1239929199219" r="649.8014972176298" fx="-212.6959991455078" fy="-365.1239929199219"><stop offset="18%" stop-color="rgb(251,185,148)"></stop><stop offset="72%" stop-color="rgb(239,164,132)"></stop><stop offset="100%" stop-color="rgb(226,142,116)"></stop></radialGradient><radialGradient id="__lottie_element_34" spreadMethod="pad" gradientUnits="userSpaceOnUse" cx="-67.55599975585938" cy="-168.45199584960938" r="305.38266942614456" fx="-67.55599975585938" fy="-168.45199584960938"><stop offset="0%" stop-color="rgb(253,237,220)"></stop><stop offset="34%" stop-color="rgb(249,213,185)"></stop><stop offset="67%" stop-color="rgb(244,189,151)"></stop></radialGradient></defs><g clip-path="url(#__lottie_element_2)"><g clip-path="url(#__lottie_element_4)" style="display: block;" transform="matrix(0.9765599966049194,0,0,0.9765599966049194,6.000640869140625,6.000640869140625)" opacity="1"><g style="display: block;" transform="matrix(0.9780688881874084,0,0,0.895295262336731,4.894012928009033,-14.658560752868652)" opacity="1"><g opacity="1" transform="matrix(1,0,0,1,251.58399963378906,292.1669921875)"><path fill="url(#__lottie_element_33)" fill-opacity="1" d=" M-206.4250030517578,-28.12299919128418 C-201.4550018310547,-54.861000061035156 -192.73199462890625,-85.68499755859375 -172.25799560546875,-129.55799865722656 C-152.3560028076172,-172.2030029296875 -109.41200256347656,-223.06300354003906 -51.604000091552734,-236.33099365234375 C6.204999923706055,-249.59800720214844 67.98200225830078,-254.48199462890625 108.55599975585938,-211.7729949951172 C150.25799560546875,-167.87600708007812 210.10800170898438,-43.23899841308594 212.0030059814453,28.78499984741211 C213.8990020751953,100.80799865722656 194.94500732421875,184.20399475097656 76.48500061035156,225.90199279785156 C-41.974998474121094,267.6000061035156 -169.62899780273438,181.78199768066406 -195.49899291992188,110.28500366210938 C-213.8990020751953,59.430999755859375 -212.7259979248047,5.77400016784668 -206.4250030517578,-28.12299919128418z"></path></g><g opacity="1" transform="matrix(1,0,0,1,251.58399963378906,298.72601318359375)"><path stroke-linecap="butt" stroke-linejoin="miter" fill-opacity="0" stroke-miterlimit="10" stroke="rgb(183,99,42)" stroke-opacity="1" stroke-width="15.074" d=" M-206.4250030517578,-34.68199920654297 C-201.4550018310547,-61.41999816894531 -192.73199462890625,-92.24400329589844 -172.25799560546875,-136.11700439453125 C-152.3560028076172,-178.76199340820312 -109.41200256347656,-229.6219940185547 -51.604000091552734,-242.88999938964844 C6.204999923706055,-256.1570129394531 67.98200225830078,-261.0409851074219 108.55599975585938,-218.33200073242188 C150.25799560546875,-174.43499755859375 210.10800170898438,-49.79800033569336 212.0030059814453,22.22599983215332 C213.8990020751953,94.2490005493164 194.94500732421875,177.64500427246094 76.48500061035156,219.34300231933594 C-41.974998474121094,261.0409851074219 -169.62899780273438,175.22300720214844 -195.49899291992188,103.72599792480469 C-213.8990020751953,52.87200164794922 -212.7259979248047,-0.7850000262260437 -206.4250030517578,-34.68199920654297z"></path></g><g opacity="1" transform="matrix(1,0,0,1,240.1219940185547,284.6669921875)"><path fill="url(#__lottie_element_34)" fill-opacity="1" d=" M-167.1179962158203,-37.50600051879883 C-162.843994140625,-61.64899826049805 -157.57899475097656,-79.22799682617188 -139.9720001220703,-118.84200286865234 C-122.85800170898438,-157.34800720214844 -91.34700012207031,-198.4199981689453 -41.6349983215332,-210.39999389648438 C8.07699966430664,-222.37899780273438 68.65499877929688,-229.22500610351562 109.40299987792969,-181.3070068359375 C144.08099365234375,-140.5260009765625 197.68800354003906,-48.20399856567383 199.3179931640625,16.827999114990234 C200.947998046875,81.85900115966797 189.99200439453125,156.0780029296875 88.12300109863281,193.72799682617188 C-13.746000289916992,231.3769989013672 -125.4280014038086,161.01600646972656 -150.69200134277344,97.69599914550781 C-175.9550018310547,34.375999450683594 -172.53599548339844,-6.900000095367432 -167.1179962158203,-37.50600051879883z"></path></g></g><g style="display: block;" transform="matrix(0.9787907004356384,0.005926654674112797,-0.006464764010161161,0.8945953249931335,99.70550537109375,197.92715454101562)" opacity="1"><g opacity="1" transform="matrix(0.9212000370025635,0,0,1,21.714523315429688,15.75400161743164)"><g opacity="1" transform="matrix(1,0,0,1,66.11299896240234,31.79800033569336)"><path fill="rgb(226,142,116)" fill-opacity="1" d=" M-21.459999084472656,-5.459000110626221 C-26.746000289916992,0.09200000017881393 -32.56399917602539,17.020000457763672 -15.404000282287598,26.131000518798828 C8.87399959564209,39.02199935913086 35.43199920654297,15.574000358581543 28.898000717163086,-0.36399999260902405 C18.506999969482422,-25.711000442504883 -15.520999908447266,-11.694999694824219 -21.459999084472656,-5.459000110626221z"></path></g><g opacity="1" transform="matrix(1,0,0,1,74.13099670410156,69.38999938964844)"><path stroke-linecap="round" stroke-linejoin="round" fill-opacity="0" stroke="rgb(173,92,37)" stroke-opacity="1" stroke-width="15.074" d=" M36.44599914550781,-14 C34.85100173950195,2.9830000400543213 12.468999862670898,14 -6.019000053405762,12.472000122070312 C-25.73900032043457,10.843000411987305 -36.44599914550781,2 -36.44599914550781,2"></path></g><g opacity="1" transform="matrix(1,0,0,1,61.62900161743164,38.2140007019043)"><path fill="rgb(60,24,35)" fill-opacity="1" d=" M-7.105000019073486,-2.443000078201294 C-11.232999801635742,1.9129999876022339 -13.72700023651123,11.954999923706055 -1.680999994277954,15.699000358581543 C18.874000549316406,22.08799934387207 28.1200008392334,13.553000450134277 28.07699966430664,6.323999881744385 C28.011999130249023,-4.439000129699707 20.768999099731445,-5.090000152587891 10.576000213623047,-5.763999938964844 C4.61899995803833,-6.1579999923706055 -4.788000106811523,-4.888000011444092 -7.105000019073486,-2.443000078201294z"></path><path stroke-linecap="round" stroke-linejoin="round" fill-opacity="0" stroke="rgb(41,20,7)" stroke-opacity="1" stroke-width="15.074" d=" M-7.105000019073486,-2.443000078201294 C-11.232999801635742,1.9129999876022339 -13.72700023651123,11.954999923706055 -1.680999994277954,15.699000358581543 C18.874000549316406,22.08799934387207 28.1200008392334,13.553000450134277 28.07699966430664,6.323999881744385 C28.011999130249023,-4.439000129699707 20.768999099731445,-5.090000152587891 10.576000213623047,-5.763999938964844 C4.61899995803833,-6.1579999923706055 -4.788000106811523,-4.888000011444092 -7.105000019073486,-2.443000078201294z"></path></g></g><g opacity="0" transform="matrix(1,0,0,1,0,0)"><path fill="rgb(143,19,56)" fill-opacity="1" d=" M42.63399887084961,50.6609992980957 C40.013999938964844,49.96099853515625 34.86600112915039,48.36800003051758 34.86600112915039,48.36800003051758 C34.86600112915039,48.36800003051758 37.507999420166016,60.007999420166016 64.322998046875,62.46699905395508 C76.41300201416016,63.57600021362305 86.56199645996094,58.82500076293945 86.56199645996094,58.82500076293945 C86.56199645996094,58.82500076293945 81.86399841308594,55.327999114990234 66.01599884033203,59.4370002746582 C55.5260009765625,62.15700149536133 56.154998779296875,58.68600082397461 56.154998779296875,58.68600082397461 C56.154998779296875,58.68600082397461 55.178001403808594,54.012001037597656 42.63399887084961,50.6609992980957z"></path><path stroke-linecap="round" stroke-linejoin="round" fill-opacity="0" stroke="rgb(106,17,45)" stroke-opacity="1" stroke-width="10" d=" M42.63399887084961,50.6609992980957 C40.013999938964844,49.96099853515625 34.86600112915039,48.36800003051758 34.86600112915039,48.36800003051758 C34.86600112915039,48.36800003051758 37.507999420166016,60.007999420166016 64.322998046875,62.46699905395508 C76.41300201416016,63.57600021362305 86.56199645996094,58.82500076293945 86.56199645996094,58.82500076293945 C86.56199645996094,58.82500076293945 81.86399841308594,55.327999114990234 66.01599884033203,59.4370002746582 C55.5260009765625,62.15700149536133 56.154998779296875,58.68600082397461 56.154998779296875,58.68600082397461 C56.154998779296875,58.68600082397461 55.178001403808594,54.012001037597656 42.63399887084961,50.6609992980957z"></path></g></g><g style="display: block;" transform="matrix(0.9787907004356384,0.005926654674112797,-0.006464764010161161,0.8945953249931335,71.07691955566406,30.733604431152344)" opacity="1"><g opacity="1" transform="matrix(1,0,0,1,110.78199768066406,105.0270004272461)"><path fill="rgb(226,142,116)" fill-opacity="0.7000000000000001" d=" M-59.584999084472656,-26.916000366210938 C-48.066001892089844,-44.1619987487793 -31.382999420166016,-74.5780029296875 9.291000366210938,-63.23500061035156 C49.965999603271484,-51.893001556396484 70.41000366210938,6.451000213623047 54.10499954223633,39.7140007019043 C37.79999923706055,72.97699737548828 -10.241000175476074,74.5770034790039 -34.23400115966797,63.38999938964844 C-58.22800064086914,52.20399856567383 -70.40899658203125,22.847999572753906 -69.31300354003906,6.49399995803833 C-68.21700286865234,-9.859000205993652 -63.32500076293945,-21.316999435424805 -59.584999084472656,-26.916000366210938z"></path></g><g opacity="1" transform="matrix(1,0,0,1,276.15399169921875,141.70199584960938)"><path fill="rgb(226,142,116)" fill-opacity="0.73" d=" M-60.42399978637695,-27.38599967956543 C-52.79499816894531,-39.72800064086914 -34.5989990234375,-61.45000076293945 -15.154000282287598,-66.23600006103516 C4.289999961853027,-71.02200317382812 32.35300064086914,-67.99700164794922 50.1150016784668,-40.61800003051758 C63.80500030517578,-19.516000747680664 75.86699676513672,22.013999938964844 49.5989990234375,44.82899856567383 C19.440000534057617,71.02300262451172 -33.60200119018555,55.51300048828125 -53.60599899291992,38.05799865722656 C-75.86799621582031,18.631999969482422 -67.91200256347656,-15.270999908447266 -60.42399978637695,-27.38599967956543z"></path></g><g opacity="1" transform="matrix(1,0,0,1,272.8599853515625,126.3479995727539)"><path fill="rgb(210,192,226)" fill-opacity="1" d=" M-55.41999816894531,-26.514999389648438 C-48.2140007019043,-38.922000885009766 -31.113000869750977,-60.814998626708984 -13.050000190734863,-65.81300354003906 C5.013000011444092,-70.81199645996094 30.968000411987305,-68.11000061035156 47.108001708984375,-40.98099899291992 C59.547000885009766,-20.072999954223633 70.24600219726562,21.246999740600586 45.65700149536133,44.32099914550781 C17.427000045776367,70.81199645996094 -31.520999908447266,55.933998107910156 -49.8489990234375,38.736000061035156 C-70.24600219726562,19.597999572753906 -62.49300003051758,-14.336000442504883 -55.41999816894531,-26.514999389648438z"></path><path stroke-linecap="round" stroke-linejoin="round" fill-opacity="0" stroke="rgb(82,98,130)" stroke-opacity="1" stroke-width="12.625" d=" M-55.41999816894531,-26.514999389648438 C-48.2140007019043,-38.922000885009766 -31.113000869750977,-60.814998626708984 -13.050000190734863,-65.81300354003906 C5.013000011444092,-70.81199645996094 30.968000411987305,-68.11000061035156 47.108001708984375,-40.98099899291992 C59.547000885009766,-20.072999954223633 70.24600219726562,21.246999740600586 45.65700149536133,44.32099914550781 C17.427000045776367,70.81199645996094 -31.520999908447266,55.933998107910156 -49.8489990234375,38.736000061035156 C-70.24600219726562,19.597999572753906 -62.49300003051758,-14.336000442504883 -55.41999816894531,-26.514999389648438z"></path></g><g opacity="1" transform="matrix(1,0,0,1,271.25799560546875,121.70700073242188)"><path fill="rgb(255,255,255)" fill-opacity="1" d=" M-47.779998779296875,-21.555999755859375 C-41.77000045776367,-31.972999572753906 -27.51300048828125,-50.35599899291992 -12.472999572753906,-54.569000244140625 C2.566999912261963,-58.78099822998047 24.167999267578125,-56.54199981689453 37.573001861572266,-33.79800033569336 C47.904998779296875,-16.270000457763672 58.67499923706055,13.711000442504883 35.41600036621094,36.24599838256836 C12.156000137329102,58.78200149536133 -26.479999542236328,44.57600021362305 -41.71799850463867,30.16699981689453 C-58.67499923706055,14.131999969482422 -53.68000030517578,-11.331000328063965 -47.779998779296875,-21.555999755859375z"></path></g><g opacity="1" transform="matrix(1,0,0,1,98.58100128173828,100.02100372314453)"><path fill="rgb(210,192,226)" fill-opacity="1" d=" M-56.99700164794922,-24.211000442504883 C-46.125,-39.51300048828125 -30.413000106811523,-66.51899719238281 8.395999908447266,-56.17399978637695 C47.20600128173828,-45.83000183105469 67.01899719238281,6.28000020980835 51.68199920654297,35.82600021362305 C36.345001220703125,65.37300109863281 -9.406999588012695,66.51899719238281 -32.32600021362305,56.4109992980957 C-55.244998931884766,46.301998138427734 -67.01899719238281,20.07200050354004 -66.06999969482422,5.505000114440918 C-65.12100219726562,-9.062000274658203 -60.5260009765625,-19.243999481201172 -56.99700164794922,-24.211000442504883z"></path><path stroke-linecap="round" stroke-linejoin="round" fill-opacity="0" stroke="rgb(82,98,130)" stroke-opacity="1" stroke-width="12.625" d=" M-56.99700164794922,-24.211000442504883 C-46.125,-39.51300048828125 -30.413000106811523,-66.51899719238281 8.395999908447266,-56.17399978637695 C47.20600128173828,-45.83000183105469 67.01899719238281,6.28000020980835 51.68199920654297,35.82600021362305 C36.345001220703125,65.37300109863281 -9.406999588012695,66.51899719238281 -32.32600021362305,56.4109992980957 C-55.244998931884766,46.301998138427734 -67.01899719238281,20.07200050354004 -66.06999969482422,5.505000114440918 C-65.12100219726562,-9.062000274658203 -60.5260009765625,-19.243999481201172 -56.99700164794922,-24.211000442504883z"></path></g><g opacity="1" transform="matrix(1,0,0,1,0,0)"><g opacity="1" transform="matrix(1,0,0,1,244.2030029296875,117.97000122070312)"><path fill="rgb(33,15,58)" fill-opacity="1" d=" M-24.40399932861328,-3.759999990463257 C-26.111000061035156,7.318999767303467 -16.569000244140625,17.983999252319336 -3.0910000801086426,20.06100082397461 C10.38700008392334,22.136999130249023 22.69700050354004,14.83899974822998 24.40399932861328,3.759999990463257 C26.111000061035156,-7.318999767303467 16.569000244140625,-17.983999252319336 3.0910000801086426,-20.06100082397461 C-10.38700008392334,-22.136999130249023 -22.69700050354004,-14.83899974822998 -24.40399932861328,-3.759999990463257z"></path></g><g opacity="1" transform="matrix(1,0,0,1,256.8450012207031,130.6179962158203)"><path fill="rgb(255,255,255)" fill-opacity="1" d=" M-8.031000137329102,-1.2380000352859497 C-8.593000411987305,2.4079999923706055 -5.453000068664551,5.919000148773193 -1.0169999599456787,6.603000164031982 C3.4179999828338623,7.285999774932861 7.4710001945495605,4.882999897003174 8.032999992370605,1.2369999885559082 C8.593999862670898,-2.4089999198913574 5.453000068664551,-5.919000148773193 1.0169999599456787,-6.603000164031982 C-3.4189999103546143,-7.285999774932861 -7.468999862670898,-4.883999824523926 -8.031000137329102,-1.2380000352859497z"></path></g></g><g opacity="1" transform="matrix(1,0,0,1,274.6210021972656,80.63999938964844)"><path fill="rgb(255,205,176)" fill-opacity="1" d=" M-59.8120002746582,19.43600082397461 C-59.8120002746582,19.43600082397461 -36.56999969482422,24.31399917602539 1.437000036239624,30.170000076293945 C39.444000244140625,36.025001525878906 59.8120002746582,38.51499938964844 59.8120002746582,38.51499938964844 C59.8120002746582,38.51499938964844 54.777000427246094,-14.013999938964844 12.895999908447266,-25.834999084472656 C-32.025001525878906,-38.51499938964844 -59.8120002746582,19.43600082397461 -59.8120002746582,19.43600082397461z"></path><path stroke-linecap="round" stroke-linejoin="round" fill-opacity="0" stroke="rgb(173,92,37)" stroke-opacity="1" stroke-width="11.477" d=" M-59.8120002746582,19.43600082397461 C-59.8120002746582,19.43600082397461 -36.56999969482422,24.31399917602539 1.437000036239624,30.170000076293945 C39.444000244140625,36.025001525878906 59.8120002746582,38.51499938964844 59.8120002746582,38.51499938964844 C59.8120002746582,38.51499938964844 54.777000427246094,-14.013999938964844 12.895999908447266,-25.834999084472656 C-32.025001525878906,-38.51499938964844 -59.8120002746582,19.43600082397461 -59.8120002746582,19.43600082397461z"></path></g><g opacity="1" transform="matrix(1,0,0,1,92.5510025024414,103.19599914550781)"><path fill="rgb(255,255,255)" fill-opacity="1" d=" M-48.5880012512207,-17.809999465942383 C-43.334999084472656,-28.30299949645996 -30.51099967956543,-47.03300094604492 -16.104999542236328,-52.005001068115234 C-1.7000000476837158,-56.97700119018555 19.4689998626709,-56.042999267578125 33.84000015258789,-34.665000915527344 C44.915000915527344,-18.18899917602539 57.13800048828125,10.390000343322754 35.784000396728516,33.683998107910156 C14.430999755859375,56.97700119018555 -24.02199935913086,45.37200164794922 -39.69599914550781,32.21699905395508 C-57.13800048828125,17.577999114990234 -53.74399948120117,-7.510000228881836 -48.5880012512207,-17.809999465942383z"></path></g><g opacity="1" transform="matrix(1,0,0,1,1.2290000915527344,-0.305999755859375)"><g opacity="1" transform="matrix(1,0,0,1,60.1510009765625,99.52200317382812)"><path fill="rgb(33,15,58)" fill-opacity="1" d=" M-24.45199966430664,-2.2960000038146973 C-25.586999893188477,9.788000106811523 -15.559000015258789,20.61199951171875 -2.055000066757202,21.8799991607666 C11.449999809265137,23.148000717163086 23.316999435424805,14.380000114440918 24.45199966430664,2.2960000038146973 C25.586999893188477,-9.786999702453613 15.559000015258789,-20.61199951171875 2.055000066757202,-21.8799991607666 C-11.449999809265137,-23.148000717163086 -23.316999435424805,-14.380000114440918 -24.45199966430664,-2.2960000038146973z"></path></g><g opacity="1" transform="matrix(1,0,0,1,72.7249984741211,114.81500244140625)"><path fill="rgb(255,255,255)" fill-opacity="1" d=" M-7.894999980926514,-0.7409999966621399 C-8.232000350952148,2.8429999351501465 -4.96999979019165,6.079999923706055 -0.6100000143051147,6.489999771118164 C3.75,6.89900016784668 7.559000015258789,4.326000213623047 7.894999980926514,0.7419999837875366 C8.232000350952148,-2.8420000076293945 4.96999979019165,-6.079999923706055 0.6100000143051147,-6.488999843597412 C-3.75,-6.89900016784668 -7.558000087738037,-4.324999809265137 -7.894999980926514,-0.7409999966621399z"></path></g></g><g opacity="1" transform="matrix(1,0,0,1,93.37899780273438,65.49800109863281)"><path fill="rgb(255,204,175)" fill-opacity="1" d=" M-60.87099838256836,22.23200035095215 C-60.87099838256836,22.23200035095215 -43.67100143432617,26.360000610351562 -1.4500000476837158,31.58099937438965 C32.11600112915039,35.731998443603516 60.87099838256836,36.80500030517578 60.87099838256836,36.80500030517578 C60.87099838256836,36.80500030517578 56.2130012512207,-4.925000190734863 33.40599822998047,-18.535999298095703 C2.7920000553131104,-36.80500030517578 -23.184999465942383,-23.768999099731445 -35.45399856567383,-14.324000358581543 C-55.0890007019043,0.7910000085830688 -60.87099838256836,22.23200035095215 -60.87099838256836,22.23200035095215z"></path><path stroke-linecap="round" stroke-linejoin="round" fill-opacity="0" stroke="rgb(173,92,37)" stroke-opacity="1" stroke-width="11.477" d=" M-60.87099838256836,22.23200035095215 C-60.87099838256836,22.23200035095215 -43.67100143432617,26.360000610351562 -1.4500000476837158,31.58099937438965 C32.11600112915039,35.731998443603516 60.87099838256836,36.80500030517578 60.87099838256836,36.80500030517578 C60.87099838256836,36.80500030517578 56.2130012512207,-4.925000190734863 33.40599822998047,-18.535999298095703 C2.7920000553131104,-36.80500030517578 -23.184999465942383,-23.768999099731445 -35.45399856567383,-14.324000358581543 C-55.0890007019043,0.7910000085830688 -60.87099838256836,22.23200035095215 -60.87099838256836,22.23200035095215z"></path></g><g opacity="1" transform="matrix(1,0,0,1,0,0)"><path fill="rgb(255,240,232)" fill-opacity="1" d=" M269.1520080566406,60.16699981689453 C241.14300537109375,62.65999984741211 224.83099365234375,95.79000091552734 224.83099365234375,95.79000091552734 C224.83099365234375,95.79000091552734 229.50900268554688,97.20800018310547 230.35299682617188,95.78900146484375 C234.2989959716797,89.15399932861328 248.7790069580078,74.33999633789062 257.2040100097656,70.37999725341797 C268.4330139160156,65.10199737548828 281.6940002441406,64.19200134277344 290.2130126953125,65.50499725341797 C295.00799560546875,66.24400329589844 303.75799560546875,69.7969970703125 303.75799560546875,69.7969970703125 C303.75799560546875,69.7969970703125 292.4179992675781,58.09600067138672 269.1520080566406,60.16699981689453z"></path></g><g opacity="1" transform="matrix(1,0,0,1,0,0)"><path fill="rgb(255,237,227)" fill-opacity="1" d=" M118.3550033569336,48.2599983215332 C118.3550033569336,48.2599983215332 98.44000244140625,41.375999450683594 87.23100280761719,43.96500015258789 C77.84700012207031,46.132999420166016 64.14700317382812,53.47100067138672 57.65700149536133,59.4010009765625 C49.597999572753906,66.76499938964844 41.724998474121094,82.9219970703125 41.724998474121094,82.9219970703125 C41.724998474121094,82.9219970703125 49.31399917602539,84.17500305175781 49.31399917602539,84.17500305175781 C49.31399917602539,84.17500305175781 56.27199935913086,72.3280029296875 62.222999572753906,65.61900329589844 C67.4229965209961,59.75600051879883 75.90699768066406,54.479000091552734 81.96299743652344,52.2859992980957 C98.68199920654297,46.23099899291992 118.3550033569336,48.2599983215332 118.3550033569336,48.2599983215332z"></path></g></g><g style="display: block;" transform="matrix(0.9787907004356384,0.005926654674112797,-0.006464764010161161,0.8945953249931335,109.54220581054688,-16.006269454956055)" opacity="1"><g opacity="1" transform="matrix(0.9814268350601196,-0.19183684885501862,0.19183684885501862,0.9814268350601196,64.83000183105469,63.45500183105469)"><path stroke-linecap="round" stroke-linejoin="round" fill-opacity="0" stroke="rgb(86,40,54)" stroke-opacity="1" stroke-width="17.733" d=" M-28.336999893188477,-2.111999988555908 C-28.336999893188477,-2.111999988555908 -14.362000465393066,-9.079999923706055 3.128999948501587,-5.995999813079834 C19.038999557495117,-3.190000057220459 28.336999893188477,9.081000328063965 28.336999893188477,9.081000328063965"></path></g><g opacity="1" transform="matrix(1,0,0,1,253.65199279785156,74.88099670410156)"><path stroke-linecap="round" stroke-linejoin="round" fill-opacity="0" stroke="rgb(86,40,54)" stroke-opacity="1" stroke-width="18.513" d=" M-25.934999465942383,-16.445999145507812 C-25.934999465942383,-16.445999145507812 -9.496999740600586,-17.327999114990234 6.650000095367432,-7.255000114440918 C21.33799934387207,1.909000039100647 25.934999465942383,17.327999114990234 25.934999465942383,17.327999114990234"></path></g></g><g style="display: block;" transform="matrix(1.1040294170379639,-0.019953135401010513,-0.023814549669623375,1.0008214712142944,271.16326904296875,263.2599182128906)" opacity="1"><g opacity="1" transform="matrix(1,0,0,1,41.882999420166016,47.5989990234375)"><path fill="rgb(255,195,161)" fill-opacity="1" d=" M6.760000228881836,-18.211000442504883 C6.760000228881836,-18.211000442504883 -3.072999954223633,-16.35700035095215 -5.940999984741211,-7.552999973297119 C-8.809000015258789,1.2510000467300415 -12.496000289916992,10.982000350952148 -10.857000350952148,13.298999786376953 C-9.218000411987305,15.614999771118164 -3.6010000705718994,18.211000442504883 1.434000015258789,14.225000381469727 C9.628000259399414,7.73799991607666 12.496000289916992,-9.869999885559082 12.496000289916992,-9.869999885559082 C12.496000289916992,-9.869999885559082 6.760000228881836,-18.211000442504883 6.760000228881836,-18.211000442504883z"></path><path stroke-linecap="butt" stroke-linejoin="miter" fill-opacity="0" stroke-miterlimit="10" stroke="rgb(173,92,37)" stroke-opacity="1" stroke-width="11.755" d=" M6.760000228881836,-18.211000442504883 C6.760000228881836,-18.211000442504883 -3.072999954223633,-16.35700035095215 -5.940999984741211,-7.552999973297119 C-8.809000015258789,1.2510000467300415 -12.496000289916992,10.982000350952148 -10.857000350952148,13.298999786376953 C-9.218000411987305,15.614999771118164 -3.6010000705718994,18.211000442504883 1.434000015258789,14.225000381469727 C9.628000259399414,7.73799991607666 12.496000289916992,-9.869999885559082 12.496000289916992,-9.869999885559082 C12.496000289916992,-9.869999885559082 6.760000228881836,-18.211000442504883 6.760000228881836,-18.211000442504883z"></path></g></g><g style="display: block;" transform="matrix(1.0938981771469116,-0.019770033657550812,-0.023596107959747314,0.9916421175003052,164.55740356445312,273.7206726074219)" opacity="1"><g opacity="1" transform="matrix(1,0,0,1,41.882999420166016,47.5989990234375)"><path fill="rgb(255,195,161)" fill-opacity="1" d=" M-6.760000228881836,-18.211000442504883 C-6.760000228881836,-18.211000442504883 3.072999954223633,-16.35700035095215 5.940999984741211,-7.552999973297119 C8.809000015258789,1.2510000467300415 12.496000289916992,10.982000350952148 10.857000350952148,13.298999786376953 C9.218000411987305,15.614999771118164 3.6010000705718994,18.211000442504883 -1.434000015258789,14.225000381469727 C-9.628000259399414,7.73799991607666 -12.496000289916992,-9.869999885559082 -12.496000289916992,-9.869999885559082 C-12.496000289916992,-9.869999885559082 -6.760000228881836,-18.211000442504883 -6.760000228881836,-18.211000442504883z"></path><path stroke-linecap="butt" stroke-linejoin="miter" fill-opacity="0" stroke-miterlimit="10" stroke="rgb(173,92,37)" stroke-opacity="1" stroke-width="11.755" d=" M-6.760000228881836,-18.211000442504883 C-6.760000228881836,-18.211000442504883 3.072999954223633,-16.35700035095215 5.940999984741211,-7.552999973297119 C8.809000015258789,1.2510000467300415 12.496000289916992,10.982000350952148 10.857000350952148,13.298999786376953 C9.218000411987305,15.614999771118164 3.6010000705718994,18.211000442504883 -1.434000015258789,14.225000381469727 C-9.628000259399414,7.73799991607666 -12.496000289916992,-9.869999885559082 -12.496000289916992,-9.869999885559082 C-12.496000289916992,-9.869999885559082 -6.760000228881836,-18.211000442504883 -6.760000228881836,-18.211000442504883z"></path></g></g><g style="display: block;" transform="matrix(1.012157678604126,-0.019991952925920486,-0.01999194361269474,0.9188323020935059,100.55791473388672,228.4446258544922)" opacity="1"><g opacity="1" transform="matrix(1,0,0,1,162.45700073242188,135.75399780273438)"><path fill="rgb(75,70,81)" fill-opacity="1" d=" M-57.770999908447266,6.479000091552734 C-57.770999908447266,6.479000091552734 -52.9119987487793,-4.589000225067139 -39.41400146484375,-9.178999900817871 C-25.916000366210938,-13.767999649047852 -7.019000053405762,-17.006999969482422 15.38700008392334,-14.307999610900879 C37.79399871826172,-11.607999801635742 52.64099884033203,-7.019000053405762 55.340999603271484,0.8100000023841858 C57.39500045776367,6.76800012588501 57.770999908447266,10.79800033569336 57.770999908447266,10.79800033569336 C57.770999908447266,10.79800033569336 8.637999534606934,17.006999969482422 8.637999534606934,17.006999969482422 C8.637999534606934,17.006999969482422 -44.27299880981445,15.118000030517578 -44.27299880981445,15.118000030517578 C-44.27299880981445,15.118000030517578 -57.770999908447266,6.479000091552734 -57.770999908447266,6.479000091552734z"></path><path stroke-linecap="butt" stroke-linejoin="miter" fill-opacity="0" stroke-miterlimit="10" stroke="rgb(36,28,43)" stroke-opacity="1" stroke-width="8.175" d=" M-57.770999908447266,6.479000091552734 C-57.770999908447266,6.479000091552734 -52.9119987487793,-4.589000225067139 -39.41400146484375,-9.178999900817871 C-25.916000366210938,-13.767999649047852 -7.019000053405762,-17.006999969482422 15.38700008392334,-14.307999610900879 C37.79399871826172,-11.607999801635742 52.64099884033203,-7.019000053405762 55.340999603271484,0.8100000023841858 C57.39500045776367,6.76800012588501 57.770999908447266,10.79800033569336 57.770999908447266,10.79800033569336 C57.770999908447266,10.79800033569336 8.637999534606934,17.006999969482422 8.637999534606934,17.006999969482422 C8.637999534606934,17.006999969482422 -44.27299880981445,15.118000030517578 -44.27299880981445,15.118000030517578 C-44.27299880981445,15.118000030517578 -57.770999908447266,6.479000091552734 -57.770999908447266,6.479000091552734z"></path></g><g opacity="1" transform="matrix(1,0,0,1,164.39700317382812,169.52699279785156)"><path fill="url(#__lottie_element_13)" fill-opacity="1" d=" M132.22799682617188,-32.05500030517578 C124.12899780273438,-90.70500183105469 59.654998779296875,-145.45799255371094 -23.267000198364258,-133.71499633789062 C-84.00700378417969,-125.11299896240234 -123.34100341796875,-76.57099914550781 -131.7899932861328,-43.78499984741211 C-135.21499633789062,-30.493000030517578 -140.32699584960938,2.6419999599456787 -130.97999572753906,37.54199981689453 C-118.83200073242188,82.89800262451172 -92.91600036621094,104.79499816894531 -70.23899841308594,115.74299621582031 C-42.70399856567383,129.03700256347656 26.135000228881836,145.45700073242188 73.91799926757812,112.61399841308594 C124.42400360107422,77.89800262451172 140.32699584960938,26.5939998626709 132.22799682617188,-32.05500030517578z M-18.679000854492188,-107.39099884033203 C40.15999984741211,-115.91500091552734 87.29000091552734,-81.28099822998047 101.20700073242188,-39.816001892089844 C101.6780014038086,-37.22999954223633 101.6729965209961,-34.6510009765625 100.37300109863281,-33.172000885009766 C97.98200225830078,-30.451000213623047 99.29299926757812,-29.409000396728516 89.84500122070312,-30.753000259399414 C80.39600372314453,-32.09700012207031 44.492000579833984,-38.547000885009766 12.63700008392334,-40.696998596191406 C-19.218000411987305,-42.84700012207031 -45.94300079345703,-38.00899887084961 -59.17100143432617,-35.85900115966797 C-72.39900207519531,-33.70899963378906 -96.0469970703125,-28.2549991607666 -100.20500183105469,-30.483999252319336 C-103.71399688720703,-32.36600112915039 -103.98400115966797,-34.24700164794922 -103.71399688720703,-38.00899887084961 C-103.70899963378906,-38.08000183105469 -103.6989974975586,-38.15399932861328 -103.69200134277344,-38.22600173950195 C-95.11599731445312,-64.64299774169922 -64.61000061035156,-100.73699951171875 -18.679000854492188,-107.39099884033203z M-104.16100311279297,27.426000595092773 C-105.54399871826172,22.30299949645996 -106.5270004272461,17.229000091552734 -107.19599914550781,12.295000076293945 C-106.38400268554688,10.979999542236328 -105.21099853515625,10.305000305175781 -104.52400207519531,10.17199993133545 C-103.17400360107422,9.911999702453613 -95.07599639892578,9.911999702453613 -85.89700317382812,13.821999549865723 C-76.71800231933594,17.73200035095215 -63.76100158691406,27.375999450683594 -54.85200119018555,40.409000396728516 C-46.79199981689453,52.20199966430664 -35.14500045776367,74.03500366210938 -33.525001525878906,79.7699966430664 C-31.9060001373291,85.50399780273438 -28.7189998626709,89.30999755859375 -35.95500183105469,92.8030014038086 C-38.91400146484375,94.23200225830078 -43.16699981689453,93.7020034790039 -46.40999984741211,92.93299865722656 C-50.03300094604492,91.63800048828125 -53.24700164794922,90.302001953125 -55.957000732421875,89.00399780273438 C-73.9530029296875,80.38300323486328 -94.5199966430664,63.14099884033203 -104.16100311279297,27.426000595092773z M58.448001861572266,86.54100036621094 C56.41999816894531,87.92400360107422 54.34299850463867,89.18900299072266 52.22700119018555,90.35700225830078 C48.28200149536133,92.11399841308594 37.236000061035156,96.32099914550781 31.534000396728516,91.23899841308594 C24.514999389648438,84.98300170898438 29.645000457763672,78.20600128173828 37.202999114990234,62.566001892089844 C44.762001037597656,46.92599868774414 61.76900100708008,27.114999771118164 67.43900299072266,20.599000930786133 C73.10800170898438,14.081999778747559 95.2969970703125,8.35099983215332 102.46499633789062,10.17199993133545 C104.44100189208984,10.673999786376953 104.86499786376953,12.722000122070312 104.81300354003906,14.597000122070312 C100.37000274658203,43.12200164794922 85.81400299072266,67.87699890136719 58.448001861572266,86.54100036621094z"></path><path stroke-linecap="butt" stroke-linejoin="miter" fill-opacity="0" stroke-miterlimit="10" stroke="rgb(36,28,43)" stroke-opacity="1" stroke-width="9.628" d=" M132.22799682617188,-32.05500030517578 C124.12899780273438,-90.70500183105469 59.654998779296875,-145.45799255371094 -23.267000198364258,-133.71499633789062 C-84.00700378417969,-125.11299896240234 -123.34100341796875,-76.57099914550781 -131.7899932861328,-43.78499984741211 C-135.21499633789062,-30.493000030517578 -140.32699584960938,2.6419999599456787 -130.97999572753906,37.54199981689453 C-118.83200073242188,82.89800262451172 -92.91600036621094,104.79499816894531 -70.23899841308594,115.74299621582031 C-42.70399856567383,129.03700256347656 26.135000228881836,145.45700073242188 73.91799926757812,112.61399841308594 C124.42400360107422,77.89800262451172 140.32699584960938,26.5939998626709 132.22799682617188,-32.05500030517578z M-18.679000854492188,-107.39099884033203 C40.15999984741211,-115.91500091552734 87.29000091552734,-81.28099822998047 101.20700073242188,-39.816001892089844 C101.6780014038086,-37.22999954223633 101.6729965209961,-34.6510009765625 100.37300109863281,-33.172000885009766 C97.98200225830078,-30.451000213623047 99.29299926757812,-29.409000396728516 89.84500122070312,-30.753000259399414 C80.39600372314453,-32.09700012207031 44.492000579833984,-38.547000885009766 12.63700008392334,-40.696998596191406 C-19.218000411987305,-42.84700012207031 -45.94300079345703,-38.00899887084961 -59.17100143432617,-35.85900115966797 C-72.39900207519531,-33.70899963378906 -96.0469970703125,-28.2549991607666 -100.20500183105469,-30.483999252319336 C-103.71399688720703,-32.36600112915039 -103.98400115966797,-34.24700164794922 -103.71399688720703,-38.00899887084961 C-103.70899963378906,-38.08000183105469 -103.6989974975586,-38.15399932861328 -103.69200134277344,-38.22600173950195 C-95.11599731445312,-64.64299774169922 -64.61000061035156,-100.73699951171875 -18.679000854492188,-107.39099884033203z M-104.16100311279297,27.426000595092773 C-105.54399871826172,22.30299949645996 -106.5270004272461,17.229000091552734 -107.19599914550781,12.295000076293945 C-106.38400268554688,10.979999542236328 -105.21099853515625,10.305000305175781 -104.52400207519531,10.17199993133545 C-103.17400360107422,9.911999702453613 -95.07599639892578,9.911999702453613 -85.89700317382812,13.821999549865723 C-76.71800231933594,17.73200035095215 -63.76100158691406,27.375999450683594 -54.85200119018555,40.409000396728516 C-46.79199981689453,52.20199966430664 -35.14500045776367,74.03500366210938 -33.525001525878906,79.7699966430664 C-31.9060001373291,85.50399780273438 -28.7189998626709,89.30999755859375 -35.95500183105469,92.8030014038086 C-38.91400146484375,94.23200225830078 -43.16699981689453,93.7020034790039 -46.40999984741211,92.93299865722656 C-50.03300094604492,91.63800048828125 -53.24700164794922,90.302001953125 -55.957000732421875,89.00399780273438 C-73.9530029296875,80.38300323486328 -94.5199966430664,63.14099884033203 -104.16100311279297,27.426000595092773z M58.448001861572266,86.54100036621094 C56.41999816894531,87.92400360107422 54.34299850463867,89.18900299072266 52.22700119018555,90.35700225830078 C48.28200149536133,92.11399841308594 37.236000061035156,96.32099914550781 31.534000396728516,91.23899841308594 C24.514999389648438,84.98300170898438 29.645000457763672,78.20600128173828 37.202999114990234,62.566001892089844 C44.762001037597656,46.92599868774414 61.76900100708008,27.114999771118164 67.43900299072266,20.599000930786133 C73.10800170898438,14.081999778747559 95.2969970703125,8.35099983215332 102.46499633789062,10.17199993133545 C104.44100189208984,10.673999786376953 104.86499786376953,12.722000122070312 104.81300354003906,14.597000122070312 C100.37000274658203,43.12200164794922 85.81400299072266,67.87699890136719 58.448001861572266,86.54100036621094z"></path></g><g opacity="1" transform="matrix(1,0,0,1,164.16200256347656,190.97500610351562)"><path fill="rgb(58,46,72)" fill-opacity="1" d=" M-42.569000244140625,-8.362000465393066 C-42.569000244140625,-8.362000465393066 -27.1200008392334,22.53499984741211 -27.1200008392334,22.53499984741211 C-24.628000259399414,27.520000457763672 -19.533000946044922,30.66900062561035 -13.960000038146973,30.66900062561035 C-13.960000038146973,30.66900062561035 10.831999778747559,30.66900062561035 10.831999778747559,30.66900062561035 C15.687999725341797,30.66900062561035 20.23200035095215,28.27199935913086 22.975000381469727,24.263999938964844 C22.975000381469727,24.263999938964844 41.233001708984375,-2.4210000038146973 41.233001708984375,-2.4210000038146973 C44.25,-6.830999851226807 44.638999938964844,-12.529999732971191 42.25,-17.309999465942383 C42.25,-17.309999465942383 40.22100067138672,-21.368000030517578 40.22100067138672,-21.368000030517578 C37.77299880981445,-26.263999938964844 32.81100082397461,-29.395999908447266 27.339000701904297,-29.499000549316406 C27.339000701904297,-29.499000549316406 -28.738000869750977,-30.55699920654297 -28.738000869750977,-30.55699920654297 C-34.69599914550781,-30.66900062561035 -40.132999420166016,-27.177000045776367 -42.50899887084961,-21.71299934387207 C-42.50899887084961,-21.71299934387207 -42.902000427246094,-20.80900001525879 -42.902000427246094,-20.80900001525879 C-44.638999938964844,-16.815000534057617 -44.516998291015625,-12.256999969482422 -42.569000244140625,-8.362000465393066z"></path><path stroke-linecap="butt" stroke-linejoin="miter" fill-opacity="0" stroke-miterlimit="10" stroke="rgb(36,28,43)" stroke-opacity="1" stroke-width="9.199" d=" M-42.569000244140625,-8.362000465393066 C-42.569000244140625,-8.362000465393066 -27.1200008392334,22.53499984741211 -27.1200008392334,22.53499984741211 C-24.628000259399414,27.520000457763672 -19.533000946044922,30.66900062561035 -13.960000038146973,30.66900062561035 C-13.960000038146973,30.66900062561035 10.831999778747559,30.66900062561035 10.831999778747559,30.66900062561035 C15.687999725341797,30.66900062561035 20.23200035095215,28.27199935913086 22.975000381469727,24.263999938964844 C22.975000381469727,24.263999938964844 41.233001708984375,-2.4210000038146973 41.233001708984375,-2.4210000038146973 C44.25,-6.830999851226807 44.638999938964844,-12.529999732971191 42.25,-17.309999465942383 C42.25,-17.309999465942383 40.22100067138672,-21.368000030517578 40.22100067138672,-21.368000030517578 C37.77299880981445,-26.263999938964844 32.81100082397461,-29.395999908447266 27.339000701904297,-29.499000549316406 C27.339000701904297,-29.499000549316406 -28.738000869750977,-30.55699920654297 -28.738000869750977,-30.55699920654297 C-34.69599914550781,-30.66900062561035 -40.132999420166016,-27.177000045776367 -42.50899887084961,-21.71299934387207 C-42.50899887084961,-21.71299934387207 -42.902000427246094,-20.80900001525879 -42.902000427246094,-20.80900001525879 C-44.638999938964844,-16.815000534057617 -44.516998291015625,-12.256999969482422 -42.569000244140625,-8.362000465393066z"></path></g><g opacity="1" transform="matrix(1,0,0,1,141.0500030517578,77.86599731445312)"><path fill="rgb(177,174,190)" fill-opacity="1" d=" M-99.03199768066406,45.70500183105469 C-99.03199768066406,45.70500183105469 -77.23400115966797,-28.761999130249023 3.4700000286102295,-37.577999114990234 C67,-44.518001556396484 99.03199768066406,-15.156000137329102 99.03199768066406,-15.156000137329102 C99.03199768066406,-15.156000137329102 39.902000427246094,-45.70500183105469 -17.884000778198242,-27.9689998626709 C-71.80500030517578,-11.418999671936035 -99.03199768066406,45.70500183105469 -99.03199768066406,45.70500183105469z"></path></g><g opacity="1" transform="matrix(1,0,0,1,166.14199829101562,143.64999389648438)"><path fill="rgb(161,143,178)" fill-opacity="1" d=" M-98.63500213623047,1.7259999513626099 C-98.63500213623047,1.7259999513626099 -34.9109992980957,-11.277000427246094 6.815000057220459,-9.475000381469727 C69.17500305175781,-6.781000137329102 88.72699737548828,3.4010000228881836 95.13400268554688,4.468999862670898 C101.54000091552734,5.5370001792907715 52.233001708984375,-2.7269999980926514 1.5160000324249268,-3.7939999103546143 C-25.235000610351562,-4.35699987411499 -69.4520034790039,2.5859999656677246 -84.83000183105469,5.004000186920166 C-88.3270034790039,5.553999900817871 -97.00499725341797,8.333999633789062 -100.0999984741211,6.614999771118164 C-100.0999984741211,6.614999771118164 -98.63500213623047,1.7259999513626099 -98.63500213623047,1.7259999513626099z"></path></g><g opacity="1" transform="matrix(1,0,0,1,163.33900451660156,170.81900024414062)"><path fill="rgb(102,87,121)" fill-opacity="1" d=" M-31.631000518798828,3.4700000286102295 C-31.631000518798828,3.4700000286102295 33.500999450683594,4.270999908447266 33.500999450683594,4.270999908447266 C33.500999450683594,4.270999908447266 32.43199920654297,0.2669999897480011 30.29599952697754,-1.3350000381469727 C28.160999298095703,-2.936000108718872 -22.82200050354004,-4.270999908447266 -28.160999298095703,-3.4700000286102295 C-33.5,-2.6689999103546143 -31.631000518798828,3.4700000286102295 -31.631000518798828,3.4700000286102295z"></path></g></g><g style="display: block;" transform="matrix(1.0938981771469116,-0.019770033657550812,-0.023596107959747314,0.9916421175003052,86.8647689819336,256.7734680175781)" opacity="1"><g opacity="1" transform="matrix(1,0,0,1,68.1510009765625,68.73400115966797)"><path fill="rgb(255,205,176)" fill-opacity="1" d=" M37.11000061035156,-16.104000091552734 C37.11000061035156,-16.104000091552734 27.256999969482422,-27.267000198364258 13.539999961853027,-33.415000915527344 C2.9170000553131104,-38.178001403808594 -5.006999969482422,-40.525001525878906 -15.270999908447266,-39.10900115966797 C-21.13599967956543,-38.29999923706055 -25.788000106811523,-30.621000289916992 -27.132999420166016,-28.30699920654297 C-38.694000244140625,-8.418999671936035 -39.941001892089844,10.73900032043457 -39.69200134277344,13.979999542236328 C-39.20000076293945,20.371000289916992 -30.13599967956543,32.03099822998047 -12.086000442504883,36.27799987792969 C5.965000152587891,40.525001525878906 11.980999946594238,37.69300079345703 13.75100040435791,35.21500015258789 C15.520999908447266,32.737998962402344 18.77899932861328,27.48200035095215 18.77899932861328,27.48200035095215 C18.77899932861328,27.48200035095215 21.554000854492188,28.881000518798828 24.385000228881836,24.280000686645508 C27.215999603271484,19.679000854492188 30.277000427246094,16.566999435424805 31.058000564575195,7.196000099182129 C31.325000762939453,3.993000030517578 38.5260009765625,-2.6549999713897705 39.23400115966797,-7.25600004196167 C39.941001892089844,-11.857000350952148 37.11000061035156,-16.104000091552734 37.11000061035156,-16.104000091552734z"></path><path stroke-linecap="round" stroke-linejoin="round" fill-opacity="0" stroke="rgb(173,92,37)" stroke-opacity="1" stroke-width="11.284" d=" M37.11000061035156,-16.104000091552734 C37.11000061035156,-16.104000091552734 27.256999969482422,-27.267000198364258 13.539999961853027,-33.415000915527344 C2.9170000553131104,-38.178001403808594 -5.006999969482422,-40.525001525878906 -15.270999908447266,-39.10900115966797 C-21.13599967956543,-38.29999923706055 -25.788000106811523,-30.621000289916992 -27.132999420166016,-28.30699920654297 C-38.694000244140625,-8.418999671936035 -39.941001892089844,10.73900032043457 -39.69200134277344,13.979999542236328 C-39.20000076293945,20.371000289916992 -30.13599967956543,32.03099822998047 -12.086000442504883,36.27799987792969 C5.965000152587891,40.525001525878906 11.980999946594238,37.69300079345703 13.75100040435791,35.21500015258789 C15.520999908447266,32.737998962402344 18.77899932861328,27.48200035095215 18.77899932861328,27.48200035095215 C18.77899932861328,27.48200035095215 21.554000854492188,28.881000518798828 24.385000228881836,24.280000686645508 C27.215999603271484,19.679000854492188 30.277000427246094,16.566999435424805 31.058000564575195,7.196000099182129 C31.325000762939453,3.993000030517578 38.5260009765625,-2.6549999713897705 39.23400115966797,-7.25600004196167 C39.941001892089844,-11.857000350952148 37.11000061035156,-16.104000091552734 37.11000061035156,-16.104000091552734z"></path></g><g opacity="1" transform="matrix(1,0,0,1,81.7249984741211,67.52200317382812)"><path fill="rgb(255,205,176)" fill-opacity="1" d=" M-8.486000061035156,-5.283999919891357 C-8.486000061035156,-5.283999919891357 -3.3469998836517334,-4.230000019073486 4.686999797821045,0.5019999742507935 C11.437999725341797,4.479000091552734 15.961999893188477,9.243000030517578 15.961999893188477,9.243000030517578"></path><path stroke-linecap="round" stroke-linejoin="round" fill-opacity="0" stroke="rgb(173,92,37)" stroke-opacity="1" stroke-width="10.778" d=" M-8.486000061035156,-5.283999919891357 C-8.486000061035156,-5.283999919891357 -3.3469998836517334,-4.230000019073486 4.686999797821045,0.5019999742507935 C11.437999725341797,4.479000091552734 15.961999893188477,9.243000030517578 15.961999893188477,9.243000030517578"></path></g><g opacity="1" transform="matrix(1,0,0,1,72.51599884033203,88.07499694824219)"><path fill="rgb(255,205,176)" fill-opacity="1" d=" M-6.111000061035156,-3.6429998874664307 C-6.111000061035156,-3.6429998874664307 -5.293000221252441,-4.188000202178955 3.5269999504089355,-1.1629999876022339 C9.437000274658203,0.8640000224113464 14.069999694824219,7.067999839782715 14.069999694824219,7.067999839782715"></path><path stroke-linecap="round" stroke-linejoin="round" fill-opacity="0" stroke="rgb(173,92,37)" stroke-opacity="1" stroke-width="10.778" d=" M-6.111000061035156,-3.6429998874664307 C-6.111000061035156,-3.6429998874664307 -5.293000221252441,-4.188000202178955 3.5269999504089355,-1.1629999876022339 C9.437000274658203,0.8640000224113464 14.069999694824219,7.067999839782715 14.069999694824219,7.067999839782715"></path></g><g opacity="1" transform="matrix(1,0,0,1,0,0)"><path fill="rgb(255,236,226)" fill-opacity="1" d=" M50.49599838256836,36.97700119018555 C42.70399856567383,39.81399917602539 32.12699890136719,77.68900299072266 33.560001373291016,82.10700225830078 C36.81399917602539,92.13800048828125 49.345001220703125,95.49600219726562 46.46699905395508,93.6780014038086 C43.5890007019043,91.86000061035156 39.86899948120117,80.39600372314453 40.6879997253418,74.45700073242188 C41.50699996948242,68.51799774169922 48.01599884033203,49.08300018310547 55.91999816894531,43.82099914550781 C63.82400131225586,38.558998107910156 77.30699920654297,40.619998931884766 77.30699920654297,40.619998931884766 C77.30699920654297,40.619998931884766 67.2770004272461,30.867000579833984 50.49599838256836,36.97700119018555z"></path></g></g><g style="display: block;" transform="matrix(1.1040294170379639,-0.019953135401010513,-0.023814549669623375,1.0008214712142944,283.1089782714844,245.6022186279297)" opacity="1"><g opacity="1" transform="matrix(1,0,0,1,68.1510009765625,68.73400115966797)"><path fill="rgb(255,205,176)" fill-opacity="1" d=" M-37.11000061035156,-16.104000091552734 C-37.11000061035156,-16.104000091552734 -27.256999969482422,-27.267000198364258 -13.539999961853027,-33.415000915527344 C-2.9170000553131104,-38.178001403808594 5.006999969482422,-40.525001525878906 15.270999908447266,-39.10900115966797 C21.13599967956543,-38.29999923706055 25.788000106811523,-30.621000289916992 27.132999420166016,-28.30699920654297 C38.694000244140625,-8.418999671936035 39.941001892089844,10.73900032043457 39.69200134277344,13.979999542236328 C39.20000076293945,20.371000289916992 30.13599967956543,32.03099822998047 12.086000442504883,36.27799987792969 C-5.965000152587891,40.525001525878906 -11.980999946594238,37.69300079345703 -13.75100040435791,35.21500015258789 C-15.520999908447266,32.737998962402344 -18.77899932861328,27.48200035095215 -18.77899932861328,27.48200035095215 C-18.77899932861328,27.48200035095215 -21.554000854492188,28.881000518798828 -24.385000228881836,24.280000686645508 C-27.215999603271484,19.679000854492188 -30.277000427246094,16.566999435424805 -31.058000564575195,7.196000099182129 C-31.325000762939453,3.993000030517578 -38.5260009765625,-2.6549999713897705 -39.23400115966797,-7.25600004196167 C-39.941001892089844,-11.857000350952148 -37.11000061035156,-16.104000091552734 -37.11000061035156,-16.104000091552734z"></path><path stroke-linecap="round" stroke-linejoin="round" fill-opacity="0" stroke="rgb(173,92,37)" stroke-opacity="1" stroke-width="11.284" d=" M-37.11000061035156,-16.104000091552734 C-37.11000061035156,-16.104000091552734 -27.256999969482422,-27.267000198364258 -13.539999961853027,-33.415000915527344 C-2.9170000553131104,-38.178001403808594 5.006999969482422,-40.525001525878906 15.270999908447266,-39.10900115966797 C21.13599967956543,-38.29999923706055 25.788000106811523,-30.621000289916992 27.132999420166016,-28.30699920654297 C38.694000244140625,-8.418999671936035 39.941001892089844,10.73900032043457 39.69200134277344,13.979999542236328 C39.20000076293945,20.371000289916992 30.13599967956543,32.03099822998047 12.086000442504883,36.27799987792969 C-5.965000152587891,40.525001525878906 -11.980999946594238,37.69300079345703 -13.75100040435791,35.21500015258789 C-15.520999908447266,32.737998962402344 -18.77899932861328,27.48200035095215 -18.77899932861328,27.48200035095215 C-18.77899932861328,27.48200035095215 -21.554000854492188,28.881000518798828 -24.385000228881836,24.280000686645508 C-27.215999603271484,19.679000854492188 -30.277000427246094,16.566999435424805 -31.058000564575195,7.196000099182129 C-31.325000762939453,3.993000030517578 -38.5260009765625,-2.6549999713897705 -39.23400115966797,-7.25600004196167 C-39.941001892089844,-11.857000350952148 -37.11000061035156,-16.104000091552734 -37.11000061035156,-16.104000091552734z"></path></g><g opacity="1" transform="matrix(1,0,0,1,54.57699966430664,67.52200317382812)"><path fill="rgb(255,205,176)" fill-opacity="1" d=" M4.605000019073486,-5.126999855041504 C4.605000019073486,-5.126999855041504 2.421999931335449,-3.946000099182129 -6.119999885559082,-0.20800000429153442 C-11.843999862670898,2.2960000038146973 -16.41699981689453,7.073999881744385 -16.41699981689453,7.073999881744385"></path><path stroke-linecap="round" stroke-linejoin="round" fill-opacity="0" stroke="rgb(173,92,37)" stroke-opacity="1" stroke-width="10.778" d=" M4.605000019073486,-5.126999855041504 C4.605000019073486,-5.126999855041504 2.421999931335449,-3.946000099182129 -6.119999885559082,-0.20800000429153442 C-11.843999862670898,2.2960000038146973 -16.41699981689453,7.073999881744385 -16.41699981689453,7.073999881744385"></path></g><g opacity="1" transform="matrix(1,0,0,1,63.7859992980957,88.07499694824219)"><path fill="rgb(255,205,176)" fill-opacity="1" d=" M7.146999835968018,-4.557000160217285 C7.146999835968018,-4.557000160217285 5.2829999923706055,-3.740999937057495 -3.5369999408721924,-0.7160000205039978 C-9.446999549865723,1.3109999895095825 -16.016000747680664,5.4720001220703125 -16.016000747680664,5.4720001220703125"></path><path stroke-linecap="round" stroke-linejoin="round" fill-opacity="0" stroke="rgb(173,92,37)" stroke-opacity="1" stroke-width="10.778" d=" M7.146999835968018,-4.557000160217285 C7.146999835968018,-4.557000160217285 5.2829999923706055,-3.740999937057495 -3.5369999408721924,-0.7160000205039978 C-9.446999549865723,1.3109999895095825 -16.016000747680664,5.4720001220703125 -16.016000747680664,5.4720001220703125"></path></g><g opacity="1" transform="matrix(1,0,0,1,0,0)"><path fill="rgb(244,165,125)" fill-opacity="1" d=" M83.072998046875,35.89799880981445 C74.93800354003906,33.31399917602539 68.98300170898438,37.165000915527344 68.98300170898438,37.165000915527344 C68.98300170898438,37.165000915527344 82.49299621582031,39.79199981689453 86.63400268554688,48.111000061035156 C90.7750015258789,56.43000030517578 97.96900177001953,74.35900115966797 96.73600006103516,82.63500213623047 C96.08300018310547,87.01899719238281 89.11100006103516,94.677001953125 89.11100006103516,94.677001953125 C89.11100006103516,94.677001953125 104.72599792480469,92.2040023803711 103.34400177001953,77.40899658203125 C102.2979965209961,66.21299743652344 92.91600036621094,39.025001525878906 83.072998046875,35.89799880981445z"></path></g></g></g></g></svg>