<svg xmlns="http://www.w3.org/2000/svg" xmlns:xlink="http://www.w3.org/1999/xlink" viewBox="0 0 512 512" width="512" height="512" style="width: 100%; height: 100%; transform: translate3d(0,0,0); content-visibility: visible;" preserveAspectRatio="xMidYMid meet"><defs><clipPath id="__lottie_element_2"><rect width="512" height="512" x="0" y="0"></rect></clipPath><clipPath id="__lottie_element_4"><path d="M0,0 L512,0 L512,512 L0,512z"></path></clipPath><radialGradient id="__lottie_element_28" spreadMethod="pad" gradientUnits="userSpaceOnUse"><stop></stop><stop></stop><stop></stop></radialGradient><clipPath id="__lottie_element_60"><path d="M0,0 L512,0 L512,512 L0,512z"></path></clipPath><radialGradient id="__lottie_element_84" spreadMethod="pad" gradientUnits="userSpaceOnUse" cx="-31.593000411987305" cy="-89.48100280761719" r="200.1050793059804" fx="-31.593000411987305" fy="-89.48100280761719"><stop offset="0%" stop-color="rgb(254,216,188)"></stop><stop offset="85%" stop-color="rgb(250,200,170)"></stop><stop offset="100%" stop-color="rgb(247,185,152)"></stop></radialGradient></defs><g clip-path="url(#__lottie_element_2)"><g clip-path="url(#__lottie_element_60)" style="display: block;" transform="matrix(1,0,0,1,0,0)" opacity="1"><g style="display: block;" transform="matrix(0.7788124680519104,-0.2160460352897644,0.2160460352897644,0.7788124680519104,444.32257080078125,217.70928955078125)" opacity="1"><g opacity="1" transform="matrix(1,0,0,1,0,0)"><path stroke-linecap="butt" stroke-linejoin="miter" fill-opacity="0" stroke-miterlimit="4" stroke="rgb(10,69,45)" stroke-opacity="1" stroke-width="11" d=" M-61.840999603271484,119.2040023803711 C-61.840999603271484,119.2040023803711 -59.612998962402344,76.25700378417969 -67.35099792480469,58.44900131225586 C-77.70099639892578,34.630001068115234 -107.73999786376953,34.95000076293945 -117.73999786376953,45.95000076293945 C-127.73999786376953,56.95000076293945 -138.3260040283203,96.39199829101562 -138.3260040283203,96.39199829101562"></path></g><g opacity="1" transform="matrix(1,0,0,1,0,0)"><path fill="rgb(36,93,5)" fill-opacity="1" d=" M-154.5469970703125,46.89400100708008 C-160.45399475097656,45.729000091552734 -171.99899291992188,49.96799850463867 -169.40499877929688,51.516998291015625 C-164.3800048828125,54.516998291015625 -35.749000549316406,100.21399688720703 -28.847999572753906,101.49099731445312 C-21.94700050354004,102.76799774169922 -6.14900016784668,96.48899841308594 -6.14900016784668,96.48899841308594 C-6.14900016784668,96.48899841308594 -148.63999938964844,48.058998107910156 -154.5469970703125,46.89400100708008z"></path><path stroke-linecap="round" stroke-linejoin="round" fill-opacity="0" stroke="rgb(7,83,7)" stroke-opacity="1" stroke-width="9" d=" M-154.5469970703125,46.89400100708008 C-160.45399475097656,45.729000091552734 -171.99899291992188,49.96799850463867 -169.40499877929688,51.516998291015625 C-164.3800048828125,54.516998291015625 -35.749000549316406,100.21399688720703 -28.847999572753906,101.49099731445312 C-21.94700050354004,102.76799774169922 -6.14900016784668,96.48899841308594 -6.14900016784668,96.48899841308594 C-6.14900016784668,96.48899841308594 -148.63999938964844,48.058998107910156 -154.5469970703125,46.89400100708008z"></path></g><g opacity="1" transform="matrix(1,0,0,1,0,0)"><path fill="rgb(10,113,160)" fill-opacity="1" d=" M-163,64.5 C-163,64.5 -166.0800018310547,63.92399978637695 -169.94700622558594,65.16600036621094 C-177.0989990234375,67.46399688720703 -189.94700622558594,69.85099792480469 -188,70.5 C-182.46800231933594,72.34400177001953 -50,119 -42,120 C-34,121 -11.5,108.75 -14,107.75 C-22.16200065612793,104.48500061035156 -122.06199645996094,75.21199798583984 -153.59100341796875,65.80500030517578 C-159.50900268554688,64.03900146484375 -163,64.5 -163,64.5z"></path><path stroke-linecap="butt" stroke-linejoin="miter" fill-opacity="0" stroke-miterlimit="4" stroke="rgb(10,59,128)" stroke-opacity="1" stroke-width="12" d=" M-163,64.5 C-163,64.5 -166.0800018310547,63.92399978637695 -169.94700622558594,65.16600036621094 C-177.0989990234375,67.46399688720703 -189.94700622558594,69.85099792480469 -188,70.5 C-182.46800231933594,72.34400177001953 -50,119 -42,120 C-34,121 -11.5,108.75 -14,107.75 C-22.16200065612793,104.48500061035156 -122.06199645996094,75.21199798583984 -153.59100341796875,65.80500030517578 C-159.50900268554688,64.03900146484375 -163,64.5 -163,64.5z"></path></g><g opacity="1" transform="matrix(1,0,0,1,0,0)"><path fill="rgb(235,16,57)" fill-opacity="1" d=" M-171.14500427246094,50.86399841308594 C-171.14500427246094,50.86399841308594 -212,117 -217,127 C-222,137 -245.38699340820312,176.53399658203125 -245.38699340820312,179.53399658203125 C-245.38699340820312,182.53399658203125 -196.19900512695312,202.97500610351562 -169.50999450683594,216.67300415039062 C-145.95399475097656,228.76400756835938 -70.34400177001953,257.6109924316406 -68.73699951171875,254.6820068359375 C-64.22100067138672,246.4510040283203 -27.621000289916992,103.13700103759766 -27.621000289916992,103.13700103759766 C-27.621000289916992,103.13700103759766 -50.090999603271484,95.11900329589844 -72.09100341796875,88.11900329589844 C-94.09100341796875,81.11900329589844 -171.14500427246094,50.86399841308594 -171.14500427246094,50.86399841308594z"></path><path stroke-linecap="round" stroke-linejoin="round" fill-opacity="0" stroke="rgb(150,9,47)" stroke-opacity="1" stroke-width="13" d=" M-171.14500427246094,50.86399841308594 C-171.14500427246094,50.86399841308594 -212,117 -217,127 C-222,137 -245.38699340820312,176.53399658203125 -245.38699340820312,179.53399658203125 C-245.38699340820312,182.53399658203125 -196.19900512695312,202.97500610351562 -169.50999450683594,216.67300415039062 C-145.95399475097656,228.76400756835938 -70.34400177001953,257.6109924316406 -68.73699951171875,254.6820068359375 C-64.22100067138672,246.4510040283203 -27.621000289916992,103.13700103759766 -27.621000289916992,103.13700103759766 C-27.621000289916992,103.13700103759766 -50.090999603271484,95.11900329589844 -72.09100341796875,88.11900329589844 C-94.09100341796875,81.11900329589844 -171.14500427246094,50.86399841308594 -171.14500427246094,50.86399841308594z"></path></g><g opacity="1" transform="matrix(1,0,0,1,0,0)"><path fill="rgb(177,9,51)" fill-opacity="1" d=" M-4.880000114440918,98.95700073242188 C-8.880000114440918,98.95700073242188 -27.305999755859375,100.73699951171875 -27.305999755859375,100.73699951171875 C-27.305999755859375,100.73699951171875 -42.16899871826172,151.32899475097656 -49.90299987792969,183.25399780273438 C-57.67300033569336,215.3260040283203 -70.12100219726562,252.5189971923828 -68.11599731445312,253.52099609375 C-64.11599731445312,255.52099609375 -10.581999778747559,237.92100524902344 -10.581999778747559,237.92100524902344 C-10.581999778747559,237.92100524902344 -0.8799999952316284,98.95700073242188 -4.880000114440918,98.95700073242188z"></path><path stroke-linecap="round" stroke-linejoin="round" fill-opacity="0" stroke="rgb(140,8,43)" stroke-opacity="1" stroke-width="13" d=" M-4.880000114440918,98.95700073242188 C-8.880000114440918,98.95700073242188 -27.305999755859375,100.73699951171875 -27.305999755859375,100.73699951171875 C-27.305999755859375,100.73699951171875 -42.16899871826172,151.32899475097656 -49.90299987792969,183.25399780273438 C-57.67300033569336,215.3260040283203 -70.12100219726562,252.5189971923828 -68.11599731445312,253.52099609375 C-64.11599731445312,255.52099609375 -10.581999778747559,237.92100524902344 -10.581999778747559,237.92100524902344 C-10.581999778747559,237.92100524902344 -0.8799999952316284,98.95700073242188 -4.880000114440918,98.95700073242188z"></path></g><g opacity="1" transform="matrix(1,0,0,1,0,0)"><path stroke-linecap="round" stroke-linejoin="round" fill-opacity="0" stroke="rgb(9,68,44)" stroke-opacity="1" stroke-width="9" d=" M-143.1199951171875,95.69499969482422 C-143.1199951171875,95.69499969482422 -133.1280059814453,58.013999938964844 -119.18099975585938,49.297000885009766 C-103.18099975585938,39.297000885009766 -86.48799896240234,41.19200134277344 -78.10900115966797,64.55000305175781 C-70.5250015258789,85.69200134277344 -77.05599975585938,124.00299835205078 -77.05599975585938,124.00299835205078"></path></g></g><g style="display: block;" transform="matrix(1.3977851867675781,0,0,1.3977851867675781,-130.92922973632812,8.715922355651855)" opacity="1"><g opacity="1" transform="matrix(1,0,0,1,275.58099365234375,159.90699768066406)"></g><g opacity="1" transform="matrix(1,0,0,1,275.58099365234375,159.90699768066406)"><path fill="rgb(236,153,116)" fill-opacity="1" d=" M22.187000274658203,-138.92999267578125 C1.1330000162124634,-138.36099243164062 -11.475000381469727,-137.09300231933594 -44.82899856567383,-119.58300018310547 C-78.18299865722656,-102.0719985961914 -148.93299865722656,-65.61799621582031 -152.26800537109375,-2.244999885559082 C-155.60400390625,61.12699890136719 -78.13899993896484,144.88999938964844 25.52400016784668,135.33900451660156 C119.51699829101562,126.67900085449219 143.93099975585938,67.7969970703125 149.76699829101562,14.430999755859375 C155.60400390625,-38.93600082397461 135.84300231933594,-94.01499938964844 85.63300323486328,-121.89900207519531 C57.94499969482422,-137.27499389648438 43.70500183105469,-139.51100158691406 22.187000274658203,-138.92999267578125z"></path><path stroke-linecap="butt" stroke-linejoin="miter" fill-opacity="0" stroke-miterlimit="10" stroke="rgb(180,91,47)" stroke-opacity="1" stroke-width="12" d=" M22.187000274658203,-138.92999267578125 C1.1330000162124634,-138.36099243164062 -11.475000381469727,-137.09300231933594 -44.82899856567383,-119.58300018310547 C-78.18299865722656,-102.0719985961914 -148.93299865722656,-65.61799621582031 -152.26800537109375,-2.244999885559082 C-155.60400390625,61.12699890136719 -78.13899993896484,144.88999938964844 25.52400016784668,135.33900451660156 C119.51699829101562,126.67900085449219 143.93099975585938,67.7969970703125 149.76699829101562,14.430999755859375 C155.60400390625,-38.93600082397461 135.84300231933594,-94.01499938964844 85.63300323486328,-121.89900207519531 C57.94499969482422,-137.27499389648438 43.70500183105469,-139.51100158691406 22.187000274658203,-138.92999267578125z"></path></g><g opacity="1" transform="matrix(1,0,0,1,272.0880126953125,144.20700073242188)"><path fill="url(#__lottie_element_84)" fill-opacity="1" d=" M18.738000869750977,-115.9229965209961 C18.738000869750977,-115.9229965209961 -8.842000007629395,-115.99600219726562 -38.58300018310547,-100.94499969482422 C-63.494998931884766,-88.33799743652344 -94.35099792480469,-70.52300262451172 -119.9260025024414,-30.549999237060547 C-124.49800109863281,-23.405000686645508 -127.50800323486328,-6.761000156402588 -127.99199676513672,2.0829999446868896 C-130.96499633789062,56.55099868774414 -66.47000122070312,117.16200256347656 25.964000701904297,108.9530029296875 C109.7770004272461,101.50900268554688 133.71200561523438,61.46500015258789 138.91700744628906,15.597999572753906 C144.1219940185547,-30.268999099731445 128.31900024414062,-79.25599670410156 82.83200073242188,-101.93399810791016 C44.106998443603516,-121.24099731445312 18.738000869750977,-115.9229965209961 18.738000869750977,-115.9229965209961z"></path></g></g><g style="display: block;" transform="matrix(1.0835148096084595,0.009270349517464638,-0.009270349517464638,1.0835148096084595,-35.157745361328125,61.18586730957031)" opacity="1"><g opacity="1" transform="matrix(1,0,0,1,457.5270080566406,470.1549987792969)"><path stroke-linecap="round" stroke-linejoin="round" fill-opacity="0" stroke="rgb(95,35,26)" stroke-opacity="1" stroke-width="8.56" d=" M8.53499984741211,-29.799999237060547 C8.53499984741211,-29.799999237060547 -2.380000114440918,-16.02400016784668 -5.458000183105469,-3.36899995803833 C-8.53600025177002,9.28499984741211 -6.49399995803833,29.799999237060547 -6.49399995803833,29.799999237060547"></path></g><g opacity="1" transform="matrix(1,0,0,1,469.9490051269531,471.4490051269531)"><path stroke-linecap="round" stroke-linejoin="round" fill-opacity="0" stroke="rgb(95,35,26)" stroke-opacity="1" stroke-width="8.56" d=" M-0.2590000033378601,-30.57699966430664 C-0.2590000033378601,-30.57699966430664 2.3320000171661377,-14.51099967956543 1.812999963760376,1.0369999408721924 C1.3300000429153442,15.548999786376953 -2.3320000171661377,30.57699966430664 -2.3320000171661377,30.57699966430664"></path></g><g opacity="1" transform="matrix(1,0,0,1,477.98199462890625,466.18798828125)"><path stroke-linecap="round" stroke-linejoin="round" fill-opacity="0" stroke="rgb(95,35,26)" stroke-opacity="1" stroke-width="8.56" d=" M9.305000305175781,29.805999755859375 C9.305000305175781,29.805999755859375 12.784000396728516,14.152999877929688 7.25600004196167,-5.620999813079834 C2.7639999389648438,-21.687000274658203 -12.784000396728516,-29.805999755859375 -12.784000396728516,-29.805999755859375"></path></g></g><g style="display: block;" transform="matrix(1.3471852540969849,0,0,1.3658674955368042,-90.28610229492188,10.659261703491211)" opacity="1"><g opacity="1" transform="matrix(1,0,0,1,0,0)"><g opacity="1" transform="matrix(1,0,0,1,318.2770080566406,136.69500732421875)"><path stroke-linecap="round" stroke-linejoin="round" fill-opacity="0" stroke="rgb(221,136,90)" stroke-opacity="1" stroke-width="9.276" d=" M-26.773000717163086,-2.572000026702881 C-26.773000717163086,-2.572000026702881 -8.831999778747559,-0.01600000075995922 2.440000057220459,1.2089999914169312 C13.711999893188477,2.431999921798706 27.25200080871582,5.958000183105469 27.25200080871582,5.958000183105469"></path></g><g opacity="1" transform="matrix(1,0,0,1,214.8520050048828,120.97100067138672)"><path stroke-linecap="round" stroke-linejoin="round" fill-opacity="0" stroke="rgb(177,93,62)" stroke-opacity="1" stroke-width="10" d=" M-9.157487869262695,-11.1351900100708 C-9.157487869262695,-11.1351900100708 -20.775487899780273,3.5278096199035645 -8.550488471984863,14.63280963897705 C-1.2044880390167236,21.305809020996094 10.1845121383667,16.53281021118164 10.1845121383667,16.53281021118164"></path></g><g opacity="1" transform="matrix(1,0,0,1,310.2279968261719,129.11399841308594)"><path fill="rgb(225,135,105)" fill-opacity="1" d=" M-85.73600006103516,-16.65999984741211 C-85.73600006103516,-16.65999984741211 -38.9370002746582,-36.50299835205078 21.714000701904297,-30.700000762939453 C53.98400115966797,-27.61199951171875 66.64099884033203,-11.230999946594238 70.01100158691406,1.684999942779541 C73.37999725341797,14.60200023651123 70.01100158691406,18.158000946044922 74.87799835205078,24.898000717163086 C77.9800033569336,29.19300079345703 85.73500061035156,33.13399887084961 85.73500061035156,33.13399887084961 C85.73500061035156,33.13399887084961 69.63600158691406,36.50299835205078 63.27199935913086,13.104000091552734 C58.694000244140625,-3.7260000705718994 44.7400016784668,-20.030000686645508 19.468000411987305,-21.71500015258789 C-5.802999973297119,-23.39900016784668 -75.25299835205078,-9.54699993133545 -75.25299835205078,-9.54699993133545 C-75.25299835205078,-9.54699993133545 -85.73600006103516,-16.65999984741211 -85.73600006103516,-16.65999984741211z"></path></g><g opacity="1" transform="matrix(1,0,0,1,310.0539855957031,131.60800170898438)"><path stroke-linecap="round" stroke-linejoin="round" fill-opacity="0" stroke="rgb(122,55,30)" stroke-opacity="1" stroke-width="10" d=" M82.697998046875,30.64900016784668 C82.697998046875,30.64900016784668 78.14099884033203,29.017000198364258 73.69400024414062,26.42300033569336 C69.24700164794922,23.82900047302246 67.02400207519531,13.822999954223633 65.1709976196289,6.040999889373779 C63.31800079345703,-1.7430000305175781 60.35300064086914,-15.824999809265137 27.740999221801758,-23.23699951171875 C-4.872000217437744,-30.64900016784668 -82.6969985961914,-15.083000183105469 -82.6969985961914,-15.083000183105469"></path></g><g opacity="1" transform="matrix(1,0,0,1,302.3190002441406,121.90699768066406)"><path fill="rgb(255,231,214)" fill-opacity="1" d=" M-67.42351531982422,-2.2850635051727295 C-67.42351531982422,-2.2850635051727295 -1.123688817024231,-7.07133674621582 28.125228881835938,-1.0983259677886963 C55.93512725830078,4.58043909072876 67.03203582763672,18.404800415039062 67.03203582763672,18.404800415039062 C67.03203582763672,18.404800415039062 66.44432830810547,8.025718688964844 55.977508544921875,-0.4425923228263855 C49.62980270385742,-5.5781989097595215 39.64839172363281,-10.01183795928955 23.960391998291016,-11.000838279724121 C-17.59760856628418,-13.621837615966797 -67.42351531982422,-2.2850635051727295 -67.42351531982422,-2.2850635051727295z"></path></g></g></g><g style="display: block;" transform="matrix(1.3471852540969849,0,0,1.3658674955368042,-90.28610229492188,10.659261703491211)" opacity="1"><g opacity="0.53" transform="matrix(1,0,0,1,329.6960144042969,50.21200180053711)"><path stroke-linecap="round" stroke-linejoin="round" fill-opacity="0" stroke="rgb(177,93,62)" stroke-opacity="1" stroke-width="9" d=" M-1.590999960899353,-10.857999801635742 C-1.590999960899353,-10.857999801635742 1.590999960899353,-4.679999828338623 1.0290000438690186,3.369999885559082 C0.7670000195503235,7.123000144958496 -0.09399999678134918,10.857999801635742 -0.09399999678134918,10.857999801635742"></path></g></g><g style="display: block;" transform="matrix(1.3471852540969849,0,0,1.3658674955368042,-90.28610229492188,10.659261703491211)" opacity="1"><g opacity="1" transform="matrix(1,0,0,1,380.3169860839844,77.76799774169922)"><path fill="rgb(195,195,228)" fill-opacity="1" d=" M-30.871000289916992,-19.69499969482422 C-35.361000061035156,-14.645000457763672 -35.6609992980957,-8.87399959564209 -33.492000579833984,-2.4730000495910645 C-29.74799919128418,8.571000099182129 -13.055999755859375,22.691999435424805 0.9520000219345093,25.979999542236328 C20.909000396728516,30.663999557495117 29.79800033569336,21.735000610351562 31.650999069213867,18.399999618530273 C33.50400161743164,15.0649995803833 35.6619987487793,11.602999687194824 34.18000030517578,6.044000148773193 C32.696998596191406,0.48500001430511475 14.430000305175781,-28.68000030517578 -0.546999990940094,-29.80299949645996 C-12.026000022888184,-30.663999557495117 -24.58099937438965,-26.768999099731445 -30.871000289916992,-19.69499969482422z"></path><path stroke-linecap="butt" stroke-linejoin="miter" fill-opacity="0" stroke-miterlimit="10" stroke="rgb(108,80,111)" stroke-opacity="1" stroke-width="9" d=" M-30.871000289916992,-19.69499969482422 C-35.361000061035156,-14.645000457763672 -35.6609992980957,-8.87399959564209 -33.492000579833984,-2.4730000495910645 C-29.74799919128418,8.571000099182129 -13.055999755859375,22.691999435424805 0.9520000219345093,25.979999542236328 C20.909000396728516,30.663999557495117 29.79800033569336,21.735000610351562 31.650999069213867,18.399999618530273 C33.50400161743164,15.0649995803833 35.6619987487793,11.602999687194824 34.18000030517578,6.044000148773193 C32.696998596191406,0.48500001430511475 14.430000305175781,-28.68000030517578 -0.546999990940094,-29.80299949645996 C-12.026000022888184,-30.663999557495117 -24.58099937438965,-26.768999099731445 -30.871000289916992,-19.69499969482422z"></path></g><g opacity="1" transform="matrix(1,0,0,1,383.1000061035156,75.16899871826172)"><path fill="rgb(255,255,255)" fill-opacity="1" d=" M-25.452999114990234,-15.75100040435791 C-29.155000686645508,-11.711999893188477 -29.402999877929688,-7.0970001220703125 -27.614999771118164,-1.9789999723434448 C-24.527999877929688,6.854000091552734 -10.765999794006348,18.14699935913086 0.7839999794960022,20.775999069213867 C17.23900032043457,24.52199935913086 24.56999969482422,17.381000518798828 26.097999572753906,14.71399974822998 C27.625999450683594,12.045999526977539 29.402000427246094,9.279000282287598 28.180999755859375,4.833000183105469 C26.95800018310547,0.3880000114440918 11.89900016784668,-22.937000274658203 -0.4490000009536743,-23.833999633789062 C-9.914999961853027,-24.52199935913086 -20.267000198364258,-21.406999588012695 -25.452999114990234,-15.75100040435791z"></path></g><g opacity="1" transform="matrix(1,0,0,1,0,0)"><g opacity="1" transform="matrix(1,0,0,1,393.9599914550781,85.33699798583984)"><path fill="rgb(15,11,8)" fill-opacity="1" d=" M10.309000015258789,4.364999771118164 C7.923999786376953,9.996000289916992 1.3760000467300415,12.607000350952148 -4.316999912261963,10.196999549865723 C-10.010000228881836,7.7870001792907715 -12.692999839782715,1.2669999599456787 -10.307999610900879,-4.36299991607666 C-7.923999786376953,-9.994000434875488 -1.3769999742507935,-12.605999946594238 4.316999912261963,-10.194999694824219 C10.010000228881836,-7.783999919891357 12.692999839782715,-1.2669999599456787 10.309000015258789,4.364999771118164z"></path></g><g opacity="1" transform="matrix(0.9200000166893005,0,0,0.9200000166893005,383.63800048828125,85.77799987792969)"><path fill="rgb(255,255,255)" fill-opacity="1" d=" M3.7330000400543213,-0.0010000000474974513 C3.7330000400543213,1.8559999465942383 2.061000108718872,3.36299991607666 0,3.36299991607666 C-2.062000036239624,3.36299991607666 -3.7330000400543213,1.8559999465942383 -3.7330000400543213,-0.0010000000474974513 C-3.7330000400543213,-1.8580000400543213 -2.062000036239624,-3.36299991607666 0,-3.36299991607666 C2.061000108718872,-3.36299991607666 3.7330000400543213,-1.8580000400543213 3.7330000400543213,-0.0010000000474974513z"></path></g><g opacity="1" transform="matrix(1,0,0,1,396.27301025390625,91.1780014038086)"><path fill="rgb(68,44,70)" fill-opacity="1" d=" M4.466000080108643,-1.1540000438690186 C4.940000057220459,0.6809999942779541 3.3239998817443848,2.684999942779541 0.8579999804496765,3.322000026702881 C-1.6089999675750732,3.9590001106262207 -3.993000030517578,2.990000009536743 -4.4679999351501465,1.1549999713897705 C-4.940999984741211,-0.6790000200271606 -3.3259999752044678,-2.683000087738037 -0.859000027179718,-3.321000099182129 C1.6080000400543213,-3.9590001106262207 3.990999937057495,-2.98799991607666 4.466000080108643,-1.1540000438690186z"></path></g></g><g opacity="1" transform="matrix(1,0,0,1,381.04901123046875,65.69400024414062)"><path fill="rgb(255,208,175)" fill-opacity="1" d=" M-29.604999542236328,-1.7710000276565552 C-29.604999542236328,-1.7710000276565552 32.604000091552734,23.172000885009766 32.604000091552734,23.172000885009766 C33.534000396728516,23.548999786376953 33.79100036621094,22.90999984741211 33.72700119018555,21.909000396728516 C33.499000549316406,18.349000930786133 32.176998138427734,12.27299976348877 28.111000061035156,3.937999963760376 C22.496000289916992,-7.574999809265137 10.140000343322754,-21.19300079345703 0.31299999356269836,-22.597000122070312 C-6.359000205993652,-23.548999786376953 -13.718999862670898,-22.770000457763672 -21.589000701904297,-17.822999954223633 C-29.66200065612793,-12.75 -32.82099914550781,-8.883999824523926 -33.66400146484375,-6.498000144958496 C-33.79100036621094,-6.13700008392334 -33.47600173950195,-2.566999912261963 -29.604999542236328,-1.7710000276565552z"></path><path stroke-linecap="round" stroke-linejoin="round" fill-opacity="0" stroke="rgb(169,81,37)" stroke-opacity="1" stroke-width="10" d=" M-29.604999542236328,-1.7710000276565552 C-29.604999542236328,-1.7710000276565552 32.604000091552734,23.172000885009766 32.604000091552734,23.172000885009766 C33.534000396728516,23.548999786376953 33.79100036621094,22.90999984741211 33.72700119018555,21.909000396728516 C33.499000549316406,18.349000930786133 32.176998138427734,12.27299976348877 28.111000061035156,3.937999963760376 C22.496000289916992,-7.574999809265137 10.140000343322754,-21.19300079345703 0.31299999356269836,-22.597000122070312 C-6.359000205993652,-23.548999786376953 -13.718999862670898,-22.770000457763672 -21.589000701904297,-17.822999954223633 C-29.66200065612793,-12.75 -32.82099914550781,-8.883999824523926 -33.66400146484375,-6.498000144958496 C-33.79100036621094,-6.13700008392334 -33.47600173950195,-2.566999912261963 -29.604999542236328,-1.7710000276565552z"></path></g><g opacity="1" transform="matrix(1,0,0,1,394.17401123046875,64.50800323486328)"><path fill="rgb(223,135,105)" fill-opacity="1" d=" M-15.970000267028809,-18.041000366210938 C-15.970000267028809,-18.041000366210938 -4.5279998779296875,-13.829000473022461 3.615000009536743,-1.1929999589920044 C8.35099983215332,6.1539998054504395 10.914999961853027,16.636999130249023 10.914999961853027,16.636999130249023 C10.914999961853027,16.636999130249023 16.25,19.023000717163086 16.25,19.023000717163086 C16.25,19.023000717163086 15.829000473022461,10.038000106811523 5.439000129699707,-3.7209999561309814 C-4.949999809265137,-17.479000091552734 -16.250999450683594,-19.023000717163086 -16.250999450683594,-19.023000717163086 C-16.250999450683594,-19.023000717163086 -15.970000267028809,-18.041000366210938 -15.970000267028809,-18.041000366210938z"></path></g></g><g style="display: block;" transform="matrix(1.3471852540969849,0,0,1.3658674955368042,-90.28610229492188,10.659261703491211)" opacity="1"><g opacity="1" transform="matrix(1,0,0,1,253.5959930419922,53.97700119018555)"><path fill="rgb(195,195,228)" fill-opacity="1" d=" M-51.650001525878906,-2.7990000247955322 C-54.9630012512207,0.32499998807907104 -54.736000061035156,5.3470001220703125 -51.71200180053711,8.753999710083008 C-44.08700180053711,17.344999313354492 -30.996999740600586,30.295000076293945 1.4119999408721924,31.611000061035156 C39.38999938964844,33.15299987792969 48,16.361000061035156 51.1510009765625,8.090999603271484 C52.9379997253418,3.3989999294281006 54.9630012512207,-8.204999923706055 50.76499938964844,-18.128000259399414 C46.56700134277344,-28.052000045776367 42.095001220703125,-33.15399932861328 23.774999618530273,-32.00899887084961 C5.453999996185303,-30.86400032043457 -22.108999252319336,-22.368999481201172 -41.387001037597656,-11.187999725341797 C-46.04800033569336,-8.484999656677246 -48.279998779296875,-5.9770002365112305 -51.650001525878906,-2.7990000247955322z"></path><path stroke-linecap="butt" stroke-linejoin="miter" fill-opacity="0" stroke-miterlimit="10" stroke="rgb(108,80,111)" stroke-opacity="1" stroke-width="9" d=" M-51.650001525878906,-2.7990000247955322 C-54.9630012512207,0.32499998807907104 -54.736000061035156,5.3470001220703125 -51.71200180053711,8.753999710083008 C-44.08700180053711,17.344999313354492 -30.996999740600586,30.295000076293945 1.4119999408721924,31.611000061035156 C39.38999938964844,33.15299987792969 48,16.361000061035156 51.1510009765625,8.090999603271484 C52.9379997253418,3.3989999294281006 54.9630012512207,-8.204999923706055 50.76499938964844,-18.128000259399414 C46.56700134277344,-28.052000045776367 42.095001220703125,-33.15399932861328 23.774999618530273,-32.00899887084961 C5.453999996185303,-30.86400032043457 -22.108999252319336,-22.368999481201172 -41.387001037597656,-11.187999725341797 C-46.04800033569336,-8.484999656677246 -48.279998779296875,-5.9770002365112305 -51.650001525878906,-2.7990000247955322z"></path></g><g opacity="1" transform="matrix(1,0,0,1,258.2380065917969,50.3650016784668)"><path fill="rgb(255,255,255)" fill-opacity="1" d=" M-42.87300109863281,-2.4549999237060547 C-45.62300109863281,0.2840000092983246 -45.435001373291016,4.689000129699707 -42.92499923706055,7.675000190734863 C-36.595001220703125,15.206999778747559 -26.75200080871582,23.54199981689453 0.14900000393390656,24.695999145507812 C31.673999786376953,26.04800033569336 39.845001220703125,14.345000267028809 42.459999084472656,7.093999862670898 C43.94300079345703,2.9809999465942383 45.624000549316406,-7.192999839782715 42.13999938964844,-15.894000053405762 C38.65399932861328,-24.594999313354492 34.94200134277344,-29.06800079345703 19.735000610351562,-28.06399917602539 C4.5279998779296875,-27.059999465942383 -18.351999282836914,-19.613000869750977 -34.354000091552734,-9.807999610900879 C-38.2239990234375,-7.438000202178955 -40.07600021362305,-5.241000175476074 -42.87300109863281,-2.4549999237060547z"></path></g><g opacity="1" transform="matrix(1,0,0,1,0,0)"><g opacity="1" transform="matrix(1,0,0,1,278.3810119628906,59.03799819946289)"><path fill="rgb(15,11,8)" fill-opacity="1" d=" M12.366999626159668,0 C12.366999626159668,8.161999702453613 6.829999923706055,14.779000282287598 0,14.779000282287598 C-6.830999851226807,14.779000282287598 -12.366999626159668,8.161999702453613 -12.366999626159668,0 C-12.366999626159668,-8.161999702453613 -6.830999851226807,-14.779000282287598 0,-14.779000282287598 C6.829999923706055,-14.779000282287598 12.366999626159668,-8.161999702453613 12.366999626159668,0z"></path></g><g opacity="1" transform="matrix(1,0,0,1,282.3689880371094,66.6520004272461)"><path fill="rgb(68,44,70)" fill-opacity="1" d=" M4.3420000076293945,-3.3559999465942383 C5.751999855041504,-1.531999945640564 4.951000213623047,1.4500000476837158 2.553999900817871,3.302999973297119 C0.1550000011920929,5.1570000648498535 -2.930999994277954,5.179999828338623 -4.3420000076293945,3.3559999465942383 C-5.751999855041504,1.531999945640564 -4.951000213623047,-1.4500000476837158 -2.553999900817871,-3.302999973297119 C-0.15600000321865082,-5.1570000648498535 2.931999921798706,-5.179999828338623 4.3420000076293945,-3.3559999465942383z"></path></g><g opacity="1" transform="matrix(0.6600000262260437,0,0,0.6600000262260437,267.6189880371094,61.52299880981445)"><path fill="rgb(255,255,255)" fill-opacity="1" d=" M4.875,-0.0010000000474974513 C4.875,2.424999952316284 2.690999984741211,4.39300012588501 0,4.39300012588501 C-2.691999912261963,4.39300012588501 -4.875,2.424999952316284 -4.875,-0.0010000000474974513 C-4.875,-2.4260001182556152 -2.691999912261963,-4.39300012588501 0,-4.39300012588501 C2.690999984741211,-4.39300012588501 4.875,-2.4260001182556152 4.875,-0.0010000000474974513z"></path></g></g><g opacity="1" transform="matrix(1,0,0,1,254.1540069580078,36.3650016784668)"><path fill="rgb(255,208,175)" fill-opacity="1" d=" M-54.66999816894531,19.34000015258789 C-54.66999816894531,19.34000015258789 -23.437999725341797,17.60700035095215 6.63700008392334,17.027999877929688 C36.71200180053711,16.448999404907227 51.17100143432617,17.60700035095215 51.17100143432617,17.60700035095215 C51.17100143432617,17.60700035095215 54.66999816894531,-9.739999771118164 36.32400131225586,-16.29199981689453 C27.790000915527344,-19.34000015258789 19.749000549316406,-18.832000732421875 11.428000450134277,-17.97599983215332 C0.44699999690055847,-16.847000122070312 -12.440999984741211,-12.109999656677246 -26.197999954223633,-5.434000015258789 C-48.382999420166016,5.328999996185303 -54.66999816894531,19.34000015258789 -54.66999816894531,19.34000015258789z"></path><path stroke-linecap="round" stroke-linejoin="round" fill-opacity="0" stroke="rgb(168,80,37)" stroke-opacity="1" stroke-width="10" d=" M-54.66999816894531,19.34000015258789 C-54.66999816894531,19.34000015258789 -23.437999725341797,17.60700035095215 6.63700008392334,17.027999877929688 C36.71200180053711,16.448999404907227 51.17100143432617,17.60700035095215 51.17100143432617,17.60700035095215 C51.17100143432617,17.60700035095215 54.66999816894531,-9.739999771118164 36.32400131225586,-16.29199981689453 C27.790000915527344,-19.34000015258789 19.749000549316406,-18.832000732421875 11.428000450134277,-17.97599983215332 C0.44699999690055847,-16.847000122070312 -12.440999984741211,-12.109999656677246 -26.197999954223633,-5.434000015258789 C-48.382999420166016,5.328999996185303 -54.66999816894531,19.34000015258789 -54.66999816894531,19.34000015258789z"></path></g><g opacity="1" transform="matrix(1,0,0,1,288.60699462890625,35.32899856567383)"><path fill="rgb(223,135,105)" fill-opacity="1" d=" M-13.524999618530273,-13.430999755859375 C-13.524999618530273,-13.430999755859375 -3.134999990463257,-12.166999816894531 0.6549999713897705,-7.113999843597412 C3.4630000591278076,-3.36899995803833 4.257999897003174,1.6380000114440918 4.446000099182129,4.257999897003174 C4.632999897003174,6.880000114440918 5.1479997634887695,14.366999626159668 5.1479997634887695,14.366999626159668 C5.1479997634887695,14.366999626159668 13.289999961853027,14.694999694824219 13.289999961853027,14.694999694824219 C13.289999961853027,14.694999694824219 13.524999618530273,4.39900016784668 8.657999992370605,-5.1479997634887695 C3.7899999618530273,-14.694999694824219 -13.524999618530273,-13.430999755859375 -13.524999618530273,-13.430999755859375z"></path></g><g opacity="1" transform="matrix(1,0,0,1,242.6479949951172,34.861000061035156)"><path fill="rgb(255,236,224)" fill-opacity="1" d=" M-34.72200012207031,15.350000381469727 C-34.72200012207031,15.350000381469727 -2.9000000953674316,-2.621000051498413 11.32699966430664,-7.301000118255615 C25.55299949645996,-11.980999946594238 34.722999572753906,-12.892999649047852 34.722999572753906,-12.892999649047852 C34.722999572753906,-12.892999649047852 20.312999725341797,-15.350000381469727 -3.8350000381469727,-5.053999900817871 C-11.319000244140625,-1.8639999628067017 -20.517000198364258,2.757999897003174 -25.548999786376953,6.738999843597412 C-31.80699920654297,11.687000274658203 -34.72200012207031,15.350000381469727 -34.72200012207031,15.350000381469727z"></path></g></g><g style="display: block;" transform="matrix(1.3471852540969849,0,0,1.3658674955368042,-90.28610229492188,10.659261703491211)" opacity="1"><g opacity="1" transform="matrix(1,0,0,1,275.17498779296875,37.06100082397461)"><path fill="rgb(223,135,105)" fill-opacity="1" d=" M-26.722000122070312,-11.373000144958496 C-26.722000122070312,-11.373000144958496 -18.111000061035156,-6.598999977111816 -11.932999610900879,-4.633999824523926 C-5.75600004196167,-2.6679999828338623 0.8190000057220459,0.14000000059604645 5.5920000076293945,1.5440000295639038 C10.366999626159668,2.947999954223633 15.916000366210938,5.659999847412109 18.368999481201172,7.861000061035156 C19.55500030517578,8.927000045776367 23.541000366210938,12.682000160217285 23.541000366210938,12.682000160217285 C23.541000366210938,12.682000160217285 26.722000122070312,12.96399974822998 26.722000122070312,12.96399974822998 C26.722000122070312,12.96399974822998 26.535999298095703,3.2290000915527344 26.535999298095703,3.2290000915527344 C26.535999298095703,3.2290000915527344 -15.022000312805176,-11.185999870300293 -15.022000312805176,-11.185999870300293 C-15.022000312805176,-11.185999870300293 -22.884000778198242,-11.9350004196167 -22.884000778198242,-11.9350004196167 C-22.884000778198242,-11.9350004196167 -24.569000244140625,-12.96399974822998 -24.569000244140625,-12.96399974822998 C-24.569000244140625,-12.96399974822998 -26.722000122070312,-11.373000144958496 -26.722000122070312,-11.373000144958496z"></path></g><g opacity="1" transform="matrix(1,0,0,1,277.1610107421875,32.97200012207031)"><path fill="rgb(57,20,15)" fill-opacity="1" d=" M39.15299987792969,22.927000045776367 C31.610000610351562,21.356000900268555 25.07900047302246,9.432000160217285 5.60099983215332,2.9690001010894775 C-7.255000114440918,-1.2970000505447388 -20.76300048828125,-4.171999931335449 -30.798999786376953,-8.402999877929688 C-40.834999084472656,-12.63599967956543 -43.775001525878906,-19.464000701904297 -43.775001525878906,-19.464000701904297 C-43.775001525878906,-19.464000701904297 -45.81399917602539,-22.687000274658203 -41.832000732421875,-22.996000289916992 C-37.849998474121094,-23.304000854492188 -31.125,-19.770999908447266 -24.924999237060547,-16.493999481201172 C-18.72599983215332,-13.218000411987305 -0.8040000200271606,-12.147000312805176 7.813000202178955,-9.871999740600586 C16.43000030517578,-7.5970001220703125 27.965999603271484,-3.244999885559082 34.40399932861328,0.828000009059906 C40.84000015258789,4.900000095367432 46.59000015258789,13.112000465393066 46.974998474121094,18.12299919128418 C47.275001525878906,22.016000747680664 40.96099853515625,23.304000854492188 39.15299987792969,22.927000045776367z"></path></g></g><g style="display: block;" transform="matrix(0.8881603479385376,0.00011515269579831511,-0.00011515269579831511,0.8881603479385376,240.30902099609375,253.47300720214844)" opacity="1"><g opacity="1" transform="matrix(1,0,0,1,0,0)"><path stroke-linecap="butt" stroke-linejoin="miter" fill-opacity="0" stroke-miterlimit="4" stroke="rgb(95,35,14)" stroke-opacity="1" stroke-width="11" d=" M-61.840999603271484,119.2040023803711 C-61.840999603271484,119.2040023803711 -59.612998962402344,76.25700378417969 -67.35099792480469,58.44900131225586 C-77.70099639892578,34.630001068115234 -107.73999786376953,34.95000076293945 -117.73999786376953,45.95000076293945 C-127.73999786376953,56.95000076293945 -138.3260040283203,96.39199829101562 -138.3260040283203,96.39199829101562"></path></g><g opacity="1" transform="matrix(1,0,0,1,0,0)"><path fill="rgb(158,127,7)" fill-opacity="1" d=" M-154.5469970703125,46.89400100708008 C-160.45399475097656,45.729000091552734 -171.99899291992188,49.96799850463867 -169.40499877929688,51.516998291015625 C-164.3800048828125,54.516998291015625 -35.749000549316406,100.21399688720703 -28.847999572753906,101.49099731445312 C-21.94700050354004,102.76799774169922 -6.14900016784668,96.48899841308594 -6.14900016784668,96.48899841308594 C-6.14900016784668,96.48899841308594 -148.63999938964844,48.058998107910156 -154.5469970703125,46.89400100708008z"></path><path stroke-linecap="round" stroke-linejoin="round" fill-opacity="0" stroke="rgb(126,67,2)" stroke-opacity="1" stroke-width="12" d=" M-154.5469970703125,46.89400100708008 C-160.45399475097656,45.729000091552734 -171.99899291992188,49.96799850463867 -169.40499877929688,51.516998291015625 C-164.3800048828125,54.516998291015625 -35.749000549316406,100.21399688720703 -28.847999572753906,101.49099731445312 C-21.94700050354004,102.76799774169922 -6.14900016784668,96.48899841308594 -6.14900016784668,96.48899841308594 C-6.14900016784668,96.48899841308594 -148.63999938964844,48.058998107910156 -154.5469970703125,46.89400100708008z"></path></g><g opacity="1" transform="matrix(1,0,0,1,0,0)"><path fill="rgb(192,160,25)" fill-opacity="1" d=" M-4.880000114440918,98.95700073242188 C-8.880000114440918,98.95700073242188 -27.305999755859375,100.73699951171875 -27.305999755859375,100.73699951171875 C-27.305999755859375,100.73699951171875 -42.16899871826172,151.32899475097656 -49.90299987792969,183.25399780273438 C-57.67300033569336,215.3260040283203 -70.12100219726562,252.5189971923828 -68.11599731445312,253.52099609375 C-64.11599731445312,255.52099609375 -10.581999778747559,237.92100524902344 -10.581999778747559,237.92100524902344 C-10.581999778747559,237.92100524902344 -0.8799999952316284,98.95700073242188 -4.880000114440918,98.95700073242188z"></path><path stroke-linecap="round" stroke-linejoin="round" fill-opacity="0" stroke="rgb(166,94,15)" stroke-opacity="1" stroke-width="12" d=" M-4.880000114440918,98.95700073242188 C-8.880000114440918,98.95700073242188 -27.305999755859375,100.73699951171875 -27.305999755859375,100.73699951171875 C-27.305999755859375,100.73699951171875 -42.16899871826172,151.32899475097656 -49.90299987792969,183.25399780273438 C-57.67300033569336,215.3260040283203 -70.12100219726562,252.5189971923828 -68.11599731445312,253.52099609375 C-64.11599731445312,255.52099609375 -10.581999778747559,237.92100524902344 -10.581999778747559,237.92100524902344 C-10.581999778747559,237.92100524902344 -0.8799999952316284,98.95700073242188 -4.880000114440918,98.95700073242188z"></path></g><g opacity="1" transform="matrix(1,0,0,1,0,0)"><path fill="rgb(230,240,35)" fill-opacity="1" d=" M-171.14500427246094,50.86399841308594 C-171.14500427246094,50.86399841308594 -212,117 -217,127 C-222,137 -245.38699340820312,176.53399658203125 -245.38699340820312,179.53399658203125 C-245.38699340820312,182.53399658203125 -196.19900512695312,202.97500610351562 -169.50999450683594,216.67300415039062 C-145.95399475097656,228.76400756835938 -70.34400177001953,257.6109924316406 -68.73699951171875,254.6820068359375 C-64.22100067138672,246.4510040283203 -27.048999786376953,99.99800109863281 -27.048999786376953,99.99800109863281 C-27.048999786376953,99.99800109863281 -49.518001556396484,91.97899627685547 -71.51799774169922,84.97899627685547 C-93.51799774169922,77.97899627685547 -171.14500427246094,50.86399841308594 -171.14500427246094,50.86399841308594z"></path><path stroke-linecap="round" stroke-linejoin="round" fill-opacity="0" stroke="rgb(178,125,13)" stroke-opacity="1" stroke-width="12" d=" M-171.14500427246094,50.86399841308594 C-171.14500427246094,50.86399841308594 -212,117 -217,127 C-222,137 -245.38699340820312,176.53399658203125 -245.38699340820312,179.53399658203125 C-245.38699340820312,182.53399658203125 -196.19900512695312,202.97500610351562 -169.50999450683594,216.67300415039062 C-145.95399475097656,228.76400756835938 -70.34400177001953,257.6109924316406 -68.73699951171875,254.6820068359375 C-64.22100067138672,246.4510040283203 -27.048999786376953,99.99800109863281 -27.048999786376953,99.99800109863281 C-27.048999786376953,99.99800109863281 -49.518001556396484,91.97899627685547 -71.51799774169922,84.97899627685547 C-93.51799774169922,77.97899627685547 -171.14500427246094,50.86399841308594 -171.14500427246094,50.86399841308594z"></path></g><g opacity="1" transform="matrix(1,0,0,1,0,0)"><path stroke-linecap="round" stroke-linejoin="round" fill-opacity="0" stroke="rgb(96,36,14)" stroke-opacity="1" stroke-width="9" d=" M-143.1199951171875,95.69499969482422 C-143.1199951171875,95.69499969482422 -133.1280059814453,58.013999938964844 -119.18099975585938,49.297000885009766 C-103.18099975585938,39.297000885009766 -86.48799896240234,41.19200134277344 -78.10900115966797,64.55000305175781 C-70.5250015258789,85.69200134277344 -77.05599975585938,124.00299835205078 -77.05599975585938,124.00299835205078"></path></g><g opacity="1" transform="matrix(1,0,0,1,0,0)"><path fill="rgb(49,125,8)" fill-opacity="1" d=" M-29.3439998626709,179.0240020751953 C-29.3439998626709,179.0240020751953 -32.06800079345703,202.85899353027344 -33.452999114990234,213.4199981689453 C-34.8380012512207,223.9810028076172 -35.70399856567383,240.58399963378906 -35.70399856567383,240.58399963378906"></path><path stroke-linecap="round" stroke-linejoin="round" fill-opacity="0" stroke="rgb(110,69,6)" stroke-opacity="0.38" stroke-width="12" d=" M-29.3439998626709,179.0240020751953 C-29.3439998626709,179.0240020751953 -32.06800079345703,202.85899353027344 -33.452999114990234,213.4199981689453 C-34.8380012512207,223.9810028076172 -35.70399856567383,240.58399963378906 -35.70399856567383,240.58399963378906"></path></g></g><g style="display: block;" transform="matrix(0.8881596922874451,0.00106231274548918,-0.00106231274548918,0.8881596922874451,223.6295166015625,258.2962341308594)" opacity="1"><g opacity="1" transform="matrix(1,0,0,1,0,0)"><path stroke-linecap="butt" stroke-linejoin="miter" fill-opacity="0" stroke-miterlimit="4" stroke="rgb(19,45,82)" stroke-opacity="1" stroke-width="9" d=" M-64,125 C-64,125 -56.470001220703125,74.78500366210938 -63,56.5 C-70.5,35.5 -94.5,34.5 -104.5,45.5 C-114.5,56.5 -128.5,98.5 -128.5,98.5"></path></g><g opacity="1" transform="matrix(1,0,0,1,0,0)"><path fill="rgb(10,113,160)" fill-opacity="1" d=" M-163,64.5 C-163,64.5 -166.0800018310547,63.92399978637695 -169.94700622558594,65.16600036621094 C-177.0989990234375,67.46399688720703 -189.94700622558594,69.85099792480469 -188,70.5 C-182.46800231933594,72.34400177001953 -50,119 -42,120 C-34,121 -11.5,108.75 -14,107.75 C-22.16200065612793,104.48500061035156 -122.06199645996094,75.21199798583984 -153.59100341796875,65.80500030517578 C-159.50900268554688,64.03900146484375 -163,64.5 -163,64.5z"></path><path stroke-linecap="butt" stroke-linejoin="miter" fill-opacity="0" stroke-miterlimit="4" stroke="rgb(10,59,128)" stroke-opacity="1" stroke-width="12" d=" M-163,64.5 C-163,64.5 -166.0800018310547,63.92399978637695 -169.94700622558594,65.16600036621094 C-177.0989990234375,67.46399688720703 -189.94700622558594,69.85099792480469 -188,70.5 C-182.46800231933594,72.34400177001953 -50,119 -42,120 C-34,121 -11.5,108.75 -14,107.75 C-22.16200065612793,104.48500061035156 -122.06199645996094,75.21199798583984 -153.59100341796875,65.80500030517578 C-159.50900268554688,64.03900146484375 -163,64.5 -163,64.5z"></path></g><g opacity="1" transform="matrix(1,0,0,1,0,0)"><path fill="rgb(8,105,173)" fill-opacity="1" d=" M-14,108.5 C-18,108.5 -35,120 -35,120 C-35,120 -44.21200180053711,151.60299682617188 -51.94599914550781,183.5279998779297 C-59.715999603271484,215.6009979248047 -70.00499725341797,249.12600708007812 -68,250.1280059814453 C-66.22599792480469,251.01499938964844 -40.7869987487793,240.5540008544922 -39.14099884033203,240.04800415039062 C-33.66699981689453,238.36700439453125 -15.020999908447266,237.31900024414062 -15.020999908447266,237.31900024414062 C-15.020999908447266,237.31900024414062 -12.968999862670898,207.9029998779297 -13.565999984741211,177.0749969482422 C-14.190999984741211,144.80799865722656 -11.913999557495117,108.5 -14,108.5z"></path><path stroke-linecap="butt" stroke-linejoin="round" fill-opacity="0" stroke="rgb(12,67,145)" stroke-opacity="1" stroke-width="12" d=" M-14,108.5 C-18,108.5 -35,120 -35,120 C-35,120 -44.21200180053711,151.60299682617188 -51.94599914550781,183.5279998779297 C-59.715999603271484,215.6009979248047 -70.00499725341797,249.12600708007812 -68,250.1280059814453 C-66.22599792480469,251.01499938964844 -40.7869987487793,240.5540008544922 -39.14099884033203,240.04800415039062 C-33.66699981689453,238.36700439453125 -15.020999908447266,237.31900024414062 -15.020999908447266,237.31900024414062 C-15.020999908447266,237.31900024414062 -12.968999862670898,207.9029998779297 -13.565999984741211,177.0749969482422 C-14.190999984741211,144.80799865722656 -11.913999557495117,108.5 -14,108.5z"></path></g><g opacity="1" transform="matrix(1,0,0,1,0,0)"><path fill="rgb(27,174,240)" fill-opacity="1" d=" M-189,71 C-189,71 -212,117 -217,127 C-222,137 -246,182 -246,185 C-246,188 -206,206 -180,216 C-158.67599487304688,224.20199584960938 -74,255 -70,248 C-66,241 -36.5,119.5 -36.5,119.5 C-36.5,119.5 -50,114.5 -72,107.5 C-94,100.5 -189,71 -189,71z"></path><path stroke-linecap="butt" stroke-linejoin="round" fill-opacity="0" stroke="rgb(7,79,155)" stroke-opacity="1" stroke-width="12" d=" M-189,71 C-189,71 -212,117 -217,127 C-222,137 -246,182 -246,185 C-246,188 -206,206 -180,216 C-158.67599487304688,224.20199584960938 -74,255 -70,248 C-66,241 -36.5,119.5 -36.5,119.5 C-36.5,119.5 -50,114.5 -72,107.5 C-94,100.5 -189,71 -189,71z"></path></g><g opacity="1" transform="matrix(1,0,0,1,0,0)"><path stroke-linecap="round" stroke-linejoin="round" fill-opacity="0" stroke="rgb(78,211,255)" stroke-opacity="1" stroke-width="12" d=" M-89,228.5 C-93,228 -140.85299682617188,210.34800720214844 -159.5,204 C-168.39599609375,200.9720001220703 -215.00399780273438,181.8509979248047 -220.94900512695312,176.88400268554688 C-222.92799377441406,175.22999572753906 -214.8699951171875,162.5800018310547 -206.11000061035156,144.44700622558594 C-196.94000244140625,125.46399688720703 -186.5,104.5 -186.5,104.5"></path></g><g opacity="1" transform="matrix(1,0,0,1,0,0)"><path stroke-linecap="round" stroke-linejoin="round" fill-opacity="0" stroke="rgb(18,45,82)" stroke-opacity="1" stroke-width="11" d=" M-146,99 C-146,99 -122.9469985961914,51.21699905395508 -109,42.5 C-93,32.5 -75.5,34.5 -71,56.5"></path></g><g opacity="1" transform="matrix(1,0,0,1,0,0)"><path fill="rgb(3,87,146)" fill-opacity="1" d=" M-32.808998107910156,172.46800231933594 C-32.808998107910156,172.46800231933594 -36.53200149536133,203.31900024414062 -37.06399917602539,213.95700073242188 C-37.4900016784668,222.4739990234375 -38.65999984741211,236.8300018310547 -38.65999984741211,236.8300018310547"></path><path stroke-linecap="round" stroke-linejoin="round" fill-opacity="0" stroke="rgb(10,59,128)" stroke-opacity="0.74" stroke-width="9" d=" M-32.808998107910156,172.46800231933594 C-32.808998107910156,172.46800231933594 -36.53200149536133,203.31900024414062 -37.06399917602539,213.95700073242188 C-37.4900016784668,222.4739990234375 -38.65999984741211,236.8300018310547 -38.65999984741211,236.8300018310547"></path></g></g><g style="display: block;" transform="matrix(1.185256838798523,0,0,1.185256838798523,261.74786376953125,228.7242431640625)" opacity="1"><g opacity="1" transform="matrix(0.9662427306175232,0,0,0.9409227967262268,-0.4243621826171875,-4.0961761474609375)"><path fill="rgb(254,216,188)" fill-opacity="1" d=" M-108.96700286865234,15.70300006866455 C-122.97899627685547,17.822999954223633 -139.26600646972656,26.384000778198242 -141.30599975585938,44.8390007019043 C-141.6199951171875,47.67499923706055 -141.97999572753906,61.880001068115234 -136.4510040283203,65.09400177001953 C-129.7740020751953,68.9749984741211 -127.72599792480469,61.779998779296875 -127.72599792480469,61.779998779296875 C-127.72599792480469,61.779998779296875 -126.31999969482422,70.23200225830078 -117.69200134277344,71.49500274658203 C-110.56999969482422,72.53700256347656 -107.02799987792969,62.71200180053711 -107.02799987792969,62.71200180053711 C-107.02799987792969,62.71200180053711 -110.03399658203125,74.40799713134766 -102.30000305175781,75.84600067138672 C-99.94200134277344,76.28500366210938 -97.25299835205078,78.08799743652344 -94.35299682617188,77.16100311279297 C-90.5739974975586,75.9530029296875 -85.96399688720703,69.64700317382812 -83.41799926757812,63.42300033569336 C-81.80000305175781,59.46900177001953 -78.27300262451172,67.19100189208984 -70.83499908447266,66.46199798583984 C-62.426998138427734,65.63800048828125 -61.630001068115234,60.766998291015625 -61.16999816894531,51.46200180053711 C-60.75600051879883,43.0880012512207 -63.68000030517578,24.71299934387207 -87.3479995727539,17.608999252319336 C-93.98600006103516,15.616999626159668 -103.53600311279297,14.880999565124512 -108.96700286865234,15.70300006866455z"></path><path stroke-linecap="round" stroke-linejoin="round" fill-opacity="0" stroke="rgb(180,91,46)" stroke-opacity="1" stroke-width="12" d=" M-108.96700286865234,15.70300006866455 C-122.97899627685547,17.822999954223633 -139.26600646972656,26.384000778198242 -141.30599975585938,44.8390007019043 C-141.6199951171875,47.67499923706055 -141.97999572753906,61.880001068115234 -136.4510040283203,65.09400177001953 C-129.7740020751953,68.9749984741211 -127.72599792480469,61.779998779296875 -127.72599792480469,61.779998779296875 C-127.72599792480469,61.779998779296875 -126.31999969482422,70.23200225830078 -117.69200134277344,71.49500274658203 C-110.56999969482422,72.53700256347656 -107.02799987792969,62.71200180053711 -107.02799987792969,62.71200180053711 C-107.02799987792969,62.71200180053711 -110.03399658203125,74.40799713134766 -102.30000305175781,75.84600067138672 C-99.94200134277344,76.28500366210938 -97.25299835205078,78.08799743652344 -94.35299682617188,77.16100311279297 C-90.5739974975586,75.9530029296875 -85.96399688720703,69.64700317382812 -83.41799926757812,63.42300033569336 C-81.80000305175781,59.46900177001953 -78.27300262451172,67.19100189208984 -70.83499908447266,66.46199798583984 C-62.426998138427734,65.63800048828125 -61.630001068115234,60.766998291015625 -61.16999816894531,51.46200180053711 C-60.75600051879883,43.0880012512207 -63.68000030517578,24.71299934387207 -87.3479995727539,17.608999252319336 C-93.98600006103516,15.616999626159668 -103.53600311279297,14.880999565124512 -108.96700286865234,15.70300006866455z"></path></g><g opacity="1" transform="matrix(1,0,0,1,0,0)"><path stroke-linecap="round" stroke-linejoin="round" fill-opacity="0" stroke="rgb(19,45,82)" stroke-opacity="1" stroke-width="8" d=" M-81.21900177001953,51.85900115966797 C-81.21900177001953,51.85900115966797 -81.94256591796875,66.46705627441406 -86.29560852050781,83.6220932006836 C-91.39640045166016,103.73075103759766 -93.69122314453125,116.19935607910156 -93.69122314453125,116.19935607910156"></path></g></g><g style="display: block;" transform="matrix(1.3471852540969849,0,0,1.3658674955368042,-90.28610229492188,10.659261703491211)" opacity="1"><g opacity="1" transform="matrix(1,0,0,1,362.6889953613281,54.04800033569336)"><path fill="rgb(223,135,105)" fill-opacity="1" d=" M-5.942999839782715,7.955999851226807 C-5.942999839782715,7.955999851226807 2.8540000915527344,0.6549999713897705 7.7210001945495605,-1.590999960899353 C12.588000297546387,-3.8369998931884766 18.11199951171875,-6.177000045776367 18.11199951171875,-6.177000045776367 C18.11199951171875,-6.177000045776367 11.090999603271484,-7.955999851226807 11.090999603271484,-7.955999851226807 C11.090999603271484,-7.955999851226807 0.23399999737739563,-3.0889999866485596 0.23399999737739563,-3.0889999866485596 C0.23399999737739563,-3.0889999866485596 -18.11199951171875,2.9010000228881836 -18.11199951171875,2.9010000228881836 C-18.11199951171875,2.9010000228881836 -15.303000450134277,5.1479997634887695 -15.303000450134277,5.1479997634887695 C-15.303000450134277,5.1479997634887695 -5.942999839782715,7.955999851226807 -5.942999839782715,7.955999851226807z"></path></g><g opacity="1" transform="matrix(1,0,0,1,374.6440124511719,50.250999450683594)"><path fill="rgb(57,20,15)" fill-opacity="1" d=" M-27.263999938964844,-4.7769999504089355 C-20.433000564575195,-9.83899974822998 -15.156000137329102,-12.008000373840332 0.43700000643730164,-15.963000297546387 C16.031999588012695,-19.916000366210938 22.608999252319336,-17.277000427246094 26.593000411987305,-16.83099937438965 C34.24300003051758,-15.975000381469727 33.8380012512207,-9.836000442504883 30.945999145507812,-8.961999893188477 C28.7189998626709,-8.288999557495117 30.716999053955078,-8.616999626159668 22.96500015258789,-7.800000190734863 C16.834999084472656,-7.15500020980835 6.539000034332275,-5.244999885559082 -5.241000175476074,-0.8090000152587891 C-11.3149995803833,1.4800000190734863 -18.202999114990234,5.958000183105469 -21.152000427246094,8.371000289916992 C-24.518999099731445,11.125 -29.176000595092773,9.77400016784668 -30.667999267578125,7.284999847412109 C-32.801998138427734,3.7249999046325684 -31.18400001525879,-1.871999979019165 -27.263999938964844,-4.7769999504089355z"></path></g></g><g style="display: none;"><g><path></path></g></g><g style="display: none;"><g><path></path></g></g></g><g clip-path="url(#__lottie_element_4)" style="display: none;"><g style="display: none;"><g><path stroke-linecap="butt" stroke-linejoin="miter" fill-opacity="0" stroke-miterlimit="4"></path></g><g><path></path><path stroke-linecap="round" stroke-linejoin="round" fill-opacity="0"></path></g><g><path></path><path stroke-linecap="butt" stroke-linejoin="miter" fill-opacity="0" stroke-miterlimit="4"></path></g><g><path></path><path stroke-linecap="round" stroke-linejoin="round" fill-opacity="0"></path></g><g><path></path><path stroke-linecap="round" stroke-linejoin="round" fill-opacity="0"></path></g><g><path stroke-linecap="round" stroke-linejoin="round" fill-opacity="0"></path></g></g><g style="display: none;"><g></g><g><path></path><path stroke-linecap="butt" stroke-linejoin="miter" fill-opacity="0" stroke-miterlimit="10"></path></g><g><path fill="url(#__lottie_element_28)"></path></g></g><g style="display: none;"><g><path stroke-linecap="round" stroke-linejoin="round" fill-opacity="0"></path></g><g><path stroke-linecap="round" stroke-linejoin="round" fill-opacity="0"></path></g><g><path stroke-linecap="round" stroke-linejoin="round" fill-opacity="0"></path></g></g><g style="display: none;"><g><g><path stroke-linecap="round" stroke-linejoin="round" fill-opacity="0"></path></g><g><path stroke-linecap="round" stroke-linejoin="round" fill-opacity="0"></path></g><g><path></path></g><g><path stroke-linecap="round" stroke-linejoin="round" fill-opacity="0"></path></g><g><path></path></g></g></g><g style="display: none;"><g><path stroke-linecap="round" stroke-linejoin="round" fill-opacity="0"></path></g></g><g style="display: none;"><g><path></path><path stroke-linecap="butt" stroke-linejoin="miter" fill-opacity="0" stroke-miterlimit="10"></path></g><g><path></path></g><g><g><path></path></g><g><path></path></g><g><path></path></g></g><g><path></path><path stroke-linecap="round" stroke-linejoin="round" fill-opacity="0"></path></g><g><path></path></g></g><g style="display: none;"><g><path></path><path stroke-linecap="butt" stroke-linejoin="miter" fill-opacity="0" stroke-miterlimit="10"></path></g><g><path></path></g><g><g><path></path></g><g><path></path></g><g><path></path></g></g><g><path></path><path stroke-linecap="round" stroke-linejoin="round" fill-opacity="0"></path></g><g><path></path></g><g><path></path></g></g><g style="display: none;"><g><path></path></g><g><path></path></g></g><g style="display: none;"><g><path stroke-linecap="butt" stroke-linejoin="miter" fill-opacity="0" stroke-miterlimit="4"></path></g><g><path></path><path stroke-linecap="round" stroke-linejoin="round" fill-opacity="0"></path></g><g><path></path><path stroke-linecap="round" stroke-linejoin="round" fill-opacity="0"></path></g><g><path></path><path stroke-linecap="round" stroke-linejoin="round" fill-opacity="0"></path></g><g><path stroke-linecap="round" stroke-linejoin="round" fill-opacity="0"></path></g><g><path></path><path stroke-linecap="round" stroke-linejoin="round" fill-opacity="0"></path></g></g><g style="display: none;"><g><path stroke-linecap="butt" stroke-linejoin="miter" fill-opacity="0" stroke-miterlimit="4"></path></g><g><path></path><path stroke-linecap="butt" stroke-linejoin="miter" fill-opacity="0" stroke-miterlimit="4"></path></g><g><path></path><path stroke-linecap="butt" stroke-linejoin="round" fill-opacity="0"></path></g><g><path></path><path stroke-linecap="butt" stroke-linejoin="round" fill-opacity="0"></path></g><g><path stroke-linecap="round" stroke-linejoin="round" fill-opacity="0"></path></g><g><path stroke-linecap="round" stroke-linejoin="round" fill-opacity="0"></path></g><g><path></path><path stroke-linecap="round" stroke-linejoin="round" fill-opacity="0"></path></g></g><g style="display: none;"><g><path></path><path stroke-linecap="round" stroke-linejoin="round" fill-opacity="0"></path></g><g><path stroke-linecap="round" stroke-linejoin="round" fill-opacity="0"></path></g></g><g style="display: none;"><g><path></path></g><g><path></path></g></g><g style="display: none;"><g><path></path></g></g><g style="display: none;"><g><path></path></g></g></g></g></svg>