<svg xmlns="http://www.w3.org/2000/svg" xmlns:xlink="http://www.w3.org/1999/xlink" viewBox="0 0 512 512" width="512" height="512" style="width: 100%; height: 100%; transform: translate3d(0,0,0); content-visibility: visible;" preserveAspectRatio="xMidYMid meet"><defs><clipPath id="__lottie_element_2"><rect width="512" height="512" x="0" y="0"></rect></clipPath><clipPath id="__lottie_element_7"><path d="M0,0 L512,0 L512,512 L0,512z"></path></clipPath><radialGradient id="__lottie_element_21" spreadMethod="pad" gradientUnits="userSpaceOnUse" cx="-10.836999893188477" cy="-143.9409942626953" r="418.02564184986005" fx="-10.836999893188477" fy="-143.9409942626953"><stop offset="12%" stop-color="rgb(251,231,211)"></stop><stop offset="47%" stop-color="rgb(248,209,179)"></stop><stop offset="81%" stop-color="rgb(244,186,147)"></stop></radialGradient></defs><g clip-path="url(#__lottie_element_2)"><g clip-path="url(#__lottie_element_7)" style="display: block;" transform="matrix(1.0429699420928955,0,0,1.0429699420928955,-11.00030517578125,-11.00030517578125)" opacity="1"><g style="display: block;" transform="matrix(1.0133165121078491,0.02127903513610363,-0.020994767546653748,0.9997795820236206,149.2072296142578,26.24024772644043)" opacity="1"><g opacity="1" transform="matrix(1,0,0,1,167.5489959716797,199.92999267578125)"><path fill="rgb(200,155,60)" fill-opacity="1" d=" M-64.31800079345703,-150.8159942626953 C-64.31800079345703,-150.8159942626953 -48.3489990234375,-177.4290008544922 -15.524999618530273,-176.54200744628906 C17.299999237060547,-175.65499877929688 52.7859992980957,-147.26600646972656 65.20600128173828,-139.28199768066406 C77.6259994506836,-131.29800415039062 85.61000061035156,-123.31300354003906 85.61000061035156,-123.31300354003906 C85.61000061035156,-123.31300354003906 67.86699676513672,-121.54000091552734 67.86699676513672,-121.54000091552734 C67.86699676513672,-121.54000091552734 113.11199951171875,-86.0530014038086 117.5479965209961,-55.00299835205078 C121.98300170898438,-23.952999114990234 112.2249984741211,-17.743000030517578 113.11199951171875,4.435999870300293 C113.9990005493164,26.614999771118164 120.20899963378906,39.922000885009766 128.1929931640625,49.680999755859375 C136.17799377441406,59.43899917602539 137.95199584960938,65.64800262451172 137.95199584960938,65.64800262451172 C137.95199584960938,65.64800262451172 123.75800323486328,65.64800262451172 125.53199768066406,68.30999755859375 C127.30599975585938,70.97100067138672 145.0489959716797,86.94100189208984 135.29100036621094,117.10399627685547 C125.53199768066406,147.26699829101562 113.11199951171875,165.00900268554688 71.41600036621094,171.218994140625 C29.719999313354492,177.4290008544922 -145.0489959716797,120.6520004272461 -145.0489959716797,120.6520004272461 C-145.0489959716797,120.6520004272461 -77.625,-16.856000900268555 -75.85099792480469,-22.179000854492188 C-74.0770034790039,-27.50200080871582 -64.31800079345703,-150.8159942626953 -64.31800079345703,-150.8159942626953z"></path><path stroke-linecap="round" stroke-linejoin="round" fill-opacity="0" stroke="rgb(140,96,47)" stroke-opacity="1" stroke-width="9" d=" M-64.31800079345703,-150.8159942626953 C-64.31800079345703,-150.8159942626953 -48.3489990234375,-177.4290008544922 -15.524999618530273,-176.54200744628906 C17.299999237060547,-175.65499877929688 52.7859992980957,-147.26600646972656 65.20600128173828,-139.28199768066406 C77.6259994506836,-131.29800415039062 85.61000061035156,-123.31300354003906 85.61000061035156,-123.31300354003906 C85.61000061035156,-123.31300354003906 67.86699676513672,-121.54000091552734 67.86699676513672,-121.54000091552734 C67.86699676513672,-121.54000091552734 113.11199951171875,-86.0530014038086 117.5479965209961,-55.00299835205078 C121.98300170898438,-23.952999114990234 112.2249984741211,-17.743000030517578 113.11199951171875,4.435999870300293 C113.9990005493164,26.614999771118164 120.20899963378906,39.922000885009766 128.1929931640625,49.680999755859375 C136.17799377441406,59.43899917602539 137.95199584960938,65.64800262451172 137.95199584960938,65.64800262451172 C137.95199584960938,65.64800262451172 123.75800323486328,65.64800262451172 125.53199768066406,68.30999755859375 C127.30599975585938,70.97100067138672 145.0489959716797,86.94100189208984 135.29100036621094,117.10399627685547 C125.53199768066406,147.26699829101562 113.11199951171875,165.00900268554688 71.41600036621094,171.218994140625 C29.719999313354492,177.4290008544922 -145.0489959716797,120.6520004272461 -145.0489959716797,120.6520004272461 C-145.0489959716797,120.6520004272461 -77.625,-16.856000900268555 -75.85099792480469,-22.179000854492188 C-74.0770034790039,-27.50200080871582 -64.31800079345703,-150.8159942626953 -64.31800079345703,-150.8159942626953z"></path></g><g opacity="1" transform="matrix(1,0,0,1,204.03199768066406,202.62899780273438)"><path fill="rgb(173,121,39)" fill-opacity="1" d=" M-81.3219985961914,-130.77000427246094 C-81.3219985961914,-130.77000427246094 -73.96700286865234,-146.2989959716797 -51.900001525878906,-143.8470001220703 C-29.832000732421875,-141.39500427246094 -8.581999778747559,-127.5009994506836 5.311999797821045,-120.1449966430664 C19.207000732421875,-112.78900146484375 28.19700050354004,-109.5199966430664 28.19700050354004,-107.06800079345703 C28.19700050354004,-104.61599731445312 19.20800018310547,-102.16400146484375 19.20800018310547,-102.16400146484375 C19.20800018310547,-102.16400146484375 34.73699951171875,-77.6449966430664 51.08300018310547,-48.22100067138672 C67.42900085449219,-18.79800033569336 81.322998046875,30.240999221801758 73.1500015258789,72.74099731445312 C64.97699737548828,115.24199676513672 28.19700050354004,146.2989959716797 28.19700050354004,146.2989959716797 C28.19700050354004,146.2989959716797 28.19700050354004,-20.433000564575195 -2.8610000610351562,-53.94200134277344 C-33.91899871826172,-87.4520034790039 -81.3219985961914,-130.77000427246094 -81.3219985961914,-130.77000427246094z"></path></g></g><g style="display: block;" transform="matrix(0.9997795820236206,0.020994767546653748,-0.020994767546653748,0.9997795820236206,28.588960647583008,14.777344703674316)" opacity="1"><g opacity="1" transform="matrix(1,0,0,1,128.07000732421875,196.3820037841797)"><path fill="rgb(200,155,60)" fill-opacity="1" d=" M-83.68800354003906,153.77200317382812 C-83.68800354003906,153.77200317382812 -67.12799835205078,147.85800170898438 -68.9020004272461,131.29800415039062 C-70.6760025024414,114.73699951171875 -78.95700073242188,98.76899719238281 -79.5479965209961,95.22000122070312 C-80.13899993896484,91.6719970703125 -80.13800048828125,112.96299743652344 -83.09600067138672,111.77999877929688 C-86.0530014038086,110.59700012207031 -99.65599822998047,83.39199829101562 -100.83899688720703,68.01399993896484 C-102.02100372314453,52.637001037597656 -99.65699768066406,49.0880012512207 -93.74199676513672,47.31399917602539 C-87.8280029296875,45.540000915527344 -83.68699645996094,44.358001708984375 -89.01000213623047,30.163999557495117 C-94.33300018310547,15.968999862670898 -105.57099914550781,-19.517000198364258 -84.27899932861328,-48.49700164794922 C-62.987998962402344,-77.47699737548828 -15.67199993133545,-122.4260025024414 14.491000175476074,-143.12600708007812 C44.65399932861328,-163.8260040283203 75.40699768066406,-173.8820037841797 87.8270034790039,-166.78500366210938 C100.24800109863281,-159.68699645996094 97.88300323486328,-149.33700561523438 97.88300323486328,-149.33700561523438 C97.88300323486328,-149.33700561523438 105.56999969482422,-121.83599853515625 105.56999969482422,-121.83599853515625 C105.56999969482422,-121.83599853515625 81.3219985961914,-120.65299987792969 55.29899978637695,-113.55599975585938 C29.275999069213867,-106.45800018310547 7.394000053405762,-76.29499816894531 -17.44700050354004,-46.7239990234375 C-42.2869987487793,-17.152000427246094 -38.737998962402344,11.23799991607666 -41.69499969482422,32.52899932861328 C-44.652000427246094,53.82099914550781 -56.481998443603516,49.68000030517578 -56.481998443603516,49.68000030517578 C-56.481998443603516,49.68000030517578 -42.2869987487793,68.01399993896484 -44.06100082397461,83.39199829101562 C-45.834999084472656,98.76899719238281 -41.702999114990234,114.68800354003906 -38.74599838256836,119.41899871826172 C-35.78900146484375,124.1510009765625 -28.68400001525879,143.1269989013672 -36.37200164794922,158.50399780273438 C-44.06100082397461,173.8820037841797 -58.255001068115234,172.69900512695312 -69.49299621582031,168.5590057373047 C-80.7300033569336,164.41900634765625 -83.68800354003906,153.77200317382812 -83.68800354003906,153.77200317382812z"></path><path stroke-linecap="round" stroke-linejoin="round" fill-opacity="0" stroke="rgb(140,96,47)" stroke-opacity="1" stroke-width="9" d=" M-83.68800354003906,153.77200317382812 C-83.68800354003906,153.77200317382812 -67.12799835205078,147.85800170898438 -68.9020004272461,131.29800415039062 C-70.6760025024414,114.73699951171875 -78.95700073242188,98.76899719238281 -79.5479965209961,95.22000122070312 C-80.13899993896484,91.6719970703125 -80.13800048828125,112.96299743652344 -83.09600067138672,111.77999877929688 C-86.0530014038086,110.59700012207031 -99.65599822998047,83.39199829101562 -100.83899688720703,68.01399993896484 C-102.02100372314453,52.637001037597656 -99.65699768066406,49.0880012512207 -93.74199676513672,47.31399917602539 C-87.8280029296875,45.540000915527344 -83.68699645996094,44.358001708984375 -89.01000213623047,30.163999557495117 C-94.33300018310547,15.968999862670898 -105.57099914550781,-19.517000198364258 -84.27899932861328,-48.49700164794922 C-62.987998962402344,-77.47699737548828 -15.67199993133545,-122.4260025024414 14.491000175476074,-143.12600708007812 C44.65399932861328,-163.8260040283203 75.40699768066406,-173.8820037841797 87.8270034790039,-166.78500366210938 C100.24800109863281,-159.68699645996094 97.88300323486328,-149.33700561523438 97.88300323486328,-149.33700561523438 C97.88300323486328,-149.33700561523438 105.56999969482422,-121.83599853515625 105.56999969482422,-121.83599853515625 C105.56999969482422,-121.83599853515625 81.3219985961914,-120.65299987792969 55.29899978637695,-113.55599975585938 C29.275999069213867,-106.45800018310547 7.394000053405762,-76.29499816894531 -17.44700050354004,-46.7239990234375 C-42.2869987487793,-17.152000427246094 -38.737998962402344,11.23799991607666 -41.69499969482422,32.52899932861328 C-44.652000427246094,53.82099914550781 -56.481998443603516,49.68000030517578 -56.481998443603516,49.68000030517578 C-56.481998443603516,49.68000030517578 -42.2869987487793,68.01399993896484 -44.06100082397461,83.39199829101562 C-45.834999084472656,98.76899719238281 -41.702999114990234,114.68800354003906 -38.74599838256836,119.41899871826172 C-35.78900146484375,124.1510009765625 -28.68400001525879,143.1269989013672 -36.37200164794922,158.50399780273438 C-44.06100082397461,173.8820037841797 -58.255001068115234,172.69900512695312 -69.49299621582031,168.5590057373047 C-80.7300033569336,164.41900634765625 -83.68800354003906,153.77200317382812 -83.68800354003906,153.77200317382812z"></path></g><g opacity="1" transform="matrix(1,0,0,1,135.093994140625,201.3769989013672)"><path fill="rgb(173,121,39)" fill-opacity="1" d=" M89.90499877929688,-143.02999877929688 C89.90499877929688,-143.02999877929688 79.2509994506836,-151.58099365234375 63.750999450683594,-152.83799743652344 C33.5099983215332,-155.2899932861328 -37.59600067138672,-93.99099731445312 -51.4900016784668,-68.65399932861328 C-65.38500213623047,-43.31800079345703 -82.5479965209961,-12.260000228881836 -68.65399932861328,17.163999557495117 C-62.36199951171875,30.48699951171875 -85,38.41400146484375 -87.4520034790039,54.7599983215332 C-89.90399932861328,71.10600280761719 -75.19200134277344,88.2699966430664 -72.74099731445312,89.90499877929688 C-70.28900146484375,91.53900146484375 -67.83699798583984,77.6449966430664 -66.2020034790039,81.73100280761719 C-64.56700134277344,85.81800079345703 -67.83699798583984,116.05899810791016 -59.66299819946289,124.23200225830078 C-51.4900016784668,132.40499877929688 -55.57699966430664,140.5780029296875 -57.21200180053711,147.9340057373047 C-58.84600067138672,155.2899932861328 -44.15299987792969,143.61399841308594 -43.59000015258789,134.31199645996094 C-42.862998962402344,122.32499694824219 -52.125999450683594,108.79399871826172 -48.856998443603516,101.43800354003906 C-45.5880012512207,94.08200073242188 -45.76900100708008,62.11600112915039 -47.40399932861328,48.22100067138672 C-49.03799819946289,34.32699966430664 -42.4010009765625,-25.792999267578125 -24.469999313354492,-51.71900177001953 C-6.538000106811523,-77.6449966430664 48.277000427246094,-118.5510025024414 48.277000427246094,-118.5510025024414 C48.277000427246094,-118.5510025024414 89.90499877929688,-143.02999877929688 89.90499877929688,-143.02999877929688z"></path></g></g><g style="display: block;" transform="matrix(0.9997795820236206,0.020994767546653748,-0.020994767546653748,0.9997795820236206,64.30799865722656,50.68318176269531)" opacity="1"><g opacity="1" transform="matrix(1,0,0,1,190.9739990234375,202.57000732421875)"><path fill="rgb(252,160,106)" fill-opacity="1" d=" M-126.72899627685547,-100.38899993896484 C-145.7969970703125,-73.22100067138672 -165.9739990234375,-3.934999942779541 -140.2469940185547,71.4729995727539 C-114.51899719238281,146.8800048828125 -27.19499969482422,177.57000732421875 25.395999908447266,176.08900451660156 C88.38300323486328,174.31399536132812 137.59500122070312,131.5989990234375 151.8070068359375,71.4729995727539 C165.9739990234375,11.53600025177002 163.75100708007812,-43.57500076293945 115.84500122070312,-108.33699798583984 C67.93900299072266,-173.09800720214844 1.0199999809265137,-177.57000732421875 -36.2400016784668,-171.36000061035156 C-73.5,-165.14999389648438 -106.53500366210938,-129.16099548339844 -126.72899627685547,-100.38899993896484z"></path></g><g opacity="1" transform="matrix(1,0,0,1,190.9739990234375,202.57000732421875)"><path stroke-linecap="butt" stroke-linejoin="miter" fill-opacity="0" stroke-miterlimit="10" stroke="rgb(181,95,48)" stroke-opacity="1" stroke-width="10" d=" M-126.72899627685547,-100.38899993896484 C-145.7969970703125,-73.22100067138672 -165.9739990234375,-3.934999942779541 -140.2469940185547,71.4729995727539 C-114.51899719238281,146.8800048828125 -27.19499969482422,177.57000732421875 25.395999908447266,176.08900451660156 C88.38300323486328,174.31399536132812 137.59500122070312,131.5989990234375 151.8070068359375,71.4729995727539 C165.9739990234375,11.53600025177002 163.75100708007812,-43.57500076293945 115.84500122070312,-108.33699798583984 C67.93900299072266,-173.09800720214844 1.0199999809265137,-177.57000732421875 -36.2400016784668,-171.36000061035156 C-73.5,-165.14999389648438 -106.53500366210938,-129.16099548339844 -126.72899627685547,-100.38899993896484z"></path></g><g opacity="1" transform="matrix(1,0,0,1,186.3520050048828,192.8719940185547)"><path fill="url(#__lottie_element_21)" fill-opacity="1" d=" M-116.5510025024414,-92.32599639892578 C-134.08700561523438,-67.33999633789062 -152.6439971923828,-3.61899995803833 -128.98300170898438,65.73300170898438 C-105.3219985961914,135.08399963378906 -25.01099967956543,163.3090057373047 23.356000900268555,161.94700622558594 C81.28500366210938,160.31500244140625 126.54399871826172,121.02999877929688 139.61500549316406,65.73300170898438 C152.6439971923828,10.609999656677246 150.60000610351562,-40.07500076293945 106.54100036621094,-99.63500213623047 C62.483001708984375,-159.1959991455078 0.9380000233650208,-163.3090057373047 -33.32899856567383,-157.59800720214844 C-67.59700012207031,-151.88699340820312 -97.97899627685547,-118.78800201416016 -116.5510025024414,-92.32599639892578z"></path></g></g><g style="display: block;" transform="matrix(1.027692437171936,0.0703854113817215,-0.070905402302742,1.0352848768234253,152.17478942871094,290.7816162109375)" opacity="1"><g opacity="1" transform="matrix(1,0,0,1,85.69200134277344,44.194000244140625)"><path fill="rgb(29,22,30)" fill-opacity="1" d=" M-47.78799819946289,-13.378999710083008 C-47.78799819946289,-13.378999710083008 -45.75899887084961,4.885000228881836 -9.628000259399414,11.680999755859375 C26.503999710083008,18.47599983215332 32.768001556396484,17.892000198364258 41.93000030517578,10.406000137329102 C51.0359992980957,2.9679999351501465 47.23500061035156,-0.20600000023841858 48.02000045776367,1.062000036239624 C48.02000045776367,1.062000036239624 22.44499969482422,-7.432000160217285 13.918999671936035,-9.979999542236328 C5.394000053405762,-12.529000282287598 -2.7260000705718994,-12.529999732971191 -7.5980000495910645,-12.104999542236328 C-12.470000267028809,-11.680000305175781 -20.183000564575195,-9.131999969482422 -27.895999908447266,-12.104999542236328 C-35.61000061035156,-15.07800006866455 -43.729000091552734,-18.47599983215332 -47.382999420166016,-17.625999450683594 C-51.0369987487793,-16.777000427246094 -47.78799819946289,-13.378999710083008 -47.78799819946289,-13.378999710083008z"></path></g><g opacity="1" transform="matrix(1,0,0,1,85.69200134277344,44.194000244140625)"><path stroke-linecap="round" stroke-linejoin="round" fill-opacity="0" stroke="rgb(71,47,39)" stroke-opacity="1" stroke-width="7.372" d=" M-47.78799819946289,-13.378999710083008 C-47.78799819946289,-13.378999710083008 -45.75899887084961,4.885000228881836 -9.628000259399414,11.680999755859375 C26.503999710083008,18.47599983215332 32.768001556396484,17.892000198364258 41.93000030517578,10.406000137329102 C51.0359992980957,2.9679999351501465 47.23500061035156,-0.20600000023841858 48.02000045776367,1.062000036239624 C48.02000045776367,1.062000036239624 22.44499969482422,-7.432000160217285 13.918999671936035,-9.979999542236328 C5.394000053405762,-12.529000282287598 -2.7260000705718994,-12.529999732971191 -7.5980000495910645,-12.104999542236328 C-12.470000267028809,-11.680000305175781 -20.183000564575195,-9.131999969482422 -27.895999908447266,-12.104999542236328 C-35.61000061035156,-15.07800006866455 -43.729000091552734,-18.47599983215332 -47.382999420166016,-17.625999450683594 C-51.0369987487793,-16.777000427246094 -47.78799819946289,-13.378999710083008 -47.78799819946289,-13.378999710083008z"></path></g><g opacity="1" transform="matrix(1,0,0,1,91.18399810791016,43.332000732421875)"><path fill="rgb(147,24,15)" fill-opacity="1" d=" M-33.5099983215332,0.3199999928474426 C-33.5099983215332,0.3199999928474426 -20.208999633789062,-10.378000259399414 -7.855000019073486,-10.182000160217285 C4.499000072479248,-9.986000061035156 14.809000015258789,-7.671000003814697 20.479999542236328,-5.6479997634887695 C26.152000427246094,-3.625999927520752 33.5099983215332,3.3340001106262207 33.5099983215332,3.3340001106262207 C33.5099983215332,3.3340001106262207 28.94300079345703,10.378000259399414 13.907999992370605,9.680000305175781 C-1.1260000467300415,8.982000350952148 -33.5099983215332,0.3199999928474426 -33.5099983215332,0.3199999928474426z"></path></g><g opacity="1" transform="matrix(1,0,0,1,91.18399810791016,43.332000732421875)"><path stroke-linecap="round" stroke-linejoin="round" fill-opacity="0" stroke="rgb(127,15,4)" stroke-opacity="1" stroke-width="8.425" d=" M-33.5099983215332,0.3199999928474426 C-33.5099983215332,0.3199999928474426 -20.208999633789062,-10.378000259399414 -7.855000019073486,-10.182000160217285 C4.499000072479248,-9.986000061035156 14.809000015258789,-7.671000003814697 20.479999542236328,-5.6479997634887695 C26.152000427246094,-3.625999927520752 33.5099983215332,3.3340001106262207 33.5099983215332,3.3340001106262207 C33.5099983215332,3.3340001106262207 28.94300079345703,10.378000259399414 13.907999992370605,9.680000305175781 C-1.1260000467300415,8.982000350952148 -33.5099983215332,0.3199999928474426 -33.5099983215332,0.3199999928474426z"></path></g><g opacity="1" transform="matrix(1,0,0,1,89.88899993896484,29.655000686645508)"><path fill="rgb(237,178,138)" fill-opacity="1" d=" M-68.7249984741211,-1.5410000085830688 C-68.7249984741211,-1.5410000085830688 -57.737998962402344,-17.045000076293945 -49.5099983215332,-15.479999542236328 C-41.28200149536133,-13.913999557495117 -31.371000289916992,-4.867000102996826 -20.524999618530273,-6.432000160217285 C-9.678999900817871,-7.997000217437744 -6.685999870300293,-13.279999732971191 10.519000053405762,-8.192999839782715 C27.724000930786133,-3.1059999465942383 26.97599983215332,4.132999897003174 41.1879997253418,5.307000160217285 C55.4010009765625,6.480000019073486 60.45000076293945,3.937000036239624 66.05999755859375,9.02400016784668 C68.72599792480469,11.440999984741211 66.99500274658203,17.04599952697754 66.99500274658203,17.04599952697754 C66.99500274658203,17.04599952697754 66.05899810791016,8.82800006866455 51.659000396728516,9.218999862670898 C41.56399917602539,9.494000434875488 35.202999114990234,11.567000389099121 23.607999801635742,4.914999961853027 C12.013999938964844,-1.7369999885559082 6.591000080108643,-4.084000110626221 -3.506999969482422,-2.5190000534057617 C-13.605999946594238,-0.9539999961853027 -21.833999633789062,1.7860000133514404 -29.500999450683594,-1.343999981880188 C-35.209999084472656,-3.674999952316284 -42.21799850463867,-5.257999897003174 -48.95000076293945,-5.650000095367432 C-55.68199920654297,-6.040999889373779 -68.7249984741211,-1.5410000085830688 -68.7249984741211,-1.5410000085830688z"></path></g><g opacity="1" transform="matrix(1,0,0,1,87.9280014038086,35.29499816894531)"><path stroke-linecap="round" stroke-linejoin="round" fill-opacity="0" stroke="rgb(122,64,35)" stroke-opacity="1" stroke-width="9.478" d=" M-64.23300170898438,-3.5309998989105225 C-64.23300170898438,-3.5309998989105225 -58.54899978637695,-8.20300006866455 -49.61800003051758,-9.902000427246094 C-40.6870002746582,-11.60099983215332 -40.83100128173828,-4.526000022888184 -26.479000091552734,-3.1059999465942383 C-8.682999610900879,-1.3459999561309814 -6.795000076293945,-8.602999687194824 11.682999610900879,-2.256999969482422 C23.881000518798828,1.9320000410079956 38.88199996948242,10.060999870300293 51.0620002746582,9.211999893188477 C63.24100112915039,8.362000465393066 64.23300170898438,11.60099983215332 64.23300170898438,11.60099983215332"></path></g></g><g style="display: block;" transform="matrix(1.027692437171936,0.0703854113817215,-0.070905402302742,1.0352848768234253,94.0787124633789,87.78312683105469)" opacity="1"><g opacity="1" transform="matrix(0.966497540473938,-0.12305687367916107,0.12487689405679703,0.9807921648025513,-0.50469970703125,30.98944091796875)"><g opacity="1" transform="matrix(1,0,0,1,229.2570037841797,53.5629997253418)"><path fill="rgb(237,178,138)" fill-opacity="1" d=" M-48.948001861572266,-23.066999435424805 C-48.948001861572266,-23.066999435424805 -49.31100082397461,-7.083000183105469 -37.141998291015625,1.8170000314712524 C-24.972999572753906,10.715999603271484 4.26800012588501,11.805000305175781 17.70800018310547,14.347999572753906 C31.14900016784668,16.891000747680664 49.31100082397461,23.066999435424805 49.31100082397461,21.795000076293945 C49.31100082397461,20.52400016784668 41.500999450683594,12.168999671936035 41.500999450683594,12.168999671936035 C41.500999450683594,12.168999671936035 -4.994999885559082,3.631999969482422 -10.442999839782715,1.0889999866485596 C-15.892000198364258,-1.4539999961853027 -37.6870002746582,-12.713000297546387 -40.04800033569336,-15.619000434875488 C-42.409000396728516,-18.524999618530273 -48.948001861572266,-23.066999435424805 -48.948001861572266,-23.066999435424805z"></path></g><g opacity="1" transform="matrix(1,0,0,1,233.19200134277344,126.90699768066406)"><path fill="rgb(226,221,237)" fill-opacity="1" d=" M-69.82099914550781,18.67300033569336 C-73.26499938964844,-2.7290000915527344 -68.67900085449219,-22.770000457763672 -53.301998138427734,-39.922000885009766 C-46.30699920654297,-47.724998474121094 -35.516998291015625,-56.14699935913086 -29.05299949645996,-60.62099838256836 C-13.675999641418457,-71.26699829101562 24.767000198364258,-72.44999694824219 41.32699966430664,-54.707000732421875 C57.887001037597656,-36.9640007019043 73.26399993896484,7.39300012588501 64.39299774169922,34.00699996948242 C55.520999908447266,60.62200164794922 28.31599998474121,68.30999755859375 8.79800033569336,69.49299621582031 C-10.718999862670898,70.6760025024414 -30.236000061035156,72.44999694824219 -54.48500061035156,50.56700134277344 C-63.58100128173828,42.35900115966797 -67.93299865722656,30.4060001373291 -69.82099914550781,18.67300033569336z"></path><path stroke-linecap="butt" stroke-linejoin="miter" fill-opacity="0" stroke-miterlimit="10" stroke="rgb(122,64,35)" stroke-opacity="1" stroke-width="10" d=" M-69.82099914550781,18.67300033569336 C-73.26499938964844,-2.7290000915527344 -68.67900085449219,-22.770000457763672 -53.301998138427734,-39.922000885009766 C-46.30699920654297,-47.724998474121094 -35.516998291015625,-56.14699935913086 -29.05299949645996,-60.62099838256836 C-13.675999641418457,-71.26699829101562 24.767000198364258,-72.44999694824219 41.32699966430664,-54.707000732421875 C57.887001037597656,-36.9640007019043 73.26399993896484,7.39300012588501 64.39299774169922,34.00699996948242 C55.520999908447266,60.62200164794922 28.31599998474121,68.30999755859375 8.79800033569336,69.49299621582031 C-10.718999862670898,70.6760025024414 -30.236000061035156,72.44999694824219 -54.48500061035156,50.56700134277344 C-63.58100128173828,42.35900115966797 -67.93299865722656,30.4060001373291 -69.82099914550781,18.67300033569336z"></path></g><g opacity="1" transform="matrix(1,0,0,1,228.5240020751953,123.88500213623047)"><path fill="rgb(255,255,255)" fill-opacity="1" d=" M-58.784000396728516,16.12700080871582 C-61.68299865722656,-2.3570001125335693 -57.82400131225586,-19.665000915527344 -44.87699890136719,-34.47800064086914 C-38.987998962402344,-41.21699905395508 -29.902000427246094,-48.492000579833984 -24.459999084472656,-52.35599899291992 C-11.513999938964844,-61.54999923706055 20.85300064086914,-62.571998596191406 34.79499816894531,-47.24800109863281 C48.737998962402344,-31.923999786376953 61.683998107910156,6.385000228881836 54.21500015258789,29.3700008392334 C46.74599838256836,52.35599899291992 23.84000015258789,58.99599838256836 7.4079999923706055,60.018001556396484 C-9.02400016784668,61.03900146484375 -25.457000732421875,62.571998596191406 -45.87300109863281,43.672000885009766 C-53.53099822998047,36.58300018310547 -57.19499969482422,26.260000228881836 -58.784000396728516,16.12700080871582z"></path></g><g opacity="1" transform="matrix(1,0,0,1,232.19400024414062,47.97600173950195)"><path fill="rgb(252,226,204)" fill-opacity="1" d=" M-47.5260009765625,-20.47599983215332 C-47.5260009765625,-20.47599983215332 -47.98400115966797,-10.890999794006348 -24.910999298095703,2.5959999561309814 C-13.256999969482422,9.409000396728516 9.812999725341797,10.416000366210938 20.39699935913086,12.064000129699707 C38.66299819946289,14.907999992370605 47.98400115966797,20.47599983215332 47.98400115966797,20.47599983215332"></path></g><g opacity="1" transform="matrix(1,0,0,1,232.19400024414062,47.97600173950195)"><path stroke-linecap="round" stroke-linejoin="round" fill-opacity="0" stroke="rgb(94,49,27)" stroke-opacity="1" stroke-width="11" d=" M-47.5260009765625,-20.47599983215332 C-47.5260009765625,-20.47599983215332 -47.98400115966797,-10.890999794006348 -24.910999298095703,2.5959999561309814 C-13.256999969482422,9.409000396728516 9.812999725341797,10.416000366210938 20.39699935913086,12.064000129699707 C38.66299819946289,14.907999992370605 47.98400115966797,20.47599983215332 47.98400115966797,20.47599983215332"></path></g><g opacity="1" transform="matrix(1,0,0,1,0,0)"><g opacity="1" transform="matrix(1,0,0,1,224.54299926757812,117.44499969482422)"><path fill="rgb(26,9,45)" fill-opacity="1" d=" M-43.470001220703125,-28.0939998626709 C-47.7239990234375,-18.908000946044922 -53.52399826049805,-7.394000053405762 -49.38399887084961,9.758000373840332 C-44.465999603271484,30.132999420166016 -30.45800018310547,50.56700134277344 -0.29499998688697815,45.24399948120117 C29.868000030517578,39.92100143432617 42.87900161743164,21.586999893188477 48.20199966430664,5.0269999504089355 C53.525001525878906,-11.532999992370605 44.0620002746582,-36.37300109863281 17.447999954223633,-43.470001220703125 C-9.166999816894531,-50.56700134277344 -20.761999130249023,-45.930999755859375 -25.13599967956543,-43.470001220703125 C-34.5989990234375,-38.14699935913086 -41.8390007019043,-31.615999221801758 -43.470001220703125,-28.0939998626709z"></path></g><g opacity="1" transform="matrix(1,0,0,1,207.14100646972656,92.53500366210938)"><path fill="rgb(255,255,255)" fill-opacity="1" d=" M-12.954000473022461,-2.2060000896453857 C-13.729999542236328,2.2639999389648438 -12.20199966430664,13.434000015258789 -0.17599999904632568,13.434000015258789 C11.850000381469727,13.434000015258789 13.729999542236328,1.003000020980835 7.716000080108643,-6.215000152587891 C1.7029999494552612,-13.434000015258789 -11.074999809265137,-13.034000396728516 -12.954000473022461,-2.2060000896453857z"></path></g><g opacity="1" transform="matrix(1,0,0,1,263.68798828125,91.92500305175781)"><path fill="rgb(255,255,255)" fill-opacity="1" d=" M-6.380000114440918,-1.0870000123977661 C-6.76200008392334,1.1150000095367432 -6.010000228881836,6.617000102996826 -0.0860000029206276,6.617000102996826 C5.836999893188477,6.617000102996826 6.763000011444092,0.49399998784065247 3.8010001182556152,-3.061000108718872 C0.8389999866485596,-6.617000102996826 -5.453999996185303,-6.420000076293945 -6.380000114440918,-1.0870000123977661z"></path></g><g opacity="1" transform="matrix(1,0,0,1,213.87600708007812,126.31500244140625)"><path fill="rgb(95,65,127)" fill-opacity="1" d=" M-8.098999977111816,27.142000198364258 C-8.098999977111816,27.142000198364258 -35.314998626708984,19.47800064086914 -34.09600067138672,-9.359999656677246 C-33.16400146484375,-31.400999069213867 -21.0310001373291,-12.54699993133545 0.9940000176429749,-5.8480000495910645 C23.018999099731445,0.8519999980926514 35.314998626708984,5.664999961853027 23.202999114990234,18.533000946044922 C11.09000015258789,31.400999069213867 -8.098999977111816,27.142000198364258 -8.098999977111816,27.142000198364258z"></path></g><g opacity="0.7000000000000001" transform="matrix(1,0,0,1,235.593994140625,129.3459930419922)"><path fill="rgb(255,255,255)" fill-opacity="1" d=" M-25.899999618530273,4.754000186920166 C-25.899999618530273,4.754000186920166 -25.648000717163086,-0.6480000019073486 -19.60099983215332,0.43299999833106995 C-13.553000450134277,1.5130000114440918 -11.28499984741211,4.105999946594238 -7.001999855041504,1.7289999723434448 C-2.7179999351501465,-0.6480000019073486 1.3140000104904175,-6.697999954223633 6.85699987411499,-7.7779998779296875 C12.401000022888184,-8.859000205993652 12.401000022888184,-14.043999671936035 14.920999526977539,-15.98900032043457 C17.440000534057617,-17.93400001525879 22.73200035095215,-17.500999450683594 24.74799919128418,-13.612000465393066 C26.763999938964844,-9.722999572753906 26.511999130249023,3.890000104904175 20.968000411987305,8.211000442504883 C15.425000190734863,12.532999992370605 12.401000022888184,15.989999771118164 2.8259999752044678,16.854000091552734 C-6.75,17.718000411987305 -14.62399959564209,16.31599998474121 -18.844999313354492,14.692999839782715 C-26.152000427246094,11.883999824523926 -25.899999618530273,4.754000186920166 -25.899999618530273,4.754000186920166z"></path></g></g><g opacity="1" transform="matrix(1,0,0,1,233.19200134277344,126.90699768066406)"><path stroke-linecap="butt" stroke-linejoin="miter" fill-opacity="0" stroke-miterlimit="10" stroke="rgb(122,64,35)" stroke-opacity="1" stroke-width="10" d=" M-69.82099914550781,18.67300033569336 C-73.26499938964844,-2.7290000915527344 -68.67900085449219,-22.770000457763672 -53.301998138427734,-39.922000885009766 C-46.30699920654297,-47.724998474121094 -35.516998291015625,-56.14699935913086 -29.05299949645996,-60.62099838256836 C-13.675999641418457,-71.26699829101562 24.767000198364258,-72.44999694824219 41.32699966430664,-54.707000732421875 C57.887001037597656,-36.9640007019043 73.26399993896484,7.39300012588501 64.39299774169922,34.00699996948242 C55.520999908447266,60.62200164794922 28.31599998474121,68.30999755859375 8.79800033569336,69.49299621582031 C-10.718999862670898,70.6760025024414 -30.236000061035156,72.44999694824219 -54.48500061035156,50.56700134277344 C-63.58100128173828,42.35900115966797 -67.93299865722656,30.4060001373291 -69.82099914550781,18.67300033569336z"></path></g></g><g opacity="1" transform="matrix(0.9907724261283875,0.06896878033876419,-0.06266152858734131,0.9798740744590759,5.471275329589844,0.16811370849609375)"><g opacity="1" transform="matrix(1,0,0,1,133.7220001220703,41.39400100708008)"><path fill="rgb(237,178,138)" fill-opacity="1" d=" M13.713000297546387,-9.98900032043457 C13.713000297546387,-9.98900032043457 10.625,1.9980000257492065 2.0889999866485596,7.809999942779541 C-6.447000026702881,13.621999740600586 -13.894000053405762,11.62399959564209 -13.894000053405762,11.62399959564209 C-13.894000053405762,11.62399959564209 -14.076000213623047,2.9059998989105225 -12.803999900817871,1.9980000257492065 C-11.532999992370605,1.090000033378601 -0.9990000128746033,-4.177000045776367 1.7259999513626099,-6.175000190734863 C4.449999809265137,-8.17300033569336 11.170000076293945,-13.621999740600586 12.623000144958496,-12.531999588012695 C14.076000213623047,-11.442000389099121 13.713000297546387,-9.98900032043457 13.713000297546387,-9.98900032043457z"></path></g><g opacity="1" transform="matrix(1,0,0,1,90.0250015258789,101.18000030517578)"><path fill="rgb(226,221,237)" fill-opacity="1" d=" M-52.07899856567383,-26.614999771118164 C-59.8849983215332,-16.36400032043457 -65.0250015258789,12.72599983215332 -52.07899856567383,34.303001403808594 C-37.8849983215332,57.959999084472656 -17.18400001525879,67.4229965209961 16.527000427246094,55.59400177001953 C50.23899841308594,43.76499938964844 65.0250015258789,11.82800006866455 62.06700134277344,-22.475000381469727 C59.11000061035156,-56.77799987792969 14.16100025177002,-67.4229965209961 -7.130000114440918,-63.874000549316406 C-28.422000885009766,-60.32600021362305 -43.236000061035156,-38.22700119018555 -52.07899856567383,-26.614999771118164z"></path></g><g opacity="1" transform="matrix(1,0,0,1,90.0250015258789,101.18000030517578)"><path stroke-linecap="butt" stroke-linejoin="miter" fill-opacity="0" stroke-miterlimit="10" stroke="rgb(122,64,35)" stroke-opacity="1" stroke-width="10" d=" M-52.07899856567383,-26.614999771118164 C-59.8849983215332,-16.36400032043457 -65.0250015258789,12.72599983215332 -52.07899856567383,34.303001403808594 C-37.8849983215332,57.959999084472656 -17.18400001525879,67.4229965209961 16.527000427246094,55.59400177001953 C50.23899841308594,43.76499938964844 65.0250015258789,11.82800006866455 62.06700134277344,-22.475000381469727 C59.11000061035156,-56.77799987792969 14.16100025177002,-67.4229965209961 -7.130000114440918,-63.874000549316406 C-28.422000885009766,-60.32600021362305 -43.236000061035156,-38.22700119018555 -52.07899856567383,-26.614999771118164z"></path></g><g opacity="1" transform="matrix(1,0,0,1,86.6520004272461,95.9000015258789)"><path fill="rgb(255,255,255)" fill-opacity="1" d=" M-44.94300079345703,-22.933000564575195 C-51.68000030517578,-14.10099983215332 -56.1150016784668,10.965999603271484 -44.94300079345703,29.55699920654297 C-32.69300079345703,49.941001892089844 -14.831000328063965,58.09400177001953 14.26200008392334,47.902000427246094 C43.35499954223633,37.70899963378906 56.11600112915039,10.192000389099121 53.56399917602539,-19.364999771118164 C51.012001037597656,-48.922000885009766 12.220000267028809,-58.09400177001953 -6.1539998054504395,-55.0369987487793 C-24.527999877929688,-51.979000091552734 -37.31100082397461,-32.9379997253418 -44.94300079345703,-22.933000564575195z"></path></g><g opacity="1" transform="matrix(1,0,0,1,90.3740005493164,40.12300109863281)"><path fill="rgb(252,226,204)" fill-opacity="1" d=" M-46.428001403808594,8.871000289916992 C-46.428001403808594,8.871000289916992 -1.4579999446868896,8.315999984741211 17.466999053955078,5.357999801635742 C36.393001556396484,2.4010000228881836 40.513999938964844,-2.9570000171661377 46.428001403808594,-8.871000289916992"></path></g><g opacity="1" transform="matrix(1,0,0,1,90.3740005493164,40.12300109863281)"><path stroke-linecap="round" stroke-linejoin="round" fill-opacity="0" stroke="rgb(94,49,27)" stroke-opacity="1" stroke-width="11" d=" M-46.428001403808594,8.871000289916992 C-46.428001403808594,8.871000289916992 -1.4579999446868896,8.315999984741211 17.466999053955078,5.357999801635742 C36.393001556396484,2.4010000228881836 40.513999938964844,-2.9570000171661377 46.428001403808594,-8.871000289916992"></path></g><g opacity="1" transform="matrix(1,0,0,1,0,0)"><g opacity="1" transform="matrix(1,0,0,1,83.78199768066406,86.98600006103516)"><path fill="rgb(26,9,45)" fill-opacity="1" d=" M-45.83599853515625,-12.420000076293945 C-49.3849983215332,2.365999937057495 -49.97600173950195,23.656999588012695 -28.68400001525879,34.303001403808594 C-7.39300012588501,44.94900131225586 19.222000122070312,35.486000061035156 34.5989990234375,22.475000381469727 C49.97600173950195,9.463000297546387 44.65299987792969,-14.194000244140625 35.78200149536133,-27.20599937438965 C26.90999984741211,-40.21699905395508 16.263999938964844,-43.76599884033203 0.8870000243186951,-44.356998443603516 C-14.489999771118164,-44.94900131225586 -27.50200080871582,-37.85200119018555 -32.233001708984375,-32.52899932861328 C-36.96500015258789,-27.20599937438965 -45.125,-15.383999824523926 -45.83599853515625,-12.420000076293945z"></path></g><g opacity="1" transform="matrix(1,0,0,1,79.41799926757812,65.76499938964844)"><path fill="rgb(255,255,255)" fill-opacity="1" d=" M-12.895000457763672,-2.0820000171661377 C-13.666999816894531,2.13700008392334 -12.147000312805176,12.680999755859375 -0.17499999701976776,12.680999755859375 C11.795999526977539,12.680999755859375 13.666999816894531,0.9459999799728394 7.681000232696533,-5.867000102996826 C1.6950000524520874,-12.680999755859375 -11.02400016784668,-12.303000450134277 -12.895000457763672,-2.0820000171661377z"></path></g><g opacity="1" transform="matrix(1,0,0,1,128.83200073242188,74.42400360107422)"><path fill="rgb(255,255,255)" fill-opacity="1" d=" M-6.380000114440918,-1.0870000123977661 C-6.76200008392334,1.1150000095367432 -6.011000156402588,6.617000102996826 -0.08699999749660492,6.617000102996826 C5.835999965667725,6.617000102996826 6.763000011444092,0.49399998784065247 3.8010001182556152,-3.061000108718872 C0.8389999866485596,-6.617000102996826 -5.453999996185303,-6.420000076293945 -6.380000114440918,-1.0870000123977661z"></path></g><g opacity="1" transform="matrix(1,0,0,1,66.927001953125,98.78199768066406)"><path fill="rgb(95,65,127)" fill-opacity="1" d=" M-6.340000152587891,19.90999984741211 C-6.340000152587891,19.90999984741211 -27.674999237060547,14.274999618530273 -26.732999801635742,-6.876999855041504 C-26.01300048828125,-23.04400062561035 -16.4950008392334,-9.208999633789062 0.7699999809265137,-4.283999919891357 C18.03499984741211,0.6399999856948853 27.674999237060547,4.177000045776367 18.187999725341797,13.609999656677246 C8.701000213623047,23.042999267578125 -6.340000152587891,19.90999984741211 -6.340000152587891,19.90999984741211z"></path></g><g opacity="0.73" transform="matrix(1,0,0,1,86.77300262451172,101.29199981689453)"><path fill="rgb(255,255,255)" fill-opacity="1" d=" M-23.125,4.2820000648498535 C-23.125,4.2820000648498535 -20.43199920654297,0.2290000021457672 -14.310999870300293,1.0820000171661377 C-8.1899995803833,1.934999942779541 -6.7210001945495605,2.7890000343322754 0.3799999952316284,-1.4780000448226929 C7.480000019073486,-5.744999885559082 8.21500015258789,-6.171000003814697 9.194000244140625,-8.944999694824219 C10.173999786376953,-11.718000411987305 13.112000465393066,-15.772000312805176 18.253000259399414,-13.425000190734863 C23.395000457763672,-11.07800006866455 24.618999481201172,-4.465000152587891 21.680999755859375,0.8690000176429749 C18.743000030517578,6.202000141143799 11.152999877929688,10.041999816894531 6.500999927520752,11.74899959564209 C1.8489999771118164,13.454999923706055 -5.006999969482422,14.309000015258789 -10.392999649047852,14.095000267028809 C-15.779999732971191,13.881999969482422 -21.6560001373291,10.895000457763672 -22.635000228881836,8.975000381469727 C-23.614999771118164,7.054999828338623 -23.125,4.2820000648498535 -23.125,4.2820000648498535z"></path></g></g></g></g><g style="display: block;" transform="matrix(0.9634885191917419,0.04772929474711418,-0.045484013855457306,0.918164074420929,96.84841918945312,38.26451873779297)" opacity="1"><g opacity="1" transform="matrix(1,0,0,1,136.92999267578125,78.50299835205078)"><path fill="rgb(200,155,60)" fill-opacity="1" d=" M-111.76000213623047,42.54399871826172 C-113.51799774169922,48.06100082397461 -113.7229995727539,55.29600143432617 -107.96199798583984,54.097999572753906 C-95.27799987792969,51.46200180053711 -64.95700073242188,48.534000396728516 -47.20399856567383,41.40599822998047 C-20.108999252319336,30.527000427246094 -11.48799991607666,23.274999618530273 -11.48799991607666,23.274999618530273 C-11.48799991607666,23.274999618530273 11.090999603271484,24.483999252319336 29.15399932861328,20.45400047302246 C47.21799850463867,16.424999237060547 76.7750015258789,6.3520002365112305 85.39700317382812,2.322999954223633 C92.5260009765625,-1.0089999437332153 106.33300018310547,-5.735000133514404 110.02799987792969,-15.003000259399414 C113.7229995727539,-24.270000457763672 52.96500015258789,-55.29499816894531 -8.61400032043457,-44.819000244140625 C-80.177001953125,-32.64400100708008 -105.4990005493164,29.72100067138672 -109.60399627685547,37.375999450683594 C-110.50599670410156,39.058998107910156 -111.21099853515625,40.82099914550781 -111.76000213623047,42.54399871826172z"></path></g><g opacity="1" transform="matrix(1,0,0,1,136.92999267578125,78.50299835205078)"><path stroke-linecap="round" stroke-linejoin="round" fill-opacity="0" stroke="rgb(140,96,47)" stroke-opacity="1" stroke-width="9.283" d=" M-111.76000213623047,42.54399871826172 C-113.51799774169922,48.06100082397461 -113.7229995727539,55.29600143432617 -107.96199798583984,54.097999572753906 C-95.27799987792969,51.46200180053711 -64.95700073242188,48.534000396728516 -47.20399856567383,41.40599822998047 C-20.108999252319336,30.527000427246094 -11.48799991607666,23.274999618530273 -11.48799991607666,23.274999618530273 C-11.48799991607666,23.274999618530273 11.090999603271484,24.483999252319336 29.15399932861328,20.45400047302246 C47.21799850463867,16.424999237060547 76.7750015258789,6.3520002365112305 85.39700317382812,2.322999954223633 C92.5260009765625,-1.0089999437332153 106.33300018310547,-5.735000133514404 110.02799987792969,-15.003000259399414 C113.7229995727539,-24.270000457763672 52.96500015258789,-55.29499816894531 -8.61400032043457,-44.819000244140625 C-80.177001953125,-32.64400100708008 -105.4990005493164,29.72100067138672 -109.60399627685547,37.375999450683594 C-110.50599670410156,39.058998107910156 -111.21099853515625,40.82099914550781 -111.76000213623047,42.54399871826172z"></path></g><g opacity="1" transform="matrix(1,0,0,1,136.16700744628906,94.29499816894531)"><path fill="rgb(173,121,39)" fill-opacity="1" d=" M-103.11900329589844,21.159000396728516 C-103.11900329589844,21.159000396728516 -72.48400115966797,24.128999710083008 -45.63100051879883,14.47700023651123 C-18.777999877929688,4.826000213623047 -17.64299964904785,-5.939000129699707 -6.296999931335449,-5.567999839782715 C5.048999786376953,-5.196000099182129 36.819000244140625,-6.309999942779541 59.13399887084961,-13.36299991607666 C81.447998046875,-20.416000366210938 99.2239990234375,-36.37799835205078 99.2239990234375,-36.37799835205078 C99.2239990234375,-36.37799835205078 110.0780029296875,-34.7869987487793 105.65299987792969,-29.695999145507812 C94.68499755859375,-17.075000762939453 60.268001556396484,-7.052000045776367 36.441001892089844,-0.7419999837875366 C12.61400032043457,5.567999839782715 -12.72700023651123,3.7119998931884766 -12.72700023651123,3.7119998931884766 C-12.72700023651123,3.7119998931884766 -25.20800018310547,17.076000213623047 -56.97700119018555,25.613000869750977 C-89.6719970703125,34.400001525878906 -106.1449966430664,36.37799835205078 -108.03600311279297,33.779998779296875 C-110.0780029296875,30.974000930786133 -103.11900329589844,21.159000396728516 -103.11900329589844,21.159000396728516z"></path></g><g opacity="1" transform="matrix(1,0,0,1,130.343994140625,68.21900177001953)"><path fill="rgb(234,179,99)" fill-opacity="1" d=" M88.21700286865234,-16.61199951171875 C88.21700286865234,-16.61199951171875 32.053001403808594,-33.316001892089844 -9.928999900817871,-22.73699951171875 C-51.90999984741211,-12.157999992370605 -88.21700286865234,36.28499984741211 -88.21700286865234,36.28499984741211 C-88.21700286865234,36.28499984741211 -67.86199951171875,-25.892000198364258 0.28299999237060547,-31.089000701904297 C68.4280014038086,-36.28499984741211 88.21700286865234,-16.61199951171875 88.21700286865234,-16.61199951171875z"></path></g></g><g style="display: block;" transform="matrix(1.0236128568649292,-0.11762367188930511,0.11574190109968185,1.0309866666793823,100.59300994873047,240.50132751464844)" opacity="1"><g opacity="1" transform="matrix(1,0,0,1,224.9320068359375,73.3270034790039)"><path fill="rgb(74,211,244)" fill-opacity="1" d=" M-57.073001861572266,-3.6470000743865967 C-57.702999114990234,-4.5929999351501465 -60.029998779296875,-14.883999824523926 -44.06100082397461,-10.152999877929688 C-35.68899917602539,-7.671999931335449 -15.081999778747559,0.49300000071525574 10.348999977111816,-4.23799991607666 C35.78099822998047,-8.970000267028809 45.04499816894531,-21.194000244140625 50.56800079345703,-18.433000564575195 C60.03099822998047,-13.701000213623047 53.52399826049805,-2.4630000591278076 36.37200164794922,7.591000080108643 C24.243999481201172,14.701000213623047 3.8450000286102295,21.194000244140625 -20.996000289916992,16.46299934387207 C-45.83599853515625,11.730999946594238 -51.159000396728516,5.223999977111816 -57.073001861572266,-3.6470000743865967z"></path></g><g opacity="1" transform="matrix(1,0,0,1,224.9320068359375,73.3270034790039)"><path stroke-linecap="round" stroke-linejoin="round" fill-opacity="0" stroke="rgb(12,175,226)" stroke-opacity="1" stroke-width="8" d=" M-57.073001861572266,-3.6470000743865967 C-57.702999114990234,-4.5929999351501465 -60.029998779296875,-14.883999824523926 -44.06100082397461,-10.152999877929688 C-35.68899917602539,-7.671999931335449 -15.081999778747559,0.49300000071525574 10.348999977111816,-4.23799991607666 C35.78099822998047,-8.970000267028809 45.04499816894531,-21.194000244140625 50.56800079345703,-18.433000564575195 C60.03099822998047,-13.701000213623047 53.52399826049805,-2.4630000591278076 36.37200164794922,7.591000080108643 C24.243999481201172,14.701000213623047 3.8450000286102295,21.194000244140625 -20.996000289916992,16.46299934387207 C-45.83599853515625,11.730999946594238 -51.159000396728516,5.223999977111816 -57.073001861572266,-3.6470000743865967z"></path></g><g opacity="0.5" transform="matrix(1,0,0,1,189.51600646972656,73.5530014038086)"><path fill="rgb(255,255,255)" fill-opacity="1" d=" M-7.663000106811523,-3.5490000247955322 C-5.0960001945495605,-4.8979997634887695 1.871999979019165,-3.5480000972747803 5.685999870300293,-1.0959999561309814 C9.50100040435791,1.3559999465942383 8.967000007629395,4.519000053405762 6.230999946594238,4.624000072479248 C-0.8519999980926514,4.896999835968018 -4.394000053405762,2.7179999351501465 -7.663000106811523,0.8109999895095825 C-9.50100040435791,-0.26100000739097595 -8.574999809265137,-3.069999933242798 -7.663000106811523,-3.5490000247955322z"></path></g><g opacity="1" transform="matrix(1,0,0,1,211.5240020751953,78.3290023803711)"><path fill="rgb(255,255,255)" fill-opacity="1" d=" M-3.9600000381469727,-0.9750000238418579 C-3.9600000381469727,-0.9750000238418579 -5.2270002365112305,1.9490000009536743 -1.9010000228881836,2.9240000247955322 C1.4249999523162842,3.8980000019073486 5.2270002365112305,3.509000062942505 4.909999847412109,0.19599999487400055 C4.5929999351501465,-3.118000030517578 2.2170000076293945,-3.8980000019073486 -0.7919999957084656,-3.703000068664551 C-3.802000045776367,-3.507999897003174 -3.9600000381469727,-0.9750000238418579 -3.9600000381469727,-0.9750000238418579z"></path></g></g><g style="display: block;" transform="matrix(1.0095847845077515,0.20521685481071472,-0.20473913848400116,1.0171798467636108,99.08999633789062,190.10792541503906)" opacity="1"><g opacity="1" transform="matrix(1,0,0,1,63.5629997253418,39.516998291015625)"><path fill="rgb(74,211,244)" fill-opacity="1" d=" M-38.2400016784668,-9.463000297546387 C-38.2400016784668,-9.463000297546387 -43.5629997253418,-19.517000198364258 -34.691001892089844,-18.926000595092773 C-25.81999969482422,-18.333999633789062 -19.025999069213867,-7.25 -2.671999931335449,-4.385000228881836 C15.390000343322754,-1.2200000286102295 20.756999969482422,-1.1150000095367432 28.930999755859375,-1.659999966621399 C37.95800018310547,-2.26200008392334 43.5629997253418,4.413000106811523 37.64899826049805,10.32699966430664 C31.733999252319336,16.240999221801758 13.21500015258789,19.517000198364258 -10.442999839782715,14.78600025177002 C-34.099998474121094,10.053999900817871 -38.2400016784668,-9.463000297546387 -38.2400016784668,-9.463000297546387z"></path></g><g opacity="1" transform="matrix(1,0,0,1,63.5629997253418,39.516998291015625)"><path stroke-linecap="round" stroke-linejoin="round" fill-opacity="0" stroke="rgb(12,175,226)" stroke-opacity="1" stroke-width="8" d=" M-38.2400016784668,-9.463000297546387 C-38.2400016784668,-9.463000297546387 -43.5629997253418,-19.517000198364258 -34.691001892089844,-18.926000595092773 C-25.81999969482422,-18.333999633789062 -19.025999069213867,-7.25 -2.671999931335449,-4.385000228881836 C15.390000343322754,-1.2200000286102295 20.756999969482422,-1.1150000095367432 28.930999755859375,-1.659999966621399 C37.95800018310547,-2.26200008392334 43.5629997253418,4.413000106811523 37.64899826049805,10.32699966430664 C31.733999252319336,16.240999221801758 13.21500015258789,19.517000198364258 -10.442999839782715,14.78600025177002 C-34.099998474121094,10.053999900817871 -38.2400016784668,-9.463000297546387 -38.2400016784668,-9.463000297546387z"></path></g><g opacity="1" transform="matrix(1,0,0,1,40.220001220703125,32.40999984741211)"><path fill="rgb(255,255,255)" fill-opacity="1" d=" M-6.464000225067139,-3.7909998893737793 C-4.058000087738037,-4.730999946594238 2.0309998989105225,-2.927000045776367 5.211999893188477,-0.44999998807907104 C8.392999649047852,2.0269999504089355 7.638000011444092,4.730000019073486 5.190999984741211,4.573999881744385 C-1.1440000534057617,4.169000148773193 -4.105999946594238,1.9529999494552612 -6.849999904632568,-0.0010000000474974513 C-8.392999649047852,-1.100000023841858 -7.318999767303467,-3.4570000171661377 -6.464000225067139,-3.7909998893737793z"></path></g><g opacity="0.5" transform="matrix(1,0,0,1,62.76499938964844,40.78799819946289)"><path fill="rgb(255,255,255)" fill-opacity="1" d=" M-3.2119998931884766,-1.2710000276565552 C-3.2119998931884766,-1.2710000276565552 -4.598999977111816,1.156999945640564 -1.722000002861023,2.305000066757202 C1.1549999713897705,3.4539999961853027 4.577000141143799,3.4590001106262207 4.5879998207092285,0.5490000247955322 C4.598999977111816,-2.3610000610351562 2.549999952316284,-3.253999948501587 -0.14900000393390656,-3.3570001125335693 C-2.8469998836517334,-3.4600000381469727 -3.2119998931884766,-1.2710000276565552 -3.2119998931884766,-1.2710000276565552z"></path></g></g><g style="display: block;" transform="matrix(1.027692437171936,0.0703854113817215,-0.070905402302742,1.0352848768234253,90.80973815917969,214.7809600830078)" opacity="1"><g opacity="1" transform="matrix(1,0,0,1,226.81100463867188,83.86799621582031)"><path stroke-linecap="round" stroke-linejoin="round" fill-opacity="0" stroke="rgb(181,95,48)" stroke-opacity="1" stroke-width="10" d=" M-37.457000732421875,-2.3329999446868896 C-35.880001068115234,-1.9390000104904175 -16.341999053955078,-9.496000289916992 6.702000141143799,-6.670000076293945 C25.163000106811523,-4.4070000648498535 31.148000717163086,0.8209999799728394 33.513999938964844,3.5810000896453857 C35.880001068115234,6.341000080108643 37.457000732421875,9.496000289916992 37.457000732421875,9.496000289916992"></path></g><g opacity="1" transform="matrix(1,0,0,1,0,0)"><path fill="rgb(247,204,167)" fill-opacity="1" d=" M43.3489990234375,33.24399948120117 C36.00199890136719,32.5359992980957 25.195999145507812,38.099998474121094 25.195999145507812,38.099998474121094 C25.195999145507812,38.099998474121094 40.72100067138672,39.3390007019043 45.882999420166016,41.76499938964844 C52.167999267578125,44.71799850463867 63.308998107910156,54.58599853515625 67.76000213623047,52.11000061035156 C72.21099853515625,49.63399887084961 69.9229965209961,51.72200012207031 65.3759994506836,45.75299835205078 C60.82899856567383,39.784000396728516 48.09400177001953,33.70100021362305 43.3489990234375,33.24399948120117z"></path></g><g opacity="1" transform="matrix(1,0,0,1,47.67100143432617,37.814998626708984)"><path stroke-linecap="round" stroke-linejoin="round" fill-opacity="0" stroke="rgb(181,95,48)" stroke-opacity="1" stroke-width="10" d=" M-22.67099952697754,-4.534999847412109 C-22.67099952697754,-4.534999847412109 -11.631999969482422,-12.8149995803833 4.927999973297119,-4.534999847412109 C21.488000869750977,3.744999885559082 22.67099952697754,12.8149995803833 22.67099952697754,12.8149995803833"></path></g></g><g style="display: block;" transform="matrix(0.9634885191917419,0.04772929474711418,-0.045484013855457306,0.918164074420929,93.57911682128906,50.23365783691406)" opacity="1"><g opacity="1" transform="matrix(1,0,-0.11268799006938934,0.9177700281143188,9.424049377441406,0.013156890869140625)"><g opacity="1" transform="matrix(1,0,0,1,93.43699645996094,85.47599792480469)"><path fill="rgb(137,88,16)" fill-opacity="1" d=" M-26.01099967956543,-20.01099967956543 C-26.01099967956543,-20.01099967956543 6.556000232696533,-24.305999755859375 19.020000457763672,-26.55299949645996 C31.482999801635742,-28.798999786376953 36.89799880981445,-29.895000457763672 36.47700119018555,-26.22800064086914 C36.05500030517578,-22.56100082397461 16.489999771118164,-4.548999786376953 8.505999565124512,1.2000000476837158 C0.5220000147819519,6.948999881744385 -10.689000129699707,30.158000946044922 -16.740999221801758,28.535999298095703 C-22.792999267578125,26.913000106811523 -32.5369987487793,-3.3519999980926514 -35.94300079345703,-7.3470001220703125 C-39.3489990234375,-11.342000007629395 -26.01099967956543,-20.01099967956543 -26.01099967956543,-20.01099967956543z"></path></g><g opacity="1" transform="matrix(1,0,0,1,38.59400177001953,47.861000061035156)"><path fill="rgb(34,31,40)" fill-opacity="1" d=" M21.0939998626709,4.730999946594238 C21.0939998626709,4.730999946594238 16.756999969482422,-5.914999961853027 6.900000095367432,-15.378000259399414 C-2.9579999446868896,-24.840999603271484 -10.055000305175781,-30.360000610351562 -11.23799991607666,-24.44499969482422 C-12.420999526977539,-18.5310001373291 -11.237000465393066,-4.336999893188477 -13.208000183105469,0.39500001072883606 C-15.180000305175781,5.125999927520752 -21.094999313354492,23.26300048828125 -17.54599952697754,26.81100082397461 C-13.998000144958496,30.360000610351562 20.700000762939453,17.347999572753906 20.700000762939453,17.347999572753906 C20.700000762939453,17.347999572753906 21.0939998626709,4.730999946594238 21.0939998626709,4.730999946594238z"></path></g><g opacity="1" transform="matrix(1,0,0,1,38.59400177001953,47.861000061035156)"><path stroke-linecap="round" stroke-linejoin="round" fill-opacity="0" stroke="rgb(19,17,21)" stroke-opacity="1" stroke-width="7" d=" M21.0939998626709,4.730999946594238 C21.0939998626709,4.730999946594238 16.756999969482422,-5.914999961853027 6.900000095367432,-15.378000259399414 C-2.9579999446868896,-24.840999603271484 -10.055000305175781,-30.360000610351562 -11.23799991607666,-24.44499969482422 C-12.420999526977539,-18.5310001373291 -11.237000465393066,-4.336999893188477 -13.208000183105469,0.39500001072883606 C-15.180000305175781,5.125999927520752 -21.094999313354492,23.26300048828125 -17.54599952697754,26.81100082397461 C-13.998000144958496,30.360000610351562 20.700000762939453,17.347999572753906 20.700000762939453,17.347999572753906 C20.700000762939453,17.347999572753906 21.0939998626709,4.730999946594238 21.0939998626709,4.730999946594238z"></path></g><g opacity="1" transform="matrix(1,0,0,1,91.38099670410156,76.11299896240234)"><path fill="rgb(34,31,40)" fill-opacity="1" d=" M-19.44700050354004,-19.145999908447266 C-19.44700050354004,-19.145999908447266 6.197000026702881,-21.996000289916992 16.027999877929688,-23.625999450683594 C25.857999801635742,-25.2549991607666 30.131999969482422,-26.06999969482422 29.704999923706055,-22.81100082397461 C29.277000427246094,-19.552000045776367 13.463000297546387,-4.072999954223633 7.052000045776367,0.8149999976158142 C0.640999972820282,5.703000068664551 -8.76200008392334,26.06999969482422 -13.463000297546387,24.440000534057617 C-18.165000915527344,22.81100082397461 -25.003000259399414,-4.480000019073486 -27.56800079345703,-8.147000312805176 C-30.131999969482422,-11.812999725341797 -19.44700050354004,-19.145999908447266 -19.44700050354004,-19.145999908447266z"></path></g><g opacity="1" transform="matrix(1,0,0,1,91.38099670410156,76.11299896240234)"><path stroke-linecap="round" stroke-linejoin="round" fill-opacity="0" stroke="rgb(19,17,21)" stroke-opacity="1" stroke-width="7.408" d=" M-19.44700050354004,-19.145999908447266 C-19.44700050354004,-19.145999908447266 6.197000026702881,-21.996000289916992 16.027999877929688,-23.625999450683594 C25.857999801635742,-25.2549991607666 30.131999969482422,-26.06999969482422 29.704999923706055,-22.81100082397461 C29.277000427246094,-19.552000045776367 13.463000297546387,-4.072999954223633 7.052000045776367,0.8149999976158142 C0.640999972820282,5.703000068664551 -8.76200008392334,26.06999969482422 -13.463000297546387,24.440000534057617 C-18.165000915527344,22.81100082397461 -25.003000259399414,-4.480000019073486 -27.56800079345703,-8.147000312805176 C-30.131999969482422,-11.812999725341797 -19.44700050354004,-19.145999908447266 -19.44700050354004,-19.145999908447266z"></path></g><g opacity="1" transform="matrix(1,0,0,1,59.86399841308594,59.941001892089844)"><path fill="rgb(34,31,40)" fill-opacity="1" d=" M-1.3799999952316284,-13.321000099182129 C-4.019000053405762,-12.845000267028809 -5.322999954223633,-10.954999923706055 -7.058000087738037,-7.122000217437744 C-8.468999862670898,-4.00600004196167 -11.095000267028809,0.14300000667572021 -12.026000022888184,3.632999897003174 C-13.602999687194824,9.54800033569336 -6.50600004196167,11.519000053405762 -0.5910000205039978,12.70199966430664 C5.322999954223633,13.885000228881836 9.65999984741211,2.4509999752044678 11.631999969482422,-2.2809998989105225 C13.602999687194824,-7.01200008392334 12.026000022888184,-9.378000259399414 8.47700023651123,-11.350000381469727 C6.453000068664551,-12.473999977111816 1.7489999532699585,-13.885000228881836 -1.3799999952316284,-13.321000099182129z"></path></g><g opacity="1" transform="matrix(1,0,0,1,59.86399841308594,59.941001892089844)"><path stroke-linecap="round" stroke-linejoin="round" fill-opacity="0" stroke="rgb(19,17,21)" stroke-opacity="1" stroke-width="7" d=" M-1.3799999952316284,-13.321000099182129 C-4.019000053405762,-12.845000267028809 -5.322999954223633,-10.954999923706055 -7.058000087738037,-7.122000217437744 C-8.468999862670898,-4.00600004196167 -11.095000267028809,0.14300000667572021 -12.026000022888184,3.632999897003174 C-13.602999687194824,9.54800033569336 -6.50600004196167,11.519000053405762 -0.5910000205039978,12.70199966430664 C5.322999954223633,13.885000228881836 9.65999984741211,2.4509999752044678 11.631999969482422,-2.2809998989105225 C13.602999687194824,-7.01200008392334 12.026000022888184,-9.378000259399414 8.47700023651123,-11.350000381469727 C6.453000068664551,-12.473999977111816 1.7489999532699585,-13.885000228881836 -1.3799999952316284,-13.321000099182129z"></path></g><g opacity="1" transform="matrix(1,0,0,1,38.70199966430664,46.56800079345703)"><path fill="rgb(63,57,81)" fill-opacity="1" d=" M14.847999572753906,0.953000009059906 C14.847999572753906,0.953000009059906 -4.494999885559082,-21.38599967956543 -7.218999862670898,-20.569000244140625 C-9.944000244140625,-19.750999450683594 -6.947000026702881,-3.9509999752044678 -7.763999938964844,-0.4090000092983246 C-8.581999778747559,3.132999897003174 -14.847999572753906,17.299999237060547 -14.029999732971191,19.207000732421875 C-13.213000297546387,21.11400032043457 -13.486000061035156,21.386999130249023 -13.486000061035156,21.386999130249023 C-13.486000061035156,21.386999130249023 -4.76800012588501,7.764999866485596 -3.677999973297119,2.8610000610351562 C-2.5880000591278076,-2.0429999828338623 -3.132999897003174,-7.763999938964844 -1.2259999513626099,-6.673999786376953 C0.6809999942779541,-5.585000038146973 12.940999984741211,2.315999984741211 12.940999984741211,2.315999984741211 C12.940999984741211,2.315999984741211 14.847999572753906,0.953000009059906 14.847999572753906,0.953000009059906z"></path></g><g opacity="1" transform="matrix(1,0,0,1,77.35299682617188,70.40599822998047)"><path fill="rgb(19,17,21)" fill-opacity="1" d=" M-4.186999797821045,-6.265999794006348 C-4.186999797821045,-6.265999794006348 11.543000221252441,-5.1020002365112305 10.79699993133545,-1.906999945640564 C8.890000343322754,6.265999794006348 -5.985000133514404,-3.2149999141693115 -6.910999774932861,-3.5420000553131104 C-11.543000221252441,-5.176000118255615 -4.186999797821045,-6.265999794006348 -4.186999797821045,-6.265999794006348z"></path></g></g></g><g style="display: block;" transform="matrix(1.1133946180343628,0.07723128795623779,-0.07723128795623779,1.1133946180343628,166.60108947753906,331.0174255371094)" opacity="1"><g opacity="1" transform="matrix(1,0,0,1,86.59700012207031,75.33399963378906)"><path fill="rgb(255,200,164)" fill-opacity="1" d=" M23.511999130249023,33.472999572753906 C23.93199920654297,26.75200080871582 26.274999618530273,26.32200050354004 22.83099937438965,19.85099983215332 C18.336000442504883,11.406000137329102 8.427000045776367,-6.8979997634887695 4.388000011444092,-17.736000061035156 C-3.122999906539917,-37.888999938964844 -7.9670000076293945,-50.80099868774414 -17.625999450683594,-47.03200149536133 C-23.886999130249023,-44.5890007019043 -26.274999618530273,-16.47599983215332 -24.594999313354492,-8.074999809265137 C-22.915000915527344,0.32600000500679016 -23.7549991607666,15.869000434875488 -21.235000610351562,25.950000762939453 C-18.714000701904297,36.03099822998047 -18.17099952697754,44.50600051879883 -5.093999862670898,48.31999969482422 C3.4119999408721924,50.80099868774414 18.15399932861328,48.229000091552734 19.833999633789062,46.54899978637695 C20.43199920654297,45.95100021362305 23.340999603271484,36.20800018310547 23.511999130249023,33.472999572753906z"></path><path stroke-linecap="round" stroke-linejoin="round" fill-opacity="0" stroke="rgb(181,95,48)" stroke-opacity="1" stroke-width="9" d=" M23.511999130249023,33.472999572753906 C23.93199920654297,26.75200080871582 26.274999618530273,26.32200050354004 22.83099937438965,19.85099983215332 C18.336000442504883,11.406000137329102 8.427000045776367,-6.8979997634887695 4.388000011444092,-17.736000061035156 C-3.122999906539917,-37.888999938964844 -7.9670000076293945,-50.80099868774414 -17.625999450683594,-47.03200149536133 C-23.886999130249023,-44.5890007019043 -26.274999618530273,-16.47599983215332 -24.594999313354492,-8.074999809265137 C-22.915000915527344,0.32600000500679016 -23.7549991607666,15.869000434875488 -21.235000610351562,25.950000762939453 C-18.714000701904297,36.03099822998047 -18.17099952697754,44.50600051879883 -5.093999862670898,48.31999969482422 C3.4119999408721924,50.80099868774414 18.15399932861328,48.229000091552734 19.833999633789062,46.54899978637695 C20.43199920654297,45.95100021362305 23.340999603271484,36.20800018310547 23.511999130249023,33.472999572753906z"></path></g><g opacity="1" transform="matrix(1,0,0,1,46.61000061035156,74.98400115966797)"><path fill="rgb(255,200,163)" fill-opacity="1" d=" M-21.364999771118164,33.41299819946289 C-24.110000610351562,28.13599967956543 -21.944000244140625,22.260000228881836 -18.23200035095215,17.613000869750977 C-15.96500015258789,14.774999618530273 -12.557999610900879,11.28499984741211 -11.491000175476074,6.557000160217285 C-8.550000190734863,-6.464000225067139 -1.7170000076293945,-36.56399917602539 0.45100000500679016,-41.98400115966797 C4.6519999504089355,-52.48500061035156 9.692000389099121,-47.86399841308594 14.732999801635742,-44.50299835205078 C19.77400016784668,-41.143001556396484 19.17300033569336,-6.464000225067139 20.01300048828125,0.25600001215934753 C20.85300064086914,6.9770002365112305 24.110000610351562,35.45100021362305 18.753000259399414,41.84000015258789 C9.829000473022461,52.48400115966797 -4.339000225067139,49.9640007019043 -9.78600025177002,48.262001037597656 C-14.145000457763672,46.900001525878906 -17.746000289916992,40.36899948120117 -21.364999771118164,33.41299819946289z"></path><path stroke-linecap="round" stroke-linejoin="round" fill-opacity="0" stroke="rgb(181,95,48)" stroke-opacity="1" stroke-width="9" d=" M-21.364999771118164,33.41299819946289 C-24.110000610351562,28.13599967956543 -21.944000244140625,22.260000228881836 -18.23200035095215,17.613000869750977 C-15.96500015258789,14.774999618530273 -12.557999610900879,11.28499984741211 -11.491000175476074,6.557000160217285 C-8.550000190734863,-6.464000225067139 -1.7170000076293945,-36.56399917602539 0.45100000500679016,-41.98400115966797 C4.6519999504089355,-52.48500061035156 9.692000389099121,-47.86399841308594 14.732999801635742,-44.50299835205078 C19.77400016784668,-41.143001556396484 19.17300033569336,-6.464000225067139 20.01300048828125,0.25600001215934753 C20.85300064086914,6.9770002365112305 24.110000610351562,35.45100021362305 18.753000259399414,41.84000015258789 C9.829000473022461,52.48400115966797 -4.339000225067139,49.9640007019043 -9.78600025177002,48.262001037597656 C-14.145000457763672,46.900001525878906 -17.746000289916992,40.36899948120117 -21.364999771118164,33.41299819946289z"></path></g><g opacity="1" transform="matrix(1,0,0,1,56.12699890136719,65.0469970703125)"><path stroke-linecap="round" stroke-linejoin="round" fill-opacity="0" stroke="rgb(181,95,48)" stroke-opacity="1" stroke-width="7" d=" M6.306000232696533,-19.854999542236328 C6.306000232696533,-19.854999542236328 -2.0950000286102295,-18.174999237060547 -2.515000104904175,-14.814000129699707 C-2.934999942779541,-11.454000473022461 -5.466000080108643,11.87399959564209 -5.466000080108643,13.975000381469727 C-5.466000080108643,16.075000762939453 -6.306000232696533,19.854999542236328 -6.306000232696533,19.854999542236328"></path></g><g opacity="1" transform="matrix(1,0,0,1,76.40799713134766,62.696998596191406)"><path stroke-linecap="round" stroke-linejoin="round" fill-opacity="0" stroke="rgb(181,95,48)" stroke-opacity="1" stroke-width="8" d=" M-7.436999797821045,-19.68400001525879 C-7.436999797821045,-19.68400001525879 -2.3959999084472656,-17.163999557495117 -1.1360000371932983,-12.123000144958496 C0.12399999797344208,-7.083000183105469 2.680000066757202,9.16100025177002 3.940000057220459,12.10099983215332 C5.199999809265137,15.041000366210938 7.436999797821045,19.68400001525879 7.436999797821045,19.68400001525879"></path></g><g opacity="1" transform="matrix(1,0,0,1,48.49300003051758,86.33100128173828)"><path fill="rgb(228,154,104)" fill-opacity="1" d=" M12.668999671936035,-14.076000213623047 C12.668999671936035,-14.076000213623047 12.409000396728516,6.24399995803833 9.866000175476074,12.782999992370605 C7.322999954223633,19.320999145507812 0.8550000190734863,22.06999969482422 -2.115999937057495,22.91200065612793 C-7.445000171661377,24.42300033569336 -16.35300064086914,23.000999450683594 -17.07900047302246,23.000999450683594 C-17.805999755859375,23.000999450683594 -15.484000205993652,26.97100067138672 -14.576000213623047,28.243000030517578 C-13.668000221252441,29.513999938964844 -12.395999908447266,31.694000244140625 -11.48799991607666,32.237998962402344 C-10.579999923706055,32.78300094604492 1.406999945640564,35.87099838256836 9.217000007629395,32.05699920654297 C17.027000427246094,28.243000030517578 15.756999969482422,17.163999557495117 15.937999725341797,11.895999908447266 C16.1200008392334,6.629000186920166 12.972999572753906,-29.520000457763672 12.791000366210938,-31.155000686645508 C12.609999656677246,-32.78900146484375 13.467000007629395,-33.60499954223633 12.739999771118164,-33.60499954223633 C12.013999938964844,-33.60499954223633 12.668999671936035,-14.076000213623047 12.668999671936035,-14.076000213623047z"></path></g><g opacity="1" transform="matrix(1,0,0,1,86.67900085449219,88.10099792480469)"><path fill="rgb(229,154,104)" fill-opacity="1" d=" M-16.34600067138672,-34.4640007019043 C-16.34600067138672,-34.4640007019043 -13.621999740600586,-27.381000518798828 -13.348999977111816,-20.024999618530273 C-13.07699966430664,-12.668999671936035 -8.895999908447266,13.70300006866455 -5.625999927520752,16.427000045776367 C-2.3570001125335693,19.152000427246094 4.923999786376953,21.844999313354492 8.46500015258789,21.844999313354492 C12.006999969482422,21.844999313354492 19.197999954223633,19.777999877929688 19.197999954223633,19.777999877929688 C19.197999954223633,19.777999877929688 17.163999557495117,30.104000091552734 16.347000122070312,30.375999450683594 C15.529000282287598,30.64900016784668 1.090000033378601,34.4630012512207 -8.444999694824219,30.375999450683594 C-17.981000900268555,26.290000915527344 -13.348999977111816,17.299999237060547 -13.894000053405762,10.76200008392334 C-14.439000129699707,4.2230000495910645 -16.618000030517578,-21.659000396728516 -16.618000030517578,-22.749000549316406 C-16.618000030517578,-23.839000701904297 -16.34600067138672,-34.4640007019043 -16.34600067138672,-34.4640007019043z"></path></g><g opacity="1" transform="matrix(1,0,0,1,0,0)"><path stroke-linecap="round" stroke-linejoin="round" fill-opacity="0" stroke="rgb(181,95,48)" stroke-opacity="1" stroke-width="8" d=" M94.56800079345703,66.94499969482422 C94.56800079345703,66.94499969482422 88.47699737548828,49.98099899291992 85.14399719238281,43.40399932861328 C81.73300170898438,36.67300033569336 80.10399627685547,27.996999740600586 72.66400146484375,28.15399932861328 C64.61599731445312,28.323999404907227 65.08699798583984,37.387001037597656 65.08699798583984,37.387001037597656"></path></g><g opacity="1" transform="matrix(1,0,0,1,0,0)"><path stroke-linecap="round" stroke-linejoin="round" fill-opacity="0" stroke="rgb(181,95,48)" stroke-opacity="1" stroke-width="7" d=" M61.827999114990234,32.36199951171875 C61.827999114990234,32.36199951171875 61.012001037597656,26.288999557495117 52.9900016784668,28.222000122070312 C48.34700012207031,29.340999603271484 44.54399871826172,42.62300109863281 41.78900146484375,52.49599838256836 C38.96900177001953,62.604000091552734 36.05400085449219,76.40599822998047 36.05400085449219,76.40599822998047"></path></g></g><g style="display: block;" transform="matrix(1,0,0,1,256,256)" opacity="1"></g></g><g style="display: block;" transform="matrix(1,0,0,1,256,256)" opacity="1"></g></g></svg>