<svg xmlns="http://www.w3.org/2000/svg" xmlns:xlink="http://www.w3.org/1999/xlink" viewBox="0 0 512 512" width="512" height="512" style="width: 100%; height: 100%; transform: translate3d(0,0,0); content-visibility: visible;" preserveAspectRatio="xMidYMid meet"><defs><clipPath id="__lottie_element_2"><rect width="512" height="512" x="0" y="0"></rect></clipPath><radialGradient id="__lottie_element_8" spreadMethod="pad" gradientUnits="userSpaceOnUse" cx="209.5570068359375" cy="-250.8489990234375" r="575.3243519535804" fx="209.5570068359375" fy="-250.8489990234375"><stop offset="22%" stop-color="rgb(249,228,212)"></stop><stop offset="50%" stop-color="rgb(250,211,183)"></stop><stop offset="100%" stop-color="rgb(252,195,153)"></stop></radialGradient><radialGradient id="__lottie_element_15" spreadMethod="pad" gradientUnits="userSpaceOnUse" cx="81.33999633789062" cy="-95.72100067138672" r="252.12887875048267" fx="81.33999633789062" fy="-95.72100067138672"><stop offset="22%" stop-color="rgb(249,228,212)"></stop><stop offset="50%" stop-color="rgb(250,211,183)"></stop><stop offset="100%" stop-color="rgb(252,195,153)"></stop></radialGradient><radialGradient id="__lottie_element_16" spreadMethod="pad" gradientUnits="userSpaceOnUse" cx="51.85499954223633" cy="-84.43099975585938" r="187.4938267402811" fx="51.85499954223633" fy="-84.43099975585938"><stop offset="22%" stop-color="rgb(249,228,212)"></stop><stop offset="50%" stop-color="rgb(250,211,183)"></stop><stop offset="100%" stop-color="rgb(252,195,153)"></stop></radialGradient><radialGradient id="__lottie_element_23" spreadMethod="pad" gradientUnits="userSpaceOnUse" cx="417.64801025390625" cy="-58.505001068115234" r="495.43322317900777" fx="417.64801025390625" fy="-58.505001068115234"><stop offset="22%" stop-color="rgb(249,228,212)"></stop><stop offset="50%" stop-color="rgb(250,211,183)"></stop><stop offset="100%" stop-color="rgb(252,195,153)"></stop></radialGradient><radialGradient id="__lottie_element_27" spreadMethod="pad" gradientUnits="userSpaceOnUse" cx="-94.52100372314453" cy="-275" r="404.9172610993943" fx="-94.52100372314453" fy="-275"><stop offset="22%" stop-color="rgb(194,149,76)"></stop><stop offset="50%" stop-color="rgb(176,127,61)"></stop><stop offset="100%" stop-color="rgb(158,105,47)"></stop></radialGradient></defs><g clip-path="url(#__lottie_element_2)"><g style="display: block;" transform="matrix(1.0000007152557373,0,0,1.0000007152557373,256.0000915527344,256.0001220703125)" opacity="1"><g opacity="1" transform="matrix(1,0,0,1,0,0)"><path fill="url(#__lottie_element_8)" fill-opacity="1" d=" M-11.0649995803833,-195.00799560546875 C-11.0649995803833,-195.00799560546875 -54.06100082397461,-192.2239990234375 -92.93900299072266,-156.16000366210938 C-131.81700134277344,-120.09600067138672 -133.16200256347656,-63.861000061035156 -142.61700439453125,-50.38600158691406 C-152.07200622558594,-36.9109992980957 -183.0050048828125,39.415000915527344 -168.37899780273438,134.63900756835938 C-153.7530059814453,229.86300659179688 -97.9280014038086,236.2270050048828 -42.20600128173828,211.98199462890625 C13.515999794006348,187.73699951171875 74.56999969482422,129.16400146484375 107.29499816894531,78.22599792480469 C140.02000427246094,27.288000106811523 192.40499877929688,-119.46099853515625 122.6259994506836,-156.86000061035156 C52.84700012207031,-194.25900268554688 -11.0649995803833,-195.00799560546875 -11.0649995803833,-195.00799560546875z"></path><path stroke-linecap="butt" stroke-linejoin="miter" fill-opacity="0" stroke-miterlimit="10" stroke="rgb(186,101,72)" stroke-opacity="1" stroke-width="15.296" d=" M-11.0649995803833,-195.00799560546875 C-11.0649995803833,-195.00799560546875 -54.06100082397461,-192.2239990234375 -92.93900299072266,-156.16000366210938 C-131.81700134277344,-120.09600067138672 -133.16200256347656,-63.861000061035156 -142.61700439453125,-50.38600158691406 C-152.07200622558594,-36.9109992980957 -183.0050048828125,39.415000915527344 -168.37899780273438,134.63900756835938 C-153.7530059814453,229.86300659179688 -97.9280014038086,236.2270050048828 -42.20600128173828,211.98199462890625 C13.515999794006348,187.73699951171875 74.56999969482422,129.16400146484375 107.29499816894531,78.22599792480469 C140.02000427246094,27.288000106811523 192.40499877929688,-119.46099853515625 122.6259994506836,-156.86000061035156 C52.84700012207031,-194.25900268554688 -11.0649995803833,-195.00799560546875 -11.0649995803833,-195.00799560546875z"></path></g><g opacity="0.8" transform="matrix(1,0,0,1,0,0)"><path fill="rgb(224,155,121)" fill-opacity="1" d=" M-157.2689971923828,126.64099884033203 C-157.2689971923828,126.64099884033203 -144.51800537109375,188.22999572753906 -101.2040023803711,190.01699829101562 C-17.33099937438965,193.4770050048828 64.125,126.2229995727539 64.125,126.2229995727539 C64.125,126.2229995727539 -31.95199966430664,223.55299377441406 -94.19300079345703,218.95799255371094 C-169.0780029296875,213.42999267578125 -157.2689971923828,126.64099884033203 -157.2689971923828,126.64099884033203z"></path></g><g opacity="1" transform="matrix(1,0,0,1,0,0)"><path stroke-linecap="round" stroke-linejoin="round" fill-opacity="0" stroke="rgb(198,122,96)" stroke-opacity="1" stroke-width="13.658" d=" M-132.9429931640625,176.13999938964844 C-108.3949966430664,211.02099609375 -74.3280029296875,192.26699829101562 -74.3280029296875,192.26699829101562"></path></g></g><g style="display: block;" transform="matrix(1.0000007152557373,0,0,1.0000007152557373,253.999755859375,252.00022888183594)" opacity="1"><g opacity="1" transform="matrix(1,0,0,1,0,0)"><path fill="rgb(255,255,255)" fill-opacity="1" d=" M46.1510009765625,-6.10099983215332 C54.875,-4.5929999351501465 61.76300048828125,-13.373000144958496 58.28799819946289,-21.516000747680664 C53.5629997253418,-32.590999603271484 46.65599822998047,-46.125 38.4119987487793,-54.375 C22.586000442504883,-70.21199798583984 5.7170000076293945,-70.03500366210938 -2.938999891281128,-57.18000030517578 C-11.595000267028809,-44.32500076293945 -15.737000465393066,-30.121000289916992 -1.1009999513626099,-19.851999282836914 C7.701000213623047,-13.675999641418457 29.874000549316406,-8.914999961853027 46.1510009765625,-6.10099983215332z"></path></g><g opacity="1" transform="matrix(1,0,0,1,0,0)"><path fill="rgb(255,255,255)" fill-opacity="1" d=" M-118.73200225830078,-71.12200164794922 C-116.75,-83.4749984741211 -108.55999755859375,-98.60099792480469 -85.63899993896484,-98.5510025024414 C-62.71799850463867,-98.5009994506836 -55.74800109863281,-81.95099639892578 -62.167999267578125,-66.05000305175781 C-68.58799743652344,-50.14899826049805 -90.45600128173828,-52.73899841308594 -106.8489990234375,-55.861000061035156 C-123.24199676513672,-58.983001708984375 -119.49800109863281,-66.3479995727539 -118.73200225830078,-71.12200164794922z"></path></g><g opacity="1" transform="matrix(1,0,0,1,0,0)"><g opacity="1" transform="matrix(1,0,0,1,0,0)"><path fill="rgb(15,15,15)" fill-opacity="1" d=" M21.75,-29.25 C15.25,-13 52,1 56,-19.5 C60,-40 28.25,-45.5 21.75,-29.25z"></path></g><g opacity="1" transform="matrix(1,0,0,1,0,0)"><path fill="rgb(255,255,255)" fill-opacity="1" d=" M27.684999465942383,-31.339000701904297 C27.60099983215332,-30.775999069213867 22.51099967956543,-26.222000122070312 18.91699981689453,-26.759000778198242 C14.550000190734863,-27.410999298095703 11.395000457763672,-30.518999099731445 11.869999885559082,-33.70100021362305 C12.345000267028809,-36.882999420166016 16.270999908447266,-38.93299865722656 20.63800048828125,-38.28099822998047 C25.0049991607666,-37.62900161743164 28.15999984741211,-34.520999908447266 27.684999465942383,-31.339000701904297z"></path></g></g><g opacity="1" transform="matrix(1,0,0,1,0,0)"><g opacity="1" transform="matrix(1,0,0,1,0,0)"><path fill="rgb(15,15,15)" fill-opacity="1" d=" M-93.25,-90 C-99.75,-73.75 -63,-59.75 -59,-80.25 C-55,-100.75 -86.75,-106.25 -93.25,-90z"></path></g><g opacity="1" transform="matrix(1,0,0,1,0,0)"><path fill="rgb(255,255,255)" fill-opacity="1" d=" M-82.3550033569336,-76.06099700927734 C-82.64299774169922,-73.14600372314453 -85.23899841308594,-71.01699829101562 -88.15399932861328,-71.30500030517578 C-91.06900024414062,-71.59300231933594 -93.1989974975586,-74.18900299072266 -92.91100311279297,-77.10399627685547 C-92.62300109863281,-80.01899719238281 -90.0260009765625,-82.14800262451172 -87.11100006103516,-81.86000061035156 C-84.19599914550781,-81.5719985961914 -82.06700134277344,-78.97599792480469 -82.3550033569336,-76.06099700927734z"></path></g></g><g opacity="1" transform="matrix(1,0,0,1,0,0)"><path stroke-linecap="round" stroke-linejoin="round" fill-opacity="0" stroke="rgb(122,59,46)" stroke-opacity="1" stroke-width="10.926" d=" M-118.73200225830078,-71.12200164794922 C-114.99600219726562,-81.1969985961914 -108.55999755859375,-98.60099792480469 -85.63899993896484,-98.5510025024414 C-62.71799850463867,-98.5009994506836 -55.74800109863281,-81.95099639892578 -62.167999267578125,-66.05000305175781 C-68.58799743652344,-50.14899826049805 -90.45600128173828,-52.73899841308594 -106.8489990234375,-55.861000061035156 C-123.24199676513672,-58.983001708984375 -120.41300201416016,-66.58799743652344 -118.73200225830078,-71.12200164794922z"></path></g><g opacity="1" transform="matrix(1,0,0,1,0,0)"><path stroke-linecap="round" stroke-linejoin="round" fill-opacity="0" stroke="rgb(122,59,46)" stroke-opacity="1" stroke-width="10.926" d=" M54.93600082397461,-10.373000144958496 C66.63200378417969,-24.158000946044922 46.65599822998047,-46.125 38.4119987487793,-54.375 C22.586000442504883,-70.21199798583984 5.7170000076293945,-70.03500366210938 -2.938999891281128,-57.18000030517578 C-11.595000267028809,-44.32500076293945 -15.737000465393066,-30.121000289916992 -1.1009999513626099,-19.851999282836914 C7.701000213623047,-13.675999641418457 45.55400085449219,0.6840000152587891 54.93600082397461,-10.373000144958496z"></path></g><g opacity="1" transform="matrix(1,0,0,1,0,0)"><path stroke-linecap="round" stroke-linejoin="round" fill-opacity="0" stroke="rgb(216,139,108)" stroke-opacity="1" stroke-width="12.65" d=" M-20.756000518798828,-18.576000213623047 C-23.520000457763672,3.0299999713897705 -7.406000137329102,10.302000045776367 -7.406000137329102,10.302000045776367"></path></g></g><g style="display: block;" transform="matrix(1.0000007152557373,0,0,1.0000007152557373,256.0000915527344,256.0001220703125)" opacity="1"><g opacity="1" transform="matrix(1,0,0,1,0,0)"><path fill="url(#__lottie_element_27)" fill-opacity="1" d=" M-41.13100051879883,-179.38900756835938 C-36.012001037597656,-180.07899475097656 -50.10599899291992,-152.36099243164062 -30.726999282836914,-136.8979949951172 C-29.253000259399414,-172.30299377441406 6.248000144958496,-139.58200073242188 37.20100021362305,-122.55599975585938 C68.15399932861328,-105.52999877929688 135.5959930419922,-109.98999786376953 138.11500549316406,-105.10099792480469 C145.802001953125,-67.79499816894531 107.40799713134766,-57.65999984741211 103.88899993896484,-41.198001861572266 C99.14199829101562,-18.993000030517578 123.38099670410156,-11.744000434875488 123.38099670410156,-11.744000434875488 C123.38099670410156,-11.744000434875488 88.77200317382812,-14.133000373840332 53.5880012512207,34.374000549316406 C51.18199920654297,37.691001892089844 87,31 82.44599914550781,77.24299621582031 C84.5,84.5 106.51699829101562,73.56999969482422 114.51300048828125,82.6510009765625 C143,115 180.39500427246094,83.58799743652344 180.39500427246094,83.58799743652344 C180.39500427246094,83.58799743652344 146.73399353027344,83.125 158.23599243164062,47.625999450683594 C169.73800659179688,12.126999855041504 229.5,-30.5 196.6529998779297,-127.81199645996094 C203,-129 221.71200561523438,-127.61900329589844 224.16000366210938,-139.52000427246094 C226.60800170898438,-151.42100524902344 190.60800170898438,-143.28799438476562 190.60800170898438,-143.28799438476562 C190.60800170898438,-143.28799438476562 206.87600708007812,-168.33399963378906 196.5399932861328,-179.60899353027344 C185.88299560546875,-191.23500061035156 176.91600036621094,-159.59800720214844 176.91600036621094,-159.59800720214844 C165.0679931640625,-203.75900268554688 59.6349983215332,-250.40699768066406 2.3480000495910645,-208.8730010986328 C0.5,-219.5 -11,-231 -35.827999114990234,-225.45599365234375 C-58.01300048828125,-220.5019989013672 -70,-183 -94.39700317382812,-221.4550018310547 C-103.39199829101562,-173.2530059814453 -137.60899353027344,-183.70899963378906 -150.46400451660156,-149.1909942626953 C-157.54200744628906,-130.18499755859375 -136.5,-122.5 -142.73800659179688,-97.38700103759766 C-146.73399353027344,-81.3010025024414 -176.3820037841797,-77.00700378417969 -176.3820037841797,-77.00700378417969 C-176.3820037841797,-77.00700378417969 -165.9459991455078,-60.40800094604492 -146.6580047607422,-60.137001037597656 C-127.6240005493164,-59.869998931884766 -112.12100219726562,-173.9720001220703 -41.13100051879883,-179.38900756835938z"></path><path stroke-linecap="round" stroke-linejoin="round" fill-opacity="0" stroke="rgb(104,69,46)" stroke-opacity="1" stroke-width="14.173" d=" M-41.13100051879883,-179.38900756835938 C-36.012001037597656,-180.07899475097656 -50.10599899291992,-152.36099243164062 -30.726999282836914,-136.8979949951172 C-29.253000259399414,-172.30299377441406 6.248000144958496,-139.58200073242188 37.20100021362305,-122.55599975585938 C68.15399932861328,-105.52999877929688 135.5959930419922,-109.98999786376953 138.11500549316406,-105.10099792480469 C145.802001953125,-67.79499816894531 107.40799713134766,-57.65999984741211 103.88899993896484,-41.198001861572266 C99.14199829101562,-18.993000030517578 123.38099670410156,-11.744000434875488 123.38099670410156,-11.744000434875488 C123.38099670410156,-11.744000434875488 88.77200317382812,-14.133000373840332 53.5880012512207,34.374000549316406 C51.18199920654297,37.691001892089844 87,31 82.44599914550781,77.24299621582031 C84.5,84.5 106.51699829101562,73.56999969482422 114.51300048828125,82.6510009765625 C143,115 180.39500427246094,83.58799743652344 180.39500427246094,83.58799743652344 C180.39500427246094,83.58799743652344 146.73399353027344,83.125 158.23599243164062,47.625999450683594 C169.73800659179688,12.126999855041504 229.5,-30.5 196.6529998779297,-127.81199645996094 C203,-129 221.71200561523438,-127.61900329589844 224.16000366210938,-139.52000427246094 C226.60800170898438,-151.42100524902344 190.60800170898438,-143.28799438476562 190.60800170898438,-143.28799438476562 C190.60800170898438,-143.28799438476562 206.87600708007812,-168.33399963378906 196.5399932861328,-179.60899353027344 C185.88299560546875,-191.23500061035156 176.91600036621094,-159.59800720214844 176.91600036621094,-159.59800720214844 C165.0679931640625,-203.75900268554688 59.6349983215332,-250.40699768066406 2.3480000495910645,-208.8730010986328 C0.5,-219.5 -11,-231 -35.827999114990234,-225.45599365234375 C-58.01300048828125,-220.5019989013672 -70,-183 -94.39700317382812,-221.4550018310547 C-103.39199829101562,-173.2530059814453 -137.60899353027344,-183.70899963378906 -150.46400451660156,-149.1909942626953 C-157.54200744628906,-130.18499755859375 -136.5,-122.5 -142.73800659179688,-97.38700103759766 C-146.73399353027344,-81.3010025024414 -176.3820037841797,-77.00700378417969 -176.3820037841797,-77.00700378417969 C-176.3820037841797,-77.00700378417969 -165.9459991455078,-60.40800094604492 -146.6580047607422,-60.137001037597656 C-127.6240005493164,-59.869998931884766 -112.12100219726562,-173.9720001220703 -41.13100051879883,-179.38900756835938z"></path></g><g opacity="1" transform="matrix(1,0,0,1,0,0)"><path fill="rgb(147,98,34)" fill-opacity="1" d=" M135.1820068359375,-66.322998046875 C135.1820068359375,-66.322998046875 166.54800415039062,-82.95600128173828 153.36900329589844,-121.93499755859375 C153.36900329589844,-121.93499755859375 61.551998138427734,-106.01599884033203 12.5,-157.96600341796875 C-5,-176.5 -21.125999450683594,-161.47799682617188 -21.125999450683594,-161.47799682617188 C-21.125999450683594,-161.47799682617188 11.232999801635742,-143.5970001220703 36.20500183105469,-129.51699829101562 C61.176998138427734,-115.43699645996094 96.97599792480469,-112.83499908447266 110.45099639892578,-112.41600036621094 C118.60700225830078,-112.16200256347656 141.36000061035156,-118.125 144.51800537109375,-105.91500091552734 C148.60499572753906,-90.11499786376953 135.1820068359375,-66.322998046875 135.1820068359375,-66.322998046875z"></path></g></g><g style="display: block;" transform="matrix(1.0000007152557373,0,0,1.0000007152557373,256.0000915527344,256.0001220703125)" opacity="1"><g opacity="1" transform="matrix(1,0,0,1,0,0)"><g opacity="1" transform="matrix(1,0,0,1,0,0)"><path fill="url(#__lottie_element_23)" fill-opacity="1" d=" M42.729000091552734,61.14699935913086 C42.729000091552734,61.14699935913086 87.37699890136719,41.689998626708984 100.04100036621094,62.808998107910156 C112.70500183105469,83.9280014038086 90.3479995727539,118.18800354003906 62.505001068115234,123.95600128173828 C34.6619987487793,129.7239990234375 25.76099967956543,110.40699768066406 25.76099967956543,110.40699768066406 C25.76099967956543,110.40699768066406 25.974000930786133,90.27999877929688 30.062999725341797,81.58599853515625 C34.152000427246094,72.89199829101562 42.729000091552734,61.14699935913086 42.729000091552734,61.14699935913086z"></path></g><g opacity="1" transform="matrix(1,0,0,1,0,0)"><path stroke-linecap="round" stroke-linejoin="round" fill-opacity="0" stroke="rgb(186,101,72)" stroke-opacity="1" stroke-width="16.529" d=" M48.97100067138672,59.9630012512207 C48.97100067138672,59.9630012512207 84.67900085449219,37.6879997253418 103.10199737548828,60.08100128173828 C114.16999816894531,73.53500366210938 104.85600280761719,109.12200164794922 80.58399963378906,122.01599884033203 C54.060001373291016,136.1060028076172 38.986000061035156,112.62100219726562 38.986000061035156,112.62100219726562"></path></g><g opacity="1" transform="matrix(1,0,0,1,0,0)"><path stroke-linecap="round" stroke-linejoin="round" fill-opacity="0" stroke="rgb(186,101,72)" stroke-opacity="1" stroke-width="11.339" d=" M87.01100158691406,80.1520004272461 C84.59400177001953,63.145999908447266 42.03799819946289,80.57599639892578 63.106998443603516,102.77300262451172"></path></g></g></g><g style="display: block;" transform="matrix(1.0000007152557373,0,0,1.0000007152557373,253.99996948242188,252.0003204345703)" opacity="1"><g opacity="1" transform="matrix(1,0,0,1,0,0)"><path fill="rgb(109,47,36)" fill-opacity="1" d=" M-139.3070068359375,64.81700134277344 C-142.8070068359375,42.92499923706055 -133.3300018310547,26.791000366210938 -112.18199920654297,35.03499984741211 C-90.43299865722656,43.51300048828125 -75.4729995727539,46.698001861572266 -61.48699951171875,44.4640007019043 C-11.0649995803833,36.4119987487793 -56.138999938964844,145.7469940185547 -74.60399627685547,157.25599670410156 C-93.06900024414062,168.76499938964844 -96.74299621582031,151.27999877929688 -106.44599914550781,145.8679962158203 C-125.93900299072266,134.99600219726562 -135.1300048828125,144.18499755859375 -139.08200073242188,132.1230010986328 C-145.24000549316406,113.3290023803711 -134.37399291992188,95.677001953125 -139.3070068359375,64.81700134277344z"></path></g><g opacity="1" transform="matrix(1,0,0,1,0,0)"><path fill="rgb(255,255,255)" fill-opacity="1" d=" M-43.21099853515625,61.064998626708984 C-43.21099853515625,61.064998626708984 -57.11899948120117,72.2229995727539 -68.22100067138672,63.750999450683594 C-75.5250015258789,70.47000122070312 -91.59300231933594,71.05500030517578 -97.71900177001953,62.71900177001953 C-106.49199676513672,70.1780014038086 -121.0999984741211,64.33499908447266 -121.0999984741211,64.33499908447266 C-121.0999984741211,64.33499908447266 -127.16500091552734,66.56600189208984 -132.6699981689453,64.7699966430664 C-138.1750030517578,62.9739990234375 -138.4550018310547,50.387001037597656 -134.36900329589844,44.500999450683594 C-130.2830047607422,38.6150016784668 -126.6780014038086,34.80799865722656 -115.38300323486328,36.49399948120117 C-104.08799743652344,38.18000030517578 -83.41200256347656,52.06399917602539 -47.262001037597656,49.44300079345703 C-45.93000030517578,51.26599884033203 -43.21099853515625,61.064998626708984 -43.21099853515625,61.064998626708984z"></path></g><g opacity="1" transform="matrix(1,0,0,1,0,0)"><path fill="rgb(255,255,255)" fill-opacity="1" d=" M-43.21099853515625,61.064998626708984 C-43.21099853515625,61.064998626708984 -57.11899948120117,72.2229995727539 -68.22100067138672,63.750999450683594 C-75.5250015258789,70.47000122070312 -91.59300231933594,71.05500030517578 -97.71900177001953,62.71900177001953 C-106.49199676513672,70.1780014038086 -121.0999984741211,64.33499908447266 -121.0999984741211,64.33499908447266 C-121.0999984741211,64.33499908447266 -127.16500091552734,66.56600189208984 -132.6699981689453,64.7699966430664"></path><path stroke-linecap="round" stroke-linejoin="round" fill-opacity="0" stroke="rgb(123,173,198)" stroke-opacity="1" stroke-width="9.113" d=" M-43.21099853515625,61.064998626708984 C-43.21099853515625,61.064998626708984 -57.11899948120117,72.2229995727539 -68.22100067138672,63.750999450683594 C-75.5250015258789,70.47000122070312 -91.59300231933594,71.05500030517578 -97.71900177001953,62.71900177001953 C-106.49199676513672,70.1780014038086 -121.0999984741211,64.33499908447266 -121.0999984741211,64.33499908447266 C-121.0999984741211,64.33499908447266 -127.16500091552734,66.56600189208984 -132.6699981689453,64.7699966430664"></path></g><g opacity="0.47000000000000003" transform="matrix(1,0,0,1,0,0)"><path fill="rgb(255,255,255)" fill-opacity="1" d=" M-68.35399627685547,47.9630012512207 C-68.35399627685547,47.9630012512207 -72.3499984741211,56.88600158691406 -67.36399841308594,63.678001403808594"></path><path stroke-linecap="round" stroke-linejoin="round" fill-opacity="0" stroke="rgb(123,173,198)" stroke-opacity="1" stroke-width="9.113" d=" M-68.35399627685547,47.9630012512207 C-68.35399627685547,47.9630012512207 -72.3499984741211,56.88600158691406 -67.36399841308594,63.678001403808594"></path></g><g opacity="0.47000000000000003" transform="matrix(1,0,0,1,0,0)"><path fill="rgb(255,255,255)" fill-opacity="1" d=" M-98.20899963378906,46.840999603271484 C-98.20899963378906,46.840999603271484 -101.6780014038086,56.104000091552734 -97.22000122070312,62.55699920654297"></path><path stroke-linecap="round" stroke-linejoin="round" fill-opacity="0" stroke="rgb(123,173,198)" stroke-opacity="1" stroke-width="9.113" d=" M-98.20899963378906,46.840999603271484 C-98.20899963378906,46.840999603271484 -101.6780014038086,56.104000091552734 -97.22000122070312,62.55699920654297"></path></g><g opacity="0.47000000000000003" transform="matrix(1,0,0,1,0,0)"><path fill="rgb(255,255,255)" fill-opacity="1" d=" M-123.84400177001953,42.27299880981445 C-123.84400177001953,42.27299880981445 -128.0709991455078,54.566001892089844 -122.83300018310547,62.810001373291016"></path><path stroke-linecap="round" stroke-linejoin="round" fill-opacity="0" stroke="rgb(123,173,198)" stroke-opacity="1" stroke-width="9.113" d=" M-123.84400177001953,42.27299880981445 C-123.84400177001953,42.27299880981445 -128.0709991455078,54.566001892089844 -122.83300018310547,62.810001373291016"></path></g><g opacity="1" transform="matrix(1,0,0,1,0.492000013589859,0.9300000071525574)"><path stroke-linecap="round" stroke-linejoin="round" fill-opacity="0" stroke="rgb(216,139,108)" stroke-opacity="1" stroke-width="14.173" d=" M-2.1730000972747803,80.0530014038086 C-36.12900161743164,114.10900115966797 -31.52400016784668,154.6510009765625 -31.52400016784668,154.6510009765625"></path></g><g opacity="1" transform="matrix(1,0,0,1,0,0)"><path stroke-linecap="round" stroke-linejoin="round" fill-opacity="0" stroke="rgb(216,139,108)" stroke-opacity="1" stroke-width="14.173" d=" M-154.10899353027344,55.93899917602539 C-140.14300537109375,96.98200225830078 -152.16099548339844,130.447998046875 -152.16099548339844,130.447998046875"></path></g><g opacity="1" transform="matrix(1,0,0,1,0,0)"><path stroke-linecap="butt" stroke-linejoin="miter" fill-opacity="0" stroke-miterlimit="10" stroke="rgb(94,36,28)" stroke-opacity="1" stroke-width="12.292" d=" M-139.3070068359375,64.81700134277344 C-142.8070068359375,42.92499923706055 -133.3300018310547,26.791000366210938 -112.18199920654297,35.03499984741211 C-90.43299865722656,43.51300048828125 -75.4729995727539,46.698001861572266 -61.48699951171875,44.4640007019043 C-11.0649995803833,36.4119987487793 -56.138999938964844,145.7469940185547 -74.60399627685547,157.25599670410156 C-93.06900024414062,168.76499938964844 -96.74299621582031,151.27999877929688 -106.44599914550781,145.8679962158203 C-125.93900299072266,134.99600219726562 -135.1300048828125,144.18499755859375 -139.08200073242188,132.1230010986328 C-145.24000549316406,113.3290023803711 -134.37399291992188,95.677001953125 -139.3070068359375,64.81700134277344z"></path></g><g opacity="1" transform="matrix(1,0,0,1,0,0)"><g opacity="1" transform="matrix(1,0,0,1,0,0)"><path fill="rgb(249,83,115)" fill-opacity="1" d=" M-50.24399948120117,103.27300262451172 C-77.28199768066406,81.59500122070312 -93.6969985961914,88.11699676513672 -114.47100067138672,83.06700134277344 C-185.56100463867188,37.35599899291992 -240.18899536132812,138.60499572753906 -196.00399780273438,161.83900451660156 C-149.13600158691406,186.48399353027344 -130.83900451660156,132.17999267578125 -94.88400268554688,126.88899993896484 C-78.51000213623047,124.47899627685547 -59.654998779296875,135.49000549316406 -59.654998779296875,135.49000549316406"></path><path stroke-linecap="round" stroke-linejoin="round" fill-opacity="0" stroke="rgb(165,58,83)" stroke-opacity="1" stroke-width="13.658" d=" M-50.24399948120117,103.27300262451172 C-77.28199768066406,81.59500122070312 -93.6969985961914,88.11699676513672 -114.47100067138672,83.06700134277344 C-185.56100463867188,37.35599899291992 -240.18899536132812,138.60499572753906 -196.00399780273438,161.83900451660156 C-149.13600158691406,186.48399353027344 -130.83900451660156,132.17999267578125 -94.88400268554688,126.88899993896484 C-78.51000213623047,124.47899627685547 -59.654998779296875,135.49000549316406 -59.654998779296875,135.49000549316406"></path></g><g opacity="1" transform="matrix(1,0,0,1,0,0)"><path stroke-linecap="round" stroke-linejoin="round" fill-opacity="0" stroke="rgb(165,58,83)" stroke-opacity="1" stroke-width="13.658" d=" M-172.96600341796875,117.4229965209961 C-172.96600341796875,117.4229965209961 -153.45399475097656,86.17900085449219 -107.48100280761719,84.9530029296875"></path></g></g><g opacity="1" transform="matrix(1,0,0,1,0,0)"><path stroke-linecap="round" stroke-linejoin="round" fill-opacity="0" stroke="rgb(94,36,28)" stroke-opacity="1" stroke-width="12" d=" M-38.696998596191406,74.57099914550781 C-41.59199905395508,105.61399841308594 -63.18600082397461,150.13900756835938 -74.60399627685547,157.25599670410156 C-76.02999877929688,158.14500427246094 -77.36799621582031,158.86099243164062 -78.62699890136719,159.4219970703125"></path></g></g><g style="display: block;" transform="matrix(1.0000007152557373,0,0,1.0000007152557373,254.0004119873047,252.00064086914062)" opacity="1"><g opacity="1" transform="matrix(1,0,0,1,0,0)"><path fill="url(#__lottie_element_15)" fill-opacity="1" d=" M-43.215999603271484,-69.4540023803711 C-43.215999603271484,-69.4540023803711 -80.15799713134766,-62.97700119018555 -106.29399871826172,-45.790000915527344 C-132.42999267578125,-28.60300064086914 -131.4949951171875,-21.020000457763672 -126.97899627685547,-12.48900032043457 C-122.46299743652344,-3.9579999446868896 -140.2429962158203,-9.506999969482422 -142.13299560546875,5.923999786376953 C-144.0229949951172,21.354999542236328 -129.66700744628906,19.363000869750977 -129.66700744628906,19.363000869750977 C-129.66700744628906,19.363000869750977 -109.38700103759766,13.708000183105469 -91.18499755859375,16.424999237060547 C-72.98300170898438,19.142000198364258 -54.15299987792969,23.194000244140625 -47.22200012207031,15.545000076293945 C-40.29100036621094,7.895999908447266 -40.29600143432617,-0.37599998712539673 -45.23400115966797,-6.074999809265137 C-50.172000885009766,-11.77400016784668 -53.51100158691406,-14.34000015258789 -53.51100158691406,-14.34000015258789 C-53.51100158691406,-14.34000015258789 -36.176998138427734,-39.04399871826172 -34.5890007019043,-52.452999114990234 C-33.000999450683594,-65.86199951171875 -43.215999603271484,-69.4540023803711 -43.215999603271484,-69.4540023803711z"></path></g><g opacity="1" transform="matrix(1,0,0,1,0,0)"><path stroke-linecap="round" stroke-linejoin="round" fill-opacity="0" stroke="rgb(186,101,72)" stroke-opacity="1" stroke-width="13.658" d=" M-58.85499954223633,-9.576000213623047 C-40.979000091552734,-7.822999954223633 -41.231998443603516,20.738000869750977 -58.92900085449219,19.96500015258789"></path></g><g opacity="1" transform="matrix(1,0,0,1,0,0)"><path stroke-linecap="round" stroke-linejoin="round" fill-opacity="0" stroke="rgb(186,101,72)" stroke-opacity="1" stroke-width="10.926" d=" M-141.84100341796875,-0.08399999886751175 C-150.33200073242188,11.211000442504883 -143.53500366210938,25.81999969482422 -130.56100463867188,22.1200008392334"></path></g><g opacity="1" transform="matrix(1,0,0,1,0,0)"><path fill="rgb(119,48,31)" fill-opacity="1" d=" M-92.47599792480469,7.418000221252441 C-93.86100006103516,4.855000019073486 -92.322998046875,2.555999994277954 -86.52799987792969,1.0149999856948853 C-80.73300170898438,-0.5260000228881836 -73.18800354003906,-2.7090001106262207 -71.19200134277344,1.0479999780654907 C-69.19599914550781,4.804999828338623 -70.40499877929688,12.897000312805176 -79.1050033569336,14.756999969482422 C-87.80500030517578,16.617000579833984 -90.05899810791016,11.890999794006348 -92.47599792480469,7.418000221252441z"></path></g><g opacity="1" transform="matrix(1,0,0,1,0,0)"><path fill="rgb(119,48,31)" fill-opacity="1" d=" M-134.63900756835938,4.572999954223633 C-134.125,0.375 -120.32599639892578,1.784000039100647 -118.70899963378906,2.8239998817443848 C-116.12300109863281,4.486000061035156 -112.73699951171875,6.361999988555908 -113.7239990234375,11.791999816894531 C-114.71099853515625,17.222000122070312 -121.13500213623047,18.750999450683594 -128.56900024414062,15.274999618530273 C-133.30299377441406,13.060999870300293 -135.12399291992188,8.531999588012695 -134.63900756835938,4.572999954223633z"></path></g><g opacity="1" transform="matrix(1,0,0,1,0,0)"><path fill="url(#__lottie_element_16)" fill-opacity="1" d=" M-38.3129997253418,-70.125 C-38.3129997253418,-70.125 -80.15799713134766,-62.97700119018555 -106.29399871826172,-45.790000915527344 C-132.42999267578125,-28.60300064086914 -131.4949951171875,-21.020000457763672 -126.97899627685547,-12.48900032043457"></path><path stroke-linecap="round" stroke-linejoin="round" fill-opacity="0" stroke="rgb(186,101,72)" stroke-opacity="1" stroke-width="15.296" d=" M-38.3129997253418,-70.125 C-38.3129997253418,-70.125 -80.15799713134766,-62.97700119018555 -106.29399871826172,-45.790000915527344 C-132.42999267578125,-28.60300064086914 -131.4949951171875,-21.020000457763672 -126.97899627685547,-12.48900032043457"></path></g></g><g style="display: block;" transform="matrix(1.0000007152557373,0,0,1.0000007152557373,253.99996948242188,252.00042724609375)" opacity="1"><g opacity="1" transform="matrix(1,0,0,1,0,0)"><g opacity="1" transform="matrix(1,0,0,1,0,0)"><path stroke-linecap="round" stroke-linejoin="round" fill-opacity="0" stroke="rgb(130,89,56)" stroke-opacity="1" stroke-width="14.834" d=" M3.4519999027252197,-84.3489990234375 C58.244998931884766,-103.76399993896484 82.39900207519531,-56.99399948120117 82.39900207519531,-56.99399948120117"></path></g><g opacity="1" transform="matrix(1,0,0,1,0,0)"><path stroke-linecap="round" stroke-linejoin="round" fill-opacity="0" stroke="rgb(130,89,56)" stroke-opacity="1" stroke-width="14.849" d=" M-42.00899887084961,-102.26300048828125 C-42.00899887084961,-102.26300048828125 -55.11600112915039,-126.88099670410156 -95.5270004272461,-117.15399932861328"></path></g></g></g></g></svg>