<svg xmlns="http://www.w3.org/2000/svg" xmlns:xlink="http://www.w3.org/1999/xlink" viewBox="0 0 512 512" width="512" height="512" style="width: 100%; height: 100%; transform: translate3d(0,0,0); content-visibility: visible;" preserveAspectRatio="xMidYMid meet"><defs><clipPath id="__lottie_element_2"><rect width="512" height="512" x="0" y="0"></rect></clipPath><radialGradient id="__lottie_element_9" spreadMethod="pad" gradientUnits="userSpaceOnUse" cx="-118.052001953125" cy="-197.23800659179688" r="368.08929787502797" fx="-118.052001953125" fy="-197.23800659179688"><stop offset="0%" stop-color="rgb(252,238,221)"></stop><stop offset="85%" stop-color="rgb(248,213,185)"></stop><stop offset="100%" stop-color="rgb(244,188,150)"></stop></radialGradient></defs><g clip-path="url(#__lottie_element_2)"><g style="display: block;" transform="matrix(1.055271029472351,0.20183822512626648,-0.19812794029712677,1.035872459411621,79.70587158203125,-45.2855224609375)" opacity="1"><g opacity="1" transform="matrix(1,0,0,1,206.76100158691406,233.80299377441406)"><path fill="rgb(244,164,121)" fill-opacity="1" d=" M-121.02899932861328,166.86700439453125 C-152.6320037841797,138.5330047607422 -193.802001953125,80.50900268554688 -185.08999633789062,-1.6360000371932983 C-177.46200561523438,-73.55899810791016 -128.76199340820312,-140.83299255371094 -80.0999984741211,-168.57200622558594 C-34.98099899291992,-194.29100036621094 37.483001708984375,-201.95899963378906 94.74800109863281,-176.91600036621094 C158.89100646972656,-148.86500549316406 199.60400390625,-60.97700119018555 198.40699768066406,18.660999298095703 C197.19400024414062,99.3219985961914 164.23599243164062,148.8070068359375 130.34800720214844,177.968994140625 C95.88300323486328,207.6280059814453 52.2239990234375,213.1280059814453 6.839000225067139,211.24099731445312 C-56.30699920654297,208.61599731445312 -99.3290023803711,186.32200622558594 -121.02899932861328,166.86700439453125z"></path><path stroke-linecap="butt" stroke-linejoin="miter" fill-opacity="0" stroke-miterlimit="10" stroke="rgb(181,95,48)" stroke-opacity="1" stroke-width="12" d=" M-121.02899932861328,166.86700439453125 C-152.6320037841797,138.5330047607422 -193.802001953125,80.50900268554688 -185.08999633789062,-1.6360000371932983 C-177.46200561523438,-73.55899810791016 -128.76199340820312,-140.83299255371094 -80.0999984741211,-168.57200622558594 C-34.98099899291992,-194.29100036621094 37.483001708984375,-201.95899963378906 94.74800109863281,-176.91600036621094 C158.89100646972656,-148.86500549316406 199.60400390625,-60.97700119018555 198.40699768066406,18.660999298095703 C197.19400024414062,99.3219985961914 164.23599243164062,148.8070068359375 130.34800720214844,177.968994140625 C95.88300323486328,207.6280059814453 52.2239990234375,213.1280059814453 6.839000225067139,211.24099731445312 C-56.30699920654297,208.61599731445312 -99.3290023803711,186.32200622558594 -121.02899932861328,166.86700439453125z"></path></g><g opacity="1" transform="matrix(1,0,0,1,210.2729949951172,222.39500427246094)"><path fill="url(#__lottie_element_9)" fill-opacity="1" d=" M-123.65499877929688,151.80499267578125 C-147.4290008544922,121.59300231933594 -173.9029998779297,78.88999938964844 -166.01199340820312,4.486000061035156 C-159.1020050048828,-60.65999984741211 -117.68599700927734,-123.61499786376953 -75.11900329589844,-151.22000122070312 C-49.12799835205078,-168.0760040283203 41.3489990234375,-178.12100219726562 85.91999816894531,-157.7259979248047 C141.42799377441406,-132.3260040283203 175.6280059814453,-41.9739990234375 177.60299682617188,31.06800079345703 C179.57699584960938,104.11000061035156 140.66000366210938,151.86399841308594 116.97100067138672,172.5919952392578 C93.28199768066406,193.32000732421875 54.93600082397461,203.0489959716797 5.583000183105469,203.0489959716797 C-43.77000045776367,203.0489959716797 -102.46099853515625,178.73899841308594 -123.65499877929688,151.80499267578125z"></path></g></g><g style="display: block;" transform="matrix(1.380176305770874,0.5680725574493408,-0.5685163140296936,1.3527228832244873,184.9527130126953,292.6307678222656)" opacity="1"><g opacity="1" transform="matrix(1.0102015733718872,0.267623633146286,-0.13279643654823303,0.5012679696083069,-36.717769622802734,1.1673164367675781)"><g opacity="1" transform="matrix(1,0,0,1,60.36899948120117,69.6709976196289)"><path fill="rgb(63,26,26)" fill-opacity="1" d=" M-34.145999908447266,-10.04699993133545 C-32.742000579833984,-19.444000244140625 -24.38599967956543,-44.86600112915039 -7.414999961853027,-45.90299987792969 C13.324999809265137,-47.17100143432617 26.270999908447266,-22.04199981689453 26.729000091552734,-20.482999801635742 C32.013999938964844,-2.4749999046325684 30.535999298095703,-5.565000057220459 19.041000366210938,1.0800000429153442 C12.260000228881836,5 -7.303999900817871,5.64300012588501 -16.10099983215332,4.289999961853027 C-32.301998138427734,1.7990000247955322 -36.04600143432617,2.6740000247955322 -34.145999908447266,-10.04699993133545z"></path><path stroke-linecap="round" stroke-linejoin="round" fill-opacity="0" stroke="rgb(51,6,6)" stroke-opacity="1" stroke-width="8.185" d=" M-34.145999908447266,-10.04699993133545 C-32.742000579833984,-19.444000244140625 -24.38599967956543,-44.86600112915039 -7.414999961853027,-45.90299987792969 C13.324999809265137,-47.17100143432617 26.270999908447266,-22.04199981689453 26.729000091552734,-20.482999801635742 C32.013999938964844,-2.4749999046325684 30.535999298095703,-5.565000057220459 19.041000366210938,1.0800000429153442 C12.260000228881836,5 -7.303999900817871,5.64300012588501 -16.10099983215332,4.289999961853027 C-32.301998138427734,1.7990000247955322 -36.04600143432617,2.6740000247955322 -34.145999908447266,-10.04699993133545z"></path></g><g opacity="1" transform="matrix(1,0,0,1,57.659000396728516,92.13999938964844)"><path fill="rgb(212,40,112)" fill-opacity="1" d=" M2.6640000343322754,-47.16299819946289 C2.6640000343322754,-47.16299819946289 8.517000198364258,-52.02799987792969 14.133999824523926,-51.25299835205078 C24.667999267578125,-49.79999923706055 28.18400001525879,-42.48099899291992 30.117000579833984,-39.62799835205078 C32.04899978637695,-36.7760009765625 32.61600112915039,-22.209999084472656 -0.1940000057220459,-18.889999389648438 C-34.840999603271484,-15.383999824523926 -28.09600067138672,-31.940000534057617 -28.729999542236328,-34.90599822998047 C-29.363000869750977,-37.87300109863281 -20.738000869750977,-48.709999084472656 -13.836999893188477,-49.79899978637695 C-9.010000228881836,-50.5620002746582 2.6640000343322754,-47.16299819946289 2.6640000343322754,-47.16299819946289z"></path><path stroke-linecap="round" stroke-linejoin="round" fill-opacity="0" stroke="rgb(173,25,83)" stroke-opacity="1" stroke-width="7.194" d=" M2.6640000343322754,-47.16299819946289 C2.6640000343322754,-47.16299819946289 8.517000198364258,-52.02799987792969 14.133999824523926,-51.25299835205078 C24.667999267578125,-49.79999923706055 28.18400001525879,-42.48099899291992 30.117000579833984,-39.62799835205078 C32.04899978637695,-36.7760009765625 32.61600112915039,-22.209999084472656 -0.1940000057220459,-18.889999389648438 C-34.840999603271484,-15.383999824523926 -28.09600067138672,-31.940000534057617 -28.729999542236328,-34.90599822998047 C-29.363000869750977,-37.87300109863281 -20.738000869750977,-48.709999084472656 -13.836999893188477,-49.79899978637695 C-9.010000228881836,-50.5620002746582 2.6640000343322754,-47.16299819946289 2.6640000343322754,-47.16299819946289z"></path></g><g opacity="1" transform="matrix(1,0,0,0.940310001373291,-3.0719985961914062,-35.99365997314453)"><g opacity="1" transform="matrix(1,0,0,1,36.80500030517578,103.31099700927734)"><path fill="rgb(255,255,255)" fill-opacity="1" d=" M-3.7829999923706055,-0.746999979019165 C-3.7829999923706055,-0.746999979019165 -8.1850004196167,-6.675000190734863 -5.953999996185303,-7.461999893188477 C-4.447999954223633,-7.99399995803833 3.015000104904175,-7.973999977111816 5.158999919891357,-7.613999843597412 C7.303999900817871,-7.255000114440918 7.644999980926514,-4.960000038146973 7.914999961853027,-3.4800000190734863 C8.185999870300293,-1.9989999532699585 8.074000358581543,7.993000030517578 8.074000358581543,7.993000030517578 C8.074000358581543,7.993000030517578 1.2280000448226929,4.058000087738037 -0.38100001215934753,3.378999948501587 C-1.9889999628067017,2.6989998817443848 -3.7829999923706055,-0.746999979019165 -3.7829999923706055,-0.746999979019165z"></path><path stroke-linecap="round" stroke-linejoin="round" fill-opacity="0" stroke="rgb(129,116,170)" stroke-opacity="1" stroke-width="5.889" d=" M-3.7829999923706055,-0.746999979019165 C-3.7829999923706055,-0.746999979019165 -8.1850004196167,-6.675000190734863 -5.953999996185303,-7.461999893188477 C-4.447999954223633,-7.99399995803833 3.015000104904175,-7.973999977111816 5.158999919891357,-7.613999843597412 C7.303999900817871,-7.255000114440918 7.644999980926514,-4.960000038146973 7.914999961853027,-3.4800000190734863 C8.185999870300293,-1.9989999532699585 8.074000358581543,7.993000030517578 8.074000358581543,7.993000030517578 C8.074000358581543,7.993000030517578 1.2280000448226929,4.058000087738037 -0.38100001215934753,3.378999948501587 C-1.9889999628067017,2.6989998817443848 -3.7829999923706055,-0.746999979019165 -3.7829999923706055,-0.746999979019165z"></path></g><g opacity="1" transform="matrix(1,0,0,1,59.38399887084961,103.50599670410156)"><path fill="rgb(255,255,255)" fill-opacity="1" d=" M-10.449999809265137,9.083999633789062 C-10.449999809265137,9.083999633789062 -11.654000282287598,-3.072000026702881 -11.654000282287598,-3.072000026702881 C-11.654000282287598,-3.072000026702881 -12.404000282287598,-8.083000183105469 -9.065999984741211,-8.904000282287598 C-5.61899995803833,-9.753000259399414 4.5920000076293945,-10.555000305175781 4.5920000076293945,-10.555000305175781 C4.5920000076293945,-10.555000305175781 9.51099967956543,-11.213000297546387 10.130999565124512,-7.3480000495910645 C10.305000305175781,-6.263000011444092 12.404000282287598,7.90500020980835 12.404000282287598,7.90500020980835 C12.404000282287598,7.90500020980835 7.677999973297119,10.232999801635742 3.63700008392334,10.722999572753906 C-0.4050000011920929,11.213000297546387 -10.449999809265137,9.083999633789062 -10.449999809265137,9.083999633789062z"></path><path stroke-linecap="round" stroke-linejoin="round" fill-opacity="0" stroke="rgb(129,116,170)" stroke-opacity="1" stroke-width="5.889" d=" M-10.449999809265137,9.083999633789062 C-10.449999809265137,9.083999633789062 -11.654000282287598,-3.072000026702881 -11.654000282287598,-3.072000026702881 C-11.654000282287598,-3.072000026702881 -12.404000282287598,-8.083000183105469 -9.065999984741211,-8.904000282287598 C-5.61899995803833,-9.753000259399414 4.5920000076293945,-10.555000305175781 4.5920000076293945,-10.555000305175781 C4.5920000076293945,-10.555000305175781 9.51099967956543,-11.213000297546387 10.130999565124512,-7.3480000495910645 C10.305000305175781,-6.263000011444092 12.404000282287598,7.90500020980835 12.404000282287598,7.90500020980835 C12.404000282287598,7.90500020980835 7.677999973297119,10.232999801635742 3.63700008392334,10.722999572753906 C-0.4050000011920929,11.213000297546387 -10.449999809265137,9.083999633789062 -10.449999809265137,9.083999633789062z"></path></g><g opacity="1" transform="matrix(1,0,0,1,82.52200317382812,99.59400177001953)"><path fill="rgb(255,255,255)" fill-opacity="1" d=" M-7.89300012588501,10.473999977111816 C-7.89300012588501,10.473999977111816 -8.265000343322754,-3.440999984741211 -8.265000343322754,-3.440999984741211 C-8.265000343322754,-3.440999984741211 -8.604999542236328,-6.783999919891357 -5.814000129699707,-7.620999813079834 C-4.465000152587891,-8.024999618530273 2.686000108718872,-10.279000282287598 3.803999900817871,-10.376999855041504 C4.921999931335449,-10.473999977111816 7.185999870300293,-10.352999687194824 7.627999782562256,-8.52299976348877 C7.822000026702881,-7.7170000076293945 8.604999542236328,-2.181999921798706 8.604999542236328,-2.181999921798706 C8.604999542236328,-2.181999921798706 4.96999979019165,4.563000202178955 3.131999969482422,6.091000080108643 C1.2940000295639038,7.61899995803833 -7.89300012588501,10.473999977111816 -7.89300012588501,10.473999977111816z"></path><path stroke-linecap="round" stroke-linejoin="round" fill-opacity="0" stroke="rgb(129,116,170)" stroke-opacity="1" stroke-width="5.889" d=" M-7.89300012588501,10.473999977111816 C-7.89300012588501,10.473999977111816 -8.265000343322754,-3.440999984741211 -8.265000343322754,-3.440999984741211 C-8.265000343322754,-3.440999984741211 -8.604999542236328,-6.783999919891357 -5.814000129699707,-7.620999813079834 C-4.465000152587891,-8.024999618530273 2.686000108718872,-10.279000282287598 3.803999900817871,-10.376999855041504 C4.921999931335449,-10.473999977111816 7.185999870300293,-10.352999687194824 7.627999782562256,-8.52299976348877 C7.822000026702881,-7.7170000076293945 8.604999542236328,-2.181999921798706 8.604999542236328,-2.181999921798706 C8.604999542236328,-2.181999921798706 4.96999979019165,4.563000202178955 3.131999969482422,6.091000080108643 C1.2940000295639038,7.61899995803833 -7.89300012588501,10.473999977111816 -7.89300012588501,10.473999977111816z"></path></g></g><g opacity="1" transform="matrix(1.1821099519729614,0,0,1.928459882736206,-9.193588256835938,-18.40265655517578)"><g opacity="1" transform="matrix(1,0,0,1,36.89500045776367,35.54199981689453)"><path fill="rgb(255,255,255)" fill-opacity="1" d=" M-5.948999881744385,8.585000038146973 C-5.948999881744385,8.585000038146973 -9.553000450134277,9.949999809265137 -4.041999816894531,9.675000190734863 C-0.7829999923706055,9.51200008392334 1.0579999685287476,9.770000457763672 3.9639999866485596,9.520999908447266 C8.633000373840332,9.121000289916992 9.553000450134277,7.631999969482422 9.420000076293945,5.5289998054504395 C9.340999603271484,4.2870001792907715 8.27400016784668,-9.949999809265137 8.27400016784668,-9.949999809265137 C8.27400016784668,-9.949999809265137 4.173999786376953,-5.372000217437744 1.1339999437332153,-2.8570001125335693 C-1.906000018119812,-0.34200000762939453 -5.948999881744385,8.585000038146973 -5.948999881744385,8.585000038146973z"></path><path stroke-linecap="round" stroke-linejoin="round" fill-opacity="0" stroke="rgb(129,116,170)" stroke-opacity="1" stroke-width="5.294" d=" M-5.948999881744385,8.585000038146973 C-5.948999881744385,8.585000038146973 -9.553000450134277,9.949999809265137 -4.041999816894531,9.675000190734863 C-0.7829999923706055,9.51200008392334 1.0579999685287476,9.770000457763672 3.9639999866485596,9.520999908447266 C8.633000373840332,9.121000289916992 9.553000450134277,7.631999969482422 9.420000076293945,5.5289998054504395 C9.340999603271484,4.2870001792907715 8.27400016784668,-9.949999809265137 8.27400016784668,-9.949999809265137 C8.27400016784668,-9.949999809265137 4.173999786376953,-5.372000217437744 1.1339999437332153,-2.8570001125335693 C-1.906000018119812,-0.34200000762939453 -5.948999881744385,8.585000038146973 -5.948999881744385,8.585000038146973z"></path></g><g opacity="1" transform="matrix(1,0,0,1,55.027000427246094,32.862998962402344)"><path fill="rgb(255,255,255)" fill-opacity="1" d=" M8.616999626159668,-8.512999534606934 C8.616999626159668,-8.512999534606934 9.598999977111816,4.583000183105469 9.598999977111816,4.583000183105469 C9.598999977111816,4.583000183105469 10.342000007629395,7.508999824523926 7.293000221252441,8.121000289916992 C5.688000202178955,8.442999839782715 -0.640999972820282,8.746000289916992 -3.8359999656677246,9.026000022888184 C-6.914999961853027,9.295000076293945 -7.999000072479248,7.988999843597412 -8.177000045776367,6.330999851226807 C-8.180000305175781,6.309000015258789 -8.182999610900879,6.285999774932861 -8.1850004196167,6.263999938964844 C-8.380000114440918,4.0320000648498535 -10.342000007629395,-7.229000091552734 -10.342000007629395,-7.229000091552734 C-10.342000007629395,-7.229000091552734 -1.7209999561309814,-9.295000076293945 0.2370000034570694,-9.279000282287598 C2.194000005722046,-9.262999534606934 8.616999626159668,-8.512999534606934 8.616999626159668,-8.512999534606934z"></path><path stroke-linecap="round" stroke-linejoin="round" fill-opacity="0" stroke="rgb(129,116,170)" stroke-opacity="1" stroke-width="5.294" d=" M8.616999626159668,-8.512999534606934 C8.616999626159668,-8.512999534606934 9.598999977111816,4.583000183105469 9.598999977111816,4.583000183105469 C9.598999977111816,4.583000183105469 10.342000007629395,7.508999824523926 7.293000221252441,8.121000289916992 C5.688000202178955,8.442999839782715 -0.640999972820282,8.746000289916992 -3.8359999656677246,9.026000022888184 C-6.914999961853027,9.295000076293945 -7.999000072479248,7.988999843597412 -8.177000045776367,6.330999851226807 C-8.180000305175781,6.309000015258789 -8.182999610900879,6.285999774932861 -8.1850004196167,6.263999938964844 C-8.380000114440918,4.0320000648498535 -10.342000007629395,-7.229000091552734 -10.342000007629395,-7.229000091552734 C-10.342000007629395,-7.229000091552734 -1.7209999561309814,-9.295000076293945 0.2370000034570694,-9.279000282287598 C2.194000005722046,-9.262999534606934 8.616999626159668,-8.512999534606934 8.616999626159668,-8.512999534606934z"></path></g><g opacity="1" transform="matrix(1,0,0,1,72.98300170898438,33.00299835205078)"><path fill="rgb(255,255,255)" fill-opacity="1" d=" M-6.074999809265137,-5.2230000495910645 C-6.074999809265137,-5.2230000495910645 -2.7190001010894775,-2.250999927520752 -0.08100000023841858,-0.04600000008940697 C2.556999921798706,2.1600000858306885 5.093999862670898,4.585999965667725 5.093999862670898,4.585999965667725 C5.093999862670898,4.585999965667725 9.517000198364258,6.421000003814697 8.161999702453613,6.953999996185303 C6.28000020980835,7.695000171661377 -4.7220001220703125,7.810999870300293 -4.7220001220703125,7.810999870300293 C-4.7220001220703125,7.810999870300293 -8.463000297546387,7.888000011444092 -8.357000350952148,4.442999839782715 C-8.25100040435791,0.9980000257492065 -9.517999649047852,-7.88700008392334 -9.517999649047852,-7.88700008392334 C-9.517999649047852,-7.88700008392334 -6.074999809265137,-5.2230000495910645 -6.074999809265137,-5.2230000495910645z"></path><path stroke-linecap="round" stroke-linejoin="round" fill-opacity="0" stroke="rgb(129,116,170)" stroke-opacity="1" stroke-width="5.294" d=" M-6.074999809265137,-5.2230000495910645 C-6.074999809265137,-5.2230000495910645 -2.7190001010894775,-2.250999927520752 -0.08100000023841858,-0.04600000008940697 C2.556999921798706,2.1600000858306885 5.093999862670898,4.585999965667725 5.093999862670898,4.585999965667725 C5.093999862670898,4.585999965667725 9.517000198364258,6.421000003814697 8.161999702453613,6.953999996185303 C6.28000020980835,7.695000171661377 -4.7220001220703125,7.810999870300293 -4.7220001220703125,7.810999870300293 C-4.7220001220703125,7.810999870300293 -8.463000297546387,7.888000011444092 -8.357000350952148,4.442999839782715 C-8.25100040435791,0.9980000257492065 -9.517999649047852,-7.88700008392334 -9.517999649047852,-7.88700008392334 C-9.517999649047852,-7.88700008392334 -6.074999809265137,-5.2230000495910645 -6.074999809265137,-5.2230000495910645z"></path></g></g><g opacity="1" transform="matrix(1,0,0,1,58.97999954223633,40.22200012207031)"><path fill="rgb(242,175,129)" fill-opacity="1" d=" M-38.40800094604492,25.611000061035156 C-38.40800094604492,25.611000061035156 -47.79800033569336,-27.849000930786133 -9.08899974822998,-34.28300094604492 C17.44499969482422,-38.69300079345703 32.98699951171875,-19.351999282836914 38.617000579833984,-3.187000036239624 C45.19300079345703,15.690999984741211 35.63999938964844,21.631999969482422 35.63999938964844,21.631999969482422 C35.63999938964844,21.631999969482422 33.4119987487793,-0.3190000057220459 18.972000122070312,-13.940999984741211 C3.947000026702881,-28.115999221801758 -8.748000144958496,-21.674999237060547 -21.70199966430664,-9.991000175476074 C-35.59600067138672,2.5409998893737793 -38.40800094604492,25.611000061035156 -38.40800094604492,25.611000061035156z"></path></g><g opacity="1" transform="matrix(1,0,0,1,60.36899948120117,69.6709976196289)"><path stroke-linecap="round" stroke-linejoin="round" fill-opacity="0" stroke="rgb(51,6,6)" stroke-opacity="1" stroke-width="9" d=" M-34.74700164794922,-5.692999839782715 C-35.01300048828125,-23.229000091552734 -24.38599967956543,-44.86600112915039 -7.414999961853027,-45.90299987792969 C13.324999809265137,-47.17100143432617 24.535999298095703,-27.649999618530273 26.96299934387207,-20.558000564575195 C33.95500183105469,-0.13199999928474426 23.17099952697754,2.736999988555908 14.810999870300293,2.5209999084472656 C1.5390000343322754,2.177999973297119 3.489000082015991,0.7599999904632568 -8.04800033569336,0.9399999976158142 C-24.437999725341797,1.1959999799728394 -34.551998138427734,7.193999767303467 -34.74700164794922,-5.692999839782715z"></path></g></g></g><g style="display: block;" transform="matrix(1.380176305770874,0.5680725574493408,-0.5685163140296936,1.3527228832244873,111.39612579345703,-26.810321807861328)" opacity="1"><g opacity="1" transform="matrix(1.3594900369644165,0,0,1.3594900369644165,-90.87281799316406,-29.908157348632812)"><g opacity="1" transform="matrix(1,0,0,1,241.5019989013672,98.6760025024414)"><path fill="rgb(242,175,129)" fill-opacity="1" d=" M-45.65800094604492,23.295000076293945 C-50.5890007019043,16.236000061035156 -56.840999603271484,5.281000137329102 -50.00699996948242,-10.869999885559082 C-43.17399978637695,-27.02199935913086 -25.159000396728516,-48.76499938964844 -16.461999893188477,-53.112998962402344 C-7.765999794006348,-57.46200180053711 2.7950000762939453,-56.21900177001953 18.945999145507812,-42.553001403808594 C35.097999572753906,-28.88599967956543 56.84000015258789,1.5529999732971191 51.249000549316406,29.506999969482422 C45.65800094604492,57.46099853515625 15.84000015258789,57.047000885009766 -8.180000305175781,49.38600158691406 C-29.884000778198242,42.46200180053711 -39.948001861572266,31.4689998626709 -45.65800094604492,23.295000076293945z"></path></g><g opacity="1" transform="matrix(1,0,0,1,244.60899353027344,86.00199890136719)"><path fill="rgb(211,207,229)" fill-opacity="1" d=" M-48.542999267578125,21.25 C-53.4739990234375,14.190999984741211 -59.724998474121094,3.2360000610351562 -52.89099884033203,-12.914999961853027 C-46.05799865722656,-29.066999435424805 -28.93400001525879,-50.50600051879883 -15.45300006866455,-55.263999938964844 C-5.0370001792907715,-58.941001892089844 4.875,-61.00199890136719 21.025999069213867,-47.334999084472656 C37.176998138427734,-33.66899871826172 59.724998474121094,1.2369999885559082 54.13399887084961,29.19099998474121 C48.54399871826172,57.14500045776367 17.82699966430664,61.00199890136719 -9.902000427246094,50.60300064086914 C-31.232999801635742,42.60300064086914 -42.83300018310547,29.423999786376953 -48.542999267578125,21.25z"></path><path stroke-linecap="butt" stroke-linejoin="miter" fill-opacity="0" stroke-miterlimit="10" stroke="rgb(135,61,41)" stroke-opacity="1" stroke-width="6.5" d=" M-48.542999267578125,21.25 C-53.4739990234375,14.190999984741211 -59.724998474121094,3.2360000610351562 -52.89099884033203,-12.914999961853027 C-46.05799865722656,-29.066999435424805 -28.93400001525879,-50.50600051879883 -15.45300006866455,-55.263999938964844 C-5.0370001792907715,-58.941001892089844 4.875,-61.00199890136719 21.025999069213867,-47.334999084472656 C37.176998138427734,-33.66899871826172 59.724998474121094,1.2369999885559082 54.13399887084961,29.19099998474121 C48.54399871826172,57.14500045776367 17.82699966430664,61.00199890136719 -9.902000427246094,50.60300064086914 C-31.232999801635742,42.60300064086914 -42.83300018310547,29.423999786376953 -48.542999267578125,21.25z"></path></g><g opacity="1" transform="matrix(1,0,0,1,244.0679931640625,81.38999938964844)"><path fill="rgb(255,255,255)" fill-opacity="1" d=" M-42.27000045776367,17.14900016784668 C-46.10499954223633,11.65999984741211 -46.930999755859375,2.443000078201294 -41.617000579833984,-10.118000030517578 C-36.303001403808594,-22.67799949645996 -15.72700023651123,-41.32400131225586 -8.963000297546387,-44.70500183105469 C-2.200000047683716,-48.08700180053711 7.421000003814697,-46.21500015258789 19.98200035095215,-35.58700180053711 C32.54199981689453,-24.95800018310547 46.930999755859375,1.7549999952316284 42.58300018310547,23.493999481201172 C38.23500061035156,45.233001708984375 11.699000358581543,48.0880012512207 -6.980999946594238,42.130001068115234 C-23.860000610351562,36.74599838256836 -37.82899856567383,23.506000518798828 -42.27000045776367,17.14900016784668z"></path></g><g opacity="1" transform="matrix(1.5661900043487549,0,0,1.5661900043487549,-146.41250610351562,-44.24461364746094)"><g opacity="1" transform="matrix(1,0,0,1,249.52099609375,83.73799896240234)"><path fill="rgb(40,23,61)" fill-opacity="1" d=" M10.10099983215332,1.2000000476837158 C9.437999725341797,6.7789998054504395 4.379000186920166,10.763999938964844 -1.2000000476837158,10.10099983215332 C-6.7789998054504395,9.439000129699707 -10.763999938964844,4.379000186920166 -10.10200023651123,-1.2000000476837158 C-9.439000129699707,-6.7779998779296875 -4.379000186920166,-10.763999938964844 1.2000000476837158,-10.10099983215332 C6.7779998779296875,-9.437999725341797 10.763999938964844,-4.379000186920166 10.10099983215332,1.2000000476837158z"></path></g><g opacity="1" transform="matrix(1,0,0,1,260.8290100097656,80.77899932861328)"><path fill="rgb(255,255,255)" fill-opacity="1" d=" M7.156000137329102,0.8500000238418579 C6.820000171661377,3.674999952316284 3.3440001010894775,5.585000038146973 -0.609000027179718,5.116000175476074 C-4.560999870300293,4.645999908447266 -7.493000030517578,1.975000023841858 -7.1579999923706055,-0.8500000238418579 C-6.822000026702881,-3.6760001182556152 -3.3459999561309814,-5.585000038146973 0.6069999933242798,-5.116000175476074 C4.559000015258789,-4.645999908447266 7.492000102996826,-1.975000023841858 7.156000137329102,0.8500000238418579z"></path></g></g></g><g opacity="1" transform="matrix(0.9162354469299316,0.3280417323112488,-0.3280417323112488,0.9162354469299316,38.79948425292969,-33.592803955078125)"><g opacity="1" transform="matrix(1,0,0,1,80.54100036621094,144.7760009765625)"><path fill="rgb(171,79,42)" fill-opacity="0.35000000000000003" d=" M-47.58700180053711,-31.947999954223633 C-44.577999114990234,-38.560001373291016 -39.012001037597656,-49.676998138427734 -26.339000701904297,-53.986000061035156 C-9.246000289916992,-59.797000885009766 3.1549999713897705,-55.28499984741211 14.156999588012695,-53.11000061035156 C35.72100067138672,-48.84700012207031 42.875999450683594,-44.30400085449219 51.13399887084961,-37.483001708984375 C59.393001556396484,-30.66200065612793 62.604000091552734,-18.724000930786133 55.72200012207031,-6.361000061035156 C48.84000015258789,6.002999782562256 29.111000061035156,36.27299880981445 3.877000093460083,45.652000427246094 C-18.361000061035156,53.917999267578125 -30.972000122070312,36.41600036621094 -39.665000915527344,18.152999877929688 C-50.21799850463867,-4.015999794006348 -52.28300094604492,-21.628999710083008 -47.58700180053711,-31.947999954223633z"></path></g><g opacity="1" transform="matrix(1,0,0,1,81.08200073242188,132.97900390625)"><path fill="rgb(211,207,229)" fill-opacity="1" d=" M-51.367000579833984,-29.034000396728516 C-48.558998107910156,-35.67399978637695 -42.9630012512207,-45.32600021362305 -31.13800048828125,-49.652000427246094 C-15.187999725341797,-55.48699951171875 0.6119999885559082,-54.16999816894531 10.876999855041504,-51.986000061035156 C30.99799919128418,-47.70500183105469 37.67399978637695,-43.14400100708008 45.380001068115234,-36.29399871826172 C53.08599853515625,-29.444000244140625 56.08300018310547,-17.457000732421875 49.6609992980957,-5.041999816894531 C43.2400016784668,7.373000144958496 24.83099937438965,37.76900100708008 1.284999966621399,47.1870002746582 C-19.46500015258789,55.48699951171875 -38.125,38.983001708984375 -46.236000061035156,20.645000457763672 C-56.08300018310547,-1.6169999837875366 -55.749000549316406,-18.672000885009766 -51.367000579833984,-29.034000396728516z"></path><path stroke-linecap="butt" stroke-linejoin="miter" fill-opacity="0" stroke-miterlimit="10" stroke="rgb(135,61,41)" stroke-opacity="1" stroke-width="9" d=" M-51.367000579833984,-29.034000396728516 C-48.558998107910156,-35.67399978637695 -42.9630012512207,-45.32600021362305 -31.13800048828125,-49.652000427246094 C-15.187999725341797,-55.48699951171875 0.6119999885559082,-54.16999816894531 10.876999855041504,-51.986000061035156 C30.99799919128418,-47.70500183105469 37.67399978637695,-43.14400100708008 45.380001068115234,-36.29399871826172 C53.08599853515625,-29.444000244140625 56.08300018310547,-17.457000732421875 49.6609992980957,-5.041999816894531 C43.2400016784668,7.373000144958496 24.83099937438965,37.76900100708008 1.284999966621399,47.1870002746582 C-19.46500015258789,55.48699951171875 -38.125,38.983001708984375 -46.236000061035156,20.645000457763672 C-56.08300018310547,-1.6169999837875366 -55.749000549316406,-18.672000885009766 -51.367000579833984,-29.034000396728516z"></path></g><g opacity="1" transform="matrix(1,0,0,1,80.51300048828125,126.98300170898438)"><path fill="rgb(255,255,255)" fill-opacity="1" d=" M-39.34700012207031,-22.599000930786133 C-37.19599914550781,-27.767000198364258 -32.909000396728516,-35.27899932861328 -23.851999282836914,-38.645999908447266 C-11.633999824523926,-43.1879997253418 0.46799999475479126,-42.16400146484375 8.331000328063965,-40.4640007019043 C23.743999481201172,-37.13199996948242 28.857999801635742,-33.58000183105469 34.7599983215332,-28.249000549316406 C40.66299819946289,-22.91699981689453 42.95899963378906,-13.586999893188477 38.040000915527344,-3.9240000247955322 C33.12099838256836,5.739999771118164 19.020000457763672,29.398000717163086 0.984000027179718,36.729000091552734 C-14.91100025177002,43.18899917602539 -29.202999114990234,30.343000411987305 -35.41699981689453,16.069000244140625 C-42.95899963378906,-1.2580000162124634 -42.70399856567383,-14.534000396728516 -39.34700012207031,-22.599000930786133z"></path></g><g opacity="1" transform="matrix(1.645359992980957,0,0,1.645359992980957,-55.85099792480469,-71.0526123046875)"><g opacity="1" transform="matrix(1,0,0,1,75.76100158691406,121.30999755859375)"><path fill="rgb(40,23,61)" fill-opacity="1" d=" M8.821000099182129,0 C8.821000099182129,4.872000217437744 4.872000217437744,8.821000099182129 0,8.821000099182129 C-4.872000217437744,8.821000099182129 -8.821000099182129,4.872000217437744 -8.821000099182129,0 C-8.821000099182129,-4.872000217437744 -4.872000217437744,-8.821000099182129 0,-8.821000099182129 C4.872000217437744,-8.821000099182129 8.821000099182129,-4.872000217437744 8.821000099182129,0z"></path></g><g opacity="1" transform="matrix(1,0,0,1,85.19599914550781,117.6050033569336)"><path fill="rgb(255,255,255)" fill-opacity="1" d=" M6.25,0 C6.25,2.4670000076293945 3.4519999027252197,4.4679999351501465 0,4.4679999351501465 C-3.4519999027252197,4.4679999351501465 -6.25,2.4670000076293945 -6.25,0 C-6.25,-2.4670000076293945 -3.4519999027252197,-4.4679999351501465 0,-4.4679999351501465 C3.4519999027252197,-4.4679999351501465 6.25,-2.4670000076293945 6.25,0z"></path></g></g></g></g><g style="display: block;" transform="matrix(0.9240280389785767,0.3803246021270752,-0.38775086402893066,0.9226111173629761,251.07449340820312,253.13731384277344)" opacity="1"><g opacity="0" transform="matrix(1.0916199684143066,0,0,1.0916199684143066,14.572999954223633,-9.753999710083008)"><path fill="rgb(246,203,171)" fill-opacity="1" d=" M-169.5,-80.5 C-204.5,-61.5 -204.0019989013672,-9.96500015258789 -187.5,20.5 C-181,32.5 -203.5,-11 -199.5,-37.5 C-196.13400268554688,-59.797000885009766 -177.052001953125,-91.60900115966797 -126.43499755859375,-91.78399658203125 C-64,-92 -46.5,-52.5 -41,-52.5 C-33.5,-52.5 -41,-58.5 -57.5,-71.5 C-72.0790023803711,-82.98699951171875 -119.19000244140625,-107.81099700927734 -169.5,-80.5z"></path><path stroke-linecap="butt" stroke-linejoin="miter" fill-opacity="0" stroke-miterlimit="4" stroke="rgb(181,95,48)" stroke-opacity="1" stroke-width="13" d=" M-169.5,-80.5 C-204.5,-61.5 -204.0019989013672,-9.96500015258789 -187.5,20.5 C-181,32.5 -203.5,-11 -199.5,-37.5 C-196.13400268554688,-59.797000885009766 -177.052001953125,-91.60900115966797 -126.43499755859375,-91.78399658203125 C-64,-92 -46.5,-52.5 -41,-52.5 C-33.5,-52.5 -41,-58.5 -57.5,-71.5 C-72.0790023803711,-82.98699951171875 -119.19000244140625,-107.81099700927734 -169.5,-80.5z"></path></g><g opacity="0" transform="matrix(0.9673500061035156,0,0,0.973550021648407,8.966644287109375,-7.1025848388671875)"><path fill="rgb(246,203,171)" fill-opacity="1" d=" M129,-166 C87,-170 57.17399978637695,-135.0570068359375 46.25,-101 C37.75,-74.5 53,-52.5 57,-44 C58.465999603271484,-40.88399887084961 51.72600173950195,-48.91999816894531 47.104000091552734,-61.67100143432617 C42,-75.75 42.35100173950195,-91.13500213623047 56.27199935913086,-114.63800048828125 C67.7490005493164,-134.01499938964844 95.54199981689453,-161.39599609375 131.5,-160 C191.58799743652344,-157.66600036621094 217,-55.5 202,-89.5 C187,-123.5 167.15499877929688,-162.36599731445312 129,-166z"></path><path stroke-linecap="butt" stroke-linejoin="miter" fill-opacity="0" stroke-miterlimit="4" stroke="rgb(181,95,48)" stroke-opacity="1" stroke-width="13" d=" M129,-166 C87,-170 57.17399978637695,-135.0570068359375 46.25,-101 C37.75,-74.5 53,-52.5 57,-44 C58.465999603271484,-40.88399887084961 51.72600173950195,-48.91999816894531 47.104000091552734,-61.67100143432617 C42,-75.75 42.35100173950195,-91.13500213623047 56.27199935913086,-114.63800048828125 C67.7490005493164,-134.01499938964844 95.54199981689453,-161.39599609375 131.5,-160 C191.58799743652344,-157.66600036621094 217,-55.5 202,-89.5 C187,-123.5 167.15499877929688,-162.36599731445312 129,-166z"></path></g></g><g style="display: block;" transform="matrix(1.380176305770874,0.5680725574493408,-0.5685163140296936,1.3527228832244873,142.75807189941406,-79.09076690673828)" opacity="1"><g opacity="1" transform="matrix(0.7659696340560913,-0.13346269726753235,0.13346269726753235,0.7659696340560913,3.464519500732422,27.84587860107422)"><g opacity="1" transform="matrix(1,0,0,1,62.20199966430664,89.35099792480469)"><path fill="rgb(173,83,33)" fill-opacity="0.37" d=" M45.3390007019043,-1.3799999952316284 C41.80099868774414,-5.056000232696533 22.844999313354492,-9.72700023651123 13.196999549865723,-13.375 C3.6700000762939453,-16.97800064086914 -5.409999847412109,-17.41699981689453 -9.02299976348877,-17.663000106811523 C-11.260000228881836,-17.815000534057617 -12.972999572753906,-17.652999877929688 -14.147000312805176,-16.849000930786133 C-14.843999862670898,-16.37299919128418 -15.38599967956543,-15.449000358581543 -15.24899959564209,-14.555999755859375 C-15.114999771118164,-13.680999755859375 -14.666000366210938,-13.277999877929688 -13.222999572753906,-12.692999839782715 C-21.076000213623047,-12.6899995803833 -28.576000213623047,-18.658000946044922 -34.22700119018555,-17.40999984741211 C-41.750999450683594,-15.748000144958496 -46.625,-14.552000045776367 -42.926998138427734,-10.343000411987305 C-40.99700164794922,-8.145999908447266 -27.826000213623047,-10.635000228881836 -12.751999855041504,-10.925000190734863 C-9.07699966430664,-10.996000289916992 -10.468999862670898,-4.803999900817871 -6.517000198364258,-4.556000232696533 C-2.2160000801086426,-4.285999774932861 5.754000186920166,0.35600000619888306 10.138999938964844,1.2289999723434448 C35.492000579833984,6.275000095367432 44.30500030517578,14.626999855041504 46.724998474121094,12.17300033569336 C49.428001403808594,9.432000160217285 51.742000579833984,3.628000020980835 45.3390007019043,-1.3799999952316284z"></path></g><g opacity="1" transform="matrix(1,0,0,1,62.23699951171875,79.49199676513672)"><path fill="rgb(68,36,25)" fill-opacity="1" d=" M37.779998779296875,0.35100001096725464 C34.242000579833984,-3.3239998817443848 22.844999313354492,-9.72700023651123 13.196999549865723,-13.375 C3.6700000762939453,-16.97800064086914 -5.409999847412109,-17.41699981689453 -9.02299976348877,-17.663000106811523 C-11.260000228881836,-17.815000534057617 -12.972999572753906,-17.652999877929688 -14.147000312805176,-16.849000930786133 C-14.843999862670898,-16.37299919128418 -15.38599967956543,-15.449000358581543 -15.24899959564209,-14.555999755859375 C-15.114999771118164,-13.680000305175781 -14.666000366210938,-13.277999877929688 -13.222999572753906,-12.692999839782715 C-21.076000213623047,-12.6899995803833 -32.2869987487793,-11.512999534606934 -37.9379997253418,-10.265000343322754 C-45.46200180053711,-8.602999687194824 -49.25199890136719,-4.506999969482422 -45.55400085449219,-0.29899999499320984 C-42.64099884033203,3.0160000324249268 -16.996999740600586,-3.683000087738037 7.943999767303467,1.281999945640564 C33.297000885009766,6.328000068664551 44.12900161743164,17.815000534057617 46.54899978637695,15.361000061035156 C49.25199890136719,12.619999885559082 44.18299865722656,5.359000205993652 37.779998779296875,0.35100001096725464z"></path><path stroke-linecap="round" stroke-linejoin="round" fill-opacity="0" stroke="rgb(63,30,17)" stroke-opacity="1" stroke-width="5.194" d=" M37.779998779296875,0.35100001096725464 C34.242000579833984,-3.3239998817443848 22.844999313354492,-9.72700023651123 13.196999549865723,-13.375 C3.6700000762939453,-16.97800064086914 -5.409999847412109,-17.41699981689453 -9.02299976348877,-17.663000106811523 C-11.260000228881836,-17.815000534057617 -12.972999572753906,-17.652999877929688 -14.147000312805176,-16.849000930786133 C-14.843999862670898,-16.37299919128418 -15.38599967956543,-15.449000358581543 -15.24899959564209,-14.555999755859375 C-15.114999771118164,-13.680000305175781 -14.666000366210938,-13.277999877929688 -13.222999572753906,-12.692999839782715 C-21.076000213623047,-12.6899995803833 -32.2869987487793,-11.512999534606934 -37.9379997253418,-10.265000343322754 C-45.46200180053711,-8.602999687194824 -49.25199890136719,-4.506999969482422 -45.55400085449219,-0.29899999499320984 C-42.64099884033203,3.0160000324249268 -16.996999740600586,-3.683000087738037 7.943999767303467,1.281999945640564 C33.297000885009766,6.328000068664551 44.12900161743164,17.815000534057617 46.54899978637695,15.361000061035156 C49.25199890136719,12.619999885559082 44.18299865722656,5.359000205993652 37.779998779296875,0.35100001096725464z"></path></g></g><g opacity="1" transform="matrix(1.0480804443359375,0.48868340253829956,-0.436172753572464,0.9354607462882996,16.920547485351562,-108.58908081054688)"><g opacity="1" transform="matrix(1,0,0,1,208.34800720214844,54.39699935913086)"><path fill="rgb(197,106,57)" fill-opacity="0.46" d=" M-46.35200119018555,36.44200134277344 C-50.71099853515625,36.005001068115234 -53.62099838256836,29.45599937438965 -52.15800094604492,25.327999114990234 C-49.02399826049805,16.48699951171875 -40.44499969482422,6.074999809265137 -32.819000244140625,-5.626999855041504 C-20.091999053955078,-25.155000686645508 2.0820000171661377,-39.34000015258789 19.819000244140625,-40.709999084472656 C31.941999435424805,-41.645999908447266 40.80699920654297,-37.70899963378906 38.111000061035156,-33.68299865722656 C36.39500045776367,-31.121000289916992 32.448001861572266,-38.27299880981445 17.820999145507812,-34.36000061035156 C12.732999801635742,-32.999000549316406 2.9110000133514404,-28.819000244140625 -1.1859999895095825,-22.201000213623047 C-8.022000312805176,-11.157999992370605 -8.74899959564209,-7.3379998207092285 -11.137999534606934,-6.682000160217285 C-20.614999771118164,-4.078000068664551 -19.749000549316406,-14.73900032043457 -19.749000549316406,-14.73900032043457 C-19.749000549316406,-14.73900032043457 -21.823999404907227,-7.979000091552734 -23.6200008392334,-0.41999998688697815 C-24.957000732421875,5.209000110626221 -25.902999877929688,8.829999923706055 -27.893999099731445,16.7189998626709 C-31.492000579833984,30.97599983215332 -38.63999938964844,35.89699935913086 -45.099998474121094,36.474998474121094 C-46.775001525878906,36.625 -45.11199951171875,36.566001892089844 -46.35200119018555,36.44200134277344z"></path></g><g opacity="1" transform="matrix(1,0,0,1,202.62100219726562,48.42399978637695)"><path fill="rgb(68,36,25)" fill-opacity="1" d=" M-43.084999084472656,35.07899856567383 C-47.444000244140625,34.641998291015625 -46.89400100708008,30.839000701904297 -45.430999755859375,26.711000442504883 C-42.297000885009766,17.8700008392334 -37.178001403808594,4.711999893188477 -29.552000045776367,-6.989999771118164 C-16.825000762939453,-26.51799964904785 4.418000221252441,-32.95600128173828 22.155000686645508,-34.32600021362305 C34.27899932861328,-35.262001037597656 47.444000244140625,-30.56999969482422 46.051998138427734,-28.076000213623047 C45.29100036621094,-26.711999893188477 35.731998443603516,-29.88800048828125 21.104999542236328,-25.975000381469727 C16.017000198364258,-24.61400032043457 6.6529998779296875,-20.55299949645996 3.0899999141693115,-13.633000373840332 C-3.6670000553131104,-0.5080000162124634 -4.859000205993652,2.8350000381469727 -7.317999839782715,3.1429998874664307 C-14.057000160217285,3.984999895095825 -10.618000030517578,-10.220000267028809 -10.618000030517578,-10.220000267028809 C-10.618000030517578,-10.220000267028809 -19.55699920654297,0.3050000071525574 -24.860000610351562,14.019000053405762 C-30.163000106811523,27.73200035095215 -35.37300109863281,34.534000396728516 -41.83300018310547,35.11199951171875 C-43.507999420166016,35.262001037597656 -41.845001220703125,35.202999114990234 -43.084999084472656,35.07899856567383z"></path><path stroke-linecap="round" stroke-linejoin="round" fill-opacity="0" stroke="rgb(63,30,17)" stroke-opacity="1" stroke-width="5.265" d=" M-43.084999084472656,35.07899856567383 C-47.444000244140625,34.641998291015625 -46.89400100708008,30.839000701904297 -45.430999755859375,26.711000442504883 C-42.297000885009766,17.8700008392334 -37.178001403808594,4.711999893188477 -29.552000045776367,-6.989999771118164 C-16.825000762939453,-26.51799964904785 4.418000221252441,-32.95600128173828 22.155000686645508,-34.32600021362305 C34.27899932861328,-35.262001037597656 47.444000244140625,-30.56999969482422 46.051998138427734,-28.076000213623047 C45.29100036621094,-26.711999893188477 35.731998443603516,-29.88800048828125 21.104999542236328,-25.975000381469727 C16.017000198364258,-24.61400032043457 6.6529998779296875,-20.55299949645996 3.0899999141693115,-13.633000373840332 C-3.6670000553131104,-0.5080000162124634 -4.859000205993652,2.8350000381469727 -7.317999839782715,3.1429998874664307 C-14.057000160217285,3.984999895095825 -10.618000030517578,-10.220000267028809 -10.618000030517578,-10.220000267028809 C-10.618000030517578,-10.220000267028809 -19.55699920654297,0.3050000071525574 -24.860000610351562,14.019000053405762 C-30.163000106811523,27.73200035095215 -35.37300109863281,34.534000396728516 -41.83300018310547,35.11199951171875 C-43.507999420166016,35.262001037597656 -41.845001220703125,35.202999114990234 -43.084999084472656,35.07899856567383z"></path></g></g></g></g></svg>