<svg xmlns="http://www.w3.org/2000/svg" xmlns:xlink="http://www.w3.org/1999/xlink" viewBox="0 0 512 512" width="512" height="512" style="width: 100%; height: 100%; transform: translate3d(0,0,0); content-visibility: visible;" preserveAspectRatio="xMidYMid meet"><defs><clipPath id="__lottie_element_2"><rect width="512" height="512" x="0" y="0"></rect></clipPath><clipPath id="__lottie_element_4"><path d="M0,0 L512,0 L512,512 L0,512z"></path></clipPath><radialGradient id="__lottie_element_26" spreadMethod="pad" gradientUnits="userSpaceOnUse"><stop></stop><stop></stop><stop></stop></radialGradient><clipPath id="__lottie_element_43"><path d="M0,0 L512,0 L512,512 L0,512z"></path></clipPath><radialGradient id="__lottie_element_65" spreadMethod="pad" gradientUnits="userSpaceOnUse" cx="39.32500076293945" cy="-168.68699645996094" r="487.6972984932047" fx="39.32500076293945" fy="-168.68699645996094"><stop offset="0%" stop-color="rgb(251,230,210)"></stop><stop offset="35%" stop-color="rgb(250,207,175)"></stop><stop offset="70%" stop-color="rgb(248,184,141)"></stop></radialGradient></defs><g clip-path="url(#__lottie_element_2)"><g clip-path="url(#__lottie_element_43)" style="display: block;" transform="matrix(0.9882799983024597,0,0,0.9882799983024597,-12.999679565429688,3.0003204345703125)" opacity="1"><g style="display: none;"><g><path></path><path stroke-linecap="round" stroke-linejoin="round" fill-opacity="0"></path></g><g><path></path><path stroke-linecap="round" stroke-linejoin="round" fill-opacity="0"></path></g><g><path></path><path stroke-linecap="round" stroke-linejoin="round" fill-opacity="0"></path></g><g><path stroke-linecap="round" stroke-linejoin="round" fill-opacity="0"></path></g><g><path stroke-linecap="round" stroke-linejoin="round" fill-opacity="0"></path></g><g><path></path></g><g><path></path></g><g><path></path></g><g><path></path></g></g><g style="display: none;"><g><path></path><path stroke-linecap="round" stroke-linejoin="round" fill-opacity="0"></path></g><g><path></path><path stroke-linecap="round" stroke-linejoin="round" fill-opacity="0"></path></g><g><path></path><path stroke-linecap="round" stroke-linejoin="round" fill-opacity="0"></path></g><g><path stroke-linecap="round" stroke-linejoin="round" fill-opacity="0"></path></g><g><path stroke-linecap="round" stroke-linejoin="round" fill-opacity="0"></path></g><g><path></path></g><g><path></path></g><g><path></path></g><g><path></path></g></g><g style="display: block;" transform="matrix(0.9488625526428223,-0.04647352173924446,0.04670621454715729,0.9536134004592896,60.5369758605957,5.441793918609619)" opacity="1"><g opacity="1" transform="matrix(1,0,0,1,236.97799682617188,263.0379943847656)"><path fill="url(#__lottie_element_65)" fill-opacity="1" d=" M-162.8520050048828,154.99200439453125 C-196.63299560546875,118.01000213623047 -206.74400329589844,59.869998931884766 -191.7469940185547,-3.1679999828338623 C-178.718994140625,-57.92499923706055 -153.218994140625,-125.33599853515625 -92.89600372314453,-175.01400756835938 C-39.902000427246094,-218.656005859375 80.47100067138672,-232.80299377441406 144.343994140625,-191.74200439453125 C201.36099243164062,-155.08799743652344 206.74400329589844,-72.15699768066406 199.59800720214844,23.191999435424805 C192.45199584960938,118.54199981689453 179.32000732421875,221.906005859375 21.160999298095703,229.50999450683594 C-47.35499954223633,232.8040008544922 -114.69400024414062,207.71200561523438 -162.8520050048828,154.99200439453125z"></path><path stroke-linecap="butt" stroke-linejoin="miter" fill-opacity="0" stroke-miterlimit="10" stroke="rgb(182,94,49)" stroke-opacity="1" stroke-width="14" d=" M-162.8520050048828,154.99200439453125 C-196.63299560546875,118.01000213623047 -206.74400329589844,59.869998931884766 -191.7469940185547,-3.1679999828338623 C-178.718994140625,-57.92499923706055 -153.218994140625,-125.33599853515625 -92.89600372314453,-175.01400756835938 C-39.902000427246094,-218.656005859375 80.47100067138672,-232.80299377441406 144.343994140625,-191.74200439453125 C201.36099243164062,-155.08799743652344 206.74400329589844,-72.15699768066406 199.59800720214844,23.191999435424805 C192.45199584960938,118.54199981689453 179.32000732421875,221.906005859375 21.160999298095703,229.50999450683594 C-47.35499954223633,232.8040008544922 -114.69400024414062,207.71200561523438 -162.8520050048828,154.99200439453125z"></path></g><g opacity="1" transform="matrix(1,0,0,1,218.56900024414062,322.85198974609375)"><path fill="rgb(234,148,110)" fill-opacity="1" d=" M-123.1510009765625,-170.95599365234375 C-123.1510009765625,-170.95599365234375 -175.36399841308594,-13.303000450134277 -93.24299621582031,68.81800079345703 C-11.121000289916992,150.93899536132812 113.11399841308594,115.90899658203125 137.66000366210938,98.9800033569336 C181.76199340820312,68.56500244140625 188.6060028076172,37.388999938964844 197.7310028076172,15.083999633789062 C206.85499572753906,-7.21999979019165 212.43099975585938,-40.676998138427734 212.43099975585938,-40.676998138427734 C212.43099975585938,-40.676998138427734 212.08999633789062,12.887999534606934 194.68899536132812,63.749000549316406 C182.4340057373047,99.56700134277344 156.68699645996094,135.83599853515625 118.14399719238281,148.40499877929688 C48.9900016784668,170.9550018310547 -27.173999786376953,168.6999969482422 -87.16000366210938,133.70399475097656 C-114.4260025024414,117.7969970703125 -137.7570037841797,98.56800079345703 -156.60800170898438,65.7760009765625 C-212.43099975585938,-31.32699966430664 -123.1510009765625,-170.95599365234375 -123.1510009765625,-170.95599365234375z"></path></g></g><g style="display: block;" transform="matrix(0.9606001973152161,-0.047048408538103104,0.04689466208219528,0.9574610590934753,228.55068969726562,267.73248291015625)" opacity="1"><g opacity="1" transform="matrix(1,0,0,1,2.218994140625,-16.637001037597656)"><g opacity="1" transform="matrix(1,0,0,1,89.76000213623047,58.722999572753906)"><path fill="rgb(237,156,120)" fill-opacity="1" d=" M-52.38199996948242,-23.9950008392334 C-52.38199996948242,-23.9950008392334 -47.3129997253418,-11.489999771118164 -41.56800079345703,-5.744999885559082 C-35.823001861572266,0 -25.68400001525879,16.89699935913086 0,14.531000137329102 C25.68400001525879,12.164999961853027 36.4010009765625,-1.565999984741211 39.87799835205078,-8.111000061035156 C45.62300109863281,-18.926000595092773 44.60900115966797,-30.077999114990234 49.34000015258789,-27.374000549316406 C54.071998596191406,-24.67099952697754 49.678001403808594,-3.380000114440918 39.20199966430664,9.12399959564209 C28.725000381469727,21.628000259399414 18.586999893188477,30.077999114990234 -11.82800006866455,25.68400001525879 C-42.24399948120117,21.291000366210938 -49.34000015258789,-2.7039999961853027 -51.70600128173828,-7.0980000495910645 C-54.071998596191406,-11.491000175476074 -52.38199996948242,-23.9950008392334 -52.38199996948242,-23.9950008392334z"></path></g><g opacity="1" transform="matrix(1,0,0,1,89.08399963378906,62.566001892089844)"><path stroke-linecap="round" stroke-linejoin="round" fill-opacity="0" stroke="rgb(104,40,22)" stroke-opacity="1" stroke-width="13.025" d=" M-56.52199935913086,-23.52899932861328 C-56.52199935913086,-23.52899932861328 -52.07099914550781,17.46500015258789 -14.315999984741211,23.733999252319336 C23.437999725341797,30.003999710083008 47.60499954223633,2.322000026702881 52.303001403808594,-10.897000312805176 C56.52199935913086,-22.768999099731445 53.9010009765625,-30.003999710083008 53.9010009765625,-30.003999710083008"></path></g></g></g><g style="display: block;" transform="matrix(0.9606001973152161,-0.047048408538103104,0.04689466208219528,0.9574610590934753,158.1865692138672,73.33816528320312)" opacity="1"><g opacity="1" transform="matrix(1,0,0,1,0,0)"><g opacity="1" transform="matrix(1,0,0,1,87.56800079345703,102.52200317382812)"><path fill="rgb(237,156,120)" fill-opacity="1" d=" M-20.025999069213867,-53.04600143432617 C-7.679999828338623,-57.0989990234375 16.43400001525879,-59.60900115966797 35.13800048828125,-46.68199920654297 C64.47200012207031,-26.406999588012695 65.99299621582031,-2.6689999103546143 56.35300064086914,16.389999389648438 C45.1870002746582,38.46500015258789 10.491000175476074,59.608001708984375 -24.948999404907227,54.06800079345703 C-60.388999938964844,48.52799987792969 -65.99299621582031,26.003999710083008 -60.38800048828125,-1.3350000381469727 C-55.465999603271484,-25.343000411987305 -39.71500015258789,-46.582000732421875 -20.025999069213867,-53.04600143432617z"></path></g><g opacity="1" transform="matrix(1,0,0,1,90.92900085449219,88.41200256347656)"><path fill="rgb(255,255,255)" fill-opacity="1" d=" M-18.825000762939453,-52.96500015258789 C-7.218999862670898,-57.012001037597656 15.449000358581543,-59.518001556396484 33.03099822998047,-46.61000061035156 C60.60499954223633,-26.367000579833984 62.034000396728516,-2.6649999618530273 52.972999572753906,16.364999771118164 C42.47700119018555,38.40599822998047 9.862000465393066,59.516998291015625 -23.45199966430664,53.98500061035156 C-56.76499938964844,48.452999114990234 -62.034000396728516,25.964000701904297 -56.76499938964844,-1.3339999914169312 C-52.138999938964844,-25.30500030517578 -37.33300018310547,-46.51100158691406 -18.825000762939453,-52.96500015258789z"></path></g><g opacity="1" transform="matrix(1,0,0,1,90.92900085449219,88.41200256347656)"><path stroke-linecap="round" stroke-linejoin="round" fill-opacity="0" stroke="rgb(94,38,51)" stroke-opacity="1" stroke-width="11.558" d=" M-18.825000762939453,-52.96500015258789 C-7.218999862670898,-57.012001037597656 15.449000358581543,-59.518001556396484 33.03099822998047,-46.61000061035156 C60.60499954223633,-26.367000579833984 62.034000396728516,-2.6649999618530273 52.972999572753906,16.364999771118164 C42.47700119018555,38.40599822998047 9.862000465393066,59.516998291015625 -23.45199966430664,53.98500061035156 C-56.76499938964844,48.452999114990234 -62.034000396728516,25.964000701904297 -56.76499938964844,-1.3339999914169312 C-52.138999938964844,-25.30500030517578 -37.33300018310547,-46.51100158691406 -18.825000762939453,-52.96500015258789z"></path></g><g opacity="1" transform="matrix(1,0,0,1,0,0)"><g opacity="1" transform="matrix(1,0,0,1,57.8489990234375,74.802001953125)"><path fill="rgb(37,14,61)" fill-opacity="1" d=" M-9.805999755859375,-23.66200065612793 C-9.805999755859375,-23.66200065612793 7.004000186920166,-25.888999938964844 17.09000015258789,-13.640000343322754 C27.176000595092773,-1.3919999599456787 15.968999862670898,13.640000343322754 1.9609999656677246,19.764999389648438 C-12.04699993133545,25.888999938964844 -21.572999954223633,16.981000900268555 -24.375,10.857000350952148 C-27.176000595092773,4.73199987411499 -22.132999420166016,-8.072999954223633 -17.650999069213867,-13.640000343322754 C-13.168000221252441,-19.20800018310547 -9.805999755859375,-23.66200065612793 -9.805999755859375,-23.66200065612793z"></path></g><g opacity="1" transform="matrix(1,0,0,1,70.3290023803711,80.88200378417969)"><path fill="rgb(255,255,255)" fill-opacity="1" d=" M-7.422999858856201,0 C-7.422999858856201,-4.099999904632568 -4.099999904632568,-7.422999858856201 0,-7.422999858856201 C4.098999977111816,-7.422999858856201 7.422999858856201,-4.099999904632568 7.422999858856201,0 C7.422999858856201,4.099999904632568 4.098999977111816,7.422999858856201 0,7.422999858856201 C-4.099999904632568,7.422999858856201 -7.422999858856201,4.099999904632568 -7.422999858856201,0z"></path></g><g opacity="1" transform="matrix(1,0,0,1,47.845001220703125,61.41400146484375)"><path fill="rgb(255,255,255)" fill-opacity="1" d=" M-3.239000082015991,1.2209999561309814 C-3.871000051498413,-0.45500001311302185 -2.933000087738037,-2.3610000610351562 -1.1440000534057617,-3.0350000858306885 C0.6449999809265137,-3.7090001106262207 2.6070001125335693,-2.8980000019073486 3.239000082015991,-1.2209999561309814 C3.871000051498413,0.45500001311302185 2.933000087738037,2.359999895095825 1.1440000534057617,3.0350000858306885 C-0.6449999809265137,3.7090001106262207 -2.6070001125335693,2.8970000743865967 -3.239000082015991,1.2209999561309814z"></path></g><g opacity="1" transform="matrix(1,0,0,1,48.689998626708984,85.99199676513672)"><path fill="rgb(74,58,112)" fill-opacity="1" d=" M-9.800999641418457,-6.498000144958496 C-7.046000003814697,-7.696000099182129 -2.871999979019165,-7.173999786376953 4.394000053405762,-6.835999965667725 C11.65999984741211,-6.498000144958496 14.869000434875488,-3.625 10.814000129699707,0.9369999766349792 C6.757999897003174,5.499000072479248 -1.0140000581741333,7.696000099182129 -7.941999912261963,3.302000045776367 C-14.869999885559082,-1.090999960899353 -11.972000122070312,-5.553999900817871 -9.800999641418457,-6.498000144958496z"></path></g></g><g opacity="1" transform="matrix(1,0,0,1,88.77899932861328,110.13700103759766)"><path fill="rgb(200,197,216)" fill-opacity="1" d=" M-50.058998107910156,-9.182999610900879 C-50.058998107910156,-9.182999610900879 -45.75,16.41699981689453 -14.574000358581543,18.444000244140625 C3.2190001010894775,19.601999282836914 28.513999938964844,8.305999755859375 39.91999816894531,-5.38100004196167 C51.32500076293945,-19.06800079345703 53.354000091552734,-31.740999221801758 53.354000091552734,-31.740999221801758 C53.354000091552734,-31.740999221801758 56.64899826049805,-21.09600067138672 49.29899978637695,-7.15500020980835 C43.95800018310547,2.9739999771118164 16.93600082397461,31.740999221801758 -17.363000869750977,27.315000534057617 C-56.64899826049805,22.246000289916992 -50.058998107910156,-9.182999610900879 -50.058998107910156,-9.182999610900879z"></path></g></g><g opacity="1" transform="matrix(1.0358599424362183,0,0,1.0500199794769287,-2.95697021484375,-5.8531341552734375)"><g opacity="1" transform="matrix(1,0,0,1,239.6820068359375,147.61199951171875)"><path fill="rgb(237,156,120)" fill-opacity="1" d=" M-15.427000045776367,-51.72800064086914 C-4.361999988555908,-59.8120002746582 13.571999549865723,-74.43000030517578 33.23699951171875,-69.97699737548828 C58.196998596191406,-64.32499694824219 71.18900299072266,-22.31999969482422 70.98699951171875,7.067999839782715 C70.75,41.547000885009766 44.54800033569336,74.43000030517578 1.3009999990463257,45.095001220703125 C-71.18800354003906,-4.076000213623047 -28.834999084472656,-41.930999755859375 -15.427000045776367,-51.72800064086914z"></path></g><g opacity="1" transform="matrix(1,0,0,1,241.70899963378906,135.4459991455078)"><path fill="rgb(255,255,255)" fill-opacity="1" d=" M-15.427000045776367,-51.72800064086914 C-4.361999988555908,-59.8120002746582 13.571999549865723,-74.43000030517578 33.23699951171875,-69.97699737548828 C58.196998596191406,-64.32499694824219 71.18900299072266,-22.31999969482422 70.98699951171875,7.067999839782715 C70.75,41.547000885009766 44.54800033569336,74.43000030517578 1.3009999990463257,45.095001220703125 C-71.18800354003906,-4.076000213623047 -28.834999084472656,-41.930999755859375 -15.427000045776367,-51.72800064086914z"></path><path stroke-linecap="round" stroke-linejoin="round" fill-opacity="0" stroke="rgb(94,38,51)" stroke-opacity="1" stroke-width="11.164" d=" M-15.427000045776367,-51.72800064086914 C-4.361999988555908,-59.8120002746582 13.571999549865723,-74.43000030517578 33.23699951171875,-69.97699737548828 C58.196998596191406,-64.32499694824219 71.18900299072266,-22.31999969482422 70.98699951171875,7.067999839782715 C70.75,41.547000885009766 44.54800033569336,74.43000030517578 1.3009999990463257,45.095001220703125 C-71.18800354003906,-4.076000213623047 -28.834999084472656,-41.930999755859375 -15.427000045776367,-51.72800064086914z"></path></g><g opacity="1" transform="matrix(1,0,0,1,255.5540008544922,153.0570068359375)"><path fill="rgb(200,197,216)" fill-opacity="1" d=" M-43.59299850463867,-20.801000595092773 C-38.435001373291016,-10.486000061035156 -29.44099998474121,-2.424999952316284 -15.248000144958496,6.698999881744385 C-1.0540000200271606,15.824000358581543 12.802000045776367,24.780000686645508 26.996000289916992,23.42799949645996 C41.189998626708984,22.076000213623047 49.29999923706055,4.164999961853027 49.29999923706055,4.164999961853027 C49.29999923706055,4.164999961853027 46.428001403808594,20.725000381469727 33.07899856567383,29.0049991607666 C19.729999542236328,37.28499984741211 4.690999984741211,31.031999588012695 -6.630000114440918,24.948999404907227 C-17.951000213623047,18.865999221801758 -41.564998626708984,0.49000000953674316 -47.14099884033203,-21.054000854492188 C-49.29999923706055,-29.395999908447266 -46.676998138427734,-36.55799865722656 -46.676998138427734,-36.55799865722656 C-47.22600173950195,-37.28499984741211 -47.14099884033203,-27.898000717163086 -43.59299850463867,-20.801000595092773z"></path></g><g opacity="1" transform="matrix(1,0,0,1,0,0)"><g opacity="1" transform="matrix(1,0,0,1,289.28399658203125,108.9260025024414)"><path fill="rgb(37,14,61)" fill-opacity="1" d=" M6.8480000495910645,-23.82200050354004 C6.8480000495910645,-23.82200050354004 -4.959000110626221,-26.11199951171875 -12.043000221252441,-20.156999588012695 C-19.125999450683594,-14.20199966430664 -23.849000930786133,5.039000034332275 -12.043000221252441,15.574999809265137 C-0.23600000143051147,26.111000061035156 12.043000221252441,25.195999145507812 17.709999084472656,19.698999404907227 C23.37700080871582,14.20199966430664 23.849000930786133,6.870999813079834 20.54400062561035,-0.45899999141693115 C17.238000869750977,-7.788000106811523 6.8480000495910645,-23.82200050354004 6.8480000495910645,-23.82200050354004z"></path></g><g opacity="1" transform="matrix(1,0,0,1,301.4739990234375,98.75299835205078)"><path fill="rgb(255,255,255)" fill-opacity="1" d=" M-3.239000082015991,1.2209999561309814 C-3.871000051498413,-0.45500001311302185 -2.933000087738037,-2.3610000610351562 -1.1440000534057617,-3.0350000858306885 C0.6449999809265137,-3.7090001106262207 2.6070001125335693,-2.8970000743865967 3.239000082015991,-1.2209999561309814 C3.871000051498413,0.45500001311302185 2.933000087738037,2.359999895095825 1.1440000534057617,3.0350000858306885 C-0.6449999809265137,3.7090001106262207 -2.6070001125335693,2.8970000743865967 -3.239000082015991,1.2209999561309814z"></path></g><g opacity="1" transform="matrix(1,0,0,1,292.9739990234375,121.29900360107422)"><path fill="rgb(74,58,112)" fill-opacity="1" d=" M-10.432000160217285,-8.244999885559082 C-7.499000072479248,-9.765000343322754 -3.058000087738037,-9.102999687194824 4.676000118255615,-8.673999786376953 C12.41100025177002,-8.244999885559082 15.829000473022461,-4.599999904632568 11.51200008392334,1.1890000104904175 C7.195000171661377,6.978000164031982 -1.0800000429153442,9.765000343322754 -8.454000473022461,4.190999984741211 C-15.829000473022461,-1.3839999437332153 -12.743000030517578,-7.046999931335449 -10.432000160217285,-8.244999885559082z"></path></g><g opacity="1" transform="matrix(1,0,0,1,272.28399658203125,114.2040023803711)"><path fill="rgb(255,255,255)" fill-opacity="1" d=" M-8.567999839782715,3.2300000190734863 C-9.78600025177002,-0.0020000000949949026 -6.938000202178955,-4.066999912261963 -2.2070000171661377,-5.85099983215332 C2.5250000953674316,-7.635000228881836 7.348999977111816,-6.461999893188477 8.567000389099121,-3.2309999465942383 C9.78600025177002,0.0010000000474974513 6.938000202178955,4.066999912261963 2.2060000896453857,5.85099983215332 C-2.5260000228881836,7.635000228881836 -7.349999904632568,6.461999893188477 -8.567999839782715,3.2300000190734863z"></path></g></g></g></g><g style="display: block;" transform="matrix(1.029553771018982,-0.12236616015434265,0.12069392949342728,1.0115643739700317,232.65966796875,203.58168029785156)" opacity="1"><g opacity="0" transform="matrix(1,0,0,1,0,0)"><path fill="rgb(249,204,171)" fill-opacity="1" d=" M45.51100158691406,-104 C6.511000156402588,-108.5 -10.00100040435791,-80.49800109863281 -22,-49 C-28.075000762939453,-33.051998138427734 -7.9730000495910645,-118.56199645996094 48.08399963378906,-104.5 C115.85199737548828,-87.5 89.16899871826172,-1.6729999780654907 95,-30.5 C100.46199798583984,-57.5 84.51100158691406,-99.5 45.51100158691406,-104z"></path><path stroke-linecap="butt" stroke-linejoin="miter" fill-opacity="0" stroke-miterlimit="4" stroke="rgb(182,94,49)" stroke-opacity="1" stroke-width="12" d=" M45.51100158691406,-104 C6.511000156402588,-108.5 -10.00100040435791,-80.49800109863281 -22,-49 C-28.075000762939453,-33.051998138427734 -7.9730000495910645,-118.56199645996094 48.08399963378906,-104.5 C115.85199737548828,-87.5 89.16899871826172,-1.6729999780654907 95,-30.5 C100.46199798583984,-57.5 84.51100158691406,-99.5 45.51100158691406,-104z"></path></g></g><g style="display: block;" transform="matrix(1.029553771018982,-0.12236616015434265,0.12069392949342728,1.0115643739700317,232.87039184570312,203.55667114257812)" opacity="1"><g opacity="0" transform="matrix(1,0,0,1,0,0)"><path fill="rgb(249,204,171)" fill-opacity="1" d=" M224.5070037841797,-36 C207.61199951171875,-57.31700134277344 175.9949951171875,-45 163.4949951171875,-29 C150.9949951171875,-13 147.4010009765625,6.122000217437744 149.93600463867188,8.5 C151.0019989013672,9.5 160.74099731445312,-62 216.11700439453125,-41 C259.84600830078125,-24.41699981689453 235.93299865722656,49.106998443603516 239.98399353027344,33.5 C244.5260009765625,16 243.9250030517578,-11.5 224.5070037841797,-36z"></path><path stroke-linecap="butt" stroke-linejoin="miter" fill-opacity="0" stroke-miterlimit="4" stroke="rgb(182,94,49)" stroke-opacity="1" stroke-width="12" d=" M224.5070037841797,-36 C207.61199951171875,-57.31700134277344 175.9949951171875,-45 163.4949951171875,-29 C150.9949951171875,-13 147.4010009765625,6.122000217437744 149.93600463867188,8.5 C151.0019989013672,9.5 160.74099731445312,-62 216.11700439453125,-41 C259.84600830078125,-24.41699981689453 235.93299865722656,49.106998443603516 239.98399353027344,33.5 C244.5260009765625,16 243.9250030517578,-11.5 224.5070037841797,-36z"></path></g></g><g style="display: block;" transform="matrix(0.9156022071838379,-0.2533232271671295,0.2533232271671295,0.9156022071838379,12.097297668457031,282.1601257324219)" opacity="1"><g opacity="1" transform="matrix(1,0,0,1,110.51599884033203,72.02999877929688)"><path fill="rgb(235,160,130)" fill-opacity="1" d=" M-16.41900062561035,42.95800018310547 C-16.41900062561035,42.95800018310547 -14.246000289916992,7.406000137329102 -15.331000328063965,-9.73900032043457 C-16.415000915527344,-26.882999420166016 -18.822999954223633,-40.577999114990234 -8.859000205993652,-41.768001556396484 C1.1039999723434448,-42.95800018310547 13.836000442504883,-33.15399932861328 16.617000579833984,-13.35200023651123 C18.823999404907227,2.3559999465942383 16.649999618530273,27.128999710083008 16.649999618530273,27.128999710083008"></path><path stroke-linecap="round" stroke-linejoin="round" fill-opacity="0" stroke="rgb(182,94,49)" stroke-opacity="1" stroke-width="13" d=" M-16.41900062561035,42.95800018310547 C-16.41900062561035,42.95800018310547 -14.246000289916992,7.406000137329102 -15.331000328063965,-9.73900032043457 C-16.415000915527344,-26.882999420166016 -18.822999954223633,-40.577999114990234 -8.859000205993652,-41.768001556396484 C1.1039999723434448,-42.95800018310547 13.836000442504883,-33.15399932861328 16.617000579833984,-13.35200023651123 C18.823999404907227,2.3559999465942383 16.649999618530273,27.128999710083008 16.649999618530273,27.128999710083008"></path></g><g opacity="1" transform="matrix(1,0,0,1,118.43199920654297,171.35499572753906)"><path fill="rgb(249,196,159)" fill-opacity="1" d=" M1.5720000267028809,-50.678001403808594 C1.5720000267028809,-50.678001403808594 26.43400001525879,-76.62899780273438 32.99399948120117,-81.72200012207031 C39.553001403808594,-86.81500244140625 47.18299865722656,-85.11699676513672 52.369998931884766,-79.76200103759766 C57.55699920654297,-74.40599822998047 56.426998138427734,-60.823001861572266 56.426998138427734,-60.823001861572266 C56.426998138427734,-60.823001861572266 70.31300354003906,-63.79999923706055 75.51799774169922,-56.685001373291016 C82.177001953125,-47.58599853515625 69.48400115966797,-22.089000701904297 69.48400115966797,-22.089000701904297 C69.48400115966797,-22.089000701904297 78.37799835205078,-26.906999588012695 85.0979995727539,-23.152000427246094 C88.7040023803711,-21.136999130249023 92.43399810791016,-17.155000686645508 90.71600341796875,-10.684000015258789 C88.21800231933594,-1.2680000066757202 83.59300231933594,6.644000053405762 72.66500091552734,21.722999572753906 C60.54999923706055,38.439998626708984 55.49700164794922,43.75699996948242 41.111000061035156,57.46200180053711 C12.25100040435791,84.95700073242188 -25.82900047302246,86.81500244140625 -53.37900161743164,63.29499816894531 C-92.43499755859375,29.951000213623047 -71.87799835205078,-15.800999641418457 -54.08599853515625,-36.65399932861328 C-36.292999267578125,-57.50600051879883 -34.777000427246094,-61.28900146484375 -30.01799964904785,-62.63800048828125 C-25.259000778198242,-63.987998962402344 1.5720000267028809,-50.678001403808594 1.5720000267028809,-50.678001403808594z"></path><path stroke-linecap="round" stroke-linejoin="round" fill-opacity="0" stroke="rgb(182,94,49)" stroke-opacity="1" stroke-width="13" d=" M1.5720000267028809,-50.678001403808594 C1.5720000267028809,-50.678001403808594 26.43400001525879,-76.62899780273438 32.99399948120117,-81.72200012207031 C39.553001403808594,-86.81500244140625 47.18299865722656,-85.11699676513672 52.369998931884766,-79.76200103759766 C57.55699920654297,-74.40599822998047 56.426998138427734,-60.823001861572266 56.426998138427734,-60.823001861572266 C56.426998138427734,-60.823001861572266 70.31300354003906,-63.79999923706055 75.51799774169922,-56.685001373291016 C82.177001953125,-47.58599853515625 69.48400115966797,-22.089000701904297 69.48400115966797,-22.089000701904297 C69.48400115966797,-22.089000701904297 78.37799835205078,-26.906999588012695 85.0979995727539,-23.152000427246094 C88.7040023803711,-21.136999130249023 92.43399810791016,-17.155000686645508 90.71600341796875,-10.684000015258789 C88.21800231933594,-1.2680000066757202 83.59300231933594,6.644000053405762 72.66500091552734,21.722999572753906 C60.54999923706055,38.439998626708984 55.49700164794922,43.75699996948242 41.111000061035156,57.46200180053711 C12.25100040435791,84.95700073242188 -25.82900047302246,86.81500244140625 -53.37900161743164,63.29499816894531 C-92.43499755859375,29.951000213623047 -71.87799835205078,-15.800999641418457 -54.08599853515625,-36.65399932861328 C-36.292999267578125,-57.50600051879883 -34.777000427246094,-61.28900146484375 -30.01799964904785,-62.63800048828125 C-25.259000778198242,-63.987998962402344 1.5720000267028809,-50.678001403808594 1.5720000267028809,-50.678001403808594z"></path></g><g opacity="1" transform="matrix(1,0,0,1,131.8090057373047,75.46499633789062)"><path fill="rgb(249,196,159)" fill-opacity="1" d=" M-50.88399887084961,39.32600021362305 C-50.88399887084961,39.32600021362305 -18.246999740600586,0.12200000137090683 -2.5460000038146973,-17.542999267578125 C11.366999626159668,-33.19599914550781 26.18899917602539,-49.46799850463867 37.66299819946289,-42.4109992980957 C50.88399887084961,-34.28099822998047 41.819000244140625,-18.020000457763672 33.090999603271484,-6.252999782562256 C24.36199951171875,5.513999938964844 6.067999839782715,24.29599952697754 -1.4390000104904175,32.73099899291992 C-7.665999889373779,39.72800064086914 -15.27400016784668,49.46799850463867 -15.27400016784668,49.46799850463867"></path><path stroke-linecap="round" stroke-linejoin="round" fill-opacity="0" stroke="rgb(182,94,49)" stroke-opacity="1" stroke-width="13" d=" M-50.88399887084961,39.32600021362305 C-50.88399887084961,39.32600021362305 -18.246999740600586,0.12200000137090683 -2.5460000038146973,-17.542999267578125 C11.366999626159668,-33.19599914550781 26.18899917602539,-49.46799850463867 37.66299819946289,-42.4109992980957 C50.88399887084961,-34.28099822998047 41.819000244140625,-18.020000457763672 33.090999603271484,-6.252999782562256 C24.36199951171875,5.513999938964844 6.067999839782715,24.29599952697754 -1.4390000104904175,32.73099899291992 C-7.665999889373779,39.72800064086914 -15.27400016784668,49.46799850463867 -15.27400016784668,49.46799850463867"></path></g><g opacity="1" transform="matrix(1,0,0,1,161.14999389648438,125.21700286865234)"><path stroke-linecap="round" stroke-linejoin="round" fill-opacity="0" stroke="rgb(182,94,49)" stroke-opacity="1" stroke-width="13" d=" M14.185999870300293,-18.31399917602539 C14.185999870300293,-18.31399917602539 12.642000198364258,-13.204999923706055 3.247999906539917,-1.4800000190734863 C-6.145999908447266,10.246000289916992 -14.187000274658203,18.31399917602539 -14.187000274658203,18.31399917602539"></path></g><g opacity="1" transform="matrix(1,0,0,1,183.71299743652344,145.197998046875)"><path stroke-linecap="round" stroke-linejoin="round" fill-opacity="0" stroke="rgb(182,94,49)" stroke-opacity="1" stroke-width="13" d=" M11.782999992370605,-24.833999633789062 C11.782999992370605,-24.833999633789062 14.48799991607666,-9.532999992370605 5.093999862670898,2.191999912261963 C-4.300000190734863,13.916999816894531 -14.48900032043457,24.833999633789062 -14.48900032043457,24.833999633789062"></path></g><g opacity="1" transform="matrix(1,0,0,1,103.16899871826172,196.20599365234375)"><path fill="rgb(234,149,111)" fill-opacity="1" d=" M-39.04199981689453,-54.22700119018555 C-39.04199981689453,-54.22700119018555 -60.77000045776367,-3.882999897003174 -27.905000686645508,24.94099998474121 C-6.572999954223633,43.64899826049805 25.222999572753906,41.52799987792969 42.11800003051758,32.382999420166016 C63.72600173950195,20.687999725341797 79.48200225830078,-3.569999933242798 80.5250015258789,-3.2070000171661377 C80.81400299072266,-3.1070001125335693 66.16200256347656,23.722000122070312 39.345001220703125,39.689998626708984 C14.930999755859375,54.22800064086914 -11.420999526977539,53.689998626708984 -33.54999923706055,36.82600021362305 C-80.81500244140625,0.8080000281333923 -39.04199981689453,-54.22700119018555 -39.04199981689453,-54.22700119018555z"></path></g><g opacity="1" transform="matrix(1,0,0,1,156.47500610351562,118.31999969482422)"><path fill="rgb(234,149,111)" fill-opacity="1" d=" M10.196999549865723,-23.520000457763672 C10.196999549865723,-23.520000457763672 10.732000350952148,-16.801000595092773 6.158999919891357,-8.557999610900879 C1.5850000381469727,-0.3160000145435333 -11.333999633789062,13.331999778747559 -13.878000259399414,16.089000701904297 C-16.422000885009766,18.84600067138672 -14.63599967956543,23.520000457763672 -14.63599967956543,23.520000457763672 C-14.63599967956543,23.520000457763672 9.180999755859375,-0.8370000123977661 12.739999771118164,-9.66100025177002 C16.422000885009766,-18.790000915527344 10.196999549865723,-23.520000457763672 10.196999549865723,-23.520000457763672z"></path></g><g opacity="1" transform="matrix(1,0,0,1,178.4929962158203,142.3719940185547)"><path fill="rgb(234,149,111)" fill-opacity="1" d=" M10.770000457763672,-25.236000061035156 C10.770000457763672,-25.236000061035156 10.484000205993652,-16.413000106811523 5.909999847412109,-8.170000076293945 C1.3370000123977661,0.0729999989271164 -11.211999893188477,14.222999572753906 -13.461999893188477,17.23200035095215 C-16.770999908447266,21.658000946044922 -14.07699966430664,25.236000061035156 -14.07699966430664,25.236000061035156 C-14.07699966430664,25.236000061035156 6.771999835968018,4.751999855041504 11.654999732971191,-7.059000015258789 C16.770999908447266,-19.437999725341797 10.770000457763672,-25.236000061035156 10.770000457763672,-25.236000061035156z"></path></g><g opacity="1" transform="matrix(1,0,0,1,140.83999633789062,80.17500305175781)"><path fill="rgb(234,149,111)" fill-opacity="1" d=" M25.836000442504883,-42.73899841308594 C25.836000442504883,-42.73899841308594 28.051000595092773,-38.00699996948242 23.677000045776367,-31.288000106811523 C20.31100082397461,-26.115999221801758 -3.4760000705718994,3.565000057220459 -15.265999794006348,18.583999633789062 C-27.05699920654297,33.60300064086914 -30.636999130249023,38.43600082397461 -30.437000274658203,40.23500061035156 C-30.23699951171875,42.03499984741211 -29.1299991607666,42.73899841308594 -29.1299991607666,42.73899841308594 C-29.1299991607666,42.73899841308594 5.0269999504089355,5.566999912261963 17.910999298095703,-11.763999938964844 C30.631000518798828,-28.87299919128418 30.636999130249023,-32.78300094604492 30.322999954223633,-37.03499984741211 C30.009000778198242,-41.2869987487793 25.836000442504883,-42.73899841308594 25.836000442504883,-42.73899841308594z"></path></g></g><g style="display: none;"><g><path stroke-linecap="butt" stroke-linejoin="miter" fill-opacity="0" stroke-miterlimit="10"></path><path stroke-linecap="butt" stroke-linejoin="miter" fill-opacity="0" stroke-miterlimit="10"></path><path stroke-linecap="butt" stroke-linejoin="miter" fill-opacity="0" stroke-miterlimit="10"></path><path stroke-linecap="butt" stroke-linejoin="miter" fill-opacity="0" stroke-miterlimit="10"></path></g></g><g style="display: none;"><g><path stroke-linecap="butt" stroke-linejoin="miter" fill-opacity="0" stroke-miterlimit="10"></path><path stroke-linecap="butt" stroke-linejoin="miter" fill-opacity="0" stroke-miterlimit="10"></path><path stroke-linecap="butt" stroke-linejoin="miter" fill-opacity="0" stroke-miterlimit="10"></path><path stroke-linecap="butt" stroke-linejoin="miter" fill-opacity="0" stroke-miterlimit="10"></path></g></g><g style="display: block;" transform="matrix(0.4308716952800751,-0.019505484029650688,0.019505484029650688,0.4308716952800751,416.2996520996094,14.935562133789062)" opacity="0.013583287873800032"><g opacity="1" transform="matrix(1,0,0,1,101.1989974975586,92.61199951171875)"><path stroke-linecap="butt" stroke-linejoin="miter" fill-opacity="0" stroke-miterlimit="10" stroke="rgb(255,39,147)" stroke-opacity="0.19" stroke-width="55.03907034877833" d=" M-7.085000038146973,63.46699905395508 C-12.180999755859375,66.85299682617188 -19.176000595092773,65.6520004272461 -22.823999404907227,60.763999938964844 C-36.25899887084961,42.76599884033203 -56.73500061035156,12.87399959564209 -66.1719970703125,-12.065999984741211 C-80.00700378417969,-48.632999420166016 -50.78799819946289,-66.85299682617188 -27.680999755859375,-59.58100128173828 C-6.693999767303467,-52.974998474121094 -3.3239998817443848,-30.844999313354492 -0.3070000112056732,-30.940000534057617 C2.7109999656677246,-31.035999298095703 15.98799991607666,-52.52399826049805 42.965999603271484,-48.09299850463867 C62.59700012207031,-44.86899948120117 80.00700378417969,-20.625999450683594 59.83599853515625,3.8420000076293945 C48.82400131225586,17.200000762939453 12.741999626159668,50.29600143432617 -7.085000038146973,63.46699905395508z"></path><path stroke-linecap="butt" stroke-linejoin="miter" fill-opacity="0" stroke-miterlimit="10" stroke="rgb(255,39,147)" stroke-opacity="0.27" stroke-width="39.80579118247661" d=" M-7.085000038146973,63.46699905395508 C-12.180999755859375,66.85299682617188 -19.176000595092773,65.6520004272461 -22.823999404907227,60.763999938964844 C-36.25899887084961,42.76599884033203 -56.73500061035156,12.87399959564209 -66.1719970703125,-12.065999984741211 C-80.00700378417969,-48.632999420166016 -50.78799819946289,-66.85299682617188 -27.680999755859375,-59.58100128173828 C-6.693999767303467,-52.974998474121094 -3.3239998817443848,-30.844999313354492 -0.3070000112056732,-30.940000534057617 C2.7109999656677246,-31.035999298095703 15.98799991607666,-52.52399826049805 42.965999603271484,-48.09299850463867 C62.59700012207031,-44.86899948120117 80.00700378417969,-20.625999450683594 59.83599853515625,3.8420000076293945 C48.82400131225586,17.200000762939453 12.741999626159668,50.29600143432617 -7.085000038146973,63.46699905395508z"></path><path stroke-linecap="butt" stroke-linejoin="miter" fill-opacity="0" stroke-miterlimit="10" stroke="rgb(255,39,147)" stroke-opacity="0.4" stroke-width="29.175" d=" M-7.085000038146973,63.46699905395508 C-12.180999755859375,66.85299682617188 -19.176000595092773,65.6520004272461 -22.823999404907227,60.763999938964844 C-36.25899887084961,42.76599884033203 -56.73500061035156,12.87399959564209 -66.1719970703125,-12.065999984741211 C-80.00700378417969,-48.632999420166016 -50.78799819946289,-66.85299682617188 -27.680999755859375,-59.58100128173828 C-6.693999767303467,-52.974998474121094 -3.3239998817443848,-30.844999313354492 -0.3070000112056732,-30.940000534057617 C2.7109999656677246,-31.035999298095703 15.98799991607666,-52.52399826049805 42.965999603271484,-48.09299850463867 C62.59700012207031,-44.86899948120117 80.00700378417969,-20.625999450683594 59.83599853515625,3.8420000076293945 C48.82400131225586,17.200000762939453 12.741999626159668,50.29600143432617 -7.085000038146973,63.46699905395508z"></path><path stroke-linecap="butt" stroke-linejoin="miter" fill-opacity="0" stroke-miterlimit="10" stroke="rgb(255,39,147)" stroke-opacity="0.76" stroke-width="12.764" d=" M-7.085000038146973,63.46699905395508 C-12.180999755859375,66.85299682617188 -19.176000595092773,65.6520004272461 -22.823999404907227,60.763999938964844 C-36.25899887084961,42.76599884033203 -56.73500061035156,12.87399959564209 -66.1719970703125,-12.065999984741211 C-80.00700378417969,-48.632999420166016 -50.78799819946289,-66.85299682617188 -27.680999755859375,-59.58100128173828 C-6.693999767303467,-52.974998474121094 -3.3239998817443848,-30.844999313354492 -0.3070000112056732,-30.940000534057617 C2.7109999656677246,-31.035999298095703 15.98799991607666,-52.52399826049805 42.965999603271484,-48.09299850463867 C62.59700012207031,-44.86899948120117 80.00700378417969,-20.625999450683594 59.83599853515625,3.8420000076293945 C48.82400131225586,17.200000762939453 12.741999626159668,50.29600143432617 -7.085000038146973,63.46699905395508z"></path></g></g></g><g clip-path="url(#__lottie_element_4)" style="display: none;"><g style="display: none;"><g><path></path><path stroke-linecap="round" stroke-linejoin="round" fill-opacity="0"></path></g><g><path></path><path stroke-linecap="round" stroke-linejoin="round" fill-opacity="0"></path></g><g><path></path><path stroke-linecap="round" stroke-linejoin="round" fill-opacity="0"></path></g><g><path stroke-linecap="round" stroke-linejoin="round" fill-opacity="0"></path></g><g><path stroke-linecap="round" stroke-linejoin="round" fill-opacity="0"></path></g><g><path></path></g><g><path></path></g><g><path></path></g><g><path></path></g></g><g style="display: none;"><g><path></path><path stroke-linecap="round" stroke-linejoin="round" fill-opacity="0"></path></g><g><path></path><path stroke-linecap="round" stroke-linejoin="round" fill-opacity="0"></path></g><g><path></path><path stroke-linecap="round" stroke-linejoin="round" fill-opacity="0"></path></g><g><path stroke-linecap="round" stroke-linejoin="round" fill-opacity="0"></path></g><g><path stroke-linecap="round" stroke-linejoin="round" fill-opacity="0"></path></g><g><path></path></g><g><path></path></g><g><path></path></g><g><path></path></g></g><g style="display: none;"><g><path fill="url(#__lottie_element_26)"></path><path stroke-linecap="butt" stroke-linejoin="miter" fill-opacity="0" stroke-miterlimit="10"></path></g><g><path></path></g></g><g style="display: none;"><g><g><path></path></g><g><path stroke-linecap="round" stroke-linejoin="round" fill-opacity="0"></path></g></g></g><g style="display: none;"><g><g><path></path></g><g><path></path></g><g><path stroke-linecap="round" stroke-linejoin="round" fill-opacity="0"></path></g><g><g><path></path></g><g><path></path></g><g><path></path></g><g><path></path></g></g><g><path></path></g></g><g><g><path></path></g><g><path></path><path stroke-linecap="round" stroke-linejoin="round" fill-opacity="0"></path></g><g><path></path></g><g><g><path></path></g><g><path></path></g><g><path></path></g><g><path></path></g></g></g></g><g style="display: none;"><g><path></path><path stroke-linecap="butt" stroke-linejoin="miter" fill-opacity="0" stroke-miterlimit="4"></path></g></g><g style="display: none;"><g><path></path><path stroke-linecap="butt" stroke-linejoin="miter" fill-opacity="0" stroke-miterlimit="4"></path></g></g><g style="display: none;"><g><path></path><path stroke-linecap="round" stroke-linejoin="round" fill-opacity="0"></path></g><g><path></path><path stroke-linecap="round" stroke-linejoin="round" fill-opacity="0"></path></g><g><path></path><path stroke-linecap="round" stroke-linejoin="round" fill-opacity="0"></path></g><g><path stroke-linecap="round" stroke-linejoin="round" fill-opacity="0"></path></g><g><path stroke-linecap="round" stroke-linejoin="round" fill-opacity="0"></path></g><g><path></path></g><g><path></path></g><g><path></path></g><g><path></path></g></g><g style="display: none;"><g><path stroke-linecap="butt" stroke-linejoin="miter" fill-opacity="0" stroke-miterlimit="10"></path><path stroke-linecap="butt" stroke-linejoin="miter" fill-opacity="0" stroke-miterlimit="10"></path><path stroke-linecap="butt" stroke-linejoin="miter" fill-opacity="0" stroke-miterlimit="10"></path><path stroke-linecap="butt" stroke-linejoin="miter" fill-opacity="0" stroke-miterlimit="10"></path></g></g><g style="display: none;"><g><path stroke-linecap="butt" stroke-linejoin="miter" fill-opacity="0" stroke-miterlimit="10"></path><path stroke-linecap="butt" stroke-linejoin="miter" fill-opacity="0" stroke-miterlimit="10"></path><path stroke-linecap="butt" stroke-linejoin="miter" fill-opacity="0" stroke-miterlimit="10"></path><path stroke-linecap="butt" stroke-linejoin="miter" fill-opacity="0" stroke-miterlimit="10"></path></g></g><g style="display: none;"><g><path stroke-linecap="butt" stroke-linejoin="miter" fill-opacity="0" stroke-miterlimit="10"></path><path stroke-linecap="butt" stroke-linejoin="miter" fill-opacity="0" stroke-miterlimit="10"></path><path stroke-linecap="butt" stroke-linejoin="miter" fill-opacity="0" stroke-miterlimit="10"></path><path stroke-linecap="butt" stroke-linejoin="miter" fill-opacity="0" stroke-miterlimit="10"></path></g></g></g></g></svg>