<svg xmlns="http://www.w3.org/2000/svg" xmlns:xlink="http://www.w3.org/1999/xlink" viewBox="0 0 512 512" width="512" height="512" style="width: 100%; height: 100%; transform: translate3d(0,0,0); content-visibility: visible;" preserveAspectRatio="xMidYMid meet"><defs><clipPath id="__lottie_element_2"><rect width="512" height="512" x="0" y="0"></rect></clipPath><clipPath id="__lottie_element_4"><path d="M0,0 L512,0 L512,512 L0,512z"></path></clipPath><radialGradient id="__lottie_element_16" spreadMethod="pad" gradientUnits="userSpaceOnUse" cx="-29.520999908447266" cy="-154.8979949951172" r="243.00525360457786" fx="-29.520999908447266" fy="-154.8979949951172"><stop offset="0%" stop-color="rgb(253,213,206)"></stop><stop offset="50%" stop-color="rgb(246,185,174)"></stop><stop offset="100%" stop-color="rgb(239,157,143)"></stop></radialGradient></defs><g clip-path="url(#__lottie_element_2)"><g clip-path="url(#__lottie_element_4)" style="display: block;" transform="matrix(0.8710899949073792,0,0,0.8710899949073792,33.00096130371094,33.00096130371094)" opacity="1"><g style="display: block;" transform="matrix(1.3365609645843506,-0.15764839947223663,0.15764839947223663,1.3365609645843506,-60.06824493408203,33.61936950683594)" opacity="1"><g opacity="1" transform="matrix(1,0,0,1,212.90499877929688,189.47300720214844)"><path fill="rgb(224,126,112)" fill-opacity="1" d=" M-3.7769999504089355,-159.6699981689453 C-53.31800079345703,-158.56500244140625 -110.09100341796875,-141.5659942626953 -149.94000244140625,-79.6500015258789 C-172.35499572753906,-44.821998596191406 -183.98300170898438,18.341999053955078 -149.16900634765625,75.83200073242188 C-122.09200286865234,120.5459976196289 -55.84700012207031,160.5500030517578 36.23400115966797,150.5989990234375 C118.42400360107422,141.7169952392578 153.25100708007812,87.41400146484375 165.02200317382812,43.106998443603516 C183.86900329589844,-27.83799934387207 148.4040069580078,-82.55999755859375 123.03700256347656,-106.5989990234375 C82,-145.48699951171875 35.67499923706055,-160.5500030517578 -3.7769999504089355,-159.6699981689453z"></path></g><g opacity="1" transform="matrix(1,0,0,1,212.84800720214844,189.47300720214844)"><path stroke-linecap="butt" stroke-linejoin="miter" fill-opacity="0" stroke-miterlimit="10" stroke="rgb(187,74,66)" stroke-opacity="1" stroke-width="11" d=" M-3.7200000286102295,-159.6699981689453 C-53.26100158691406,-158.56500244140625 -110.03399658203125,-141.5659942626953 -149.88299560546875,-79.6500015258789 C-172.29800415039062,-44.821998596191406 -183.92599487304688,18.341999053955078 -149.11199951171875,75.83200073242188 C-122.03500366210938,120.5459976196289 -55.790000915527344,160.5500030517578 36.29100036621094,150.5989990234375 C118.48100280761719,141.7169952392578 153.30799865722656,87.41400146484375 165.07899475097656,43.106998443603516 C183.92599487304688,-27.83799934387207 148.46099853515625,-82.55999755859375 123.09400177001953,-106.5989990234375 C82.05699920654297,-145.48699951171875 35.731998443603516,-160.5500030517578 -3.7200000286102295,-159.6699981689453z"></path></g><g opacity="1" transform="matrix(1,0,0,1,204.51300048828125,176.5590057373047)"><path fill="url(#__lottie_element_16)" fill-opacity="1" d=" M1.444000005722046,-137.9600067138672 C-43.8129997253418,-136.99899291992188 -86.28500366210938,-128.4770050048828 -122.68800354003906,-74.66699981689453 C-143.16400146484375,-44.39899826049805 -159.593994140625,4.78000020980835 -124.85800170898438,52.75199890136719 C-105.68299865722656,79.23300170898438 -55.972999572753906,114.22799682617188 28.08300018310547,104.97599792480469 C97.39399719238281,97.34700012207031 127.63500213623047,62.55400085449219 140.1909942626953,24.570999145507812 C159.3350067138672,-33.347999572753906 146.3300018310547,-72.4520034790039 123.15599822998047,-93.34300231933594 C85.66799926757812,-127.14099884033203 37.48500061035156,-138.72500610351562 1.444000005722046,-137.9600067138672z"></path></g></g><g style="display: block;" transform="matrix(1.4511736631393433,-0.18749596178531647,0.17245130240917206,1.3347316980361938,91.9573745727539,156.6772918701172)" opacity="1"><g opacity="1" transform="matrix(1.3403834104537964,-0.051960915327072144,0.04784630611538887,1.2342429161071777,13.970000267028809,21.461999893188477)"><path fill="rgb(255,82,107)" fill-opacity="1" d=" M-6.9770002365112305,-8.781000137329102 C-3.005000114440918,-10.300999641418457 8.442999839782715,-11.928999900817871 13.279000282287598,-8.718000411987305 C20.090999603271484,-4.193999767303467 18.479999542236328,2.865000009536743 12.791000366210938,6.196000099182129 C7.1020002365112305,9.526000022888184 -14.12600040435791,14.3149995803833 -17.231000900268555,5.734000205993652 C-20.083999633789062,-2.1510000228881836 -10.508000373840332,-7.429999828338623 -6.9770002365112305,-8.781000137329102z"></path></g><g opacity="0.84" transform="matrix(1.383829951286316,0,0,1.4326400756835938,187.5030059814453,14.642999649047852)"><path fill="rgb(255,82,107)" fill-opacity="1" d=" M6.453999996185303,-8.279999732971191 C2.25,-9.39799976348877 -9.657999992370605,-10.145999908447266 -14.388999938964844,-6.953999996185303 C-21.05299949645996,-2.4590001106262207 -18.85300064086914,3.7890000343322754 -12.743000030517578,6.427999973297119 C-6.631999969482422,9.067000389099121 15.583999633789062,12.045000076293945 18.121999740600586,4.131999969482422 C20.452999114990234,-3.13700008392334 10.192000389099121,-7.285999774932861 6.453999996185303,-8.279999732971191z"></path></g></g><g style="display: block;" transform="matrix(1.4511736631393433,-0.18749596178531647,0.17245130240917206,1.3347316980361938,29.111671447753906,96.8433609008789)" opacity="1"><g opacity="1" transform="matrix(1,0,0,1,0,0)"><g opacity="1" transform="matrix(1,0,0,1,48.91699981689453,35.444000244140625)"><path fill="rgb(224,126,112)" fill-opacity="1" d=" M39.89400100708008,0.11900000274181366 C37.45500183105469,-10.451000213623047 20.500999450683594,-22.097000122070312 -1.746000051498413,-20.790000915527344 C-28.441999435424805,-19.22100067138672 -41.099998474121094,4.764999866485596 -32.3120002746582,13.430999755859375 C-23.524999618530273,22.097000122070312 -15.368000030517578,10.767000198364258 -2.684000015258789,9.416999816894531 C8.802000045776367,8.194999694824219 12.463000297546387,12.744000434875488 23.18199920654297,15.01200008392334 C36.98099899291992,17.930999755859375 41.10100173950195,5.3480000495910645 39.89400100708008,0.11900000274181366z"></path></g><g opacity="1" transform="matrix(1,0,0,1,53.42599868774414,39.750999450683594)"><path fill="rgb(255,255,255)" fill-opacity="1" d=" M-35.35499954223633,5.953000068664551 C-34.65599822998047,-2.2219998836517334 -23.780000686645508,-13.685999870300293 -3.503999948501587,-16.062000274658203 C20.82699966430664,-18.913999557495117 35.70100021362305,-3.065000057220459 28.96500015258789,4.630000114440918 C22.979000091552734,11.467000007629395 14.102999687194824,5.791999816894531 3.5329999923706055,7.160999774932861 C-7.236000061035156,8.555000305175781 -10.473999977111816,11.39799976348877 -19.832000732421875,14.684000015258789 C-31.878000259399414,18.913999557495117 -35.70100021362305,9.998000144958496 -35.35499954223633,5.953000068664551z"></path><path stroke-linecap="butt" stroke-linejoin="miter" fill-opacity="0" stroke-miterlimit="10" stroke="rgb(119,77,91)" stroke-opacity="1" stroke-width="6" d=" M-35.35499954223633,5.953000068664551 C-34.65599822998047,-2.2219998836517334 -23.780000686645508,-13.685999870300293 -3.503999948501587,-16.062000274658203 C20.82699966430664,-18.913999557495117 35.70100021362305,-3.065000057220459 28.96500015258789,4.630000114440918 C22.979000091552734,11.467000007629395 14.102999687194824,5.791999816894531 3.5329999923706055,7.160999774932861 C-7.236000061035156,8.555000305175781 -10.473999977111816,11.39799976348877 -19.832000732421875,14.684000015258789 C-31.878000259399414,18.913999557495117 -35.70100021362305,9.998000144958496 -35.35499954223633,5.953000068664551z"></path></g><g opacity="1" transform="matrix(1,0,0,1,41.395999908447266,33.12300109863281)"><path fill="rgb(13,13,13)" fill-opacity="1" d=" M13.425999641418457,13.826000213623047 C11.930999755859375,18.569000244140625 6.801000118255615,21.115999221801758 1.968000054359436,19.513999938964844 C-2.865000009536743,17.913000106811523 -5.570000171661377,12.770000457763672 -4.073999881744385,8.027000427246094 C-2.5789999961853027,3.2839999198913574 2.5510001182556152,0.7379999756813049 7.383999824523926,2.3389999866485596 C12.217000007629395,3.940000057220459 14.92199993133545,9.083000183105469 13.425999641418457,13.826000213623047z"></path></g><g opacity="1" transform="matrix(1,0,0,1,50.542999267578125,30.44099998474121)"><path fill="rgb(255,255,255)" fill-opacity="1" d=" M4.625,-1.2200000286102295 C4.988999843597412,0.6830000281333923 3.2139999866485596,2.7730000019073486 0.6600000262260437,3.447000026702881 C-1.8949999809265137,4.119999885559082 -4.260000228881836,3.122999906539917 -4.625,1.218999981880188 C-4.988999843597412,-0.6840000152587891 -3.2139999866485596,-2.7730000019073486 -0.6600000262260437,-3.447000026702881 C1.8949999809265137,-4.119999885559082 4.261000156402588,-3.122999906539917 4.625,-1.2200000286102295z"></path></g><g opacity="1" transform="matrix(1,0,0,1,35.9739990234375,36.11199951171875)"><path fill="rgb(255,255,255)" fill-opacity="1" d=" M1.215000033378601,-0.7329999804496765 C1.5190000534057617,-0.15000000596046448 1.2209999561309814,0.6510000228881836 0.5490000247955322,1.055999994277954 C-0.12099999934434891,1.4600000381469727 -0.9110000133514404,1.315999984741211 -1.215000033378601,0.7329999804496765 C-1.5190000534057617,0.1509999930858612 -1.222000002861023,-0.6499999761581421 -0.5509999990463257,-1.0549999475479126 C0.12099999934434891,-1.4600000381469727 0.9110000133514404,-1.315999984741211 1.215000033378601,-0.7329999804496765z"></path></g><g opacity="0" transform="matrix(1,0,0,1,0,0)"><path fill="rgb(89,71,133)" fill-opacity="1" d=" M38.999000549316406,42.17599868774414 C39.183998107910156,44.672000885009766 36.479000091552734,46.59700012207031 44.76599884033203,48.119998931884766 C53.053001403808594,49.643001556396484 51.869998931884766,46.527000427246094 50.82600021362305,44.29999923706055 C49.78200149536133,42.073001861572266 47.277000427246094,44.03900146484375 45.12799835205078,42.66400146484375 C42.979000091552734,41.28900146484375 45.09700012207031,37.80799865722656 41.18000030517578,38.67100143432617"></path></g><g opacity="1" transform="matrix(1,0,0,1,53.42599868774414,39.750999450683594)"><path stroke-linecap="butt" stroke-linejoin="miter" fill-opacity="0" stroke-miterlimit="10" stroke="rgb(119,77,91)" stroke-opacity="1" stroke-width="7.09" d=" M-35.35499954223633,5.953000068664551 C-34.65599822998047,-2.2219998836517334 -23.780000686645508,-13.685999870300293 -3.503999948501587,-16.062000274658203 C20.82699966430664,-18.913999557495117 35.70100021362305,-3.065000057220459 28.96500015258789,4.630000114440918 C22.979000091552734,11.467000007629395 14.102999687194824,5.791999816894531 3.5329999923706055,7.160999774932861 C-7.236000061035156,8.555000305175781 -10.473999977111816,11.39799976348877 -19.832000732421875,14.684000015258789 C-31.878000259399414,18.913999557495117 -35.70100021362305,9.998000144958496 -35.35499954223633,5.953000068664551z"></path></g></g><g opacity="1" transform="matrix(1,0,0,1,0,0)"><g opacity="1" transform="matrix(1,0,0,1,219.30099487304688,30.902000427246094)"><path fill="rgb(224,126,112)" fill-opacity="1" d=" M-37.94300079345703,0.4819999933242798 C-35.61800003051758,-10.105999946594238 -19.48699951171875,-21.89900016784668 1.6729999780654907,-20.788000106811523 C27.06599998474121,-19.452999114990234 39.09299850463867,4.418000221252441 30.731000900268555,13.157999992370605 C22.368999481201172,21.89900016784668 14.614999771118164,10.644000053405762 2.549999952316284,9.404999732971191 C-8.37399959564209,8.284000396728516 -11.857999801635742,12.86299991607666 -22.054000854492188,15.223999977111816 C-35.180999755859375,18.263999938964844 -39.09299850463867,5.7210001945495605 -37.94300079345703,0.4819999933242798z"></path></g><g opacity="1" transform="matrix(1,0,0,1,219.43499755859375,34.486000061035156)"><path fill="rgb(255,255,255)" fill-opacity="1" d=" M-35.46500015258789,0.6869999766349792 C-33.3390007019043,-7.249000072479248 -20.548999786376953,-16.708999633789062 -0.035999998450279236,-15.630999565124512 C24.57900047302246,-14.338000297546387 36.516998291015625,3.752000093460083 28.520000457763672,10.229999542236328 C20.523000717163086,16.708999633789062 13.744000434875488,8.788999557495117 2.0409998893737793,7.718999862670898 C-8.555000305175781,6.750999927520752 -12.743000030517578,9.52299976348877 -22.593000411987305,11.182000160217285 C-35.275001525878906,13.317999839782715 -36.516998291015625,4.613999843597412 -35.46500015258789,0.6869999766349792z"></path><path stroke-linecap="butt" stroke-linejoin="miter" fill-opacity="0" stroke-miterlimit="10" stroke="rgb(119,77,91)" stroke-opacity="1" stroke-width="7.111" d=" M-35.46500015258789,0.6869999766349792 C-33.3390007019043,-7.249000072479248 -20.548999786376953,-16.708999633789062 -0.035999998450279236,-15.630999565124512 C24.57900047302246,-14.338000297546387 36.516998291015625,3.752000093460083 28.520000457763672,10.229999542236328 C20.523000717163086,16.708999633789062 13.744000434875488,8.788999557495117 2.0409998893737793,7.718999862670898 C-8.555000305175781,6.750999927520752 -12.743000030517578,9.52299976348877 -22.593000411987305,11.182000160217285 C-35.275001525878906,13.317999839782715 -36.516998291015625,4.613999843597412 -35.46500015258789,0.6869999766349792z"></path></g><g opacity="1" transform="matrix(1,0,0,1,226.86399841308594,26.72599983215332)"><path fill="rgb(15,16,23)" fill-opacity="1" d=" M4.73199987411499,12.635000228881836 C3.059999942779541,17.011999130249023 -2.1640000343322754,19.06800079345703 -6.934999942779541,17.226999282836914 C-11.704999923706055,15.385000228881836 -14.218000411987305,10.345000267028809 -12.545999526977539,5.9679999351501465 C-10.873000144958496,1.590999960899353 -5.650000095367432,-0.4650000035762787 -0.8790000081062317,1.3760000467300415 C3.8919999599456787,3.2170000076293945 6.40500020980835,8.258000373840332 4.73199987411499,12.635000228881836z"></path></g><g opacity="1" transform="matrix(1,0,0,1,233.93299865722656,30.878999710083008)"><path fill="rgb(255,255,255)" fill-opacity="1" d=" M3.9838461875915527,1.139975666999817 C3.407846212387085,2.780975818634033 0.9825664758682251,3.7582831382751465 -1.4455652236938477,3.026390552520752 C-3.7864737510681152,2.324913740158081 -5.189248561859131,0.24774011969566345 -4.613248348236084,-1.3942599296569824 C-4.037248611450195,-3.034259796142578 -1.61142897605896,-4.168416976928711 0.8794472813606262,-3.386800765991211 C3.3315298557281494,-2.62205171585083 4.5598464012146,-0.5010243058204651 3.9838461875915527,1.139975666999817z"></path></g><g opacity="1" transform="matrix(1,0,0,1,221.60400390625,26.17099952697754)"><path fill="rgb(255,255,255)" fill-opacity="1" d=" M1.2680000066757202,-0.6510000228881836 C1.5449999570846558,-0.06400000303983688 1.2020000219345093,0.703000009059906 0.5009999871253967,1.062999963760376 C-0.20000000298023224,1.4220000505447388 -0.9919999837875366,1.2380000352859497 -1.2690000534057617,0.6510000228881836 C-1.5449999570846558,0.06400000303983688 -1.2029999494552612,-0.703000009059906 -0.5019999742507935,-1.062999963760376 C0.19900000095367432,-1.4220000505447388 0.9909999966621399,-1.2369999885559082 1.2680000066757202,-0.6510000228881836z"></path></g><g opacity="1" transform="matrix(1,0,0,1,219.43499755859375,34.486000061035156)"><path stroke-linecap="butt" stroke-linejoin="miter" fill-opacity="0" stroke-miterlimit="10" stroke="rgb(119,77,91)" stroke-opacity="1" stroke-width="6" d=" M-35.46500015258789,0.6869999766349792 C-33.3390007019043,-7.249000072479248 -20.548999786376953,-16.708999633789062 -0.035999998450279236,-15.630999565124512 C24.57900047302246,-14.338000297546387 36.516998291015625,3.752000093460083 28.520000457763672,10.229999542236328 C20.523000717163086,16.708999633789062 13.744000434875488,8.788999557495117 2.0409998893737793,7.718999862670898 C-8.555000305175781,6.750999927520752 -12.743000030517578,9.52299976348877 -22.593000411987305,11.182000160217285 C-35.275001525878906,13.317999839782715 -36.516998291015625,4.613999843597412 -35.46500015258789,0.6869999766349792z"></path></g><g opacity="0" transform="matrix(1,0,0,1,0,0)"><path fill="rgb(90,72,133)" fill-opacity="1" d=" M216.4510040283203,34.26300048828125 C216.4510040283203,34.26300048828125 207.6300048828125,30.44300079345703 209.67999267578125,34.8390007019043 C211.08700561523438,37.85599899291992 215.7570037841797,38.619998931884766 218.99200439453125,38.13399887084961 C222.85800170898438,37.553001403808594 223.0229949951172,33.2140007019043 220.11900329589844,33.34600067138672 C218.33999633789062,33.426998138427734 216.4510040283203,34.26300048828125 216.4510040283203,34.26300048828125z"></path></g></g></g><g style="display: block;" transform="matrix(1.702517032623291,-0.21997027099132538,0.20416682958602905,1.5802022218704224,144.99195861816406,155.87103271484375)" opacity="1"><g opacity="1" transform="matrix(1,0,0,1,93.98699951171875,28.395000457763672)"><path stroke-linecap="round" stroke-linejoin="round" fill-opacity="0" stroke="rgb(230,136,112)" stroke-opacity="1" stroke-width="8" d=" M-7.507999897003174,-7.8420000076293945 C-7.507999897003174,-7.8420000076293945 -0.32899999618530273,-6.019000053405762 3.505000114440918,-1.031999945640564 C6.48799991607666,2.8469998836517334 7.507999897003174,7.8420000076293945 7.507999897003174,7.8420000076293945"></path></g><g opacity="1" transform="matrix(1,0,0,1,97.03299713134766,18.941999435424805)"><path stroke-linecap="round" stroke-linejoin="round" fill-opacity="0" stroke="rgb(230,136,112)" stroke-opacity="1" stroke-width="8" d=" M-8.46399974822998,-1.7000000476837158 C-8.46399974822998,-1.7000000476837158 -4.077000141143799,-2.3299999237060547 0.3720000088214874,-1.3250000476837158 C4.821000099182129,-0.32100000977516174 8.46399974822998,2.3289999961853027 8.46399974822998,2.3289999961853027"></path></g><g opacity="1" transform="matrix(1,0,0,1,82.83300018310547,29.639999389648438)"><path stroke-linecap="round" stroke-linejoin="round" fill-opacity="0" stroke="rgb(230,136,112)" stroke-opacity="1" stroke-width="8" d=" M-3.4100000858306885,-5.701000213623047 C-3.4100000858306885,-5.701000213623047 -0.8840000033378601,-3.421999931335449 1.0140000581741333,0.46700000762939453 C2.9119999408721924,4.355000019073486 3.4100000858306885,5.701000213623047 3.4100000858306885,5.701000213623047"></path></g><g opacity="1" transform="matrix(1,0,0,1,72.63899993896484,37.88399887084961)"><path stroke-linecap="round" stroke-linejoin="round" fill-opacity="0" stroke="rgb(230,136,112)" stroke-opacity="1" stroke-width="8" d=" M-2.7269999980926514,-8.467000007629395 C-2.7269999980926514,-8.467000007629395 0.4309999942779541,-3.875 1.5789999961853027,0.7179999947547913 C2.7269999980926514,5.309999942779541 2.1530001163482666,8.467000007629395 2.1530001163482666,8.467000007629395"></path></g><g opacity="1" transform="matrix(1,0,0,1,58.577999114990234,38.2859992980957)"><path stroke-linecap="round" stroke-linejoin="round" fill-opacity="0" stroke="rgb(230,136,112)" stroke-opacity="1" stroke-width="8" d=" M-1.7339999675750732,-9.237000465393066 C-1.7339999675750732,-9.237000465393066 0.4339999854564667,-3.8399999141693115 1.0839999914169312,0.8529999852180481 C1.7339999675750732,5.546000003814697 0.9760000109672546,9.237000465393066 0.9760000109672546,9.237000465393066"></path></g><g opacity="1" transform="matrix(1,0,0,1,46.487998962402344,37.04899978637695)"><path stroke-linecap="round" stroke-linejoin="round" fill-opacity="0" stroke="rgb(230,136,112)" stroke-opacity="1" stroke-width="8" d=" M1.4270000457763672,-7.091000080108643 C1.4270000457763672,-7.091000080108643 -0.04399999976158142,-4.335000038146973 -0.7360000014305115,0.46000000834465027 C-1.4270000457763672,5.254000186920166 -1.347000002861023,7.091000080108643 -1.347000002861023,7.091000080108643"></path></g><g opacity="1" transform="matrix(1,0,0,1,33.25899887084961,36.41999816894531)"><path stroke-linecap="round" stroke-linejoin="round" fill-opacity="0" stroke="rgb(230,136,112)" stroke-opacity="1" stroke-width="8" d=" M2.7990000247955322,-7.390999794006348 C2.7990000247955322,-7.390999794006348 -0.07199999690055847,-1.218999981880188 -1.2200000286102295,2.368000030517578 C-2.36899995803833,5.955999851226807 -2.7990000247955322,7.390999794006348 -2.7990000247955322,7.390999794006348"></path></g><g opacity="1" transform="matrix(1,0,0,1,18.082000732421875,28.731000900268555)"><path stroke-linecap="round" stroke-linejoin="round" fill-opacity="0" stroke="rgb(230,136,112)" stroke-opacity="1" stroke-width="8" d=" M5.525000095367432,-6.098999977111816 C5.525000095367432,-6.098999977111816 0.2150000035762787,-2.6549999713897705 -2.368000030517578,1.0759999752044678 C-4.951000213623047,4.808000087738037 -5.525000095367432,6.098999977111816 -5.525000095367432,6.098999977111816"></path></g><g opacity="1" transform="matrix(1,0,0,1,19.996000289916992,21.156999588012695)"><path stroke-linecap="round" stroke-linejoin="round" fill-opacity="0" stroke="rgb(230,136,112)" stroke-opacity="1" stroke-width="8" d=" M-6.242000102996826,2.009000062942505 C-6.242000102996826,2.009000062942505 -2.6540000438690186,-0.4300000071525574 -0.5009999871253967,-1.003999948501587 C1.6510000228881836,-1.5779999494552612 6.242000102996826,-2.009000062942505 6.242000102996826,-2.009000062942505"></path></g><g opacity="1" transform="matrix(1,0,0,1,56.68600082397461,25.093000411987305)"><path stroke-linecap="round" stroke-linejoin="round" fill-opacity="0" stroke="rgb(230,136,112)" stroke-opacity="1" stroke-width="8" d=" M-31.613000869750977,-12.53600025177002 C-31.613000869750977,-12.53600025177002 -40.97999954223633,-3.6470000743865967 -40.19599914550781,-1.8200000524520874 C-39.41299819946289,0.007000000216066837 -30.538999557495117,6.011000156402588 -28.972999572753906,6.5329999923706055 C-27.4060001373291,7.054999828338623 -23.75200080871582,7.315999984741211 -23.75200080871582,7.315999984741211 C-23.75200080871582,7.315999984741211 -21.142000198364258,9.402999877929688 -17.488000869750977,10.446999549865723 C-13.833999633789062,11.491000175476074 -9.918000221252441,12.53600025177002 -8.35200023651123,11.491999626159668 C-8.35200023651123,11.491999626159668 -6.785999774932861,10.446999549865723 -6.785999774932861,10.446999549865723 C-6.785999774932861,10.446999549865723 -3.9149999618530273,11.753000259399414 1.3049999475479126,12.013999938964844 C6.526000022888184,12.276000022888184 9.13599967956543,9.664999961853027 9.13599967956543,9.664999961853027 C9.13599967956543,9.664999961853027 12.267999649047852,10.970000267028809 16.183000564575195,10.187000274658203 C20.099000930786133,9.404000282287598 22.969999313354492,5.488999843597412 22.969999313354492,5.488999843597412 C22.969999313354492,5.488999843597412 25.319000244140625,5.488999843597412 30.27899932861328,4.705999851226807 C35.237998962402344,3.9230000972747803 37.847999572753906,1.5720000267028809 39.41400146484375,-0.7770000100135803 C40.97999954223633,-3.125999927520752 37.58700180053711,-7.301000118255615 37.58700180053711,-7.301000118255615 C37.58700180053711,-7.301000118255615 30.017000198364258,-8.866999626159668 30.017000198364258,-8.866999626159668 C30.017000198364258,-8.866999626159668 -27.145999908447266,-3.6480000019073486 -27.145999908447266,-3.6480000019073486 C-27.145999908447266,-3.6480000019073486 -31.613000869750977,-12.53600025177002 -31.613000869750977,-12.53600025177002z"></path></g></g><g style="display: block;" transform="matrix(1.4511736631393433,-0.18749596178531647,0.17245130240917206,1.3347316980361938,160.5599365234375,116.39743041992188)" opacity="1"><g opacity="1" transform="matrix(1.2366909980773926,-0.015649475157260895,0.015045532025396824,1.1889647245407104,-7.930793762207031,18.99886703491211)"><g opacity="1" transform="matrix(1,0,0,1,20.649999618530273,28.468000411987305)"><path fill="rgb(255,255,255)" fill-opacity="1" d=" M-3.390000104904175,-8.234000205993652 C-3.390000104904175,-8.234000205993652 -6.188000202178955,-3.7130000591278076 -6.188000202178955,-3.7130000591278076 C-6.188000202178955,-3.7130000591278076 -9.20199966430664,-0.6990000009536743 -7.586999893188477,1.5609999895095825 C-5.9730000495910645,3.821000099182129 1.5609999895095825,7.1579999923706055 1.5609999895095825,7.1579999923706055 C1.5609999895095825,7.1579999923706055 4.0370001792907715,8.234000205993652 5.6519999504089355,5.651000022888184 C6.953000068664551,3.566999912261963 9.20199966430664,-1.4529999494552612 9.20199966430664,-1.4529999494552612 C9.20199966430664,-1.4529999494552612 1.9919999837875366,-5.543000221252441 1.9919999837875366,-5.543000221252441 C1.9919999837875366,-5.543000221252441 -3.390000104904175,-8.234000205993652 -3.390000104904175,-8.234000205993652z"></path><path stroke-linecap="butt" stroke-linejoin="round" fill-opacity="0" stroke="rgb(115,130,162)" stroke-opacity="1" stroke-width="5" d=" M-3.390000104904175,-8.234000205993652 C-3.390000104904175,-8.234000205993652 -6.188000202178955,-3.7130000591278076 -6.188000202178955,-3.7130000591278076 C-6.188000202178955,-3.7130000591278076 -9.20199966430664,-0.6990000009536743 -7.586999893188477,1.5609999895095825 C-5.9730000495910645,3.821000099182129 1.5609999895095825,7.1579999923706055 1.5609999895095825,7.1579999923706055 C1.5609999895095825,7.1579999923706055 4.0370001792907715,8.234000205993652 5.6519999504089355,5.651000022888184 C6.953000068664551,3.566999912261963 9.20199966430664,-1.4529999494552612 9.20199966430664,-1.4529999494552612 C9.20199966430664,-1.4529999494552612 1.9919999837875366,-5.543000221252441 1.9919999837875366,-5.543000221252441 C1.9919999837875366,-5.543000221252441 -3.390000104904175,-8.234000205993652 -3.390000104904175,-8.234000205993652z"></path></g><g opacity="1" transform="matrix(1,0,0,1,33.81700134277344,34.01100158691406)"><path fill="rgb(255,255,255)" fill-opacity="1" d=" M-4.250999927520752,-7.642000198364258 C-4.250999927520752,-7.642000198364258 -6.189000129699707,0.8610000014305115 -6.189000129699707,0.8610000014305115 C-6.189000129699707,0.8610000014305115 -7.803999900817871,3.9820001125335693 -4.574999809265137,5.488999843597412 C-2.263000011444092,6.567999839782715 3.7139999866485596,7.318999767303467 3.7139999866485596,7.318999767303467 C3.7139999866485596,7.318999767303467 5.9730000495910645,7.642000198364258 6.511000156402588,4.8429999351501465 C7.048999786376953,2.0450000762939453 7.802999973297119,-5.059000015258789 7.802999973297119,-5.059000015258789 C7.802999973297119,-5.059000015258789 1.2380000352859497,-6.888999938964844 1.2380000352859497,-6.888999938964844 C1.2380000352859497,-6.888999938964844 -4.250999927520752,-7.642000198364258 -4.250999927520752,-7.642000198364258z"></path><path stroke-linecap="round" stroke-linejoin="round" fill-opacity="0" stroke="rgb(115,130,162)" stroke-opacity="1" stroke-width="5" d=" M-4.250999927520752,-7.642000198364258 C-4.250999927520752,-7.642000198364258 -6.189000129699707,0.8610000014305115 -6.189000129699707,0.8610000014305115 C-6.189000129699707,0.8610000014305115 -7.803999900817871,3.9820001125335693 -4.574999809265137,5.488999843597412 C-2.263000011444092,6.567999839782715 3.7139999866485596,7.318999767303467 3.7139999866485596,7.318999767303467 C3.7139999866485596,7.318999767303467 5.9730000495910645,7.642000198364258 6.511000156402588,4.8429999351501465 C7.048999786376953,2.0450000762939453 7.802999973297119,-5.059000015258789 7.802999973297119,-5.059000015258789 C7.802999973297119,-5.059000015258789 1.2380000352859497,-6.888999938964844 1.2380000352859497,-6.888999938964844 C1.2380000352859497,-6.888999938964844 -4.250999927520752,-7.642000198364258 -4.250999927520752,-7.642000198364258z"></path></g><g opacity="1" transform="matrix(1,0,0,1,49.064998626708984,35.715999603271484)"><path fill="rgb(255,255,255)" fill-opacity="1" d=" M6.4039998054504395,-5.579999923706055 C6.4039998054504395,-5.579999923706055 6.941999912261963,0.44699999690055847 6.941999912261963,0.44699999690055847 C6.941999912261963,0.44699999690055847 7.5879998207092285,5.291999816894531 0.48500001430511475,5.829999923706055 C-3.313999891281128,6.118000030517578 -5.385000228881836,4.785999774932861 -6.38100004196167,3.805000066757202 C-6.886000156402588,3.306999921798706 -7.165999889373779,2.63100004196167 -7.199999809265137,1.9229999780654907 C-7.199999809265137,1.9229999780654907 -7.5879998207092285,-6.118000030517578 -7.5879998207092285,-6.118000030517578 C-7.5879998207092285,-6.118000030517578 1.8830000162124634,-5.795000076293945 1.8830000162124634,-5.795000076293945 C1.8830000162124634,-5.795000076293945 6.4039998054504395,-5.579999923706055 6.4039998054504395,-5.579999923706055z"></path><path stroke-linecap="butt" stroke-linejoin="miter" fill-opacity="0" stroke-miterlimit="10" stroke="rgb(115,130,162)" stroke-opacity="1" stroke-width="5" d=" M6.4039998054504395,-5.579999923706055 C6.4039998054504395,-5.579999923706055 6.941999912261963,0.44699999690055847 6.941999912261963,0.44699999690055847 C6.941999912261963,0.44699999690055847 7.5879998207092285,5.291999816894531 0.48500001430511475,5.829999923706055 C-3.313999891281128,6.118000030517578 -5.385000228881836,4.785999774932861 -6.38100004196167,3.805000066757202 C-6.886000156402588,3.306999921798706 -7.165999889373779,2.63100004196167 -7.199999809265137,1.9229999780654907 C-7.199999809265137,1.9229999780654907 -7.5879998207092285,-6.118000030517578 -7.5879998207092285,-6.118000030517578 C-7.5879998207092285,-6.118000030517578 1.8830000162124634,-5.795000076293945 1.8830000162124634,-5.795000076293945 C1.8830000162124634,-5.795000076293945 6.4039998054504395,-5.579999923706055 6.4039998054504395,-5.579999923706055z"></path></g><g opacity="1" transform="matrix(1,0,0,1,62.83100128173828,33.58100128173828)"><path fill="rgb(255,255,255)" fill-opacity="1" d=" M4.1539998054504395,-7.427000045776367 C4.1539998054504395,-7.427000045776367 6.414000034332275,-0.6460000276565552 6.414000034332275,-0.6460000276565552 C6.414000034332275,-0.6460000276565552 7.578000068664551,3.250999927520752 2.2170000076293945,5.27400016784668 C-3.48799991607666,7.427000045776367 -5.748000144958496,3.552000045776367 -5.748000144958496,3.552000045776367 C-5.748000144958496,3.552000045776367 -7.578000068664551,-3.9830000400543213 -7.578000068664551,-3.9830000400543213 C-7.578000068664551,-3.9830000400543213 4.1539998054504395,-7.427000045776367 4.1539998054504395,-7.427000045776367z"></path><path stroke-linecap="butt" stroke-linejoin="round" fill-opacity="0" stroke="rgb(115,130,162)" stroke-opacity="1" stroke-width="5" d=" M4.1539998054504395,-7.427000045776367 C4.1539998054504395,-7.427000045776367 6.414000034332275,-0.6460000276565552 6.414000034332275,-0.6460000276565552 C6.414000034332275,-0.6460000276565552 7.578000068664551,3.250999927520752 2.2170000076293945,5.27400016784668 C-3.48799991607666,7.427000045776367 -5.748000144958496,3.552000045776367 -5.748000144958496,3.552000045776367 C-5.748000144958496,3.552000045776367 -7.578000068664551,-3.9830000400543213 -7.578000068664551,-3.9830000400543213 C-7.578000068664551,-3.9830000400543213 4.1539998054504395,-7.427000045776367 4.1539998054504395,-7.427000045776367z"></path></g><g opacity="1" transform="matrix(1,0,0,1,77.4260025024414,27.121999740600586)"><path fill="rgb(255,255,255)" fill-opacity="1" d=" M1.3990000486373901,-9.36400032043457 C1.3990000486373901,-9.36400032043457 7.210999965667725,-3.875 7.210999965667725,-3.875 C7.210999965667725,-3.875 9.687000274658203,2.260999917984009 4.197000026702881,5.811999797821045 C-1.2920000553131104,9.36400032043457 -5.059000015258789,5.920000076293945 -5.059000015258789,5.920000076293945 C-5.059000015258789,5.920000076293945 -9.687000274658203,-0.4300000071525574 -9.687000274658203,-0.4300000071525574 C-9.687000274658203,-0.4300000071525574 -3.0139999389648438,-5.27400016784668 -3.0139999389648438,-5.27400016784668 C-3.0139999389648438,-5.27400016784668 1.3990000486373901,-9.36400032043457 1.3990000486373901,-9.36400032043457z"></path><path stroke-linecap="round" stroke-linejoin="round" fill-opacity="0" stroke="rgb(115,130,162)" stroke-opacity="1" stroke-width="5" d=" M1.3990000486373901,-9.36400032043457 C1.3990000486373901,-9.36400032043457 7.210999965667725,-3.875 7.210999965667725,-3.875 C7.210999965667725,-3.875 9.687000274658203,2.260999917984009 4.197000026702881,5.811999797821045 C-1.2920000553131104,9.36400032043457 -5.059000015258789,5.920000076293945 -5.059000015258789,5.920000076293945 C-5.059000015258789,5.920000076293945 -9.687000274658203,-0.4300000071525574 -9.687000274658203,-0.4300000071525574 C-9.687000274658203,-0.4300000071525574 -3.0139999389648438,-5.27400016784668 -3.0139999389648438,-5.27400016784668 C-3.0139999389648438,-5.27400016784668 1.3990000486373901,-9.36400032043457 1.3990000486373901,-9.36400032043457z"></path></g><g opacity="1" transform="matrix(1,0,0,1,48.00299835205078,22.13800048828125)"><path stroke-linecap="round" stroke-linejoin="round" fill-opacity="0" stroke="rgb(121,55,73)" stroke-opacity="1" stroke-width="8" d=" M-31.235000610351562,-3.803999900817871 C-31.235000610351562,-3.803999900817871 -20.628999710083008,5.369999885559082 -0.26100000739097595,4.896999835968018 C15.432000160217285,4.531000137329102 26.222999572753906,-0.609000027179718 31.235000610351562,-5.369999885559082"></path></g></g></g><g style="display: block;" transform="matrix(1.3365609645843506,-0.15764839947223663,0.15764839947223663,1.3365609645843506,-60.06824493408203,33.61936950683594)" opacity="1"><g opacity="1" transform="matrix(1,0,0,1,212.84800720214844,189.47300720214844)"><path stroke-linecap="butt" stroke-linejoin="miter" fill-opacity="0" stroke-miterlimit="10" stroke="rgb(187,74,66)" stroke-opacity="1" stroke-width="11" d=" M-3.7200000286102295,-159.6699981689453 C-53.26100158691406,-158.56500244140625 -110.03399658203125,-141.5659942626953 -149.88299560546875,-79.6500015258789 C-172.29800415039062,-44.821998596191406 -183.92599487304688,18.341999053955078 -149.11199951171875,75.83200073242188 C-122.03500366210938,120.5459976196289 -55.790000915527344,160.5500030517578 36.29100036621094,150.5989990234375 C118.48100280761719,141.7169952392578 153.30799865722656,87.41400146484375 165.07899475097656,43.106998443603516 C183.92599487304688,-27.83799934387207 148.46099853515625,-82.55999755859375 123.09400177001953,-106.5989990234375 C82.05699920654297,-145.48699951171875 35.731998443603516,-160.5500030517578 -3.7200000286102295,-159.6699981689453z"></path></g></g></g></g></svg>