<svg xmlns="http://www.w3.org/2000/svg" xmlns:xlink="http://www.w3.org/1999/xlink" viewBox="0 0 512 512" width="512" height="512" style="width: 100%; height: 100%; transform: translate3d(0,0,0); content-visibility: visible;" preserveAspectRatio="xMidYMid meet"><defs><clipPath id="__lottie_element_2"><rect width="512" height="512" x="0" y="0"></rect></clipPath><radialGradient id="__lottie_element_23" spreadMethod="pad" gradientUnits="userSpaceOnUse" cx="-235.5019989013672" cy="-105.72799682617188" r="351.76696914248214" fx="-235.5019989013672" fy="-105.72799682617188"><stop offset="0%" stop-color="rgb(255,182,151)"></stop><stop offset="52%" stop-color="rgb(250,164,127)"></stop><stop offset="100%" stop-color="rgb(245,146,103)"></stop></radialGradient><radialGradient id="__lottie_element_24" spreadMethod="pad" gradientUnits="userSpaceOnUse" cx="-115.80599975585938" cy="-50.27000045776367" r="243.30951362295434" fx="-115.80599975585938" fy="-50.27000045776367"><stop offset="0%" stop-color="rgb(249,223,201)"></stop><stop offset="48%" stop-color="rgb(249,202,171)"></stop><stop offset="100%" stop-color="rgb(250,181,140)"></stop></radialGradient></defs><g clip-path="url(#__lottie_element_2)"><g style="display: block;" transform="matrix(0.8905090093612671,0,0,0.8905090093612671,339.71502685546875,241.3301544189453)" opacity="1"><g opacity="1" transform="matrix(1,0,0,1,97.97899627685547,58.63800048828125)"><path stroke-linecap="round" stroke-linejoin="round" fill-opacity="0" stroke="rgb(165,82,45)" stroke-opacity="1" stroke-width="11.057" d=" M-90.76899719238281,14.156000137329102 C-90.76899719238281,14.156000137329102 -14.092000007629395,-30.975000381469727 32.685001373291016,-18.9689998626709 C79.46099853515625,-6.964000225067139 13.14900016784668,50.869998931884766 13.14900016784668,50.869998931884766"></path></g></g><g style="display: block;" transform="matrix(0.8766352534294128,-0.15657877922058105,0.15657877922058105,0.8766352534294128,14.725626945495605,150.1503143310547)" opacity="1"><g opacity="1" transform="matrix(1,0,0,1,74.64600372314453,103.96499633789062)"><path stroke-linecap="round" stroke-linejoin="round" fill-opacity="0" stroke="rgb(165,82,45)" stroke-opacity="1" stroke-width="11.45" d=" M46.020999908447266,75.33999633789062 C46.020999908447266,75.33999633789062 6.229000091552734,71.6259994506836 -21.891000747680664,23.875 C-34.854000091552734,1.8630000352859497 -36.03300094604492,-25.131000518798828 -34.347999572753906,-45.402000427246094 C-32.895999908447266,-62.86600112915039 -29.319000244140625,-75.33999633789062 -29.319000244140625,-75.33999633789062"></path></g></g><g style="display: block;" transform="matrix(0.8905090093612671,0,0,0.8905090093612671,68.6814956665039,230.27804565429688)" opacity="1"><g opacity="1" transform="matrix(1,0,0,1,250.41400146484375,147.13600158691406)"><path fill="rgb(217,3,80)" fill-opacity="1" d=" M-140.8780059814453,-117.59600067138672 C-140.8780059814453,-117.59600067138672 -163.48599243164062,-97.68800354003906 -194.281005859375,-38.040000915527344 C-212.16099548339844,-3.492000102996826 -228.31199645996094,54.755001068115234 -233.43699645996094,84.00199890136719 C-257.3559875488281,110.2699966430664 -256.04901123046875,135.85899353027344 -256.04901123046875,135.85899353027344 C-256.04901123046875,135.85899353027344 -235.97500610351562,111.41699981689453 -214.32699584960938,112.15799713134766 C-192.0679931640625,112.91999816894531 -185.99400329589844,123.93699645996094 -164.06700134277344,134.07899475097656 C-152.75799560546875,139.30999755859375 -128.625,114.9280014038086 -115.38700103759766,115.85299682617188 C-95.97200012207031,117.20899963378906 -81.31199645996094,125.20700073242188 -58.82600021362305,128.25900268554688 C-38.77399826049805,130.9810028076172 -32.465999603271484,110.02100372314453 -16.07699966430664,111.0469970703125 C13.180000305175781,112.87799835205078 13.857999801635742,121.23500061035156 29.06100082397461,125.7760009765625 C42.270999908447266,129.6909942626953 65.23500061035156,131.7570037841797 68.64700317382812,131.1929931640625 C86.25299835205078,128.2830047607422 78.322998046875,122.76599884033203 94.83200073242188,113.53900146484375 C103.49500274658203,108.6969985961914 100.24400329589844,109.33799743652344 117.47100067138672,106.06500244140625 C130.72900390625,103.5459976196289 154.55799865722656,136.0709991455078 176.0570068359375,133.99400329589844 C204.8300018310547,131.21499633789062 224.4080047607422,104.12799835205078 224.4080047607422,104.12799835205078 C224.4080047607422,104.12799835205078 228.322998046875,92.86399841308594 166.90899658203125,78.94100189208984 C126.46700286865234,54.314998626708984 79.89800262451172,0.9580000042915344 71.64800262451172,-39.94499969482422 C68.04000091552734,-58.42300033569336 69.5719985961914,-90.0260009765625 69.5719985961914,-90.0260009765625 C69.5719985961914,-90.0260009765625 -72.78500366210938,-101.5739974975586 -72.78500366210938,-101.5739974975586 C-72.78500366210938,-101.5739974975586 -140.8780059814453,-117.59600067138672 -140.8780059814453,-117.59600067138672z"></path><path stroke-linecap="round" stroke-linejoin="round" fill-opacity="0" stroke="rgb(160,18,73)" stroke-opacity="1" stroke-width="13" d=" M-140.8780059814453,-117.59600067138672 C-140.8780059814453,-117.59600067138672 -163.48599243164062,-97.68800354003906 -194.281005859375,-38.040000915527344 C-212.16099548339844,-3.492000102996826 -228.31199645996094,54.755001068115234 -233.43699645996094,84.00199890136719 C-257.3559875488281,110.2699966430664 -256.04901123046875,135.85899353027344 -256.04901123046875,135.85899353027344 C-256.04901123046875,135.85899353027344 -235.97500610351562,111.41699981689453 -214.32699584960938,112.15799713134766 C-192.0679931640625,112.91999816894531 -185.99400329589844,123.93699645996094 -164.06700134277344,134.07899475097656 C-152.75799560546875,139.30999755859375 -128.625,114.9280014038086 -115.38700103759766,115.85299682617188 C-95.97200012207031,117.20899963378906 -81.31199645996094,125.20700073242188 -58.82600021362305,128.25900268554688 C-38.77399826049805,130.9810028076172 -32.465999603271484,110.02100372314453 -16.07699966430664,111.0469970703125 C13.180000305175781,112.87799835205078 13.857999801635742,121.23500061035156 29.06100082397461,125.7760009765625 C42.270999908447266,129.6909942626953 65.23500061035156,131.7570037841797 68.64700317382812,131.1929931640625 C86.25299835205078,128.2830047607422 78.322998046875,122.76599884033203 94.83200073242188,113.53900146484375 C103.49500274658203,108.6969985961914 100.24400329589844,109.33799743652344 117.47100067138672,106.06500244140625 C130.72900390625,103.5459976196289 154.55799865722656,136.0709991455078 176.0570068359375,133.99400329589844 C204.8300018310547,131.21499633789062 224.4080047607422,104.12799835205078 224.4080047607422,104.12799835205078 C224.4080047607422,104.12799835205078 228.322998046875,92.86399841308594 166.90899658203125,78.94100189208984 C126.46700286865234,54.314998626708984 79.89800262451172,0.9580000042915344 71.64800262451172,-39.94499969482422 C68.04000091552734,-58.42300033569336 69.5719985961914,-90.0260009765625 69.5719985961914,-90.0260009765625 C69.5719985961914,-90.0260009765625 -72.78500366210938,-101.5739974975586 -72.78500366210938,-101.5739974975586 C-72.78500366210938,-101.5739974975586 -140.8780059814453,-117.59600067138672 -140.8780059814453,-117.59600067138672z"></path></g><g opacity="1" transform="matrix(1,0,0,1,0,-8)"><g opacity="1" transform="matrix(1,0,0,1,118.947998046875,194.6179962158203)"><path stroke-linecap="round" stroke-linejoin="round" fill-opacity="0" stroke="rgb(160,18,73)" stroke-opacity="0.45" stroke-width="16" d=" M7.179999828338623,-53.1609992980957 C7.179999828338623,-53.1609992980957 -1.6820000410079956,-25.339000701904297 -1.0950000286102295,6.908999919891357 C-0.43299999833106995,43.270999908447266 12.131999969482422,68.99500274658203 12.131999969482422,68.99500274658203"></path></g><g opacity="1" transform="matrix(1,0,0,1,240.0959930419922,200.4040069580078)"><path stroke-linecap="round" stroke-linejoin="round" fill-opacity="0" stroke="rgb(160,18,73)" stroke-opacity="0.53" stroke-width="17" d=" M-28.429000854492188,-32.768001556396484 C-28.429000854492188,-32.768001556396484 -29.7450008392334,-15.293999671936035 -21.785999298095703,8.87600040435791 C-15.314000129699707,28.530000686645508 2.0390000343322754,53.880001068115234 2.0390000343322754,53.880001068115234"></path></g><g opacity="1" transform="matrix(1,0,0,1,322.8630065917969,200.00599670410156)"><path stroke-linecap="round" stroke-linejoin="round" fill-opacity="0" stroke="rgb(160,18,73)" stroke-opacity="0.6" stroke-width="17" d=" M-32.231998443603516,-39.79199981689453 C-32.231998443603516,-39.79199981689453 -21.09000015258789,-10.345999717712402 1.9889999628067017,16.71299934387207 C15.88599967956543,33.005001068115234 32.23099899291992,39.79199981689453 32.23099899291992,39.79199981689453"></path></g><g opacity="1" transform="matrix(1,0,0,1,277.4490051269531,182.6199951171875)"><path stroke-linecap="round" stroke-linejoin="round" fill-opacity="0" stroke="rgb(255,67,125)" stroke-opacity="0.64" stroke-width="17" d=" M-10.612000465393066,-23.3439998626709 C-10.612000465393066,-23.3439998626709 -2.122999906539917,2.122999906539917 2.6519999504089355,10.612000465393066 C7.427000045776367,19.10099983215332 10.611000061035156,23.344999313354492 10.611000061035156,23.344999313354492"></path></g><g opacity="1" transform="matrix(1,0,0,1,215.52699279785156,205.0399932861328)"><path stroke-linecap="round" stroke-linejoin="round" fill-opacity="0" stroke="rgb(255,67,125)" stroke-opacity="0.68" stroke-width="17" d=" M-27.180999755859375,-52.07899856567383 C-27.180999755859375,-52.07899856567383 -27.344999313354492,-25.20800018310547 -25.298999786376953,-3.8949999809265137 C-24.288000106811523,6.63700008392334 -19.264999389648438,23.577999114990234 -19.264999389648438,23.577999114990234"></path></g><g opacity="0.68" transform="matrix(1,0,0,1,91.27300262451172,189.3719940185547)"><path stroke-linecap="round" stroke-linejoin="round" fill-opacity="0" stroke="rgb(255,67,125)" stroke-opacity="0.8" stroke-width="17" d=" M5.692999839782715,-62.24100112915039 C5.692999839782715,-62.24100112915039 -5.480999946594238,-35.93000030517578 -4.896999835968018,0.04500000178813934 C-4.573999881744385,19.95400047302246 0.8050000071525574,47.46200180053711 0.8050000071525574,47.46200180053711"></path></g></g></g><g style="display: block;" transform="matrix(0.8905090093612671,0,0,0.8905090093612671,161.67735290527344,248.24139404296875)" opacity="1"><g opacity="1" transform="matrix(1,0,0,1,115.37200164794922,65.23300170898438)"><path fill="rgb(244,183,159)" fill-opacity="1" d=" M-77.1969985961914,-27.854999542236328 C-77.1969985961914,-27.854999542236328 -90.11599731445312,20.408000946044922 -45.54899978637695,30.753999710083008 C-0.9819999933242798,41.099998474121094 46.8129997253418,8.79800033569336 61.933998107910156,-8.711000442504883 C77.05500030517578,-26.2189998626709 86.74700164794922,-36.60900115966797 86.74700164794922,-36.60900115966797 C86.74700164794922,-36.60900115966797 -23.079999923706055,-23.07900047302246 -23.079999923706055,-23.07900047302246 C-23.079999923706055,-23.07900047302246 -77.1969985961914,-27.854999542236328 -77.1969985961914,-27.854999542236328z"></path><path stroke-linecap="round" stroke-linejoin="round" fill-opacity="0" stroke="rgb(253,197,2)" stroke-opacity="1" stroke-width="31" d=" M-77.1969985961914,-27.854999542236328 C-77.1969985961914,-27.854999542236328 -90.11599731445312,20.408000946044922 -45.54899978637695,30.753999710083008 C-0.9819999933242798,41.099998474121094 46.8129997253418,8.79800033569336 61.933998107910156,-8.711000442504883 C77.05500030517578,-26.2189998626709 86.74700164794922,-36.60900115966797 86.74700164794922,-36.60900115966797 C86.74700164794922,-36.60900115966797 -23.079999923706055,-23.07900047302246 -23.079999923706055,-23.07900047302246 C-23.079999923706055,-23.07900047302246 -77.1969985961914,-27.854999542236328 -77.1969985961914,-27.854999542236328z"></path></g><g opacity="1" transform="matrix(1,0,0,1,115.37200164794922,65.23300170898438)"><path fill="rgb(244,183,159)" fill-opacity="1" d=" M-77.1969985961914,-27.854999542236328 C-77.1969985961914,-27.854999542236328 -86.74700164794922,15.916000366210938 -42.18000030517578,26.261999130249023 C2.38700008392334,36.608001708984375 44.56700134277344,3.183000087738037 59.6879997253418,-14.326000213623047 C74.80899810791016,-31.833999633789062 86.74700164794922,-36.60900115966797 86.74700164794922,-36.60900115966797 C86.74700164794922,-36.60900115966797 -23.079999923706055,-23.07900047302246 -23.079999923706055,-23.07900047302246 C-23.079999923706055,-23.07900047302246 -77.1969985961914,-27.854999542236328 -77.1969985961914,-27.854999542236328z"></path><path stroke-linecap="round" stroke-linejoin="round" fill-opacity="0" stroke="rgb(177,88,43)" stroke-opacity="1" stroke-width="14" d=" M-77.1969985961914,-27.854999542236328 C-77.1969985961914,-27.854999542236328 -86.74700164794922,15.916000366210938 -42.18000030517578,26.261999130249023 C2.38700008392334,36.608001708984375 44.56700134277344,3.183000087738037 59.6879997253418,-14.326000213623047 C74.80899810791016,-31.833999633789062 86.74700164794922,-36.60900115966797 86.74700164794922,-36.60900115966797 C86.74700164794922,-36.60900115966797 -23.079999923706055,-23.07900047302246 -23.079999923706055,-23.07900047302246 C-23.079999923706055,-23.07900047302246 -77.1969985961914,-27.854999542236328 -77.1969985961914,-27.854999542236328z"></path></g><g opacity="0.47000000000000003" transform="matrix(1,0,0,1,111.65799713134766,47.66400146484375)"><path fill="rgb(129,9,32)" fill-opacity="0.65" d=" M92.09700012207031,-24.16699981689453 C92.09700012207031,-24.16699981689453 56.41699981689453,14.755999565124512 -6.60099983215332,17.93899917602539 C-69.61799621582031,21.121999740600586 -74.87000274658203,-28.219999313354492 -74.87000274658203,-28.219999313354492 C-74.87000274658203,-28.219999313354492 92.09700012207031,-24.16699981689453 92.09700012207031,-24.16699981689453z"></path></g></g><g style="display: block;" transform="matrix(0.8766352534294128,-0.15657877922058105,0.15657877922058105,0.8766352534294128,39.83610153198242,108.69957733154297)" opacity="1"><g opacity="1" transform="matrix(1,0,0,1,19.051000595092773,51.849998474121094)"><path fill="rgb(165,82,45)" fill-opacity="1" d=" M-4.755000114440918,19.92300033569336 C-9.562000274658203,19.7450008392334 -18.801000595092773,18.202999114990234 -16.79400062561035,1.2899999618530273 C-14.786999702453613,-15.62399959564209 -7.046999931335449,-19.636999130249023 -1.8869999647140503,-19.92300033569336 C3.2730000019073486,-20.209999084472656 16.20800018310547,-14.805999755859375 15.635000228881836,-7.639999866485596 C15.295999526977539,-3.4040000438690186 9.131999969482422,9.604999542236328 21.80699920654297,12.53600025177002 C24.865999221801758,13.243000030517578 13.604000091552734,14.920000076293945 13.017999649047852,15.623000144958496 C11.585000038146973,17.343000411987305 2.984999895095825,20.209999084472656 -4.755000114440918,19.92300033569336z"></path></g><g opacity="1" transform="matrix(0.9350424408912659,-0.354535847902298,0.354535847902298,0.9350424408912659,41.302101135253906,31.050710678100586)"><path fill="rgb(165,82,45)" fill-opacity="1" d=" M-20.084999084472656,2.259000062942505 C-14.770000457763672,-1.6740000247955322 -9.763999938964844,-8.251999855041504 1.8940000534057617,-12.456000328063965 C13.361000061035156,-16.591999053955078 24.253999710083008,-13.602999687194824 23.48900032043457,-6.7230000495910645 C22.93899917602539,-1.7699999809265137 18.902000427246094,-0.4169999957084656 12.977999687194824,0.5389999747276306 C7.053999900817871,1.4950000047683716 -2.38700008392334,1.3860000371932983 -9.324999809265137,7.938000202178955 C-16.26300048828125,14.489999771118164 -13.777999877929688,16.591999053955078 -15.116000175476074,16.400999069213867 C-18.52199935913086,15.914999961853027 -23.906999588012695,12.196999549865723 -24.097999572753906,10.095000267028809 C-24.253999710083008,8.381999969482422 -21.77899932861328,3.51200008392334 -20.084999084472656,2.259000062942505z"></path></g><g opacity="1" transform="matrix(0.9902874827384949,-0.13903483748435974,0.13903483748435974,0.9902874827384949,35.13687515258789,21.49574089050293)"><path fill="rgb(165,82,45)" fill-opacity="1" d=" M-21.184999465942383,11.371000289916992 C-21.184999465942383,11.371000289916992 -13.923999786376953,-1.9930000305175781 -5.514999866485596,-8.682000160217285 C2.6449999809265137,-15.173999786376953 9.010000228881836,-19.780000686645508 13.979000091552734,-18.632999420166016 C22.523000717163086,-16.66200065612793 20.094999313354492,-10.223999977111816 17.41900062561035,-8.503999710083008 C12.145999908447266,-5.114999771118164 6.691999912261963,-3.437000036239624 0.21899999678134918,1.815000057220459 C-6.254000186920166,7.067999839782715 -9.527000427246094,15.001999855041504 -10.291999816894531,16.34000015258789 C-11.055999755859375,17.67799949645996 -14.496000289916992,19.780000686645508 -18.509000778198242,17.67799949645996 C-22.523000717163086,15.574999809265137 -21.184999465942383,11.371000289916992 -21.184999465942383,11.371000289916992z"></path></g><g opacity="1" transform="matrix(0.9245260953903198,-0.3811187744140625,0.3811187744140625,0.9245260953903198,11.594629287719727,20.59248924255371)"><path fill="rgb(165,82,45)" fill-opacity="1" d=" M-11.989999771118164,14.954000473022461 C-11.989999771118164,14.954000473022461 -9.975000381469727,-3.822000026702881 -3.8589999675750732,-11.274999618530273 C1.9800000190734863,-18.391000747680664 8.562000274658203,-18.72800064086914 10.472999572753906,-15.097000122070312 C11.98900032043457,-12.217000007629395 7.033999919891357,-8.409000396728516 5.505000114440918,-5.734000205993652 C3.9760000705718994,-3.058000087738037 -0.9929999709129333,3.058000087738037 -2.3310000896453857,12.42300033569336 C-3.0399999618530273,17.388999938964844 -5.771999835968018,18.72800064086914 -8.446999549865723,18.53700065612793 C-11.123000144958496,18.34600067138672 -11.989999771118164,14.954000473022461 -11.989999771118164,14.954000473022461z"></path></g><g opacity="1" transform="matrix(0.8834632635116577,0.46850043535232544,-0.46850043535232544,0.8834632635116577,31.56104850769043,-3.6982498168945312)"><path fill="rgb(165,82,45)" fill-opacity="1" d=" M58.345001220703125,46.23699951171875 C52.334999084472656,45.21699905395508 44.27299880981445,48.678001403808594 41.74599838256836,52.737998962402344 C39.21900177001953,56.79800033569336 24.615999221801758,59.814998626708984 24.51799964904785,61.803001403808594 C24.420000076293945,63.79100036621094 22.975000381469727,70.802001953125 27.093000411987305,69.447998046875 C34.10100173950195,67.14299774169922 42.07899856567383,61.65599822998047 49.86800003051758,60.04100036621094 C58.641998291015625,58.22200012207031 64.16200256347656,62.1510009765625 64.72599792480469,56.547000885009766 C65.38300323486328,50.018001556396484 61.290000915527344,46.73699951171875 58.345001220703125,46.23699951171875z"></path></g></g><g style="display: block;" transform="matrix(0.7345865368843079,0.5033774971961975,-0.5033774971961975,0.7345865368843079,419.3619689941406,307.56463623046875)" opacity="1"><g opacity="1" transform="matrix(1,0,0,1,41.638999938964844,17.357999801635742)"><path fill="rgb(165,82,45)" fill-opacity="1" d=" M-18.202999114990234,-9.029999732971191 C-21.091999053955078,-7.033999919891357 -25.656999588012695,-1.2899999618530273 -17.3439998626709,7.0229997634887695 C-12.163999557495117,12.20300006866455 -2.059000015258789,13.616999626159668 5.590000152587891,13.616999626159668 C13.904000282287598,13.616999626159668 21.437999725341797,11.54800033569336 23.07699966430664,6.449999809265137 C25.656999588012695,-1.5770000219345093 20.405000686645508,-7.8520002365112305 7.309999942779541,-11.036999702453613 C-3.2960000038146973,-13.616999626159668 -13.300000190734863,-12.418000221252441 -18.202999114990234,-9.029999732971191z"></path></g><g opacity="1" transform="matrix(1,0,0,1,44.867000579833984,35.27399826049805)"><path fill="rgb(165,82,45)" fill-opacity="1" d=" M-1.0779999494552612,-12.039999961853027 C-0.2879999876022339,-9.079000473022461 -0.5049999952316284,-4.98799991607666 6.089000225067139,1.6629999876022339 C12.682000160217285,8.312999725341797 16.409000396728516,11.180000305175781 15.835000038146973,13.187000274658203 C15.26200008392334,15.192999839782715 15.26200008392334,19.493000030517578 5.802000045776367,18.920000076293945 C-3.6579999923706055,18.347000122070312 -8.244999885559082,7.739999771118164 -10.538000106811523,2.5799999237060547 C-12.831000328063965,-2.5799999237060547 -14.838000297546387,-8.88700008392334 -14.838000297546387,-8.88700008392334 C-14.838000297546387,-8.88700008392334 -16.409000396728516,-16.09600067138672 -10.25100040435791,-17.48699951171875 C-1.3650000095367432,-19.493000030517578 -2.2249999046325684,-16.34000015258789 -1.0779999494552612,-12.039999961853027z"></path></g><g opacity="1" transform="matrix(1,0,0,1,72.83300018310547,38.96200180053711)"><path fill="rgb(165,82,45)" fill-opacity="1" d=" M-21.788000106811523,-16.035999298095703 C-24.531999588012695,-14.206999778747559 -30.305999755859375,-14.347999572753906 -27.90399932861328,-12.08899974822998 C-23.562999725341797,-8.006999969482422 -5.572000026702881,5.632999897003174 1.0579999685287476,8.947999954223633 C11.951000213623047,14.395000457763672 18.83099937438965,11.529000282287598 19.69099998474121,8.37600040435791 C20.551000595092773,5.2220001220703125 17.684999465942383,1.2079999446868896 14.244999885559082,0.3479999899864197 C10.805000305175781,-0.5120000243186951 -0.375,-4.525000095367432 -4.675000190734863,-8.251999855041504 C-6.0329999923706055,-9.428999900817871 -10.274999618530273,-11.793000221252441 -11.1850004196167,-12.616999626159668 C-12.927000045776367,-14.197999954223633 -23.51799964904785,-20.070999145507812 -25.475000381469727,-18.766000747680664 C-25.475000381469727,-18.766000747680664 -21.788000106811523,-16.035999298095703 -21.788000106811523,-16.035999298095703z"></path></g><g opacity="1" transform="matrix(1,0,0,1,70.79199981689453,20.78700065612793)"><path fill="rgb(165,82,45)" fill-opacity="1" d=" M-16.937999725341797,-2.3940000534057617 C-16.840999603271484,-6.198999881744385 -12.8149995803833,-8.809000015258789 -8.788000106811523,-7.63700008392334 C-5.638000011444092,-6.718999862670898 -1.784999966621399,-5.790999889373779 2.3310000896453857,-5.230000019073486 C12.697999954223633,-3.816999912261963 16.996000289916992,-4.564000129699707 16.83099937438965,0.3479999899864197 C16.66699981689453,5.258999824523926 13.513999938964844,8.8100004196167 3.367000102996826,8.013999938964844 C-3.0450000762939453,7.51200008392334 -9.496999740600586,4.914000034332275 -13.378000259399414,3.069999933242798 C-15.616000175476074,2.006999969482422 -16.996000289916992,-0.13099999725818634 -16.937999725341797,-2.3940000534057617z"></path></g><g opacity="1" transform="matrix(1,0,0,1,17.011999130249023,26.5310001373291)"><path fill="rgb(165,82,45)" fill-opacity="1" d=" M9.003000259399414,-18.777000427246094 C9.003000259399414,-18.777000427246094 3.2309999465942383,-18.31599998474121 -5.063000202178955,-8.942999839782715 C-13.357000350952148,0.4309999942779541 -14.736000061035156,12.744999885559082 -10.75,15.760000228881836 C-6.763999938964844,18.775999069213867 -1.3170000314712524,14.763999938964844 0.6899999976158142,11.324000358581543 C2.696000099182129,7.883999824523926 6.710000038146973,-1.2890000343322754 9.289999961853027,-1.8630000352859497 C11.869999885559082,-2.436000108718872 14.736000061035156,-7.5970001220703125 14.163000106811523,-12.184000015258789 C13.59000015258789,-16.770000457763672 9.003000259399414,-18.777000427246094 9.003000259399414,-18.777000427246094z"></path></g></g><g style="display: block;" transform="matrix(0.9473073482513428,0.0090111019089818,-0.0090111019089818,0.9473073482513428,85.72116088867188,3.794282913208008)" opacity="1"><g opacity="1" transform="matrix(1,0,0,1,220.64700317382812,171.74899291992188)"><path fill="url(#__lottie_element_23)" fill-opacity="1" d=" M0,-133.843994140625 C-36.8650016784668,-130.0800018310547 -89.22899627685547,-123.8499984741211 -140.62600708007812,-69.5989990234375 C-192.02200317382812,-15.347000122070312 -182.0279998779297,73.16799926757812 -125.63500213623047,108.14600372314453 C-69.24199676513672,143.12399291992188 22.843000411987305,141.69700622558594 81.37699890136719,114.57099914550781 C139.91200256347656,87.44499969482422 192.02200317382812,44.87699890136719 192.02200317382812,-17.48900032043457 C192.02200317382812,-143.12399291992188 55.78099822998047,-139.53900146484375 0,-133.843994140625z"></path><path stroke-linecap="butt" stroke-linejoin="miter" fill-opacity="0" stroke-miterlimit="10" stroke="rgb(173,88,46)" stroke-opacity="1" stroke-width="11.45" d=" M0,-133.843994140625 C-36.8650016784668,-130.0800018310547 -89.22899627685547,-123.8499984741211 -140.62600708007812,-69.5989990234375 C-192.02200317382812,-15.347000122070312 -182.0279998779297,73.16799926757812 -125.63500213623047,108.14600372314453 C-69.24199676513672,143.12399291992188 22.843000411987305,141.69700622558594 81.37699890136719,114.57099914550781 C139.91200256347656,87.44499969482422 192.02200317382812,44.87699890136719 192.02200317382812,-17.48900032043457 C192.02200317382812,-143.12399291992188 55.78099822998047,-139.53900146484375 0,-133.843994140625z"></path></g><g opacity="1" transform="matrix(1,0,0,1,223.7480010986328,150.1269989013672)"><path fill="url(#__lottie_element_24)" fill-opacity="1" d=" M4.394999980926514,-105.44100189208984 C-29.819000244140625,-102.58200073242188 -82.81199645996094,-93.00700378417969 -130.51300048828125,-51.801998138427734 C-178.21299743652344,-10.597000122070312 -168.93800354003906,56.632999420166016 -116.5999984741211,83.1989974975586 C-64.26200103759766,109.76599884033203 21.201000213623047,108.68099975585938 75.5260009765625,88.0790023803711 C129.8509979248047,67.47599792480469 178.21400451660156,35.14500045776367 178.21400451660156,-12.222999572753906 C178.21400451660156,-107.6449966430664 56.165000915527344,-109.76599884033203 4.394999980926514,-105.44100189208984z"></path></g></g><g style="display: block;" transform="matrix(0.9473073482513428,0.0090111019089818,-0.0090111019089818,0.9473073482513428,165.09910583496094,42.470645904541016)" opacity="1"><g opacity="1" transform="matrix(1,0,-0.07850795239210129,0.897350013256073,14.093338012695312,12.279006958007812)"><g opacity="1" transform="matrix(1,0,0,1,173.1840057373047,131.44000244140625)"><path fill="rgb(76,14,32)" fill-opacity="1" d=" M-140.14599609375,-18.878999710083008 C-141.63400268554688,-24.434999465942383 -140.0780029296875,-30.363000869750977 -136.01100158691406,-34.42900085449219 C-119.23400115966797,-51.202999114990234 -77.9209976196289,-94.38400268554688 0.07100000232458115,-99.15899658203125 C59.78099822998047,-102.81500244140625 87.93099975585938,-94.17900085449219 100.3479995727539,-90.66999816894531 C105.1709976196289,-89.30699920654297 110.06800079345703,-87.12699890136719 111.9229965209961,-82.47000122070312 C120.3479995727539,-61.33599853515625 141.63499450683594,4.650000095367432 98.3239974975586,44.99399948120117 C46.2140007019043,93.53500366210938 -8.751999855041504,102.81500244140625 -58.00699996948242,85.68299865722656 C-107.26200103759766,68.5510025024414 -135.81500244140625,-7.116000175476074 -137.95700073242188,-12.11299991607666 C-138.718994140625,-13.890999794006348 -139.47999572753906,-16.393999099731445 -140.14599609375,-18.878999710083008z"></path><path stroke-linecap="butt" stroke-linejoin="miter" fill-opacity="0" stroke-miterlimit="10" stroke="rgb(155,74,38)" stroke-opacity="1" stroke-width="11.45" d=" M-140.14599609375,-18.878999710083008 C-141.63400268554688,-24.434999465942383 -140.0780029296875,-30.363000869750977 -136.01100158691406,-34.42900085449219 C-119.23400115966797,-51.202999114990234 -77.9209976196289,-94.38400268554688 0.07100000232458115,-99.15899658203125 C59.78099822998047,-102.81500244140625 87.93099975585938,-94.17900085449219 100.3479995727539,-90.66999816894531 C105.1709976196289,-89.30699920654297 110.06800079345703,-87.12699890136719 111.9229965209961,-82.47000122070312 C120.3479995727539,-61.33599853515625 141.63499450683594,4.650000095367432 98.3239974975586,44.99399948120117 C46.2140007019043,93.53500366210938 -8.751999855041504,102.81500244140625 -58.00699996948242,85.68299865722656 C-107.26200103759766,68.5510025024414 -135.81500244140625,-7.116000175476074 -137.95700073242188,-12.11299991607666 C-138.718994140625,-13.890999794006348 -139.47999572753906,-16.393999099731445 -140.14599609375,-18.878999710083008z"></path></g><g opacity="1" transform="matrix(1,0,0,1,120.88800048828125,135.03199768066406)"><path fill="rgb(30,13,5)" fill-opacity="1" d=" M75.66699981689453,18.55900001525879 C75.66699981689453,18.55900001525879 64.95800018310547,-49.255001068115234 29.981000900268555,-49.96900177001953 C-4.997000217437744,-50.68299865722656 -4.283999919891357,-34.97800064086914 -1.4279999732971191,-24.983999252319336 C1.4270000457763672,-14.989999771118164 -2.1419999599456787,-5.710999965667725 -8.567000389099121,-10.708000183105469 C-14.991000175476074,-15.704999923706055 -15.704999923706055,-22.843000411987305 -21.416000366210938,-27.125999450683594 C-27.125999450683594,-31.409000396728516 -54.965999603271484,-42.83000183105469 -62.81800079345703,-21.415000915527344 C-70.66999816894531,0 -61.749000549316406,15.881999969482422 -46.04499816894531,28.731000900268555 C-30.34000015258789,41.58000183105469 4.2829999923706055,49.25400161743164 4.2829999923706055,49.25400161743164 C4.2829999923706055,49.25400161743164 75.66699981689453,18.55900001525879 75.66699981689453,18.55900001525879z"></path></g><g opacity="1" transform="matrix(1,0,0,1,156.36700439453125,174.7169952392578)"><path fill="rgb(214,24,79)" fill-opacity="1" d=" M-84.21800231933594,5.736000061035156 C-86.95700073242188,1.3079999685287476 -89.77899932861328,-1.1410000324249268 -85.95999908447266,-4.679999828338623 C-77.06700134277344,-12.923999786376953 -68.0009994506836,-26.243000030517578 -45.1870002746582,-30.488000869750977 C-28.552000045776367,-33.58300018310547 -13.576000213623047,-32.138999938964844 -8.411999702453613,-31.246999740600586 C-5.368000030517578,-30.72100067138672 -2.2669999599456787,-31.562000274658203 0.1589999943971634,-33.474998474121094 C5.367000102996826,-37.58300018310547 15.96500015258789,-43.81399917602539 32.275001525878906,-43.750999450683594 C56.58700180053711,-43.65599822998047 75.33799743652344,-29.312000274658203 83.20899963378906,-16.160999298095703 C85.0250015258789,-13.128000259399414 86.37999725341797,-10.562000274658203 87.38899993896484,-8.40999984741211 C89.77899932861328,-3.316999912261963 87.85900115966797,2.753999948501587 82.99099731445312,5.574999809265137 C82.99099731445312,5.574999809265137 50.624000549316406,24.333999633789062 50.624000549316406,24.333999633789062 C49.81800079345703,24.801000595092773 48.95399856567383,25.163000106811523 48.05500030517578,25.40999984741211 C48.05500030517578,25.40999984741211 -17.464000701904297,43.40599822998047 -17.464000701904297,43.40599822998047 C-18.4689998626709,43.68199920654297 -19.50200080871582,43.81399917602539 -20.54400062561035,43.79199981689453 C-25.822999954223633,43.683998107910156 -37.095001220703125,37.81399917602539 -54.17399978637695,30.416000366210938 C-67.38500213623047,24.69300079345703 -79.18299865722656,13.87600040435791 -84.21800231933594,5.736000061035156z"></path><path stroke-linecap="round" stroke-linejoin="round" fill-opacity="0" stroke="rgb(124,17,53)" stroke-opacity="1" stroke-width="9.737" d=" M-84.21800231933594,5.736000061035156 C-86.95700073242188,1.3079999685287476 -89.77899932861328,-1.1410000324249268 -85.95999908447266,-4.679999828338623 C-77.06700134277344,-12.923999786376953 -68.0009994506836,-26.243000030517578 -45.1870002746582,-30.488000869750977 C-28.552000045776367,-33.58300018310547 -13.576000213623047,-32.138999938964844 -8.411999702453613,-31.246999740600586 C-5.368000030517578,-30.72100067138672 -2.2669999599456787,-31.562000274658203 0.1589999943971634,-33.474998474121094 C5.367000102996826,-37.58300018310547 15.96500015258789,-43.81399917602539 32.275001525878906,-43.750999450683594 C56.58700180053711,-43.65599822998047 75.33799743652344,-29.312000274658203 83.20899963378906,-16.160999298095703 C85.0250015258789,-13.128000259399414 86.37999725341797,-10.562000274658203 87.38899993896484,-8.40999984741211 C89.77899932861328,-3.316999912261963 87.85900115966797,2.753999948501587 82.99099731445312,5.574999809265137 C82.99099731445312,5.574999809265137 50.624000549316406,24.333999633789062 50.624000549316406,24.333999633789062 C49.81800079345703,24.801000595092773 48.95399856567383,25.163000106811523 48.05500030517578,25.40999984741211 C48.05500030517578,25.40999984741211 -17.464000701904297,43.40599822998047 -17.464000701904297,43.40599822998047 C-18.4689998626709,43.68199920654297 -19.50200080871582,43.81399917602539 -20.54400062561035,43.79199981689453 C-25.822999954223633,43.683998107910156 -37.095001220703125,37.81399917602539 -54.17399978637695,30.416000366210938 C-67.38500213623047,24.69300079345703 -79.18299865722656,13.87600040435791 -84.21800231933594,5.736000061035156z"></path></g><g opacity="1" transform="matrix(1,0,0,1,161.58399963378906,160.14700317382812)"><path stroke-linecap="round" stroke-linejoin="round" fill-opacity="0" stroke="rgb(124,17,53)" stroke-opacity="1" stroke-width="9.737" d=" M-16.44700050354004,-15.916999816894531 C-16.44700050354004,-15.916999816894531 0,-11.142000198364258 8.48900032043457,0 C15,8.545000076293945 16.44700050354004,15.916999816894531 16.44700050354004,15.916999816894531"></path></g><g opacity="1" transform="matrix(1,0,0,1,145.13600158691406,161.47300720214844)"><path fill="rgb(255,49,118)" fill-opacity="1" d=" M-12.20300006866455,0.7960000038146973 C-12.20300006866455,0.7960000038146973 -1.5920000076293945,15.121000289916992 9.020000457763672,14.0600004196167 C19.631000518798828,12.99899959564209 16.44700050354004,0.7960000038146973 10.611000061035156,-4.510000228881836 C4.775000095367432,-9.8149995803833 -5.835999965667725,-15.121000289916992 -12.734000205993652,-11.937999725341797 C-19.631000518798828,-8.753999710083008 -12.20300006866455,0.7960000038146973 -12.20300006866455,0.7960000038146973z"></path></g><g opacity="1" transform="matrix(1,0,0,1,198.02200317382812,145.41299438476562)"><path fill="rgb(255,49,118)" fill-opacity="1" d=" M-12.00100040435791,0.5410000085830688 C-12.00100040435791,0.5410000085830688 -1.565999984741211,10.288999557495117 8.869999885559082,9.567000389099121 C19.305999755859375,8.845000267028809 16.176000595092773,0.5419999957084656 10.437000274658203,-3.068000078201294 C4.697000026702881,-6.677999973297119 -5.738999843597412,-10.288000106811523 -12.52299976348877,-8.121999740600586 C-19.305999755859375,-5.955999851226807 -12.00100040435791,0.5410000085830688 -12.00100040435791,0.5410000085830688z"></path></g><g opacity="1" transform="matrix(1,0,0,1,221.40899658203125,165.1020050048828)"><path fill="rgb(255,49,118)" fill-opacity="1" d=" M-7.377999782562256,0.15399999916553497 C-6.809999942779541,2.371999979019165 -1.9550000429153442,7.250999927520752 2.8970000743865967,3.240000009536743 C7.749000072479248,-0.7710000276565552 5.750999927520752,-4.164999961853027 2.3259999752044678,-5.708000183105469 C-1.0989999771118164,-7.250999927520752 -5.09499979019165,-6.633999824523926 -6.236000061035156,-5.708000183105469 C-7.377999782562256,-4.7820000648498535 -7.748000144958496,-1.2890000343322754 -7.377999782562256,0.15399999916553497z"></path></g><g opacity="1" transform="matrix(1,0,0,1,156.40199279785156,78.12200164794922)"><path fill="rgb(255,255,255)" fill-opacity="1" d=" M-105.46900177001953,51.19900131225586 C-105.46900177001953,51.19900131225586 -104.59100341796875,50.4640007019043 -102.84200286865234,49.1609992980957 C-102.322998046875,48.77399826049805 -101.72699737548828,48.33700180053711 -101.05500030517578,47.854000091552734 C-88.0469970703125,38.51300048828125 -46.40800094604492,12.031999588012695 22.308000564575195,-0.19699999690055847 C106.54000091552734,-15.187999725341797 96.54499816894531,1.944000005722046 97.9729995727539,6.2270002365112305 C99.4010009765625,10.510000228881836 100.8290023803711,17.64900016784668 107.25399780273438,13.366000175476074 C113.67900085449219,9.083000183105469 124.1989974975586,0.21199999749660492 124.91300201416016,-7.639999866485596 C125.45700073242188,-13.631999969482422 124.13800048828125,-24.607999801635742 122.96600341796875,-27.979000091552734 C122.59300231933594,-29.054000854492188 121.4540023803711,-29.929000854492188 120.40299987792969,-30.365999221801758 C111.20800018310547,-34.1879997253418 63.81999969482422,-51.19900131225586 -3.306999921798706,-38.41299819946289 C-78.25900268554688,-24.13599967956543 -125.45600128173828,25.500999450683594 -125.45600128173828,25.500999450683594 C-125.45600128173828,25.500999450683594 -116.68499755859375,36.77799987792969 -116.68499755859375,36.77799987792969 C-116.68499755859375,36.77799987792969 -105.46900177001953,51.19900131225586 -105.46900177001953,51.19900131225586z"></path><path stroke-linecap="round" stroke-linejoin="round" fill-opacity="0" stroke="rgb(95,131,183)" stroke-opacity="1" stroke-width="9.47" d=" M-105.46900177001953,51.19900131225586 C-105.46900177001953,51.19900131225586 -104.59100341796875,50.4640007019043 -102.84200286865234,49.1609992980957 C-102.322998046875,48.77399826049805 -101.72699737548828,48.33700180053711 -101.05500030517578,47.854000091552734 C-88.0469970703125,38.51300048828125 -46.40800094604492,12.031999588012695 22.308000564575195,-0.19699999690055847 C106.54000091552734,-15.187999725341797 96.54499816894531,1.944000005722046 97.9729995727539,6.2270002365112305 C99.4010009765625,10.510000228881836 100.8290023803711,17.64900016784668 107.25399780273438,13.366000175476074 C113.67900085449219,9.083000183105469 124.1989974975586,0.21199999749660492 124.91300201416016,-7.639999866485596 C125.45700073242188,-13.631999969482422 124.13800048828125,-24.607999801635742 122.96600341796875,-27.979000091552734 C122.59300231933594,-29.054000854492188 121.4540023803711,-29.929000854492188 120.40299987792969,-30.365999221801758 C111.20800018310547,-34.1879997253418 63.81999969482422,-51.19900131225586 -3.306999921798706,-38.41299819946289 C-78.25900268554688,-24.13599967956543 -125.45600128173828,25.500999450683594 -125.45600128173828,25.500999450683594 C-125.45600128173828,25.500999450683594 -116.68499755859375,36.77799987792969 -116.68499755859375,36.77799987792969 C-116.68499755859375,36.77799987792969 -105.46900177001953,51.19900131225586 -105.46900177001953,51.19900131225586z"></path></g><g opacity="1" transform="matrix(1,0,0,1,163.1750030517578,88.16699981689453)"><path fill="rgb(179,197,242)" fill-opacity="1" d=" M-114.60199737548828,28.649999618530273 C-114.60199737548828,28.649999618530273 -55.88600158691406,-16.270000457763672 21.576000213623047,-25.81999969482422 C99.03800201416016,-35.369998931884766 114.60199737548828,-15.562999725341797 114.60199737548828,-15.562999725341797 C114.60199737548828,-15.562999725341797 110.35700225830078,-5.658999919891357 98.33100128173828,1.062000036239624 C96.4530029296875,2.1110000610351562 94.44000244140625,-2.121999979019165 94.08599853515625,-4.24399995803833 C93.73200225830078,-6.366000175476074 97.62300109863281,-15.564000129699707 84.53600311279297,-17.68600082397461 C71.4489974975586,-19.808000564575195 31.83300018310547,-21.222000122070312 -15.916999816894531,-7.073999881744385 C-41.41999816894531,0.4830000102519989 -66.72000122070312,12.074000358581543 -84.76000213623047,21.235000610351562 C-94.58100128173828,26.222000122070312 -102.2490005493164,30.48900032043457 -106.62799835205078,32.99300003051758 C-109.26699829101562,34.50199890136719 -110.71099853515625,35.369998931884766 -110.71099853515625,35.369998931884766 C-110.71099853515625,35.369998931884766 -114.60199737548828,28.649999618530273 -114.60199737548828,28.649999618530273z"></path></g><g opacity="1" transform="matrix(1,0,0,1,180.41900634765625,196.38499450683594)"><path fill="rgb(255,255,255)" fill-opacity="1" d=" M90.46099853515625,-26.158000946044922 C90.46099853515625,-26.158000946044922 17.87700080871582,-15.371999740600586 -10.87600040435791,-10.772000312805176 C-50.66899871826172,-4.40500020980835 -90.46099853515625,5.144999980926514 -90.46099853515625,5.144999980926514 C-90.46099853515625,5.144999980926514 -70.88899993896484,26.158000946044922 -23.07900047302246,24.2450008392334 C16.71299934387207,22.65399932861328 37.55099868774414,12.170999526977539 59.68000030517578,0.75 C81.80899810791016,-10.670999526977539 90.46099853515625,-26.158000946044922 90.46099853515625,-26.158000946044922z"></path><path stroke-linecap="round" stroke-linejoin="round" fill-opacity="0" stroke="rgb(95,131,183)" stroke-opacity="1" stroke-width="9.47" d=" M90.46099853515625,-26.158000946044922 C90.46099853515625,-26.158000946044922 17.87700080871582,-15.371999740600586 -10.87600040435791,-10.772000312805176 C-50.66899871826172,-4.40500020980835 -90.46099853515625,5.144999980926514 -90.46099853515625,5.144999980926514 C-90.46099853515625,5.144999980926514 -70.88899993896484,26.158000946044922 -23.07900047302246,24.2450008392334 C16.71299934387207,22.65399932861328 37.55099868774414,12.170999526977539 59.68000030517578,0.75 C81.80899810791016,-10.670999526977539 90.46099853515625,-26.158000946044922 90.46099853515625,-26.158000946044922z"></path></g><g opacity="1" transform="matrix(1,0,0,1,173.1840057373047,131.44000244140625)"><path stroke-linecap="butt" stroke-linejoin="miter" fill-opacity="0" stroke-miterlimit="10" stroke="rgb(169,76,34)" stroke-opacity="1" stroke-width="11.45" d=" M-140.14599609375,-18.878999710083008 C-141.63400268554688,-24.434999465942383 -140.0780029296875,-30.363000869750977 -136.01100158691406,-34.42900085449219 C-119.23400115966797,-51.202999114990234 -77.9209976196289,-94.38400268554688 0.07100000232458115,-99.15899658203125 C59.78099822998047,-102.81500244140625 87.93099975585938,-94.17900085449219 100.3479995727539,-90.66999816894531 C105.1709976196289,-89.30699920654297 110.06800079345703,-87.12699890136719 111.9229965209961,-82.47000122070312 C120.3479995727539,-61.33599853515625 141.63499450683594,4.650000095367432 98.3239974975586,44.99399948120117 C46.2140007019043,93.53500366210938 -8.751999855041504,102.81500244140625 -58.00699996948242,85.68299865722656 C-107.26200103759766,68.5510025024414 -135.81500244140625,-7.116000175476074 -137.95700073242188,-12.11299991607666 C-138.718994140625,-13.890999794006348 -139.47999572753906,-16.393999099731445 -140.14599609375,-18.878999710083008z"></path></g></g></g><g style="display: block;" transform="matrix(0.9473073482513428,0.0090111019089818,-0.0090111019089818,0.9473073482513428,150.97674560546875,-9.063532829284668)" opacity="1"><g opacity="1" transform="matrix(1.1193512678146362,0.03631129488348961,-0.037137098610401154,1.1448078155517578,-34.48597717285156,-17.934803009033203)"><g opacity="1" transform="matrix(1,0,0,1,234.13699340820312,48.349998474121094)"><path fill="rgb(179,197,242)" fill-opacity="1" d=" M-41.43199920654297,12.406000137329102 C-42.22600173950195,16.343000411987305 -38.99100112915039,19.930999755859375 -34.98899841308594,19.586000442504883 C-24.590999603271484,18.687999725341797 -4.781000137329102,17.49799919128418 11.392999649047852,19.58300018310547 C20.750999450683594,20.790000915527344 29.125999450683594,22.511999130249023 34.630001068115234,23.77899932861328 C38.52299880981445,24.674999237060547 42.22700119018555,21.625 42.02899932861328,17.635000228881836 C41.66999816894531,10.395999908447266 38.65800094604492,-0.5920000076293945 25.66900062561035,-9.684000015258789 C4.254000186920166,-24.674999237060547 -21.229000091552734,-18.761999130249023 -33.255001068115234,-4.61299991607666 C-38.24800109863281,1.2610000371932983 -40.46099853515625,7.59499979019165 -41.43199920654297,12.406000137329102z"></path><path stroke-linecap="round" stroke-linejoin="round" fill-opacity="0" stroke="rgb(76,79,114)" stroke-opacity="1" stroke-width="9.47" d=" M-41.43199920654297,12.406000137329102 C-42.22600173950195,16.343000411987305 -38.99100112915039,19.930999755859375 -34.98899841308594,19.586000442504883 C-24.590999603271484,18.687999725341797 -4.781000137329102,17.49799919128418 11.392999649047852,19.58300018310547 C20.750999450683594,20.790000915527344 29.125999450683594,22.511999130249023 34.630001068115234,23.77899932861328 C38.52299880981445,24.674999237060547 42.22700119018555,21.625 42.02899932861328,17.635000228881836 C41.66999816894531,10.395999908447266 38.65800094604492,-0.5920000076293945 25.66900062561035,-9.684000015258789 C4.254000186920166,-24.674999237060547 -21.229000091552734,-18.761999130249023 -33.255001068115234,-4.61299991607666 C-38.24800109863281,1.2610000371932983 -40.46099853515625,7.59499979019165 -41.43199920654297,12.406000137329102z"></path></g><g opacity="1" transform="matrix(1,0,0,1,237.17100524902344,45.95199966430664)"><path fill="rgb(255,255,255)" fill-opacity="1" d=" M-27.464000701904297,2.1440000534057617 C-29.158000946044922,5.849999904632568 -26.905000686645508,9.062999725341797 -22.80900001525879,9.61400032043457 C-16.790000915527344,10.423999786376953 -5.514999866485596,9.987000465393066 4.919000148773193,11.225000381469727 C11.321000099182129,11.984999656677246 16.951000213623047,14.199000358581543 21.54400062561035,14.76099967956543 C25.959999084472656,15.303000450134277 29.158000946044922,13.298999786376953 28.440000534057617,8.925000190734863 C27.356000900268555,2.322999954223633 19.400999069213867,-6.026000022888184 5.0960001945495605,-10.175000190734863 C-12.58899974822998,-15.303999900817871 -23.666000366210938,-5.188000202178955 -26.941999435424805,1.0759999752044678 C-27.1299991607666,1.4359999895095825 -27.30299949645996,1.7929999828338623 -27.464000701904297,2.1440000534057617z"></path></g><g opacity="1" transform="matrix(1,0,0,1,249.927001953125,47.45199966430664)"><path fill="rgb(37,33,48)" fill-opacity="1" d=" M13.906000137329102,6.184999942779541 C12.069999694824219,10.145999908447266 3.7079999446868896,11.45300006866455 -4.40500020980835,8.121000289916992 C-12.586999893188477,4.761000156402588 -16.08300018310547,-2.4579999446868896 -14.385000228881836,-6.480999946594238 C-11.420999526977539,-13.503999710083008 -1.9570000171661377,-12.038999557495117 4.235000133514404,-9.168000221252441 C10.427000045776367,-6.297999858856201 15.741999626159668,2.2239999771118164 13.906000137329102,6.184999942779541z"></path></g><g opacity="1" transform="matrix(1,0,0,1,261.5260009765625,51.667999267578125)"><path fill="rgb(255,255,255)" fill-opacity="1" d=" M5.548999786376953,2.572000026702881 C5.085999965667725,3.569999933242798 2.2269999980926514,3.2269999980926514 -0.8379999995231628,1.805999994277954 C-3.9030001163482666,0.38499999046325684 -6.01200008392334,-1.5759999752044678 -5.550000190734863,-2.572999954223633 C-5.086999893188477,-3.571000099182129 -2.2279999256134033,-3.2279999256134033 0.8370000123977661,-1.8070000410079956 C3.9019999504089355,-0.38600000739097595 6.01200008392334,1.5740000009536743 5.548999786376953,2.572000026702881z"></path></g></g><g opacity="1" transform="matrix(1.1933200359344482,0,0,1.1933200359344482,-9.384109497070312,-25.081382751464844)"><g opacity="1" transform="matrix(1,0,0,1,63.54499816894531,92.8219985961914)"><path fill="rgb(179,197,242)" fill-opacity="1" d=" M-35.93000030517578,30.01099967956543 C-34.599998474121094,34.145999908447266 -29.56999969482422,35.70199966430664 -26.173999786376953,32.99399948120117 C-19.187000274658203,27.42300033569336 -6.502999782562256,18.06800079345703 9.737000465393066,9.364999771118164 C19.277999877929688,4.251999855041504 28.66200065612793,0.4259999990463257 34.685001373291016,-1.8289999961853027 C38.345001220703125,-3.200000047683716 39.869998931884766,-7.577000141143799 37.79100036621094,-10.88599967956543 C31.843000411987305,-20.351999282836914 17.905000686645508,-35.702999114990234 -7.328999996185303,-28.570999145507812 C-39.869998931884766,-19.375 -39.07400131225586,13.875 -37.21699905395508,24.750999450683594 C-36.88600158691406,26.69099998474121 -36.43199920654297,28.451000213623047 -35.93000030517578,30.01099967956543z"></path><path stroke-linecap="round" stroke-linejoin="round" fill-opacity="0" stroke="rgb(76,79,114)" stroke-opacity="1" stroke-width="9.47" d=" M-35.93000030517578,30.01099967956543 C-34.599998474121094,34.145999908447266 -29.56999969482422,35.70199966430664 -26.173999786376953,32.99399948120117 C-19.187000274658203,27.42300033569336 -6.502999782562256,18.06800079345703 9.737000465393066,9.364999771118164 C19.277999877929688,4.251999855041504 28.66200065612793,0.4259999990463257 34.685001373291016,-1.8289999961853027 C38.345001220703125,-3.200000047683716 39.869998931884766,-7.577000141143799 37.79100036621094,-10.88599967956543 C31.843000411987305,-20.351999282836914 17.905000686645508,-35.702999114990234 -7.328999996185303,-28.570999145507812 C-39.869998931884766,-19.375 -39.07400131225586,13.875 -37.21699905395508,24.750999450683594 C-36.88600158691406,26.69099998474121 -36.43199920654297,28.451000213623047 -35.93000030517578,30.01099967956543z"></path></g><g opacity="1" transform="matrix(1,0,0,1,60.37699890136719,86.26599884033203)"><path fill="rgb(255,255,255)" fill-opacity="1" d=" M-27.167999267578125,20.892000198364258 C-26.225000381469727,24.83300018310547 -22.67099952697754,28.06800079345703 -19.20400047302246,25.972000122070312 C-14.109000205993652,22.891000747680664 -3.3529999256134033,12.517999649047852 6.74399995803833,7.515999794006348 C12.39900016784668,4.715000152587891 23.590999603271484,0.4580000042915344 27.445999145507812,-1.9359999895095825 C31.152999877929688,-4.23799991607666 29.927000045776367,-8.399999618530273 26.735000610351562,-11.375 C21.916000366210938,-15.864999771118164 9.890000343322754,-20.98900032043457 -4.179999828338623,-17.31399917602539 C-26.56800079345703,-11.465999603271484 -28.69099998474121,12.819000244140625 -27.413000106811523,19.735000610351562 C-27.34000015258789,20.132999420166016 -27.256999969482422,20.51799964904785 -27.167999267578125,20.892000198364258z"></path></g><g opacity="1" transform="matrix(1,0,0,1,44.999000549316406,86.68599700927734)"><path fill="rgb(37,33,48)" fill-opacity="1" d=" M11.322999954223633,-6.538000106811523 C14.097000122070312,-1.7339999675750732 11.274999618530273,5.089000225067139 5.021999835968018,8.699000358581543 C-1.2319999933242798,12.3100004196167 -8.550000190734863,11.340999603271484 -11.324000358581543,6.5370001792907715 C-14.097000122070312,1.7330000400543213 -11.276000022888184,-5.0879998207092285 -5.0229997634887695,-8.699000358581543 C1.2309999465942383,-12.3100004196167 8.548999786376953,-11.342000007629395 11.322999954223633,-6.538000106811523z"></path></g><g opacity="1" transform="matrix(1,0,0,1,55.220001220703125,80.0250015258789)"><path fill="rgb(255,255,255)" fill-opacity="1" d=" M6.35099983215332,-3.6670000553131104 C7.078000068664551,-2.4089999198913574 4.822999954223633,0.2540000081062317 1.315999984741211,2.2790000438690186 C-2.190999984741211,4.303999900817871 -5.624000072479248,4.925000190734863 -6.349999904632568,3.6670000553131104 C-7.077000141143799,2.4089999198913574 -4.822999954223633,-0.2540000081062317 -1.315000057220459,-2.2790000438690186 C2.191999912261963,-4.303999900817871 5.624000072479248,-4.925000190734863 6.35099983215332,-3.6670000553131104z"></path></g></g></g><g style="display: block;" transform="matrix(1,0,0,1,256,256)" opacity="1"></g><g style="display: block;" transform="matrix(0.9404944181442261,-0.0038246517069637775,0.0038205962628126144,0.9394970536231995,-146.52427673339844,261.0148620605469)" opacity="1"><g opacity="1" transform="matrix(1,0,0,1,0,5)"><path stroke-linecap="round" stroke-linejoin="round" fill-opacity="0" stroke="rgb(203,0,74)" stroke-opacity="1" stroke-width="46" d=" M233.88499450683594,229.2989959716797 C248.30999755859375,223.95599365234375 250.79800415039062,213.38699340820312 275,215 C296.0480041503906,216.4029998779297 295,229 315,230 C335,231 347,217 365,217 C383,217 391.02099609375,226.0959930419922 410,227 C431,228 449,214 471,216 C493,218 502.97698974609375,229 524.9990234375,229 C553,229 553,207 573,207 C604.0159912109375,207 595,228 622,230 C646.7769775390625,231.8350067138672 652.1849975585938,210.9340057373047 671.4539794921875,205.16099548339844"></path></g></g><g style="display: block;" transform="matrix(0.9400035738945007,0,0,0.9400035738945007,-146.32122802734375,255.99951171875)" opacity="1"><g opacity="1" transform="matrix(1,0,0,1,0,5)"><path stroke-linecap="round" stroke-linejoin="round" fill-opacity="0" stroke="rgb(252,197,2)" stroke-opacity="1" stroke-width="23" d=" M233.88499450683594,229.2989959716797 C248.30999755859375,223.95599365234375 250.79800415039062,213.38699340820312 275,215 C296.0480041503906,216.4029998779297 295,229 315,230 C335,231 347,217 365,217 C383,217 391.02099609375,226.0959930419922 410,227 C431,228 449,214 471,216 C493,218 502.97698974609375,229 524.9990234375,229 C553,229 553,207 573,207 C604.0159912109375,207 595,228 622,230 C646.7769775390625,231.8350067138672 652.1849975585938,210.9340057373047 671.4539794921875,205.16099548339844"></path></g></g></g></svg>