<svg xmlns="http://www.w3.org/2000/svg" xmlns:xlink="http://www.w3.org/1999/xlink" viewBox="0 0 512 512" width="512" height="512" style="width: 100%; height: 100%; transform: translate3d(0,0,0); content-visibility: visible;" preserveAspectRatio="xMidYMid meet"><defs><clipPath id="__lottie_element_2"><rect width="512" height="512" x="0" y="0"></rect></clipPath><clipPath id="__lottie_element_4"><path d="M0,0 L512,0 L512,512 L0,512z"></path></clipPath><radialGradient id="__lottie_element_13" spreadMethod="pad" gradientUnits="userSpaceOnUse" cx="16.45199966430664" cy="-111.77300262451172" r="289.74421586105956" fx="16.45199966430664" fy="-111.77300262451172"><stop offset="0%" stop-color="rgb(255,237,213)"></stop><stop offset="41%" stop-color="rgb(255,199,163)"></stop><stop offset="97%" stop-color="rgb(255,161,113)"></stop></radialGradient><mask id="__lottie_element_15"><path fill="url(#__lottie_element_14)" d=" M-210.83567810058594,-71.32023620605469 C-207.82968139648438,-78.65523529052734 -203.7169952392578,-87.4493408203125 -198.4331817626953,-97.0162353515625 C-195.34812927246094,-102.60242462158203 -191.86341857910156,-108.45121002197266 -187.967529296875,-114.427734375 C-183.8341064453125,-120.76910400390625 -179.23663330078125,-127.25318145751953 -174.1605224609375,-133.7161865234375 C-149.92971801757812,-164.56881713867188 -114.79100036621094,-194.95399475097656 -67.10199737548828,-207.11199951171875 C73.50499725341797,-242.95799255371094 181.98452758789062,-144.61781311035156 208.50845336914062,-52.368526458740234 C230.35194396972656,23.607526779174805 217.09323120117188,90.30400085449219 163.00523376464844,147.74099731445312 C158.70924377441406,152.30299377441406 176.90586853027344,176.00599670410156 156.78591918945312,190.45765686035156 C143.90126037597656,200.02084350585938 136.52615356445312,175.17684936523438 132.82015991210938,178.19984436035156 C129.50315856933594,180.9058380126953 118.56813049316406,190.99957275390625 106.85613250732422,198.02444458007812 C40.79326248168945,237.6556854248047 -22.675893783569336,238.61029052734375 -101.05291748046875,199.81130981445312 C-218.56407165527344,141.66748046875 -239.78468322753906,-0.6822368502616882 -210.83567810058594,-71.32023620605469z"></path></mask><radialGradient id="__lottie_element_14" spreadMethod="pad" gradientUnits="userSpaceOnUse" cx="16.45199966430664" cy="-111.77300262451172" r="289.74421586105956" fx="16.45199966430664" fy="-111.77300262451172"><stop stop-color="rgb(255,255,255)" offset="0%" stop-opacity="0.9300000071525574"></stop><stop stop-color="rgb(255,255,255)" offset="57%" stop-opacity="0.9649999737739563"></stop><stop stop-color="rgb(255,255,255)" offset="100%" stop-opacity="1"></stop></radialGradient><linearGradient id="__lottie_element_16" spreadMethod="pad" gradientUnits="userSpaceOnUse" x1="104.65599822998047" y1="114.10900115966797" x2="128.447998046875" y2="-101.69400024414062"><stop offset="0%" stop-color="rgb(246,141,88)"></stop><stop offset="50%" stop-color="rgb(246,145,88)"></stop><stop offset="100%" stop-color="rgb(246,150,88)"></stop></linearGradient><mask id="__lottie_element_18"><path fill="url(#__lottie_element_17)" d=" M98.63521575927734,-153.94212341308594 C98.63521575927734,-153.94212341308594 118.42833709716797,-65.0037612915039 100.32733154296875,6.35324239730835 C84.12833404541016,70.21224212646484 39.009849548339844,120.6114273071289 -0.6071515083312988,141.66342163085938 C-67.11914825439453,177.0064239501953 -171.9252166748047,157.7406005859375 -171.9252166748047,157.7406005859375 C-171.9252166748047,157.7406005859375 -97.12403106689453,205.00906372070312 -15.532454490661621,191.09751892089844 C60.53257751464844,178.2813262939453 115.18527221679688,105.82527160644531 136.89727783203125,52.84727096557617 C158.6082763671875,-0.13072727620601654 157.31617736816406,-69.00869750976562 125.52518463134766,-119.61470031738281 C93.73318481445312,-170.220703125 98.63521575927734,-153.94212341308594 98.63521575927734,-153.94212341308594z"></path></mask><linearGradient id="__lottie_element_17" spreadMethod="pad" gradientUnits="userSpaceOnUse" x1="104.65599822998047" y1="114.10900115966797" x2="128.447998046875" y2="-101.69400024414062"><stop stop-color="rgb(255,255,255)" offset="0%" stop-opacity="0.9300000071525574"></stop><stop stop-color="rgb(255,255,255)" offset="57%" stop-opacity="0.4650000035762787"></stop><stop stop-color="rgb(255,255,255)" offset="100%" stop-opacity="0"></stop></linearGradient><clipPath id="__lottie_element_26"><path d="M0,0 L512,0 L512,512 L0,512z"></path></clipPath><radialGradient id="__lottie_element_35" spreadMethod="pad" gradientUnits="userSpaceOnUse"><stop></stop><stop></stop><stop></stop></radialGradient><mask id="__lottie_element_37"><path fill="url(#__lottie_element_36)"></path></mask><radialGradient id="__lottie_element_36" spreadMethod="pad" gradientUnits="userSpaceOnUse"><stop stop-color="rgb(255,255,255)"></stop><stop stop-color="rgb(255,255,255)"></stop><stop stop-color="rgb(255,255,255)"></stop></radialGradient><linearGradient id="__lottie_element_38" spreadMethod="pad" gradientUnits="userSpaceOnUse"><stop></stop><stop></stop><stop></stop></linearGradient><mask id="__lottie_element_40"><path fill="url(#__lottie_element_39)"></path></mask><linearGradient id="__lottie_element_39" spreadMethod="pad" gradientUnits="userSpaceOnUse"><stop stop-color="rgb(255,255,255)"></stop><stop stop-color="rgb(255,255,255)"></stop><stop stop-color="rgb(255,255,255)"></stop></linearGradient></defs><g clip-path="url(#__lottie_element_2)"><g clip-path="url(#__lottie_element_26)" style="display: none;"><g style="display: none;"><g><path fill="url(#__lottie_element_35)" mask="url(#__lottie_element_37)"></path><path stroke-linecap="round" stroke-linejoin="round" fill-opacity="0"></path></g><g><path fill="url(#__lottie_element_38)" mask="url(#__lottie_element_40)"></path></g></g><g style="display: none;"><g><path stroke-linecap="round" stroke-linejoin="round" fill-opacity="0"></path></g><g><path stroke-linecap="round" stroke-linejoin="round" fill-opacity="0"></path></g><g><path stroke-linecap="round" stroke-linejoin="round" fill-opacity="0"></path></g><g><path></path></g><g><path stroke-linecap="round" stroke-linejoin="round" fill-opacity="0"></path></g></g><g style="display: none;"><g><g><path stroke-linecap="round" stroke-linejoin="round" fill-opacity="0"></path></g><g><path></path><path stroke-linecap="butt" stroke-linejoin="miter" fill-opacity="0" stroke-miterlimit="10"></path></g><g><g><path></path></g><g><path></path></g></g><g><path stroke-linecap="round" stroke-linejoin="round" fill-opacity="0"></path></g><g><path></path><path stroke-linecap="butt" stroke-linejoin="miter" fill-opacity="0" stroke-miterlimit="10"></path></g><g><path></path><path stroke-linecap="butt" stroke-linejoin="miter" fill-opacity="0" stroke-miterlimit="10"></path></g></g><g><g><path></path><path stroke-linecap="butt" stroke-linejoin="miter" fill-opacity="0" stroke-miterlimit="10"></path></g><g><g><path></path></g><g><path></path></g></g><g><path stroke-linecap="round" stroke-linejoin="round" fill-opacity="0"></path></g><g><path stroke-linecap="round" stroke-linejoin="round" fill-opacity="0"></path></g><g><path></path><path stroke-linecap="butt" stroke-linejoin="miter" fill-opacity="0" stroke-miterlimit="10"></path></g><g><path></path><path stroke-linecap="butt" stroke-linejoin="miter" fill-opacity="0" stroke-miterlimit="10"></path></g></g></g><g style="display: none;"><g><path stroke-linecap="round" stroke-linejoin="round" fill-opacity="0"></path></g><g><path stroke-linecap="round" stroke-linejoin="round" fill-opacity="0"></path></g><g><path stroke-linecap="round" stroke-linejoin="round" fill-opacity="0"></path></g><g><path stroke-linecap="round" stroke-linejoin="round" fill-opacity="0"></path></g><g><path></path><path stroke-linecap="round" stroke-linejoin="round" fill-opacity="0"></path></g><g><path></path><path stroke-linecap="round" stroke-linejoin="round" fill-opacity="0"></path></g></g></g><g clip-path="url(#__lottie_element_4)" style="display: block;" transform="matrix(0.9218800067901611,0,0,0.9218800067901611,19.99871826171875,19.99871826171875)" opacity="1"><g style="display: block;" transform="matrix(0.8405512571334839,-0.5329475998878479,0.534564197063446,0.843100905418396,-124.13662719726562,142.02020263671875)" opacity="1"><g opacity="1" transform="matrix(0.9582550525665283,-0.28591468930244446,0.28591468930244446,0.9582550525665283,270.14849853515625,275.3924865722656)"><path fill="url(#__lottie_element_13)" mask="url(#__lottie_element_15)" fill-opacity="1" d="M0 0 M-210.83567810058594,-71.32023620605469 C-207.82968139648438,-78.65523529052734 -203.7169952392578,-87.4493408203125 -198.4331817626953,-97.0162353515625 C-195.34812927246094,-102.60242462158203 -191.86341857910156,-108.45121002197266 -187.967529296875,-114.427734375 C-183.8341064453125,-120.76910400390625 -179.23663330078125,-127.25318145751953 -174.1605224609375,-133.7161865234375 C-149.92971801757812,-164.56881713867188 -114.79100036621094,-194.95399475097656 -67.10199737548828,-207.11199951171875 C73.50499725341797,-242.95799255371094 181.98452758789062,-144.61781311035156 208.50845336914062,-52.368526458740234 C230.35194396972656,23.607526779174805 217.09323120117188,90.30400085449219 163.00523376464844,147.74099731445312 C158.70924377441406,152.30299377441406 176.90586853027344,176.00599670410156 156.78591918945312,190.45765686035156 C143.90126037597656,200.02084350585938 136.52615356445312,175.17684936523438 132.82015991210938,178.19984436035156 C129.50315856933594,180.9058380126953 118.56813049316406,190.99957275390625 106.85613250732422,198.02444458007812 C40.79326248168945,237.6556854248047 -22.675893783569336,238.61029052734375 -101.05291748046875,199.81130981445312 C-218.56407165527344,141.66748046875 -239.78468322753906,-0.6822368502616882 -210.83567810058594,-71.32023620605469z"></path><path stroke-linecap="round" stroke-linejoin="round" fill-opacity="0" stroke="rgb(179,83,34)" stroke-opacity="1" stroke-width="14.563" d=" M-210.83567810058594,-71.32023620605469 C-207.82968139648438,-78.65523529052734 -203.7169952392578,-87.4493408203125 -198.4331817626953,-97.0162353515625 C-195.34812927246094,-102.60242462158203 -191.86341857910156,-108.45121002197266 -187.967529296875,-114.427734375 C-183.8341064453125,-120.76910400390625 -179.23663330078125,-127.25318145751953 -174.1605224609375,-133.7161865234375 C-149.92971801757812,-164.56881713867188 -114.79100036621094,-194.95399475097656 -67.10199737548828,-207.11199951171875 C73.50499725341797,-242.95799255371094 181.98452758789062,-144.61781311035156 208.50845336914062,-52.368526458740234 C230.35194396972656,23.607526779174805 217.09323120117188,90.30400085449219 163.00523376464844,147.74099731445312 C158.70924377441406,152.30299377441406 176.90586853027344,176.00599670410156 156.78591918945312,190.45765686035156 C143.90126037597656,200.02084350585938 136.52615356445312,175.17684936523438 132.82015991210938,178.19984436035156 C129.50315856933594,180.9058380126953 118.56813049316406,190.99957275390625 106.85613250732422,198.02444458007812 C40.79326248168945,237.6556854248047 -22.675893783569336,238.61029052734375 -101.05291748046875,199.81130981445312 C-218.56407165527344,141.66748046875 -239.78468322753906,-0.6822368502616882 -210.83567810058594,-71.32023620605469z"></path></g><g opacity="1" transform="matrix(1,0,0,1,331.09100341796875,303.3089904785156)"><path fill="url(#__lottie_element_16)" mask="url(#__lottie_element_18)" fill-opacity="1" d="M0 0 M98.63521575927734,-153.94212341308594 C98.63521575927734,-153.94212341308594 118.42833709716797,-65.0037612915039 100.32733154296875,6.35324239730835 C84.12833404541016,70.21224212646484 39.009849548339844,120.6114273071289 -0.6071515083312988,141.66342163085938 C-67.11914825439453,177.0064239501953 -171.9252166748047,157.7406005859375 -171.9252166748047,157.7406005859375 C-171.9252166748047,157.7406005859375 -97.12403106689453,205.00906372070312 -15.532454490661621,191.09751892089844 C60.53257751464844,178.2813262939453 115.18527221679688,105.82527160644531 136.89727783203125,52.84727096557617 C158.6082763671875,-0.13072727620601654 157.31617736816406,-69.00869750976562 125.52518463134766,-119.61470031738281 C93.73318481445312,-170.220703125 98.63521575927734,-153.94212341308594 98.63521575927734,-153.94212341308594z"></path></g></g><g style="display: block;" transform="matrix(0.5358262062072754,-0.42106226086616516,0.6163199543952942,0.7852814197540283,325.5770568847656,251.4396209716797)" opacity="1"><g opacity="1" transform="matrix(1,0,0,1,141.46200561523438,67.70700073242188)"><path stroke-linecap="round" stroke-linejoin="round" fill-opacity="0" stroke="rgb(140,48,1)" stroke-opacity="0.8200000000000001" stroke-width="12" d=" M-124.49199676513672,-10.859000205993652 C-124.49199676513672,-10.859000205993652 -24.889345169067383,-49.472007751464844 40.234657287597656,-22.75600814819336 C51.321998596191406,-18.20800018310547 60.334999084472656,-13.480999946594238 67.6510009765625,-8.746000289916992"></path></g><g opacity="1" transform="matrix(1,0,0,1,35.422000885009766,49.6619987487793)"><path stroke-linecap="round" stroke-linejoin="round" fill-opacity="0" stroke="rgb(174,85,32)" stroke-opacity="0.65" stroke-width="8.738" d=" M-36.81180953979492,-11.345730781555176 C-36.81180953979492,-11.345730781555176 -74.5875015258789,11.91911506652832 -59.00127029418945,25.73361587524414 C-37.79623031616211,44.6507682800293 11.306461334228516,29.158000946044922 11.306461334228516,29.158000946044922"></path></g><g opacity="0" transform="matrix(1,0,0,1,232.7689971923828,120.71399688720703)"><path stroke-linecap="round" stroke-linejoin="round" fill-opacity="0" stroke="rgb(164,79,28)" stroke-opacity="0.73" stroke-width="8.738" d=" M8.663000106811523,-28.834999084472656 C8.663000106811523,-28.834999084472656 9.534000396728516,-18.841999053955078 -5.513999938964844,-16.152999877929688 C-20.562000274658203,-13.46399974822998 -26.986000061035156,-21.694000244140625 -26.986000061035156,-21.694000244140625"></path></g><g opacity="1" transform="matrix(1,0,0,1,0,0)"><path fill="rgb(246,150,88)" fill-opacity="1" d=" M185.50144958496094,53.499908447265625 C174.60646057128906,46.51490783691406 160.49554443359375,72.63790893554688 160.49554443359375,72.63790893554688 C160.49554443359375,72.63790893554688 176.5055389404297,78.47590637207031 185.72654724121094,84.44490814208984 C200.7325439453125,94.15790557861328 204.89291381835938,84.99954223632812 205.08181762695312,79.52590942382812 C205.53799438476562,69.64299774169922 196.39645385742188,60.48490905761719 185.50144958496094,53.499908447265625z"></path></g><g opacity="1" transform="matrix(1,0,0,1,157.88999938964844,67.21800231933594)"><path stroke-linecap="round" stroke-linejoin="round" fill-opacity="0" stroke="rgb(174,84,32)" stroke-opacity="0.77" stroke-width="11" d=" M-65.13500213623047,-6.388999938964844 C-65.13500213623047,-6.388999938964844 -45.79199981689453,4.309000015258789 -21.739999771118164,8.564000129699707 C-2.140000104904175,11.583999633789062 7.3500165939331055,9.465714454650879 7.3500165939331055,9.465714454650879 C7.3500165939331055,9.465714454650879 14.898704528808594,18.412158966064453 26.03231430053711,21.966938018798828 C36.51560974121094,25.129680633544922 40.85212326049805,28.698881149291992 40.85212326049805,28.698881149291992"></path></g></g><g style="display: block;" transform="matrix(0.538424551486969,-0.41774171590805054,0.6140512824058533,0.7870528101921082,223.55657958984375,104.11978912353516)" opacity="1"><g opacity="1" transform="matrix(1,0,0,1,0,0)"><g opacity="1" transform="matrix(1,0,0,1,78.40599822998047,153.3990020751953)"><path stroke-linecap="round" stroke-linejoin="round" fill-opacity="0" stroke="rgb(183,117,79)" stroke-opacity="1" stroke-width="8.738" d=" M-30.34757423400879,3.692305088043213 C-30.34757423400879,3.692305088043213 -18.490827560424805,13.51819133758545 1.1521730422973633,15.626192092895508 C20.796173095703125,17.735191345214844 28.496341705322266,11.715897560119629 28.496341705322266,11.715897560119629"></path></g><g opacity="1" transform="matrix(1,0,0,1,103.61199951171875,101.70800018310547)"><path fill="rgb(255,255,255)" fill-opacity="1" d=" M37.99300003051758,-49.51100158691406 C25.29400062561035,-56.62699890136719 -6.313000202178955,-73.97100067138672 -24.819000244140625,-44.11600112915039 C-49.20000076293945,-4.781000137329102 -45.2400016784668,39.220001220703125 -12.008000373840332,52.97800064086914 C42.00400161743164,75.33899688720703 70.73999786376953,31.650999069213867 69.74099731445312,-3.1630001068115234 C68.947998046875,-30.83799934387207 50.84299850463867,-42.310001373291016 37.99300003051758,-49.51100158691406z"></path><path stroke-linecap="butt" stroke-linejoin="miter" fill-opacity="0" stroke-miterlimit="10" stroke="rgb(74,44,28)" stroke-opacity="1" stroke-width="8.84" d=" M37.99300003051758,-49.51100158691406 C25.29400062561035,-56.62699890136719 -6.313000202178955,-73.97100067138672 -24.819000244140625,-44.11600112915039 C-49.20000076293945,-4.781000137329102 -45.2400016784668,39.220001220703125 -12.008000373840332,52.97800064086914 C42.00400161743164,75.33899688720703 70.73999786376953,31.650999069213867 69.74099731445312,-3.1630001068115234 C68.947998046875,-30.83799934387207 50.84299850463867,-42.310001373291016 37.99300003051758,-49.51100158691406z"></path></g><g opacity="1" transform="matrix(1,0,0,1,0,0)"><g opacity="1" transform="matrix(1,0,0,1,80.88600158691406,91.42900085449219)"><path fill="rgb(0,0,0)" fill-opacity="1" d=" M7.559999942779541,-11.861000061035156 C2.946000099182129,-13.78499984741211 -8.723999977111816,-16.604999542236328 -12.98799991607666,-4.348999977111816 C-17.253000259399414,7.9070000648498535 -8.723999977111816,16.604999542236328 2.5199999809265137,16.209999084472656 C13.762999534606934,15.814000129699707 17.253000259399414,6.7210001945495605 16.864999771118164,0.39500001072883606 C16.476999282836914,-5.931000232696533 11.315999984741211,-10.295000076293945 7.559999942779541,-11.861000061035156z"></path></g><g opacity="1" transform="matrix(1,0,0,1,74.85099792480469,91.85900115966797)"><path fill="rgb(255,255,255)" fill-opacity="1" d=" M2.440999984741211,-3.8299999237060547 C0.9520000219345093,-4.451000213623047 -2.815999984741211,-5.361000061035156 -4.192999839782715,-1.4040000438690186 C-5.570000171661377,2.553999900817871 -2.815999984741211,5.361999988555908 0.8130000233650208,5.234000205993652 C4.441999912261963,5.10699987411499 5.570000171661377,2.1700000762939453 5.445000171661377,0.12700000405311584 C5.318999767303467,-1.9149999618530273 3.6540000438690186,-3.3239998817443848 2.440999984741211,-3.8299999237060547z"></path></g></g><g opacity="1" transform="matrix(1,0,0,1,77.67500305175781,158.73800659179688)"><path stroke-linecap="round" stroke-linejoin="round" fill-opacity="0" stroke="rgb(174,85,32)" stroke-opacity="0.6900000000000001" stroke-width="8.738" d=" M-63.9010009765625,-4.583000183105469 C-63.9010009765625,-4.583000183105469 -32.41400146484375,20.256000518798828 5.322000026702881,20.783000946044922 C43.058998107910156,21.309999465942383 55.82899856567383,1.0549999475479126 55.82899856567383,1.0549999475479126"></path></g><g opacity="1" transform="matrix(0.9941200017929077,0,0,1,113.90299987792969,66.80699920654297)"><path fill="rgb(165,109,61)" fill-opacity="1" d=" M-57.262001037597656,11.430999755859375 C-59.077999114990234,14.631999969482422 -59.749000549316406,13.96500015258789 -51.53900146484375,16.624000549316406 C-36.1870002746582,21.59600067138672 -26.836999893188477,20.64699935913086 12.977999687194824,34.2859992980957 C33.33399963378906,41.25899887084961 54.56700134277344,49.119998931884766 61.433998107910156,51.757999420166016 C64.64199829101562,52.9900016784668 67.79199981689453,51.512001037597656 68.51000213623047,48.09400177001953 C71.10900115966797,35.72200012207031 73.447998046875,1.8519999980926514 23.40399932861328,-22.809999465942383 C-25.32699966430664,-46.82500076293945 -38.729000091552734,-28.042999267578125 -48.37699890136719,-11.694999694824219 C-51.93199920654297,-5.671000003814697 -54.65399932861328,6.833000183105469 -57.262001037597656,11.430999755859375z"></path><path stroke-linecap="butt" stroke-linejoin="miter" fill-opacity="0" stroke-miterlimit="10" stroke="rgb(104,60,24)" stroke-opacity="1" stroke-width="8.738" d=" M-57.262001037597656,11.430999755859375 C-59.077999114990234,14.631999969482422 -59.749000549316406,13.96500015258789 -51.53900146484375,16.624000549316406 C-36.1870002746582,21.59600067138672 -26.836999893188477,20.64699935913086 12.977999687194824,34.2859992980957 C33.33399963378906,41.25899887084961 54.56700134277344,49.119998931884766 61.433998107910156,51.757999420166016 C64.64199829101562,52.9900016784668 67.79199981689453,51.512001037597656 68.51000213623047,48.09400177001953 C71.10900115966797,35.72200012207031 73.447998046875,1.8519999980926514 23.40399932861328,-22.809999465942383 C-25.32699966430664,-46.82500076293945 -38.729000091552734,-28.042999267578125 -48.37699890136719,-11.694999694824219 C-51.93199920654297,-5.671000003814697 -54.65399932861328,6.833000183105469 -57.262001037597656,11.430999755859375z"></path></g><g opacity="1" transform="matrix(1,0,0,1,103.9020004272461,134.66600036621094)"><path fill="rgb(165,109,61)" fill-opacity="1" d=" M-54.32600021362305,-40.94300079345703 C-54.880001068115234,-45.505001068115234 -41.465999603271484,-47.20199966430664 -37.111000061035156,-46.013999938964844 C-22.084999084472656,-41.9119987487793 -11.12600040435791,-41.2239990234375 12.6850004196167,-33.3849983215332 C45.58000183105469,-22.55500030517578 64.76399993896484,-13.315999984741211 71.96600341796875,-10.541999816894531 C75.78099822998047,-9.074000358581543 76.06700134277344,-8.885000228881836 73.7959976196289,-5.432000160217285 C66.9020004272461,5.054999828338623 20.243000030517578,46.62300109863281 -23.687000274658203,30.097000122070312 C-67.00499725341797,13.802000045776367 -52.507999420166016,-25.957000732421875 -54.32600021362305,-40.94300079345703z"></path><path stroke-linecap="butt" stroke-linejoin="miter" fill-opacity="0" stroke-miterlimit="10" stroke="rgb(104,60,24)" stroke-opacity="1" stroke-width="10" d=" M-54.32600021362305,-40.94300079345703 C-54.880001068115234,-45.505001068115234 -41.465999603271484,-47.20199966430664 -37.111000061035156,-46.013999938964844 C-22.084999084472656,-41.9119987487793 -11.12600040435791,-41.2239990234375 12.6850004196167,-33.3849983215332 C45.58000183105469,-22.55500030517578 64.76399993896484,-13.315999984741211 71.96600341796875,-10.541999816894531 C75.78099822998047,-9.074000358581543 76.06700134277344,-8.885000228881836 73.7959976196289,-5.432000160217285 C66.9020004272461,5.054999828338623 20.243000030517578,46.62300109863281 -23.687000274658203,30.097000122070312 C-67.00499725341797,13.802000045776367 -52.507999420166016,-25.957000732421875 -54.32600021362305,-40.94300079345703z"></path></g></g><g opacity="1" transform="matrix(1,0,0,1,0,0)"><g opacity="1" transform="matrix(1,0,0,1,255.9340057373047,147.96499633789062)"><path fill="rgb(255,255,255)" fill-opacity="1" d=" M5.135000228881836,-39.180999755859375 C-0.1940000057220459,-55.72700119018555 -30.97100067138672,-69.33300018310547 -29.736000061035156,-15.807000160217285 C-42.87200164794922,31.25200080871582 -60.676998138427734,43.323001861572266 -44.382999420166016,48.12300109863281 C-31.81100082397461,51.520999908447266 5.47599983215332,27.009000778198242 10.902999877929688,-2.246999979019165 C16.33099937438965,-31.503999710083008 9.503999710083008,-30.516000747680664 5.135000228881836,-39.180999755859375z"></path><path stroke-linecap="butt" stroke-linejoin="miter" fill-opacity="0" stroke-miterlimit="10" stroke="rgb(74,44,28)" stroke-opacity="1" stroke-width="8.84" d=" M5.135000228881836,-39.180999755859375 C-0.1940000057220459,-55.72700119018555 -30.97100067138672,-69.33300018310547 -29.736000061035156,-15.807000160217285 C-42.87200164794922,31.25200080871582 -60.676998138427734,43.323001861572266 -44.382999420166016,48.12300109863281 C-31.81100082397461,51.520999908447266 5.47599983215332,27.009000778198242 10.902999877929688,-2.246999979019165 C16.33099937438965,-31.503999710083008 9.503999710083008,-30.516000747680664 5.135000228881836,-39.180999755859375z"></path></g><g opacity="1" transform="matrix(1,0,0,1,0,0)"><g opacity="1" transform="matrix(1,0,0,1,241.13699340820312,147.30599975585938)"><path fill="rgb(0,0,0)" fill-opacity="1" d=" M7.559999942779541,-11.861000061035156 C2.946000099182129,-13.78499984741211 -8.723999977111816,-16.604999542236328 -12.98799991607666,-4.348999977111816 C-17.253000259399414,7.9070000648498535 -8.723999977111816,16.604999542236328 2.5199999809265137,16.209999084472656 C13.762999534606934,15.814000129699707 17.253000259399414,6.7210001945495605 16.864999771118164,0.39500001072883606 C16.476999282836914,-5.931000232696533 11.315999984741211,-10.295000076293945 7.559999942779541,-11.861000061035156z"></path></g><g opacity="1" transform="matrix(1,0,0,1,235.1020050048828,147.73699951171875)"><path fill="rgb(255,255,255)" fill-opacity="1" d=" M2.440999984741211,-3.8289999961853027 C0.9520000219345093,-4.449999809265137 -2.815999984741211,-5.361000061035156 -4.192999839782715,-1.4040000438690186 C-5.570000171661377,2.553999900817871 -2.815999984741211,5.361999988555908 0.8130000233650208,5.234000205993652 C4.441999912261963,5.10699987411499 5.570000171661377,2.1710000038146973 5.445000171661377,0.12800000607967377 C5.318999767303467,-1.9140000343322754 3.6530001163482666,-3.322999954223633 2.440999984741211,-3.8289999961853027z"></path></g></g><g opacity="0.9353103314322039" transform="matrix(1,0,0,1,203.07699584960938,198.17599487304688)"><path stroke-linecap="round" stroke-linejoin="round" fill-opacity="0" stroke="rgb(174,85,32)" stroke-opacity="0.76" stroke-width="8.738" d=" M-2.8429999351501465,-33.21099853515625 C-2.8429999351501465,-33.21099853515625 -9.5649995803833,-18.43899917602539 -6.943999767303467,-1.6119999885559082"></path></g><g opacity="1" transform="matrix(1,0,0,1,213.15699768066406,195.54100036621094)"><path stroke-linecap="round" stroke-linejoin="round" fill-opacity="0" stroke="rgb(160,91,51)" stroke-opacity="0.63" stroke-width="8.738" d=" M-6.677000045776367,0.07900000363588333 C-7.072000026702881,-0.8119999766349792 -7.434000015258789,-1.7170000076293945 -7.755000114440918,-2.634999990463257 C-12.923999786376953,-17.395999908447266 -5.170000076293945,-23.72100067138672 -5.170000076293945,-23.72100067138672"></path></g><g opacity="1" transform="matrix(1,0,0,1,268.8970031738281,125.87200164794922)"><path fill="rgb(165,109,61)" fill-opacity="1" d=" M-49.43600082397461,-0.9179999828338623 C-54.10100173950195,10.085000038146973 -51.79499816894531,10.048999786376953 -48.444000244140625,11.25100040435791 C-34.58399963378906,16.225000381469727 -47.659000396728516,12.637999534606934 -24.392000198364258,18.893999099731445 C-13.041999816894531,21.945999145507812 -2.6470000743865967,27.041000366210938 0.054999999701976776,26.709999084472656 C3.5360000133514404,26.283000946044922 5.5370001792907715,21.038999557495117 5.59499979019165,17.482999801635742 C5.90500020980835,-1.6790000200271606 -2.312000036239624,-16.993000030517578 -10.781999588012695,-26.45199966430664 C-31.34600067138672,-49.41699981689453 -43.99399948120117,-41.15399932861328 -45.275001525878906,-22.51799964904785 C-45.92599868774414,-13.052000045776367 -45.08100128173828,-11.1899995803833 -49.43600082397461,-0.9179999828338623z"></path><path stroke-linecap="butt" stroke-linejoin="miter" fill-opacity="0" stroke-miterlimit="10" stroke="rgb(104,60,24)" stroke-opacity="1" stroke-width="9" d=" M-49.43600082397461,-0.9179999828338623 C-54.10100173950195,10.085000038146973 -51.79499816894531,10.048999786376953 -48.444000244140625,11.25100040435791 C-34.58399963378906,16.225000381469727 -47.659000396728516,12.637999534606934 -24.392000198364258,18.893999099731445 C-13.041999816894531,21.945999145507812 -2.6470000743865967,27.041000366210938 0.054999999701976776,26.709999084472656 C3.5360000133514404,26.283000946044922 5.5370001792907715,21.038999557495117 5.59499979019165,17.482999801635742 C5.90500020980835,-1.6790000200271606 -2.312000036239624,-16.993000030517578 -10.781999588012695,-26.45199966430664 C-31.34600067138672,-49.41699981689453 -43.99399948120117,-41.15399932861328 -45.275001525878906,-22.51799964904785 C-45.92599868774414,-13.052000045776367 -45.08100128173828,-11.1899995803833 -49.43600082397461,-0.9179999828338623z"></path></g><g opacity="1" transform="matrix(1,0,0,1,254.01199340820312,186.7310028076172)"><path fill="rgb(165,109,61)" fill-opacity="1" d=" M-41.500999450683594,-39.810001373291016 C-41.30799865722656,-42.59000015258789 -41.685001373291016,-49.17399978637695 -33.94499969482422,-47.465999603271484 C-27.17300033569336,-45.97200012207031 -30.356000900268555,-46.68899917602539 -18.218000411987305,-42.59600067138672 C0.753000020980835,-36.19900131225586 8.604999542236328,-36.749000549316406 13.60200023651123,-34.54100036621094 C16.17099952697754,-33.404998779296875 14.904999732971191,-29.472999572753906 13.128000259399414,-27.266000747680664 C5.617000102996826,-17.937999725341797 -30.113000869750977,18.302000045776367 -47.25,7.322999954223633 C-58.70100021362305,-0.013000000268220901 -42.55699920654297,-24.57699966430664 -41.500999450683594,-39.810001373291016z"></path><path stroke-linecap="butt" stroke-linejoin="miter" fill-opacity="0" stroke-miterlimit="10" stroke="rgb(104,60,24)" stroke-opacity="1" stroke-width="10" d=" M-41.500999450683594,-39.810001373291016 C-41.30799865722656,-42.59000015258789 -41.685001373291016,-49.17399978637695 -33.94499969482422,-47.465999603271484 C-27.17300033569336,-45.97200012207031 -30.356000900268555,-46.68899917602539 -18.218000411987305,-42.59600067138672 C0.753000020980835,-36.19900131225586 8.604999542236328,-36.749000549316406 13.60200023651123,-34.54100036621094 C16.17099952697754,-33.404998779296875 14.904999732971191,-29.472999572753906 13.128000259399414,-27.266000747680664 C5.617000102996826,-17.937999725341797 -30.113000869750977,18.302000045776367 -47.25,7.322999954223633 C-58.70100021362305,-0.013000000268220901 -42.55699920654297,-24.57699966430664 -41.500999450683594,-39.810001373291016z"></path></g></g></g><g style="display: block;" transform="matrix(0.538424551486969,-0.41774171590805054,0.6140512824058533,0.7870528101921082,224.91270446777344,60.70598602294922)" opacity="1"><g opacity="1" transform="matrix(1,0,0,1,156.1179962158203,96.75499725341797)"><path stroke-linecap="round" stroke-linejoin="round" fill-opacity="0" stroke="rgb(174,85,32)" stroke-opacity="0.66" stroke-width="8.738" d=" M-16.792518615722656,-64.7151870727539 C-16.792518615722656,-64.7151870727539 19.468868255615234,-33.4653434753418 13.417868614196777,-14.849342346191406 C11.596868515014648,-9.247342109680176 5.708835124969482,-7.728047847747803 5.708835124969482,-7.728047847747803"></path></g><g opacity="0" transform="matrix(1,0,0,1,163.05299377441406,71.1240005493164)"><path stroke-linecap="round" stroke-linejoin="round" fill-opacity="0" stroke="rgb(174,85,32)" stroke-opacity="0.55" stroke-width="8.738" d=" M-13.770999908447266,-46.12099838256836 C-13.770999908447266,-46.12099838256836 -17.388999938964844,-48.000999450683594 -6.980000019073486,-45.90399932861328 C2.989000082015991,-43.895999908447266 -2.553999900817871,-47.99300003051758 -2.553999900817871,-47.99300003051758"></path></g><g opacity="0" transform="matrix(1,0,0,1,217.96299743652344,88.92900085449219)"><path stroke-linecap="round" stroke-linejoin="round" fill-opacity="0" stroke="rgb(174,85,32)" stroke-opacity="0.84" stroke-width="8.738" d=" M-38.51900100708008,-36.672000885009766 C-38.51900100708008,-36.672000885009766 -45.500999450683594,-37.93899917602539 -35.70399856567383,-37.099998474121094 C-29.523000717163086,-36.56999969482422 -28.027000427246094,-32.97800064086914 -28.027000427246094,-32.97800064086914"></path></g><g opacity="0" transform="matrix(1,0,0,1,204.1929931640625,111.2509994506836)"><path stroke-linecap="round" stroke-linejoin="round" fill-opacity="0" stroke="rgb(174,85,32)" stroke-opacity="0.81" stroke-width="8.738" d=" M-11.95300006866455,-50.0890007019043 C-11.95300006866455,-50.0890007019043 -10.781000137329102,-52.6349983215332 -12.274999618530273,-43.48500061035156 C-13.050000190734863,-38.74100112915039 -7.747000217437744,-38.02000045776367 -7.747000217437744,-38.02000045776367 C-7.747000217437744,-38.02000045776367 -2.48799991607666,-37.25400161743164 -2.48799991607666,-37.25400161743164"></path></g><g opacity="1" transform="matrix(1,0,0,1,258.5260009765625,132.83200073242188)"><path fill="rgb(69,38,21)" fill-opacity="1" d=" M-17.363000869750977,-34.93199920654297 C-7.6539998054504395,-27.31800079345703 -8.147000312805176,-25.76300048828125 -7.056000232696533,-23.80500030517578 C-2.3310000896453857,-15.8149995803833 0.7269999980926514,-11.92300033569336 0.7269999980926514,-7.982999801635742 C0.7269999980926514,-7.982999801635742 0.48399999737739563,-4.015999794006348 0.48399999737739563,-4.015999794006348 C1.1419999599456787,0.06400000303983688 -1.319000005722046,6.361000061035156 -4.446000099182129,4.328000068664551 C-9.802000045776367,1.6490000486373901 -14.069999694824219,-8.755000114440918 -34.05799865722656,-25.65399932861328 C-52.63100051879883,-39.30099868774414 -50.97200012207031,-41.04800033569336 -54.78900146484375,-44.435001373291016 C-59.87699890136719,-50.130001068115234 -48.80500030517578,-48.62900161743164 -37.88800048828125,-45.263999938964844 C-29.15399932861328,-41.99300003051758 -25.739999771118164,-41.00600051879883 -17.363000869750977,-34.93199920654297z"></path><path stroke-linecap="round" stroke-linejoin="round" fill-opacity="0" stroke="rgb(50,28,24)" stroke-opacity="1" stroke-width="8.738" d=" M-17.363000869750977,-34.93199920654297 C-7.6539998054504395,-27.31800079345703 -8.147000312805176,-25.76300048828125 -7.056000232696533,-23.80500030517578 C-2.3310000896453857,-15.8149995803833 0.7269999980926514,-11.92300033569336 0.7269999980926514,-7.982999801635742 C0.7269999980926514,-7.982999801635742 0.48399999737739563,-4.015999794006348 0.48399999737739563,-4.015999794006348 C1.1419999599456787,0.06400000303983688 -1.319000005722046,6.361000061035156 -4.446000099182129,4.328000068664551 C-9.802000045776367,1.6490000486373901 -14.069999694824219,-8.755000114440918 -34.05799865722656,-25.65399932861328 C-52.63100051879883,-39.30099868774414 -50.97200012207031,-41.04800033569336 -54.78900146484375,-44.435001373291016 C-59.87699890136719,-50.130001068115234 -48.80500030517578,-48.62900161743164 -37.88800048828125,-45.263999938964844 C-29.15399932861328,-41.99300003051758 -25.739999771118164,-41.00600051879883 -17.363000869750977,-34.93199920654297z"></path></g><g opacity="1" transform="matrix(1,0,0,1,89.68499755859375,68.84600067138672)"><path fill="rgb(69,38,21)" fill-opacity="1" d=" M-70.91100311279297,-35.63100051879883 C-74.0479965209961,-36.077999114990234 -80.65799713134766,-37.12699890136719 -82.08100128173828,-34.367000579833984 C-82.08100128173828,-34.367000579833984 -99.43299865722656,-9.791000366210938 -100.08799743652344,-5.0320000648498535 C-100.53199768066406,-1.815999984741211 -99.45899963378906,-0.6050000190734863 -96.3270034790039,-0.21299999952316284 C-66.36299896240234,-1.6399999856948853 11.425000190734863,19.38599967956543 53.737998962402344,18.382999420166016 C86.93299865722656,18.388999938964844 92.35299682617188,6.4120001792907715 93.50399780273438,3.063999891281128 C94.65499877929688,-0.28299999237060547 72.9229965209961,10.300000190734863 21.80299949645996,-5.517000198364258 C-9.954999923706055,-13.281000137329102 -58.51499938964844,-34.426998138427734 -70.91100311279297,-35.63100051879883z"></path><path stroke-linecap="round" stroke-linejoin="round" fill-opacity="0" stroke="rgb(50,28,24)" stroke-opacity="1" stroke-width="8.738" d=" M-70.91100311279297,-35.63100051879883 C-74.0479965209961,-36.077999114990234 -80.65799713134766,-37.12699890136719 -82.08100128173828,-34.367000579833984 C-82.08100128173828,-34.367000579833984 -99.43299865722656,-9.791000366210938 -100.08799743652344,-5.0320000648498535 C-100.53199768066406,-1.815999984741211 -99.45899963378906,-0.6050000190734863 -96.3270034790039,-0.21299999952316284 C-66.36299896240234,-1.6399999856948853 11.425000190734863,19.38599967956543 53.737998962402344,18.382999420166016 C86.93299865722656,18.388999938964844 92.35299682617188,6.4120001792907715 93.50399780273438,3.063999891281128 C94.65499877929688,-0.28299999237060547 72.9229965209961,10.300000190734863 21.80299949645996,-5.517000198364258 C-9.954999923706055,-13.281000137329102 -58.51499938964844,-34.426998138427734 -70.91100311279297,-35.63100051879883z"></path></g></g></g></g></svg>