<svg xmlns="http://www.w3.org/2000/svg" xmlns:xlink="http://www.w3.org/1999/xlink" viewBox="0 0 512 512" width="512" height="512" style="width: 100%; height: 100%; transform: translate3d(0,0,0); content-visibility: visible;" preserveAspectRatio="xMidYMid meet"><defs><clipPath id="__lottie_element_2"><rect width="512" height="512" x="0" y="0"></rect></clipPath><clipPath id="__lottie_element_4"><path d="M0,0 L512,0 L512,512 L0,512z"></path></clipPath><radialGradient id="__lottie_element_21" spreadMethod="pad" gradientUnits="userSpaceOnUse" cx="-23.41200065612793" cy="-60.04100036621094" r="106.30867196082693" fx="-23.41200065612793" fy="-60.04100036621094"><stop offset="0%" stop-color="rgb(253,232,211)"></stop><stop offset="50%" stop-color="rgb(248,203,177)"></stop><stop offset="100%" stop-color="rgb(242,175,144)"></stop></radialGradient><mask id="__lottie_element_23"><path fill="url(#__lottie_element_22)" d=" M-23.742000579833984,-99.27799987792969 C-42.61600112915039,-90.12000274658203 -60.87099838256836,-75.08799743652344 -68.50499725341797,-47.933998107910156 C-73.05899810791016,-31.733999252319336 -66.68499755859375,-7.247000217437744 -66.68499755859375,-7.247000217437744 C-66.68499755859375,-7.247000217437744 -64.1709976196289,12.758000373840332 -64.39900207519531,18.775999069213867 C-65.02300262451172,35.24300003051758 -54.02799987792969,52.560001373291016 -44.275001525878906,68.71399688720703 C-36.027000427246094,82.375 -34.92300033569336,99.18599700927734 -17.656999588012695,100.29399871826172 C20.51799964904785,102.74400329589844 46.17100143432617,74.81199645996094 54.12699890136719,57.06399917602539 C62.08300018310547,39.31700134277344 56.90700149536133,23.034000396728516 57.51900100708008,19.974000930786133 C58.13199996948242,16.913999557495117 57.49399948120117,11.685999870300293 57.49399948120117,9.850000381469727 C57.49399948120117,8.013999938964844 74.88200378417969,-28.549999237060547 70.95700073242188,-50.316001892089844 C66.47000122070312,-75.2030029296875 56.909000396728516,-96.20600128173828 32.20600128173828,-104.8290023803711 C15.494999885559082,-110.66200256347656 -2.247999906539917,-109.70700073242188 -23.742000579833984,-99.27799987792969z"></path></mask><radialGradient id="__lottie_element_22" spreadMethod="pad" gradientUnits="userSpaceOnUse" cx="-23.41200065612793" cy="-60.04100036621094" r="106.30867196082693" fx="-23.41200065612793" fy="-60.04100036621094"><stop stop-color="rgb(255,255,255)" offset="0%" stop-opacity="0.9300000071525574"></stop><stop stop-color="rgb(255,255,255)" offset="57%" stop-opacity="0.9649999737739563"></stop><stop stop-color="rgb(255,255,255)" offset="100%" stop-opacity="1"></stop></radialGradient><clipPath id="__lottie_element_49"><path d="M0,0 L512,0 L512,512 L0,512z"></path></clipPath><radialGradient id="__lottie_element_66" spreadMethod="pad" gradientUnits="userSpaceOnUse"><stop></stop><stop></stop><stop></stop></radialGradient><mask id="__lottie_element_68"><path fill="url(#__lottie_element_67)"></path></mask><radialGradient id="__lottie_element_67" spreadMethod="pad" gradientUnits="userSpaceOnUse"><stop stop-color="rgb(255,255,255)"></stop><stop stop-color="rgb(255,255,255)"></stop><stop stop-color="rgb(255,255,255)"></stop></radialGradient></defs><g clip-path="url(#__lottie_element_2)"><g clip-path="url(#__lottie_element_49)" style="display: none;"><g style="display: none;"><g><path></path></g><g><path stroke-linecap="butt" stroke-linejoin="miter" fill-opacity="0" stroke-miterlimit="10"></path></g></g><g style="display: none;"><g><path fill="url(#__lottie_element_66)" mask="url(#__lottie_element_68)"></path><path stroke-linecap="butt" stroke-linejoin="miter" fill-opacity="0" stroke-miterlimit="10"></path></g><g><path></path></g><g><path></path></g><g><path></path></g><g><path stroke-linecap="round" stroke-linejoin="round" fill-opacity="0"></path></g><g><path></path></g><g><path></path></g></g><g style="display: none;"><g><path stroke-linecap="round" stroke-linejoin="round" fill-opacity="0"></path></g><g><path stroke-linecap="round" stroke-linejoin="round" fill-opacity="0"></path></g></g><g style="display: none;"><g><g><g><path></path></g><g><path stroke-linecap="round" stroke-linejoin="round" fill-opacity="0"></path></g></g></g></g><g style="display: none;"><g><path stroke-linecap="round" stroke-linejoin="round" fill-opacity="0"></path></g><g><path stroke-linecap="round" stroke-linejoin="round" fill-opacity="0"></path></g><g><path stroke-linecap="round" stroke-linejoin="round" fill-opacity="0"></path></g><g><path stroke-linecap="round" stroke-linejoin="round" fill-opacity="0"></path></g></g><g style="display: none;"><g><path stroke-linecap="round" stroke-linejoin="round" fill-opacity="0"></path></g></g><g style="display: none;"><g><path></path></g><g><path stroke-linecap="round" stroke-linejoin="round" fill-opacity="0"></path></g><g><path stroke-linecap="round" stroke-linejoin="round" fill-opacity="0"></path></g><g><path></path></g></g><g style="display: none;"><g><path></path></g><g><path></path></g><g><path></path></g><g><path></path></g><g><path stroke-linecap="round" stroke-linejoin="round" fill-opacity="0"></path></g><g><g><path stroke-linecap="round" stroke-linejoin="round" fill-opacity="0"></path></g><g><path></path></g><g><path stroke-linecap="butt" stroke-linejoin="miter" fill-opacity="0" stroke-miterlimit="10"></path></g><g><g><path></path></g><g><path></path></g></g></g><g><g><path></path></g><g><path stroke-linecap="butt" stroke-linejoin="miter" fill-opacity="0" stroke-miterlimit="10"></path></g><g><g><path></path></g><g><path></path></g><g><path></path></g></g></g><g><path stroke-linecap="round" stroke-linejoin="bevel" fill-opacity="0"></path></g><g><path></path></g><g><path stroke-linecap="butt" stroke-linejoin="miter" fill-opacity="0" stroke-miterlimit="4"></path></g></g><g style="display: none;"><g><g><path></path></g><g><path stroke-linecap="round" stroke-linejoin="round" fill-opacity="0"></path></g><g><path stroke-linecap="round" stroke-linejoin="round" fill-opacity="0"></path></g><g><path></path></g><g><path></path></g></g></g><g style="display: none;"><g><path></path></g><g><path></path></g></g><g style="display: none;"><g><g><g></g><g><path></path><path stroke-linecap="butt" stroke-linejoin="miter" fill-opacity="0" stroke-miterlimit="10"></path></g></g></g><g><path></path></g><g><g><path></path></g><g><path stroke-linecap="round" stroke-linejoin="round" fill-opacity="0"></path></g></g><g><g><path></path></g><g><path stroke-linecap="round" stroke-linejoin="round" fill-opacity="0"></path></g></g><g><g><path></path></g><g><path stroke-linecap="round" stroke-linejoin="round" fill-opacity="0"></path></g></g><g><g><path></path></g><g><path stroke-linecap="round" stroke-linejoin="round" fill-opacity="0"></path></g></g><g><path stroke-linecap="round" stroke-linejoin="round" fill-opacity="0"></path></g><g><path stroke-linecap="round" stroke-linejoin="round" fill-opacity="0"></path></g><g><path></path></g></g></g><g clip-path="url(#__lottie_element_4)" style="display: block;" transform="matrix(1,0,0,1,0,0)" opacity="1"><g style="display: block;" transform="matrix(2.22003173828125,0.5749968886375427,-0.6245098114013672,2.179703950881958,53.775020599365234,143.1091766357422)" opacity="1"><g opacity="1" transform="matrix(1,0,0,1,26.246000289916992,40.933998107910156)"><path fill="rgb(234,170,133)" fill-opacity="1" d=" M-8.248000144958496,-23.059999465942383 C-8.248000144958496,-23.059999465942383 -7.535999774932861,-25.93400001525879 -3.880000114440918,-25.20199966430664 C-0.22499999403953552,-24.47100067138672 2.924999952316284,-23.115999221801758 4.548999786376953,-20.297000885009766 C6.173999786376953,-17.47800064086914 6.491000175476074,-15.036999702453613 6.057000160217285,-11.352999687194824 C5.623000144958496,-7.671000003814697 5.708000183105469,-3.999000072479248 6.00600004196167,-2.374000072479248 C6.302999973297119,-0.7480000257492065 9.09000015258789,7.349999904632568 9.109000205993652,8.164999961853027 C9.128000259399414,8.980999946594238 9.814000129699707,16.10700035095215 9.605999946594238,18.35700035095215 C9.39799976348877,20.606000900268555 11.246000289916992,21.117000579833984 8.427000045776367,22.815000534057617 C5.607999801635742,24.51300048828125 -0.35199999809265137,25.93400001525879 -2.2990000247955322,20.4689998626709 C-4.244999885559082,15.005000114440918 -6.321000099182129,4.078000068664551 -6.590000152587891,3.061000108718872 C-11.246000289916992,-14.595000267028809 -8.248000144958496,-23.059999465942383 -8.248000144958496,-23.059999465942383z"></path></g><g opacity="1" transform="matrix(1,0,0,1,26.246000289916992,40.933998107910156)"><path stroke-linecap="butt" stroke-linejoin="miter" fill-opacity="0" stroke-miterlimit="10" stroke="rgb(159,86,35)" stroke-opacity="1" stroke-width="6" d=" M-8.248000144958496,-23.059999465942383 C-8.248000144958496,-23.059999465942383 -7.535999774932861,-25.93400001525879 -3.880000114440918,-25.20199966430664 C-0.22499999403953552,-24.47100067138672 2.924999952316284,-23.115999221801758 4.548999786376953,-20.297000885009766 C6.173999786376953,-17.47800064086914 6.491000175476074,-15.036999702453613 6.057000160217285,-11.352999687194824 C5.623000144958496,-7.671000003814697 5.708000183105469,-3.999000072479248 6.00600004196167,-2.374000072479248 C6.302999973297119,-0.7480000257492065 9.09000015258789,7.349999904632568 9.109000205993652,8.164999961853027 C9.128000259399414,8.980999946594238 9.814000129699707,16.10700035095215 9.605999946594238,18.35700035095215 C9.39799976348877,20.606000900268555 11.246000289916992,21.117000579833984 8.427000045776367,22.815000534057617 C5.607999801635742,24.51300048828125 -0.35199999809265137,25.93400001525879 -2.2990000247955322,20.4689998626709 C-4.244999885559082,15.005000114440918 -6.321000099182129,4.078000068664551 -6.590000152587891,3.061000108718872 C-11.246000289916992,-14.595000267028809 -8.248000144958496,-23.059999465942383 -8.248000144958496,-23.059999465942383z"></path></g></g><g style="display: block;" transform="matrix(2.1450681686401367,0.7935428619384766,-0.8468978404998779,2.1099812984466553,132.66590881347656,-69.46099090576172)" opacity="1"><g opacity="1" transform="matrix(1,0,0,1,90.28199768066406,124.25900268554688)"><path fill="url(#__lottie_element_21)" mask="url(#__lottie_element_23)" fill-opacity="1" d="M0 0 M-23.742000579833984,-99.27799987792969 C-42.61600112915039,-90.12000274658203 -60.87099838256836,-75.08799743652344 -68.50499725341797,-47.933998107910156 C-73.05899810791016,-31.733999252319336 -66.68499755859375,-7.247000217437744 -66.68499755859375,-7.247000217437744 C-66.68499755859375,-7.247000217437744 -64.1709976196289,12.758000373840332 -64.39900207519531,18.775999069213867 C-65.02300262451172,35.24300003051758 -54.02799987792969,52.560001373291016 -44.275001525878906,68.71399688720703 C-36.027000427246094,82.375 -34.92300033569336,99.18599700927734 -17.656999588012695,100.29399871826172 C20.51799964904785,102.74400329589844 46.17100143432617,74.81199645996094 54.12699890136719,57.06399917602539 C62.08300018310547,39.31700134277344 56.90700149536133,23.034000396728516 57.51900100708008,19.974000930786133 C58.13199996948242,16.913999557495117 57.49399948120117,11.685999870300293 57.49399948120117,9.850000381469727 C57.49399948120117,8.013999938964844 74.88200378417969,-28.549999237060547 70.95700073242188,-50.316001892089844 C66.47000122070312,-75.2030029296875 56.909000396728516,-96.20600128173828 32.20600128173828,-104.8290023803711 C15.494999885559082,-110.66200256347656 -2.247999906539917,-109.70700073242188 -23.742000579833984,-99.27799987792969z"></path><path stroke-linecap="butt" stroke-linejoin="miter" fill-opacity="0" stroke-miterlimit="10" stroke="rgb(158,85,34)" stroke-opacity="1" stroke-width="7" d=" M-23.742000579833984,-99.27799987792969 C-42.61600112915039,-90.12000274658203 -60.87099838256836,-75.08799743652344 -68.50499725341797,-47.933998107910156 C-73.05899810791016,-31.733999252319336 -66.68499755859375,-7.247000217437744 -66.68499755859375,-7.247000217437744 C-66.68499755859375,-7.247000217437744 -64.1709976196289,12.758000373840332 -64.39900207519531,18.775999069213867 C-65.02300262451172,35.24300003051758 -54.02799987792969,52.560001373291016 -44.275001525878906,68.71399688720703 C-36.027000427246094,82.375 -34.92300033569336,99.18599700927734 -17.656999588012695,100.29399871826172 C20.51799964904785,102.74400329589844 46.17100143432617,74.81199645996094 54.12699890136719,57.06399917602539 C62.08300018310547,39.31700134277344 56.90700149536133,23.034000396728516 57.51900100708008,19.974000930786133 C58.13199996948242,16.913999557495117 57.49399948120117,11.685999870300293 57.49399948120117,9.850000381469727 C57.49399948120117,8.013999938964844 74.88200378417969,-28.549999237060547 70.95700073242188,-50.316001892089844 C66.47000122070312,-75.2030029296875 56.909000396728516,-96.20600128173828 32.20600128173828,-104.8290023803711 C15.494999885559082,-110.66200256347656 -2.247999906539917,-109.70700073242188 -23.742000579833984,-99.27799987792969z"></path></g><g opacity="1" transform="matrix(1,0,0,1,126.16400146484375,56.73099899291992)"><path fill="rgb(234,149,104)" fill-opacity="1" d=" M-29.66699981689453,-37.21799850463867 C-29.66699981689453,-37.21799850463867 1.1740000247955322,-32.76900100708008 12.680000305175781,-19.43199920654297 C36.402000427246094,8.0649995803833 29.716999053955078,42.724998474121094 29.716999053955078,42.724998474121094 C29.716999053955078,42.724998474121094 31.513999938964844,29.517000198364258 31.513999938964844,29.517000198364258 C31.513999938964844,29.517000198364258 33.060001373291016,15.635000228881836 29.663000106811523,7.146999835968018 C27.68000030517578,2.193000078201294 23.06399917602539,-13.986000061035156 12.628999710083008,-23.792999267578125 C-1.690000057220459,-37.249000549316406 -19.69499969482422,-38.64799880981445 -29.66699981689453,-37.21799850463867z"></path></g><g opacity="1" transform="matrix(1,0,0,1,153.63600158691406,84.66300201416016)"><path fill="rgb(168,135,127)" fill-opacity="1" d=" M-2.6670000553131104,-32.733001708984375 C-2.6670000553131104,-32.733001708984375 -2.1540000438690186,-21.44499969482422 -6.181000232696533,-16.24799919128418 C-11.175000190734863,-9.803000450134277 -11.527999877929688,-8.4399995803833 -15.425999641418457,-2.1419999599456787 C-17.878000259399414,1.819000005722046 -18.229000091552734,2.621000051498413 -17.65399932861328,13.732000350952148 C-17.44700050354004,17.73200035095215 -16.70199966430664,28.393999099731445 -13.715999603271484,28.732999801635742 C-8.288000106811523,29.349000930786133 -6.757999897003174,26.41699981689453 -3.9719998836517334,23.316999435424805 C-1.684000015258789,20.770999908447266 -3.818000078201294,23.42300033569336 -3.818000078201294,23.42300033569336 C-3.818000078201294,23.42300033569336 2.8989999294281006,12.142000198364258 2.8989999294281006,12.142000198364258 C2.8989999294281006,12.142000198364258 6.940999984741211,1.7640000581741333 4.27400016784668,-11.958000183105469 C1.7740000486373901,-24.82200050354004 -2.6670000553131104,-32.733001708984375 -2.6670000553131104,-32.733001708984375z"></path></g><g opacity="1" transform="matrix(1,0,0,1,127.76000213623047,180.14700317382812)"><path fill="rgb(231,146,100)" fill-opacity="1" d=" M17.348562240600586,-38.53049850463867 C17.348562240600586,-38.53049850463867 2.8215625286102295,-23.399499893188477 0.742562472820282,-23.13949966430664 C-1.336437463760376,-22.879499435424805 0.8525624871253967,-4.326499938964844 -0.7494375109672546,1.44350004196167 C-1.3724374771118164,3.683500051498413 -7.8754377365112305,17.73550033569336 -9.694437026977539,20.594499588012695 C-11.513437271118164,23.452499389648438 -22.741437911987305,33.58549880981445 -22.741437911987305,33.58549880981445 C-22.741437911987305,33.58549880981445 -23.544374465942383,35.692623138427734 -23.544374465942383,35.692623138427734 C-23.544374465942383,35.692623138427734 4.609624862670898,18.832124710083008 10.066624641418457,6.3571248054504395 C15.524624824523926,-6.116875171661377 17.33356285095215,-14.750499725341797 17.33356285095215,-14.750499725341797 C17.33356285095215,-14.750499725341797 18.239500045776367,-34.37900161743164 18.239500045776367,-34.37900161743164"></path></g><g opacity="1" transform="matrix(1,0,0,1,135.08900451660156,147.7969970703125)"><path stroke-linecap="round" stroke-linejoin="round" fill-opacity="0" stroke="rgb(195,107,58)" stroke-opacity="1" stroke-width="6" d=" M3.39520001411438,0.22735999524593353 C3.39520001411438,0.22735999524593353 2.1693999767303467,4.229879856109619 -2.6916000843048096,8.280879974365234 C-5.802599906921387,10.872879981994629 -10.430919647216797,14.121879577636719 -10.430919647216797,14.121879577636719"></path></g><g opacity="1" transform="matrix(1,0,0,1,26.618999481201172,84.85399627685547)"><path fill="rgb(183,149,141)" fill-opacity="1" d=" M5.822999954223633,-31.023000717163086 C5.822999954223633,-31.023000717163086 -2.193000078201294,-11.842000007629395 -1.906000018119812,-6.97599983215332 C-1.6200000047683716,-2.1089999675750732 -2.1989998817443848,4.86899995803833 -2.1989998817443848,11.166000366210938 C-2.1989998817443848,17.464000701904297 -1.625,23.016000747680664 -1.625,23.016000747680664 C-1.625,23.016000747680664 -2.0139999389648438,31.023000717163086 -2.0139999389648438,31.023000717163086 C-2.0139999389648438,31.023000717163086 -5.822999954223633,15.145999908447266 -4.105999946594238,-0.8849999904632568 C-2.388000011444092,-16.916000366210938 -0.4749999940395355,-20.43000030517578 0.9559999704360962,-23.006999969482422 C2.38700008392334,-25.58300018310547 5.822999954223633,-31.023000717163086 5.822999954223633,-31.023000717163086z"></path></g><g opacity="1" transform="matrix(1,0,0,1,33.900001525878906,147.76199340820312)"><path fill="rgb(228,140,92)" fill-opacity="1" d=" M12.305999755859375,28.18400001525879 C11.477999687194824,28.18400001525879 10.642000198364258,27.924999237060547 9.928999900817871,27.389999389648438 C9.479999542236328,27.054000854492188 5.495999813079834,24.05299949645996 3.7860000133514404,22.3439998626709 C2.3459999561309814,20.902999877929688 -0.04600000008940697,17.02899932861328 -2.0510001182556152,10.579999923706055 C-2.4000000953674316,9.456000328063965 -2.6559998989105225,1.7009999752044678 -2.253000020980835,1.0950000286102295 C-1.0369999408721924,-0.7279999852180481 4.050000190734863,3.933000087738037 4.810999870300293,5.986000061035156 C6.420000076293945,10.319000244140625 8.656999588012695,15.637999534606934 9.489999771118164,16.82699966430664 C10.550999641418457,17.85300064086914 13.213000297546387,19.937000274658203 14.689000129699707,21.04400062561035 C16.44099998474121,22.358999252319336 16.79599952697754,24.844999313354492 15.482000350952148,26.597000122070312 C14.70199966430664,27.63599967956543 13.51200008392334,28.18400001525879 12.305999755859375,28.18400001525879z"></path></g></g><g style="display: block;" transform="matrix(1.9031568765640259,0.8084506392478943,-0.7726036310195923,1.6908316612243652,43.75731658935547,311.3874206542969)" opacity="1"><g opacity="1" transform="matrix(1,0,0,1,23.999000549316406,27.927000045776367)"><path stroke-linecap="round" stroke-linejoin="round" fill-opacity="0" stroke="rgb(215,124,80)" stroke-opacity="1" stroke-width="5.724" d=" M24.93400001525879,-21.461000442504883 C24.93400001525879,-21.461000442504883 16.19700050354004,-27.474000930786133 13.392000198364258,-23.57200050354004 C10.586999893188477,-19.670000076293945 7.4770002365112305,-15.21399974822998 6.988999843597412,-10.185999870300293 C6.500999927520752,-5.1579999923706055 11.067000389099121,4.574999809265137 11.067000389099121,4.574999809265137"></path></g><g opacity="1" transform="matrix(1,0,0,1,73.44000244140625,32.944000244140625)"><path stroke-linecap="round" stroke-linejoin="round" fill-opacity="0" stroke="rgb(215,124,80)" stroke-opacity="1" stroke-width="5.724" d=" M-10.847000122070312,-17.158000946044922 C-10.847000122070312,-17.158000946044922 -5.361999988555908,-10.194000244140625 -2.0859999656677246,-6.644999980926514 C1.9609999656677246,-2.260999917984009 6.953000068664551,4.624000072479248 8.34000015258789,6.243000030517578 C10.847000122070312,9.17300033569336 10.071999549865723,17.158000946044922 10.071999549865723,17.158000946044922"></path></g></g><g style="display: block;" transform="matrix(1.9291741847991943,0.7466620802879333,-0.8065668344497681,1.9247773885726929,54.08539962768555,393.6626281738281)" opacity="1"><g opacity="1" transform="matrix(0.9759852886199951,0,0,0.9759852886199951,3.2128944396972656,-16.235984802246094)"><g opacity="1" transform="matrix(1,0,0,1,0,3)"><g opacity="1" transform="matrix(1,0,0,1,28.479999542236328,7.952000141143799)"><path fill="rgb(215,129,83)" fill-opacity="1" d=" M-23.815000534057617,-0.6940000057220459 C-23.815000534057617,-0.6940000057220459 -13.213000297546387,-1.3860000371932983 -5.776000022888184,-1.906000018119812 C1.6610000133514404,-2.424999952316284 12.420999526977539,-2.252000093460083 15.586000442504883,-1.906000018119812 C18.750999450683594,-1.559000015258789 23.815000534057617,0.8669999837875366 23.815000534057617,0.8669999837875366 C23.815000534057617,0.8669999837875366 20.174999237060547,2.4260001182556152 19.384000778198242,2.4260001182556152 C18.593000411987305,2.4260001182556152 -7.456999778747559,2.2960000038146973 -7.961999893188477,2.187999963760376 C-8.465999603271484,2.0789999961853027 -19.70199966430664,1.906000018119812 -19.70199966430664,1.906000018119812 C-19.70199966430664,1.906000018119812 -23.815000534057617,-0.6940000057220459 -23.815000534057617,-0.6940000057220459z"></path></g><g opacity="1" transform="matrix(1,0,0,1,32.000999450683594,10.824999809265137)"><path stroke-linecap="round" stroke-linejoin="round" fill-opacity="0" stroke="rgb(102,49,43)" stroke-opacity="1" stroke-width="6" d=" M-21.95599937438965,-0.7799999713897705 C-21.95599937438965,-0.7799999713897705 -14.9399995803833,-0.06400000303983688 -11.402999877929688,0.19499999284744263 C-7.866000175476074,0.453000009059906 -1.7079999446868896,-0.3179999887943268 2.0179998874664307,-0.25999999046325684 C5.743000030517578,-0.20200000703334808 11.32800006866455,0.34200000762939453 12.258999824523926,0.35600000619888306 C13.1899995803833,0.3709999918937683 18.219999313354492,0.4490000009536743 18.219999313354492,0.4490000009536743 C18.219999313354492,0.4490000009536743 21.95599937438965,0.7799999713897705 21.95599937438965,0.7799999713897705"></path></g></g></g></g><g style="display: block;" transform="matrix(1.745418906211853,0.7106896042823792,-0.7406758666038513,1.70411217212677,104.90911102294922,201.5567626953125)" opacity="1"><g opacity="1" transform="matrix(1,0,0,1,25.952999114990234,16.59000015258789)"><path stroke-linecap="round" stroke-linejoin="round" fill-opacity="0" stroke="rgb(234,149,104)" stroke-opacity="1" stroke-width="6" d=" M-20.56800079345703,3.2929999828338623 C-20.56800079345703,3.2929999828338623 -10.831999778747559,-3.2929999828338623 0.5120000243186951,-1.4809999465942383 C5.764999866485596,-0.6420000195503235 17.316999435424805,-0.8040000200271606 20.56800079345703,-0.45500001311302185"></path></g><g opacity="1" transform="matrix(0.9999976754188538,-0.0021642064675688744,0.0021642064675688744,0.9999976754188538,33.608001708984375,4.6570000648498535)"><path stroke-linecap="round" stroke-linejoin="round" fill-opacity="0" stroke="rgb(234,149,104)" stroke-opacity="1" stroke-width="6" d=" M-31.222999572753906,3.3540000915527344 C-31.222999572753906,3.3540000915527344 -24.826000213623047,-2.5380001068115234 -18.90999984741211,-2.946000099182129 C-12.994000434875488,-3.3540000915527344 -2.5940001010894775,-1.5770000219345093 0.4650000035762787,-1.4830000400543213 C14.329999923706055,-1.0579999685287476 31.222999572753906,-1.8370000123977661 31.222999572753906,-1.8370000123977661"></path></g><g opacity="1" transform="matrix(1,0,0,1,84.5999984741211,4.085999965667725)"><path stroke-linecap="round" stroke-linejoin="round" fill-opacity="0" stroke="rgb(234,149,104)" stroke-opacity="1" stroke-width="6" d=" M-23.496665954589844,-0.640999972820282 C-23.496665954589844,-0.640999972820282 -18.095333099365234,-7.796000003814697 -8.199333190917969,-7.2220001220703125 C-1.6323332786560059,-6.824999809265137 1.9630000591278076,-3.382999897003174 1.9630000591278076,-3.382999897003174"></path></g><g opacity="1" transform="matrix(1,0,0,1,83.60399627685547,17.003999710083008)"><path stroke-linecap="round" stroke-linejoin="round" fill-opacity="0" stroke="rgb(234,149,104)" stroke-opacity="1" stroke-width="6" d=" M-19.29199981689453,-1.6089999675750732 C-19.29199981689453,-1.6089999675750732 -10.368000030517578,-7.01200008392334 -2.6050000190734863,-5.263000011444092 C2.2039999961853027,-4.178999900817871 5.295000076293945,-3.2060000896453857 5.295000076293945,-3.2060000896453857"></path></g></g><g style="display: block;" transform="matrix(1.9790483713150024,-0.0469014048576355,0.015496496111154556,1.9055824279785156,127.90144348144531,498.9328918457031)" opacity="0.67"><g opacity="1" transform="matrix(1,0,0,1,82.7020034790039,-107.55799865722656)"><path stroke-linecap="round" stroke-linejoin="round" fill-opacity="0" stroke="rgb(159,86,35)" stroke-opacity="1" stroke-width="8" d=" M-0.5766000151634216,-6.833600044250488 C-0.5766000151634216,-6.833600044250488 -11.668600082397461,-0.4796000123023987 -15.800600051879883,5.563399791717529 C-18.358800888061523,10.03279972076416 -23.90060043334961,20.167600631713867 -24.15060043334961,21.917600631713867 C-24.40060043334961,23.667600631713867 -25.062999725341797,17.548999786376953 -25.062999725341797,17.548999786376953"></path></g></g><g style="display: block;" transform="matrix(2.407541513442993,0.8731563091278076,-0.9518663883209229,2.4167041778564453,342.8639831542969,208.6265106201172)" opacity="1"><g opacity="1" transform="matrix(1,0,0,1,27.31999969482422,47.154998779296875)"><path fill="rgb(244,186,157)" fill-opacity="1" d=" M-8.814000129699707,-20.40275001525879 C-8.814000129699707,-20.40275001525879 -4.3132500648498535,-33.291751861572266 2.5047500133514404,-33.0317497253418 C9.322750091552734,-32.770748138427734 9.599249839782715,-30.789499282836914 8.714249610900879,-26.127500534057617 C7.830249786376953,-21.46649932861328 9.730999946594238,-21.469999313354492 10.085000038146973,-18.393999099731445 C10.437999725341797,-15.319000244140625 7.671000003814697,-12.687000274658203 4.861999988555908,-7.204999923706055 C1.9989999532699585,-1.6180000305175781 0.7879999876022339,2.8940000534057617 0.7409999966621399,4.117000102996826 C0.6940000057220459,5.340000152587891 -0.7129999995231628,9.635000228881836 -3.36899995803833,11.371000289916992 C-6.025000095367432,13.107000350952148 -5.670000076293945,12.545999526977539 -8.680000305175781,11.206000328063965 C-11.689000129699707,9.866000175476074 -14.798999786376953,5.88700008392334 -14.798999786376953,5.88700008392334 C-14.798999786376953,5.88700008392334 -18.88974952697754,0.33799999952316284 -18.804750442504883,-1.9040000438690186"></path></g><g opacity="1" transform="matrix(1,0,0,1,30.458999633789062,44.45800018310547)"><path stroke-linecap="round" stroke-linejoin="round" fill-opacity="0" stroke="rgb(159,86,35)" stroke-opacity="1" stroke-width="6" d=" M-10.06974983215332,-23.914249420166016 C-10.06974983215332,-23.914249420166016 -0.20399999618530273,-37.459999084472656 4.690499782562256,-31.25374984741211 C10.163249969482422,-24.352500915527344 6.506999969482422,-19.344499588012695 5.357250213623047,-14.622249603271484 C4.413750171661377,-10.890250205993652 -0.7450000047683716,-2.729749917984009 -1.410249948501587,0.7082499861717224 C-2.044250011444092,4.057000160217285 -4.289750099182129,7.5329999923706055 -5.733250141143799,10.26099967956543 C-7.164750099182129,13.04224967956543 -9.36674976348877,14.47249984741211 -12.293749809265137,13.345499992370605 C-14.138250350952148,12.746500015258789 -16.07699966430664,10.366499900817871 -16.07699966430664,10.366499900817871"></path></g><g opacity="1" transform="matrix(1,0,0,1,23.492000579833984,45.827999114990234)"><path stroke-linecap="round" stroke-linejoin="round" fill-opacity="0" stroke="rgb(159,86,35)" stroke-opacity="1" stroke-width="5" d=" M3.6740000247955322,-19.762500762939453 C3.6740000247955322,-19.762500762939453 0.2082500010728836,-14.383000373840332 -0.2160000056028366,-13.989999771118164 C0.672249972820282,-9.168499946594238 0.9557499885559082,-8.020000457763672 -1.7602499723434448,-5.986999988555908 C-4.300250053405762,-4.085999965667725 -4.690000057220459,-4.0625 -4.690000057220459,-4.0625 C-4.690000057220459,-4.0625 -6.176249980926514,0.8552500009536743 -6.176249980926514,0.8552500009536743"></path></g><g opacity="1" transform="matrix(1,0,0,1,0,0)"><path fill="rgb(243,181,152)" fill-opacity="1" d=" M11.666000366210938,48.819000244140625 C7.394000053405762,44.92900085449219 6.7729997634887695,50.32099914550781 6.7729997634887695,50.32099914550781 C6.7729997634887695,50.32099914550781 15.22700023651123,56.9010009765625 20.280000686645508,54.30699920654297 C23.80699920654297,52.49599838256836 21.513999938964844,47.43899917602539 21.513999938964844,47.43899917602539 C21.513999938964844,47.43899917602539 15.937999725341797,52.70899963378906 11.666000366210938,48.819000244140625z"></path></g></g><g style="display: block;" transform="matrix(1.8717050552368164,0.7774195075035095,-0.7555757164955139,1.6979843378067017,67.96336364746094,235.32554626464844)" opacity="1"><g opacity="1" transform="matrix(1,0,0,1,32.29100036621094,17.010000228881836)"><path fill="rgb(223,146,104)" fill-opacity="1" d=" M-6.443999767303467,-10.354999542236328 C-6.443999767303467,-10.354999542236328 -6.443999767303467,1.531999945640564 -8.178000450134277,3.760999917984009 C-9.91100025177002,5.989999771118164 -13.131999969482422,8.46500015258789 -13.131999969482422,8.46500015258789 C-13.131999969482422,8.46500015258789 -8.178999900817871,11.437000274658203 -6.692999839782715,11.189000129699707 C-5.206999778747559,10.940999984741211 -4.711999893188477,12.92300033569336 -0.007000000216066837,13.170999526977539 C4.697999954223633,13.418000221252441 12.187000274658203,14.069000244140625 12.826000213623047,11.515999794006348 C13.131999969482422,10.291999816894531 10.180999755859375,0.7160000205039978 8.942999839782715,-1.2649999856948853 C7.703999996185303,-3.246000051498413 3.8350000381469727,-7.8420000076293945 3.3399999141693115,-8.833000183105469 C2.8450000286102295,-9.824000358581543 -6.443999767303467,-14.067999839782715 -6.443999767303467,-14.067999839782715 C-6.443999767303467,-14.067999839782715 -6.443999767303467,-10.354999542236328 -6.443999767303467,-10.354999542236328z"></path></g><g opacity="1" transform="matrix(1,0,0,1,64.30799865722656,20.485000610351562)"><path fill="rgb(223,146,104)" fill-opacity="1" d=" M4.761000156402588,-14.512999534606934 C4.761000156402588,-14.512999534606934 -3.693000078201294,-8.6899995803833 -11.406000137329102,-8.626999855041504 C-20.799999237060547,-8.550999641418457 -29.799999237060547,-14.052000045776367 -29.97599983215332,-11.59000015258789 C-30.22599983215332,-8.088000297546387 -18.12700080871582,4.10099983215332 -18.12700080871582,4.10099983215332 C-18.12700080871582,4.10099983215332 -11.402999877929688,-0.7020000219345093 -5.591000080108643,4.892000198364258 C-2.187000036239624,8.168999671936035 -2.7760000228881836,14.803000450134277 -1.649999976158142,16.847000122070312 C0.21699999272823334,20.235000610351562 3.819999933242798,17.368000030517578 4.067999839782715,13.902000427246094 C4.315999984741211,10.4350004196167 7.171000003814697,6.0229997634887695 7.171000003814697,6.0229997634887695 C7.171000003814697,6.0229997634887695 10.175999641418457,4.829999923706055 12.404999732971191,3.3440001010894775 C14.633999824523926,1.8580000400543213 21.82699966430664,0.18299999833106995 21.82699966430664,0.18299999833106995 C21.82699966430664,0.18299999833106995 25.50200080871582,-10.873000144958496 26.2450008392334,-14.34000015258789 C26.988000869750977,-17.805999755859375 19.339000701904297,-15.970999717712402 23.54800033569336,-17.208999633789062 C27.757999420166016,-18.447999954223633 30.22599983215332,-18.253999710083008 28.492000579833984,-19.2450008392334 C26.759000778198242,-20.235000610351562 13.652999877929688,-18.8700008392334 13.652999877929688,-18.8700008392334 C13.652999877929688,-18.8700008392334 4.761000156402588,-14.512999534606934 4.761000156402588,-14.512999534606934z"></path></g><g opacity="1" transform="matrix(1,0,0,1,99.30999755859375,25.069000244140625)"><path fill="rgb(223,146,104)" fill-opacity="1" d=" M-11.875,-5.9019999504089355 C-11.875,-5.9019999504089355 0.8080000281333923,-5.901000022888184 7.406000137329102,-2.619999885559082 C10.86400032043457,-0.9010000228881836 11.875,-0.5440000295639038 11.625,0.9990000128746033 C11.076000213623047,4.400000095367432 3.86899995803833,5.9019999504089355 1.0390000343322754,5.9019999504089355 C1.0390000343322754,5.9019999504089355 -6.506999969482422,5.9019999504089355 -6.506999969482422,5.9019999504089355 C-6.506999969482422,5.9019999504089355 -7.370999813079834,-3.505000114440918 -7.370999813079834,-3.505000114440918"></path></g><g opacity="0.01" transform="matrix(1,0,0,1,12.98900032043457,23.739999771118164)"><path fill="rgb(223,146,104)" fill-opacity="1" d=" M12.739999771118164,-5.927999973297119 C12.739999771118164,-5.927999973297119 5.585000038146973,-7.38700008392334 1.3619999885559082,-7.052999973297119 C-2.8610000610351562,-6.718999862670898 -12.739999771118164,-2.171999931335449 -11.753999710083008,0.5419999957084656 C-11.02299976348877,2.552000045776367 -3.6619999408721924,5.361999988555908 -0.6420000195503235,5.914000034332275 C2.378000020980835,6.4670000076293945 7.4120001792907715,7.38700008392334 7.4120001792907715,7.38700008392334 C7.4120001792907715,7.38700008392334 10.567000389099121,-4.656000137329102 10.567000389099121,-4.656000137329102"></path></g><g opacity="1" transform="matrix(1,0,0,1,21.09600067138672,30.413000106811523)"><path stroke-linecap="round" stroke-linejoin="round" fill-opacity="0" stroke="rgb(234,149,104)" stroke-opacity="1" stroke-width="4.493" d=" M-8.26200008392334,-1.3259999752044678 C-8.26200008392334,-1.3259999752044678 -5.406000137329102,1.3259999752044678 -0.10199999809265137,1.3259999752044678 C5.202000141143799,1.3259999752044678 8.26200008392334,0.5099999904632568 8.26200008392334,0.5099999904632568"></path></g><g opacity="1" transform="matrix(1.100000023841858,0,0,1.100000023841858,-7.41180419921875,-4.63490104675293)"><g opacity="1" transform="matrix(1,0,0,1,82.5999984741211,30.617000579833984)"><path stroke-linecap="round" stroke-linejoin="round" fill-opacity="0" stroke="rgb(234,149,104)" stroke-opacity="1" stroke-width="4.493" d=" M-11.218999862670898,0.3059999942779541 C-11.218999862670898,0.3059999942779541 -3.6710000038146973,1.937999963760376 1.8370000123977661,1.5299999713897705 C7.34499979019165,1.121999979019165 11.218999862670898,-1.937999963760376 11.218999862670898,-1.937999963760376"></path></g><g opacity="1" transform="matrix(1,0,0,1,83.94200134277344,26.26799964904785)"><path fill="rgb(255,255,255)" fill-opacity="1" d=" M-11.928000450134277,0.04100000113248825 C-13.059000015258789,1.5989999771118164 -13.538000106811523,3.5450000762939453 -11.718999862670898,4.309000015258789 C-9.756999969482422,5.132999897003174 -4.440000057220459,5.915999889373779 -1.3320000171661377,5.986999988555908 C10.220999717712402,6.250999927520752 13.538000106811523,1.8070000410079956 13.267999649047852,0.5180000066757202 C12.57800006866455,-2.7679998874664307 9.60099983215332,-6.250999927520752 2.2790000438690186,-5.796000003814697 C-1.940000057220459,-5.533999919891357 -10.305000305175781,-2.191999912261963 -11.928000450134277,0.04100000113248825z"></path></g><g opacity="1" transform="matrix(1,0,0,1,83.94200134277344,26.26799964904785)"><path stroke-linecap="butt" stroke-linejoin="miter" fill-opacity="0" stroke-miterlimit="10" stroke="rgb(81,37,32)" stroke-opacity="1" stroke-width="3.816" d=" M-11.928000450134277,0.04100000113248825 C-13.059000015258789,1.5989999771118164 -13.538000106811523,3.5450000762939453 -11.718999862670898,4.309000015258789 C-9.756999969482422,5.132999897003174 -4.440000057220459,5.915999889373779 -1.3320000171661377,5.986999988555908 C10.220999717712402,6.250999927520752 13.538000106811523,1.8070000410079956 13.267999649047852,0.5180000066757202 C12.57800006866455,-2.7679998874664307 9.60099983215332,-6.250999927520752 2.2790000438690186,-5.796000003814697 C-1.940000057220459,-5.533999919891357 -10.305000305175781,-2.191999912261963 -11.928000450134277,0.04100000113248825z"></path></g><g opacity="1" transform="matrix(1,0,0,1,-2.3810043334960938,0)"><g opacity="1" transform="matrix(1,0,0,1,85.31999969482422,26.413999557495117)"><path fill="rgb(62,39,27)" fill-opacity="1" d=" M-6.236999988555908,-4.659999847412109 C-6.236999988555908,-4.659999847412109 -7.928999900817871,-1.6080000400543213 -7.364999771118164,0.49000000953674316 C-6.801000118255615,2.5880000591278076 -6.988999843597412,3.7330000400543213 -5.485000133514404,4.495999813079834 C-3.9809999465942383,5.257999897003174 -0.5979999899864197,5.60099983215332 2.2219998836517334,5.218999862670898 C5.041999816894531,4.8379998207092285 6.546000003814697,2.9700000286102295 6.546000003814697,2.0160000324249268 C6.546000003814697,1.062000036239624 7.928999900817871,-2.930999994277954 5.861000061035156,-4.265999794006348 C3.7929999828338623,-5.60099983215332 0.531000018119812,-5.23199987411499 -2.1010000705718994,-5.23199987411499 C-4.732999801635742,-5.23199987411499 -6.236999988555908,-4.659999847412109 -6.236999988555908,-4.659999847412109z"></path></g><g opacity="1" transform="matrix(1,0,0,1,88.4739990234375,25.20400047302246)"><path fill="rgb(255,255,255)" fill-opacity="1" d=" M1.0399999618530273,0 C1.0399999618530273,0.5019999742507935 0.5740000009536743,0.9100000262260437 -0.0010000000474974513,0.9100000262260437 C-0.574999988079071,0.9100000262260437 -1.0399999618530273,0.5019999742507935 -1.0399999618530273,0 C-1.0399999618530273,-0.5019999742507935 -0.574999988079071,-0.9100000262260437 -0.0010000000474974513,-0.9100000262260437 C0.5740000009536743,-0.9100000262260437 1.0399999618530273,-0.5019999742507935 1.0399999618530273,0z"></path></g></g></g><g opacity="1" transform="matrix(1.1399999856948853,0,0,1.1399999856948853,-2.9915199279785156,-3.475919723510742)"><g opacity="1" transform="matrix(1,0,0,1,21.660999298095703,25.05500030517578)"><path fill="rgb(255,255,255)" fill-opacity="1" d=" M9.810999870300293,-1.9299999475479126 C12.006999969482422,0.26600000262260437 12.114999771118164,2.321000099182129 9.291000366210938,3.614000082015991 C8.22700023651123,4.1020002365112305 4.394999980926514,5.021999835968018 2.88100004196167,5.173999786376953 C-3.0420000553131104,5.764999866485596 -11.845999717712402,3.0940001010894775 -12.020000457763672,0.32199999690055847 C-12.114999771118164,-1.2100000381469727 -8.62600040435791,-5.764999866485596 -1.9819999933242798,-5.321000099182129 C1.2120000123977661,-5.107999801635742 7.90500020980835,-3.8359999656677246 9.810999870300293,-1.9299999475479126z"></path></g><g opacity="1" transform="matrix(1,0,0,1,21.660999298095703,25.05500030517578)"><path stroke-linecap="butt" stroke-linejoin="miter" fill-opacity="0" stroke-miterlimit="10" stroke="rgb(81,37,32)" stroke-opacity="1" stroke-width="3.816" d=" M9.810999870300293,-1.9299999475479126 C12.006999969482422,0.26600000262260437 12.114999771118164,2.321000099182129 9.291000366210938,3.614000082015991 C8.22700023651123,4.1020002365112305 4.394999980926514,5.021999835968018 2.88100004196167,5.173999786376953 C-3.0420000553131104,5.764999866485596 -11.845999717712402,3.0940001010894775 -12.020000457763672,0.32199999690055847 C-12.114999771118164,-1.2100000381469727 -8.62600040435791,-5.764999866485596 -1.9819999933242798,-5.321000099182129 C1.2120000123977661,-5.107999801635742 7.90500020980835,-3.8359999656677246 9.810999870300293,-1.9299999475479126z"></path></g><g opacity="1" transform="matrix(1,0,0,1,-2.8570003509521484,0)"><g opacity="1" transform="matrix(1,0,0,1,23.881000518798828,24.670000076293945)"><path fill="rgb(62,39,27)" fill-opacity="1" d=" M-4.629000186920166,-3.6510000228881836 C-4.629000186920166,-3.6510000228881836 -6.708000183105469,-1.6080000400543213 -6.080999851226807,1.1430000066757202 C-5.676000118255615,2.9200000762939453 -4.889999866485596,4.7270002365112305 -3.48799991607666,5.120999813079834 C-2.76200008392334,5.324999809265137 -0.37599998712539673,5.324999809265137 2.3919999599456787,4.59499979019165 C4.776000022888184,3.9670000076293945 5.432000160217285,2.552999973297119 5.432000160217285,1.7549999952316284 C5.432000160217285,0.9559999704360962 6.708000183105469,-0.289000004529953 4.913000106811523,-1.406999945640564 C3.11899995803833,-2.5250000953674316 -0.49300000071525574,-5.324999809265137 -2.7769999504089355,-5.324999809265137 C-5.060999870300293,-5.324999809265137 -4.629000186920166,-3.6510000228881836 -4.629000186920166,-3.6510000228881836z"></path></g><g opacity="1" transform="matrix(1,0,0,1,26.79400062561035,24.68400001525879)"><path fill="rgb(255,255,255)" fill-opacity="1" d=" M1.0399999618530273,-0.0010000000474974513 C1.0399999618530273,0.5009999871253967 0.5730000138282776,0.9100000262260437 -0.0010000000474974513,0.9100000262260437 C-0.574999988079071,0.9100000262260437 -1.0399999618530273,0.5009999871253967 -1.0399999618530273,-0.0010000000474974513 C-1.0399999618530273,-0.503000020980835 -0.574999988079071,-0.9100000262260437 -0.0010000000474974513,-0.9100000262260437 C0.5730000138282776,-0.9100000262260437 1.0399999618530273,-0.503000020980835 1.0399999618530273,-0.0010000000474974513z"></path></g><g opacity="0.98" transform="matrix(1,0,0,1,0,0)"><path fill="rgb(249,208,183)" fill-opacity="1" d=" M22.524999618530273,16.641000747680664 C12.635000228881836,17.393999099731445 9.824000358581543,23.711999893188477 9.824000358581543,23.711999893188477 C9.824000358581543,23.711999893188477 17.82200050354004,27.31800079345703 22.68899917602539,27.60300064086914 C27.555999755859375,27.88800048828125 38.55799865722656,27.652999877929688 37.66600036621094,24.60700035095215 C36.77399826049805,21.56100082397461 32.415000915527344,15.887999534606934 22.524999618530273,16.641000747680664z"></path></g></g></g><g opacity="1" transform="matrix(1,0,0,1,0,0)"><path stroke-linecap="round" stroke-linejoin="bevel" fill-opacity="0" stroke="rgb(101,54,21)" stroke-opacity="1" stroke-width="3.816" d=" M7.210999965667725,25.011999130249023 C7.210999965667725,25.011999130249023 13.440999984741211,26.072999954223633 23.05299949645996,27.601999282836914 C32.665000915527344,29.131000518798828 34.83000183105469,25.642000198364258 34.83000183105469,25.642000198364258"></path></g><g opacity="1" transform="matrix(1,0,0,1,0,0)"><path fill="rgb(244,182,153)" fill-opacity="1" d=" M96.34351348876953,18.886228561401367 C96.34351348876953,18.886228561401367 90.96694946289062,9.799529075622559 69.21839141845703,20.103567123413086 C64.00497436523438,22.592750549316406 78.098388671875,27.99250030517578 84.89839172363281,28.37350082397461 C91.6983871459961,28.754499435424805 99.31138610839844,26.108566284179688 99.31138610839844,26.108566284179688 C99.31138610839844,26.108566284179688 96.34351348876953,18.886228561401367 96.34351348876953,18.886228561401367z"></path></g><g opacity="1" transform="matrix(1,0,0,1,0,0)"><path stroke-linecap="butt" stroke-linejoin="miter" fill-opacity="0" stroke-miterlimit="4" stroke="rgb(101,54,21)" stroke-opacity="1" stroke-width="3.816" d=" M68.81400299072266,27.106000900268555 C68.81400299072266,27.106000900268555 76.15899658203125,30.850000381469727 84.2020034790039,30.65999984741211 C95.57599639892578,30.391000747680664 101.26200103759766,24.770000457763672 101.26200103759766,24.770000457763672"></path></g></g><g style="display: block;" transform="matrix(1.9031568765640259,0.8084506392478943,-0.7726036310195923,1.6908316612243652,104.62884521484375,269.0364685058594)" opacity="1"><g opacity="1" transform="matrix(0.7892498970031738,-0.03441799059510231,0.03441799059510231,0.7892498970031738,6.437639236450195,6.905120849609375)"><g opacity="1" transform="matrix(1,0,0,1,28.332000732421875,58.24599838256836)"><path fill="rgb(215,115,80)" fill-opacity="1" d=" M-13.956999778747559,-5.84499979019165 C-12.565999984741211,-6.748000144958496 -13.246999740600586,-4.540999889373779 -10.875,-3.486999988555908 C-7.611999988555908,-2.0360000133514404 -5.914000034332275,0.1679999977350235 0.20900000631809235,0.4580000042915344 C6.331999778747559,0.7490000128746033 8.98900032043457,-1.9520000219345093 11.51200008392334,-1.9049999713897705 C14.03499984741211,-1.8569999933242798 16.409000396728516,-1.61899995803833 18.551000595092773,-0.7059999704360962 C20.69300079345703,0.20800000429153442 21.347999572753906,1.3240000009536743 19.69300079345703,2.690000057220459 C18.038999557495117,4.053999900817871 10.559000015258789,4.078000068664551 8.567999839782715,4.388999938964844 C6.578000068664551,4.701000213623047 3.552000045776367,6.748000144958496 -0.7649999856948853,6.317999839782715 C-5.080999851226807,5.88700008392334 -9.897000312805176,3.7009999752044678 -9.897000312805176,3.7009999752044678 C-9.897000312805176,3.7009999752044678 -12.708999633789062,3.3589999675750732 -15.086000442504883,2.5859999656677246 C-21.347999572753906,0.5479999780654907 -15.159000396728516,-5.065000057220459 -13.956999778747559,-5.84499979019165z"></path></g><g opacity="1" transform="matrix(1,0,0,1,17.3799991607666,25.452999114990234)"><path stroke-linecap="round" stroke-linejoin="round" fill-opacity="0" stroke="rgb(165,98,51)" stroke-opacity="1" stroke-width="6" d=" M-3.8550000190734863,-14.944000244140625 C-3.8550000190734863,-14.944000244140625 3.8550000190734863,-8.619000434875488 3.1619999408721924,0.7369999885559082 C2.8440001010894775,5.0279998779296875 0.8230000138282776,14.944000244140625 0.8230000138282776,14.944000244140625"></path></g><g opacity="1" transform="matrix(1,0,0,1,29.733999252319336,53.220001220703125)"><path stroke-linecap="round" stroke-linejoin="round" fill-opacity="0" stroke="rgb(165,98,51)" stroke-opacity="1" stroke-width="6" d=" M-11.692999839782715,-12.178999900817871 C-11.692999839782715,-12.178999900817871 -14.020000457763672,-7.364999771118164 -15.668000221252441,-2.8469998836517334 C-16.760000228881836,0.15000000596046448 -17.809999465942383,4.039000034332275 -17.809999465942383,4.039000034332275 C-17.809999465942383,4.039000034332275 -14.901000022888184,7.820000171661377 -11.121999740600586,9.854999542236328 C-8.302000045776367,11.373000144958496 -5.535999774932861,11.670999526977539 -1.784000039100647,11.880000114440918 C3.609999895095825,12.178999900817871 9.083999633789062,11.39900016784668 12.258999824523926,10.008000373840332 C15.904000282287598,8.411999702453613 17.809999465942383,4.9120001792907715 17.809999465942383,4.9120001792907715 C17.809999465942383,4.9120001792907715 16.30900001525879,1.1549999713897705 15.920999526977539,0.11400000005960464 C15.142999649047852,-1.968000054359436 13.505000114440918,-4.678999900817871 13.505000114440918,-4.678999900817871"></path></g><g opacity="1" transform="matrix(1,0,0,1,20.15399932861328,60.97600173950195)"><path fill="rgb(81,37,32)" fill-opacity="1" d=" M3.2039999961853027,1.5369999408721924 C2.742000102996826,2.5 0.9330000281333923,2.5920000076293945 -0.8370000123977661,1.7419999837875366 C-2.6059999465942383,0.8920000195503235 -3.6659998893737793,-0.5759999752044678 -3.203000068664551,-1.5390000343322754 C-2.740999937057495,-2.502000093460083 -0.9319999814033508,-2.5920000076293945 0.8370000123977661,-1.7430000305175781 C2.6059999465942383,-0.8930000066757202 3.6659998893737793,0.574999988079071 3.2039999961853027,1.5369999408721924z"></path></g><g opacity="1" transform="matrix(1,0,0,1,37.729000091552734,61.709999084472656)"><path fill="rgb(81,37,32)" fill-opacity="1" d=" M3.3959999084472656,-0.8339999914169312 C3.6570000648498535,0.2280000001192093 2.3469998836517334,1.4620000123977661 0.47200000286102295,1.9220000505447388 C-1.4040000438690186,2.382999897003174 -3.135999917984009,1.8949999809265137 -3.3959999084472656,0.8339999914169312 C-3.6570000648498535,-0.2280000001192093 -2.3480000495910645,-1.4620000123977661 -0.47200000286102295,-1.9220000505447388 C1.402999997138977,-2.382999897003174 3.134999990463257,-1.8960000276565552 3.3959999084472656,-0.8339999914169312z"></path></g></g></g><g style="display: block;" transform="matrix(1.9031568765640259,0.8084506392478943,-0.7726036310195923,1.6908316612243652,61.981544494628906,239.5045623779297)" opacity="1"><g opacity="1" transform="matrix(1.190000057220459,0,0,1.190000057220459,22.39900016784668,8.805000305175781)"><path fill="rgb(133,88,68)" fill-opacity="1" d=" M-6.204400062561035,3.074399948120117 C-3.7453999519348145,1.6904000043869019 -0.5892000198364258,0.5170000195503235 4.510799884796143,1.9450000524520874 C9.610799789428711,3.372999906539917 21.702800750732422,10.052000045776367 25.788799285888672,10.392999649047852 C27.84480094909668,10.564000129699707 26.302799224853516,7.480999946594238 24.131799697875977,3.996999979019165 C22.43280029296875,1.2690000534057617 14.138799667358398,-5.730000019073486 8.019800186157227,-6.138999938964844 C1.898800015449524,-6.546000003814697 -3.315999984741211,-5.293399810791016 -6.22599983215332,-3.642400026321411 C-10.37399959564209,-1.2884000539779663 -13.98840045928955,5.582200050354004 -11.067399978637695,5.582200050354004 C-9.935400009155273,5.582200050354004 -7.399400234222412,3.7464001178741455 -6.204400062561035,3.074399948120117z"></path></g><g opacity="1" transform="matrix(1.1200000047683716,0,0,1.1200000047683716,87.8759994506836,7.578000068664551)"><path fill="rgb(133,88,68)" fill-opacity="1" d=" M-18.781999588012695,5.980999946594238 C-18.781999588012695,5.980999946594238 -16.344999313354492,7.140999794006348 -10.428999900817871,6.5289998054504395 C-4.513000011444092,5.916999816894531 0.7350000143051147,2.6080000400543213 6.748000144958496,2.6080000400543213 C11.711999893188477,2.6080000400543213 15.935999870300293,4.925000190734863 17.82900047302246,4.383999824523926 C20.506999969482422,3.61899995803833 16.566999435424805,-5.507999897003174 9.222999572753906,-6.324999809265137 C1.8799999952316284,-7.140999794006348 -13.895999908447266,-3.2639999389648438 -16.3439998626709,-1.8359999656677246 C-18.79199981689453,-0.40799999237060547 -20.304000854492188,1.4869999885559082 -20.4060001373291,3.2139999866485596 C-20.506999969482422,4.941999912261963 -18.781999588012695,5.980999946594238 -18.781999588012695,5.980999946594238z"></path></g></g><g style="display: block;" transform="matrix(2.0345897674560547,-0.05700211971998215,0.056112129241228104,1.9728978872299194,10.06116771697998,241.424072265625)" opacity="1"><g opacity="1" transform="matrix(0.9861675500869751,0.1657515913248062,-0.1657515913248062,0.9861675500869751,16.0452880859375,-11.35141372680664)"><g opacity="1" transform="matrix(1.2100000381469727,0,0,1.2100000381469727,-23.982009887695312,-6.449522018432617)"><g opacity="1" transform="matrix(1,0,0,1,114.4020004272461,30.652999877929688)"></g><g opacity="1" transform="matrix(1,0,0,1,114.4020004272461,30.652999877929688)"><path fill="rgb(248,180,148)" fill-opacity="1" d=" M0.6486363410949707,20.479576110839844 C0.6486363410949707,20.479576110839844 7.8595757484436035,5.016909122467041 8.884303092956543,0.9830909371376038 C9.585121154785156,-1.791121244430542 18.573272705078125,-9.580182075500488 19.17527198791504,-11.267181396484375 C19.527273178100586,-12.250182151794434 19.500272750854492,-13.9651517868042 18.35027313232422,-15.200151443481445 C17.52827262878418,-16.08315086364746 16.13127326965332,-16.720182418823242 13.887272834777832,-16.670181274414062 C8.5042724609375,-16.550182342529297 0.07130303233861923,-12.880999565124512 -2.2766969203948975,-8.638999938964844 C-3.570697069168091,-6.301000118255615 -12.875272750854492,5.270514965057373 -12.875272750854492,5.270514965057373 C-12.875272750854492,5.270514965057373 -3.046090841293335,15.160787582397461 -3.046090841293335,15.160787582397461 C-3.046090841293335,15.160787582397461 0.831484854221344,20.071666717529297 0.831484854221344,20.071666717529297 C0.831484854221344,20.071666717529297 0.6486363410949707,20.479576110839844 0.6486363410949707,20.479576110839844z"></path><path stroke-linecap="butt" stroke-linejoin="miter" fill-opacity="0" stroke-miterlimit="10" stroke="rgb(159,86,35)" stroke-opacity="1" stroke-width="6" d=" M0.6486363410949707,20.479576110839844 C0.6486363410949707,20.479576110839844 7.8595757484436035,5.016909122467041 8.884303092956543,0.9830909371376038 C9.585121154785156,-1.791121244430542 18.573272705078125,-9.580182075500488 19.17527198791504,-11.267181396484375 C19.527273178100586,-12.250182151794434 19.500272750854492,-13.9651517868042 18.35027313232422,-15.200151443481445 C17.52827262878418,-16.08315086364746 16.13127326965332,-16.720182418823242 13.887272834777832,-16.670181274414062 C8.5042724609375,-16.550182342529297 0.07130303233861923,-12.880999565124512 -2.2766969203948975,-8.638999938964844 C-3.570697069168091,-6.301000118255615 -12.875272750854492,5.270514965057373 -12.875272750854492,5.270514965057373 C-12.875272750854492,5.270514965057373 -3.046090841293335,15.160787582397461 -3.046090841293335,15.160787582397461 C-3.046090841293335,15.160787582397461 0.831484854221344,20.071666717529297 0.831484854221344,20.071666717529297 C0.831484854221344,20.071666717529297 0.6486363410949707,20.479576110839844 0.6486363410949707,20.479576110839844z"></path></g></g></g><g opacity="1" transform="matrix(1,0,0,1,95.44400024414062,78.91500091552734)"><path fill="rgb(248,177,142)" fill-opacity="1" d=" M0.3304285705089569,-55.70899963378906 C0.3304285705089569,-55.70899963378906 13.585857391357422,-47.672142028808594 16.911428451538086,-42.53956985473633 C19.870141983032227,-38.222286224365234 24.149999618530273,-32.915000915527344 26.007999420166016,-30.437999725341797 C27.865999221801758,-27.959999084472656 39.42599868774414,11.052000045776367 41.696998596191406,16.211999893188477 C43.96699905395508,21.37299919128418 47.474998474121094,27.770999908447266 47.474998474121094,27.770999908447266 C47.474998474121094,27.770999908447266 30.96299934387207,44.698001861572266 19.40399932861328,47.380001068115234 C7.84499979019165,50.06399917602539 -8.472999572753906,41.88600158691406 -21.683000564575195,32.39099884033203 C-34.89400100708008,22.895999908447266 -42.73099899291992,4.714000225067139 -43.349998474121094,2.23799991607666 C-43.96900177001953,-0.23899999260902405 -44.24100112915039,-0.7639999985694885 -44.24100112915039,-0.7639999985694885 C-44.24100112915039,-0.7639999985694885 -40.869998931884766,-13.098999977111816 -40.869998931884766,-13.098999977111816 C-40.869998931884766,-13.098999977111816 -35.915000915527344,-27.54800033569336 -35.915000915527344,-27.54800033569336 C-35.915000915527344,-27.54800033569336 -26.628000259399414,-40.757999420166016 -26.628000259399414,-40.757999420166016 C-26.628000259399414,-40.757999420166016 0.3304285705089569,-55.70899963378906 0.3304285705089569,-55.70899963378906z"></path></g><g opacity="1" transform="matrix(0.9742358326911926,0.2255317121744156,-0.2255317121744156,0.9742358326911926,12.752716064453125,-20.405109405517578)"><g opacity="1" transform="matrix(1,0,0,1,62.44599914550781,26.937999725341797)"><path fill="rgb(255,206,179)" fill-opacity="1" d=" M18.07871437072754,9.426856994628906 C18.07871437072754,9.426856994628906 11.32699966430664,9.180000305175781 11.32699966430664,9.180000305175781 C11.32699966430664,9.180000305175781 2.555000066757202,5.507999897003174 -0.3009999990463257,4.283999919891357 C-3.1570000648498535,3.059999942779541 -7.644000053405762,1.4279999732971191 -11.11299991607666,1.2239999771118164 C-14.579999923706055,1.0199999809265137 -20.90399932861328,0.6119999885559082 -23.964000701904297,0.40799999237060547 C-27.02400016784668,0.20399999618530273 -29.06399917602539,-0.40799999237060547 -30.492000579833984,-3.671999931335449 C-31.920000076293945,-6.935999870300293 -29.676000595092773,-8.772000312805176 -27.84000015258789,-9.588000297546387 C-26.003999710083008,-10.404000282287598 -24.672000885009766,-11.34085750579834 -22.020000457763672,-11.54385757446289 C-19.368000030517578,-11.748857498168945 -15.810856819152832,-13.169142723083496 -13.974857330322266,-13.169142723083496 C-12.139857292175293,-13.169142723083496 -3.080714225769043,-14.024571418762207 -1.0407142639160156,-13.820571899414062 C0.9992856979370117,-13.616571426391602 12.114714622497559,-11.795143127441406 14.970714569091797,-10.367142677307129 C17.82671356201172,-8.939143180847168 27.124143600463867,-2.878857135772705 27.124143600463867,-2.878857135772705 C27.124143600463867,-2.878857135772705 31.785429000854492,-0.2507142722606659 27.858285903930664,4.987428665161133 C24.840286254882812,9.024857521057129 18.07871437072754,9.426856994628906 18.07871437072754,9.426856994628906z"></path></g><g opacity="1" transform="matrix(1,0,0,1,70.73400115966797,27.045000076293945)"><path stroke-linecap="round" stroke-linejoin="round" fill-opacity="0" stroke="rgb(159,86,35)" stroke-opacity="1" stroke-width="8" d=" M40.983882904052734,8.195588111877441 C40.983882904052734,8.195588111877441 24.152469635009766,-3.0461175441741943 24.152469635009766,-3.0461175441741943 C24.152469635009766,-3.0461175441741943 7.210411548614502,-10.028294563293457 7.210411548614502,-10.028294563293457 C6.283411979675293,-10.444293975830078 -0.7992352843284607,-11.939352989196777 -1.8112353086471558,-12.015353202819824 C-5.957235336303711,-12.324353218078613 -15.716940879821777,-13.343117713928223 -19.096940994262695,-13.625117301940918 C-23.254941940307617,-13.971117973327637 -28.943588256835938,-14.532470703125 -30.33058738708496,-14.35947036743164 C-31.715587615966797,-14.185470581054688 -39.542118072509766,-15.22041130065918 -40.97652816772461,-10.960529327392578 C-42.93782424926758,-5.329588413238525 -36,1.9479999542236328 -29.93600082397461,2.2939999103546143 C-23.87299919128418,2.640000104904175 -17.075000762939453,2.1480000019073486 -12.050000190734863,2.494999885559082 C-7.025000095367432,2.8410000801086426 -3.455117702484131,2.2309412956237793 -1.2031176090240479,3.0969412326812744 C1.0488823652267456,3.9639410972595215 9.65005874633789,7.987882137298584 9.65005874633789,7.987882137298584"></path></g></g><g opacity="1" transform="matrix(0.9462695717811584,0.32337895035743713,-0.32337895035743713,0.9462695717811584,14.569217681884766,-29.041507720947266)"><g opacity="1" transform="matrix(1,0,0,1,56.029998779296875,40.375)"><path fill="rgb(255,206,179)" fill-opacity="1" d=" M-15.963000297546387,-6.933000087738037 C-15.963000297546387,-6.933000087738037 -7.778450012207031,-8.716275215148926 -3.91444993019104,-8.983275413513184 C-0.05144999921321869,-9.250274658203125 4.938974857330322,-8.780550003051758 7.736975193023682,-8.91254997253418 C10.533974647521973,-9.046549797058105 18.177949905395508,-5.887400150299072 19.89794921875,-5.5553998947143555 C23.323949813842773,-4.892399787902832 27.044450759887695,-6.098050117492676 27.044450759887695,-6.098050117492676 C27.044450759887695,-6.098050117492676 33.98139953613281,-0.22290000319480896 31.57662582397461,4.206675052642822 C29.318525314331055,8.405099868774414 28.611875534057617,10.182450294494629 23.949874877929688,10.182450294494629 C19.286874771118164,10.182450294494629 1.8155499696731567,6.328525066375732 -1.1154500246047974,6.328525066375732 C-4.046450138092041,6.328525066375732 -11.526000022888184,6.539000034332275 -14.855999946594238,7.072000026702881 C-18.18600082397461,7.605000019073486 -30.15472412109375,8.310850143432617 -32.418724060058594,4.713850021362305 C-34.68372344970703,1.1168500185012817 -32.738826751708984,-2.036750078201294 -32.263824462890625,-2.278749942779541 C-29.352825164794922,-3.7597498893737793 -15.963000297546387,-6.933000087738037 -15.963000297546387,-6.933000087738037z"></path></g><g opacity="1" transform="matrix(1,0,0,1,54.65700149536133,40.334999084472656)"><path stroke-linecap="round" stroke-linejoin="round" fill-opacity="0" stroke="rgb(159,86,35)" stroke-opacity="1" stroke-width="8" d=" M29.19074249267578,-5.381771564483643 C29.19074249267578,-5.381771564483643 18.111827850341797,-9.497714042663574 15.68582820892334,-10.016714096069336 C13.260828971862793,-10.536714553833008 6.009171485900879,-11.96217155456543 4.222743034362793,-11.699714660644531 C2.334571361541748,-11.415114402770996 -2.949885606765747,-10.57845687866211 -2.949885606765747,-10.57845687866211 C-2.949885606765747,-10.57845687866211 -10.534457206726074,-8.691914558410645 -11.802057266235352,-8.557886123657227 C-13.069657325744629,-8.423856735229492 -19.343286514282227,-6.247228622436523 -23.33971405029297,-4.548342704772949 C-25.33639907836914,-3.5184571743011475 -31.50845718383789,-0.05471428483724594 -28.460857391357422,5.8232855796813965 C-25.26445770263672,11.9838285446167 -21.933229446411133,8.985600471496582 -16.287656784057617,8.096056938171387 C-11.010542869567871,7.308257102966309 -2.128999948501587,4.935057163238525 1.0644571781158447,5.581114292144775 C5.177285671234131,6.479599952697754 13.862914085388184,9.66894245147705 16.114913940429688,10.188942909240723 C18.3679141998291,10.708942413330078 23.743629455566406,14.057714462280273 23.743629455566406,14.057714462280273"></path></g></g><g opacity="1" transform="matrix(0.9514275193214417,0.30787280201911926,-0.30787280201911926,0.9514275193214417,21.94833755493164,-18.9197998046875)"><g opacity="1" transform="matrix(1,0,0,1,44.176998138427734,55.45899963378906)"><path fill="rgb(255,206,179)" fill-opacity="1" d=" M20.284957885742188,-7.390234470367432 C20.284957885742188,-7.390234470367432 7.218688488006592,-11.26525592803955 3.088688373565674,-11.398255348205566 C-1.0403116941452026,-11.532255172729492 -10.762173652648926,-8.94071102142334 -13.160173416137695,-8.274711608886719 C-15.558173179626465,-7.608711242675781 -23.456472396850586,-5.529943943023682 -25.4544734954834,-4.463943958282471 C-27.452472686767578,-3.3989439010620117 -27.13640022277832,-2.46169376373291 -25.937400817871094,1.4013062715530396 C-24.738399505615234,5.26430606842041 -17.508827209472656,5.206323146820068 -14.045827865600586,4.806323051452637 C-10.581828117370605,4.407322883605957 -7.5329999923706055,3.8440001010894775 -5.801000118255615,3.8440001010894775 C-4.068999767303467,3.8440001010894775 2.4579999446868896,6.508999824523926 2.4579999446868896,6.508999824523926 C2.4579999446868896,6.508999824523926 10.569317817687988,6.48197078704834 10.569317817687988,6.48197078704834 C10.569317817687988,6.48197078704834 25.44795799255371,10.317997932434082 26.779958724975586,2.7239983081817627 C28.111957550048828,-4.869001865386963 20.284957885742188,-7.390234470367432 20.284957885742188,-7.390234470367432z"></path></g><g opacity="1" transform="matrix(1,0,0,1,46.3849983215332,54.867000579833984)"><path stroke-linecap="round" stroke-linejoin="round" fill-opacity="0" stroke="rgb(159,86,35)" stroke-opacity="1" stroke-width="8" d=" M22.87057113647461,-5.960143089294434 C22.87057113647461,-5.960143089294434 14.888856887817383,-8.296571731567383 12.116857528686523,-8.642571449279785 C9.344857215881348,-8.989571571350098 5.4984283447265625,-10.245857238769531 2.48114275932312,-10.496856689453125 C-0.536142885684967,-10.747857093811035 -2.982428550720215,-9.7227144241333 -4.710999965667725,-9.976571083068848 C-5.887856960296631,-9.988142967224121 -12.607999801635742,-8.720856666564941 -14.644000053405762,-8.309857368469238 C-15.892999649047852,-8.056857109069824 -23.01114273071289,-6.8734283447265625 -25.628143310546875,-6.156428337097168 C-27.57514190673828,-5.6224284172058105 -30.49799919128418,-3.780571460723877 -30.201570510864258,-1.2514286041259766 C-30.183000564575195,-1.0775713920593262 -30.24314308166504,-0.24528571963310242 -30.209142684936523,-0.05728571489453316 C-29.701143264770508,2.8487143516540527 -24.926284790039062,5.896714210510254 -22.654285430908203,6.071714401245117 C-18.150285720825195,6.41871452331543 -8.91785717010498,5.980428695678711 -4.759857177734375,6.327428340911865 C-0.6018571257591248,6.674428462982178 5.59499979019165,7.3832855224609375 7.15500020980835,7.903285503387451 C8.71399974822998,8.422286033630371 14.140000343322754,10.481571197509766 14.140000343322754,10.481571197509766"></path></g></g><g opacity="1" transform="matrix(0.9431402683258057,0.332395076751709,-0.332395076751709,0.9431402683258057,29.87059783935547,-16.836227416992188)"><g opacity="1" transform="matrix(1,0,0,1,39.779998779296875,70.3010025024414)"><path fill="rgb(253,210,187)" fill-opacity="1" d=" M16.048999786376953,-7.933000087738037 C16.048999786376953,-7.933000087738037 13.118000030517578,-6.734000205993652 9.255000114440918,-7.400000095367432 C5.392000198364258,-8.065999984741211 2.3269999027252197,-10.197999954223633 -1.2699999809265137,-10.197999954223633 C-4.867000102996826,-10.197999954223633 -12.059000015258789,-8.333000183105469 -13.390999794006348,-8.333000183105469 C-14.723999977111816,-8.333000183105469 -20.867000579833984,-7.545000076293945 -22.4950008392334,-7.144000053405762 C-23.600000381469727,-6.872000217437744 -25.93000030517578,-2.385999917984009 -23.665000915527344,-0.3880000114440918 C-21.399999618530273,1.6100000143051147 -8.196000099182129,5.521999835968018 -4.999000072479248,5.65500020980835 C-1.8020000457763672,5.788000106811523 0.9959999918937683,6.5879998207092285 2.194999933242798,6.5879998207092285 C3.3940000534057617,6.5879998207092285 6.830999851226807,9.140999794006348 8.289999961853027,9.1850004196167 C12.675000190734863,9.317999839782715 16.680400848388672,9.702872276306152 19.57040023803711,5.367872714996338 C22.459400177001953,1.0328726768493652 19.88834571838379,-3.7255635261535645 18.856346130371094,-4.963563442230225 C17.824344635009766,-6.202563762664795 16.048999786376953,-7.933000087738037 16.048999786376953,-7.933000087738037z"></path></g><g opacity="1" transform="matrix(1,0,0,1,36.28099822998047,73.7249984741211)"><path stroke-linecap="round" stroke-linejoin="round" fill-opacity="0" stroke="rgb(159,86,35)" stroke-opacity="1" stroke-width="8" d=" M19.69499969482422,-9.65328598022461 C19.69499969482422,-9.65328598022461 10.196999549865723,-11.347999572753906 7.5980000495910645,-12.041999816894531 C4.999000072479248,-12.734999656677246 3.0940001010894775,-13.60099983215332 1.0140000581741333,-13.428000450134277 C-1.065000057220459,-13.253999710083008 -16.589143753051758,-11.862713813781738 -19.8204288482666,-10.6317138671875 C-23.632143020629883,-9.1899995803833 -23.0721435546875,-2.312142848968506 -19.563142776489258,0.02685714326798916 C-16.055143356323242,2.3658571243286133 -5.183856964111328,2.310285806655884 -0.5898571610450745,3.4582858085632324 C4.005142688751221,4.606285572052002 5.24399995803833,3.453000068664551 8.710000038146973,5.879000186920166 C12.175000190734863,8.303999900817871 12.795999526977539,8.402999877929688 12.968999862670898,8.92300033569336 C13.142000198364258,9.442999839782715 16.21042823791504,12.455857276916504 16.21042823791504,12.455857276916504"></path></g></g><g opacity="1" transform="matrix(1,0,0,1,77.1449966430664,106.20999908447266)"><path stroke-linecap="round" stroke-linejoin="round" fill-opacity="0" stroke="rgb(159,86,35)" stroke-opacity="1" stroke-width="7" d=" M-26.87174415588379,-25.899883270263672 C-26.87174415588379,-25.899883270263672 -13.480278968811035,-0.612372100353241 -2.3529069423675537,5.98209285736084 C8.73916244506836,12.55911636352539 22.46244239807129,17.565582275390625 22.46244239807129,17.565582275390625"></path></g><g opacity="1" transform="matrix(1,0,0,1,130.1649932861328,73.56600189208984)"><path stroke-linecap="round" stroke-linejoin="round" fill-opacity="0" stroke="rgb(159,86,35)" stroke-opacity="1" stroke-width="8" d=" M-9.934995651245117,-25.860431671142578 C-9.934995651245117,-25.860431671142578 -2.252002239227295,-14.705286026000977 0.49999773502349854,-5.7622857093811035 C3.25099778175354,3.1797142028808594 8.425999641418457,17.368000030517578 8.425999641418457,17.368000030517578 C8.425999641418457,17.368000030517578 11.520999908447266,26.999000549316406 11.520999908447266,26.999000549316406"></path></g><g opacity="1" transform="matrix(1,0,0,1,80.90399932861328,101.6969985961914)"><path fill="rgb(213,129,92)" fill-opacity="1" d=" M-27.884950637817383,-25.57175064086914 C-27.884950637817383,-25.57175064086914 -13.538800239562988,-5.101900100708008 -3.520900011062622,1.5938999652862549 C4.69189977645874,7.0069499015808105 12.549850463867188,11.935649871826172 16.42384910583496,13.387649536132812 C21.356849670410156,15.237649917602539 25.48419952392578,19.292949676513672 23.67020034790039,21.470949172973633 C21.856199264526367,23.648950576782227 12.400650024414062,18.43280029296875 4.99459981918335,14.405599594116211 C-3.0653998851776123,9.861949920654297 -9.033699989318848,4.973800182342529 -15.56404972076416,-3.0102999210357666 C-23.703149795532227,-12.962200164794922 -27.884950637817383,-25.57175064086914 -27.884950637817383,-25.57175064086914z"></path></g></g></g></g></svg>