<svg xmlns="http://www.w3.org/2000/svg" xmlns:xlink="http://www.w3.org/1999/xlink" viewBox="0 0 512 512" width="512" height="512" style="width: 100%; height: 100%; transform: translate3d(0,0,0); content-visibility: visible;" preserveAspectRatio="xMidYMid meet"><defs><clipPath id="__lottie_element_2"><rect width="512" height="512" x="0" y="0"></rect></clipPath><clipPath id="__lottie_element_4"><path d="M0,0 L512,0 L512,512 L0,512z"></path></clipPath><radialGradient id="__lottie_element_15" spreadMethod="pad" gradientUnits="userSpaceOnUse" cx="-43.499000549316406" cy="-66.48200225830078" r="231.81393793302541" fx="-43.499000549316406" fy="-66.48200225830078"><stop offset="0%" stop-color="rgb(252,227,204)"></stop><stop offset="50%" stop-color="rgb(250,210,179)"></stop><stop offset="100%" stop-color="rgb(248,192,154)"></stop></radialGradient></defs><g clip-path="url(#__lottie_element_2)"><g clip-path="url(#__lottie_element_4)" style="display: block;" transform="matrix(1,0,0,1,0,0)" opacity="1"><g style="display: block;" transform="matrix(1.4210418462753296,0.6293585896492004,-0.6870068907737732,1.3666465282440186,27.25726890563965,-187.0888214111328)" opacity="1"><g opacity="1" transform="matrix(1,0,0,1,249.97799682617188,208.27000427246094)"><path fill="rgb(230,154,118)" fill-opacity="1" d=" M-80.08599853515625,-88.19400024414062 C-108.3479995727539,-63.138999938964844 -130.70199584960938,4.5980000495910645 -75.43699645996094,70.06500244140625 C-33.32400131225586,119.94999694824219 40.92300033569336,117.36100006103516 81.39600372314453,87.72699737548828 C113.95099639892578,63.891998291015625 128.66900634765625,23.94700050354004 119.23400115966797,-14.227999687194824 C100.177001953125,-91.33599853515625 38.30799865722656,-114.6780014038086 0.6650000214576721,-115.6780014038086 C-38.97200012207031,-116.73100280761719 -63.643001556396484,-102.77100372314453 -80.08599853515625,-88.19400024414062z"></path><path stroke-linecap="butt" stroke-linejoin="miter" fill-opacity="0" stroke-miterlimit="10" stroke="rgb(182,94,49)" stroke-opacity="1" stroke-width="9" d=" M-80.08599853515625,-88.19400024414062 C-108.3479995727539,-63.138999938964844 -130.70199584960938,4.5980000495910645 -75.43699645996094,70.06500244140625 C-33.32400131225586,119.94999694824219 40.92300033569336,117.36100006103516 81.39600372314453,87.72699737548828 C113.95099639892578,63.891998291015625 128.66900634765625,23.94700050354004 119.23400115966797,-14.227999687194824 C100.177001953125,-91.33599853515625 38.30799865722656,-114.6780014038086 0.6650000214576721,-115.6780014038086 C-38.97200012207031,-116.73100280761719 -63.643001556396484,-102.77100372314453 -80.08599853515625,-88.19400024414062z"></path></g><g opacity="0.91" transform="matrix(1,0,0,1,243.09100341796875,199.1199951171875)"><path fill="url(#__lottie_element_15)" fill-opacity="1" d=" M-70.39900207519531,-77.95600128173828 C-95.79399871826172,-55.81399917602539 -108.06500244140625,3.4730000495910645 -59.00299835205078,58.70500183105469 C-20.527000427246094,101.96600341796875 39.24100112915039,103.37799835205078 78.26799774169922,76.26300048828125 C107.84100341796875,55.66699981689453 120.62799835205078,21.89699935913086 112.21800231933594,-11.762999534606934 C95.23200225830078,-79.75199890136719 35.869998931884766,-101.48899841308594 2.0969998836517334,-102.31600189208984 C-33.465999603271484,-103.18699645996094 -55.624000549316406,-90.83799743652344 -70.39900207519531,-77.95600128173828z"></path></g></g><g style="display: block;" transform="matrix(1.8421554565429688,-0.27392616868019104,0.21397222578525543,1.4819386005401611,-449.41668701171875,277.1825256347656)" opacity="1"><g opacity="1" transform="matrix(1,0,0,1,443.3689880371094,140.10400390625)"><path fill="rgb(248,201,168)" fill-opacity="1" d=" M-12.555999755859375,21.599000930786133 C-12.555999755859375,21.599000930786133 -22.27400016784668,9.861000061035156 -19.68899917602539,0.25699999928474426 C-16.75200080871582,-10.654999732971191 -14.211999893188477,-13.32699966430664 -10.196000099182129,-18.937999725341797 C-3.566999912261963,-28.200000762939453 1.3300000429153442,-35.25699996948242 7.456999778747559,-32.38399887084961 C15.829000473022461,-28.45800018310547 -1.0449999570846558,1.6779999732971191 -1.031000018119812,5.185999870300293 C-1.0169999599456787,8.696000099182129 2.0380001068115234,17.340999603271484 2.0380001068115234,17.340999603271484"></path><path stroke-linecap="butt" stroke-linejoin="miter" fill-opacity="0" stroke-miterlimit="10" stroke="rgb(182,94,49)" stroke-opacity="1" stroke-width="7" d=" M-12.555999755859375,21.599000930786133 C-12.555999755859375,21.599000930786133 -22.27400016784668,9.861000061035156 -19.68899917602539,0.25699999928474426 C-16.75200080871582,-10.654999732971191 -14.211999893188477,-13.32699966430664 -10.196000099182129,-18.937999725341797 C-3.566999912261963,-28.200000762939453 1.3300000429153442,-35.25699996948242 7.456999778747559,-32.38399887084961 C15.829000473022461,-28.45800018310547 -1.0449999570846558,1.6779999732971191 -1.031000018119812,5.185999870300293 C-1.0169999599456787,8.696000099182129 2.0380001068115234,17.340999603271484 2.0380001068115234,17.340999603271484"></path></g><g opacity="1" transform="matrix(1,0,0,1,448.656005859375,147.14500427246094)"><path fill="rgb(248,201,168)" fill-opacity="1" d=" M-24.479999542236328,25.881999969482422 C-29.937000274658203,19.514999389648438 -29.454999923706055,5.235000133514404 -26.941999435424805,-2.2130000591278076 C-22.020999908447266,-16.79800033569336 -18.051000595092773,-4.5320000648498535 -13.430000305175781,-7.624000072479248 C-2.9769999980926514,-14.619000434875488 7.275000095367432,-28.416000366210938 19.18199920654297,-24.365999221801758 C27.908000946044922,-21.398000717163086 26.826000213623047,-4.584000110626221 25.134000778198242,4.47599983215332 C24.37700080871582,8.529999732971191 18.645999908447266,5.830999851226807 12.51200008392334,11.529999732971191 C9.824000358581543,13.746999740600586 8.128000259399414,19.174999237060547 6.75600004196167,25.69499969482422 C5.623000144958496,31.256000518798828 0.7170000076293945,33.26499938964844 -6.879000186920166,33.0989990234375 C-10.675000190734863,33.01599884033203 -22.011999130249023,28.767000198364258 -24.479999542236328,25.881999969482422z"></path><path stroke-linecap="butt" stroke-linejoin="miter" fill-opacity="0" stroke-miterlimit="10" stroke="rgb(182,94,49)" stroke-opacity="1" stroke-width="7" d=" M-24.479999542236328,25.881999969482422 C-29.937000274658203,19.514999389648438 -29.454999923706055,5.235000133514404 -26.941999435424805,-2.2130000591278076 C-22.020999908447266,-16.79800033569336 -18.051000595092773,-4.5320000648498535 -13.430000305175781,-7.624000072479248 C-2.9769999980926514,-14.619000434875488 7.275000095367432,-28.416000366210938 19.18199920654297,-24.365999221801758 C27.908000946044922,-21.398000717163086 26.826000213623047,-4.584000110626221 25.134000778198242,4.47599983215332 C24.37700080871582,8.529999732971191 18.645999908447266,5.830999851226807 12.51200008392334,11.529999732971191 C9.824000358581543,13.746999740600586 8.128000259399414,19.174999237060547 6.75600004196167,25.69499969482422 C5.623000144958496,31.256000518798828 0.7170000076293945,33.26499938964844 -6.879000186920166,33.0989990234375 C-10.675000190734863,33.01599884033203 -22.011999130249023,28.767000198364258 -24.479999542236328,25.881999969482422z"></path></g><g opacity="1" transform="matrix(1,0,0,1,439.48699951171875,145.71499633789062)"><path fill="rgb(248,201,168)" fill-opacity="1" d=" M-13.854999542236328,-1.3680000305175781 C-14.519000053405762,0.718999981880188 -13.218000411987305,4.853000164031982 -10.720000267028809,10.42300033569336 C-8.166999816894531,16.1200008392334 -4.9029998779296875,19.819000244140625 -4.9029998779296875,19.819000244140625 C-4.9029998779296875,19.819000244140625 12.197999954223633,-12.95199966430664 12.197999954223633,-12.95199966430664 C12.197999954223633,-12.95199966430664 15.265000343322754,-22.72100067138672 15.265000343322754,-22.72100067138672 C15.265000343322754,-22.72100067138672 6.986000061035156,-19.871999740600586 6.986000061035156,-19.871999740600586 C6.986000061035156,-19.871999740600586 14.86400032043457,-35.185001373291016 9.73900032043457,-36.492000579833984 C5.230999946594238,-37.64099884033203 -2.6659998893737793,-22.746000289916992 -2.6659998893737793,-22.746000289916992 C-2.6659998893737793,-22.746000289916992 -8.017999649047852,-15.807000160217285 -8.017999649047852,-15.807000160217285 C-8.017999649047852,-15.807000160217285 -12.545999526977539,-5.48799991607666 -13.854999542236328,-1.3680000305175781z"></path></g><g opacity="1" transform="matrix(0.9820443987846375,-0.18864981830120087,0.18864981830120087,0.9820443987846375,466.40216064453125,123.66466522216797)"><path fill="rgb(248,201,168)" fill-opacity="1" d=" M-26.51300048828125,-2.86299991607666 C-26.51300048828125,-2.86299991607666 -18.3439998626709,-5.294000148773193 -8.961000442504883,-10.354999542236328 C3.118000030517578,-16.924999237060547 6.178999900817871,-20.000999450683594 10.90999984741211,-20.461000442504883 C16.344999313354492,-20.98200035095215 19.958999633789062,-14.630000114440918 15.305999755859375,-8.781999588012695 C10.381999969482422,-2.6050000190734863 2.25600004196167,0.7049999833106995 -1.7649999856948853,2.0450000762939453 C-5.7870001792907715,3.384000062942505 -4.866000175476074,4.0879998207092285 -4.866000175476074,4.0879998207092285"></path><path stroke-linecap="round" stroke-linejoin="round" fill-opacity="0" stroke="rgb(182,94,49)" stroke-opacity="1" stroke-width="7" d=" M-26.51300048828125,-2.86299991607666 C-26.51300048828125,-2.86299991607666 -18.3439998626709,-5.294000148773193 -8.961000442504883,-10.354999542236328 C3.118000030517578,-16.924999237060547 6.178999900817871,-20.000999450683594 10.90999984741211,-20.461000442504883 C16.344999313354492,-20.98200035095215 19.958999633789062,-14.630000114440918 15.305999755859375,-8.781999588012695 C10.381999969482422,-2.6050000190734863 2.25600004196167,0.7049999833106995 -1.7649999856948853,2.0450000762939453 C-5.7870001792907715,3.384000062942505 -4.866000175476074,4.0879998207092285 -4.866000175476074,4.0879998207092285"></path></g><g opacity="1" transform="matrix(0.9748818278312683,-0.22272267937660217,0.22272267937660217,0.9748818278312683,482.3882141113281,132.9913330078125)"><path fill="rgb(248,201,168)" fill-opacity="1" d=" M-26.451000213623047,-10.687000274658203 C-26.451000213623047,-10.687000274658203 -6.517000198364258,-13.6850004196167 7.002999782562256,-20.229000091552734 C17.07699966430664,-25.104999542236328 19.92799949645996,-19.288000106811523 20.59600067138672,-15.78499984741211 C21.525999069213867,-10.904000282287598 9.447999954223633,-4.392000198364258 -2.1630001068115234,-0.18199999630451202 C-6.885000228881836,1.5299999713897705 -19.90399932861328,1.687999963760376 -19.90399932861328,1.687999963760376"></path><path stroke-linecap="round" stroke-linejoin="round" fill-opacity="0" stroke="rgb(182,94,49)" stroke-opacity="1" stroke-width="7" d=" M-26.451000213623047,-10.687000274658203 C-26.451000213623047,-10.687000274658203 -6.517000198364258,-13.6850004196167 7.002999782562256,-20.229000091552734 C17.07699966430664,-25.104999542236328 19.92799949645996,-19.288000106811523 20.59600067138672,-15.78499984741211 C21.525999069213867,-10.904000282287598 9.447999954223633,-4.392000198364258 -2.1630001068115234,-0.18199999630451202 C-6.885000228881836,1.5299999713897705 -19.90399932861328,1.687999963760376 -19.90399932861328,1.687999963760376"></path></g><g opacity="1" transform="matrix(1,0,0,1,0,0)"><path fill="rgb(248,201,168)" fill-opacity="1" d=" M462.49700927734375,133.41600036621094 C462.49700927734375,133.41600036621094 459.56500244140625,131.86700439453125 457.5060119628906,135.75100708007812 C455.4469909667969,139.63499450683594 453.6260070800781,144.04200744628906 453.3760070800781,145.302001953125 C453.1260070800781,146.56199645996094 458.2850036621094,150.875 459.8819885253906,150.1280059814453 C461.47900390625,149.38099670410156 465.6289978027344,134.8699951171875 465.6289978027344,134.8699951171875 C465.6289978027344,134.8699951171875 462.49700927734375,133.41600036621094 462.49700927734375,133.41600036621094z"></path></g><g opacity="1" transform="matrix(0.9732430577278137,-0.2297779619693756,0.2297779619693756,0.9732430577278137,477.1016540527344,144.03955078125)"><path fill="rgb(248,201,168)" fill-opacity="1" d=" M-19.468000411987305,10.49899959564209 C-19.468000411987305,10.49899959564209 0.3869999945163727,12.031999588012695 5.324999809265137,9.687000274658203 C22.650999069213867,5.354000091552734 26.12299919128418,-2.305999994277954 25.86400032043457,-5.144999980926514 C25.2549991607666,-11.826000213623047 19.525999069213867,-10.395000457763672 3.690999984741211,-6.420000076293945 C-4.63100004196167,-5.843999862670898 -16.253000259399414,-8.878000259399414 -16.253000259399414,-8.878000259399414"></path><path stroke-linecap="round" stroke-linejoin="round" fill-opacity="0" stroke="rgb(182,94,49)" stroke-opacity="1" stroke-width="7" d=" M-19.468000411987305,10.49899959564209 C-19.468000411987305,10.49899959564209 0.3869999945163727,12.031999588012695 5.324999809265137,9.687000274658203 C22.650999069213867,5.354000091552734 26.12299919128418,-2.305999994277954 25.86400032043457,-5.144999980926514 C25.2549991607666,-11.826000213623047 19.525999069213867,-10.395000457763672 3.690999984741211,-6.420000076293945 C-4.63100004196167,-5.843999862670898 -16.253000259399414,-8.878000259399414 -16.253000259399414,-8.878000259399414"></path></g></g><g style="display: block;" transform="matrix(-1.7816872596740723,0.47444918751716614,0.3738085925579071,1.467902421951294,862.1624145507812,-53.42921447753906)" opacity="1"><g opacity="1" transform="matrix(1,0,0,1,443.3689880371094,140.10400390625)"><path fill="rgb(248,201,168)" fill-opacity="1" d=" M-12.555999755859375,21.599000930786133 C-12.555999755859375,21.599000930786133 -22.27400016784668,9.861000061035156 -19.68899917602539,0.25699999928474426 C-16.75200080871582,-10.654999732971191 -14.211999893188477,-13.32699966430664 -10.196000099182129,-18.937999725341797 C-3.566999912261963,-28.200000762939453 1.3300000429153442,-35.25699996948242 7.456999778747559,-32.38399887084961 C15.829000473022461,-28.45800018310547 -1.0449999570846558,1.6779999732971191 -1.031000018119812,5.185999870300293 C-1.0169999599456787,8.696000099182129 2.0380001068115234,17.340999603271484 2.0380001068115234,17.340999603271484"></path><path stroke-linecap="butt" stroke-linejoin="miter" fill-opacity="0" stroke-miterlimit="10" stroke="rgb(182,94,49)" stroke-opacity="1" stroke-width="7" d=" M-12.555999755859375,21.599000930786133 C-12.555999755859375,21.599000930786133 -22.27400016784668,9.861000061035156 -19.68899917602539,0.25699999928474426 C-16.75200080871582,-10.654999732971191 -14.211999893188477,-13.32699966430664 -10.196000099182129,-18.937999725341797 C-3.566999912261963,-28.200000762939453 1.3300000429153442,-35.25699996948242 7.456999778747559,-32.38399887084961 C15.829000473022461,-28.45800018310547 -1.0449999570846558,1.6779999732971191 -1.031000018119812,5.185999870300293 C-1.0169999599456787,8.696000099182129 2.0380001068115234,17.340999603271484 2.0380001068115234,17.340999603271484"></path></g><g opacity="1" transform="matrix(1,0,0,1,448.656005859375,147.14500427246094)"><path fill="rgb(248,201,168)" fill-opacity="1" d=" M-24.479999542236328,25.881999969482422 C-29.937000274658203,19.514999389648438 -29.454999923706055,5.235000133514404 -26.941999435424805,-2.2130000591278076 C-22.020999908447266,-16.79800033569336 -18.051000595092773,-4.5320000648498535 -13.430000305175781,-7.624000072479248 C-2.9769999980926514,-14.619000434875488 7.275000095367432,-28.416000366210938 19.18199920654297,-24.365999221801758 C27.908000946044922,-21.398000717163086 26.826000213623047,-4.584000110626221 25.134000778198242,4.47599983215332 C24.37700080871582,8.529999732971191 18.645999908447266,5.830999851226807 12.51200008392334,11.529999732971191 C9.824000358581543,13.746999740600586 8.128000259399414,19.174999237060547 6.75600004196167,25.69499969482422 C5.623000144958496,31.256000518798828 0.7170000076293945,33.26499938964844 -6.879000186920166,33.0989990234375 C-10.675000190734863,33.01599884033203 -22.011999130249023,28.767000198364258 -24.479999542236328,25.881999969482422z"></path><path stroke-linecap="butt" stroke-linejoin="miter" fill-opacity="0" stroke-miterlimit="10" stroke="rgb(182,94,49)" stroke-opacity="1" stroke-width="7" d=" M-24.479999542236328,25.881999969482422 C-29.937000274658203,19.514999389648438 -29.454999923706055,5.235000133514404 -26.941999435424805,-2.2130000591278076 C-22.020999908447266,-16.79800033569336 -18.051000595092773,-4.5320000648498535 -13.430000305175781,-7.624000072479248 C-2.9769999980926514,-14.619000434875488 7.275000095367432,-28.416000366210938 19.18199920654297,-24.365999221801758 C27.908000946044922,-21.398000717163086 26.826000213623047,-4.584000110626221 25.134000778198242,4.47599983215332 C24.37700080871582,8.529999732971191 18.645999908447266,5.830999851226807 12.51200008392334,11.529999732971191 C9.824000358581543,13.746999740600586 8.128000259399414,19.174999237060547 6.75600004196167,25.69499969482422 C5.623000144958496,31.256000518798828 0.7170000076293945,33.26499938964844 -6.879000186920166,33.0989990234375 C-10.675000190734863,33.01599884033203 -22.011999130249023,28.767000198364258 -24.479999542236328,25.881999969482422z"></path></g><g opacity="1" transform="matrix(1,0,0,1,439.48699951171875,145.71499633789062)"><path fill="rgb(248,201,168)" fill-opacity="1" d=" M-13.854999542236328,-1.3680000305175781 C-14.519000053405762,0.718999981880188 -13.218000411987305,4.853000164031982 -10.720000267028809,10.42300033569336 C-8.166999816894531,16.1200008392334 -4.9029998779296875,19.819000244140625 -4.9029998779296875,19.819000244140625 C-4.9029998779296875,19.819000244140625 12.197999954223633,-12.95199966430664 12.197999954223633,-12.95199966430664 C12.197999954223633,-12.95199966430664 15.265000343322754,-22.72100067138672 15.265000343322754,-22.72100067138672 C15.265000343322754,-22.72100067138672 6.986000061035156,-19.871999740600586 6.986000061035156,-19.871999740600586 C6.986000061035156,-19.871999740600586 14.86400032043457,-35.185001373291016 9.73900032043457,-36.492000579833984 C5.230999946594238,-37.64099884033203 -2.6659998893737793,-22.746000289916992 -2.6659998893737793,-22.746000289916992 C-2.6659998893737793,-22.746000289916992 -8.017999649047852,-15.807000160217285 -8.017999649047852,-15.807000160217285 C-8.017999649047852,-15.807000160217285 -12.545999526977539,-5.48799991607666 -13.854999542236328,-1.3680000305175781z"></path></g><g opacity="1" transform="matrix(0.9820443987846375,-0.18864981830120087,0.18864981830120087,0.9820443987846375,466.40216064453125,123.66466522216797)"><path fill="rgb(248,201,168)" fill-opacity="1" d=" M-26.51300048828125,-2.86299991607666 C-26.51300048828125,-2.86299991607666 -18.3439998626709,-5.294000148773193 -8.961000442504883,-10.354999542236328 C3.118000030517578,-16.924999237060547 6.178999900817871,-20.000999450683594 10.90999984741211,-20.461000442504883 C16.344999313354492,-20.98200035095215 19.958999633789062,-14.630000114440918 15.305999755859375,-8.781999588012695 C10.381999969482422,-2.6050000190734863 2.25600004196167,0.7049999833106995 -1.7649999856948853,2.0450000762939453 C-5.7870001792907715,3.384000062942505 -4.866000175476074,4.0879998207092285 -4.866000175476074,4.0879998207092285"></path><path stroke-linecap="round" stroke-linejoin="round" fill-opacity="0" stroke="rgb(182,94,49)" stroke-opacity="1" stroke-width="7" d=" M-26.51300048828125,-2.86299991607666 C-26.51300048828125,-2.86299991607666 -18.3439998626709,-5.294000148773193 -8.961000442504883,-10.354999542236328 C3.118000030517578,-16.924999237060547 6.178999900817871,-20.000999450683594 10.90999984741211,-20.461000442504883 C16.344999313354492,-20.98200035095215 19.958999633789062,-14.630000114440918 15.305999755859375,-8.781999588012695 C10.381999969482422,-2.6050000190734863 2.25600004196167,0.7049999833106995 -1.7649999856948853,2.0450000762939453 C-5.7870001792907715,3.384000062942505 -4.866000175476074,4.0879998207092285 -4.866000175476074,4.0879998207092285"></path></g><g opacity="1" transform="matrix(0.9748818278312683,-0.22272267937660217,0.22272267937660217,0.9748818278312683,482.3882141113281,132.9913330078125)"><path fill="rgb(248,201,168)" fill-opacity="1" d=" M-26.451000213623047,-10.687000274658203 C-26.451000213623047,-10.687000274658203 -6.517000198364258,-13.6850004196167 7.002999782562256,-20.229000091552734 C17.07699966430664,-25.104999542236328 19.92799949645996,-19.288000106811523 20.59600067138672,-15.78499984741211 C21.525999069213867,-10.904000282287598 9.447999954223633,-4.392000198364258 -2.1630001068115234,-0.18199999630451202 C-6.885000228881836,1.5299999713897705 -19.90399932861328,1.687999963760376 -19.90399932861328,1.687999963760376"></path><path stroke-linecap="round" stroke-linejoin="round" fill-opacity="0" stroke="rgb(182,94,49)" stroke-opacity="1" stroke-width="7" d=" M-26.451000213623047,-10.687000274658203 C-26.451000213623047,-10.687000274658203 -6.517000198364258,-13.6850004196167 7.002999782562256,-20.229000091552734 C17.07699966430664,-25.104999542236328 19.92799949645996,-19.288000106811523 20.59600067138672,-15.78499984741211 C21.525999069213867,-10.904000282287598 9.447999954223633,-4.392000198364258 -2.1630001068115234,-0.18199999630451202 C-6.885000228881836,1.5299999713897705 -19.90399932861328,1.687999963760376 -19.90399932861328,1.687999963760376"></path></g><g opacity="1" transform="matrix(1,0,0,1,0,0)"><path fill="rgb(248,201,168)" fill-opacity="1" d=" M462.49700927734375,133.41600036621094 C462.49700927734375,133.41600036621094 459.56500244140625,131.86700439453125 457.5060119628906,135.75100708007812 C455.4469909667969,139.63499450683594 453.6260070800781,144.04200744628906 453.3760070800781,145.302001953125 C453.1260070800781,146.56199645996094 458.2850036621094,150.875 459.8819885253906,150.1280059814453 C461.47900390625,149.38099670410156 465.6289978027344,134.8699951171875 465.6289978027344,134.8699951171875 C465.6289978027344,134.8699951171875 462.49700927734375,133.41600036621094 462.49700927734375,133.41600036621094z"></path></g><g opacity="1" transform="matrix(0.9732430577278137,-0.2297779619693756,0.2297779619693756,0.9732430577278137,477.1016540527344,144.03955078125)"><path fill="rgb(248,201,168)" fill-opacity="1" d=" M-19.468000411987305,10.49899959564209 C-19.468000411987305,10.49899959564209 0.3869999945163727,12.031999588012695 5.324999809265137,9.687000274658203 C22.650999069213867,5.354000091552734 26.12299919128418,-2.305999994277954 25.86400032043457,-5.144999980926514 C25.2549991607666,-11.826000213623047 19.525999069213867,-10.395000457763672 3.690999984741211,-6.420000076293945 C-4.63100004196167,-5.843999862670898 -16.253000259399414,-8.878000259399414 -16.253000259399414,-8.878000259399414"></path><path stroke-linecap="round" stroke-linejoin="round" fill-opacity="0" stroke="rgb(182,94,49)" stroke-opacity="1" stroke-width="7" d=" M-19.468000411987305,10.49899959564209 C-19.468000411987305,10.49899959564209 0.3869999945163727,12.031999588012695 5.324999809265137,9.687000274658203 C22.650999069213867,5.354000091552734 26.12299919128418,-2.305999994277954 25.86400032043457,-5.144999980926514 C25.2549991607666,-11.826000213623047 19.525999069213867,-10.395000457763672 3.690999984741211,-6.420000076293945 C-4.63100004196167,-5.843999862670898 -16.253000259399414,-8.878000259399414 -16.253000259399414,-8.878000259399414"></path></g><g opacity="1" transform="matrix(1,0,0,1,0,0)"><path fill="rgb(231,154,119)" fill-opacity="1" d=" M497.72198486328125,135.42100524902344 C497.72198486328125,135.42100524902344 491.2909851074219,139.54400634765625 487.8789978027344,142.00900268554688 C484.4670104980469,144.4739990234375 471.92401123046875,150.2310028076172 462.5870056152344,151.2050018310547 C452.2749938964844,152.281005859375 443.79998779296875,176.6929931640625 443.79998779296875,176.6929931640625 C443.79998779296875,176.6929931640625 448.6080017089844,178.2050018310547 451.2879943847656,173.5919952392578 C453.9679870605469,168.97900390625 454.9219970703125,160.1540069580078 458.5299987792969,157.28500366210938 C462.13800048828125,154.41600036621094 474.7550048828125,153.697998046875 484.2860107421875,148.96099853515625 C498.0090026855469,142.14100646972656 497.72198486328125,135.42100524902344 497.72198486328125,135.42100524902344z"></path></g></g><g style="display: block;" transform="matrix(1.852674126625061,-0.3118938207626343,0.2535594403743744,1.4505763053894043,-460.83587646484375,298.2337341308594)" opacity="1"><g opacity="1" transform="matrix(1,0,0,1,0,0)"><path fill="rgb(231,154,119)" fill-opacity="1" d=" M497.72198486328125,135.42100524902344 C497.72198486328125,135.42100524902344 491.2909851074219,139.54400634765625 487.8789978027344,142.00900268554688 C484.4670104980469,144.4739990234375 471.92401123046875,150.2310028076172 462.5870056152344,151.2050018310547 C452.2749938964844,152.281005859375 443.6059875488281,178.02699279785156 443.6059875488281,178.02699279785156 C443.6059875488281,178.02699279785156 448.41400146484375,179.53799438476562 451.093994140625,174.9250030517578 C453.77398681640625,170.31199645996094 454.9219970703125,160.1540069580078 458.5299987792969,157.28500366210938 C462.13800048828125,154.41600036621094 474.5260009765625,155.3719940185547 484.0570068359375,150.63499450683594 C497.7799987792969,143.81500244140625 497.72198486328125,135.42100524902344 497.72198486328125,135.42100524902344z"></path></g></g><g style="display: block;" transform="matrix(1.5063042640686035,0.667120099067688,-0.7282272577285767,1.4486452341079712,27.11811637878418,-218.59861755371094)" opacity="1"><g opacity="1" transform="matrix(1,0,0,1,264.6409912109375,234.35299682617188)"><path stroke-linecap="round" stroke-linejoin="round" fill-opacity="0" stroke="rgb(182,94,49)" stroke-opacity="0.42" stroke-width="7.921" d=" M-6.941999912261963,16.04199981689453 C-6.941999912261963,16.04199981689453 -0.6230000257492065,14.263999938964844 8.187000274658203,9.864999771118164 C14.265000343322754,6.829999923706055 17.475000381469727,3.4860000610351562 17.475000381469727,3.4860000610351562"></path></g><g opacity="1" transform="matrix(1,0,0,1,280.89300537109375,211.13999938964844)"><path stroke-linecap="round" stroke-linejoin="round" fill-opacity="0" stroke="rgb(134,71,105)" stroke-opacity="1" stroke-width="7" d=" M-0.09799999743700027,-1.4190000295639038 C-0.09799999743700027,-1.4190000295639038 0.8970000147819519,-0.08500000089406967 -0.6000000238418579,-2.1679999828338623 C-2.0969998836517334,-4.25 -0.8069999814033508,-1.315000057220459 -0.8069999814033508,-1.315000057220459"></path></g><g opacity="1" transform="matrix(1,0,0,1,230.6009979248047,238.85899353027344)"><path stroke-linecap="round" stroke-linejoin="round" fill-opacity="0" stroke="rgb(134,71,105)" stroke-opacity="1" stroke-width="7" d=" M-1.4479999542236328,-1.2649999856948853 C-0.42100000381469727,0.13099999725818634 -1.496999979019165,-1.5490000247955322 -0.2669999897480011,0.5809999704360962 C1.5210000276565552,3.677999973297119 -0.8289999961853027,-1.0770000219345093 -0.8289999961853027,-1.0770000219345093"></path></g><g opacity="1" transform="matrix(1,0,0,1,253.39700317382812,223.01300048828125)"><path fill="rgb(182,94,49)" fill-opacity="0.48" d=" M-26.08799934387207,12.527000427246094 C-26.08799934387207,12.527000427246094 -21.60300064086914,-3.63700008392334 -8.17300033569336,-11.026000022888184 C4.179999828338623,-17.823999404907227 23.9689998626709,-16.07699966430664 23.9689998626709,-16.07699966430664 C23.9689998626709,-16.07699966430664 26.08799934387207,-10.515000343322754 26.08799934387207,-10.515000343322754 C26.08799934387207,-10.515000343322754 0.9269999861717224,-9.984999656677246 -6.223999977111816,-2.8340001106262207 C-13.375,4.316999912261963 -22.3799991607666,17.823999404907227 -22.3799991607666,17.823999404907227 C-22.3799991607666,17.823999404907227 -26.08799934387207,12.527000427246094 -26.08799934387207,12.527000427246094z"></path></g><g opacity="1" transform="matrix(1,0,0,1,0,0)"><path fill="rgb(81,29,42)" fill-opacity="1" d=" M279.0820007324219,213.08799743652344 C275.1059875488281,211.06900024414062 263.3370056152344,215.47300720214844 251.8699951171875,221.98500061035156 C238.98899841308594,229.2989959716797 236.6959991455078,233.63900756835938 233.2740020751953,237.11700439453125 C229.61700439453125,240.83399963378906 236.29600524902344,239.93800354003906 236.29600524902344,239.93800354003906 C236.29600524902344,239.93800354003906 247.9669952392578,239.67799377441406 259.4119873046875,233.4199981689453 C270.85699462890625,227.16200256347656 283.0580139160156,215.10699462890625 279.0820007324219,213.08799743652344z"></path><path stroke-linecap="butt" stroke-linejoin="miter" fill-opacity="0" stroke-miterlimit="4" stroke="rgb(81,29,42)" stroke-opacity="1" stroke-width="7" d=" M279.0820007324219,213.08799743652344 C275.1059875488281,211.06900024414062 263.3370056152344,215.47300720214844 251.8699951171875,221.98500061035156 C238.98899841308594,229.2989959716797 236.6959991455078,233.63900756835938 233.2740020751953,237.11700439453125 C229.61700439453125,240.83399963378906 236.29600524902344,239.93800354003906 236.29600524902344,239.93800354003906 C236.29600524902344,239.93800354003906 247.9669952392578,239.67799377441406 259.4119873046875,233.4199981689453 C270.85699462890625,227.16200256347656 283.0580139160156,215.10699462890625 279.0820007324219,213.08799743652344z"></path></g><g opacity="1" transform="matrix(1,0,0,1,255.39100646972656,224.58799743652344)"><path stroke-linecap="round" stroke-linejoin="round" fill-opacity="0" stroke="rgb(106,33,71)" stroke-opacity="1" stroke-width="7" d=" M-23.86199951171875,13.20199966430664 C-23.86199951171875,13.20199966430664 -18.56599998474121,2.9070000648498535 1.9279999732971191,-7.019999980926514 C13.984999656677246,-12.859999656677246 25.066999435424805,-14.574000358581543 25.066999435424805,-14.574000358581543"></path></g></g><g style="display: block;" transform="matrix(1.5063042640686035,0.667120099067688,-0.7282272577285767,1.4486452341079712,27.11811637878418,-218.59861755371094)" opacity="1"><g opacity="1" transform="matrix(1,0,0,1,293.218994140625,156.30299377441406)"><path fill="rgb(182,94,49)" fill-opacity="0.5" d=" M-25.673999786376953,8.199999809265137 C-23.69099998474121,15.121999740600586 -16.32900047302246,22.841999053955078 -1.253000020980835,21.391000747680664 C17.582000732421875,19.57900047302246 27.829999923706055,-2.7799999713897705 14.484000205993652,-15.586999893188477 C6.922999858856201,-22.843000411987305 -2.940000057220459,-22.768999099731445 -9.746000289916992,-20.7810001373291 C-14.265999794006348,-19.461000442504883 -19.066999435424805,-17.020999908447266 -22.804000854492188,-11.970999717712402 C-27.11199951171875,-6.14900016784668 -27.829999923706055,0.6759999990463257 -25.673999786376953,8.199999809265137z"></path></g><g opacity="1" transform="matrix(1,0,0,1,291.2229919433594,173.4320068359375)"><path stroke-linecap="round" stroke-linejoin="round" fill-opacity="0" stroke="rgb(220,157,119)" stroke-opacity="1" stroke-width="8.364" d=" M-22.408000946044922,-5.88700008392334 C-22.408000946044922,-5.88700008392334 -10.635000228881836,2.8480000495910645 3.0380001068115234,4.368000030517578 C16.711000442504883,5.88700008392334 22.408000946044922,5.126999855041504 22.408000946044922,5.126999855041504"></path></g><g opacity="1" transform="matrix(1,0,0,1,289.4859924316406,150.4239959716797)"><path fill="rgb(255,255,255)" fill-opacity="1" d=" M-25.673999786376953,8.199999809265137 C-23.69099998474121,15.121999740600586 -16.327999114990234,22.843000411987305 -1.2519999742507935,21.39299964904785 C17.58300018310547,19.58099937438965 27.83099937438965,-2.7790000438690186 14.484999656677246,-15.586999893188477 C6.923999786376953,-22.843000411987305 -2.938999891281128,-22.768999099731445 -9.744999885559082,-20.7810001373291 C-14.265000343322754,-19.461000442504883 -19.06599998474121,-17.020999908447266 -22.80299949645996,-11.970999717712402 C-27.111000061035156,-6.14900016784668 -27.829999923706055,0.6759999990463257 -25.673999786376953,8.199999809265137z"></path><path stroke-linecap="butt" stroke-linejoin="miter" fill-opacity="0" stroke-miterlimit="10" stroke="rgb(91,58,92)" stroke-opacity="1" stroke-width="5.5" d=" M-25.673999786376953,8.199999809265137 C-23.69099998474121,15.121999740600586 -16.327999114990234,22.843000411987305 -1.2519999742507935,21.39299964904785 C17.58300018310547,19.58099937438965 27.83099937438965,-2.7790000438690186 14.484999656677246,-15.586999893188477 C6.923999786376953,-22.843000411987305 -2.938999891281128,-22.768999099731445 -9.744999885559082,-20.7810001373291 C-14.265000343322754,-19.461000442504883 -19.06599998474121,-17.020999908447266 -22.80299949645996,-11.970999717712402 C-27.111000061035156,-6.14900016784668 -27.829999923706055,0.6759999990463257 -25.673999786376953,8.199999809265137z"></path></g><g opacity="1" transform="matrix(1.190000057220459,0,0,1.190000057220459,-56.464599609375,-26.319305419921875)"><g opacity="1" transform="matrix(1,0,0,1,294.65301513671875,145.09100341796875)"><path fill="rgb(37,28,10)" fill-opacity="1" d=" M9.121999740600586,-0.8669999837875366 C9.60099983215332,4.171000003814697 5.9039998054504395,8.642999649047852 0.8659999966621399,9.121999740600586 C-4.171999931335449,9.600000381469727 -8.644000053405762,5.9039998054504395 -9.121999740600586,0.8659999966621399 C-9.60099983215332,-4.171999931335449 -5.90500020980835,-8.642999649047852 -0.8669999837875366,-9.121999740600586 C4.171000003814697,-9.600000381469727 8.642999649047852,-5.90500020980835 9.121999740600586,-0.8669999837875366z"></path></g><g opacity="1" transform="matrix(1,0,0,1,300.4530029296875,140.22300720214844)"><path fill="rgb(255,255,255)" fill-opacity="1" d=" M2.2679998874664307,-0.2160000056028366 C2.38700008392334,1.0360000133514404 1.468000054359436,2.1489999294281006 0.2150000035762787,2.2679998874664307 C-1.0379999876022339,2.38700008392334 -2.1500000953674316,1.468999981880188 -2.2690000534057617,0.2160000056028366 C-2.388000011444092,-1.0369999408721924 -1.468999981880188,-2.1489999294281006 -0.2160000056028366,-2.2679998874664307 C1.0369999408721924,-2.38700008392334 2.1489999294281006,-1.468999981880188 2.2679998874664307,-0.2160000056028366z"></path></g><g opacity="1" transform="matrix(1,0,0,1,296.3280029296875,148.10000610351562)"><path fill="rgb(98,49,69)" fill-opacity="1" d=" M-6.735000133514404,-0.47200000286102295 C-6.735000133514404,-0.47200000286102295 3.943000078201294,-5.589000225067139 5.339000225067139,-3.696000099182129 C6.736000061035156,-1.8029999732971191 5.6539998054504395,2.8919999599456787 0.9649999737739563,4.239999771118164 C-3.7249999046325684,5.589000225067139 -6.672999858856201,1.593000054359436 -6.672999858856201,1.593000054359436 C-6.672999858856201,1.593000054359436 -6.735000133514404,-0.47200000286102295 -6.735000133514404,-0.47200000286102295z"></path></g><g opacity="1" transform="matrix(1,0,0,1,286.18798828125,148.50100708007812)"><path fill="rgb(255,255,255)" fill-opacity="1" d=" M4.0229997634887695,-0.38199999928474426 C4.234000205993652,1.840000033378601 2.6040000915527344,3.812000036239624 0.38199999928474426,4.0229997634887695 C-1.8389999866485596,4.234000205993652 -3.811000108718872,2.6040000915527344 -4.021999835968018,0.38199999928474426 C-4.234000205993652,-1.840000033378601 -2.6029999256134033,-3.812000036239624 -0.38199999928474426,-4.0229997634887695 C1.840000033378601,-4.234000205993652 3.812000036239624,-2.6040000915527344 4.0229997634887695,-0.38199999928474426z"></path></g></g><g opacity="1" transform="matrix(1,0,0,1,289.4859924316406,150.4239959716797)"><path stroke-linecap="butt" stroke-linejoin="miter" fill-opacity="0" stroke-miterlimit="10" stroke="rgb(92,59,93)" stroke-opacity="1" stroke-width="7" d=" M-25.673999786376953,8.199999809265137 C-23.69099998474121,15.121999740600586 -16.327999114990234,22.843000411987305 -1.2519999742507935,21.39299964904785 C17.58300018310547,19.58099937438965 27.83099937438965,-2.7790000438690186 14.484999656677246,-15.586999893188477 C6.923999786376953,-22.843000411987305 -2.938999891281128,-22.768999099731445 -9.744999885559082,-20.7810001373291 C-14.265000343322754,-19.461000442504883 -19.06599998474121,-17.020999908447266 -22.80299949645996,-11.970999717712402 C-27.111000061035156,-6.14900016784668 -27.829999923706055,0.6759999990463257 -25.673999786376953,8.199999809265137z"></path></g></g><g style="display: block;" transform="matrix(1.5063042640686035,0.667120099067688,-0.7282272577285767,1.4486452341079712,27.11811637878418,-218.59861755371094)" opacity="1"><g opacity="1" transform="matrix(1,0,0,1,188.04800415039062,199.72900390625)"><path fill="rgb(182,94,49)" fill-opacity="0.5700000000000001" d=" M-25.1200008392334,12.555999755859375 C-21.85700035095215,19.05699920654297 -12.819000244140625,25.235000610351562 2.7339999675750732,20.64699935913086 C22.166000366210938,14.914999961853027 29.08099937438965,-9.548999786376953 12.901000022888184,-19.56100082397461 C3.7339999675750732,-25.233999252319336 -6.590000152587891,-23.106000900268555 -13.383000373840332,-19.70400047302246 C-17.895000457763672,-17.444000244140625 -22.510000228881836,-14.006999969482422 -25.562000274658203,-8.185999870300293 C-29.08099937438965,-1.4739999771118164 -28.66699981689453,5.491000175476074 -25.1200008392334,12.555999755859375z"></path></g><g opacity="1" transform="matrix(1,0,0,1,199.8719940185547,207.80799865722656)"><path stroke-linecap="round" stroke-linejoin="round" fill-opacity="0" stroke="rgb(220,157,119)" stroke-opacity="1" stroke-width="8.805" d=" M-8.168999671936035,22.91200065612793 C-8.168999671936035,22.91200065612793 2.187000036239624,11.472000122070312 5.177999973297119,-2.697000026702881 C8.168000221252441,-16.864999771118164 7.955999851226807,-22.91200065612793 7.955999851226807,-22.91200065612793"></path></g><g opacity="1" transform="matrix(1,0,0,1,186.1699981689453,193.90499877929688)"><path fill="rgb(255,255,255)" fill-opacity="1" d=" M22.691999435424805,-11.281999588012695 C25.128999710083008,-3.9649999141693115 22.29400062561035,8.258000373840332 10.765000343322754,15.980999946594238 C-3.4570000171661377,25.507999420166016 -22.892000198364258,21.424999237060547 -24.038999557495117,3.6429998874664307 C-25.128999710083008,-13.248000144958496 -9.055999755859375,-25.507999420166016 6.208000183105469,-23.8439998626709 C14.663000106811523,-22.92300033569336 20.090999603271484,-19.091999053955078 22.691999435424805,-11.281999588012695z"></path><path stroke-linecap="butt" stroke-linejoin="miter" fill-opacity="0" stroke-miterlimit="10" stroke="rgb(125,95,126)" stroke-opacity="1" stroke-width="5.5" d=" M22.691999435424805,-11.281999588012695 C25.128999710083008,-3.9649999141693115 22.29400062561035,8.258000373840332 10.765000343322754,15.980999946594238 C-3.4570000171661377,25.507999420166016 -22.892000198364258,21.424999237060547 -24.038999557495117,3.6429998874664307 C-25.128999710083008,-13.248000144958496 -9.055999755859375,-25.507999420166016 6.208000183105469,-23.8439998626709 C14.663000106811523,-22.92300033569336 20.090999603271484,-19.091999053955078 22.691999435424805,-11.281999588012695z"></path></g><g opacity="1" transform="matrix(1.149999976158142,0,0,1.149999976158142,-25.897705078125,-31.637802124023438)"><g opacity="1" transform="matrix(1,0,0,1,179.21299743652344,199.072998046875)"><path fill="rgb(37,28,10)" fill-opacity="1" d=" M10.229999542236328,-0.972000002861023 C10.767000198364258,4.677999973297119 6.620999813079834,9.694000244140625 0.9710000157356262,10.229999542236328 C-4.678999900817871,10.767000198364258 -9.694000244140625,6.620999813079834 -10.230999946594238,0.9710000157356262 C-10.767999649047852,-4.678999900817871 -6.622000217437744,-9.694000244140625 -0.972000002861023,-10.230999946594238 C4.677999973297119,-10.767000198364258 9.692999839782715,-6.622000217437744 10.229999542236328,-0.972000002861023z"></path></g><g opacity="1" transform="matrix(1,0,0,1,170.25100708007812,199.36099243164062)"><path fill="rgb(255,255,255)" fill-opacity="1" d=" M2.4749999046325684,-0.23499999940395355 C2.6040000915527344,1.13100004196167 1.6009999513626099,2.3440001010894775 0.23499999940395355,2.4739999771118164 C-1.13100004196167,2.6040000915527344 -2.3440001010894775,1.6009999513626099 -2.4739999771118164,0.23499999940395355 C-2.6040000915527344,-1.13100004196167 -1.6009999513626099,-2.3440001010894775 -0.23499999940395355,-2.4739999771118164 C1.13100004196167,-2.6040000915527344 2.3450000286102295,-1.6009999513626099 2.4749999046325684,-0.23499999940395355z"></path></g><g opacity="1" transform="matrix(1,0,0,1,180.5449981689453,203.31100463867188)"><path fill="rgb(98,49,69)" fill-opacity="1" d=" M-6.625999927520752,0.5600000023841858 C-6.625999927520752,0.5600000023841858 3.2660000324249268,-6.158999919891357 4.946000099182129,-4.480000019073486 C6.625999927520752,-2.799999952316284 6.251999855041504,2.052999973297119 1.7730000019073486,4.105999946594238 C-2.7070000171661377,6.158999919891357 -6.252999782562256,2.61299991607666 -6.252999782562256,2.61299991607666 C-6.252999782562256,2.61299991607666 -6.625999927520752,0.5600000023841858 -6.625999927520752,0.5600000023841858z"></path></g><g opacity="1" transform="matrix(1,0,0,1,188.26199340820312,197.55299377441406)"><path fill="rgb(255,255,255)" fill-opacity="1" d=" M4.38700008392334,-0.4169999957084656 C4.617000102996826,2.00600004196167 2.8399999141693115,4.1570000648498535 0.4169999957084656,4.38700008392334 C-2.006999969482422,4.617000102996826 -4.1570000648498535,2.8389999866485596 -4.38700008392334,0.41600000858306885 C-4.617000102996826,-2.00600004196167 -2.8399999141693115,-4.1570000648498535 -0.4169999957084656,-4.38700008392334 C2.00600004196167,-4.618000030517578 4.1570000648498535,-2.8399999141693115 4.38700008392334,-0.4169999957084656z"></path></g></g><g opacity="1" transform="matrix(1,0,0,1,186.1699981689453,193.90499877929688)"><path stroke-linecap="butt" stroke-linejoin="miter" fill-opacity="0" stroke-miterlimit="10" stroke="rgb(92,59,93)" stroke-opacity="1" stroke-width="7" d=" M22.691999435424805,-11.281999588012695 C25.128999710083008,-3.9649999141693115 22.29400062561035,8.258000373840332 10.765000343322754,15.980999946594238 C-3.4570000171661377,25.507999420166016 -22.892000198364258,21.424999237060547 -24.038999557495117,3.6429998874664307 C-25.128999710083008,-13.248000144958496 -9.055999755859375,-25.507999420166016 6.208000183105469,-23.8439998626709 C14.663000106811523,-22.92300033569336 20.090999603271484,-19.091999053955078 22.691999435424805,-11.281999588012695z"></path></g></g><g style="display: block;" transform="matrix(1.5063042640686035,0.667120099067688,-0.7282272577285767,1.4486452341079712,27.11811637878418,-218.59861755371094)" opacity="1"><g opacity="1" transform="matrix(1,0,0,1,178.2790069580078,159.16200256347656)"><path fill="rgb(182,94,49)" fill-opacity="0.5" d=" M-15.729000091552734,4.041999816894531 C-13.687000274658203,-1.0640000104904175 -6.422999858856201,-8.993000030517578 2.5789999961853027,-8.857000350952148 C12.975000381469727,-8.699999809265137 18.68400001525879,-4.310999870300293 17.388999938964844,0.5659999847412109 C16.801000595092773,2.7799999713897705 13.473999977111816,0.7850000262260437 6.230000019073486,-0.7379999756813049 C-0.5130000114440918,-2.1559998989105225 -5.9710001945495605,1.2580000162124634 -9.592000007629395,4 C-12.102999687194824,5.901000022888184 -14.503000259399414,8.993000030517578 -16.0310001373291,8.897000312805176 C-18.68400001525879,8.732000350952148 -16.225000381469727,5.2829999923706055 -15.729000091552734,4.041999816894531z"></path></g><g opacity="1" transform="matrix(1,0,0,1,176.60899353027344,153.25399780273438)"><path fill="rgb(63,25,7)" fill-opacity="1" d=" M-15.729000091552734,4.041999816894531 C-13.687000274658203,-1.0640000104904175 -6.422999858856201,-8.993000030517578 2.5789999961853027,-8.857000350952148 C12.975000381469727,-8.699999809265137 18.683000564575195,-4.310999870300293 17.388999938964844,0.5659999847412109 C16.801000595092773,2.7799999713897705 13.473999977111816,0.7850000262260437 6.230000019073486,-0.7379999756813049 C-0.5130000114440918,-2.1559998989105225 -5.9710001945495605,1.2580000162124634 -9.592000007629395,4 C-12.102999687194824,5.901000022888184 -14.503000259399414,8.991999626159668 -16.0310001373291,8.897000312805176 C-18.68400001525879,8.732000350952148 -16.22599983215332,5.2829999923706055 -15.729000091552734,4.041999816894531z"></path></g><g opacity="1" transform="matrix(1,0,0,1,176.60899353027344,153.25399780273438)"><path stroke-linecap="butt" stroke-linejoin="miter" fill-opacity="0" stroke-miterlimit="10" stroke="rgb(63,25,7)" stroke-opacity="1" stroke-width="5.281" d=" M-15.729000091552734,4.041999816894531 C-13.687000274658203,-1.0640000104904175 -6.422999858856201,-8.993000030517578 2.5789999961853027,-8.857000350952148 C12.975000381469727,-8.699999809265137 18.683000564575195,-4.310999870300293 17.388999938964844,0.5659999847412109 C16.801000595092773,2.7799999713897705 13.473999977111816,0.7850000262260437 6.230000019073486,-0.7379999756813049 C-0.5130000114440918,-2.1559998989105225 -5.9710001945495605,1.2580000162124634 -9.592000007629395,4 C-12.102999687194824,5.901000022888184 -14.503000259399414,8.991999626159668 -16.0310001373291,8.897000312805176 C-18.68400001525879,8.732000350952148 -16.22599983215332,5.2829999923706055 -15.729000091552734,4.041999816894531z"></path></g></g><g style="display: block;" transform="matrix(1.5063042640686035,0.667120099067688,-0.7282272577285767,1.4486452341079712,27.11811637878418,-218.59861755371094)" opacity="1"><g opacity="1" transform="matrix(1,0,0,1,268.3890075683594,120.36599731445312)"><path fill="rgb(182,94,49)" fill-opacity="0.5700000000000001" d=" M-19.542999267578125,1.9800000190734863 C-19.542999267578125,1.9800000190734863 -5.711999893188477,-12.491999626159668 6.4039998054504395,-11.777999877929688 C17.231000900268555,-11.140999794006348 24.110000610351562,-5.435999870300293 20.93899917602539,-0.28299999237060547 C19.593000411987305,1.9040000438690186 13.274999618530273,-0.7720000147819519 6.801000118255615,-0.9430000185966492 C0.21400000154972076,-1.1180000305175781 -5.120999813079834,0.5249999761581421 -10.861000061035156,5.0269999504089355 C-14.72599983215332,8.057999610900879 -18.44099998474121,12.491999626159668 -21.274999618530273,8.767000198364258 C-24.110000610351562,5.041999816894531 -19.542999267578125,1.9800000190734863 -19.542999267578125,1.9800000190734863z"></path></g><g opacity="1" transform="matrix(1,0,0,1,265.54400634765625,116.91600036621094)"><path fill="rgb(62,24,6)" fill-opacity="1" d=" M-17.871999740600586,-0.5849999785423279 C-17.871999740600586,-0.5849999785423279 -8.348999977111816,-9.927000045776367 3.7679998874664307,-9.213000297546387 C14.595000267028809,-8.576000213623047 22.43899917602539,-3.246000051498413 22.333999633789062,-0.6800000071525574 C22.22800064086914,1.8860000371932983 14.982000350952148,-2.2750000953674316 8.506999969482422,-2.447000026702881 C1.9210000038146973,-2.621000051498413 -3.450000047683716,-2.0399999618530273 -9.1899995803833,2.4619998931884766 C-13.055000305175781,5.493000030517578 -16.770000457763672,9.927000045776367 -19.604000091552734,6.202000141143799 C-22.43899917602539,2.4769999980926514 -17.871999740600586,-0.5849999785423279 -17.871999740600586,-0.5849999785423279z"></path></g><g opacity="1" transform="matrix(1,0,0,1,265.54400634765625,116.91600036621094)"><path stroke-linecap="butt" stroke-linejoin="miter" fill-opacity="0" stroke-miterlimit="10" stroke="rgb(63,25,7)" stroke-opacity="1" stroke-width="5.039" d=" M-17.871999740600586,-0.5849999785423279 C-17.871999740600586,-0.5849999785423279 -8.348999977111816,-9.927000045776367 3.7679998874664307,-9.213000297546387 C14.595000267028809,-8.576000213623047 22.43899917602539,-3.246000051498413 22.333999633789062,-0.6800000071525574 C22.22800064086914,1.8860000371932983 14.982000350952148,-2.2750000953674316 8.506999969482422,-2.447000026702881 C1.9210000038146973,-2.621000051498413 -3.450000047683716,-2.0399999618530273 -9.1899995803833,2.4619998931884766 C-13.055000305175781,5.493000030517578 -16.770000457763672,9.927000045776367 -19.604000091552734,6.202000141143799 C-22.43899917602539,2.4769999980926514 -17.871999740600586,-0.5849999785423279 -17.871999740600586,-0.5849999785423279z"></path></g><g opacity="1" transform="matrix(1,0,0,1,265.54400634765625,116.91600036621094)"><path stroke-linecap="butt" stroke-linejoin="miter" fill-opacity="0" stroke-miterlimit="10" stroke="rgb(63,25,7)" stroke-opacity="1" stroke-width="5.039" d=" M-17.871999740600586,-0.5849999785423279 C-17.871999740600586,-0.5849999785423279 -8.348999977111816,-9.927000045776367 3.7679998874664307,-9.213000297546387 C14.595000267028809,-8.576000213623047 22.43899917602539,-3.246000051498413 22.333999633789062,-0.6800000071525574 C22.22800064086914,1.8860000371932983 14.982000350952148,-2.2750000953674316 8.506999969482422,-2.447000026702881 C1.9210000038146973,-2.621000051498413 -3.450000047683716,-2.0399999618530273 -9.1899995803833,2.4619998931884766 C-13.055000305175781,5.493000030517578 -16.770000457763672,9.927000045776367 -19.604000091552734,6.202000141143799 C-22.43899917602539,2.4769999980926514 -17.871999740600586,-0.5849999785423279 -17.871999740600586,-0.5849999785423279z"></path></g></g></g></g></svg>