<svg xmlns="http://www.w3.org/2000/svg" xmlns:xlink="http://www.w3.org/1999/xlink" viewBox="0 0 512 512" width="512" height="512" style="width: 100%; height: 100%; transform: translate3d(0,0,0); content-visibility: visible;" preserveAspectRatio="xMidYMid meet"><defs><clipPath id="__lottie_element_2"><rect width="512" height="512" x="0" y="0"></rect></clipPath><clipPath id="__lottie_element_4"><path d="M0,0 L512,0 L512,512 L0,512z"></path></clipPath><radialGradient id="__lottie_element_10" spreadMethod="pad" gradientUnits="userSpaceOnUse"><stop></stop><stop></stop><stop></stop></radialGradient><mask id="__lottie_element_12"><path fill="url(#__lottie_element_11)"></path></mask><radialGradient id="__lottie_element_11" spreadMethod="pad" gradientUnits="userSpaceOnUse"><stop stop-color="rgb(255,255,255)"></stop><stop stop-color="rgb(255,255,255)"></stop><stop stop-color="rgb(255,255,255)"></stop></radialGradient><radialGradient id="__lottie_element_13" spreadMethod="pad" gradientUnits="userSpaceOnUse"><stop></stop><stop></stop><stop></stop></radialGradient><mask id="__lottie_element_15"><path fill="url(#__lottie_element_14)"></path></mask><radialGradient id="__lottie_element_14" spreadMethod="pad" gradientUnits="userSpaceOnUse"><stop stop-color="rgb(255,255,255)"></stop><stop stop-color="rgb(255,255,255)"></stop><stop stop-color="rgb(255,255,255)"></stop></radialGradient><radialGradient id="__lottie_element_22" spreadMethod="pad" gradientUnits="userSpaceOnUse"><stop></stop><stop></stop><stop></stop></radialGradient><mask id="__lottie_element_24"><path fill="url(#__lottie_element_23)"></path></mask><radialGradient id="__lottie_element_23" spreadMethod="pad" gradientUnits="userSpaceOnUse"><stop stop-color="rgb(255,255,255)"></stop><stop stop-color="rgb(255,255,255)"></stop><stop stop-color="rgb(255,255,255)"></stop></radialGradient><g id="__lottie_element_27"><g style="display: none;"><g><g><path></path><path stroke-linecap="butt" stroke-linejoin="miter" fill-opacity="0" stroke-miterlimit="10"></path></g></g></g></g><mask id="__lottie_element_27_1" mask-type="alpha"><use href="#__lottie_element_27"></use></mask><clipPath id="__lottie_element_39"><path d="M0,0 L512,0 L512,512 L0,512z"></path></clipPath><radialGradient id="__lottie_element_45" spreadMethod="pad" gradientUnits="userSpaceOnUse" cx="0.8690000176429749" cy="-83.375" r="156.84783527171345" fx="0.8690000176429749" fy="-83.375"><stop offset="0%" stop-color="rgb(255,222,195)"></stop><stop offset="50%" stop-color="rgb(240,171,120)"></stop><stop offset="100%" stop-color="rgb(226,120,45)"></stop></radialGradient><mask id="__lottie_element_47"><path fill="url(#__lottie_element_46)" d=" M-28.872549057006836,-49.24109649658203 C-23.601581573486328,-55.194580078125 -19.180612564086914,-64.36283874511719 -17.36890411376953,-71.79728698730469 C-14.238483428955078,-89.71642303466797 -9.35161304473877,-106.8031005859375 7.57738733291626,-109.03106689453125 C30.630226135253906,-112.13551330566406 45.15258026123047,-89.11238861083984 44.26945114135742,-66.40026092529297 C43.412288665771484,-49.71883773803711 23.277902603149414,-28.826515197753906 23.277902603149414,-28.826515197753906 C23.277902603149414,-28.826515197753906 26.95003318786621,0.9281612634658813 41.41203308105469,16.296161651611328 C55.875030517578125,31.664161682128906 98.20348358154297,46.20684051513672 83.29548645019531,66.41683959960938 C76.34048461914062,75.84584045410156 27.496000289916992,91.82099914550781 10.623000144958496,95.95899963378906 C-6.249000072479248,100.09600067138672 -27.94300079345703,100.68699645996094 -55.060001373291016,92.41200256347656 C-82.177001953125,84.13800048828125 -98.4469985961914,61.08599853515625 -92.4209976196289,35.66999816894531 C-86.3949966430664,10.253999710083008 -62.29100036621094,-11.02299976348877 -55.060001373291016,-20.479999542236328 C-51.14699935913086,-25.597000122070312 -35.1721305847168,-42.19503402709961 -28.872549057006836,-49.24109649658203z"></path></mask><radialGradient id="__lottie_element_46" spreadMethod="pad" gradientUnits="userSpaceOnUse" cx="0.8690000176429749" cy="-83.375" r="156.84783527171345" fx="0.8690000176429749" fy="-83.375"><stop stop-color="rgb(255,255,255)" offset="0%" stop-opacity="0.9300000071525574"></stop><stop stop-color="rgb(255,255,255)" offset="57%" stop-opacity="0.9649999737739563"></stop><stop stop-color="rgb(255,255,255)" offset="100%" stop-opacity="1"></stop></radialGradient><radialGradient id="__lottie_element_48" spreadMethod="pad" gradientUnits="userSpaceOnUse" cx="-12.847000122070312" cy="-45.09600067138672" r="60.78203991342318" fx="-12.847000122070312" fy="-45.09600067138672"><stop offset="0%" stop-color="rgb(255,222,195)"></stop><stop offset="50%" stop-color="rgb(252,200,164)"></stop><stop offset="100%" stop-color="rgb(249,177,134)"></stop></radialGradient><mask id="__lottie_element_50"><path fill="url(#__lottie_element_49)" d=" M14.075419425964355,-57.66658020019531 C14.075419425964355,-57.66658020019531 43.75941848754883,-19.3083553314209 52.79841995239258,-3.3493547439575195 C61.83741760253906,12.609644889831543 70.81941986083984,23.687387466430664 65.99942016601562,33.144386291503906 C61.17842102050781,42.60138702392578 56.05500030517578,45.159000396728516 56.05500030517578,45.159000396728516 C56.05500030517578,45.159000396728516 52.15419387817383,45.65538787841797 43.11519241333008,54.521385192871094 C34.076194763183594,63.387386322021484 14.062548637390137,61.747676849365234 14.062548637390137,61.747676849365234 C14.062548637390137,61.747676849365234 13.091419219970703,69.60277557373047 -1.9735805988311768,69.60277557373047 C-17.0385799407959,69.60277557373047 -43.516937255859375,47.886775970458984 -51.95393371582031,39.020774841308594 C-60.38993453979492,30.154773712158203 -69.91322326660156,14.495580673217773 -66.90022277832031,3.8565807342529297 C-63.88722610473633,-6.782419204711914 -59.700225830078125,-6.405580520629883 -59.700225830078125,-6.405580520629883 C-59.700225830078125,-6.405580520629883 -61.878292083740234,-21.419645309448242 -55.8992919921875,-30.545644760131836 C-50.15129089355469,-39.31864547729492 -40.51709747314453,-38.828678131103516 -40.51709747314453,-38.828678131103516 C-40.51709747314453,-38.828678131103516 -39.97587203979492,-64.87025451660156 -15.744871139526367,-69.90525817871094"></path></mask><radialGradient id="__lottie_element_49" spreadMethod="pad" gradientUnits="userSpaceOnUse" cx="-12.847000122070312" cy="-45.09600067138672" r="60.78203991342318" fx="-12.847000122070312" fy="-45.09600067138672"><stop stop-color="rgb(255,255,255)" offset="0%" stop-opacity="0.9300000071525574"></stop><stop stop-color="rgb(255,255,255)" offset="57%" stop-opacity="0.9649999737739563"></stop><stop stop-color="rgb(255,255,255)" offset="100%" stop-opacity="1"></stop></radialGradient><radialGradient id="__lottie_element_57" spreadMethod="pad" gradientUnits="userSpaceOnUse" cx="-5.913000106811523" cy="-79.11699676513672" r="263.39442447164583" fx="-5.913000106811523" fy="-79.11699676513672"><stop offset="0%" stop-color="rgb(255,229,209)"></stop><stop offset="56%" stop-color="rgb(255,205,170)"></stop><stop offset="100%" stop-color="rgb(255,180,132)"></stop></radialGradient><mask id="__lottie_element_59"><path fill="url(#__lottie_element_58)" d=" M-223.08200073242188,-13.803999900817871 C-216.91400146484375,-77.0260009765625 -198.33099365234375,-130.164794921875 -142.81900024414062,-170.2567901611328 C-87.30699920654297,-210.34878540039062 -2.3550000190734863,-225.216796875 68.5770034790039,-200.54478454589844 C139.50999450683594,-175.87278747558594 232.61399841308594,-109.61900329589844 212.31100463867188,61.986000061035156 C192.7729949951172,227.78199768066406 -32.29899978637695,220.84300231933594 -122.93599700927734,170.9929962158203 C-210.11599731445312,123.04399871826172 -228.66600036621094,43.426998138427734 -223.08200073242188,-13.803999900817871z"></path></mask><radialGradient id="__lottie_element_58" spreadMethod="pad" gradientUnits="userSpaceOnUse" cx="-5.913000106811523" cy="-79.11699676513672" r="263.39442447164583" fx="-5.913000106811523" fy="-79.11699676513672"><stop stop-color="rgb(255,255,255)" offset="0%" stop-opacity="0.9300000071525574"></stop><stop stop-color="rgb(255,255,255)" offset="57%" stop-opacity="0.9649999737739563"></stop><stop stop-color="rgb(255,255,255)" offset="100%" stop-opacity="1"></stop></radialGradient><g id="__lottie_element_62"><g style="display: block;" transform="matrix(1.0190554857254028,0,0,0.9959926605224609,148.21046447753906,144.01734924316406)" opacity="1"><g opacity="1" transform="matrix(1,0,0,1,0,0)"><g opacity="1" transform="matrix(1,0,0,1,162.28500366210938,127.31199645996094)"><path fill="rgb(85,18,18)" fill-opacity="1" d=" M-106.22699737548828,88.73200225830078 C-106.22699737548828,88.73200225830078 -72.5989990234375,-35.96099853515625 -34.904998779296875,-67.48600006103516 C2.7880001068115234,-99.01200103759766 36.909000396728516,-64.46900177001953 47.18899917602539,-38.42599868774414 C57.470001220703125,-12.383000373840332 58.93899917602539,26.365999221801758 69.90399932861328,40.073001861572266 C80.87000274658203,53.779998779296875 106.22699737548828,64.05999755859375 106.22699737548828,70.91300201416016 C106.22699737548828,77.76699829101562 96.63200378417969,76.39600372314453 90.46399688720703,75.0250015258789 C84.2959976196289,73.65499877929688 47.972999572753906,59.26300048828125 -10.96500015258789,68.85700225830078 C-69.90399932861328,78.4520034790039 -93.89099884033203,93.52899932861328 -100.05899810791016,96.27100372314453 C-106.22699737548828,99.01200103759766 -106.22699737548828,88.73200225830078 -106.22699737548828,88.73200225830078z"></path><path stroke-linecap="butt" stroke-linejoin="miter" fill-opacity="0" stroke-miterlimit="10" stroke="rgb(52,27,20)" stroke-opacity="1" stroke-width="11.32" d=" M-106.22699737548828,88.73200225830078 C-106.22699737548828,88.73200225830078 -72.5989990234375,-35.96099853515625 -34.904998779296875,-67.48600006103516 C2.7880001068115234,-99.01200103759766 36.909000396728516,-64.46900177001953 47.18899917602539,-38.42599868774414 C57.470001220703125,-12.383000373840332 58.93899917602539,26.365999221801758 69.90399932861328,40.073001861572266 C80.87000274658203,53.779998779296875 106.22699737548828,64.05999755859375 106.22699737548828,70.91300201416016 C106.22699737548828,77.76699829101562 96.63200378417969,76.39600372314453 90.46399688720703,75.0250015258789 C84.2959976196289,73.65499877929688 47.972999572753906,59.26300048828125 -10.96500015258789,68.85700225830078 C-69.90399932861328,78.4520034790039 -93.89099884033203,93.52899932861328 -100.05899810791016,96.27100372314453 C-106.22699737548828,99.01200103759766 -106.22699737548828,88.73200225830078 -106.22699737548828,88.73200225830078z"></path></g></g></g></g><mask id="__lottie_element_62_1" mask-type="alpha"><use href="#__lottie_element_62"></use></mask></defs><g clip-path="url(#__lottie_element_2)"><g clip-path="url(#__lottie_element_39)" style="display: block;" transform="matrix(0.9375,0,0,0.9375,16,16)" opacity="1"><g style="display: block;" transform="matrix(1.0190571546554565,0,0,0.9959942698478699,6.82635498046875,-21.31744384765625)" opacity="1"><g opacity="1" transform="matrix(1,0,0,1,262.7279968261719,264.0989990234375)"><path fill="url(#__lottie_element_57)" mask="url(#__lottie_element_59)" fill-opacity="1" d="M0 0 M-223.08200073242188,-13.803999900817871 C-216.91400146484375,-77.0260009765625 -198.33099365234375,-130.164794921875 -142.81900024414062,-170.2567901611328 C-87.30699920654297,-210.34878540039062 -2.3550000190734863,-225.216796875 68.5770034790039,-200.54478454589844 C139.50999450683594,-175.87278747558594 232.61399841308594,-109.61900329589844 212.31100463867188,61.986000061035156 C192.7729949951172,227.78199768066406 -32.29899978637695,220.84300231933594 -122.93599700927734,170.9929962158203 C-210.11599731445312,123.04399871826172 -228.66600036621094,43.426998138427734 -223.08200073242188,-13.803999900817871z"></path><path stroke-linecap="butt" stroke-linejoin="miter" fill-opacity="0" stroke-miterlimit="10" stroke="rgb(182,106,67)" stroke-opacity="1" stroke-width="14" d=" M-223.08200073242188,-13.803999900817871 C-216.91400146484375,-77.0260009765625 -198.33099365234375,-130.164794921875 -142.81900024414062,-170.2567901611328 C-87.30699920654297,-210.34878540039062 -2.3550000190734863,-225.216796875 68.5770034790039,-200.54478454589844 C139.50999450683594,-175.87278747558594 232.61399841308594,-109.61900329589844 212.31100463867188,61.986000061035156 C192.7729949951172,227.78199768066406 -32.29899978637695,220.84300231933594 -122.93599700927734,170.9929962158203 C-210.11599731445312,123.04399871826172 -228.66600036621094,43.426998138427734 -223.08200073242188,-13.803999900817871z"></path></g><g opacity="1" transform="matrix(1,0,0,1,221.11700439453125,321.0509948730469)"><path fill="rgb(233,150,106)" fill-opacity="1" d=" M-149.65499877929688,-149.99899291992188 C-149.65499877929688,-149.99899291992188 -194.1827850341797,-14.297333717346191 -98.82978057861328,63.07466506958008 C-34.10677719116211,115.59266662597656 67.76844787597656,119.92510986328125 93.85344696044922,118.03311157226562 C148.11244201660156,114.09811401367188 200.43899536132812,93.22100067138672 200.43899536132812,93.22100067138672 C200.43899536132812,93.22100067138672 128.2169952392578,161.5260009765625 -19.618999481201172,130.06300354003906 C-199.7760009765625,91.72200012207031 -175.83099365234375,-70.94200134277344 -171.27099609375,-100.63999938964844 C-168.7030029296875,-117.36199951171875 -149.65499877929688,-149.99899291992188 -149.65499877929688,-149.99899291992188z"></path></g></g><g style="display: block;" mask="url(#__lottie_element_62_1)"><g transform="matrix(1.0190554857254028,0,0,0.9959926605224609,148.21046447753906,144.01734924316406)" opacity="1"><g opacity="1" transform="matrix(1,0,0,1,0,0)"><g opacity="1" transform="matrix(1,0,0,1,162.28500366210938,127.31199645996094)"><path fill="rgb(85,18,18)" fill-opacity="1" d=" M-106.22699737548828,88.73200225830078 C-106.22699737548828,88.73200225830078 -72.5989990234375,-35.96099853515625 -34.904998779296875,-67.48600006103516 C2.7880001068115234,-99.01200103759766 36.909000396728516,-64.46900177001953 47.18899917602539,-38.42599868774414 C57.470001220703125,-12.383000373840332 58.93899917602539,26.365999221801758 69.90399932861328,40.073001861572266 C80.87000274658203,53.779998779296875 106.22699737548828,64.05999755859375 106.22699737548828,70.91300201416016 C106.22699737548828,77.76699829101562 96.63200378417969,76.39600372314453 90.46399688720703,75.0250015258789 C84.2959976196289,73.65499877929688 47.972999572753906,59.26300048828125 -10.96500015258789,68.85700225830078 C-69.90399932861328,78.4520034790039 -93.89099884033203,93.52899932861328 -100.05899810791016,96.27100372314453 C-106.22699737548828,99.01200103759766 -106.22699737548828,88.73200225830078 -106.22699737548828,88.73200225830078z"></path><path stroke-linecap="butt" stroke-linejoin="miter" fill-opacity="0" stroke-miterlimit="10" stroke="rgb(52,27,20)" stroke-opacity="1" stroke-width="11.32" d=" M-106.22699737548828,88.73200225830078 C-106.22699737548828,88.73200225830078 -72.5989990234375,-35.96099853515625 -34.904998779296875,-67.48600006103516 C2.7880001068115234,-99.01200103759766 36.909000396728516,-64.46900177001953 47.18899917602539,-38.42599868774414 C57.470001220703125,-12.383000373840332 58.93899917602539,26.365999221801758 69.90399932861328,40.073001861572266 C80.87000274658203,53.779998779296875 106.22699737548828,64.05999755859375 106.22699737548828,70.91300201416016 C106.22699737548828,77.76699829101562 96.63200378417969,76.39600372314453 90.46399688720703,75.0250015258789 C84.2959976196289,73.65499877929688 47.972999572753906,59.26300048828125 -10.96500015258789,68.85700225830078 C-69.90399932861328,78.4520034790039 -93.89099884033203,93.52899932861328 -100.05899810791016,96.27100372314453 C-106.22699737548828,99.01200103759766 -106.22699737548828,88.73200225830078 -106.22699737548828,88.73200225830078z"></path></g><g opacity="1" transform="matrix(1,0,0,1,46.34700012207031,208.69500732421875)"><path stroke-linecap="round" stroke-linejoin="round" fill-opacity="0" stroke="rgb(155,89,56)" stroke-opacity="1" stroke-width="11" d=" M-6.510000228881836,-37.35100173950195 C-6.510000228881836,-37.35100173950195 -17.475000381469727,-6.511000156402588 -18.160999298095703,7.88100004196167 C-18.84600067138672,22.273000717163086 -14.734000205993652,31.868000030517578 -4.453999996185303,34.60900115966797 C5.826000213623047,37.35100173950195 18.847000122070312,27.756000518798828 18.847000122070312,27.756000518798828"></path></g><g opacity="1" transform="matrix(1,0,0,1,270.5679931640625,213.30299377441406)"><path stroke-linecap="round" stroke-linejoin="round" fill-opacity="0" stroke="rgb(155,89,56)" stroke-opacity="1" stroke-width="11" d=" M15.07699966430664,-17.81800079345703 C15.07699966430664,-17.81800079345703 26.72800064086914,4.11299991607666 15.07699966430664,10.965999603271484 C3.4260001182556152,17.819000244140625 -13.706999778747559,6.169000148773193 -17.819000244140625,4.797999858856201 C-21.930999755859375,3.427000045776367 -26.72800064086914,2.742000102996826 -26.72800064086914,2.742000102996826"></path></g><g opacity="1" transform="matrix(1,0,0,1,140.625,152.47900390625)"><path fill="rgb(198,93,129)" fill-opacity="1" d=" M-37.94070053100586,14.10789966583252 C-33.70970153808594,0.583899974822998 -20.730899810791016,-24.394634246826172 -3.768899917602539,-36.731632232666016 C13.193099975585938,-49.06763458251953 35.67060089111328,-41.885765075683594 44.92259979248047,-21.839767456054688 C52.06060028076172,-6.374766826629639 44.157901763916016,-0.4475666582584381 34.34989929199219,1.7324333190917969 C27.721900939941406,3.2044334411621094 11.061200141906738,-8.135466575622559 7.4721999168396,-7.325466632843018 C-0.49480000138282776,-5.5264668464660645 1.88100004196167,7.895999908447266 -0.5320000052452087,18.864999771118164 C-0.9330000281333923,20.691999435424805 5.896999835968018,39.06399917602539 5.896999835968018,39.06399917602539 C5.896999835968018,39.06399917602539 -18.774999618530273,47.801998138427734 -26.999000549316406,49.60100173950195 C-35.222999572753906,51.400001525878906 -51.327999114990234,55.85499954223633 -51.327999114990234,55.85499954223633 C-51.327999114990234,55.85499954223633 -41.229698181152344,24.61989974975586 -37.94070053100586,14.10789966583252z"></path><path stroke-linecap="round" stroke-linejoin="round" fill-opacity="0" stroke="rgb(165,35,83)" stroke-opacity="1" stroke-width="9" d=" M-37.94070053100586,14.10789966583252 C-33.70970153808594,0.583899974822998 -20.730899810791016,-24.394634246826172 -3.768899917602539,-36.731632232666016 C13.193099975585938,-49.06763458251953 35.67060089111328,-41.885765075683594 44.92259979248047,-21.839767456054688 C52.06060028076172,-6.374766826629639 44.157901763916016,-0.4475666582584381 34.34989929199219,1.7324333190917969 C27.721900939941406,3.2044334411621094 11.061200141906738,-8.135466575622559 7.4721999168396,-7.325466632843018 C-0.49480000138282776,-5.5264668464660645 1.88100004196167,7.895999908447266 -0.5320000052452087,18.864999771118164 C-0.9330000281333923,20.691999435424805 5.896999835968018,39.06399917602539 5.896999835968018,39.06399917602539 C5.896999835968018,39.06399917602539 -18.774999618530273,47.801998138427734 -26.999000549316406,49.60100173950195 C-35.222999572753906,51.400001525878906 -51.327999114990234,55.85499954223633 -51.327999114990234,55.85499954223633 C-51.327999114990234,55.85499954223633 -41.229698181152344,24.61989974975586 -37.94070053100586,14.10789966583252z"></path></g><g opacity="1" transform="matrix(1,0,0,1,160.7989959716797,222.01699829101562)"><path fill="rgb(241,209,182)" fill-opacity="1" d=" M-42.5,8.17300033569336 C-42.5,8.17300033569336 -17.437000274658203,-1.6349999904632568 9.807000160217285,-4.9039998054504395 C37.05099868774414,-8.17300033569336 42.5,-7.084000110626221 42.5,-7.084000110626221"></path><path stroke-linecap="round" stroke-linejoin="round" fill-opacity="0" stroke="rgb(155,89,56)" stroke-opacity="1" stroke-width="11" d=" M-42.5,8.17300033569336 C-42.5,8.17300033569336 -17.437000274658203,-1.6349999904632568 9.807000160217285,-4.9039998054504395 C37.05099868774414,-8.17300033569336 42.5,-7.084000110626221 42.5,-7.084000110626221"></path></g><g opacity="1" transform="matrix(1,0,0,1,0,0)"><g opacity="1" transform="matrix(1,0,0,1,128.28700256347656,72.54000091552734)"><path fill="rgb(255,255,255)" fill-opacity="1" d=" M-10.35200023651123,0.3630000054836273 C-10.35200023651123,0.3630000054836273 -8.17199993133545,11.26099967956543 -6.718999862670898,14.892999649047852 C-5.265999794006348,18.525999069213867 4.177999973297119,15.982999801635742 6.7210001945495605,13.803000450134277 C9.263999938964844,11.62399959564209 10.35200023651123,-18.525999069213867 10.35200023651123,-18.525999069213867 C10.35200023651123,-18.525999069213867 1.9980000257492065,-14.529999732971191 -0.9079999923706055,-12.71399974822998 C-3.813999891281128,-10.89799976348877 -10.35200023651123,0.3630000054836273 -10.35200023651123,0.3630000054836273z"></path><path stroke-linecap="butt" stroke-linejoin="miter" fill-opacity="0" stroke-miterlimit="10" stroke="rgb(81,98,132)" stroke-opacity="1" stroke-width="7" d=" M-10.35200023651123,0.3630000054836273 C-10.35200023651123,0.3630000054836273 -8.17199993133545,11.26099967956543 -6.718999862670898,14.892999649047852 C-5.265999794006348,18.525999069213867 4.177999973297119,15.982999801635742 6.7210001945495605,13.803000450134277 C9.263999938964844,11.62399959564209 10.35200023651123,-18.525999069213867 10.35200023651123,-18.525999069213867 C10.35200023651123,-18.525999069213867 1.9980000257492065,-14.529999732971191 -0.9079999923706055,-12.71399974822998 C-3.813999891281128,-10.89799976348877 -10.35200023651123,0.3630000054836273 -10.35200023651123,0.3630000054836273z"></path></g><g opacity="1" transform="matrix(1,0,0,1,157.5290069580078,64.2760009765625)"><path fill="rgb(255,255,255)" fill-opacity="1" d=" M14.166999816894531,-11.98799991607666 C14.166999816894531,-11.98799991607666 12.531999588012695,8.991000175476074 11.71500015258789,13.07699966430664 C10.89799976348877,17.163999557495117 5.99399995803833,18.253000259399414 4.086999893188477,17.979999542236328 C2.180000066757202,17.70800018310547 -6.538000106811523,17.70800018310547 -6.538000106811523,17.70800018310547 C-6.538000106811523,17.70800018310547 -12.531999588012695,15.802000045776367 -12.803999900817871,10.352999687194824 C-13.07699966430664,4.9039998054504395 -14.166999816894531,-15.529999732971191 -14.166999816894531,-15.529999732971191 C-14.166999816894531,-15.529999732971191 -8.444999694824219,-18.253999710083008 -1.906999945640564,-18.253999710083008 C4.631999969482422,-18.253999710083008 14.166999816894531,-11.98799991607666 14.166999816894531,-11.98799991607666z"></path><path stroke-linecap="butt" stroke-linejoin="miter" fill-opacity="0" stroke-miterlimit="10" stroke="rgb(81,98,132)" stroke-opacity="1" stroke-width="7" d=" M14.166999816894531,-11.98799991607666 C14.166999816894531,-11.98799991607666 12.531999588012695,8.991000175476074 11.71500015258789,13.07699966430664 C10.89799976348877,17.163999557495117 5.99399995803833,18.253000259399414 4.086999893188477,17.979999542236328 C2.180000066757202,17.70800018310547 -6.538000106811523,17.70800018310547 -6.538000106811523,17.70800018310547 C-6.538000106811523,17.70800018310547 -12.531999588012695,15.802000045776367 -12.803999900817871,10.352999687194824 C-13.07699966430664,4.9039998054504395 -14.166999816894531,-15.529999732971191 -14.166999816894531,-15.529999732971191 C-14.166999816894531,-15.529999732971191 -8.444999694824219,-18.253999710083008 -1.906999945640564,-18.253999710083008 C4.631999969482422,-18.253999710083008 14.166999816894531,-11.98799991607666 14.166999816894531,-11.98799991607666z"></path></g><g opacity="1" transform="matrix(1,0,0,1,186.13499450683594,72.4489974975586)"><path fill="rgb(255,255,255)" fill-opacity="1" d=" M10.625,1.090000033378601 C10.625,1.090000033378601 4.359000205993652,14.439000129699707 4.359000205993652,14.439000129699707 C4.359000205993652,14.439000129699707 3.2690000534057617,18.79800033569336 -1.3619999885559082,18.525999069213867 C-5.99399995803833,18.253999710083008 -10.079999923706055,16.347000122070312 -10.352999687194824,14.984000205993652 C-10.625,13.621999740600586 -8.17300033569336,-18.79800033569336 -8.17300033569336,-18.79800033569336 C-8.17300033569336,-18.79800033569336 -1.090000033378601,-15.800999641418457 0.8169999718666077,-13.348999977111816 C2.7239999771118164,-10.897000312805176 10.625,1.090000033378601 10.625,1.090000033378601z"></path><path stroke-linecap="butt" stroke-linejoin="miter" fill-opacity="0" stroke-miterlimit="10" stroke="rgb(81,98,132)" stroke-opacity="1" stroke-width="7" d=" M10.625,1.090000033378601 C10.625,1.090000033378601 4.359000205993652,14.439000129699707 4.359000205993652,14.439000129699707 C4.359000205993652,14.439000129699707 3.2690000534057617,18.79800033569336 -1.3619999885559082,18.525999069213867 C-5.99399995803833,18.253999710083008 -10.079999923706055,16.347000122070312 -10.352999687194824,14.984000205993652 C-10.625,13.621999740600586 -8.17300033569336,-18.79800033569336 -8.17300033569336,-18.79800033569336 C-8.17300033569336,-18.79800033569336 -1.090000033378601,-15.800999641418457 0.8169999718666077,-13.348999977111816 C2.7239999771118164,-10.897000312805176 10.625,1.090000033378601 10.625,1.090000033378601z"></path></g></g><g opacity="1" transform="matrix(1.0273118019104004,0,0,1.076561689376831,-4.5080108642578125,-14.747085571289062)"><g opacity="1" transform="matrix(1,0,0,1,169.0449981689453,177.09800720214844)"><path fill="rgb(255,255,255)" fill-opacity="1" d=" M-14.791999816894531,15.937999725341797 C-14.791999816894531,15.937999725341797 -15.954999923706055,5.866000175476074 -16.785999298095703,-1.9730000495910645 C-17.246999740600586,-6.326000213623047 -16.6200008392334,-10.0649995803833 -16.145999908447266,-10.793999671936035 C-14.687000274658203,-13.043000221252441 -14.539999961853027,-12.916999816894531 -10.446999549865723,-13.944999694824219 C-3.624000072479248,-15.657999992370605 9.244999885559082,-16.75 12.322999954223633,-16.243000030517578 C17.24799919128418,-15.430999755859375 16.273000717163086,-5.34499979019165 16.273000717163086,-5.34499979019165 C16.273000717163086,-5.34499979019165 16.163999557495117,16.75 16.163999557495117,16.75 C16.163999557495117,16.75 -14.791999816894531,15.937999725341797 -14.791999816894531,15.937999725341797z"></path><path stroke-linecap="butt" stroke-linejoin="miter" fill-opacity="0" stroke-miterlimit="10" stroke="rgb(81,98,132)" stroke-opacity="1" stroke-width="9.711" d=" M-14.791999816894531,15.937999725341797 C-14.791999816894531,15.937999725341797 -15.954999923706055,5.866000175476074 -16.785999298095703,-1.9730000495910645 C-17.246999740600586,-6.326000213623047 -16.6200008392334,-10.0649995803833 -16.145999908447266,-10.793999671936035 C-14.687000274658203,-13.043000221252441 -14.539999961853027,-12.916999816894531 -10.446999549865723,-13.944999694824219 C-3.624000072479248,-15.657999992370605 9.244999885559082,-16.75 12.322999954223633,-16.243000030517578 C17.24799919128418,-15.430999755859375 16.273000717163086,-5.34499979019165 16.273000717163086,-5.34499979019165 C16.273000717163086,-5.34499979019165 16.163999557495117,16.75 16.163999557495117,16.75 C16.163999557495117,16.75 -14.791999816894531,15.937999725341797 -14.791999816894531,15.937999725341797z"></path></g><g opacity="1" transform="matrix(1,0,0,1,104.9530029296875,194.29200744628906)"><path fill="rgb(255,255,255)" fill-opacity="1" d=" M-12.904000282287598,16.312999725341797 C-12.904000282287598,16.312999725341797 -14.281999588012695,-3.0840001106262207 -13.449999809265137,-6.054999828338623 C-12.619000434875488,-9.026000022888184 -7.514999866485596,-18.29400062561035 -4.2170000076293945,-17.788000106811523 C-0.9190000295639038,-17.283000946044922 12.392999649047852,3.4619998931884766 13.336999893188477,6.510000228881836 C14.281999588012695,9.557999610900879 10.333000183105469,11.045999526977539 10.333000183105469,11.045999526977539 C10.333000183105469,11.045999526977539 -12.67300033569336,18.29400062561035 -12.67300033569336,18.29400062561035 C-12.67300033569336,18.29400062561035 -12.904000282287598,16.312999725341797 -12.904000282287598,16.312999725341797z"></path><path stroke-linecap="butt" stroke-linejoin="miter" fill-opacity="0" stroke-miterlimit="10" stroke="rgb(81,98,132)" stroke-opacity="1" stroke-width="9.711" d=" M-12.904000282287598,16.312999725341797 C-12.904000282287598,16.312999725341797 -14.281999588012695,-3.0840001106262207 -13.449999809265137,-6.054999828338623 C-12.619000434875488,-9.026000022888184 -7.514999866485596,-18.29400062561035 -4.2170000076293945,-17.788000106811523 C-0.9190000295639038,-17.283000946044922 12.392999649047852,3.4619998931884766 13.336999893188477,6.510000228881836 C14.281999588012695,9.557999610900879 10.333000183105469,11.045999526977539 10.333000183105469,11.045999526977539 C10.333000183105469,11.045999526977539 -12.67300033569336,18.29400062561035 -12.67300033569336,18.29400062561035 C-12.67300033569336,18.29400062561035 -12.904000282287598,16.312999725341797 -12.904000282287598,16.312999725341797z"></path></g><g opacity="1" transform="matrix(1,0,0,1,134.07400512695312,187.4340057373047)"><path fill="rgb(255,255,255)" fill-opacity="1" d=" M12.786999702453613,8.350000381469727 C12.786999702453613,8.350000381469727 8.911999702453613,-11.185999870300293 8.13700008392334,-13.076000213623047 C7.361999988555908,-14.967000007629395 1.6790000200271606,-15.281999588012695 -0.1289999932050705,-14.967000007629395 C-1.937000036239624,-14.652000427246094 -12.786999702453613,-11.817000389099121 -12.527999877929688,-9.295999526977539 C-12.270000457763672,-6.775000095367432 -9.170000076293945,15.282999992370605 -9.170000076293945,15.282999992370605 C-9.170000076293945,15.282999992370605 -0.6460000276565552,11.187000274658203 -0.6460000276565552,11.187000274658203 C-0.6460000276565552,11.187000274658203 12.786999702453613,8.350000381469727 12.786999702453613,8.350000381469727z"></path><path stroke-linecap="butt" stroke-linejoin="miter" fill-opacity="0" stroke-miterlimit="10" stroke="rgb(81,98,132)" stroke-opacity="1" stroke-width="7.331" d=" M12.786999702453613,8.350000381469727 C12.786999702453613,8.350000381469727 8.911999702453613,-11.185999870300293 8.13700008392334,-13.076000213623047 C7.361999988555908,-14.967000007629395 1.6790000200271606,-15.281999588012695 -0.1289999932050705,-14.967000007629395 C-1.937000036239624,-14.652000427246094 -12.786999702453613,-11.817000389099121 -12.527999877929688,-9.295999526977539 C-12.270000457763672,-6.775000095367432 -9.170000076293945,15.282999992370605 -9.170000076293945,15.282999992370605 C-9.170000076293945,15.282999992370605 -0.6460000276565552,11.187000274658203 -0.6460000276565552,11.187000274658203 C-0.6460000276565552,11.187000274658203 12.786999702453613,8.350000381469727 12.786999702453613,8.350000381469727z"></path></g><g opacity="1" transform="matrix(1,0,0,1,203.94900512695312,181.91400146484375)"><path fill="rgb(255,255,255)" fill-opacity="1" d=" M-14.119999885559082,10.286999702453613 C-14.119999885559082,10.286999702453613 -8.472999572753906,-7.716000080108643 -7.693999767303467,-9.10099983215332 C-6.914999961853027,-10.486000061035156 -5.355999946594238,-12.067999839782715 -2.630000114440918,-12.46399974822998 C0.09700000286102295,-12.859999656677246 9.836999893188477,-12.46399974822998 11.979000091552734,-11.277000427246094 C14.121000289916992,-10.09000015258789 13.53600025177002,-6.132999897003174 13.340999603271484,-4.551000118255615 C13.147000312805176,-2.9679999351501465 9.25100040435791,12.859000205993652 9.25100040435791,12.859000205993652 C9.25100040435791,12.859000205993652 -14.119999885559082,10.286999702453613 -14.119999885559082,10.286999702453613z"></path><path stroke-linecap="butt" stroke-linejoin="miter" fill-opacity="0" stroke-miterlimit="10" stroke="rgb(81,98,132)" stroke-opacity="1" stroke-width="7.565" d=" M-14.119999885559082,10.286999702453613 C-14.119999885559082,10.286999702453613 -8.472999572753906,-7.716000080108643 -7.693999767303467,-9.10099983215332 C-6.914999961853027,-10.486000061035156 -5.355999946594238,-12.067999839782715 -2.630000114440918,-12.46399974822998 C0.09700000286102295,-12.859999656677246 9.836999893188477,-12.46399974822998 11.979000091552734,-11.277000427246094 C14.121000289916992,-10.09000015258789 13.53600025177002,-6.132999897003174 13.340999603271484,-4.551000118255615 C13.147000312805176,-2.9679999351501465 9.25100040435791,12.859000205993652 9.25100040435791,12.859000205993652 C9.25100040435791,12.859000205993652 -14.119999885559082,10.286999702453613 -14.119999885559082,10.286999702453613z"></path></g><g opacity="1" transform="matrix(1,0,0,1,230.41700744628906,189.25999450683594)"><path fill="rgb(255,255,255)" fill-opacity="1" d=" M-8.715999603271484,4.447000026702881 C-8.715999603271484,4.447000026702881 -5.210000038146973,-4.51200008392334 -4.480000019073486,-5.681000232696533 C-3.749000072479248,-6.849999904632568 -1.5989999771118164,-7.692999839782715 -0.2840000092983246,-7.563000202178955 C1.031000018119812,-7.434000015258789 8.715999603271484,-4.131999969482422 8.569999694824219,-3.61299991607666 C8.423999786376953,-3.0940001010894775 3.26200008392334,7.692999839782715 3.26200008392334,7.692999839782715 C3.26200008392334,7.692999839782715 -8.133000373840332,5.875 -8.133000373840332,5.875 C-8.133000373840332,5.875 -8.715999603271484,4.447000026702881 -8.715999603271484,4.447000026702881z"></path><path stroke-linecap="butt" stroke-linejoin="miter" fill-opacity="0" stroke-miterlimit="10" stroke="rgb(81,98,132)" stroke-opacity="1" stroke-width="7.077" d=" M-8.715999603271484,4.447000026702881 C-8.715999603271484,4.447000026702881 -5.210000038146973,-4.51200008392334 -4.480000019073486,-5.681000232696533 C-3.749000072479248,-6.849999904632568 -1.5989999771118164,-7.692999839782715 -0.2840000092983246,-7.563000202178955 C1.031000018119812,-7.434000015258789 8.715999603271484,-4.131999969482422 8.569999694824219,-3.61299991607666 C8.423999786376953,-3.0940001010894775 3.26200008392334,7.692999839782715 3.26200008392334,7.692999839782715 C3.26200008392334,7.692999839782715 -8.133000373840332,5.875 -8.133000373840332,5.875 C-8.133000373840332,5.875 -8.715999603271484,4.447000026702881 -8.715999603271484,4.447000026702881z"></path></g></g></g></g></g><g style="display: block;" transform="matrix(1.0190554857254028,0,0,0.9959926605224609,148.21046447753906,144.01734924316406)" opacity="1"><g opacity="1" transform="matrix(1,0,0,1,0,0)"><g opacity="1" transform="matrix(1,0,0,1,162.28500366210938,127.31199645996094)"><path stroke-linecap="butt" stroke-linejoin="miter" fill-opacity="0" stroke-miterlimit="10" stroke="rgb(52,27,20)" stroke-opacity="1" stroke-width="11.32" d=" M-106.22699737548828,88.73200225830078 C-106.22699737548828,88.73200225830078 -72.5989990234375,-35.96099853515625 -34.904998779296875,-67.48600006103516 C2.7880001068115234,-99.01200103759766 36.909000396728516,-64.46900177001953 47.18899917602539,-38.42599868774414 C57.470001220703125,-12.383000373840332 58.93899917602539,26.365999221801758 69.90399932861328,40.073001861572266 C80.87000274658203,53.779998779296875 106.22699737548828,64.05999755859375 106.22699737548828,70.91300201416016 C106.22699737548828,77.76699829101562 96.63200378417969,76.39600372314453 90.46399688720703,75.0250015258789 C84.2959976196289,73.65499877929688 47.972999572753906,59.26300048828125 -10.96500015258789,68.85700225830078 C-69.90399932861328,78.4520034790039 -93.89099884033203,93.52899932861328 -100.05899810791016,96.27100372314453 C-106.22699737548828,99.01200103759766 -106.22699737548828,88.73200225830078 -106.22699737548828,88.73200225830078z"></path></g></g></g><g style="display: block;" transform="matrix(1.0004067420959473,0,0,0.9959926605224609,250.8758087158203,254.82949829101562)" opacity="1"><g opacity="1" transform="matrix(1,0,0,1,0,0)"><path stroke-linecap="round" stroke-linejoin="round" fill-opacity="0" stroke="rgb(207,128,89)" stroke-opacity="1" stroke-width="13" d=" M13.845000267028809,124.83599853515625 C13.845000267028809,124.83599853515625 45.91600036621094,114.88600158691406 66.91600036621094,113.88600158691406 C87.91600036621094,112.88600158691406 128.1490020751953,119.75700378417969 128.1490020751953,119.75700378417969"></path></g></g><g style="display: block;" transform="matrix(1.0190554857254028,0,0,0.9959926605224609,106.36599731445312,33.95119094848633)" opacity="1"><g opacity="1" transform="matrix(1,0,0,1,268.78900146484375,128.87899780273438)"><path fill="rgb(212,139,109)" fill-opacity="0.73" d=" M-65.47599792480469,-52.9900016784668 C-65.47599792480469,-52.9900016784668 -64.47699737548828,-17.57200050354004 -44.04399871826172,13.486000061035156 C-23.611000061035156,44.54399871826172 -18.707000732421875,65.79399871826172 12.350000381469727,70.697998046875 C43.40800094604492,75.60199737548828 57.303001403808594,46.99599838256836 61.388999938964844,23.29400062561035 C65.47599792480469,-0.40799999237060547 0.09099999815225601,-20.02400016784668 -3.996000051498413,-29.832000732421875 C-8.081999778747559,-39.63999938964844 6.810999870300293,-75.60099792480469 0.2720000147819519,-74.78399658203125 C-6.265999794006348,-73.96700286865234 -28.570999145507812,-59.59600067138672 -41.13800048828125,-49.35599899291992 C-50.94599914550781,-41.3650016784668 -65.47599792480469,-52.9900016784668 -65.47599792480469,-52.9900016784668z"></path></g><g opacity="1" transform="matrix(1,0,0,1,110.51499938964844,147.0970001220703)"><path fill="rgb(212,139,109)" fill-opacity="0.72" d=" M-68.8479995727539,-63.57899856567383 C-68.8479995727539,-63.57899856567383 -35.1150016784668,-77.81700134277344 -4.916999816894531,-71.93399810791016 C51.02399826049805,-61.0359992980957 57.29100036621094,-76.20099639892578 69.5510025024414,-77.01799774169922 C73.75299835205078,-77.2979965209961 71.49800109863281,-54.32699966430664 64.10199737548828,-35.244998931884766 C61.68899917602539,-29.020999908447266 56.279998779296875,-19.368999481201172 53.20399856567383,-12.361000061035156 C38.202999114990234,21.81599998474121 17.488000869750977,52.55500030517578 6.34499979019165,61.470001220703125 C-14.088000297546387,77.81600189208984 -67.21399688720703,37.76900100708008 -70.48400115966797,-1.4620000123977661 C-73.75299835205078,-40.69300079345703 -68.8479995727539,-63.57899856567383 -68.8479995727539,-63.57899856567383z"></path></g><g opacity="1" transform="matrix(1,0,0,1,106.29900360107422,86.06099700927734)"><path stroke-linecap="round" stroke-linejoin="round" fill-opacity="0" stroke="rgb(183,106,68)" stroke-opacity="1" stroke-width="11" d=" M-70.86000061035156,3.365999937057495 C-70.86000061035156,3.365999937057495 -34.0629997253418,-10.045000076293945 9.107000350952148,2.9059998989105225 C59.9630012512207,18.16200065612793 62.01300048828125,13.003999710083008 66.5009994506836,2.9059998989105225 C70.86000061035156,-6.9019999504089355 66.86399841308594,-18.163000106811523 66.86399841308594,-18.163000106811523"></path></g><g opacity="1" transform="matrix(1,0,0,1,238.65499877929688,81.7770004272461)"><path stroke-linecap="round" stroke-linejoin="round" fill-opacity="0" stroke="rgb(183,106,68)" stroke-opacity="1" stroke-width="11" d=" M-35.340999603271484,-13.878999710083008 C-35.340999603271484,-13.878999710083008 -36.21900177001953,3.0450000762939453 -26.624000549316406,12.638999938964844 C-17.02899932861328,22.233999252319336 -8.758000373840332,11.526000022888184 2.072999954223633,1.0140000581741333 C20.599000930786133,-16.966999053955078 36.21900177001953,-22.232999801635742 36.21900177001953,-22.232999801635742"></path></g><g opacity="1" transform="matrix(1,0,0,1,110.48400115966797,168.60499572753906)"><path stroke-linecap="round" stroke-linejoin="round" fill-opacity="0" stroke="rgb(183,106,68)" stroke-opacity="1" stroke-width="11" d=" M40.09199905395508,-53.650001525878906 C40.09199905395508,-53.650001525878906 38.0359992980957,2.890000104904175 1.7130000591278076,33.215999603271484 C-22.760000228881836,53.64899826049805 -40.09199905395508,34.58700180053711 -40.09199905395508,34.58700180053711"></path></g><g opacity="1" transform="matrix(1,0,0,1,270.3269958496094,166.70799255371094)"><path stroke-linecap="round" stroke-linejoin="round" fill-opacity="0" stroke="rgb(183,106,68)" stroke-opacity="1" stroke-width="11" d=" M-39.5890007019043,-39.05500030517578 C-39.5890007019043,-39.05500030517578 -39.04399871826172,-13.446000099182129 -9.069999694824219,21.236000061035156 C2.6579999923706055,34.80699920654297 14.916000366210938,39.05500030517578 23.482999801635742,36.48500061035156 C29.1299991607666,34.79100036621094 39.5890007019043,28.09000015258789 39.5890007019043,28.09000015258789"></path></g><g opacity="1" transform="matrix(1,0,0,1,92.54900360107422,138.4290008544922)"><path fill="rgb(255,255,255)" fill-opacity="1" d=" M45.28900146484375,14.833000183105469 C40.71200180053711,28.288999557495117 31.466999053955078,41.875 18.07900047302246,46.64799880981445 C16.226999282836914,47.308998107910156 14.23900032043457,47.875 12.109999656677246,48.316001892089844 C-7.764999866485596,52.428001403808594 -38.89400100708008,33.35900115966797 -44.77299880981445,4.453999996185303 C-48.62900161743164,-14.505999565124512 -43.40299987792969,-35.97999954223633 -20.101999282836914,-44.20399856567383 C3.1989998817443848,-52.428001403808594 36.06399917602539,-35.05699920654297 44.19900131225586,-12.954999923706055 C48.630001068115234,-0.9160000085830688 47.448001861572266,8.487000465393066 45.28900146484375,14.833000183105469z"></path><path stroke-linecap="butt" stroke-linejoin="miter" fill-opacity="0" stroke-miterlimit="10" stroke="rgb(105,69,52)" stroke-opacity="1" stroke-width="12" d=" M45.28900146484375,14.833000183105469 C40.71200180053711,28.288999557495117 31.466999053955078,41.875 18.07900047302246,46.64799880981445 C16.226999282836914,47.308998107910156 14.23900032043457,47.875 12.109999656677246,48.316001892089844 C-7.764999866485596,52.428001403808594 -38.89400100708008,33.35900115966797 -44.77299880981445,4.453999996185303 C-48.62900161743164,-14.505999565124512 -43.40299987792969,-35.97999954223633 -20.101999282836914,-44.20399856567383 C3.1989998817443848,-52.428001403808594 36.06399917602539,-35.05699920654297 44.19900131225586,-12.954999923706055 C48.630001068115234,-0.9160000085830688 47.448001861572266,8.487000465393066 45.28900146484375,14.833000183105469z"></path></g><g opacity="1" transform="matrix(1,0,0,1,290.0719909667969,134.3159942626953)"><path fill="rgb(255,255,255)" fill-opacity="1" d=" M-54.51499938964844,-10.623000144958496 C-54.45899963378906,-17.04599952697754 -50.5629997253418,-21.69499969482422 -45.74700164794922,-25.94499969482422 C-36.305999755859375,-34.2760009765625 0.31200000643730164,-53.11399841308594 18.81599998474121,-41.4630012512207 C54.59000015258789,-18.93899917602539 24.983999252319336,35.29499816894531 13.333000183105469,44.20500183105469 C1.6829999685287476,53.11399841308594 -23.674999237060547,43.52000045776367 -39.4379997253418,27.756999969482422 C-53.83000183105469,13.364999771118164 -54.59000015258789,-2.003000020980835 -54.51499938964844,-10.623000144958496z"></path><path stroke-linecap="butt" stroke-linejoin="miter" fill-opacity="0" stroke-miterlimit="10" stroke="rgb(105,69,52)" stroke-opacity="1" stroke-width="12" d=" M-54.51499938964844,-10.623000144958496 C-54.45899963378906,-17.04599952697754 -50.5629997253418,-21.69499969482422 -45.74700164794922,-25.94499969482422 C-36.305999755859375,-34.2760009765625 0.31200000643730164,-53.11399841308594 18.81599998474121,-41.4630012512207 C54.59000015258789,-18.93899917602539 24.983999252319336,35.29499816894531 13.333000183105469,44.20500183105469 C1.6829999685287476,53.11399841308594 -23.674999237060547,43.52000045776367 -39.4379997253418,27.756999969482422 C-53.83000183105469,13.364999771118164 -54.59000015258789,-2.003000020980835 -54.51499938964844,-10.623000144958496z"></path></g><g opacity="1" transform="matrix(1,0,0,1,33.49300003051758,172.33299255371094)"><path fill="rgb(241,209,182)" fill-opacity="1" d=" M-5.993000030517578,-10.352999687194824 C-5.993000030517578,-10.352999687194824 -2.7249999046325684,-0.5440000295639038 1.6339999437332153,4.90500020980835 C1.6339999437332153,4.90500020980835 5.993000030517578,10.352999687194824 5.993000030517578,10.352999687194824"></path><path stroke-linecap="round" stroke-linejoin="round" fill-opacity="0" stroke="rgb(183,106,68)" stroke-opacity="1" stroke-width="11" d=" M-5.993000030517578,-10.352999687194824 C-5.993000030517578,-10.352999687194824 -2.7249999046325684,-0.5440000295639038 1.6339999437332153,4.90500020980835 C1.6339999437332153,4.90500020980835 5.993000030517578,10.352999687194824 5.993000030517578,10.352999687194824"></path></g><g opacity="1" transform="matrix(1,0,0,1,275.7820129394531,141.27499389648438)"><path fill="rgb(207,227,248)" fill-opacity="1" d=" M-15.437999725341797,-35.236000061035156 C-15.437999725341797,-35.236000061035156 -31.55500030517578,-28.003999710083008 -33.60100173950195,-19.614999771118164 C-37.233001708984375,-4.7220001220703125 -29.725000381469727,10.89900016784668 -14.711000442504883,22.159000396728516 C2.7249999046325684,35.236000061035156 16.165000915527344,34.87200164794922 21.61400032043457,33.41899871826172 C27.062000274658203,31.965999603271484 37.233001708984375,11.98799991607666 37.233001708984375,11.98799991607666 C37.233001708984375,11.98799991607666 21.25,24.701000213623047 7.447000026702881,19.253000259399414 C-6.35699987411499,13.803999900817871 -22.34000015258789,-4.359000205993652 -23.06599998474121,-15.982999801635742 C-23.67799949645996,-25.777999877929688 -15.437999725341797,-35.236000061035156 -15.437999725341797,-35.236000061035156z"></path></g><g opacity="1" transform="matrix(1,0,0,1,102.38099670410156,146.90499877929688)"><path fill="rgb(207,227,248)" fill-opacity="1" d=" M11.208999633789062,-36.50699996948242 C11.208999633789062,-36.50699996948242 22.83300018310547,-19.433000564575195 10.845999717712402,2.361999988555908 C-1.1419999599456787,24.156999588012695 -17.125,22.70400047302246 -22.937000274658203,21.976999282836914 C-28.749000549316406,21.250999450683594 -33.108001708984375,19.434999465942383 -33.108001708984375,19.434999465942383 C-33.108001708984375,19.434999465942383 -25.447999954223633,29.827999114990234 -13.491999626159668,32.512001037597656 C4.307000160217285,36.50699996948242 17.020999908447266,29.242000579833984 23.559999465942383,16.165000915527344 C30.097999572753906,3.0880000591278076 33.108001708984375,-1.996000051498413 29.371999740600586,-16.527000427246094 C26.101999282836914,-29.240999221801758 11.208999633789062,-36.50699996948242 11.208999633789062,-36.50699996948242z"></path></g><g opacity="1" transform="matrix(1,0,0,1,-31.662017822265625,20.843002319335938)"><g opacity="1" transform="matrix(1,0,0,1,309.2309875488281,114.78500366210938)"><path fill="rgb(44,31,25)" fill-opacity="1" d=" M11.993000030517578,0 C11.993000030517578,6.056000232696533 6.623000144958496,10.96500015258789 0,10.96500015258789 C-6.624000072479248,10.96500015258789 -11.993000030517578,6.056000232696533 -11.993000030517578,0 C-11.993000030517578,-6.056000232696533 -6.624000072479248,-10.96500015258789 0,-10.96500015258789 C6.623000144958496,-10.96500015258789 11.993000030517578,-6.056000232696533 11.993000030517578,0z"></path></g><g opacity="1" transform="matrix(1,0,0,1,298.3039855957031,119.4800033569336)"><path fill="rgb(255,255,255)" fill-opacity="1" d=" M7.046000003814697,-2.8289999961853027 C7.9029998779296875,-0.6940000057220459 5.442999839782715,2.302999973297119 1.5509999990463257,3.865000009536743 C-2.3399999141693115,5.427000045776367 -6.189000129699707,4.964000225067139 -7.046000003814697,2.8289999961853027 C-7.9029998779296875,0.6940000057220459 -5.442999839782715,-2.302999973297119 -1.5520000457763672,-3.865000009536743 C2.3399999141693115,-5.427000045776367 6.189000129699707,-4.964000225067139 7.046000003814697,-2.8289999961853027z"></path></g></g><g opacity="1" transform="matrix(0.7834006547927856,-0.62151700258255,0.62151700258255,0.7834006547927856,-50.257225036621094,87.71912384033203)"><g opacity="1" transform="matrix(1,0,0,1,71.40299987792969,124.48400115966797)"><path fill="rgb(44,31,25)" fill-opacity="1" d=" M12.586999893188477,0 C12.586999893188477,6.755000114440918 6.952000141143799,12.230999946594238 0,12.230999946594238 C-6.952000141143799,12.230999946594238 -12.586999893188477,6.755000114440918 -12.586999893188477,0 C-12.586999893188477,-6.755000114440918 -6.952000141143799,-12.230999946594238 0,-12.230999946594238 C6.952000141143799,-12.230999946594238 12.586999893188477,-6.755000114440918 12.586999893188477,0z"></path></g><g opacity="1" transform="matrix(1,0,0,1,82.71399688720703,131.4290008544922)"><path fill="rgb(255,255,255)" fill-opacity="1" d=" M5.906000137329102,4.770999908447266 C4.460000038146973,6.560999870300293 0.6439999938011169,5.875 -2.618000030517578,3.240000009536743 C-5.880000114440918,0.6050000190734863 -7.3520002365112305,-2.9820001125335693 -5.9070000648498535,-4.770999908447266 C-4.460999965667725,-6.560999870300293 -0.6449999809265137,-5.875999927520752 2.617000102996826,-3.240999937057495 C5.879000186920166,-0.6050000190734863 7.3520002365112305,2.9809999465942383 5.906000137329102,4.770999908447266z"></path></g></g><g opacity="1" transform="matrix(1,0,0,1,190.41799926757812,37.02199935913086)"><path fill="rgb(212,139,109)" fill-opacity="0.67" d=" M-52.48899841308594,-11.62399959564209 C-51.39899826049805,-11.26099967956543 -31.875,-8.263999938964844 -7.083000183105469,-4.7220001220703125 C12.336000442504883,-1.9479999542236328 45.224998474121094,-11.987000465393066 50.31100082397461,-12.71399974822998 C55.395999908447266,-13.4399995803833 16.527999877929688,8.354999542236328 6.71999979019165,10.89799976348877 C-3.0880000591278076,13.4399995803833 -23.06599998474121,10.534000396728516 -30.694000244140625,7.264999866485596 C-38.321998596191406,3.996000051498413 -55.39500045776367,-11.62399959564209 -55.39500045776367,-11.62399959564209 C-55.39500045776367,-11.62399959564209 -52.48899841308594,-11.62399959564209 -52.48899841308594,-11.62399959564209z"></path></g><g opacity="1" transform="matrix(1,0,0,1,186.04400634765625,38.972999572753906)"><path stroke-linecap="round" stroke-linejoin="round" fill-opacity="0" stroke="rgb(183,106,68)" stroke-opacity="1" stroke-width="11" d=" M-53.2869987487793,-11.472999572753906 C-53.2869987487793,-11.472999572753906 -16.909000396728516,6.13700008392334 -2.7090001106262207,8.583000183105469 C14.062000274658203,11.472000122070312 32.380001068115234,-1.8769999742507935 38.54800033569336,-4.61899995803833 C44.715999603271484,-7.360000133514404 53.2869987487793,-9.416000366210938 53.2869987487793,-9.416000366210938"></path></g></g><g style="display: block;" transform="matrix(1.3460333347320557,0,0,1.3791191577911377,-45.764251708984375,148.5208740234375)" opacity="1"><g opacity="1" transform="matrix(1,0,0,1,139.15699768066406,141.11500549316406)"><path fill="url(#__lottie_element_45)" mask="url(#__lottie_element_47)" fill-opacity="1" d="M0 0 M-28.872549057006836,-49.24109649658203 C-23.601581573486328,-55.194580078125 -19.180612564086914,-64.36283874511719 -17.36890411376953,-71.79728698730469 C-14.238483428955078,-89.71642303466797 -9.35161304473877,-106.8031005859375 7.57738733291626,-109.03106689453125 C30.630226135253906,-112.13551330566406 45.15258026123047,-89.11238861083984 44.26945114135742,-66.40026092529297 C43.412288665771484,-49.71883773803711 23.277902603149414,-28.826515197753906 23.277902603149414,-28.826515197753906 C23.277902603149414,-28.826515197753906 26.95003318786621,0.9281612634658813 41.41203308105469,16.296161651611328 C55.875030517578125,31.664161682128906 98.20348358154297,46.20684051513672 83.29548645019531,66.41683959960938 C76.34048461914062,75.84584045410156 27.496000289916992,91.82099914550781 10.623000144958496,95.95899963378906 C-6.249000072479248,100.09600067138672 -27.94300079345703,100.68699645996094 -55.060001373291016,92.41200256347656 C-82.177001953125,84.13800048828125 -98.4469985961914,61.08599853515625 -92.4209976196289,35.66999816894531 C-86.3949966430664,10.253999710083008 -62.29100036621094,-11.02299976348877 -55.060001373291016,-20.479999542236328 C-51.14699935913086,-25.597000122070312 -35.1721305847168,-42.19503402709961 -28.872549057006836,-49.24109649658203z"></path><path stroke-linecap="butt" stroke-linejoin="round" fill-opacity="0" stroke="rgb(169,97,62)" stroke-opacity="1" stroke-width="12.171" d=" M-28.872549057006836,-49.24109649658203 C-23.601581573486328,-55.194580078125 -19.180612564086914,-64.36283874511719 -17.36890411376953,-71.79728698730469 C-14.238483428955078,-89.71642303466797 -9.35161304473877,-106.8031005859375 7.57738733291626,-109.03106689453125 C30.630226135253906,-112.13551330566406 45.15258026123047,-89.11238861083984 44.26945114135742,-66.40026092529297 C43.412288665771484,-49.71883773803711 23.277902603149414,-28.826515197753906 23.277902603149414,-28.826515197753906 C23.277902603149414,-28.826515197753906 26.95003318786621,0.9281612634658813 41.41203308105469,16.296161651611328 C55.875030517578125,31.664161682128906 98.20348358154297,46.20684051513672 83.29548645019531,66.41683959960938 C76.34048461914062,75.84584045410156 27.496000289916992,91.82099914550781 10.623000144958496,95.95899963378906 C-6.249000072479248,100.09600067138672 -27.94300079345703,100.68699645996094 -55.060001373291016,92.41200256347656 C-82.177001953125,84.13800048828125 -98.4469985961914,61.08599853515625 -92.4209976196289,35.66999816894531 C-86.3949966430664,10.253999710083008 -62.29100036621094,-11.02299976348877 -55.060001373291016,-20.479999542236328 C-51.14699935913086,-25.597000122070312 -35.1721305847168,-42.19503402709961 -28.872549057006836,-49.24109649658203z"></path></g><g opacity="1" transform="matrix(1,0,0,1,161.97300720214844,131.58200073242188)"><path fill="rgb(225,123,82)" fill-opacity="0.62" d=" M-32.72700119018555,-12.378000259399414 C-32.72700119018555,-12.378000259399414 -36.27851486206055,-17.728483200073242 -34.79270935058594,-27.694612503051758 C-32.66312789916992,-38.46009826660156 -20.588903427124023,-61.09038543701172 -20.588903427124023,-61.09038543701172 C-20.588903427124023,-61.09038543701172 -15.870548248291016,-53.22758102416992 -3.934000015258789,-51.97084045410156 C4.791032314300537,-50.805320739746094 12.300193786621094,-54.9581298828125 12.300193786621094,-54.9581298828125 C12.300193786621094,-54.9581298828125 7.726548194885254,-38.559322357177734 -3.314741849899292,-26.315095901489258 C-9.22661304473877,-19.74774169921875 -5.710000038146973,-11.952902793884277 -4.6270647048950195,-6.207483768463135 C-3.556161403656006,0.5719032287597656 3.43274188041687,20.412967681884766 13.082741737365723,29.64396858215332 C22.733741760253906,38.874969482421875 34.440452575683594,47.07145309448242 34.440452575683594,47.07145309448242 C34.440452575683594,47.07145309448242 28.11199951171875,48.04199981689453 20.55900001525879,50.560001373291016 C18.238000869750977,51.33300018310547 12.586999893188477,53.49700164794922 12.586999893188477,53.49700164794922 C12.586999893188477,53.49700164794922 -3.246354818344116,30.704580307006836 -7.015354633331299,24.29557991027832 C-11.211355209350586,17.162580490112305 -32.72700119018555,-12.378000259399414 -32.72700119018555,-12.378000259399414z"></path></g><g opacity="1" transform="matrix(1,0,0,1,110.74299621582031,183.76800537109375)"><path fill="url(#__lottie_element_48)" mask="url(#__lottie_element_50)" fill-opacity="1" d="M0 0 M14.075419425964355,-57.66658020019531 C14.075419425964355,-57.66658020019531 43.75941848754883,-19.3083553314209 52.79841995239258,-3.3493547439575195 C61.83741760253906,12.609644889831543 70.81941986083984,23.687387466430664 65.99942016601562,33.144386291503906 C61.17842102050781,42.60138702392578 56.05500030517578,45.159000396728516 56.05500030517578,45.159000396728516 C56.05500030517578,45.159000396728516 52.15419387817383,45.65538787841797 43.11519241333008,54.521385192871094 C34.076194763183594,63.387386322021484 14.062548637390137,61.747676849365234 14.062548637390137,61.747676849365234 C14.062548637390137,61.747676849365234 13.091419219970703,69.60277557373047 -1.9735805988311768,69.60277557373047 C-17.0385799407959,69.60277557373047 -43.516937255859375,47.886775970458984 -51.95393371582031,39.020774841308594 C-60.38993453979492,30.154773712158203 -69.91322326660156,14.495580673217773 -66.90022277832031,3.8565807342529297 C-63.88722610473633,-6.782419204711914 -59.700225830078125,-6.405580520629883 -59.700225830078125,-6.405580520629883 C-59.700225830078125,-6.405580520629883 -61.878292083740234,-21.419645309448242 -55.8992919921875,-30.545644760131836 C-50.15129089355469,-39.31864547729492 -40.51709747314453,-38.828678131103516 -40.51709747314453,-38.828678131103516 C-40.51709747314453,-38.828678131103516 -39.97587203979492,-64.87025451660156 -15.744871139526367,-69.90525817871094"></path><path stroke-linecap="round" stroke-linejoin="round" fill-opacity="0" stroke="rgb(169,97,62)" stroke-opacity="1" stroke-width="12.171" d=" M14.075419425964355,-57.66658020019531 C14.075419425964355,-57.66658020019531 43.75941848754883,-19.3083553314209 52.79841995239258,-3.3493547439575195 C61.83741760253906,12.609644889831543 70.81941986083984,23.687387466430664 65.99942016601562,33.144386291503906 C61.17842102050781,42.60138702392578 56.05500030517578,45.159000396728516 56.05500030517578,45.159000396728516 C56.05500030517578,45.159000396728516 52.15419387817383,45.65538787841797 43.11519241333008,54.521385192871094 C34.076194763183594,63.387386322021484 14.062548637390137,61.747676849365234 14.062548637390137,61.747676849365234 C14.062548637390137,61.747676849365234 13.091419219970703,69.60277557373047 -1.9735805988311768,69.60277557373047 C-17.0385799407959,69.60277557373047 -43.516937255859375,47.886775970458984 -51.95393371582031,39.020774841308594 C-60.38993453979492,30.154773712158203 -69.91322326660156,14.495580673217773 -66.90022277832031,3.8565807342529297 C-63.88722610473633,-6.782419204711914 -59.700225830078125,-6.405580520629883 -59.700225830078125,-6.405580520629883 C-59.700225830078125,-6.405580520629883 -61.878292083740234,-21.419645309448242 -55.8992919921875,-30.545644760131836 C-50.15129089355469,-39.31864547729492 -40.51709747314453,-38.828678131103516 -40.51709747314453,-38.828678131103516 C-40.51709747314453,-38.828678131103516 -39.97587203979492,-64.87025451660156 -15.744871139526367,-69.90525817871094"></path></g><g opacity="1" transform="matrix(1,0,0,1,125.5530014038086,212.18600463867188)"><path fill="rgb(225,123,81)" fill-opacity="0.67" d=" M-41.18686294555664,20.981000900268555 C-41.18686294555664,20.981000900268555 -32.933414459228516,23.54199981689453 -24.961414337158203,21.02400016784668 C-16.98941421508789,18.506999969482422 -19.954862594604492,12.812827110290527 -19.954862594604492,12.812827110290527 C-19.954862594604492,12.812827110290527 -6.409758567810059,14.130827903747559 1.9812413454055786,7.836827754974365 C10.373241424560547,1.5428276062011719 12.353965759277344,-13.20199966430664 12.353965759277344,-13.20199966430664 C12.353965759277344,-13.20199966430664 21.19341468811035,-13.052172660827637 24.550413131713867,-18.92717170715332 C27.907413482666016,-24.801172256469727 26.199966430664062,-35.85917282104492 26.199966430664062,-35.85917282104492 C26.199966430664062,-35.85917282104492 38.683963775634766,-22.419172286987305 40.04596710205078,-11.523172378540039 C41.7249641418457,1.9038275480270386 30.64896583557129,4.025000095367432 28.716964721679688,8.616000175476074 C25.875965118408203,15.371000289916992 26.005966186523438,20.993000030517578 21.16496467590332,23.211999893188477 C11.094965934753418,27.82699966430664 3.420137882232666,26.79599952697754 -2.751862049102783,28.756999969482422 C-7.6668620109558105,30.316999435424805 -2.873448371887207,30.2549991607666 -8.747447967529297,32.77199935913086 C-13.848447799682617,34.95899963378906 -17.306724548339844,35.20000076293945 -20.944725036621094,34.39099884033203 C-32.27372360229492,31.874000549316406 -41.18686294555664,20.981000900268555 -41.18686294555664,20.981000900268555z"></path></g><g opacity="1" transform="matrix(1,0,0,1,135.32899475097656,201.23300170898438)"><path fill="rgb(241,209,182)" fill-opacity="1" d=" M-23.453533172607422,-24.789600372314453 C-23.453533172607422,-24.789600372314453 0.7053666710853577,2.5380001068115234 8.258366584777832,10.720000267028809 C15.8103666305542,18.900999069213867 24.545000076293945,24.54599952697754 24.545000076293945,24.54599952697754"></path><path stroke-linecap="round" stroke-linejoin="round" fill-opacity="0" stroke="rgb(169,97,62)" stroke-opacity="1" stroke-width="12.171" d=" M-23.453533172607422,-24.789600372314453 C-23.453533172607422,-24.789600372314453 0.7053666710853577,2.5380001068115234 8.258366584777832,10.720000267028809 C15.8103666305542,18.900999069213867 24.545000076293945,24.54599952697754 24.545000076293945,24.54599952697754"></path></g><g opacity="1" transform="matrix(1,0,0,1,111.41300201416016,228.29600524902344)"><path fill="rgb(241,209,182)" fill-opacity="1" d=" M-24.098793029785156,-20.680171966552734 C-24.098793029785156,-20.680171966552734 1.6188620328903198,2.8758275508880615 9.17186164855957,11.057827949523926 C16.723861694335938,19.23982810974121 25.354310989379883,17.891828536987305 25.354310989379883,17.891828536987305"></path><path stroke-linecap="round" stroke-linejoin="round" fill-opacity="0" stroke="rgb(169,97,62)" stroke-opacity="1" stroke-width="12.171" d=" M-24.098793029785156,-20.680171966552734 C-24.098793029785156,-20.680171966552734 1.6188620328903198,2.8758275508880615 9.17186164855957,11.057827949523926 C16.723861694335938,19.23982810974121 25.354310989379883,17.891828536987305 25.354310989379883,17.891828536987305"></path></g><g opacity="1" transform="matrix(1,0,0,1,194.07899475097656,213.00799560546875)"><path fill="rgb(255,195,158)" fill-opacity="1" d=" M11.447516441345215,-29.91435432434082 C11.447516441345215,-29.91435432434082 -11.610871315002441,-26.42938804626465 -24.05938720703125,-12.277871131896973 C-36.60951614379883,1.9382258653640747 -33.51722717285156,11.50270938873291 -22.481096267700195,21.80035400390625 C-14.285709381103516,29.70254898071289 4.814322471618652,25.091386795043945 16.18732261657715,18.626386642456055 C27.673322677612305,12.098386764526367 36.0037727355957,8.314322471618652 31.34967803955078,-14.49025821685791 C28.52400016784668,-28.37848472595215 11.447516441345215,-29.91435432434082 11.447516441345215,-29.91435432434082z"></path><path stroke-linecap="butt" stroke-linejoin="miter" fill-opacity="0" stroke-miterlimit="10" stroke="rgb(169,97,62)" stroke-opacity="1" stroke-width="12.171" d=" M11.447516441345215,-29.91435432434082 C11.447516441345215,-29.91435432434082 -11.610871315002441,-26.42938804626465 -24.05938720703125,-12.277871131896973 C-36.60951614379883,1.9382258653640747 -33.51722717285156,11.50270938873291 -22.481096267700195,21.80035400390625 C-14.285709381103516,29.70254898071289 4.814322471618652,25.091386795043945 16.18732261657715,18.626386642456055 C27.673322677612305,12.098386764526367 36.0037727355957,8.314322471618652 31.34967803955078,-14.49025821685791 C28.52400016784668,-28.37848472595215 11.447516441345215,-29.91435432434082 11.447516441345215,-29.91435432434082z"></path></g></g></g><g clip-path="url(#__lottie_element_4)" style="display: none;"><g style="display: none;"><g><path fill="url(#__lottie_element_22)" mask="url(#__lottie_element_24)"></path><path stroke-linecap="butt" stroke-linejoin="miter" fill-opacity="0" stroke-miterlimit="10"></path></g><g><path></path></g></g><g style="display: none;" mask="url(#__lottie_element_27_1)"><g><g><g><path></path><path stroke-linecap="butt" stroke-linejoin="miter" fill-opacity="0" stroke-miterlimit="10"></path></g><g><path stroke-linecap="round" stroke-linejoin="round" fill-opacity="0"></path></g><g><path stroke-linecap="round" stroke-linejoin="round" fill-opacity="0"></path></g><g><path></path><path stroke-linecap="round" stroke-linejoin="round" fill-opacity="0"></path></g><g><path></path><path stroke-linecap="round" stroke-linejoin="round" fill-opacity="0"></path></g><g><g><path></path><path stroke-linecap="butt" stroke-linejoin="miter" fill-opacity="0" stroke-miterlimit="10"></path></g><g><path></path><path stroke-linecap="butt" stroke-linejoin="miter" fill-opacity="0" stroke-miterlimit="10"></path></g><g><path></path><path stroke-linecap="butt" stroke-linejoin="miter" fill-opacity="0" stroke-miterlimit="10"></path></g></g><g><g><path></path><path stroke-linecap="butt" stroke-linejoin="miter" fill-opacity="0" stroke-miterlimit="10"></path></g><g><path></path><path stroke-linecap="butt" stroke-linejoin="miter" fill-opacity="0" stroke-miterlimit="10"></path></g><g><path></path><path stroke-linecap="butt" stroke-linejoin="miter" fill-opacity="0" stroke-miterlimit="10"></path></g><g><path></path><path stroke-linecap="butt" stroke-linejoin="miter" fill-opacity="0" stroke-miterlimit="10"></path></g><g><path></path><path stroke-linecap="butt" stroke-linejoin="miter" fill-opacity="0" stroke-miterlimit="10"></path></g></g></g></g></g><g style="display: none;"><g><g><path stroke-linecap="butt" stroke-linejoin="miter" fill-opacity="0" stroke-miterlimit="10"></path></g></g></g><g style="display: none;"><g><path stroke-linecap="round" stroke-linejoin="round" fill-opacity="0"></path></g></g><g style="display: none;"><g><path></path></g><g><path></path></g><g><path stroke-linecap="round" stroke-linejoin="round" fill-opacity="0"></path></g><g><path stroke-linecap="round" stroke-linejoin="round" fill-opacity="0"></path></g><g><path stroke-linecap="round" stroke-linejoin="round" fill-opacity="0"></path></g><g><path stroke-linecap="round" stroke-linejoin="round" fill-opacity="0"></path></g><g><path></path><path stroke-linecap="butt" stroke-linejoin="miter" fill-opacity="0" stroke-miterlimit="10"></path></g><g><path></path><path stroke-linecap="butt" stroke-linejoin="miter" fill-opacity="0" stroke-miterlimit="10"></path></g><g><path></path><path stroke-linecap="round" stroke-linejoin="round" fill-opacity="0"></path></g><g><path></path></g><g><path></path></g><g><g><path></path></g><g><path></path></g></g><g><g><path></path></g><g><path></path></g></g><g><path></path></g><g><path stroke-linecap="round" stroke-linejoin="round" fill-opacity="0"></path></g></g><g style="display: none;"><g><path fill="url(#__lottie_element_10)" mask="url(#__lottie_element_12)"></path><path stroke-linecap="butt" stroke-linejoin="round" fill-opacity="0"></path></g><g><path></path></g><g><path fill="url(#__lottie_element_13)" mask="url(#__lottie_element_15)"></path><path stroke-linecap="round" stroke-linejoin="round" fill-opacity="0"></path></g><g><path></path></g><g><path></path><path stroke-linecap="round" stroke-linejoin="round" fill-opacity="0"></path></g><g><path></path><path stroke-linecap="round" stroke-linejoin="round" fill-opacity="0"></path></g><g><path></path><path stroke-linecap="butt" stroke-linejoin="miter" fill-opacity="0" stroke-miterlimit="10"></path></g></g></g></g></svg>