<svg xmlns="http://www.w3.org/2000/svg" xmlns:xlink="http://www.w3.org/1999/xlink" viewBox="0 0 512 512" width="512" height="512" style="width: 100%; height: 100%; transform: translate3d(0,0,0); content-visibility: visible;" preserveAspectRatio="xMidYMid meet"><defs><clipPath id="__lottie_element_2"><rect width="512" height="512" x="0" y="0"></rect></clipPath><radialGradient id="__lottie_element_7" spreadMethod="pad" gradientUnits="userSpaceOnUse" cx="56.05799865722656" cy="67.99299621582031" r="122.457680926239" fx="56.05799865722656" fy="67.99299621582031"><stop offset="2%" stop-color="rgb(249,0,54)"></stop><stop offset="51%" stop-color="rgb(231,0,27)"></stop><stop offset="100%" stop-color="rgb(212,0,0)"></stop></radialGradient><radialGradient id="__lottie_element_8" spreadMethod="pad" gradientUnits="userSpaceOnUse" cx="56.05799865722656" cy="67.99299621582031" r="122.457680926239" fx="56.05799865722656" fy="67.99299621582031"><stop offset="2%" stop-color="rgb(249,0,54)"></stop><stop offset="51%" stop-color="rgb(231,0,27)"></stop><stop offset="100%" stop-color="rgb(212,0,0)"></stop></radialGradient><radialGradient id="__lottie_element_9" spreadMethod="pad" gradientUnits="userSpaceOnUse" cx="45.19599914550781" cy="12.234000205993652" r="66.00164748060895" fx="45.19599914550781" fy="12.234000205993652"><stop offset="11%" stop-color="rgb(255,255,255)" stop-opacity="0.699999988079071"></stop><stop offset="56%" stop-color="rgb(255,255,255)" stop-opacity="0.3499999940395355"></stop><stop offset="100%" stop-color="rgb(255,255,255)" stop-opacity="0"></stop></radialGradient><radialGradient id="__lottie_element_10" spreadMethod="pad" gradientUnits="userSpaceOnUse" cx="27.09600067138672" cy="19.732999801635742" r="192.16217739227065" fx="-15.553773171686629" fy="148.8713282539166"><stop offset="0%" stop-color="rgb(249,228,212)"></stop><stop offset="50%" stop-color="rgb(250,212,184)"></stop><stop offset="100%" stop-color="rgb(251,197,156)"></stop></radialGradient><radialGradient id="__lottie_element_14" spreadMethod="pad" gradientUnits="userSpaceOnUse" cx="145" cy="124" r="123.93088355128747" fx="145" fy="124"><stop offset="2%" stop-color="rgb(249,0,54)"></stop><stop offset="51%" stop-color="rgb(231,0,27)"></stop><stop offset="100%" stop-color="rgb(212,0,0)"></stop></radialGradient><radialGradient id="__lottie_element_15" spreadMethod="pad" gradientUnits="userSpaceOnUse" cx="218" cy="41" r="81.41953602316111" fx="218" fy="41"><stop offset="11%" stop-color="rgb(255,255,255)" stop-opacity="0.699999988079071"></stop><stop offset="56%" stop-color="rgb(255,255,255)" stop-opacity="0.3499999940395355"></stop><stop offset="100%" stop-color="rgb(255,255,255)" stop-opacity="0"></stop></radialGradient><radialGradient id="__lottie_element_16" spreadMethod="pad" gradientUnits="userSpaceOnUse" cx="150.69500732421875" cy="205.7790069580078" r="255.05682687799236" fx="150.69500732421875" fy="205.7790069580078"><stop offset="0%" stop-color="rgb(249,228,212)"></stop><stop offset="50%" stop-color="rgb(250,212,184)"></stop><stop offset="100%" stop-color="rgb(251,197,156)"></stop></radialGradient><radialGradient id="__lottie_element_22" spreadMethod="pad" gradientUnits="userSpaceOnUse" cx="94" cy="-141" r="285.95209704506306" fx="94" fy="-141"><stop offset="4%" stop-color="rgb(249,228,212)"></stop><stop offset="52%" stop-color="rgb(250,212,184)"></stop><stop offset="100%" stop-color="rgb(251,197,156)"></stop></radialGradient><linearGradient id="__lottie_element_23" spreadMethod="pad" gradientUnits="userSpaceOnUse" x1="-24" y1="-162" x2="-16.01099967956543" y2="151.55799865722656"><stop offset="4%" stop-color="rgb(250,214,188)"></stop><stop offset="52%" stop-color="rgb(246,184,147)"></stop><stop offset="100%" stop-color="rgb(242,154,106)"></stop></linearGradient><radialGradient id="__lottie_element_27" spreadMethod="pad" gradientUnits="userSpaceOnUse" cx="151" cy="-224" r="412.33850747362203" fx="151" fy="-224"><stop offset="4%" stop-color="rgb(249,228,212)"></stop><stop offset="52%" stop-color="rgb(250,212,184)"></stop><stop offset="100%" stop-color="rgb(251,197,156)"></stop></radialGradient><radialGradient id="__lottie_element_28" spreadMethod="pad" gradientUnits="userSpaceOnUse" cx="-8.9399995803833" cy="-167.51600646972656" r="18.2605625743426" fx="-8.9399995803833" fy="-167.51600646972656"><stop offset="4%" stop-color="rgb(249,228,212)"></stop><stop offset="52%" stop-color="rgb(250,212,184)"></stop><stop offset="100%" stop-color="rgb(251,197,156)"></stop></radialGradient><radialGradient id="__lottie_element_29" spreadMethod="pad" gradientUnits="userSpaceOnUse" cx="-57" cy="-237" r="288.99917703394215" fx="-57" fy="-237"><stop offset="4%" stop-color="rgb(249,228,212)"></stop><stop offset="52%" stop-color="rgb(250,212,184)"></stop><stop offset="100%" stop-color="rgb(251,197,156)"></stop></radialGradient><linearGradient id="__lottie_element_34" spreadMethod="pad" gradientUnits="userSpaceOnUse" x1="-61" y1="-211" x2="-99.32099914550781" y2="-36.21900177001953"><stop offset="4%" stop-color="rgb(250,214,188)"></stop><stop offset="52%" stop-color="rgb(246,184,147)"></stop><stop offset="100%" stop-color="rgb(242,154,106)"></stop></linearGradient><linearGradient id="__lottie_element_35" spreadMethod="pad" gradientUnits="userSpaceOnUse" x1="82" y1="-204" x2="41.887001037597656" y2="-21.045000076293945"><stop offset="4%" stop-color="rgb(250,214,188)"></stop><stop offset="52%" stop-color="rgb(246,184,147)"></stop><stop offset="100%" stop-color="rgb(242,154,106)"></stop></linearGradient></defs><g clip-path="url(#__lottie_element_2)"><g style="display: block;" transform="matrix(1,0,0,1,256,256)" opacity="1"><g opacity="1" transform="matrix(1,0,0,1,0,0)"><path fill="url(#__lottie_element_22)" fill-opacity="1" d=" M-135.77099609375,-71.62799835205078 C-135.77099609375,-71.62799835205078 -174.73899841308594,80.83499908447266 -56.86000061035156,126.62300109863281 C41.63999938964844,164.88299560546875 134.0850067138672,104.45999908447266 134.0850067138672,104.45999908447266 C134.0850067138672,104.45999908447266 90.71800231933594,174.3939971923828 -54.66400146484375,146.74200439453125 C-188.39199829101562,121.30699920654297 -180.74899291992188,-45.513999938964844 -153.468994140625,-58.638999938964844 C-153.468994140625,-58.638999938964844 -135.77099609375,-71.62799835205078 -135.77099609375,-71.62799835205078z M23.709999084472656,-206.0449981689453 C208.43099975585938,-200.531005859375 184.2570037841797,41.380001068115234 151.44000244140625,95.8270034790039 C122.25,144.25599670410156 27.89699935913086,160.95599365234375 -40.15599822998047,150.6179962158203 C-108.20899963378906,140.27999877929688 -177.68499755859375,86.26899719238281 -170.3560028076172,0.46299999952316284 C-163.02699279785156,-85.34300231933594 -155.98699951171875,-211.40899658203125 23.709999084472656,-206.0449981689453z"></path><g opacity="1" transform="matrix(1,0,0,1,0,0)"><path fill="url(#__lottie_element_23)" fill-opacity="1" d=" M-135.77099609375,-71.62799835205078 C-135.77099609375,-71.62799835205078 -174.73899841308594,80.83499908447266 -56.86000061035156,126.62300109863281 C41.63999938964844,164.88299560546875 134.0850067138672,104.45999908447266 134.0850067138672,104.45999908447266 C134.0850067138672,104.45999908447266 90.71800231933594,174.3939971923828 -54.66400146484375,146.74200439453125 C-188.39199829101562,121.30699920654297 -180.74899291992188,-45.513999938964844 -153.468994140625,-58.638999938964844 C-153.468994140625,-58.638999938964844 -135.77099609375,-71.62799835205078 -135.77099609375,-71.62799835205078z"></path></g><path stroke-linecap="butt" stroke-linejoin="miter" fill-opacity="0" stroke-miterlimit="10" stroke="rgb(184,99,72)" stroke-opacity="1" stroke-width="14.772" d=" M23.709999084472656,-206.0449981689453 C208.43099975585938,-200.531005859375 184.2570037841797,41.380001068115234 151.44000244140625,95.8270034790039 C122.25,144.25599670410156 27.89699935913086,160.95599365234375 -40.15599822998047,150.6179962158203 C-108.20899963378906,140.27999877929688 -177.68499755859375,86.26899719238281 -170.3560028076172,0.46299999952316284 C-163.02699279785156,-85.34300231933594 -155.98699951171875,-211.40899658203125 23.709999084472656,-206.0449981689453z"></path></g></g><g style="display: block;" transform="matrix(1,0,0,1,256,256)" opacity="1"><g opacity="1" transform="matrix(1,0,0,1,0,0)"><path fill="rgb(104,27,12)" fill-opacity="1" d=" M-98.8479995727539,63.46900177001953 C-98.8479995727539,63.46900177001953 -97.54000091552734,55.72200012207031 -90.04100036621094,53.24300003051758 C-82.54199981689453,50.763999938964844 -12.583999633789062,63.12799835205078 -4.156000137329102,62.0880012512207 C4.271999835968018,61.04800033569336 17.80699920654297,81.86100006103516 17.565000534057617,84.91400146484375 C17.322999954223633,87.96700286865234 -9.14799976348877,90.02300262451172 -43.8120002746582,88.6449966430664 C-78.47599792480469,87.26699829101562 -81.06600189208984,67.26499938964844 -86.48799896240234,65.47100067138672 C-91.91000366210938,63.676998138427734 -101.26699829101562,63.27799987792969 -98.8479995727539,63.46900177001953z"></path></g><g opacity="1" transform="matrix(1,0,0,1,0,0)"><path fill="rgb(255,255,255)" fill-opacity="1" d=" M-78.50800323486328,54.500999450683594 C-78.50800323486328,54.500999450683594 -79.47599792480469,66.63999938964844 -71.05999755859375,69.4229965209961 C-7.9079999923706055,90.31099700927734 4.954999923706055,65.01499938964844 4.954999923706055,65.01499938964844 C4.954999923706055,65.01499938964844 -78.50800323486328,54.500999450683594 -78.50800323486328,54.500999450683594z"></path></g><g opacity="1" transform="matrix(1,0,0,1,0,0)"><path stroke-linecap="round" stroke-linejoin="round" fill-opacity="0" stroke="rgb(58,6,6)" stroke-opacity="1" stroke-width="11.169" d=" M-99.23400115966797,63.46900177001953 C-99.23400115966797,63.46900177001953 -97.92500305175781,55.72200012207031 -90.4260025024414,53.24300003051758 C-82.927001953125,50.763999938964844 -49.316001892089844,63.45100021362305 -4.540999889373779,62.0880012512207 C12.406000137329102,61.571998596191406 17.422000885009766,82.83599853515625 17.18000030517578,85.88899993896484 C16.937999725341797,88.94200134277344 -9.520999908447266,89.66000366210938 -44.198001861572266,88.6449966430664 C-76.927001953125,87.68699645996094 -85.77300262451172,62.696998596191406 -99.23400115966797,63.46900177001953z"></path></g></g><g style="display: block;" transform="matrix(1,0,0,1,256,256)" opacity="1"><g opacity="1" transform="matrix(1,0,0,1,0,0)"><g opacity="1" transform="matrix(1,0,0,1,0,0)"><path fill="url(#__lottie_element_34)" fill-opacity="1" d=" M-49.310001373291016,-144.69400024414062 C-49.310001373291016,-144.69400024414062 -14.585000038146973,-62.520999908447266 -52.233001708984375,5.091000080108643 C-59.77299880981445,18.632999420166016 -95.86699676513672,5.017000198364258 -116.32499694824219,13.78499984741211 C-136.7830047607422,22.55299949645996 -135.593994140625,-146.9199981689453 -135.593994140625,-146.9199981689453 C-135.593994140625,-146.9199981689453 -49.310001373291016,-144.69400024414062 -49.310001373291016,-144.69400024414062z"></path></g><g opacity="1" transform="matrix(1,0,0,1,0,0)"><path fill="url(#__lottie_element_35)" fill-opacity="1" d=" M-15.699999809265137,-79.66600036621094 C-4.285999774932861,-118.60900115966797 -11.83899974822998,-146.5749969482422 37.827999114990234,-145.76400756835938 C87.49500274658203,-144.9530029296875 130.5970001220703,-81.30500030517578 116.75499725341797,-34.24700164794922 C102.91300201416016,12.810999870300293 85.07599639892578,43.327999114990234 76.12000274658203,43.327999114990234 C67.16400146484375,43.327999114990234 15.237000465393066,10.458999633789062 -9.189000129699707,-0.08900000154972076 C-20.142000198364258,-4.818999767303467 -32.696998596191406,-21.67099952697754 -15.699999809265137,-79.66600036621094z"></path></g></g><g opacity="1" transform="matrix(1,0,0,1,0,0)"><path fill="rgb(255,255,255)" fill-opacity="1" d=" M0.7229999899864197,10.116999626159668 C-5.940999984741211,8.659000396728516 -10.996000289916992,3.117000102996826 -11.91100025177002,-3.7639999389648438 C-13.019000053405762,-12.093999862670898 -13.906999588012695,-26.742000579833984 -10.067000389099121,-45.9109992980957 C-2.2139999866485596,-85.11699676513672 12.706999778747559,-115.52200317382812 60.611000061035156,-114.72200012207031 C108.51499938964844,-113.9219970703125 133.64500427246094,-63.513999938964844 120.29499816894531,-17.10700035095215 C106.94499969482422,29.299999237060547 83.38500213623047,42.10200119018555 74.74700164794922,42.10200119018555 C66.10900115966797,42.10200119018555 51.1870002746582,29.301000595092773 27.628000259399414,18.89900016784668 C17.06399917602539,14.234999656677246 7.394000053405762,11.576000213623047 0.7229999899864197,10.116999626159668z"></path></g><g opacity="1" transform="matrix(1,0,0,1,0,0)"><path fill="rgb(255,255,255)" fill-opacity="1" d=" M-160.0229949951172,-56.9900016784668 C-155.05299377441406,-78.29100036621094 -142.27200317382812,-105.46700286865234 -102.51100158691406,-110.60900115966797 C-62.75,-115.7509994506836 -43.57899856567383,-78.29000091552734 -44.999000549316406,-41.564998626708984 C-46.41899871826172,-4.840000152587891 -55.650001525878906,1.034999966621399 -60.619998931884766,3.239000082015991 C-65.58999633789062,5.442999839782715 -93.99099731445312,6.177000045776367 -110.32099914550781,11.319000244140625 C-126.6510009765625,16.461000442504883 -140.86599731445312,27.121999740600586 -150.08299255371094,21.601999282836914 C-163.572998046875,13.522000312805176 -166.4320068359375,-29.52199935913086 -160.0229949951172,-56.9900016784668z"></path></g><g opacity="1" transform="matrix(1,0,0,1,0,0)"><path fill="rgb(196,221,242)" fill-opacity="1" d=" M-85.84300231933594,-103.0469970703125 C-121.09100341796875,-114.61100006103516 -151.77999877929688,-35.93000030517578 -143.3209991455078,16.7810001373291 C-143.3209991455078,16.7810001373291 -146.24400329589844,17.511999130249023 -148.92300415039062,14.10200023651123 C-151.6020050048828,10.692000389099121 -162.39100646972656,-22.570999145507812 -153.468994140625,-58.638999938964844 C-139.447998046875,-115.31800079345703 -95.72699737548828,-109.66899871826172 -85.84300231933594,-103.0469970703125z"></path></g><g opacity="1" transform="matrix(1,0,0,1,0,0)"><path fill="rgb(196,221,242)" fill-opacity="1" d=" M100.6449966430664,-89.88300323486328 C100.6449966430664,-89.88300323486328 30.451000213623047,-134.04600524902344 5.97599983215332,-50.68299865722656 C-12.272000312805176,11.472000122070312 35.689998626708984,12.154000282287598 35.689998626708984,12.154000282287598 C35.689998626708984,12.154000282287598 6.464000225067139,10.204999923706055 -2.7909998893737793,1.437000036239624 C-12.045999526977539,-7.330999851226807 -7.175000190734863,-54.58000183105469 8.411999702453613,-82.83200073242188 C30.993000030517578,-123.76000213623047 73.1969985961914,-110.59700012207031 86.83599853515625,-100.8550033569336 C100.4749984741211,-91.11299896240234 100.6449966430664,-89.88300323486328 100.6449966430664,-89.88300323486328z"></path></g><g opacity="1" transform="matrix(1,0,0,1,0,0)"><g opacity="1" transform="matrix(1,0,0,1,0,0)"><path fill="rgb(24,6,45)" fill-opacity="1" d=" M-112.31800079345703,-81.43699645996094 C-49.65399932861328,-113.39099884033203 -39.558998107910156,-35.96099853515625 -46.18600082397461,-11.649999618530273 C-52.8129997253418,12.66100025177002 -108.01200103759766,16.018999099731445 -121.73899841308594,12.746000289916992 C-135.46600341796875,9.472999572753906 -151.4969940185547,-61.45800018310547 -112.31800079345703,-81.43699645996094z"></path></g><g opacity="1" transform="matrix(1,0,0,1,0,0)"><path fill="rgb(24,6,45)" fill-opacity="1" d=" M75.29000091552734,-83.19200134277344 C141.56100463867188,-74.4800033569336 116.93299865722656,58.641998291015625 63.50600051879883,35.37699890136719 C30.308000564575195,20.92099952697754 17.766000747680664,21.24799919128418 14.831999778747559,3.7960000038146973 C10.732999801635742,-20.58300018310547 20.34000015258789,-90.41600036621094 75.29000091552734,-83.19200134277344z"></path></g><g opacity="1" transform="matrix(1,0,0,1,0,0)"><g opacity="1" transform="matrix(1,0,0,1,0,0)"><path fill="rgb(64,98,221)" fill-opacity="1" d=" M-127.11599731445312,-16.274999618530273 C-123.69400024414062,-35.66400146484375 -109.77300262451172,-48.262001037597656 -99.23799896240234,-33.569000244140625 C-91.39900207519531,-22.63599967956543 -93.0739974975586,-11.11299991607666 -104.43399810791016,-8.805000305175781 C-115.79399871826172,-6.497000217437744 -129.42799377441406,-3.171999931335449 -127.11599731445312,-16.274999618530273z"></path></g><g opacity="1" transform="matrix(1,0,0,1,0,0)"><path fill="rgb(253,254,255)" fill-opacity="1" d=" M-62.159000396728516,-46.08100128173828 C-72.32499694824219,-38.652000427246094 -72.28299713134766,-51.92499923706055 -78.45999908447266,-56.50199890136719 C-86.21199798583984,-62.24700164794922 -98.12300109863281,-57.678001403808594 -91.41999816894531,-68.72200012207031 C-86.72699737548828,-76.45500183105469 -74.84600067138672,-76.60700225830078 -66.76599884033203,-70.3550033569336 C-58.68600082397461,-64.10299682617188 -54.85599899291992,-51.417999267578125 -62.159000396728516,-46.08100128173828z"></path></g></g><g opacity="1" transform="matrix(1,0,0,1,0,0)"><g opacity="1" transform="matrix(1,0,0,1,0,0)"><path fill="rgb(64,98,221)" fill-opacity="1" d=" M46.62799835205078,-33.38399887084961 C61.4119987487793,-24.077999114990234 73.73500061035156,-1.8960000276565552 67.54900360107422,3.2799999713897705 C49.00400161743164,18.795000076293945 23.049999237060547,1.4290000200271606 22.538999557495117,-12.432999610900879 C22.027999877929688,-26.295000076293945 34.26599884033203,-41.16600036621094 46.62799835205078,-33.38399887084961z"></path></g><g opacity="1" transform="matrix(1,0,0,1,0,0)"><path fill="rgb(253,254,255)" fill-opacity="1" d=" M102.4020004272461,-26.753999710083008 C87.63400268554688,-15.60200023651123 88.24800109863281,-34.76599884033203 79.65599822998047,-41.117000579833984 C68.87200164794922,-49.0880012512207 51.74300003051758,-41.992000579833984 61.73699951171875,-58.21799850463867 C68.73500061035156,-69.5790023803711 85.63600158691406,-70.2979965209961 96.86499786376953,-61.60900115966797 C108.09400177001953,-52.91999816894531 113.01200103759766,-34.76599884033203 102.4020004272461,-26.753999710083008z"></path></g></g></g><g opacity="1" transform="matrix(1,0,0,1,0,0)"><path stroke-linecap="round" stroke-linejoin="round" fill-opacity="0" stroke="rgb(132,64,45)" stroke-opacity="1" stroke-width="13.833" d=" M-10.70300006866455,3.8380000591278076 C-17.50200080871582,3.2850000858306885 -25.003999710083008,-112.11799621582031 60.611000061035156,-114.72200012207031 C108.33399963378906,-116.17400360107422 160.2310028076172,-32.814998626708984 74.74700164794922,42.10200119018555 C66.10900115966797,42.10200119018555 17.19099998474121,6.107999801635742 -10.70300006866455,3.8380000591278076z"></path></g><g opacity="1" transform="matrix(1,0,0,1,0,0)"><path stroke-linecap="round" stroke-linejoin="round" fill-opacity="0" stroke="rgb(132,64,45)" stroke-opacity="1" stroke-width="13.833" d=" M-102.51100158691406,-110.60900115966797 C-33.85300064086914,-123.41200256347656 -46.18600082397461,-4.328000068664551 -57.36199951171875,2.6089999675750732 C-62.95000076293945,6.077000141143799 -85.49500274658203,6.077000141143799 -107.84700012207031,11.086999893188477 C-128.4669952392578,15.708999633789062 -145.4739990234375,24.36199951171875 -150.08299255371094,21.601999282836914 C-163.572998046875,13.522000312805176 -178.2220001220703,-96.49099731445312 -102.51100158691406,-110.60900115966797z"></path></g></g><g style="display: block;" transform="matrix(1,0,0,1,256,256)" opacity="1"><g opacity="1" transform="matrix(1,0,0,1,0,0)"><g opacity="0.73" transform="matrix(1,0,0,1,0,0)"><path fill="rgb(157,236,249)" fill-opacity="1" d=" M22.59000015258789,-23.327999114990234 C48,8.5 80.5,-18.5 93.11499786376953,4.627999782562256 C98.44400024414062,14.39799976348877 84.41699981689453,38.11000061035156 69.072998046875,34.457000732421875 C53.729000091552734,30.804000854492188 26.259000778198242,5.38100004196167 -0.36899998784065247,2.4579999446868896 C-10.074000358581543,1.3930000066757202 0.1940000057220459,-51.380001068115234 22.59000015258789,-23.327999114990234z"></path></g><g opacity="1" transform="matrix(1,0,0,1,0,0)"><path fill="rgb(255,255,255)" fill-opacity="1" d=" M74.38899993896484,-0.5 C68.27999877929688,0.3479999899864197 57.72600173950195,3.385999917984009 55.54899978637695,9.961999893188477 C53.37200164794922,16.538000106811523 66.43599700927734,22.8700008392334 81.6780014038086,17.999000549316406 C96.91999816894531,13.128000259399414 91.92500305175781,-2.936000108718872 74.38899993896484,-0.5z"></path></g><g opacity="1" transform="matrix(1,0,0,1,0,0)"><path fill="rgb(255,255,255)" fill-opacity="1" d=" M21.594999313354492,-17.07699966430664 C21.594999313354492,-12.621000289916992 17.108999252319336,-9.008000373840332 11.574999809265137,-9.008000373840332 C6.040999889373779,-9.008000373840332 1.5549999475479126,-12.621000289916992 1.5549999475479126,-17.07699966430664 C1.5549999475479126,-21.533000946044922 6.040999889373779,-25.145000457763672 11.574999809265137,-25.145000457763672 C17.108999252319336,-25.145000457763672 21.594999313354492,-21.533000946044922 21.594999313354492,-17.07699966430664z"></path></g></g></g><g style="display: none;"><g><g><path></path></g><g><path></path></g><g><path></path></g></g></g><g style="display: block;" transform="matrix(1,0,0,1,256,256)" opacity="1"><g opacity="1" transform="matrix(1,0,0,1,0,0)"><g opacity="0.73" transform="matrix(1,0,0,1,0,0)"><path fill="rgb(157,236,249)" fill-opacity="1" d=" M-127.48999786376953,-11.22700023651123 C-95,-1.5 -87.5,-42 -59.48899841308594,-27.392000198364258 C-46.05799865722656,-20.38800048828125 -48.44300079345703,-5.8480000495910645 -72.31099700927734,0.48399999737739563 C-96.17900085449219,6.815999984741211 -144.7519989013672,19.711999893188477 -152.79400634765625,11.10200023651123 C-165.5,-2.5 -145.78399658203125,-16.70400047302246 -127.48999786376953,-11.22700023651123z"></path></g><g opacity="1" transform="matrix(1,0,0,1,-0.1599999964237213,0.19099999964237213)"><path fill="rgb(255,255,255)" fill-opacity="1" d=" M-78.58699798583984,-12.730999946594238 C-83.92900085449219,-9.64900016784668 -96.87699890136719,-10.833000183105469 -96.42400360107422,-3.9210000038146973 C-95.97100067138672,2.990999937057495 -81.48400115966797,3.950000047683716 -69.19000244140625,-6.291999816894531 C-56.895999908447266,-16.534000396728516 -63.25199890136719,-21.577999114990234 -78.58699798583984,-12.730999946594238z"></path></g><g opacity="1" transform="matrix(1,0,0,1,0,0)"><path fill="rgb(255,255,255)" fill-opacity="1" d=" M-126.22200012207031,-3.875 C-125.0989990234375,-0.5320000052452087 -129.42100524902344,3.936000108718872 -135.87600708007812,6.105000019073486 C-142.33099365234375,8.27400016784668 -148.4739990234375,7.321000099182129 -149.5970001220703,3.9779999256134033 C-150.72000122070312,0.6349999904632568 -146.3990020751953,-3.8329999446868896 -139.94400024414062,-6.001999855041504 C-133.48899841308594,-8.170999526977539 -127.34500122070312,-7.2179999351501465 -126.22200012207031,-3.875z"></path></g></g></g><g style="display: block;" transform="matrix(1,0,0,1,256,256)" opacity="1"><g opacity="1" transform="matrix(1,0,0,1,0,0)"><path fill="url(#__lottie_element_27)" fill-opacity="1" d=" M7.681000232696533,-157.8459930419922 C10.604000091552734,-156.38499450683594 5.455999851226807,-126.87999725341797 82.91799926757812,-109.53800201416016 C115.00299835205078,-102.3550033569336 125.73999786376953,-69.85900115966797 146.9290008544922,-72.78199768066406 C168.1179962158203,-75.70500183105469 107.00800323486328,-138.73399353027344 71.20600128173828,-162.8459930419922 C35.40399932861328,-186.95799255371094 7.681000232696533,-157.8459930419922 7.681000232696533,-157.8459930419922z"></path></g><g opacity="1" transform="matrix(1,0,0,1,0,0)"><path stroke-linecap="round" stroke-linejoin="round" fill-opacity="0" stroke="rgb(112,45,29)" stroke-opacity="1" stroke-width="16.599" d=" M10.465999603271484,-160.0229949951172 C24.725000381469727,-97.20600128173828 60.03799819946289,-140.37600708007812 133.57000732421875,-70.00399780273438"></path></g><g opacity="0.48" transform="matrix(1,0,0,1,0,0)"><path fill="url(#__lottie_element_28)" fill-opacity="1" d=" M3.5409998893737793,-185.61099243164062 C-13.045000076293945,-194.05599975585938 -36.90800094604492,-162.447998046875 -18.378999710083008,-142.74600219726562"></path><path stroke-linecap="round" stroke-linejoin="round" fill-opacity="0" stroke="rgb(184,99,72)" stroke-opacity="1" stroke-width="14.772" d=" M3.5409998893737793,-185.61099243164062 C-13.045000076293945,-194.05599975585938 -36.90800094604492,-162.447998046875 -18.378999710083008,-142.74600219726562"></path></g><g opacity="1" transform="matrix(1,0,0,1,0,0)"><path fill="url(#__lottie_element_29)" fill-opacity="1" d=" M-86.4280014038086,-172.2830047607422 C-123.5,-159.5 -165.2689971923828,-133.8070068359375 -165.2689971923828,-117.24500274658203 C-165.2689971923828,-100.68299865722656 -155.74200439453125,-93.06099700927734 -131.38699340820312,-100.8550033569336 C-107.03199768066406,-108.64900207519531 -52.20800018310547,-155.41000366210938 -52.20800018310547,-155.41000366210938 C-52.20800018310547,-155.41000366210938 -56.21699905395508,-182.7010040283203 -86.4280014038086,-172.2830047607422z"></path></g><g opacity="1" transform="matrix(1,0,0,1,0,0)"><path stroke-linecap="round" stroke-linejoin="round" fill-opacity="0" stroke="rgb(184,99,72)" stroke-opacity="1" stroke-width="14.772" d=" M-85.84300231933594,-176.11199951171875 C-147.58099365234375,-152.4429931640625 -189.2050018310547,-125.95099639892578 -152.33299255371094,-88.43399810791016"></path></g><g opacity="1" transform="matrix(1,0,0,1,0,0)"><path stroke-linecap="round" stroke-linejoin="round" fill-opacity="0" stroke="rgb(112,45,29)" stroke-opacity="1" stroke-width="15.597" d=" M-55.084999084472656,-151.37100219726562 C-71.26899719238281,-123.47899627685547 -149.50100708007812,-110.47899627685547 -150.74099731445312,-84.37699890136719"></path></g></g><g style="display: block;" transform="matrix(1,0,0,1,265,260)" opacity="1"><g opacity="1" transform="matrix(1,0,0,1,0,0)"><g opacity="1" transform="matrix(1,0,0,1,0,0)"><path fill="url(#__lottie_element_14)" fill-opacity="1" d=" M216.8489990234375,51.922000885009766 C165.2239990234375,-0.3479999899864197 102.56300354003906,65.66000366210938 102.56300354003906,65.66000366210938 C102.56300354003906,65.66000366210938 80.78299713134766,93.88400268554688 80.78299713134766,93.88400268554688 C80.78299713134766,93.88400268554688 118.55899810791016,119.80999755859375 118.55899810791016,119.80999755859375 C118.55899810791016,119.80999755859375 94.11599731445312,139.8090057373047 94.11599731445312,139.8090057373047 C94.11599731445312,139.8090057373047 57.0880012512207,217.7740020751953 57.83700180053711,218.09500122070312 C74.78299713134766,225.3509979248047 115.53900146484375,212.39599609375 153.59300231933594,189.38099670410156 C210.7779998779297,154.79600524902344 261.8580017089844,97.49400329589844 216.8489990234375,51.922000885009766z"></path><path stroke-linecap="round" stroke-linejoin="round" fill-opacity="0" stroke="rgb(146,0,35)" stroke-opacity="1" stroke-width="11.339" d=" M216.8489990234375,51.922000885009766 C165.2239990234375,-0.3479999899864197 102.56300354003906,65.66000366210938 102.56300354003906,65.66000366210938 C102.56300354003906,65.66000366210938 80.78299713134766,93.88400268554688 80.78299713134766,93.88400268554688 C80.78299713134766,93.88400268554688 118.55899810791016,119.80999755859375 118.55899810791016,119.80999755859375 C118.55899810791016,119.80999755859375 94.11599731445312,139.8090057373047 94.11599731445312,139.8090057373047 C94.11599731445312,139.8090057373047 57.0880012512207,217.7740020751953 57.83700180053711,218.09500122070312 C74.78299713134766,225.3509979248047 115.53900146484375,212.39599609375 153.59300231933594,189.38099670410156 C210.7779998779297,154.79600524902344 261.8580017089844,97.49400329589844 216.8489990234375,51.922000885009766z"></path></g><g opacity="1" transform="matrix(1,0,0,1,0,0)"><path fill="url(#__lottie_element_15)" fill-opacity="1" d=" M152.86900329589844,48.94599914550781 C152.86900329589844,48.94599914550781 168.41799926757812,35.125 192.60499572753906,47.21799850463867 C217.91400146484375,59.87200164794922 221.11000061035156,90.40899658203125 207.28900146484375,94.72799682617188 C193.46800231933594,99.0469970703125 161.2550048828125,84.80999755859375 156.32400512695312,80.90699768066406 C135.5919952392578,64.49400329589844 152.86900329589844,48.94599914550781 152.86900329589844,48.94599914550781z"></path></g><g opacity="1" transform="matrix(1,0,0,1,0,0)"><path fill="url(#__lottie_element_16)" fill-opacity="1" d=" M188.85800170898438,174.21800231933594 C175.69700622558594,182.36500549316406 135.3209991455078,175.8280029296875 130.70700073242188,184.6719970703125 C126.09300231933594,193.51600646972656 139.55099487304688,203.8990020751953 139.55099487304688,203.8990020751953 C128.88600158691406,210.50599670410156 107.8499984741211,194.37399291992188 102.63600158691406,203.8990020751953 C96.40699768066406,215.27699279785156 113.05999755859375,219.54200744628906 113.05999755859375,219.54200744628906 C99.9209976196289,238.9969940185547 152.56199645996094,251.71600341796875 177.01199340820312,218.8159942626953 C192.22500610351562,198.34500122070312 188.85800170898438,174.21800231933594 188.85800170898438,174.21800231933594z"></path><path stroke-linecap="round" stroke-linejoin="round" fill-opacity="0" stroke="rgb(163,81,59)" stroke-opacity="1" stroke-width="12.587" d=" M188.85800170898438,174.21800231933594 C175.69700622558594,182.36500549316406 135.3209991455078,175.8280029296875 130.70700073242188,184.6719970703125 C126.09300231933594,193.51600646972656 139.55099487304688,203.8990020751953 139.55099487304688,203.8990020751953 C128.88600158691406,210.50599670410156 107.8499984741211,194.37399291992188 102.63600158691406,203.8990020751953 C96.40699768066406,215.27699279785156 113.05999755859375,219.54200744628906 113.05999755859375,219.54200744628906 C99.9209976196289,238.9969940185547 152.56199645996094,251.71600341796875 177.01199340820312,218.8159942626953 C192.22500610351562,198.34500122070312 188.85800170898438,174.21800231933594 188.85800170898438,174.21800231933594z"></path></g><g opacity="0.93" transform="matrix(1,0,0,1,0,0)"><path fill="rgb(255,255,255)" fill-opacity="1" d=" M202.2239990234375,60.12200164794922 C207.27699279785156,66.47100067138672 205.0679931640625,76.73799896240234 194.78500366210938,71.96600341796875 C185.66900634765625,67.73600006103516 172.91099548339844,59.36600112915039 181.1230010986328,51.520999908447266 C184.21499633789062,48.56700134277344 193.73699951171875,49.45800018310547 202.2239990234375,60.12200164794922z"></path></g></g></g><g style="display: block;" transform="matrix(1,0,0,1,227.00001525878906,257)" opacity="1"><g opacity="1" transform="matrix(1,0,0,1,0,0)"><g opacity="1" transform="matrix(1,0,0,1,0,0)"><path fill="url(#__lottie_element_7)" fill-opacity="1" d=" M-8.767000198364258,1.312999963760376 C-90.30400085449219,36.98500061035156 -8.866000175476074,189.86300659179688 40.75600051879883,212.49200439453125 C42.487998962402344,200.3000030517578 61.79600143432617,130.91900634765625 61.79600143432617,130.91900634765625 C61.79600143432617,130.91900634765625 89.54199981689453,116.59600067138672 89.54199981689453,116.59600067138672 C89.54199981689453,116.59600067138672 44.513999938964844,86.33000183105469 44.513999938964844,86.33000183105469 C44.513999938964844,86.33000183105469 81.07099914550781,54.00600051879883 81.07099914550781,54.00600051879883 C81.07099914550781,54.00600051879883 65.40499877929688,-31.13599967956543 -8.767000198364258,1.312999963760376z"></path></g><g opacity="1" transform="matrix(1,0,0,1,0,0)"><path fill="url(#__lottie_element_8)" fill-opacity="1" d=" M80.65499877929688,54.374000549316406 C80.9260025024414,54.13399887084961 81.07099914550781,54.00600051879883 81.07099914550781,54.00600051879883 C81.07099914550781,54.00600051879883 65.40499877929688,-31.13599967956543 -8.767000198364258,1.312999963760376 C-8.767000198364258,1.312999963760376 -8.767000198364258,1.312999963760376 -8.767000198364258,1.312999963760376 C-90.30400085449219,36.98500061035156 -8.866000175476074,189.86300659179688 40.75600051879883,212.49200439453125 C42.487998962402344,200.3000030517578 61.79600143432617,130.91900634765625 61.79600143432617,130.91900634765625 C61.79600143432617,130.91900634765625 89.54199981689453,116.59600067138672 89.54199981689453,116.59600067138672 C89.54199981689453,116.59600067138672 44.513999938964844,86.33000183105469 44.513999938964844,86.33000183105469 C44.513999938964844,86.33000183105469 76.61599731445312,57.94499969482422 80.65499877929688,54.374000549316406"></path><path stroke-linecap="round" stroke-linejoin="round" fill-opacity="0" stroke="rgb(146,0,35)" stroke-opacity="1" stroke-width="11.339" d=" M80.65499877929688,54.374000549316406 C80.9260025024414,54.13399887084961 81.07099914550781,54.00600051879883 81.07099914550781,54.00600051879883 C81.07099914550781,54.00600051879883 65.40499877929688,-31.13599967956543 -8.767000198364258,1.312999963760376 C-8.767000198364258,1.312999963760376 -8.767000198364258,1.312999963760376 -8.767000198364258,1.312999963760376 C-90.30400085449219,36.98500061035156 -8.866000175476074,189.86300659179688 40.75600051879883,212.49200439453125 C42.487998962402344,200.3000030517578 61.79600143432617,130.91900634765625 61.79600143432617,130.91900634765625 C61.79600143432617,130.91900634765625 89.54199981689453,116.59600067138672 89.54199981689453,116.59600067138672 C89.54199981689453,116.59600067138672 44.513999938964844,86.33000183105469 44.513999938964844,86.33000183105469 C44.513999938964844,86.33000183105469 76.61599731445312,57.94499969482422 80.65499877929688,54.374000549316406"></path></g><g opacity="1" transform="matrix(1,0,0,1,0,0)"><path fill="url(#__lottie_element_9)" fill-opacity="1" d=" M-2.6500000953674316,11.319999694824219 C-2.6500000953674316,11.319999694824219 11.63599967956543,-3.802999973297119 36.784000396728516,6.138000011444092 C63.0989990234375,16.540000915527344 68.94300079345703,46.68299865722656 55.55099868774414,52.18899917602539 C42.159000396728516,57.69499969482422 8.82699966430664,46.31800079345703 3.575000047683716,42.85900115966797 C-18.506999969482422,28.31399917602539 -2.6500000953674316,11.319999694824219 -2.6500000953674316,11.319999694824219z"></path></g></g><g opacity="1" transform="matrix(1,0,0,1,0,0)"><g opacity="1" transform="matrix(1,0,0,1,0,0)"><path fill="url(#__lottie_element_10)" fill-opacity="1" d=" M-5.9679999351501465,159.6199951171875 C21.68199920654297,166.0659942626953 -4.716000080108643,184.24600219726562 -4.716000080108643,184.24600219726562 C-4.716000080108643,184.24600219726562 3.881999969482422,197.85000610351562 20.915000915527344,198.8820037841797 C49.790000915527344,200.6320037841797 28.253000259399414,220.71099853515625 5.198999881744385,221.31900024414062 C4.88700008392334,242.3070068359375 -61.279998779296875,240.2570037841797 -61.91299819946289,196.31700134277344 C-62.0629997253418,185.92100524902344 -71.76000213623047,144.28199768066406 -5.9679999351501465,159.6199951171875z"></path><path stroke-linecap="round" stroke-linejoin="round" fill-opacity="0" stroke="rgb(163,81,59)" stroke-opacity="1" stroke-width="12.449" d=" M-5.9679999351501465,159.6199951171875 C21.68199920654297,166.0659942626953 -4.716000080108643,184.24600219726562 -4.716000080108643,184.24600219726562 C-4.716000080108643,184.24600219726562 3.881999969482422,197.85000610351562 20.915000915527344,198.8820037841797 C49.790000915527344,200.6320037841797 28.253000259399414,220.71099853515625 5.198999881744385,221.31900024414062 C4.88700008392334,242.3070068359375 -61.279998779296875,240.2570037841797 -61.91299819946289,196.31700134277344 C-62.0629997253418,185.92100524902344 -71.76000213623047,144.28199768066406 -5.9679999351501465,159.6199951171875z"></path></g><g opacity="1" transform="matrix(1,0,0,1,0,0)"><path stroke-linecap="round" stroke-linejoin="round" fill-opacity="0" stroke="rgb(163,81,59)" stroke-opacity="1" stroke-width="11.066" d=" M-19.843000411987305,212.83099365234375 C-4.881999969482422,224.89999389648438 18.614999771118164,217.28199768066406 18.614999771118164,217.28199768066406"></path></g></g><g opacity="0.93" transform="matrix(1,0,0,1,0,0)"><path fill="rgb(255,255,255)" fill-opacity="1" d=" M41.7760009765625,14.045000076293945 C46.82899856567383,20.393999099731445 44.619998931884766,30.65999984741211 34.33700180053711,25.88800048828125 C25.22100067138672,21.658000946044922 12.461999893188477,13.288000106811523 20.673999786376953,5.442999839782715 C23.766000747680664,2.489000082015991 33.28900146484375,3.38100004196167 41.7760009765625,14.045000076293945z"></path></g></g></g></svg>