<svg xmlns="http://www.w3.org/2000/svg" xmlns:xlink="http://www.w3.org/1999/xlink" viewBox="0 0 512 512" width="512" height="512" style="width: 100%; height: 100%; transform: translate3d(0,0,0); content-visibility: visible;" preserveAspectRatio="xMidYMid meet"><defs><clipPath id="__lottie_element_2"><rect width="512" height="512" x="0" y="0"></rect></clipPath><linearGradient id="__lottie_element_8" spreadMethod="pad" gradientUnits="userSpaceOnUse"><stop></stop><stop></stop><stop></stop><stop></stop><stop></stop><stop></stop><stop></stop></linearGradient><linearGradient id="__lottie_element_12" spreadMethod="pad" gradientUnits="userSpaceOnUse"><stop></stop><stop></stop><stop></stop><stop></stop><stop></stop><stop></stop><stop></stop></linearGradient><linearGradient id="__lottie_element_17" spreadMethod="pad" gradientUnits="userSpaceOnUse"><stop></stop><stop></stop><stop></stop><stop></stop><stop></stop><stop></stop><stop></stop></linearGradient><linearGradient id="__lottie_element_22" spreadMethod="pad" gradientUnits="userSpaceOnUse"><stop></stop><stop></stop><stop></stop><stop></stop><stop></stop><stop></stop><stop></stop></linearGradient><linearGradient id="__lottie_element_26" spreadMethod="pad" gradientUnits="userSpaceOnUse"><stop></stop><stop></stop><stop></stop><stop></stop><stop></stop><stop></stop><stop></stop></linearGradient><radialGradient id="__lottie_element_34" spreadMethod="pad" gradientUnits="userSpaceOnUse" cx="406.8330078125" cy="-380.0740051269531" r="747.8067679619678" fx="406.8330078125" fy="-380.0740051269531"><stop offset="0%" stop-color="rgb(252,203,182)"></stop><stop offset="53%" stop-color="rgb(248,170,136)"></stop><stop offset="100%" stop-color="rgb(245,138,91)"></stop></radialGradient><radialGradient id="__lottie_element_35" spreadMethod="pad" gradientUnits="userSpaceOnUse" cx="48.07099914550781" cy="-113.44999694824219" r="191.42175968434748" fx="48.07099914550781" fy="-113.44999694824219"><stop offset="0%" stop-color="rgb(249,223,201)"></stop><stop offset="48%" stop-color="rgb(249,202,171)"></stop><stop offset="100%" stop-color="rgb(250,181,140)"></stop></radialGradient><linearGradient id="__lottie_element_46" spreadMethod="pad" gradientUnits="userSpaceOnUse" x1="0" y1="0" x2="29.163000106811523" y2="52.46799850463867"><stop offset="0%" stop-color="rgb(255,216,54)"></stop><stop offset="27%" stop-color="rgb(254,234,142)"></stop><stop offset="45%" stop-color="rgb(254,252,230)"></stop><stop offset="73%" stop-color="rgb(254,234,142)"></stop><stop offset="100%" stop-color="rgb(255,216,54)"></stop></linearGradient><linearGradient id="__lottie_element_47" spreadMethod="pad" gradientUnits="userSpaceOnUse" x1="-0.07900000363588333" y1="-52.21799850463867" x2="29.163000106811523" y2="52.46799850463867"><stop offset="0%" stop-color="rgb(255,216,54)"></stop><stop offset="27%" stop-color="rgb(254,234,142)"></stop><stop offset="45%" stop-color="rgb(254,252,230)"></stop><stop offset="73%" stop-color="rgb(254,234,142)"></stop><stop offset="100%" stop-color="rgb(255,216,54)"></stop></linearGradient><linearGradient id="__lottie_element_56" spreadMethod="pad" gradientUnits="userSpaceOnUse"><stop></stop><stop></stop><stop></stop><stop></stop><stop></stop><stop></stop><stop></stop></linearGradient><linearGradient id="__lottie_element_60" spreadMethod="pad" gradientUnits="userSpaceOnUse"><stop></stop><stop></stop><stop></stop><stop></stop><stop></stop><stop></stop><stop></stop></linearGradient><linearGradient id="__lottie_element_64" spreadMethod="pad" gradientUnits="userSpaceOnUse"><stop></stop><stop></stop><stop></stop><stop></stop><stop></stop><stop></stop><stop></stop></linearGradient><linearGradient id="__lottie_element_68" spreadMethod="pad" gradientUnits="userSpaceOnUse"><stop></stop><stop></stop><stop></stop><stop></stop><stop></stop><stop></stop><stop></stop></linearGradient><linearGradient id="__lottie_element_72" spreadMethod="pad" gradientUnits="userSpaceOnUse"><stop></stop><stop></stop><stop></stop><stop></stop><stop></stop><stop></stop><stop></stop></linearGradient><linearGradient id="__lottie_element_76" spreadMethod="pad" gradientUnits="userSpaceOnUse"><stop></stop><stop></stop><stop></stop><stop></stop><stop></stop><stop></stop><stop></stop></linearGradient><linearGradient id="__lottie_element_81" spreadMethod="pad" gradientUnits="userSpaceOnUse"><stop></stop><stop></stop><stop></stop><stop></stop><stop></stop><stop></stop><stop></stop></linearGradient><linearGradient id="__lottie_element_85" spreadMethod="pad" gradientUnits="userSpaceOnUse"><stop></stop><stop></stop><stop></stop><stop></stop><stop></stop><stop></stop><stop></stop></linearGradient><linearGradient id="__lottie_element_89" spreadMethod="pad" gradientUnits="userSpaceOnUse"><stop></stop><stop></stop><stop></stop><stop></stop><stop></stop><stop></stop><stop></stop></linearGradient><linearGradient id="__lottie_element_93" spreadMethod="pad" gradientUnits="userSpaceOnUse"><stop></stop><stop></stop><stop></stop><stop></stop><stop></stop><stop></stop><stop></stop></linearGradient></defs><g clip-path="url(#__lottie_element_2)"><g style="display: none;"><g><path></path><path stroke-linecap="butt" stroke-linejoin="miter" fill-opacity="0" stroke-miterlimit="10"></path></g><g><path fill="url(#__lottie_element_93)"></path><path stroke-linecap="butt" stroke-linejoin="miter" fill-opacity="0" stroke-miterlimit="10"></path></g></g><g style="display: none;"><g><path></path><path stroke-linecap="butt" stroke-linejoin="miter" fill-opacity="0" stroke-miterlimit="10"></path></g><g><path fill="url(#__lottie_element_89)"></path><path stroke-linecap="butt" stroke-linejoin="miter" fill-opacity="0" stroke-miterlimit="10"></path></g></g><g style="display: none;"><g><path></path><path stroke-linecap="butt" stroke-linejoin="miter" fill-opacity="0" stroke-miterlimit="10"></path></g><g><path fill="url(#__lottie_element_85)"></path><path stroke-linecap="butt" stroke-linejoin="miter" fill-opacity="0" stroke-miterlimit="10"></path></g></g><g style="display: none;"><g><path></path><path stroke-linecap="butt" stroke-linejoin="miter" fill-opacity="0" stroke-miterlimit="10"></path></g><g><path fill="url(#__lottie_element_81)"></path><path stroke-linecap="butt" stroke-linejoin="miter" fill-opacity="0" stroke-miterlimit="10"></path></g></g><g style="display: none;"><g><path></path><path stroke-linecap="butt" stroke-linejoin="miter" fill-opacity="0" stroke-miterlimit="10"></path></g><g><path fill="url(#__lottie_element_76)"></path><path stroke-linecap="butt" stroke-linejoin="miter" fill-opacity="0" stroke-miterlimit="10"></path></g></g><g style="display: none;"><g><path></path><path stroke-linecap="butt" stroke-linejoin="miter" fill-opacity="0" stroke-miterlimit="10"></path></g><g><path fill="url(#__lottie_element_72)"></path><path stroke-linecap="butt" stroke-linejoin="miter" fill-opacity="0" stroke-miterlimit="10"></path></g></g><g style="display: none;"><g><path></path><path stroke-linecap="butt" stroke-linejoin="miter" fill-opacity="0" stroke-miterlimit="10"></path></g><g><path fill="url(#__lottie_element_68)"></path><path stroke-linecap="butt" stroke-linejoin="miter" fill-opacity="0" stroke-miterlimit="10"></path></g></g><g style="display: none;"><g><path></path><path stroke-linecap="butt" stroke-linejoin="miter" fill-opacity="0" stroke-miterlimit="10"></path></g><g><path fill="url(#__lottie_element_64)"></path><path stroke-linecap="butt" stroke-linejoin="miter" fill-opacity="0" stroke-miterlimit="10"></path></g></g><g style="display: none;"><g><path></path><path stroke-linecap="butt" stroke-linejoin="miter" fill-opacity="0" stroke-miterlimit="10"></path></g><g><path fill="url(#__lottie_element_60)"></path><path stroke-linecap="butt" stroke-linejoin="miter" fill-opacity="0" stroke-miterlimit="10"></path></g></g><g style="display: none;"><g><path></path><path stroke-linecap="butt" stroke-linejoin="miter" fill-opacity="0" stroke-miterlimit="10"></path></g><g><path fill="url(#__lottie_element_56)"></path><path stroke-linecap="butt" stroke-linejoin="miter" fill-opacity="0" stroke-miterlimit="10"></path></g></g><g style="display: block;" transform="matrix(0.937389612197876,0,0,0.9176328182220459,11.553547859191895,29.154085159301758)" opacity="1"><g opacity="1" transform="matrix(1,0,0,1,261.7489929199219,245.42100524902344)"><path fill="url(#__lottie_element_34)" fill-opacity="1" d=" M-190.63600158691406,-26.86400032043457 C-188.14500427246094,-38.33399963378906 -188.2570037841797,-50.61000061035156 -187.39599609375,-61.85300064086914 C-185.7760009765625,-83.01000213623047 -186.23800659179688,-136.17799377441406 -147.96600341796875,-165.51800537109375 C-109.69400024414062,-194.85699462890625 -73.66200256347656,-207.5290069580078 -50.49700164794922,-211.5749969482422 C-27.33300018310547,-215.6219940185547 -7.90500020980835,-214.9219970703125 7.015999794006348,-212.38900756835938 C18.43899917602539,-210.4499969482422 38.60900115966797,-192.86000061035156 45.89899826049805,-181.46800231933594 C54.069000244140625,-168.7010040283203 66.4000015258789,-133.8679962158203 79.63200378417969,-133.6959991455078 C97.74199676513672,-133.4600067138672 122.68199920654297,-128.7239990234375 144.10899353027344,-115.94400024414062 C176.33799743652344,-96.72200012207031 194.947998046875,-78.94000244140625 204.66900634765625,-63.47999954223633 C213.6840057373047,-49.14099884033203 231.94900512695312,-29.617000579833984 220.8699951171875,26.027000427246094 C209.79100036621094,81.6709976196289 195.25999450683594,120.49099731445312 161.01600646972656,151.85299682617188 C126.77300262451172,183.21600341796875 121.01699829101562,217.21800231933594 102.38300323486328,222.54400634765625 C77.25599670410156,229.7270050048828 16.586999893188477,229.59500122070312 -14.690999984741211,224.8090057373047 C-50.691001892089844,219.302001953125 -135.92300415039062,170.31900024414062 -167.14500427246094,144.01400756835938 C-198.36599731445312,117.70999908447266 -214.3000030517578,96.35900115966797 -219.79800415039062,76.47699737548828 C-224.83399963378906,58.26599884033203 -231.94900512695312,25.21299934387207 -223.84800720214844,8.939000129699707 C-212.39199829101562,-14.076000213623047 -193.3820037841797,-14.220999717712402 -190.63600158691406,-26.86400032043457z"></path><path stroke-linecap="butt" stroke-linejoin="miter" fill-opacity="0" stroke-miterlimit="10" stroke="rgb(183,99,57)" stroke-opacity="1" stroke-width="12" d=" M-190.63600158691406,-26.86400032043457 C-188.14500427246094,-38.33399963378906 -188.2570037841797,-50.61000061035156 -187.39599609375,-61.85300064086914 C-185.7760009765625,-83.01000213623047 -186.23800659179688,-136.17799377441406 -147.96600341796875,-165.51800537109375 C-109.69400024414062,-194.85699462890625 -73.66200256347656,-207.5290069580078 -50.49700164794922,-211.5749969482422 C-27.33300018310547,-215.6219940185547 -7.90500020980835,-214.9219970703125 7.015999794006348,-212.38900756835938 C18.43899917602539,-210.4499969482422 38.60900115966797,-192.86000061035156 45.89899826049805,-181.46800231933594 C54.069000244140625,-168.7010040283203 66.4000015258789,-133.8679962158203 79.63200378417969,-133.6959991455078 C97.74199676513672,-133.4600067138672 122.68199920654297,-128.7239990234375 144.10899353027344,-115.94400024414062 C176.33799743652344,-96.72200012207031 194.947998046875,-78.94000244140625 204.66900634765625,-63.47999954223633 C213.6840057373047,-49.14099884033203 231.94900512695312,-29.617000579833984 220.8699951171875,26.027000427246094 C209.79100036621094,81.6709976196289 195.25999450683594,120.49099731445312 161.01600646972656,151.85299682617188 C126.77300262451172,183.21600341796875 121.01699829101562,217.21800231933594 102.38300323486328,222.54400634765625 C77.25599670410156,229.7270050048828 16.586999893188477,229.59500122070312 -14.690999984741211,224.8090057373047 C-50.691001892089844,219.302001953125 -135.92300415039062,170.31900024414062 -167.14500427246094,144.01400756835938 C-198.36599731445312,117.70999908447266 -214.3000030517578,96.35900115966797 -219.79800415039062,76.47699737548828 C-224.83399963378906,58.26599884033203 -231.94900512695312,25.21299934387207 -223.84800720214844,8.939000129699707 C-212.39199829101562,-14.076000213623047 -193.3820037841797,-14.220999717712402 -190.63600158691406,-26.86400032043457z"></path></g><g opacity="1" transform="matrix(1,0,0,1,279.03399658203125,238.10400390625)"><path fill="url(#__lottie_element_35)" fill-opacity="1" d=" M-178.093994140625,-17.886999130249023 C-171.968994140625,-23.509000778198242 -168.95799255371094,-41.34700012207031 -168.0970001220703,-68.572998046875 C-167.49200439453125,-87.66100311279297 -164.6020050048828,-123.37200164794922 -131.75100708007812,-149.77999877929688 C-98.89900207519531,-176.18800354003906 -70.8949966430664,-178.52999877929688 -51.01100158691406,-182.1719970703125 C-31.128000259399414,-185.81500244140625 -18.780000686645508,-183.91700744628906 -5.9720001220703125,-181.63699340820312 C3.8329999446868896,-179.89100646972656 18.899999618530273,-167 26.18400001525879,-158.0590057373047 C34.63399887084961,-147.68600463867188 45.327999114990234,-117 56.68600082397461,-116.84500122070312 C72.23100280761719,-116.63300323486328 107.83300018310547,-111.71600341796875 126.2249984741211,-100.21299743652344 C153.88999938964844,-82.91100311279297 172.9759979248047,-63.194000244140625 177.29800415039062,-48.624000549316406 C181.62100219726562,-34.05400085449219 200.0469970703125,-26.604000091552734 190.53700256347656,23.479999542236328 C181.0279998779297,73.56400299072266 172.97300720214844,109.84100341796875 143.57899475097656,138.07000732421875 C114.18599700927734,166.3000030517578 93.99400329589844,201.45899963378906 78,206.25399780273438 C56.430999755859375,212.718994140625 -1.1030000448226929,211.12899780273438 -27.951000213623047,206.82200622558594 C-58.85300064086914,201.86500549316406 -118.69999694824219,160.39199829101562 -145.5,136.71600341796875 C-172.3000030517578,113.04000091552734 -181.99000549316406,95.33599853515625 -189.7209930419922,78.63300323486328 C-196.45799255371094,64.08000183105469 -207.95799255371094,40.75899887084961 -201.50599670410156,25.882999420166016 C-192.2469940185547,4.534999847412109 -186.447998046875,-10.218999862670898 -178.093994140625,-17.886999130249023z"></path></g><g opacity="1" transform="matrix(1,0,0,1,223.0780029296875,78.43000030517578)"><path stroke-linecap="round" stroke-linejoin="round" fill-opacity="0" stroke="rgb(211,113,87)" stroke-opacity="1" stroke-width="7" d=" M-37.020999908447266,4.48199987411499 C-37.020999908447266,4.48199987411499 -25.06800079345703,4.150000095367432 -15.107000350952148,6.142000198364258 C-5.145999908447266,8.133999824523926 1.8270000219345093,8.133999824523926 7.138999938964844,7.138000011444092 C12.45199966430664,6.142000198364258 23.07699966430664,-4.482999801635742 29.05299949645996,-6.14300012588501 C35.029998779296875,-7.802999973297119 37.020999908447266,-8.133999824523926 37.020999908447266,-8.133999824523926"></path></g><g opacity="1" transform="matrix(1,0,0,1,221.9320068359375,62.24399948120117)"><path stroke-linecap="round" stroke-linejoin="round" fill-opacity="0" stroke="rgb(211,113,87)" stroke-opacity="1" stroke-width="7" d=" M-21.441999435424805,6.068999767303467 C-21.441999435424805,6.068999767303467 -0.640999972820282,6.216000080108643 4.815000057220459,4.458000183105469 C10.270000457763672,2.6989998817443848 21.441999435424805,-6.216000080108643 21.441999435424805,-6.216000080108643"></path></g><g opacity="1" transform="matrix(1,0,0,1,121.64199829101562,159.27999877929688)"><path stroke-linecap="round" stroke-linejoin="round" fill-opacity="0" stroke="rgb(211,113,87)" stroke-opacity="1" stroke-width="7.842" d=" M16.601999282836914,-7.304999828338623 C16.601999282836914,-7.304999828338623 6.639999866485596,-6.639999866485596 -3.321000099182129,-1.9919999837875366 C-13.281999588012695,2.6570000648498535 -16.601999282836914,7.304999828338623 -16.601999282836914,7.304999828338623"></path></g><g opacity="1" transform="matrix(1,0,0,1,318.6400146484375,426.72100830078125)"><path stroke-linecap="round" stroke-linejoin="round" fill-opacity="0" stroke="rgb(211,113,87)" stroke-opacity="1" stroke-width="9.802" d=" M-34.44200134277344,2.825000047683716 C-34.44200134277344,2.825000047683716 -19.48699951171875,5.493000030517578 -0.7940000295639038,4.604000091552734 C17.899999618530273,3.7139999866485596 23.774999618530273,1.0460000038146973 23.774999618530273,1.0460000038146973"></path></g></g><g style="display: block;" transform="matrix(0.937389612197876,0,0,0.9176328182220459,200.12069702148438,110.68667602539062)" opacity="1"><g opacity="1" transform="matrix(1,0,0,1,0,0)"><g opacity="1" transform="matrix(1,0,0,1,33.880001068115234,75.7030029296875)"><path stroke-linecap="round" stroke-linejoin="round" fill-opacity="0" stroke="rgb(211,113,87)" stroke-opacity="1" stroke-width="9.18" d=" M10.930999755859375,6.992000102996826 C10.930999755859375,6.992000102996826 7.334000110626221,5.624000072479248 2.7190001010894775,5.890999794006348 C-3.627000093460083,6.257999897003174 -5.361999988555908,9.807999610900879 -8.147000312805176,8.439000129699707 C-10.930999755859375,7.071000099182129 -10.467000007629395,2.736999988555908 -8.611000061035156,-1.1410000324249268 C-6.755000114440918,-5.01800012588501 -5.593999862670898,-9.807999610900879 -5.593999862670898,-9.807999610900879"></path></g><g opacity="1" transform="matrix(1,0,0,1,64.19499969482422,68.8010025024414)"><path stroke-linecap="round" stroke-linejoin="round" fill-opacity="0" stroke="rgb(211,113,87)" stroke-opacity="1" stroke-width="9.18" d=" M-7.065999984741211,9.123000144958496 C-7.065999984741211,9.123000144958496 -2.566999912261963,6.554999828338623 1.1449999809265137,6.554999828338623 C4.857999801635742,6.554999828338623 7.066999912261963,4.789999961853027 6.370999813079834,0.6840000152587891 C5.675000190734863,-3.421999931335449 -3.819000005722046,-9.123000144958496 -3.819000005722046,-9.123000144958496"></path></g><g opacity="1" transform="matrix(1,0,0,1,46.61899948120117,32.45500183105469)"><path stroke-linecap="round" stroke-linejoin="round" fill-opacity="0" stroke="rgb(211,113,87)" stroke-opacity="1" stroke-width="7" d=" M-5.607999801635742,-14.954999923706055 C-5.607999801635742,-14.954999923706055 -4.539999961853027,-8.01200008392334 -1.86899995803833,0 C0.1720000058412552,6.122000217437744 5.607999801635742,14.954999923706055 5.607999801635742,14.954999923706055"></path></g><g opacity="1" transform="matrix(1,0,0,1,38.792999267578125,84.11299896240234)"><path fill="rgb(102,39,22)" fill-opacity="1" d=" M-8.456000328063965,0.3930000066757202 C-8.071000099182129,-2.127000093460083 -4.7179999351501465,-3.7009999752044678 0.8009999990463257,-3.878999948501587 C6.320000171661377,-4.057000160217285 8.812000274658203,-1.0299999713897705 8.812000274658203,1.284000039100647 C8.812000274658203,3.5989999771118164 5.073999881744385,3.243000030517578 1.3350000381469727,3.243000030517578 C-2.4040000438690186,3.243000030517578 -5.830999851226807,4.058000087738037 -6.676000118255615,3.7769999504089355 C-8.812000274658203,3.065000057220459 -8.600000381469727,1.3380000591278076 -8.456000328063965,0.3930000066757202z"></path></g><g opacity="1" transform="matrix(1,0,0,1,62.43600082397461,79.63899993896484)"><path fill="rgb(102,39,22)" fill-opacity="1" d=" M-6.965000152587891,-1.312999963760376 C-5.627999782562256,-3.246000051498413 0.06599999964237213,-4.895999908447266 3.2709999084472656,-5.073999881744385 C6.47599983215332,-5.251999855041504 8.612000465393066,-2.937999963760376 8.434000015258789,-0.2669999897480011 C8.336000442504883,1.1979999542236328 3.6640000343322754,2.0739998817443848 2.0480000972747803,2.3589999675750732 C-0.22200000286102295,2.759999990463257 -3.671999931335449,5.251999855041504 -7.054999828338623,3.6500000953674316 C-7.993000030517578,3.2049999237060547 -8.612000465393066,1.0679999589920044 -6.965000152587891,-1.312999963760376z"></path></g></g></g><g style="display: block;" transform="matrix(0.937389612197876,0,0,0.9176328182220459,103.50020599365234,139.3526153564453)" opacity="1"><g opacity="1" transform="matrix(1,0,0,1,246.19000244140625,30.17099952697754)"><path stroke-linecap="round" stroke-linejoin="round" fill-opacity="0" stroke="rgb(211,113,87)" stroke-opacity="1" stroke-width="8.833" d=" M-56.96699905395508,-8.08899974822998 C-56.96699905395508,-8.08899974822998 -44.59400177001953,-5.2870001792907715 -26.961999893188477,-4.539000034332275 C-9.329999923706055,-3.7909998893737793 2.5299999713897705,-7.327000141143799 19.18000030517578,-5.640999794006348 C47.15999984741211,-2.808000087738037 56.96699905395508,8.08899974822998 56.96699905395508,8.08899974822998"></path></g><g opacity="1" transform="matrix(1,0,0,1,14.76200008392334,123.84100341796875)"><path stroke-linecap="round" stroke-linejoin="round" fill-opacity="0" stroke="rgb(211,113,87)" stroke-opacity="1" stroke-width="10" d=" M10.842000007629395,-25.493000030517578 C10.842000007629395,-25.493000030517578 2.1489999294281006,-17.479000091552734 -3.562000036239624,-2.930000066757202 C-9.27400016784668,11.619999885559082 -10.842000007629395,25.493000030517578 -10.842000007629395,25.493000030517578"></path></g><g opacity="1" transform="matrix(1,0,0,1,201.31300354003906,156.2949981689453)"><path fill="rgb(76,14,32)" fill-opacity="1" d=" M-115.5199966430664,90.26399993896484 C-126.37300109863281,78.2750015258789 -136.4459991455078,66.95700073242188 -151.82000732421875,36.9900016784668 C-167.19400024414062,7.0229997634887695 -167.19400024414062,-51.972999572753906 -145.093994140625,-71.63899993896484 C-122.99400329589844,-91.30500030517578 -81.6760025024414,-81.94000244140625 -42.27899932861328,-80.06700134277344 C-2.882999897003174,-78.19400024414062 39.39500045776367,-114.71600341796875 53.808998107910156,-120.33499908447266 C68.22200012207031,-125.9530029296875 77.83100128173828,-129.69900512695312 99.93099975585938,-119.39800262451172 C122.03099822998047,-109.09700012207031 167.19400024414062,-86.62200164794922 157.5850067138672,-18.26099967956543 C147.9759979248047,50.099998474121094 108.58000183105469,90.36799621582031 93.20600128173828,100.66899871826172 C77.83200073242188,110.97000122070312 48.04399871826172,127.82599639892578 5.765999794006348,128.76300048828125 C-36.51300048828125,129.69900512695312 -71.53299713134766,118.98200225830078 -88.4020004272461,110.03399658203125 C-99.88099670410156,103.94400024414062 -109.91899871826172,96.45099639892578 -115.5199966430664,90.26399993896484z"></path><path stroke-linecap="butt" stroke-linejoin="miter" fill-opacity="0" stroke-miterlimit="10" stroke="rgb(155,74,38)" stroke-opacity="1" stroke-width="10.446" d=" M-115.5199966430664,90.26399993896484 C-126.37300109863281,78.2750015258789 -136.4459991455078,66.95700073242188 -151.82000732421875,36.9900016784668 C-167.19400024414062,7.0229997634887695 -167.19400024414062,-51.972999572753906 -145.093994140625,-71.63899993896484 C-122.99400329589844,-91.30500030517578 -81.6760025024414,-81.94000244140625 -42.27899932861328,-80.06700134277344 C-2.882999897003174,-78.19400024414062 39.39500045776367,-114.71600341796875 53.808998107910156,-120.33499908447266 C68.22200012207031,-125.9530029296875 77.83100128173828,-129.69900512695312 99.93099975585938,-119.39800262451172 C122.03099822998047,-109.09700012207031 167.19400024414062,-86.62200164794922 157.5850067138672,-18.26099967956543 C147.9759979248047,50.099998474121094 108.58000183105469,90.36799621582031 93.20600128173828,100.66899871826172 C77.83200073242188,110.97000122070312 48.04399871826172,127.82599639892578 5.765999794006348,128.76300048828125 C-36.51300048828125,129.69900512695312 -71.53299713134766,118.98200225830078 -88.4020004272461,110.03399658203125 C-99.88099670410156,103.94400024414062 -109.91899871826172,96.45099639892578 -115.5199966430664,90.26399993896484z"></path></g><g opacity="1" transform="matrix(1,0,0,1,190.63600158691406,257.5880126953125)"><path fill="rgb(247,109,139)" fill-opacity="1" d=" M-114.23799896240234,-21.01799964904785 C-114.23799896240234,-21.01799964904785 -87.33300018310547,-30.590999603271484 -63.417999267578125,-18.937000274658203 C-39.50299835205078,-7.2829999923706055 26.69099998474121,-5.618000030517578 45.909000396728516,-11.029000282287598 C65.12699890136719,-16.440000534057617 88.18800354003906,-25.59600067138672 96.72899627685547,-23.514999389648438 C105.2699966430664,-21.43400001525879 110.3949966430664,-14.774999618530273 110.3949966430664,-14.774999618530273 C110.3949966430664,-14.774999618530273 114.23799896240234,3.9539999961853027 53.16899871826172,17.273000717163086 C-7.900000095367432,30.590999603271484 -73.66699981689453,11.029999732971191 -88.18699645996094,1.8730000257492065 C-102.70700073242188,-7.2829999923706055 -114.23799896240234,-21.01799964904785 -114.23799896240234,-21.01799964904785z"></path><path stroke-linecap="round" stroke-linejoin="round" fill-opacity="0" stroke="rgb(221,51,116)" stroke-opacity="1" stroke-width="8.638" d=" M-114.23799896240234,-21.01799964904785 C-114.23799896240234,-21.01799964904785 -87.33300018310547,-30.590999603271484 -63.417999267578125,-18.937000274658203 C-39.50299835205078,-7.2829999923706055 26.69099998474121,-5.618000030517578 45.909000396728516,-11.029000282287598 C65.12699890136719,-16.440000534057617 88.18800354003906,-25.59600067138672 96.72899627685547,-23.514999389648438 C105.2699966430664,-21.43400001525879 110.3949966430664,-14.774999618530273 110.3949966430664,-14.774999618530273 C110.3949966430664,-14.774999618530273 114.23799896240234,3.9539999961853027 53.16899871826172,17.273000717163086 C-7.900000095367432,30.590999603271484 -73.66699981689453,11.029999732971191 -88.18699645996094,1.8730000257492065 C-102.70700073242188,-7.2829999923706055 -114.23799896240234,-21.01799964904785 -114.23799896240234,-21.01799964904785z"></path></g><g opacity="1" transform="matrix(1,0,0,1,80.18499755859375,68.19599914550781)"><path stroke-linecap="round" stroke-linejoin="round" fill-opacity="0" stroke="rgb(211,113,87)" stroke-opacity="1" stroke-width="8.411" d=" M34.1879997253418,-23.011999130249023 C34.1879997253418,-23.011999130249023 27.766000747680664,-17.628000259399414 11.637999534606934,-8.675000190734863 C-0.2029999941587448,-2.1029999256134033 -28.216999053955078,3.8459999561309814 -33.66600036621094,27.81999969482422"></path></g><g opacity="1" transform="matrix(1,0,0,1,152.43899536132812,172.9340057373047)"><path fill="rgb(30,13,5)" fill-opacity="1" d=" M82.83200073242188,22.43000030517578 C82.83200073242188,22.43000030517578 71.11000061035156,-59.52899932861328 32.81999969482422,-60.39099884033203 C-5.4710001945495605,-61.25400161743164 -4.689000129699707,-42.27399826049805 -1.562999963760376,-30.195999145507812 C1.562000036239624,-18.118000030517578 -2.3450000286102295,-6.9029998779296875 -9.378000259399414,-12.942000389099121 C-16.410999298095703,-18.981000900268555 -17.191999435424805,-27.607999801635742 -23.444000244140625,-32.784000396728516 C-29.69499969482422,-37.96099853515625 -60.17100143432617,-51.763999938964844 -68.76699829101562,-25.881999969482422 C-77.36299896240234,-0.0010000000474974513 -80.53800201416016,12.1899995803833 -63.34600067138672,27.719999313354492 C-46.154998779296875,43.249000549316406 4.688000202178955,59.527000427246094 4.688000202178955,59.527000427246094 C4.688000202178955,59.527000427246094 82.83200073242188,22.43000030517578 82.83200073242188,22.43000030517578z"></path></g><g opacity="1" transform="matrix(1,0,0,1,157.0030059814453,90.23899841308594)"></g><g opacity="1" transform="matrix(1,0,0,1,157.0030059814453,90.23899841308594)"><path fill="rgb(244,88,129)" fill-opacity="1" d=" M-108.75700378417969,5.705999851226807 C-108.75700378417969,5.705999851226807 -51.77899932861328,49.667999267578125 7.796000003814697,44.04899978637695 C51.395999908447266,39.9370002746582 84.77100372314453,17.635000228881836 100.05000305175781,4.966000080108643 C105.72599792480469,0.25999999046325684 108.75700378417969,-6.818999767303467 108.2040023803711,-14.062000274658203 C107.72200012207031,-20.374000549316406 106.76200103759766,-28.072999954223633 104.84500122070312,-33.676998138427734 C103.30799865722656,-38.17100143432617 101.92500305175781,-42.3650016784668 100.81800079345703,-45.78099822998047 C99.55799865722656,-49.667999267578125 96.64399719238281,-48.58100128173828 93.45800018310547,-45.93899917602539 C80.0719985961914,-34.83700180053711 51.459999084472656,-10.116000175476074 18.149999618530273,-6.683000087738037 C-24.892000198364258,-2.246000051498413 -68.54499816894531,-17.909000396728516 -86.8010025024414,-12.291000366210938 C-105.05799865722656,-6.671999931335449 -108.75700378417969,5.705999851226807 -108.75700378417969,5.705999851226807z"></path><path stroke-linecap="round" stroke-linejoin="round" fill-opacity="0" stroke="rgb(221,51,116)" stroke-opacity="1" stroke-width="8.638" d=" M-108.75700378417969,5.705999851226807 C-108.75700378417969,5.705999851226807 -51.77899932861328,49.667999267578125 7.796000003814697,44.04899978637695 C51.395999908447266,39.9370002746582 84.77100372314453,17.635000228881836 100.05000305175781,4.966000080108643 C105.72599792480469,0.25999999046325684 108.75700378417969,-6.818999767303467 108.2040023803711,-14.062000274658203 C107.72200012207031,-20.374000549316406 106.76200103759766,-28.072999954223633 104.84500122070312,-33.676998138427734 C103.30799865722656,-38.17100143432617 101.92500305175781,-42.3650016784668 100.81800079345703,-45.78099822998047 C99.55799865722656,-49.667999267578125 96.64399719238281,-48.58100128173828 93.45800018310547,-45.93899917602539 C80.0719985961914,-34.83700180053711 51.459999084472656,-10.116000175476074 18.149999618530273,-6.683000087738037 C-24.892000198364258,-2.246000051498413 -68.54499816894531,-17.909000396728516 -86.8010025024414,-12.291000366210938 C-105.05799865722656,-6.671999931335449 -108.75700378417969,5.705999851226807 -108.75700378417969,5.705999851226807z"></path></g><g opacity="1" transform="matrix(1,0,0,1,0,0)"><g opacity="1" transform="matrix(1,0,0,1,190.18499755859375,218.42100524902344)"><path fill="rgb(244,6,92)" fill-opacity="1" d=" M-79.70899963378906,13.354999542236328 C-79.70899963378906,13.354999542236328 -67.39099884033203,-12.897000312805176 -46.64099884033203,-21.4060001373291 C-25.889999389648438,-29.915000915527344 0.7789999842643738,-19.43199920654297 0.7789999842643738,-19.43199920654297 C0.7789999842643738,-19.43199920654297 10.520999908447266,-25.483999252319336 28.496999740600586,-25.10700035095215 C46.472999572753906,-24.731000900268555 55.73699951171875,-21.368999481201172 66.11499786376953,-11.913000106811523 C79.70999908447266,0.4749999940395355 73.97000122070312,0.32899999618530273 73.97000122070312,0.32899999618530273 C73.97000122070312,0.32899999618530273 61.64699935913086,23.684999465942383 36.14500045776367,26.799999237060547 C10.642999649047852,29.913999557495117 -32.46900177001953,27.009000778198242 -38.987998962402344,24.826000213623047 C-45.507999420166016,22.64299964904785 -79.70899963378906,13.354999542236328 -79.70899963378906,13.354999542236328z"></path><path stroke-linecap="round" stroke-linejoin="round" fill-opacity="0" stroke="rgb(160,18,73)" stroke-opacity="1" stroke-width="9.802" d=" M-79.70899963378906,13.354999542236328 C-79.70899963378906,13.354999542236328 -67.39099884033203,-12.897000312805176 -46.64099884033203,-21.4060001373291 C-25.889999389648438,-29.915000915527344 0.7789999842643738,-19.43199920654297 0.7789999842643738,-19.43199920654297 C0.7789999842643738,-19.43199920654297 10.520999908447266,-25.483999252319336 28.496999740600586,-25.10700035095215 C46.472999572753906,-24.731000900268555 55.73699951171875,-21.368999481201172 66.11499786376953,-11.913000106811523 C79.70999908447266,0.4749999940395355 73.97000122070312,0.32899999618530273 73.97000122070312,0.32899999618530273 C73.97000122070312,0.32899999618530273 61.64699935913086,23.684999465942383 36.14500045776367,26.799999237060547 C10.642999649047852,29.913999557495117 -32.46900177001953,27.009000778198242 -38.987998962402344,24.826000213623047 C-45.507999420166016,22.64299964904785 -79.70899963378906,13.354999542236328 -79.70899963378906,13.354999542236328z"></path></g><g opacity="1" transform="matrix(1,0,0,1,199.98899841308594,214.67799377441406)"><path stroke-linecap="round" stroke-linejoin="round" fill-opacity="0" stroke="rgb(160,18,73)" stroke-opacity="1" stroke-width="10.482" d=" M-22.43199920654297,-19.22800064086914 C-22.43199920654297,-19.22800064086914 -8.545999526977539,-17.625 5.340000152587891,-5.340000152587891 C17.274999618530273,5.2170000076293945 22.43199920654297,19.226999282836914 22.43199920654297,19.226999282836914"></path></g><g opacity="1" transform="matrix(1,0,0,1,175.2570037841797,210.26100158691406)"><path fill="rgb(255,72,155)" fill-opacity="1" d=" M16.493999481201172,6.421000003814697 C15.315999984741211,11.09000015258789 4.113999843597412,6.566999912261963 -4.994999885559082,4.26800012588501 C-14.104999542236328,1.968999981880188 -17.672000885009766,2.765000104904175 -16.493999481201172,-1.9040000438690186 C-15.315999984741211,-6.573999881744385 -7.545000076293945,-11.090999603271484 1.565000057220459,-8.791999816894531 C10.673999786376953,-6.49399995803833 17.672000885009766,1.7519999742507935 16.493999481201172,6.421000003814697z"></path></g><g opacity="1" transform="matrix(1,0,0,1,230.75799560546875,207.54200744628906)"><path fill="rgb(255,51,134)" fill-opacity="1" d=" M12.215999603271484,3.872999906539917 C11.652000427246094,7.330999851226807 3.25,4.747000217437744 -3.496999979019165,3.6459999084472656 C-10.243000030517578,2.5450000762939453 -12.779999732971191,3.3429999351501465 -12.215999603271484,-0.11500000208616257 C-11.651000022888184,-3.572999954223633 -6.297999858856201,-7.330999851226807 0.4490000009536743,-6.230000019073486 C7.195000171661377,-5.127999782562256 12.779999732971191,0.41499999165534973 12.215999603271484,3.872999906539917z"></path></g></g><g opacity="1" transform="matrix(1,0,0,1,0,0)"><g opacity="1" transform="matrix(1,0,0,1,161.23300170898438,117.60800170898438)"><path fill="rgb(242,249,252)" fill-opacity="1" d=" M82.1449966430664,-43.77299880981445 C82.1449966430664,-43.77299880981445 78.51399993896484,-41.380001068115234 76.59200286865234,-37.0099983215332 C75.26000213623047,-33.98099899291992 74.38999938964844,-29.753000259399414 73.98100280761719,-27.44300079345703 C73.83999633789062,-26.643999099731445 72.93499755859375,-26.22599983215332 72.20600128173828,-26.617000579833984 C69.27999877929688,-28.184999465942383 62.59700012207031,-31.882999420166016 57.05400085449219,-31.391000747680664 C44.89699935913086,-30.312999725341797 38.487998962402344,-16.159000396728516 38.487998962402344,-13.48799991607666 C38.487998962402344,-11.246999740600586 36.69300079345703,-11.618000030517578 35.45600128173828,-11.286999702453613 C34.98099899291992,-11.15999984741211 34.481998443603516,-11.3149995803833 34.18000030517578,-11.694000244140625 C32.3380012512207,-14.003999710083008 21.6560001373291,-21.71299934387207 12.050000190734863,-20.698999404907227 C-7.4710001945495605,-18.638999938964844 -10.70300006866455,2.131999969482422 -11.984000205993652,3.069000005722046 C-13.265000343322754,4.005000114440918 -13.293000221252441,3.931999921798706 -15.722999572753906,-1.7380000352859497 C-18.927000045776367,-9.215999603271484 -28.3439998626709,-14.536999702453613 -37.422000885009766,-14.29800033569336 C-50.13100051879883,-13.96399974822998 -56.659000396728516,-5.270999908447266 -58.69499969482422,-4.0279998779296875 C-59.012001037597656,-3.8340001106262207 -59.39699935913086,-3.7929999828338623 -59.74700164794922,-3.9210000038146973 C-61.1879997253418,-4.447999954223633 -62.09299850463867,-4.105000019073486 -63.375999450683594,-7.355000019073486 C-64.97799682617188,-11.413000106811523 -72.02300262451172,-22.025999069213867 -79.06999969482422,-23.89900016784668 C-84.54499816894531,-25.354999542236328 -88.86100006103516,-24.54800033569336 -90.51200103759766,-24.115999221801758 C-90.96800231933594,-23.996999740600586 -91.44300079345703,-24.149999618530273 -91.74700164794922,-24.50200080871582 C-93.23500061035156,-26.229999542236328 -95.4020004272461,-30.198999404907227 -98.56099700927734,-30.198999404907227 C-102.40399932861328,-30.198999404907227 -108.89399719238281,-23.083999633789062 -111.95600128173828,-14.130999565124512 C-115.56300354003906,-3.5859999656677246 -117.82099914550781,2.4049999713897705 -118.13899993896484,4.949999809265137 C-118.18399810791016,5.306000232696533 -119.4280014038086,5.697999954223633 -119.16899871826172,5.953999996185303 C-117.94100189208984,7.170000076293945 -116.43199920654297,9.536999702453613 -111.41899871826172,12.623000144958496 C-106.60299682617188,15.586999893188477 -72.33799743652344,38.14099884033203 -38.15599822998047,43.928001403808594 C-17.229000091552734,47.470001220703125 1.7239999771118164,48.46699905395508 13.118000030517578,47.93299865722656 C43.683998107910156,46.500999450683594 62.43199920654297,38.67399978637695 65.99400329589844,37.250999450683594 C94.50299835205078,25.8700008392334 116.06099700927734,1.1180000305175781 117.53500366210938,-1.4709999561309814 C119.4280014038086,-4.796000003814697 104.39299774169922,-44.62900161743164 104.18299865722656,-44.733001708984375 C102.98200225830078,-45.32699966430664 96.6500015258789,-48.46699905395508 92.28700256347656,-47.935001373291016 C87.16200256347656,-47.31100082397461 82.1449966430664,-43.77299880981445 82.1449966430664,-43.77299880981445z"></path><path stroke-linecap="round" stroke-linejoin="round" fill-opacity="0" stroke="rgb(75,153,196)" stroke-opacity="1" stroke-width="10" d=" M82.1449966430664,-43.77299880981445 C82.1449966430664,-43.77299880981445 78.51399993896484,-41.380001068115234 76.59200286865234,-37.0099983215332 C75.26000213623047,-33.98099899291992 74.38999938964844,-29.753000259399414 73.98100280761719,-27.44300079345703 C73.83999633789062,-26.643999099731445 72.93499755859375,-26.22599983215332 72.20600128173828,-26.617000579833984 C69.27999877929688,-28.184999465942383 62.59700012207031,-31.882999420166016 57.05400085449219,-31.391000747680664 C44.89699935913086,-30.312999725341797 38.487998962402344,-16.159000396728516 38.487998962402344,-13.48799991607666 C38.487998962402344,-11.246999740600586 36.69300079345703,-11.618000030517578 35.45600128173828,-11.286999702453613 C34.98099899291992,-11.15999984741211 34.481998443603516,-11.3149995803833 34.18000030517578,-11.694000244140625 C32.3380012512207,-14.003999710083008 21.6560001373291,-21.71299934387207 12.050000190734863,-20.698999404907227 C-7.4710001945495605,-18.638999938964844 -10.70300006866455,2.131999969482422 -11.984000205993652,3.069000005722046 C-13.265000343322754,4.005000114440918 -13.293000221252441,3.931999921798706 -15.722999572753906,-1.7380000352859497 C-18.927000045776367,-9.215999603271484 -28.3439998626709,-14.536999702453613 -37.422000885009766,-14.29800033569336 C-50.13100051879883,-13.96399974822998 -56.659000396728516,-5.270999908447266 -58.69499969482422,-4.0279998779296875 C-59.012001037597656,-3.8340001106262207 -59.39699935913086,-3.7929999828338623 -59.74700164794922,-3.9210000038146973 C-61.1879997253418,-4.447999954223633 -62.09299850463867,-4.105000019073486 -63.375999450683594,-7.355000019073486 C-64.97799682617188,-11.413000106811523 -72.02300262451172,-22.025999069213867 -79.06999969482422,-23.89900016784668 C-84.54499816894531,-25.354999542236328 -88.86100006103516,-24.54800033569336 -90.51200103759766,-24.115999221801758 C-90.96800231933594,-23.996999740600586 -91.44300079345703,-24.149999618530273 -91.74700164794922,-24.50200080871582 C-93.23500061035156,-26.229999542236328 -95.4020004272461,-30.198999404907227 -98.56099700927734,-30.198999404907227 C-102.40399932861328,-30.198999404907227 -108.89399719238281,-23.083999633789062 -111.95600128173828,-14.130999565124512 C-115.56300354003906,-3.5859999656677246 -117.82099914550781,2.4049999713897705 -118.13899993896484,4.949999809265137 C-118.18399810791016,5.306000232696533 -119.4280014038086,5.697999954223633 -119.16899871826172,5.953999996185303 C-117.94100189208984,7.170000076293945 -116.43199920654297,9.536999702453613 -111.41899871826172,12.623000144958496 C-106.60299682617188,15.586999893188477 -72.33799743652344,38.14099884033203 -38.15599822998047,43.928001403808594 C-17.229000091552734,47.470001220703125 1.7239999771118164,48.46699905395508 13.118000030517578,47.93299865722656 C43.683998107910156,46.500999450683594 62.43199920654297,38.67399978637695 65.99400329589844,37.250999450683594 C94.50299835205078,25.8700008392334 116.06099700927734,1.1180000305175781 117.53500366210938,-1.4709999561309814 C119.4280014038086,-4.796000003814697 104.39299774169922,-44.62900161743164 104.18299865722656,-44.733001708984375 C102.98200225830078,-45.32699966430664 96.6500015258789,-48.46699905395508 92.28700256347656,-47.935001373291016 C87.16200256347656,-47.31100082397461 82.1449966430664,-43.77299880981445 82.1449966430664,-43.77299880981445z"></path></g><g opacity="1" transform="matrix(1,0,0,1,242.7169952392578,113.73300170898438)"><path stroke-linecap="round" stroke-linejoin="round" fill-opacity="0" stroke="rgb(75,153,196)" stroke-opacity="1" stroke-width="10" d=" M-8.753000259399414,-23.34000015258789 C-8.753000259399414,-23.34000015258789 0.029999999329447746,-1.4240000247955322 2.049999952316284,3.9619998931884766 C4.070000171661377,9.347999572753906 8.753000259399414,23.34000015258789 8.753000259399414,23.34000015258789"></path></g><g opacity="1" transform="matrix(1,0,0,1,204.6179962158203,131.89300537109375)"><path stroke-linecap="round" stroke-linejoin="round" fill-opacity="0" stroke="rgb(75,153,196)" stroke-opacity="1" stroke-width="10" d=" M-5.872000217437744,-24.70199966430664 C-5.872000217437744,-24.70199966430664 1.9570000171661377,8.234999656677246 3.9140000343322754,16.4689998626709 C3.9140000343322754,16.4689998626709 5.872000217437744,24.70199966430664 5.872000217437744,24.70199966430664"></path></g><g opacity="1" transform="matrix(1,0,0,1,148.44700622558594,140.7050018310547)"><path stroke-linecap="round" stroke-linejoin="round" fill-opacity="0" stroke="rgb(75,153,196)" stroke-opacity="1" stroke-width="10" d=" M0.3930000066757202,-22.15999984741211 C0.3930000066757202,-22.15999984741211 -0.024000000208616257,-2.8540000915527344 0.020999999716877937,7.8520002365112305 C0.06599999964237213,18.558000564575195 -0.3930000066757202,22.15999984741211 -0.3930000066757202,22.15999984741211"></path></g><g opacity="1" transform="matrix(1,0,0,1,96.90699768066406,132.51600646972656)"><path stroke-linecap="round" stroke-linejoin="round" fill-opacity="0" stroke="rgb(75,153,196)" stroke-opacity="1" stroke-width="10" d=" M3.9519999027252197,-17.236000061035156 C3.9519999027252197,-17.236000061035156 1.4520000219345093,-3.7019999027252197 -0.6230000257492065,3.7929999828338623 C-3.747999906539917,15.081000328063965 -3.9519999027252197,17.23699951171875 -3.9519999027252197,17.23699951171875"></path></g><g opacity="1" transform="matrix(1,0,0,1,61.47800064086914,112.66500091552734)"><path stroke-linecap="round" stroke-linejoin="round" fill-opacity="0" stroke="rgb(75,153,196)" stroke-opacity="1" stroke-width="10" d=" M7.122000217437744,-16.735000610351562 C7.122000217437744,-16.735000610351562 2.493000030517578,-7.833000183105469 -1.0679999589920044,1.781000018119812 C-3.8469998836517334,9.284000396728516 -7.122000217437744,16.735000610351562 -7.122000217437744,16.735000610351562"></path></g></g><g opacity="1" transform="matrix(1,0,0,1,0,0)"><g opacity="1" transform="matrix(1,0,0,1,184.54200744628906,245.21099853515625)"><path fill="rgb(242,249,252)" fill-opacity="1" d=" M-104.04950714111328,-9.843893051147461 C-104.04950714111328,-9.843893051147461 -97.35450744628906,-23.18989372253418 -94.26050567626953,-26.41389274597168 C-91.16650390625,-29.637893676757812 -84.1969985961914,-26.724000930786133 -78.59100341796875,-25.240999221801758 C-72.98500061035156,-23.757999420166016 -23.97800064086914,-5.6579999923706055 24.968000411987305,-9.675000190734863 C59.244998931884766,-12.48799991607666 74.34500122070312,-24.49799919128418 84.21900177001953,-30.763999938964844 C88.2770004272461,-33.34000015258789 91.9469985961914,-35.28300094604492 96.06900024414062,-33.275001525878906 C100.41600036621094,-31.1560001373291 99.8499984741211,-27.239999771118164 101.84400177001953,-18.97599983215332 C103.83699798583984,-10.713000297546387 103.51000213623047,-7.7870001792907715 103.51000213623047,-7.7870001792907715 C103.51000213623047,-7.7870001792907715 100.70899963378906,-2.2820000648498535 96.88200378417969,-1.7400000095367432 C96.88200378417969,-1.7400000095367432 93.05400085449219,-1.1990000009536743 93.05400085449219,-1.1990000009536743 C93.05400085449219,-1.1990000009536743 87.9489974975586,11.876999855041504 78.61699676513672,13.847999572753906 C78.61699676513672,13.847999572753906 69.28399658203125,15.817999839782715 69.28399658203125,15.817999839782715 C69.28399658203125,15.817999839782715 59.36899948120117,25.719999313354492 46.564998626708984,26.138999938964844 C33.7599983215332,26.55699920654297 22.490999221801758,21.92799949645996 22.490999221801758,21.92799949645996 C22.490999221801758,21.92799949645996 8.848999977111816,35.28300094604492 -4.439000129699707,34.05099868774414 C-17.72800064086914,32.819000244140625 -20.633472442626953,23.329343795776367 -20.633472442626953,23.329343795776367 C-20.633472442626953,23.329343795776367 -33.191871643066406,29.171180725097656 -43.62786865234375,26.973356246948242 C-53.955284118652344,24.80580711364746 -61.53770446777344,17.529592514038086 -61.53770446777344,17.529592514038086 C-61.53770446777344,17.529592514038086 -74.51593780517578,14.94412612915039 -77.54694366455078,13.794126510620117 C-80.57794189453125,12.644125938415527 -104.04950714111328,-9.843893051147461 -104.04950714111328,-9.843893051147461z"></path><path stroke-linecap="round" stroke-linejoin="round" fill-opacity="0" stroke="rgb(75,153,196)" stroke-opacity="1" stroke-width="10" d=" M-104.04950714111328,-9.843893051147461 C-104.04950714111328,-9.843893051147461 -97.35450744628906,-23.18989372253418 -94.26050567626953,-26.41389274597168 C-91.16650390625,-29.637893676757812 -84.1969985961914,-26.724000930786133 -78.59100341796875,-25.240999221801758 C-72.98500061035156,-23.757999420166016 -23.97800064086914,-5.6579999923706055 24.968000411987305,-9.675000190734863 C59.244998931884766,-12.48799991607666 74.34500122070312,-24.49799919128418 84.21900177001953,-30.763999938964844 C88.2770004272461,-33.34000015258789 91.9469985961914,-35.28300094604492 96.06900024414062,-33.275001525878906 C100.41600036621094,-31.1560001373291 99.8499984741211,-27.239999771118164 101.84400177001953,-18.97599983215332 C103.83699798583984,-10.713000297546387 103.51000213623047,-7.7870001792907715 103.51000213623047,-7.7870001792907715 C103.51000213623047,-7.7870001792907715 100.70899963378906,-2.2820000648498535 96.88200378417969,-1.7400000095367432 C96.88200378417969,-1.7400000095367432 93.05400085449219,-1.1990000009536743 93.05400085449219,-1.1990000009536743 C93.05400085449219,-1.1990000009536743 87.9489974975586,11.876999855041504 78.61699676513672,13.847999572753906 C78.61699676513672,13.847999572753906 69.28399658203125,15.817999839782715 69.28399658203125,15.817999839782715 C69.28399658203125,15.817999839782715 59.36899948120117,25.719999313354492 46.564998626708984,26.138999938964844 C33.7599983215332,26.55699920654297 22.490999221801758,21.92799949645996 22.490999221801758,21.92799949645996 C22.490999221801758,21.92799949645996 8.848999977111816,35.28300094604492 -4.439000129699707,34.05099868774414 C-17.72800064086914,32.819000244140625 -20.633472442626953,23.329343795776367 -20.633472442626953,23.329343795776367 C-20.633472442626953,23.329343795776367 -33.191871643066406,29.171180725097656 -43.62786865234375,26.973356246948242 C-53.955284118652344,24.80580711364746 -61.53770446777344,17.529592514038086 -61.53770446777344,17.529592514038086 C-61.53770446777344,17.529592514038086 -74.51593780517578,14.94412612915039 -77.54694366455078,13.794126510620117 C-80.57794189453125,12.644125938415527 -104.04950714111328,-9.843893051147461 -104.04950714111328,-9.843893051147461z"></path></g><g opacity="1" transform="matrix(1,0,0,1,124.68000030517578,244.94400024414062)"><path stroke-linecap="round" stroke-linejoin="round" fill-opacity="0" stroke="rgb(75,153,196)" stroke-opacity="1" stroke-width="10" d=" M4.016613006591797,-14.093470573425293 C4.016613006591797,-14.093470573425293 -2.0363872051239014,4.778529644012451 -3.1043872833251953,9.407529830932617 C-3.1043872833251953,9.407529830932617 -4.173387050628662,14.03457260131836 -4.173387050628662,14.03457260131836"></path></g><g opacity="1" transform="matrix(1,0,0,1,99.75499725341797,233.3719940185547)"><path stroke-linecap="round" stroke-linejoin="round" fill-opacity="0" stroke="rgb(75,153,196)" stroke-opacity="1" stroke-width="10" d=" M3.8363447189331055,-10.909817695617676 C3.8363447189331055,-10.909817695617676 -3.1636157035827637,5.5207624435424805 -3.8756155967712402,8.013762474060059 C-4.588615417480469,10.505763053894043 -4.250915050506592,8.724732398986816 -4.250915050506592,8.724732398986816"></path></g><g opacity="1" transform="matrix(1,0,0,1,163.84800720214844,254.55799865722656)"><path stroke-linecap="round" stroke-linejoin="round" fill-opacity="0" stroke="rgb(75,153,196)" stroke-opacity="1" stroke-width="10" d=" M1.6030000448226929,-17.270000457763672 C1.6030000448226929,-17.270000457763672 -0.1770000010728836,5.1620001792907715 -0.8889999985694885,11.21500015258789 C-0.8889999985694885,11.21500015258789 -1.6030000448226929,17.270000457763672 -1.6030000448226929,17.270000457763672"></path></g><g opacity="1" transform="matrix(1,0,0,1,205.29100036621094,253.28199768066406)"><path stroke-linecap="round" stroke-linejoin="round" fill-opacity="0" stroke="rgb(75,153,196)" stroke-opacity="1" stroke-width="10" d=" M-1.7419999837875366,-13.855999946594238 C-1.7419999837875366,-13.855999946594238 0.75,1.0989999771118164 1.1069999933242798,6.440000057220459 C1.4630000591278076,11.781000137329102 1.7419999837875366,13.857000350952148 1.7419999837875366,13.857000350952148"></path></g><g opacity="1" transform="matrix(1,0,0,1,246.99000549316406,247.79299926757812)"><path stroke-linecap="round" stroke-linejoin="round" fill-opacity="0" stroke="rgb(75,153,196)" stroke-opacity="1" stroke-width="10" d=" M-4.2729997634887695,-15.133000373840332 C-4.2729997634887695,-15.133000373840332 0,0.17800000309944153 1.0679999589920044,4.451000213623047 C2.135999917984009,8.723999977111816 4.2729997634887695,15.133000373840332 4.2729997634887695,15.133000373840332"></path></g><g opacity="1" transform="matrix(1,0,0,1,271.3800048828125,232.48199462890625)"><path stroke-linecap="round" stroke-linejoin="round" fill-opacity="0" stroke="rgb(75,153,196)" stroke-opacity="1" stroke-width="10" d=" M-4.807000160217285,-12.640999794006348 C-4.807000160217285,-12.640999794006348 -0.5339999794960022,-3.0269999504089355 1.6019999980926514,2.313999891281128 C3.739000082015991,7.65500020980835 4.807000160217285,12.640999794006348 4.807000160217285,12.640999794006348"></path></g></g><g opacity="1" transform="matrix(1,0,0,1,201.31300354003906,156.2949981689453)"><path stroke-linecap="butt" stroke-linejoin="miter" fill-opacity="0" stroke-miterlimit="10" stroke="rgb(155,74,38)" stroke-opacity="1" stroke-width="12" d=" M-115.5199966430664,90.26399993896484 C-126.37300109863281,78.2750015258789 -136.4459991455078,66.95700073242188 -151.82000732421875,36.9900016784668 C-167.19400024414062,7.0229997634887695 -167.19400024414062,-51.972999572753906 -145.093994140625,-71.63899993896484 C-122.99400329589844,-91.30500030517578 -81.6760025024414,-81.94000244140625 -42.27899932861328,-80.06700134277344 C-2.882999897003174,-78.19400024414062 39.39500045776367,-114.71600341796875 53.808998107910156,-120.33499908447266 C68.22200012207031,-125.9530029296875 77.83100128173828,-129.69900512695312 99.93099975585938,-119.39800262451172 C122.03099822998047,-109.09700012207031 167.19400024414062,-86.62200164794922 157.5850067138672,-18.26099967956543 C147.9759979248047,50.099998474121094 108.58000183105469,90.36799621582031 93.20600128173828,100.66899871826172 C77.83200073242188,110.97000122070312 48.04399871826172,127.82599639892578 5.765999794006348,128.76300048828125 C-36.51300048828125,129.69900512695312 -71.53299713134766,118.98200225830078 -88.4020004272461,110.03399658203125 C-99.88099670410156,103.94400024414062 -109.91899871826172,96.45099639892578 -115.5199966430664,90.26399993896484z"></path></g></g><g style="display: block;" transform="matrix(0.937389612197876,0,0,0.9176328182220459,146.56671142578125,77.47571563720703)" opacity="1"><g opacity="1" transform="matrix(1,0,0,1,22.829999923706055,62.624000549316406)"><path stroke-linecap="round" stroke-linejoin="round" fill-opacity="0" stroke="rgb(211,113,87)" stroke-opacity="1" stroke-width="7.842" d=" M11.355999946594238,-19.63800048828125 C11.355999946594238,-19.63800048828125 4.25,-17.229000091552734 -0.26600000262260437,-12 C-11.355999946594238,0.8399999737739563 -1.8209999799728394,19.63800048828125 -1.8209999799728394,19.63800048828125"></path></g><g opacity="1" transform="matrix(1,0,0,1,146.33099365234375,32.284000396728516)"><path stroke-linecap="round" stroke-linejoin="round" fill-opacity="0" stroke="rgb(211,113,87)" stroke-opacity="1" stroke-width="8.833" d=" M-12.803999900817871,-8.052000045776367 C-12.803999900817871,-8.052000045776367 -4.785999774932861,-10.201000213623047 2.178999900817871,-5.870999813079834 C12.258999824523926,0.39500001072883606 12.803999900817871,10.20199966430664 12.803999900817871,10.20199966430664"></path></g><g opacity="1" transform="matrix(1,0,0,1,141.38299560546875,54.957000732421875)"><path fill="rgb(255,255,255)" fill-opacity="1" d=" M-8.128999710083008,-19.010000228881836 C1.7200000286102295,-25.006999969482422 8.276000022888184,-20.94300079345703 13.121000289916992,-14.104999542236328 C17.965999603271484,-7.267000198364258 24.240999221801758,7.129000186920166 11.072999954223633,16.19700050354004 C-1.7209999561309814,25.006999969482422 -12.755999565124512,17.611000061035156 -16.82200050354004,12.423999786376953 C-24.240999221801758,2.9579999446868896 -17.97800064086914,-13.012999534606934 -8.128999710083008,-19.010000228881836z"></path></g><g opacity="1" transform="matrix(1,0,0,1,141.38299560546875,54.957000732421875)"><path stroke-linecap="round" stroke-linejoin="round" fill-opacity="0" stroke="rgb(76,79,114)" stroke-opacity="1" stroke-width="8.6" d=" M-8.128999710083008,-19.010000228881836 C1.7200000286102295,-25.006999969482422 8.276000022888184,-20.94300079345703 13.121000289916992,-14.104999542236328 C17.965999603271484,-7.267000198364258 24.240999221801758,7.129000186920166 11.072999954223633,16.19700050354004 C-1.7209999561309814,25.006999969482422 -12.755999565124512,17.611000061035156 -16.82200050354004,12.423999786376953 C-24.240999221801758,2.9579999446868896 -17.97800064086914,-13.012999534606934 -8.128999710083008,-19.010000228881836z"></path></g><g opacity="1" transform="matrix(1,0,0,1,0,0)"><g opacity="1" transform="matrix(1,0,0,1,142.43499755859375,57.5260009765625)"><path fill="rgb(30,20,20)" fill-opacity="1" d=" M6.84499979019165,-0.8090000152587891 C7.291999816894531,2.9719998836517334 4.590000152587891,6.39900016784668 0.8090000152587891,6.84499979019165 C-2.9719998836517334,7.291999816894531 -6.39900016784668,4.590000152587891 -6.84499979019165,0.8090000152587891 C-7.291999816894531,-2.9709999561309814 -4.590000152587891,-6.3979997634887695 -0.8090000152587891,-6.84499979019165 C2.9709999561309814,-7.291999816894531 6.3979997634887695,-4.590000152587891 6.84499979019165,-0.8090000152587891z"></path></g><g opacity="1" transform="matrix(1,0,0,1,136.12399291992188,59.92100143432617)"><path fill="rgb(255,255,255)" fill-opacity="1" d=" M4.230000019073486,-2.184999942779541 C4.853000164031982,-0.9789999723434448 3.4639999866485596,0.9769999980926514 1.128000020980835,2.184000015258789 C-1.2079999446868896,3.3910000324249268 -3.6070001125335693,3.3910000324249268 -4.230000019073486,2.184999942779541 C-4.853000164031982,0.9789999723434448 -3.4639999866485596,-0.9769999980926514 -1.128000020980835,-2.184000015258789 C1.2079999446868896,-3.3910000324249268 3.6070001125335693,-3.3910000324249268 4.230000019073486,-2.184999942779541z"></path></g></g><g opacity="1" transform="matrix(1,0,0,1,42.441001892089844,74.3740005493164)"><path fill="rgb(255,255,255)" fill-opacity="1" d=" M-19.54599952697754,-12.6899995803833 C-22.746000289916992,-7.210000038146973 -23.163999557495117,2.053999900817871 -18.898000717163086,12.206999778747559 C-14.633000373840332,22.360000610351562 -5.304999828338623,23.64699935913086 -2.328000068664551,23.42099952697754 C5.609000205993652,22.81599998474121 20.586000442504883,15.805000305175781 22.049999237060547,4.861999988555908 C23.163999557495117,-3.4549999237060547 13.980999946594238,-15.467000007629395 5.436999797821045,-19.555999755859375 C-3.1059999465942383,-23.645999908447266 -16.819000244140625,-17.361000061035156 -19.54599952697754,-12.6899995803833z"></path></g><g opacity="1" transform="matrix(1,0,0,1,42.441001892089844,74.3740005493164)"><path stroke-linecap="round" stroke-linejoin="round" fill-opacity="0" stroke="rgb(76,79,114)" stroke-opacity="1" stroke-width="7.711" d=" M-19.54599952697754,-12.6899995803833 C-22.746000289916992,-7.210000038146973 -23.163999557495117,2.053999900817871 -18.898000717163086,12.206999778747559 C-14.633000373840332,22.360000610351562 -5.304999828338623,23.64699935913086 -2.328000068664551,23.42099952697754 C5.609000205993652,22.81599998474121 20.586000442504883,15.805000305175781 22.049999237060547,4.861999988555908 C23.163999557495117,-3.4549999237060547 13.980999946594238,-15.467000007629395 5.436999797821045,-19.555999755859375 C-3.1059999465942383,-23.645999908447266 -16.819000244140625,-17.361000061035156 -19.54599952697754,-12.6899995803833z"></path></g><g opacity="1" transform="matrix(1,0,0,1,0,0)"><g opacity="1" transform="matrix(1,0,0,1,47.604000091552734,77.25299835205078)"><path fill="rgb(30,20,20)" fill-opacity="1" d=" M6.979000091552734,-0.531000018119812 C7.271999835968018,3.322999954223633 4.386000156402588,6.685999870300293 0.531000018119812,6.979000091552734 C-3.322999954223633,7.271999835968018 -6.684999942779541,4.386000156402588 -6.979000091552734,0.531000018119812 C-7.271999835968018,-3.322999954223633 -4.385000228881836,-6.684999942779541 -0.531000018119812,-6.979000091552734 C3.322999954223633,-7.271999835968018 6.685999870300293,-4.385000228881836 6.979000091552734,-0.531000018119812z"></path></g><g opacity="1" transform="matrix(1,0,0,1,41.803001403808594,79.78299713134766)"><path fill="rgb(255,255,255)" fill-opacity="1" d=" M3.953000068664551,-1.8370000123977661 C4.4770002365112305,-0.7099999785423279 3.131999969482422,1.0260000228881836 0.9490000009536743,2.0409998893737793 C-1.2339999675750732,3.055000066757202 -3.428999900817871,2.9639999866485596 -3.953000068664551,1.8370000123977661 C-4.4770002365112305,0.7099999785423279 -3.131999969482422,-1.0260000228881836 -0.9490000009536743,-2.0399999618530273 C1.2339999675750732,-3.055000066757202 3.428999900817871,-2.9639999866485596 3.953000068664551,-1.8370000123977661z"></path></g></g></g><g style="display: block;" transform="matrix(0.937389612197876,0,0,0.9176328182220459,72.63102722167969,7.8145318031311035)" opacity="1"><g opacity="0" transform="matrix(0.43552228808403015,0.01689855568110943,-0.08707499504089355,0.3435622751712799,130.53875732421875,87.06939697265625)"><g opacity="1" transform="matrix(1,0,0,1,218.56500244140625,114.31600189208984)"><path fill="rgb(198,116,9)" fill-opacity="1" d=" M63.22999954223633,9.342000007629395 C63.18199920654297,9.135000228881836 61.58599853515625,5.438000202178955 61.51599884033203,5.23799991607666 C56.65800094604492,-8.61299991607666 49.380001068115234,-12.845999717712402 44.03499984741211,-15.645000457763672 C36.01900100708008,-19.8439998626709 28.672000885009766,-18.74799919128418 18.695999145507812,-18.29400062561035 C8.718999862670898,-17.839000701904297 5.500999927520752,-15.791000366210938 -1.4290000200271606,-20.41900062561035 C-6.303999900817871,-23.674999237060547 -6.784999847412109,-36.52899932861328 -0.9160000085830688,-37.55699920654297 C4.058000087738037,-38.428001403808594 12.28600025177002,-28.79400062561035 14.680999755859375,-25.836000442504883 C15.100000381469727,-25.31800079345703 15.767999649047852,-25.10300064086914 16.393999099731445,-25.277000427246094 C16.393999099731445,-25.277000427246094 41.27299880981445,-33.316001892089844 41.27299880981445,-33.316001892089844 C41.428001403808594,-33.35900115966797 43.777000427246094,-34.62300109863281 43.268001556396484,-35.766998291015625 C33.393001556396484,-57.939998626708984 15.86299991607666,-71.5260009765625 -8.404999732971191,-67.50599670410156 C-8.404999732971191,-67.50599670410156 -13.446999549865723,-78.71700286865234 -13.446999549865723,-78.71700286865234 C-14.513999938964844,-81.08999633789062 -17.167999267578125,-82.25 -19.545000076293945,-81.38099670410156 C-19.545000076293945,-81.38099670410156 -31.714000701904297,-76.93699645996094 -31.714000701904297,-76.93699645996094 C-34.4109992980957,-75.9520034790039 -35.659000396728516,-72.78199768066406 -34.4010009765625,-70.11100006103516 C-34.4010009765625,-70.11100006103516 -29.589000701904297,-59.89799880981445 -29.589000701904297,-59.89799880981445 C-51.542999267578125,-46.06700134277344 -45.6619987487793,-16.82200050354004 -39.887001037597656,-6.116000175476074 C-39.80799865722656,-5.96999979019165 -39.53099822998047,-5.140999794006348 -39.452999114990234,-4.994999885559082 C-38.57699966430664,-3.3459999561309814 -32.24399948120117,4.565000057220459 -22.749000549316406,8.696000099182129 C-8.20300006866455,15.026000022888184 13.199000358581543,8.960000038146973 16.454999923706055,14.13599967956543 C19.736000061035156,19.351999282836914 15.79699993133545,22.152999877929688 11.776000022888184,23.097000122070312 C9.045999526977539,23.73699951171875 -0.5299999713897705,18.899999618530273 -3.9790000915527344,19.631000518798828 C-11.312999725341797,21.18400001525879 -23.91200065612793,26.39699935913086 -28.62700080871582,28.4060001373291 C-29.597999572753906,28.81999969482422 -29.65999984741211,29.906999588012695 -29.319000244140625,30.937999725341797 C-23.45199966430664,48.6619987487793 -4.3460001945495605,68.20500183105469 20.85099983215332,65.65899658203125 C21.395999908447266,65.60399627685547 21.91699981689453,65.52899932861328 22.451000213623047,65.46499633789062 C22.451000213623047,65.46499633789062 26.95400047302246,76.25700378417969 26.95400047302246,76.25700378417969 C27.957000732421875,78.66100311279297 30.58099937438965,79.89600372314453 32.983001708984375,79.09400177001953 C32.983001708984375,79.09400177001953 48.683998107910156,73.85600280761719 48.683998107910156,73.85600280761719 C51.42499923706055,72.94200134277344 52.75299835205078,69.77899932861328 51.53499984741211,67.06900024414062 C51.53499984741211,67.06900024414062 47.108001708984375,57.22600173950195 47.108001708984375,57.22600173950195 C63.178001403808594,46.78499984741211 67.66699981689453,28.464000701904297 63.22999954223633,9.342000007629395z"></path><path stroke-linecap="butt" stroke-linejoin="miter" fill-opacity="0" stroke-miterlimit="10" stroke="rgb(198,116,9)" stroke-opacity="1" stroke-width="14" d=" M63.22999954223633,9.342000007629395 C63.18199920654297,9.135000228881836 61.58599853515625,5.438000202178955 61.51599884033203,5.23799991607666 C56.65800094604492,-8.61299991607666 49.380001068115234,-12.845999717712402 44.03499984741211,-15.645000457763672 C36.01900100708008,-19.8439998626709 28.672000885009766,-18.74799919128418 18.695999145507812,-18.29400062561035 C8.718999862670898,-17.839000701904297 5.500999927520752,-15.791000366210938 -1.4290000200271606,-20.41900062561035 C-6.303999900817871,-23.674999237060547 -6.784999847412109,-36.52899932861328 -0.9160000085830688,-37.55699920654297 C4.058000087738037,-38.428001403808594 12.28600025177002,-28.79400062561035 14.680999755859375,-25.836000442504883 C15.100000381469727,-25.31800079345703 15.767999649047852,-25.10300064086914 16.393999099731445,-25.277000427246094 C16.393999099731445,-25.277000427246094 41.27299880981445,-33.316001892089844 41.27299880981445,-33.316001892089844 C41.428001403808594,-33.35900115966797 43.777000427246094,-34.62300109863281 43.268001556396484,-35.766998291015625 C33.393001556396484,-57.939998626708984 15.86299991607666,-71.5260009765625 -8.404999732971191,-67.50599670410156 C-8.404999732971191,-67.50599670410156 -13.446999549865723,-78.71700286865234 -13.446999549865723,-78.71700286865234 C-14.513999938964844,-81.08999633789062 -17.167999267578125,-82.25 -19.545000076293945,-81.38099670410156 C-19.545000076293945,-81.38099670410156 -31.714000701904297,-76.93699645996094 -31.714000701904297,-76.93699645996094 C-34.4109992980957,-75.9520034790039 -35.659000396728516,-72.78199768066406 -34.4010009765625,-70.11100006103516 C-34.4010009765625,-70.11100006103516 -29.589000701904297,-59.89799880981445 -29.589000701904297,-59.89799880981445 C-51.542999267578125,-46.06700134277344 -45.6619987487793,-16.82200050354004 -39.887001037597656,-6.116000175476074 C-39.80799865722656,-5.96999979019165 -39.53099822998047,-5.140999794006348 -39.452999114990234,-4.994999885559082 C-38.57699966430664,-3.3459999561309814 -32.24399948120117,4.565000057220459 -22.749000549316406,8.696000099182129 C-8.20300006866455,15.026000022888184 13.199000358581543,8.960000038146973 16.454999923706055,14.13599967956543 C19.736000061035156,19.351999282836914 15.79699993133545,22.152999877929688 11.776000022888184,23.097000122070312 C9.045999526977539,23.73699951171875 -0.5299999713897705,18.899999618530273 -3.9790000915527344,19.631000518798828 C-11.312999725341797,21.18400001525879 -23.91200065612793,26.39699935913086 -28.62700080871582,28.4060001373291 C-29.597999572753906,28.81999969482422 -29.65999984741211,29.906999588012695 -29.319000244140625,30.937999725341797 C-23.45199966430664,48.6619987487793 -4.3460001945495605,68.20500183105469 20.85099983215332,65.65899658203125 C21.395999908447266,65.60399627685547 21.91699981689453,65.52899932861328 22.451000213623047,65.46499633789062 C22.451000213623047,65.46499633789062 26.95400047302246,76.25700378417969 26.95400047302246,76.25700378417969 C27.957000732421875,78.66100311279297 30.58099937438965,79.89600372314453 32.983001708984375,79.09400177001953 C32.983001708984375,79.09400177001953 48.683998107910156,73.85600280761719 48.683998107910156,73.85600280761719 C51.42499923706055,72.94200134277344 52.75299835205078,69.77899932861328 51.53499984741211,67.06900024414062 C51.53499984741211,67.06900024414062 47.108001708984375,57.22600173950195 47.108001708984375,57.22600173950195 C63.178001403808594,46.78499984741211 67.66699981689453,28.464000701904297 63.22999954223633,9.342000007629395z"></path></g><g opacity="1" transform="matrix(1,0,0,1,226.81399536132812,109.95500183105469)"><path fill="url(#__lottie_element_46)" fill-opacity="1" d=" M52.0989990234375,16.78499984741211 C52.0890007019043,16.572999954223633 51.92599868774414,12.925000190734863 51.875999450683594,12.718999862670898 C48.255001068115234,-2.1110000610351562 46.75400161743164,-4.248000144958496 44.1150016784668,-9.673999786376953 C41.70899963378906,-14.619000434875488 39.053001403808594,-20.732999801635742 38.05799865722656,-22.047000885009766 C36.36899948120117,-24.277000427246094 35.16899871826172,-27.479999542236328 34.16999816894531,-29.391000747680664 C31.45400047302246,-34.58599853515625 33.9640007019043,-30.332000732421875 31.770999908447266,-33.56100082397461 C28.93400001525879,-37.73899841308594 27.263999938964844,-39.358001708984375 29.659000396728516,-36.400001525878906 C30.077999114990234,-35.88199996948242 27.322999954223633,-39.98699951171875 27.948999404907227,-40.1609992980957 C27.948999404907227,-40.1609992980957 24.9060001373291,-43.28300094604492 24.9060001373291,-43.28300094604492 C25.06100082397461,-43.32600021362305 22.632999420166016,-47.970001220703125 21.972000122070312,-49.034000396728516 C13.998000144958496,-61.87200164794922 8.576000213623047,-72.44400024414062 -15.692000389099121,-68.42400360107422 C-15.692000389099121,-68.42400360107422 -19.405000686645508,-67.61499786376953 -19.405000686645508,-67.61499786376953 C-20.472000122070312,-69.98799896240234 -21.43400001525879,-67.5780029296875 -23.81100082397461,-66.70899963378906 C-23.81100082397461,-66.70899963378906 -35.97999954223633,-62.26499938964844 -35.97999954223633,-62.26499938964844 C-38.676998138427734,-61.279998779296875 -43.38600158691406,-59.61000061035156 -42.12799835205078,-56.93899917602539 C-42.12799835205078,-56.93899917602539 -44.18199920654297,-53.95500183105469 -44.18199920654297,-53.95500183105469 C-53.090999603271484,-48.099998474121094 -58.22800064086914,-13.647000312805176 -52.452999114990234,-2.940999984741211 C-52.374000549316406,-2.7950000762939453 -51.733001708984375,0.14900000393390656 -51.79899978637695,0.3009999990463257 C-52.5260009765625,1.9739999771118164 -51.305999755859375,3.7690000534057617 -49.4379997253418,7.980000019073486 C-48.106998443603516,10.979999542236328 -47.71099853515625,13.732999801635742 -46.340999603271484,16.714000701904297 C-43.76900100708008,22.31399917602539 -44.64099884033203,20.31100082397461 -43.04100036621094,24.118999481201172 C-42.15999984741211,26.21500015258789 -42.70000076293945,24.73200035095215 -40.986000061035156,27.812999725341797 C-39.483001708984375,30.514999389648438 -40.715999603271484,29.777999877929688 -39.70100021362305,31.6200008392334 C-39.19200134277344,32.54499816894531 -38.755001068115234,33.87699890136719 -38.41400146484375,34.90800094604492 C-32.547000885009766,52.63199996948242 -9.64799976348877,67.9520034790039 3.2839999198913574,70.81999969482422 C3.819000005722046,70.93900299072266 11.062999725341797,70.86399841308594 11.597000122070312,70.80000305175781 C11.597000122070312,70.80000305175781 16.013999938964844,69.60399627685547 16.013999938964844,69.60399627685547 C17.017000198364258,72.00800323486328 19.697999954223633,69.01399993896484 22.100000381469727,68.21199798583984 C22.100000381469727,68.21199798583984 33.58399963378906,62.159000396728516 33.58399963378906,62.159000396728516 C36.32500076293945,61.244998931884766 39.22999954223633,58.29100036621094 40.652000427246094,56.1870002746582 C40.652000427246094,56.1870002746582 39.04600143432617,58.40299987792969 39.04600143432617,58.40299987792969 C50.76599884033203,51.1870002746582 52.58300018310547,27.261999130249023 52.0989990234375,16.78499984741211z"></path><path stroke-linecap="round" stroke-linejoin="round" fill-opacity="0" stroke="rgb(198,116,9)" stroke-opacity="1" stroke-width="11.553" d=" M52.0989990234375,16.78499984741211 C52.0890007019043,16.572999954223633 51.92599868774414,12.925000190734863 51.875999450683594,12.718999862670898 C48.255001068115234,-2.1110000610351562 46.75400161743164,-4.248000144958496 44.1150016784668,-9.673999786376953 C41.70899963378906,-14.619000434875488 39.053001403808594,-20.732999801635742 38.05799865722656,-22.047000885009766 C36.36899948120117,-24.277000427246094 35.16899871826172,-27.479999542236328 34.16999816894531,-29.391000747680664 C31.45400047302246,-34.58599853515625 33.9640007019043,-30.332000732421875 31.770999908447266,-33.56100082397461 C28.93400001525879,-37.73899841308594 27.263999938964844,-39.358001708984375 29.659000396728516,-36.400001525878906 C30.077999114990234,-35.88199996948242 27.322999954223633,-39.98699951171875 27.948999404907227,-40.1609992980957 C27.948999404907227,-40.1609992980957 24.9060001373291,-43.28300094604492 24.9060001373291,-43.28300094604492 C25.06100082397461,-43.32600021362305 22.632999420166016,-47.970001220703125 21.972000122070312,-49.034000396728516 C13.998000144958496,-61.87200164794922 8.576000213623047,-72.44400024414062 -15.692000389099121,-68.42400360107422 C-15.692000389099121,-68.42400360107422 -19.405000686645508,-67.61499786376953 -19.405000686645508,-67.61499786376953 C-20.472000122070312,-69.98799896240234 -21.43400001525879,-67.5780029296875 -23.81100082397461,-66.70899963378906 C-23.81100082397461,-66.70899963378906 -35.97999954223633,-62.26499938964844 -35.97999954223633,-62.26499938964844 C-38.676998138427734,-61.279998779296875 -43.38600158691406,-59.61000061035156 -42.12799835205078,-56.93899917602539 C-42.12799835205078,-56.93899917602539 -44.18199920654297,-53.95500183105469 -44.18199920654297,-53.95500183105469 C-53.090999603271484,-48.099998474121094 -58.22800064086914,-13.647000312805176 -52.452999114990234,-2.940999984741211 C-52.374000549316406,-2.7950000762939453 -51.733001708984375,0.14900000393390656 -51.79899978637695,0.3009999990463257 C-52.5260009765625,1.9739999771118164 -51.305999755859375,3.7690000534057617 -49.4379997253418,7.980000019073486 C-48.106998443603516,10.979999542236328 -47.71099853515625,13.732999801635742 -46.340999603271484,16.714000701904297 C-43.76900100708008,22.31399917602539 -44.64099884033203,20.31100082397461 -43.04100036621094,24.118999481201172 C-42.15999984741211,26.21500015258789 -42.70000076293945,24.73200035095215 -40.986000061035156,27.812999725341797 C-39.483001708984375,30.514999389648438 -40.715999603271484,29.777999877929688 -39.70100021362305,31.6200008392334 C-39.19200134277344,32.54499816894531 -38.755001068115234,33.87699890136719 -38.41400146484375,34.90800094604492 C-32.547000885009766,52.63199996948242 -9.64799976348877,67.9520034790039 3.2839999198913574,70.81999969482422 C3.819000005722046,70.93900299072266 11.062999725341797,70.86399841308594 11.597000122070312,70.80000305175781 C11.597000122070312,70.80000305175781 16.013999938964844,69.60399627685547 16.013999938964844,69.60399627685547 C17.017000198364258,72.00800323486328 19.697999954223633,69.01399993896484 22.100000381469727,68.21199798583984 C22.100000381469727,68.21199798583984 33.58399963378906,62.159000396728516 33.58399963378906,62.159000396728516 C36.32500076293945,61.244998931884766 39.22999954223633,58.29100036621094 40.652000427246094,56.1870002746582 C40.652000427246094,56.1870002746582 39.04600143432617,58.40299987792969 39.04600143432617,58.40299987792969 C50.76599884033203,51.1870002746582 52.58300018310547,27.261999130249023 52.0989990234375,16.78499984741211z"></path></g></g><g opacity="0" transform="matrix(0.38392218947410583,-0.0585426390171051,0.052654609084129333,0.3453085422515869,75.19976806640625,109.41983032226562)"><g opacity="0" transform="matrix(1,0,0,1,88.13099670410156,138.2530059814453)"><path fill="rgb(198,116,9)" fill-opacity="1" d=" M66.3479995727539,22.975000381469727 C66.34100341796875,22.7450008392334 65.41999816894531,18.47599983215332 65.38700103759766,18.24799919128418 C63.14799880981445,2.492000102996826 56.180999755859375,-3.5299999713897705 50.99800109863281,-7.623000144958496 C43.222999572753906,-13.763999938964844 35.016998291015625,-14.130000114440918 24.099000930786133,-15.72599983215332 C13.182000160217285,-17.32200050354004 9.244000434875488,-15.812000274658203 2.742000102996826,-22.18400001525879 C-1.8329999446868896,-26.666000366210938 0.4560000002384186,-40.448001861572266 7.045000076293945,-40.31800079345703 C12.628999710083008,-40.20899963378906 19.445999145507812,-28.23900032043457 21.395000457763672,-24.590999603271484 C21.736000061035156,-23.95199966430664 22.413999557495117,-23.583999633789062 23.131000518798828,-23.638999938964844 C23.131000518798828,-23.638999938964844 51.867000579833984,-27.007999420166016 51.867000579833984,-27.007999420166016 C52.042999267578125,-27.02199935913086 54.86800003051758,-27.878000259399414 54.566001892089844,-29.201000213623047 C48.707000732421875,-54.861000061035156 32.667999267578125,-72.97699737548828 5.473999977111816,-73.75800323486328 C5.473999977111816,-73.75800323486328 2.4579999446868896,-86.74199676513672 2.4579999446868896,-86.74199676513672 C1.8200000524520874,-89.49099731445312 -5.625,-93.5260009765625 -8.392999649047852,-93.09700012207031 C-8.392999649047852,-93.09700012207031 -15.736000061035156,-88.76399993896484 -15.736000061035156,-88.76399993896484 C-19.075000762939453,-87.04399871826172 -19.499000549316406,-84.09600067138672 -18.7189998626709,-80.99099731445312 C-18.7189998626709,-80.99099731445312 -16.937999725341797,-70.66500091552734 -16.937999725341797,-70.66500091552734 C-43.76900100708008,-60.520999908447266 -46.0099983215332,-27.57699966430664 -42.0880012512207,-14.977999687194824 C-42.03499984741211,-14.805999755859375 -41.91600036621094,-13.866000175476074 -41.862998962402344,-13.694000244140625 C-41.275001525878906,-11.755999565124512 -36.137001037597656,-2.015000104904175 -26.743999481201172,4.361999988555908 C-12.354000091552734,14.130999565124512 12.178999900817871,12.13700008392334 14.57800006866455,18.325000762939453 C16.996000289916992,24.562000274658203 12.112000465393066,26.72100067138672 7.545000076293945,26.886999130249023 C4.443999767303467,27 -19.091999053955078,18.29400062561035 -22.992000579833984,18.351999282836914 C-31.284000396728516,18.476999282836914 -35.45399856567383,24.048999786376953 -37.23400115966797,25.829999923706055 C-38.060001373291016,26.6560001373291 -38.68199920654297,27.211999893188477 -38.53799819946289,28.3799991607666 C-36.051998138427734,48.46900177001953 -19.801000595092773,71.53900146484375 8.079000473022461,74.08399963378906 C8.680999755859375,74.13899993896484 9.262999534606934,74.16699981689453 9.855999946594238,74.20999908447266 C9.855999946594238,74.20999908447266 12.378999710083008,86.63600158691406 12.378999710083008,86.63600158691406 C12.940999984741211,89.40399932861328 15.515999794006348,91.26499938964844 18.29599952697754,90.91300201416016 C18.29599952697754,90.91300201416016 43.99399948120117,87.38500213623047 43.99399948120117,87.38500213623047 C47.16600036621094,86.98300170898438 53.000999450683594,81.97799682617188 52.27199935913086,78.83899688720703 C52.27199935913086,78.83899688720703 38.39500045776367,70.58100128173828 38.39500045776367,70.58100128173828 C58.10300064086914,62.81800079345703 66.97699737548828,44.25299835205078 66.3479995727539,22.975000381469727z"></path><path stroke-linecap="butt" stroke-linejoin="miter" fill-opacity="0" stroke-miterlimit="10" stroke="rgb(198,116,9)" stroke-opacity="1" stroke-width="12.655" d=" M66.3479995727539,22.975000381469727 C66.34100341796875,22.7450008392334 65.41999816894531,18.47599983215332 65.38700103759766,18.24799919128418 C63.14799880981445,2.492000102996826 56.180999755859375,-3.5299999713897705 50.99800109863281,-7.623000144958496 C43.222999572753906,-13.763999938964844 35.016998291015625,-14.130000114440918 24.099000930786133,-15.72599983215332 C13.182000160217285,-17.32200050354004 9.244000434875488,-15.812000274658203 2.742000102996826,-22.18400001525879 C-1.8329999446868896,-26.666000366210938 0.4560000002384186,-40.448001861572266 7.045000076293945,-40.31800079345703 C12.628999710083008,-40.20899963378906 19.445999145507812,-28.23900032043457 21.395000457763672,-24.590999603271484 C21.736000061035156,-23.95199966430664 22.413999557495117,-23.583999633789062 23.131000518798828,-23.638999938964844 C23.131000518798828,-23.638999938964844 51.867000579833984,-27.007999420166016 51.867000579833984,-27.007999420166016 C52.042999267578125,-27.02199935913086 54.86800003051758,-27.878000259399414 54.566001892089844,-29.201000213623047 C48.707000732421875,-54.861000061035156 32.667999267578125,-72.97699737548828 5.473999977111816,-73.75800323486328 C5.473999977111816,-73.75800323486328 2.4579999446868896,-86.74199676513672 2.4579999446868896,-86.74199676513672 C1.8200000524520874,-89.49099731445312 -5.625,-93.5260009765625 -8.392999649047852,-93.09700012207031 C-8.392999649047852,-93.09700012207031 -15.736000061035156,-88.76399993896484 -15.736000061035156,-88.76399993896484 C-19.075000762939453,-87.04399871826172 -19.499000549316406,-84.09600067138672 -18.7189998626709,-80.99099731445312 C-18.7189998626709,-80.99099731445312 -16.937999725341797,-70.66500091552734 -16.937999725341797,-70.66500091552734 C-43.76900100708008,-60.520999908447266 -46.0099983215332,-27.57699966430664 -42.0880012512207,-14.977999687194824 C-42.03499984741211,-14.805999755859375 -41.91600036621094,-13.866000175476074 -41.862998962402344,-13.694000244140625 C-41.275001525878906,-11.755999565124512 -36.137001037597656,-2.015000104904175 -26.743999481201172,4.361999988555908 C-12.354000091552734,14.130999565124512 12.178999900817871,12.13700008392334 14.57800006866455,18.325000762939453 C16.996000289916992,24.562000274658203 12.112000465393066,26.72100067138672 7.545000076293945,26.886999130249023 C4.443999767303467,27 -19.091999053955078,18.29400062561035 -22.992000579833984,18.351999282836914 C-31.284000396728516,18.476999282836914 -35.45399856567383,24.048999786376953 -37.23400115966797,25.829999923706055 C-38.060001373291016,26.6560001373291 -38.68199920654297,27.211999893188477 -38.53799819946289,28.3799991607666 C-36.051998138427734,48.46900177001953 -19.801000595092773,71.53900146484375 8.079000473022461,74.08399963378906 C8.680999755859375,74.13899993896484 9.262999534606934,74.16699981689453 9.855999946594238,74.20999908447266 C9.855999946594238,74.20999908447266 12.378999710083008,86.63600158691406 12.378999710083008,86.63600158691406 C12.940999984741211,89.40399932861328 15.515999794006348,91.26499938964844 18.29599952697754,90.91300201416016 C18.29599952697754,90.91300201416016 43.99399948120117,87.38500213623047 43.99399948120117,87.38500213623047 C47.16600036621094,86.98300170898438 53.000999450683594,81.97799682617188 52.27199935913086,78.83899688720703 C52.27199935913086,78.83899688720703 38.39500045776367,70.58100128173828 38.39500045776367,70.58100128173828 C58.10300064086914,62.81800079345703 66.97699737548828,44.25299835205078 66.3479995727539,22.975000381469727z"></path></g><g opacity="1" transform="matrix(1,0,0,1,99.96199798583984,133.8769989013672)"><path fill="url(#__lottie_element_47)" fill-opacity="1" d=" M59.15700149536133,22.42099952697754 C59.150001525878906,22.19099998474121 59.33700180053711,14.96500015258789 59.2859992980957,14.739999771118164 C57.652000427246094,7.543000221252441 57.481998443603516,6.0229997634887695 55.10300064086914,-0.1379999965429306 C54.64899826049805,-0.7799999713897705 48.611000061035156,-16.10700035095215 52.86899948120117,-5.927999973297119 C53.80400085449219,-3.691999912261963 53.90599822998047,-5.416999816894531 52.141998291015625,-8.854000091552734 C47.89899826049805,-17.1200008392334 50.472999572753906,-12.913999557495117 47.500999450683594,-18.79599952697754 C42.26499938964844,-29.15999984741211 47.67900085449219,-19.91699981689453 45.316001892089844,-25.163000106811523 C45.01900100708008,-25.822999954223633 43.231998443603516,-29.083999633789062 43.95000076293945,-29.138999938964844 C43.95000076293945,-29.138999938964844 42.10900115966797,-33.94499969482422 42.10900115966797,-33.94499969482422 C42.28499984741211,-33.95899963378906 40.040000915527344,-37.347999572753906 39.737998962402344,-38.67100143432617 C33.87900161743164,-64.33100128173828 22.18400001525879,-72.97100067138672 -5.010000228881836,-73.75199890136719 C-5.010000228881836,-73.75199890136719 -5.642000198364258,-72.8499984741211 -5.642000198364258,-72.8499984741211 C-6.28000020980835,-75.5989990234375 -8.980999946594238,-72.66000366210938 -11.74899959564209,-72.23100280761719 C-11.74899959564209,-72.23100280761719 -25.915000915527344,-70.03700256347656 -25.915000915527344,-70.03700256347656 C-29.055999755859375,-69.5510025024414 -36.987998962402344,-69.9219970703125 -36.20800018310547,-66.81800079345703 C-36.20800018310547,-66.81800079345703 -29.645999908447266,-70.06999969482422 -29.645999908447266,-70.06999969482422 C-56.47600173950195,-59.92599868774414 -58.52000045776367,-45.40800094604492 -61.56100082397461,-27.68199920654297 C-61.590999603271484,-27.5049991607666 -62.32099914550781,-20.426000595092773 -62.268001556396484,-20.253999710083008 C-61.68000030517578,-18.31599998474121 -63.823001861572266,-16.511999130249023 -60.74300003051758,-5.585000038146973 C-58.0369987487793,4.014999866485596 -61.47600173950195,-1.9149999618530273 -60.22700119018555,4.603000164031982 C-59.904998779296875,6.284999847412109 -59.6619987487793,11.053999900817871 -58.7130012512207,13.961000442504883 C-57.75,16.910999298095703 -57.75199890136719,16.513999938964844 -56.854000091552734,20.309999465942383 C-56.09199905395508,23.534000396728516 -56.4379997253418,25.22800064086914 -55.23699951171875,25.895999908447266 C-54.21699905395508,26.464000701904297 -53.99300003051758,28.57200050354004 -53.847999572753906,29.739999771118164 C-51.362998962402344,49.82899856567383 -30.284000396728516,71.5459976196289 -2.4040000438690186,74.09100341796875 C-1.8020000457763672,74.14600372314453 -1.2200000286102295,74.17400360107422 -0.6269999742507935,74.21700286865234 C-0.6269999742507935,74.21700286865234 -2.046999931335449,72.46199798583984 -2.046999931335449,72.46199798583984 C-1.4850000143051147,75.2300033569336 1.4359999895095825,74.79499816894531 4.216000080108643,74.44300079345703 C4.216000080108643,74.44300079345703 20.827999114990234,71.8479995727539 20.827999114990234,71.8479995727539 C24,71.44599914550781 27.344999313354492,70.94599914550781 26.617000579833984,67.80699920654297 C26.617000579833984,67.80699920654297 27.910999298095703,70.58799743652344 27.910999298095703,70.58799743652344 C47.61899948120117,62.82500076293945 59.7859992980957,43.69900131225586 59.15700149536133,22.42099952697754z"></path><path stroke-linecap="round" stroke-linejoin="round" fill-opacity="0" stroke="rgb(198,116,9)" stroke-opacity="1" stroke-width="13" d=" M59.15700149536133,22.42099952697754 C59.150001525878906,22.19099998474121 59.33700180053711,14.96500015258789 59.2859992980957,14.739999771118164 C57.652000427246094,7.543000221252441 57.481998443603516,6.0229997634887695 55.10300064086914,-0.1379999965429306 C54.64899826049805,-0.7799999713897705 48.611000061035156,-16.10700035095215 52.86899948120117,-5.927999973297119 C53.80400085449219,-3.691999912261963 53.90599822998047,-5.416999816894531 52.141998291015625,-8.854000091552734 C47.89899826049805,-17.1200008392334 50.472999572753906,-12.913999557495117 47.500999450683594,-18.79599952697754 C42.26499938964844,-29.15999984741211 47.67900085449219,-19.91699981689453 45.316001892089844,-25.163000106811523 C45.01900100708008,-25.822999954223633 43.231998443603516,-29.083999633789062 43.95000076293945,-29.138999938964844 C43.95000076293945,-29.138999938964844 42.10900115966797,-33.94499969482422 42.10900115966797,-33.94499969482422 C42.28499984741211,-33.95899963378906 40.040000915527344,-37.347999572753906 39.737998962402344,-38.67100143432617 C33.87900161743164,-64.33100128173828 22.18400001525879,-72.97100067138672 -5.010000228881836,-73.75199890136719 C-5.010000228881836,-73.75199890136719 -5.642000198364258,-72.8499984741211 -5.642000198364258,-72.8499984741211 C-6.28000020980835,-75.5989990234375 -8.980999946594238,-72.66000366210938 -11.74899959564209,-72.23100280761719 C-11.74899959564209,-72.23100280761719 -25.915000915527344,-70.03700256347656 -25.915000915527344,-70.03700256347656 C-29.055999755859375,-69.5510025024414 -36.987998962402344,-69.9219970703125 -36.20800018310547,-66.81800079345703 C-36.20800018310547,-66.81800079345703 -29.645999908447266,-70.06999969482422 -29.645999908447266,-70.06999969482422 C-56.47600173950195,-59.92599868774414 -58.52000045776367,-45.40800094604492 -61.56100082397461,-27.68199920654297 C-61.590999603271484,-27.5049991607666 -62.32099914550781,-20.426000595092773 -62.268001556396484,-20.253999710083008 C-61.68000030517578,-18.31599998474121 -63.823001861572266,-16.511999130249023 -60.74300003051758,-5.585000038146973 C-58.0369987487793,4.014999866485596 -61.47600173950195,-1.9149999618530273 -60.22700119018555,4.603000164031982 C-59.904998779296875,6.284999847412109 -59.6619987487793,11.053999900817871 -58.7130012512207,13.961000442504883 C-57.75,16.910999298095703 -57.75199890136719,16.513999938964844 -56.854000091552734,20.309999465942383 C-56.09199905395508,23.534000396728516 -56.4379997253418,25.22800064086914 -55.23699951171875,25.895999908447266 C-54.21699905395508,26.464000701904297 -53.99300003051758,28.57200050354004 -53.847999572753906,29.739999771118164 C-51.362998962402344,49.82899856567383 -30.284000396728516,71.5459976196289 -2.4040000438690186,74.09100341796875 C-1.8020000457763672,74.14600372314453 -1.2200000286102295,74.17400360107422 -0.6269999742507935,74.21700286865234 C-0.6269999742507935,74.21700286865234 -2.046999931335449,72.46199798583984 -2.046999931335449,72.46199798583984 C-1.4850000143051147,75.2300033569336 1.4359999895095825,74.79499816894531 4.216000080108643,74.44300079345703 C4.216000080108643,74.44300079345703 20.827999114990234,71.8479995727539 20.827999114990234,71.8479995727539 C24,71.44599914550781 27.344999313354492,70.94599914550781 26.617000579833984,67.80699920654297 C26.617000579833984,67.80699920654297 27.910999298095703,70.58799743652344 27.910999298095703,70.58799743652344 C47.61899948120117,62.82500076293945 59.7859992980957,43.69900131225586 59.15700149536133,22.42099952697754z"></path></g></g></g><g style="display: block;" transform="matrix(0.937389612197876,0,0,0.9176328182220459,123.75064849853516,67.29182434082031)" opacity="1"><g opacity="0" transform="matrix(0.5859999656677246,0,0,0.5859999656677246,25.944000244140625,130.03399658203125)"><path fill="rgb(255,255,255)" fill-opacity="1" d=" M-20.351999282836914,-5.413000106811523 C-17.035999298095703,-6.111999988555908 -9.725000381469727,-6.683000087738037 -7.382999897003174,-9.355999946594238 C-5.040999889373779,-12.027999877929688 -4.0289998054504395,-31.365999221801758 -2.369999885559082,-32.683998107910156 C-0.7110000252723694,-34.00199890136719 1.4839999675750732,-32.77000045776367 1.7769999504089355,-31.378999710083008 C2.069999933242798,-29.98900032043457 3.622999906539917,-14.579000473022461 6.076000213623047,-10.979999542236328 C8.527999877929688,-7.38100004196167 20.766000747680664,-5.60099983215332 20.766000747680664,-5.60099983215332 C20.766000747680664,-5.60099983215332 25.69499969482422,-5.186999797821045 24.841999053955078,-2.3440001010894775 C24.107999801635742,0.10000000149011612 13.397000312805176,0.7929999828338623 10.505000114440918,4.307000160217285 C7.613999843597412,7.821000099182129 4.285999774932861,27.648000717163086 3.4690001010894775,29.514999389648438 C2.6510000228881836,31.381999969482422 -1.1469999551773071,34.00199890136719 -2.436000108718872,29.065000534057617 C-3.693000078201294,24.2450008392334 -4.294000148773193,6.456999778747559 -8.357000350952148,4.4070000648498535 C-9.883000373840332,3.638000011444092 -17.045000076293945,1.2050000429153442 -19.82699966430664,0.5289999842643738 C-25.69499969482422,-0.8980000019073486 -23.82900047302246,-4.681000232696533 -20.351999282836914,-5.413000106811523z"></path></g><g opacity="0" transform="matrix(1.0620200634002686,0,0,1.0620200634002686,39.89699935913086,11.581000328063965)"><path fill="rgb(255,255,255)" fill-opacity="1" d=" M-12.109999656677246,0.32600000500679016 C-10.329999923706055,-0.6610000133514404 -6.236999988555908,-2.2809998989105225 -5.364999771118164,-4.229000091552734 C-4.493000030517578,-6.177000045776367 -7.329999923706055,-17.452999114990234 -6.611000061035156,-18.503000259399414 C-5.892000198364258,-19.552000045776367 -4.414999961853027,-19.233999252319336 -4.000999927520752,-18.488000869750977 C-3.5869998931884766,-17.742000579833984 0.028999999165534973,-9.17199993133545 2.072000026702881,-7.539999961853027 C4.116000175476074,-5.9079999923706055 11.454000473022461,-7.048999786376953 11.454000473022461,-7.048999786376953 C11.454000473022461,-7.048999786376953 14.354999542236328,-7.682000160217285 14.368000030517578,-5.900000095367432 C14.378999710083008,-4.368000030517578 8.355999946594238,-2.0769999027252197 7.317999839782715,0.45100000500679016 C6.2789998054504395,2.9790000915527344 7.873000144958496,14.946000099182129 7.734000205993652,16.16200065612793 C7.59499979019165,17.378000259399414 5.877999782562256,19.55299949645996 4.265999794006348,16.94700050354004 C2.693000078201294,14.404000282287598 -0.7960000038146973,4.301000118255615 -3.490000009536743,3.8429999351501465 C-4.501999855041504,3.6710000038146973 -9.041999816894531,3.5409998893737793 -10.758000373840332,3.6440000534057617 C-14.378999710083008,3.86299991607666 -13.97599983215332,1.3609999418258667 -12.109999656677246,0.32600000500679016z"></path></g><g opacity="0.11" transform="matrix(1,0,0,1,220.93899536132812,83.71900177001953)"><path fill="rgb(255,255,255)" fill-opacity="1" d=" M-12.527999877929688,0.46000000834465027 C-10.696000099182129,-0.5799999833106995 -6.474999904632568,-2.296999931335449 -5.5920000076293945,-4.322000026702881 C-4.710000038146973,-6.3470001220703125 -7.76200008392334,-17.98900032043457 -7.0279998779296875,-19.08300018310547 C-6.295000076293945,-20.176000595092773 -4.761000156402588,-19.86199951171875 -4.324999809265137,-19.093000411987305 C-3.8889999389648438,-18.325000762939453 -0.06199999898672104,-9.491999626159668 2.069999933242798,-7.823999881744385 C4.202000141143799,-6.156000137329102 11.78499984741211,-7.4120001792907715 11.78499984741211,-7.4120001792907715 C11.78499984741211,-7.4120001792907715 14.781999588012695,-8.097999572753906 14.812999725341797,-6.252999782562256 C14.84000015258789,-4.666999816894531 8.628999710083008,-2.234999895095825 7.579999923706055,0.3919999897480011 C6.531000137329102,3.0190000534057617 8.303000450134277,15.387999534606934 8.17199993133545,16.648000717163086 C8.039999961853027,17.908000946044922 6.284999847412109,20.176000595092773 4.590000152587891,17.4950008392334 C2.934999942779541,14.878000259399414 -0.777999997138977,4.458000183105469 -3.571000099182129,4.01200008392334 C-4.619999885559082,3.8440001010894775 -9.319999694824219,3.75600004196167 -11.095000267028809,3.880000114440918 C-14.84000015258789,4.14300012588501 -14.449000358581543,1.5499999523162842 -12.527999877929688,0.46000000834465027z"></path></g></g><g style="display: none;"><g><path></path><path stroke-linecap="butt" stroke-linejoin="miter" fill-opacity="0" stroke-miterlimit="10"></path></g><g><path fill="url(#__lottie_element_26)"></path><path stroke-linecap="butt" stroke-linejoin="miter" fill-opacity="0" stroke-miterlimit="10"></path></g></g><g style="display: none;"><g><path></path><path stroke-linecap="butt" stroke-linejoin="miter" fill-opacity="0" stroke-miterlimit="10"></path></g><g><path fill="url(#__lottie_element_22)"></path><path stroke-linecap="butt" stroke-linejoin="miter" fill-opacity="0" stroke-miterlimit="10"></path></g></g><g style="display: none;"><g><path></path><path stroke-linecap="butt" stroke-linejoin="miter" fill-opacity="0" stroke-miterlimit="10"></path></g><g><path fill="url(#__lottie_element_17)"></path><path stroke-linecap="butt" stroke-linejoin="miter" fill-opacity="0" stroke-miterlimit="10"></path></g></g><g style="display: none;"><g><path></path><path stroke-linecap="butt" stroke-linejoin="miter" fill-opacity="0" stroke-miterlimit="10"></path></g><g><path fill="url(#__lottie_element_12)"></path><path stroke-linecap="butt" stroke-linejoin="miter" fill-opacity="0" stroke-miterlimit="10"></path></g></g><g style="display: none;"><g><path></path><path stroke-linecap="butt" stroke-linejoin="miter" fill-opacity="0" stroke-miterlimit="10"></path></g><g><path fill="url(#__lottie_element_8)"></path><path stroke-linecap="butt" stroke-linejoin="miter" fill-opacity="0" stroke-miterlimit="10"></path></g></g></g></svg>