<svg xmlns="http://www.w3.org/2000/svg" xmlns:xlink="http://www.w3.org/1999/xlink" viewBox="0 0 512 512" width="512" height="512" style="width: 100%; height: 100%; transform: translate3d(0,0,0); content-visibility: visible;" preserveAspectRatio="xMidYMid meet"><defs><clipPath id="__lottie_element_2"><rect width="512" height="512" x="0" y="0"></rect></clipPath><radialGradient id="__lottie_element_8" spreadMethod="pad" gradientUnits="userSpaceOnUse" cx="8" cy="-140" r="380.68029875537746" fx="8" fy="-140"><stop offset="0%" stop-color="rgb(249,228,212)"></stop><stop offset="46%" stop-color="rgb(247,209,181)"></stop><stop offset="92%" stop-color="rgb(245,189,149)"></stop></radialGradient><radialGradient id="__lottie_element_9" spreadMethod="pad" gradientUnits="userSpaceOnUse" cx="52" cy="-153" r="414.57021846178594" fx="52" fy="-153"><stop offset="0%" stop-color="rgb(247,208,179)"></stop><stop offset="46%" stop-color="rgb(239,180,143)"></stop><stop offset="92%" stop-color="rgb(232,151,107)"></stop></radialGradient><radialGradient id="__lottie_element_19" spreadMethod="pad" gradientUnits="userSpaceOnUse" cx="57" cy="-35" r="18.488998413085938" fx="57" fy="-35"><stop offset="0%" stop-color="rgb(249,224,204)"></stop><stop offset="46%" stop-color="rgb(247,210,183)"></stop><stop offset="92%" stop-color="rgb(245,196,162)"></stop></radialGradient></defs><g clip-path="url(#__lottie_element_2)"><g style="display: block;" transform="matrix(1,0,0,1,256,256)" opacity="1"><g opacity="1" transform="matrix(1,0,0,1,0,0)"><path fill="url(#__lottie_element_8)" fill-opacity="1" d=" M-178.08700561523438,-67.59400177001953 C-176.85699462890625,-77.66999816894531 -186.2429962158203,-126.56800079345703 -141.1280059814453,-183.98899841308594 C-94.35600280761719,-243.51800537109375 -1.4429999589920044,-213.25900268554688 12.192000389099121,-214.49899291992188 C25.82699966430664,-215.73899841308594 80.88600158691406,-218.95399475097656 112.072998046875,-198.88400268554688 C169.53599548339844,-161.9040069580078 197.03399658203125,-108.61799621582031 206.89199829101562,-53.01100158691406 C212.55599975585938,-21.059999465942383 212.39700317382812,11.656999588012695 208.7519989013672,42.487998962402344 C200.7740020751953,109.96800231933594 176.0989990234375,168.4149932861328 159.23800659179688,190.02000427246094 C128.572998046875,229.31100463867188 -55.84600067138672,226.36700439453125 -110.51200103759766,167.6790008544922 C-240.99400329589844,27.597999572753906 -181.14999389648438,-42.512001037597656 -178.08700561523438,-67.59400177001953z"></path><path stroke-linecap="butt" stroke-linejoin="miter" fill-opacity="0" stroke-miterlimit="10" stroke="rgb(186,101,72)" stroke-opacity="1" stroke-width="14.349" d=" M-178.08700561523438,-67.59400177001953 C-176.85699462890625,-77.66999816894531 -186.2429962158203,-126.56800079345703 -141.1280059814453,-183.98899841308594 C-94.35600280761719,-243.51800537109375 -1.4429999589920044,-213.25900268554688 12.192000389099121,-214.49899291992188 C25.82699966430664,-215.73899841308594 80.88600158691406,-218.95399475097656 112.072998046875,-198.88400268554688 C169.53599548339844,-161.9040069580078 197.03399658203125,-108.61799621582031 206.89199829101562,-53.01100158691406 C212.55599975585938,-21.059999465942383 212.39700317382812,11.656999588012695 208.7519989013672,42.487998962402344 C200.7740020751953,109.96800231933594 176.0989990234375,168.4149932861328 159.23800659179688,190.02000427246094 C128.572998046875,229.31100463867188 -55.84600067138672,226.36700439453125 -110.51200103759766,167.6790008544922 C-240.99400329589844,27.597999572753906 -181.14999389648438,-42.512001037597656 -178.08700561523438,-67.59400177001953z"></path></g><g opacity="1" transform="matrix(1,0,0,1,0,0)"><path stroke-linecap="round" stroke-linejoin="round" fill-opacity="0" stroke="rgb(186,101,72)" stroke-opacity="1" stroke-width="13.042" d=" M34.766998291015625,-196.51199340820312 C14.843999862670898,-215.22300720214844 -13.378999710083008,-216.875 -13.378999710083008,-216.875"></path></g><g opacity="1" transform="matrix(1,0,0,1,0,0)"><path fill="url(#__lottie_element_9)" fill-opacity="1" d=" M-159.33200073242188,-26.773000717163086 C-151.50399780273438,-13.13599967956543 -130.64599609375,10.73799991607666 -120.71700286865234,22.874000549316406 C-110.78800201416016,35.0099983215332 -82.10199737548828,37.21699905395508 -76.58599853515625,74.72799682617188 C-71.71199798583984,107.87200164794922 -51.21099853515625,164.09300231933594 5.056000232696533,171.8159942626953 C61.323001861572266,179.53900146484375 96.62699890136719,182.84800720214844 128.6219940185547,153.05999755859375 C160.61700439453125,123.27200317382812 157.64999389648438,57.935001373291016 167.57899475097656,34.76599884033203 C177.50799560546875,11.597000122070312 201.43800354003906,-13.534000396728516 201.43800354003906,-13.534000396728516 C201.43800354003906,-13.534000396728516 217.98699951171875,48.249000549316406 181.57899475097656,128.78799438476562 C158.2899932861328,180.30499267578125 153.9980010986328,190.57200622558594 130.82899475097656,200.50100708007812 C115.38300323486328,207.12100219726562 22.70800018310547,209.3280029296875 -39.07500076293945,190.57200622558594 C-100.85800170898438,171.8159942626953 -135.05999755859375,124.375 -148.2989959716797,96.79299926757812 C-161.53799438476562,69.21099853515625 -178.08799743652344,27.28700065612793 -179.1909942626953,5.2220001220703125 C-180.29400634765625,-16.843000411987305 -168.1580047607422,-48.2869987487793 -168.1580047607422,-48.2869987487793 C-168.1580047607422,-48.2869987487793 -162.2259979248047,-31.815000534057617 -159.33200073242188,-26.773000717163086z"></path></g></g><g style="display: block;" transform="matrix(1,0,0,1,255.9996337890625,256.0001220703125)" opacity="1"><g opacity="1" transform="matrix(1,0,0,1,0,0)"><path stroke-linecap="round" stroke-linejoin="round" fill-opacity="0" stroke="rgb(216,141,104)" stroke-opacity="1" stroke-width="12.087" d=" M172.7530059814453,-15.739999771118164 C146.15699768066406,-21.579999923706055 123.86299896240234,7.7829999923706055 138,49.90399932861328"></path></g><g opacity="1" transform="matrix(1,0,0,1,0,0)"><path stroke-linecap="round" stroke-linejoin="round" fill-opacity="0" stroke="rgb(206,128,93)" stroke-opacity="1" stroke-width="12.087" d=" M-116.85600280761719,20.667999267578125 C-116.85600280761719,20.667999267578125 -92.37799835205078,35.22800064086914 -84.86100006103516,43.83599853515625 C-67.43499755859375,63.790000915527344 -71.47899627685547,81.13899993896484 -71.47899627685547,81.13899993896484"></path></g></g><g style="display: block;" transform="matrix(1,0,0,1,255.99945068359375,256.0004577636719)" opacity="1"><g opacity="1" transform="matrix(1,0,0,1,0,0)"><path stroke-linecap="round" stroke-linejoin="round" fill-opacity="0" stroke="rgb(216,141,104)" stroke-opacity="1" stroke-width="11.479" d=" M-32.70800018310547,-145.67599487304688 C-12.322999954223633,-159.48699951171875 10.911999702453613,-144.96499633789062 35.05500030517578,-149.80799865722656 C47.242000579833984,-152.2530059814453 63.979000091552734,-164.68299865722656 63.979000091552734,-164.68299865722656"></path></g><g opacity="1" transform="matrix(1,0,0,1,0,0)"><path stroke-linecap="round" stroke-linejoin="round" fill-opacity="0" stroke="rgb(226,155,116)" stroke-opacity="1" stroke-width="11.479" d=" M-18.113000869750977,-170.93499755859375 C-10.579999923706055,-177.4949951171875 29.898000717163086,-164.18499755859375 44.22200012207031,-179.843994140625"></path></g></g><g style="display: block;" transform="matrix(1,0,0,1,256.0008239746094,255.99977111816406)" opacity="1"><g opacity="1" transform="matrix(1,0,0,1,0,0)"><path stroke-linecap="round" stroke-linejoin="round" fill-opacity="0" stroke="rgb(206,128,93)" stroke-opacity="1" stroke-width="12.087" d=" M19.384000778198242,83.79299926757812 C19.156999588012695,73.41500091552734 29.59000015258789,63.57699966430664 40.37300109863281,60.80799865722656 C51.0629997253418,58.0629997253418 62.09700012207031,62.263999938964844 63.428001403808594,79.77400207519531"></path></g><g opacity="1" transform="matrix(1,0,0,1,0.08900000154972076,0.1809999942779541)"><path fill="rgb(71,23,14)" fill-opacity="1" d=" M25.503999710083008,20.06599998474121 C25.503999710083008,20.06599998474121 27.743999481201172,16.434999465942383 48.45899963378906,17.518999099731445 C70.44200134277344,16.21500015258789 73.7959976196289,20.14699935913086 73.7959976196289,20.14699935913086 C73.7959976196289,20.14699935913086 73.04100036621094,21.663999557495117 52.56800079345703,21.841999053955078 C32.095001220703125,22.020000457763672 25.503999710083008,20.06599998474121 25.503999710083008,20.06599998474121z M49.97200012207031,18.631999969482422 C56.49399948120117,19.261999130249023 53.428001403808594,21.42799949645996 53.428001403808594,21.42799949645996 M45.0099983215332,12.22700023651123 C12.345999717712402,16.78499984741211 -10.102999687194824,29.489999771118164 -10.102999687194824,29.489999771118164 C-10.102999687194824,29.489999771118164 -15,34.75 -12.76099967956543,35.090999603271484 C-8.494999885559082,35.74100112915039 -5.25,20.75 41.9900016784668,14.821000099182129 C65.2760009765625,11.89799976348877 76.68099975585938,17.84000015258789 91.26599884033203,20.983999252319336 C91.25,20.5 91.8010025024414,20.024999618530273 91.8010025024414,20.024999618530273 C91.8010025024414,20.024999618530273 77.67400360107422,7.669000148773193 45.0099983215332,12.22700023651123z M-8.404000282287598,49.63800048828125 C-14.20199966430664,48.6619987487793 -16.024999618530273,40.95800018310547 -13.628999710083008,35.5890007019043 C-9.90999984741211,27.256000518798828 12.35200023651123,14.991999626159668 32.8380012512207,13.130000114440918 C61.551998138427734,10.520000457763672 87.822998046875,15.84000015258789 95.56700134277344,26.295000076293945 C98.88600158691406,30.774999618530273 95.1520004272461,49.74399948120117 91.88899993896484,47.7859992980957 C88.6259994506836,45.827999114990234 71.73500061035156,23.03700065612793 47.5890007019043,24.9950008392334 C23.44300079345703,26.952999114990234 2.6549999713897705,51.499000549316406 -8.404000282287598,49.63800048828125z"></path><g opacity="0" transform="matrix(1,0,0,1,0,0)"><g opacity="1" transform="matrix(1,0,0,1,0,0)"><path fill="rgb(201,87,114)" fill-opacity="1" d=" M25.503999710083008,20.06599998474121 C25.503999710083008,20.06599998474121 27.743999481201172,16.434999465942383 48.45899963378906,17.518999099731445 C70.44200134277344,16.21500015258789 73.7959976196289,20.14699935913086 73.7959976196289,20.14699935913086 C73.7959976196289,20.14699935913086 73.04100036621094,21.663999557495117 52.56800079345703,21.841999053955078 C32.095001220703125,22.020000457763672 25.503999710083008,20.06599998474121 25.503999710083008,20.06599998474121z"></path><path stroke-linecap="round" stroke-linejoin="round" fill-opacity="0" stroke="rgb(135,31,81)" stroke-opacity="1" stroke-width="8.308" d=" M25.503999710083008,20.06599998474121 C25.503999710083008,20.06599998474121 27.743999481201172,16.434999465942383 48.45899963378906,17.518999099731445 C70.44200134277344,16.21500015258789 73.7959976196289,20.14699935913086 73.7959976196289,20.14699935913086 C73.7959976196289,20.14699935913086 73.04100036621094,21.663999557495117 52.56800079345703,21.841999053955078 C32.095001220703125,22.020000457763672 25.503999710083008,20.06599998474121 25.503999710083008,20.06599998474121z"></path></g><g opacity="1" transform="matrix(1,0,0,1,0,0)"><path stroke-linecap="round" stroke-linejoin="round" fill-opacity="0" stroke="rgb(165,47,95)" stroke-opacity="1" stroke-width="8.504" d=" M49.97200012207031,18.631999969482422 C56.49399948120117,19.261999130249023 53.428001403808594,21.42799949645996 53.428001403808594,21.42799949645996"></path></g></g><g opacity="1" transform="matrix(1,0,0,1,0,0)"><path fill="rgb(255,255,255)" fill-opacity="1" d=" M45.0099983215332,12.22700023651123 C12.345999717712402,16.78499984741211 -10.102999687194824,29.489999771118164 -10.102999687194824,29.489999771118164 C-10.102999687194824,29.489999771118164 -15,34.75 -12.76099967956543,35.090999603271484 C-8.494999885559082,35.74100112915039 -5.25,20.75 41.9900016784668,14.821000099182129 C65.2760009765625,11.89799976348877 76.68099975585938,17.84000015258789 91.26599884033203,20.983999252319336 C91.25,20.5 91.8010025024414,20.024999618530273 91.8010025024414,20.024999618530273 C91.8010025024414,20.024999618530273 77.67400360107422,7.669000148773193 45.0099983215332,12.22700023651123z"></path></g><path stroke-linecap="round" stroke-linejoin="round" fill-opacity="0" stroke="rgb(124,54,36)" stroke-opacity="1" stroke-width="9.065" d=" M-8.404000282287598,49.63800048828125 C-14.20199966430664,48.6619987487793 -16.024999618530273,40.95800018310547 -13.628999710083008,35.5890007019043 C-9.90999984741211,27.256000518798828 12.35200023651123,14.991999626159668 32.8380012512207,13.130000114440918 C61.551998138427734,10.520000457763672 87.822998046875,15.84000015258789 95.56700134277344,26.295000076293945 C98.88600158691406,30.774999618530273 95.1520004272461,49.74399948120117 91.88899993896484,47.7859992980957 C88.6259994506836,45.827999114990234 71.73500061035156,23.03700065612793 47.5890007019043,24.9950008392334 C23.44300079345703,26.952999114990234 2.6549999713897705,51.499000549316406 -8.404000282287598,49.63800048828125z"></path></g><g opacity="0" transform="matrix(1,0,0,1,0,0)"><path fill="rgb(255,255,255)" fill-opacity="1" d=" M6.111999988555908,23.878000259399414 C-3.5250000953674316,27.302000045776367 -2.013000011444092,25.041000366210938 0.3400000035762787,26.299999237060547 C3.3340001106262207,27.902000427246094 34.1619987487793,18.81999969482422 46.71500015258789,19.132999420166016 C82.60199737548828,20.027000427246094 80.40299987792969,18.80699920654297 85.28299713134766,21.812000274658203 C91.2750015258789,25.50200080871582 80.0459976196289,20.298999786376953 80.0459976196289,20.298999786376953 C80.0459976196289,20.298999786376953 27.534000396728516,16.266000747680664 6.111999988555908,23.878000259399414z"></path></g></g><g style="display: none;"><g><path stroke-linecap="round" stroke-linejoin="round" fill-opacity="0"></path></g><g><path></path><g><g><path></path><path stroke-linecap="round" stroke-linejoin="round" fill-opacity="0"></path></g><g><path stroke-linecap="round" stroke-linejoin="round" fill-opacity="0"></path></g><g><path></path></g></g><g><path></path></g><path stroke-linecap="round" stroke-linejoin="round" fill-opacity="0"></path></g><g><path></path></g></g><g style="display: none;"><g><path stroke-linecap="round" stroke-linejoin="round" fill-opacity="0"></path></g><g><path></path><path stroke-linecap="round" stroke-linejoin="round" fill-opacity="0"></path></g><g><path></path></g></g><g style="display: block;" transform="matrix(1,0,0,1,255.999755859375,256.00054931640625)" opacity="1"><g opacity="1" transform="matrix(1,0,0,1,0,0)"><path fill="url(#__lottie_element_19)" fill-opacity="1" d=" M50.85200119018555,-56.577999114990234 C50.85200119018555,-56.577999114990234 66.37300109863281,-31.698999404907227 69.7770004272461,-25.906999588012695 C77.39600372314453,-12.944000244140625 44.32600021362305,-11.550000190734863 44.32600021362305,-11.550000190734863"></path><path stroke-linecap="round" stroke-linejoin="round" fill-opacity="0" stroke="rgb(186,101,72)" stroke-opacity="1" stroke-width="15.108" d=" M50.85200119018555,-56.577999114990234 C50.85200119018555,-56.577999114990234 66.37300109863281,-31.698999404907227 69.7770004272461,-25.906999588012695 C77.39600372314453,-12.944000244140625 44.32600021362305,-11.550000190734863 44.32600021362305,-11.550000190734863"></path></g><g opacity="1" transform="matrix(1,0,0,1,0,0)"><path fill="rgb(216,141,104)" fill-opacity="1" d=" M23.35099983215332,-82.31999969482422 C21.31800079345703,-85.2239990234375 28.232999801635742,-81.04100036621094 39.85900115966797,-83.697998046875 C47.505001068115234,-85.44599914550781 54.42300033569336,-88.8489990234375 53.11800003051758,-85.36900329589844 C51.8129997253418,-81.88899993896484 49.35900115966797,-72.86000061035156 46.35599899291992,-71.9520034790039 C36.869998931884766,-69.08200073242188 24.732999801635742,-80.34600067138672 23.35099983215332,-82.31999969482422z"></path></g></g><g style="display: block;" transform="matrix(1,0,0,1,255.9995880126953,256.0000915527344)" opacity="1"><g opacity="1" transform="matrix(1,0,0,1,0,0)"><path fill="rgb(255,255,255)" fill-opacity="1" d=" M-69.8759994506836,-102.91200256347656 C-87.87799835205078,-105.74400329589844 -113.41000366210938,-104.72799682617188 -120.875,-83.62699890136719 C-129.5,-59.25 -111.08699798583984,-39.013999938964844 -75.84700012207031,-35.750999450683594 C-40.606998443603516,-32.487998962402344 -3.430000066757202,-36.45800018310547 -3.9649999141693115,-63.104000091552734 C-4.5,-89.75 -44.520999908447266,-98.92400360107422 -69.8759994506836,-102.91200256347656z"></path></g><g opacity="1" transform="matrix(0.9999399781227112,0,0,0.9940299987792969,0,0)"><path fill="rgb(255,255,255)" fill-opacity="1" d=" M76.23400115966797,-88.9010009765625 C88,-57.5 174.72500610351562,-63.060001373291016 171.88600158691406,-100.14199829101562 C168.5,-144.375 146.25,-140.25 122.10099792480469,-135.52499389648438 C92.83499908447266,-129.7989959716797 67.4749984741211,-112.2770004272461 76.23400115966797,-88.9010009765625z"></path></g><g opacity="1" transform="matrix(1,0,0,1,0,0)"><path stroke-linecap="round" stroke-linejoin="round" fill-opacity="0" stroke="rgb(216,141,104)" stroke-opacity="1" stroke-width="12.087" d=" M76.78700256347656,-80.5770034790039 C78.08399963378906,-77.59400177001953 103.06500244140625,-41.972999572753906 147.35800170898438,-55.60200119018555"></path></g><g opacity="1" transform="matrix(1,0,0,1,0,0)"><path stroke-linecap="round" stroke-linejoin="round" fill-opacity="0" stroke="rgb(216,141,104)" stroke-opacity="1" stroke-width="12.087" d=" M-70.4530029296875,-17.267000198364258 C-70.4530029296875,-17.267000198364258 -4.4019999504089355,-18.25200080871582 -3.367000102996826,-63.44300079345703"></path></g><g opacity="1" transform="matrix(1,0,0,1,0,0)"><path fill="rgb(200,225,232)" fill-opacity="1" d=" M-111.98300170898438,-83.48200225830078 C-125.25,-59 -114.74199676513672,-49.91299819946289 -80.81900024414062,-42.584999084472656 C-20.25,-29.5 -10.164999961853027,-58.290000915527344 -10.451000213623047,-57.6349983215332 C-17.173999786376953,-42.22100067138672 -121.38099670410156,-41.09299850463867 -111.98300170898438,-83.48200225830078z"></path></g><g opacity="1" transform="matrix(1,0,0,1,0,0)"><path fill="rgb(200,225,232)" fill-opacity="1" d=" M166.86399841308594,-100.53500366210938 C156.25,-79.75 90,-77.75 77.24700164794922,-98.8030014038086 C82.25,-65.25 171,-68.75 166.86399841308594,-100.53500366210938z"></path></g><g opacity="1" transform="matrix(1,0,0,1,0,0)"><g opacity="1" transform="matrix(1,0,0,1,0,0)"><g opacity="1" transform="matrix(1,0,0,1,0,0)"><path fill="rgb(15,15,15)" fill-opacity="1" d=" M-30.597999572753906,-81.1240005493164 C-30.597999572753906,-71.91699981689453 -41.56700134277344,-64.4530029296875 -55.097999572753906,-64.4530029296875 C-68.62899780273438,-64.4530029296875 -79.5989990234375,-71.91699981689453 -79.5989990234375,-81.1240005493164 C-79.5989990234375,-90.33100128173828 -68.62899780273438,-97.79399871826172 -55.097999572753906,-97.79399871826172 C-41.56700134277344,-97.79399871826172 -30.597999572753906,-90.33100128173828 -30.597999572753906,-81.1240005493164z"></path></g><g opacity="1" transform="matrix(1,0,0,1,0,0)"><path fill="rgb(255,255,255)" fill-opacity="1" d=" M-61.66899871826172,-68.5199966430664 C-61.66899871826172,-64.49600219726562 -65.06700134277344,-61.23500061035156 -69.25900268554688,-61.23500061035156 C-73.45099639892578,-61.23500061035156 -76.8489990234375,-64.49600219726562 -76.8489990234375,-68.5199966430664 C-76.8489990234375,-72.54399871826172 -73.45099639892578,-75.80599975585938 -69.25900268554688,-75.80599975585938 C-65.06700134277344,-75.80599975585938 -61.66899871826172,-72.54399871826172 -61.66899871826172,-68.5199966430664z"></path></g></g><g opacity="1" transform="matrix(1,0,0,1,-3.003997802734375,3.9260025024414062)"><g opacity="1" transform="matrix(1,0,0,1,0,0)"><path fill="rgb(15,15,15)" fill-opacity="1" d=" M155.74400329589844,-117.15599822998047 C157.42799377441406,-108.1050033569336 148.00900268554688,-98.76100158691406 134.70599365234375,-96.28600311279297 C121.40299987792969,-93.81099700927734 109.25399780273438,-99.14199829101562 107.56999969482422,-108.19300079345703 C105.88600158691406,-117.24400329589844 115.30500030517578,-126.58899688720703 128.60800170898438,-129.06399536132812 C141.91099548339844,-131.53900146484375 154.05999755859375,-126.20700073242188 155.74400329589844,-117.15599822998047z"></path></g><g opacity="1" transform="matrix(1,0,0,1,0,0)"><path fill="rgb(255,255,255)" fill-opacity="1" d=" M127.40599822998047,-99.58399963378906 C127.40599822998047,-95.10399627685547 123.62300109863281,-91.47200012207031 118.95500183105469,-91.47200012207031 C114.28700256347656,-91.47200012207031 110.50299835205078,-95.10399627685547 110.50299835205078,-99.58399963378906 C110.50299835205078,-104.06400299072266 114.28700256347656,-107.69599914550781 118.95500183105469,-107.69599914550781 C123.62300109863281,-107.69599914550781 127.40599822998047,-104.06400299072266 127.40599822998047,-99.58399963378906z"></path></g></g></g><g opacity="1" transform="matrix(1,0,0,1,0,0)"><path stroke-linecap="round" stroke-linejoin="round" fill-opacity="0" stroke="rgb(165,81,58)" stroke-opacity="1" stroke-width="12.087" d=" M-69.8759994506836,-102.91200256347656 C-87.87799835205078,-105.74400329589844 -113.41000366210938,-104.72799682617188 -120.875,-83.62699890136719 C-129.5,-59.25 -111.08699798583984,-39.013999938964844 -75.84700012207031,-35.750999450683594 C-40.606998443603516,-32.487998962402344 -3.430000066757202,-36.45800018310547 -3.9649999141693115,-63.104000091552734 C-4.5,-89.75 -44.520999908447266,-98.92400360107422 -69.8759994506836,-102.91200256347656z"></path></g><g opacity="1" transform="matrix(0.9999399781227112,0,0,0.9940299987792969,0,0)"><path stroke-linecap="round" stroke-linejoin="round" fill-opacity="0" stroke="rgb(165,81,58)" stroke-opacity="1" stroke-width="12.087" d=" M76.23400115966797,-88.9010009765625 C88,-57.5 174.72500610351562,-63.060001373291016 171.88600158691406,-100.14199829101562 C168.5,-144.375 146.25,-140.25 122.10099792480469,-135.52499389648438 C92.83499908447266,-129.7989959716797 67.4749984741211,-112.2770004272461 76.23400115966797,-88.9010009765625z"></path></g></g><g style="display: block;" transform="matrix(1,0,0,1,256.00048828125,256.00018310546875)" opacity="1"><g opacity="1" transform="matrix(1,0,0,1,0,0)"><path fill="rgb(102,37,20)" fill-opacity="1" d=" M175.43600463867188,-164.16400146484375 C167.81500244140625,-169.49099731445312 111.34100341796875,-137.45700073242188 104.51599884033203,-135.4219970703125 C97.69100189208984,-133.38699340820312 97.677001953125,-139.0050048828125 89.60800170898438,-139.44900512695312 C81.53900146484375,-139.89300537109375 51.16299819946289,-113.71800231933594 36.53900146484375,-111.68099975585938 C21.915000915527344,-109.64399719238281 -22.01799964904785,-128.9320068359375 -33.14699935913086,-125.80899810791016 C-44.2760009765625,-122.68599700927734 -29.93000030517578,-112.33399963378906 -35.095001220703125,-113.5009994506836 C-138.7270050048828,-136.92300415039062 -138.7259979248047,-120.25299835205078 -131.82899475097656,-111.10600280761719 C-125.17500305175781,-102.28199768066406 -45.87799835205078,-84.41600036621094 38.867000579833984,-93.95600128173828 C73.9749984741211,-97.90799713134766 110.7239990234375,-107.6510009765625 145.21299743652344,-127.125 C171.697998046875,-142.0800018310547 183.0570068359375,-158.83700561523438 175.43600463867188,-164.16400146484375z"></path></g></g></g></svg>