<svg xmlns="http://www.w3.org/2000/svg" xmlns:xlink="http://www.w3.org/1999/xlink" viewBox="0 0 512 512" width="512" height="512" style="width: 100%; height: 100%; transform: translate3d(0,0,0); content-visibility: visible;" preserveAspectRatio="xMidYMid meet"><defs><clipPath id="__lottie_element_2"><rect width="512" height="512" x="0" y="0"></rect></clipPath><radialGradient id="__lottie_element_50" spreadMethod="pad" gradientUnits="userSpaceOnUse" cx="162" cy="-99" r="269.9973578100641" fx="162" fy="-99"><stop offset="0%" stop-color="rgb(255,236,222)"></stop><stop offset="39%" stop-color="rgb(249,214,188)"></stop><stop offset="77%" stop-color="rgb(243,193,154)"></stop><stop offset="89%" stop-color="rgb(241,186,144)"></stop><stop offset="100%" stop-color="rgb(240,180,134)"></stop></radialGradient></defs><g clip-path="url(#__lottie_element_2)"><g style="display: block;" transform="matrix(0.949999988079071,0,0,0.949999988079071,257.9830627441406,255.29849243164062)" opacity="1"><g opacity="1" transform="matrix(1,0,0,1,0,0)"><path fill="url(#__lottie_element_50)" fill-opacity="1" d=" M45.481998443603516,-211.85000610351562 C18.066999435424805,-214.91700744628906 -26.472000122070312,-218.14999389648438 -69.11100006103516,-186.64999389648438 C-111.75,-155.14999389648438 -120.63300323486328,-118.25 -125.07499694824219,-66.05000305175781 C-129.51699829101562,-13.850000381469727 -148.67599487304688,90.58699798583984 -117.08000183105469,146.3489990234375 C-86.68199920654297,199.9980010986328 138.42300415039062,218 189.67599487304688,150.39700317382812 C213.92599487304688,118.41100311279297 212.0959930419922,13.182000160217285 213.7790069580078,-20.187999725341797 C216,-64.2300033569336 209.94700622558594,-132.21299743652344 189.12399291992188,-158.9040069580078 C140.40199279785156,-221.3560028076172 62.902000427246094,-209.9010009765625 45.481998443603516,-211.85000610351562z"></path><path stroke-linecap="butt" stroke-linejoin="miter" fill-opacity="0" stroke-miterlimit="10" stroke="rgb(184,99,72)" stroke-opacity="1" stroke-width="11.339" d=" M45.481998443603516,-211.85000610351562 C18.066999435424805,-214.91700744628906 -26.472000122070312,-218.14999389648438 -69.11100006103516,-186.64999389648438 C-111.75,-155.14999389648438 -120.63300323486328,-118.25 -125.07499694824219,-66.05000305175781 C-129.51699829101562,-13.850000381469727 -148.67599487304688,90.58699798583984 -117.08000183105469,146.3489990234375 C-86.68199920654297,199.9980010986328 138.42300415039062,218 189.67599487304688,150.39700317382812 C213.92599487304688,118.41100311279297 212.0959930419922,13.182000160217285 213.7790069580078,-20.187999725341797 C216,-64.2300033569336 209.94700622558594,-132.21299743652344 189.12399291992188,-158.9040069580078 C140.40199279785156,-221.3560028076172 62.902000427246094,-209.9010009765625 45.481998443603516,-211.85000610351562z"></path></g><g opacity="0.43" transform="matrix(1,0,0,1,0,0)"><path fill="rgb(184,99,72)" fill-opacity="1" d=" M39.3489990234375,-209.28199768066406 C39.3489990234375,-209.28199768066406 -59.74100112915039,-223.3699951171875 12.696999549865723,-177.2100067138672 C-48.777000427246094,-177.82699584960938 -6.775000095367432,-150.23300170898438 -6.775000095367432,-150.23300170898438 C-51.481998443603516,-136.9709930419922 -12.309000015258789,-72.38200378417969 -3,-64.02799987792969 C10.494000434875488,-51.91899871826172 -36.3489990234375,18.400999069213867 -53.3380012512207,23.434999465942383 C-70.3270034790039,28.4689998626709 -93.60900115966797,32.244998931884766 -98.01399993896484,49.862998962402344 C-102.41899871826172,67.48100280761719 -100.53099822998047,149.28199768066406 -105.56500244140625,151.7989959716797 C-110.5989990234375,154.3159942626953 -132.88499450683594,112.2020034790039 -132.25599670410156,97.7300033569336 C-131.6269989013672,83.25800323486328 -132.52699279785156,-74.69000244140625 -107.02200317382812,-136.54400634765625 C-81.29100036621094,-198.94500732421875 -11.423999786376953,-220.48500061035156 39.3489990234375,-209.28199768066406z"></path></g><g opacity="0.45" transform="matrix(1,0,0,1,0,0)"><path stroke-linecap="round" stroke-linejoin="round" fill-opacity="0" stroke="rgb(184,99,72)" stroke-opacity="1" stroke-width="11.339" d=" M196.09500122070312,-30.166000366210938 C205.08999633789062,28.718000411987305 147.21299743652344,31.518999099731445 160.802001953125,52.18299865722656"></path></g><g opacity="1" transform="matrix(1,0,0,1,1.4179999828338623,-9.043000221252441)"><path stroke-linecap="round" stroke-linejoin="round" fill-opacity="0" stroke="rgb(184,99,72)" stroke-opacity="1" stroke-width="11.224" d=" M110.04399871826172,150.46200561523438 C27.621000289916992,251.46600341796875 -68.49400329589844,157.3820037841797 -68.49400329589844,157.3820037841797"></path></g><g opacity="0.51" transform="matrix(1,0,0,1,1.4179999828338623,-9.043000221252441)"><path fill="rgb(184,99,72)" fill-opacity="1" d=" M-41.733001708984375,143.52499389648438 C1.6380000114440918,183.65699768066406 62.882999420166016,185.47999572753906 62.882999420166016,185.47999572753906 C34.43000030517578,207.8939971923828 -46.02199935913086,185.66600036621094 -66.322998046875,156.5679931640625 C-80.58000183105469,136.1320037841797 -69.48200225830078,117.8479995727539 -41.733001708984375,143.52499389648438z"></path></g></g><g style="display: block;" transform="matrix(0.949999988079071,0,0,0.949999988079071,257.9830627441406,255.29849243164062)" opacity="1"><g opacity="1" transform="matrix(1,0,0,1,0,0)"><g opacity="1" transform="matrix(1,0,0,1,0,0)"><path stroke-linecap="round" stroke-linejoin="round" fill-opacity="0" stroke="rgb(130,57,38)" stroke-opacity="1" stroke-width="11.224" d=" M-75.96399688720703,50.720001220703125 C-39.20899963378906,41.01499938964844 -4.672999858856201,52.30699920654297 5.626999855041504,51.24100112915039 C15.927000045776367,50.17499923706055 62.26100158691406,37.86899948120117 94.11799621582031,54.387001037597656"></path></g><g opacity="1" transform="matrix(1,0,0,1,0,0)"><path fill="rgb(244,200,166)" fill-opacity="1" d=" M-23.00200080871582,75.95500183105469 C-23.00200080871582,75.95500183105469 17.197999954223633,85.5719985961914 39.15299987792969,70.27200317382812"></path><path stroke-linecap="round" stroke-linejoin="round" fill-opacity="0" stroke="rgb(184,99,72)" stroke-opacity="1" stroke-width="11.224" d=" M-23.00200080871582,75.95500183105469 C-23.00200080871582,75.95500183105469 17.197999954223633,85.5719985961914 39.15299987792969,70.27200317382812"></path></g><g opacity="1" transform="matrix(1,0,0,1,0,0)"><path stroke-linecap="round" stroke-linejoin="round" fill-opacity="0" stroke="rgb(130,57,38)" stroke-opacity="1" stroke-width="11.224" d=" M87.00700378417969,40.652000427246094 C100.01799774169922,49.667999267578125 97.7040023803711,59.52899932861328 97.7040023803711,59.52899932861328"></path></g><g opacity="1" transform="matrix(1,0,0,1,0,0)"><path stroke-linecap="round" stroke-linejoin="round" fill-opacity="0" stroke="rgb(201,125,91)" stroke-opacity="1" stroke-width="10.647" d=" M-24.641000747680664,119.11799621582031 C-24.641000747680664,119.11799621582031 -28.139999389648438,104.4800033569336 -7.5929999351501465,101.00399780273438 C30.92300033569336,94.48799896240234 42.48699951171875,139.36300659179688 42.48699951171875,139.36300659179688"></path></g><g opacity="1" transform="matrix(1,0,0,1,0,0)"><path stroke-linecap="round" stroke-linejoin="round" fill-opacity="0" stroke="rgb(130,57,38)" stroke-opacity="1" stroke-width="11.224" d=" M-70.93000030517578,38.763999938964844 C-70.93000030517578,38.763999938964844 -78.48100280761719,43.79800033569336 -79.11000061035156,49.46099853515625 C-79.73899841308594,55.124000549316406 -79.73999786376953,63.933998107910156 -79.73999786376953,63.933998107910156"></path></g></g><g opacity="1" transform="matrix(1,0,0,1,0,0)"><path stroke-linecap="round" stroke-linejoin="round" fill-opacity="0" stroke="rgb(201,125,91)" stroke-opacity="1" stroke-width="10.647" d=" M-40.005001068115234,19.952999114990234 C-40.005001068115234,19.952999114990234 -86.98899841308594,12.866000175476074 -101.0479965209961,50.35599899291992 C-110.43099975585938,75.37799835205078 -105.00199890136719,134.4969940185547 -102.87100219726562,137.69400024414062"></path></g><g opacity="1" transform="matrix(1,0,0,1,0,0)"><path stroke-linecap="round" stroke-linejoin="round" fill-opacity="0" stroke="rgb(201,125,91)" stroke-opacity="1" stroke-width="10.647" d=" M43.10599899291992,15.690999984741211 C65.4990005493164,40.15299987792969 93.75599670410156,15.095000267028809 114.49600219726562,27.41200065612793 C151.66400146484375,49.48400115966797 134.74099731445312,130.76800537109375 134.74099731445312,130.76800537109375"></path></g></g><g style="display: block;" transform="matrix(0.949999988079071,0,0,0.949999988079071,257.9830627441406,255.29849243164062)" opacity="1"><g opacity="0.51" transform="matrix(1,0,0,1,0,0)"><path fill="rgb(184,99,72)" fill-opacity="1" d=" M136.7790069580078,-120.69200134277344 C136.7790069580078,-120.69200134277344 84.20099639892578,-55.027000427246094 78.8270034790039,-33.33000183105469 C69.61000061035156,3.884000062942505 107.14199829101562,-3.2809998989105225 107.14199829101562,-3.2809998989105225 C107.14199829101562,-3.2809998989105225 71.2760009765625,6.51800012588501 55.23099899291992,-19.937999725341797 C39.18600082397461,-46.39400100708008 23.138999938964844,-102.24600219726562 38.24100112915039,-101.26599884033203 C53.34299850463867,-100.28600311279297 136.7790069580078,-120.69200134277344 136.7790069580078,-120.69200134277344z"></path></g><g opacity="1" transform="matrix(1,0,0,1,0,0)"><path stroke-linecap="round" stroke-linejoin="round" fill-opacity="0" stroke="rgb(184,99,72)" stroke-opacity="1" stroke-width="9.921" d=" M-118.4990005493164,-38.827999114990234 C-118.4990005493164,-38.827999114990234 -104.64700317382812,-7.927999973297119 -84.4020004272461,-3.6659998893737793 C-64.15699768066406,0.5960000157356262 -43.55699920654297,-30.659000396728516 -43.55699920654297,-30.659000396728516"></path></g><g opacity="1" transform="matrix(1,0,0,1,0,0)"><path stroke-linecap="round" stroke-linejoin="round" fill-opacity="0" stroke="rgb(184,99,72)" stroke-opacity="1" stroke-width="9.921" d=" M38.95600128173828,-44.375999450683594 C38.95600128173828,-44.375999450683594 55.650001525878906,-10.279000282287598 74.4739990234375,-1.0440000295639038 C93.2979965209961,8.190999984741211 131.65699768066406,-24.840999603271484 131.65699768066406,-24.840999603271484"></path></g><g opacity="1" transform="matrix(1,0,0,1,0,0)"><path fill="rgb(255,255,255)" fill-opacity="1" d=" M47.250999450683594,-80.38200378417969 C53.917999267578125,-84.25399780273438 146.71299743652344,-99.58399963378906 150.83799743652344,-76.9530029296875 C151.92799377441406,-70.97000122070312 153.5050048828125,-54.56700134277344 148.08799743652344,-53.70600128173828 C142.67100524902344,-52.845001220703125 65.58499908447266,-51.55400085449219 55.167999267578125,-52.415000915527344 C44.750999450683594,-53.2760009765625 40.58399963378906,-76.51000213623047 47.250999450683594,-80.38200378417969z"></path></g><g opacity="1" transform="matrix(1,0,0,1,0,0)"><path fill="rgb(255,255,255)" fill-opacity="1" d=" M-108.12100219726562,-63.79100036621094 C-108.12100219726562,-63.79100036621094 -109.29100036621094,-75.72899627685547 -100.31900024414062,-79.70800018310547 C-91.34700012207031,-83.68699645996094 -51.16600036621094,-84.12899780273438 -38.68299865722656,-81.91799926757812 C-26.200000762939453,-79.70700073242188 -25.80900001525879,-77.05500030517578 -27.760000228881836,-65.11699676513672 C-29.711000442504883,-53.17900085449219 -38.68299865722656,-55.38999938964844 -42.194000244140625,-54.948001861572266 C-45.70500183105469,-54.50600051879883 -94.85800170898438,-54.06399917602539 -102.2699966430664,-54.50600051879883 C-109.68199920654297,-54.948001861572266 -108.12100219726562,-63.79100036621094 -108.12100219726562,-63.79100036621094z"></path></g><g opacity="1" transform="matrix(1,0,0,1,0,0)"><g opacity="1" transform="matrix(1,0,0,1,0,0)"><path fill="rgb(30,14,7)" fill-opacity="1" d=" M93.14299774169922,-67.38600158691406 C93.14299774169922,-58.00400161743164 82.62999725341797,-50.39799880981445 69.66100311279297,-50.39799880981445 C56.69200134277344,-50.39799880981445 46.178001403808594,-58.00400161743164 46.178001403808594,-67.38600158691406 C46.178001403808594,-76.76799774169922 56.69200134277344,-84.37300109863281 69.66100311279297,-84.37300109863281 C82.62999725341797,-84.37300109863281 93.14299774169922,-76.76799774169922 93.14299774169922,-67.38600158691406z"></path></g><g opacity="1" transform="matrix(1,0,0,1,0,0)"><path fill="rgb(255,255,255)" fill-opacity="1" d=" M97.04199981689453,-70.39199829101562 C97.04199981689453,-68.40799713134766 91.68800354003906,-66.80000305175781 85.08300018310547,-66.80000305175781 C78.47799682617188,-66.80000305175781 73.1240005493164,-68.40799713134766 73.1240005493164,-70.39199829101562 C73.1240005493164,-72.3759994506836 78.47799682617188,-73.98500061035156 85.08300018310547,-73.98500061035156 C91.68800354003906,-73.98500061035156 97.04199981689453,-72.3759994506836 97.04199981689453,-70.39199829101562z"></path></g></g><g opacity="1" transform="matrix(1,0,0,1,0,0)"><g opacity="1" transform="matrix(1,0,0,1,0,0)"><path fill="rgb(30,14,7)" fill-opacity="1" d=" M-65.40799713134766,-67.38600158691406 C-65.40799713134766,-58.00400161743164 -75.9219970703125,-50.39799880981445 -88.89099884033203,-50.39799880981445 C-101.86000061035156,-50.39799880981445 -112.37300109863281,-58.00400161743164 -112.37300109863281,-67.38600158691406 C-112.37300109863281,-76.76799774169922 -101.86000061035156,-84.37300109863281 -88.89099884033203,-84.37300109863281 C-75.9219970703125,-84.37300109863281 -65.40799713134766,-76.76799774169922 -65.40799713134766,-67.38600158691406z"></path></g><g opacity="1" transform="matrix(1,0,0,1,0,0)"><path fill="rgb(255,255,255)" fill-opacity="1" d=" M-55.21200180053711,-68.80000305175781 C-55.21200180053711,-67.0479965209961 -60.57699966430664,-65.62799835205078 -67.19499969482422,-65.62799835205078 C-73.81300354003906,-65.62799835205078 -79.17900085449219,-67.0479965209961 -79.17900085449219,-68.80000305175781 C-79.17900085449219,-70.552001953125 -73.81300354003906,-71.9729995727539 -67.19499969482422,-71.9729995727539 C-60.57699966430664,-71.9729995727539 -55.21200180053711,-70.552001953125 -55.21200180053711,-68.80000305175781z"></path></g></g><g opacity="1" transform="matrix(1,0,0,1,0,0)"><path stroke-linecap="butt" stroke-linejoin="miter" fill-opacity="0" stroke-miterlimit="10" stroke="rgb(96,47,38)" stroke-opacity="1" stroke-width="10.205" d=" M47.250999450683594,-80.38200378417969 C53.917999267578125,-84.25399780273438 146.71299743652344,-99.58399963378906 150.83799743652344,-76.9530029296875 C151.92799377441406,-70.97000122070312 153.5050048828125,-54.56700134277344 148.08799743652344,-53.70600128173828 C142.67100524902344,-52.845001220703125 65.58499908447266,-51.55400085449219 55.167999267578125,-52.415000915527344 C44.750999450683594,-53.2760009765625 40.58399963378906,-76.51000213623047 47.250999450683594,-80.38200378417969z"></path></g><g opacity="1" transform="matrix(1,0,0,1,0,0)"><path stroke-linecap="butt" stroke-linejoin="miter" fill-opacity="0" stroke-miterlimit="10" stroke="rgb(96,47,38)" stroke-opacity="1" stroke-width="10.205" d=" M-108.12100219726562,-63.79100036621094 C-108.12100219726562,-63.79100036621094 -109.29100036621094,-75.72899627685547 -100.31900024414062,-79.70800018310547 C-91.34700012207031,-83.68699645996094 -51.16600036621094,-84.12899780273438 -38.68299865722656,-81.91799926757812 C-26.200000762939453,-79.70700073242188 -25.80900001525879,-77.05500030517578 -27.760000228881836,-65.11699676513672 C-29.711000442504883,-53.17900085449219 -38.68299865722656,-55.38999938964844 -42.194000244140625,-54.948001861572266 C-45.70500183105469,-54.50600051879883 -94.85800170898438,-54.06399917602539 -102.2699966430664,-54.50600051879883 C-109.68199920654297,-54.948001861572266 -108.12100219726562,-63.79100036621094 -108.12100219726562,-63.79100036621094z"></path></g><g opacity="1" transform="matrix(1,0,0,1,0,0)"><path fill="rgb(91,52,32)" fill-opacity="1" d=" M31.375999450683594,-117.88200378417969 C31.375999450683594,-117.88200378417969 81.15899658203125,-111.17400360107422 94.60299682617188,-117.95800018310547 C137.1699981689453,-139.43699645996094 164.14999389648438,-114.00299835205078 161.593994140625,-108.36499786376953 C159.03799438476562,-102.72699737548828 127.62200164794922,-120.06700134277344 117.88500213623047,-112.80599975585938 C81.32599639892578,-85.54499816894531 32.89400100708008,-99.48300170898438 28.03700065612793,-105.19300079345703 C23.18000030517578,-110.90299987792969 31.375999450683594,-117.88200378417969 31.375999450683594,-117.88200378417969z"></path><path stroke-linecap="round" stroke-linejoin="round" fill-opacity="0" stroke="rgb(71,32,26)" stroke-opacity="1" stroke-width="8.504" d=" M31.375999450683594,-117.88200378417969 C31.375999450683594,-117.88200378417969 81.15899658203125,-111.17400360107422 94.60299682617188,-117.95800018310547 C137.1699981689453,-139.43699645996094 164.14999389648438,-114.00299835205078 161.593994140625,-108.36499786376953 C159.03799438476562,-102.72699737548828 127.62200164794922,-120.06700134277344 117.88500213623047,-112.80599975585938 C81.32599639892578,-85.54499816894531 32.89400100708008,-99.48300170898438 28.03700065612793,-105.19300079345703 C23.18000030517578,-110.90299987792969 31.375999450683594,-117.88200378417969 31.375999450683594,-117.88200378417969z"></path></g><g opacity="1" transform="matrix(1,0,0,1,0,0)"><path fill="rgb(91,52,32)" fill-opacity="1" d=" M-82.88600158691406,-121.05999755859375 C-59.952999114990234,-118.9739990234375 -52.59400177001953,-110.66200256347656 -48.67900085449219,-112.0530014038086 C-44.763999938964844,-113.44400024414062 -47.00199890136719,-127.35299682617188 -42.527000427246094,-127.35299682617188 C-38.051998138427734,-127.35299682617188 -18.187000274658203,-98.81600189208984 -24.628000259399414,-93.97000122070312 C-34.26900100708008,-86.71600341796875 -88.06199645996094,-118.23400115966797 -122.52799987792969,-101.55400085449219 C-122.52799987792969,-101.55400085449219 -105.81900024414062,-123.14600372314453 -82.88600158691406,-121.05999755859375z"></path><path stroke-linecap="round" stroke-linejoin="round" fill-opacity="0" stroke="rgb(71,32,26)" stroke-opacity="1" stroke-width="8.504" d=" M-82.88600158691406,-121.05999755859375 C-59.952999114990234,-118.9739990234375 -52.59400177001953,-110.66200256347656 -48.67900085449219,-112.0530014038086 C-44.763999938964844,-113.44400024414062 -47.00199890136719,-127.35299682617188 -42.527000427246094,-127.35299682617188 C-38.051998138427734,-127.35299682617188 -18.187000274658203,-98.81600189208984 -24.628000259399414,-93.97000122070312 C-34.26900100708008,-86.71600341796875 -88.06199645996094,-118.23400115966797 -122.52799987792969,-101.55400085449219 C-122.52799987792969,-101.55400085449219 -105.81900024414062,-123.14600372314453 -82.88600158691406,-121.05999755859375z"></path></g></g><g style="display: block;" transform="matrix(0.949999988079071,0,0,0.949999988079071,257.9830627441406,255.29849243164062)" opacity="1"><g opacity="1" transform="matrix(1,0,0,1,0,0)"><path stroke-linecap="round" stroke-linejoin="round" fill-opacity="0" stroke="rgb(201,125,91)" stroke-opacity="1" stroke-width="10.647" d=" M-48.41899871826172,-151.16400146484375 C39.27000045776367,-130.59500122070312 93.71299743652344,-157.71400451660156 93.71299743652344,-157.71400451660156"></path></g><g opacity="1" transform="matrix(1,0,0,1,0,0)"><path stroke-linecap="round" stroke-linejoin="round" fill-opacity="0" stroke="rgb(201,125,91)" stroke-opacity="1" stroke-width="10.647" d=" M-32.69900131225586,-180.63800048828125 C-32.69900131225586,-180.63800048828125 -0.46000000834465027,-170.63900756835938 17.757999420166016,-173.83599853515625 C35.97600173950195,-177.0330047607422 93.71299743652344,-186.5330047607422 93.71299743652344,-186.5330047607422"></path></g></g><g style="display: block;" transform="matrix(0.949999988079071,0,0,0.949999988079071,257.9830627441406,255.29849243164062)" opacity="1"><g opacity="1" transform="matrix(1,0,0,1,0,0)"><g opacity="1" transform="matrix(1,0,0,1,0,0)"><path fill="rgb(244,200,166)" fill-opacity="1" d=" M0.48500001430511475,-58.007999420166016 C-22.944000244140625,-38.68299865722656 -30.36400032043457,-10.956000328063965 -29.191999435424805,-6.659999847412109 C-54.965999603271484,4.664999961853027 -35.83100128173828,23.799999237060547 -19.405000686645508,22.972000122070312 C-3.4179999828338623,38.63999938964844 10.151000022888184,28.108999252319336 14.692000389099121,24.39299964904785 C31.339000701904297,24.19099998474121 51.948001861572266,-2.240999937057495 26.413000106811523,-11.479999542236328"></path><path stroke-linecap="round" stroke-linejoin="round" fill-opacity="0" stroke="rgb(184,99,72)" stroke-opacity="1" stroke-width="11.224" d=" M0.48500001430511475,-58.007999420166016 C-22.944000244140625,-38.68299865722656 -30.36400032043457,-10.956000328063965 -29.191999435424805,-6.659999847412109 C-54.965999603271484,4.664999961853027 -35.83100128173828,23.799999237060547 -19.405000686645508,22.972000122070312 C-3.4179999828338623,38.63999938964844 10.151000022888184,28.108999252319336 14.692000389099121,24.39299964904785 C31.339000701904297,24.19099998474121 51.948001861572266,-2.240999937057495 26.413000106811523,-11.479999542236328"></path></g><g opacity="1" transform="matrix(1,0,0,1,0,0)"><path stroke-linecap="round" stroke-linejoin="round" fill-opacity="0" stroke="rgb(86,36,26)" stroke-opacity="1" stroke-width="11.224" d=" M-32.233001708984375,17.055999755859375 C-32.233001708984375,17.055999755859375 -27.198999404907227,19.992000579833984 -24.68199920654297,20.83099937438965"></path></g><g opacity="1" transform="matrix(1,0,0,1,0,0)"><path stroke-linecap="round" stroke-linejoin="round" fill-opacity="0" stroke="rgb(86,36,26)" stroke-opacity="1" stroke-width="11.224" d=" M28.173999786376953,17.371000289916992 C28.173999786376953,17.371000289916992 26.916000366210938,17.3700008392334 24.083999633789062,19.257999420166016 C22.038999557495117,20.621000289916992 16.847000122070312,23.034000396728516 16.847000122070312,23.034000396728516"></path></g><g opacity="1" transform="matrix(1,0,0,1,0,0)"><path fill="rgb(244,200,166)" fill-opacity="1" d=" M-10.857000350952148,-89.02799987792969 C-10.857000350952148,-89.02799987792969 0.8889999985694885,-59.87300109863281 0.8889999985694885,-59.87300109863281"></path><path stroke-linecap="round" stroke-linejoin="round" fill-opacity="0" stroke="rgb(184,99,72)" stroke-opacity="1" stroke-width="11.224" d=" M-10.857000350952148,-89.02799987792969 C-10.857000350952148,-89.02799987792969 0.8889999985694885,-59.87300109863281 0.8889999985694885,-59.87300109863281"></path></g></g></g><g style="display: none;"><g><path></path><path stroke-linecap="round" stroke-linejoin="round" fill-opacity="0"></path></g></g><g style="display: block;" transform="matrix(1.2100000381469727,0,0,1.2100000381469727,314.5111999511719,192.71673583984375)" opacity="1"><g opacity="1" transform="matrix(1,0,0,1,0,0)"><path fill="rgb(243,193,154)" fill-opacity="1" d=" M-140.5,240.75 C-140.75,254.5 -41.75,254.75 -41.5,236.25 C-41.25,217.75 -140.25,227 -140.5,240.75z"></path></g><g opacity="1" transform="matrix(1,0,0,1,0.18000000715255737,0.48399999737739563)"><path fill="rgb(243,193,154)" fill-opacity="1" d=" M-43.736000061035156,235.3679962158203 C-43.26599884033203,210.80099487304688 -44.93199920654297,189.16299438476562 -48.35300064086914,170.56500244140625 C-58.11199951171875,117.51499938964844 -82.15699768066406,89.19999694824219 -111.66300201416016,88.19400024414062 C-142.46800231933594,87.14399719238281 -193.6280059814453,104.04299926757812 -189.552001953125,148.4219970703125 C-185.4759979248047,192.80099487304688 -140.19200134277344,201.85800170898438 -140.19200134277344,201.85800170898438 C-140.19200134277344,201.85800170898438 -138.83399963378906,239.44400024414062 -138.83399963378906,239.44400024414062"></path><path stroke-linecap="round" stroke-linejoin="round" fill-opacity="0" stroke="rgb(184,99,72)" stroke-opacity="1" stroke-width="10.113" d=" M-43.736000061035156,235.3679962158203 C-43.26599884033203,210.80099487304688 -44.93199920654297,189.16299438476562 -48.35300064086914,170.56500244140625 C-58.11199951171875,117.51499938964844 -82.15699768066406,89.19999694824219 -111.66300201416016,88.19400024414062 C-142.46800231933594,87.14399719238281 -193.6280059814453,104.04299926757812 -189.552001953125,148.4219970703125 C-185.4759979248047,192.80099487304688 -140.19200134277344,201.85800170898438 -140.19200134277344,201.85800170898438 C-140.19200134277344,201.85800170898438 -138.83399963378906,239.44400024414062 -138.83399963378906,239.44400024414062"></path></g><g opacity="1" transform="matrix(1,0,0,1,0,0)"><path fill="rgb(184,99,72)" fill-opacity="0.37" d=" M-160.07699584960938,167.79100036621094 C-127.05899810791016,212.67999267578125 -106.65499877929688,190.42100524902344 -102.2030029296875,197.0989990234375 C-97.7509994506836,203.77699279785156 -120.38099670410156,207.11599731445312 -120.38099670410156,207.11599731445312 C-120.38099670410156,207.11599731445312 -117.04199981689453,245.32699584960938 -117.04199981689453,245.32699584960938 C-117.04199981689453,245.32699584960938 -136.70399475097656,244.95599365234375 -136.70399475097656,244.95599365234375 C-136.70399475097656,244.95599365234375 -140.19200134277344,201.85800170898438 -140.19200134277344,201.85800170898438 C-140.19200134277344,201.85800170898438 -179.73899841308594,174.83999633789062 -179.73899841308594,174.83999633789062 C-179.73899841308594,174.83999633789062 -160.07699584960938,167.79100036621094 -160.07699584960938,167.79100036621094z"></path></g></g><g style="display: block;" transform="matrix(1.2100000381469727,0,0,1.2100000381469727,314.5111999511719,192.71673583984375)" opacity="1"><g opacity="1" transform="matrix(1,0,0,1,0,0)"><path fill="rgb(243,193,154)" fill-opacity="1" d=" M-193.6280059814453,93.62799835205078 C-223.06300354003906,93.17500305175781 -237.5540008544922,138.45899963378906 -231.21400451660156,154.3090057373047 C-224.87399291992188,170.15899658203125 -196.8070068359375,188.03599548339844 -188.2030029296875,183.50799560546875 C-179.5989990234375,178.97999572753906 -193.6280059814453,118.98699951171875 -193.6280059814453,118.98699951171875"></path><path stroke-linecap="round" stroke-linejoin="round" fill-opacity="0" stroke="rgb(184,99,72)" stroke-opacity="1" stroke-width="10.113" d=" M-193.6280059814453,93.62799835205078 C-223.06300354003906,93.17500305175781 -237.5540008544922,138.45899963378906 -231.21400451660156,154.3090057373047 C-224.87399291992188,170.15899658203125 -196.8070068359375,188.03599548339844 -188.2030029296875,183.50799560546875 C-179.5989990234375,178.97999572753906 -193.6280059814453,118.98699951171875 -193.6280059814453,118.98699951171875"></path></g></g><g style="display: block;" transform="matrix(1.2100000381469727,0,0,1.2100000381469727,314.5111999511719,192.71673583984375)" opacity="1"><g opacity="1" transform="matrix(1,0,0,1,0,0)"><path fill="rgb(243,193,154)" fill-opacity="1" d=" M-155.76800537109375,94.9209976196289 C-185.2030029296875,94.46800231933594 -203.19400024414062,146.2519989013672 -196.85400390625,162.1020050048828 C-190.51400756835938,177.95199584960938 -174.4949951171875,188.38499450683594 -166.343994140625,174.8000030517578 C-158.1929931640625,161.21499633789062 -161.8470001220703,150.4810028076172 -144.76800537109375,135.77999877929688"></path><path stroke-linecap="round" stroke-linejoin="round" fill-opacity="0" stroke="rgb(184,99,72)" stroke-opacity="1" stroke-width="10.113" d=" M-155.76800537109375,94.9209976196289 C-185.2030029296875,94.46800231933594 -203.19400024414062,146.2519989013672 -196.85400390625,162.1020050048828 C-190.51400756835938,177.95199584960938 -174.4949951171875,188.38499450683594 -166.343994140625,174.8000030517578 C-158.1929931640625,161.21499633789062 -161.8470001220703,150.4810028076172 -144.76800537109375,135.77999877929688"></path></g></g><g style="display: none;"><g><path></path><path stroke-linecap="round" stroke-linejoin="round" fill-opacity="0"></path></g></g><g style="display: none;"><g><path></path><path stroke-linecap="round" stroke-linejoin="round" fill-opacity="0"></path></g></g><g style="display: block;" transform="matrix(1.2100000381469727,0,0,1.2100000381469727,314.5111999511719,192.71673583984375)" opacity="1"><g opacity="1" transform="matrix(1,0,0,1,0,0)"><path fill="rgb(243,193,154)" fill-opacity="1" d=" M-112.56900024414062,118.08200073242188 C-112.56900024414062,118.08200073242188 -124.7959976196289,136.1959991455078 -132.04100036621094,138.91299438476562 C-139.28599548339844,141.6300048828125 -154.22999572753906,132.572998046875 -169.1739959716797,137.5540008544922 C-184.1179962158203,142.53500366210938 -182.3070068359375,157.47900390625 -182.3070068359375,157.47900390625 C-182.3070068359375,157.47900390625 -155.91600036621094,181.44000244140625 -132.49400329589844,183.74400329589844 C-104.87100219726562,186.46099853515625 -81.7750015258789,160.6490020751953 -81.7750015258789,160.6490020751953"></path><path stroke-linecap="round" stroke-linejoin="round" fill-opacity="0" stroke="rgb(184,99,72)" stroke-opacity="1" stroke-width="10.113" d=" M-112.56900024414062,118.08200073242188 C-112.56900024414062,118.08200073242188 -124.7959976196289,136.1959991455078 -132.04100036621094,138.91299438476562 C-139.28599548339844,141.6300048828125 -154.22999572753906,132.572998046875 -169.1739959716797,137.5540008544922 C-184.1179962158203,142.53500366210938 -182.3070068359375,157.47900390625 -182.3070068359375,157.47900390625 C-182.3070068359375,157.47900390625 -155.91600036621094,181.44000244140625 -132.49400329589844,183.74400329589844 C-104.87100219726562,186.46099853515625 -81.7750015258789,160.6490020751953 -81.7750015258789,160.6490020751953"></path></g><g opacity="0.45" transform="matrix(1,0,0,1,0,0)"><path fill="rgb(243,193,154)" fill-opacity="1" d=" M-156.75,170.75 C-156.75,170.75 -148.5,160.5 -149.5,155.25 C-150.5,150 -171.75,142 -171.75,142"></path><path stroke-linecap="butt" stroke-linejoin="miter" fill-opacity="0" stroke-miterlimit="4" stroke="rgb(184,99,72)" stroke-opacity="1" stroke-width="10.113" d=" M-156.75,170.75 C-156.75,170.75 -148.5,160.5 -149.5,155.25 C-150.5,150 -171.75,142 -171.75,142"></path></g></g><g style="display: block;" transform="matrix(1.2100000381469727,0,0,1.2100000381469727,314.5111999511719,192.71673583984375)" opacity="1"><g opacity="1" transform="matrix(1,0,0,1,0,0)"><path fill="rgb(243,193,154)" fill-opacity="1" d=" M-114.83300018310547,96.7979965209961 C-139.28700256347656,77.77899932861328 -152.41900634765625,73.2509994506836 -181.85400390625,77.77899932861328 C-211.28900146484375,82.30699920654297 -224.22999572753906,55.75899887084961 -237.1009979248047,64.64600372314453 C-256.1199951171875,77.77799987792969 -242.08200073242188,125.77999877929688 -164.64599609375,125.77999877929688"></path><path stroke-linecap="round" stroke-linejoin="round" fill-opacity="0" stroke="rgb(184,99,72)" stroke-opacity="1" stroke-width="10.113" d=" M-114.83300018310547,96.7979965209961 C-139.28700256347656,77.77899932861328 -152.41900634765625,73.2509994506836 -181.85400390625,77.77899932861328 C-211.28900146484375,82.30699920654297 -224.22999572753906,55.75899887084961 -237.1009979248047,64.64600372314453 C-256.1199951171875,77.77799987792969 -242.08200073242188,125.77999877929688 -164.64599609375,125.77999877929688"></path></g><g opacity="0.45" transform="matrix(1,0,0,1,0,0)"><path stroke-linecap="round" stroke-linejoin="round" fill-opacity="0" stroke="rgb(184,99,72)" stroke-opacity="1" stroke-width="10.113" d=" M-207.21299743652344,68.88099670410156 C-207.21299743652344,68.88099670410156 -211.47900390625,80.83599853515625 -216.26300048828125,82.42500305175781 C-221.0469970703125,84.01399993896484 -238.14500427246094,69.32099914550781 -238.14500427246094,69.32099914550781 C-238.14500427246094,69.32099914550781 -235.73500061035156,67.23799896240234 -235.73500061035156,67.23799896240234"></path></g></g><g style="display: block;" transform="matrix(1.2100000381469727,0,0,1.2100000381469727,314.5111999511719,192.71673583984375)" opacity="1"><g opacity="1" transform="matrix(1,0,0,1,0,0)"><path fill="rgb(243,193,154)" fill-opacity="1" d=" M-83.13400268554688,99.96800231933594 C-107.58799743652344,80.9489974975586 -123.43699645996094,75.51499938964844 -152.8719940185547,80.04299926757812 C-182.3070068359375,84.57099914550781 -195.2480010986328,58.02299880981445 -208.11900329589844,66.91000366210938 C-227.13800048828125,80.04199981689453 -213.10000610351562,128.04400634765625 -135.66400146484375,128.04400634765625"></path><path stroke-linecap="round" stroke-linejoin="round" fill-opacity="0" stroke="rgb(184,99,72)" stroke-opacity="1" stroke-width="10.113" d=" M-83.13400268554688,99.96800231933594 C-107.58799743652344,80.9489974975586 -123.43699645996094,75.51499938964844 -152.8719940185547,80.04299926757812 C-182.3070068359375,84.57099914550781 -195.2480010986328,58.02299880981445 -208.11900329589844,66.91000366210938 C-227.13800048828125,80.04199981689453 -213.10000610351562,128.04400634765625 -135.66400146484375,128.04400634765625"></path></g><g opacity="0.45" transform="matrix(1,0,0,1,0,0)"><path stroke-linecap="round" stroke-linejoin="round" fill-opacity="0" stroke="rgb(184,99,72)" stroke-opacity="1" stroke-width="10.113" d=" M-179.21299743652344,74.38099670410156 C-179.21299743652344,74.38099670410156 -183.47900390625,86.33599853515625 -188.26300048828125,87.92500305175781 C-193.0469970703125,89.51399993896484 -210.14500427246094,74.82099914550781 -210.14500427246094,74.82099914550781 C-210.14500427246094,74.82099914550781 -207.73500061035156,72.73799896240234 -207.73500061035156,72.73799896240234"></path></g></g><g style="display: none;"><g><path></path><path stroke-linecap="round" stroke-linejoin="round" fill-opacity="0"></path></g><g><path></path><path stroke-linecap="butt" stroke-linejoin="miter" fill-opacity="0" stroke-miterlimit="4"></path></g></g><g style="display: none;"><g><path></path><path stroke-linecap="round" stroke-linejoin="round" fill-opacity="0"></path></g><g><path stroke-linecap="round" stroke-linejoin="round" fill-opacity="0"></path></g></g><g style="display: none;"><g><path></path><path stroke-linecap="round" stroke-linejoin="round" fill-opacity="0"></path></g><g><path stroke-linecap="round" stroke-linejoin="round" fill-opacity="0"></path></g></g><g style="display: none;"><g><path></path><path stroke-linecap="round" stroke-linejoin="round" fill-opacity="0"></path></g><g><path stroke-linecap="round" stroke-linejoin="round" fill-opacity="0"></path></g></g><g style="display: none;"><g><path></path><path stroke-linecap="round" stroke-linejoin="round" fill-opacity="0"></path></g><g><path stroke-linecap="round" stroke-linejoin="round" fill-opacity="0"></path></g></g></g></svg>