<svg xmlns="http://www.w3.org/2000/svg" xmlns:xlink="http://www.w3.org/1999/xlink" viewBox="0 0 512 512" width="512" height="512" style="width: 100%; height: 100%; transform: translate3d(0,0,0); content-visibility: visible;" preserveAspectRatio="xMidYMid meet"><defs><clipPath id="__lottie_element_2"><rect width="512" height="512" x="0" y="0"></rect></clipPath><radialGradient id="__lottie_element_10" spreadMethod="pad" gradientUnits="userSpaceOnUse" cx="-43.492000579833984" cy="-207.1529998779297" r="421.62046265856713" fx="-43.492000579833984" fy="-207.1529998779297"><stop offset="0%" stop-color="rgb(249,188,151)"></stop><stop offset="51%" stop-color="rgb(239,153,110)"></stop><stop offset="100%" stop-color="rgb(229,118,70)"></stop></radialGradient><radialGradient id="__lottie_element_11" spreadMethod="pad" gradientUnits="userSpaceOnUse" cx="-162.48500061035156" cy="-127.45500183105469" r="291.79299689535117" fx="-162.48500061035156" fy="-127.45500183105469"><stop offset="0%" stop-color="rgb(249,223,201)"></stop><stop offset="51%" stop-color="rgb(249,202,171)"></stop><stop offset="100%" stop-color="rgb(250,181,140)"></stop></radialGradient></defs><g clip-path="url(#__lottie_element_2)"><g style="display: block;" transform="matrix(0.9200000166893005,0,0,0.9200000166893005,15.907125473022461,6.764673233032227)" opacity="1"><g opacity="1" transform="matrix(1,0,0,1,274.45001220703125,259.1709899902344)"><path fill="url(#__lottie_element_10)" fill-opacity="1" d=" M-192.7790069580078,129.98300170898438 C-209.34800720214844,106.56099700927734 -244.4499969482422,49.733001708984375 -224.53599548339844,-42.48899841308594 C-207.81500244140625,-119.9229965209961 -179.01199340820312,-160.4550018310547 -141.69200134277344,-181.6020050048828 C-104.37100219726562,-202.7480010986328 -40.770999908447266,-229.1699981689453 28.138999938964844,-217.08999633789062 C97.04900360107422,-205.00900268554688 141.0989990234375,-168.2100067138672 179.90499877929688,-114.13300323486328 C214.96099853515625,-65.28199768066406 244.4499969482422,8.736000061035156 230.58799743652344,57.93899917602539 C216.7259979248047,107.14199829101562 170.875,198.62100219726562 47.470001220703125,213.02499389648438 C-90.85600280761719,229.17100524902344 -170.7519989013672,161.12100219726562 -192.7790069580078,129.98300170898438z"></path></g><g opacity="1" transform="matrix(1,0,0,1,274.45001220703125,259.1709899902344)"><path stroke-linecap="butt" stroke-linejoin="miter" fill-opacity="0" stroke-miterlimit="10" stroke="rgb(173,92,37)" stroke-opacity="1" stroke-width="12" d=" M-192.7790069580078,129.98300170898438 C-209.34800720214844,106.56099700927734 -244.4499969482422,49.733001708984375 -224.53599548339844,-42.48899841308594 C-207.81500244140625,-119.9229965209961 -179.01199340820312,-160.4550018310547 -141.69200134277344,-181.6020050048828 C-104.37100219726562,-202.7480010986328 -40.770999908447266,-229.1699981689453 28.138999938964844,-217.08999633789062 C97.04900360107422,-205.00900268554688 141.0989990234375,-168.2100067138672 179.90499877929688,-114.13300323486328 C214.96099853515625,-65.28199768066406 244.4499969482422,8.736000061035156 230.58799743652344,57.93899917602539 C216.7259979248047,107.14199829101562 170.875,198.62100219726562 47.470001220703125,213.02499389648438 C-90.85600280761719,229.17100524902344 -170.7519989013672,161.12100219726562 -192.7790069580078,129.98300170898438z"></path></g><g opacity="1" transform="matrix(1,0,0,1,279.9010009765625,237.15199279785156)"><path fill="url(#__lottie_element_11)" fill-opacity="1" d=" M-181.5399932861328,132.20899963378906 C-196.12600708007812,112.14700317382812 -225.97900390625,66.50900268554688 -208.42999267578125,-12.494000434875488 C-193.69500732421875,-78.83000183105469 -162.8520050048828,-123.11599731445312 -129.98699951171875,-141.23599243164062 C-97.12200164794922,-159.35699462890625 -45.4640007019043,-179.82699584960938 15.211000442504883,-169.49000549316406 C75.88700103759766,-159.15199279785156 123.36399841308594,-128.7220001220703 157.5260009765625,-82.40399932861328 C188.38600158691406,-40.5620002746582 216.13699340820312,35.06700134277344 203.1479949951172,78.68800354003906 C190.64199829101562,120.7509994506836 144.45399475097656,193.69500732421875 35.790000915527344,206.0540008544922 C-86.01300048828125,219.90699768066406 -162.1490020751953,158.87899780273438 -181.5399932861328,132.20899963378906z"></path></g></g><g style="display: block;" transform="matrix(0.9199998378753662,0,0,0.9200000166893005,102.69732666015625,84.08607482910156)" opacity="1"><g opacity="1" transform="matrix(1,0,0,1,0,0)"><g opacity="1" transform="matrix(1,0,0,1,252.61500549316406,81.00399780273438)"><path fill="rgb(255,255,255)" fill-opacity="1" d=" M-64.62300109863281,-0.2809999883174896 C-64.62300109863281,-0.2809999883174896 -41.05400085449219,-21.79599952697754 5.795000076293945,-23.702999114990234 C52.643001556396484,-25.611000061035156 61.8390007019043,-13.10200023651123 63.23099899291992,-5.947999954223633 C64.62200164794922,1.2050000429153442 59.98400115966797,12.649999618530273 58.59199905395508,12.649999618530273 C57.20100021362305,12.649999618530273 24.26799964904785,11.696999549865723 1.0750000476837158,13.128000259399414 C-22.117000579833984,14.557999610900879 -48.10100173950195,25.611000061035156 -53.57699966430664,23.851999282836914 C-64.62300109863281,20.30299949645996 -64.62300109863281,-0.2809999883174896 -64.62300109863281,-0.2809999883174896z"></path><path stroke-linecap="round" stroke-linejoin="round" fill-opacity="0" stroke="rgb(183,99,57)" stroke-opacity="1" stroke-width="14.242" d=" M-64.62300109863281,-0.2809999883174896 C-64.62300109863281,-0.2809999883174896 -41.05400085449219,-21.79599952697754 5.795000076293945,-23.702999114990234 C52.643001556396484,-25.611000061035156 61.8390007019043,-13.10200023651123 63.23099899291992,-5.947999954223633 C64.62200164794922,1.2050000429153442 59.98400115966797,12.649999618530273 58.59199905395508,12.649999618530273 C57.20100021362305,12.649999618530273 24.26799964904785,11.696999549865723 1.0750000476837158,13.128000259399414 C-22.117000579833984,14.557999610900879 -48.10100173950195,25.611000061035156 -53.57699966430664,23.851999282836914 C-64.62300109863281,20.30299949645996 -64.62300109863281,-0.2809999883174896 -64.62300109863281,-0.2809999883174896z"></path></g><g opacity="1" transform="matrix(1,0,0,1,-29.97601318359375,-2.063995361328125)"><g opacity="1" transform="matrix(1,0,0,1,286.4209899902344,81.89700317382812)"><path fill="rgb(37,33,48)" fill-opacity="1" d=" M-21.92099952697754,-19.315000534057617 C-29.97100067138672,-15.937999725341797 -28.80500030517578,2.9690001010894775 -22.517000198364258,9.024999618530273 C-14.37399959564209,16.867000579833984 4.627999782562256,18.594999313354492 15.053000450134277,14.222000122070312 C23.047000885009766,10.869000434875488 35.1879997253418,2.138000011444092 27.68400001525879,-10.782999992370605 C18.211999893188477,-27.093000411987305 -8.420000076293945,-24.97800064086914 -21.92099952697754,-19.315000534057617z"></path></g><g opacity="1" transform="matrix(0.7699999809265137,0,0,0.7699999809265137,292.9809875488281,74.15299987792969)"><path fill="rgb(255,255,255)" fill-opacity="1" d=" M8.567000389099121,0 C8.567000389099121,4.086999893188477 4.73199987411499,7.39900016784668 0,7.39900016784668 C-4.730999946594238,7.39900016784668 -8.567000389099121,4.086999893188477 -8.567000389099121,0 C-8.567000389099121,-4.086999893188477 -4.730999946594238,-7.39900016784668 0,-7.39900016784668 C4.73199987411499,-7.39900016784668 8.567000389099121,-4.086999893188477 8.567000389099121,0z"></path></g></g><g opacity="1" transform="matrix(1,0,0,1,250.48300170898438,53.7760009765625)"><path fill="rgb(255,214,187)" fill-opacity="1" d=" M-70.43000030517578,12.043000221252441 C-73.71199798583984,4.235000133514404 -70.0739974975586,2.7669999599456787 -63.87099838256836,-2.861999988555908 C-54.801998138427734,-11.093000411987305 -27.31599998474121,-23.775999069213867 5.855999946594238,-23.44499969482422 C53.63199996948242,-22.968000411987305 73.71199798583984,-0.3889999985694885 72.78399658203125,9.14799976348877 C72.26799774169922,14.45300006866455 66.29000091552734,17.73200035095215 63.50699996948242,16.301000595092773 C60.7239990234375,14.869999885559082 38.12799835205078,-0.781000018119812 -5.880000114440918,4.945000171661377 C-40.231998443603516,9.414999961853027 -46.433998107910156,17.801000595092773 -56.277000427246094,20.915000915527344 C-65.3219985961914,23.775999069213867 -64.54100036621094,19.85300064086914 -66.27799987792969,15.835000038146973 C-66.3239974975586,15.727999687194824 -70.38500213623047,12.14900016784668 -70.43000030517578,12.043000221252441z"></path><path stroke-linecap="butt" stroke-linejoin="miter" fill-opacity="0" stroke-miterlimit="10" stroke="rgb(183,99,57)" stroke-opacity="1" stroke-width="12" d=" M-70.43000030517578,12.043000221252441 C-73.71199798583984,4.235000133514404 -70.0739974975586,2.7669999599456787 -63.87099838256836,-2.861999988555908 C-54.801998138427734,-11.093000411987305 -27.31599998474121,-23.775999069213867 5.855999946594238,-23.44499969482422 C53.63199996948242,-22.968000411987305 73.71199798583984,-0.3889999985694885 72.78399658203125,9.14799976348877 C72.26799774169922,14.45300006866455 66.29000091552734,17.73200035095215 63.50699996948242,16.301000595092773 C60.7239990234375,14.869999885559082 38.12799835205078,-0.781000018119812 -5.880000114440918,4.945000171661377 C-40.231998443603516,9.414999961853027 -46.433998107910156,17.801000595092773 -56.277000427246094,20.915000915527344 C-65.3219985961914,23.775999069213867 -64.54100036621094,19.85300064086914 -66.27799987792969,15.835000038146973 C-66.3239974975586,15.727999687194824 -70.38500213623047,12.14900016784668 -70.43000030517578,12.043000221252441z"></path></g><g opacity="1" transform="matrix(1,0,0,1,265.2869873046875,113.56400299072266)"><path fill="rgb(255,214,187)" fill-opacity="1" d=" M-67.48899841308594,-7.511000156402588 C-67.48899841308594,-7.511000156402588 -53.22700119018555,-18.240999221801758 -10.437000274658203,-21.101999282836914 C32.35300064086914,-23.96299934387207 64.70600128173828,-15.737000465393066 68.18499755859375,-12.87600040435791 C71.66400146484375,-10.015000343322754 70.27300262451172,-3.2190001010894775 65.05500030517578,-1.7879999876022339 C59.83700180053711,-0.3580000102519989 50.44300079345703,-1.0729999542236328 50.44300079345703,-1.0729999542236328 C50.44300079345703,-1.0729999542236328 45.22600173950195,6.795000076293945 18.785999298095703,15.378999710083008 C-7.6529998779296875,23.96299934387207 -40.35499954223633,22.173999786376953 -56.0099983215332,14.663999557495117 C-71.66500091552734,7.1529998779296875 -67.48899841308594,-7.511000156402588 -67.48899841308594,-7.511000156402588z"></path></g><g opacity="1" transform="matrix(1,0,0,1,250.6439971923828,132.35899353027344)"><path stroke-linecap="round" stroke-linejoin="round" fill-opacity="0" stroke="rgb(211,106,60)" stroke-opacity="0.45" stroke-width="14.132" d=" M47.117000579833984,0.5320000052452087 C47.117000579833984,0.5320000052452087 34.000999450683594,7.985000133514404 12.944999694824219,7.985000133514404 C-25.37700080871582,7.985000133514404 -47.11800003051758,-7.985000133514404 -47.11800003051758,-7.985000133514404"></path></g><g opacity="1" transform="matrix(1,0,0,1,265.7309875488281,112.48799896240234)"><path stroke-linecap="round" stroke-linejoin="round" fill-opacity="0" stroke="rgb(183,99,57)" stroke-opacity="1" stroke-width="13" d=" M-51.50400161743164,18.982999801635742 C-52.4370002746582,18.53499984741211 -57.845001220703125,12.451000213623047 -58.75299835205078,12.239999771118164 C-69.4540023803711,9.755999565124512 -74.14299774169922,-6.982999801635742 -62.779998779296875,-10.944999694824219 C-53.9109992980957,-14.036999702453613 -32.76900100708008,-18.562000274658203 -10.880000114440918,-20.024999618530273 C31.90999984741211,-22.886999130249023 64.16200256347656,-14.527000427246094 67.74199676513672,-11.800000190734863 C74.14299774169922,-6.922999858856201 71.0770034790039,5.486000061035156 65.85900115966797,6.916999816894531 C60.64099884033203,8.347999572753906 49.290000915527344,7.626999855041504 49.290000915527344,7.626999855041504 C49.290000915527344,7.626999855041504 43.422000885009766,16.143999099731445 26.507999420166016,22.886999130249023"></path></g></g><g opacity="1" transform="matrix(1,0,0,1,0,0)"><g opacity="1" transform="matrix(1,0,0,1,115.16000366210938,87.67400360107422)"><path fill="rgb(255,255,255)" fill-opacity="1" d=" M-64.99199676513672,-3.0439999103546143 C-64.99199676513672,-3.0439999103546143 -38.13999938964844,-21.30900001525879 -1.3420000076293945,-23.650999069213867 C35.45600128173828,-25.993000030517578 53.05799865722656,-17.395999908447266 59.025001525878906,-9.434000015258789 C64.99199676513672,-1.472000002861023 64.38099670410156,10.65999984741211 51.95000076293945,14.875 C39.518001556396484,19.09000015258789 -10.293999671936035,25.993000030517578 -32.17300033569336,23.183000564575195 C-54.053001403808594,20.37299919128418 -62.00899887084961,20.37299919128418 -63.500999450683594,14.28499984741211 C-64.99299621582031,8.196000099182129 -64.99199676513672,-3.0439999103546143 -64.99199676513672,-3.0439999103546143z"></path><path stroke-linecap="round" stroke-linejoin="round" fill-opacity="0" stroke="rgb(183,99,57)" stroke-opacity="1" stroke-width="14.614" d=" M-64.99199676513672,-3.0439999103546143 C-64.99199676513672,-3.0439999103546143 -38.13999938964844,-21.30900001525879 -1.3420000076293945,-23.650999069213867 C35.45600128173828,-25.993000030517578 53.05799865722656,-17.395999908447266 59.025001525878906,-9.434000015258789 C64.99199676513672,-1.472000002861023 64.38099670410156,10.65999984741211 51.95000076293945,14.875 C39.518001556396484,19.09000015258789 -10.293999671936035,25.993000030517578 -32.17300033569336,23.183000564575195 C-54.053001403808594,20.37299919128418 -62.00899887084961,20.37299919128418 -63.500999450683594,14.28499984741211 C-64.99299621582031,8.196000099182129 -64.99199676513672,-3.0439999103546143 -64.99199676513672,-3.0439999103546143z"></path></g><g opacity="1" transform="matrix(0.9943063855171204,-0.10655909031629562,0.10655909031629562,0.9943063855171204,-40.42448425292969,18.909446716308594)"><g opacity="1" transform="matrix(1,0,0,1,140.16099548339844,82.50599670410156)"><path fill="rgb(37,33,48)" fill-opacity="1" d=" M-22.573999404907227,-12.15999984741211 C-22.573999404907227,-12.15999984741211 -32.340999603271484,0.5049999952316284 -19.618000030517578,11.529999732971191 C-8.845000267028809,20.864999771118164 20.87299919128418,19.888999938964844 24.70400047302246,15.251999855041504 C28.53499984741211,10.614999771118164 32.95800018310547,-1.1799999475479126 26.85099983215332,-9.770000457763672 C16.768999099731445,-23.95199966430664 -6.705999851226807,-19.888999938964844 -6.705999851226807,-19.888999938964844 C-6.705999851226807,-19.888999938964844 -22.573999404907227,-12.15999984741211 -22.573999404907227,-12.15999984741211z"></path></g><g opacity="1" transform="matrix(0.6899999976158142,0,0,0.6899999976158142,149.2740020751953,76.48500061035156)"><path fill="rgb(255,255,255)" fill-opacity="1" d=" M9.76200008392334,1.2580000162124634 C9.234000205993652,5.590000152587891 4.434999942779541,8.539999961853027 -0.9559999704360962,7.84499979019165 C-6.3470001220703125,7.150000095367432 -10.289999961853027,3.0739998817443848 -9.76200008392334,-1.2589999437332153 C-9.232999801635742,-5.591000080108643 -4.434999942779541,-8.539999961853027 0.9559999704360962,-7.84499979019165 C6.3470001220703125,-7.150000095367432 10.289999961853027,-3.0739998817443848 9.76200008392334,1.2580000162124634z"></path></g></g><g opacity="1" transform="matrix(1,0,0,1,119.28700256347656,120.69200134277344)"><path fill="rgb(255,214,187)" fill-opacity="1" d=" M-74.09200286865234,-3.513000011444092 C-74.09200286865234,-3.513000011444092 -44.75400161743164,-18.5 -8.951000213623047,-21.309999465942383 C26.851999282836914,-24.1200008392334 50.72100067138672,-23.18199920654297 62.15800094604492,-20.371999740600586 C73.59500122070312,-17.562000274658203 74.09200286865234,-11.473999977111816 71.60600280761719,-9.600000381469727 C69.12000274658203,-7.7270002365112305 57.68299865722656,-8.663999557495117 57.68299865722656,-8.663999557495117 C57.68299865722656,-8.663999557495117 56.68899917602539,2.1080000400543213 49.22999954223633,7.728000164031982 C41.770999908447266,13.347999572753906 -25.857999801635742,24.118999481201172 -44.25699996948242,20.840999603271484 C-62.65599822998047,17.562000274658203 -62.65599822998047,8.663999557495117 -62.65599822998047,8.663999557495117 C-62.65599822998047,8.663999557495117 -74.09200286865234,-3.513000011444092 -74.09200286865234,-3.513000011444092z"></path></g><g opacity="1" transform="matrix(1,0,0,1,111.59100341796875,137.97799682617188)"><path stroke-linecap="round" stroke-linejoin="round" fill-opacity="0" stroke="rgb(211,106,60)" stroke-opacity="0.54" stroke-width="14.132" d=" M-55.459999084472656,-8.517000198364258 C-55.459999084472656,-8.517000198364258 -41.65299987792969,4.73199987411499 -3.9119999408721924,6.625 C33.827999114990234,8.517000198364258 55.459999084472656,-8.043999671936035 55.459999084472656,-8.043999671936035"></path></g><g opacity="1" transform="matrix(1,0,0,1,119.28700256347656,112.96399688720703)"><path stroke-linecap="round" stroke-linejoin="round" fill-opacity="0" stroke="rgb(183,99,57)" stroke-opacity="1" stroke-width="13" d=" M-62.65599822998047,16.392000198364258 C-62.65599822998047,16.392000198364258 -74.09300231933594,4.215000152587891 -74.09300231933594,4.215000152587891 C-74.09300231933594,4.215000152587891 -44.75400161743164,-10.772000312805176 -8.951000213623047,-13.581999778747559 C26.851999282836914,-16.392000198364258 50.72100067138672,-15.454999923706055 62.15800094604492,-12.645000457763672 C73.59500122070312,-9.835000038146973 74.09200286865234,-3.746999979019165 71.60600280761719,-1.8730000257492065 C69.12000274658203,0 57.68299865722656,-0.9369999766349792 57.68299865722656,-0.9369999766349792 C57.68299865722656,-0.9369999766349792 56.6879997253418,9.835000038146973 49.229000091552734,15.454999923706055"></path></g><g opacity="1" transform="matrix(1,0,0,1,106.93000030517578,58.11199951171875)"><path fill="rgb(255,214,187)" fill-opacity="1" d=" M-72.14399719238281,21.733999252319336 C-74.46399688720703,14.407999992370605 -76.93000030517578,7.960000038146973 -67.61000061035156,-0.5569999814033508 C-59.70500183105469,-7.781000137329102 -36.68600082397461,-24.615999221801758 10.300000190734863,-25.297000885009766 C59.316001892089844,-26.006000518798828 76.93000030517578,-1.4589999914169312 72.5479965209961,6.52400016784668 C69.76300048828125,11.597999572753906 72.14600372314453,15.489999771118164 65.18399810791016,13.14900016784668 C58.22200012207031,10.807000160217285 28.767000198364258,-0.6890000104904175 -9.52299976348877,5.868000030517578 C-47.8120002746582,12.423999786376953 -63.724998474121094,26.006000518798828 -63.724998474121094,26.006000518798828 C-63.724998474121094,26.006000518798828 -71.68099975585938,23.195999145507812 -71.68099975585938,23.195999145507812 C-71.68099975585938,23.195999145507812 -72.14399719238281,21.733999252319336 -72.14399719238281,21.733999252319336z"></path><path stroke-linecap="butt" stroke-linejoin="miter" fill-opacity="0" stroke-miterlimit="10" stroke="rgb(183,99,57)" stroke-opacity="1" stroke-width="12" d=" M-72.14399719238281,21.733999252319336 C-74.46399688720703,14.407999992370605 -76.93000030517578,7.960000038146973 -67.61000061035156,-0.5569999814033508 C-59.70500183105469,-7.781000137329102 -36.68600082397461,-24.615999221801758 10.300000190734863,-25.297000885009766 C59.316001892089844,-26.006000518798828 76.93000030517578,-1.4589999914169312 72.5479965209961,6.52400016784668 C69.76300048828125,11.597999572753906 72.14600372314453,15.489999771118164 65.18399810791016,13.14900016784668 C58.22200012207031,10.807000160217285 28.767000198364258,-0.6890000104904175 -9.52299976348877,5.868000030517578 C-47.8120002746582,12.423999786376953 -63.724998474121094,26.006000518798828 -63.724998474121094,26.006000518798828 C-63.724998474121094,26.006000518798828 -71.68099975585938,23.195999145507812 -71.68099975585938,23.195999145507812 C-71.68099975585938,23.195999145507812 -72.14399719238281,21.733999252319336 -72.14399719238281,21.733999252319336z"></path></g></g></g><g style="display: block;" transform="matrix(0.9699238538742065,0.06486407667398453,-0.06114884838461876,0.9143695831298828,228.16236877441406,271.3235168457031)" opacity="1"><g opacity="1" transform="matrix(1,0,0,1,0,0)"><path fill="rgb(108,45,26)" fill-opacity="0.91" d=" M184.99400329589844,-43.54499816894531 C184.99400329589844,-43.54499816894531 174.00999450683594,-27.072999954223633 124.01000213623047,-15.572999954223633 C74.01000213623047,-4.072999954223633 0.8600000143051147,-6.261000156402588 -22.003000259399414,-9.180000305175781 C-45.50299835205078,-12.180000305175781 -84.0009994506836,-26.76300048828125 -84.0009994506836,-26.76300048828125 C-84.0009994506836,-26.76300048828125 -51.694000244140625,-2.117000102996826 31.88599967956543,-5.314000129699707 C64.50399780273438,-6.561999797821045 94.88700103759766,-9.916000366210938 117.64600372314453,-13.736000061035156 C135.677001953125,-16.76300048828125 148.91400146484375,-20.25200080871582 154.66099548339844,-23.788000106811523 C167.66099548339844,-31.788000106811523 184.99400329589844,-43.54499816894531 184.99400329589844,-43.54499816894531z"></path><path stroke-linecap="round" stroke-linejoin="round" fill-opacity="0" stroke="rgb(233,120,76)" stroke-opacity="0.59" stroke-width="18" d=" M184.99400329589844,-43.54499816894531 C184.99400329589844,-43.54499816894531 174.00999450683594,-27.072999954223633 124.01000213623047,-15.572999954223633 C74.01000213623047,-4.072999954223633 0.8600000143051147,-6.261000156402588 -22.003000259399414,-9.180000305175781 C-45.50299835205078,-12.180000305175781 -84.0009994506836,-26.76300048828125 -84.0009994506836,-26.76300048828125 C-84.0009994506836,-26.76300048828125 -51.694000244140625,-2.117000102996826 31.88599967956543,-5.314000129699707 C64.50399780273438,-6.561999797821045 94.88700103759766,-9.916000366210938 117.64600372314453,-13.736000061035156 C135.677001953125,-16.76300048828125 148.91400146484375,-20.25200080871582 154.66099548339844,-23.788000106811523 C167.66099548339844,-31.788000106811523 184.99400329589844,-43.54499816894531 184.99400329589844,-43.54499816894531z"></path></g></g><g style="display: block;" transform="matrix(0.9199998378753662,0,0,0.9200000166893005,66.77410125732422,132.23980712890625)" opacity="1"><g opacity="1" transform="matrix(1.0000708103179932,-0.00017833622405305505,0.00017833622405305505,1.0000708103179932,75.77349090576172,62.46470642089844)"><path fill="rgb(255,214,187)" fill-opacity="1" d=" M-38.72269821166992,18.058826446533203 C-43.287200927734375,6.022558212280273 -40.40413284301758,-7.723077774047852 -31.238271713256836,-16.562423706054688 C-23.780242919921875,-23.754735946655273 -8.221435546875,-29.317785263061523 1.4350537061691284,-28.867645263671875 C21.685405731201172,-27.920181274414062 36.86991500854492,-17.51101303100586 40.09392547607422,-0.005853437352925539 C43.2714958190918,17.258747100830078 37.17704772949219,25.661985397338867 33.20388412475586,29.331485748291016"></path><path stroke-linecap="round" stroke-linejoin="round" fill-opacity="0" stroke="rgb(183,99,57)" stroke-opacity="1" stroke-width="13" d=" M-38.72269821166992,18.058826446533203 C-43.287200927734375,6.022558212280273 -40.40413284301758,-7.723077774047852 -31.238271713256836,-16.562423706054688 C-23.780242919921875,-23.754735946655273 -8.221435546875,-29.317785263061523 1.4350537061691284,-28.867645263671875 C21.685405731201172,-27.920181274414062 36.86991500854492,-17.51101303100586 40.09392547607422,-0.005853437352925539 C43.2714958190918,17.258747100830078 37.17704772949219,25.661985397338867 33.20388412475586,29.331485748291016"></path></g><g opacity="1" transform="matrix(1,0,0,1,384.7900085449219,57.41299819946289)"><path fill="rgb(250,181,140)" fill-opacity="1" d=" M-37.28294372558594,17.81369400024414 C-37.28294372558594,17.81369400024414 -27.71782112121582,-22.402206420898438 5.414884090423584,-23.807214736938477 C30.79965591430664,-24.889352798461914 37.2729606628418,-9.48802661895752 35.88833236694336,6.4792914390563965 C35.10787582397461,15.482585906982422 34.84751510620117,24.929651260375977 34.84751510620117,24.929651260375977"></path><path stroke-linecap="round" stroke-linejoin="round" fill-opacity="0" stroke="rgb(183,99,57)" stroke-opacity="1" stroke-width="13" d=" M-37.28294372558594,17.81369400024414 C-37.28294372558594,17.81369400024414 -27.71782112121582,-22.402206420898438 5.414884090423584,-23.807214736938477 C30.79965591430664,-24.889352798461914 37.2729606628418,-9.48802661895752 35.88833236694336,6.4792914390563965 C35.10787582397461,15.482585906982422 34.84751510620117,24.929651260375977 34.84751510620117,24.929651260375977"></path></g></g><g style="display: block;" transform="matrix(0.9199998378753662,-0.00003956617001676932,0.0000395661591028329,0.9200000166893005,158.07679748535156,234.67042541503906)" opacity="1"><g opacity="1" transform="matrix(1,0,0,1,197.49000549316406,75.91400146484375)"><path fill="rgb(226,142,116)" fill-opacity="1" d=" M-38.029998779296875,-21.250999450683594 C-38.029998779296875,-21.250999450683594 -45.198001861572266,-12.527999877929688 -47.013999938964844,-0.1770000010728836 C-48.83000183105469,12.17300033569336 -41.257999420166016,13.059000015258789 -36.17300033569336,13.059000015258789 C-31.086999893188477,13.059000015258789 -32.4370002746582,11.430999755859375 -28.125,7.451000213623047 C-25.763999938964844,5.270999908447266 -22.125999450683594,4.36299991607666 -19.225000381469727,4.182000160217285 C-13.413000106811523,3.818000078201294 -9.781000137329102,4.72599983215332 -4.876999855041504,9.267000198364258 C2.2950000762939453,15.907999992370605 9.289999961853027,10.720000267028809 10.015999794006348,7.0879998207092285 C10.743000030517578,3.4549999237060547 11.105999946594238,-1.812000036239624 12.559000015258789,-4.355000019073486 C14.01200008392334,-6.8979997634887695 3.86299991607666,-8.416999816894531 10.765000343322754,-8.781000137329102 C17.66699981689453,-9.144000053405762 9.640999794006348,-8.557000160217285 12.090999603271484,-11.45199966430664 C16.086999893188477,-16.173999786376953 18.944000244140625,-16.16900062561035 11.769000053405762,-22.447999954223633 C5.956999778747559,-27.534000396728516 -0.593999981880188,-24.263999938964844 -0.593999981880188,-24.263999938964844 C-0.593999981880188,-24.263999938964844 -24.868000030517578,-21.038000106811523 -24.868000030517578,-21.038000106811523 C-24.868000030517578,-21.038000106811523 -38.029998779296875,-21.250999450683594 -38.029998779296875,-21.250999450683594z"></path></g><g opacity="1" transform="matrix(1,0,0,1,69.85199737548828,70.86799621582031)"><path fill="rgb(226,142,116)" fill-opacity="1" d=" M-1.6349999904632568,-24.06599998474121 C-3.0880000591278076,-24.06599998474121 -31.058000564575195,-26.06399917602539 -42.319000244140625,-21.704999923706055 C-53.58000183105469,-17.34600067138672 -54.305999755859375,-9.17300033569336 -48.67599868774414,-6.267000198364258 C-43.04600143432617,-3.3610000610351562 -25.065000534057617,-5.357999801635742 -18.525999069213867,1.5440000295639038 C-11.98799991607666,8.446000099182129 -7.809999942779541,19.886999130249023 -3.0880000591278076,22.975000381469727 C1.6339999437332153,26.062999725341797 8.89900016784668,25.881999969482422 11.62399959564209,22.249000549316406 C14.347999572753906,18.617000579833984 15.074999809265137,17.34600067138672 17.43600082397461,17.527000427246094 C19.797000885009766,17.708999633789062 21.430999755859375,21.34000015258789 27.60700035095215,21.70400047302246 C33.78200149536133,22.066999435424805 35.650001525878906,20.62700080871582 38.68600082397461,18.43400001525879 C41.95500183105469,16.072999954223633 46.64699935913086,14.25100040435791 48.856998443603516,12.260000228881836 C50.625999450683594,10.666999816894531 54.305999755859375,4.448999881744385 54.305999755859375,4.448999881744385 C54.305999755859375,4.448999881744385 28.695999145507812,-13.350000381469727 28.695999145507812,-13.350000381469727 C28.695999145507812,-13.350000381469727 -1.6349999904632568,-24.06599998474121 -1.6349999904632568,-24.06599998474121z"></path></g><g opacity="1" transform="matrix(1,0,0,1,45.303001403808594,54.88600158691406)"><path stroke-linecap="round" stroke-linejoin="round" fill-opacity="0" stroke="rgb(183,99,57)" stroke-opacity="1" stroke-width="12" d=" M-15.303000450134277,1.9800000190734863 C-15.303000450134277,1.9800000190734863 -2.502000093460083,-1.9800000190734863 6.328999996185303,-1.3309999704360962 C12.772000312805176,-0.8579999804496765 15.303000450134277,-0.8579999804496765 15.303000450134277,-0.8579999804496765"></path></g><g opacity="1" transform="matrix(1,0,0,1,72.22799682617188,78.875)"><path stroke-linecap="round" stroke-linejoin="round" fill-opacity="0" stroke="rgb(183,99,57)" stroke-opacity="1" stroke-width="12" d=" M-0.23899999260902405,-8.479000091552734 C-0.23899999260902405,-8.479000091552734 -0.7170000076293945,-1.059000015258789 -0.23899999260902405,2.119999885559082 C-0.23899999260902405,2.119999885559082 0.7170000076293945,8.479000091552734 0.7170000076293945,8.479000091552734"></path></g><g opacity="1" transform="matrix(1,0,0,1,97.08100128173828,76.2249984741211)"><path stroke-linecap="round" stroke-linejoin="round" fill-opacity="0" stroke="rgb(183,99,57)" stroke-opacity="1" stroke-width="12" d=" M-2.628000020980835,-4.769000053405762 C-2.628000020980835,-4.769000053405762 -0.23899999260902405,-1.590000033378601 1.1950000524520874,1.590000033378601 C1.1950000524520874,1.590000033378601 2.628000020980835,4.769000053405762 2.628000020980835,4.769000053405762"></path></g><g opacity="1" transform="matrix(1,0,0,1,164.11300659179688,79.40499877929688)"><path stroke-linecap="round" stroke-linejoin="round" fill-opacity="0" stroke="rgb(183,99,57)" stroke-opacity="1" stroke-width="12" d=" M2.2709999084472656,-6.888999938964844 C2.2709999084472656,-6.888999938964844 -0.8370000123977661,-3.180000066757202 -1.315000057220459,0 C-1.7929999828338623,3.178999900817871 -2.2709999084472656,6.888999938964844 -2.2709999084472656,6.888999938964844"></path></g><g opacity="1" transform="matrix(1,0,0,1,196.49400329589844,78.61000061035156)"><path stroke-linecap="round" stroke-linejoin="round" fill-opacity="0" stroke="rgb(183,99,57)" stroke-opacity="1" stroke-width="12" d=" M-3.1059999465942383,-6.093999862670898 C-3.1059999465942383,-6.093999862670898 -1.6729999780654907,-1.8550000190734863 0.23899999260902405,0.7950000166893005 C2.1500000953674316,3.444000005722046 3.1059999465942383,6.093999862670898 3.1059999465942383,6.093999862670898"></path></g><g opacity="1" transform="matrix(1,0,0,1,219.55499267578125,62.845001220703125)"><path stroke-linecap="round" stroke-linejoin="round" fill-opacity="0" stroke="rgb(183,99,57)" stroke-opacity="1" stroke-width="12" d=" M-11.112000465393066,1.4579999446868896 C-11.112000465393066,1.4579999446868896 0.11999999731779099,-1.4579999446868896 3.4649999141693115,-0.9279999732971191 C6.810999870300293,-0.39800000190734863 11.112000465393066,0.6629999876022339 11.112000465393066,0.6629999876022339"></path></g><g opacity="1" transform="matrix(1,0,0,1,88.10299682617188,54.7760009765625)"><path fill="rgb(255,255,255)" fill-opacity="1" d=" M-25.88599967956543,-20.858999252319336 C-25.88599967956543,-20.858999252319336 -30.027999877929688,4.218999862670898 -30.027999877929688,4.218999862670898 C-30.027999877929688,4.218999862670898 -32.564998626708984,12.795000076293945 -26.909000396728516,13.91100025177002 C-21.253000259399414,15.027000427246094 22.773000717163086,19.8799991607666 22.773000717163086,19.8799991607666 C22.773000717163086,19.8799991607666 29.94499969482422,20.858999252319336 30.263999938964844,14.630000114440918 C30.583999633789062,8.401000022888184 32.564998626708984,-14.234000205993652 32.564998626708984,-14.234000205993652 C32.564998626708984,-14.234000205993652 -25.88599967956543,-20.858999252319336 -25.88599967956543,-20.858999252319336z"></path><path stroke-linecap="butt" stroke-linejoin="miter" fill-opacity="0" stroke-miterlimit="10" stroke="rgb(95,131,183)" stroke-opacity="1" stroke-width="13.567" d=" M-25.88599967956543,-20.858999252319336 C-25.88599967956543,-20.858999252319336 -30.027999877929688,4.218999862670898 -30.027999877929688,4.218999862670898 C-30.027999877929688,4.218999862670898 -32.564998626708984,12.795000076293945 -26.909000396728516,13.91100025177002 C-21.253000259399414,15.027000427246094 22.773000717163086,19.8799991607666 22.773000717163086,19.8799991607666 C22.773000717163086,19.8799991607666 29.94499969482422,20.858999252319336 30.263999938964844,14.630000114440918 C30.583999633789062,8.401000022888184 32.564998626708984,-14.234000205993652 32.564998626708984,-14.234000205993652 C32.564998626708984,-14.234000205993652 -25.88599967956543,-20.858999252319336 -25.88599967956543,-20.858999252319336z"></path></g><g opacity="1" transform="matrix(1,0,0,1,180.322998046875,56.27299880981445)"><path fill="rgb(255,255,255)" fill-opacity="1" d=" M-29.31599998474121,-13.314000129699707 C-29.31599998474121,-13.314000129699707 -27.551000595092773,11.406000137329102 -27.551000595092773,11.406000137329102 C-27.551000595092773,11.406000137329102 -27.857999801635742,18.16699981689453 -18.900999069213867,18.76799964904785 C-9.944999694824219,19.368999481201172 21.783000946044922,14.972999572753906 21.783000946044922,14.972999572753906 C21.783000946044922,14.972999572753906 29.31599998474121,13.380000114440918 28.892000198364258,8.46399974822998 C28.468000411987305,3.5490000247955322 25.202999114990234,-19.368000030517578 25.202999114990234,-19.368000030517578 C25.202999114990234,-19.368000030517578 -29.31599998474121,-13.314000129699707 -29.31599998474121,-13.314000129699707z"></path><path stroke-linecap="round" stroke-linejoin="round" fill-opacity="0" stroke="rgb(95,131,183)" stroke-opacity="1" stroke-width="12.571" d=" M-29.31599998474121,-13.314000129699707 C-29.31599998474121,-13.314000129699707 -27.551000595092773,11.406000137329102 -27.551000595092773,11.406000137329102 C-27.551000595092773,11.406000137329102 -27.857999801635742,18.16699981689453 -18.900999069213867,18.76799964904785 C-9.944999694824219,19.368999481201172 21.783000946044922,14.972999572753906 21.783000946044922,14.972999572753906 C21.783000946044922,14.972999572753906 29.31599998474121,13.380000114440918 28.892000198364258,8.46399974822998 C28.468000411987305,3.5490000247955322 25.202999114990234,-19.368000030517578 25.202999114990234,-19.368000030517578 C25.202999114990234,-19.368000030517578 -29.31599998474121,-13.314000129699707 -29.31599998474121,-13.314000129699707z"></path></g></g><g style="display: block;" transform="matrix(0.9199998378753662,0,0,0.9200000166893005,84.10690307617188,157.19113159179688)" opacity="1"><g opacity="1" transform="matrix(0.9999999403953552,0,0,1,0.0000152587890625,0.0000152587890625)"><g opacity="1" transform="matrix(1,0,0,1,216.48500061035156,86.43299865722656)"><path fill="rgb(226,142,116)" fill-opacity="1" d=" M-164.30801391601562,-33.35901641845703 C-164.30801391601562,-33.35901641845703 -154.67901611328125,-10.546015739440918 -115.29200744628906,4.257984638214111 C-51.08700942993164,28.389984130859375 50.39699935913086,22.71198272705078 86.98600006103516,17.03398323059082 C123.57599639892578,11.355982780456543 141.5260009765625,-4.259016990661621 143.5970001220703,-14.195016860961914 C145.66799926757812,-24.132017135620117 149.1199951171875,-35.48801803588867 149.1199951171875,-35.48801803588867 C149.1199951171875,-35.48801803588867 164.9980010986328,-5.6780171394348145 131.1699981689453,10.64598274230957 C113.84700012207031,19.005983352661133 81.677001953125,25.317983627319336 44.30399703979492,28.62998390197754 C8.696998596191406,31.784982681274414 -31.632001876831055,32.216983795166016 -68.34700012207031,29.09998321533203 C-143.5970001220703,22.71198272705078 -164.9980010986328,-16.325016021728516 -164.9980010986328,-16.325016021728516 C-164.9980010986328,-16.325016021728516 -164.30801391601562,-33.35901641845703 -164.30801391601562,-33.35901641845703z"></path></g><g opacity="1" transform="matrix(1,0,0,1,203.5800018310547,85.07499694824219)"><path stroke-linecap="round" stroke-linejoin="round" fill-opacity="0" stroke="rgb(183,99,57)" stroke-opacity="1" stroke-width="11" d=" M-155.74900817871094,-38.389007568359375 C-155.74900817871094,-38.389007568359375 -169.4669952392578,-8.578999519348145 -122.53799438476562,13.422993659973145 C-75.60798645019531,35.425987243652344 0.9230077266693115,43.23298645019531 76.00900268554688,34.71598815917969 C151.09596252441406,26.198991775512695 160.6399688720703,5.221009731292725 165.7109832763672,-15.443985939025879 C169.4669952392578,-30.753982543945312 164.8929901123047,-43.23297119140625 164.8929901123047,-43.23297119140625"></path></g><g opacity="1" transform="matrix(1,0,0,1,50.237998962402344,41.00899887084961)"><path stroke-linecap="round" stroke-linejoin="round" fill-opacity="0" stroke="rgb(183,99,57)" stroke-opacity="1" stroke-width="13.437" d=" M-16.645999908447266,-0.4740000069141388 C-16.645999908447266,-0.4740000069141388 -7.491000175476074,-4.258999824523926 2.496999979019165,-1.8930000066757202 C12.484000205993652,0.47200000286102295 16.645999908447266,4.257999897003174 16.645999908447266,4.257999897003174"></path></g><g opacity="1" transform="matrix(1,0,0,1,367.2149963378906,37.93199920654297)"><path stroke-linecap="round" stroke-linejoin="round" fill-opacity="0" stroke="rgb(183,99,57)" stroke-opacity="1" stroke-width="14.132" d=" M-13.33633041381836,2.6186537742614746 C-13.33633041381836,2.6186537742614746 -7.82039737701416,0.25403672456741333 0.4565078616142273,-1.1639903783798218 C8.736150741577148,-2.583618640899658 13.330376625061035,-0.21929199993610382 13.330376625061035,-0.21929199993610382"></path></g></g></g><g style="display: block;" transform="matrix(0.9199998378753662,0,0,0.9200000166893005,146.0369415283203,277.8381652832031)" opacity="1"><g opacity="1" transform="matrix(1,0,0,1,137.14100646972656,69.22200012207031)"><path fill="rgb(226,142,116)" fill-opacity="1" d=" M-112.88931274414062,-30.849821090698242 C-112.88931274414062,-30.849821090698242 -105.99302673339844,3.189666509628296 -95.63272857666016,20.93279266357422 C-85.27304077148438,38.67411422729492 -76.98405456542969,40.802223205566406 -61.79631042480469,40.79928207397461 C-46.61429214477539,40.79734420776367 -3.849088668823242,14.55457592010498 7.894599914550781,10.289115905761719 C19.620342254638672,6.034246921539307 29.29725456237793,8.157394409179688 39.65224838256836,17.381071090698242 C50.00860595703125,26.606311798095703 59.66372299194336,37.24958038330078 74.85172271728516,30.86157989501953 C90.04072570800781,24.47357940673828 113.50900268554688,-18.10178565979004 113.50900268554688,-18.10178565979004 C113.50900268554688,-18.10178565979004 87.99024200439453,8.151891708374023 64.51824188232422,6.731891632080078 C41.04524612426758,5.312891483306885 38.284244537353516,-8.173108100891113 18.26324462890625,-7.463108539581299 C-1.7577548027038574,-6.753108501434326 -27.290176391601562,14.538253784179688 -43.1691780090332,19.506254196166992 C-59.047176361083984,24.474252700805664 -85.04034423828125,18.3678035736084 -86.65293884277344,8.8580961227417 C-94.9405746459961,-40.08342361450195 -113.4818344116211,-40.79398727416992 -112.88931274414062,-30.849821090698242z"></path></g><g opacity="1" transform="matrix(1,0,0,1,136.9320068359375,62.70500183105469)"><path stroke-linecap="round" stroke-linejoin="round" fill-opacity="0" stroke="rgb(183,99,57)" stroke-opacity="1" stroke-width="13" d=" M120.2942886352539,-20.35636329650879 C120.2942886352539,-20.35636329650879 87.70066833496094,16.940317153930664 65.24333953857422,15.88060474395752 C42.78034210205078,14.820556640625 38.00799560546875,-0.538966715335846 19.36799430847168,-1.5989667177200317 C0.7279952168464661,-2.6589667797088623 -37.478538513183594,28.06294822692871 -58.02734375,29.126876831054688 C-78.57837677001953,30.191293716430664 -85.3584213256836,12.471152305603027 -92.27886962890625,2.152871608734131 C-101.47930908203125,-11.56298828125 -116.02236938476562,-30.171125411987305 -116.02236938476562,-30.171125411987305"></path></g></g><g style="display: block;" transform="matrix(0.9380863308906555,0.001063941395841539,-0.0010511070722714067,0.9267706274986267,277.0520324707031,277.602783203125)" opacity="1"><g opacity="1" transform="matrix(1.0358775854110718,-0.027362260967493057,0.025089841336011887,0.9498485922813416,8.063270568847656,-6.0016021728515625)"><path fill="rgb(85,31,14)" fill-opacity="1" d=" M-84.56258392333984,-224.1152801513672 C-101.82158660888672,-223.95828247070312 -111.74073791503906,-221.81161499023438 -125.71473693847656,-212.63661193847656 C-132.68173217773438,-208.06260681152344 -135.7830047607422,-202.3280029296875 -136.73800659179688,-200.8000030517578 C-139.23800659179688,-196.8000030517578 -139.19650268554688,-188.56256103515625 -127.70020294189453,-192.56143188476562 C-124.35623168945312,-193.72450256347656 -123.9360580444336,-195.87109375 -116.10505676269531,-199.8881072998047 C-108.83305358886719,-203.61810302734375 -103.82157135009766,-206.40286254882812 -86.99657440185547,-207.0858612060547 C-73.77757263183594,-207.6218719482422 -63.46129608154297,-205.1845245361328 -54.2277946472168,-201.31057739257812 C-42.450836181640625,-196.3689727783203 -40.491695404052734,-197.5888214111328 -38.17475128173828,-199.6494598388672 C-35.5195426940918,-202.01007080078125 -34.875328063964844,-207.21047973632812 -48.888328552246094,-215.94847106933594 C-58.623329162597656,-222.0184783935547 -73.08458709716797,-223.70529174804688 -84.56258392333984,-224.1152801513672z"></path><path stroke-linecap="butt" stroke-linejoin="miter" fill-opacity="0" stroke-miterlimit="4" stroke="rgb(76,32,15)" stroke-opacity="1" stroke-width="5" d=" M-84.56258392333984,-224.1152801513672 C-101.82158660888672,-223.95828247070312 -111.74073791503906,-221.81161499023438 -125.71473693847656,-212.63661193847656 C-132.68173217773438,-208.06260681152344 -135.7830047607422,-202.3280029296875 -136.73800659179688,-200.8000030517578 C-139.23800659179688,-196.8000030517578 -139.19650268554688,-188.56256103515625 -127.70020294189453,-192.56143188476562 C-124.35623168945312,-193.72450256347656 -123.9360580444336,-195.87109375 -116.10505676269531,-199.8881072998047 C-108.83305358886719,-203.61810302734375 -103.82157135009766,-206.40286254882812 -86.99657440185547,-207.0858612060547 C-73.77757263183594,-207.6218719482422 -63.46129608154297,-205.1845245361328 -54.2277946472168,-201.31057739257812 C-42.450836181640625,-196.3689727783203 -40.491695404052734,-197.5888214111328 -38.17475128173828,-199.6494598388672 C-35.5195426940918,-202.01007080078125 -34.875328063964844,-207.21047973632812 -48.888328552246094,-215.94847106933594 C-58.623329162597656,-222.0184783935547 -73.08458709716797,-223.70529174804688 -84.56258392333984,-224.1152801513672z"></path></g></g><g style="display: block;" transform="matrix(-0.8829777240753174,0.1198543831706047,0.12467051297426224,0.9184589982032776,288.03912353515625,284.2234191894531)" opacity="1"><g opacity="1" transform="matrix(1.035597801208496,-0.027275942265987396,0.025011971592903137,0.949640691280365,8.035125732421875,-6.0217437744140625)"><path fill="rgb(85,31,14)" fill-opacity="1" d=" M-84.56548309326172,-224.11163330078125 C-101.82368469238281,-223.95448303222656 -111.7425537109375,-221.80917358398438 -125.71492004394531,-212.63473510742188 C-132.68174743652344,-208.0605010986328 -135.78245544433594,-202.32774353027344 -136.73745727539062,-200.79974365234375 C-139.23745727539062,-196.79974365234375 -139.19775390625,-188.56240844726562 -127.70024871826172,-192.56207275390625 C-124.35637664794922,-193.72532653808594 -123.93630981445312,-195.8708953857422 -116.1055679321289,-199.8878936767578 C-108.8336181640625,-203.61798095703125 -103.82396697998047,-206.401123046875 -86.99896240234375,-207.08412170410156 C-73.77996826171875,-207.6201171875 -63.46274948120117,-205.1849365234375 -54.2287483215332,-201.3119354248047 C-42.45174789428711,-196.37193298339844 -40.49152374267578,-197.5956268310547 -38.17752456665039,-199.6526336669922 C-35.52252197265625,-202.01263427734375 -34.87796401977539,-207.2105712890625 -48.889583587646484,-215.947265625 C-58.6249885559082,-222.01705932617188 -73.08747863769531,-223.70162963867188 -84.56548309326172,-224.11163330078125z"></path><path stroke-linecap="butt" stroke-linejoin="miter" fill-opacity="0" stroke-miterlimit="4" stroke="rgb(75,34,18)" stroke-opacity="1" stroke-width="5" d=" M-84.56548309326172,-224.11163330078125 C-101.82368469238281,-223.95448303222656 -111.7425537109375,-221.80917358398438 -125.71492004394531,-212.63473510742188 C-132.68174743652344,-208.0605010986328 -135.78245544433594,-202.32774353027344 -136.73745727539062,-200.79974365234375 C-139.23745727539062,-196.79974365234375 -139.19775390625,-188.56240844726562 -127.70024871826172,-192.56207275390625 C-124.35637664794922,-193.72532653808594 -123.93630981445312,-195.8708953857422 -116.1055679321289,-199.8878936767578 C-108.8336181640625,-203.61798095703125 -103.82396697998047,-206.401123046875 -86.99896240234375,-207.08412170410156 C-73.77996826171875,-207.6201171875 -63.46274948120117,-205.1849365234375 -54.2287483215332,-201.3119354248047 C-42.45174789428711,-196.37193298339844 -40.49152374267578,-197.5956268310547 -38.17752456665039,-199.6526336669922 C-35.52252197265625,-202.01263427734375 -34.87796401977539,-207.2105712890625 -48.889583587646484,-215.947265625 C-58.6249885559082,-222.01705932617188 -73.08747863769531,-223.70162963867188 -84.56548309326172,-224.11163330078125z"></path></g></g></g></svg>