<svg xmlns="http://www.w3.org/2000/svg" xmlns:xlink="http://www.w3.org/1999/xlink" viewBox="0 0 512 512" width="512" height="512" style="width: 100%; height: 100%; transform: translate3d(0,0,0); content-visibility: visible;" preserveAspectRatio="xMidYMid meet"><defs><clipPath id="__lottie_element_2"><rect width="512" height="512" x="0" y="0"></rect></clipPath><radialGradient id="__lottie_element_7" spreadMethod="pad" gradientUnits="userSpaceOnUse" cx="134.968994140625" cy="-183.58299255371094" r="460.5084344275691" fx="134.968994140625" fy="-183.58299255371094"><stop offset="0%" stop-color="rgb(249,188,151)"></stop><stop offset="51%" stop-color="rgb(247,167,127)"></stop><stop offset="100%" stop-color="rgb(245,146,103)"></stop></radialGradient><radialGradient id="__lottie_element_8" spreadMethod="pad" gradientUnits="userSpaceOnUse" cx="83.68399810791016" cy="-107.8550033569336" r="365.2090365619924" fx="83.68399810791016" fy="-107.8550033569336"><stop offset="0%" stop-color="rgb(249,223,201)"></stop><stop offset="51%" stop-color="rgb(249,202,171)"></stop><stop offset="100%" stop-color="rgb(250,181,140)"></stop></radialGradient></defs><g clip-path="url(#__lottie_element_2)"><g style="display: block;" transform="matrix(1,0,0,1,10.688003540039062,1.662994384765625)" opacity="1"><g opacity="1" transform="matrix(1,0,0,1,248.1020050048828,255.79800415039062)"><path fill="url(#__lottie_element_7)" fill-opacity="1" d=" M-91.83100128173828,202.99200439453125 C-125.91000366210938,187.2570037841797 -177.66099548339844,155.78700256347656 -196.593994140625,68.12200164794922 C-215.52699279785156,-19.54400062561035 -197.56700134277344,-60.316001892089844 -188.3209991455078,-70.98500061035156 C-184.3780059814453,-75.53399658203125 -179.10699462890625,-78.62100219726562 -172.55099487304688,-79.1719970703125 C-169.927001953125,-79.39199829101562 -168.27000427246094,-80.10600280761719 -167.0919952392578,-82.20500183105469 C-161.79100036621094,-91.65399932861328 -156.781005859375,-128.60400390625 -123.4219970703125,-164.9949951171875 C-97.33999633789062,-193.44900512695312 -64.7979965209961,-202.91600036621094 -25.165000915527344,-213.21400451660156 C13.350000381469727,-223.2220001220703 47.24100112915039,-221.83299255371094 74.91200256347656,-208.968994140625 C109.48400115966797,-192.89599609375 138.61399841308594,-163.0540008544922 153.76100158691406,-127.08799743652344 C157.3769989013672,-118.5009994506836 159.71499633789062,-109.65299987792969 161.07200622558594,-103.53500366210938 C161.281005859375,-102.59100341796875 161.81900024414062,-101.947998046875 162.572998046875,-101.50700378417969 C164.7760009765625,-100.21900177001953 168.8280029296875,-100.66100311279297 171.95599365234375,-100.4000015258789 C179.23500061035156,-99.79399871826172 185.3000030517578,-96.15599822998047 190.15199279785156,-89.48400115966797 C204.25900268554688,-70.08699798583984 215.52699279785156,55.29499816894531 171.35000610351562,129.4739990234375 C127.1729965209961,203.65199279785156 62.15700149536133,214.22999572753906 25.554000854492188,218.7259979248047 C-11.050000190734863,223.2220001220703 -67.46600341796875,214.24200439453125 -91.83100128173828,202.99200439453125z"></path><path stroke-linecap="butt" stroke-linejoin="miter" fill-opacity="0" stroke-miterlimit="10" stroke="rgb(183,99,57)" stroke-opacity="1" stroke-width="13.03" d=" M-91.83100128173828,202.99200439453125 C-125.91000366210938,187.2570037841797 -177.66099548339844,155.78700256347656 -196.593994140625,68.12200164794922 C-215.52699279785156,-19.54400062561035 -197.56700134277344,-60.316001892089844 -188.3209991455078,-70.98500061035156 C-184.3780059814453,-75.53399658203125 -179.10699462890625,-78.62100219726562 -172.55099487304688,-79.1719970703125 C-169.927001953125,-79.39199829101562 -168.27000427246094,-80.10600280761719 -167.0919952392578,-82.20500183105469 C-161.79100036621094,-91.65399932861328 -156.781005859375,-128.60400390625 -123.4219970703125,-164.9949951171875 C-97.33999633789062,-193.44900512695312 -64.7979965209961,-202.91600036621094 -25.165000915527344,-213.21400451660156 C13.350000381469727,-223.2220001220703 47.24100112915039,-221.83299255371094 74.91200256347656,-208.968994140625 C109.48400115966797,-192.89599609375 138.61399841308594,-163.0540008544922 153.76100158691406,-127.08799743652344 C157.3769989013672,-118.5009994506836 159.71499633789062,-109.65299987792969 161.07200622558594,-103.53500366210938 C161.281005859375,-102.59100341796875 161.81900024414062,-101.947998046875 162.572998046875,-101.50700378417969 C164.7760009765625,-100.21900177001953 168.8280029296875,-100.66100311279297 171.95599365234375,-100.4000015258789 C179.23500061035156,-99.79399871826172 185.3000030517578,-96.15599822998047 190.15199279785156,-89.48400115966797 C204.25900268554688,-70.08699798583984 215.52699279785156,55.29499816894531 171.35000610351562,129.4739990234375 C127.1729965209961,203.65199279785156 62.15700149536133,214.22999572753906 25.554000854492188,218.7259979248047 C-11.050000190734863,223.2220001220703 -67.46600341796875,214.24200439453125 -91.83100128173828,202.99200439453125z"></path></g><g opacity="1" transform="matrix(1,0,0,1,245.31399536132812,252.94000244140625)"><path fill="url(#__lottie_element_8)" fill-opacity="1" d=" M-83.48600006103516,181.3300018310547 C-114.11599731445312,167.32899475097656 -166.09100341796875,140.58399963378906 -183.10699462890625,62.58000183105469 C-200.12399291992188,-15.423999786376953 -187.39999389648438,-49.26499938964844 -180.67999267578125,-59.9379997253418 C-170.36900329589844,-76.31400299072266 -155.63900756835938,-68.5459976196289 -149.7469940185547,-69.03600311279297 C-147.38900756835938,-69.23200225830078 -139.48500061035156,-79.90499877929688 -138.42599487304688,-81.77300262451172 C-133.66200256347656,-90.18000030517578 -112.2770004272461,-134.82400512695312 -100.41699981689453,-149.3000030517578 C-85.66999816894531,-167.30099487304688 -52.612998962402344,-182.92599487304688 -16.31100082397461,-188.92599487304688 C19.990999221801758,-194.927001953125 53.125,-199.33099365234375 69.00700378417969,-189.33099365234375 C84.88899993896484,-179.3300018310547 110.18299865722656,-151.98599243164062 123.7959976196289,-119.98400115966797 C127.0469970703125,-112.34300231933594 138.9530029296875,-91.76599884033203 140.17300415039062,-86.3219985961914 C140.91000366210938,-83.02999877929688 142.82899475097656,-81.93699645996094 146.5399932861328,-82.68299865722656 C152.4239959716797,-83.86599731445312 173.07699584960938,-83.66899871826172 181.11300659179688,-75.40499877929688 C196.06199645996094,-60.029998779296875 200.12399291992188,48.32400131225586 160.41799926757812,114.3270034790039 C120.71299743652344,180.3300018310547 53.91600036621094,195.3300018310547 21.017000198364258,199.33099365234375 C-11.881999969482422,203.33099365234375 -61.58700180053711,191.33999633789062 -83.48600006103516,181.3300018310547z"></path></g></g><g style="display: block;" transform="matrix(1.0142360925674438,0.03322036936879158,-0.03322036936879158,1.0142360925674438,111.85311126708984,14.925285339355469)" opacity="1"><g opacity="1" transform="matrix(1,0,0,1,0,0)"><g opacity="1" transform="matrix(1,0,0,1,223.02000427246094,83.08999633789062)"><path fill="rgb(244,128,88)" fill-opacity="0.68" d=" M-64.77899932861328,-1.61899995803833 C-64.77899932861328,-1.61899995803833 -42.374000549316406,-34.34000015258789 -26.000999450683594,-42.361000061035156 C-9.628000259399414,-50.382999420166016 2.00600004196167,-34.34000015258789 15.793999671936035,-17.45199966430664 C29.582000732421875,-0.5640000104904175 50.45800018310547,11.524999618530273 56.4900016784668,18.70199966430664 C59.9370002746582,22.80299949645996 66.97699737548828,27.761999130249023 66.28600311279297,32.15700149536133 C65.76499938964844,35.4739990234375 63.97700119018555,37.89099884033203 60.58700180053711,39.12300109863281 C55.94200134277344,40.8120002746582 51.117000579833984,37.19200134277344 49.1870002746582,36.167999267578125 C44.016998291015625,33.42399978637695 2.00600004196167,-2.252000093460083 -8.335000038146973,-8.585000038146973 C-18.676000595092773,-14.918000221252441 -24.83799934387207,-10.961000442504883 -35.60900115966797,-2.0940001010894775 C-46.38100051879883,6.771999835968018 -55.2130012512207,12.383000373840332 -61.97800064086914,10.836000442504883 C-68.44100189208984,9.357999801635742 -66.0719985961914,1.125 -66.0719985961914,1.125 C-66.0719985961914,1.125 -64.77899932861328,-1.61899995803833 -64.77899932861328,-1.61899995803833z"></path></g><g opacity="1" transform="matrix(1,0,0,1,220.93800354003906,69.56099700927734)"><path fill="rgb(84,55,43)" fill-opacity="1" d=" M-58.255001068115234,6.8979997634887695 C-58.255001068115234,6.8979997634887695 -36.15599822998047,-21.391000747680664 -20.11199951171875,-29.41200065612793 C-4.067999839782715,-37.433998107910156 5.21999979019165,-20.44099998474121 18.731000900268555,-3.552999973297119 C32.24100112915039,13.335000038146973 41.974998474121094,21.003999710083008 47.88600158691406,28.18199920654297 C51.26300048828125,32.28300094604492 57.52299880981445,38.95899963378906 60.74300003051758,41.957000732421875 C63.12900161743164,44.178001403808594 64.31999969482422,46.7760009765625 61.06100082397461,46.707000732421875 C59.624000549316406,46.67599868774414 58.527000427246094,46.07400131225586 55.36000061035156,43.856998443603516 C50.63999938964844,40.553001403808594 8.496000289916992,1.1089999675750732 -1.6369999647140503,-5.223999977111816 C-11.770000457763672,-11.557000160217285 -23.69700050354004,-10.923999786376953 -34.25199890136719,-2.056999921798706 C-44.80699920654297,6.809000015258789 -54.516998291015625,17.892000198364258 -58.31700134277344,16.308000564575195 C-64.31999969482422,13.807000160217285 -60.474998474121094,10.659000396728516 -60.474998474121094,10.659000396728516 C-60.474998474121094,10.659000396728516 -58.255001068115234,6.8979997634887695 -58.255001068115234,6.8979997634887695z"></path><path stroke-linecap="round" stroke-linejoin="round" fill-opacity="0" stroke="rgb(73,44,23)" stroke-opacity="1" stroke-width="9.508" d=" M-58.255001068115234,6.8979997634887695 C-58.255001068115234,6.8979997634887695 -36.15599822998047,-21.391000747680664 -20.11199951171875,-29.41200065612793 C-4.067999839782715,-37.433998107910156 5.21999979019165,-20.44099998474121 18.731000900268555,-3.552999973297119 C32.24100112915039,13.335000038146973 41.974998474121094,21.003999710083008 47.88600158691406,28.18199920654297 C51.26300048828125,32.28300094604492 57.52299880981445,38.95899963378906 60.74300003051758,41.957000732421875 C63.12900161743164,44.178001403808594 64.31999969482422,46.7760009765625 61.06100082397461,46.707000732421875 C59.624000549316406,46.67599868774414 58.527000427246094,46.07400131225586 55.36000061035156,43.856998443603516 C50.63999938964844,40.553001403808594 8.496000289916992,1.1089999675750732 -1.6369999647140503,-5.223999977111816 C-11.770000457763672,-11.557000160217285 -23.69700050354004,-10.923999786376953 -34.25199890136719,-2.056999921798706 C-44.80699920654297,6.809000015258789 -54.516998291015625,17.892000198364258 -58.31700134277344,16.308000564575195 C-64.31999969482422,13.807000160217285 -60.474998474121094,10.659000396728516 -60.474998474121094,10.659000396728516 C-60.474998474121094,10.659000396728516 -58.255001068115234,6.8979997634887695 -58.255001068115234,6.8979997634887695z"></path></g></g><g opacity="1" transform="matrix(1,0,0,1,0,0)"><g opacity="1" transform="matrix(1,0,0,1,78.85700225830078,83.83200073242188)"><path fill="rgb(244,128,88)" fill-opacity="0.73" d=" M-54.07099914550781,28.32699966430664 C-54.07099914550781,28.32699966430664 -29.687999725341797,5.886000156402588 -18.15999984741211,-11.097000122070312 C-6.632999897003174,-28.079999923706055 7.593999862670898,-36.3849983215332 19.11199951171875,-29.69700050354004 C30.2549991607666,-23.22800064086914 56.92300033569336,8.109000205993652 53.89099884033203,17.40999984741211 C52.6150016784668,21.322999954223633 45.96699905395508,19.091999053955078 42.125999450683594,16.261999130249023 C40.24100112915039,14.873000144958496 27.447999954223633,-2.0999999046325684 20.531999588012695,-9.378999710083008 C13.614999771118164,-16.656999588012695 9.17199993133545,-14.635000228881836 0.718999981880188,-10.187000274658203 C-7.735000133514404,-5.739999771118164 -16.68600082397461,12.861000061035156 -24.756000518798828,20.542999267578125 C-34.95800018310547,30.256999969482422 -46.40700149536133,32.67399978637695 -50.63399887084961,31.864999771118164 C-54.861000061035156,31.055999755859375 -54.07099914550781,28.32699966430664 -54.07099914550781,28.32699966430664z"></path></g><g opacity="1" transform="matrix(1,0,0,1,76.23999786376953,78.74299621582031)"><path fill="rgb(84,55,43)" fill-opacity="1" d=" M-50.64500045776367,28.15999984741211 C-50.64500045776367,28.15999984741211 -28.000999450683594,3.0910000801086426 -15.871000289916992,-13.892000198364258 C-3.740000009536743,-30.874000549316406 10.62399959564209,-34.630001068115234 22.7450008392334,-27.94300079345703 C34.47100067138672,-21.472999572753906 49.63399887084961,8.751999855041504 50.44300079345703,12.795999526977539 C51.25199890136719,16.839000701904297 53.474998474121094,19.163999557495117 51.04899978637695,19.569000244140625 C48.62300109863281,19.972999572753906 38.11000061035156,-6.714000225067139 28.809999465942383,-15.206000328063965 C21.208999633789062,-22.145999908447266 12.029000282287598,-21.17099952697754 3.134000062942505,-16.722999572753906 C-5.76200008392334,-12.274999618530273 -19.711999893188477,11.07699966430664 -28.20400047302246,18.760000228881836 C-38.93899917602539,28.472999572753906 -44.58000183105469,34.63100051879883 -49.02799987792969,33.821998596191406 C-53.474998474121094,33.01300048828125 -50.64500045776367,28.15999984741211 -50.64500045776367,28.15999984741211z"></path><path stroke-linecap="round" stroke-linejoin="round" fill-opacity="0" stroke="rgb(73,44,23)" stroke-opacity="1" stroke-width="9.106" d=" M-50.64500045776367,28.15999984741211 C-50.64500045776367,28.15999984741211 -28.000999450683594,3.0910000801086426 -15.871000289916992,-13.892000198364258 C-3.740000009536743,-30.874000549316406 10.62399959564209,-34.630001068115234 22.7450008392334,-27.94300079345703 C34.47100067138672,-21.472999572753906 49.63399887084961,8.751999855041504 50.44300079345703,12.795999526977539 C51.25199890136719,16.839000701904297 53.474998474121094,19.163999557495117 51.04899978637695,19.569000244140625 C48.62300109863281,19.972999572753906 38.11000061035156,-6.714000225067139 28.809999465942383,-15.206000328063965 C21.208999633789062,-22.145999908447266 12.029000282287598,-21.17099952697754 3.134000062942505,-16.722999572753906 C-5.76200008392334,-12.274999618530273 -19.711999893188477,11.07699966430664 -28.20400047302246,18.760000228881836 C-38.93899917602539,28.472999572753906 -44.58000183105469,34.63100051879883 -49.02799987792969,33.821998596191406 C-53.474998474121094,33.01300048828125 -50.64500045776367,28.15999984741211 -50.64500045776367,28.15999984741211z"></path></g></g></g><g style="display: block;" transform="matrix(1.0142360925674438,0.03322036936879158,-0.03322036936879158,1.0142360925674438,97.34854125976562,97.15342712402344)" opacity="1"><g opacity="1" transform="matrix(1,0,0,1,0,0)"><g opacity="1" transform="matrix(1,0,0,1,238.26800537109375,58.02799987792969)"><path fill="rgb(244,128,88)" fill-opacity="0.73" d=" M-60.96900177001953,23.986000061035156 C-60.96900177001953,23.986000061035156 -53.54100036621094,-29.344999313354492 -12.501999855041504,-36.768001556396484 C29.187999725341797,-44.30799865722656 52.45600128173828,-17.764999389648438 59.117000579833984,10.574000358581543 C62.641998291015625,25.56800079345703 60.053001403808594,38.06700134277344 60.053001403808594,38.06700134277344 C60.053001403808594,38.06700134277344 31.69300079345703,19.110000610351562 -1.2979999780654907,18.016000747680664 C-34.28900146484375,16.92099952697754 -60.96900177001953,23.986000061035156 -60.96900177001953,23.986000061035156z"></path></g><g opacity="1" transform="matrix(1,0,0,1,236.5850067138672,59.724998474121094)"><path fill="rgb(179,197,242)" fill-opacity="1" d=" M-53.808998107910156,19.73900032043457 C-53.808998107910156,19.73900032043457 -45.893001556396484,-24.93600082397461 -9.946999549865723,-29.988000869750977 C26.569000244140625,-35.119998931884766 46.112998962402344,-12.097999572753906 51.145999908447266,11.951000213623047 C53.808998107910156,24.674999237060547 51.21699905395508,35.11899948120117 51.21699905395508,35.11899948120117 C51.21699905395508,35.11899948120117 27.02899932861328,18.336999893188477 -1.6759999990463257,16.45400047302246 C-30.3799991607666,14.571000099182129 -53.808998107910156,19.73900032043457 -53.808998107910156,19.73900032043457z"></path><path stroke-linecap="round" stroke-linejoin="round" fill-opacity="0" stroke="rgb(76,79,114)" stroke-opacity="1" stroke-width="9.558" d=" M-53.808998107910156,19.73900032043457 C-53.808998107910156,19.73900032043457 -45.893001556396484,-24.93600082397461 -9.946999549865723,-29.988000869750977 C26.569000244140625,-35.119998931884766 46.112998962402344,-12.097999572753906 51.145999908447266,11.951000213623047 C53.808998107910156,24.674999237060547 51.21699905395508,35.11899948120117 51.21699905395508,35.11899948120117 C51.21699905395508,35.11899948120117 27.02899932861328,18.336999893188477 -1.6759999990463257,16.45400047302246 C-30.3799991607666,14.571000099182129 -53.808998107910156,19.73900032043457 -53.808998107910156,19.73900032043457z"></path></g><g opacity="1" transform="matrix(1,0,0,1,236.677001953125,57.25600051879883)"><path fill="rgb(255,255,255)" fill-opacity="1" d=" M-35.832000732421875,7.583000183105469 C-37.361000061035156,5.394999980926514 -28.461999893188477,-18.232999801635742 -7.828000068664551,-21.770000457763672 C21.959999084472656,-26.878000259399414 37.361000061035156,0.5720000267028809 36.520999908447266,12.946999549865723 C35.57400131225586,26.878000259399414 20.93600082397461,12.076000213623047 -2.5910000801086426,10.532999992370605 C-26.117000579833984,8.98900032043457 -33.10900115966797,11.479000091552734 -35.832000732421875,7.583000183105469z"></path></g><g opacity="1" transform="matrix(1,0,0,1,232.38999938964844,96.84400177001953)"><path stroke-linecap="round" stroke-linejoin="round" fill-opacity="0" stroke="rgb(211,113,87)" stroke-opacity="0.58" stroke-width="8.905" d=" M-17.128000259399414,-3.7209999561309814 C-17.128000259399414,-3.7209999561309814 -3.763000011444092,-3.872999906539917 4.039999961853027,-1.3880000114440918 C11.843999862670898,1.0980000495910645 17.128000259399414,3.871999979019165 17.128000259399414,3.871999979019165"></path></g><g opacity="1" transform="matrix(1,0,0,1,232.12600708007812,120.8740005493164)"><path stroke-linecap="round" stroke-linejoin="round" fill-opacity="0" stroke="rgb(211,113,87)" stroke-opacity="0.64" stroke-width="12.245" d=" M-47.915000915527344,-7.2789998054504395 C-47.915000915527344,-7.2789998054504395 -23.25,4.853000164031982 3.437999963760376,6.065999984741211 C30.125,7.2789998054504395 47.915000915527344,-1.6169999837875366 47.915000915527344,-1.6169999837875366"></path></g><g opacity="1" transform="matrix(1,0,0,1,0,0)"><g opacity="1" transform="matrix(1,0,0,1,258.2860107421875,51.37900161743164)"><path fill="rgb(37,33,48)" fill-opacity="1" d=" M15.302000045776367,0.781000018119812 C14.89799976348877,8.682999610900879 7.7210001945495605,14.739999771118164 -0.7300000190734863,14.309000015258789 C-9.180999755859375,13.876999855041504 -15.704999923706055,7.122000217437744 -15.302000045776367,-0.781000018119812 C-14.89799976348877,-8.682999610900879 -7.71999979019165,-14.73900032043457 0.7300000190734863,-14.307000160217285 C9.180999755859375,-13.87600040435791 15.704999923706055,-7.120999813079834 15.302000045776367,0.781000018119812z"></path></g><g opacity="1" transform="matrix(1,0,0,1,259.0220031738281,58.007999420166016)"><path fill="rgb(37,76,216)" fill-opacity="1" d=" M9.067999839782715,0.46299999952316284 C8.866999626159668,4.39300012588501 4.644999980926514,7.373000144958496 -0.36399999260902405,7.118000030517578 C-5.372000217437744,6.861999988555908 -9.269000053405762,3.4670000076293945 -9.067999839782715,-0.46299999952316284 C-8.868000030517578,-4.394000053405762 -4.644999980926514,-7.373000144958496 0.3630000054836273,-7.117000102996826 C5.370999813079834,-6.861000061035156 9.269000053405762,-3.4670000076293945 9.067999839782715,0.46299999952316284z"></path></g><g opacity="1" transform="matrix(1,0,0,1,245.21400451660156,53.29600143432617)"><path fill="rgb(255,255,255)" fill-opacity="1" d=" M7.7270002365112305,0.20100000500679016 C6.697000026702881,3.749000072479248 -5.427999973297119,6.456999778747559 -9.053000450134277,5.40500020980835 C-12.678999900817871,4.353000164031982 -13.673999786376953,3.255000114440918 -12.645000457763672,-0.2930000126361847 C-11.614999771118164,-3.8410000801086426 -1.5069999694824219,-4.355000019073486 3.4200000762939453,-4.176000118255615 C7.203000068664551,-4.038000106811523 8.756999969482422,-3.3469998836517334 7.7270002365112305,0.20100000500679016z"></path></g></g><g opacity="1" transform="matrix(1,0,0,1,236.03399658203125,86.28600311279297)"><path stroke-linecap="round" stroke-linejoin="round" fill-opacity="0" stroke="rgb(183,99,57)" stroke-opacity="1" stroke-width="11.476" d=" M-60.255001068115234,-4.675000190734863 C-60.255001068115234,-4.675000190734863 -34.422000885009766,-14 -1.1239999532699585,-10.107999801635742 C32.17300033569336,-6.2170000076293945 60.255001068115234,14 60.255001068115234,14"></path></g></g><g opacity="1" transform="matrix(1,0,0,1,0,0)"><g opacity="1" transform="matrix(1,0,0,1,82.18299865722656,53.770999908447266)"><path fill="rgb(244,128,88)" fill-opacity="0.6900000000000001" d=" M-54.880001068115234,33.54199981689453 C-54.880001068115234,33.54199981689453 -64.97699737548828,-4.914000034332275 -27.871000289916992,-24.988000869750977 C3.2990000247955322,-41.849998474121094 28.535999298095703,-31.65999984741211 43.09299850463867,-12.857000350952148 C53.39899826049805,0.45399999618530273 56.132999420166016,28.386999130249023 56.132999420166016,28.386999130249023 C56.132999420166016,28.386999130249023 29.174999237060547,21.75 5.625,24.114999771118164 C-28.07699966430664,27.5 -54.880001068115234,33.54199981689453 -54.880001068115234,33.54199981689453z"></path></g><g opacity="1" transform="matrix(1,0,0,1,79.20600128173828,57.185001373291016)"><path fill="rgb(179,197,242)" fill-opacity="1" d=" M-47.132999420166016,33.4640007019043 C-47.132999420166016,33.4640007019043 -53.551998138427734,-1.1160000562667847 -21.052000045776367,-18.695999145507812 C6.247000217437744,-33.4640007019043 31.930999755859375,-17.709999084472656 40.207000732421875,-6.565999984741211 C48.99800109863281,5.270999908447266 53.55099868774414,25.579999923706055 53.55099868774414,25.579999923706055 C53.55099868774414,25.579999923706055 26.26099967956543,19.378000259399414 5.635000228881836,21.448999404907227 C-23.882999420166016,24.413000106811523 -47.132999420166016,33.4640007019043 -47.132999420166016,33.4640007019043z"></path><path stroke-linecap="round" stroke-linejoin="round" fill-opacity="0" stroke="rgb(76,79,114)" stroke-opacity="1" stroke-width="9.488" d=" M-47.132999420166016,33.4640007019043 C-47.132999420166016,33.4640007019043 -53.551998138427734,-1.1160000562667847 -21.052000045776367,-18.695999145507812 C6.247000217437744,-33.4640007019043 31.930999755859375,-17.709999084472656 40.207000732421875,-6.565999984741211 C48.99800109863281,5.270999908447266 53.55099868774414,25.579999923706055 53.55099868774414,25.579999923706055 C53.55099868774414,25.579999923706055 26.26099967956543,19.378000259399414 5.635000228881836,21.448999404907227 C-23.882999420166016,24.413000106811523 -47.132999420166016,33.4640007019043 -47.132999420166016,33.4640007019043z"></path></g><g opacity="1" transform="matrix(1,0,0,1,82.71800231933594,120.06600189208984)"><path stroke-linecap="round" stroke-linejoin="round" fill-opacity="0" stroke="rgb(211,113,87)" stroke-opacity="0.63" stroke-width="12.245" d=" M-38.00899887084961,0.20200000703334808 C-38.00899887084961,0.20200000703334808 -24.665000915527344,7.076000213623047 0,5.459000110626221 C24.665000915527344,3.8410000801086426 38.00899887084961,-7.076000213623047 38.00899887084961,-7.076000213623047"></path></g><g opacity="1" transform="matrix(1,0,0,1,77.15799713134766,96.81500244140625)"><path stroke-linecap="round" stroke-linejoin="round" fill-opacity="0" stroke="rgb(211,113,87)" stroke-opacity="0.63" stroke-width="8.905" d=" M-8.895999908447266,1.819000005722046 C-8.895999908447266,1.819000005722046 -1.6180000305175781,-1.0099999904632568 3.6389999389648438,-1.4149999618530273 C3.6389999389648438,-1.4149999618530273 8.895999908447266,-1.819000005722046 8.895999908447266,-1.819000005722046"></path></g><g opacity="1" transform="matrix(1,0,0,1,81.2020034790039,54.09000015258789)"><path fill="rgb(255,255,255)" fill-opacity="1" d=" M-34.571998596191406,20.183000564575195 C-37.60499954223633,13.51099967956543 -29.27899932861328,-4.5 -11.52400016784668,-11.963000297546387 C14.107999801635742,-22.738000869750977 37.60499954223633,3.200000047683716 35.78499984741211,10.479000091552734 C32.720001220703125,22.738000869750977 25.04800033569336,11.722000122070312 3.6389999389648438,15.331000328063965 C-17.768999099731445,18.93899917602539 -33.56700134277344,22.395000457763672 -34.571998596191406,20.183000564575195z"></path></g><g opacity="1" transform="matrix(1,0,0,1,0,0)"><g opacity="1" transform="matrix(1,0,0,1,102.3280029296875,55.349998474121094)"><path fill="rgb(37,33,48)" fill-opacity="1" d=" M14.255000114440918,0 C14.255000114440918,7.361999988555908 7.872000217437744,13.329000473022461 -0.0010000000474974513,13.329000473022461 C-7.873000144958496,13.329000473022461 -14.255000114440918,7.361999988555908 -14.255000114440918,0 C-14.255000114440918,-7.361999988555908 -7.873000144958496,-13.329000473022461 -0.0010000000474974513,-13.329000473022461 C7.872000217437744,-13.329000473022461 14.255000114440918,-7.361999988555908 14.255000114440918,0z"></path></g><g opacity="1" transform="matrix(1,0,0,1,103.32499694824219,61.474998474121094)"><path fill="rgb(37,76,216)" fill-opacity="1" d=" M8.447999954223633,0 C8.447999954223633,3.6619999408721924 4.665999889373779,6.630000114440918 0,6.630000114440918 C-4.665999889373779,6.630000114440918 -8.447999954223633,3.6619999408721924 -8.447999954223633,0 C-8.447999954223633,-3.6619999408721924 -4.665999889373779,-6.630000114440918 0,-6.630000114440918 C4.665999889373779,-6.630000114440918 8.447999954223633,-3.6619999408721924 8.447999954223633,0z"></path></g><g opacity="1" transform="matrix(1,0,0,1,85.49299621582031,58.94200134277344)"><path fill="rgb(255,255,255)" fill-opacity="1" d=" M9.477999687194824,-1.2029999494552612 C8.657999992370605,2.134999990463257 -2.507999897003174,5.123000144958496 -5.919000148773193,4.285999774932861 C-9.329999923706055,3.447999954223633 -10.29800033569336,2.4670000076293945 -9.477999687194824,-0.8709999918937683 C-8.659000396728516,-4.209000110626221 0.7179999947547913,-5.079999923706055 5.304999828338623,-5.104000091552734 C8.826000213623047,-5.123000144958496 10.29800033569336,-4.540999889373779 9.477999687194824,-1.2029999494552612z"></path></g></g><g opacity="1" transform="matrix(1,0,0,1,81.60600280761719,86.65599822998047)"><path stroke-linecap="round" stroke-linejoin="round" fill-opacity="0" stroke="rgb(183,99,57)" stroke-opacity="1" stroke-width="11.131" d=" M-53.77899932861328,11.170000076293945 C-53.77899932861328,11.170000076293945 -32.104000091552734,-6.081999778747559 3.8410000801086426,-8.744000434875488 C36.59400177001953,-11.170000076293945 53.77899932861328,-2.1740000247955322 53.77899932861328,-2.1740000247955322"></path></g></g></g><g style="display: block;" transform="matrix(0.9994640350341797,0.03273652493953705,-0.03273652493953705,0.9994640350341797,59.77262878417969,155.38670349121094)" opacity="1"><g opacity="1" transform="matrix(1.0169799327850342,0,0,1,-6.06646728515625,5.602996826171875)"><g opacity="1" transform="matrix(1,0,0,1,199.09300231933594,115.56800079345703)"><path fill="rgb(246,151,109)" fill-opacity="1" d=" M-156.08799743652344,-47.82600021362305 C-156.08799743652344,-47.82600021362305 -159.07000732421875,5.5980000495910645 -100.4520034790039,28.461000442504883 C-55.941001892089844,45.821998596191406 11.10200023651123,41.89699935913086 53.558998107910156,34.012001037597656 C96.01599884033203,26.12700080871582 135.95599365234375,-1.5880000591278076 149.91400146484375,-29.165000915527344 C156.53900146484375,-42.25400161743164 163.09500122070312,-85.09500122070312 163.09500122070312,-85.09500122070312 C163.09500122070312,-85.09500122070312 185.52499389648438,25.347999572753906 50.26599884033203,50.70500183105469 C-72.43599700927734,73.70800018310547 -138.0989990234375,25.155000686645508 -147.8040008544922,7.565999984741211 C-157.50799560546875,-10.02299976348877 -156.08799743652344,-47.82600021362305 -156.08799743652344,-47.82600021362305z"></path></g><g opacity="1" transform="matrix(1,0,0,1,229.76800537109375,202.43299865722656)"><path fill="rgb(246,151,109)" fill-opacity="0.71" d=" M48.4109992980957,-14.581999778747559 C43.19300079345703,-30.10099983215332 23.131000518798828,-10.82800006866455 -1.8519999980926514,-7.119999885559082 C-25.628999710083008,-3.5910000801086426 -38.69900131225586,-14.21399974822998 -53.847999572753906,-4.201000213623047 C-62.89699935913086,1.7799999713897705 -45.17100143432617,13.859999656677246 -37.064998626708984,19.986000061035156 C-27.209999084472656,27.43400001525879 -13.239999771118164,37.0099983215332 12.994999885559082,33.000999450683594 C40.11600112915039,28.85700035095215 55.21099853515625,5.644000053405762 48.4109992980957,-14.581999778747559z"></path></g><g opacity="1" transform="matrix(1,0,0,1,228.72999572753906,196.8730010986328)"><path stroke-linecap="round" stroke-linejoin="round" fill-opacity="0" stroke="rgb(211,113,87)" stroke-opacity="1" stroke-width="10.22" d=" M-48.40800094604492,8.02299976348877 C-48.40800094604492,8.02299976348877 -16.548999786376953,17.274999618530273 11.338000297546387,9.996999740600586 C34.854000091552734,3.8589999675750732 45.80500030517578,-7.802999973297119 45.80500030517578,-7.802999973297119"></path></g><g opacity="1" transform="matrix(1,0,0,1,199.61700439453125,102.56199645996094)"><path stroke-linecap="round" stroke-linejoin="round" fill-opacity="0" stroke="rgb(155,74,38)" stroke-opacity="1" stroke-width="13" d=" M-158.30299377441406,-37.60900115966797 C-158.30299377441406,-37.60900115966797 -169.35499572753906,-6.136000156402588 -152.85499572753906,17.964000701904297 C-133.22799682617188,46.63399887084961 -89.68800354003906,64.32099914550781 -31.849000930786133,66.71700286865234 C25.989999771118164,69.11399841308594 93.4800033569336,58.55799865722656 124.36299896240234,34.819000244140625 C149.58700561523438,15.430000305175781 157.32400512695312,4.453999996185303 163.031005859375,-14.677000045776367 C171.68299865722656,-43.680999755859375 168.00900268554688,-66.11499786376953 168.00900268554688,-66.11499786376953"></path></g><g opacity="1" transform="matrix(1,0,0,1,40.40399932861328,66.16699981689453)"><path stroke-linecap="round" stroke-linejoin="round" fill-opacity="0" stroke="rgb(155,74,38)" stroke-opacity="1" stroke-width="12.245" d=" M-8.187999725341797,1.819000005722046 C-8.187999725341797,1.819000005722046 -6.065000057220459,-3.6389999389648438 -0.9100000262260437,-2.4260001182556152 C4.245999813079834,-1.2130000591278076 8.187999725341797,3.6389999389648438 8.187999725341797,3.6389999389648438"></path></g><g opacity="1" transform="matrix(1,0,0,1,369.1789855957031,32.512001037597656)"><path stroke-linecap="round" stroke-linejoin="round" fill-opacity="0" stroke="rgb(155,74,38)" stroke-opacity="1" stroke-width="11.673" d=" M-7.020999908447266,-0.47699999809265137 C-7.020999908447266,-0.47699999809265137 -6.078000068664551,-1.812999963760376 0.4359999895095825,-0.453000009059906 C5.103000164031982,0.5220000147819519 5.482999801635742,1.4769999980926514 5.482999801635742,1.4769999980926514"></path></g><g opacity="1" transform="matrix(1,0,0,1,0,0)"><g opacity="1" transform="matrix(1,0,0,1,302.2829895019531,112.88400268554688)"><path fill="rgb(249,78,144)" fill-opacity="1" d=" M-45.67100143432617,45.46099853515625 C-45.67100143432617,45.46099853515625 -14.300999641418457,24.023000717163086 -2.3919999599456787,-3.7170000076293945 C4.618000030517578,-20.045000076293945 8.387999534606934,-41.3120002746582 20.41200065612793,-44.415000915527344 C34.71099853515625,-48.10599899291992 48.13100051879883,-23.66699981689453 43.92499923706055,-2.5239999294281006 C40.45800018310547,14.904000282287598 17.444000244140625,30.292999267578125 -2.2039999961853027,34.999000549316406 C-21.85300064086914,39.70399856567383 -45.67100143432617,45.46099853515625 -45.67100143432617,45.46099853515625z"></path><path stroke-linecap="round" stroke-linejoin="round" fill-opacity="0" stroke="rgb(193,37,101)" stroke-opacity="1" stroke-width="10.612" d=" M-45.67100143432617,45.46099853515625 C-45.67100143432617,45.46099853515625 -14.300999641418457,24.023000717163086 -2.3919999599456787,-3.7170000076293945 C4.618000030517578,-20.045000076293945 8.387999534606934,-41.3120002746582 20.41200065612793,-44.415000915527344 C34.71099853515625,-48.10599899291992 48.13100051879883,-23.66699981689453 43.92499923706055,-2.5239999294281006 C40.45800018310547,14.904000282287598 17.444000244140625,30.292999267578125 -2.2039999961853027,34.999000549316406 C-21.85300064086914,39.70399856567383 -45.67100143432617,45.46099853515625 -45.67100143432617,45.46099853515625z"></path></g><g opacity="1" transform="matrix(1,0,0,1,317.55999755859375,96.81300354003906)"><path stroke-linecap="round" stroke-linejoin="round" fill-opacity="0" stroke="rgb(255,181,208)" stroke-opacity="1" stroke-width="11" d=" M3.078000068664551,-12.024999618530273 C3.078000068664551,-12.024999618530273 2.4030001163482666,-4.765999794006348 0.9800000190734863,0.8460000157356262 C-0.4429999887943268,6.458000183105469 -3.078000068664551,12.024999618530273 -3.078000068664551,12.024999618530273"></path></g><g opacity="1" transform="matrix(1,0,0,1,317.7460021972656,121.552001953125)"><path stroke-linecap="round" stroke-linejoin="round" fill-opacity="0" stroke="rgb(193,37,101)" stroke-opacity="1" stroke-width="11.394" d=" M11.618000030517578,-23.707000732421875 C11.618000030517578,-23.707000732421875 11.458000183105469,-11.081999778747559 7.999000072479248,-1.9600000381469727 C2.440000057220459,12.70300006866455 -11.616999626159668,23.707000732421875 -11.616999626159668,23.707000732421875"></path></g><g opacity="1" transform="matrix(1,0,0,1,302.2829895019531,112.88400268554688)"><path stroke-linecap="round" stroke-linejoin="round" fill-opacity="0" stroke="rgb(193,37,101)" stroke-opacity="1" stroke-width="10.612" d=" M-45.67100143432617,45.46099853515625 C-45.67100143432617,45.46099853515625 -14.300999641418457,24.023000717163086 -2.3919999599456787,-3.7170000076293945 C4.618000030517578,-20.045000076293945 8.387999534606934,-41.3120002746582 20.41200065612793,-44.415000915527344 C34.71099853515625,-48.10599899291992 48.13100051879883,-23.66699981689453 43.92499923706055,-2.5239999294281006 C40.45800018310547,14.904000282287598 17.444000244140625,30.292999267578125 -2.2039999961853027,34.999000549316406 C-21.85300064086914,39.70399856567383 -45.67100143432617,45.46099853515625 -45.67100143432617,45.46099853515625z"></path></g></g></g></g></g></svg>