<svg xmlns="http://www.w3.org/2000/svg" xmlns:xlink="http://www.w3.org/1999/xlink" viewBox="0 0 512 512" width="512" height="512" style="width: 100%; height: 100%; transform: translate3d(0,0,0); content-visibility: visible;" preserveAspectRatio="xMidYMid meet"><defs><clipPath id="__lottie_element_2"><rect width="512" height="512" x="0" y="0"></rect></clipPath><clipPath id="__lottie_element_4"><path d="M0,0 L512,0 L512,512 L0,512z"></path></clipPath><linearGradient id="__lottie_element_16" spreadMethod="pad" gradientUnits="userSpaceOnUse" x1="-13.472999572753906" y1="-38.09000015258789" x2="13.668000221252441" y2="3.4179999828338623"><stop offset="0%" stop-color="rgb(255,229,197)"></stop><stop offset="50%" stop-color="rgb(251,195,155)"></stop><stop offset="100%" stop-color="rgb(246,160,112)"></stop></linearGradient><mask id="__lottie_element_18"><path fill="url(#__lottie_element_17)" d=" M-25.06399917602539,-7.21999979019165 C-25.06399917602539,-7.21999979019165 -17.708999633789062,4.2220001220703125 -16.075000762939453,9.944000244140625 C-14.4399995803833,15.664999961853027 -7.35699987411499,19.479000091552734 6.264999866485596,18.93400001525879 C15.395999908447266,18.569000244140625 23.429000854492188,14.031000137329102 24.246000289916992,9.126999855041504 C25.06399917602539,4.2230000495910645 20.704999923706055,-16.209999084472656 20.704999923706055,-16.209999084472656 C20.704999923706055,-16.209999084472656 -12.805000305175781,-19.479999542236328 -12.805000305175781,-19.479999542236328 C-12.805000305175781,-19.479999542236328 -25.06399917602539,-7.21999979019165 -25.06399917602539,-7.21999979019165z"></path></mask><linearGradient id="__lottie_element_17" spreadMethod="pad" gradientUnits="userSpaceOnUse" x1="-13.472999572753906" y1="-38.09000015258789" x2="13.668000221252441" y2="3.4179999828338623"><stop stop-color="rgb(255,255,255)" offset="0%" stop-opacity="0.9300000071525574"></stop><stop stop-color="rgb(255,255,255)" offset="57%" stop-opacity="0.9649999737739563"></stop><stop stop-color="rgb(255,255,255)" offset="100%" stop-opacity="1"></stop></linearGradient><radialGradient id="__lottie_element_21" spreadMethod="pad" gradientUnits="userSpaceOnUse" cx="-24.961000442504883" cy="-35.402000427246094" r="246.50711649090513" fx="-24.961000442504883" fy="-35.402000427246094"><stop offset="0%" stop-color="rgb(255,229,197)"></stop><stop offset="50%" stop-color="rgb(251,195,155)"></stop><stop offset="100%" stop-color="rgb(246,160,112)"></stop></radialGradient><mask id="__lottie_element_23"><path fill="url(#__lottie_element_22)" d=" M60.28900146484375,-148.093994140625 C52.08599853515625,-150.3159942626953 33.62200164794922,-153.25599670410156 25.125,-153.4149932861328 C5.864999771118164,-153.7740020751953 -20.804000854492188,-152.54400634765625 -62.643001556396484,-135.69200134277344 C-123.40599822998047,-111.21800231933594 -141.9720001220703,-46.236000061035156 -141.1280059814453,-15.010000228881836 C-140.28399658203125,16.21500015258789 -129.31300354003906,30.562000274658203 -129.31300354003906,30.562000274658203 C-129.31300354003906,30.562000274658203 -162.68699645996094,65.70099639892578 -135.68099975585938,107.89800262451172 C-108.6760025024414,150.093994140625 -44.07699966430664,153.77499389648438 19.218000411987305,150.3990020751953 C82.51200103759766,147.0240020751953 139.05599975585938,109.0469970703125 150.87100219726562,49.12799835205078 C155.45399475097656,25.886999130249023 151.6649932861328,-1.9579999446868896 144.61599731445312,-28.26099967956543 C138.83900451660156,-49.81800079345703 130.8719940185547,-70.33999633789062 123.53099822998047,-86.44400024414062 C116.73600006103516,-101.3499984741211 110.47699737548828,-112.47100067138672 106.98600006103516,-117.1259994506836 C94.3270034790039,-134.00399780273438 74.91699981689453,-144.13099670410156 60.28900146484375,-148.093994140625z"></path></mask><radialGradient id="__lottie_element_22" spreadMethod="pad" gradientUnits="userSpaceOnUse" cx="-24.961000442504883" cy="-35.402000427246094" r="246.50711649090513" fx="-24.961000442504883" fy="-35.402000427246094"><stop stop-color="rgb(255,255,255)" offset="0%" stop-opacity="0.9300000071525574"></stop><stop stop-color="rgb(255,255,255)" offset="57%" stop-opacity="0.9649999737739563"></stop><stop stop-color="rgb(255,255,255)" offset="100%" stop-opacity="1"></stop></radialGradient><radialGradient id="__lottie_element_26" spreadMethod="pad" gradientUnits="userSpaceOnUse" cx="14.126999855041504" cy="-75.9749984741211" r="335.7775777398684" fx="14.126999855041504" fy="-75.9749984741211"><stop offset="0%" stop-color="rgb(205,162,105)"></stop><stop offset="50%" stop-color="rgb(175,134,81)"></stop><stop offset="100%" stop-color="rgb(145,107,56)"></stop></radialGradient><mask id="__lottie_element_28"><path fill="url(#__lottie_element_27)" d=" M31.256999969482422,-66.5719985961914 C30.393999099731445,-69.80400085449219 26.238000869750977,-70.69000244140625 24.1299991607666,-68.09200286865234 C17.086999893188477,-59.40599822998047 5.539999961853027,-41.29999923706055 -26.583999633789062,-29.114999771118164 C-75.53099822998047,-10.548999786376953 -105.91300201416016,-2.9539999961853027 -122.79100036621094,11.392999649047852 C-139.6699981689453,25.739999771118164 -146.42100524902344,50.2130012512207 -148.9530029296875,60.34000015258789 C-151.48500061035156,70.46700286865234 -163.3000030517578,69.62300109863281 -163.3000030517578,69.62300109863281 C-163.3000030517578,69.62300109863281 -159.0800018310547,-20.677000045776367 -114.35199737548828,-61.18600082397461 C-69.6240005493164,-101.69400024414062 2.109999895095825,-100.00599670410156 24.052000045776367,-99.16200256347656 C45.99399948120117,-98.31800079345703 127.8550033569336,-87.34700012207031 143.04600524902344,-44.30699920654297 C158.23699951171875,-1.2669999599456787 159.3000030517578,73.375 158.45599365234375,82.65799713134766 C157.61199951171875,91.94100189208984 143.04600524902344,101.69300079345703 143.04600524902344,101.69300079345703 C143.04600524902344,101.69300079345703 140.51400756835938,59.49700164794922 108.44499969482422,35.02299880981445 C87.48600006103516,19.027999877929688 55.277000427246094,-4.640999794006348 45.150001525878906,-29.114999771118164 C39.37799835205078,-43.06399917602539 33.268001556396484,-59.04100036621094 31.256999969482422,-66.5719985961914z"></path></mask><radialGradient id="__lottie_element_27" spreadMethod="pad" gradientUnits="userSpaceOnUse" cx="14.126999855041504" cy="-75.9749984741211" r="335.7775777398684" fx="14.126999855041504" fy="-75.9749984741211"><stop stop-color="rgb(255,255,255)" offset="0%" stop-opacity="0.9300000071525574"></stop><stop stop-color="rgb(255,255,255)" offset="57%" stop-opacity="0.9649999737739563"></stop><stop stop-color="rgb(255,255,255)" offset="100%" stop-opacity="1"></stop></radialGradient><radialGradient id="__lottie_element_29" spreadMethod="pad" gradientUnits="userSpaceOnUse" cx="24.82900047302246" cy="-80.63700103759766" r="329.88937586593676" fx="24.82900047302246" fy="-80.63700103759766"><stop offset="0%" stop-color="rgb(215,172,115)"></stop><stop offset="50%" stop-color="rgb(186,145,90)"></stop><stop offset="100%" stop-color="rgb(156,117,65)"></stop></radialGradient><mask id="__lottie_element_31"><path fill="url(#__lottie_element_30)" d=" M31.256999969482422,-66.5719985961914 C30.393999099731445,-69.80400085449219 26.238000869750977,-70.69000244140625 24.1299991607666,-68.09200286865234 C17.086999893188477,-59.40599822998047 5.539999961853027,-41.29999923706055 -26.583999633789062,-29.114999771118164 C-75.53099822998047,-10.548999786376953 -105.91300201416016,-2.9539999961853027 -122.79100036621094,11.392999649047852 C-139.6699981689453,25.739999771118164 -146.42100524902344,50.2130012512207 -148.9530029296875,60.34000015258789 C-151.48500061035156,70.46700286865234 -163.3000030517578,69.62300109863281 -163.3000030517578,69.62300109863281 C-163.3000030517578,69.62300109863281 -159.0800018310547,-20.677000045776367 -114.35199737548828,-61.18600082397461 C-69.6240005493164,-101.69400024414062 2.109999895095825,-100.00599670410156 24.052000045776367,-99.16200256347656 C45.99399948120117,-98.31800079345703 127.8550033569336,-87.34700012207031 143.04600524902344,-44.30699920654297 C158.23699951171875,-1.2669999599456787 159.3000030517578,73.375 158.45599365234375,82.65799713134766 C157.61199951171875,91.94100189208984 143.04600524902344,101.69300079345703 143.04600524902344,101.69300079345703 C143.04600524902344,101.69300079345703 140.51400756835938,59.49700164794922 108.44499969482422,35.02299880981445 C87.48600006103516,19.027999877929688 55.277000427246094,-4.640999794006348 45.150001525878906,-29.114999771118164 C39.37799835205078,-43.06399917602539 33.268001556396484,-59.04100036621094 31.256999969482422,-66.5719985961914z"></path></mask><radialGradient id="__lottie_element_30" spreadMethod="pad" gradientUnits="userSpaceOnUse" cx="24.82900047302246" cy="-80.63700103759766" r="329.88937586593676" fx="24.82900047302246" fy="-80.63700103759766"><stop stop-color="rgb(255,255,255)" offset="0%" stop-opacity="0.9300000071525574"></stop><stop stop-color="rgb(255,255,255)" offset="57%" stop-opacity="0.9649999737739563"></stop><stop stop-color="rgb(255,255,255)" offset="100%" stop-opacity="1"></stop></radialGradient><radialGradient id="__lottie_element_54" spreadMethod="pad" gradientUnits="userSpaceOnUse" cx="23.469999313354492" cy="-150.70599365234375" r="314.7409946756221" fx="23.469999313354492" fy="-150.70599365234375"><stop offset="0%" stop-color="rgb(223,178,119)"></stop><stop offset="50%" stop-color="rgb(184,143,87)"></stop><stop offset="100%" stop-color="rgb(145,107,56)"></stop></radialGradient><mask id="__lottie_element_56"><path fill="url(#__lottie_element_55)" d=" M32.965999603271484,-206.4459991455078 C32.965999603271484,-206.4459991455078 73.86599731445312,-224.56100463867188 128.5919952392578,-192.552001953125 C183.3179931640625,-160.54200744628906 198.427001953125,-78.46299743652344 196.7010040283203,-15.467000007629395 C194.52200317382812,64.08499908447266 170.32899475097656,91.6050033569336 169.45799255371094,136.00900268554688 C168.64100646972656,177.69200134277344 190.73800659179688,207.00399780273438 179.26499938964844,211.2010040283203 C145.7550048828125,223.46099853515625 100.22899627685547,230.9720001220703 79.5530014038086,233.2689971923828 C68.5,234.4969940185547 46.83599853515625,234.08599853515625 16.892000198364258,234.08599853515625 C-13.052000045776367,234.08599853515625 -37.99300003051758,225.82899475097656 -64.83899688720703,214.4709930419922 C-78.48100280761719,208.6999969482422 -101.55400085449219,193.39599609375 -123.7969970703125,164.1580047607422 C-145.32699584960938,135.85699462890625 -166.07899475097656,94.5 -176.74400329589844,36.09400177001953 C-198.42799377441406,-82.6510009765625 -126.59100341796875,-184.9340057373047 -70.83300018310547,-209.71499633789062 C-15.074999809265137,-234.4969940185547 32.965999603271484,-206.4459991455078 32.965999603271484,-206.4459991455078z"></path></mask><radialGradient id="__lottie_element_55" spreadMethod="pad" gradientUnits="userSpaceOnUse" cx="23.469999313354492" cy="-150.70599365234375" r="314.7409946756221" fx="23.469999313354492" fy="-150.70599365234375"><stop stop-color="rgb(255,255,255)" offset="0%" stop-opacity="0.9300000071525574"></stop><stop stop-color="rgb(255,255,255)" offset="57%" stop-opacity="0.9649999737739563"></stop><stop stop-color="rgb(255,255,255)" offset="100%" stop-opacity="1"></stop></radialGradient></defs><g clip-path="url(#__lottie_element_2)"><g clip-path="url(#__lottie_element_4)" style="display: block;" transform="matrix(1,0,0,1,0,0)" opacity="1"><g style="display: block;" transform="matrix(0.9999475479125977,-0.002321170177310705,0.002274976810440421,0.9800476431846619,35.72843551635742,-1.4586845636367798)" opacity="1"><g opacity="1" transform="matrix(1,0,0,1,223.427001953125,259.49700927734375)"><path fill="url(#__lottie_element_54)" mask="url(#__lottie_element_56)" fill-opacity="1" d="M0 0 M32.965999603271484,-206.4459991455078 C32.965999603271484,-206.4459991455078 73.86599731445312,-224.56100463867188 128.5919952392578,-192.552001953125 C183.3179931640625,-160.54200744628906 198.427001953125,-78.46299743652344 196.7010040283203,-15.467000007629395 C194.52200317382812,64.08499908447266 170.32899475097656,91.6050033569336 169.45799255371094,136.00900268554688 C168.64100646972656,177.69200134277344 190.73800659179688,207.00399780273438 179.26499938964844,211.2010040283203 C145.7550048828125,223.46099853515625 100.22899627685547,230.9720001220703 79.5530014038086,233.2689971923828 C68.5,234.4969940185547 46.83599853515625,234.08599853515625 16.892000198364258,234.08599853515625 C-13.052000045776367,234.08599853515625 -37.99300003051758,225.82899475097656 -64.83899688720703,214.4709930419922 C-78.48100280761719,208.6999969482422 -101.55400085449219,193.39599609375 -123.7969970703125,164.1580047607422 C-145.32699584960938,135.85699462890625 -166.07899475097656,94.5 -176.74400329589844,36.09400177001953 C-198.42799377441406,-82.6510009765625 -126.59100341796875,-184.9340057373047 -70.83300018310547,-209.71499633789062 C-15.074999809265137,-234.4969940185547 32.965999603271484,-206.4459991455078 32.965999603271484,-206.4459991455078z"></path><path stroke-linecap="round" stroke-linejoin="round" fill-opacity="0" stroke="rgb(112,73,28)" stroke-opacity="1" stroke-width="12" d=" M32.965999603271484,-206.4459991455078 C32.965999603271484,-206.4459991455078 73.86599731445312,-224.56100463867188 128.5919952392578,-192.552001953125 C183.3179931640625,-160.54200744628906 198.427001953125,-78.46299743652344 196.7010040283203,-15.467000007629395 C194.52200317382812,64.08499908447266 170.32899475097656,91.6050033569336 169.45799255371094,136.00900268554688 C168.64100646972656,177.69200134277344 190.73800659179688,207.00399780273438 179.26499938964844,211.2010040283203 C145.7550048828125,223.46099853515625 100.22899627685547,230.9720001220703 79.5530014038086,233.2689971923828 C68.5,234.4969940185547 46.83599853515625,234.08599853515625 16.892000198364258,234.08599853515625 C-13.052000045776367,234.08599853515625 -37.99300003051758,225.82899475097656 -64.83899688720703,214.4709930419922 C-78.48100280761719,208.6999969482422 -101.55400085449219,193.39599609375 -123.7969970703125,164.1580047607422 C-145.32699584960938,135.85699462890625 -166.07899475097656,94.5 -176.74400329589844,36.09400177001953 C-198.42799377441406,-82.6510009765625 -126.59100341796875,-184.9340057373047 -70.83300018310547,-209.71499633789062 C-15.074999809265137,-234.4969940185547 32.965999603271484,-206.4459991455078 32.965999603271484,-206.4459991455078z"></path></g><g opacity="1" transform="matrix(1,0,0,1,241.6820068359375,338.7019958496094)"><path fill="rgb(138,101,57)" fill-opacity="1" d=" M-145.48199462890625,-119.73600006103516 C-145.48199462890625,-119.73600006103516 -150.38600158691406,-60.888999938964844 -140.5780029296875,-10.215999603271484 C-130.77000427246094,40.45800018310547 -62.11600112915039,128.7259979248047 -14.711999893188477,140.98599243164062 C32.69200134277344,153.24600219726562 119.3280029296875,136.89999389648438 119.3280029296875,136.89999389648438 C119.3280029296875,136.89999389648438 134.85699462890625,117.28500366210938 129.9530029296875,24.111000061035156 C127.71700286865234,-18.36199951171875 150.38600158691406,-62.52399826049805 126.68399810791016,-96.03399658203125 C102.98100280761719,-129.54400634765625 -27.788999557495117,-153.24600219726562 -27.788999557495117,-153.24600219726562 C-27.788999557495117,-153.24600219726562 -145.48199462890625,-119.73600006103516 -145.48199462890625,-119.73600006103516z"></path></g></g><g style="display: block;" transform="matrix(0.9399999976158142,0,0,0.9399999976158142,170.75985717773438,354.74786376953125)" opacity="1"><g opacity="1" transform="matrix(1,0,0,1,126.07599639892578,92.63899993896484)"><path fill="rgb(77,83,192)" fill-opacity="1" d=" M94.88800048828125,-49.02299880981445 C94.5469970703125,-51.39899826049805 93.03600311279297,-53.518001556396484 90.73999786376953,-54.821998596191406 C86.26399993896484,-57.362998962402344 77.42500305175781,-60.79899978637695 62.803001403808594,-60.34199905395508 C39.917999267578125,-59.62699890136719 8.043999671936035,-53.18899917602539 -5.849999904632568,-53.90399932861328 C-19.7450008392334,-54.619998931884766 -52.4370002746582,-57.48099899291992 -63.0620002746582,-55.334999084472656 C-73.68699645996094,-53.18899917602539 -91.66799926757812,-47.46699905395508 -98.20700073242188,-42.459999084472656 C-104.74500274658203,-37.452999114990234 -90.5790023803711,36.47800064086914 -52.165000915527344,48.638999938964844 C-13.75100040435791,60.79999923706055 70.97599792480469,54.10900115966797 88.95700073242188,39.803001403808594 C104.74500274658203,27.240999221801758 97.01000213623047,-34.21799850463867 94.88800048828125,-49.02299880981445z"></path></g><g opacity="1" transform="matrix(1,0,0,1,126.92400360107422,76.98500061035156)"><path stroke-linecap="round" stroke-linejoin="round" fill-opacity="0" stroke="rgb(41,53,124)" stroke-opacity="1" stroke-width="11" d=" M91.92500305175781,49.0359992980957 C104.42400360107422,29.55900001525879 99.4010009765625,-23.579999923706055 95.19300079345703,-37.5989990234375 C94.50299835205078,-39.89899826049805 92.58599853515625,-48.827999114990234 90.29000091552734,-50.13100051879883 C85.81400299072266,-52.67300033569336 77.21199798583984,-54.48500061035156 61.95600128173828,-47.95199966430664 C40.90800094604492,-38.939998626708984 7.013999938964844,-39.244998931884766 -6.880000114440918,-39.959999084472656 C-20.774999618530273,-40.67599868774414 -53.31700134277344,-37.92900085449219 -63.9109992980957,-40.22600173950195 C-102.052001953125,-48.49700164794922 -93.33399963378906,-37.15800094604492 -99.87200164794922,-32.1510009765625 C-104.42400360107422,-28.665000915527344 -95.51200103759766,24.517000198364258 -65.54399871826172,54.48500061035156"></path></g></g><g style="display: block;" transform="matrix(1.000000238418579,0,0,1.000000238418579,238.47607421875,341.8431701660156)" opacity="1"><g opacity="1" transform="matrix(1,0,0,1,50.064998626708984,44.47999954223633)"><path fill="url(#__lottie_element_16)" mask="url(#__lottie_element_18)" fill-opacity="1" d="M0 0 M-25.06399917602539,-7.21999979019165 C-25.06399917602539,-7.21999979019165 -17.708999633789062,4.2220001220703125 -16.075000762939453,9.944000244140625 C-14.4399995803833,15.664999961853027 -7.35699987411499,19.479000091552734 6.264999866485596,18.93400001525879 C15.395999908447266,18.569000244140625 23.429000854492188,14.031000137329102 24.246000289916992,9.126999855041504 C25.06399917602539,4.2230000495910645 20.704999923706055,-16.209999084472656 20.704999923706055,-16.209999084472656 C20.704999923706055,-16.209999084472656 -12.805000305175781,-19.479999542236328 -12.805000305175781,-19.479999542236328 C-12.805000305175781,-19.479999542236328 -25.06399917602539,-7.21999979019165 -25.06399917602539,-7.21999979019165z"></path><path stroke-linecap="round" stroke-linejoin="round" fill-opacity="0" stroke="rgb(137,89,74)" stroke-opacity="1" stroke-width="10" d=" M-25.06399917602539,-7.21999979019165 C-25.06399917602539,-7.21999979019165 -17.708999633789062,4.2220001220703125 -16.075000762939453,9.944000244140625 C-14.4399995803833,15.664999961853027 -7.35699987411499,19.479000091552734 6.264999866485596,18.93400001525879 C15.395999908447266,18.569000244140625 23.429000854492188,14.031000137329102 24.246000289916992,9.126999855041504 C25.06399917602539,4.2230000495910645 20.704999923706055,-16.209999084472656 20.704999923706055,-16.209999084472656 C20.704999923706055,-16.209999084472656 -12.805000305175781,-19.479999542236328 -12.805000305175781,-19.479999542236328 C-12.805000305175781,-19.479999542236328 -25.06399917602539,-7.21999979019165 -25.06399917602539,-7.21999979019165z"></path></g><g opacity="1" transform="matrix(1,0,0,1,52.24399948120117,58.571998596191406)"><path stroke-linecap="round" stroke-linejoin="round" fill-opacity="0" stroke="rgb(41,53,124)" stroke-opacity="1" stroke-width="11" d=" M-28.336000442504883,-10.07699966430664 C-28.336000442504883,-10.07699966430664 -14.074000358581543,6.985000133514404 4.927000045776367,4.682000160217285 C22.908000946044922,2.502000093460083 26.836000442504883,-11.734999656677246 26.836000442504883,-11.734999656677246"></path></g></g><g style="display: block;" transform="matrix(0.9399999976158142,0,0,0.9399999976158142,-5.199687957763672,359.5813293457031)" opacity="1"><g opacity="1" transform="matrix(1,0,0,1,150.177001953125,70.30500030517578)"><path fill="rgb(77,83,192)" fill-opacity="1" d=" M-75.9489974975586,24.121000289916992 C-75.9489974975586,24.121000289916992 -12.140999794006348,11.057000160217285 12.357999801635742,-0.26499998569488525 C30.84600067138672,-8.8100004196167 55.81100082397461,-36.91299819946289 59.70100021362305,-39.9900016784668 C68.74400329589844,-47.14500045776367 84.18099975585938,-41.189998626708984 87.31400299072266,-35.87900161743164 C90.4469985961914,-30.56800079345703 50.43199920654297,6.252999782562256 27.07900047302246,18.134000778198242 C-6.640999794006348,35.290000915527344 -53.8129997253418,41.20100021362305 -73.6449966430664,44.417999267578125 C-90.4469985961914,47.14500045776367 -75.9489974975586,24.121000289916992 -75.9489974975586,24.121000289916992z"></path><path stroke-linecap="round" stroke-linejoin="round" fill-opacity="0" stroke="rgb(41,53,124)" stroke-opacity="1" stroke-width="11" d=" M-75.9489974975586,24.121000289916992 C-75.9489974975586,24.121000289916992 -12.140999794006348,11.057000160217285 12.357999801635742,-0.26499998569488525 C30.84600067138672,-8.8100004196167 55.81100082397461,-36.91299819946289 59.70100021362305,-39.9900016784668 C68.74400329589844,-47.14500045776367 84.18099975585938,-41.189998626708984 87.31400299072266,-35.87900161743164 C90.4469985961914,-30.56800079345703 50.43199920654297,6.252999782562256 27.07900047302246,18.134000778198242 C-6.640999794006348,35.290000915527344 -53.8129997253418,41.20100021362305 -73.6449966430664,44.417999267578125 C-90.4469985961914,47.14500045776367 -75.9489974975586,24.121000289916992 -75.9489974975586,24.121000289916992z"></path></g><g opacity="1" transform="matrix(1,0,0,1,228.6820068359375,47.150001525878906)"><path fill="rgb(77,83,192)" fill-opacity="1" d=" M-18.79800033569336,9.979000091552734 C-18.79800033569336,9.979000091552734 -12.895000457763672,8.496000289916992 -10.625,9.593999862670898 C-6.809999942779541,11.439000129699707 -7.060999870300293,16.35700035095215 -7.060999870300293,16.35700035095215 C-7.060999870300293,16.35700035095215 12.260000228881836,9.434000015258789 12.260000228881836,9.434000015258789 C12.260000228881836,9.434000015258789 18.42799949645996,-1.5210000276565552 18.42799949645996,-1.5210000276565552 C18.42799949645996,-1.5210000276565552 15.503000259399414,-11.503000259399414 15.503000259399414,-11.503000259399414 C15.503000259399414,-11.503000259399414 13.635000228881836,-12.279999732971191 10.984000205993652,-13.255000114440918 C6.203000068664551,-15.013999938964844 -1.1239999532699585,-17.420000076293945 -4.63100004196167,-17.08300018310547 C-14.076000213623047,-16.174999237060547 -18.881999969482422,-8.49899959564209 -18.881999969482422,-8.49899959564209 C-18.881999969482422,-8.49899959564209 -18.79800033569336,9.979000091552734 -18.79800033569336,9.979000091552734z"></path></g></g><g style="display: block;" transform="matrix(0.9399999976158142,0,0,0.9399999976158142,96.78372955322266,351.4371643066406)" opacity="1"><g opacity="1" transform="matrix(1,0,0,1,198.18899536132812,82.85600280761719)"><path fill="rgb(77,83,192)" fill-opacity="1" d=" M-86.4280014038086,30.256999969482422 C-86.4280014038086,30.256999969482422 -10.234999656677246,13.826000213623047 19.030000686645508,-0.367000013589859 C41.11399841308594,-11.07800006866455 70.96199798583984,-46.25199890136719 75.61000061035156,-50.10499954223633 C86.41600036621094,-59.06399917602539 103.77300262451172,-54.084999084472656 102.6240005493164,-40.21099853515625 C100.39399719238281,-13.269000053405762 64.47000122070312,7.723999977111816 36.573001861572266,22.61400032043457 C-3.7090001106262207,44.11399841308594 -60.03099822998047,51.57600021362305 -83.70999908447266,55.630001068115234 C-103.77300262451172,59.06399917602539 -86.4280014038086,30.256999969482422 -86.4280014038086,30.256999969482422z"></path><path stroke-linecap="butt" stroke-linejoin="round" fill-opacity="0" stroke="rgb(41,53,124)" stroke-opacity="1" stroke-width="11" d=" M-86.4280014038086,30.256999969482422 C-86.4280014038086,30.256999969482422 -10.234999656677246,13.826000213623047 19.030000686645508,-0.367000013589859 C41.11399841308594,-11.07800006866455 70.96199798583984,-46.25199890136719 75.61000061035156,-50.10499954223633 C86.41600036621094,-59.06399917602539 103.77300262451172,-54.084999084472656 102.6240005493164,-40.21099853515625 C100.39399719238281,-13.269000053405762 64.47000122070312,7.723999977111816 36.573001861572266,22.61400032043457 C-3.7090001106262207,44.11399841308594 -60.03099822998047,51.57600021362305 -83.70999908447266,55.630001068115234 C-103.77300262451172,59.06399917602539 -86.4280014038086,30.256999969482422 -86.4280014038086,30.256999969482422z"></path></g><g opacity="0" transform="matrix(1,0,0,1,0,0)"><path fill="rgb(77,83,192)" fill-opacity="1" d=" M283.1919860839844,30.854999542236328 C273.8909912109375,37.816001892089844 263.60198974609375,40.941001892089844 263.60198974609375,40.941001892089844 C263.60198974609375,40.941001892089844 267.72601318359375,52.571998596191406 269.84698486328125,53.207000732421875 C271.9679870605469,53.84199905395508 273.76300048828125,51.354000091552734 273.76300048828125,51.354000091552734 C273.76300048828125,51.354000091552734 270.4129943847656,39.11000061035156 276.7449951171875,37.59700012207031 C286.26800537109375,35.321998596191406 287.0069885253906,48.180999755859375 287.0069885253906,48.180999755859375 C287.0069885253906,47.25299835205078 298.5899963378906,33.125999450683594 296.4469909667969,30.2810001373291 C293.54998779296875,26.434999465942383 288.9729919433594,26.527999877929688 283.1919860839844,30.854999542236328z"></path></g></g><g style="display: block;" transform="matrix(0.9399999976158142,0,0,0.9399999976158142,96.78372955322266,351.4371643066406)" opacity="1"><g opacity="1" transform="matrix(1,0,0,1,73.91000366210938,122.38099670410156)"><path fill="rgb(247,180,135)" fill-opacity="1" d=" M40.98699951171875,-9.8149995803833 C40.98699951171875,-9.8149995803833 22.194000244140625,-11.376999855041504 18.764999389648438,-13.54800033569336 C15.336999893188477,-15.718999862670898 -6.675000190734863,-33.0359992980957 -11.20199966430664,-32.32400131225586 C-15.729000091552734,-31.61199951171875 -13.057999610900879,-19.384000778198242 -9.218999862670898,-14.567000389099121 C-5.380000114440918,-9.75100040435791 0.31299999356269836,-7.935999870300293 -1.5399999618530273,-4.934000015258789 C-3.3929998874664307,-1.9320000410079956 -23.558000564575195,-2.375 -33.50400161743164,-1.7139999866485596 C-43.45000076293945,-1.0529999732971191 -49.07899856567383,12.479999542236328 -39.75400161743164,22.757999420166016 C-30.43000030517578,33.0359992980957 -11.565999984741211,30.069000244140625 10.932000160217285,25.628000259399414 C33.430999755859375,21.18600082397461 47.290000915527344,10.87600040435791 48.185001373291016,1.7009999752044678 C49.08000183105469,-7.473999977111816 40.98699951171875,-9.8149995803833 40.98699951171875,-9.8149995803833z"></path><path stroke-linecap="round" stroke-linejoin="round" fill-opacity="0" stroke="rgb(144,77,45)" stroke-opacity="1" stroke-width="9.932" d=" M40.98699951171875,-9.8149995803833 C40.98699951171875,-9.8149995803833 22.194000244140625,-11.376999855041504 18.764999389648438,-13.54800033569336 C15.336999893188477,-15.718999862670898 -6.675000190734863,-33.0359992980957 -11.20199966430664,-32.32400131225586 C-15.729000091552734,-31.61199951171875 -13.057999610900879,-19.384000778198242 -9.218999862670898,-14.567000389099121 C-5.380000114440918,-9.75100040435791 0.31299999356269836,-7.935999870300293 -1.5399999618530273,-4.934000015258789 C-3.3929998874664307,-1.9320000410079956 -23.558000564575195,-2.375 -33.50400161743164,-1.7139999866485596 C-43.45000076293945,-1.0529999732971191 -49.07899856567383,12.479999542236328 -39.75400161743164,22.757999420166016 C-30.43000030517578,33.0359992980957 -11.565999984741211,30.069000244140625 10.932000160217285,25.628000259399414 C33.430999755859375,21.18600082397461 47.290000915527344,10.87600040435791 48.185001373291016,1.7009999752044678 C49.08000183105469,-7.473999977111816 40.98699951171875,-9.8149995803833 40.98699951171875,-9.8149995803833z"></path></g></g><g style="display: block;" transform="matrix(1.000000238418579,0,0,1.000000238418579,67.62403869628906,45.8441162109375)" opacity="1"><g opacity="1" transform="matrix(1,0,0,1,187.68600463867188,178.7740020751953)"><path fill="url(#__lottie_element_21)" mask="url(#__lottie_element_23)" fill-opacity="1" d="M0 0 M60.28900146484375,-148.093994140625 C52.08599853515625,-150.3159942626953 33.62200164794922,-153.25599670410156 25.125,-153.4149932861328 C5.864999771118164,-153.7740020751953 -20.804000854492188,-152.54400634765625 -62.643001556396484,-135.69200134277344 C-123.40599822998047,-111.21800231933594 -141.9720001220703,-46.236000061035156 -141.1280059814453,-15.010000228881836 C-140.28399658203125,16.21500015258789 -129.31300354003906,30.562000274658203 -129.31300354003906,30.562000274658203 C-129.31300354003906,30.562000274658203 -162.68699645996094,65.70099639892578 -135.68099975585938,107.89800262451172 C-108.6760025024414,150.093994140625 -44.07699966430664,153.77499389648438 19.218000411987305,150.3990020751953 C82.51200103759766,147.0240020751953 139.05599975585938,109.0469970703125 150.87100219726562,49.12799835205078 C155.45399475097656,25.886999130249023 151.6649932861328,-1.9579999446868896 144.61599731445312,-28.26099967956543 C138.83900451660156,-49.81800079345703 130.8719940185547,-70.33999633789062 123.53099822998047,-86.44400024414062 C116.73600006103516,-101.3499984741211 110.47699737548828,-112.47100067138672 106.98600006103516,-117.1259994506836 C94.3270034790039,-134.00399780273438 74.91699981689453,-144.13099670410156 60.28900146484375,-148.093994140625z"></path><path stroke-linecap="round" stroke-linejoin="round" fill-opacity="0" stroke="rgb(144,76,44)" stroke-opacity="1" stroke-width="12" d=" M60.28900146484375,-148.093994140625 C52.08599853515625,-150.3159942626953 33.62200164794922,-153.25599670410156 25.125,-153.4149932861328 C5.864999771118164,-153.7740020751953 -20.804000854492188,-152.54400634765625 -62.643001556396484,-135.69200134277344 C-123.40599822998047,-111.21800231933594 -141.9720001220703,-46.236000061035156 -141.1280059814453,-15.010000228881836 C-140.28399658203125,16.21500015258789 -129.31300354003906,30.562000274658203 -129.31300354003906,30.562000274658203 C-129.31300354003906,30.562000274658203 -162.68699645996094,65.70099639892578 -135.68099975585938,107.89800262451172 C-108.6760025024414,150.093994140625 -44.07699966430664,153.77499389648438 19.218000411987305,150.3990020751953 C82.51200103759766,147.0240020751953 139.05599975585938,109.0469970703125 150.87100219726562,49.12799835205078 C155.45399475097656,25.886999130249023 151.6649932861328,-1.9579999446868896 144.61599731445312,-28.26099967956543 C138.83900451660156,-49.81800079345703 130.8719940185547,-70.33999633789062 123.53099822998047,-86.44400024414062 C116.73600006103516,-101.3499984741211 110.47699737548828,-112.47100067138672 106.98600006103516,-117.1259994506836 C94.3270034790039,-134.00399780273438 74.91699981689453,-144.13099670410156 60.28900146484375,-148.093994140625z"></path></g><g opacity="1" transform="matrix(1,0,0,1,180.51300048828125,274.9580078125)"><path fill="rgb(229,132,85)" fill-opacity="1" d=" M-117.33699798583984,-64.2959976196289 C-117.33699798583984,-64.2959976196289 -130.05099487304688,12.895999908447266 -69.56999969482422,33.60100173950195 C-9.088000297546387,54.305999755859375 54.821998596191406,44.05799865722656 100.79499816894531,16.163999557495117 C133.12399291992188,-3.4519999027252197 146.38299560546875,-31.601999282836914 146.38299560546875,-31.601999282836914 C146.38299560546875,-31.601999282836914 136.5749969482422,22.885000228881836 57.02299880981445,43.59000015258789 C-22.52899932861328,64.2959976196289 -110.7979965209961,45.76900100708008 -129.86900329589844,0.5440000295639038 C-146.38299560546875,-38.617000579833984 -117.33699798583984,-64.2959976196289 -117.33699798583984,-64.2959976196289z"></path></g></g><g style="display: block;" transform="matrix(1.000000238418579,0,0,1.000000238418579,206.04405212402344,290.39215087890625)" opacity="1"><g opacity="1" transform="matrix(1,0,0,1,35.981998443603516,28.628000259399414)"><path fill="rgb(82,50,48)" fill-opacity="1" d=" M-15.32800006866455,-0.39800000190734863 C-14.861000061035156,-3.0139999389648438 -12.812999725341797,-6.563000202178955 -5.585000038146973,-7.5960001945495605 C1.6430000066757202,-8.628000259399414 13.918000221252441,-5.535999774932861 14.951000213623047,-1.406000018119812 C15.982999801635742,2.7239999771118164 12.243000030517578,6.563000202178955 0.8849999904632568,7.5960001945495605 C-10.472999572753906,8.628000259399414 -15.982000350952148,3.2669999599456787 -15.32800006866455,-0.39800000190734863z"></path><path stroke-linecap="round" stroke-linejoin="round" fill-opacity="0" stroke="rgb(86,52,47)" stroke-opacity="1" stroke-width="8" d=" M-15.32800006866455,-0.39800000190734863 C-14.861000061035156,-3.0139999389648438 -12.812999725341797,-6.563000202178955 -5.585000038146973,-7.5960001945495605 C1.6430000066757202,-8.628000259399414 13.918000221252441,-5.535999774932861 14.951000213623047,-1.406000018119812 C15.982999801635742,2.7239999771118164 12.243000030517578,6.563000202178955 0.8849999904632568,7.5960001945495605 C-10.472999572753906,8.628000259399414 -15.982000350952148,3.2669999599456787 -15.32800006866455,-0.39800000190734863z"></path></g></g><g style="display: block;" transform="matrix(0.9399999976158142,0,0,0.9399999976158142,-5.199687957763672,359.5813293457031)" opacity="1"><g opacity="1" transform="matrix(1,0,0,1,68.15299987792969,87.26000213623047)"><path fill="rgb(247,180,135)" fill-opacity="1" d=" M37.507999420166016,-0.4440000057220459 C37.507999420166016,-0.4440000057220459 21.288999557495117,-4.881999969482422 18.584999084472656,-7.545000076293945 C15.881999969482422,-10.206999778747559 -1.0130000114440918,-30.621999740600586 -5.067999839782715,-30.621999740600586 C-9.123000144958496,-30.621999740600586 -8.446999549865723,-18.195999145507812 -5.74399995803833,-12.869999885559082 C-3.0409998893737793,-7.545000076293945 1.690000057220459,-4.881999969482422 -0.3370000123977661,-2.2190001010894775 C-2.365000009536743,0.4440000057220459 -19.93600082397461,-3.1059999465942383 -28.72100067138672,-3.993000030517578 C-37.50699996948242,-4.88100004196167 -44.26499938964844,7.544000148773193 -37.50699996948242,19.08300018310547 C-30.749000549316406,30.621000289916992 -13.854000091552734,30.621000289916992 6.421000003814697,29.733999252319336 C26.69499969482422,28.84600067138672 40.21099853515625,20.857999801635742 42.23899841308594,11.982000350952148 C44.26599884033203,3.1059999465942383 37.507999420166016,-0.4440000057220459 37.507999420166016,-0.4440000057220459z"></path><path stroke-linecap="round" stroke-linejoin="round" fill-opacity="0" stroke="rgb(144,77,45)" stroke-opacity="1" stroke-width="9.555" d=" M37.507999420166016,-0.4440000057220459 C37.507999420166016,-0.4440000057220459 21.288999557495117,-4.881999969482422 18.584999084472656,-7.545000076293945 C15.881999969482422,-10.206999778747559 -1.0130000114440918,-30.621999740600586 -5.067999839782715,-30.621999740600586 C-9.123000144958496,-30.621999740600586 -8.446999549865723,-18.195999145507812 -5.74399995803833,-12.869999885559082 C-3.0409998893737793,-7.545000076293945 1.690000057220459,-4.881999969482422 -0.3370000123977661,-2.2190001010894775 C-2.365000009536743,0.4440000057220459 -19.93600082397461,-3.1059999465942383 -28.72100067138672,-3.993000030517578 C-37.50699996948242,-4.88100004196167 -44.26499938964844,7.544000148773193 -37.50699996948242,19.08300018310547 C-30.749000549316406,30.621000289916992 -13.854000091552734,30.621000289916992 6.421000003814697,29.733999252319336 C26.69499969482422,28.84600067138672 40.21099853515625,20.857999801635742 42.23899841308594,11.982000350952148 C44.26599884033203,3.1059999465942383 37.507999420166016,-0.4440000057220459 37.507999420166016,-0.4440000057220459z"></path></g></g><g style="display: block;" transform="matrix(1.000000238418579,0,0,1.000000238418579,115.85003662109375,141.42611694335938)" opacity="1"><g opacity="1" transform="matrix(1,0,0,1,0,0)"><g opacity="1" transform="matrix(1,0,0,1,206.86900329589844,79.2249984741211)"><path fill="rgb(255,255,255)" fill-opacity="1" d=" M0.026000000536441803,54.06100082397461 C42.361000061035156,59.2239990234375 67.14199829101562,27.214000701904297 66.10900115966797,-6.860000133514404 C65.41999816894531,-29.59000015258789 43.393001556396484,-51.2599983215332 11.383000373840332,-55.39099884033203 C-18.33300018310547,-59.224998474121094 -43.86600112915039,-50.02199935913086 -53.667999267578125,-26.479000091552734 C-67.14299774169922,5.88700008392334 -42.308998107910156,48.89799880981445 0.026000000536441803,54.06100082397461z"></path><path stroke-linecap="round" stroke-linejoin="round" fill-opacity="0" stroke="rgb(86,52,47)" stroke-opacity="1" stroke-width="10" d=" M0.026000000536441803,54.06100082397461 C42.361000061035156,59.2239990234375 67.14199829101562,27.214000701904297 66.10900115966797,-6.860000133514404 C65.41999816894531,-29.59000015258789 43.393001556396484,-51.2599983215332 11.383000373840332,-55.39099884033203 C-18.33300018310547,-59.224998474121094 -43.86600112915039,-50.02199935913086 -53.667999267578125,-26.479000091552734 C-67.14299774169922,5.88700008392334 -42.308998107910156,48.89799880981445 0.026000000536441803,54.06100082397461z"></path></g><g opacity="1" transform="matrix(1,0,0,1,0,0)"><g opacity="1" transform="matrix(1,0,0,1,221.11700439453125,79.71700286865234)"><path fill="rgb(0,0,0)" fill-opacity="1" d=" M-16.992000579833984,2.734999895095825 C-15.894000053405762,9.814000129699707 -10.093000411987305,16.893999099731445 3.3919999599456787,15.446000099182129 C13.869000434875488,14.321000099182129 17.503000259399414,-0.32199999690055847 11.859000205993652,-7.7230000495910645 C6.214000225067139,-15.12399959564209 -3.194000005722046,-16.893999099731445 -10.093000411987305,-12.067000389099121 C-16.992000579833984,-7.241000175476074 -17.503000259399414,-0.5590000152587891 -16.992000579833984,2.734999895095825z"></path></g><g opacity="1" transform="matrix(1,0,0,1,205.08999633789062,79.97200012207031)"><path fill="rgb(255,255,255)" fill-opacity="1" d=" M-7.044000148773193,1.1339999437332153 C-6.589000225067139,4.068999767303467 -4.184999942779541,7.004000186920166 1.4049999713897705,6.4029998779296875 C5.749000072479248,5.936999797821045 7.256999969482422,-0.13300000131130219 4.916999816894531,-3.2019999027252197 C2.5759999752044678,-6.269999980926514 -1.3250000476837158,-7.004000186920166 -4.184999942779541,-5.002999782562256 C-7.045000076293945,-3.002000093460083 -7.25600004196167,-0.23199999332427979 -7.044000148773193,1.1339999437332153z"></path></g></g><g opacity="1" transform="matrix(1,0,0,1,208.01699829101562,97.64399719238281)"><path fill="rgb(205,215,250)" fill-opacity="1" d=" M-52.67100143432617,-38.68600082397461 C-52.67100143432617,-38.68600082397461 -59.9370002746582,-7.083000183105469 -34.145999908447266,15.802000045776367 C-8.354999542236328,38.68600082397461 17.07200050354004,32.874000549316406 30.875999450683594,27.062000274658203 C44.67900085449219,21.25 53.76100158691406,4.177999973297119 55.941001892089844,-1.2710000276565552 C58.119998931884766,-6.71999979019165 59.9370002746582,-13.621999740600586 59.9370002746582,-13.621999740600586 C59.9370002746582,-13.621999740600586 43.5,22.158000946044922 8.263999938964844,20.704999923706055 C-8.946000099182129,19.996000289916992 -28.341999053955078,10.399999618530273 -39.14099884033203,-2.996999979019165 C-50.45100021362305,-17.027000427246094 -52.67100143432617,-38.68600082397461 -52.67100143432617,-38.68600082397461z"></path></g></g><g opacity="1" transform="matrix(1,0,0,1,0,0)"><g opacity="1" transform="matrix(1,0,0,1,72.66100311279297,88.1510009765625)"><path fill="rgb(255,255,255)" fill-opacity="1" d=" M-49.5629997253418,0.7350000143051147 C-52.6609992980957,-23.013999938964844 -36.13999938964844,-47.79499816894531 -6.195000171661377,-49.861000061035156 C30.093000411987305,-52.362998962402344 52.6609992980957,-25.07900047302246 50.59600067138672,4.864999771118164 C48.529998779296875,34.810001373291016 28.91200065612793,52.362998962402344 -7.228000164031982,50.29800033569336 C-37.12300109863281,48.59000015258789 -47.152000427246094,19.215999603271484 -49.5629997253418,0.7350000143051147z"></path><path stroke-linecap="round" stroke-linejoin="round" fill-opacity="0" stroke="rgb(86,52,47)" stroke-opacity="1" stroke-width="10" d=" M-49.5629997253418,0.7350000143051147 C-52.6609992980957,-23.013999938964844 -36.13999938964844,-47.79499816894531 -6.195000171661377,-49.861000061035156 C30.093000411987305,-52.362998962402344 52.6609992980957,-25.07900047302246 50.59600067138672,4.864999771118164 C48.529998779296875,34.810001373291016 28.91200065612793,52.362998962402344 -7.228000164031982,50.29800033569336 C-37.12300109863281,48.59000015258789 -47.152000427246094,19.215999603271484 -49.5629997253418,0.7350000143051147z"></path></g><g opacity="1" transform="matrix(1,0,0,1,0,0)"><g opacity="1" transform="matrix(1,0,0,1,85.34400177001953,85.2509994506836)"><path fill="rgb(0,0,0)" fill-opacity="1" d=" M-15.803999900817871,2.4230000972747803 C-14.78499984741211,8.017000198364258 -9.906999588012695,14.89900016784668 2.5420000553131104,13.753999710083008 C12.215999603271484,12.864999771118164 16.395000457763672,-1.871999979019165 11.388999938964844,-7.85699987411499 C6.413000106811523,-13.805999755859375 -2.7109999656677246,-14.89900016784668 -8.515999794006348,-10.649999618530273 C-14.439000129699707,-6.315000057220459 -16.393999099731445,-0.8159999847412109 -15.803999900817871,2.4230000972747803z"></path></g><g opacity="1" transform="matrix(1,0,0,1,72.68599700927734,86.51000213623047)"><path fill="rgb(255,255,255)" fill-opacity="1" d=" M-7.044000148773193,1.1339999437332153 C-6.589000225067139,4.068999767303467 -4.184000015258789,7.004000186920166 1.406000018119812,6.4029998779296875 C5.75,5.936999797821045 7.256999969482422,-0.13300000131130219 4.916999816894531,-3.2019999027252197 C2.5759999752044678,-6.269999980926514 -1.3250000476837158,-7.004000186920166 -4.184999942779541,-5.002999782562256 C-7.045000076293945,-3.002000093460083 -7.25600004196167,-0.23199999332427979 -7.044000148773193,1.1339999437332153z"></path></g></g><g opacity="1" transform="matrix(1,0,0,1,67.89299774169922,103.81900024414062)"><path fill="rgb(205,215,250)" fill-opacity="1" d=" M-37.143001556396484,-36.14400100708008 C-37.143001556396484,-36.14400100708008 -34.861000061035156,7.0980000495910645 -8.083000183105469,17.618000030517578 C22.43000030517578,29.604999542236328 42.40999984741211,14.711999893188477 42.40999984741211,14.711999893188477 C42.40999984741211,14.711999893188477 24.065000534057617,36.14400100708008 -6.993000030517578,29.604999542236328 C-38.05099868774414,23.066999435424805 -39.965999603271484,-9.862000465393066 -40.7760009765625,-15.800999641418457 C-42.40999984741211,-27.788000106811523 -37.143001556396484,-36.14400100708008 -37.143001556396484,-36.14400100708008z"></path></g></g></g><g style="display: block;" transform="matrix(0.9999475479125977,-0.002321170410141349,0.0022749765776097775,0.9800475239753723,85.81949615478516,60.46821975708008)" opacity="1"><g opacity="1" transform="matrix(1,0,0,1,179.21099853515625,101.94400024414062)"><path fill="url(#__lottie_element_26)" mask="url(#__lottie_element_28)" fill-opacity="1" d="M0 0 M31.256999969482422,-66.5719985961914 C30.393999099731445,-69.80400085449219 26.238000869750977,-70.69000244140625 24.1299991607666,-68.09200286865234 C17.086999893188477,-59.40599822998047 5.539999961853027,-41.29999923706055 -26.583999633789062,-29.114999771118164 C-75.53099822998047,-10.548999786376953 -105.91300201416016,-2.9539999961853027 -122.79100036621094,11.392999649047852 C-139.6699981689453,25.739999771118164 -146.42100524902344,50.2130012512207 -148.9530029296875,60.34000015258789 C-151.48500061035156,70.46700286865234 -163.3000030517578,69.62300109863281 -163.3000030517578,69.62300109863281 C-163.3000030517578,69.62300109863281 -159.0800018310547,-20.677000045776367 -114.35199737548828,-61.18600082397461 C-69.6240005493164,-101.69400024414062 2.109999895095825,-100.00599670410156 24.052000045776367,-99.16200256347656 C45.99399948120117,-98.31800079345703 127.8550033569336,-87.34700012207031 143.04600524902344,-44.30699920654297 C158.23699951171875,-1.2669999599456787 159.3000030517578,73.375 158.45599365234375,82.65799713134766 C157.61199951171875,91.94100189208984 143.04600524902344,101.69300079345703 143.04600524902344,101.69300079345703 C143.04600524902344,101.69300079345703 140.51400756835938,59.49700164794922 108.44499969482422,35.02299880981445 C87.48600006103516,19.027999877929688 55.277000427246094,-4.640999794006348 45.150001525878906,-29.114999771118164 C39.37799835205078,-43.06399917602539 33.268001556396484,-59.04100036621094 31.256999969482422,-66.5719985961914z"></path></g><g opacity="1" transform="matrix(1,0,0,1,179.21099853515625,101.94400024414062)"><path fill="url(#__lottie_element_29)" mask="url(#__lottie_element_31)" fill-opacity="1" d="M0 0 M31.256999969482422,-66.5719985961914 C30.393999099731445,-69.80400085449219 26.238000869750977,-70.69000244140625 24.1299991607666,-68.09200286865234 C17.086999893188477,-59.40599822998047 5.539999961853027,-41.29999923706055 -26.583999633789062,-29.114999771118164 C-75.53099822998047,-10.548999786376953 -105.91300201416016,-2.9539999961853027 -122.79100036621094,11.392999649047852 C-139.6699981689453,25.739999771118164 -146.42100524902344,50.2130012512207 -148.9530029296875,60.34000015258789 C-151.48500061035156,70.46700286865234 -163.3000030517578,69.62300109863281 -163.3000030517578,69.62300109863281 C-163.3000030517578,69.62300109863281 -159.0800018310547,-20.677000045776367 -114.35199737548828,-61.18600082397461 C-69.6240005493164,-101.69400024414062 2.109999895095825,-100.00599670410156 24.052000045776367,-99.16200256347656 C45.99399948120117,-98.31800079345703 127.8550033569336,-87.34700012207031 143.04600524902344,-44.30699920654297 C158.23699951171875,-1.2669999599456787 159.3000030517578,73.375 158.45599365234375,82.65799713134766 C157.61199951171875,91.94100189208984 143.04600524902344,101.69300079345703 143.04600524902344,101.69300079345703 C143.04600524902344,101.69300079345703 140.51400756835938,59.49700164794922 108.44499969482422,35.02299880981445 C87.48600006103516,19.027999877929688 55.277000427246094,-4.640999794006348 45.150001525878906,-29.114999771118164 C39.37799835205078,-43.06399917602539 33.268001556396484,-59.04100036621094 31.256999969482422,-66.5719985961914z"></path></g><g opacity="1" transform="matrix(1,0,0,1,176.2030029296875,125.41799926757812)"><path stroke-linecap="round" stroke-linejoin="round" fill-opacity="0" stroke="rgb(113,74,29)" stroke-opacity="1" stroke-width="12" d=" M-147.9340057373047,42.5 C-147.9340057373047,42.5 -151.2030029296875,9.807000160217285 -116.8759994506836,-12.260000228881836 C-91.22699737548828,-28.749000549316406 -22.518999099731445,-47.19900131225586 -1.6349999904632568,-62.11600112915039 C26.97100067138672,-82.54900360107422 35.14400100708008,-93.99099731445312 35.14400100708008,-93.99099731445312 C35.14400100708008,-93.99099731445312 35.96200180053711,-51.49100112915039 65.38500213623047,-27.788999557495117 C94.80799865722656,-4.086999893188477 136.49099731445312,28.606000900268555 143.8470001220703,50.67300033569336 C151.2030029296875,72.74099731445312 143.8470001220703,93.99099731445312 143.8470001220703,93.99099731445312"></path></g></g></g></g></svg>