<svg xmlns="http://www.w3.org/2000/svg" xmlns:xlink="http://www.w3.org/1999/xlink" viewBox="0 0 512 512" width="512" height="512" style="width: 100%; height: 100%; transform: translate3d(0,0,0); content-visibility: visible;" preserveAspectRatio="xMidYMid meet"><defs><clipPath id="__lottie_element_2"><rect width="512" height="512" x="0" y="0"></rect></clipPath><clipPath id="__lottie_element_4"><path d="M0,0 L512,0 L512,512 L0,512z"></path></clipPath><radialGradient id="__lottie_element_14" spreadMethod="pad" gradientUnits="userSpaceOnUse" cx="-38.763999938964844" cy="-68.8499984741211" r="180.05564012144472" fx="-38.763999938964844" fy="-68.8499984741211"><stop offset="0%" stop-color="rgb(252,227,204)"></stop><stop offset="50%" stop-color="rgb(248,207,176)"></stop><stop offset="100%" stop-color="rgb(244,187,148)"></stop></radialGradient></defs><g clip-path="url(#__lottie_element_2)"><g clip-path="url(#__lottie_element_4)" style="display: block;" transform="matrix(1.597659945487976,0,0,1.597659945487976,-159.00094604492188,-1.000946044921875)" opacity="1"><g style="display: block;" transform="matrix(1,0,0,1,-2.70001220703125,1.298004150390625)" opacity="1"><g opacity="1" transform="matrix(1,0,0,1,0,0)"><g opacity="1" transform="matrix(1,0,0,1,260.3240051269531,175.3249969482422)"><path fill="rgb(244,153,118)" fill-opacity="1" d=" M-81.6719970703125,-73.63200378417969 C-81.6719970703125,-73.63200378417969 -119.98600006103516,-46.69300079345703 -125.38899993896484,2.4830000400543213 C-130.79299926757812,51.659000396728516 -98.86399841308594,83.302001953125 -28.621000289916992,90.57099914550781 C41.62200164794922,97.83999633789062 97.7020034790039,89.55000305175781 114.32099914550781,52.513999938964844 C130.79299926757812,15.805000305175781 124.0199966430664,-27.56999969482422 86.21800231933594,-61.74800109863281 C46.297000885009766,-97.83999633789062 -6.517000198364258,-94.58499908447266 -23.708999633789062,-94.15699768066406 C-40.9010009765625,-93.7300033569336 -81.6719970703125,-73.63200378417969 -81.6719970703125,-73.63200378417969z"></path><path stroke-linecap="butt" stroke-linejoin="miter" fill-opacity="0" stroke-miterlimit="10" stroke="rgb(166,80,35)" stroke-opacity="1" stroke-width="8" d=" M-81.6719970703125,-73.63200378417969 C-81.6719970703125,-73.63200378417969 -119.98600006103516,-46.69300079345703 -125.38899993896484,2.4830000400543213 C-130.79299926757812,51.659000396728516 -98.86399841308594,83.302001953125 -28.621000289916992,90.57099914550781 C41.62200164794922,97.83999633789062 97.7020034790039,89.55000305175781 114.32099914550781,52.513999938964844 C130.79299926757812,15.805000305175781 124.0199966430664,-27.56999969482422 86.21800231933594,-61.74800109863281 C46.297000885009766,-97.83999633789062 -6.517000198364258,-94.58499908447266 -23.708999633789062,-94.15699768066406 C-40.9010009765625,-93.7300033569336 -81.6719970703125,-73.63200378417969 -81.6719970703125,-73.63200378417969z"></path></g><g opacity="1" transform="matrix(1,0,0,1,265.4700012207031,174.20899963378906)"><path fill="url(#__lottie_element_14)" fill-opacity="1" d=" M-74.99700164794922,-65.4010009765625 C-74.99700164794922,-65.4010009765625 -110.28099822998047,-41.2869987487793 -115.25599670410156,2.7300000190734863 C-120.23200225830078,46.74700164794922 -90.83000183105469,75.07099914550781 -26.14299964904785,81.5780029296875 C38.54399871826172,88.08499908447266 93.99500274658203,80.81099700927734 107.11299896240234,47.12799835205078 C120.23200225830078,13.446000099182129 115.5739974975586,-16.22800064086914 84.36199951171875,-50.29399871826172 C53.14899826049805,-84.35900115966797 -3.5409998893737793,-88.08499908447266 -19.374000549316406,-87.7020034790039 C-35.20600128173828,-87.31900024414062 -74.99700164794922,-65.4010009765625 -74.99700164794922,-65.4010009765625z"></path></g></g></g><g style="display: block;" transform="matrix(1.000001311302185,0,0,1.000001311302185,-2.70025634765625,1.2974700927734375)" opacity="1"><g opacity="1" transform="matrix(1,0,0,1,267.36700439453125,207.96800231933594)"><path fill="rgb(168,46,84)" fill-opacity="1" d=" M-58.07400131225586,-8.02299976348877 C-58.72999954223633,-10.11299991607666 -57.47800064086914,-12.317999839782715 -55.36800003051758,-12.75 C-45.0260009765625,-14.866999626159668 -16.905000686645508,-19.6560001373291 4.078000068664551,-23.298999786376953 C22.295000076293945,-26.461999893188477 41.2869987487793,-29.229000091552734 54.297000885009766,-31.743999481201172 C56.42499923706055,-32.154998779296875 58.361000061035156,-30.406999588012695 58.41899871826172,-28.197999954223633 C58.72999954223633,-16.492000579833984 55.611000061035156,16.538000106811523 11.59000015258789,23.69300079345703 C-40.474998474121094,32.154998779296875 -54.63999938964844,2.9140000343322754 -58.07400131225586,-8.02299976348877z"></path><path stroke-linecap="butt" stroke-linejoin="miter" fill-opacity="0" stroke-miterlimit="10" stroke="rgb(68,22,43)" stroke-opacity="1" stroke-width="6.128" d=" M-58.07400131225586,-8.02299976348877 C-58.72999954223633,-10.11299991607666 -57.47800064086914,-12.317999839782715 -55.36800003051758,-12.75 C-45.0260009765625,-14.866999626159668 -16.905000686645508,-19.6560001373291 4.078000068664551,-23.298999786376953 C22.295000076293945,-26.461999893188477 41.2869987487793,-29.229000091552734 54.297000885009766,-31.743999481201172 C56.42499923706055,-32.154998779296875 58.361000061035156,-30.406999588012695 58.41899871826172,-28.197999954223633 C58.72999954223633,-16.492000579833984 55.611000061035156,16.538000106811523 11.59000015258789,23.69300079345703 C-40.474998474121094,32.154998779296875 -54.63999938964844,2.9140000343322754 -58.07400131225586,-8.02299976348877z"></path></g><g opacity="1" transform="matrix(1,0,0,1,258.9389953613281,210.54400634765625)"><path fill="rgb(67,20,44)" fill-opacity="1" d=" M37.10599899291992,14.927000045776367 C37.10599899291992,14.927000045776367 33.452999114990234,-9.237000465393066 18.527999877929688,-14.934000015258789 C16.402999877929688,-15.744999885559082 14.541999816894531,-16.281999588012695 11.940999984741211,-16.472999572753906 C-12.934000015258789,-18.297000885009766 -21.299999237060547,-5.488999843597412 -22.784000396728516,2.813999891281128 C-24.268999099731445,11.116999626159668 -21.906999588012695,20.29199981689453 -21.906999588012695,20.29199981689453 C-21.906999588012695,20.29199981689453 15.317999839782715,23.562999725341797 15.317999839782715,23.562999725341797 C15.317999839782715,23.562999725341797 37.10599899291992,14.927000045776367 37.10599899291992,14.927000045776367z"></path></g><g opacity="1" transform="matrix(1,0,0,1,267.6390075683594,218.4010009765625)"><path fill="rgb(236,121,179)" fill-opacity="1" d=" M-30.895000457763672,7.395999908447266 C-30.895000457763672,7.395999908447266 -27.545000076293945,-3.640000104904175 -8.755000114440918,-7.485000133514404 C10.03499984741211,-11.331999778747559 21.878999710083008,-3.8550000190734863 25.43600082397461,-1.503999948501587 C28.993000030517578,0.847000002861023 30.895999908447266,2.4059998989105225 30.895999908447266,2.4059998989105225 C30.895999908447266,2.4059998989105225 23.232999801635742,9.831000328063965 4.843999862670898,10.581999778747559 C-13.545000076293945,11.331999778747559 -30.895000457763672,7.395999908447266 -30.895000457763672,7.395999908447266z"></path><path stroke-linecap="butt" stroke-linejoin="miter" fill-opacity="0" stroke-miterlimit="10" stroke="rgb(213,75,128)" stroke-opacity="1" stroke-width="5.106" d=" M-30.895000457763672,7.395999908447266 C-30.895000457763672,7.395999908447266 -27.545000076293945,-3.640000104904175 -8.755000114440918,-7.485000133514404 C10.03499984741211,-11.331999778747559 21.878999710083008,-3.8550000190734863 25.43600082397461,-1.503999948501587 C28.993000030517578,0.847000002861023 30.895999908447266,2.4059998989105225 30.895999908447266,2.4059998989105225 C30.895999908447266,2.4059998989105225 23.232999801635742,9.831000328063965 4.843999862670898,10.581999778747559 C-13.545000076293945,11.331999778747559 -30.895000457763672,7.395999908447266 -30.895000457763672,7.395999908447266z"></path></g><g opacity="1" transform="matrix(1,0,0,1,249.8179931640625,196.36399841308594)"><path fill="rgb(255,255,255)" fill-opacity="1" d=" M-13.281999588012695,-4.646999835968018 C-13.281999588012695,-4.646999835968018 -9.309000015258789,6.931000232696533 -3.7079999446868896,7.809999942779541 C1.7740000486373901,8.668999671936035 9.586999893188477,5.809000015258789 10.696999549865723,4.693999767303467 C11.807000160217285,3.5799999237060547 13.282999992370605,2.1510000228881836 13.07800006866455,-1.4989999532699585 C12.873000144958496,-5.1479997634887695 12.14799976348877,-8.668999671936035 12.14799976348877,-8.668999671936035 C12.14799976348877,-8.668999671936035 -13.281999588012695,-4.646999835968018 -13.281999588012695,-4.646999835968018z"></path><path stroke-linecap="butt" stroke-linejoin="miter" fill-opacity="0" stroke-miterlimit="10" stroke="rgb(64,108,196)" stroke-opacity="1" stroke-width="6.128" d=" M-13.281999588012695,-4.646999835968018 C-13.281999588012695,-4.646999835968018 -9.309000015258789,6.931000232696533 -3.7079999446868896,7.809999942779541 C1.7740000486373901,8.668999671936035 9.586999893188477,5.809000015258789 10.696999549865723,4.693999767303467 C11.807000160217285,3.5799999237060547 13.282999992370605,2.1510000228881836 13.07800006866455,-1.4989999532699585 C12.873000144958496,-5.1479997634887695 12.14799976348877,-8.668999671936035 12.14799976348877,-8.668999671936035 C12.14799976348877,-8.668999671936035 -13.281999588012695,-4.646999835968018 -13.281999588012695,-4.646999835968018z"></path></g><g opacity="1" transform="matrix(1,0,0,1,288.07598876953125,189.72000122070312)"><path fill="rgb(255,255,255)" fill-opacity="1" d=" M-12.177000045776367,-3.819000005722046 C-12.177000045776367,-3.819000005722046 -8.123000144958496,4.625 -6.940000057220459,6.177000045776367 C-5.757999897003174,7.7270002365112305 -3.2309999465942383,8.644000053405762 0.8320000171661377,7.901000022888184 C3.8429999351501465,7.349999904632568 10.149999618530273,6.546000003814697 11.163999557495117,4.132999897003174 C12.177000045776367,1.7200000286102295 10.46399974822998,-8.642999649047852 10.46399974822998,-8.642999649047852 C10.46399974822998,-8.642999649047852 -12.177000045776367,-3.819000005722046 -12.177000045776367,-3.819000005722046z"></path><path stroke-linecap="butt" stroke-linejoin="miter" fill-opacity="0" stroke-miterlimit="10" stroke="rgb(65,108,197)" stroke-opacity="1" stroke-width="6.128" d=" M-12.177000045776367,-3.819000005722046 C-12.177000045776367,-3.819000005722046 -8.123000144958496,4.625 -6.940000057220459,6.177000045776367 C-5.757999897003174,7.7270002365112305 -3.2309999465942383,8.644000053405762 0.8320000171661377,7.901000022888184 C3.8429999351501465,7.349999904632568 10.149999618530273,6.546000003814697 11.163999557495117,4.132999897003174 C12.177000045776367,1.7200000286102295 10.46399974822998,-8.642999649047852 10.46399974822998,-8.642999649047852 C10.46399974822998,-8.642999649047852 -12.177000045776367,-3.819000005722046 -12.177000045776367,-3.819000005722046z"></path></g><g opacity="1" transform="matrix(1,0,0,1,267.36700439453125,207.96800231933594)"><path stroke-linecap="butt" stroke-linejoin="miter" fill-opacity="0" stroke-miterlimit="10" stroke="rgb(68,22,43)" stroke-opacity="1" stroke-width="6.128" d=" M-58.07400131225586,-8.02299976348877 C-58.72999954223633,-10.11299991607666 -57.47800064086914,-12.317999839782715 -55.36800003051758,-12.75 C-45.0260009765625,-14.866999626159668 -16.905000686645508,-19.6560001373291 4.078000068664551,-23.298999786376953 C22.295000076293945,-26.461999893188477 41.2869987487793,-29.229000091552734 54.297000885009766,-31.743999481201172 C56.42499923706055,-32.154998779296875 58.361000061035156,-30.406999588012695 58.41899871826172,-28.197999954223633 C58.72999954223633,-16.492000579833984 55.611000061035156,16.538000106811523 11.59000015258789,23.69300079345703 C-40.474998474121094,32.154998779296875 -54.63999938964844,2.9140000343322754 -58.07400131225586,-8.02299976348877z"></path></g></g><g style="display: block;" transform="matrix(1.1900016069412231,0,0,1.2300015687942505,-41.19830322265625,-34.6685791015625)" opacity="1"><g opacity="1" transform="matrix(1,0,0,1,0,0)"><g opacity="1" transform="matrix(1,0,0,1,197.82400512695312,157.26600646972656)"><path fill="rgb(244,153,118)" fill-opacity="1" d=" M-33.75699996948242,7.831999778747559 C-31.06999969482422,15.616000175476074 -21.840999603271484,26.43000030517578 2.3940000534057617,21.683000564575195 C26.584999084472656,16.94499969482422 34.79100036621094,6.133999824523926 36.20199966430664,-2.1659998893737793 C37.42399978637695,-9.35099983215332 34.06399917602539,-17.78700065612793 17.871999740600586,-21.847999572753906 C7.298999786376953,-24.500999450683594 -10.437000274658203,-26.43000030517578 -24.285999298095703,-18.724000930786133 C-33.36600112915039,-13.670999526977539 -37.42300033569336,-2.7909998893737793 -33.75699996948242,7.831999778747559z"></path></g><g opacity="1" transform="matrix(1,0,0,1,201.3159942626953,152.21400451660156)"><path fill="rgb(255,255,255)" fill-opacity="1" d=" M-31.68000030517578,7.375999927520752 C-29.159000396728516,14.708000183105469 -20.499000549316406,24.893999099731445 2.244999885559082,20.42300033569336 C24.947999954223633,15.960000038146973 32.64899826049805,5.7769999504089355 33.972999572753906,-2.0399999618530273 C35.119998931884766,-8.807999610900879 31.965999603271484,-16.753000259399414 16.770999908447266,-20.57900047302246 C6.8480000495910645,-23.07699966430664 -9.795999526977539,-24.893999099731445 -22.792999267578125,-17.63599967956543 C-31.315000534057617,-12.876999855041504 -35.119998931884766,-2.628000020980835 -31.68000030517578,7.375999927520752z"></path><path stroke-linecap="butt" stroke-linejoin="miter" fill-opacity="0" stroke-miterlimit="10" stroke="rgb(102,68,104)" stroke-opacity="1" stroke-width="6" d=" M-31.68000030517578,7.375999927520752 C-29.159000396728516,14.708000183105469 -20.499000549316406,24.893999099731445 2.244999885559082,20.42300033569336 C24.947999954223633,15.960000038146973 32.64899826049805,5.7769999504089355 33.972999572753906,-2.0399999618530273 C35.119998931884766,-8.807999610900879 31.965999603271484,-16.753000259399414 16.770999908447266,-20.57900047302246 C6.8480000495910645,-23.07699966430664 -9.795999526977539,-24.893999099731445 -22.792999267578125,-17.63599967956543 C-31.315000534057617,-12.876999855041504 -35.119998931884766,-2.628000020980835 -31.68000030517578,7.375999927520752z"></path></g><g opacity="1" transform="matrix(1,0,0,1,201.9709930419922,151.8260040283203)"><g opacity="1" transform="matrix(1,0,0,1,0,0)"></g><path fill="rgb(125,95,126)" fill-opacity="0.34" d=" M16.115999221801758,-20.190000534057617 C6.191999912261963,-22.687999725341797 -15.125,-23.04400062561035 -23.448999404907227,-17.246999740600586 C-31.476999282836914,-11.656000137329102 -35.777000427246094,-2.240000009536743 -32.33700180053711,7.764999866485596 C-29.81599998474121,15.095999717712402 -20.898000717163086,30.28499984741211 1.8459999561309814,25.815000534057617 C24.548999786376953,21.351999282836914 31.993000030517578,6.165999889373779 33.31700134277344,-1.6510000228881836 C34.4640007019043,-8.418999671936035 31.31100082397461,-16.36400032043457 16.115999221801758,-20.190000534057617z M25.691999435424805,-4.117000102996826 C24.631000518798828,2.013000011444092 18.461000442504883,9.996999740600586 0.27000001072883606,13.496000289916992 C-17.95400047302246,17.00200080871582 -24.89299964904785,9.015000343322754 -26.913000106811523,3.2669999599456787 C-29.670000076293945,-4.578999996185303 -26.224000930786133,-11.963000297546387 -19.79199981689453,-16.34600067138672 C-13.123000144958496,-20.892000198364258 3.9579999446868896,-20.613000869750977 11.909000396728516,-18.65399932861328 C24.083999633789062,-15.654000282287598 26.611000061035156,-9.423999786376953 25.691999435424805,-4.117000102996826z"></path></g><g opacity="1" transform="matrix(1,0,0,1,-15,3.5)"><g opacity="1" transform="matrix(1.1200000047683716,0,0,1.1200000047683716,217.9340057373047,146.10699462890625)"><path fill="rgb(28,31,35)" fill-opacity="1" d=" M6.734000205993652,1.1670000553131104 C6.105999946594238,4.984000205993652 2.5820000171661377,7.556000232696533 -1.1369999647140503,6.9120001792907715 C-4.855999946594238,6.267000198364258 -7.361999988555908,2.6500000953674316 -6.734000205993652,-1.1670000553131104 C-6.105999946594238,-4.984000205993652 -2.5820000171661377,-7.556000232696533 1.1369999647140503,-6.9120001792907715 C4.855999946594238,-6.267000198364258 7.361999988555908,-2.6500000953674316 6.734000205993652,1.1670000553131104z"></path></g><g opacity="1" transform="matrix(1,0,0,1,212.30799865722656,146.66400146484375)"><path fill="rgb(255,255,255)" fill-opacity="1" d=" M4.807000160217285,-0.3400000035762787 C4.885000228881836,0.8209999799728394 2.7960000038146973,1.9140000343322754 0.14100000262260437,2.1010000705718994 C-2.5139999389648438,2.2890000343322754 -4.729000091552734,1.5 -4.807000160217285,0.3400000035762787 C-4.885000228881836,-0.8209999799728394 -2.7960000038146973,-1.9149999618530273 -0.14100000262260437,-2.1019999980926514 C2.5139999389648438,-2.2899999618530273 4.729000091552734,-1.5010000467300415 4.807000160217285,-0.3400000035762787z"></path></g></g><g opacity="1" transform="matrix(1,0,0,1,201.3159942626953,152.21400451660156)"><path stroke-linecap="butt" stroke-linejoin="miter" fill-opacity="0" stroke-miterlimit="10" stroke="rgb(102,68,104)" stroke-opacity="1" stroke-width="6" d=" M-31.68000030517578,7.375999927520752 C-29.159000396728516,14.708000183105469 -20.499000549316406,24.893999099731445 2.244999885559082,20.42300033569336 C24.947999954223633,15.960000038146973 32.64899826049805,5.7769999504089355 33.972999572753906,-2.0399999618530273 C35.119998931884766,-8.807999610900879 31.965999603271484,-16.753000259399414 16.770999908447266,-20.57900047302246 C6.8480000495910645,-23.07699966430664 -9.795999526977539,-24.893999099731445 -22.792999267578125,-17.63599967956543 C-31.315000534057617,-12.876999855041504 -35.119998931884766,-2.628000020980835 -31.68000030517578,7.375999927520752z"></path></g></g></g><g style="display: block;" transform="matrix(1.1399976015090942,0,0,1.1400024890899658,-38.4349365234375,-15.595245361328125)" opacity="1"><g opacity="1" transform="matrix(1,0,0,1,304.4289855957031,137.8679962158203)"><path fill="rgb(244,153,118)" fill-opacity="1" d=" M-1.0870000123977661,-25.83300018310547 C-14.487000465393066,-26.8700008392334 -24.722999572753906,-22.347000122070312 -29.965999603271484,-13.862000465393066 C-35.382999420166016,-5.093999862670898 -36.007999420166016,11.09000015258789 -14.734000205993652,20.554000854492188 C-0.5350000262260437,26.8700008392334 12.017000198364258,26.454999923706055 21.04599952697754,22.878999710083008 C27.256999969482422,20.420000076293945 33.20899963378906,15.027000427246094 34.499000549316406,5.646999835968018 C36.007999420166016,-5.333000183105469 29.798999786376953,-12.493000030517578 24.03700065612793,-17.198999404907227 C16.533000946044922,-23.32900047302246 5.656000137329102,-25.31100082397461 -1.0870000123977661,-25.83300018310547z"></path></g><g opacity="1" transform="matrix(1,0,0,1,308.22900390625,135.281005859375)"><g opacity="1" transform="matrix(1,0,0,1,0,0)"><path fill="rgb(255,0,0)" fill-opacity="1" d="M0 0"></path></g><path fill="rgb(255,255,255)" fill-opacity="1" d=" M-1.0609999895095825,-23.481000900268555 C-13.774999618530273,-24.437999725341797 -23.48200035095215,-20.336000442504883 -28.44700050354004,-12.626999855041504 C-33.57699966430664,-4.660999774932861 -34.15399932861328,10.053000450134277 -13.958999633789062,18.68000030517578 C-0.4819999933242798,24.437000274658203 11.425999641418457,24.073999404907227 19.98900032043457,20.83300018310547 C25.878999710083008,18.60300064086914 31.520999908447266,13.706000328063965 32.73400115966797,5.178999900817871 C34.154998779296875,-4.802000045776367 28.256000518798828,-11.319999694824219 22.78499984741211,-15.604999542236328 C15.659000396728516,-21.184999465942383 5.336999893188477,-22.999000549316406 -1.0609999895095825,-23.481000900268555z"></path><path stroke-linecap="butt" stroke-linejoin="miter" fill-opacity="0" stroke-miterlimit="10" stroke="rgb(102,68,104)" stroke-opacity="1" stroke-width="6" d=" M-1.0609999895095825,-23.481000900268555 C-13.774999618530273,-24.437999725341797 -23.48200035095215,-20.336000442504883 -28.44700050354004,-12.626999855041504 C-33.57699966430664,-4.660999774932861 -34.15399932861328,10.053000450134277 -13.958999633789062,18.68000030517578 C-0.4819999933242798,24.437000274658203 11.425999641418457,24.073999404907227 19.98900032043457,20.83300018310547 C25.878999710083008,18.60300064086914 31.520999908447266,13.706000328063965 32.73400115966797,5.178999900817871 C34.154998779296875,-4.802000045776367 28.256000518798828,-11.319999694824219 22.78499984741211,-15.604999542236328 C15.659000396728516,-21.184999465942383 5.336999893188477,-22.999000549316406 -1.0609999895095825,-23.481000900268555z"></path></g><g opacity="0.33" transform="matrix(1,0,0,1,307.6570129394531,135.11199951171875)"><path fill="rgb(125,95,126)" fill-opacity="1" d=" M29.87299919128418,-12.515000343322754 C31.628999710083008,-9.482999801635742 31.641000747680664,-5.742000102996826 30.083999633789062,-1.496999979019165 C27.49799919128418,5.552000045776367 24.356000900268555,9.956000328063965 18.242000579833984,12.960000038146973 C13.164999961853027,15.454999923706055 2.2360000610351562,16.78700065612793 -8.769000053405762,12.342000007629395 C-26.131999969482422,5.328999996185303 -26.315000534057617,-7.448999881744385 -22.509000778198242,-14.786999702453613 C-20.363000869750977,-18.927000045776367 -14.305999755859375,-19.64699935913086 -9.571999549865723,-21.075000762939453 C-18.351999282836914,-20.117000579833984 -24.082000732421875,-20.756999969482422 -27.368999481201172,-14.595000267028809 C-31.886999130249023,-6.127999782562256 -33.14899826049805,8.378000259399414 -12.694999694824219,17.115999221801758 C0.9570000171661377,22.947999954223633 13.019000053405762,22.57900047302246 21.691999435424805,19.29599952697754 C27.658000946044922,17.03700065612793 30.652000427246094,10.319000244140625 31.881000518798828,1.6820000410079956 C32.84400177001953,-5.085999965667725 33.20100021362305,-8.517000198364258 29.87299919128418,-12.515000343322754z"></path></g><g opacity="1" transform="matrix(1,0,0,1,-14.69500732421875,-5.0980072021484375)"><g opacity="1" transform="matrix(1.0700000524520874,0,0,1.0700000524520874,324.48699951171875,138.8520050048828)"><path fill="rgb(28,31,35)" fill-opacity="1" d=" M7.763000011444092,2.4119999408721924 C6.429999828338623,6.699999809265137 1.8739999532699585,9.095000267028809 -2.4130001068115234,7.76200008392334 C-6.699999809265137,6.429999828338623 -9.095999717712402,1.875 -7.763000011444092,-2.4119999408721924 C-6.431000232696533,-6.698999881744385 -1.8739999532699585,-9.095000267028809 2.4130001068115234,-7.76200008392334 C6.701000213623047,-6.429999828338623 9.095999717712402,-1.875 7.763000011444092,2.4119999408721924z"></path></g><g opacity="1" transform="matrix(1,0,0,1,317.76300048828125,138.59800720214844)"><path fill="rgb(255,255,255)" fill-opacity="1" d=" M1.3489999771118164,0.023000000044703484 C1.2610000371932983,1.36899995803833 -1.3730000257492065,2.2939999103546143 -4.533999919891357,2.0859999656677246 C-7.693999767303467,1.8799999952316284 -10.185999870300293,0.6209999918937683 -10.097999572753906,-0.7260000109672546 C-10.008999824523926,-2.072000026702881 -7.375999927520752,-2.996999979019165 -4.215000152587891,-2.7899999618530273 C-1.0540000200271606,-2.5829999446868896 1.437000036239624,-1.3240000009536743 1.3489999771118164,0.023000000044703484z"></path></g></g><g opacity="1" transform="matrix(1,0,0,1,308.22900390625,135.281005859375)"><path stroke-linecap="butt" stroke-linejoin="miter" fill-opacity="0" stroke-miterlimit="10" stroke="rgb(102,68,104)" stroke-opacity="1" stroke-width="6" d=" M-1.0609999895095825,-23.481000900268555 C-13.774999618530273,-24.437999725341797 -23.48200035095215,-20.336000442504883 -28.44700050354004,-12.626999855041504 C-33.57699966430664,-4.660999774932861 -34.15399932861328,10.053000450134277 -13.958999633789062,18.68000030517578 C-0.4819999933242798,24.437000274658203 11.425999641418457,24.073999404907227 19.98900032043457,20.83300018310547 C25.878999710083008,18.60300064086914 31.520999908447266,13.706000328063965 32.73400115966797,5.178999900817871 C34.154998779296875,-4.802000045776367 28.256000518798828,-11.319999694824219 22.78499984741211,-15.604999542236328 C15.659000396728516,-21.184999465942383 5.336999893188477,-22.999000549316406 -1.0609999895095825,-23.481000900268555z"></path></g></g><g style="display: block;" transform="matrix(0.8259862661361694,0,0,0.8259862661361694,36.654296875,13.7491455078125)" opacity="1"><g opacity="1" transform="matrix(1,0,0,1,230.8280029296875,102.2969970703125)"><path fill="rgb(244,153,118)" fill-opacity="1" d=" M16.746000289916992,-19.496000289916992 C16.746000289916992,-19.496000289916992 57.31800079345703,-19.135000228881836 57.31800079345703,-19.135000228881836 C57.31800079345703,-19.135000228881836 38.279998779296875,11.456999778747559 -11.02400016784668,13.008000373840332 C-58.31800079345703,14.496000289916992 -57.8489990234375,8.362000465393066 -57.8489990234375,8.362000465393066 C-57.8489990234375,8.362000465393066 -48.54800033569336,-9.079000473022461 -48.54800033569336,-9.079000473022461 C-48.54800033569336,-9.079000473022461 16.746000289916992,-19.496000289916992 16.746000289916992,-19.496000289916992z"></path></g><g opacity="1" transform="matrix(1,0,0,1,228.99200439453125,78.96499633789062)"><path fill="rgb(247,215,74)" fill-opacity="1" d=" M-49.78300094604492,28.766000747680664 C-51.36600112915039,28.43899917602539 -52.58300018310547,27.190000534057617 -52.86399841308594,25.597999572753906 C-54.3129997253418,17.367000579833984 -57.34400177001953,-8.244999885559082 -41.54999923706055,-19.277000427246094 C-25.836000442504883,-30.253999710083008 6.785999774932861,-34.42599868774414 23.069000244140625,-32.433998107910156 C39.35200119018555,-30.44099998474121 43.73099899291992,-22.29800033569336 47.46799850463867,-16.777000427246094 C51.154998779296875,-11.329000473022461 55.22600173950195,0.01600000075995922 56.86199951171875,4.815999984741211 C57.34400177001953,6.230999946594238 56.9630012512207,7.789999961853027 55.87699890136719,8.817000389099121 C51.45600128173828,12.998000144958496 38.145999908447266,23.493999481201172 11.47700023651123,28.82900047302246 C-16.503999710083008,34.426998138427734 -41.75199890136719,30.423999786376953 -49.78300094604492,28.766000747680664z"></path><path stroke-linecap="butt" stroke-linejoin="miter" fill-opacity="0" stroke-miterlimit="10" stroke="rgb(133,22,4)" stroke-opacity="1" stroke-width="9" d=" M-49.78300094604492,28.766000747680664 C-51.36600112915039,28.43899917602539 -52.58300018310547,27.190000534057617 -52.86399841308594,25.597999572753906 C-54.3129997253418,17.367000579833984 -57.34400177001953,-8.244999885559082 -41.54999923706055,-19.277000427246094 C-25.836000442504883,-30.253999710083008 6.785999774932861,-34.42599868774414 23.069000244140625,-32.433998107910156 C39.35200119018555,-30.44099998474121 43.73099899291992,-22.29800033569336 47.46799850463867,-16.777000427246094 C51.154998779296875,-11.329000473022461 55.22600173950195,0.01600000075995922 56.86199951171875,4.815999984741211 C57.34400177001953,6.230999946594238 56.9630012512207,7.789999961853027 55.87699890136719,8.817000389099121 C51.45600128173828,12.998000144958496 38.145999908447266,23.493999481201172 11.47700023651123,28.82900047302246 C-16.503999710083008,34.426998138427734 -41.75199890136719,30.423999786376953 -49.78300094604492,28.766000747680664z"></path></g><g opacity="1" transform="matrix(1,0,0,1,251.83999633789062,72.9010009765625)"><path fill="rgb(223,37,18)" fill-opacity="1" d=" M-34.7869987487793,-18.534000396728516 C-34.7869987487793,-18.534000396728516 -16.264999389648438,-18.038999557495117 -5.664999961853027,-8.701000213623047 C1.7050000429153442,-2.2070000171661377 14.246000289916992,27.3799991607666 14.246000289916992,27.3799991607666 C14.246000289916992,27.3799991607666 23.284000396728516,23.972000122070312 27.9060001373291,20.816999435424805 C32.862998962402344,17.43400001525879 34.7869987487793,14.291000366210938 34.7869987487793,14.291000366210938 C34.7869987487793,14.291000366210938 29.92799949645996,-5.479000091552734 21.041000366210938,-16.40399932861328 C13.118000030517578,-26.143999099731445 0.8510000109672546,-27.106000900268555 -7.824999809265137,-27.243000030517578 C-16.5,-27.3799991607666 -33.99800109863281,-25.924999237060547 -33.99800109863281,-25.924999237060547 C-33.99800109863281,-25.924999237060547 -34.7869987487793,-18.534000396728516 -34.7869987487793,-18.534000396728516z"></path></g><g opacity="1" transform="matrix(1,0,0,1,190.0279998779297,80.0780029296875)"><path fill="rgb(223,37,18)" fill-opacity="1" d=" M22.270999908447266,-22.99799919128418 C22.270999908447266,-22.99799919128418 10.248000144958496,-18.64299964904785 7.979000091552734,-6.876999855041504 C5.710999965667725,4.888999938964844 7.519000053405762,22.3439998626709 7.519000053405762,22.3439998626709 C7.519000053405762,22.3439998626709 9.298999786376953,31.410999298095703 9.298999786376953,31.410999298095703 C9.298999786376953,31.410999298095703 -0.6909999847412109,30.868999481201172 -7.395999908447266,29.225000381469727 C-11.454999923706055,28.229999542236328 -13.878000259399414,25.660999298095703 -13.878000259399414,25.660999298095703 C-13.878000259399414,25.660999298095703 -22.270999908447266,-10.67300033569336 -7.199999809265137,-19.808000564575195 C7.869999885559082,-28.941999435424805 21.386999130249023,-31.410999298095703 21.386999130249023,-31.410999298095703 C21.386999130249023,-31.410999298095703 22.270999908447266,-22.99799919128418 22.270999908447266,-22.99799919128418z"></path></g><g opacity="1" transform="matrix(1,0,0,1,228.99200439453125,78.96499633789062)"><path stroke-linecap="butt" stroke-linejoin="miter" fill-opacity="0" stroke-miterlimit="10" stroke="rgb(133,22,4)" stroke-opacity="1" stroke-width="9" d=" M-49.78300094604492,28.766000747680664 C-51.36600112915039,28.43899917602539 -52.58300018310547,27.190000534057617 -52.86399841308594,25.597999572753906 C-54.3129997253418,17.367000579833984 -57.34400177001953,-8.244999885559082 -41.54999923706055,-19.277000427246094 C-25.836000442504883,-30.253999710083008 6.785999774932861,-34.42599868774414 23.069000244140625,-32.433998107910156 C39.35200119018555,-30.44099998474121 43.73099899291992,-22.29800033569336 47.46799850463867,-16.777000427246094 C51.154998779296875,-11.329000473022461 55.22600173950195,0.01600000075995922 56.86199951171875,4.815999984741211 C57.34400177001953,6.230999946594238 56.9630012512207,7.789999961853027 55.87699890136719,8.817000389099121 C51.45600128173828,12.998000144958496 38.145999908447266,23.493999481201172 11.47700023651123,28.82900047302246 C-16.503999710083008,34.426998138427734 -41.75199890136719,30.423999786376953 -49.78300094604492,28.766000747680664z"></path></g></g><g style="display: block;" transform="matrix(0.8635697364807129,0.025328446179628372,-0.02469753660261631,0.8420589566230774,260.59722900390625,249.74215698242188)" opacity="1"><g opacity="0" transform="matrix(0.9874221086502075,-0.15810637176036835,0.15810637176036835,0.9874221086502075,4.853619575500488,6.0078125)"><path fill="rgb(237,122,179)" fill-opacity="1" d=" M7.5,-41.68299865722656 C-3.128000020980835,-38.417999267578125 1.2309999465942383,-43.77799987792969 -8.63700008392334,-41.48500061035156 C-20.229999542236328,-38.79100036621094 -12.928999900817871,-43.055999755859375 -22.37700080871582,-36.933998107910156 C-32.53499984741211,-30.351999282836914 -30.225000381469727,-35.290000915527344 -32.0989990234375,-31.231000900268555 C-33.196998596191406,-28.85300064086914 -37.527000427246094,-31.493000030517578 -26.027000427246094,-27.993000030517578 C-14.527000427246094,-24.493000030517578 -23.240999221801758,-26.61400032043457 -13.385000228881836,-24.64699935913086 C-6.508999824523926,-23.274999618530273 -2.553999900817871,-24.481000900268555 0.18000000715255737,-24.746999740600586 C5.480999946594238,-25.261999130249023 14.697999954223633,-27.50200080871582 18.197999954223633,-29.50200080871582 C21.697999954223633,-31.50200080871582 34.6870002746582,-34.27899932861328 34.6870002746582,-34.27899932861328 C34.6870002746582,-34.27899932861328 24.617000579833984,-46.94200134277344 7.5,-41.68299865722656z"></path><path stroke-linecap="round" stroke-linejoin="round" fill-opacity="0" stroke="rgb(214,76,128)" stroke-opacity="1" stroke-width="9" d=" M7.5,-41.68299865722656 C-3.128000020980835,-38.417999267578125 1.2309999465942383,-43.77799987792969 -8.63700008392334,-41.48500061035156 C-20.229999542236328,-38.79100036621094 -12.928999900817871,-43.055999755859375 -22.37700080871582,-36.933998107910156 C-32.53499984741211,-30.351999282836914 -30.225000381469727,-35.290000915527344 -32.0989990234375,-31.231000900268555 C-33.196998596191406,-28.85300064086914 -37.527000427246094,-31.493000030517578 -26.027000427246094,-27.993000030517578 C-14.527000427246094,-24.493000030517578 -23.240999221801758,-26.61400032043457 -13.385000228881836,-24.64699935913086 C-6.508999824523926,-23.274999618530273 -2.553999900817871,-24.481000900268555 0.18000000715255737,-24.746999740600586 C5.480999946594238,-25.261999130249023 14.697999954223633,-27.50200080871582 18.197999954223633,-29.50200080871582 C21.697999954223633,-31.50200080871582 34.6870002746582,-34.27899932861328 34.6870002746582,-34.27899932861328 C34.6870002746582,-34.27899932861328 24.617000579833984,-46.94200134277344 7.5,-41.68299865722656z"></path></g><g opacity="1" transform="matrix(1,0,0,1,0,0)"><path stroke-linecap="round" stroke-linejoin="round" fill-opacity="0" stroke="rgb(214,76,128)" stroke-opacity="0" stroke-width="7" d=" M-14.42199993133545,-27.392000198364258 C-14.42199993133545,-27.392000198364258 -20.360000610351562,-26.437999725341797 -6.85099983215332,-34.43000030517578 C1.1449999809265137,-39.15999984741211 11.763999938964844,-34.71900177001953 11.763999938964844,-34.71900177001953"></path></g></g><g style="display: block;" transform="matrix(0.8259862661361694,0,0,0.8259862661361694,36.654296875,13.7491455078125)" opacity="1"><g opacity="1" transform="matrix(1,0,0,1,250.53199768066406,25.248001098632812)"><path fill="rgb(149,164,187)" fill-opacity="1" d=" M-34.27899932861328,10.647000312805176 C-34.27899932861328,10.647000312805176 2.249000072479248,-9.406000137329102 17.194000244140625,-11.503999710083008 C32.138999938964844,-13.60200023651123 34.27899932861328,-5.354000091552734 31.641000747680664,-0.18400000035762787 C29.003999710083008,4.986000061035156 10.38599967956543,9.088000297546387 -3.3320000171661377,10.697999954223633 C-17.049999237060547,12.309000015258789 -31.666000366210938,13.60200023651123 -31.666000366210938,13.60200023651123 C-31.666000366210938,13.60200023651123 -34.27899932861328,10.647000312805176 -34.27899932861328,10.647000312805176z"></path><path stroke-linecap="butt" stroke-linejoin="miter" fill-opacity="0" stroke-miterlimit="10" stroke="rgb(70,70,119)" stroke-opacity="1" stroke-width="8" d=" M-34.27899932861328,10.647000312805176 C-34.27899932861328,10.647000312805176 2.249000072479248,-9.406000137329102 17.194000244140625,-11.503999710083008 C32.138999938964844,-13.60200023651123 34.27899932861328,-5.354000091552734 31.641000747680664,-0.18400000035762787 C29.003999710083008,4.986000061035156 10.38599967956543,9.088000297546387 -3.3320000171661377,10.697999954223633 C-17.049999237060547,12.309000015258789 -31.666000366210938,13.60200023651123 -31.666000366210938,13.60200023651123 C-31.666000366210938,13.60200023651123 -34.27899932861328,10.647000312805176 -34.27899932861328,10.647000312805176z"></path></g><g opacity="1" transform="matrix(1,0,0,1,171.22299194335938,46.67100143432617)"><path fill="rgb(149,164,187)" fill-opacity="1" d=" M37.44200134277344,-11.029000282287598 C37.44200134277344,-11.029000282287598 -15.937999725341797,-9.590999603271484 -27.499000549316406,-6.8470001220703125 C-39.06100082397461,-4.103000164031982 -37.417999267578125,7.293000221252441 -26.016000747680664,9.16100025177002 C-14.61299991607666,11.027999877929688 5.374000072479248,5.189000129699707 13.784000396728516,2.184999942779541 C23.066999435424805,-1.1299999952316284 39.06100082397461,-7.466000080108643 39.06100082397461,-7.466000080108643 C39.06100082397461,-7.466000080108643 37.44200134277344,-11.029000282287598 37.44200134277344,-11.029000282287598z"></path><path stroke-linecap="butt" stroke-linejoin="miter" fill-opacity="0" stroke-miterlimit="10" stroke="rgb(70,70,119)" stroke-opacity="1" stroke-width="8" d=" M37.44200134277344,-11.029000282287598 C37.44200134277344,-11.029000282287598 -15.937999725341797,-9.590999603271484 -27.499000549316406,-6.8470001220703125 C-39.06100082397461,-4.103000164031982 -37.417999267578125,7.293000221252441 -26.016000747680664,9.16100025177002 C-14.61299991607666,11.027999877929688 5.374000072479248,5.189000129699707 13.784000396728516,2.184999942779541 C23.066999435424805,-1.1299999952316284 39.06100082397461,-7.466000080108643 39.06100082397461,-7.466000080108643 C39.06100082397461,-7.466000080108643 37.44200134277344,-11.029000282287598 37.44200134277344,-11.029000282287598z"></path></g><g opacity="1" transform="matrix(0.9977455735206604,-0.06710979342460632,0.06710979342460632,0.9977455735206604,216.2571563720703,39.22551345825195)"><path fill="rgb(149,164,187)" fill-opacity="1" d=" M-10.446999549865723,-3.562999963760376 C-10.043999671936035,0.38499999046325684 -8.258999824523926,10.513999938964844 -7.427999973297119,15.135000228881836 C-7.170000076293945,16.56800079345703 -5.96999979019165,17.638999938964844 -4.515999794006348,17.7189998626709 C-2.562999963760376,17.827999114990234 0.3100000023841858,17.847000122070312 3.242000102996826,17.368999481201172 C5.834000110626221,16.94499969482422 7.701000213623047,16.114999771118164 8.961999893188477,15.340999603271484 C10.291999816894531,14.52400016784668 10.890000343322754,12.91100025177002 10.45199966430664,11.411999702453613 C9.168000221252441,7.01800012588501 6.276000022888184,-2.7790000438690186 4.952000141143799,-6.453999996185303 C3.742000102996826,-9.8149995803833 1.6330000162124634,-17.847000122070312 -5.855000019073486,-16.652000427246094 C-10.890999794006348,-15.847999572753906 -10.798999786376953,-7.013000011444092 -10.446999549865723,-3.562999963760376z"></path><path stroke-linecap="round" stroke-linejoin="round" fill-opacity="0" stroke="rgb(70,70,119)" stroke-opacity="1" stroke-width="8" d=" M-10.446999549865723,-3.562999963760376 C-10.043999671936035,0.38499999046325684 -8.258999824523926,10.513999938964844 -7.427999973297119,15.135000228881836 C-7.170000076293945,16.56800079345703 -5.96999979019165,17.638999938964844 -4.515999794006348,17.7189998626709 C-2.562999963760376,17.827999114990234 0.3100000023841858,17.847000122070312 3.242000102996826,17.368999481201172 C5.834000110626221,16.94499969482422 7.701000213623047,16.114999771118164 8.961999893188477,15.340999603271484 C10.291999816894531,14.52400016784668 10.890000343322754,12.91100025177002 10.45199966430664,11.411999702453613 C9.168000221252441,7.01800012588501 6.276000022888184,-2.7790000438690186 4.952000141143799,-6.453999996185303 C3.742000102996826,-9.8149995803833 1.6330000162124634,-17.847000122070312 -5.855000019073486,-16.652000427246094 C-10.890999794006348,-15.847999572753906 -10.798999786376953,-7.013000011444092 -10.446999549865723,-3.562999963760376z"></path></g></g></g></g></svg>