<svg xmlns="http://www.w3.org/2000/svg" xmlns:xlink="http://www.w3.org/1999/xlink" viewBox="0 0 512 512" width="512" height="512" style="width: 100%; height: 100%; transform: translate3d(0,0,0); content-visibility: visible;" preserveAspectRatio="xMidYMid meet"><defs><clipPath id="__lottie_element_2"><rect width="512" height="512" x="0" y="0"></rect></clipPath><radialGradient id="__lottie_element_9" spreadMethod="pad" gradientUnits="userSpaceOnUse" cx="-79.70600128173828" cy="-112.2760009765625" r="300.05236733476835" fx="-79.70600128173828" fy="-112.2760009765625"><stop offset="0%" stop-color="rgb(255,240,220)"></stop><stop offset="29%" stop-color="rgb(255,210,177)"></stop><stop offset="59%" stop-color="rgb(255,181,134)"></stop></radialGradient><linearGradient id="__lottie_element_10" spreadMethod="pad" gradientUnits="userSpaceOnUse" x1="6.186999797821045" y1="50.564998626708984" x2="58.849998474121094" y2="-121.61399841308594"><stop offset="1%" stop-color="rgb(246,141,91)"></stop><stop offset="51%" stop-color="rgb(239,132,86)"></stop><stop offset="100%" stop-color="rgb(233,122,82)"></stop></linearGradient><mask id="__lottie_element_12"><path fill="url(#__lottie_element_11)" d=" M-186.98699951171875,-49.14799880981445 C-186.98699951171875,-49.14799880981445 -156.41400146484375,-12.696000099182129 -112.66899871826172,14.295000076293945 C-68.92500305175781,41.28499984741211 -0.8050000071525574,56.61199951171875 35.375999450683594,48.856998443603516 C161.43800354003906,21.836000442504883 188.78399658203125,-71.64399719238281 188.78399658203125,-71.64399719238281 C188.78399658203125,-71.64399719238281 151.5469970703125,55.34000015258789 27.517000198364258,69.2490005493164 C-147.8730010986328,88.91699981689453 -186.98699951171875,-49.14799880981445 -186.98699951171875,-49.14799880981445z"></path></mask><linearGradient id="__lottie_element_11" spreadMethod="pad" gradientUnits="userSpaceOnUse" x1="6.186999797821045" y1="50.564998626708984" x2="58.849998474121094" y2="-121.61399841308594"><stop stop-color="rgb(255,255,255)" offset="0%" stop-opacity="1"></stop><stop stop-color="rgb(255,255,255)" offset="57%" stop-opacity="0.5"></stop><stop stop-color="rgb(255,255,255)" offset="100%" stop-opacity="0"></stop></linearGradient></defs><g clip-path="url(#__lottie_element_2)"><g style="display: block;" transform="matrix(1.0255249738693237,0.0521482490003109,-0.0554223395884037,1.0899118185043335,17.51373291015625,-57.751922607421875)" opacity="1"><g opacity="1" transform="matrix(1,0,0,1,262.3219909667969,272.4320068359375)"><path fill="url(#__lottie_element_9)" fill-opacity="1" d=" M-211.76699829101562,-20.312000274658203 C-219.80499267578125,81.08899688720703 -179.9250030517578,145.7010040283203 -81.61499786376953,183.7270050048828 C37.79899978637695,229.9149932861328 125.20600128173828,165.79600524902344 172.1959991455078,88.50900268554688 C219.18699645996094,11.220999717712402 219.80499267578125,-74.10399627685547 131.38900756835938,-152.00999450683594 C42.97200012207031,-229.9149932861328 -79.60600280761719,-206.41200256347656 -118.83399963378906,-188.97799682617188 C-161.78900146484375,-169.88600158691406 -203.72900390625,-121.71299743652344 -211.76699829101562,-20.312000274658203z"></path><path stroke-linecap="butt" stroke-linejoin="miter" fill-opacity="0" stroke-miterlimit="10" stroke="rgb(175,86,51)" stroke-opacity="1" stroke-width="17.007" d=" M-211.76699829101562,-20.312000274658203 C-219.80499267578125,81.08899688720703 -179.9250030517578,145.7010040283203 -81.61499786376953,183.7270050048828 C37.79899978637695,229.9149932861328 125.20600128173828,165.79600524902344 172.1959991455078,88.50900268554688 C219.18699645996094,11.220999717712402 219.80499267578125,-74.10399627685547 131.38900756835938,-152.00999450683594 C42.97200012207031,-229.9149932861328 -79.60600280761719,-206.41200256347656 -118.83399963378906,-188.97799682617188 C-161.78900146484375,-169.88600158691406 -203.72900390625,-121.71299743652344 -211.76699829101562,-20.312000274658203z"></path></g><g opacity="1" transform="matrix(1,0,0,1,256.2690124511719,391.010986328125)"><path fill="url(#__lottie_element_10)" mask="url(#__lottie_element_12)" fill-opacity="0.88" d="M0 0 M-186.98699951171875,-49.14799880981445 C-186.98699951171875,-49.14799880981445 -156.41400146484375,-12.696000099182129 -112.66899871826172,14.295000076293945 C-68.92500305175781,41.28499984741211 -0.8050000071525574,56.61199951171875 35.375999450683594,48.856998443603516 C161.43800354003906,21.836000442504883 188.78399658203125,-71.64399719238281 188.78399658203125,-71.64399719238281 C188.78399658203125,-71.64399719238281 151.5469970703125,55.34000015258789 27.517000198364258,69.2490005493164 C-147.8730010986328,88.91699981689453 -186.98699951171875,-49.14799880981445 -186.98699951171875,-49.14799880981445z"></path></g></g><g style="display: block;" transform="matrix(1.0255249738693237,0.0521482490003109,-0.0554223395884037,1.0899118185043335,175.08132934570312,241.5090789794922)" opacity="1"><g opacity="1" transform="matrix(1,0,0,1,0,0)"><g opacity="1" transform="matrix(1,0,0,1,128.18800354003906,95.36900329589844)"><path fill="rgb(143,21,6)" fill-opacity="1" d=" M-73.94499969482422,52.827999114990234 C-78.78399658203125,53.797000885009766 -85.60600280761719,56.06999969482422 -90.01499938964844,53.95399856567383 C-94.6760025024414,51.71699905395508 -96.63899993896484,44.577999114990234 -90.71199798583984,25.80900001525879 C-86.16799926757812,11.418999671936035 -73.94400024414062,-6.988999843597412 -59.430999755859375,-23.47599983215332 C-42.624000549316406,-42.56999969482422 -22.746000289916992,-59.0890007019043 -8.170000076293945,-63.816001892089844 C4.35099983215332,-67.87699890136719 15.99899959564209,-69.77100372314453 27.865999221801758,-69.6989974975586 C41.74399948120117,-69.61399841308594 55.922000885009766,-66.83999633789062 72.14700317382812,-61.69499969482422 C102.24600219726562,-52.1510009765625 97.00499725341797,-28.753000259399414 94.8030014038086,-12.60200023651123 C92.60099792480469,3.5490000247955322 74.04900360107422,32.07899856567383 61.56800079345703,48.9640007019043 C49.0880012512207,65.8489990234375 37.665000915527344,72.62699890136719 31.058000564575195,67.48799896240234 C24.451000213623047,62.3489990234375 29.566999435424805,41.082000732421875 -7.138999938964844,38.880001068115234 C-24.361000061035156,37.84600067138672 -36.5620002746582,40.13999938964844 -46.33599853515625,43.20000076293945 C-57.39400100708008,46.6619987487793 -65.34500122070312,51.106998443603516 -73.94499969482422,52.827999114990234z"></path><path stroke-linecap="round" stroke-linejoin="round" fill-opacity="0" stroke="rgb(71,35,28)" stroke-opacity="1" stroke-width="12" d=" M-73.94499969482422,52.827999114990234 C-78.78399658203125,53.797000885009766 -85.60600280761719,56.06999969482422 -90.01499938964844,53.95399856567383 C-94.6760025024414,51.71699905395508 -96.63899993896484,44.577999114990234 -90.71199798583984,25.80900001525879 C-86.16799926757812,11.418999671936035 -73.94400024414062,-6.988999843597412 -59.430999755859375,-23.47599983215332 C-42.624000549316406,-42.56999969482422 -22.746000289916992,-59.0890007019043 -8.170000076293945,-63.816001892089844 C4.35099983215332,-67.87699890136719 15.99899959564209,-69.77100372314453 27.865999221801758,-69.6989974975586 C41.74399948120117,-69.61399841308594 55.922000885009766,-66.83999633789062 72.14700317382812,-61.69499969482422 C102.24600219726562,-52.1510009765625 97.00499725341797,-28.753000259399414 94.8030014038086,-12.60200023651123 C92.60099792480469,3.5490000247955322 74.04900360107422,32.07899856567383 61.56800079345703,48.9640007019043 C49.0880012512207,65.8489990234375 37.665000915527344,72.62699890136719 31.058000564575195,67.48799896240234 C24.451000213623047,62.3489990234375 29.566999435424805,41.082000732421875 -7.138999938964844,38.880001068115234 C-24.361000061035156,37.84600067138672 -36.5620002746582,40.13999938964844 -46.33599853515625,43.20000076293945 C-57.39400100708008,46.6619987487793 -65.34500122070312,51.106998443603516 -73.94499969482422,52.827999114990234z"></path></g><g opacity="0" transform="matrix(1,0,0,1,22.900999069213867,137.93099975585938)"><path stroke-linecap="round" stroke-linejoin="round" fill-opacity="0" stroke="rgb(158,94,71)" stroke-opacity="0.51" stroke-width="11.458" d=" M-1.4980000257492065,-40.45399856567383 C-1.4980000257492065,-40.45399856567383 -27.649999618530273,-6.673999786376953 -12.395000457763672,19.204999923706055 C-1.843999981880188,37.104000091552734 27.649999618530273,40.45399856567383 27.649999618530273,40.45399856567383"></path></g><g opacity="1" transform="matrix(1,0,0,1,74.7969970703125,91.34700012207031)"><path fill="rgb(34,22,21)" fill-opacity="1" d=" M14.437999725341797,-40.72600173950195 C14.437999725341797,-40.72600173950195 24.2450008392334,-51.89500045776367 30.783000946044922,-37.185001373291016 C37.32099914550781,-22.474000930786133 1.090000033378601,39.637001037597656 1.090000033378601,39.637001037597656 C1.090000033378601,39.637001037597656 -13.621000289916992,51.89500045776367 -18.52400016784668,51.89500045776367 C-21.04400062561035,51.89500045776367 -25.93899917602539,51.4640007019043 -30.101999282836914,51.04399871826172 C-34.03900146484375,50.64699935913086 -37.32099914550781,50.26100158691406 -37.32099914550781,50.26100158691406 C-37.32099914550781,50.26100158691406 -30.92099952697754,11.515000343322754 -14.982999801635742,-11.305000305175781 C-2.996999979019165,-28.466999053955078 14.437999725341797,-40.72600173950195 14.437999725341797,-40.72600173950195z"></path></g><g opacity="1" transform="matrix(1,0,0,1,108.19300079345703,137.25)"><path fill="rgb(251,249,247)" fill-opacity="1" d=" M-62.452999114990234,11.440999984741211 C-62.452999114990234,11.440999984741211 -67.4540023803711,-5.691999912261963 -56.27899932861328,-10.35200023651123 C-51.0369987487793,-12.538000106811523 -46.03200149536133,-15.07800006866455 -37.11800003051758,-16.850000381469727 C-30.461000442504883,-18.173999786376953 -21.624000549316406,-19.069000244140625 -8.878999710083008,-19.069000244140625 C22.72100067138672,-19.069000244140625 44.242000579833984,-8.444999694824219 57.862998962402344,0.5440000295639038 C67.4530029296875,6.874000072479248 62.516998291015625,10.321999549865723 60.314998626708984,13.258000373840332 C58.11199951171875,16.19499969482422 55.22999954223633,19.06999969482422 55.22999954223633,19.06999969482422 C55.22999954223633,19.06999969482422 51.4640007019043,16.733999252319336 45.512001037597656,13.78499984741211 C35.68600082397461,8.916999816894531 19.902000427246094,2.378999948501587 5.271999835968018,1.9210000038146973 C-18.219999313354492,1.187000036239624 -42.44499969482422,8.529000282287598 -45.38199996948242,9.262999534606934 C-48.31800079345703,9.996999740600586 -61.53300094604492,12.199000358581543 -61.53300094604492,12.199000358581543 C-61.53300094604492,12.199000358581543 -62.452999114990234,11.440999984741211 -62.452999114990234,11.440999984741211z"></path><path stroke-linecap="round" stroke-linejoin="round" fill-opacity="0" stroke="rgb(113,132,156)" stroke-opacity="1" stroke-width="8.503" d=" M-62.452999114990234,11.440999984741211 C-62.452999114990234,11.440999984741211 -67.4540023803711,-5.691999912261963 -56.27899932861328,-10.35200023651123 C-51.0369987487793,-12.538000106811523 -46.03200149536133,-15.07800006866455 -37.11800003051758,-16.850000381469727 C-30.461000442504883,-18.173999786376953 -21.624000549316406,-19.069000244140625 -8.878999710083008,-19.069000244140625 C22.72100067138672,-19.069000244140625 44.242000579833984,-8.444999694824219 57.862998962402344,0.5440000295639038 C67.4530029296875,6.874000072479248 62.516998291015625,10.321999549865723 60.314998626708984,13.258000373840332 C58.11199951171875,16.19499969482422 55.22999954223633,19.06999969482422 55.22999954223633,19.06999969482422 C55.22999954223633,19.06999969482422 51.4640007019043,16.733999252319336 45.512001037597656,13.78499984741211 C35.68600082397461,8.916999816894531 19.902000427246094,2.378999948501587 5.271999835968018,1.9210000038146973 C-18.219999313354492,1.187000036239624 -42.44499969482422,8.529000282287598 -45.38199996948242,9.262999534606934 C-48.31800079345703,9.996999740600586 -61.53300094604492,12.199000358581543 -61.53300094604492,12.199000358581543 C-61.53300094604492,12.199000358581543 -62.452999114990234,11.440999984741211 -62.452999114990234,11.440999984741211z"></path></g><g opacity="1" transform="matrix(1,0,0,1,157.33900451660156,46.849998474121094)"><path fill="rgb(251,249,247)" fill-opacity="1" d=" M-61.8390007019043,1.0479999780654907 C-61.8390007019043,1.0479999780654907 -29.44300079345703,-0.0949999988079071 -1.3630000352859497,4.861000061035156 C26.718000411987305,9.815999984741211 49.069000244140625,20.507999420166016 54.209999084472656,17.937000274658203 C56.38999938964844,16.847000122070312 61.8390007019043,4.316999912261963 61.8390007019043,4.316999912261963 C61.8390007019043,4.316999912261963 59.5369987487793,1.4780000448226929 54.44300079345703,-2.184999942779541 C45.9640007019043,-8.281999588012695 29.749000549316406,-16.660999298095703 3.5409998893737793,-18.02199935913086 C-14.732999801635742,-18.97100067138672 -28.582000732421875,-16.416000366210938 -38.722999572753906,-12.894000053405762 C-55.14400100708008,-7.190999984741211 -61.8390007019043,1.0479999780654907 -61.8390007019043,1.0479999780654907z"></path><path stroke-linecap="round" stroke-linejoin="round" fill-opacity="0" stroke="rgb(113,132,156)" stroke-opacity="1" stroke-width="8.503" d=" M-61.8390007019043,1.0479999780654907 C-61.8390007019043,1.0479999780654907 -29.44300079345703,-0.0949999988079071 -1.3630000352859497,4.861000061035156 C26.718000411987305,9.815999984741211 49.069000244140625,20.507999420166016 54.209999084472656,17.937000274658203 C56.38999938964844,16.847000122070312 61.8390007019043,4.316999912261963 61.8390007019043,4.316999912261963 C61.8390007019043,4.316999912261963 59.5369987487793,1.4780000448226929 54.44300079345703,-2.184999942779541 C45.9640007019043,-8.281999588012695 29.749000549316406,-16.660999298095703 3.5409998893737793,-18.02199935913086 C-14.732999801635742,-18.97100067138672 -28.582000732421875,-16.416000366210938 -38.722999572753906,-12.894000053405762 C-55.14400100708008,-7.190999984741211 -61.8390007019043,1.0479999780654907 -61.8390007019043,1.0479999780654907z"></path></g><g opacity="1" transform="matrix(1,0,0,1,0,0)"><path stroke-linecap="round" stroke-linejoin="round" fill-opacity="0" stroke="rgb(71,35,28)" stroke-opacity="0" stroke-width="8.503" d=" M54.80500030517578,102.79199981689453 C54.80500030517578,102.79199981689453 60.88999938964844,108.05599975585938 71.91300201416016,107.99199676513672 C93.78399658203125,107.86599731445312 128.46099853515625,107.36199951171875 143.7779998779297,108.66300201416016 C173.81700134277344,111.21499633789062 183.47999572753906,122.9010009765625 190.16900634765625,125.24199676513672 C196.85800170898438,127.58300018310547 213.84100341796875,129.35899353027344 213.84100341796875,129.35899353027344"></path></g></g></g><g style="display: none;"><g><path stroke-linecap="round" stroke-linejoin="round" fill-opacity="0"></path></g><g><path stroke-linecap="round" stroke-linejoin="round" fill-opacity="0"></path></g></g><g style="display: block;" transform="matrix(1.0255249738693237,0.0521482490003109,-0.0554223395884037,1.0899118185043335,181.63125610351562,235.95999145507812)" opacity="1"><g opacity="1" transform="matrix(1,0,0,1,0,0)"><g opacity="1" transform="matrix(1,0,0,1,102.5270004272461,169.73399353027344)"><path fill="rgb(243,92,139)" fill-opacity="1" d=" M-59.97800064086914,-55.43299865722656 C-57.612998962402344,-59.577999114990234 -55.05400085449219,-63.00199890136719 -50.29999923706055,-62.59199905395508 C-35.47100067138672,-61.3129997253418 -5.26800012588501,-61.981998443603516 13.029000282287598,-50.893001556396484 C37.25600051879883,-36.209999084472656 45.097999572753906,0.7170000076293945 49.86600112915039,16.148000717163086 C53.38199996948242,27.52400016784668 65.06099700927734,33.91899871826172 66.96800231933594,43.45399856567383 C67.89700317382812,48.10100173950195 65.33300018310547,58.70899963378906 54.70899963378906,60.61600112915039 C41.42499923706055,63.000999450683594 23.437999725341797,47.71500015258789 16.83099937438965,30.829999923706055 C10.223999977111816,13.944999694824219 -7.5,-27.552000045776367 -19.65999984741211,-34.185001373291016 C-38.51599884033203,-44.46900177001953 -58.71900177001953,-39.698001861572266 -66.48500061035156,-37.19300079345703 C-67.89700317382812,-36.73699951171875 -67.75499725341797,-36.03099822998047 -67.33300018310547,-37.45399856567383 C-66.25599670410156,-41.09000015258789 -66.78800201416016,-44.263999938964844 -63.79199981689453,-49.16699981689453 C-62.4109992980957,-51.42599868774414 -60.520999908447266,-54.481998443603516 -59.97800064086914,-55.43299865722656z"></path><path stroke-linecap="round" stroke-linejoin="round" fill-opacity="0" stroke="rgb(157,37,70)" stroke-opacity="1" stroke-width="11.458" d=" M-59.97800064086914,-55.43299865722656 C-57.612998962402344,-59.577999114990234 -55.05400085449219,-63.00199890136719 -50.29999923706055,-62.59199905395508 C-35.47100067138672,-61.3129997253418 -5.26800012588501,-61.981998443603516 13.029000282287598,-50.893001556396484 C37.25600051879883,-36.209999084472656 45.097999572753906,0.7170000076293945 49.86600112915039,16.148000717163086 C53.38199996948242,27.52400016784668 65.06099700927734,33.91899871826172 66.96800231933594,43.45399856567383 C67.89700317382812,48.10100173950195 65.33300018310547,58.70899963378906 54.70899963378906,60.61600112915039 C41.42499923706055,63.000999450683594 23.437999725341797,47.71500015258789 16.83099937438965,30.829999923706055 C10.223999977111816,13.944999694824219 -7.5,-27.552000045776367 -19.65999984741211,-34.185001373291016 C-38.51599884033203,-44.46900177001953 -58.71900177001953,-39.698001861572266 -66.48500061035156,-37.19300079345703 C-67.89700317382812,-36.73699951171875 -67.75499725341797,-36.03099822998047 -67.33300018310547,-37.45399856567383 C-66.25599670410156,-41.09000015258789 -66.78800201416016,-44.263999938964844 -63.79199981689453,-49.16699981689453 C-62.4109992980957,-51.42599868774414 -60.520999908447266,-54.481998443603516 -59.97800064086914,-55.43299865722656z"></path></g><g opacity="0.84" transform="matrix(1,0,0,1,86.16500091552734,135.91299438476562)"><path stroke-linecap="round" stroke-linejoin="round" fill-opacity="0" stroke="rgb(134,55,90)" stroke-opacity="0.46" stroke-width="11.458" d=" M-38.62900161743164,-21.790000915527344 C-38.62900161743164,-21.790000915527344 17.219999313354492,-18.322999954223633 31.930999755859375,-3.068000078201294 C46.64099884033203,12.187000274658203 48.2760009765625,21.450000762939453 48.2760009765625,21.450000762939453"></path></g></g></g><g style="display: block;" transform="matrix(1.0255249738693237,0.0521482490003109,-0.0554223395884037,1.0899118185043335,181.63125610351562,235.95999145507812)" opacity="1"><g opacity="1" transform="matrix(1,0,0,1,121.99800109863281,92.49400329589844)"><path stroke-linecap="round" stroke-linejoin="round" fill-opacity="0" stroke="rgb(71,35,28)" stroke-opacity="1" stroke-width="13" d=" M-39.176998138427734,59.3489990234375 C-56.38399887084961,63.20100021362305 -60.83300018310547,64.71399688720703 -70.35900115966797,65.46199798583984 C-75.83300018310547,65.89199829101562 -80.27100372314453,65.63600158691406 -83.93499755859375,64.49700164794922 C-87.4209976196289,63.41299819946289 -90.20800018310547,61.52899932861328 -92.5250015258789,58.67399978637695 C-99.25599670410156,50.37900161743164 -91.34700012207031,35.643001556396484 -89.27300262451172,30.108999252319336 C-83.677001953125,15.178000450134277 -70.93299865722656,-5.985000133514404 -42.94499969482422,-33.22100067138672 C-30.297000885009766,-45.529998779296875 -5.341000080108643,-60.65999984741211 15.897000312805176,-62.641998291015625 C92.0770034790039,-69.75199890136719 99.25599670410156,-34.31100082397461 95.98699951171875,-10.338000297546387 C94.36599731445312,1.5499999523162842 88.90399932861328,14.178999900817871 88.90399932861328,14.178999900817871"></path></g></g><g style="display: block;" transform="matrix(1.0255249738693237,0.0521482490003109,-0.0554223395884037,1.0899118185043335,175.08132934570312,241.5090789794922)" opacity="1"><g opacity="1" transform="matrix(1,0,0,1,0,0)"><path stroke-linecap="round" stroke-linejoin="round" fill-opacity="0" stroke="rgb(71,35,28)" stroke-opacity="0" stroke-width="11" d=" M61.362998962402344,77.39800262451172 C61.362998962402344,77.39800262451172 112.39399719238281,47.26900100708008 166.2570037841797,57.12099838256836 C215.97000122070312,66.21399688720703 217.5030059814453,73.13999938964844 231.81100463867188,87.23699951171875 C244.41000366210938,99.6510009765625 247.92999267578125,116.08499908447266 247.92999267578125,116.08499908447266"></path></g></g><g style="display: block;" transform="matrix(1.0255249738693237,0.0521482490003109,-0.0554223395884037,1.0899118185043335,255.6550750732422,168.4420623779297)" opacity="1"><g opacity="1" transform="matrix(1,0,0,1,0,0)"><g opacity="1" transform="matrix(1,0,0,1,55.17100143432617,52.39799880981445)"><path stroke-linecap="round" stroke-linejoin="round" fill-opacity="0" stroke="rgb(191,83,43)" stroke-opacity="0.58" stroke-width="12.678" d=" M1.4609999656677246,-21.506999969482422 C1.4609999656677246,-21.506999969482422 30.44099998474121,-17.4950008392334 36.263999938964844,-9.116999626159668 C43.26100158691406,0.9490000009536743 26.42799949645996,15.892999649047852 13.687999725341797,18.795000076293945 C1.781000018119812,21.506999969482422 -43.262001037597656,20.42799949645996 -43.262001037597656,20.42799949645996"></path></g><g opacity="1" transform="matrix(1,0,0,1,70.54399871826172,18.42099952697754)"><path stroke-linecap="round" stroke-linejoin="round" fill-opacity="0" stroke="rgb(169,75,41)" stroke-opacity="0.74" stroke-width="13.153" d=" M41.3380012512207,-3.0390000343322754 C41.3380012512207,-3.0390000343322754 25.729999542236328,-7.168000221252441 0.9399999976158142,-3.115999937057495 C-23.850000381469727,0.9369999766349792 -41.3380012512207,7.168000221252441 -41.3380012512207,7.168000221252441"></path></g><g opacity="1" transform="matrix(1,0,0,1,66.83000183105469,31.280000686645508)"><path fill="rgb(241,235,234)" fill-opacity="1" d=" M-41.665000915527344,5.829999923706055 C-40.858001708984375,0.3409999907016754 -39.86399841308594,-2.1050000190734863 -34.422000885009766,-3.186000108718872 C-26.83099937438965,-4.693999767303467 -21.18199920654297,-5.445000171661377 -9.479000091552734,-5.8429999351501465 C-1.4450000524520874,-6.114999771118164 15.430000305175781,-3.069000005722046 21.975000381469727,-3.2909998893737793 C27.599000930786133,-3.4820001125335693 41.665000915527344,-5.007999897003174 37.74300003051758,-0.8109999895095825 C33.821998596191406,3.385999917984009 21.743000030517578,6.114999771118164 21.743000030517578,6.114999771118164 C21.743000030517578,6.114999771118164 6.125,0.9559999704360962 -8.515999794006348,0.6399999856948853 C-23.156999588012695,0.32499998807907104 -41.665000915527344,5.829999923706055 -41.665000915527344,5.829999923706055z"></path><path stroke-linecap="round" stroke-linejoin="round" fill-opacity="0" stroke="rgb(95,30,18)" stroke-opacity="1" stroke-width="10.066" d=" M-41.665000915527344,5.829999923706055 C-40.858001708984375,0.3409999907016754 -39.86399841308594,-2.1050000190734863 -34.422000885009766,-3.186000108718872 C-26.83099937438965,-4.693999767303467 -21.18199920654297,-5.445000171661377 -9.479000091552734,-5.8429999351501465 C-1.4450000524520874,-6.114999771118164 15.430000305175781,-3.069000005722046 21.975000381469727,-3.2909998893737793 C27.599000930786133,-3.4820001125335693 41.665000915527344,-5.007999897003174 37.74300003051758,-0.8109999895095825 C33.821998596191406,3.385999917984009 21.743000030517578,6.114999771118164 21.743000030517578,6.114999771118164 C21.743000030517578,6.114999771118164 6.125,0.9559999704360962 -8.515999794006348,0.6399999856948853 C-23.156999588012695,0.32499998807907104 -41.665000915527344,5.829999923706055 -41.665000915527344,5.829999923706055z"></path></g></g><g opacity="1" transform="matrix(1,0,0,1,0,0)"><g opacity="1" transform="matrix(1,0,0,1,185.5800018310547,89.19599914550781)"><path stroke-linecap="round" stroke-linejoin="round" fill-opacity="0" stroke="rgb(193,84,45)" stroke-opacity="0.6" stroke-width="11.969" d=" M17.38599967956543,-15.062999725341797 C17.38599967956543,-15.062999725341797 -6.633999824523926,-26.593000411987305 -12.010000228881836,-21.31100082397461 C-17.38599967956543,-16.030000686645508 -14.720000267028809,-6.7829999923706055 -12.543000221252441,-0.8320000171661377 C-9.366000175476074,7.849999904632568 6.4039998054504395,21.767000198364258 6.4039998054504395,21.767000198364258"></path></g><g opacity="1" transform="matrix(1,0,0,1,197.63699340820312,48.229000091552734)"><path stroke-linecap="round" stroke-linejoin="round" fill-opacity="0" stroke="rgb(170,76,42)" stroke-opacity="0.52" stroke-width="13.153" d=" M-13.076000213623047,-13.439000129699707 C-13.076000213623047,-13.439000129699707 -10.532999992370605,-6.538000106811523 -5.447999954223633,-0.7260000109672546 C-0.3630000054836273,5.085000038146973 8.717000007629395,11.260000228881836 8.717000007629395,11.260000228881836 C8.717000007629395,11.260000228881836 13.076000213623047,13.439000129699707 13.076000213623047,13.439000129699707"></path></g><g opacity="1" transform="matrix(1,0,0,1,197.19000244140625,63.77199935913086)"><path fill="rgb(241,235,234)" fill-opacity="1" d=" M-17.540000915527344,-18.947999954223633 C-17.540000915527344,-18.947999954223633 -12.187999725341797,-6.896999835968018 0.8769999742507935,-2.13700008392334 C11.878999710083008,1.871999979019165 21.20800018310547,7.7230000495910645 20.474000930786133,13.336000442504883 C19.740999221801758,18.947999954223633 14.00100040435791,12.324000358581543 8.866000175476074,9.116999626159668 C3.7320001125335693,5.908999919891357 -10.937999725341797,-0.5049999952316284 -16.072999954223633,-1.3070000410079956 C-21.20800018310547,-2.1089999675750732 -17.540000915527344,-18.947999954223633 -17.540000915527344,-18.947999954223633z"></path><path stroke-linecap="round" stroke-linejoin="round" fill-opacity="0" stroke="rgb(94,29,18)" stroke-opacity="1" stroke-width="9.503" d=" M-17.540000915527344,-18.947999954223633 C-17.540000915527344,-18.947999954223633 -12.187999725341797,-6.896999835968018 0.8769999742507935,-2.13700008392334 C11.878999710083008,1.871999979019165 21.20800018310547,7.7230000495910645 20.474000930786133,13.336000442504883 C19.740999221801758,18.947999954223633 14.00100040435791,12.324000358581543 8.866000175476074,9.116999626159668 C3.7320001125335693,5.908999919891357 -10.937999725341797,-0.5049999952316284 -16.072999954223633,-1.3070000410079956 C-21.20800018310547,-2.1089999675750732 -17.540000915527344,-18.947999954223633 -17.540000915527344,-18.947999954223633z"></path></g><g opacity="0" transform="matrix(1,0,0,1,0,0)"><path fill="rgb(23,13,12)" fill-opacity="1" d=" M183.468994140625,55.45600128173828 C183.468994140625,55.45600128173828 185.4510040283203,61.810001373291016 188.91299438476562,63.606998443603516 C191.3159942626953,64.8550033569336 198.33900451660156,69.18599700927734 202.43800354003906,71.427001953125 C204.24200439453125,72.41400146484375 210.33200073242188,77.64700317382812 210.81700134277344,76.4469985961914 C211.57699584960938,74.56700134277344 204.23599243164062,69.75599670410156 200.98699951171875,67.91799926757812 C196.1999969482422,65.20899963378906 183.468994140625,55.45600128173828 183.468994140625,55.45600128173828z"></path></g><g opacity="0" transform="matrix(1,0,0,1,0,0)"><path fill="rgb(23,13,12)" fill-opacity="1" d=" M105.84500122070312,8.697999954223633 C100.09500122070312,6.716000080108643 89.08000183105469,9.045999526977539 87.52300262451172,9.92300033569336 C85.96600341796875,10.800000190734863 83.01100158691406,17.437999725341797 86.54499816894531,18.066999435424805 C92.19999694824219,19.073999404907227 101.60900115966797,22.31599998474121 107.44200134277344,23.854999542236328 C113.2750015258789,25.393999099731445 119.95800018310547,13.560999870300293 119.95800018310547,13.560999870300293 C119.95800018310547,13.560999870300293 111.59500122070312,10.680000305175781 105.84500122070312,8.697999954223633z"></path></g><g opacity="0" transform="matrix(1,0,0,1,0,0)"><path fill="rgb(255,255,255)" fill-opacity="1" d=" M110.56600189208984,15.701000213623047 C107.40299987792969,14.927000045776367 107.1780014038086,14.11400032043457 109.0770034790039,16.666000366210938 C110.97599792480469,19.218000411987305 110.94400024414062,18.753000259399414 113.91999816894531,21.04199981689453 C116.89600372314453,23.33099937438965 118.79399871826172,22.097000122070312 118.7699966430664,19.13800048828125 C118.74600219726562,16.179000854492188 118.56500244140625,18.988000869750977 118.56500244140625,18.988000869750977 C118.56500244140625,18.988000869750977 113.72899627685547,16.475000381469727 110.56600189208984,15.701000213623047z"></path></g><g opacity="0" transform="matrix(1,0,0,1,0,0)"><path fill="rgb(255,255,255)" fill-opacity="1" d=" M184.156005859375,50.93600082397461 C184.156005859375,50.93600082397461 182.57899475097656,56.03300094604492 184.22300720214844,56.893001556396484 C185.86700439453125,57.75299835205078 190.54100036621094,58.8650016784668 192.8719940185547,58.847999572753906 C194.83399963378906,58.83399963378906 192.40199279785156,55.4739990234375 190.37600708007812,54.01100158691406 C188.35000610351562,52.54800033569336 184.156005859375,50.93600082397461 184.156005859375,50.93600082397461z"></path></g></g></g><g style="display: block;" transform="matrix(1.0255249738693237,0.0521482490003109,-0.0554223395884037,1.0899118185043335,258.33441162109375,83.68299865722656)" opacity="1"><g opacity="1" transform="matrix(1,0,0,1,91.78500366210938,48.395999908447266)"><path fill="rgb(83,39,15)" fill-opacity="1" d=" M-56.50400161743164,15.725000381469727 C-50.3129997253418,18.41900062561035 -30.426000595092773,20.496000289916992 -0.03799999877810478,19.58799934387207 C30.350000381469727,18.68000030517578 63.8849983215332,-1.1130000352859497 54.930999755859375,-13.236000061035156 C49.56800079345703,-20.496000289916992 34.819000244140625,-14.89799976348877 29.45599937438965,-10.361000061035156 C24.093000411987305,-5.822999954223633 0.8700000047683716,6.9070000648498535 -8.083000183105469,7.644000053405762 C-32.625,9.663999557495117 -47.797000885009766,6.296000003814697 -55.840999603271484,6.296000003814697 C-63.8849983215332,6.296000003814697 -59.297000885009766,14.508999824523926 -56.50400161743164,15.725000381469727z"></path><path stroke-linecap="round" stroke-linejoin="round" fill-opacity="0" stroke="rgb(58,31,19)" stroke-opacity="1" stroke-width="11.16" d=" M-56.50400161743164,15.725000381469727 C-50.3129997253418,18.41900062561035 -30.426000595092773,20.496000289916992 -0.03799999877810478,19.58799934387207 C30.350000381469727,18.68000030517578 63.8849983215332,-1.1130000352859497 54.930999755859375,-13.236000061035156 C49.56800079345703,-20.496000289916992 34.819000244140625,-14.89799976348877 29.45599937438965,-10.361000061035156 C24.093000411987305,-5.822999954223633 0.8700000047683716,6.9070000648498535 -8.083000183105469,7.644000053405762 C-32.625,9.663999557495117 -47.797000885009766,6.296000003814697 -55.840999603271484,6.296000003814697 C-63.8849983215332,6.296000003814697 -59.297000885009766,14.508999824523926 -56.50400161743164,15.725000381469727z"></path></g><g opacity="1" transform="matrix(1,0,0,1,212.79600524902344,90.26399993896484)"><path fill="rgb(83,39,15)" fill-opacity="1" d=" M-22.108999252319336,-11.470999717712402 C-18.674999237060547,0.527999997138977 -4.379000186920166,16.488000869750977 8.022000312805176,26.56399917602539 C20.42300033569336,36.63999938964844 23.68600082397461,35.7239990234375 23.033000946044922,30.22800064086914 C22.381000518798828,24.73200035095215 5.410999774932861,13.739999771118164 0.1899999976158142,1.8320000171661377 C-5.0320000648498535,-10.076000213623047 -9.600000381469727,-36.64099884033203 -16.12700080871582,-34.808998107910156 C-22.65399932861328,-32.97700119018555 -23.68600082397461,-16.982999801635742 -22.108999252319336,-11.470999717712402z"></path><path stroke-linecap="round" stroke-linejoin="round" fill-opacity="0" stroke="rgb(58,31,19)" stroke-opacity="1" stroke-width="9.581" d=" M-22.108999252319336,-11.470999717712402 C-18.674999237060547,0.527999997138977 -4.379000186920166,16.488000869750977 8.022000312805176,26.56399917602539 C20.42300033569336,36.63999938964844 23.68600082397461,35.7239990234375 23.033000946044922,30.22800064086914 C22.381000518798828,24.73200035095215 5.410999774932861,13.739999771118164 0.1899999976158142,1.8320000171661377 C-5.0320000648498535,-10.076000213623047 -9.600000381469727,-36.64099884033203 -16.12700080871582,-34.808998107910156 C-22.65399932861328,-32.97700119018555 -23.68600082397461,-16.982999801635742 -22.108999252319336,-11.470999717712402z"></path></g><g opacity="1" transform="matrix(1,0,0,1,160.17599487304688,81.51699829101562)"><path stroke-linecap="round" stroke-linejoin="round" fill-opacity="0" stroke="rgb(209,106,59)" stroke-opacity="0.65" stroke-width="11.458" d=" M12.531000137329102,-19.069000244140625 C12.531000137329102,-19.069000244140625 12.531000137329102,-4.359000205993652 1.6339999437332153,8.17300033569336 C-1.8389999866485596,12.166999816894531 -12.531000137329102,19.069000244140625 -12.531000137329102,19.069000244140625"></path></g></g></g></svg>