<svg xmlns="http://www.w3.org/2000/svg" xmlns:xlink="http://www.w3.org/1999/xlink" viewBox="0 0 512 512" width="512" height="512" style="width: 100%; height: 100%; transform: translate3d(0,0,0); content-visibility: visible;" preserveAspectRatio="xMidYMid meet"><defs><clipPath id="__lottie_element_2"><rect width="512" height="512" x="0" y="0"></rect></clipPath><radialGradient id="__lottie_element_10" spreadMethod="pad" gradientUnits="userSpaceOnUse" cx="-41.207000732421875" cy="-130.44900512695312" r="298.3244180818835" fx="-41.207000732421875" fy="-130.44900512695312"><stop offset="0%" stop-color="rgb(255,220,188)"></stop><stop offset="50%" stop-color="rgb(247,193,153)"></stop><stop offset="100%" stop-color="rgb(239,167,118)"></stop></radialGradient><mask id="__lottie_element_12"><path fill="url(#__lottie_element_11)" d=" M-91.06800079345703,-210.4340057373047 C-140.3509979248047,-191.0590057373047 -214.72799682617188,-140.13800048828125 -224.16700744628906,-14.288000106811523 C-234.6750030517578,125.81600189208984 -89.53900146484375,258.2980041503906 84.06199645996094,183.60899353027344 C234.6739959716797,118.81099700927734 232.92300415039062,-98.35099792480469 134.85000610351562,-175.4080047607422 C50.297000885009766,-241.84300231933594 -39.04899978637695,-230.88499450683594 -91.06800079345703,-210.4340057373047z"></path></mask><radialGradient id="__lottie_element_11" spreadMethod="pad" gradientUnits="userSpaceOnUse" cx="-41.207000732421875" cy="-130.44900512695312" r="298.3244180818835" fx="-41.207000732421875" fy="-130.44900512695312"><stop stop-color="rgb(255,255,255)" offset="0%" stop-opacity="0.9300000071525574"></stop><stop stop-color="rgb(255,255,255)" offset="57%" stop-opacity="0.9649999737739563"></stop><stop stop-color="rgb(255,255,255)" offset="100%" stop-opacity="1"></stop></radialGradient><radialGradient id="__lottie_element_17" spreadMethod="pad" gradientUnits="userSpaceOnUse" cx="-17.391000747680664" cy="-37.262001037597656" r="147.76311692455326" fx="-17.391000747680664" fy="-37.262001037597656"><stop offset="23%" stop-color="rgb(254,251,248)"></stop><stop offset="50%" stop-color="rgb(211,238,247)"></stop><stop offset="68%" stop-color="rgb(169,225,246)"></stop></radialGradient><mask id="__lottie_element_19"><path fill="url(#__lottie_element_18)" d=" M-78.78500366210938,-1.1740000247955322 C-76.83899688720703,-12.460000038146973 -54.07899856567383,-5.9120001792907715 -11.1899995803833,-5.120999813079834 C40.944000244140625,-4.159999847412109 64.7300033569336,-7.111000061035156 61.17900085449219,11.229000091552734 C57.5,30.229999542236328 35.952999114990234,49.2239990234375 -5.26200008392334,46.869998931884766 C-59.40999984741211,43.777000427246094 -81.87300109863281,16.738000869750977 -78.78500366210938,-1.1740000247955322z"></path></mask><radialGradient id="__lottie_element_18" spreadMethod="pad" gradientUnits="userSpaceOnUse" cx="-17.391000747680664" cy="-37.262001037597656" r="147.76311692455326" fx="-17.391000747680664" fy="-37.262001037597656"><stop stop-color="rgb(255,255,255)" offset="0%" stop-opacity="0.9300000071525574"></stop><stop stop-color="rgb(255,255,255)" offset="57%" stop-opacity="0.9649999737739563"></stop><stop stop-color="rgb(255,255,255)" offset="100%" stop-opacity="1"></stop></radialGradient><radialGradient id="__lottie_element_20" spreadMethod="pad" gradientUnits="userSpaceOnUse" cx="-7.5269999504089355" cy="-22.93400001525879" r="120.60302724576302" fx="-7.5269999504089355" fy="-22.93400001525879"><stop offset="23%" stop-color="rgb(254,251,248)"></stop><stop offset="50%" stop-color="rgb(211,238,247)"></stop><stop offset="68%" stop-color="rgb(169,225,246)"></stop></radialGradient><mask id="__lottie_element_22"><path fill="url(#__lottie_element_21)" d=" M-77.11100006103516,-14.88700008392334 C-76.8270034790039,-17.834999084472656 -79.3270034790039,-39.31399917602539 -62.21900177001953,-53.1349983215332 C-54.435001373291016,-59.42399978637695 -41.380001068115234,-67.49099731445312 -7.423999786376953,-64.93000030517578 C23.172000885009766,-62.62200164794922 38.672000885009766,-37.486000061035156 38.83599853515625,-23.038000106811523 C39.06100082397461,-3.128000020980835 29.672000885009766,21.468000411987305 -2.3239998817443848,24.76300048828125 C-62.29399871826172,30.93899917602539 -75.48699951171875,-7.552999973297119 -75.8759994506836,-10.666999816894531 C-75.9800033569336,-11.49899959564209 -77.20899963378906,-13.873000144958496 -77.11100006103516,-14.88700008392334z"></path></mask><radialGradient id="__lottie_element_21" spreadMethod="pad" gradientUnits="userSpaceOnUse" cx="-7.5269999504089355" cy="-22.93400001525879" r="120.60302724576302" fx="-7.5269999504089355" fy="-22.93400001525879"><stop stop-color="rgb(255,255,255)" offset="0%" stop-opacity="0.9300000071525574"></stop><stop stop-color="rgb(255,255,255)" offset="57%" stop-opacity="0.9649999737739563"></stop><stop stop-color="rgb(255,255,255)" offset="100%" stop-opacity="1"></stop></radialGradient></defs><g clip-path="url(#__lottie_element_2)"><g style="display: block;" transform="matrix(1.0294699668884277,0,0,1.0255999565124512,-19.14508056640625,-25.052642822265625)" opacity="1"><g opacity="1" transform="matrix(1,0,0,1,266.8169860839844,273.9849853515625)"><path fill="url(#__lottie_element_10)" mask="url(#__lottie_element_12)" fill-opacity="1" d="M0 0 M-91.06800079345703,-210.4340057373047 C-140.3509979248047,-191.0590057373047 -214.72799682617188,-140.13800048828125 -224.16700744628906,-14.288000106811523 C-234.6750030517578,125.81600189208984 -89.53900146484375,258.2980041503906 84.06199645996094,183.60899353027344 C234.6739959716797,118.81099700927734 232.92300415039062,-98.35099792480469 134.85000610351562,-175.4080047607422 C50.297000885009766,-241.84300231933594 -39.04899978637695,-230.88499450683594 -91.06800079345703,-210.4340057373047z"></path></g><g opacity="1" transform="matrix(1,0,0,1,267.5039978027344,282.97900390625)"><path stroke-linecap="butt" stroke-linejoin="miter" fill-opacity="0" stroke-miterlimit="10" stroke="rgb(179,90,45)" stroke-opacity="1" stroke-width="15" d=" M-91.06800079345703,-218.66099548339844 C-140.3509979248047,-199.28599548339844 -214.72799682617188,-148.36500549316406 -224.16700744628906,-22.514999389648438 C-234.6750030517578,117.58899688720703 -89.53900146484375,250.0709991455078 84.06199645996094,175.3820037841797 C234.6739959716797,110.58399963378906 232.92300415039062,-106.5780029296875 134.85000610351562,-183.63499450683594 C50.297000885009766,-250.07000732421875 -39.04899978637695,-239.11199951171875 -91.06800079345703,-218.66099548339844z"></path></g><g opacity="1" transform="matrix(1,0,0,1,223.43800354003906,348.6499938964844)"><path fill="rgb(216,143,96)" fill-opacity="1" d=" M-154.51800537109375,-167.17799377441406 C-154.51800537109375,-167.17799377441406 -205.57000732421875,28.082000732421875 -49.926998138427734,89.94000244140625 C86.67500305175781,144.2310028076172 187.57000732421875,55.82099914550781 187.57000732421875,55.82099914550781 C187.57000732421875,55.82099914550781 91.83200073242188,169.9720001220703 -58.779998779296875,103.4229965209961 C-130.66099548339844,71.66200256347656 -165.2030029296875,4.849999904632568 -172.031005859375,-49.54899978637695 C-180.24200439453125,-114.96299743652344 -154.51800537109375,-167.17799377441406 -154.51800537109375,-167.17799377441406z"></path></g></g><g style="display: block;" transform="matrix(1.0294699668884277,0,0,1.1617321968078613,87.48536682128906,312.770751953125)" opacity="1"><g opacity="1" transform="matrix(1,0,0,1,83.14099884033203,43.237998962402344)"><path fill="rgb(48,37,28)" fill-opacity="1" d=" M31.554000854492188,9.699000358581543 C28.009000778198242,7.133999824523926 18.66699981689453,6.994999885559082 15.692999839782715,7.614999771118164 C7.84499979019165,9.251999855041504 7.033999919891357,8.432999610900879 -4.251999855041504,6.0980000495910645 C-15.538000106811523,3.763000011444092 -18.749000549316406,-10.53600025177002 -11.354000091552734,-15.789999961853027 C-3.9600000381469727,-21.04400062561035 2.7829999923706055,-10.803000450134277 16.87299919128418,-13.317999839782715 C27.895000457763672,-15.28499984741211 36.637001037597656,-16.621999740600586 42.54899978637695,-12.402000427246094 C56.303001403808594,-2.5820000171661377 62.37900161743164,10.559000015258789 53.7400016784668,13.920999526977539 C42.89500045776367,18.141000747680664 41.97999954223633,17.243000030517578 31.554000854492188,9.699000358581543z"></path><path stroke-linecap="butt" stroke-linejoin="miter" fill-opacity="0" stroke-miterlimit="10" stroke="rgb(143,70,32)" stroke-opacity="1" stroke-width="10.714" d=" M31.554000854492188,9.699000358581543 C28.009000778198242,7.133999824523926 18.66699981689453,6.994999885559082 15.692999839782715,7.614999771118164 C7.84499979019165,9.251999855041504 7.033999919891357,8.432999610900879 -4.251999855041504,6.0980000495910645 C-15.538000106811523,3.763000011444092 -18.749000549316406,-10.53600025177002 -11.354000091552734,-15.789999961853027 C-3.9600000381469727,-21.04400062561035 2.7829999923706055,-10.803000450134277 16.87299919128418,-13.317999839782715 C27.895000457763672,-15.28499984741211 36.637001037597656,-16.621999740600586 42.54899978637695,-12.402000427246094 C56.303001403808594,-2.5820000171661377 62.37900161743164,10.559000015258789 53.7400016784668,13.920999526977539 C42.89500045776367,18.141000747680664 41.97999954223633,17.243000030517578 31.554000854492188,9.699000358581543z"></path></g><g opacity="1" transform="matrix(1,0,0,1,6.63100004196167,17.173999786376953)"><path fill="rgb(122,81,55)" fill-opacity="1" d=" M25.32200050354004,-1.3370000123977661 C26.441999435424805,1.6790000200271606 25.864999771118164,4.934999942779541 22.341999053955078,4.934999942779541 C18.81800079345703,4.934999942779541 16.496000289916992,3.203000068664551 14.26099967956543,-0.44600000977516174 C12.581000328063965,-3.188999891281128 14.795999526977539,-7.045000076293945 17.242000579833984,-6.940000057220459 C20.761999130249023,-6.788000106811523 23.7810001373291,-5.486000061035156 25.32200050354004,-1.3370000123977661z"></path></g></g><g style="display: block;" transform="matrix(1.0294699668884277,0,0,1.1617321968078613,6.233428955078125,100.26318359375)" opacity="1"><g opacity="1" transform="matrix(1,0,0,1,-0.8909912109375,3.7229995727539062)"><g opacity="1" transform="matrix(1,0,0,1,279.6990051269531,111.81199645996094)"><path fill="rgb(219,148,104)" fill-opacity="1" d=" M-34.222999572753906,-10.583000183105469 C-37.72600173950195,-10.583000183105469 -81.95700073242188,-17.172000885009766 -79.61699676513672,9.887999534606934 C-77.10800170898438,38.90700149536133 -18.81999969482422,57.029998779296875 22.433000564575195,52.749000549316406 C63.68600082397461,48.46799850463867 77.42500305175781,16.92099952697754 73.14399719238281,-1.7589999437332153 C68.86299896240234,-20.440000534057617 33.27000045776367,-13.871000289916992 33.27000045776367,-13.871000289916992 C33.27000045776367,-13.871000289916992 -34.222999572753906,-10.583000183105469 -34.222999572753906,-10.583000183105469z"></path></g><g opacity="1" transform="matrix(1,0,0,1,284.3420104980469,106.94200134277344)"><path fill="url(#__lottie_element_17)" mask="url(#__lottie_element_19)" fill-opacity="1" d="M0 0 M-78.78500366210938,-1.1740000247955322 C-76.83899688720703,-12.460000038146973 -54.07899856567383,-5.9120001792907715 -11.1899995803833,-5.120999813079834 C40.944000244140625,-4.159999847412109 64.7300033569336,-7.111000061035156 61.17900085449219,11.229000091552734 C57.5,30.229999542236328 35.952999114990234,49.2239990234375 -5.26200008392334,46.869998931884766 C-59.40999984741211,43.777000427246094 -81.87300109863281,16.738000869750977 -78.78500366210938,-1.1740000247955322z"></path><path stroke-linecap="butt" stroke-linejoin="miter" fill-opacity="0" stroke-miterlimit="10" stroke="rgb(118,64,29)" stroke-opacity="1" stroke-width="10.714" d=" M-78.78500366210938,-1.1740000247955322 C-76.83899688720703,-12.460000038146973 -54.07899856567383,-5.9120001792907715 -11.1899995803833,-5.120999813079834 C40.944000244140625,-4.159999847412109 64.7300033569336,-7.111000061035156 61.17900085449219,11.229000091552734 C57.5,30.229999542236328 35.952999114990234,49.2239990234375 -5.26200008392334,46.869998931884766 C-59.40999984741211,43.777000427246094 -81.87300109863281,16.738000869750977 -78.78500366210938,-1.1740000247955322z"></path></g><g opacity="1" transform="matrix(1,0,0,1,279.9519958496094,47.73400115966797)"><path fill="rgb(219,148,104)" fill-opacity="1" d=" M-98.8010025024414,43.882999420166016 C-98.8010025024414,43.882999420166016 -102.01200103759766,38.33700180053711 -95.2979965209961,31.916000366210938 C-88.58499908447266,25.493999481201172 -84.79100036621094,19.948999404907227 -81.58000183105469,23.159000396728516 C-78.36900329589844,26.3700008392334 -84.4990005493164,36.00199890136719 -76.91000366210938,38.92100143432617 C-69.32099914550781,41.84000015258789 61.369998931884766,40.856998443603516 71.29399871826172,42.025001525878906 C81.21800231933594,43.19200134277344 85.01300048828125,47.27899932861328 82.09400177001953,53.992000579833984 C79.17500305175781,60.70500183105469 71.1989974975586,59.86000061035156 71.1989974975586,59.86000061035156 C71.1989974975586,59.86000061035156 -89.16899871826172,51.47200012207031 -92.6709976196289,49.137001037597656 C-96.17400360107422,46.801998138427734 -98.8010025024414,43.882999420166016 -98.8010025024414,43.882999420166016z"></path></g><g opacity="1" transform="matrix(1,0,0,1,-18.468017578125,8.856002807617188)"><g opacity="1" transform="matrix(1,0,0,1,288.22198486328125,107.56999969482422)"><path fill="rgb(34,35,44)" fill-opacity="1" d=" M14.836999893188477,0 C14.836999893188477,8.194000244140625 8.194000244140625,14.836999893188477 0,14.836999893188477 C-8.194000244140625,14.836999893188477 -14.836999893188477,8.194000244140625 -14.836999893188477,0 C-14.836999893188477,-8.194000244140625 -8.194000244140625,-14.836999893188477 0,-14.836999893188477 C8.194000244140625,-14.836999893188477 14.836999893188477,-8.194000244140625 14.836999893188477,0z"></path></g><g opacity="1" transform="matrix(1,0,0,1,302.718994140625,104.95700073242188)"><path fill="rgb(255,255,255)" fill-opacity="1" d=" M5.986999988555908,0 C5.986999988555908,2.7330000400543213 3.305999994277954,4.947999954223633 -0.0010000000474974513,4.947999954223633 C-3.306999921798706,4.947999954223633 -5.986999988555908,2.7330000400543213 -5.986999988555908,0 C-5.986999988555908,-2.7330000400543213 -3.306999921798706,-4.947999954223633 -0.0010000000474974513,-4.947999954223633 C3.305999994277954,-4.947999954223633 5.986999988555908,-2.7330000400543213 5.986999988555908,0z"></path></g></g><g opacity="1" transform="matrix(1,0,0,1,273.1400146484375,47.6609992980957)"><path stroke-linecap="round" stroke-linejoin="round" fill-opacity="0" stroke="rgb(143,70,32)" stroke-opacity="1" stroke-width="13" d=" M-82.5459976196289,24.586000442504883 C-82.5459976196289,24.586000442504883 -106.09600067138672,39.74800109863281 -86.96199798583984,49.63199996948242 C-75.36499786376953,55.62300109863281 -17.35099983215332,51.619998931884766 10.076000213623047,52.564998626708984 C37.50299835205078,53.5099983215332 82.78299713134766,55.645999908447266 82.78299713134766,55.645999908447266"></path></g></g><g opacity="1" transform="matrix(1,0,0,1,0,0)"><g opacity="1" transform="matrix(1,0,0,1,116.78800201416016,138.31500244140625)"><path fill="rgb(219,148,104)" fill-opacity="1" d=" M-45.736000061035156,-79.67500305175781 C-45.736000061035156,-79.67500305175781 -99.85800170898438,-19.642000198364258 -49.393001556396484,14.303000450134277 C-16.891000747680664,36.165000915527344 19.434999465942383,28.136999130249023 37.75,13.895999908447266 C51.90299987792969,2.8919999599456787 58.24700164794922,-17.552000045776367 58.332000732421875,-23.44099998474121 C58.819000244140625,-57.3380012512207 32.551998138427734,-78.12200164794922 32.551998138427734,-78.12200164794922 C32.551998138427734,-78.12200164794922 -45.736000061035156,-79.67500305175781 -45.736000061035156,-79.67500305175781z"></path></g><g opacity="1" transform="matrix(1,0,0,1,124.75800323486328,128.28199768066406)"><path fill="url(#__lottie_element_20)" mask="url(#__lottie_element_22)" fill-opacity="1" d="M0 0 M-77.11100006103516,-14.88700008392334 C-76.8270034790039,-17.834999084472656 -79.3270034790039,-39.31399917602539 -62.21900177001953,-53.1349983215332 C-54.435001373291016,-59.42399978637695 -41.380001068115234,-67.49099731445312 -7.423999786376953,-64.93000030517578 C23.172000885009766,-62.62200164794922 38.672000885009766,-37.486000061035156 38.83599853515625,-23.038000106811523 C39.06100082397461,-3.128000020980835 29.672000885009766,21.468000411987305 -2.3239998817443848,24.76300048828125 C-62.29399871826172,30.93899917602539 -75.48699951171875,-7.552999973297119 -75.8759994506836,-10.666999816894531 C-75.9800033569336,-11.49899959564209 -77.20899963378906,-13.873000144958496 -77.11100006103516,-14.88700008392334z"></path><path stroke-linecap="butt" stroke-linejoin="miter" fill-opacity="0" stroke-miterlimit="10" stroke="rgb(118,65,30)" stroke-opacity="1" stroke-width="10.714" d=" M-77.11100006103516,-14.88700008392334 C-76.8270034790039,-17.834999084472656 -79.3270034790039,-39.31399917602539 -62.21900177001953,-53.1349983215332 C-54.435001373291016,-59.42399978637695 -41.380001068115234,-67.49099731445312 -7.423999786376953,-64.93000030517578 C23.172000885009766,-62.62200164794922 38.672000885009766,-37.486000061035156 38.83599853515625,-23.038000106811523 C39.06100082397461,-3.128000020980835 29.672000885009766,21.468000411987305 -2.3239998817443848,24.76300048828125 C-62.29399871826172,30.93899917602539 -75.48699951171875,-7.552999973297119 -75.8759994506836,-10.666999816894531 C-75.9800033569336,-11.49899959564209 -77.20899963378906,-13.873000144958496 -77.11100006103516,-14.88700008392334z"></path></g><g opacity="1" transform="matrix(1,0,0,1,-31.79399871826172,-8.089996337890625)"><g opacity="1" transform="matrix(1,0,0,1,122.24299621582031,116.1259994506836)"><path fill="rgb(34,35,44)" fill-opacity="1" d=" M15.378000259399414,0 C15.378000259399414,8.493000030517578 8.493000030517578,15.378000259399414 0,15.378000259399414 C-8.493000030517578,15.378000259399414 -15.378000259399414,8.493000030517578 -15.378000259399414,0 C-15.378000259399414,-8.493000030517578 -8.493000030517578,-15.378000259399414 0,-15.378000259399414 C8.493000030517578,-15.378000259399414 15.378000259399414,-8.493000030517578 15.378000259399414,0z"></path></g><g opacity="1" transform="matrix(1,0,0,1,134.95199584960938,117.2249984741211)"><path fill="rgb(255,255,255)" fill-opacity="1" d=" M5.468999862670898,0 C5.468999862670898,2.075000047683716 3.0199999809265137,3.757999897003174 0,3.757999897003174 C-3.0209999084472656,3.757999897003174 -5.468999862670898,2.075000047683716 -5.468999862670898,0 C-5.468999862670898,-2.075000047683716 -3.0209999084472656,-3.757999897003174 0,-3.757999897003174 C3.0199999809265137,-3.757999897003174 5.468999862670898,-2.075000047683716 5.468999862670898,0z"></path></g></g><g opacity="1" transform="matrix(1,0,0,1,119.9990005493164,86.26300048828125)"><path fill="rgb(219,148,104)" fill-opacity="1" d=" M-76.5790023803711,-29.7810001373291 C-76.5790023803711,-29.7810001373291 -87.37100219726562,-29.589000701904297 -82.11699676513672,-35.1349983215332 C-76.86299896240234,-40.680999755859375 -61.21099853515625,-39.481998443603516 -32.319000244140625,-40.47800064086914 C-2.875,-41.49300003051758 30.229999542236328,-45.611000061035156 37.23500061035156,-46.77799987792969 C44.2400016784668,-47.94599914550781 42.78099822998047,-55.53499984741211 44.2400016784668,-58.45399856567383 C45.70000076293945,-61.37200164794922 54.83700180053711,-63.441001892089844 55.41999816894531,-52.3489990234375 C56.00400161743164,-41.257999420166016 58.24399948120117,-34.08399963378906 38.395999908447266,-32.33300018310547 C18.54800033569336,-30.58099937438965 -76.5790023803711,-29.7810001373291 -76.5790023803711,-29.7810001373291z"></path></g><g opacity="1" transform="matrix(1,0,0,1,124.37699890136719,89.18199920654297)"><path stroke-linecap="round" stroke-linejoin="round" fill-opacity="0" stroke="rgb(143,69,31)" stroke-opacity="1" stroke-width="12.857" d=" M-85.43499755859375,-32.255001068115234 C-85.43499755859375,-32.255001068115234 -11.236000061035156,-31.118000030517578 18.535999298095703,-31.118000030517578 C45.972999572753906,-31.118000030517578 47.89899826049805,-32.67300033569336 50.46200180053711,-40.027000427246094 C52.95800018310547,-47.18899917602539 49.486000061035156,-57.111000061035156 49.486000061035156,-57.111000061035156"></path></g></g></g></g></svg>