<svg xmlns="http://www.w3.org/2000/svg" xmlns:xlink="http://www.w3.org/1999/xlink" viewBox="0 0 512 512" width="512" height="512" style="width: 100%; height: 100%; transform: translate3d(0,0,0); content-visibility: visible;" preserveAspectRatio="xMidYMid meet"><defs><clipPath id="__lottie_element_2"><rect width="512" height="512" x="0" y="0"></rect></clipPath><radialGradient id="__lottie_element_8" spreadMethod="pad" gradientUnits="userSpaceOnUse" cx="180.5" cy="-153.468994140625" r="283.4993071109898" fx="103.21452091063462" fy="-82.7782951061108"><stop offset="0%" stop-color="rgb(55,158,221)"></stop><stop offset="55%" stop-color="rgb(36,136,211)"></stop><stop offset="100%" stop-color="rgb(17,114,201)"></stop></radialGradient><radialGradient id="__lottie_element_35" spreadMethod="pad" gradientUnits="userSpaceOnUse" cx="144.60499572753906" cy="-186.92999267578125" r="336.40848198444763" fx="144.60499572753906" fy="-186.92999267578125"><stop offset="0%" stop-color="rgb(249,223,201)"></stop><stop offset="64%" stop-color="rgb(249,202,171)"></stop><stop offset="100%" stop-color="rgb(250,181,140)"></stop></radialGradient></defs><g clip-path="url(#__lottie_element_2)"><g style="display: block;" transform="matrix(0.9505000114440918,0,0,0.9292100667953491,-15.815879821777344,78.47321319580078)" opacity="1"><g opacity="1" transform="matrix(1,0,0,1,176.27499389648438,222.04800415039062)"><path fill="rgb(167,201,234)" fill-opacity="1" d=" M66.0739974975586,-190.59300231933594 C66.0739974975586,-190.59300231933594 -30.246000289916992,-146.1750030517578 -71.23500061035156,-123.66100311279297 C-112.2229995727539,-101.14700317382812 -142.82000732421875,-66.24199676513672 -142.1929931640625,-49.986000061035156 C-141.875,-41.74300003051758 -137.4080047607422,-36.051998138427734 -133.08099365234375,-32.444000244140625 C-128.05099487304688,-28.250999450683594 -125.11699676513672,-22.05900001525879 -125.24700164794922,-15.51200008392334 C-125.7239990234375,8.460000038146973 -124.59700012207031,63.125999450683594 -106.49299621582031,96.18399810791016 C-82.79299926757812,139.4600067138672 -60.74100112915039,151.97999572753906 -60.74100112915039,151.97999572753906 C-60.74100112915039,151.97999572753906 -56.374000549316406,177.1719970703125 -44.000999450683594,182.11000061035156 C-22.7450008392334,190.59300231933594 3.9820001125335693,166.48699951171875 3.9820001125335693,166.48699951171875 C3.9820001125335693,166.48699951171875 146.81900024414062,114.03900146484375 146.81900024414062,114.03900146484375 C146.81900024414062,114.03900146484375 66.0739974975586,-190.59300231933594 66.0739974975586,-190.59300231933594z"></path><path stroke-linecap="butt" stroke-linejoin="miter" fill-opacity="0" stroke-miterlimit="10" stroke="rgb(115,136,201)" stroke-opacity="1" stroke-width="12.582" d=" M66.0739974975586,-190.59300231933594 C66.0739974975586,-190.59300231933594 -30.246000289916992,-146.1750030517578 -71.23500061035156,-123.66100311279297 C-112.2229995727539,-101.14700317382812 -142.82000732421875,-66.24199676513672 -142.1929931640625,-49.986000061035156 C-141.875,-41.74300003051758 -137.4080047607422,-36.051998138427734 -133.08099365234375,-32.444000244140625 C-128.05099487304688,-28.250999450683594 -125.11699676513672,-22.05900001525879 -125.24700164794922,-15.51200008392334 C-125.7239990234375,8.460000038146973 -124.59700012207031,63.125999450683594 -106.49299621582031,96.18399810791016 C-82.79299926757812,139.4600067138672 -60.74100112915039,151.97999572753906 -60.74100112915039,151.97999572753906 C-60.74100112915039,151.97999572753906 -56.374000549316406,177.1719970703125 -44.000999450683594,182.11000061035156 C-22.7450008392334,190.59300231933594 3.9820001125335693,166.48699951171875 3.9820001125335693,166.48699951171875 C3.9820001125335693,166.48699951171875 146.81900024414062,114.03900146484375 146.81900024414062,114.03900146484375 C146.81900024414062,114.03900146484375 66.0739974975586,-190.59300231933594 66.0739974975586,-190.59300231933594z"></path></g><g opacity="1" transform="matrix(1,0,0,1,136.82699584960938,244.0240020751953)"><path fill="rgb(115,136,201)" fill-opacity="1" d=" M-6.438000202178955,-143.39500427246094 C-6.438000202178955,-143.39500427246094 -60.516998291015625,-101.23699951171875 -60.00299835205078,-38.499000549316406 C-59.44499969482422,29.57200050354004 -35.452999114990234,80.90399932861328 -23.17799949645996,97.64299774169922 C-10.902999877929688,114.38099670410156 -1.975000023841858,141.16299438476562 18.111000061035156,142.2790069580078 C38.198001861572266,143.39500427246094 60.51599884033203,114.38099670410156 60.51599884033203,114.38099670410156 C60.51599884033203,114.38099670410156 9.184000015258789,-85.36699676513672 9.184000015258789,-85.36699676513672 C9.184000015258789,-85.36699676513672 -6.438000202178955,-143.39500427246094 -6.438000202178955,-143.39500427246094z"></path></g></g><g style="display: block;" transform="matrix(0.9443597793579102,0,0,0.9440616965293884,24.21700096130371,44.804141998291016)" opacity="1"><g opacity="1" transform="matrix(1,0,0,1,112.0270004272461,86.66200256347656)"><path fill="rgb(111,60,170)" fill-opacity="1" d=" M91.13200378417969,-24.15399932861328 C91.13200378417969,-24.15399932861328 42.21200180053711,-62.59700012207031 -20.950000762939453,-62.59700012207031 C-21.988000869750977,-62.59700012207031 -56.09199905395508,-47.31999969482422 -59.327999114990234,-41.85200119018555 C-62.5629997253418,-36.382999420166016 -77.24800109863281,-22.83799934387207 -79.03500366210938,-9.696999549865723 C-80.8219985961914,3.444999933242798 -87.96099853515625,51.85100173950195 -85.48999786376953,57.5 C-85.20700073242188,58.145999908447266 -75.89800262451172,51.90299987792969 -72.78099822998047,48.31999969482422 C-69.66400146484375,44.737998962402344 -48.48099899291992,18.402000427246094 -43.62099838256836,17.777000427246094 C-38.76100158691406,17.150999069213867 -51.4739990234375,48.474998474121094 -34.457000732421875,58.452999114990234 C-27.391000747680664,62.59700012207031 3.99399995803833,42.71200180053711 3.99399995803833,42.71200180053711 C3.99399995803833,42.71200180053711 91.13200378417969,-24.15399932861328 91.13200378417969,-24.15399932861328z"></path><path stroke-linecap="round" stroke-linejoin="round" fill-opacity="0" stroke="rgb(65,18,114)" stroke-opacity="1" stroke-width="9.626" d=" M91.13200378417969,-24.15399932861328 C91.13200378417969,-24.15399932861328 42.21200180053711,-62.59700012207031 -20.950000762939453,-62.59700012207031 C-21.988000869750977,-62.59700012207031 -56.09199905395508,-47.31999969482422 -59.327999114990234,-41.85200119018555 C-62.5629997253418,-36.382999420166016 -77.24800109863281,-22.83799934387207 -79.03500366210938,-9.696999549865723 C-80.8219985961914,3.444999933242798 -87.96099853515625,51.85100173950195 -85.48999786376953,57.5 C-85.20700073242188,58.145999908447266 -75.89800262451172,51.90299987792969 -72.78099822998047,48.31999969482422 C-69.66400146484375,44.737998962402344 -48.48099899291992,18.402000427246094 -43.62099838256836,17.777000427246094 C-38.76100158691406,17.150999069213867 -51.4739990234375,48.474998474121094 -34.457000732421875,58.452999114990234 C-27.391000747680664,62.59700012207031 3.99399995803833,42.71200180053711 3.99399995803833,42.71200180053711 C3.99399995803833,42.71200180053711 91.13200378417969,-24.15399932861328 91.13200378417969,-24.15399932861328z"></path></g><g opacity="1" transform="matrix(1,0,0,1,71.29000091552734,96.88600158691406)"><path fill="rgb(111,60,170)" fill-opacity="1" d=" M7.322999954223633,-16.871000289916992 C7.322999954223633,-16.871000289916992 -1.562999963760376,-7.8429999351501465 -2.7750000953674316,-1.9110000133514404 C-3.986999988555908,4.021999835968018 -7.322999954223633,16.871000289916992 -7.322999954223633,16.871000289916992"></path></g><g opacity="0.59" transform="matrix(1,0,0,1,71.29000091552734,96.88600158691406)"><path stroke-linecap="round" stroke-linejoin="round" fill-opacity="0" stroke="rgb(65,18,114)" stroke-opacity="1" stroke-width="9.626" d=" M2.322999954223633,-10.871000289916992 C2.322999954223633,-10.871000289916992 -1.562999963760376,-7.8429999351501465 -2.7750000953674316,-1.9110000133514404 C-3.986999988555908,4.021999835968018 -7.322999954223633,16.871000289916992 -7.322999954223633,16.871000289916992"></path></g><g opacity="1" transform="matrix(1,0,0,1,130.25799560546875,64.8759994506836)"><path fill="rgb(255,255,255)" fill-opacity="1" d=" M6.002999782562256,27.674999237060547 C6.002999782562256,27.674999237060547 -2.7639999389648438,21.18000030517578 -2.7639999389648438,21.18000030517578 C-3.7260000705718994,20.466999053955078 -4.9770002365112305,20.27400016784668 -6.109000205993652,20.663000106811523 C-6.109000205993652,20.663000106811523 -16.43000030517578,24.201000213623047 -16.43000030517578,24.201000213623047 C-19.281999588012695,25.179000854492188 -22.01799964904785,22.46299934387207 -21.05900001525879,19.604999542236328 C-21.05900001525879,19.604999542236328 -17.590999603271484,9.260000228881836 -17.590999603271484,9.260000228881836 C-17.209999084472656,8.125 -17.413000106811523,6.874000072479248 -18.131999969482422,5.916999816894531 C-18.131999969482422,5.916999816894531 -24.687000274658203,-2.803999900817871 -24.687000274658203,-2.803999900817871 C-26.499000549316406,-5.214000225067139 -24.760000228881836,-8.654999732971191 -21.7450008392334,-8.626999855041504 C-21.7450008392334,-8.626999855041504 -10.835000038146973,-8.524999618530273 -10.835000038146973,-8.524999618530273 C-9.637999534606934,-8.513999938964844 -8.51200008392334,-9.093999862670898 -7.823999881744385,-10.074000358581543 C-7.823999881744385,-10.074000358581543 -1.5549999475479126,-19.00200080871582 -1.5549999475479126,-19.00200080871582 C0.1770000010728836,-21.469999313354492 3.98799991607666,-20.881000518798828 4.892000198364258,-18.0049991607666 C4.892000198364258,-18.0049991607666 8.166999816894531,-7.5960001945495605 8.166999816894531,-7.5960001945495605 C8.526000022888184,-6.453999996185303 9.425000190734863,-5.563000202178955 10.569000244140625,-5.211999893188477 C10.569000244140625,-5.211999893188477 20.999000549316406,-2.007999897003174 20.999000549316406,-2.007999897003174 C23.881000518798828,-1.1230000257492065 24.49799919128418,2.683000087738037 22.04199981689453,4.433000087738037 C22.04199981689453,4.433000087738037 13.156000137329102,10.76200008392334 13.156000137329102,10.76200008392334 C12.180000305175781,11.456999778747559 11.609999656677246,12.588000297546387 11.628999710083008,13.78499984741211 C11.628999710083008,13.78499984741211 11.805999755859375,24.69300079345703 11.805999755859375,24.69300079345703 C11.854999542236328,27.70800018310547 8.425999641418457,29.469999313354492 6.002999782562256,27.674999237060547z"></path></g><g opacity="1" transform="matrix(1,0,0,1,71.29299926757812,53.382999420166016)"><path fill="rgb(255,255,255)" fill-opacity="0.8300000000000001" d=" M19.007999420166016,-13.954999923706055 C19.007999420166016,-13.954999923706055 9.10099983215332,-15.496999740600586 9.10099983215332,-15.496999740600586 C8.149999618530273,-15.645000457763672 7.333000183105469,-16.250999450683594 6.916999816894531,-17.118999481201172 C6.916999816894531,-17.118999481201172 6.663000106811523,-17.64900016784668 6.663000106811523,-17.64900016784668 C4.205999851226807,-16.638999938964844 0.734000027179718,-15.451000213623047 -1.50600004196167,-14.071999549865723 C-6.5929999351501465,-10.942000389099121 -11.00100040435791,-8.513999938964844 -14.815999984741211,-5.184999942779541 C-14.815999984741211,-5.184999942779541 -13.92300033569336,-2.296999931335449 -13.92300033569336,-2.296999931335449 C-13.239999771118164,-1.6169999837875366 -12.9350004196167,-0.6449999809265137 -13.107000350952148,0.30300000309944153 C-13.107000350952148,0.30300000309944153 -14.901000022888184,10.163000106811523 -14.901000022888184,10.163000106811523 C-15.335000038146973,12.550000190734863 -12.843000411987305,14.399999618530273 -10.684000015258789,13.291999816894531 C-10.684000015258789,13.291999816894531 -1.7669999599456787,8.718000411987305 -1.7669999599456787,8.718000411987305 C-0.9089999794960022,8.277999877929688 0.10999999940395355,8.288999557495117 0.9580000042915344,8.746000289916992 C0.9580000042915344,8.746000289916992 9.781000137329102,13.498000144958496 9.781000137329102,13.498000144958496 C11.918000221252441,14.64900016784668 14.446000099182129,12.850000381469727 14.0600004196167,10.454999923706055 C14.0600004196167,10.454999923706055 12.465999603271484,0.5609999895095825 12.465999603271484,0.5609999895095825 C12.312000274658203,-0.39100000262260437 12.63700008392334,-1.3569999933242798 13.333999633789062,-2.0220000743865967 C13.333999633789062,-2.0220000743865967 20.579999923706055,-8.944999694824219 20.579999923706055,-8.944999694824219 C22.334999084472656,-10.621000289916992 21.4060001373291,-13.581999778747559 19.007999420166016,-13.954999923706055z"></path></g><g opacity="1" transform="matrix(1,0,0,1,49.71799850463867,108.83100128173828)"><path fill="rgb(255,255,255)" fill-opacity="0.73" d=" M-5.646999835968018,8.187999725341797 C-5.646999835968018,8.187999725341797 -6.401000022888184,14.868000030517578 -6.401000022888184,14.868000030517578 C-6.538000106811523,16.077999114990234 -6.0970001220703125,17.136999130249023 -5.357999801635742,17.884000778198242 C-1.1540000438690186,11.197999954223633 5.173999786376953,1.2990000247955322 7.886000156402588,-2.0920000076293945 C9.607999801635742,-4.24399995803833 11.553000450134277,-6.583000183105469 13.260000228881836,-8.609999656677246 C12.559000015258789,-8.930999755859375 11.96399974822998,-9.463000297546387 11.572999954223633,-10.152000427246094 C11.572999954223633,-10.152000427246094 8.256999969482422,-15.99899959564209 8.256999969482422,-15.99899959564209 C6.73799991607666,-18.679000854492188 2.805000066757202,-18.452999114990234 1.6019999980926514,-15.616999626159668 C1.6019999980926514,-15.616999626159668 -1.0219999551773071,-9.428000450134277 -1.0219999551773071,-9.428000450134277 C-1.5,-8.302000045776367 -2.500999927520752,-7.482999801635742 -3.6989998817443848,-7.23799991607666 C-3.6989998817443848,-7.23799991607666 -10.28499984741211,-5.890999794006348 -10.28499984741211,-5.890999794006348 C-13.303000450134277,-5.27400016784668 -14.303999900817871,-1.4639999866485596 -11.977999687194824,0.5569999814033508 C-11.977999687194824,0.5569999814033508 -6.9029998779296875,4.965000152587891 -6.9029998779296875,4.965000152587891 C-5.979000091552734,5.767000198364258 -5.510000228881836,6.9720001220703125 -5.646999835968018,8.187999725341797z"></path></g></g><g style="display: block;" transform="matrix(0.9443597793579102,0,0,0.9440616965293884,40.02463150024414,66.992431640625)" opacity="1"><g opacity="1" transform="matrix(1,0,0,1,209.8990020751953,218.5489959716797)"><path fill="url(#__lottie_element_35)" fill-opacity="1" d=" M-174.28599548339844,77.60299682617188 C-184.69700622558594,50.972999572753906 -189.6929931640625,16.434999465942383 -183.75799560546875,-27.357999801635742 C-176.90199279785156,-77.60399627685547 -159.45199584960938,-101.02999877929688 -140.43899536132812,-124.31800079345703 C-103.76799774169922,-169.3679962158203 -61.47999954223633,-176.4600067138672 7.741000175476074,-177.81399536132812 C68.30400085449219,-178.99899291992188 139.10899353027344,-97.88600158691406 151.8470001220703,-82.86599731445312 C164.58399963378906,-67.84600067138672 167.23500061035156,-63.053001403808594 169.88900756835938,-31.871999740600586 C172.54400634765625,-0.6909999847412109 176.9219970703125,48.36800003051758 176.6580047607422,57.44900131225586 C176.3939971923828,66.53099822998047 168.29299926757812,94.1050033569336 153.1280059814453,107.50900268554688 C137.96200561523438,120.91200256347656 123.51100158691406,138.8209991455078 106.84100341796875,148.86399841308594 C90.16999816894531,158.90699768066406 58.84700012207031,163.93299865722656 23.618999481201172,172.9739990234375 C-25.466999053955078,185.57200622558594 -49.27799987792969,187.03500366210938 -75.78099822998047,179.60699462890625 C-121.77400207519531,167.7239990234375 -159.3730010986328,115.75199890136719 -174.28599548339844,77.60299682617188z"></path><path stroke-linecap="butt" stroke-linejoin="miter" fill-opacity="0" stroke-miterlimit="10" stroke="rgb(173,92,37)" stroke-opacity="1" stroke-width="13.191" d=" M-174.28599548339844,77.60299682617188 C-184.69700622558594,50.972999572753906 -189.6929931640625,16.434999465942383 -183.75799560546875,-27.357999801635742 C-176.90199279785156,-77.60399627685547 -159.45199584960938,-101.02999877929688 -140.43899536132812,-124.31800079345703 C-103.76799774169922,-169.3679962158203 -61.47999954223633,-176.4600067138672 7.741000175476074,-177.81399536132812 C68.30400085449219,-178.99899291992188 139.10899353027344,-97.88600158691406 151.8470001220703,-82.86599731445312 C164.58399963378906,-67.84600067138672 167.23500061035156,-63.053001403808594 169.88900756835938,-31.871999740600586 C172.54400634765625,-0.6909999847412109 176.9219970703125,48.36800003051758 176.6580047607422,57.44900131225586 C176.3939971923828,66.53099822998047 168.29299926757812,94.1050033569336 153.1280059814453,107.50900268554688 C137.96200561523438,120.91200256347656 123.51100158691406,138.8209991455078 106.84100341796875,148.86399841308594 C90.16999816894531,158.90699768066406 58.84700012207031,163.93299865722656 23.618999481201172,172.9739990234375 C-25.466999053955078,185.57200622558594 -49.27799987792969,187.03500366210938 -75.78099822998047,179.60699462890625 C-121.77400207519531,167.7239990234375 -159.3730010986328,115.75199890136719 -174.28599548339844,77.60299682617188z"></path></g><g opacity="1" transform="matrix(1,0,0,1,292.9419860839844,184.49899291992188)"><path fill="rgb(255,242,238)" fill-opacity="1" d=" M-54.36800003051758,-125.39099884033203 C-36.215999603271484,-117.77400207519531 -18.56100082397461,-106.32099914550781 2.694000005722046,-88.01599884033203 C19.875,-73.22000122070312 29.476999282836914,-62.71200180053711 41.06100082397461,-46.53300094604492 C54.20600128173828,-28.174999237060547 52.321998596191406,-17.716999053955078 57.47600173950195,9.708000183105469 C61.652000427246094,31.926000595092773 67.56400299072266,73.88700103759766 66.94499969482422,86.70999908447266 C66.3270034790039,99.53199768066406 66.63600158691406,117.91999816894531 61.775001525878906,128.16099548339844 C58.834999084472656,134.35400390625 48.03900146484375,150.28900146484375 48.03900146484375,150.28900146484375 C48.03900146484375,150.28900146484375 63.45000076293945,135.33299255371094 70.13800048828125,121.95800018310547 C76.82599639892578,108.58200073242188 74.4260025024414,93.52400207519531 73.28500366210938,83.03399658203125 C70.68099975585938,59.08700180053711 85.37300109863281,-2.1640000343322754 82.66600036621094,-13.944999694824219 C78.7770004272461,-30.874000549316406 59.25199890136719,-48.6870002746582 39.83300018310547,-70.3740005493164 C20.415000915527344,-92.06199645996094 -7.986000061035156,-112.93099975585938 -37.422000885009766,-125.39099884033203 C-41.68199920654297,-127.19400024414062 -59.36899948120117,-131.63400268554688 -65.48899841308594,-132.2740020751953 C-84.75599670410156,-134.28900146484375 -98.53399658203125,-133.25999450683594 -99.52300262451172,-132.73599243164062 C-100.82599639892578,-132.0449981689453 -63.17300033569336,-129.08599853515625 -54.36800003051758,-125.39099884033203z"></path></g><g opacity="0.72" transform="matrix(1,0,0,1,234.23699951171875,294.4360046386719)"><path fill="rgb(229,137,106)" fill-opacity="1" d=" M-197.1060028076172,-121.7300033569336 C-197.1060028076172,-121.7300033569336 -181.68699645996094,-27.500999450683594 -118.93299865722656,7.451000213623047 C-78.9990005493164,29.69300079345703 -41.948001861572266,25.82900047302246 -20.43400001525879,31.2810001373291 C23.7810001373291,42.486000061035156 42.564998626708984,83.08100128173828 70.7229995727539,80.38999938964844 C91.62699890136719,78.39199829101562 179.35699462890625,67.53399658203125 179.35699462890625,67.53399658203125 C179.35699462890625,67.53399658203125 176.15199279785156,74.71299743652344 140.6269989013672,85.16799926757812 C111.52999877929688,93.73100280761719 48.87699890136719,106.24199676513672 13.62600040435791,112.55599975585938 C0.2590000033378601,114.95099639892578 -44.54899978637695,118.98699951171875 -71.15599822998047,111.03199768066406 C-97.76300048828125,103.07599639892578 -127.7229995727539,87.26399993896484 -148.4969940185547,65.86000061035156 C-169.27000427246094,44.45600128173828 -182.4949951171875,33.987998962402344 -197.95700073242188,-17.940000534057617 C-210.85499572753906,-61.257999420166016 -197.1060028076172,-121.7300033569336 -197.1060028076172,-121.7300033569336z"></path></g></g><g style="display: block;" transform="matrix(0.9449395537376404,0,0,0.9446413516998291,164.19480895996094,228.06576538085938)" opacity="1"><g opacity="1" transform="matrix(1,0,0,1,123.52899932861328,117.60600280761719)"><path fill="rgb(229,137,106)" fill-opacity="1" d=" M-123.52799987792969,99.60099792480469 C-123.52799987792969,99.60099792480469 -98.90299987792969,4.013999938964844 -33.76599884033203,-45.236000061035156 C31.3700008392334,-94.48500061035156 71.88200378417969,-115.93299865722656 100.47899627685547,-117.52200317382812 C129.0760040283203,-119.11000061035156 122.98600006103516,-97.66300201416016 122.98600006103516,-97.66300201416016 C122.98600006103516,-97.66300201416016 102.86199951171875,-36.49800109863281 102.86199951171875,-36.49800109863281 C102.86199951171875,-36.49800109863281 -16.291000366210938,49.29199981689453 -16.291000366210938,49.29199981689453 C-16.291000366210938,49.29199981689453 -51.242000579833984,117.60600280761719 -51.242000579833984,117.60600280761719 C-51.242000579833984,117.60600280761719 -123.52799987792969,99.60099792480469 -123.52799987792969,99.60099792480469z"></path></g></g><g style="display: block;" transform="matrix(0.9443597793579102,0,0,0.9440616965293884,196.4285430908203,163.7852020263672)" opacity="1"><g opacity="1" transform="matrix(1,0,0,1,0,0)"><g opacity="1" transform="matrix(1,0,0,1,153.71299743652344,88.54399871826172)"><path stroke-linecap="round" stroke-linejoin="round" fill-opacity="0" stroke="rgb(209,122,98)" stroke-opacity="1" stroke-width="7.876" d=" M-2.500999927520752,-12.140000343322754 C-2.500999927520752,-12.140000343322754 2.500999927520752,-8.427000045776367 2.4760000705718994,-0.3540000021457672 C2.4509999752044678,7.718999862670898 0.014999999664723873,12.140000343322754 0.014999999664723873,12.140000343322754"></path></g><g opacity="1" transform="matrix(1,0,0,1,41.71699905395508,121.51100158691406)"><path stroke-linecap="round" stroke-linejoin="round" fill-opacity="0" stroke="rgb(209,122,98)" stroke-opacity="0.66" stroke-width="9.151" d=" M-20.808000564575195,-10.473999977111816 C-20.808000564575195,-10.473999977111816 -19.049999237060547,7.244999885559082 -8.413000106811523,12.50100040435791 C7.046000003814697,20.138999938964844 18.839000701904297,-3.431999921798706 18.839000701904297,-3.431999921798706"></path></g><g opacity="1" transform="matrix(1,0,0,1,82.9020004272461,62.534000396728516)"><path fill="rgb(244,149,108)" fill-opacity="1" d=" M44.16600036621094,-32.356998443603516 C44.16600036621094,-32.356998443603516 30.91699981689453,-43.52799987792969 11.746999740600586,-35.819000244140625 C-6.7870001792907715,-28.365999221801758 -22.827999114990234,-13.258000373840332 -30.576000213623047,2.1089999675750732 C-38.32500076293945,17.475000381469727 -46.09299850463867,41.257999420166016 -44.45800018310547,41.301998138427734 C-42.821998596191406,41.345001220703125 -25.25200080871582,8.4350004196167 -15.11400032043457,-2.5420000553131104 C-4.974999904632568,-13.519000053405762 6.442999839782715,-20.878000259399414 11.866000175476074,-23.391000747680664 C17.290000915527344,-25.90399932861328 44.16600036621094,-32.356998443603516 44.16600036621094,-32.356998443603516z"></path></g><g opacity="1" transform="matrix(1,0,0,1,140.29600524902344,20.652000427246094)"><path stroke-linecap="round" stroke-linejoin="round" fill-opacity="0" stroke="rgb(226,131,109)" stroke-opacity="0.54" stroke-width="8.747" d=" M-12.677000045776367,-8.355999946594238 C-12.677000045776367,-8.355999946594238 5.14900016784668,-8.477999687194824 10.371000289916992,-3.058000087738037 C18.677000045776367,5.564000129699707 13.701000213623047,14.477999687194824 13.701000213623047,14.477999687194824"></path></g><g opacity="1" transform="matrix(1,0,0,1,0,0)"><path fill="rgb(68,42,30)" fill-opacity="1" d=" M69.74199676513672,55.922000885009766 C44.290000915527344,80.06800079345703 39.715999603271484,110.08499908447266 39.715999603271484,110.08499908447266 C39.715999603271484,110.08499908447266 51.13800048828125,53.09299850463867 96.38400268554688,34.37799835205078 C104.27899932861328,31.11199951171875 131.35400390625,37.606998443603516 140.5590057373047,37.185001373291016 C140.58200073242188,35.27199935913086 103.26100158691406,24.12299919128418 69.74199676513672,55.922000885009766z"></path></g><g opacity="1" transform="matrix(1,0,0,1,91.85700225830078,63.47100067138672)"><path stroke-linecap="round" stroke-linejoin="round" fill-opacity="0" stroke="rgb(173,92,37)" stroke-opacity="1" stroke-width="10.502" d=" M-50.040000915527344,45.20899963378906 C-50.040000915527344,45.20899963378906 -36.470001220703125,5.349999904632568 -20.253000259399414,-9.081000328063965 C-9.307999610900879,-18.820999145507812 1.4160000085830688,-28.051000595092773 15.371999740600586,-32.632999420166016 C29.32699966430664,-37.215999603271484 34.58300018310547,-33.090999603271484 38.736000061035156,-28.7810001373291 C42.888999938964844,-24.469999313354492 46.058998107910156,-12.753999710083008 46.52899932861328,-10.048999786376953 C46.999000549316406,-7.343999862670898 47.10499954223633,-3.4649999141693115 47.10499954223633,-3.4649999141693115"></path></g><g opacity="1" transform="matrix(1,0,0,1,91.00499725341797,64.53900146484375)"><path fill="rgb(255,239,233)" fill-opacity="1" d=" M-40.85499954223633,39.755001068115234 C-40.85499954223633,39.755001068115234 -24.91200065612793,6.355000019073486 -2.3350000381469727,-10.281999588012695 C12.46500015258789,-21.187999725341797 20.4060001373291,-22.72800064086914 24.666000366210938,-23.540000915527344 C32.63800048828125,-25.05900001525879 36.67499923706055,-21.910999298095703 36.67499923706055,-21.910999298095703 C36.67499923706055,-21.910999298095703 32.775001525878906,-27.2450008392334 27.65399932861328,-28.604000091552734 C23.284000396728516,-29.76300048828125 15.303999900817871,-26.753000259399414 8.062000274658203,-22.91699981689453 C0.8199999928474426,-19.082000732421875 -13.548999786376953,-8.526000022888184 -22.00200080871582,2.23799991607666 C-35.43199920654297,19.341999053955078 -40.85499954223633,39.755001068115234 -40.85499954223633,39.755001068115234z"></path></g></g></g><g style="display: block;" transform="matrix(0.9443597793579102,0,0,0.9440616965293884,130.14959716796875,97.93971252441406)" opacity="1"><g opacity="1" transform="matrix(0.9759399890899658,0,0,1.0057200193405151,8.483810424804688,0.7079429626464844)"><g opacity="1" transform="matrix(1,0,0,1,137.84800720214844,50.76100158691406)"><path fill="rgb(229,137,106)" fill-opacity="0.75" d=" M-29.56599998474121,9.61299991607666 C-26.885000228881836,17.738000869750977 -15.305000305175781,30.378999710083008 6.63100004196167,26.415000915527344 C28.566999435424805,22.451000213623047 36.05799865722656,4.039999961853027 28.750999450683594,-10.437999725341797 C23.340999603271484,-21.158000946044922 9.4399995803833,-32.54999923706055 -12.22700023651123,-24.386999130249023 C-28.576000213623047,-18.22800064086914 -35.00899887084961,-6.880000114440918 -29.56599998474121,9.61299991607666z"></path></g><g opacity="1" transform="matrix(1,0,0,1,159.8249969482422,72.78399658203125)"><path stroke-linecap="round" stroke-linejoin="round" fill-opacity="0" stroke="rgb(226,131,109)" stroke-opacity="0.65" stroke-width="7.775" d=" M-15.026000022888184,2.236999988555908 C-15.026000022888184,2.236999988555908 -4.2270002365112305,-2.23799991607666 1.9780000448226929,-1.8489999771118164 C8.182999610900879,-1.4600000381469727 15.026000022888184,0.4410000145435333 15.026000022888184,0.4410000145435333"></path></g><g opacity="1" transform="matrix(1,0,0,1,121.0999984741211,72.96099853515625)"><path stroke-linecap="round" stroke-linejoin="round" fill-opacity="0" stroke="rgb(226,131,109)" stroke-opacity="0.78" stroke-width="7.775" d=" M-8.208000183105469,-5.560999870300293 C-8.208000183105469,-5.560999870300293 -4.985000133514404,-1.0759999752044678 -2.9130001068115234,0.7950000166893005 C1.7039999961853027,4.9629998207092285 8.208000183105469,5.560999870300293 8.208000183105469,5.560999870300293"></path></g><g opacity="1" transform="matrix(1,0,0,1,100.40499877929688,39.19499969482422)"><path stroke-linecap="round" stroke-linejoin="round" fill-opacity="0" stroke="rgb(226,131,109)" stroke-opacity="0.7000000000000001" stroke-width="7.876" d=" M2.50600004196167,-11.333000183105469 C2.50600004196167,-11.333000183105469 -3.6740000247955322,-6.9710001945495605 -3.6730000972747803,-1.6629999876022339 C-3.6710000038146973,3.6440000534057617 -1.8919999599456787,6.625999927520752 -0.4569999873638153,8.003000259399414 C0.9769999980926514,9.380999565124512 3.6740000247955322,11.333000183105469 3.6740000247955322,11.333000183105469"></path></g><g opacity="1" transform="matrix(1,0,0,1,141.9320068359375,46.395999908447266)"><path fill="rgb(255,195,161)" fill-opacity="1" d=" M-26.17799949645996,8.125 C-29.650999069213867,-0.09099999815225601 -27.694000244140625,-11.107999801635742 -18.4689998626709,-16.948999404907227 C-7.943999767303467,-23.611000061035156 1.0529999732971191,-22.70800018310547 10.210000038146973,-19.500999450683594 C18.21299934387207,-16.698999404907227 29.650999069213867,-5.580999851226807 28.134000778198242,5.909999847412109 C26.56999969482422,17.753999710083008 14.354999542236328,23.611000061035156 1.246999979019165,23.54800033569336 C-11.861000061035156,23.486000061035156 -23.07699966430664,15.461000442504883 -26.17799949645996,8.125z"></path></g><g opacity="1" transform="matrix(1,0,0,1,141.9320068359375,46.395999908447266)"><path stroke-linecap="round" stroke-linejoin="round" fill-opacity="0" stroke="rgb(173,92,37)" stroke-opacity="1" stroke-width="9.114" d=" M-26.17799949645996,8.125 C-29.650999069213867,-0.09099999815225601 -27.694000244140625,-11.107999801635742 -18.4689998626709,-16.948999404907227 C-7.943999767303467,-23.611000061035156 1.0529999732971191,-22.70800018310547 10.210000038146973,-19.500999450683594 C18.21299934387207,-16.698999404907227 29.650999069213867,-5.580999851226807 28.134000778198242,5.909999847412109 C26.56999969482422,17.753999710083008 14.354999542236328,23.611000061035156 1.246999979019165,23.54800033569336 C-11.861000061035156,23.486000061035156 -23.07699966430664,15.461000442504883 -26.17799949645996,8.125z"></path></g><g opacity="1" transform="matrix(1,0,0,1,147.79600524902344,44.71699905395508)"><path fill="rgb(255,247,244)" fill-opacity="1" d=" M-16.770999908447266,-11.619000434875488 C-16.770999908447266,-11.619000434875488 -6.1539998054504395,-16.764999389648438 2.8550000190734863,-12.015999794006348 C13.87399959564209,-6.206999778747559 16.770999908447266,4.8460001945495605 15.574000358581543,9.20199966430664 C14.378000259399414,13.557999610900879 9.807999610900879,16.764999389648438 9.807999610900879,16.764999389648438 C9.807999610900879,16.764999389648438 12.079000473022461,10.630999565124512 9.689000129699707,6.241000175476074 C7.297999858856201,1.8519999980926514 -1.0130000114440918,-6.936999797821045 -4.809000015258789,-9.045000076293945 C-9.718000411987305,-11.770999908447266 -16.770999908447266,-11.619000434875488 -16.770999908447266,-11.619000434875488z"></path></g></g><g opacity="1" transform="matrix(1,0,0,1,3,2)"><g opacity="1" transform="matrix(1,0,0,1,55.236000061035156,91.00800323486328)"><path fill="rgb(229,137,106)" fill-opacity="1" d=" M-29.566999435424805,9.61299991607666 C-26.88599967956543,17.738000869750977 -15.305000305175781,30.378999710083008 6.63100004196167,26.415000915527344 C28.566999435424805,22.451000213623047 36.05699920654297,4.039999961853027 28.75,-10.437999725341797 C23.34000015258789,-21.158000946044922 9.4399995803833,-32.54999923706055 -12.22700023651123,-24.386999130249023 C-28.576000213623047,-18.22800064086914 -35.0099983215332,-6.880000114440918 -29.566999435424805,9.61299991607666z"></path></g><g opacity="1" transform="matrix(1,0,0,1,94.6449966430664,109.77400207519531)"><path stroke-linecap="round" stroke-linejoin="round" fill-opacity="0" stroke="rgb(226,131,109)" stroke-opacity="0.53" stroke-width="9.114" d=" M4.488999843597412,-11.392000198364258 C4.488999843597412,-11.392000198364258 6.076000213623047,-3.0290000438690186 4.960000038146973,5.026000022888184 C3.8429999351501465,13.081000328063965 2.4240000247955322,21.892000198364258 2.4240000247955322,21.892000198364258"></path></g><g opacity="1" transform="matrix(1,0,0,1,88.89700317382812,71.29199981689453)"><path stroke-linecap="round" stroke-linejoin="round" fill-opacity="0" stroke="rgb(226,131,109)" stroke-opacity="0.73" stroke-width="9.114" d=" M-6.070000171661377,-11.027999877929688 C-6.070000171661377,-11.027999877929688 4.486999988555908,-4.288000106811523 5.205999851226807,1.7089999914169312 C5.923999786376953,7.704999923706055 6.070000171661377,11.027999877929688 6.070000171661377,11.027999877929688"></path></g><g opacity="1" transform="matrix(1,0,0,1,11.092000007629395,114.60099792480469)"><path stroke-linecap="round" stroke-linejoin="round" fill-opacity="0" stroke="rgb(214,120,105)" stroke-opacity="0.49" stroke-width="10.691" d=" M5.747000217437744,-14.32800006866455 C5.747000217437744,-14.32800006866455 -0.4740000069141388,-3.5329999923706055 -2.7100000381469727,1.9609999656677246 C-4.946000099182129,7.455999851226807 -5.747000217437744,14.32800006866455 -5.747000217437744,14.32800006866455"></path></g><g opacity="1" transform="matrix(1,0,0,1,47.926998138427734,56.24700164794922)"><path stroke-linecap="round" stroke-linejoin="round" fill-opacity="0" stroke="rgb(226,131,109)" stroke-opacity="0.72" stroke-width="7.876" d=" M-16.756000518798828,10.029999732971191 C-16.756000518798828,10.029999732971191 -12.902000427246094,-2.506999969482422 -2.8919999599456787,-6.26800012588501 C7.117000102996826,-10.029999732971191 16.756000518798828,-7.567999839782715 16.756000518798828,-7.567999839782715"></path></g><g opacity="1" transform="matrix(1,0,0,1,57.48400115966797,82.12899780273438)"><path fill="rgb(255,195,161)" fill-opacity="1" d=" M-27.04599952697754,9.718999862670898 C-24.599000930786133,17.191999435424805 -14.121999740600586,28.847999572753906 5.610000133514404,25.29599952697754 C25.343000411987305,21.743000030517578 32.012001037597656,4.863999843597412 25.375999450683594,-8.461999893188477 C20.461999893188477,-18.32900047302246 7.9019999504089355,-28.847999572753906 -11.571000099182129,-21.437999725341797 C-26.266000747680664,-15.847000122070312 -32.012001037597656,-5.449999809265137 -27.04599952697754,9.718999862670898z"></path><path stroke-linecap="round" stroke-linejoin="round" fill-opacity="0" stroke="rgb(173,92,37)" stroke-opacity="1" stroke-width="9.114" d=" M-27.04599952697754,9.718999862670898 C-24.599000930786133,17.191999435424805 -14.121999740600586,28.847999572753906 5.610000133514404,25.29599952697754 C25.343000411987305,21.743000030517578 32.012001037597656,4.863999843597412 25.375999450683594,-8.461999893188477 C20.461999893188477,-18.32900047302246 7.9019999504089355,-28.847999572753906 -11.571000099182129,-21.437999725341797 C-26.266000747680664,-15.847000122070312 -32.012001037597656,-5.449999809265137 -27.04599952697754,9.718999862670898z"></path></g><g opacity="1" transform="matrix(1,0,0,1,62.30099868774414,81.31700134277344)"><path fill="rgb(255,248,246)" fill-opacity="1" d=" M-18.90999984741211,-12.822999954223633 C-18.90999984741211,-12.822999954223633 -0.8629999756813049,-15.869000434875488 5.392000198364258,-7.019000053405762 C11.647000312805176,1.8300000429153442 12.114999771118164,6.223999977111816 11.956999778747559,10.404999732971191 C11.79800033569336,14.585000038146973 9.706000328063965,17.81399917602539 9.706000328063965,17.81399917602539 C9.706000328063965,17.81399917602539 18.90999984741211,13.345999717712402 15.387999534606934,-0.39899998903274536 C12.640999794006348,-11.119000434875488 4.9070000648498535,-16.60300064086914 -2.865000009536743,-17.20800018310547 C-10.63599967956543,-17.81399917602539 -18.90999984741211,-12.822999954223633 -18.90999984741211,-12.822999954223633z"></path></g></g></g><g style="display: block;" transform="matrix(0.9443597793579102,0,0,0.9440616965293884,104.13532257080078,85.66691589355469)" opacity="1"><g opacity="1" transform="matrix(0.9989570379257202,0.0456593856215477,-0.0456593856215477,0.9989570379257202,58.16899871826172,68.50499725341797)"><path fill="rgb(91,58,31)" fill-opacity="1" d=" M-20.41200065612793,29.232999801635742 C-20.41200065612793,29.232999801635742 -21.30500030517578,3.578000068664551 -6.541999816894531,-5.453000068664551 C8.220999717712402,-14.484000205993652 18.648000717163086,-18.97100067138672 25.31800079345703,-20.687999725341797 C31.861000061035156,-22.37299919128418 31.388999938964844,-24.599000930786133 26.44300079345703,-28.871999740600586 C21.496000289916992,-33.14500045776367 16.96500015258789,-38.16699981689453 2.0739998817443848,-32.422000885009766 C-12.817000389099121,-26.67799949645996 -22.52899932861328,-13.383000373840332 -24.756999969482422,-4.968999862670898 C-26.983999252319336,3.446000099182129 -28.50200080871582,14.878999710083008 -29.347999572753906,21.680999755859375 C-30.19300079345703,28.482999801635742 -31.860000610351562,34.92599868774414 -26.9060001373291,36.547000885009766 C-21.95199966430664,38.167999267578125 -20.41200065612793,29.232999801635742 -20.41200065612793,29.232999801635742z"></path><path stroke-linecap="butt" stroke-linejoin="miter" fill-opacity="0" stroke-miterlimit="10" stroke="rgb(68,42,30)" stroke-opacity="1" stroke-width="7.764" d=" M-20.41200065612793,29.232999801635742 C-20.41200065612793,29.232999801635742 -21.30500030517578,3.578000068664551 -6.541999816894531,-5.453000068664551 C8.220999717712402,-14.484000205993652 18.648000717163086,-18.97100067138672 25.31800079345703,-20.687999725341797 C31.861000061035156,-22.37299919128418 31.388999938964844,-24.599000930786133 26.44300079345703,-28.871999740600586 C21.496000289916992,-33.14500045776367 16.96500015258789,-38.16699981689453 2.0739998817443848,-32.422000885009766 C-12.817000389099121,-26.67799949645996 -22.52899932861328,-13.383000373840332 -24.756999969482422,-4.968999862670898 C-26.983999252319336,3.446000099182129 -28.50200080871582,14.878999710083008 -29.347999572753906,21.680999755859375 C-30.19300079345703,28.482999801635742 -31.860000610351562,34.92599868774414 -26.9060001373291,36.547000885009766 C-21.95199966430664,38.167999267578125 -20.41200065612793,29.232999801635742 -20.41200065612793,29.232999801635742z"></path></g><g opacity="1" transform="matrix(1,0,0,1,142.01100158691406,32.60900115966797)"><path fill="rgb(91,58,31)" fill-opacity="1" d=" M-43.27799987792969,-1.2719999551773071 C-43.27799987792969,-1.2719999551773071 -36.22100067138672,14.88599967956543 -24.117000579833984,12.92300033569336 C-12.013999938964844,10.960000038146973 -13.03499984741211,0.9010000228881836 1.0180000066757202,-2.5859999656677246 C15.071999549865723,-6.072000026702881 19.4060001373291,-6.2729997634887695 28.292999267578125,-6.864999771118164 C36.314998626708984,-7.400000095367432 44.97200012207031,-4.335999965667725 41.12799835205078,-6.328999996185303 C37.284000396728516,-8.321999549865723 23.479999542236328,-14.88700008392334 11.71399974822998,-14.35200023651123 C0.03700000047683716,-13.821000099182129 -7.455999851226807,-12.505999565124512 -13.420999526977539,-8.468999862670898 C-19.38599967956543,-4.433000087738037 -27.760000228881836,-0.5929999947547913 -31.604000091552734,-2.5859999656677246 C-35.448001861572266,-4.578000068664551 -40.84199905395508,-8.484000205993652 -42.90700149536133,-7.495999813079834 C-44.97200012207031,-6.506999969482422 -43.27799987792969,-1.2719999551773071 -43.27799987792969,-1.2719999551773071z"></path><path stroke-linecap="butt" stroke-linejoin="miter" fill-opacity="0" stroke-miterlimit="10" stroke="rgb(68,42,30)" stroke-opacity="1" stroke-width="7.089" d=" M-43.27799987792969,-1.2719999551773071 C-43.27799987792969,-1.2719999551773071 -36.22100067138672,14.88599967956543 -24.117000579833984,12.92300033569336 C-12.013999938964844,10.960000038146973 -13.03499984741211,0.9010000228881836 1.0180000066757202,-2.5859999656677246 C15.071999549865723,-6.072000026702881 19.4060001373291,-6.2729997634887695 28.292999267578125,-6.864999771118164 C36.314998626708984,-7.400000095367432 44.97200012207031,-4.335999965667725 41.12799835205078,-6.328999996185303 C37.284000396728516,-8.321999549865723 23.479999542236328,-14.88700008392334 11.71399974822998,-14.35200023651123 C0.03700000047683716,-13.821000099182129 -7.455999851226807,-12.505999565124512 -13.420999526977539,-8.468999862670898 C-19.38599967956543,-4.433000087738037 -27.760000228881836,-0.5929999947547913 -31.604000091552734,-2.5859999656677246 C-35.448001861572266,-4.578000068664551 -40.84199905395508,-8.484000205993652 -42.90700149536133,-7.495999813079834 C-44.97200012207031,-6.506999969482422 -43.27799987792969,-1.2719999551773071 -43.27799987792969,-1.2719999551773071z"></path></g></g><g style="display: block;" transform="matrix(0.9449395537376404,0,0,0.9446413516998291,137.83383178710938,187.60678100585938)" opacity="1"><g opacity="1" transform="matrix(1,0,0,1,204.76300048828125,174.1199951171875)"><path fill="url(#__lottie_element_8)" fill-opacity="1" d=" M70.76799774169922,-125.23799896240234 C84.85800170898438,-101.22100067138672 93.88200378417969,-120.52200317382812 118.4280014038086,-91.875 C155.78599548339844,-48.2760009765625 169.79299926757812,28.003000259399414 162.20399475097656,39.16299819946289 C145.20899963378906,64.15599822998047 91.94999694824219,98.76899719238281 16.750999450683594,115.18499755859375 C-29.297000885009766,125.23799896240234 -92.18699645996094,124.94999694824219 -134.1739959716797,119.9520034790039 C-159.0260009765625,116.99299621582031 -169.79400634765625,98.20800018310547 -169.79400634765625,98.20800018310547 C-169.79400634765625,98.20800018310547 -120.71299743652344,-9.866000175476074 -62.683998107910156,-52.95199966430664 C-4.65500020980835,-96.03900146484375 55.67499923706055,-114.91100311279297 55.67499923706055,-114.91100311279297 C55.67499923706055,-114.91100311279297 70.76799774169922,-125.23799896240234 70.76799774169922,-125.23799896240234z"></path></g><g opacity="1" transform="matrix(1,0,0,1,335.7200012207031,147.6490020751953)"><path fill="rgb(87,201,247)" fill-opacity="1" d=" M-41.14500045776367,-69.4260025024414 C-41.14500045776367,-69.4260025024414 -19.53700065612793,-53.73500061035156 -0.7329999804496765,-9.03499984741211 C16.667999267578125,32.327999114990234 20.429000854492188,76.14900207519531 20.429000854492188,76.14900207519531 C20.429000854492188,76.14900207519531 32.42300033569336,68.15499877929688 32.42300033569336,68.15499877929688 C32.42300033569336,68.15499877929688 35.14400100708008,41.547000885009766 22.884000778198242,0.6809999942779541 C10.625,-40.183998107910156 -27.243000030517578,-73.1500015258789 -27.243000030517578,-73.1500015258789 C-27.243000030517578,-73.1500015258789 -41.14500045776367,-69.4260025024414 -41.14500045776367,-69.4260025024414z"></path></g><g opacity="1" transform="matrix(1,0,0,1,204.1020050048828,159.7779998779297)"><path stroke-linecap="round" stroke-linejoin="round" fill-opacity="0" stroke="rgb(33,116,191)" stroke-opacity="1" stroke-width="11.316" d=" M-169.1320037841797,112.55000305175781 C-169.1320037841797,112.55000305175781 -120.99400329589844,-0.5419999957084656 -61.20100021362305,-43.694000244140625 C-1.409000039100647,-86.84600067138672 64.06700134277344,-111.15299987792969 64.06700134277344,-111.15299987792969 C64.06700134277344,-111.15299987792969 77.80000305175781,-116.55000305175781 77.80000305175781,-116.55000305175781 C92.27999877929688,-92.5479965209961 100.08000183105469,-103.86399841308594 121.75499725341797,-74.04399871826172 C162.5749969482422,-17.88599967956543 166.58999633789062,36.027000427246094 167.66400146484375,51.38399887084961"></path></g><g opacity="1" transform="matrix(1,0,0,1,180.6490020751953,173.46299743652344)"><path fill="rgb(23,106,204)" fill-opacity="1" d=" M-100,120.60900115966797 C-100,120.60900115966797 -34.15399932861328,2.750999927520752 -2.8239998817443848,-26.08099937438965 C33.715999603271484,-59.70899963378906 72.81700134277344,-79.52999877929688 85.87799835205078,-85.12799835205078 C96.9990005493164,-89.89399719238281 128.06700134277344,-99.16100311279297 128.06700134277344,-99.16100311279297 C128.06700134277344,-99.16100311279297 100.44100189208984,-120.60900115966797 100.44100189208984,-120.60900115966797 C100.44100189208984,-120.60900115966797 -13.944999694824219,-67.38700103759766 -36.981998443603516,-48.323001861572266 C-60.018001556396484,-29.257999420166016 -128.06700134277344,116.37200164794922 -128.06700134277344,116.37200164794922 C-128.06700134277344,116.37200164794922 -100,120.60900115966797 -100,120.60900115966797z"></path></g><g opacity="1" transform="matrix(1,0,0,1,175.92100524902344,160.22000122070312)"><path fill="rgb(242,249,252)" fill-opacity="1" d=" M-143.6199951171875,122.12200164794922 C-146.08799743652344,120.33599853515625 -146.9429931640625,117.1259994506836 -145.78799438476562,114.3550033569336 C-137.2259979248047,93.8030014038086 -91.37000274658203,-8.324000358581543 -3.453000068664551,-66.24500274658203 C94.63300323486328,-130.86399841308594 137.43499755859375,-131.24200439453125 142.18899536132812,-124.32599639892578 C146.94400024414062,-117.41100311279297 144.6719970703125,-104.01300048828125 142.5050048828125,-101.80500030517578 C140.33700561523438,-99.5979995727539 71.21900177001953,-81.18299865722656 15.647000312805176,-42.95800018310547 C-39.92599868774414,-4.732999801635742 -75.66100311279297,68.5979995727539 -88.55799865722656,92.73799896240234 C-97.61699676513672,109.69599914550781 -105.58699798583984,131.2429962158203 -110.05999755859375,130.63099670410156 C-117.19999694824219,129.6529998779297 -141.0240020751953,124.0009994506836 -143.6199951171875,122.12200164794922z"></path><path stroke-linecap="butt" stroke-linejoin="miter" fill-opacity="0" stroke-miterlimit="10" stroke="rgb(73,146,178)" stroke-opacity="1" stroke-width="11.591" d=" M-143.6199951171875,122.12200164794922 C-146.08799743652344,120.33599853515625 -146.9429931640625,117.1259994506836 -145.78799438476562,114.3550033569336 C-137.2259979248047,93.8030014038086 -91.37000274658203,-8.324000358581543 -3.453000068664551,-66.24500274658203 C94.63300323486328,-130.86399841308594 137.43499755859375,-131.24200439453125 142.18899536132812,-124.32599639892578 C146.94400024414062,-117.41100311279297 144.6719970703125,-104.01300048828125 142.5050048828125,-101.80500030517578 C140.33700561523438,-99.5979995727539 71.21900177001953,-81.18299865722656 15.647000312805176,-42.95800018310547 C-39.92599868774414,-4.732999801635742 -75.66100311279297,68.5979995727539 -88.55799865722656,92.73799896240234 C-97.61699676513672,109.69599914550781 -105.58699798583984,131.2429962158203 -110.05999755859375,130.63099670410156 C-117.19999694824219,129.6529998779297 -141.0240020751953,124.0009994506836 -143.6199951171875,122.12200164794922z"></path></g><g opacity="1" transform="matrix(1,0,0,1,47.19499969482422,283.78900146484375)"><path fill="rgb(242,249,252)" fill-opacity="1" d=" M20.08300018310547,-5.4730000495910645 C20.08300018310547,-5.4730000495910645 15.361000061035156,2.25 13.861000061035156,7.104000091552734 C12.505000114440918,11.48900032043457 17.214000701904297,12.664999961853027 17.214000701904297,12.664999961853027 C17.214000701904297,12.664999961853027 7.857999801635742,12.401000022888184 -4.499000072479248,8.869999885559082 C-9.72700023651123,7.376999855041504 -15.619999885559082,5.340000152587891 -19.32699966430664,2.5160000324249268 C-20.08300018310547,1.940000057220459 -15.619999885559082,3.5739998817443848 -14.031000137329102,-1.0160000324249268 C-13.333000183105469,-3.0309998989105225 -11.736000061035156,-6.664000034332275 -11.736000061035156,-6.664000034332275 C-11.736000061035156,-6.664000034332275 2.562000036239624,-12.664999961853027 2.562000036239624,-12.664999961853027 C2.562000036239624,-12.664999961853027 20.08300018310547,-5.4730000495910645 20.08300018310547,-5.4730000495910645z"></path></g></g><g style="display: block;" transform="matrix(1,0,0,1,323.9670104980469,-26.01300048828125)" opacity="1"><g opacity="1" transform="matrix(0.9671295881271362,0.09637893736362457,-0.09637893736362457,0.9671295881271362,118.86100006103516,100.8949966430664)"><path stroke-linecap="round" stroke-linejoin="round" fill-opacity="0" stroke="rgb(106,45,186)" stroke-opacity="1" stroke-width="14.944" d=" M-30.049999237060547,-18.83799934387207 C-30.049999237060547,-18.83799934387207 -10.241999626159668,-28.489999771118164 -0.1940000057220459,-28.913000106811523 C9.854999542236328,-29.336000442504883 9.791999816894531,-27.187000274658203 3.7890000343322754,-18.04400062561035 C-2.2130000591278076,-8.899999618530273 -18.386999130249023,29.336000442504883 -10.465999603271484,28.134000778198242 C-2.5450000762939453,26.933000564575195 2.9800000190734863,23.267000198364258 10.73900032043457,21.430999755859375 C19.475000381469727,19.36400032043457 23.53700065612793,18.395000457763672 23.53700065612793,18.395000457763672"></path></g></g><g style="display: none;"><g><path stroke-linecap="round" stroke-linejoin="round" fill-opacity="0"></path></g></g><g style="display: block;" transform="matrix(1,0,0,1,314.9670104980469,-29.013004302978516)" opacity="1"><g opacity="1" transform="matrix(1.2363572120666504,-0.27007603645324707,0.27007603645324707,1.2363572120666504,70.48271179199219,126.2347183227539)"><path stroke-linecap="round" stroke-linejoin="round" fill-opacity="0" stroke="rgb(106,45,186)" stroke-opacity="1" stroke-width="14.944" d=" M-30.049999237060547,-18.83799934387207 C-30.049999237060547,-18.83799934387207 -10.241999626159668,-28.489999771118164 -0.1940000057220459,-28.913000106811523 C9.854999542236328,-29.336000442504883 9.791999816894531,-27.187000274658203 3.7890000343322754,-18.04400062561035 C-2.2130000591278076,-8.899999618530273 -18.386999130249023,29.336000442504883 -10.465999603271484,28.134000778198242 C-2.5450000762939453,26.933000564575195 2.9800000190734863,23.267000198364258 10.73900032043457,21.430999755859375 C19.475000381469727,19.36400032043457 23.53700065612793,18.395000457763672 23.53700065612793,18.395000457763672"></path></g></g><g style="display: block;" transform="matrix(1,0,0,1,323.9670104980469,-26.01300048828125)" opacity="1"><g opacity="0.7428571428571429" transform="matrix(0.5258110761642456,0.14306749403476715,-0.14306749403476715,0.5258110761642456,153.30575561523438,70.30227661132812)"><path stroke-linecap="round" stroke-linejoin="round" fill-opacity="0" stroke="rgb(106,45,186)" stroke-opacity="1" stroke-width="14.944" d=" M-32.233001708984375,-18.023000717163086 C-32.233001708984375,-18.023000717163086 -10.241999626159668,-28.489999771118164 -0.1940000057220459,-28.913000106811523 C9.854999542236328,-29.336000442504883 9.791999816894531,-27.187000274658203 3.7890000343322754,-18.04400062561035 C-2.2130000591278076,-8.899999618530273 -18.386999130249023,29.336000442504883 -10.465999603271484,28.134000778198242 C-2.5450000762939453,26.933000564575195 4.60099983215332,22.13800048828125 15.420000076293945,20.3799991607666 C32.233001708984375,17.64699935913086 29.874000549316406,18.316999435424805 29.874000549316406,18.316999435424805"></path></g></g><g style="display: none;"><g><path stroke-linecap="round" stroke-linejoin="round" fill-opacity="0"></path></g></g><g style="display: block;" transform="matrix(1.0948817729949951,-0.03525770083069801,0.03572031110525131,1.1085474491119385,306.0735168457031,173.79678344726562)" opacity="1"><g opacity="1" transform="matrix(1,0,0,1,91.08599853515625,44.948001861572266)"><path fill="rgb(255,195,161)" fill-opacity="1" d=" M-10.189000129699707,-19.67799949645996 C-10.189000129699707,-19.67799949645996 3.3919999599456787,-19.902000427246094 5.901000022888184,-15.557000160217285 C8.41100025177002,-11.211999893188477 14.98900032043457,13.746999740600586 -2.872999906539917,18.429000854492188 C-8.493000030517578,19.902000427246094 -8.022000312805176,10.725000381469727 -8.779000282287598,7.111999988555908 C-9.536999702453613,3.499000072479248 -14.98900032043457,-11.27299976348877 -14.98900032043457,-11.27299976348877 C-14.98900032043457,-11.27299976348877 -10.189000129699707,-19.67799949645996 -10.189000129699707,-19.67799949645996z"></path></g><g opacity="1" transform="matrix(1,0,0,1,91.08599853515625,44.948001861572266)"><path stroke-linecap="round" stroke-linejoin="round" fill-opacity="0" stroke="rgb(173,92,37)" stroke-opacity="1" stroke-width="8" d=" M-10.189000129699707,-19.67799949645996 C-10.189000129699707,-19.67799949645996 3.3919999599456787,-19.902000427246094 5.901000022888184,-15.557000160217285 C8.41100025177002,-11.211999893188477 14.98900032043457,13.746999740600586 -2.872999906539917,18.429000854492188 C-8.493000030517578,19.902000427246094 -8.022000312805176,10.725000381469727 -8.779000282287598,7.111999988555908 C-9.536999702453613,3.499000072479248 -14.98900032043457,-11.27299976348877 -14.98900032043457,-11.27299976348877 C-14.98900032043457,-11.27299976348877 -10.189000129699707,-19.67799949645996 -10.189000129699707,-19.67799949645996z"></path></g><g opacity="1" transform="matrix(1,0,0,1,87.46099853515625,43.90399932861328)"><path fill="rgb(255,195,161)" fill-opacity="1" d=" M-11.121000289916992,-19.701000213623047 C-11.121000289916992,-19.701000213623047 0.5289999842643738,-21.819000244140625 3.177000045776367,-17.58300018310547 C5.824999809265137,-13.345999717712402 14.29800033569336,12.072999954223633 -0.5299999713897705,19.48699951171875 C-5.195000171661377,21.819000244140625 -5.824999809265137,12.072999954223633 -6.883999824523926,8.366000175476074 C-7.943999767303467,4.658999919891357 -14.29800033569336,-10.168999671936035 -14.29800033569336,-10.168999671936035 C-14.29800033569336,-10.168999671936035 -11.121000289916992,-19.701000213623047 -11.121000289916992,-19.701000213623047z"></path></g><g opacity="1" transform="matrix(1,0,0,1,87.46099853515625,43.90399932861328)"><path stroke-linecap="round" stroke-linejoin="round" fill-opacity="0" stroke="rgb(173,92,37)" stroke-opacity="1" stroke-width="8" d=" M-11.121000289916992,-19.701000213623047 C-11.121000289916992,-19.701000213623047 0.5289999842643738,-21.819000244140625 3.177000045776367,-17.58300018310547 C5.824999809265137,-13.345999717712402 14.29800033569336,12.072999954223633 -0.5299999713897705,19.48699951171875 C-5.195000171661377,21.819000244140625 -5.824999809265137,12.072999954223633 -6.883999824523926,8.366000175476074 C-7.943999767303467,4.658999919891357 -14.29800033569336,-10.168999671936035 -14.29800033569336,-10.168999671936035 C-14.29800033569336,-10.168999671936035 -11.121000289916992,-19.701000213623047 -11.121000289916992,-19.701000213623047z"></path></g><g opacity="1" transform="matrix(1,0,0,1,73.45899963378906,50.68600082397461)"><path fill="rgb(255,195,161)" fill-opacity="1" d=" M-14.032999992370605,-20.652999877929688 C-14.032999992370605,-20.652999877929688 1.3240000009536743,-26.47800064086914 6.619999885559082,-18.53499984741211 C11.916000366210938,-10.590999603271484 14.564000129699707,13.769000053405762 12.975000381469727,20.124000549316406 C11.38599967956543,26.47800064086914 1.3240000009536743,20.652999877929688 -0.7940000295639038,19.5939998626709 C-2.9119999408721924,18.53499984741211 -1.8539999723434448,-1.5889999866485596 -3.443000078201294,-3.7070000171661377 C-5.031000137329102,-5.824999809265137 -14.564000129699707,-14.82800006866455 -14.564000129699707,-14.82800006866455 C-14.564000129699707,-14.82800006866455 -14.032999992370605,-20.652999877929688 -14.032999992370605,-20.652999877929688z"></path></g><g opacity="1" transform="matrix(1,0,0,1,73.45899963378906,50.68600082397461)"><path stroke-linecap="round" stroke-linejoin="round" fill-opacity="0" stroke="rgb(173,92,37)" stroke-opacity="1" stroke-width="8" d=" M-14.032999992370605,-20.652999877929688 C-14.032999992370605,-20.652999877929688 1.3240000009536743,-26.47800064086914 6.619999885559082,-18.53499984741211 C11.916000366210938,-10.590999603271484 14.564000129699707,13.769000053405762 12.975000381469727,20.124000549316406 C11.38599967956543,26.47800064086914 1.3240000009536743,20.652999877929688 -0.7940000295639038,19.5939998626709 C-2.9119999408721924,18.53499984741211 -1.8539999723434448,-1.5889999866485596 -3.443000078201294,-3.7070000171661377 C-5.031000137329102,-5.824999809265137 -14.564000129699707,-14.82800006866455 -14.564000129699707,-14.82800006866455 C-14.564000129699707,-14.82800006866455 -14.032999992370605,-20.652999877929688 -14.032999992370605,-20.652999877929688z"></path></g><g opacity="1" transform="matrix(1,0,0,1,58.76300048828125,58.3650016784668)"><path fill="rgb(255,195,161)" fill-opacity="1" d=" M-18.66699981689453,-12.180000305175781 C-18.66699981689453,-12.180000305175781 -14.166999816894531,-24.094999313354492 -4.105000019073486,-23.035999298095703 C5.956999778747559,-21.976999282836914 13.371000289916992,-12.444999694824219 16.018999099731445,-3.9719998836517334 C18.66699981689453,4.500999927520752 16.773000717163086,19.430999755859375 10.722999572753906,21.447999954223633 C2.7790000438690186,24.094999313354492 0.6610000133514404,13.503999710083008 1.190999984741211,7.14900016784668 C1.8020000457763672,-0.18199999630451202 -8.869999885559082,-10.855999946594238 -8.869999885559082,-10.855999946594238 C-8.869999885559082,-10.855999946594238 -18.66699981689453,-12.180000305175781 -18.66699981689453,-12.180000305175781z"></path></g><g opacity="1" transform="matrix(1,0,0,1,58.76300048828125,58.3650016784668)"><path stroke-linecap="round" stroke-linejoin="round" fill-opacity="0" stroke="rgb(173,92,37)" stroke-opacity="1" stroke-width="8" d=" M-18.66699981689453,-12.180000305175781 C-18.66699981689453,-12.180000305175781 -14.166999816894531,-24.094999313354492 -4.105000019073486,-23.035999298095703 C5.956999778747559,-21.976999282836914 13.371000289916992,-12.444999694824219 16.018999099731445,-3.9719998836517334 C18.66699981689453,4.500999927520752 16.773000717163086,19.430999755859375 10.722999572753906,21.447999954223633 C2.7790000438690186,24.094999313354492 0.6610000133514404,13.503999710083008 1.190999984741211,7.14900016784668 C1.8020000457763672,-0.18199999630451202 -8.869999885559082,-10.855999946594238 -8.869999885559082,-10.855999946594238 C-8.869999885559082,-10.855999946594238 -18.66699981689453,-12.180000305175781 -18.66699981689453,-12.180000305175781z"></path></g><g opacity="1" transform="matrix(1,0,0,1,44.24399948120117,56.36600112915039)"><path fill="rgb(255,195,161)" fill-opacity="1" d=" M-17.12299919128418,-4.9730000495910645 C-14.21500015258789,-8.826000213623047 -11.996999740600586,-9.307000160217285 -7.23799991607666,-8.503000259399414 C-2.1440000534057617,-7.64300012588501 4.828999996185303,-8.227999687194824 8.64900016784668,-6.914999961853027 C19.94700050354004,-3.0309998989105225 14.121000289916992,6.677000045776367 9.178999900817871,8.442999839782715 C6.757999897003174,9.307000160217285 -10.767999649047852,9.14900016784668 -13.946000099182129,8.442999839782715 C-17.12299919128418,7.736999988555908 -19.94700050354004,4.559000015258789 -19.240999221801758,1.3819999694824219 C-18.920000076293945,-0.06499999761581421 -19.131999969482422,-2.312000036239624 -17.12299919128418,-4.9730000495910645z"></path></g><g opacity="1" transform="matrix(1,0,0,1,44.24399948120117,56.36600112915039)"><path stroke-linecap="round" stroke-linejoin="round" fill-opacity="0" stroke="rgb(173,92,37)" stroke-opacity="1" stroke-width="8" d=" M-17.12299919128418,-4.9730000495910645 C-14.21500015258789,-8.826000213623047 -11.996999740600586,-9.307000160217285 -7.23799991607666,-8.503000259399414 C-2.1440000534057617,-7.64300012588501 4.828999996185303,-8.227999687194824 8.64900016784668,-6.914999961853027 C19.94700050354004,-3.0309998989105225 14.121000289916992,6.677000045776367 9.178999900817871,8.442999839782715 C6.757999897003174,9.307000160217285 -10.767999649047852,9.14900016784668 -13.946000099182129,8.442999839782715 C-17.12299919128418,7.736999988555908 -19.94700050354004,4.559000015258789 -19.240999221801758,1.3819999694824219 C-18.920000076293945,-0.06499999761581421 -19.131999969482422,-2.312000036239624 -17.12299919128418,-4.9730000495910645z"></path></g></g><g style="display: block;" transform="matrix(0.9449395537376404,0,0,0.9446413516998291,164.887451171875,273.310302734375)" opacity="1"><g opacity="1" transform="matrix(1,0,0,1,95.01399993896484,54.67300033569336)"><path fill="rgb(255,195,161)" fill-opacity="1" d=" M-30.8799991607666,-11.659000396728516 C-30.8799991607666,-11.659000396728516 -15.114999771118164,-26.375999450683594 -3.4779999256134033,-24.165000915527344 C8.159000396728516,-21.952999114990234 18.180999755859375,-6.480999946594238 23.898000717163086,3.931999921798706 C30.8799991607666,16.648000717163086 22.69499969482422,26.375 16.29400062561035,24.715999603271484 C11.52299976348877,23.479999542236328 3.1570000648498535,12.668000221252441 -2.9519999027252197,8.520999908447266 C-9.062000274658203,4.375 -21.570999145507812,-2.259000062942505 -25.062000274658203,-3.365000009536743 C-28.554000854492188,-4.4710001945495605 -30.8799991607666,-11.659000396728516 -30.8799991607666,-11.659000396728516z"></path></g><g opacity="1" transform="matrix(1,0,0,1,95.01399993896484,54.67300033569336)"><path stroke-linecap="round" stroke-linejoin="round" fill-opacity="0" stroke="rgb(173,92,37)" stroke-opacity="1" stroke-width="11.319" d=" M-30.8799991607666,-11.659000396728516 C-30.8799991607666,-11.659000396728516 -15.114999771118164,-26.375999450683594 -3.4779999256134033,-24.165000915527344 C8.159000396728516,-21.952999114990234 18.180999755859375,-6.480999946594238 23.898000717163086,3.931999921798706 C30.8799991607666,16.648000717163086 22.69499969482422,26.375 16.29400062561035,24.715999603271484 C11.52299976348877,23.479999542236328 3.1570000648498535,12.668000221252441 -2.9519999027252197,8.520999908447266 C-9.062000274658203,4.375 -21.570999145507812,-2.259000062942505 -25.062000274658203,-3.365000009536743 C-28.554000854492188,-4.4710001945495605 -30.8799991607666,-11.659000396728516 -30.8799991607666,-11.659000396728516z"></path></g><g opacity="1" transform="matrix(1,0,0,1,88.10900115966797,61.209999084472656)"><path fill="rgb(255,195,161)" fill-opacity="1" d=" M-32.702999114990234,-11.168000221252441 C-32.702999114990234,-11.168000221252441 -23.697999954223633,-26.788999557495117 -12.060999870300293,-24.57699966430664 C-0.42399999499320984,-22.365999221801758 22.518999099731445,-5.125999927520752 28.281999588012695,12.883999824523926 C32.702999114990234,26.701000213623047 21.71500015258789,26.790000915527344 15.314000129699707,25.131000518798828 C10.543000221252441,23.895000457763672 1.3350000381469727,13.15999984741211 -4.77400016784668,9.012999534606934 C-10.883999824523926,4.867000102996826 -23.39299964904785,-1.7680000066757202 -26.884000778198242,-2.874000072479248 C-30.375999450683594,-3.9800000190734863 -32.702999114990234,-11.168000221252441 -32.702999114990234,-11.168000221252441z"></path></g><g opacity="1" transform="matrix(1,0,0,1,88.10900115966797,61.209999084472656)"><path stroke-linecap="round" stroke-linejoin="round" fill-opacity="0" stroke="rgb(173,92,37)" stroke-opacity="1" stroke-width="9.815" d=" M-32.702999114990234,-11.168000221252441 C-32.702999114990234,-11.168000221252441 -23.697999954223633,-26.788999557495117 -12.060999870300293,-24.57699966430664 C-0.42399999499320984,-22.365999221801758 22.518999099731445,-5.125999927520752 28.281999588012695,12.883999824523926 C32.702999114990234,26.701000213623047 21.71500015258789,26.790000915527344 15.314000129699707,25.131000518798828 C10.543000221252441,23.895000457763672 1.3350000381469727,13.15999984741211 -4.77400016784668,9.012999534606934 C-10.883999824523926,4.867000102996826 -23.39299964904785,-1.7680000066757202 -26.884000778198242,-2.874000072479248 C-30.375999450683594,-3.9800000190734863 -32.702999114990234,-11.168000221252441 -32.702999114990234,-11.168000221252441z"></path></g><g opacity="1" transform="matrix(1,0,0,1,75.51100158691406,74.60700225830078)"><path fill="rgb(255,195,161)" fill-opacity="1" d=" M-32.96200180053711,-5.915999889373779 C-32.96200180053711,-5.915999889373779 -32.9630012512207,-27.527999877929688 -13.670999526977539,-22.591999053955078 C-2.4830000400543213,-19.729999542236328 19.19099998474121,-1.215999960899353 25.391000747680664,8.493000030517578 C32.96200180053711,20.35099983215332 24.33300018310547,27.52899932861328 18.006999969482422,26.288999557495117 C13.291000366210938,25.364999771118164 -2.993000030517578,10.704999923706055 -9.189000129699707,7.052999973297119 C-15.38599967956543,3.4010000228881836 -25.898000717163086,1.437999963760376 -29.361000061035156,0.5690000057220459 C-32.82400131225586,-0.3009999990463257 -32.96200180053711,-5.915999889373779 -32.96200180053711,-5.915999889373779z"></path></g><g opacity="1" transform="matrix(1,0,0,1,75.51100158691406,74.60700225830078)"><path stroke-linecap="round" stroke-linejoin="round" fill-opacity="0" stroke="rgb(173,92,37)" stroke-opacity="1" stroke-width="9.815" d=" M-32.96200180053711,-5.915999889373779 C-32.96200180053711,-5.915999889373779 -32.9630012512207,-27.527999877929688 -13.670999526977539,-22.591999053955078 C-2.4830000400543213,-19.729999542236328 19.19099998474121,-1.215999960899353 25.391000747680664,8.493000030517578 C32.96200180053711,20.35099983215332 24.33300018310547,27.52899932861328 18.006999969482422,26.288999557495117 C13.291000366210938,25.364999771118164 -2.993000030517578,10.704999923706055 -9.189000129699707,7.052999973297119 C-15.38599967956543,3.4010000228881836 -25.898000717163086,1.437999963760376 -29.361000061035156,0.5690000057220459 C-32.82400131225586,-0.3009999990463257 -32.96200180053711,-5.915999889373779 -32.96200180053711,-5.915999889373779z"></path></g><g opacity="1" transform="matrix(1,0,0,1,57.88399887084961,90.88999938964844)"><path fill="rgb(255,195,161)" fill-opacity="1" d=" M-24.701000213623047,15.26200008392334 C-33.34600067138672,-9.95300006866455 -18.395000457763672,-16.878000259399414 -10.178999900817871,-18.45599937438965 C5.557000160217285,-21.47800064086914 23.42099952697754,-2.01200008392334 27.889999389648438,4.455999851226807 C33.34600067138672,12.354000091552734 30.051000595092773,18.86400032043457 17.08300018310547,15.982000350952148 C13.692000389099121,15.229000091552734 -0.041999999433755875,9.036999702453613 -4.5289998054504395,6.618000030517578 C-9.015999794006348,4.198999881744385 -22.56999969482422,21.47800064086914 -24.701000213623047,15.26200008392334z"></path></g><g opacity="1" transform="matrix(1,0,0,1,57.88399887084961,90.88999938964844)"><path stroke-linecap="round" stroke-linejoin="round" fill-opacity="0" stroke="rgb(173,92,37)" stroke-opacity="1" stroke-width="9.815" d=" M-24.701000213623047,15.26200008392334 C-33.34600067138672,-9.95300006866455 -18.395000457763672,-16.878000259399414 -10.178999900817871,-18.45599937438965 C5.557000160217285,-21.47800064086914 23.42099952697754,-2.01200008392334 27.889999389648438,4.455999851226807 C33.34600067138672,12.354000091552734 30.051000595092773,18.86400032043457 17.08300018310547,15.982000350952148 C13.692000389099121,15.229000091552734 -0.041999999433755875,9.036999702453613 -4.5289998054504395,6.618000030517578 C-9.015999794006348,4.198999881744385 -22.56999969482422,21.47800064086914 -24.701000213623047,15.26200008392334z"></path></g></g></g></svg>