<svg xmlns="http://www.w3.org/2000/svg" xmlns:xlink="http://www.w3.org/1999/xlink" viewBox="0 0 512 512" width="512" height="512" style="width: 100%; height: 100%; transform: translate3d(0,0,0); content-visibility: visible;" preserveAspectRatio="xMidYMid meet"><defs><clipPath id="__lottie_element_2"><rect width="512" height="512" x="0" y="0"></rect></clipPath><clipPath id="__lottie_element_4"><path d="M0,0 L512,0 L512,512 L0,512z"></path></clipPath><radialGradient id="__lottie_element_11" spreadMethod="pad" gradientUnits="userSpaceOnUse" cx="27.084999084472656" cy="128.43099975585938" r="101.92343321688851" fx="27.084999084472656" fy="128.43099975585938"><stop offset="0%" stop-color="rgb(250,218,192)"></stop><stop offset="47%" stop-color="rgb(248,206,174)"></stop><stop offset="81%" stop-color="rgb(245,193,156)"></stop></radialGradient><linearGradient id="__lottie_element_20" spreadMethod="pad" gradientUnits="userSpaceOnUse" x1="0" y1="0" x2="30.761999130249023" y2="213.6490020751953"><stop offset="0%" stop-color="rgb(253,234,214)"></stop><stop offset="50%" stop-color="rgb(249,213,185)"></stop><stop offset="100%" stop-color="rgb(245,193,156)"></stop></linearGradient><radialGradient id="__lottie_element_36" spreadMethod="pad" gradientUnits="userSpaceOnUse" cx="78.00800323486328" cy="166.02000427246094" r="426.26510970867645" fx="78.00800323486328" fy="166.02000427246094"><stop offset="0%" stop-color="rgb(229,149,112)"></stop><stop offset="50%" stop-color="rgb(236,171,138)"></stop><stop offset="100%" stop-color="rgb(243,192,164)"></stop></radialGradient><radialGradient id="__lottie_element_37" spreadMethod="pad" gradientUnits="userSpaceOnUse" cx="-70.85199737548828" cy="-208.75" r="402.43673827715946" fx="-70.85199737548828" fy="-208.75"><stop offset="0%" stop-color="rgb(254,240,222)"></stop><stop offset="50%" stop-color="rgb(249,213,185)"></stop><stop offset="100%" stop-color="rgb(244,187,148)"></stop></radialGradient><radialGradient id="__lottie_element_42" spreadMethod="pad" gradientUnits="userSpaceOnUse" cx="-37.145999908447266" cy="-48.279998779296875" r="109.29038445278071" fx="-37.145999908447266" fy="-48.279998779296875"><stop offset="0%" stop-color="rgb(253,235,215)"></stop><stop offset="50%" stop-color="rgb(249,215,188)"></stop><stop offset="100%" stop-color="rgb(246,196,161)"></stop></radialGradient><radialGradient id="__lottie_element_43" spreadMethod="pad" gradientUnits="userSpaceOnUse" cx="-15.262999534606934" cy="-22.427000045776367" r="81.65198827112904" fx="-15.262999534606934" fy="-22.427000045776367"><stop offset="0%" stop-color="rgb(248,230,208)"></stop><stop offset="24%" stop-color="rgb(246,219,190)"></stop><stop offset="48%" stop-color="rgb(244,207,173)"></stop><stop offset="74%" stop-color="rgb(243,203,169)"></stop><stop offset="100%" stop-color="rgb(241,200,165)"></stop></radialGradient><radialGradient id="__lottie_element_50" spreadMethod="pad" gradientUnits="userSpaceOnUse" cx="-19.736000061035156" cy="-26.802000045776367" r="65.96002279107954" fx="-19.736000061035156" fy="-26.802000045776367"><stop offset="0%" stop-color="rgb(253,234,214)"></stop><stop offset="50%" stop-color="rgb(249,213,185)"></stop><stop offset="100%" stop-color="rgb(245,193,156)"></stop></radialGradient><radialGradient id="__lottie_element_51" spreadMethod="pad" gradientUnits="userSpaceOnUse" cx="-24.145000457763672" cy="-47.68299865722656" r="95.56115306600466" fx="-24.145000457763672" fy="-47.68299865722656"><stop offset="0%" stop-color="rgb(253,236,216)"></stop><stop offset="50%" stop-color="rgb(250,222,197)"></stop><stop offset="100%" stop-color="rgb(248,208,178)"></stop></radialGradient></defs><g clip-path="url(#__lottie_element_2)"><g clip-path="url(#__lottie_element_4)" style="display: block;" transform="matrix(0.8867200016975403,0,0,0.8867200016975403,23.999679565429688,27.999679565429688)" opacity="1"><g style="display: block;" transform="matrix(1,0,0,1,16.1820068359375,-0.68499755859375)" opacity="1"><g opacity="1" transform="matrix(1,0,0,1,262,234.01600646972656)"><path fill="url(#__lottie_element_36)" fill-opacity="1" d=" M-207.16900634765625,69.34100341796875 C-203.072998046875,91.7249984741211 -192.31700134277344,125.8010025024414 -163.28900146484375,158.25 C-144.44900512695312,179.31100463867188 -104.16300201416016,205.77200317382812 -60.678001403808594,214.8719940185547 C-2.3489999771118164,227.0780029296875 42.180999755859375,225.89300537109375 81.08799743652344,217.79200744628906 C141.4720001220703,205.2209930419922 171.3459930419922,172.81900024414062 188.42599487304688,148.19000244140625 C216.10299682617188,108.27799987792969 224.78199768066406,46.242000579833984 208.677001953125,-18.270999908447266 C196.52499389648438,-66.94400024414062 181.1999969482422,-96.14399719238281 160.57699584960938,-130.218994140625 C128.1739959716797,-183.75900268554688 86.65599822998047,-227.0780029296875 1.597000002861023,-225.13099670410156 C-83.46299743652344,-223.1840057373047 -170.71499633789062,-157.8000030517578 -198.3939971923828,-77.6520004272461 C-224.78199768066406,-1.2380000352859497 -213.58200073242188,34.29600143432617 -207.16900634765625,69.34100341796875z"></path><path stroke-linecap="butt" stroke-linejoin="miter" fill-opacity="0" stroke-miterlimit="10" stroke="rgb(182,94,49)" stroke-opacity="1" stroke-width="13" d=" M-207.16900634765625,69.34100341796875 C-203.072998046875,91.7249984741211 -192.31700134277344,125.8010025024414 -163.28900146484375,158.25 C-144.44900512695312,179.31100463867188 -104.16300201416016,205.77200317382812 -60.678001403808594,214.8719940185547 C-2.3489999771118164,227.0780029296875 42.180999755859375,225.89300537109375 81.08799743652344,217.79200744628906 C141.4720001220703,205.2209930419922 171.3459930419922,172.81900024414062 188.42599487304688,148.19000244140625 C216.10299682617188,108.27799987792969 224.78199768066406,46.242000579833984 208.677001953125,-18.270999908447266 C196.52499389648438,-66.94400024414062 181.1999969482422,-96.14399719238281 160.57699584960938,-130.218994140625 C128.1739959716797,-183.75900268554688 86.65599822998047,-227.0780029296875 1.597000002861023,-225.13099670410156 C-83.46299743652344,-223.1840057373047 -170.71499633789062,-157.8000030517578 -198.3939971923828,-77.6520004272461 C-224.78199768066406,-1.2380000352859497 -213.58200073242188,34.29600143432617 -207.16900634765625,69.34100341796875z"></path></g><g opacity="1" transform="matrix(1,0,0,1,263.3320007324219,232.06900024414062)"><path fill="url(#__lottie_element_37)" fill-opacity="1" d=" M-187.1490020751953,61.520999908447266 C-183.47000122070312,81.88099670410156 -173.81300354003906,112.87699890136719 -147.7469940185547,142.39199829101562 C-130.82899475097656,161.54800415039062 -94.65399932861328,185.6179962158203 -55.60599899291992,193.89500427246094 C-3.2290000915527344,204.99899291992188 36.755001068115234,203.91900634765625 71.69300079345703,196.552001953125 C125.91400146484375,185.11700439453125 152.74000549316406,155.6439971923828 168.07699584960938,133.2429962158203 C192.92999267578125,96.93900299072266 200.72500610351562,40.51100158691406 186.26199340820312,-18.16900062561035 C175.3509979248047,-62.441001892089844 159.31700134277344,-84.57499694824219 140.7989959716797,-115.56800079345703 C111.7020034790039,-164.26800537109375 76.23899841308594,-204.99899291992188 -0.14100000262260437,-203.22799682617188 C-76.5199966430664,-201.45700073242188 -157.77699279785156,-142.49000549316406 -179.26800537109375,-72.18099975585938 C-200.72500610351562,-1.9889999628067017 -192.9080047607422,29.645000457763672 -187.1490020751953,61.520999908447266z"></path></g></g><g style="display: block;" transform="matrix(1,0,0,1,37.28900146484375,-5.5260009765625)" opacity="1"><g opacity="1" transform="matrix(1,0,0,1,284.6579895019531,304.1940002441406)"><path fill="rgb(217,150,108)" fill-opacity="1" d=" M-30.68899917602539,8.383000373840332 C-33.17499923706055,11.946999549865723 -35.5620002746582,18.52899932861328 -30.047000885009766,19.56999969482422 C-27.542999267578125,20.04199981689453 -16.01300048828125,18.69700050354004 -13.571999549865723,18.288000106811523 C1.9759999513626099,15.684000015258789 4.519999980926514,15.348999977111816 16.322999954223633,12.505000114440918 C21.645999908447266,11.222000122070312 26.604999542236328,10.369999885559082 30.961999893188477,6.642000198364258 C35.31999969482422,2.9130001068115234 35.5620002746582,-3.1470000743865967 34.237998962402344,-10.015999794006348 C33.9010009765625,-11.76200008392334 33.185001373291016,-13.404999732971191 32.21200180053711,-14.79699993133545 C29.69099998474121,-18.402999877929688 25.472000122070312,-20.04199981689453 22.298999786376953,-19.965999603271484 C-1.7109999656677246,-19.38800048828125 -20.308000564575195,-6.5 -30.68899917602539,8.383000373840332z"></path></g><g opacity="1" transform="matrix(1,0,0,1,291.9590148925781,297.7640075683594)"><path fill="rgb(60,33,8)" fill-opacity="1" d=" M-37.060001373291016,13.515000343322754 C-38.50400161743164,15.505999565124512 -43.56700134277344,23.57699966430664 -33.194000244140625,21.395000457763672 C-31.7549991607666,21.091999053955078 -20.54800033569336,18.469999313354492 -19.131999969482422,18.211999893188477 C-10.107999801635742,16.56599998474121 -5.88100004196167,13.847000122070312 0.9700000286102295,12.121000289916992 C4.059999942779541,11.343999862670898 10.689000129699707,7.807000160217285 13.218999862670898,5.699999809265137 C15.75100040435791,3.5920000076293945 14.432999610900879,-10.92300033569336 6.703999996185303,-12.532999992370605 C-6.952000141143799,-15.376999855041504 -31.02899932861328,5.202000141143799 -37.060001373291016,13.515000343322754z"></path></g></g><g style="display: block;" transform="matrix(1.0099999904632568,0,0,1.0099999904632568,33.688995361328125,-3.936004638671875)" opacity="1"><g opacity="1" transform="matrix(1,0,0,1,363.4469909667969,208.91299438476562)"><path stroke-linecap="round" stroke-linejoin="round" fill-opacity="0" stroke="rgb(218,155,119)" stroke-opacity="0.73" stroke-width="13.244" d=" M-44.32899856567383,-25.18400001525879 C-44.32899856567383,-25.18400001525879 -28.864999771118164,5.743000030517578 3.0929999351501465,16.052000045776367 C31.399999618530273,25.18400001525879 44.32899856567383,22.238000869750977 44.32899856567383,22.238000869750977"></path></g><g opacity="1" transform="matrix(1,0,0,1,360.5050048828125,145.73199462890625)"><path fill="rgb(255,255,255)" fill-opacity="1" d=" M-57.79800033569336,-27.110000610351562 C-62.64500045776367,-18.66699981689453 -72.61299896240234,-0.47699999809265137 -54.617000579833984,20.301000595092773 C-35.71699905395508,42.12099838256836 1.5149999856948853,65.0199966430664 37.06399917602539,57.4379997253418 C72.61299896240234,49.85599899291992 61.926998138427734,1.840999960899353 57.23099899291992,-11.944999694824219 C52.5359992980957,-25.731000900268555 33.08599853515625,-59.50600051879883 18.32900047302246,-62.263999938964844 C3.572999954223633,-65.02100372314453 -14.53600025177002,-60.54100036621094 -28.621000289916992,-52.95800018310547 C-45.51100158691406,-43.867000579833984 -53.814998626708984,-34.04899978637695 -57.79800033569336,-27.110000610351562z"></path><path stroke-linecap="butt" stroke-linejoin="miter" fill-opacity="0" stroke-miterlimit="10" stroke="rgb(111,77,111)" stroke-opacity="1" stroke-width="12" d=" M-57.79800033569336,-27.110000610351562 C-62.64500045776367,-18.66699981689453 -72.61299896240234,-0.47699999809265137 -54.617000579833984,20.301000595092773 C-35.71699905395508,42.12099838256836 1.5149999856948853,65.0199966430664 37.06399917602539,57.4379997253418 C72.61299896240234,49.85599899291992 61.926998138427734,1.840999960899353 57.23099899291992,-11.944999694824219 C52.5359992980957,-25.731000900268555 33.08599853515625,-59.50600051879883 18.32900047302246,-62.263999938964844 C3.572999954223633,-65.02100372314453 -14.53600025177002,-60.54100036621094 -28.621000289916992,-52.95800018310547 C-45.51100158691406,-43.867000579833984 -53.814998626708984,-34.04899978637695 -57.79800033569336,-27.110000610351562z"></path></g><g opacity="1" transform="matrix(1,0,0,1,332.60101318359375,153.82000732421875)"><path fill="rgb(208,215,214)" fill-opacity="1" d=" M-34.013999938964844,-27.219999313354492 C-34.013999938964844,-27.219999313354492 -25.509000778198242,-2.563999891281128 -7.6519999504089355,11.59000015258789 C5.556000232696533,22.058000564575195 35.04600143432617,34.297000885009766 35.04600143432617,34.297000885009766 C35.04600143432617,34.297000885009766 17.753000259399414,33.242000579833984 -0.2529999911785126,26.645000457763672 C-18.257999420166016,20.04800033569336 -29.579999923706055,0.057999998331069946 -31.952999114990234,-5.828000068664551 C-33.880001068115234,-10.609000205993652 -35.04600143432617,-27.993000030517578 -35.04600143432617,-27.993000030517578 C-35.04600143432617,-27.993000030517578 -27.719999313354492,-34.297000885009766 -27.719999313354492,-34.297000885009766"></path></g><g opacity="1" transform="matrix(1,0,0,1,0,0)"><g opacity="1" transform="matrix(1,0,0,1,388.77801513671875,128.47900390625)"><path fill="rgb(26,11,40)" fill-opacity="1" d=" M16.319000244140625,-11.579000473022461 C24.20800018310547,0.5540000200271606 32.303001403808594,14.782999992370605 19.861000061035156,21.003999710083008 C2.8610000610351562,29.503999710083008 -16.525999069213867,23.288000106811523 -24.413999557495117,11.154999732971191 C-32.303001403808594,-0.9779999852180481 -28.79400062561035,-16.20400047302246 -16.576000213623047,-22.854000091552734 C-4.357999801635742,-29.503999710083008 8.430000305175781,-23.711000442504883 16.319000244140625,-11.579000473022461z"></path></g><g opacity="1" transform="matrix(1,0,0,1,389.97601318359375,136.59500122070312)"><path fill="rgb(70,62,70)" fill-opacity="1" d=" M-13.920000076293945,9.394000053405762 C-10.059000015258789,12.460000038146973 -3.263000011444092,14.232999801635742 6.815000057220459,10.1850004196167 C16.893999099731445,6.136000156402588 18.058000564575195,-3.4059998989105225 17.459999084472656,-6.561999797821045 C16.54400062561035,-11.397000312805176 12.515999794006348,-14.232999801635742 6.446000099182129,-12.722000122070312 C0.37700000405311584,-11.210000038146973 -7.52400016784668,-8 -12.61299991607666,-5.813000202178955 C-17.906999588012695,-3.5390000343322754 -18.003000259399414,-0.17100000381469727 -18.020000457763672,1.3459999561309814 C-18.058000564575195,4.617000102996826 -15.446999549865723,8.180999755859375 -13.920000076293945,9.394000053405762z"></path></g><g opacity="1" transform="matrix(1,0,0,1,-7.9639892578125,6.21600341796875)"><g opacity="1" transform="matrix(1,0,0,1,397.1199951171875,118.10900115966797)"><path fill="rgb(255,255,255)" fill-opacity="1" d=" M5.3460001945495605,-4.526000022888184 C8.392000198364258,-1.5140000581741333 8.468000411987305,2.953000068664551 5.515999794006348,5.453000068664551 C2.563999891281128,7.953000068664551 -2.299999952316284,7.538000106811523 -5.34499979019165,4.526000022888184 C-8.390999794006348,1.5149999856948853 -8.468000411987305,-2.953000068664551 -5.515999794006348,-5.453000068664551 C-2.563999891281128,-7.953000068664551 2.299999952316284,-7.538000106811523 5.3460001945495605,-4.526000022888184z"></path></g><g opacity="1" transform="matrix(1,0,0,1,362.68798828125,131.5019989013672)"><path fill="rgb(255,255,255)" fill-opacity="1" d=" M3.2929999828338623,-2.7890000343322754 C5.169000148773193,-0.9340000152587891 5.216000080108643,1.8179999589920044 3.3970000743865967,3.3580000400543213 C1.5789999961853027,4.8979997634887695 -1.4160000085830688,4.64300012588501 -3.2929999828338623,2.7880001068115234 C-5.169000148773193,0.9330000281333923 -5.216000080108643,-1.819000005722046 -3.3970000743865967,-3.3589999675750732 C-1.5789999961853027,-4.8979997634887695 1.4170000553131104,-4.644000053405762 3.2929999828338623,-2.7890000343322754z"></path></g></g></g><g opacity="1" transform="matrix(1,0,0,1,350.6050109863281,102.05400085449219)"><path fill="url(#__lottie_element_50)" fill-opacity="1" d=" M-55.87300109863281,32.823001861572266 C-55.69499969482422,33.64699935913086 -55.06399917602539,43.38999938964844 -53.17300033569336,41.24800109863281 C-46.44499969482422,33.625999450683594 -22.583999633789062,23.152000427246094 7.254000186920166,14.89799976348877 C31.976999282836914,8.059000015258789 47.17499923706055,2.4760000705718994 52.2239990234375,5.164999961853027 C54.012001037597656,6.117000102996826 54.8390007019043,7.5269999504089355 55.10900115966797,7.10699987411499 C55.483001708984375,6.526000022888184 56.05400085449219,4.164999961853027 47.97999954223633,-5.866000175476074 C39.474998474121094,-16.433000564575195 17.613000869750977,-35.470001220703125 2.010999917984009,-34.444000244140625 C-21.691999435424805,-32.8849983215332 -35.13600158691406,-8.567999839782715 -41.946998596191406,1.3949999809265137 C-53.66899871826172,18.538000106811523 -55.547000885009766,29.125999450683594 -55.547000885009766,29.125999450683594 C-55.547000885009766,29.125999450683594 -56.01900100708008,32.14400100708008 -55.87300109863281,32.823001861572266z"></path><path stroke-linecap="butt" stroke-linejoin="miter" fill-opacity="0" stroke-miterlimit="10" stroke="rgb(182,94,49)" stroke-opacity="1" stroke-width="11" d=" M-55.87300109863281,32.823001861572266 C-55.69499969482422,33.64699935913086 -55.06399917602539,43.38999938964844 -53.17300033569336,41.24800109863281 C-46.44499969482422,33.625999450683594 -22.583999633789062,23.152000427246094 7.254000186920166,14.89799976348877 C31.976999282836914,8.059000015258789 47.17499923706055,2.4760000705718994 52.2239990234375,5.164999961853027 C54.012001037597656,6.117000102996826 54.8390007019043,7.5269999504089355 55.10900115966797,7.10699987411499 C55.483001708984375,6.526000022888184 56.05400085449219,4.164999961853027 47.97999954223633,-5.866000175476074 C39.474998474121094,-16.433000564575195 17.613000869750977,-35.470001220703125 2.010999917984009,-34.444000244140625 C-21.691999435424805,-32.8849983215332 -35.13600158691406,-8.567999839782715 -41.946998596191406,1.3949999809265137 C-53.66899871826172,18.538000106811523 -55.547000885009766,29.125999450683594 -55.547000885009766,29.125999450683594 C-55.547000885009766,29.125999450683594 -56.01900100708008,32.14400100708008 -55.87300109863281,32.823001861572266z"></path></g><g opacity="1" transform="matrix(1,0,0,1,373.72601318359375,191.1820068359375)"><path fill="url(#__lottie_element_51)" fill-opacity="1" d=" M-46.62799835205078,-7.3520002365112305 C-47.42499923706055,-8.095999717712402 -48.93000030517578,-9.37600040435791 -47.92300033569336,-9.75100040435791 C-40.69900131225586,-12.442000389099121 -21.37700080871582,-19.190000534057617 6.618000030517578,-27.514999389648438 C27.770000457763672,-33.80500030517578 44.74399948120117,-39.09700012207031 48.77000045776367,-40.79399871826172 C49.61899948120117,-41.152000427246094 50.000999450683594,-16.617000579833984 49.819000244140625,-15.690999984741211 C47.683998107910156,-4.841000080108643 47.3120002746582,9.807000160217285 26.226999282836914,14.564000129699707 C0.3089999854564667,20.410999298095703 -24.80699920654297,9.82800006866455 -30.867000579833984,5.882999897003174 C-38.832000732421875,0.6980000138282776 -42.999000549316406,-3.9639999866485596 -46.62799835205078,-7.3520002365112305z"></path><path stroke-linecap="butt" stroke-linejoin="miter" fill-opacity="0" stroke-miterlimit="10" stroke="rgb(182,94,49)" stroke-opacity="1" stroke-width="11" d=" M-46.62799835205078,-7.3520002365112305 C-47.42499923706055,-8.095999717712402 -48.93000030517578,-9.37600040435791 -47.92300033569336,-9.75100040435791 C-40.69900131225586,-12.442000389099121 -21.37700080871582,-19.190000534057617 6.618000030517578,-27.514999389648438 C27.770000457763672,-33.80500030517578 44.74399948120117,-39.09700012207031 48.77000045776367,-40.79399871826172 C49.61899948120117,-41.152000427246094 50.000999450683594,-16.617000579833984 49.819000244140625,-15.690999984741211 C47.683998107910156,-4.841000080108643 47.3120002746582,9.807000160217285 26.226999282836914,14.564000129699707 C0.3089999854564667,20.410999298095703 -24.80699920654297,9.82800006866455 -30.867000579833984,5.882999897003174 C-38.832000732421875,0.6980000138282776 -42.999000549316406,-3.9639999866485596 -46.62799835205078,-7.3520002365112305z"></path></g></g><g style="display: block;" transform="matrix(1.0544400215148926,0,0,1.0544400215148926,33.304046630859375,-10.113174438476562)" opacity="1"><g opacity="1" transform="matrix(1,0,0,1,209.9510040283203,246.55799865722656)"><path stroke-linecap="round" stroke-linejoin="round" fill-opacity="0" stroke="rgb(219,157,122)" stroke-opacity="0.72" stroke-width="13.045" d=" M18.617000579833984,-40.61800003051758 C18.617000579833984,-40.61800003051758 21.323999404907227,-12.862000465393066 7.784999847412109,12.86299991607666 C-1.9190000295639038,31.299999237060547 -21.323999404907227,40.61800003051758 -21.323999404907227,40.61800003051758"></path></g><g opacity="1" transform="matrix(1,0,0,1,165.93299865722656,200.31399536132812)"><path fill="rgb(255,255,255)" fill-opacity="1" d=" M-67.00499725341797,-1.6519999504089355 C-67.00499725341797,-1.6519999504089355 -67.78900146484375,65.69300079345703 -13.185999870300293,63.08300018310547 C47.64799880981445,60.17599868774414 60.702999114990234,4.683000087738037 63.74700164794922,-10.41100025177002 C67.99299621582031,-31.464000701904297 59.143001556396484,-60.51300048828125 30.479000091552734,-63.2130012512207 C4.136000156402588,-65.69300079345703 -45.74300003051758,-57.750999450683594 -58.88100051879883,-37.69900131225586 C-67.99400329589844,-23.791000366210938 -67.00499725341797,-1.6519999504089355 -67.00499725341797,-1.6519999504089355z"></path><path stroke-linecap="butt" stroke-linejoin="miter" fill-opacity="0" stroke-miterlimit="10" stroke="rgb(111,77,111)" stroke-opacity="1" stroke-width="12" d=" M-67.00499725341797,-1.6519999504089355 C-67.00499725341797,-1.6519999504089355 -67.78900146484375,65.69300079345703 -13.185999870300293,63.08300018310547 C47.64799880981445,60.17599868774414 60.702999114990234,4.683000087738037 63.74700164794922,-10.41100025177002 C67.99299621582031,-31.464000701904297 59.143001556396484,-60.51300048828125 30.479000091552734,-63.2130012512207 C4.136000156402588,-65.69300079345703 -45.74300003051758,-57.750999450683594 -58.88100051879883,-37.69900131225586 C-67.99400329589844,-23.791000366210938 -67.00499725341797,-1.6519999504089355 -67.00499725341797,-1.6519999504089355z"></path></g><g opacity="1" transform="matrix(1,0,0,1,0,0)"><g opacity="1" transform="matrix(1,0,0,1,200.8800048828125,166.83299255371094)"><path fill="rgb(26,11,40)" fill-opacity="1" d=" M26.82699966430664,-4.355000019073486 C28.558000564575195,10.104000091552734 27.047000885009766,24.06399917602539 12.303000450134277,26.106000900268555 C-11.288000106811523,29.371999740600586 -25.094999313354492,15.298999786376953 -26.826000213623047,0.8399999737739563 C-28.558000564575195,-13.619000434875488 -17.950000762939453,-26.503000259399414 -3.134999990463257,-27.937999725341797 C11.680000305175781,-29.371999740600586 25.09600067138672,-18.812999725341797 26.82699966430664,-4.355000019073486z"></path></g><g opacity="1" transform="matrix(1,0,0,1,200.80799865722656,175.84100341796875)"><path fill="rgb(70,62,70)" fill-opacity="1" d=" M-18.64299964904785,2.371000051498413 C-16.424999237060547,6.757999897003174 -10.793999671936035,11.085000038146973 0.7409999966621399,11.246999740600586 C12.277000427246094,11.40999984741211 17.937000274658203,2.930000066757202 18.87299919128418,-0.25999999046325684 C20.30500030517578,-5.1479997634887695 17.819000244140625,-9.38599967956543 11.314000129699707,-10.35200023651123 C4.809000015258789,-11.317000389099121 -4.250999927520752,-11.40999984741211 -10.145000457763672,-11.359000205993652 C-16.27400016784668,-11.305999755859375 -17.969999313354492,-8.1899995803833 -18.709999084472656,-6.775000095367432 C-20.305999755859375,-3.7260000705718994 -19.520000457763672,0.6349999904632568 -18.64299964904785,2.371000051498413z"></path></g><g opacity="1" transform="matrix(1,0,0,1,-6.779998779296875,3.1619873046875)"><g opacity="1" transform="matrix(1,0,0,1,215.53700256347656,160.36399841308594)"><path fill="rgb(255,255,255)" fill-opacity="1" d=" M7.252999782562256,-2.1419999599456787 C8.720000267028809,1.8739999532699585 6.660999774932861,6.0879998207092285 2.6549999713897705,7.271999835968018 C-1.3509999513626099,8.454000473022461 -5.785999774932861,6.1579999923706055 -7.252999782562256,2.1419999599456787 C-8.720000267028809,-1.8739999532699585 -6.660999774932861,-6.089000225067139 -2.6549999713897705,-7.270999908447266 C1.3509999513626099,-8.454000473022461 5.785999774932861,-6.1579999923706055 7.252999782562256,-2.1419999599456787z"></path></g><g opacity="1" transform="matrix(1,0,0,1,178.0229949951172,177.1649932861328)"><path fill="rgb(255,255,255)" fill-opacity="1" d=" M3.374000072479248,-2.8570001125335693 C5.296999931335449,-0.9559999704360962 5.34499979019165,1.8639999628067017 3.4809999465942383,3.441999912261963 C1.6180000305175781,5.019999980926514 -1.4509999752044678,4.757999897003174 -3.374000072479248,2.8570001125335693 C-5.296999931335449,0.9559999704360962 -5.34499979019165,-1.8639999628067017 -3.4809999465942383,-3.441999912261963 C-1.6180000305175781,-5.019999980926514 1.4509999752044678,-4.757999897003174 3.374000072479248,-2.8570001125335693z"></path></g></g></g><g opacity="1" transform="matrix(1,0,0,1,128.5850067138672,223.1179962158203)"><path fill="rgb(208,215,214)" fill-opacity="1" d=" M-24.409000396728516,-39.17900085449219 C-24.409000396728516,-39.17900085449219 -18.655000686645508,-10.746999740600586 -8.50100040435791,7.869999885559082 C-0.5519999861717224,22.44300079345703 25.68600082397461,41.04100036621094 25.68600082397461,41.04100036621094 C25.68600082397461,41.04100036621094 8.423999786376953,38.50199890136719 -6.808000087738037,27.33300018310547 C-22.040000915527344,16.163000106811523 -24.535999298095703,-14.9350004196167 -25.17099952697754,-21.155000686645508 C-25.68600082397461,-26.20599937438965 -25.086999893188477,-39.0099983215332 -25.086999893188477,-39.0099983215332 C-25.086999893188477,-39.0099983215332 -14.930999755859375,-41.04100036621094 -14.930999755859375,-41.04100036621094"></path></g><g opacity="1" transform="matrix(1,0,0,1,167.96200561523438,240.2760009765625)"><path fill="url(#__lottie_element_42)" fill-opacity="1" d=" M-56.327999114990234,1.3569999933242798 C-56.327999114990234,1.3569999933242798 -28.731000900268555,-15.432000160217285 4.043000221252441,-23.424999237060547 C38.8129997253418,-31.905000686645508 58.638999938964844,-37.98099899291992 58.638999938964844,-37.98099899291992 C58.638999938964844,-37.98099899291992 57.79600143432617,-28.506999969482422 47.47100067138672,-12.888999938964844 C37.14699935913086,2.7279999256134033 18.301000595092773,22.030000686645508 -7.702000141143799,25.5 C-30.232999801635742,28.507999420166016 -48.61899948120117,14.317000389099121 -53.207000732421875,9.689000129699707 C-57.79600143432617,5.061999797821045 -56.327999114990234,1.3569999933242798 -56.327999114990234,1.3569999933242798z"></path><path stroke-linecap="butt" stroke-linejoin="miter" fill-opacity="0" stroke-miterlimit="10" stroke="rgb(182,94,49)" stroke-opacity="1" stroke-width="11" d=" M-56.327999114990234,1.3569999933242798 C-56.327999114990234,1.3569999933242798 -28.731000900268555,-15.432000160217285 4.043000221252441,-23.424999237060547 C38.8129997253418,-31.905000686645508 58.638999938964844,-37.98099899291992 58.638999938964844,-37.98099899291992 C58.638999938964844,-37.98099899291992 57.79600143432617,-28.506999969482422 47.47100067138672,-12.888999938964844 C37.14699935913086,2.7279999256134033 18.301000595092773,22.030000686645508 -7.702000141143799,25.5 C-30.232999801635742,28.507999420166016 -48.61899948120117,14.317000389099121 -53.207000732421875,9.689000129699707 C-57.79600143432617,5.061999797821045 -56.327999114990234,1.3569999933242798 -56.327999114990234,1.3569999933242798z"></path></g><g opacity="1" transform="matrix(1,0,0,1,155.4720001220703,155.0800018310547)"><path fill="url(#__lottie_element_43)" fill-opacity="1" d=" M-56.48400115966797,40.27199935913086 C-57.1349983215332,40.87300109863281 -57.332000732421875,41.13800048828125 -57.43199920654297,40.28300094604492 C-58.6879997253418,29.55500030517578 -60.941001892089844,-20.297000885009766 -3.9839999675750732,-34.196998596191406 C24.45599937438965,-41.13800048828125 45.50199890136719,-28.283000946044922 55.95600128173828,-17.711000442504883 C60.356998443603516,-13.26099967956543 60.94200134277344,-11.505000114440918 60.487998962402344,-11.505000114440918 C58.20399856567383,-11.505000114440918 48.952999114990234,-8.020000457763672 43.777000427246094,-6.443999767303467 C30.118999481201172,-2.2860000133514404 9.255000114440918,6.25 -7.473999977111816,12.986000061035156 C-35.6879997253418,24.347000122070312 -51.37200164794922,35.55400085449219 -56.48400115966797,40.27199935913086z"></path><path stroke-linecap="butt" stroke-linejoin="miter" fill-opacity="0" stroke-miterlimit="10" stroke="rgb(182,94,49)" stroke-opacity="1" stroke-width="11" d=" M-56.48400115966797,40.27199935913086 C-57.1349983215332,40.87300109863281 -57.332000732421875,41.13800048828125 -57.43199920654297,40.28300094604492 C-58.6879997253418,29.55500030517578 -60.941001892089844,-20.297000885009766 -3.9839999675750732,-34.196998596191406 C24.45599937438965,-41.13800048828125 45.50199890136719,-28.283000946044922 55.95600128173828,-17.711000442504883 C60.356998443603516,-13.26099967956543 60.94200134277344,-11.505000114440918 60.487998962402344,-11.505000114440918 C58.20399856567383,-11.505000114440918 48.952999114990234,-8.020000457763672 43.777000427246094,-6.443999767303467 C30.118999481201172,-2.2860000133514404 9.255000114440918,6.25 -7.473999977111816,12.986000061035156 C-35.6879997253418,24.347000122070312 -51.37200164794922,35.55400085449219 -56.48400115966797,40.27199935913086z"></path></g></g><g style="display: block;" transform="matrix(1.0099999904632568,0,0,1.0099999904632568,33.688995361328125,-3.936004638671875)" opacity="1"><g opacity="1" transform="matrix(1,0,0,1,0,0)"></g><g opacity="1" transform="matrix(1,0,0,1,301.94500732421875,61.775001525878906)"><path fill="rgb(217,150,109)" fill-opacity="0.75" d=" M49.861000061035156,-15.17199993133545 C46.867000579833984,-16.905000686645508 45.51499938964844,-19.5310001373291 38.3120002746582,-23.003000259399414 C32.16600036621094,-20.207000732421875 27.43000030517578,-13.210000038146973 20.2549991607666,-6.433000087738037 C-9.243000030517578,21.426000595092773 -23.290000915527344,15.394000053405762 -25.905000686645508,28.798999786376953 C-26.79599952697754,33.3650016784668 -21.417999267578125,38.9640007019043 -19.250999450683594,41.08599853515625 C-15.496999740600586,44.762001037597656 -8.123000144958496,46.89699935913086 1.5720000267028809,37.44900131225586 C9.657999992370605,29.569000244140625 16.437000274658203,21.28499984741211 32.893001556396484,8.253999710083008 C50.29199981689453,-5.5229997634887695 50.78799819946289,-7.034999847412109 54.02299880981445,-11.861000061035156 C53.33599853515625,-12.27400016784668 50.63199996948242,-14.72599983215332 49.861000061035156,-15.17199993133545z"></path></g><g opacity="1" transform="matrix(1,0,0,1,308.5880126953125,42.09700012207031)"><path fill="rgb(55,30,9)" fill-opacity="1" d=" M-20.298999786376953,55.2400016784668 C-16.493000030517578,58.96699905395508 -8.104999542236328,53.520999908447266 5.065000057220459,44.4370002746582 C12.633000373840332,39.21699905395508 17.96500015258789,35.70100021362305 27.549999237060547,26.27199935913086 C33.35900115966797,20.55699920654297 37.59299850463867,15.883999824523926 43.854000091552734,5.349999904632568 C48.00299835205078,-1.63100004196167 39.29499816894531,-6.888999938964844 34.755001068115234,-3.3589999675750732 C27.058000564575195,2.625 25.604000091552734,3.109999895095825 7.892000198364258,15.371000289916992 C-24.381999969482422,37.71200180053711 -19.75,30.118999481201172 -27.42799949645996,39.15399932861328 C-30.96500015258789,43.316001892089844 -22.4950008392334,53.0890007019043 -20.298999786376953,55.2400016784668z"></path><path stroke-linecap="butt" stroke-linejoin="round" fill-opacity="0" stroke="rgb(55,30,9)" stroke-opacity="1" stroke-width="3" d=" M-20.298999786376953,55.2400016784668 C-16.493000030517578,58.96699905395508 -8.104999542236328,53.520999908447266 5.065000057220459,44.4370002746582 C12.633000373840332,39.21699905395508 17.96500015258789,35.70100021362305 27.549999237060547,26.27199935913086 C33.35900115966797,20.55699920654297 37.59299850463867,15.883999824523926 43.854000091552734,5.349999904632568 C48.00299835205078,-1.63100004196167 39.29499816894531,-6.888999938964844 34.755001068115234,-3.3589999675750732 C27.058000564575195,2.625 25.604000091552734,3.109999895095825 7.892000198364258,15.371000289916992 C-24.381999969482422,37.71200180053711 -19.75,30.118999481201172 -27.42799949645996,39.15399932861328 C-30.96500015258789,43.316001892089844 -22.4950008392334,53.0890007019043 -20.298999786376953,55.2400016784668z"></path></g></g><g style="display: block;" transform="matrix(1.0544400215148926,0,0,1.0544400215148926,33.234458923339844,-7.114345073699951)" opacity="1"><g opacity="1" transform="matrix(1,0,0,1,148.0780029296875,89.03800201416016)"><path fill="rgb(183,73,5)" fill-opacity="0.31" d=" M-53.94499969482422,6.413000106811523 C-53.94499969482422,6.413000106811523 -55.70600128173828,11.600000381469727 -45.86000061035156,6.7729997634887695 C-2.1440000534057617,-14.659000396728516 12.659000396728516,7.379000186920166 21.448999404907227,13.42300033569336 C29.993000030517578,19.298999786376953 63.766998291015625,39.39699935913086 71.5999984741211,20.448999404907227 C74.95500183105469,12.333999633789062 31.81100082397461,4.495999813079834 14.574999809265137,-2.7360000610351562 C-2.6589999198913574,-9.967000007629395 -35.31700134277344,-19.34600067138672 -38.42599868774414,-17.458999633789062 C-45.5629997253418,-13.12399959564209 -53.94499969482422,6.413000106811523 -53.94499969482422,6.413000106811523z"></path></g><g opacity="1" transform="matrix(1.0399999618530273,0,0,1.0399999618530273,144.02099609375,82.63600158691406)"><path fill="rgb(54,29,8)" fill-opacity="1" d=" M-53.7599983215332,14.765999794006348 C-53.7599983215332,14.765999794006348 -37.93199920654297,-1.3869999647140503 -22.665000915527344,-4.176000118255615 C7.75600004196167,-9.734000205993652 17.819000244140625,11.003999710083008 32.994998931884766,20.2549991607666 C51.472999572753906,33.11899948120117 66.80400085449219,36.25600051879883 69.51699829101562,24.766000747680664 C73.10800170898438,9.560999870300293 57.242000579833984,9.081000328063965 24.499000549316406,-8.345000267028809 C14.454000473022461,-14.47700023651123 -10.0649995803833,-26.496000289916992 -27.617000579833984,-18.469999313354492 C-44.680999755859375,-14.958000183105469 -55.737998962402344,8.600000381469727 -53.7599983215332,14.765999794006348z"></path><path stroke-linecap="butt" stroke-linejoin="round" fill-opacity="0" stroke="rgb(55,30,9)" stroke-opacity="1" stroke-width="3" d=" M-53.7599983215332,14.765999794006348 C-53.7599983215332,14.765999794006348 -37.93199920654297,-1.3869999647140503 -22.665000915527344,-4.176000118255615 C7.75600004196167,-9.734000205993652 17.819000244140625,11.003999710083008 32.994998931884766,20.2549991607666 C51.472999572753906,33.11899948120117 66.80400085449219,36.25600051879883 69.51699829101562,24.766000747680664 C73.10800170898438,9.560999870300293 57.242000579833984,9.081000328063965 24.499000549316406,-8.345000267028809 C14.454000473022461,-14.47700023651123 -10.0649995803833,-26.496000289916992 -27.617000579833984,-18.469999313354492 C-44.680999755859375,-14.958000183105469 -55.737998962402344,8.600000381469727 -53.7599983215332,14.765999794006348z"></path></g></g><g style="display: block;" transform="matrix(1.0209771394729614,0.020410917699337006,-0.024067403748631477,0.9342977404594421,239.74099731445312,291.7453918457031)" opacity="0.26"><g opacity="1" transform="matrix(1,0,0,1,0,0)"><path fill="rgb(182,94,49)" fill-opacity="1" d=" M195.61300659179688,72.8740005493164 C199.9949951171875,38.71500015258789 137.9929962158203,26.1560001373291 105.96600341796875,43.05400085449219 C85.31900024414062,53.948001861572266 51.59199905395508,67.66699981689453 27.469999313354492,82.19599914550781 C7.375,94.30000305175781 -20.283000946044922,42.88999938964844 -48.15800094604492,43.85599899291992 C-70.19499969482422,44.619998931884766 -92.98300170898438,75.08699798583984 -74.81800079345703,88.3489990234375 C-56.77199935913086,101.52400207519531 -56.83300018310547,112.8290023803711 -35.354000091552734,143.68499755859375 C-10.687999725341797,179.11900329589844 -8.383000373840332,189.56700134277344 31.617000579833984,196.56700134277344 C71.61699676513672,203.56700134277344 109,139 109,139 C109,139 193.05599975585938,92.80999755859375 195.61300659179688,72.8740005493164z"></path></g></g><g style="display: block;" transform="matrix(1,0,0,0.8809500336647034,262,285.3576354980469)" opacity="1"><g opacity="1" transform="matrix(1,0,0,1,0,0)"><path fill="url(#__lottie_element_11)" fill-opacity="1" d=" M81,87 C81,87 36.40399932861328,116.69499969482422 10.501999855041504,119.40499877929688 C-23.19099998474121,122.93099975585938 -31,103.5 -31,103.5 C-31,103.5 -52.5,157.5 -52.5,157.5 C-52.5,157.5 -50.292999267578125,173.43600463867188 -45.4640007019043,187.98800659179688 C-41.42399978637695,200.16000366210938 -32.0989990234375,213.76199340820312 -28,219 C-19,230.5 7.5,248.5 46,247 C90.01200103759766,245.28500366210938 116.50900268554688,218.447998046875 123.5,210 C135.5,195.5 133,185 131.5,176 C130,167 81,87 81,87z"></path><path stroke-linecap="round" stroke-linejoin="round" fill-opacity="0" stroke="rgb(182,94,49)" stroke-opacity="1" stroke-width="13" d=" M81,87 C81,87 36.40399932861328,116.69499969482422 10.501999855041504,119.40499877929688 C-23.19099998474121,122.93099975585938 -31,103.5 -31,103.5 C-31,103.5 -52.5,157.5 -52.5,157.5 C-52.5,157.5 -50.292999267578125,173.43600463867188 -45.4640007019043,187.98800659179688 C-41.42399978637695,200.16000366210938 -32.0989990234375,213.76199340820312 -28,219 C-19,230.5 7.5,248.5 46,247 C90.01200103759766,245.28500366210938 116.50900268554688,218.447998046875 123.5,210 C135.5,195.5 133,185 131.5,176 C130,167 81,87 81,87z"></path></g><g opacity="1" transform="matrix(1,0,0,1,0,0)"><path fill="rgb(249,211,182)" fill-opacity="1" d=" M15.388999938964844,117.7490005493164 C5.495999813079834,120.68499755859375 -15.336000442504883,121.52799987792969 -15.336000442504883,121.52799987792969 C-15.336000442504883,121.52799987792969 -3.065999984741211,153.15499877929688 -3.065999984741211,153.15499877929688 C-3.065999984741211,153.15499877929688 41.92300033569336,152.33900451660156 41.92300033569336,152.33900451660156 C41.92300033569336,152.33900451660156 53.47600173950195,101.10600280761719 53.47600173950195,101.10600280761719 C53.47600173950195,101.10600280761719 28.67099952697754,113.80699920654297 15.388999938964844,117.7490005493164z"></path></g><g opacity="0.66" transform="matrix(1,0,0,1,0,0)"><path fill="rgb(215,137,99)" fill-opacity="1" d=" M-45.01900100708008,171.5 C-45.01900100708008,171.5 -40.14899826049805,190.81900024414062 -34.39099884033203,198.6479949951172 C-23,214.13499450683594 -14,236.83799743652344 34.56100082397461,241.0800018310547 C88.07499694824219,245.75399780273438 113.9530029296875,212.75799560546875 113.9530029296875,212.75799560546875 C113.9530029296875,212.75799560546875 71.77200317382812,238.03900146484375 24.87299919128418,228.51600646972656 C-18,219.80999755859375 -45.01900100708008,171.5 -45.01900100708008,171.5z"></path></g></g><g style="display: block;" transform="matrix(1,0,0,0.8809500336647034,262,285.3576354980469)" opacity="1"><g opacity="1" transform="matrix(1,0,0,1,0,0)"><path fill="rgb(245,193,156)" fill-opacity="1" d=" M109,163.5 C109,163.5 132.5,145.5 132.5,145.5 C132.5,145.5 142.96400451660156,151.4929962158203 140,167.5 C137.5,181 117,193.5 117,193.5"></path><path stroke-linecap="round" stroke-linejoin="miter" fill-opacity="0" stroke-miterlimit="4" stroke="rgb(182,94,49)" stroke-opacity="1" stroke-width="11" d=" M109,163.5 C109,163.5 132.5,145.5 132.5,145.5 C132.5,145.5 142.96400451660156,151.4929962158203 140,167.5 C137.5,181 117,193.5 117,193.5"></path></g></g><g style="display: block;" transform="matrix(1,0,0,0.8809500336647034,262,285.3576354980469)" opacity="1"><g opacity="1" transform="matrix(1,0,0,1,0,0)"><path fill="rgb(246,196,160)" fill-opacity="1" d=" M100.5,124 C100.5,124 104,120.5 113,113.5 C122,106.5 128,100 128,100 C128,100 148,104.5 143,129 C139.21499633789062,147.5449981689453 109,164 109,164"></path><path stroke-linecap="round" stroke-linejoin="miter" fill-opacity="0" stroke-miterlimit="4" stroke="rgb(182,94,49)" stroke-opacity="1" stroke-width="13" d=" M100.5,124 C100.5,124 104,120.5 113,113.5 C122,106.5 128,100 128,100 C128,100 148,104.5 143,129 C139.21499633789062,147.5449981689453 109,164 109,164"></path></g></g><g style="display: block;" transform="matrix(1,0,0,0.8809500336647034,262,285.3576354980469)" opacity="1"><g opacity="1" transform="matrix(1,0,0,1,0,0)"><path fill="url(#__lottie_element_20)" fill-opacity="1" d=" M15.36299991607666,111.23999786376953 C15.36299991607666,111.23999786376953 -1.0679999589920044,117.2750015258789 -8.237000465393066,114.33000183105469 C-15.699000358581543,111.28700256347656 -22.51099967956543,107.9530029296875 -33.395999908447266,96.90899658203125 C-56.78900146484375,75.7030029296875 -76.13700103759766,66.86100006103516 -90.75700378417969,72.86699676513672 C-111.36000061035156,79.24400329589844 -111.13200378417969,94.7509994506836 -89.98999786376953,109.62699890136719 C-81.98799896240234,115.26699829101562 -75.05500030517578,125.45899963378906 -62.89699935913086,139.7899932861328 C-53.9900016784668,150.33099365234375 -49.0989990234375,177.2899932861328 -49.0989990234375,177.2899932861328"></path><path stroke-linecap="round" stroke-linejoin="miter" fill-opacity="0" stroke-miterlimit="4" stroke="rgb(182,94,49)" stroke-opacity="1" stroke-width="13" d=" M15.36299991607666,111.23999786376953 C15.36299991607666,111.23999786376953 -1.0679999589920044,117.2750015258789 -8.237000465393066,114.33000183105469 C-15.699000358581543,111.28700256347656 -22.51099967956543,107.9530029296875 -33.395999908447266,96.90899658203125 C-56.78900146484375,75.7030029296875 -76.13700103759766,66.86100006103516 -90.75700378417969,72.86699676513672 C-111.36000061035156,79.24400329589844 -111.13200378417969,94.7509994506836 -89.98999786376953,109.62699890136719 C-81.98799896240234,115.26699829101562 -75.05500030517578,125.45899963378906 -62.89699935913086,139.7899932861328 C-53.9900016784668,150.33099365234375 -49.0989990234375,177.2899932861328 -49.0989990234375,177.2899932861328"></path></g></g><g style="display: block;" transform="matrix(1,0,0,0.8809500336647034,262,285.3576354980469)" opacity="1"><g opacity="1" transform="matrix(1,0,0,1,0,0)"><path fill="rgb(249,211,182)" fill-opacity="1" d=" M-0.10100000351667404,116.12100219726562 C-0.10100000351667404,116.12100219726562 4.6519999504089355,114.30500030517578 12.9399995803833,110.6989974975586 C25.714000701904297,105.14099884033203 46.887001037597656,95.3280029296875 71.99700164794922,81.35199737548828 C120.55999755859375,54.32099914550781 163.10800170898438,66.54299926757812 171.24000549316406,90.49500274658203 C176.06199645996094,104.6989974975586 164.56300354003906,107.13099670410156 146.5,111.66200256347656 C135.656005859375,114.38200378417969 125.99099731445312,116.68800354003906 109,123 C97.06900024414062,127.43299865722656 71,142.63499450683594 71,142.63499450683594"></path><path stroke-linecap="round" stroke-linejoin="miter" fill-opacity="0" stroke-miterlimit="4" stroke="rgb(182,94,49)" stroke-opacity="1" stroke-width="12" d=" M-0.10100000351667404,116.12100219726562 C-0.10100000351667404,116.12100219726562 4.6519999504089355,114.30500030517578 12.9399995803833,110.6989974975586 C25.714000701904297,105.14099884033203 46.887001037597656,95.3280029296875 71.99700164794922,81.35199737548828 C120.55999755859375,54.32099914550781 163.10800170898438,66.54299926757812 171.24000549316406,90.49500274658203 C176.06199645996094,104.6989974975586 164.56300354003906,107.13099670410156 146.5,111.66200256347656 C135.656005859375,114.38200378417969 125.99099731445312,116.68800354003906 109,123 C97.06900024414062,127.43299865722656 71,142.63499450683594 71,142.63499450683594"></path></g></g><g style="display: block;" transform="matrix(1,0,0,0.8809500336647034,262,285.3576354980469)" opacity="1"><g opacity="1" transform="matrix(1,0,0,1,0,0)"><path stroke-linecap="round" stroke-linejoin="miter" fill-opacity="0" stroke-miterlimit="4" stroke="rgb(182,94,49)" stroke-opacity="1" stroke-width="13" d=" M-0.10100000351667404,116.12100219726562 C-0.10100000351667404,116.12100219726562 30.597000122070312,104.39600372314453 71.99700164794922,81.35199737548828 C120.55999755859375,54.32099914550781 163.10800170898438,66.54299926757812 171.24000549316406,90.49500274658203 C176.06199645996094,104.6989974975586 164.56300354003906,107.13099670410156 146.5,111.66200256347656 C135.656005859375,114.38200378417969 125.99099731445312,116.68800354003906 109,123 C97.06900024414062,127.43299865722656 71,142.63499450683594 71,142.63499450683594"></path></g></g></g></g></svg>