<svg xmlns="http://www.w3.org/2000/svg" xmlns:xlink="http://www.w3.org/1999/xlink" viewBox="0 0 512 512" width="512" height="512" style="width: 100%; height: 100%; transform: translate3d(0,0,0); content-visibility: visible;" preserveAspectRatio="xMidYMid meet"><defs><clipPath id="__lottie_element_2"><rect width="512" height="512" x="0" y="0"></rect></clipPath><radialGradient id="__lottie_element_10" spreadMethod="pad" gradientUnits="userSpaceOnUse" cx="59.80500030517578" cy="-208.21299743652344" r="399.6506834609655" fx="59.80500030517578" fy="-208.21299743652344"><stop offset="0%" stop-color="rgb(243,192,164)"></stop><stop offset="50%" stop-color="rgb(236,171,138)"></stop><stop offset="99%" stop-color="rgb(229,149,112)"></stop></radialGradient><radialGradient id="__lottie_element_11" spreadMethod="pad" gradientUnits="userSpaceOnUse" cx="-49.65999984741211" cy="-234.53599548339844" r="482.7172744848524" fx="-49.65999984741211" fy="-234.53599548339844"><stop offset="0%" stop-color="rgb(254,240,222)"></stop><stop offset="45%" stop-color="rgb(249,213,185)"></stop><stop offset="89%" stop-color="rgb(244,187,148)"></stop></radialGradient><radialGradient id="__lottie_element_16" spreadMethod="pad" gradientUnits="userSpaceOnUse" cx="-8.817000389099121" cy="-9.331999778747559" r="86.04869662360315" fx="-8.817000389099121" fy="-9.331999778747559"><stop offset="0%" stop-color="rgb(249,238,221)"></stop><stop offset="39%" stop-color="rgb(247,223,198)"></stop><stop offset="78%" stop-color="rgb(245,209,174)"></stop><stop offset="89%" stop-color="rgb(243,206,169)"></stop><stop offset="99%" stop-color="rgb(241,202,164)"></stop></radialGradient><radialGradient id="__lottie_element_20" spreadMethod="pad" gradientUnits="userSpaceOnUse" cx="-12.692999839782715" cy="-22.628999710083008" r="113.83758100404067" fx="-12.692999839782715" fy="-22.628999710083008"><stop offset="0%" stop-color="rgb(249,238,221)"></stop><stop offset="39%" stop-color="rgb(247,223,198)"></stop><stop offset="78%" stop-color="rgb(245,209,174)"></stop><stop offset="89%" stop-color="rgb(243,206,169)"></stop><stop offset="99%" stop-color="rgb(241,202,164)"></stop></radialGradient></defs><g clip-path="url(#__lottie_element_2)"><g style="display: block;" transform="matrix(0.9081680178642273,0,0,0.7657360434532166,6.180391788482666,60.47287368774414)" opacity="1"><g opacity="1" transform="matrix(1,0,0,1,262.71600341796875,272.4679870605469)"><path fill="url(#__lottie_element_10)" fill-opacity="1" d=" M-73.27300262451172,231.36099243164062 C-104.09300231933594,226.93499755859375 -132.1199951171875,210.7689971923828 -151.27699279785156,186.05099487304688 C-166.4929962158203,166.41900634765625 -182.6929931640625,138.03799438476562 -193.93299865722656,98.21099853515625 C-229.66900634765625,-28.410999298095703 -185.48399353027344,-100.23999786376953 -162.0989990234375,-139.66000366210938 C-133.4929962158203,-187.8820037841797 -119.66999816894531,-200.36300659179688 -85.27200317382812,-216.48800659179688 C-42.20500183105469,-236.677001953125 31.632999420166016,-239.4199981689453 93.72100067138672,-213.218994140625 C124.947998046875,-200.04100036621094 136.3000030517578,-181.2530059814453 151.1929931640625,-160.80099487304688 C193.81399536132812,-102.27400207519531 229.66900634765625,-41.88600158691406 225.94900512695312,43.185001373291016 C221.69500732421875,140.4720001220703 181.20199584960938,186.28199768066406 155.44900512695312,207.14500427246094 C142.0290069580078,218.01699829101562 115.94499969482422,233.10899353027344 58.03099822998047,236.2790069580078 C0.6119999885559082,239.42100524902344 -44.433998107910156,235.5030059814453 -73.27300262451172,231.36099243164062z"></path><path stroke-linecap="butt" stroke-linejoin="miter" fill-opacity="0" stroke-miterlimit="10" stroke="rgb(182,94,49)" stroke-opacity="1" stroke-width="14" d=" M-73.27300262451172,231.36099243164062 C-104.09300231933594,226.93499755859375 -132.1199951171875,210.7689971923828 -151.27699279785156,186.05099487304688 C-166.4929962158203,166.41900634765625 -182.6929931640625,138.03799438476562 -193.93299865722656,98.21099853515625 C-229.66900634765625,-28.410999298095703 -185.48399353027344,-100.23999786376953 -162.0989990234375,-139.66000366210938 C-133.4929962158203,-187.8820037841797 -119.66999816894531,-200.36300659179688 -85.27200317382812,-216.48800659179688 C-42.20500183105469,-236.677001953125 31.632999420166016,-239.4199981689453 93.72100067138672,-213.218994140625 C124.947998046875,-200.04100036621094 136.3000030517578,-181.2530059814453 151.1929931640625,-160.80099487304688 C193.81399536132812,-102.27400207519531 229.66900634765625,-41.88600158691406 225.94900512695312,43.185001373291016 C221.69500732421875,140.4720001220703 181.20199584960938,186.28199768066406 155.44900512695312,207.14500427246094 C142.0290069580078,218.01699829101562 115.94499969482422,233.10899353027344 58.03099822998047,236.2790069580078 C0.6119999885559082,239.42100524902344 -44.433998107910156,235.5030059814453 -73.27300262451172,231.36099243164062z"></path></g><g opacity="1" transform="matrix(1,0,0,1,257.9779968261719,265.093994140625)"><path fill="url(#__lottie_element_11)" fill-opacity="1" d=" M-101.40699768066406,201.6820068359375 C-101.40699768066406,201.6820068359375 -151.1179962158203,175.76800537109375 -175.35400390625,88.93000030517578 C-206.8979949951172,-24.089000701904297 -172.73199462890625,-85.62000274658203 -152.15699768066406,-120.8550033569336 C-125.36399841308594,-166.73800659179688 -106.48100280761719,-186.71800231933594 -76.16999816894531,-201.0959930419922 C-38.22100067138672,-219.0970001220703 19.899999618530273,-219.23399353027344 62.165000915527344,-203.46600341796875 C90.19599914550781,-193.0070037841797 110.58200073242188,-176.27099609375 123.71700286865234,-158.01300048828125 C161.30299377441406,-105.76399993896484 202.3300018310547,-68.88500213623047 205.76100158691406,31.926000595092773 C208.7169952392578,118.78900146484375 178.50100708007812,156.13400268554688 165.99400329589844,174.11300659179688 C161.6300048828125,180.38499450683594 147.42999267578125,195.3719940185547 128.47000122070312,206.0030059814453 C115.1760025024414,213.45599365234375 91.74099731445312,216.5 40.69900131225586,219.3070068359375 C-50.9900016784668,224.34800720214844 -101.40699768066406,201.6820068359375 -101.40699768066406,201.6820068359375z"></path></g></g><g style="display: block;" transform="matrix(0.9081680178642273,0,0,0.7657360434532166,118.268310546875,296.01251220703125)" opacity="1"><g opacity="1" transform="matrix(1,0,0,1,0,0)"><g opacity="1" transform="matrix(1,0,0,1,131.5749969482422,43.70399856567383)"><path fill="rgb(229,149,112)" fill-opacity="1" d=" M-112.54199981689453,9.666999816894531 C-114.41999816894531,2.13700008392334 -108.40399932861328,-5.0320000648498535 -100.8280029296875,-4.755000114440918 C-81.86000061035156,-4.060999870300293 -38.499000549316406,-6.250999927520752 -10.657999992370605,-6.531000137329102 C25.281999588012695,-6.89300012588501 36.25299835205078,-7.300000190734863 65.68499755859375,-9.71399974822998 C94.96099853515625,-12.114999771118164 103.43599700927734,-11.237000465393066 106.72899627685547,-3.191999912261963 C108.6709976196289,1.5540000200271606 109.04399871826172,6.014999866485596 101.37999725341797,9.388999938964844 C86.15299987792969,16.091999053955078 63.60900115966797,14.253000259399414 31.886999130249023,18.06100082397461 C-4.776000022888184,22.461999893188477 -49.18600082397461,21.42099952697754 -81.56099700927734,17.492000579833984 C-94.70800018310547,15.897000312805176 -109.34400177001953,15.477999687194824 -110.86499786376953,13.343000411987305 C-111.68800354003906,12.187999725341797 -112.2239990234375,10.942999839782715 -112.54199981689453,9.666999816894531z"></path></g><g opacity="1" transform="matrix(1,0,0,1,-27.357999801635742,-39.729000091552734)"><path fill="rgb(78,38,5)" fill-opacity="1" d=" M126.8489990234375,86.53299713134766 C102.68399810791016,85.69100189208984 70.89800262451172,85.50900268554688 81.13200378417969,88.91500091552734 C82.98999786376953,89.53299713134766 110.26300048828125,84.88300323486328 132.6909942626953,88.8290023803711 C155.11900329589844,92.7750015258789 189.3730010986328,94.0999984741211 221.0399932861328,85.91699981689453 C239.49200439453125,81.14900207519531 241.1230010986328,81.8290023803711 247.83999633789062,78.29000091552734 C254.5570068359375,74.7509994506836 213.87100219726562,89.24400329589844 184.35499572753906,86.25199890136719 C159.26100158691406,83.70899963378906 151.01400756835938,87.375 126.8489990234375,86.53299713134766z"></path></g><g opacity="1" transform="matrix(1,0,0,1,131.81100463867188,41.03099822998047)"><path stroke-linecap="round" stroke-linejoin="round" fill-opacity="0" stroke="rgb(132,64,6)" stroke-opacity="1" stroke-width="12" d=" M-98.81099700927734,12.868000030517578 C-98.81099700927734,12.868000030517578 -96.71900177001953,6.179999828338623 -83.89600372314453,6.743000030517578 C-57.994998931884766,7.879000186920166 -9.791000366210938,10.41100025177002 27.01300048828125,9.157999992370605 C78.02799987792969,7.420000076293945 100.05699920654297,1.725000023841858 100.05699920654297,1.725000023841858"></path></g></g></g><g style="display: block;" transform="matrix(0.9451032876968384,0,0,0.8220405578613281,85.06047058105469,139.5154571533203)" opacity="1"><g opacity="1" transform="matrix(1,0,0,1,0,0)"></g><g opacity="1" transform="matrix(1,0,0,1,89.87300109863281,104.8489990234375)"><path fill="rgb(229,149,112)" fill-opacity="1" d=" M-53.797000885009766,32.1870002746582 C-43.388999938964844,43.91400146484375 -9.873000144958496,63.35300064086914 31.097000122070312,48.07400131225586 C60.54199981689453,37.09199905395508 76.33899688720703,-5.626999855041504 57.6619987487793,-36.23699951171875 C41.707000732421875,-62.38600158691406 -30.927000045776367,-63.35300064086914 -56.01900100708008,-40.986000061035156 C-76.33899688720703,-22.874000549316406 -68.17500305175781,15.986000061035156 -53.797000885009766,32.1870002746582z"></path></g><g opacity="1" transform="matrix(1,0,0,1,92.37899780273438,85.83699798583984)"><path fill="rgb(198,219,226)" fill-opacity="1" d=" M-62.66999816894531,17.58300018310547 C-58.78300094604492,35.79999923706055 -41.48699951171875,61.50400161743164 -2.11899995803833,61.50400161743164 C43.862998962402344,61.50400161743164 67.04399871826172,33.67599868774414 56.83100128173828,-8.055999755859375 C46.625,-49.76599884033203 2.984999895095825,-61.50400161743164 -29.093000411987305,-48.071998596191406 C-60.04100036621094,-35.112998962402344 -67.04399871826172,-2.9179999828338623 -62.66999816894531,17.58300018310547z"></path><path stroke-linecap="butt" stroke-linejoin="miter" fill-opacity="0" stroke-miterlimit="10" stroke="rgb(101,61,109)" stroke-opacity="1" stroke-width="11" d=" M-62.66999816894531,17.58300018310547 C-58.78300094604492,35.79999923706055 -41.48699951171875,61.50400161743164 -2.11899995803833,61.50400161743164 C43.862998962402344,61.50400161743164 67.04399871826172,33.67599868774414 56.83100128173828,-8.055999755859375 C46.625,-49.76599884033203 2.984999895095825,-61.50400161743164 -29.093000411987305,-48.071998596191406 C-60.04100036621094,-35.112998962402344 -67.04399871826172,-2.9179999828338623 -62.66999816894531,17.58300018310547z"></path></g><g opacity="1" transform="matrix(1,0,0,1,94.26200103759766,79.28299713134766)"><path fill="rgb(254,254,255)" fill-opacity="1" d=" M-53.24700164794922,13.92300033569336 C-49.91899871826172,29.52400016784668 -34.518001556396484,52.667999267578125 -0.8059999942779541,52.667999267578125 C38.569000244140625,52.667999267578125 47.159000396728516,30.388999938964844 38.415000915527344,-5.3480000495910645 C29.673999786376953,-41.064998626708984 3.563999891281128,-52.66699981689453 -23.905000686645508,-41.165000915527344 C-50.40700149536133,-30.06800079345703 -56.99300003051758,-3.632999897003174 -53.24700164794922,13.92300033569336z"></path></g><g opacity="1" transform="matrix(1,0,0,1,36.24100112915039,13.225006103515625)"><g opacity="1" transform="matrix(1,0,0,1,54.957000732421875,91.10700225830078)"><path fill="rgb(7,2,20)" fill-opacity="1" d=" M-21.009000778198242,-8.475000381469727 C-22.64900016784668,-2.0339999198913574 -23.083999633789062,9.435999870300293 -11.907999992370605,16.31399917602539 C1.944000005722046,24.839000701904297 17.2549991607666,15.538000106811523 20.17099952697754,2.750999927520752 C23.083999633789062,-10.020999908447266 15.067000389099121,-23.599000930786133 -1.3370000123977661,-24.374000549316406 C-11.175000190734863,-24.839000701904297 -19.163999557495117,-15.722999572753906 -21.009000778198242,-8.475000381469727z"></path></g><g opacity="1" transform="matrix(1,0,0,1,50.814998626708984,97.11199951171875)"><path fill="rgb(45,34,44)" fill-opacity="1" d=" M-13.128000259399414,-2.2109999656677246 C-13.052000045776367,1.4889999628067017 -10.848999977111816,5.943999767303467 -3.7679998874664307,8.760000228881836 C3.312999963760376,11.576000213623047 9.310999870300293,6.75 10.829999923706055,4.65500020980835 C13.157999992370605,1.4459999799728394 12.871999740600586,-2.2090001106262207 9.13700008392334,-4.431000232696533 C5.4019999504089355,-6.6529998779296875 -0.17000000178813934,-8.83899974822998 -3.8269999027252197,-10.180999755859375 C-7.630000114440918,-11.576000213623047 -9.597999572753906,-9.711999893188477 -10.472000122070312,-8.859999656677246 C-12.357999801635742,-7.021999835968018 -13.157999992370605,-3.674999952316284 -13.128000259399414,-2.2109999656677246z"></path></g><g opacity="1" transform="matrix(1.1399999856948853,0,0,1.1399999856948853,67.68699645996094,103.05400085449219)"><path fill="rgb(254,254,255)" fill-opacity="1" d=" M-4.966000080108643,3.13700008392334 C-4.0269999504089355,4.656000137329102 -1.812000036239624,6.198999881744385 1.5549999475479126,5.117000102996826 C5.019999980926514,4.005000114440918 6.296999931335449,0.5559999942779541 4.349999904632568,-3.0869998931884766 C2.686000108718872,-6.198999881744385 -2.2660000324249268,-5.968999862670898 -4.433000087738037,-3.5820000171661377 C-6.296999931335449,-1.531000018119812 -6.0229997634887695,1.4290000200271606 -4.966000080108643,3.13700008392334z"></path></g><g opacity="1" transform="matrix(1,0,0,1,40.729000091552734,85.5270004272461)"><path fill="rgb(254,254,255)" fill-opacity="1" d=" M-6.526000022888184,3.9670000076293945 C-5.4029998779296875,5.632999897003174 -2.5829999446868896,7.2170000076293945 2.003999948501587,5.682000160217285 C6.723999977111816,4.1020002365112305 8.72599983215332,0.024000000208616257 6.442999839782715,-3.999000072479248 C4.493000030517578,-7.434999942779541 -2.135999917984009,-6.741000175476074 -5.234000205993652,-3.809000015258789 C-7.8979997634887695,-1.2879999876022339 -7.789000034332275,2.0929999351501465 -6.526000022888184,3.9670000076293945z"></path></g></g><g opacity="1" transform="matrix(1,0,0,1,89.67900085449219,58.064998626708984)"><path fill="url(#__lottie_element_20)" fill-opacity="1" d=" M-60.58399963378906,24.7189998626709 C-60.58399963378906,24.7189998626709 -29.461999893188477,27.059999465942383 8.157999992370605,28.7189998626709 C46.13100051879883,30.395000457763672 61.45500183105469,30.680999755859375 61.45500183105469,30.680999755859375 C61.45500183105469,30.680999755859375 56.2239990234375,-15.166999816894531 15.97599983215332,-25.618999481201172 C-5.309000015258789,-31.14699935913086 -27.58099937438965,-24.601999282836914 -41.72800064086914,-10.678000450134277 C-57.57600021362305,4.920000076293945 -60.58399963378906,24.7189998626709 -60.58399963378906,24.7189998626709z"></path><path stroke-linecap="round" stroke-linejoin="round" fill-opacity="0" stroke="rgb(168,83,39)" stroke-opacity="1" stroke-width="11.353" d=" M-60.58399963378906,24.7189998626709 C-60.58399963378906,24.7189998626709 -29.461999893188477,27.059999465942383 8.157999992370605,28.7189998626709 C46.13100051879883,30.395000457763672 61.45500183105469,30.680999755859375 61.45500183105469,30.680999755859375 C61.45500183105469,30.680999755859375 56.2239990234375,-15.166999816894531 15.97599983215332,-25.618999481201172 C-5.309000015258789,-31.14699935913086 -27.58099937438965,-24.601999282836914 -41.72800064086914,-10.678000450134277 C-57.57600021362305,4.920000076293945 -60.58399963378906,24.7189998626709 -60.58399963378906,24.7189998626709z"></path></g></g><g style="display: block;" transform="matrix(1.0556042194366455,-0.014556924812495708,0.016862882301211357,0.8693386912345886,245.97525024414062,141.5863494873047)" opacity="1"><g opacity="1" transform="matrix(1,0,0,1,86.70500183105469,93.13700103759766)"><path fill="rgb(229,149,112)" fill-opacity="1" d=" M-58.38199996948242,-16.738000869750977 C-51.05699920654297,-29.975000381469727 -37.75600051879883,-44.3129997253418 -21.93400001525879,-51.23400115966797 C-6.111000061035156,-58.15399932861328 30.91699981689453,-67.00900268554688 50.619998931884766,-32.04800033569336 C70.3239974975586,2.9130001068115234 64.56600189208984,47.13600158691406 36.38600158691406,58.57600021362305 C15.61299991607666,67.01000213623047 -7.7270002365112305,59.73899841308594 -27.31399917602539,53.07400131225586 C-39.58399963378906,48.89899826049805 -53.4640007019043,40.15599822998047 -59.42399978637695,31.409000396728516 C-70.3239974975586,15.409000396728516 -65.53299713134766,-3.815000057220459 -58.38199996948242,-16.738000869750977z"></path></g><g opacity="1" transform="matrix(1,0,0,1,85.95700073242188,84.875)"><path fill="rgb(198,219,226)" fill-opacity="1" d=" M-52.24300003051758,-15.321000099182129 C-45.65999984741211,-27.56100082397461 -33.722999572753906,-40.82899856567383 -19.541000366210938,-47.249000549316406 C-5.357999801635742,-53.66899871826172 27.81999969482422,-61.9119987487793 45.40800094604492,-29.650999069213867 C62.994998931884766,2.6110000610351562 60.98099899291992,47.979000091552734 35.72200012207031,58.595001220703125 C17.104000091552734,66.4209976196289 -8.333000183105469,62.41999816894531 -21.76799964904785,56.595001220703125 C-32.439998626708984,51.96799850463867 -50.430999755859375,40.16999816894531 -55.755001068115234,32.099998474121094 C-65.48999786376953,17.34000015258789 -58.66999816894531,-3.371999979019165 -52.24300003051758,-15.321000099182129z"></path><path stroke-linecap="butt" stroke-linejoin="miter" fill-opacity="0" stroke-miterlimit="10" stroke="rgb(101,61,109)" stroke-opacity="1" stroke-width="10" d=" M-52.24300003051758,-15.321000099182129 C-45.65999984741211,-27.56100082397461 -33.722999572753906,-40.82899856567383 -19.541000366210938,-47.249000549316406 C-5.357999801635742,-53.66899871826172 27.81999969482422,-61.9119987487793 45.40800094604492,-29.650999069213867 C62.994998931884766,2.6110000610351562 60.98099899291992,47.979000091552734 35.72200012207031,58.595001220703125 C17.104000091552734,66.4209976196289 -8.333000183105469,62.41999816894531 -21.76799964904785,56.595001220703125 C-32.439998626708984,51.96799850463867 -50.430999755859375,40.16999816894531 -55.755001068115234,32.099998474121094 C-65.48999786376953,17.34000015258789 -58.66999816894531,-3.371999979019165 -52.24300003051758,-15.321000099182129z"></path></g><g opacity="1" transform="matrix(1,0,0,1,85.24800109863281,78.31700134277344)"><path fill="rgb(254,254,255)" fill-opacity="1" d=" M-45.112998962402344,-13.229999542236328 C-39.428001403808594,-23.799999237060547 -29.121000289916992,-35.255001068115234 -16.874000549316406,-40.79899978637695 C-4.626999855041504,-46.34299850463867 24.023000717163086,-53.46200180053711 39.20899963378906,-25.604000091552734 C54.395999908447266,2.253999948501587 49.87799835205078,37.53799819946289 28.066999435424805,46.70500183105469 C11.989999771118164,53.46200180053711 -6.050000190734863,47.698001861572266 -21.18899917602539,42.4109992980957 C-30.67300033569336,39.0989990234375 -41.39400100708008,32.143001556396484 -45.9900016784668,25.174999237060547 C-54.395999908447266,12.428999900817871 -50.66299819946289,-2.9119999408721924 -45.112998962402344,-13.229999542236328z"></path></g><g opacity="1" transform="matrix(1.1100000143051147,0,0,1.1100000143051147,28.330852508544922,8.895355224609375)"><g opacity="1" transform="matrix(1,0,0,1,56.99300003051758,78.6259994506836)"><path fill="rgb(7,2,20)" fill-opacity="1" d=" M-14.270000457763672,-13.673999786376953 C-18.229000091552734,-8.949000358581543 -23.204999923706055,0.460999995470047 -16.628000259399414,10.70300006866455 C-8.477999687194824,23.39699935913086 8.057999610900879,21.77899932861328 15.635000228881836,12.262999534606934 C23.204999923706055,2.759999990463257 21.96299934387207,-11.810999870300293 8.5649995803833,-19.05299949645996 C0.5289999842643738,-23.39699935913086 -9.814000129699707,-18.989999771118164 -14.270000457763672,-13.673999786376953z"></path></g><g opacity="1" transform="matrix(1,0,0,1,51.069000244140625,82.96800231933594)"><path fill="rgb(45,34,44)" fill-opacity="1" d=" M-10.152999877929688,-6.257999897003174 C-11.57699966430664,-3.134999990463257 -11.526000022888184,1.4739999771118164 -6.739999771118164,6.675000190734863 C-1.9539999961853027,11.875 5,10.251999855041504 7.111999988555908,9.11299991607666 C10.347000122070312,7.366000175476074 11.57699966430664,4.196000099182129 9.348999977111816,0.8370000123977661 C7.119999885559082,-2.5209999084472656 3.3420000076293945,-6.589000225067139 0.824999988079071,-9.180000305175781 C-1.7929999828338623,-11.875 -4.185999870300293,-11.109000205993652 -5.258999824523926,-10.748000144958496 C-7.574999809265137,-9.968999862670898 -9.59000015258789,-7.49399995803833 -10.152999877929688,-6.257999897003174z"></path></g><g opacity="1" transform="matrix(1.1399999856948853,0,0,1.1399999856948853,66.40499877929688,92.89399719238281)"><path fill="rgb(254,254,255)" fill-opacity="1" d=" M-5.126999855041504,0.8920000195503235 C-4.952000141143799,2.5390000343322754 -3.7230000495910645,4.718999862670898 -0.4740000069141388,5.169000148773193 C2.869999885559082,5.631999969482422 5.323999881744385,3.263000011444092 5.160999774932861,-0.5649999976158142 C5.020999908447266,-3.8350000381469727 0.7900000214576721,-5.631999969482422 -1.9809999465942383,-4.508999824523926 C-4.361999988555908,-3.5439999103546143 -5.323999881744385,-0.9610000252723694 -5.126999855041504,0.8920000195503235z"></path></g><g opacity="1" transform="matrix(1,0,0,1,41.32600021362305,73.27899932861328)"><path fill="rgb(254,254,255)" fill-opacity="1" d=" M-7.0289998054504395,0.9589999914169312 C-6.789999961853027,3.2130000591278076 -5.105999946594238,6.196000099182129 -0.6589999794960022,6.813000202178955 C3.9170000553131104,7.447000026702881 7.276000022888184,4.203000068664551 7.052000045776367,-1.0360000133514404 C6.861999988555908,-5.511000156402588 1.0700000524520874,-7.9710001945495605 -2.7219998836517334,-6.434000015258789 C-5.98199987411499,-5.111999988555908 -7.297999858856201,-1.5770000219345093 -7.0289998054504395,0.9589999914169312z"></path></g></g><g opacity="1" transform="matrix(1,0,0,1,85.44000244140625,54.279998779296875)"><path fill="url(#__lottie_element_16)" fill-opacity="1" d=" M-56.40299987792969,32.95399856567383 C-56.40299987792969,32.95399856567383 -32.65399932861328,33.10100173950195 -1.5529999732971191,33.34600067138672 C29.56100082397461,33.590999603271484 56.12200164794922,36.55099868774414 56.12200164794922,36.55099868774414 C56.12200164794922,36.55099868774414 46.474998474121094,-6.208000183105469 33.01499938964844,-16.979999542236328 C20.452999114990234,-27.034000396728516 12.680999755859375,-27.822999954223633 1.9470000267028809,-25.81999969482422 C-13.27299976348877,-22.979999542236328 -28.30299949645996,-12.543999671936035 -36.10599899291992,-4.245999813079834 C-51.40999984741211,12.029000282287598 -56.08700180053711,28.378999710083008 -56.08700180053711,28.378999710083008"></path><path stroke-linecap="round" stroke-linejoin="round" fill-opacity="0" stroke="rgb(168,82,39)" stroke-opacity="1" stroke-width="11.353" d=" M-56.40299987792969,32.95399856567383 C-56.40299987792969,32.95399856567383 -32.65399932861328,33.10100173950195 -1.5529999732971191,33.34600067138672 C29.56100082397461,33.590999603271484 56.12200164794922,36.55099868774414 56.12200164794922,36.55099868774414 C56.12200164794922,36.55099868774414 46.474998474121094,-6.208000183105469 33.01499938964844,-16.979999542236328 C20.452999114990234,-27.034000396728516 12.680999755859375,-27.822999954223633 1.9470000267028809,-25.81999969482422 C-13.27299976348877,-22.979999542236328 -28.30299949645996,-12.543999671936035 -36.10599899291992,-4.245999813079834 C-51.40999984741211,12.029000282287598 -56.08700180053711,28.378999710083008 -56.08700180053711,28.378999710083008"></path></g></g></g></svg>