<svg xmlns="http://www.w3.org/2000/svg" xmlns:xlink="http://www.w3.org/1999/xlink" viewBox="0 0 512 512" width="512" height="512" style="width: 100%; height: 100%; transform: translate3d(0,0,0); content-visibility: visible;" preserveAspectRatio="xMidYMid meet"><defs><clipPath id="__lottie_element_2"><rect width="512" height="512" x="0" y="0"></rect></clipPath><radialGradient id="__lottie_element_8" spreadMethod="pad" gradientUnits="userSpaceOnUse" cx="-44" cy="-128" r="259.84800720214844" fx="-44" fy="-128"><stop offset="0%" stop-color="rgb(255,235,221)"></stop><stop offset="50%" stop-color="rgb(250,210,180)"></stop><stop offset="100%" stop-color="rgb(245,185,138)"></stop></radialGradient><radialGradient id="__lottie_element_9" spreadMethod="pad" gradientUnits="userSpaceOnUse" cx="-52" cy="-136" r="357.50412039481756" fx="-52" fy="-136"><stop offset="0%" stop-color="rgb(206,122,85)" stop-opacity="0"></stop><stop offset="49%" stop-color="rgb(202,119,82)" stop-opacity="0.5"></stop><stop offset="98%" stop-color="rgb(199,115,78)" stop-opacity="1"></stop></radialGradient></defs><g clip-path="url(#__lottie_element_2)"><g style="display: block;" transform="matrix(1,0,0,1,251.25584411621094,263.9537048339844)" opacity="1"><g opacity="1" transform="matrix(1,0,0,1,0,0)"><path fill="url(#__lottie_element_8)" fill-opacity="1" d=" M16.055999755859375,-206.85800170898438 C-34.75,-232.58200073242188 -120.86699676513672,-200.375 -156.30099487304688,-163.19000244140625 C-193.4040069580078,-124.25299835205078 -212.07000732421875,-112.93699645996094 -206.73199462890625,-58.16400146484375 C-203.3040008544922,-22.990999221801758 -115.30599975585938,341.468994140625 160.83599853515625,156.1790008544922 C205.73800659179688,126.05000305175781 307.56201171875,-59.2599983215332 16.055999755859375,-206.85800170898438z"></path><path stroke-linecap="butt" stroke-linejoin="miter" fill-opacity="0" stroke-miterlimit="10" stroke="rgb(170,86,67)" stroke-opacity="1" stroke-width="13.647" d=" M16.055999755859375,-206.85800170898438 C-34.75,-232.58200073242188 -120.86699676513672,-200.375 -156.30099487304688,-163.19000244140625 C-193.4040069580078,-124.25299835205078 -212.07000732421875,-112.93699645996094 -206.73199462890625,-58.16400146484375 C-203.3040008544922,-22.990999221801758 -115.30599975585938,341.468994140625 160.83599853515625,156.1790008544922 C205.73800659179688,126.05000305175781 307.56201171875,-59.2599983215332 16.055999755859375,-206.85800170898438z"></path></g><g opacity="0.77" transform="matrix(1,0,0,1,0,0)"><path stroke-linecap="round" stroke-linejoin="round" fill-opacity="0" stroke="rgb(181,97,72)" stroke-opacity="1" stroke-width="12" d=" M144.6490020751953,54.58399963378906 C140.03799438476562,122.28500366210938 48.202999114990234,120.08499908447266 48.202999114990234,120.08499908447266"></path></g><g opacity="0.56" transform="matrix(1,0,0,1,0,0)"><path stroke-linecap="round" stroke-linejoin="round" fill-opacity="0" stroke="rgb(181,97,72)" stroke-opacity="1" stroke-width="12" d=" M181.31900024414062,20.649999618530273 C184.31700134277344,165.82699584960938 18.764999389648438,153.1020050048828 18.764999389648438,153.1020050048828"></path></g><g opacity="0.7000000000000001" transform="matrix(1,0,0,1,0,0)"><path fill="url(#__lottie_element_9)" fill-opacity="1" d=" M-160.2100067138672,-150.11500549316406 C-225.81399536132812,-65.21700286865234 -94.79199981689453,240.99000549316406 100.86299896240234,165.14300537109375 C211.52499389648438,122.24400329589844 208.41200256347656,23.113000869750977 208.41200256347656,23.113000869750977 C257.3349914550781,158.28199768066406 14.42300033569336,260.2239990234375 -81.35900115966797,174.68299865722656 C-198.69900512695312,69.88899993896484 -209.4459991455078,-71.12300109863281 -205.34100341796875,-92.46900177001953 C-201.23599243164062,-113.81500244140625 -160.2100067138672,-150.11500549316406 -160.2100067138672,-150.11500549316406z"></path></g></g><g style="display: block;" transform="matrix(1,0,0,1,251.2554931640625,263.9538879394531)" opacity="1"><g opacity="0.72" transform="matrix(1,0,0,1,0,0)"><path stroke-linecap="round" stroke-linejoin="round" fill-opacity="0" stroke="rgb(181,97,72)" stroke-opacity="1" stroke-width="12" d=" M110.5770034790039,-47.79100036621094 C149.25599670410156,-19.554000854492188 140.75399780273438,22.41699981689453 140.75399780273438,22.41699981689453"></path></g><g opacity="0.72" transform="matrix(1,0,0,1,0,0)"><path stroke-linecap="round" stroke-linejoin="round" fill-opacity="0" stroke="rgb(181,97,72)" stroke-opacity="1" stroke-width="12" d=" M34.244998931884766,1.8849999904632568 C34.244998931884766,1.8849999904632568 62.84000015258789,-12.845999717712402 81.28900146484375,-7.553999900817871"></path></g><g opacity="0.67" transform="matrix(1,0,0,1,0,0)"><path fill="rgb(200,124,91)" fill-opacity="1" d=" M-22.756000518798828,17.94099998474121 C-23.5310001373291,7.716000080108643 -2.5390000343322754,-27.016000747680664 24.457000732421875,-44.29499816894531 C104.34100341796875,-95.42500305175781 95.96900177001953,-58.8650016784668 93.66799926757812,-57.17100143432617 C91.36699676513672,-55.47700119018555 27.30900001525879,-38.49300003051758 -22.756000518798828,17.94099998474121z"></path></g><g opacity="1" transform="matrix(1,0,0,1,0,0)"><path stroke-linecap="round" stroke-linejoin="round" fill-opacity="0" stroke="rgb(124,57,46)" stroke-opacity="1" stroke-width="15" d=" M-19.19099998474121,16.750999450683594 C-19.19099998474121,16.750999450683594 22.361000061035156,-42.792999267578125 95.83899688720703,-58.834999084472656"></path></g><g opacity="0.01" transform="matrix(1,0,0,1,0,0)"><path fill="rgb(61,0,0)" fill-opacity="1" d=" M69.46399688720703,-26.305999755859375 C64.36000061035156,-26.32200050354004 44.07600021362305,-17.80500030517578 36.3120002746582,-3.7660000324249268 C46.96500015258789,-14.437000274658203 63.56100082397461,-22.589000701904297 69.46399688720703,-26.305999755859375z"></path><path stroke-linecap="round" stroke-linejoin="round" fill-opacity="0" stroke="rgb(124,57,46)" stroke-opacity="1" stroke-width="12" d=" M69.46399688720703,-26.305999755859375 C64.36000061035156,-26.32200050354004 44.07600021362305,-17.80500030517578 36.3120002746582,-3.7660000324249268 C46.96500015258789,-14.437000274658203 63.56100082397461,-22.589000701904297 69.46399688720703,-26.305999755859375z"></path></g></g><g style="display: block;" transform="matrix(1,0,0,1,251.255615234375,263.9542541503906)" opacity="1"><g opacity="1" transform="matrix(1,0,0,1,0,0)"><g opacity="0.67" transform="matrix(1,0,0,1,0,0)"><path stroke-linecap="round" stroke-linejoin="round" fill-opacity="0" stroke="rgb(181,95,72)" stroke-opacity="1" stroke-width="10" d=" M-17.44300079345703,-98.66799926757812 C-3.2130000591278076,-73.41899871826172 -11.220000267028809,-54.32600021362305 -11.220000267028809,-54.32600021362305"></path></g><g opacity="0.67" transform="matrix(1,0,0,1,0,0)"><path stroke-linecap="round" stroke-linejoin="round" fill-opacity="0" stroke="rgb(200,124,91)" stroke-opacity="1" stroke-width="10" d=" M21.52899932861328,-87.5780029296875 C21.52899932861328,-87.5780029296875 36.470001220703125,-76.81600189208984 45.73500061035156,-77.65799713134766"></path></g><g opacity="0.67" transform="matrix(1,0,0,1,0,0)"><path stroke-linecap="round" stroke-linejoin="round" fill-opacity="0" stroke="rgb(200,124,91)" stroke-opacity="1" stroke-width="10" d=" M112.1780014038086,-103.2030029296875 C88.66600036621094,-92.58200073242188 83.71199798583984,-80.29299926757812 83.71199798583984,-80.29299926757812"></path></g><g opacity="0.67" transform="matrix(1,0,0,1,0,0)"><path stroke-linecap="round" stroke-linejoin="round" fill-opacity="0" stroke="rgb(181,95,72)" stroke-opacity="1" stroke-width="10" d=" M-146.47300720214844,-8.789999961853027 C-129.197998046875,16.40399932861328 -106.05699920654297,9.880999565124512 -106.05699920654297,9.880999565124512"></path></g><g opacity="0.67" transform="matrix(1,0,0,1,0,0)"><path stroke-linecap="round" stroke-linejoin="round" fill-opacity="0" stroke="rgb(181,95,72)" stroke-opacity="1" stroke-width="10" d=" M105.3949966430664,-145.8159942626953 C105.3949966430664,-145.8159942626953 117.63500213623047,-142.15499877929688 113.45500183105469,-124.07599639892578"></path></g><g opacity="1" transform="matrix(1,0,0,1,0,0)"><path fill="rgb(224,147,117)" fill-opacity="1" d=" M-143.156005859375,-65.03099822998047 C-147.89199829101562,-59.19200134277344 -151.36099243164062,-23.64699935913086 -123.85199737548828,2.0409998893737793 C-99.73300170898438,24.56399917602539 -51.48699951171875,20.674999237060547 -31.017000198364258,0.45399999618530273 C-10.54699993133545,-19.767000198364258 -7.814000129699707,-42.20899963378906 -14.557000160217285,-66.59200286865234 C-21.65999984741211,-92.2760009765625 -45.01100158691406,-116.37000274658203 -53.840999603271484,-115.78199768066406 C-62.67100143432617,-115.19400024414062 -112.98899841308594,-102.2229995727539 -143.156005859375,-65.03099822998047z"></path></g><g opacity="1" transform="matrix(1,0,0,1,0,0)"><path fill="rgb(224,147,117)" fill-opacity="1" d=" M3.015000104904175,-131.05299377441406 C3.3919999599456787,-122.16999816894531 8.637999534606934,-102.84300231933594 19.82699966430664,-93.55000305175781 C38.31399917602539,-78.19499969482422 75.87100219726562,-77.38099670410156 92.73400115966797,-90.25499725341797 C128.75,-117.75 96.22799682617188,-179.02099609375 68.5719985961914,-179.52699279785156 C62.2599983215332,-179.64199829101562 2.1440000534057617,-151.5800018310547 3.015000104904175,-131.05299377441406z"></path></g></g><g opacity="1" transform="matrix(1,0,0,1,0,0)"><path fill="rgb(187,215,234)" fill-opacity="1" d=" M-143.17100524902344,-48.56800079345703 C-144.18699645996094,-18.128000259399414 -97.61699676513672,24.145999908447266 -47.72700119018555,-1.9160000085830688 C5.459000110626221,-29.700000762939453 -24.145999908447266,-102.48899841308594 -52.013999938964844,-107.35099792480469 C-77.04499816894531,-111.71800231933594 -142.17999267578125,-78.27100372314453 -143.17100524902344,-48.56800079345703z"></path><path stroke-linecap="butt" stroke-linejoin="miter" fill-opacity="0" stroke-miterlimit="10" stroke="rgb(104,58,42)" stroke-opacity="1" stroke-width="10" d=" M-143.17100524902344,-48.56800079345703 C-144.18699645996094,-18.128000259399414 -97.61699676513672,24.145999908447266 -47.72700119018555,-1.9160000085830688 C5.459000110626221,-29.700000762939453 -24.145999908447266,-102.48899841308594 -52.013999938964844,-107.35099792480469 C-77.04499816894531,-111.71800231933594 -142.17999267578125,-78.27100372314453 -143.17100524902344,-48.56800079345703z"></path></g><g opacity="1" transform="matrix(0.9992200136184692,0,0,0.9998700022697449,0,0)"><path fill="rgb(255,255,255)" fill-opacity="1" d=" M-127.63300323486328,-38.37799835205078 C-109.8239974975586,9 -63.047000885009766,-10.390999794006348 -46.3129997253418,-25.87700080871582 C-29.57900047302246,-41.362998962402344 -24.184999465942383,-74.91600036621094 -45.14799880981445,-89.14399719238281 C-53.76100158691406,-94.98999786376953 -135.7989959716797,-60.10300064086914 -127.63300323486328,-38.37799835205078z"></path></g><g opacity="1" transform="matrix(1,0,0,1,0,0)"><path fill="rgb(187,215,234)" fill-opacity="1" d=" M13.409000396728516,-127.3030014038086 C12.977999687194824,-142.03900146484375 63.380001068115234,-177.27200317382812 75.98300170898438,-171.85000610351562 C89,-166.25 116.25,-132.75 92.89299774169922,-103.5770034790039 C77.64199829101562,-84.5270004272461 14.75,-81.5 13.409000396728516,-127.3030014038086z"></path><path stroke-linecap="butt" stroke-linejoin="miter" fill-opacity="0" stroke-miterlimit="10" stroke="rgb(104,58,42)" stroke-opacity="1" stroke-width="10" d=" M13.409000396728516,-127.3030014038086 C12.977999687194824,-142.03900146484375 63.380001068115234,-177.27200317382812 75.98300170898438,-171.85000610351562 C89,-166.25 116.25,-132.75 92.89299774169922,-103.5770034790039 C77.64199829101562,-84.5270004272461 14.75,-81.5 13.409000396728516,-127.3030014038086z"></path></g><g opacity="1" transform="matrix(1,0,0,1,0,0)"><path fill="rgb(255,255,255)" fill-opacity="1" d=" M75.1729965209961,-156.7030029296875 C79.77799987792969,-156.1219940185547 98.93399810791016,-142.19400024414062 88.39199829101562,-120.54199981689453 C78.30599975585938,-99.82599639892578 38.46900177001953,-102.76000213623047 29.979000091552734,-116.927001953125 C16.75,-139 68.27200317382812,-157.572998046875 75.1729965209961,-156.7030029296875z"></path></g><g opacity="1" transform="matrix(1,0,0,1,0,0)"><g opacity="1" transform="matrix(1,0,0,1,0,0)"><g opacity="1" transform="matrix(1,0,0,1,0,0)"><path fill="rgb(3,2,3)" fill-opacity="1" d=" M-38.80099868774414,-37.62200164794922 C-35.749000549316406,-32.433998107910156 -37.89899826049805,-21.375 -45.46099853515625,-16.927000045776367 C-53.02299880981445,-12.479000091552734 -63.1349983215332,-16.32699966430664 -66.18599700927734,-21.514999389648438 C-69.23799896240234,-26.702999114990234 -73.3949966430664,-35.13399887084961 -61.43000030517578,-43.904998779296875 C-49.82500076293945,-52.4109992980957 -41.85300064086914,-42.810001373291016 -38.80099868774414,-37.62200164794922z"></path></g><g opacity="1" transform="matrix(1,0,0,1,0,0)"><path fill="rgb(255,255,255)" fill-opacity="1" d=" M-59.676998138427734,-23.687999725341797 C-59.676998138427734,-23.687999725341797 -60.16400146484375,-29.426000595092773 -64.9000015258789,-30.76099967956543 C-69.63600158691406,-32.09600067138672 -69.75599670410156,-28.035999298095703 -68.09300231933594,-24.45800018310547 C-66.43000030517578,-20.8799991607666 -62.073001861572266,-20.42099952697754 -60.869998931884766,-21.364999771118164 C-59.66699981689453,-22.30900001525879 -59.676998138427734,-23.687999725341797 -59.676998138427734,-23.687999725341797z"></path></g></g><g opacity="1" transform="matrix(1,0,0,1,0,0)"><g opacity="1" transform="matrix(1,0,0,1,0,0)"><path fill="rgb(3,2,3)" fill-opacity="1" d=" M90.9280014038086,-117.08200073242188 C93.90499877929688,-112.98200225830078 93.61799621582031,-103.05899810791016 87.7490005493164,-98.7979965209961 C81.87999725341797,-94.53700256347656 73.85299682617188,-97.20500183105469 70.8759994506836,-101.30500030517578 C67.89900207519531,-105.40499877929688 64.48600006103516,-113.81999969482422 71.65699768066406,-119.03299713134766 C81.6989974975586,-126.33200073242188 87.95099639892578,-121.18199920654297 90.9280014038086,-117.08200073242188z"></path></g><g opacity="1" transform="matrix(1,0,0,1,0,0)"><path fill="rgb(255,255,255)" fill-opacity="1" d=" M74.15499877929688,-103.46199798583984 C74.15499877929688,-103.46199798583984 73.8010025024414,-107.3949966430664 70.36799621582031,-108.30999755859375 C66.93499755859375,-109.2249984741211 66.84700012207031,-106.44200134277344 68.0530014038086,-103.98999786376953 C69.25900268554688,-101.53800201416016 72.41799926757812,-101.2229995727539 73.29000091552734,-101.87000274658203 C74.16200256347656,-102.51699829101562 74.15499877929688,-103.46199798583984 74.15499877929688,-103.46199798583984z"></path></g></g></g></g><g style="display: block;" transform="matrix(1,0,0,1,251.25547790527344,263.95391845703125)" opacity="1"><g opacity="0.67" transform="matrix(1,0,0,1,0,0)"><path stroke-linecap="round" stroke-linejoin="round" fill-opacity="0" stroke="rgb(200,124,91)" stroke-opacity="1" stroke-width="9.098" d=" M-88.05999755859375,-145.71499633789062 C-64.93800354003906,-168.77099609375 -33.38100051879883,-171.0399932861328 -5.5370001792907715,-182.4600067138672"></path></g><g opacity="0.67" transform="matrix(1,0,0,1,0,0)"><path stroke-linecap="round" stroke-linejoin="round" fill-opacity="0" stroke="rgb(200,124,91)" stroke-opacity="1" stroke-width="9.098" d=" M-91.10900115966797,-170.74600219726562 C-84.00399780273438,-173.50799560546875 -84.71399688720703,-179.0850067138672 -49.92399978637695,-185.41700744628906"></path></g><g opacity="1" transform="matrix(1,0,0,1,0,0)"><g opacity="1" transform="matrix(1,0,0,1,0,0)"><path fill="rgb(90,51,32)" fill-opacity="1" d=" M-55.04800033569336,-133.06700134277344 C-58.18600082397461,-128.09800720214844 -61.9739990234375,-120.97899627685547 -68.73999786376953,-117.3219985961914 C-161.4709930419922,-67.197998046875 -166.06700134277344,-61.016998291015625 -161.2310028076172,-54.75400161743164 C-156.39500427246094,-48.49100112915039 -144.49200439453125,-57.07600021362305 -126.5009994506836,-64.177001953125 C-108.51000213623047,-71.27799987792969 -44.80400085449219,-103.83799743652344 -34.97200012207031,-114.02999877929688 C-16.67300033569336,-132.99899291992188 -40.53300094604492,-156.05299377441406 -55.04800033569336,-133.06700134277344z"></path><path stroke-linecap="round" stroke-linejoin="round" fill-opacity="0" stroke="rgb(56,37,30)" stroke-opacity="1" stroke-width="9.098" d=" M-55.04800033569336,-133.06700134277344 C-58.18600082397461,-128.09800720214844 -61.9739990234375,-120.97899627685547 -68.73999786376953,-117.3219985961914 C-161.4709930419922,-67.197998046875 -166.06700134277344,-61.016998291015625 -161.2310028076172,-54.75400161743164 C-156.39500427246094,-48.49100112915039 -144.49200439453125,-57.07600021362305 -126.5009994506836,-64.177001953125 C-108.51000213623047,-71.27799987792969 -44.80400085449219,-103.83799743652344 -34.97200012207031,-114.02999877929688 C-16.67300033569336,-132.99899291992188 -40.53300094604492,-156.05299377441406 -55.04800033569336,-133.06700134277344z"></path></g><g opacity="1" transform="matrix(1,0,0,1,0,0)"><path fill="rgb(90,51,32)" fill-opacity="1" d=" M8.064000129699707,-152.7429962158203 C8.064000129699707,-152.7429962158203 -2.2799999713897705,-158.61000061035156 -6.581999778747559,-156.01199340820312 C-10.883999824523926,-153.41400146484375 -11.321000099182129,-130.4320068359375 16.618999481201172,-137.18899536132812 C24.18899917602539,-139.02000427246094 68.51499938964844,-164.79200744628906 78.73999786376953,-175.031005859375 C88.96499633789062,-185.27000427246094 89.91200256347656,-188.3280029296875 85.73500061035156,-190.5760040283203 C77.27799987792969,-195.1269989013672 30.22800064086914,-157.79800415039062 8.064000129699707,-152.7429962158203z"></path><path stroke-linecap="round" stroke-linejoin="round" fill-opacity="0" stroke="rgb(56,37,30)" stroke-opacity="1" stroke-width="9.098" d=" M8.064000129699707,-152.7429962158203 C8.064000129699707,-152.7429962158203 -2.2799999713897705,-158.61000061035156 -6.581999778747559,-156.01199340820312 C-10.883999824523926,-153.41400146484375 -11.321000099182129,-130.4320068359375 16.618999481201172,-137.18899536132812 C24.18899917602539,-139.02000427246094 68.51499938964844,-164.79200744628906 78.73999786376953,-175.031005859375 C88.96499633789062,-185.27000427246094 89.91200256347656,-188.3280029296875 85.73500061035156,-190.5760040283203 C77.27799987792969,-195.1269989013672 30.22800064086914,-157.79800415039062 8.064000129699707,-152.7429962158203z"></path></g><g opacity="0.8200000000000001" transform="matrix(1,0,0,1,0,0)"><path stroke-linecap="round" stroke-linejoin="round" fill-opacity="0" stroke="rgb(200,124,91)" stroke-opacity="1" stroke-width="9.098" d=" M-35.981998443603516,-160.16799926757812 C-19.54400062561035,-151.5760040283203 -14.812000274658203,-131.65699768066406 -14.812000274658203,-131.65699768066406"></path></g><g opacity="0.67" transform="matrix(1,0,0,1,0,0)"><path stroke-linecap="round" stroke-linejoin="round" fill-opacity="0" stroke="rgb(200,124,91)" stroke-opacity="1" stroke-width="9.098" d=" M-138.6909942626953,-104.49700164794922 C-138.6909942626953,-104.49700164794922 -114.4219970703125,-117.86100006103516 -80.98100280761719,-123.44200134277344"></path></g></g></g></g></svg>