<svg xmlns="http://www.w3.org/2000/svg" xmlns:xlink="http://www.w3.org/1999/xlink" viewBox="0 0 512 512" width="512" height="512" style="width: 100%; height: 100%; transform: translate3d(0,0,0); content-visibility: visible;" preserveAspectRatio="xMidYMid meet"><defs><clipPath id="__lottie_element_2"><rect width="512" height="512" x="0" y="0"></rect></clipPath><clipPath id="__lottie_element_7"><path d="M0,0 L512,0 L512,512 L0,512z"></path></clipPath><radialGradient id="__lottie_element_29" spreadMethod="pad" gradientUnits="userSpaceOnUse"><stop></stop><stop></stop><stop></stop></radialGradient><clipPath id="__lottie_element_36"><path d="M0,0 L512,0 L512,512 L0,512z"></path></clipPath><radialGradient id="__lottie_element_58" spreadMethod="pad" gradientUnits="userSpaceOnUse" cx="-40.47100067138672" cy="-194.31300354003906" r="319.1358443487938" fx="-40.47100067138672" fy="-194.31300354003906"><stop offset="33%" stop-color="rgb(253,215,187)"></stop><stop offset="90%" stop-color="rgb(248,198,169)"></stop><stop offset="100%" stop-color="rgb(243,181,150)"></stop></radialGradient></defs><g clip-path="url(#__lottie_element_2)"><g clip-path="url(#__lottie_element_36)" style="display: block;" transform="matrix(1,0,0,1,-4,-6)" opacity="1"><g style="display: block;" transform="matrix(0.8880489468574524,0,0,0.844549298286438,34.5941162109375,48.988677978515625)" opacity="1"><g opacity="1" transform="matrix(1,0,0,1,242.8979949951172,258.4779968261719)"><path fill="rgb(242,157,113)" fill-opacity="1" d=" M-51.06999969482422,210.4969940185547 C-97.3270034790039,203.21299743652344 -160.58999633789062,200.68899536132812 -186.74400329589844,78.09200286865234 C-212.8979949951172,-44.505001068115234 -163.86000061035156,-129.50599670410156 -126.26399993896484,-168.73699951171875 C-88.66699981689453,-207.96800231933594 5.410999774932861,-228.47799682617188 66.62200164794922,-219.41000366210938 C110.75700378417969,-212.8719940185547 146.718994140625,-170.37100219726562 179.41200256347656,-65.75499725341797 C212.8979949951172,41.4010009765625 178.1490020751953,131.26300048828125 145.08399963378906,172.9010009765625 C100.9489974975586,228.47799682617188 -5.2769999504089355,217.70799255371094 -51.06999969482422,210.4969940185547z"></path><path stroke-linecap="butt" stroke-linejoin="miter" fill-opacity="0" stroke-miterlimit="10" stroke="rgb(167,85,40)" stroke-opacity="1" stroke-width="13" d=" M-51.06999969482422,210.4969940185547 C-97.3270034790039,203.21299743652344 -160.58999633789062,200.68899536132812 -186.74400329589844,78.09200286865234 C-212.8979949951172,-44.505001068115234 -163.86000061035156,-129.50599670410156 -126.26399993896484,-168.73699951171875 C-88.66699981689453,-207.96800231933594 5.410999774932861,-228.47799682617188 66.62200164794922,-219.41000366210938 C110.75700378417969,-212.8719940185547 146.718994140625,-170.37100219726562 179.41200256347656,-65.75499725341797 C212.8979949951172,41.4010009765625 178.1490020751953,131.26300048828125 145.08399963378906,172.9010009765625 C100.9489974975586,228.47799682617188 -5.2769999504089355,217.70799255371094 -51.06999969482422,210.4969940185547z"></path></g><g opacity="1" transform="matrix(1,0,0,1,241.21299743652344,250.05999755859375)"><path fill="url(#__lottie_element_58)" fill-opacity="1" d=" M-41.33399963378906,182.84100341796875 C-83.16300201416016,176.25399780273438 -136.49400329589844,173.5030059814453 -160.1439971923828,62.63999938964844 C-183.7949981689453,-48.222999572753906 -142.35899353027344,-117.11000061035156 -108.36100006103516,-152.58599853515625 C-74.36299896240234,-188.06199645996094 7.317999839782715,-209.42599487304688 62.67100143432617,-201.2259979248047 C102.58100128173828,-195.31300354003906 135.1009979248047,-156.8800048828125 164.6649932861328,-62.277000427246094 C194.9459991455078,34.62300109863281 162.0679931640625,105.55999755859375 132.16799926757812,143.21200561523438 C92.25700378417969,193.47000122070312 0.07599999755620956,189.36199951171875 -41.33399963378906,182.84100341796875z"></path></g></g><g style="display: block;" transform="matrix(0.8857808709144592,-0.003736483631655574,0.0037825508043169975,0.851643979549408,90.00259399414062,104.5408706665039)" opacity="1"><g opacity="1" transform="matrix(1,0,0,1,99.1989974975586,148.46400451660156)"><path fill="rgb(242,175,129)" fill-opacity="1" d=" M-72.51899719238281,-20.611000061035156 C-75.29399871826172,-7.421999931335449 -78.41100311279297,8.958000183105469 -68.99800109863281,33.68199920654297 C-60.40599822998047,56.249000549316406 -39.183998107910156,68.44000244140625 -10.385000228881836,65.17500305175781 C18.415000915527344,61.90999984741211 37.38999938964844,33.12699890136719 58.39400100708008,3.5199999809265137 C78.41100311279297,-24.69499969482422 60.62099838256836,-38.01100158691406 43.92599868774414,-48.768001556396484 C27.231000900268555,-59.525001525878906 -0.9580000042915344,-68.44000244140625 -27.88599967956543,-64.22100067138672 C-60.72800064086914,-59.07400131225586 -69.6760025024414,-34.125 -72.51899719238281,-20.611000061035156z"></path></g><g opacity="1" transform="matrix(1,0,0,1,99.49800109863281,135.2449951171875)"><path fill="rgb(202,202,229)" fill-opacity="1" d=" M-68.1780014038086,-17.981000900268555 C-70.66300201416016,-5.2820000648498535 -73.16500091552734,10.609000205993652 -63.57500076293945,33.56399917602539 C-54.625,54.404998779296875 -34.72100067138672,65.20500183105469 -7.798999786376953,61.21699905395508 C19.121999740600586,57.22800064086914 36.00400161743164,29.47800064086914 54.85599899291992,0.8880000114440918 C72.98200225830078,-26.35300064086914 56.165000915527344,-38.696998596191406 40.138999938964844,-48.42599868774414 C24.077999114990234,-58.15599822998047 -2.2730000019073486,-65.8239974975586 -27.413000106811523,-60.96200180053711 C-58.07500076293945,-55.03200149536133 -65.60700225830078,-31.003999710083008 -68.1780014038086,-17.981000900268555z"></path><path stroke-linecap="butt" stroke-linejoin="miter" fill-opacity="0" stroke-miterlimit="10" stroke="rgb(73,73,122)" stroke-opacity="1" stroke-width="10.567" d=" M-68.1780014038086,-17.981000900268555 C-70.66300201416016,-5.2820000648498535 -73.16500091552734,10.609000205993652 -63.57500076293945,33.56399917602539 C-54.625,54.404998779296875 -34.72100067138672,65.20500183105469 -7.798999786376953,61.21699905395508 C19.121999740600586,57.22800064086914 36.00400161743164,29.47800064086914 54.85599899291992,0.8880000114440918 C72.98200225830078,-26.35300064086914 56.165000915527344,-38.696998596191406 40.138999938964844,-48.42599868774414 C24.077999114990234,-58.15599822998047 -2.2730000019073486,-65.8239974975586 -27.413000106811523,-60.96200180053711 C-58.07500076293945,-55.03200149536133 -65.60700225830078,-31.003999710083008 -68.1780014038086,-17.981000900268555z"></path></g><g opacity="1" transform="matrix(1,0,0,1,93.41600036621094,132.5290069580078)"><path fill="rgb(255,255,255)" fill-opacity="1" d=" M-54.555999755859375,-14.654000282287598 C-56.54399871826172,-4.1529998779296875 -58.25299835205078,8.42300033569336 -50.38399887084961,27.22800064086914 C-43.150001525878906,44.374000549316406 -27.63599967956543,53.32099914550781 -6.078000068664551,50.03499984741211 C15.479999542236328,46.75 28.6299991607666,23.986000061035156 43.69900131225586,0.5230000019073486 C58.45100021362305,-21.840999603271484 45.13600158691406,-31.739999771118164 32.290000915527344,-39.7130012512207 C19.30900001525879,-47.6870002746582 -1.5980000495910645,-53.99300003051758 -21.729000091552734,-49.987998962402344 C-46.28200149536133,-45.104000091552734 -52.459999084472656,-25.461999893188477 -54.555999755859375,-14.654000282287598z"></path></g><g opacity="1" transform="matrix(1,0,0,1,0,0)"><g opacity="1" transform="matrix(1,0,0,1,267.2359924316406,110.60800170898438)"><path fill="rgb(242,175,129)" fill-opacity="1" d=" M-54.28200149536133,-30.010000228881836 C-45.051998138427734,-43.95899963378906 -25.155000686645508,-70.61100006103516 3.0899999141693115,-64.43299865722656 C31.333999633789062,-58.255001068115234 63.10900115966797,-15.005000114440918 64.8740005493164,20.301000595092773 C66.63999938964844,55.60599899291992 56.047000885009766,70.61100006103516 18.093000411987305,67.96299743652344 C-19.860000610351562,65.31500244140625 -63.108001708984375,25.59600067138672 -64.8740005493164,7.943999767303467 C-66.63899993896484,-9.708999633789062 -59.71799850463867,-21.795000076293945 -54.28200149536133,-30.010000228881836z"></path></g><g opacity="1" transform="matrix(1,0,0,1,268.8710021972656,96.98600006103516)"><path fill="rgb(202,202,229)" fill-opacity="1" d=" M-54.28200149536133,-30.010000228881836 C-45.051998138427734,-43.95899963378906 -25.1560001373291,-70.61100006103516 3.0889999866485596,-64.43299865722656 C31.33300018310547,-58.25400161743164 63.108001708984375,-15.005000114440918 64.87300109863281,20.301000595092773 C66.63899993896484,55.60599899291992 56.047000885009766,70.61100006103516 18.0939998626709,67.96299743652344 C-19.860000610351562,65.31500244140625 -63.108001708984375,25.59600067138672 -64.8740005493164,7.943999767303467 C-66.63899993896484,-9.708999633789062 -59.71799850463867,-21.795000076293945 -54.28200149536133,-30.010000228881836z"></path><path stroke-linecap="butt" stroke-linejoin="miter" fill-opacity="0" stroke-miterlimit="10" stroke="rgb(73,73,122)" stroke-opacity="1" stroke-width="10.55" d=" M-54.28200149536133,-30.010000228881836 C-45.051998138427734,-43.95899963378906 -25.1560001373291,-70.61100006103516 3.0889999866485596,-64.43299865722656 C31.33300018310547,-58.25400161743164 63.108001708984375,-15.005000114440918 64.87300109863281,20.301000595092773 C66.63899993896484,55.60599899291992 56.047000885009766,70.61100006103516 18.0939998626709,67.96299743652344 C-19.860000610351562,65.31500244140625 -63.108001708984375,25.59600067138672 -64.8740005493164,7.943999767303467 C-66.63899993896484,-9.708999633789062 -59.71799850463867,-21.795000076293945 -54.28200149536133,-30.010000228881836z"></path></g><g opacity="1" transform="matrix(1,0,0,1,270.33099365234375,93.56900024414062)"><path fill="rgb(255,255,255)" fill-opacity="1" d=" M-44.56100082397461,-26.783000946044922 C-37.23400115966797,-39.250999450683594 -21.086999893188477,-60.80099868774414 1.3350000381469727,-55.27799987792969 C23.756000518798828,-49.75600051879883 51.56800079345703,-14.017000198364258 52.96900177001953,17.540000915527344 C54.369998931884766,49.09700012207031 45.29100036621094,60.80099868774414 15.163000106811523,58.433998107910156 C-14.965999603271484,56.06800079345703 -51.56800079345703,22.91900062561035 -52.96900177001953,7.140999794006348 C-54.369998931884766,-8.637999534606934 -48.875999450683594,-19.440000534057617 -44.56100082397461,-26.783000946044922z"></path></g><g opacity="1" transform="matrix(1,0,0,1,-8,0)"><g opacity="1" transform="matrix(1,0,0,1,278.614990234375,112.83899688720703)"><path fill="rgb(11,17,35)" fill-opacity="1" d=" M-36.73899841308594,-20.007999420166016 C-42.58700180053711,-10.107999801635742 -49.09400177001953,15.977999687194824 -20.482999801635742,33.643001556396484 C-0.9589999914169312,45.698001861572266 32.74800109863281,37.314998626708984 40.63999938964844,15.324000358581543 C49.09400177001953,-8.229999542236328 41.29100036621094,-31.784000396728516 13.329999923706055,-38.32699966430664 C-18.166000366210938,-45.696998596191406 -30.43600082397461,-30.679000854492188 -36.73899841308594,-20.007999420166016z"></path></g><g opacity="1" transform="matrix(0.5099999904632568,0,0,0.5099999904632568,257.15899658203125,120.59400177001953)"><path fill="rgb(254,254,254)" fill-opacity="1" d=" M-9.54800033569336,3.13785719871521 C-15.314143180847168,12.148428916931152 -8.76628589630127,21.795429229736328 -5.569571495056152,24.318714141845703 C1.5544285774230957,29.979856491088867 14.56157112121582,32.20757293701172 16.913572311401367,26.206571578979492 C19.39457130432129,19.85957145690918 11.43742847442627,8.002285957336426 6.384142875671387,4.439285755157471 C0.18028570711612701,0.23928570747375488 -6.122000217437744,-2.217571496963501 -9.54800033569336,3.13785719871521z"></path></g><g opacity="1" transform="matrix(1,0,0,1,264.15899658203125,90.59400177001953)"><path fill="rgb(254,254,254)" fill-opacity="1" d=" M-14.119999885559082,-0.18442857265472412 C-15.866999626159668,2.5655715465545654 -21.739999771118164,14.12057113647461 -16.013856887817383,18.222713470458984 C-8.714142799377441,23.45614242553711 1.4395713806152344,14.899285316467285 5.2769999504089355,9.769143104553223 C10.158857345581055,3.3372857570648193 12.22171401977539,-5.196000099182129 3.314714193344116,-8.789856910705566 C-5.291714191436768,-12.079571723937988 -12.236000061035156,-3.1484286785125732 -14.119999885559082,-0.18442857265472412z"></path></g><g opacity="1" transform="matrix(1,0,0,1,293.8320007324219,126.46600341796875)"><path fill="rgb(61,61,142)" fill-opacity="1" d=" M-7.942333221435547,6.020166873931885 C-12.559499740600586,2.819999933242798 -10.24233341217041,-7.9695000648498535 -5.63533353805542,-11.229499816894531 C2.8456666469573975,-17.230499267578125 6.735666751861572,-25.725666046142578 13.957666397094727,-25.169666290283203 C25.435667037963867,-24.28766632080078 23.016000747680664,-1.8053333759307861 11.854499816894531,7.017333507537842 C5.4664998054504395,12.140666961669922 2.2241666316986084,13.406167030334473 -7.942333221435547,6.020166873931885z"></path></g></g><g opacity="1" transform="matrix(1,0,0,1,268.8710021972656,96.98600006103516)"><path stroke-linecap="butt" stroke-linejoin="miter" fill-opacity="0" stroke-miterlimit="10" stroke="rgb(73,73,122)" stroke-opacity="1" stroke-width="10.55" d=" M-54.28200149536133,-30.010000228881836 C-45.051998138427734,-43.95899963378906 -25.1560001373291,-70.61100006103516 3.0889999866485596,-64.43299865722656 C31.33300018310547,-58.25400161743164 63.108001708984375,-15.005000114440918 64.87300109863281,20.301000595092773 C66.63899993896484,55.60599899291992 56.047000885009766,70.61100006103516 18.0939998626709,67.96299743652344 C-19.860000610351562,65.31500244140625 -63.108001708984375,25.59600067138672 -64.8740005493164,7.943999767303467 C-66.63899993896484,-9.708999633789062 -59.71799850463867,-21.795000076293945 -54.28200149536133,-30.010000228881836z"></path></g></g><g opacity="1" transform="matrix(1,0,0,1,-7.295997619628906,2.4210052490234375)"><g opacity="1" transform="matrix(1,0,0,1,92.42500305175781,140.54600524902344)"><path fill="rgb(11,17,35)" fill-opacity="1" d=" M-37.000999450683594,-20.027000427246094 C-42.88999938964844,-10.118000030517578 -49.44499969482422,15.993000030517578 -20.6299991607666,33.67499923706055 C-0.9660000205039978,45.74100112915039 32.98099899291992,37.349998474121094 40.93000030517578,15.338000297546387 C49.444000244140625,-8.23799991607666 41.584999084472656,-31.81399917602539 13.425000190734863,-38.362998962402344 C-18.29599952697754,-45.7400016784668 -30.652999877929688,-30.70800018310547 -37.000999450683594,-20.027000427246094z"></path></g><g opacity="1" transform="matrix(1,0,0,1,76.2760009765625,115.54199981689453)"><path fill="rgb(254,254,254)" fill-opacity="1" d=" M-12.095999717712402,-3.5260000228881836 C-14.020000457763672,-0.6819999814033508 -20.43000030517578,11.23900032043457 -11.017000198364258,16.31399917602539 C-4.593999862670898,19.777999877929688 11.82800006866455,12.946999549865723 14.423999786376953,6.629000186920166 C17.204999923706055,-0.1379999965429306 18.895000457763672,-8.553999900817871 9.696000099182129,-10.432999610900879 C-0.6660000085830688,-12.550999641418457 -10.022000312805176,-6.5920000076293945 -12.095999717712402,-3.5260000228881836z"></path></g><g opacity="1" transform="matrix(1,0,0,1,65.1259994506836,150.2760009765625)"><path fill="rgb(254,254,254)" fill-opacity="1" d=" M-6.341000080108643,-2.1331429481506348 C-8.064000129699707,-0.1931428611278534 -6.818142890930176,5.401857376098633 -2.552142858505249,10.901857376098633 C0.3588571548461914,14.653857231140137 7.216856956481934,15.946714401245117 10.084856986999512,11.37071418762207 C13.15685749053955,6.469714164733887 11.811857223510742,-1.1984286308288574 6.966856956481934,-4.141428470611572 C1.510857105255127,-7.456428527832031 -4.484000205993652,-4.224143028259277 -6.341000080108643,-2.1331429481506348z"></path></g><g opacity="1" transform="matrix(1,0,0,1,107.71499633789062,152.98500061035156)"><path fill="rgb(61,61,142)" fill-opacity="1" d=" M-6.377286911010742,8.144983291625977 C-11.740286827087402,5.92198371887207 -13.328422546386719,-3.9859557151794434 -8.688987731933594,-9.11079216003418 C-1.337563157081604,-16.555259704589844 7.680848121643066,-25.7384090423584 15.110848426818848,-25.167409896850586 C26.917848587036133,-24.25840950012207 24.406831741333008,-0.6495591998100281 11.083273887634277,8.01745319366455 C4.106557846069336,12.684814453125 -0.6792869567871094,10.506983757019043 -6.377286911010742,8.144983291625977z"></path></g></g><g opacity="1" transform="matrix(1,0,0,1,249.1909942626953,121.77899932861328)"><path fill="rgb(254,254,254)" fill-opacity="1" d="M0 0"></path></g><g opacity="0" transform="matrix(1,0,0,1,99.49800109863281,135.2449951171875)"><path fill="rgb(253,215,187)" fill-opacity="1" d=" M-68.1780014038086,-17.981000900268555 C-70.66300201416016,-5.2820000648498535 -64.47699737548828,-7.1539998054504395 -69.50700378417969,10.979999542236328 C-60.55699920654297,31.820999145507812 -90.90299987792969,-54.4379997253418 -22.850000381469727,-61.38399887084961 C32.74399948120117,-67.05799865722656 56.89400100708008,-37.125 63.59400177001953,-24.20599937438965 C65.9540023803711,-19.655000686645508 63.96699905395508,-25.047000885009766 63.250999450683594,-23.684999465942383 C59.97700119018555,-31.729999542236328 56.165000915527344,-38.696998596191406 40.138999938964844,-48.42599868774414 C24.077999114990234,-58.15599822998047 -2.2730000019073486,-65.8239974975586 -27.413000106811523,-60.96200180053711 C-58.07500076293945,-55.03200149536133 -65.60700225830078,-31.003999710083008 -68.1780014038086,-17.981000900268555z"></path><path stroke-linecap="round" stroke-linejoin="round" fill-opacity="0" stroke="rgb(167,85,40)" stroke-opacity="1" stroke-width="12" d=" M-68.1780014038086,-17.981000900268555 C-70.66300201416016,-5.2820000648498535 -64.47699737548828,-7.1539998054504395 -69.50700378417969,10.979999542236328 C-60.55699920654297,31.820999145507812 -90.90299987792969,-54.4379997253418 -22.850000381469727,-61.38399887084961 C32.74399948120117,-67.05799865722656 56.89400100708008,-37.125 63.59400177001953,-24.20599937438965 C65.9540023803711,-19.655000686645508 63.96699905395508,-25.047000885009766 63.250999450683594,-23.684999465942383 C59.97700119018555,-31.729999542236328 56.165000915527344,-38.696998596191406 40.138999938964844,-48.42599868774414 C24.077999114990234,-58.15599822998047 -2.2730000019073486,-65.8239974975586 -27.413000106811523,-60.96200180053711 C-58.07500076293945,-55.03200149536133 -65.60700225830078,-31.003999710083008 -68.1780014038086,-17.981000900268555z"></path></g><g opacity="0" transform="matrix(1,0,0,1,0,0)"><path fill="rgb(253,215,187)" fill-opacity="1" d=" M261.02099609375,31.158000946044922 C242.42100524902344,33.63999938964844 233.83700561523438,43.85599899291992 221.7239990234375,56.619998931884766 C209.61099243164062,69.38400268554688 202.99400329589844,89.3499984741211 204.93800354003906,104.73999786376953 C207.9969940185547,128.96099853515625 190.4759979248047,79.55500030517578 230.79600524902344,49.994998931884766 C270.0880126953125,21.18899917602539 285.4219970703125,35.599998474121094 299.6369934082031,47.73400115966797 C314.8900146484375,60.75400161743164 332.6400146484375,99.11499786376953 317.625,70.88400268554688 C300.6789855957031,39.02199935913086 279.6210021972656,28.676000595092773 261.02099609375,31.158000946044922z"></path><path stroke-linecap="butt" stroke-linejoin="miter" fill-opacity="0" stroke-miterlimit="4" stroke="rgb(163,88,48)" stroke-opacity="1" stroke-width="12" d=" M261.02099609375,31.158000946044922 C242.42100524902344,33.63999938964844 233.83700561523438,43.85599899291992 221.7239990234375,56.619998931884766 C209.61099243164062,69.38400268554688 202.99400329589844,89.3499984741211 204.93800354003906,104.73999786376953 C207.9969940185547,128.96099853515625 190.4759979248047,79.55500030517578 230.79600524902344,49.994998931884766 C270.0880126953125,21.18899917602539 285.4219970703125,35.599998474121094 299.6369934082031,47.73400115966797 C314.8900146484375,60.75400161743164 332.6400146484375,99.11499786376953 317.625,70.88400268554688 C300.6789855957031,39.02199935913086 279.6210021972656,28.676000595092773 261.02099609375,31.158000946044922z"></path></g></g><g style="display: block;" transform="matrix(0.8666024804115295,0,0,0.844549298286438,180.77000427246094,236.35888671875)" opacity="1"><g opacity="1" transform="matrix(1.1318180561065674,0,0,1.0977046489715576,-10.678024291992188,-5.37347412109375)"><g opacity="1" transform="matrix(0.9781189560890198,0,0,0.9582966566085815,103.66500091552734,99.83000183105469)"><path fill="rgb(68,32,18)" fill-opacity="1" d=" M-67.46682739257812,-35.340396881103516 C-53.48318862915039,-45.77824783325195 -38.582740783691406,-48.41436004638672 3.7772579193115234,-57.33435821533203 C50.106258392333984,-67.19136047363281 59.47323989868164,-68.30799865722656 66.91824340820312,-56.76899719238281 C73.91123962402344,-46.3339958190918 69.70604705810547,-16.871360778808594 55.81924057006836,6.902570724487305 C40.1236572265625,32.65346908569336 20.000024795532227,48.7395133972168 -11.06812858581543,37.45777130126953 C-45.184818267822266,25.80975341796875 -63.218116760253906,-1.5671453475952148 -68.74528503417969,-10.531519889831543 C-74.85408020019531,-21.251066207885742 -74.91972351074219,-29.783485412597656 -67.46682739257812,-35.340396881103516z"></path><path stroke-linecap="round" stroke-linejoin="round" fill-opacity="0" stroke="rgb(135,61,41)" stroke-opacity="1" stroke-width="10" d=" M-67.46682739257812,-35.340396881103516 C-53.48318862915039,-45.77824783325195 -38.582740783691406,-48.41436004638672 3.7772579193115234,-57.33435821533203 C50.106258392333984,-67.19136047363281 59.47323989868164,-68.30799865722656 66.91824340820312,-56.76899719238281 C73.91123962402344,-46.3339958190918 69.70604705810547,-16.871360778808594 55.81924057006836,6.902570724487305 C40.1236572265625,32.65346908569336 20.000024795532227,48.7395133972168 -11.06812858581543,37.45777130126953 C-45.184818267822266,25.80975341796875 -63.218116760253906,-1.5671453475952148 -68.74528503417969,-10.531519889831543 C-74.85408020019531,-21.251066207885742 -74.91972351074219,-29.783485412597656 -67.46682739257812,-35.340396881103516z"></path></g><g opacity="1" transform="matrix(1,0,0,1,93.72000122070312,82.21199798583984)"><path fill="rgb(35,14,7)" fill-opacity="1" d=" M-33.326744079589844,27.596881866455078 C-33.326744079589844,27.596881866455078 -41.87213897705078,-13.7133207321167 -1.091138243675232,-21.005319595336914 C33.328861236572266,-27.068321228027344 49.94149398803711,-5.890498161315918 50.392494201660156,8.368501663208008 C50.77449417114258,18.19750213623047 17.979862213134766,29.972896575927734 17.979862213134766,29.972896575927734 C17.979862213134766,29.972896575927734 -33.326744079589844,27.596881866455078 -33.326744079589844,27.596881866455078z"></path></g><g opacity="1" transform="matrix(1.0434303283691406,-0.05264300853013992,0.04334355890750885,0.8591071963310242,-11.351951599121094,3.9149322509765625)"><g opacity="1" transform="matrix(1,0,0,1,109.65799713134766,127.4739990234375)"><path fill="rgb(244,71,108)" fill-opacity="1" d=" M-53.36262130737305,-5.6970343589782715 C-53.36262130737305,-5.6970343589782715 -44.06034469604492,-13.162310600280762 -27.265207290649414,-12.296551704406738 C-12.187000274658203,-11.980206489562988 -0.2321724146604538,-7.590000152587891 -0.2321724146604538,-7.590000152587891 C-0.2321724146604538,-7.590000152587891 14.861000061035156,-18.972896575927734 29.623966217041016,-18.539724349975586 C48.12713623046875,-17.192861557006836 51.65403366088867,-8.585379600524902 51.65403366088867,-8.585379600524902 C51.65403366088867,-8.585379600524902 42.510276794433594,16.967792510986328 26.12996482849121,27.681793212890625 C9.29072380065918,38.74555206298828 -8.70317268371582,33.112518310546875 -27.3099308013916,22.28748321533203 C-46.92182922363281,10.165862083435059 -53.36262130737305,-5.6970343589782715 -53.36262130737305,-5.6970343589782715z"></path><path stroke-linecap="round" stroke-linejoin="round" fill-opacity="0" stroke="rgb(170,39,77)" stroke-opacity="1" stroke-width="10" d=" M-53.36262130737305,-5.6970343589782715 C-53.36262130737305,-5.6970343589782715 -44.06034469604492,-13.162310600280762 -27.265207290649414,-12.296551704406738 C-12.187000274658203,-11.980206489562988 -0.2321724146604538,-7.590000152587891 -0.2321724146604538,-7.590000152587891 C-0.2321724146604538,-7.590000152587891 14.861000061035156,-18.972896575927734 29.623966217041016,-18.539724349975586 C48.12713623046875,-17.192861557006836 51.65403366088867,-8.585379600524902 51.65403366088867,-8.585379600524902 C51.65403366088867,-8.585379600524902 42.510276794433594,16.967792510986328 26.12996482849121,27.681793212890625 C9.29072380065918,38.74555206298828 -8.70317268371582,33.112518310546875 -27.3099308013916,22.28748321533203 C-46.92182922363281,10.165862083435059 -53.36262130737305,-5.6970343589782715 -53.36262130737305,-5.6970343589782715z"></path></g><g opacity="0.62" transform="matrix(1,0,0,1,114.24500274658203,116.9020004272461)"><path stroke-linecap="round" stroke-linejoin="round" fill-opacity="0" stroke="rgb(170,39,77)" stroke-opacity="1" stroke-width="10" d=" M-7.847128868103027,1.4523507356643677 C-7.847128868103027,1.4523507356643677 -3.3888189792633057,4.729298114776611 -1.4229782819747925,10.716212272644043 C2.361210584640503,19.795669555664062 3.5819129943847656,25.34480094909668 3.5819129943847656,25.34480094909668"></path></g><g opacity="1" transform="matrix(1,0,0,1,94.58999633789062,123.35099792480469)"><path fill="rgb(255,125,162)" fill-opacity="1" d=" M-4.808993816375732,0.17752313613891602 C1.6487685441970825,1.2487553358078003 9.117992401123047,2.4054346084594727 10.65660572052002,7.477954864501953 C12.780189514160156,15.310517311096191 10.667252540588379,21.264728546142578 3.1845805644989014,19.502593994140625 C-2.3675339221954346,18.358001708984375 -15.043610572814941,10.849505424499512 -16.427610397338867,5.503505706787109 C-17.07196807861328,0.8984076380729675 -7.578365325927734,0.12610308825969696 -4.808993816375732,0.17752313613891602z"></path></g><g opacity="1" transform="matrix(1,0,0,1,136.42599487304688,122.1760025024414)"><path fill="rgb(255,125,162)" fill-opacity="1" d=" M-6.197896957397461,-2.4776105880737305 C3.0710649490356445,-4.498627185821533 8.582938194274902,-1.2731635570526123 8.14762020111084,4.157603740692139 C7.696266174316406,9.775300025939941 3.2081329822540283,15.669896125793457 -3.8475635051727295,15.381874084472656 C-11.447457313537598,15.181605339050293 -11.938461303710938,11.822531700134277 -13.051240921020508,8.535073280334473 C-15.203300476074219,4.891709804534912 -11.825897216796875,-2.242610454559326 -6.197896957397461,-2.4776105880737305z"></path></g></g><g opacity="1" transform="matrix(1,0,0,1,0.590179443359375,0.13665008544921875)"><g opacity="1" transform="matrix(1,0,0,1,40.88600158691406,68.1729965209961)"><path fill="rgb(255,255,255)" fill-opacity="1" d=" M-9.267760276794434,11.994426727294922 C-9.267760276794434,11.994426727294922 -5.907946586608887,17.270666122436523 1.0250533819198608,18.385665893554688 C7.958053112030029,19.500667572021484 8.645026206970215,12.449573516845703 9.797026634216309,8.681572914123535 C11.801026344299316,2.127573251724243 15.212706565856934,-8.942373275756836 15.093707084655762,-9.438373565673828 C14.973706245422363,-9.93337345123291 4.295746803283691,-4.563119888305664 -2.756253242492676,-2.209120035171509 C-9.808253288269043,0.1438799947500229 -9.772480010986328,7.524960041046143 -9.89247989654541,8.267959594726562 C-10.012479782104492,9.01095962524414 -9.267760276794434,11.994426727294922 -9.267760276794434,11.994426727294922z"></path><path stroke-linecap="round" stroke-linejoin="round" fill-opacity="0" stroke="rgb(106,131,168)" stroke-opacity="1" stroke-width="7" d=" M-9.267760276794434,11.994426727294922 C-9.267760276794434,11.994426727294922 -5.907946586608887,17.270666122436523 1.0250533819198608,18.385665893554688 C7.958053112030029,19.500667572021484 8.645026206970215,12.449573516845703 9.797026634216309,8.681572914123535 C11.801026344299316,2.127573251724243 15.212706565856934,-8.942373275756836 15.093707084655762,-9.438373565673828 C14.973706245422363,-9.93337345123291 4.295746803283691,-4.563119888305664 -2.756253242492676,-2.209120035171509 C-9.808253288269043,0.1438799947500229 -9.772480010986328,7.524960041046143 -9.89247989654541,8.267959594726562 C-10.012479782104492,9.01095962524414 -9.267760276794434,11.994426727294922 -9.267760276794434,11.994426727294922z"></path></g><g opacity="1" transform="matrix(1,0,0,1,102.02999877929688,52.606998443603516)"><path fill="rgb(255,255,255)" fill-opacity="1" d=" M-42.89110565185547,10.931053161621094 C-42.89110565185547,10.931053161621094 -31.160160064697266,21.856266021728516 -26.43716049194336,23.672266006469727 C-21.715160369873047,25.489267349243164 -14.760760307312012,11.706480026245117 -14.760760307312012,11.706480026245117 C-14.760760307312012,11.706480026245117 -9.895000457763672,19.498266220092773 -4.083000183105469,20.224266052246094 C1.7289999723434448,20.95126724243164 11.01789379119873,3.672053337097168 11.01789379119873,3.672053337097168 C11.01789379119873,3.672053337097168 18.387266159057617,13.306572914123535 27.105266571044922,14.396573066711426 C35.823265075683594,15.486573219299316 40.0778923034668,2.9460532665252686 41.16789245605469,0.403053343296051 C42.256893157958984,-2.139946699142456 43.73026657104492,-12.477133750915527 43.73026657104492,-12.477133750915527 C43.73026657104492,-12.477133750915527 25.837892532348633,-11.283093452453613 6.9488935470581055,-8.014093399047852 C-11.940106391906738,-4.74509334564209 -32.12650680541992,1.6953333616256714 -32.12650680541992,1.6953333616256714 C-32.12650680541992,1.6953333616256714 -44.66010665893555,5.484613418579102 -44.66010665893555,5.484613418579102"></path><path stroke-linecap="round" stroke-linejoin="round" fill-opacity="0" stroke="rgb(106,131,168)" stroke-opacity="1" stroke-width="7" d=" M-42.89110565185547,10.931053161621094 C-42.89110565185547,10.931053161621094 -31.160160064697266,21.856266021728516 -26.43716049194336,23.672266006469727 C-21.715160369873047,25.489267349243164 -14.760760307312012,11.706480026245117 -14.760760307312012,11.706480026245117 C-14.760760307312012,11.706480026245117 -9.895000457763672,19.498266220092773 -4.083000183105469,20.224266052246094 C1.7289999723434448,20.95126724243164 11.01789379119873,3.672053337097168 11.01789379119873,3.672053337097168 C11.01789379119873,3.672053337097168 18.387266159057617,13.306572914123535 27.105266571044922,14.396573066711426 C35.823265075683594,15.486573219299316 40.0778923034668,2.9460532665252686 41.16789245605469,0.403053343296051 C42.256893157958984,-2.139946699142456 43.73026657104492,-12.477133750915527 43.73026657104492,-12.477133750915527 C43.73026657104492,-12.477133750915527 25.837892532348633,-11.283093452453613 6.9488935470581055,-8.014093399047852 C-11.940106391906738,-4.74509334564209 -32.12650680541992,1.6953333616256714 -32.12650680541992,1.6953333616256714 C-32.12650680541992,1.6953333616256714 -44.66010665893555,5.484613418579102 -44.66010665893555,5.484613418579102"></path></g><g opacity="1" transform="matrix(1,0,0,1,163.05599975585938,46.340999603271484)"><path fill="rgb(255,255,255)" fill-opacity="1" d=" M-12.983893394470215,-5.880653381347656 C-12.983893394470215,-5.880653381347656 -10.585840225219727,5.615506649017334 -8.22484016418457,10.882506370544434 C-5.862840175628662,16.149507522583008 -4.954840183258057,16.694507598876953 -2.412839889526367,15.604506492614746 C0.13016000390052795,14.514506340026855 7.399946689605713,8.34497356414795 7.399946689605713,8.34497356414795 C7.399946689605713,8.34497356414795 9.888306617736816,2.327906608581543 3.350306749343872,-2.9390933513641357 C-3.1886932849884033,-8.206093788146973 -13.492493629455566,-6.083119869232178 -13.492493629455566,-6.083119869232178"></path><path stroke-linecap="round" stroke-linejoin="round" fill-opacity="0" stroke="rgb(106,131,168)" stroke-opacity="1" stroke-width="7" d=" M-12.983893394470215,-5.880653381347656 C-12.983893394470215,-5.880653381347656 -10.585840225219727,5.615506649017334 -8.22484016418457,10.882506370544434 C-5.862840175628662,16.149507522583008 -4.954840183258057,16.694507598876953 -2.412839889526367,15.604506492614746 C0.13016000390052795,14.514506340026855 7.399946689605713,8.34497356414795 7.399946689605713,8.34497356414795 C7.399946689605713,8.34497356414795 9.888306617736816,2.327906608581543 3.350306749343872,-2.9390933513641357 C-3.1886932849884033,-8.206093788146973 -13.492493629455566,-6.083119869232178 -13.492493629455566,-6.083119869232178"></path></g></g><g opacity="1" transform="matrix(0.9781189560890198,0,0,0.9582966566085815,103.66500091552734,99.83000183105469)"><path stroke-linecap="round" stroke-linejoin="round" fill-opacity="0" stroke="rgb(135,61,41)" stroke-opacity="1" stroke-width="11.883333333333333" d=" M-67.46682739257812,-35.340396881103516 C-53.48318862915039,-45.77824783325195 -38.582740783691406,-48.41436004638672 3.7772579193115234,-57.33435821533203 C50.106258392333984,-67.19136047363281 59.47323989868164,-68.30799865722656 66.91824340820312,-56.76899719238281 C73.91123962402344,-46.3339958190918 69.70604705810547,-16.871360778808594 55.81924057006836,6.902570724487305 C40.1236572265625,32.65346908569336 20.000024795532227,48.7395133972168 -11.06812858581543,37.45777130126953 C-45.184818267822266,25.80975341796875 -63.218116760253906,-1.5671453475952148 -68.74528503417969,-10.531519889831543 C-74.85408020019531,-21.251066207885742 -74.91972351074219,-29.783485412597656 -67.46682739257812,-35.340396881103516z"></path></g></g></g><g style="display: block;" transform="matrix(0.8920481204986572,-0.13859182596206665,0.12439484149217606,0.9884802103042603,288.308837890625,244.49269104003906)" opacity="1"><g opacity="1" transform="matrix(1,0,0,1,0,0)"><path fill="rgb(255,213,186)" fill-opacity="1" d=" M143.281005859375,-78.51899719238281 C135.427001953125,-80.34200286865234 130.4080047607422,-75.50499725341797 129.2469940185547,-66.6780014038086 C127.81999969482422,-55.82600021362305 127.95700073242188,-48.2130012512207 127.45700073242188,-35.7130012512207 C126.95700073242188,-23.21299934387207 128.36900329589844,-5.144999980926514 142.86900329589844,5.855000019073486 C157.36900329589844,16.854999542236328 192.4459991455078,22.22599983215332 204.4459991455078,16.72599983215332 C216.4459991455078,11.22599983215332 231.3800048828125,-6.24399995803833 237.5,-20.5 C241.86599731445312,-30.670000076293945 233.5,-50.5 222.5,-55 C211.5,-59.5 179,-69 176.5,-69 C174,-69 171.99099731445312,-51.3129997253418 166.99099731445312,-50.3129997253418 C161.8719940185547,-49.28900146484375 160.5850067138672,-47.51900100708008 160.5850067138672,-47.51900100708008 C160.5850067138672,-47.51900100708008 155.33700561523438,-49.922000885009766 155.21200561523438,-60.8380012512207 C155.0749969482422,-72.8479995727539 151.6269989013672,-76.58200073242188 143.281005859375,-78.51899719238281z"></path><path stroke-linecap="butt" stroke-linejoin="round" fill-opacity="0" stroke="rgb(175,90,44)" stroke-opacity="1" stroke-width="12" d=" M143.281005859375,-78.51899719238281 C135.427001953125,-80.34200286865234 130.4080047607422,-75.50499725341797 129.2469940185547,-66.6780014038086 C127.81999969482422,-55.82600021362305 127.95700073242188,-48.2130012512207 127.45700073242188,-35.7130012512207 C126.95700073242188,-23.21299934387207 128.36900329589844,-5.144999980926514 142.86900329589844,5.855000019073486 C157.36900329589844,16.854999542236328 192.4459991455078,22.22599983215332 204.4459991455078,16.72599983215332 C216.4459991455078,11.22599983215332 231.3800048828125,-6.24399995803833 237.5,-20.5 C241.86599731445312,-30.670000076293945 233.5,-50.5 222.5,-55 C211.5,-59.5 179,-69 176.5,-69 C174,-69 171.99099731445312,-51.3129997253418 166.99099731445312,-50.3129997253418 C161.8719940185547,-49.28900146484375 160.5850067138672,-47.51900100708008 160.5850067138672,-47.51900100708008 C160.5850067138672,-47.51900100708008 155.33700561523438,-49.922000885009766 155.21200561523438,-60.8380012512207 C155.0749969482422,-72.8479995727539 151.6269989013672,-76.58200073242188 143.281005859375,-78.51899719238281z"></path></g></g><g style="display: block;" transform="matrix(-0.8216681480407715,-0.044922951608896255,-0.04361987113952637,0.9849803447723389,215.32833862304688,258.34405517578125)" opacity="1"><g opacity="1" transform="matrix(1,0,0,1,0,0)"><path fill="rgb(255,213,186)" fill-opacity="1" d=" M143.281005859375,-78.51899719238281 C135.427001953125,-80.34200286865234 130.4080047607422,-75.50499725341797 129.2469940185547,-66.6780014038086 C127.81999969482422,-55.82600021362305 127.95700073242188,-48.2130012512207 127.45700073242188,-35.7130012512207 C126.95700073242188,-23.21299934387207 128.36900329589844,-5.144999980926514 142.86900329589844,5.855000019073486 C157.36900329589844,16.854999542236328 192.4459991455078,22.22599983215332 204.4459991455078,16.72599983215332 C216.4459991455078,11.22599983215332 231.3800048828125,-6.24399995803833 237.5,-20.5 C241.86599731445312,-30.670000076293945 233.5,-50.5 222.5,-55 C211.5,-59.5 179,-69 176.5,-69 C174,-69 171.99099731445312,-51.3129997253418 166.99099731445312,-50.3129997253418 C161.8719940185547,-49.28900146484375 160.5850067138672,-47.51900100708008 160.5850067138672,-47.51900100708008 C160.5850067138672,-47.51900100708008 155.33700561523438,-49.922000885009766 155.21200561523438,-60.8380012512207 C155.0749969482422,-72.8479995727539 151.6269989013672,-76.58200073242188 143.281005859375,-78.51899719238281z"></path><path stroke-linecap="butt" stroke-linejoin="round" fill-opacity="0" stroke="rgb(175,90,44)" stroke-opacity="1" stroke-width="12" d=" M143.281005859375,-78.51899719238281 C135.427001953125,-80.34200286865234 130.4080047607422,-75.50499725341797 129.2469940185547,-66.6780014038086 C127.81999969482422,-55.82600021362305 127.95700073242188,-48.2130012512207 127.45700073242188,-35.7130012512207 C126.95700073242188,-23.21299934387207 128.36900329589844,-5.144999980926514 142.86900329589844,5.855000019073486 C157.36900329589844,16.854999542236328 192.4459991455078,22.22599983215332 204.4459991455078,16.72599983215332 C216.4459991455078,11.22599983215332 231.3800048828125,-6.24399995803833 237.5,-20.5 C241.86599731445312,-30.670000076293945 233.5,-50.5 222.5,-55 C211.5,-59.5 179,-69 176.5,-69 C174,-69 171.99099731445312,-51.3129997253418 166.99099731445312,-50.3129997253418 C161.8719940185547,-49.28900146484375 160.5850067138672,-47.51900100708008 160.5850067138672,-47.51900100708008 C160.5850067138672,-47.51900100708008 155.33700561523438,-49.922000885009766 155.21200561523438,-60.8380012512207 C155.0749969482422,-72.8479995727539 151.6269989013672,-76.58200073242188 143.281005859375,-78.51899719238281z"></path></g></g><g style="display: block;" transform="matrix(0.8920481204986572,-0.13859182596206665,0.12439484149217606,0.9884802103042603,288.308837890625,244.49269104003906)" opacity="1"><g opacity="1" transform="matrix(0.8866931200027466,0.24910461902618408,-0.25382697582244873,0.9035024046897888,46.92649841308594,-15.124826431274414)"><path fill="rgb(255,213,186)" fill-opacity="1" d=" M190.09300231933594,-114.572998046875 C183.13600158691406,-113.65299987792969 177.20799255371094,-105.95700073242188 174.5,-93.5 C169.5,-70.5 168,-56 168,-56 C168,-56 175.22799682617188,-45.14400100708008 185.5,-46 C197.5,-47 197,-56 197,-56 C197,-56 197.5,-58.5 199,-67.5 C200.5,-76.5 199.58099365234375,-79.01000213623047 202.67300415039062,-92.70099639892578 C206.17300415039062,-108.20099639892578 196.6739959716797,-115.44300079345703 190.09300231933594,-114.572998046875z"></path><path stroke-linecap="butt" stroke-linejoin="miter" fill-opacity="0" stroke-miterlimit="4" stroke="rgb(175,90,44)" stroke-opacity="1" stroke-width="12" d=" M190.09300231933594,-114.572998046875 C183.13600158691406,-113.65299987792969 177.20799255371094,-105.95700073242188 174.5,-93.5 C169.5,-70.5 168,-56 168,-56 C168,-56 175.22799682617188,-45.14400100708008 185.5,-46 C197.5,-47 197,-56 197,-56 C197,-56 197.5,-58.5 199,-67.5 C200.5,-76.5 199.58099365234375,-79.01000213623047 202.67300415039062,-92.70099639892578 C206.17300415039062,-108.20099639892578 196.6739959716797,-115.44300079345703 190.09300231933594,-114.572998046875z"></path></g><g opacity="1" transform="matrix(0.9827098846435547,0.1851520985364914,-0.1851520985364914,0.9827098846435547,16.881866455078125,-30.931835174560547)"><path fill="rgb(255,213,186)" fill-opacity="1" d=" M187.16600036621094,-109.7699966430664 C180.29299926757812,-108.3499984741211 176.88600158691406,-99.80400085449219 174.17799377441406,-87.34700012207031 C169.17799377441406,-64.34700012207031 168.0709991455078,-53.643001556396484 168.0709991455078,-53.643001556396484 C168.0709991455078,-53.643001556396484 175.2989959716797,-42.7869987487793 185.5709991455078,-43.643001556396484 C197.5709991455078,-44.643001556396484 197.0709991455078,-53.643001556396484 197.0709991455078,-53.643001556396484 C197.0709991455078,-53.643001556396484 197.5709991455078,-56.143001556396484 199.0709991455078,-65.14299774169922 C200.5709991455078,-74.14299774169922 200.572998046875,-74.60299682617188 203.6649932861328,-88.29399871826172 C207.1649932861328,-103.79399871826172 196.10400390625,-111.61699676513672 187.16600036621094,-109.7699966430664z"></path><path stroke-linecap="butt" stroke-linejoin="round" fill-opacity="0" stroke="rgb(175,90,44)" stroke-opacity="1" stroke-width="12" d=" M187.16600036621094,-109.7699966430664 C180.29299926757812,-108.3499984741211 176.88600158691406,-99.80400085449219 174.17799377441406,-87.34700012207031 C169.17799377441406,-64.34700012207031 168.0709991455078,-53.643001556396484 168.0709991455078,-53.643001556396484 C168.0709991455078,-53.643001556396484 175.2989959716797,-42.7869987487793 185.5709991455078,-43.643001556396484 C197.5709991455078,-44.643001556396484 197.0709991455078,-53.643001556396484 197.0709991455078,-53.643001556396484 C197.0709991455078,-53.643001556396484 197.5709991455078,-56.143001556396484 199.0709991455078,-65.14299774169922 C200.5709991455078,-74.14299774169922 200.572998046875,-74.60299682617188 203.6649932861328,-88.29399871826172 C207.1649932861328,-103.79399871826172 196.10400390625,-111.61699676513672 187.16600036621094,-109.7699966430664z"></path></g><g opacity="1" transform="matrix(0.9989824295043945,0.045101456344127655,-0.045101456344127655,0.9989824295043945,-3.5130462646484375,-6.748714447021484)"><path fill="rgb(255,213,186)" fill-opacity="1" d=" M186.76800537109375,-102.93900299072266 C179.75999450683594,-103.31700134277344 173.8679962158203,-95.4219970703125 169.8679962158203,-78.9219970703125 C164.322998046875,-56.047000885009766 167,-56 167,-56 C167,-56 175.22799682617188,-45.14400100708008 185.5,-46 C197.5,-47 192.5,-52.5 192.5,-52.5 C192.5,-52.5 193,-53.5 194.5,-62.5 C196,-71.5 195.43299865722656,-69.63700103759766 198.52499389648438,-83.3280029296875 C202.02499389648438,-98.8280029296875 196.375,-102.4209976196289 186.76800537109375,-102.93900299072266z"></path><path stroke-linecap="butt" stroke-linejoin="round" fill-opacity="0" stroke="rgb(175,90,44)" stroke-opacity="1" stroke-width="12" d=" M186.76800537109375,-102.93900299072266 C179.75999450683594,-103.31700134277344 173.8679962158203,-95.4219970703125 169.8679962158203,-78.9219970703125 C164.322998046875,-56.047000885009766 167,-56 167,-56 C167,-56 175.22799682617188,-45.14400100708008 185.5,-46 C197.5,-47 192.5,-52.5 192.5,-52.5 C192.5,-52.5 193,-53.5 194.5,-62.5 C196,-71.5 195.43299865722656,-69.63700103759766 198.52499389648438,-83.3280029296875 C202.02499389648438,-98.8280029296875 196.375,-102.4209976196289 186.76800537109375,-102.93900299072266z"></path></g><g opacity="1" transform="matrix(1,0,0,1,0,0)"><path fill="rgb(255,213,186)" fill-opacity="1" d=" M201.7010040283203,-64.40499877929688 C201.7010040283203,-64.40499877929688 199.68600463867188,-54.540000915527344 194.49200439453125,-55.22999954223633 C189.79600524902344,-55.854000091552734 188.18499755859375,-58.46200180053711 187.63800048828125,-60.349998474121094 C187.3040008544922,-61.50299835205078 187.3679962158203,-62.387001037597656 187.3679962158203,-62.387001037597656 C187.3679962158203,-62.387001037597656 173.1820068359375,-63.40700149536133 173.1820068359375,-63.40700149536133 C173.1820068359375,-63.40700149536133 171.97000122070312,-57.650001525878906 170.0050048828125,-52.41999816894531 C164.68600463867188,-38.257999420166016 151.68499755859375,-49.15399932861328 151.8179931640625,-45.191001892089844 C152.02499389648438,-39.00299835205078 185.69700622558594,-25.58799934387207 185.69700622558594,-25.58799934387207 C185.69700622558594,-25.58799934387207 160.95399475097656,-12.265000343322754 160.95399475097656,-12.265000343322754 C160.95399475097656,-12.265000343322754 177.0540008544922,3.61299991607666 187.44200134277344,4.992000102996826 C197.8300018310547,6.370999813079834 207.11700439453125,7.2179999351501465 207.11700439453125,7.2179999351501465 C207.11700439453125,7.2179999351501465 215.72500610351562,1.281000018119812 215.72500610351562,1.281000018119812 C215.72500610351562,1.281000018119812 222.0679931640625,-3.38100004196167 228.61300659179688,-13.494999885559082 C232.41200256347656,-19.364999771118164 235.48899841308594,-26.94700050354004 235.48899841308594,-26.94700050354004 C235.48899841308594,-26.94700050354004 239.1999969482422,-37.21699905395508 239.33700561523438,-41.00600051879883 C239.46299743652344,-44.4900016784668 229.2519989013672,-50.99100112915039 229.2519989013672,-50.99100112915039 C229.2519989013672,-50.99100112915039 226.57899475097656,-43.19599914550781 219.9600067138672,-45.382999420166016 C213.12600708007812,-47.64099884033203 217.36300659179688,-57.25199890136719 217.36300659179688,-57.25199890136719 C217.36300659179688,-57.25199890136719 201.7010040283203,-64.40499877929688 201.7010040283203,-64.40499877929688z"></path></g><g opacity="1" transform="matrix(1,0,0,1,0,0)"><path stroke-linecap="round" stroke-linejoin="round" fill-opacity="0" stroke="rgb(236,162,123)" stroke-opacity="1" stroke-width="12" d=" M170.8939971923828,-34.47100067138672 C170.8939971923828,-34.47100067138672 181.9409942626953,-29.079999923706055 188.11199951171875,-21.344999313354492 C194.2830047607422,-13.609999656677246 194.39700317382812,-3.1989998817443848 194.39700317382812,-3.1989998817443848"></path></g></g><g style="display: block;" transform="matrix(-0.8216681480407715,-0.044922951608896255,-0.04361987113952637,0.9849803447723389,215.32833862304688,258.34405517578125)" opacity="1"><g opacity="1" transform="matrix(0.8866931200027466,0.24910461902618408,-0.25382697582244873,0.9035024046897888,46.92649841308594,-15.124826431274414)"><path fill="rgb(255,213,186)" fill-opacity="1" d=" M190.09300231933594,-114.572998046875 C183.13600158691406,-113.65299987792969 177.20799255371094,-105.95700073242188 174.5,-93.5 C169.5,-70.5 168,-56 168,-56 C168,-56 175.22799682617188,-45.14400100708008 185.5,-46 C197.5,-47 197,-56 197,-56 C197,-56 197.5,-58.5 199,-67.5 C200.5,-76.5 199.58099365234375,-79.01000213623047 202.67300415039062,-92.70099639892578 C206.17300415039062,-108.20099639892578 196.6739959716797,-115.44300079345703 190.09300231933594,-114.572998046875z"></path><path stroke-linecap="butt" stroke-linejoin="miter" fill-opacity="0" stroke-miterlimit="4" stroke="rgb(175,90,44)" stroke-opacity="1" stroke-width="12" d=" M190.09300231933594,-114.572998046875 C183.13600158691406,-113.65299987792969 177.20799255371094,-105.95700073242188 174.5,-93.5 C169.5,-70.5 168,-56 168,-56 C168,-56 175.22799682617188,-45.14400100708008 185.5,-46 C197.5,-47 197,-56 197,-56 C197,-56 197.5,-58.5 199,-67.5 C200.5,-76.5 199.58099365234375,-79.01000213623047 202.67300415039062,-92.70099639892578 C206.17300415039062,-108.20099639892578 196.6739959716797,-115.44300079345703 190.09300231933594,-114.572998046875z"></path></g><g opacity="1" transform="matrix(0.9827098846435547,0.1851520985364914,-0.1851520985364914,0.9827098846435547,16.881866455078125,-30.931835174560547)"><path fill="rgb(255,213,186)" fill-opacity="1" d=" M187.16600036621094,-109.7699966430664 C180.29299926757812,-108.3499984741211 176.88600158691406,-99.80400085449219 174.17799377441406,-87.34700012207031 C169.17799377441406,-64.34700012207031 168.0709991455078,-53.643001556396484 168.0709991455078,-53.643001556396484 C168.0709991455078,-53.643001556396484 175.2989959716797,-42.7869987487793 185.5709991455078,-43.643001556396484 C197.5709991455078,-44.643001556396484 197.0709991455078,-53.643001556396484 197.0709991455078,-53.643001556396484 C197.0709991455078,-53.643001556396484 197.5709991455078,-56.143001556396484 199.0709991455078,-65.14299774169922 C200.5709991455078,-74.14299774169922 200.572998046875,-74.60299682617188 203.6649932861328,-88.29399871826172 C207.1649932861328,-103.79399871826172 196.10400390625,-111.61699676513672 187.16600036621094,-109.7699966430664z"></path><path stroke-linecap="butt" stroke-linejoin="round" fill-opacity="0" stroke="rgb(175,90,44)" stroke-opacity="1" stroke-width="12" d=" M187.16600036621094,-109.7699966430664 C180.29299926757812,-108.3499984741211 176.88600158691406,-99.80400085449219 174.17799377441406,-87.34700012207031 C169.17799377441406,-64.34700012207031 168.0709991455078,-53.643001556396484 168.0709991455078,-53.643001556396484 C168.0709991455078,-53.643001556396484 175.2989959716797,-42.7869987487793 185.5709991455078,-43.643001556396484 C197.5709991455078,-44.643001556396484 197.0709991455078,-53.643001556396484 197.0709991455078,-53.643001556396484 C197.0709991455078,-53.643001556396484 197.5709991455078,-56.143001556396484 199.0709991455078,-65.14299774169922 C200.5709991455078,-74.14299774169922 200.572998046875,-74.60299682617188 203.6649932861328,-88.29399871826172 C207.1649932861328,-103.79399871826172 196.10400390625,-111.61699676513672 187.16600036621094,-109.7699966430664z"></path></g><g opacity="1" transform="matrix(0.9989824295043945,0.045101456344127655,-0.045101456344127655,0.9989824295043945,-3.5130462646484375,-6.748714447021484)"><path fill="rgb(255,213,186)" fill-opacity="1" d=" M186.76800537109375,-102.93900299072266 C179.75999450683594,-103.31700134277344 173.8679962158203,-95.4219970703125 169.8679962158203,-78.9219970703125 C164.322998046875,-56.047000885009766 167,-56 167,-56 C167,-56 175.22799682617188,-45.14400100708008 185.5,-46 C197.5,-47 192.5,-52.5 192.5,-52.5 C192.5,-52.5 193,-53.5 194.5,-62.5 C196,-71.5 195.43299865722656,-69.63700103759766 198.52499389648438,-83.3280029296875 C202.02499389648438,-98.8280029296875 196.375,-102.4209976196289 186.76800537109375,-102.93900299072266z"></path><path stroke-linecap="butt" stroke-linejoin="round" fill-opacity="0" stroke="rgb(175,90,44)" stroke-opacity="1" stroke-width="12" d=" M186.76800537109375,-102.93900299072266 C179.75999450683594,-103.31700134277344 173.8679962158203,-95.4219970703125 169.8679962158203,-78.9219970703125 C164.322998046875,-56.047000885009766 167,-56 167,-56 C167,-56 175.22799682617188,-45.14400100708008 185.5,-46 C197.5,-47 192.5,-52.5 192.5,-52.5 C192.5,-52.5 193,-53.5 194.5,-62.5 C196,-71.5 195.43299865722656,-69.63700103759766 198.52499389648438,-83.3280029296875 C202.02499389648438,-98.8280029296875 196.375,-102.4209976196289 186.76800537109375,-102.93900299072266z"></path></g><g opacity="1" transform="matrix(1,0,0,1,0,0)"><path fill="rgb(255,213,186)" fill-opacity="1" d=" M201.7010040283203,-64.40499877929688 C201.7010040283203,-64.40499877929688 199.68600463867188,-54.540000915527344 194.49200439453125,-55.22999954223633 C189.79600524902344,-55.854000091552734 188.18499755859375,-58.46200180053711 187.63800048828125,-60.349998474121094 C187.3040008544922,-61.50299835205078 187.3679962158203,-62.387001037597656 187.3679962158203,-62.387001037597656 C187.3679962158203,-62.387001037597656 173.1820068359375,-63.40700149536133 173.1820068359375,-63.40700149536133 C173.1820068359375,-63.40700149536133 171.97000122070312,-57.650001525878906 170.0050048828125,-52.41999816894531 C164.68600463867188,-38.257999420166016 151.68499755859375,-49.15399932861328 151.8179931640625,-45.191001892089844 C152.02499389648438,-39.00299835205078 185.69700622558594,-25.58799934387207 185.69700622558594,-25.58799934387207 C185.69700622558594,-25.58799934387207 160.95399475097656,-12.265000343322754 160.95399475097656,-12.265000343322754 C160.95399475097656,-12.265000343322754 177.0540008544922,3.61299991607666 187.44200134277344,4.992000102996826 C197.8300018310547,6.370999813079834 207.11700439453125,7.2179999351501465 207.11700439453125,7.2179999351501465 C207.11700439453125,7.2179999351501465 215.72500610351562,1.281000018119812 215.72500610351562,1.281000018119812 C215.72500610351562,1.281000018119812 222.0679931640625,-3.38100004196167 228.61300659179688,-13.494999885559082 C232.41200256347656,-19.364999771118164 235.48899841308594,-26.94700050354004 235.48899841308594,-26.94700050354004 C235.48899841308594,-26.94700050354004 239.1999969482422,-37.21699905395508 239.33700561523438,-41.00600051879883 C239.46299743652344,-44.4900016784668 229.2519989013672,-50.99100112915039 229.2519989013672,-50.99100112915039 C229.2519989013672,-50.99100112915039 226.57899475097656,-43.19599914550781 219.9600067138672,-45.382999420166016 C213.12600708007812,-47.64099884033203 217.36300659179688,-57.25199890136719 217.36300659179688,-57.25199890136719 C217.36300659179688,-57.25199890136719 201.7010040283203,-64.40499877929688 201.7010040283203,-64.40499877929688z"></path></g><g opacity="1" transform="matrix(1,0,0,1,0,0)"><path fill="rgb(255,213,186)" fill-opacity="1" d=" M165.93800354003906,-32.69900131225586 C165.93800354003906,-32.69900131225586 176.46200561523438,-24.604999542236328 181.5489959716797,-17.266000747680664 C186.63600158691406,-9.927000045776367 187.33900451660156,-0.25 187.33900451660156,-0.25"></path><path stroke-linecap="round" stroke-linejoin="round" fill-opacity="0" stroke="rgb(236,162,123)" stroke-opacity="1" stroke-width="12" d=" M165.93800354003906,-32.69900131225586 C165.93800354003906,-32.69900131225586 176.46200561523438,-24.604999542236328 181.5489959716797,-17.266000747680664 C186.63600158691406,-9.927000045776367 187.33900451660156,-0.25 187.33900451660156,-0.25"></path></g></g></g><g clip-path="url(#__lottie_element_7)" style="display: none;"><g style="display: none;"><g><path></path><path stroke-linecap="butt" stroke-linejoin="miter" fill-opacity="0" stroke-miterlimit="10"></path></g><g><path fill="url(#__lottie_element_29)"></path></g></g><g style="display: none;"><g><path></path></g><g><path></path><path stroke-linecap="butt" stroke-linejoin="miter" fill-opacity="0" stroke-miterlimit="10"></path></g><g><path></path></g><g><g><path></path></g><g><path></path><path stroke-linecap="butt" stroke-linejoin="miter" fill-opacity="0" stroke-miterlimit="10"></path></g><g><path></path></g><g><g><path></path></g><g><path></path></g><g><path></path></g><g><path></path></g></g><g><path stroke-linecap="butt" stroke-linejoin="miter" fill-opacity="0" stroke-miterlimit="10"></path></g></g><g><g><path></path></g><g><path></path></g><g><path></path></g><g><path></path></g></g><g><path></path></g><g><path></path><path stroke-linecap="round" stroke-linejoin="round" fill-opacity="0"></path></g><g><path></path><path stroke-linecap="butt" stroke-linejoin="miter" fill-opacity="0" stroke-miterlimit="4"></path></g></g><g style="display: none;"><g><g><path></path><path stroke-linecap="round" stroke-linejoin="round" fill-opacity="0"></path></g><g><path></path></g><g><g><path></path><path stroke-linecap="round" stroke-linejoin="round" fill-opacity="0"></path></g><g><path stroke-linecap="round" stroke-linejoin="round" fill-opacity="0"></path></g><g><path></path></g><g><path></path></g></g><g><g><path></path><path stroke-linecap="round" stroke-linejoin="round" fill-opacity="0"></path></g><g><path></path><path stroke-linecap="round" stroke-linejoin="round" fill-opacity="0"></path></g><g><path></path><path stroke-linecap="round" stroke-linejoin="round" fill-opacity="0"></path></g></g><g><path stroke-linecap="round" stroke-linejoin="round" fill-opacity="0"></path></g></g></g><g style="display: none;"><g><path></path><path stroke-linecap="butt" stroke-linejoin="round" fill-opacity="0"></path></g></g><g style="display: none;"><g><path></path><path stroke-linecap="butt" stroke-linejoin="round" fill-opacity="0"></path></g></g><g style="display: none;"><g><path></path><path stroke-linecap="butt" stroke-linejoin="miter" fill-opacity="0" stroke-miterlimit="4"></path></g><g><path></path><path stroke-linecap="butt" stroke-linejoin="round" fill-opacity="0"></path></g><g><path></path><path stroke-linecap="butt" stroke-linejoin="round" fill-opacity="0"></path></g><g><path></path></g><g><path stroke-linecap="round" stroke-linejoin="round" fill-opacity="0"></path></g></g><g style="display: none;"><g><path></path><path stroke-linecap="butt" stroke-linejoin="miter" fill-opacity="0" stroke-miterlimit="4"></path></g><g><path></path><path stroke-linecap="butt" stroke-linejoin="round" fill-opacity="0"></path></g><g><path></path><path stroke-linecap="butt" stroke-linejoin="round" fill-opacity="0"></path></g><g><path></path></g><g><path></path><path stroke-linecap="round" stroke-linejoin="round" fill-opacity="0"></path></g></g></g><g style="display: block;" transform="matrix(1,0,0,1,256,256)" opacity="1"></g></g></svg>