<svg xmlns="http://www.w3.org/2000/svg" xmlns:xlink="http://www.w3.org/1999/xlink" viewBox="0 0 512 512" width="512" height="512" style="width: 100%; height: 100%; transform: translate3d(0,0,0); content-visibility: visible;" preserveAspectRatio="xMidYMid meet"><defs><clipPath id="__lottie_element_2"><rect width="512" height="512" x="0" y="0"></rect></clipPath><clipPath id="__lottie_element_19"><path d="M0,0 L512,0 L512,512 L0,512z"></path></clipPath><radialGradient id="__lottie_element_40" spreadMethod="pad" gradientUnits="userSpaceOnUse"><stop></stop><stop></stop><stop></stop></radialGradient><clipPath id="__lottie_element_55"><path d="M0,0 L512,0 L512,512 L0,512z"></path></clipPath><radialGradient id="__lottie_element_76" spreadMethod="pad" gradientUnits="userSpaceOnUse" cx="-50.29499816894531" cy="-120.46800231933594" r="213.141729945924" fx="-50.29499816894531" fy="-120.46800231933594"><stop offset="33%" stop-color="rgb(255,215,183)"></stop><stop offset="90%" stop-color="rgb(251,201,164)"></stop><stop offset="100%" stop-color="rgb(247,187,146)"></stop></radialGradient></defs><g clip-path="url(#__lottie_element_2)"><g clip-path="url(#__lottie_element_55)" style="display: block;" transform="matrix(1,0,0,1,6,-42)" opacity="1"><g style="display: block;" transform="matrix(1.5079196691513062,-0.12951292097568512,0.132261261343956,1.5399186611175537,-9.464077949523926,57.3120002746582)" opacity="1"><g opacity="1" transform="matrix(1,0,0,1,137.052001953125,142.9810028076172)"><path fill="url(#__lottie_element_76)" fill-opacity="1" d=" M119.62235260009766,-6.628328323364258 C116.02635192871094,-24.014328002929688 117.31575775146484,-41.7397346496582 111.0457534790039,-60.19573211669922 C106.90579223632812,-77.18838500976562 96.88536071777344,-96.51746368408203 86.3439712524414,-105.40687561035156 C72.31497192382812,-118.1778793334961 49.25,-131.6699981689453 19.280000686645508,-130.59100341796875 C-37.150001525878906,-128.55999755859375 -60.102386474609375,-96.19309997558594 -68.50438690185547,-82.24909973144531 C-76.90438842773438,-68.30509948730469 -90.02214050292969,-39.204959869384766 -90.02214050292969,-39.204959869384766 C-90.02214050292969,-39.204959869384766 -144.1160125732422,9.532681465148926 -112.8869857788086,67.96407318115234 C-99.51395416259766,92.98590087890625 -67.60264587402344,118.53173065185547 -29.737918853759766,123.89603424072266 C-21.447978973388672,126.19879913330078 -7.091557502746582,128.14315795898438 1.3793268203735352,129.37283325195312 C30.255769729614258,133.56118774414062 50.73833084106445,129.1814727783203 78.09345245361328,117.06686401367188 C102.76278686523438,106.07022857666016 115.08829498291016,87.16902923583984 120.5645980834961,70.15206909179688 C126.80494689941406,49.32143020629883 123.86934661865234,17.692670822143555 119.62235260009766,-6.628328323364258z"></path><path stroke-linecap="butt" stroke-linejoin="miter" fill-opacity="0" stroke-miterlimit="10" stroke="rgb(178,85,45)" stroke-opacity="1" stroke-width="11" d=" M119.62235260009766,-6.628328323364258 C116.02635192871094,-24.014328002929688 117.31575775146484,-41.7397346496582 111.0457534790039,-60.19573211669922 C106.90579223632812,-77.18838500976562 96.88536071777344,-96.51746368408203 86.3439712524414,-105.40687561035156 C72.31497192382812,-118.1778793334961 49.25,-131.6699981689453 19.280000686645508,-130.59100341796875 C-37.150001525878906,-128.55999755859375 -60.102386474609375,-96.19309997558594 -68.50438690185547,-82.24909973144531 C-76.90438842773438,-68.30509948730469 -90.02214050292969,-39.204959869384766 -90.02214050292969,-39.204959869384766 C-90.02214050292969,-39.204959869384766 -144.1160125732422,9.532681465148926 -112.8869857788086,67.96407318115234 C-99.51395416259766,92.98590087890625 -67.60264587402344,118.53173065185547 -29.737918853759766,123.89603424072266 C-21.447978973388672,126.19879913330078 -7.091557502746582,128.14315795898438 1.3793268203735352,129.37283325195312 C30.255769729614258,133.56118774414062 50.73833084106445,129.1814727783203 78.09345245361328,117.06686401367188 C102.76278686523438,106.07022857666016 115.08829498291016,87.16902923583984 120.5645980834961,70.15206909179688 C126.80494689941406,49.32143020629883 123.86934661865234,17.692670822143555 119.62235260009766,-6.628328323364258z"></path></g><g opacity="1" transform="matrix(1,0,0,1,193.9510040283203,143.83999633789062)"><path fill="rgb(234,155,100)" fill-opacity="1" d=" M-7.197999954223633,-115.86900329589844 C4.583000183105469,-113.57599639892578 24.082000732421875,-98.05599975585938 27.239999771118164,-75.95099639892578 C31.054000854492188,-49.25199890136719 34.05699920654297,-36.814998626708984 36.78200149536133,-21.55900001525879 C39.505001068115234,-6.302000045776367 37.803001403808594,-5.203999996185303 39.457000732421875,24.674999237060547 C40.77899932861328,48.96799850463867 31.174999237060547,66.33399963378906 21.500999450683594,76.87999725341797 C10.446000099182129,88.93099975585938 -11.585000038146973,105.17900085449219 -27.246999740600586,111.31099700927734 C-41.9739990234375,114.9520034790039 -67.947998046875,120.83300018310547 -67.947998046875,120.83300018310547 C-67.947998046875,120.83300018310547 -11.13599967956543,131.18499755859375 27.464000701904297,105.01699829101562 C60.23899841308594,82.7969970703125 63.5099983215332,48.30500030517578 59.45500183105469,26.562000274658203 C59.87200164794922,5.160999774932861 55.89500045776367,-3.0510001182556152 51.08399963378906,-34.792999267578125 C48.51100158691406,-53.487998962402344 46.81399917602539,-114.72599792480469 -7.197999954223633,-116.41400146484375"></path></g></g><g style="display: block;" transform="matrix(0.8989521861076355,-0.08151049166917801,0.08151049166917801,0.8989521861076355,216.329833984375,267.60150146484375)" opacity="1"><g opacity="1" transform="matrix(1,0,0,1,0,0)"><path fill="rgb(250,247,244)" fill-opacity="1" d=" M-157.54600524902344,33.56700134277344 C-157.54600524902344,33.56700134277344 -176.2729949951172,77.7979965209961 -179.77699279785156,94.99800109863281 C-182.69400024414062,105.52400207519531 -187,120 -187,137 C-187,154 -180.5,233.5 -180.5,233.5 C-180.5,233.5 -178.03900146484375,235.5330047607422 -165.50100708007812,235.51699829101562 C-152.5,235.5 -158.51699829101562,233 -158.51699829101562,233 C-158.51699829101562,233 -168.4969940185547,130.01199340820312 -165.18699645996094,118.81999969482422 C-161.44700622558594,105.44499969482422 -139.54200744628906,49.20899963378906 -139.54200744628906,49.20899963378906 C-139.54200744628906,49.20899963378906 -133.802001953125,39.34000015258789 -141.9029998779297,35.979000091552734 C-153.71099853515625,30.302000045776367 -157.54600524902344,33.56700134277344 -157.54600524902344,33.56700134277344z"></path><path stroke-linecap="butt" stroke-linejoin="miter" fill-opacity="0" stroke-miterlimit="4" stroke="rgb(48,129,196)" stroke-opacity="1" stroke-width="12" d=" M-157.54600524902344,33.56700134277344 C-157.54600524902344,33.56700134277344 -176.2729949951172,77.7979965209961 -179.77699279785156,94.99800109863281 C-182.69400024414062,105.52400207519531 -187,120 -187,137 C-187,154 -180.5,233.5 -180.5,233.5 C-180.5,233.5 -178.03900146484375,235.5330047607422 -165.50100708007812,235.51699829101562 C-152.5,235.5 -158.51699829101562,233 -158.51699829101562,233 C-158.51699829101562,233 -168.4969940185547,130.01199340820312 -165.18699645996094,118.81999969482422 C-161.44700622558594,105.44499969482422 -139.54200744628906,49.20899963378906 -139.54200744628906,49.20899963378906 C-139.54200744628906,49.20899963378906 -133.802001953125,39.34000015258789 -141.9029998779297,35.979000091552734 C-153.71099853515625,30.302000045776367 -157.54600524902344,33.56700134277344 -157.54600524902344,33.56700134277344z"></path></g><g opacity="1" transform="matrix(1,0,0,1,0,0)"><path fill="rgb(250,247,244)" fill-opacity="1" d=" M-170.5,214 C-170.5,214 -175,226 -175,226 C-175,226 -176.82200622558594,235.5229949951172 -174.25,239.89700317382812 C-173.02000427246094,241.98800659179688 -169.572998046875,241.33799743652344 -166.5,241.5 C-157,242 -159.25,235 -159.25,231.5 C-159.25,228 -160.75,213.75 -160.75,213.75 C-160.75,213.75 -170.5,214 -170.5,214z"></path></g></g><g style="display: block;" transform="matrix(2.0754809379577637,-0.2548525035381317,0.18854327499866486,1.5547435283660889,94.10734558105469,253.6047821044922)" opacity="1"><g opacity="1" transform="matrix(1,0,0,1.0717999935150146,-4.5449981689453125,-5.512485504150391)"><g opacity="1" transform="matrix(1,0,0,1,0,0)"><g opacity="1" transform="matrix(1,0,0,1,-18.856327056884766,-4.943901062011719)"><g opacity="1" transform="matrix(1,0,0,1,84.30000305175781,62.268001556396484)"><path stroke-linecap="round" stroke-linejoin="round" fill-opacity="0" stroke="rgb(236,154,97)" stroke-opacity="1" stroke-width="8" d=" M17.936378479003906,8.154586791992188 C15.18937873840332,7.439586162567139 4.563466548919678,-4.561889171600342 -20.266403198242188,-7.928348064422607 C-31.558496475219727,-9.856928825378418 -46.9838752746582,-5.977267265319824 -46.9838752746582,-5.977267265319824"></path></g><g opacity="0" transform="matrix(1,0,0,1,47.32500076293945,30.402999877929688)"><path stroke-linecap="round" stroke-linejoin="round" fill-opacity="0" stroke="rgb(236,154,97)" stroke-opacity="1" stroke-width="8" d=" M18.548999786376953,-3.8519999980926514 C18.548999786376953,-3.8519999980926514 15.824000358581543,1.2330000400543213 10.920999526977539,2.868000030517578 C7.9710001945495605,3.8519999980926514 5.107999801635742,2.687000036239624 1.475000023841858,1.597000002861023 C-2.1579999923706055,0.5070000290870667 -6.426000118255615,-0.8550000190734863 -11.329000473022461,-1.0369999408721924 C-16.232999801635742,-1.218000054359436 -18.548999786376953,0.32600000500679016 -18.548999786376953,0.32600000500679016"></path></g><g opacity="0" transform="matrix(1,0,0,1,0,0)"><path fill="rgb(247,165,109)" fill-opacity="1" d=" M32.13100051879883,36.108001708984375 C32.13100051879883,36.108001708984375 42.70000076293945,52.61899948120117 44.35599899291992,60.18000030517578 C46.012001037597656,67.74099731445312 42.382999420166016,82.18099975585938 42.382999420166016,82.18099975585938 C42.382999420166016,82.18099975585938 47.6150016784668,79.81500244140625 48.57400131225586,75.21600341796875 C49.9739990234375,68.4990005493164 50.270999908447266,64.9260025024414 48.2599983215332,56.39899826049805 C45.29199981689453,43.816001892089844 32.13100051879883,36.108001708984375 32.13100051879883,36.108001708984375z"></path></g><g opacity="1" transform="matrix(1,0,0,1,49.34400177001953,88.16799926757812)"><path fill="rgb(215,131,74)" fill-opacity="1" d=" M48.884315490722656,-1.7532600164413452 C48.884315490722656,-1.7532600164413452 45.63423156738281,4.326075077056885 33.634193420410156,6.443735122680664 C27.325878143310547,7.636205673217773 24.422836303710938,7.775054931640625 16.011850357055664,5.919422149658203 C15.315232276916504,5.766580581665039 14.933228492736816,6.1143317222595215 14.933228492736816,6.1143317222595215 C14.933228492736816,6.1143317222595215 4.971877574920654,3.7674219608306885 -2.5783209800720215,-5.390556335449219 C-9.821053504943848,-13.358688354492188 -12.645223617553711,-15.656888008117676 -12.645223617553711,-15.656888008117676 C-12.645223617553711,-15.656888008117676 0.21094176173210144,-2.8950560092926025 20.560762405395508,-3.945714235305786 C39.791011810302734,-4.099632740020752 48.884315490722656,-1.7532600164413452 48.884315490722656,-1.7532600164413452z"></path></g><g opacity="1" transform="matrix(1,0,0,1,41.16600036621094,62.37699890136719)"><path fill="rgb(57,19,19)" fill-opacity="1" d=" M31.61753273010254,1.137710452079773 C29.150680541992188,-0.7261078953742981 4.063660621643066,-6.249093532562256 3.5526607036590576,-4.794093608856201 C3.136660575866699,-3.607093334197998 6.079472541809082,-2.8678207397460938 7.984246253967285,-1.7486779689788818 C13.199934959411621,0.0411875918507576 22.225006103515625,3.3028955459594727 25.632587432861328,5.467731952667236 C30.04315757751465,8.034672737121582 48.0228271484375,11.412040710449219 46.816246032714844,7.426647663116455 C46.199058532714844,4.412113666534424 32.71827697753906,1.9213999509811401 31.61753273010254,1.137710452079773z"></path></g><g opacity="1" transform="matrix(1,0,0,1,35.676998138427734,44.5890007019043)"><path stroke-linecap="round" stroke-linejoin="round" fill-opacity="0" stroke="rgb(150,65,28)" stroke-opacity="1" stroke-width="8.586" d=" M63.30471420288086,27.11408805847168 C63.30471420288086,27.11408805847168 49.459503173828125,23.85457420349121 39.02447509765625,18.898317337036133 C33.63900375366211,16.684030532836914 32.96684265136719,15.662303924560547 20.63675308227539,13.12164306640625 C12.511900901794434,12.993896484375 9.087727546691895,14.128207206726074 4.884727954864502,13.23920726776123"></path></g><g opacity="1" transform="matrix(1,0,0,1,47.66999816894531,81.10199737548828)"><path stroke-linecap="round" stroke-linejoin="round" fill-opacity="0" stroke="rgb(150,65,28)" stroke-opacity="1" stroke-width="8.586" d=" M49.90879821777344,-10.547820091247559 C49.90879821777344,-10.547820091247559 42.93982696533203,-11.801933288574219 35.4813346862793,-13.865938186645508 C31.058143615722656,-14.484906196594238 25.587966918945312,-15.626849174499512 18.889568328857422,-16.32529067993164 C11.458550453186035,-17.073745727539062 9.878969192504883,-18.67669677734375 0.5516387820243835,-20.37442970275879 C-5.004707336425781,-21.85249900817871 -9.264565467834473,-24.187458038330078 -9.264565467834473,-24.187458038330078"></path></g></g></g></g></g><g style="display: block;" transform="matrix(2.848907232284546,-0.1276836097240448,-0.03456655517220497,2.076139211654663,-25.041650772094727,127.58020782470703)" opacity="1"><g opacity="1" transform="matrix(1,0,0,1,58.27899932861328,39.854000091552734)"><path fill="rgb(215,135,82)" fill-opacity="1" d=" M3.8610000610351562,26.698999404907227 C18.426000595092773,29.2450008392334 27.47100067138672,-0.3109999895095825 23.402000427246094,-11.527999877929688 C19.466999053955078,-22.375 12.788999557495117,-31.2549991607666 -3.1559998989105225,-24.941999435424805 C-16.774999618530273,-19.549999237060547 -17.6200008392334,2.4619998931884766 -15.642999649047852,9.652999877929688 C-14.201000213623047,14.89900016784668 -11.220999717712402,24.062000274658203 3.8610000610351562,26.698999404907227z"></path></g><g opacity="1" transform="matrix(1,0,0,1,85.58300018310547,32.527000427246094)"><path stroke-linecap="round" stroke-linejoin="round" fill-opacity="0" stroke="rgb(215,135,82)" stroke-opacity="1" stroke-width="5.67" d=" M-6.63700008392334,-1.1549999713897705 C-6.63700008392334,-1.1549999713897705 -13.845000267028809,2.4489998817443848 -13.845000267028809,2.4489998817443848"></path></g><g opacity="1" transform="matrix(1,0,0,1,78.11699676513672,15.53499984741211)"><path stroke-linecap="round" stroke-linejoin="round" fill-opacity="0" stroke="rgb(215,135,82)" stroke-opacity="1" stroke-width="5.67" d=" M-5.375,15.097000122070312 C-5.375,15.097000122070312 -7.624000072479248,17.280000686645508 -7.624000072479248,17.280000686645508 C-7.624000072479248,17.280000686645508 -11.157999992370605,20.711000442504883 -11.157999992370605,20.711000442504883"></path></g><g opacity="1" transform="matrix(1,0,0,1,77.85900115966797,59.04499816894531)"><path stroke-linecap="round" stroke-linejoin="round" fill-opacity="0" stroke="rgb(215,135,82)" stroke-opacity="1" stroke-width="5.67" d=" M-4.079999923706055,-3.0920000076293945 C-4.079999923706055,-3.0920000076293945 -4.376999855041504,-2.059000015258789 -4.376999855041504,-2.059000015258789"></path></g><g opacity="1" transform="matrix(1,0,0,1,47.20199966430664,42.15800094604492)"><path fill="rgb(184,179,232)" fill-opacity="1" d=" M9.397000312805176,-26.12299919128418 C1.2619999647140503,-22.613000869750977 -5.511000156402588,-6.664999961853027 -0.367000013589859,7.203000068664551 C3.7130000591278076,18.20199966430664 16.00200080871582,22.44300079345703 23.62299919128418,19.68000030517578 C28.735000610351562,17.826000213623047 32.137001037597656,14.276000022888184 34.52000045776367,4.697999954223633 C35.91899871826172,-0.9240000247955322 35.23500061035156,-8.503000259399414 33.38800048828125,-13.494000434875488 C31.142000198364258,-19.56100082397461 21.472999572753906,-31.333999633789062 9.397000312805176,-26.12299919128418z"></path><path stroke-linecap="butt" stroke-linejoin="miter" fill-opacity="0" stroke-miterlimit="10" stroke="rgb(55,55,95)" stroke-opacity="1" stroke-width="4.5" d=" M9.397000312805176,-26.12299919128418 C1.2619999647140503,-22.613000869750977 -5.511000156402588,-6.664999961853027 -0.367000013589859,7.203000068664551 C3.7130000591278076,18.20199966430664 16.00200080871582,22.44300079345703 23.62299919128418,19.68000030517578 C28.735000610351562,17.826000213623047 32.137001037597656,14.276000022888184 34.52000045776367,4.697999954223633 C35.91899871826172,-0.9240000247955322 35.23500061035156,-8.503000259399414 33.38800048828125,-13.494000434875488 C31.142000198364258,-19.56100082397461 21.472999572753906,-31.333999633789062 9.397000312805176,-26.12299919128418z"></path></g><g opacity="1" transform="matrix(1,0,0,1,45.72100067138672,41.676998138427734)"><path fill="rgb(255,255,255)" fill-opacity="1" d=" M14.38700008392334,-22.132999420166016 C6.26200008392334,-19.360000610351562 -2.115000009536743,-5.827000141143799 6.005000114440918,8.354000091552734 C9.741999626159668,14.880999565124512 19.611000061035156,17.256999969482422 23.607999801635742,15.04699993133545 C34.52799987792969,9.008999824523926 33.691001892089844,-6.679999828338623 31.285999298095703,-13.154999732971191 C29.05500030517578,-19.163000106811523 19.70800018310547,-23.948999404907227 14.38700008392334,-22.132999420166016z"></path></g><g opacity="1" transform="matrix(1.172529935836792,0,0,0.8662499785423279,3.0710601806640625,5.766513824462891)"><g opacity="1" transform="matrix(1,0,0,1,28.649999618530273,39.06800079345703)"><path fill="rgb(31,28,44)" fill-opacity="1" d=" M29.360000610351562,0.23399999737739563 C28.81100082397461,7.125999927520752 26.547000885009766,8.418999671936035 25.655000686645508,8.696000099182129 C21.46500015258789,9.71399974822998 18.238000869750977,6.861000061035156 18.347999572753906,1.1269999742507935 C18.48200035095215,-5.839000225067139 21.277999877929688,-9.057999610900879 23.808000564575195,-9.125 C28.06800079345703,-9.23799991607666 29.75200080871582,-4.690000057220459 29.360000610351562,0.23399999737739563z"></path></g><g opacity="1" transform="matrix(1,0,0,1,34.95500183105469,39.24800109863281)"><path fill="rgb(255,255,255)" fill-opacity="1" d=" M27.8700008392334,0.16699999570846558 C27.738000869750977,2.5940001010894775 27.076000213623047,3.3359999656677246 24.71299934387207,3.2019999027252197 C22.35099983215332,3.068000078201294 19.45199966430664,2.1649999618530273 19.583999633789062,-0.2630000114440918 C19.715999603271484,-2.690000057220459 22.20400047302246,-2.7669999599456787 24.56599998474121,-2.631999969482422 C26.92799949645996,-2.497999906539917 28.000999450683594,-2.259999990463257 27.8700008392334,0.16699999570846558z"></path></g><g opacity="1" transform="matrix(1,0,0,1,22.398000717163086,39.266998291015625)"><path fill="rgb(255,255,255)" fill-opacity="1" d=" M26.52899932861328,-0.11800000071525574 C26.49799919128418,1.4809999465942383 25.666000366210938,1.5779999494552612 24.951000213623047,1.8530000448226929 C23.85300064086914,1.8320000171661377 24.246999740600586,1.2050000429153442 24.277999877929688,-0.39399999380111694 C24.309999465942383,-1.9919999837875366 24.80699920654297,-1.9550000429153442 25.905000686645508,-1.9329999685287476 C27.003999710083008,-1.9119999408721924 26.559999465942383,-1.715999960899353 26.52899932861328,-0.11800000071525574z"></path></g></g></g><g style="display: block;" transform="matrix(2.596984386444092,-0.11639279872179031,-0.031509920954704285,1.8925504684448242,170.81585693359375,120.60549926757812)" opacity="1"><g opacity="1" transform="matrix(1,0,0,1,62.183998107910156,53.5359992980957)"><path fill="rgb(215,135,82)" fill-opacity="1" d=" M-0.8489999771118164,33.59000015258789 C11.446000099182129,30.910999298095703 18.698999404907227,15.050000190734863 16.097999572753906,-2.1730000972747803 C13.347000122070312,-20.392000198364258 0.7200000286102295,-32.66899871826172 -18.03700065612793,-21.496999740600586 C-31.530000686645508,-13.458999633789062 -33.30799865722656,-0.4059999883174896 -32.777000427246094,8.343000411987305 C-32.327999114990234,15.755000114440918 -25.19300079345703,38.89500045776367 -0.8489999771118164,33.59000015258789z"></path></g><g opacity="1" transform="matrix(1,0,0,1,49.125,55.34000015258789)"><path fill="rgb(184,179,232)" fill-opacity="1" d=" M6.331999778747559,-27.274999618530273 C-4.636000156402588,-27.416000366210938 -17.257999420166016,-18.707000732421875 -15.854999542236328,4.914000034332275 C-15.07699966430664,18.014999389648438 -2.4140000343322754,30.917999267578125 12.755000114440918,27.19300079345703 C24.78499984741211,24.23900032043457 29.69499969482422,3.8269999027252197 27.04800033569336,-7.682000160217285 C24.195999145507812,-20.082000732421875 15.25100040435791,-27.160999298095703 6.331999778747559,-27.274999618530273z"></path><path stroke-linecap="butt" stroke-linejoin="miter" fill-opacity="0" stroke-miterlimit="10" stroke="rgb(55,55,95)" stroke-opacity="1" stroke-width="5" d=" M6.331999778747559,-27.274999618530273 C-4.636000156402588,-27.416000366210938 -17.257999420166016,-18.707000732421875 -15.854999542236328,4.914000034332275 C-15.07699966430664,18.014999389648438 -2.4140000343322754,30.917999267578125 12.755000114440918,27.19300079345703 C24.78499984741211,24.23900032043457 29.69499969482422,3.8269999027252197 27.04800033569336,-7.682000160217285 C24.195999145507812,-20.082000732421875 15.25100040435791,-27.160999298095703 6.331999778747559,-27.274999618530273z"></path></g><g opacity="1" transform="matrix(1,0,0,1,48.29600143432617,53.487998962402344)"><path fill="rgb(255,255,255)" fill-opacity="1" d=" M7.519000053405762,-20.263999938964844 C-9.892000198364258,-19.170000076293945 -11.727999687194824,1.4299999475479126 -9.762999534606934,10.052000045776367 C-6.854000091552734,22.81599998474121 3.86299991607666,26.281999588012695 10.178999900817871,24.42099952697754 C18.760000228881836,21.89299964904785 23.88599967956543,11.857000350952148 23.604999542236328,-1.6050000190734863 C23.399999618530273,-11.456999778747559 15.973999977111816,-20.795000076293945 7.519000053405762,-20.263999938964844z"></path></g><g opacity="1" transform="matrix(0.9125800132751465,0,0,0.6363999843597412,24.289688110351562,21.571002960205078)"><g opacity="1" transform="matrix(1,0,0,1,31.28499984741211,52.37900161743164)"><path fill="rgb(31,28,44)" fill-opacity="1" d=" M8.845999717712402,0.17299999296665192 C8.682000160217285,8.53600025177002 4.589000225067139,15.23799991607666 -0.296999990940094,15.142999649047852 C-5.182000160217285,15.04699993133545 -9.010000228881836,8.190999984741211 -8.847000122070312,-0.1720000058412552 C-8.682999610900879,-8.53499984741211 -4.590000152587891,-15.23799991607666 0.29600000381469727,-15.142000198364258 C5.182000160217285,-15.045999526977539 9.010000228881836,-8.1899995803833 8.845999717712402,0.17299999296665192z"></path></g><g opacity="1" transform="matrix(1,0,0,1,40.42300033569336,51.27399826049805)"><path fill="rgb(255,255,255)" fill-opacity="1" d=" M4.910999774932861,0.09600000083446503 C4.86899995803833,2.2320001125335693 2.63700008392334,3.9200000762939453 -0.07500000298023224,3.867000102996826 C-2.7880001068115234,3.813999891281128 -4.953000068664551,2.0399999618530273 -4.910999774932861,-0.09600000083446503 C-4.86899995803833,-2.2320001125335693 -2.635999917984009,-3.9200000762939453 0.07599999755620956,-3.867000102996826 C2.7880001068115234,-3.813999891281128 4.953000068664551,-2.0399999618530273 4.910999774932861,0.09600000083446503z"></path></g><g opacity="1" transform="matrix(1,0,0,1,24.160999298095703,52.946998596191406)"><path fill="rgb(255,255,255)" fill-opacity="1" d=" M1.9889999628067017,0.039000000804662704 C1.9579999446868896,1.6380000114440918 1.0410000085830688,2.9159998893737793 -0.05700000002980232,2.8940000534057617 C-1.1549999713897705,2.872999906539917 -2.0190000534057617,1.559999942779541 -1.9880000352859497,-0.039000000804662704 C-1.9559999704360962,-1.6369999647140503 -1.0410000085830688,-2.9159998893737793 0.05700000002980232,-2.8940000534057617 C1.156000018119812,-2.872999906539917 2.0199999809265137,-1.559000015258789 1.9889999628067017,0.039000000804662704z"></path></g></g></g><g style="display: block;" transform="matrix(2.848907232284546,-0.1276836097240448,-0.03456655517220497,2.076139211654663,90.2291488647461,96.18283081054688)" opacity="1"><g opacity="1" transform="matrix(1,0,0,1,90.81500244140625,19.40999984741211)"><path fill="rgb(73,47,51)" fill-opacity="1" d=" M-24.94099998474121,-3.990000009536743 C-19,-6.624000072479248 -12.218000411987305,-9.029999732971191 -3.3410000801086426,-6.171000003814697 C13.704000473022461,-0.6809999942779541 21.85099983215332,16.187999725341797 17.615999221801758,18.44300079345703 C15.642000198364258,19.493999481201172 7.132999897003174,8.357000350952148 -3.1389999389648438,4.8979997634887695 C-19.625999450683594,-0.6539999842643738 -28.558000564575195,9.748000144958496 -30.010000228881836,3.7309999465942383 C-30.83799934387207,0.2980000078678131 -26.273000717163086,-3.3989999294281006 -24.94099998474121,-3.990000009536743z"></path></g><g opacity="1" transform="matrix(1,0,0,1,25.34000015258789,12.288999557495117)"><path fill="rgb(73,46,50)" fill-opacity="1" d=" M-18.302642822265625,-2.686772346496582 C-15.889643669128418,-6.854772090911865 -12.50199031829834,-11.00842571258545 -1.1469900608062744,-10.10942554473877 C13.615010261535645,-8.940425872802734 22.96135711669922,4.352227687835693 19.891355514526367,8.396227836608887 C18.38335609436035,10.382227897644043 7.184356212615967,0.862227737903595 0.8473564386367798,-0.3557722866535187 C-14.562644004821777,-3.317772388458252 -17.497989654541016,4.084227561950684 -19.53199005126953,2.995227813720703 C-21.503990173339844,1.9182276725769043 -19.017642974853516,-1.4507722854614258 -18.302642822265625,-2.686772346496582z"></path></g></g><g style="display: block;" transform="matrix(1.121582269668579,0,0,1.121582269668579,247.10995483398438,411.52545166015625)" opacity="1"><g opacity="1" transform="matrix(0.6345700025558472,0,0,0.6345700025558472,0,0)"><path fill="rgb(225,123,58)" fill-opacity="1" d=" M11,-20 C2.311000108718872,-20.256000518798828 -8.479000091552734,-14.319000244140625 -11,-6 C-13.17199993133545,1.1690000295639038 -5,14 1,13 C7,12 24,1 23,-5 C22,-11 17.399999618530273,-19.812000274658203 11,-20z"></path><path stroke-linecap="butt" stroke-linejoin="miter" fill-opacity="0" stroke-miterlimit="4" stroke="rgb(133,46,22)" stroke-opacity="1" stroke-width="12" d=" M11,-20 C2.311000108718872,-20.256000518798828 -8.479000091552734,-14.319000244140625 -11,-6 C-13.17199993133545,1.1690000295639038 -5,14 1,13 C7,12 24,1 23,-5 C22,-11 17.399999618530273,-19.812000274658203 11,-20z"></path></g></g><g style="display: block;" transform="matrix(0.7615686655044556,0,0,0.7615686655044556,207.04547119140625,364.50213623046875)" opacity="1"><g opacity="1" transform="matrix(0.6345700025558472,0,0,0.6345700025558472,0,0)"><path fill="rgb(225,124,59)" fill-opacity="1" d=" M11,-20 C2.311000108718872,-20.256000518798828 -8.479000091552734,-14.319000244140625 -11,-6 C-13.17199993133545,1.1690000295639038 -5,14 1,13 C7,12 24,1 23,-5 C22,-11 17.399999618530273,-19.812000274658203 11,-20z"></path><path stroke-linecap="butt" stroke-linejoin="miter" fill-opacity="0" stroke-miterlimit="4" stroke="rgb(134,47,23)" stroke-opacity="1" stroke-width="12" d=" M11,-20 C2.311000108718872,-20.256000518798828 -8.479000091552734,-14.319000244140625 -11,-6 C-13.17199993133545,1.1690000295639038 -5,14 1,13 C7,12 24,1 23,-5 C22,-11 17.399999618530273,-19.812000274658203 11,-20z"></path></g></g><g style="display: none;"><g><path></path><path stroke-linecap="butt" stroke-linejoin="miter" fill-opacity="0" stroke-miterlimit="4"></path></g></g></g><g clip-path="url(#__lottie_element_19)" style="display: none;"><g style="display: none;"><g><path fill="url(#__lottie_element_40)"></path><path stroke-linecap="butt" stroke-linejoin="miter" fill-opacity="0" stroke-miterlimit="10"></path></g><g><path></path></g></g><g style="display: none;"><g><path></path><path stroke-linecap="butt" stroke-linejoin="miter" fill-opacity="0" stroke-miterlimit="4"></path></g><g><path></path></g></g><g style="display: none;"><g><g><g><g><path stroke-linecap="round" stroke-linejoin="round" fill-opacity="0"></path></g><g><path stroke-linecap="round" stroke-linejoin="round" fill-opacity="0"></path></g><g><path></path></g><g><path></path></g><g><path></path></g><g><path stroke-linecap="round" stroke-linejoin="round" fill-opacity="0"></path></g><g><path stroke-linecap="round" stroke-linejoin="round" fill-opacity="0"></path></g></g></g></g></g><g style="display: none;"><g><path></path></g><g><path stroke-linecap="round" stroke-linejoin="round" fill-opacity="0"></path></g><g><path stroke-linecap="round" stroke-linejoin="round" fill-opacity="0"></path></g><g><path stroke-linecap="round" stroke-linejoin="round" fill-opacity="0"></path></g><g><path></path><path stroke-linecap="butt" stroke-linejoin="miter" fill-opacity="0" stroke-miterlimit="10"></path></g><g><path></path></g><g><g><path></path></g><g><path></path></g><g><path></path></g></g></g><g style="display: none;"><g><path></path></g><g><path></path><path stroke-linecap="butt" stroke-linejoin="miter" fill-opacity="0" stroke-miterlimit="10"></path></g><g><path></path></g><g><g><path></path></g><g><path></path></g><g><path></path></g></g></g><g style="display: none;"><g><path></path></g><g><path></path></g></g><g style="display: none;"><g><path></path><path stroke-linecap="butt" stroke-linejoin="miter" fill-opacity="0" stroke-miterlimit="4"></path></g></g><g style="display: none;"><g><path></path><path stroke-linecap="butt" stroke-linejoin="miter" fill-opacity="0" stroke-miterlimit="4"></path></g></g><g style="display: none;"><g><path></path><path stroke-linecap="butt" stroke-linejoin="miter" fill-opacity="0" stroke-miterlimit="4"></path></g></g></g><g style="display: block;" transform="matrix(1,0,0,1,256,220)" opacity="1"></g><g style="display: block;" transform="matrix(1,0,0,1,256,256)" opacity="1"></g><g style="display: block;" transform="matrix(0.9367799758911133,0,0,0.840470016002655,355.936767578125,296.0772705078125)" opacity="1"><g opacity="1" transform="matrix(1,0,0,1,0,0)"><path fill="rgb(216,147,89)" fill-opacity="1" d=" M-118,194.947998046875 C-120,197.177001953125 -121,218.35400390625 -121,218.35400390625 C-121,218.35400390625 -133.5,222.81199645996094 -130,228.38499450683594 C-126.5,233.95799255371094 -116,245.10499572753906 -114,247.89100646972656 C-112,250.677001953125 -95,245.66200256347656 -87,240.64599609375 C-79,235.6300048828125 -44.5,215.56700134277344 -48.5,215.00999450683594 C-52.04600143432617,214.51600646972656 -103.73999786376953,184.56100463867188 -109.12000274658203,190.0330047607422 C-114.5,195.5050048828125 -117.77300262451172,194.69500732421875 -118,194.947998046875z"></path><path stroke-linecap="butt" stroke-linejoin="miter" fill-opacity="0" stroke-miterlimit="4" stroke="rgb(157,86,46)" stroke-opacity="1" stroke-width="18" d=" M-118,194.947998046875 C-120,197.177001953125 -121,218.35400390625 -121,218.35400390625 C-121,218.35400390625 -133.5,222.81199645996094 -130,228.38499450683594 C-126.5,233.95799255371094 -116,245.10499572753906 -114,247.89100646972656 C-112,250.677001953125 -95,245.66200256347656 -87,240.64599609375 C-79,235.6300048828125 -44.5,215.56700134277344 -48.5,215.00999450683594 C-52.04600143432617,214.51600646972656 -103.73999786376953,184.56100463867188 -109.12000274658203,190.0330047607422 C-114.5,195.5050048828125 -117.77300262451172,194.69500732421875 -118,194.947998046875z"></path></g><g opacity="1" transform="matrix(1,0,0,1,0,0)"><path fill="rgb(248,151,68)" fill-opacity="1" d=" M14,208 C-97,208 -103,213.74000549316406 -103,213.74000549316406 C-103,213.74000549316406 -94.06500244140625,222.71200561523438 -98.69200134277344,230.79100036621094 C-103.11000061035156,238.5050048828125 -114.30400085449219,246.4199981689453 -106,247.88499450683594 C-89,250.88499450683594 57,250.11500549316406 86,248.11500549316406 C115,246.11500549316406 115,229.5 111,216.968994140625 C107.5999984741211,206.3179931640625 125,208 14,208z"></path><path stroke-linecap="butt" stroke-linejoin="miter" fill-opacity="0" stroke-miterlimit="4" stroke="rgb(178,86,34)" stroke-opacity="1" stroke-width="18" d=" M14,208 C-97,208 -103,213.74000549316406 -103,213.74000549316406 C-103,213.74000549316406 -94.06500244140625,222.71200561523438 -98.69200134277344,230.79100036621094 C-103.11000061035156,238.5050048828125 -114.30400085449219,246.4199981689453 -106,247.88499450683594 C-89,250.88499450683594 57,250.11500549316406 86,248.11500549316406 C115,246.11500549316406 115,229.5 111,216.968994140625 C107.5999984741211,206.3179931640625 125,208 14,208z"></path></g><g opacity="1" transform="matrix(1,0,0,1,0,0)"><path fill="rgb(218,114,24)" fill-opacity="1" d=" M97.5,216.125 C92.5,213.33900451660156 42,223.3699951171875 23.5,226.71400451660156 C5,230.05799865722656 -54.5,234.51600646972656 -54.5,234.51600646972656 C-54.5,234.51600646972656 -74,238.9739990234375 -70,240.08900451660156 C-66,241.20399475097656 31.5,240.08900451660156 51,240.08900451660156 C70.5,240.08900451660156 95,238.9739990234375 99.5,235.6300048828125 C104,232.28599548339844 102.5,218.91099548339844 97.5,216.125z"></path></g><g opacity="1" transform="matrix(1,0,0,1,0,0)"><path fill="rgb(95,47,30)" fill-opacity="1" d=" M84,187 C32,185 -116,186 -118,190 C-120,194 -116,203 -116,203 C-116,203 -118,213 -108,219 C-98,225 53.5,220.5570068359375 85.5,221.5570068359375 C117.5,222.5570068359375 115,216.125 115.5,203.77099609375 C115.86199951171875,194.83399963378906 136,189 84,187z"></path></g><g opacity="1" transform="matrix(1,0,0,1,0,0)"><path fill="rgb(224,154,95)" fill-opacity="1" d=" M-97.5,89.06199645996094 C-104.04199981689453,84.68699645996094 -118.15499877929688,106.55599975585938 -122.63700103759766,119.88899993896484 C-125.00599670410156,126.93499755859375 -119,131.41700744628906 -119,131.41700744628906 C-119,131.41700744628906 -119.97000122070312,134.46200561523438 -117.50800323486328,137.0850067138672 C-115.45700073242188,139.27000427246094 -109.9540023803711,146.56500244140625 -109.5,147.5780029296875 C-108.5,149.8070068359375 -120.52400207519531,156.54800415039062 -117,169.31199645996094 C-115,176.5570068359375 -38.209999084472656,163.88299560546875 -29,161.50999450683594 C-19.790000915527344,159.13699340820312 -27,142.0050048828125 -26,128.072998046875 C-25,114.14099884033203 -87.5,95.75 -97.5,89.06199645996094z"></path><path stroke-linecap="butt" stroke-linejoin="miter" fill-opacity="0" stroke-miterlimit="4" stroke="rgb(156,85,46)" stroke-opacity="1" stroke-width="18" d=" M-97.5,89.06199645996094 C-104.04199981689453,84.68699645996094 -118.15499877929688,106.55599975585938 -122.63700103759766,119.88899993896484 C-125.00599670410156,126.93499755859375 -119,131.41700744628906 -119,131.41700744628906 C-119,131.41700744628906 -119.97000122070312,134.46200561523438 -117.50800323486328,137.0850067138672 C-115.45700073242188,139.27000427246094 -109.9540023803711,146.56500244140625 -109.5,147.5780029296875 C-108.5,149.8070068359375 -120.52400207519531,156.54800415039062 -117,169.31199645996094 C-115,176.5570068359375 -38.209999084472656,163.88299560546875 -29,161.50999450683594 C-19.790000915527344,159.13699340820312 -27,142.0050048828125 -26,128.072998046875 C-25,114.14099884033203 -87.5,95.75 -97.5,89.06199645996094z"></path></g><g opacity="1" transform="matrix(1,0,0,1,0,0)"><path fill="rgb(214,5,42)" fill-opacity="1" d=" M94,162.625 C94,162.625 -98,167.08299255371094 -98,167.08299255371094 C-98,167.08299255371094 -104,191.04600524902344 -99,196.06199645996094 C-94,201.0780029296875 -16,201.0780029296875 12.5,202.1929931640625 C41,203.30799865722656 94,208.322998046875 99.5,203.86500549316406 C105,199.40699768066406 94,162.625 94,162.625z"></path><path stroke-linecap="butt" stroke-linejoin="miter" fill-opacity="0" stroke-miterlimit="4" stroke="rgb(168,15,38)" stroke-opacity="1" stroke-width="9" d=" M94,162.625 C94,162.625 -98,167.08299255371094 -98,167.08299255371094 C-98,167.08299255371094 -104,191.04600524902344 -99,196.06199645996094 C-94,201.0780029296875 -16,201.0780029296875 12.5,202.1929931640625 C41,203.30799865722656 94,208.322998046875 99.5,203.86500549316406 C105,199.40699768066406 94,162.625 94,162.625z"></path></g><g opacity="1" transform="matrix(1,0,0,1,0,0)"><path fill="rgb(238,186,27)" fill-opacity="1" d=" M-73,167 C-99,166 -105.25,159.44500732421875 -105.25,159.44500732421875 C-105.25,159.44500732421875 -110.02300262451172,169.99200439453125 -99.9530029296875,173.06100463867188 C-85.75,177.38900756835938 -55.62900161743164,192.38900756835938 -52,193.88499450683594 C-50.60300064086914,194.46099853515625 -49.12200164794922,196.17599487304688 -47.569000244140625,196.79299926757812 C-25.231000900268555,205.67100524902344 12,216.125 21,215.2760009765625 C28.45400047302246,214.572998046875 43.8120002746582,195.49099731445312 66.36000061035156,199.77000427246094 C85,203.30799865722656 105.29100036621094,180.52699279785156 99.5,179.4739990234375 C98.1050033569336,179.22000122070312 115.04499816894531,189.66900634765625 109.83899688720703,188.6439971923828 C74.00800323486328,181.58599853515625 -50.29800033569336,167.8730010986328 -73,167z"></path></g><g opacity="1" transform="matrix(1,0,0,1,0,0)"><path fill="rgb(99,170,21)" fill-opacity="1" d=" M-15,116.927001953125 C-15,116.927001953125 -51,124.72899627685547 -51,124.72899627685547 C-51,124.72899627685547 -97.72100067138672,147.64500427246094 -121.27999877929688,165.87399291992188 C-128.947998046875,171.8070068359375 -138.72500610351562,172.51600646972656 -138,176.5570068359375 C-135,193.2760009765625 -71.5,181.01600646972656 -71.5,181.01600646972656 C-71.5,181.01600646972656 -61.707000732421875,189.58399963378906 -49,193.83299255371094 C-39,197.177001953125 -30,193.83299255371094 -7,181.572998046875 C16,169.31300354003906 20,189.37399291992188 35,196.06199645996094 C50,202.75 55.505001068115234,197.31500244140625 72,192.718994140625 C92,187.14599609375 122,192.16200256347656 130,186.58900451660156 C138,181.01600646972656 113,173.77099609375 98,159.281005859375 C83,144.79100036621094 -15,116.927001953125 -15,116.927001953125z"></path><path stroke-linecap="butt" stroke-linejoin="miter" fill-opacity="0" stroke-miterlimit="4" stroke="rgb(33,144,23)" stroke-opacity="1" stroke-width="15" d=" M-15,116.927001953125 C-15,116.927001953125 -51,124.72899627685547 -51,124.72899627685547 C-51,124.72899627685547 -97.72100067138672,147.64500427246094 -121.27999877929688,165.87399291992188 C-128.947998046875,171.8070068359375 -138.72500610351562,172.51600646972656 -138,176.5570068359375 C-135,193.2760009765625 -71.5,181.01600646972656 -71.5,181.01600646972656 C-71.5,181.01600646972656 -61.707000732421875,189.58399963378906 -49,193.83299255371094 C-39,197.177001953125 -30,193.83299255371094 -7,181.572998046875 C16,169.31300354003906 20,189.37399291992188 35,196.06199645996094 C50,202.75 55.505001068115234,197.31500244140625 72,192.718994140625 C92,187.14599609375 122,192.16200256347656 130,186.58900451660156 C138,181.01600646972656 113,173.77099609375 98,159.281005859375 C83,144.79100036621094 -15,116.927001953125 -15,116.927001953125z"></path></g><g opacity="1" transform="matrix(1,0,0,1,1.1089999675750732,13.605999946594238)"><path fill="rgb(247,150,67)" fill-opacity="1" d=" M-17,61.198001861572266 C-119,61.198001861572266 -106,82.65599822998047 -107,92.65599822998047 C-108,102.65599822998047 -68,116 -81,122 C-94,128 -101,129.68800354003906 -102,138.68800354003906 C-103,147.68800354003906 -116,157.77099609375 -116,157.77099609375 C-116,157.77099609375 60,165 89,165 C118,165 121.13300323486328,153.8489990234375 118,138 C114.89099884033203,122.26899719238281 90.18399810791016,70.52200317382812 7.748000144958496,62.42100143432617 C-0.32600000500679016,61.62799835205078 -7.901000022888184,61.198001861572266 -17,61.198001861572266z"></path><path stroke-linecap="round" stroke-linejoin="round" fill-opacity="0" stroke="rgb(178,86,34)" stroke-opacity="1" stroke-width="17" d=" M-17,61.198001861572266 C-119,61.198001861572266 -106,82.65599822998047 -107,92.65599822998047 C-108,102.65599822998047 -68,116 -81,122 C-94,128 -101,129.68800354003906 -102,138.68800354003906 C-103,147.68800354003906 -116,157.77099609375 -116,157.77099609375 C-116,157.77099609375 60,165 89,165 C118,165 121.13300323486328,153.8489990234375 118,138 C114.89099884033203,122.26899719238281 90.18399810791016,70.52200317382812 7.748000144958496,62.42100143432617 C-0.32600000500679016,61.62799835205078 -7.901000022888184,61.198001861572266 -17,61.198001861572266z"></path></g><g opacity="1" transform="matrix(1,0,0,1,0,0)"><path fill="rgb(227,121,30)" fill-opacity="1" d=" M-42.5,96.86499786376953 C-53,98.53700256347656 -74,100.20800018310547 -74.5,105.78099822998047 C-75,111.35399627685547 -71.93800354003906,115.38500213623047 -68,117.48400115966797 C-56.5,123.61399841308594 -37.5,120.27100372314453 -27.5,110.7969970703125 C-15.579999923706055,99.50399780273438 -32,95.19300079345703 -42.5,96.86499786376953z"></path></g><g opacity="1" transform="matrix(1,0,0,1,0,0)"><path fill="rgb(254,233,214)" fill-opacity="1" d=" M-53,91.29199981689453 C-72.05699920654297,93.84400177001953 -73.55000305175781,106.66000366210938 -70.5,109.68199920654297 C-66,114.13999938964844 -49.41400146484375,110.42500305175781 -44,108.56800079345703 C-37.5,106.33899688720703 -29.07200050354004,102.0790023803711 -31,97.4219970703125 C-34,90.177001953125 -43.56800079345703,90.02899932861328 -53,91.29199981689453z"></path><path stroke-linecap="butt" stroke-linejoin="miter" fill-opacity="0" stroke-miterlimit="4" stroke="rgb(220,173,137)" stroke-opacity="1" stroke-width="8" d=" M-53,91.29199981689453 C-72.05699920654297,93.84400177001953 -73.55000305175781,106.66000366210938 -70.5,109.68199920654297 C-66,114.13999938964844 -49.41400146484375,110.42500305175781 -44,108.56800079345703 C-37.5,106.33899688720703 -29.07200050354004,102.0790023803711 -31,97.4219970703125 C-34,90.177001953125 -43.56800079345703,90.02899932861328 -53,91.29199981689453z"></path></g><g opacity="1" transform="matrix(1,0,0,1,0,0)"><path fill="rgb(227,121,30)" fill-opacity="1" d=" M7.5,82.93199920654297 C7.5,82.93199920654297 -7.5,93.52100372314453 -7.5,93.52100372314453 C-7.5,93.52100372314453 1,101.322998046875 17,101.322998046875 C33,101.322998046875 38,94.0780029296875 37,90.177001953125 C36,86.2760009765625 7.5,82.93199920654297 7.5,82.93199920654297z"></path></g><g opacity="1" transform="matrix(1,0,0,1,0,0)"><path fill="rgb(227,121,30)" fill-opacity="1" d=" M42,102.99500274658203 C37.5,106.33899688720703 41.5,113.58300018310547 41.5,113.58300018310547 C41.5,113.58300018310547 46.5,136.4320068359375 64.5,139.7760009765625 C82.5,143.1199951171875 76.5,122.5 72,116.37000274658203 C67.5,110.23999786376953 46.5,99.6510009765625 42,102.99500274658203z"></path></g><g opacity="1" transform="matrix(1,0,0,1,0,0)"><path fill="rgb(254,233,214)" fill-opacity="1" d=" M59.5,105.78099822998047 C59.5,105.78099822998047 50,97.4219970703125 43.5,104.66699981689453 C40.084999084472656,108.4739990234375 42.5,109.68199920654297 48,118.5989990234375 C52.54800033569336,125.97200012207031 66.5,133.64599609375 70,125.84400177001953 C73.5,118.04199981689453 59.5,105.78099822998047 59.5,105.78099822998047z"></path><path stroke-linecap="butt" stroke-linejoin="miter" fill-opacity="0" stroke-miterlimit="4" stroke="rgb(220,173,137)" stroke-opacity="1" stroke-width="7" d=" M59.5,105.78099822998047 C59.5,105.78099822998047 50,97.4219970703125 43.5,104.66699981689453 C40.084999084472656,108.4739990234375 42.5,109.68199920654297 48,118.5989990234375 C52.54800033569336,125.97200012207031 66.5,133.64599609375 70,125.84400177001953 C73.5,118.04199981689453 59.5,105.78099822998047 59.5,105.78099822998047z"></path></g><g opacity="1" transform="matrix(1,0,0,1,0,0)"><path fill="rgb(254,233,214)" fill-opacity="1" d=" M20,82.375 C8,80.14600372314453 -3.7809998989105225,79.58899688720703 -7,84.0469970703125 C-10.218999862670898,88.50499725341797 -6.119999885559082,92.96399688720703 1.5,92.96399688720703 C1.5,92.96399688720703 7.5,95.75 18.5,94.63500213623047 C29.5,93.5199966430664 32,84.60399627685547 20,82.375z"></path><path stroke-linecap="butt" stroke-linejoin="miter" fill-opacity="0" stroke-miterlimit="4" stroke="rgb(220,173,137)" stroke-opacity="1" stroke-width="6" d=" M20,82.375 C8,80.14600372314453 -3.7809998989105225,79.58899688720703 -7,84.0469970703125 C-10.218999862670898,88.50499725341797 -6.119999885559082,92.96399688720703 1.5,92.96399688720703 C1.5,92.96399688720703 7.5,95.75 18.5,94.63500213623047 C29.5,93.5199966430664 32,84.60399627685547 20,82.375z"></path></g><g opacity="1" transform="matrix(1,0,0,1,0,0)"><path fill="rgb(227,120,29)" fill-opacity="1" d=" M87,113.58300018310547 C87,113.58300018310547 99.2490005493164,138.18499755859375 92.5,145.3489990234375 C82,156.4949951171875 -61,142.56199645996094 -61,142.56199645996094 C-61,142.56199645996094 -69.5,148.13499450683594 -69.5,148.13499450683594 C-69.5,148.13499450683594 -82,148.69200134277344 -85.5,149.8070068359375 C-89,150.9219970703125 -91,161.50999450683594 -87,162.625 C-83,163.74000549316406 59,168.7550048828125 80.5,169.31199645996094 C102,169.86900329589844 110.3759994506836,170.38600158691406 111.5,158.16700744628906 C113.5,136.43299865722656 87,113.58300018310547 87,113.58300018310547z"></path></g></g><g style="display: block;" transform="matrix(1,0,0,1,256,256)" opacity="1"><g opacity="1" transform="matrix(1,0,0,1,0,0)"><path fill="rgb(214,5,42)" fill-opacity="1" d=" M-227,125 C-227,125 -212.427001953125,240.42300415039062 -212.427001953125,240.42300415039062 C-212.427001953125,240.42300415039062 -211.37399291992188,247.30299377441406 -209,249.5 C-207.00900268554688,251.34300231933594 -201,251 -201,251 C-201,251 -140,251 -140,251 C-140,251 -134.48399353027344,250.66099548339844 -132.5,249 C-130.47000122070312,247.3000030517578 -129.06199645996094,241.83999633789062 -129.06199645996094,241.83999633789062 C-129.06199645996094,241.83999633789062 -115,124 -115,124 C-115,124 -227,125 -227,125z"></path><path stroke-linecap="butt" stroke-linejoin="miter" fill-opacity="0" stroke-miterlimit="4" stroke="rgb(151,9,31)" stroke-opacity="1" stroke-width="12" d=" M-227,125 C-227,125 -212.427001953125,240.42300415039062 -212.427001953125,240.42300415039062 C-212.427001953125,240.42300415039062 -211.37399291992188,247.30299377441406 -209,249.5 C-207.00900268554688,251.34300231933594 -201,251 -201,251 C-201,251 -140,251 -140,251 C-140,251 -134.48399353027344,250.66099548339844 -132.5,249 C-130.47000122070312,247.3000030517578 -129.06199645996094,241.83999633789062 -129.06199645996094,241.83999633789062 C-129.06199645996094,241.83999633789062 -115,124 -115,124 C-115,124 -227,125 -227,125z"></path></g><g opacity="1" transform="matrix(1,0,0,1,0,0)"><path fill="rgb(182,7,38)" fill-opacity="1" d=" M-216,127.5 C-216,127.5 -224.5,141.5 -222.5,145 C-220.5,148.5 -213,152 -213,152 C-213,152 -172.5,152 -150,152.5 C-127.5,153 -125,148.5 -123,147 C-121,145.5 -120.5,131.5 -120.5,131.5 C-120.5,131.5 -216,127.5 -216,127.5z"></path></g><g opacity="1" transform="matrix(1,0,0,1,0,0)"><path fill="rgb(251,251,255)" fill-opacity="1" d=" M-113.5,121.5 C-113.5,121.5 -119.50499725341797,119.41699981689453 -119.50499725341797,119.41699981689453 C-119.50499725341797,119.41699981689453 -221.51499938964844,119.17900085449219 -221.51499938964844,119.17900085449219 C-221.51499938964844,119.17900085449219 -228,120.5 -228,120.5 C-228,120.5 -230.63400268554688,122.07099914550781 -231.5500030517578,125.27200317382812 C-232.98899841308594,130.302001953125 -233.88900756835938,136.88900756835938 -229,137.5 C-221,138.5 -111,140 -110,137 C-109.51799774169922,135.55299377441406 -108.58200073242188,132.281005859375 -109.2959976196289,128.76300048828125 C-110.06199645996094,124.98500061035156 -113.5,121.5 -113.5,121.5z"></path><path stroke-linecap="butt" stroke-linejoin="miter" fill-opacity="0" stroke-miterlimit="4" stroke="rgb(135,145,231)" stroke-opacity="1" stroke-width="11" d=" M-113.5,121.5 C-113.5,121.5 -119.50499725341797,119.41699981689453 -119.50499725341797,119.41699981689453 C-119.50499725341797,119.41699981689453 -221.51499938964844,119.17900085449219 -221.51499938964844,119.17900085449219 C-221.51499938964844,119.17900085449219 -228,120.5 -228,120.5 C-228,120.5 -230.63400268554688,122.07099914550781 -231.5500030517578,125.27200317382812 C-232.98899841308594,130.302001953125 -233.88900756835938,136.88900756835938 -229,137.5 C-221,138.5 -111,140 -110,137 C-109.51799774169922,135.55299377441406 -108.58200073242188,132.281005859375 -109.2959976196289,128.76300048828125 C-110.06199645996094,124.98500061035156 -113.5,121.5 -113.5,121.5z"></path></g></g><g style="display: block;" transform="matrix(1,0,0,1,256,256)" opacity="1"><g opacity="1" transform="matrix(1,0,0,1,0,0)"><path fill="rgb(247,23,62)" fill-opacity="1" d=" M-213,153 C-213,153 -200.5,244 -200.5,244 C-200.5,244 -183,246.5 -181.5,245 C-180,243.5 -189,154 -189,154 C-189,154 -213,153 -213,153z"></path></g><g opacity="1" transform="matrix(1,0,0,1,0,0)"><path fill="rgb(183,8,38)" fill-opacity="0.6900000000000001" d=" M-123.5,149 C-123.5,149 -151.5,151 -151.5,151 C-151.5,151 -156.5,245 -156.5,245 C-156.5,245 -147,246 -145,245.5 C-144.9250030517578,245.4810028076172 -141.47000122070312,248.59800720214844 -137.73500061035156,243.5489959716797 C-134,238.5 -123.5,149 -123.5,149z"></path></g></g></g></svg>