<svg xmlns="http://www.w3.org/2000/svg" xmlns:xlink="http://www.w3.org/1999/xlink" viewBox="0 0 512 512" width="512" height="512" style="width: 100%; height: 100%; transform: translate3d(0,0,0); content-visibility: visible;" preserveAspectRatio="xMidYMid meet"><defs><clipPath id="__lottie_element_2"><rect width="512" height="512" x="0" y="0"></rect></clipPath><clipPath id="__lottie_element_4"><path d="M0,0 L512,0 L512,512 L0,512z"></path></clipPath><radialGradient id="__lottie_element_14" spreadMethod="pad" gradientUnits="userSpaceOnUse" cx="-91.5459976196289" cy="-146.7570037841797" r="224.04958602937455" fx="-91.5459976196289" fy="-146.7570037841797"><stop offset="0%" stop-color="rgb(255,218,191)"></stop><stop offset="85%" stop-color="rgb(246,197,167)"></stop><stop offset="100%" stop-color="rgb(237,175,144)"></stop></radialGradient><linearGradient id="__lottie_element_19" spreadMethod="pad" gradientUnits="userSpaceOnUse" x1="26.01799964904785" y1="9.434000015258789" x2="51.78300094604492" y2="54.32600021362305"><stop offset="0%" stop-color="rgb(252,210,182)"></stop><stop offset="85%" stop-color="rgb(245,193,162)"></stop><stop offset="100%" stop-color="rgb(237,176,143)"></stop></linearGradient><linearGradient id="__lottie_element_32" spreadMethod="pad" gradientUnits="userSpaceOnUse" x1="13.13700008392334" y1="-225.64100646972656" x2="12.663999557495117" y2="264.25299072265625"><stop offset="0%" stop-color="rgb(232,112,45)"></stop><stop offset="50%" stop-color="rgb(180,85,34)"></stop><stop offset="100%" stop-color="rgb(128,58,22)"></stop></linearGradient><linearGradient id="__lottie_element_41" spreadMethod="pad" gradientUnits="userSpaceOnUse"><stop></stop><stop></stop><stop></stop></linearGradient><linearGradient id="__lottie_element_45" spreadMethod="pad" gradientUnits="userSpaceOnUse"><stop></stop><stop></stop><stop></stop></linearGradient><radialGradient id="__lottie_element_58" spreadMethod="pad" gradientUnits="userSpaceOnUse" cx="-91.4219970703125" cy="-112.18800354003906" r="202.6546010715476" fx="-111.28133425064809" fy="-125.43979087969666"><stop offset="0%" stop-color="rgb(26,179,45)"></stop><stop offset="85%" stop-color="rgb(13,146,44)"></stop><stop offset="100%" stop-color="rgb(0,112,43)"></stop></radialGradient><radialGradient id="__lottie_element_59" spreadMethod="pad" gradientUnits="userSpaceOnUse" cx="-91.4219970703125" cy="-112.18800354003906" r="179.5854533004271" fx="-91.4219970703125" fy="-112.18800354003906"><stop offset="0%" stop-color="rgb(26,179,45)"></stop><stop offset="85%" stop-color="rgb(13,146,44)"></stop><stop offset="100%" stop-color="rgb(0,112,43)"></stop></radialGradient><radialGradient id="__lottie_element_60" spreadMethod="pad" gradientUnits="userSpaceOnUse" cx="-212.39100646972656" cy="-130.36300659179688" r="328.2999159242266" fx="-212.39100646972656" fy="-130.36300659179688"><stop offset="0%" stop-color="rgb(26,179,45)"></stop><stop offset="85%" stop-color="rgb(13,146,44)"></stop><stop offset="100%" stop-color="rgb(0,112,43)"></stop></radialGradient><radialGradient id="__lottie_element_61" spreadMethod="pad" gradientUnits="userSpaceOnUse" cx="-91.4219970703125" cy="-112.18800354003906" r="179.5854533004271" fx="-91.4219970703125" fy="-112.18800354003906"><stop offset="0%" stop-color="rgb(26,179,45)"></stop><stop offset="85%" stop-color="rgb(13,146,44)"></stop><stop offset="100%" stop-color="rgb(0,112,43)"></stop></radialGradient></defs><g clip-path="url(#__lottie_element_2)"><g clip-path="url(#__lottie_element_4)" style="display: block;" transform="matrix(1,0,0,1,0,0)" opacity="1"><g style="display: block;" transform="matrix(1,0,0,1,287.91900634765625,-14.635986328125)" opacity="1"><g opacity="1" transform="matrix(1,0,0,1,100.6449966430664,123.6259994506836)"><path fill="rgb(193,155,142)" fill-opacity="1" d=" M-48.042999267578125,-11.597000122070312 C-48.042999267578125,-11.597000122070312 -48.042999267578125,-59.63999938964844 -48.042999267578125,-59.63999938964844 C-48.042999267578125,-59.63999938964844 48.042999267578125,-59.63999938964844 48.042999267578125,-59.63999938964844 C48.042999267578125,-59.63999938964844 48.042999267578125,59.63999938964844 48.042999267578125,59.63999938964844 C48.042999267578125,59.63999938964844 -48.042999267578125,-11.597000122070312 -48.042999267578125,-11.597000122070312z"></path><path stroke-linecap="round" stroke-linejoin="round" fill-opacity="0" stroke="rgb(142,91,80)" stroke-opacity="1" stroke-width="13.033" d=" M-48.042999267578125,-11.597000122070312 C-48.042999267578125,-11.597000122070312 -48.042999267578125,-59.63999938964844 -48.042999267578125,-59.63999938964844 C-48.042999267578125,-59.63999938964844 48.042999267578125,-59.63999938964844 48.042999267578125,-59.63999938964844 C48.042999267578125,-59.63999938964844 48.042999267578125,59.63999938964844 48.042999267578125,59.63999938964844 C48.042999267578125,59.63999938964844 -48.042999267578125,-11.597000122070312 -48.042999267578125,-11.597000122070312z"></path></g><g opacity="1" transform="matrix(1,0,0,1,100.77899932861328,49.49100112915039)"><path fill="rgb(242,218,209)" fill-opacity="1" d=" M-58.347999572753906,17.555999755859375 C-58.347999572753906,17.555999755859375 58.347999572753906,17.555999755859375 58.347999572753906,17.555999755859375 C64.1449966430664,17.555999755859375 68.84400177001953,12.857999801635742 68.84400177001953,7.060999870300293 C68.84400177001953,7.060999870300293 68.84400177001953,-7.059999942779541 68.84400177001953,-7.059999942779541 C68.84400177001953,-12.857000350952148 64.1449966430664,-17.555999755859375 58.347999572753906,-17.555999755859375 C58.347999572753906,-17.555999755859375 -58.347999572753906,-17.555999755859375 -58.347999572753906,-17.555999755859375 C-64.1449966430664,-17.555999755859375 -68.84400177001953,-12.857000350952148 -68.84400177001953,-7.059999942779541 C-68.84400177001953,-7.059999942779541 -68.84400177001953,7.060999870300293 -68.84400177001953,7.060999870300293 C-68.84400177001953,12.857999801635742 -64.1449966430664,17.555999755859375 -58.347999572753906,17.555999755859375z"></path></g><g opacity="1" transform="matrix(1,0,0,1,100.77899932861328,49.49100112915039)"><path stroke-linecap="round" stroke-linejoin="round" fill-opacity="0" stroke="rgb(160,107,98)" stroke-opacity="1" stroke-width="12.774" d=" M-58.347999572753906,17.555999755859375 C-58.347999572753906,17.555999755859375 58.347999572753906,17.555999755859375 58.347999572753906,17.555999755859375 C64.1449966430664,17.555999755859375 68.84400177001953,12.857999801635742 68.84400177001953,7.060999870300293 C68.84400177001953,7.060999870300293 68.84400177001953,-7.059999942779541 68.84400177001953,-7.059999942779541 C68.84400177001953,-12.857000350952148 64.1449966430664,-17.555999755859375 58.347999572753906,-17.555999755859375 C58.347999572753906,-17.555999755859375 -58.347999572753906,-17.555999755859375 -58.347999572753906,-17.555999755859375 C-64.1449966430664,-17.555999755859375 -68.84400177001953,-12.857000350952148 -68.84400177001953,-7.059999942779541 C-68.84400177001953,-7.059999942779541 -68.84400177001953,7.060999870300293 -68.84400177001953,7.060999870300293 C-68.84400177001953,12.857999801635742 -64.1449966430664,17.555999755859375 -58.347999572753906,17.555999755859375z"></path></g><g opacity="1" transform="matrix(1,0,0,1,100.6449966430664,111.34300231933594)"><path fill="rgb(242,218,209)" fill-opacity="1" d=" M38.93199920654297,-14.222999572753906 C38.93199920654297,-14.222999572753906 -39.75899887084961,-34.930999755859375 -39.75899887084961,-34.930999755859375 C-39.75899887084961,-34.930999755859375 -39.75899887084961,-22.222999572753906 -39.75899887084961,-22.222999572753906 C-39.75899887084961,-22.222999572753906 39.75899887084961,34.930999755859375 39.75899887084961,34.930999755859375 C39.75899887084961,34.930999755859375 38.93199920654297,-14.222999572753906 38.93199920654297,-14.222999572753906z"></path></g><g opacity="1" transform="matrix(1,0,0,1,22.48200035095215,22.422000885009766)"><path fill="rgb(127,127,127)" fill-opacity="1" d=" M132.92599487304688,22.422000885009766 C132.92599487304688,22.422000885009766 22.48200035095215,22.422000885009766 22.48200035095215,22.422000885009766 C22.48200035095215,22.422000885009766 132.92599487304688,22.422000885009766 132.92599487304688,22.422000885009766z"></path></g><g opacity="1" transform="matrix(1,0,0,1,0,0)"><path stroke-linecap="round" stroke-linejoin="round" fill-opacity="0" stroke="rgb(255,254,253)" stroke-opacity="1" stroke-width="11.148" d=" M155.40699768066406,44.84299850463867 C155.40699768066406,44.84299850463867 44.9640007019043,44.84299850463867 44.9640007019043,44.84299850463867"></path></g></g><g style="display: block;" transform="matrix(1,0,0,1,256,256)" opacity="1"><g opacity="1" transform="matrix(1,0,0,1,0,0)"><path fill="rgb(39,15,28)" fill-opacity="1" d=" M-103,-86 C-103,-86 -167,-19 -167,0 C-167,19 -169,116 -156,134 C-143,152 -25,154 4,155 C33,156 49,125 54,107 C59,89 95,9 87,-45 C79,-99 -103,-86 -103,-86z"></path><path stroke-linecap="butt" stroke-linejoin="miter" fill-opacity="0" stroke-miterlimit="4" stroke="rgb(93,43,9)" stroke-opacity="0.24" stroke-width="15" d=" M-103,-86 C-103,-86 -167,-19 -167,0 C-167,19 -169,116 -156,134 C-143,152 -25,154 4,155 C33,156 49,125 54,107 C59,89 95,9 87,-45 C79,-99 -103,-86 -103,-86z"></path></g></g><g style="display: block;" transform="matrix(1,0,0,1,-36.62300109863281,251.4239959716797)" opacity="1"><g opacity="1" transform="matrix(0.9968512654304504,-0.07929424196481705,0.07611454278230667,0.9568774700164795,-13.3280029296875,46.11480712890625)"><g opacity="1" transform="matrix(1,0,0,1,477.5459899902344,152.38800048828125)"><path fill="url(#__lottie_element_58)" fill-opacity="1" d=" M-71.0770034790039,-55.59199905395508 C-71.0770034790039,-55.59199905395508 9.333000183105469,-68.49700164794922 42.09199905395508,-41.694000244140625 C74.85199737548828,-14.890999794006348 64.92500305175781,38.715999603271484 53.012001037597656,50.62799835205078 C41.099998474121094,62.54100036621094 -11.513999938964844,68.49700164794922 -11.513999938964844,68.49700164794922 C-11.513999938964844,68.49700164794922 -71.0770034790039,53.606998443603516 -71.0770034790039,53.606998443603516 C-71.0770034790039,53.606998443603516 -71.0770034790039,-55.59199905395508 -71.0770034790039,-55.59199905395508z"></path></g><g opacity="1" transform="matrix(1,0,0,1,479.4339904785156,152.38800048828125)"><path stroke-linecap="round" stroke-linejoin="round" fill-opacity="0" stroke="rgb(17,104,20)" stroke-opacity="1" stroke-width="12.934" d=" M-72.96399688720703,-55.59199905395508 C-72.96399688720703,-55.59199905395508 6.445000171661377,-64.49700164794922 39.20399856567383,-37.694000244140625 C71.96399688720703,-10.890999794006348 63.03799819946289,38.215999603271484 51.125,50.12799835205078 C39.2130012512207,62.04100036621094 33.68899917602539,70.18800354003906 -16.400999069213867,68.49700164794922 C-36.85499954223633,67.80699920654297 -72.96399688720703,53.606998443603516 -72.96399688720703,53.606998443603516 C-72.96399688720703,53.606998443603516 -72.96399688720703,-55.59199905395508 -72.96399688720703,-55.59199905395508z"></path></g><g opacity="1" transform="matrix(1,0,0,1,504.1449890136719,80.01499938964844)"><path fill="url(#__lottie_element_59)" fill-opacity="1" d=" M-50.95399856567383,-33.986000061035156 C-50.95399856567383,-33.986000061035156 3.0220000743865967,-47.68000030517578 27.17300033569336,-17.27899932861328 C42.61199951171875,2.1549999713897705 28.714000701904297,32.409000396728516 21.20400047302246,37.08399963378906 C13.692999839782715,41.757999420166016 0.5249999761581421,47.68000030517578 -16.780000686645508,43.020999908447266 C-30.94700050354004,39.207000732421875 -55.40700149536133,26.892000198364258 -55.40700149536133,26.892000198364258 C-55.40700149536133,26.892000198364258 -50.95399856567383,-33.986000061035156 -50.95399856567383,-33.986000061035156z"></path></g><g opacity="1" transform="matrix(1,0,0,1,504.1449890136719,77.33499908447266)"><path stroke-linecap="round" stroke-linejoin="round" fill-opacity="0" stroke="rgb(30,102,33)" stroke-opacity="1" stroke-width="12.934" d=" M-58.61899948120117,24.52899932861328 C-58.61899948120117,24.52899932861328 -43.48899841308594,-32.332000732421875 -43.48899841308594,-32.332000732421875 C-43.48899841308594,-32.332000732421875 3.0230000019073486,-45 27.173999786376953,-14.598999977111816 C42.61199951171875,4.835000038146973 28.714000701904297,35.09000015258789 21.20400047302246,39.763999938964844 C18.34000015258789,41.54600143432617 14.652999877929688,43.5099983215332 10.227999687194824,45"></path></g></g><g opacity="1" transform="matrix(1,0,0,1,2,0)"><g opacity="1" transform="matrix(1,0,0,1,89.11399841308594,86.4520034790039)"><path fill="url(#__lottie_element_60)" fill-opacity="1" d=" M27.145999908447266,23.898000717163086 C27.145999908447266,23.898000717163086 -14.46500015258789,17.121000289916992 -34.15700149536133,41.9109992980957 C-46.74599838256836,57.75699996948242 -40.729000091552734,102.5530014038086 -36.290000915527344,108.23899841308594 C-7.492000102996826,145.12399291992188 16.57200050354004,123.87799835205078 30.68199920654297,120.0790023803711 C42.233001708984375,116.96900177001953 34.74599838256836,19.43600082397461 34.74599838256836,19.43600082397461 C34.74599838256836,19.43600082397461 27.145999908447266,23.898000717163086 27.145999908447266,23.898000717163086z"></path></g><g opacity="1" transform="matrix(1,0,0,1,105.29900360107422,152.38800048828125)"><path stroke-linecap="round" stroke-linejoin="round" fill-opacity="0" stroke="rgb(23,114,26)" stroke-opacity="1" stroke-width="12.934" d=" M25.96500015258789,-45.59199905395508 C25.96500015258789,-45.59199905395508 -5.445000171661377,-65.99700164794922 -38.20399856567383,-39.194000244140625 C-70.96399688720703,-12.390999794006348 -65.177001953125,32.6879997253418 -47.624000549316406,50.62799835205078 C-26.33099937438965,72.39099884033203 16.902000427246094,63.49700164794922 16.902000427246094,63.49700164794922 C16.902000427246094,63.49700164794922 72.96499633789062,53.606998443603516 72.96499633789062,53.606998443603516 C72.96499633789062,53.606998443603516 25.96500015258789,-45.59199905395508 25.96500015258789,-45.59199905395508z"></path></g><g opacity="1" transform="matrix(1,0,0,1,89.11399841308594,86.4520034790039)"><path fill="url(#__lottie_element_61)" fill-opacity="1" d=" M24.145999908447266,-26.101999282836914 C24.145999908447266,-26.101999282836914 -2.4649999141693115,-38.87900161743164 -22.156999588012695,-14.08899974822998 C-34.74599838256836,1.7569999694824219 -23.413999557495117,26.427000045776367 -17.290000915527344,30.23900032043457 C-11.166000366210938,34.04999923706055 -0.42800000309944153,38.87799835205078 13.682000160217285,35.07899856567383 C25.232999801635742,31.9689998626709 34.74599838256836,19.43600082397461 34.74599838256836,19.43600082397461 C34.74599838256836,19.43600082397461 24.145999908447266,-26.101999282836914 24.145999908447266,-26.101999282836914z"></path></g><g opacity="1" transform="matrix(1,0,0,1,89.13200378417969,79.67500305175781)"><path stroke-linecap="round" stroke-linejoin="round" fill-opacity="0" stroke="rgb(22,114,25)" stroke-opacity="1" stroke-width="10.546" d=" M34.72700119018555,26.211999893188477 C34.72700119018555,26.211999893188477 24.12700080871582,-19.325000762939453 24.12700080871582,-19.325000762939453 C24.12700080871582,-19.325000762939453 -5.668000221252441,-37.00600051879883 -24.138999938964844,-12.215999603271484 C-38.0099983215332,6.401000022888184 -25.062999725341797,27.094999313354492 -15.60099983215332,32.736000061035156 C-13.23799991607666,34.14400100708008 -10.258999824523926,35.79199981689453 -6.651000022888184,37.00600051879883"></path></g></g></g><g style="display: block;" transform="matrix(1,0,0,1,-25.962005615234375,-10.84197998046875)" opacity="1"><g opacity="1" transform="matrix(1,0,0,1,221.46099853515625,313.3240051269531)"><path stroke-linecap="round" stroke-linejoin="round" fill-opacity="0" stroke="rgb(132,67,23)" stroke-opacity="1" stroke-width="29.877" d=" M100.34200286865234,7.9039998054504395 C100.34200286865234,62.29899978637695 111.86399841308594,122.70700073242188 2.740999937057495,122.70700073242188 C-111.86399841308594,122.70700073242188 -96.64099884033203,62.29899978637695 -96.64099884033203,7.9039998054504395 C-96.64099884033203,-46.49100112915039 -91.83499908447266,-122.70700073242188 0.7870000004768372,-120.71499633789062 C102.13400268554688,-118.53600311279297 100.34200286865234,-46.49100112915039 100.34200286865234,7.9039998054504395z"></path></g><g opacity="1" transform="matrix(1,0,0,1,279.7799987792969,278.4960021972656)"><path fill="url(#__lottie_element_32)" fill-opacity="1" d=" M0.5090000033378601,-189.7550048828125 C0.5090000033378601,-189.7550048828125 -181.61500549316406,-55.45199966430664 -181.61500549316406,-55.45199966430664 C-181.61500549316406,-55.45199966430664 -181.61500549316406,189.7550048828125 -181.61500549316406,189.7550048828125 C-181.61500549316406,189.7550048828125 181.61599731445312,189.7550048828125 181.61599731445312,189.7550048828125 C181.61599731445312,189.7550048828125 181.61599731445312,-62.57400131225586 181.61599731445312,-62.57400131225586 C181.61599731445312,-62.57400131225586 0.5090000033378601,-189.7550048828125 0.5090000033378601,-189.7550048828125z M-53.54399871826172,134.81199645996094 C-159.38699340820312,134.81199645996094 -155.20399475097656,98.05699920654297 -155.20399475097656,47.81999969482422 C-155.20399475097656,-2.4170000553131104 -137.6280059814453,-76.0780029296875 -56.98699951171875,-78.25800323486328 C16.031999588012695,-80.23100280761719 42.43600082397461,-7.757999897003174 42.43600082397461,42.479000091552734 C42.43600082397461,92.71600341796875 47.23699951171875,134.81199645996094 -53.54399871826172,134.81199645996094z"></path></g><g opacity="1" transform="matrix(1,0,0,1,279.7799987792969,278.4960021972656)"><path stroke-linecap="round" stroke-linejoin="round" fill-opacity="0" stroke="rgb(94,49,18)" stroke-opacity="1" stroke-width="15" d=" M0.5090000033378601,-189.7550048828125 C0.5090000033378601,-189.7550048828125 -181.61500549316406,-55.45199966430664 -181.61500549316406,-55.45199966430664 C-181.61500549316406,-55.45199966430664 -181.61500549316406,189.7550048828125 -181.61500549316406,189.7550048828125 C-181.61500549316406,189.7550048828125 181.61599731445312,189.7550048828125 181.61599731445312,189.7550048828125 C181.61599731445312,189.7550048828125 181.61599731445312,-62.57400131225586 181.61599731445312,-62.57400131225586 C181.61599731445312,-62.57400131225586 0.5090000033378601,-189.7550048828125 0.5090000033378601,-189.7550048828125z M-53.54399871826172,134.81199645996094 C-159.38699340820312,134.81199645996094 -155.20399475097656,98.05699920654297 -155.20399475097656,47.81999969482422 C-155.20399475097656,-2.4170000553131104 -137.6280059814453,-76.0780029296875 -56.98699951171875,-78.25800323486328 C16.031999588012695,-80.23100280761719 42.43600082397461,-7.757999897003174 42.43600082397461,42.479000091552734 C42.43600082397461,92.71600341796875 47.23699951171875,134.81199645996094 -53.54399871826172,134.81199645996094z"></path></g><g opacity="1" transform="matrix(1,0,0,1,0,0)"><g opacity="1" transform="matrix(1,0,0,1,0,0)"><path stroke-linecap="round" stroke-linejoin="round" fill-opacity="0" stroke="rgb(67,28,1)" stroke-opacity="0.24" stroke-width="13.071" d=" M175.93299865722656,156.91000366210938 C175.93299865722656,156.91000366210938 444.0119934082031,156.91000366210938 444.0119934082031,156.91000366210938"></path></g><g opacity="1" transform="matrix(1,0,0,1,0,0)"><path stroke-linecap="round" stroke-linejoin="round" fill-opacity="0" stroke="rgb(67,28,1)" stroke-opacity="0.24" stroke-width="13.071" d=" M259.11700439453125,204.2209930419922 C259.11700439453125,204.2209930419922 457.0899963378906,204.2209930419922 457.0899963378906,204.2209930419922"></path></g><g opacity="1" transform="matrix(1,0,0,1,0,0)"><path stroke-linecap="round" stroke-linejoin="round" fill-opacity="0" stroke="rgb(67,28,1)" stroke-opacity="0.24" stroke-width="13.071" d=" M94.2020034790039,204.2209930419922 C94.2020034790039,204.2209930419922 205.90199279785156,204.2209930419922 205.90199279785156,204.2209930419922"></path></g><g opacity="1" transform="matrix(1,0,0,1,0,0)"><path stroke-linecap="round" stroke-linejoin="round" fill-opacity="0" stroke="rgb(67,28,1)" stroke-opacity="0.24" stroke-width="13.071" d=" M308.88299560546875,253.82200622558594 C308.88299560546875,253.82200622558594 456.0119934082031,253.82200622558594 456.0119934082031,253.82200622558594"></path></g><g opacity="1" transform="matrix(1,0,0,1,0,0)"><path stroke-linecap="round" stroke-linejoin="round" fill-opacity="0" stroke="rgb(67,28,1)" stroke-opacity="0.24" stroke-width="13.071" d=" M101.93699645996094,253.82200622558594 C101.93699645996094,253.82200622558594 135.61199951171875,253.82200622558594 135.61199951171875,253.82200622558594"></path></g><g opacity="1" transform="matrix(1,0,0,1,0,0)"><path stroke-linecap="round" stroke-linejoin="round" fill-opacity="0" stroke="rgb(67,28,1)" stroke-opacity="0.24" stroke-width="13.071" d=" M315.6029968261719,301.1340026855469 C315.6029968261719,301.1340026855469 456.0119934082031,301.1340026855469 456.0119934082031,301.1340026855469"></path></g><g opacity="1" transform="matrix(1,0,0,1,0,0)"><path stroke-linecap="round" stroke-linejoin="round" fill-opacity="0" stroke="rgb(67,28,1)" stroke-opacity="0.24" stroke-width="13.071" d=" M101.93699645996094,301.1340026855469 C101.93699645996094,301.1340026855469 123.81199645996094,301.1340026855469 123.81199645996094,301.1340026855469"></path></g><g opacity="1" transform="matrix(1,0,0,1,0,0)"><path stroke-linecap="round" stroke-linejoin="round" fill-opacity="0" stroke="rgb(67,28,1)" stroke-opacity="0.24" stroke-width="13.071" d=" M315.093994140625,353.7869873046875 C315.093994140625,353.7869873046875 456.010986328125,353.7869873046875 456.010986328125,353.7869873046875"></path></g><g opacity="1" transform="matrix(1,0,0,1,0,0)"><path stroke-linecap="round" stroke-linejoin="round" fill-opacity="0" stroke="rgb(67,28,1)" stroke-opacity="0.24" stroke-width="13.071" d=" M101.93699645996094,353.7869873046875 C101.93699645996094,353.7869873046875 123.30400085449219,353.7869873046875 123.30400085449219,353.7869873046875"></path></g><g opacity="1" transform="matrix(1,0,0,1,0,0)"><path stroke-linecap="round" stroke-linejoin="round" fill-opacity="0" stroke="rgb(67,28,1)" stroke-opacity="0.24" stroke-width="13.071" d=" M101.93699645996094,415.59698486328125 C101.93699645996094,415.59698486328125 456.010986328125,415.59698486328125 456.010986328125,415.59698486328125"></path></g></g><g opacity="1" transform="matrix(1,0,0,1,405.5400085449219,403.47601318359375)"><path fill="rgb(71,33,8)" fill-opacity="1" d=" M-48.02000045776367,69.8010025024414 C-48.02000045776367,69.8010025024414 -46.564998626708984,-50.78300094604492 -46.564998626708984,-50.78300094604492 C-46.564998626708984,-50.78300094604492 -48.893001556396484,-69.27100372314453 -35.797000885009766,-69.27100372314453 C-35.797000885009766,-69.27100372314453 27.065000534057617,-69.27100372314453 27.065000534057617,-69.27100372314453 C27.065000534057617,-69.27100372314453 48.893001556396484,-70.87999725341797 48.893001556396484,-58.018001556396484 C48.893001556396484,-45.154998779296875 48.31100082397461,70.87899780273438 48.31100082397461,70.87899780273438 C48.31100082397461,70.87899780273438 -48.02000045776367,69.8010025024414 -48.02000045776367,69.8010025024414z"></path></g><g opacity="1" transform="matrix(1,0,0,1,405.5400085449219,403.47601318359375)"><path stroke-linecap="round" stroke-linejoin="round" fill-opacity="0" stroke="rgb(45,22,7)" stroke-opacity="1" stroke-width="12.231" d=" M-48.02000045776367,69.8010025024414 C-48.02000045776367,69.8010025024414 -46.564998626708984,-50.78300094604492 -46.564998626708984,-50.78300094604492 C-46.564998626708984,-50.78300094604492 -48.893001556396484,-69.27100372314453 -35.797000885009766,-69.27100372314453 C-35.797000885009766,-69.27100372314453 27.065000534057617,-69.27100372314453 27.065000534057617,-69.27100372314453 C27.065000534057617,-69.27100372314453 48.893001556396484,-70.87999725341797 48.893001556396484,-58.018001556396484 C48.893001556396484,-45.154998779296875 48.31100082397461,70.87899780273438 48.31100082397461,70.87899780273438 C48.31100082397461,70.87899780273438 -48.02000045776367,69.8010025024414 -48.02000045776367,69.8010025024414z"></path></g><g opacity="1" transform="matrix(1,0,0,1,405.8290100097656,413.25299072265625)"><path stroke-linecap="round" stroke-linejoin="round" fill-opacity="0" stroke="rgb(46,23,7)" stroke-opacity="1" stroke-width="12.231" d=" M-30.24799919128418,59.65299987792969 C-30.24799919128418,59.65299987792969 -29.33099937438965,-43.39799880981445 -29.33099937438965,-43.39799880981445 C-29.33099937438965,-43.39799880981445 -30.79800033569336,-59.20000076293945 -22.54800033569336,-59.20000076293945 C-22.54800033569336,-59.20000076293945 17.048999786376953,-59.20000076293945 17.048999786376953,-59.20000076293945 C17.048999786376953,-59.20000076293945 30.798999786376953,-60.57400131225586 30.798999786376953,-49.58100128173828 C30.798999786376953,-38.5890007019043 30.433000564575195,60.57400131225586 30.433000564575195,60.57400131225586 C30.433000564575195,60.57400131225586 -30.24799919128418,59.65299987792969 -30.24799919128418,59.65299987792969z"></path></g><g opacity="1" transform="matrix(1,0,0,1,283.5530090332031,168.28900146484375)"><path fill="rgb(61,12,1)" fill-opacity="0.27" d=" M-182.37899780273438,82.41400146484375 C-182.37899780273438,82.41400146484375 -9.156999588012695,-45.78499984741211 -9.156999588012695,-45.78499984741211 C-9.156999588012695,-45.78499984741211 173.98500061035156,86.99299621582031 173.98500061035156,86.99299621582031 C173.98500061035156,86.99299621582031 182.37899780273438,48.07500076293945 182.37899780273438,48.07500076293945 C182.37899780273438,48.07500076293945 -2.2890000343322754,-86.99199676513672 -2.2890000343322754,-86.99199676513672 C-2.2890000343322754,-86.99199676513672 -179.32699584960938,38.154998779296875 -179.32699584960938,38.154998779296875 C-179.32699584960938,38.154998779296875 -182.37899780273438,82.41400146484375 -182.37899780273438,82.41400146484375z"></path></g><g opacity="1" transform="matrix(1,0,0,1,281.67999267578125,135.9980010986328)"><path fill="rgb(183,15,27)" fill-opacity="1" d=" M-210.9759979248047,94.97000122070312 C-210.9759979248047,94.97000122070312 -4.6020002365112305,-57.18000030517578 -4.6020002365112305,-57.18000030517578 C-4.6020002365112305,-57.18000030517578 212.2270050048828,100.14299774169922 212.2270050048828,100.14299774169922 C218.36000061035156,104.59300231933594 226.85499572753906,103.73500061035156 231.97500610351562,98.1500015258789 C231.97500610351562,98.1500015258789 239.96400451660156,89.43399810791016 239.96400451660156,89.43399810791016 C245.9709930419922,82.88200378417969 244.9459991455078,72.56300354003906 237.7689971923828,67.31900024414062 C237.7689971923828,67.31900024414062 10.536999702453613,-98.70600128173828 10.536999702453613,-98.70600128173828 C2.5280001163482666,-104.55699920654297 -8.335000038146973,-104.59300231933594 -16.381999969482422,-98.79399871826172 C-16.381999969482422,-98.79399871826172 -237.26300048828125,60.393001556396484 -237.26300048828125,60.393001556396484 C-244.67999267578125,65.73799896240234 -245.9709930419922,76.26899719238281 -240.0659942626953,83.24800109863281 C-240.0659942626953,83.24800109863281 -232.25599670410156,92.47699737548828 -232.25599670410156,92.47699737548828 C-226.9239959716797,98.77899932861328 -217.6199951171875,99.86799621582031 -210.9759979248047,94.97000122070312z"></path></g><g opacity="1" transform="matrix(1,0,0,1,281.67999267578125,135.9980010986328)"><path stroke-linecap="round" stroke-linejoin="round" fill-opacity="0" stroke="rgb(119,11,11)" stroke-opacity="1" stroke-width="12.562" d=" M-210.9759979248047,94.97000122070312 C-210.9759979248047,94.97000122070312 -4.6020002365112305,-57.18000030517578 -4.6020002365112305,-57.18000030517578 C-4.6020002365112305,-57.18000030517578 212.2270050048828,100.14299774169922 212.2270050048828,100.14299774169922 C218.36000061035156,104.59300231933594 226.85499572753906,103.73500061035156 231.97500610351562,98.1500015258789 C231.97500610351562,98.1500015258789 239.96400451660156,89.43399810791016 239.96400451660156,89.43399810791016 C245.9709930419922,82.88200378417969 244.9459991455078,72.56300354003906 237.7689971923828,67.31900024414062 C237.7689971923828,67.31900024414062 10.536999702453613,-98.70600128173828 10.536999702453613,-98.70600128173828 C2.5280001163482666,-104.55699920654297 -8.335000038146973,-104.59300231933594 -16.381999969482422,-98.79399871826172 C-16.381999969482422,-98.79399871826172 -237.26300048828125,60.393001556396484 -237.26300048828125,60.393001556396484 C-244.67999267578125,65.73799896240234 -245.9709930419922,76.26899719238281 -240.0659942626953,83.24800109863281 C-240.0659942626953,83.24800109863281 -232.25599670410156,92.47699737548828 -232.25599670410156,92.47699737548828 C-226.9239959716797,98.77899932861328 -217.6199951171875,99.86799621582031 -210.9759979248047,94.97000122070312z"></path></g><g opacity="1" transform="matrix(1,0,0,1,381.73699951171875,414.8340148925781)"><path fill="rgb(11,14,21)" fill-opacity="1" d=" M11.446999549865723,0 C11.446999549865723,6.322000026702881 6.321000099182129,11.446000099182129 0,11.446000099182129 C-6.322000026702881,11.446000099182129 -11.446999549865723,6.322000026702881 -11.446999549865723,0 C-11.446999549865723,-6.322000026702881 -6.322000026702881,-11.446000099182129 0,-11.446000099182129 C6.321000099182129,-11.446000099182129 11.446999549865723,-6.322000026702881 11.446999549865723,0z"></path></g><g opacity="1" transform="matrix(1,0,0,1,385.29901123046875,410.4429931640625)"><path fill="rgb(111,154,194)" fill-opacity="1" d=" M4.559999942779541,0 C4.559999942779541,2.5190000534057617 2.5179998874664307,4.560999870300293 -0.0010000000474974513,4.560999870300293 C-2.5190000534057617,4.560999870300293 -4.560999870300293,2.5190000534057617 -4.560999870300293,0 C-4.560999870300293,-2.5190000534057617 -2.5190000534057617,-4.560999870300293 -0.0010000000474974513,-4.560999870300293 C2.5179998874664307,-4.560999870300293 4.559999942779541,-2.5190000534057617 4.559999942779541,0z"></path></g><g opacity="1" transform="matrix(1,0,0,1,168.80999755859375,125.5)"><path stroke-linecap="round" stroke-linejoin="round" fill-opacity="0" stroke="rgb(234,15,62)" stroke-opacity="1" stroke-width="16.216" d=" M-102.71299743652344,74.54900360107422 C-102.71299743652344,74.54900360107422 102.71199798583984,-74.54900360107422 102.71199798583984,-74.54900360107422"></path></g><g opacity="1" transform="matrix(1,0,0,1,393.4700012207031,131.29800415039062)"><path stroke-linecap="round" stroke-linejoin="round" fill-opacity="0" stroke="rgb(244,33,73)" stroke-opacity="1" stroke-width="18.132" d=" M-114.4010009765625,-82.55699920654297 C-114.4010009765625,-82.55699920654297 114.4010009765625,82.55699920654297 114.4010009765625,82.55699920654297"></path></g><g opacity="1" transform="matrix(1,0,0,1,0,0)"><path stroke-linecap="round" stroke-linejoin="round" fill-opacity="0" stroke="rgb(99,65,42)" stroke-opacity="1" stroke-width="13.071" d=" M370.7149963378906,344.4599914550781 C370.7149963378906,344.4599914550781 432.10101318359375,344.4599914550781 432.10101318359375,344.4599914550781"></path></g><g opacity="1" transform="matrix(1,0,0,1,283.4219970703125,497.9800109863281)"><path fill="rgb(23,153,38)" fill-opacity="1" d=" M-223.1790008544922,17.451000213623047 C-237.7550048828125,17.451000213623047 -248.593994140625,3.36299991607666 -244.18899536132812,-10.531999588012695 C-243.2030029296875,-13.640999794006348 -241.677001953125,-15.71399974822998 -239.36000061035156,-15.71399974822998 C-228.6300048828125,-15.71399974822998 125.71900177001953,-17.451000213623047 227.11599731445312,-17.083999633789062 C232.3470001220703,-17.065000534057617 241.28399658203125,-15.430000305175781 243.4219970703125,-10.350000381469727 C243.56300354003906,-10.017000198364258 243.697998046875,-9.67300033569336 243.8280029296875,-9.317000389099121 C248.593994140625,3.7079999446868896 226.99600219726562,17.451000213623047 213.12600708007812,17.451000213623047 C213.12600708007812,17.451000213623047 -223.1790008544922,17.451000213623047 -223.1790008544922,17.451000213623047z"></path></g><g opacity="1" transform="matrix(1,0,0,1,283.4219970703125,497.9800109863281)"><path stroke-linecap="round" stroke-linejoin="round" fill-opacity="0" stroke="rgb(30,94,32)" stroke-opacity="1" stroke-width="13.931" d=" M-223.1790008544922,17.451000213623047 C-237.7550048828125,17.451000213623047 -248.593994140625,3.36299991607666 -244.18899536132812,-10.531999588012695 C-243.2030029296875,-13.640999794006348 -241.677001953125,-15.71399974822998 -239.36000061035156,-15.71399974822998 C-228.6300048828125,-15.71399974822998 125.71900177001953,-17.451000213623047 227.11599731445312,-17.083999633789062 C232.3470001220703,-17.065000534057617 241.28399658203125,-15.430000305175781 243.4219970703125,-10.350000381469727 C243.56300354003906,-10.017000198364258 243.697998046875,-9.67300033569336 243.8280029296875,-9.317000389099121 C248.593994140625,3.7079999446868896 226.99600219726562,17.451000213623047 213.12600708007812,17.451000213623047 C213.12600708007812,17.451000213623047 -223.1790008544922,17.451000213623047 -223.1790008544922,17.451000213623047z"></path></g></g><g style="display: block;" transform="matrix(1,0,0,1,51.07899475097656,137.46803283691406)" opacity="1"><g opacity="1" transform="matrix(1,0,0,1,145.2100067138672,155.9499969482422)"><path stroke-linecap="round" stroke-linejoin="round" fill-opacity="0" stroke="rgb(139,10,37)" stroke-opacity="1" stroke-width="20.54" d=" M93.86000061035156,-9.21500015258789 C93.86000061035156,25.607999801635742 91.74600219726562,90.01699829101562 84.99700164794922,95.4010009765625 C73.46700286865234,104.5999984741211 41.21500015258789,95.82099914550781 1.9500000476837158,95.82099914550781 C-38.47600173950195,95.82099914550781 -65.50800323486328,98.78399658203125 -80.64600372314453,95.94599914550781 C-89.36399841308594,94.31099700927734 -93.86000061035156,23.70400047302246 -93.86000061035156,-11.503999710083008 C-93.86000061035156,-65.9000015258789 -53.632999420166016,-104.60099792480469 0.7630000114440918,-104.60099792480469 C55.15800094604492,-104.60099792480469 93.86000061035156,-63.61000061035156 93.86000061035156,-9.21500015258789z"></path></g><g opacity="1" transform="matrix(1,0,0,1,145.08099365234375,256.010986328125)"><path fill="rgb(63,28,5)" fill-opacity="1" d=" M-96.45800018310547,18.145000457763672 C-101.49500274658203,18.145000457763672 -105.47799682617188,13.878000259399414 -105.13200378417969,8.852999687194824 C-105.13200378417969,8.852999687194824 -104.26300048828125,-3.7730000019073486 -104.26300048828125,-3.7730000019073486 C-103.66799926757812,-10.814000129699707 -97.86900329589844,-16.354000091552734 -90.8030014038086,-16.44700050354004 C-90.70600128173828,-16.447999954223633 -90.60800170898438,-16.447999954223633 -90.51000213623047,-16.447999954223633 C-80.67400360107422,-16.447999954223633 85.8489990234375,-17.80500030517578 85.8489990234375,-17.80500030517578 C85.8489990234375,-17.80500030517578 96.02400207519531,-18.143999099731445 100.43299865722656,-12.378999710083008 C102.1719970703125,-10.104999542236328 103.93299865722656,2.0190000534057617 104.95899963378906,10.28499984741211 C105.47799682617188,14.463000297546387 102.21600341796875,18.145000457763672 98.00599670410156,18.145000457763672 C98.00599670410156,18.145000457763672 -96.45800018310547,18.145000457763672 -96.45800018310547,18.145000457763672z"></path></g><g opacity="1" transform="matrix(1,0,0,1,143.68299865722656,245.41299438476562)"><path fill="rgb(165,82,25)" fill-opacity="0.52" d=" M91.06300354003906,4.323999881744385 C91.06300354003906,4.323999881744385 -91.06099700927734,4.323999881744385 -91.06099700927734,4.323999881744385 C-93.44000244140625,4.323999881744385 -95.38600158691406,2.378000020980835 -95.38600158691406,0 C-95.38600158691406,-2.378000020980835 -93.44000244140625,-4.323999881744385 -91.06099700927734,-4.323999881744385 C-91.06099700927734,-4.323999881744385 91.06300354003906,-4.323999881744385 91.06300354003906,-4.323999881744385 C93.44100189208984,-4.323999881744385 95.38600158691406,-2.378000020980835 95.38600158691406,0 C95.38600158691406,2.378000020980835 93.44100189208984,4.323999881744385 91.06300354003906,4.323999881744385z"></path></g></g><g style="display: block;" transform="matrix(1,0,0,1,9.6719970703125,61.105987548828125)" opacity="1"><g opacity="1" transform="matrix(1,0,0,1,193.28399658203125,211.16900634765625)"><path fill="url(#__lottie_element_14)" fill-opacity="1" d=" M41.41899871826172,158.71200561523438 C7.663000106811523,166.73399353027344 -87.2969970703125,177.9669952392578 -123.27300262451172,103.81999969482422 C-160.08099365234375,27.958999633789062 -152.99000549316406,-28.086000442504883 -127.73600006103516,-78.92400360107422 C-102.48200225830078,-129.76199340820312 -78.80999755859375,-143.90499877929688 -57.22700119018555,-153.7010040283203 C-35.64400100708008,-163.4969940185547 15.89900016784668,-177.9669952392578 42.91400146484375,-158.81100463867188 C59.45199966430664,-147.08399963378906 99.6520004272461,-107.83999633789062 126.71600341796875,-57.047000885009766 C143.86099243164062,-24.8700008392334 155.73399353027344,11.942999839782715 152.97900390625,49.332000732421875 C147.4149932861328,124.86100006103516 87.93499755859375,147.6580047607422 41.41899871826172,158.71200561523438z"></path><path stroke-linecap="butt" stroke-linejoin="miter" fill-opacity="0" stroke-miterlimit="10" stroke="rgb(204,100,53)" stroke-opacity="1" stroke-width="14" d=" M41.41899871826172,158.71200561523438 C7.663000106811523,166.73399353027344 -87.2969970703125,177.9669952392578 -123.27300262451172,103.81999969482422 C-160.08099365234375,27.958999633789062 -152.99000549316406,-28.086000442504883 -127.73600006103516,-78.92400360107422 C-102.48200225830078,-129.76199340820312 -78.80999755859375,-143.90499877929688 -57.22700119018555,-153.7010040283203 C-35.64400100708008,-163.4969940185547 15.89900016784668,-177.9669952392578 42.91400146484375,-158.81100463867188 C59.45199966430664,-147.08399963378906 99.6520004272461,-107.83999633789062 126.71600341796875,-57.047000885009766 C143.86099243164062,-24.8700008392334 155.73399353027344,11.942999839782715 152.97900390625,49.332000732421875 C147.4149932861328,124.86100006103516 87.93499755859375,147.6580047607422 41.41899871826172,158.71200561523438z"></path></g></g><g style="display: block;" transform="matrix(1,0,0,1,137.95599365234375,277.031982421875)" opacity="1"><g opacity="1" transform="matrix(1,0,0,1,110.63899993896484,95.79299926757812)"><path fill="rgb(234,152,120)" fill-opacity="1" d=" M-29.604999542236328,4.539999961853027 C-29.604999542236328,4.539999961853027 -20.15999984741211,15.802000045776367 -1.9980000257492065,13.621999740600586 C16.165000915527344,11.442999839782715 23.43000030517578,4.177999973297119 27.424999237060547,-5.630000114440918 C29.448999404907227,-10.597000122070312 29.604999542236328,-15.800999641418457 29.604999542236328,-15.800999641418457 C29.604999542236328,-15.800999641418457 25.972000122070312,-11.079999923706055 18.3439998626709,-7.810999870300293 C10.715999603271484,-4.540999889373779 -1.6349999904632568,-1.2710000276565552 -5.99399995803833,-0.9079999923706055 C-10.352999687194824,-0.5450000166893005 -29.604999542236328,4.539999961853027 -29.604999542236328,4.539999961853027z"></path></g><g opacity="1" transform="matrix(1,0,0,1,111.0260009765625,90.22799682617188)"><path stroke-linecap="round" stroke-linejoin="round" fill-opacity="0" stroke="rgb(196,96,51)" stroke-opacity="1" stroke-width="9.743" d=" M-27.400999069213867,7.284999847412109 C-27.400999069213867,7.284999847412109 -11.913000106811523,9.51099967956543 4.1529998779296875,5.019999980926514 C21.18899917602539,0.257999986410141 27.400999069213867,-9.510000228881836 27.400999069213867,-9.510000228881836"></path></g><g opacity="1" transform="matrix(1,0,0,1,94.83699798583984,54.928001403808594)"><path fill="rgb(234,152,120)" fill-opacity="1" d=" M-65.02200317382812,10.534000396728516 C-65.02200317382812,10.534000396728516 -31.965999603271484,20.341999053955078 10.534000396728516,8.354000091552734 C53.034000396728516,-3.632999897003174 65.02200317382812,-33.055999755859375 65.02200317382812,-33.055999755859375 C65.02200317382812,-33.055999755859375 59.165000915527344,9.89900016784668 19.979000091552734,18.888999938964844 C-41.77399826049805,33.055999755859375 -65.02200317382812,10.534000396728516 -65.02200317382812,10.534000396728516z"></path></g><g opacity="1" transform="matrix(1,0,0,1,94.4260025024414,52.04600143432617)"><path stroke-linecap="round" stroke-linejoin="round" fill-opacity="0" stroke="rgb(173,79,42)" stroke-opacity="1" stroke-width="10" d=" M-69.4260025024414,17.8799991607666 C-69.4260025024414,17.8799991607666 -54.770999908447266,24.490999221801758 -32.28200149536133,26.128000259399414 C-19.68000030517578,27.04599952697754 -1.3489999771118164,26.378000259399414 16.0310001373291,20.68000030517578 C60.347999572753906,6.150000095367432 69.4260025024414,-27.04599952697754 69.4260025024414,-27.04599952697754"></path></g></g><g style="display: block;" transform="matrix(1,0,0,1,86.39199829101562,142.21998596191406)" opacity="1"><g opacity="1" transform="matrix(1,0,0,1.491960048675537,150.97900390625,9.472000122070312)"><path fill="rgb(234,152,120)" fill-opacity="1" d=" M-26.729000091552734,-7.513999938964844 C-20.562000274658203,-8.487000465393066 -1.9249999523162842,-10.956000328063965 9.034000396728516,-10.222000122070312 C22.084999084472656,-9.347999572753906 27.091999053955078,-8.12600040435791 27.670000076293945,-6.086999893188477 C28.24799919128418,-4.047999858856201 21.8799991607666,-2.953000068664551 23.55299949645996,-2.2049999237060547 C25.22599983215332,-1.4570000171661377 38.04800033569336,3.7660000324249268 36.70199966430664,7.361000061035156 C35.35499954223633,10.956000328063965 22.530000686645508,5.4770002365112305 11.145999908447266,4.839000225067139 C-0.2370000034570694,4.202000141143799 -8.520999908447266,7.619999885559082 -10.758000373840332,6.111000061035156 C-12.994999885559082,4.603000164031982 -11.925999641418457,1.0110000371932983 -8.880000114440918,0.4650000035762787 C-5.834000110626221,-0.08100000023841858 -1.128000020980835,-0.9020000100135803 -1.128000020980835,-0.9020000100135803 C-1.128000020980835,-0.9020000100135803 -11.38700008392334,-0.27399998903274536 -17.488000869750977,0.050999999046325684 C-21.920000076293945,0.2879999876022339 -34.112998962402344,2.0299999713897705 -35.81800079345703,-1.5299999713897705 C-38.04899978637695,-6.186999797821045 -26.729000091552734,-7.513999938964844 -26.729000091552734,-7.513999938964844z"></path></g><g opacity="1" transform="matrix(1,0,0,1,34.17499923706055,66.72599792480469)"><path fill="rgb(234,152,120)" fill-opacity="1" d=" M-24.71500015258789,19.899999618530273 C-12.229000091552734,11.946000099182129 3.114000082015991,-0.4690000116825104 14.217000007629395,-6.035999774932861 C25.319000244140625,-11.602999687194824 33.92599868774414,-15.097000122070312 32.13100051879883,-19.430999755859375 C30.43400001525879,-23.527000427246094 15.003999710083008,-19.575000762939453 -0.9950000047683716,-13.350000381469727 C-16.993000030517578,-7.125999927520752 -28.79800033569336,1.3289999961853027 -27.79199981689453,4.15500020980835 C-26.263999938964844,8.446999549865723 -17.43600082397461,4.684000015258789 -17.43600082397461,4.684000015258789 C-17.43600082397461,4.684000015258789 -33.41600036621094,11.375 -33.67100143432617,17.451000213623047 C-33.92599868774414,23.527000427246094 -26.655000686645508,21.13599967956543 -24.71500015258789,19.899999618530273z"></path></g></g><g style="display: block;" transform="matrix(1,0,0,1,59.944000244140625,111.8079833984375)" opacity="1"><g opacity="1" transform="matrix(1,0,0,1,182.51800537109375,30.95599937438965)"><path fill="rgb(91,45,14)" fill-opacity="1" d=" M-26.729999542236328,-7.513999938964844 C-20.562999725341797,-8.487000465393066 -1.9259999990463257,-10.956000328063965 9.032999992370605,-10.222000122070312 C22.08300018310547,-9.347999572753906 27.091999053955078,-8.12600040435791 27.670000076293945,-6.086999893188477 C28.24799919128418,-4.047999858856201 21.878999710083008,-2.953000068664551 23.552000045776367,-2.2049999237060547 C25.225000381469727,-1.4570000171661377 38.04800033569336,3.7660000324249268 36.70199966430664,7.361000061035156 C35.35499954223633,10.956000328063965 22.530000686645508,5.4770002365112305 11.145999908447266,4.839000225067139 C-0.2370000034570694,4.202000141143799 -8.522000312805176,7.619999885559082 -10.758999824523926,6.111000061035156 C-12.996000289916992,4.603000164031982 -11.927000045776367,1.0110000371932983 -8.880999565124512,0.4650000035762787 C-5.835000038146973,-0.08100000023841858 -1.128000020980835,-0.9020000100135803 -1.128000020980835,-0.9020000100135803 C-1.128000020980835,-0.9020000100135803 -11.38700008392334,-0.27399998903274536 -17.488000869750977,0.050999999046325684 C-21.920000076293945,0.2879999876022339 -34.112998962402344,2.0299999713897705 -35.81800079345703,-1.5299999713897705 C-38.04899978637695,-6.186999797821045 -26.729999542236328,-7.513999938964844 -26.729999542236328,-7.513999938964844z"></path><path stroke-linecap="round" stroke-linejoin="round" fill-opacity="0" stroke="rgb(53,35,35)" stroke-opacity="1" stroke-width="8" d=" M-26.729999542236328,-7.513999938964844 C-20.562999725341797,-8.487000465393066 -1.9259999990463257,-10.956000328063965 9.032999992370605,-10.222000122070312 C22.08300018310547,-9.347999572753906 27.091999053955078,-8.12600040435791 27.670000076293945,-6.086999893188477 C28.24799919128418,-4.047999858856201 21.878999710083008,-2.953000068664551 23.552000045776367,-2.2049999237060547 C25.225000381469727,-1.4570000171661377 38.04800033569336,3.7660000324249268 36.70199966430664,7.361000061035156 C35.35499954223633,10.956000328063965 22.530000686645508,5.4770002365112305 11.145999908447266,4.839000225067139 C-0.2370000034570694,4.202000141143799 -8.522000312805176,7.619999885559082 -10.758999824523926,6.111000061035156 C-12.996000289916992,4.603000164031982 -11.927000045776367,1.0110000371932983 -8.880999565124512,0.4650000035762787 C-5.835000038146973,-0.08100000023841858 -1.128000020980835,-0.9020000100135803 -1.128000020980835,-0.9020000100135803 C-1.128000020980835,-0.9020000100135803 -11.38700008392334,-0.27399998903274536 -17.488000869750977,0.050999999046325684 C-21.920000076293945,0.2879999876022339 -34.112998962402344,2.0299999713897705 -35.81800079345703,-1.5299999713897705 C-38.04899978637695,-6.186999797821045 -26.729999542236328,-7.513999938964844 -26.729999542236328,-7.513999938964844z"></path></g><g opacity="1" transform="matrix(1,0,0,1,53.92499923706055,87.68299865722656)"><path fill="rgb(91,45,14)" fill-opacity="1" d=" M-24.71500015258789,19.899999618530273 C-12.229000091552734,11.946000099182129 3.114000082015991,-0.4690000116825104 14.217000007629395,-6.035999774932861 C25.319000244140625,-11.602999687194824 33.92599868774414,-15.097000122070312 32.13100051879883,-19.430999755859375 C30.43400001525879,-23.527000427246094 15.003999710083008,-19.575000762939453 -0.9950000047683716,-13.350000381469727 C-16.993000030517578,-7.125999927520752 -28.79800033569336,1.3289999961853027 -27.79199981689453,4.15500020980835 C-26.263999938964844,8.446999549865723 -17.43600082397461,4.684000015258789 -17.43600082397461,4.684000015258789 C-17.43600082397461,4.684000015258789 -33.41600036621094,11.375 -33.67100143432617,17.451000213623047 C-33.92599868774414,23.527000427246094 -26.655000686645508,21.13599967956543 -24.71500015258789,19.899999618530273z"></path><path stroke-linecap="round" stroke-linejoin="round" fill-opacity="0" stroke="rgb(53,35,35)" stroke-opacity="1" stroke-width="8" d=" M-24.71500015258789,19.899999618530273 C-12.229000091552734,11.946000099182129 3.114000082015991,-0.4690000116825104 14.217000007629395,-6.035999774932861 C25.319000244140625,-11.602999687194824 33.92599868774414,-15.097000122070312 32.13100051879883,-19.430999755859375 C30.43400001525879,-23.527000427246094 15.003999710083008,-19.575000762939453 -0.9950000047683716,-13.350000381469727 C-16.993000030517578,-7.125999927520752 -28.79800033569336,1.3289999961853027 -27.79199981689453,4.15500020980835 C-26.263999938964844,8.446999549865723 -17.43600082397461,4.684000015258789 -17.43600082397461,4.684000015258789 C-17.43600082397461,4.684000015258789 -33.41600036621094,11.375 -33.67100143432617,17.451000213623047 C-33.92599868774414,23.527000427246094 -26.655000686645508,21.13599967956543 -24.71500015258789,19.899999618530273z"></path></g></g><g style="display: block;" transform="matrix(1,0,0,1,53.06599426269531,133.8109893798828)" opacity="1"><g opacity="1" transform="matrix(1,0,0,1,0,0)"><g opacity="1" transform="matrix(1,0,0,1,207.7259979248047,84.96099853515625)"><path fill="rgb(234,152,120)" fill-opacity="1" d=" M-50.1870002746582,9.609999656677246 C-52.499000549316406,0.17599999904632568 -52.04499816894531,-10.690999984741211 -39.79399871826172,-26.96299934387207 C-27.542999267578125,-43.23400115966797 -4.422999858856201,-50.00400161743164 13.053999900817871,-43.43899917602539 C30.530000686645508,-36.875 50.507999420166016,-16.118000030517578 51.57699966430664,12.821000099182129 C52.499000549316406,37.75899887084961 29.735000610351562,50.00400161743164 2.700000047683716,46.792999267578125 C-24.333999633789062,43.582000732421875 -46.2130012512207,25.826000213623047 -50.1870002746582,9.609999656677246z"></path></g><g opacity="1" transform="matrix(1,0,0,1,209.03700256347656,75.00399780273438)"><path fill="rgb(210,192,226)" fill-opacity="1" d=" M-50.1870002746582,9.609999656677246 C-52.499000549316406,0.17599999904632568 -52.04499816894531,-10.690999984741211 -39.79399871826172,-26.96299934387207 C-27.542999267578125,-43.23400115966797 -4.422999858856201,-50.00400161743164 13.053999900817871,-43.43899917602539 C30.530000686645508,-36.875 50.507999420166016,-16.118000030517578 51.57699966430664,12.821000099182129 C52.499000549316406,37.75899887084961 29.735000610351562,50.00400161743164 2.700000047683716,46.792999267578125 C-24.333999633789062,43.582000732421875 -46.2130012512207,25.826000213623047 -50.1870002746582,9.609999656677246z"></path></g><g opacity="1" transform="matrix(1,0,0,1,209.03700256347656,75.00399780273438)"><path stroke-linecap="round" stroke-linejoin="round" fill-opacity="0" stroke="rgb(82,98,130)" stroke-opacity="1" stroke-width="10" d=" M-50.1870002746582,9.609999656677246 C-52.499000549316406,0.17599999904632568 -52.04499816894531,-10.690999984741211 -39.79399871826172,-26.96299934387207 C-27.542999267578125,-43.23400115966797 -4.422999858856201,-50.00400161743164 13.053999900817871,-43.43899917602539 C30.530000686645508,-36.875 50.507999420166016,-16.118000030517578 51.57699966430664,12.821000099182129 C52.499000549316406,37.75899887084961 29.735000610351562,50.00400161743164 2.700000047683716,46.792999267578125 C-24.333999633789062,43.582000732421875 -46.2130012512207,25.826000213623047 -50.1870002746582,9.609999656677246z"></path></g><g opacity="1" transform="matrix(1,0,0,1,212.5030059814453,72.68099975585938)"><path fill="rgb(255,255,255)" fill-opacity="1" d=" M-38.6619987487793,7.4029998779296875 C-40.44300079345703,0.13600000739097595 -40.09400177001953,-8.236000061035156 -30.6560001373291,-20.77199935913086 C-21.216999053955078,-33.30699920654297 -3.4079999923706055,-38.52199935913086 10.055000305175781,-33.4640007019043 C23.518999099731445,-28.406999588012695 38.90999984741211,-12.416999816894531 39.73400115966797,9.876999855041504 C40.444000244140625,29.08799934387207 22.9060001373291,38.52199935913086 2.0799999237060547,36.04800033569336 C-18.746999740600586,33.57400131225586 -35.60100173950195,19.895000457763672 -38.6619987487793,7.4029998779296875z"></path></g><g opacity="1" transform="matrix(1,0,0,1,0,0)"><g opacity="1" transform="matrix(1,0,0,1,220.76699829101562,74.41200256347656)"><path fill="rgb(33,15,58)" fill-opacity="1" d=" M17.934999465942383,-2.5280001163482666 C19.343000411987305,7.460999965667725 12.454000473022461,16.690000534057617 2.5490000247955322,18.086000442504883 C-7.355999946594238,19.48200035095215 -16.525999069213867,12.515999794006348 -17.93400001525879,2.5280001163482666 C-19.341999053955078,-7.460999965667725 -12.454000473022461,-16.690000534057617 -2.5490000247955322,-18.086000442504883 C7.355999946594238,-19.48200035095215 16.527000427246094,-12.517000198364258 17.934999465942383,-2.5280001163482666z"></path></g><g opacity="1" transform="matrix(1,0,0,1,222.22799682617188,83.56300354003906)"><path fill="rgb(27,93,147)" fill-opacity="1" d=" M-5.002999782562256,-6.175000190734863 C-5.002999782562256,-6.175000190734863 6.49399995803833,-9.581000328063965 9.901000022888184,-7.452000141143799 C13.307999610900879,-5.322000026702881 10.326000213623047,0.6380000114440918 5.216000080108643,5.110000133514404 C0.10599999874830246,9.581000328063965 -10.751999855041504,2.7679998874664307 -12.029000282287598,-0.6389999985694885 C-13.307000160217285,-4.046000003814697 -5.002999782562256,-6.175000190734863 -5.002999782562256,-6.175000190734863z"></path></g><g opacity="1" transform="matrix(1,0,0,1,205.88800048828125,80.49400329589844)"><path fill="rgb(255,255,255)" fill-opacity="1" d=" M5.394999980926514,-0.8629999756813049 C7.383999824523926,3.1070001125335693 0.23199999332427979,3.0969998836517334 -4.127999782562256,3.7119998931884766 C-8.48799991607666,4.326000213623047 -11.276000022888184,6.010000228881836 -11.895000457763672,1.6130000352859497 C-12.515000343322754,-2.7850000858306885 -7.982999801635742,-0.847000002861023 -3.621999979019165,-1.4620000123977661 C0.7379999756813049,-2.0769999027252197 4.296999931335449,-3.055999994277954 5.394999980926514,-0.8629999756813049z"></path></g><g opacity="1" transform="matrix(1,0,0,1,237.5760040283203,69.81500244140625)"><path fill="rgb(255,255,255)" fill-opacity="1" d=" M3.562000036239624,-0.5019999742507935 C3.8420000076293945,1.4819999933242798 2.4730000495910645,3.315000057220459 0.5059999823570251,3.5920000076293945 C-1.4609999656677246,3.86899995803833 -3.2820000648498535,2.4860000610351562 -3.562000036239624,0.5019999742507935 C-3.8420000076293945,-1.4819999933242798 -2.4739999771118164,-3.315000057220459 -0.5059999823570251,-3.5920000076293945 C1.4609999656677246,-3.86899995803833 3.2820000648498535,-2.4860000610351562 3.562000036239624,-0.5019999742507935z"></path></g></g></g><g opacity="1" transform="matrix(1,0,0,1,0,0)"><g opacity="1" transform="matrix(1,0,0,1,72.23799896240234,145.1280059814453)"><path fill="rgb(234,152,120)" fill-opacity="1" d=" M-43.55500030517578,-18.02199935913086 C-35.32500076293945,-36.50899887084961 -10.074999809265137,-48.435001373291016 8.324999809265137,-46.83399963378906 C34.34700012207031,-44.57099914550781 48.89500045776367,-32.53499984741211 45.83399963378906,-11.345000267028809 C44.071998596191406,0.8529999852180481 28.979000091552734,40.702999114990234 1.5529999732971191,44.569000244140625 C-25.87299919128418,48.433998107910156 -41.2400016784668,30.58300018310547 -46.22999954223633,11.269000053405762 C-48.89400100708008,0.9570000171661377 -46.16999816894531,-12.14799976348877 -43.55500030517578,-18.02199935913086z"></path></g><g opacity="1" transform="matrix(1,0,0,1,73.8949966430664,133.66000366210938)"><path fill="rgb(210,192,226)" fill-opacity="1" d=" M-43.55500030517578,-18.020999908447266 C-35.32500076293945,-36.507999420166016 -10.076000213623047,-48.433998107910156 8.324000358581543,-46.83300018310547 C34.34600067138672,-44.56999969482422 48.89400100708008,-32.534000396728516 45.83300018310547,-11.343999862670898 C44.07099914550781,0.8539999723434448 28.979000091552734,40.70399856567383 1.5529999732971191,44.56999969482422 C-25.87299919128418,48.435001373291016 -41.2400016784668,30.583999633789062 -46.22999954223633,11.270000457763672 C-48.89400100708008,0.9580000042915344 -46.16999816894531,-12.147000312805176 -43.55500030517578,-18.020999908447266z"></path></g><g opacity="1" transform="matrix(1,0,0,1,73.8949966430664,133.66000366210938)"><path stroke-linecap="round" stroke-linejoin="round" fill-opacity="0" stroke="rgb(82,98,130)" stroke-opacity="1" stroke-width="10" d=" M-43.55500030517578,-18.020999908447266 C-35.32500076293945,-36.507999420166016 -10.076000213623047,-48.433998107910156 8.324000358581543,-46.83300018310547 C34.34600067138672,-44.56999969482422 48.89400100708008,-32.534000396728516 45.83300018310547,-11.343999862670898 C44.07099914550781,0.8539999723434448 28.979000091552734,40.70399856567383 1.5529999732971191,44.56999969482422 C-25.87299919128418,48.435001373291016 -41.2400016784668,30.583999633789062 -46.22999954223633,11.270000457763672 C-48.89400100708008,0.9580000042915344 -46.16999816894531,-12.147000312805176 -43.55500030517578,-18.020999908447266z"></path></g><g opacity="1" transform="matrix(1,0,0,1,76.54299926757812,131.55299377441406)"><path fill="rgb(255,255,255)" fill-opacity="1" d=" M-34.14099884033203,-14.609000205993652 C-27.750999450683594,-29.483999252319336 -8.00100040435791,-39.01599884033203 6.423999786376953,-37.66699981689453 C26.823999404907227,-35.75899887084961 38.263999938964844,-26.010000228881836 35.93299865722656,-8.939000129699707 C34.59199905395508,0.8880000114440918 22.892000198364258,32.96099853515625 1.4110000133514404,35.98899841308594 C-20.06999969482422,39.01599884033203 -32.16999816894531,24.57699966430664 -36.143001556396484,8.993000030517578 C-38.263999938964844,0.671999990940094 -36.17100143432617,-9.881999969482422 -34.14099884033203,-14.609000205993652z"></path></g><g opacity="1" transform="matrix(1,0,0,1,0,0)"><g opacity="1" transform="matrix(1,0,0,1,66.25299835205078,135.05499267578125)"><path fill="rgb(33,15,58)" fill-opacity="1" d=" M18.774999618530273,-2.6459999084472656 C20.219999313354492,7.609000205993652 12.986000061035156,17.10700035095215 2.617000102996826,18.56800079345703 C-7.751999855041504,20.030000686645508 -17.32900047302246,12.901000022888184 -18.77400016784668,2.6459999084472656 C-20.219999313354492,-7.607999801635742 -12.986000061035156,-17.106000900268555 -2.617000102996826,-18.56800079345703 C7.751999855041504,-20.02899932861328 17.329999923706055,-12.901000022888184 18.774999618530273,-2.6459999084472656z"></path></g><g opacity="1" transform="matrix(1,0,0,1,68.21600341796875,143.34800720214844)"><path fill="rgb(27,93,147)" fill-opacity="1" d=" M-5.136000156402588,-6.3379998207092285 C-5.136000156402588,-6.3379998207092285 6.665999889373779,-9.835000038146973 10.163000106811523,-7.64900016784668 C13.65999984741211,-5.464000225067139 10.600000381469727,0.656000018119812 5.355000019073486,5.244999885559082 C0.10899999737739563,9.835000038146973 -11.036999702453613,2.8410000801086426 -12.347999572753906,-0.656000018119812 C-13.65999984741211,-4.1519999504089355 -5.136000156402588,-6.3379998207092285 -5.136000156402588,-6.3379998207092285z"></path></g><g opacity="1" transform="matrix(1,0,0,1,50.9010009765625,138.3679962158203)"><path fill="rgb(255,255,255)" fill-opacity="1" d=" M2.009000062942505,1.1330000162124634 C2.5329999923706055,4.85099983215332 1.2630000114440918,4.849999904632568 -2.496999979019165,5.379000186920166 C-6.256999969482422,5.908999919891357 -11.729000091552734,6.701000213623047 -12.253000259399414,2.9820001125335693 C-12.777000427246094,-0.7360000014305115 -6.489999771118164,-1.8229999542236328 -2.7300000190734863,-2.3529999256134033 C1.0299999713897705,-2.882999897003174 1.4850000143051147,-2.5850000381469727 2.009000062942505,1.1330000162124634z"></path></g><g opacity="1" transform="matrix(1,0,0,1,83.31400299072266,126.28500366210938)"><path fill="rgb(255,255,255)" fill-opacity="1" d=" M3.6570000648498535,-0.515999972820282 C3.944000005722046,1.5199999809265137 2.5399999618530273,3.4030001163482666 0.5199999809265137,3.687999963760376 C-1.4989999532699585,3.9719998836517334 -3.36899995803833,2.552000045776367 -3.6559998989105225,0.515999972820282 C-3.943000078201294,-1.5210000276565552 -2.5390000343322754,-3.4030001163482666 -0.5199999809265137,-3.687999963760376 C1.4989999532699585,-3.9719998836517334 3.369999885559082,-2.552000045776367 3.6570000648498535,-0.515999972820282z"></path></g></g></g></g><g style="display: block;" transform="matrix(1,0,0,1,177.93099975585938,248.68898010253906)" opacity="1"><g opacity="1" transform="matrix(1,0,0,1,0,0)"><g opacity="1" transform="matrix(1,0,0,1,45.520999908447266,63.70500183105469)"><path fill="rgb(161,55,14)" fill-opacity="0.3" d=" M-21.260000228881836,-21.22800064086914 C-21.260000228881836,-21.22800064086914 -17.309999465942383,1.524999976158142 -10.218000411987305,11.211999893188477 C-3.125,20.89900016784668 4.60699987411499,21.22800064086914 11.795000076293945,16.315000534057617 C18.982999801635742,11.402999877929688 21.259000778198242,-1.2079999446868896 20.81599998474121,-6.144000053405762 C20.37299919128418,-11.079000473022461 20.024999618530273,-13.164999961853027 19.155000686645508,-11.692999839782715 C18.285999298095703,-10.220000267028809 16.219999313354492,-0.052000001072883606 8.482000350952148,1.6540000438690186 C0.7450000047683716,3.359999895095825 -10.888999938964844,-2.118000030517578 -13.567000389099121,-8.180000305175781 C-16.2450008392334,-14.241999626159668 -21.260000228881836,-21.22800064086914 -21.260000228881836,-21.22800064086914z"></path></g><g opacity="1" transform="matrix(1,0,0,1,0,0)"><path fill="url(#__lottie_element_19)" fill-opacity="1" d=" M44.48500061035156,25.5939998626709 C44.48500061035156,25.5939998626709 27.035999298095703,27.479999542236328 26.381999969482422,40.18899917602539 C25.72800064086914,52.89799880981445 35.01599884033203,60.9119987487793 43.597999572753906,63.35100173950195 C56.79999923706055,67.10299682617188 69.08399963378906,66.36799621582031 63.45100021362305,46.555999755859375 C56.9119987487793,23.558000564575195 44.48500061035156,25.5939998626709 44.48500061035156,25.5939998626709z"></path></g><g opacity="1" transform="matrix(1,0,0,1,46.32600021362305,46.63199996948242)"><path stroke-linecap="round" stroke-linejoin="round" fill-opacity="0" stroke="rgb(188,97,57)" stroke-opacity="1" stroke-width="10" d=" M-21.326000213623047,-8.791999816894531 C-21.326000213623047,-8.791999816894531 -19.08099937438965,14.395000457763672 -3.7929999828338623,17.719999313354492 C14.194000244140625,21.631999969482422 21.326000213623047,4.767000198364258 15.871000289916992,-5.175000190734863 C10.50100040435791,-14.961000442504883 0.7170000076293945,-21.631999969482422 0.7170000076293945,-21.631999969482422"></path></g></g></g><g style="display: none;"><g><path stroke-linecap="round" stroke-linejoin="round" fill-opacity="0"></path></g><g><path fill="url(#__lottie_element_45)"></path></g><g><path stroke-linecap="round" stroke-linejoin="round" fill-opacity="0"></path></g><g><g><path stroke-linecap="round" stroke-linejoin="round" fill-opacity="0"></path></g><g><path stroke-linecap="round" stroke-linejoin="round" fill-opacity="0"></path></g><g><path stroke-linecap="round" stroke-linejoin="round" fill-opacity="0"></path></g><g><path stroke-linecap="round" stroke-linejoin="round" fill-opacity="0"></path></g><g><path stroke-linecap="round" stroke-linejoin="round" fill-opacity="0"></path></g><g><path stroke-linecap="round" stroke-linejoin="round" fill-opacity="0"></path></g><g><path stroke-linecap="round" stroke-linejoin="round" fill-opacity="0"></path></g><g><path stroke-linecap="round" stroke-linejoin="round" fill-opacity="0"></path></g><g><path stroke-linecap="round" stroke-linejoin="round" fill-opacity="0"></path></g><g><path stroke-linecap="round" stroke-linejoin="round" fill-opacity="0"></path></g></g><g><path></path></g><g><path stroke-linecap="round" stroke-linejoin="round" fill-opacity="0"></path></g><g><path stroke-linecap="round" stroke-linejoin="round" fill-opacity="0"></path></g><g><path></path></g><g><path></path></g><g><path stroke-linecap="round" stroke-linejoin="round" fill-opacity="0"></path></g><g><path></path></g><g><path></path></g><g><path stroke-linecap="round" stroke-linejoin="round" fill-opacity="0"></path></g><g><path stroke-linecap="round" stroke-linejoin="round" fill-opacity="0"></path></g><g><path stroke-linecap="round" stroke-linejoin="round" fill-opacity="0"></path></g><g><path></path></g><g><path stroke-linecap="round" stroke-linejoin="round" fill-opacity="0"></path></g></g><g style="display: none;"><g><path stroke-linecap="round" stroke-linejoin="round" fill-opacity="0"></path></g><g><path fill="url(#__lottie_element_41)"></path></g><g><path stroke-linecap="round" stroke-linejoin="round" fill-opacity="0"></path></g><g><g><path stroke-linecap="round" stroke-linejoin="round" fill-opacity="0"></path></g><g><path stroke-linecap="round" stroke-linejoin="round" fill-opacity="0"></path></g><g><path stroke-linecap="round" stroke-linejoin="round" fill-opacity="0"></path></g><g><path stroke-linecap="round" stroke-linejoin="round" fill-opacity="0"></path></g><g><path stroke-linecap="round" stroke-linejoin="round" fill-opacity="0"></path></g><g><path stroke-linecap="round" stroke-linejoin="round" fill-opacity="0"></path></g><g><path stroke-linecap="round" stroke-linejoin="round" fill-opacity="0"></path></g><g><path stroke-linecap="round" stroke-linejoin="round" fill-opacity="0"></path></g><g><path stroke-linecap="round" stroke-linejoin="round" fill-opacity="0"></path></g><g><path stroke-linecap="round" stroke-linejoin="round" fill-opacity="0"></path></g></g><g><path></path></g><g><path stroke-linecap="round" stroke-linejoin="round" fill-opacity="0"></path></g><g><path stroke-linecap="round" stroke-linejoin="round" fill-opacity="0"></path></g><g><path></path></g><g><path></path></g><g><path stroke-linecap="round" stroke-linejoin="round" fill-opacity="0"></path></g><g><path></path></g><g><path></path></g><g><path stroke-linecap="round" stroke-linejoin="round" fill-opacity="0"></path></g><g><path stroke-linecap="round" stroke-linejoin="round" fill-opacity="0"></path></g><g><path stroke-linecap="round" stroke-linejoin="round" fill-opacity="0"></path></g><g><path></path></g><g><path stroke-linecap="round" stroke-linejoin="round" fill-opacity="0"></path></g></g><g style="display: none;"><g><path></path></g></g><g style="display: none;"><g><path stroke-linecap="round" stroke-linejoin="round" fill-opacity="0"></path></g><g><path></path></g><g><path></path></g></g><g style="display: block;" transform="matrix(1,0,0,1,53.06599426269531,133.8109893798828)" opacity="1"><g opacity="1" transform="matrix(1,0,0,1,0,0)"><g opacity="1" transform="matrix(1,0,0,1,209.03700256347656,75.00399780273438)"><path fill="rgb(210,192,226)" fill-opacity="1" d=" M-50.1870002746582,9.609999656677246 C-52.499000549316406,0.17599999904632568 -52.04499816894531,-10.690999984741211 -39.79399871826172,-26.96299934387207 C-27.542999267578125,-43.23400115966797 -4.422999858856201,-50.00400161743164 13.053999900817871,-43.43899917602539 C30.530000686645508,-36.875 50.507999420166016,-16.118000030517578 51.57699966430664,12.821000099182129 C52.499000549316406,37.75899887084961 29.735000610351562,50.00400161743164 2.700000047683716,46.792999267578125 C-24.333999633789062,43.582000732421875 -46.2130012512207,25.826000213623047 -50.1870002746582,9.609999656677246z"></path></g><g opacity="1" transform="matrix(1,0,0,1,209.03700256347656,75.00399780273438)"><path stroke-linecap="round" stroke-linejoin="round" fill-opacity="0" stroke="rgb(82,98,130)" stroke-opacity="1" stroke-width="10" d=" M-50.1870002746582,9.609999656677246 C-52.499000549316406,0.17599999904632568 -52.04499816894531,-10.690999984741211 -39.79399871826172,-26.96299934387207 C-27.542999267578125,-43.23400115966797 -4.422999858856201,-50.00400161743164 13.053999900817871,-43.43899917602539 C30.530000686645508,-36.875 50.507999420166016,-16.118000030517578 51.57699966430664,12.821000099182129 C52.499000549316406,37.75899887084961 29.735000610351562,50.00400161743164 2.700000047683716,46.792999267578125 C-24.333999633789062,43.582000732421875 -46.2130012512207,25.826000213623047 -50.1870002746582,9.609999656677246z"></path></g><g opacity="1" transform="matrix(1,0,0,1,212.5030059814453,72.68099975585938)"><path fill="rgb(255,255,255)" fill-opacity="1" d=" M-38.6619987487793,7.4029998779296875 C-40.44300079345703,0.13600000739097595 -40.09400177001953,-8.236000061035156 -30.6560001373291,-20.77199935913086 C-21.216999053955078,-33.30699920654297 -3.4079999923706055,-38.52199935913086 10.055000305175781,-33.4640007019043 C23.518999099731445,-28.406999588012695 38.90999984741211,-12.416999816894531 39.73400115966797,9.876999855041504 C40.444000244140625,29.08799934387207 22.9060001373291,38.52199935913086 2.0799999237060547,36.04800033569336 C-18.746999740600586,33.57400131225586 -35.60100173950195,19.895000457763672 -38.6619987487793,7.4029998779296875z"></path></g><g opacity="1" transform="matrix(1,0,0,1,0,0)"><g opacity="1" transform="matrix(1,0,0,1,220.76699829101562,74.41200256347656)"><path fill="rgb(33,15,58)" fill-opacity="1" d=" M17.934999465942383,-2.5280001163482666 C19.343000411987305,7.460999965667725 12.454000473022461,16.690000534057617 2.5490000247955322,18.086000442504883 C-7.355999946594238,19.48200035095215 -16.525999069213867,12.515999794006348 -17.93400001525879,2.5280001163482666 C-19.341999053955078,-7.460999965667725 -12.454000473022461,-16.690000534057617 -2.5490000247955322,-18.086000442504883 C7.355999946594238,-19.48200035095215 16.527000427246094,-12.517000198364258 17.934999465942383,-2.5280001163482666z"></path></g><g opacity="1" transform="matrix(1,0,0,1,222.22799682617188,83.56300354003906)"><path fill="rgb(27,93,147)" fill-opacity="1" d=" M-5.002999782562256,-6.175000190734863 C-5.002999782562256,-6.175000190734863 6.49399995803833,-9.581000328063965 9.901000022888184,-7.452000141143799 C13.307999610900879,-5.322000026702881 10.326000213623047,0.6380000114440918 5.216000080108643,5.110000133514404 C0.10599999874830246,9.581000328063965 -10.751999855041504,2.7679998874664307 -12.029000282287598,-0.6389999985694885 C-13.307000160217285,-4.046000003814697 -5.002999782562256,-6.175000190734863 -5.002999782562256,-6.175000190734863z"></path></g><g opacity="1" transform="matrix(1,0,0,1,205.88800048828125,80.49400329589844)"><path fill="rgb(255,255,255)" fill-opacity="1" d=" M5.394999980926514,-0.8629999756813049 C7.383999824523926,3.1070001125335693 0.23199999332427979,3.0969998836517334 -4.127999782562256,3.7119998931884766 C-8.48799991607666,4.326000213623047 -11.276000022888184,6.010000228881836 -11.895000457763672,1.6130000352859497 C-12.515000343322754,-2.7850000858306885 -7.982999801635742,-0.847000002861023 -3.621999979019165,-1.4620000123977661 C0.7379999756813049,-2.0769999027252197 4.296999931335449,-3.055999994277954 5.394999980926514,-0.8629999756813049z"></path></g><g opacity="1" transform="matrix(1,0,0,1,237.5760040283203,69.81500244140625)"><path fill="rgb(255,255,255)" fill-opacity="1" d=" M3.562000036239624,-0.5019999742507935 C3.8420000076293945,1.4819999933242798 2.4730000495910645,3.315000057220459 0.5059999823570251,3.5920000076293945 C-1.4609999656677246,3.86899995803833 -3.2820000648498535,2.4860000610351562 -3.562000036239624,0.5019999742507935 C-3.8420000076293945,-1.4819999933242798 -2.4739999771118164,-3.315000057220459 -0.5059999823570251,-3.5920000076293945 C1.4609999656677246,-3.86899995803833 3.2820000648498535,-2.4860000610351562 3.562000036239624,-0.5019999742507935z"></path></g></g></g><g opacity="1" transform="matrix(1,0,0,1,0,0)"><g opacity="1" transform="matrix(1,0,0,1,73.8949966430664,133.66000366210938)"><path fill="rgb(210,192,226)" fill-opacity="1" d=" M-43.55500030517578,-18.020999908447266 C-35.32500076293945,-36.507999420166016 -10.076000213623047,-48.433998107910156 8.324000358581543,-46.83300018310547 C34.34600067138672,-44.56999969482422 48.89400100708008,-32.534000396728516 45.83300018310547,-11.343999862670898 C44.07099914550781,0.8539999723434448 28.979000091552734,40.70399856567383 1.5529999732971191,44.56999969482422 C-25.87299919128418,48.435001373291016 -41.2400016784668,30.583999633789062 -46.22999954223633,11.270000457763672 C-48.89400100708008,0.9580000042915344 -46.16999816894531,-12.147000312805176 -43.55500030517578,-18.020999908447266z"></path></g><g opacity="1" transform="matrix(1,0,0,1,73.8949966430664,133.66000366210938)"><path stroke-linecap="round" stroke-linejoin="round" fill-opacity="0" stroke="rgb(82,98,130)" stroke-opacity="1" stroke-width="10" d=" M-43.55500030517578,-18.020999908447266 C-35.32500076293945,-36.507999420166016 -10.076000213623047,-48.433998107910156 8.324000358581543,-46.83300018310547 C34.34600067138672,-44.56999969482422 48.89400100708008,-32.534000396728516 45.83300018310547,-11.343999862670898 C44.07099914550781,0.8539999723434448 28.979000091552734,40.70399856567383 1.5529999732971191,44.56999969482422 C-25.87299919128418,48.435001373291016 -41.2400016784668,30.583999633789062 -46.22999954223633,11.270000457763672 C-48.89400100708008,0.9580000042915344 -46.16999816894531,-12.147000312805176 -43.55500030517578,-18.020999908447266z"></path></g><g opacity="1" transform="matrix(1,0,0,1,76.54299926757812,131.55299377441406)"><path fill="rgb(255,255,255)" fill-opacity="1" d=" M-34.14099884033203,-14.609000205993652 C-27.750999450683594,-29.483999252319336 -8.00100040435791,-39.01599884033203 6.423999786376953,-37.66699981689453 C26.823999404907227,-35.75899887084961 38.263999938964844,-26.010000228881836 35.93299865722656,-8.939000129699707 C34.59199905395508,0.8880000114440918 22.892000198364258,32.96099853515625 1.4110000133514404,35.98899841308594 C-20.06999969482422,39.01599884033203 -32.16999816894531,24.57699966430664 -36.143001556396484,8.993000030517578 C-38.263999938964844,0.671999990940094 -36.17100143432617,-9.881999969482422 -34.14099884033203,-14.609000205993652z"></path></g><g opacity="1" transform="matrix(1,0,0,1,0,0)"><g opacity="1" transform="matrix(1,0,0,1,66.25299835205078,135.05499267578125)"><path fill="rgb(33,15,58)" fill-opacity="1" d=" M18.774999618530273,-2.6459999084472656 C20.219999313354492,7.609000205993652 12.986000061035156,17.10700035095215 2.617000102996826,18.56800079345703 C-7.751999855041504,20.030000686645508 -17.32900047302246,12.901000022888184 -18.77400016784668,2.6459999084472656 C-20.219999313354492,-7.607999801635742 -12.986000061035156,-17.106000900268555 -2.617000102996826,-18.56800079345703 C7.751999855041504,-20.02899932861328 17.329999923706055,-12.901000022888184 18.774999618530273,-2.6459999084472656z"></path></g><g opacity="1" transform="matrix(1,0,0,1,68.21600341796875,143.34800720214844)"><path fill="rgb(27,93,147)" fill-opacity="1" d=" M-5.136000156402588,-6.3379998207092285 C-5.136000156402588,-6.3379998207092285 6.665999889373779,-9.835000038146973 10.163000106811523,-7.64900016784668 C13.65999984741211,-5.464000225067139 10.600000381469727,0.656000018119812 5.355000019073486,5.244999885559082 C0.10899999737739563,9.835000038146973 -11.036999702453613,2.8410000801086426 -12.347999572753906,-0.656000018119812 C-13.65999984741211,-4.1519999504089355 -5.136000156402588,-6.3379998207092285 -5.136000156402588,-6.3379998207092285z"></path></g><g opacity="1" transform="matrix(1,0,0,1,50.9010009765625,138.3679962158203)"><path fill="rgb(255,255,255)" fill-opacity="1" d=" M2.009000062942505,1.1330000162124634 C2.5329999923706055,4.85099983215332 1.2630000114440918,4.849999904632568 -2.496999979019165,5.379000186920166 C-6.256999969482422,5.908999919891357 -11.729000091552734,6.701000213623047 -12.253000259399414,2.9820001125335693 C-12.777000427246094,-0.7360000014305115 -6.489999771118164,-1.8229999542236328 -2.7300000190734863,-2.3529999256134033 C1.0299999713897705,-2.882999897003174 1.4850000143051147,-2.5850000381469727 2.009000062942505,1.1330000162124634z"></path></g><g opacity="1" transform="matrix(1,0,0,1,83.31400299072266,126.28500366210938)"><path fill="rgb(255,255,255)" fill-opacity="1" d=" M3.6570000648498535,-0.515999972820282 C3.944000005722046,1.5199999809265137 2.5399999618530273,3.4030001163482666 0.5199999809265137,3.687999963760376 C-1.4989999532699585,3.9719998836517334 -3.36899995803833,2.552000045776367 -3.6559998989105225,0.515999972820282 C-3.943000078201294,-1.5210000276565552 -2.5390000343322754,-3.4030001163482666 -0.5199999809265137,-3.687999963760376 C1.4989999532699585,-3.9719998836517334 3.369999885559082,-2.552000045776367 3.6570000648498535,-0.515999972820282z"></path></g></g></g></g><g style="display: block;" transform="matrix(0.7155754566192627,-0.5756664872169495,0.5756664872169495,0.7155754566192627,216.47901916503906,236.10540771484375)" opacity="1"><g opacity="0" transform="matrix(1,0,0,1,0,0)"><path fill="rgb(255,217,190)" fill-opacity="1" d=" M-104.5,-84.5 C-137.5,-82 -146.5070037841797,-55.858001708984375 -149.5,-38.5 C-152,-24 -148.67300415039062,-99.22699737548828 -84,-80.5 C-42.196998596191406,-68.3949966430664 -36.50600051879883,-38.36399841308594 -45.084999084472656,-20.94499969482422 C-51.22200012207031,-8.484999656677246 -68.55400085449219,-2.9079999923706055 -65.5,-4 C-53.67300033569336,-8.22700023651123 -37.5,-20.5 -41.5,-41 C-45.04399871826172,-59.1609992980957 -64.63800048828125,-81.1760025024414 -92.46299743652344,-83.88300323486328 C-96.0469970703125,-84.23200225830078 -100.73400115966797,-84.78500366210938 -104.5,-84.5z"></path><path stroke-linecap="butt" stroke-linejoin="miter" fill-opacity="0" stroke-miterlimit="4" stroke="rgb(205,100,54)" stroke-opacity="1" stroke-width="11" d=" M-104.5,-84.5 C-137.5,-82 -146.5070037841797,-55.858001708984375 -149.5,-38.5 C-152,-24 -148.67300415039062,-99.22699737548828 -84,-80.5 C-42.196998596191406,-68.3949966430664 -36.50600051879883,-38.36399841308594 -45.084999084472656,-20.94499969482422 C-51.22200012207031,-8.484999656677246 -68.55400085449219,-2.9079999923706055 -65.5,-4 C-53.67300033569336,-8.22700023651123 -37.5,-20.5 -41.5,-41 C-45.04399871826172,-59.1609992980957 -64.63800048828125,-81.1760025024414 -92.46299743652344,-83.88300323486328 C-96.0469970703125,-84.23200225830078 -100.73400115966797,-84.78500366210938 -104.5,-84.5z"></path></g><g opacity="0" transform="matrix(1,0,0,1,0,0)"><path fill="rgb(255,217,190)" fill-opacity="1" d=" M63.5890007019043,-43.35499954223633 C32.0890007019043,-48.35499954223633 14.58899974822998,-35.85499954223633 7.589000225067139,-20.854999542236328 C3.505000114440918,-12.104000091552734 3.122999906539917,1.090999960899353 5.589000225067139,12.645000457763672 C9.253000259399414,29.815000534057617 -12.37600040435791,-54.409000396728516 69.08999633789062,-39.35499954223633 C101.40299987792969,-33.38399887084961 108.03800201416016,-5.563000202178955 105.93000030517578,16.16900062561035 C104.02999877929688,35.75400161743164 94.63999938964844,51.000999450683594 98.66799926757812,45.81700134277344 C106.15899658203125,36.176998138427734 105.63999938964844,31.715999603271484 107.08899688720703,16.645000457763672 C109.58899688720703,-9.354999542236328 98.01799774169922,-37.88999938964844 63.5890007019043,-43.35499954223633z"></path><path stroke-linecap="butt" stroke-linejoin="miter" fill-opacity="0" stroke-miterlimit="4" stroke="rgb(205,100,54)" stroke-opacity="1" stroke-width="11" d=" M63.5890007019043,-43.35499954223633 C32.0890007019043,-48.35499954223633 14.58899974822998,-35.85499954223633 7.589000225067139,-20.854999542236328 C3.505000114440918,-12.104000091552734 3.122999906539917,1.090999960899353 5.589000225067139,12.645000457763672 C9.253000259399414,29.815000534057617 -12.37600040435791,-54.409000396728516 69.08999633789062,-39.35499954223633 C101.40299987792969,-33.38399887084961 108.03800201416016,-5.563000202178955 105.93000030517578,16.16900062561035 C104.02999877929688,35.75400161743164 94.63999938964844,51.000999450683594 98.66799926757812,45.81700134277344 C106.15899658203125,36.176998138427734 105.63999938964844,31.715999603271484 107.08899688720703,16.645000457763672 C109.58899688720703,-9.354999542236328 98.01799774169922,-37.88999938964844 63.5890007019043,-43.35499954223633z"></path></g></g></g></g></svg>