<svg xmlns="http://www.w3.org/2000/svg" xmlns:xlink="http://www.w3.org/1999/xlink" viewBox="0 0 512 512" width="512" height="512" style="width: 100%; height: 100%; transform: translate3d(0,0,0); content-visibility: visible;" preserveAspectRatio="xMidYMid meet"><defs><clipPath id="__lottie_element_2"><rect width="512" height="512" x="0" y="0"></rect></clipPath><clipPath id="__lottie_element_7"><path d="M0,0 L512,0 L512,512 L0,512z"></path></clipPath><radialGradient id="__lottie_element_18" spreadMethod="pad" gradientUnits="userSpaceOnUse" cx="-24.378999710083008" cy="-135.4720001220703" r="271.3535564604293" fx="-24.378999710083008" fy="-135.4720001220703"><stop offset="0%" stop-color="rgb(255,218,191)"></stop><stop offset="43%" stop-color="rgb(255,197,168)"></stop><stop offset="100%" stop-color="rgb(254,177,144)"></stop></radialGradient></defs><g clip-path="url(#__lottie_element_2)"><g clip-path="url(#__lottie_element_7)" style="display: block;" transform="matrix(0.9296900033950806,0,0,0.9296900033950806,15.999359130859375,20.999359130859375)" opacity="1"><g style="display: block;" transform="matrix(1.0017882585525513,-0.03750428184866905,0.03765654191374779,1.0058553218841553,-31.586883544921875,-17.1094970703125)" opacity="1"><g opacity="1" transform="matrix(1,0,0,1,255.82400512695312,250.53799438476562)"><path fill="rgb(241,143,100)" fill-opacity="1" d=" M-113.44300079345703,-129.6649932861328 C-105.81500244140625,-137.83799743652344 -78.76200103759766,-180.81300354003906 -64.41100311279297,-187.07699584960938 C-51.18899917602539,-192.843994140625 55.349998474121094,-218.0500030517578 116.9209976196289,-188.08200073242188 C178.49200439453125,-158.11399841308594 210.32699584960938,-102.41200256347656 221.22500610351562,-73.53299713134766 C232.1219940185547,-44.654998779296875 204.5229949951172,-2.609999895095825 211.5279998779297,8.062999725341797 C228.6909942626953,34.21699905395508 245.4720001220703,77.32099914550781 242.8000030517578,101.36900329589844 C239.531005859375,130.79299926757812 200.2729949951172,188.60699462890625 147.2030029296875,209.08999633789062 C85.08699798583984,233.06500244140625 19.520000457763672,219.98199462890625 5.043000221252441,223.16000366210938 C-9.177000045776367,226.28199768066406 -52.07699966430664,241.3990020751953 -65.61599731445312,238.28799438476562 C-105.677001953125,229.08399963378906 -145.72799682617188,195.50399780273438 -151.7220001220703,187.3300018310547 C-157.71499633789062,179.15699768066406 -157.91200256347656,153.01600646972656 -177.77200317382812,128.8179931640625 C-189.96499633789062,114.00800323486328 -217.46099853515625,25.597000122070312 -205.60699462890625,-29.933000564575195 C-193.7550048828125,-85.41200256347656 -173.34500122070312,-104.04499816894531 -160.9459991455078,-110.06700134277344 C-132.33999633789062,-123.96199798583984 -121.07099914550781,-121.49199676513672 -113.44300079345703,-129.6649932861328z"></path><path stroke-linecap="butt" stroke-linejoin="miter" fill-opacity="0" stroke-miterlimit="10" stroke="rgb(173,92,37)" stroke-opacity="1" stroke-width="13" d=" M-113.44300079345703,-129.6649932861328 C-105.81500244140625,-137.83799743652344 -78.76200103759766,-180.81300354003906 -64.41100311279297,-187.07699584960938 C-51.18899917602539,-192.843994140625 55.349998474121094,-218.0500030517578 116.9209976196289,-188.08200073242188 C178.49200439453125,-158.11399841308594 210.32699584960938,-102.41200256347656 221.22500610351562,-73.53299713134766 C232.1219940185547,-44.654998779296875 204.5229949951172,-2.609999895095825 211.5279998779297,8.062999725341797 C228.6909942626953,34.21699905395508 245.4720001220703,77.32099914550781 242.8000030517578,101.36900329589844 C239.531005859375,130.79299926757812 200.2729949951172,188.60699462890625 147.2030029296875,209.08999633789062 C85.08699798583984,233.06500244140625 19.520000457763672,219.98199462890625 5.043000221252441,223.16000366210938 C-9.177000045776367,226.28199768066406 -52.07699966430664,241.3990020751953 -65.61599731445312,238.28799438476562 C-105.677001953125,229.08399963378906 -145.72799682617188,195.50399780273438 -151.7220001220703,187.3300018310547 C-157.71499633789062,179.15699768066406 -157.91200256347656,153.01600646972656 -177.77200317382812,128.8179931640625 C-189.96499633789062,114.00800323486328 -217.46099853515625,25.597000122070312 -205.60699462890625,-29.933000564575195 C-193.7550048828125,-85.41200256347656 -173.34500122070312,-104.04499816894531 -160.9459991455078,-110.06700134277344 C-132.33999633789062,-123.96199798583984 -121.07099914550781,-121.49199676513672 -113.44300079345703,-129.6649932861328z"></path></g><g opacity="1" transform="matrix(1,0,0,1,243.74099731445312,243.906005859375)"><path fill="url(#__lottie_element_18)" fill-opacity="1" d=" M-118.68800354003906,-106.65299987792969 C-118.68800354003906,-106.65299987792969 -94.51899719238281,-112.93000030517578 -87.85199737548828,-120.04000091552734 C-81.18599700927734,-127.1500015258789 -63.409000396728516,-164.3489990234375 -52.650001525878906,-167.13400268554688 C-40.74700164794922,-170.21499633789062 38.01300048828125,-193.968994140625 91.8219985961914,-167.8979949951172 C145.63099670410156,-141.82699584960938 168.20199584960938,-113.41999816894531 177.7259979248047,-88.2979965209961 C187.24899291992188,-63.17499923706055 164.75399780273438,-13.92300033569336 171.89700317382812,-5.389999866485596 C179.03900146484375,3.1419999599456787 192.9720001220703,60.3120002746582 190.63699340820312,81.23300170898438 C187.77999877929688,106.83000183105469 166.6790008544922,143.10000610351562 120.29900360107422,160.91900634765625 C66.01300048828125,181.7760009765625 -1.187999963760376,189.39100646972656 -13.569000244140625,193.18299865722656 C-25.950000762939453,196.97500610351562 -46.8650016784668,203.40699768066406 -58.77000045776367,201.03700256347656 C-70.67500305175781,198.66700744628906 -126.73600006103516,175.7259979248047 -131.9739990234375,168.61599731445312 C-137.21200561523438,161.5050048828125 -145.46299743652344,133.97500610351562 -154.1179962158203,118.43699645996094 C-162.2689971923828,103.80400085449219 -196.9759979248047,29.7810001373291 -186.5,-18.56800079345703 C-176.0229949951172,-66.91699981689453 -151.06900024414062,-94.3280029296875 -139.63999938964844,-98.12000274658203 C-128.21200561523438,-101.91200256347656 -118.68800354003906,-106.65299987792969 -118.68800354003906,-106.65299987792969z"></path></g></g><g style="display: block;" transform="matrix(1.0017882585525513,-0.03750428184866905,0.03765654191374779,1.0058553218841553,163.65419006347656,89.8564453125)" opacity="1"><g opacity="1" transform="matrix(1,0,0,1,42.77299880981445,41.332000732421875)"><path stroke-linecap="round" stroke-linejoin="round" fill-opacity="0" stroke="rgb(211,117,70)" stroke-opacity="1" stroke-width="9" d=" M31.22800064086914,-36.5989990234375 C18.87299919128418,-2.0820000171661377 -22.305999755859375,20.2810001373291 -22.305999755859375,20.2810001373291"></path></g><g opacity="1" transform="matrix(1,0,0,1,51.50899887084961,74.91000366210938)"><path fill="rgb(221,133,98)" fill-opacity="1" d=" M-25.97800064086914,5.504000186920166 C-25.97800064086914,5.504000186920166 -39.21799850463867,5.635000228881836 -39.34000015258789,-4.908999919891357 C-39.46200180053711,-15.45300006866455 -33.650001525878906,-16.836000442504883 -23.790000915527344,-18.893999099731445 C-13.930000305175781,-20.95199966430664 -5.599999904632568,-29.341999053955078 5.927000045776367,-25.118000030517578 C14.897000312805176,-21.83099937438965 20.28700065612793,-11.83899974822998 24.187000274658203,-5.370999813079834 C28.086999893188477,1.097000002861023 40.13600158691406,8.805000305175781 32.263999938964844,21.49799919128418 C27.915000915527344,28.510000228881836 14.298999786376953,26.577999114990234 6.130000114440918,19.291000366210938 C-0.3479999899864197,13.51200008392334 -4.01200008392334,4.591000080108643 -9.930000305175781,4.204999923706055 C-15.847999572753906,3.818000078201294 -25.97800064086914,5.504000186920166 -25.97800064086914,5.504000186920166z"></path></g><g opacity="0.38" transform="matrix(1,0,0,1,29.44300079345703,106.88700103759766)"><path stroke-linecap="round" stroke-linejoin="round" fill-opacity="0" stroke="rgb(211,117,70)" stroke-opacity="1" stroke-width="9.39" d=" M10.86400032043457,-17.8439998626709 C10.86400032043457,-17.8439998626709 0.7480000257492065,-11.281999588012695 -5.2179999351501465,-2.614000082015991 C-10.074999809265137,4.442999839782715 -14.043999671936035,11.505000114440918 -15.020000457763672,13.027000427246094 C-15.996000289916992,14.548999786376953 -19.27899932861328,16.097000122070312 -19.27899932861328,16.097000122070312"></path></g><g opacity="1" transform="matrix(1,0,0,1,27.180999755859375,70.18399810791016)"><path fill="rgb(117,60,47)" fill-opacity="1" d=" M-7.855000019073486,-4.267000198364258 C-7.855000019073486,-4.267000198364258 10.008000373840332,-9.932999610900879 11.831000328063965,-6.798999786376953 C14.065999984741211,-2.9549999237060547 9.692000389099121,4.039000034332275 4.1020002365112305,7.229000091552734 C-0.6370000243186951,9.934000015258789 -11.968000411987305,4.802000045776367 -12.788000106811523,0.6639999747276306 C-14.065999984741211,-5.7870001792907715 -7.855000019073486,-4.267000198364258 -7.855000019073486,-4.267000198364258z"></path></g><g opacity="1" transform="matrix(1,0,0,1,70.15699768066406,82.42900085449219)"><path fill="rgb(117,60,47)" fill-opacity="1" d=" M-15.015000343322754,-1.9630000591278076 C-15.015000343322754,-1.9630000591278076 -10.529999732971191,-14.37399959564209 -5.052999973297119,-10.467000007629395 C0.4230000078678131,-6.559999942779541 15.595000267028809,11.49899959564209 7.5279998779296875,14.338000297546387 C0.40700000524520874,16.8439998626709 -9.517000198364258,8.722000122070312 -12.364999771118164,6.074999809265137 C-15.213000297546387,3.427000045776367 -15.015000343322754,-1.9630000591278076 -15.015000343322754,-1.9630000591278076z"></path></g></g><g style="display: block;" transform="matrix(1.0017882585525513,-0.03750428184866905,0.03765654191374779,1.0058553218841553,40.276397705078125,129.56446838378906)" opacity="1"><g opacity="1" transform="matrix(1,0,0,1,0,0)"><g opacity="1" transform="matrix(1,0,0,1,159.70399475097656,141.51199340820312)"><path fill="rgb(63,31,20)" fill-opacity="1" d=" M-105.67900085449219,-112.55400085449219 C-105.67900085449219,-112.55400085449219 -75.46800231933594,-74.375 -58.68000030517578,-58.85499954223633 C-41.89099884033203,-43.334999084472656 -24.750999450683594,-27.79199981689453 -14.54699993133545,-26.871999740600586 C-4.3429999351501465,-25.95199966430664 52.66600036621094,-30.32900047302246 73.80899810791016,-34.09199905395508 C94.9520034790039,-37.85499954223633 125.87000274658203,-42.76300048828125 133.82400512695312,-36.8129997253418 C141.7790069580078,-30.863000869750977 142.1269989013672,14.458000183105469 127.50700378417969,47.154998779296875 C112.88800048828125,79.85199737548828 74.63800048828125,118.1520004272461 -3.5350000858306885,121.9010009765625 C-96.59300231933594,126.36299896240234 -137.13800048828125,50.39899826049805 -139.39100646972656,9.36299991607666 C-141.73199462890625,-33.28200149536133 -116.50499725341797,-95.70500183105469 -109.51200103759766,-104.12999725341797 C-102.51899719238281,-112.55500030517578 -105.67900085449219,-112.55400085449219 -105.67900085449219,-112.55400085449219z"></path><path stroke-linecap="round" stroke-linejoin="round" fill-opacity="0" stroke="rgb(81,36,14)" stroke-opacity="1" stroke-width="7.17" d=" M-105.67900085449219,-112.55400085449219 C-105.67900085449219,-112.55400085449219 -75.46800231933594,-74.375 -58.68000030517578,-58.85499954223633 C-41.89099884033203,-43.334999084472656 -24.750999450683594,-27.79199981689453 -14.54699993133545,-26.871999740600586 C-4.3429999351501465,-25.95199966430664 52.66600036621094,-30.32900047302246 73.80899810791016,-34.09199905395508 C94.9520034790039,-37.85499954223633 125.87000274658203,-42.76300048828125 133.82400512695312,-36.8129997253418 C141.7790069580078,-30.863000869750977 142.1269989013672,14.458000183105469 127.50700378417969,47.154998779296875 C112.88800048828125,79.85199737548828 74.63800048828125,118.1520004272461 -3.5350000858306885,121.9010009765625 C-96.59300231933594,126.36299896240234 -137.13800048828125,50.39899826049805 -139.39100646972656,9.36299991607666 C-141.73199462890625,-33.28200149536133 -116.50499725341797,-95.70500183105469 -109.51200103759766,-104.12999725341797 C-102.51899719238281,-112.55500030517578 -105.67900085449219,-112.55400085449219 -105.67900085449219,-112.55400085449219z"></path></g><g opacity="1" transform="matrix(1,0,0,1,154.4199981689453,179.15499877929688)"><path fill="rgb(247,84,127)" fill-opacity="1" d=" M-31.533000946044922,-48.5359992980957 C-31.533000946044922,-48.5359992980957 -86.25199890136719,-71.8270034790039 -110.25800323486328,-60.49800109863281 C-134.26400756835938,-49.16999816894531 -133.1840057373047,-23.459999084472656 -123.78099822998047,1.1139999628067017 C-113.04199981689453,29.179000854492188 -74.81600189208984,63.73699951171875 -44.007999420166016,71.6449966430664 C-8.258999824523926,80.82099914550781 47.08000183105469,76.62899780273438 80.05799865722656,54.61600112915039 C113.71600341796875,32.150001525878906 133.24000549316406,7.473999977111816 134.0780029296875,-13.484999656677246 C134.61099243164062,-26.81599998474121 134.28599548339844,-43.867000579833984 126.12699890136719,-44.70500183105469 C117.96800231933594,-45.54399871826172 8.550000190734863,-37.630001068115234 -0.6110000014305115,-39.02000045776367 C-9.770999908447266,-40.40999984741211 -31.533000946044922,-48.5359992980957 -31.533000946044922,-48.5359992980957z"></path><path stroke-linecap="round" stroke-linejoin="round" fill-opacity="0" stroke="rgb(188,64,100)" stroke-opacity="1" stroke-width="6.327" d=" M-31.533000946044922,-48.5359992980957 C-31.533000946044922,-48.5359992980957 -86.25199890136719,-71.8270034790039 -110.25800323486328,-60.49800109863281 C-134.26400756835938,-49.16999816894531 -133.1840057373047,-23.459999084472656 -123.78099822998047,1.1139999628067017 C-113.04199981689453,29.179000854492188 -74.81600189208984,63.73699951171875 -44.007999420166016,71.6449966430664 C-8.258999824523926,80.82099914550781 47.08000183105469,76.62899780273438 80.05799865722656,54.61600112915039 C113.71600341796875,32.150001525878906 133.24000549316406,7.473999977111816 134.0780029296875,-13.484999656677246 C134.61099243164062,-26.81599998474121 134.28599548339844,-43.867000579833984 126.12699890136719,-44.70500183105469 C117.96800231933594,-45.54399871826172 8.550000190734863,-37.630001068115234 -0.6110000014305115,-39.02000045776367 C-9.770999908447266,-40.40999984741211 -31.533000946044922,-48.5359992980957 -31.533000946044922,-48.5359992980957z"></path></g><g opacity="1" transform="matrix(1,0,0,1,77.23300170898438,41.79899978637695)"><path stroke-linecap="round" stroke-linejoin="round" fill-opacity="0" stroke="rgb(211,117,70)" stroke-opacity="1" stroke-width="14" d=" M56.45100021362305,-24.389999389648438 C56.45100021362305,-24.389999389648438 23.638999938964844,-31.68199920654297 -12.315999984741211,-27.163999557495117 C-40.31999969482422,-23.645000457763672 -39.5099983215332,-9.659000396728516 -43.374000549316406,-2.6449999809265137 C-47.23899841308594,4.36899995803833 -56.45100021362305,31.68199920654297 -56.45100021362305,31.68199920654297"></path></g><g opacity="1" transform="matrix(1,0,0,1,297.4849853515625,137.23199462890625)"><path stroke-linecap="round" stroke-linejoin="round" fill-opacity="0" stroke="rgb(211,117,70)" stroke-opacity="1" stroke-width="14" d=" M-30.69099998474121,-62.93299865722656 C-30.69099998474121,-62.93299865722656 -6.810999870300293,-46.047000885009766 4.998000144958496,-34.05500030517578 C20.07900047302246,-18.73900032043457 27.2549991607666,-4.718999862670898 28.972999572753906,3.5420000553131104 C30.69099998474121,11.803000450134277 10.446999549865723,62.93299865722656 10.446999549865723,62.93299865722656"></path></g></g></g><g style="display: block;" transform="matrix(1.0017882585525513,-0.03750428184866905,0.03765654191374779,1.0058553218841553,71.49794006347656,215.34576416015625)" opacity="1"><g opacity="1" transform="matrix(1,0,0,1,135.08700561523438,84.28099822998047)"></g><g opacity="1" transform="matrix(1,0,0,1,135.08700561523438,84.28099822998047)"><path fill="rgb(204,37,77)" fill-opacity="1" d=" M-80.08499908447266,-61.78099822998047 C-80.08499908447266,-61.78099822998047 -112.58799743652344,-42.849998474121094 -111.00299835205078,-18.469999313354492 C-109.41799926757812,5.909999847412109 -83.9469985961914,25.163000106811523 -74.6240005493164,32.137001037597656 C-62.69300079345703,41.0629997253418 -48.14899826049805,44.46200180053711 -41.4370002746582,47.290000915527344 C-34.7239990234375,50.11800003051758 -5.181000232696533,61.779998779296875 37.32400131225586,53.40599822998047 C79.8290023803711,45.03200149536133 98.48300170898438,5.697000026702881 101.90699768066406,-5.257999897003174 C105.33100128173828,-16.21299934387207 112.58799743652344,-37.68000030517578 112.58799743652344,-37.68000030517578 C112.58799743652344,-37.68000030517578 -13.128000259399414,-30.334999084472656 -13.128000259399414,-30.334999084472656 C-13.128000259399414,-30.334999084472656 -43.82899856567383,-52.03900146484375 -43.82899856567383,-52.03900146484375 C-43.82899856567383,-52.03900146484375 -80.08499908447266,-61.78099822998047 -80.08499908447266,-61.78099822998047z"></path><path stroke-linecap="round" stroke-linejoin="round" fill-opacity="0" stroke="rgb(142,22,51)" stroke-opacity="1" stroke-width="9" d=" M-80.08499908447266,-61.78099822998047 C-80.08499908447266,-61.78099822998047 -112.58799743652344,-42.849998474121094 -111.00299835205078,-18.469999313354492 C-109.41799926757812,5.909999847412109 -83.9469985961914,25.163000106811523 -74.6240005493164,32.137001037597656 C-62.69300079345703,41.0629997253418 -48.14899826049805,44.46200180053711 -41.4370002746582,47.290000915527344 C-34.7239990234375,50.11800003051758 -5.181000232696533,61.779998779296875 37.32400131225586,53.40599822998047 C79.8290023803711,45.03200149536133 98.48300170898438,5.697000026702881 101.90699768066406,-5.257999897003174 C105.33100128173828,-16.21299934387207 112.58799743652344,-37.68000030517578 112.58799743652344,-37.68000030517578 C112.58799743652344,-37.68000030517578 -13.128000259399414,-30.334999084472656 -13.128000259399414,-30.334999084472656 C-13.128000259399414,-30.334999084472656 -43.82899856567383,-52.03900146484375 -43.82899856567383,-52.03900146484375 C-43.82899856567383,-52.03900146484375 -80.08499908447266,-61.78099822998047 -80.08499908447266,-61.78099822998047z"></path></g><g opacity="1" transform="matrix(1,0,0,1,129.1219940185547,73.37999725341797)"><path fill="rgb(249,53,95)" fill-opacity="1" d=" M-65.67400360107422,-50.66299819946289 C-65.67400360107422,-50.66299819946289 -92.3270034790039,-35.13999938964844 -91.0270004272461,-15.147000312805176 C-89.72699737548828,4.8460001945495605 -68.83999633789062,20.63599967956543 -61.19499969482422,26.354999542236328 C-51.4109992980957,33.67399978637695 -39.48400115966797,36.459999084472656 -33.97999954223633,38.77899932861328 C-28.475000381469727,41.097999572753906 -4.249000072479248,50.66299819946289 30.60700035095215,43.79600143432617 C65.46399688720703,36.92900085449219 80.76000213623047,4.671000003814697 83.56800079345703,-4.311999797821045 C86.3759994506836,-13.295999526977539 92.3270034790039,-30.899999618530273 92.3270034790039,-30.899999618530273 C92.3270034790039,-30.899999618530273 -10.765999794006348,-24.875999450683594 -10.765999794006348,-24.875999450683594 C-10.765999794006348,-24.875999450683594 -35.94200134277344,-42.67499923706055 -35.94200134277344,-42.67499923706055 C-35.94200134277344,-42.67499923706055 -65.67400360107422,-50.66299819946289 -65.67400360107422,-50.66299819946289z"></path></g><g opacity="1" transform="matrix(1,0,0,1,132.552001953125,62.388999938964844)"><path fill="rgb(204,37,77)" fill-opacity="1" d=" M-66.5999984741211,-44.82699966430664 C-66.5999984741211,-44.82699966430664 -88.2509994506836,-40.792999267578125 -86.95099639892578,-20.799999237060547 C-85.6510009765625,-0.8069999814033508 -62.3120002746582,15.982000350952148 -54.66699981689453,21.701000213623047 C-44.882999420166016,29.020000457763672 -49.441001892089844,38.332000732421875 -43.9010009765625,40.56399917602539 C-33.319000244140625,44.82699966430664 -25.15399932861328,34.06100082397461 -11.449999809265137,35.71699905395508 C-1.00600004196167,36.979000091552734 16.66200065612793,34.26900100708008 31.73699951171875,31.298999786376953 C66.59300231933594,24.43199920654297 82.63500213623047,3.259999990463257 85.44300079345703,-5.7230000495910645 C88.2509994506836,-14.706999778747559 70.29100036621094,-10.937000274658203 70.29100036621094,-10.937000274658203 C70.29100036621094,-10.937000274658203 -20.590999603271484,-4.585999965667725 -20.590999603271484,-4.585999965667725 C-20.590999603271484,-4.585999965667725 -55.3120002746582,-19.798999786376953 -55.3120002746582,-19.798999786376953 C-55.3120002746582,-19.798999786376953 -66.5999984741211,-44.82699966430664 -66.5999984741211,-44.82699966430664z"></path></g></g><g style="display: block;" transform="matrix(1.0015509128570557,-0.04338469356298447,0.042140766978263855,0.973901629447937,47.03050231933594,239.00880432128906)" opacity="1"><g opacity="1" transform="matrix(1,0,0,1,267.2279968261719,72.49199676513672)"><path fill="rgb(225,214,234)" fill-opacity="1" d=" M8.083000183105469,-9.77400016784668 C8.083000183105469,-9.77400016784668 -0.7919999957084656,-16.9689998626709 -4.26800012588501,-6.868000030517578 C-7.743000030517578,3.2330000400543213 -13.02400016784668,9.194999694824219 -10.079999923706055,12.385000228881836 C-7.135000228881836,15.574999809265137 -5.995999813079834,16.9689998626709 1.180999994277954,16.743999481201172 C8.359000205993652,16.518999099731445 10.406999588012695,6.785999774932861 11.715999603271484,-0.32899999618530273 C13.02400016784668,-7.445000171661377 8.083000183105469,-9.77400016784668 8.083000183105469,-9.77400016784668z"></path><path stroke-linecap="round" stroke-linejoin="round" fill-opacity="0" stroke="rgb(85,122,147)" stroke-opacity="1" stroke-width="9" d=" M8.083000183105469,-9.77400016784668 C8.083000183105469,-9.77400016784668 -0.7919999957084656,-16.9689998626709 -4.26800012588501,-6.868000030517578 C-7.743000030517578,3.2330000400543213 -13.02400016784668,9.194999694824219 -10.079999923706055,12.385000228881836 C-7.135000228881836,15.574999809265137 -5.995999813079834,16.9689998626709 1.180999994277954,16.743999481201172 C8.359000205993652,16.518999099731445 10.406999588012695,6.785999774932861 11.715999603271484,-0.32899999618530273 C13.02400016784668,-7.445000171661377 8.083000183105469,-9.77400016784668 8.083000183105469,-9.77400016784668z"></path></g><g opacity="1" transform="matrix(1,0,0,1,246.13900756835938,103.822998046875)"><path fill="rgb(225,214,234)" fill-opacity="1" d=" M-17.687999725341797,2.484999895095825 C-17.687999725341797,2.484999895095825 -4.375999927520752,-10.782999992370605 0.8379999995231628,-13.135000228881836 C6.052000045776367,-15.486000061035156 8.6899995803833,-16.23699951171875 13.187999725341797,-13.496999740600586 C17.687000274658203,-10.756999969482422 17.34000015258789,-7.5289998054504395 14.640999794006348,-4.052999973297119 C11.942000389099121,-0.5759999752044678 2.6670000553131104,14.88700008392334 -6.064000129699707,15.562000274658203 C-14.795000076293945,16.23699951171875 -17.687999725341797,2.484999895095825 -17.687999725341797,2.484999895095825z"></path><path stroke-linecap="round" stroke-linejoin="round" fill-opacity="0" stroke="rgb(85,122,147)" stroke-opacity="1" stroke-width="9" d=" M-17.687999725341797,2.484999895095825 C-17.687999725341797,2.484999895095825 -4.375999927520752,-10.782999992370605 0.8379999995231628,-13.135000228881836 C6.052000045776367,-15.486000061035156 8.6899995803833,-16.23699951171875 13.187999725341797,-13.496999740600586 C17.687000274658203,-10.756999969482422 17.34000015258789,-7.5289998054504395 14.640999794006348,-4.052999973297119 C11.942000389099121,-0.5759999752044678 2.6670000553131104,14.88700008392334 -6.064000129699707,15.562000274658203 C-14.795000076293945,16.23699951171875 -17.687999725341797,2.484999895095825 -17.687999725341797,2.484999895095825z"></path></g><g opacity="1" transform="matrix(1,0,0,1,209.42799377441406,122.7300033569336)"><path fill="rgb(255,255,255)" fill-opacity="1" d=" M-16.547000885009766,-7.302999973297119 C-14.730999946594238,-9.482999801635742 10.89900016784668,-18.47100067138672 12.71500015258789,-18.47100067138672 C20.31999969482422,-18.47100067138672 17.47100067138672,1.4880000352859497 14.300999641418457,3.9210000038146973 C11.131999969482422,6.355000019073486 -11.925000190734863,19.451000213623047 -16.893999099731445,15.668000221252441 C-21.863000869750977,11.885000228881836 -19.583999633789062,-3.6589999198913574 -16.547000885009766,-7.302999973297119z"></path><path stroke-linecap="round" stroke-linejoin="round" fill-opacity="0" stroke="rgb(85,122,147)" stroke-opacity="1" stroke-width="9" d=" M-16.547000885009766,-7.302999973297119 C-14.730999946594238,-9.482999801635742 10.89900016784668,-18.47100067138672 12.71500015258789,-18.47100067138672 C20.31999969482422,-18.47100067138672 17.47100067138672,1.4880000352859497 14.300999641418457,3.9210000038146973 C11.131999969482422,6.355000019073486 -11.925000190734863,19.451000213623047 -16.893999099731445,15.668000221252441 C-21.863000869750977,11.885000228881836 -19.583999633789062,-3.6589999198913574 -16.547000885009766,-7.302999973297119z"></path></g><g opacity="1" transform="matrix(1,0,0,1,169.3939971923828,131.46099853515625)"><path fill="rgb(255,255,255)" fill-opacity="1" d=" M-24.472999572753906,14.079000473022461 C-24.472999572753906,14.079000473022461 -23.631999969482422,-7.294000148773193 -17.861000061035156,-12.10200023651123 C-14.39900016784668,-14.986000061035156 6.089000225067139,-13.638999938964844 10.145000457763672,-14.244999885559082 C20.961999893188477,-15.861000061035156 11.996999740600586,1.503000020980835 10.512999534606934,6.533999919891357 C7.9019999504089355,15.383999824523926 8.434000015258789,12.552000045776367 -3.384999990463257,13.614999771118164 C-15.204000473022461,14.678999900817871 -24.472999572753906,14.079000473022461 -24.472999572753906,14.079000473022461z"></path><path stroke-linecap="round" stroke-linejoin="round" fill-opacity="0" stroke="rgb(85,122,147)" stroke-opacity="1" stroke-width="9" d=" M-24.472999572753906,14.079000473022461 C-24.472999572753906,14.079000473022461 -23.631999969482422,-7.294000148773193 -17.861000061035156,-12.10200023651123 C-14.39900016784668,-14.986000061035156 6.089000225067139,-13.638999938964844 10.145000457763672,-14.244999885559082 C20.961999893188477,-15.861000061035156 11.996999740600586,1.503000020980835 10.512999534606934,6.533999919891357 C7.9019999504089355,15.383999824523926 8.434000015258789,12.552000045776367 -3.384999990463257,13.614999771118164 C-15.204000473022461,14.678999900817871 -24.472999572753906,14.079000473022461 -24.472999572753906,14.079000473022461z"></path></g><g opacity="1" transform="matrix(1,0,0,1,129.86599731445312,129.91700744628906)"><path fill="rgb(255,255,255)" fill-opacity="1" d=" M-17.65399932861328,11.263999938964844 C-20.10700035095215,10.557999610900879 -19.094999313354492,8.583000183105469 -18.299999237060547,6.1579999923706055 C-16.718000411987305,1.3289999961853027 -12.012999534606934,-17.822999954223633 -4.328999996185303,-17.822999954223633 C-1.6050000190734863,-17.822999954223633 19.464000701904297,-15.821000099182129 20.281999588012695,-10.668000221252441 C21.100000381469727,-5.514999866485596 12.244000434875488,16.343000411987305 8.13700008392334,15.986000061035156 C3.9590001106262207,15.623000144958496 2.5339999198913574,15.557999610900879 -6.394000053405762,14.170000076293945 C-11.347999572753906,13.399999618530273 -14.479999542236328,12.178000450134277 -17.65399932861328,11.263999938964844z"></path><path stroke-linecap="round" stroke-linejoin="round" fill-opacity="0" stroke="rgb(85,122,147)" stroke-opacity="1" stroke-width="9" d=" M-17.65399932861328,11.263999938964844 C-20.10700035095215,10.557999610900879 -19.094999313354492,8.583000183105469 -18.299999237060547,6.1579999923706055 C-16.718000411987305,1.3289999961853027 -12.012999534606934,-17.822999954223633 -4.328999996185303,-17.822999954223633 C-1.6050000190734863,-17.822999954223633 19.464000701904297,-15.821000099182129 20.281999588012695,-10.668000221252441 C21.100000381469727,-5.514999866485596 12.244000434875488,16.343000411987305 8.13700008392334,15.986000061035156 C3.9590001106262207,15.623000144958496 2.5339999198913574,15.557999610900879 -6.394000053405762,14.170000076293945 C-11.347999572753906,13.399999618530273 -14.479999542236328,12.178000450134277 -17.65399932861328,11.263999938964844z"></path></g><g opacity="1" transform="matrix(1,0,0,1,97.31800079345703,117.6729965209961)"><path fill="rgb(255,255,255)" fill-opacity="1" d=" M-17.14699935913086,6.85099983215332 C-17.874000549316406,5.761000156402588 -10.503000259399414,-23.527000427246094 -2.875,-20.983999252319336 C12.53600025177002,-15.847000122070312 23.15399932861328,-7.495999813079834 21.270000457763672,-4.39900016784668 C18.493999481201172,0.164000004529953 12.227999687194824,21.770000457763672 9.140999794006348,22.158000946044922 C6.052999973297119,22.547000885009766 -8.109000205993652,14.395999908447266 -13.07699966430664,10.61299991607666 C-15.53600025177002,8.741000175476074 -15.694999694824219,9.029000282287598 -17.14699935913086,6.85099983215332z"></path><path stroke-linecap="round" stroke-linejoin="round" fill-opacity="0" stroke="rgb(85,122,147)" stroke-opacity="1" stroke-width="9" d=" M-17.14699935913086,6.85099983215332 C-17.874000549316406,5.761000156402588 -10.503000259399414,-23.527000427246094 -2.875,-20.983999252319336 C12.53600025177002,-15.847000122070312 23.15399932861328,-7.495999813079834 21.270000457763672,-4.39900016784668 C18.493999481201172,0.164000004529953 12.227999687194824,21.770000457763672 9.140999794006348,22.158000946044922 C6.052999973297119,22.547000885009766 -8.109000205993652,14.395999908447266 -13.07699966430664,10.61299991607666 C-15.53600025177002,8.741000175476074 -15.694999694824219,9.029000282287598 -17.14699935913086,6.85099983215332z"></path></g><g opacity="1" transform="matrix(1,0,0,1,70.45600128173828,96.62899780273438)"><path fill="rgb(255,255,255)" fill-opacity="1" d=" M-15.032999992370605,1.9739999771118164 C-15.032999992370605,1.9739999771118164 -4.874000072479248,-22.54400062561035 1.9800000190734863,-18.43400001525879 C11.472999572753906,-12.741999626159668 20.28499984741211,-3.5840001106262207 18.886999130249023,-0.6930000185966492 C16.190000534057617,4.883999824523926 9.406000137329102,24.933000564575195 4.966000080108643,24.951000213623047 C1.7300000190734863,24.964000701904297 -15.637999534606934,3.505000114440918 -15.637999534606934,3.505000114440918 C-15.637999534606934,3.505000114440918 -15.032999992370605,1.9739999771118164 -15.032999992370605,1.9739999771118164z"></path><path stroke-linecap="round" stroke-linejoin="round" fill-opacity="0" stroke="rgb(85,122,147)" stroke-opacity="1" stroke-width="9" d=" M-15.032999992370605,1.9739999771118164 C-15.032999992370605,1.9739999771118164 -4.874000072479248,-22.54400062561035 1.9800000190734863,-18.43400001525879 C11.472999572753906,-12.741999626159668 20.28499984741211,-3.5840001106262207 18.886999130249023,-0.6930000185966492 C16.190000534057617,4.883999824523926 9.406000137329102,24.933000564575195 4.966000080108643,24.951000213623047 C1.7300000190734863,24.964000701904297 -15.637999534606934,3.505000114440918 -15.637999534606934,3.505000114440918 C-15.637999534606934,3.505000114440918 -15.032999992370605,1.9739999771118164 -15.032999992370605,1.9739999771118164z"></path></g><g opacity="1" transform="matrix(1,0,0,1,44.779998779296875,69.84600067138672)"><path fill="rgb(255,255,255)" fill-opacity="1" d=" M-13.210000038146973,-1.315000057220459 C-13.210000038146973,-5.690000057220459 -9.21399974822998,-10.032999992370605 -4.855000019073486,-15.119000434875488 C-0.7749999761581421,-19.878999710083008 4.348999977111816,-16.399999618530273 7.131999969482422,-10.760000228881836 C9.940999984741211,-5.067999839782715 13.210000038146973,2.0250000953674316 11.854000091552734,3.7709999084472656 C10.345000267028809,5.715000152587891 8.055000305175781,17.972999572753906 3.5,19.027000427246094 C-0.18299999833106995,19.878999710083008 -4.507999897003174,16.538999557495117 -6.308000087738037,13.21500015258789 C-8.668999671936035,8.855999946594238 -13.210000038146973,1.9539999961853027 -13.210000038146973,-1.315000057220459z"></path><path stroke-linecap="round" stroke-linejoin="round" fill-opacity="0" stroke="rgb(85,122,147)" stroke-opacity="1" stroke-width="9" d=" M-13.210000038146973,-1.315000057220459 C-13.210000038146973,-5.690000057220459 -9.21399974822998,-10.032999992370605 -4.855000019073486,-15.119000434875488 C-0.7749999761581421,-19.878999710083008 4.348999977111816,-16.399999618530273 7.131999969482422,-10.760000228881836 C9.940999984741211,-5.067999839782715 13.210000038146973,2.0250000953674316 11.854000091552734,3.7709999084472656 C10.345000267028809,5.715000152587891 8.055000305175781,17.972999572753906 3.5,19.027000427246094 C-0.18299999833106995,19.878999710083008 -4.507999897003174,16.538999557495117 -6.308000087738037,13.21500015258789 C-8.668999671936035,8.855999946594238 -13.210000038146973,1.9539999961853027 -13.210000038146973,-1.315000057220459z"></path></g><g opacity="1" transform="matrix(1,0,0,1,33.95399856567383,39.00400161743164)"><path fill="rgb(225,214,234)" fill-opacity="1" d=" M-11.336999893188477,-0.32600000500679016 C-11.432000160217285,-1.0779999494552612 -11.45300006866455,-1.8300000429153442 -11.402000427246094,-2.5869998931884766 C-11.157999992370605,-6.210000038146973 -9.979999542236328,-16.503999710083008 -4.513999938964844,-15.86299991607666 C2.1110000610351562,-15.086000442504883 5.607999801635742,-12.246999740600586 6.4039998054504395,-7.234000205993652 C7.659999847412109,0.6710000038146973 11.454000473022461,10.592000007629395 8.878000259399414,11.00100040435791 C6.301000118255615,11.40999984741211 -4.73199987411499,16.503999710083008 -5.6519999504089355,13.906999588012695 C-6.395999908447266,11.807000160217285 -10.994999885559082,2.374000072479248 -11.336999893188477,-0.32600000500679016z"></path><path stroke-linecap="round" stroke-linejoin="round" fill-opacity="0" stroke="rgb(85,122,147)" stroke-opacity="1" stroke-width="9" d=" M-11.336999893188477,-0.32600000500679016 C-11.432000160217285,-1.0779999494552612 -11.45300006866455,-1.8300000429153442 -11.402000427246094,-2.5869998931884766 C-11.157999992370605,-6.210000038146973 -9.979999542236328,-16.503999710083008 -4.513999938964844,-15.86299991607666 C2.1110000610351562,-15.086000442504883 5.607999801635742,-12.246999740600586 6.4039998054504395,-7.234000205993652 C7.659999847412109,0.6710000038146973 11.454000473022461,10.592000007629395 8.878000259399414,11.00100040435791 C6.301000118255615,11.40999984741211 -4.73199987411499,16.503999710083008 -5.6519999504089355,13.906999588012695 C-6.395999908447266,11.807000160217285 -10.994999885559082,2.374000072479248 -11.336999893188477,-0.32600000500679016z"></path></g></g><g style="display: block;" transform="matrix(1.0017882585525513,-0.03750428184866905,0.03765654191374779,1.0058553218841553,41.87031555175781,110.5611572265625)" opacity="1"><g opacity="1" transform="matrix(1,0,0,1,158.55999755859375,102.31400299072266)"><path fill="rgb(244,118,151)" fill-opacity="1" d=" M-117.63099670410156,-63.9370002746582 C-123.55699920654297,-57.75899887084961 -120.43099975585938,-55.459999084472656 -116.22000122070312,-48.00699996948242 C-105.68199920654297,-29.356000900268555 -80.21199798583984,12.107999801635742 -47.7599983215332,33.5099983215332 C-1.6230000257492065,63.9370002746582 68.97799682617188,47.98899841308594 85.74199676513672,44.81999969482422 C102.50599670410156,41.6510009765625 123.55699920654297,25.06999969482422 123.55699920654297,25.06999969482422 C123.55699920654297,25.06999969482422 116.78800201416016,15.071000099182129 116.78800201416016,15.071000099182129 C116.78800201416016,15.071000099182129 84.28600311279297,21.30900001525879 48.87200164794922,26.56800079345703 C22.990999221801758,30.41200065612793 -12.770999908447266,28.323999404907227 -26.47100067138672,25.215999603271484 C-37.8489990234375,22.635000228881836 -84.55000305175781,-26.944000244140625 -90.5979995727539,-35.71799850463867 C-96.64600372314453,-44.492000579833984 -111.53700256347656,-62.66899871826172 -111.53700256347656,-62.66899871826172 C-111.53700256347656,-62.66899871826172 -117.63099670410156,-63.9370002746582 -117.63099670410156,-63.9370002746582z"></path><path stroke-linecap="round" stroke-linejoin="round" fill-opacity="0" stroke="rgb(198,74,115)" stroke-opacity="1" stroke-width="6.327" d=" M-117.63099670410156,-63.9370002746582 C-123.55699920654297,-57.75899887084961 -120.43099975585938,-55.459999084472656 -116.22000122070312,-48.00699996948242 C-105.68199920654297,-29.356000900268555 -80.21199798583984,12.107999801635742 -47.7599983215332,33.5099983215332 C-1.6230000257492065,63.9370002746582 68.97799682617188,47.98899841308594 85.74199676513672,44.81999969482422 C102.50599670410156,41.6510009765625 123.55699920654297,25.06999969482422 123.55699920654297,25.06999969482422 C123.55699920654297,25.06999969482422 116.78800201416016,15.071000099182129 116.78800201416016,15.071000099182129 C116.78800201416016,15.071000099182129 84.28600311279297,21.30900001525879 48.87200164794922,26.56800079345703 C22.990999221801758,30.41200065612793 -12.770999908447266,28.323999404907227 -26.47100067138672,25.215999603271484 C-37.8489990234375,22.635000228881836 -84.55000305175781,-26.944000244140625 -90.5979995727539,-35.71799850463867 C-96.64600372314453,-44.492000579833984 -111.53700256347656,-62.66899871826172 -111.53700256347656,-62.66899871826172 C-111.53700256347656,-62.66899871826172 -117.63099670410156,-63.9370002746582 -117.63099670410156,-63.9370002746582z"></path></g><g opacity="1" transform="matrix(1,0,0,1,274.6099853515625,136.49400329589844)"><path fill="rgb(225,214,234)" fill-opacity="1" d=" M-13.628000259399414,11.800000190734863 C-12.397000312805176,16.864999771118164 -8.295999526977539,22.5049991607666 -4.14300012588501,19.354000091552734 C-1.8279999494552612,17.597999572753906 4.453999996185303,12.611000061035156 7.289000034332275,9.300999641418457 C15.345000267028809,-0.10499999672174454 13.663999557495117,-10.923999786376953 5.205999851226807,-15.60200023651123 C-0.01600000075995922,-18.489999771118164 -11.571999549865723,-5.7769999504089355 -11.571999549865723,-5.7769999504089355 C-11.571999549865723,-5.7769999504089355 -13.104999542236328,6.960999965667725 -13.73900032043457,10.008000373840332 C-13.845000267028809,10.515999794006348 -13.791000366210938,11.130000114440918 -13.628000259399414,11.800000190734863z"></path><path stroke-linecap="round" stroke-linejoin="round" fill-opacity="0" stroke="rgb(85,122,147)" stroke-opacity="1" stroke-width="9" d=" M-13.628000259399414,11.800000190734863 C-12.397000312805176,16.864999771118164 -8.295999526977539,22.5049991607666 -4.14300012588501,19.354000091552734 C-1.8279999494552612,17.597999572753906 4.453999996185303,12.611000061035156 7.289000034332275,9.300999641418457 C15.345000267028809,-0.10499999672174454 13.663999557495117,-10.923999786376953 5.205999851226807,-15.60200023651123 C-0.01600000075995922,-18.489999771118164 -11.571999549865723,-5.7769999504089355 -11.571999549865723,-5.7769999504089355 C-11.571999549865723,-5.7769999504089355 -13.104999542236328,6.960999965667725 -13.73900032043457,10.008000373840332 C-13.845000267028809,10.515999794006348 -13.791000366210938,11.130000114440918 -13.628000259399414,11.800000190734863z"></path></g><g opacity="1" transform="matrix(1,0,0,1,240.5989990234375,155.21499633789062)"><path fill="rgb(255,255,255)" fill-opacity="1" d=" M-16.275999069213867,24.884000778198242 C-13.515999794006348,27.698999404907227 -9.156999588012695,28.208999633789062 -5.868000030517578,26.034000396728516 C0.7950000166893005,21.628999710083008 12.489999771118164,9.36299991607666 15.77299976348877,1.347000002861023 C20.312000274658203,-9.736000061035156 23.160999298095703,-19.354999542236328 18.051000595092773,-24.155000686645508 C14.61299991607666,-27.384000778198242 0.05900000035762787,-28.209999084472656 -9.060999870300293,-17.822999954223633 C-18.180999755859375,-7.434999942779541 -23.15999984741211,1.8389999866485596 -20.992000579833984,11.654000282287598 C-20.033000946044922,15.996999740600586 -18.440000534057617,22.677000045776367 -16.275999069213867,24.884000778198242z"></path><path stroke-linecap="round" stroke-linejoin="round" fill-opacity="0" stroke="rgb(85,122,147)" stroke-opacity="1" stroke-width="9" d=" M-16.275999069213867,24.884000778198242 C-13.515999794006348,27.698999404907227 -9.156999588012695,28.208999633789062 -5.868000030517578,26.034000396728516 C0.7950000166893005,21.628999710083008 12.489999771118164,9.36299991607666 15.77299976348877,1.347000002861023 C20.312000274658203,-9.736000061035156 23.160999298095703,-19.354999542236328 18.051000595092773,-24.155000686645508 C14.61299991607666,-27.384000778198242 0.05900000035762787,-28.209999084472656 -9.060999870300293,-17.822999954223633 C-18.180999755859375,-7.434999942779541 -23.15999984741211,1.8389999866485596 -20.992000579833984,11.654000282287598 C-20.033000946044922,15.996999740600586 -18.440000534057617,22.677000045776367 -16.275999069213867,24.884000778198242z"></path></g><g opacity="1" transform="matrix(1,0,0,1,191.343994140625,162.47500610351562)"><path fill="rgb(255,255,255)" fill-opacity="1" d=" M12.253999710083008,22.4689998626709 C15.36299991607666,21.558000564575195 17.756000518798828,19.08099937438965 18.56100082397461,15.942999839782715 C19.909000396728516,10.6850004196167 23.086000442504883,0.7070000171661377 24.780000686645508,-9.755000114440918 C25.847000122070312,-16.34000015258789 17.827999114990234,-27.138999938964844 -0.7590000033378601,-23.27400016784668 C-19.347000122070312,-19.409000396728516 -23.266000747680664,-0.22599999606609344 -25.82200050354004,12.472000122070312 C-28.378000259399414,25.17099952697754 -24.816999435424805,27.055999755859375 -15.119000434875488,26.21500015258789 C-4.769000053405762,25.316999435424805 5.379000186920166,24.482999801635742 12.253999710083008,22.4689998626709z"></path><path stroke-linecap="round" stroke-linejoin="round" fill-opacity="0" stroke="rgb(85,122,147)" stroke-opacity="1" stroke-width="9" d=" M12.253999710083008,22.4689998626709 C15.36299991607666,21.558000564575195 17.756000518798828,19.08099937438965 18.56100082397461,15.942999839782715 C19.909000396728516,10.6850004196167 23.086000442504883,0.7070000171661377 24.780000686645508,-9.755000114440918 C25.847000122070312,-16.34000015258789 17.827999114990234,-27.138999938964844 -0.7590000033378601,-23.27400016784668 C-19.347000122070312,-19.409000396728516 -23.266000747680664,-0.22599999606609344 -25.82200050354004,12.472000122070312 C-28.378000259399414,25.17099952697754 -24.816999435424805,27.055999755859375 -15.119000434875488,26.21500015258789 C-4.769000053405762,25.316999435424805 5.379000186920166,24.482999801635742 12.253999710083008,22.4689998626709z"></path></g><g opacity="1" transform="matrix(1,0,0,1,137.86000061035156,162.09300231933594)"><path fill="rgb(255,255,255)" fill-opacity="1" d=" M15.862000465393066,28.8799991607666 C15.862000465393066,28.8799991607666 26.483999252319336,4.381999969482422 27.895000457763672,-5.289999961853027 C29.305999755859375,-14.961999893188477 22.75200080871582,-21.915000915527344 10.576000213623047,-24.70599937438965 C-0.003000000026077032,-27.131000518798828 -6.636000156402588,-22.75200080871582 -13.03600025177002,-16.35099983215332 C-19.43600082397461,-9.951000213623047 -30.33099937438965,16.702999114990234 -27.87700080871582,19.361000061035156 C-25.42300033569336,22.018999099731445 -12.13599967956543,27.356000900268555 -1.9329999685287476,28.275999069213867 C8.270999908447266,29.195999145507812 15.862000465393066,28.8799991607666 15.862000465393066,28.8799991607666z"></path><path stroke-linecap="round" stroke-linejoin="round" fill-opacity="0" stroke="rgb(85,122,147)" stroke-opacity="1" stroke-width="9" d=" M15.862000465393066,28.8799991607666 C15.862000465393066,28.8799991607666 26.483999252319336,4.381999969482422 27.895000457763672,-5.289999961853027 C29.305999755859375,-14.961999893188477 22.75200080871582,-21.915000915527344 10.576000213623047,-24.70599937438965 C-0.003000000026077032,-27.131000518798828 -6.636000156402588,-22.75200080871582 -13.03600025177002,-16.35099983215332 C-19.43600082397461,-9.951000213623047 -30.33099937438965,16.702999114990234 -27.87700080871582,19.361000061035156 C-25.42300033569336,22.018999099731445 -12.13599967956543,27.356000900268555 -1.9329999685287476,28.275999069213867 C8.270999908447266,29.195999145507812 15.862000465393066,28.8799991607666 15.862000465393066,28.8799991607666z"></path></g><g opacity="1" transform="matrix(1,0,0,1,96.31999969482422,148.8719940185547)"><path fill="rgb(255,255,255)" fill-opacity="1" d=" M-23.10099983215332,3.9519999027252197 C-23.10099983215332,3.9519999027252197 -13.562999725341797,-28.770999908447266 2.2950000762939453,-29.336999893188477 C19.215999603271484,-29.94099998474121 26.97599983215332,-19.135000228881836 26.014999389648438,-7.908999919891357 C25.054000854492188,3.316999912261963 12.213000297546387,29.94099998474121 10.168999671936035,29.858999252319336 C8.12399959564209,29.777000427246094 -4.798999786376953,26.34600067138672 -15.012999534606934,19.3799991607666 C-26.97599983215332,11.220999717712402 -23.10099983215332,3.9519999027252197 -23.10099983215332,3.9519999027252197z"></path><path stroke-linecap="round" stroke-linejoin="round" fill-opacity="0" stroke="rgb(85,122,147)" stroke-opacity="1" stroke-width="9" d=" M-23.10099983215332,3.9519999027252197 C-23.10099983215332,3.9519999027252197 -13.562999725341797,-28.770999908447266 2.2950000762939453,-29.336999893188477 C19.215999603271484,-29.94099998474121 26.97599983215332,-19.135000228881836 26.014999389648438,-7.908999919891357 C25.054000854492188,3.316999912261963 12.213000297546387,29.94099998474121 10.168999671936035,29.858999252319336 C8.12399959564209,29.777000427246094 -4.798999786376953,26.34600067138672 -15.012999534606934,19.3799991607666 C-26.97599983215332,11.220999717712402 -23.10099983215332,3.9519999027252197 -23.10099983215332,3.9519999027252197z"></path></g><g opacity="1" transform="matrix(1,0,0,1,66.21800231933594,119.21099853515625)"><path fill="rgb(255,255,255)" fill-opacity="1" d=" M-16.4950008392334,3.9700000286102295 C-13.654000282287598,-4.480000019073486 -6.39300012588501,-21.15999984741211 -2.2100000381469727,-24.240999221801758 C3.065000057220459,-28.125999450683594 12.364999771118164,-26.80299949645996 17.97599983215332,-15.100000381469727 C24.22100067138672,-2.0759999752044678 20.381999969482422,2.2960000038146973 15.65999984741211,12.829999923706055 C10.428000450134277,24.50200080871582 7.933000087738037,34.52899932861328 3.4730000495910645,33.2760009765625 C-0.1599999964237213,32.25400161743164 -10.090999603271484,22.709999084472656 -12.440999984741211,19.479000091552734 C-18.253000259399414,11.487000465393066 -17.27199935913086,6.2820000648498535 -16.4950008392334,3.9700000286102295z"></path><path stroke-linecap="round" stroke-linejoin="round" fill-opacity="0" stroke="rgb(85,122,147)" stroke-opacity="1" stroke-width="9" d=" M-16.4950008392334,3.9700000286102295 C-13.654000282287598,-4.480000019073486 -6.39300012588501,-21.15999984741211 -2.2100000381469727,-24.240999221801758 C3.065000057220459,-28.125999450683594 12.364999771118164,-26.80299949645996 17.97599983215332,-15.100000381469727 C24.22100067138672,-2.0759999752044678 20.381999969482422,2.2960000038146973 15.65999984741211,12.829999923706055 C10.428000450134277,24.50200080871582 7.933000087738037,34.52899932861328 3.4730000495910645,33.2760009765625 C-0.1599999964237213,32.25400161743164 -10.090999603271484,22.709999084472656 -12.440999984741211,19.479000091552734 C-18.253000259399414,11.487000465393066 -17.27199935913086,6.2820000648498535 -16.4950008392334,3.9700000286102295z"></path></g><g opacity="1" transform="matrix(1,0,0,1,45.55699920654297,90.28099822998047)"><path fill="rgb(225,214,234)" fill-opacity="1" d=" M-6.809999942779541,7.138000011444092 C-6.809999942779541,7.138000011444092 -3.486999988555908,-19.768999099731445 6.046999931335449,-22.152999877929688 C7.5,-22.516000747680664 11.074999809265137,-19.746000289916992 15.329000473022461,-10.871999740600586 C19.582000732421875,-1.996999979019165 18.444000244140625,-3.4670000076293945 17.70800018310547,2.135999917984009 C16.972000122070312,7.73799991607666 6.173999786376953,24.871000289916992 1.3600000143051147,23.06599998474121 C-5.177999973297119,20.61400032043457 -6.809999942779541,7.138000011444092 -6.809999942779541,7.138000011444092z"></path><path stroke-linecap="round" stroke-linejoin="round" fill-opacity="0" stroke="rgb(85,122,147)" stroke-opacity="1" stroke-width="9" d=" M-6.809999942779541,7.138000011444092 C-6.809999942779541,7.138000011444092 -3.486999988555908,-19.768999099731445 6.046999931335449,-22.152999877929688 C7.5,-22.516000747680664 11.074999809265137,-19.746000289916992 15.329000473022461,-10.871999740600586 C19.582000732421875,-1.996999979019165 18.444000244140625,-3.4670000076293945 17.70800018310547,2.135999917984009 C16.972000122070312,7.73799991607666 6.173999786376953,24.871000289916992 1.3600000143051147,23.06599998474121 C-5.177999973297119,20.61400032043457 -6.809999942779541,7.138000011444092 -6.809999942779541,7.138000011444092z"></path></g><g opacity="1" transform="matrix(1,0,0,1,161.8179931640625,80.15899658203125)"><path stroke-linecap="round" stroke-linejoin="round" fill-opacity="0" stroke="rgb(155,66,31)" stroke-opacity="1" stroke-width="13" d=" M-127.20700073242188,-31.055999755859375 C-127.20700073242188,-31.055999755859375 -117.8030014038086,-44.04499816894531 -106.50199890136719,-29.42099952697754 C-93.84400177001953,-13.043000221252441 -87.96700286865234,-11.024999618530273 -74.83399963378906,7.172999858856201 C-64.9280014038086,20.89900016784668 -54.03499984741211,35.189998626708984 -40.270999908447266,41.946998596191406 C-28.711000442504883,47.62200164794922 22.716999053955078,48.650001525878906 46.88600158691406,46.03200149536133 C71.05599975585938,43.41400146484375 106.9739990234375,37.34400177001953 115.9020004272461,38.915000915527344 C125.50499725341797,40.60499954223633 133.6510009765625,51.61800003051758 133.33799743652344,51.992000579833984"></path></g></g><g style="display: block;" transform="matrix(0.8921642899513245,-0.3349338173866272,0.3349338173866272,0.8921642899513245,200.47137451171875,268.1617736816406)" opacity="1"><g opacity="1" transform="matrix(1,0,0,1,125.71700286865234,204.10899353027344)"><path fill="rgb(255,195,161)" fill-opacity="1" d=" M-36.5629997253418,67.69000244140625 C-23.094999313354492,80.89199829101562 4.947000026702881,78.76899719238281 22.429000854492188,71.69300079345703 C35.433998107910156,66.42900085449219 68.11499786376953,42.72100067138672 75.91500091552734,27.121000289916992 C84.49600219726562,9.960000038146973 82.04399871826172,-21.908000946044922 69.2300033569336,-36.95100021362305 C61.71799850463867,-45.76900100708008 25.097999572753906,-76.58100128173828 10.729999542236328,-78.73699951171875 C-3.638000011444092,-80.89199829101562 -50.99800109863281,-61.52299880981445 -63.92900085449219,-41.40800094604492 C-76.86000061035156,-21.29199981689453 -84.49600219726562,20.0049991607666 -68.89099884033203,37.516998291015625 C-57.79899978637695,49.9640007019043 -48.486000061035156,55.13399887084961 -40.874000549316406,63.380001068115234 C-40.25899887084961,64.0469970703125 -37.189998626708984,67.07499694824219 -36.5629997253418,67.69000244140625z"></path></g><g opacity="1" transform="matrix(1,0,0,1,125.71700286865234,204.10899353027344)"><path stroke-linecap="round" stroke-linejoin="round" fill-opacity="0" stroke="rgb(163,88,36)" stroke-opacity="1" stroke-width="11" d=" M-36.5629997253418,67.69000244140625 C-23.094999313354492,80.89199829101562 4.947000026702881,78.76899719238281 22.429000854492188,71.69300079345703 C35.433998107910156,66.42900085449219 68.11499786376953,42.72100067138672 75.91500091552734,27.121000289916992 C84.49600219726562,9.960000038146973 82.04399871826172,-21.908000946044922 69.2300033569336,-36.95100021362305 C61.71799850463867,-45.76900100708008 25.097999572753906,-76.58100128173828 10.729999542236328,-78.73699951171875 C-3.638000011444092,-80.89199829101562 -50.99800109863281,-61.52299880981445 -63.92900085449219,-41.40800094604492 C-76.86000061035156,-21.29199981689453 -84.49600219726562,20.0049991607666 -68.89099884033203,37.516998291015625 C-57.79899978637695,49.9640007019043 -48.486000061035156,55.13399887084961 -40.874000549316406,63.380001068115234 C-40.25899887084961,64.0469970703125 -37.189998626708984,67.07499694824219 -36.5629997253418,67.69000244140625z"></path></g><g opacity="1" transform="matrix(1,0,0,1,224.98800659179688,141.64500427246094)"><path fill="rgb(255,195,161)" fill-opacity="1" d=" M-48.426998138427734,13.255999565124512 C-35.611000061035156,3.3510000705718994 -9.604999542236328,-19.733999252319336 -3.0199999809265137,-24.909000396728516 C7.038000106811523,-32.81100082397461 18.988000869750977,-45.24399948120117 29.016000747680664,-46.35900115966797 C44.58300018310547,-48.0880012512207 48.426998138427734,-27.490999221801758 40.715999603271484,-17.386999130249023 C32.63800048828125,-6.801000118255615 13.77400016784668,7.040999889373779 6.730999946594238,13.812999725341797 C-7.755000114440918,27.742000579833984 -32.176998138427734,48.0880012512207 -30.87700080871582,44.73500061035156"></path><path stroke-linecap="round" stroke-linejoin="round" fill-opacity="0" stroke="rgb(163,88,36)" stroke-opacity="1" stroke-width="11" d=" M-48.426998138427734,13.255999565124512 C-35.611000061035156,3.3510000705718994 -9.604999542236328,-19.733999252319336 -3.0199999809265137,-24.909000396728516 C7.038000106811523,-32.81100082397461 18.988000869750977,-45.24399948120117 29.016000747680664,-46.35900115966797 C44.58300018310547,-48.0880012512207 48.426998138427734,-27.490999221801758 40.715999603271484,-17.386999130249023 C32.63800048828125,-6.801000118255615 13.77400016784668,7.040999889373779 6.730999946594238,13.812999725341797 C-7.755000114440918,27.742000579833984 -32.176998138427734,48.0880012512207 -30.87700080871582,44.73500061035156"></path></g><g opacity="0" transform="matrix(1,0,0,1,0,0)"><path fill="rgb(227,141,108)" fill-opacity="1" d=" M212.6929931640625,131.5749969482422 C212.6929931640625,131.5749969482422 196.43699645996094,144.79400634765625 194.3209991455078,146.41299438476562 C192.2050018310547,148.03199768066406 184.0050048828125,154.43800354003906 181.16200256347656,156.38699340820312 C178.31900024414062,158.33599853515625 183.79400634765625,164.81399536132812 187.9149932861328,169.08700561523438 C192.4739990234375,173.81500244140625 192.7469940185547,177.70599365234375 194.2010040283203,179.45799255371094 C195.65499877929688,181.2100067138672 206.25100708007812,170.98800659179688 209.7550048828125,168.08099365234375 C210.9250030517578,167.11000061035156 227.33999633789062,153.3179931640625 228.86099243164062,150.8730010986328 C230.3820037841797,148.42799377441406 222.8780059814453,143.6219940185547 220.63099670410156,141.57200622558594 C218.38400268554688,139.52200317382812 212.6929931640625,131.5749969482422 212.6929931640625,131.5749969482422z"></path></g><g opacity="1" transform="matrix(1,0,0,1,235.06100463867188,198.11700439453125)"><path fill="rgb(255,195,161)" fill-opacity="1" d=" M-35.65700149536133,33.112998962402344 C-35.65700149536133,33.112998962402344 -22.270999908447266,22.05900001525879 -13.649999618530273,19.184999465942383 C-10.317999839782715,18.075000762939453 -3.5820000171661377,15.291999816894531 3.884000062942505,11.664999961853027 C15.736000061035156,5.9079999923706055 29.429000854492188,-1.975000023841858 34.26499938964844,-8.67199993133545 C41.507999420166016,-18.701000213623047 32.064998626708984,-33.112998962402344 22.007999420166016,-30.95800018310547 C17.288999557495117,-29.94700050354004 4.415999889373779,-24.8700008392334 -8.142000198364258,-19.766000747680664 C-22.347000122070312,-13.991999626159668 -36.150001525878906,-8.182000160217285 -37.29399871826172,-8.182000160217285 C-39.44900131225586,-8.182000160217285 -41.50699996948242,-14.243000030517578 -41.50699996948242,-14.243000030517578"></path><path stroke-linecap="round" stroke-linejoin="round" fill-opacity="0" stroke="rgb(163,88,36)" stroke-opacity="1" stroke-width="11" d=" M-35.65700149536133,33.112998962402344 C-35.65700149536133,33.112998962402344 -22.270999908447266,22.05900001525879 -13.649999618530273,19.184999465942383 C-10.317999839782715,18.075000762939453 -3.5820000171661377,15.291999816894531 3.884000062942505,11.664999961853027 C15.736000061035156,5.9079999923706055 29.429000854492188,-1.975000023841858 34.26499938964844,-8.67199993133545 C41.507999420166016,-18.701000213623047 32.064998626708984,-33.112998962402344 22.007999420166016,-30.95800018310547 C17.288999557495117,-29.94700050354004 4.415999889373779,-24.8700008392334 -8.142000198364258,-19.766000747680664 C-22.347000122070312,-13.991999626159668 -36.150001525878906,-8.182000160217285 -37.29399871826172,-8.182000160217285 C-39.44900131225586,-8.182000160217285 -41.50699996948242,-14.243000030517578 -41.50699996948242,-14.243000030517578"></path></g><g opacity="0" transform="matrix(1,0,0,1,0,0)"><path fill="rgb(227,141,108)" fill-opacity="1" d=" M226.6820068359375,184.50599670410156 C226.6820068359375,184.50599670410156 220.99899291992188,188.7209930419922 214.91099548339844,188.91600036621094 C210.60299682617188,189.0540008544922 199.968994140625,193.21800231933594 196.96099853515625,194.80299377441406 C193.9530029296875,196.38800048828125 196.8520050048828,202.28900146484375 197.85000610351562,204.48599243164062 C199.50100708007812,208.1219940185547 202.96099853515625,216.01600646972656 203.00100708007812,217.2779998779297 C203.16400146484375,222.4669952392578 218.47300720214844,212.08900451660156 221.2270050048828,211.1580047607422 C226.39199829101562,209.41299438476562 230.96299743652344,207.90499877929688 237.98800659179688,204.38499450683594 C241.0279998779297,202.86199951171875 235.6719970703125,198.4409942626953 232.7429962158203,194.8419952392578 C229.02200317382812,190.2689971923828 226.6820068359375,184.50599670410156 226.6820068359375,184.50599670410156z"></path></g><g opacity="1" transform="matrix(1,0,0,1,187.072998046875,98.90799713134766)"><path fill="rgb(255,195,161)" fill-opacity="1" d=" M-43.941001892089844,34.263999938964844 C-43.941001892089844,34.263999938964844 -40.7130012512207,28.152000427246094 -35.58399963378906,20.89299964904785 C-30.150999069213867,13.206000328063965 -23.9950008392334,4.281000137329102 -17.197999954223633,-5.849999904632568 C-9.00100040435791,-18.06599998474121 -0.5669999718666077,-33.1619987487793 2.8589999675750732,-39.27899932861328 C10.659000396728516,-53.20800018310547 20.131000518798828,-61.00699996948242 30.159000396728516,-58.22100067138672 C41.987998962402344,-54.93600082397461 43.941001892089844,-46.007999420166016 39.63100051879883,-30.92099952697754 C35.32099914550781,-15.835000038146973 22.695999145507812,-1.1130000352859497 16.231000900268555,12.53600025177002 C9.765000343322754,26.18600082397461 -6.916999816894531,50.439998626708984 -9.071999549865723,54.03200149536133 C-11.22700023651123,57.624000549316406 -10.51200008392334,61.007999420166016 -10.51200008392334,61.007999420166016"></path><path stroke-linecap="round" stroke-linejoin="round" fill-opacity="0" stroke="rgb(163,88,36)" stroke-opacity="1" stroke-width="11" d=" M-43.941001892089844,34.263999938964844 C-43.941001892089844,34.263999938964844 -40.7130012512207,28.152000427246094 -35.58399963378906,20.89299964904785 C-30.150999069213867,13.206000328063965 -23.9950008392334,4.281000137329102 -17.197999954223633,-5.849999904632568 C-9.00100040435791,-18.06599998474121 -0.5669999718666077,-33.1619987487793 2.8589999675750732,-39.27899932861328 C10.659000396728516,-53.20800018310547 20.131000518798828,-61.00699996948242 30.159000396728516,-58.22100067138672 C41.987998962402344,-54.93600082397461 43.941001892089844,-46.007999420166016 39.63100051879883,-30.92099952697754 C35.32099914550781,-15.835000038146973 22.695999145507812,-1.1130000352859497 16.231000900268555,12.53600025177002 C9.765000343322754,26.18600082397461 -6.916999816894531,50.439998626708984 -9.071999549865723,54.03200149536133 C-11.22700023651123,57.624000549316406 -10.51200008392334,61.007999420166016 -10.51200008392334,61.007999420166016"></path></g><g opacity="0" transform="matrix(1,0,0,1,0,0)"><path fill="rgb(227,141,108)" fill-opacity="1" d=" M171.77999877929688,99.19100189208984 C170.3249969482422,102.26399993896484 166.72799682617188,105.66899871826172 165.01499938964844,108.94999694824219 C161.9929962158203,114.73799896240234 155.7760009765625,122.93800354003906 155.01499938964844,124.16100311279297 C154.25399780273438,125.38400268554688 146.32000732421875,134.47000122070312 148.4010009765625,136.156005859375 C151.8070068359375,138.9149932861328 159.25399780273438,142.03700256347656 162.74099731445312,144.55499267578125 C167.96099853515625,148.3249969482422 171.07200622558594,151.64500427246094 172.06399536132812,151.41400146484375 C175.13900756835938,150.697998046875 183.44400024414062,136.843994140625 187.21400451660156,129.21099853515625 C190.46499633789062,122.62899780273438 197.91700744628906,111.91600036621094 197.98399353027344,110.13099670410156 C198.05099487304688,108.34600067138672 187.73899841308594,109.3010025024414 183.11300659179688,106.35800170898438 C178.48699951171875,103.41500091552734 173.23500061035156,96.11799621582031 171.77999877929688,99.19100189208984z"></path></g><g opacity="1" transform="matrix(1,0,0,1,124.69000244140625,86.55699920654297)"><path fill="rgb(255,195,161)" fill-opacity="1" d=" M13.984999656677246,48.2859992980957 C13.984999656677246,48.2859992980957 11.197999954223633,49.77199935913086 12.312999725341797,45.68600082397461 C14.885000228881836,36.255001068115234 18.631999969482422,21.900999069213867 21.226999282836914,14.857000350952148 C26.256000518798828,1.2079999446868896 35.97200012207031,-33.68299865722656 33.85599899291992,-42.34299850463867 C29.770000457763672,-59.05799865722656 10.581999778747559,-57.38100051879883 3.3980000019073486,-40.856998443603516 C-3.7860000133514404,-24.333999633789062 -12.39799976348877,5.616000175476074 -18.145000457763672,17.82900047302246 C-23.892000198364258,30.04199981689453 -35.97200012207031,59.05699920654297 -35.97200012207031,59.05699920654297"></path><path stroke-linecap="round" stroke-linejoin="round" fill-opacity="0" stroke="rgb(163,88,36)" stroke-opacity="1" stroke-width="11" d=" M13.984999656677246,48.2859992980957 C13.984999656677246,48.2859992980957 11.197999954223633,49.77199935913086 12.312999725341797,45.68600082397461 C14.885000228881836,36.255001068115234 18.631999969482422,21.900999069213867 21.226999282836914,14.857000350952148 C26.256000518798828,1.2079999446868896 35.97200012207031,-33.68299865722656 33.85599899291992,-42.34299850463867 C29.770000457763672,-59.05799865722656 10.581999778747559,-57.38100051879883 3.3980000019073486,-40.856998443603516 C-3.7860000133514404,-24.333999633789062 -12.39799976348877,5.616000175476074 -18.145000457763672,17.82900047302246 C-23.892000198364258,30.04199981689453 -35.97200012207031,59.05699920654297 -35.97200012207031,59.05699920654297"></path></g><g opacity="0" transform="matrix(1,0,0,1,0,0)"><path fill="rgb(227,141,108)" fill-opacity="1" d=" M117.322998046875,91.98899841308594 C117.322998046875,91.98899841308594 114.05699920654297,97.22000122070312 112.60099792480469,102.70600128173828 C111.1449966430664,108.19200134277344 105.88400268554688,117.73500061035156 104.85700225830078,123.68299865722656 C103.83000183105469,129.63099670410156 126.98300170898438,130.2550048828125 129.89100646972656,131.3470001220703 C132.7989959716797,132.43899536132812 136.1959991455078,114.28099822998047 137.38699340820312,111.10900115966797 C138.5780029296875,107.93699645996094 139.48399353027344,99.8290023803711 140.94500732421875,96.64800262451172 C141.7790069580078,94.83399963378906 133.468994140625,95.7760009765625 129.37100219726562,95.44400024414062 C125.27300262451172,95.11199951171875 117.322998046875,91.98899841308594 117.322998046875,91.98899841308594z"></path></g><g opacity="1" transform="matrix(1,0,0,1,162.35400390625,162.1439971923828)"><path stroke-linecap="round" stroke-linejoin="round" fill-opacity="0" stroke="rgb(163,88,36)" stroke-opacity="1" stroke-width="11" d=" M-32.59299850463867,-27.85700035095215 C-32.59299850463867,-27.85700035095215 -14.206999778747559,-22.843000411987305 3.063999891281128,-10.027999877929688 C20.336000442504883,2.7860000133514404 32.59299850463867,27.85700035095215 32.59299850463867,27.85700035095215"></path></g><g opacity="1" transform="matrix(1,0,0,1,136.42599487304688,194.38400268554688)"><path fill="rgb(237,154,122)" fill-opacity="1" d=" M-29.136999130249023,11.774999618530273 C-27.29599952697754,20.979000091552734 -24.562000274658203,31.075000762939453 -24.291000366210938,37.98099899291992 C-24.069000244140625,43.630001068115234 -18.235000610351562,47.28300094604492 -13.053999900817871,45.02199935913086 C-0.8849999904632568,39.709999084472656 11.4399995803833,31.090999603271484 19.476999282836914,25.246999740600586 C31.733999252319336,16.332000732421875 42.880001068115234,2.509000062942505 31.73699951171875,-4.177000045776367 C20.5939998626709,-10.86299991607666 0.5770000219345093,-19.424999237060547 -9.451000213623047,-28.34000015258789 C-19.479999542236328,-37.25400161743164 -42.880001068115234,-47.28300094604492 -38.42300033569336,-31.68199920654297 C-33.965999603271484,-16.082000732421875 -33.59400177001953,-10.51099967956543 -29.136999130249023,11.774999618530273z"></path></g><g opacity="1" transform="matrix(1,0,0,1,133.1540069580078,255.18299865722656)"><path fill="rgb(237,154,122)" fill-opacity="1" d=" M-57.07600021362305,-13.484999656677246 C-57.07600021362305,-13.484999656677246 -40.72999954223633,7.21999979019165 -13.486000061035156,8.3100004196167 C13.758000373840332,9.399999618530273 39.095001220703125,-16.48200035095215 49.992000579833984,-21.38599967956543 C60.88999938964844,-26.290000915527344 63.61399841308594,-25.200000762939453 57.619998931884766,-18.115999221801758 C51.62699890136719,-11.032999992370605 24.111000061035156,20.840999603271484 -3.132999897003174,23.56599998474121 C-30.37700080871582,26.290000915527344 -38.005001068115234,17.572999954223633 -43.999000549316406,10.489999771118164 C-49.99300003051758,3.4059998989105225 -63.6150016784668,-4.767000198364258 -63.6150016784668,-4.767000198364258 C-63.6150016784668,-4.767000198364258 -57.07600021362305,-13.484999656677246 -57.07600021362305,-13.484999656677246z"></path></g><g opacity="1" transform="matrix(1,0,0,1,66.93000030517578,167.6840057373047)"><path fill="rgb(255,195,161)" fill-opacity="1" d=" M7.672999858856201,83.60399627685547 C7.672999858856201,83.60399627685547 -19.06999969482422,75.24700164794922 -28.726999282836914,47.018001556396484 C-32.22600173950195,36.79199981689453 -30.625999450683594,19.533000946044922 -28.783000946044922,12.15999984741211 C-24.472999572753906,-5.081999778747559 -20.881000518798828,-20.886999130249023 -23.035999298095703,-34.5359992980957 C-25.19099998474121,-48.18600082397461 -39.43000030517578,-76.41999816894531 -26.499000549316406,-80.01200103759766 C-13.567000389099121,-83.60399627685547 1.5540000200271606,-81.28199768066406 7.302000045776367,-64.04000091552734 C10.833000183105469,-53.44599914550781 12.805999755859375,-41.45199966430664 14.635000228881836,-32.944000244140625 C15.782999992370605,-27.604999542236328 16.874000549316406,-23.639999389648438 18.259000778198242,-22.2549991607666 C21.85099983215332,-18.663000106811523 26.336999893188477,-14.454000473022461 32.744998931884766,-5.539000034332275 C36.13800048828125,-0.8190000057220459 39.43000030517578,16.187999725341797 39.43000030517578,16.187999725341797"></path><path stroke-linecap="round" stroke-linejoin="round" fill-opacity="0" stroke="rgb(163,88,36)" stroke-opacity="1" stroke-width="11" d=" M7.672999858856201,83.60399627685547 C7.672999858856201,83.60399627685547 -19.06999969482422,75.24700164794922 -28.726999282836914,47.018001556396484 C-32.22600173950195,36.79199981689453 -30.625999450683594,19.533000946044922 -28.783000946044922,12.15999984741211 C-24.472999572753906,-5.081999778747559 -20.881000518798828,-20.886999130249023 -23.035999298095703,-34.5359992980957 C-25.19099998474121,-48.18600082397461 -39.43000030517578,-76.41999816894531 -26.499000549316406,-80.01200103759766 C-13.567000389099121,-83.60399627685547 1.5540000200271606,-81.28199768066406 7.302000045776367,-64.04000091552734 C10.833000183105469,-53.44599914550781 12.805999755859375,-41.45199966430664 14.635000228881836,-32.944000244140625 C15.782999992370605,-27.604999542236328 16.874000549316406,-23.639999389648438 18.259000778198242,-22.2549991607666 C21.85099983215332,-18.663000106811523 26.336999893188477,-14.454000473022461 32.744998931884766,-5.539000034332275 C36.13800048828125,-0.8190000057220459 39.43000030517578,16.187999725341797 39.43000030517578,16.187999725341797"></path></g><g opacity="1" transform="matrix(1,0,0,1,65.9990005493164,170.31900024414062)"><path fill="rgb(237,154,122)" fill-opacity="1" d=" M-20.704999923706055,-76.01000213623047 C-17.70800018310547,-64.02300262451172 -7.355999946594238,-37.05099868774414 -7.355999946594238,-29.42300033569336 C-7.355999946594238,-21.795000076293945 -10.079999923706055,-1.090000033378601 -10.625,10.89799976348877 C-11.170000076293945,22.885000228881836 -14.29800033569336,43.3390007019043 -4.085999965667725,53.94300079345703 C10.079999923706055,68.65499877929688 24.79199981689453,71.92400360107422 25.881999969482422,75.73799896240234 C26.972000122070312,79.552001953125 16.073999404907227,80.09700012207031 2.4519999027252197,73.01399993896484 C-11.170000076293945,65.93000030517578 -26.97100067138672,48.49399948120117 -24.246999740600586,23.43000030517578 C-21.52199935913086,-1.6339999437332153 -14.439000129699707,-22.34000015258789 -16.618000030517578,-33.23699951171875 C-18.79800033569336,-44.1349983215332 -26.972000122070312,-69.1989974975586 -25.881999969482422,-74.64800262451172 C-24.792999267578125,-80.09700012207031 -21.10700035095215,-77.61799621582031 -20.704999923706055,-76.01000213623047z"></path></g><g opacity="1" transform="matrix(1,0,0,1,130.17999267578125,98.62200164794922)"><path stroke-linecap="round" stroke-linejoin="round" fill-opacity="0" stroke="rgb(237,154,122)" stroke-opacity="1" stroke-width="7" d=" M-8.52400016784668,-3.7070000171661377 C-8.52400016784668,-3.7070000171661377 -4.197999954223633,-3.437000036239624 -1.031999945640564,-2.3450000286102295 C2.9179999828338623,-0.9829999804496765 3.871999979019165,-0.8920000195503235 3.871999979019165,-0.8920000195503235"></path></g><g opacity="1" transform="matrix(1,0,0,1,183.98199462890625,108.63500213623047)"><path stroke-linecap="round" stroke-linejoin="round" fill-opacity="0" stroke="rgb(237,154,122)" stroke-opacity="1" stroke-width="7.821" d=" M-6.245999813079834,-3.1700000762939453 C-6.245999813079834,-3.1700000762939453 -1.6950000524520874,-1.7419999837875366 1.3949999809265137,0.2879999876022339 C5.250999927520752,2.821000099182129 6.245999813079834,3.1700000762939453 6.245999813079834,3.1700000762939453"></path></g><g opacity="1" transform="matrix(1,0,0,1,222.16299438476562,140.60800170898438)"><path stroke-linecap="round" stroke-linejoin="round" fill-opacity="0" stroke="rgb(237,154,122)" stroke-opacity="1" stroke-width="7.821" d=" M-4.474999904632568,-5.388000011444092 C-4.474999904632568,-5.388000011444092 -0.8640000224113464,-2.2720000743865967 1.1670000553131104,0.8169999718666077 C3.7009999752044678,4.671999931335449 4.474999904632568,5.38700008392334 4.474999904632568,5.38700008392334"></path></g><g opacity="1" transform="matrix(1,0,0,1,231.48399353027344,194.63800048828125)"><path stroke-linecap="round" stroke-linejoin="round" fill-opacity="0" stroke="rgb(237,154,122)" stroke-opacity="1" stroke-width="7.821" d=" M-1.88100004196167,-5.105000019073486 C-1.88100004196167,-5.105000019073486 1.5180000066757202,0.01899999938905239 1.88100004196167,5.105000019073486"></path></g></g><g style="display: block;" transform="matrix(1.0017882585525513,-0.03750428184866905,0.03765654191374779,1.0058553218841553,107.05575561523438,36.28163146972656)" opacity="1"><g opacity="1" transform="matrix(0.9984920024871826,-0.05489790067076683,0.05489790067076683,0.9984920024871826,-0.6116256713867188,7.207038879394531)"><g opacity="1" transform="matrix(1,0,0,1,98.61100006103516,48.86199951171875)"><path stroke-linecap="round" stroke-linejoin="round" fill-opacity="0" stroke="rgb(211,117,70)" stroke-opacity="1" stroke-width="9.036" d=" M-20.92099952697754,-26.27199935913086 C-20.92099952697754,-26.27199935913086 -2.5299999713897705,-24.322999954223633 3.936000108718872,-15.723999977111816 C20.922000885009766,6.860000133514404 4.494999885559082,26.27199935913086 4.494999885559082,26.27199935913086"></path></g><g opacity="1" transform="matrix(1,0,0,1,64.08300018310547,58.91699981689453)"><path fill="rgb(255,255,255)" fill-opacity="1" d=" M-38.25,2.7780001163482666 C-40.861000061035156,-0.45899999141693115 -36.665000915527344,-8.321999549865723 -34.040000915527344,-11.54699993133545 C-29.291000366210938,-17.3799991607666 -14.819999694824219,-31.02199935913086 11.758999824523926,-24.7189998626709 C41.83300018310547,-17.586999893188477 40.861000061035156,9.784000396728516 37.44200134277344,18.270000457763672 C34.02299880981445,26.756000518798828 10.656000137329102,25.82200050354004 -9.366000175476074,18.246000289916992 C-20.83300018310547,13.907999992370605 -33.060001373291016,9.211999893188477 -38.25,2.7780001163482666z"></path><path stroke-linecap="round" stroke-linejoin="round" fill-opacity="0" stroke="rgb(82,98,130)" stroke-opacity="1" stroke-width="8.221" d=" M-38.25,2.7780001163482666 C-40.861000061035156,-0.45899999141693115 -36.665000915527344,-8.321999549865723 -34.040000915527344,-11.54699993133545 C-29.291000366210938,-17.3799991607666 -14.819999694824219,-31.02199935913086 11.758999824523926,-24.7189998626709 C41.83300018310547,-17.586999893188477 40.861000061035156,9.784000396728516 37.44200134277344,18.270000457763672 C34.02299880981445,26.756000518798828 10.656000137329102,25.82200050354004 -9.366000175476074,18.246000289916992 C-20.83300018310547,13.907999992370605 -33.060001373291016,9.211999893188477 -38.25,2.7780001163482666z"></path></g><g opacity="1" transform="matrix(1.1930099725723267,0,0,1.1930099725723267,-13.621246337890625,-10.57503890991211)"><g opacity="1" transform="matrix(1,0,0,1,77.72899627685547,59.59199905395508)"><path fill="rgb(35,16,11)" fill-opacity="1" d=" M13.876999855041504,0.5550000071525574 C13.571000099182129,8.218999862670898 7.109000205993652,14.182999610900879 -0.5550000071525574,13.876999855041504 C-8.218999862670898,13.569999694824219 -14.182999610900879,7.109000205993652 -13.876999855041504,-0.5550000071525574 C-13.569999694824219,-8.218000411987305 -7.109000205993652,-14.182999610900879 0.5540000200271606,-13.87600040435791 C8.218000411987305,-13.569999694824219 14.182999610900879,-7.109000205993652 13.876999855041504,0.5550000071525574z"></path></g><g opacity="1" transform="matrix(1,0,0,1,66.70899963378906,52.17599868774414)"><path fill="rgb(255,255,255)" fill-opacity="1" d=" M7.781000137329102,-0.31299999356269836 C7.855999946594238,1.5509999990463257 4.433000087738037,3.2009999752044678 0.13600000739097595,3.374000072479248 C-4.1620001792907715,3.5460000038146973 -7.705999851226807,2.1760001182556152 -7.781000137329102,0.31200000643730164 C-7.855999946594238,-1.5509999990463257 -4.433000087738037,-3.2009999752044678 -0.13500000536441803,-3.374000072479248 C4.1620001792907715,-3.5460000038146973 7.705999851226807,-2.177000045776367 7.781000137329102,-0.31299999356269836z"></path></g></g><g opacity="1" transform="matrix(1,0,0,1,61.14099884033203,75.39099884033203)"><path fill="rgb(255,195,161)" fill-opacity="1" d=" M-37.93899917602539,-14.972999572753906 C-37.9739990234375,-17.340999603271484 -36.05699920654297,-19.261999130249023 -33.69900131225586,-19.15999984741211 C-25.923999786376953,-18.823999404907227 -7.7729997634887695,-17.408000946044922 7.281000137329102,-11.435999870300293 C20.22800064086914,-6.298999786376953 32.39400100708008,1.3600000143051147 36.367000579833984,5.3429999351501465 C37.9739990234375,6.954999923706055 34.88100051879883,11.333999633789062 33.00699996948242,12.621999740600586 C24.04800033569336,18.781999588012695 5.828999996185303,19.261999130249023 -12.093999862670898,13.281000137329102 C-33.391998291015625,6.173999786376953 -37.84199905395508,-8.321999549865723 -37.93899917602539,-14.972999572753906z"></path><path stroke-linecap="round" stroke-linejoin="round" fill-opacity="0" stroke="rgb(181,95,48)" stroke-opacity="1" stroke-width="10" d=" M-37.93899917602539,-14.972999572753906 C-37.9739990234375,-17.340999603271484 -36.05699920654297,-19.261999130249023 -33.69900131225586,-19.15999984741211 C-25.923999786376953,-18.823999404907227 -7.7729997634887695,-17.408000946044922 7.281000137329102,-11.435999870300293 C20.22800064086914,-6.298999786376953 32.39400100708008,1.3600000143051147 36.367000579833984,5.3429999351501465 C37.9739990234375,6.954999923706055 34.88100051879883,11.333999633789062 33.00699996948242,12.621999740600586 C24.04800033569336,18.781999588012695 5.828999996185303,19.261999130249023 -12.093999862670898,13.281000137329102 C-33.391998291015625,6.173999786376953 -37.84199905395508,-8.321999549865723 -37.93899917602539,-14.972999572753906z"></path></g></g><g opacity="1" transform="matrix(1,0,0,1,0,0)"><g opacity="1" transform="matrix(1,0,0,1,197.65199279785156,88.36399841308594)"><path stroke-linecap="round" stroke-linejoin="round" fill-opacity="0" stroke="rgb(211,117,70)" stroke-opacity="1" stroke-width="8.785" d=" M-37.68199920654297,-13.060999870300293 C-37.68199920654297,-13.060999870300293 -28.57900047302246,-24.76799964904785 -8.927000045776367,-24.440000534057617 C16.804000854492188,-24.010000228881836 28.0310001373291,-9.071000099182129 33.555999755859375,2.5280001163482666 C37.48699951171875,10.779999732971191 37.68199920654297,24.76799964904785 37.68199920654297,24.76799964904785"></path></g><g opacity="1" transform="matrix(1,0,0,1,199.82000732421875,110.85099792480469)"><path fill="rgb(255,255,255)" fill-opacity="1" d=" M-41.715999603271484,-9.3149995803833 C-44.0359992980957,-13.25100040435791 -41.26499938964844,-17.597999572753906 -38.1150016784668,-20.906999588012695 C-29.649999618530273,-29.798999786376953 -3.63700008392334,-40.0359992980957 17.61400032043457,-27.58300018310547 C50.97700119018555,-8.031999588012695 37.547000885009766,26.31399917602539 31.400999069213867,30.260000228881836 C26.267000198364258,33.555999755859375 -10.232999801635742,23.20599937438965 -25.849000930786133,9.407999992370605 C-33.983001708984375,2.2209999561309814 -38.8849983215332,-4.513000011444092 -41.715999603271484,-9.3149995803833z"></path><path stroke-linecap="round" stroke-linejoin="round" fill-opacity="0" stroke="rgb(82,98,130)" stroke-opacity="1" stroke-width="8.136" d=" M-41.715999603271484,-9.3149995803833 C-44.0359992980957,-13.25100040435791 -41.26499938964844,-17.597999572753906 -38.1150016784668,-20.906999588012695 C-29.649999618530273,-29.798999786376953 -3.63700008392334,-40.0359992980957 17.61400032043457,-27.58300018310547 C50.97700119018555,-8.031999588012695 37.547000885009766,26.31399917602539 31.400999069213867,30.260000228881836 C26.267000198364258,33.555999755859375 -10.232999801635742,23.20599937438965 -25.849000930786133,9.407999992370605 C-33.983001708984375,2.2209999561309814 -38.8849983215332,-4.513000011444092 -41.715999603271484,-9.3149995803833z"></path></g><g opacity="1" transform="matrix(1.1840800046920776,0,0,1.1840800046920776,-36.000762939453125,-18.62786102294922)"><g opacity="1" transform="matrix(1,0,0,1,212.5469970703125,112.39700317382812)"><path fill="rgb(35,16,11)" fill-opacity="1" d=" M14.875,0.593999981880188 C14.54699993133545,8.809000015258789 7.620999813079834,15.204000473022461 -0.5950000286102295,14.875 C-8.8100004196167,14.54699993133545 -15.20300006866455,7.619999885559082 -14.875,-0.5950000286102295 C-14.545999526977539,-8.810999870300293 -7.619999885559082,-15.20300006866455 0.5950000286102295,-14.875 C8.8100004196167,-14.545999526977539 15.20300006866455,-7.620999813079834 14.875,0.593999981880188z"></path></g><g opacity="1" transform="matrix(1,0,0,1,202.81399536132812,105.04199981689453)"><path fill="rgb(255,255,255)" fill-opacity="1" d=" M7.703999996185303,0.30799999833106995 C7.630000114440918,2.1530001163482666 4.120999813079834,3.510999917984009 -0.13300000131130219,3.3410000801086426 C-4.388000011444092,3.1710000038146973 -7.7779998779296875,1.5369999408721924 -7.703999996185303,-0.30799999833106995 C-7.630000114440918,-2.1530001163482666 -4.120999813079834,-3.510999917984009 0.1340000033378601,-3.3410000801086426 C4.388000011444092,-3.1710000038146973 7.7779998779296875,-1.5369999408721924 7.703999996185303,0.30799999833106995z"></path></g></g><g opacity="0.41000000000000003" transform="matrix(1,0,0,1,246.927001953125,156.43699645996094)"><path stroke-linecap="round" stroke-linejoin="round" fill-opacity="0" stroke="rgb(211,117,70)" stroke-opacity="1" stroke-width="8.638" d=" M-9.800999641418457,-11.11400032043457 C-9.800999641418457,-11.11400032043457 -0.05700000002980232,-4.53000020980835 4.033999919891357,0.39899998903274536 C8.12600040435791,5.328000068664551 9.800999641418457,11.11400032043457 9.800999641418457,11.11400032043457"></path></g><g opacity="0.46" transform="matrix(1,0,0,1,255.75999450683594,136.99600219726562)"><path stroke-linecap="round" stroke-linejoin="round" fill-opacity="0" stroke="rgb(211,117,70)" stroke-opacity="1" stroke-width="8.785" d=" M-11.234999656677246,-3.8420000076293945 C-11.234999656677246,-3.8420000076293945 -1.6549999713897705,-1.034999966621399 4.111999988555908,0.16500000655651093 C9.880000114440918,1.3650000095367432 11.234999656677246,3.8420000076293945 11.234999656677246,3.8420000076293945"></path></g><g opacity="1" transform="matrix(1,0,0,1,191.9320068359375,122.85800170898438)"><path fill="rgb(255,195,161)" fill-opacity="1" d=" M-37.78499984741211,-19.716999053955078 C-38.38800048828125,-22.479000091552734 -36.255001068115234,-25.042999267578125 -33.84400177001953,-24.496999740600586 C-24.024999618530273,-22.274999618530273 -4.394999980926514,-13.869999885559082 13.78600025177002,-2.5139999389648438 C26.288999557495117,5.295000076293945 33.22700119018555,11.78600025177002 36.68899917602539,16.674999237060547 C38.38800048828125,19.073999404907227 37.09700012207031,22.75 34.415000915527344,23.05500030517578 C26.312000274658203,23.976999282836914 6.164000034332275,25.04400062561035 -12.996999740600586,14.765000343322754 C-32.29800033569336,4.410999774932861 -35.9739990234375,-11.427000045776367 -37.78499984741211,-19.716999053955078z"></path><path stroke-linecap="round" stroke-linejoin="round" fill-opacity="0" stroke="rgb(181,95,48)" stroke-opacity="1" stroke-width="10" d=" M-37.78499984741211,-19.716999053955078 C-38.38800048828125,-22.479000091552734 -36.255001068115234,-25.042999267578125 -33.84400177001953,-24.496999740600586 C-24.024999618530273,-22.274999618530273 -4.394999980926514,-13.869999885559082 13.78600025177002,-2.5139999389648438 C26.288999557495117,5.295000076293945 33.22700119018555,11.78600025177002 36.68899917602539,16.674999237060547 C38.38800048828125,19.073999404907227 37.09700012207031,22.75 34.415000915527344,23.05500030517578 C26.312000274658203,23.976999282836914 6.164000034332275,25.04400062561035 -12.996999740600586,14.765000343322754 C-32.29800033569336,4.410999774932861 -35.9739990234375,-11.427000045776367 -37.78499984741211,-19.716999053955078z"></path></g></g></g><g style="display: block;" transform="matrix(1.0017882585525513,-0.03750428184866905,0.03765654191374779,1.0058553218841553,121.97991943359375,-1.725189208984375)" opacity="1"><g opacity="1" transform="matrix(1,0,0,1,64.85600280761719,45.801998138427734)"><path fill="rgb(94,40,19)" fill-opacity="1" d=" M-31.268999099731445,-6.866000175476074 C-31.268999099731445,-6.866000175476074 -13.27400016784668,-22.235000610351562 16.08300018310547,-15.61299991607666 C33.82099914550781,-11.612000465393066 55.15399932861328,14.914999961853027 45.707000732421875,21.285999298095703 C39.027000427246094,25.790000915527344 24.503999710083008,5.313000202178955 6.073999881744385,1.5789999961853027 C-12.354999542236328,-2.1540000438690186 -27.447999954223633,4.818999767303467 -31.565000534057617,2.8559999465942383 C-35.680999755859375,0.8939999938011169 -31.268999099731445,-6.866000175476074 -31.268999099731445,-6.866000175476074z"></path><path stroke-linecap="round" stroke-linejoin="round" fill-opacity="0" stroke="rgb(73,31,17)" stroke-opacity="1" stroke-width="8.719" d=" M-31.268999099731445,-6.866000175476074 C-31.268999099731445,-6.866000175476074 -13.27400016784668,-22.235000610351562 16.08300018310547,-15.61299991607666 C33.82099914550781,-11.612000465393066 55.15399932861328,14.914999961853027 45.707000732421875,21.285999298095703 C39.027000427246094,25.790000915527344 24.503999710083008,5.313000202178955 6.073999881744385,1.5789999961853027 C-12.354999542236328,-2.1540000438690186 -27.447999954223633,4.818999767303467 -31.565000534057617,2.8559999465942383 C-35.680999755859375,0.8939999938011169 -31.268999099731445,-6.866000175476074 -31.268999099731445,-6.866000175476074z"></path></g><g opacity="1" transform="matrix(1,0,0,1,205.79100036621094,92.23899841308594)"><path fill="rgb(94,40,19)" fill-opacity="1" d=" M-47.90999984741211,-22.226999282836914 C-47.15599822998047,-23.70800018310547 -45.8390007019043,-24.815000534057617 -44.250999450683594,-25.30500030517578 C-35.02799987792969,-28.14900016784668 -4.480000019073486,-33.332000732421875 14.048999786376953,-25.524999618530273 C31.280000686645508,-18.266000747680664 41.75299835205078,11.157999992370605 45.584999084472656,22.187000274658203 C49.457000732421875,33.33300018310547 41.89899826049805,30.63599967956543 39.04600143432617,28.363000869750977 C33.448001861572266,23.902999877929688 20.718000411987305,1.9119999408721924 0.9049999713897705,-6.510000228881836 C-16.222000122070312,-13.791000366210938 -43.84299850463867,-10.961999893188477 -46.665000915527344,-14.019000053405762 C-48.60300064086914,-16.118000030517578 -49.457000732421875,-19.19099998474121 -47.90999984741211,-22.226999282836914z"></path><path stroke-linecap="round" stroke-linejoin="round" fill-opacity="0" stroke="rgb(73,31,17)" stroke-opacity="1" stroke-width="8.566" d=" M-47.90999984741211,-22.226999282836914 C-47.15599822998047,-23.70800018310547 -45.8390007019043,-24.815000534057617 -44.250999450683594,-25.30500030517578 C-35.02799987792969,-28.14900016784668 -4.480000019073486,-33.332000732421875 14.048999786376953,-25.524999618530273 C31.280000686645508,-18.266000747680664 41.75299835205078,11.157999992370605 45.584999084472656,22.187000274658203 C49.457000732421875,33.33300018310547 41.89899826049805,30.63599967956543 39.04600143432617,28.363000869750977 C33.448001861572266,23.902999877929688 20.718000411987305,1.9119999408721924 0.9049999713897705,-6.510000228881836 C-16.222000122070312,-13.791000366210938 -43.84299850463867,-10.961999893188477 -46.665000915527344,-14.019000053405762 C-48.60300064086914,-16.118000030517578 -49.457000732421875,-19.19099998474121 -47.90999984741211,-22.226999282836914z"></path></g></g></g><g style="display: block;" transform="matrix(1,0,0,1,256,256)" opacity="1"></g></g></svg>