<svg xmlns="http://www.w3.org/2000/svg" xmlns:xlink="http://www.w3.org/1999/xlink" viewBox="0 0 512 512" width="512" height="512" style="width: 100%; height: 100%; transform: translate3d(0,0,0); content-visibility: visible;" preserveAspectRatio="xMidYMid meet"><defs><clipPath id="__lottie_element_2"><rect width="512" height="512" x="0" y="0"></rect></clipPath><radialGradient id="__lottie_element_8" spreadMethod="pad" gradientUnits="userSpaceOnUse" cx="278" cy="-191" r="451.26817474936854" fx="278" fy="-191"><stop offset="0%" stop-color="rgb(251,236,221)"></stop><stop offset="50%" stop-color="rgb(248,215,191)"></stop><stop offset="100%" stop-color="rgb(245,195,161)"></stop></radialGradient></defs><g clip-path="url(#__lottie_element_2)"><g style="display: block;" transform="matrix(1,0,0,1,256,256)" opacity="1"><g opacity="1" transform="matrix(1,0,0,1,0,0)"><path fill="url(#__lottie_element_8)" fill-opacity="1" d=" M-228.23599243164062,166.60000610351562 C-228.23599243164062,166.60000610351562 -221.8459930419922,-58.744998931884766 -92.49800109863281,-136.54100036621094 C63.75600051879883,-230.52000427246094 184.8419952392578,-148.11000061035156 210.88400268554688,-131.12600708007812 C227.77000427246094,-120.11299896240234 231.39700317382812,-98.58399963378906 222.33900451660156,-94.05500030517578 C213.281005859375,-89.5260009765625 187.53799438476562,-87.25199890136719 184.49600219726562,-81.9280014038086 C160.91700744628906,15.430000305175781 195.92599487304688,174.9720001220703 195.92599487304688,174.9720001220703 C195.92599487304688,174.9720001220703 135.8800048828125,208.15899658203125 -20.847999572753906,202.35400390625 C-164.60299682617188,197.02999877929688 -228.23599243164062,166.60000610351562 -228.23599243164062,166.60000610351562z"></path></g><g opacity="1" transform="matrix(1,0,0,1,0,0)"><path fill="rgb(234,159,117)" fill-opacity="1" d=" M169.04800415039062,-143.54600524902344 C-74.6500015258789,-202.83900451660156 -155.27499389648438,1.7660000324249268 -172.00799560546875,182.79100036621094 C-185.69900512695312,182.79100036621094 -225.25100708007812,168.33900451660156 -225.25100708007812,168.33900451660156 C-225.25100708007812,168.33900451660156 -217.03799438476562,-24.177000045776367 -108.73200225830078,-109.38300323486328 C52.849998474121094,-236.5019989013672 171.63299560546875,-151.18699645996094 169.04800415039062,-143.54600524902344z"></path></g><g opacity="1" transform="matrix(1,0,0,1,0,0)"><path stroke-linecap="round" stroke-linejoin="round" fill-opacity="0" stroke="rgb(186,101,71)" stroke-opacity="1" stroke-width="17.008" d=" M-229.51400756835938,159.90499877929688 C-228.3820037841797,103.29100036621094 -208.0540008544922,-62.483001708984375 -78.85600280761719,-140.5279998779297 C108.65699768066406,-253.7989959716797 250.0989990234375,-110.61799621582031 225.79100036621094,-95.59200286865234 C217.177001953125,-90.26699829101562 184.71800231933594,-84.18299865722656 184.71800231933594,-84.18299865722656 C184.71800231933594,-84.18299865722656 167.98500061035156,87.71499633789062 203.58299255371094,170.66200256347656"></path></g><g opacity="1" transform="matrix(1,0,0,1,0,0)"><path fill="rgb(234,159,117)" fill-opacity="1" d=" M181.16600036621094,-80.34700012207031 C181.16600036621094,-80.34700012207031 44.071998596191406,-33.10499954223633 7.214000225067139,-28.041000366210938 C-29.643999099731445,-22.976999282836914 -58.3380012512207,-27.77199935913086 -59.91600036621094,-31.76099967956543 C-63.40999984741211,-40.59199905395508 -42.56800079345703,-39.573001861572266 -12.34000015258789,-43.93299865722656 C17.88800048828125,-48.292999267578125 181.16600036621094,-80.34700012207031 181.16600036621094,-80.34700012207031z"></path></g><g opacity="1" transform="matrix(1,0,0,1,0,0)"><path stroke-linecap="round" stroke-linejoin="round" fill-opacity="0" stroke="rgb(135,54,26)" stroke-opacity="1" stroke-width="15.086" d=" M-54.141998291015625,-36.81100082397461 C-54.141998291015625,-36.81100082397461 223.47799682617188,-92.57599639892578 223.47799682617188,-92.57599639892578"></path></g><g opacity="1" transform="matrix(1,0,0,1,0,0)"><path stroke-linecap="round" stroke-linejoin="round" fill-opacity="0" stroke="rgb(135,54,26)" stroke-opacity="1" stroke-width="16.126" d=" M-14.831999778747559,-186.19700622558594 C-38.44499969482422,-193.23599243164062 -65.66999816894531,-185.48300170898438 -65.66999816894531,-185.48300170898438"></path></g><g opacity="1" transform="matrix(1,0,0,1,0,0)"><path stroke-linecap="round" stroke-linejoin="round" fill-opacity="0" stroke="rgb(135,54,26)" stroke-opacity="1" stroke-width="18.272" d=" M176.6479949951172,-208.8719940185547 C176.6479949951172,-208.8719940185547 143.52099609375,-197.82400512695312 125.8290023803711,-185.13900756835938"></path></g><g opacity="1" transform="matrix(1,0,0,1,166.68800354003906,-30.132999420166016)"><path fill="rgb(234,159,117)" fill-opacity="1" d=" M16.908000946044922,-115.41999816894531 C16.908000946044922,-93.8479995727539 -1.0779999494552612,-76.36000061035156 -23.264999389648438,-76.36000061035156 C-45.45199966430664,-76.36000061035156 -63.4379997253418,-93.8479995727539 -63.4379997253418,-115.41999816894531 C-63.4379997253418,-136.99200439453125 -45.45199966430664,-154.47999572753906 -23.264999389648438,-154.47999572753906 C-1.0779999494552612,-154.47999572753906 16.908000946044922,-136.99200439453125 16.908000946044922,-115.41999816894531z"></path></g><g opacity="1" transform="matrix(1,0,0,1,166.68800354003906,-30.132999420166016)"><path fill="rgb(6,9,17)" fill-opacity="1" d=" M8.545999526977539,-122.83699798583984 C8.545999526977539,-108.88400268554688 -3.5280001163482666,-97.572998046875 -18.422000885009766,-97.572998046875 C-33.316001892089844,-97.572998046875 -45.38999938964844,-108.88400268554688 -45.38999938964844,-122.83699798583984 C-45.38999938964844,-136.7899932861328 -33.316001892089844,-148.10000610351562 -18.422000885009766,-148.10000610351562 C-3.5280001163482666,-148.10000610351562 8.545999526977539,-136.7899932861328 8.545999526977539,-122.83699798583984z"></path><path stroke-linecap="round" stroke-linejoin="round" fill-opacity="0" stroke="rgb(9,11,25)" stroke-opacity="1" stroke-width="23.254" d=" M8.545999526977539,-122.83699798583984 C8.545999526977539,-108.88400268554688 -3.5280001163482666,-97.572998046875 -18.422000885009766,-97.572998046875 C-33.316001892089844,-97.572998046875 -45.38999938964844,-108.88400268554688 -45.38999938964844,-122.83699798583984 C-45.38999938964844,-136.7899932861328 -33.316001892089844,-148.10000610351562 -18.422000885009766,-148.10000610351562 C-3.5280001163482666,-148.10000610351562 8.545999526977539,-136.7899932861328 8.545999526977539,-122.83699798583984z"></path></g><g opacity="1" transform="matrix(1,0,0,1,166.68699645996094,-30.13300323486328)"><g opacity="1" transform="matrix(1,0,0,1,0.5920000076293945,0.4880000054836273)"><path fill="rgb(255,255,255)" fill-opacity="1" d=" M-28.985000610351562,-124.5739974975586 C-28.985000610351562,-119.49700164794922 -33.099998474121094,-115.38200378417969 -38.176998138427734,-115.38200378417969 C-43.25400161743164,-115.38200378417969 -47.36899948120117,-119.49700164794922 -47.36899948120117,-124.5739974975586 C-47.36899948120117,-129.6510009765625 -43.25400161743164,-133.76600646972656 -38.176998138427734,-133.76600646972656 C-33.099998474121094,-133.76600646972656 -28.985000610351562,-129.6510009765625 -28.985000610351562,-124.5739974975586z"></path></g><g opacity="1" transform="matrix(1,0,0,1,0.5699999928474426,0)"><path fill="rgb(48,87,135)" fill-opacity="1" d=" M-4.019000053405762,-149.75900268554688 C-4.019000053405762,-149.75900268554688 15.918000221252441,-134.3070068359375 7.942999839782715,-114.86799621582031 C-0.6370000243186951,-93.9540023803711 -18.422000885009766,-97.572998046875 -18.422000885009766,-97.572998046875 C-18.422000885009766,-97.572998046875 -4.019999980926514,-103.9020004272461 -2.0260000228881836,-123.83999633789062 C-0.03200000151991844,-143.7779998779297 -4.019000053405762,-149.75900268554688 -4.019000053405762,-149.75900268554688z"></path></g></g><g opacity="1" transform="matrix(1,0,0,1,0,0)"><path fill="rgb(234,159,117)" fill-opacity="1" d=" M16.908000946044922,-115.41999816894531 C16.908000946044922,-93.8479995727539 -1.0779999494552612,-76.36000061035156 -23.264999389648438,-76.36000061035156 C-45.45199966430664,-76.36000061035156 -63.4379997253418,-93.8479995727539 -63.4379997253418,-115.41999816894531 C-63.4379997253418,-136.99200439453125 -45.45199966430664,-154.47999572753906 -23.264999389648438,-154.47999572753906 C-1.0779999494552612,-154.47999572753906 16.908000946044922,-136.99200439453125 16.908000946044922,-115.41999816894531z"></path></g><g opacity="1" transform="matrix(1,0,0,1,0,0)"><path fill="rgb(6,9,17)" fill-opacity="1" d=" M8.545999526977539,-122.83699798583984 C8.545999526977539,-108.88400268554688 -3.5280001163482666,-97.572998046875 -18.422000885009766,-97.572998046875 C-33.316001892089844,-97.572998046875 -45.38999938964844,-108.88400268554688 -45.38999938964844,-122.83699798583984 C-45.38999938964844,-136.7899932861328 -33.316001892089844,-148.10000610351562 -18.422000885009766,-148.10000610351562 C-3.5280001163482666,-148.10000610351562 8.545999526977539,-136.7899932861328 8.545999526977539,-122.83699798583984z"></path><path stroke-linecap="round" stroke-linejoin="round" fill-opacity="0" stroke="rgb(9,11,25)" stroke-opacity="1" stroke-width="23.254" d=" M8.545999526977539,-122.83699798583984 C8.545999526977539,-108.88400268554688 -3.5280001163482666,-97.572998046875 -18.422000885009766,-97.572998046875 C-33.316001892089844,-97.572998046875 -45.38999938964844,-108.88400268554688 -45.38999938964844,-122.83699798583984 C-45.38999938964844,-136.7899932861328 -33.316001892089844,-148.10000610351562 -18.422000885009766,-148.10000610351562 C-3.5280001163482666,-148.10000610351562 8.545999526977539,-136.7899932861328 8.545999526977539,-122.83699798583984z"></path></g><g opacity="1" transform="matrix(1,0,0,1,0,0)"><g opacity="1" transform="matrix(1,0,0,1,0.5920000076293945,0.4880000054836273)"><path fill="rgb(255,255,255)" fill-opacity="1" d=" M-28.985000610351562,-124.5739974975586 C-28.985000610351562,-119.49700164794922 -33.099998474121094,-115.38200378417969 -38.176998138427734,-115.38200378417969 C-43.25400161743164,-115.38200378417969 -47.36899948120117,-119.49700164794922 -47.36899948120117,-124.5739974975586 C-47.36899948120117,-129.6510009765625 -43.25400161743164,-133.76600646972656 -38.176998138427734,-133.76600646972656 C-33.099998474121094,-133.76600646972656 -28.985000610351562,-129.6510009765625 -28.985000610351562,-124.5739974975586z"></path></g><g opacity="1" transform="matrix(1,0,0,1,0.5699999928474426,0)"><path fill="rgb(48,87,135)" fill-opacity="1" d=" M-4.019000053405762,-149.75900268554688 C-4.019000053405762,-149.75900268554688 15.918000221252441,-134.3070068359375 7.942999839782715,-114.86799621582031 C-0.6370000243186951,-93.9540023803711 -18.422000885009766,-97.572998046875 -18.422000885009766,-97.572998046875 C-18.422000885009766,-97.572998046875 -4.019999980926514,-103.9020004272461 -2.0260000228881836,-123.83999633789062 C-0.03200000151991844,-143.7779998779297 -4.019000053405762,-149.75900268554688 -4.019000053405762,-149.75900268554688z"></path></g></g></g><g style="display: block;" transform="matrix(1,0,0,1,256,256)" opacity="1"></g><g style="display: block;" transform="matrix(1,0,0,1,256,256)" opacity="1"><g opacity="1" transform="matrix(1,0,0,1,0,0)"><path stroke-linecap="round" stroke-linejoin="round" fill-opacity="0" stroke="rgb(186,101,71)" stroke-opacity="1" stroke-width="11.339" d=" M-189.73899841308594,31.381000518798828 C-189.73899841308594,31.381000518798828 -237.95799255371094,-27.81999969482422 -223.52099609375,-32.915000915527344 C-205.9029998779297,-39.132999420166016 -39.35200119018555,20.482999801635742 -18.64699935913086,37.91899871826172"></path></g></g><g style="display: block;" transform="matrix(1,0,0,1,261.0559997558594,201.1580047607422)" opacity="1"><g opacity="1" transform="matrix(1,0,0,1,0,0)"><path fill="rgb(249,198,160)" fill-opacity="1" d=" M75.69100189208984,42.268001556396484 C86.06199645996094,55.867000579833984 87.45500183105469,65.00800323486328 68.24199676513672,72.65499877929688 C88.29199981689453,90.42900085449219 84.22699737548828,103.98799896240234 62.4010009765625,111.92500305175781 C79.63999938964844,133.1580047607422 74.47699737548828,143.17599487304688 57.08399963378906,152.51699829101562 C98.92400360107422,152.51699829101562 102.01899719238281,141.13699340820312 75.56400299072266,114.56099700927734 C105.58399963378906,109.21499633789062 105.93399810791016,92.88999938964844 81.31700134277344,76.5989990234375 C103.62699890136719,62.05699920654297 96.24199676513672,52.439998626708984 75.69100189208984,42.268001556396484z M-57.24399948120117,95.4749984741211 C-56.05099868774414,120.3219985961914 -27.905000686645508,139.46299743652344 4.849999904632568,151.61399841308594 C37.60499954223633,163.76499938964844 86.01000213623047,169.43899536132812 96.7750015258789,153.11599731445312 C111.37100219726562,130.98500061035156 79.43699645996094,116.86399841308594 79.43699645996094,116.86399841308594 C96.19000244140625,119.18900299072266 130.80299377441406,97.697998046875 87.9520034790039,76.20999908447266 C101.1259994506836,72.35099792480469 109.87899780273438,58.75 96.49299621582031,43.45500183105469 C82.39600372314453,27.347000122070312 4.736999988555908,13.097999572753906 -13.182000160217285,18.96299934387207 C-41.527000427246094,28.239999771118164 -58.4370002746582,70.62799835205078 -57.24399948120117,95.4749984741211z"></path><g opacity="1" transform="matrix(1,0,0,1,0,0)"><path fill="rgb(234,159,117)" fill-opacity="1" d=" M75.69100189208984,42.268001556396484 C86.06199645996094,55.867000579833984 87.45500183105469,65.00800323486328 68.24199676513672,72.65499877929688 C88.29199981689453,90.42900085449219 84.22699737548828,103.98799896240234 62.4010009765625,111.92500305175781 C79.63999938964844,133.1580047607422 74.47699737548828,143.17599487304688 57.08399963378906,152.51699829101562 C98.92400360107422,152.51699829101562 102.01899719238281,141.13699340820312 75.56400299072266,114.56099700927734 C105.58399963378906,109.21499633789062 105.93399810791016,92.88999938964844 81.31700134277344,76.5989990234375 C103.62699890136719,62.05699920654297 96.24199676513672,52.439998626708984 75.69100189208984,42.268001556396484z"></path></g><path stroke-linecap="round" stroke-linejoin="round" fill-opacity="0" stroke="rgb(186,101,71)" stroke-opacity="1" stroke-width="11.339" d=" M-57.24399948120117,95.4749984741211 C-56.05099868774414,120.3219985961914 -27.905000686645508,139.46299743652344 4.849999904632568,151.61399841308594 C37.60499954223633,163.76499938964844 86.01000213623047,169.43899536132812 96.7750015258789,153.11599731445312 C111.37100219726562,130.98500061035156 79.43699645996094,116.86399841308594 79.43699645996094,116.86399841308594 C96.19000244140625,119.18900299072266 130.80299377441406,97.697998046875 87.9520034790039,76.20999908447266 C101.1259994506836,72.35099792480469 109.87899780273438,58.75 96.49299621582031,43.45500183105469 C82.39600372314453,27.347000122070312 4.736999988555908,13.097999572753906 -13.182000160217285,18.96299934387207 C-41.527000427246094,28.239999771118164 -58.4370002746582,70.62799835205078 -57.24399948120117,95.4749984741211z"></path></g><g opacity="1" transform="matrix(1,0,0,1,0,0)"><path fill="rgb(234,159,117)" fill-opacity="1" d=" M-42.345001220703125,63.59000015258789 C-42.345001220703125,63.59000015258789 -42.34400177001953,44.2599983215332 -15.003999710083008,27.75 C12.336000442504883,11.239999771118164 33.69599914550781,33.38800048828125 33.69599914550781,33.38800048828125 C33.69599914550781,33.38800048828125 20.187000274658203,47.941001892089844 20.187000274658203,47.941001892089844 C20.187000274658203,47.941001892089844 25.57900047302246,73.65699768066406 24.297000885009766,73.65699768066406 C23.014999389648438,73.65699768066406 9.345999717712402,131.24200439453125 9.345999717712402,131.24200439453125 C10.628000259399414,104.26200103759766 -0.05299999937415123,19.69700050354004 -42.345001220703125,63.59000015258789z"></path></g><g opacity="1" transform="matrix(1,0,0,1,0,0)"><path fill="rgb(249,198,160)" fill-opacity="1" d=" M-21.496999740600586,123.45099639892578 C-8.112000465393066,164.64300537109375 -17.58799934387207,242.79400634765625 -58.06100082397461,224.55099487304688 C-79.44400024414062,214.91200256347656 -64.81800079345703,182.2449951171875 -62.12900161743164,162.18600463867188 C-59.750999450683594,144.45199584960938 -77.74500274658203,87.61599731445312 -48.612998962402344,70.17400360107422"></path><path stroke-linecap="round" stroke-linejoin="round" fill-opacity="0" stroke="rgb(186,101,71)" stroke-opacity="1" stroke-width="11.339" d=" M-21.496999740600586,123.45099639892578 C-8.112000465393066,164.64300537109375 -17.58799934387207,242.79400634765625 -58.06100082397461,224.55099487304688 C-79.44400024414062,214.91200256347656 -64.81800079345703,182.2449951171875 -62.12900161743164,162.18600463867188 C-59.750999450683594,144.45199584960938 -77.74500274658203,87.61599731445312 -48.612998962402344,70.17400360107422"></path></g><g opacity="1" transform="matrix(1,0,0,1,0,0)"><path fill="rgb(249,198,160)" fill-opacity="1" d=" M67.01599884033203,31.375 C67.01599884033203,31.375 22.143999099731445,14.991999626159668 14.472000122070312,36.207000732421875 C8.064000129699707,53.92499923706055 50.35599899291992,68.82499694824219 50.35599899291992,68.82499694824219 C50.35599899291992,68.82499694824219 6.730000019073486,59.26100158691406 -0.47999998927116394,77.68399810791016 C-7.690000057220459,96.10700225830078 55.11000061035156,112.13200378417969 55.11000061035156,112.13200378417969 C55.11000061035156,112.13200378417969 12.597999572753906,102.697998046875 6.756999969482422,117.64199829101562 C-0.6819999814033508,136.6750030517578 37.04399871826172,147.69500732421875 37.04399871826172,147.69500732421875"></path><path stroke-linecap="round" stroke-linejoin="round" fill-opacity="0" stroke="rgb(186,101,71)" stroke-opacity="1" stroke-width="11.339" d=" M67.01599884033203,31.375 C67.01599884033203,31.375 22.143999099731445,14.991999626159668 14.472000122070312,36.207000732421875 C8.064000129699707,53.92499923706055 50.35599899291992,68.82499694824219 50.35599899291992,68.82499694824219 C50.35599899291992,68.82499694824219 6.730000019073486,59.26100158691406 -0.47999998927116394,77.68399810791016 C-7.690000057220459,96.10700225830078 55.11000061035156,112.13200378417969 55.11000061035156,112.13200378417969 C55.11000061035156,112.13200378417969 12.597999572753906,102.697998046875 6.756999969482422,117.64199829101562 C-0.6819999814033508,136.6750030517578 37.04399871826172,147.69500732421875 37.04399871826172,147.69500732421875"></path></g></g></g></svg>