<svg xmlns="http://www.w3.org/2000/svg" xmlns:xlink="http://www.w3.org/1999/xlink" viewBox="0 0 512 512" width="512" height="512" style="width: 100%; height: 100%; transform: translate3d(0,0,0); content-visibility: visible;" preserveAspectRatio="xMidYMid meet"><defs><clipPath id="__lottie_element_2"><rect width="512" height="512" x="0" y="0"></rect></clipPath><clipPath id="__lottie_element_4"><path d="M0,0 L512,0 L512,512 L0,512z"></path></clipPath><radialGradient id="__lottie_element_13" spreadMethod="pad" gradientUnits="userSpaceOnUse" cx="-51.80099868774414" cy="-115.28099822998047" r="277.72739578142546" fx="-51.80099868774414" fy="-115.28099822998047"><stop offset="2%" stop-color="rgb(255,243,228)"></stop><stop offset="51%" stop-color="rgb(254,212,183)"></stop><stop offset="100%" stop-color="rgb(253,181,138)"></stop></radialGradient></defs><g clip-path="url(#__lottie_element_2)"><g clip-path="url(#__lottie_element_4)" style="display: block;" transform="matrix(1,0,0,1,0,0)" opacity="1"><g style="display: block;" transform="matrix(1,0,0,1,1.514007568359375,-6.766998291015625)" opacity="1"><g opacity="1" transform="matrix(1,0,0,1,251.4239959716797,267.2049865722656)"><path fill="rgb(237,206,172)" fill-opacity="1" d=" M-214.52999877929688,-11.288000106811523 C-208.81500244140625,-82.15699768066406 -188.11900329589844,-138.4739990234375 -131.08700561523438,-183.88800048828125 C-69.36199951171875,-233.0399932861328 15.223999977111816,-229.61199951171875 81.52100372314453,-204.46400451660156 C139.2449951171875,-182.56900024414062 201.82899475097656,-117.59200286865234 209.5449981689453,-11.288000106811523 C217.25999450683594,95.01599884033203 174.02999877929688,145.94200134277344 162.29800415039062,160.9320068359375 C141.72300720214844,187.22300720214844 78.95099639892578,233.0399932861328 13.795999526977539,229.61099243164062 C-51.358001708984375,226.1820068359375 -121.94200134277344,205.8939971923828 -175.6649932861328,131.59500122070312 C-210.24099731445312,83.7770004272461 -217.25999450683594,22.566999435424805 -214.52999877929688,-11.288000106811523z"></path><path stroke-linecap="butt" stroke-linejoin="miter" fill-opacity="0" stroke-miterlimit="10" stroke="rgb(164,99,75)" stroke-opacity="1" stroke-width="13.666" d=" M-214.52999877929688,-11.288000106811523 C-208.81500244140625,-82.15699768066406 -188.11900329589844,-138.4739990234375 -131.08700561523438,-183.88800048828125 C-69.36199951171875,-233.0399932861328 15.223999977111816,-229.61199951171875 81.52100372314453,-204.46400451660156 C139.2449951171875,-182.56900024414062 201.82899475097656,-117.59200286865234 209.5449981689453,-11.288000106811523 C217.25999450683594,95.01599884033203 174.02999877929688,145.94200134277344 162.29800415039062,160.9320068359375 C141.72300720214844,187.22300720214844 78.95099639892578,233.0399932861328 13.795999526977539,229.61099243164062 C-51.358001708984375,226.1820068359375 -121.94200134277344,205.8939971923828 -175.6649932861328,131.59500122070312 C-210.24099731445312,83.7770004272461 -217.25999450683594,22.566999435424805 -214.52999877929688,-11.288000106811523z"></path></g><g opacity="1" transform="matrix(1,0,0,1,251.4239959716797,267.2049865722656)"><path fill="url(#__lottie_element_13)" fill-opacity="1" d=" M-214.52999877929688,-11.288000106811523 C-208.81500244140625,-82.15699768066406 -188.11900329589844,-138.4739990234375 -131.08700561523438,-183.88800048828125 C-69.36199951171875,-233.0399932861328 15.223999977111816,-229.61199951171875 81.52100372314453,-204.46400451660156 C139.2449951171875,-182.56900024414062 201.82899475097656,-117.59200286865234 209.5449981689453,-11.288000106811523 C217.25999450683594,95.01599884033203 174.02999877929688,145.94200134277344 162.29800415039062,160.9320068359375 C141.72300720214844,187.22300720214844 78.95099639892578,233.0399932861328 13.795999526977539,229.61099243164062 C-51.358001708984375,226.1820068359375 -121.94200134277344,205.8939971923828 -175.6649932861328,131.59500122070312 C-210.24099731445312,83.7770004272461 -217.25999450683594,22.566999435424805 -214.52999877929688,-11.288000106811523z"></path><path stroke-linecap="butt" stroke-linejoin="miter" fill-opacity="0" stroke-miterlimit="10" stroke="rgb(187,105,75)" stroke-opacity="1" stroke-width="13.666" d=" M-214.52999877929688,-11.288000106811523 C-208.81500244140625,-82.15699768066406 -188.11900329589844,-138.4739990234375 -131.08700561523438,-183.88800048828125 C-69.36199951171875,-233.0399932861328 15.223999977111816,-229.61199951171875 81.52100372314453,-204.46400451660156 C139.2449951171875,-182.56900024414062 201.82899475097656,-117.59200286865234 209.5449981689453,-11.288000106811523 C217.25999450683594,95.01599884033203 174.02999877929688,145.94200134277344 162.29800415039062,160.9320068359375 C141.72300720214844,187.22300720214844 78.95099639892578,233.0399932861328 13.795999526977539,229.61099243164062 C-51.358001708984375,226.1820068359375 -121.94200134277344,205.8939971923828 -175.6649932861328,131.59500122070312 C-210.24099731445312,83.7770004272461 -217.25999450683594,22.566999435424805 -214.52999877929688,-11.288000106811523z"></path></g><g opacity="1" transform="matrix(1,0,0,1,268.3900146484375,338.1700134277344)"><path fill="rgb(244,150,108)" fill-opacity="1" d=" M176.20799255371094,-128.91700744628906 C176.20799255371094,-128.91700744628906 193.21800231933594,-75.3290023803711 163.95199584960938,3.9549999237060547 C157.86599731445312,20.441999435424805 146.61000061035156,37.590999603271484 134.66400146484375,52.722999572753906 C122.71800231933594,67.85600280761719 110.78399658203125,74.26300048828125 90.51499938964844,86.47599792480469 C70.53900146484375,98.51200103759766 64.052001953125,117.63800048828125 15.175000190734863,121.7969970703125 C-22.518999099731445,125.00499725341797 -35.23899841308594,116.39900207519531 -65.54499816894531,105.75 C-78.8239974975586,101.08300018310547 -102.06300354003906,83.73699951171875 -110.71499633789062,81.00299835205078 C-179.29299926757812,59.3380012512207 -204.82200622558594,16.430999755859375 -205.73800659179688,18.708999633789062 C-208.98699951171875,26.791000366210938 -126.90299987792969,175.59800720214844 37.78499984741211,146.60899353027344 C103.21700286865234,135.0919952392578 142.2949981689453,88.47699737548828 162.4739990234375,47.08399963378906 C200.98599243164062,-31.916000366210938 180.07899475097656,-117.88500213623047 176.95799255371094,-130.89100646972656 C168.0240020751953,-168.12600708007812 176.20799255371094,-128.91700744628906 176.20799255371094,-128.91700744628906z"></path></g><g opacity="1" transform="matrix(1,0,0,1,343.3110046386719,437.8909912109375)"><path stroke-linecap="round" stroke-linejoin="round" fill-opacity="0" stroke="rgb(219,124,90)" stroke-opacity="1" stroke-width="10" d=" M39.358001708984375,-59.78200149536133 C39.358001708984375,-59.78200149536133 32,-17.878999710083008 10.473999977111816,5.35099983215332 C-11.050999641418457,28.582000732421875 -22.597000122070312,31.062999725341797 -22.597000122070312,31.062999725341797"></path></g><g opacity="1" transform="matrix(1,0,0,1,271.6189880371094,474.57501220703125)"><path stroke-linecap="round" stroke-linejoin="round" fill-opacity="0" stroke="rgb(219,125,90)" stroke-opacity="1" stroke-width="13.967" d=" M-72.70999908447266,-14.717000007629395 C-72.70999908447266,-14.717000007629395 -51.82400131225586,11.859000205993652 -0.5910000205039978,13.288000106811523 C50.64099884033203,14.717000007629395 72.71099853515625,-8.430000305175781 72.71099853515625,-8.430000305175781"></path></g><g opacity="1" transform="matrix(1,0,0,1,0,0)"><g opacity="1" transform="matrix(1,0,0,1,261.9939880371094,119.98799896240234)"><path stroke-linecap="round" stroke-linejoin="round" fill-opacity="0" stroke="rgb(227,136,103)" stroke-opacity="0.75" stroke-width="11.893" d=" M-66.21700286865234,6.013000011444092 C-66.21700286865234,6.013000011444092 -54.111000061035156,1.100000023841858 -31.37700080871582,-2.2209999561309814 C-11.402999877929688,-5.138999938964844 -3.740000009536743,-6.013000011444092 11.02299976348877,-5.794000148773193 C39.61899948120117,-5.36899995803833 66.21700286865234,-0.4959999918937683 66.21700286865234,-0.4959999918937683"></path></g><g opacity="1" transform="matrix(1,0,0,1,256.85101318359375,99.41300201416016)"><path stroke-linecap="round" stroke-linejoin="round" fill-opacity="0" stroke="rgb(227,136,103)" stroke-opacity="0.75" stroke-width="11.893" d=" M-66.21700286865234,6.013000011444092 C-66.21700286865234,6.013000011444092 -54.11199951171875,1.100000023841858 -31.378000259399414,-2.2209999561309814 C-11.404000282287598,-5.138999938964844 -3.740000009536743,-6.013000011444092 11.02299976348877,-5.794000148773193 C39.61899948120117,-5.36899995803833 66.21700286865234,-0.4959999918937683 66.21700286865234,-0.4959999918937683"></path></g></g></g><g style="display: block;" transform="matrix(1.0388000011444092,0,0,1.0388000011444092,172.02059936523438,284.6623840332031)" opacity="1"><g opacity="1" transform="matrix(1,0,0,1,107.29000091552734,89.47000122070312)"><path fill="rgb(226,157,115)" fill-opacity="1" d=" M-51.20600128173828,-11.574999809265137 C-53.11000061035156,-9.152000427246094 -50.89500045776367,-4.01800012588501 -48.85499954223633,-1.7079999446868896 C-42.09299850463867,5.949999809265137 -25.729999542236328,21.663000106811523 -4.447000026702881,22.844999313354492 C23.777000427246094,24.413000106811523 38.935001373291016,0.8939999938011169 43.638999938964844,-4.333000183105469 C45.775001525878906,-6.704999923706055 48.125999450683594,-10.156000137329102 50.055999755859375,-13.217000007629395 C53.111000061035156,-18.05900001525879 48.65999984741211,-24.413000106811523 43.154998779296875,-22.84000015258789 C42.59299850463867,-22.679000854492188 42.051998138427734,-22.440000534057617 41.54800033569336,-22.104000091552734 C36.84400177001953,-18.968000411987305 17.71299934387207,-10.626999855041504 2.0329999923706055,-9.059000015258789 C-9.70300006866455,-7.885000228881836 -24.708999633789062,-13.086000442504883 -33.007999420166016,-16.774999618530273 C-35.68000030517578,-17.961999893188477 -43.94499969482422,-20.768999099731445 -47.909000396728516,-16.19700050354004 C-47.909000396728516,-16.19700050354004 -51.20600128173828,-11.574999809265137 -51.20600128173828,-11.574999809265137z"></path></g><g opacity="1" transform="matrix(1,0,0,1,102.9489974975586,41.78799819946289)"><path fill="rgb(218,161,114)" fill-opacity="1" d=" M-67.72699737548828,9.336999893188477 C-67.72699737548828,9.336999893188477 -29.566999435424805,-7.923999786376953 -19.37299919128418,-8.791999816894531 C-9.178000450134277,-9.65999984741211 2.3459999561309814,-2.505000114440918 2.3459999561309814,-2.505000114440918 C2.3459999561309814,-2.505000114440918 20.427000045776367,-10.517000198364258 33.027000427246094,-9.420999526977539 C45.625999450683594,-8.324000358581543 64.14900207519531,7.486000061035156 67.53900146484375,8.005000114440918 C70.92900085449219,8.52400016784668 58.400001525878906,5.425000190734863 6.004000186920166,6.840000152587891 C-46.393001556396484,8.255000114440918 -67.72699737548828,9.336999893188477 -67.72699737548828,9.336999893188477z"></path><path stroke-linecap="round" stroke-linejoin="round" fill-opacity="0" stroke="rgb(182,94,53)" stroke-opacity="1" stroke-width="11.893" d=" M-67.72699737548828,9.336999893188477 C-67.72699737548828,9.336999893188477 -29.566999435424805,-7.923999786376953 -19.37299919128418,-8.791999816894531 C-9.178000450134277,-9.65999984741211 2.3459999561309814,-2.505000114440918 2.3459999561309814,-2.505000114440918 C2.3459999561309814,-2.505000114440918 20.427000045776367,-10.517000198364258 33.027000427246094,-9.420999526977539 C45.625999450683594,-8.324000358581543 64.14900207519531,7.486000061035156 67.53900146484375,8.005000114440918 C70.92900085449219,8.52400016784668 58.400001525878906,5.425000190734863 6.004000186920166,6.840000152587891 C-46.393001556396484,8.255000114440918 -67.72699737548828,9.336999893188477 -67.72699737548828,9.336999893188477z"></path></g><g opacity="1" transform="matrix(1,0,0,1,109.89900207519531,81.86199951171875)"><path stroke-linecap="round" stroke-linejoin="round" fill-opacity="0" stroke="rgb(188,105,66)" stroke-opacity="1" stroke-width="11.893" d=" M-44.17599868774414,-2.243000030517578 C-44.17599868774414,-2.243000030517578 -30.69499969482422,7.5929999351501465 -3.061000108718872,8.84000015258789 C24.572999954223633,10.086999893188477 44.17599868774414,-10.086999893188477 44.17599868774414,-10.086999893188477"></path></g></g><g style="display: block;" transform="matrix(1.0388000011444092,0,0,1.0388000011444092,206.480712890625,224.9552764892578)" opacity="1"><g opacity="1" transform="matrix(1,0,0,1,70.6969985961914,60.94300079345703)"><path fill="rgb(226,156,115)" fill-opacity="1" d=" M-25.350000381469727,-27.81999969482422 C-25.350000381469727,-27.81999969482422 -52.111000061035156,-5.906000137329102 -50.58700180053711,2.8570001125335693 C-48.79399871826172,13.164999961853027 -39.21500015258789,16.089000701904297 -16.354000091552734,18.375 C6.506999969482422,20.660999298095703 27.20199966430664,18.191999435424805 35.358001708984375,11.519000053405762 C52.111000061035156,-2.187999963760376 34.5629997253418,-21.895000457763672 34.5629997253418,-21.895000457763672 C34.5629997253418,-21.895000457763672 29.94099998474121,-6.966000080108643 10.347000122070312,-5.739999771118164 C-18.666000366210938,-3.924999952316284 -25.049999237060547,-6.060999870300293 -28.854000091552734,-11.732999801635742 C-32.69900131225586,-17.465999603271484 -25.350000381469727,-27.81999969482422 -25.350000381469727,-27.81999969482422z"></path></g><g opacity="1" transform="matrix(1,0,0,1,69.03900146484375,50.67100143432617)"><path stroke-linecap="round" stroke-linejoin="round" fill-opacity="0" stroke="rgb(176,101,73)" stroke-opacity="1" stroke-width="11.893" d=" M-26.22599983215332,-17.273000717163086 C-26.22599983215332,-17.273000717163086 -39.305999755859375,-7.625999927520752 -35.845001220703125,6.656000137329102 C-32.3849983215332,20.937999725341797 -2.381999969482422,19.049999237060547 15.73900032043457,16.270000457763672 C36.000999450683594,13.16100025177002 39.305999755859375,6.892000198364258 38.53900146484375,-4.60699987411499 C38.03200149536133,-12.222000122070312 23.71500015258789,-20.937999725341797 23.71500015258789,-20.937999725341797"></path></g></g><g style="display: block;" transform="matrix(1,0,0,1,-29.616992950439453,208.12698364257812)" opacity="1"><g opacity="1" transform="matrix(1,0,0,1,0,0)"><g opacity="1" transform="matrix(1,0,0,1,70.02799987792969,84.03099822998047)"><path fill="rgb(255,213,185)" fill-opacity="1" d=" M7.229000091552734,-39.262001037597656 C3.928999900817871,-47.055999755859375 2.937999963760376,-44.034000396728516 -8.201000213623047,-44.150001525878906 C-26.805999755859375,-44.34400177001953 -18.930999755859375,5.974999904632568 -12.930000305175781,21.406999588012695 C-6.928999900817871,36.8380012512207 2.7720000743865967,45.91699981689453 7.114999771118164,44.33399963378906 C23.01300048828125,38.54100036621094 13.60099983215332,26.549999237060547 13.88700008392334,20.834999084472656 C14.17199993133545,15.119999885559082 12.366000175476074,-27.12700080871582 7.229000091552734,-39.262001037597656z"></path><path stroke-linecap="butt" stroke-linejoin="miter" fill-opacity="0" stroke-miterlimit="10" stroke="rgb(187,106,76)" stroke-opacity="1" stroke-width="13.666" d=" M7.229000091552734,-39.262001037597656 C3.928999900817871,-47.055999755859375 2.937999963760376,-44.034000396728516 -8.201000213623047,-44.150001525878906 C-26.805999755859375,-44.34400177001953 -18.930999755859375,5.974999904632568 -12.930000305175781,21.406999588012695 C-6.928999900817871,36.8380012512207 2.7720000743865967,45.91699981689453 7.114999771118164,44.33399963378906 C23.01300048828125,38.54100036621094 13.60099983215332,26.549999237060547 13.88700008392334,20.834999084472656 C14.17199993133545,15.119999885559082 12.366000175476074,-27.12700080871582 7.229000091552734,-39.262001037597656z"></path></g><g opacity="1" transform="matrix(1,0,0,1,100.6050033569336,79.1729965209961)"><path fill="rgb(255,204,172)" fill-opacity="1" d=" M-20.360000610351562,-43.75199890136719 C-20.360000610351562,-43.75199890136719 -19.150999069213867,-32.37799835205078 -24.295000076293945,-28.948999404907227 C-29.43899917602539,-25.520000457763672 -33.724998474121094,-27.233999252319336 -33.724998474121094,-27.233999252319336 C-33.724998474121094,-27.233999252319336 -26.58099937438965,-8.37399959564209 -25.724000930786133,1.628000020980835 C-24.867000579833984,11.630000114440918 -21.895999908447266,35.64099884033203 -21.895999908447266,35.64099884033203 C-21.895999908447266,35.64099884033203 -14.053999900817871,29.69700050354004 -10.053000450134277,34.84000015258789 C-6.052000045776367,39.98400115966797 -8.291999816894531,42.20600128173828 -8.291999816894531,42.20600128173828 C-8.291999816894531,42.20600128173828 -0.29100000858306885,37.63399887084961 -0.29100000858306885,35.347999572753906 C-0.29100000858306885,33.0620002746582 2.740000009536743,-0.48399999737739563 -1.8329999446868896,-13.343999862670898 C-6.40500020980835,-26.202999114990234 -20.360000610351562,-43.75199890136719 -20.360000610351562,-43.75199890136719z"></path></g><g opacity="1" transform="matrix(1,0,0,1,75.65499877929688,83.31600189208984)"><path stroke-linecap="round" stroke-linejoin="round" fill-opacity="0" stroke="rgb(187,106,76)" stroke-opacity="1" stroke-width="13.666" d=" M-9.51200008392334,-20.687999725341797 C-9.51200008392334,-20.687999725341797 -4.890999794006348,-18.69099998474121 -3.367000102996826,-13.73799991607666 C-1.843000054359436,-8.784000396728516 -2.9860000610351562,-3.944000005722046 -4.890999794006348,-3.181999921798706 C-6.796000003814697,-2.4200000762939453 -9.517999649047852,0.16099999845027924 -6.00600004196167,9.526000022888184 C-2.5769999027252197,18.670000076293945 -2.7769999504089355,16.052000045776367 -2.7769999504089355,16.052000045776367"></path></g></g></g><g style="display: block;" transform="matrix(-0.9454886317253113,0.09247273206710815,0.09733971953392029,0.9952512383460999,519.38818359375,171.94334411621094)" opacity="1"><g opacity="1" transform="matrix(1,0,0,1,70.02799987792969,84.03099822998047)"><path fill="rgb(255,189,150)" fill-opacity="1" d=" M7.229000091552734,-39.262001037597656 C3.928999900817871,-47.055999755859375 2.937999963760376,-44.034000396728516 -8.201000213623047,-44.150001525878906 C-26.805999755859375,-44.34400177001953 -18.930999755859375,5.974999904632568 -12.930000305175781,21.406999588012695 C-6.928999900817871,36.8380012512207 2.7720000743865967,45.91699981689453 7.114999771118164,44.33399963378906 C23.01300048828125,38.54100036621094 13.60099983215332,26.549999237060547 13.88700008392334,20.834999084472656 C14.17199993133545,15.119999885559082 12.366000175476074,-27.12700080871582 7.229000091552734,-39.262001037597656z"></path><path stroke-linecap="butt" stroke-linejoin="miter" fill-opacity="0" stroke-miterlimit="10" stroke="rgb(187,106,76)" stroke-opacity="1" stroke-width="13.666" d=" M7.229000091552734,-39.262001037597656 C3.928999900817871,-47.055999755859375 2.937999963760376,-44.034000396728516 -8.201000213623047,-44.150001525878906 C-26.805999755859375,-44.34400177001953 -18.930999755859375,5.974999904632568 -12.930000305175781,21.406999588012695 C-6.928999900817871,36.8380012512207 2.7720000743865967,45.91699981689453 7.114999771118164,44.33399963378906 C23.01300048828125,38.54100036621094 13.60099983215332,26.549999237060547 13.88700008392334,20.834999084472656 C14.17199993133545,15.119999885559082 12.366000175476074,-27.12700080871582 7.229000091552734,-39.262001037597656z"></path></g><g opacity="1" transform="matrix(1,0,0,1,100.6050033569336,79.1729965209961)"><path fill="rgb(255,193,155)" fill-opacity="1" d=" M-20.360000610351562,-43.75199890136719 C-20.360000610351562,-43.75199890136719 -19.150999069213867,-32.37799835205078 -24.295000076293945,-28.948999404907227 C-29.43899917602539,-25.520000457763672 -33.724998474121094,-27.233999252319336 -33.724998474121094,-27.233999252319336 C-33.724998474121094,-27.233999252319336 -26.58099937438965,-8.37399959564209 -25.724000930786133,1.628000020980835 C-24.867000579833984,11.630000114440918 -21.895999908447266,35.64099884033203 -21.895999908447266,35.64099884033203 C-21.895999908447266,35.64099884033203 -14.053999900817871,29.69700050354004 -10.053000450134277,34.84000015258789 C-6.052000045776367,39.98400115966797 -8.291999816894531,42.20600128173828 -8.291999816894531,42.20600128173828 C-8.291999816894531,42.20600128173828 -0.29100000858306885,37.63399887084961 -0.29100000858306885,35.347999572753906 C-0.29100000858306885,33.0620002746582 2.740000009536743,-0.48399999737739563 -1.8329999446868896,-13.343999862670898 C-6.40500020980835,-26.202999114990234 -20.360000610351562,-43.75199890136719 -20.360000610351562,-43.75199890136719z"></path></g><g opacity="1" transform="matrix(1,0,0,1,75.65499877929688,83.31600189208984)"><path stroke-linecap="round" stroke-linejoin="round" fill-opacity="0" stroke="rgb(187,106,76)" stroke-opacity="1" stroke-width="13.666" d=" M-9.51200008392334,-20.687999725341797 C-9.51200008392334,-20.687999725341797 -4.890999794006348,-18.69099998474121 -3.367000102996826,-13.73799991607666 C-1.843000054359436,-8.784000396728516 -2.9860000610351562,-3.944000005722046 -4.890999794006348,-3.181999921798706 C-6.796000003814697,-2.4200000762939453 -9.517999649047852,0.16099999845027924 -6.00600004196167,9.526000022888184 C-2.5769999027252197,18.670000076293945 -2.7769999504089355,16.052000045776367 -2.7769999504089355,16.052000045776367"></path></g></g><g style="display: block;" transform="matrix(1.0388000011444092,0,0,1.0388000011444092,87.58485412597656,104.08050537109375)" opacity="1"><g opacity="1" transform="matrix(1,0,0,1,72.43399810791016,54.737998962402344)"><path stroke-linecap="round" stroke-linejoin="round" fill-opacity="0" stroke="rgb(107,57,46)" stroke-opacity="1" stroke-width="14.866" d=" M-42.007999420166016,2.4509999752044678 C-42.007999420166016,2.4509999752044678 -30.413999557495117,-11.451000213623047 1.8799999952316284,-19.30500030517578 C25.19099998474121,-24.974000930786133 43.93299865722656,-16.055999755859375 43.93299865722656,-16.055999755859375"></path></g><g opacity="1" transform="matrix(1,0,0,1,261.0929870605469,44.84199905395508)"><path stroke-linecap="round" stroke-linejoin="round" fill-opacity="0" stroke="rgb(107,57,46)" stroke-opacity="1" stroke-width="14.866" d=" M-41.59400177001953,-9.098999977111816 C-41.59400177001953,-9.098999977111816 -23.881999969482422,-18.929000854492188 6.428999900817871,-12.237000465393066 C23.756999969482422,-8.41100025177002 35.81800079345703,0.9380000233650208 35.81800079345703,0.9380000233650208"></path></g></g><g style="display: block;" transform="matrix(1.0388000011444092,0,0,1.0388000011444092,91.64031982421875,145.86001586914062)" opacity="1"><g opacity="1" transform="matrix(1,0,0,1,0,0)"><g opacity="1" transform="matrix(1,0,0,1,219.45199584960938,49.56999969482422)"><path stroke-linecap="round" stroke-linejoin="round" fill-opacity="0" stroke="rgb(227,136,103)" stroke-opacity="1" stroke-width="11.893" d=" M14.942999839782715,-19.83799934387207 C14.942999839782715,-19.83799934387207 -1.031000018119812,-5.925000190734863 -6.184000015258789,3.865000009536743 C-11.336000442504883,13.654999732971191 -14.942999839782715,19.83799934387207 -14.942999839782715,19.83799934387207"></path></g><g opacity="1" transform="matrix(1,0,0,1,244.0749969482422,93.0270004272461)"><path stroke-linecap="round" stroke-linejoin="round" fill-opacity="0" stroke="rgb(227,136,103)" stroke-opacity="1" stroke-width="11.893" d=" M-31.215999603271484,-10.555999755859375 C-31.215999603271484,-10.555999755859375 -27.41900062561035,-4.75600004196167 -21.19300079345703,-1.187999963760376 C-14.965999603271484,2.38100004196167 10.416999816894531,6.821000099182129 17.466999053955078,8.430999755859375 C24.51799964904785,10.041999816894531 31.215999603271484,10.555999755859375 31.215999603271484,10.555999755859375"></path></g><g opacity="1" transform="matrix(1,0,0,1,255.63999938964844,64.25800323486328)"><path fill="rgb(255,255,255)" fill-opacity="1" d=" M41.970001220703125,-2.9809999465942383 C36.77799987792969,-16.61199951171875 20.2450008392334,-31.482999801635742 -2.7790000438690186,-28.24799919128418 C-32.63199996948242,-24.05299949645996 -44.98099899291992,4.120999813079834 -43.70399856567383,14.343000411987305 C-41.64400100708008,30.825000762939453 -17.66200065612793,31.482999801635742 -3.7290000915527344,30.731000900268555 C13.472999572753906,29.802000045776367 35.67100143432617,28.472999572753906 41.375,16.320999145507812 C44.98099899291992,8.640000343322754 42.6879997253418,-1.0950000286102295 41.970001220703125,-2.9809999465942383z"></path><path stroke-linecap="round" stroke-linejoin="round" fill-opacity="0" stroke="rgb(107,57,46)" stroke-opacity="1" stroke-width="10.675" d=" M41.970001220703125,-2.9809999465942383 C36.77799987792969,-16.61199951171875 20.2450008392334,-31.482999801635742 -2.7790000438690186,-28.24799919128418 C-32.63199996948242,-24.05299949645996 -44.98099899291992,4.120999813079834 -43.70399856567383,14.343000411987305 C-41.64400100708008,30.825000762939453 -17.66200065612793,31.482999801635742 -3.7290000915527344,30.731000900268555 C13.472999572753906,29.802000045776367 35.67100143432617,28.472999572753906 41.375,16.320999145507812 C44.98099899291992,8.640000343322754 42.6879997253418,-1.0950000286102295 41.970001220703125,-2.9809999465942383z"></path></g><g opacity="1" transform="matrix(1,0,0,1,258.39898681640625,67.26300048828125)"><path fill="rgb(211,205,237)" fill-opacity="1" d=" M12.859000205993652,-22.385000228881836 C12.859000205993652,-22.385000228881836 30.86199951171875,-8.666999816894531 24.861000061035156,5.048999786376953 C19.836999893188477,16.533000946044922 6.953000068664551,17.812999725341797 -13.050000190734863,17.812999725341797 C-13.050000190734863,17.812999725341797 -35.34000015258789,17.812999725341797 -35.34000015258789,17.812999725341797 C-35.34000015258789,17.812999725341797 -36.29199981689453,22.957000732421875 -5.429999828338623,22.38599967956543 C25.433000564575195,21.81399917602539 36.29199981689453,17.051000595092773 35.720001220703125,1.6200000047683716 C35.14899826049805,-13.810999870300293 14.574000358581543,-22.95599937438965 14.574000358581543,-22.95599937438965 C14.574000358581543,-22.95599937438965 12.859000205993652,-22.385000228881836 12.859000205993652,-22.385000228881836z"></path></g><g opacity="1" transform="matrix(1,0,0,1,0,0)"><g opacity="1" transform="matrix(1,0,0,1,249.88600158691406,67.0250015258789)"><path fill="rgb(23,25,42)" fill-opacity="1" d=" M-11.776000022888184,-7.2870001792907715 C-14.571999549865723,-3.7920000553131104 -18.062999725341797,7.857999801635742 -7.203999996185303,13.001999855041504 C3.6549999713897705,18.145999908447266 18.06399917602539,9.64900016784668 13.942999839782715,-2.7149999141693115 C8.798999786376953,-18.145999908447266 -7.203999996185303,-13.001999855041504 -11.776000022888184,-7.2870001792907715z"></path></g><g opacity="1" transform="matrix(1,0,0,1,262.1080017089844,62.79100036621094)"><path fill="rgb(255,255,255)" fill-opacity="1" d=" M-4.135000228881836,-2.2039999961853027 C-5.117000102996826,-1.1469999551773071 -6.3429999351501465,2.375999927520752 -2.5290000438690186,3.931999921798706 C1.284000039100647,5.486999988555908 6.3429999351501465,2.9179999828338623 4.895999908447266,-0.8209999799728394 C3.0899999141693115,-5.486000061035156 -2.5290000438690186,-3.931999921798706 -4.135000228881836,-2.2039999961853027z"></path></g><g opacity="1" transform="matrix(1,0,0,1,235.8179931640625,74.79299926757812)"><path fill="rgb(255,255,255)" fill-opacity="1" d=" M-4.135000228881836,-2.2039999961853027 C-5.117000102996826,-1.1469999551773071 -6.3429999351501465,2.375999927520752 -2.5290000438690186,3.931999921798706 C1.284000039100647,5.486999988555908 6.3429999351501465,2.9179999828338623 4.895999908447266,-0.8209999799728394 C3.0899999141693115,-5.486000061035156 -2.5290000438690186,-3.931999921798706 -4.135000228881836,-2.2039999961853027z"></path></g></g><g opacity="1" transform="matrix(1,0,0,1,255.63999938964844,64.25800323486328)"><path stroke-linecap="round" stroke-linejoin="round" fill-opacity="0" stroke="rgb(107,57,46)" stroke-opacity="1" stroke-width="10.675" d=" M41.970001220703125,-2.9809999465942383 C36.77799987792969,-16.61199951171875 20.2450008392334,-31.482999801635742 -2.7790000438690186,-28.24799919128418 C-32.63199996948242,-24.05299949645996 -44.98099899291992,4.120999813079834 -43.70399856567383,14.343000411987305 C-41.64400100708008,30.825000762939453 -17.66200065612793,31.482999801635742 -3.7290000915527344,30.731000900268555 C13.472999572753906,29.802000045776367 35.67100143432617,28.472999572753906 41.375,16.320999145507812 C44.98099899291992,8.640000343322754 42.6879997253418,-1.0950000286102295 41.970001220703125,-2.9809999465942383z"></path></g><g opacity="0" transform="matrix(1,0,0,1,255.63999938964844,64.25800323486328)"><path fill="rgb(255,205,174)" fill-opacity="1" d=" M42.9109992980957,-2.9649999141693115 C37.71900177001953,-16.59600067138672 20.349000930786133,-30.628000259399414 -2.7790000438690186,-28.24799919128418 C-39.34199905395508,-24.485000610351562 -48.095001220703125,15.402999877929688 -43.099998474121094,6.394000053405762 C-35.391998291015625,-7.507999897003174 -27.106000900268555,-24.785999298095703 0.07599999755620956,-27.909000396728516 C17.190000534057617,-29.875999450683594 40.93899917602539,-14.980999946594238 42.553001403808594,2.1619999408721924 C43.347999572753906,10.609999656677246 43.62900161743164,-1.0789999961853027 42.9109992980957,-2.9649999141693115z"></path><path stroke-linecap="round" stroke-linejoin="round" fill-opacity="0" stroke="rgb(164,99,75)" stroke-opacity="1" stroke-width="10.675" d=" M42.9109992980957,-2.9649999141693115 C37.71900177001953,-16.59600067138672 20.349000930786133,-30.628000259399414 -2.7790000438690186,-28.24799919128418 C-39.34199905395508,-24.485000610351562 -48.095001220703125,15.402999877929688 -43.099998474121094,6.394000053405762 C-35.391998291015625,-7.507999897003174 -27.106000900268555,-24.785999298095703 0.07599999755620956,-27.909000396728516 C17.190000534057617,-29.875999450683594 40.93899917602539,-14.980999946594238 42.553001403808594,2.1619999408721924 C43.347999572753906,10.609999656677246 43.62900161743164,-1.0789999961853027 42.9109992980957,-2.9649999141693115z"></path></g></g><g opacity="1" transform="matrix(1,0,0,1,0,0)"><g opacity="1" transform="matrix(1,0,0,1,102.52799987792969,54.25299835205078)"><path stroke-linecap="round" stroke-linejoin="round" fill-opacity="0" stroke="rgb(227,136,103)" stroke-opacity="1" stroke-width="12.471" d=" M-20.187999725341797,-13.644000053405762 C-20.187999725341797,-13.644000053405762 0,-10.432999610900879 9.821000099182129,0.2680000066757202 C19.642000198364258,10.968999862670898 20.187999725341797,13.644000053405762 20.187999725341797,13.644000053405762"></path></g><g opacity="1" transform="matrix(1,0,0,1,99.44200134277344,110.91400146484375)"><path stroke-linecap="round" stroke-linejoin="round" fill-opacity="0" stroke="rgb(227,136,102)" stroke-opacity="1" stroke-width="12.471" d=" M18.108999252319336,-18.520999908447266 C18.108999252319336,-18.520999908447266 27.097000122070312,-5.426000118255615 23.770000457763672,-3.0290000438690186 C20.44300079345703,-0.6330000162124634 -0.949999988079071,9.746000289916992 -9.329000473022461,12.637999534606934 C-17.70800018310547,15.529999732971191 -27.09600067138672,18.520999908447266 -27.09600067138672,18.520999908447266"></path></g><g opacity="1" transform="matrix(1,0,0,1,76.87699890136719,79.38600158691406)"><path fill="rgb(255,255,255)" fill-opacity="1" d=" M-47.040000915527344,2.9579999446868896 C-44.60900115966797,-13.223999977111816 -30.614999771118164,-33.21500015258789 -5.875999927520752,-34.5880012512207 C26.200000762939453,-36.36899948120117 45.263999938964844,-7.882999897003174 46.172000885009766,3.690000057220459 C47.6349983215332,22.350000381469727 22.75,28.23200035095215 8.043999671936035,30.395999908447266 C-10.112000465393066,33.066001892089844 -33.57099914550781,36.36899948120117 -42.1879997253418,24.163999557495117 C-47.6349983215332,16.448999404907227 -47.375999450683594,5.196000099182129 -47.040000915527344,2.9579999446868896z"></path><path stroke-linecap="round" stroke-linejoin="round" fill-opacity="0" stroke="rgb(107,57,46)" stroke-opacity="1" stroke-width="11.697" d=" M-47.040000915527344,2.9579999446868896 C-44.60900115966797,-13.223999977111816 -30.614999771118164,-33.21500015258789 -5.875999927520752,-34.5880012512207 C26.200000762939453,-36.36899948120117 45.263999938964844,-7.882999897003174 46.172000885009766,3.690000057220459 C47.6349983215332,22.350000381469727 22.75,28.23200035095215 8.043999671936035,30.395999908447266 C-10.112000465393066,33.066001892089844 -33.57099914550781,36.36899948120117 -42.1879997253418,24.163999557495117 C-47.6349983215332,16.448999404907227 -47.375999450683594,5.196000099182129 -47.040000915527344,2.9579999446868896z"></path></g><g opacity="1" transform="matrix(1,0,0,1,79.69400024414062,80.61000061035156)"><path fill="rgb(211,205,237)" fill-opacity="1" d=" M8.031999588012695,-27.517000198364258 C8.031999588012695,-27.517000198364258 30.96500015258789,-11.442999839782715 23.53499984741211,5.703000068664551 C18.551000595092773,17.20400047302246 7.501999855041504,20.517000198364258 -12.472000122070312,21.61199951171875 C-32.44499969482422,22.70599937438965 -38.38100051879883,20.4689998626709 -38.38100051879883,20.4689998626709 C-38.38100051879883,20.4689998626709 -37.808998107910156,27.516000747680664 -8.66100025177002,25.229999542236328 C22.11199951171875,22.816999435424805 38.38100051879883,16.985000610351562 36.965999603271484,1.6080000400543213 C35.55099868774414,-13.769000053405762 11.461000442504883,-26.301000595092773 11.461000442504883,-26.301000595092773 C11.461000442504883,-26.301000595092773 8.031999588012695,-27.517000198364258 8.031999588012695,-27.517000198364258z"></path></g><g opacity="1" transform="matrix(1,0,0,1,4.055999755859375,-6.4080047607421875)"><g opacity="1" transform="matrix(1,0,0,1,72.98200225830078,79.06999969482422)"><path fill="rgb(23,25,42)" fill-opacity="1" d=" M-12.470000267028809,-7.566999912261963 C-15.430000305175781,-3.937999963760376 -19.12700080871582,8.15999984741211 -7.627999782562256,13.50100040435791 C3.869999885559082,18.841999053955078 19.128000259399414,10.019000053405762 14.763999938964844,-2.819000005722046 C9.317000389099121,-18.843000411987305 -7.627999782562256,-13.501999855041504 -12.470000267028809,-7.566999912261963z"></path></g><g opacity="1" transform="matrix(1,0,0,1,84.76100158691406,76.23100280761719)"><path fill="rgb(255,255,255)" fill-opacity="1" d=" M-4.379000186920166,-2.2880001068115234 C-5.419000148773193,-1.190999984741211 -6.7170000076293945,2.4670000076293945 -2.678999900817871,4.081999778747559 C1.3589999675750732,5.697000026702881 6.7170000076293945,3.0290000438690186 5.184000015258789,-0.8529999852180481 C3.2720000743865967,-5.697000026702881 -2.678999900817871,-4.081999778747559 -4.379000186920166,-2.2880001068115234z"></path></g><g opacity="1" transform="matrix(1,0,0,1,58.20000076293945,87.84500122070312)"><path fill="rgb(255,255,255)" fill-opacity="1" d=" M-3.5739998817443848,-1.9900000095367432 C-4.421999931335449,-1.0360000133514404 -5.480999946594238,2.1459999084472656 -2.186000108718872,3.5510001182556152 C1.1100000143051147,4.955999851226807 5.48199987411499,2.634999990463257 4.23199987411499,-0.7409999966621399 C2.6710000038146973,-4.955999851226807 -2.187000036239624,-3.5510001182556152 -3.5739998817443848,-1.9900000095367432z"></path></g></g><g opacity="1" transform="matrix(1,0,0,1,76.87699890136719,79.38600158691406)"><path stroke-linecap="round" stroke-linejoin="round" fill-opacity="0" stroke="rgb(107,57,46)" stroke-opacity="1" stroke-width="9" d=" M-47.040000915527344,2.9579999446868896 C-44.60900115966797,-13.223999977111816 -30.614999771118164,-33.21500015258789 -5.875999927520752,-34.5880012512207 C26.200000762939453,-36.36899948120117 45.263999938964844,-7.882999897003174 46.172000885009766,3.690000057220459 C47.6349983215332,22.350000381469727 22.75,28.23200035095215 8.043999671936035,30.395999908447266 C-10.112000465393066,33.066001892089844 -33.57099914550781,36.36899948120117 -42.1879997253418,24.163999557495117 C-47.6349983215332,16.448999404907227 -47.375999450683594,5.196000099182129 -47.040000915527344,2.9579999446868896z"></path></g><g opacity="0" transform="matrix(1,0,0,1,76.87699890136719,79.38600158691406)"><path fill="rgb(255,224,201)" fill-opacity="1" d=" M-47.040000915527344,2.9579999446868896 C-44.60900115966797,-13.223999977111816 -30.194000244140625,-33.659000396728516 -5.454999923706055,-35.03200149536133 C26.621000289916992,-36.8129997253418 46.5260009765625,-8.770999908447266 47.433998107910156,2.802000045776367 C48.89699935913086,21.461999893188477 44.630001068115234,-40.57699966430664 -5.840000152587891,-33.95800018310547 C-46.051998138427734,-28.68400001525879 -47.73400115966797,1.9390000104904175 -46.816001892089844,8.185999870300293 C-45.44200134277344,17.530000686645508 -47.375999450683594,5.196000099182129 -47.040000915527344,2.9579999446868896z"></path><path stroke-linecap="round" stroke-linejoin="round" fill-opacity="0" stroke="rgb(164,99,75)" stroke-opacity="1" stroke-width="11.697" d=" M-47.040000915527344,2.9579999446868896 C-44.60900115966797,-13.223999977111816 -30.194000244140625,-33.659000396728516 -5.454999923706055,-35.03200149536133 C26.621000289916992,-36.8129997253418 46.5260009765625,-8.770999908447266 47.433998107910156,2.802000045776367 C48.89699935913086,21.461999893188477 44.630001068115234,-40.57699966430664 -5.840000152587891,-33.95800018310547 C-46.051998138427734,-28.68400001525879 -47.73400115966797,1.9390000104904175 -46.816001892089844,8.185999870300293 C-45.44200134277344,17.530000686645508 -47.375999450683594,5.196000099182129 -47.040000915527344,2.9579999446868896z"></path></g></g></g></g></g></svg>