<svg xmlns="http://www.w3.org/2000/svg" xmlns:xlink="http://www.w3.org/1999/xlink" viewBox="0 0 512 512" width="512" height="512" style="width: 100%; height: 100%; transform: translate3d(0,0,0); content-visibility: visible;" preserveAspectRatio="xMidYMid meet"><defs><clipPath id="__lottie_element_2"><rect width="512" height="512" x="0" y="0"></rect></clipPath><clipPath id="__lottie_element_4"><path d="M0,0 L1500,0 L1500,1500 L0,1500z"></path></clipPath><radialGradient id="__lottie_element_12" spreadMethod="pad" gradientUnits="userSpaceOnUse" cx="-321.2659912109375" cy="-650.2030029296875" r="774.7444613352953" fx="-321.2659912109375" fy="-650.2030029296875"><stop offset="0%" stop-color="rgb(252,189,152)"></stop><stop offset="50%" stop-color="rgb(251,171,129)"></stop><stop offset="100%" stop-color="rgb(249,152,106)"></stop></radialGradient><radialGradient id="__lottie_element_13" spreadMethod="pad" gradientUnits="userSpaceOnUse" cx="-407.468994140625" cy="-254.531005859375" r="800.1379217181385" fx="-407.468994140625" fy="-254.531005859375"><stop offset="0%" stop-color="rgb(249,223,201)"></stop><stop offset="52%" stop-color="rgb(249,202,171)"></stop><stop offset="100%" stop-color="rgb(250,181,140)"></stop></radialGradient></defs><g clip-path="url(#__lottie_element_2)"><g clip-path="url(#__lottie_element_4)" style="display: block;" transform="matrix(0.34132999181747437,0,0,0.34132999181747437,0.00250244140625,0.00250244140625)" opacity="1"><g style="display: block;" transform="matrix(1,0,0,1,79.27896118164062,233.78494262695312)" opacity="1"><g opacity="1" transform="matrix(1,0,0,1,281.34100341796875,169.81900024414062)"><path fill="rgb(234,66,15)" fill-opacity="1" d=" M254.8000030517578,31.58300018310547 C254.8000030517578,31.58300018310547 254.34100341796875,-76.87300109863281 113.40499877929688,-109.84600067138672 C-27.530000686645508,-142.81900024414062 -111.875,-88.76599884033203 -164.64199829101562,-75.8239974975586 C-222.6199951171875,-61.604000091552734 -252.34100341796875,-52.516998291015625 -252.34100341796875,-52.516998291015625 C-252.34100341796875,-52.516998291015625 -146.6199951171875,30.395999908447266 -88.55000305175781,66.49700164794922 C-53.637001037597656,88.2020034790039 -37.57099914550781,129.9029998779297 -31.60099983215332,137.87899780273438 C-27.8799991607666,142.85000610351562 -21.125999450683594,138.81900024414062 -21.125999450683594,138.81900024414062 C-21.125999450683594,138.81900024414062 49.27000045776367,93.8499984741211 112.26000213623047,73.7509994506836 C145.19900512695312,63.2400016784668 254.8000030517578,31.58300018310547 254.8000030517578,31.58300018310547z"></path><path stroke-linecap="round" stroke-linejoin="round" fill-opacity="0" stroke="rgb(183,31,4)" stroke-opacity="1" stroke-width="29" d=" M254.8000030517578,31.58300018310547 C254.8000030517578,31.58300018310547 254.34100341796875,-76.87300109863281 113.40499877929688,-109.84600067138672 C-27.530000686645508,-142.81900024414062 -111.875,-88.76599884033203 -164.64199829101562,-75.8239974975586 C-222.6199951171875,-61.604000091552734 -252.34100341796875,-52.516998291015625 -252.34100341796875,-52.516998291015625 C-252.34100341796875,-52.516998291015625 -146.6199951171875,30.395999908447266 -88.55000305175781,66.49700164794922 C-53.637001037597656,88.2020034790039 -37.57099914550781,129.9029998779297 -31.60099983215332,137.87899780273438 C-27.8799991607666,142.85000610351562 -21.125999450683594,138.81900024414062 -21.125999450683594,138.81900024414062 C-21.125999450683594,138.81900024414062 49.27000045776367,93.8499984741211 112.26000213623047,73.7509994506836 C145.19900512695312,63.2400016784668 254.8000030517578,31.58300018310547 254.8000030517578,31.58300018310547z"></path></g><g opacity="1" transform="matrix(1,0,0,1,391.843994140625,160.3459930419922)"><path stroke-linecap="round" stroke-linejoin="round" fill-opacity="0" stroke="rgb(183,32,4)" stroke-opacity="0.61" stroke-width="29.283" d=" M66.76100158691406,63.70100021362305 C66.76100158691406,63.70100021362305 60.72600173950195,18.58099937438965 29.913999557495117,-8.081000328063965 C-7.122000217437744,-40.130001068115234 -74.76100158691406,-64.93099975585938 -74.76100158691406,-64.93099975585938"></path></g><g opacity="1" transform="matrix(1,0,0,1,311.43701171875,216.41799926757812)"><path stroke-linecap="round" stroke-linejoin="round" fill-opacity="0" stroke="rgb(183,32,4)" stroke-opacity="0.58" stroke-width="27" d=" M66.54000091552734,12.814000129699707 C66.54000091552734,12.814000129699707 50.0890007019043,-18.635000228881836 4.729000091552734,-42.33399963378906 C-77.2969970703125,-85.5780029296875 -124.58399963378906,-68.59200286865234 -124.58399963378906,-68.59200286865234"></path></g><g opacity="1" transform="matrix(1,0,0,1,273.1029968261719,255.00900268554688)"><path stroke-linecap="round" stroke-linejoin="round" fill-opacity="0" stroke="rgb(183,32,4)" stroke-opacity="0.52" stroke-width="27" d=" M32.82600021362305,32.51100158691406 C32.82600021362305,32.51100158691406 25.882999420166016,4.784999847412109 0,-16.784000396728516 C-26.200000762939453,-38.617000579833984 -60.82600021362305,-58.51100158691406 -60.82600021362305,-58.51100158691406"></path></g></g><g style="display: block;" transform="matrix(1,0,0,1,1090.431884765625,42.39996337890625)" opacity="1"><g opacity="1" transform="matrix(1,0,0,1,176.9949951171875,520.3980102539062)"><path stroke-linecap="butt" stroke-linejoin="miter" fill-opacity="0" stroke-miterlimit="10" stroke="rgb(183,99,57)" stroke-opacity="1" stroke-width="36" d=" M-15.906999588012695,-445.39801025390625 C-15.906999588012695,-445.39801025390625 5.554999828338623,-395.60400390625 22.525999069213867,-340.59600830078125 C37.37799835205078,-292.4519958496094 101.99500274658203,-145.96600341796875 82.61299896240234,42.08000183105469 C63.22999954223633,230.12600708007812 -101.99500274658203,445.39801025390625 -101.99500274658203,445.39801025390625"></path></g></g><g style="display: block;" transform="matrix(1,0,0,1,44.33697509765625,283.2159423828125)" opacity="1"><g opacity="1" transform="matrix(1,0,0,1,648.6060180664062,593.43701171875)"><path fill="url(#__lottie_element_12)" fill-opacity="1" d=" M-507.489013671875,-231.968994140625 C-507.489013671875,-231.968994140625 -497.4419860839844,-319.6189880371094 -326.3089904785156,-391.8420104980469 C-155.17599487304688,-464.06500244140625 -50.19200134277344,-481.1759948730469 59.393001556396484,-490.8039855957031 C168.97799682617188,-500.4320068359375 291.4490051269531,-483.68499755859375 414.6820068359375,-360.4169921875 C537.9149780273438,-237.14999389648438 555.6010131835938,-136.21400451660156 532.4769897460938,-17.836000442504883 C509.35400390625,100.54299926757812 450.572998046875,303.0589904785156 376.0150146484375,374.68499755859375 C301.4570007324219,446.3110046386719 201.69700622558594,500.4320068359375 47.856998443603516,500.1440124511719 C-105.98300170898438,499.8559875488281 -169.74099731445312,469.9620056152344 -227.218994140625,421.7690124511719 C-284.6960144042969,373.57501220703125 -423.7430114746094,161.9250030517578 -477.7860107421875,61.21900177001953 C-555.6010131835938,-83.78700256347656 -507.489013671875,-231.968994140625 -507.489013671875,-231.968994140625z"></path><path stroke-linecap="butt" stroke-linejoin="miter" fill-opacity="0" stroke-miterlimit="10" stroke="rgb(183,99,57)" stroke-opacity="1" stroke-width="37.202" d=" M-507.489013671875,-231.968994140625 C-507.489013671875,-231.968994140625 -497.4419860839844,-319.6189880371094 -326.3089904785156,-391.8420104980469 C-155.17599487304688,-464.06500244140625 -50.19200134277344,-481.1759948730469 59.393001556396484,-490.8039855957031 C168.97799682617188,-500.4320068359375 291.4490051269531,-483.68499755859375 414.6820068359375,-360.4169921875 C537.9149780273438,-237.14999389648438 555.6010131835938,-136.21400451660156 532.4769897460938,-17.836000442504883 C509.35400390625,100.54299926757812 450.572998046875,303.0589904785156 376.0150146484375,374.68499755859375 C301.4570007324219,446.3110046386719 201.69700622558594,500.4320068359375 47.856998443603516,500.1440124511719 C-105.98300170898438,499.8559875488281 -169.74099731445312,469.9620056152344 -227.218994140625,421.7690124511719 C-284.6960144042969,373.57501220703125 -423.7430114746094,161.9250030517578 -477.7860107421875,61.21900177001953 C-555.6010131835938,-83.78700256347656 -507.489013671875,-231.968994140625 -507.489013671875,-231.968994140625z"></path></g><g opacity="1" transform="matrix(1,0,0,1,646.5659790039062,554.0479736328125)"><path fill="url(#__lottie_element_13)" fill-opacity="1" d=" M-463.0159912109375,-194.56500244140625 C-463.0159912109375,-194.56500244140625 -441.9519958496094,-267.17498779296875 -288.8919982910156,-331.3800048828125 C-135.83200073242188,-395.5849914550781 -40.34199905395508,-407.7720031738281 57.64899826049805,-416.3810119628906 C155.63999938964844,-424.989990234375 276.6369934082031,-427.64599609375 386.7539978027344,-318.3030090332031 C496.87200927734375,-208.96099853515625 506.1210021972656,-123.70899963378906 485.37701416015625,-18.621000289916992 C464.63299560546875,86.46600341796875 427.3080139160156,232.69700622558594 360.6000061035156,296.3160095214844 C293.8919982910156,359.93499755859375 165.42999267578125,427.6470031738281 27.874000549316406,427.4809875488281 C-109.68199920654297,427.31500244140625 -189.57699584960938,397.9079895019531 -240.9429931640625,355.16400146484375 C-292.3089904785156,312.4200134277344 -388.3630065917969,155.01199340820312 -436.62701416015625,65.65499877929688 C-506.1210021972656,-63.00899887084961 -463.0159912109375,-194.56500244140625 -463.0159912109375,-194.56500244140625z"></path></g></g><g style="display: block;" transform="matrix(1,0,0,1.0085500478744507,-89.24200439453125,156.80238342285156)" opacity="1"><g opacity="1" transform="matrix(1,0,0,1,0,0)"><g opacity="1" transform="matrix(1,0,0,1,991.2239990234375,331.57598876953125)"><path fill="rgb(246,148,100)" fill-opacity="1" d=" M-61.88999938964844,-109.81900024414062 C-99.7020034790039,-84.71800231933594 -163.81399536132812,-74.72000122070312 -115.86499786376953,10.279999732971191 C-49.52199935913086,127.88700103759766 138.8679962158203,93.81999969482422 141.697998046875,-62.481998443603516 C141.79400634765625,-67.79199981689453 111.15499877929688,-28.47100067138672 111.90499877929688,-33.05400085449219 C117.84700012207031,-69.35199737548828 136.28599548339844,-145.86099243164062 125.5459976196289,-53.1510009765625 C121.22100067138672,-15.819000244140625 112.447998046875,-60.297000885009766 61.250999450683594,-76.03600311279297 C0.367000013589859,-94.75199890136719 -31.729000091552734,-129.84100341796875 -61.88999938964844,-109.81900024414062z"></path></g><g opacity="1" transform="matrix(1,0,0,1,1002.6220092773438,250.447998046875)"><path fill="rgb(179,197,242)" fill-opacity="1" d=" M-77.32499694824219,-145.92799377441406 C-115.13700103759766,-120.8270034790039 -182.64700317382812,-45.34700012207031 -124.16600036621094,53.29600143432617 C-47.29999923706055,182.947998046875 115.20999908447266,125.80999755859375 154.50799560546875,12.206000328063965 C182.64599609375,-69.13899993896484 128.39599609375,-143.24600219726562 60.132999420166016,-164.23199462890625 C-0.7509999871253967,-182.947998046875 -47.16400146484375,-165.9499969482422 -77.32499694824219,-145.92799377441406z"></path></g><g opacity="1" transform="matrix(1,0,0,1,1002.6220092773438,250.447998046875)"><path stroke-linecap="round" stroke-linejoin="round" fill-opacity="0" stroke="rgb(76,79,114)" stroke-opacity="1" stroke-width="30" d=" M-77.32499694824219,-145.92799377441406 C-115.13700103759766,-120.8270034790039 -182.64700317382812,-45.34700012207031 -124.16600036621094,53.29600143432617 C-47.29999923706055,182.947998046875 115.20999908447266,125.80999755859375 154.50799560546875,12.206000328063965 C182.64599609375,-69.13899993896484 128.39599609375,-143.24600219726562 60.132999420166016,-164.23199462890625 C-0.7509999871253967,-182.947998046875 -47.16400146484375,-165.9499969482422 -77.32499694824219,-145.92799377441406z"></path></g><g opacity="1" transform="matrix(1,0,0,1,1013.9290161132812,232.3800048828125)"><path fill="rgb(255,255,255)" fill-opacity="1" d=" M-61.518001556396484,-112.91200256347656 C-91.74299621582031,-93.39199829101562 -145.77200317382812,-34.792999267578125 -99.30999755859375,41.486000061035156 C-38.24300003051758,141.7429962158203 91.55400085449219,97.15299987792969 123.14800262451172,9.083999633789062 C145.77099609375,-53.97700119018555 102.63600158691406,-111.26100158691406 48.207000732421875,-127.37300109863281 C-0.3370000123977661,-141.7429962158203 -37.40800094604492,-128.48199462890625 -61.518001556396484,-112.91200256347656z"></path></g><g opacity="1" transform="matrix(1.0399999618530273,0,0,1.0399999618530273,1050.8740234375,196.41000366210938)"><path fill="rgb(0,0,0)" fill-opacity="1" d=" M40.7859992980957,17.792999267578125 C30.707000732421875,40.569000244140625 4.275000095367432,51.066001892089844 -18.25,41.23899841308594 C-40.775001525878906,31.41200065612793 -50.8650016784668,4.98199987411499 -40.7859992980957,-17.79400062561035 C-30.707000732421875,-40.569000244140625 -4.275000095367432,-51.066001892089844 18.25,-41.23899841308594 C40.775001525878906,-31.41200065612793 50.8650016784668,-4.982999801635742 40.7859992980957,17.792999267578125z"></path></g><g opacity="1" transform="matrix(1,0,0,1,998.1729736328125,216.08299255371094)"><path fill="rgb(255,255,255)" fill-opacity="1" d=" M1.7549999952316284,14.644000053405762 C-21.08799934387207,18.420000076293945 -40.391998291015625,14.925999641418457 -41.36199951171875,6.8379998207092285 C-42.33100128173828,-1.25 -24.599000930786133,-10.866999626159668 -1.75600004196167,-14.644000053405762 C21.086999893188477,-18.420000076293945 40.39099884033203,-14.925000190734863 41.36000061035156,-6.836999893188477 C42.33000183105469,1.2510000467300415 24.597999572753906,10.868000030517578 1.7549999952316284,14.644000053405762z"></path></g></g><g opacity="1" transform="matrix(1,0,0,1,0,0)"><g opacity="1" transform="matrix(1,0,0,1,346.9599914550781,551.655029296875)"><path fill="rgb(245,143,93)" fill-opacity="1" d=" M4.64900016784668,-131.45799255371094 C4.64900016784668,-131.45799255371094 74.93800354003906,-90.59200286865234 58.59199905395508,0.9470000267028809 C42.244998931884766,92.48600006103516 -55.762001037597656,131.45799255371094 -55.762001037597656,131.45799255371094 C-55.762001037597656,131.45799255371094 -74.93900299072266,52.92499923706055 -74.93900299072266,52.92499923706055 C-74.93900299072266,52.92499923706055 -49.29399871826172,-8.861000061035156 -49.29399871826172,-8.861000061035156 C-49.29399871826172,-8.861000061035156 4.64900016784668,-131.45799255371094 4.64900016784668,-131.45799255371094z"></path></g><g opacity="1" transform="matrix(1,0,0,1,240.58200073242188,529.405029296875)"><path fill="rgb(179,197,242)" fill-opacity="1" d=" M-100.61499786376953,-102.54399871826172 C-62.63100051879883,-142.38699340820312 -0.16200000047683716,-157.8350067138672 61.36000061035156,-138.00100708007812 C170.58299255371094,-102.78700256347656 145.14100646972656,10.293999671936035 124.8219985961914,47.45600128173828 C96.82499694824219,98.65899658203125 9.63599967956543,157.83399963378906 -70.30400085449219,103.33000183105469 C-170.58200073242188,34.95800018310547 -135.30499267578125,-66.15599822998047 -100.61499786376953,-102.54399871826172z"></path></g><g opacity="1" transform="matrix(1,0,0,1,240.58200073242188,529.405029296875)"><path stroke-linecap="round" stroke-linejoin="round" fill-opacity="0" stroke="rgb(76,79,114)" stroke-opacity="1" stroke-width="30" d=" M-100.61499786376953,-102.54399871826172 C-62.63100051879883,-142.38699340820312 -0.16200000047683716,-157.8350067138672 61.36000061035156,-138.00100708007812 C170.58299255371094,-102.78700256347656 145.14100646972656,10.293999671936035 124.8219985961914,47.45600128173828 C96.82499694824219,98.65899658203125 9.63599967956543,157.83399963378906 -70.30400085449219,103.33000183105469 C-170.58200073242188,34.95800018310547 -135.30499267578125,-66.15599822998047 -100.61499786376953,-102.54399871826172z"></path></g><g opacity="1" transform="matrix(1,0,0,1,230.64100646972656,518.8179931640625)"><path fill="rgb(255,255,255)" fill-opacity="1" d=" M-74.7509994506836,-79.38700103759766 C-43.361000061035156,-110.79299926757812 2.9110000133514404,-126.55500030517578 52.41299819946289,-110.46399688720703 C140.29600524902344,-81.89700317382812 119.88300323486328,9.661999702453613 103.55400085449219,39.744998931884766 C81.05500030517578,81.19499969482422 19.316999435424805,126.55500030517578 -51.24700164794922,93.40499877929688 C-140.29600524902344,51.571998596191406 -95.59200286865234,-58.53499984741211 -74.7509994506836,-79.38700103759766z"></path></g><g opacity="1" transform="matrix(1.100000023841858,0,0,1.100000023841858,205.1540069580078,501.5950012207031)"><path fill="rgb(0,0,0)" fill-opacity="1" d=" M35.30699920654297,-3.071000099182129 C36.99300003051758,15.918000221252441 22.552000045776367,32.6879997253418 3.052000045776367,34.38399887084961 C-16.44700050354004,36.08000183105469 -33.62099838256836,22.059999465942383 -35.30699920654297,3.071000099182129 C-36.992000579833984,-15.918999671936035 -22.551000595092773,-32.6879997253418 -3.052000045776367,-34.38399887084961 C16.447999954223633,-36.08000183105469 33.62099838256836,-22.059999465942383 35.30699920654297,-3.071000099182129z"></path></g><g opacity="1" transform="matrix(1,0,0,1,240.7469940185547,522.9130249023438)"><path fill="rgb(255,255,255)" fill-opacity="1" d=" M11.656000137329102,5.232999801635742 C7.8520002365112305,11.753999710083008 -4.0320000648498535,12.01200008392334 -14.887999534606934,5.808000087738037 C-25.743999481201172,-0.3959999978542328 -31.459999084472656,-10.711999893188477 -27.656999588012695,-17.232999801635742 C-23.85300064086914,-23.753999710083008 -11.968999862670898,-24.011999130249023 -1.1130000352859497,-17.808000564575195 C9.743000030517578,-11.604000091552734 15.460000038146973,-1.2879999876022339 11.656000137329102,5.232999801635742z"></path></g></g></g><g style="display: block;" transform="matrix(1,0,0,1.0085500478744507,693.3419799804688,462.7803039550781)" opacity="1"><g opacity="0" transform="matrix(1,0,0,1,0,0)"><path fill="rgb(249,209,181)" fill-opacity="1" d=" M-400,72 C-485.1029968261719,39.542999267578125 -598.0679931640625,86.14700317382812 -622,148 C-646.6079711914062,211.60000610351562 -632,270 -610,292 C-586.552978515625,315.4469909667969 -634.6079711914062,285.6000061035156 -636,214 C-637.60302734375,131.54600524902344 -596.6209716796875,69.45700073242188 -488,60 C-322.6080017089844,45.599998474121094 -314.6080017089844,189.60000610351562 -316,168 C-319.35400390625,115.9540023803711 -348.6080017089844,91.5999984741211 -400,72z"></path><path stroke-linecap="butt" stroke-linejoin="miter" fill-opacity="0" stroke-miterlimit="4" stroke="rgb(76,79,114)" stroke-opacity="1" stroke-width="31" d=" M-400,72 C-485.1029968261719,39.542999267578125 -598.0679931640625,86.14700317382812 -622,148 C-646.6079711914062,211.60000610351562 -632,270 -610,292 C-586.552978515625,315.4469909667969 -634.6079711914062,285.6000061035156 -636,214 C-637.60302734375,131.54600524902344 -596.6209716796875,69.45700073242188 -488,60 C-322.6080017089844,45.599998474121094 -314.6080017089844,189.60000610351562 -316,168 C-319.35400390625,115.9540023803711 -348.6080017089844,91.5999984741211 -400,72z"></path></g></g><g style="display: block;" transform="matrix(1,0,0,1.0085500478744507,694.8569946289062,487.1287536621094)" opacity="1"><g opacity="0" transform="matrix(1,0,0,1,0,0)"><path fill="rgb(250,196,162)" fill-opacity="1" d=" M292,-214 C240,-224 193.33799743652344,-222.32400512695312 152,-194 C109.93699645996094,-165.1790008544922 62,-120 72,-48 C78.8270034790039,1.156999945640564 52,-110 116.0770034790039,-170.08900451660156 C162.1280059814453,-213.2740020751953 231.07000732421875,-220.33099365234375 292,-208 C460,-174 372.5889892578125,28.124000549316406 388.34600830078125,-15.324999809265137 C398.4700012207031,-43.24300003051758 400,-68.52899932861328 400,-92 C400,-152 344,-204 292,-214z"></path><path stroke-linecap="butt" stroke-linejoin="miter" fill-opacity="0" stroke-miterlimit="4" stroke="rgb(76,79,114)" stroke-opacity="1" stroke-width="31" d=" M292,-214 C240,-224 193.33799743652344,-222.32400512695312 152,-194 C109.93699645996094,-165.1790008544922 62,-120 72,-48 C78.8270034790039,1.156999945640564 52,-110 116.0770034790039,-170.08900451660156 C162.1280059814453,-213.2740020751953 231.07000732421875,-220.33099365234375 292,-208 C460,-174 372.5889892578125,28.124000549316406 388.34600830078125,-15.324999809265137 C398.4700012207031,-43.24300003051758 400,-68.52899932861328 400,-92 C400,-152 344,-204 292,-214z"></path></g></g><g style="display: block;" transform="matrix(1,0,0,1.0085500478744507,200.33697509765625,459.43597412109375)" opacity="1"><g opacity="1" transform="matrix(1,0,0,1,0,0)"><g opacity="1" transform="matrix(1,0,0,1,434.8970031738281,341.3420104980469)"><path fill="rgb(76,14,32)" fill-opacity="1" d=" M-85.01699829101562,249.4550018310547 C-85.01699829101562,249.4550018310547 -88.25399780273438,219.718994140625 -128.60699462890625,184.07000732421875 C-154.75799560546875,160.9669952392578 -207.73800659179688,129.46400451660156 -243.97999572753906,100.947998046875 C-318.91400146484375,41.98699951171875 -354.3450012207031,12.32800006866455 -308.1050109863281,-44.9739990234375 C-261.864990234375,-102.2760009765625 -117.73100280761719,-184.0260009765625 16.329999923706055,-222.4080047607422 C150.39100646972656,-260.7900085449219 205.87899780273438,-220.72300720214844 238.63900756835938,-176.63800048828125 C290.3949890136719,-106.99199676513672 346.885986328125,26.81599998474121 351.04998779296875,80.8479995727539 C354.3450012207031,123.61199951171875 180.51600646972656,192.73300170898438 72.73899841308594,226.76100158691406 C-35.03799819946289,260.7900085449219 -85.01699829101562,249.4550018310547 -85.01699829101562,249.4550018310547z"></path></g><g opacity="1" transform="matrix(1,0,0,1,548.3709716796875,602.9439697265625)"><path fill="rgb(76,14,32)" fill-opacity="1" d=" M-226.87100219726562,-62.38399887084961 C-226.87100219726562,-62.38399887084961 -201.36500549316406,-38.61800003051758 -211.56700134277344,14.006999969482422 C-218.3489990234375,48.986000061035156 -245.86099243164062,102.61900329589844 -194.8489990234375,151 C-155.4010009765625,188.41400146484375 -16.194000244140625,200.14999389648438 85.71700286865234,159.2050018310547 C178.6719970703125,121.85800170898438 220.30799865722656,30.288000106811523 233.0850067138672,-34.319000244140625 C245.86099243164062,-98.92500305175781 243.0540008544922,-176.2989959716797 234.80099487304688,-200.14999389648438"></path></g><g opacity="1" transform="matrix(1,0,0,1,499.4549865722656,433.0459899902344)"><path fill="rgb(22,1,8)" fill-opacity="1" d=" M188.04400634765625,84.09700012207031 C188.04400634765625,84.09700012207031 191.447998046875,-46.720001220703125 128.48199462890625,-109.58100128173828 C65.51699829101562,-172.44200134277344 -5.6570000648498535,-112.9280014038086 -9.359999656677246,-92.59300231933594 C-16.16699981689453,-55.215999603271484 36.58700180053711,-46.720001220703125 0.8500000238418579,-19.53700065612793 C-28.868000030517578,3.068000078201294 -50.20199966430664,-33.130001068115234 -50.20199966430664,-51.81800079345703 C-50.20199966430664,-70.50599670410156 -72.32499694824219,-79 -97.85199737548828,-82.39800262451172 C-123.37799835205078,-85.7959976196289 -191.447998046875,-60.3129997253418 -172.72900390625,9.343999862670898 C-154.00999450683594,79 -96.1500015258789,140.16299438476562 -68.9219970703125,155.4530029296875 C-41.69300079345703,170.74400329589844 19.56999969482422,172.4429931640625 36.58700180053711,170.74400329589844 C53.60499954223633,169.0449981689453 109.76300048828125,153.7530059814453 114.86799621582031,150.3560028076172 C119.9739990234375,146.95799255371094 188.04400634765625,84.09700012207031 188.04400634765625,84.09700012207031z"></path></g><g opacity="1" transform="matrix(1,0,0,1,168.18800354003906,290.62200927734375)"><path fill="rgb(255,255,255)" fill-opacity="1" d=" M47.689998626708984,-59.959999084472656 C47.689998626708984,-59.959999084472656 57.500999450683594,0.9210000038146973 45.202999114990234,12.060999870300293 C32.90399932861328,23.200000762939453 -2.872999906539917,48.82099914550781 -15.170999526977539,54.38999938964844 C-27.469999313354492,59.959999084472656 -43.12200164794922,56.61800003051758 -46.47600173950195,52.1619987487793 C-49.83100128173828,47.707000732421875 -52.06700134277344,37.680999755859375 -52.06700134277344,37.680999755859375 C-57.500999450683594,8.244000434875488 -55.845001220703125,19.636999130249023 -23.726999282836914,-12.428000450134277 C-1.1319999694824219,-34.98500061035156 47.689998626708984,-59.959999084472656 47.689998626708984,-59.959999084472656z"></path><path stroke-linecap="round" stroke-linejoin="round" fill-opacity="0" stroke="rgb(72,129,181)" stroke-opacity="1" stroke-width="22.53" d=" M47.689998626708984,-59.959999084472656 C47.689998626708984,-59.959999084472656 57.500999450683594,0.9210000038146973 45.202999114990234,12.060999870300293 C32.90399932861328,23.200000762939453 -2.872999906539917,48.82099914550781 -15.170999526977539,54.38999938964844 C-27.469999313354492,59.959999084472656 -43.12200164794922,56.61800003051758 -46.47600173950195,52.1619987487793 C-49.83100128173828,47.707000732421875 -52.06700134277344,37.680999755859375 -52.06700134277344,37.680999755859375 C-57.500999450683594,8.244000434875488 -55.845001220703125,19.636999130249023 -23.726999282836914,-12.428000450134277 C-1.1319999694824219,-34.98500061035156 47.689998626708984,-59.959999084472656 47.689998626708984,-59.959999084472656z"></path></g><g opacity="1" transform="matrix(1,0,0,1,547.89599609375,633.9530029296875)"><path fill="rgb(226,43,96)" fill-opacity="1" d=" M-1.4229999780654907,-97.17900085449219 C-1.4229999780654907,-97.17900085449219 -36.178001403808594,-109.63200378417969 -84.98200225830078,-92.48899841308594 C-146.19700622558594,-70.98600006103516 -213.0780029296875,13.892999649047852 -182.4709930419922,80.66400146484375 C-155.73800659179688,138.98300170898438 -77.03900146484375,136.99600219726562 12.465999603271484,123.12999725341797 C101.97000122070312,109.26499938964844 169.86900329589844,52.262001037597656 191.4739990234375,-0.11999999731779099 C213.0780029296875,-52.500999450683594 207.48699951171875,-101.54199981689453 207.48699951171875,-101.54199981689453 C207.48699951171875,-101.54199981689453 179.63099670410156,-138.98399353027344 100.92900085449219,-134.36199951171875 C33.54999923706055,-130.406005859375 -1.4229999780654907,-97.17900085449219 -1.4229999780654907,-97.17900085449219z"></path><path stroke-linecap="round" stroke-linejoin="round" fill-opacity="0" stroke="rgb(124,17,53)" stroke-opacity="1" stroke-width="28.063" d=" M-1.4229999780654907,-97.17900085449219 C-1.4229999780654907,-97.17900085449219 -36.178001403808594,-109.63200378417969 -84.98200225830078,-92.48899841308594 C-146.19700622558594,-70.98600006103516 -213.0780029296875,13.892999649047852 -182.4709930419922,80.66400146484375 C-155.73800659179688,138.98300170898438 -77.03900146484375,136.99600219726562 12.465999603271484,123.12999725341797 C101.97000122070312,109.26499938964844 169.86900329589844,52.262001037597656 191.4739990234375,-0.11999999731779099 C213.0780029296875,-52.500999450683594 207.48699951171875,-101.54199981689453 207.48699951171875,-101.54199981689453 C207.48699951171875,-101.54199981689453 179.63099670410156,-138.98399353027344 100.92900085449219,-134.36199951171875 C33.54999923706055,-130.406005859375 -1.4229999780654907,-97.17900085449219 -1.4229999780654907,-97.17900085449219z"></path></g><g opacity="1" transform="matrix(1,0,0,1,289.5150146484375,224.10000610351562)"><path fill="rgb(255,255,255)" fill-opacity="1" d=" M-69.66899871826172,3.1659998893737793 C-69.66899871826172,3.1659998893737793 -51.229000091552734,37.2239990234375 -29.427000045776367,43.90800094604492 C-7.625999927520752,50.590999603271484 39.07099914550781,21.16699981689453 53.32600021362305,14.482999801635742 C69.66999816894531,6.820000171661377 27.253000259399414,-50.590999603271484 27.253000259399414,-50.590999603271484 C27.253000259399414,-50.590999603271484 4.071000099182129,-38.51300048828125 -15.824000358581543,-27.389999389648438 C-44.16400146484375,-11.545999526977539 -69.66899871826172,3.1659998893737793 -69.66899871826172,3.1659998893737793z"></path><path stroke-linecap="round" stroke-linejoin="round" fill-opacity="0" stroke="rgb(72,129,181)" stroke-opacity="1" stroke-width="22.53" d=" M-69.66899871826172,3.1659998893737793 C-69.66899871826172,3.1659998893737793 -51.229000091552734,37.2239990234375 -29.427000045776367,43.90800094604492 C-7.625999927520752,50.590999603271484 39.07099914550781,21.16699981689453 53.32600021362305,14.482999801635742 C69.66999816894531,6.820000171661377 27.253000259399414,-50.590999603271484 27.253000259399414,-50.590999603271484 C27.253000259399414,-50.590999603271484 4.071000099182129,-38.51300048828125 -15.824000358581543,-27.389999389648438 C-44.16400146484375,-11.545999526977539 -69.66899871826172,3.1659998893737793 -69.66899871826172,3.1659998893737793z"></path></g><g opacity="1" transform="matrix(1,0,0,1,401.364013671875,176.34800720214844)"><path fill="rgb(255,255,255)" fill-opacity="1" d=" M67.30599975585938,-58.858001708984375 C67.30599975585938,-58.858001708984375 87.43099975585938,-1.465999960899353 67.30599975585938,13.571999549865723 C47.180999755859375,28.610000610351562 -59.250999450683594,58.858001708984375 -59.250999450683594,58.858001708984375 C-59.250999450683594,58.858001708984375 -87.43099975585938,-0.5740000009536743 -87.43099975585938,-0.5740000009536743 C-87.43099975585938,-0.5740000009536743 -19.70199966430664,-31.80299949645996 0.4230000078678131,-38.48699951171875 C20.547000885009766,-45.17100143432617 67.30599975585938,-58.858001708984375 67.30599975585938,-58.858001708984375z"></path><path stroke-linecap="round" stroke-linejoin="round" fill-opacity="0" stroke="rgb(72,129,181)" stroke-opacity="1" stroke-width="22.53" d=" M67.30599975585938,-58.858001708984375 C67.30599975585938,-58.858001708984375 87.43099975585938,-1.465999960899353 67.30599975585938,13.571999549865723 C47.180999755859375,28.610000610351562 -59.250999450683594,58.858001708984375 -59.250999450683594,58.858001708984375 C-59.250999450683594,58.858001708984375 -87.43099975585938,-0.5740000009536743 -87.43099975585938,-0.5740000009536743 C-87.43099975585938,-0.5740000009536743 -19.70199966430664,-31.80299949645996 0.4230000078678131,-38.48699951171875 C20.547000885009766,-45.17100143432617 67.30599975585938,-58.858001708984375 67.30599975585938,-58.858001708984375z"></path></g><g opacity="0.48" transform="matrix(1,0,0,1,542.906982421875,587.1409912109375)"><path stroke-linecap="round" stroke-linejoin="round" fill-opacity="0" stroke="rgb(124,17,53)" stroke-opacity="1" stroke-width="26" d=" M44.05400085449219,-72.66200256347656 C44.05400085449219,-72.66200256347656 -6.175000190734863,-51.32400131225586 -25.54199981689453,0.4189999997615814 C-43.26300048828125,47.763999938964844 -44.05400085449219,72.66200256347656 -44.05400085449219,72.66200256347656"></path></g><g opacity="1" transform="matrix(1,0,0,1,554.7620239257812,147.66700744628906)"><path fill="rgb(255,255,255)" fill-opacity="1" d=" M83.947998046875,-13.201000213623047 C83.947998046875,-13.201000213623047 71.88099670410156,25.958999633789062 60.14099884033203,33.19900131225586 C48.402000427246094,40.439998626708984 36.08700180053711,39.37900161743164 18.197999954223633,36.595001220703125 C0.3100000023841858,33.810001373291016 -67.40599822998047,33.632999420166016 -67.40599822998047,33.632999420166016 C-67.40599822998047,33.632999420166016 -81.71199798583984,-18.222000122070312 -82.83000183105469,-25.461999893188477 C-83.947998046875,-32.702999114990234 4.060999870300293,-40.439998626708984 38.132999420166016,-36.36000061035156 C81.86000061035156,-31.12299919128418 83.947998046875,-13.201000213623047 83.947998046875,-13.201000213623047z"></path><path stroke-linecap="round" stroke-linejoin="round" fill-opacity="0" stroke="rgb(72,129,181)" stroke-opacity="1" stroke-width="22.53" d=" M83.947998046875,-13.201000213623047 C83.947998046875,-13.201000213623047 71.88099670410156,25.958999633789062 60.14099884033203,33.19900131225586 C48.402000427246094,40.439998626708984 36.08700180053711,39.37900161743164 18.197999954223633,36.595001220703125 C0.3100000023841858,33.810001373291016 -67.40599822998047,33.632999420166016 -67.40599822998047,33.632999420166016 C-67.40599822998047,33.632999420166016 -81.71199798583984,-18.222000122070312 -82.83000183105469,-25.461999893188477 C-83.947998046875,-32.702999114990234 4.060999870300293,-40.439998626708984 38.132999420166016,-36.36000061035156 C81.86000061035156,-31.12299919128418 83.947998046875,-13.201000213623047 83.947998046875,-13.201000213623047z"></path></g><g opacity="1" transform="matrix(1,0,0,1,596.3309936523438,596.2420043945312)"><path fill="rgb(255,51,95)" fill-opacity="1" d=" M34.70600128173828,3.2730000019073486 C34.70600128173828,3.2730000019073486 4.5269999504089355,62.19300079345703 -25.652999877929688,57.82899856567383 C-55.832000732421875,53.4640007019043 -46.77799987792969,3.2739999294281006 -30.18000030517578,-18.54800033569336 C-13.581000328063965,-40.37099838256836 16.597999572753906,-62.19300079345703 36.21500015258789,-49.099998474121094 C55.832000732421875,-36.00600051879883 34.70600128173828,3.2730000019073486 34.70600128173828,3.2730000019073486z"></path></g><g opacity="1" transform="matrix(1,0,0,1,450.7799987792969,583.6690063476562)"><path fill="rgb(255,51,95)" fill-opacity="1" d=" M36.94499969482422,-10.274999618530273 C36.94499969482422,-10.274999618530273 -8.779000282287598,26.702999114990234 -19.97100067138672,19.424999237060547 C-31.16200065612793,12.145999908447266 -17.60700035095215,-8.664999961853027 -6.65500020980835,-15.47700023651123 C4.297999858856201,-22.288999557495117 34.67599868774414,-30.702999114990234 39.91899871826172,-21.39299964904785 C45.16299819946289,-12.081999778747559 36.94499969482422,-10.274999618530273 36.94499969482422,-10.274999618530273z"></path></g><g opacity="1" transform="matrix(1,0,0,1,413.9590148925781,638.6820068359375)"><path fill="rgb(255,51,95)" fill-opacity="1" d=" M5.764999866485596,13.711000442504883 C5.764999866485596,13.711000442504883 -9.958999633789062,30.68899917602539 -21.150999069213867,23.410999298095703 C-32.34199905395508,16.131999969482422 -20.785999298095703,-4.677999973297119 -9.833999633789062,-11.489999771118164 C1.11899995803833,-18.302000045776367 6.811999797821045,-19.886999130249023 11.73900032043457,-10.406000137329102 C18.704999923706055,2.997999906539917 5.764999866485596,13.711000442504883 5.764999866485596,13.711000442504883z"></path></g><g opacity="1" transform="matrix(1,0,0,1,549.635009765625,663.1240234375)"><path fill="rgb(255,255,255)" fill-opacity="1" d=" M-196.67999267578125,22.06800079345703 C-196.67999267578125,22.06800079345703 -183.07699584960938,19.80500030517578 -169.4739990234375,31.121999740600586 C-155.8699951171875,42.43899917602539 -130.93099975585938,69.60099792480469 -71.98400115966797,71.86499786376953 C-13.036999702453613,74.12799835205078 57.24599838256836,57.1510009765625 107.1240005493164,18.67300033569336 C157.0030059814453,-19.805999755859375 181.94200134277344,-92.23600006103516 197.81199645996094,-114.87000274658203 C213.68299865722656,-137.50399780273438 230.68800354003906,-130.71400451660156 230.68800354003906,-130.71400451660156 C230.68800354003906,-130.71400451660156 225.0189971923828,-59.415000915527344 163.80499267578125,28.858999252319336 C102.59100341796875,117.13300323486328 -85.58699798583984,137.5030059814453 -158.13800048828125,103.552001953125 C-230.68800354003906,69.5999984741211 -196.67999267578125,22.06800079345703 -196.67999267578125,22.06800079345703z"></path><path stroke-linecap="round" stroke-linejoin="round" fill-opacity="0" stroke="rgb(72,129,181)" stroke-opacity="1" stroke-width="22.53" d=" M-196.67999267578125,22.06800079345703 C-196.67999267578125,22.06800079345703 -183.07699584960938,19.80500030517578 -169.4739990234375,31.121999740600586 C-155.8699951171875,42.43899917602539 -130.93099975585938,69.60099792480469 -71.98400115966797,71.86499786376953 C-13.036999702453613,74.12799835205078 57.24599838256836,57.1510009765625 107.1240005493164,18.67300033569336 C157.0030059814453,-19.805999755859375 181.94200134277344,-92.23600006103516 197.81199645996094,-114.87000274658203 C213.68299865722656,-137.50399780273438 230.68800354003906,-130.71400451660156 230.68800354003906,-130.71400451660156 C230.68800354003906,-130.71400451660156 225.0189971923828,-59.415000915527344 163.80499267578125,28.858999252319336 C102.59100341796875,117.13300323486328 -85.58699798583984,137.5030059814453 -158.13800048828125,103.552001953125 C-230.68800354003906,69.5999984741211 -196.67999267578125,22.06800079345703 -196.67999267578125,22.06800079345703z"></path></g><g opacity="1" transform="matrix(1,0,0,1,548.3709716796875,602.9439697265625)"><path stroke-linecap="round" stroke-linejoin="round" fill-opacity="0" stroke="rgb(155,74,38)" stroke-opacity="1" stroke-width="33" d=" M-224.87100219726562,-57.38399887084961 C-224.87100219726562,-57.38399887084961 -205.36500549316406,-43.61800003051758 -215.56700134277344,9.006999969482422 C-222.3489990234375,43.986000061035156 -245.86099243164062,102.61900329589844 -194.8489990234375,151 C-155.4010009765625,188.41400146484375 -16.194000244140625,200.14999389648438 85.71700286865234,159.2050018310547 C178.6719970703125,121.85800170898438 220.30799865722656,30.288000106811523 233.0850067138672,-34.319000244140625 C245.86099243164062,-98.92500305175781 243.0540008544922,-176.2989959716797 234.80099487304688,-200.14999389648438"></path></g><g opacity="1" transform="matrix(1,0,0,1,434.8970031738281,341.3420104980469)"><path stroke-linecap="round" stroke-linejoin="round" fill-opacity="0" stroke="rgb(155,74,38)" stroke-opacity="1" stroke-width="32.221" d=" M-97.01699829101562,255.4550018310547 C-97.01699829101562,255.4550018310547 -88.25399780273438,219.718994140625 -128.60699462890625,184.07000732421875 C-154.75799560546875,160.9669952392578 -207.73800659179688,129.46400451660156 -243.97999572753906,100.947998046875 C-318.91400146484375,41.98699951171875 -354.3450012207031,12.32800006866455 -308.1050109863281,-44.9739990234375 C-261.864990234375,-102.2760009765625 -117.73100280761719,-184.0260009765625 16.329999923706055,-222.4080047607422 C150.39100646972656,-260.7900085449219 205.87899780273438,-220.72300720214844 238.63900756835938,-176.63800048828125 C290.3949890136719,-106.99199676513672 346.885986328125,26.81599998474121 351.04998779296875,80.8479995727539"></path></g></g></g><g style="display: block;" transform="matrix(0.9934667348861694,-0.11412224173545837,0.11412224173545837,0.9934667348861694,1044.678955078125,-28.42919921875)" opacity="1"><g opacity="1" transform="matrix(1,0,0,1,151.30299377441406,160.9250030517578)"><path fill="rgb(183,99,57)" fill-opacity="1" d=" M45.54399871826172,36.082000732421875 C45.54399871826172,36.082000732421875 63.03900146484375,29.32200050354004 58.35499954223633,7.501999855041504 C53.66999816894531,-14.317999839782715 49.70199966430664,-33.319000244140625 38.96200180053711,-42.275001525878906 C28.22100067138672,-51.231998443603516 15.232000350952148,-51.849998474121094 -7.2769999504089355,-41.154998779296875 C-29.785999298095703,-30.459999084472656 -63.03900146484375,-39.104000091552734 -52.63800048828125,-13.689000129699707 C-42.237998962402344,11.725000381469727 -39.65800094604492,28.024999618530273 -19.88800048828125,35.21699905395508 C25.833999633789062,51.849998474121094 45.54399871826172,36.082000732421875 45.54399871826172,36.082000732421875z"></path></g><g opacity="1" transform="matrix(1,0,0,1,151.30299377441406,160.9250030517578)"><path stroke-linecap="butt" stroke-linejoin="miter" fill-opacity="0" stroke-miterlimit="10" stroke="rgb(183,99,57)" stroke-opacity="1" stroke-width="20" d=" M45.54399871826172,36.082000732421875 C45.54399871826172,36.082000732421875 63.03900146484375,29.32200050354004 58.35499954223633,7.501999855041504 C53.66999816894531,-14.317999839782715 49.70199966430664,-33.319000244140625 38.96200180053711,-42.275001525878906 C28.22100067138672,-51.231998443603516 15.232000350952148,-51.849998474121094 -7.2769999504089355,-41.154998779296875 C-29.785999298095703,-30.459999084472656 -63.03900146484375,-39.104000091552734 -52.63800048828125,-13.689000129699707 C-42.237998962402344,11.725000381469727 -39.65800094604492,28.024999618530273 -19.88800048828125,35.21699905395508 C25.833999633789062,51.849998474121094 45.54399871826172,36.082000732421875 45.54399871826172,36.082000732421875z"></path></g><g opacity="1" transform="matrix(1,0,0,1,100.25800323486328,104.45899963378906)"><path fill="rgb(183,99,57)" fill-opacity="1" d=" M-11.829999923706055,21.658000946044922 C-11.829999923706055,21.658000946044922 -26.219999313354492,-11.916000366210938 -27.490999221801758,-28.94499969482422 C-28.76099967956543,-45.972999572753906 -20.597999572753906,-44.56800079345703 -13.532999992370605,-41.67100143432617 C-6.4679999351501465,-38.77399826049805 9.5,5.158999919891357 13.470999717712402,13.82800006866455 C17.44099998474121,22.496000289916992 28.761999130249023,44.617000579833984 15.618000030517578,45.29600143432617 C2.4739999771118164,45.9739990234375 -11.829999923706055,21.658000946044922 -11.829999923706055,21.658000946044922z"></path></g><g opacity="1" transform="matrix(1,0,0,1,100.25800323486328,104.45899963378906)"><path stroke-linecap="butt" stroke-linejoin="miter" fill-opacity="0" stroke-miterlimit="10" stroke="rgb(183,99,57)" stroke-opacity="1" stroke-width="20" d=" M-11.829999923706055,21.658000946044922 C-11.829999923706055,21.658000946044922 -26.219999313354492,-11.916000366210938 -27.490999221801758,-28.94499969482422 C-28.76099967956543,-45.972999572753906 -20.597999572753906,-44.56800079345703 -13.532999992370605,-41.67100143432617 C-6.4679999351501465,-38.77399826049805 9.5,5.158999919891357 13.470999717712402,13.82800006866455 C17.44099998474121,22.496000289916992 28.761999130249023,44.617000579833984 15.618000030517578,45.29600143432617 C2.4739999771118164,45.9739990234375 -11.829999923706055,21.658000946044922 -11.829999923706055,21.658000946044922z"></path></g><g opacity="1" transform="matrix(1,0,0,1,139.12399291992188,99.2969970703125)"><path fill="rgb(183,99,57)" fill-opacity="1" d=" M4.163000106811523,49.297000885009766 C4.163000106811523,49.297000885009766 -10.118000030517578,7.75600004196167 -16.961000442504883,-11.071999549865723 C-23.80500030517578,-29.900999069213867 -31.65999984741211,-37.97700119018555 -20.600000381469727,-43.637001037597656 C-9.538999557495117,-49.297000885009766 5.776000022888184,-35.73400115966797 11.128000259399414,-18.003000259399414 C16.479999542236328,-0.2720000147819519 31.65999984741211,38.483001708984375 31.15399932861328,43.85900115966797 C30.64900016784668,49.23500061035156 4.163000106811523,49.297000885009766 4.163000106811523,49.297000885009766z"></path></g><g opacity="1" transform="matrix(1,0,0,1,139.12399291992188,99.2969970703125)"><path stroke-linecap="butt" stroke-linejoin="miter" fill-opacity="0" stroke-miterlimit="10" stroke="rgb(183,99,57)" stroke-opacity="1" stroke-width="20" d=" M4.163000106811523,49.297000885009766 C4.163000106811523,49.297000885009766 -10.118000030517578,7.75600004196167 -16.961000442504883,-11.071999549865723 C-23.80500030517578,-29.900999069213867 -31.65999984741211,-37.97700119018555 -20.600000381469727,-43.637001037597656 C-9.538999557495117,-49.297000885009766 5.776000022888184,-35.73400115966797 11.128000259399414,-18.003000259399414 C16.479999542236328,-0.2720000147819519 31.65999984741211,38.483001708984375 31.15399932861328,43.85900115966797 C30.64900016784668,49.23500061035156 4.163000106811523,49.297000885009766 4.163000106811523,49.297000885009766z"></path></g><g opacity="1" transform="matrix(1,0,0,1,185.0780029296875,112.78800201416016)"><path fill="rgb(183,99,57)" fill-opacity="1" d=" M-3.8519999980926514,35.40700149536133 C-3.8519999980926514,35.40700149536133 -14.199000358581543,-8.550999641418457 -12.065999984741211,-21.538000106811523 C-9.934000015258789,-34.5260009765625 -0.3720000088214874,-40.48400115966797 4.690999984741211,-37.53900146484375 C9.753999710083008,-34.595001220703125 13.069999694824219,16.79199981689453 13.635000228881836,28.63800048828125 C14.199000358581543,40.48400115966797 -3.8519999980926514,35.40700149536133 -3.8519999980926514,35.40700149536133z"></path></g><g opacity="1" transform="matrix(1,0,0,1,185.0780029296875,112.78800201416016)"><path stroke-linecap="butt" stroke-linejoin="miter" fill-opacity="0" stroke-miterlimit="10" stroke="rgb(183,99,57)" stroke-opacity="1" stroke-width="20" d=" M-3.8519999980926514,35.40700149536133 C-3.8519999980926514,35.40700149536133 -14.199000358581543,-8.550999641418457 -12.065999984741211,-21.538000106811523 C-9.934000015258789,-34.5260009765625 -0.3720000088214874,-40.48400115966797 4.690999984741211,-37.53900146484375 C9.753999710083008,-34.595001220703125 13.069999694824219,16.79199981689453 13.635000228881836,28.63800048828125 C14.199000358581543,40.48400115966797 -3.8519999980926514,35.40700149536133 -3.8519999980926514,35.40700149536133z"></path></g><g opacity="1" transform="matrix(1,0,0,1,110.02300262451172,150.2550048828125)"><path fill="rgb(183,99,57)" fill-opacity="1" d=" M39.821998596191406,46.979000091552734 C39.821998596191406,46.979000091552734 -4.309000015258789,38.3120002746582 -32.01100158691406,23.214000701904297 C-59.7130012512207,8.116000175476074 -60.02299880981445,-5.870999813079834 -50.87799835205078,-11.279000282287598 C-41.733001708984375,-16.687999725341797 44.80400085449219,-46.979000091552734 52.41400146484375,-39.79399871826172 C60.02399826049805,-32.608001708984375 31.422000885009766,-12.916000366210938 22.049999237060547,-9.12600040435791 C12.678000450134277,-5.335999965667725 13.699999809265137,1.9490000009536743 17.974000930786133,3 C22.24799919128418,4.051000118255615 40.25199890136719,14.732000350952148 40.25199890136719,14.732000350952148 C40.25199890136719,14.732000350952148 39.821998596191406,46.979000091552734 39.821998596191406,46.979000091552734z"></path></g><g opacity="1" transform="matrix(1,0,0,1,110.02300262451172,150.2550048828125)"><path stroke-linecap="butt" stroke-linejoin="miter" fill-opacity="0" stroke-miterlimit="10" stroke="rgb(183,99,57)" stroke-opacity="1" stroke-width="20" d=" M39.821998596191406,46.979000091552734 C39.821998596191406,46.979000091552734 -4.309000015258789,38.3120002746582 -32.01100158691406,23.214000701904297 C-59.7130012512207,8.116000175476074 -60.02299880981445,-5.870999813079834 -50.87799835205078,-11.279000282287598 C-41.733001708984375,-16.687999725341797 44.80400085449219,-46.979000091552734 52.41400146484375,-39.79399871826172 C60.02399826049805,-32.608001708984375 31.422000885009766,-12.916000366210938 22.049999237060547,-9.12600040435791 C12.678000450134277,-5.335999965667725 13.699999809265137,1.9490000009536743 17.974000930786133,3 C22.24799919128418,4.051000118255615 40.25199890136719,14.732000350952148 40.25199890136719,14.732000350952148 C40.25199890136719,14.732000350952148 39.821998596191406,46.979000091552734 39.821998596191406,46.979000091552734z"></path></g></g></g></g></svg>