<svg xmlns="http://www.w3.org/2000/svg" xmlns:xlink="http://www.w3.org/1999/xlink" viewBox="0 0 512 512" width="512" height="512" style="width: 100%; height: 100%; transform: translate3d(0,0,0); content-visibility: visible;" preserveAspectRatio="xMidYMid meet"><defs><clipPath id="__lottie_element_2"><rect width="512" height="512" x="0" y="0"></rect></clipPath><clipPath id="__lottie_element_4"><path d="M0,0 L1080,0 L1080,1080 L0,1080z"></path></clipPath><radialGradient id="__lottie_element_20" spreadMethod="pad" gradientUnits="userSpaceOnUse" cx="-241.44700622558594" cy="-550.6729736328125" r="1017.6774437631441" fx="-241.44700622558594" fy="-550.6729736328125"><stop offset="0%" stop-color="rgb(254,240,222)"></stop><stop offset="50%" stop-color="rgb(249,213,185)"></stop><stop offset="100%" stop-color="rgb(244,187,148)"></stop></radialGradient><radialGradient id="__lottie_element_48" spreadMethod="pad" gradientUnits="userSpaceOnUse" cx="-77.66600036621094" cy="-52.64899826049805" r="185.30279194863846" fx="-77.66600036621094" fy="-52.64899826049805"><stop offset="0%" stop-color="rgb(253,234,214)"></stop><stop offset="50%" stop-color="rgb(249,213,185)"></stop><stop offset="100%" stop-color="rgb(245,193,156)"></stop></radialGradient><radialGradient id="__lottie_element_55" spreadMethod="pad" gradientUnits="userSpaceOnUse" cx="-57.70899963378906" cy="-77.98100280761719" r="175.93511691635663" fx="-57.70899963378906" fy="-77.98100280761719"><stop offset="0%" stop-color="rgb(253,234,214)"></stop><stop offset="50%" stop-color="rgb(249,213,185)"></stop><stop offset="100%" stop-color="rgb(245,193,156)"></stop></radialGradient></defs><g clip-path="url(#__lottie_element_2)"><g clip-path="url(#__lottie_element_4)" style="display: block;" transform="matrix(0.3944399952888489,0,0,0.3944399952888489,30.002395629882812,41.00239562988281)" opacity="1"><g style="display: block;" transform="matrix(0.9800000190734863,0,0,0.9017665982246399,-6.840010643005371,60.88601303100586)" opacity="1"><g opacity="1" transform="matrix(1,0,0,1,0,0)"></g><g opacity="1" transform="matrix(1,0,0,1,578.7069702148438,521.208984375)"><path fill="rgb(243,167,125)" fill-opacity="1" d=" M-389.6969909667969,305.6820068359375 C-305.5790100097656,421.7749938964844 -116.70800018310547,570.7919921875 207.2899932861328,500.9570007324219 C496.97698974609375,438.51800537109375 493.2919921875,142.79100036621094 472.5450134277344,-18.570999145507812 C457.43798828125,-136.06399536132812 444.04998779296875,-178.53500366210938 409.9280090332031,-248.98399353027344 C333.2919921875,-407.2080078125 67.99299621582031,-564.5289916992188 -200.56900024414062,-425.6210021972656 C-510.7070007324219,-265.2090148925781 -483.0899963378906,44.6150016784668 -467.7170104980469,122.38899993896484 C-452.3429870605469,200.16299438476562 -419.2070007324219,264.9540100097656 -389.6969909667969,305.6820068359375z"></path><path stroke-linecap="butt" stroke-linejoin="miter" fill-opacity="0" stroke-miterlimit="10" stroke="rgb(182,94,49)" stroke-opacity="1" stroke-width="29" d=" M-389.6969909667969,305.6820068359375 C-305.5790100097656,421.7749938964844 -116.70800018310547,570.7919921875 207.2899932861328,500.9570007324219 C496.97698974609375,438.51800537109375 493.2919921875,142.79100036621094 472.5450134277344,-18.570999145507812 C457.43798828125,-136.06399536132812 444.04998779296875,-178.53500366210938 409.9280090332031,-248.98399353027344 C333.2919921875,-407.2080078125 67.99299621582031,-564.5289916992188 -200.56900024414062,-425.6210021972656 C-510.7070007324219,-265.2090148925781 -483.0899963378906,44.6150016784668 -467.7170104980469,122.38899993896484 C-452.3429870605469,200.16299438476562 -419.2070007324219,264.9540100097656 -389.6969909667969,305.6820068359375z"></path></g><g opacity="1" transform="matrix(1,0,0,1,590.2020263671875,511.53900146484375)"><path fill="url(#__lottie_element_20)" fill-opacity="1" d=" M-349.614990234375,283.11199951171875 C-271.74700927734375,390.5790100097656 -97.67900085449219,517.6090087890625 188.62899780273438,470.7080078125 C465.8680114746094,425.2909851074219 453.9100036621094,121.03600311279297 412.7170104980469,-8.61299991607666 C379.5119934082031,-113.12200164794922 376.3789978027344,-150.5709991455078 355.04998779296875,-219.82200622558594 C309.9859924316406,-366.1340026855469 58.75699996948242,-499.6090087890625 -196.60899353027344,-385.0360107421875 C-467.86700439453125,-263.3330078125 -438.364990234375,35 -424.1340026855469,106.99500274658203 C-409.90301513671875,178.99000549316406 -376.9309997558594,245.41200256347656 -349.614990234375,283.11199951171875z"></path></g><g opacity="1" transform="matrix(1,0,0,1,762.7230224609375,172.49099731445312)"><path fill="rgb(229,149,112)" fill-opacity="0.67" d=" M-106.95899963378906,12.906000137329102 C-76.1520004272461,23.915000915527344 -81.8280029296875,4.507999897003174 20.007999420166016,-3.4179999828338623 C82.01100158691406,-8.244000434875488 117.52999877929688,11.529000282287598 130.67100524902344,6.794000148773193 C136.67100524902344,4.631999969482422 136.13400268554688,-3.990999937057495 96.2959976196289,-23.26799964904785 C83.5739974975586,-29.423999786376953 85.0009994506836,-36.4109992980957 85.0009994506836,-36.4109992980957 C85.0009994506836,-36.4109992980957 67.54000091552734,-61.1510009765625 50.15800094604492,-60.58599853515625 C26.208999633789062,-59.80699920654297 12.303999900817871,-67.19400024414062 -16.90999984741211,-72.28199768066406 C-46.12300109863281,-77.36900329589844 -106.18000030517578,-63.04399871826172 -115.67400360107422,-51.45600128173828 C-125.43900299072266,-39.5369987487793 -127.96299743652344,5.400000095367432 -106.95899963378906,12.906000137329102z"></path></g><g opacity="1" transform="matrix(1,0,0,1,343.9530029296875,287.7569885253906)"><path fill="rgb(229,149,112)" fill-opacity="0.75" d=" M4.230999946594238,-88.19200134277344 C-0.46700000762939453,-73.64099884033203 -18.458999633789062,-89.02799987792969 -35.18899917602539,-67.81900024414062 C-51.917999267578125,-46.61000061035156 -77.00800323486328,-38.24599838256836 -85.26300048828125,-27.076000213623047 C-89.05599975585938,-21.94300079345703 -128.45700073242188,30.660999298095703 -102.5469970703125,21.22599983215332 C-72.59300231933594,10.317999839782715 -39.025001525878906,-5.321000099182129 -4.835999965667725,-18.79400062561035 C25.33799934387207,-30.684999465942383 55.99599838256836,-40.888999938964844 85.08300018310547,-44.66699981689453 C145.67999267578125,-52.53799819946289 173.8000030517578,-54.604000091552734 188.87399291992188,-87.67500305175781 C200.44700622558594,-113.06600189208984 228.98599243164062,-161.7760009765625 143.43499755859375,-144.81500244140625 C115.7020034790039,-139.31700134277344 124.0469970703125,-151.7570037841797 39.22999954223633,-112.33100128173828 C34.090999603271484,-109.94200134277344 6.809000015258789,-96.17400360107422 4.230999946594238,-88.19200134277344z"></path></g><g opacity="1" transform="matrix(1,0,0,1,0,40.81597900390625)"><g opacity="0" transform="matrix(1,0,0,1,833.1939697265625,865.9949951171875)"><path stroke-linecap="round" stroke-linejoin="round" fill-opacity="0" stroke="rgb(182,94,49)" stroke-opacity="0" stroke-width="4" d=" M-96.93699645996094,-38.05699920654297 C-96.93699645996094,-38.05699920654297 -57.194000244140625,-35.994998931884766 -20,-50.4010009765625 C30.666000366210938,-70.0250015258789 28.05299949645996,-94.72100067138672 28.05299949645996,-94.72100067138672"></path></g></g></g><g style="display: block;" transform="matrix(0.9800000190734863,0,0,0.9017665982246399,540,540.6258544921875)" opacity="1"><g opacity="1" transform="matrix(1,0,0,1,73.1409912109375,72.13200378417969)"><path stroke-linecap="round" stroke-linejoin="miter" fill-opacity="0" stroke-miterlimit="4" stroke="rgb(183,96,51)" stroke-opacity="0.54" stroke-width="26" d=" M286,-84 C286,-84 289.2019958496094,-92.73699951171875 318,-76 C341.8590087890625,-62.132999420166016 354,-38 354,-38"></path></g><g opacity="1" transform="matrix(0.8994052410125732,0.43711575865745544,-0.43711575865745544,0.8994052410125732,-127.480224609375,60.786163330078125)"><path stroke-linecap="round" stroke-linejoin="miter" fill-opacity="0" stroke-miterlimit="4" stroke="rgb(183,96,51)" stroke-opacity="0.54" stroke-width="26" d=" M268,-58 C268,-58 310,-62 344,-30 C378,2 390,38 390,38"></path></g><g opacity="1" transform="matrix(0.4414118826389313,0.8973045945167542,-0.8973045945167542,0.4414118826389313,-238.6229248046875,-140.82432556152344)"><path stroke-linecap="round" stroke-linejoin="miter" fill-opacity="0" stroke-miterlimit="4" stroke="rgb(183,96,51)" stroke-opacity="0.54" stroke-width="26" d=" M304.8909912109375,-24.25 C304.8909912109375,-24.25 310,-62 344,-30 C378,2 390,38 390,38"></path></g></g><g style="display: block;" transform="matrix(0.9800000190734863,0,0,0.9017665982246399,-6.840010643005371,60.88601303100586)" opacity="1"><g opacity="1" transform="matrix(1,0,0,1,784.416015625,297.4840087890625)"><path fill="rgb(255,255,255)" fill-opacity="1" d=" M-123.18199920654297,33.395999908447266 C-113.86599731445312,68.9209976196289 -73.572998046875,112.44599914550781 4.541999816894531,115.08200073242188 C101.6719970703125,118.36000061035156 126.7750015258789,52.349998474121094 127.7239990234375,7.326000213623047 C128.6320037841797,-35.736000061035156 97.5260009765625,-96.01799774169922 23.952999114990234,-106.56300354003906 C-35.137001037597656,-115.03299713134766 -86.62000274658203,-96.64199829101562 -110.92500305175781,-53.64699935913086 C-129.47799682617188,-20.827999114990234 -128.4340057373047,13.368000030517578 -123.18199920654297,33.395999908447266z"></path><path stroke-linecap="butt" stroke-linejoin="miter" fill-opacity="0" stroke-miterlimit="10" stroke="rgb(94,59,93)" stroke-opacity="1" stroke-width="22" d=" M-123.18199920654297,33.395999908447266 C-113.86599731445312,68.9209976196289 -73.572998046875,112.44599914550781 4.541999816894531,115.08200073242188 C101.6719970703125,118.36000061035156 126.7750015258789,52.349998474121094 127.7239990234375,7.326000213623047 C128.6320037841797,-35.736000061035156 97.5260009765625,-96.01799774169922 23.952999114990234,-106.56300354003906 C-35.137001037597656,-115.03299713134766 -86.62000274658203,-96.64199829101562 -110.92500305175781,-53.64699935913086 C-129.47799682617188,-20.827999114990234 -128.4340057373047,13.368000030517578 -123.18199920654297,33.395999908447266z"></path></g><g opacity="1" transform="matrix(1,0,0,1,803.8770141601562,325.4280090332031)"><path fill="rgb(211,221,220)" fill-opacity="1" d=" M53.91400146484375,-103.7030029296875 C83.447998046875,-61.784000396728516 98.42900085449219,-6.580999851226807 59.630001068115234,33.4900016784668 C8.694000244140625,86.09600067138672 -58.597999572753906,73.62899780273438 -85.18399810791016,55.084999084472656 C-92.19599914550781,50.19300079345703 -110.66500091552734,33.582000732421875 -117.57599639892578,23.96299934387207 C-105.50800323486328,42.38199996948242 -96.38899993896484,50.85900115966797 -84.86599731445312,58.895999908447266 C-58.279998779296875,77.44000244140625 16.679000854492188,103.7020034790039 67.25199890136719,50.63800048828125 C117.57599639892578,-2.1659998893737793 95.2249984741211,-75.83999633789062 53.91400146484375,-103.7030029296875z"></path></g><g opacity="1" transform="matrix(0.49917998909950256,0,0,0.5452700257301331,716.2109985351562,260.7659912109375)"><path fill="rgb(26,11,40)" fill-opacity="1" d=" M96.25700378417969,-10.604000091552734 C101.77300262451172,41.45500183105469 63.14699935913086,88.40499877929688 9.984999656677246,94.26200103759766 C-43.176998138427734,100.11900329589844 -90.74299621582031,62.66400146484375 -96.25800323486328,10.604000091552734 C-101.77300262451172,-41.45500183105469 -63.14799880981445,-88.40499877929688 -9.987000465393066,-94.26200103759766 C43.17399978637695,-100.11900329589844 90.74099731445312,-62.66400146484375 96.25700378417969,-10.604000091552734z"></path></g><g opacity="1" transform="matrix(1,0,0,1,798.3380126953125,311.75799560546875)"><path fill="rgb(73,48,108)" fill-opacity="1" d=" M-81.91600036621094,-39.95899963378906 C-81.91600036621094,-39.95899963378906 -92.81400299072266,-35.457000732421875 -97.1969985961914,-31.216999053955078 C-101.5790023803711,-26.97800064086914 -106.52200317382812,-1.3539999723434448 -80.2300033569336,-4.322000026702881 C-53.9379997253418,-7.289999961853027 -47.354000091552734,-25.663000106811523 -46.91600036621094,-35.8380012512207 C-46.47800064086914,-46.013999938964844 -54.24100112915039,-54.645999908447266 -64.75900268554688,-53.374000549316406 C-75.2750015258789,-52.10200119018555 -81.91600036621094,-39.95899963378906 -81.91600036621094,-39.95899963378906z"></path></g><g opacity="1" transform="matrix(0.4447600245475769,0,0,0.32603999972343445,698.0120239257812,292.2040100097656)"><path fill="rgb(255,255,255)" fill-opacity="1" d=" M30.893999099731445,-17.858999252319336 C38.689998626708984,1.5679999589920044 47.98400115966797,32.59299850463867 27.38800048828125,44.4640007019043 C11.02299976348877,53.895999908447266 -16.145999908447266,52.70000076293945 -29.57900047302246,36.409000396728516 C-43.01100158691406,20.117000579833984 -47.983001708984375,-21.250999450683594 -29.57900047302246,-36.9379997253418 C-15.28499984741211,-49.119998931884766 16.433000564575195,-53.895999908447266 30.893999099731445,-17.858999252319336z"></path></g><g opacity="1" transform="matrix(1,0,0,1,763.9169921875,237.02699279785156)"><path fill="rgb(255,255,255)" fill-opacity="1" d=" M-21.27400016784668,-7.900000095367432 C-18.04400062561035,-1.6469999551773071 -13.892000198364258,4.8379998207092285 -2.9549999237060547,14.5649995803833 C9.472000122070312,25.617000579833984 18.645999908447266,23.249000549316406 21.927000045776367,13.175000190734863 C25.20800018310547,3.0999999046325684 11.111000061035156,-10.609999656677246 7.984000205993652,-13.920999526977539 C2.515000104904175,-19.711999893188477 -9.243000030517578,-25.615999221801758 -16.89900016784668,-22.025999069213867 C-25.20800018310547,-18.131000518798828 -23.187999725341797,-11.605999946594238 -21.27400016784668,-7.900000095367432z"></path></g></g><g style="display: block;" transform="matrix(0.9800000190734863,0,0,0.9017665982246399,-6.840010643005371,60.88601303100586)" opacity="1"><g opacity="1" transform="matrix(1,0,0,1,784.416015625,297.4840087890625)"><path stroke-linecap="butt" stroke-linejoin="miter" fill-opacity="0" stroke-miterlimit="10" stroke="rgb(94,59,93)" stroke-opacity="1" stroke-width="22" d=" M-123.18199920654297,33.395999908447266 C-113.86599731445312,68.9209976196289 -73.572998046875,112.44599914550781 4.541999816894531,115.08200073242188 C101.6719970703125,118.36000061035156 126.7750015258789,52.349998474121094 127.7239990234375,7.326000213623047 C128.6320037841797,-35.736000061035156 97.5260009765625,-96.01799774169922 23.952999114990234,-106.56300354003906 C-35.137001037597656,-115.03299713134766 -86.62000274658203,-96.64199829101562 -110.92500305175781,-53.64699935913086 C-129.47799682617188,-20.827999114990234 -128.4340057373047,13.368000030517578 -123.18199920654297,33.395999908447266z"></path></g></g><g style="display: block;" transform="matrix(0.9800000190734863,0,0,0.9017665982246399,-6.840010643005371,60.88601303100586)" opacity="1"><g opacity="1" transform="matrix(1,0,0,1,432.4630126953125,428.4460144042969)"><path fill="rgb(255,255,255)" fill-opacity="1" d=" M-50.928001403808594,108.03399658203125 C-10.463000297546387,114.55500030517578 46.77899932861328,119.55999755859375 93.24099731445312,53.34000015258789 C155.53700256347656,-35.44599914550781 88.53700256347656,-143.4459991455078 -11.428999900817871,-142.21400451660156 C-104.06900024414062,-141.072998046875 -153.56399536132812,-81.49600219726562 -156.1929931640625,-12.843999862670898 C-159.46299743652344,72.55400085449219 -104.55599975585938,99.39199829101562 -50.928001403808594,108.03399658203125z"></path><path stroke-linecap="butt" stroke-linejoin="miter" fill-opacity="0" stroke-miterlimit="10" stroke="rgb(94,59,93)" stroke-opacity="1" stroke-width="22" d=" M-50.928001403808594,108.03399658203125 C-10.463000297546387,114.55500030517578 46.77899932861328,119.55999755859375 93.24099731445312,53.34000015258789 C155.53700256347656,-35.44599914550781 88.53700256347656,-143.4459991455078 -11.428999900817871,-142.21400451660156 C-104.06900024414062,-141.072998046875 -153.56399536132812,-81.49600219726562 -156.1929931640625,-12.843999862670898 C-159.46299743652344,72.55400085449219 -104.55599975585938,99.39199829101562 -50.928001403808594,108.03399658203125z"></path></g><g opacity="1" transform="matrix(1,0,0,1,430.61199951171875,441.1579895019531)"><path fill="rgb(211,221,220)" fill-opacity="1" d=" M73.72000122070312,-113.68000030517578 C100.37000274658203,-65.3239974975586 104.35099792480469,-9.866999626159668 55.7140007019043,31.624000549316406 C-8.13700008392334,86.09200286865234 -71.2750015258789,67.09100341796875 -103.13700103759766,49.30799865722656 C-111.54299926757812,44.617000579833984 -122.03299713134766,41.529998779296875 -130.16299438476562,32.08599853515625 C-119.427001953125,51.94499969482422 -107.76899719238281,64.39299774169922 -93.95999908447266,72.10099792480469 C-62.09600067138672,89.88300323486328 3.627000093460083,113.68000030517578 67.0510025024414,58.762001037597656 C130.16299438476562,4.114999771118164 123.26200103759766,-87.00399780273438 73.72000122070312,-113.68000030517578z"></path></g><g opacity="1" transform="matrix(0.5976800322532654,0,0,0.613319993019104,364.2659912109375,357.90899658203125)"><path fill="rgb(26,11,40)" fill-opacity="1" d=" M100.11699676513672,-11.892999649047852 C105.4739990234375,43.268001556396484 64.99299621582031,93.30999755859375 9.699999809265137,99.87799835205078 C-45.59299850463867,106.44599914550781 -94.76000213623047,67.05400085449219 -100.11599731445312,11.892999649047852 C-105.4739990234375,-43.266998291015625 -64.99199676513672,-93.30899810791016 -9.699000358581543,-99.8759994506836 C45.59400177001953,-106.44499969482422 94.76100158691406,-67.05400085449219 100.11699676513672,-11.892999649047852z"></path></g><g opacity="1" transform="matrix(1,0,0,1,418.67999267578125,438.18499755859375)"><path fill="rgb(100,69,146)" fill-opacity="1" d=" M-77.55500030517578,-35.94300079345703 C-74.12699890136719,-24.551000595092773 -56.84299850463867,-28.094999313354492 -30.704999923706055,-38.83399963378906 C-17.68000030517578,-44.185001373291016 -9.420000076293945,-49.9640007019043 -7.043000221252441,-68.81099700927734 C-5.296999931335449,-82.65499877929688 -9.218999862670898,-86.22200012207031 -21.18600082397461,-84.94100189208984 C-35.04499816894531,-83.45600128173828 -35.01499938964844,-75.9000015258789 -41.67100143432617,-71.18499755859375 C-48.768001556396484,-66.15799713134766 -44.68000030517578,-64.18499755859375 -62.2859992980957,-57.79899978637695 C-68.89800262451172,-55.4010009765625 -78.7030029296875,-39.762001037597656 -77.55500030517578,-35.94300079345703z"></path></g><g opacity="1" transform="matrix(0.5492200255393982,0,0,0.4058299958705902,334.45001220703125,390.8659973144531)"><path fill="rgb(255,255,255)" fill-opacity="1" d=" M27.58799934387207,-22.797000885009766 C37.5260009765625,-5.275000095367432 45.89799880981445,28.604999542236328 27.600000381469727,43.47999954223633 C13.060999870300293,55.29999923706055 -5.992000102996826,54.43899917602539 -20.95199966430664,40.87799835205078 C-35.9119987487793,27.316999435424805 -45.89799880981445,-11.904999732971191 -30.187000274658203,-30.11400032043457 C-17.985000610351562,-44.255001068115234 9.152999877929688,-55.29999923706055 27.58799934387207,-22.797000885009766z"></path></g><g opacity="1" transform="matrix(1,0,0,1,420.9440002441406,328.05499267578125)"><path fill="rgb(255,255,255)" fill-opacity="1" d=" M16.601999282836914,-9.869000434875488 C23.268999099731445,6.438000202178955 21.746999740600586,21.60700035095215 11.083000183105469,26.878000259399414 C2.796999931335449,30.974000930786133 -7.046999931335449,23.398000717163086 -13.253999710083008,12.33899974822998 C-19.461000442504883,1.281000018119812 -23.268999099731445,-20.01799964904785 -13.239999771118164,-25.976999282836914 C-5.452000141143799,-30.604999542236328 7.9720001220703125,-30.975000381469727 16.601999282836914,-9.869000434875488z"></path></g></g><g style="display: block;" transform="matrix(0.9800000190734863,0,0,0.9017665982246399,-6.840010643005371,60.88601303100586)" opacity="1"><g opacity="1" transform="matrix(1,0,0,1,432.4630126953125,428.4460144042969)"><path stroke-linecap="butt" stroke-linejoin="miter" fill-opacity="0" stroke-miterlimit="10" stroke="rgb(94,59,93)" stroke-opacity="1" stroke-width="22" d=" M-50.928001403808594,108.03399658203125 C-10.463000297546387,114.55500030517578 46.77899932861328,119.55999755859375 93.24099731445312,53.34000015258789 C155.53700256347656,-35.44599914550781 88.53700256347656,-143.4459991455078 -11.428999900817871,-142.21400451660156 C-104.06900024414062,-141.072998046875 -153.56399536132812,-81.49600219726562 -156.1929931640625,-12.843999862670898 C-159.46299743652344,72.55400085449219 -104.55599975585938,99.39199829101562 -50.928001403808594,108.03399658203125z"></path></g></g><g style="display: block;" transform="matrix(0.9800000190734863,0,0,0.9017665982246399,-6.840010643005371,60.88601303100586)" opacity="0.02"><g opacity="1" transform="matrix(1,0,0,1,661.073974609375,669.1300048828125)"><path fill="rgb(149,0,0)" fill-opacity="1" d=" M-196.13400268554688,-6.291999816894531 C-196.13400268554688,-6.291999816894531 -137.677001953125,-0.1860000044107437 -28.138999938964844,2.384999990463257 C8.461000442504883,3.24399995803833 43.617000579833984,5.0279998779296875 87.04299926757812,-21.229000091552734 C122.51200103759766,-42.67599868774414 165.4759979248047,-29.850000381469727 204.9149932861328,-76.30799865722656 C251.4340057373047,-131.1060028076172 240.2899932861328,-84.52899932861328 252.38800048828125,-119.7229995727539 C264.4849853515625,-154.91700744628906 267.8609924316406,-181.625 267.8609924316406,-181.625 C267.8609924316406,-181.625 248.72900390625,-129.4290008544922 206.4029998779297,-103.75299835205078 C159.58700561523438,-75.35299682617188 152.9040069580078,-69.65699768066406 107.74700164794922,-56.6870002746582 C79.11799621582031,-48.4640007019043 -5.2779998779296875,-29.850000381469727 -87.20600128173828,-21.822999954223633 C-120.88600158691406,-18.523000717163086 -155.71600341796875,-20.951000213623047 -178.13099670410156,-22.985000610351562 C-230.98699951171875,-27.7810001373291 -305.4599914550781,-51.09000015258789 -309.2300109863281,-44.986000061035156 C-326.5530090332031,-16.94099998474121 -196.13400268554688,-6.291999816894531 -196.13400268554688,-6.291999816894531z"></path></g><g opacity="0" transform="matrix(0.9962220191955566,-0.08684277534484863,0.048776112496852875,0.5595380663871765,682.1890258789062,621.5750122070312)"><path fill="rgb(117,6,28)" fill-opacity="1" d=" M175.7259979248047,-205.11000061035156 C126.23500061035156,-206.2100067138672 71.51799774169922,-199.88600158691406 31.924999237060547,-174.58999633789062 C-7.668000221252441,-149.2949981689453 -54.09199905395508,-95.11100006103516 -119.84700012207031,-75.60800170898438 C-152.29200744628906,-65.98500061035156 -179.0989990234375,-61.446998596191406 -200.95799255371094,-56.08599853515625 C-242.58099365234375,-45.87699890136719 -245.85499572753906,-36.619998931884766 -249.62600708007812,-30.516000747680664 C-257.09600830078125,-18.41900062561035 -256.4280090332031,-4.946000099182129 -253.25900268554688,6.4710001945495605 C-251.28500366210938,-25.349000930786133 -226.57899475097656,-26.110000610351562 -203.01400756835938,-32.97100067138672 C-138.74899291992188,-51.685001373291016 -80.96800231933594,-81.66400146484375 -41.97100067138672,-106.88800048828125 C-2.9749999046325684,-132.11199951171875 50.28300094604492,-137.48399353027344 98.30400085449219,-135.32000732421875 C146.32699584960938,-133.156005859375 126.84300231933594,-53.95600128173828 133.61500549316406,-16.457000732421875 C142.0030059814453,29.99799919128418 148.9810028076172,58.18199920654297 151.3979949951172,132.16700744628906 C151.98300170898438,150.0570068359375 94.48999786376953,183.42599487304688 89.01300048828125,201.26199340820312 C103.99500274658203,197.9980010986328 117.29499816894531,192.66400146484375 128.98399353027344,185.5970001220703 C164.4530029296875,164.14999389648438 182.6529998779297,112.44100189208984 180.125,68.46700286865234 C176.00100708007812,-3.2960000038146973 191.947998046875,-86.60600280761719 204.0449981689453,-121.80000305175781 C216.14300537109375,-156.9929962158203 215.593994140625,-171.29100036621094 215.593994140625,-171.29100036621094 C215.593994140625,-171.29100036621094 225.2169952392578,-204.00999450683594 175.7259979248047,-205.11000061035156z"></path></g><g opacity="1" transform="matrix(1,0,0,1,-25.97003173828125,0)"><g opacity="1" transform="matrix(1,0,0,1,706.947998046875,737.4520263671875)"><path fill="rgb(21,4,7)" fill-opacity="1" d=" M-45.349998474121094,-68.76399993896484 C-45.349998474121094,-68.76399993896484 -130.90499877929688,-56 -142.95199584960938,-76.02300262451172 C-164.98800659179688,-112.64900207519531 -84.72000122070312,-87.38099670410156 -62.13399887084961,-94.25 C-46.78799819946289,-98.91699981689453 -32.45100021362305,-104.05599975585938 -16.51799964904785,-107.81800079345703 C21.468000411987305,-116.78600311279297 26.325000762939453,-110.15599822998047 49.57400131225586,-118.1510009765625 C79.9990005493164,-128.61399841308594 93.98799896240234,-148.5469970703125 105.51899719238281,-121.88099670410156 C116.31400299072266,-96.91500091552734 67.35099792480469,-101.24500274658203 67.35099792480469,-101.24500274658203 C67.35099792480469,-101.24500274658203 20.0310001373291,-81.5 20.0310001373291,-81.5 C20.0310001373291,-81.5 -45.349998474121094,-68.76399993896484 -45.349998474121094,-68.76399993896484z"></path></g><g opacity="1" transform="matrix(1,0,0,1,686.0859985351562,658.137939453125)"><path fill="rgb(150,0,0)" fill-opacity="1" d=" M-1.1440000534057617,-6.164999961853027 C-1.1440000534057617,-6.164999961853027 2.674999952316284,-16.59000015258789 12.24899959564209,-3.0929999351501465 C18.097000122070312,5.1519999504089355 3.318000078201294,5.702000141143799 15.086999893188477,8.357999801635742 C26.856000900268555,11.015000343322754 36.361000061035156,2.5409998893737793 36.229000091552734,-6.935999870300293 C36.09600067138672,-16.41200065612793 23.051000595092773,-20.339000701904297 20.479000091552734,-28.785999298095703 C16.479999542236328,-41.92300033569336 44.72999954223633,-33.67499923706055 44.72999954223633,-33.67499923706055 C44.72999954223633,-33.67499923706055 13.840999603271484,-25.735000610351562 13.840999603271484,-25.735000610351562 C13.840999603271484,-25.735000610351562 -1.1440000534057617,-6.164999961853027 -1.1440000534057617,-6.164999961853027z"></path></g></g></g><g style="display: block;" transform="matrix(0.9800000190734863,0,0,0.9017665982246399,-6.840010643005371,60.88601303100586)" opacity="1"><g opacity="0" transform="matrix(1,0,0,1,735.447998046875,796.1610107421875)"><path fill="rgb(238,0,45)" fill-opacity="1" d=" M-117.54199981689453,36.290000915527344 C-117.54199981689453,36.290000915527344 -114.24199676513672,-1.652999997138977 -82.89700317382812,-26.39900016784668 C-51.553001403808594,-51.14500045776367 -5.361000061035156,-46.19499969482422 -5.361000061035156,-46.19499969482422 C-5.361000061035156,-46.19499969482422 10.310999870300293,-75.89099884033203 51.55400085449219,-78.36499786376953 C92.7969970703125,-80.83999633789062 117.54199981689453,-63.518001556396484 117.54199981689453,-63.518001556396484 C117.54199981689453,-63.518001556396484 110.94300079345703,26.392000198364258 52.37900161743164,52.7869987487793 C-9.861000061035156,80.83899688720703 -117.54199981689453,36.290000915527344 -117.54199981689453,36.290000915527344z"></path><path stroke-linecap="butt" stroke-linejoin="miter" fill-opacity="0" stroke-miterlimit="10" stroke="rgb(132,6,6)" stroke-opacity="1" stroke-width="18.422" d=" M-117.54199981689453,36.290000915527344 C-117.54199981689453,36.290000915527344 -114.24199676513672,-1.652999997138977 -82.89700317382812,-26.39900016784668 C-51.553001403808594,-51.14500045776367 -5.361000061035156,-46.19499969482422 -5.361000061035156,-46.19499969482422 C-5.361000061035156,-46.19499969482422 10.310999870300293,-75.89099884033203 51.55400085449219,-78.36499786376953 C92.7969970703125,-80.83999633789062 117.54199981689453,-63.518001556396484 117.54199981689453,-63.518001556396484 C117.54199981689453,-63.518001556396484 110.94300079345703,26.392000198364258 52.37900161743164,52.7869987487793 C-9.861000061035156,80.83899688720703 -117.54199981689453,36.290000915527344 -117.54199981689453,36.290000915527344z"></path></g></g><g style="display: none;"><g><path></path><path stroke-linecap="butt" stroke-linejoin="miter" fill-opacity="0" stroke-miterlimit="10"></path></g><g><path></path><path stroke-linecap="butt" stroke-linejoin="miter" fill-opacity="0" stroke-miterlimit="10"></path></g><g><path></path><path stroke-linecap="butt" stroke-linejoin="miter" fill-opacity="0" stroke-miterlimit="10"></path></g><g><path></path><path stroke-linecap="butt" stroke-linejoin="miter" fill-opacity="0" stroke-miterlimit="10"></path></g></g><g style="display: block;" transform="matrix(1.2373322248458862,0.14254117012023926,-0.1549074351787567,1.1385560035705566,-59.280418395996094,-63.37041091918945)" opacity="1"><g opacity="1" transform="matrix(0.8321864604949951,0.5544958710670471,-0.8028213381767273,1.2048728466033936,445.15399169921875,617.1339721679688)"><path fill="rgb(255,255,255)" fill-opacity="1" d=" M-51.130001068115234,-17.18899917602539 C-51.130001068115234,-17.18899917602539 -26.253000259399414,-8.552000045776367 -11.390000343322754,-1.4490000009536743 C11.503000259399414,9.491000175476074 25.45400047302246,4.599999904632568 29.30299949645996,3.500999927520752 C33.152000427246094,2.4010000228881836 40.64099884033203,3.7929999828338623 39.54199981689453,-8.303999900817871 C38.441001892089844,-20.402000427246094 29.9689998626709,-54.48400115966797 29.9689998626709,-54.48400115966797 C29.9689998626709,-54.48400115966797 8.248000144958496,-36.29499816894531 -10.447999954223633,-33.54499816894531 C-29.145000457763672,-30.79599952697754 -51.130001068115234,-17.18899917602539 -51.130001068115234,-17.18899917602539z"></path><path stroke-linecap="butt" stroke-linejoin="miter" fill-opacity="0" stroke-miterlimit="10" stroke="rgb(120,137,202)" stroke-opacity="1" stroke-width="16" d=" M-51.130001068115234,-17.18899917602539 C-51.130001068115234,-17.18899917602539 -26.253000259399414,-8.552000045776367 -11.390000343322754,-1.4490000009536743 C11.503000259399414,9.491000175476074 25.45400047302246,4.599999904632568 29.30299949645996,3.500999927520752 C33.152000427246094,2.4010000228881836 40.64099884033203,3.7929999828338623 39.54199981689453,-8.303999900817871 C38.441001892089844,-20.402000427246094 29.9689998626709,-54.48400115966797 29.9689998626709,-54.48400115966797 C29.9689998626709,-54.48400115966797 8.248000144958496,-36.29499816894531 -10.447999954223633,-33.54499816894531 C-29.145000457763672,-30.79599952697754 -51.130001068115234,-17.18899917602539 -51.130001068115234,-17.18899917602539z"></path></g><g opacity="1" transform="matrix(1.1175190210342407,0.24607057869434357,-0.24562114477157593,1.1154779195785522,548.9390258789062,591.6920166015625)"><path fill="rgb(255,255,255)" fill-opacity="1" d=" M-41.79199981689453,-14.35099983215332 C-41.79199981689453,-14.35099983215332 -17.047000885009766,27.992000579833984 -17.047000885009766,27.992000579833984 C-17.047000885009766,27.992000579833984 -12.668000221252441,38.547000885009766 1.6490000486373901,34.04100036621094 C16.496000289916992,29.367000579833984 32.99300003051758,22.493000030517578 32.99300003051758,22.493000030517578 C32.99300003051758,22.493000030517578 41.79199981689453,20.29400062561035 37.393001556396484,7.09499979019165 C32.99300003051758,-6.1020002365112305 18.695999145507812,-38.54600143432617 18.695999145507812,-38.54600143432617 C18.695999145507812,-38.54600143432617 -0.5509999990463257,-28.648000717163086 -15.947999954223633,-24.798999786376953 C-31.344999313354492,-20.950000762939453 -41.79199981689453,-14.35099983215332 -41.79199981689453,-14.35099983215332z"></path><path stroke-linecap="butt" stroke-linejoin="miter" fill-opacity="0" stroke-miterlimit="10" stroke="rgb(120,137,202)" stroke-opacity="1" stroke-width="16" d=" M-41.79199981689453,-14.35099983215332 C-41.79199981689453,-14.35099983215332 -17.047000885009766,27.992000579833984 -17.047000885009766,27.992000579833984 C-17.047000885009766,27.992000579833984 -12.668000221252441,38.547000885009766 1.6490000486373901,34.04100036621094 C16.496000289916992,29.367000579833984 32.99300003051758,22.493000030517578 32.99300003051758,22.493000030517578 C32.99300003051758,22.493000030517578 41.79199981689453,20.29400062561035 37.393001556396484,7.09499979019165 C32.99300003051758,-6.1020002365112305 18.695999145507812,-38.54600143432617 18.695999145507812,-38.54600143432617 C18.695999145507812,-38.54600143432617 -0.5509999990463257,-28.648000717163086 -15.947999954223633,-24.798999786376953 C-31.344999313354492,-20.950000762939453 -41.79199981689453,-14.35099983215332 -41.79199981689453,-14.35099983215332z"></path></g><g opacity="1" transform="matrix(1.0361626148223877,0.329725444316864,-0.32119545340538025,1.00935697555542,640.8590087890625,570.47802734375)"><path fill="rgb(255,255,255)" fill-opacity="1" d=" M39.46200180053711,-48.52299880981445 C39.46200180053711,-48.52299880981445 41.6619987487793,-20.75200080871582 42.21200180053711,0.968999981880188 C42.21200180053711,0.968999981880188 42.4739990234375,17.67099952697754 42.4739990234375,17.67099952697754 C42.29800033569336,24.520000457763672 38.68000030517578,30.832000732421875 32.79800033569336,34.34600067138672 C28.895000457763672,36.676998138427734 23.83799934387207,39.36899948120117 17.740999221801758,41.935001373291016 C13.91100025177002,43.54899978637695 8.593999862670898,46.04999923706055 5.9710001945495605,46.810001373291016 C0.05900000035762787,48.52199935913086 -6.293000221252441,47.29600143432617 -11.140999794006348,43.50299835205078 C-15.67300033569336,39.957000732421875 -22.32900047302246,32.948001861572266 -25.701000213623047,29.014999389648438 C-33.95000076293945,19.391000747680664 -42.4739990234375,7.291999816894531 -42.4739990234375,7.291999816894531 C-42.4739990234375,7.291999816894531 -10.029999732971191,-14.979000091552734 5.367000102996826,-23.775999069213867 C20.764999389648438,-32.57500076293945 39.46200180053711,-48.52299880981445 39.46200180053711,-48.52299880981445z"></path><path stroke-linecap="butt" stroke-linejoin="miter" fill-opacity="0" stroke-miterlimit="10" stroke="rgb(120,137,202)" stroke-opacity="1" stroke-width="16" d=" M39.46200180053711,-48.52299880981445 C39.46200180053711,-48.52299880981445 41.6619987487793,-20.75200080871582 42.21200180053711,0.968999981880188 C42.21200180053711,0.968999981880188 42.4739990234375,17.67099952697754 42.4739990234375,17.67099952697754 C42.29800033569336,24.520000457763672 38.68000030517578,30.832000732421875 32.79800033569336,34.34600067138672 C28.895000457763672,36.676998138427734 23.83799934387207,39.36899948120117 17.740999221801758,41.935001373291016 C13.91100025177002,43.54899978637695 8.593999862670898,46.04999923706055 5.9710001945495605,46.810001373291016 C0.05900000035762787,48.52199935913086 -6.293000221252441,47.29600143432617 -11.140999794006348,43.50299835205078 C-15.67300033569336,39.957000732421875 -22.32900047302246,32.948001861572266 -25.701000213623047,29.014999389648438 C-33.95000076293945,19.391000747680664 -42.4739990234375,7.291999816894531 -42.4739990234375,7.291999816894531 C-42.4739990234375,7.291999816894531 -10.029999732971191,-14.979000091552734 5.367000102996826,-23.775999069213867 C20.764999389648438,-32.57500076293945 39.46200180053711,-48.52299880981445 39.46200180053711,-48.52299880981445z"></path></g><g opacity="1" transform="matrix(1.1026266813278198,-0.023635823279619217,0.024722376838326454,1.1533150672912598,737.2509765625,525.4869995117188)"><path fill="rgb(255,255,255)" fill-opacity="1" d=" M48.39099884033203,-48.66699981689453 C48.39099884033203,-48.66699981689453 44.54199981689453,0.824999988079071 42.891998291015625,14.02299976348877 C41.24300003051758,27.22100067138672 36.292999267578125,34.91899871826172 26.945999145507812,38.21900177001953 C17.597000122070312,41.518001556396484 -1.100000023841858,45.91699981689453 -1.100000023841858,45.91699981689453 C-1.100000023841858,45.91699981689453 -11.54800033569336,48.66600036621094 -20.34600067138672,39.867000579833984 C-29.145000457763672,31.06800079345703 -48.39099884033203,4.673999786376953 -48.39099884033203,4.673999786376953 C-48.39099884033203,4.673999786376953 -18.14699935913086,-24.47100067138672 -0.550000011920929,-31.618999481201172 C17.047000885009766,-38.768001556396484 48.39099884033203,-48.66699981689453 48.39099884033203,-48.66699981689453z"></path><path stroke-linecap="butt" stroke-linejoin="miter" fill-opacity="0" stroke-miterlimit="10" stroke="rgb(120,137,202)" stroke-opacity="1" stroke-width="16" d=" M48.39099884033203,-48.66699981689453 C48.39099884033203,-48.66699981689453 44.54199981689453,0.824999988079071 42.891998291015625,14.02299976348877 C41.24300003051758,27.22100067138672 36.292999267578125,34.91899871826172 26.945999145507812,38.21900177001953 C17.597000122070312,41.518001556396484 -1.100000023841858,45.91699981689453 -1.100000023841858,45.91699981689453 C-1.100000023841858,45.91699981689453 -11.54800033569336,48.66600036621094 -20.34600067138672,39.867000579833984 C-29.145000457763672,31.06800079345703 -48.39099884033203,4.673999786376953 -48.39099884033203,4.673999786376953 C-48.39099884033203,4.673999786376953 -18.14699935913086,-24.47100067138672 -0.550000011920929,-31.618999481201172 C17.047000885009766,-38.768001556396484 48.39099884033203,-48.66699981689453 48.39099884033203,-48.66699981689453z"></path></g><g opacity="1" transform="matrix(0.6851702928543091,-0.72838294506073,0.72838294506073,0.6851702928543091,834.7949829101562,457.4670104980469)"><path fill="rgb(255,255,255)" fill-opacity="1" d=" M-35.051998138427734,-21.343000411987305 C-35.051998138427734,-21.343000411987305 -23.266000747680664,5.410999774932861 -23.266000747680664,5.410999774932861 C-22.583999633789062,7.48199987411499 -13.449999809265137,21.670000076293945 -11.414999961853027,22.457000732421875 C-8.756999969482422,23.486000061035156 -6.209000110626221,21.308000564575195 0.3569999933242798,19.594999313354492 C13.005000114440918,16.29599952697754 19.875999450683594,5.558000087738037 22.75200080871582,0.3799999952316284 C26.875999450683594,-7.043000221252441 35.194000244140625,-27.802000045776367 35.194000244140625,-27.802000045776367 C35.194000244140625,-27.802000045776367 6.598999977111816,-30.552000045776367 -5.499000072479248,-30.00200080871582 C-17.597000122070312,-29.45199966430664 -35.051998138427734,-21.343000411987305 -35.051998138427734,-21.343000411987305z"></path><path stroke-linecap="butt" stroke-linejoin="miter" fill-opacity="0" stroke-miterlimit="10" stroke="rgb(120,137,202)" stroke-opacity="1" stroke-width="16" d=" M-35.051998138427734,-21.343000411987305 C-35.051998138427734,-21.343000411987305 -23.266000747680664,5.410999774932861 -23.266000747680664,5.410999774932861 C-22.583999633789062,7.48199987411499 -13.449999809265137,21.670000076293945 -11.414999961853027,22.457000732421875 C-8.756999969482422,23.486000061035156 -6.209000110626221,21.308000564575195 0.3569999933242798,19.594999313354492 C13.005000114440918,16.29599952697754 19.875999450683594,5.558000087738037 22.75200080871582,0.3799999952316284 C26.875999450683594,-7.043000221252441 35.194000244140625,-27.802000045776367 35.194000244140625,-27.802000045776367 C35.194000244140625,-27.802000045776367 6.598999977111816,-30.552000045776367 -5.499000072479248,-30.00200080871582 C-17.597000122070312,-29.45199966430664 -35.051998138427734,-21.343000411987305 -35.051998138427734,-21.343000411987305z"></path></g></g><g style="display: block;" transform="matrix(0.9800000190734863,0,0,0.9017665982246399,-6.840010643005371,60.88601303100586)" opacity="1"><g opacity="1" transform="matrix(1,0,0,1,549.9340209960938,236.5279998779297)"><path stroke-linecap="round" stroke-linejoin="round" fill-opacity="0" stroke="rgb(182,94,49)" stroke-opacity="0.5" stroke-width="20.982" d=" M27.211999893188477,-40.53200149536133 C27.211999893188477,-40.53200149536133 42.55799865722656,-24.860000610351562 47.67300033569336,-3.000999927520752 C52.78799819946289,18.857999801635742 51.08300018310547,27.930999755859375 51.08300018310547,27.930999755859375"></path></g></g><g style="display: block;" transform="matrix(0.9800000190734863,0,0,0.9017665982246399,-6.840010643005371,60.88601303100586)" opacity="1"><g opacity="1" transform="matrix(1,0,0,1,765.2639770507812,143.2740020751953)"><path fill="rgb(57,20,13)" fill-opacity="1" d=" M-99.75599670410156,30.94499969482422 C-69.9800033569336,16.948999404907227 -30.41900062561035,8.07800006866455 33.10599899291992,11.489999771118164 C67.02899932861328,13.378000259399414 97.95800018310547,16.31999969482422 136.64100646972656,20.44700050354004 C160.0780029296875,26.655000686645508 171.3719940185547,38.138999938964844 176.8979949951172,21.18899917602539 C179.84300231933594,15.170999526977539 163.61000061035156,6.7729997634887695 161.1020050048828,5.1539998054504395 C157.0399932861328,2.5320000648498535 137.48899841308594,-6.6479997634887695 103.46900177001953,-15.725000381469727 C73.48699951171875,-20.42799949645996 42.94300079345703,-28.658000946044922 13.559000015258789,-31.735000610351562 C-16.131000518798828,-34.78099822998047 -94.25900268554688,-47.5629997253418 -111.87200164794922,-24.145999908447266 C-123.80999755859375,-6.4039998054504395 -111.03900146484375,36.858001708984375 -99.75599670410156,30.94499969482422z"></path><path stroke-linecap="butt" stroke-linejoin="miter" fill-opacity="0" stroke-miterlimit="10" stroke="rgb(56,20,12)" stroke-opacity="1" stroke-width="9" d=" M-99.75599670410156,30.94499969482422 C-69.9800033569336,16.948999404907227 -30.41900062561035,8.07800006866455 33.10599899291992,11.489999771118164 C67.02899932861328,13.378000259399414 97.95800018310547,16.31999969482422 136.64100646972656,20.44700050354004 C160.0780029296875,26.655000686645508 171.3719940185547,38.138999938964844 176.8979949951172,21.18899917602539 C179.84300231933594,15.170999526977539 163.61000061035156,6.7729997634887695 161.1020050048828,5.1539998054504395 C157.0399932861328,2.5320000648498535 137.48899841308594,-6.6479997634887695 103.46900177001953,-15.725000381469727 C73.48699951171875,-20.42799949645996 42.94300079345703,-28.658000946044922 13.559000015258789,-31.735000610351562 C-16.131000518798828,-34.78099822998047 -94.25900268554688,-47.5629997253418 -111.87200164794922,-24.145999908447266 C-123.80999755859375,-6.4039998054504395 -111.03900146484375,36.858001708984375 -99.75599670410156,30.94499969482422z"></path></g><g opacity="1" transform="matrix(0.9977256655693054,-0.0674058273434639,0.0674058273434639,0.9977256655693054,318.0870056152344,141.2740020751953)"><path fill="rgb(57,20,13)" fill-opacity="1" d=" M25.170000076293945,61.17599868774414 C11.15999984741211,67.302001953125 -9.824000358581543,76.48699951171875 -33.071998596191406,91.63800048828125 C-55.702999114990234,106.38700103759766 -83.83200073242188,127.88700103759766 -92.08699798583984,139.05799865722656 C-95.87999725341797,144.1909942626953 -93.66799926757812,159.25100708007812 -71.57099914550781,142.7570037841797 C-58.292999267578125,132.8459930419922 -12.704999923706055,101.82499694824219 69.53399658203125,89.50900268554688 C114.12300109863281,82.83100128173828 167.82000732421875,95.6709976196289 188.4040069580078,74.19200134277344 C216.94900512695312,44.40599822998047 215.74000549316406,7.860000133514404 205.35499572753906,-1.309000015258789 C195.81700134277344,-9.729999542236328 143.62100219726562,21.40999984741211 121.65699768066406,25.160999298095703 C116.07099914550781,26.114999771118164 56.250999450683594,47.58599853515625 25.170000076293945,61.17599868774414z"></path><path stroke-linecap="butt" stroke-linejoin="miter" fill-opacity="0" stroke-miterlimit="10" stroke="rgb(56,20,12)" stroke-opacity="1" stroke-width="9" d=" M25.170000076293945,61.17599868774414 C11.15999984741211,67.302001953125 -9.824000358581543,76.48699951171875 -33.071998596191406,91.63800048828125 C-55.702999114990234,106.38700103759766 -83.83200073242188,127.88700103759766 -92.08699798583984,139.05799865722656 C-95.87999725341797,144.1909942626953 -93.66799926757812,159.25100708007812 -71.57099914550781,142.7570037841797 C-58.292999267578125,132.8459930419922 -12.704999923706055,101.82499694824219 69.53399658203125,89.50900268554688 C114.12300109863281,82.83100128173828 167.82000732421875,95.6709976196289 188.4040069580078,74.19200134277344 C216.94900512695312,44.40599822998047 215.74000549316406,7.860000133514404 205.35499572753906,-1.309000015258789 C195.81700134277344,-9.729999542236328 143.62100219726562,21.40999984741211 121.65699768066406,25.160999298095703 C116.07099914550781,26.114999771118164 56.250999450683594,47.58599853515625 25.170000076293945,61.17599868774414z"></path></g></g><g style="display: block;" transform="matrix(1.2373322248458862,0.14254117012023926,-0.1549074351787567,1.1385560035705566,-59.280418395996094,-63.37041091918945)" opacity="1"><g opacity="1" transform="matrix(0.8321864604949951,0.5544958710670471,-0.8028213381767273,1.2048728466033936,445.15399169921875,617.1339721679688)"><path fill="rgb(255,255,255)" fill-opacity="1" d=" M-51.130001068115234,-17.18899917602539 C-51.130001068115234,-17.18899917602539 -26.253000259399414,-8.552000045776367 -11.390000343322754,-1.4490000009536743 C11.503000259399414,9.491000175476074 25.45400047302246,4.599999904632568 29.30299949645996,3.500999927520752 C33.152000427246094,2.4010000228881836 40.64099884033203,3.7929999828338623 39.54199981689453,-8.303999900817871 C38.441001892089844,-20.402000427246094 29.9689998626709,-54.48400115966797 29.9689998626709,-54.48400115966797 C29.9689998626709,-54.48400115966797 8.248000144958496,-36.29499816894531 -10.447999954223633,-33.54499816894531 C-29.145000457763672,-30.79599952697754 -51.130001068115234,-17.18899917602539 -51.130001068115234,-17.18899917602539z"></path><path stroke-linecap="butt" stroke-linejoin="miter" fill-opacity="0" stroke-miterlimit="10" stroke="rgb(124,135,177)" stroke-opacity="1" stroke-width="12" d=" M-51.130001068115234,-17.18899917602539 C-51.130001068115234,-17.18899917602539 -26.253000259399414,-8.552000045776367 -11.390000343322754,-1.4490000009536743 C11.503000259399414,9.491000175476074 25.45400047302246,4.599999904632568 29.30299949645996,3.500999927520752 C33.152000427246094,2.4010000228881836 40.64099884033203,3.7929999828338623 39.54199981689453,-8.303999900817871 C38.441001892089844,-20.402000427246094 29.9689998626709,-54.48400115966797 29.9689998626709,-54.48400115966797 C29.9689998626709,-54.48400115966797 8.248000144958496,-36.29499816894531 -10.447999954223633,-33.54499816894531 C-29.145000457763672,-30.79599952697754 -51.130001068115234,-17.18899917602539 -51.130001068115234,-17.18899917602539z"></path></g><g opacity="1" transform="matrix(1.1175190210342407,0.24607057869434357,-0.24562114477157593,1.1154779195785522,548.9390258789062,591.6920166015625)"><path fill="rgb(255,255,255)" fill-opacity="1" d=" M-41.79199981689453,-14.35099983215332 C-41.79199981689453,-14.35099983215332 -17.047000885009766,27.992000579833984 -17.047000885009766,27.992000579833984 C-17.047000885009766,27.992000579833984 -12.668000221252441,38.547000885009766 1.6490000486373901,34.04100036621094 C16.496000289916992,29.367000579833984 32.99300003051758,22.493000030517578 32.99300003051758,22.493000030517578 C32.99300003051758,22.493000030517578 41.79199981689453,20.29400062561035 37.393001556396484,7.09499979019165 C32.99300003051758,-6.1020002365112305 18.695999145507812,-38.54600143432617 18.695999145507812,-38.54600143432617 C18.695999145507812,-38.54600143432617 -0.5509999990463257,-28.648000717163086 -15.947999954223633,-24.798999786376953 C-31.344999313354492,-20.950000762939453 -41.79199981689453,-14.35099983215332 -41.79199981689453,-14.35099983215332z"></path><path stroke-linecap="butt" stroke-linejoin="miter" fill-opacity="0" stroke-miterlimit="10" stroke="rgb(124,135,177)" stroke-opacity="1" stroke-width="12" d=" M-41.79199981689453,-14.35099983215332 C-41.79199981689453,-14.35099983215332 -17.047000885009766,27.992000579833984 -17.047000885009766,27.992000579833984 C-17.047000885009766,27.992000579833984 -12.668000221252441,38.547000885009766 1.6490000486373901,34.04100036621094 C16.496000289916992,29.367000579833984 32.99300003051758,22.493000030517578 32.99300003051758,22.493000030517578 C32.99300003051758,22.493000030517578 41.79199981689453,20.29400062561035 37.393001556396484,7.09499979019165 C32.99300003051758,-6.1020002365112305 18.695999145507812,-38.54600143432617 18.695999145507812,-38.54600143432617 C18.695999145507812,-38.54600143432617 -0.5509999990463257,-28.648000717163086 -15.947999954223633,-24.798999786376953 C-31.344999313354492,-20.950000762939453 -41.79199981689453,-14.35099983215332 -41.79199981689453,-14.35099983215332z"></path></g><g opacity="1" transform="matrix(1.0361626148223877,0.329725444316864,-0.32119545340538025,1.00935697555542,640.8590087890625,570.47802734375)"><path fill="rgb(255,255,255)" fill-opacity="1" d=" M39.46200180053711,-48.52299880981445 C39.46200180053711,-48.52299880981445 41.6619987487793,-20.75200080871582 42.21200180053711,0.968999981880188 C42.21200180053711,0.968999981880188 42.4739990234375,17.67099952697754 42.4739990234375,17.67099952697754 C42.29800033569336,24.520000457763672 38.68000030517578,30.832000732421875 32.79800033569336,34.34600067138672 C28.895000457763672,36.676998138427734 23.83799934387207,39.36899948120117 17.740999221801758,41.935001373291016 C13.91100025177002,43.54899978637695 8.593999862670898,46.04999923706055 5.9710001945495605,46.810001373291016 C0.05900000035762787,48.52199935913086 -6.293000221252441,47.29600143432617 -11.140999794006348,43.50299835205078 C-15.67300033569336,39.957000732421875 -22.32900047302246,32.948001861572266 -25.701000213623047,29.014999389648438 C-33.95000076293945,19.391000747680664 -42.4739990234375,7.291999816894531 -42.4739990234375,7.291999816894531 C-42.4739990234375,7.291999816894531 -10.029999732971191,-14.979000091552734 5.367000102996826,-23.775999069213867 C20.764999389648438,-32.57500076293945 39.46200180053711,-48.52299880981445 39.46200180053711,-48.52299880981445z"></path><path stroke-linecap="butt" stroke-linejoin="miter" fill-opacity="0" stroke-miterlimit="10" stroke="rgb(124,135,177)" stroke-opacity="1" stroke-width="12" d=" M39.46200180053711,-48.52299880981445 C39.46200180053711,-48.52299880981445 41.6619987487793,-20.75200080871582 42.21200180053711,0.968999981880188 C42.21200180053711,0.968999981880188 42.4739990234375,17.67099952697754 42.4739990234375,17.67099952697754 C42.29800033569336,24.520000457763672 38.68000030517578,30.832000732421875 32.79800033569336,34.34600067138672 C28.895000457763672,36.676998138427734 23.83799934387207,39.36899948120117 17.740999221801758,41.935001373291016 C13.91100025177002,43.54899978637695 8.593999862670898,46.04999923706055 5.9710001945495605,46.810001373291016 C0.05900000035762787,48.52199935913086 -6.293000221252441,47.29600143432617 -11.140999794006348,43.50299835205078 C-15.67300033569336,39.957000732421875 -22.32900047302246,32.948001861572266 -25.701000213623047,29.014999389648438 C-33.95000076293945,19.391000747680664 -42.4739990234375,7.291999816894531 -42.4739990234375,7.291999816894531 C-42.4739990234375,7.291999816894531 -10.029999732971191,-14.979000091552734 5.367000102996826,-23.775999069213867 C20.764999389648438,-32.57500076293945 39.46200180053711,-48.52299880981445 39.46200180053711,-48.52299880981445z"></path></g><g opacity="1" transform="matrix(1.1026266813278198,-0.023635823279619217,0.024722376838326454,1.1533150672912598,737.2509765625,525.4869995117188)"><path fill="rgb(255,255,255)" fill-opacity="1" d=" M48.39099884033203,-48.66699981689453 C48.39099884033203,-48.66699981689453 44.54199981689453,0.824999988079071 42.891998291015625,14.02299976348877 C41.24300003051758,27.22100067138672 36.292999267578125,34.91899871826172 26.945999145507812,38.21900177001953 C17.597000122070312,41.518001556396484 -1.100000023841858,45.91699981689453 -1.100000023841858,45.91699981689453 C-1.100000023841858,45.91699981689453 -11.54800033569336,48.66600036621094 -20.34600067138672,39.867000579833984 C-29.145000457763672,31.06800079345703 -48.39099884033203,4.673999786376953 -48.39099884033203,4.673999786376953 C-48.39099884033203,4.673999786376953 -18.14699935913086,-24.47100067138672 -0.550000011920929,-31.618999481201172 C17.047000885009766,-38.768001556396484 48.39099884033203,-48.66699981689453 48.39099884033203,-48.66699981689453z"></path><path stroke-linecap="butt" stroke-linejoin="miter" fill-opacity="0" stroke-miterlimit="10" stroke="rgb(124,135,177)" stroke-opacity="1" stroke-width="12" d=" M48.39099884033203,-48.66699981689453 C48.39099884033203,-48.66699981689453 44.54199981689453,0.824999988079071 42.891998291015625,14.02299976348877 C41.24300003051758,27.22100067138672 36.292999267578125,34.91899871826172 26.945999145507812,38.21900177001953 C17.597000122070312,41.518001556396484 -1.100000023841858,45.91699981689453 -1.100000023841858,45.91699981689453 C-1.100000023841858,45.91699981689453 -11.54800033569336,48.66600036621094 -20.34600067138672,39.867000579833984 C-29.145000457763672,31.06800079345703 -48.39099884033203,4.673999786376953 -48.39099884033203,4.673999786376953 C-48.39099884033203,4.673999786376953 -18.14699935913086,-24.47100067138672 -0.550000011920929,-31.618999481201172 C17.047000885009766,-38.768001556396484 48.39099884033203,-48.66699981689453 48.39099884033203,-48.66699981689453z"></path></g><g opacity="1" transform="matrix(0.6851702928543091,-0.72838294506073,0.72838294506073,0.6851702928543091,834.7949829101562,457.4670104980469)"><path fill="rgb(255,255,255)" fill-opacity="1" d=" M-43.608001708984375,-15.097999572753906 C-43.608001708984375,-15.097999572753906 -31.820999145507812,11.654999732971191 -31.820999145507812,11.654999732971191 C-31.138999938964844,13.72599983215332 -22.006000518798828,27.913999557495117 -19.97100067138672,28.701000213623047 C-17.312999725341797,29.729999542236328 -14.765000343322754,27.552000045776367 -8.199000358581543,25.839000701904297 C4.448999881744385,22.540000915527344 11.319999694824219,11.803000450134277 14.196000099182129,6.625 C18.31999969482422,-0.7979999780654907 26.63800048828125,-21.55699920654297 26.63800048828125,-21.55699920654297 C26.63800048828125,-21.55699920654297 -3.2139999866485596,-15.986000061035156 -15.312000274658203,-15.435999870300293 C-27.40999984741211,-14.88599967956543 -43.608001708984375,-15.097999572753906 -43.608001708984375,-15.097999572753906z"></path><path stroke-linecap="butt" stroke-linejoin="miter" fill-opacity="0" stroke-miterlimit="10" stroke="rgb(124,135,177)" stroke-opacity="1" stroke-width="12" d=" M-43.608001708984375,-15.097999572753906 C-43.608001708984375,-15.097999572753906 -31.820999145507812,11.654999732971191 -31.820999145507812,11.654999732971191 C-31.138999938964844,13.72599983215332 -22.006000518798828,27.913999557495117 -19.97100067138672,28.701000213623047 C-17.312999725341797,29.729999542236328 -14.765000343322754,27.552000045776367 -8.199000358581543,25.839000701904297 C4.448999881744385,22.540000915527344 11.319999694824219,11.803000450134277 14.196000099182129,6.625 C18.31999969482422,-0.7979999780654907 26.63800048828125,-21.55699920654297 26.63800048828125,-21.55699920654297 C26.63800048828125,-21.55699920654297 -3.2139999866485596,-15.986000061035156 -15.312000274658203,-15.435999870300293 C-27.40999984741211,-14.88599967956543 -43.608001708984375,-15.097999572753906 -43.608001708984375,-15.097999572753906z"></path></g></g><g style="display: block;" transform="matrix(0.9800000190734863,0,0,0.9017665982246399,441.0199890136719,476.6004333496094)" opacity="1"><g opacity="1" transform="matrix(1,0,0,1,0,0)"><path fill="url(#__lottie_element_55)" fill-opacity="1" d=" M-9.918000221252441,-58.32699966430664 C-86.16000366210938,-45.16999816894531 -131.6529998779297,-22.844999313354492 -162.14300537109375,1.1089999675750732 C-179.1540069580078,14.473999977111816 -180.63299560546875,22.621999740600586 -176,35 C-170.89599609375,48.637001037597656 -146.02000427246094,43.78200149536133 -146.02000427246094,43.78200149536133 C-146.02000427246094,43.78200149536133 -140.0780029296875,56.409000396728516 -110,69.10900115966797 C-65,88.10900115966797 -0.9829999804496765,90.03600311279297 45.04100036621094,57.43600082397461 C93.04100036621094,23.43600082397461 87.89800262451172,-15.564000129699707 87.89800262451172,-15.564000129699707 C87.89800262451172,-15.564000129699707 118.34700012207031,-25.062999725341797 111,-49 C107.88999938964844,-59.13399887084961 47.93899917602539,-68.31199645996094 -9.918000221252441,-58.32699966430664z"></path><path stroke-linecap="round" stroke-linejoin="round" fill-opacity="0" stroke="rgb(182,94,49)" stroke-opacity="1" stroke-width="25" d=" M-9.918000221252441,-58.32699966430664 C-86.16000366210938,-45.16999816894531 -131.6529998779297,-22.844999313354492 -162.14300537109375,1.1089999675750732 C-179.1540069580078,14.473999977111816 -180.63299560546875,22.621999740600586 -176,35 C-170.89599609375,48.637001037597656 -146.02000427246094,43.78200149536133 -146.02000427246094,43.78200149536133 C-146.02000427246094,43.78200149536133 -140.0780029296875,56.409000396728516 -110,69.10900115966797 C-65,88.10900115966797 -0.9829999804496765,90.03600311279297 45.04100036621094,57.43600082397461 C93.04100036621094,23.43600082397461 87.89800262451172,-15.564000129699707 87.89800262451172,-15.564000129699707 C87.89800262451172,-15.564000129699707 118.34700012207031,-25.062999725341797 111,-49 C107.88999938964844,-59.13399887084961 47.93899917602539,-68.31199645996094 -9.918000221252441,-58.32699966430664z"></path></g></g><g style="display: block;" transform="matrix(0.9800000190734863,0,0,0.9017665982246399,-6.840010643005371,60.88601303100586)" opacity="1"><g opacity="1" transform="matrix(1,0,0,1,651.697998046875,555.3109741210938)"><path fill="rgb(229,150,113)" fill-opacity="1" d=" M-437.0329895019531,-71.06400299072266 C-437.0329895019531,-71.06400299072266 -385.5880126953125,10.755000114440918 -276.6099853515625,49.797000885009766 C-217.19400024414062,71.58799743652344 -140.0709991455078,76.48300170898438 -106.21700286865234,76.65799713134766 C-79.16699981689453,76.7979965209961 -16.341999053955078,73.30000305175781 9.420000076293945,68.63300323486328 C67.10800170898438,58.18299865722656 111.28800201416016,47.875999450683594 153.53700256347656,25.819000244140625 C210.95899963378906,-4.158999919891357 246.41400146484375,-34.96500015258789 278.0530090332031,-98.34100341796875 C308.99200439453125,-160.00799560546875 300.6619873046875,-205.1479949951172 308.2489929199219,-203.67100524902344 C320.54901123046875,-201.2760009765625 322.25201416015625,-133.73699951171875 314.4909973144531,-123.76699829101562 C314.4909973144531,-123.76699829101562 306.45098876953125,-73.40699768066406 306.45098876953125,-73.40699768066406 C306.45098876953125,-73.40699768066406 299.7239990234375,-55.67900085449219 276.302001953125,-17.32200050354004 C267.24798583984375,-2.494999885559082 240.843994140625,13.611000061035156 197.5850067138672,48.42499923706055 C178.51499938964844,63.77199935913086 149.9759979248047,68.38999938964844 124.74199676513672,78.22200012207031 C80.88500213623047,95.31099700927734 35.611000061035156,94.43800354003906 3.2060000896453857,103.70700073242188 C-6.938000202178955,106.60800170898438 -42.832000732421875,108.6709976196289 -57.007999420166016,110.72599792480469 C-79.072998046875,113.92500305175781 -104.91500091552734,109.47200012207031 -129.7100067138672,111.052001953125 C-158.56300354003906,112.89099884033203 -192.41299438476562,108.16000366210938 -221.3990020751953,101.26399993896484 C-463.760009765625,43.60100173950195 -448.0419921875,-65.0979995727539 -448.0419921875,-65.0979995727539 C-448.0419921875,-65.0979995727539 -437.0329895019531,-71.06400299072266 -437.0329895019531,-71.06400299072266z"></path></g><g opacity="1" transform="matrix(1,0,0,1,661.073974609375,669.1300048828125)"><path stroke-linecap="round" stroke-linejoin="round" fill-opacity="0" stroke="rgb(108,0,0)" stroke-opacity="1" stroke-width="20" d=" M-147.85000610351562,0.3569999933242798 C-111.09300231933594,1.8079999685287476 -51.60200119018555,3.812000036239624 21.68000030517578,-8.54699993133545 C77.90499877929688,-18.030000686645508 78.86000061035156,-21.45800018310547 131.7050018310547,-38.36600112915039 C174.80999755859375,-52.15700149536133 202.96499633789062,-74.48100280761719 226.70199584960938,-95.08499908447266 C249.88400268554688,-115.20700073242188 258.29998779296875,-125.01899719238281 276.88299560546875,-157.24600219726562 C290.6679992675781,-181.77099609375 294.5249938964844,-193.8090057373047 301.20098876953125,-226.8350067138672 C313.5060119628906,-281.34600830078125 305.4200134277344,-326.9119873046875 300.1700134277344,-298.6189880371094 C295.32598876953125,-209.86300659179688 283.5820007324219,-153.23800659179688 226.11099243164062,-102.75399780273438 C201.343994140625,-81.6240005493164 174.97999572753906,-65.41500091552734 129.16200256347656,-48.39899826049805 C105.72899627685547,-39.59400177001953 71.46600341796875,-26.051000595092773 22.211000442504883,-17.104000091552734 C-6.814000129699707,-11.831000328063965 -58.69300079345703,-3.9049999713897705 -101.36799621582031,-5.185999870300293 C-147.11599731445312,-6.559000015258789 -199.43699645996094,-1.5440000295639038 -304.56298828125,-37.47600173950195 C-395.9490051269531,-69.74700164794922 -451.906005859375,-177.31199645996094 -444.9830017089844,-165.75399780273438 C-415.51300048828125,-94.177001953125 -363.6310119628906,-53.39799880981445 -310.86700439453125,-33.3380012512207 C-253.60400390625,-11.322999954223633 -194.47900390625,-1.4830000400543213 -147.85000610351562,0.3569999933242798z"></path></g></g><g style="display: block;" transform="matrix(0.9650256037712097,0,0,0.8949221968650818,522.1483154296875,540.6808471679688)" opacity="1"><g opacity="0" transform="matrix(1,0,0,1,0,0)"><path fill="rgb(205,255,251)" fill-opacity="1" d=" M363,-169 C363,-169 353,-177 346,-176 C339,-175 323,-144 323,-144 C323,-144 354,-126 354,-126 C354,-126 365,-124 373,-115 C383.9570007324219,-102.6729965209961 379,-106 379,-105 C379,-104 390,-114 397,-114 C404,-114 395,-127 392,-136 C382.6570129394531,-164.02999877929688 363,-169 363,-169z"></path></g></g><g style="display: block;" transform="matrix(0.9016000628471375,0,0,0.9017665982246399,817.4183959960938,381.0131530761719)" opacity="1"><g opacity="1" transform="matrix(1,0,0,1,0,0)"><path fill="url(#__lottie_element_48)" fill-opacity="1" d=" M-41.63999938964844,-58.96099853515625 C-99.52899932861328,-47.814998626708984 -141.3249969482422,-29.957000732421875 -169.4409942626953,-9.85200023651123 C-181.4980010986328,-1.2300000190734863 -201.13999938964844,16.134000778198242 -188.26699829101562,32.23699951171875 C-176.81700134277344,46.560001373291016 -163.83299255371094,33.474998474121094 -163.83299255371094,33.474998474121094 C-163.83299255371094,33.474998474121094 -135.35299682617188,62.891998291015625 -104.697998046875,74.12799835205078 C-71.95899963378906,86.12799835205078 -14.529000282287598,83.97200012207031 27.760000228881836,56.69300079345703 C72.71700286865234,27.69300079345703 74.52200317382812,-33.30699920654297 74.52200317382812,-33.30699920654297 C74.52200317382812,-33.30699920654297 99.1510009765625,-29.260000228881836 94.87300109863281,-51 C91.59400177001953,-67.66100311279297 15.064000129699707,-69.87899780273438 -41.63999938964844,-58.96099853515625z"></path><path stroke-linecap="round" stroke-linejoin="round" fill-opacity="0" stroke="rgb(182,94,49)" stroke-opacity="1" stroke-width="25" d=" M-41.63999938964844,-58.96099853515625 C-99.52899932861328,-47.814998626708984 -141.3249969482422,-29.957000732421875 -169.4409942626953,-9.85200023651123 C-181.4980010986328,-1.2300000190734863 -201.13999938964844,16.134000778198242 -188.26699829101562,32.23699951171875 C-176.81700134277344,46.560001373291016 -163.83299255371094,33.474998474121094 -163.83299255371094,33.474998474121094 C-163.83299255371094,33.474998474121094 -135.35299682617188,62.891998291015625 -104.697998046875,74.12799835205078 C-71.95899963378906,86.12799835205078 -14.529000282287598,83.97200012207031 27.760000228881836,56.69300079345703 C72.71700286865234,27.69300079345703 74.52200317382812,-33.30699920654297 74.52200317382812,-33.30699920654297 C74.52200317382812,-33.30699920654297 99.1510009765625,-29.260000228881836 94.87300109863281,-51 C91.59400177001953,-67.66100311279297 15.064000129699707,-69.87899780273438 -41.63999938964844,-58.96099853515625z"></path></g></g><g style="display: none;"><g><path></path><path stroke-linecap="butt" stroke-linejoin="miter" fill-opacity="0" stroke-miterlimit="10"></path></g><g><path></path><path stroke-linecap="butt" stroke-linejoin="miter" fill-opacity="0" stroke-miterlimit="10"></path></g><g><path></path><path stroke-linecap="butt" stroke-linejoin="miter" fill-opacity="0" stroke-miterlimit="10"></path></g><g><path></path><path stroke-linecap="butt" stroke-linejoin="miter" fill-opacity="0" stroke-miterlimit="10"></path></g><g><path></path><path stroke-linecap="butt" stroke-linejoin="miter" fill-opacity="0" stroke-miterlimit="10"></path></g></g><g style="display: block;" transform="matrix(0.9800000190734863,0,0,0.9017665982246399,-6.840010643005371,60.88601303100586)" opacity="1"><g opacity="1" transform="matrix(1,0,0,1,651.697998046875,555.3109741210938)"><path fill="rgb(229,149,112)" fill-opacity="1" d=" M-437.0329895019531,-71.06400299072266 C-437.0329895019531,-71.06400299072266 -385.5880126953125,10.755000114440918 -276.6099853515625,49.797000885009766 C-217.19400024414062,71.58799743652344 -140.0709991455078,76.48300170898438 -106.21700286865234,76.65799713134766 C-79.16699981689453,76.7979965209961 -16.341999053955078,73.30000305175781 9.420000076293945,68.63300323486328 C67.10800170898438,58.18299865722656 111.28800201416016,47.875999450683594 153.53700256347656,25.819000244140625 C210.95899963378906,-4.158999919891357 246.41400146484375,-34.96500015258789 278.0530090332031,-98.34100341796875 C308.99200439453125,-160.00799560546875 300.6619873046875,-205.1479949951172 308.2489929199219,-203.67100524902344 C320.54901123046875,-201.2760009765625 322.25201416015625,-133.73699951171875 314.4909973144531,-123.76699829101562 C314.4909973144531,-123.76699829101562 306.45098876953125,-73.40699768066406 306.45098876953125,-73.40699768066406 C306.45098876953125,-73.40699768066406 299.7239990234375,-55.67900085449219 276.302001953125,-17.32200050354004 C267.24798583984375,-2.494999885559082 240.843994140625,13.611000061035156 197.5850067138672,48.42499923706055 C178.51499938964844,63.77199935913086 149.9759979248047,68.38999938964844 124.74199676513672,78.22200012207031 C80.88500213623047,95.31099700927734 35.611000061035156,94.43800354003906 3.2060000896453857,103.70700073242188 C-6.938000202178955,106.60800170898438 -42.832000732421875,108.6709976196289 -57.007999420166016,110.72599792480469 C-79.072998046875,113.92500305175781 -104.91500091552734,109.47200012207031 -129.7100067138672,111.052001953125 C-158.56300354003906,112.89099884033203 -192.41299438476562,108.16000366210938 -221.3990020751953,101.26399993896484 C-463.760009765625,43.60100173950195 -448.0419921875,-65.0979995727539 -448.0419921875,-65.0979995727539 C-448.0419921875,-65.0979995727539 -437.0329895019531,-71.06400299072266 -437.0329895019531,-71.06400299072266z"></path></g><g opacity="1" transform="matrix(1,0,0,1,661.073974609375,669.1300048828125)"><path stroke-linecap="butt" stroke-linejoin="round" fill-opacity="0" stroke="rgb(108,0,0)" stroke-opacity="1" stroke-width="17.485" d=" M-147.85000610351562,0.3569999933242798 C-111.09300231933594,1.8079999685287476 -51.60200119018555,3.812000036239624 21.68000030517578,-8.54699993133545 C77.90499877929688,-18.030000686645508 78.86000061035156,-21.45800018310547 131.7050018310547,-38.36600112915039 C174.80999755859375,-52.15700149536133 202.96499633789062,-74.48100280761719 226.70199584960938,-95.08499908447266 C249.88400268554688,-115.20700073242188 258.29998779296875,-125.01899719238281 276.88299560546875,-157.24600219726562 C290.6679992675781,-181.77099609375 294.5249938964844,-193.8090057373047 301.20098876953125,-226.8350067138672 C313.5060119628906,-281.34600830078125 305.4200134277344,-326.9119873046875 300.1700134277344,-298.6189880371094 C295.32598876953125,-209.86300659179688 283.5820007324219,-153.23800659179688 226.11099243164062,-102.75399780273438 C201.343994140625,-81.6240005493164 174.97999572753906,-65.41500091552734 129.16200256347656,-48.39899826049805 C105.72899627685547,-39.59400177001953 71.46600341796875,-26.051000595092773 22.211000442504883,-17.104000091552734 C-6.814000129699707,-11.831000328063965 -58.69300079345703,-3.9049999713897705 -101.36799621582031,-5.185999870300293 C-147.11599731445312,-6.559000015258789 -199.43699645996094,-1.5440000295639038 -304.56298828125,-37.47600173950195 C-395.9490051269531,-69.74700164794922 -451.906005859375,-177.31199645996094 -444.9830017089844,-165.75399780273438 C-415.51300048828125,-94.177001953125 -363.6310119628906,-53.39799880981445 -310.86700439453125,-33.3380012512207 C-253.60400390625,-11.322999954223633 -194.47900390625,-1.4830000400543213 -147.85000610351562,0.3569999933242798z"></path></g></g><g style="display: block;" transform="matrix(0.9800000190734863,0,0,0.9017665982246399,-6.840010643005371,60.88601303100586)" opacity="0.01"><g opacity="1" transform="matrix(1,0,0,1,410.9150085449219,569.2039794921875)"><path fill="rgb(90,198,212)" fill-opacity="1" d=" M-69.49600219726562,7.156000137329102 C-69.27200317382812,0.8209999799728394 -71.79100036621094,-5.343999862670898 -76.53900146484375,-9.711999893188477 C-83.77200317382812,-16.367000579833984 -101.26499938964844,-43.027000427246094 -99.822998046875,-53.143001556396484 C-97.51499938964844,-69.3290023803711 -93.16799926757812,-53.13399887084961 -66.18299865722656,-46.856998443603516 C-55.45199966430664,-44.361000061035156 -35.53799819946289,-36.104000091552734 -5.01200008392334,-41.34299850463867 C23.233999252319336,-46.19200134277344 35.43199920654297,-44.66899871826172 53.64799880981445,-52.29100036621094 C70.7979965209961,-59.465999603271484 82.40299987792969,-50.15399932861328 75.67400360107422,-42.417999267578125 C65.38800048828125,-30.591999053955078 64.36399841308594,-25.98900032043457 16.34000015258789,-17.058000564575195 C-16.075000762939453,-11.031000137329102 -24.033000946044922,-12.770999908447266 -23.05699920654297,10.187000274658203 C-22.746999740600586,17.458999633789062 -12.553999900817871,44.08599853515625 -31.013999938964844,50.78300094604492 C-35.13600158691406,52.27799987792969 -38.744998931884766,53.124000549316406 -41.95500183105469,53.409000396728516 C-53.119998931884766,54.400001525878906 -59.45600128173828,48.60599899291992 -65.74500274658203,39.768001556396484 C-73.04199981689453,29.513999938964844 -69.79000091552734,15.472000122070312 -69.49600219726562,7.156000137329102z"></path><path stroke-linecap="butt" stroke-linejoin="miter" fill-opacity="0" stroke-miterlimit="10" stroke="rgb(17,161,206)" stroke-opacity="1" stroke-width="14.434" d=" M-69.49600219726562,7.156000137329102 C-69.27200317382812,0.8209999799728394 -71.79100036621094,-5.343999862670898 -76.53900146484375,-9.711999893188477 C-83.77200317382812,-16.367000579833984 -101.26499938964844,-43.027000427246094 -99.822998046875,-53.143001556396484 C-97.51499938964844,-69.3290023803711 -93.16799926757812,-53.13399887084961 -66.18299865722656,-46.856998443603516 C-55.45199966430664,-44.361000061035156 -35.53799819946289,-36.104000091552734 -5.01200008392334,-41.34299850463867 C23.233999252319336,-46.19200134277344 35.43199920654297,-44.66899871826172 53.64799880981445,-52.29100036621094 C70.7979965209961,-59.465999603271484 82.40299987792969,-50.15399932861328 75.67400360107422,-42.417999267578125 C65.38800048828125,-30.591999053955078 64.36399841308594,-25.98900032043457 16.34000015258789,-17.058000564575195 C-16.075000762939453,-11.031000137329102 -24.033000946044922,-12.770999908447266 -23.05699920654297,10.187000274658203 C-22.746999740600586,17.458999633789062 -12.553999900817871,44.08599853515625 -31.013999938964844,50.78300094604492 C-35.13600158691406,52.27799987792969 -38.744998931884766,53.124000549316406 -41.95500183105469,53.409000396728516 C-53.119998931884766,54.400001525878906 -59.45600128173828,48.60599899291992 -65.74500274658203,39.768001556396484 C-73.04199981689453,29.513999938964844 -69.79000091552734,15.472000122070312 -69.49600219726562,7.156000137329102z"></path></g><g opacity="1" transform="matrix(1,0,0,1,0,0)"><path fill="rgb(255,255,255)" fill-opacity="1" d=" M406.35699462890625,532.447998046875 C388.3210144042969,534.698974609375 384.2080078125,534.1909790039062 379.97100830078125,537.9099731445312 C374.135009765625,543.031982421875 390.4169921875,548.9580078125 410.4169921875,545.3590087890625 C432.489990234375,541.385986328125 419.1839904785156,530.8469848632812 406.35699462890625,532.447998046875z"></path></g></g><g style="display: block;" transform="matrix(0.9800000190734863,0,0,0.9017665982246399,-24.420255661010742,60.88601303100586)" opacity="0.01"><g opacity="1" transform="matrix(1,0,0,1,862.5960083007812,372.0169982910156)"><path fill="rgb(90,198,212)" fill-opacity="1" d=" M-40.99800109863281,43.507999420166016 C-33.189998626708984,44.59600067138672 -21.499000549316406,44.78099822998047 -8.791000366210938,43.084999084472656 C3.9170000553131104,41.388999938964844 10.489999771118164,40.117000579833984 10.489999771118164,40.117000579833984 C10.489999771118164,40.117000579833984 32.400001525878906,49.65599822998047 45.98400115966797,42.87200164794922 C59.56800079345703,36.0890007019043 51.46200180053711,10.86400032043457 52.7760009765625,-0.5830000042915344 C54.090999603271484,-12.029999732971191 54.749000549316406,-23.47800064086914 55.625,-34.28900146484375 C56.347999572753906,-43.20600128173828 55.933998107910156,-49.65700149536133 46.20500183105469,-49.551998138427734 C39.29199981689453,-49.47800064086914 32.30799865722656,-17.635000228881836 17.628000259399414,-0.8880000114440918 C5.801000118255615,12.604000091552734 -0.4259999990463257,18.007999420166016 -26.849000930786133,23.724000930786133 C-48.65800094604492,28.44300079345703 -53.553001403808594,30.989999771118164 -54.74800109863281,33.409000396728516 C-59.56800079345703,43.15999984741211 -45.49100112915039,42.88199996948242 -40.99800109863281,43.507999420166016z"></path><path stroke-linecap="butt" stroke-linejoin="miter" fill-opacity="0" stroke-miterlimit="10" stroke="rgb(17,161,206)" stroke-opacity="1" stroke-width="14.619" d=" M-40.99800109863281,43.507999420166016 C-33.189998626708984,44.59600067138672 -21.499000549316406,44.78099822998047 -8.791000366210938,43.084999084472656 C3.9170000553131104,41.388999938964844 10.489999771118164,40.117000579833984 10.489999771118164,40.117000579833984 C10.489999771118164,40.117000579833984 32.400001525878906,49.65599822998047 45.98400115966797,42.87200164794922 C59.56800079345703,36.0890007019043 51.46200180053711,10.86400032043457 52.7760009765625,-0.5830000042915344 C54.090999603271484,-12.029999732971191 54.749000549316406,-23.47800064086914 55.625,-34.28900146484375 C56.347999572753906,-43.20600128173828 55.933998107910156,-49.65700149536133 46.20500183105469,-49.551998138427734 C39.29199981689453,-49.47800064086914 32.30799865722656,-17.635000228881836 17.628000259399414,-0.8880000114440918 C5.801000118255615,12.604000091552734 -0.4259999990463257,18.007999420166016 -26.849000930786133,23.724000930786133 C-48.65800094604492,28.44300079345703 -53.553001403808594,30.989999771118164 -54.74800109863281,33.409000396728516 C-59.56800079345703,43.15999984741211 -45.49100112915039,42.88199996948242 -40.99800109863281,43.507999420166016z"></path></g><g opacity="1" transform="matrix(1,0,0,1,882.8790283203125,382.1000061035156)"><path fill="rgb(255,255,255)" fill-opacity="1" d=" M-5.263999938964844,-6.316999912261963 C0.12300000339746475,-10.807000160217285 6.8470001220703125,-11.618000030517578 9.755000114440918,-8.128999710083008 C12.661999702453613,-4.640999794006348 10.652000427246094,1.8270000219345093 5.263999938964844,6.316999912261963 C-0.12300000339746475,10.807000160217285 -6.8470001220703125,11.618000030517578 -9.755000114440918,8.128999710083008 C-12.661999702453613,4.640999794006348 -10.652000427246094,-1.8270000219345093 -5.263999938964844,-6.316999912261963z"></path></g></g><g style="display: block;" transform="matrix(0.8797264099121094,0,0,0.8949221968650818,516.13427734375,541.0950317382812)" opacity="1"><g opacity="0" transform="matrix(1,0,0,1,-242.2030029296875,143.281005859375)"><path fill="rgb(205,255,251)" fill-opacity="1" d=" M102,-145 C102,-145 70.2030029296875,-140.281005859375 48,-140 C33.1349983215332,-139.81199645996094 -9,-157 -9,-157 C-9,-157 -7.796999931335449,-140.281005859375 5,-126 C27.96299934387207,-100.3740005493164 14,-97 14,-97 C14,-97 -48.797000885009766,-54.28099822998047 5,-47 C18.87299919128418,-45.12200164794922 45,-79 45,-79 C45,-79 58.77399826049805,-90.18000030517578 84,-108 C121.2030029296875,-134.281005859375 102,-145 102,-145z"></path></g></g><g style="display: block;" transform="matrix(-0.6518768668174744,0.3586967885494232,0.41197633743286133,0.6339375376701355,716.612548828125,475.8833312988281)" opacity="1"><g opacity="0" transform="matrix(1,0,0,1,-247.25399780273438,146.04901123046875)"><path fill="rgb(205,255,251)" fill-opacity="1" d=" M102,-145 C102,-145 70.2030029296875,-140.281005859375 48,-140 C33.1349983215332,-139.81199645996094 -9,-157 -9,-157 C-9,-157 -7.796999931335449,-140.281005859375 5,-126 C27.96299934387207,-100.3740005493164 14,-97 14,-97 C14,-97 -48.797000885009766,-54.28099822998047 5,-47 C18.87299919128418,-45.12200164794922 45,-79 45,-79 C45,-79 58.77399826049805,-90.18000030517578 84,-108 C121.2030029296875,-134.281005859375 102,-145 102,-145z"></path></g></g><g style="display: none;"><g><path></path><path stroke-linecap="butt" stroke-linejoin="miter" fill-opacity="0" stroke-miterlimit="4"></path></g></g></g></g></svg>