<svg xmlns="http://www.w3.org/2000/svg" xmlns:xlink="http://www.w3.org/1999/xlink" viewBox="0 0 512 512" width="512" height="512" style="width: 100%; height: 100%; transform: translate3d(0,0,0); content-visibility: visible;" preserveAspectRatio="xMidYMid meet"><defs><clipPath id="__lottie_element_2"><rect width="512" height="512" x="0" y="0"></rect></clipPath><clipPath id="__lottie_element_5"><path d="M0,0 L1024,0 L1024,1024 L0,1024z"></path></clipPath><radialGradient id="__lottie_element_32" spreadMethod="pad" gradientUnits="userSpaceOnUse" cx="-11.050999641418457" cy="-27.326000213623047" r="150.52207867390345" fx="-11.050999641418457" fy="-27.326000213623047"><stop offset="29%" stop-color="rgb(255,218,191)"></stop><stop offset="65%" stop-color="rgb(248,202,174)"></stop><stop offset="100%" stop-color="rgb(240,186,158)"></stop></radialGradient></defs><g clip-path="url(#__lottie_element_2)"><g clip-path="url(#__lottie_element_5)" style="display: block;" transform="matrix(0.9125499725341797,0,0,0.9125499725341797,-311.08258056640625,-222.0245819091797)" opacity="1"><g style="display: block;" transform="matrix(1.601596474647522,-0.146235853433609,0.146235853433609,1.601596474647522,-1475.7149658203125,-406.297607421875)" opacity="1"><g opacity="1" transform="matrix(1,0,0,1,1258.31396484375,688.6409912109375)"></g><g opacity="1" transform="matrix(1,0,0,1,1258.31396484375,688.6409912109375)"><path fill="rgb(239,155,113)" fill-opacity="1" d=" M-61.17499923706055,-120.3949966430664 C-94.76200103759766,-102.64600372314453 -115.5009994506836,-71.52400207519531 -125.60800170898438,-27.46299934387207 C-135.71400451660156,16.599000930786133 -124.30000305175781,95.08599853515625 -58.64799880981445,130.6479949951172 C-11.543000221252441,156.16299438476562 96.79100036621094,154.6009979248047 131.6529998779297,71.4729995727539 C163.89300537109375,-5.401000022888184 141.96200561523438,-66.09500122070312 98.66999816894531,-101.61499786376953 C33.39899826049805,-155.16799926757812 -41.05799865722656,-131.0260009765625 -61.17499923706055,-120.3949966430664z"></path><path stroke-linecap="butt" stroke-linejoin="miter" fill-opacity="0" stroke-miterlimit="10" stroke="rgb(166,86,42)" stroke-opacity="1" stroke-width="11" d=" M-61.17499923706055,-120.3949966430664 C-94.76200103759766,-102.64600372314453 -115.5009994506836,-71.52400207519531 -125.60800170898438,-27.46299934387207 C-135.71400451660156,16.599000930786133 -124.30000305175781,95.08599853515625 -58.64799880981445,130.6479949951172 C-11.543000221252441,156.16299438476562 96.79100036621094,154.6009979248047 131.6529998779297,71.4729995727539 C163.89300537109375,-5.401000022888184 141.96200561523438,-66.09500122070312 98.66999816894531,-101.61499786376953 C33.39899826049805,-155.16799926757812 -41.05799865722656,-131.0260009765625 -61.17499923706055,-120.3949966430664z"></path></g><g opacity="1" transform="matrix(1,0,0,1,1234.970947265625,679.0040283203125)"><path fill="url(#__lottie_element_32)" fill-opacity="1" d=" M-43.189998626708984,-86.33100128173828 C-73.37799835205078,-68.26200103759766 -87.95600128173828,-43.38999938964844 -96.23999786376953,-4.177000045776367 C-104.5250015258789,35.0359992980957 -91.3740005493164,106.2750015258789 -34.909000396728516,134.7030029296875 C17.445999145507812,161.06199645996094 101.80000305175781,151.91600036621094 128.25,76.99299621582031 C160.95399475097656,-15.645999908447266 123.9209976196289,-55.61399841308594 94.9260025024414,-77.57499694824219 C41.178001403808594,-118.28600311279297 -26.753000259399414,-96.16899871826172 -43.189998626708984,-86.33100128173828z"></path></g><g opacity="0.08" transform="matrix(1,0,0,1,0,0)"><path fill="rgb(253,236,248)" fill-opacity="0.93" d=" M1219.9940185546875,562.3720092773438 C1219.9940185546875,562.3720092773438 1178.676025390625,566.3610229492188 1153.199951171875,601.7830200195312 C1127.7239990234375,637.2050170898438 1116.64404296875,677.5059814453125 1134.5,729.5289916992188 C1145.79296875,762.4290161132812 1152.553955078125,763.7639770507812 1152.553955078125,763.7639770507812 C1152.553955078125,763.7639770507812 1146.509033203125,736.06298828125 1144.175048828125,711.052978515625 C1142.01904296875,687.9539794921875 1150.2060546875,642.97802734375 1159.8809814453125,624.5020141601562 C1188.904052734375,569.0759887695312 1219.9940185546875,562.3720092773438 1219.9940185546875,562.3720092773438z"></path><path stroke-linecap="butt" stroke-linejoin="miter" fill-opacity="0" stroke-miterlimit="4" stroke="rgb(61,32,50)" stroke-opacity="1" stroke-width="11" d=" M1219.9940185546875,562.3720092773438 C1219.9940185546875,562.3720092773438 1178.676025390625,566.3610229492188 1153.199951171875,601.7830200195312 C1127.7239990234375,637.2050170898438 1116.64404296875,677.5059814453125 1134.5,729.5289916992188 C1145.79296875,762.4290161132812 1152.553955078125,763.7639770507812 1152.553955078125,763.7639770507812 C1152.553955078125,763.7639770507812 1146.509033203125,736.06298828125 1144.175048828125,711.052978515625 C1142.01904296875,687.9539794921875 1150.2060546875,642.97802734375 1159.8809814453125,624.5020141601562 C1188.904052734375,569.0759887695312 1219.9940185546875,562.3720092773438 1219.9940185546875,562.3720092773438z"></path></g></g><g style="display: block;" transform="matrix(2.026155471801758,-0.03186476603150368,0.03186476603150368,2.026155471801758,-1838.282470703125,-863.281494140625)" opacity="1"><g opacity="1" transform="matrix(1,0,0,1,1203.3590087890625,777.7490234375)"><path stroke-linecap="round" stroke-linejoin="round" fill-opacity="0" stroke="rgb(242,153,143)" stroke-opacity="1" stroke-width="8" d=" M-13.092000007629395,1.9129999876022339 C-14.031999588012695,1.5789999961853027 -8.744000434875488,-2.2079999446868896 -0.014999999664723873,-0.6299999952316284 C5.171000003814697,0.30799999833106995 14.031999588012695,2.2079999446868896 14.031999588012695,2.2079999446868896"></path></g><g opacity="1" transform="matrix(1,0,0,1,1200.54296875,774.2059936523438)"><path stroke-linecap="round" stroke-linejoin="round" fill-opacity="0" stroke="rgb(167,86,42)" stroke-opacity="1" stroke-width="9" d=" M-13.092000007629395,1.9129999876022339 C-14.031999588012695,1.5789999961853027 -8.744000434875488,-2.2079999446868896 -0.014999999664723873,-0.6299999952316284 C5.171000003814697,0.30799999833106995 14.031999588012695,2.2079999446868896 14.031999588012695,2.2079999446868896"></path></g><g opacity="1" transform="matrix(1,0,0,1,0,0)"><path fill="rgb(84,36,36)" fill-opacity="0.93" d=" M1200.280029296875,755.4860229492188 C1188.0699462890625,753.5050048828125 1179.25,759.4719848632812 1179.25,759.4719848632812 C1179.25,759.4719848632812 1167.7760009765625,763.72998046875 1171.365966796875,765.4940185546875 C1174.8170166015625,767.1900024414062 1177.6009521484375,758.0579833984375 1193.0059814453125,758.4249877929688 C1215.677978515625,758.9650268554688 1220.35400390625,768.8839721679688 1221.9229736328125,766.8460083007812 C1224.123046875,763.989013671875 1212.489990234375,757.4669799804688 1200.280029296875,755.4860229492188z"></path><path stroke-linecap="butt" stroke-linejoin="miter" fill-opacity="0" stroke-miterlimit="4" stroke="rgb(84,33,40)" stroke-opacity="1" stroke-width="7" d=" M1200.280029296875,755.4860229492188 C1188.0699462890625,753.5050048828125 1179.25,759.4719848632812 1179.25,759.4719848632812 C1179.25,759.4719848632812 1167.7760009765625,763.72998046875 1171.365966796875,765.4940185546875 C1174.8170166015625,767.1900024414062 1177.6009521484375,758.0579833984375 1193.0059814453125,758.4249877929688 C1215.677978515625,758.9650268554688 1220.35400390625,768.8839721679688 1221.9229736328125,766.8460083007812 C1224.123046875,763.989013671875 1212.489990234375,757.4669799804688 1200.280029296875,755.4860229492188z"></path></g></g><g style="display: block;" transform="matrix(2.026155471801758,-0.03186476603150368,0.03186476603150368,2.026155471801758,-1838.282470703125,-863.281494140625)" opacity="1"><g opacity="0.8" transform="matrix(1,0,0,1,0,0)"><path fill="rgb(188,137,155)" fill-opacity="1" d=" M1150.47998046875,695.844970703125 C1150.47998046875,695.844970703125 1129.4639892578125,698.5609741210938 1128.7230224609375,705.0780029296875 C1126.866943359375,721.4099731445312 1138.2939453125,746.427001953125 1153.02001953125,743.4249877929688 C1178.6009521484375,738.208984375 1175.5579833984375,710.9530029296875 1176.491943359375,705.9539794921875 C1177.426025390625,700.9550170898438 1150.47998046875,695.844970703125 1150.47998046875,695.844970703125z"></path><path stroke-linecap="butt" stroke-linejoin="miter" fill-opacity="0" stroke-miterlimit="4" stroke="rgb(170,114,149)" stroke-opacity="1" stroke-width="6" d=" M1150.47998046875,695.844970703125 C1150.47998046875,695.844970703125 1129.4639892578125,698.5609741210938 1128.7230224609375,705.0780029296875 C1126.866943359375,721.4099731445312 1138.2939453125,746.427001953125 1153.02001953125,743.4249877929688 C1178.6009521484375,738.208984375 1175.5579833984375,710.9530029296875 1176.491943359375,705.9539794921875 C1177.426025390625,700.9550170898438 1150.47998046875,695.844970703125 1150.47998046875,695.844970703125z"></path></g><g opacity="0.71267" transform="matrix(1,0,0,1,0,0)"><path fill="rgb(188,137,155)" fill-opacity="1" d=" M1270,684.1010131835938 C1250.5,683.1010131835938 1220.60498046875,690.5599975585938 1211.5,708.6010131835938 C1205.552978515625,720.385009765625 1221,740.6010131835938 1237,745.6010131835938 C1253,750.6010131835938 1274.5,747.1010131835938 1281,734.1010131835938 C1288.7099609375,718.6799926757812 1289.5,685.1010131835938 1270,684.1010131835938z"></path><path stroke-linecap="butt" stroke-linejoin="miter" fill-opacity="0" stroke-miterlimit="4" stroke="rgb(170,114,149)" stroke-opacity="1" stroke-width="6" d=" M1270,684.1010131835938 C1250.5,683.1010131835938 1220.60498046875,690.5599975585938 1211.5,708.6010131835938 C1205.552978515625,720.385009765625 1221,740.6010131835938 1237,745.6010131835938 C1253,750.6010131835938 1274.5,747.1010131835938 1281,734.1010131835938 C1288.7099609375,718.6799926757812 1289.5,685.1010131835938 1270,684.1010131835938z"></path></g><g opacity="1" transform="matrix(1,0,0,1,0,0)"><path fill="rgb(219,206,224)" fill-opacity="1" d="M0 0"></path><path stroke-linecap="butt" stroke-linejoin="miter" fill-opacity="0" stroke-miterlimit="4" stroke="rgb(82,73,96)" stroke-opacity="1" stroke-width="6" d="M0 0"></path></g><g opacity="1" transform="matrix(1,0,0,1,0,0)"><path fill="rgb(255,0,0)" fill-opacity="1" d="M0 0"></path></g><g opacity="1" transform="matrix(1,0,0,1,1155.1700439453125,681.260986328125)"><path fill="rgb(239,155,113)" fill-opacity="1" d=" M-28.01799964904785,-7.942999839782715 C-28.01799964904785,-7.942999839782715 -2.2269999980926514,-3.947000026702881 5.401000022888184,-2.312999963760376 C13.029000282287598,-0.6779999732971191 15.753000259399414,0.9570000171661377 20.656999588012695,-3.947000026702881 C25.559999465942383,-8.85099983215332 30.464000701904297,-9.758999824523926 30.464000701904297,-9.758999824523926 C30.464000701904297,-9.758999824523926 24.670000076293945,9.758000373840332 21.02899932861328,9.715999603271484 C17.38800048828125,9.675000190734863 4.310999870300293,4.22599983215332 1.0420000553131104,3.680999994277954 C-2.2269999980926514,3.135999917984009 -29.930999755859375,4.921000003814697 -30.197999954223633,0.7749999761581421 C-30.464000701904297,-3.371000051498413 -28.01799964904785,-7.942999839782715 -28.01799964904785,-7.942999839782715z"></path></g><g opacity="1" transform="matrix(1,0,0,1,1249.385009765625,680.9000244140625)"><path fill="rgb(239,155,113)" fill-opacity="1" d=" M-48.49399948120117,-13.394000053405762 C-48.49399948120117,-13.394000053405762 -42.5,1.8630000352859497 -35.96200180053711,1.8630000352859497 C-32.94300079345703,1.8630000352859497 -19.242000579833984,-1.7359999418258667 -4.775000095367432,-5.611999988555908 C12.097000122070312,-10.131999969482422 30.01099967956543,-15.029000282287598 33.23699951171875,-15.029000282287598 C34.37799835205078,-15.029000282287598 35.637001037597656,-14.930000305175781 36.92900085449219,-14.770000457763672 C38.30699920654297,-14.598999977111816 39.72200012207031,-14.359000205993652 41.06800079345703,-14.095000267028809 C42.13399887084961,-13.88599967956543 43.15599822998047,-13.661999702453613 44.08399963378906,-13.444999694824219 C45.972999572753906,-13.003999710083008 47.46799850463867,-12.595000267028809 48.12699890136719,-12.409000396728516 C48.3650016784668,-12.342000007629395 48.49399948120117,-12.303999900817871 48.49399948120117,-12.303999900817871 C48.49399948120117,-12.303999900817871 -3.2690000534057617,-0.31700000166893005 -3.2690000534057617,-0.31700000166893005 C-3.2690000534057617,-0.31700000166893005 -40.17599868774414,15.027999877929688 -42.70100021362305,10.625 C-45.224998474121094,6.2220001220703125 -48.49399948120117,-13.394000053405762 -48.49399948120117,-13.394000053405762z"></path></g><g opacity="1" transform="matrix(1,0,0,1,1245.5699462890625,706.1229858398438)"><path fill="rgb(219,206,224)" fill-opacity="1" d=" M-34.034000396728516,-11.39799976348877 C-18.30299949645996,-17.683000564575195 24.909000396728516,-28.35300064086914 32.08399963378906,-27.68600082397461 C36.01499938964844,-27.31999969482422 38.61600112915039,-14.093999862670898 36.340999603271484,-1.5609999895095825 C34.75,7.202000141143799 30.868999481201172,13.83899974822998 25.229000091552734,19.229000091552734 C16.43899917602539,27.631000518798828 1.4780000448226929,29.35300064086914 -8.718999862670898,27.547000885009766 C-16.277999877929688,26.20800018310547 -22.97800064086914,22.861000061035156 -27.910999298095703,18.365999221801758 C-38.6150016784668,8.612000465393066 -37.986000061035156,-9.819000244140625 -34.034000396728516,-11.39799976348877z"></path><path stroke-linecap="butt" stroke-linejoin="miter" fill-opacity="0" stroke-miterlimit="10" stroke="rgb(82,73,96)" stroke-opacity="1" stroke-width="8" d=" M-34.034000396728516,-11.39799976348877 C-18.30299949645996,-17.683000564575195 24.909000396728516,-28.35300064086914 32.08399963378906,-27.68600082397461 C36.01499938964844,-27.31999969482422 38.61600112915039,-14.093999862670898 36.340999603271484,-1.5609999895095825 C34.75,7.202000141143799 30.868999481201172,13.83899974822998 25.229000091552734,19.229000091552734 C16.43899917602539,27.631000518798828 1.4780000448226929,29.35300064086914 -8.718999862670898,27.547000885009766 C-16.277999877929688,26.20800018310547 -22.97800064086914,22.861000061035156 -27.910999298095703,18.365999221801758 C-38.6150016784668,8.612000465393066 -37.986000061035156,-9.819000244140625 -34.034000396728516,-11.39799976348877z"></path></g><g opacity="1" transform="matrix(1,0,0,1,1240.927001953125,703.9600219726562)"><path fill="rgb(255,255,255)" fill-opacity="1" d=" M-25.231000900268555,-4.552999973297119 C-12.895000457763672,-10.220999717712402 18.63599967956543,-16.163000106811523 22.638999938964844,-15.274999618530273 C25.700000762939453,-14.595999717712402 30.76099967956543,-10.97700023651123 29.05900001525879,0.5329999923706055 C27.868999481201172,8.579999923706055 24.410999298095703,11.934000015258789 20.01099967956543,16.85099983215332 C13.152999877929688,24.516000747680664 1.3919999599456787,25.993000030517578 -6.645999908447266,24.260000228881836 C-12.604000091552734,22.974000930786133 -17.902000427246094,19.849000930786133 -21.81599998474121,15.680999755859375 C-30.309999465942383,6.635000228881836 -28.329999923706055,-3.128999948501587 -25.231000900268555,-4.552999973297119z"></path></g><g opacity="1" transform="matrix(1,0,0,1,1151.2740478515625,707.9130249023438)"><path fill="rgb(219,206,224)" fill-opacity="1" d=" M-26.125,-14.96399974822998 C-25.490999221801758,-19.000999450683594 -22.444000244140625,-23.197999954223633 -18.22599983215332,-22.63800048828125 C-6.730000019073486,-21.113000869750977 17.327999114990234,-17.927000045776367 21.465999603271484,-16.792999267578125 C27.166000366210938,-15.232000350952148 27.746999740600586,4.381999969482422 17.141000747680664,14.718000411987305 C8.753999710083008,22.891000747680664 -8.336000442504883,23.197999954223633 -16.82900047302246,16.579999923706055 C-25.913000106811523,9.503000259399414 -27.746000289916992,-4.644000053405762 -26.125,-14.96399974822998z"></path><path stroke-linecap="butt" stroke-linejoin="miter" fill-opacity="0" stroke-miterlimit="10" stroke="rgb(82,73,96)" stroke-opacity="1" stroke-width="8" d=" M-26.125,-14.96399974822998 C-25.490999221801758,-19.000999450683594 -22.444000244140625,-23.197999954223633 -18.22599983215332,-22.63800048828125 C-6.730000019073486,-21.113000869750977 17.327999114990234,-17.927000045776367 21.465999603271484,-16.792999267578125 C27.166000366210938,-15.232000350952148 27.746999740600586,4.381999969482422 17.141000747680664,14.718000411987305 C8.753999710083008,22.891000747680664 -8.336000442504883,23.197999954223633 -16.82900047302246,16.579999923706055 C-25.913000106811523,9.503000259399414 -27.746000289916992,-4.644000053405762 -26.125,-14.96399974822998z"></path></g><g opacity="1" transform="matrix(1,0,0,1,1148.8509521484375,705.9099731445312)"><path fill="rgb(255,255,255)" fill-opacity="1" d=" M-21.10300064086914,-13.135000228881836 C-20.60300064086914,-16.66900062561035 -18.159000396728516,-20.334999084472656 -14.756999969482422,-19.832000732421875 C-5.486000061035156,-18.46299934387207 13.916000366210938,-15.604000091552734 17.2549991607666,-14.598999977111816 C21.854999542236328,-13.21500015258789 22.381000518798828,3.9630000591278076 13.861000061035156,12.982000350952148 C7.124000072479248,20.114999771118164 -6.6519999504089355,20.334999084472656 -13.517999649047852,14.515000343322754 C-20.861000061035156,8.291999816894531 -22.3799991607666,-4.103000164031982 -21.10300064086914,-13.135000228881836z"></path></g><g opacity="1" transform="matrix(1.309999942779541,0,0,1.309999942779541,-352.5648193359375,-218.8360595703125)"><g opacity="1" transform="matrix(1,0,0,1,0,0)"><g opacity="1" transform="matrix(1,0,0,1,1137.4139404296875,705.8350219726562)"><path fill="rgb(31,28,44)" fill-opacity="1" d=" M-4.085999965667725,-6.415999889373779 C-2.0769999027252197,-7.357999801635742 2.805999994277954,-7.876999855041504 5.3520002365112305,-3.440000057220459 C7.703000068664551,0.656000018119812 4.573999881744385,6.5879998207092285 0.828000009059906,7.140999794006348 C-4.166999816894531,7.876999855041504 -6.5879998207092285,4.065000057220459 -7.006999969482422,1.496999979019165 C-7.703000068664551,-2.7669999599456787 -5.006999969482422,-5.984000205993652 -4.085999965667725,-6.415999889373779z"></path></g><g opacity="1" transform="matrix(1,0,0,1,1141.0880126953125,702.6820068359375)"><path fill="rgb(255,255,255)" fill-opacity="1" d=" M-2.128000020980835,-3.4739999771118164 C-1.0720000267028809,-3.990999937057495 1.4900000095367432,-4.2870001792907715 2.812999963760376,-1.8839999437332153 C4.034999847412109,0.33399999141693115 2.378000020980835,3.565000057220459 0.41200000047683716,3.875 C-2.2100000381469727,4.288000106811523 -3.4690001010894775,2.2249999046325684 -3.681999921798706,0.8309999704360962 C-4.035999774932861,-1.4819999933242798 -2.611999988555908,-3.236999988555908 -2.128000020980835,-3.4739999771118164z"></path></g></g></g><g opacity="1" transform="matrix(1,0,0,1,1152.64794921875,686.7420043945312)"><path stroke-linecap="round" stroke-linejoin="round" fill-opacity="0" stroke="rgb(84,36,36)" stroke-opacity="1" stroke-width="8" d=" M-29.865999221801758,-5.298999786376953 C-29.865999221801758,-5.298999786376953 -3.252000093460083,-2.7880001068115234 8.73799991607666,0.3310000002384186 C20.726999282836914,3.450000047683716 19.757999420166016,5.298999786376953 23.549999237060547,4.236999988555908 C27.343000411987305,3.174999952316284 29.865999221801758,-3.260999917984009 29.865999221801758,-3.260999917984009"></path></g><g opacity="1" transform="matrix(1.190000057220459,0,0,1.190000057220459,-233.6939697265625,-135.2557373046875)"><g opacity="1" transform="matrix(1,0,0,1,0,0)"><g opacity="1" transform="matrix(1,0,0,1,1223.0760498046875,709.7750244140625)"><path fill="rgb(31,28,44)" fill-opacity="1" d=" M-5.25600004196167,-7.114999771118164 C-2.755000114440918,-8.10099983215332 3.365999937057495,-8.557999610900879 6.666999816894531,-3.634000062942505 C9.71500015258789,0.9129999876022339 5.922999858856201,7.3460001945495605 1.2309999465942383,7.864999771118164 C-5.0269999504089355,8.557000160217285 -8.154999732971191,4.320000171661377 -8.741000175476074,1.49399995803833 C-9.71500015258789,-3.197999954223633 -6.4019999504089355,-6.663000106811523 -5.25600004196167,-7.114999771118164z"></path></g><g opacity="1" transform="matrix(1,0,0,1,1228.324951171875,705.8809814453125)"><path fill="rgb(255,255,255)" fill-opacity="1" d=" M-2.325000047683716,-3.2690000534057617 C-1.2100000381469727,-3.7290000915527344 1.5160000324249268,-3.9539999961853027 2.9739999771118164,-1.6920000314712524 C4.320000171661377,0.3970000147819519 2.617000102996826,3.369999885559082 0.5270000100135803,3.619999885559082 C-2.259999990463257,3.9539999961853027 -3.6419999599456787,2.007999897003174 -3.8959999084472656,0.7070000171661377 C-4.318999767303467,-1.4529999494552612 -2.8359999656677246,-3.058000087738037 -2.325000047683716,-3.2690000534057617z"></path></g></g></g><g opacity="1" transform="matrix(1,0,0,1,1244.9949951171875,685.6110229492188)"><path stroke-linecap="round" stroke-linejoin="round" fill-opacity="0" stroke="rgb(84,36,36)" stroke-opacity="1" stroke-width="8" d=" M-43.034000396728516,-4.394999980926514 C-43.034000396728516,-4.394999980926514 -43.257999420166016,6.7230000495910645 -36.67599868774414,8.095000267028809 C-25.36199951171875,10.45300006866455 2.3910000324249268,-2.1700000762939453 21.79599952697754,-6.269000053405762 C41.20100021362305,-10.366999626159668 43.257999420166016,-10.45300006866455 43.257999420166016,-10.45300006866455"></path></g></g><g style="display: block;" transform="matrix(0.75,0,0,0.8698800206184387,-185.875,-106.65045166015625)" opacity="1"><g opacity="1" transform="matrix(1,0,0,1,1111.16796875,987.802978515625)"><path fill="rgb(26,66,81)" fill-opacity="1" d=" M-158.0330047607422,-10.305999755859375 C-158.0330047607422,-10.305999755859375 35.97100067138672,-14.798999786376953 35.97100067138672,-14.798999786376953 C35.97100067138672,-14.798999786376953 79.51399993896484,-23.44700050354004 79.51399993896484,-23.44700050354004 C79.51399993896484,-23.44700050354004 80.03299713134766,-4.864999771118164 80.03299713134766,-4.864999771118164 C80.03299713134766,-4.864999771118164 56.52000045776367,17.3799991607666 56.52000045776367,17.3799991607666 C56.52000045776367,17.3799991607666 48.4370002746582,24.05699920654297 43.37799835205078,25.242000579833984 C34.70899963378906,27.273000717163086 17.334999084472656,26.476999282836914 17.334999084472656,26.476999282836914 C17.334999084472656,26.476999282836914 -222.6790008544922,25.006000518798828 -222.6790008544922,25.006000518798828 C-222.6790008544922,25.006000518798828 -158.0330047607422,-10.305999755859375 -158.0330047607422,-10.305999755859375z"></path><path stroke-linecap="round" stroke-linejoin="round" fill-opacity="0" stroke="rgb(26,66,81)" stroke-opacity="1" stroke-width="6.332" d=" M-158.0330047607422,-10.305999755859375 C-158.0330047607422,-10.305999755859375 35.97100067138672,-14.798999786376953 35.97100067138672,-14.798999786376953 C35.97100067138672,-14.798999786376953 79.51399993896484,-23.44700050354004 79.51399993896484,-23.44700050354004 C79.51399993896484,-23.44700050354004 80.03299713134766,-4.864999771118164 80.03299713134766,-4.864999771118164 C80.03299713134766,-4.864999771118164 56.52000045776367,17.3799991607666 56.52000045776367,17.3799991607666 C56.52000045776367,17.3799991607666 48.4370002746582,24.05699920654297 43.37799835205078,25.242000579833984 C34.70899963378906,27.273000717163086 17.334999084472656,26.476999282836914 17.334999084472656,26.476999282836914 C17.334999084472656,26.476999282836914 -222.6790008544922,25.006000518798828 -222.6790008544922,25.006000518798828 C-222.6790008544922,25.006000518798828 -158.0330047607422,-10.305999755859375 -158.0330047607422,-10.305999755859375z"></path></g><g opacity="1" transform="matrix(1,0,0,1,1098.364013671875,986.7130126953125)"><path fill="rgb(149,171,174)" fill-opacity="1" d=" M87.1259994506836,-27.785999298095703 C92.78900146484375,-21.684999465942383 92.3270034790039,-17.648000717163086 88.53299713134766,-14.717000007629395 C85.4000015258789,-12.295999526977539 75.15599822998047,-0.10400000214576721 71.9020004272461,2.5959999561309814 C66.43599700927734,7.13100004196167 64.13600158691406,9.60200023651123 56.54899978637695,12.383000373840332 C49.54100036621094,14.951000213623047 36.15800094604492,14.777999877929688 36.15800094604492,14.777999877929688 C36.15800094604492,14.777999877929688 -197.8820037841797,10.305999755859375 -197.8820037841797,10.305999755859375 C-197.8820037841797,10.305999755859375 -138.0679931640625,-33.750999450683594 -138.0679931640625,-33.750999450683594 C-138.0679931640625,-33.750999450683594 -14.767999649047852,-33.138999938964844 58.81700134277344,-30.381999969482422 C66.27300262451172,-30.10300064086914 84.13700103759766,-31.006999969482422 87.1259994506836,-27.785999298095703z"></path><path stroke-linecap="round" stroke-linejoin="round" fill-opacity="0" stroke="rgb(26,66,81)" stroke-opacity="1" stroke-width="12" d=" M87.1259994506836,-27.785999298095703 C92.78900146484375,-21.684999465942383 92.3270034790039,-17.648000717163086 88.53299713134766,-14.717000007629395 C85.4000015258789,-12.295999526977539 75.15599822998047,-0.10400000214576721 71.9020004272461,2.5959999561309814 C66.43599700927734,7.13100004196167 64.13600158691406,9.60200023651123 56.54899978637695,12.383000373840332 C49.54100036621094,14.951000213623047 36.15800094604492,14.777999877929688 36.15800094604492,14.777999877929688 C36.15800094604492,14.777999877929688 -197.8820037841797,10.305999755859375 -197.8820037841797,10.305999755859375 C-197.8820037841797,10.305999755859375 -138.0679931640625,-33.750999450683594 -138.0679931640625,-33.750999450683594 C-138.0679931640625,-33.750999450683594 -14.767999649047852,-33.138999938964844 58.81700134277344,-30.381999969482422 C66.27300262451172,-30.10300064086914 84.13700103759766,-31.006999969482422 87.1259994506836,-27.785999298095703z"></path></g><g opacity="1" transform="matrix(1,0,0,1,0,0)"><path fill="rgb(13,34,42)" fill-opacity="1" d=" M1000.5,968.1220092773438 C1000.5,968.1220092773438 974.5,987.0900268554688 974.5,987.0900268554688 C974.5,987.0900268554688 1121.5009765625,988.7080078125 1121.5009765625,988.7080078125 C1121.5009765625,988.7080078125 1130.8330078125,987.0900268554688 1130.8330078125,987.0900268554688 C1130.8330078125,987.0900268554688 1135.279052734375,984.8300170898438 1135.279052734375,984.8300170898438 C1135.279052734375,984.8300170898438 1145.5439453125,976.0189819335938 1145.5439453125,976.0189819335938 C1145.5439453125,976.0189819335938 1147.1669921875,971.5709838867188 1147.1669921875,971.5709838867188 C1147.1669921875,971.5709838867188 1141.8360595703125,970.2689819335938 1141.8360595703125,970.2689819335938 C1141.8360595703125,970.2689819335938 1000.5,968.1220092773438 1000.5,968.1220092773438z"></path></g></g><g style="display: block;" transform="matrix(1.210129976272583,0,0,1.216610074043274,441,455)" opacity="1"><g opacity="1" transform="matrix(1,0,0,1,0,0)"><path fill="rgb(44,65,72)" fill-opacity="1" d=" M305,205.5 C286.5,207 268.5,213 250.5,231 C232.5,249 238.5,264.5 246,268 C252.31100463867188,270.94500732421875 282.531005859375,270.90899658203125 303.97900390625,270.2900085449219 C311.7250061035156,270.0660095214844 319.2449951171875,269.5199890136719 323.5,268 C330.5,265.5 334.87200927734375,262.5469970703125 339.6839904785156,257.6910095214844 C347.47698974609375,249.82699584960938 351.6289978027344,239.50799560546875 351.8389892578125,235.82699584960938 C352,233 352.7460021972656,227.11399841308594 351.5,224 C346.5,211.5 329.99798583984375,203.47300720214844 305,205.5z"></path></g><g opacity="1" transform="matrix(1,0,0,1,0,0)"><path fill="rgb(228,240,244)" fill-opacity="1" d=" M335.5,220 C326.25,214 306.25,210 284.25,220 C271.9540100097656,225.58900451660156 265.75,230 259.28900146484375,237.72300720214844 C253.83200073242188,244.2449951171875 253.54600524902344,246.63800048828125 254.75,250.25 C256.25,254.75 261.0400085449219,253.58799743652344 267.0069885253906,253.94500732421875 C280.75,254.76699829101562 303.89898681640625,255.36300659179688 312.32598876953125,253.67799377441406 C322.32598876953125,251.67799377441406 327.9490051269531,248.06900024414062 334.75,239 C339.25,233 344.2590026855469,225.6820068359375 335.5,220z"></path></g></g><g style="display: block;" transform="matrix(0.8563715219497681,0.01836521551012993,-0.020567111670970917,0.9693447351455688,536.4998168945312,512.0006103515625)" opacity="1"><g opacity="1" transform="matrix(1,0,0,1,0,0)"><path fill="rgb(112,59,32)" fill-opacity="1" d=" M346,173 C321.7909851074219,168.4810028076172 313,180.5 302.5,186.5 C298.75,188.64300537109375 292.3269958496094,192.49000549316406 287.7439880371094,195.04100036621094 C283.05999755859375,197.6479949951172 277.75299072265625,203.4669952392578 277.5,206.5 C277.2539978027344,209.45399475097656 280.1570129394531,204.5279998779297 286.06500244140625,202.10000610351562 C293,199.25 298.4849853515625,196.47300720214844 299.5,198.25 C300.2239990234375,199.51800537109375 297.5530090332031,202.0070037841797 292.2959899902344,207.0489959716797 C289.406005859375,209.82000732421875 284.0150146484375,218.35499572753906 281.74200439453125,222.16400146484375 C276.7340087890625,230.55599975585938 278.8900146484375,238.7050018310547 284.52398681640625,239.68800354003906 C293.6679992675781,241.2830047607422 293.5509948730469,232.9239959716797 300.75,224.47799682617188 C303.9280090332031,220.74899291992188 307.5459899902344,214.16799926757812 312.19000244140625,210.37100219726562 C317.7760009765625,205.8040008544922 318.5950012207031,203.67599487304688 323.3169860839844,204.15199279785156 C329.4639892578125,204.77200317382812 321.3179931640625,210.8489990234375 316.34600830078125,219.51199340820312 C310.31298828125,230.0229949951172 301.9809875488281,247.0590057373047 310.3179931640625,249.36900329589844 C316.0299987792969,250.95199584960938 322.4519958496094,243.38600158691406 326.5260009765625,237.44700622558594 C329.677001953125,232.85400390625 332.6000061035156,225.96499633789062 334.1199951171875,223.06900024414062 C344.6199951171875,203.06900024414062 349.94000244140625,207.78199768066406 351.0429992675781,207.96200561523438 C353.88800048828125,208.427001953125 353.7640075683594,212.7729949951172 354.7229919433594,222.72999572753906 C355.7550048828125,233.44000244140625 354.989990234375,237.00399780273438 358.6549987792969,238.322998046875 C364.9049987792969,240.572998046875 368.2099914550781,236.8159942626953 370.7099914550781,226.3159942626953 C371.3819885253906,223.4949951171875 372.3349914550781,213.8040008544922 371.375,208.49899291992188 C370.1319885253906,201.63099670410156 369.05499267578125,201.08099365234375 364.6289978027344,194.375 C359.74798583984375,186.97999572753906 360.98199462890625,175.79600524902344 346,173z"></path></g></g><g style="display: block;" transform="matrix(1,0,0,1,508,582)" opacity="1"><g opacity="1" transform="matrix(0.9886599779129028,0,0,0.8725500106811523,22.233999252319336,28.0939998626709)"><path fill="rgb(176,195,198)" fill-opacity="1" d=" M-158,-33.5 C-158,-33.5 -171,-36 -181.2220001220703,-26.770999908447266 C-186.55499267578125,-21.95599937438965 -185,-7.5 -184,-0.5 C-181.9409942626953,13.913999557495117 -158,167 -158,167 C-158,167 -155,182 -137.5,183 C-127.46600341796875,183.572998046875 82.5,186.5 82.5,186.5 C82.5,186.5 97.2040023803711,187.6959991455078 102,182.5 C108,176 105,165.5 105,165.5 C105,165.5 75,-7 75,-7 C75,-7 74.23899841308594,-22.927000045776367 66.052001953125,-28.687000274658203 C58.5,-34 52.92100143432617,-36.03799819946289 43.5,-35.5 C8.5,-33.5 -158,-33.5 -158,-33.5z"></path><path stroke-linecap="butt" stroke-linejoin="miter" fill-opacity="0" stroke-miterlimit="4" stroke="rgb(25,65,81)" stroke-opacity="1" stroke-width="13.5" d=" M-158,-33.5 C-158,-33.5 -171,-36 -181.2220001220703,-26.770999908447266 C-186.55499267578125,-21.95599937438965 -185,-7.5 -184,-0.5 C-181.9409942626953,13.913999557495117 -158,167 -158,167 C-158,167 -155,182 -137.5,183 C-127.46600341796875,183.572998046875 82.5,186.5 82.5,186.5 C82.5,186.5 97.2040023803711,187.6959991455078 102,182.5 C108,176 105,165.5 105,165.5 C105,165.5 75,-7 75,-7 C75,-7 74.23899841308594,-22.927000045776367 66.052001953125,-28.687000274658203 C58.5,-34 52.92100143432617,-36.03799819946289 43.5,-35.5 C8.5,-33.5 -158,-33.5 -158,-33.5z"></path></g><g opacity="1" transform="matrix(1.214678406715393,-0.2271234095096588,0.2271234095096588,1.214678406715393,-26.236000061035156,99.99199676513672)"><path fill="rgb(255,255,255)" fill-opacity="1" d=" M0,-31.101499557495117 C15.540400505065918,-31.101499557495117 28.158000946044922,-17.1649169921875 28.158000946044922,0 C28.158000946044922,17.1649169921875 15.540400505065918,31.101499557495117 0,31.101499557495117 C-15.540400505065918,31.101499557495117 -28.158000946044922,17.1649169921875 -28.158000946044922,0 C-28.158000946044922,-17.1649169921875 -15.540400505065918,-31.101499557495117 0,-31.101499557495117z"></path></g></g><g style="display: block;" transform="matrix(1.0594865083694458,-0.20815105736255646,0.20058254897594452,1.0209629535675049,452.5840148925781,573.0440063476562)" opacity="1"></g></g></g></svg>