<svg xmlns="http://www.w3.org/2000/svg" xmlns:xlink="http://www.w3.org/1999/xlink" viewBox="0 0 512 512" width="512" height="512" style="width: 100%; height: 100%; transform: translate3d(0,0,0); content-visibility: visible;" preserveAspectRatio="xMidYMid meet"><defs><clipPath id="__lottie_element_2"><rect width="512" height="512" x="0" y="0"></rect></clipPath><clipPath id="__lottie_element_4"><path d="M0,0 L512,0 L512,512 L0,512z"></path></clipPath><linearGradient id="__lottie_element_21" spreadMethod="pad" gradientUnits="userSpaceOnUse" x1="0.34299999475479126" y1="-133.83399963378906" x2="27.39900016784668" y2="113.7959976196289"><stop offset="0%" stop-color="rgb(250,225,189)"></stop><stop offset="50%" stop-color="rgb(248,203,159)"></stop><stop offset="100%" stop-color="rgb(246,181,129)"></stop></linearGradient><mask id="__lottie_element_23"><path fill="url(#__lottie_element_22)" d=" M176.33999633789062,-8.76099967956543 C176.33999633789062,-8.76099967956543 155.0240020751953,-15.293999671936035 120.47799682617188,-19.19499969482422 C110.95800018310547,-20.270000457763672 102.12899780273438,-20.81599998474121 97.35399627685547,-21.70199966430664 C86.1729965209961,-23.777000427246094 86.63899993896484,-22.71500015258789 86.63899993896484,-22.71500015258789 C86.63899993896484,-22.71500015258789 12.586999893188477,4.624000072479248 12.586999893188477,4.624000072479248 C8.413999557495117,6.354000091552734 4.4039998054504395,5.741000175476074 0.08900000154972076,4.40500020980835 C-21.61400032043457,-2.319000005722046 -88.77899932861328,-25.785999298095703 -108.52899932861328,-24.767000198364258 C-115.52799987792969,-24.4060001373291 -127.24400329589844,-19.93600082397461 -135.2270050048828,-15.581000328063965 C-143.2100067138672,-11.22700023651123 -147.7899932861328,-10.71500015258789 -154.8699951171875,-8.979999542236328 C-164.24099731445312,-6.683000087738037 -162.69500732421875,-3.7190001010894775 -162.69500732421875,-3.7190001010894775 C-162.69500732421875,-3.7190001010894775 -158.72300720214844,11.642000198364258 -152.91799926757812,18.174999237060547 C-147.11199951171875,24.70599937438965 -75.71600341796875,24.334999084472656 21.534000396728516,25.059999465942383 C118.78299713134766,25.785999298095703 168.61099243164062,16.14900016784668 174.41700744628906,7.440999984741211 C180.22300720214844,-1.2680000066757202 176.33999633789062,-8.76099967956543 176.33999633789062,-8.76099967956543z"></path></mask><linearGradient id="__lottie_element_22" spreadMethod="pad" gradientUnits="userSpaceOnUse" x1="0.34299999475479126" y1="-133.83399963378906" x2="27.39900016784668" y2="113.7959976196289"><stop stop-color="rgb(255,255,255)" offset="0%" stop-opacity="0.9300000071525574"></stop><stop stop-color="rgb(255,255,255)" offset="57%" stop-opacity="0.9649999737739563"></stop><stop stop-color="rgb(255,255,255)" offset="100%" stop-opacity="1"></stop></linearGradient><linearGradient id="__lottie_element_24" spreadMethod="pad" gradientUnits="userSpaceOnUse" x1="0.34299999475479126" y1="-133.83399963378906" x2="27.39900016784668" y2="113.7959976196289"><stop offset="0%" stop-color="rgb(250,225,189)"></stop><stop offset="50%" stop-color="rgb(248,203,159)"></stop><stop offset="100%" stop-color="rgb(246,181,129)"></stop></linearGradient><mask id="__lottie_element_26"><path fill="url(#__lottie_element_25)" d=" M176.33999633789062,-8.76099967956543 C176.33999633789062,-8.76099967956543 155.0240020751953,-15.293999671936035 120.47799682617188,-19.19499969482422 C110.95800018310547,-20.270000457763672 102.12899780273438,-20.81599998474121 97.35399627685547,-21.70199966430664 C86.1729965209961,-23.777000427246094 86.63899993896484,-22.71500015258789 86.63899993896484,-22.71500015258789 C86.63899993896484,-22.71500015258789 12.586999893188477,4.624000072479248 12.586999893188477,4.624000072479248 C8.413999557495117,6.354000091552734 4.4039998054504395,5.741000175476074 0.08900000154972076,4.40500020980835 C-21.61400032043457,-2.319000005722046 -88.77899932861328,-25.785999298095703 -108.52899932861328,-24.767000198364258 C-115.52799987792969,-24.4060001373291 -127.24400329589844,-19.93600082397461 -135.2270050048828,-15.581000328063965 C-143.2100067138672,-11.22700023651123 -147.7899932861328,-10.71500015258789 -154.8699951171875,-8.979999542236328 C-164.24099731445312,-6.683000087738037 -162.69500732421875,-3.7190001010894775 -162.69500732421875,-3.7190001010894775 C-162.69500732421875,-3.7190001010894775 -158.72300720214844,11.642000198364258 -152.91799926757812,18.174999237060547 C-147.11199951171875,24.70599937438965 -75.71600341796875,24.334999084472656 21.534000396728516,25.059999465942383 C118.78299713134766,25.785999298095703 168.61099243164062,16.14900016784668 174.41700744628906,7.440999984741211 C180.22300720214844,-1.2680000066757202 176.33999633789062,-8.76099967956543 176.33999633789062,-8.76099967956543z"></path></mask><linearGradient id="__lottie_element_25" spreadMethod="pad" gradientUnits="userSpaceOnUse" x1="0.34299999475479126" y1="-133.83399963378906" x2="27.39900016784668" y2="113.7959976196289"><stop stop-color="rgb(255,255,255)" offset="0%" stop-opacity="0.9300000071525574"></stop><stop stop-color="rgb(255,255,255)" offset="57%" stop-opacity="0.9649999737739563"></stop><stop stop-color="rgb(255,255,255)" offset="100%" stop-opacity="1"></stop></linearGradient><linearGradient id="__lottie_element_27" spreadMethod="pad" gradientUnits="userSpaceOnUse" x1="-1.3569999933242798" y1="107.38700103759766" x2="-37.36899948120117" y2="-159.77099609375"><stop offset="0%" stop-color="rgb(250,225,189)"></stop><stop offset="50%" stop-color="rgb(248,203,159)"></stop><stop offset="100%" stop-color="rgb(246,181,129)"></stop></linearGradient><mask id="__lottie_element_29"><path fill="url(#__lottie_element_28)" d=" M-109.06999969482422,-14.168999671936035 C-109.06999969482422,-14.168999671936035 -90.18900299072266,-8.928000450134277 -87.95999908447266,-13.942999839782715 C-86.38800048828125,-17.479999542236328 -104.33100128173828,-19.64900016784668 -102.16300201416016,-22.059999465942383 C-99.11399841308594,-25.445999145507812 -43.39500045776367,-16.476999282836914 -19.332000732421875,-11.333000183105469 C-3.812999963760376,-8.015999794006348 4.480000019073486,4.249000072479248 4.480000019073486,4.249000072479248 C4.480000019073486,4.249000072479248 13.425000190734863,3.4509999752044678 13.425000190734863,3.4509999752044678 C13.425000190734863,3.4509999752044678 42.76900100708008,-9.199000358581543 42.76900100708008,-9.199000358581543 C42.76900100708008,-9.199000358581543 83.29100036621094,-21.089000701904297 83.29100036621094,-21.089000701904297 C83.29100036621094,-21.089000701904297 83.3740005493164,-17.827999114990234 87.53199768066406,-15.442999839782715 C95.25499725341797,-11.012999534606934 109.9010009765625,-9.548999786376953 109.9010009765625,-9.548999786376953 C109.9010009765625,-9.548999786376953 93.10399627685547,-6.715000152587891 93.10399627685547,-6.715000152587891 C93.10399627685547,-6.715000152587891 84.00299835205078,-0.7710000276565552 84.00299835205078,-0.7710000276565552 C84.00299835205078,-0.7710000276565552 -2.640000104904175,25.44700050354004 -2.640000104904175,25.44700050354004 C-2.640000104904175,25.44700050354004 -109.9010009765625,-5.599999904632568 -109.9010009765625,-5.599999904632568 C-109.9010009765625,-5.599999904632568 -109.06999969482422,-14.168999671936035 -109.06999969482422,-14.168999671936035z"></path></mask><linearGradient id="__lottie_element_28" spreadMethod="pad" gradientUnits="userSpaceOnUse" x1="-1.3569999933242798" y1="107.38700103759766" x2="-37.36899948120117" y2="-159.77099609375"><stop stop-color="rgb(255,255,255)" offset="0%" stop-opacity="0.9300000071525574"></stop><stop stop-color="rgb(255,255,255)" offset="57%" stop-opacity="0.9649999737739563"></stop><stop stop-color="rgb(255,255,255)" offset="100%" stop-opacity="1"></stop></linearGradient><linearGradient id="__lottie_element_30" spreadMethod="pad" gradientUnits="userSpaceOnUse" x1="14.531000137329102" y1="183.4029998779297" x2="-37.36899948120117" y2="-159.77099609375"><stop offset="0%" stop-color="rgb(250,225,189)"></stop><stop offset="50%" stop-color="rgb(248,203,159)"></stop><stop offset="100%" stop-color="rgb(246,181,129)"></stop></linearGradient><mask id="__lottie_element_32"><path fill="url(#__lottie_element_31)" d=" M-109.06999969482422,-14.168999671936035 C-109.06999969482422,-14.168999671936035 -90.18900299072266,-8.928000450134277 -87.95999908447266,-13.942999839782715 C-86.38800048828125,-17.479999542236328 -104.33100128173828,-19.64900016784668 -102.16300201416016,-22.059999465942383 C-99.11399841308594,-25.445999145507812 -43.39500045776367,-16.476999282836914 -19.332000732421875,-11.333000183105469 C-3.812999963760376,-8.015999794006348 4.480000019073486,4.249000072479248 4.480000019073486,4.249000072479248 C4.480000019073486,4.249000072479248 13.425000190734863,3.4509999752044678 13.425000190734863,3.4509999752044678 C13.425000190734863,3.4509999752044678 42.76900100708008,-9.199000358581543 42.76900100708008,-9.199000358581543 C42.76900100708008,-9.199000358581543 83.29100036621094,-21.089000701904297 83.29100036621094,-21.089000701904297 C83.29100036621094,-21.089000701904297 83.3740005493164,-17.827999114990234 87.53199768066406,-15.442999839782715 C95.25499725341797,-11.012999534606934 109.9010009765625,-9.548999786376953 109.9010009765625,-9.548999786376953 C109.9010009765625,-9.548999786376953 93.10399627685547,-6.715000152587891 93.10399627685547,-6.715000152587891 C93.10399627685547,-6.715000152587891 84.00299835205078,-0.7710000276565552 84.00299835205078,-0.7710000276565552 C84.00299835205078,-0.7710000276565552 -2.640000104904175,25.44700050354004 -2.640000104904175,25.44700050354004 C-2.640000104904175,25.44700050354004 -109.9010009765625,-5.599999904632568 -109.9010009765625,-5.599999904632568 C-109.9010009765625,-5.599999904632568 -109.06999969482422,-14.168999671936035 -109.06999969482422,-14.168999671936035z"></path></mask><linearGradient id="__lottie_element_31" spreadMethod="pad" gradientUnits="userSpaceOnUse" x1="14.531000137329102" y1="183.4029998779297" x2="-37.36899948120117" y2="-159.77099609375"><stop stop-color="rgb(255,255,255)" offset="0%" stop-opacity="0.9300000071525574"></stop><stop stop-color="rgb(255,255,255)" offset="57%" stop-opacity="0.9649999737739563"></stop><stop stop-color="rgb(255,255,255)" offset="100%" stop-opacity="1"></stop></linearGradient><linearGradient id="__lottie_element_33" spreadMethod="pad" gradientUnits="userSpaceOnUse" x1="22.83300018310547" y1="-242.42799377441406" x2="23.392000198364258" y2="200.65699768066406"><stop offset="0%" stop-color="rgb(250,225,189)"></stop><stop offset="50%" stop-color="rgb(248,203,159)"></stop><stop offset="100%" stop-color="rgb(246,181,129)"></stop></linearGradient><mask id="__lottie_element_35"><path fill="url(#__lottie_element_34)" d=" M-162.63699340820312,-16.576000213623047 C-162.63699340820312,-16.576000213623047 -142.08999633789062,-19.441999435424805 -142.08999633789062,-19.441999435424805 C-142.08999633789062,-19.441999435424805 -138.35800170898438,-12.619999885559082 -136.16099548339844,-11.887999534606934 C-133.96499633789062,-11.154999732971191 -102.1240005493164,2.8369998931884766 -77.22699737548828,5.400000095367432 C-52.33000183105469,7.9629998207092285 135.86199951171875,-0.45899999141693115 149.77499389648438,-4.486000061035156 C158.54600524902344,-7.02400016784668 166.13600158691406,-15.4399995803833 172.5659942626953,-17.117000579833984 C174.67100524902344,-17.66699981689453 177.9669952392578,-15.652999877929688 179.43099975585938,-18.215999603271484 C180.38499450683594,-19.885000228881836 179.43099975585938,-23.52400016784668 179.43099975585938,-23.52400016784668 C179.43099975585938,-23.52400016784668 182.62100219726562,-19.804000854492188 183.00100708007812,-17.392000198364258 C184.13699340820312,-10.164999961853027 180.8040008544922,3.385999917984009 163.22999572753906,7.046999931335449 C145.656005859375,10.708000183105469 72.89199829101562,22.417999267578125 -18.82900047302246,22.974000930786133 C-109.44599914550781,23.52400016784668 -141.37399291992188,20.02400016784668 -156.20199584960938,6.8429999351501465 C-163.46499633789062,0.3869999945163727 -162.63699340820312,-16.576000213623047 -162.63699340820312,-16.576000213623047z"></path></mask><linearGradient id="__lottie_element_34" spreadMethod="pad" gradientUnits="userSpaceOnUse" x1="22.83300018310547" y1="-242.42799377441406" x2="23.392000198364258" y2="200.65699768066406"><stop stop-color="rgb(255,255,255)" offset="0%" stop-opacity="0.9300000071525574"></stop><stop stop-color="rgb(255,255,255)" offset="57%" stop-opacity="0.9649999737739563"></stop><stop stop-color="rgb(255,255,255)" offset="100%" stop-opacity="1"></stop></linearGradient><linearGradient id="__lottie_element_38" spreadMethod="pad" gradientUnits="userSpaceOnUse" x1="14.567999839782715" y1="-179.80499267578125" x2="23.160999298095703" y2="45.191001892089844"><stop offset="0%" stop-color="rgb(250,225,189)"></stop><stop offset="50%" stop-color="rgb(248,203,159)"></stop><stop offset="100%" stop-color="rgb(246,181,129)"></stop></linearGradient><mask id="__lottie_element_40"><path fill="url(#__lottie_element_39)" d=" M-98.70099639892578,50.43899917602539 C-98.70099639892578,50.43899917602539 -71.1709976196289,21.601999282836914 -66.09100341796875,-5.97599983215332 C-61.01100158691406,-33.55500030517578 -67.20500183105469,-66.5250015258789 -67.20500183105469,-66.5250015258789 C-67.20500183105469,-66.5250015258789 -14.513999938964844,-86.72699737548828 18.143999099731445,-72.21099853515625 C50.801998138427734,-57.696998596191406 87.81600189208984,-7.620999813079834 87.81600189208984,-7.620999813079834 C87.81600189208984,-7.620999813079834 84.18699645996094,11.25 89.99299621582031,30.8439998626709 C92.6729965209961,39.88999938964844 98.70099639892578,51.16600036621094 98.70099639892578,51.16600036621094 C98.70099639892578,51.16600036621094 92.16999816894531,75.11499786376953 26.85300064086914,80.91999816894531 C-38.4640007019043,86.72699737548828 -98.70099639892578,50.43899917602539 -98.70099639892578,50.43899917602539z"></path></mask><linearGradient id="__lottie_element_39" spreadMethod="pad" gradientUnits="userSpaceOnUse" x1="14.567999839782715" y1="-179.80499267578125" x2="23.160999298095703" y2="45.191001892089844"><stop stop-color="rgb(255,255,255)" offset="0%" stop-opacity="0.9300000071525574"></stop><stop stop-color="rgb(255,255,255)" offset="57%" stop-opacity="0.9649999737739563"></stop><stop stop-color="rgb(255,255,255)" offset="100%" stop-opacity="1"></stop></linearGradient><radialGradient id="__lottie_element_43" spreadMethod="pad" gradientUnits="userSpaceOnUse" cx="-66.88099670410156" cy="-111.69200134277344" r="296.5548480105684" fx="-66.88099670410156" fy="-111.69200134277344"><stop offset="0%" stop-color="rgb(250,225,189)"></stop><stop offset="50%" stop-color="rgb(248,203,159)"></stop><stop offset="100%" stop-color="rgb(246,181,129)"></stop></radialGradient><mask id="__lottie_element_45"><path fill="url(#__lottie_element_44)" d=" M-68.5530014038086,99.28299713134766 C-68.5530014038086,99.28299713134766 -31.915000915527344,125.4260025024414 -7.859000205993652,138.9320068359375 C23.445999145507812,156.50599670410156 48.55699920654297,167.0489959716797 65.9749984741211,166.32200622558594 C83.39299774169922,165.5970001220703 101.51300048828125,161.32400512695312 108.61000061035156,155.06500244140625 C117.77100372314453,146.98599243164062 116.2040023803711,132.97900390625 120.55899810791016,122.81700134277344 C124.91300201416016,112.65699768066406 122.87799835205078,113.89399719238281 135.7740020751953,85.88800048828125 C141.49400329589844,73.4739990234375 138.96400451660156,54.53799819946289 142.26699829101562,30.259000778198242 C145.86300659179688,1.9630000591278076 145.197998046875,-11.87600040435791 125.62300109863281,-12.86299991607666 C100.03299713134766,-11.008000373840332 93.41100311279297,22.843000411987305 71.677001953125,25.77899932861328 C21.437000274658203,32.13100051879883 4.49399995803833,25.47100067138672 -36.38399887084961,21.06599998474121 C-75.41200256347656,15.916999816894531 -76.27999877929688,12.442999839782715 -95.5530014038086,2.3410000801086426 C-113.62699890136719,-7.533999919891357 -124.49099731445312,-7.25 -122.99600219726562,4.709000110626221 C-122.41600036621094,9.345999717712402 -122.9469985961914,26.339000701904297 -116.03299713134766,41.31399917602539 C-109.89199829101562,58.474998474121094 -92.197998046875,73.87699890136719 -88.74500274658203,77.1969985961914 C-78.40799713134766,87.13800048828125 -83.46199798583984,83.89399719238281 -83.46199798583984,83.89399719238281 C-83.46199798583984,83.89399719238281 -68.5530014038086,99.28299713134766 -68.5530014038086,99.28299713134766z"></path></mask><radialGradient id="__lottie_element_44" spreadMethod="pad" gradientUnits="userSpaceOnUse" cx="-66.88099670410156" cy="-111.69200134277344" r="296.5548480105684" fx="-66.88099670410156" fy="-111.69200134277344"><stop stop-color="rgb(255,255,255)" offset="0%" stop-opacity="0.9300000071525574"></stop><stop stop-color="rgb(255,255,255)" offset="57%" stop-opacity="0.9649999737739563"></stop><stop stop-color="rgb(255,255,255)" offset="100%" stop-opacity="1"></stop></radialGradient><linearGradient id="__lottie_element_46" spreadMethod="pad" gradientUnits="userSpaceOnUse" x1="14.093999862670898" y1="-200.5279998779297" x2="34.82899856567383" y2="152.02000427246094"><stop offset="0%" stop-color="rgb(250,225,189)"></stop><stop offset="50%" stop-color="rgb(248,203,159)"></stop><stop offset="100%" stop-color="rgb(246,181,129)"></stop></linearGradient><mask id="__lottie_element_48"><path fill="url(#__lottie_element_47)" d=" M-10.633000373840332,-25.062000274658203 C-10.633000373840332,-25.062000274658203 -17.319000244140625,-17.158000946044922 -17.319000244140625,-17.158000946044922 C-17.319000244140625,-17.158000946044922 -16.833999633789062,-12.515999794006348 -16.833999633789062,-12.515999794006348 C-16.833999633789062,-12.515999794006348 -2.5959436893463135,3.5302493572235107 0.08919718861579895,15.623376846313477 C4.363353729248047,24.510282516479492 2.4922733306884766,36.78630065917969 2.4922733306884766,36.78630065917969 C2.4922733306884766,36.78630065917969 0.24730609357357025,51.20428466796875 0.24730609357357025,51.20428466796875 C0.24730609357357025,51.20428466796875 5.7876386642456055,39.86790084838867 12.355460166931152,39.47430419921875 C19.926706314086914,39.025794982910156 30.90399932861328,49.53900146484375 30.90399932861328,49.53900146484375 C30.90399932861328,49.53900146484375 18.204999923706055,35.42100143432617 12.076000213623047,23.534000396728516 C7.821000099182129,15.279999732971191 1.4110000133514404,-13.762999534606934 1.4110000133514404,-13.762999534606934 C1.4110000133514404,-13.762999534606934 -1.347000002861023,-21.533000946044922 -1.347000002861023,-21.533000946044922 C-1.347000002861023,-21.533000946044922 -10.633000373840332,-25.062000274658203 -10.633000373840332,-25.062000274658203z"></path></mask><linearGradient id="__lottie_element_47" spreadMethod="pad" gradientUnits="userSpaceOnUse" x1="14.093999862670898" y1="-200.5279998779297" x2="34.82899856567383" y2="152.02000427246094"><stop stop-color="rgb(255,255,255)" offset="0%" stop-opacity="0.9300000071525574"></stop><stop stop-color="rgb(255,255,255)" offset="57%" stop-opacity="0.9649999737739563"></stop><stop stop-color="rgb(255,255,255)" offset="100%" stop-opacity="1"></stop></linearGradient><clipPath id="__lottie_element_80"><path d="M0,0 L512,0 L512,512 L0,512z"></path></clipPath><linearGradient id="__lottie_element_97" spreadMethod="pad" gradientUnits="userSpaceOnUse"><stop></stop><stop></stop><stop></stop></linearGradient><mask id="__lottie_element_99"><path fill="url(#__lottie_element_98)"></path></mask><linearGradient id="__lottie_element_98" spreadMethod="pad" gradientUnits="userSpaceOnUse"><stop stop-color="rgb(255,255,255)"></stop><stop stop-color="rgb(255,255,255)"></stop><stop stop-color="rgb(255,255,255)"></stop></linearGradient><linearGradient id="__lottie_element_100" spreadMethod="pad" gradientUnits="userSpaceOnUse"><stop></stop><stop></stop><stop></stop></linearGradient><mask id="__lottie_element_102"><path fill="url(#__lottie_element_101)"></path></mask><linearGradient id="__lottie_element_101" spreadMethod="pad" gradientUnits="userSpaceOnUse"><stop stop-color="rgb(255,255,255)"></stop><stop stop-color="rgb(255,255,255)"></stop><stop stop-color="rgb(255,255,255)"></stop></linearGradient><linearGradient id="__lottie_element_103" spreadMethod="pad" gradientUnits="userSpaceOnUse"><stop></stop><stop></stop><stop></stop></linearGradient><mask id="__lottie_element_105"><path fill="url(#__lottie_element_104)"></path></mask><linearGradient id="__lottie_element_104" spreadMethod="pad" gradientUnits="userSpaceOnUse"><stop stop-color="rgb(255,255,255)"></stop><stop stop-color="rgb(255,255,255)"></stop><stop stop-color="rgb(255,255,255)"></stop></linearGradient><linearGradient id="__lottie_element_106" spreadMethod="pad" gradientUnits="userSpaceOnUse"><stop></stop><stop></stop><stop></stop></linearGradient><mask id="__lottie_element_108"><path fill="url(#__lottie_element_107)"></path></mask><linearGradient id="__lottie_element_107" spreadMethod="pad" gradientUnits="userSpaceOnUse"><stop stop-color="rgb(255,255,255)"></stop><stop stop-color="rgb(255,255,255)"></stop><stop stop-color="rgb(255,255,255)"></stop></linearGradient><linearGradient id="__lottie_element_109" spreadMethod="pad" gradientUnits="userSpaceOnUse"><stop></stop><stop></stop><stop></stop></linearGradient><mask id="__lottie_element_111"><path fill="url(#__lottie_element_110)"></path></mask><linearGradient id="__lottie_element_110" spreadMethod="pad" gradientUnits="userSpaceOnUse"><stop stop-color="rgb(255,255,255)"></stop><stop stop-color="rgb(255,255,255)"></stop><stop stop-color="rgb(255,255,255)"></stop></linearGradient><linearGradient id="__lottie_element_114" spreadMethod="pad" gradientUnits="userSpaceOnUse"><stop></stop><stop></stop><stop></stop></linearGradient><mask id="__lottie_element_116"><path fill="url(#__lottie_element_115)"></path></mask><linearGradient id="__lottie_element_115" spreadMethod="pad" gradientUnits="userSpaceOnUse"><stop stop-color="rgb(255,255,255)"></stop><stop stop-color="rgb(255,255,255)"></stop><stop stop-color="rgb(255,255,255)"></stop></linearGradient><radialGradient id="__lottie_element_119" spreadMethod="pad" gradientUnits="userSpaceOnUse"><stop></stop><stop></stop><stop></stop></radialGradient><mask id="__lottie_element_121"><path fill="url(#__lottie_element_120)"></path></mask><radialGradient id="__lottie_element_120" spreadMethod="pad" gradientUnits="userSpaceOnUse"><stop stop-color="rgb(255,255,255)"></stop><stop stop-color="rgb(255,255,255)"></stop><stop stop-color="rgb(255,255,255)"></stop></radialGradient><linearGradient id="__lottie_element_122" spreadMethod="pad" gradientUnits="userSpaceOnUse"><stop></stop><stop></stop><stop></stop></linearGradient><mask id="__lottie_element_124"><path fill="url(#__lottie_element_123)"></path></mask><linearGradient id="__lottie_element_123" spreadMethod="pad" gradientUnits="userSpaceOnUse"><stop stop-color="rgb(255,255,255)"></stop><stop stop-color="rgb(255,255,255)"></stop><stop stop-color="rgb(255,255,255)"></stop></linearGradient></defs><g clip-path="url(#__lottie_element_2)"><g clip-path="url(#__lottie_element_80)" style="display: none;"><g style="display: none;"><g><path fill="url(#__lottie_element_114)" mask="url(#__lottie_element_116)"></path><path stroke-linecap="butt" stroke-linejoin="miter" fill-opacity="0" stroke-miterlimit="10"></path></g><g><path></path></g><g><path stroke-linecap="round" stroke-linejoin="round" fill-opacity="0"></path></g><g><path stroke-linecap="round" stroke-linejoin="round" fill-opacity="0"></path></g><g><path stroke-linecap="round" stroke-linejoin="round" fill-opacity="0"></path></g></g><g style="display: none;"><g><path fill="url(#__lottie_element_119)" mask="url(#__lottie_element_121)"></path><path stroke-linecap="butt" stroke-linejoin="round" fill-opacity="0"></path></g><g><path fill="url(#__lottie_element_122)" mask="url(#__lottie_element_124)"></path></g><g><path></path></g><g><path></path></g><g><path stroke-linecap="round" stroke-linejoin="round" fill-opacity="0"></path></g></g><g style="display: none;"><g><g><path></path><path stroke-linecap="round" stroke-linejoin="round" fill-opacity="0"></path></g><g><path></path></g><g><path stroke-linecap="round" stroke-linejoin="round" fill-opacity="0"></path></g><g><path></path></g><g><path></path></g><g><path stroke-linecap="round" stroke-linejoin="round" fill-opacity="0"></path></g></g></g><g style="display: none;"><g><path stroke-linecap="round" stroke-linejoin="round" fill-opacity="0"></path></g><g><path stroke-linecap="round" stroke-linejoin="round" fill-opacity="0"></path></g></g><g style="display: none;"><g><path></path><path stroke-linecap="round" stroke-linejoin="round" fill-opacity="0"></path></g><g><path stroke-linecap="round" stroke-linejoin="round" fill-opacity="0"></path></g><g><path></path></g><g><path></path></g><g><path></path></g><g><path stroke-linecap="round" stroke-linejoin="round" fill-opacity="0"></path></g></g><g style="display: none;"><g><path stroke-linecap="round" stroke-linejoin="round" fill-opacity="0"></path></g></g><g style="display: none;"><g><path stroke-linecap="round" stroke-linejoin="round" fill-opacity="0"></path></g><g><path stroke-linecap="round" stroke-linejoin="miter" fill-opacity="0" stroke-miterlimit="4"></path></g></g><g style="display: none;"><g><path stroke-linecap="round" stroke-linejoin="round" fill-opacity="0"></path></g></g><g style="display: none;"><g><g><path fill="url(#__lottie_element_97)" mask="url(#__lottie_element_99)"></path></g><g><path fill="url(#__lottie_element_100)" mask="url(#__lottie_element_102)"></path></g><g><path stroke-linecap="butt" stroke-linejoin="miter" fill-opacity="0" stroke-miterlimit="10"></path></g><g><path fill="url(#__lottie_element_103)" mask="url(#__lottie_element_105)"></path></g><g><path fill="url(#__lottie_element_106)" mask="url(#__lottie_element_108)"></path></g><g><path stroke-linecap="round" stroke-linejoin="round" fill-opacity="0"></path></g><g><path fill="url(#__lottie_element_109)" mask="url(#__lottie_element_111)"></path></g><g><path></path></g></g></g><g style="display: none;"><g><path></path></g><g><path stroke-linecap="round" stroke-linejoin="round" fill-opacity="0"></path></g><g><path></path></g><g><path stroke-linecap="round" stroke-linejoin="round" fill-opacity="0"></path></g><g><path stroke-linecap="round" stroke-linejoin="round" fill-opacity="0"></path></g><g><path stroke-linecap="round" stroke-linejoin="round" fill-opacity="0"></path></g></g><g style="display: none;"><g><g><g><path></path></g><g><path></path></g><g><path stroke-linecap="round" stroke-linejoin="round" fill-opacity="0"></path></g></g></g></g><g style="display: none;"><g><path></path><path stroke-linecap="round" stroke-linejoin="round" fill-opacity="0"></path></g></g><g style="display: none;"><g><path></path></g></g><g style="display: none;"><g><path stroke-linecap="butt" stroke-linejoin="miter" fill-opacity="0" stroke-miterlimit="4"></path></g><g><path stroke-linecap="butt" stroke-linejoin="miter" fill-opacity="0" stroke-miterlimit="4"></path></g><g><path stroke-linecap="butt" stroke-linejoin="miter" fill-opacity="0" stroke-miterlimit="4"></path></g><g><path stroke-linecap="butt" stroke-linejoin="miter" fill-opacity="0" stroke-miterlimit="4"></path></g><g><path stroke-linecap="butt" stroke-linejoin="miter" fill-opacity="0" stroke-miterlimit="4"></path></g><g><path></path></g></g><g style="display: none;"><g><path stroke-linecap="butt" stroke-linejoin="miter" fill-opacity="0" stroke-miterlimit="4"></path></g><g><path stroke-linecap="butt" stroke-linejoin="miter" fill-opacity="0" stroke-miterlimit="4"></path></g><g><path stroke-linecap="butt" stroke-linejoin="miter" fill-opacity="0" stroke-miterlimit="4"></path></g><g><path stroke-linecap="butt" stroke-linejoin="miter" fill-opacity="0" stroke-miterlimit="4"></path></g><g><path stroke-linecap="butt" stroke-linejoin="miter" fill-opacity="0" stroke-miterlimit="4"></path></g><g><path></path></g></g></g><g clip-path="url(#__lottie_element_4)" style="display: block;" transform="matrix(1,0,0,1,0,0)" opacity="1"><g style="display: block;" transform="matrix(1.1513500213623047,0,0,1.1513500213623047,23.807296752929688,-32.7099609375)" opacity="1"><g opacity="1" transform="matrix(1,0,0,1,179.45199584960938,338.6099853515625)"><path fill="url(#__lottie_element_38)" mask="url(#__lottie_element_40)" fill-opacity="1" d="M0 0 M-98.70099639892578,50.43899917602539 C-98.70099639892578,50.43899917602539 -71.1709976196289,21.601999282836914 -66.09100341796875,-5.97599983215332 C-61.01100158691406,-33.55500030517578 -67.20500183105469,-66.5250015258789 -67.20500183105469,-66.5250015258789 C-67.20500183105469,-66.5250015258789 -14.513999938964844,-86.72699737548828 18.143999099731445,-72.21099853515625 C50.801998138427734,-57.696998596191406 87.81600189208984,-7.620999813079834 87.81600189208984,-7.620999813079834 C87.81600189208984,-7.620999813079834 84.18699645996094,11.25 89.99299621582031,30.8439998626709 C92.6729965209961,39.88999938964844 98.70099639892578,51.16600036621094 98.70099639892578,51.16600036621094 C98.70099639892578,51.16600036621094 92.16999816894531,75.11499786376953 26.85300064086914,80.91999816894531 C-38.4640007019043,86.72699737548828 -98.70099639892578,50.43899917602539 -98.70099639892578,50.43899917602539z"></path><path stroke-linecap="butt" stroke-linejoin="miter" fill-opacity="0" stroke-miterlimit="10" stroke="rgb(188,86,32)" stroke-opacity="1" stroke-width="9" d=" M-98.70099639892578,50.43899917602539 C-98.70099639892578,50.43899917602539 -71.1709976196289,21.601999282836914 -66.09100341796875,-5.97599983215332 C-61.01100158691406,-33.55500030517578 -67.20500183105469,-66.5250015258789 -67.20500183105469,-66.5250015258789 C-67.20500183105469,-66.5250015258789 -14.513999938964844,-86.72699737548828 18.143999099731445,-72.21099853515625 C50.801998138427734,-57.696998596191406 87.81600189208984,-7.620999813079834 87.81600189208984,-7.620999813079834 C87.81600189208984,-7.620999813079834 84.18699645996094,11.25 89.99299621582031,30.8439998626709 C92.6729965209961,39.88999938964844 98.70099639892578,51.16600036621094 98.70099639892578,51.16600036621094 C98.70099639892578,51.16600036621094 92.16999816894531,75.11499786376953 26.85300064086914,80.91999816894531 C-38.4640007019043,86.72699737548828 -98.70099639892578,50.43899917602539 -98.70099639892578,50.43899917602539z"></path></g><g opacity="1" transform="matrix(1,0,0,1,211.48800659179688,326.947998046875)"><path fill="rgb(224,134,74)" fill-opacity="1" d=" M-53.992000579833984,-64.80699920654297 C-53.992000579833984,-64.80699920654297 -87.56400299072266,-42.404998779296875 -77.12999725341797,-18.239999771118164 C-66.41699981689453,6.567999839782715 -39.099998474121094,29.97599983215332 -15.239999771118164,47.59600067138672 C18.8439998626709,72.76599884033203 63.26100158691406,63.15599822998047 63.26100158691406,63.15599822998047 C63.26100158691406,63.15599822998047 50.53900146484375,31.66900062561035 50.53900146484375,31.66900062561035 C50.53900146484375,31.66900062561035 -30.650999069213867,-40.36800003051758 -30.650999069213867,-40.36800003051758 C-30.650999069213867,-40.36800003051758 -53.992000579833984,-64.80699920654297 -53.992000579833984,-64.80699920654297z"></path></g><g opacity="1" transform="matrix(1,0,0,1,239.19000244140625,376.64801025390625)"><path stroke-linecap="round" stroke-linejoin="round" fill-opacity="0" stroke="rgb(210,107,82)" stroke-opacity="1" stroke-width="5.113" d=" M2.059000015258789,-6.864999771118164 C2.059000015258789,-6.864999771118164 -0.1379999965429306,-1.6469999551773071 -0.9620000123977661,1.0989999771118164 C-1.7860000133514404,3.8450000286102295 -2.059999942779541,6.864999771118164 -2.059999942779541,6.864999771118164"></path></g><g opacity="1" transform="matrix(1,0,0,1,138.73300170898438,322.5069885253906)"><path stroke-linecap="round" stroke-linejoin="round" fill-opacity="0" stroke="rgb(221,135,102)" stroke-opacity="1" stroke-width="5.763" d=" M-1.281000018119812,-17.6200008392334 C-1.281000018119812,-17.6200008392334 0.5490000247955322,-8.642999649047852 0.9150000214576721,-1.3300000429153442 C1.281000018119812,5.984000205993652 0.9150000214576721,17.6200008392334 0.9150000214576721,17.6200008392334"></path></g><g opacity="1" transform="matrix(1,0,0,1,131.2270050048828,375.2760009765625)"><path stroke-linecap="round" stroke-linejoin="round" fill-opacity="0" stroke="rgb(221,135,102)" stroke-opacity="1" stroke-width="6.844" d=" M13.08899974822998,-13.729999542236328 C13.08899974822998,-13.729999542236328 5.078999996185303,-8.23799991607666 2.1489999294281006,-4.942999839782715 C-0.7820000052452087,-1.6480000019073486 -3.999000072479248,8.442999839782715 -5.078999996185303,9.555999755859375 C-7.423999786376953,11.972000122070312 -13.08899974822998,13.729999542236328 -13.08899974822998,13.729999542236328"></path></g></g><g style="display: block;" transform="matrix(1.3785003423690796,-0.051577359437942505,0.0417649932205677,1.1162467002868652,-41.583011627197266,2.880521059036255)" opacity="1"><g opacity="1" transform="matrix(1,0,0,1,209.33599853515625,207.91700744628906)"><path fill="url(#__lottie_element_43)" mask="url(#__lottie_element_45)" fill-opacity="1" d="M0 0 M-68.5530014038086,99.28299713134766 C-68.5530014038086,99.28299713134766 -31.915000915527344,125.4260025024414 -7.859000205993652,138.9320068359375 C23.445999145507812,156.50599670410156 48.55699920654297,167.0489959716797 65.9749984741211,166.32200622558594 C83.39299774169922,165.5970001220703 101.51300048828125,161.32400512695312 108.61000061035156,155.06500244140625 C117.77100372314453,146.98599243164062 116.2040023803711,132.97900390625 120.55899810791016,122.81700134277344 C124.91300201416016,112.65699768066406 122.87799835205078,113.89399719238281 135.7740020751953,85.88800048828125 C141.49400329589844,73.4739990234375 138.96400451660156,54.53799819946289 142.26699829101562,30.259000778198242 C145.86300659179688,1.9630000591278076 145.197998046875,-11.87600040435791 125.62300109863281,-12.86299991607666 C100.03299713134766,-11.008000373840332 93.41100311279297,22.843000411987305 71.677001953125,25.77899932861328 C21.437000274658203,32.13100051879883 4.49399995803833,25.47100067138672 -36.38399887084961,21.06599998474121 C-75.41200256347656,15.916999816894531 -76.27999877929688,12.442999839782715 -95.5530014038086,2.3410000801086426 C-113.62699890136719,-7.533999919891357 -124.49099731445312,-7.25 -122.99600219726562,4.709000110626221 C-122.41600036621094,9.345999717712402 -122.9469985961914,26.339000701904297 -116.03299713134766,41.31399917602539 C-109.89199829101562,58.474998474121094 -92.197998046875,73.87699890136719 -88.74500274658203,77.1969985961914 C-78.40799713134766,87.13800048828125 -83.46199798583984,83.89399719238281 -83.46199798583984,83.89399719238281 C-83.46199798583984,83.89399719238281 -68.5530014038086,99.28299713134766 -68.5530014038086,99.28299713134766z"></path><path stroke-linecap="butt" stroke-linejoin="round" fill-opacity="0" stroke="rgb(188,85,31)" stroke-opacity="1" stroke-width="10" d=" M-68.5530014038086,99.28299713134766 C-68.5530014038086,99.28299713134766 -31.915000915527344,125.4260025024414 -7.859000205993652,138.9320068359375 C23.445999145507812,156.50599670410156 48.55699920654297,167.0489959716797 65.9749984741211,166.32200622558594 C83.39299774169922,165.5970001220703 101.51300048828125,161.32400512695312 108.61000061035156,155.06500244140625 C117.77100372314453,146.98599243164062 116.2040023803711,132.97900390625 120.55899810791016,122.81700134277344 C124.91300201416016,112.65699768066406 122.87799835205078,113.89399719238281 135.7740020751953,85.88800048828125 C141.49400329589844,73.4739990234375 138.96400451660156,54.53799819946289 142.26699829101562,30.259000778198242 C145.86300659179688,1.9630000591278076 145.197998046875,-11.87600040435791 125.62300109863281,-12.86299991607666 C100.03299713134766,-11.008000373840332 93.41100311279297,22.843000411987305 71.677001953125,25.77899932861328 C21.437000274658203,32.13100051879883 4.49399995803833,25.47100067138672 -36.38399887084961,21.06599998474121 C-75.41200256347656,15.916999816894531 -76.27999877929688,12.442999839782715 -95.5530014038086,2.3410000801086426 C-113.62699890136719,-7.533999919891357 -124.49099731445312,-7.25 -122.99600219726562,4.709000110626221 C-122.41600036621094,9.345999717712402 -122.9469985961914,26.339000701904297 -116.03299713134766,41.31399917602539 C-109.89199829101562,58.474998474121094 -92.197998046875,73.87699890136719 -88.74500274658203,77.1969985961914 C-78.40799713134766,87.13800048828125 -83.46199798583984,83.89399719238281 -83.46199798583984,83.89399719238281 C-83.46199798583984,83.89399719238281 -68.5530014038086,99.28299713134766 -68.5530014038086,99.28299713134766z"></path></g><g opacity="1" transform="matrix(1,0,0,1,133.65199279785156,281.3489990234375)"><path fill="url(#__lottie_element_46)" mask="url(#__lottie_element_48)" fill-opacity="1" d="M0 0 M-10.633000373840332,-25.062000274658203 C-10.633000373840332,-25.062000274658203 -17.319000244140625,-17.158000946044922 -17.319000244140625,-17.158000946044922 C-17.319000244140625,-17.158000946044922 -16.833999633789062,-12.515999794006348 -16.833999633789062,-12.515999794006348 C-16.833999633789062,-12.515999794006348 -2.5959436893463135,3.5302493572235107 0.08919718861579895,15.623376846313477 C4.363353729248047,24.510282516479492 2.4922733306884766,36.78630065917969 2.4922733306884766,36.78630065917969 C2.4922733306884766,36.78630065917969 0.24730609357357025,51.20428466796875 0.24730609357357025,51.20428466796875 C0.24730609357357025,51.20428466796875 5.7876386642456055,39.86790084838867 12.355460166931152,39.47430419921875 C19.926706314086914,39.025794982910156 30.90399932861328,49.53900146484375 30.90399932861328,49.53900146484375 C30.90399932861328,49.53900146484375 18.204999923706055,35.42100143432617 12.076000213623047,23.534000396728516 C7.821000099182129,15.279999732971191 1.4110000133514404,-13.762999534606934 1.4110000133514404,-13.762999534606934 C1.4110000133514404,-13.762999534606934 -1.347000002861023,-21.533000946044922 -1.347000002861023,-21.533000946044922 C-1.347000002861023,-21.533000946044922 -10.633000373840332,-25.062000274658203 -10.633000373840332,-25.062000274658203z"></path></g><g opacity="1" transform="matrix(1,0,0,1,197.61199951171875,107.25100708007812)"><path fill="rgb(255,241,233)" fill-opacity="1" d=" M130.04200744628906,95.49199676513672 C130.04200744628906,95.49199676513672 111.08799743652344,126.13600158691406 77.56800079345703,132.87899780273438 C59.45399856567383,136.5229949951172 55.79899978637695,137.42799377441406 25.464000701904297,138.81199645996094 C11.51099967956543,139.44900512695312 -15.015000343322754,137.40499877929688 -31.760000228881836,133.21099853515625 C-96.46900177001953,117.00499725341797 -106.33200073242188,104.00800323486328 -106.33200073242188,104.00800323486328 C-106.33200073242188,104.00800323486328 -108.08999633789062,98.21199798583984 -89.52999877929688,106.66799926757812 C-66.03199768066406,117.3740005493164 -32.23099899291992,127.45099639892578 6.701000213623047,131.28799438476562 C19.615999221801758,132.56100463867188 43.24800109863281,134.406005859375 57.55400085449219,132.8280029296875 C85.33499908447266,129.76300048828125 102.3010025024414,123.79399871826172 109.51599884033203,113.17400360107422 C117.23200225830078,101.81700134277344 130.04200744628906,95.49199676513672 130.04200744628906,95.49199676513672z"></path></g><g opacity="1" transform="matrix(1,0,0,1,229.99899291992188,313.3710021972656)"><path fill="rgb(245,157,97)" fill-opacity="1" d=" M-89.69400024414062,-49.68899917602539 C-89.69400024414062,-49.68899917602539 -80.3759994506836,-19.010000228881836 -65.83399963378906,-4.7789998054504395 C-53.737998962402344,7.059999942779541 -15.880000114440918,30.305999755859375 -1.0570000410079956,37.30500030517578 C13.763999938964844,44.30400085449219 48.76900100708008,51.060001373291016 62.0099983215332,49.345001220703125 C68.55599975585938,48.49599838256836 87.89399719238281,43.21699905395508 87.89399719238281,43.21699905395508 C87.89399719238281,43.21699905395508 76.45600128173828,57.38399887084961 45.74599838256836,56.444000244140625 C3.7100000381469727,55.15700149536133 -41.20399856567383,20.30900001525879 -51.547000885009766,12.920999526977539 C-66.70700073242188,2.0929999351501465 -82.81400299072266,-3.6429998874664307 -87.76499938964844,-23.444000244140625 C-90.7750015258789,-35.48699951171875 -89.69400024414062,-49.68899917602539 -89.69400024414062,-49.68899917602539z"></path></g><g opacity="1" transform="matrix(1,0,0,1,150.7449951171875,281.1470031738281)"><path stroke-linecap="round" stroke-linejoin="round" fill-opacity="0" stroke="rgb(188,85,31)" stroke-opacity="1" stroke-width="9" d=" M-14.63599967956543,-11.961999893188477 C-14.63599967956543,-11.961999893188477 -13.574000358581543,9.406999588012695 -8.03499984741211,19.673999786376953 C-0.22699999809265137,34.14699935913086 11.984000205993652,40.37099838256836 11.984000205993652,40.37099838256836"></path></g></g><g style="display: block;" transform="matrix(1.3726880550384521,-0.12539032101631165,0.14723043143749237,1.1090710163116455,-81.24214172363281,83.1362075805664)" opacity="1"><g opacity="1" transform="matrix(0.9096099734306335,0,0,0.905019998550415,17.06005859375,16.374786376953125)"><g opacity="1" transform="matrix(1,0,0,1,221.65699768066406,214.7429962158203)"><path fill="rgb(255,248,249)" fill-opacity="1" d=" M-29.007999420166016,4.461999893188477 C-28.878999710083008,7.040999889373779 -27.167999267578125,8.789999961853027 -25.267000198364258,10.538999557495117 C-21.158000946044922,14.317999839782715 -10.239999771118164,13.026000022888184 -2.5199999809265137,13.560999870300293 C14.970999717712402,14.770999908447266 21.607999801635742,14.48799991607666 23.990999221801758,13.043999671936035 C26.062999725341797,11.788999557495117 26.902999877929688,8.913999557495117 27.009000778198242,6.636000156402588 C27.131000518798828,4.011000156402588 25.493000030517578,-0.24699999392032623 24.014999389648438,-1.2869999408721924 C19.91699981689453,-4.171000003814697 16.465999603271484,-8.74899959564209 3.255000114440918,-11.946999549865723 C-1.5199999809265137,-13.102999687194824 -3.865000009536743,-12.885000228881836 -9.961999893188477,-12.482999801635742 C-13.876999855041504,-12.225000381469727 -21.71500015258789,-7.539000034332275 -25.270999908447266,-4.090000152587891 C-28.31100082397461,-1.1410000324249268 -29.20599937438965,0.5220000147819519 -29.007999420166016,4.461999893188477z"></path><path stroke-linecap="round" stroke-linejoin="round" fill-opacity="0" stroke="rgb(85,24,14)" stroke-opacity="1" stroke-width="6" d=" M-29.007999420166016,4.461999893188477 C-28.878999710083008,7.040999889373779 -27.167999267578125,8.789999961853027 -25.267000198364258,10.538999557495117 C-21.158000946044922,14.317999839782715 -10.239999771118164,13.026000022888184 -2.5199999809265137,13.560999870300293 C14.970999717712402,14.770999908447266 21.607999801635742,14.48799991607666 23.990999221801758,13.043999671936035 C26.062999725341797,11.788999557495117 26.902999877929688,8.913999557495117 27.009000778198242,6.636000156402588 C27.131000518798828,4.011000156402588 25.493000030517578,-0.24699999392032623 24.014999389648438,-1.2869999408721924 C19.91699981689453,-4.171000003814697 16.465999603271484,-8.74899959564209 3.255000114440918,-11.946999549865723 C-1.5199999809265137,-13.102999687194824 -3.865000009536743,-12.885000228881836 -9.961999893188477,-12.482999801635742 C-13.876999855041504,-12.225000381469727 -21.71500015258789,-7.539000034332275 -25.270999908447266,-4.090000152587891 C-28.31100082397461,-1.1410000324249268 -29.20599937438965,0.5220000147819519 -29.007999420166016,4.461999893188477z"></path></g><g opacity="1" transform="matrix(1,0,0,1,222.37899780273438,213.56300354003906)"><path fill="rgb(38,18,14)" fill-opacity="1" d=" M16.499000549316406,3.1530001163482666 C15.29699993133545,13.63700008392334 9.595999717712402,15.189000129699707 -1.7890000343322754,14.486000061035156 C-12.980999946594238,13.795000076293945 -17.298999786376953,8.994000434875488 -17.326000213623047,0.6949999928474426 C-17.363000869750977,-10.692999839782715 -9.135000228881836,-9.607000350952148 -1.6699999570846558,-9.152999877929688 C5.796000003814697,-8.699000358581543 17.604999542236328,-6.494999885559082 16.499000549316406,3.1530001163482666z"></path></g><g opacity="1" transform="matrix(1,0,0,1,230.09300231933594,236.10000610351562)"><path stroke-linecap="round" stroke-linejoin="round" fill-opacity="0" stroke="rgb(188,86,32)" stroke-opacity="0.47000000000000003" stroke-width="6.048" d=" M-15.46399974822998,4.203999996185303 C-15.46399974822998,4.203999996185303 -8.8100004196167,4.492000102996826 -0.4519999921321869,4.492000102996826 C6.535999774932861,4.492000102996826 12.505000114440918,4.314000129699707 14.994000434875488,3.677000045776367 C17.493000030517578,3.0369999408721924 20.388999938964844,0.1379999965429306 20.388999938964844,0.1379999965429306"></path></g><g opacity="1" transform="matrix(1,0,0,1,223.97999572753906,216.83999633789062)"><path fill="rgb(108,51,46)" fill-opacity="1" d=" M-6.35699987411499,-1.3839999437332153 C-6.35699987411499,-1.3839999437332153 1.815999984741211,-4.03000020980835 5.063000202178955,-3.5910000801086426 C8.3100004196167,-3.1530001163482666 8.119000434875488,1.597000002861023 6.460999965667725,2.73799991607666 C4.804999828338623,3.878000020980835 0.8759999871253967,4.03000020980835 -2.325000047683716,3.255000114440918 C-5.5269999504089355,2.4809999465942383 -7.945000171661377,1.472000002861023 -8.128000259399414,0.5950000286102295 C-8.3100004196167,-0.28299999237060547 -6.35699987411499,-1.3839999437332153 -6.35699987411499,-1.3839999437332153z"></path></g><g opacity="1" transform="matrix(1,0,0,1,233.98199462890625,217.2050018310547)"><path fill="rgb(255,239,244)" fill-opacity="1" d=" M-0.5690000057220459,-0.24799999594688416 C-0.6600000262260437,1.2569999694824219 -2.005000114440918,2.4000000953674316 -3.572000026702881,2.305000066757202 C-5.139999866485596,2.2100000381469727 -6.335999965667725,0.9120000004768372 -6.244999885559082,-0.5929999947547913 C-6.1529998779296875,-2.0989999771118164 -4.808000087738037,-3.240999937057495 -3.240999937057495,-3.1459999084472656 C-1.6729999780654907,-3.0510001182556152 -0.47699999809265137,-1.753000020980835 -0.5690000057220459,-0.24799999594688416z"></path></g><g opacity="1" transform="matrix(1,0,0,1,221.65699768066406,214.7429962158203)"><path stroke-linecap="round" stroke-linejoin="round" fill-opacity="0" stroke="rgb(85,24,14)" stroke-opacity="1" stroke-width="6" d=" M-29.007999420166016,4.461999893188477 C-28.878999710083008,7.040999889373779 -27.167999267578125,8.789999961853027 -25.267000198364258,10.538999557495117 C-21.158000946044922,14.317999839782715 -10.239999771118164,13.026000022888184 -2.5199999809265137,13.560999870300293 C14.970999717712402,14.770999908447266 21.607999801635742,14.48799991607666 23.990999221801758,13.043999671936035 C26.062999725341797,11.788999557495117 26.902999877929688,8.913999557495117 27.009000778198242,6.636000156402588 C27.131000518798828,4.011000156402588 25.493000030517578,-0.24699999392032623 24.014999389648438,-1.2869999408721924 C19.91699981689453,-4.171000003814697 16.465999603271484,-8.74899959564209 3.255000114440918,-11.946999549865723 C-1.5199999809265137,-13.102999687194824 -3.865000009536743,-12.885000228881836 -9.961999893188477,-12.482999801635742 C-13.876999855041504,-12.225000381469727 -21.71500015258789,-7.539000034332275 -25.270999908447266,-4.090000152587891 C-28.31100082397461,-1.1410000324249268 -29.20599937438965,0.5220000147819519 -29.007999420166016,4.461999893188477z"></path></g></g></g><g style="display: none;"><g><path stroke-linecap="round" stroke-linejoin="round" fill-opacity="0"></path></g><g><path stroke-linecap="round" stroke-linejoin="round" fill-opacity="0"></path></g></g><g style="display: block;" transform="matrix(1.5022350549697876,-0.43443480134010315,0.4669257402420044,1.0703091621398926,356.7958679199219,314.1792297363281)" opacity="1"><g opacity="1" transform="matrix(1,0,0,1,0,0)"><path fill="rgb(255,255,255)" fill-opacity="1" d=" M48.047584533691406,-47.41102600097656 C41.645355224609375,-47.49470520019531 30.250446319580078,-45.2559814453125 28.21747589111328,-39.334022521972656 C27.40205955505371,-36.98819351196289 28.1854305267334,-36.39900588989258 27.857881546020508,-34.468074798583984 C27.412948608398438,-31.890010833740234 30.36074447631836,-29.821578979492188 30.50574493408203,-29.821578979492188 C30.677745819091797,-29.821578979492188 37.1725959777832,-28.627195358276367 39.29092025756836,-28.544967651367188 C49.0245246887207,-28.171680450439453 52.70145797729492,-25.730335235595703 58.691104888916016,-27.0820369720459 C62.19538116455078,-27.87998390197754 61.22010803222656,-33.5143928527832 59.603580474853516,-37.2397575378418 C57.583892822265625,-41.9193000793457 53.96413803100586,-47.333984375 48.047584533691406,-47.41102600097656z"></path><path stroke-linecap="round" stroke-linejoin="round" fill-opacity="0" stroke="rgb(84,24,14)" stroke-opacity="1" stroke-width="5.6" d=" M48.047584533691406,-47.41102600097656 C41.645355224609375,-47.49470520019531 30.250446319580078,-45.2559814453125 28.21747589111328,-39.334022521972656 C27.40205955505371,-36.98819351196289 28.1854305267334,-36.39900588989258 27.857881546020508,-34.468074798583984 C27.412948608398438,-31.890010833740234 30.36074447631836,-29.821578979492188 30.50574493408203,-29.821578979492188 C30.677745819091797,-29.821578979492188 37.1725959777832,-28.627195358276367 39.29092025756836,-28.544967651367188 C49.0245246887207,-28.171680450439453 52.70145797729492,-25.730335235595703 58.691104888916016,-27.0820369720459 C62.19538116455078,-27.87998390197754 61.22010803222656,-33.5143928527832 59.603580474853516,-37.2397575378418 C57.583892822265625,-41.9193000793457 53.96413803100586,-47.333984375 48.047584533691406,-47.41102600097656z"></path></g><g opacity="1" transform="matrix(1,0,0,1,0,0)"><path stroke-linecap="round" stroke-linejoin="round" fill-opacity="0" stroke="rgb(188,86,32)" stroke-opacity="0.46" stroke-width="6" d=" M28.05299949645996,-20.33099937438965 C28.05299949645996,-20.33099937438965 30.082000732421875,-17.575000762939453 32.141998291015625,-16.54599952697754 C34.20199966430664,-15.517000198364258 41.5629997253418,-13.88599967956543 44.790000915527344,-13.572999954223633 C48.016998291015625,-13.260000228881836 49.632999420166016,-13.22700023651123 49.632999420166016,-13.22700023651123"></path></g><g opacity="1" transform="matrix(1,0,0,1,0,0)"><path fill="rgb(38,17,14)" fill-opacity="1" d=" M44.189022064208984,-45.73981857299805 C41.63829803466797,-45.07457733154297 39.98819351196289,-43.13725662231445 39.98819351196289,-43.13725662231445 C39.98819351196289,-43.13725662231445 36.59992599487305,-34.640174865722656 41.40202713012695,-31.13385581970215 C46.22139358520508,-27.627098083496094 53.11091613769531,-27.670141220092773 55.005916595458984,-30.346139907836914 C56.900917053222656,-33.02214050292969 57.229637145996094,-39.34162139892578 54.722904205322266,-41.84199523925781 C52.201026916503906,-44.347625732421875 46.75753402709961,-46.398033142089844 44.189022064208984,-45.73981857299805z"></path></g><g opacity="1" transform="matrix(1,0,0,1,0,0)"><path fill="rgb(109,51,47)" fill-opacity="1" d=" M47.28464889526367,-38.532997131347656 C47.28464889526367,-38.532997131347656 44.0248908996582,-36.46445846557617 46.243648529052734,-34.7189826965332 C48.45888900756836,-32.97523880004883 50.50230026245117,-32.29047393798828 52.592647552490234,-32.66298294067383 C54.674095153808594,-33.036102294921875 55.18287658691406,-38.33507537841797 51.999874114990234,-39.04307556152344 C48.81687545776367,-39.751075744628906 47.28464889526367,-38.532997131347656 47.28464889526367,-38.532997131347656z"></path></g><g opacity="1" transform="matrix(1,0,0,1,0,0)"><path fill="rgb(255,255,255)" fill-opacity="1" d=" M51.98699951171875,-38.35300064086914 C50.2599983215332,-38.6349983215332 49.71799850463867,-37.4119987487793 49.71799850463867,-37.4119987487793 C49.71799850463867,-37.4119987487793 48.60100173950195,-36.262001037597656 49.96799850463867,-35.24700164794922 C51.334999084472656,-34.231998443603516 54.27399826049805,-33.86399841308594 54.18899917602539,-35.59299850463867 C54.104000091552734,-37.321998596191406 53.7140007019043,-38.07099914550781 51.98699951171875,-38.35300064086914z"></path></g><g opacity="1" transform="matrix(1,0,0,1,0,0)"><path stroke-linecap="round" stroke-linejoin="round" fill-opacity="0" stroke="rgb(84,24,14)" stroke-opacity="1" stroke-width="5.6" d=" M48.047584533691406,-47.41102600097656 C41.645355224609375,-47.49470520019531 30.250446319580078,-45.2559814453125 28.21747589111328,-39.334022521972656 C27.40205955505371,-36.98819351196289 28.1854305267334,-36.39900588989258 27.857881546020508,-34.468074798583984 C27.412948608398438,-31.890010833740234 30.36074447631836,-29.821578979492188 30.50574493408203,-29.821578979492188 C30.677745819091797,-29.821578979492188 37.1725959777832,-28.627195358276367 39.29092025756836,-28.544967651367188 C49.0245246887207,-28.171680450439453 52.70145797729492,-25.730335235595703 58.691104888916016,-27.0820369720459 C62.19538116455078,-27.87998390197754 61.22010803222656,-33.5143928527832 59.603580474853516,-37.2397575378418 C57.583892822265625,-41.9193000793457 53.96413803100586,-47.333984375 48.047584533691406,-47.41102600097656z"></path></g></g><g style="display: block;" transform="matrix(1.3726880550384521,-0.12539032101631165,0.14723043143749237,1.1090710163116455,-81.24214172363281,83.1362075805664)" opacity="1"><g opacity="0" transform="matrix(1,0,0,1,180.7779998779297,254.5229949951172)"><path stroke-linecap="round" stroke-linejoin="round" fill-opacity="0" stroke="rgb(221,135,102)" stroke-opacity="1" stroke-width="6.048" d=" M7.199999809265137,-8.10200023651123 C7.199999809265137,-8.10200023651123 8.314000129699707,-6.006999969482422 11.012999534606934,-1.0069999694824219 C12.720000267028809,2.1549999713897705 17.06100082397461,4.355999946594238 17.06100082397461,4.355999946594238"></path></g></g><g style="display: block;" transform="matrix(1.3193484544754028,-0.13652880489826202,0.16394753754138947,1.0888638496398926,337.7593688964844,259.49493408203125)" opacity="1"><g opacity="1" transform="matrix(1,0,0,1,0,0)"><path stroke-linecap="round" stroke-linejoin="round" fill-opacity="0" stroke="rgb(211,127,90)" stroke-opacity="1" stroke-width="6" d=" M52.638999938964844,70.08899688720703 C52.638999938964844,70.08899688720703 51.10900115966797,48.474998474121094 48.525001525878906,43.58000183105469 C45.941001892089844,38.685001373291016 42.861000061035156,35.768001556396484 42.861000061035156,35.768001556396484"></path></g><g opacity="1" transform="matrix(1,0,0,1,0,0)"><path stroke-linecap="round" stroke-linejoin="miter" fill-opacity="0" stroke-miterlimit="4" stroke="rgb(188,86,32)" stroke-opacity="1" stroke-width="7" d=" M19.90999984741211,-0.6359999775886536 C19.90999984741211,-0.6359999775886536 19.256000518798828,14.645000457763672 28.844999313354492,21.617000579833984 C38.770999908447266,28.83300018310547 45.47100067138672,28.041000366210938 44.56800079345703,38.513999938964844 C43.68299865722656,48.77799987792969 34.816001892089844,50.52399826049805 32.683998107910156,50.334999084472656 C28.656999588012695,49.979000091552734 33.41299819946289,61.18600082397461 33.14099884033203,54.117000579833984"></path></g></g><g style="display: block;" transform="matrix(1.372693419456482,-0.12539079785346985,0.12164520472288132,0.9163402915000916,-70.95794677734375,65.81085968017578)" opacity="1"><g opacity="1" transform="matrix(1,0,0,1,236.01800537109375,287.7149963378906)"><path stroke-linecap="round" stroke-linejoin="round" fill-opacity="0" stroke="rgb(211,126,89)" stroke-opacity="1" stroke-width="6" d=" M10.868000030517578,13.267999649047852 C10.868000030517578,13.267999649047852 8.383999824523926,18.84000015258789 2.5769999027252197,29.180999755859375 C-3.2290000915527344,39.52199935913086 -1.246000051498413,48.6349983215332 -2.242000102996826,54.06100082397461 C-2.7109999656677246,56.61800003051758 -1.9769999980926514,63.99700164794922 -1.9769999980926514,63.99700164794922"></path></g></g><g style="display: block;" transform="matrix(1.1513500213623047,0,0,1.1513500213623047,23.807296752929688,-32.7099609375)" opacity="1"><g opacity="1" transform="matrix(1,0,0,1,0,1.923004150390625)"><g opacity="1" transform="matrix(1,0,0,1,189.8520050048828,414.7909851074219)"><path fill="url(#__lottie_element_21)" mask="url(#__lottie_element_23)" fill-opacity="1" d="M0 0 M176.33999633789062,-8.76099967956543 C176.33999633789062,-8.76099967956543 155.0240020751953,-15.293999671936035 120.47799682617188,-19.19499969482422 C110.95800018310547,-20.270000457763672 102.12899780273438,-20.81599998474121 97.35399627685547,-21.70199966430664 C86.1729965209961,-23.777000427246094 86.63899993896484,-22.71500015258789 86.63899993896484,-22.71500015258789 C86.63899993896484,-22.71500015258789 12.586999893188477,4.624000072479248 12.586999893188477,4.624000072479248 C8.413999557495117,6.354000091552734 4.4039998054504395,5.741000175476074 0.08900000154972076,4.40500020980835 C-21.61400032043457,-2.319000005722046 -88.77899932861328,-25.785999298095703 -108.52899932861328,-24.767000198364258 C-115.52799987792969,-24.4060001373291 -127.24400329589844,-19.93600082397461 -135.2270050048828,-15.581000328063965 C-143.2100067138672,-11.22700023651123 -147.7899932861328,-10.71500015258789 -154.8699951171875,-8.979999542236328 C-164.24099731445312,-6.683000087738037 -162.69500732421875,-3.7190001010894775 -162.69500732421875,-3.7190001010894775 C-162.69500732421875,-3.7190001010894775 -158.72300720214844,11.642000198364258 -152.91799926757812,18.174999237060547 C-147.11199951171875,24.70599937438965 -75.71600341796875,24.334999084472656 21.534000396728516,25.059999465942383 C118.78299713134766,25.785999298095703 168.61099243164062,16.14900016784668 174.41700744628906,7.440999984741211 C180.22300720214844,-1.2680000066757202 176.33999633789062,-8.76099967956543 176.33999633789062,-8.76099967956543z"></path></g><g opacity="1" transform="matrix(1,0,0,1,189.8520050048828,414.7909851074219)"><path fill="url(#__lottie_element_24)" mask="url(#__lottie_element_26)" fill-opacity="1" d="M0 0 M176.33999633789062,-8.76099967956543 C176.33999633789062,-8.76099967956543 155.0240020751953,-15.293999671936035 120.47799682617188,-19.19499969482422 C110.95800018310547,-20.270000457763672 102.12899780273438,-20.81599998474121 97.35399627685547,-21.70199966430664 C86.1729965209961,-23.777000427246094 86.63899993896484,-22.71500015258789 86.63899993896484,-22.71500015258789 C86.63899993896484,-22.71500015258789 12.586999893188477,4.624000072479248 12.586999893188477,4.624000072479248 C8.413999557495117,6.354000091552734 4.4039998054504395,5.741000175476074 0.08900000154972076,4.40500020980835 C-21.61400032043457,-2.319000005722046 -88.77899932861328,-25.785999298095703 -108.52899932861328,-24.767000198364258 C-115.52799987792969,-24.4060001373291 -127.24400329589844,-19.93600082397461 -135.2270050048828,-15.581000328063965 C-143.2100067138672,-11.22700023651123 -147.7899932861328,-10.71500015258789 -154.8699951171875,-8.979999542236328 C-164.24099731445312,-6.683000087738037 -162.69500732421875,-3.7190001010894775 -162.69500732421875,-3.7190001010894775 C-162.69500732421875,-3.7190001010894775 -158.72300720214844,11.642000198364258 -152.91799926757812,18.174999237060547 C-147.11199951171875,24.70599937438965 -75.71600341796875,24.334999084472656 21.534000396728516,25.059999465942383 C118.78299713134766,25.785999298095703 168.61099243164062,16.14900016784668 174.41700744628906,7.440999984741211 C180.22300720214844,-1.2680000066757202 176.33999633789062,-8.76099967956543 176.33999633789062,-8.76099967956543z"></path></g><g opacity="1" transform="matrix(1,0,0,1,189.8520050048828,414.7909851074219)"><path stroke-linecap="butt" stroke-linejoin="miter" fill-opacity="0" stroke-miterlimit="10" stroke="rgb(188,86,32)" stroke-opacity="1" stroke-width="10" d=" M176.33999633789062,-8.76099967956543 C176.33999633789062,-8.76099967956543 155.0240020751953,-15.293999671936035 120.47799682617188,-19.19499969482422 C110.95800018310547,-20.270000457763672 102.12999725341797,-20.81599998474121 97.3550033569336,-21.70199966430664 C86.17400360107422,-23.777000427246094 86.63899993896484,-22.71500015258789 86.63899993896484,-22.71500015258789 C86.63899993896484,-22.71500015258789 12.586999893188477,4.624000072479248 12.586999893188477,4.624000072479248 C8.413999557495117,6.354000091552734 4.4039998054504395,5.741000175476074 0.08900000154972076,4.40500020980835 C-21.61400032043457,-2.319000005722046 -88.77899932861328,-25.785999298095703 -108.52899932861328,-24.767000198364258 C-115.52799987792969,-24.4060001373291 -121.74400329589844,-22.43600082397461 -129.7270050048828,-18.08099937438965 C-137.7100067138672,-13.72700023651123 -140.00999450683594,-13.444999694824219 -146.8699951171875,-10.979999542236328 C-154.3520050048828,-8.291000366210938 -157.69500732421875,-6.218999862670898 -157.69500732421875,-6.218999862670898 C-157.69500732421875,-6.218999862670898 -152.22300720214844,7.642000198364258 -146.41799926757812,14.175000190734863 C-140.61199951171875,20.70599937438965 -75.71700286865234,24.334999084472656 21.533000946044922,25.059999465942383 C118.78199768066406,25.785999298095703 168.61099243164062,16.14900016784668 174.41700744628906,7.440999984741211 C180.22300720214844,-1.2680000066757202 176.33999633789062,-8.76099967956543 176.33999633789062,-8.76099967956543z"></path></g><g opacity="1" transform="matrix(1,0,0,1,190.38699340820312,408.44000244140625)"><path fill="url(#__lottie_element_27)" mask="url(#__lottie_element_29)" fill-opacity="1" d="M0 0 M-109.06999969482422,-14.168999671936035 C-109.06999969482422,-14.168999671936035 -90.18900299072266,-8.928000450134277 -87.95999908447266,-13.942999839782715 C-86.38800048828125,-17.479999542236328 -104.33100128173828,-19.64900016784668 -102.16300201416016,-22.059999465942383 C-99.11399841308594,-25.445999145507812 -43.39500045776367,-16.476999282836914 -19.332000732421875,-11.333000183105469 C-3.812999963760376,-8.015999794006348 4.480000019073486,4.249000072479248 4.480000019073486,4.249000072479248 C4.480000019073486,4.249000072479248 13.425000190734863,3.4509999752044678 13.425000190734863,3.4509999752044678 C13.425000190734863,3.4509999752044678 42.76900100708008,-9.199000358581543 42.76900100708008,-9.199000358581543 C42.76900100708008,-9.199000358581543 83.29100036621094,-21.089000701904297 83.29100036621094,-21.089000701904297 C83.29100036621094,-21.089000701904297 83.3740005493164,-17.827999114990234 87.53199768066406,-15.442999839782715 C95.25499725341797,-11.012999534606934 109.9010009765625,-9.548999786376953 109.9010009765625,-9.548999786376953 C109.9010009765625,-9.548999786376953 93.10399627685547,-6.715000152587891 93.10399627685547,-6.715000152587891 C93.10399627685547,-6.715000152587891 84.00299835205078,-0.7710000276565552 84.00299835205078,-0.7710000276565552 C84.00299835205078,-0.7710000276565552 -2.640000104904175,25.44700050354004 -2.640000104904175,25.44700050354004 C-2.640000104904175,25.44700050354004 -109.9010009765625,-5.599999904632568 -109.9010009765625,-5.599999904632568 C-109.9010009765625,-5.599999904632568 -109.06999969482422,-14.168999671936035 -109.06999969482422,-14.168999671936035z"></path></g><g opacity="1" transform="matrix(1,0,0,1,190.38699340820312,408.44000244140625)"><path fill="url(#__lottie_element_30)" mask="url(#__lottie_element_32)" fill-opacity="1" d="M0 0 M-109.06999969482422,-14.168999671936035 C-109.06999969482422,-14.168999671936035 -90.18900299072266,-8.928000450134277 -87.95999908447266,-13.942999839782715 C-86.38800048828125,-17.479999542236328 -104.33100128173828,-19.64900016784668 -102.16300201416016,-22.059999465942383 C-99.11399841308594,-25.445999145507812 -43.39500045776367,-16.476999282836914 -19.332000732421875,-11.333000183105469 C-3.812999963760376,-8.015999794006348 4.480000019073486,4.249000072479248 4.480000019073486,4.249000072479248 C4.480000019073486,4.249000072479248 13.425000190734863,3.4509999752044678 13.425000190734863,3.4509999752044678 C13.425000190734863,3.4509999752044678 42.76900100708008,-9.199000358581543 42.76900100708008,-9.199000358581543 C42.76900100708008,-9.199000358581543 83.29100036621094,-21.089000701904297 83.29100036621094,-21.089000701904297 C83.29100036621094,-21.089000701904297 83.3740005493164,-17.827999114990234 87.53199768066406,-15.442999839782715 C95.25499725341797,-11.012999534606934 109.9010009765625,-9.548999786376953 109.9010009765625,-9.548999786376953 C109.9010009765625,-9.548999786376953 93.10399627685547,-6.715000152587891 93.10399627685547,-6.715000152587891 C93.10399627685547,-6.715000152587891 84.00299835205078,-0.7710000276565552 84.00299835205078,-0.7710000276565552 C84.00299835205078,-0.7710000276565552 -2.640000104904175,25.44700050354004 -2.640000104904175,25.44700050354004 C-2.640000104904175,25.44700050354004 -109.9010009765625,-5.599999904632568 -109.9010009765625,-5.599999904632568 C-109.9010009765625,-5.599999904632568 -109.06999969482422,-14.168999671936035 -109.06999969482422,-14.168999671936035z"></path></g><g opacity="1" transform="matrix(1,0,0,1,197.03900146484375,410.697998046875)"><path stroke-linecap="round" stroke-linejoin="round" fill-opacity="0" stroke="rgb(215,125,85)" stroke-opacity="1" stroke-width="7.056" d=" M-32.29600143432617,-9.01200008392334 C-32.29600143432617,-9.01200008392334 -16.91900062561035,-9.562000274658203 -10.878000259399414,-5.168000221252441 C-4.835999965667725,-0.7749999761581421 -5.934999942779541,6.364999771118164 0.10700000077486038,7.464000225067139 C6.1479997634887695,8.562000274658203 13.836999893188477,8.562000274658203 13.836999893188477,5.267000198364258 C13.836999893188477,1.9709999561309814 20.427000045776367,-6.815999984741211 25.91900062561035,-6.815999984741211 C31.410999298095703,-6.815999984741211 42.79600143432617,-9.265999794006348 42.79600143432617,-9.265999794006348"></path></g><g opacity="1" transform="matrix(1,0,0,1,189.5070037841797,426.4429931640625)"><path fill="url(#__lottie_element_33)" mask="url(#__lottie_element_35)" fill-opacity="1" d="M0 0 M-162.63699340820312,-16.576000213623047 C-162.63699340820312,-16.576000213623047 -142.08999633789062,-19.441999435424805 -142.08999633789062,-19.441999435424805 C-142.08999633789062,-19.441999435424805 -138.35800170898438,-12.619999885559082 -136.16099548339844,-11.887999534606934 C-133.96499633789062,-11.154999732971191 -102.1240005493164,2.8369998931884766 -77.22699737548828,5.400000095367432 C-52.33000183105469,7.9629998207092285 135.86199951171875,-0.45899999141693115 149.77499389648438,-4.486000061035156 C158.54600524902344,-7.02400016784668 166.13600158691406,-15.4399995803833 172.5659942626953,-17.117000579833984 C174.67100524902344,-17.66699981689453 177.9669952392578,-15.652999877929688 179.43099975585938,-18.215999603271484 C180.38499450683594,-19.885000228881836 179.43099975585938,-23.52400016784668 179.43099975585938,-23.52400016784668 C179.43099975585938,-23.52400016784668 182.62100219726562,-19.804000854492188 183.00100708007812,-17.392000198364258 C184.13699340820312,-10.164999961853027 180.8040008544922,3.385999917984009 163.22999572753906,7.046999931335449 C145.656005859375,10.708000183105469 72.89199829101562,22.417999267578125 -18.82900047302246,22.974000930786133 C-109.44599914550781,23.52400016784668 -141.37399291992188,20.02400016784668 -156.20199584960938,6.8429999351501465 C-163.46499633789062,0.3869999945163727 -162.63699340820312,-16.576000213623047 -162.63699340820312,-16.576000213623047z"></path></g><g opacity="1" transform="matrix(1,0,0,1,320.75799560546875,405.4010009765625)"><path fill="rgb(255,241,233)" fill-opacity="1" d=" M-48.3129997253418,-9.914999961853027 C-48.3129997253418,-9.914999961853027 -13.713000297546387,-4.431000232696533 4.8520002365112305,-1.0549999475479126 C23.417999267578125,2.319999933242798 48.3129997253418,9.914999961853027 48.3129997253418,9.914999961853027 C48.3129997253418,9.914999961853027 23.417999267578125,-3.5869998931884766 -3.5859999656677246,-6.118000030517578 C-30.590999603271484,-8.649999618530273 -48.3129997253418,-9.914999961853027 -48.3129997253418,-9.914999961853027z"></path></g></g></g><g style="display: block;" transform="matrix(1.143066644668579,-0.13786070048809052,0.13786070048809052,1.143066644668579,-1.307586669921875,-30.543731689453125)" opacity="1"><g opacity="0" transform="matrix(1,0,0,1,213.78900146484375,189.6179962158203)"><path fill="rgb(246,158,98)" fill-opacity="1" d=" M-60.85300064086914,59.72700119018555 C-60.85300064086914,59.72700119018555 -53.422000885009766,63.17900085449219 -36.67100143432617,66.4739990234375 C-19.92099952697754,69.7699966430664 -2.13700008392334,72.07099914550781 2.9670000076293945,74.11699676513672 C16.88800048828125,79.6969985961914 29.18899917602539,77.39700317382812 29.18899917602539,77.39700317382812 C29.18899917602539,77.39700317382812 14.460000038146973,74.36499786376953 8.13700008392334,72.03299713134766 C1.812999963760376,69.7020034790039 -20.82200050354004,65.96299743652344 -40.518001556396484,62.42300033569336 C-55.69200134277344,59.69599914550781 -69.78099822998047,56.00199890136719 -69.78099822998047,56.00199890136719 C-69.78099822998047,56.00199890136719 -60.85300064086914,59.72700119018555 -60.85300064086914,59.72700119018555z"></path></g><g opacity="0" transform="matrix(1,0,0,1,216.33799743652344,182.13099670410156)"><path stroke-linecap="round" stroke-linejoin="round" fill-opacity="0" stroke="rgb(98,36,29)" stroke-opacity="0.08750000000000001" stroke-width="4" d=" M-72.48246765136719,62.56816864013672 C-72.48246765136719,62.56816864013672 -63.74775314331055,65.17269134521484 -36.71575164794922,69.90169525146484 C-17.71175193786621,73.22569274902344 -4.228752136230469,76.32381439208984 0.7182477712631226,78.08281707763672 C11.845248222351074,82.0398178100586 23.904434204101562,81.68614196777344 23.904434204101562,81.68614196777344"></path></g><g opacity="0" transform="matrix(1,0,0,1,0,0)"><path fill="rgb(246,158,98)" fill-opacity="1" d=" M292.2793884277344,245.8308868408203 C289.3883972167969,245.5828857421875 285.8924865722656,251.83998107910156 285.8924865722656,251.83998107910156 C285.8924865722656,251.83998107910156 279.9173889160156,257.0379943847656 284.0924072265625,254.6849822998047 C288.5674133300781,252.16297912597656 301.6083984375,244.82888793945312 312.5343933105469,239.962890625 C322.9684143066406,235.31588745117188 328.31341552734375,238.14698791503906 336.3984069824219,238.39898681640625 C343.7744140625,238.6289825439453 339.285400390625,233.78488159179688 339.285400390625,233.78488159179688 C339.285400390625,233.78488159179688 337.10040283203125,239.8638916015625 325.16241455078125,234.0498809814453 C313.2243957519531,228.2358856201172 298.5594177246094,246.36988830566406 292.2793884277344,245.8308868408203z"></path></g><g opacity="1" transform="matrix(1,0,0,1,0,-5.824999809265137)"><path stroke-linecap="round" stroke-linejoin="round" fill-opacity="0" stroke="rgb(99,37,29)" stroke-opacity="0" stroke-width="3" d=" M286.6007995605469,256.9622497558594 C286.6007995605469,256.9622497558594 294.43145751953125,252.0518341064453 298.80767822265625,250.42417907714844 C308.22015380859375,246.84559631347656 317.71844482421875,240.1341094970703 321.67724609375,239.82443237304688 C335.9361877441406,238.9845733642578 338.2074890136719,240.9438018798828 338.2074890136719,240.9438018798828"></path></g><g opacity="1" transform="matrix(1,0,0,1,0,-5.824999809265137)"><path stroke-linecap="round" stroke-linejoin="round" fill-opacity="0" stroke="rgb(216,135,100)" stroke-opacity="0.6900000000000001" stroke-width="7" d=" M253.78392028808594,303.22296142578125 C253.78392028808594,303.22296142578125 254.27781677246094,303.0780334472656 255.0323028564453,308.2158203125 C255.78367614746094,313.33270263671875 254.9175567626953,314.4964294433594 254.9175567626953,314.4964294433594"></path></g><g opacity="0" transform="matrix(1,0,0,1,0,0)"><path stroke-linecap="round" stroke-linejoin="round" fill-opacity="0" stroke="rgb(216,135,100)" stroke-opacity="1" stroke-width="7" d=" M277.3420104980469,251.16000366210938 C277.3420104980469,251.16000366210938 277.7149963378906,249.52000427246094 276.73699951171875,251.3719940185547 C276.2539978027344,252.28500366210938 276.9739990234375,252.39199829101562 276.9739990234375,252.39199829101562"></path></g></g><g style="display: block;" transform="matrix(1.372693419456482,-0.12539079785346985,0.14723101258277893,1.1090754270553589,-79.44532775878906,17.21901512145996)" opacity="1"><g opacity="1" transform="matrix(1,0,0,1,0,0)"><g opacity="1" transform="matrix(0.9946650862693787,-0.10315711051225662,0.10315711051225662,0.9946650862693787,-20.96759033203125,42.57379150390625)"><g opacity="1" transform="matrix(1,0,0,1,273.8349914550781,281.5459899902344)"><path fill="rgb(247,146,77)" fill-opacity="1" d=" M-8.147000312805176,-10.984999656677246 C-8.147000312805176,-10.984999656677246 -7.047999858856201,-5.673999786376953 -2.6549999713897705,-3.6610000133514404 C1.7389999628067017,-1.6469999551773071 10.343000411987305,-2.197999954223633 11.991000175476074,-2.38100004196167 C13.637999534606934,-2.562999963760376 20.22800064086914,-4.0279998779296875 20.22800064086914,-4.0279998779296875 C20.22800064086914,-4.0279998779296875 19.679000854492188,5.673999786376953 19.679000854492188,5.673999786376953 C19.679000854492188,5.673999786376953 2.4709999561309814,8.053999900817871 0.09099999815225601,8.053999900817871 C-2.2890000343322754,8.053999900817871 -8.147000312805176,11.532999992370605 -12.541000366210938,8.053999900817871 C-16.93400001525879,4.576000213623047 -20.229000091552734,-0.0010000000474974513 -19.131000518798828,-3.4790000915527344 C-18.031999588012695,-6.958000183105469 -16.93400001525879,-9.70300006866455 -14.461999893188477,-10.619000434875488 C-11.991999626159668,-11.534000396728516 -8.147000312805176,-10.984999656677246 -8.147000312805176,-10.984999656677246z"></path></g><g opacity="1" transform="matrix(1,0,0,1,281.0950012207031,286.9110107421875)"><path fill="rgb(85,40,26)" fill-opacity="1" d=" M3.447999954223633,2.3589999675750732 C3.447999954223633,2.3589999675750732 1.0290000438690186,2.9630000591278076 -1.753000020980835,2.9630000591278076 C-4.534999847412109,2.9630000591278076 -6.4710001945495605,2.4800000190734863 -5.624000072479248,0.4230000078678131 C-4.7779998779296875,-1.6330000162124634 -2.9630000591278076,-1.753999948501587 -0.1809999942779541,-1.8739999532699585 C2.6010000705718994,-1.9950000047683716 5.26200008392334,-2.9630000591278076 5.867000102996826,-1.6330000162124634 C6.4710001945495605,-0.3019999861717224 6.349999904632568,0.9070000052452087 5.504000186920166,1.3910000324249268 C4.6570000648498535,1.875 3.447999954223633,2.3589999675750732 3.447999954223633,2.3589999675750732z"></path></g><g opacity="1" transform="matrix(1,0,0,1,261.14300537109375,279.2349853515625)"><path stroke-linecap="round" stroke-linejoin="round" fill-opacity="0" stroke="rgb(188,86,32)" stroke-opacity="1" stroke-width="8" d=" M6.880000114440918,-11.46399974822998 C6.880000114440918,-11.46399974822998 4.14300012588501,-9.366000175476074 -1.7699999809265137,-8.307000160217285 C-6.135000228881836,-7.525000095367432 -8.571999549865723,-0.5540000200271606 -5.567999839782715,4.0879998207092285 C-2.368000030517578,9.031999588012695 -1.753999948501587,9.869000434875488 0.1509999930858612,10.366000175476074 C4.361999988555908,11.46500015258789 8.572999954223633,10.182000160217285 8.572999954223633,10.182000160217285"></path></g></g></g></g><g style="display: block;" transform="matrix(1.3327217102050781,-0.12173142284154892,0.10022251307964325,0.8369830250740051,343.1497497558594,276.0784606933594)" opacity="1"><g opacity="1" transform="matrix(1,0,0,1,0,0)"><path fill="rgb(52,14,8)" fill-opacity="1" d=" M-19.718000411987305,83.66899871826172 C-30.709999084472656,86.76300048828125 -30.601999282836914,98.5989990234375 -27.33300018310547,105.76899719238281 C-24.70800018310547,111.5250015258789 -19.388999938964844,106.302001953125 -11.175000190734863,102.40799713134766 C-7.886000156402588,100.8489990234375 -1.0509999990463257,101.94300079345703 8.144000053405762,99.5530014038086 C22.670000076293945,95.77799987792969 23,87.13099670410156 26.5,85.63099670410156 C30,84.13099670410156 36.28900146484375,80.44599914550781 39.28900146484375,79.44599914550781 C42.28900146484375,78.44599914550781 43.66699981689453,73.73100280761719 32.88199996948242,72.36499786376953 C28.882999420166016,71.85900115966797 24.386999130249023,76.75399780273438 6.88700008392334,77.25399780273438 C-10.61299991607666,77.75399780273438 -15.74899959564209,82.552001953125 -19.718000411987305,83.66899871826172z"></path><path stroke-linecap="round" stroke-linejoin="round" fill-opacity="0" stroke="rgb(137,59,46)" stroke-opacity="1" stroke-width="6" d=" M-19.718000411987305,83.66899871826172 C-30.709999084472656,86.76300048828125 -30.601999282836914,98.5989990234375 -27.33300018310547,105.76899719238281 C-24.70800018310547,111.5250015258789 -19.388999938964844,106.302001953125 -11.175000190734863,102.40799713134766 C-7.886000156402588,100.8489990234375 -1.0509999990463257,101.94300079345703 8.144000053405762,99.5530014038086 C22.670000076293945,95.77799987792969 23,87.13099670410156 26.5,85.63099670410156 C30,84.13099670410156 36.28900146484375,80.44599914550781 39.28900146484375,79.44599914550781 C42.28900146484375,78.44599914550781 43.66699981689453,73.73100280761719 32.88199996948242,72.36499786376953 C28.882999420166016,71.85900115966797 24.386999130249023,76.75399780273438 6.88700008392334,77.25399780273438 C-10.61299991607666,77.75399780273438 -15.74899959564209,82.552001953125 -19.718000411987305,83.66899871826172z"></path></g></g><g style="display: block;" transform="matrix(1.0585609674453735,-0.03960474953055382,-0.015710260719060898,0.9714460372924805,255.19558715820312,271.1062927246094)" opacity="0.9919122764120601"><g opacity="1" transform="matrix(1,0,0,1,0,0)"><path fill="rgb(79,225,245)" fill-opacity="1" d=" M74.45448303222656,92.43157196044922 C74.45448303222656,92.43157196044922 65.85648345947266,92.93157196044922 65.35648345947266,99.43157196044922 C64.85648345947266,105.93157196044922 65.42986297607422,117.43157196044922 65.92986297607422,123.43157196044922 C66.42986297607422,129.43157958984375 66.42849731445312,150.9105682373047 67.92849731445312,156.4105682373047 C69.42849731445312,161.9105682373047 64.30149841308594,153.4105682373047 68.15149688720703,160.4105682373047 C72.00149536132812,167.4105682373047 75.08369445800781,161.72108459472656 73.19369506835938,154.72108459472656 C71.30369567871094,147.72108459472656 72.79232788085938,151.94737243652344 73.29232788085938,140.94737243652344 C73.79232788085938,129.94737243652344 78.77224731445312,127.43157196044922 78.77224731445312,119.93157196044922 C78.77224731445312,112.43157196044922 82.77581787109375,96.5 96.53681182861328,92.5 C104.9358139038086,90.05899810791016 74.45448303222656,92.43157196044922 74.45448303222656,92.43157196044922z"></path></g></g><g style="display: block;" transform="matrix(0.6698675751686096,0.039673659950494766,-0.03887633979320526,0.6564052700996399,284.13909912109375,351.1640930175781)" opacity="1"><g opacity="1" transform="matrix(1,0,0,1,0,0)"><path stroke-linecap="butt" stroke-linejoin="miter" fill-opacity="0" stroke-miterlimit="4" stroke="rgb(255,255,255)" stroke-opacity="1" stroke-width="3" d="M0 0"></path></g><g opacity="1" transform="matrix(1,0,0,1,0,0)"><path stroke-linecap="butt" stroke-linejoin="miter" fill-opacity="0" stroke-miterlimit="4" stroke="rgb(255,255,255)" stroke-opacity="1" stroke-width="3" d="M0 0"></path></g><g opacity="1" transform="matrix(1,0,0,1,0,0)"><path stroke-linecap="butt" stroke-linejoin="miter" fill-opacity="0" stroke-miterlimit="4" stroke="rgb(255,255,255)" stroke-opacity="1" stroke-width="3" d="M0 0"></path></g><g opacity="1" transform="matrix(1,0,0,1,0,0)"><path stroke-linecap="butt" stroke-linejoin="miter" fill-opacity="0" stroke-miterlimit="4" stroke="rgb(255,255,255)" stroke-opacity="1" stroke-width="3" d="M0 0"></path></g><g opacity="1" transform="matrix(1,0,0,1,0,0)"><path stroke-linecap="butt" stroke-linejoin="miter" fill-opacity="0" stroke-miterlimit="4" stroke="rgb(255,255,255)" stroke-opacity="1" stroke-width="3" d="M0 0"></path></g><g opacity="1" transform="matrix(1,0,0,1,0,0)"><path fill="rgb(81,225,246)" fill-opacity="1" d=" M73,170.5 C65,170 64.5,179.5 64.5,179.5 C64.5,179.5 60,189.5 66,196 C72,202.5 79,194.5 79,184 C79,173.5 78.98799896240234,170.87399291992188 73,170.5z"></path></g></g><g style="display: none;"><g><path stroke-linecap="butt" stroke-linejoin="miter" fill-opacity="0" stroke-miterlimit="4"></path></g><g><path stroke-linecap="butt" stroke-linejoin="miter" fill-opacity="0" stroke-miterlimit="4"></path></g><g><path stroke-linecap="butt" stroke-linejoin="miter" fill-opacity="0" stroke-miterlimit="4"></path></g><g><path stroke-linecap="butt" stroke-linejoin="miter" fill-opacity="0" stroke-miterlimit="4"></path></g><g><path stroke-linecap="butt" stroke-linejoin="miter" fill-opacity="0" stroke-miterlimit="4"></path></g><g><path></path></g></g></g></g></svg>