<svg xmlns="http://www.w3.org/2000/svg" xmlns:xlink="http://www.w3.org/1999/xlink" viewBox="0 0 512 512" width="512" height="512" style="width: 100%; height: 100%; transform: translate3d(0,0,0); content-visibility: visible;" preserveAspectRatio="xMidYMid meet"><defs><clipPath id="__lottie_element_2"><rect width="512" height="512" x="0" y="0"></rect></clipPath><clipPath id="__lottie_element_4"><path d="M0,0 L512,0 L512,512 L0,512z"></path></clipPath><radialGradient id="__lottie_element_13" spreadMethod="pad" gradientUnits="userSpaceOnUse" cx="-32.512001037597656" cy="-169.55099487304688" r="397.05907247617046" fx="-32.512001037597656" fy="-169.55099487304688"><stop offset="0%" stop-color="rgb(254,240,222)"></stop><stop offset="50%" stop-color="rgb(249,213,185)"></stop><stop offset="100%" stop-color="rgb(244,187,148)"></stop></radialGradient></defs><g clip-path="url(#__lottie_element_2)"><g clip-path="url(#__lottie_element_4)" style="display: block;" transform="matrix(0.9335899949073792,0,0,0.9335899949073792,17.000961303710938,17.000961303710938)" opacity="1"><g style="display: block;" transform="matrix(1,0,0,1,16.287002563476562,0.2419891357421875)" opacity="1"><g opacity="1" transform="matrix(1,0,0,1,235.92300415039062,252.09100341796875)"><path fill="url(#__lottie_element_13)" fill-opacity="1" d=" M17.091999053955078,221.3040008544922 C-29.913000106811523,220.17999267578125 -90.33399963378906,217.97799682617188 -140.16299438476562,165.91900634765625 C-206.42799377441406,96.68699645996094 -183.19500732421875,-28.809999465942383 -175.76800537109375,-59.57899856567383 C-168.84500122070312,-88.26100158691406 -132.1750030517578,-155.75999450683594 -78.84300231933594,-186.1739959716797 C-25.511999130249023,-216.58900451660156 35.01499938964844,-222.5959930419922 73.00800323486328,-207.90199279785156 C118.96199798583984,-190.1300048828125 147.81199645996094,-121.39399719238281 178.99600219726562,-76.98899841308594 C203.0290069580078,-42.76599884033203 206.42799377441406,7.0879998207092285 205.99600219726562,42.290000915527344 C205.4409942626953,87.52100372314453 198.2949981689453,126.66999816894531 186.21499633789062,150.093994140625 C172.33399963378906,177.00999450683594 159.51199340820312,193.61099243164062 123.90699768066406,209.43600463867188 C94.2959976196289,222.5959930419922 38.26300048828125,221.80999755859375 17.091999053955078,221.3040008544922z"></path><path stroke-linecap="butt" stroke-linejoin="miter" fill-opacity="0" stroke-miterlimit="10" stroke="rgb(181,95,48)" stroke-opacity="1" stroke-width="13" d=" M17.091999053955078,221.3040008544922 C-29.913000106811523,220.17999267578125 -90.33399963378906,217.97799682617188 -140.16299438476562,165.91900634765625 C-206.42799377441406,96.68699645996094 -183.19500732421875,-28.809999465942383 -175.76800537109375,-59.57899856567383 C-168.84500122070312,-88.26100158691406 -132.1750030517578,-155.75999450683594 -78.84300231933594,-186.1739959716797 C-25.511999130249023,-216.58900451660156 35.01499938964844,-222.5959930419922 73.00800323486328,-207.90199279785156 C118.96199798583984,-190.1300048828125 147.81199645996094,-121.39399719238281 178.99600219726562,-76.98899841308594 C203.0290069580078,-42.76599884033203 206.42799377441406,7.0879998207092285 205.99600219726562,42.290000915527344 C205.4409942626953,87.52100372314453 198.2949981689453,126.66999816894531 186.21499633789062,150.093994140625 C172.33399963378906,177.00999450683594 159.51199340820312,193.61099243164062 123.90699768066406,209.43600463867188 C94.2959976196289,222.5959930419922 38.26300048828125,221.80999755859375 17.091999053955078,221.3040008544922z"></path></g><g opacity="1" transform="matrix(1,0,0,1,254.03199768066406,292.40301513671875)"><path fill="rgb(230,154,118)" fill-opacity="1" d=" M-148.3820037841797,-161.70599365234375 C-148.3820037841797,-161.70599365234375 -190.66299438476562,-74.91899871826172 -172.11900329589844,11.868000030517578 C-157.677001953125,79.4540023803711 -137.2550048828125,118.68299865722656 -73.46299743652344,142.41900634765625 C-9.670999526977539,166.156005859375 48.1870002746582,159.47999572753906 80.82499694824219,149.09500122070312 C113.46199798583984,138.7100067138672 159.94700622558594,116.9520034790039 168.6009979248047,45.494998931884766 C177.2550048828125,-25.961999893188477 177.99600219726562,-51.92399978637695 177.99600219726562,-51.92399978637695 C177.99600219726562,-51.92399978637695 204.01499938964844,63.571998596191406 144.61700439453125,137.2270050048828 C107.52799987792969,183.2169952392578 -0.02800000086426735,183.95799255371094 -69.75499725341797,168.38099670410156 C-139.4810028076172,152.8040008544922 -183.2449951171875,98.65499877929688 -193.6300048828125,39.3129997253418 C-204.01499938964844,-20.027999877929688 -194.3719940185547,-100.13800048828125 -172.11900329589844,-137.2270050048828 C-152.9530029296875,-169.16900634765625 -137.9969940185547,-183.95899963378906 -137.9969940185547,-183.95899963378906 C-137.9969940185547,-183.95899963378906 -148.3820037841797,-161.70599365234375 -148.3820037841797,-161.70599365234375z"></path></g></g><g style="display: block;" transform="matrix(0.9999027848243713,0.013944728299975395,-0.013944728299975395,0.9999027848243713,18.411453247070312,-5.2940521240234375)" opacity="0.62"><g opacity="1" transform="matrix(1,0,0,1,176.8699951171875,220.78700256347656)"><path stroke-linecap="round" stroke-linejoin="round" fill-opacity="0" stroke="rgb(225,137,100)" stroke-opacity="1" stroke-width="10.891" d=" M-30.50200080871582,8.359000205993652 C-30.50200080871582,8.359000205993652 -18.606000900268555,-2.2790000438690186 -1.3480000495910645,-5.318999767303467 C15.90999984741211,-8.359000205993652 30.503000259399414,-5.63700008392334 30.503000259399414,-5.63700008392334"></path></g><g opacity="1" transform="matrix(1,0,0,1,335.5899963378906,192.51400756835938)"><path stroke-linecap="round" stroke-linejoin="round" fill-opacity="0" stroke="rgb(225,137,100)" stroke-opacity="1" stroke-width="10.891" d=" M44.32699966430664,2.3940000534057617 C44.32699966430664,2.3940000534057617 23.761999130249023,-3.187000036239624 -1.2200000286102295,-3.621999979019165 C-26.20199966430664,-4.057000160217285 -44.327999114990234,4.057000160217285 -44.327999114990234,4.057000160217285"></path></g></g><g style="display: block;" transform="matrix(1,0,0,1,94.75701904296875,201.3319854736328)" opacity="1"><g opacity="1" transform="matrix(1,0,0,1,219.36599731445312,166.2530059814453)"><path stroke-linecap="round" stroke-linejoin="round" fill-opacity="0" stroke="rgb(225,137,100)" stroke-opacity="1" stroke-width="10.891" d=" M-31.62700080871582,-5.413000106811523 C-31.62700080871582,-5.413000106811523 -30.628000259399414,-21.941999435424805 -19.152000427246094,-23.264999389648438 C-7.675000190734863,-24.586999893188477 -2.247999906539917,-21.29800033569336 3.1519999504089355,-17.33099937438965 C8.553000450134277,-13.36400032043457 8.626999855041504,-13.897000312805176 8.626999855041504,-13.897000312805176"></path></g><g opacity="1" transform="matrix(1,0,0,1,225.10400390625,216.83299255371094)"><path stroke-linecap="round" stroke-linejoin="round" fill-opacity="0" stroke="rgb(225,137,100)" stroke-opacity="1" stroke-width="10.891" d=" M-42.74300003051758,1.5959999561309814 C-42.74300003051758,1.5959999561309814 -23.858999252319336,-11.069000244140625 0.3370000123977661,-6.499000072479248 C20.638999938964844,-2.6649999618530273 27.766000747680664,-5.822000026702881 32.492000579833984,-7.804999828338623 C37.21799850463867,-9.788999557495117 40.24300003051758,-11.595999717712402 40.24300003051758,-11.595999717712402"></path></g><g opacity="1" transform="matrix(1.0070700645446777,0,0,0.9837400317192078,-0.789947509765625,-2.9967041015625)"><g opacity="1" transform="matrix(1,0,0,1,193.7010040283203,119.29399871826172)"><path fill="rgb(94,21,30)" fill-opacity="1" d=" M-129.10499572753906,8.517999649047852 C-126.5,-3.0169999599456787 -123.0790023803711,-9.359999656677246 -88.29900360107422,-34.90700149536133 C-53.52000045776367,-60.45500183105469 -40.46799850463867,-80.07099914550781 10.36400032043457,-78.76100158691406 C61.19499969482422,-77.45099639892578 77.94200134277344,-70.16100311279297 104.69599914550781,-44.612998962402344 C131.44900512695312,-19.065000534057617 136.95599365234375,-6.7230000495910645 126.25499725341797,9.654000282287598 C115.5530014038086,26.0310001373291 110.18900299072266,43.992000579833984 82.76699829101562,41.37200164794922 C55.345001220703125,38.750999450683594 35.92900085449219,11.62600040435791 20.9950008392334,-6.543000221252441 C6.543000221252441,-24.125999450683594 -24.393999099731445,-15.562999725341797 -28.406999588012695,2.122999906539917 C-32.41999816894531,19.809999465942383 -34.409000396728516,38.59600067138672 -43.104000091552734,58.90299987792969 C-51.79899978637695,79.21099853515625 -48.630001068115234,80.57099914550781 -82.0719985961914,73.36599731445312 C-115.51399993896484,66.16000366210938 -122.73899841308594,61.11399841308594 -130.11199951171875,36.42499923706055 C-134.45700073242188,21.874000549316406 -130.9499969482422,16.687000274658203 -129.10499572753906,8.517999649047852z"></path><path stroke-linecap="butt" stroke-linejoin="miter" fill-opacity="0" stroke-miterlimit="10" stroke="rgb(53,21,14)" stroke-opacity="1" stroke-width="5" d=" M-129.10499572753906,8.517999649047852 C-126.5,-3.0169999599456787 -123.0790023803711,-9.359999656677246 -88.29900360107422,-34.90700149536133 C-53.52000045776367,-60.45500183105469 -40.46799850463867,-80.07099914550781 10.36400032043457,-78.76100158691406 C61.19499969482422,-77.45099639892578 77.94200134277344,-70.16100311279297 104.69599914550781,-44.612998962402344 C131.44900512695312,-19.065000534057617 136.95599365234375,-6.7230000495910645 126.25499725341797,9.654000282287598 C115.5530014038086,26.0310001373291 110.18900299072266,43.992000579833984 82.76699829101562,41.37200164794922 C55.345001220703125,38.750999450683594 35.92900085449219,11.62600040435791 20.9950008392334,-6.543000221252441 C6.543000221252441,-24.125999450683594 -24.393999099731445,-15.562999725341797 -28.406999588012695,2.122999906539917 C-32.41999816894531,19.809999465942383 -34.409000396728516,38.59600067138672 -43.104000091552734,58.90299987792969 C-51.79899978637695,79.21099853515625 -48.630001068115234,80.57099914550781 -82.0719985961914,73.36599731445312 C-115.51399993896484,66.16000366210938 -122.73899841308594,61.11399841308594 -130.11199951171875,36.42499923706055 C-134.45700073242188,21.874000549316406 -130.9499969482422,16.687000274658203 -129.10499572753906,8.517999649047852z"></path></g><g opacity="1" transform="matrix(1,0,0,1,180.3000030517578,102.96499633789062)"><path fill="rgb(38,18,25)" fill-opacity="1" d=" M-38.92900085449219,47.3849983215332 C-38.92900085449219,47.3849983215332 -72.23300170898438,1.5420000553131104 -49.72999954223633,-21.819000244140625 C-27.22800064086914,-45.180999755859375 -11.027000427246094,-35.92499923706055 -6.526000022888184,-31.95800018310547 C-3.1640000343322754,-28.993999481201172 2.9260001182556152,-25.78700065612793 9.22700023651123,-26.667999267578125 C15.605999946594238,-27.56100082397461 17.01099967956543,-31.30900001525879 21.378000259399414,-34.1609992980957 C26.77899932861328,-37.6870002746582 33.979000091552734,-47.3849983215332 51.981998443603516,-39.891998291015625 C69.98400115966797,-32.39799880981445 72.23400115966797,-7.714000225067139 67.28299713134766,10.798999786376953 C63.12200164794922,26.361000061035156 37.60300064086914,18.50200080871582 37.60300064086914,18.50200080871582 C37.60300064086914,18.50200080871582 26.768999099731445,1.3969999551773071 5.961999893188477,2.566999912261963 C-6.428999900817871,3.2639999389648438 -35.77899932861328,36.3650016784668 -35.77899932861328,36.3650016784668 C-35.77899932861328,36.3650016784668 -38.92900085449219,47.3849983215332 -38.92900085449219,47.3849983215332z"></path></g><g opacity="1" transform="matrix(0.9996731281280518,-0.025566287338733673,0.025566287338733673,0.9996731281280518,98.92900085449219,94.84600067138672)"><path fill="rgb(255,255,255)" fill-opacity="1" d=" M-27.538000106811523,16.448999404907227 C-27.538000106811523,16.448999404907227 -4.017000198364258,22.382999420166016 7.736999988555908,22.382999420166016 C19.490999221801758,22.382999420166016 19.722999572753906,11.343000411987305 22.572999954223633,2.2730000019073486 C25.422000885009766,-6.796999931335449 27.538000106811523,-18.895000457763672 25.045000076293945,-20.638999938964844 C22.552000045776367,-22.384000778198242 2.9600000381469727,-6.992000102996826 -5.943999767303467,-0.3630000054836273 C-14.848999977111816,6.264999866485596 -27.538000106811523,16.448999404907227 -27.538000106811523,16.448999404907227z"></path><path stroke-linecap="round" stroke-linejoin="round" fill-opacity="0" stroke="rgb(88,127,165)" stroke-opacity="1" stroke-width="6.353" d=" M-27.538000106811523,16.448999404907227 C-27.538000106811523,16.448999404907227 -4.017000198364258,22.382999420166016 7.736999988555908,22.382999420166016 C19.490999221801758,22.382999420166016 19.722999572753906,11.343000411987305 22.572999954223633,2.2730000019073486 C25.422000885009766,-6.796999931335449 27.538000106811523,-18.895000457763672 25.045000076293945,-20.638999938964844 C22.552000045776367,-22.384000778198242 2.9600000381469727,-6.992000102996826 -5.943999767303467,-0.3630000054836273 C-14.848999977111816,6.264999866485596 -27.538000106811523,16.448999404907227 -27.538000106811523,16.448999404907227z"></path></g><g opacity="1" transform="matrix(1,0,0,1,154.13699340820312,62.41999816894531)"><path fill="rgb(255,255,255)" fill-opacity="1" d=" M-26.562999725341797,5.853000164031982 C-26.562999725341797,5.853000164031982 -20.66699981689453,19.03700065612793 -12.057000160217285,17.555999755859375 C-3.447999954223633,16.076000213623047 12.949000358581543,9.72599983215332 19.756000518798828,6.01800012588501 C26.56399917602539,2.309000015258789 22.229000091552734,-19.03700065612793 22.229000091552734,-19.03700065612793 C22.229000091552734,-19.03700065612793 3.609999895095825,-13.61400032043457 -7.6020002365112305,-7.7729997634887695 C-18.81399917602539,-1.9329999685287476 -26.562999725341797,5.853000164031982 -26.562999725341797,5.853000164031982z"></path><path stroke-linecap="round" stroke-linejoin="round" fill-opacity="0" stroke="rgb(88,127,165)" stroke-opacity="1" stroke-width="6.353" d=" M-26.562999725341797,5.853000164031982 C-26.562999725341797,5.853000164031982 -20.66699981689453,19.03700065612793 -12.057000160217285,17.555999755859375 C-3.447999954223633,16.076000213623047 12.949000358581543,9.72599983215332 19.756000518798828,6.01800012588501 C26.56399917602539,2.309000015258789 22.229000091552734,-19.03700065612793 22.229000091552734,-19.03700065612793 C22.229000091552734,-19.03700065612793 3.609999895095825,-13.61400032043457 -7.6020002365112305,-7.7729997634887695 C-18.81399917602539,-1.9329999685287476 -26.562999725341797,5.853000164031982 -26.562999725341797,5.853000164031982z"></path></g><g opacity="1" transform="matrix(1,0,0,1,206.2169952392578,50.31399917602539)"><path fill="rgb(255,255,255)" fill-opacity="1" d=" M-26.885000228881836,-8.920999526977539 C-26.885000228881836,-8.920999526977539 -6.224999904632568,-11.246999740600586 4.104000091552734,-10.89799976348877 C14.434000015258789,-10.548999786376953 24.54400062561035,-7.931000232696533 24.54400062561035,-7.931000232696533 C24.54400062561035,-7.931000232696533 26.885000228881836,1.5779999494552612 18.69300079345703,4.019999980926514 C10.5,6.461999893188477 -8.057999610900879,11.248000144958496 -15.182000160217285,10.201000213623047 C-22.30500030517578,9.154999732971191 -26.885000228881836,-8.920999526977539 -26.885000228881836,-8.920999526977539z"></path><path stroke-linecap="round" stroke-linejoin="round" fill-opacity="0" stroke="rgb(88,127,165)" stroke-opacity="1" stroke-width="6.353" d=" M-26.885000228881836,-8.920999526977539 C-26.885000228881836,-8.920999526977539 -6.224999904632568,-11.246999740600586 4.104000091552734,-10.89799976348877 C14.434000015258789,-10.548999786376953 24.54400062561035,-7.931000232696533 24.54400062561035,-7.931000232696533 C24.54400062561035,-7.931000232696533 26.885000228881836,1.5779999494552612 18.69300079345703,4.019999980926514 C10.5,6.461999893188477 -8.057999610900879,11.248000144958496 -15.182000160217285,10.201000213623047 C-22.30500030517578,9.154999732971191 -26.885000228881836,-8.920999526977539 -26.885000228881836,-8.920999526977539z"></path></g><g opacity="1" transform="matrix(1,0,0,1,262.57598876953125,58.35499954223633)"><path fill="rgb(255,255,255)" fill-opacity="1" d=" M26.7810001373291,6.201000213623047 C26.7810001373291,6.201000213623047 25.340999603271484,12.493000030517578 20.604000091552734,13.845999717712402 C18.297000885009766,14.505999565124512 4.318999767303467,14.324000358581543 -1.6490000486373901,12.9399995803833 C-12.107999801635742,10.512999534606934 -24.319000244140625,-3.375999927520752 -25.549999237060547,-4.945000171661377 C-26.7810001373291,-6.513999938964844 -23.57200050354004,-14.505999565124512 -23.57200050354004,-14.505999565124512 C-23.57200050354004,-14.505999565124512 -8.406999588012695,-14.175999641418457 6.427999973297119,-7.252999782562256 C21.26099967956543,-0.3310000002384186 26.7810001373291,6.201000213623047 26.7810001373291,6.201000213623047z"></path><path stroke-linecap="round" stroke-linejoin="round" fill-opacity="0" stroke="rgb(88,127,165)" stroke-opacity="1" stroke-width="6.353" d=" M26.7810001373291,6.201000213623047 C26.7810001373291,6.201000213623047 25.340999603271484,12.493000030517578 20.604000091552734,13.845999717712402 C18.297000885009766,14.505999565124512 4.318999767303467,14.324000358581543 -1.6490000486373901,12.9399995803833 C-12.107999801635742,10.512999534606934 -24.319000244140625,-3.375999927520752 -25.549999237060547,-4.945000171661377 C-26.7810001373291,-6.513999938964844 -23.57200050354004,-14.505999565124512 -23.57200050354004,-14.505999565124512 C-23.57200050354004,-14.505999565124512 -8.406999588012695,-14.175999641418457 6.427999973297119,-7.252999782562256 C21.26099967956543,-0.3310000002384186 26.7810001373291,6.201000213623047 26.7810001373291,6.201000213623047z"></path></g><g opacity="1" transform="matrix(1,0,0,1,137.2469940185547,155.80099487304688)"><path fill="rgb(211,49,108)" fill-opacity="1" d=" M18.30500030517578,7.584000110626221 C18.30500030517578,7.584000110626221 24.260000228881836,-11.746000289916992 27.226999282836914,-30.042999267578125 C27.69099998474121,-32.900001525878906 32.11199951171875,-40.880001068115234 33.41899871826172,-43.40299987792969 C-9.741000175476074,-29.44300079345703 -36.417999267578125,22.216999053955078 -33.57500076293945,29.95199966430664 C-30.389999389648438,38.61800003051758 -9.151000022888184,41.40299987792969 2.9639999866485596,38.33700180053711 C11.413999557495117,36.198001861572266 11.982000350952148,31.292999267578125 16.108999252319336,22.395999908447266 C16.996000289916992,16.868000030517578 18.30500030517578,7.584000110626221 18.30500030517578,7.584000110626221z"></path><path stroke-linecap="butt" stroke-linejoin="miter" fill-opacity="0" stroke-miterlimit="10" stroke="rgb(145,28,71)" stroke-opacity="1" stroke-width="7.261" d=" M18.30500030517578,7.584000110626221 C18.30500030517578,7.584000110626221 24.260000228881836,-11.746000289916992 27.226999282836914,-30.042999267578125 C27.69099998474121,-32.900001525878906 32.11199951171875,-40.880001068115234 33.41899871826172,-43.40299987792969 C-9.741000175476074,-29.44300079345703 -36.417999267578125,22.216999053955078 -33.57500076293945,29.95199966430664 C-30.389999389648438,38.61800003051758 -9.151000022888184,41.40299987792969 2.9639999866485596,38.33700180053711 C11.413999557495117,36.198001861572266 11.982000350952148,31.292999267578125 16.108999252319336,22.395999908447266 C16.996000289916992,16.868000030517578 18.30500030517578,7.584000110626221 18.30500030517578,7.584000110626221z"></path></g><g opacity="1" transform="matrix(1,0,0,1,249.9219970703125,132.52200317382812)"><path fill="rgb(211,49,108)" fill-opacity="1" d=" M-41.39400100708008,-22.132999420166016 C-41.39400100708008,-22.132999420166016 -15.4350004196167,-27.020999908447266 0.6200000047683716,-19.957000732421875 C25.344999313354492,-9.07800006866455 40.67499923706055,11.196999549865723 41.16999816894531,21.086999893188477 C41.393001556396484,25.559999465942383 30.290000915527344,27.020999908447266 22.378000259399414,26.527000427246094 C14.465999603271484,26.031999588012695 -6.138999938964844,6.086999893188477 -16.52400016784668,-3.309000015258789 C-26.908000946044922,-12.704000473022461 -41.39400100708008,-22.132999420166016 -41.39400100708008,-22.132999420166016z"></path><path stroke-linecap="butt" stroke-linejoin="miter" fill-opacity="0" stroke-miterlimit="10" stroke="rgb(145,28,71)" stroke-opacity="1" stroke-width="7.261" d=" M-41.39400100708008,-22.132999420166016 C-41.39400100708008,-22.132999420166016 -15.4350004196167,-27.020999908447266 0.6200000047683716,-19.957000732421875 C25.344999313354492,-9.07800006866455 40.67499923706055,11.196999549865723 41.16999816894531,21.086999893188477 C41.393001556396484,25.559999465942383 30.290000915527344,27.020999908447266 22.378000259399414,26.527000427246094 C14.465999603271484,26.031999588012695 -6.138999938964844,6.086999893188477 -16.52400016784668,-3.309000015258789 C-26.908000946044922,-12.704000473022461 -41.39400100708008,-22.132999420166016 -41.39400100708008,-22.132999420166016z"></path></g><g opacity="1" transform="matrix(0.9953693747520447,-0.09612371772527695,0.09612371772527695,0.9953693747520447,233.49000549316406,120.01200103759766)"><path fill="rgb(255,255,255)" fill-opacity="1" d=" M-19.777000427246094,-7.732999801635742 C-19.777000427246094,-7.732999801635742 -9.996999740600586,1.4739999771118164 -6.177999973297119,4.382999897003174 C-0.7770000100135803,8.496999740600586 3.7109999656677246,13.284000396728516 3.7109999656677246,13.284000396728516 C3.7109999656677246,13.284000396728516 10.647000312805176,5.758999824523926 13.107000350952148,3.1459999084472656 C14.88599967956543,1.2569999694824219 19.777000427246094,-5.644000053405762 11.37600040435791,-9.46399974822998 C2.9749999046325684,-13.284000396728516 -19.777000427246094,-7.732999801635742 -19.777000427246094,-7.732999801635742z"></path><path stroke-linecap="round" stroke-linejoin="round" fill-opacity="0" stroke="rgb(88,127,165)" stroke-opacity="1" stroke-width="6.353" d=" M-19.777000427246094,-7.732999801635742 C-19.777000427246094,-7.732999801635742 -9.996999740600586,1.4739999771118164 -6.177999973297119,4.382999897003174 C-0.7770000100135803,8.496999740600586 3.7109999656677246,13.284000396728516 3.7109999656677246,13.284000396728516 C3.7109999656677246,13.284000396728516 10.647000312805176,5.758999824523926 13.107000350952148,3.1459999084472656 C14.88599967956543,1.2569999694824219 19.777000427246094,-5.644000053405762 11.37600040435791,-9.46399974822998 C2.9749999046325684,-13.284000396728516 -19.777000427246094,-7.732999801635742 -19.777000427246094,-7.732999801635742z"></path></g><g opacity="1" transform="matrix(0.9972385168075562,-0.07426513731479645,0.07426513731479645,0.9972385168075562,254.875,140.7480010986328)"><path fill="rgb(255,255,255)" fill-opacity="1" d=" M-16.441999435424805,-5.973999977111816 C-16.441999435424805,-5.973999977111816 -4.692999839782715,-16.111000061035156 1.6080000400543213,-16.111000061035156 C7.9079999923706055,-16.111000061035156 10.543999671936035,-15.246999740600586 11.744000434875488,-12.895999908447266 C12.944000244140625,-10.545000076293945 16.441999435424805,11.996999740600586 16.441999435424805,14.053999900817871 C16.441999435424805,16.111000061035156 0.6650000214576721,6.192999839782715 -5.035999774932861,2.6670000553131104 C-9.12600040435791,0.13699999451637268 -16.441999435424805,-5.973999977111816 -16.441999435424805,-5.973999977111816z"></path><path stroke-linecap="round" stroke-linejoin="round" fill-opacity="0" stroke="rgb(88,127,165)" stroke-opacity="1" stroke-width="6.353" d=" M-16.441999435424805,-5.973999977111816 C-16.441999435424805,-5.973999977111816 -4.692999839782715,-16.111000061035156 1.6080000400543213,-16.111000061035156 C7.9079999923706055,-16.111000061035156 10.543999671936035,-15.246999740600586 11.744000434875488,-12.895999908447266 C12.944000244140625,-10.545000076293945 16.441999435424805,11.996999740600586 16.441999435424805,14.053999900817871 C16.441999435424805,16.111000061035156 0.6650000214576721,6.192999839782715 -5.035999774932861,2.6670000553131104 C-9.12600040435791,0.13699999451637268 -16.441999435424805,-5.973999977111816 -16.441999435424805,-5.973999977111816z"></path></g><g opacity="1" transform="matrix(1,0,0,1,140.52099609375,185.22900390625)"><path fill="rgb(255,255,255)" fill-opacity="1" d=" M2.130000114440918,8.628000259399414 C2.130000114440918,8.628000259399414 -6.75,7.692999839782715 -16.951000213623047,-2.885999917984009 C-27.152000427246094,-13.46500015258789 -13.951000213623047,-14.609000205993652 -9.449999809265137,-16.07900047302246 C-4.949999809265137,-17.54800033569336 14.652999877929688,-19.69300079345703 14.652999877929688,-19.69300079345703 C14.652999877929688,-19.69300079345703 11.805999755859375,-12.657999992370605 8.805999755859375,-4.723999977111816 C5.806000232696533,3.2100000381469727 2.130000114440918,8.628000259399414 2.130000114440918,8.628000259399414z"></path><path stroke-linecap="round" stroke-linejoin="round" fill-opacity="0" stroke="rgb(88,127,165)" stroke-opacity="1" stroke-width="6.353" d=" M2.130000114440918,8.628000259399414 C2.130000114440918,8.628000259399414 -6.75,7.692999839782715 -16.951000213623047,-2.885999917984009 C-27.152000427246094,-13.46500015258789 -13.951000213623047,-14.609000205993652 -9.449999809265137,-16.07900047302246 C-4.949999809265137,-17.54800033569336 14.652999877929688,-19.69300079345703 14.652999877929688,-19.69300079345703 C14.652999877929688,-19.69300079345703 11.805999755859375,-12.657999992370605 8.805999755859375,-4.723999977111816 C5.806000232696533,3.2100000381469727 2.130000114440918,8.628000259399414 2.130000114440918,8.628000259399414z"></path></g><g opacity="1" transform="matrix(0.9785629510879517,0.20594801008701324,-0.20594801008701324,0.9785629510879517,145.2519989013672,147.38999938964844)"><path fill="rgb(255,255,255)" fill-opacity="1" d=" M-7.171999931335449,-0.4090000092983246 C-7.171999931335449,-0.4090000092983246 -3.065000057220459,-8.003000259399414 2.3359999656677246,-9.765999794006348 C7.736000061035156,-11.529000282287598 11.484000205993652,-13.475000381469727 11.484000205993652,-13.475000381469727 C11.484000205993652,-13.475000381469727 8.270000457763672,13.475000381469727 8.270000457763672,13.475000381469727 C8.270000457763672,13.475000381469727 -7.797999858856201,11.562000274658203 -7.797999858856201,11.562000274658203 C-10.11400032043457,11.28600025177002 -11.484000205993652,8.826000213623047 -10.496999740600586,6.711999893188477 C-10.496999740600586,6.711999893188477 -7.171999931335449,-0.4090000092983246 -7.171999931335449,-0.4090000092983246z"></path><path stroke-linecap="round" stroke-linejoin="round" fill-opacity="0" stroke="rgb(88,127,165)" stroke-opacity="1" stroke-width="6.353" d=" M-7.171999931335449,-0.4090000092983246 C-7.171999931335449,-0.4090000092983246 -3.065000057220459,-8.003000259399414 2.3359999656677246,-9.765999794006348 C7.736000061035156,-11.529000282287598 11.484000205993652,-13.475000381469727 11.484000205993652,-13.475000381469727 C11.484000205993652,-13.475000381469727 8.270000457763672,13.475000381469727 8.270000457763672,13.475000381469727 C8.270000457763672,13.475000381469727 -7.797999858856201,11.562000274658203 -7.797999858856201,11.562000274658203 C-10.11400032043457,11.28600025177002 -11.484000205993652,8.826000213623047 -10.496999740600586,6.711999893188477 C-10.496999740600586,6.711999893188477 -7.171999931335449,-0.4090000092983246 -7.171999931335449,-0.4090000092983246z"></path></g><g opacity="1" transform="matrix(1,0,0,1,193.7010040283203,119.29399871826172)"><path stroke-linecap="butt" stroke-linejoin="miter" fill-opacity="0" stroke-miterlimit="10" stroke="rgb(53,21,16)" stroke-opacity="1" stroke-width="11.689" d=" M-128.83200073242188,5.744999885559082 C-125.5260009765625,-4.020999908447266 -121.98799896240234,-8.814000129699707 -87.20800018310547,-34.361000061035156 C-52.42900085449219,-59.909000396728516 -41.46799850463867,-81.0260009765625 9.36400032043457,-79.71600341796875 C60.19499969482422,-78.40599822998047 79.89700317382812,-67.7969970703125 106.6510009765625,-42.249000549316406 C133.4040069580078,-16.701000213623047 137.32000732421875,-6.132999897003174 126.61900329589844,10.244000434875488 C115.91699981689453,26.621000289916992 110.37100219726562,43.17399978637695 82.9489974975586,40.55400085449219 C55.527000427246094,37.93299865722656 38.266998291015625,6.815999984741211 20.20800018310547,-8.25 C2.1500000953674316,-23.316999435424805 -22.91699981689453,-15.552000045776367 -29.16900062561035,3.065999984741211 C-34.75899887084961,20.222999572753906 -32.72700119018555,36.141998291015625 -41.422000885009766,56.44900131225586 C-50.117000579833984,76.75700378417969 -44.68899917602539,84.677001953125 -77.88999938964844,76.50299835205078 C-106.53399658203125,69.62100219726562 -121.95800018310547,58.374000549316406 -129.29400634765625,41.42499923706055 C-135.45799255371094,27.874000549316406 -131.6540069580078,13.54699993133545 -128.83200073242188,5.744999885559082z"></path></g></g><g opacity="1" transform="matrix(1,0,0,1,44.16600036621094,168.11500549316406)"><path stroke-linecap="round" stroke-linejoin="round" fill-opacity="0" stroke="rgb(225,137,100)" stroke-opacity="1" stroke-width="11.798" d=" M-6.671000003814697,-17.429000854492188 C-6.671000003814697,-17.429000854492188 -9.682000160217285,-10.527999877929688 -0.45100000500679016,2.989000082015991 C8.779999732971191,16.506000518798828 12.670999526977539,16.429000854492188 12.670999526977539,16.429000854492188"></path></g><g opacity="1" transform="matrix(1,0,0,1,323.4830017089844,64.96800231933594)"><path stroke-linecap="round" stroke-linejoin="round" fill-opacity="0" stroke="rgb(225,137,100)" stroke-opacity="1" stroke-width="11.798" d=" M-12.71399974822998,-16.086000442504883 C-12.71399974822998,-16.086000442504883 2.7750000953674316,-7.74399995803833 10.4399995803833,-1.0679999589920044 C18.104999542236328,5.607999801635742 15.779999732971191,3.7669999599456787 18.746999740600586,10.937999725341797 C21.714000701904297,18.107999801635742 22.714000701904297,19.086000442504883 22.714000701904297,19.086000442504883"></path></g></g><g style="display: block;" transform="matrix(0.9999027848243713,0.013944728299975395,-0.013944728299975395,0.9999027848243713,62.11290740966797,156.83213806152344)" opacity="1"><g opacity="1" transform="matrix(1,0,0,1,115.35600280761719,45.40999984741211)"><path fill="rgb(47,205,242)" fill-opacity="1" d=" M-61.207000732421875,21.819000244140625 C-61.207000732421875,21.819000244140625 -63.90800094604492,29.312000274658203 -56.25699996948242,29.312000274658203 C-48.606998443603516,29.312000274658203 -29.702999114990234,15.206999778747559 -17.101999282836914,10.798999786376953 C-4.5,6.390999794006348 21.60300064086914,-1.1019999980926514 29.253000259399414,-7.2729997634887695 C36.90399932861328,-13.444000244140625 43.20500183105469,-15.64799976348877 49.95600128173828,-15.206999778747559 C56.707000732421875,-14.765999794006348 63.90800094604492,-24.90399932861328 58.05699920654297,-27.107999801635742 C52.20600128173828,-29.312000274658203 12.152000427246094,-16.969999313354492 -15.751999855041504,-6.831999778747559 C-43.654998779296875,3.305999994277954 -61.207000732421875,21.819000244140625 -61.207000732421875,21.819000244140625z"></path></g><g opacity="1" transform="matrix(1,0,0,1,114.71499633789062,46.83399963378906)"><path stroke-linecap="round" stroke-linejoin="round" fill-opacity="0" stroke="rgb(21,159,192)" stroke-opacity="1" stroke-width="7.261" d=" M-60.566001892089844,20.395000457763672 C-60.566001892089844,20.395000457763672 -65.10900115966797,27.094999313354492 -55.6150016784668,27.88800048828125 C-46.12200164794922,28.68199920654297 -5.572000026702881,3.4619998931884766 3.3299999237060547,0 C12.230999946594238,-3.4619998931884766 23.110000610351562,-7.9120001792907715 35.472999572753906,-13.35200023651123 C47.83599853515625,-18.791000366210938 55.25299835205078,-13.845999717712402 58.22100067138672,-16.812999725341797 C61.1879997253418,-19.780000686645508 65.10900115966797,-28.382999420166016 58.698001861572266,-28.531999588012695 C52.2859992980957,-28.68199920654297 42.89099884033203,-27.69300079345703 42.89099884033203,-27.69300079345703"></path></g><g opacity="1" transform="matrix(1,0,0,1,77.0270004272461,142.1739959716797)"><path fill="rgb(47,205,242)" fill-opacity="1" d=" M56.18199920654297,-106.21800231933594 C56.18199920654297,-106.21800231933594 18.905000686645508,-70.7490005493164 22.62700080871582,-49.60900115966797 C25.679000854492188,-32.2760009765625 11.404999732971191,-14.75100040435791 -1.2769999504089355,7.551000118255615 C-11.21399974822998,25.027000427246094 -26.631000518798828,43.2859992980957 -21.68000030517578,70.61499786376953 C-16.729000091552734,97.94400024414062 -13.279000282287598,127.14700317382812 -16.8799991607666,127.58799743652344 C-20.479999542236328,128.0279998779297 -40.827999114990234,101.90599822998047 -41.733001708984375,92.24099731445312 C-43.672000885009766,71.53099822998047 -36.027000427246094,56.20899963378906 -30.631999969482422,37.04499816894531 C-23.95599937438965,13.331000328063965 -14.597000122070312,-1.4299999475479126 -15.378000259399414,-8.387999534606934 C-19.094999313354492,-41.487998962402344 -2.5950000286102295,-47.03799819946289 2.8259999752044678,-57.619998931884766 C9.02400016784668,-69.71900177001953 8.274999618530273,-84.95500183105469 8.274999618530273,-89.36299896240234 C8.274999618530273,-93.77100372314453 39.888999938964844,-104.70700073242188 45.63199996948242,-105.22899627685547 C50.611000061035156,-105.68099975585938 56.18199920654297,-106.21800231933594 56.18199920654297,-106.21800231933594z"></path></g><g opacity="1" transform="matrix(1,0,0,1,76.66999816894531,144.02200317382812)"><path stroke-linecap="round" stroke-linejoin="round" fill-opacity="0" stroke="rgb(21,159,192)" stroke-opacity="1" stroke-width="7.261" d=" M58.518001556396484,-104.2750015258789 C58.518001556396484,-104.2750015258789 27.638999938964844,-83.14800262451172 24.520000457763672,-56.130001068115234 C21.437999725341797,-29.493000030517578 6.5229997634887695,-15.866999626159668 -1.340999960899353,0.2809999883174896 C-9.788000106811523,17.795000076293945 -22.375,46.106998443603516 -20.39699935913086,63.415000915527344 C-18.417999267578125,80.72200012207031 -17.922000885009766,90.41500091552734 -16.933000564575195,98.3270034790039 C-15.944000244140625,106.23899841308594 -14.605999946594238,121.66000366210938 -19.347999572753906,121.31400299072266 C-24.09000015258789,120.96900177001953 -41.667999267578125,104.26799774169922 -44.41699981689453,94.18399810791016 C-47.16600036621094,84.0999984741211 -38.51599884033203,48.106998443603516 -28.98699951171875,37.027000427246094 C-26.174999237060547,34.20100021362305 -26.799999237060547,14.803999900817871 -17.40399932861328,4.419000148773193 C-8.008000373840332,-5.966000080108643 -18.656999588012695,-20.788999557495117 -15.715999603271484,-37.08300018310547 C-13.279000282287598,-49.74800109863281 1.8359999656677246,-54.893001556396484 4.959000110626221,-64.50900268554688 C7.7789998054504395,-73.05000305175781 7.38700008392334,-78.96499633789062 7.38700008392334,-78.96499633789062"></path></g><g opacity="0" transform="matrix(1,0,0,1,106.43099975585938,57.49300003051758)"><path fill="rgb(255,255,255)" fill-opacity="1" d=" M1.8420000076293945,-15.045999526977539 C-0.296999990940094,-14.458000183105469 -5.966000080108643,-11.673999786376953 -7.184000015258789,-7.875999927520752 C-8.402000427246094,-4.077000141143799 -1.5440000295639038,-1.5019999742507935 0.4230000078678131,-2.13100004196167 C8.491999626159668,-4.7129998207092285 15.491999626159668,-4.711999893188477 17.07200050354004,-11.515000343322754 C19.235000610351562,-20.83099937438965 16.993000030517578,-19.21299934387207 1.8420000076293945,-15.045999526977539z"></path></g></g><g style="display: block;" transform="matrix(0.9999027848243713,0.013944728299975395,-0.013944728299975395,0.9999027848243713,277.07550048828125,133.6194610595703)" opacity="1"><g opacity="1" transform="matrix(1,0,0,1,81.27999877929688,28.847999572753906)"><path fill="rgb(47,205,242)" fill-opacity="1" d=" M-59.178001403808594,-2.4089999198913574 C-59.178001403808594,-2.4089999198913574 -62.486000061035156,11.223999977111816 -53.48500061035156,12.54699993133545 C-44.48400115966797,13.869000434875488 -26.125,6.751999855041504 -9.472999572753906,5.870999813079834 C7.178999900817871,4.988999843597412 32.95000076293945,7.052999973297119 46.9010009765625,6.61299991607666 C60.85300064086914,6.171999931335449 62.486000061035156,1.1169999837875366 60.236000061035156,-3.7309999465942383 C57.986000061035156,-8.579999923706055 56.63399887084961,-12.98799991607666 26.0310001373291,-13.428999900817871 C-4.572999954223633,-13.869000434875488 -49.577999114990234,-6.375999927520752 -51.827999114990234,-5.934999942779541 C-54.077999114990234,-5.494999885559082 -59.178001403808594,-2.4089999198913574 -59.178001403808594,-2.4089999198913574z"></path></g><g opacity="1" transform="matrix(1,0,0,1,81.44999694824219,31.132999420166016)"><path stroke-linecap="round" stroke-linejoin="round" fill-opacity="0" stroke="rgb(21,159,192)" stroke-opacity="1" stroke-width="7.261" d=" M-62.803001403808594,3.5850000381469727 C-62.803001403808594,3.5850000381469727 -63.29800033569336,11.496999740600586 -56.62200164794922,12.23900032043457 C-49.94599914550781,12.980999946594238 -22.253000259399414,6.304999828338623 -11.868000030517578,5.563000202178955 C-1.4830000400543213,4.821000099182129 43.02299880981445,5.315999984741211 53.15999984741211,4.573999881744385 C63.29800033569336,3.8320000171661377 63.29800033569336,0.8650000095367432 61.071998596191406,-4.327000141143799 C58.84700012207031,-9.520000457763672 53.15999984741211,-12.980999946594238 53.15999984741211,-12.980999946594238"></path></g><g opacity="1" transform="matrix(1,0,0,1,0,0)"><g opacity="1" transform="matrix(1,0,0,1,115.02899932861328,153.9739990234375)"><path fill="rgb(47,205,242)" fill-opacity="1" d=" M-32.02000045776367,-119.16000366210938 C-15.368000030517578,-112.5479965209961 -0.06599999964237213,-103.29199981689453 3.5339999198913574,-89.18699645996094 C7.135000228881836,-75.08100128173828 0.3840000033378601,-57.45000076293945 7.135000228881836,-45.54899978637695 C13.885000228881836,-33.64699935913086 22.88599967956543,-19.54199981689453 30.086999893188477,-3.2330000400543213 C37.28799819946289,13.076000213623047 32.33700180053711,29.826000213623047 36.38800048828125,46.1349983215332 C40.4379997253418,62.444000244140625 36.38800048828125,87.12799835205078 36.38800048828125,97.26599884033203 C36.38800048828125,107.40399932861328 38.63800048828125,131.64700317382812 38.63800048828125,131.64700317382812 C38.63800048828125,131.64700317382812 45.8390007019043,117.10199737548828 50.790000915527344,109.16699981689453 C55.7400016784668,101.23300170898438 55.7400016784668,94.18099975585938 54.38999938964844,82.72000122070312 C53.040000915527344,71.26000213623047 44.03900146484375,48.3390007019043 47.18899917602539,37.319000244140625 C50.34000015258789,26.299999237060547 57.60100173950195,18.260000228881836 49.5,-6.423999786376953 C41.39899826049805,-31.107999801635742 21.535999298095703,-49.957000732421875 24.23699951171875,-66.70600128173828 C26.937000274658203,-83.45600128173828 30.53700065612793,-97.56099700927734 18.38599967956543,-109.46299743652344 C6.234000205993652,-121.36399841308594 8.01200008392334,-120.39900207519531 4.170000076293945,-123.29399871826172 C-1.680999994277954,-127.7020034790039 0.006000000052154064,-131.64700317382812 -28.79800033569336,-131.20599365234375 C-57.60100173950195,-130.76499938964844 -46.18199920654297,-124.78299713134766 -32.02000045776367,-119.16000366210938z"></path></g><g opacity="1" transform="matrix(1,0,0,1,126.03900146484375,160.6439971923828)"><path stroke-linecap="round" stroke-linejoin="round" fill-opacity="0" stroke="rgb(21,159,192)" stroke-opacity="1" stroke-width="7.261" d=" M-44.917999267578125,-124.85399627685547 C-44.917999267578125,-124.85399627685547 -14.375,-116.97000122070312 -7.47599983215332,-95.85700225830078 C-0.5770000219345093,-74.74299621582031 -9.972000122070312,-66.33699798583984 -0.5770000219345093,-48.534000396728516 C8.819000244140625,-30.73200035095215 23.65399932861328,-15.402000427246094 26.12700080871582,5.368000030517578 C28.600000381469727,26.136999130249023 24.14900016784668,23.665000915527344 24.14900016784668,38.5 C24.14900016784668,38.5 24.14900016784668,80.53399658203125 24.14900016784668,80.53399658203125 C24.14900016784668,91.41300201416016 22.665000915527344,113.1709976196289 23.65399932861328,118.11699676513672 C24.64299964904785,123.06199645996094 18.827999114990234,124.85399627685547 27.115999221801758,123.55599975585938 C33.03300094604492,122.62999725341797 44.917999267578125,97.84100341796875 44.917999267578125,89.43499755859375 C44.917999267578125,77.06199645996094 36.016998291015625,50.862998962402344 36.016998291015625,41.96200180053711 C36.016998291015625,33.060001373291016 44.917999267578125,3.390000104904175 40.96200180053711,-12.4350004196167 C37.00600051879883,-28.259000778198242 8.324999809265137,-55.457000732421875 11.78600025177002,-66.33699798583984 C15.248000144958496,-77.21600341796875 21.617000579833984,-91.93699645996094 14.753000259399414,-107.38099670410156 C9.477999687194824,-119.25 0.7419999837875366,-124.19499969482422 0.7419999837875366,-124.19499969482422"></path></g></g><g opacity="0" transform="matrix(1,0,0,1,130.42599487304688,68.26300048828125)"><path fill="rgb(255,255,255)" fill-opacity="1" d=" M-23.298999786376953,-37.42900085449219 C-26.621000289916992,-35.775001525878906 -29.621000289916992,-33.775001525878906 -23.4689998626709,-26.368000030517578 C-16.94300079345703,-18.51099967956543 -13.140000343322754,-18.444000244140625 -10.501999855041504,-18.114999771118164 C-7.864999771118164,-17.78499984741211 -3.3010001182556152,-20.174999237060547 -8.579000473022461,-28.152999877929688 C-13.621000289916992,-35.77399826049805 -20.3799991607666,-38.882999420166016 -23.298999786376953,-37.42900085449219z"></path></g></g><g style="display: block;" transform="matrix(0.9999027848243713,0.013944728299975395,-0.013944728299975395,0.9999027848243713,50.65309143066406,46.15956115722656)" opacity="1"><g opacity="0.85" transform="matrix(1,0,0,1,141.9429931640625,105.0199966430664)"><path fill="rgb(225,137,100)" fill-opacity="1" d=" M33.435001373291016,18.290000915527344 C33.435001373291016,18.290000915527344 16.836999893188477,5.677999973297119 -11.182999610900879,-3.1489999294281006 C-32.38100051879883,-9.826000213623047 -47.9900016784668,-13.605999946594238 -52.242000579833984,-13.800000190734863 C-53.50299835205078,-13.857999801635742 -54.72200012207031,-14.458999633789062 -55.387001037597656,-15.515000343322754 C-56.10900115966797,-16.660999298095703 -55.952999114990234,-18.09600067138672 -51.698001861572266,-18.81100082397461 C-45.069000244140625,-19.926000595092773 -0.7459999918937683,-15.829000473022461 19.020999908447266,-8.26099967956543 C38.78799819946289,-0.6919999718666077 56.10900115966797,19.926000595092773 56.10900115966797,19.926000595092773 C56.10900115966797,19.926000595092773 33.435001373291016,18.290000915527344 33.435001373291016,18.290000915527344z"></path></g><g opacity="0.71" transform="matrix(1,0,0,1,286.1600036621094,89.97599792480469)"><path stroke-linecap="round" stroke-linejoin="round" fill-opacity="0" stroke="rgb(231,149,109)" stroke-opacity="1" stroke-width="11.798" d=" M-24.753000259399414,13.517000198364258 C-24.753000259399414,13.517000198364258 -1.350000023841858,-1.4700000286102295 8.550999641418457,-6.171000003814697 C18.45199966430664,-10.873000144958496 24.753000259399414,-13.517000198364258 24.753000259399414,-13.517000198364258"></path></g><g opacity="0.78" transform="matrix(1,0,0,1,249.14599609375,92.58300018310547)"><path fill="rgb(225,137,100)" fill-opacity="1" d=" M-14.91100025177002,20.906999588012695 C-14.91100025177002,20.906999588012695 -9.369999885559082,5.316999912261963 -6.670000076293945,0.46799999475479126 C-3.9700000286102295,-4.38100004196167 2.8429999351501465,-18.20800018310547 4.86899995803833,-20.631999969482422 C6.894000053405762,-23.055999755859375 12.524999618530273,-32.91699981689453 15.748000144958496,-31.18199920654297 C20.034000396728516,-28.874000549316406 20.20199966430664,-24.81999969482422 17.726999282836914,-19.972000122070312 C15.251999855041504,-15.123000144958496 3.2009999752044678,5.5879998207092285 3.2009999752044678,7.35099983215332 C3.2009999752044678,9.11400032043457 -6.699999809265137,32.91699981689453 -13.449999809265137,32.03499984741211 C-20.201000213623047,31.152999877929688 -14.91100025177002,20.906999588012695 -14.91100025177002,20.906999588012695z"></path></g><g opacity="0.61" transform="matrix(1,0,0,1,104.21900177001953,130.14300537109375)"><path stroke-linecap="round" stroke-linejoin="round" fill-opacity="0" stroke="rgb(231,149,109)" stroke-opacity="1" stroke-width="7.261" d=" M34.7400016784668,-1.4880000352859497 C34.7400016784668,-1.4880000352859497 22.02400016784668,-3.2860000133514404 9.520000457763672,-1.9830000400543213 C0.31200000643730164,-1.0219999551773071 -8.97599983215332,3.2860000133514404 -11.991999626159668,2.7149999141693115 C-22.466999053955078,0.734000027179718 -34.7400016784668,1.7259999513626099 -34.7400016784668,1.7259999513626099"></path></g><g opacity="0.67" transform="matrix(1,0,0,1,104.96099853515625,138.66900634765625)"><path fill="rgb(252,226,204)" fill-opacity="1" d=" M-41.167999267578125,7.788000106811523 C-41.167999267578125,7.788000106811523 -27.926000595092773,3.2170000076293945 -18.350000381469727,0.6840000152587891 C-8.77400016784668,-1.8489999771118164 41.167999267578125,-7.788000106811523 41.167999267578125,-7.788000106811523"></path><path stroke-linecap="round" stroke-linejoin="round" fill-opacity="0" stroke="rgb(181,95,48)" stroke-opacity="1" stroke-width="11.798" d=" M-41.167999267578125,7.788000106811523 C-41.167999267578125,7.788000106811523 -27.926000595092773,3.2170000076293945 -18.350000381469727,0.6840000152587891 C-8.77400016784668,-1.8489999771118164 41.167999267578125,-7.788000106811523 41.167999267578125,-7.788000106811523"></path></g><g opacity="1" transform="matrix(1,0,0,1,99.36100006103516,118.60600280761719)"><path stroke-linecap="round" stroke-linejoin="round" fill-opacity="0" stroke="rgb(76,33,19)" stroke-opacity="1" stroke-width="15.429" d=" M-60.78900146484375,1.8899999856948853 C-60.78900146484375,1.8899999856948853 -25.926000595092773,-7.011000156402588 18.774999618530273,-2.125999927520752 C45.49800109863281,0.7950000166893005 60.78900146484375,7.011000156402588 60.78900146484375,7.011000156402588"></path></g><g opacity="1" transform="matrix(1,0,0,1,291.72698974609375,73.70600128173828)"><path stroke-linecap="round" stroke-linejoin="round" fill-opacity="0" stroke="rgb(76,33,19)" stroke-opacity="1" stroke-width="13.614" d=" M-45.22999954223633,39.67100143432617 C-45.22999954223633,39.67100143432617 -36.45399856567383,24.464000701904297 -15.527000427246094,3.9670000076293945 C5.401000022888184,-16.52899932861328 34.42900085449219,-29.091999053955078 39.83000183105469,-31.736000061035156 C45.22999954223633,-34.38100051879883 43.880001068115234,-39.67100143432617 43.880001068115234,-39.67100143432617"></path></g><g opacity="1" transform="matrix(1,0,0,1,305.6780090332031,102.35700225830078)"><path stroke-linecap="round" stroke-linejoin="round" fill-opacity="0" stroke="rgb(76,33,19)" stroke-opacity="1" stroke-width="15.429" d=" M-55.95600128173828,8.375 C-55.95600128173828,8.375 -38.55400085449219,0.4410000145435333 -4.650000095367432,-1.909999966621399 C29.253999710083008,-4.261000156402588 46.95600128173828,-3.9670000076293945 51.45600128173828,-4.261000156402588 C55.957000732421875,-4.554999828338623 54.15599822998047,-8.375 54.15599822998047,-8.375"></path></g><g opacity="1" transform="matrix(1,0,0,1,131.39599609375,150.4029998779297)"><path stroke-linecap="round" stroke-linejoin="round" fill-opacity="0" stroke="rgb(76,33,19)" stroke-opacity="1" stroke-width="15.429" d=" M-72.57099914550781,28.43000030517578 C-72.57099914550781,28.43000030517578 -41.516998291015625,5.289999961853027 -13.83899974822998,-5.949999809265137 C13.83899974822998,-17.190000534057617 50.292999267578125,-28.43000030517578 59.069000244140625,-26.44700050354004 C67.84500122070312,-24.46299934387207 72.57099914550781,-17.190000534057617 72.57099914550781,-17.190000534057617"></path></g></g><g style="display: block;" transform="matrix(0.9999027848243713,0.013944728299975395,-0.013944728299975395,0.9999027848243713,9.304771423339844,147.65284729003906)" opacity="1"><g opacity="0" transform="matrix(0.5845742225646973,-0.3868772089481354,0.3868772089481354,0.5845742225646973,143.79200744628906,41.972999572753906)"><path fill="rgb(47,205,242)" fill-opacity="1" d=" M-15.121000289916992,0.7049999833106995 C-13.208000183105469,1.2050000429153442 -8.468000411987305,2.7909998893737793 -6.751999855041504,3.7739999294281006 C-5.215000152587891,4.656000137329102 -0.6489999890327454,5.603000164031982 4.607999801635742,7.1519999504089355 C9.72599983215332,8.66100025177002 12.342000007629395,7.526000022888184 15.342000007629395,2.8239998817443848 C18.341999053955078,-1.8769999742507935 13.866000175476074,-6.39300012588501 5.164999961853027,-10.213000297546387 C-3.5360000133514404,-14.034000396728516 -2.122999906539917,-12.39900016784668 -6.466000080108643,-12.803000450134277 C-15.267999649047852,-13.621999740600586 -18.996000289916992,-12.07699966430664 -20.327999114990234,-6.968999862670898 C-21.316999435424805,-3.177999973297119 -18.257999420166016,-0.11500000208616257 -15.121000289916992,0.7049999833106995z"></path><path stroke-linecap="butt" stroke-linejoin="miter" fill-opacity="0" stroke-miterlimit="10" stroke="rgb(21,159,192)" stroke-opacity="1" stroke-width="6.353" d=" M-15.121000289916992,0.7049999833106995 C-13.208000183105469,1.2050000429153442 -8.468000411987305,2.7909998893737793 -6.751999855041504,3.7739999294281006 C-5.215000152587891,4.656000137329102 -0.6489999890327454,5.603000164031982 4.607999801635742,7.1519999504089355 C9.72599983215332,8.66100025177002 12.342000007629395,7.526000022888184 15.342000007629395,2.8239998817443848 C18.341999053955078,-1.8769999742507935 13.866000175476074,-6.39300012588501 5.164999961853027,-10.213000297546387 C-3.5360000133514404,-14.034000396728516 -2.122999906539917,-12.39900016784668 -6.466000080108643,-12.803000450134277 C-15.267999649047852,-13.621999740600586 -18.996000289916992,-12.07699966430664 -20.327999114990234,-6.968999862670898 C-21.316999435424805,-3.177999973297119 -18.257999420166016,-0.11500000208616257 -15.121000289916992,0.7049999833106995z"></path></g><g opacity="0" transform="matrix(0.7601303458213806,-0.08811141550540924,0.08381073921918869,0.7230287194252014,69.77434539794922,9.18429183959961)"><g opacity="1" transform="matrix(1,0,0,1,60.768001556396484,66.16899871826172)"><path fill="rgb(47,205,242)" fill-opacity="1" d=" M-20.83799934387207,2.9539999961853027 C-20.684999465942383,5.535999774932861 -19.72100067138672,8.220000267028809 -12.430999755859375,10.538000106811523 C-5.142000198364258,12.855999946594238 6.795000076293945,7.47599983215332 13.133999824523926,3.4200000762939453 C19.472999572753906,-0.6370000243186951 21.05699920654297,-5.561999797821045 16.937000274658203,-8.460000038146973 C12.817000389099121,-11.357000350952148 2.0220000743865967,-12.855999946594238 -10.319999694824219,-8.170999526977539 C-17.047000885009766,-5.618000030517578 -21.05699920654297,-0.7509999871253967 -20.83799934387207,2.9539999961853027z"></path><path stroke-linecap="butt" stroke-linejoin="miter" fill-opacity="0" stroke-miterlimit="10" stroke="rgb(21,159,192)" stroke-opacity="1" stroke-width="6.353" d=" M-20.83799934387207,2.9539999961853027 C-20.684999465942383,5.535999774932861 -19.72100067138672,8.220000267028809 -12.430999755859375,10.538000106811523 C-5.142000198364258,12.855999946594238 6.795000076293945,7.47599983215332 13.133999824523926,3.4200000762939453 C19.472999572753906,-0.6370000243186951 21.05699920654297,-5.561999797821045 16.937000274658203,-8.460000038146973 C12.817000389099121,-11.357000350952148 2.0220000743865967,-12.855999946594238 -10.319999694824219,-8.170999526977539 C-17.047000885009766,-5.618000030517578 -21.05699920654297,-0.7509999871253967 -20.83799934387207,2.9539999961853027z"></path></g><g opacity="1" transform="matrix(1,0,0,1,51.632999420166016,65.49800109863281)"><path fill="rgb(255,255,255)" fill-opacity="1" d=" M-6.435999870300293,1.0529999732971191 C-6.388999938964844,1.9730000495910645 -6.091000080108643,2.928999900817871 -3.8399999141693115,3.755000114440918 C-1.5880000591278076,4.580999851226807 2.0989999771118164,2.6640000343322754 4.057000160217285,1.218999981880188 C6.014999866485596,-0.22699999809265137 6.504000186920166,-1.9819999933242798 5.23199987411499,-3.015000104904175 C3.9590001106262207,-4.046999931335449 0.6240000128746033,-4.580999851226807 -3.187999963760376,-2.9119999408721924 C-5.264999866485596,-2.002000093460083 -6.504000186920166,-0.2669999897480011 -6.435999870300293,1.0529999732971191z"></path></g></g><g opacity="0" transform="matrix(0.5910300016403198,0,0,0.5910300016403198,132.2209930419922,48.176998138427734)"><path fill="rgb(47,205,242)" fill-opacity="1" d=" M-6.849999904632568,8.116999626159668 C-4.664999961853027,8.963000297546387 0.1979999989271164,8.847999572753906 4.429999828338623,8.093999862670898 C10.730999946594238,6.9720001220703125 14.909000396728516,3.3369998931884766 14.24899959564209,-0.9490000009536743 C13.413999557495117,-6.375999927520752 5.493000030517578,-8.963000297546387 -4.708000183105469,-6.7179999351501465 C-14.909000396728516,-4.473999977111816 -11.960000038146973,6.138999938964844 -6.849999904632568,8.116999626159668z"></path><path stroke-linecap="butt" stroke-linejoin="miter" fill-opacity="0" stroke-miterlimit="10" stroke="rgb(21,159,192)" stroke-opacity="1" stroke-width="6.353" d=" M-6.849999904632568,8.116999626159668 C-4.664999961853027,8.963000297546387 0.1979999989271164,8.847999572753906 4.429999828338623,8.093999862670898 C10.730999946594238,6.9720001220703125 14.909000396728516,3.3369998931884766 14.24899959564209,-0.9490000009536743 C13.413999557495117,-6.375999927520752 5.493000030517578,-8.963000297546387 -4.708000183105469,-6.7179999351501465 C-14.909000396728516,-4.473999977111816 -11.960000038146973,6.138999938964844 -6.849999904632568,8.116999626159668z"></path></g></g><g style="display: block;" transform="matrix(0.9999027848243713,0.013944728299975395,-0.013944728299975395,0.9999027848243713,360.291748046875,36.367431640625)" opacity="1"><g opacity="0" transform="matrix(0.9160969853401184,0.4009566903114319,-0.4009566903114319,0.9160969853401184,33.018001556396484,103.1780014038086)"><path fill="rgb(47,205,242)" fill-opacity="1" d=" M-6.5929999351501465,-1.7000000476837158 C-5.02400016784668,-4.296000003814697 -2.430000066757202,-9.515999794006348 3.815999984741211,-8.156000137329102 C10.062999725341797,-6.796999931335449 7.980999946594238,0 5.551000118255615,3.3989999294281006 C3.121999979019165,6.797999858856201 -3.122999906539917,9.517000198364258 -6.5929999351501465,6.458000183105469 C-10.062999725341797,3.3989999294281006 -7.6539998054504395,0.054999999701976776 -6.5929999351501465,-1.7000000476837158z"></path><path stroke-linecap="butt" stroke-linejoin="miter" fill-opacity="0" stroke-miterlimit="10" stroke="rgb(21,159,192)" stroke-opacity="1" stroke-width="6.353" d=" M-6.5929999351501465,-1.7000000476837158 C-5.02400016784668,-4.296000003814697 -2.430000066757202,-9.515999794006348 3.815999984741211,-8.156000137329102 C10.062999725341797,-6.796999931335449 7.980999946594238,0 5.551000118255615,3.3989999294281006 C3.121999979019165,6.797999858856201 -3.122999906539917,9.517000198364258 -6.5929999351501465,6.458000183105469 C-10.062999725341797,3.3989999294281006 -7.6539998054504395,0.054999999701976776 -6.5929999351501465,-1.7000000476837158z"></path></g><g opacity="0" transform="matrix(1,0,0,1,59.928001403808594,31.981000900268555)"><path fill="rgb(47,205,242)" fill-opacity="1" d=" M-22.305999755859375,63.599998474121094 C-18.601999282836914,65.9739990234375 -16.2189998626709,68.35399627685547 -19.399999618530273,71.38600158691406 C-20.474000930786133,72.41000366210938 -32.9739990234375,74.41100311279297 -36.1870002746582,71.65599822998047 C-40.400001525878906,68.04299926757812 -42.24300003051758,61.66299819946289 -29.371999740600586,61.808998107910156 C-20.474000930786133,61.90999984741211 -23.95400047302246,62.54399871826172 -22.305999755859375,63.599998474121094z"></path><path stroke-linecap="butt" stroke-linejoin="miter" fill-opacity="0" stroke-miterlimit="10" stroke="rgb(21,159,192)" stroke-opacity="1" stroke-width="6.353" d=" M-22.305999755859375,63.599998474121094 C-18.601999282836914,65.9739990234375 -16.2189998626709,68.35399627685547 -19.399999618530273,71.38600158691406 C-20.474000930786133,72.41000366210938 -32.9739990234375,74.41100311279297 -36.1870002746582,71.65599822998047 C-40.400001525878906,68.04299926757812 -42.24300003051758,61.66299819946289 -29.371999740600586,61.808998107910156 C-20.474000930786133,61.90999984741211 -23.95400047302246,62.54399871826172 -22.305999755859375,63.599998474121094z"></path></g><g opacity="0" transform="matrix(0.4564899802207947,0,0,0.4564899802207947,1.4173049926757812,63.86029815673828)"><g opacity="1" transform="matrix(1,0,0,1,100.40399932861328,82.74600219726562)"><path fill="rgb(47,205,242)" fill-opacity="1" d=" M-17.663999557495117,-6.741000175476074 C-10.418999671936035,-9.531000137329102 4.748000144958496,-12.015999794006348 13.116000175476074,-9.916999816894531 C29.273000717163086,-5.866000175476074 7.339000225067139,5.945000171661377 -3.1510000228881836,8.59000015258789 C-13.640000343322754,11.234999656677246 -22.27899932861328,12.015000343322754 -25.775999069213867,4.961999893188477 C-29.273000717163086,-2.0899999141693115 -21.06999969482422,-5.428999900817871 -17.663999557495117,-6.741000175476074z"></path><path stroke-linecap="butt" stroke-linejoin="miter" fill-opacity="0" stroke-miterlimit="10" stroke="rgb(21,159,192)" stroke-opacity="1" stroke-width="6.353" d=" M-17.663999557495117,-6.741000175476074 C-10.418999671936035,-9.531000137329102 4.748000144958496,-12.015999794006348 13.116000175476074,-9.916999816894531 C29.273000717163086,-5.866000175476074 7.339000225067139,5.945000171661377 -3.1510000228881836,8.59000015258789 C-13.640000343322754,11.234999656677246 -22.27899932861328,12.015000343322754 -25.775999069213867,4.961999893188477 C-29.273000717163086,-2.0899999141693115 -21.06999969482422,-5.428999900817871 -17.663999557495117,-6.741000175476074z"></path></g><g opacity="1" transform="matrix(1,0,0,1,103.64399719238281,78.3290023803711)"><path fill="rgb(255,255,255)" fill-opacity="1" d=" M-6.520999908447266,-0.367000013589859 C-6.5980000495910645,0.29100000858306885 -6.433000087738037,1.0230000019073486 -4.331999778747559,2.0250000953674316 C-2.2309999465942383,3.0280001163482666 1.6480000019073486,2.36299991607666 3.765000104904175,1.7070000171661377 C5.881999969482422,1.0520000457763672 6.5980000495910645,-0.09600000083446503 5.486000061035156,-1.062000036239624 C4.374000072479248,-2.0280001163482666 1.1699999570846558,-3.0280001163482666 -2.7980000972747803,-2.559999942779541 C-4.960999965667725,-2.305000066757202 -6.410999774932861,-1.312000036239624 -6.520999908447266,-0.367000013589859z"></path></g></g></g></g></g></svg>