<svg xmlns="http://www.w3.org/2000/svg" xmlns:xlink="http://www.w3.org/1999/xlink" viewBox="0 0 512 512" width="512" height="512" style="width: 100%; height: 100%; transform: translate3d(0,0,0); content-visibility: visible;" preserveAspectRatio="xMidYMid meet"><defs><clipPath id="__lottie_element_2"><rect width="512" height="512" x="0" y="0"></rect></clipPath><clipPath id="__lottie_element_4"><path d="M0,0 L512,0 L512,512 L0,512z"></path></clipPath><radialGradient id="__lottie_element_15" spreadMethod="pad" gradientUnits="userSpaceOnUse" cx="-24.55500030517578" cy="-268.4989929199219" r="384.54237964504995" fx="-24.55500030517578" fy="-268.4989929199219"><stop offset="0%" stop-color="rgb(254,240,222)"></stop><stop offset="50%" stop-color="rgb(249,213,185)"></stop><stop offset="100%" stop-color="rgb(244,187,148)"></stop></radialGradient></defs><g clip-path="url(#__lottie_element_2)"><g clip-path="url(#__lottie_element_4)" style="display: block;" transform="matrix(1,0,0,1,44,12)" opacity="1"><g style="display: block;" transform="matrix(0.8199999928474426,0,0,0.8199999928474426,14.989506721496582,20.095827102661133)" opacity="1"><g opacity="1" transform="matrix(1,0,0,1,237.5290069580078,274.57000732421875)"><path fill="url(#__lottie_element_15)" fill-opacity="1" d=" M179.31900024414062,-66.15299987792969 C174.16200256347656,-107.93699645996094 178.6909942626953,-158.91700744628906 148.99600219726562,-188.76100158691406 C67.74299621582031,-270.4230041503906 -57.79199981689453,-255.80999755859375 -130.93699645996094,-200.91000366210938 C-198.66400146484375,-150.0760040283203 -202.77999877929688,-51.231998443603516 -194.77999877929688,16.95199966430664 C-187.09800720214844,82.41799926757812 -148.77099609375,146.4739990234375 -99.21900177001953,189.94200134277344 C-56.992000579833984,226.98500061035156 2.1530001163482666,243.06300354003906 58.31999969482422,243.79800415039062 C94.53399658203125,244.27200317382812 137.5500030517578,225.28700256347656 154.5189971923828,193.2899932861328 C181.24200439453125,142.89999389648438 169.75999450683594,80.20899963378906 175.18699645996094,23.43000030517578 C178.031005859375,-6.327000141143799 182.9810028076172,-36.486000061035156 179.31900024414062,-66.15299987792969z"></path><path stroke-linecap="butt" stroke-linejoin="miter" fill-opacity="0" stroke-miterlimit="10" stroke="rgb(182,94,49)" stroke-opacity="1" stroke-width="14" d=" M179.31900024414062,-66.15299987792969 C174.16200256347656,-107.93699645996094 178.6909942626953,-158.91700744628906 148.99600219726562,-188.76100158691406 C67.74299621582031,-270.4230041503906 -57.79199981689453,-255.80999755859375 -130.93699645996094,-200.91000366210938 C-198.66400146484375,-150.0760040283203 -202.77999877929688,-51.231998443603516 -194.77999877929688,16.95199966430664 C-187.09800720214844,82.41799926757812 -148.77099609375,146.4739990234375 -99.21900177001953,189.94200134277344 C-56.992000579833984,226.98500061035156 2.1530001163482666,243.06300354003906 58.31999969482422,243.79800415039062 C94.53399658203125,244.27200317382812 137.5500030517578,225.28700256347656 154.5189971923828,193.2899932861328 C181.24200439453125,142.89999389648438 169.75999450683594,80.20899963378906 175.18699645996094,23.43000030517578 C178.031005859375,-6.327000141143799 182.9810028076172,-36.486000061035156 179.31900024414062,-66.15299987792969z"></path></g><g opacity="1" transform="matrix(1,0,0,1,221.8990020751953,333.3890075683594)"><path fill="rgb(229,149,112)" fill-opacity="1" d=" M168.81300354003906,93.01899719238281 C160.21099853515625,103.40399932861328 148.29100036621094,109.2239990234375 136.25,116.14700317382812 C124.20899963378906,123.07099914550781 97.51200103759766,129.6959991455078 76.87000274658203,129.63900756835938 C37.417999267578125,129.531005859375 -21.999000549316406,114.24600219726562 -66.2239990234375,77.43599700927734 C-131.62100219726562,23.0049991607666 -151.31300354003906,-43.310001373291016 -159.07200622558594,-94.79199981689453 C-163.05799865722656,-121.24099731445312 -164.3679962158203,-148.44400024414062 -160.65899658203125,-175.19000244140625 C-176.83399963378906,-134.50999450683594 -177.1929931640625,-90.96900177001953 -170.91299438476562,-49.29800033569336 C-163.15499877929688,2.184000015258789 -143.46299743652344,68.4990005493164 -78.06500244140625,122.93000030517578 C-33.84000015258789,159.74000549316406 25.57699966430664,175.02499389648438 65.02899932861328,175.13299560546875 C85.66999816894531,175.19000244140625 112.36699676513672,168.56500244140625 124.40799713134766,161.64199829101562 C136.4499969482422,154.71800231933594 148.37100219726562,148.8979949951172 156.9709930419922,138.51300048828125 C165.57200622558594,128.1269989013672 171.37600708007812,118.02400207519531 171.37600708007812,118.02400207519531 C171.37600708007812,118.02400207519531 177.1929931640625,81.91000366210938 177.1929931640625,81.91000366210938 C174.90499877929688,85.22100067138672 172.05799865722656,89.0989990234375 168.81300354003906,93.01899719238281z"></path></g><g opacity="1" transform="matrix(1,0,0,1,-7.5399932861328125,6.607025146484375)"><g opacity="1" transform="matrix(1,0,0,1,176.77499389648438,366.0570068359375)"><path stroke-linecap="round" stroke-linejoin="round" fill-opacity="0" stroke="rgb(222,130,88)" stroke-opacity="0.68" stroke-width="11" d=" M-50.36800003051758,-70.98999786376953 C-50.36800003051758,-70.98999786376953 -43.34199905395508,-45.25899887084961 -34.582000732421875,-34.308998107910156 C-25.822999954223633,-23.360000610351562 -13.503999710083008,-14.418000221252441 -12.77400016784668,0.546999990940094 C-12.043999671936035,15.51099967956543 0.12200000137090683,23.408000946044922 11.95300006866455,36.04199981689453 C28.104000091552734,53.28799819946289 50.36800003051758,70.98999786376953 50.36800003051758,70.98999786376953"></path></g><g opacity="0.75" transform="matrix(1,0,0,1,182.47799682617188,383.6669921875)"><path stroke-linecap="round" stroke-linejoin="round" fill-opacity="0" stroke="rgb(197,119,79)" stroke-opacity="1" stroke-width="11" d=" M-80.79900360107422,-79.29299926757812 C-80.79900360107422,-79.29299926757812 -77.23999786376953,-49.18199920654297 -66.83899688720703,-26.735000610351562 C-56.43600082397461,-4.288000106811523 -46.034000396728516,3.375999927520752 -42.749000549316406,12.13599967956543 C-39.46500015258789,20.895000457763672 -34.5369987487793,30.75 -24.68199920654297,32.939998626708984 C-14.82800006866455,35.130001068115234 4.607999801635742,53.47100067138672 14.461999893188477,59.49300003051758 C24.316999435424805,65.51499938964844 53.78900146484375,76.37300109863281 80.7979965209961,79.29299926757812"></path></g><g opacity="1" transform="matrix(1,0,0,1,183.52699279785156,386.7699890136719)"><path stroke-linecap="round" stroke-linejoin="round" fill-opacity="0" stroke="rgb(197,119,79)" stroke-opacity="1" stroke-width="11" d=" M-116.88600158691406,-101.01000213623047 C-116.88600158691406,-101.01000213623047 -107.03199768066406,-69.25599670410156 -97.177001953125,-58.854000091552734 C-87.3219985961914,-48.45199966430664 -73.63500213623047,-27.648000717163086 -71.44599914550781,-15.055999755859375 C-69.25599670410156,-2.4639999866485596 -73.08799743652344,11.496999740600586 -57.48500061035156,28.742000579833984 C-45.43600082397461,42.058998107910156 -32.847999572753906,50.915000915527344 -18.06599998474121,59.12799835205078 C-3.2839999198913574,67.33999633789062 17.246000289916992,74.18299865722656 27.10099983215332,79.65799713134766 C36.95500183105469,85.13300323486328 49,90.05999755859375 61.04399871826172,92.25 C73.08899688720703,94.43900299072266 82.94300079345703,97.7239990234375 95.53399658203125,98.81900024414062 C108.1259994506836,99.91500091552734 116.88600158691406,101.01000213623047 116.88600158691406,101.01000213623047"></path></g></g></g><g style="display: block;" transform="matrix(0.6887999773025513,0,0,0.6887999773025513,159.63206481933594,53.36008071899414)" opacity="0.64"><g opacity="1" transform="matrix(1,0,0,1,82.49299621582031,33.834999084472656)"><path stroke-linecap="round" stroke-linejoin="round" fill-opacity="0" stroke="rgb(229,149,112)" stroke-opacity="1" stroke-width="10" d=" M-50.85200119018555,0.05900000035762787 C-50.85200119018555,0.05900000035762787 -13.57699966430664,2.743000030517578 2.8559999465942383,2.5899999141693115 C19.288000106811523,2.437000036239624 31.84600067138672,1.3539999723434448 38.362998962402344,-0.019999999552965164 C44.880001068115234,-1.3940000534057617 50.85200119018555,-2.743000030517578 50.85200119018555,-2.743000030517578"></path></g><g opacity="1" transform="matrix(1,0,0,1,63.709999084472656,19.451000213623047)"><path stroke-linecap="round" stroke-linejoin="round" fill-opacity="0" stroke="rgb(229,149,112)" stroke-opacity="1" stroke-width="10" d=" M-46.505001068115234,2.246000051498413 C-46.505001068115234,2.246000051498413 -40.0890007019043,-0.6639999747276306 -28.075000762939453,-0.12099999934434891 C-16.06100082397461,0.421999990940094 -9.510000228881836,0.6690000295639038 4.636000156402588,0.06599999964237213 C18.7810001373291,-0.5370000004768372 32.36000061035156,-1.6440000534057617 37.25600051879883,-1.8519999980926514 C42.152000427246094,-2.061000108718872 46.505001068115234,-2.246000051498413 46.505001068115234,-2.246000051498413"></path></g></g><g style="display: block;" transform="matrix(0.91839998960495,0,0,0.91839998960495,86.83665466308594,63.426788330078125)" opacity="1"><g opacity="1" transform="matrix(0.934149980545044,0,0,0.9750000238418579,14.777725219726562,2.1208419799804688)"><g opacity="1" transform="matrix(1,0,0,1,264.65301513671875,78.0999984741211)"><path fill="rgb(229,149,112)" fill-opacity="1" d=" M-53.6879997253418,30.718000411987305 C-50.24800109863281,37.21099853515625 -41.41600036621094,43.25600051879883 -34.55799865722656,46.263999938964844 C-24.04599952697754,50.87300109863281 -18.420000076293945,49.85900115966797 -5.302000045776367,48.45899963378906 C18.70400047302246,45.895999908447266 41.106998443603516,29.340999603271484 34.42100143432617,-5.408999919891357 C25.37700080871582,-52.41299819946289 -5.197999954223633,-51.86399841308594 -36.69900131225586,-29.44300079345703 C-48.09000015258789,-21.334999084472656 -53.16899871826172,-11.875 -56.279998779296875,-2.5980000495910645 C-61.46500015258789,12.86400032043457 -58.84299850463867,20.989999771118164 -53.6879997253418,30.718000411987305z"></path></g><g opacity="1" transform="matrix(1,0,0,1,270.3059997558594,70.58000183105469)"><path fill="rgb(255,255,255)" fill-opacity="1" d=" M-50.68600082397461,30.31599998474121 C-47.36800003051758,36.10200119018555 -39.68000030517578,41.415000915527344 -32.893001556396484,44.00400161743164 C-22.492000579833984,47.972999572753906 -13.831999778747559,47.816001892089844 -0.7289999723434448,46.33100128173828 C23.250999450683594,43.612998962402344 57.07899856567383,25.350000381469727 51.00699996948242,-5.815999984741211 C42.79499816894531,-47.97200012207031 0.13099999725818634,-47.617000579833984 -31.66200065612793,-26.895000457763672 C-43.159000396728516,-19.402000427246094 -48.38399887084961,-10.798999786376953 -51.64400100708008,-2.3949999809265137 C-57.07899856567383,11.612000465393066 -55.65999984741211,21.648000717163086 -50.68600082397461,30.31599998474121z"></path><path stroke-linecap="round" stroke-linejoin="round" fill-opacity="0" stroke="rgb(108,80,111)" stroke-opacity="1" stroke-width="11" d=" M-50.68600082397461,30.31599998474121 C-47.36800003051758,36.10200119018555 -39.68000030517578,41.415000915527344 -32.893001556396484,44.00400161743164 C-22.492000579833984,47.972999572753906 -13.831999778747559,47.816001892089844 -0.7289999723434448,46.33100128173828 C23.250999450683594,43.612998962402344 57.07899856567383,25.350000381469727 51.00699996948242,-5.815999984741211 C42.79499816894531,-47.97200012207031 0.13099999725818634,-47.617000579833984 -31.66200065612793,-26.895000457763672 C-43.159000396728516,-19.402000427246094 -48.38399887084961,-10.798999786376953 -51.64400100708008,-2.3949999809265137 C-57.07899856567383,11.612000465393066 -55.65999984741211,21.648000717163086 -50.68600082397461,30.31599998474121z"></path></g><g opacity="1" transform="matrix(1,0,0,1,269.6579895019531,80.2979965209961)"><path fill="rgb(201,201,251)" fill-opacity="1" d=" M44.34600067138672,-10.595000267028809 C44.34600067138672,-10.595000267028809 37.525001525878906,19.549999237060547 2.8510000705718994,22.013999938964844 C-5.158999919891357,22.58300018310547 -34.025001525878906,23.6200008392334 -38.68000030517578,-2.6579999923706055 C-41.608001708984375,-19.191999435424805 -27.722000122070312,-31.910999298095703 -27.722000122070312,-31.910999298095703 C-27.722000122070312,-31.910999298095703 -43.077999114990234,-23.547000885009766 -47.45800018310547,-4.203000068664551 C-49.849998474121094,6.361999988555908 -46.75299835205078,13.487000465393066 -43.74800109863281,17.676000595092773 C-43.71799850463867,17.72800064086914 -45.73400115966797,16.268999099731445 -45.70399856567383,16.320999145507812 C-42.70800018310547,21.542999267578125 -36.04499816894531,26.483999252319336 -29.91900062561035,28.82200050354004 C-20.52899932861328,32.404998779296875 -0.6480000019073486,33.297000885009766 10.5600004196167,29.288999557495117 C51.89500045776367,14.506999969482422 44.34600067138672,-10.595000267028809 44.34600067138672,-10.595000267028809z"></path></g><g opacity="1" transform="matrix(1,0,0,1,0,0)"><g opacity="1" transform="matrix(1,0,0,1,290.2040100097656,55.37699890136719)"><path fill="rgb(0,0,0)" fill-opacity="1" d=" M-14.25,-7.13100004196167 C-10.937000274658203,-11.928999900817871 -5.885000228881836,-16.4689998626709 4.0370001792907715,-16.4689998626709 C13.958999633789062,-16.4689998626709 17.75200080871582,-8.201000213623047 17.459999084472656,-2.072999954223633 C17.16900062561035,4.054999828338623 14.152999877929688,8.531000137329102 9.678999900817871,11.545999526977539 C2.374000072479248,16.4689998626709 -9.581000328063965,13.491999626159668 -13.666000366210938,7.947000026702881 C-17.75200080871582,2.4030001163482666 -16.031999588012695,-4.548999786376953 -14.25,-7.13100004196167z"></path></g><g opacity="1" transform="matrix(1,0,0,1,291.54998779296875,61.573001861572266)"><path fill="rgb(108,80,111)" fill-opacity="1" d=" M-8.182000160217285,-3.0859999656677246 C-6.34499979019165,-4.85099983215332 -3.5420000553131104,-6.520999908447266 1.9620000123977661,-6.520999908447266 C7.464000225067139,-6.520999908447266 9.569000244140625,-3.4800000190734863 9.406999588012695,-1.2259999513626099 C9.246000289916992,1.0290000438690186 7.927999973297119,4.590000152587891 5.447000026702881,5.698999881744385 C1.3940000534057617,7.510000228881836 -4.980000019073486,6.0229997634887695 -7.419000148773193,4.192999839782715 C-10.704000473022461,1.7300000190734863 -9.170999526977539,-2.135999917984009 -8.182000160217285,-3.0859999656677246z"></path></g><g opacity="1" transform="matrix(1,0,0,1,303.2720031738281,47.112998962402344)"><path fill="rgb(255,255,255)" fill-opacity="1" d=" M-4.131999969482422,0.9210000038146973 C-3.7100000381469727,-0.2639999985694885 -2.8450000286102295,-1.6019999980926514 -0.4429999887943268,-2.7320001125335693 C1.9600000381469727,-3.8610000610351562 3.5329999923706055,-2.9019999504089355 3.947000026702881,-1.8370000123977661 C4.361000061035156,-0.7720000147819519 3.984999895095825,0.3240000009536743 3.1389999389648438,1.340000033378601 C1.7610000371932983,3.000999927520752 -1.3700000047683716,3.859999895095825 -2.7980000972747803,3.3919999599456787 C-4.2270002365112305,2.9240000247955322 -4.360000133514404,1.559000015258789 -4.131999969482422,0.9210000038146973z"></path></g><g opacity="1" transform="matrix(1,0,0,1,276.6109924316406,62.479000091552734)"><path fill="rgb(255,255,255)" fill-opacity="1" d=" M-5.241000175476074,-2.622999906539917 C-4.021999835968018,-4.388000011444092 -2.1640000343322754,-6.058000087738037 1.4859999418258667,-6.058000087738037 C5.135000228881836,-6.058000087738037 6.5289998054504395,-3.0169999599456787 6.421999931335449,-0.7630000114440918 C6.315000057220459,1.4919999837875366 5.204999923706055,3.138000011444092 3.559999942779541,4.247000217437744 C0.871999979019165,6.058000087738037 -3.5239999294281006,4.961999893188477 -5.026000022888184,2.9230000972747803 C-6.5289998054504395,0.8830000162124634 -5.896999835968018,-1.6729999780654907 -5.241000175476074,-2.622999906539917z"></path></g></g><g opacity="0" transform="matrix(1,0,0,1,0,0)"><path fill="rgb(255,194,153)" fill-opacity="1" d=" M260.2019958496094,30.19300079345703 C228.9709930419922,28.79800033569336 211.34100341796875,61.222999572753906 211.95799255371094,81.7020034790039 C212.74099731445312,107.6989974975586 198.44000244140625,35.86000061035156 254.31500244140625,29.43899917602539 C320.010009765625,21.889999389648438 311.3940124511719,95.05699920654297 310.8080139160156,72.82499694824219 C310.1210021972656,46.77799987792969 297.697998046875,31.868000030517578 260.2019958496094,30.19300079345703z"></path><path stroke-linecap="butt" stroke-linejoin="miter" fill-opacity="0" stroke-miterlimit="4" stroke="rgb(130,64,57)" stroke-opacity="1" stroke-width="10" d=" M260.2019958496094,30.19300079345703 C228.9709930419922,28.79800033569336 211.34100341796875,61.222999572753906 211.95799255371094,81.7020034790039 C212.74099731445312,107.6989974975586 198.44000244140625,35.86000061035156 254.31500244140625,29.43899917602539 C320.010009765625,21.889999389648438 311.3940124511719,95.05699920654297 310.8080139160156,72.82499694824219 C310.1210021972656,46.77799987792969 297.697998046875,31.868000030517578 260.2019958496094,30.19300079345703z"></path></g></g><g opacity="1" transform="matrix(1,0,0,1,0,0)"><g opacity="1" transform="matrix(1,0,0,1,40.0629997253418,120.28500366210938)"><path fill="rgb(229,149,112)" fill-opacity="1" d=" M8.520999908447266,-24.589000701904297 C8.520999908447266,-24.589000701904297 -2.7829999923706055,-25.79599952697754 -10.46399974822998,-24.95400047302246 C-18.145000457763672,-24.11199951171875 -25.04800033569336,-22.062999725341797 -23.340999603271484,-18.69499969482422 C-21.634000778198242,-15.32699966430664 -13.13700008392334,-13.38700008392334 -14.843999862670898,-12.545000076293945 C-16.551000595092773,-11.70300006866455 -29.07699966430664,-10.720000267028809 -35.57400131225586,-3.819999933242798 C-39.8120002746582,0.6809999942779541 -37.63199996948242,5.377999782562256 -32.72700119018555,3.880000114440918 C-19.58799934387207,-0.13500000536441803 -0.5289999842643738,-6.002999782562256 -0.24500000476837158,-4.880000114440918 C0.03999999910593033,-3.756999969482422 -19.770000457763672,13.369000434875488 -17.367000579833984,19.7549991607666 C-15.093000411987305,25.79599952697754 -9.116999626159668,17.790000915527344 -5.98799991607666,14.70300006866455 C-2.8580000400543213,11.616000175476074 6.296000003814697,8.699000358581543 8.880000114440918,8.260000228881836 C17.238000869750977,6.839000225067139 18.680999755859375,8.371000289916992 24.93899917602539,7.53000020980835 C31.197999954223633,6.686999797821045 39.8120002746582,2.3540000915527344 39.8120002746582,2.3540000915527344 C39.8120002746582,2.3540000915527344 11.934000015258789,-19.53700065612793 11.934000015258789,-19.53700065612793 C11.934000015258789,-19.53700065612793 8.520999908447266,-24.589000701904297 8.520999908447266,-24.589000701904297z"></path></g><g opacity="1" transform="matrix(1,0,0,1,101.12999725341797,91.16200256347656)"><path fill="rgb(229,149,112)" fill-opacity="1" d=" M-53.25199890136719,26.2810001373291 C-50,33.85200119018555 -44.38800048828125,40.20399856567383 -37.42399978637695,44.77399826049805 C-29.94300079345703,49.68299865722656 -18.395999908447266,55.310001373291016 -3.8459999561309814,56.2599983215332 C20.08300018310547,57.82400131225586 53.0890007019043,48.14699935913086 57.38800048828125,17.12700080871582 C57.87300109863281,13.628000259399414 57.99300003051758,9.857999801635742 57.69300079345703,5.801000118255615 C54.73400115966797,-34.220001220703125 18.639999389648438,-58 -21.006000518798828,-42.34000015258789 C-60.6510009765625,-26.679000854492188 -57.69200134277344,11.987000465393066 -54.733001708984375,22.040000915527344 C-54.327999114990234,23.41900062561035 -53.858001708984375,24.8700008392334 -53.25199890136719,26.2810001373291z"></path></g><g opacity="1" transform="matrix(1,0,0,1,96.84700012207031,83.6510009765625)"><path fill="rgb(255,255,255)" fill-opacity="1" d=" M-49.270999908447266,24.80699920654297 C-46.262001037597656,31.952999114990234 -41.06999969482422,37.95000076293945 -34.625999450683594,42.263999938964844 C-27.704999923706055,46.89699935913086 -17.020999908447266,52.207000732421875 -3.559000015258789,53.10499954223633 C21.077999114990234,54.74700164794922 56.117000579833984,43.250999450683594 53.380001068115234,5.474999904632568 C50.643001556396484,-32.29999923706055 17.2450008392334,-54.74700164794922 -19.43600082397461,-39.96500015258789 C-56.117000579833984,-25.183000564575195 -53.37900161743164,11.3149995803833 -50.641998291015625,20.80500030517578 C-50.266998291015625,22.106000900268555 -49.832000732421875,23.475000381469727 -49.270999908447266,24.80699920654297z"></path></g><g opacity="1" transform="matrix(1,0,0,1,96.84700012207031,83.6510009765625)"><path stroke-linecap="round" stroke-linejoin="round" fill-opacity="0" stroke="rgb(108,80,111)" stroke-opacity="1" stroke-width="11" d=" M-49.270999908447266,24.80699920654297 C-46.262001037597656,31.952999114990234 -41.06999969482422,37.95000076293945 -34.625999450683594,42.263999938964844 C-27.704999923706055,46.89699935913086 -17.020999908447266,52.207000732421875 -3.559000015258789,53.10499954223633 C21.077999114990234,54.74700164794922 56.117000579833984,43.250999450683594 53.380001068115234,5.474999904632568 C50.643001556396484,-32.29999923706055 17.2450008392334,-54.74700164794922 -19.43600082397461,-39.96500015258789 C-56.117000579833984,-25.183000564575195 -53.37900161743164,11.3149995803833 -50.641998291015625,20.80500030517578 C-50.266998291015625,22.106000900268555 -49.832000732421875,23.475000381469727 -49.270999908447266,24.80699920654297z"></path></g><g opacity="1" transform="matrix(1,0,0,1,99.6760025024414,88.4280014038086)"><path fill="rgb(201,201,251)" fill-opacity="1" d=" M46.58300018310547,-0.6990000009536743 C45.000999450683594,-21.905000686645508 32.21900177001953,-37.66299819946289 14.564000129699707,-43.09400177001953 C25.790000915527344,-36.29999923706055 33.44900131225586,-24.110000610351562 34.599998474121094,-8.770000457763672 C36.880001068115234,21.6299991607666 7.691999912261963,30.881999969482422 -12.831000328063965,29.559999465942383 C-24.04599952697754,28.83799934387207 -32.94599914550781,24.56399917602539 -38.71200180053711,20.836000442504883 C-42.95600128173828,18.091999053955078 -46.529998779296875,14.491000175476074 -49.08700180053711,10.265999794006348 C-48.93299865722656,11.420999526977539 -48.75899887084961,12.32800006866455 -48.60499954223633,12.925999641418457 C-48.30400085449219,14.093999862670898 -47.86399841308594,15.300000190734863 -47.35200119018555,16.482999801635742 C-44.597999572753906,22.833999633789062 -39.84600067138672,28.163000106811523 -33.94900131225586,31.996999740600586 C-27.614999771118164,36.11399841308594 -17.84000015258789,40.834999084472656 -5.520999908447266,41.632999420166016 C17.02400016784668,43.09299850463867 49.0880012512207,32.875 46.58300018310547,-0.6990000009536743z"></path></g><g opacity="1" transform="matrix(1,0,0,1,79.25499725341797,99.5770034790039)"><path fill="rgb(28,10,30)" fill-opacity="1" d=" M-17.924999237060547,7.374000072479248 C-16.834999084472656,11.743000030517578 -10.246999740600586,19.65999984741211 2.7200000286102295,17.30299949645996 C15.696000099182129,14.942999839782715 21.409000396728516,3.124000072479248 18.645000457763672,-4.815000057220459 C14.810999870300293,-15.826000213623047 1.6380000114440918,-19.65999984741211 -9.371999740600586,-13.958000183105469 C-21.409000396728516,-7.724999904632568 -19.215999603271484,2.2009999752044678 -17.924999237060547,7.374000072479248z"></path></g><g opacity="1" transform="matrix(1,0,0,1,81.13600158691406,107.1050033569336)"><path fill="rgb(108,80,111)" fill-opacity="1" d=" M-8.182999610900879,-3.0869998931884766 C-6.34499979019165,-4.8520002365112305 -3.5420000553131104,-6.521999835968018 1.9609999656677246,-6.521999835968018 C7.464000225067139,-6.521999835968018 9.567999839782715,-3.4800000190734863 9.406999588012695,-1.225000023841858 C9.244999885559082,1.0290000438690186 7.927999973297119,4.589000225067139 5.446000099182129,5.697999954223633 C1.3940000534057617,7.508999824523926 -4.980999946594238,6.0229997634887695 -7.420000076293945,4.193999767303467 C-10.704000473022461,1.7300000190734863 -9.170999526977539,-2.13700008392334 -8.182999610900879,-3.0869998931884766z"></path></g><g opacity="1" transform="matrix(1,0,0,1,90.48500061035156,90.91200256347656)"><path fill="rgb(255,255,255)" fill-opacity="1" d=" M-4.132999897003174,0.9210000038146973 C-3.7109999656677246,-0.2639999985694885 -2.8459999561309814,-1.6019999980926514 -0.4429999887943268,-2.7320001125335693 C1.9589999914169312,-3.8610000610351562 3.5320000648498535,-2.9019999504089355 3.946000099182129,-1.8370000123977661 C4.361000061035156,-0.7730000019073486 3.9839999675750732,0.3230000138282776 3.1389999389648438,1.340000033378601 C1.7599999904632568,3.000999927520752 -1.371000051498413,3.859999895095825 -2.7990000247955322,3.3919999599456787 C-4.2270002365112305,2.9240000247955322 -4.361000061035156,1.559000015258789 -4.132999897003174,0.9210000038146973z"></path></g><g opacity="1" transform="matrix(1,0,0,1,66.1969985961914,106.09500122070312)"><path fill="rgb(255,255,255)" fill-opacity="1" d=" M-5.242000102996826,-2.622999906539917 C-4.02400016784668,-4.388000011444092 -2.1640000343322754,-6.058000087738037 1.4859999418258667,-6.058000087738037 C5.135000228881836,-6.058000087738037 6.53000020980835,-3.0169999599456787 6.422999858856201,-0.7630000114440918 C6.315999984741211,1.4919999837875366 5.205999851226807,3.138000011444092 3.561000108718872,4.247000217437744 C0.8740000128746033,6.058000087738037 -3.5250000953674316,4.961999893188477 -5.0279998779296875,2.9230000972747803 C-6.53000020980835,0.8830000162124634 -5.8979997634887695,-1.6729999780654907 -5.242000102996826,-2.622999906539917z"></path></g><g opacity="0" transform="matrix(1,0,0,1,0,0)"><path fill="rgb(255,194,153)" fill-opacity="1" d=" M111.20800018310547,40.81700134277344 C91.15599822998047,37.819000244140625 62.79800033569336,43.358001708984375 51.768001556396484,68.39099884033203 C34.11399841308594,108.45899963378906 47.900001525878906,41.2400016784668 94.74600219726562,40.79199981689453 C136.27200317382812,40.39500045776367 145.01300048828125,58.59299850463867 149.2010040283203,81.38600158691406 C151.78199768066406,95.43499755859375 153.38999938964844,85.02899932861328 148.72000122070312,71.6520004272461 C145.4010009765625,62.145999908447266 134.9739990234375,44.369998931884766 111.20800018310547,40.81700134277344z"></path><path stroke-linecap="butt" stroke-linejoin="miter" fill-opacity="0" stroke-miterlimit="4" stroke="rgb(130,64,57)" stroke-opacity="1" stroke-width="10" d=" M111.20800018310547,40.81700134277344 C91.15599822998047,37.819000244140625 62.79800033569336,43.358001708984375 51.768001556396484,68.39099884033203 C34.11399841308594,108.45899963378906 47.900001525878906,41.2400016784668 94.74600219726562,40.79199981689453 C136.27200317382812,40.39500045776367 145.01300048828125,58.59299850463867 149.2010040283203,81.38600158691406 C151.78199768066406,95.43499755859375 153.38999938964844,85.02899932861328 148.72000122070312,71.6520004272461 C145.4010009765625,62.145999908447266 134.9739990234375,44.369998931884766 111.20800018310547,40.81700134277344z"></path></g></g></g><g style="display: block;" transform="matrix(0.8199999928474426,0,0,0.8199999928474426,176.18756103515625,152.48646545410156)" opacity="1"><g opacity="1" transform="matrix(1,0,0,1,0,0)"><g opacity="1" transform="matrix(1,0,0,1,119.802001953125,43.457000732421875)"><path stroke-linecap="round" stroke-linejoin="round" fill-opacity="0" stroke="rgb(182,94,49)" stroke-opacity="1" stroke-width="13" d=" M55.49100112915039,-13.314000129699707 C55.49100112915039,-13.314000129699707 41.606998443603516,-12.281000137329102 41.606998443603516,-12.281000137329102 C41.606998443603516,-12.281000137329102 26.823999404907227,-6.692999839782715 4.181000232696533,0.7540000081062317 C-20.73699951171875,8.949000358581543 -39.70100021362305,6.985000133514404 -39.70100021362305,6.985000133514404"></path></g><g opacity="1" transform="matrix(1.002369999885559,0,0,0.9981099963188171,87.53800201416016,255.84100341796875)"><path stroke-linecap="round" stroke-linejoin="round" fill-opacity="0" stroke="rgb(182,94,49)" stroke-opacity="1" stroke-width="13" d=" M-46.104000091552734,-31.3439998626709 C-46.104000091552734,-31.3439998626709 -22.003999710083008,-29.974000930786133 -1.0479999780654907,-16.013999938964844 C15.437000274658203,-5.031000137329102 32.74399948120117,14.918000221252441 36.67300033569336,19.844999313354492 C40.60300064086914,24.77199935913086 46.104000091552734,31.3439998626709 46.104000091552734,31.3439998626709"></path></g><g opacity="1" transform="matrix(1,0,0,1,0,0)"><g opacity="1" transform="matrix(1,0,0,1,80.33200073242188,72.48100280761719)"><path stroke-linecap="round" stroke-linejoin="round" fill-opacity="0" stroke="rgb(232,153,108)" stroke-opacity="1" stroke-width="10.661" d=" M-32.638999938964844,2.006999969482422 C-32.638999938964844,2.006999969482422 -11.246000289916992,1.4609999656677246 6.072000026702881,0.9129999876022339 C23.389999389648438,0.36500000953674316 32.638999938964844,-2.006999969482422 32.638999938964844,-2.006999969482422"></path></g><g opacity="1" transform="matrix(1,0,0,1,83.60199737548828,83.09300231933594)"><path stroke-linecap="round" stroke-linejoin="round" fill-opacity="0" stroke="rgb(232,153,108)" stroke-opacity="1" stroke-width="10.661" d=" M-36.41899871826172,-6.9629998207092285 C-36.41899871826172,-6.9629998207092285 -16.554000854492188,3.986999988555908 5.348999977111816,5.630000114440918 C23.134000778198242,6.9629998207092285 36.41899871826172,2.8910000324249268 36.41899871826172,2.8910000324249268"></path></g><g opacity="1" transform="matrix(1,0,0,1,93.0260009765625,106.51499938964844)"><path stroke-linecap="round" stroke-linejoin="round" fill-opacity="0" stroke="rgb(232,153,108)" stroke-opacity="1" stroke-width="10.661" d=" M-40.749000549316406,-1.36899995803833 C-40.749000549316406,-1.36899995803833 -16.299999237060547,3.010999917984009 2.0369999408721924,3.010999917984009 C20.375,3.010999917984009 40.749000549316406,-3.010999917984009 40.749000549316406,-3.010999917984009"></path></g><g opacity="1" transform="matrix(1,0,0,1,64.4280014038086,187.54299926757812)"><path stroke-linecap="round" stroke-linejoin="round" fill-opacity="0" stroke="rgb(232,153,108)" stroke-opacity="1" stroke-width="10.661" d=" M-37.7760009765625,-16.150999069213867 C-37.7760009765625,-16.150999069213867 -8.57699966430664,-14.690999984741211 11.680000305175781,-3.194000005722046 C31.93600082397461,8.303000450134277 37.7760009765625,16.150999069213867 37.7760009765625,16.150999069213867"></path></g><g opacity="1" transform="matrix(1,0,0,1,80.03099822998047,216.01100158691406)"><path stroke-linecap="round" stroke-linejoin="round" fill-opacity="0" stroke="rgb(232,153,108)" stroke-opacity="1" stroke-width="10.661" d=" M-28.19499969482422,-16.697999954223633 C-28.19499969482422,-16.697999954223633 -5.748000144958496,-10.128999710083008 7.390999794006348,-0.8209999799728394 C20.5310001373291,8.486000061035156 28.19499969482422,16.697999954223633 28.19499969482422,16.697999954223633"></path></g></g></g></g><g style="display: block;" transform="matrix(0.8199999928474426,0,0,0.8672402501106262,251.2888946533203,132.501708984375)" opacity="1"><g opacity="0.26" transform="matrix(1,0,0,1,88.22899627685547,182.447998046875)"><path fill="rgb(158,44,12)" fill-opacity="1" d=" M-51.21900177001953,6.3979997634887695 C-51.21900177001953,6.3979997634887695 -46.39899826049805,-16.5 -51.21900177001953,-31.565000534057617 C-56.03900146484375,-46.62900161743164 -64.197998046875,-70.47799682617188 -58.44900131225586,-90.01599884033203 C-50.060001373291016,-118.53600311279297 -35.16299819946289,-114.98100280761719 -4.432000160217285,-125.22599792480469 C21.249000549316406,-133.78599548339844 65.08000183105469,-146.0570068359375 69.2979965209961,-106.88800048828125 C73.51499938964844,-67.72000122070312 52.42599868774414,-32.16699981689453 56.643001556396484,-4.448999881744385 C60.25299835205078,19.268999099731445 69.9010009765625,69.66799926757812 57.24700164794922,100.4010009765625 C38.446998596191406,146.0570068359375 -2.2750000953674316,137.52699279785156 -37.82699966430664,108 C-56.941001892089844,92.12699890136719 -73.51599884033203,76.2979965209961 -64.47699737548828,48.57899856567383 C-55.4379997253418,20.860000610351562 -51.21900177001953,6.3979997634887695 -51.21900177001953,6.3979997634887695z"></path></g><g opacity="1" transform="matrix(1,0,0,1,98.35800170898438,187.40899658203125)"><path fill="rgb(248,101,82)" fill-opacity="1" d=" M-51.42499923706055,5.039999961853027 C-51.42499923706055,5.039999961853027 -47.04499816894531,-16.128999710083008 -49.96500015258789,-32.917999267578125 C-52.67499923706055,-48.50199890136719 -62.73899841308594,-74.16200256347656 -57.630001068115234,-96.06099700927734 C-50.874000549316406,-125.01200103759766 -38.7239990234375,-143.48399353027344 -7.991000175476074,-153.72900390625 C17.687999725341797,-162.28900146484375 64.8030014038086,-149.0989990234375 69.0199966430664,-109.93000030517578 C73.23799896240234,-70.76200103759766 55.3120002746582,-31.804000854492188 59.53099822998047,-4.085000038146973 C63.138999938964844,19.632999420166016 71.7239990234375,67.08100128173828 59.06999969482422,97.81199645996094 C40.27000045776367,143.468994140625 -7.816999912261963,162.28900146484375 -43.36899948120117,132.76300048828125 C-62.483001708984375,116.88899993896484 -73.23799896240234,74.73200225830078 -64.1989974975586,47.013999938964844 C-55.15999984741211,19.29400062561035 -51.42499923706055,5.039999961853027 -51.42499923706055,5.039999961853027z"></path><path stroke-linecap="butt" stroke-linejoin="miter" fill-opacity="0" stroke-miterlimit="10" stroke="rgb(193,51,51)" stroke-opacity="1" stroke-width="13" d=" M-51.42499923706055,5.039999961853027 C-51.42499923706055,5.039999961853027 -47.04499816894531,-16.128999710083008 -49.96500015258789,-32.917999267578125 C-52.67499923706055,-48.50199890136719 -62.73899841308594,-74.16200256347656 -57.630001068115234,-96.06099700927734 C-50.874000549316406,-125.01200103759766 -38.7239990234375,-143.48399353027344 -7.991000175476074,-153.72900390625 C17.687999725341797,-162.28900146484375 64.8030014038086,-149.0989990234375 69.0199966430664,-109.93000030517578 C73.23799896240234,-70.76200103759766 55.3120002746582,-31.804000854492188 59.53099822998047,-4.085000038146973 C63.138999938964844,19.632999420166016 71.7239990234375,67.08100128173828 59.06999969482422,97.81199645996094 C40.27000045776367,143.468994140625 -7.816999912261963,162.28900146484375 -43.36899948120117,132.76300048828125 C-62.483001708984375,116.88899993896484 -73.23799896240234,74.73200225830078 -64.1989974975586,47.013999938964844 C-55.15999984741211,19.29400062561035 -51.42499923706055,5.039999961853027 -51.42499923706055,5.039999961853027z"></path></g><g opacity="1" transform="matrix(1,0,0,1,104.2229995727539,179.73800659179688)"><path fill="rgb(68,22,17)" fill-opacity="1" d=" M-32.834999084472656,7.6020002365112305 C-31.709999084472656,-1.4539999961853027 -31.01099967956543,-15.392000198364258 -33.20100021362305,-28.89699935913086 C-35.202999114990234,-41.244998931884766 -36.12099838256836,-60.6510009765625 -33.20100021362305,-75.25 C-28.573999404907227,-98.38300323486328 -23.226999282836914,-115.52899932861328 -4.367000102996826,-123.79399871826172 C11.392999649047852,-130.6999969482422 38.70199966430664,-121.96800231933594 42.71699905395508,-78.9000015258789 C45.65999984741211,-47.33100128173828 25.89299964904785,-17.316999435424805 28.481000900268555,5.046000003814697 C30.695999145507812,24.180999755859375 40.891998291015625,45.560001373291016 30.30699920654297,80.96299743652344 C19.25,117.94599914550781 -12.111000061035156,130.69900512695312 -33.93000030517578,106.8759994506836 C-45.659000396728516,94.06999969482422 -44.95100021362305,59.52899932861328 -39.40399932861328,37.165000915527344 C-33.856998443603516,14.802000045776367 -33.76900100708008,15.114999771118164 -32.834999084472656,7.6020002365112305z"></path><path stroke-linecap="butt" stroke-linejoin="miter" fill-opacity="0" stroke-miterlimit="10" stroke="rgb(210,73,68)" stroke-opacity="1" stroke-width="7.07" d=" M-32.834999084472656,7.6020002365112305 C-31.709999084472656,-1.4539999961853027 -31.01099967956543,-15.392000198364258 -33.20100021362305,-28.89699935913086 C-35.202999114990234,-41.244998931884766 -36.12099838256836,-60.6510009765625 -33.20100021362305,-75.25 C-28.573999404907227,-98.38300323486328 -23.226999282836914,-115.52899932861328 -4.367000102996826,-123.79399871826172 C11.392999649047852,-130.6999969482422 38.70199966430664,-121.96800231933594 42.71699905395508,-78.9000015258789 C45.65999984741211,-47.33100128173828 25.89299964904785,-17.316999435424805 28.481000900268555,5.046000003814697 C30.695999145507812,24.180999755859375 40.891998291015625,45.560001373291016 30.30699920654297,80.96299743652344 C19.25,117.94599914550781 -12.111000061035156,130.69900512695312 -33.93000030517578,106.8759994506836 C-45.659000396728516,94.06999969482422 -44.95100021362305,59.52899932861328 -39.40399932861328,37.165000915527344 C-33.856998443603516,14.802000045776367 -33.76900100708008,15.114999771118164 -32.834999084472656,7.6020002365112305z"></path></g><g opacity="1" transform="matrix(1,0,0,1,95.47599792480469,230.4080047607422)"><path fill="rgb(248,52,24)" fill-opacity="1" d=" M-28.833999633789062,-22.6299991607666 C-28.833999633789062,-22.6299991607666 -1.8250000476837158,-22.993000030517578 13.869999885559082,-10.218999862670898 C29.56399917602539,2.555999994277954 33.94300079345703,16.790000915527344 33.94300079345703,16.790000915527344 C33.94300079345703,16.790000915527344 4.744999885559082,22.264999389648438 4.744999885559082,22.264999389648438 C4.744999885559082,22.264999389648438 -30.29400062561035,22.993000030517578 -30.29400062561035,22.993000030517578 C-30.29400062561035,22.993000030517578 -33.94300079345703,17.51799964904785 -33.577999114990234,7.298999786376953 C-33.2140007019043,-2.9210000038146973 -28.833999633789062,-22.6299991607666 -28.833999633789062,-22.6299991607666z"></path><path stroke-linecap="round" stroke-linejoin="round" fill-opacity="0" stroke="rgb(197,37,37)" stroke-opacity="1" stroke-width="10" d=" M-28.833999633789062,-22.6299991607666 C-28.833999633789062,-22.6299991607666 -1.8250000476837158,-22.993000030517578 13.869999885559082,-10.218999862670898 C29.56399917602539,2.555999994277954 33.94300079345703,16.790000915527344 33.94300079345703,16.790000915527344 C33.94300079345703,16.790000915527344 4.744999885559082,22.264999389648438 4.744999885559082,22.264999389648438 C4.744999885559082,22.264999389648438 -30.29400062561035,22.993000030517578 -30.29400062561035,22.993000030517578 C-30.29400062561035,22.993000030517578 -33.94300079345703,17.51799964904785 -33.577999114990234,7.298999786376953 C-33.2140007019043,-2.9210000038146973 -28.833999633789062,-22.6299991607666 -28.833999633789062,-22.6299991607666z"></path></g><g opacity="1" transform="matrix(0.9374899864196777,0,0,1,7.975654602050781,-0.18402099609375)"><g opacity="1" transform="matrix(1,0,0,1,0,0)"><path fill="rgb(255,255,255)" fill-opacity="1" d=" M132.4550018310547,247.01499938964844 C132.4550018310547,247.01499938964844 91.64600372314453,247.58200073242188 76.40599822998047,246.56199645996094 C72.11599731445312,246.27499389648438 69.69599914550781,246.55799865722656 68.43299865722656,247.11300659179688 C65.20800018310547,248.5290069580078 69.52200317382812,251.71600341796875 69.52200317382812,251.71600341796875 C69.52200317382812,251.71600341796875 68.39800262451172,273.7340087890625 86.35600280761719,274.6830139160156 C104.31400299072266,275.6319885253906 111.14199829101562,277.14801025390625 121.95700073242188,273.32598876953125 C132.77200317382812,269.5039978027344 130.49400329589844,263.5320129394531 130.98199462890625,259.97900390625 C131.47000122070312,256.4259948730469 132.4550018310547,247.01499938964844 132.4550018310547,247.01499938964844z"></path><path stroke-linecap="round" stroke-linejoin="round" fill-opacity="0" stroke="rgb(108,80,111)" stroke-opacity="1" stroke-width="8.887" d=" M132.4550018310547,247.01499938964844 C132.4550018310547,247.01499938964844 91.64600372314453,247.58200073242188 76.40599822998047,246.56199645996094 C72.11599731445312,246.27499389648438 69.69599914550781,246.55799865722656 68.43299865722656,247.11300659179688 C65.20800018310547,248.5290069580078 69.52200317382812,251.71600341796875 69.52200317382812,251.71600341796875 C69.52200317382812,251.71600341796875 68.39800262451172,273.7340087890625 86.35600280761719,274.6830139160156 C104.31400299072266,275.6319885253906 111.14199829101562,277.14801025390625 121.95700073242188,273.32598876953125 C132.77200317382812,269.5039978027344 130.49400329589844,263.5320129394531 130.98199462890625,259.97900390625 C131.47000122070312,256.4259948730469 132.4550018310547,247.01499938964844 132.4550018310547,247.01499938964844z"></path></g><g opacity="1" transform="matrix(1,0,0,1,96.3479995727539,260.9750061035156)"><path fill="rgb(255,255,255)" fill-opacity="1" d=" M-30.47599983215332,-13.413999557495117 C-30.47599983215332,-13.413999557495117 -7.869999885559082,-13.869000434875488 6.14300012588501,-14.142000198364258 C20.1560001373291,-14.416000366210938 31.767000198364258,-15.09000015258789 32.03200149536133,-13.446999549865723 C32.29499816894531,-11.803999900817871 32.676998138427734,6.38700008392334 29.239999771118164,9.944999694824219 C25.80299949645996,13.503999710083008 21.75200080871582,15.604000091552734 16.464000701904297,15.057000160217285 C11.175999641418457,14.508999824523926 -1.8769999742507935,9.855999946594238 -9.281000137329102,9.581000328063965 C-16.683000564575195,9.307999610900879 -24.702999114990234,15.968999862670898 -29.72599983215332,15.420999526977539 C-34.749000549316406,14.87399959564209 -34.042999267578125,10.767999649047852 -35.10100173950195,3.1029999256134033 C-35.88999938964844,-2.61299991607666 -30.47599983215332,-13.413999557495117 -30.47599983215332,-13.413999557495117z"></path><path stroke-linecap="round" stroke-linejoin="round" fill-opacity="0" stroke="rgb(108,80,111)" stroke-opacity="1" stroke-width="8.887" d=" M-30.47599983215332,-13.413999557495117 C-30.47599983215332,-13.413999557495117 -7.869999885559082,-13.869000434875488 6.14300012588501,-14.142000198364258 C20.1560001373291,-14.416000366210938 31.767000198364258,-15.09000015258789 32.03200149536133,-13.446999549865723 C32.29499816894531,-11.803999900817871 32.676998138427734,6.38700008392334 29.239999771118164,9.944999694824219 C25.80299949645996,13.503999710083008 21.75200080871582,15.604000091552734 16.464000701904297,15.057000160217285 C11.175999641418457,14.508999824523926 -1.8769999742507935,9.855999946594238 -9.281000137329102,9.581000328063965 C-16.683000564575195,9.307999610900879 -24.702999114990234,15.968999862670898 -29.72599983215332,15.420999526977539 C-34.749000549316406,14.87399959564209 -34.042999267578125,10.767999649047852 -35.10100173950195,3.1029999256134033 C-35.88999938964844,-2.61299991607666 -30.47599983215332,-13.413999557495117 -30.47599983215332,-13.413999557495117z"></path></g><g opacity="1" transform="matrix(1,0,0,1,82.79299926757812,258.3739929199219)"><path fill="rgb(141,88,147)" fill-opacity="0.58" d=" M-3.01200008392334,-9.444000244140625 C-3.01200008392334,-9.444000244140625 -4.10699987411499,3.1480000019073486 -4.836999893188477,6.433000087738037 C-5.309000015258789,8.557000160217285 -5.749000072479248,10.447999954223633 -5.749000072479248,10.447999954223633 C-5.749000072479248,10.447999954223633 1.003000020980835,8.168000221252441 2.0980000495910645,8.359999656677246 C3.193000078201294,8.552000045776367 5.748000144958496,8.744000434875488 5.748000144958496,8.744000434875488 C5.748000144958496,8.744000434875488 2.828000068664551,3.946000099182129 2.4630000591278076,-1.6200000047683716 C2.0980000495910645,-7.184999942779541 2.6449999809265137,-10.447999954223633 2.6449999809265137,-10.447999954223633 C2.6449999809265137,-10.447999954223633 -3.01200008392334,-9.444000244140625 -3.01200008392334,-9.444000244140625z"></path></g><g opacity="0.6" transform="matrix(1,0,0,1,101.19999694824219,260.01300048828125)"><path fill="rgb(141,88,147)" fill-opacity="1" d=" M-3.5339999198913574,-10.168000221252441 C-3.5339999198913574,-10.168000221252441 -3.5339999198913574,3.7909998893737793 -5.177000045776367,6.984000205993652 C-5.614999771118164,7.836999893188477 -2.986999988555908,8.901000022888184 -2.986999988555908,8.901000022888184 C-2.986999988555908,8.901000022888184 0.48100000619888306,10.675000190734863 1.5750000476837158,10.901000022888184 C2.6700000762939453,11.128999710083008 5.22599983215332,11.354999542236328 5.22599983215332,11.354999542236328 C5.22599983215332,11.354999542236328 2.305999994277954,5.677999973297119 1.940999984741211,-0.9079999923706055 C1.5750000476837158,-7.494999885559082 2.122999906539917,-11.354999542236328 2.122999906539917,-11.354999542236328 C2.122999906539917,-11.354999542236328 -3.5339999198913574,-10.168000221252441 -3.5339999198913574,-10.168000221252441z"></path></g><g opacity="0.54" transform="matrix(1,0,0,1,117.55799865722656,260.6000061035156)"><path fill="rgb(140,88,146)" fill-opacity="1" d=" M-2.9200000762939453,-10.664999961853027 C-2.9200000762939453,-10.664999961853027 -2.1730000972747803,2.2760000228881836 -2.9030001163482666,5.925000190734863 C-3.632999897003174,9.576000213623047 -7.703000068664551,10.300000190734863 -7.703000068664551,10.300000190734863 C-7.703000068664551,10.300000190734863 -2.1710000038146973,14.081999778747559 0.20100000500679016,13.717000007629395 C2.5739998817443848,13.352999687194824 6.021999835968018,6.855000019073486 6.021999835968018,6.855000019073486 C6.021999835968018,6.855000019073486 2.736999988555908,6.124000072479248 2.371999979019165,1.9270000457763672 C2.006999969482422,-2.2699999809265137 2.188999891281128,-11.57800006866455 2.188999891281128,-11.57800006866455 C2.188999891281128,-11.57800006866455 -2.9200000762939453,-10.664999961853027 -2.9200000762939453,-10.664999961853027z"></path></g><g opacity="0" transform="matrix(1,0,0,1,0,0)"><path fill="rgb(255,255,255)" fill-opacity="1" d=" M48.70199966430664,275.5539855957031 C48.70199966430664,275.5539855957031 46.15299987792969,270.27801513671875 43.310001373291016,261.2080078125 C41.87900161743164,256.6409912109375 42.15800094604492,252.4770050048828 39.56999969482422,248.16900634765625"></path><path stroke-linecap="butt" stroke-linejoin="miter" fill-opacity="0" stroke-miterlimit="4" stroke="rgb(108,80,111)" stroke-opacity="0.81" stroke-width="8.887" d=" M48.70199966430664,275.5539855957031 C48.70199966430664,275.5539855957031 46.15299987792969,270.27801513671875 43.310001373291016,261.2080078125 C41.87900161743164,256.6409912109375 42.15800094604492,252.4770050048828 39.56999969482422,248.16900634765625"></path></g><g opacity="0" transform="matrix(1,0,0,1,0,0)"><path fill="rgb(255,255,255)" fill-opacity="1" d=" M134.48599243164062,259.9530029296875 C134.48599243164062,259.9530029296875 140.58599853515625,245.3040008544922 140.58599853515625,245.3040008544922"></path><path stroke-linecap="butt" stroke-linejoin="miter" fill-opacity="0" stroke-miterlimit="4" stroke="rgb(108,80,111)" stroke-opacity="0.81" stroke-width="6" d=" M134.48599243164062,259.9530029296875 C134.48599243164062,259.9530029296875 140.58599853515625,245.3040008544922 140.58599853515625,245.3040008544922"></path></g></g><g opacity="1" transform="matrix(1,0,0,1,0,0)"><g opacity="1" transform="matrix(1,0,0,1,0,0)"><path fill="rgb(255,255,255)" fill-opacity="1" d=" M107.9739990234375,80.75900268554688 C84.76200103759766,81.2509994506836 73.44400024414062,97.15499877929688 73.44400024414062,97.15499877929688 C73.44400024414062,97.15499877929688 72.52400207519531,105.63500213623047 72.52400207519531,105.63500213623047 C72.52400207519531,105.63500213623047 123.55400085449219,104.6449966430664 137.2530059814453,105.37899780273438 C146.0070037841797,105.8479995727539 142.59500122070312,98.00499725341797 139.46600341796875,91.92900085449219 C136.33700561523438,85.85299682617188 131.18600463867188,80.26699829101562 107.9739990234375,80.75900268554688z"></path><path stroke-linecap="butt" stroke-linejoin="miter" fill-opacity="0" stroke-miterlimit="4" stroke="rgb(108,80,111)" stroke-opacity="1" stroke-width="9.043" d=" M107.9739990234375,80.75900268554688 C84.76200103759766,81.2509994506836 73.44400024414062,97.15499877929688 73.44400024414062,97.15499877929688 C73.44400024414062,97.15499877929688 72.52400207519531,105.63500213623047 72.52400207519531,105.63500213623047 C72.52400207519531,105.63500213623047 123.55400085449219,104.6449966430664 137.2530059814453,105.37899780273438 C146.0070037841797,105.8479995727539 142.59500122070312,98.00499725341797 139.46600341796875,91.92900085449219 C136.33700561523438,85.85299682617188 131.18600463867188,80.26699829101562 107.9739990234375,80.75900268554688z"></path></g><g opacity="1" transform="matrix(1,0,0,1,108.26000213623047,93.90299987792969)"><path fill="rgb(255,255,255)" fill-opacity="1" d=" M37.0369987487793,12.40999984741211 C37.0369987487793,12.40999984741211 26.086999893188477,11.498000144958496 16.23200035095215,11.3149995803833 C6.377999782562256,11.133000373840332 -16.066999435424805,11.3149995803833 -18.257999420166016,11.3149995803833 C-20.44700050354004,11.3149995803833 -34.31700134277344,12.227999687194824 -35.22999954223633,11.133000373840332 C-37.21900177001953,8.744999885559082 -32.310001373291016,-5.839000225067139 -31.031999588012695,-8.576000213623047 C-29.7549991607666,-11.314000129699707 -21.906999588012695,-12.043999671936035 -12.234999656677246,-12.22599983215332 C-2.563999891281128,-12.409000396728516 23.350000381469727,-9.48900032043457 27.729999542236328,-8.029000282287598 C32.11000061035156,-6.568999767303467 35.75899887084961,-2.7360000610351562 36.48899841308594,0.9129999876022339 C37.21900177001953,4.563000202178955 37.0369987487793,12.40999984741211 37.0369987487793,12.40999984741211z"></path><path stroke-linecap="round" stroke-linejoin="round" fill-opacity="0" stroke="rgb(108,80,111)" stroke-opacity="1" stroke-width="9.043" d=" M37.0369987487793,12.40999984741211 C37.0369987487793,12.40999984741211 26.086999893188477,11.498000144958496 16.23200035095215,11.3149995803833 C6.377999782562256,11.133000373840332 -16.066999435424805,11.3149995803833 -18.257999420166016,11.3149995803833 C-20.44700050354004,11.3149995803833 -34.31700134277344,12.227999687194824 -35.22999954223633,11.133000373840332 C-37.21900177001953,8.744999885559082 -32.310001373291016,-5.839000225067139 -31.031999588012695,-8.576000213623047 C-29.7549991607666,-11.314000129699707 -21.906999588012695,-12.043999671936035 -12.234999656677246,-12.22599983215332 C-2.563999891281128,-12.409000396728516 23.350000381469727,-9.48900032043457 27.729999542236328,-8.029000282287598 C32.11000061035156,-6.568999767303467 35.75899887084961,-2.7360000610351562 36.48899841308594,0.9129999876022339 C37.21900177001953,4.563000202178955 37.0369987487793,12.40999984741211 37.0369987487793,12.40999984741211z"></path></g><g opacity="0.58" transform="matrix(1,0,0,1,93.86799621582031,94.56400299072266)"><path fill="rgb(108,80,111)" fill-opacity="1" d=" M-7.1519999504089355,-8.87399959564209 C-7.1519999504089355,-8.87399959564209 -5.670000076293945,-6.867000102996826 -5.034999847412109,-1.3919999599456787 C-4.400000095367432,4.083000183105469 -4.400000095367432,9.192999839782715 -4.400000095367432,9.192999839782715 C-4.400000095367432,9.192999839782715 -0.10300000011920929,9.78600025177002 -0.10300000011920929,9.78600025177002 C-0.10300000011920929,9.78600025177002 -0.5130000114440918,0.06800000369548798 1.1979999542236328,-3.559000015258789 C3.628999948501587,-8.71500015258789 7.151000022888184,-8.416999816894531 7.151000022888184,-8.416999816894531 C7.151000022888184,-8.416999816894531 6.396999835968018,-9.786999702453613 6.396999835968018,-9.786999702453613 C6.396999835968018,-9.786999702453613 -7.1519999504089355,-8.87399959564209 -7.1519999504089355,-8.87399959564209z"></path></g><g opacity="0.6" transform="matrix(1,0,0,1,112.03700256347656,94.29100036621094)"><path fill="rgb(108,80,111)" fill-opacity="1" d=" M-8.348999977111816,-8.87399959564209 C-8.348999977111816,-8.87399959564209 -6.61899995803833,-6.866000175476074 -5.876999855041504,-1.3910000324249268 C-5.136000156402588,4.084000110626221 -5.136000156402588,9.192999839782715 -5.136000156402588,9.192999839782715 C-5.136000156402588,9.192999839782715 -0.11999999731779099,9.78600025177002 -0.11999999731779099,9.78600025177002 C-0.11999999731779099,9.78600025177002 -0.5989999771118164,0.06800000369548798 1.3990000486373901,-3.559000015258789 C4.23799991607666,-8.71500015258789 8.348999977111816,-8.416999816894531 8.348999977111816,-8.416999816894531 C8.348999977111816,-8.416999816894531 7.4679999351501465,-9.78600025177002 7.4679999351501465,-9.78600025177002 C7.4679999351501465,-9.78600025177002 -8.348999977111816,-8.87399959564209 -8.348999977111816,-8.87399959564209z"></path></g><g opacity="0.61" transform="matrix(1,0,0,1,129.6929931640625,96.20700073242188)"><path fill="rgb(108,80,111)" fill-opacity="1" d=" M-8.758999824523926,-8.87399959564209 C-8.758999824523926,-8.87399959564209 -6.943999767303467,-6.866000175476074 -6.165999889373779,-1.3910000324249268 C-5.388000011444092,4.084000110626221 -5.388000011444092,9.194000244140625 -5.388000011444092,9.194000244140625 C-5.388000011444092,9.194000244140625 -0.125,9.78600025177002 -0.125,9.78600025177002 C-0.125,9.78600025177002 -0.628000020980835,0.06800000369548798 1.468000054359436,-3.559000015258789 C4.447000026702881,-8.71500015258789 8.76099967956543,-8.416999816894531 8.76099967956543,-8.416999816894531 C8.76099967956543,-8.416999816894531 7.835999965667725,-9.78600025177002 7.835999965667725,-9.78600025177002 C7.835999965667725,-9.78600025177002 -8.758999824523926,-8.87399959564209 -8.758999824523926,-8.87399959564209z"></path></g></g><g opacity="1" transform="matrix(1,0,0,1,111.91799926757812,71.50199890136719)"><path fill="rgb(244,97,135)" fill-opacity="1" d=" M-33.41400146484375,8.486000061035156 C-33.92599868774414,11.413000106811523 -33.6349983215332,10.920000076293945 -32.00699996948242,10.678000450134277 C-25.239999771118164,9.673999786376953 -11.994000434875488,7.419000148773193 0.7120000123977661,8.166999816894531 C22.429000854492188,9.444000244140625 24.934999465942383,11.104000091552734 29.273000717163086,13.276000022888184 C30.292999267578125,13.786999702453613 28.500999450683594,16.048999786376953 28.774999618530273,14.133000373840332 C29.048999786376953,12.217000007629395 22.429000854492188,-16.56100082397461 2.171999931335449,-16.56100082397461 C-18.084999084472656,-16.56100082397461 -27.665000915527344,-2.4639999866485596 -30.266000747680664,0.9580000042915344 C-31.391000747680664,2.438999891281128 -33.05099868774414,6.4070000648498535 -33.41400146484375,8.486000061035156z"></path><path stroke-linecap="butt" stroke-linejoin="miter" fill-opacity="0" stroke-miterlimit="10" stroke="rgb(187,45,90)" stroke-opacity="1" stroke-width="7.07" d=" M-33.41400146484375,8.486000061035156 C-33.92599868774414,11.413000106811523 -33.6349983215332,10.920000076293945 -32.00699996948242,10.678000450134277 C-25.239999771118164,9.673999786376953 -11.994000434875488,7.419000148773193 0.7120000123977661,8.166999816894531 C22.429000854492188,9.444000244140625 24.934999465942383,11.104000091552734 29.273000717163086,13.276000022888184 C30.292999267578125,13.786999702453613 28.500999450683594,16.048999786376953 28.774999618530273,14.133000373840332 C29.048999786376953,12.217000007629395 22.429000854492188,-16.56100082397461 2.171999931335449,-16.56100082397461 C-18.084999084472656,-16.56100082397461 -27.665000915527344,-2.4639999866485596 -30.266000747680664,0.9580000042915344 C-31.391000747680664,2.438999891281128 -33.05099868774414,6.4070000648498535 -33.41400146484375,8.486000061035156z"></path></g><g opacity="1" transform="matrix(1,0,0,1,95.33899688720703,283.81298828125)"><g opacity="1" transform="matrix(1,0,0,1,95.33899688720703,283.81298828125)"><path fill="rgb(244,97,135)" fill-opacity="1" d=" M-30.520999908447266,-5.775000095367432 C-30.520999908447266,-5.775000095367432 -17.93000030517578,-13.621999740600586 -4.790999889373779,-11.979999542236328 C8.347999572753906,-10.336999893188477 10.355999946594238,-6.139999866485596 17.929000854492188,-5.2270002365112305 C24.724000930786133,-4.408999919891357 29.974000930786133,-8.23900032043457 30.24799919128418,-6.047999858856201 C30.520999908447266,-3.8589999675750732 18.767000198364258,13.621999740600586 0.9570000171661377,12.83899974822998 C-23.952999114990234,11.744999885559082 -30.520999908447266,-5.775000095367432 -30.520999908447266,-5.775000095367432z"></path><path stroke-linecap="butt" stroke-linejoin="miter" fill-opacity="0" stroke-miterlimit="10" stroke="rgb(187,45,90)" stroke-opacity="1" stroke-width="7.07" d=" M-30.520999908447266,-5.775000095367432 C-30.520999908447266,-5.775000095367432 -17.93000030517578,-13.621999740600586 -4.790999889373779,-11.979999542236328 C8.347999572753906,-10.336999893188477 10.355999946594238,-6.139999866485596 17.929000854492188,-5.2270002365112305 C24.724000930786133,-4.408999919891357 29.974000930786133,-8.23900032043457 30.24799919128418,-6.047999858856201 C30.520999908447266,-3.8589999675750732 18.767000198364258,13.621999740600586 0.9570000171661377,12.83899974822998 C-23.952999114990234,11.744999885559082 -30.520999908447266,-5.775000095367432 -30.520999908447266,-5.775000095367432z"></path></g><path fill="rgb(244,97,135)" fill-opacity="1" d=" M-30.520999908447266,-5.775000095367432 C-30.520999908447266,-5.775000095367432 -17.93000030517578,-13.621999740600586 -4.790999889373779,-11.979999542236328 C8.347999572753906,-10.336999893188477 10.355999946594238,-6.139999866485596 17.929000854492188,-5.2270002365112305 C24.724000930786133,-4.408999919891357 29.974000930786133,-8.23900032043457 30.24799919128418,-6.047999858856201 C30.520999908447266,-3.8589999675750732 18.767000198364258,13.621999740600586 0.9570000171661377,12.83899974822998 C-23.952999114990234,11.744999885559082 -30.520999908447266,-5.775000095367432 -30.520999908447266,-5.775000095367432z"></path><path stroke-linecap="round" stroke-linejoin="round" fill-opacity="0" stroke="rgb(187,45,90)" stroke-opacity="1" stroke-width="7.07" d=" M-30.520999908447266,-5.775000095367432 C-30.520999908447266,-5.775000095367432 -17.93000030517578,-13.621999740600586 -4.790999889373779,-11.979999542236328 C8.347999572753906,-10.336999893188477 10.355999946594238,-6.139999866485596 17.929000854492188,-5.2270002365112305 C24.724000930786133,-4.408999919891357 29.974000930786133,-8.23900032043457 30.24799919128418,-6.047999858856201 C30.520999908447266,-3.8589999675750732 18.767000198364258,13.621999740600586 0.9570000171661377,12.83899974822998 C-23.952999114990234,11.744999885559082 -30.520999908447266,-5.775000095367432 -30.520999908447266,-5.775000095367432z"></path></g><g opacity="1" transform="matrix(1,0,0,1,81.24099731445312,54.11899948120117)"><path stroke-linecap="round" stroke-linejoin="round" fill-opacity="0" stroke="rgb(254,232,232)" stroke-opacity="1" stroke-width="13.062" d=" M10.402999877929688,-7.810999870300293 C10.402999877929688,-7.810999870300293 3.9649999141693115,-4.940999984741211 -1.6749999523162842,-0.6489999890327454 C-6.210999965667725,2.803999900817871 -10.402999877929688,7.810999870300293 -10.402999877929688,7.810999870300293"></path></g><g opacity="1" transform="matrix(1,0,0,1,50.03499984741211,277.7640075683594)"><path stroke-linecap="round" stroke-linejoin="round" fill-opacity="0" stroke="rgb(248,186,186)" stroke-opacity="1" stroke-width="14.067" d=" M-3.8320000171661377,-10.128999710083008 C-3.8320000171661377,-10.128999710083008 -3.2850000858306885,-4.105999946594238 -1.0950000286102295,0.8220000267028809 C1.0950000286102295,5.749000072479248 3.8320000171661377,10.128999710083008 3.8320000171661377,10.128999710083008"></path></g><g opacity="1" transform="matrix(1,0,0,1,104.2229995727539,179.73800659179688)"><path stroke-linecap="butt" stroke-linejoin="miter" fill-opacity="0" stroke-miterlimit="10" stroke="rgb(201,58,52)" stroke-opacity="1" stroke-width="12" d=" M-32.834999084472656,7.6020002365112305 C-31.709999084472656,-1.4539999961853027 -31.01099967956543,-15.392000198364258 -33.20100021362305,-28.89699935913086 C-35.202999114990234,-41.244998931884766 -36.12099838256836,-60.6510009765625 -33.20100021362305,-75.25 C-28.573999404907227,-98.38300323486328 -23.226999282836914,-115.52899932861328 -4.367000102996826,-123.79399871826172 C11.392999649047852,-130.6999969482422 38.70199966430664,-121.96800231933594 42.71699905395508,-78.9000015258789 C45.65999984741211,-47.33100128173828 25.89299964904785,-17.316999435424805 28.481000900268555,5.046000003814697 C30.695999145507812,24.180999755859375 40.891998291015625,45.560001373291016 30.30699920654297,80.96299743652344 C19.25,117.94599914550781 -12.111000061035156,130.69900512695312 -33.93000030517578,106.8759994506836 C-45.659000396728516,94.06999969482422 -44.95100021362305,59.52899932861328 -39.40399932861328,37.165000915527344 C-33.856998443603516,14.802000045776367 -33.76900100708008,15.114999771118164 -32.834999084472656,7.6020002365112305z"></path></g></g><g style="display: block;" transform="matrix(0.91839998960495,0,0,0.91839998960495,62.32728958129883,40.70097732543945)" opacity="1"><g opacity="1" transform="matrix(1,0,0,1,78.00800323486328,65.58699798583984)"><path fill="rgb(55,12,10)" fill-opacity="1" d=" M-40.435001373291016,30.297000885009766 C-36.334999084472656,29.496000289916992 -33.39400100708008,27.36199951171875 -30.809999465942383,23.836000442504883 C-24.639999389648438,15.418999671936035 -6.745999813079834,-5.419000148773193 11.769000053405762,-13.538999557495117 C38.558998107910156,-25.288999557495117 46.263999938964844,-25.569000244140625 47.99800109863281,-25.881999969482422 C55.018001556396484,-27.14900016784668 56.108001708984375,-35.316001892089844 43.930999755859375,-34.05799865722656 C33.91600036621094,-33.02399826049805 17.29800033569336,-28.607999801635742 -5.64900016784668,-17.17799949645996 C-22.450000762939453,-8.809000015258789 -43.604000091552734,11.593000411987305 -47.70800018310547,16.878999710083008 C-50.03300094604492,19.874000549316406 -51.750999450683594,29.764999389648438 -43.97200012207031,30.216999053955078 C-41.59700012207031,30.354999542236328 -42.37200164794922,30.674999237060547 -40.435001373291016,30.297000885009766z"></path><path stroke-linecap="butt" stroke-linejoin="miter" fill-opacity="0" stroke-miterlimit="10" stroke="rgb(55,13,10)" stroke-opacity="1" stroke-width="7" d=" M-40.435001373291016,30.297000885009766 C-36.334999084472656,29.496000289916992 -33.39400100708008,27.36199951171875 -30.809999465942383,23.836000442504883 C-24.639999389648438,15.418999671936035 -6.745999813079834,-5.419000148773193 11.769000053405762,-13.538999557495117 C38.558998107910156,-25.288999557495117 46.263999938964844,-25.569000244140625 47.99800109863281,-25.881999969482422 C55.018001556396484,-27.14900016784668 56.108001708984375,-35.316001892089844 43.930999755859375,-34.05799865722656 C33.91600036621094,-33.02399826049805 17.29800033569336,-28.607999801635742 -5.64900016784668,-17.17799949645996 C-22.450000762939453,-8.809000015258789 -43.604000091552734,11.593000411987305 -47.70800018310547,16.878999710083008 C-50.03300094604492,19.874000549316406 -51.750999450683594,29.764999389648438 -43.97200012207031,30.216999053955078 C-41.59700012207031,30.354999542236328 -42.37200164794922,30.674999237060547 -40.435001373291016,30.297000885009766z"></path></g><g opacity="1" transform="matrix(1,0,0,1,284.7900085449219,42.24300003051758)"><path fill="rgb(55,12,10)" fill-opacity="1" d=" M-47.887001037597656,-9.225000381469727 C-47.887001037597656,-9.225000381469727 -20.382999420166016,-15.574000358581543 2.9130001068115234,-8.484999656677246 C20.305999755859375,-3.193000078201294 38.768001556396484,9.138999938964844 43.5,11.692999839782715 C48.23400115966797,14.24899959564209 51.33300018310547,14.532999992370605 51.17599868774414,9.605999946594238 C51.05699920654297,5.88700008392334 50.382999420166016,2.8469998836517334 38.077999114990234,-5.183000087738037 C25.77199935913086,-13.211999893188477 12.244999885559082,-16.141000747680664 -7.316999912261963,-18.33099937438965 C-26.8799991607666,-20.520999908447266 -44.215999603271484,-16.33300018310547 -47.055999755859375,-15.602999687194824 C-49.89500045776367,-14.873000144958496 -51.840999603271484,-13.96500015258789 -52.1349983215332,-12.135000228881836 C-52.95000076293945,-7.072000026702881 -47.887001037597656,-9.225000381469727 -47.887001037597656,-9.225000381469727z"></path><path stroke-linecap="butt" stroke-linejoin="miter" fill-opacity="0" stroke-miterlimit="10" stroke="rgb(55,13,10)" stroke-opacity="1" stroke-width="7" d=" M-47.887001037597656,-9.225000381469727 C-47.887001037597656,-9.225000381469727 -20.382999420166016,-15.574000358581543 2.9130001068115234,-8.484999656677246 C20.305999755859375,-3.193000078201294 38.768001556396484,9.138999938964844 43.5,11.692999839782715 C48.23400115966797,14.24899959564209 51.33300018310547,14.532999992370605 51.17599868774414,9.605999946594238 C51.05699920654297,5.88700008392334 50.382999420166016,2.8469998836517334 38.077999114990234,-5.183000087738037 C25.77199935913086,-13.211999893188477 12.244999885559082,-16.141000747680664 -7.316999912261963,-18.33099937438965 C-26.8799991607666,-20.520999908447266 -44.215999603271484,-16.33300018310547 -47.055999755859375,-15.602999687194824 C-49.89500045776367,-14.873000144958496 -51.840999603271484,-13.96500015258789 -52.1349983215332,-12.135000228881836 C-52.95000076293945,-7.072000026702881 -47.887001037597656,-9.225000381469727 -47.887001037597656,-9.225000381469727z"></path></g></g></g></g></svg>