<svg xmlns="http://www.w3.org/2000/svg" xmlns:xlink="http://www.w3.org/1999/xlink" viewBox="0 0 512 512" width="512" height="512" style="width: 100%; height: 100%; transform: translate3d(0,0,0); content-visibility: visible;" preserveAspectRatio="xMidYMid meet"><defs><clipPath id="__lottie_element_2"><rect width="512" height="512" x="0" y="0"></rect></clipPath><clipPath id="__lottie_element_4"><path d="M0,0 L512,0 L512,512 L0,512z"></path></clipPath><g id="__lottie_element_7"><g style="display: none;"><g><path fill="url(#__lottie_element_10)"></path><path stroke-linecap="butt" stroke-linejoin="miter" fill-opacity="0" stroke-miterlimit="4"></path></g></g></g><radialGradient id="__lottie_element_10" spreadMethod="pad" gradientUnits="userSpaceOnUse"><stop></stop><stop></stop><stop></stop><stop></stop><stop></stop></radialGradient><linearGradient id="__lottie_element_14" spreadMethod="pad" gradientUnits="userSpaceOnUse"><stop></stop><stop></stop><stop></stop></linearGradient><mask id="__lottie_element_7_1" mask-type="alpha"><use href="#__lottie_element_7"></use></mask><radialGradient id="__lottie_element_18" spreadMethod="pad" gradientUnits="userSpaceOnUse"><stop></stop><stop></stop><stop></stop></radialGradient><mask id="__lottie_element_20"><path fill="url(#__lottie_element_19)"></path></mask><radialGradient id="__lottie_element_19" spreadMethod="pad" gradientUnits="userSpaceOnUse"><stop stop-color="rgb(255,255,255)"></stop><stop stop-color="rgb(255,255,255)"></stop><stop stop-color="rgb(255,255,255)"></stop></radialGradient><radialGradient id="__lottie_element_24" spreadMethod="pad" gradientUnits="userSpaceOnUse"><stop></stop><stop></stop><stop></stop><stop></stop><stop></stop></radialGradient><radialGradient id="__lottie_element_33" spreadMethod="pad" gradientUnits="userSpaceOnUse"><stop></stop><stop></stop><stop></stop></radialGradient><clipPath id="__lottie_element_39"><path d="M0,0 L512,0 L512,512 L0,512z"></path></clipPath><g id="__lottie_element_42"><g style="display: block;" transform="matrix(1,0,0,1,256,256)" opacity="1"><g opacity="1" transform="matrix(0.9823493361473083,0.1870555728673935,-0.1870555728673935,0.9823493361473083,0,0)"><path fill="url(#__lottie_element_45)" fill-opacity="1" d=" M-7,-229 C-66.94400024414062,-227.92999267578125 -125.41699981689453,-207.0260009765625 -167.79200744628906,-164.5659942626953 C-203.89999389648438,-128.38499450683594 -228.31900024414062,-76.5510025024414 -232,-8 C-234.75900268554688,43.387001037597656 -220.23699951171875,98.3759994506836 -187.468994140625,142.93099975585938 C-148.8489990234375,195.44200134277344 -84.88600158691406,233.45899963378906 6,234 C161.0489959716797,234.92300415039062 244.90699768066406,92.2020034790039 230,-36 C215,-165 105,-231 -7,-229z"></path><path stroke-linecap="butt" stroke-linejoin="miter" fill-opacity="0" stroke-miterlimit="4" stroke="rgb(126,5,5)" stroke-opacity="1" stroke-width="14" d=" M-7,-229 C-66.94400024414062,-227.92999267578125 -125.41699981689453,-207.0260009765625 -167.79200744628906,-164.5659942626953 C-203.89999389648438,-128.38499450683594 -228.31900024414062,-76.5510025024414 -232,-8 C-234.75900268554688,43.387001037597656 -220.23699951171875,98.3759994506836 -187.468994140625,142.93099975585938 C-148.8489990234375,195.44200134277344 -84.88600158691406,233.45899963378906 6,234 C161.0489959716797,234.92300415039062 244.90699768066406,92.2020034790039 230,-36 C215,-165 105,-231 -7,-229z"></path></g></g></g><radialGradient id="__lottie_element_45" spreadMethod="pad" gradientUnits="userSpaceOnUse" cx="-192.343994140625" cy="-127.7020034790039" r="267.0187360958543" fx="-192.343994140625" fy="-127.7020034790039"><stop offset="0%" stop-color="rgb(252,41,47)"></stop><stop offset="41%" stop-color="rgb(246,36,42)"></stop><stop offset="48%" stop-color="rgb(240,31,37)"></stop><stop offset="74%" stop-color="rgb(212,18,23)"></stop><stop offset="100%" stop-color="rgb(184,5,9)"></stop></radialGradient><linearGradient id="__lottie_element_49" spreadMethod="pad" gradientUnits="userSpaceOnUse" x1="-300.8909912109375" y1="8.85200023651123" x2="147.5229949951172" y2="27.2189998626709"><stop offset="37%" stop-color="rgb(255,255,255)"></stop><stop offset="82%" stop-color="rgb(227,213,238)"></stop><stop offset="100%" stop-color="rgb(198,170,222)"></stop></linearGradient><mask id="__lottie_element_42_1" mask-type="alpha"><use href="#__lottie_element_42"></use></mask><radialGradient id="__lottie_element_53" spreadMethod="pad" gradientUnits="userSpaceOnUse" cx="-156.06199645996094" cy="-290.9530029296875" r="251.00182047422123" fx="-156.06199645996094" fy="-290.9530029296875"><stop offset="22%" stop-color="rgb(255,255,255)"></stop><stop offset="88%" stop-color="rgb(255,255,255)"></stop><stop offset="100%" stop-color="rgb(255,255,255)"></stop></radialGradient><mask id="__lottie_element_55"><path fill="url(#__lottie_element_54)" d=" M6,-212 C-40,-228 -119,-202 -149,-162 C-160.2729949951172,-146.968994140625 -185.9010009765625,-114.4260025024414 -160,-95 C-140,-80 -77.05999755859375,-80.61499786376953 -12,-137 C3,-150 52,-196 6,-212z"></path></mask><radialGradient id="__lottie_element_54" spreadMethod="pad" gradientUnits="userSpaceOnUse" cx="-156.06199645996094" cy="-290.9530029296875" r="251.00182047422123" fx="-156.06199645996094" fy="-290.9530029296875"><stop stop-color="rgb(255,255,255)" offset="60%" stop-opacity="0.5899999737739563"></stop><stop stop-color="rgb(255,255,255)" offset="76%" stop-opacity="0.29499998688697815"></stop><stop stop-color="rgb(255,255,255)" offset="89%" stop-opacity="0"></stop></radialGradient><radialGradient id="__lottie_element_59" spreadMethod="pad" gradientUnits="userSpaceOnUse" cx="-192.343994140625" cy="-127.7020034790039" r="267.0187360958543" fx="-192.343994140625" fy="-127.7020034790039"><stop offset="0%" stop-color="rgb(252,41,47)"></stop><stop offset="41%" stop-color="rgb(246,36,42)"></stop><stop offset="48%" stop-color="rgb(240,31,37)"></stop><stop offset="74%" stop-color="rgb(212,18,23)"></stop><stop offset="100%" stop-color="rgb(184,5,9)"></stop></radialGradient><radialGradient id="__lottie_element_68" spreadMethod="pad" gradientUnits="userSpaceOnUse" cx="-107.3239974975586" cy="-223.27000427246094" r="407.73146852429215" fx="-107.3239974975586" fy="-223.27000427246094"><stop offset="0%" stop-color="rgb(255,218,191)"></stop><stop offset="85%" stop-color="rgb(246,198,169)"></stop><stop offset="100%" stop-color="rgb(238,177,147)"></stop></radialGradient></defs><g clip-path="url(#__lottie_element_2)"><g clip-path="url(#__lottie_element_39)" style="display: block;" transform="matrix(0.9101600050926208,0,0,0.9101600050926208,20.999038696289062,20.999038696289062)" opacity="1"><g style="display: block;" transform="matrix(1,0,0,1,-11.281982421875,-8.8699951171875)" opacity="1"><g opacity="1" transform="matrix(1,0,0,1,266.6449890136719,266.6449890136719)"><path fill="rgb(229,150,115)" fill-opacity="1" d=" M229.14500427246094,0 C229.14500427246094,126.5530014038086 126.5530014038086,229.14500427246094 0,229.14500427246094 C-126.5530014038086,229.14500427246094 -229.14500427246094,126.5530014038086 -229.14500427246094,0 C-229.14500427246094,-126.5530014038086 -126.5530014038086,-229.14500427246094 0,-229.14500427246094 C126.5530014038086,-229.14500427246094 229.14500427246094,-126.5530014038086 229.14500427246094,0z"></path></g><g opacity="1" transform="matrix(1,0,0,1,255.6320037841797,251.9739990234375)"><path fill="url(#__lottie_element_68)" fill-opacity="1" d=" M230.9667205810547,10.909090995788574 C230.9667205810547,121.25808715820312 114.315185546875,235.25955200195312 1.8181818723678589,235.25955200195312 C-110.67881774902344,235.25955200195312 -203.69400024414062,110.3489990234375 -203.69400024414062,0 C-203.69400024414062,-110.3489990234375 -106.12881469726562,-205.1595458984375 6.363636493682861,-206.16864013671875 C136.2724609375,-207.34954833984375 230.9667205810547,-99.43991088867188 230.9667205810547,10.909090995788574z"></path></g></g><g style="display: block;" transform="matrix(0.7009992003440857,0.10323953628540039,-0.06664261221885681,0.45250511169433594,146.52069091796875,8.154632568359375)" opacity="0.9605367464882886"><g opacity="1" transform="matrix(0.9780088663101196,0,0,1,-3.251129150390625,0)"><g opacity="1" transform="matrix(1,0,0,1,197.73399353027344,47.1619987487793)"><path fill="rgb(226,148,113)" fill-opacity="1" d=" M251.11900329589844,239.7830047607422 C251.11900329589844,239.7830047607422 228.60299682617188,-47.20600128173828 20.617000579833984,-52.36199951171875 C-197.2259979248047,-57.76300048828125 -223.7740020751953,181.59300231933594 -223.7740020751953,181.59300231933594 C-223.7740020751953,181.59300231933594 -143.73899841308594,-21.964000701904297 26.405000686645508,-4.169000148773193 C155.90499877929688,9.375 169.32899475097656,103.54199981689453 172.447998046875,106.43699645996094 C202.822998046875,134.62899780273438 251.11900329589844,239.7830047607422 251.11900329589844,239.7830047607422z"></path></g><g opacity="1" transform="matrix(0.9606031775474548,-0.06574001163244247,0.07224038243293762,1.0555875301361084,9.308303833007812,-24.83544921875)"><g opacity="0" transform="matrix(1,0,0,1,167.43600463867188,148.4669952392578)"><path stroke-linecap="round" stroke-linejoin="round" fill-opacity="0" stroke="rgb(219,123,72)" stroke-opacity="0.51" stroke-width="15" d=" M29.63800048828125,379.8919982910156 C29.63800048828125,379.8919982910156 39.56999969482422,385.5840148925781 37.367000579833984,388.88800048828125 C35.16400146484375,392.1929931640625 31.56399917602539,385.58599853515625 47.2599983215332,401.0409851074219 C67.8949966430664,421.3590087890625 101.4489974975586,405.25 101.4489974975586,405.25"></path></g><g opacity="0" transform="matrix(1,0,0,1,217.59100341796875,95.697998046875)"><path stroke-linecap="round" stroke-linejoin="round" fill-opacity="0" stroke="rgb(220,124,73)" stroke-opacity="0.54" stroke-width="15" d=" M11.982303619384766,444.7745361328125 C11.982303619384766,444.7745361328125 25.84546661376953,444.7055358886719 38.06246566772461,440.1585388183594 C51.751468658447266,435.06353759765625 52.17230224609375,434.1136779785156 52.17230224609375,434.1136779785156"></path></g><g opacity="0" transform="matrix(1,0,0,1,139.5570068359375,87.65799713134766)"><path stroke-linecap="round" stroke-linejoin="round" fill-opacity="0" stroke="rgb(220,124,73)" stroke-opacity="0.51" stroke-width="15" d=" M37.533836364746094,470.0899353027344 C37.533836364746094,470.0899353027344 33.12983703613281,469.9859313964844 29.4758358001709,468.9839172363281 C21.224834442138672,466.721923828125 18.878835678100586,465.221923828125 18.878835678100586,465.221923828125"></path></g></g><g opacity="0" transform="matrix(1,0,0,1,377.6839904785156,91.26100158691406)"><path stroke-linecap="round" stroke-linejoin="round" fill-opacity="0" stroke="rgb(226,148,113)" stroke-opacity="1" stroke-width="15" d=" M104.26499938964844,244.52699279785156 C104.26499938964844,244.52699279785156 108.49199676513672,316.5790100097656 82.86699676513672,383.4949951171875 C67.1780014038086,424.4639892578125 46.590999603271484,449.0530090332031 46.590999603271484,449.0530090332031"></path></g><g opacity="0" transform="matrix(1,0,0,1,354.2980041503906,66.16100311279297)"><path stroke-linecap="round" stroke-linejoin="round" fill-opacity="0" stroke="rgb(204,114,82)" stroke-opacity="1" stroke-width="15.908" d=" M85.04100036621094,239.77999877929688 C85.04100036621094,239.77999877929688 94.29499816894531,278.1340026855469 91.66300201416016,335.8080139160156 C89.61499786376953,380.68701171875 82.86100006103516,410.4630126953125 82.86100006103516,410.4630126953125"></path></g><g opacity="0.01" transform="matrix(1,0,0,1,193.33999633789062,67.80699920654297)"><path stroke-linecap="round" stroke-linejoin="round" fill-opacity="0" stroke="rgb(147,74,37)" stroke-opacity="1" stroke-width="15" d=" M302.6628723144531,329.2068786621094 C302.6628723144531,329.2068786621094 311.66656494140625,558.114501953125 183.98211669921875,709.8820190429688 C137.8363494873047,764.93603515625 26.715984344482422,826.5874633789062 -72.57308959960938,785.8519287109375 C-193.1953887939453,736.7109375 -258.17303466796875,522.5725708007812 -264.234375,517.5319213867188 C-270.6582946777344,511.9300231933594 -255.56747436523438,562.9462280273438 -248.7875518798828,570.8251342773438 C-241.8183135986328,578.2679443359375 -226.09791564941406,632.8447265625 -226.09791564941406,632.8447265625"></path></g><g opacity="0" transform="matrix(1,0,0,1,0,0)"><path stroke-linecap="round" stroke-linejoin="round" fill-opacity="0" stroke="rgb(208,105,58)" stroke-opacity="0.6" stroke-width="15" d=" M443.0538635253906,503.41265869140625 C443.0538635253906,503.41265869140625 438.0538635253906,515.9126586914062 425.0538635253906,526.4126586914062 C415.98187255859375,533.7406616210938 400.5538635253906,535.4126586914062 400.5538635253906,535.4126586914062"></path></g><g opacity="0.2566557752485119" transform="matrix(1,0,0,1,0,0)"><path fill="rgb(239,155,113)" fill-opacity="1" d=" M47.09700012207031,178.218994140625 C47.09700012207031,178.218994140625 55.59700012207031,189.718994140625 66.09700012207031,196.218994140625 C76.59700012207031,202.718994140625 84.09700012207031,205.718994140625 84.09700012207031,205.718994140625"></path><path stroke-linecap="round" stroke-linejoin="round" fill-opacity="0" stroke="rgb(187,110,76)" stroke-opacity="0.7000000000000001" stroke-width="15" d=" M47.09700012207031,178.218994140625 C47.09700012207031,178.218994140625 55.59700012207031,189.718994140625 66.09700012207031,196.218994140625 C76.59700012207031,202.718994140625 84.09700012207031,205.718994140625 84.09700012207031,205.718994140625"></path></g></g></g><g style="display: none;"><g><path></path></g><g><g><path></path><path stroke-linecap="round" stroke-linejoin="round" fill-opacity="0"></path></g><g><path></path></g><g><path stroke-linecap="round" stroke-linejoin="round" fill-opacity="0"></path></g><g><path stroke-linecap="round" stroke-linejoin="round" fill-opacity="0"></path></g><g><g><path></path></g><g><path></path></g></g><g><path stroke-linecap="round" stroke-linejoin="round" fill-opacity="0"></path></g></g><g><g><path></path><path stroke-linecap="round" stroke-linejoin="round" fill-opacity="0"></path></g><g><path></path></g><g><path stroke-linecap="round" stroke-linejoin="round" fill-opacity="0"></path></g><g><path stroke-linecap="round" stroke-linejoin="round" fill-opacity="0"></path></g><g><path stroke-linecap="round" stroke-linejoin="round" fill-opacity="0"></path></g><g><g><path></path></g><g><path></path></g></g><g><path stroke-linecap="round" stroke-linejoin="round" fill-opacity="0"></path></g></g></g><g style="display: block;" transform="matrix(1,0,0,1,-11.281982421875,-8.8699951171875)" opacity="1"><g opacity="1" transform="matrix(1,0,0,1,266.6449890136719,266.6449890136719)"><path stroke-linecap="butt" stroke-linejoin="miter" fill-opacity="0" stroke-miterlimit="10" stroke="rgb(181,95,48)" stroke-opacity="1" stroke-width="15" d=" M229.14500427246094,0 C229.14500427246094,126.5530014038086 126.5530014038086,229.14500427246094 0,229.14500427246094 C-126.5530014038086,229.14500427246094 -229.14500427246094,126.5530014038086 -229.14500427246094,0 C-229.14500427246094,-126.5530014038086 -126.5530014038086,-229.14500427246094 0,-229.14500427246094 C126.5530014038086,-229.14500427246094 229.14500427246094,-126.5530014038086 229.14500427246094,0z"></path></g></g><g style="display: block;" transform="matrix(1,0,0,1,256,256)" opacity="1"><g opacity="1" transform="matrix(0.9823493361473083,0.1870555728673935,-0.1870555728673935,0.9823493361473083,0,0)"><path fill="url(#__lottie_element_59)" fill-opacity="1" d=" M-7,-229 C-66.94400024414062,-227.92999267578125 -125.41699981689453,-207.0260009765625 -167.79200744628906,-164.5659942626953 C-203.89999389648438,-128.38499450683594 -228.31900024414062,-76.5510025024414 -232,-8 C-234.75900268554688,43.387001037597656 -220.23699951171875,98.3759994506836 -187.468994140625,142.93099975585938 C-148.8489990234375,195.44200134277344 -84.88600158691406,233.45899963378906 6,234 C161.0489959716797,234.92300415039062 244.90699768066406,92.2020034790039 230,-36 C215,-165 105,-231 -7,-229z"></path><path stroke-linecap="butt" stroke-linejoin="miter" fill-opacity="0" stroke-miterlimit="4" stroke="rgb(126,5,5)" stroke-opacity="1" stroke-width="14" d=" M-7,-229 C-66.94400024414062,-227.92999267578125 -125.41699981689453,-207.0260009765625 -167.79200744628906,-164.5659942626953 C-203.89999389648438,-128.38499450683594 -228.31900024414062,-76.5510025024414 -232,-8 C-234.75900268554688,43.387001037597656 -220.23699951171875,98.3759994506836 -187.468994140625,142.93099975585938 C-148.8489990234375,195.44200134277344 -84.88600158691406,233.45899963378906 6,234 C161.0489959716797,234.92300415039062 244.90699768066406,92.2020034790039 230,-36 C215,-165 105,-231 -7,-229z"></path></g></g><g style="display: block;" transform="matrix(1,0,0,1,256,256)" opacity="1"><g opacity="1" transform="matrix(1,0,0,1,0,0)"><path fill="url(#__lottie_element_53)" mask="url(#__lottie_element_55)" fill-opacity="0.61" d="M0 0 M6,-212 C-40,-228 -119,-202 -149,-162 C-160.2729949951172,-146.968994140625 -185.9010009765625,-114.4260025024414 -160,-95 C-140,-80 -77.05999755859375,-80.61499786376953 -12,-137 C3,-150 52,-196 6,-212z"></path></g></g><g style="display: block;" mask="url(#__lottie_element_42_1)"><g transform="matrix(1,0,0,1,256,249)" opacity="1"><g opacity="1" transform="matrix(0.9959912896156311,0.08945057541131973,0.09180044382810593,-1.022156000137329,-2.6679999828338623,30.577999114990234)"><path fill="url(#__lottie_element_49)" fill-opacity="1" d=" M-174.47300720214844,-33.10499954223633 C-177.03700256347656,-32.33599853515625 -180.91400146484375,-24.631999969482422 -182.2429962158203,-19.615999221801758 C-184.3979949951172,-11.482000350952148 -186.47999572753906,-5.52400016784668 -187.177001953125,16.385000228881836 C-187.75399780273438,34.516998291015625 -186.625,39.67499923706055 -185.61099243164062,46.50899887084961 C-184.51800537109375,53.87799835205078 -178.30999755859375,61.78300094604492 -175.4980010986328,63.45600128173828 C-167.7530059814453,68.06300354003906 -165.6529998779297,68.84600067138672 -159.98300170898438,70.83899688720703 C-139.1490020751953,78.16100311279297 -91.99500274658203,90.34700012207031 0.9430000185966492,93.74700164794922 C92.88200378417969,97.11100006103516 133.84100341796875,94.12799835205078 155.32200622558594,86.88800048828125 C162.802001953125,84.36699676513672 166.08999633789062,81.55999755859375 168.87600708007812,78.75 C171.23500061035156,76.37100219726562 171.3470001220703,76.98699951171875 174.9739990234375,69.69499969482422 C178.24600219726562,63.11800003051758 181.74099731445312,50.71200180053711 183.5970001220703,30.367000579833984 C185.1750030517578,13.069999694824219 184.82000732421875,3.496000051498413 182.2740020751953,-5.394000053405762 C180.37399291992188,-12.029000282287598 178.2449951171875,-12.307000160217285 175.1649932861328,-14.104999542236328 C172.65199279785156,-15.571999549865723 163.81500244140625,-15.8149995803833 158.20799255371094,-15.432000160217285 C129.9290008544922,-13.5 60.965999603271484,-16.3700008392334 -0.3190000057220459,-20.009000778198242 C-69.89600372314453,-24.139999389648438 -118.29199981689453,-27.395999908447266 -157.5,-33.599998474121094 C-166.3679962158203,-35.00299835205078 -169.96200561523438,-34.457000732421875 -174.47300720214844,-33.10499954223633z"></path></g></g></g></g><g clip-path="url(#__lottie_element_4)" style="display: none;"><g style="display: none;"><g><path></path></g><g><path fill="url(#__lottie_element_33)"></path></g></g><g style="display: none;"><g><g><path></path></g><g><g><path stroke-linecap="round" stroke-linejoin="round" fill-opacity="0"></path></g><g><path stroke-linecap="round" stroke-linejoin="round" fill-opacity="0"></path></g><g><path stroke-linecap="round" stroke-linejoin="round" fill-opacity="0"></path></g></g><g><path stroke-linecap="round" stroke-linejoin="round" fill-opacity="0"></path></g><g><path stroke-linecap="round" stroke-linejoin="round" fill-opacity="0"></path></g><g><path stroke-linecap="round" stroke-linejoin="round" fill-opacity="0"></path></g><g><path stroke-linecap="round" stroke-linejoin="round" fill-opacity="0"></path></g><g><path></path><path stroke-linecap="round" stroke-linejoin="round" fill-opacity="0"></path></g></g></g><g style="display: none;"><g><path></path></g><g><g><path></path><path stroke-linecap="round" stroke-linejoin="round" fill-opacity="0"></path></g><g><path></path></g><g><path stroke-linecap="round" stroke-linejoin="round" fill-opacity="0"></path></g><g><path stroke-linecap="round" stroke-linejoin="round" fill-opacity="0"></path></g><g><g><path></path></g><g><path></path></g></g><g><path stroke-linecap="round" stroke-linejoin="round" fill-opacity="0"></path></g></g><g><g><path></path><path stroke-linecap="round" stroke-linejoin="round" fill-opacity="0"></path></g><g><path></path></g><g><path stroke-linecap="round" stroke-linejoin="round" fill-opacity="0"></path></g><g><path stroke-linecap="round" stroke-linejoin="round" fill-opacity="0"></path></g><g><path stroke-linecap="round" stroke-linejoin="round" fill-opacity="0"></path></g><g><g><path></path></g><g><path></path></g></g><g><path stroke-linecap="round" stroke-linejoin="round" fill-opacity="0"></path></g></g></g><g style="display: none;"><g><path stroke-linecap="butt" stroke-linejoin="miter" fill-opacity="0" stroke-miterlimit="10"></path></g></g><g style="display: none;"><g><path fill="url(#__lottie_element_24)"></path><path stroke-linecap="butt" stroke-linejoin="miter" fill-opacity="0" stroke-miterlimit="4"></path></g></g><g style="display: none;"><g><path fill="url(#__lottie_element_18)" mask="url(#__lottie_element_20)"></path></g></g><g style="display: none;" mask="url(#__lottie_element_7_1)"><g><g><path fill="url(#__lottie_element_14)"></path></g></g></g></g></g></svg>