<svg xmlns="http://www.w3.org/2000/svg" xmlns:xlink="http://www.w3.org/1999/xlink" viewBox="0 0 512 512" width="512" height="512" style="width: 100%; height: 100%; transform: translate3d(0,0,0); content-visibility: visible;" preserveAspectRatio="xMidYMid meet"><defs><clipPath id="__lottie_element_2"><rect width="512" height="512" x="0" y="0"></rect></clipPath><clipPath id="__lottie_element_4"><path d="M0,0 L512,0 L512,512 L0,512z"></path></clipPath><radialGradient id="__lottie_element_15" spreadMethod="pad" gradientUnits="userSpaceOnUse" cx="-53.84700012207031" cy="-78.14700317382812" r="227.5684808416173" fx="-53.84700012207031" fy="-78.14700317382812"><stop offset="2%" stop-color="rgb(255,218,168)"></stop><stop offset="50%" stop-color="rgb(248,172,119)"></stop><stop offset="98%" stop-color="rgb(240,127,70)"></stop></radialGradient><radialGradient id="__lottie_element_16" spreadMethod="pad" gradientUnits="userSpaceOnUse" cx="-53.84700012207031" cy="-78.14700317382812" r="250.21927296261276" fx="-53.84700012207031" fy="-78.14700317382812"><stop offset="2%" stop-color="rgb(255,225,195)"></stop><stop offset="75%" stop-color="rgb(253,194,150)"></stop><stop offset="98%" stop-color="rgb(251,163,104)"></stop></radialGradient><radialGradient id="__lottie_element_21" spreadMethod="pad" gradientUnits="userSpaceOnUse" cx="0" cy="0" r="75.53218191802497" fx="0" fy="0"><stop offset="41%" stop-color="rgb(255,253,241)"></stop><stop offset="80%" stop-color="rgb(188,204,236)"></stop><stop offset="100%" stop-color="rgb(122,155,231)"></stop></radialGradient><radialGradient id="__lottie_element_22" spreadMethod="pad" gradientUnits="userSpaceOnUse" cx="0" cy="0" r="76.67437322524479" fx="0" fy="0"><stop offset="32%" stop-color="rgb(255,253,241)"></stop><stop offset="83%" stop-color="rgb(188,204,236)"></stop><stop offset="100%" stop-color="rgb(122,155,231)"></stop></radialGradient><clipPath id="__lottie_element_65"><path d="M0,0 L512,0 L512,512 L0,512z"></path></clipPath><radialGradient id="__lottie_element_76" spreadMethod="pad" gradientUnits="userSpaceOnUse"><stop></stop><stop></stop><stop></stop></radialGradient><radialGradient id="__lottie_element_77" spreadMethod="pad" gradientUnits="userSpaceOnUse"><stop></stop><stop></stop><stop></stop></radialGradient><radialGradient id="__lottie_element_82" spreadMethod="pad" gradientUnits="userSpaceOnUse"><stop></stop><stop></stop><stop></stop></radialGradient><radialGradient id="__lottie_element_83" spreadMethod="pad" gradientUnits="userSpaceOnUse"><stop></stop><stop></stop><stop></stop></radialGradient></defs><g clip-path="url(#__lottie_element_2)"><g clip-path="url(#__lottie_element_65)" style="display: none;"><g style="display: none;"><g><g><path></path><path stroke-linecap="butt" stroke-linejoin="miter" fill-opacity="0" stroke-miterlimit="10"></path></g><g><path></path><path stroke-linecap="round" stroke-linejoin="round" fill-opacity="0"></path></g><g><path></path><path stroke-linecap="round" stroke-linejoin="round" fill-opacity="0"></path></g></g></g><g style="display: none;"></g><g style="display: none;"><g><path></path><path stroke-linecap="butt" stroke-linejoin="miter" fill-opacity="0" stroke-miterlimit="4"></path></g><g><path stroke-linecap="butt" stroke-linejoin="miter" fill-opacity="0" stroke-miterlimit="4"></path></g></g><g style="display: none;"><g><path></path><path stroke-linecap="round" stroke-linejoin="round" fill-opacity="0"></path></g><g><path></path><path stroke-linecap="round" stroke-linejoin="round" fill-opacity="0"></path></g></g><g style="display: none;"><g><path></path><path stroke-linecap="butt" stroke-linejoin="round" fill-opacity="0"></path></g></g><g style="display: none;"><g><path></path><path stroke-linecap="butt" stroke-linejoin="miter" fill-opacity="0" stroke-miterlimit="4"></path></g></g><g style="display: none;"><g><g><g><path></path></g><g><path></path></g></g><g><g><path></path></g><g><path></path></g></g><g><g><path></path></g><g><path></path></g></g><g><g><path></path></g><g><path></path></g><g><path></path></g></g><g><g><path></path></g><g><path></path></g><g><path></path></g></g><g><g><path></path></g><g><path></path></g></g><g><g><path></path></g><g><path></path></g><g><path></path></g></g><g><g><path></path></g><g><path></path></g><g><path></path></g><g><path></path></g></g><g><g><path></path></g><g><path></path></g><g><path></path></g></g><g><g><path></path></g><g><path></path></g><g><path></path></g></g></g></g><g style="display: none;"><g><path></path><path stroke-linecap="round" stroke-linejoin="round" fill-opacity="0"></path></g><g><path></path><path stroke-linecap="round" stroke-linejoin="round" fill-opacity="0"></path></g></g><g style="display: none;"><g><path></path><path stroke-linecap="round" stroke-linejoin="round" fill-opacity="0"></path></g><g><path></path><path stroke-linecap="round" stroke-linejoin="round" fill-opacity="0"></path></g></g><g style="display: none;"><g><path></path><path stroke-linecap="round" stroke-linejoin="round" fill-opacity="0"></path></g><g><path></path><path stroke-linecap="round" stroke-linejoin="round" fill-opacity="0"></path></g></g><g style="display: none;"><g><path></path><path stroke-linecap="round" stroke-linejoin="round" fill-opacity="0"></path></g><g><path></path><path stroke-linecap="round" stroke-linejoin="round" fill-opacity="0"></path></g></g><g style="display: none;"><g><path></path><path stroke-linecap="butt" stroke-linejoin="round" fill-opacity="0"></path></g></g><g style="display: none;"><g><path fill="url(#__lottie_element_76)"></path><path stroke-linecap="butt" stroke-linejoin="miter" fill-opacity="0" stroke-miterlimit="10"></path></g><g><path fill="url(#__lottie_element_77)"></path></g></g><g style="display: none;"><g><g><g><path stroke-linecap="butt" stroke-linejoin="miter" fill-opacity="0" stroke-miterlimit="4"></path></g></g></g><g><g><g><path fill="url(#__lottie_element_82)"></path><path stroke-linecap="butt" stroke-linejoin="miter" fill-opacity="0" stroke-miterlimit="10"></path></g><g><path></path></g><g><path></path></g><g><path stroke-linecap="butt" stroke-linejoin="miter" fill-opacity="0" stroke-miterlimit="10"></path></g></g><g><g><path></path><path stroke-linecap="butt" stroke-linejoin="miter" fill-opacity="0" stroke-miterlimit="10"></path></g><g><path fill="url(#__lottie_element_83)"></path></g><g><path></path></g><g><path></path></g><g><path stroke-linecap="butt" stroke-linejoin="miter" fill-opacity="0" stroke-miterlimit="10"></path></g></g></g></g><g style="display: none;"><g><g><path></path><path stroke-linecap="round" stroke-linejoin="round" fill-opacity="0"></path></g><g><path></path><path stroke-linecap="round" stroke-linejoin="round" fill-opacity="0"></path></g><g><path></path><path stroke-linecap="round" stroke-linejoin="round" fill-opacity="0"></path></g></g><g><path></path><path stroke-linecap="round" stroke-linejoin="round" fill-opacity="0"></path></g><g><path></path><path stroke-linecap="round" stroke-linejoin="round" fill-opacity="0"></path></g><g><g><path stroke-linecap="round" stroke-linejoin="round" fill-opacity="0"></path></g></g></g><g style="display: none;"><g><path></path></g><g><path></path></g></g></g><g clip-path="url(#__lottie_element_4)" style="display: block;" transform="matrix(1,0,0,1,0,0)" opacity="1"><g style="display: block;" transform="matrix(1.001039981842041,0,0,1.0218299627304077,151.0823974609375,74.58805847167969)" opacity="1"><g opacity="1" transform="matrix(1,0,0,1,0,0)"><g opacity="1" transform="matrix(1,0,0,1,95.72899627685547,76.59500122070312)"><path fill="rgb(252,129,32)" fill-opacity="1" d=" M-60.15399932861328,-40.89500045776367 C-60.15399932861328,-40.89500045776367 -50.42300033569336,-16.17099952697754 -50.42300033569336,2.1429998874664307 C-50.42300033569336,20.45599937438965 -63.69200134277344,40.60100173950195 -63.69200134277344,40.60100173950195 C-63.69200134277344,40.60100173950195 -32.91999816894531,42.72600173950195 3.3499999046325684,43.64099884033203 C39.61899948120117,44.55699920654297 62.46500015258789,43.46500015258789 62.46500015258789,43.46500015258789 C62.46500015258789,43.46500015258789 53.07600021362305,19.540000915527344 53.07600021362305,-1.5199999809265137 C53.07600021362305,-22.58099937438965 63.69200134277344,-41.81100082397461 63.69200134277344,-41.81100082397461 C63.69200134277344,-41.81100082397461 7.960999965667725,-44.55799865722656 7.960999965667725,-44.55799865722656 C7.960999965667725,-44.55799865722656 -24.768999099731445,-42.72600173950195 -24.768999099731445,-42.72600173950195 C-24.768999099731445,-42.72600173950195 -60.15399932861328,-40.89500045776367 -60.15399932861328,-40.89500045776367z"></path><path stroke-linecap="butt" stroke-linejoin="miter" fill-opacity="0" stroke-miterlimit="10" stroke="rgb(255,51,9)" stroke-opacity="1" stroke-width="12.815" d=" M-60.15399932861328,-40.89500045776367 C-60.15399932861328,-40.89500045776367 -50.42300033569336,-16.17099952697754 -50.42300033569336,2.1429998874664307 C-50.42300033569336,20.45599937438965 -63.69200134277344,40.60100173950195 -63.69200134277344,40.60100173950195 C-63.69200134277344,40.60100173950195 -32.91999816894531,42.72600173950195 3.3499999046325684,43.64099884033203 C39.61899948120117,44.55699920654297 62.46500015258789,43.46500015258789 62.46500015258789,43.46500015258789 C62.46500015258789,43.46500015258789 53.07600021362305,19.540000915527344 53.07600021362305,-1.5199999809265137 C53.07600021362305,-22.58099937438965 63.69200134277344,-41.81100082397461 63.69200134277344,-41.81100082397461 C63.69200134277344,-41.81100082397461 7.960999965667725,-44.55799865722656 7.960999965667725,-44.55799865722656 C7.960999965667725,-44.55799865722656 -24.768999099731445,-42.72600173950195 -24.768999099731445,-42.72600173950195 C-24.768999099731445,-42.72600173950195 -60.15399932861328,-40.89500045776367 -60.15399932861328,-40.89500045776367z"></path></g><g opacity="1" transform="matrix(1,0,0,1,71.13400268554688,86.13200378417969)"><path fill="rgb(244,179,49)" fill-opacity="1" d=" M-3.2732901573181152,-52.12831497192383 C-3.2732901573181152,-52.12831497192383 -3.0988388061523438,-42.410980224609375 -4.776838779449463,-31.73198127746582 C-6.454838752746582,-21.053979873657227 -6.418838977813721,-15.305980682373047 -6.418838977813721,-15.305980682373047"></path><path stroke-linecap="round" stroke-linejoin="round" fill-opacity="0" stroke="rgb(247,64,28)" stroke-opacity="1" stroke-width="12.998" d=" M-3.2732901573181152,-52.12831497192383 C-3.2732901573181152,-52.12831497192383 -3.0988388061523438,-42.410980224609375 -4.776838779449463,-31.73198127746582 C-6.454838752746582,-21.053979873657227 -6.418838977813721,-15.305980682373047 -6.418838977813721,-15.305980682373047"></path></g><g opacity="1" transform="matrix(1,0,0,1,121.08000183105469,74.83799743652344)"><path fill="rgb(244,179,49)" fill-opacity="1" d=" M2.6861813068389893,-27.080848693847656 C2.6861813068389893,-27.080848693847656 -0.2044563591480255,12.148369789123535 1.0525436401367188,22.895370483398438 C2.3105435371398926,33.64236831665039 1.9715436697006226,38.3023681640625 1.9715436697006226,38.3023681640625"></path><path stroke-linecap="round" stroke-linejoin="round" fill-opacity="0" stroke="rgb(247,64,28)" stroke-opacity="1" stroke-width="13.587" d=" M2.6861813068389893,-27.080848693847656 C2.6861813068389893,-27.080848693847656 -0.2044563591480255,12.148369789123535 1.0525436401367188,22.895370483398438 C2.3105435371398926,33.64236831665039 1.9715436697006226,38.3023681640625 1.9715436697006226,38.3023681640625"></path></g></g></g><g style="display: block;" transform="matrix(0.5457160472869873,0.30453062057495117,-0.3482103943824768,0.5861023664474487,250.71163940429688,244.20846557617188)" opacity="0.6753246753246753"></g><g style="display: none;"><g><path></path><path stroke-linecap="butt" stroke-linejoin="miter" fill-opacity="0" stroke-miterlimit="4"></path></g><g><path stroke-linecap="butt" stroke-linejoin="miter" fill-opacity="0" stroke-miterlimit="4"></path></g></g><g style="display: none;"><g><path></path><path stroke-linecap="round" stroke-linejoin="round" fill-opacity="0"></path></g><g><path></path><path stroke-linecap="round" stroke-linejoin="round" fill-opacity="0"></path></g></g><g style="display: none;"><g><path></path><path stroke-linecap="butt" stroke-linejoin="round" fill-opacity="0"></path></g></g><g style="display: none;"><g><path></path><path stroke-linecap="butt" stroke-linejoin="miter" fill-opacity="0" stroke-miterlimit="4"></path></g></g><g style="display: block;" transform="matrix(1.3564714193344116,0,0,1.0383367538452148,42.151397705078125,-8.855749130249023)" opacity="1"><g opacity="1" transform="matrix(0.9399999976158142,0,0,0.9399999976158142,9.2586669921875,10.228065490722656)"><g opacity="1" transform="matrix(1.1584919691085815,0,0,1,-23.18854522705078,-0.829742431640625)"><g opacity="1" transform="matrix(1,0,0,1,109.53099822998047,105.90399932861328)"><path fill="rgb(255,51,9)" fill-opacity="1" d=" M38.62200164794922,0 C38.62200164794922,19.819000244140625 21.329999923706055,35.8849983215332 0,35.8849983215332 C-21.329999923706055,35.8849983215332 -38.62200164794922,19.819000244140625 -38.62200164794922,0 C-38.62200164794922,-19.819000244140625 -21.329999923706055,-35.8849983215332 0,-35.8849983215332 C21.329999923706055,-35.8849983215332 38.62200164794922,-19.819000244140625 38.62200164794922,0z"></path></g><g opacity="1" transform="matrix(1,0,0,1,110.35800170898438,130.95199584960938)"><path fill="rgb(205,4,4)" fill-opacity="1" d=" M-26.277000427246094,-15.807000160217285 C-26.277000427246094,-15.807000160217285 -18.413999557495117,-4.968999862670898 -1.909000039100647,-6.247000217437744 C11.086999893188477,-7.252999782562256 14.708000183105469,-14.937000274658203 20.475000381469727,-15.975000381469727 C25.145000457763672,-16.815000534057617 30.58300018310547,-4.570000171661377 30.58300018310547,-4.570000171661377 C30.58300018310547,-4.570000171661377 28.902999877929688,9.432999610900879 9.192999839782715,13.12399959564209 C-10.517000198364258,16.815000534057617 -22.586000442504883,8.100000381469727 -26.006999969482422,1.0490000247955322 C-30.58300018310547,-8.383000373840332 -26.277000427246094,-15.807000160217285 -26.277000427246094,-15.807000160217285z"></path></g></g><g opacity="1" transform="matrix(1,0,0,1,-20.09326171875,4.047657012939453)"><g opacity="1" transform="matrix(1,0,0,1,98.05899810791016,45.18899917602539)"><path fill="rgb(255,51,9)" fill-opacity="1" d=" M43.750999450683594,0 C43.750999450683594,23.038000106811523 24.163000106811523,41.7140007019043 0,41.7140007019043 C-24.163000106811523,41.7140007019043 -43.750999450683594,23.038000106811523 -43.750999450683594,0 C-43.750999450683594,-23.038000106811523 -24.163000106811523,-41.7140007019043 0,-41.7140007019043 C24.163000106811523,-41.7140007019043 43.750999450683594,-23.038000106811523 43.750999450683594,0z"></path></g><g opacity="1" transform="matrix(1,0,0,1,99.40399932861328,54.56800079345703)"><path fill="rgb(246,217,101)" fill-opacity="1" d=" M35.97100067138672,0 C35.97100067138672,18.45800018310547 19.864999771118164,33.422000885009766 -0.0010000000474974513,33.422000885009766 C-19.867000579833984,33.422000885009766 -35.97100067138672,18.45800018310547 -35.97100067138672,0 C-35.97100067138672,-18.45800018310547 -19.867000579833984,-33.422000885009766 -0.0010000000474974513,-33.422000885009766 C19.864999771118164,-33.422000885009766 35.97100067138672,-18.45800018310547 35.97100067138672,0z"></path></g></g><g opacity="1" transform="matrix(1,0,0,1,0,0)"><g opacity="1" transform="matrix(1,0,0,1,155.24899291992188,45.56399917602539)"><path fill="rgb(255,51,9)" fill-opacity="1" d=" M41.4900016784668,0 C41.4900016784668,25.025999069213867 22.913999557495117,45.31399917602539 0,45.31399917602539 C-22.915000915527344,45.31399917602539 -41.4900016784668,25.025999069213867 -41.4900016784668,0 C-41.4900016784668,-25.025999069213867 -22.915000915527344,-45.31399917602539 0,-45.31399917602539 C22.913999557495117,-45.31399917602539 41.4900016784668,-25.025999069213867 41.4900016784668,0z"></path></g><g opacity="1" transform="matrix(1,0,0,1,155.0919952392578,58.347999572753906)"><path fill="rgb(255,252,160)" fill-opacity="1" d=" M43.09199905395508,0 C43.09199905395508,22.113000869750977 23.798999786376953,40.03900146484375 -0.0010000000474974513,40.03900146484375 C-23.799999237060547,40.03900146484375 -43.09199905395508,22.113000869750977 -43.09199905395508,0 C-43.09199905395508,-22.113000869750977 -23.799999237060547,-40.03900146484375 -0.0010000000474974513,-40.03900146484375 C23.798999786376953,-40.03900146484375 43.09199905395508,-22.113000869750977 43.09199905395508,0z"></path></g></g><g opacity="1" transform="matrix(1,0,0,1,30.3909912109375,2.53338623046875)"><g opacity="1" transform="matrix(1,0,0,1,259.69500732421875,74.00299835205078)"><path fill="rgb(255,51,9)" fill-opacity="1" d=" M45.91400146484375,0 C45.91400146484375,23.347999572753906 25.357999801635742,42.275001525878906 0,42.275001525878906 C-25.35700035095215,42.275001525878906 -45.91400146484375,23.347999572753906 -45.91400146484375,0 C-45.91400146484375,-23.347999572753906 -25.35700035095215,-42.275001525878906 0,-42.275001525878906 C25.357999801635742,-42.275001525878906 45.91400146484375,-23.347999572753906 45.91400146484375,0z"></path></g><g opacity="1" transform="matrix(1,0,0,1,258.2909851074219,70.03099822998047)"><path fill="rgb(255,252,160)" fill-opacity="1" d=" M28.031999588012695,0 C28.031999588012695,14.383999824523926 15.482000350952148,26.045000076293945 0.0010000000474974513,26.045000076293945 C-15.480999946594238,26.045000076293945 -28.0310001373291,14.383999824523926 -28.0310001373291,0 C-28.0310001373291,-14.383999824523926 -15.480999946594238,-26.045000076293945 0.0010000000474974513,-26.045000076293945 C15.482000350952148,-26.045000076293945 28.031999588012695,-14.383999824523926 28.031999588012695,0z"></path></g><g opacity="1" transform="matrix(1,0,0,1,282.19000244140625,99.69999694824219)"><path fill="rgb(206,5,5)" fill-opacity="1" d=" M-32.73099899291992,1.0299999713897705 C-32.73099899291992,1.0299999713897705 -21.27648162841797,-0.4401721656322479 -8.245481491088867,-6.945172309875488 C4.784518718719482,-13.451171875 12.142759323120117,-18.98470687866211 13.550759315490723,-22.236705780029297 C13.550759315490723,-22.236705780029297 22.187999725341797,-39.819000244140625 22.187999725341797,-39.819000244140625 C22.187999725341797,-39.819000244140625 26.881000518798828,-3.121999979019165 12.793999671936035,10.612000465393066 C-1.2940000295639038,24.34600067138672 -9.156999588012695,20.239999771118164 -15.145000457763672,20.96299934387207 C-21.131999969482422,21.684999465942383 -38.10599899291992,17.94099998474121 -38.10599899291992,17.94099998474121 C-38.10599899291992,17.94099998474121 -26.06100082397461,10.480999946594238 -26.06100082397461,10.480999946594238 C-26.06100082397461,10.480999946594238 -32.73099899291992,1.0299999713897705 -32.73099899291992,1.0299999713897705z"></path></g></g><g opacity="1" transform="matrix(1.0476704835891724,0,0,1,-32.76924514770508,11.689872741699219)"><g opacity="1" transform="matrix(1,0,0,1,75.1259994506836,89.052001953125)"><path fill="rgb(255,51,9)" fill-opacity="1" d=" M45.25299835205078,0 C45.25299835205078,23.261999130249023 24.993000030517578,42.119998931884766 0,42.119998931884766 C-24.992000579833984,42.119998931884766 -45.25299835205078,23.261999130249023 -45.25299835205078,0 C-45.25299835205078,-23.261999130249023 -24.992000579833984,-42.119998931884766 0,-42.119998931884766 C24.993000030517578,-42.119998931884766 45.25299835205078,-23.261999130249023 45.25299835205078,0z"></path></g><g opacity="1" transform="matrix(1,0,0,1,90.43399810791016,75.2229995727539)"><path fill="rgb(255,252,160)" fill-opacity="1" d=" M36.4379997253418,0 C36.4379997253418,18.697999954223633 20.12299919128418,33.85499954223633 -0.0010000000474974513,33.85499954223633 C-20.124000549316406,33.85499954223633 -36.4379997253418,18.697999954223633 -36.4379997253418,0 C-36.4379997253418,-18.697999954223633 -20.124000549316406,-33.85499954223633 -0.0010000000474974513,-33.85499954223633 C20.12299919128418,-33.85499954223633 36.4379997253418,-18.697999954223633 36.4379997253418,0z"></path></g><g opacity="1" transform="matrix(1,0,0,1,61.132999420166016,112.61799621582031)"><path fill="rgb(206,5,5)" fill-opacity="1" d=" M-28.863069534301758,-20.56717300415039 C-28.863069534301758,-20.56717300415039 -12.612861633300781,-5.691999912261963 2.911137819290161,-0.9959999918937683 C18.435138702392578,3.700000047683716 42.381587982177734,-0.7456551790237427 42.381587982177734,-0.7456551790237427 C42.381587982177734,-0.7456551790237427 46.147621154785156,3.1442759037017822 35.08379364013672,12.001344680786133 C32.43072509765625,14.313896179199219 22.18934440612793,18.370344161987305 13.82634449005127,18.51134490966797 C-6.0296549797058105,18.84734535217285 -20.481000900268555,9.793999671936035 -23.082000732421875,2.694000005722046 C-27.413999557495117,-9.130000114440918 -28.863069534301758,-20.56717300415039 -28.863069534301758,-20.56717300415039z"></path></g></g><g opacity="1" transform="matrix(1,0,0,1,6.81640625,1.7110824584960938)"><g opacity="1" transform="matrix(1,0,0,1,205.38099670410156,108.80899810791016)"><path fill="rgb(255,51,9)" fill-opacity="1" d=" M38.62200164794922,0.8690000176429749 C38.62200164794922,20.687999725341797 21.332000732421875,35.01599884033203 0.0020000000949949026,35.01599884033203 C-21.32900047302246,35.01599884033203 -38.62200164794922,20.687999725341797 -38.62200164794922,0.8690000176429749 C-38.62200164794922,-18.950000762939453 -21.329999923706055,-35.01599884033203 0,-35.01599884033203 C21.329999923706055,-35.01599884033203 38.62200164794922,-18.950000762939453 38.62200164794922,0.8690000176429749z"></path></g><g opacity="1" transform="matrix(1,0,0,1,204.9759979248047,131.60800170898438)"><path fill="rgb(206,5,5)" fill-opacity="1" d=" M31.003000259399414,-16.211999893188477 C31.003000259399414,-16.211999893188477 35.06399917602539,2.6570000648498535 18.006000518798828,9.197999954223633 C-0.2849999964237213,16.211999893188477 -12.59000015258789,13.222999572753906 -21.79599952697754,7.436999797821045 C-31.00200080871582,1.6510000228881836 -37.944000244140625,-11.309000015258789 -37.944000244140625,-11.309000015258789 C-37.944000244140625,-11.309000015258789 -36.55500030517578,-17.56999969482422 -36.55500030517578,-17.56999969482422 C-36.55500030517578,-17.56999969482422 -16.92300033569336,-9.166999816894531 2.572000026702881,-8.914999961853027 C22.066999435424805,-8.663999557495117 31.003000259399414,-16.211999893188477 31.003000259399414,-16.211999893188477z"></path></g></g><g opacity="1" transform="matrix(1,0,0,1,15.966094970703125,4.5603485107421875)"><g opacity="1" transform="matrix(1,0,0,1,229.36199951171875,92.71199798583984)"><path fill="rgb(255,50,9)" fill-opacity="1" d=" M41.48400115966797,0 C41.48400115966797,20.868999481201172 22.910999298095703,37.7869987487793 0,37.7869987487793 C-22.910999298095703,37.7869987487793 -41.48400115966797,20.868999481201172 -41.48400115966797,0 C-41.48400115966797,-20.868999481201172 -22.910999298095703,-37.7869987487793 0,-37.7869987487793 C22.910999298095703,-37.7869987487793 41.48400115966797,-20.868999481201172 41.48400115966797,0z"></path></g><g opacity="1" transform="matrix(1,0,0,1,228.54299926757812,79.98600006103516)"><path fill="rgb(246,216,101)" fill-opacity="1" d=" M33.404998779296875,0 C33.404998779296875,17.141000747680664 18.448999404907227,31.03700065612793 0,31.03700065612793 C-18.447999954223633,31.03700065612793 -33.404998779296875,17.141000747680664 -33.404998779296875,0 C-33.404998779296875,-17.141000747680664 -18.447999954223633,-31.03700065612793 0,-31.03700065612793 C18.448999404907227,-31.03700065612793 33.404998779296875,-17.141000747680664 33.404998779296875,0z"></path></g><g opacity="1" transform="matrix(1,0,0,1,249.7989959716797,122.64199829101562)"><path fill="rgb(206,5,5)" fill-opacity="1" d=" M4.3542585372924805,-25.289691925048828 C4.3542585372924805,-25.289691925048828 0.810981035232544,-19.39969253540039 -5.326018810272217,-16.14769172668457 C-11.464018821716309,-12.894692420959473 -16.801740646362305,-13.355692863464355 -16.801740646362305,-13.355692863464355 C-16.801740646362305,-13.355692863464355 -30.764434814453125,-3.0920002460479736 -30.764434814453125,-3.0920002460479736 C-30.764434814453125,-3.0920002460479736 -23.79001808166504,5.543307781219482 -23.79001808166504,5.543307781219482 C-23.79001808166504,5.543307781219482 -4.3400187492370605,10.294307708740234 7.221981048583984,3.2133076190948486 C17.826980590820312,-3.2806923389434814 17.58498191833496,-12.948692321777344 17.58498191833496,-12.948692321777344 C17.58498191833496,-12.948692321777344 14.467103958129883,-27.493385314941406 14.467103958129883,-27.493385314941406 C14.467103958129883,-27.493385314941406 4.3542585372924805,-25.289691925048828 4.3542585372924805,-25.289691925048828z"></path></g></g><g opacity="1" transform="matrix(1,0,0,1,0,0)"><g opacity="1" transform="matrix(1,0,0,1,154.37100219726562,89.93599700927734)"><path fill="rgb(255,51,9)" fill-opacity="1" d=" M44.88999938964844,0 C44.88999938964844,23.03499984741211 24.79199981689453,41.70899963378906 0,41.70899963378906 C-24.79199981689453,41.70899963378906 -44.88999938964844,23.03499984741211 -44.88999938964844,0 C-44.88999938964844,-23.03499984741211 -24.79199981689453,-41.70899963378906 0,-41.70899963378906 C24.79199981689453,-41.70899963378906 44.88999938964844,-23.03499984741211 44.88999938964844,0z"></path></g><g opacity="1" transform="matrix(1,0,0,1,155.69400024414062,72.0739974975586)"><path fill="rgb(255,252,160)" fill-opacity="1" d=" M41.047000885009766,0 C41.047000885009766,21.062999725341797 22.670000076293945,38.13800048828125 0,38.13800048828125 C-22.66900062561035,38.13800048828125 -41.047000885009766,21.062999725341797 -41.047000885009766,0 C-41.047000885009766,-21.062999725341797 -22.66900062561035,-38.13800048828125 0,-38.13800048828125 C22.670000076293945,-38.13800048828125 41.047000885009766,-21.062999725341797 41.047000885009766,0z"></path></g><g opacity="1" transform="matrix(1,0,0,1,153.531005859375,123.36299896240234)"><path fill="rgb(206,5,5)" fill-opacity="1" d=" M-27.753000259399414,-13.418000221252441 C-27.753000259399414,-13.418000221252441 -20.172000885009766,-8.720999717712402 -0.6769999861717224,-6.708000183105469 C18.81800079345703,-4.696000099182129 27.753000259399414,-9.979000091552734 27.753000259399414,-9.979000091552734 C27.753000259399414,-9.979000091552734 27.145999908447266,-6.239999771118164 24.322999954223633,-1.9739999771118164 C21.815000534057617,1.815000057220459 17.558000564575195,6.01800012588501 10.425000190734863,8.385000228881836 C-4.73799991607666,13.416999816894531 -13.493000030517578,11.154000282287598 -18.367000579833984,6.374000072479248 C-23.239999771118164,1.593999981880188 -27.753000259399414,-13.418000221252441 -27.753000259399414,-13.418000221252441z"></path></g><g opacity="1" transform="matrix(1,0,0,1,121.71700286865234,85.83599853515625)"><path fill="rgb(254,88,60)" fill-opacity="1" d=" M2.9790000915527344,-21.510000228881836 C2.9790000915527344,-21.510000228881836 -1.6239999532699585,-8.175999641418457 0.8130000233650208,2.6410000324249268 C3.25,13.458999633789062 8.935999870300293,17.736000061035156 8.935999870300293,17.736000061035156 C8.935999870300293,17.736000061035156 -3.5199999809265137,21.510000228881836 -3.5199999809265137,21.510000228881836 C-3.5199999809265137,21.510000228881836 -8.935999870300293,14.21399974822998 -8.394000053405762,-0.12600000202655792 C-7.853000164031982,-14.465999603271484 2.9790000915527344,-21.510000228881836 2.9790000915527344,-21.510000228881836z"></path></g></g><g opacity="1" transform="matrix(1,0,0,1,15.63848876953125,1.0014076232910156)"><g opacity="1" transform="matrix(1,0,0,1,213.75,39.402000427246094)"><path fill="rgb(255,51,9)" fill-opacity="1" d=" M37.487998962402344,0 C37.487998962402344,19.222999572753906 20.70400047302246,34.805999755859375 0.0010000000474974513,34.805999755859375 C-20.702999114990234,34.805999755859375 -37.487998962402344,19.222999572753906 -37.487998962402344,0 C-37.487998962402344,-19.222999572753906 -20.702999114990234,-34.805999755859375 0.0010000000474974513,-34.805999755859375 C20.70400047302246,-34.805999755859375 37.487998962402344,-19.222999572753906 37.487998962402344,0z"></path></g><g opacity="1" transform="matrix(1,0,0,1,212.4040069580078,52.551998138427734)"><path fill="rgb(255,252,160)" fill-opacity="1" d=" M31.709999084472656,7.809999942779541 C26.385000228881836,26.475000381469727 7.870999813079834,38.10900115966797 -9.642000198364258,33.79499816894531 C-27.155000686645508,29.48200035095215 -37.03499984741211,10.854000091552734 -31.709999084472656,-7.810999870300293 C-26.385000228881836,-26.475000381469727 -7.870999813079834,-38.10900115966797 9.642000198364258,-33.79600143432617 C27.155000686645508,-29.48200035095215 37.03499984741211,-10.854999542236328 31.709999084472656,7.809999942779541z"></path></g><g opacity="1" transform="matrix(1,0,0,1,238.5959930419922,40.34299850463867)"><path fill="rgb(255,158,62)" fill-opacity="1" d=" M-9.206000328063965,-19.62299919128418 C-9.206000328063965,-19.62299919128418 0.9020000100135803,-10.902000427246094 -0.902999997138977,2.5160000324249268 C-2.7079999446868896,15.932999610900879 -8.484000205993652,19.62299919128418 -8.484000205993652,19.62299919128418 C-8.484000205993652,19.62299919128418 4.874000072479248,13.920000076293945 7.039999961853027,5.869999885559082 C9.206000328063965,-2.180000066757202 8.123000144958496,-8.218000411987305 4.874000072479248,-12.913999557495117 C1.625,-17.610000610351562 -9.206000328063965,-19.62299919128418 -9.206000328063965,-19.62299919128418z"></path></g></g><g opacity="1" transform="matrix(1,0,0,1,-37.015098571777344,4.452369689941406)"><g opacity="1" transform="matrix(1,0,0,1,48.3489990234375,68.70800018310547)"><path fill="rgb(255,51,9)" fill-opacity="1" d=" M44.334999084472656,0 C44.334999084472656,22.371999740600586 24.73699951171875,40.507999420166016 0.5609999895095825,40.507999420166016 C-23.614999771118164,40.507999420166016 -44.334999084472656,23.57900047302246 -44.334999084472656,1.2070000171661377 C-44.334999084472656,-21.165000915527344 -23.614999771118164,-40.507999420166016 0.5609999895095825,-40.507999420166016 C24.73699951171875,-40.507999420166016 44.334999084472656,-22.371999740600586 44.334999084472656,0z"></path></g><g opacity="1" transform="matrix(1.236799955368042,0,0,1,64.64099884033203,65.49299621582031)"><path fill="rgb(255,252,160)" fill-opacity="1" d=" M30.461000442504883,0 C30.461000442504883,15.75100040435791 16.15399932861328,28.518999099731445 -1.496000051498413,28.518999099731445 C-19.145000457763672,28.518999099731445 -30.461000442504883,18.106000900268555 -30.461000442504883,2.3550000190734863 C-30.461000442504883,-13.395000457763672 -19.145000457763672,-28.518999099731445 -1.496000051498413,-28.518999099731445 C16.15399932861328,-28.518999099731445 30.461000442504883,-15.75100040435791 30.461000442504883,0z"></path></g><g opacity="1" transform="matrix(1,0,0,1,19.149999618530273,95.71499633789062)"><path fill="rgb(206,5,5)" fill-opacity="1" d=" M-14.329000473022461,-21.25 C-14.329000473022461,-21.25 -8.383000373840332,-10.447999954223633 0.19099999964237213,-4.309999942779541 C15.031999588012695,6.314000129699707 63.55061340332031,0.8419824838638306 61.28661346435547,-2.458017587661743 C61.28661346435547,-2.458017587661743 56.98699951171875,16.761999130249023 33.65399932861328,19.597000122070312 C24.437000274658203,20.716999053955078 8.621000289916992,18.507999420166016 -1.4229999780654907,9.081999778747559 C-18.900999069213867,-7.320000171661377 -14.329000473022461,-21.25 -14.329000473022461,-21.25z"></path></g></g></g></g><g style="display: block;" transform="matrix(1,0,0,1,256,256)" opacity="1"><g opacity="0" transform="matrix(-0.07964381575584412,0.5088853240013123,-0.5185081362724304,-0.08114985376596451,166.2709503173828,-245.56980895996094)"><path fill="rgb(252,181,131)" fill-opacity="1" d=" M85.5719985961914,-164.29600524902344 C85.5719985961914,-164.29600524902344 63.0260009765625,-166.33200073242188 63.0260009765625,-166.33200073242188 C63.0260009765625,-166.33200073242188 47.91600036621094,-149.2239990234375 47.91600036621094,-149.2239990234375 C47.91600036621094,-149.2239990234375 52.1150016784668,-126.25299835205078 52.1150016784668,-126.25299835205078 C52.1150016784668,-126.25299835205078 74.33599853515625,-134.32899475097656 74.33599853515625,-134.32899475097656 C74.33599853515625,-134.32899475097656 93.5,-144.5 93.5,-144.5 C93.5,-144.5 85.5719985961914,-164.29600524902344 85.5719985961914,-164.29600524902344z"></path><path stroke-linecap="round" stroke-linejoin="round" fill-opacity="0" stroke="rgb(181,79,34)" stroke-opacity="1" stroke-width="10" d=" M85.5719985961914,-164.29600524902344 C85.5719985961914,-164.29600524902344 63.0260009765625,-166.33200073242188 63.0260009765625,-166.33200073242188 C63.0260009765625,-166.33200073242188 47.91600036621094,-149.2239990234375 47.91600036621094,-149.2239990234375 C47.91600036621094,-149.2239990234375 52.1150016784668,-126.25299835205078 52.1150016784668,-126.25299835205078 C52.1150016784668,-126.25299835205078 74.33599853515625,-134.32899475097656 74.33599853515625,-134.32899475097656 C74.33599853515625,-134.32899475097656 93.5,-144.5 93.5,-144.5 C93.5,-144.5 85.5719985961914,-164.29600524902344 85.5719985961914,-164.29600524902344z"></path></g><g opacity="0" transform="matrix(1,0,0,1,0,0)"><path fill="rgb(236,134,67)" fill-opacity="1" d=" M239,-208 C239,-208 246.5,-199.5 246.5,-199.5 C246.5,-199.5 243,-191 243,-191 C243,-191 239,-208 239,-208z"></path><path stroke-linecap="round" stroke-linejoin="round" fill-opacity="0" stroke="rgb(181,79,34)" stroke-opacity="1" stroke-width="4" d=" M239,-208 C239,-208 246.5,-199.5 246.5,-199.5 C246.5,-199.5 243,-191 243,-191 C243,-191 239,-208 239,-208z"></path></g></g><g style="display: block;" transform="matrix(-0.07508053630590439,-0.7954545617103577,0.7546259760856628,-0.07122685015201569,106.42688751220703,-66.98513793945312)" opacity="0.02"><g opacity="1" transform="matrix(1,0,0,1,0,0)"><path fill="rgb(255,185,150)" fill-opacity="1" d=" M-171.26800537109375,-144.80299377441406 C-171.26800537109375,-144.80299377441406 -171.4340057373047,-93.20099639892578 -171.4340057373047,-93.20099639892578 C-171.4340057373047,-93.20099639892578 -132.1009979248047,-118.81900024414062 -132.1009979248047,-118.81900024414062 C-132.1009979248047,-118.81900024414062 -130,-123 -130,-123 C-130,-123 -171.26800537109375,-144.80299377441406 -171.26800537109375,-144.80299377441406z"></path><path stroke-linecap="round" stroke-linejoin="round" fill-opacity="0" stroke="rgb(181,79,34)" stroke-opacity="1" stroke-width="11" d=" M-171.26800537109375,-144.80299377441406 C-171.26800537109375,-144.80299377441406 -171.4340057373047,-93.20099639892578 -171.4340057373047,-93.20099639892578 C-171.4340057373047,-93.20099639892578 -132.1009979248047,-118.81900024414062 -132.1009979248047,-118.81900024414062 C-132.1009979248047,-118.81900024414062 -130,-123 -130,-123 C-130,-123 -171.26800537109375,-144.80299377441406 -171.26800537109375,-144.80299377441406z"></path></g><g opacity="1" transform="matrix(1,0,0,1,0,0)"><path fill="rgb(241,127,70)" fill-opacity="1" d=" M-167.38999938964844,-144.1179962158203 C-167.38999938964844,-144.1179962158203 -132.47900390625,-121.50399780273438 -132.47900390625,-121.50399780273438 C-132.47900390625,-121.50399780273438 -131.71400451660156,-121.59200286865234 -131.71400451660156,-121.59200286865234 C-131.71400451660156,-121.59200286865234 -167.38999938964844,-144.1179962158203 -167.38999938964844,-144.1179962158203z"></path><path stroke-linecap="round" stroke-linejoin="round" fill-opacity="0" stroke="rgb(175,69,1)" stroke-opacity="1" stroke-width="8" d=" M-167.38999938964844,-144.1179962158203 C-167.38999938964844,-144.1179962158203 -132.47900390625,-121.50399780273438 -132.47900390625,-121.50399780273438 C-132.47900390625,-121.50399780273438 -131.71400451660156,-121.59200286865234 -131.71400451660156,-121.59200286865234 C-131.71400451660156,-121.59200286865234 -167.38999938964844,-144.1179962158203 -167.38999938964844,-144.1179962158203z"></path></g></g><g style="display: none;"><g><path></path><path stroke-linecap="round" stroke-linejoin="round" fill-opacity="0"></path></g><g><path></path><path stroke-linecap="round" stroke-linejoin="round" fill-opacity="0"></path></g></g><g style="display: none;"><g><path></path><path stroke-linecap="round" stroke-linejoin="round" fill-opacity="0"></path></g><g><path></path><path stroke-linecap="round" stroke-linejoin="round" fill-opacity="0"></path></g></g><g style="display: none;"><g><path></path><path stroke-linecap="butt" stroke-linejoin="round" fill-opacity="0"></path></g></g><g style="display: block;" transform="matrix(1.0500422716140747,-0.00020586470782291144,0.0001995190541492775,1.017672061920166,13.304911613464355,135.053466796875)" opacity="1"><g opacity="1" transform="matrix(1,0,0,1,219.59300231933594,189.2740020751953)"><path fill="url(#__lottie_element_15)" fill-opacity="1" d=" M-189.7385711669922,-13.858205795288086 C-185.0101776123047,-41.97334289550781 -158.6267547607422,-87.73193359375 -120.19667053222656,-115.45014953613281 C-92.01050567626953,-136.94578552246094 -58.27684020996094,-155.30906677246094 -17.287214279174805,-162.24603271484375 C35.34089279174805,-170.81246948242188 82.1685562133789,-155.0996856689453 103.84923553466797,-137.8311004638672 C151.37399291992188,-99.42377471923828 177.68594360351562,-46.65108108520508 177.82252502441406,23.301973342895508 C178.56411743164062,73.23023986816406 168.40322875976562,104.59471130371094 125.95895385742188,136.85702514648438 C102.4258041381836,151.47402954101562 81.95115661621094,166.18594360351562 31.119909286499023,166.04783630371094 C-18.070709228515625,168.6717529296875 -102.28379821777344,156.84239196777344 -149.43417358398438,122.18601989746094 C-193.00692749023438,91.55716705322266 -196.33895874023438,25.160972595214844 -189.7385711669922,-13.858205795288086z"></path><path stroke-linecap="butt" stroke-linejoin="miter" fill-opacity="0" stroke-miterlimit="10" stroke="rgb(180,79,34)" stroke-opacity="1" stroke-width="14.597" d=" M-189.7385711669922,-13.858205795288086 C-185.0101776123047,-41.97334289550781 -158.6267547607422,-87.73193359375 -120.19667053222656,-115.45014953613281 C-92.01050567626953,-136.94578552246094 -58.27684020996094,-155.30906677246094 -17.287214279174805,-162.24603271484375 C35.34089279174805,-170.81246948242188 82.1685562133789,-155.0996856689453 103.84923553466797,-137.8311004638672 C151.37399291992188,-99.42377471923828 177.68594360351562,-46.65108108520508 177.82252502441406,23.301973342895508 C178.56411743164062,73.23023986816406 168.40322875976562,104.59471130371094 125.95895385742188,136.85702514648438 C102.4258041381836,151.47402954101562 81.95115661621094,166.18594360351562 31.119909286499023,166.04783630371094 C-18.070709228515625,168.6717529296875 -102.28379821777344,156.84239196777344 -149.43417358398438,122.18601989746094 C-193.00692749023438,91.55716705322266 -196.33895874023438,25.160972595214844 -189.7385711669922,-13.858205795288086z"></path></g><g opacity="1" transform="matrix(0.8999999761581421,0,0,0.8999999761581421,219.99200439453125,182.20899963378906)"><path fill="url(#__lottie_element_16)" fill-opacity="1" d=" M-189.7385711669922,-13.858205795288086 C-185.0101776123047,-41.97334289550781 -158.6267547607422,-87.73193359375 -120.19667053222656,-115.45014953613281 C-92.01050567626953,-136.94578552246094 -58.27684020996094,-155.30906677246094 -17.287214279174805,-162.24603271484375 C35.34089279174805,-170.81246948242188 82.1685562133789,-155.0996856689453 103.84923553466797,-137.8311004638672 C151.37399291992188,-99.42377471923828 177.68594360351562,-46.65108108520508 177.82252502441406,23.301973342895508 C178.56411743164062,73.23023986816406 168.40322875976562,104.59471130371094 125.95895385742188,136.85702514648438 C102.4258041381836,151.47402954101562 81.95115661621094,166.18594360351562 31.119909286499023,166.04783630371094 C-18.070709228515625,168.6717529296875 -102.28379821777344,156.84239196777344 -149.43417358398438,122.18601989746094 C-193.00692749023438,91.55716705322266 -196.33895874023438,25.160972595214844 -189.7385711669922,-13.858205795288086z"></path></g></g><g style="display: block;" transform="matrix(1.0073304176330566,0.036854252219200134,-0.03803829476237297,0.9762622714042664,69.09750366210938,182.48631286621094)" opacity="1"><g opacity="1" transform="matrix(1,0,0,1,0,0)"><g opacity="1" transform="matrix(1,0,0,1,0,0)"><g opacity="1" transform="matrix(1,0,0,1,0,0)"><path stroke-linecap="butt" stroke-linejoin="miter" fill-opacity="0" stroke-miterlimit="4" stroke="rgb(70,7,20)" stroke-opacity="1" stroke-width="2" d="M0 0"></path></g></g></g><g opacity="1" transform="matrix(0.9300000071525574,0,0,0.9300000071525574,13.433975219726562,7.4130706787109375)"><g opacity="1" transform="matrix(1,0,0,1,0,0)"><g opacity="1" transform="matrix(1,0,0,1,279.0270080566406,95.76499938964844)"><path fill="url(#__lottie_element_21)" fill-opacity="0.99" d=" M-49.25593948364258,-26.673198699951172 C-37.45494079589844,-41.22019958496094 -17.365964889526367,-56.48611068725586 14.005284309387207,-53.28103256225586 C30.08832359313965,-51.66200637817383 76.6749496459961,-2.110177755355835 60.25695037841797,33.711822509765625 C52.047950744628906,51.621822357177734 42.97850036621094,58.72279357910156 21.075498580932617,59.04779052734375 C-0.8275007605552673,59.3727912902832 -31.603321075439453,25.632753372192383 -45.388511657714844,10.070374488830566 C-59.47472381591797,-5.911733627319336 -58.26593780517578,-15.56619930267334 -49.25593948364258,-26.673198699951172z"></path><path stroke-linecap="butt" stroke-linejoin="miter" fill-opacity="0" stroke-miterlimit="10" stroke="rgb(70,7,20)" stroke-opacity="1" stroke-width="11.87" d=" M-49.25593948364258,-26.673198699951172 C-37.45494079589844,-41.22019958496094 -17.365964889526367,-56.48611068725586 14.005284309387207,-53.28103256225586 C30.08832359313965,-51.66200637817383 76.6749496459961,-2.110177755355835 60.25695037841797,33.711822509765625 C52.047950744628906,51.621822357177734 42.97850036621094,58.72279357910156 21.075498580932617,59.04779052734375 C-0.8275007605552673,59.3727912902832 -31.603321075439453,25.632753372192383 -45.388511657714844,10.070374488830566 C-59.47472381591797,-5.911733627319336 -58.26593780517578,-15.56619930267334 -49.25593948364258,-26.673198699951172z"></path></g><g opacity="1" transform="matrix(1.2100000381469727,0,0,1.2100000381469727,279.3210144042969,94.91999816894531)"><path fill="rgb(15,14,5)" fill-opacity="1" d=" M16.839935302734375,-5.909463405609131 C18.77293586730957,1.7995367050170898 17.39277458190918,10.842649459838867 9.230774879455566,12.888648986816406 C1.0677746534347534,14.934649467468262 -8.337054252624512,9.596508979797363 -10.269054412841797,1.8875089883804321 C-12.202054023742676,-5.82149076461792 -11.651947975158691,-13.390427589416504 -3.488947868347168,-15.436427116394043 C4.673051834106445,-17.483427047729492 14.906936645507812,-13.618463516235352 16.839935302734375,-5.909463405609131z"></path></g><g opacity="1" transform="matrix(0.4865100085735321,0,0,0.4865100085735321,291.70599365234375,92.40899658203125)"><path fill="rgb(255,255,255)" fill-opacity="1" d=" M16.839935302734375,-5.909463405609131 C18.77293586730957,1.7995367050170898 17.39277458190918,10.842649459838867 9.230774879455566,12.888648986816406 C1.0677746534347534,14.934649467468262 -8.337054252624512,9.596508979797363 -10.269054412841797,1.8875089883804321 C-12.202054023742676,-5.82149076461792 -11.651947975158691,-13.390427589416504 -3.488947868347168,-15.436427116394043 C4.673051834106445,-17.483427047729492 14.906936645507812,-13.618463516235352 16.839935302734375,-5.909463405609131z"></path></g><g opacity="1" transform="matrix(1,0,0,1,279.0270080566406,95.76499938964844)"><path stroke-linecap="butt" stroke-linejoin="miter" fill-opacity="0" stroke-miterlimit="10" stroke="rgb(117,46,14)" stroke-opacity="1" stroke-width="11.87" d=" M-49.25593948364258,-26.673198699951172 C-37.45494079589844,-41.22019958496094 -17.365964889526367,-56.48611068725586 14.005284309387207,-53.28103256225586 C30.08832359313965,-51.66200637817383 76.6749496459961,-2.110177755355835 60.25695037841797,33.711822509765625 C52.047950744628906,51.621822357177734 42.97850036621094,58.72279357910156 21.075498580932617,59.04779052734375 C-0.8275007605552673,59.3727912902832 -31.603321075439453,25.632753372192383 -45.388511657714844,10.070374488830566 C-59.47472381591797,-5.911733627319336 -58.26593780517578,-15.56619930267334 -49.25593948364258,-26.673198699951172z"></path></g></g><g opacity="1" transform="matrix(1,0,0,1,0,0)"><g opacity="1" transform="matrix(1,0,0,1,100.87999725341797,88.48500061035156)"><path fill="rgb(115,38,4)" fill-opacity="1" d=" M62.467529296875,-14.678304672241211 C63.81953048706055,-27.855304718017578 62.02790069580078,-49.406673431396484 21.300899505615234,-47.71067428588867 C-31.716100692749023,-45.5026741027832 -72.40572357177734,-14.414654731750488 -66.35572052001953,28.12134552001953 C-63.309722900390625,49.536346435546875 -36.75572204589844,65.48697662353516 -21.25872230529785,66.64097595214844 C-3.4077227115631104,67.97097778320312 16.550277709960938,65.47897338867188 29.151277542114258,49.29497528076172 C47.89327621459961,25.223976135253906 60.61452865600586,3.390695095062256 62.467529296875,-14.678304672241211z"></path><path stroke-linecap="butt" stroke-linejoin="miter" fill-opacity="0" stroke-miterlimit="10" stroke="rgb(70,7,20)" stroke-opacity="1" stroke-width="11.87" d=" M62.467529296875,-14.678304672241211 C63.81953048706055,-27.855304718017578 62.02790069580078,-49.406673431396484 21.300899505615234,-47.71067428588867 C-31.716100692749023,-45.5026741027832 -72.40572357177734,-14.414654731750488 -66.35572052001953,28.12134552001953 C-63.309722900390625,49.536346435546875 -36.75572204589844,65.48697662353516 -21.25872230529785,66.64097595214844 C-3.4077227115631104,67.97097778320312 16.550277709960938,65.47897338867188 29.151277542114258,49.29497528076172 C47.89327621459961,25.223976135253906 60.61452865600586,3.390695095062256 62.467529296875,-14.678304672241211z"></path></g><g opacity="1" transform="matrix(1,0,0,1,100.87999725341797,88.48500061035156)"><path fill="url(#__lottie_element_22)" fill-opacity="1" d=" M62.467529296875,-14.678304672241211 C63.81953048706055,-27.855304718017578 62.02790069580078,-49.406673431396484 21.300899505615234,-47.71067428588867 C-31.716100692749023,-45.5026741027832 -72.40572357177734,-14.414654731750488 -66.35572052001953,28.12134552001953 C-63.309722900390625,49.536346435546875 -36.75572204589844,65.48697662353516 -21.25872230529785,66.64097595214844 C-3.4077227115631104,67.97097778320312 16.550277709960938,65.47897338867188 29.151277542114258,49.29497528076172 C47.89327621459961,25.223976135253906 60.61452865600586,3.390695095062256 62.467529296875,-14.678304672241211z"></path></g><g opacity="1" transform="matrix(1.0858070850372314,0,0,1.0858070850372314,104.71800231933594,92.43900299072266)"><path fill="rgb(15,15,6)" fill-opacity="1" d=" M15.015695571899414,-2.1359643936157227 C16.528696060180664,6.1020355224609375 11.234951972961426,13.7318115234375 2.512951612472534,15.33381175994873 C-6.210048675537109,16.93581199645996 -15.005531311035156,11.162705421447754 -16.518531799316406,2.924705743789673 C-18.03053092956543,-5.313294410705566 -12.341320037841797,-13.12088394165039 -3.6183202266693115,-14.722884178161621 C5.103679656982422,-16.323883056640625 13.50269603729248,-10.373964309692383 15.015695571899414,-2.1359643936157227z"></path></g><g opacity="1" transform="matrix(0.49000000953674316,0,0,0.49000000953674316,115.05000305175781,93.74199676513672)"><path fill="rgb(255,255,255)" fill-opacity="1" d=" M15.015695571899414,-2.1359643936157227 C16.528696060180664,6.1020355224609375 11.234951972961426,13.7318115234375 2.512951612472534,15.33381175994873 C-6.210048675537109,16.93581199645996 -15.005531311035156,11.162705421447754 -16.518531799316406,2.924705743789673 C-18.03053092956543,-5.313294410705566 -12.341320037841797,-13.12088394165039 -3.6183202266693115,-14.722884178161621 C5.103679656982422,-16.323883056640625 13.50269603729248,-10.373964309692383 15.015695571899414,-2.1359643936157227z"></path></g><g opacity="1" transform="matrix(1,0,0,1,100.87999725341797,88.48500061035156)"><path stroke-linecap="butt" stroke-linejoin="miter" fill-opacity="0" stroke-miterlimit="10" stroke="rgb(117,45,14)" stroke-opacity="1" stroke-width="11.87" d=" M62.467529296875,-14.678304672241211 C63.81953048706055,-27.855304718017578 62.02790069580078,-49.406673431396484 21.300899505615234,-47.71067428588867 C-31.716100692749023,-45.5026741027832 -72.40572357177734,-14.414654731750488 -66.35572052001953,28.12134552001953 C-63.309722900390625,49.536346435546875 -36.75572204589844,65.48697662353516 -21.25872230529785,66.64097595214844 C-3.4077227115631104,67.97097778320312 16.550277709960938,65.47897338867188 29.151277542114258,49.29497528076172 C47.89327621459961,25.223976135253906 60.61452865600586,3.390695095062256 62.467529296875,-14.678304672241211z"></path></g></g></g></g><g style="display: block;" transform="matrix(1.04961097240448,0.029155801981687546,-0.030096080154180527,1.01725435256958,127.35124969482422,319.1579895019531)" opacity="1"><g opacity="1" transform="matrix(0.9399999976158142,0,0,0.9399999976158142,7.11810302734375,2.755138397216797)"><g opacity="1" transform="matrix(1,0,0,1,118.55599975585938,82.20999908447266)"><path fill="rgb(102,32,1)" fill-opacity="1" d=" M-49.34927749633789,-60.955413818359375 C-34.139808654785156,-79.48603057861328 -7.523231029510498,-98.32561492919922 34.61906051635742,-82.9098129272461 C65.06500244140625,-71.90348052978516 61.54710388183594,-34.36310958862305 64.95916748046875,-10.926668167114258 C69.15257263183594,18.813121795654297 95.02300262451172,29.312908172607422 86.7873764038086,34.50053405761719 C83.05662536621094,36.536014556884766 45.99948501586914,18.013856887817383 7.815465927124023,12.768102645874023 C-19.947174072265625,8.919941902160645 -59.29960632324219,20.93670654296875 -72.17670440673828,15.835524559020996 C-88.98825073242188,9.24216365814209 -56.2737922668457,-52.278316497802734 -49.34927749633789,-60.955413818359375z"></path><path stroke-linecap="round" stroke-linejoin="round" fill-opacity="0" stroke="rgb(70,7,20)" stroke-opacity="1" stroke-width="12" d=" M-49.34927749633789,-60.955413818359375 C-34.139808654785156,-79.48603057861328 -7.523231029510498,-98.32561492919922 34.61906051635742,-82.9098129272461 C65.06500244140625,-71.90348052978516 61.54710388183594,-34.36310958862305 64.95916748046875,-10.926668167114258 C69.15257263183594,18.813121795654297 95.02300262451172,29.312908172607422 86.7873764038086,34.50053405761719 C83.05662536621094,36.536014556884766 45.99948501586914,18.013856887817383 7.815465927124023,12.768102645874023 C-19.947174072265625,8.919941902160645 -59.29960632324219,20.93670654296875 -72.17670440673828,15.835524559020996 C-88.98825073242188,9.24216365814209 -56.2737922668457,-52.278316497802734 -49.34927749633789,-60.955413818359375z"></path></g><g opacity="1" transform="matrix(1.0700000524520874,0,0,1.0700000524520874,0,0)"><path fill="rgb(255,255,255)" fill-opacity="1" d=" M132.95599365234375,-0.2752452492713928 C132.95599365234375,-0.2752452492713928 129.88612365722656,8.779555320739746 128.90011596679688,14.009554862976074 C128.76512145996094,14.725555419921875 127.30111694335938,18.56055450439453 127.30511474609375,18.843555450439453 C127.31211853027344,19.365554809570312 127.27911376953125,22.222620010375977 127.5941162109375,22.8546199798584 C130.78311157226562,29.24761962890625 126.4049072265625,26.56369400024414 130.5019073486328,29.669694900512695 C131.0509033203125,30.085695266723633 138.8588409423828,36.59421157836914 140.0348358154297,37.30720901489258 C145.3208465576172,40.51420974731445 146.864501953125,42.45077896118164 146.864501953125,42.45077896118164 C146.864501953125,42.45077896118164 157.62355041503906,50.792293548583984 162.7185516357422,44.180294036865234 C166.21054077148438,39.64829635620117 166.12705993652344,28.291446685791016 166.12705993652344,28.291446685791016 C166.12705993652344,28.291446685791016 166.76412963867188,17.536819458007812 151.6271209716797,6.309820175170898 C142.1961212158203,-0.686180055141449 132.95599365234375,-0.2752452492713928 132.95599365234375,-0.2752452492713928z"></path><path stroke-linecap="round" stroke-linejoin="round" fill-opacity="0" stroke="rgb(80,110,171)" stroke-opacity="1" stroke-width="12" d=" M132.95599365234375,-0.2752452492713928 C132.95599365234375,-0.2752452492713928 129.88612365722656,8.779555320739746 128.90011596679688,14.009554862976074 C128.76512145996094,14.725555419921875 127.30111694335938,18.56055450439453 127.30511474609375,18.843555450439453 C127.31211853027344,19.365554809570312 127.27911376953125,22.222620010375977 127.5941162109375,22.8546199798584 C130.78311157226562,29.24761962890625 126.4049072265625,26.56369400024414 130.5019073486328,29.669694900512695 C131.0509033203125,30.085695266723633 138.8588409423828,36.59421157836914 140.0348358154297,37.30720901489258 C145.3208465576172,40.51420974731445 146.864501953125,42.45077896118164 146.864501953125,42.45077896118164 C146.864501953125,42.45077896118164 157.62355041503906,50.792293548583984 162.7185516357422,44.180294036865234 C166.21054077148438,39.64829635620117 166.12705993652344,28.291446685791016 166.12705993652344,28.291446685791016 C166.12705993652344,28.291446685791016 166.76412963867188,17.536819458007812 151.6271209716797,6.309820175170898 C142.1961212158203,-0.686180055141449 132.95599365234375,-0.2752452492713928 132.95599365234375,-0.2752452492713928z"></path></g><g opacity="1" transform="matrix(1,0,0,1,0,0)"><path fill="rgb(255,255,255)" fill-opacity="1" d=" M117.35240936279297,-3.202937126159668 C105.49161529541016,-3.4048197269439697 89.53829956054688,5.485933780670166 89.53829956054688,5.485933780670166 C89.53829956054688,5.485933780670166 96.27506256103516,27.51921844482422 100.80606079101562,32.04521942138672 C108.32805633544922,39.560218811035156 113.6231460571289,36.84462356567383 115.54414367675781,34.47862243652344 C115.80823516845703,34.15338134765625 116.4423599243164,32.27591323852539 117.38544464111328,30.967029571533203 C123.23933410644531,22.8153018951416 143.6229705810547,0.5208283066749573 143.6229705810547,0.5208283066749573 C143.6229705810547,0.5208283066749573 129.06246948242188,-3.0047993659973145 117.35240936279297,-3.202937126159668z"></path><path stroke-linecap="round" stroke-linejoin="round" fill-opacity="0" stroke="rgb(80,110,171)" stroke-opacity="1" stroke-width="12" d=" M117.35240936279297,-3.202937126159668 C105.49161529541016,-3.4048197269439697 89.53829956054688,5.485933780670166 89.53829956054688,5.485933780670166 C89.53829956054688,5.485933780670166 96.27506256103516,27.51921844482422 100.80606079101562,32.04521942138672 C108.32805633544922,39.560218811035156 113.6231460571289,36.84462356567383 115.54414367675781,34.47862243652344 C115.80823516845703,34.15338134765625 116.4423599243164,32.27591323852539 117.38544464111328,30.967029571533203 C123.23933410644531,22.8153018951416 143.6229705810547,0.5208283066749573 143.6229705810547,0.5208283066749573 C143.6229705810547,0.5208283066749573 129.06246948242188,-3.0047993659973145 117.35240936279297,-3.202937126159668z"></path></g></g><g opacity="1" transform="matrix(1,0,0,1,0,0)"><path fill="rgb(196,20,20)" fill-opacity="1" d=" M104.56372833251953,70.09618377685547 C92.52772521972656,71.85317993164062 83.80154418945312,84.0782699584961 84.47454833984375,88.02027130126953 C85.14754486083984,91.96227264404297 104.83727264404297,89.60090637207031 122.40227508544922,90.7589111328125 C139.96726989746094,91.91690826416016 163.52317810058594,96.39854431152344 163.52317810058594,96.39854431152344 C163.52317810058594,96.39854431152344 164.6408233642578,92.76054382324219 164.6408233642578,92.76054382324219 C164.6408233642578,92.76054382324219 159.8070068359375,81.30836486816406 149.10508728027344,76.31400299072266 C141.1630859375,72.90154266357422 123.28173065185547,71.25617980957031 123.28173065185547,71.25617980957031 C123.28173065185547,71.25617980957031 116.59972381591797,68.33917999267578 104.56372833251953,70.09618377685547z"></path><path stroke-linecap="round" stroke-linejoin="round" fill-opacity="0" stroke="rgb(149,7,2)" stroke-opacity="1" stroke-width="10" d=" M104.56372833251953,70.09618377685547 C92.52772521972656,71.85317993164062 83.80154418945312,84.0782699584961 84.47454833984375,88.02027130126953 C85.14754486083984,91.96227264404297 104.83727264404297,89.60090637207031 122.40227508544922,90.7589111328125 C139.96726989746094,91.91690826416016 163.52317810058594,96.39854431152344 163.52317810058594,96.39854431152344 C163.52317810058594,96.39854431152344 164.6408233642578,92.76054382324219 164.6408233642578,92.76054382324219 C164.6408233642578,92.76054382324219 159.8070068359375,81.30836486816406 149.10508728027344,76.31400299072266 C141.1630859375,72.90154266357422 123.28173065185547,71.25617980957031 123.28173065185547,71.25617980957031 C123.28173065185547,71.25617980957031 116.59972381591797,68.33917999267578 104.56372833251953,70.09618377685547z"></path></g><g opacity="1" transform="matrix(1,0,0,1,0,0)"><path fill="rgb(255,255,255)" fill-opacity="1" d=" M109.6506118774414,66.1364517211914 C104.23760986328125,62.76744842529297 90.43860626220703,68.4614486694336 88.66761016845703,70.04045104980469 C86.8966064453125,71.61944580078125 70.00760650634766,92.84344482421875 70.00760650634766,92.84344482421875 C70.00760650634766,92.84344482421875 92.32133483886719,89.50072479248047 97.21333312988281,89.46772766113281 C102.10533142089844,89.43472290039062 117.08761596679688,89.076416015625 117.08761596679688,89.076416015625 C117.08761596679688,89.076416015625 117.32760620117188,70.9144515991211 109.6506118774414,66.1364517211914z"></path><path stroke-linecap="round" stroke-linejoin="round" fill-opacity="0" stroke="rgb(78,109,170)" stroke-opacity="1" stroke-width="10.771043439759925" d=" M109.6506118774414,66.1364517211914 C104.23760986328125,62.76744842529297 90.43860626220703,68.4614486694336 88.66761016845703,70.04045104980469 C86.8966064453125,71.61944580078125 70.00760650634766,92.84344482421875 70.00760650634766,92.84344482421875 C70.00760650634766,92.84344482421875 92.32133483886719,89.50072479248047 97.21333312988281,89.46772766113281 C102.10533142089844,89.43472290039062 117.08761596679688,89.076416015625 117.08761596679688,89.076416015625 C117.08761596679688,89.076416015625 117.32760620117188,70.9144515991211 109.6506118774414,66.1364517211914z"></path></g><g opacity="1" transform="matrix(0.9399999976158142,0,0,0.9399999976158142,7.11810302734375,2.755138397216797)"><g opacity="1" transform="matrix(1,0,0,1,118.55599975585938,82.20999908447266)"><path stroke-linecap="round" stroke-linejoin="round" fill-opacity="0" stroke="rgb(91,4,1)" stroke-opacity="1" stroke-width="11" d=" M-49.34927749633789,-60.955413818359375 C-34.139808654785156,-79.48603057861328 -7.523231029510498,-98.32561492919922 34.61906051635742,-82.9098129272461 C65.06500244140625,-71.90348052978516 61.54710388183594,-34.36310958862305 64.95916748046875,-10.926668167114258 C69.15257263183594,18.813121795654297 95.02300262451172,29.312908172607422 86.7873764038086,34.50053405761719 C83.05662536621094,36.536014556884766 45.99948501586914,18.013856887817383 7.815465927124023,12.768102645874023 C-19.947174072265625,8.919941902160645 -59.29960632324219,20.93670654296875 -72.17670440673828,15.835524559020996 C-88.98825073242188,9.24216365814209 -56.2737922668457,-52.278316497802734 -49.34927749633789,-60.955413818359375z"></path></g></g></g><g style="display: block;" transform="matrix(1.0073304176330566,0.036854252219200134,-0.03803829476237297,0.9762622714042664,154.98866271972656,174.80316162109375)" opacity="1"><g opacity="1" transform="matrix(0.9849015474319458,0.1731153130531311,-0.1731153130531311,0.9849015474319458,183.35499572753906,12.961000442504883)"><path fill="rgb(89,9,30)" fill-opacity="1" d=" M-17.500999450683594,-17.576000213623047 C-4.541999816894531,-27.65999984741211 -0.45100000500679016,-19.88599967956543 8.720999717712402,-13.98900032043457 C18.739999771118164,-7.546999931335449 52.880001068115234,11.527000427246094 48.702999114990234,21.64900016784668 C46.71500015258789,26.465999603271484 20.429000854492188,19.038000106811523 1.2109999656677246,18.34600067138672 C-10.767000198364258,17.913999557495117 -34.91899871826172,23.70400047302246 -37.5880012512207,18.339000701904297 C-52.007999420166016,-10.647000312805176 -18.327999114990234,-0.10100000351667404 -17.170000076293945,-2.7890000343322754 C-15.829999923706055,-5.89900016784668 -21.29599952697754,-14.623000144958496 -17.500999450683594,-17.576000213623047z"></path></g><g opacity="1" transform="matrix(0.9852500557899475,-0.17112095654010773,0.17112095654010773,0.9852500557899475,16.930999755859375,13.855999946594238)"><path fill="rgb(89,9,30)" fill-opacity="1" d=" M14.833999633789062,3.065000057220459 C12.859999656677246,5.901000022888184 22.261999130249023,-2.9489998817443848 12.866999626159668,-14.74899959564209 C10.40999984741211,-17.834999084472656 -6.640999794006348,7.710000038146973 -10.82699966430664,9.74899959564209 C-27.441999435424805,17.841999053955078 -26.981000900268555,17.909000396728516 -38.40599822998047,20.409000396728516 C-41.90700149536133,21.174999237060547 -43.415000915527344,34.62900161743164 -35.41600036621094,34.53900146484375 C-31.785999298095703,34.49800109863281 -6.293000221252441,33.48500061035156 -2.687999963760376,32.48699951171875 C15.369999885559082,27.486000061035156 22.239999771118164,24.506999969482422 25.763999938964844,23.861000061035156 C30.517000198364258,22.989999771118164 46.90299987792969,18.069000244140625 48.112998962402344,4.760000228881836 C48.65599822998047,-1.2070000171661377 28.538000106811523,-16.628999710083008 14.833999633789062,3.065000057220459z"></path></g></g></g></g></svg>