<svg xmlns="http://www.w3.org/2000/svg" xmlns:xlink="http://www.w3.org/1999/xlink" viewBox="0 0 512 512" width="512" height="512" style="width: 100%; height: 100%; transform: translate3d(0,0,0); content-visibility: visible;" preserveAspectRatio="xMidYMid meet"><defs><clipPath id="__lottie_element_2"><rect width="512" height="512" x="0" y="0"></rect></clipPath><clipPath id="__lottie_element_4"><path d="M0,0 L512,0 L512,512 L0,512z"></path></clipPath><radialGradient id="__lottie_element_12" spreadMethod="pad" gradientUnits="userSpaceOnUse" cx="-105.29399871826172" cy="-201.21800231933594" r="324.6980239278724" fx="-105.29399871826172" fy="-201.21800231933594"><stop offset="0%" stop-color="rgb(253,212,183)"></stop><stop offset="85%" stop-color="rgb(248,196,168)"></stop><stop offset="100%" stop-color="rgb(243,181,154)"></stop></radialGradient><radialGradient id="__lottie_element_21" spreadMethod="pad" gradientUnits="userSpaceOnUse"><stop></stop><stop></stop><stop></stop></radialGradient><mask id="__lottie_element_23"><path fill="url(#__lottie_element_22)"></path></mask><radialGradient id="__lottie_element_22" spreadMethod="pad" gradientUnits="userSpaceOnUse"><stop stop-color="rgb(255,255,255)"></stop><stop stop-color="rgb(255,255,255)"></stop><stop stop-color="rgb(255,255,255)"></stop></radialGradient><radialGradient id="__lottie_element_27" spreadMethod="pad" gradientUnits="userSpaceOnUse"><stop></stop><stop></stop><stop></stop></radialGradient><mask id="__lottie_element_29"><path fill="url(#__lottie_element_28)"></path></mask><radialGradient id="__lottie_element_28" spreadMethod="pad" gradientUnits="userSpaceOnUse"><stop stop-color="rgb(255,255,255)"></stop><stop stop-color="rgb(255,255,255)"></stop><stop stop-color="rgb(255,255,255)"></stop></radialGradient></defs><g clip-path="url(#__lottie_element_2)"><g clip-path="url(#__lottie_element_4)" style="display: block;" transform="matrix(1,0,0,1,0,0)" opacity="1"><g style="display: block;" transform="matrix(1,0,0,1,-1.614013671875,341.38201904296875)" opacity="1"><g opacity="1" transform="matrix(1,0,0,1,257.614013671875,85.43399810791016)"><path fill="rgb(249,206,130)" fill-opacity="1" d=" M-99.46199798583984,-80.70099639892578 C-99.46199798583984,-80.70099639892578 -227.37100219726562,-85.18399810791016 -247.68600463867188,-38.641998291015625 C-257.364013671875,-16.468000411987305 -254.20199584960938,13.222999572753906 -222.8730010986328,39.8849983215332 C-196.50999450683594,62.321998596191406 -154.71299743652344,69.50499725341797 -118.97000122070312,75.94400024414062 C-34.45199966430664,91.16899871826172 190.26499938964844,75.20600128173828 223.7550048828125,60.71900177001953 C257.09698486328125,46.29600143432617 274.48199462890625,-35.79600143432617 197.71800231933594,-59.03300094604492 C144.75900268554688,-75.06500244140625 102.81400299072266,-62.45899963378906 66.3499984741211,-70.27100372314453 C22.929000854492188,-79.5739974975586 -99.46199798583984,-80.70099639892578 -99.46199798583984,-80.70099639892578z"></path></g></g><g style="display: block;" transform="matrix(1,0,0,1,-30.7449951171875,-26.951995849609375)" opacity="1"><g opacity="1" transform="matrix(1,0,0,1,110.78700256347656,438.8760070800781)"><path fill="rgb(216,149,15)" fill-opacity="1" d=" M67.37999725341797,2.4040000438690186 C67.37999725341797,12.600000381469727 33.0880012512207,18.43000030517578 -1.5080000162124634,18.43000030517578 C-36.104000091552734,18.43000030517578 -67.37999725341797,13.163999557495117 -67.37999725341797,2.9679999351501465 C-67.37999725341797,-7.228000164031982 -37.917999267578125,-18.43000030517578 -3.322000026702881,-18.43000030517578 C31.27400016784668,-18.43000030517578 67.37999725341797,-7.791999816894531 67.37999725341797,2.4040000438690186z"></path></g><g opacity="1" transform="matrix(1,0,0,1,155.58599853515625,277.7799987792969)"><path fill="rgb(145,96,55)" fill-opacity="1" d=" M-74.15299987792969,161.69700622558594 C-74.15299987792969,161.69700622558594 -76.52999877929688,-5.697000026702881 -17.00200080871582,-88.927001953125 C35.28499984741211,-162.0330047607422 57.32699966430664,-165.69700622558594 57.32699966430664,-165.69700622558594 C57.32699966430664,-165.69700622558594 70.52999877929688,-160.62100219726562 70.52999877929688,-160.62100219726562 C70.52999877929688,-160.62100219726562 -5.517000198364258,-89.5989990234375 -18.756000518798828,31.834999084472656 C-28.610000610351562,122.2229995727539 -16.138999938964844,160.54800415039062 -16.138999938964844,160.54800415039062 C-16.138999938964844,160.54800415039062 -18.976999282836914,165.56900024414062 -47.12200164794922,165.88999938964844 C-59.66400146484375,166.0330047607422 -74.15299987792969,161.69700622558594 -74.15299987792969,161.69700622558594z"></path><path stroke-linecap="round" stroke-linejoin="round" fill-opacity="0" stroke="rgb(102,58,41)" stroke-opacity="1" stroke-width="12.195" d=" M-74.15299987792969,161.69700622558594 C-74.15299987792969,161.69700622558594 -76.52999877929688,-5.697000026702881 -17.00200080871582,-88.927001953125 C35.28499984741211,-162.0330047607422 57.32699966430664,-165.69700622558594 57.32699966430664,-165.69700622558594 C57.32699966430664,-165.69700622558594 70.52999877929688,-160.62100219726562 70.52999877929688,-160.62100219726562 C70.52999877929688,-160.62100219726562 -5.517000198364258,-89.5989990234375 -18.756000518798828,31.834999084472656 C-28.610000610351562,122.2229995727539 -16.138999938964844,160.54800415039062 -16.138999938964844,160.54800415039062 C-16.138999938964844,160.54800415039062 -18.976999282836914,165.56900024414062 -47.12200164794922,165.88999938964844 C-59.66400146484375,166.0330047607422 -74.15299987792969,161.69700622558594 -74.15299987792969,161.69700622558594z"></path></g><g opacity="1" transform="matrix(0.9964884519577026,0.08373001962900162,-0.08373001962900162,0.9964884519577026,292.1068115234375,203.5457763671875)"><path fill="rgb(20,137,14)" fill-opacity="1" d=" M-74.58300018310547,-83.04499816894531 C-74.58300018310547,-83.04499816894531 -73.3030014038086,-62.96200180053711 -67.13400268554688,-35.32099914550781 C-65.02300262451172,-25.86199951171875 -49.84000015258789,-14.869999885559082 -46.43899917602539,-5.085999965667725 C-42.93899917602539,4.984000205993652 -44.17900085449219,17.33300018310547 -39.000999450683594,26.152000427246094 C-14.093000411987305,68.572998046875 -5.211999893188477,97.02300262451172 -5.211999893188477,97.02300262451172 C-5.211999893188477,97.02300262451172 45.08300018310547,106.20500183105469 45.08300018310547,106.20500183105469 C45.08300018310547,106.20500183105469 64.84400177001953,41.185001373291016 59.61000061035156,13.388999938964844 C57.529998779296875,2.3450000286102295 40.04899978637695,-9.89799976348877 32.992000579833984,-15.152000427246094 C24.731000900268555,-21.30299949645996 24.073999404907227,-32.090999603271484 15.388999938964844,-42.551998138427734 C4.61299991607666,-55.53200149536133 -5.164000034332275,-60.737998962402344 -20.67799949645996,-67.27300262451172 C-40.42599868774414,-75.59100341796875 -52.42599868774414,-79.59100341796875 -64.66400146484375,-84.06500244140625 C-71.94999694824219,-86.72899627685547 -74.58300018310547,-83.04499816894531 -74.58300018310547,-83.04499816894531z"></path><path stroke-linecap="round" stroke-linejoin="round" fill-opacity="0" stroke="rgb(41,104,12)" stroke-opacity="1" stroke-width="9.735" d=" M-74.58300018310547,-83.04499816894531 C-74.58300018310547,-83.04499816894531 -73.3030014038086,-62.96200180053711 -67.13400268554688,-35.32099914550781 C-65.02300262451172,-25.86199951171875 -49.84000015258789,-14.869999885559082 -46.43899917602539,-5.085999965667725 C-42.93899917602539,4.984000205993652 -44.17900085449219,17.33300018310547 -39.000999450683594,26.152000427246094 C-14.093000411987305,68.572998046875 -5.211999893188477,97.02300262451172 -5.211999893188477,97.02300262451172 C-5.211999893188477,97.02300262451172 45.08300018310547,106.20500183105469 45.08300018310547,106.20500183105469 C45.08300018310547,106.20500183105469 64.84400177001953,41.185001373291016 59.61000061035156,13.388999938964844 C57.529998779296875,2.3450000286102295 40.04899978637695,-9.89799976348877 32.992000579833984,-15.152000427246094 C24.731000900268555,-21.30299949645996 24.073999404907227,-32.090999603271484 15.388999938964844,-42.551998138427734 C4.61299991607666,-55.53200149536133 -5.164000034332275,-60.737998962402344 -20.67799949645996,-67.27300262451172 C-40.42599868774414,-75.59100341796875 -52.42599868774414,-79.59100341796875 -64.66400146484375,-84.06500244140625 C-71.94999694824219,-86.72899627685547 -74.58300018310547,-83.04499816894531 -74.58300018310547,-83.04499816894531z"></path></g><g opacity="1" transform="matrix(1,0,0,1,0,0)"><g opacity="1" transform="matrix(1,0,0,1,337.2760009765625,75.03700256347656)"><path fill="rgb(20,137,14)" fill-opacity="1" d=" M-108.26399993896484,34.349998474121094 C-108.26399993896484,34.349998474121094 -87.53399658203125,-34.334999084472656 -3.5920000076293945,-41.944000244140625 C93.00499725341797,-50.70000076293945 130.3679962158203,13.251999855041504 127.10800170898438,19.906999588012695 C124.31500244140625,25.608999252319336 104.91699981689453,18.12299919128418 85.24199676513672,10.635000228881836 C80.1259994506836,8.687999725341797 73.06600189208984,16.583999633789062 64.91799926757812,15.439000129699707 C57.95199966430664,14.460000038146973 47.70399856567383,7.453999996185303 39.452999114990234,8.928999900817871 C24.854000091552734,11.538999557495117 22.854000091552734,17.14900016784668 15.883999824523926,17.691999435424805 C3.9579999446868896,18.621000289916992 10.170000076293945,18.45599937438965 -12.142000198364258,12.281000137329102 C-15.329000473022461,11.39900016784668 -27.423999786376953,10.487000465393066 -40.055999755859375,16.215999603271484 C-52.6879997253418,21.944000244140625 -58.992000579833984,29.90999984741211 -68.10700225830078,32.6349983215332 C-77.2229995727539,35.361000061035156 -104.97699737548828,40.23699951171875 -110.84500122070312,39.064998626708984 C-116.71299743652344,37.893001556396484 -108.26399993896484,34.349998474121094 -108.26399993896484,34.349998474121094z"></path><path stroke-linecap="round" stroke-linejoin="round" fill-opacity="0" stroke="rgb(41,104,12)" stroke-opacity="1" stroke-width="9.735" d=" M-108.26399993896484,34.349998474121094 C-108.26399993896484,34.349998474121094 -87.53399658203125,-34.334999084472656 -3.5920000076293945,-41.944000244140625 C93.00499725341797,-50.70000076293945 130.3679962158203,13.251999855041504 127.10800170898438,19.906999588012695 C124.31500244140625,25.608999252319336 104.91699981689453,18.12299919128418 85.24199676513672,10.635000228881836 C80.1259994506836,8.687999725341797 73.06600189208984,16.583999633789062 64.91799926757812,15.439000129699707 C57.95199966430664,14.460000038146973 47.70399856567383,7.453999996185303 39.452999114990234,8.928999900817871 C24.854000091552734,11.538999557495117 22.854000091552734,17.14900016784668 15.883999824523926,17.691999435424805 C3.9579999446868896,18.621000289916992 10.170000076293945,18.45599937438965 -12.142000198364258,12.281000137329102 C-15.329000473022461,11.39900016784668 -27.423999786376953,10.487000465393066 -40.055999755859375,16.215999603271484 C-52.6879997253418,21.944000244140625 -58.992000579833984,29.90999984741211 -68.10700225830078,32.6349983215332 C-77.2229995727539,35.361000061035156 -104.97699737548828,40.23699951171875 -110.84500122070312,39.064998626708984 C-116.71299743652344,37.893001556396484 -108.26399993896484,34.349998474121094 -108.26399993896484,34.349998474121094z"></path></g><g opacity="1" transform="matrix(1,0,0,1,355.3340148925781,65.2750015258789)"><path stroke-linecap="round" stroke-linejoin="round" fill-opacity="0" stroke="rgb(81,170,23)" stroke-opacity="1" stroke-width="10.785" d=" M-68.51200103759766,-3.0959999561309814 C-68.51200103759766,-3.0959999561309814 -39.21500015258789,-21.54599952697754 9.803999900817871,-17.320999145507812 C56.27899932861328,-13.314000129699707 76.51100158691406,8.545999526977539 76.51100158691406,8.545999526977539"></path></g></g><g opacity="1" transform="matrix(0.9979257583618164,0.06437555700540543,-0.06437555700540543,0.9979257583618164,232.30503845214844,69.40048217773438)"><path fill="rgb(20,137,14)" fill-opacity="1" d=" M-9.079000473022461,32.3489990234375 C-9.079000473022461,32.3489990234375 -14.29800033569336,19.052000045776367 -21.35700035095215,3.703000068664551 C-28.875,-12.642000198364258 -42.55699920654297,-29.555999755859375 -35.369998931884766,-31.8799991607666 C-21.434999465942383,-36.3849983215332 42.555999755859375,-31.113000869750977 38.43600082397461,-19.233999252319336 C37.43899917602539,-16.35700035095215 28.41900062561035,-7.526000022888184 16.43000030517578,4.609000205993652 C3.430000066757202,17.768999099731445 -4.502999782562256,36.3849983215332 -4.502999782562256,36.3849983215332 C-4.502999782562256,36.3849983215332 -9.079000473022461,32.3489990234375 -9.079000473022461,32.3489990234375z"></path><path stroke-linecap="round" stroke-linejoin="round" fill-opacity="0" stroke="rgb(41,104,12)" stroke-opacity="1" stroke-width="9.735" d=" M-9.079000473022461,32.3489990234375 C-9.079000473022461,32.3489990234375 -14.29800033569336,19.052000045776367 -21.35700035095215,3.703000068664551 C-28.875,-12.642000198364258 -42.55699920654297,-29.555999755859375 -35.369998931884766,-31.8799991607666 C-21.434999465942383,-36.3849983215332 42.555999755859375,-31.113000869750977 38.43600082397461,-19.233999252319336 C37.43899917602539,-16.35700035095215 28.41900062561035,-7.526000022888184 16.43000030517578,4.609000205993652 C3.430000066757202,17.768999099731445 -4.502999782562256,36.3849983215332 -4.502999782562256,36.3849983215332 C-4.502999782562256,36.3849983215332 -9.079000473022461,32.3489990234375 -9.079000473022461,32.3489990234375z"></path></g><g opacity="1" transform="matrix(1.0075757503509521,0.037139829248189926,-0.03683556616306305,0.9993213415145874,1.9522705078125,-7.9089508056640625)"><g opacity="1" transform="matrix(1,0,0,1,127.88800048828125,94.23100280761719)"><path fill="rgb(20,137,14)" fill-opacity="1" d=" M98.56999969482422,14.6899995803833 C98.56999969482422,14.6899995803833 81.16000366210938,-29.39699935913086 38.737998962402344,-43.53799819946289 C-4.5320000648498535,-57.96099853515625 -41.90399932861328,-47.37200164794922 -58.21799850463867,-31.517000198364258 C-98.56900024414062,7.697999954223633 -89.30999755859375,56.9109992980957 -84.66100311279297,57.426998138427734 C-79.85299682617188,57.96099853515625 -72.56700134277344,44.512001037597656 -63.29399871826172,27.511999130249023 C-58.486000061035156,18.697999954223633 -54.2130012512207,10.416000366210938 -47.268001556396484,5.609000205993652 C-42.86600112915039,2.561000108718872 -32.845001220703125,0 -26.43400001525879,0 C-20.865999221801758,0 -8.270000457763672,6.144000053405762 3.4820001125335693,3.4730000495910645 C15.994000434875488,0.6290000081062317 18.506000518798828,-8.355999946594238 31.260000228881836,-5.3420000076293945 C45.95000076293945,-1.86899995803833 51.92900085449219,8.63599967956543 58.505001068115234,11.486000061035156 C74.53099822998047,18.43000030517578 96.96600341796875,22.16900062561035 96.96600341796875,22.16900062561035 C96.96600341796875,22.16900062561035 98.56999969482422,14.6899995803833 98.56999969482422,14.6899995803833z"></path><path stroke-linecap="round" stroke-linejoin="round" fill-opacity="0" stroke="rgb(41,104,12)" stroke-opacity="1" stroke-width="9.735" d=" M98.56999969482422,14.6899995803833 C98.56999969482422,14.6899995803833 81.16000366210938,-29.39699935913086 38.737998962402344,-43.53799819946289 C-4.5320000648498535,-57.96099853515625 -41.90399932861328,-47.37200164794922 -58.21799850463867,-31.517000198364258 C-98.56900024414062,7.697999954223633 -89.30999755859375,56.9109992980957 -84.66100311279297,57.426998138427734 C-79.85299682617188,57.96099853515625 -72.56700134277344,44.512001037597656 -63.29399871826172,27.511999130249023 C-58.486000061035156,18.697999954223633 -54.2130012512207,10.416000366210938 -47.268001556396484,5.609000205993652 C-42.86600112915039,2.561000108718872 -32.845001220703125,0 -26.43400001525879,0 C-20.865999221801758,0 -8.270000457763672,6.144000053405762 3.4820001125335693,3.4730000495910645 C15.994000434875488,0.6290000081062317 18.506000518798828,-8.355999946594238 31.260000228881836,-5.3420000076293945 C45.95000076293945,-1.86899995803833 51.92900085449219,8.63599967956543 58.505001068115234,11.486000061035156 C74.53099822998047,18.43000030517578 96.96600341796875,22.16900062561035 96.96600341796875,22.16900062561035 C96.96600341796875,22.16900062561035 98.56999969482422,14.6899995803833 98.56999969482422,14.6899995803833z"></path></g><g opacity="1" transform="matrix(1,0,0,1,138.12600708007812,59.22999954223633)"><path stroke-linecap="round" stroke-linejoin="round" fill-opacity="0" stroke="rgb(75,163,19)" stroke-opacity="1" stroke-width="10.785" d=" M-40.4109992980957,3.4830000400543213 C-40.4109992980957,3.4830000400543213 -3.180000066757202,-13.07699966430664 40.40999984741211,13.07699966430664"></path></g></g><g opacity="1" transform="matrix(0.9989330172538757,0.046182431280612946,-0.046182431280612946,0.9989330172538757,5.465911865234375,-10.025413513183594)"><g opacity="1" transform="matrix(1,0,0,1,123.61699676513672,206.05299377441406)"><path fill="rgb(32,142,16)" fill-opacity="1" d=" M99.10099792480469,-94.99500274658203 C99.10099792480469,-94.99500274658203 -19.90999984741211,-119.35600280761719 -63.98099899291992,-27.20599937438965 C-97.38300323486328,42.6349983215332 -74.78399658203125,115.0469970703125 -65.40299987792969,104.80999755859375 C-59.77299880981445,98.66600036621094 -49.04999923706055,84.53199768066406 -49.04999923706055,73.99099731445312 C-49.04999923706055,61.16999816894531 -51.49399948120117,43.24100112915039 -36.595001220703125,33.30799865722656 C-26.979999542236328,26.898000717163086 -9.862000465393066,21.783000946044922 -7.382999897003174,-0.5299999713897705 C-5.959000110626221,-13.35099983215332 1.4019999504089355,-23.764999389648438 4.818999767303467,-27.486000061035156 C20.844999313354492,-44.9370002746582 24.990999221801758,-41.81399917602539 34.28499984741211,-44.60200119018555 C42.29800033569336,-47.00600051879883 47.821998596191406,-55.75899887084961 62.33000183105469,-68.64099884033203 C80.86100006103516,-85.09400177001953 99.27899932861328,-86.2699966430664 99.27899932861328,-86.2699966430664 C99.27899932861328,-86.2699966430664 99.10099792480469,-94.99500274658203 99.10099792480469,-94.99500274658203z"></path><path stroke-linecap="round" stroke-linejoin="round" fill-opacity="0" stroke="rgb(41,104,12)" stroke-opacity="1" stroke-width="9.735" d=" M99.10099792480469,-94.99500274658203 C99.10099792480469,-94.99500274658203 -19.90999984741211,-119.35600280761719 -63.98099899291992,-27.20599937438965 C-97.38300323486328,42.6349983215332 -74.78399658203125,115.0469970703125 -65.40299987792969,104.80999755859375 C-59.77299880981445,98.66600036621094 -49.04999923706055,84.53199768066406 -49.04999923706055,73.99099731445312 C-49.04999923706055,61.16999816894531 -51.49399948120117,43.24100112915039 -36.595001220703125,33.30799865722656 C-26.979999542236328,26.898000717163086 -9.862000465393066,21.783000946044922 -7.382999897003174,-0.5299999713897705 C-5.959000110626221,-13.35099983215332 1.4019999504089355,-23.764999389648438 4.818999767303467,-27.486000061035156 C20.844999313354492,-44.9370002746582 24.990999221801758,-41.81399917602539 34.28499984741211,-44.60200119018555 C42.29800033569336,-47.00600051879883 47.821998596191406,-55.75899887084961 62.33000183105469,-68.64099884033203 C80.86100006103516,-85.09400177001953 99.27899932861328,-86.2699966430664 99.27899932861328,-86.2699966430664 C99.27899932861328,-86.2699966430664 99.10099792480469,-94.99500274658203 99.10099792480469,-94.99500274658203z"></path></g><g opacity="1" transform="matrix(1,0,0,1,114.80999755859375,163.677001953125)"><path stroke-linecap="round" stroke-linejoin="round" fill-opacity="0" stroke="rgb(85,186,19)" stroke-opacity="1" stroke-width="13.726" d=" M-48.612998962402344,37.39400100708008 C-48.612998962402344,37.39400100708008 -40.74800109863281,3.2769999504089355 -3.740000009536743,-19.766000747680664 C24.572999954223633,-37.39400100708008 48.612998962402344,-37.39400100708008 48.612998962402344,-37.39400100708008"></path></g></g><g opacity="0.47000000000000003" transform="matrix(1,0,0,1,136.92599487304688,227.14300537109375)"><path stroke-linecap="round" stroke-linejoin="round" fill-opacity="0" stroke="rgb(94,51,39)" stroke-opacity="1" stroke-width="11.534" d=" M19.902000427246094,-8.642000198364258 C19.902000427246094,-8.642000198364258 2.0950000286102295,1.309999942779541 -6.284999847412109,4.452000141143799 C-14.663999557495117,7.59499979019165 -19.902000427246094,8.642000198364258 -19.902000427246094,8.642000198364258"></path></g><g opacity="0.51" transform="matrix(1,0,0,1,125.61900329589844,300.67401123046875)"><path stroke-linecap="round" stroke-linejoin="round" fill-opacity="0" stroke="rgb(94,51,39)" stroke-opacity="1" stroke-width="11.534" d=" M-18.926000595092773,-19.069000244140625 C-18.926000595092773,-19.069000244140625 -15.118000030517578,-6.88100004196167 -6.215000152587891,2.0230000019073486 C2.687999963760376,10.925999641418457 7.926000118255615,15.069000244140625 7.926000118255615,15.069000244140625"></path></g><g opacity="0.52" transform="matrix(1,0,0,1,115.7040023803711,377.97198486328125)"><path stroke-linecap="round" stroke-linejoin="round" fill-opacity="0" stroke="rgb(94,51,39)" stroke-opacity="1" stroke-width="11.148" d=" M18.524999618530273,-12.069000244140625 C18.524999618530273,-12.069000244140625 6.718999862670898,1.0729999542236328 -5.510000228881836,10.5 C-17.739999771118164,19.927000045776367 -27.524999618530273,22.06800079345703 -27.524999618530273,22.06800079345703"></path></g><g opacity="0.68" transform="matrix(1,0,0,1,0,0)"><path stroke-linecap="round" stroke-linejoin="round" fill-opacity="0" stroke="rgb(41,104,12)" stroke-opacity="1" stroke-width="9.735" d=" M246.74400329589844,137.45199584960938 C246.74400329589844,137.45199584960938 282.7439880371094,176.45199584960938 296.2439880371094,204.45199584960938 C309.7439880371094,232.45199584960938 308.7439880371094,284.4519958496094 308.7439880371094,284.4519958496094"></path></g></g><g style="display: block;" transform="matrix(1,0,0,1,68.05599975585938,199.0590057373047)" opacity="1"><g opacity="1" transform="matrix(1,0,0,1,228.53500366210938,148.3800048828125)"><path fill="rgb(227,0,54)" fill-opacity="1" d=" M34.22200012207031,38.481998443603516 C34.22200012207031,38.481998443603516 -146.2050018310547,43.077999114990234 -157.43899536132812,47.16299819946289 C-168.67300415039062,51.24800109863281 -140.82699584960938,68.40399932861328 -128.7270050048828,80.0989990234375 C-108.59100341796875,99.56099700927734 -33.54199981689453,155.4810028076172 -17.111000061035156,156.5760040283203 C12.019000053405762,158.51800537109375 204.40899658203125,150.56100463867188 208.67300415039062,136.5919952392578 C211.79800415039062,126.35399627685547 103.6780014038086,51.6619987487793 103.6780014038086,51.6619987487793 C103.6780014038086,51.6619987487793 34.22200012207031,38.481998443603516 34.22200012207031,38.481998443603516z"></path><path stroke-linecap="round" stroke-linejoin="round" fill-opacity="0" stroke="rgb(163,13,34)" stroke-opacity="1" stroke-width="12.745" d=" M34.22200012207031,38.481998443603516 C34.22200012207031,38.481998443603516 -146.2050018310547,43.077999114990234 -157.43899536132812,47.16299819946289 C-168.67300415039062,51.24800109863281 -140.82699584960938,68.40399932861328 -128.7270050048828,80.0989990234375 C-108.59100341796875,99.56099700927734 -33.54199981689453,155.4810028076172 -17.111000061035156,156.5760040283203 C12.019000053405762,158.51800537109375 204.40899658203125,150.56100463867188 208.67300415039062,136.5919952392578 C211.79800415039062,126.35399627685547 103.6780014038086,51.6619987487793 103.6780014038086,51.6619987487793 C103.6780014038086,51.6619987487793 34.22200012207031,38.481998443603516 34.22200012207031,38.481998443603516z"></path></g></g><g style="display: block;" transform="matrix(1,0,0,1,191.95498657226562,381.95501708984375)" opacity="1"><g opacity="0.8300000000000001" transform="matrix(0.9979815483093262,-0.0635046735405922,0.0635046735405922,0.9979815483093262,118.2020034790039,52.79399871826172)"><path fill="rgb(166,6,45)" fill-opacity="1" d=" M-64.41300201416016,-20.49799919128418 C-64.41300201416016,-20.49799919128418 -146.79100036621094,-16.739999771118164 -118.0770034790039,6.872000217437744 C-98.95899963378906,22.5939998626709 16.118000030517578,54.683998107910156 115.5999984741211,41.0260009765625 C185.468994140625,31.43400001525879 103.95899963378906,6.349999904632568 83.85900115966797,1.184000015258789 C63.7599983215332,-3.9809999465942383 -64.41300201416016,-20.49799919128418 -64.41300201416016,-20.49799919128418z"></path></g></g><g style="display: block;" transform="matrix(1.048449993133545,0,0,0.8926200270652771,115.39852905273438,128.82821655273438)" opacity="1"><g opacity="1" transform="matrix(1,0,0,1,0,0)"><g opacity="1" transform="matrix(1,0,0,1,194.10699462890625,203.9969940185547)"><path fill="rgb(229,150,115)" fill-opacity="1" d=" M23.76099967956543,170.26699829101562 C-2.5450000762939453,173.9969940185547 -47.37099838256836,171.2469940185547 -84.9489974975586,151.39100646972656 C-142.55299377441406,120.95500183105469 -156.28900146484375,55.35200119018555 -159.79100036621094,9.840999603271484 C-164.10699462890625,-46.24300003051758 -138.32899475097656,-82.05500030517578 -121.80799865722656,-107.46099853515625 C-105.28800201416016,-132.86700439453125 -67.375,-155.7469940185547 -36.72999954223633,-163.02499389648438 C-6.085000038146973,-170.302001953125 21.951000213623047,-173.9969940185547 57.84299850463867,-141.875 C93.73600006103516,-109.75199890136719 117.4260025024414,-63.106998443603516 131.99000549316406,-35.78499984741211 C146.9949951171875,-7.636000156402588 164.10699462890625,29.6299991607666 143.37399291992188,83.56700134277344 C116.75499725341797,152.81300354003906 64.16400146484375,164.53700256347656 23.76099967956543,170.26699829101562z"></path><path stroke-linecap="butt" stroke-linejoin="miter" fill-opacity="0" stroke-miterlimit="10" stroke="rgb(173,92,37)" stroke-opacity="1" stroke-width="12" d=" M23.76099967956543,170.26699829101562 C-2.5450000762939453,173.9969940185547 -47.37099838256836,171.2469940185547 -84.9489974975586,151.39100646972656 C-142.55299377441406,120.95500183105469 -156.28900146484375,55.35200119018555 -159.79100036621094,9.840999603271484 C-164.10699462890625,-46.24300003051758 -138.32899475097656,-82.05500030517578 -121.80799865722656,-107.46099853515625 C-105.28800201416016,-132.86700439453125 -67.375,-155.7469940185547 -36.72999954223633,-163.02499389648438 C-6.085000038146973,-170.302001953125 21.951000213623047,-173.9969940185547 57.84299850463867,-141.875 C93.73600006103516,-109.75199890136719 117.4260025024414,-63.106998443603516 131.99000549316406,-35.78499984741211 C146.9949951171875,-7.636000156402588 164.10699462890625,29.6299991607666 143.37399291992188,83.56700134277344 C116.75499725341797,152.81300354003906 64.16400146484375,164.53700256347656 23.76099967956543,170.26699829101562z"></path></g><g opacity="1" transform="matrix(1,0,0,1,200.27200317382812,189.177001953125)"><path fill="url(#__lottie_element_12)" fill-opacity="1" d=" M26.024999618530273,150.36099243164062 C2.7090001106262207,153.6529998779297 -42.268001556396484,151.0019989013672 -75.65399932861328,132.9219970703125 C-126.83200073242188,105.20800018310547 -138.09100341796875,55.46900177001953 -141.33999633789062,14.289999961853027 C-145.34300231933594,-36.45600128173828 -131.0019989013672,-63.5989990234375 -116.43199920654297,-86.52799987792969 C-101.86199951171875,-109.45800018310547 -75.97799682617188,-129.85699462890625 -48.82600021362305,-136.343994140625 C-21.67300033569336,-142.83099365234375 15.319000244140625,-153.6529998779297 47.249000549316406,-124.48300170898438 C79.17900085449219,-95.31300354003906 96.63500213623047,-53.755001068115234 109.63700103759766,-28.993999481201172 C123.03099822998047,-3.4839999675750732 145.34300231933594,32.935001373291016 126.16899871826172,81.29100036621094 C105.1760025024414,134.23800659179688 61.83599853515625,145.30499267578125 26.024999618530273,150.36099243164062z"></path></g></g><g opacity="0" transform="matrix(1,0,0,1,0,0)"><path fill="rgb(175,94,40)" fill-opacity="1" d=" M234.71200561523438,369.8819885253906 C219.76400756835938,370.9849853515625 214.60899353027344,375.3949890136719 214.60899353027344,375.3949890136719 C214.60899353027344,375.3949890136719 223.88699340820312,378.7030029296875 234.71200561523438,379.8059997558594 C245.53700256347656,380.90899658203125 256.8760070800781,375.3949890136719 263.06201171875,373.19000244140625 C269.24798583984375,370.9849853515625 249.66000366210938,368.77899169921875 234.71200561523438,369.8819885253906z"></path></g></g><g style="display: none;"><g><g><path></path></g><g><path></path></g><g><path stroke-linecap="round" stroke-linejoin="round" fill-opacity="0"></path></g></g><g><g><path></path></g><path></path></g><g><path></path></g><g><path stroke-linecap="round" stroke-linejoin="round" fill-opacity="0"></path></g></g><g style="display: block;" transform="matrix(1.0233234167099,0.016043929383158684,-0.01866007223725319,0.8626870512962341,150.70986938476562,127.9809799194336)" opacity="1"><g opacity="1" transform="matrix(1,0,0,1,74.48100280761719,89.00399780273438)"><path fill="rgb(229,150,115)" fill-opacity="1" d=" M-43.48699951171875,21.586000442504883 C-43.48699951171875,21.586000442504883 -26.14699935913086,-8.883999824523926 -4.439000129699707,-20.86199951171875 C8.178000450134277,-27.823999404907227 29.163000106811523,-32.4630012512207 30.03700065612793,-25.863000869750977 C30.98900032043457,-18.67300033569336 17.18199920654297,-14.628999710083008 0.16500000655651093,1.090999960899353 C-11.88599967956543,12.223999977111816 -34.757999420166016,37.03099822998047 -37.93199920654297,36.20000076293945 C-47.361000061035156,33.72999954223633 -43.48699951171875,21.586000442504883 -43.48699951171875,21.586000442504883z"></path></g><g opacity="1" transform="matrix(1,0,0,1,177.49000549316406,42.6609992980957)"><path fill="rgb(229,150,115)" fill-opacity="1" d=" M-35.28799819946289,6.216000080108643 C-34.82400131225586,7.814000129699707 -33.34400177001953,8.949999809265137 -31.56399917602539,9.055999755859375 C-25.107999801635742,9.439000129699707 -8.071999549865723,10.508000373840332 8.229999542236328,8.652000427246094 C28.464000701904297,6.3480000495910645 35.861000061035156,5.584000110626221 34.770999908447266,1.9769999980926514 C33.68000030517578,-1.63100004196167 25,-7.377999782562256 23.89900016784668,-8.942999839782715 C22.798999786376953,-10.508000373840332 15.963000297546387,-6.374000072479248 2.878999948501587,-3.740999937057495 C-15.559000015258789,-0.028999999165534973 -30.950000762939453,-3.127000093460083 -32.816001892089844,-0.6650000214576721 C-35.027000427246094,2.250999927520752 -35.861000061035156,4.242000102996826 -35.28799819946289,6.216000080108643z"></path></g><g opacity="1" transform="matrix(1,0,0,1,61.70800018310547,83.65399932861328)"><path fill="rgb(81,36,14)" fill-opacity="1" d=" M-36.87799835205078,25.003000259399414 C-36.87799835205078,25.003000259399414 -32.409000396728516,-9.706999778747559 -8.480999946594238,-22.90999984741211 C5.427000045776367,-30.583999633789062 35.32500076293945,-35.86899948120117 36.71500015258789,-28.663000106811523 C37.74399948120117,-23.32900047302246 15.35200023651123,-16.038999557495117 -3.4040000438690186,1.2879999876022339 C-16.687999725341797,13.559000015258789 -30.72599983215332,35.86899948120117 -34.23500061035156,34.99100112915039 C-37.74399948120117,34.11199951171875 -36.87799835205078,25.003000259399414 -36.87799835205078,25.003000259399414z"></path><path stroke-linecap="round" stroke-linejoin="round" fill-opacity="0" stroke="rgb(48,33,27)" stroke-opacity="1" stroke-width="9.586" d=" M-36.87799835205078,25.003000259399414 C-36.87799835205078,25.003000259399414 -32.409000396728516,-9.706999778747559 -8.480999946594238,-22.90999984741211 C5.427000045776367,-30.583999633789062 35.32500076293945,-35.86899948120117 36.71500015258789,-28.663000106811523 C37.74399948120117,-23.32900047302246 15.35200023651123,-16.038999557495117 -3.4040000438690186,1.2879999876022339 C-16.687999725341797,13.559000015258789 -30.72599983215332,35.86899948120117 -34.23500061035156,34.99100112915039 C-37.74399948120117,34.11199951171875 -36.87799835205078,25.003000259399414 -36.87799835205078,25.003000259399414z"></path></g><g opacity="1" transform="matrix(1,0,0,1,181.98599243164062,30.503000259399414)"><path fill="rgb(81,36,14)" fill-opacity="1" d=" M-36.04399871826172,6.38700008392334 C-35.57400131225586,8.003999710083008 -34.06399917602539,9.149999618530273 -32.24700164794922,9.253000259399414 C-25.65399932861328,9.626999855041504 -8.256999969482422,10.670999526977539 8.39799976348877,8.756999969482422 C29.069000244140625,6.380000114440918 36.625999450683594,5.590000152587891 35.52000045776367,1.940999984741211 C34.41400146484375,-1.7089999914169312 25.56100082397461,-7.506999969482422 24.44099998474121,-9.08899974822998 C23.31999969482422,-10.670999526977539 16.32900047302246,-6.4720001220703125 2.9600000381469727,-3.7769999504089355 C-15.880000114440918,0.019999999552965164 -31.593000411987305,-3.0820000171661377 -33.505001068115234,-0.5849999785423279 C-35.76900100708008,2.371000051498413 -36.625,4.389999866485596 -36.04399871826172,6.38700008392334z"></path><path stroke-linecap="round" stroke-linejoin="round" fill-opacity="0" stroke="rgb(48,33,27)" stroke-opacity="1" stroke-width="7.933" d=" M-36.04399871826172,6.38700008392334 C-35.57400131225586,8.003999710083008 -34.06399917602539,9.149999618530273 -32.24700164794922,9.253000259399414 C-25.65399932861328,9.626999855041504 -8.256999969482422,10.670999526977539 8.39799976348877,8.756999969482422 C29.069000244140625,6.380000114440918 36.625999450683594,5.590000152587891 35.52000045776367,1.940999984741211 C34.41400146484375,-1.7089999914169312 25.56100082397461,-7.506999969482422 24.44099998474121,-9.08899974822998 C23.31999969482422,-10.670999526977539 16.32900047302246,-6.4720001220703125 2.9600000381469727,-3.7769999504089355 C-15.880000114440918,0.019999999552965164 -31.593000411987305,-3.0820000171661377 -33.505001068115234,-0.5849999785423279 C-35.76900100708008,2.371000051498413 -36.625,4.389999866485596 -36.04399871826172,6.38700008392334z"></path></g></g><g style="display: block;" transform="matrix(1.0233234167099,0.016043929383158684,-0.01866007223725319,0.8626870512962341,165.35452270507812,142.8872833251953)" opacity="1"><g opacity="1" transform="matrix(1,0,0,1,0,0)"><g opacity="1" transform="matrix(1,0,0,1,207.13400268554688,86.53199768066406)"><path fill="rgb(229,150,115)" fill-opacity="1" d=" M-28.577999114990234,-39.84700012207031 C-39.58399963378906,-32.560001373291016 -52.650001525878906,-11.967000007629395 -48.62699890136719,7.5269999504089355 C-44.604000091552734,27.020000457763672 -22.665000915527344,45.5260009765625 14.005000114440918,37.75199890136719 C50.67599868774414,29.979000091552734 43.981998443603516,3.565000057220459 31.58099937438965,-9.444999694824219 C19.180999755859375,-22.45599937438965 3.828000068664551,-39.231998443603516 -5.830999851226807,-42.37699890136719 C-15.5,-45.5260009765625 -24.038000106811523,-42.85300064086914 -28.577999114990234,-39.84700012207031z"></path></g><g opacity="1" transform="matrix(1,0,0,1,206.7729949951172,76.86299896240234)"><path fill="rgb(224,214,234)" fill-opacity="1" d=" M-27.590999603271484,-39.84700012207031 C-38.59700012207031,-32.560001373291016 -51.66299819946289,-11.965999603271484 -47.63999938964844,7.5269999504089355 C-43.617000579833984,27.020000457763672 -21.67799949645996,45.5260009765625 14.991999626159668,37.75299835205078 C51.66299819946289,29.979000091552734 45.071998596191406,1.8860000371932983 32.67100143432617,-11.12399959564209 C20.270999908447266,-24.135000228881836 4.815000057220459,-39.231998443603516 -4.843999862670898,-42.37699890136719 C-14.512999534606934,-45.5260009765625 -23.051000595092773,-42.85300064086914 -27.590999603271484,-39.84700012207031z"></path><path stroke-linecap="round" stroke-linejoin="round" fill-opacity="0" stroke="rgb(82,98,130)" stroke-opacity="1" stroke-width="8.261" d=" M-27.590999603271484,-39.84700012207031 C-38.59700012207031,-32.560001373291016 -51.66299819946289,-11.965999603271484 -47.63999938964844,7.5269999504089355 C-43.617000579833984,27.020000457763672 -21.67799949645996,45.5260009765625 14.991999626159668,37.75299835205078 C51.66299819946289,29.979000091552734 45.071998596191406,1.8860000371932983 32.67100143432617,-11.12399959564209 C20.270999908447266,-24.135000228881836 4.815000057220459,-39.231998443603516 -4.843999862670898,-42.37699890136719 C-14.512999534606934,-45.5260009765625 -23.051000595092773,-42.85300064086914 -27.590999603271484,-39.84700012207031z"></path></g><g opacity="1" transform="matrix(1,0,0,1,209.44500732421875,69.89399719238281)"><path fill="rgb(255,255,255)" fill-opacity="1" d=" M-22.788000106811523,-33.50600051879883 C-31.724000930786133,-27.45199966430664 -42.262001037597656,-10.23900032043457 -38.86800003051758,6.1479997634887695 C-35.4739990234375,22.535999298095703 -17.47100067138672,38.19900131225586 12.395999908447266,31.88599967956543 C42.26300048828125,25.57200050354004 35.34199905395508,2.055999994277954 25.152000427246094,-8.937000274658203 C14.961000442504883,-19.930999755859375 3.6480000019073486,-32.801998138427734 -4.249000072479248,-35.49800109863281 C-12.154000282287598,-38.198001861572266 -19.101999282836914,-36.00299835205078 -22.788000106811523,-33.50600051879883z"></path></g><g opacity="1" transform="matrix(1,0,0,1,230.6439971923828,74.35099792480469)"><path fill="rgb(11,17,35)" fill-opacity="1" d=" M12.105999946594238,-1.9190000295639038 C13.98799991607666,6.104000091552734 12.057999610900879,12.572999954223633 3.4079999923706055,14.527000427246094 C-5.242000102996826,16.479999542236328 -13.779999732971191,11.560999870300293 -15.661999702453613,3.5390000343322754 C-17.54400062561035,-4.484000205993652 -12.057999610900879,-12.571999549865723 -3.4079999923706055,-14.526000022888184 C5.242000102996826,-16.479999542236328 10.223999977111816,-9.942000389099121 12.105999946594238,-1.9190000295639038z"></path></g><g opacity="1" transform="matrix(1,0,0,1,217.3159942626953,85.177001953125)"><path fill="rgb(255,255,255)" fill-opacity="1" d=" M-13.288999557495117,0.6940000057220459 C-13.288999557495117,0.6940000057220459 4.394000053405762,-8.585000038146973 6.584000110626221,-5.175000190734863 C8.774999618530273,-1.7649999856948853 -3.8980000019073486,8.82800006866455 -5.849999904632568,9.397000312805176 C-7.802000045776367,9.965999603271484 -13.163000106811523,8.996999740600586 -14.270000457763672,6.545000076293945 C-15.37600040435791,4.0920000076293945 -13.288999557495117,0.6940000057220459 -13.288999557495117,0.6940000057220459z"></path></g><g opacity="1" transform="matrix(1,0,0,1,198.91600036621094,62.16299819946289)"><path fill="rgb(255,195,161)" fill-opacity="1" d=" M-36.13199996948242,34.66299819946289 C-36.13199996948242,34.66299819946289 -24.357999801635742,20.23699951171875 5.083000183105469,8.996999740600586 C22.95199966430664,2.1740000247955322 42.01300048828125,3.1619999408721924 42.01300048828125,3.1619999408721924 C42.01300048828125,3.1619999408721924 27.316999435424805,-13.67199993133545 17.982999801635742,-21.424999237060547 C10.050000190734863,-28.013999938964844 -4.790999889373779,-34.66299819946289 -17.343000411987305,-28.23699951171875 C-32.39899826049805,-20.52899932861328 -39.069000244140625,-1.2549999952316284 -40.17900085449219,9.157999992370605 C-42.01300048828125,26.347000122070312 -36.13199996948242,34.66299819946289 -36.13199996948242,34.66299819946289z"></path><path stroke-linecap="round" stroke-linejoin="round" fill-opacity="0" stroke="rgb(181,95,48)" stroke-opacity="1" stroke-width="11" d=" M-36.13199996948242,34.66299819946289 C-36.13199996948242,34.66299819946289 -24.357999801635742,20.23699951171875 5.083000183105469,8.996999740600586 C22.95199966430664,2.1740000247955322 42.01300048828125,3.1619999408721924 42.01300048828125,3.1619999408721924 C42.01300048828125,3.1619999408721924 27.316999435424805,-13.67199993133545 17.982999801635742,-21.424999237060547 C10.050000190734863,-28.013999938964844 -4.790999889373779,-34.66299819946289 -17.343000411987305,-28.23699951171875 C-32.39899826049805,-20.52899932861328 -39.069000244140625,-1.2549999952316284 -40.17900085449219,9.157999992370605 C-42.01300048828125,26.347000122070312 -36.13199996948242,34.66299819946289 -36.13199996948242,34.66299819946289z"></path></g></g><g opacity="1" transform="matrix(1,0,0,1,0,0)"><g opacity="1" transform="matrix(1,0,0,1,81.36799621582031,146.52099609375)"><path fill="rgb(229,150,115)" fill-opacity="1" d=" M-44.058998107910156,-25.881000518798828 C-54.9010009765625,-10.178000450134277 -49.8380012512207,11.98799991607666 -49.79899978637695,12.312000274658203 C-48.80799865722656,20.520000457763672 -44.74800109863281,37.8650016784668 -32.02899932861328,44.17100143432617 C-16.972000122070312,51.63600158691406 5.952000141143799,48.0890007019043 29.874000549316406,24.20800018310547 C53.79499816894531,0.32600000500679016 54.9010009765625,-32.04999923706055 45.98500061035156,-40.071998596191406 C37.069000244140625,-48.09299850463867 9.241999626159668,-51.63600158691406 -14.791000366210938,-44.19200134277344 C-25.239999771118164,-40.95600128173828 -36.4370002746582,-36.91999816894531 -44.058998107910156,-25.881000518798828z"></path></g><g opacity="1" transform="matrix(1,0,0,1,83.9520034790039,134.27000427246094)"><path fill="rgb(224,214,234)" fill-opacity="1" d=" M-38.02299880981445,-26.594999313354492 C-47.814998626708984,-11.133999824523926 -46.047000885009766,11.020000457763672 -46.00600051879883,11.343000411987305 C-44.94900131225586,19.535999298095703 -42.34199905395508,37.189998626708984 -30.44099998474121,43.683998107910156 C-16.35300064086914,51.37200164794922 4.247000217437744,46.566001892089844 26.0310001373291,23.177000045776367 C47.816001892089844,-0.21299999952316284 47.308998107910156,-28.20400047302246 38.90599822998047,-36.34400177001953 C30.503999710083008,-44.483001708984375 7.677000045776367,-51.37200164794922 -14.486000061035156,-44.358001708984375 C-24.121000289916992,-41.308998107910156 -31.138999938964844,-37.4640007019043 -38.02299880981445,-26.594999313354492z"></path><path stroke-linecap="round" stroke-linejoin="round" fill-opacity="0" stroke="rgb(82,98,130)" stroke-opacity="1" stroke-width="9.208" d=" M-38.02299880981445,-26.594999313354492 C-47.814998626708984,-11.133999824523926 -46.047000885009766,11.020000457763672 -46.00600051879883,11.343000411987305 C-44.94900131225586,19.535999298095703 -42.34199905395508,37.189998626708984 -30.44099998474121,43.683998107910156 C-16.35300064086914,51.37200164794922 4.247000217437744,46.566001892089844 26.0310001373291,23.177000045776367 C47.816001892089844,-0.21299999952316284 47.308998107910156,-28.20400047302246 38.90599822998047,-36.34400177001953 C30.503999710083008,-44.483001708984375 7.677000045776367,-51.37200164794922 -14.486000061035156,-44.358001708984375 C-24.121000289916992,-41.308998107910156 -31.138999938964844,-37.4640007019043 -38.02299880981445,-26.594999313354492z"></path></g><g opacity="1" transform="matrix(1,0,0,1,84.37200164794922,130.58799743652344)"><path fill="rgb(255,255,255)" fill-opacity="1" d=" M-30.371000289916992,-20.23200035095215 C-38.356998443603516,-8.23900032043457 -37.11199951171875,8.821000099182129 -37.08100128173828,9.069999694824219 C-36.29800033569336,15.37600040435791 -34.340999603271484,28.961000442504883 -24.834999084472656,33.87200164794922 C-13.581999778747559,39.6870002746582 3,35.82099914550781 20.679000854492188,17.62299919128418 C38.358001708984375,-0.574999988079071 38.172000885009766,-22.143999099731445 31.488000869750977,-28.35099983215332 C24.804000854492188,-34.55799865722656 6.526000022888184,-39.6870002746582 -11.32800006866455,-34.106998443603516 C-19.090999603271484,-31.680999755859375 -24.756999969482422,-28.663000106811523 -30.371000289916992,-20.23200035095215z"></path></g><g opacity="1" transform="matrix(1,0,0,1,72.15499877929688,135.78900146484375)"><path fill="rgb(11,17,35)" fill-opacity="1" d=" M18.493999481201172,-4.177000045776367 C20.715999603271484,5.296000003814697 14.237000465393066,14.845999717712402 4.0229997634887695,17.152999877929688 C-6.190000057220459,19.459999084472656 -16.270000457763672,13.651000022888184 -18.493000030517578,4.177999973297119 C-20.71500015258789,-5.296000003814697 -14.23799991607666,-14.845000267028809 -4.02400016784668,-17.152000427246094 C6.189000129699707,-19.459999084472656 16.27199935913086,-13.649999618530273 18.493999481201172,-4.177000045776367z"></path></g><g opacity="1" transform="matrix(1,0,0,1,60.4119987487793,148.0919952392578)"><path fill="rgb(255,255,255)" fill-opacity="1" d=" M-9.711999893188477,-0.23399999737739563 C-9.711999893188477,-0.23399999737739563 7.004000186920166,-10.71500015258789 9.59000015258789,-6.688000202178955 C12.177000045776367,-2.6619999408721924 1.3769999742507935,9.369999885559082 -0.9279999732971191,10.041999816894531 C-3.2330000400543213,10.71399974822998 -9.564000129699707,9.569999694824219 -10.869999885559082,6.673999786376953 C-12.177000045776367,3.7790000438690186 -9.711999893188477,-0.23399999737739563 -9.711999893188477,-0.23399999737739563z"></path></g><g opacity="1" transform="matrix(1,0,0,1,72.77200317382812,106.2020034790039)"><path fill="rgb(255,195,161)" fill-opacity="1" d=" M-36.9900016784668,33.87699890136719 C-36.9900016784668,33.87699890136719 -14.444000244140625,28.531999588012695 4.357999801635742,18.261999130249023 C23.15999984741211,7.993000030517578 25.930999755859375,4.605999946594238 31.792999267578125,0.07000000029802322 C37.65399932861328,-4.466000080108643 45.27199935913086,-13.031000137329102 45.27199935913086,-13.031000137329102 C45.27199935913086,-13.031000137329102 17.674999237060547,-33.87799835205078 -13.798999786376953,-16.731000900268555 C-45.27199935913086,0.41600000858306885 -36.9900016784668,33.87699890136719 -36.9900016784668,33.87699890136719z"></path><path stroke-linecap="round" stroke-linejoin="round" fill-opacity="0" stroke="rgb(181,95,48)" stroke-opacity="1" stroke-width="11" d=" M-36.9900016784668,33.87699890136719 C-36.9900016784668,33.87699890136719 -14.444000244140625,28.531999588012695 4.357999801635742,18.261999130249023 C23.15999984741211,7.993000030517578 25.930999755859375,4.605999946594238 31.792999267578125,0.07000000029802322 C37.65399932861328,-4.466000080108643 45.27199935913086,-13.031000137329102 45.27199935913086,-13.031000137329102 C45.27199935913086,-13.031000137329102 17.674999237060547,-33.87799835205078 -13.798999786376953,-16.731000900268555 C-45.27199935913086,0.41600000858306885 -36.9900016784668,33.87699890136719 -36.9900016784668,33.87699890136719z"></path></g></g></g><g style="display: none;"><g><path></path></g><g><path></path></g><g><path stroke-linecap="round" stroke-linejoin="round" fill-opacity="0"></path></g></g><g style="display: block;" transform="matrix(1.0233234167099,0.016043929383158684,-0.01866007223725319,0.8626870512962341,241.3294677734375,230.9537353515625)" opacity="1"><g opacity="1" transform="matrix(1,0,0,1,105.58000183105469,106.1240005493164)"><path fill="rgb(63,31,20)" fill-opacity="1" d=" M-87.08899688720703,18.027999877929688 C-87.81500244140625,15.062999725341797 -92.46099853515625,6.306000232696533 -89.86399841308594,4.702000141143799 C-84.87799835205078,1.621000051498413 -74.80999755859375,3.73799991607666 -58.64400100708008,-6.465000152587891 C-43.66999816894531,-15.914999961853027 -24.336999893188477,-44.82699966430664 11.093000411987305,-61.375 C46.52299880981445,-77.9229965209961 69.18699645996094,-72.98899841308594 68.39600372314453,-65.0999984741211 C67.6050033569336,-57.21099853515625 63.459999084472656,-32.8650016784668 68.24800109863281,-2.234999895095825 C73.03700256347656,28.393999099731445 83.68099975585938,48.345001220703125 40.44599914550781,66.28500366210938 C-2.7890000343322754,84.2239990234375 -44.060001373291016,70.64600372314453 -61.95199966430664,50.68899917602539 C-74.04499816894531,37.20000076293945 -85.47599792480469,24.621000289916992 -87.08899688720703,18.027999877929688z"></path><path stroke-linecap="round" stroke-linejoin="round" fill-opacity="0" stroke="rgb(81,36,14)" stroke-opacity="1" stroke-width="7.636" d=" M-87.08899688720703,18.027999877929688 C-87.81500244140625,15.062999725341797 -92.46099853515625,6.306000232696533 -89.86399841308594,4.702000141143799 C-84.87799835205078,1.621000051498413 -74.80999755859375,3.73799991607666 -58.64400100708008,-6.465000152587891 C-43.66999816894531,-15.914999961853027 -24.336999893188477,-44.82699966430664 11.093000411987305,-61.375 C46.52299880981445,-77.9229965209961 69.18699645996094,-72.98899841308594 68.39600372314453,-65.0999984741211 C67.6050033569336,-57.21099853515625 63.459999084472656,-32.8650016784668 68.24800109863281,-2.234999895095825 C73.03700256347656,28.393999099731445 83.68099975585938,48.345001220703125 40.44599914550781,66.28500366210938 C-2.7890000343322754,84.2239990234375 -44.060001373291016,70.64600372314453 -61.95199966430664,50.68899917602539 C-74.04499816894531,37.20000076293945 -85.47599792480469,24.621000289916992 -87.08899688720703,18.027999877929688z"></path></g><g opacity="1" transform="matrix(1,0,0,1,86.81600189208984,121.68199920654297)"><path fill="rgb(33,11,13)" fill-opacity="1" d=" M-17.906999588012695,45.17499923706055 C-17.906999588012695,45.17499923706055 -48.87099838256836,21.538000106811523 -30.680999755859375,-14.015000343322754 C-23.554000854492188,-27.945999145507812 -10.392000198364258,-18.625 -9.147000312805176,-14.494000434875488 C-7.9019999504089355,-10.36299991607666 -4.142000198364258,-5.433000087738037 2.683000087738037,-8.140999794006348 C9.508000373840332,-10.850000381469727 3.9119999408721924,-18.39699935913086 0.3310000002384186,-22.441999435424805 C-3.249000072479248,-26.48699951171875 0.21799999475479126,-35.5 8.119999885559082,-39.47700119018555 C16.020999908447266,-43.45399856567383 35.680999755859375,-38.35900115966797 39.472999572753906,-25.738000869750977 C47.19300079345703,-0.04500000178813934 39.944000244140625,9.321000099182129 39.944000244140625,9.321000099182129 C39.944000244140625,9.321000099182129 21.03499984741211,34.8650016784668 21.03499984741211,34.8650016784668 C21.03499984741211,34.8650016784668 4.9679999351501465,47.12900161743164 4.9679999351501465,47.12900161743164 C4.9679999351501465,47.12900161743164 -17.906999588012695,45.17499923706055 -17.906999588012695,45.17499923706055z"></path></g><g opacity="1" transform="matrix(1,0,0,1,122.11699676513672,148.0489959716797)"><path fill="rgb(204,37,77)" fill-opacity="1" d=" M-56.56700134277344,20.084999084472656 C-56.56700134277344,20.084999084472656 -50.380001068115234,-3.38700008392334 -31.58300018310547,-11.92300033569336 C-16.632999420166016,-18.711999893188477 -10.430000305175781,-16.63599967956543 -10.430000305175781,-16.63599967956543 C-10.430000305175781,-16.63599967956543 1.9359999895095825,-29.29800033569336 17.68000030517578,-27.777000427246094 C38.63999938964844,-25.750999450683594 55.58100128173828,-5.416999816894531 51.98400115966797,-1.6679999828338623 C50.25299835205078,0.13600000739097595 45.71200180053711,5.984000205993652 37.459999084472656,12.072999954223633 C28.562000274658203,18.63800048828125 15.347999572753906,25.482999801635742 -3.311000108718872,27.84000015258789 C-39.275001525878906,32.38199996948242 -56.56700134277344,20.084999084472656 -56.56700134277344,20.084999084472656z"></path><path stroke-linecap="round" stroke-linejoin="round" fill-opacity="0" stroke="rgb(142,22,51)" stroke-opacity="1" stroke-width="6.738" d=" M-56.56700134277344,20.084999084472656 C-56.56700134277344,20.084999084472656 -50.380001068115234,-3.38700008392334 -31.58300018310547,-11.92300033569336 C-16.632999420166016,-18.711999893188477 -10.430000305175781,-16.63599967956543 -10.430000305175781,-16.63599967956543 C-10.430000305175781,-16.63599967956543 1.9359999895095825,-29.29800033569336 17.68000030517578,-27.777000427246094 C38.63999938964844,-25.750999450683594 55.58100128173828,-5.416999816894531 51.98400115966797,-1.6679999828338623 C50.25299835205078,0.13600000739097595 45.71200180053711,5.984000205993652 37.459999084472656,12.072999954223633 C28.562000274658203,18.63800048828125 15.347999572753906,25.482999801635742 -3.311000108718872,27.84000015258789 C-39.275001525878906,32.38199996948242 -56.56700134277344,20.084999084472656 -56.56700134277344,20.084999084472656z"></path></g><g opacity="1" transform="matrix(0.9953240156173706,0.09659276157617569,-0.09659276157617569,0.9953240156173706,8.351287841796875,-8.975265502929688)"><g opacity="1" transform="matrix(1,0,0,1,145.9429931640625,38.987998962402344)"><path fill="rgb(255,255,255)" fill-opacity="1" d=" M20.93199920654297,-10.59000015258789 C20.93199920654297,-10.59000015258789 8.553000450134277,8.734000205993652 5.548999786376953,9.661999702453613 C2.5450000762939453,10.59000015258789 -16.531999588012695,3.0190000534057617 -16.531999588012695,3.0190000534057617 C-16.531999588012695,3.0190000534057617 -20.93199920654297,0.008999999612569809 -15.256999969482422,-1.7430000305175781 C-9.581999778747559,-3.496000051498413 1.7120000123977661,-8.545000076293945 8.11400032043457,-9.163000106811523 C14.515999794006348,-9.781000137329102 20.93199920654297,-10.59000015258789 20.93199920654297,-10.59000015258789z"></path><path stroke-linecap="round" stroke-linejoin="round" fill-opacity="0" stroke="rgb(85,122,147)" stroke-opacity="1" stroke-width="8.035" d=" M20.93199920654297,-10.59000015258789 C20.93199920654297,-10.59000015258789 8.553000450134277,8.734000205993652 5.548999786376953,9.661999702453613 C2.5450000762939453,10.59000015258789 -16.531999588012695,3.0190000534057617 -16.531999588012695,3.0190000534057617 C-16.531999588012695,3.0190000534057617 -20.93199920654297,0.008999999612569809 -15.256999969482422,-1.7430000305175781 C-9.581999778747559,-3.496000051498413 1.7120000123977661,-8.545000076293945 8.11400032043457,-9.163000106811523 C14.515999794006348,-9.781000137329102 20.93199920654297,-10.59000015258789 20.93199920654297,-10.59000015258789z"></path></g><g opacity="1" transform="matrix(1,0,0,1,42.1619987487793,120.22100067138672)"><path fill="rgb(255,255,255)" fill-opacity="1" d=" M-20.878999710083008,2.3469998836517334 C-20.878999710083008,2.3469998836517334 -6.193999767303467,13.543999671936035 -0.5370000004768372,15.194999694824219 C5.119999885559082,16.844999313354492 8.668000221252441,14.430999755859375 8.586999893188477,10.718999862670898 C8.506999969482422,7.00600004196167 2.3949999809265137,-12.52400016784668 2.3949999809265137,-12.52400016784668 C2.3949999809265137,-12.52400016784668 -5.320000171661377,-5.676000118255615 -8.696999549865723,-3.614000082015991 C-12.074000358581543,-1.5520000457763672 -20.878999710083008,2.3469998836517334 -20.878999710083008,2.3469998836517334z"></path><path stroke-linecap="round" stroke-linejoin="round" fill-opacity="0" stroke="rgb(85,122,147)" stroke-opacity="1" stroke-width="8.035" d=" M-20.878999710083008,2.3469998836517334 C-20.878999710083008,2.3469998836517334 -6.193999767303467,13.543999671936035 -0.5370000004768372,15.194999694824219 C5.119999885559082,16.844999313354492 8.668000221252441,14.430999755859375 8.586999893188477,10.718999862670898 C8.506999969482422,7.00600004196167 2.3949999809265137,-12.52400016784668 2.3949999809265137,-12.52400016784668 C2.3949999809265137,-12.52400016784668 -5.320000171661377,-5.676000118255615 -8.696999549865723,-3.614000082015991 C-12.074000358581543,-1.5520000457763672 -20.878999710083008,2.3469998836517334 -20.878999710083008,2.3469998836517334z"></path></g><g opacity="1" transform="matrix(1,0,0,1,112.50299835205078,57.26900100708008)"><path fill="rgb(255,255,255)" fill-opacity="1" d=" M15.689000129699707,-17.944000244140625 C15.689000129699707,-17.944000244140625 19.510000228881836,3.3010001182556152 13.817999839782715,8.456999778747559 C8.125,13.61299991607666 0.7039999961853027,17.944000244140625 -1.4950000047683716,17.944000244140625 C-3.694999933242798,17.944000244140625 -19.510000228881836,5.656000137329102 -19.510000228881836,5.656000137329102 C-19.510000228881836,5.656000137329102 -12.699999809265137,-1.3660000562667847 1.347000002861023,-10.720999717712402 C5.491000175476074,-13.480999946594238 15.689000129699707,-17.944000244140625 15.689000129699707,-17.944000244140625z"></path><path stroke-linecap="round" stroke-linejoin="round" fill-opacity="0" stroke="rgb(85,122,147)" stroke-opacity="1" stroke-width="8.035" d=" M15.689000129699707,-17.944000244140625 C15.689000129699707,-17.944000244140625 19.510000228881836,3.3010001182556152 13.817999839782715,8.456999778747559 C8.125,13.61299991607666 0.7039999961853027,17.944000244140625 -1.4950000047683716,17.944000244140625 C-3.694999933242798,17.944000244140625 -19.510000228881836,5.656000137329102 -19.510000228881836,5.656000137329102 C-19.510000228881836,5.656000137329102 -12.699999809265137,-1.3660000562667847 1.347000002861023,-10.720999717712402 C5.491000175476074,-13.480999946594238 15.689000129699707,-17.944000244140625 15.689000129699707,-17.944000244140625z"></path></g><g opacity="1" transform="matrix(1,0,0,1,73.9229965209961,92.84300231933594)"><path fill="rgb(255,255,255)" fill-opacity="1" d=" M1.7079999446868896,4.8470001220703125 C-1.5700000524520874,10.307999610900879 -3.2139999866485596,28.14299964904785 -2.130000114440918,25.059999465942383 C-1.0460000038146973,21.976999282836914 -8.92300033569336,30.21500015258789 -11.690999984741211,30.731000900268555 C-14.460000038146973,31.246000289916992 -28.006000518798828,14.812000274658203 -28.006000518798828,14.812000274658203 C-20.590999603271484,11.63599967956543 -9.26200008392334,-4.5879998207092285 -3.6549999713897705,-8.696000099182129 C3.2839999198913574,-13.781000137329102 17.79199981689453,-29.733999252319336 20.621000289916992,-28.909000396728516 C23.448999404907227,-28.083999633789062 26.527999877929688,-0.10000000149011612 24.81999969482422,1.4459999799728394 C23.11199951171875,2.993000030517578 13.748000144958496,9.282999992370605 12.079000473022461,9.79800033569336 C10.40999984741211,10.314000129699707 1.7079999446868896,4.8470001220703125 1.7079999446868896,4.8470001220703125z"></path><path stroke-linecap="round" stroke-linejoin="round" fill-opacity="0" stroke="rgb(85,122,147)" stroke-opacity="1" stroke-width="8.035" d=" M1.7079999446868896,4.8470001220703125 C-1.5700000524520874,10.307999610900879 -3.2139999866485596,28.14299964904785 -2.130000114440918,25.059999465942383 C-1.0460000038146973,21.976999282836914 -8.92300033569336,30.21500015258789 -11.690999984741211,30.731000900268555 C-14.460000038146973,31.246000289916992 -28.006000518798828,14.812000274658203 -28.006000518798828,14.812000274658203 C-20.590999603271484,11.63599967956543 -9.26200008392334,-4.5879998207092285 -3.6549999713897705,-8.696000099182129 C3.2839999198913574,-13.781000137329102 17.79199981689453,-29.733999252319336 20.621000289916992,-28.909000396728516 C23.448999404907227,-28.083999633789062 26.527999877929688,-0.10000000149011612 24.81999969482422,1.4459999799728394 C23.11199951171875,2.993000030517578 13.748000144958496,9.282999992370605 12.079000473022461,9.79800033569336 C10.40999984741211,10.314000129699707 1.7079999446868896,4.8470001220703125 1.7079999446868896,4.8470001220703125z"></path></g></g><g opacity="1" transform="matrix(1,0,0,1,116.72799682617188,140.6959991455078)"><path stroke-linecap="round" stroke-linejoin="round" fill-opacity="0" stroke="rgb(142,22,51)" stroke-opacity="1" stroke-width="6.738" d=" M19.225000381469727,9.32800006866455 C19.225000381469727,9.32800006866455 12.496999740600586,1.687000036239624 1.7979999780654907,-3.688999891281128 C-9.425000190734863,-9.32800006866455 -19.225000381469727,-6.960999965667725 -19.225000381469727,-6.960999965667725"></path></g><g opacity="1" transform="matrix(1,0,0,1,103.83799743652344,147.10699462890625)"><path fill="rgb(239,51,100)" fill-opacity="1" d=" M-10.550999641418457,-4.144999980926514 C-10.196000099182129,-4.38700008392334 -9.826000213623047,-4.5929999351501465 -9.432000160217285,-4.763999938964844 C-7.915999889373779,-5.421999931335449 -3.618000030517578,-6.982999801635742 1.875,-6.357999801635742 C7.966000080108643,-5.664000034332275 15.753999710083008,0.6129999756813049 12.140999794006348,3.7980000972747803 C8.527000427246094,6.982999801635742 0.7799999713897705,6.794000148773193 -5.423999786376953,6.7210001945495605 C-11.628000259399414,6.646999835968018 -15.753999710083008,6.301000118255615 -15.467000007629395,2.441999912261963 C-15.237000465393066,-0.6539999842643738 -11.873000144958496,-3.242000102996826 -10.550999641418457,-4.144999980926514z"></path></g><g opacity="1" transform="matrix(1,0,0,1,139.81500244140625,129.87600708007812)"><path fill="rgb(239,51,100)" fill-opacity="1" d=" M-10.550999641418457,-4.144999980926514 C-10.196000099182129,-4.38700008392334 -9.826000213623047,-4.5929999351501465 -9.432000160217285,-4.763999938964844 C-7.915999889373779,-5.421999931335449 -3.618000030517578,-6.982999801635742 1.875,-6.357999801635742 C7.966000080108643,-5.664000034332275 15.753999710083008,0.6129999756813049 12.140999794006348,3.7980000972747803 C8.527000427246094,6.982999801635742 0.7799999713897705,6.794000148773193 -5.423999786376953,6.7210001945495605 C-11.628000259399414,6.646999835968018 -15.753999710083008,6.301000118255615 -15.467000007629395,2.441999912261963 C-15.237000465393066,-0.6539999842643738 -11.873000144958496,-3.242000102996826 -10.550999641418457,-4.144999980926514z"></path></g><g opacity="1" transform="matrix(1.042432188987732,0.03530960902571678,-0.033852919936180115,0.9994268417358398,-6.51593017578125,-1.617645263671875)"><g opacity="1" transform="matrix(1,0,0,1,144.5449981689453,158.1269989013672)"><path fill="rgb(255,255,255)" fill-opacity="1" d=" M-13.119000434875488,15.697999954223633 C-13.119000434875488,15.697999954223633 -18.452999114990234,-11.572999954223633 -16.176000595092773,-13.635000228881836 C-13.89900016784668,-15.697999954223633 4.3460001945495605,-11.029999732971191 8.432000160217285,-8.555000305175781 C12.517999649047852,-6.078999996185303 18.45199966430664,-0.23100000619888306 18.45199966430664,-0.23100000619888306 C18.45199966430664,-0.23100000619888306 14.23799991607666,5.724999904632568 4.8520002365112305,9.642999649047852 C-4.5329999923706055,13.560999870300293 -13.119000434875488,15.697999954223633 -13.119000434875488,15.697999954223633z"></path><path stroke-linecap="round" stroke-linejoin="round" fill-opacity="0" stroke="rgb(85,122,147)" stroke-opacity="1" stroke-width="8.824" d=" M-13.119000434875488,15.697999954223633 C-13.119000434875488,15.697999954223633 -18.452999114990234,-11.572999954223633 -16.176000595092773,-13.635000228881836 C-13.89900016784668,-15.697999954223633 4.3460001945495605,-11.029999732971191 8.432000160217285,-8.555000305175781 C12.517999649047852,-6.078999996185303 18.45199966430664,-0.23100000619888306 18.45199966430664,-0.23100000619888306 C18.45199966430664,-0.23100000619888306 14.23799991607666,5.724999904632568 4.8520002365112305,9.642999649047852 C-4.5329999923706055,13.560999870300293 -13.119000434875488,15.697999954223633 -13.119000434875488,15.697999954223633z"></path></g><g opacity="1" transform="matrix(1,0,0,1,160.5659942626953,146.06700134277344)"><path fill="rgb(255,255,255)" fill-opacity="1" d=" M17.108999252319336,-1.7209999561309814 C17.108999252319336,-1.7209999561309814 7.6020002365112305,-14.435999870300293 1.2389999628067017,-14.850000381469727 C-5.125,-15.262999534606934 -13.13599967956543,-12.788999557495117 -14.373000144958496,-12.067000389099121 C-15.609999656677246,-11.345000267028809 -10.045000076293945,1.5470000505447388 -10.045000076293945,1.5470000505447388 C-10.045000076293945,1.5470000505447388 -2.871000051498413,12.581999778747559 1.5880000591278076,13.92300033569336 C6.046999931335449,15.263999938964844 9.1899995803833,10.090999603271484 12.72700023651123,7.704999923706055 C17.458999633789062,4.513999938964844 17.108999252319336,-1.7209999561309814 17.108999252319336,-1.7209999561309814z"></path><path stroke-linecap="round" stroke-linejoin="round" fill-opacity="0" stroke="rgb(85,122,147)" stroke-opacity="1" stroke-width="8.824" d=" M17.108999252319336,-1.7209999561309814 C17.108999252319336,-1.7209999561309814 7.6020002365112305,-14.435999870300293 1.2389999628067017,-14.850000381469727 C-5.125,-15.262999534606934 -13.13599967956543,-12.788999557495117 -14.373000144958496,-12.067000389099121 C-15.609999656677246,-11.345000267028809 -10.045000076293945,1.5470000505447388 -10.045000076293945,1.5470000505447388 C-10.045000076293945,1.5470000505447388 -2.871000051498413,12.581999778747559 1.5880000591278076,13.92300033569336 C6.046999931335449,15.263999938964844 9.1899995803833,10.090999603271484 12.72700023651123,7.704999923706055 C17.458999633789062,4.513999938964844 17.108999252319336,-1.7209999561309814 17.108999252319336,-1.7209999561309814z"></path></g><g opacity="1" transform="matrix(1,0,0,1,168.16200256347656,125.54299926757812)"><path fill="rgb(255,255,255)" fill-opacity="1" d=" M8.711000442504883,-8.743000030517578 C7.122000217437744,-10.939000129699707 -4.698999881744385,-13.04800033569336 -4.814000129699707,-10.45300006866455 C-4.919000148773193,-8.067999839782715 -3.4719998836517334,5.107999801635742 -1.5080000162124634,5.519999980926514 C0.4560000002384186,5.933000087738037 12.01200008392334,22.406999588012695 11.949000358581543,15.291000366210938 C11.88599967956543,8.175000190734863 8.711000442504883,-8.743000030517578 8.711000442504883,-8.743000030517578z"></path><path stroke-linecap="round" stroke-linejoin="round" fill-opacity="0" stroke="rgb(85,122,147)" stroke-opacity="1" stroke-width="8.824" d=" M8.711000442504883,-8.743000030517578 C7.122000217437744,-10.939000129699707 -4.698999881744385,-13.04800033569336 -4.814000129699707,-10.45300006866455 C-4.919000148773193,-8.067999839782715 -3.4719998836517334,5.107999801635742 -1.5080000162124634,5.519999980926514 C0.4560000002384186,5.933000087738037 12.01200008392334,22.406999588012695 11.949000358581543,15.291000366210938 C11.88599967956543,8.175000190734863 8.711000442504883,-8.743000030517578 8.711000442504883,-8.743000030517578z"></path></g></g><g opacity="1" transform="matrix(1,0,0,1,0,0)"><g opacity="1" transform="matrix(1,0,0,1,0,0)"><path stroke-linecap="butt" stroke-linejoin="miter" fill-opacity="0" stroke-miterlimit="4" stroke="rgb(255,255,255)" stroke-opacity="1" stroke-width="12" d="M0 0"></path></g><path stroke-linecap="round" stroke-linejoin="round" fill-opacity="0" stroke="rgb(173,92,37)" stroke-opacity="1" stroke-width="11" d=" M189.5019989013672,173.90699768066406 C189.5019989013672,173.90699768066406 188.65499877929688,178.83099365234375 179.5019989013672,186.90699768066406 C171.0019989013672,194.40699768066406 157.5019989013672,196.40699768066406 157.5019989013672,196.40699768066406"></path></g><g opacity="1" transform="matrix(1,0,0,1,105.58000183105469,106.1240005493164)"><path stroke-linecap="round" stroke-linejoin="round" fill-opacity="0" stroke="rgb(173,92,37)" stroke-opacity="1" stroke-width="11" d=" M-87.08899688720703,18.027999877929688 C-87.81500244140625,15.062999725341797 -92.46099853515625,6.306000232696533 -89.86399841308594,4.702000141143799 C-84.87799835205078,1.621000051498413 -74.80999755859375,3.73799991607666 -58.64400100708008,-6.465000152587891 C-43.66999816894531,-15.914999961853027 -24.336999893188477,-44.82699966430664 11.093000411987305,-61.375 C46.52299880981445,-77.9229965209961 69.18699645996094,-72.98899841308594 68.39600372314453,-65.0999984741211 C67.6050033569336,-57.21099853515625 63.459999084472656,-32.8650016784668 68.24800109863281,-2.234999895095825 C73.03700256347656,28.393999099731445 83.68099975585938,48.345001220703125 40.44599914550781,66.28500366210938 C-2.7890000343322754,84.2239990234375 -44.060001373291016,70.64600372314453 -61.95199966430664,50.68899917602539 C-74.04499816894531,37.20000076293945 -85.47599792480469,24.621000289916992 -87.08899688720703,18.027999877929688z"></path></g></g><g style="display: none;"><g><g><path></path></g><g><path></path><path stroke-linecap="round" stroke-linejoin="round" fill-opacity="0"></path></g><g><path></path></g><g><path></path></g><g><path></path></g><g><path></path><path stroke-linecap="round" stroke-linejoin="round" fill-opacity="0"></path></g></g></g><g style="display: none;"><g><path fill="url(#__lottie_element_27)" mask="url(#__lottie_element_29)"></path></g></g><g style="display: none;"><g><path fill="url(#__lottie_element_21)" mask="url(#__lottie_element_23)"></path></g></g><g style="display: none;"><g><path></path></g></g><g style="display: none;"><g><path></path></g></g></g></g></svg>