<svg xmlns="http://www.w3.org/2000/svg" xmlns:xlink="http://www.w3.org/1999/xlink" viewBox="0 0 512 512" width="512" height="512" style="width: 100%; height: 100%; transform: translate3d(0,0,0); content-visibility: visible;" preserveAspectRatio="xMidYMid meet"><defs><clipPath id="__lottie_element_2"><rect width="512" height="512" x="0" y="0"></rect></clipPath><radialGradient id="__lottie_element_9" spreadMethod="pad" gradientUnits="userSpaceOnUse" cx="-67.4229965209961" cy="-131.0279998779297" r="327.8695781990266" fx="-67.4229965209961" fy="-131.0279998779297"><stop offset="0%" stop-color="rgb(251,225,202)"></stop><stop offset="39%" stop-color="rgb(248,206,174)"></stop><stop offset="57%" stop-color="rgb(245,187,147)"></stop></radialGradient></defs><g clip-path="url(#__lottie_element_2)"><g style="display: block;" transform="matrix(1.0296000242233276,0,0,1.0296000242233276,-5.337593078613281,-7.577592849731445)" opacity="1"><g opacity="1" transform="matrix(1.0800000429153442,0,0,1.0800000429153442,-50.116119384765625,-18.120651245117188)"><g opacity="1" transform="matrix(1,0,0,1,7,0)"><g opacity="1" transform="matrix(1,0,0,1,331.8320007324219,228.197998046875)"><path fill="rgb(247,155,104)" fill-opacity="1" d=" M-97.22000122070312,-146.4810028076172 C-132.18800354003906,-123.66600036621094 -162.66000366210938,-96.06400299072266 -175.0330047607422,-21.832000732421875 C-189.2949981689453,63.74599838256836 -119.35800170898438,174.05999755859375 10.548999786376953,167.8730010986328 C140.45599365234375,161.68800354003906 189.2949981689453,29.996999740600586 154.88900756835938,-61.0099983215332 C122.9280014038086,-145.552001953125 56.25699996948242,-164.11000061035156 18.108999252319336,-169.9530029296875 C-2.374000072479248,-173.08999633789062 -54.94900131225586,-174.05999755859375 -97.22000122070312,-146.4810028076172z"></path><path stroke-linecap="butt" stroke-linejoin="miter" fill-opacity="0" stroke-miterlimit="10" stroke="rgb(182,95,48)" stroke-opacity="1" stroke-width="13" d=" M-97.22000122070312,-146.4810028076172 C-132.18800354003906,-123.66600036621094 -162.66000366210938,-96.06400299072266 -175.0330047607422,-21.832000732421875 C-189.2949981689453,63.74599838256836 -119.35800170898438,174.05999755859375 10.548999786376953,167.8730010986328 C140.45599365234375,161.68800354003906 189.2949981689453,29.996999740600586 154.88900756835938,-61.0099983215332 C122.9280014038086,-145.552001953125 56.25699996948242,-164.11000061035156 18.108999252319336,-169.9530029296875 C-2.374000072479248,-173.08999633789062 -54.94900131225586,-174.05999755859375 -97.22000122070312,-146.4810028076172z"></path></g><g opacity="1" transform="matrix(1,0,0,1,325.49700927734375,222.89700317382812)"><path fill="url(#__lottie_element_9)" fill-opacity="1" d=" M-90.26499938964844,-135.76300048828125 C-122.73100280761719,-114.61799621582031 -151.0240020751953,-89.03399658203125 -162.50999450683594,-20.232999801635742 C-175.7530059814453,59.08300018310547 -110.81900024414062,161.32400512695312 9.795000076293945,155.59100341796875 C130.40699768066406,149.85699462890625 175.7530059814453,27.801000595092773 143.8090057373047,-56.54600143432617 C114.13400268554688,-134.9029998779297 52.231998443603516,-152.10299682617188 16.81399917602539,-157.51699829101562 C-2.2039999961853027,-160.4250030517578 -51.018001556396484,-161.3249969482422 -90.26499938964844,-135.76300048828125z"></path></g></g></g></g><g style="display: block;" transform="matrix(1.256764531135559,0,0,1.2620900869369507,-84.36029052734375,-71.8416748046875)" opacity="1"><g opacity="1" transform="matrix(1,0,0,1,413.9880065917969,166.1580047607422)"><path fill="rgb(242,136,103)" fill-opacity="0.59" d=" M-3.7239999771118164,-11.399999618530273 C-7.974999904632568,-8.36299991607666 -14.550000190734863,-0.4020000100135803 -16.954999923706055,7.501999855041504 C-19.361000061035156,15.406000137329102 -18.159000396728516,23.48200035095215 -3.7239999771118164,15.92199993133545 C10.710000038146973,8.361000061035156 20.893999099731445,-12.28499984741211 17.15399932861328,-16.812999725341797 C12.255999565124512,-22.740999221801758 0.972000002861023,-14.755999565124512 -3.7239999771118164,-11.399999618530273z"></path></g><g opacity="1" transform="matrix(1,0,0,1,196.25999450683594,245.11099243164062)"><path fill="rgb(242,136,103)" fill-opacity="0.59" d=" M-18.327999114990234,-7.5980000495910645 C-18.327999114990234,-7.5980000495910645 -9.817999839782715,-9.87600040435791 4.616000175476074,-8.586999893188477 C19.049999237060547,-7.298999786376953 21.856000900268555,-3.509999990463257 22.916000366210938,-2.2720000743865967 C24.46299934387207,-0.46799999475479126 25.750999450683594,5.202000141143799 18.534000396728516,7.006999969482422 C11.317999839782715,8.810999870300293 -3.322000026702881,7.790999889373779 -13.942000389099121,7.39300012588501 C-16.770999908447266,7.2870001792907715 -19.591999053955078,0.01899999938905239 -18.525999069213867,-1.4579999446868896 C-16.850000381469727,-3.7780001163482666 -18.327999114990234,-7.5980000495910645 -18.327999114990234,-7.5980000495910645z"></path></g></g><g style="display: block;" transform="matrix(1.1428552865982056,0,0,1.1428552865982056,-33.488243103027344,-56.76818084716797)" opacity="1"><g opacity="1" transform="matrix(1,0,0,1,231.7550048828125,429.69500732421875)"><path fill="rgb(236,238,247)" fill-opacity="1" d=" M-13.439000129699707,-7.8480000495910645 C-13.439000129699707,-7.8480000495910645 -46.08700180053711,-5.784999847412109 -46.08700180053711,-5.784999847412109 C-46.08700180053711,-5.784999847412109 -84.23500061035156,6.929999828338623 -84.23500061035156,6.929999828338623 C-84.23500061035156,6.929999828338623 -90.4219970703125,9.121000289916992 -90.4219970703125,9.121000289916992 C-90.4219970703125,9.121000289916992 -65.6760025024414,37.172000885009766 8.555999755859375,18.95800018310547 C82.78900146484375,0.7429999709129333 90.3489990234375,-30.87299919128418 90.3489990234375,-30.87299919128418 C90.3489990234375,-30.87299919128418 90.4219970703125,-37.172000885009766 90.4219970703125,-37.172000885009766 C90.4219970703125,-37.172000885009766 14.39900016784668,-29.843000411987305 14.39900016784668,-29.843000411987305 C14.39900016784668,-29.843000411987305 -13.439000129699707,-7.8480000495910645 -13.439000129699707,-7.8480000495910645z"></path><path stroke-linecap="round" stroke-linejoin="round" fill-opacity="0" stroke="rgb(135,132,172)" stroke-opacity="1" stroke-width="10" d=" M-13.439000129699707,-7.8480000495910645 C-13.439000129699707,-7.8480000495910645 -46.08700180053711,-5.784999847412109 -46.08700180053711,-5.784999847412109 C-46.08700180053711,-5.784999847412109 -84.23500061035156,6.929999828338623 -84.23500061035156,6.929999828338623 C-84.23500061035156,6.929999828338623 -90.4219970703125,9.121000289916992 -90.4219970703125,9.121000289916992 C-90.4219970703125,9.121000289916992 -65.6760025024414,37.172000885009766 8.555999755859375,18.95800018310547 C82.78900146484375,0.7429999709129333 90.3489990234375,-30.87299919128418 90.3489990234375,-30.87299919128418 C90.3489990234375,-30.87299919128418 90.4219970703125,-37.172000885009766 90.4219970703125,-37.172000885009766 C90.4219970703125,-37.172000885009766 14.39900016784668,-29.843000411987305 14.39900016784668,-29.843000411987305 C14.39900016784668,-29.843000411987305 -13.439000129699707,-7.8480000495910645 -13.439000129699707,-7.8480000495910645z"></path></g><g opacity="1" transform="matrix(1,0,0,1,231.7550048828125,415.66900634765625)"><path fill="rgb(236,238,247)" fill-opacity="1" d=" M90.4229965209961,-23.14699935913086 C93.57099914550781,-10.847000122070312 55.64099884033203,9.48799991607666 5.702000141143799,22.270999908447266 C-44.23699951171875,35.05500030517578 -87.27300262451172,35.44599914550781 -90.4219970703125,23.145999908447266 C-93.56999969482422,10.845999717712402 -55.638999938964844,-9.48799991607666 -5.699999809265137,-22.270999908447266 C44.23899841308594,-35.05400085449219 87.2750015258789,-35.446998596191406 90.4229965209961,-23.14699935913086z"></path><path stroke-linecap="butt" stroke-linejoin="miter" fill-opacity="0" stroke-miterlimit="10" stroke="rgb(105,100,157)" stroke-opacity="1" stroke-width="10" d=" M90.4229965209961,-23.14699935913086 C93.57099914550781,-10.847000122070312 55.64099884033203,9.48799991607666 5.702000141143799,22.270999908447266 C-44.23699951171875,35.05500030517578 -87.27300262451172,35.44599914550781 -90.4219970703125,23.145999908447266 C-93.56999969482422,10.845999717712402 -55.638999938964844,-9.48799991607666 -5.699999809265137,-22.270999908447266 C44.23899841308594,-35.05400085449219 87.2750015258789,-35.446998596191406 90.4229965209961,-23.14699935913086z"></path></g><g opacity="0.36" transform="matrix(1,0,0,1,236.27999877929688,419.1080017089844)"><path stroke-linecap="round" stroke-linejoin="round" fill-opacity="0" stroke="rgb(114,108,177)" stroke-opacity="1" stroke-width="11" d=" M-56.23500061035156,14.961999893188477 C-56.23500061035156,14.961999893188477 -30.815000534057617,2.6500000953674316 -13.6899995803833,-2.430000066757202 C24.270000457763672,-13.6899995803833 56.23500061035156,-14.961000442504883 56.23500061035156,-14.961000442504883"></path></g></g><g style="display: block;" transform="matrix(0.9828560948371887,0,0,0.9828560948371887,13.06261157989502,16.384300231933594)" opacity="1"><g opacity="1" transform="matrix(1.0800000429153442,0,0,1.0800000429153442,-20.071853637695312,-36.011932373046875)"><g opacity="1" transform="matrix(1,0,0,1,221.7760009765625,452.5679931640625)"><path fill="rgb(249,190,149)" fill-opacity="1" d=" M35.108001708984375,-21.38800048828125 C35.108001708984375,-21.38800048828125 26.56399917602539,-12.031000137329102 6.705999851226807,-8.130000114440918 C-13.154000282287598,-4.229000091552734 -22.695999145507812,-4.011000156402588 -22.695999145507812,-4.011000156402588 C-22.695999145507812,-4.011000156402588 -35.108001708984375,-2.5920000076293945 -34.042999267578125,9.109999656677246 C-32.97999954223633,20.812000274658203 -24.49799919128418,21.38800048828125 -14.940999984741211,21.38800048828125 C-7.485000133514404,21.38800048828125 1.0640000104904175,19.749000549316406 7.802000045776367,19.040000915527344 C14.539999961853027,18.33099937438965 21.277999877929688,16.91200065612793 21.277999877929688,16.91200065612793"></path><path stroke-linecap="round" stroke-linejoin="round" fill-opacity="0" stroke="rgb(182,95,48)" stroke-opacity="1" stroke-width="12" d=" M35.108001708984375,-21.38800048828125 C35.108001708984375,-21.38800048828125 26.56399917602539,-12.031000137329102 6.705999851226807,-8.130000114440918 C-13.154000282287598,-4.229000091552734 -22.695999145507812,-4.011000156402588 -22.695999145507812,-4.011000156402588 C-22.695999145507812,-4.011000156402588 -35.108001708984375,-2.5920000076293945 -34.042999267578125,9.109999656677246 C-32.97999954223633,20.812000274658203 -24.49799919128418,21.38800048828125 -14.940999984741211,21.38800048828125 C-7.485000133514404,21.38800048828125 1.0640000104904175,19.749000549316406 7.802000045776367,19.040000915527344 C14.539999961853027,18.33099937438965 21.277999877929688,16.91200065612793 21.277999877929688,16.91200065612793"></path></g><g opacity="1" transform="matrix(1,0,0,1,274.72698974609375,450.5060119628906)"><path fill="rgb(249,189,149)" fill-opacity="1" d=" M-31.614999771118164,32.44900131225586 C-31.614999771118164,32.44900131225586 -27.290000915527344,41.625999450683594 -13.63599967956543,42.566001892089844 C1.815999984741211,43.630001068115234 26.28499984741211,29.43400001525879 34.987998962402344,11.704000473022461 C41.41899871826172,-1.4010000228881836 41.560001373291016,-21.631000518798828 30.3700008392334,-31.382999420166016 C19.180999755859375,-41.1349983215332 11.89900016784668,-42.19900131225586 1.2419999837875366,-43.08599853515625 C-5.315000057220459,-43.63100051879883 -22.555999755859375,-38.83000183105469 -22.555999755859375,-38.83000183105469 C-22.555999755859375,-38.83000183105469 -26.641000747680664,-21.277000427246094 -26.641000747680664,-21.277000427246094 C-26.641000747680664,-21.277000427246094 -26.641000747680664,-10.460000038146973 -26.641000747680664,-10.460000038146973 C-26.641000747680664,-10.460000038146973 -40.849998474121094,6.385000228881836 -40.849998474121094,6.385000228881836 C-40.849998474121094,6.385000228881836 -41.560001373291016,23.583999633789062 -41.560001373291016,23.583999633789062 C-41.560001373291016,23.583999633789062 -31.614999771118164,32.44900131225586 -31.614999771118164,32.44900131225586z"></path></g><g opacity="1" transform="matrix(1,0,0,1,252.80599975585938,423.37799072265625)"><path fill="rgb(249,190,149)" fill-opacity="1" d=" M6.382999897003174,8.333000183105469 C6.382999897003174,8.333000183105469 0.7080000042915344,16.135000228881836 -11.347999572753906,16.312000274658203 C-23.4060001373291,16.48900032043457 -28.724000930786133,5.85099983215332 -21.986000061035156,-1.9509999752044678 C-15.24899959564209,-9.753000259399414 -4.256999969482422,-15.779999732971191 9.397000312805176,-16.135000228881836 C23.049999237060547,-16.48900032043457 28.724000930786133,-15.427000045776367 28.724000930786133,-15.427000045776367"></path><path stroke-linecap="round" stroke-linejoin="round" fill-opacity="0" stroke="rgb(182,95,48)" stroke-opacity="1" stroke-width="12" d=" M6.382999897003174,8.333000183105469 C6.382999897003174,8.333000183105469 0.7080000042915344,16.135000228881836 -11.347999572753906,16.312000274658203 C-23.4060001373291,16.48900032043457 -28.724000930786133,5.85099983215332 -21.986000061035156,-1.9509999752044678 C-15.24899959564209,-9.753000259399414 -4.256999969482422,-15.779999732971191 9.397000312805176,-16.135000228881836 C23.049999237060547,-16.48900032043457 28.724000930786133,-15.427000045776367 28.724000930786133,-15.427000045776367"></path></g><g opacity="1" transform="matrix(1,0,0,1,289.4849853515625,435.1499938964844)"><path fill="rgb(241,145,91)" fill-opacity="1" d=" M-15.800000190734863,-21.80500030517578 C-15.800000190734863,-21.80500030517578 2.566999912261963,-14.99899959564209 9.314000129699707,-0.6620000004768372 C16.06100082397461,13.675999641418457 13.678999900817871,29.253000259399414 13.678999900817871,29.253000259399414 C13.678999900817871,29.253000259399414 25.143999099731445,14.322999954223633 21.20800018310547,0.5479999780654907 C17.273000717163086,-13.22599983215332 7.309999942779541,-20.231000900268555 -3.936000108718872,-23.322999954223633 C-11.168000221252441,-25.312000274658203 -15.800000190734863,-21.80500030517578 -15.800000190734863,-21.80500030517578z"></path></g><g opacity="1" transform="matrix(1,0,0,1,279.70001220703125,449.93499755859375)"><path stroke-linecap="round" stroke-linejoin="round" fill-opacity="0" stroke="rgb(182,95,48)" stroke-opacity="1" stroke-width="12" d=" M-36.58700180053711,33.020999908447266 C-36.58700180053711,33.020999908447266 -31.98200035095215,40.51100158691406 -18.32699966430664,41.45100021362305 C-2.875999927520752,42.51499938964844 21.32200050354004,31.913000106811523 30.024999618530273,14.180999755859375 C36.457000732421875,1.0779999494552612 36.58700180053711,-21.05900001525879 25.39699935913086,-30.81100082397461 C14.208000183105469,-40.5629997253418 6.927000045776367,-41.62699890136719 -3.7300000190734863,-42.513999938964844"></path></g><g opacity="1" transform="matrix(1,0,0,1,236.802001953125,476.656005859375)"><path fill="rgb(249,190,149)" fill-opacity="1" d=" M10.795999526977539,-10.010000228881836 C10.795999526977539,-10.010000228881836 1.4249999523162842,-6.63700008392334 -7.181000232696533,-5.061999797821045 C-13.635000228881836,-3.88100004196167 -16.94099998474121,-3.450000047683716 -16.94099998474121,-3.450000047683716 C-16.94099998474121,-3.450000047683716 -17.996999740600586,5.045000076293945 -6.4720001220703125,7.5269999504089355 C5.053999900817871,10.010000228881836 14.805999755859375,6.994999885559082 16.047000885009766,6.4629998207092285 C17.288000106811523,5.931000232696533 17.996999740600586,5.2210001945495605 17.996999740600586,5.2210001945495605"></path><path stroke-linecap="round" stroke-linejoin="round" fill-opacity="0" stroke="rgb(182,95,48)" stroke-opacity="1" stroke-width="12" d=" M10.795999526977539,-10.010000228881836 C10.795999526977539,-10.010000228881836 1.4249999523162842,-6.63700008392334 -7.181000232696533,-5.061999797821045 C-13.635000228881836,-3.88100004196167 -16.94099998474121,-3.450000047683716 -16.94099998474121,-3.450000047683716 C-16.94099998474121,-3.450000047683716 -17.996999740600586,5.045000076293945 -6.4720001220703125,7.5269999504089355 C5.053999900817871,10.010000228881836 14.805999755859375,6.994999885559082 16.047000885009766,6.4629998207092285 C17.288000106811523,5.931000232696533 17.996999740600586,5.2210001945495605 17.996999740600586,5.2210001945495605"></path></g></g></g><g style="display: block;" transform="matrix(1.2162387371063232,0,0,1.2162387371063232,-60.92284393310547,-52.18549346923828)" opacity="1"><g opacity="1" transform="matrix(1,0,0,1,344.43499755859375,177.4810028076172)"><path fill="rgb(255,255,255)" fill-opacity="1" d=" M-36.82600021362305,-14.789999961853027 C-38.689998626708984,-6.109000205993652 -38.67599868774414,7.493000030517578 -32.55799865722656,21.25 C-25.493000030517578,37.13999938964844 -9.307000160217285,46.777000427246094 12.22700023651123,39.56700134277344 C32.869998931884766,32.654998779296875 38.68899917602539,9.022000312805176 33.439998626708984,-12.232999801635742 C28.191999435424805,-33.487998962402344 13.25100040435791,-46.777000427246094 -7.239999771118164,-44.74399948120117 C-28.349000930786133,-42.650001525878906 -34.23699951171875,-26.844999313354492 -36.82600021362305,-14.789999961853027z"></path><path stroke-linecap="butt" stroke-linejoin="miter" fill-opacity="0" stroke-miterlimit="10" stroke="rgb(111,77,111)" stroke-opacity="1" stroke-width="9" d=" M-36.82600021362305,-14.789999961853027 C-38.689998626708984,-6.109000205993652 -38.67599868774414,7.493000030517578 -32.55799865722656,21.25 C-25.493000030517578,37.13999938964844 -9.307000160217285,46.777000427246094 12.22700023651123,39.56700134277344 C32.869998931884766,32.654998779296875 38.68899917602539,9.022000312805176 33.439998626708984,-12.232999801635742 C28.191999435424805,-33.487998962402344 13.25100040435791,-46.777000427246094 -7.239999771118164,-44.74399948120117 C-28.349000930786133,-42.650001525878906 -34.23699951171875,-26.844999313354492 -36.82600021362305,-14.789999961853027z"></path></g><g opacity="1" transform="matrix(1,0,0,1,0,0)"><g opacity="1" transform="matrix(1,0,0,1,349.3070068359375,183.69000244140625)"><path fill="rgb(82,145,244)" fill-opacity="1" d=" M-18.386999130249023,-8.723999977111816 C-18.386999130249023,-8.723999977111816 -20.820999145507812,3.759000062942505 -16.224000930786133,12.496999740600586 C-11.626999855041504,21.235000610351562 -4.244999885559082,27.864999771118164 6.848999977111816,23.52400016784668 C17.485000610351562,19.363000869750977 20.81999969482422,5.006999969482422 18.115999221801758,-7.788000106811523 C15.411999702453613,-20.58300018310547 7.571000099182129,-27.864999771118164 -2.9749999046325684,-26.51300048828125 C-15.609000205993652,-24.89299964904785 -18.386999130249023,-8.723999977111816 -18.386999130249023,-8.723999977111816z"></path><path stroke-linecap="butt" stroke-linejoin="miter" fill-opacity="0" stroke-miterlimit="10" stroke="rgb(36,106,206)" stroke-opacity="1" stroke-width="6" d=" M-18.386999130249023,-8.723999977111816 C-18.386999130249023,-8.723999977111816 -20.820999145507812,3.759000062942505 -16.224000930786133,12.496999740600586 C-11.626999855041504,21.235000610351562 -4.244999885559082,27.864999771118164 6.848999977111816,23.52400016784668 C17.485000610351562,19.363000869750977 20.81999969482422,5.006999969482422 18.115999221801758,-7.788000106811523 C15.411999702453613,-20.58300018310547 7.571000099182129,-27.864999771118164 -2.9749999046325684,-26.51300048828125 C-15.609000205993652,-24.89299964904785 -18.386999130249023,-8.723999977111816 -18.386999130249023,-8.723999977111816z"></path></g><g opacity="1" transform="matrix(1,0,0,1,350.6210021972656,185.26199340820312)"><path fill="rgb(26,11,40)" fill-opacity="1" d=" M-11.51200008392334,-5.175000190734863 C-11.51200008392334,-5.175000190734863 -13.03499984741211,2.2290000915527344 -10.157999992370605,7.413000106811523 C-7.28000020980835,12.595999717712402 -2.6579999923706055,16.52899932861328 4.288000106811523,13.954000473022461 C10.946999549865723,11.486000061035156 13.03499984741211,2.9709999561309814 11.342000007629395,-4.61899995803833 C9.64900016784668,-12.208999633789062 4.739999771118164,-16.527999877929688 -1.8630000352859497,-15.72599983215332 C-9.77299976348877,-14.765000343322754 -11.51200008392334,-5.175000190734863 -11.51200008392334,-5.175000190734863z"></path></g><g opacity="1" transform="matrix(1.0399999618530273,0,0,1.0399999618530273,429.2900085449219,143.61599731445312)"><path fill="rgb(255,255,255)" fill-opacity="1" d=" M-93.38500213623047,28.43600082397461 C-93.38500213623047,28.43600082397461 -94.16100311279297,32.25699996948242 -92.69499969482422,34.930999755859375 C-91.22799682617188,37.60499954223633 -88.87200164794922,39.63399887084961 -85.33200073242188,38.305999755859375 C-81.93900299072266,37.03200149536133 -80.8740005493164,32.638999938964844 -81.73799896240234,28.722999572753906 C-82.5999984741211,24.80699920654297 -85.10199737548828,22.577999114990234 -88.46700286865234,22.992000579833984 C-92.49800109863281,23.48699951171875 -93.38500213623047,28.43600082397461 -93.38500213623047,28.43600082397461z"></path></g><g opacity="1" transform="matrix(1.0399999618530273,0,0,1.0399999618530273,450.5830078125,163.03799438476562)"><path fill="rgb(255,255,255)" fill-opacity="1" d=" M-92.78299713134766,28.91900062561035 C-92.78299713134766,28.91900062561035 -93.2959976196289,31.441999435424805 -92.3280029296875,33.20800018310547 C-91.35900115966797,34.972999572753906 -89.80400085449219,36.3129997253418 -87.46700286865234,35.43600082397461 C-85.2249984741211,34.595001220703125 -84.52300262451172,31.694000244140625 -85.09300231933594,29.107999801635742 C-85.66300201416016,26.523000717163086 -87.31400299072266,25.051000595092773 -89.53600311279297,25.323999404907227 C-92.197998046875,25.652000427246094 -92.78299713134766,28.91900062561035 -92.78299713134766,28.91900062561035z"></path></g></g><g opacity="1" transform="matrix(1,0,0,1,344.43499755859375,177.4810028076172)"><path stroke-linecap="butt" stroke-linejoin="miter" fill-opacity="0" stroke-miterlimit="10" stroke="rgb(111,77,111)" stroke-opacity="1" stroke-width="7" d=" M-36.82600021362305,-14.789999961853027 C-38.689998626708984,-6.109000205993652 -38.67599868774414,7.493000030517578 -32.55799865722656,21.25 C-25.493000030517578,37.13999938964844 -9.307000160217285,46.777000427246094 12.22700023651123,39.56700134277344 C32.869998931884766,32.654998779296875 38.68899917602539,9.022000312805176 33.439998626708984,-12.232999801635742 C28.191999435424805,-33.487998962402344 13.25100040435791,-46.777000427246094 -7.239999771118164,-44.74399948120117 C-28.349000930786133,-42.650001525878906 -34.23699951171875,-26.844999313354492 -36.82600021362305,-14.789999961853027z"></path></g><g opacity="1" transform="matrix(1,0,0,1,339.91900634765625,153.9290008544922)"><path fill="rgb(26,11,40)" fill-opacity="1" d=" M-32.874000549316406,27.545000076293945 C-36.55500030517578,28.02899932861328 -43.034000396728516,-23.87299919128418 -2.4519999027252197,-26.215999603271484 C22.79400062561035,-27.67300033569336 36.13999938964844,-6.834000110626221 39.137001037597656,2.428999900817871 C42.13399887084961,11.692000389099121 40.4109992980957,21.823999404907227 40.4109992980957,21.823999404907227 C40.4109992980957,21.823999404907227 30.72800064086914,-11.194000244140625 10.83899974822998,-15.824999809265137 C-9.04800033569336,-20.45599937438965 -16.452999114990234,-12.96500015258789 -21.36400032043457,-8.053999900817871 C-29.263999938964844,-0.15299999713897705 -32.874000549316406,27.545000076293945 -32.874000549316406,27.545000076293945z"></path></g><g opacity="0" transform="matrix(1,0,0,1,0,0)"><path fill="rgb(249,214,186)" fill-opacity="1" d=" M334.4309997558594,129.50999450683594 C319.7250061035156,131.4709930419922 311.88299560546875,138.9459991455078 307.47100830078125,155.49000549316406 C303.54901123046875,170.1959991455078 306.9800109863281,184.90199279785156 306.9800109863281,184.90199279785156 C306.9800109863281,184.90199279785156 303.54901123046875,141.27499389648438 332.47100830078125,132.4510040283203 C361.4679870605469,123.60399627685547 379.4840087890625,164.4459991455078 376.0979919433594,155.97999572753906 C366.29400634765625,131.47000122070312 349.1369934082031,127.54900360107422 334.4309997558594,129.50999450683594z"></path><path stroke-linecap="butt" stroke-linejoin="miter" fill-opacity="0" stroke-miterlimit="4" stroke="rgb(182,95,48)" stroke-opacity="1" stroke-width="9" d=" M334.4309997558594,129.50999450683594 C319.7250061035156,131.4709930419922 311.88299560546875,138.9459991455078 307.47100830078125,155.49000549316406 C303.54901123046875,170.1959991455078 306.9800109863281,184.90199279785156 306.9800109863281,184.90199279785156 C306.9800109863281,184.90199279785156 303.54901123046875,141.27499389648438 332.47100830078125,132.4510040283203 C361.4679870605469,123.60399627685547 379.4840087890625,164.4459991455078 376.0979919433594,155.97999572753906 C366.29400634765625,131.47000122070312 349.1369934082031,127.54900360107422 334.4309997558594,129.50999450683594z"></path></g><g opacity="1" transform="matrix(1,0,0,1,376.82501220703125,207.28500366210938)"><path fill="rgb(245,187,147)" fill-opacity="1" d=" M-40.21799850463867,22.625 C-40.21799850463867,22.625 -21.990999221801758,-3.369999885559082 -9.657999992370605,-10.109000205993652 C2.6760001182556152,-16.847999572753906 15.35099983215332,-15.293000221252441 15.35099983215332,-15.293000221252441 C15.35099983215332,-15.293000221252441 18.761999130249023,-8.295000076293945 18.761999130249023,-8.295000076293945 C18.761999130249023,-8.295000076293945 3.0179998874664307,6.998000144958496 3.0179998874664307,6.998000144958496 C3.0179998874664307,6.998000144958496 -17.9060001373291,20.033000946044922 -17.9060001373291,20.033000946044922 C-17.9060001373291,20.033000946044922 -40.21799850463867,22.625 -40.21799850463867,22.625z"></path></g><g opacity="1" transform="matrix(1,0,0,1,373.5610046386719,208.39199829101562)"><path stroke-linecap="round" stroke-linejoin="round" fill-opacity="0" stroke="rgb(182,95,48)" stroke-opacity="1" stroke-width="12" d=" M-31.21299934387207,14.199000358581543 C-31.21299934387207,14.199000358581543 -25.0310001373291,-2.00600004196167 -11.270000457763672,-9.581000328063965 C4.835000038146973,-18.344999313354492 19.05500030517578,-18.875999450683594 19.05500030517578,-18.875999450683594"></path></g></g><g style="display: block;" transform="matrix(1.256764531135559,0,0,1.2620900869369507,-84.36029052734375,-71.8416748046875)" opacity="1"><g opacity="1" transform="matrix(1,0,0,1,253.0749969482422,214.42300415039062)"><path fill="rgb(255,255,255)" fill-opacity="1" d=" M-33.10599899291992,-13.98799991607666 C-33.10599899291992,-13.98799991607666 -37.582000732421875,7.052999973297119 -29.48699951171875,21.176000595092773 C-20.950000762939453,36.069000244140625 -7.609000205993652,44.678001403808594 12.394000053405762,37.71799850463867 C31.56999969482422,31.04599952697754 37.582000732421875,8.029000282287598 32.707000732421875,-12.487000465393066 C27.832000732421875,-33.00199890136719 13.694000244140625,-44.678001403808594 -5.318999767303467,-42.50899887084961 C-28.09600067138672,-39.9119987487793 -33.10599899291992,-13.98799991607666 -33.10599899291992,-13.98799991607666z"></path><path stroke-linecap="butt" stroke-linejoin="miter" fill-opacity="0" stroke-miterlimit="10" stroke="rgb(111,77,111)" stroke-opacity="1" stroke-width="9" d=" M-33.10599899291992,-13.98799991607666 C-33.10599899291992,-13.98799991607666 -37.582000732421875,7.052999973297119 -29.48699951171875,21.176000595092773 C-20.950000762939453,36.069000244140625 -7.609000205993652,44.678001403808594 12.394000053405762,37.71799850463867 C31.56999969482422,31.04599952697754 37.582000732421875,8.029000282287598 32.707000732421875,-12.487000465393066 C27.832000732421875,-33.00199890136719 13.694000244140625,-44.678001403808594 -5.318999767303467,-42.50899887084961 C-28.09600067138672,-39.9119987487793 -33.10599899291992,-13.98799991607666 -33.10599899291992,-13.98799991607666z"></path></g><g opacity="1" transform="matrix(1,0,0,1,0,0)"><g opacity="1" transform="matrix(1,0,0,1,261.7139892578125,217.56700134277344)"><path fill="rgb(82,145,244)" fill-opacity="1" d=" M-17.191999435424805,-7.456999778747559 C-17.191999435424805,-7.456999778747559 -19.466999053955078,3.2130000591278076 -15.168999671936035,10.682999610900879 C-10.871000289916992,18.152000427246094 -3.9679999351501465,23.81800079345703 6.406000137329102,20.107999801635742 C16.350000381469727,16.551000595092773 19.468000411987305,4.28000020980835 16.940000534057617,-6.6570000648498535 C14.411999702453613,-17.5939998626709 7.078999996185303,-23.81800079345703 -2.7809998989105225,-22.66200065612793 C-14.593000411987305,-21.277000427246094 -17.191999435424805,-7.456999778747559 -17.191999435424805,-7.456999778747559z"></path><path stroke-linecap="butt" stroke-linejoin="miter" fill-opacity="0" stroke-miterlimit="10" stroke="rgb(36,106,206)" stroke-opacity="1" stroke-width="5" d=" M-17.191999435424805,-7.456999778747559 C-17.191999435424805,-7.456999778747559 -19.466999053955078,3.2130000591278076 -15.168999671936035,10.682999610900879 C-10.871000289916992,18.152000427246094 -3.9679999351501465,23.81800079345703 6.406000137329102,20.107999801635742 C16.350000381469727,16.551000595092773 19.468000411987305,4.28000020980835 16.940000534057617,-6.6570000648498535 C14.411999702453613,-17.5939998626709 7.078999996185303,-23.81800079345703 -2.7809998989105225,-22.66200065612793 C-14.593000411987305,-21.277000427246094 -17.191999435424805,-7.456999778747559 -17.191999435424805,-7.456999778747559z"></path></g><g opacity="1" transform="matrix(1,0,0,1,262.64300537109375,216.91400146484375)"><path fill="rgb(26,11,40)" fill-opacity="1" d=" M-9.562999725341797,-4.343999862670898 C-9.562999725341797,-4.343999862670898 -10.829000473022461,1.871000051498413 -8.437999725341797,6.2210001945495605 C-6.046999931335449,10.571999549865723 -2.2079999446868896,13.873000144958496 3.562999963760376,11.711999893188477 C9.093999862670898,9.640000343322754 10.829000473022461,2.492000102996826 9.42199993133545,-3.878000020980835 C8.015999794006348,-10.248000144958496 3.937999963760376,-13.871999740600586 -1.5470000505447388,-13.199000358581543 C-8.118000030517578,-12.392000198364258 -9.562999725341797,-4.343999862670898 -9.562999725341797,-4.343999862670898z"></path></g><g opacity="1" transform="matrix(1,0,0,1,251.7729949951172,211.7220001220703)"><path fill="rgb(255,255,255)" fill-opacity="1" d=" M-5.867000102996826,-2.6700000762939453 C-5.867000102996826,-2.6700000762939453 -6.644000053405762,1.1510000228881836 -5.177999973297119,3.825000047683716 C-3.7109999656677246,6.499000072479248 -1.3539999723434448,8.527999877929688 2.186000108718872,7.199999809265137 C5.578999996185303,5.926000118255615 6.64300012588501,1.5329999923706055 5.7789998054504395,-2.382999897003174 C4.916999816894531,-6.298999786376953 2.4159998893737793,-8.527999877929688 -0.9490000009536743,-8.11400032043457 C-4.980000019073486,-7.61899995803833 -5.867000102996826,-2.6700000762939453 -5.867000102996826,-2.6700000762939453z"></path></g><g opacity="1" transform="matrix(1,0,0,1,270.6730041503906,225.72000122070312)"><path fill="rgb(255,255,255)" fill-opacity="1" d=" M-3.874000072479248,-1.7630000114440918 C-3.874000072479248,-1.7630000114440918 -4.38700008392334,0.7599999904632568 -3.4189999103546143,2.5260000228881836 C-2.450000047683716,4.290999889373779 -0.8949999809265137,5.63100004196167 1.4420000314712524,4.754000186920166 C3.684000015258789,3.9130001068115234 4.386000156402588,1.0119999647140503 3.815999984741211,-1.5740000009536743 C3.246000051498413,-4.158999919891357 1.5950000286102295,-5.63100004196167 -0.6269999742507935,-5.357999801635742 C-3.2890000343322754,-5.03000020980835 -3.874000072479248,-1.7630000114440918 -3.874000072479248,-1.7630000114440918z"></path></g></g><g opacity="1" transform="matrix(1,0,0,1,244.65699768066406,191.77000427246094)"><path fill="rgb(26,11,40)" fill-opacity="1" d=" M35.25199890136719,-5.078999996185303 C35.25199890136719,-5.078999996185303 30.46500015258789,-32.82500076293945 -6.956999778747559,-20.475000381469727 C-22.738000869750977,-15.267000198364258 -28.547000885009766,3.068000078201294 -28.913000106811523,16.719999313354492 C-29.167999267578125,26.219999313354492 -23.958999633789062,32.957000732421875 -23.958999633789062,32.957000732421875 C-23.958999633789062,32.957000732421875 -26.134000778198242,16.104000091552734 -18.398000717163086,1.475000023841858 C-14.335000038146973,-6.209000110626221 -10.460000038146973,-12.15999984741211 -2.374000072479248,-14.423999786376953 C2.1659998893737793,-15.694999694824219 8.020000457763672,-16.503000259399414 11.428999900817871,-16.05900001525879 C28.138999938964844,-13.878999710083008 35.25199890136719,-5.078999996185303 35.25199890136719,-5.078999996185303z"></path></g><g opacity="0" transform="matrix(1,0,0,1,0,0)"><path fill="rgb(249,214,186)" fill-opacity="1" d=" M252.20899963378906,167.90199279785156 C224.74400329589844,168.78399658203125 219.5189971923828,195.73800659179688 218.5709991455078,208.4759979248047 C217.9320068359375,217.06300354003906 219.51800537109375,168.37399291992188 255.052001953125,171.2050018310547 C285.4100036621094,173.6230010986328 286.7950134277344,212.25 287.7430114746094,210.8350067138672 C289.7959899902344,207.76800537109375 287.2690124511719,202.34300231933594 287.2690124511719,202.34300231933594 C287.2690124511719,202.34300231933594 281.5840148925781,166.95799255371094 252.20899963378906,167.90199279785156z"></path><path stroke-linecap="butt" stroke-linejoin="miter" fill-opacity="0" stroke-miterlimit="4" stroke="rgb(182,95,48)" stroke-opacity="1" stroke-width="9" d=" M252.20899963378906,167.90199279785156 C224.74400329589844,168.78399658203125 219.5189971923828,195.73800659179688 218.5709991455078,208.4759979248047 C217.9320068359375,217.06300354003906 219.51800537109375,168.37399291992188 255.052001953125,171.2050018310547 C285.4100036621094,173.6230010986328 286.7950134277344,212.25 287.7430114746094,210.8350067138672 C289.7959899902344,207.76800537109375 287.2690124511719,202.34300231933594 287.2690124511719,202.34300231933594 C287.2690124511719,202.34300231933594 281.5840148925781,166.95799255371094 252.20899963378906,167.90199279785156z"></path></g><g opacity="1" transform="matrix(1,0,0,1,253.71400451660156,255.5970001220703)"><path fill="rgb(245,187,147)" fill-opacity="1" d=" M-21.82900047302246,-4.561999797821045 C-21.82900047302246,-4.561999797821045 -15.642000198364258,-13.583000183105469 -0.6930000185966492,-12.552000045776367 C14.255999565124512,-11.520999908447266 23.020000457763672,-7.65500020980835 25.082000732421875,-7.138999938964844 C27.143999099731445,-6.624000072479248 30.75200080871582,-6.366000175476074 30.75200080871582,-6.366000175476074 C30.75200080871582,-6.366000175476074 27.400999069213867,1.625 27.400999069213867,1.625 C27.400999069213867,1.625 0.8539999723434448,10.270999908447266 0.8539999723434448,10.270999908447266 C0.8539999723434448,10.270999908447266 -21.312999725341797,3.427999973297119 -21.312999725341797,3.427999973297119 C-21.312999725341797,3.427999973297119 -21.82900047302246,-4.561999797821045 -21.82900047302246,-4.561999797821045z"></path></g><g opacity="1" transform="matrix(1,0,0,1,250.87899780273438,251.8489990234375)"><path stroke-linecap="round" stroke-linejoin="round" fill-opacity="0" stroke="rgb(182,95,48)" stroke-opacity="1" stroke-width="12" d=" M-27.009000778198242,1.4329999685287476 C-27.009000778198242,1.4329999685287476 -15.46500015258789,-11.02400016784668 5.189000129699707,-10.956999778747559 C20.350000381469727,-10.8149995803833 31.982999801635742,-3.9739999771118164 31.982999801635742,-3.9739999771118164"></path></g></g><g style="display: block;" transform="matrix(1.1428560018539429,0,0,1.1428560018539429,-41.08428955078125,-30.57061195373535)" opacity="1"><g opacity="1" transform="matrix(1.0448297262191772,0.011215398088097572,-0.010733569040894508,0.999942421913147,-11.99237060546875,2.06982421875)"><g opacity="1" transform="matrix(1,0,0,1,322.114013671875,298.63800048828125)"><path stroke-linecap="round" stroke-linejoin="round" fill-opacity="0" stroke="rgb(195,96,41)" stroke-opacity="1" stroke-width="11" d=" M-25.775999069213867,1.9620000123977661 C-25.775999069213867,1.9620000123977661 -13.876999855041504,4.568999767303467 2.2769999504089355,2.1640000343322754 C18.429000854492188,-0.24199999868869781 25.774999618530273,-4.568999767303467 25.774999618530273,-4.568999767303467"></path></g><g opacity="1" transform="matrix(1,0,0,1,320.12200927734375,274.7380065917969)"><path fill="rgb(251,224,201)" fill-opacity="1" d=" M-46.58700180053711,8.444999694824219 C-46.58700180053711,8.444999694824219 -25.336999893188477,22.975000381469727 5.176000118255615,13.531000137329102 C35.68899917602539,4.086999893188477 46.58700180053711,-22.975000381469727 46.58700180053711,-22.975000381469727 C46.58700180053711,-22.975000381469727 30.05900001525879,-0.9980000257492065 -0.09099999815225601,5.177000045776367 C-27.250999450683594,10.739999771118164 -46.58700180053711,8.444999694824219 -46.58700180053711,8.444999694824219z"></path></g><g opacity="1" transform="matrix(1,0,0,1,383.41900634765625,218.2010040283203)"><path stroke-linecap="round" stroke-linejoin="round" fill-opacity="0" stroke="rgb(223,116,56)" stroke-opacity="1" stroke-width="9" d=" M-10.352999687194824,3.2300000190734863 C-10.352999687194824,3.2300000190734863 -5.99399995803833,-1.4910000562667847 1.2710000276565552,-2.5810000896453857 C5.5970001220703125,-3.2300000190734863 10.352999687194824,-2.2179999351501465 10.352999687194824,-2.2179999351501465"></path></g><g opacity="1" transform="matrix(1,0,0,1,254.46400451660156,269.73699951171875)"><path stroke-linecap="round" stroke-linejoin="round" fill-opacity="0" stroke="rgb(223,116,56)" stroke-opacity="1" stroke-width="9" d=" M-9.98900032043457,4.184000015258789 C-9.98900032043457,4.184000015258789 -6.718999862670898,-2.3540000915527344 0.18299999833106995,-3.444000005722046 C4.861000061035156,-4.183000087738037 9.98900032043457,-3.0820000171661377 9.98900032043457,-3.0820000171661377"></path></g><g opacity="1" transform="matrix(1,0,0,1,317.75,253.04800415039062)"><path stroke-linecap="round" stroke-linejoin="round" fill-opacity="0" stroke="rgb(164,69,40)" stroke-opacity="1" stroke-width="12" d=" M-64.03500366210938,18.614999771118164 C-64.03500366210938,18.614999771118164 -32.417999267578125,32.70600128173828 4.697999954223633,22.05299949645996 C41.814998626708984,11.39799976348877 58.99800109863281,-21.593000411987305 61.060001373291016,-25.716999053955078 C63.12200164794922,-29.840999603271484 64.03399658203125,-32.70600128173828 64.03399658203125,-32.70600128173828"></path></g></g></g><g style="display: block;" transform="matrix(1.256764531135559,0,0,1.2620900869369507,-84.36029052734375,-71.8416748046875)" opacity="1"><g opacity="1" transform="matrix(1,0,0,1,305.6090087890625,99.42500305175781)"><path fill="rgb(104,55,19)" fill-opacity="1" d=" M-0.09700000286102295,7.729000091552734 C-0.09700000286102295,7.729000091552734 7.5229997634887695,2.253999948501587 17.275999069213867,3.5510001182556152 C27.027999877929688,4.8480000495910645 33.2760009765625,8.305000305175781 35.71500015258789,9.312999725341797 C38.15299987792969,10.321999549865723 40.895999908447266,11.619000434875488 41.35300064086914,10.034000396728516 C41.810001373291016,8.449000358581543 29.31399917602539,-0.7710000276565552 22.457000732421875,-3.364000082015991 C15.598999977111816,-5.958000183105469 9.35099983215332,-4.517000198364258 5.999000072479248,-2.2119998931884766 C2.6459999084472656,0.09300000220537186 -2.5350000858306885,5.423999786376953 -2.8399999141693115,6.144000053405762 C-3.1449999809265137,6.864999771118164 -3.9070000648498535,7.008999824523926 -2.5350000858306885,8.017000198364258 C-1.1629999876022339,9.024999618530273 -0.09700000286102295,7.729000091552734 -0.09700000286102295,7.729000091552734z"></path><path stroke-linecap="butt" stroke-linejoin="miter" fill-opacity="0" stroke-miterlimit="10" stroke="rgb(75,55,23)" stroke-opacity="1" stroke-width="6" d=" M-0.09700000286102295,7.729000091552734 C-0.09700000286102295,7.729000091552734 7.5229997634887695,2.253999948501587 17.275999069213867,3.5510001182556152 C27.027999877929688,4.8480000495910645 33.2760009765625,8.305000305175781 35.71500015258789,9.312999725341797 C38.15299987792969,10.321999549865723 40.895999908447266,11.619000434875488 41.35300064086914,10.034000396728516 C41.810001373291016,8.449000358581543 29.31399917602539,-0.7710000276565552 22.457000732421875,-3.364000082015991 C15.598999977111816,-5.958000183105469 9.35099983215332,-4.517000198364258 5.999000072479248,-2.2119998931884766 C2.6459999084472656,0.09300000220537186 -2.5350000858306885,5.423999786376953 -2.8399999141693115,6.144000053405762 C-3.1449999809265137,6.864999771118164 -3.9070000648498535,7.008999824523926 -2.5350000858306885,8.017000198364258 C-1.1629999876022339,9.024999618530273 -0.09700000286102295,7.729000091552734 -0.09700000286102295,7.729000091552734z"></path></g><g opacity="1" transform="matrix(1,0,0,1,224.83200073242188,142.55999755859375)"><path fill="rgb(104,55,19)" fill-opacity="1" d=" M-10.213000297546387,13.723999977111816 C-10.213000297546387,13.723999977111816 -12.33899974822998,2.51200008392334 -9.605999946594238,-5.736000061035156 C-6.870999813079834,-13.984000205993652 1.024999976158142,-15.529000282287598 5.732999801635742,-15.079000473022461 C10.4399995803833,-14.628000259399414 11.730999946594238,-13.532999992370605 12.03499984741211,-13.081999778747559 C12.33899974822998,-12.630999565124512 12.33899974822998,-11.276000022888184 10.895999908447266,-11.14799976348877 C9.76099967956543,-11.045999526977539 2.9240000247955322,-10.118000030517578 -0.796999990940094,-4.51200008392334 C-4.51800012588501,1.0950000286102295 -6.263999938964844,8.505000114440918 -6.566999912261963,10.888999938964844 C-6.870999813079834,13.27299976348877 -6.190000057220459,15.319999694824219 -7.706999778747559,15.401000022888184 C-10.13700008392334,15.529999732971191 -10.213000297546387,13.723999977111816 -10.213000297546387,13.723999977111816z"></path><path stroke-linecap="butt" stroke-linejoin="miter" fill-opacity="0" stroke-miterlimit="10" stroke="rgb(75,55,23)" stroke-opacity="1" stroke-width="6" d=" M-10.213000297546387,13.723999977111816 C-10.213000297546387,13.723999977111816 -12.33899974822998,2.51200008392334 -9.605999946594238,-5.736000061035156 C-6.870999813079834,-13.984000205993652 1.024999976158142,-15.529000282287598 5.732999801635742,-15.079000473022461 C10.4399995803833,-14.628000259399414 11.730999946594238,-13.532999992370605 12.03499984741211,-13.081999778747559 C12.33899974822998,-12.630999565124512 12.33899974822998,-11.276000022888184 10.895999908447266,-11.14799976348877 C9.76099967956543,-11.045999526977539 2.9240000247955322,-10.118000030517578 -0.796999990940094,-4.51200008392334 C-4.51800012588501,1.0950000286102295 -6.263999938964844,8.505000114440918 -6.566999912261963,10.888999938964844 C-6.870999813079834,13.27299976348877 -6.190000057220459,15.319999694824219 -7.706999778747559,15.401000022888184 C-10.13700008392334,15.529999732971191 -10.213000297546387,13.723999977111816 -10.213000297546387,13.723999977111816z"></path></g></g><g style="display: block;" transform="matrix(1.065996766090393,0,0,1.065996766090393,-9.029389381408691,-55.55263900756836)" opacity="1"><g opacity="1" transform="matrix(1,0,0,1,139.7449951171875,309.9620056152344)"><path fill="rgb(236,238,247)" fill-opacity="1" d=" M-73.85600280761719,0.19599999487400055 C-73.85600280761719,0.19599999487400055 -61.805999755859375,46.801998138427734 -24.364999771118164,60.02799987792969 C-7.1020002365112305,66.14800262451172 17.29400062561035,61.321998596191406 30.82200050354004,56.672000885009766 C40.805999755859375,53.25299835205078 50.992000579833984,46.95800018310547 54.388999938964844,44.2130012512207 C60.97999954223633,38.87900161743164 72.0979995727539,27.687000274658203 76.03099822998047,5.138999938964844 C79.61900329589844,-15.420000076293945 77.38999938964844,-31.173999786376953 67.21199798583984,-47.9379997253418 C57.08000183105469,-64.5780029296875 10.550999641418457,-56.33599853515625 -9.383000373840332,-50.84400177001953 C-29.5310001373291,-45.29600143432617 -57.928001403808594,-34.558998107910156 -69.83000183105469,-23.49799919128418 C-80.58699798583984,-13.52299976348877 -73.85600280761719,0.19599999487400055 -73.85600280761719,0.19599999487400055z"></path><path stroke-linecap="butt" stroke-linejoin="miter" fill-opacity="0" stroke-miterlimit="10" stroke="rgb(105,99,157)" stroke-opacity="1" stroke-width="11" d=" M-73.85600280761719,0.19599999487400055 C-73.85600280761719,0.19599999487400055 -61.805999755859375,46.801998138427734 -24.364999771118164,60.02799987792969 C-7.1020002365112305,66.14800262451172 17.29400062561035,61.321998596191406 30.82200050354004,56.672000885009766 C40.805999755859375,53.25299835205078 50.992000579833984,46.95800018310547 54.388999938964844,44.2130012512207 C60.97999954223633,38.87900161743164 72.0979995727539,27.687000274658203 76.03099822998047,5.138999938964844 C79.61900329589844,-15.420000076293945 77.38999938964844,-31.173999786376953 67.21199798583984,-47.9379997253418 C57.08000183105469,-64.5780029296875 10.550999641418457,-56.33599853515625 -9.383000373840332,-50.84400177001953 C-29.5310001373291,-45.29600143432617 -57.928001403808594,-34.558998107910156 -69.83000183105469,-23.49799919128418 C-80.58699798583984,-13.52299976348877 -73.85600280761719,0.19599999487400055 -73.85600280761719,0.19599999487400055z"></path></g><g opacity="1" transform="matrix(1,0,0,1,140.1320037841797,290.81298828125)"><path fill="rgb(111,54,16)" fill-opacity="1" d=" M-50.691001892089844,14.185999870300293 C-50.691001892089844,14.185999870300293 -21.985000610351562,18.461999893188477 11.350000381469727,7.809000015258789 C44.68600082397461,-2.8440001010894775 50.691001892089844,-13.651000022888184 50.691001892089844,-13.651000022888184 C50.691001892089844,-13.651000022888184 34.88199996948242,-18.461999893188477 -1.8899999856948853,-10.21399974822998 C-38.66299819946289,-1.965999960899353 -50.691001892089844,14.185999870300293 -50.691001892089844,14.185999870300293z"></path></g><g opacity="1" transform="matrix(1,0,0,1,74.05899810791016,341.7720031738281)"><path fill="rgb(236,238,247)" fill-opacity="1" d=" M11.944999694824219,-21.650999069213867 C11.944999694824219,-21.650999069213867 2.6670000553131104,-28.180999755859375 -13.142999649047852,-20.621000289916992 C-28.951000213623047,-13.059000015258789 -21.735000610351562,7.560999870300293 -15.204000473022461,15.809000015258789 C-8.675000190734863,24.05699920654297 0.17399999499320984,28.180999755859375 9.79800033569336,27.493999481201172 C19.420000076293945,26.805999755859375 25.691999435424805,21.822999954223633 27.066999435424805,19.76099967956543 C27.295000076293945,19.41900062561035 27.524999618530273,19.077999114990234 27.750999450683594,18.7450008392334 C28.951000213623047,16.975000381469727 28.589000701904297,14.581000328063965 26.922000885009766,13.243000030517578 C26.922000885009766,13.243000030517578 22.632999420166016,9.79699993133545 22.632999420166016,9.79699993133545 C21.05299949645996,8.527999877929688 18.839000701904297,8.392999649047852 17.13599967956543,9.491000175476074 C13.03499984741211,12.133999824523926 6.388000011444092,15.722000122070312 -0.4269999861717224,12.800999641418457 C-10.048999786376953,8.677000045776367 -11.395999908447266,-2.4110000133514404 -7.98799991607666,-6.53000020980835 C-3.2780001163482666,-12.220999717712402 3.240999937057495,-11.11400032043457 6.576000213623047,-10.654000282287598 C7.9120001792907715,-10.468999862670898 10.442000389099121,-10.137999534606934 12.116999626159668,-10.782999992370605 C14.055000305175781,-11.527999877929688 15.27400016784668,-13.79699993133545 15.33899974822998,-15.680000305175781 C15.467000007629395,-19.417999267578125 11.944999694824219,-21.650999069213867 11.944999694824219,-21.650999069213867z"></path><path stroke-linecap="butt" stroke-linejoin="miter" fill-opacity="0" stroke-miterlimit="10" stroke="rgb(105,99,157)" stroke-opacity="1" stroke-width="8" d=" M11.944999694824219,-21.650999069213867 C11.944999694824219,-21.650999069213867 2.6670000553131104,-28.180999755859375 -13.142999649047852,-20.621000289916992 C-28.951000213623047,-13.059000015258789 -21.735000610351562,7.560999870300293 -15.204000473022461,15.809000015258789 C-8.675000190734863,24.05699920654297 0.17399999499320984,28.180999755859375 9.79800033569336,27.493999481201172 C19.420000076293945,26.805999755859375 25.691999435424805,21.822999954223633 27.066999435424805,19.76099967956543 C27.295000076293945,19.41900062561035 27.524999618530273,19.077999114990234 27.750999450683594,18.7450008392334 C28.951000213623047,16.975000381469727 28.589000701904297,14.581000328063965 26.922000885009766,13.243000030517578 C26.922000885009766,13.243000030517578 22.632999420166016,9.79699993133545 22.632999420166016,9.79699993133545 C21.05299949645996,8.527999877929688 18.839000701904297,8.392999649047852 17.13599967956543,9.491000175476074 C13.03499984741211,12.133999824523926 6.388000011444092,15.722000122070312 -0.4269999861717224,12.800999641418457 C-10.048999786376953,8.677000045776367 -11.395999908447266,-2.4110000133514404 -7.98799991607666,-6.53000020980835 C-3.2780001163482666,-12.220999717712402 3.240999937057495,-11.11400032043457 6.576000213623047,-10.654000282287598 C7.9120001792907715,-10.468999862670898 10.442000389099121,-10.137999534606934 12.116999626159668,-10.782999992370605 C14.055000305175781,-11.527999877929688 15.27400016784668,-13.79699993133545 15.33899974822998,-15.680000305175781 C15.467000007629395,-19.417999267578125 11.944999694824219,-21.650999069213867 11.944999694824219,-21.650999069213867z"></path></g><g opacity="1" transform="matrix(1,0,0,1,71.83999633789062,323.7770080566406)"><path fill="rgb(255,255,255)" fill-opacity="1" d=" M-3.813999891281128,-2.180000066757202 C-1.187000036239624,-2.7730000019073486 2.996999979019165,-3.4049999713897705 7.627999782562256,-2.315000057220459 C12.258999824523926,-1.2259999513626099 12.125,1.3619999885559082 11.307000160217285,2.0429999828338623 C10.489999771118164,2.7239999771118164 5.7220001220703125,2.7239999771118164 1.3630000352859497,2.7239999771118164 C-2.996000051498413,2.7239999771118164 -7.084000110626221,3.4049999713897705 -8.854000091552734,3.4049999713897705 C-10.62600040435791,3.4049999713897705 -12.260000228881836,1.3619999885559082 -9.53600025177002,0.13500000536441803 C-6.810999870300293,-1.090000033378601 -5.443999767303467,-1.812999963760376 -3.813999891281128,-2.180000066757202z"></path></g><g opacity="1" transform="matrix(1,0,0,1,97.26799774169922,297.59100341796875)"><path fill="rgb(255,255,255)" fill-opacity="1" d=" M-10.897000312805176,-17.948999404907227 C-10.897000312805176,-17.948999404907227 -31.329999923706055,-6.86899995803833 -30.239999771118164,3.2109999656677246 C-29.329999923706055,11.633999824523926 -18.16200065612793,17.947999954223633 3.0880000591278076,17.104999542236328 C24.33799934387207,16.260000228881836 31.33099937438965,11.520999908447266 31.33099937438965,11.520999908447266 C31.33099937438965,11.520999908447266 27.97100067138672,9.071999549865723 27.97100067138672,9.071999549865723 C27.97100067138672,9.071999549865723 -8.717000007629395,13.461000442504883 -18.524999618530273,5.355000019073486 C-27.006999969482422,-1.6549999713897705 -20.388999938964844,-8.954000473022461 -17.253000259399414,-11.869000434875488 C-14.529999732971191,-14.402000427246094 -10.897000312805176,-17.948999404907227 -10.897000312805176,-17.948999404907227z"></path></g><g opacity="1" transform="matrix(1,0,0,1,88.8219985961914,327.5459899902344)"><path fill="rgb(236,238,247)" fill-opacity="1" d=" M0.5450000166893005,-8.944999694824219 C0.5450000166893005,-8.944999694824219 1.4529999494552612,-5.675000190734863 0.09099999815225601,-4.676000118255615 C-1.3639999628067017,-3.609999895095825 -3.2690000534057617,-4.131999969482422 -3.2690000534057617,-4.131999969482422 C-3.2690000534057617,-4.131999969482422 -5.448999881744385,-0.04600000008940697 -5.448999881744385,-0.04600000008940697 C-5.448999881744385,-0.04600000008940697 -7.492000102996826,0.7720000147819519 -7.492000102996826,0.7720000147819519 C-7.492000102996826,0.7720000147819519 -3.950000047683716,2.4070000648498535 -4.494999885559082,4.314000129699707 C-5.039999961853027,6.2210001945495605 -6.267000198364258,6.765999794006348 -6.267000198364258,6.765999794006348 C-6.267000198364258,6.765999794006348 2.4519999027252197,8.946000099182129 2.4519999027252197,8.946000099182129 C2.4519999027252197,8.946000099182129 7.492000102996826,2.4070000648498535 7.492000102996826,2.4070000648498535 C7.492000102996826,2.4070000648498535 0.5450000166893005,-8.944999694824219 0.5450000166893005,-8.944999694824219z"></path></g><g opacity="1" transform="matrix(1,0,0,1,99.26499938964844,351.88299560546875)"><path fill="rgb(236,238,247)" fill-opacity="1" d=" M-6.673999786376953,1.4989999532699585 C-6.673999786376953,1.4989999532699585 -4.585999965667725,0.27300000190734863 -5.539999961853027,-1.906000018119812 C-6.251999855041504,-3.5329999923706055 -8.763999938964844,-3.132999897003174 -8.763999938964844,-3.132999897003174 C-8.763999938964844,-3.132999897003174 -2.9509999752044678,-7.083000183105469 -2.9509999752044678,-7.083000183105469 C-2.9509999752044678,-7.083000183105469 4.541999816894531,-3.2690000534057617 4.541999816894531,-3.2690000534057617 C4.541999816894531,-3.2690000534057617 8.763999938964844,3.2699999809265137 8.763999938964844,3.2699999809265137 C8.763999938964844,3.2699999809265137 6.176000118255615,4.223999977111816 6.176000118255615,4.223999977111816 C6.176000118255615,4.223999977111816 4.166999816894531,3.2230000495910645 2.3610000610351562,4.314000129699707 C0.5550000071525574,5.406000137329102 0.8180000185966492,6.539000034332275 0.8180000185966492,6.539000034332275 C0.8180000185966492,6.539000034332275 -4.040999889373779,7.083000183105469 -4.040999889373779,7.083000183105469 C-4.040999889373779,7.083000183105469 -6.673999786376953,1.4989999532699585 -6.673999786376953,1.4989999532699585z"></path></g><g opacity="1" transform="matrix(1,0,0,1,136.7570037841797,288.1709899902344)"><path stroke-linecap="round" stroke-linejoin="round" fill-opacity="0" stroke="rgb(105,99,157)" stroke-opacity="1" stroke-width="12" d=" M-58.01499938964844,10.45199966430664 C-58.01499938964844,10.45199966430664 -59.79100036621094,23.33099937438965 -11.156000137329102,17.26300048828125 C35.430999755859375,11.451000213623047 51.41400146484375,-3.986999988555908 55.77299880981445,-11.887999534606934 C59.79100036621094,-19.170000076293945 59.40599822998047,-23.33099937438965 59.40599822998047,-23.33099937438965"></path></g><g opacity="0.3" transform="matrix(1,0,0,1,0,0)"><path stroke-linecap="butt" stroke-linejoin="miter" fill-opacity="0" stroke-miterlimit="4" stroke="rgb(105,99,157)" stroke-opacity="1" stroke-width="13" d=" M196.1020050048828,351.95001220703125 C196.1020050048828,351.95001220703125 190.29100036621094,355.0769958496094 183.70599365234375,358.7879943847656 C169.0050048828125,367.072998046875 166.89700317382812,366.60198974609375 148.51499938964844,369.7900085449219 C134.70799255371094,372.1839904785156 115.17400360107422,367.4670104980469 117.58499908447266,368.9219970703125 C119.99600219726562,370.37701416015625 123.28600311279297,370.6289978027344 123.28600311279297,370.6289978027344"></path></g></g><g style="display: block;" transform="matrix(0.8648639917373657,0,0,0.8648639917373657,5.851070880889893,14.8996000289917)" opacity="1"><g opacity="1" transform="matrix(1.0700000524520874,0,0,1.0700000524520874,-3.8802413940429688,-27.412017822265625)"><g opacity="1" transform="matrix(1,0,0,1,59.42399978637695,409.95098876953125)"><path fill="rgb(245,187,147)" fill-opacity="1" d=" M-49.439998626708984,13.90999984741211 C-49.654998779296875,13.196999549865723 -49.926998138427734,12.517000198364258 -49.68199920654297,11.8149995803833 C-47.39500045776367,5.260000228881836 -34.694000244140625,-28.336000442504883 -12.083000183105469,-36.388999938964844 C13.005000114440918,-45.32400131225586 29.329999923706055,-45.49700164794922 38.95199966430664,-37.249000549316406 C48.57500076293945,-29.000999450683594 46.512001037597656,-19.722000122070312 45.82600021362305,-16.972999572753906 C45.448001861572266,-15.46399974822998 44.45000076293945,-13.85200023651123 43.625,-12.70300006866455 C42.98699951171875,-11.814000129699707 43.025001525878906,-10.595000267028809 43.73500061035156,-9.76200008392334 C45.99700164794922,-7.110000133514404 49.926998138427734,-0.6840000152587891 45.82600021362305,8.803000450134277 C40.32699966430664,21.51799964904785 28.986000061035156,20.48699951171875 26.236000061035156,20.48699951171875 C24.62700080871582,20.48699951171875 22.430999755859375,20.016000747680664 20.885000228881836,19.625999450683594 C19.79800033569336,19.35099983215332 18.66699981689453,19.85700035095215 18.149999618530273,20.851999282836914 C16.253000259399414,24.488000869750977 0.9269999861717224,27.788000106811523 -4.914999961853027,31.94499969482422 C-9.732000350952148,35.374000549316406 -23.006999969482422,34.38100051879883 -35.25,27.19300079345703 C-43.573001861572266,22.305999755859375 -47.61199951171875,19.986000061035156 -49.439998626708984,13.90999984741211z"></path></g><g opacity="1" transform="matrix(1,0,0,1,59.42399978637695,409.95098876953125)"><path stroke-linecap="butt" stroke-linejoin="miter" fill-opacity="0" stroke-miterlimit="10" stroke="rgb(182,95,48)" stroke-opacity="1" stroke-width="11" d=" M-53.74800109863281,5.415999889373779 C-54.069000244140625,4.74399995803833 -49.926998138427734,12.517000198364258 -49.68199920654297,11.8149995803833 C-47.39500045776367,5.260000228881836 -34.694000244140625,-28.336000442504883 -12.083000183105469,-36.388999938964844 C13.005000114440918,-45.32400131225586 29.329999923706055,-45.49700164794922 38.95199966430664,-37.249000549316406 C48.57500076293945,-29.000999450683594 46.512001037597656,-19.722000122070312 45.82600021362305,-16.972999572753906 C45.448001861572266,-15.46399974822998 44.45000076293945,-13.85200023651123 43.625,-12.70300006866455 C42.98699951171875,-11.814000129699707 43.025001525878906,-10.595000267028809 43.73500061035156,-9.76200008392334 C45.99700164794922,-7.110000133514404 48.8390007019043,-2.759999990463257 47.5369987487793,5.501999855041504 C45.76300048828125,16.759000778198242 34.63800048828125,17.608999252319336 31.88800048828125,17.608999252319336 C30.27899932861328,17.608999252319336 22.430999755859375,20.016000747680664 20.885000228881836,19.625999450683594 C19.79800033569336,19.35099983215332 15.354000091552734,19.409000396728516 14.836999893188477,20.40399932861328 C12.9399995803833,24.040000915527344 4.798999786376953,31.847999572753906 -6.710000038146973,36.20500183105469 C-12.239999771118164,38.29899978637695 -28.479000091552734,37.52000045776367 -38.946998596191406,28.667999267578125 C-48.553001403808594,20.545000076293945 -50.709999084472656,11.786999702453613 -53.74800109863281,5.415999889373779z"></path></g><g opacity="1" transform="matrix(1,0,0,1,43.59700012207031,374.12799072265625)"><path fill="rgb(245,187,147)" fill-opacity="1" d=" M-30.511999130249023,49.27000045776367 C-30.511999130249023,49.27000045776367 -57.130001068115234,17.538999557495117 -25.520999908447266,-14.581999778747559 C-3.61899995803833,-36.84000015258789 26.48699951171875,-37.983001708984375 31.11400032043457,-36.49599838256836 C35.92599868774414,-34.95000076293945 42.236000061035156,-32.70000076293945 42.92399978637695,-26.68600082397461 C43.59700012207031,-20.79199981689453 41.14899826049805,-18.069000244140625 41.14899826049805,-18.069000244140625 C41.14899826049805,-18.069000244140625 32.27799987792969,-10.666999816894531 29.184999465942383,-9.291999816894531 C26.091999053955078,-7.918000221252441 17.558000564575195,-5.590000152587891 15.77400016784668,-2.9730000495910645 C13.196000099182129,0.8069999814033508 10.791000366210938,9.22700023651123 10.791000366210938,9.22700023651123 C10.791000366210938,9.22700023651123 -5.361999988555908,21.256000518798828 -5.361999988555908,21.256000518798828 C-5.361999988555908,21.256000518798828 -30.511999130249023,49.27000045776367 -30.511999130249023,49.27000045776367z"></path></g><g opacity="1" transform="matrix(1,0,0,1,86.052001953125,397.3810119628906)"><path stroke-linecap="round" stroke-linejoin="round" fill-opacity="0" stroke="rgb(182,95,48)" stroke-opacity="1" stroke-width="11" d=" M-19.400999069213867,2.368000030517578 C-19.400999069213867,2.368000030517578 -5.63700008392334,-1.6729999780654907 8.208999633789062,-1.781999945640564 C22.833999633789062,-1.8969999551773071 20.80299949645996,18.760000228881836 20.80299949645996,18.760000228881836"></path></g><g opacity="1" transform="matrix(1,0,0,1,46.28499984741211,379.36700439453125)"><path stroke-linecap="round" stroke-linejoin="round" fill-opacity="0" stroke="rgb(182,95,48)" stroke-opacity="1" stroke-width="11" d=" M-31.69300079345703,52.65599822998047 C-31.69300079345703,52.65599822998047 -40.71799850463867,39.762001037597656 -43.38800048828125,26.584999084472656 C-45.82600021362305,14.555000305175781 -46.44200134277344,0.3409999907016754 -33.20399856567383,-16.263999938964844 C-17.635000228881836,-35.792999267578125 21.636999130249023,-41.88600158691406 30.198999404907227,-40.19900131225586 C37.481998443603516,-38.763999938964844 39.992000579833984,-26.902999877929688 36.95399856567383,-22.15999984741211 C32.64699935913086,-15.437999725341797 19.97100067138672,-14.656000137329102 15.116000175476074,-11.552000045776367 C8.687999725341797,-7.442999839782715 7.920000076293945,-7.250999927520752 7.920000076293945,-7.250999927520752"></path></g><g opacity="1" transform="matrix(1,0,0,1,80.37699890136719,428.1210021972656)"><path fill="rgb(255,206,0)" fill-opacity="1" d=" M6.810999870300293,-9.62600040435791 C6.810999870300293,-9.62600040435791 1.5429999828338623,-6.7210001945495605 -1.725000023841858,-0.7269999980926514 C-3.680000066757202,2.8559999465942383 -6.810999870300293,9.62600040435791 -6.810999870300293,9.62600040435791"></path></g><g opacity="1" transform="matrix(1,0,0,1,80.37699890136719,428.1210021972656)"><path stroke-linecap="round" stroke-linejoin="round" fill-opacity="0" stroke="rgb(182,95,48)" stroke-opacity="1" stroke-width="11" d=" M10.194000244140625,0.2770000100135803 C10.194000244140625,0.2770000100135803 -4.488999843597412,0.22499999403953552 -6.9039998054504395,2.1480000019073486 C-10.097000122070312,4.690999984741211 -15.779000282287598,11.583999633789062 -15.779000282287598,11.583999633789062"></path></g></g></g><g style="display: block;" transform="matrix(1.065996766090393,0,0,1.065996766090393,-9.029389381408691,-55.55263900756836)" opacity="1"><g opacity="0.23175" transform="matrix(1,0,0,1,114.77999877929688,262.9830017089844)"><path stroke-linecap="round" stroke-linejoin="round" fill-opacity="0" stroke="rgb(158,158,158)" stroke-opacity="1" stroke-width="11" d=" M-56.53799819946289,-134.6320037841797 C-56.53799819946289,-134.6320037841797 -32.74100112915039,-159.5189971923828 -23.753000259399414,-130.38900756835938 C-24.93600082397461,-110.73899841308594 -33.60599899291992,-105.71299743652344 -30.29199981689453,-89.77100372314453 C-24.680999755859375,-72.2229995727539 -11.532999992370605,-83.95500183105469 -17.422000885009766,-50.45500183105469 C-17.422000885009766,-50.45500183105469 -15.633999824523926,-46.007999420166016 -15.633999824523926,-46.007999420166016"></path></g><g opacity="0.37262999999999996" transform="matrix(1,0,0,0.997689962387085,129.46800231933594,174.35299682617188)"><path stroke-linecap="round" stroke-linejoin="round" fill-opacity="0" stroke="rgb(164,164,164)" stroke-opacity="1" stroke-width="11" d=" M-31.60099983215332,-99.98799896240234 C-31.60099983215332,-99.98799896240234 -2.5510001182556152,-115.05699920654297 4.78000020980835,-94.54399871826172 C9.239999771118164,-82.06199645996094 -2.0280001163482666,-60.79899978637695 -4.014999866485596,-51.349998474121094 C-7.074999809265137,-36.79800033569336 3.4019999504089355,-4.677000045776367 3.4019999504089355,-4.677000045776367"></path></g></g><g style="display: none;"><g><path></path><path stroke-linecap="butt" stroke-linejoin="miter" fill-opacity="0" stroke-miterlimit="10"></path></g><g><path></path></g><g><path></path></g><g><path stroke-linecap="round" stroke-linejoin="round" fill-opacity="0"></path></g><g><path stroke-linecap="butt" stroke-linejoin="miter" fill-opacity="0" stroke-miterlimit="4"></path></g></g></g></svg>