<svg xmlns="http://www.w3.org/2000/svg" xmlns:xlink="http://www.w3.org/1999/xlink" viewBox="0 0 512 512" width="512" height="512" style="width: 100%; height: 100%; transform: translate3d(0,0,0); content-visibility: visible;" preserveAspectRatio="xMidYMid meet"><defs><clipPath id="__lottie_element_2"><rect width="512" height="512" x="0" y="0"></rect></clipPath><clipPath id="__lottie_element_4"><path d="M0,0 L512,0 L512,512 L0,512z"></path></clipPath><radialGradient id="__lottie_element_12" spreadMethod="pad" gradientUnits="userSpaceOnUse" cx="-60.99700164794922" cy="-89.02100372314453" r="252.82251038420233" fx="-60.99700164794922" fy="-89.02100372314453"><stop offset="0%" stop-color="rgb(255,238,226)"></stop><stop offset="50%" stop-color="rgb(252,208,176)"></stop><stop offset="100%" stop-color="rgb(249,178,125)"></stop></radialGradient><mask id="__lottie_element_14"><path fill="url(#__lottie_element_13)" d=" M-115.17902374267578,-193.81907653808594 C-150.384033203125,-169.97007751464844 -195.603271484375,-144.10035705566406 -199.08787536621094,-44.463558197021484 C-201.90542602539062,36.48822784423828 -169.07745361328125,110.67594146728516 -130.40853881835938,159.38119506835938 C-96.96892547607422,201.5040283203125 -12.749984741210938,242.76368713378906 88.3851547241211,203.32102966308594 C156.49290466308594,176.77630615234375 179.38668823242188,113.14525604248047 189.72569274902344,68.69725799560547 C198.25869750976562,32.01825714111328 195.3883056640625,1.9812885522842407 196.5070037841797,-26.161462783813477 C199.18922424316406,-92.94976043701172 167.38938903808594,-196.70750427246094 88.33738708496094,-217.6324920654297 C11.11238956451416,-238.07449340820312 -74.56302642822266,-221.33306884765625 -115.17902374267578,-193.81907653808594z"></path></mask><radialGradient id="__lottie_element_13" spreadMethod="pad" gradientUnits="userSpaceOnUse" cx="-60.99700164794922" cy="-89.02100372314453" r="252.82251038420233" fx="-60.99700164794922" fy="-89.02100372314453"><stop stop-color="rgb(255,255,255)" offset="0%" stop-opacity="0.9300000071525574"></stop><stop stop-color="rgb(255,255,255)" offset="57%" stop-opacity="0.9649999737739563"></stop><stop stop-color="rgb(255,255,255)" offset="100%" stop-opacity="1"></stop></radialGradient><clipPath id="__lottie_element_20"><path d="M0,0 L512,0 L512,512 L0,512z"></path></clipPath><radialGradient id="__lottie_element_28" spreadMethod="pad" gradientUnits="userSpaceOnUse"><stop></stop><stop></stop><stop></stop></radialGradient><mask id="__lottie_element_30"><path fill="url(#__lottie_element_29)"></path></mask><radialGradient id="__lottie_element_29" spreadMethod="pad" gradientUnits="userSpaceOnUse"><stop stop-color="rgb(255,255,255)"></stop><stop stop-color="rgb(255,255,255)"></stop><stop stop-color="rgb(255,255,255)"></stop></radialGradient></defs><g clip-path="url(#__lottie_element_2)"><g clip-path="url(#__lottie_element_20)" style="display: none;"><g style="display: none;"><g><path fill="url(#__lottie_element_28)" mask="url(#__lottie_element_30)"></path><path stroke-linecap="round" stroke-linejoin="round" fill-opacity="0"></path></g><g><path></path></g></g><g style="display: none;"><g><path stroke-linecap="round" stroke-linejoin="round" fill-opacity="0"></path></g><g><path stroke-linecap="round" stroke-linejoin="round" fill-opacity="0"></path></g><g><path></path></g><g><path stroke-linecap="round" stroke-linejoin="round" fill-opacity="0"></path></g><g><path></path></g><g><path stroke-linecap="round" stroke-linejoin="round" fill-opacity="0"></path></g><g><path></path><path stroke-linecap="round" stroke-linejoin="round" fill-opacity="0"></path></g></g><g style="display: none;"><g><g><path></path></g><g><path></path></g><g><path></path><path stroke-linecap="round" stroke-linejoin="round" fill-opacity="0"></path></g><g><path></path></g><g><path></path></g><g><path stroke-linecap="round" stroke-linejoin="round" fill-opacity="0"></path></g></g><g><g><path></path></g><g><path></path></g><g><path></path><path stroke-linecap="round" stroke-linejoin="round" fill-opacity="0"></path></g><g><path></path></g><g><path></path></g><g><path stroke-linecap="round" stroke-linejoin="round" fill-opacity="0"></path></g></g></g></g><g clip-path="url(#__lottie_element_4)" style="display: block;" transform="matrix(1,0,0,1,0,0)" opacity="1"><g style="display: block;" transform="matrix(0.958385169506073,0.35856443643569946,-0.33784446120262146,0.903003990650177,126.53892517089844,-73.19766235351562)" opacity="1"><g opacity="1" transform="matrix(1,0,0,1,242.947998046875,274.5270080566406)"><path fill="url(#__lottie_element_12)" mask="url(#__lottie_element_14)" fill-opacity="1" d="M0 0 M-115.17902374267578,-193.81907653808594 C-150.384033203125,-169.97007751464844 -195.603271484375,-144.10035705566406 -199.08787536621094,-44.463558197021484 C-201.90542602539062,36.48822784423828 -169.07745361328125,110.67594146728516 -130.40853881835938,159.38119506835938 C-96.96892547607422,201.5040283203125 -12.749984741210938,242.76368713378906 88.3851547241211,203.32102966308594 C156.49290466308594,176.77630615234375 179.38668823242188,113.14525604248047 189.72569274902344,68.69725799560547 C198.25869750976562,32.01825714111328 195.3883056640625,1.9812885522842407 196.5070037841797,-26.161462783813477 C199.18922424316406,-92.94976043701172 167.38938903808594,-196.70750427246094 88.33738708496094,-217.6324920654297 C11.11238956451416,-238.07449340820312 -74.56302642822266,-221.33306884765625 -115.17902374267578,-193.81907653808594z"></path><path stroke-linecap="round" stroke-linejoin="round" fill-opacity="0" stroke="rgb(186,101,66)" stroke-opacity="1" stroke-width="14.59" d=" M-115.17902374267578,-193.81907653808594 C-150.384033203125,-169.97007751464844 -195.603271484375,-144.10035705566406 -199.08787536621094,-44.463558197021484 C-201.90542602539062,36.48822784423828 -169.07745361328125,110.67594146728516 -130.40853881835938,159.38119506835938 C-96.96892547607422,201.5040283203125 -12.749984741210938,242.76368713378906 88.3851547241211,203.32102966308594 C156.49290466308594,176.77630615234375 179.38668823242188,113.14525604248047 189.72569274902344,68.69725799560547 C198.25869750976562,32.01825714111328 195.3883056640625,1.9812885522842407 196.5070037841797,-26.161462783813477 C199.18922424316406,-92.94976043701172 167.38938903808594,-196.70750427246094 88.33738708496094,-217.6324920654297 C11.11238956451416,-238.07449340820312 -74.56302642822266,-221.33306884765625 -115.17902374267578,-193.81907653808594z"></path></g><g opacity="1" transform="matrix(1,0,0,1,297.1679992675781,316.3169860839844)"><path fill="rgb(230,147,90)" fill-opacity="1" d=" M-165.48228454589844,123.50772857666016 C-165.48228454589844,123.50772857666016 -54.751041412353516,179.1119842529297 39.13737487792969,136.14593505859375 C157.8463592529297,81.72135162353516 133.6269989013672,-84.29014587402344 132.49099731445312,-110.41014862060547 C131.3560028076172,-136.5301513671875 127.92008209228516,-144.21527099609375 127.92008209228516,-144.21527099609375 C127.92008209228516,-144.21527099609375 159.73951721191406,-87.18937683105469 134.92166137695312,24.60700035095215 C109.98889923095703,137.16111755371094 21.293832778930664,168.94464111328125 -39.17916488647461,169.89064025878906 C-142.51516723632812,171.5076446533203 -165.48228454589844,123.50772857666016 -165.48228454589844,123.50772857666016z"></path></g></g><g style="display: block;" transform="matrix(0.9303181171417236,0.429880827665329,-0.4137541651725769,0.873709499835968,220.7847900390625,225.34774780273438)" opacity="1"><g opacity="1" transform="matrix(1,0,0,1,245.5850067138672,65.0510025024414)"><path stroke-linecap="round" stroke-linejoin="round" fill-opacity="0" stroke="rgb(220,135,77)" stroke-opacity="1" stroke-width="12.506" d=" M-20.204139709472656,-19.798282623291016 C-20.204139709472656,-19.798282623291016 -13.159317016601562,-15.675433158874512 -14.223316192626953,5.18756628036499 C-15.169316291809082,23.7365665435791 -24.525474548339844,33.20426940917969 -24.525474548339844,33.20426940917969"></path></g><g opacity="1" transform="matrix(1,0,0,1,46.59600067138672,116.7229995727539)"><path stroke-linecap="round" stroke-linejoin="round" fill-opacity="0" stroke="rgb(220,135,77)" stroke-opacity="1" stroke-width="12.506" d=" M-4.470235347747803,-24.328121185302734 C-4.470235347747803,-24.328121185302734 -17.95697784423828,-2.5245883464813232 -7.911118030548096,16.210918426513672 C2.0573885440826416,34.734779357910156 18.704187393188477,32.820030212402344 18.704187393188477,32.820030212402344"></path></g><g opacity="1" transform="matrix(1,0,0,1,141.57400512695312,78.3949966430664)"><path fill="rgb(231,148,92)" fill-opacity="1" d=" M-68.9007339477539,29.527000427246094 C-68.9007339477539,29.527000427246094 -75.19607543945312,10.228493690490723 -64.91576385498047,3.309774160385132 C-54.71873092651367,-3.535381555557251 22.595787048339844,-29.381174087524414 42.46978759765625,-28.813173294067383 C62.343788146972656,-28.246173858642578 75.10299682617188,-4.443999767303467 73.66699981689453,-0.5680000185966492 C67.98899841308594,14.762999534606934 53.224998474121094,-6.814000129699707 53.224998474121094,-6.814000129699707 C53.224998474121094,-6.814000129699707 43.0258674621582,-14.086624145507812 31.101865768432617,-11.815624237060547 C19.177865982055664,-9.543623924255371 -52.61936950683594,7.763225555419922 -59.00736999511719,13.583226203918457 C-65.39537048339844,19.40322494506836 -68.9007339477539,29.527000427246094 -68.9007339477539,29.527000427246094z"></path></g><g opacity="1" transform="matrix(1,0,0,1,140.66600036621094,88.0479965209961)"><path stroke-linecap="round" stroke-linejoin="round" fill-opacity="0" stroke="rgb(146,74,43)" stroke-opacity="1" stroke-width="12.506" d=" M-64.21847534179688,22.781166076660156 C-64.21847534179688,22.781166076660156 -63.11075210571289,9.427899360656738 -63.11075210571289,9.427899360656738 C-63.11075210571289,9.427899360656738 -62.662967681884766,4.3464035987854 -53.65505599975586,-1.6136919260025024 C-49.17045593261719,-4.530831813812256 -10.122602462768555,-14.487515449523926 8.294268608093262,-17.896055221557617 C31.28659439086914,-22.140968322753906 52.673370361328125,-21.076601028442383 52.673370361328125,-21.076601028442383 C52.673370361328125,-21.076601028442383 61.65937805175781,-19.43423080444336 63.15388488769531,-15.43836498260498 C65.88502502441406,-8.325135231018066 64.83741760253906,-8.17443561553955 64.83741760253906,-8.17443561553955"></path></g><g opacity="1" transform="matrix(1,0,0,1,147.36099243164062,103.52100372314453)"><path fill="rgb(230,147,90)" fill-opacity="1" d=" M-35.63079071044922,21.662250518798828 C-35.63079071044922,21.662250518798828 -47.14906311035156,24.564041137695312 -48.6722297668457,8.794875144958496 C-49.55099868774414,-0.27933332324028015 -24.70143699645996,-13.78862476348877 -0.06360416859388351,-17.048145294189453 C25.62877082824707,-20.41547966003418 31.430084228515625,-10.618270874023438 33.042354583740234,-6.937520980834961 C34.53118896484375,-2.989333391189575 30.870561599731445,3.407770872116089 23.328603744506836,5.679062366485596 C15.958624839782715,7.986812591552734 1.8287708759307861,10.080875396728516 -6.6272292137146,12.286874771118164 C-15.083229064941406,14.492875099182129 -35.63079071044922,21.662250518798828 -35.63079071044922,21.662250518798828z"></path></g><g opacity="1" transform="matrix(1,0,0,1,143.69500732421875,102.5270004272461)"><path stroke-linecap="round" stroke-linejoin="round" fill-opacity="0" stroke="rgb(146,74,43)" stroke-opacity="1" stroke-width="12.506" d=" M-33.86821365356445,8.955660820007324 C-33.86821365356445,8.955660820007324 -13.965377807617188,-1.0487076044082642 4.773621559143066,-4.455707550048828 C23.511621475219727,-7.862707614898682 34.69261932373047,-8.204599380493164 34.69261932373047,-8.204599380493164"></path></g><g opacity="0" transform="matrix(1,0,0,1,0,0)"><path fill="rgb(104,72,60)" fill-opacity="1" d=" M150.1840057373047,67.37999725341797 C123.02200317382812,71.78399658203125 104.01699829101562,77.56400299072266 92.4020004272461,82.36100006103516 C85.85099792480469,85.06700134277344 81.8479995727539,87.86100006103516 91.96499633789062,83.03399658203125 C101.4469985961914,78.51000213623047 107.65299987792969,77.16699981689453 113.87200164794922,75.63999938964844 C119.87999725341797,74.16500091552734 142.8459930419922,67.78199768066406 154.38699340820312,65.90699768066406 C185.94700622558594,60.77899932861328 201.8719940185547,73.14299774169922 199.36599731445312,70.80899810791016 C194.4759979248047,66.25599670410156 182.1820068359375,62.19200134277344 150.1840057373047,67.37999725341797z"></path><path stroke-linecap="round" stroke-linejoin="round" fill-opacity="0" stroke="rgb(92,60,47)" stroke-opacity="1" stroke-width="11" d=" M150.1840057373047,67.37999725341797 C123.02200317382812,71.78399658203125 104.01699829101562,77.56400299072266 92.4020004272461,82.36100006103516 C85.85099792480469,85.06700134277344 81.8479995727539,87.86100006103516 91.96499633789062,83.03399658203125 C101.4469985961914,78.51000213623047 107.65299987792969,77.16699981689453 113.87200164794922,75.63999938964844 C119.87999725341797,74.16500091552734 142.8459930419922,67.78199768066406 154.38699340820312,65.90699768066406 C185.94700622558594,60.77899932861328 201.8719940185547,73.14299774169922 199.36599731445312,70.80899810791016 C194.4759979248047,66.25599670410156 182.1820068359375,62.19200134277344 150.1840057373047,67.37999725341797z"></path></g></g><g style="display: block;" transform="matrix(0.9122229218482971,0.46967262029647827,-0.4553295075893402,0.8534127473831177,201.60108947753906,79.5302505493164)" opacity="1"><g opacity="1" transform="matrix(1.0115885734558105,0,0,1.0049594640731812,-1.793548583984375,-0.5797958374023438)"><g opacity="1" transform="matrix(1,0,0,1,274.9840087890625,53.694000244140625)"><path fill="rgb(230,147,90)" fill-opacity="1" d=" M-56.768001556396484,4.15024995803833 C-56.768001556396484,4.15024995803833 -20.035999298095703,-0.9470000267028809 17.32550048828125,-10.191499710083008 C50.89649963378906,-19.528249740600586 25.19474983215332,-41.38750076293945 34.074249267578125,-40.11375045776367 C54.74174880981445,-40.6822509765625 63.34600067138672,-12.876500129699707 52.95949935913086,-8.052000045776367 C49.66299819946289,-6.517749786376953 -7.0980000495910645,13.911749839782715 -25.26799964904785,17.318750381469727 C-43.43899917602539,20.725749969482422 -45.41450119018555,33.075748443603516 -58.83100128173828,27.103500366210938 C-78.97200012207031,18.566999435424805 -56.768001556396484,4.15024995803833 -56.768001556396484,4.15024995803833z"></path></g><g opacity="1" transform="matrix(1,0,0,1,283.5849914550781,91.26499938964844)"><path fill="rgb(235,160,109)" fill-opacity="1" d=" M-62.8719482421875,-20.43120002746582 C-68.81594848632812,-20.226200103759766 -77.57659912109375,-23.064599990844727 -76.0677261352539,-17.31209945678711 C-72.58570098876953,-4.055174827575684 -71.08625030517578,18.995849609375 -47.55082321166992,36.34717559814453 C-24.28397560119629,53.25652313232422 19.170774459838867,36.528648376464844 32.99807357788086,13.473424911499023 C48.387325286865234,-12.215274810791016 41.035099029541016,-45.815650939941406 37.62810134887695,-46.19464874267578 C34.221099853515625,-46.57265090942383 -18.616975784301758,-15.378199577331543 -27.701974868774414,-14.621199607849121 C-33.29297637939453,-14.155200004577637 -50.60295104980469,-20.85420036315918 -62.8719482421875,-20.43120002746582z"></path></g><g opacity="1" transform="matrix(1,0,0,1,286.43499755859375,81.57599639892578)"><path fill="rgb(255,255,255)" fill-opacity="1" d=" M-66.45073699951172,-4.068782806396484 C-66.45073699951172,-4.068782806396484 -62.29808807373047,21.27412986755371 -41.9782600402832,30.823305130004883 C-22.528564453125,39.75191116333008 -2.4695217609405518,33.290042877197266 13.057608604431152,22.40608787536621 C42.052913665771484,2.5478696823120117 40.351436614990234,-28.38473892211914 37.950260162353516,-28.864479064941406 C35.689697265625,-29.277347564697266 -11.075130462646484,-15.891825675964355 -20.16012954711914,-13.999826431274414 C-29.246129989624023,-12.106825828552246 -66.45073699951172,-4.068782806396484 -66.45073699951172,-4.068782806396484z"></path><path stroke-linecap="round" stroke-linejoin="round" fill-opacity="0" stroke="rgb(104,72,60)" stroke-opacity="1" stroke-width="10.421" d=" M-66.45073699951172,-4.068782806396484 C-66.45073699951172,-4.068782806396484 -62.29808807373047,21.27412986755371 -41.9782600402832,30.823305130004883 C-22.528564453125,39.75191116333008 -2.4695217609405518,33.290042877197266 13.057608604431152,22.40608787536621 C42.052913665771484,2.5478696823120117 40.351436614990234,-28.38473892211914 37.950260162353516,-28.864479064941406 C35.689697265625,-29.277347564697266 -11.075130462646484,-15.891825675964355 -20.16012954711914,-13.999826431274414 C-29.246129989624023,-12.106825828552246 -66.45073699951172,-4.068782806396484 -66.45073699951172,-4.068782806396484z"></path></g><g opacity="1" transform="matrix(1,0,0,1,275.1659851074219,78.4729995727539)"><path fill="rgb(23,19,17)" fill-opacity="1" d=" M-11.037932395935059,-5.185056686401367 C-11.037932395935059,-5.185056686401367 -9.036277770996094,16.814266204833984 13.775396347045898,11.88027572631836 C36.33705520629883,7.018948554992676 36.4124641418457,-17.6378231048584 36.4124641418457,-17.6378231048584 C36.4124641418457,-17.6378231048584 -3.5680630207061768,-9.683112144470215 -3.5680630207061768,-9.683112144470215 C-3.5680630207061768,-9.683112144470215 -11.037932395935059,-5.185056686401367 -11.037932395935059,-5.185056686401367z"></path></g><g opacity="1" transform="matrix(0.30000001192092896,0,0,0.30000001192092896,296.1659851074219,62.472999572753906)"><path fill="rgb(255,255,255)" fill-opacity="1" d=" M-16.07707977294922,23.867996215820312 C-16.07707977294922,23.867996215820312 -10.80066204071045,46.19920349121094 12.4247465133667,44.032379150390625 C34.800025939941406,42.005859375 32.72705841064453,2.075838804244995 32.72705841064453,2.075838804244995 C32.72705841064453,2.075838804244995 -16.25395965576172,16.39864158630371 -16.25395965576172,16.39864158630371 C-16.25395965576172,16.39864158630371 -16.07707977294922,23.867996215820312 -16.07707977294922,23.867996215820312z"></path></g><g opacity="1" transform="matrix(1,0,0,1,268.2650146484375,55.492000579833984)"><path stroke-linecap="round" stroke-linejoin="round" fill-opacity="0" stroke="rgb(165,82,46)" stroke-opacity="1" stroke-width="12.506" d=" M43.75899887084961,-45.51750183105469 C43.75899887084961,-45.51750183105469 89.73999786376953,-18.302249908447266 52.276248931884766,-1.4582500457763672 C36.83250045776367,4.067999839782715 6.7220001220703125,7.464749813079834 -16.577999114990234,13.647250175476074 C-38.0369987487793,19.287750244140625 -48.824249267578125,20.357250213623047 -48.824249267578125,20.357250213623047"></path></g></g><g opacity="1" transform="matrix(1.0558171272277832,0,0,1.0534600019454956,-14.8023681640625,-4.5822906494140625)"><g opacity="1" transform="matrix(1,0,0,1,123.46800231933594,124.5780029296875)"><path fill="rgb(230,147,90)" fill-opacity="0.76" d=" M-80.68218994140625,-1.512541651725769 C-80.68218994140625,-1.512541651725769 -69.36237335205078,48.777061462402344 -24.586374282836914,52.59341812133789 C26.847354888916016,56.988582611083984 60.038978576660156,9.302770614624023 66.11581420898438,-6.191937446594238 C74.12716674804688,-26.620145797729492 76.09585571289062,-54.44097900390625 71.93185424804688,-55.95597839355469 C67.76785278320312,-57.46997833251953 -29.9060001373291,-8.895999908447266 -29.9060001373291,-8.895999908447266 C-29.9060001373291,-8.895999908447266 -80.68218994140625,-1.512541651725769 -80.68218994140625,-1.512541651725769z"></path></g><g opacity="1" transform="matrix(1,0,0,1,117.97899627685547,95.1449966430664)"><path fill="rgb(230,147,90)" fill-opacity="1" d=" M-79.08837890625,13.506036758422852 C-79.08837890625,13.506036758422852 -77.78079223632812,8.583083152770996 -66.8896255493164,6.33595085144043 C-58.778236389160156,4.833585739135742 -25.887126922607422,-6.076046943664551 -6.257393836975098,-9.222039222717285 C62.786800384521484,-21.544841766357422 69.40298461914062,-56.593997955322266 75.27398681640625,-55.77899932861328 C95.71598815917969,-52.93899917602539 74.84705352783203,-13.55176830291748 75.32005310058594,-13.55176830291748 C75.79305267333984,-13.55176830291748 -35.76842498779297,13.153392791748047 -44.35930633544922,19.64537239074707 C-56.93601989746094,29.575397491455078 -73.89525604248047,28.158252716064453 -75.56780242919922,23.29718780517578 C-76.19284057617188,18.68229103088379 -79.08837890625,13.506036758422852 -79.08837890625,13.506036758422852z"></path></g><g opacity="1" transform="matrix(1,0,0,1,123.27899932861328,120.12999725341797)"><path fill="rgb(255,255,255)" fill-opacity="1" d=" M-63.07450866699219,-4.04436731338501 C-63.07450866699219,-4.04436731338501 -47.251285552978516,60.73465347290039 10.156000137329102,35.51451110839844 C57.400630950927734,15.001836776733398 69.70751190185547,-34.540855407714844 56.236000061035156,-34.30195999145508 C52.81034851074219,-34.263980865478516 4.149204254150391,-16.218612670898438 -10.992795944213867,-12.811612129211426 C-26.134796142578125,-9.40461254119873 -63.07450866699219,-4.04436731338501 -63.07450866699219,-4.04436731338501z"></path><path stroke-linecap="round" stroke-linejoin="round" fill-opacity="0" stroke="rgb(104,72,60)" stroke-opacity="1" stroke-width="10.421" d=" M-63.07450866699219,-4.04436731338501 C-63.07450866699219,-4.04436731338501 -47.251285552978516,60.73465347290039 10.156000137329102,35.51451110839844 C57.400630950927734,15.001836776733398 69.70751190185547,-34.540855407714844 56.236000061035156,-34.30195999145508 C52.81034851074219,-34.263980865478516 4.149204254150391,-16.218612670898438 -10.992795944213867,-12.811612129211426 C-26.134796142578125,-9.40461254119873 -63.07450866699219,-4.04436731338501 -63.07450866699219,-4.04436731338501z"></path></g><g opacity="1" transform="matrix(1,0,0,1,110.79199981689453,118.59300231933594)"><path fill="rgb(23,19,17)" fill-opacity="1" d=" M2.6402499675750732,-9.95324993133545 C2.6402499675750732,-9.95324993133545 5.178374767303467,13.618749618530273 28.21787452697754,9.909749984741211 C51.9536247253418,6.039374828338623 56.010250091552734,-24.775249481201172 56.010250091552734,-24.775249481201172 C56.010250091552734,-24.775249481201172 10.20412540435791,-13.216750144958496 10.20412540435791,-13.216750144958496 C10.20412540435791,-13.216750144958496 2.6402499675750732,-9.95324993133545 2.6402499675750732,-9.95324993133545z"></path></g><g opacity="1" transform="matrix(0.30000001192092896,0,0,0.30000001192092896,152.50155639648438,101.99113464355469)"><path fill="rgb(255,255,255)" fill-opacity="1" d=" M-42.60955810546875,18.15001106262207 C-42.60955810546875,18.15001106262207 -37.2507438659668,44.11363220214844 -3.617635488510132,31.271678924560547 C18.20785903930664,23.169191360473633 19.152360916137695,-11.040580749511719 19.152360916137695,-11.040580749511719 C19.152360916137695,-11.040580749511719 -43.2940673828125,5.576701641082764 -43.2940673828125,5.576701641082764 C-43.2940673828125,5.576701641082764 -42.60955810546875,18.15001106262207 -42.60955810546875,18.15001106262207z"></path></g><g opacity="1" transform="matrix(1,0,0,1,106.13600158691406,93.15799713134766)"><path stroke-linecap="round" stroke-linejoin="round" fill-opacity="0" stroke="rgb(164,81,46)" stroke-opacity="1" stroke-width="12.506" d=" M-58.10666275024414,24.296571731567383 C-58.10666275024414,24.296571731567383 -36.50210189819336,18.45233917236328 -19.31547737121582,15.60334587097168 C17.520061492919922,7.803157806396484 61.15571975708008,-1.775372862815857 78.69483184814453,-8.73330307006836 C102.31729125976562,-18.215286254882812 89.38990020751953,-55.03828811645508 89.28509521484375,-53.9250602722168"></path></g></g></g></g></g></svg>