<svg xmlns="http://www.w3.org/2000/svg" xmlns:xlink="http://www.w3.org/1999/xlink" viewBox="0 0 512 512" width="512" height="512" style="width: 100%; height: 100%; transform: translate3d(0,0,0); content-visibility: visible;" preserveAspectRatio="xMidYMid meet"><defs><clipPath id="__lottie_element_2"><rect width="512" height="512" x="0" y="0"></rect></clipPath><radialGradient id="__lottie_element_12" spreadMethod="pad" gradientUnits="userSpaceOnUse" cx="-35.27799987792969" cy="-118.65499877929688" r="250.6594582220019" fx="-35.27799987792969" fy="-118.65499877929688"><stop offset="0%" stop-color="rgb(254,240,222)"></stop><stop offset="50%" stop-color="rgb(249,213,185)"></stop><stop offset="100%" stop-color="rgb(244,187,148)"></stop></radialGradient><linearGradient id="__lottie_element_41" spreadMethod="pad" gradientUnits="userSpaceOnUse" x1="71.8740005493164" y1="25.69700050354004" x2="209.21099853515625" y2="27.66900062561035"><stop offset="0%" stop-color="rgb(252,227,204)"></stop><stop offset="50%" stop-color="rgb(250,220,194)"></stop><stop offset="100%" stop-color="rgb(249,213,184)"></stop></linearGradient></defs><g clip-path="url(#__lottie_element_2)"><g style="display: block;" transform="matrix(1.0668792724609375,-0.016052130609750748,0.016052130609750748,1.0668792724609375,37.487579345703125,62.68232345581055)" opacity="1"><g opacity="1" transform="matrix(1,0,0,1,201.6300048828125,195.18899536132812)"><path fill="rgb(236,153,113)" fill-opacity="1" d=" M-161.06199645996094,81.54299926757812 C-146.1300048828125,111.8499984741211 -118.56300354003906,133.9980010986328 -69.1729965209961,149.1510009765625 C-0.6079999804496765,170.18800354003906 51.19300079345703,169.26199340820312 106.56500244140625,139.82699584960938 C154.8070068359375,114.18299865722656 176.6300048828125,67.31400299072266 176.6300048828125,26.756999969482422 C176.6300048828125,-24.823999404907227 141.0229949951172,-135.4759979248047 39.94499969482422,-152.72300720214844 C-62.42300033569336,-170.18899536132812 -109.3740005493164,-136.43699645996094 -138.08999633789062,-97.97100067138672 C-165.36700439453125,-61.430999755859375 -172.54800415039062,-35.02399826049805 -174.84500122070312,6.939000129699707 C-176.6300048828125,39.54899978637695 -167.55999755859375,68.35299682617188 -161.06199645996094,81.54299926757812z"></path><path stroke-linecap="butt" stroke-linejoin="miter" fill-opacity="0" stroke-miterlimit="10" stroke="rgb(171,83,39)" stroke-opacity="1" stroke-width="10" d=" M-161.06199645996094,81.54299926757812 C-146.1300048828125,111.8499984741211 -118.56300354003906,133.9980010986328 -69.1729965209961,149.1510009765625 C-0.6079999804496765,170.18800354003906 51.19300079345703,169.26199340820312 106.56500244140625,139.82699584960938 C154.8070068359375,114.18299865722656 176.6300048828125,67.31400299072266 176.6300048828125,26.756999969482422 C176.6300048828125,-24.823999404907227 141.0229949951172,-135.4759979248047 39.94499969482422,-152.72300720214844 C-62.42300033569336,-170.18899536132812 -109.3740005493164,-136.43699645996094 -138.08999633789062,-97.97100067138672 C-165.36700439453125,-61.430999755859375 -172.54800415039062,-35.02399826049805 -174.84500122070312,6.939000129699707 C-176.6300048828125,39.54899978637695 -167.55999755859375,68.35299682617188 -161.06199645996094,81.54299926757812z"></path></g><g opacity="1" transform="matrix(1,0,0,1,208.60299682617188,186.66099548339844)"><path fill="url(#__lottie_element_12)" fill-opacity="1" d=" M-144.22999572753906,75.24400329589844 C-130.85800170898438,102.7959976196289 -106.1729965209961,122.93000030517578 -61.944000244140625,136.7050018310547 C-0.5450000166893005,155.82899475097656 45.84299850463867,154.98599243164062 95.4280014038086,128.2270050048828 C138.6280059814453,104.91500091552734 158.17100524902344,62.30699920654297 158.17100524902344,25.43899917602539 C158.17100524902344,-21.45199966430664 127.9260025024414,-120.11000061035156 37.56700134277344,-137.8769989013672 C-53.731998443603516,-155.82899475097656 -97.94400024414062,-122.91600036621094 -123.65899658203125,-87.9469985961914 C-148.08399963378906,-54.729000091552734 -154.51600646972656,-30.724000930786133 -156.572998046875,7.423999786376953 C-158.17100524902344,37.069000244140625 -150.0489959716797,63.25400161743164 -144.22999572753906,75.24400329589844z"></path></g></g><g style="display: block;" transform="matrix(1.0539437532424927,0.04860565438866615,-0.04765167832374573,1.0431910753250122,121.03585052490234,166.26541137695312)" opacity="1"><g opacity="1" transform="matrix(1,0,0,1,65.53199768066406,59.54100036621094)"><path fill="rgb(223,133,104)" fill-opacity="1" d=" M-46.72700119018555,-31.406999588012695 C-46.72700119018555,-31.406999588012695 -56.90599822998047,-19.155000686645508 -55.76300048828125,-1.6130000352859497 C-54.619998931884766,15.928999900817871 -36.965999603271484,33.13999938964844 -4.144999980926514,34.36600112915039 C23.55299949645996,35.4010009765625 54.70899963378906,18.92099952697754 55.861000061035156,-8.439000129699707 C56.90599822998047,-33.24399948120117 43.28200149536133,-35.4010009765625 43.28200149536133,-35.4010009765625 C43.28200149536133,-35.4010009765625 -46.72700119018555,-31.406999588012695 -46.72700119018555,-31.406999588012695z"></path></g><g opacity="1" transform="matrix(1.2006009817123413,0.09238121658563614,-0.08281742036342621,1.0763083696365356,-37.35502624511719,-12.442893981933594)"><g opacity="1" transform="matrix(1,0,0,1,215.7239990234375,53.44599914550781)"><path fill="rgb(223,133,104)" fill-opacity="1" d=" M-37.02199935913086,-27.384000778198242 C-37.02199935913086,-27.384000778198242 -45.005001068115234,-16.416000366210938 -43.99300003051758,-0.8209999799728394 C-42.97999954223633,14.774999618530273 -28.899999618530273,29.961999893188477 -2.9100000858306885,30.826000213623047 C19.02400016784668,31.555999755859375 43.58599853515625,16.683000564575195 44.33100128173828,-7.660999774932861 C45.005001068115234,-29.73200035095215 34.207000732421875,-31.555999755859375 34.207000732421875,-31.555999755859375 C34.207000732421875,-31.555999755859375 -37.02199935913086,-27.384000778198242 -37.02199935913086,-27.384000778198242z"></path></g><g opacity="1" transform="matrix(1,0,0,1,217.2010040283203,49.027000427246094)"><path fill="rgb(212,201,228)" fill-opacity="1" d=" M-30.993000030517578,-28.72100067138672 C-30.993000030517578,-28.72100067138672 -40.16999816894531,-19.937999725341797 -39.814998626708984,-4.313000202178955 C-39.42300033569336,12.939000129699707 -26.958999633789062,27.665000915527344 -4.5269999504089355,29.013999938964844 C21.54599952697754,30.58300018310547 40.16999816894531,18.035999298095703 40.16999816894531,-5.0970001220703125 C40.16999816894531,-25.388999938964844 23.70199966430664,-30.58300018310547 23.70199966430664,-30.58300018310547 C23.70199966430664,-30.58300018310547 -30.993000030517578,-28.72100067138672 -30.993000030517578,-28.72100067138672z"></path></g><g opacity="1" transform="matrix(1,0,0,1,217.2010040283203,49.027000427246094)"><path stroke-linecap="butt" stroke-linejoin="miter" fill-opacity="0" stroke-miterlimit="10" stroke="rgb(87,74,107)" stroke-opacity="1" stroke-width="7.378" d=" M-30.993000030517578,-28.72100067138672 C-30.993000030517578,-28.72100067138672 -40.16999816894531,-19.937999725341797 -39.814998626708984,-4.313000202178955 C-39.42300033569336,12.939000129699707 -26.958999633789062,27.665000915527344 -4.5269999504089355,29.013999938964844 C21.54599952697754,30.58300018310547 40.16999816894531,18.035999298095703 40.16999816894531,-5.0970001220703125 C40.16999816894531,-25.388999938964844 23.70199966430664,-30.58300018310547 23.70199966430664,-30.58300018310547 C23.70199966430664,-30.58300018310547 -30.993000030517578,-28.72100067138672 -30.993000030517578,-28.72100067138672z"></path></g><g opacity="1" transform="matrix(1,0,0,1,220.47000122070312,46.439998626708984)"><path fill="rgb(255,255,255)" fill-opacity="1" d=" M-24.840999603271484,-22.059999465942383 C-24.840999603271484,-22.059999465942383 -32.19599914550781,-15.3149995803833 -31.910999298095703,-3.312999963760376 C-31.597000122070312,9.939000129699707 -21.607999801635742,21.25 -3.628999948501587,22.285999298095703 C17.268999099731445,23.490999221801758 32.19599914550781,13.854000091552734 32.19599914550781,-3.9149999618530273 C32.19599914550781,-19.50200080871582 18.99799919128418,-23.490999221801758 18.99799919128418,-23.490999221801758 C18.99799919128418,-23.490999221801758 -24.840999603271484,-22.059999465942383 -24.840999603271484,-22.059999465942383z"></path></g><g opacity="1" transform="matrix(0.8591099977493286,0,0,0.9373400211334229,18.809600830078125,3.3092498779296875)"><g opacity="1" transform="matrix(1,0,0,1,234.1909942626953,43.779998779296875)"><path fill="rgb(37,39,51)" fill-opacity="1" d=" M-9.522000312805176,0.8659999966621399 C-9.522000312805176,0.8659999966621399 -9.812000274658203,8.079999923706055 -1.4429999589920044,8.079999923706055 C6.925000190734863,8.079999923706055 9.810999870300293,-1.1540000438690186 4.328999996185303,-4.617000102996826 C-1.1549999713897705,-8.079999923706055 -4.328999996185303,-6.059999942779541 -6.348999977111816,-4.90500020980835 C-8.369000434875488,-3.750999927520752 -9.522000312805176,0.8659999966621399 -9.522000312805176,0.8659999966621399z"></path><path stroke-linecap="butt" stroke-linejoin="miter" fill-opacity="0" stroke-miterlimit="10" stroke="rgb(37,30,44)" stroke-opacity="1" stroke-width="5.296" d=" M-9.522000312805176,0.8659999966621399 C-9.522000312805176,0.8659999966621399 -9.812000274658203,8.079999923706055 -1.4429999589920044,8.079999923706055 C6.925000190734863,8.079999923706055 9.810999870300293,-1.1540000438690186 4.328999996185303,-4.617000102996826 C-1.1549999713897705,-8.079999923706055 -4.328999996185303,-6.059999942779541 -6.348999977111816,-4.90500020980835 C-8.369000434875488,-3.750999927520752 -9.522000312805176,0.8659999966621399 -9.522000312805176,0.8659999966621399z"></path></g><g opacity="1" transform="matrix(1,0,0,1,223.7689971923828,45.847999572753906)"><path fill="rgb(255,255,255)" fill-opacity="1" d=" M-4.015999794006348,-0.675000011920929 C-4.199999809265137,0.49799999594688416 -5.677579879760742,3.226921558380127 -1.994579792022705,3.917921543121338 C1.686420202255249,4.609921455383301 5.670307636260986,0.07480982691049576 4.164307594299316,-1.723190188407898 C2.6573078632354736,-3.5221900939941406 -1.0103404521942139,-3.258756637573242 -2.516340494155884,-2.9827566146850586 C-4.023340702056885,-2.705756425857544 -3.9100000858306885,-1.3609999418258667 -4.015999794006348,-0.675000011920929z"></path></g></g><g opacity="1" transform="matrix(1,0,0,1,215.67300415039062,24.761999130249023)"><path fill="rgb(190,175,213)" fill-opacity="1" d=" M-31.395000457763672,5.552000045776367 C-31.395000457763672,5.552000045776367 -5.934999942779541,2.2980000972747803 8.230999946594238,1.7230000495910645 C22.398000717163086,1.1490000486373901 31.395000457763672,2.871999979019165 31.395000457763672,2.871999979019165 C31.395000457763672,2.871999979019165 25.843000411987305,-2.680000066757202 25.843000411987305,-2.680000066757202 C25.843000411987305,-2.680000066757202 -7.465000152587891,-5.552000045776367 -7.465000152587891,-5.552000045776367 C-7.465000152587891,-5.552000045776367 -21.44099998474121,-4.4029998779296875 -21.44099998474121,-4.4029998779296875 C-21.44099998474121,-4.4029998779296875 -27.757999420166016,-0.7649999856948853 -27.757999420166016,-0.7649999856948853 C-27.757999420166016,-0.7649999856948853 -31.395000457763672,5.552000045776367 -31.395000457763672,5.552000045776367z"></path></g></g><g opacity="1" transform="matrix(1,0,0,1,69.56300354003906,55.56100082397461)"><path fill="rgb(212,201,228)" fill-opacity="1" d=" M-40.42300033569336,-26.96500015258789 C-40.42300033569336,-26.96500015258789 -51.11800003051758,-17.857999801635742 -50.09700012207031,-1.4819999933242798 C-49.07500076293945,14.894000053405762 -33.22200012207031,30.95599937438965 -3.740000009536743,32.090999603271484 C21.139999389648438,33.04999923706055 49.130001068115234,17.658000946044922 50.17300033569336,-7.883999824523926 C51.11800003051758,-31.04199981689453 38.88100051879883,-33.05099868774414 38.88100051879883,-33.05099868774414 C38.88100051879883,-33.05099868774414 -40.42300033569336,-26.96500015258789 -40.42300033569336,-26.96500015258789z"></path></g><g opacity="1" transform="matrix(1,0,0,1,69.56300354003906,55.56100082397461)"><path stroke-linecap="butt" stroke-linejoin="miter" fill-opacity="0" stroke-miterlimit="10" stroke="rgb(87,74,107)" stroke-opacity="1" stroke-width="7.378" d=" M-40.42300033569336,-26.96500015258789 C-40.42300033569336,-26.96500015258789 -51.11800003051758,-17.857999801635742 -50.09700012207031,-1.4819999933242798 C-49.07500076293945,14.894000053405762 -33.22200012207031,30.95599937438965 -3.740000009536743,32.090999603271484 C21.139999389648438,33.04999923706055 49.130001068115234,17.658000946044922 50.17300033569336,-7.883999824523926 C51.11800003051758,-31.04199981689453 38.88100051879883,-33.05099868774414 38.88100051879883,-33.05099868774414 C38.88100051879883,-33.05099868774414 -40.42300033569336,-26.96500015258789 -40.42300033569336,-26.96500015258789z"></path></g><g opacity="1" transform="matrix(1,0,0,1,74.71499633789062,54.888999938964844)"><path fill="rgb(255,255,255)" fill-opacity="1" d=" M-33.73400115966797,-22.56399917602539 C-33.73400115966797,-22.56399917602539 -40.770999908447266,-13.359999656677246 -39.96200180053711,-0.6629999876022339 C-39.15299987792969,12.03499984741211 -27.54400062561035,26.55500030517578 -4.256999969482422,27.43899917602539 C15.395000457763672,28.184999465942383 39.207000732421875,14.657999992370605 40.02799987792969,-5.145999908447266 C40.770999908447266,-23.10099983215332 31.399999618530273,-28.18600082397461 31.399999618530273,-28.18600082397461 C31.399999618530273,-28.18600082397461 -33.73400115966797,-22.56399917602539 -33.73400115966797,-22.56399917602539z"></path></g><g opacity="1" transform="matrix(0.8990200161933899,0,0,0.8990200161933899,-4.624420166015625,6.44219970703125)"><g opacity="1" transform="matrix(1,0,0,1,83.48999786376953,52.45800018310547)"><path fill="rgb(37,39,51)" fill-opacity="1" d=" M-9.847999572753906,-2.127000093460083 C-10.326000213623047,1.3639999628067017 -11.149999618530273,6.414000034332275 -2.1019999980926514,8.543999671936035 C6.946000099182129,10.673999786376953 11.14900016784668,0.09700000286102295 7.48199987411499,-5.288000106811523 C3.815000057220459,-10.67300033569336 -0.10499999672174454,-9.878999710083008 -3.819999933242798,-9.083999633789062 C-7.533999919891357,-8.288999557495117 -9.569000244140625,-4.168000221252441 -9.847999572753906,-2.127000093460083z"></path><path stroke-linecap="butt" stroke-linejoin="miter" fill-opacity="0" stroke-miterlimit="10" stroke="rgb(37,30,44)" stroke-opacity="1" stroke-width="5.671" d=" M-9.847999572753906,-2.127000093460083 C-10.326000213623047,1.3639999628067017 -11.149999618530273,6.414000034332275 -2.1019999980926514,8.543999671936035 C6.946000099182129,10.673999786376953 11.14900016784668,0.09700000286102295 7.48199987411499,-5.288000106811523 C3.815000057220459,-10.67300033569336 -0.10499999672174454,-9.878999710083008 -3.819999933242798,-9.083999633789062 C-7.533999919891357,-8.288999557495117 -9.569000244140625,-4.168000221252441 -9.847999572753906,-2.127000093460083z"></path></g><g opacity="1" transform="matrix(1,0,0,1,74.46900177001953,52.979000091552734)"><path fill="rgb(255,255,255)" fill-opacity="1" d=" M-5.641899585723877,1.9599177837371826 C-5.852899551391602,3.503917694091797 -5.1026716232299805,7.22094202041626 -1.1016716957092285,8.162941932678223 C2.8993282318115234,9.104942321777344 6.039109230041504,1.717711091041565 4.943602085113525,-0.15751053392887115 C3.844696044921875,-2.0442888736724854 -0.5018123984336853,-0.9704616069793701 -2.143812417984009,-0.6194615960121155 C-3.7868123054504395,-0.2674615979194641 -5.517899513244629,1.0579177141189575 -5.641899585723877,1.9599177837371826z"></path></g></g><g opacity="1" transform="matrix(1,0,0,1,69.43199920654297,31.75)"><path fill="rgb(190,175,213)" fill-opacity="1" d=" M-43.83100128173828,8.880000114440918 C-43.83100128173828,8.880000114440918 -33.40299987792969,5.60699987411499 -18.714000701904297,3.9059998989105225 C15.394000053405762,-0.04100000113248825 43.83100128173828,-1.1610000133514404 43.83100128173828,-1.1610000133514404 C43.83100128173828,-1.1610000133514404 35.96500015258789,-8.880000114440918 35.96500015258789,-8.880000114440918 C35.96500015258789,-8.880000114440918 -13.215999603271484,-3.9000000953674316 -13.215999603271484,-3.9000000953674316 C-13.215999603271484,-3.9000000953674316 -38.755001068115234,-1.7289999723434448 -38.755001068115234,-1.7289999723434448 C-38.755001068115234,-1.7289999723434448 -43.83100128173828,8.880000114440918 -43.83100128173828,8.880000114440918z"></path></g></g><g style="display: block;" transform="matrix(1.0539437532424927,0.04860565438866615,-0.04765167832374573,1.0431910753250122,106.22157287597656,244.98263549804688)" opacity="1"><g opacity="1" transform="matrix(0.9486055374145508,0.07234173268079758,-0.07604033499956131,0.9971047639846802,22.928192138671875,-8.784622192382812)"><g opacity="1" transform="matrix(1,0,0,1,231.8730010986328,86.12100219726562)"><path stroke-linecap="round" stroke-linejoin="round" fill-opacity="0" stroke="rgb(219,131,100)" stroke-opacity="1" stroke-width="9.777" d=" M1.0049999952316284,-40.94900131225586 C1.0049999952316284,-40.94900131225586 14.586000442504883,-27.384000778198242 7.960000038146973,-1.1349999904632568 C1.3329999446868896,25.114999771118164 -14.586000442504883,40.94900131225586 -14.586000442504883,40.94900131225586"></path></g><g opacity="1" transform="matrix(1,0,0,1,135.93699645996094,33.89500045776367)"><path fill="rgb(223,133,104)" fill-opacity="1" d=" M-118.59400177001953,11.293999671936035 C-118.59400177001953,11.293999671936035 -97.15399932861328,8.041000366210938 -76.47899627685547,3.063999891281128 C-56.30799865722656,-1.7920000553131104 -34.15399932861328,-5.693999767303467 16.750999450683594,-10.336999893188477 C73.41600036621094,-15.505999565124512 118.59400177001953,-12.920999526977539 118.59400177001953,-12.920999526977539 C118.59400177001953,-12.920999526977539 117.1259994506836,-8.303999900817871 97.91999816894531,-5.743000030517578 C70.4229965209961,-2.0759999752044678 18.30500030517578,-1.3519999980926514 5.455999851226807,0.0010000000474974513 C-16.367000579833984,2.296999931335449 -86.43299865722656,14.548999786376953 -94.4739990234375,14.741000175476074 C-102.51399993896484,14.932000160217285 -113.61699676513672,15.506999969482422 -113.61699676513672,15.506999969482422 C-113.61699676513672,15.506999969482422 -118.59400177001953,11.293999671936035 -118.59400177001953,11.293999671936035z"></path></g><g opacity="1" transform="matrix(1,0,0,1,142.15899658203125,38.50699996948242)"><path fill="rgb(236,153,116)" fill-opacity="1" d=" M-117.15899658203125,12.91100025177002 C-117.15899658203125,12.91100025177002 -111.11000061035156,13.506999969482422 -100.69599914550781,11.762999534606934 C-76.68599700927734,7.741000175476074 -31.58799934387207,0.9879999756813049 10.336999893188477,-3.552000045776367 C70.447998046875,-10.060999870300293 111.03199768066406,-10.82699966430664 112.9469985961914,-11.592000007629395 C114.86100006103516,-12.359000205993652 117.15899658203125,-13.506999969482422 117.15899658203125,-13.506999969482422"></path></g><g opacity="1" transform="matrix(1,0,0,1,142.15899658203125,38.50699996948242)"><path stroke-linecap="round" stroke-linejoin="round" fill-opacity="0" stroke="rgb(91,27,18)" stroke-opacity="1" stroke-width="10" d=" M-117.15899658203125,12.91100025177002 C-117.15899658203125,12.91100025177002 -111.11000061035156,13.506999969482422 -100.69599914550781,11.762999534606934 C-76.68599700927734,7.741000175476074 -31.58799934387207,0.9879999756813049 10.336999893188477,-3.552000045776367 C70.447998046875,-10.060999870300293 111.03199768066406,-10.82699966430664 112.9469985961914,-11.592000007629395 C114.86100006103516,-12.359000205993652 117.15899658203125,-13.506999969482422 117.15899658203125,-13.506999969482422"></path></g></g></g><g style="display: block;" transform="matrix(1.0539437532424927,0.04860565438866615,-0.04765167832374573,1.0431910753250122,119.25530242919922,165.38357543945312)" opacity="1"><g opacity="1" transform="matrix(1,0,0,1,0,0)"><path fill="url(#__lottie_element_41)" fill-opacity="1" d=" M46.321998596191406,6.853000164031982 C46.321998596191406,6.853000164031982 0.4429999887943268,13.390000343322754 7.203999996185303,26.267000198364258 C13.96500015258789,39.14400100708008 50.24700164794922,28.85300064086914 84.65699768066406,26.552000045776367 C119.06700134277344,24.250999450683594 159.75100708007812,24.983999252319336 168.4340057373047,25.18199920654297 C177.11700439453125,25.3799991607666 257.4630126953125,22.26099967956543 243.6300048828125,14.234999656677246 C229.7969970703125,6.209000110626221 186.6999969482422,3.1080000400543213 163.97300720214844,3.2330000400543213 C141.24600219726562,3.3580000400543213 95.4729995727539,5.7220001220703125 95.4729995727539,5.7220001220703125 C95.4729995727539,5.7220001220703125 46.321998596191406,6.853000164031982 46.321998596191406,6.853000164031982z"></path></g><g opacity="1" transform="matrix(1,0,0,1,74.16600036621094,24.975000381469727)"><path fill="rgb(75,36,31)" fill-opacity="1" d=" M-40.87200164794922,4.410999774932861 C-25.055999755859375,2.5199999809265137 -15.699000358581543,2.066999912261963 12.993000030517578,0.652999997138977 C43.15299987792969,-0.8330000042915344 57.33399963378906,-1.218000054359436 56.986000061035156,-3.6010000705718994 C56.749000549316406,-5.230000019073486 57.12799835205078,-6.206999778747559 47.42399978637695,-6.376999855041504 C37.720001220703125,-6.546999931335449 -19.770000457763672,-5.46999979019165 -45.040000915527344,-3.0940001010894775 C-48.74700164794922,-2.746000051498413 -56.034000396728516,-3.615000009536743 -56.632999420166016,1.0709999799728394 C-57.33399963378906,6.546000003814697 -42.88999938964844,4.6519999504089355 -40.87200164794922,4.410999774932861z"></path></g><g opacity="1" transform="matrix(1,0,0,1,74.16600036621094,24.975000381469727)"><path stroke-linecap="butt" stroke-linejoin="miter" fill-opacity="0" stroke-miterlimit="10" stroke="rgb(57,28,21)" stroke-opacity="1" stroke-width="6.733" d=" M-40.87200164794922,4.410999774932861 C-25.055999755859375,2.5199999809265137 -15.699000358581543,2.066999912261963 12.993000030517578,0.652999997138977 C43.15299987792969,-0.8330000042915344 57.33399963378906,-1.218000054359436 56.986000061035156,-3.6010000705718994 C56.749000549316406,-5.230000019073486 57.12799835205078,-6.206999778747559 47.42399978637695,-6.376999855041504 C37.720001220703125,-6.546999931335449 -19.770000457763672,-5.46999979019165 -45.040000915527344,-3.0940001010894775 C-48.74700164794922,-2.746000051498413 -56.034000396728516,-3.615000009536743 -56.632999420166016,1.0709999799728394 C-57.33399963378906,6.546000003814697 -42.88999938964844,4.6519999504089355 -40.87200164794922,4.410999774932861z"></path></g><g opacity="1" transform="matrix(1.3102325201034546,0.07146424055099487,-0.05632864311337471,1.032734990119934,-61.54829406738281,-9.523492813110352)"><g opacity="1" transform="matrix(1,0,0,1,215.89700317382812,19.204999923706055)"><path fill="rgb(75,36,31)" fill-opacity="1" d=" M-31.281999588012695,3.234999895095825 C-18.20400047302246,3.0160000324249268 -0.8650000095367432,2.359999895095825 14.12600040435791,2.109999895095825 C29.118000030517578,1.8600000143051147 37.88100051879883,2.24399995803833 39.7859992980957,0.7979999780654907 C41.51599884033203,-0.515999972820282 37.57500076293945,-3.0789999961853027 25.658000946044922,-3.3289999961853027 C13.741999626159668,-3.5789999961853027 -4.229000091552734,-3.3289999961853027 -21.336000442504883,-3.3289999961853027 C-24.731000900268555,-3.3289999961853027 -41.51599884033203,-4.267000198364258 -41.51599884033203,0.23499999940395355 C-41.51599884033203,4.26800012588501 -33.667999267578125,3.2750000953674316 -31.281999588012695,3.234999895095825z"></path></g><g opacity="1" transform="matrix(1,0,0,1,215.89700317382812,19.204999923706055)"><path stroke-linecap="butt" stroke-linejoin="miter" fill-opacity="0" stroke-miterlimit="10" stroke="rgb(57,28,21)" stroke-opacity="1" stroke-width="5.975" d=" M-31.281999588012695,3.234999895095825 C-18.20400047302246,3.0160000324249268 -0.8650000095367432,2.359999895095825 14.12600040435791,2.109999895095825 C29.118000030517578,1.8600000143051147 37.88100051879883,2.24399995803833 39.7859992980957,0.7979999780654907 C41.51599884033203,-0.515999972820282 37.57500076293945,-3.0789999961853027 25.658000946044922,-3.3289999961853027 C13.741999626159668,-3.5789999961853027 -4.229000091552734,-3.3289999961853027 -21.336000442504883,-3.3289999961853027 C-24.731000900268555,-3.3289999961853027 -41.51599884033203,-4.267000198364258 -41.51599884033203,0.23499999940395355 C-41.51599884033203,4.26800012588501 -33.667999267578125,3.2750000953674316 -31.281999588012695,3.234999895095825z"></path></g></g></g><g style="display: none;"><g><path></path><path stroke-linecap="round" stroke-linejoin="round" fill-opacity="0"></path></g><g><path></path></g></g><g style="display: none;"><g><path></path><path stroke-linecap="round" stroke-linejoin="round" fill-opacity="0"></path></g><g><path></path></g></g><g style="display: none;"><g><path></path><path stroke-linecap="round" stroke-linejoin="round" fill-opacity="0"></path></g></g><g style="display: none;"><g><path></path><path stroke-linecap="round" stroke-linejoin="round" fill-opacity="0"></path></g><g><path></path></g></g><g style="display: none;"><g><path></path><path stroke-linecap="round" stroke-linejoin="round" fill-opacity="0"></path></g><g><path></path><path stroke-linecap="round" stroke-linejoin="round" fill-opacity="0"></path></g></g><g style="display: none;"><g><path></path><path stroke-linecap="round" stroke-linejoin="round" fill-opacity="0"></path></g></g></g></svg>