<svg xmlns="http://www.w3.org/2000/svg" xmlns:xlink="http://www.w3.org/1999/xlink" viewBox="0 0 512 512" width="512" height="512" style="width: 100%; height: 100%; transform: translate3d(0,0,0); content-visibility: visible;" preserveAspectRatio="xMidYMid meet"><defs><clipPath id="__lottie_element_2"><rect width="512" height="512" x="0" y="0"></rect></clipPath><clipPath id="__lottie_element_4"><path d="M0,0 L512,0 L512,512 L0,512z"></path></clipPath><radialGradient id="__lottie_element_17" spreadMethod="pad" gradientUnits="userSpaceOnUse"><stop></stop><stop></stop><stop></stop></radialGradient><clipPath id="__lottie_element_54"><path d="M0,0 L512,0 L512,512 L0,512z"></path></clipPath><radialGradient id="__lottie_element_67" spreadMethod="pad" gradientUnits="userSpaceOnUse" cx="529.1409912109375" cy="-258.3869934082031" r="510.4554489115282" fx="529.1409912109375" fy="-258.3869934082031"><stop offset="33%" stop-color="rgb(253,237,220)"></stop><stop offset="90%" stop-color="rgb(249,213,186)"></stop><stop offset="100%" stop-color="rgb(244,189,152)"></stop></radialGradient></defs><g clip-path="url(#__lottie_element_2)"><g clip-path="url(#__lottie_element_54)" style="display: block;" transform="matrix(0.9609400033950806,0,0,0.9609400033950806,-2.000640869140625,6.999359130859375)" opacity="1"><g style="display: block;" transform="matrix(0.9962083697319031,-0.08699925988912582,0.08699925988912582,0.9962083697319031,173.75804138183594,142.5304718017578)" opacity="1"><g opacity="1" transform="matrix(1,0,0,1,175.1219940185547,164.32899475097656)"><path stroke-linecap="round" stroke-linejoin="round" fill-opacity="0" stroke="rgb(206,121,78)" stroke-opacity="1" stroke-width="13.705" d=" M-18.979999542236328,-50.76499938964844 C-18.979999542236328,-50.76499938964844 -1.2120000123977661,-34.612998962402344 7.672999858856201,-13.425999641418457 C16.5939998626709,7.849999904632568 18.374000549316406,26.850000381469727 18.374000549316406,33.77199935913086 C18.374000549316406,40.69499969482422 18.979999542236328,50.763999938964844 18.979999542236328,50.763999938964844"></path></g><g opacity="1" transform="matrix(1,0,0,1,53.0260009765625,162.96600341796875)"><path stroke-linecap="round" stroke-linejoin="round" fill-opacity="0" stroke="rgb(165,72,40)" stroke-opacity="1" stroke-width="12.802" d=" M21.020999908447266,-45.5880012512207 C21.020999908447266,-45.5880012512207 -0.503000020980835,-26.375999450683594 -8.649999618530273,-14.381999969482422 C-16.79599952697754,-2.388000011444092 -20.41699981689453,17.268999099731445 -20.7189998626709,24.599000930786133 C-21.020999908447266,31.92799949645996 -19.209999084472656,45.5880012512207 -19.209999084472656,45.5880012512207"></path></g><g opacity="1" transform="matrix(1,0,0,1,115.09200286865234,146.27499389648438)"><path fill="rgb(242,166,145)" fill-opacity="1" d=" M-7.26200008392334,-14.366999626159668 C-7.26200008392334,-14.366999626159668 -8.402000427246094,7.330999851226807 -5.434000015258789,9.993000030517578 C-0.5550000071525574,14.366000175476074 4.835999965667725,12.786999702453613 6.796999931335449,10.467000007629395 C8.402000427246094,8.567999839782715 6.432000160217285,-8.654999732971191 6.432000160217285,-8.654999732971191"></path></g><g opacity="1" transform="matrix(1,0,0,1,114.18599700927734,88.5)"><path fill="rgb(252,226,204)" fill-opacity="1" d=" M10.805418968200684,-52.68476486206055 C10.805418968200684,-52.68476486206055 -0.8169726133346558,-60.3712158203125 -4.452144145965576,-54.90887451171875 C-7.729297161102295,-49.32341766357422 -10.674798965454102,-32.03252410888672 -13.372220039367676,-12.586896896362305 C-15.395723342895508,1.3416701555252075 -25.114782333374023,10.568323135375977 -25.114782333374023,10.568323135375977 C-25.114782333374023,10.568323135375977 -39.11064910888672,19.364519119262695 -36.93064880371094,31.35251808166504 C-34.75164794921875,43.33951950073242 -26.312999725341797,43.5099983215332 -19.04800033569336,43.5099983215332 C-11.782999992370605,43.5099983215332 -10.411588668823242,38.363555908203125 -2.0565884113311768,41.63255310058594 C6.2984113693237305,44.90255355834961 13.5835542678833,49.04130935668945 24.844554901123047,47.22530746459961 C36.10555648803711,45.40830612182617 38.6339111328125,42.22801971435547 41.760555267333984,35.556785583496094 C46.899940490722656,24.97942352294922 34.89672088623047,13.739224433898926 29.0067195892334,9.164223670959473 C23.115720748901367,4.588223934173584 24.522233963012695,-0.15114590525627136 21.373188018798828,-5.44539213180542 C8.954179763793945,-25.896074295043945 10.805418968200684,-52.68476486206055 10.805418968200684,-52.68476486206055z"></path></g><g opacity="1" transform="matrix(1,0,0,1,0,0)"><path stroke-linecap="round" stroke-linejoin="round" fill-opacity="0" stroke="rgb(165,72,40)" stroke-opacity="1" stroke-width="12" d=" M108.0979995727539,102.80000305175781 C108.0979995727539,102.80000305175781 99.39600372314453,99.37300109863281 90.36199951171875,101.27200317382812 C78.15899658203125,103.83699798583984 76.28500366210938,107.90299987792969 74.6719970703125,114.90299987792969 C72.16000366210938,125.80799865722656 80.84100341796875,131.406005859375 92.26200103759766,132.5970001220703 C109.05699920654297,134.34800720214844 111.01300048828125,127.06600189208984 111.01300048828125,127.06600189208984 C111.01300048828125,127.06600189208984 135.5189971923828,143.45199584960938 150.49000549316406,135.09300231933594 C156.19400024414062,131.9080047607422 158.19000244140625,129.0590057373047 160.7519989013672,122.2040023803711 C162.67300415039062,117.06500244140625 158.74200439453125,107.6050033569336 149.4080047607422,100.93800354003906 C119.43000030517578,79.52400207519531 126.5270004272461,40.909000396728516 126.5270004272461,40.909000396728516"></path></g></g><g style="display: block;" transform="matrix(1,0,0,1,220.14199829101562,267.1839904785156)" opacity="1"><g opacity="1" transform="matrix(1,0,0,1,82.20099639892578,110.95899963378906)"><path fill="rgb(228,151,113)" fill-opacity="1" d=" M-58.06700134277344,-62.26100158691406 C-58.06700134277344,-62.26100158691406 -64.22000122070312,-62.85100173950195 -63.67499923706055,-57.402000427246094 C-63.130001068115234,-51.952999114990234 -56.11199951171875,-39.82600021362305 -55.3849983215332,-30.01799964904785 C-54.659000396728516,-20.211000442504883 -59.744998931884766,-7.133999824523926 -61.92399978637695,2.493000030517578 C-64.10399627685547,12.119000434875488 -64.64800262451172,24.650999069213867 -59.5629997253418,33.36899948120117 C-54.47700119018555,42.08700180053711 -40.924888610839844,59.360897064208984 -34.5458869934082,60.09689712524414 C-27.461889266967773,60.91389846801758 0.5265658497810364,62.00106430053711 30.617565155029297,56.379066467285156 C55.40956497192383,51.74806594848633 67.11138916015625,46.7714958190918 67.11138916015625,46.7714958190918 C67.11138916015625,46.7714958190918 58.731998443603516,34.034000396728516 58.130001068115234,31.371000289916992 C56.85900115966797,25.740999221801758 59.58300018310547,17.56800079345703 59.58300018310547,17.56800079345703 C59.58300018310547,17.56800079345703 37.24300003051758,45.17499923706055 8.90999984741211,41.36000061035156 C-19.423999786376953,37.54600143432617 -39.22100067138672,25.013999938964844 -39.402000427246094,8.486000061035156 C-39.58399963378906,-8.041999816894531 -33.04600143432617,-19.666000366210938 -19.242000579833984,-25.840999603271484 C-5.439000129699707,-32.01599884033203 18.62700080871582,-23.479999542236328 26.072999954223633,-21.663999557495117 C33.52000045776367,-19.847000122070312 38.60599899291992,-21.208999633789062 38.60599899291992,-23.025999069213867 C38.60599899291992,-24.841999053955078 43.87300109863281,-42.459999084472656 41.875,-44.82099914550781 C39.87699890136719,-47.18199920654297 16.628999710083008,-35.28499984741211 -2.259999990463257,-36.91999816894531 C-21.14900016784668,-38.55500030517578 -50.75400161743164,-52.44900131225586 -50.481998443603516,-55.08300018310547 C-50.42300033569336,-55.65399932861328 -58.06700134277344,-62.26100158691406 -58.06700134277344,-62.26100158691406z"></path></g><g opacity="1" transform="matrix(1,0,0,1,77.31199645996094,37.194000244140625)"><path fill="rgb(226,115,100)" fill-opacity="1" d=" M-52.3120002746582,9.782999992370605 C-52.3120002746582,9.782999992370605 -40.143001556396484,-9.833000183105469 -25.97599983215332,-9.833000183105469 C-11.8100004196167,-9.833000183105469 1.812000036239624,-2.6570000648498535 15.979000091552734,-6.198999881744385 C26.364999771118164,-8.795000076293945 36.86600112915039,-12.194000244140625 41.77000045776367,-6.744999885559082 C46.67399978637695,-1.2960000038146973 52.3120002746582,12.192999839782715 49.76100158691406,11.236000061035156 C43.94900131225586,9.055999755859375 18.885000228881836,7.239999771118164 1.4490000009536743,7.239999771118164 C-15.987000465393066,7.239999771118164 -52.3120002746582,9.782999992370605 -52.3120002746582,9.782999992370605z"></path><path stroke-linecap="round" stroke-linejoin="round" fill-opacity="0" stroke="rgb(204,98,98)" stroke-opacity="1" stroke-width="10" d=" M-52.3120002746582,9.782999992370605 C-52.3120002746582,9.782999992370605 -40.143001556396484,-9.833000183105469 -25.97599983215332,-9.833000183105469 C-11.8100004196167,-9.833000183105469 1.812000036239624,-2.6570000648498535 15.979000091552734,-6.198999881744385 C26.364999771118164,-8.795000076293945 36.86600112915039,-12.194000244140625 41.77000045776367,-6.744999885559082 C46.67399978637695,-1.2960000038146973 52.3120002746582,12.192999839782715 49.76100158691406,11.236000061035156 C43.94900131225586,9.055999755859375 18.885000228881836,7.239999771118164 1.4490000009536743,7.239999771118164 C-15.987000465393066,7.239999771118164 -52.3120002746582,9.782999992370605 -52.3120002746582,9.782999992370605z"></path></g><g opacity="1" transform="matrix(1,0,0,1,77.2490005493164,60.46099853515625)"><path fill="rgb(255,147,136)" fill-opacity="1" d=" M-50.57500076293945,-11.668000221252441 C-50.57500076293945,-11.668000221252441 -42.86800003051758,10.491000175476074 -19.74799919128418,11.581000328063965 C-9.781999588012695,12.050999641418457 0.7429999709129333,11.425000190734863 10.5,11.39900016784668 C23.378000259399414,11.364999771118164 35.159000396728516,13.303000450134277 40.749000549316406,9.583000183105469 C50.57500076293945,3.0450000762939453 49.41899871826172,-12.758000373840332 49.41899871826172,-12.758000373840332 C49.41899871826172,-12.758000373840332 -1.4450000524520874,-13.303000450134277 -15.895000457763672,-13.303000450134277 C-30.344999313354492,-13.303000450134277 -50.57500076293945,-11.668000221252441 -50.57500076293945,-11.668000221252441z"></path><path stroke-linecap="round" stroke-linejoin="round" fill-opacity="0" stroke="rgb(209,93,93)" stroke-opacity="1" stroke-width="10.299" d=" M-50.57500076293945,-11.668000221252441 C-50.57500076293945,-11.668000221252441 -42.86800003051758,10.491000175476074 -19.74799919128418,11.581000328063965 C-9.781999588012695,12.050999641418457 0.7429999709129333,11.425000190734863 10.5,11.39900016784668 C23.378000259399414,11.364999771118164 35.159000396728516,13.303000450134277 40.749000549316406,9.583000183105469 C50.57500076293945,3.0450000762939453 49.41899871826172,-12.758000373840332 49.41899871826172,-12.758000373840332 C49.41899871826172,-12.758000373840332 -1.4450000524520874,-13.303000450134277 -15.895000457763672,-13.303000450134277 C-30.344999313354492,-13.303000450134277 -50.57500076293945,-11.668000221252441 -50.57500076293945,-11.668000221252441z"></path></g><g opacity="1" transform="matrix(1,0,0,1,76.6729965209961,48.249000549316406)"><path stroke-linecap="round" stroke-linejoin="round" fill-opacity="0" stroke="rgb(145,67,82)" stroke-opacity="1" stroke-width="8.675" d=" M-53.67100143432617,0.1809999942779541 C-53.67100143432617,0.1809999942779541 -17.89900016784668,-2.7249999046325684 -1.3630000352859497,-2.361999988555908 C15.17199993133545,-1.9989999532699585 36.87900161743164,-0.2630000114440918 40.81999969482422,-0.5460000038146973 C45.88199996948242,-0.9089999794960022 53.67100143432617,2.7249999046325684 53.67100143432617,2.7249999046325684"></path></g><g opacity="1" transform="matrix(1,0,0,1,0,0)"><path fill="rgb(252,226,204)" fill-opacity="1" d=" M104.93199920654297,86.2750015258789 C83.32099914550781,78.24600219726562 86.41000366210938,84.81099700927734 72.9010009765625,85.31900024414062 C59.391998291015625,85.8270034790039 46.11199951171875,103.99800109863281 46.08700180053711,113.16799926757812 C46.02199935913086,136.95799255371094 65.40599822998047,145.98300170898438 90.0459976196289,148.5780029296875 C106.46499633789062,150.3070068359375 139.22300720214844,129.45799255371094 139.22300720214844,129.45799255371094 C139.22300720214844,129.45799255371094 140.9980010986328,114.68199920654297 134.63400268554688,104.97899627685547 C129.37899780273438,96.96700286865234 119.89099884033203,91.83300018310547 104.93199920654297,86.2750015258789z"></path></g><g opacity="1" transform="matrix(1,0,0,1,88.52400207519531,114.90499877929688)"><path stroke-linecap="round" stroke-linejoin="round" fill-opacity="0" stroke="rgb(165,72,40)" stroke-opacity="1" stroke-width="11" d=" M17.299999237060547,-32.69300079345703 C17.299999237060547,-32.69300079345703 -4.495999813079834,-38.6870002746582 -21.93199920654297,-32.69300079345703 C-39.36800003051758,-26.698999404907227 -51.89899826049805,-4.9029998779296875 -42.63600158691406,13.621999740600586 C-33.37300109863281,32.14799880981445 -6.676000118255615,38.68600082397461 16.208999633789062,34.87200164794922 C39.09400177001953,31.058000564575195 48.494998931884766,18.382999420166016 50.5369987487793,4.9039998054504395 C51.900001525878906,-4.085999965667725 48.356998443603516,-10.897000312805176 48.356998443603516,-10.897000312805176"></path></g></g><g style="display: block;" transform="matrix(1,0,0,1,20.569000244140625,11.85198974609375)" opacity="1"><g opacity="1" transform="matrix(1,0,0,1,248.18499755859375,234.01800537109375)"><path fill="url(#__lottie_element_67)" fill-opacity="1" d=" M-101.34700012207031,-187.43800354003906 C-101.34700012207031,-187.43800354003906 -39.45199966430664,-203.43299865722656 -14.42300033569336,-204.7830047607422 C24.246000289916992,-206.86900329589844 81.72000122070312,-200.16799926757812 132.9499969482422,-148.93800354003906 C193.9759979248047,-87.91200256347656 209.23199462890625,-27.243999481201172 213.59100341796875,18.524999618530273 C217.9499969482422,64.29499816894531 201.78399658203125,100.98780059814453 179.98899841308594,130.41180419921875 C158.19400024414062,159.83480834960938 112.15499877929688,190.5260009765625 35.87200164794922,198.15499877929688 C-40.4109992980957,205.7830047607422 -124.68099975585938,176.00180053710938 -160.64199829101562,136.7707977294922 C-188.7790069580078,106.07579803466797 -223.9499969482422,13.154000282287598 -207.60400390625,-50.05099868774414 C-191.25799560546875,-113.25700378417969 -176.5399932861328,-141.66799926757812 -147.11700439453125,-165.64300537109375 C-131.177001953125,-178.63099670410156 -101.34700012207031,-187.43800354003906 -101.34700012207031,-187.43800354003906z"></path><path stroke-linecap="butt" stroke-linejoin="miter" fill-opacity="0" stroke-miterlimit="10" stroke="rgb(168,82,35)" stroke-opacity="1" stroke-width="12.094" d=" M-101.34700012207031,-187.43800354003906 C-101.34700012207031,-187.43800354003906 -39.45199966430664,-203.43299865722656 -14.42300033569336,-204.7830047607422 C24.246000289916992,-206.86900329589844 81.72000122070312,-200.16799926757812 132.9499969482422,-148.93800354003906 C193.9759979248047,-87.91200256347656 209.23199462890625,-27.243999481201172 213.59100341796875,18.524999618530273 C217.9499969482422,64.29499816894531 201.78399658203125,100.98780059814453 179.98899841308594,130.41180419921875 C158.19400024414062,159.83480834960938 112.15499877929688,190.5260009765625 35.87200164794922,198.15499877929688 C-40.4109992980957,205.7830047607422 -124.68099975585938,176.00180053710938 -160.64199829101562,136.7707977294922 C-188.7790069580078,106.07579803466797 -223.9499969482422,13.154000282287598 -207.60400390625,-50.05099868774414 C-191.25799560546875,-113.25700378417969 -176.5399932861328,-141.66799926757812 -147.11700439453125,-165.64300537109375 C-131.177001953125,-178.63099670410156 -101.34700012207031,-187.43800354003906 -101.34700012207031,-187.43800354003906z"></path></g><g opacity="1" transform="matrix(1,0,0,1,397.8800048828125,239.09500122070312)"><path stroke-linecap="round" stroke-linejoin="round" fill-opacity="0" stroke="rgb(206,121,78)" stroke-opacity="1" stroke-width="12.094" d=" M4.2170000076293945,-28.235000610351562 C4.2170000076293945,-28.235000610351562 8.824000358581543,-7.177000045776367 2.8450000286102295,8.807000160217285 C-3.132999897003174,24.79199981689453 -8.824000358581543,28.236000061035156 -8.824000358581543,28.236000061035156"></path></g></g><g style="display: block;" transform="matrix(0.9962083697319031,-0.08699925988912582,0.08699925988912582,0.9962083697319031,159.63429260253906,152.1948699951172)" opacity="1"><g opacity="1" transform="matrix(1,0,0,1,0,0)"><g opacity="1" transform="matrix(1,0,0,1,58.165000915527344,60.29999923706055)"><path fill="rgb(163,87,61)" fill-opacity="1" d=" M-29.91900062561035,-39.10200119018555 C-29.91900062561035,-39.10200119018555 -46.38800048828125,-31.072999954223633 -45.8390007019043,-14.718999862670898 C-45.290000915527344,1.6349999904632568 -45.8390007019043,23.341999053955078 -34.584999084472656,29.884000778198242 C-23.33099937438965,36.42599868774414 -0.8240000009536743,39.10200119018555 14.27299976348877,32.560001373291016 C29.3700008392334,26.01799964904785 46.38800048828125,10.258999824523926 43.09400177001953,-9.069000244140625 C39.79999923706055,-28.39699935913086 40.89799880981445,-33.45199966430664 24.429000854492188,-34.93899917602539 C7.960000038146973,-36.42599868774414 -29.91900062561035,-39.10200119018555 -29.91900062561035,-39.10200119018555z"></path></g><g opacity="1" transform="matrix(1,0,0,1,71.00900268554688,66.92400360107422)"><path stroke-linecap="round" stroke-linejoin="round" fill-opacity="0" stroke="rgb(165,72,40)" stroke-opacity="1" stroke-width="10.612" d=" M23.65399932861328,-28.115999221801758 C23.65399932861328,-28.115999221801758 36.619998931884766,4.124000072479248 -1.1349999904632568,21.81999969482422 C-14.565999984741211,28.115999221801758 -36.619998931884766,23.39699935913086 -36.619998931884766,23.39699935913086"></path></g><g opacity="1" transform="matrix(1,0,0,1,58.54399871826172,53.457000732421875)"><path fill="rgb(216,192,221)" fill-opacity="1" d=" M-37.28900146484375,2.2860000133514404 C-37.40700149536133,-1.7050000429153442 -36.10200119018555,-6.145999908447266 -33.4739990234375,-8.496000289916992 C-27.176000595092773,-14.126999855041504 -5.315000057220459,-20.55299949645996 10.668999671936035,-17.575000762939453 C37.12699890136719,-12.647000312805176 37.40700149536133,-5.021999835968018 36.28200149536133,5.123000144958496 C34.75899887084961,18.858999252319336 24.518999099731445,19.170000076293945 4.269000053405762,19.86199951171875 C-15.980999946594238,20.55299949645996 -26.759000778198242,19.04199981689453 -32.38399887084961,14.20300006866455 C-35.2599983215332,11.727999687194824 -37.176998138427734,6.057000160217285 -37.28900146484375,2.2860000133514404z"></path><path stroke-linecap="round" stroke-linejoin="round" fill-opacity="0" stroke="rgb(94,38,51)" stroke-opacity="1" stroke-width="8.455" d=" M-37.28900146484375,2.2860000133514404 C-37.40700149536133,-1.7050000429153442 -36.10200119018555,-6.145999908447266 -33.4739990234375,-8.496000289916992 C-27.176000595092773,-14.126999855041504 -5.315000057220459,-20.55299949645996 10.668999671936035,-17.575000762939453 C37.12699890136719,-12.647000312805176 37.40700149536133,-5.021999835968018 36.28200149536133,5.123000144958496 C34.75899887084961,18.858999252319336 24.518999099731445,19.170000076293945 4.269000053405762,19.86199951171875 C-15.980999946594238,20.55299949645996 -26.759000778198242,19.04199981689453 -32.38399887084961,14.20300006866455 C-35.2599983215332,11.727999687194824 -37.176998138427734,6.057000160217285 -37.28900146484375,2.2860000133514404z"></path></g><g opacity="1" transform="matrix(1,0,0,1,0.3920021057128906,-1.0750007629394531)"><g opacity="1" transform="matrix(1,0,0,1,60.96799850463867,54.38800048828125)"><path fill="rgb(41,21,56)" fill-opacity="1" d=" M-3.130000114440918,19.301000595092773 C-3.130000114440918,19.301000595092773 -21.52899932861328,18.118999481201172 -20.959999084472656,2.36299991607666 C-20.524999618530273,-9.680000305175781 -10.527999877929688,-20.483999252319336 2.75,-16.937999725341797 C16.027999877929688,-13.392999649047852 21.52899932861328,6.302000045776367 14.321000099182129,13.392000198364258 C7.11299991607666,20.482999801635742 -3.130000114440918,19.301000595092773 -3.130000114440918,19.301000595092773z"></path></g><g opacity="1" transform="matrix(1,0,0,1,58.30699920654297,62.38199996948242)"><path fill="rgb(95,65,127)" fill-opacity="1" d=" M-0.7480000257492065,10.369000434875488 C-0.7480000257492065,10.369000434875488 -15.543999671936035,6.624000072479248 -12.1899995803833,-0.335999995470047 C-12.277000427246094,-0.7279999852180481 -3.3310000896453857,-0.02800000086426735 2.736999988555908,0.843999981880188 C5.85099983215332,1.2910000085830688 14.623000144958496,1.6410000324249268 13.378999710083008,4.236999988555908 C9.335000038146973,12.67199993133545 -0.7480000257492065,10.369000434875488 -0.7480000257492065,10.369000434875488z"></path></g><g opacity="1" transform="matrix(1,0,0,1,43.25,52.566001892089844)"><path fill="rgb(255,255,255)" fill-opacity="1" d=" M-1.4589999914169312,4.580999851226807 C-1.4589999914169312,4.580999851226807 -10.03600025177002,4.301000118255615 -9.770999908447266,0.5609999895095825 C-9.567999839782715,-2.296999931335449 -4.9079999923706055,-4.861999988555908 1.281999945640564,-4.019999980926514 C7.4720001220703125,-3.178999900817871 10.03600025177002,1.496999979019165 6.676000118255615,3.180000066757202 C3.315999984741211,4.861999988555908 -1.4589999914169312,4.580999851226807 -1.4589999914169312,4.580999851226807z"></path></g><g opacity="1" transform="matrix(1,0,0,1,71.76599884033203,57.27299880981445)"><path fill="rgb(255,255,255)" fill-opacity="1" d=" M-0.5239999890327454,2.5929999351501465 C-0.5239999890327454,2.5929999351501465 -3.6080000400543213,2.434999942779541 -3.51200008392334,0.3179999887943268 C-3.438999891281128,-1.2999999523162842 -1.7649999856948853,-2.753000020980835 0.46000000834465027,-2.2769999504089355 C2.686000108718872,-1.7999999523162842 3.6080000400543213,0.8460000157356262 2.4000000953674316,1.7990000247955322 C1.1920000314712524,2.752000093460083 -0.5239999890327454,2.5929999351501465 -0.5239999890327454,2.5929999351501465z"></path></g></g></g><g opacity="1" transform="matrix(1,0,0,1,0,0)"><g opacity="1" transform="matrix(1,0,0,1,182.51699829101562,59.18299865722656)"><path fill="rgb(237,162,128)" fill-opacity="1" d=" M32.47800064086914,-35.91699981689453 C32.47800064086914,-35.91699981689453 52.104000091552734,-24.62700080871582 52.104000091552734,-4.9770002365112305 C52.104000091552734,10.222999572753906 47.95399856567383,22.086999893188477 37.01300048828125,28.163999557495117 C26.072999954223633,34.2400016784668 -6.992000102996826,35.91699981689453 -21.66900062561035,29.84000015258789 C-36.345001220703125,23.763999938964844 -52.104000091552734,4.357999801635742 -48.9010009765625,-13.595999717712402 C-45.69900131225586,-31.548999786376953 -41.47100067138672,-32.89799880981445 -25.461000442504883,-34.279998779296875 C-9.449999809265137,-35.6609992980957 32.47800064086914,-35.91699981689453 32.47800064086914,-35.91699981689453z"></path></g><g opacity="1" transform="matrix(1,0,0,1,155.2469940185547,46.018001556396484)"><path stroke-linecap="round" stroke-linejoin="round" fill-opacity="0" stroke="rgb(193,104,66)" stroke-opacity="1" stroke-width="11.478" d=" M7.498000144958496,-17.322999954223633 C7.498000144958496,-17.322999954223633 -2.1659998893737793,-9.904000282287598 -4.394999980926514,-2.8440001010894775 C-7.498000144958496,6.980999946594238 -1.465000033378601,17.322999954223633 -1.465000033378601,17.322999954223633"></path></g><g opacity="1" transform="matrix(1,0,0,1,187.9250030517578,78.09100341796875)"><path stroke-linecap="round" stroke-linejoin="round" fill-opacity="0" stroke="rgb(193,104,66)" stroke-opacity="1" stroke-width="11.389" d=" M-33.970001220703125,-12.156999588012695 C-33.970001220703125,-12.156999588012695 -24.468000411987305,3.2660000324249268 -7.072999954223633,8.430000305175781 C4.88100004196167,11.979999542236328 16.437999725341797,12.156000137329102 24.60700035095215,10.559000015258789 C29.594999313354492,9.583999633789062 33.970001220703125,7.188000202178955 33.970001220703125,7.188000202178955"></path></g><g opacity="1" transform="matrix(1,0,0,1,189.99099731445312,57.76100158691406)"><path fill="rgb(255,255,255)" fill-opacity="1" d=" M-31.89900016784668,-5.28000020980835 C-31.577999114990234,-9.187999725341797 -24.00200080871582,-15.163999557495117 -12.373000144958496,-16.77899932861328 C5.671000003814697,-19.284000396728516 32.90999984741211,-13.553000450134277 33.67900085449219,-3.5829999446868896 C34.78200149536133,10.729999542236328 29.121000289916992,13.21399974822998 14.10200023651123,16.249000549316406 C-0.9160000085830688,19.284000396728516 -20.523000717163086,15.75 -27.761999130249023,9.543999671936035 C-34.78099822998047,3.5290000438690186 -32.25899887084961,-0.8949999809265137 -31.89900016784668,-5.28000020980835z"></path><path stroke-linecap="round" stroke-linejoin="round" fill-opacity="0" stroke="rgb(94,38,51)" stroke-opacity="1" stroke-width="8.283" d=" M-31.89900016784668,-5.28000020980835 C-31.577999114990234,-9.187999725341797 -24.00200080871582,-15.163999557495117 -12.373000144958496,-16.77899932861328 C5.671000003814697,-19.284000396728516 32.90999984741211,-13.553000450134277 33.67900085449219,-3.5829999446868896 C34.78200149536133,10.729999542236328 29.121000289916992,13.21399974822998 14.10200023651123,16.249000549316406 C-0.9160000085830688,19.284000396728516 -20.523000717163086,15.75 -27.761999130249023,9.543999671936035 C-34.78099822998047,3.5290000438690186 -32.25899887084961,-0.8949999809265137 -31.89900016784668,-5.28000020980835z"></path></g><g opacity="1" transform="matrix(1.0227100849151611,0,0,1.063439965248108,-3.9024658203125,-4.269195556640625)"><g opacity="1" transform="matrix(1,0,0,1,186.17100524902344,57.66299819946289)"><path fill="rgb(41,21,56)" fill-opacity="1" d=" M-2.683000087738037,15.970999717712402 C-2.683000087738037,15.970999717712402 -18.457000732421875,14.993000030517578 -17.9689998626709,1.9559999704360962 C-17.597000122070312,-8.008999824523926 -9.026000022888184,-16.948999404907227 2.3570001125335693,-14.015000343322754 C13.741000175476074,-11.081999778747559 18.45800018310547,5.215000152587891 12.277999877929688,11.081999778747559 C6.098999977111816,16.948999404907227 -2.683000087738037,15.970999717712402 -2.683000087738037,15.970999717712402z"></path></g><g opacity="1" transform="matrix(1,0,0,1,184.92999267578125,63.55699920654297)"><path fill="rgb(95,65,127)" fill-opacity="1" d=" M-3.3499999046325684,7.565000057220459 C-3.3499999046325684,7.565000057220459 -14.831999778747559,5.499000072479248 -14.434000015258789,-2.5510001182556152 C-14.130000114440918,-8.70300006866455 -8.949999809265137,-3.4739999771118164 0.3449999988079071,-1.6629999876022339 C9.638999938964844,0.14800000190734863 14.831999778747559,1.4579999446868896 9.786999702453613,5.079999923706055 C4.741000175476074,8.70300006866455 -3.3499999046325684,7.565000057220459 -3.3499999046325684,7.565000057220459z"></path></g><g opacity="1" transform="matrix(1,0,0,1,170.16400146484375,55.79399871826172)"><path fill="rgb(255,255,255)" fill-opacity="1" d=" M-0.350101113319397,3.684943914413452 C-0.350101113319397,3.684943914413452 -6.614999771118164,3.4560673236846924 -6.409999847412109,0.4710674285888672 C-6.251999855041504,-1.8099325895309448 -2.8474607467651367,-4.1089324951171875 1.9575393199920654,-3.4369325637817383 C6.762539386749268,-2.765932559967041 8.573899269104004,1.2219438552856445 5.964899063110352,2.565943717956543 C3.356898784637451,3.9089438915252686 -0.350101113319397,3.684943914413452 -0.350101113319397,3.684943914413452z"></path></g><g opacity="1" transform="matrix(1,0,0,1,196.39199829101562,59.233001708984375)"><path fill="rgb(255,255,255)" fill-opacity="1" d=" M0.07555555552244186,2.234222173690796 C0.07555555552244186,2.234222173690796 -2.5793333053588867,2.092111110687256 -2.606222152709961,0.36322221159935 C-2.7316665649414062,-1.3754444122314453 0.1885555535554886,-2.2186665534973145 2.1845555305480957,-1.8266667127609253 C4.18155574798584,-1.4356666803359985 4.494666576385498,0.9146666526794434 3.4106667041778564,1.6976666450500488 C2.3266665935516357,2.4806666374206543 0.07555555552244186,2.234222173690796 0.07555555552244186,2.234222173690796z"></path></g></g></g></g><g style="display: block;" transform="matrix(0.9962083697319031,-0.08699925988912582,0.08699925988912582,0.9962083697319031,173.75804138183594,142.5304718017578)" opacity="1"><g opacity="1" transform="matrix(1,0,0,1,175.1219940185547,164.32899475097656)"><path stroke-linecap="round" stroke-linejoin="round" fill-opacity="0" stroke="rgb(206,121,78)" stroke-opacity="1" stroke-width="13.705" d=" M-18.979999542236328,-50.76499938964844 C-18.979999542236328,-50.76499938964844 -1.8471111059188843,-35.00299835205078 7.037889003753662,-13.815999984741211 C15.95888900756836,7.460000038146973 17.488445281982422,26.772777557373047 17.488445281982422,33.69477844238281 C17.488445281982422,40.61777877807617 17.511999130249023,50.97044372558594 17.511999130249023,50.97044372558594"></path></g><g opacity="1" transform="matrix(1,0,0,1,53.0260009765625,162.96600341796875)"><path stroke-linecap="round" stroke-linejoin="round" fill-opacity="0" stroke="rgb(165,72,40)" stroke-opacity="1" stroke-width="12.802" d=" M21.020999908447266,-45.5880012512207 C21.020999908447266,-45.5880012512207 0.08911111205816269,-26.770444869995117 -8.057888984680176,-14.776444435119629 C-16.203887939453125,-2.782444477081299 -19.73355484008789,17.105667114257812 -20.035554885864258,24.435667037963867 C-20.337554931640625,31.764667510986328 -18.695222854614258,46.0791130065918 -18.695222854614258,46.0791130065918"></path></g><g opacity="1" transform="matrix(0.9995424747467041,-0.030246306210756302,0.030246306210756302,0.9995424747467041,115.08815002441406,146.14984130859375)"><path fill="rgb(229,147,108)" fill-opacity="1" d=" M-7.26200008392334,-14.366999626159668 C-7.26200008392334,-14.366999626159668 -8.402000427246094,7.330999851226807 -5.434000015258789,9.993000030517578 C-0.5550000071525574,14.366000175476074 4.835999965667725,12.786999702453613 6.796999931335449,10.467000007629395 C8.402000427246094,8.567999839782715 6.432000160217285,-8.654999732971191 6.432000160217285,-8.654999732971191"></path></g><g opacity="1" transform="matrix(1,0,0,1,114.18599700927734,88.5)"><path fill="rgb(244,189,152)" fill-opacity="1" d=" M10.771202087402344,-52.564292907714844 C10.771202087402344,-52.564292907714844 -1.1036808490753174,-60.16170120239258 -4.636542797088623,-54.65845489501953 C-7.82681131362915,-48.943138122558594 -10.700362205505371,-31.667720794677734 -13.249824523925781,-12.144598960876465 C-15.169693946838379,1.7893773317337036 -24.82818603515625,10.624220848083496 -24.82818603515625,10.624220848083496 C-24.82818603515625,10.624220848083496 -39.027076721191406,19.38957977294922 -36.847076416015625,31.377578735351562 C-34.66807556152344,43.36457824707031 -26.312999725341797,43.5099983215332 -19.04800033569336,43.5099983215332 C-11.782999992370605,43.5099983215332 -10.470210075378418,38.307823181152344 -2.1152098178863525,41.576820373535156 C6.239789962768555,44.84682083129883 13.52782154083252,49.09942626953125 24.788822174072266,47.28342819213867 C36.04981994628906,45.466426849365234 38.53480529785156,42.280799865722656 41.754547119140625,35.58413314819336 C47.09142303466797,24.899885177612305 35.07903289794922,13.734973907470703 29.18903160095215,9.159974098205566 C23.298032760620117,4.583974361419678 24.510053634643555,-0.08980073779821396 21.318382263183594,-5.352036476135254 C8.661994934082031,-25.75252914428711 10.771202087402344,-52.564292907714844 10.771202087402344,-52.564292907714844z"></path></g><g opacity="1" transform="matrix(1,0,0,1,0,0)"><path stroke-linecap="round" stroke-linejoin="round" fill-opacity="0" stroke="rgb(165,72,40)" stroke-opacity="1" stroke-width="12" d=" M108.0979995727539,102.80000305175781 C108.0979995727539,102.80000305175781 99.39600372314453,99.37300109863281 90.36199951171875,101.27200317382812 C78.15899658203125,103.83699798583984 76.28500366210938,107.90299987792969 74.6719970703125,114.90299987792969 C72.16000366210938,125.80799865722656 80.84100341796875,131.406005859375 92.26200103759766,132.5970001220703 C109.05699920654297,134.34800720214844 111.01300048828125,127.06600189208984 111.01300048828125,127.06600189208984 C111.01300048828125,127.06600189208984 135.5189971923828,143.45199584960938 150.49000549316406,135.09300231933594 C156.19400024414062,131.9080047607422 158.19000244140625,129.0590057373047 160.7519989013672,122.2040023803711 C162.67300415039062,117.06500244140625 158.74200439453125,107.6050033569336 149.4080047607422,100.93800354003906 C119.43000030517578,79.52400207519531 126.5270004272461,40.909000396728516 126.5270004272461,40.909000396728516"></path></g><g opacity="0" transform="matrix(1,0,0,1,0,0)"><path fill="rgb(168,95,52)" fill-opacity="0.68" d=" M116.19300079345703,62.99300003051758 C116.19300079345703,62.99300003051758 99.41999816894531,88.04900360107422 99.41999816894531,88.04900360107422 C99.41999816894531,88.04900360107422 78.93299865722656,99.77400207519531 74.18399810791016,103.69400024414062 C69.43499755859375,107.61399841308594 69.20800018310547,118.81400299072266 78.18599700927734,124.697998046875 C87.16400146484375,130.58200073242188 81.52999877929688,128.04400634765625 81.52999877929688,128.04400634765625 C81.52999877929688,128.04400634765625 70.41999816894531,121.21299743652344 71.66500091552734,110.85099792480469 C73.44000244140625,96.08399963378906 116.19300079345703,62.99300003051758 116.19300079345703,62.99300003051758z"></path></g></g><g style="display: block;" transform="matrix(1,0,0,1,220.14199829101562,267.1839904785156)" opacity="1"><g opacity="0.5493946153846154" transform="matrix(1,0,0,1,82.20099639892578,110.95899963378906)"><path fill="rgb(194,119,76)" fill-opacity="1" d=" M-58.06700134277344,-62.26100158691406 C-58.06700134277344,-62.26100158691406 -64.22000122070312,-62.85100173950195 -63.67499923706055,-57.402000427246094 C-63.130001068115234,-51.952999114990234 -56.11199951171875,-39.82600021362305 -55.3849983215332,-30.01799964904785 C-54.659000396728516,-20.211000442504883 -59.744998931884766,-7.133999824523926 -61.92399978637695,2.493000030517578 C-64.10399627685547,12.119000434875488 -64.64800262451172,24.650999069213867 -59.5629997253418,33.36899948120117 C-54.47700119018555,42.08700180053711 -41.332000732421875,58.242000579833984 -34.952999114990234,58.97800064086914 C-27.868999481201172,59.79499816894531 0.5289999842643738,61.696998596191406 30.6200008392334,56.07500076293945 C55.4119987487793,51.444000244140625 67.21199798583984,47.178001403808594 67.21199798583984,47.178001403808594 C67.21199798583984,47.178001403808594 58.731998443603516,34.034000396728516 58.130001068115234,31.371000289916992 C56.85900115966797,25.740999221801758 59.58300018310547,17.56800079345703 59.58300018310547,17.56800079345703 C59.58300018310547,17.56800079345703 37.24300003051758,45.17499923706055 8.90999984741211,41.36000061035156 C-19.423999786376953,37.54600143432617 -39.22100067138672,25.013999938964844 -39.402000427246094,8.486000061035156 C-39.58399963378906,-8.041999816894531 -33.04600143432617,-19.666000366210938 -19.242000579833984,-25.840999603271484 C-5.439000129699707,-32.01599884033203 18.62700080871582,-23.479999542236328 26.072999954223633,-21.663999557495117 C33.52000045776367,-19.847000122070312 38.60599899291992,-21.208999633789062 38.60599899291992,-23.025999069213867 C38.60599899291992,-24.841999053955078 43.87300109863281,-42.459999084472656 41.875,-44.82099914550781 C39.87699890136719,-47.18199920654297 16.628999710083008,-35.28499984741211 -2.259999990463257,-36.91999816894531 C-21.14900016784668,-38.55500030517578 -50.75400161743164,-52.44900131225586 -50.481998443603516,-55.08300018310547 C-50.42300033569336,-55.65399932861328 -58.06700134277344,-62.26100158691406 -58.06700134277344,-62.26100158691406z"></path></g><g opacity="1" transform="matrix(0.9907763600349426,0,0,0.9993844032287598,0.8452301025390625,-0.25128936767578125)"><g opacity="1" transform="matrix(1,0,0,1,77.31199645996094,37.194000244140625)"><path fill="rgb(226,115,100)" fill-opacity="1" d=" M-52.3120002746582,9.782999992370605 C-52.3120002746582,9.782999992370605 -40.143001556396484,-9.833000183105469 -25.97599983215332,-9.833000183105469 C-11.8100004196167,-9.833000183105469 1.812000036239624,-2.6570000648498535 15.979000091552734,-6.198999881744385 C26.364999771118164,-8.795000076293945 36.86600112915039,-12.194000244140625 41.77000045776367,-6.744999885559082 C46.67399978637695,-1.2960000038146973 52.3120002746582,12.192999839782715 49.76100158691406,11.236000061035156 C43.94900131225586,9.055999755859375 18.885000228881836,7.239999771118164 1.4490000009536743,7.239999771118164 C-15.987000465393066,7.239999771118164 -52.3120002746582,9.782999992370605 -52.3120002746582,9.782999992370605z"></path><path stroke-linecap="round" stroke-linejoin="round" fill-opacity="0" stroke="rgb(179,76,76)" stroke-opacity="1" stroke-width="10" d=" M-52.3120002746582,9.782999992370605 C-52.3120002746582,9.782999992370605 -40.143001556396484,-9.833000183105469 -25.97599983215332,-9.833000183105469 C-11.8100004196167,-9.833000183105469 1.812000036239624,-2.6570000648498535 15.979000091552734,-6.198999881744385 C26.364999771118164,-8.795000076293945 36.86600112915039,-12.194000244140625 41.77000045776367,-6.744999885559082 C46.67399978637695,-1.2960000038146973 52.3120002746582,12.192999839782715 49.76100158691406,11.236000061035156 C43.94900131225586,9.055999755859375 18.885000228881836,7.239999771118164 1.4490000009536743,7.239999771118164 C-15.987000465393066,7.239999771118164 -52.3120002746582,9.782999992370605 -52.3120002746582,9.782999992370605z"></path></g><g opacity="1" transform="matrix(1,0,0,1,77.2490005493164,60.46099853515625)"><path fill="rgb(255,147,136)" fill-opacity="1" d=" M-50.57500076293945,-11.668000221252441 C-50.57500076293945,-11.668000221252441 -42.86800003051758,10.491000175476074 -19.74799919128418,11.581000328063965 C-9.781999588012695,12.050999641418457 0.7429999709129333,11.425000190734863 10.5,11.39900016784668 C23.378000259399414,11.364999771118164 35.159000396728516,13.303000450134277 40.749000549316406,9.583000183105469 C50.57500076293945,3.0450000762939453 49.41899871826172,-12.758000373840332 49.41899871826172,-12.758000373840332 C49.41899871826172,-12.758000373840332 40.520999908447266,-12.852999687194824 29.111000061035156,-12.96399974822998 C13.241000175476074,-13.118000030517578 -7.488999843597412,-13.303000450134277 -15.895000457763672,-13.303000450134277 C-22.641000747680664,-13.303000450134277 -30.64699935913086,-12.946000099182129 -37.26599884033203,-12.565999984741211 C-44.82500076293945,-12.131999969482422 -50.57500076293945,-11.668000221252441 -50.57500076293945,-11.668000221252441z"></path><path stroke-linecap="round" stroke-linejoin="round" fill-opacity="0" stroke="rgb(198,87,87)" stroke-opacity="1" stroke-width="10.299" d=" M-50.57500076293945,-11.668000221252441 C-50.57500076293945,-11.668000221252441 -42.86800003051758,10.491000175476074 -19.74799919128418,11.581000328063965 C-9.781999588012695,12.050999641418457 0.7429999709129333,11.425000190734863 10.5,11.39900016784668 C23.378000259399414,11.364999771118164 35.159000396728516,13.303000450134277 40.749000549316406,9.583000183105469 C50.57500076293945,3.0450000762939453 49.41899871826172,-12.758000373840332 49.41899871826172,-12.758000373840332 C49.41899871826172,-12.758000373840332 40.520999908447266,-12.852999687194824 29.111000061035156,-12.96399974822998 C13.241000175476074,-13.118000030517578 -7.488999843597412,-13.303000450134277 -15.895000457763672,-13.303000450134277 C-22.641000747680664,-13.303000450134277 -30.64699935913086,-12.946000099182129 -37.26599884033203,-12.565999984741211 C-44.82500076293945,-12.131999969482422 -50.57500076293945,-11.668000221252441 -50.57500076293945,-11.668000221252441z"></path></g><g opacity="1" transform="matrix(1,0,0,1,76.6729965209961,48.249000549316406)"><path stroke-linecap="round" stroke-linejoin="round" fill-opacity="0" stroke="rgb(116,45,59)" stroke-opacity="1" stroke-width="8.675" d=" M-53.67100143432617,0.1809999942779541 C-53.67100143432617,0.1809999942779541 -17.89900016784668,-2.7249999046325684 -1.3630000352859497,-2.361999988555908 C15.17199993133545,-1.9989999532699585 36.87900161743164,-0.2630000114440918 40.81999969482422,-0.5460000038146973 C45.88199996948242,-0.9089999794960022 53.67100143432617,2.7249999046325684 53.67100143432617,2.7249999046325684"></path></g></g><g opacity="1" transform="matrix(1,0,0,1,0,0)"><path fill="rgb(244,189,152)" fill-opacity="1" d=" M104.93199920654297,86.2750015258789 C83.32099914550781,78.24600219726562 86.41000366210938,84.81099700927734 72.9010009765625,85.31900024414062 C59.391998291015625,85.8270034790039 46.11199951171875,103.99800109863281 46.08700180053711,113.16799926757812 C46.02199935913086,136.95799255371094 65.40599822998047,145.98300170898438 90.0459976196289,148.5780029296875 C106.46499633789062,150.3070068359375 139.22300720214844,129.45799255371094 139.22300720214844,129.45799255371094 C139.22300720214844,129.45799255371094 140.9980010986328,114.68199920654297 134.63400268554688,104.97899627685547 C129.37899780273438,96.96700286865234 119.89099884033203,91.83300018310547 104.93199920654297,86.2750015258789z"></path></g><g opacity="1" transform="matrix(1,0,0,1,88.52400207519531,114.90499877929688)"><path stroke-linecap="round" stroke-linejoin="round" fill-opacity="0" stroke="rgb(165,72,40)" stroke-opacity="1" stroke-width="11" d=" M17.299999237060547,-32.69300079345703 C17.299999237060547,-32.69300079345703 -4.495999813079834,-38.6870002746582 -21.93199920654297,-32.69300079345703 C-39.36800003051758,-26.698999404907227 -51.89899826049805,-4.9029998779296875 -42.63600158691406,13.621999740600586 C-33.37300109863281,32.14799880981445 -6.676000118255615,38.68600082397461 16.208999633789062,34.87200164794922 C39.09400177001953,31.058000564575195 48.494998931884766,18.382999420166016 50.5369987487793,4.9039998054504395 C51.900001525878906,-4.085999965667725 48.356998443603516,-10.897000312805176 48.356998443603516,-10.897000312805176"></path></g><g opacity="0" transform="matrix(1,0,0,1,0,0)"><path fill="rgb(195,130,90)" fill-opacity="1" d=" M62.986000061035156,94.61299896240234 C62.986000061035156,94.61299896240234 73.05699920654297,90.05799865722656 69.68000030517578,99.71099853515625 C64.98400115966797,113.13400268554688 73.875,125.50900268554688 84.93199920654297,132.2259979248047 C102.49299621582031,142.89500427246094 105.2509994506836,140.85800170898438 105.2509994506836,140.85800170898438 C105.2509994506836,140.85800170898438 89.4800033569336,136.406005859375 77.375,123.82499694824219 C64.88200378417969,110.84100341796875 62.986000061035156,94.61299896240234 62.986000061035156,94.61299896240234z"></path></g></g><g style="display: block;" transform="matrix(1,0,0,1,62.57398986816406,47.10398864746094)" opacity="0.6370370370370371"><g opacity="1" transform="matrix(1,0,0,1,132.79200744628906,199.03700256347656)"><path fill="rgb(125,46,1)" fill-opacity="0.59" d=" M40.24700164794922,-190.60499572753906 C40.24700164794922,-190.60499572753906 53.59600067138672,-190.6020050048828 60.95199966430664,-180.79400634765625 C68.30799865722656,-170.98599243164062 72.29900360107422,-157.4669952392578 69.02899932861328,-138.66900634765625 C65.76000213623047,-119.87000274658203 55.95199966430664,-119.87000274658203 55.95199966430664,-109.24500274658203 C55.95199966430664,-98.62000274658203 60.03900146484375,-97.8030014038086 65.76000213623047,-92.08200073242188 C71.48100280761719,-86.36100006103516 67.66699981689453,-71.9209976196289 66.8499984741211,-66.19999694824219 C66.03299713134766,-60.479000091552734 80.74400329589844,-49.0369987487793 76.65799713134766,-38.4109992980957 C72.57099914550781,-27.785999298095703 72.0260009765625,-17.70599937438965 74.47799682617188,-11.168000221252441 C76.93000030517578,-4.629000186920166 72.57099914550781,-18.523000717163086 66.30500030517578,0.2750000059604645 C60.03900146484375,19.072999954223633 72.29900360107422,18.256000518798828 73.93299865722656,25.611000061035156 C75.56800079345703,32.96699905395508 73.11599731445312,42.775001525878906 70.66400146484375,44.40999984741211 C68.21199798583984,46.04399871826172 47.50699996948242,67.56700134277344 58.13199996948242,78.19200134277344 C68.75700378417969,88.81700134277344 60.85599899291992,87.45500183105469 85.3759994506836,92.90399932861328 C109.8949966430664,98.35199737548828 125.42400360107422,97.53500366210938 123.78900146484375,99.98699951171875 C122.15499877929688,102.43900299072266 83.74099731445312,104.89099884033203 75.56800079345703,118.78500366210938 C67.3949966430664,132.67999267578125 66.5770034790039,155.56399536132812 79.65399932861328,163.73800659179688 C92.73100280761719,171.91099548339844 133.5970001220703,167.82400512695312 132.77999877929688,175.17999267578125 C131.96200561523438,182.53599548339844 87.01000213623047,180.08399963378906 85.3759994506836,184.1699981689453 C83.74099731445312,188.2570037841797 96.81800079345703,198.06500244140625 96.81800079345703,198.06500244140625 C96.81800079345703,198.06500244140625 62.45100021362305,202.33399963378906 19.788999557495117,192.98199462890625 C1.1640000343322754,188.8990020751953 -19.04199981689453,182.22000122070312 -38.65999984741211,171.45599365234375 C-62.03499984741211,158.63099670410156 -84.572998046875,140.00599670410156 -102.60700225830078,113.06400299072266 C-107.86299896240234,105.21199798583984 -112.3239974975586,97.15399932861328 -116.07099914550781,88.95800018310547 C-120.76599884033203,78.68900299072266 -124.33999633789062,68.2030029296875 -126.95500183105469,57.63100051879883 C-149.1929931640625,-32.2760009765625 -116.36599731445312,-112.13999938964844 -82.80799865722656,-144.29400634765625 C-42.92900085449219,-182.5050048828125 40.24700164794922,-190.60499572753906 40.24700164794922,-190.60499572753906z"></path></g></g><g style="display: block;" transform="matrix(1,0,0,1,256,256.0009765625)" opacity="1"><g opacity="1" transform="matrix(1,0,0,1,0,0)"><path fill="rgb(136,65,18)" fill-opacity="0.31" d=" M-174,-107 C-174,-107 -201,-53.5 -192.97300720214844,6.076000213623047 C-187.1699981689453,49.14699935913086 -165,105 -141.5,127 C-115.50499725341797,151.33599853515625 -65.5,175 -37.5,182 C-9.5,189 15,183.5 15,183.5 C15,183.5 -1.4140000343322754,182.6840057373047 -24.902999877929688,173.73399353027344 C-39.70000076293945,168.0959930419922 -57.30500030517578,159.22999572753906 -75.38400268554688,145.30799865722656 C-95.39800262451172,129.89599609375 -115.99099731445312,108.28700256347656 -134,78 C-143.1320037841797,62.641998291015625 -150.1959991455078,45.689998626708984 -155.6580047607422,28.468000411987305 C-162.61500549316406,6.531000137329102 -166.9709930419922,-15.843999862670898 -169.68800354003906,-35.92499923706055 C-171.00900268554688,-45.68600082397461 -171.94200134277344,-54.90399932861328 -172.59800720214844,-63.266998291015625 C-174.63900756835938,-89.27400207519531 -174,-107 -174,-107z"></path></g></g><g style="display: block;" transform="matrix(1,0,0,1,149.77801513671875,217.0240020751953)" opacity="1"><g opacity="1" transform="matrix(1,0,0,1,35.638999938964844,30.21299934387207)"><path fill="rgb(240,182,143)" fill-opacity="0.63" d=" M-40.090999603271484,-19.67799949645996 C-38.69499969482422,-24.03499984741211 -33.30500030517578,-25.393999099731445 -30.0310001373291,-22.229000091552734 C-22.33799934387207,-14.809000015258789 -8.845999717712402,2.36899995803833 4.738999843597412,6.197000026702881 C25.118999481201172,11.833000183105469 22.58300018310547,28.124000549316406 8.545000076293945,36.505001068115234 C-5.313000202178955,44.93000030517578 -32.904998779296875,26.309999465942383 -38.05099868774414,8.446999549865723 C-41.41699981689453,-3.23799991607666 -42.619998931884766,-11.782999992370605 -40.090999603271484,-19.67799949645996z"></path></g></g><g style="display: block;" transform="matrix(0.9962083697319031,-0.08699925988912582,0.08699925988912582,0.9962083697319031,159.63429260253906,152.1948699951172)" opacity="1"><g opacity="1" transform="matrix(1,0,0,1,0,0)"><g opacity="1" transform="matrix(1,0,0,1,189.99099731445312,57.76100158691406)"><path fill="rgb(255,255,255)" fill-opacity="1" d=" M-31.89900016784668,-5.28000020980835 C-31.577999114990234,-9.187999725341797 -24.00200080871582,-15.163999557495117 -12.373000144958496,-16.77899932861328 C5.671000003814697,-19.284000396728516 32.90999984741211,-13.553000450134277 33.67900085449219,-3.5829999446868896 C34.78200149536133,10.729999542236328 29.121000289916992,13.21399974822998 14.10200023651123,16.249000549316406 C-0.9160000085830688,19.284000396728516 -20.523000717163086,15.75 -27.761999130249023,9.543999671936035 C-34.78099822998047,3.5290000438690186 -32.25899887084961,-0.8949999809265137 -31.89900016784668,-5.28000020980835z"></path><path stroke-linecap="round" stroke-linejoin="round" fill-opacity="0" stroke="rgb(94,38,51)" stroke-opacity="1" stroke-width="8.283" d=" M-31.89900016784668,-5.28000020980835 C-31.577999114990234,-9.187999725341797 -24.00200080871582,-15.163999557495117 -12.373000144958496,-16.77899932861328 C5.671000003814697,-19.284000396728516 32.90999984741211,-13.553000450134277 33.67900085449219,-3.5829999446868896 C34.78200149536133,10.729999542236328 29.121000289916992,13.21399974822998 14.10200023651123,16.249000549316406 C-0.9160000085830688,19.284000396728516 -20.523000717163086,15.75 -27.761999130249023,9.543999671936035 C-34.78099822998047,3.5290000438690186 -32.25899887084961,-0.8949999809265137 -31.89900016784668,-5.28000020980835z"></path></g><g opacity="1" transform="matrix(1.0227100849151611,0,0,1.063439965248108,-3.9024658203125,-4.269195556640625)"><g opacity="1" transform="matrix(1,0,0,1,186.17100524902344,57.66299819946289)"><path fill="rgb(41,21,56)" fill-opacity="1" d=" M-2.683000087738037,15.970999717712402 C-2.683000087738037,15.970999717712402 -18.457000732421875,14.993000030517578 -17.9689998626709,1.9559999704360962 C-17.597000122070312,-8.008999824523926 -9.026000022888184,-16.948999404907227 2.3570001125335693,-14.015000343322754 C13.741000175476074,-11.081999778747559 18.45800018310547,5.215000152587891 12.277999877929688,11.081999778747559 C6.098999977111816,16.948999404907227 -2.683000087738037,15.970999717712402 -2.683000087738037,15.970999717712402z"></path></g><g opacity="1" transform="matrix(1,0,0,1,184.92999267578125,63.55699920654297)"><path fill="rgb(95,65,127)" fill-opacity="1" d=" M-3.3499999046325684,7.565000057220459 C-3.3499999046325684,7.565000057220459 -14.831999778747559,5.499000072479248 -14.434000015258789,-2.5510001182556152 C-14.130000114440918,-8.70300006866455 -8.949999809265137,-3.4739999771118164 0.3449999988079071,-1.6629999876022339 C9.638999938964844,0.14800000190734863 14.831999778747559,1.4579999446868896 9.786999702453613,5.079999923706055 C4.741000175476074,8.70300006866455 -3.3499999046325684,7.565000057220459 -3.3499999046325684,7.565000057220459z"></path></g><g opacity="1" transform="matrix(1,0,0,1,170.16400146484375,55.79399871826172)"><path fill="rgb(255,255,255)" fill-opacity="1" d=" M-0.350101113319397,3.684943914413452 C-0.350101113319397,3.684943914413452 -6.614999771118164,3.4560673236846924 -6.409999847412109,0.4710674285888672 C-6.251999855041504,-1.8099325895309448 -2.8474607467651367,-4.1089324951171875 1.9575393199920654,-3.4369325637817383 C6.762539386749268,-2.765932559967041 8.573899269104004,1.2219438552856445 5.964899063110352,2.565943717956543 C3.356898784637451,3.9089438915252686 -0.350101113319397,3.684943914413452 -0.350101113319397,3.684943914413452z"></path></g><g opacity="1" transform="matrix(1,0,0,1,196.39199829101562,59.233001708984375)"><path fill="rgb(255,255,255)" fill-opacity="1" d=" M0.07555555552244186,2.234222173690796 C0.07555555552244186,2.234222173690796 -2.5793333053588867,2.092111110687256 -2.606222152709961,0.36322221159935 C-2.7316665649414062,-1.3754444122314453 0.1885555535554886,-2.2186665534973145 2.1845555305480957,-1.8266667127609253 C4.18155574798584,-1.4356666803359985 4.494666576385498,0.9146666526794434 3.4106667041778564,1.6976666450500488 C2.3266665935516357,2.4806666374206543 0.07555555552244186,2.234222173690796 0.07555555552244186,2.234222173690796z"></path></g></g></g></g><g style="display: block;" transform="matrix(0.9962083697319031,-0.08699925988912582,0.08699925988912582,0.9962083697319031,159.63429260253906,152.1948699951172)" opacity="1"><g opacity="1" transform="matrix(1,0,0,1,0,0)"><g opacity="1" transform="matrix(1,0,0,1,58.165000915527344,60.29999923706055)"><path fill="rgb(168,100,67)" fill-opacity="1" d=" M-29.91900062561035,-39.10200119018555 C-29.91900062561035,-39.10200119018555 -46.38800048828125,-31.072999954223633 -45.8390007019043,-14.718999862670898 C-45.290000915527344,1.6349999904632568 -45.8390007019043,23.341999053955078 -34.584999084472656,29.884000778198242 C-23.33099937438965,36.42599868774414 -0.8240000009536743,39.10200119018555 14.27299976348877,32.560001373291016 C29.3700008392334,26.01799964904785 46.38800048828125,10.258999824523926 43.09400177001953,-9.069000244140625 C39.79999923706055,-28.39699935913086 40.89799880981445,-33.45199966430664 24.429000854492188,-34.93899917602539 C7.960000038146973,-36.42599868774414 -29.91900062561035,-39.10200119018555 -29.91900062561035,-39.10200119018555z"></path></g><g opacity="1" transform="matrix(1,0,0,1,71.00900268554688,66.92400360107422)"><path stroke-linecap="round" stroke-linejoin="round" fill-opacity="0" stroke="rgb(131,53,26)" stroke-opacity="1" stroke-width="10.612" d=" M23.65399932861328,-28.115999221801758 C23.65399932861328,-28.115999221801758 36.619998931884766,4.124000072479248 -1.1349999904632568,21.81999969482422 C-14.565999984741211,28.115999221801758 -36.619998931884766,23.39699935913086 -36.619998931884766,23.39699935913086"></path></g><g opacity="1" transform="matrix(1,0,0,1,58.54399871826172,53.457000732421875)"><path fill="rgb(181,145,188)" fill-opacity="1" d=" M-37.28900146484375,2.2860000133514404 C-37.40700149536133,-1.7050000429153442 -36.10200119018555,-6.145999908447266 -33.4739990234375,-8.496000289916992 C-27.176000595092773,-14.126999855041504 -5.315000057220459,-20.55299949645996 10.668999671936035,-17.575000762939453 C37.12699890136719,-12.647000312805176 37.40700149536133,-5.021999835968018 36.28200149536133,5.123000144958496 C34.75899887084961,18.858999252319336 24.518999099731445,19.170000076293945 4.269000053405762,19.86199951171875 C-15.980999946594238,20.55299949645996 -26.759000778198242,19.04199981689453 -32.38399887084961,14.20300006866455 C-35.2599983215332,11.727999687194824 -37.176998138427734,6.057000160217285 -37.28900146484375,2.2860000133514404z"></path><path stroke-linecap="round" stroke-linejoin="round" fill-opacity="0" stroke="rgb(74,28,38)" stroke-opacity="1" stroke-width="8.455" d=" M-37.28900146484375,2.2860000133514404 C-37.40700149536133,-1.7050000429153442 -36.10200119018555,-6.145999908447266 -33.4739990234375,-8.496000289916992 C-27.176000595092773,-14.126999855041504 -5.315000057220459,-20.55299949645996 10.668999671936035,-17.575000762939453 C37.12699890136719,-12.647000312805176 37.40700149536133,-5.021999835968018 36.28200149536133,5.123000144958496 C34.75899887084961,18.858999252319336 24.518999099731445,19.170000076293945 4.269000053405762,19.86199951171875 C-15.980999946594238,20.55299949645996 -26.759000778198242,19.04199981689453 -32.38399887084961,14.20300006866455 C-35.2599983215332,11.727999687194824 -37.176998138427734,6.057000160217285 -37.28900146484375,2.2860000133514404z"></path></g><g opacity="1" transform="matrix(1,0,0,1,0.3920021057128906,-1.0750007629394531)"><g opacity="1" transform="matrix(1,0,0,1,60.96799850463867,54.38800048828125)"><path fill="rgb(41,21,56)" fill-opacity="1" d=" M-3.130000114440918,19.301000595092773 C-3.130000114440918,19.301000595092773 -21.52899932861328,18.118999481201172 -20.959999084472656,2.36299991607666 C-20.524999618530273,-9.680000305175781 -10.527999877929688,-20.483999252319336 2.75,-16.937999725341797 C16.027999877929688,-13.392999649047852 21.52899932861328,6.302000045776367 14.321000099182129,13.392000198364258 C7.11299991607666,20.482999801635742 -3.130000114440918,19.301000595092773 -3.130000114440918,19.301000595092773z"></path></g><g opacity="1" transform="matrix(1,0,0,1,58.30699920654297,62.38199996948242)"><path fill="rgb(95,65,127)" fill-opacity="1" d=" M-0.7480000257492065,10.369000434875488 C-0.7480000257492065,10.369000434875488 -15.543999671936035,6.624000072479248 -12.1899995803833,-0.335999995470047 C-12.277000427246094,-0.7279999852180481 -3.3310000896453857,-0.02800000086426735 2.736999988555908,0.843999981880188 C5.85099983215332,1.2910000085830688 14.623000144958496,1.6410000324249268 13.378999710083008,4.236999988555908 C9.335000038146973,12.67199993133545 -0.7480000257492065,10.369000434875488 -0.7480000257492065,10.369000434875488z"></path></g><g opacity="0.9" transform="matrix(1,0,0,1,43.25,52.566001892089844)"><path fill="rgb(255,255,255)" fill-opacity="1" d=" M-0.5252062082290649,4.663393497467041 C-0.5252062082290649,4.663393497467041 -8.43845272064209,4.276659965515137 -8.173452377319336,0.5366601943969727 C-7.970452785491943,-2.3213398456573486 -3.502868890762329,-5.116087913513184 2.5846736431121826,-3.9464871883392334 C8.219791412353516,-3.0081279277801514 10.999725341796875,1.7056975364685059 7.639725208282471,3.388697385787964 C4.279725074768066,5.07069730758667 -0.5252062082290649,4.663393497467041 -0.5252062082290649,4.663393497467041z"></path></g><g opacity="0.75" transform="matrix(1,0,0,1,71.76599884033203,57.27299880981445)"><path fill="rgb(255,255,255)" fill-opacity="1" d=" M0.16090908646583557,2.516636371612549 C0.16090908646583557,2.516636371612549 -2.923090934753418,2.358454465866089 -2.8270909786224365,0.24145454168319702 C-2.7540910243988037,-1.3765454292297363 -0.3988181948661804,-2.8606364727020264 1.8261817693710327,-2.384636402130127 C4.052181720733643,-1.9076364040374756 5.202545642852783,0.7127272486686707 3.9945454597473145,1.6657272577285767 C2.786545515060425,2.618727207183838 0.16090908646583557,2.516636371612549 0.16090908646583557,2.516636371612549z"></path></g></g></g></g><g style="display: block;" transform="matrix(0.9962083697319031,-0.08699925988912582,0.08699925988912582,0.9962083697319031,148.58250427246094,106.27626037597656)" opacity="1"><g opacity="1" transform="matrix(1,0,0,1,181.97300720214844,52.61199951171875)"><path stroke-linecap="round" stroke-linejoin="round" fill-opacity="0" stroke="rgb(206,121,78)" stroke-opacity="1" stroke-width="12.094" d=" M-39.50299835205078,-20.97800064086914 C-39.50299835205078,-20.97800064086914 -39.50299835205078,10.62600040435791 -27.516000747680664,15.529999732971191 C-15.527999877929688,20.43400001525879 7.900000095367432,20.97800064086914 22.066999435424805,19.888999938964844 C36.23400115966797,18.798999786376953 39.50299835205078,17.70800018310547 39.50299835205078,17.70800018310547"></path></g><g opacity="1" transform="matrix(1,0,0,1,192.8699951171875,39.80799865722656)"><path stroke-linecap="round" stroke-linejoin="round" fill-opacity="0" stroke="rgb(206,121,78)" stroke-opacity="1" stroke-width="12" d=" M-25.336999893188477,-9.807999610900879 C-25.336999893188477,-9.807999610900879 -29.695999145507812,2.7239999771118164 -18.253999710083008,5.993000030517578 C-6.810999870300293,9.262999534606934 7.900000095367432,9.807999610900879 18.79800033569336,8.17300033569336 C18.79800033569336,8.17300033569336 29.695999145507812,6.538000106811523 29.695999145507812,6.538000106811523"></path></g><g opacity="1" transform="matrix(1,0,0,1,126.3949966430664,70.04900360107422)"><path stroke-linecap="round" stroke-linejoin="round" fill-opacity="0" stroke="rgb(206,121,78)" stroke-opacity="1" stroke-width="12.094" d=" M-18.79800033569336,-0.8180000185966492 C-18.79800033569336,-0.8180000185966492 -5.176000118255615,0.2720000147819519 4.086999893188477,0.8169999718666077 C13.350000381469727,1.3619999885559082 18.79800033569336,-1.3630000352859497 18.79800033569336,-1.3630000352859497"></path></g><g opacity="1" transform="matrix(1,0,0,1,71.90799713134766,53.70199966430664)"><path stroke-linecap="round" stroke-linejoin="round" fill-opacity="0" stroke="rgb(165,72,40)" stroke-opacity="1" stroke-width="11" d=" M44.40800094604492,-19.343000411987305 C44.40800094604492,-19.343000411987305 43.86199951171875,5.176000118255615 37.32400131225586,12.260000228881836 C30.78499984741211,19.343000411987305 18.253000259399414,17.163999557495117 7.355000019073486,14.984000205993652 C-3.5420000553131104,12.805000305175781 -18.79800033569336,11.170000076293945 -26.97100067138672,11.170000076293945 C-35.14400100708008,11.170000076293945 -44.40800094604492,12.805000305175781 -44.40800094604492,12.805000305175781"></path></g><g opacity="0.68" transform="matrix(1,0,0,1,52.12900161743164,47.19200134277344)"><path fill="rgb(227,162,119)" fill-opacity="1" d=" M-22.094999313354492,-7.0980000495910645 C-22.094999313354492,-7.0980000495910645 -1.5049999952316284,-8.437000274658203 9.552000045776367,-7.513000011444092 C20.610000610351562,-6.5879998207092285 27.83300018310547,-7.296000003814697 28.388999938964844,-2.3320000171661377 C28.945999145507812,2.63100004196167 27.555999755859375,7.519000053405762 22.44099998474121,7.979000091552734 C17.32699966430664,8.437999725341797 7.940999984741211,6.919000148773193 -2.3610000610351562,5.859000205993652 C-12.663999557495117,4.800000190734863 -26.049999237060547,5.927000045776367 -27.49799919128418,0.7639999985694885 C-28.945999145507812,-4.39900016784668 -22.094999313354492,-7.0980000495910645 -22.094999313354492,-7.0980000495910645z"></path></g></g><g style="display: block;" transform="matrix(1,0,0,1,220.14199829101562,267.1839904785156)" opacity="1"><g opacity="1" transform="matrix(0.9907763600349426,0,0,0.9993844032287598,0.8452301025390625,-0.25128936767578125)"><g opacity="1" transform="matrix(1,0,0,1,77.31199645996094,37.194000244140625)"><path fill="rgb(226,115,100)" fill-opacity="1" d=" M-52.3120002746582,9.782999992370605 C-52.3120002746582,9.782999992370605 -40.143001556396484,-9.833000183105469 -25.97599983215332,-9.833000183105469 C-11.8100004196167,-9.833000183105469 1.812000036239624,-2.6570000648498535 15.979000091552734,-6.198999881744385 C26.364999771118164,-8.795000076293945 36.86600112915039,-12.194000244140625 41.77000045776367,-6.744999885559082 C46.67399978637695,-1.2960000038146973 52.3120002746582,12.192999839782715 49.76100158691406,11.236000061035156 C43.94900131225586,9.055999755859375 18.885000228881836,7.239999771118164 1.4490000009536743,7.239999771118164 C-15.987000465393066,7.239999771118164 -52.3120002746582,9.782999992370605 -52.3120002746582,9.782999992370605z"></path><path stroke-linecap="round" stroke-linejoin="round" fill-opacity="0" stroke="rgb(198,87,87)" stroke-opacity="1" stroke-width="10" d=" M-52.3120002746582,9.782999992370605 C-52.3120002746582,9.782999992370605 -40.143001556396484,-9.833000183105469 -25.97599983215332,-9.833000183105469 C-11.8100004196167,-9.833000183105469 1.812000036239624,-2.6570000648498535 15.979000091552734,-6.198999881744385 C26.364999771118164,-8.795000076293945 36.86600112915039,-12.194000244140625 41.77000045776367,-6.744999885559082 C46.67399978637695,-1.2960000038146973 52.3120002746582,12.192999839782715 49.76100158691406,11.236000061035156 C43.94900131225586,9.055999755859375 18.885000228881836,7.239999771118164 1.4490000009536743,7.239999771118164 C-15.987000465393066,7.239999771118164 -52.3120002746582,9.782999992370605 -52.3120002746582,9.782999992370605z"></path></g><g opacity="1" transform="matrix(1,0,0,1,77.2490005493164,60.46099853515625)"><path fill="rgb(255,147,136)" fill-opacity="1" d=" M-50.57500076293945,-11.668000221252441 C-50.57500076293945,-11.668000221252441 -42.86800003051758,10.491000175476074 -19.74799919128418,11.581000328063965 C-9.781999588012695,12.050999641418457 0.7429999709129333,11.425000190734863 10.5,11.39900016784668 C23.378000259399414,11.364999771118164 35.159000396728516,13.303000450134277 40.749000549316406,9.583000183105469 C50.57500076293945,3.0450000762939453 49.41899871826172,-12.758000373840332 49.41899871826172,-12.758000373840332 C49.41899871826172,-12.758000373840332 40.520999908447266,-12.852999687194824 29.111000061035156,-12.96399974822998 C13.241000175476074,-13.118000030517578 -7.488999843597412,-13.303000450134277 -15.895000457763672,-13.303000450134277 C-22.641000747680664,-13.303000450134277 -30.64699935913086,-12.946000099182129 -37.26599884033203,-12.565999984741211 C-44.82500076293945,-12.131999969482422 -50.57500076293945,-11.668000221252441 -50.57500076293945,-11.668000221252441z"></path><path stroke-linecap="round" stroke-linejoin="round" fill-opacity="0" stroke="rgb(198,87,87)" stroke-opacity="1" stroke-width="10.299" d=" M-50.57500076293945,-11.668000221252441 C-50.57500076293945,-11.668000221252441 -42.86800003051758,10.491000175476074 -19.74799919128418,11.581000328063965 C-9.781999588012695,12.050999641418457 0.7429999709129333,11.425000190734863 10.5,11.39900016784668 C23.378000259399414,11.364999771118164 35.159000396728516,13.303000450134277 40.749000549316406,9.583000183105469 C50.57500076293945,3.0450000762939453 49.41899871826172,-12.758000373840332 49.41899871826172,-12.758000373840332 C49.41899871826172,-12.758000373840332 40.520999908447266,-12.852999687194824 29.111000061035156,-12.96399974822998 C13.241000175476074,-13.118000030517578 -7.488999843597412,-13.303000450134277 -15.895000457763672,-13.303000450134277 C-22.641000747680664,-13.303000450134277 -30.64699935913086,-12.946000099182129 -37.26599884033203,-12.565999984741211 C-44.82500076293945,-12.131999969482422 -50.57500076293945,-11.668000221252441 -50.57500076293945,-11.668000221252441z"></path></g><g opacity="1" transform="matrix(1,0,0,1,76.6729965209961,48.249000549316406)"><path stroke-linecap="round" stroke-linejoin="round" fill-opacity="0" stroke="rgb(116,45,59)" stroke-opacity="1" stroke-width="8.675" d=" M-53.67100143432617,0.1809999942779541 C-53.67100143432617,0.1809999942779541 -17.89900016784668,-2.7249999046325684 -1.3630000352859497,-2.361999988555908 C15.17199993133545,-1.9989999532699585 36.87900161743164,-0.2630000114440918 40.81999969482422,-0.5460000038146973 C45.88199996948242,-0.9089999794960022 53.67100143432617,2.7249999046325684 53.67100143432617,2.7249999046325684"></path></g></g></g><g style="display: block;" transform="matrix(0.9988385438919067,-0.04818296805024147,0.04818296805024147,0.9988385438919067,226.90704345703125,262.01513671875)" opacity="1"><g opacity="0.46" transform="matrix(1,0,0,1,52.45600128173828,104.53299713134766)"><path fill="rgb(132,55,35)" fill-opacity="1" d=" M-48.68522262573242,67.86219787597656 C-48.68522262573242,67.86219787597656 -43.777000427246094,16.839000701904297 -31.243999481201172,3.76200008392334 C-18.711999893188477,-9.3149995803833 -6.179999828338623,-37.10300064086914 -2.9110000133514404,-48.000999450683594 C0.3580000102519989,-58.89799880981445 -2.365999937057495,-77.42400360107422 10.166000366210938,-75.24500274658203 C22.697999954223633,-73.06500244140625 19.974000930786133,-49.63600158691406 19.974000930786133,-34.37900161743164 C19.974000930786133,-19.12299919128418 16.704999923706055,10.845999717712402 16.704999923706055,10.845999717712402 C16.704999923706055,10.845999717712402 50.48699951171875,21.197999954223633 48.30699920654297,36.45500183105469 C46.12799835205078,51.71099853515625 31.416000366210938,72.41699981689453 31.416000366210938,72.41699981689453 C31.416000366210938,72.41699981689453 17.234163284301758,79.95612335205078 -13.278836250305176,77.23111724853516 C-35.270835876464844,75.26811981201172 -48.68522262573242,67.86219787597656 -48.68522262573242,67.86219787597656z"></path></g><g opacity="1" transform="matrix(1,0,0,1,0,-3)"><g opacity="1" transform="matrix(1,0,0,1,74.04100036621094,76.38300323486328)"><path fill="rgb(252,202,169)" fill-opacity="1" d=" M-17.868999481201172,36.507999420166016 C-17.868999481201172,36.507999420166016 -12.491999626159668,6.389999866485596 -10.96500015258789,-10.225000381469727 C-8.873000144958496,-32.99599838256836 -9.61299991607666,-51.38399887084961 -1.9140000343322754,-51.071998596191406 C3.444999933242798,-50.85499954223633 12.010000228881836,-49.68000030517578 15.552000045776367,-37.2859992980957 C17.099000930786133,-31.871000289916992 17.868999481201172,-21.18199920654297 17.549999237060547,-12.873000144958496 C16.562999725341797,12.91100025177002 12.82800006866455,36.81700134277344 12.82800006866455,36.81700134277344 C12.82800006866455,36.81700134277344 7.182000160217285,48.73400115966797 7.182000160217285,48.73400115966797 C7.182000160217285,48.73400115966797 -12.248000144958496,51.382999420166016 -12.248000144958496,51.382999420166016 C-12.248000144958496,51.382999420166016 -17.868999481201172,36.507999420166016 -17.868999481201172,36.507999420166016z"></path></g><g opacity="1" transform="matrix(1,0,0,1,74.04100036621094,76.38300323486328)"><path stroke-linecap="butt" stroke-linejoin="miter" fill-opacity="0" stroke-miterlimit="10" stroke="rgb(151,66,19)" stroke-opacity="1" stroke-width="10" d=" M-17.868999481201172,36.507999420166016 C-17.868999481201172,36.507999420166016 -12.491999626159668,6.389999866485596 -10.96500015258789,-10.225000381469727 C-8.873000144958496,-32.99599838256836 -9.61299991607666,-51.38399887084961 -1.9140000343322754,-51.071998596191406 C3.444999933242798,-50.85499954223633 12.010000228881836,-49.68000030517578 15.552000045776367,-37.2859992980957 C17.099000930786133,-31.871000289916992 17.868999481201172,-21.18199920654297 17.549999237060547,-12.873000144958496 C16.562999725341797,12.91100025177002 12.82800006866455,36.81700134277344 12.82800006866455,36.81700134277344 C12.82800006866455,36.81700134277344 7.182000160217285,48.73400115966797 7.182000160217285,48.73400115966797 C7.182000160217285,48.73400115966797 -12.248000144958496,51.382999420166016 -12.248000144958496,51.382999420166016 C-12.248000144958496,51.382999420166016 -17.868999481201172,36.507999420166016 -17.868999481201172,36.507999420166016z"></path></g><g opacity="1" transform="matrix(1,0,0,1,69.51300048828125,63.763999938964844)"><path fill="rgb(237,162,128)" fill-opacity="1" d=" M6.730999946594238,-32.569000244140625 C6.730999946594238,-32.569000244140625 4.546000003814697,-10.295999526977539 4.006999969482422,-1.5099999904632568 C3.4670000076293945,7.276000022888184 2.371999979019165,23.2810001373291 2.371999979019165,23.2810001373291 C2.371999979019165,23.2810001373291 2.125,34.02899932861328 2.125,34.02899932861328 C2.125,34.02899932861328 -6.730999946594238,34.82699966430664 -6.730999946594238,34.82699966430664 C-6.730999946594238,34.82699966430664 -3.805000066757202,19.104000091552734 -1.9869999885559082,1.7580000162124634 C-0.367000013589859,-13.697999954223633 -0.035999998450279236,-30.81800079345703 2.9170000553131104,-33.3849983215332 C4.573999881744385,-34.82699966430664 6.730999946594238,-32.569000244140625 6.730999946594238,-32.569000244140625z"></path></g></g><g opacity="1" transform="matrix(1,0,0,1,131.7050018310547,148.7530059814453)"><path fill="rgb(237,162,128)" fill-opacity="1" d=" M-17.954999923706055,-23.929000854492188 C-17.954999923706055,-23.929000854492188 0.20800000429153442,-25.56399917602539 5.8379998207092285,-23.020999908447266 C11.468000411987305,-20.47800064086914 16.55299949645996,-11.034000396728516 17.27899932861328,1.3170000314712524 C17.954999923706055,12.8100004196167 12.071999549865723,24.604999542236328 9.380000114440918,25.018999099731445 C5.8379998207092285,25.56399917602539 -1.0640000104904175,24.292999267578125 -2.1540000438690186,16.84600067138672 C-3.243000030517578,9.39900016784668 -9.579000473022461,-8.199999809265137 -11.236000061035156,-7.763999938964844 C-14.687000274658203,-6.855999946594238 -17.954999923706055,-23.929000854492188 -17.954999923706055,-23.929000854492188z"></path></g><g opacity="1" transform="matrix(1,0,0,1,131.7050018310547,148.7530059814453)"><path stroke-linecap="round" stroke-linejoin="round" fill-opacity="0" stroke="rgb(151,66,19)" stroke-opacity="1" stroke-width="10" d=" M-17.954999923706055,-23.929000854492188 C-17.954999923706055,-23.929000854492188 0.20800000429153442,-25.56399917602539 5.8379998207092285,-23.020999908447266 C11.468000411987305,-20.47800064086914 16.55299949645996,-11.034000396728516 17.27899932861328,1.3170000314712524 C17.954999923706055,12.8100004196167 12.071999549865723,24.604999542236328 9.380000114440918,25.018999099731445 C5.8379998207092285,25.56399917602539 -1.0640000104904175,24.292999267578125 -2.1540000438690186,16.84600067138672 C-3.243000030517578,9.39900016784668 -9.579000473022461,-8.199999809265137 -11.236000061035156,-7.763999938964844 C-14.687000274658203,-6.855999946594238 -17.954999923706055,-23.929000854492188 -17.954999923706055,-23.929000854492188z"></path></g><g opacity="1" transform="matrix(1,0,0,1,81.26699829101562,166.38699340820312)"><path fill="rgb(227,152,106)" fill-opacity="1" d=" M-55.584999084472656,17.58300018310547 C-56.266998291015625,12.300000190734863 -55.54999923706055,6.938000202178955 -53.52299880981445,2.01200008392334 C-47.005001068115234,-13.829999923706055 -30.225000381469727,-53.76300048828125 -23.548999786376953,-61.632999420166016 C-15.178000450134277,-71.5 33.62099838256836,-51.44900131225586 39.20199966430664,-45.37699890136719 C44.78200149536133,-39.30500030517578 41.744998931884766,-23.94499969482422 41.744998931884766,-23.94499969482422 C41.744998931884766,-23.94499969482422 54.42900085449219,-18.68600082397461 53.731998443603516,-5.7829999923706055 C53.27399826049805,2.688999891281128 46.19499969482422,4.296999931335449 46.19499969482422,4.296999931335449 C46.19499969482422,4.296999931335449 56.268001556396484,15.987000465393066 55.54899978637695,25.093000411987305 C54.45899963378906,38.89699935913086 31.209999084472656,47.06999969482422 31.209999084472656,47.06999969482422 C31.209999084472656,47.06999969482422 26.841999053955078,60.874000549316406 8.006999969482422,66.18699645996094 C-10.82699966430664,71.5 -38.72999954223633,65.4280014038086 -47.79899978637695,44.933998107910156 C-52.678001403808594,33.90800094604492 -54.72999954223633,24.198999404907227 -55.584999084472656,17.58300018310547z"></path></g><g opacity="1" transform="matrix(1,0,0,1,81.26699829101562,166.38699340820312)"><path stroke-linecap="round" stroke-linejoin="round" fill-opacity="0" stroke="rgb(151,66,19)" stroke-opacity="1" stroke-width="10" d=" M-55.584999084472656,17.58300018310547 C-56.266998291015625,12.300000190734863 -55.54999923706055,6.938000202178955 -53.52299880981445,2.01200008392334 C-47.005001068115234,-13.829999923706055 -30.225000381469727,-53.76300048828125 -23.548999786376953,-61.632999420166016 C-15.178000450134277,-71.5 33.62099838256836,-51.44900131225586 39.20199966430664,-45.37699890136719 C44.78200149536133,-39.30500030517578 41.744998931884766,-23.94499969482422 41.744998931884766,-23.94499969482422 C41.744998931884766,-23.94499969482422 54.42900085449219,-18.68600082397461 53.731998443603516,-5.7829999923706055 C53.27399826049805,2.688999891281128 46.19499969482422,4.296999931335449 46.19499969482422,4.296999931335449 C46.19499969482422,4.296999931335449 56.268001556396484,15.987000465393066 55.54899978637695,25.093000411987305 C54.45899963378906,38.89699935913086 31.209999084472656,47.06999969482422 31.209999084472656,47.06999969482422 C31.209999084472656,47.06999969482422 26.841999053955078,60.874000549316406 8.006999969482422,66.18699645996094 C-10.82699966430664,71.5 -38.72999954223633,65.4280014038086 -47.79899978637695,44.933998107910156 C-52.678001403808594,33.90800094604492 -54.72999954223633,24.198999404907227 -55.584999084472656,17.58300018310547z"></path></g><g opacity="1" transform="matrix(1,0,0,1,104.73799896240234,159.9239959716797)"><path fill="rgb(253,216,191)" fill-opacity="1" d=" M-17.011999130249023,-48.7760009765625 C-20.676000595092773,-49.79100036621094 -27.899999618530273,-52.53499984741211 -25.679000854492188,-49.44900131225586 C-24.30500030517578,-47.540000915527344 -18.68600082397461,-43.72800064086914 -18.777000427246094,-36.73500061035156 C-18.823999404907227,-33.16999816894531 -21.097999572753906,-29.739999771118164 -23.80699920654297,-27.222999572753906 C-25.79199981689453,-25.378999710083008 -25.457000732421875,-22.163000106811523 -23.125,-20.783000946044922 C-19.924999237060547,-18.888999938964844 -14.600000381469727,-15.015000343322754 -14.600000381469727,-10.489999771118164 C-14.600000381469727,-6.436999797821045 -15.807999610900879,-1.8359999656677246 -18.83300018310547,1.1729999780654907 C-21.150999069213867,3.4790000915527344 -19.9950008392334,7.435999870300293 -16.77899932861328,8.03499984741211 C-9.8100004196167,9.333999633789062 -4.48799991607666,16.014999389648438 -5.336999893188477,21.74799919128418 C-6.789999961853027,31.555999755859375 -14.32699966430664,38.72999954223633 -13.23799991607666,45.63199996948242 C-12.14799976348877,52.534000396728516 3.74399995803833,50.17300033569336 13.189000129699707,46.176998138427734 C22.632999420166016,42.180999755859375 26.83300018310547,35.62799835205078 27.356000900268555,30.920000076293945 C27.899999618530273,26.016000747680664 25.499000549316406,21.55299949645996 22.724000930786133,17.570999145507812 C21.67799949645996,16.06999969482422 19.94700050354004,14.331000328063965 21.1200008392334,12.927000045776367 C23.70599937438965,9.829999923706055 27.621000289916992,3.9709999561309814 26.628999710083008,-2.2260000705718994 C25.628999710083008,-8.475000381469727 21.01799964904785,-11.972000122070312 18.238000869750977,-13.545999526977539 C16.940000534057617,-14.281000137329102 16.160999298095703,-15.663999557495117 16.198999404907227,-17.1560001373291 C16.323999404907227,-22.08300018310547 16.215999603271484,-32.61800003051758 13.189000129699707,-35.64500045776367 C9.192999839782715,-39.64099884033203 -8.970000267028809,-46.17900085449219 -14.418000221252441,-47.994998931884766 C-15.184000015258789,-48.25 -16.06399917602539,-48.513999938964844 -17.011999130249023,-48.7760009765625z"></path></g><g opacity="1" transform="matrix(1,0,0,1,104.30500030517578,139.53500366210938)"><path fill="rgb(244,189,152)" fill-opacity="1" d=" M-20.15999984741211,-3.632999897003174 C-20.15999984741211,-3.632999897003174 -6.35699987411499,-2.5429999828338623 5.630000114440918,0 C14.72599983215332,1.9290000200271606 20.15999984741211,3.632999897003174 20.15999984741211,3.632999897003174"></path></g><g opacity="1" transform="matrix(1,0,0,1,104.30500030517578,139.53500366210938)"><path stroke-linecap="round" stroke-linejoin="round" fill-opacity="0" stroke="rgb(151,66,19)" stroke-opacity="1" stroke-width="10" d=" M-20.15999984741211,-3.632999897003174 C-20.15999984741211,-3.632999897003174 -6.35699987411499,-2.5429999828338623 5.630000114440918,0 C14.72599983215332,1.9290000200271606 20.15999984741211,3.632999897003174 20.15999984741211,3.632999897003174"></path></g><g opacity="1" transform="matrix(1,0,0,1,107.93699645996094,168.0500030517578)"><path fill="rgb(244,189,152)" fill-opacity="1" d=" M-20.523000717163086,-2.3610000610351562 C-20.523000717163086,-2.3610000610351562 -5.267000198364258,-3.813999891281128 6.35699987411499,-1.6339999437332153 C16.53499984741211,0.27399998903274536 20.523000717163086,3.813999891281128 20.523000717163086,3.813999891281128"></path></g><g opacity="1" transform="matrix(1,0,0,1,107.93699645996094,168.0500030517578)"><path stroke-linecap="round" stroke-linejoin="round" fill-opacity="0" stroke="rgb(151,66,19)" stroke-opacity="1" stroke-width="10" d=" M-20.523000717163086,-2.3610000610351562 C-20.523000717163086,-2.3610000610351562 -5.267000198364258,-3.813999891281128 6.35699987411499,-1.6339999437332153 C16.53499984741211,0.27399998903274536 20.523000717163086,3.813999891281128 20.523000717163086,3.813999891281128"></path></g><g opacity="1" transform="matrix(1,0,0,1,107.7760009765625,202.83200073242188)"><path stroke-linecap="round" stroke-linejoin="round" fill-opacity="0" stroke="rgb(151,66,19)" stroke-opacity="1" stroke-width="9" d=" M1.7970000505447388,-9.89799976348877 C1.7970000505447388,-9.89799976348877 -9.595000267028809,-8.74899959564209 -12.734000205993652,-5.9019999504089355 C-15.873000144958496,-3.055999994277954 -15.699000358581543,2.8589999675750732 -12.734000205993652,6.085000038146973 C-9.769000053405762,9.310999870300293 -2.0169999599456787,9.89900016784668 4.340000152587891,8.991000175476074 C7.644999980926514,8.519000053405762 15.871999740600586,5.7220001220703125 15.871999740600586,5.7220001220703125"></path></g></g><g style="display: block;" transform="matrix(1,0,0,1,256,256)" opacity="1"></g></g><g clip-path="url(#__lottie_element_4)" style="display: none;"><g style="display: none;"><g><path stroke-linecap="round" stroke-linejoin="round" fill-opacity="0"></path></g><g><path stroke-linecap="round" stroke-linejoin="round" fill-opacity="0"></path></g><g><path></path></g><g><path></path></g><g><path stroke-linecap="round" stroke-linejoin="round" fill-opacity="0"></path></g></g><g style="display: none;"><g><path></path></g><g><path></path><path stroke-linecap="round" stroke-linejoin="round" fill-opacity="0"></path></g><g><path></path><path stroke-linecap="round" stroke-linejoin="round" fill-opacity="0"></path></g><g><path stroke-linecap="round" stroke-linejoin="round" fill-opacity="0"></path></g><g><path></path></g><g><path stroke-linecap="round" stroke-linejoin="round" fill-opacity="0"></path></g></g><g style="display: none;"><g><path fill="url(#__lottie_element_17)"></path><path stroke-linecap="butt" stroke-linejoin="miter" fill-opacity="0" stroke-miterlimit="10"></path></g><g><path stroke-linecap="round" stroke-linejoin="round" fill-opacity="0"></path></g></g><g style="display: none;"><g><g><path></path></g><g><path stroke-linecap="round" stroke-linejoin="round" fill-opacity="0"></path></g><g><path></path><path stroke-linecap="round" stroke-linejoin="round" fill-opacity="0"></path></g><g><g><path></path></g><g><path></path></g><g><path></path></g><g><path></path></g></g></g><g><g><path></path></g><g><path stroke-linecap="round" stroke-linejoin="round" fill-opacity="0"></path></g><g><path stroke-linecap="round" stroke-linejoin="round" fill-opacity="0"></path></g><g><path></path><path stroke-linecap="round" stroke-linejoin="round" fill-opacity="0"></path></g><g><g><path></path></g><g><path></path></g><g><path></path></g><g><path></path></g></g></g></g><g style="display: none;"><g><path stroke-linecap="round" stroke-linejoin="round" fill-opacity="0"></path></g><g><path stroke-linecap="round" stroke-linejoin="round" fill-opacity="0"></path></g><g><path></path></g><g><path></path></g><g><path stroke-linecap="round" stroke-linejoin="round" fill-opacity="0"></path></g><g><path></path></g></g><g style="display: none;"><g><path></path></g><g><g><path></path><path stroke-linecap="round" stroke-linejoin="round" fill-opacity="0"></path></g><g><path></path><path stroke-linecap="round" stroke-linejoin="round" fill-opacity="0"></path></g><g><path stroke-linecap="round" stroke-linejoin="round" fill-opacity="0"></path></g></g><g><path></path></g><g><path stroke-linecap="round" stroke-linejoin="round" fill-opacity="0"></path></g><g><path></path></g></g><g style="display: none;"><g><path></path></g></g><g style="display: none;"><g><path></path></g></g><g style="display: none;"><g><path></path></g></g><g style="display: none;"><g><g><path></path><path stroke-linecap="round" stroke-linejoin="round" fill-opacity="0"></path></g><g><g><path></path></g><g><path></path></g><g><path></path></g><g><path></path></g></g></g></g><g style="display: none;"><g><g><path></path></g><g><path stroke-linecap="round" stroke-linejoin="round" fill-opacity="0"></path></g><g><path></path><path stroke-linecap="round" stroke-linejoin="round" fill-opacity="0"></path></g><g><g><path></path></g><g><path></path></g><g><path></path></g><g><path></path></g></g></g></g><g style="display: none;"><g><path stroke-linecap="round" stroke-linejoin="round" fill-opacity="0"></path></g><g><path stroke-linecap="round" stroke-linejoin="round" fill-opacity="0"></path></g><g><path stroke-linecap="round" stroke-linejoin="round" fill-opacity="0"></path></g><g><path stroke-linecap="round" stroke-linejoin="round" fill-opacity="0"></path></g><g><path></path></g></g><g style="display: none;"><g><g><path></path><path stroke-linecap="round" stroke-linejoin="round" fill-opacity="0"></path></g><g><path></path><path stroke-linecap="round" stroke-linejoin="round" fill-opacity="0"></path></g><g><path stroke-linecap="round" stroke-linejoin="round" fill-opacity="0"></path></g></g></g><g style="display: none;"><g><path></path></g><g><g><path></path></g><g><path stroke-linecap="butt" stroke-linejoin="miter" fill-opacity="0" stroke-miterlimit="10"></path></g><g><path></path></g></g><g><path></path></g><g><path stroke-linecap="round" stroke-linejoin="round" fill-opacity="0"></path></g><g><path></path></g><g><path stroke-linecap="round" stroke-linejoin="round" fill-opacity="0"></path></g><g><path></path></g><g><path></path></g><g><path stroke-linecap="round" stroke-linejoin="round" fill-opacity="0"></path></g><g><path></path></g><g><path stroke-linecap="round" stroke-linejoin="round" fill-opacity="0"></path></g><g><path stroke-linecap="round" stroke-linejoin="round" fill-opacity="0"></path></g></g><g style="display: none;"></g></g></g></svg>