<svg xmlns="http://www.w3.org/2000/svg" xmlns:xlink="http://www.w3.org/1999/xlink" viewBox="0 0 512 512" width="512" height="512" style="width: 100%; height: 100%; transform: translate3d(0,0,0); content-visibility: visible;" preserveAspectRatio="xMidYMid meet"><defs><clipPath id="__lottie_element_2"><rect width="512" height="512" x="0" y="0"></rect></clipPath><clipPath id="__lottie_element_4"><path d="M0,0 L512,0 L512,512 L0,512z"></path></clipPath><radialGradient id="__lottie_element_38" spreadMethod="pad" gradientUnits="userSpaceOnUse" cx="-61.75400161743164" cy="-118.94300079345703" r="231.4267280753897" fx="-61.75400161743164" fy="-118.94300079345703"><stop offset="0%" stop-color="rgb(254,232,205)"></stop><stop offset="62%" stop-color="rgb(254,206,169)"></stop><stop offset="100%" stop-color="rgb(253,180,133)"></stop></radialGradient><mask id="__lottie_element_40"><path fill="url(#__lottie_element_39)" d=" M-192.39599609375,18.256999969482422 C-183.3000030517578,44.895999908447266 -169.41299438476562,66.33000183105469 -139.031005859375,95.49600219726562 C-68.81300354003906,162.90499877929688 11.234999656677246,209.24899291992188 106.73100280761719,157.28799438476562 C202.2270050048828,105.3270034790039 212.05799865722656,-37.91699981689453 113.75299835205078,-123.58300018310547 C15.447999954223633,-209.2480010986328 -109.29000091552734,-164.05499267578125 -143.24400329589844,-134.8179931640625 C-193.8000030517578,-91.28299713134766 -212.0570068359375,-39.32099914550781 -192.39599609375,18.256999969482422z"></path></mask><radialGradient id="__lottie_element_39" spreadMethod="pad" gradientUnits="userSpaceOnUse" cx="-61.75400161743164" cy="-118.94300079345703" r="231.4267280753897" fx="-61.75400161743164" fy="-118.94300079345703"><stop stop-color="rgb(255,255,255)" offset="0%" stop-opacity="0.9300000071525574"></stop><stop stop-color="rgb(255,255,255)" offset="57%" stop-opacity="0.9649999737739563"></stop><stop stop-color="rgb(255,255,255)" offset="100%" stop-opacity="1"></stop></radialGradient><linearGradient id="__lottie_element_41" spreadMethod="pad" gradientUnits="userSpaceOnUse" x1="-99.93900299072266" y1="-42.50600051879883" x2="217.36599731445312" y2="26.85300064086914"><stop offset="0%" stop-color="rgb(248,171,108)"></stop><stop offset="27%" stop-color="rgb(246,151,89)"></stop><stop offset="54%" stop-color="rgb(245,131,70)"></stop><stop offset="77%" stop-color="rgb(248,148,83)"></stop><stop offset="100%" stop-color="rgb(251,166,95)"></stop></linearGradient><mask id="__lottie_element_43"><path fill="url(#__lottie_element_42)" d=" M-140.49899291992188,-87.29299926757812 C-140.49899291992188,-87.29299926757812 -155.2989959716797,-64.56600189208984 -124.41200256347656,-9.406000137329102 C-90.33499908447266,52.06399917602539 3.265000104904175,122.51499938964844 74.5979995727539,122.51499938964844 C130.2530059814453,122.51499938964844 167.36900329589844,88.58399963378906 167.36900329589844,88.58399963378906 C167.36900329589844,88.58399963378906 103.8489990234375,125.03399658203125 38.78799819946289,100.73400115966797 C-26.27400016784668,76.43299865722656 -101.08499908447266,14.076000213623047 -123.69999694824219,-30.77899932861328 C-140.7969970703125,-66.88899993896484 -140.49899291992188,-87.29299926757812 -140.49899291992188,-87.29299926757812z"></path></mask><linearGradient id="__lottie_element_42" spreadMethod="pad" gradientUnits="userSpaceOnUse" x1="-99.93900299072266" y1="-42.50600051879883" x2="217.36599731445312" y2="26.85300064086914"><stop stop-color="rgb(255,255,255)" offset="0%" stop-opacity="0.9300000071525574"></stop><stop stop-color="rgb(255,255,255)" offset="57%" stop-opacity="0.9649999737739563"></stop><stop stop-color="rgb(255,255,255)" offset="100%" stop-opacity="1"></stop></linearGradient><linearGradient id="__lottie_element_46" spreadMethod="pad" gradientUnits="userSpaceOnUse" x1="51.327999114990234" y1="-55.32600021362305" x2="-30.6299991607666" y2="59.50699996948242"><stop offset="0%" stop-color="rgb(253,193,150)"></stop><stop offset="50%" stop-color="rgb(250,172,122)"></stop><stop offset="100%" stop-color="rgb(248,150,94)"></stop></linearGradient><mask id="__lottie_element_48"><path fill="url(#__lottie_element_47)" d=" M-59.487998962402344,-72.37799835205078 C-59.487998962402344,-72.37799835205078 -78.8239974975586,-34.75199890136719 -62.10100173950195,-0.7839999794960022 C-45.37799835205078,33.183998107910156 -10.364999771118164,49.38399887084961 13.151000022888184,54.61000061035156 C36.66699981689453,59.83599853515625 61.229000091552734,58.268001556396484 69.06800079345703,54.61000061035156 C76.90599822998047,50.95199966430664 92.58499908447266,42.59000015258789 92.58499908447266,42.59000015258789 C92.58499908447266,42.59000015258789 85.79000091552734,69.24199676513672 41.893001556396484,70.80999755859375 C-2.003999948501587,72.37799835205078 -68.12300109863281,32.24800109863281 -74.12000274658203,9.842000007629395 C-92.58499908447266,-59.138999938964844 -59.487998962402344,-72.37799835205078 -59.487998962402344,-72.37799835205078z"></path></mask><linearGradient id="__lottie_element_47" spreadMethod="pad" gradientUnits="userSpaceOnUse" x1="51.327999114990234" y1="-55.32600021362305" x2="-30.6299991607666" y2="59.50699996948242"><stop stop-color="rgb(255,255,255)" offset="0%" stop-opacity="0.9300000071525574"></stop><stop stop-color="rgb(255,255,255)" offset="57%" stop-opacity="0.9649999737739563"></stop><stop stop-color="rgb(255,255,255)" offset="100%" stop-opacity="1"></stop></linearGradient><clipPath id="__lottie_element_58"><path d="M0,0 L512,0 L512,512 L0,512z"></path></clipPath><radialGradient id="__lottie_element_92" spreadMethod="pad" gradientUnits="userSpaceOnUse"><stop></stop><stop></stop><stop></stop></radialGradient><mask id="__lottie_element_94"><path fill="url(#__lottie_element_93)"></path></mask><radialGradient id="__lottie_element_93" spreadMethod="pad" gradientUnits="userSpaceOnUse"><stop stop-color="rgb(255,255,255)"></stop><stop stop-color="rgb(255,255,255)"></stop><stop stop-color="rgb(255,255,255)"></stop></radialGradient><linearGradient id="__lottie_element_95" spreadMethod="pad" gradientUnits="userSpaceOnUse"><stop></stop><stop></stop><stop></stop><stop></stop><stop></stop></linearGradient><mask id="__lottie_element_97"><path fill="url(#__lottie_element_96)"></path></mask><linearGradient id="__lottie_element_96" spreadMethod="pad" gradientUnits="userSpaceOnUse"><stop stop-color="rgb(255,255,255)"></stop><stop stop-color="rgb(255,255,255)"></stop><stop stop-color="rgb(255,255,255)"></stop></linearGradient><linearGradient id="__lottie_element_100" spreadMethod="pad" gradientUnits="userSpaceOnUse"><stop></stop><stop></stop><stop></stop></linearGradient><mask id="__lottie_element_102"><path fill="url(#__lottie_element_101)"></path></mask><linearGradient id="__lottie_element_101" spreadMethod="pad" gradientUnits="userSpaceOnUse"><stop stop-color="rgb(255,255,255)"></stop><stop stop-color="rgb(255,255,255)"></stop><stop stop-color="rgb(255,255,255)"></stop></linearGradient></defs><g clip-path="url(#__lottie_element_2)"><g clip-path="url(#__lottie_element_58)" style="display: none;"><g style="display: none;"><g><g><path></path></g><g><path stroke-linecap="round" stroke-linejoin="round" fill-opacity="0"></path></g></g></g><g style="display: none;"><g><path stroke-linecap="round" stroke-linejoin="round" fill-opacity="0"></path></g></g><g style="display: none;"><g><path fill="url(#__lottie_element_92)" mask="url(#__lottie_element_94)"></path><path stroke-linecap="butt" stroke-linejoin="miter" fill-opacity="0" stroke-miterlimit="10"></path></g><g><path fill="url(#__lottie_element_95)" mask="url(#__lottie_element_97)"></path></g><g><path></path></g></g><g style="display: none;"><g><path stroke-linecap="round" stroke-linejoin="round" fill-opacity="0"></path></g><g><path stroke-linecap="round" stroke-linejoin="round" fill-opacity="0"></path></g><g><path stroke-linecap="round" stroke-linejoin="round" fill-opacity="0"></path></g><g><path stroke-linecap="round" stroke-linejoin="round" fill-opacity="0"></path></g></g><g style="display: none;"><g><path fill="url(#__lottie_element_100)" mask="url(#__lottie_element_102)"></path></g><g><path stroke-linecap="round" stroke-linejoin="round" fill-opacity="0"></path></g></g><g style="display: none;"><g><path stroke-linecap="round" stroke-linejoin="round" fill-opacity="0"></path></g></g><g style="display: none;"><g><g><path></path></g><g><path></path></g></g><g><g><path></path></g><g><path></path></g></g><g><path stroke-linecap="round" stroke-linejoin="round" fill-opacity="0"></path></g><g><path stroke-linecap="round" stroke-linejoin="round" fill-opacity="0"></path></g></g><g style="display: none;"><g><path></path></g><g><path></path></g><g><path></path></g><g><path></path></g><g><path></path></g><g><path></path></g><g><path></path></g></g><g style="display: none;"><g><path></path><path stroke-linecap="round" stroke-linejoin="round" fill-opacity="0"></path></g><g><path></path><path stroke-linecap="round" stroke-linejoin="round" fill-opacity="0"></path></g><g><path></path><path stroke-linecap="round" stroke-linejoin="round" fill-opacity="0"></path></g></g><g style="display: none;"><g><path></path></g><g><path></path></g><g><path></path></g><g><path></path></g><g><path></path></g><g><path></path></g><g><path></path></g></g><g style="display: none;"><g><path></path><path stroke-linecap="round" stroke-linejoin="round" fill-opacity="0"></path></g></g><g style="display: none;"><g><path></path></g><g><path stroke-linecap="round" stroke-linejoin="round" fill-opacity="0"></path></g></g><g style="display: none;"><g><g><path></path><path stroke-linecap="round" stroke-linejoin="round" fill-opacity="0"></path></g></g></g></g><g clip-path="url(#__lottie_element_4)" style="display: block;" transform="matrix(1,0,0,1,0,0)" opacity="1"><g style="display: block;" transform="matrix(0.9700000286102295,0,0,0.9746841192245483,137.25875854492188,328.1435546875)" opacity="1"><g opacity="1" transform="matrix(1,0,0,1,0,0)"><g opacity="1" transform="matrix(1,0,0,1,80.6969985961914,85.6760025024414)"><path fill="rgb(215,1,88)" fill-opacity="1" d=" M-18.628000259399414,-63.28099822998047 C-18.628000259399414,-63.28099822998047 -38.63999938964844,-8.126999855041504 -44.49700164794922,7.002999782562256 C-50.354000091552734,22.134000778198242 -61.027000427246094,52.22100067138672 -61.027000427246094,52.22100067138672 C-61.027000427246094,52.22100067138672 -49.32099914550781,61.457000732421875 -0.0010000000474974513,62.573001861572266 C31.243999481201172,63.28099822998047 61.027000427246094,58.2140007019043 61.027000427246094,58.2140007019043 C61.027000427246094,58.2140007019043 51.167999267578125,16.277000427246094 48.2400016784668,2.6110000610351562 C45.31100082397461,-11.055999755859375 34.525001525878906,-62.402000427246094 34.525001525878906,-62.402000427246094 C34.525001525878906,-62.402000427246094 -18.628000259399414,-63.28099822998047 -18.628000259399414,-63.28099822998047z"></path></g><g opacity="1" transform="matrix(1,0,0,1,81.78600311279297,81.50800323486328)"><path stroke-linecap="round" stroke-linejoin="round" fill-opacity="0" stroke="rgb(152,2,53)" stroke-opacity="1" stroke-width="10" d=" M59.391998291015625,59.112998962402344 C59.391998291015625,59.112998962402344 50.07899856567383,20.44499969482422 47.150001525878906,6.7789998054504395 C44.22200012207031,-6.888000011444092 30.43600082397461,-58.23400115966797 30.43600082397461,-58.23400115966797 C30.43600082397461,-58.23400115966797 -19.7189998626709,-59.112998962402344 -19.7189998626709,-59.112998962402344 C-19.7189998626709,-59.112998962402344 -39.72999954223633,-3.9590001106262207 -45.58700180053711,11.170999526977539 C-51.444000244140625,26.302000045776367 -59.391998291015625,54.75400161743164 -59.391998291015625,54.75400161743164"></path></g></g></g><g style="display: block;" transform="matrix(0.961037278175354,0,0,0.9781831502914429,256.00067138671875,260.06317138671875)" opacity="1"><g opacity="1" transform="matrix(1,0,0,1,0,0)"><path stroke-linecap="round" stroke-linejoin="round" fill-opacity="0" stroke="rgb(82,56,43)" stroke-opacity="1" stroke-width="11" d=" M-2.5,133.5 C-2.5,133.5 16.58099937438965,143.50900268554688 23.08099937438965,162.00900268554688 C26.650999069213867,172.1699981689453 37.97999954223633,207.8730010986328 37.97999954223633,207.8730010986328"></path></g></g><g style="display: block;" transform="matrix(0.9700000286102295,0,0,0.9746841192245483,85.41031646728516,16.201757431030273)" opacity="1"><g opacity="1" transform="matrix(1,0,0,1,242.0570068359375,239.24899291992188)"><path fill="url(#__lottie_element_38)" mask="url(#__lottie_element_40)" fill-opacity="1" d="M0 0 M-192.39599609375,18.256999969482422 C-183.3000030517578,44.895999908447266 -169.41299438476562,66.33000183105469 -139.031005859375,95.49600219726562 C-68.81300354003906,162.90499877929688 11.234999656677246,209.24899291992188 106.73100280761719,157.28799438476562 C202.2270050048828,105.3270034790039 212.05799865722656,-37.91699981689453 113.75299835205078,-123.58300018310547 C15.447999954223633,-209.2480010986328 -109.29000091552734,-164.05499267578125 -143.24400329589844,-134.8179931640625 C-193.8000030517578,-91.28299713134766 -212.0570068359375,-39.32099914550781 -192.39599609375,18.256999969482422z"></path><path stroke-linecap="butt" stroke-linejoin="miter" fill-opacity="0" stroke-miterlimit="10" stroke="rgb(171,88,44)" stroke-opacity="1" stroke-width="14" d=" M-192.39599609375,18.256999969482422 C-183.3000030517578,44.895999908447266 -169.41299438476562,66.33000183105469 -139.031005859375,95.49600219726562 C-68.81300354003906,162.90499877929688 11.234999656677246,209.24899291992188 106.73100280761719,157.28799438476562 C202.2270050048828,105.3270034790039 212.05799865722656,-37.91699981689453 113.75299835205078,-123.58300018310547 C15.447999954223633,-209.2480010986328 -109.29000091552734,-164.05499267578125 -143.24400329589844,-134.8179931640625 C-193.8000030517578,-91.28299713134766 -212.0570068359375,-39.32099914550781 -192.39599609375,18.256999969482422z"></path></g><g opacity="1" transform="matrix(1,0,0,1,192.85899353027344,291.3039855957031)"><path fill="url(#__lottie_element_41)" mask="url(#__lottie_element_43)" fill-opacity="0.64" d="M0 0 M-140.49899291992188,-87.29299926757812 C-140.49899291992188,-87.29299926757812 -155.2989959716797,-64.56600189208984 -124.41200256347656,-9.406000137329102 C-90.33499908447266,52.06399917602539 3.265000104904175,122.51499938964844 74.5979995727539,122.51499938964844 C130.2530059814453,122.51499938964844 167.36900329589844,88.58399963378906 167.36900329589844,88.58399963378906 C167.36900329589844,88.58399963378906 103.8489990234375,125.03399658203125 38.78799819946289,100.73400115966797 C-26.27400016784668,76.43299865722656 -101.08499908447266,14.076000213623047 -123.69999694824219,-30.77899932861328 C-140.7969970703125,-66.88899993896484 -140.49899291992188,-87.29299926757812 -140.49899291992188,-87.29299926757812z"></path></g><g opacity="0.54" transform="matrix(1,0,0,1,260.5589904785156,157.85699462890625)"><path fill="rgb(255,247,241)" fill-opacity="1" d=" M-167.75657653808594,-39.28889465332031 C-167.75657653808594,-39.28889465332031 -70.01847076416016,-116.84589385986328 51.63352584838867,-52.33389663696289 C159.51852416992188,4.878105163574219 157.468994140625,122.4540023803711 157.468994140625,122.4540023803711 C157.468994140625,122.4540023803711 174.36000061035156,43.446998596191406 93.71800231933594,-36.10499954223633 C6.185999870300293,-122.4540023803711 -124.23200225830078,-72.06700134277344 -142.75799560546875,-58.44499969482422 C-161.28399658203125,-44.823001861572266 -167.75657653808594,-39.28889465332031 -167.75657653808594,-39.28889465332031z"></path></g></g><g style="display: block;" transform="matrix(0.9700000286102295,0,0,0.9746841192245483,174.56594848632812,154.37428283691406)" opacity="1"><g opacity="1" transform="matrix(1,0,0,1,234.6439971923828,193.93800354003906)"><path stroke-linecap="round" stroke-linejoin="round" fill-opacity="0" stroke="rgb(207,88,78)" stroke-opacity="1" stroke-width="10.252" d=" M-0.29600000381469727,-8.611000061035156 C-0.29600000381469727,-8.611000061035156 0.29600000381469727,8.611000061035156 0.29600000381469727,8.611000061035156"></path></g><g opacity="1" transform="matrix(1,0,0,1,0,0)"><path stroke-linecap="round" stroke-linejoin="round" fill-opacity="0" stroke="rgb(207,88,78)" stroke-opacity="1" stroke-width="11.03" d=" M5.514999866485596,5.514999866485596 C5.514999866485596,5.514999866485596 5.514999866485596,25.368000030517578 5.514999866485596,25.368000030517578"></path></g><g opacity="1" transform="matrix(1,0,0,1,253.89500427246094,202.28799438476562)"><path stroke-linecap="round" stroke-linejoin="round" fill-opacity="0" stroke="rgb(207,88,78)" stroke-opacity="1" stroke-width="10.252" d=" M-1.184000015258789,-14.35099983215332 C-1.184000015258789,-14.35099983215332 1.184000015258789,14.35099983215332 1.184000015258789,14.35099983215332"></path></g><g opacity="1" transform="matrix(1,0,0,1,0,0)"><path stroke-linecap="round" stroke-linejoin="round" fill-opacity="0" stroke="rgb(207,88,78)" stroke-opacity="1" stroke-width="11.03" d=" M25.14299964904785,8.52299976348877 C25.14299964904785,8.52299976348877 25.14299964904785,38.00199890136719 25.14299964904785,38.00199890136719"></path></g></g><g style="display: block;" transform="matrix(0.9700000286102295,0,0,0.9746841192245483,153.87777709960938,168.48089599609375)" opacity="1"><g opacity="1" transform="matrix(1,0,0,1,134.3520050048828,108.71099853515625)"><path fill="url(#__lottie_element_46)" mask="url(#__lottie_element_48)" fill-opacity="1" d="M0 0 M-59.487998962402344,-72.37799835205078 C-59.487998962402344,-72.37799835205078 -78.8239974975586,-34.75199890136719 -62.10100173950195,-0.7839999794960022 C-45.37799835205078,33.183998107910156 -10.364999771118164,49.38399887084961 13.151000022888184,54.61000061035156 C36.66699981689453,59.83599853515625 61.229000091552734,58.268001556396484 69.06800079345703,54.61000061035156 C76.90599822998047,50.95199966430664 92.58499908447266,42.59000015258789 92.58499908447266,42.59000015258789 C92.58499908447266,42.59000015258789 85.79000091552734,69.24199676513672 41.893001556396484,70.80999755859375 C-2.003999948501587,72.37799835205078 -68.12300109863281,32.24800109863281 -74.12000274658203,9.842000007629395 C-92.58499908447266,-59.138999938964844 -59.487998962402344,-72.37799835205078 -59.487998962402344,-72.37799835205078z"></path></g><g opacity="1" transform="matrix(1,0,0,1,131.4290008544922,107.71099853515625)"><path stroke-linecap="round" stroke-linejoin="round" fill-opacity="0" stroke="rgb(83,57,44)" stroke-opacity="1" stroke-width="13" d=" M-62.104000091552734,-75.21099853515625 C-62.104000091552734,-75.21099853515625 -98.92900085449219,-44.00299835205078 -73.33899688720703,8.425999641418457 C-47.74800109863281,60.85499954223633 12.170999526977539,75.21099853515625 50.86800003051758,70.84200286865234 C89.56600189208984,66.4729995727539 98.92900085449219,43.37900161743164 98.92900085449219,43.37900161743164"></path></g></g><g style="display: block;" transform="matrix(0.9697189927101135,-0.023461975157260895,0.023349223658442497,0.9744017124176025,7.494061470031738,184.03651428222656)" opacity="1"><g opacity="1" transform="matrix(1,0,0,1,107.10900115966797,112.37699890136719)"><path stroke-linecap="round" stroke-linejoin="round" fill-opacity="0" stroke="rgb(83,57,44)" stroke-opacity="1" stroke-width="12" d=" M77.10900115966797,76.72699737548828 C77.10900115966797,76.72699737548828 -1.5330909490585327,68.30172729492188 -37.435089111328125,29.415727615356445 C-86.73509216308594,-23.98227310180664 -59.073455810546875,-82.94581604003906 -59.073455810546875,-82.94581604003906"></path></g></g><g style="display: block;" transform="matrix(0.9700000286102295,0,0,0.9746841192245483,190.8163604736328,95.4848403930664)" opacity="1"><g opacity="1" transform="matrix(1,0,0,1,0,0)"><g opacity="1" transform="matrix(1,0,0,1,43.262001037597656,57.67499923706055)"><path fill="rgb(83,57,44)" fill-opacity="1" d=" M5.306000232696533,-13.833999633789062 C1.3380000591278076,-15.659000396728516 -4.269000053405762,-12.822999954223633 -7.692999839782715,-10.029000282287598 C-9.812000274658203,-8.300000190734863 -11.894000053405762,-5.794000148773193 -12.821000099182129,-2.2730000019073486 C-15.059000015258789,6.2210001945495605 -7.22599983215332,15.187000274658203 0.8299999833106995,15.42300033569336 C8.88700008392334,15.659000396728516 15.059000015258789,6.22599983215332 14.928999900817871,1.975000023841858 C14.663000106811523,-6.7210001945495605 10.031999588012695,-11.65999984741211 5.306000232696533,-13.833999633789062z"></path></g><g opacity="1" transform="matrix(1,0,0,1,32.67100143432617,55.45399856567383)"><path fill="rgb(255,255,255)" fill-opacity="1" d=" M1.4110000133514404,-3.1589999198913574 C0.4560000002384186,-3.572999954223633 -1.5110000371932983,-3.180999994277954 -2.3350000381469727,-2.546999931335449 C-2.8450000286102295,-2.1549999713897705 -2.996999979019165,-1.378000020980835 -3.2200000286102295,-0.5799999833106995 C-3.757999897003174,1.347000002861023 -2.114000082015991,3.3550000190734863 0.33399999141693115,3.4769999980926514 C2.2709999084472656,3.572999954223633 3.757999897003174,1.3910000324249268 3.7269999980926514,0.4269999861717224 C3.6630001068115234,-1.5460000038146973 2.5480000972747803,-2.6659998893737793 1.4110000133514404,-3.1589999198913574z"></path></g></g><g opacity="1" transform="matrix(1,0,0,1,0,0)"><g opacity="1" transform="matrix(1,0,0,1,177.75100708007812,171.8419952392578)"><path fill="rgb(83,57,44)" fill-opacity="1" d=" M5.791999816894531,-13.99899959564209 C1.871999979019165,-15.833999633789062 -6.202000141143799,-14.095000267028809 -9.583000183105469,-11.286999702453613 C-11.677000045776367,-9.548999786376953 -12.300000190734863,-6.107999801635742 -13.215999603271484,-2.569000005722046 C-15.425999641418457,5.968999862670898 -8.675000190734863,14.866999626159668 1.371000051498413,15.407999992370605 C9.321000099182129,15.835000038146973 15.425999641418457,6.163000106811523 15.29699993133545,1.8899999856948853 C15.034000396728516,-6.85099983215332 10.460000038146973,-11.814000129699707 5.791999816894531,-13.99899959564209z"></path></g><g opacity="1" transform="matrix(1,0,0,1,166.8699951171875,169.51400756835938)"><path fill="rgb(255,255,255)" fill-opacity="1" d=" M1.2480000257492065,-2.684999942779541 C0.40400001406669617,-3.0369999408721924 -1.3350000381469727,-2.703000068664551 -2.063999891281128,-2.1649999618530273 C-2.5139999389648438,-1.8320000171661377 -2.6500000953674316,-1.1720000505447388 -2.8469998836517334,-0.49300000071525574 C-3.322999954223633,1.1440000534057617 -1.86899995803833,2.8499999046325684 0.29499998688697815,2.9539999961853027 C2.006999969482422,3.0360000133514404 3.322999954223633,1.1820000410079956 3.2950000762939453,0.3630000054836273 C3.239000082015991,-1.312999963760376 2.253999948501587,-2.2660000324249268 1.2480000257492065,-2.684999942779541z"></path></g></g><g opacity="1" transform="matrix(1,0,0,1,78.36799621582031,70.25399780273438)"><path stroke-linecap="round" stroke-linejoin="round" fill-opacity="0" stroke="rgb(83,57,44)" stroke-opacity="1" stroke-width="13.746" d=" M-44.00299835205078,-35.888999938964844 C-44.00299835205078,-35.888999938964844 -24.030000686645508,-18.413000106811523 2.184999942779541,1.559999942779541 C28.39900016784668,21.533000946044922 44.00299835205078,35.888999938964844 44.00299835205078,35.888999938964844"></path></g><g opacity="1" transform="matrix(1,0,0,1,219.16099548339844,191.68899536132812)"><path stroke-linecap="round" stroke-linejoin="round" fill-opacity="0" stroke="rgb(83,57,44)" stroke-opacity="1" stroke-width="13.746" d=" M-46.856998443603516,-39.358001708984375 C-46.856998443603516,-39.358001708984375 -20.599000930786133,-20.26300048828125 -0.6690000295639038,-4.40500020980835 C27.075000762939453,17.67099952697754 46.856998443603516,39.358001708984375 44.27000045776367,36.78900146484375"></path></g></g><g style="display: none;"><g><path></path></g><g><path></path></g><g><path></path></g><g><path></path></g><g><path></path></g><g><path></path></g><g><path></path></g></g><g style="display: block;" transform="matrix(0.9691419005393982,-0.0409892313182354,0.04079224914312363,0.9738218188285828,71.34233856201172,103.86590576171875)" opacity="1"><g opacity="1" transform="matrix(1,0,0,1,73.48100280761719,85.42900085449219)"><path fill="rgb(242,239,228)" fill-opacity="1" d=" M-21.340999603271484,-45.053001403808594 C-21.340999603271484,-45.053001403808594 -2.558000087738037,-50.93600082397461 1.7170000076293945,-53.57500076293945 C10.02400016784668,-58.702999114990234 17.763999938964844,-71.0009994506836 17.763999938964844,-71.0009994506836 C17.763999938964844,-71.0009994506836 25.184999465942383,-51.89400100708008 26.118999481201172,-23.93400001525879 C26.356000900268555,-16.854000091552734 24.316999435424805,-12.654000282287598 24.316999435424805,-12.654000282287598 C24.316999435424805,-12.654000282287598 11.230999946594238,-6.288000106811523 11.230999946594238,-6.288000106811523 C11.230999946594238,-6.288000106811523 25.136999130249023,0.6740000247955322 25.136999130249023,0.6740000247955322 C25.136999130249023,0.6740000247955322 28.48699951171875,14.130000114440918 25.218000411987305,33.74599838256836 C22.41200065612793,50.57899856567383 11.49899959564209,77.40299987792969 11.49899959564209,77.40299987792969 C11.49899959564209,77.40299987792969 5.4120001792907715,70.7300033569336 -5.123000144958496,59.45000076293945 C-7.954999923706055,56.41699981689453 -28.423999786376953,44.85300064086914 -28.423999786376953,44.85300064086914 C-28.423999786376953,44.85300064086914 -21.340999603271484,-45.053001403808594 -21.340999603271484,-45.053001403808594z"></path><path stroke-linecap="round" stroke-linejoin="round" fill-opacity="0" stroke="rgb(179,147,130)" stroke-opacity="1" stroke-width="9" d=" M-21.340999603271484,-45.053001403808594 C-21.340999603271484,-45.053001403808594 -2.558000087738037,-50.93600082397461 1.7170000076293945,-53.57500076293945 C10.02400016784668,-58.702999114990234 17.763999938964844,-71.0009994506836 17.763999938964844,-71.0009994506836 C17.763999938964844,-71.0009994506836 25.184999465942383,-51.89400100708008 26.118999481201172,-23.93400001525879 C26.356000900268555,-16.854000091552734 24.316999435424805,-12.654000282287598 24.316999435424805,-12.654000282287598 C24.316999435424805,-12.654000282287598 11.230999946594238,-6.288000106811523 11.230999946594238,-6.288000106811523 C11.230999946594238,-6.288000106811523 25.136999130249023,0.6740000247955322 25.136999130249023,0.6740000247955322 C25.136999130249023,0.6740000247955322 28.48699951171875,14.130000114440918 25.218000411987305,33.74599838256836 C22.41200065612793,50.57899856567383 11.49899959564209,77.40299987792969 11.49899959564209,77.40299987792969 C11.49899959564209,77.40299987792969 5.4120001792907715,70.7300033569336 -5.123000144958496,59.45000076293945 C-7.954999923706055,56.41699981689453 -28.423999786376953,44.85300064086914 -28.423999786376953,44.85300064086914 C-28.423999786376953,44.85300064086914 -21.340999603271484,-45.053001403808594 -21.340999603271484,-45.053001403808594z"></path></g><g opacity="1" transform="matrix(1,0,0,1,53.42300033569336,84.34600067138672)"><path fill="rgb(241,75,166)" fill-opacity="1" d=" M6.5269999504089355,-52.14400100708008 C18.81399917602539,-39.856998443603516 20.965999603271484,-15.36400032043457 20.965999603271484,16.51099967956543 C20.965999603271484,48.387001037597656 13.0649995803833,56.83100128173828 1.0779999494552612,56.46799850463867 C-1.3669999837875366,56.39400100708008 -9.192000389099121,57.4010009765625 -10.909000396728516,55.37799835205078 C-17.933000564575195,47.10599899291992 -17.768999099731445,24.652999877929688 -19.082000732421875,-5.557000160217285 C-20.073999404907227,-28.365999221801758 -20.965999603271484,-48.625999450683594 -14.904999732971191,-54.6870002746582 C-13.08899974822998,-56.50299835205078 1.2699999809265137,-57.402000427246094 6.5269999504089355,-52.14400100708008z"></path><path stroke-linecap="round" stroke-linejoin="round" fill-opacity="0" stroke="rgb(180,28,119)" stroke-opacity="1" stroke-width="8.958" d=" M6.5269999504089355,-52.14400100708008 C18.81399917602539,-39.856998443603516 20.965999603271484,-15.36400032043457 20.965999603271484,16.51099967956543 C20.965999603271484,48.387001037597656 13.0649995803833,56.83100128173828 1.0779999494552612,56.46799850463867 C-1.3669999837875366,56.39400100708008 -9.192000389099121,57.4010009765625 -10.909000396728516,55.37799835205078 C-17.933000564575195,47.10599899291992 -17.768999099731445,24.652999877929688 -19.082000732421875,-5.557000160217285 C-20.073999404907227,-28.365999221801758 -20.965999603271484,-48.625999450683594 -14.904999732971191,-54.6870002746582 C-13.08899974822998,-56.50299835205078 1.2699999809265137,-57.402000427246094 6.5269999504089355,-52.14400100708008z"></path></g><g opacity="1" transform="matrix(1,0,0,1,43.487998962402344,83.28500366210938)"><path fill="rgb(241,75,166)" fill-opacity="1" d=" M5.564000129699707,-51.082000732421875 C17.85099983215332,-38.79499816894531 21.093000411987305,-14.303000450134277 21.093000411987305,17.57200050354004 C21.093000411987305,49.448001861572266 9.651000022888184,60.88999938964844 -1.7920000553131104,55.986000061035156 C-13.234000205993652,51.082000732421875 -17.320999145507812,33.10100173950195 -18.954999923706055,-4.494999885559082 C-21.093000411987305,-53.65700149536133 -4.24399995803833,-60.88999938964844 5.564000129699707,-51.082000732421875z"></path><path stroke-linecap="round" stroke-linejoin="round" fill-opacity="0" stroke="rgb(180,27,119)" stroke-opacity="1" stroke-width="8.958" d=" M5.564000129699707,-51.082000732421875 C17.85099983215332,-38.79499816894531 21.093000411987305,-14.303000450134277 21.093000411987305,17.57200050354004 C21.093000411987305,49.448001861572266 9.651000022888184,60.88999938964844 -1.7920000553131104,55.986000061035156 C-13.234000205993652,51.082000732421875 -17.320999145507812,33.10100173950195 -18.954999923706055,-4.494999885559082 C-21.093000411987305,-53.65700149536133 -4.24399995803833,-60.88999938964844 5.564000129699707,-51.082000732421875z"></path></g></g><g style="display: block;" transform="matrix(1.1215100288391113,0,0,1.062730073928833,81.58782196044922,160.19224548339844)" opacity="0.71"><g opacity="0" transform="matrix(0.2051600068807602,0,0,0.19815999269485474,174.0989990234375,98.5780029296875)"><path fill="rgb(255,253,246)" fill-opacity="1" d=" M47.10599899291992,0 C47.10599899291992,19.958999633789062 26.016000747680664,36.138999938964844 -0.0010000000474974513,36.138999938964844 C-26.017000198364258,36.138999938964844 -47.106998443603516,19.958999633789062 -47.106998443603516,0 C-47.106998443603516,-19.958999633789062 -26.017000198364258,-36.138999938964844 -0.0010000000474974513,-36.138999938964844 C26.016000747680664,-36.138999938964844 47.10599899291992,-19.958999633789062 47.10599899291992,0z"></path></g><g opacity="0" transform="matrix(0.38655999302864075,0,0,0.362529993057251,40.11199951171875,139.56199645996094)"><path fill="rgb(255,253,246)" fill-opacity="1" d=" M38.29399871826172,0 C38.29399871826172,14.307000160217285 21.14900016784668,25.905000686645508 0,25.905000686645508 C-21.14900016784668,25.905000686645508 -38.29399871826172,14.307000160217285 -38.29399871826172,0 C-38.29399871826172,-14.307000160217285 -21.14900016784668,-25.905000686645508 0,-25.905000686645508 C21.14900016784668,-25.905000686645508 38.29399871826172,-14.307000160217285 38.29399871826172,0z"></path></g><g opacity="0" transform="matrix(0.4943999946117401,0,0,0.49432000517845154,299.1130065917969,-10.439000129699707)"><path fill="rgb(255,253,246)" fill-opacity="1" d=" M25.742000579833984,0 C25.742000579833984,9.649999618530273 14.217000007629395,17.472000122070312 0.0010000000474974513,17.472000122070312 C-14.215999603271484,17.472000122070312 -25.740999221801758,9.649999618530273 -25.740999221801758,0 C-25.740999221801758,-9.649999618530273 -14.215999603271484,-17.472000122070312 0.0010000000474974513,-17.472000122070312 C14.217000007629395,-17.472000122070312 25.742000579833984,-9.649999618530273 25.742000579833984,0z"></path></g><g opacity="0" transform="matrix(0.5834999680519104,0,0,0.6457200050354004,242.17300415039062,76.0989990234375)"><path fill="rgb(255,253,246)" fill-opacity="1" d=" M25.742000579833984,0 C25.742000579833984,9.649999618530273 14.217000007629395,17.472000122070312 0.0010000000474974513,17.472000122070312 C-14.215999603271484,17.472000122070312 -25.740999221801758,9.649999618530273 -25.740999221801758,0 C-25.740999221801758,-9.649999618530273 -14.215999603271484,-17.472000122070312 0.0010000000474974513,-17.472000122070312 C14.217000007629395,-17.472000122070312 25.742000579833984,-9.649999618530273 25.742000579833984,0z"></path></g><g opacity="0.15991537098996247" transform="matrix(0.25652188062667847,0,0,0.35278987884521484,235.16287231445312,273.80108642578125)"><path fill="rgb(255,253,246)" fill-opacity="1" d=" M16.836000442504883,0 C16.836000442504883,5.00600004196167 9.29800033569336,9.064000129699707 -0.0010000000474974513,9.064000129699707 C-9.298999786376953,9.064000129699707 -16.836999893188477,5.00600004196167 -16.836999893188477,0 C-16.836999893188477,-5.00600004196167 -9.298999786376953,-9.064000129699707 -0.0010000000474974513,-9.064000129699707 C9.29800033569336,-9.064000129699707 16.836000442504883,-5.00600004196167 16.836000442504883,0z"></path></g><g opacity="0" transform="matrix(0.33270999789237976,0,0,0.8156700134277344,43.91299819946289,231.27499389648438)"><path fill="rgb(255,253,246)" fill-opacity="1" d=" M14.461999893188477,0 C14.461999893188477,3.812000036239624 7.986999988555908,6.9019999504089355 0,6.9019999504089355 C-7.986999988555908,6.9019999504089355 -14.461999893188477,3.812000036239624 -14.461999893188477,0 C-14.461999893188477,-3.812000036239624 -7.986999988555908,-6.9019999504089355 0,-6.9019999504089355 C7.986999988555908,-6.9019999504089355 14.461999893188477,-3.812000036239624 14.461999893188477,0z"></path></g><g opacity="0" transform="matrix(0.4675700068473816,0,0,0.46592000126838684,185.7318572998047,152.23574829101562)"><path fill="rgb(255,253,246)" fill-opacity="1" d=" M25.98200035095215,0 C25.98200035095215,8.923999786376953 14.348999977111816,16.158000946044922 0,16.158000946044922 C-14.350000381469727,16.158000946044922 -25.982999801635742,8.923999786376953 -25.982999801635742,0 C-25.982999801635742,-8.923999786376953 -14.350000381469727,-16.158000946044922 0,-16.158000946044922 C14.348999977111816,-16.158000946044922 25.98200035095215,-8.923999786376953 25.98200035095215,0z"></path></g></g><g style="display: block;" transform="matrix(0.9697189927101135,-0.023461975157260895,0.023349223658442497,0.9744017124176025,32.508949279785156,160.67556762695312)" opacity="1"><g opacity="1" transform="matrix(1,0,0,1,52.697998046875,38.04099655151367)"><path fill="rgb(238,197,176)" fill-opacity="1" d=" M-27.479999542236328,12.824000358581543 C-27.479999542236328,12.824000358581543 -4.275000095367432,12.416999816894531 6.7170000076293945,8.345999717712402 C14.779999732971191,5.359000205993652 27.479999542236328,-3.052999973297119 25.03700065612793,-7.939000129699707 C22.594999313354492,-12.824000358581543 15.876999855041504,-3.868000030517578 11.29699993133545,-3.562000036239624 C6.7170000076293945,-3.256999969482422 -14.656000137329102,-7.22599983215332 -14.656000137329102,-7.22599983215332 C-14.656000137329102,-7.22599983215332 -27.479999542236328,12.824000358581543 -27.479999542236328,12.824000358581543z"></path><path stroke-linecap="round" stroke-linejoin="round" fill-opacity="0" stroke="rgb(160,116,93)" stroke-opacity="1" stroke-width="10.087" d=" M-27.479999542236328,12.824000358581543 C-27.479999542236328,12.824000358581543 -4.275000095367432,12.416999816894531 6.7170000076293945,8.345999717712402 C14.779999732971191,5.359000205993652 27.479999542236328,-3.052999973297119 25.03700065612793,-7.939000129699707 C22.594999313354492,-12.824000358581543 15.876999855041504,-3.868000030517578 11.29699993133545,-3.562000036239624 C6.7170000076293945,-3.256999969482422 -14.656000137329102,-7.22599983215332 -14.656000137329102,-7.22599983215332 C-14.656000137329102,-7.22599983215332 -27.479999542236328,12.824000358581543 -27.479999542236328,12.824000358581543z"></path></g></g><g style="display: block;" transform="matrix(0.9691419005393982,-0.0409892313182354,0.04079224914312363,0.9738218188285828,70.728515625,155.7070770263672)" opacity="1"><g opacity="1" transform="matrix(1,0,0,1,37.994998931884766,34.96699905395508)"><path fill="rgb(209,105,162)" fill-opacity="1" d=" M15.0649995803833,-13.07699966430664 C15.0649995803833,-13.07699966430664 -2.9830000400543213,-10.170999526977539 -6.801000118255615,-7.991000175476074 C-10.619000434875488,-5.811999797821045 -16.104999542236328,-2.121999979019165 -14.923999786376953,4.388000011444092 C-13.743000030517578,10.89799976348877 -13.743000030517578,13.07699966430664 -13.743000030517578,13.07699966430664 C-13.743000030517578,13.07699966430664 16.104999542236328,7.627999782562256 16.104999542236328,7.627999782562256 C16.104999542236328,7.627999782562256 15.0649995803833,-13.07699966430664 15.0649995803833,-13.07699966430664z"></path></g><g opacity="1" transform="matrix(1,0,0,1,37.994998931884766,34.96699905395508)"><path stroke-linecap="round" stroke-linejoin="round" fill-opacity="0" stroke="rgb(158,73,124)" stroke-opacity="1" stroke-width="8.756" d=" M15.0649995803833,-13.07699966430664 C15.0649995803833,-13.07699966430664 -2.9830000400543213,-10.170999526977539 -6.801000118255615,-7.991000175476074 C-10.619000434875488,-5.811999797821045 -16.104999542236328,-2.121999979019165 -14.923999786376953,4.388000011444092 C-13.743000030517578,10.89799976348877 -13.743000030517578,13.07699966430664 -13.743000030517578,13.07699966430664 C-13.743000030517578,13.07699966430664 16.104999542236328,7.627999782562256 16.104999542236328,7.627999782562256 C16.104999542236328,7.627999782562256 15.0649995803833,-13.07699966430664 15.0649995803833,-13.07699966430664z"></path></g></g><g style="display: block;" transform="matrix(0.9697189927101135,-0.023461975157260895,0.023349223658442497,0.9744017124176025,24.719701766967773,136.7521209716797)" opacity="1"><g opacity="1" transform="matrix(1,0,0,1,0,0)"><g opacity="1" transform="matrix(1,0,0,1,64.66100311279297,52.13800048828125)"><path fill="rgb(247,195,168)" fill-opacity="1" d=" M-38.11199951171875,15.317000389099121 C-38.11199951171875,15.317000389099121 -38.4640007019043,7.883999824523926 -38.05799865722656,0.0010000000474974513 C-37.67499923706055,-7.440999984741211 -36.61600112915039,-15.28499984741211 -33.946998596191406,-17.656999588012695 C-32.04899978637695,-19.3439998626709 -27.952999114990234,-20.97100067138672 -22.395999908447266,-22.24799919128418 C-11.86400032043457,-24.667999267578125 3.9119999408721924,-25.83099937438965 19.900999069213867,-23.766000747680664 C29.760000228881836,-22.492000579833984 33.946998596191406,-20.101999282836914 32.1150016784668,-15.82699966430664 C30.283000946044922,-11.552000045776367 -3.303999900817871,-10.942000389099121 -3.303999900817871,-10.942000389099121 C-3.303999900817871,-10.942000389099121 39.44300079345703,-9.720000267028809 33.946998596191406,-4.835000038146973 C28.451000213623047,0.05000000074505806 3.4130001068115234,0.05000000074505806 -2.693000078201294,3.1040000915527344 C-8.800000190734863,6.1570000648498535 -2.693000078201294,10.432000160217285 -9.41100025177002,15.317000389099121 C-16.128000259399414,20.20199966430664 -32.61600112915039,26.920000076293945 -35.66899871826172,23.865999221801758 C-38.722999572753906,20.812999725341797 -38.11199951171875,15.317000389099121 -38.11199951171875,15.317000389099121z"></path><path stroke-linecap="round" stroke-linejoin="round" fill-opacity="0" stroke="rgb(172,89,45)" stroke-opacity="1" stroke-width="10.087" d=" M-38.11199951171875,15.317000389099121 C-38.11199951171875,15.317000389099121 -38.4640007019043,7.883999824523926 -38.05799865722656,0.0010000000474974513 C-37.67499923706055,-7.440999984741211 -36.61600112915039,-15.28499984741211 -33.946998596191406,-17.656999588012695 C-32.04899978637695,-19.3439998626709 -27.952999114990234,-20.97100067138672 -22.395999908447266,-22.24799919128418 C-11.86400032043457,-24.667999267578125 3.9119999408721924,-25.83099937438965 19.900999069213867,-23.766000747680664 C29.760000228881836,-22.492000579833984 33.946998596191406,-20.101999282836914 32.1150016784668,-15.82699966430664 C30.283000946044922,-11.552000045776367 -3.303999900817871,-10.942000389099121 -3.303999900817871,-10.942000389099121 C-3.303999900817871,-10.942000389099121 39.44300079345703,-9.720000267028809 33.946998596191406,-4.835000038146973 C28.451000213623047,0.05000000074505806 3.4130001068115234,0.05000000074505806 -2.693000078201294,3.1040000915527344 C-8.800000190734863,6.1570000648498535 -2.693000078201294,10.432000160217285 -9.41100025177002,15.317000389099121 C-16.128000259399414,20.20199966430664 -32.61600112915039,26.920000076293945 -35.66899871826172,23.865999221801758 C-38.722999572753906,20.812999725341797 -38.11199951171875,15.317000389099121 -38.11199951171875,15.317000389099121z"></path></g></g></g></g></g></svg>