<svg xmlns="http://www.w3.org/2000/svg" xmlns:xlink="http://www.w3.org/1999/xlink" viewBox="0 0 512 512" width="512" height="512" style="width: 100%; height: 100%; transform: translate3d(0,0,0); content-visibility: visible;" preserveAspectRatio="xMidYMid meet"><defs><clipPath id="__lottie_element_2"><rect width="512" height="512" x="0" y="0"></rect></clipPath><clipPath id="__lottie_element_4"><path d="M0,0 L512,0 L512,512 L0,512z"></path></clipPath><radialGradient id="__lottie_element_13" spreadMethod="pad" gradientUnits="userSpaceOnUse" cx="-95.62100219726562" cy="-195.4409942626953" r="440.00780963897944" fx="-95.62100219726562" fy="-195.4409942626953"><stop offset="0%" stop-color="rgb(254,240,222)"></stop><stop offset="50%" stop-color="rgb(249,213,185)"></stop><stop offset="100%" stop-color="rgb(244,187,148)"></stop></radialGradient></defs><g clip-path="url(#__lottie_element_2)"><g clip-path="url(#__lottie_element_4)" style="display: block;" transform="matrix(0.8281300067901611,0,0,0.8281300067901611,43.99871826171875,45.99871826171875)" opacity="1"><g style="display: block;" transform="matrix(1,0,0,1,0,0)" opacity="1"><g opacity="1" transform="matrix(1,0,0,1,260.61700439453125,262.4779968261719)"><path fill="rgb(235,162,124)" fill-opacity="1" d=" M-3.4049999713897705,-236.38699340820312 C59.80099868774414,-236.38699340820312 137.17300415039062,-218.50399780273438 194.92999267578125,-141.01699829101562 C255.25900268554688,-60.07899856567383 256.5010070800781,110.9530029296875 133.35899353027344,188.98199462890625 C66.60800170898438,231.2790069580078 -21.93000030517578,236.38600158691406 -114.28700256347656,192.25100708007812 C-162.81100463867188,169.06300354003906 -212.52999877929688,123.45500183105469 -230.34500122070312,53.30699920654297 C-256.5,-49.67399978637695 -216.4510040283203,-134.51499938964844 -159.23899841308594,-183.2830047607422 C-124.13500213623047,-213.2050018310547 -68.17500305175781,-236.38699340820312 -3.4049999713897705,-236.38699340820312z"></path><path stroke-linecap="butt" stroke-linejoin="miter" fill-opacity="0" stroke-miterlimit="10" stroke="rgb(182,94,49)" stroke-opacity="1" stroke-width="14" d=" M-3.4049999713897705,-236.38699340820312 C59.80099868774414,-236.38699340820312 137.17300415039062,-218.50399780273438 194.92999267578125,-141.01699829101562 C255.25900268554688,-60.07899856567383 256.5010070800781,110.9530029296875 133.35899353027344,188.98199462890625 C66.60800170898438,231.2790069580078 -21.93000030517578,236.38600158691406 -114.28700256347656,192.25100708007812 C-162.81100463867188,169.06300354003906 -212.52999877929688,123.45500183105469 -230.34500122070312,53.30699920654297 C-256.5,-49.67399978637695 -216.4510040283203,-134.51499938964844 -159.23899841308594,-183.2830047607422 C-124.13500213623047,-213.2050018310547 -68.17500305175781,-236.38699340820312 -3.4049999713897705,-236.38699340820312z"></path></g><g opacity="1" transform="matrix(1,0,0,1,256.1679992675781,252.53199768066406)"><path fill="url(#__lottie_element_13)" fill-opacity="1" d=" M3.8580000400543213,-210.0850067138672 C60.46099853515625,-210.0850067138672 130.85400390625,-195.78199768066406 182.57699584960938,-125.08499908447266 C236.60400390625,-51.237998962402344 228.11000061035156,102.3010025024414 117.83300018310547,173.49400329589844 C58.05500030517578,212.0850067138672 -13.168000221252441,213.46800231933594 -98.10600280761719,176.08700561523438 C-142.3419952392578,156.61900329589844 -199.26100158691406,98.87899780273438 -211.18299865722656,34.005001068115234 C-226.16799926757812,-47.53300094604492 -195.21200561523438,-115.74400329589844 -149.156005859375,-154.50799560546875 C-105.16799926757812,-191.53199768066406 -54.145999908447266,-210.0850067138672 3.8580000400543213,-210.0850067138672z"></path></g><g opacity="1" transform="matrix(1,0,0,1,260.61700439453125,262.4779968261719)"><path stroke-linecap="butt" stroke-linejoin="miter" fill-opacity="0" stroke-miterlimit="10" stroke="rgb(182,94,49)" stroke-opacity="1" stroke-width="14" d=" M-3.4049999713897705,-236.38699340820312 C59.80099868774414,-236.38699340820312 137.17300415039062,-218.50399780273438 194.92999267578125,-141.01699829101562 C255.25900268554688,-60.07899856567383 256.5010070800781,110.9530029296875 133.35899353027344,188.98199462890625 C66.60800170898438,231.2790069580078 -21.93000030517578,236.38600158691406 -114.28700256347656,192.25100708007812 C-162.81100463867188,169.06300354003906 -212.52999877929688,123.45500183105469 -230.34500122070312,53.30699920654297 C-256.5,-49.67399978637695 -216.4510040283203,-134.51499938964844 -159.23899841308594,-183.2830047607422 C-124.13500213623047,-213.2050018310547 -68.17500305175781,-236.38699340820312 -3.4049999713897705,-236.38699340820312z"></path></g></g><g style="display: block;" transform="matrix(1,0,0,1,0,3)" opacity="1"><g opacity="1" transform="matrix(1,0,0,1,297.5320129394531,407.19500732421875)"><path stroke-linecap="round" stroke-linejoin="round" fill-opacity="0" stroke="rgb(224,148,96)" stroke-opacity="1" stroke-width="12" d=" M-77.80400085449219,14.831000328063965 C-77.80400085449219,14.831000328063965 -45.00899887084961,36.76499938964844 -6.584000110626221,38.066001892089844 C26.15999984741211,39.24599838256836 49.1510009765625,28.118000030517578 58.733001708984375,9.298999786376953 C69.58899688720703,-11.729000091552734 66.24500274658203,-27.757999420166016 66.24500274658203,-27.757999420166016"></path></g><g opacity="1" transform="matrix(1,0,0,1,285.9809875488281,373.2130126953125)"><path stroke-linecap="round" stroke-linejoin="round" fill-opacity="0" stroke="rgb(218,133,94)" stroke-opacity="0.47000000000000003" stroke-width="10.904" d=" M-71.21399688720703,-10.657999992370605 C-71.21399688720703,-10.657999992370605 -48.79600143432617,21.40999984741211 5.193999767303467,18.219999313354492 C48.21699905395508,15.677000045776367 66.84700012207031,-16.357999801635742 71.21499633789062,-21.40999984741211"></path></g><g opacity="0.7000000000000001" transform="matrix(1.0853300094604492,0,0,0.9953799843788147,218.2729949951172,434.031005859375)"><path stroke-linecap="round" stroke-linejoin="round" fill-opacity="0" stroke="rgb(224,149,97)" stroke-opacity="1" stroke-width="10" d=" M-35.14500045776367,-23.70199966430664 C-35.14500045776367,-23.70199966430664 -18.798999786376953,-4.086999893188477 -0.27300000190734863,7.355999946594238 C18.25200080871582,18.79800033569336 35.14500045776367,23.70199966430664 35.14500045776367,23.70199966430664"></path></g><g opacity="1" transform="matrix(1,0,0,1,285.02301025390625,368.0509948730469)"><path stroke-linecap="round" stroke-linejoin="round" fill-opacity="0" stroke="rgb(182,94,49)" stroke-opacity="1" stroke-width="11" d=" M-70.44000244140625,-8.597999572753906 C-70.44000244140625,-8.597999572753906 -31.21299934387207,16.92300033569336 15.38599967956543,11.227999687194824 C60.332000732421875,5.736999988555908 70.44000244140625,-16.92300033569336 70.44000244140625,-16.92300033569336"></path></g></g><g style="display: block;" transform="matrix(1.0306600332260132,0,0,1.0685099363327026,-5.0282440185546875,-8.1671142578125)" opacity="1"><g opacity="1" transform="matrix(1.1299999952316284,0,0,1.1299999952316284,-37.41632080078125,-24.193649291992188)"><g opacity="1" transform="matrix(1,0,0,1,364.5459899902344,168.81900024414062)"><path fill="rgb(218,133,94)" fill-opacity="1" d=" M63.63600158691406,8.767000198364258 C63.63600158691406,8.767000198364258 48.31399917602539,-18.892000198364258 8.538000106811523,-21.642000198364258 C-24.569000244140625,-23.930999755859375 -40.62300109863281,-14.939000129699707 -48.915000915527344,-7.763000011444092 C-52.387001037597656,-4.757999897003174 -57.83700180053711,-0.31200000643730164 -53.9370002746582,12.109999656677246 C-51.26300048828125,20.628000259399414 -34.90299987792969,17.530000686645508 -15.795000076293945,18.648000717163086 C3.312000036239624,19.766000747680664 51.025001525878906,11.031000137329102 54.678001403808594,10.472000122070312 C58.33100128173828,9.913000106811523 63.63600158691406,8.767000198364258 63.63600158691406,8.767000198364258z"></path></g><g opacity="1" transform="matrix(1,0,0,1,410.5419921875,165.39999389648438)"><path stroke-linecap="round" stroke-linejoin="round" fill-opacity="0" stroke="rgb(218,133,94)" stroke-opacity="1" stroke-width="9" d=" M12.038999557495117,20.433000564575195 C12.038999557495117,20.433000564575195 12.480999946594238,12.420999526977539 5.591000080108643,0.45399999618530273 C-1.3109999895095825,-11.532999992370605 -12.480999946594238,-20.433000564575195 -12.480999946594238,-20.433000564575195"></path></g><g opacity="1" transform="matrix(1,0,0,1,427.35101318359375,206.1750030517578)"><path stroke-linecap="round" stroke-linejoin="round" fill-opacity="0" stroke="rgb(218,133,94)" stroke-opacity="1" stroke-width="9" d=" M3.131999969482422,17.798999786376953 C3.131999969482422,17.798999786376953 5.949999809265137,9.102999687194824 2.4040000438690186,-2.180000066757202 C-1.5920000076293945,-14.892999649047852 -5.951000213623047,-17.798999786376953 -5.951000213623047,-17.798999786376953"></path></g><g opacity="0.65" transform="matrix(1,0,0,1,349.02301025390625,216.3459930419922)"><path stroke-linecap="round" stroke-linejoin="round" fill-opacity="0" stroke="rgb(218,133,93)" stroke-opacity="1" stroke-width="9" d=" M-23.964000701904297,-13.013999938964844 C-23.964000701904297,-13.013999938964844 -18.426000595092773,-6.65500020980835 -7.5289998054504395,-0.6610000133514404 C3.36899995803833,5.331999778747559 12.541999816894531,6.664999961853027 12.541999816894531,6.664999961853027"></path></g><g opacity="1" transform="matrix(1,0,0,1,320.9620056152344,176.2969970703125)"><path stroke-linecap="round" stroke-linejoin="round" fill-opacity="0" stroke="rgb(218,133,93)" stroke-opacity="1" stroke-width="9" d=" M14.711999893188477,-18.79800033569336 C14.711999893188477,-18.79800033569336 -0.5450000166893005,-15.800999641418457 -7.629000186920166,-4.359000205993652 C-14.711999893188477,7.083000183105469 -12.258999824523926,18.79800033569336 -12.258999824523926,18.79800033569336"></path></g><g opacity="1" transform="matrix(1,0,0,1,356.29400634765625,196.18499755859375)"><path stroke-linecap="round" stroke-linejoin="round" fill-opacity="0" stroke="rgb(218,133,94)" stroke-opacity="1" stroke-width="8" d=" M-41.861000061035156,-10.218000411987305 C-41.861000061035156,-10.218000411987305 -33.106998443603516,-2.691999912261963 -11.9399995803833,3.5799999237060547 C10.819000244140625,10.324000358581543 19.882999420166016,8.529000282287598 19.882999420166016,8.529000282287598"></path></g><g opacity="1" transform="matrix(1,0,0,1,370.5450134277344,175.6699981689453)"><path fill="rgb(255,255,255)" fill-opacity="1" d=" M46.75600051879883,-1.8550000190734863 C46.75600051879883,-1.8550000190734863 29.636999130249023,-17.030000686645508 -6.059999942779541,-17.801000595092773 C-28.5049991607666,-18.285999298095703 -42.57400131225586,-12.20199966430664 -47.935001373291016,-8.11299991607666 C-51.487998962402344,-5.4029998779296875 -60.70899963378906,0.29100000858306885 -50.83300018310547,3.61899995803833 C-35.297000885009766,8.854999542236328 -1.437999963760376,10.005999565124512 14.39799976348877,9.020000457763672 C30.233999252319336,8.034000396728516 41.8390007019043,9.791000366210938 48.4119987487793,5.860000133514404 C51.487998962402344,4.020999908447266 46.75600051879883,-1.8550000190734863 46.75600051879883,-1.8550000190734863z"></path><path stroke-linecap="round" stroke-linejoin="round" fill-opacity="0" stroke="rgb(19,26,44)" stroke-opacity="1" stroke-width="9" d=" M46.75600051879883,-1.8550000190734863 C46.75600051879883,-1.8550000190734863 29.636999130249023,-17.030000686645508 -6.059999942779541,-17.801000595092773 C-28.5049991607666,-18.285999298095703 -42.57400131225586,-12.20199966430664 -47.935001373291016,-8.11299991607666 C-51.487998962402344,-5.4029998779296875 -60.70899963378906,0.29100000858306885 -50.83300018310547,3.61899995803833 C-35.297000885009766,8.854999542236328 -1.437999963760376,10.005999565124512 14.39799976348877,9.020000457763672 C30.233999252319336,8.034000396728516 41.8390007019043,9.791000366210938 48.4119987487793,5.860000133514404 C51.487998962402344,4.020999908447266 46.75600051879883,-1.8550000190734863 46.75600051879883,-1.8550000190734863z"></path></g><g opacity="1" transform="matrix(1.132699966430664,0,0,1.3343299627304077,-40.262176513671875,-63.25154113769531)"><g opacity="1" transform="matrix(1,0,0,1,359.56298828125,175.79800415039062)"><path fill="rgb(19,26,44)" fill-opacity="1" d=" M-22.312000274658203,-8.854999542236328 C-22.312000274658203,-8.854999542236328 -24.458999633789062,-3.677999973297119 -23.027999877929688,1.4989999532699585 C-21.59600067138672,6.675000190734863 -20.402999877929688,7.764999866485596 -20.402999877929688,7.764999866485596 C-20.402999877929688,7.764999866485596 19.924999237060547,12.940999984741211 19.924999237060547,12.940999984741211 C19.924999237060547,12.940999984741211 23.98200035095215,8.3100004196167 24.219999313354492,0.9539999961853027 C24.458999633789062,-6.4019999504089355 22.16699981689453,-5.920000076293945 22.16699981689453,-5.920000076293945 C22.16699981689453,-5.920000076293945 4.36899995803833,-9.541999816894531 4.36899995803833,-9.541999816894531 C4.36899995803833,-9.541999816894531 -7.422999858856201,-9.814000129699707 -7.422999858856201,-9.814000129699707 C-7.422999858856201,-9.814000129699707 -22.312000274658203,-8.854999542236328 -22.312000274658203,-8.854999542236328z"></path></g><g opacity="1" transform="matrix(1,0,0,1,382.4460144042969,174.7830047607422)"><path fill="rgb(255,255,255)" fill-opacity="1" d=" M-9.348999977111816,0 C-9.348999977111816,2.0899999141693115 -5.164000034332275,3.7850000858306885 0,3.7850000858306885 C5.163000106811523,3.7850000858306885 9.348999977111816,2.0899999141693115 9.348999977111816,0 C9.348999977111816,-2.0910000801086426 5.163000106811523,-3.7850000858306885 0,-3.7850000858306885 C-5.164000034332275,-3.7850000858306885 -9.348999977111816,-2.0910000801086426 -9.348999977111816,0z"></path></g><g opacity="1" transform="matrix(1,0,0,1,349.635986328125,176.34300231933594)"><path fill="rgb(45,53,70)" fill-opacity="1" d=" M11.510000228881836,0 C11.510000228881836,3.6110000610351562 6.355999946594238,6.539000034332275 -0.0010000000474974513,6.539000034332275 C-6.357999801635742,6.539000034332275 -11.51099967956543,3.6110000610351562 -11.51099967956543,0 C-11.51099967956543,-3.6110000610351562 -6.357999801635742,-6.539000034332275 -0.0010000000474974513,-6.539000034332275 C6.355999946594238,-6.539000034332275 11.510000228881836,-3.6110000610351562 11.510000228881836,0z"></path></g></g></g></g><g style="display: block;" transform="matrix(1.0306600332260132,0,0,1.0685099363327026,-5.0282440185546875,-8.1671142578125)" opacity="1"><g opacity="1" transform="matrix(1.059999942779541,0,0,1.0915900468826294,-10.044036865234375,-15.408462524414062)"><g opacity="1" transform="matrix(1,0,0,1,156.14199829101562,155.1820068359375)"><path fill="rgb(218,133,94)" fill-opacity="1" d=" M-44.11600112915039,8.755999565124512 C-35.946998596191406,9.425000190734863 -26.593000411987305,10.21399974822998 -10.24899959564209,11.461000442504883 C6.914999961853027,12.769000053405762 11.781000137329102,14.102999687194824 27.513999938964844,17.406999588012695 C47.845001220703125,21.677000045776367 63.125999450683594,13.378999710083008 63.125999450683594,13.378999710083008 C63.125999450683594,13.378999710083008 67.06900024414062,4.810999870300293 54.02899932861328,-6.401000022888184 C40.64699935913086,-17.905000686645508 25.719999313354492,-21.677000045776367 4.625999927520752,-21.11199951171875 C-15.715999603271484,-20.566999435424805 -32.31399917602539,-15.381999969482422 -44.41299819946289,-9.670000076293945 C-54.597999572753906,-4.861000061035156 -65.26799774169922,8.576000213623047 -66.93399810791016,10.67199993133545 C-67.06900024414062,10.840999603271484 -64.2969970703125,5.947000026702881 -64.10600280761719,5.986000061035156 C-62.178001403808594,6.376999855041504 -54.077999114990234,7.940000057220459 -44.11600112915039,8.755999565124512z"></path></g><g opacity="1" transform="matrix(1,0,0,1,196.0489959716797,156.90899658203125)"><path stroke-linecap="round" stroke-linejoin="round" fill-opacity="0" stroke="rgb(218,133,94)" stroke-opacity="1" stroke-width="9" d=" M-38.54999923706055,-11.125 C-38.54999923706055,-11.125 -3.677999973297119,-13.395999908447266 18.117000579833984,-2.680000066757202 C33.284000396728516,4.7779998779296875 38.54999923706055,13.395999908447266 38.54999923706055,13.395999908447266"></path></g><g opacity="0.62" transform="matrix(1,0,0,1,204.76699829101562,190.05599975585938)"><path stroke-linecap="round" stroke-linejoin="round" fill-opacity="0" stroke="rgb(218,133,94)" stroke-opacity="1" stroke-width="8" d=" M-7.492000102996826,9.39900016784668 C-7.492000102996826,9.39900016784668 1.3730000257492065,5.698999881744385 4.46999979019165,1.8860000371932983 C18.55500030517578,-15.458999633789062 12.229999542236328,-29.96299934387207 12.229999542236328,-29.96299934387207"></path></g><g opacity="0.46" transform="matrix(1,0,0,1,108.052001953125,190.8730010986328)"><path stroke-linecap="round" stroke-linejoin="round" fill-opacity="0" stroke="rgb(218,133,94)" stroke-opacity="1" stroke-width="9" d=" M-17.299999237060547,-11.579000473022461 C-17.299999237060547,-11.579000473022461 -12.12399959564209,-3.950000047683716 -0.6809999942779541,2.5889999866485596 C10.76099967956543,9.128000259399414 17.299999237060547,11.579000473022461 17.299999237060547,11.579000473022461"></path></g><g opacity="1" transform="matrix(1,0,0,1,169.66799926757812,183.4720001220703)"><path stroke-linecap="round" stroke-linejoin="round" fill-opacity="0" stroke="rgb(218,133,94)" stroke-opacity="1" stroke-width="6" d=" M-25.19700050354004,4.627999782562256 C-25.19700050354004,4.627999782562256 -27.691999435424805,4.311999797821045 -0.4480000138282776,5.947000026702881 C16.422000885009766,6.959000110626221 17.617000579833984,6.35699987411499 25.2450008392334,4.540999889373779 C28.993000030517578,3.6480000019073486 35.053001403808594,-6.35699987411499 35.053001403808594,-6.35699987411499"></path></g><g opacity="1" transform="matrix(1,0,0,1,156.03700256347656,162.156005859375)"><path fill="rgb(255,255,255)" fill-opacity="1" d=" M-32.347999572753906,6.784999847412109 C-24.177000045776367,7.368000030517578 -24.05299949645996,9.428000450134277 -7.705999851226807,10.517999649047852 C9.460000038146973,11.661999702453613 12.097000122070312,13.482999801635742 28.086000442504883,13.668000221252441 C52.10900115966797,13.946000099182129 61.47700119018555,14.03600025177002 61.729000091552734,9.654999732971191 C61.965999603271484,5.535999774932861 55.051998138427734,-0.6850000023841858 48.25699996948242,-4.373000144958496 C30.277999877929688,-14.130999565124512 18.545000076293945,-17.52199935913086 -2.5230000019073486,-18.61199951171875 C-26.1200008392334,-19.832000732421875 -35.02299880981445,-15.0600004196167 -44.56700134277344,-11.418999671936035 C-54.777000427246094,-7.52400016784668 -56.683998107910156,-4.758999824523926 -58.34400177001953,-3.009999990463257 C-58.47800064086914,-2.86899995803833 -58.861000061035156,-1.3070000410079956 -58.69599914550781,-1.2050000429153442 C-54.61800003051758,1.312000036239624 -42.3120002746582,6.072999954223633 -32.347999572753906,6.784999847412109z"></path><path stroke-linecap="round" stroke-linejoin="miter" fill-opacity="0" stroke-miterlimit="10" stroke="rgb(19,26,44)" stroke-opacity="1" stroke-width="10" d=" M-32.347999572753906,6.784999847412109 C-24.177000045776367,7.368000030517578 -24.05299949645996,9.428000450134277 -7.705999851226807,10.517999649047852 C9.460000038146973,11.661999702453613 12.097000122070312,13.482999801635742 28.086000442504883,13.668000221252441 C52.10900115966797,13.946000099182129 61.47700119018555,14.03600025177002 61.729000091552734,9.654999732971191 C61.965999603271484,5.535999774932861 55.051998138427734,-0.6850000023841858 48.25699996948242,-4.373000144958496 C30.277999877929688,-14.130999565124512 18.545000076293945,-17.52199935913086 -2.5230000019073486,-18.61199951171875 C-26.1200008392334,-19.832000732421875 -35.02299880981445,-15.0600004196167 -44.56700134277344,-11.418999671936035 C-54.777000427246094,-7.52400016784668 -56.683998107910156,-4.758999824523926 -58.34400177001953,-3.009999990463257 C-58.47800064086914,-2.86899995803833 -58.861000061035156,-1.3070000410079956 -58.69599914550781,-1.2050000429153442 C-54.61800003051758,1.312000036239624 -42.3120002746582,6.072999954223633 -32.347999572753906,6.784999847412109z"></path></g><g opacity="1" transform="matrix(1.1627700328826904,0,0,1,-19.234939575195312,0)"><g opacity="1" transform="matrix(1,0,0,1,150.17999267578125,158.60699462890625)"><path fill="rgb(19,26,44)" fill-opacity="1" d=" M-20.40999984741211,10.385000228881836 C-20.40999984741211,10.385000228881836 -28.650999069213867,-5.593999862670898 -14.508000373840332,-13.286999702453613 C-7.830999851226807,-16.920000076293945 16.233999252319336,-13.300999641418457 22.04800033569336,-7.827000141143799 C27.863000869750977,-2.3550000190734863 28.650999069213867,6.361000061035156 28.11199951171875,9.5600004196167 C27.267000198364258,14.574000358581543 23.31399917602539,16.60099983215332 23.31399917602539,16.60099983215332 C23.31399917602539,16.60099983215332 14.934000015258789,16.920000076293945 14.934000015258789,16.920000076293945 C14.934000015258789,16.920000076293945 2.9600000381469727,14.692999839782715 2.9600000381469727,14.692999839782715 C2.9600000381469727,14.692999839782715 -7.744999885559082,14.795999526977539 -7.744999885559082,14.795999526977539 C-7.744999885559082,14.795999526977539 -20.40999984741211,10.385000228881836 -20.40999984741211,10.385000228881836z"></path></g><g opacity="1" transform="matrix(1,0,0,1,177.072998046875,158.93600463867188)"><path fill="rgb(255,255,255)" fill-opacity="1" d=" M-12.744999885559082,-1.871999979019165 C-13.130000114440918,0.18199999630451202 -5.163000106811523,3.7850000858306885 0.0010000000474974513,3.7850000858306885 C5.164000034332275,3.7850000858306885 9.350000381469727,2.0899999141693115 9.350000381469727,0 C9.350000381469727,-2.0899999141693115 4.192999839782715,-7.060999870300293 -0.9700000286102295,-7.060999870300293 C-6.133999824523926,-7.060999870300293 -12.102999687194824,-5.295000076293945 -12.744999885559082,-1.871999979019165z"></path></g><g opacity="1" transform="matrix(1,0,0,1,144.26300048828125,160.49600219726562)"><path fill="rgb(45,53,70)" fill-opacity="1" d=" M11.510000228881836,-0.0010000000474974513 C11.510000228881836,3.609999895095825 6.35699987411499,6.538000106811523 -0.0010000000474974513,6.538000106811523 C-6.357999801635742,6.538000106811523 -11.51099967956543,3.609999895095825 -11.51099967956543,-0.0010000000474974513 C-11.51099967956543,-3.611999988555908 -6.357999801635742,-6.538000106811523 -0.0010000000474974513,-6.538000106811523 C6.35699987411499,-6.538000106811523 11.510000228881836,-3.611999988555908 11.510000228881836,-0.0010000000474974513z"></path></g></g><g opacity="1" transform="matrix(1,0,0,1,156.03700256347656,162.156005859375)"><path stroke-linecap="round" stroke-linejoin="miter" fill-opacity="0" stroke-miterlimit="10" stroke="rgb(19,26,44)" stroke-opacity="1" stroke-width="7" d="M0 0"></path></g></g></g><g style="display: block;" transform="matrix(1,0,0,1,0,3)" opacity="1"><g opacity="1" transform="matrix(1,0,0,1,-1,2)"><g opacity="1" transform="matrix(1,0,0,1,285.09100341796875,279.3699951171875)"><path fill="rgb(228,159,123)" fill-opacity="1" d=" M-134.3070068359375,-35.64500045776367 C-134.3070068359375,-35.64500045776367 -88.9229965209961,3.950000047683716 9.902999877929688,1.7699999809265137 C108.7300033569336,-0.4099999964237213 123.78199768066406,-29.106000900268555 123.78199768066406,-29.106000900268555 C123.78199768066406,-29.106000900268555 67.5270004272461,-7.310999870300293 -7.353000164031982,-12.760000228881836 C-82.23300170898438,-18.20800018310547 -134.3070068359375,-35.64500045776367 -134.3070068359375,-35.64500045776367z"></path></g><g opacity="1" transform="matrix(0.9325404763221741,0.11818759143352509,-0.11818759143352509,0.9325404763221741,392.6600036621094,296.9840087890625)"><path stroke-linecap="round" stroke-linejoin="round" fill-opacity="0" stroke="rgb(182,94,49)" stroke-opacity="0.46" stroke-width="11" d=" M1.2259999513626099,-25.881999969482422 C1.2259999513626099,-25.881999969482422 7.492000102996826,-13.350000381469727 4.2230000495910645,0.8169999718666077 C0.9539999961853027,14.982999801635742 -7.492000102996826,25.881999969482422 -7.492000102996826,25.881999969482422"></path></g><g opacity="1" transform="matrix(1,0,0,1,153.83399963378906,270.8340148925781)"><path stroke-linecap="round" stroke-linejoin="round" fill-opacity="0" stroke="rgb(182,94,49)" stroke-opacity="0.48" stroke-width="8" d=" M0.6679999828338623,-17.981000900268555 C0.6679999828338623,-17.981000900268555 -0.9670000076293945,-10.62600040435791 -1.2389999628067017,-1.090000033378601 C-1.4850000143051147,7.521999835968018 1.4850000143051147,17.981000900268555 1.4850000143051147,17.981000900268555"></path></g><g opacity="1" transform="matrix(1,0,0,1,279.59698486328125,267.18701171875)"><path stroke-linecap="round" stroke-linejoin="round" fill-opacity="0" stroke="rgb(95,37,22)" stroke-opacity="1" stroke-width="13" d=" M128.90899658203125,-6.901000022888184 C128.90899658203125,-6.901000022888184 122.62100219726562,-2.75 117.21099853515625,-0.12399999797344208 C111.8010025024414,2.502000093460083 70.91899871826172,17.33099937438965 -0.9359999895095825,13.479000091552734 C-89.12200164794922,8.753000259399414 -128.9080047607422,-17.33099937438965 -128.9080047607422,-17.33099937438965"></path></g><g opacity="1" transform="matrix(1,0,0,1,184.10699462890625,231.9739990234375)"><path stroke-linecap="round" stroke-linejoin="round" fill-opacity="0" stroke="rgb(182,94,49)" stroke-opacity="1" stroke-width="10" d=" M-29.562999725341797,5.125 C-29.562999725341797,5.125 -18.60700035095215,8.526000022888184 -1.5950000286102295,5.171000003814697 C12.064000129699707,2.4769999980926514 15.062999725341797,-3.3589999675750732 15.062999725341797,-3.3589999675750732"></path></g><g opacity="1" transform="matrix(1,0,0,1,403.1189880371094,265.9200134277344)"><path stroke-linecap="round" stroke-linejoin="round" fill-opacity="0" stroke="rgb(182,94,49)" stroke-opacity="1" stroke-width="10" d=" M-13.869999885559082,-26.408000946044922 C-13.869999885559082,-26.408000946044922 0.27399998903274536,-23.04400062561035 7.784999847412109,-5.557000160217285 C13.869999885559082,8.612000465393066 7.570000171661377,26.408000946044922 7.570000171661377,26.408000946044922"></path></g><g opacity="1" transform="matrix(1,0,0,1,146.46499633789062,258.0010070800781)"><path stroke-linecap="round" stroke-linejoin="round" fill-opacity="0" stroke="rgb(182,94,49)" stroke-opacity="1" stroke-width="10.513" d=" M-15.119999885559082,22.094999313354492 C-15.119999885559082,22.094999313354492 -1.5549999475479126,12.987000465393066 -0.4090000092983246,-1.3339999914169312 C0.7360000014305115,-15.654999732971191 3.236999988555908,-19.804000854492188 6.673999786376953,-20.950000762939453 C10.111000061035156,-22.094999313354492 15.119999885559082,-20.132999420166016 15.119999885559082,-20.132999420166016"></path></g><g opacity="1" transform="matrix(1,0,0,1,-3,-17)"><path fill="rgb(20,26,45)" fill-opacity="1" d=" M172.2830047607422,277.9859924316406 C172.2830047607422,277.9859924316406 190.781005859375,318.40301513671875 223.10499572753906,330.52301025390625 C249.71400451660156,340.5350036621094 289.00201416015625,340.8760070800781 314.1080017089844,334.2909851074219 C380.0690002441406,317.9599914550781 394.197998046875,287.7409973144531 394.197998046875,287.7409973144531 C394.197998046875,287.7409973144531 361.8699951171875,304.0010070800781 283.802001953125,300.21600341796875 C239.75599670410156,298.197998046875 172.2830047607422,277.9859924316406 172.2830047607422,277.9859924316406z"></path><path stroke-linecap="round" stroke-linejoin="round" fill-opacity="0" stroke="rgb(20,26,45)" stroke-opacity="1" stroke-width="10.513" d=" M172.2830047607422,277.9859924316406 C172.2830047607422,277.9859924316406 190.781005859375,318.40301513671875 223.10499572753906,330.52301025390625 C249.71400451660156,340.5350036621094 289.00201416015625,340.8760070800781 314.1080017089844,334.2909851074219 C380.0690002441406,317.9599914550781 394.197998046875,287.7409973144531 394.197998046875,287.7409973144531 C394.197998046875,287.7409973144531 361.8699951171875,304.0010070800781 283.802001953125,300.21600341796875 C239.75599670410156,298.197998046875 172.2830047607422,277.9859924316406 172.2830047607422,277.9859924316406z"></path></g><g opacity="1" transform="matrix(1,0,0,1,0,0)"><g opacity="1" transform="matrix(1,0,0,1,0,0)"><path fill="rgb(252,252,255)" fill-opacity="1" d=" M250.98199462890625,274.3210144042969 C250.98199462890625,274.3210144042969 252.3820037841797,293.4599914550781 252.8489990234375,296.7279968261719 C253.3159942626953,299.9960021972656 253.31500244140625,303.031005859375 257.04998779296875,303.7309875488281 C260.7850036621094,304.4309997558594 271.05499267578125,305.5979919433594 275.2560119628906,304.89801025390625 C279.4570007324219,304.197998046875 281.32501220703125,302.7969970703125 281.7919921875,299.2959899902344 C282.2590026855469,295.7950134277344 284.5920104980469,277.8219909667969 284.5920104980469,277.8219909667969 C284.5920104980469,277.8219909667969 275.02301025390625,277.8219909667969 267.0870056152344,277.12200927734375 C259.1510009765625,276.4219970703125 250.98199462890625,274.3210144042969 250.98199462890625,274.3210144042969z"></path></g><g opacity="1" transform="matrix(1,0,0,1,0,0)"><path fill="rgb(252,252,255)" fill-opacity="1" d=" M308.1669921875,277.3550109863281 C308.1669921875,277.3550109863281 300.697998046875,278.05499267578125 297.8970031738281,277.8219909667969 C295.09600830078125,277.5889892578125 288.3269958496094,277.8219909667969 288.3269958496094,277.8219909667969 C288.3269958496094,277.8219909667969 289.4939880371094,288.32598876953125 290.8940124511719,292.9939880371094 C292.29400634765625,297.6619873046875 290.4280090332031,302.09698486328125 294.39599609375,302.3299865722656 C298.364013671875,302.56298828125 301.864990234375,300.92999267578125 304.4320068359375,299.76300048828125 C306.9989929199219,298.59600830078125 307.2330017089844,294.1610107421875 307.9330139160156,290.4259948730469 C308.63299560546875,286.6910095214844 308.1669921875,277.3550109863281 308.1669921875,277.3550109863281z"></path></g><g opacity="1" transform="matrix(1,0,0,1,0,0)"><path fill="rgb(252,252,255)" fill-opacity="1" d=" M324.03900146484375,276.4219970703125 C324.03900146484375,276.4219970703125 319.6619873046875,277.2969970703125 317.0360107421875,277.17999267578125 C314.4100036621094,277.06298828125 310.7340087890625,276.4219970703125 310.7340087890625,276.4219970703125 C310.7340087890625,276.4219970703125 310.5010070800781,278.7560119628906 310.9679870605469,280.62298583984375 C311.43499755859375,282.489990234375 315.16900634765625,291.8269958496094 317.2699890136719,292.05999755859375 C319.3710021972656,292.2929992675781 321.7040100097656,290.1929931640625 323.3380126953125,285.75799560546875 C323.90899658203125,284.2090148925781 324.03900146484375,276.4219970703125 324.03900146484375,276.4219970703125z"></path></g><g opacity="1" transform="matrix(1,0,0,1,0,0)"><path fill="rgb(252,252,255)" fill-opacity="1" d=" M344.11199951171875,275.4880065917969 C344.11199951171875,275.4880065917969 339.4429931640625,276.1889953613281 335.125,276.4219970703125 C330.8070068359375,276.6549987792969 327.5400085449219,276.5379943847656 327.5400085449219,276.5379943847656 C327.5400085449219,276.5379943847656 328.0069885253906,284.5920104980469 327.8900146484375,285.99200439453125 C327.77301025390625,287.3919982910156 329.4070129394531,289.9599914550781 330.34100341796875,291.47698974609375 C331.2749938964844,292.9939880371094 331.7409973144531,294.1610107421875 333.9580078125,293.46099853515625 C336.17498779296875,292.760986328125 342.593994140625,289.8429870605469 343.1780090332031,288.32598876953125 C343.7619934082031,286.8089904785156 344.11199951171875,275.4880065917969 344.11199951171875,275.4880065917969z"></path></g><g opacity="1" transform="matrix(1,0,0,1,0,0)"><path fill="rgb(252,252,255)" fill-opacity="1" d=" M358.1159973144531,273.15399169921875 C358.1159973144531,273.15399169921875 354.614990234375,273.97100830078125 352.74798583984375,274.0880126953125 C350.8810119628906,274.2049865722656 348.42999267578125,274.7879943847656 348.42999267578125,274.7879943847656 C348.42999267578125,274.7879943847656 349.59600830078125,281.3240051269531 350.17999267578125,283.1910095214844 C350.7640075683594,285.0580139160156 350.6470031738281,286.1090087890625 352.74798583984375,285.99200439453125 C354.8489990234375,285.875 357.0660095214844,285.2909851074219 357.0660095214844,285.2909851074219 C357.0660095214844,285.2909851074219 358.70001220703125,284.00799560546875 358.5830078125,282.02398681640625 C358.46600341796875,280.0400085449219 358.1159973144531,273.15399169921875 358.1159973144531,273.15399169921875z"></path></g><g opacity="1" transform="matrix(1,0,0,1,0,0)"><path fill="rgb(252,252,255)" fill-opacity="1" d=" M377.2560119628906,269.3030090332031 C377.2560119628906,269.3030090332031 371.4200134277344,271.1700134277344 368.2690124511719,271.6369934082031 C365.1180114746094,272.10400390625 361.85101318359375,272.68701171875 361.85101318359375,272.68701171875 C361.85101318359375,272.68701171875 361.9679870605469,280.3900146484375 362.3179931640625,281.9070129394531 C362.6679992675781,283.42401123046875 363.95098876953125,287.3919982910156 365.1180114746094,288.4419860839844 C366.2850036621094,289.49200439453125 365.93499755859375,291.1260070800781 367.218994140625,290.89300537109375 C368.50299072265625,290.6600036621094 372.35400390625,289.9599914550781 373.1709899902344,289.0260009765625 C373.9880065917969,288.0920104980469 376.6730041503906,282.2569885253906 376.906005859375,279.45599365234375 C377.1390075683594,276.6549987792969 377.2560119628906,269.3030090332031 377.2560119628906,269.3030090332031z"></path></g><g opacity="1" transform="matrix(1,0,0,1,0,0)"><path fill="rgb(252,252,255)" fill-opacity="1" d=" M225.7729949951172,271.7539978027344 C225.7729949951172,271.7539978027344 228.10800170898438,279.45599365234375 228.80799865722656,282.7239990234375 C229.50799560546875,285.99200439453125 228.10699462890625,289.72601318359375 232.54200744628906,290.1929931640625 C236.9770050048828,290.6600036621094 244.67999267578125,289.260009765625 247.2469940185547,286.6919860839844 C249.81399536132812,284.1239929199219 247.94700622558594,274.55499267578125 247.94700622558594,274.55499267578125 C247.94700622558594,274.55499267578125 239.7779998779297,274.0870056152344 235.11000061035156,273.3869934082031 C230.44200134277344,272.68701171875 225.7729949951172,271.7539978027344 225.7729949951172,271.7539978027344z"></path></g><g opacity="1" transform="matrix(1,0,0,1,0,0)"><path fill="rgb(252,252,255)" fill-opacity="1" d=" M199.86500549316406,265.68499755859375 C199.86500549316406,265.68499755859375 200.79800415039062,274.0870056152344 201.73199462890625,278.5220031738281 C202.66600036621094,282.9570007324219 203.83299255371094,288.5589904785156 207.5679931640625,291.8269958496094 C211.30299377441406,295.0950012207031 214.33599853515625,299.06201171875 215.5030059814453,296.7279968261719 C216.6699981689453,294.3940124511719 220.1719970703125,284.8240051269531 220.8719940185547,280.156005859375 C221.57200622558594,275.4880065917969 222.73899841308594,270.3529968261719 222.73899841308594,270.3529968261719 C222.73899841308594,270.3529968261719 215.73699951171875,269.65301513671875 210.8350067138672,268.718994140625 C205.93299865722656,267.7850036621094 199.86500549316406,265.68499755859375 199.86500549316406,265.68499755859375z"></path></g><g opacity="1" transform="matrix(1,0,0,1,0,0)"><path fill="rgb(252,252,255)" fill-opacity="1" d=" M177.45799255371094,258.9159851074219 C177.45799255371094,258.9159851074219 181.19200134277344,272.4540100097656 183.29299926757812,277.8219909667969 C185.3939971923828,283.19000244140625 184.6929931640625,286.2250061035156 188.42799377441406,286.6919860839844 C192.16299438476562,287.15899658203125 196.83099365234375,288.32598876953125 197.06399536132812,285.75799560546875 C197.2969970703125,283.19000244140625 196.83099365234375,272.4540100097656 196.83099365234375,270.1199951171875 C196.83099365234375,267.7860107421875 196.5970001220703,264.7510070800781 196.5970001220703,264.7510070800781 C196.5970001220703,264.7510070800781 177.45799255371094,258.9159851074219 177.45799255371094,258.9159851074219z"></path></g><g opacity="1" transform="matrix(1,0,0,1,0,0)"><path fill="rgb(252,252,255)" fill-opacity="1" d=" M166.25399780273438,256.114990234375 C166.25399780273438,256.114990234375 169.7550048828125,265.6839904785156 170.9219970703125,269.41900634765625 C172.08900451660156,273.15399169921875 172.55599975585938,276.18798828125 174.65699768066406,274.3210144042969 C176.75799560546875,272.4540100097656 174.65699768066406,257.2820129394531 174.65699768066406,257.2820129394531 C174.65699768066406,257.2820129394531 166.25399780273438,256.114990234375 166.25399780273438,256.114990234375z"></path></g></g><g opacity="1" transform="matrix(1.1792811155319214,0.041181404143571854,-0.041181404143571854,1.1792811155319214,-32.280792236328125,-97.9420166015625)"><g opacity="1" transform="matrix(1,0,0,1,2,-2)"><path fill="rgb(252,252,255)" fill-opacity="1" d=" M311.3179931640625,328.3550109863281 C309.6839904785156,328.9389953613281 307.9330139160156,330.6889953613281 307.9330139160156,330.6889953613281 C307.9330139160156,330.6889953613281 307.9330139160156,331.85699462890625 307.9330139160156,333.7239990234375 C307.9330139160156,335.59100341796875 308.75,341.65899658203125 308.75,341.65899658203125 C308.75,341.65899658203125 313.76800537109375,339.90899658203125 316.33599853515625,338.9750061035156 C318.90399169921875,338.0409851074219 318.2030029296875,334.5409851074219 318.2030029296875,334.5409851074219 C318.2030029296875,334.5409851074219 313.5350036621094,328.5889892578125 313.5350036621094,328.5889892578125 C313.5350036621094,328.5889892578125 312.9519958496094,327.77099609375 311.3179931640625,328.3550109863281z"></path></g><g opacity="1" transform="matrix(1,0,0,1,0,0)"><path fill="rgb(252,252,255)" fill-opacity="1" d=" M294.5119934082031,329.989013671875 C293.69500732421875,331.156005859375 291.71099853515625,332.67401123046875 291.71099853515625,333.7239990234375 C291.71099853515625,334.77398681640625 291.2449951171875,343.760009765625 291.2449951171875,343.760009765625 C291.2449951171875,343.760009765625 297.0799865722656,343.64300537109375 301.39801025390625,342.2430114746094 C305.71600341796875,340.8429870605469 306.4159851074219,338.50799560546875 306.4159851074219,338.50799560546875 C306.4159851074219,338.50799560546875 300.58099365234375,332.44000244140625 298.01300048828125,330.8059997558594 C295.44500732421875,329.1719970703125 295.3290100097656,328.8219909667969 294.5119934082031,329.989013671875z"></path></g><g opacity="1" transform="matrix(1,0,0,1,0,0)"><path fill="rgb(252,252,255)" fill-opacity="1" d=" M281.32501220703125,337.57501220703125 C280.3909912109375,338.15899658203125 277.35699462890625,340.49200439453125 277.35699462890625,340.49200439453125 C277.35699462890625,340.49200439453125 277.7070007324219,347.37799072265625 277.7070007324219,347.37799072265625 C277.7070007324219,347.37799072265625 280.74200439453125,347.37799072265625 284.1260070800781,346.79400634765625 C287.510009765625,346.2099914550781 289.72698974609375,344.22698974609375 289.72698974609375,344.22698974609375 C289.72698974609375,344.22698974609375 286.3429870605469,339.32501220703125 284.7090148925781,338.1579895019531 C283.07501220703125,336.9909973144531 282.2590026855469,336.9909973144531 281.32501220703125,337.57501220703125z"></path></g><g opacity="1" transform="matrix(1,0,0,1,1,0)"><path fill="rgb(252,252,255)" fill-opacity="1" d=" M263.58599853515625,335.2409973144531 C262.6520080566406,336.75799560546875 260.3179931640625,340.4930114746094 260.0849914550781,342.010009765625 C259.85198974609375,343.5270080566406 259.85101318359375,346.79400634765625 259.85101318359375,346.79400634765625 C259.85101318359375,346.79400634765625 263.35198974609375,348.19500732421875 266.15301513671875,348.31201171875 C268.9540100097656,348.4289855957031 272.9219970703125,346.677001953125 272.9219970703125,345.62701416015625 C272.9219970703125,344.5769958496094 272.6889953613281,342.47698974609375 272.3389892578125,342.010009765625 C271.989013671875,341.5429992675781 268.25299072265625,336.99200439453125 266.8529968261719,335.7080078125 C265.4530029296875,334.42401123046875 264.5199890136719,333.7239990234375 263.58599853515625,335.2409973144531z"></path></g><g opacity="1" transform="matrix(1,0,0,1,0,0)"><path fill="rgb(252,252,255)" fill-opacity="1" d=" M248.06399536132812,332.6730041503906 C245.4969940185547,333.489990234375 242.46200561523438,336.875 242.11199951171875,339.2090148925781 C241.76199340820312,341.5429992675781 241.9949951171875,344.6940002441406 241.9949951171875,344.6940002441406 C241.9949951171875,344.6940002441406 246.0800018310547,346.21099853515625 249.93099975585938,346.6780090332031 C253.78199768066406,347.1449890136719 257.04998779296875,347.1449890136719 257.04998779296875,347.1449890136719 C257.04998779296875,347.1449890136719 257.04998779296875,345.3940124511719 257.04998779296875,344.343994140625 C257.04998779296875,343.29400634765625 256.5830078125,340.6090087890625 255.0659942626953,338.625 C253.5489959716797,336.6409912109375 250.63099670410156,331.8559875488281 248.06399536132812,332.6730041503906z"></path></g><g opacity="1" transform="matrix(1,0,0,1,-1,0)"><path fill="rgb(252,252,255)" fill-opacity="1" d=" M234.41000366210938,334.5409851074219 C232.54299926757812,333.3739929199219 231.8419952392578,334.77398681640625 231.60899353027344,335.8240051269531 C231.37600708007812,336.8739929199219 230.6750030517578,341.1929931640625 230.6750030517578,341.1929931640625 C230.6750030517578,341.1929931640625 232.3090057373047,342.9440002441406 233.9429931640625,343.5270080566406 C235.57699584960938,344.1099853515625 239.89500427246094,345.04400634765625 239.89500427246094,345.04400634765625 C239.89500427246094,345.04400634765625 239.66099548339844,343.05999755859375 239.7779998779297,342.3599853515625 C239.89500427246094,341.6600036621094 239.66099548339844,340.0249938964844 239.19400024414062,338.9750061035156 C238.7270050048828,337.92498779296875 236.27699279785156,335.7080078125 234.41000366210938,334.5409851074219z"></path></g></g><g opacity="1" transform="matrix(1,0,0,1,-3,-17)"><path stroke-linecap="round" stroke-linejoin="round" fill-opacity="0" stroke="rgb(94,36,21)" stroke-opacity="1" stroke-width="12" d=" M164.2830047607422,272.4859924316406 C164.2830047607422,272.4859924316406 188.281005859375,318.90301513671875 220.60499572753906,331.02301025390625 C247.21400451660156,341.0350036621094 289.00201416015625,340.8760070800781 314.1080017089844,334.2909851074219 C380.0690002441406,317.9599914550781 403.197998046875,280.7409973144531 403.197998046875,280.7409973144531 C403.197998046875,280.7409973144531 358.3699951171875,298.5010070800781 280.302001953125,294.71600341796875 C236.25599670410156,292.697998046875 164.2830047607422,272.4859924316406 164.2830047607422,272.4859924316406z"></path></g></g></g><g style="display: block;" transform="matrix(1,0,0,1,0,0)" opacity="1"><g opacity="1" transform="matrix(1,0,0,1,260.61700439453125,262.4779968261719)"><path stroke-linecap="butt" stroke-linejoin="miter" fill-opacity="0" stroke-miterlimit="10" stroke="rgb(182,94,49)" stroke-opacity="1" stroke-width="14" d=" M-3.4049999713897705,-236.38699340820312 C59.80099868774414,-236.38699340820312 137.17300415039062,-218.50399780273438 194.92999267578125,-141.01699829101562 C255.25900268554688,-60.07899856567383 256.5010070800781,110.9530029296875 133.35899353027344,188.98199462890625 C66.60800170898438,231.2790069580078 -21.93000030517578,236.38600158691406 -114.28700256347656,192.25100708007812 C-162.81100463867188,169.06300354003906 -212.52999877929688,123.45500183105469 -230.34500122070312,53.30699920654297 C-256.5,-49.67399978637695 -216.4510040283203,-134.51499938964844 -159.23899841308594,-183.2830047607422 C-124.13500213623047,-213.2050018310547 -68.17500305175781,-236.38699340820312 -3.4049999713897705,-236.38699340820312z"></path></g></g><g style="display: block;" transform="matrix(1.2306091785430908,0.05929498374462128,-0.047849953174591064,1.0673577785491943,-68.4088363647461,-28.162113189697266)" opacity="1"><g opacity="1" transform="matrix(1,0,0,1,340.1730041503906,99.76599884033203)"><path stroke-linecap="round" stroke-linejoin="round" fill-opacity="0" stroke="rgb(182,94,49)" stroke-opacity="0.51" stroke-width="7" d=" M-15.081999778747559,4.5920000076293945 C-8.276000022888184,1.7680000066757202 -5.139999866485596,0.1120000034570694 3.934999942779541,0.1120000034570694 C13.010000228881836,0.1120000034570694 18.19300079345703,2.822000026702881 19.229999542236328,3.546999931335449 C20.267000198364258,4.270999908447266 21.73699951171875,5.961999893188477 22.514999389648438,4.513000011444092 C23.292999267578125,3.063999891281128 14.562999725341797,-5.627999782562256 2.63700008392334,-6.593999862670898 C-13.550999641418457,-7.90500020980835 -21.14299964904785,-7.519000053405762 -22.525999069213867,-5.426000118255615 C-23.385000228881836,-4.125999927520752 -25.722999572753906,1.315999984741211 -23.1299991607666,3.4089999198913574 C-20.722000122070312,5.3520002365112305 -17.0939998626709,5.427000045776367 -15.081999778747559,4.5920000076293945z"></path></g><g opacity="1" transform="matrix(1,0,0,1,337.0610046386719,93.97100067138672)"><path fill="rgb(0,0,0)" fill-opacity="1" d=" M-12.402000427246094,3.546999931335449 C-9.085000038146973,2.2260000705718994 -7.130000114440918,-1.121000051498413 1.9450000524520874,-1.121000051498413 C11.020000457763672,-1.121000051498413 18.19300079345703,2.822999954223633 19.229999542236328,3.546999931335449 C20.267000198364258,4.271999835968018 21.73699951171875,5.961999893188477 22.514999389648438,4.513000011444092 C23.29199981689453,3.063999891281128 15.168000221252441,-6.044000148773193 3.3589999675750732,-7.978000164031982 C-11.694000244140625,-10.442999839782715 -19.275999069213867,-4.486999988555908 -20.659000396728516,-2.3940000534057617 C-21.51799964904785,-1.093999981880188 -23.9689998626709,1.4420000314712524 -21.375999450683594,3.5350000858306885 C-18.968000411987305,5.478000164031982 -16.14299964904785,5.0370001792907715 -12.402000427246094,3.546999931335449z"></path><path stroke-linecap="round" stroke-linejoin="round" fill-opacity="0" stroke="rgb(19,26,44)" stroke-opacity="1" stroke-width="7.347" d=" M-12.402000427246094,3.546999931335449 C-9.085000038146973,2.2260000705718994 -7.130000114440918,-1.121000051498413 1.9450000524520874,-1.121000051498413 C11.020000457763672,-1.121000051498413 18.19300079345703,2.822999954223633 19.229999542236328,3.546999931335449 C20.267000198364258,4.271999835968018 21.73699951171875,5.961999893188477 22.514999389648438,4.513000011444092 C23.29199981689453,3.063999891281128 15.168000221252441,-6.044000148773193 3.3589999675750732,-7.978000164031982 C-11.694000244140625,-10.442999839782715 -19.275999069213867,-4.486999988555908 -20.659000396728516,-2.3940000534057617 C-21.51799964904785,-1.093999981880188 -23.9689998626709,1.4420000314712524 -21.375999450683594,3.5350000858306885 C-18.968000411987305,5.478000164031982 -16.14299964904785,5.0370001792907715 -12.402000427246094,3.546999931335449z"></path></g></g><g style="display: block;" transform="matrix(1.0306600332260132,0,0,1.0685099363327026,-5.0282440185546875,-8.1671142578125)" opacity="1"><g opacity="1" transform="matrix(1,0,0,1,196.5,95.1729965209961)"><path stroke-linecap="round" stroke-linejoin="round" fill-opacity="0" stroke="rgb(182,94,49)" stroke-opacity="0.47000000000000003" stroke-width="6" d=" M-25.183000564575195,1.4199999570846558 C-25.183000564575195,1.4199999570846558 -16.29599952697754,-6.188000202178955 -1.3830000162124634,-8.182000160217285 C13.529999732971191,-10.175000190734863 23.54199981689453,-5.466000080108643 25.558000564575195,-3.9690001010894775 C27.575000762939453,-2.4719998836517334 31.10099983215332,-0.4790000021457672 28.56599998474121,0.656000018119812 C26.02899932861328,1.7910000085830688 15.204999923706055,-3.7850000858306885 4.196000099182129,-3.303999900817871 C-4.933000087738037,-2.9040000438690186 -13.760000228881836,-1.1770000457763672 -20.655000686645508,2.9049999713897705 C-24.749000549316406,5.328999996185303 -29.69099998474121,10.175000190734863 -30.290000915527344,8.447999954223633 C-31.100000381469727,6.118000030517578 -25.183000564575195,1.4199999570846558 -25.183000564575195,1.4199999570846558z"></path></g><g opacity="1" transform="matrix(1,0,0,1,197.66099548339844,87.66300201416016)"><path fill="rgb(255,255,255)" fill-opacity="1" d=" M-25.18400001525879,1.4199999570846558 C-25.18400001525879,1.4199999570846558 -16.297000885009766,-6.188000202178955 -1.3839999437332153,-8.182000160217285 C13.529999732971191,-10.175000190734863 23.541000366210938,-5.466000080108643 25.558000564575195,-3.9690001010894775 C27.573999404907227,-2.4719998836517334 31.10099983215332,-0.4790000021457672 28.565000534057617,0.656000018119812 C26.02899932861328,1.7910000085830688 15.204999923706055,-3.7850000858306885 4.196000099182129,-3.303999900817871 C-4.934000015258789,-2.9040000438690186 -13.76099967956543,-1.1770000457763672 -20.655000686645508,2.9049999713897705 C-24.749000549316406,5.328999996185303 -29.691999435424805,10.175000190734863 -30.291000366210938,8.447999954223633 C-31.10099983215332,6.118000030517578 -25.18400001525879,1.4199999570846558 -25.18400001525879,1.4199999570846558z"></path><path stroke-linecap="round" stroke-linejoin="round" fill-opacity="0" stroke="rgb(19,26,44)" stroke-opacity="1" stroke-width="8" d=" M-25.18400001525879,1.4199999570846558 C-25.18400001525879,1.4199999570846558 -16.297000885009766,-6.188000202178955 -1.3839999437332153,-8.182000160217285 C13.529999732971191,-10.175000190734863 23.541000366210938,-5.466000080108643 25.558000564575195,-3.9690001010894775 C27.573999404907227,-2.4719998836517334 31.10099983215332,-0.4790000021457672 28.565000534057617,0.656000018119812 C26.02899932861328,1.7910000085830688 15.204999923706055,-3.7850000858306885 4.196000099182129,-3.303999900817871 C-4.934000015258789,-2.9040000438690186 -13.76099967956543,-1.1770000457763672 -20.655000686645508,2.9049999713897705 C-24.749000549316406,5.328999996185303 -29.691999435424805,10.175000190734863 -30.291000366210938,8.447999954223633 C-31.10099983215332,6.118000030517578 -25.18400001525879,1.4199999570846558 -25.18400001525879,1.4199999570846558z"></path></g></g></g></g></svg>