<svg xmlns="http://www.w3.org/2000/svg" xmlns:xlink="http://www.w3.org/1999/xlink" viewBox="0 0 512 512" width="512" height="512" style="width: 100%; height: 100%; transform: translate3d(0,0,0); content-visibility: visible;" preserveAspectRatio="xMidYMid meet"><defs><clipPath id="__lottie_element_2"><rect width="512" height="512" x="0" y="0"></rect></clipPath><clipPath id="__lottie_element_4"><path d="M0,0 L512,0 L512,512 L0,512z"></path></clipPath><radialGradient id="__lottie_element_18" spreadMethod="pad" gradientUnits="userSpaceOnUse" cx="-112.0270004272461" cy="-226.70799255371094" r="413.90610942457266" fx="-136.76382277273547" fy="-158.88034902314774"><stop offset="21%" stop-color="rgb(252,236,219)"></stop><stop offset="61%" stop-color="rgb(248,211,184)"></stop><stop offset="100%" stop-color="rgb(243,187,149)"></stop></radialGradient></defs><g clip-path="url(#__lottie_element_2)"><g clip-path="url(#__lottie_element_4)" style="display: block;" transform="matrix(1.0078099966049194,0,0,1.0078099966049194,-4.999359130859375,-1.999359130859375)" opacity="1"><g style="display: block;" transform="matrix(1,0,0,1,-25.444000244140625,11.057998657226562)" opacity="1"><g opacity="1" transform="matrix(1,0,0,1,207.5030059814453,225.5659942626953)"><path fill="rgb(241,164,111)" fill-opacity="1" d=" M-9.824000358581543,194.24200439453125 C-75.83499908447266,185.6199951171875 -124.5469970703125,151.5 -146.88900756835938,89.46800231933594 C-147.30499267578125,88.31500244140625 -147.71499633789062,87.14800262451172 -148.11700439453125,85.96900177001953 C-180.30599975585938,-8.35200023651123 -137.98300170898438,-99.33200073242188 -101.0250015258789,-138.24000549316406 C-64.06800079345703,-177.14700317382812 -16.381000518798828,-198.36900329589844 34.88199996948242,-192.4739990234375 C75.302001953125,-187.8260040283203 102.83499908447266,-166.53599548339844 132.63999938964844,-94.61599731445312 C162.44400024414062,-22.695999145507812 180.30599975585938,-5.175000190734863 170.99600219726562,83.26799774169922 C162.12600708007812,167.53399658203125 107.86699676513672,185.83799743652344 81.37699890136719,191.88400268554688 C58.130001068115234,197.19000244140625 21.768999099731445,198.36900329589844 -9.824000358581543,194.24200439453125z"></path><path stroke-linecap="butt" stroke-linejoin="miter" fill-opacity="0" stroke-miterlimit="10" stroke="rgb(181,95,48)" stroke-opacity="1" stroke-width="10.879" d=" M-9.824000358581543,194.24200439453125 C-75.83499908447266,185.6199951171875 -124.5469970703125,151.5 -146.88900756835938,89.46800231933594 C-147.30499267578125,88.31500244140625 -147.71499633789062,87.14800262451172 -148.11700439453125,85.96900177001953 C-180.30599975585938,-8.35200023651123 -137.98300170898438,-99.33200073242188 -101.0250015258789,-138.24000549316406 C-64.06800079345703,-177.14700317382812 -16.381000518798828,-198.36900329589844 34.88199996948242,-192.4739990234375 C75.302001953125,-187.8260040283203 102.83499908447266,-166.53599548339844 132.63999938964844,-94.61599731445312 C162.44400024414062,-22.695999145507812 180.30599975585938,-5.175000190734863 170.99600219726562,83.26799774169922 C162.12600708007812,167.53399658203125 107.86699676513672,185.83799743652344 81.37699890136719,191.88400268554688 C58.130001068115234,197.19000244140625 21.768999099731445,198.36900329589844 -9.824000358581543,194.24200439453125z"></path></g><g opacity="1" transform="matrix(1,0,0,1,212.76800537109375,212.9320068359375)"><path fill="url(#__lottie_element_18)" fill-opacity="1" d=" M-12.82699966430664,174.54400634765625 C-72.5719985961914,166.79600524902344 -116.66100311279297,136.13600158691406 -136.8820037841797,80.3949966430664 C-137.25799560546875,79.35900115966797 -137.6280059814453,78.30999755859375 -137.99200439453125,77.2509994506836 C-167.12600708007812,-7.505000114440918 -128.8209991455078,-89.25900268554688 -95.37100219726562,-124.22100067138672 C-61.922000885009766,-159.18299865722656 -18.761999130249023,-178.2519989013672 27.63599967956543,-172.9550018310547 C64.21800231933594,-168.7779998779297 89.13899993896484,-149.64700317382812 116.11399841308594,-85.02100372314453 C143.08900451660156,-20.393999099731445 167.1269989013672,4.389999866485596 155.2570037841797,79.61100006103516 C143.38800048828125,154.83200073242188 93.69200134277344,166.9929962158203 69.71600341796875,172.4250030517578 C48.67599868774414,177.1929931640625 15.767000198364258,178.2519989013672 -12.82699966430664,174.54400634765625z"></path></g></g><g style="display: block;" transform="matrix(1,0,0,1,39.743995666503906,84.26699829101562)" opacity="1"><g opacity="1" transform="matrix(1,0,0,1,89.375,160.38400268554688)"><path stroke-linecap="round" stroke-linejoin="round" fill-opacity="0" stroke="rgb(229,160,112)" stroke-opacity="1" stroke-width="9.611" d=" M25.89299964904785,-27.93000030517578 C25.89299964904785,-27.93000030517578 21.238000869750977,-4.072999954223633 6.691999912261963,11.055999755859375 C-7.855000019073486,26.18400001525879 -25.89299964904785,27.93000030517578 -25.89299964904785,27.93000030517578"></path></g><g opacity="1" transform="matrix(1,0,0,1,41.95399856567383,93.17900085449219)"><path fill="rgb(181,96,39)" fill-opacity="0.38" d=" M-18.6200008392334,44.512001037597656 C-11.508000373840332,39.5880012512207 5.818999767303467,21.819000244140625 18.6200008392334,-4.946000099182129 C28.841999053955078,-26.31999969482422 31.42099952697754,-43.930999755859375 26.18400001525879,-46.257999420166016 C20.947999954223633,-48.58599853515625 19.20199966430664,-49.749000549316406 17.45599937438965,-39.2760009765625 C15.711000442504883,-28.802000045776367 4.072999954223633,-8.437000274658203 -2.9100000858306885,-2.61899995803833 C-9.892000198364258,3.200000047683716 -27.347999572753906,7.855000019073486 -25.601999282836914,12.510000228881836 C-23.85700035095215,17.165000915527344 -9.892000198364258,13.67300033569336 -9.892000198364258,13.67300033569336 C-9.892000198364258,13.67300033569336 -31.42099952697754,34.03900146484375 -30.839000701904297,39.275001525878906 C-30.256999969482422,44.512001037597656 -26.18400001525879,49.749000549316406 -18.6200008392334,44.512001037597656z"></path></g><g opacity="1" transform="matrix(1,0,0,1,209.48500061035156,25.87700080871582)"><path fill="rgb(181,96,39)" fill-opacity="0.38" d=" M-52.39899826049805,-11.565999984741211 C-56.66299819946289,-11.262999534606934 -58.47999954223633,-5.784999847412109 -55.340999603271484,-2.802999973297119 C-49.439998626708984,2.8010001182556152 -26.78499984741211,12.520000457763672 5.28000020980835,14.255000114440918 C37.540000915527344,16.000999450683594 43.185001373291016,10.494999885559082 48.85900115966797,8.435999870300293 C58.47999954223633,4.945000171661377 54.518001556396484,-4.946000099182129 48.292999267578125,-3.7829999923706055 C42.06700134277344,-2.61899995803833 35.840999603271484,-1.4539999961853027 26.219999313354492,-1.4539999961853027 C16.599000930786133,-1.4539999961853027 1.3179999589920044,-3.2009999752044678 -9.435999870300293,-8.437999725341797 C-20.18899917602539,-13.673999786376953 -24.715999603271484,-16.000999450683594 -27.54599952697754,-12.510000228881836 C-30.375999450683594,-9.017999649047852 -12.265999794006348,2.0360000133514404 -12.265999794006348,2.0360000133514404 C-12.265999794006348,2.0360000133514404 -38.45399856567383,-5.559000015258789 -43.959999084472656,-9.017999649047852 C-47.33100128173828,-11.13599967956543 -50.143001556396484,-11.72599983215332 -52.39899826049805,-11.565999984741211z"></path></g><g opacity="1" transform="matrix(1,0,0,1,222.00399780273438,86.88600158691406)"><path fill="rgb(234,164,117)" fill-opacity="1" d=" M-25.224000930786133,36.44499969482422 C-25.761999130249023,36.12900161743164 -26.298999786376953,35.82899856567383 -26.851999282836914,35.53900146484375 C-30.599000930786133,33.57600021362305 -47.20000076293945,24.03499984741211 -51.95000076293945,6.918000221252441 C-57.316001892089844,-12.416999816894531 -36.82899856567383,-28.851999282836914 -27.072999954223633,-38.0359992980957 C-17.316999435424805,-47.220001220703125 -4.145999908447266,-53.020999908447266 9.02400016784668,-47.70399856567383 C22.19499969482422,-42.387001037597656 46.58399963378906,-13.383999824523926 51.95000076293945,7.4019999504089355 C57.316001892089844,28.187000274658203 56.34000015258789,47.52199935913086 29.02400016784668,50.42300033569336 C4.552999973297119,53.020999908447266 -20.309999465942383,39.32600021362305 -25.224000930786133,36.44499969482422z"></path></g><g opacity="1" transform="matrix(1,0,0,1,80.10600280761719,126.16100311279297)"><path fill="rgb(234,164,117)" fill-opacity="1" d=" M-33.762001037597656,-31.253000259399414 C-27.867000579833984,-43.084999084472656 -17.14900016784668,-52.34299850463867 2.680000066757202,-49.25699996948242 C31.31399917602539,-44.79899978637695 47.15999984741211,-34.3390007019043 50.375999450683594,-18.906999588012695 C53.590999603271484,-3.4739999771118164 36.97800064086914,17.617000579833984 16.61400032043457,35.106998443603516 C-3.4549999237060547,52.34299850463867 -29.187000274658203,49.6619987487793 -41.26499938964844,32.02000045776367 C-53.590999603271484,14.015999794006348 -41.71699905395508,-15.286999702453613 -33.762001037597656,-31.253000259399414z"></path></g><g opacity="1" transform="matrix(1,0,0,1,34.388999938964844,141.1820068359375)"><path fill="rgb(242,175,129)" fill-opacity="1" d=" M-11.63700008392334,24.243999481201172 C-11.63700008392334,24.243999481201172 -0.7760000228881836,15.710000038146973 5.431000232696533,0.9700000286102295 C11.63700008392334,-13.770999908447266 11.63700008392334,-24.243999481201172 11.63700008392334,-24.243999481201172"></path><path stroke-linecap="round" stroke-linejoin="round" fill-opacity="0" stroke="rgb(181,95,48)" stroke-opacity="1" stroke-width="9.101" d=" M-11.63700008392334,24.243999481201172 C-11.63700008392334,24.243999481201172 -0.7760000228881836,15.710000038146973 5.431000232696533,0.9700000286102295 C11.63700008392334,-13.770999908447266 11.63700008392334,-24.243999481201172 11.63700008392334,-24.243999481201172"></path></g><g opacity="1" transform="matrix(1,0,0,1,83.3489990234375,117.82499694824219)"><path fill="rgb(200,194,228)" fill-opacity="1" d=" M-29.95599937438965,-28.886999130249023 C-24.72599983215332,-39.823001861572266 -15.21500015258789,-48.38199996948242 2.378000020980835,-45.52899932861328 C27.784000396728516,-41.409000396728516 41.84199905395508,-31.739999771118164 44.69499969482422,-17.475000381469727 C47.54800033569336,-3.2109999656677246 32.80799865722656,16.284000396728516 14.739999771118164,32.45100021362305 C-3.065999984741211,48.38199996948242 -25.89699935913086,45.90399932861328 -36.612998962402344,29.597999572753906 C-47.54899978637695,12.956000328063965 -37.013999938964844,-14.130000114440918 -29.95599937438965,-28.886999130249023z"></path><path stroke-linecap="butt" stroke-linejoin="miter" fill-opacity="0" stroke-miterlimit="10" stroke="rgb(135,61,41)" stroke-opacity="1" stroke-width="9.611" d=" M-29.95599937438965,-28.886999130249023 C-24.72599983215332,-39.823001861572266 -15.21500015258789,-48.38199996948242 2.378000020980835,-45.52899932861328 C27.784000396728516,-41.409000396728516 41.84199905395508,-31.739999771118164 44.69499969482422,-17.475000381469727 C47.54800033569336,-3.2109999656677246 32.80799865722656,16.284000396728516 14.739999771118164,32.45100021362305 C-3.065999984741211,48.38199996948242 -25.89699935913086,45.90399932861328 -36.612998962402344,29.597999572753906 C-47.54899978637695,12.956000328063965 -37.013999938964844,-14.130000114440918 -29.95599937438965,-28.886999130249023z"></path></g><g opacity="1" transform="matrix(1,0,0,1,84.46099853515625,111.91799926757812)"><path fill="rgb(255,255,255)" fill-opacity="1" d=" M-22.582000732421875,-21.777000427246094 C-18.638999938964844,-30.020999908447266 -11.470000267028809,-36.472999572753906 1.7929999828338623,-34.323001861572266 C20.94499969482422,-31.216999053955078 31.54400062561035,-23.92799949645996 33.69499969482422,-13.173999786376953 C35.845001220703125,-2.4210000038146973 24.732999801635742,12.276000022888184 11.112000465393066,24.46299934387207 C-2.311000108718872,36.472999572753906 -19.52199935913086,34.60499954223633 -27.600000381469727,22.312000274658203 C-35.845001220703125,9.767000198364258 -27.902999877929688,-10.652000427246094 -22.582000732421875,-21.777000427246094z"></path></g><g opacity="1" transform="matrix(1,0,0,1,223.28900146484375,76.18199920654297)"><path fill="rgb(201,194,229)" fill-opacity="1" d=" M-24.586999893188477,35.849998474121094 C-25.11199951171875,35.540000915527344 -25.635000228881836,35.24399948120117 -26.173999786376953,34.95899963378906 C-29.826000213623047,33.02799987792969 -46.00899887084961,23.64299964904785 -50.638999938964844,6.806000232696533 C-55.86899948120117,-12.21399974822998 -35.89899826049805,-28.3799991607666 -26.388999938964844,-37.415000915527344 C-16.878999710083008,-46.44900131225586 -4.041999816894531,-52.154998779296875 8.795999526977539,-46.92399978637695 C21.634000778198242,-41.694000244140625 45.40800094604492,-13.164999961853027 50.638999938964844,7.281000137329102 C55.86899948120117,27.726999282836914 54.91899871826172,46.74599838256836 28.29199981689453,49.5989990234375 C4.438000202178955,52.154998779296875 -19.797000885009766,38.683998107910156 -24.586999893188477,35.849998474121094z"></path><path stroke-linecap="butt" stroke-linejoin="miter" fill-opacity="0" stroke-miterlimit="10" stroke="rgb(135,61,41)" stroke-opacity="1" stroke-width="9.611" d=" M-24.586999893188477,35.849998474121094 C-25.11199951171875,35.540000915527344 -25.635000228881836,35.24399948120117 -26.173999786376953,34.95899963378906 C-29.826000213623047,33.02799987792969 -46.00899887084961,23.64299964904785 -50.638999938964844,6.806000232696533 C-55.86899948120117,-12.21399974822998 -35.89899826049805,-28.3799991607666 -26.388999938964844,-37.415000915527344 C-16.878999710083008,-46.44900131225586 -4.041999816894531,-52.154998779296875 8.795999526977539,-46.92399978637695 C21.634000778198242,-41.694000244140625 45.40800094604492,-13.164999961853027 50.638999938964844,7.281000137329102 C55.86899948120117,27.726999282836914 54.91899871826172,46.74599838256836 28.29199981689453,49.5989990234375 C4.438000202178955,52.154998779296875 -19.797000885009766,38.683998107910156 -24.586999893188477,35.849998474121094z"></path></g><g opacity="1" transform="matrix(1,0,0,1,220.2740020751953,74.15399932861328)"><path fill="rgb(255,255,255)" fill-opacity="1" d=" M-19.535999298095703,28.485000610351562 C-19.952999114990234,28.238000869750977 -20.3700008392334,28.0049991607666 -20.79800033569336,27.777999877929688 C-23.700000762939453,26.243999481201172 -36.55799865722656,18.78700065612793 -40.23699951171875,5.4079999923706055 C-44.393001556396484,-9.704000473022461 -28.524999618530273,-22.549999237060547 -20.9689998626709,-29.729000091552734 C-13.413000106811523,-36.90700149536133 -3.2119998931884766,-41.441001892089844 6.988999843597412,-37.28499984741211 C17.190000534057617,-33.12900161743164 36.08000183105469,-10.460000038146973 40.236000061035156,5.785999774932861 C44.391998291015625,22.031999588012695 43.63600158691406,37.14400100708008 22.479000091552734,39.4109992980957 C3.5260000228881836,41.441001892089844 -15.729999542236328,30.73699951171875 -19.535999298095703,28.485000610351562z"></path></g><g opacity="1" transform="matrix(1,0,0,1,13.319000244140625,3.9850006103515625)"><g opacity="1" transform="matrix(1,0,0,1,68.0260009765625,121.41500091552734)"><path fill="rgb(26,9,45)" fill-opacity="1" d=" M-5.559000015258789,-12.11400032043457 C-9.467000007629395,-8.720999717712402 -18.048999786376953,2.2060000896453857 -4.916999816894531,9.725000381469727 C6.428999900817871,16.222000122070312 18.049999237060547,1.1859999895095825 10.512999534606934,-10.272000312805176 C7.7230000495910645,-14.512999534606934 -0.824999988079071,-16.222999572753906 -5.559000015258789,-12.11400032043457z"></path></g><g opacity="1" transform="matrix(1,0,0,1,69.5510025024414,124.25599670410156)"><path fill="rgb(94,62,155)" fill-opacity="1" d=" M1.059999942779541,-3.438999891281128 C-0.7799999713897705,-1.8420000076293945 -11.152999877929688,1.2769999504089355 -4.758999824523926,4.415999889373779 C3.242000102996826,8.343999862670898 11.154000282287598,-0.9539999961853027 7.605999946594238,-6.3480000495910645 C6.293000221252441,-8.345000267028809 3.2880001068115234,-5.373000144958496 1.059999942779541,-3.438999891281128z"></path></g><g opacity="1" transform="matrix(1,0,0,1,57.24700164794922,130.3179931640625)"><path fill="rgb(255,255,255)" fill-opacity="1" d=" M-5.072999954223633,-4.458000183105469 C-6.749000072479248,-2.427000045776367 -9.928000450134277,3.634000062942505 -1.565999984741211,5.521999835968018 C5.6579999923706055,7.1539998054504395 9.928000450134277,-1.1629999876022339 4.0980000495910645,-5.535999774932861 C1.940000057220459,-7.1539998054504395 -3.0429999828338623,-6.918000221252441 -5.072999954223633,-4.458000183105469z"></path></g><g opacity="1" transform="matrix(1,0,0,1,77.32099914550781,111.19100189208984)"><path fill="rgb(255,255,255)" fill-opacity="1" d=" M-2.4070000648498535,-2.2929999828338623 C-3.2019999027252197,-1.2480000257492065 -4.710000038146973,1.8700000047683716 -0.7440000176429749,2.8410000801086426 C2.683000087738037,3.680000066757202 4.709000110626221,-0.5989999771118164 1.9429999589920044,-2.8480000495910645 C0.9200000166893005,-3.680999994277954 -1.444000005722046,-3.558000087738037 -2.4070000648498535,-2.2929999828338623z"></path></g></g><g opacity="1" transform="matrix(0.8324573636054993,0.5540891289710999,-0.5540891289710999,0.8324573636054993,72.9361572265625,-102.33721160888672)"><g opacity="1" transform="matrix(1,0,0,1,236.7030029296875,66.38300323486328)"><path fill="rgb(26,9,45)" fill-opacity="1" d=" M-9.491999626159668,-8.340999603271484 C-12.628000259399414,-4.540999889373779 -18.577999114990234,6.802000045776367 -2.931999921798706,10.335000038146973 C10.586999893188477,13.387999534606934 18.57699966430664,-2.177000045776367 7.668000221252441,-10.359000205993652 C3.630000114440918,-13.38700008392334 -5.692999839782715,-12.944000244140625 -9.491999626159668,-8.340999603271484z"></path></g><g opacity="1" transform="matrix(1,0,0,1,238.29100036621094,68.97899627685547)"><path fill="rgb(94,62,155)" fill-opacity="1" d=" M1.059999942779541,-3.438999891281128 C-0.7799999713897705,-1.8420000076293945 -11.152999877929688,1.2769999504089355 -4.758999824523926,4.415999889373779 C3.242000102996826,8.343999862670898 11.152999877929688,-0.9539999961853027 7.605000019073486,-6.3480000495910645 C6.291999816894531,-8.345000267028809 3.2880001068115234,-5.373000144958496 1.059999942779541,-3.438999891281128z"></path></g><g opacity="1" transform="matrix(1,0,0,1,225.28199768066406,76.12200164794922)"><path fill="rgb(255,255,255)" fill-opacity="1" d=" M-4.8460001945495605,-4.258999824523926 C-6.447000026702881,-2.319000005722046 -9.486000061035156,3.4719998836517334 -1.496999979019165,5.276000022888184 C5.406000137329102,6.835000038146973 9.486000061035156,-1.1109999418258667 3.9159998893737793,-5.289000034332275 C1.8539999723434448,-6.835000038146973 -2.9059998989105225,-6.609000205993652 -4.8460001945495605,-4.258999824523926z"></path></g><g opacity="1" transform="matrix(1,0,0,1,245.1510009765625,59.797000885009766)"><path fill="rgb(255,255,255)" fill-opacity="1" d=" M-2.2990000247955322,-2.190999984741211 C-3.059000015258789,-1.1929999589920044 -4.499000072479248,1.7869999408721924 -0.7099999785423279,2.7149999141693115 C2.563999891281128,3.5169999599456787 4.499000072479248,-0.5720000267028809 1.8569999933242798,-2.7209999561309814 C0.8790000081062317,-3.5169999599456787 -1.378999948501587,-3.4000000953674316 -2.2990000247955322,-2.190999984741211z"></path></g></g></g><g style="display: block;" transform="matrix(1,0,0,1,34.498985290527344,66.53299713134766)" opacity="1"><g opacity="1" transform="matrix(1,0,0,1,50.108001708984375,98.11199951171875)"><path fill="rgb(68,36,25)" fill-opacity="1" d=" M-18.6200008392334,44.512001037597656 C-11.508000373840332,39.5880012512207 5.818999767303467,21.819000244140625 18.6200008392334,-4.946000099182129 C28.841999053955078,-26.31999969482422 31.42099952697754,-43.930999755859375 26.18400001525879,-46.257999420166016 C20.947999954223633,-48.58599853515625 19.20199966430664,-49.749000549316406 17.45599937438965,-39.2760009765625 C15.711000442504883,-28.802000045776367 4.072999954223633,-8.437000274658203 -2.9100000858306885,-2.61899995803833 C-9.892000198364258,3.200000047683716 -27.347999572753906,7.855000019073486 -25.601999282836914,12.510000228881836 C-23.85700035095215,17.165000915527344 -9.892000198364258,13.67300033569336 -9.892000198364258,13.67300033569336 C-9.892000198364258,13.67300033569336 -31.42099952697754,34.03799819946289 -30.839000701904297,39.275001525878906 C-30.256999969482422,44.512001037597656 -26.18400001525879,49.749000549316406 -18.6200008392334,44.512001037597656z"></path><path stroke-linecap="round" stroke-linejoin="round" fill-opacity="0" stroke="rgb(63,30,17)" stroke-opacity="1" stroke-width="7.475" d=" M-18.6200008392334,44.512001037597656 C-11.508000373840332,39.5880012512207 5.818999767303467,21.819000244140625 18.6200008392334,-4.946000099182129 C28.841999053955078,-26.31999969482422 31.42099952697754,-43.930999755859375 26.18400001525879,-46.257999420166016 C20.947999954223633,-48.58599853515625 19.20199966430664,-49.749000549316406 17.45599937438965,-39.2760009765625 C15.711000442504883,-28.802000045776367 4.072999954223633,-8.437000274658203 -2.9100000858306885,-2.61899995803833 C-9.892000198364258,3.200000047683716 -27.347999572753906,7.855000019073486 -25.601999282836914,12.510000228881836 C-23.85700035095215,17.165000915527344 -9.892000198364258,13.67300033569336 -9.892000198364258,13.67300033569336 C-9.892000198364258,13.67300033569336 -31.42099952697754,34.03799819946289 -30.839000701904297,39.275001525878906 C-30.256999969482422,44.512001037597656 -26.18400001525879,49.749000549316406 -18.6200008392334,44.512001037597656z"></path></g><g opacity="1" transform="matrix(1,0,0,1,221.5659942626953,34.68899917602539)"><path fill="rgb(68,36,25)" fill-opacity="1" d=" M-53.87099838256836,-11.565999984741211 C-58.255001068115234,-11.262999534606934 -60.12300109863281,-5.784999847412109 -56.89500045776367,-2.802999973297119 C-50.82899856567383,2.8010001182556152 -27.53700065612793,12.520000457763672 5.427999973297119,14.255000114440918 C38.59400177001953,16.000999450683594 44.39899826049805,10.494999885559082 50.23099899291992,8.435999870300293 C60.12300109863281,4.945000171661377 56.04999923706055,-4.946000099182129 49.650001525878906,-3.7829999923706055 C43.249000549316406,-2.61899995803833 36.8489990234375,-1.4539999961853027 26.957000732421875,-1.4539999961853027 C17.065000534057617,-1.4539999961853027 1.3550000190734863,-3.2009999752044678 -9.699999809265137,-8.437999725341797 C-20.756000518798828,-13.673999786376953 -25.40999984741211,-16.000999450683594 -28.31999969482422,-12.510000228881836 C-31.229000091552734,-9.017999649047852 -12.609999656677246,2.0360000133514404 -12.609999656677246,2.0360000133514404 C-12.609999656677246,2.0360000133514404 -39.53300094604492,-5.559000015258789 -45.194000244140625,-9.017999649047852 C-48.65999984741211,-11.13599967956543 -51.551998138427734,-11.72599983215332 -53.87099838256836,-11.565999984741211z"></path><path stroke-linecap="round" stroke-linejoin="round" fill-opacity="0" stroke="rgb(63,30,17)" stroke-opacity="1" stroke-width="7.475" d=" M-53.87099838256836,-11.565999984741211 C-58.255001068115234,-11.262999534606934 -60.12300109863281,-5.784999847412109 -56.89500045776367,-2.802999973297119 C-50.82899856567383,2.8010001182556152 -27.53700065612793,12.520000457763672 5.427999973297119,14.255000114440918 C38.59400177001953,16.000999450683594 44.39899826049805,10.494999885559082 50.23099899291992,8.435999870300293 C60.12300109863281,4.945000171661377 56.04999923706055,-4.946000099182129 49.650001525878906,-3.7829999923706055 C43.249000549316406,-2.61899995803833 36.8489990234375,-1.4539999961853027 26.957000732421875,-1.4539999961853027 C17.065000534057617,-1.4539999961853027 1.3550000190734863,-3.2009999752044678 -9.699999809265137,-8.437999725341797 C-20.756000518798828,-13.673999786376953 -25.40999984741211,-16.000999450683594 -28.31999969482422,-12.510000228881836 C-31.229000091552734,-9.017999649047852 -12.609999656677246,2.0360000133514404 -12.609999656677246,2.0360000133514404 C-12.609999656677246,2.0360000133514404 -39.53300094604492,-5.559000015258789 -45.194000244140625,-9.017999649047852 C-48.65999984741211,-11.13599967956543 -51.551998138427734,-11.72599983215332 -53.87099838256836,-11.565999984741211z"></path></g></g><g style="display: block;" transform="matrix(1,0,0,1,96.09400177001953,161.48500061035156)" opacity="1"><g opacity="1" transform="matrix(0.872450053691864,0,-0.1191687360405922,0.613070011138916,27.819488525390625,39.39643859863281)"><g opacity="1" transform="matrix(1,0,0,1,122.97899627685547,100.94200134277344)"><path fill="rgb(112,6,6)" fill-opacity="1" d=" M-79.34700012207031,56.4010009765625 C-79.34700012207031,56.4010009765625 -65.46199798583984,45.23899841308594 -61.82899856567383,5.2789998054504395 C-58.19599914550781,-34.680999755859375 -49.0099983215332,-63.382999420166016 -11.319999694824219,-61.56700134277344 C26.3700008392334,-59.75 34.45800018310547,-49.43199920654297 50.63199996948242,-47.007999420166016 C61.5369987487793,-45.37300109863281 67.34700012207031,-44.89500045776367 75.9749984741211,-33.0880012512207 C84.60299682617188,-21.281999588012695 96.28099822998047,-10.432999610900879 96.28099822998047,-10.432999610900879 C96.28099822998047,-10.432999610900879 86.83599853515625,-9.831000328063965 38.70199966430664,-8.013999938964844 C-9.432000160217285,-6.197999954223633 -26.124000549316406,16.66900062561035 -42.92599868774414,32.108001708984375 C-59.72700119018555,47.547000885009766 -79.34700012207031,56.4010009765625 -79.34700012207031,56.4010009765625z"></path><path stroke-linecap="round" stroke-linejoin="round" fill-opacity="0" stroke="rgb(58,7,7)" stroke-opacity="1" stroke-width="8.543" d=" M-79.34700012207031,56.4010009765625 C-79.34700012207031,56.4010009765625 -65.46199798583984,45.23899841308594 -61.82899856567383,5.2789998054504395 C-58.19599914550781,-34.680999755859375 -49.0099983215332,-63.382999420166016 -11.319999694824219,-61.56700134277344 C26.3700008392334,-59.75 34.45800018310547,-49.43199920654297 50.63199996948242,-47.007999420166016 C61.5369987487793,-45.37300109863281 67.34700012207031,-44.89500045776367 75.9749984741211,-33.0880012512207 C84.60299682617188,-21.281999588012695 96.28099822998047,-10.432999610900879 96.28099822998047,-10.432999610900879 C96.28099822998047,-10.432999610900879 86.83599853515625,-9.831000328063965 38.70199966430664,-8.013999938964844 C-9.432000160217285,-6.197999954223633 -26.124000549316406,16.66900062561035 -42.92599868774414,32.108001708984375 C-59.72700119018555,47.547000885009766 -79.34700012207031,56.4010009765625 -79.34700012207031,56.4010009765625z"></path></g><g opacity="1" transform="matrix(1,0,0,1,115.69300079345703,85.0989990234375)"><path fill="rgb(43,9,22)" fill-opacity="1" d=" M-27.812000274658203,36.65700149536133 C-27.812000274658203,36.65700149536133 -40.87099838256836,28.12299919128418 -43.39799880981445,10.666999816894531 C-45.92599868774414,-6.789000034332275 -42.93199920654297,-21.52899932861328 -28.610000610351562,-22.30500030517578 C-14.286999702453613,-23.08099937438965 -12.73900032043457,-17.649999618530273 -12.317000389099121,-11.831000328063965 C-11.895999908447266,-6.013000011444092 -8.095999717712402,1.3569999933242798 -2.619999885559082,2.132999897003174 C2.8570001125335693,2.9089999198913574 8.154000282287598,-3.296999931335449 4.36299991607666,-10.668000221252441 C0.5709999799728394,-18.038000106811523 -9.23900032043457,-24.243999481201172 0.8709999918937683,-30.451000213623047 C10.980999946594238,-36.65700149536133 24.86400032043457,-36.65700149536133 35.39500045776367,-16.874000549316406 C45.92599868774414,2.9089999198913574 37.44300079345703,2.9089999198913574 35.33700180053711,6.788000106811523 C33.23099899291992,10.666999816894531 18.652000427246094,9.892000198364258 18.652000427246094,9.892000198364258 C18.652000427246094,9.892000198364258 -5.064000129699707,23.856000900268555 -5.064000129699707,23.856000900268555 C-5.064000129699707,23.856000900268555 -27.812000274658203,36.65700149536133 -27.812000274658203,36.65700149536133z"></path></g><g opacity="1" transform="matrix(1,0,0,1,126.31099700927734,112.16999816894531)"><path fill="rgb(204,25,21)" fill-opacity="1" d=" M-53.222999572753906,24.035999298095703 C-53.222999572753906,24.035999298095703 -57.82099914550781,-10.105999946594238 -36.93600082397461,-23.18600082397461 C-21.00200080871582,-33.16600036621094 -11.498000144958496,-26.466999053955078 -11.498000144958496,-26.466999053955078 C-11.498000144958496,-26.466999053955078 -10.605999946594238,-36.24800109863281 13.723999977111816,-38.67599868774414 C38.053001403808594,-41.104000091552734 61.11800003051758,-26.10099983215332 61.11800003051758,-26.10099983215332 C61.11800003051758,-26.10099983215332 40.00400161743164,-26.732999801635742 21.68400001525879,-20.281999588012695 C4.848999977111816,-14.354000091552734 -3.6619999408721924,-11.852999687194824 -18.84000015258789,-3.505000114440918 C-36.29600143432617,6.0960001945495605 -53.222999572753906,24.035999298095703 -53.222999572753906,24.035999298095703z"></path><path stroke-linecap="round" stroke-linejoin="round" fill-opacity="0" stroke="rgb(113,9,9)" stroke-opacity="1" stroke-width="9" d=" M-53.222999572753906,24.035999298095703 C-53.222999572753906,24.035999298095703 -57.82099914550781,-10.105999946594238 -36.93600082397461,-23.18600082397461 C-21.00200080871582,-33.16600036621094 -11.498000144958496,-26.466999053955078 -11.498000144958496,-26.466999053955078 C-11.498000144958496,-26.466999053955078 -10.605999946594238,-36.24800109863281 13.723999977111816,-38.67599868774414 C38.053001403808594,-41.104000091552734 61.11800003051758,-26.10099983215332 61.11800003051758,-26.10099983215332 C61.11800003051758,-26.10099983215332 40.00400161743164,-26.732999801635742 21.68400001525879,-20.281999588012695 C4.848999977111816,-14.354000091552734 -3.6619999408721924,-11.852999687194824 -18.84000015258789,-3.505000114440918 C-36.29600143432617,6.0960001945495605 -53.222999572753906,24.035999298095703 -53.222999572753906,24.035999298095703z"></path></g><g opacity="1" transform="matrix(1,0,0,1,97.46700286865234,54.7400016784668)"><path fill="rgb(255,255,255)" fill-opacity="1" d=" M-27.94700050354004,21.006000518798828 C-27.94700050354004,21.006000518798828 -6.020999908447266,45.292999267578125 -0.8410000205039978,51.61000061035156 C7.76800012588501,62.10900115966797 12.744000434875488,53.24800109863281 15.241000175476074,50.797000885009766 C21.392000198364258,44.7599983215332 32.44900131225586,31.347000122070312 34.78099822998047,29.660999298095703 C37.11199951171875,27.974000930786133 14.326000213623047,-10.241999626159668 12.59000015258789,-11.383000373840332 C10.854000091552734,-12.52400016784668 6.048999786376953,-14.6850004196167 -5.410999774932861,-7.880000114440918 C-22.341999053955078,2.1740000247955322 -27.94700050354004,21.006000518798828 -27.94700050354004,21.006000518798828z"></path><path stroke-linecap="round" stroke-linejoin="round" fill-opacity="0" stroke="rgb(86,109,162)" stroke-opacity="1" stroke-width="6.681" d=" M-27.94700050354004,21.006000518798828 C-27.94700050354004,21.006000518798828 -6.020999908447266,45.292999267578125 -0.8410000205039978,51.61000061035156 C7.76800012588501,62.10900115966797 12.744000434875488,53.24800109863281 15.241000175476074,50.797000885009766 C21.392000198364258,44.7599983215332 32.44900131225586,31.347000122070312 34.78099822998047,29.660999298095703 C37.11199951171875,27.974000930786133 14.326000213623047,-10.241999626159668 12.59000015258789,-11.383000373840332 C10.854000091552734,-12.52400016784668 6.048999786376953,-14.6850004196167 -5.410999774932861,-7.880000114440918 C-22.341999053955078,2.1740000247955322 -27.94700050354004,21.006000518798828 -27.94700050354004,21.006000518798828z"></path></g><g opacity="1" transform="matrix(1,0,0,1,69.0770034790039,80.43000030517578)"><path fill="rgb(255,255,255)" fill-opacity="1" d=" M-13.581000328063965,42.1619987487793 C-13.581000328063965,42.1619987487793 -0.9380000233650208,56.77000045776367 8.420999526977539,56.887001037597656 C11.295999526977539,56.92300033569336 19.843000411987305,50.61399841308594 22.976999282836914,42.784000396728516 C24.357999801635742,39.332000732421875 29.104999542236328,25.74799919128418 29.104999542236328,25.74799919128418 C29.104999542236328,25.74799919128418 3.365999937057495,-7.5 3.365999937057495,-7.5 C3.365999937057495,-7.5 -5.249000072479248,1.6160000562667847 -8.206999778747559,10.697999954223633 C-13.244999885559082,26.16699981689453 -13.581000328063965,42.1619987487793 -13.581000328063965,42.1619987487793z"></path><path stroke-linecap="round" stroke-linejoin="round" fill-opacity="0" stroke="rgb(86,109,162)" stroke-opacity="1" stroke-width="6.681" d=" M-13.581000328063965,42.1619987487793 C-13.581000328063965,42.1619987487793 -0.9380000233650208,56.77000045776367 8.420999526977539,56.887001037597656 C11.295999526977539,56.92300033569336 19.843000411987305,50.61399841308594 22.976999282836914,42.784000396728516 C24.357999801635742,39.332000732421875 29.104999542236328,25.74799919128418 29.104999542236328,25.74799919128418 C29.104999542236328,25.74799919128418 3.365999937057495,-7.5 3.365999937057495,-7.5 C3.365999937057495,-7.5 -5.249000072479248,1.6160000562667847 -8.206999778747559,10.697999954223633 C-13.244999885559082,26.16699981689453 -13.581000328063965,42.1619987487793 -13.581000328063965,42.1619987487793z"></path></g><g opacity="1" transform="matrix(1,0,0,1,125.8740005493164,44.198001861572266)"><path fill="rgb(255,255,255)" fill-opacity="1" d=" M-13.939000129699707,-2.3910000324249268 C-13.939000129699707,-2.3910000324249268 -1.9240000247955322,-5.0279998779296875 10.519000053405762,-1.850000023841858 C23.788999557495117,1.5399999618530273 32.893001556396484,9.22700023651123 32.893001556396484,9.22700023651123 C32.893001556396484,9.22700023651123 24.31399917602539,30.729999542236328 20.804000854492188,35.805999755859375 C17.292999267578125,40.882999420166016 9.187999725341797,36.3120002746582 9.187999725341797,36.3120002746582 C9.187999725341797,36.3120002746582 -13.939000129699707,-2.3910000324249268 -13.939000129699707,-2.3910000324249268z"></path><path stroke-linecap="round" stroke-linejoin="round" fill-opacity="0" stroke="rgb(86,109,162)" stroke-opacity="1" stroke-width="6.681" d=" M-13.939000129699707,-2.3910000324249268 C-13.939000129699707,-2.3910000324249268 -1.9240000247955322,-5.0279998779296875 10.519000053405762,-1.850000023841858 C23.788999557495117,1.5399999618530273 32.893001556396484,9.22700023651123 32.893001556396484,9.22700023651123 C32.893001556396484,9.22700023651123 24.31399917602539,30.729999542236328 20.804000854492188,35.805999755859375 C17.292999267578125,40.882999420166016 9.187999725341797,36.3120002746582 9.187999725341797,36.3120002746582 C9.187999725341797,36.3120002746582 -13.939000129699707,-2.3910000324249268 -13.939000129699707,-2.3910000324249268z"></path></g><g opacity="1" transform="matrix(1,0,0,1,166.31199645996094,57.236000061035156)"><path fill="rgb(255,255,255)" fill-opacity="1" d=" M-5.96999979019165,-5.26800012588501 C-5.96999979019165,-5.26800012588501 3.3329999446868896,19.073999404907227 8.069999694824219,22.76099967956543 C14.062000274658203,27.424999237060547 31.673999786376953,6.803999900817871 31.673999786376953,6.803999900817871 C31.673999786376953,6.803999900817871 24.27199935913086,1.434999942779541 13.954000473022461,-0.6830000281333923 C12.215999603271484,-1.0399999618530273 -5.96999979019165,-5.26800012588501 -5.96999979019165,-5.26800012588501z"></path><path stroke-linecap="round" stroke-linejoin="round" fill-opacity="0" stroke="rgb(86,109,162)" stroke-opacity="1" stroke-width="6" d=" M-5.96999979019165,-5.26800012588501 C-5.96999979019165,-5.26800012588501 3.3329999446868896,19.073999404907227 8.069999694824219,22.76099967956543 C14.062000274658203,27.424999237060547 31.673999786376953,6.803999900817871 31.673999786376953,6.803999900817871 C31.673999786376953,6.803999900817871 24.27199935913086,1.434999942779541 13.954000473022461,-0.6830000281333923 C12.215999603271484,-1.0399999618530273 -5.96999979019165,-5.26800012588501 -5.96999979019165,-5.26800012588501z"></path></g><g opacity="1" transform="matrix(1,0,0,1,122.97899627685547,100.94200134277344)"><path stroke-linecap="round" stroke-linejoin="round" fill-opacity="0" stroke="rgb(91,16,16)" stroke-opacity="1" stroke-width="10.679" d=" M-81.10299682617188,60.04899978637695 C-81.10299682617188,60.04899978637695 -72.39299774169922,47.49800109863281 -63.069000244140625,8.472000122070312 C-54.29399871826172,-28.2549991607666 -49.93899917602539,-66.35800170898438 -12.24899959564209,-64.54199981689453 C25.44099998474121,-62.724998474121094 34.763999938964844,-43.86899948120117 51.11199951171875,-43.415000915527344 C67.45899963378906,-42.96099853515625 72.86900329589844,-35.354000091552734 81.49700164794922,-23.547000885009766 C90.125,-11.741000175476074 96.28099822998047,-10.432999610900879 96.28099822998047,-10.432999610900879 C96.28099822998047,-10.432999610900879 82.16799926757812,-10.526000022888184 34.034000396728516,-8.708999633789062 C-14.100000381469727,-6.89300012588501 -36.340999603271484,25.20199966430664 -53.143001556396484,40.64099884033203 C-69.94400024414062,56.08000183105469 -81.10299682617188,60.04899978637695 -81.10299682617188,60.04899978637695z"></path></g><g opacity="1" transform="matrix(0.9073641896247864,-0.21322138607501984,0.21322138607501984,0.9073641896247864,-11.557525634765625,30.726638793945312)"><g opacity="1" transform="matrix(1,0,0,1,136.4010009765625,153.42599487304688)"><path stroke-linecap="round" stroke-linejoin="round" fill-opacity="0" stroke="rgb(242,175,129)" stroke-opacity="1" stroke-width="10.879" d=" M-28.054000854492188,7.64300012588501 C-28.054000854492188,7.64300012588501 -13.673999786376953,-2.630000114440918 2.811000108718872,-5.13700008392334 C19.29599952697754,-7.64300012588501 28.05500030517578,-7.172999858856201 28.05500030517578,-7.172999858856201"></path></g><g opacity="1" transform="matrix(1,0,0,1,137.2689971923828,146.2429962158203)"><path fill="rgb(242,175,129)" fill-opacity="1" d=" M-28.364999771118164,6.546000003814697 C-28.364999771118164,6.546000003814697 -13.527999877929688,-3.055000066757202 3.055000066757202,-4.800000190734863 C19.638999938964844,-6.546000003814697 28.364999771118164,-5.672999858856201 28.364999771118164,-5.672999858856201"></path><path stroke-linecap="round" stroke-linejoin="round" fill-opacity="0" stroke="rgb(181,95,48)" stroke-opacity="1" stroke-width="11.747" d=" M-28.364999771118164,6.546000003814697 C-28.364999771118164,6.546000003814697 -13.527999877929688,-3.055000066757202 3.055000066757202,-4.800000190734863 C19.638999938964844,-6.546000003814697 28.364999771118164,-5.672999858856201 28.364999771118164,-5.672999858856201"></path></g></g></g></g><g style="display: block;" transform="matrix(1,0,0,1,284.65399169921875,302.3280029296875)" opacity="1"><g opacity="1" transform="matrix(1,0,0,1,0,0)"><g opacity="1" transform="matrix(1,0,0,1,0,0)"><g opacity="1" transform="matrix(1,0,0,1,78.3489990234375,148.76199340820312)"><path fill="rgb(247,208,179)" fill-opacity="1" d=" M-57.952999114990234,5.11299991607666 C-57.952999114990234,5.11299991607666 -27.84000015258789,-6.818999767303467 -14.772000312805176,-14.77299976348877 C-1.7039999961853027,-22.726999282836914 2.8399999141693115,-28.409000396728516 2.8399999141693115,-28.409000396728516 C2.8399999141693115,-28.409000396728516 27.273000717163086,-30.68199920654297 41.47700119018555,-22.159000396728516 C55.68199920654297,-13.63700008392334 57.952999114990234,-7.953999996185303 57.952999114990234,-7.953999996185303 C57.952999114990234,-7.953999996185303 46.59000015258789,4.545000076293945 39.20399856567383,12.49899959564209 C31.816999435424805,20.45400047302246 13.63700008392334,28.97599983215332 13.63700008392334,28.97599983215332 C13.63700008392334,28.97599983215332 -12.49899959564209,30.680999755859375 -32.952999114990234,21.59000015258789 C-53.40800094604492,12.49899959564209 -57.952999114990234,5.11299991607666 -57.952999114990234,5.11299991607666z"></path></g><g opacity="1" transform="matrix(1,0,0,1,48.3489990234375,136.96499633789062)"><path stroke-linecap="round" stroke-linejoin="round" fill-opacity="0" stroke="rgb(181,95,48)" stroke-opacity="1" stroke-width="9.385" d=" M24.886999130249023,-12.633999824523926 C24.886999130249023,-12.633999824523926 9.243000030517578,-2.5769999027252197 -1.1440000534057617,2.246000051498413 C-11.531999588012695,7.068999767303467 -24.886999130249023,12.633999824523926 -24.886999130249023,12.633999824523926"></path></g><g opacity="1" transform="matrix(1,0,0,1,110.80999755859375,162.02200317382812)"><path stroke-linecap="round" stroke-linejoin="round" fill-opacity="0" stroke="rgb(181,95,48)" stroke-opacity="1" stroke-width="9.385" d=" M16.118000030517578,-13.543999671936035 C16.118000030517578,-13.543999671936035 12.140999794006348,-7.861999988555908 1.6890000104904175,0.1899999976158142 C-7.605000019073486,7.349999904632568 -16.118000030517578,13.545000076293945 -16.118000030517578,13.545000076293945"></path></g><g opacity="1" transform="matrix(1,0,0,1,101.21800231933594,159.72300720214844)"><path fill="rgb(242,175,129)" fill-opacity="1" d=" M-27.413999557495117,17.44700050354004 C-27.413999557495117,17.44700050354004 -13.031000137329102,5.432000160217285 -4.9710001945495605,-0.8759999871253967 C4.829999923706055,-8.545999526977539 14.062000274658203,-19.863000869750977 14.062000274658203,-19.863000869750977 C14.062000274658203,-19.863000869750977 27.413999557495117,-17.211999893188477 27.413999557495117,-17.211999893188477 C27.413999557495117,-17.211999893188477 15.055999755859375,-5.28000020980835 7.811999797821045,1.5379999876022339 C1.909000039100647,7.093999862670898 -11.406999588012695,17.719999313354492 -13.63700008392334,18.158000946044922 C-22.301000595092773,19.863000869750977 -27.413999557495117,17.44700050354004 -27.413999557495117,17.44700050354004z"></path></g></g><g opacity="1" transform="matrix(1,0,0,1,0,0)"><g opacity="1" transform="matrix(1,0,0,1,130.05299377441406,112.96700286865234)"><path fill="rgb(247,208,179)" fill-opacity="1" d=" M3.4089999198913574,-28.976999282836914 C3.4089999198913574,-28.976999282836914 -10.795000076293945,-22.159000396728516 -31.81800079345703,-28.976999282836914 C-52.84000015258789,-35.79499816894531 -50.56700134277344,-2.2730000019073486 -50.56700134277344,-2.2730000019073486 C-50.56700134277344,-2.2730000019073486 -51.45399856567383,8.63599967956543 -40.65800094604492,17.726999282836914 C-29.863000869750977,26.816999435424805 1.3869999647140503,28.295000076293945 11.61400032043457,27.726999282836914 C21.840999603271484,27.158000946044922 23.863000869750977,28.408000946044922 44.31700134277344,10.795000076293945 C54.7400016784668,1.8200000524520874 57.95399856567383,-9.375 57.95399856567383,-9.375 C57.95399856567383,-9.375 24.430999755859375,-24.43199920654297 24.430999755859375,-24.43199920654297 C24.430999755859375,-24.43199920654297 3.4089999198913574,-28.976999282836914 3.4089999198913574,-28.976999282836914z"></path></g><g opacity="1" transform="matrix(1,0,0,1,152.21200561523438,135.05499267578125)"><path stroke-linecap="round" stroke-linejoin="round" fill-opacity="0" stroke="rgb(181,95,48)" stroke-opacity="1" stroke-width="9.385" d=" M-26.13599967956543,12.854999542236328 C-26.13599967956543,12.854999542236328 -13.157999992370605,10.015999794006348 0.5680000185966492,3.3380000591278076 C12.982999801635742,-2.7019999027252197 26.13599967956543,-12.854999542236328 26.13599967956543,-12.854999542236328"></path></g><g opacity="1" transform="matrix(1,0,0,1,150.5070037841797,126.41400146484375)"><path fill="rgb(242,175,129)" fill-opacity="1" d=" M-35.22700119018555,13.446999549865723 C-35.22700119018555,13.446999549865723 -6.060999870300293,2.8399999141693115 10.605999946594238,-4.35699987411499 C27.27199935913086,-11.553999900817871 35.22700119018555,-17.61400032043457 35.22700119018555,-17.61400032043457 C35.22700119018555,-17.61400032043457 23.483999252319336,-3.2190001010894775 4.923999786376953,5.493000030517578 C-13.63599967956543,14.204999923706055 -28.030000686645508,17.61400032043457 -28.030000686645508,17.61400032043457 C-28.030000686645508,17.61400032043457 -35.22700119018555,13.446999549865723 -35.22700119018555,13.446999549865723z"></path></g></g><g opacity="1" transform="matrix(1,0,0,1,0,0)"><g opacity="1" transform="matrix(1,0,0,1,89.14399719238281,85.97899627685547)"><path fill="rgb(247,208,179)" fill-opacity="1" d=" M21.59000015258789,3.693000078201294 C21.59000015258789,3.693000078201294 15.420999526977539,-11.807999610900879 15.420999526977539,-32.262001037597656 C15.420999526977539,-40.23699951171875 12.123000144958496,-49.2599983215332 -0.37599998712539673,-49.827999114990234 C-12.87600040435791,-50.395999908447266 -19.187000274658203,-29.520999908447266 -20.323999404907227,-11.907999992370605 C-21.459999084472656,5.705999851226807 -21.68899917602539,28.92300033569336 -16.575000762939453,42.560001373291016 C-11.461999893188477,56.19599914550781 15.907999992370605,45.737998962402344 15.907999992370605,45.737998962402344 C15.907999992370605,45.737998962402344 21.02199935913086,18.46500015258789 21.02199935913086,18.46500015258789 C21.02199935913086,18.46500015258789 21.59000015258789,3.693000078201294 21.59000015258789,3.693000078201294z"></path></g><g opacity="1" transform="matrix(1,0,0,1,87.4020004272461,80.78299713134766)"><path stroke-linecap="round" stroke-linejoin="round" fill-opacity="0" stroke="rgb(181,95,48)" stroke-opacity="1" stroke-width="9.385" d=" M-9.904999732971191,45.81999969482422 C-9.904999732971191,45.81999969482422 -21.757999420166016,19.934999465942383 -17.56599998474121,-11.689000129699707 C-13.486000061035156,-42.48099899291992 -7.550000190734863,-45.81999969482422 3.9509999752044678,-45.077999114990234 C13.21399974822998,-44.47999954223633 15.529999732971191,-32.8380012512207 15.821999549865723,-23.190000534057617 C16.56399917602539,1.2949999570846558 21.757999420166016,5.005000114440918 21.757999420166016,5.005000114440918"></path></g></g><g opacity="1" transform="matrix(1,0,0,1,0,0)"><g opacity="1" transform="matrix(1,0,0,1,180.052001953125,76.74600219726562)"><path fill="rgb(247,208,179)" fill-opacity="1" d=" M9.659000396728516,-26.277999877929688 C14.71399974822998,-32.77199935913086 25.56800079345703,-44.17499923706055 32.95399856567383,-36.78900146484375 C40.34000015258789,-29.402999877929688 39.20399856567383,-7.24399995803833 22.726999282836914,15.482999801635742 C7.854000091552734,35.99800109863281 -4.828999996185303,44.17499923706055 -4.828999996185303,44.17499923706055 C-4.828999996185303,44.17499923706055 -40.34000015258789,24.288999557495117 -40.34000015258789,24.288999557495117 C-40.34000015258789,24.288999557495117 -19.781999588012695,7.206999778747559 -13.63599967956543,0.9940000176429749 C-7.063000202178955,-5.650000095367432 3.571000099182129,-18.457000732421875 9.659000396728516,-26.277999877929688z"></path></g><g opacity="1" transform="matrix(1,0,0,1,187.77699279785156,78.0999984741211)"><path stroke-linecap="round" stroke-linejoin="round" fill-opacity="0" stroke="rgb(181,95,48)" stroke-opacity="1" stroke-width="9.385" d=" M-33.72800064086914,17.333999633789062 C-33.72800064086914,17.333999633789062 -26.393999099731445,7.708000183105469 -20.24799919128418,1.4950000047683716 C-13.675999641418457,-5.14900016784668 -3.0420000553131104,-17.95599937438965 3.046999931335449,-25.777000427246094 C8.10200023651123,-32.270999908447266 18.954999923706055,-43.67499923706055 26.341999053955078,-36.28799819946289 C33.72800064086914,-28.902000427246094 29.459999084472656,-3.86899995803833 17.131999969482422,15.123000144958496 C3.4059998989105225,36.26900100708008 -9.288000106811523,43.67399978637695 -9.288000106811523,43.67399978637695"></path></g><g opacity="1" transform="matrix(1,0,0,1,187.43800354003906,97.43699645996094)"><path fill="rgb(242,175,129)" fill-opacity="1" d=" M22.91699981689453,-25.378999710083008 C22.91699981689453,-25.378999710083008 12.689000129699707,-5.966000080108643 3.2190001010894775,3.7869999408721924 C-6.25,13.541000366210938 -22.91699981689453,23.86400032043457 -22.91699981689453,23.86400032043457 C-22.91699981689453,23.86400032043457 -17.233999252319336,25.378999710083008 -17.233999252319336,25.378999710083008 C-17.233999252319336,25.378999710083008 -0.7080000042915344,16.58799934387207 11.173999786376953,-1.8949999809265137 C21.400999069213867,-17.80299949645996 22.91699981689453,-25.378999710083008 22.91699981689453,-25.378999710083008z"></path></g></g><g opacity="1" transform="matrix(1,0,0,1,0,0)"><g opacity="1" transform="matrix(1,0,0,1,176.5540008544922,66.96499633789062)"><path fill="rgb(247,208,179)" fill-opacity="1" d=" M-15.826000213623047,41.82500076293945 C-1.3229999542236328,40.2140007019043 8.043000221252441,30.093000411987305 25.656999588012695,-3.997999906539917 C40.819000244140625,-33.345001220703125 30.292999267578125,-51.792999267578125 16.54400062561035,-52.56399917602539 C6.882999897003174,-53.10599899291992 6.9070000648498535,-29.565000534057617 -5.5929999351501465,-13.656000137329102 C-18.093000411987305,2.253000020980835 -34.56999969482422,19.865999221801758 -34.56999969482422,19.865999221801758 C-34.56999969482422,19.865999221801758 -40.81999969482422,30.66200065612793 -40.81999969482422,30.66200065612793 C-40.81999969482422,30.66200065612793 -23.10300064086914,42.632999420166016 -15.826000213623047,41.82500076293945z"></path></g><g opacity="1" transform="matrix(1,0,0,1,179.6790008544922,65.81900024414062)"><path stroke-linecap="round" stroke-linejoin="round" fill-opacity="0" stroke="rgb(181,95,48)" stroke-opacity="1" stroke-width="9.385" d=" M-10.531999588012695,43.98699951171875 C-8.677000045776367,41.76100158691406 4.419000148773193,35.2400016784668 22.031999588012695,1.1490000486373901 C37.194000244140625,-28.197999954223633 30.06399917602539,-55.92300033569336 14.918000221252441,-53.417999267578125 C-1.8329999446868896,-50.64699935913086 3.7820000648498535,-28.41900062561035 -8.718000411987305,-12.510000228881836 C-21.216999053955078,3.3989999294281006 -37.694000244140625,21.011999130249023 -37.694000244140625,21.011999130249023"></path></g></g><g opacity="1" transform="matrix(1,0,0,1,0,0)"><g opacity="1" transform="matrix(1,0,0,1,156.61500549316406,66.63999938964844)"><path fill="rgb(247,208,179)" fill-opacity="1" d=" M12.64799976348877,-42.46200180053711 C4.046000003814697,-43.2140007019043 -4.734000205993652,-33.702999114990234 -6.291999816894531,-25.208999633789062 C-7.620999813079834,-17.96500015258789 -10.059000015258789,-7.4679999351501465 -14.062999725341797,0.8740000128746033 C-20.881000518798828,15.07800006866455 -33.94900131225586,21.895000457763672 -33.94900131225586,21.895000457763672 C-33.94900131225586,21.895000457763672 -30.540000915527344,36.667999267578125 -20.312999725341797,38.941001892089844 C-10.086000442504883,41.2140007019043 6.392000198364258,27.577999114990234 18.323999404907227,10.531999588012695 C30.256000518798828,-6.513000011444092 34.448001861572266,-38.5629997253418 17.402999877929688,-43.10900115966797 C14.944999694824219,-43.763999938964844 14.670000076293945,-42.28499984741211 12.64799976348877,-42.46200180053711z"></path></g><g opacity="1" transform="matrix(1,0,0,1,148.2989959716797,64.27100372314453)"><path stroke-linecap="round" stroke-linejoin="round" fill-opacity="0" stroke="rgb(181,95,48)" stroke-opacity="1" stroke-width="9.385" d=" M-37.284000396728516,23.000999450683594 C-37.284000396728516,23.000999450683594 -23.929000854492188,33.76100158691406 -10.572999954223633,14.84000015258789 C-0.17499999701976776,0.10999999940395355 2.552000045776367,-22.524999618530273 4.265999794006348,-28.93600082397461 C6.046999931335449,-35.5989990234375 14.54699993133545,-50.0989990234375 27.26799964904785,-43.130001068115234 C37.82600021362305,-37.34600067138672 34.417999267578125,-15.559000015258789 31.7189998626709,-2.9670000076293945 C29.493999481201172,7.421000003814697 21.702999114990234,21.517000198364258 16.8799991607666,28.56599998474121 C12.057000160217285,35.6150016784668 3.8959999084472656,40.808998107910156 3.8959999084472656,40.808998107910156"></path></g></g></g></g><g style="display: block;" transform="matrix(1,0,0,1,104.57099914550781,309.03900146484375)" opacity="1"><g opacity="1" transform="matrix(1,0,0,1,0,0)"><g opacity="1" transform="matrix(1,0,0,1,118.30899810791016,128.96400451660156)"><path fill="rgb(247,208,179)" fill-opacity="1" d=" M-73.72000122070312,6.236999988555908 C-73.72000122070312,6.236999988555908 -66.3479995727539,-31.756999969482422 -57.84199905395508,-32.891998291015625 C-49.33599853515625,-34.0260009765625 -44.79999923706055,-19.849000930786133 -19.2810001373291,-26.086999893188477 C-4.245999813079834,-29.761999130249023 -1.7009999752044678,-37.994998931884766 -1.7009999752044678,-37.994998931884766 C-1.7009999752044678,-37.994998931884766 20.98200035095215,-31.756999969482422 39.69499969482422,-27.788000106811523 C53.59700012207031,-24.839000701904297 73.72000122070312,-13.611000061035156 73.72000122070312,-13.611000061035156 C73.72000122070312,-13.611000061035156 60.678001403808594,6.236999988555908 34.59299850463867,22.68199920654297 C14.184000015258789,35.54899978637695 -5.670000076293945,37.99399948120117 -5.670000076293945,37.99399948120117 C-5.670000076293945,37.99399948120117 -45.933998107910156,26.084999084472656 -45.933998107910156,26.084999084472656 C-45.933998107910156,26.084999084472656 -73.72000122070312,6.236999988555908 -73.72000122070312,6.236999988555908z"></path></g><g opacity="1" transform="matrix(1,0,0,1,0,0)"><g opacity="1" transform="matrix(1,0,0,1,82.58300018310547,153.53700256347656)"><path fill="rgb(247,208,179)" fill-opacity="1" d=" M-61.055999755859375,-2.6459999084472656 C-61.055999755859375,-2.6459999084472656 -44.04399871826172,-13.232999801635742 -39.50699996948242,-17.768999099731445 C-34.970001220703125,-22.305999755859375 -27.409000396728516,-27.22100067138672 -27.409000396728516,-27.22100067138672 C-27.409000396728516,-27.22100067138672 29.298999786376953,-32.1349983215332 45.176998138427734,-23.062000274658203 C61.05500030517578,-13.98900032043457 59.92100143432617,0.3779999911785126 59.92100143432617,0.3779999911785126 C59.92100143432617,0.3779999911785126 42.909000396728516,11.720000267028809 27.409000396728516,19.2810001373291 C11.907999992370605,26.841999053955078 3.2130000591278076,30.621999740600586 3.2130000591278076,30.621999740600586 C3.2130000591278076,30.621999740600586 -11.364999771118164,36.81100082397461 -43.178001403808594,19.170000076293945 C-61.65399932861328,8.923999786376953 -61.055999755859375,-2.6459999084472656 -61.055999755859375,-2.6459999084472656z"></path></g><g opacity="1" transform="matrix(1,0,0,1,35.137001037597656,143.04600524902344)"><path stroke-linecap="round" stroke-linejoin="round" fill-opacity="0" stroke="rgb(181,95,48)" stroke-opacity="1" stroke-width="9.367" d=" M-11.718999862670898,8.789999961853027 C-11.718999862670898,8.789999961853027 1.8899999856948853,1.7960000038146973 6.804999828338623,-1.6059999465942383 C11.718999862670898,-5.008999824523926 9.074000358581543,-8.789999961853027 9.074000358581543,-8.789999961853027"></path></g><g opacity="1" transform="matrix(1,0,0,1,83.90599822998047,173.57400512695312)"><path fill="rgb(242,175,129)" fill-opacity="1" d=" M-18.145999908447266,6.048999786376953 C-18.145999908447266,6.048999786376953 -2.6470000743865967,-4.914999961853027 2.2679998874664307,-7.560999870300293 C7.183000087738037,-10.206999778747559 12.854000091552734,-12.47599983215332 12.854000091552734,-12.47599983215332 C12.854000091552734,-12.47599983215332 18.145999908447266,-4.1579999923706055 18.145999908447266,-4.1579999923706055 C18.145999908447266,-4.1579999923706055 -6.804999828338623,12.47599983215332 -6.804999828338623,12.47599983215332 C-6.804999828338623,12.47599983215332 -13.232000350952148,10.208000183105469 -14.744999885559082,9.829999923706055 C-16.256999969482422,9.451000213623047 -18.145999908447266,6.048999786376953 -18.145999908447266,6.048999786376953z"></path></g><g opacity="1" transform="matrix(1,0,0,1,93.68900299072266,179.00799560546875)"><path stroke-linecap="round" stroke-linejoin="round" fill-opacity="0" stroke="rgb(181,95,48)" stroke-opacity="1" stroke-width="9.367" d=" M-11.293999671936035,6.663000106811523 C-11.293999671936035,6.663000106811523 -2.0320000648498535,0.9919999837875366 1.0870000123977661,-0.7089999914169312 C4.205999851226807,-2.4100000858306885 11.293999671936035,-6.663000106811523 11.293999671936035,-6.663000106811523"></path></g></g><g opacity="1" transform="matrix(1,0,0,1,0,0)"><g opacity="1" transform="matrix(1,0,0,1,73.41500091552734,90.47100067138672)"><path fill="rgb(247,208,179)" fill-opacity="1" d=" M7.4670000076293945,-10.277000427246094 C8.034000396728516,-21.052000045776367 9.545000076293945,-26.910999298095703 6.710000038146973,-32.20399856567383 C-0.0010000000474974513,-44.73099899291992 -14.642000198364258,-41.957000732421875 -22.209999084472656,-36.55099868774414 C-31.472999572753906,-29.934999465942383 -33.36399841308594,-14.4350004196167 -32.986000061035156,5.413000106811523 C-32.59700012207031,25.832000732421875 -28.826000213623047,44.72999954223633 -28.826000213623047,44.72999954223633 C-28.826000213623047,44.72999954223633 10.300999641418457,34.52299880981445 10.300999641418457,34.52299880981445 C10.300999641418457,34.52299880981445 33.362998962402344,11.461999893188477 31.660999298095703,10.895000457763672 C29.959999084472656,10.32800006866455 17.67300033569336,18.267000198364258 8.600000381469727,10.895000457763672 C4.264999866485596,7.373000144958496 7.2210001945495605,-5.603000164031982 7.4670000076293945,-10.277000427246094z"></path></g><g opacity="1" transform="matrix(1,0,0,1,72.56500244140625,90.47100067138672)"><path stroke-linecap="butt" stroke-linejoin="miter" fill-opacity="0" stroke-miterlimit="10" stroke="rgb(181,95,48)" stroke-opacity="1" stroke-width="9.367" d=" M32.51300048828125,10.895000457763672 C30.812000274658203,10.32800006866455 18.524999618530273,18.267000198364258 9.45199966430664,10.895000457763672 C5.117000102996826,7.373000144958496 8.071999549865723,-5.603000164031982 8.317999839782715,-10.277000427246094 C8.885000228881836,-21.052000045776367 10.397000312805176,-26.90999984741211 7.560999870300293,-32.202999114990234 C0.8510000109672546,-44.72999954223633 -13.791999816894531,-41.957000732421875 -21.361000061035156,-36.55099868774414 C-30.62299919128418,-29.934999465942383 -32.51300048828125,-14.4350004196167 -32.1349983215332,5.413000106811523 C-31.746000289916992,25.832000732421875 -27.976999282836914,44.72999954223633 -27.976999282836914,44.72999954223633"></path></g></g><g opacity="1" transform="matrix(1,0,0,1,0,0)"><g opacity="1" transform="matrix(1,0,0,1,176.83299255371094,80.28900146484375)"><path fill="rgb(247,208,179)" fill-opacity="1" d=" M8.390999794006348,43.94900131225586 C8.390999794006348,43.94900131225586 25.402999877929688,24.10099983215332 31.26300048828125,0.4729999899864197 C36.21799850463867,-19.507999420166016 35.233001708984375,-38.65599822998047 22.378999710083008,-41.301998138427734 C9.524999618530273,-43.94900131225586 4.23199987411499,-37.900001525878906 0.07400000095367432,-28.826000213623047 C-4.085000038146973,-19.753000259399414 -15.425999641418457,1.4179999828338623 -22.231000900268555,10.491000175476074 C-29.035999298095703,19.565000534057617 -36.21900177001953,30.9060001373291 -36.21900177001953,30.9060001373291 C-36.21900177001953,30.9060001373291 -7.109000205993652,40.356998443603516 -7.109000205993652,40.356998443603516 C-7.109000205993652,40.356998443603516 8.390999794006348,43.94900131225586 8.390999794006348,43.94900131225586z"></path></g><g opacity="1" transform="matrix(1,0,0,1,176.83299255371094,80.66699981689453)"><path stroke-linecap="round" stroke-linejoin="round" fill-opacity="0" stroke="rgb(181,95,48)" stroke-opacity="1" stroke-width="9.367" d=" M4.988999843597412,44.32699966430664 C4.988999843597412,44.32699966430664 25.40399932861328,23.722999572753906 31.263999938964844,0.0949999988079071 C36.21900177001953,-19.88599967956543 35.233001708984375,-39.034000396728516 22.3799991607666,-41.68000030517578 C9.526000022888184,-44.32699966430664 4.232999801635742,-38.27799987792969 0.07400000095367432,-29.204999923706055 C-4.084000110626221,-20.131000518798828 -15.425999641418457,1.0399999618530273 -22.231000900268555,10.11299991607666 C-29.035999298095703,19.18600082397461 -36.21900177001953,30.527999877929688 -36.21900177001953,30.527999877929688"></path></g><g opacity="1" transform="matrix(1,0,0,1,188.4290008544922,96.11900329589844)"><path fill="rgb(242,175,129)" fill-opacity="1" d=" M17.966999053955078,-36.71799850463867 C17.966999053955078,-36.71799850463867 14.234000205993652,-12.52299976348877 3.4590001106262207,5.057000160217285 C-1.975000023841858,13.923999786376953 -17.947999954223633,28.30699920654297 -17.947999954223633,28.30699920654297 C-17.947999954223633,28.30699920654297 -19.10099983215332,36.71799850463867 -14.404000282287598,31.851999282836914 C-9.157999992370605,26.41699981689453 5.945000171661377,9.593999862670898 11.918000221252441,-5.340000152587891 C19.10099983215332,-23.297000885009766 17.966999053955078,-36.71799850463867 17.966999053955078,-36.71799850463867z"></path></g></g><g opacity="1" transform="matrix(1,0,0,1,0,0)"><g opacity="1" transform="matrix(1,0,0,1,164.07899475097656,70.8030014038086)"><path fill="rgb(247,208,179)" fill-opacity="1" d=" M-31.593000411987305,37.17900085449219 C-31.593000411987305,37.17900085449219 -10.8100004196167,-6.607999801635742 -8.6899995803833,-20.479999542236328 C-6.570000171661377,-34.35300064086914 0.2630000114440918,-69.60199737548828 12.067999839782715,-65.4990005493164 C28.350000381469727,-59.84000015258789 30.725000381469727,-16.65999984741211 26.059999465942383,-5.730000019073486 C21.395999908447266,5.199999809265137 9.803999900817871,28.295000076293945 -1.9160000085830688,36.9900016784668 C-9.588000297546387,42.68199920654297 -13.446000099182129,47.38600158691406 -13.446000099182129,47.38600158691406 C-13.446000099182129,47.38600158691406 -31.593000411987305,37.17900085449219 -31.593000411987305,37.17900085449219z"></path></g><g opacity="1" transform="matrix(1,0,0,1,164.9290008544922,69.9530029296875)"><path stroke-linecap="round" stroke-linejoin="round" fill-opacity="0" stroke="rgb(181,95,48)" stroke-opacity="1" stroke-width="9.367" d=" M-30.742000579833984,22.406999588012695 C-30.742000579833984,22.406999588012695 -11.66100025177002,-5.757999897003174 -9.539999961853027,-19.631000518798828 C-7.420000076293945,-33.50299835205078 -5.980999946594238,-61.88800048828125 5.7179999351501465,-64.1500015258789 C22.999000549316406,-67.49099731445312 32.499000549316406,-32.99100112915039 26.709999084472656,-6.880000114440918 C18.23699951171875,31.334999084472656 -6.827000141143799,49.53499984741211 -6.827000141143799,49.53499984741211"></path></g></g><g opacity="1" transform="matrix(1,0,0,1,0,0)"><g opacity="1" transform="matrix(1,0,0,1,139.01699829101562,71.0250015258789)"><path fill="rgb(247,208,179)" fill-opacity="1" d=" M-28.31399917602539,26.69099998474121 C-28.31399917602539,26.69099998474121 -18.05299949645996,15.753000259399414 -13.821999549865723,-7.447999954223633 C-10.470999717712402,-25.826000213623047 -11.329999923706055,-50.47800064086914 -0.06300000101327896,-50.999000549316406 C19.801000595092773,-51.91699981689453 28.315000534057617,-24.052000045776367 22.298999786376953,-5.127999782562256 C14.427000045776367,19.63599967956543 -1.4199999570846558,34.45600128173828 -1.4199999570846558,34.45600128173828 C-1.4199999570846558,34.45600128173828 -22.485000610351562,41.41699981689453 -24.1299991607666,40.04399871826172 C-25.774999618530273,38.67100143432617 -28.31399917602539,26.69099998474121 -28.31399917602539,26.69099998474121z"></path></g><g opacity="1" transform="matrix(1,0,0,1,132.77000427246094,70.49600219726562)"><path stroke-linecap="round" stroke-linejoin="round" fill-opacity="0" stroke="rgb(181,95,48)" stroke-opacity="1" stroke-width="9.367" d=" M-35.44300079345703,32.94900131225586 C-35.44300079345703,32.94900131225586 -14.026000022888184,32.194000244140625 -7.576000213623047,-6.919000148773193 C-4.341000080108643,-26.534000396728516 -8.840999603271484,-48.534000396728516 3.184000015258789,-51.96900177001953 C26.900999069213867,-58.74399948120117 35.44200134277344,-22.05900001525879 28.636999130249023,0.6240000128746033 C21.170000076293945,25.513999938964844 7.65500020980835,40.88800048828125 7.65500020980835,40.88800048828125"></path></g></g><g opacity="1" transform="matrix(1,0,0,1,145.5290069580078,147.11000061035156)"><path stroke-linecap="round" stroke-linejoin="round" fill-opacity="0" stroke="rgb(181,95,48)" stroke-opacity="1" stroke-width="9.367" d=" M-38.56100082397461,24.385000228881836 C-38.56100082397461,24.385000228881836 -11.60200023651123,16.518999099731445 10.774999618530273,1.1349999904632568 C28.922000885009766,-11.340999603271484 38.56100082397461,-24.384000778198242 38.56100082397461,-24.384000778198242"></path></g><g opacity="1" transform="matrix(1,0,0,1,142.1269989013672,139.5489959716797)"><path fill="rgb(242,175,129)" fill-opacity="1" d=" M-45.367000579833984,21.548999786376953 C-45.367000579833984,21.548999786376953 -19.2810001373291,13.98799991607666 1.5119999647140503,3.0239999294281006 C22.30500030517578,-7.939000129699707 45.367000579833984,-29.865999221801758 45.367000579833984,-29.865999221801758 C45.367000579833984,-29.865999221801758 32.89099884033203,-3.5920000076293945 -2.6459999084472656,13.609999656677246 C-31.42799949645996,27.541000366210938 -40.07400131225586,29.865999221801758 -40.07400131225586,29.865999221801758 C-40.07400131225586,29.865999221801758 -45.367000579833984,21.548999786376953 -45.367000579833984,21.548999786376953z"></path></g></g></g></g></g></svg>